<svg height="665.43em" viewBox="0 0 595.28 665.43" width="595.28em" xmlns="http://www.w3.org/2000/svg" xmlns:xlink="http://www.w3.org/1999/xlink"><clipPath id="a"><path d="m0 72h595.28125v1h-595.28125zm0 0"/></clipPath><clipPath id="b"><path d="m0 61h595.28125v2h-595.28125zm0 0"/></clipPath><clipPath id="c"><path d="m0 50h595.28125v2h-595.28125zm0 0"/></clipPath><clipPath id="d"><path d="m0 40h595.28125v1h-595.28125zm0 0"/></clipPath><clipPath id="e"><path d="m0 29h595.28125v2h-595.28125zm0 0"/></clipPath><clipPath id="f"><path d="m0 205h595.28125v2h-595.28125zm0 0"/></clipPath><clipPath id="g"><path d="m0 194h595.28125v2h-595.28125zm0 0"/></clipPath><clipPath id="h"><path d="m0 183h595.28125v2h-595.28125zm0 0"/></clipPath><clipPath id="i"><path d="m0 173h595.28125v1h-595.28125zm0 0"/></clipPath><clipPath id="j"><path d="m0 162h595.28125v2h-595.28125zm0 0"/></clipPath><clipPath id="k"><path d="m591 160h4.28125v48h-4.28125zm0 0"/></clipPath><clipPath id="l"><path d="m0 335h595.28125v2h-595.28125zm0 0"/></clipPath><clipPath id="m"><path d="m0 324h595.28125v2h-595.28125zm0 0"/></clipPath><clipPath id="n"><path d="m0 313h595.28125v2h-595.28125zm0 0"/></clipPath><clipPath id="o"><path d="m0 303h595.28125v1h-595.28125zm0 0"/></clipPath><clipPath id="p"><path d="m0 292h595.28125v2h-595.28125zm0 0"/></clipPath><clipPath id="q"><path d="m0 463h595.28125v2h-595.28125zm0 0"/></clipPath><clipPath id="r"><path d="m0 453h595.28125v1h-595.28125zm0 0"/></clipPath><clipPath id="s"><path d="m0 442h595.28125v2h-595.28125zm0 0"/></clipPath><clipPath id="t"><path d="m0 431h595.28125v2h-595.28125zm0 0"/></clipPath><clipPath id="u"><path d="m0 421h595.28125v1h-595.28125zm0 0"/></clipPath><clipPath id="v"><path d="m0 592h595.28125v2h-595.28125zm0 0"/></clipPath><clipPath id="w"><path d="m0 581h595.28125v2h-595.28125zm0 0"/></clipPath><clipPath id="x"><path d="m0 570h595.28125v2h-595.28125zm0 0"/></clipPath><clipPath id="y"><path d="m0 560h595.28125v1h-595.28125zm0 0"/></clipPath><clipPath id="z"><path d="m0 549h595.28125v2h-595.28125zm0 0"/></clipPath><clipPath id="A"><path d="m591 547h4.28125v48h-4.28125zm0 0"/></clipPath><symbol id="B" overflow="visible"><path d="m8.484375-11.921875v-2.25c-.375-.046875-.546875-.078125-.84375-.078125-1.421875 0-2.515625.84375-3.78125 2.90625v-2.515625h-2.015625v13.859375h2.203125v-7.1875c0-3.125 1.03125-4.6875 4.4375-4.734375zm0 0"/></symbol><symbol id="C" overflow="visible"><path d="m14.140625-.046875v-1.671875c-.234375.046875-.34375.046875-.46875.046875-.765625 0-1.1875-.390625-1.1875-1.078125v-7.71875c0-2.453125-1.796875-3.78125-5.21875-3.78125-3.359375 0-5.421875 1.296875-5.546875 4.5h2.21875c.1875-1.703125 1.1875-2.46875 3.25-2.46875 1.984375 0 3.09375.75 3.09375 2.0625v.578125c0 .9375-.546875 1.328125-2.296875 1.546875-3.125.390625-3.59375.5-4.4375.84375-1.609375.65625-2.4375 1.90625-2.4375 3.59375 0 2.515625 1.75 3.984375 4.546875 3.984375 1.765625 0 3.484375-.734375 4.703125-2.03125.234375 1.0625 1.1875 1.828125 2.28125 1.828125.453125 0 .796875-.0625 1.5-.234375zm-3.859375-4.734375c0 1.984375-2 3.25-4.140625 3.25-1.71875 0-2.734375-.609375-2.734375-2.109375 0-1.46875.984375-2.09375 3.328125-2.4375 2.328125-.3125 2.8125-.421875 3.546875-.765625zm1.71875-14.484375h-2.984375l-2.53125 3.90625h1.578125zm0 0"/></symbol><symbol id="D" overflow="visible"><path d="m12.875 0v-10.46875c0-2.296875-1.71875-3.78125-4.390625-3.78125-2.0625 0-3.375.796875-4.59375 2.71875v-2.328125h-2.046875v13.859375h2.203125v-7.640625c0-2.828125 1.53125-4.671875 3.78125-4.671875 1.75 0 2.859375 1.046875 2.859375 2.71875v9.59375zm0 0"/></symbol><symbol id="E" overflow="visible"><path d="m12.640625-13.859375h-2.390625l-3.828125 10.796875-3.546875-10.796875h-2.34375l4.671875 13.90625-.84375 2.203125c-.375.96875-.8125 1.34375-1.765625 1.34375-.3125 0-.6875-.046875-1.171875-.15625v1.984375c.453125.234375.90625.34375 1.484375.34375 1.5625 0 2.828125-.875 3.578125-2.859375zm0 0"/></symbol><symbol id="F" overflow="visible"><path d="m5.078125.421875v-3.171875h-2.78125v2.75h1.59375v.46875c0 1.828125-.34375 2.359375-1.59375 2.40625v1.015625c1.859375 0 2.78125-1.1875 2.78125-3.46875zm0 0"/></symbol><symbol id="G" overflow="visible"><path d="m6.71875 0v-1.84375c-.296875.078125-.640625.09375-1.0625.09375-.953125 0-1.21875-.265625-1.21875-1.234375v-9.078125h2.28125v-1.796875h-2.28125v-3.796875h-2.1875v3.796875h-1.875v1.796875h1.875v10.046875c0 1.40625.953125 2.203125 2.671875 2.203125.53125 0 1.046875-.0625 1.796875-.1875zm0 0"/></symbol><symbol id="H" overflow="visible"><path d="m16.46875-5.5c0-2.328125-1.0625-3.734375-3.515625-4.671875 1.75-.828125 2.671875-2.25 2.671875-4.203125 0-2.8125-2.0625-4.890625-5.703125-4.890625h-7.828125v19.265625h8.6875c3.46875 0 5.6875-2.328125 5.6875-5.5zm-3.296875-8.53125c0 1.953125-1.140625 3.0625-3.859375 3.0625h-4.765625v-6.140625h4.765625c2.71875 0 3.859375 1.109375 3.859375 3.078125zm.84375 8.5625c0 1.84375-1.140625 3.296875-3.46875 3.296875h-6v-6.625h6c2.328125 0 3.46875 1.453125 3.46875 3.328125zm0 0"/></symbol><symbol id="I" overflow="visible"><path d="m13.484375-6.828125c0-4.78125-2.296875-7.421875-6.296875-7.421875-3.875 0-6.234375 2.671875-6.234375 7.328125 0 4.640625 2.328125 7.3125 6.265625 7.3125 3.890625 0 6.265625-2.671875 6.265625-7.21875zm-2.296875-.015625c0 3.25-1.53125 5.203125-3.96875 5.203125-2.453125 0-3.96875-1.921875-3.96875-5.28125 0-3.328125 1.515625-5.296875 3.96875-5.296875 2.484375 0 3.96875 1.9375 3.96875 5.375zm0 0"/></symbol><symbol id="J" overflow="visible"><path d="m3.984375 0v-19.265625h-2.1875v19.265625zm0 0"/></symbol><symbol id="K" overflow="visible"><path d="m14.140625-.046875v-1.671875c-.234375.046875-.34375.046875-.46875.046875-.765625 0-1.1875-.390625-1.1875-1.078125v-7.71875c0-2.453125-1.796875-3.78125-5.21875-3.78125-3.359375 0-5.421875 1.296875-5.546875 4.5h2.21875c.1875-1.703125 1.1875-2.46875 3.25-2.46875 1.984375 0 3.09375.75 3.09375 2.0625v.578125c0 .9375-.546875 1.328125-2.296875 1.546875-3.125.390625-3.59375.5-4.4375.84375-1.609375.65625-2.4375 1.90625-2.4375 3.59375 0 2.515625 1.75 3.984375 4.546875 3.984375 1.765625 0 3.484375-.734375 4.703125-2.03125.234375 1.0625 1.1875 1.828125 2.28125 1.828125.453125 0 .796875-.0625 1.5-.234375zm-3.859375-4.734375c0 1.984375-2 3.25-4.140625 3.25-1.71875 0-2.734375-.609375-2.734375-2.109375 0-1.46875.984375-2.09375 3.328125-2.4375 2.328125-.3125 2.8125-.421875 3.546875-.765625zm0 0"/></symbol><symbol id="L" overflow="visible"><path d="m17.265625 0-6.765625-19.265625h-3.171875l-6.875 19.265625h2.609375l2.046875-5.796875h7.421875l1.984375 5.796875zm-5.421875-7.859375h-6.140625l3.1875-8.765625zm0 0"/></symbol><symbol id="M" overflow="visible"><path d="m17.390625 0-7.921875-11.421875 7.84375-7.84375h-3.171875l-9.59375 9.75v-9.75h-2.453125v19.265625h2.453125v-6.734375l3.140625-3.15625 6.796875 9.890625zm0 0"/></symbol><symbol id="N" overflow="visible"><path d="m4.046875 0v-13.859375h-2.203125v13.859375zm.28125-15.9375v-2.75h-2.734375v2.75zm0 0"/></symbol><symbol id="O" overflow="visible"><path d="m12.140625-3.890625c0-2.0625-1.171875-3.09375-3.921875-3.75l-2.109375-.5c-1.796875-.421875-2.5625-1-2.5625-1.984375 0-1.265625 1.125-2.09375 2.9375-2.09375 1.765625 0 2.71875.765625 2.765625 2.21875h2.328125c-.03125-2.71875-1.828125-4.25-5.015625-4.25-3.234375 0-5.3125 1.671875-5.3125 4.234375 0 2.15625 1.109375 3.1875 4.375 3.984375l2.0625.5c1.546875.375 2.140625.828125 2.140625 1.828125 0 1.296875-1.28125 2.0625-3.21875 2.0625-1.984375 0-3.09375-.46875-3.390625-2.59375h-2.3125c.09375 3.203125 1.890625 4.625 5.515625 4.625 3.5 0 5.71875-1.609375 5.71875-4.28125zm0 0"/></symbol><symbol id="P" overflow="visible"><path d="m12.078125 0v-1.9375h-8.59375l8.234375-9.953125v-1.96875h-10.34375v1.9375h7.71875l-8.28125 9.9375v1.984375zm0 0"/></symbol><symbol id="Q" overflow="visible"><path d="m6.828125-12.0625v-1.796875h-2.3125v-2.15625c0-.9375.53125-1.40625 1.53125-1.40625.1875 0 .265625 0 .78125.03125v-1.828125c-.515625-.109375-.796875-.140625-1.25-.140625-2.03125 0-3.25 1.171875-3.25 3.15625v2.34375h-1.859375v1.796875h1.859375v12.0625h2.1875v-12.0625zm0 0"/></symbol><symbol id="R" overflow="visible"><path d="m13.5625-6.296875c0-2-.15625-3.28125-.5625-4.296875-.890625-2.28125-3-3.65625-5.59375-3.65625-3.859375 0-6.34375 2.859375-6.34375 7.40625s2.40625 7.234375 6.28125 7.234375c3.171875 0 5.375-1.796875 5.921875-4.59375h-2.21875c-.609375 1.828125-1.84375 2.5625-3.625 2.5625-2.296875 0-4.015625-1.484375-4.0625-4.65625zm-2.359375-1.953125s0 .109375-.015625.15625h-7.78125c.1875-2.453125 1.75-4.125 3.96875-4.125 2.171875 0 3.828125 1.796875 3.828125 3.96875zm0 0"/></symbol><symbol id="S" overflow="visible"><path d="m12.75 0v-13.859375h-2.203125v7.640625c0 2.828125-1.484375 4.6875-3.78125 4.6875-1.75 0-2.859375-1.0625-2.859375-2.71875v-9.609375h-2.1875v10.46875c0 2.3125 1.71875 3.78125 4.421875 3.78125 2.03125 0 3.328125-.703125 4.625-2.53125v2.140625zm0 0"/></symbol><symbol id="T" overflow="visible"><path d="m13.265625 0-5.65625-9.0625 4.8125-4.796875h-2.828125l-5.859375 5.875v-11.28125h-2.203125v19.265625h2.203125v-5.390625l2.140625-2.125 4.671875 7.515625zm0 0"/></symbol><symbol id="U" overflow="visible"><path d="m5.046875 0v-2.75h-2.75v2.75zm0 0"/></symbol><symbol id="V" overflow="visible"><path d="m12.84375-13.859375h-2.484375l-3.90625 11.234375-3.703125-11.234375h-2.484375l4.859375 13.859375h2.40625zm0 0"/></symbol><symbol id="W" overflow="visible"><path d="m12.84375 0v-10.46875c0-2.328125-1.65625-3.78125-4.359375-3.78125-1.953125 0-3.140625.609375-4.4375 2.296875v-7.3125h-2.203125v19.265625h2.203125v-7.640625c0-2.828125 1.484375-4.671875 3.75-4.671875 1.5625 0 2.859375.890625 2.859375 2.71875v9.59375zm0 0"/></symbol><symbol id="X" overflow="visible"><path d="m20.09375 0v-10.390625c0-2.484375-1.375-3.859375-3.96875-3.859375-1.84375 0-2.953125.5625-4.25 2.109375-.828125-1.46875-1.9375-2.109375-3.734375-2.109375-1.84375 0-3.0625.6875-4.25 2.359375v-1.96875h-2.015625v13.859375h2.203125v-8.703125c0-2 1.453125-3.609375 3.25-3.609375 1.640625 0 2.5625 1 2.5625 2.765625v9.546875h2.1875v-8.703125c0-2 1.484375-3.609375 3.28125-3.609375 1.609375 0 2.53125 1.03125 2.53125 2.765625v9.546875zm0 0"/></symbol><symbol id="Y" overflow="visible"><path d="m12.921875-2.28125v-11.578125h-2.03125v2.015625c-1.109375-1.640625-2.453125-2.40625-4.234375-2.40625-3.515625 0-5.890625 2.96875-5.890625 7.453125 0 4.359375 2.453125 7.1875 5.71875 7.1875 1.734375 0 2.953125-.734375 4.40625-2.484375v.9375c0 3.671875-1.5 5.0625-4.0625 5.0625-1.75 0-3.09375-.625-3.359375-2.3125h-2.25c.234375 2.609375 2.265625 4.171875 5.515625 4.171875 4.34375 0 6.1875-1.9375 6.1875-8.046875zm-2.234375-4.5625c0 3.296875-1.4375 5.203125-3.765625 5.203125-2.40625 0-3.859375-1.921875-3.859375-5.28125 0-3.328125 1.484375-5.296875 3.84375-5.296875 2.375 0 3.78125 2.015625 3.78125 5.375zm0 0"/></symbol><symbol id="Z" overflow="visible"><path d="m17.078125 0v-19.265625h-2.328125v15.75l-10.078125-15.75h-2.65625v19.265625h2.3125v-15.625l9.96875 15.625zm0 0"/></symbol><symbol id="aa" overflow="visible"><path d="m13.09375 0v-19.265625h-2.203125v7.15625c-.921875-1.40625-2.40625-2.140625-4.25-2.140625-3.59375 0-5.953125 2.78125-5.953125 7.1875 0 4.6875 2.296875 7.453125 6.03125 7.453125 1.90625 0 3.21875-.703125 4.40625-2.421875v2.03125zm-2.203125-6.875c0 3.203125-1.53125 5.203125-3.859375 5.203125-2.4375 0-4.046875-2.03125-4.046875-5.25 0-3.234375 1.609375-5.265625 4.015625-5.265625 2.390625 0 3.890625 2.109375 3.890625 5.3125zm0 0"/></symbol><symbol id="ab" overflow="visible"><path d="m12.75 0v-13.859375h-2.203125v7.640625c0 2.828125-1.484375 4.6875-3.78125 4.6875-1.75 0-2.859375-1.0625-2.859375-2.71875v-9.609375h-2.1875v10.46875c0 2.3125 1.71875 3.78125 4.421875 3.78125 2.03125 0 3.328125-.703125 4.625-2.53125v2.140625zm-6.359375-15.96875v-2.703125h-2.40625v2.703125zm4.296875 0v-2.703125h-2.40625v2.703125zm0 0"/></symbol><symbol id="ac" overflow="visible"><path d="m13.5625-6.296875c0-2-.15625-3.28125-.5625-4.296875-.890625-2.28125-3-3.65625-5.59375-3.65625-3.859375 0-6.34375 2.859375-6.34375 7.40625s2.40625 7.234375 6.28125 7.234375c3.171875 0 5.375-1.796875 5.921875-4.59375h-2.21875c-.609375 1.828125-1.84375 2.5625-3.625 2.5625-2.296875 0-4.015625-1.484375-4.0625-4.65625zm-2.359375-1.953125s0 .109375-.015625.15625h-7.78125c.1875-2.453125 1.75-4.125 3.96875-4.125 2.171875 0 3.828125 1.796875 3.828125 3.96875zm.9375-11.015625h-3l-2.53125 3.90625h1.59375zm0 0"/></symbol><symbol id="ad" overflow="visible"><path d="m17.03125 0v-19.265625h-2.46875v8.328125h-9.90625v-8.328125h-2.46875v19.265625h2.46875v-8.78125h9.90625v8.78125zm0 0"/></symbol><symbol id="ae" overflow="visible"><path d="m13.828125-7.078125c0-4.5-2.28125-7.171875-5.921875-7.171875-1.90625 0-3.25.71875-4.28125 2.28125v-7.296875h-2.203125v19.265625h1.984375v-1.984375c1.0625 1.609375 2.46875 2.375 4.390625 2.375 3.65625 0 6.03125-2.984375 6.03125-7.46875zm-2.296875.125c0 3.140625-1.640625 5.28125-4.046875 5.28125-2.328125 0-3.859375-2.109375-3.859375-5.25 0-3.25 1.53125-5.375 3.859375-5.265625 2.453125 0 4.046875 2.140625 4.046875 5.234375zm0 0"/></symbol><symbol id="af" overflow="visible"><path d="m12.75 0v-13.859375h-2.203125v7.640625c0 2.828125-1.484375 4.6875-3.78125 4.6875-1.75 0-2.859375-1.0625-2.859375-2.71875v-9.609375h-2.1875v10.46875c0 2.3125 1.71875 3.78125 4.421875 3.78125 2.03125 0 3.328125-.703125 4.625-2.53125v2.140625zm-3.09375-19.296875h-3l-2.53125 3.96875h1.578125zm4.328125 0h-2.984375l-2.546875 3.96875h1.59375zm0 0"/></symbol><symbol id="ag" overflow="visible"><path d="m5.046875 0v-2.75h-2.75v2.75zm0-11.109375v-2.75h-2.75v2.75zm0 0"/></symbol><symbol id="ah" overflow="visible"><path d="m15.671875-17.109375v-2.15625h-15.109375v2.15625h6.34375v17.109375h2.453125v-17.109375zm0 0"/></symbol><symbol id="ai" overflow="visible"><path d="m11.265625-4.9375v-14.328125h-2.46875v13.421875c0 3.171875-1.078125 4.25-2.953125 4.25-1.859375 0-2.875-1.234375-2.875-3.484375v-1.109375h-2.46875v1.5625c0 3.125 1.953125 5.09375 5.3125 5.09375s5.453125-2.078125 5.453125-5.40625zm0 0"/></symbol><symbol id="aj" overflow="visible"><path d="m13.484375-6.828125c0-4.78125-2.296875-7.421875-6.296875-7.421875-3.875 0-6.234375 2.671875-6.234375 7.328125 0 4.640625 2.328125 7.3125 6.265625 7.3125 3.890625 0 6.265625-2.671875 6.265625-7.21875zm-2.296875-.015625c0 3.25-1.53125 5.203125-3.96875 5.203125-2.453125 0-3.96875-1.921875-3.96875-5.28125 0-3.328125 1.515625-5.296875 3.96875-5.296875 2.484375 0 3.96875 1.9375 3.96875 5.375zm.890625-12.421875h-2.984375l-2.53125 3.90625h1.578125zm0 0"/></symbol><symbol id="ak" overflow="visible"><path d="m4.78125-10.34375v-8.921875h-2.1875v8.921875l.578125 5.90625h1.03125zm0 10.34375v-2.75h-2.21875v2.75zm0 0"/></symbol><symbol id="al" overflow="visible"><path d="m5.109375 0v-19.265625h-2.46875v19.265625zm0 0"/></symbol><symbol id="am" overflow="visible"><path d="m9.515625-5.78125c-1.796875 0-3.515625.59375-5.0625 1.546875-2.015625 1.1875-4.453125 3.296875-4.453125 6.328125 0 2.53125 2.234375 3.6875 4.5 3.6875 1.796875 0 3.515625-.59375 5.046875-1.546875 2.015625-1.1875 4.421875-3.296875 4.421875-6.328125 0-2.53125-2.1875-3.6875-4.453125-3.6875zm0 0"/></symbol><symbol id="an" overflow="visible"><path d="m13.53125-2.875c0 .4375-.125.90625-.421875 1.25-.90625 1.0625-2.953125 2.390625-4.578125 3.421875-1.640625 1.03125-3.6875 2.40625-5.015625 2.78125-.171875.046875-.390625.09375-.5625.09375-.9375 0-1.796875-.734375-1.796875-1.796875 0-.4375.125-.90625.421875-1.25.90625-1.0625 2.96875-2.390625 4.59375-3.421875s3.6875-2.40625 5.015625-2.78125c.171875-.046875.375-.09375.546875-.09375.953125 0 1.796875.734375 1.796875 1.796875zm-2.171875-2.90625c-3.21875 0-5.828125.6875-8.109375 2.21875-1.359375.953125-2.265625 2.40625-2.78125 3.984375-.25.78125-.46875 1.640625-.46875 2.453125 0 2.015625 1.453125 2.90625 3.34375 2.90625 3.21875 0 5.828125-.6875 8.09375-2.21875 1.375-.953125 2.265625-2.40625 2.78125-3.984375.265625-.78125.484375-1.640625.484375-2.453125 0-2.015625-1.46875-2.90625-3.34375-2.90625zm0 0"/></symbol><symbol id="ao" overflow="visible"><path d="m6.078125 0c.171875 0 .34375-.171875.34375-.34375v-10.03125c0-.171875-.171875-.34375-.34375-.34375h-5.734375c-.171875 0-.34375.171875-.34375.34375v10.03125c0 .171875.171875.34375.34375.34375zm0 0"/></symbol><symbol id="ap" overflow="visible"><path d="m9.21875 13.53125v-6.96875l2.09375-.734375c.25-.09375.46875-.34375.46875-.640625v-2.78125c0-.484375-.46875-.828125-.90625-.65625l-1.65625.609375v-7.03125l2.09375-.765625c.25-.09375.46875-.34375.46875-.640625v-2.75c0-.46875-.46875-.8125-.90625-.640625l-1.65625.5625v-6.4375c0-.375-.34375-.71875-.734375-.71875s-.734375.34375-.734375.71875v6.953125l-3.71875 1.328125v-6.46875c0-.390625-.34375-.734375-.734375-.734375s-.71875.34375-.71875.734375v6.96875l-2.109375.734375c-.25.09375-.46875.34375-.46875.640625v2.78125c0 .484375.46875.828125.90625.65625l1.671875-.609375v7.03125l-2.109375.765625c-.25.09375-.46875.34375-.46875.640625v2.75c0 .46875.46875.8125.90625.640625l1.671875-.5625v6.4375c0 .375.328125.71875.71875.71875s.734375-.34375.734375-.71875v-6.953125l3.71875-1.328125v6.46875c0 .390625.34375.734375.734375.734375s.734375-.34375.734375-.734375zm-5.1875-16.40625 3.71875-1.28125v7.03125l-3.71875 1.28125zm0 0"/></symbol><symbol id="aq" overflow="visible"><path d="m16.03125-11.140625c-.6875-3-1.5-5.953125-2.359375-8.90625 4.109375-4.671875 7.828125-9.46875 7.828125-15.640625 0-4.84375-2.65625-11.78125-5.640625-15.375-.21875-.171875-.484375-.171875-.6875 0-4.078125 2.953125-6.4375 7.65625-6.4375 12.625 0 2.234375.046875 4.421875.3125 6.609375.296875 2.78125 1.015625 5.484375 1.796875 8.171875-5.0625 5.75-10.765625 11.234375-10.765625 18.859375 0 8.609375 6.21875 15.9375 14.28125 15.9375 1.328125 0 2.5625-.125 3.8125-.34375.125 1.375.203125 2.734375.203125 4.109375 0 .78125-.03125 1.5-.078125 2.28125-.265625 4.234375-2.875 8.140625-6.859375 8.21875-.046875 0-.078125.046875-.125.046875-2.1875 0-4.078125-1.25-5.1875-3 .46875.21875.984375.375 1.5.375 2.234375 0 4.078125-1.828125 4.078125-4.0625 0-2.40625-1.765625-4.453125-4.078125-4.453125-2.53125 0-4.796875 1.96875-4.796875 4.453125 0 4.625 3.734375 8.359375 8.359375 8.359375 5.046875 0 8.515625-4.546875 8.828125-9.6875.03125-.8125.03125-1.578125.03125-2.40625 0-1.53125-.078125-3.078125-.203125-4.625 1.109375-.34375 2.171875-.859375 3.125-1.578125 3.171875-2.359375 4.578125-5.65625 4.578125-8.90625 0-5.65625-4.28125-11.109375-10.875-11.109375-.21875 0-.4375.046875-.640625.046875zm3.640625 19.921875c-.609375-5.3125-1.59375-10.359375-2.65625-15.375 4.703125.375 7.65625 4.328125 7.65625 8.265625 0 3-2.046875 6.078125-5 7.109375zm-16.625-10.109375c0-6.859375 4.625-12.046875 9.25-17.21875.6875 2.515625 1.375 5.046875 1.96875 7.625-4.328125.984375-6.765625 4.625-6.765625 8.390625 0 3 1.546875 6.046875 4.96875 7.890625.125.03125.25.078125.390625.078125.46875 0 .84375-.421875.84375-.890625 0-.21875-.125-.4375-.296875-.609375-2.390625-1.359375-3.515625-3.421875-3.515625-5.3125 0-2.53125 1.984375-4.796875 5.359375-5.1875 1.109375 5.15625 2.109375 10.25 2.75 15.734375-1.15625.171875-2.3125.25-3.515625.25-5.828125 0-11.4375-4.921875-11.4375-10.75zm14.5625-43.65625c.734375 2.265625.90625 3.390625.90625 5.875 0 5.4375-2.875 9.765625-6.390625 13.921875-.765625-2.703125-1.40625-5.3125-1.40625-8.578125 0-4.75 2.65625-9.078125 6.890625-11.21875zm0 0"/></symbol><symbol id="ar" overflow="visible"><path d="m0 0c0 1.375 1.078125 2.4375 2.4375 2.4375 1.375 0 2.453125-1.0625 2.453125-2.4375s-1.078125-2.4375-2.453125-2.4375c-1.359375 0-2.4375 1.0625-2.4375 2.4375zm0 0"/></symbol><symbol id="as" overflow="visible"><path d="m6.078125 10.71875c.171875 0 .34375-.171875.34375-.34375v-20.75c0-.171875-.171875-.34375-.34375-.34375h-5.734375c-.171875 0-.34375.171875-.34375.34375v20.75c0 .171875.171875.34375.34375.34375zm0 0"/></symbol><symbol id="at" overflow="visible"><path d="m-2.703125-2.015625c0 1.5 1.203125 2.703125 2.703125 2.703125s2.703125-1.203125 2.703125-2.703125-1.203125-2.703125-2.703125-2.703125-2.703125 1.203125-2.703125 2.703125zm2.703125-13.40625c-6.640625 0-14.09375 7.40625-14.09375 15.5 0 .34375.34375.609375.6875.609375.296875 0 .640625-.21875.71875-.6875 1.125-6.390625 6.296875-11.359375 12.6875-11.359375s11.5625 4.96875 12.6875 11.359375c.078125.46875.421875.6875.71875.6875.34375 0 .6875-.265625.6875-.609375 0-8.09375-7.40625-15.5-14.09375-15.5zm0 0"/></symbol><symbol id="au" overflow="visible"><path d="m8.90625 0v-16.703125h-2.1875c-.515625 1.984375-2.234375 2.984375-5.109375 2.984375v2.203125h4v11.515625zm0 0"/></symbol><symbol id="av" overflow="visible"><path d="m5.046875 0v-3.4375h-3.53125v3.4375zm0 0"/></symbol><g clip-path="url(#a)"><path d="m5.794271 9881.90625h9909.700521" fill="none" stroke="#000" stroke-linecap="round" stroke-miterlimit="10" stroke-width="11.5845" transform="matrix(.06 0 0 -.06 0 665.43)"/></g><g clip-path="url(#b)"><path d="m5.794271 10060.421875h9909.700521" fill="none" stroke="#000" stroke-linecap="round" stroke-miterlimit="10" stroke-width="11.5845" transform="matrix(.06 0 0 -.06 0 665.43)"/></g><g clip-path="url(#c)"><path d="m5.794271 10238.872396h9909.700521" fill="none" stroke="#000" stroke-linecap="round" stroke-miterlimit="10" stroke-width="11.5845" transform="matrix(.06 0 0 -.06 0 665.43)"/></g><g clip-path="url(#d)"><path d="m5.794271 10417.388021h9909.700521" fill="none" stroke="#000" stroke-linecap="round" stroke-miterlimit="10" stroke-width="11.5845" transform="matrix(.06 0 0 -.06 0 665.43)"/></g><g clip-path="url(#e)"><path d="m5.794271 10595.903646h9909.700521" fill="none" stroke="#000" stroke-linecap="round" stroke-miterlimit="10" stroke-width="11.5845" transform="matrix(.06 0 0 -.06 0 665.43)"/></g><path d="m8954.101562 10188.091146h8.398438v583.007812h-8.398438zm0 0" style="fill:none;stroke-width:6.6401;stroke-linecap:round;stroke-linejoin:round;stroke:#000;stroke-miterlimit:10" transform="matrix(.06 0 0 -.06 0 665.43)"/><path d="m537.246094 54.144531h.503906v-34.980469h-.503906zm0 0"/><use x="511.992024" xlink:href="#B" y="141.415952"/><use x="520.665998" xlink:href="#C" y="141.415952"/><use x="535.292464" xlink:href="#D" y="141.415952"/><use x="502.893096" xlink:href="#B" y="111.428292"/><use x="511.566835" xlink:href="#C" y="111.428292"/><use x="526.193535" xlink:href="#D" y="111.428292"/><use x="540.310234" xlink:href="#E" y="111.428292"/><use x="551.705595" xlink:href="#F" y="111.428292"/><use x="523.963638" xlink:href="#am" y="56.448282"/><path d="m7430.403646 9647.270833h8.398437v540.429688h-8.398437zm0 0" style="fill:none;stroke-width:6.6401;stroke-linecap:round;stroke-linejoin:round;stroke:#000;stroke-miterlimit:10" transform="matrix(.06 0 0 -.06 0 665.43)"/><path d="m445.824219 86.59375h.503906v-32.425781h-.503906zm0 0"/><use x="442.000884" xlink:href="#G" y="141.415952"/><use x="449.31482" xlink:href="#C" y="141.415952"/><use x="436.814154" xlink:href="#H" y="111.428292"/><use x="454.502697" xlink:href="#C" y="111.428292"/><use x="445.624091" xlink:href="#an" y="51.093271"/><path d="m6565.169271 10188.091146h8.398437v545.963541h-8.398437zm0 0" style="fill:none;stroke-width:6.6401;stroke-linecap:round;stroke-linejoin:round;stroke:#000;stroke-miterlimit:10" transform="matrix(.06 0 0 -.06 0 665.43)"/><path d="m393.910156 54.144531h.503906v-32.757812h-.503906zm0 0"/><use x="377.329755" xlink:href="#I" y="141.415952"/><use x="391.956191" xlink:href="#J" y="141.415952"/><use x="370.01701" xlink:href="#J" y="111.428292"/><use x="375.969689" xlink:href="#K" y="111.428292"/><use x="390.596126" xlink:href="#D" y="111.428292"/><use x="380.627431" xlink:href="#am" y="56.448282"/><path d="m2354.101562 9353.976562h108.528646v5.794271h-108.528646zm0 0" style="fill:none;stroke-width:9.26401;stroke-linecap:round;stroke-linejoin:round;stroke:#000;stroke-miterlimit:10" transform="matrix(.06 0 0 -.06 0 665.43)"/><path d="m141.246094 104.191406h6.511718v-.347656h-6.511718zm0 0"/><path d="m3395.182292 8854.171875h108.528645v5.794271h-108.528645zm0 0" style="fill:none;stroke-width:9.26401;stroke-linecap:round;stroke-linejoin:round;stroke:#000;stroke-miterlimit:10" transform="matrix(.06 0 0 -.06 0 665.43)"/><path d="m203.710938 134.179688h6.511718v-.347657h-6.511718zm0 0"/><path d="m4705.273437 9353.976562h108.528646v5.794271h-108.528646zm0 0" style="fill:none;stroke-width:9.26401;stroke-linecap:round;stroke-linejoin:round;stroke:#000;stroke-miterlimit:10" transform="matrix(.06 0 0 -.06 0 665.43)"/><path d="m282.316406 104.191406h6.511719v-.347656h-6.511719zm0 0"/><path d="m4876.041667 8854.171875h108.59375v5.794271h-108.59375zm0 0" style="fill:none;stroke-width:9.26401;stroke-linecap:round;stroke-linejoin:round;stroke:#000;stroke-miterlimit:10" transform="matrix(.06 0 0 -.06 0 665.43)"/><path d="m292.5625 134.179688h6.515625v-.347657h-6.515625zm0 0"/><path d="m5482.747396 10697.791667h1090.820312v79.036458h-1090.820312zm0 0" fill="none" stroke="#000" stroke-linejoin="round" stroke-miterlimit="10" stroke-width="6.6401" transform="matrix(.06 0 0 -.06 0 665.43)"/><path d="m328.964844 23.5625h65.449218v-4.742188h-65.449218zm0 0"/><path d="m5840.039062 9353.976562h108.528646v5.794271h-108.528646zm0 0" fill="none" stroke="#000" stroke-linejoin="round" stroke-miterlimit="10" stroke-width="9.26401" transform="matrix(.06 0 0 -.06 0 665.43)"/><path d="m350.402344 104.191406h6.511718v-.347656h-6.511718zm0 0"/><path d="m6944.986979 8854.171875h108.528646v5.794271h-108.528646zm0 0" fill="none" stroke="#000" stroke-linejoin="round" stroke-miterlimit="10" stroke-width="9.26401" transform="matrix(.06 0 0 -.06 0 665.43)"/><path d="m416.699219 134.179688h6.511719v-.347657h-6.511719zm0 0"/><path d="m8045.898437 9353.976562h108.528646v5.794271h-108.528646zm0 0" fill="none" stroke="#000" stroke-linejoin="round" stroke-miterlimit="10" stroke-width="9.26401" transform="matrix(.06 0 0 -.06 0 665.43)"/><path d="m482.753906 104.191406h6.511719v-.347656h-6.511719zm0 0"/><path d="m8078.450521 8854.171875h108.59375v5.794271h-108.59375zm0 0" fill="none" stroke="#000" stroke-linejoin="round" stroke-miterlimit="10" stroke-width="9.26401" transform="matrix(.06 0 0 -.06 0 665.43)"/><path d="m484.707031 134.179688h6.515625v-.347657h-6.515625zm0 0"/><use x="579.212158" xlink:href="#ao" y="40.38375"/><use x="46.053092" xlink:href="#ap" y="29.673728"/><use x="57.834016" xlink:href="#ap" y="45.738561"/><path d="m5482.747396 10188.091146h8.398437v545.963541h-8.398437zm0 0" fill="none" stroke="#000" stroke-linejoin="round" stroke-miterlimit="10" stroke-width="6.6401" transform="matrix(.06 0 0 -.06 0 665.43)"/><path d="m328.964844 54.144531h.503906v-32.757812h-.503906zm0 0"/><path d="m1827.864583 9831.125h8.398438v582.942708h-8.398438zm0 0" fill="none" stroke="#000" stroke-linejoin="round" stroke-miterlimit="10" stroke-width="6.6401" transform="matrix(.06 0 0 -.06 0 665.43)"/><path d="m109.671875 75.5625h.503906v-34.976562h-.503906zm0 0"/><use x="94.536989" xlink:href="#L" y="141.415952"/><use x="43.433787" xlink:href="#au" y="111.428292"/><use x="56.529989" xlink:href="#av" y="111.428292"/><use x="73.872348" xlink:href="#M" y="111.428292"/><use x="91.560664" xlink:href="#B" y="111.428292"/><use x="100.405057" xlink:href="#N" y="111.428292"/><use x="106.357494" xlink:href="#O" y="111.428292"/><use x="119.623853" xlink:href="#P" y="111.428292"/><use x="8.567817" xlink:href="#aq" y="61.802993"/><use x="96.388793" xlink:href="#am" y="77.867825"/><use x="311.792224" xlink:href="#Q" y="141.415952"/><use x="318.935769" xlink:href="#K" y="141.415952"/><use x="308.050416" xlink:href="#G" y="111.428292"/><use x="315.364118" xlink:href="#K" y="111.428292"/><use x="329.990555" xlink:href="#G" y="111.428292"/><use x="315.684261" xlink:href="#am" y="56.448282"/><path d="m4294.205729 10188.091146h8.398438v583.007812h-8.398438zm0 0" fill="none" stroke="#000" stroke-linejoin="round" stroke-miterlimit="10" stroke-width="6.6401" transform="matrix(.06 0 0 -.06 0 665.43)"/><path d="m257.652344 54.144531h.503906v-34.980469h-.503906zm0 0"/><use x="222.874446" xlink:href="#B" y="141.415952"/><use x="231.378058" xlink:href="#R" y="141.415952"/><use x="246.004494" xlink:href="#O" y="141.415952"/><use x="259.270611" xlink:href="#P" y="141.415952"/><use x="272.536962" xlink:href="#G" y="141.415952"/><use x="239.627879" xlink:href="#C" y="111.428292"/><use x="254.254316" xlink:href="#B" y="111.428292"/><use x="244.370229" xlink:href="#am" y="56.448282"/><use x="156.112352" xlink:href="#G" y="111.428292"/><use x="163.426039" xlink:href="#S" y="111.428292"/><use x="178.052476" xlink:href="#O" y="111.428292"/><use x="191.318827" xlink:href="#F" y="111.428292"/><use x="170.379981" xlink:href="#am" y="67.158003"/><use x="163.681057" xlink:href="#T" y="141.415852"/><use x="176.43647" xlink:href="#R" y="141.415852"/><path d="m3061.002604 10009.575521h8.398438v583.007812h-8.398438zm0 0" fill="none" stroke="#000" stroke-linejoin="round" stroke-miterlimit="10" stroke-width="6.6401" transform="matrix(.06 0 0 -.06 0 665.43)"/><path d="m183.660156 64.855469h.503906v-34.980469h-.503906zm0 0"/><g clip-path="url(#f)"><path d="m5.794271 7662.570312h9909.700521" style="fill:none;stroke-width:11.5845;stroke-linecap:round;stroke-linejoin:round;stroke:#000;stroke-miterlimit:10" transform="matrix(.06 0 0 -.06 0 665.43)"/></g><g clip-path="url(#g)"><path d="m5.794271 7841.085937h9909.700521" style="fill:none;stroke-width:11.5845;stroke-linecap:round;stroke-linejoin:round;stroke:#000;stroke-miterlimit:10" transform="matrix(.06 0 0 -.06 0 665.43)"/></g><g clip-path="url(#h)"><path d="m5.794271 8019.536458h9909.700521" style="fill:none;stroke-width:11.5845;stroke-linecap:round;stroke-linejoin:round;stroke:#000;stroke-miterlimit:10" transform="matrix(.06 0 0 -.06 0 665.43)"/></g><g clip-path="url(#i)"><path d="m5.794271 8198.052083h9909.700521" style="fill:none;stroke-width:11.5845;stroke-linecap:round;stroke-linejoin:round;stroke:#000;stroke-miterlimit:10" transform="matrix(.06 0 0 -.06 0 665.43)"/></g><g clip-path="url(#j)"><path d="m5.794271 8376.567708h9909.700521" style="fill:none;stroke-width:11.5845;stroke-linecap:round;stroke-linejoin:round;stroke:#000;stroke-miterlimit:10" transform="matrix(.06 0 0 -.06 0 665.43)"/></g><use x="580.730161" xlink:href="#ar" y="178.900027"/><use x="580.730161" xlink:href="#ar" y="189.609848"/><g clip-path="url(#k)"><path d="m9886.523437 7662.570312v713.997396" fill="none" stroke="#000" stroke-linejoin="round" stroke-miterlimit="10" stroke-width="69.4533" transform="matrix(.06 0 0 -.06 0 665.43)"/></g><path d="m9806.119792 7662.570312v713.997396" fill="none" stroke="#000" stroke-linejoin="round" stroke-miterlimit="10" stroke-width="21.9909" transform="matrix(.06 0 0 -.06 0 665.43)"/><use x="504.410009" xlink:href="#G" y="271.424212"/><use x="511.723681" xlink:href="#C" y="271.424212"/><use x="526.350147" xlink:href="#J" y="271.424212"/><use x="532.302797" xlink:href="#U" y="271.424212"/><use x="504.410009" xlink:href="#G" y="241.436552"/><use x="511.723681" xlink:href="#C" y="241.436552"/><use x="526.350147" xlink:href="#J" y="241.436552"/><use x="532.302797" xlink:href="#F" y="241.436552"/><use x="514.665829" xlink:href="#an" y="211.030291"/><path d="m7709.830729 7713.807292h8.398438v570.182291h-8.398438zm0 0" fill="none" stroke="#000" stroke-linejoin="round" stroke-miterlimit="10" stroke-width="6.6401" transform="matrix(.06 0 0 -.06 0 665.43)"/><path d="m462.589844 202.601562h.503906v-34.210937h-.503906zm0 0"/><use x="439.279879" xlink:href="#V" y="271.424212"/><use x="452.035291" xlink:href="#I" y="271.424212"/><use x="466.661728" xlink:href="#J" y="271.424212"/><use x="438.344018" xlink:href="#W" y="241.436552"/><use x="452.970454" xlink:href="#I" y="241.436552"/><use x="467.596891" xlink:href="#J" y="241.436552"/><use x="448.600738" xlink:href="#an" y="205.67528"/><path d="m6780.013021 7790.239583h8.398437v546.223959h-8.398437zm0 0" fill="none" stroke="#000" stroke-linejoin="round" stroke-miterlimit="10" stroke-width="6.6401" transform="matrix(.06 0 0 -.06 0 665.43)"/><path d="m406.796875 198.015625h.507813v-32.773437h-.507813zm0 0"/><use x="393.518787" xlink:href="#am" y="200.32007"/><path d="m5861.979167 7879.497396h8.398437v493.424479h-8.398437zm0 0" fill="none" stroke="#000" stroke-linejoin="round" stroke-miterlimit="10" stroke-width="6.6401" transform="matrix(.06 0 0 -.06 0 665.43)"/><path d="m351.71875 192.660156h.503906v-29.605468h-.503906zm0 0"/><use x="338.436677" xlink:href="#X" y="271.424212"/><use x="360.547187" xlink:href="#R" y="271.424212"/><use x="375.173624" xlink:href="#O" y="271.424212"/><use x="338.436677" xlink:href="#X" y="241.436552"/><use x="360.547187" xlink:href="#R" y="241.436552"/><use x="375.173624" xlink:href="#Y" y="241.436552"/><use x="338.436677" xlink:href="#am" y="194.965559"/><path d="m8087.565104 6687.375h108.528646v5.794271h-108.528646zm0 0" fill="none" stroke="#000" stroke-linejoin="round" stroke-miterlimit="10" stroke-width="9.26401" transform="matrix(.06 0 0 -.06 0 665.43)"/><path d="m485.253906 264.1875h6.511719v-.347656h-6.511719zm0 0"/><path d="m3212.890625 7187.179687h108.528646v5.794271h-108.528646zm0 0" fill="none" stroke="#000" stroke-linejoin="round" stroke-miterlimit="10" stroke-width="9.26401" transform="matrix(.06 0 0 -.06 0 665.43)"/><path d="m192.773438 234.199219h6.511718v-.347657h-6.511718zm0 0"/><path d="m3193.75 6687.375h108.528646v5.794271h-108.528646zm0 0" fill="none" stroke="#000" stroke-linejoin="round" stroke-miterlimit="10" stroke-width="9.26401" transform="matrix(.06 0 0 -.06 0 665.43)"/><path d="m191.625 264.1875h6.511719v-.347656h-6.511719zm0 0"/><path d="m4087.565104 7187.179687h108.528646v5.794271h-108.528646zm0 0" fill="none" stroke="#000" stroke-linejoin="round" stroke-miterlimit="10" stroke-width="9.26401" transform="matrix(.06 0 0 -.06 0 665.43)"/><path d="m245.253906 234.199219h6.511719v-.347657h-6.511719zm0 0"/><path d="m4172.591146 6687.375h108.528646v5.794271h-108.528646zm0 0" fill="none" stroke="#000" stroke-linejoin="round" stroke-miterlimit="10" stroke-width="9.26401" transform="matrix(.06 0 0 -.06 0 665.43)"/><path d="m250.355469 264.1875h6.511719v-.347656h-6.511719zm0 0"/><path d="m5289.453125 6687.375h108.528646v5.794271h-108.528646zm0 0" fill="none" stroke="#000" stroke-linejoin="round" stroke-miterlimit="10" stroke-width="9.26401" transform="matrix(.06 0 0 -.06 0 665.43)"/><path d="m317.367188 264.1875h6.511718v-.347656h-6.511718zm0 0"/><path d="m5861.979167 8416.085937v-79.036458l926.432291-37.044271v79.036459zm0 0" fill="none" stroke="#000" stroke-linejoin="round" stroke-miterlimit="10" stroke-width="6.6401" transform="matrix(.06 0 0 -.06 0 665.43)"/><path d="m351.71875 160.464844v4.742187l55.585938 2.222657v-4.742188zm0 0"/><path d="m5751.888021 7628.846354c196.484375-200.585937 696.158854-234.635417 918.033854-62.434896-220.963542-158.333333-720.638021-124.348958-918.033854 62.434896zm0 0" style="fill:none;stroke-width:9.26051;stroke-linecap:round;stroke-linejoin:round;stroke:#000;stroke-miterlimit:10" transform="matrix(.06 0 0 -.06 0 665.43)"/><path d="m345.113281 207.699219c11.789063 12.035156 41.769531 14.078125 55.082031 3.746093-13.257812 9.5-43.238281 7.460938-55.082031-3.746093"/><path d="m6846.940104 7187.179687h108.528646v5.794271h-108.528646zm0 0" fill="none" stroke="#000" stroke-linejoin="round" stroke-miterlimit="10" stroke-width="9.26401" transform="matrix(.06 0 0 -.06 0 665.43)"/><path d="m410.816406 234.199219h6.511719v-.347657h-6.511719zm0 0"/><path d="m8095.377604 7187.179687h108.528646v5.794271h-108.528646zm0 0" fill="none" stroke="#000" stroke-linejoin="round" stroke-miterlimit="10" stroke-width="9.26401" transform="matrix(.06 0 0 -.06 0 665.43)"/><path d="m485.722656 234.199219h6.511719v-.347657h-6.511719zm0 0"/><path d="m8810.9375 7624.549479h8.398437v570.182292h-8.398437zm0 0" fill="none" stroke="#000" stroke-linejoin="round" stroke-miterlimit="10" stroke-width="6.6401" transform="matrix(.06 0 0 -.06 0 665.43)"/><path d="m528.65625 207.957031h.503906v-34.210937h-.503906zm0 0"/><use x="8.567827" xlink:href="#aq" y="194.965059"/><path d="m1810.026042 7968.755208h8.398437v583.007813h-8.398437zm0 0" fill="none" stroke="#000" stroke-linejoin="round" stroke-miterlimit="10" stroke-width="6.6401" transform="matrix(.06 0 0 -.06 0 665.43)"/><path d="m108.601562 187.304688h.503907v-34.976563h-.503907zm0 0"/><use x="71.611543" xlink:href="#Z" y="271.424212"/><use x="90.489784" xlink:href="#K" y="271.424212"/><use x="105.116221" xlink:href="#Y" y="271.424212"/><use x="119.742657" xlink:href="#E" y="271.424212"/><use x="90.489781" xlink:href="#M" y="241.436552"/><use x="108.178097" xlink:href="#N" y="241.436552"/><use x="95.317681" xlink:href="#am" y="189.610548"/><use x="46.052382" xlink:href="#ap" y="162.835995"/><use x="57.833306" xlink:href="#ap" y="178.900827"/><use x="217.999626" xlink:href="#am" y="205.67538"/><path d="m4858.333333 7790.239583h8.398438v583.007813h-8.398438zm0 0" fill="none" stroke="#000" stroke-linejoin="round" stroke-miterlimit="10" stroke-width="6.6401" transform="matrix(.06 0 0 -.06 0 665.43)"/><path d="m291.5 198.015625h.503906v-34.980469h-.503906zm0 0"/><use x="267.607535" xlink:href="#aa" y="271.424212"/><use x="282.233972" xlink:href="#R" y="271.424212"/><use x="296.860409" xlink:href="#J" y="271.424212"/><use x="260.293851" xlink:href="#G" y="241.436552"/><use x="267.607552" xlink:href="#ab" y="241.436552"/><use x="282.233989" xlink:href="#D" y="241.436552"/><use x="296.860426" xlink:href="#T" y="241.436552"/><use x="278.217686" xlink:href="#am" y="200.32027"/><path d="m3854.6875 7700.981771h8.398437v583.007812h-8.398437zm0 0" fill="none" stroke="#000" stroke-linejoin="round" stroke-miterlimit="10" stroke-width="6.6401" transform="matrix(.06 0 0 -.06 0 665.43)"/><path d="m231.28125 203.371094h.503906v-34.980469h-.503906zm0 0"/><use x="210.364421" xlink:href="#Y" y="271.424212"/><use x="224.990858" xlink:href="#R" y="271.424212"/><use x="213.256147" xlink:href="#ac" y="241.436552"/><use x="227.882583" xlink:href="#B" y="241.436552"/><path d="m2851.041667 7611.723958h8.398437v583.007813h-8.398437zm0 0" fill="none" stroke="#000" stroke-linejoin="round" stroke-miterlimit="10" stroke-width="6.6401" transform="matrix(.06 0 0 -.06 0 665.43)"/><path d="m171.0625 208.726562h.503906v-34.980468h-.503906zm0 0"/><use x="150.1463" xlink:href="#R" y="271.424212"/><use x="164.772737" xlink:href="#D" y="271.424212"/><use x="157.780146" xlink:href="#am" y="211.030291"/><use x="150.740681" xlink:href="#X" y="241.436552"/><use x="172.851192" xlink:href="#N" y="241.436552"/><g clip-path="url(#l)"><path d="m5.794271 5495.773437h9909.700521" style="fill:none;stroke-width:11.5845;stroke-linecap:round;stroke-linejoin:round;stroke:#000;stroke-miterlimit:10" transform="matrix(.06 0 0 -.06 0 665.43)"/></g><g clip-path="url(#m)"><path d="m5.794271 5674.289062h9909.700521" style="fill:none;stroke-width:11.5845;stroke-linecap:round;stroke-linejoin:round;stroke:#000;stroke-miterlimit:10" transform="matrix(.06 0 0 -.06 0 665.43)"/></g><g clip-path="url(#n)"><path d="m5.794271 5852.739583h9909.700521" style="fill:none;stroke-width:11.5845;stroke-linecap:round;stroke-linejoin:round;stroke:#000;stroke-miterlimit:10" transform="matrix(.06 0 0 -.06 0 665.43)"/></g><g clip-path="url(#o)"><path d="m5.794271 6031.255208h9909.700521" style="fill:none;stroke-width:11.5845;stroke-linecap:round;stroke-linejoin:round;stroke:#000;stroke-miterlimit:10" transform="matrix(.06 0 0 -.06 0 665.43)"/></g><g clip-path="url(#p)"><path d="m5.794271 6209.770833h9909.700521" style="fill:none;stroke-width:11.5845;stroke-linecap:round;stroke-linejoin:round;stroke:#000;stroke-miterlimit:10" transform="matrix(.06 0 0 -.06 0 665.43)"/></g><use x="527.731055" xlink:href="#an" y="319.618308"/><use x="450.648901" xlink:href="#ap" y="324.973319"/><path d="m7990.950521 5712.700521h8.463541v583.007812h-8.463541zm0 0" style="fill:none;stroke-width:6.6401;stroke-linecap:round;stroke-linejoin:round;stroke:#000;stroke-miterlimit:10" transform="matrix(.06 0 0 -.06 0 665.43)"/><path d="m479.457031 322.667969h.507813v-34.980469h-.507813zm0 0"/><use x="466.177932" xlink:href="#am" y="324.973319"/><path d="m6965.104167 5801.958333h8.463541v583.007813h-8.463541zm0 0" style="fill:none;stroke-width:6.6401;stroke-linecap:round;stroke-linejoin:round;stroke:#000;stroke-miterlimit:10" transform="matrix(.06 0 0 -.06 0 665.43)"/><path d="m417.90625 317.3125h.507812v-34.980469h-.507812zm0 0"/><use x="404.625809" xlink:href="#N" y="374.493418"/><use x="410.578254" xlink:href="#D" y="374.493418"/><use x="404.625809" xlink:href="#am" y="319.618108"/><path d="m5723.958333 5261.072917h8.398438v553.255208h-8.398438zm0 0" style="fill:none;stroke-width:6.6401;stroke-linecap:round;stroke-linejoin:round;stroke:#000;stroke-miterlimit:10" transform="matrix(.06 0 0 -.06 0 665.43)"/><path d="m343.4375 349.765625h.503906v-33.195313h-.503906zm0 0"/><use x="335.602671" xlink:href="#D" y="374.493418"/><use x="350.229108" xlink:href="#R" y="374.493418"/><use x="343.236516" xlink:href="#am" y="314.263098"/><path d="m2212.239583 4969.601562h108.59375v5.729167h-108.59375zm0 0" style="fill:none;stroke-width:9.26401;stroke-linecap:round;stroke-linejoin:round;stroke:#000;stroke-miterlimit:10" transform="matrix(.06 0 0 -.06 0 665.43)"/><path d="m132.734375 367.253906h6.515625v-.34375h-6.515625zm0 0"/><path d="m3264.973958 4969.601562h108.528646v5.729167h-108.528646zm0 0" style="fill:none;stroke-width:9.26401;stroke-linecap:round;stroke-linejoin:round;stroke:#000;stroke-miterlimit:10" transform="matrix(.06 0 0 -.06 0 665.43)"/><path d="m195.898438 367.253906h6.511718v-.34375h-6.511718zm0 0"/><path d="m5292.252604 4969.601562h108.528646v5.729167h-108.528646zm0 0" style="fill:none;stroke-width:9.26401;stroke-linecap:round;stroke-linejoin:round;stroke:#000;stroke-miterlimit:10" transform="matrix(.06 0 0 -.06 0 665.43)"/><path d="m317.535156 367.253906h6.511719v-.34375h-6.511719zm0 0"/><path d="m6358.072917 4969.601562h108.528645v5.729167h-108.528645zm0 0" style="fill:none;stroke-width:9.26401;stroke-linecap:round;stroke-linejoin:round;stroke:#000;stroke-miterlimit:10" transform="matrix(.06 0 0 -.06 0 665.43)"/><path d="m381.484375 367.253906h6.511719v-.34375h-6.511719zm0 0"/><path d="m6851.5625 5578.065104c203.190104-224.088542 777.734375-289.0625 1025.846354-116.015625-246.549479-159.244792-821.09375-94.270833-1025.846354 116.015625zm0 0" style="fill:none;stroke-width:9.26051;stroke-linecap:round;stroke-linejoin:round;stroke:#000;stroke-miterlimit:10" transform="matrix(.06 0 0 -.06 0 665.43)"/><path d="m411.09375 330.746094c12.191406 13.445312 46.664062 17.34375 61.550781 6.960937-14.792969 9.554688-49.265625 5.65625-61.550781-6.960937"/><path d="m7773.763021 4969.601562h108.528646v5.729167h-108.528646zm0 0" style="fill:none;stroke-width:9.26401;stroke-linecap:round;stroke-linejoin:round;stroke:#000;stroke-miterlimit:10" transform="matrix(.06 0 0 -.06 0 665.43)"/><path d="m466.421875 367.253906h6.515625v-.34375h-6.515625zm0 0"/><use x="514.158028" xlink:href="#T" y="374.493418"/><use x="526.91347" xlink:href="#R" y="374.493418"/><use x="541.370717" xlink:href="#G" y="374.493418"/><use x="548.684389" xlink:href="#F" y="374.493418"/><use x="579.211958" xlink:href="#ao" y="303.553376"/><path d="m9028.710937 5814.71875h8.398438v570.247396h-8.398438zm0 0" style="fill:none;stroke-width:6.6401;stroke-linecap:round;stroke-linejoin:round;stroke:#000;stroke-miterlimit:10" transform="matrix(.06 0 0 -.06 0 665.43)"/><path d="m541.722656 316.546875h.503906v-34.210937h-.503906zm0 0"/><use x="8.567827" xlink:href="#aq" y="324.973319"/><path d="m1609.830729 5409.835937h8.398438v570.182292h-8.398438zm0 0" style="fill:none;stroke-width:6.6401;stroke-linecap:round;stroke-linejoin:round;stroke:#000;stroke-miterlimit:10" transform="matrix(.06 0 0 -.06 0 665.43)"/><path d="m96.589844 340.839844h.503906v-34.210938h-.503906zm0 0"/><use x="82.476765" xlink:href="#ad" y="374.493418"/><use x="101.525162" xlink:href="#I" y="374.493418"/><use x="116.151599" xlink:href="#B" y="374.493418"/><use x="96.388793" xlink:href="#an" y="303.553376"/><use x="46.052392" xlink:href="#ap" y="292.843555"/><use x="57.833316" xlink:href="#ap" y="308.908387"/><path d="m4742.708333 5409.835937h8.398438v583.007813h-8.398438zm0 0" style="fill:none;stroke-width:6.6401;stroke-linecap:round;stroke-linejoin:round;stroke:#000;stroke-miterlimit:10" transform="matrix(.06 0 0 -.06 0 665.43)"/><path d="m284.5625 340.839844h.503906v-34.980469h-.503906zm0 0"/><use x="276.727553" xlink:href="#ae" y="374.493418"/><use x="291.35399" xlink:href="#af" y="374.493418"/><use x="284.361629" xlink:href="#am" y="303.553376"/><path d="m3716.861979 5320.578125h8.398438v583.007812h-8.398438zm0 0" style="fill:none;stroke-width:6.6401;stroke-linecap:round;stroke-linejoin:round;stroke:#000;stroke-miterlimit:10" transform="matrix(.06 0 0 -.06 0 665.43)"/><path d="m223.011719 346.195312h.503906v-34.980468h-.503906zm0 0"/><use x="208.798418" xlink:href="#V" y="374.493418"/><use x="221.55383" xlink:href="#C" y="374.493418"/><use x="236.180267" xlink:href="#D" y="374.493418"/><use x="222.810046" xlink:href="#am" y="308.908387"/><path d="m2690.950521 5261.072917h8.398437v553.255208h-8.398437zm0 0" style="fill:none;stroke-width:6.6401;stroke-linecap:round;stroke-linejoin:round;stroke:#000;stroke-miterlimit:10" transform="matrix(.06 0 0 -.06 0 665.43)"/><path d="m161.457031 349.765625h.503907v-33.195313h-.503907zm0 0"/><use x="146.990294" xlink:href="#aa" y="374.493418"/><use x="161.616731" xlink:href="#I" y="374.493418"/><use x="176.243168" xlink:href="#P" y="374.493418"/><use x="161.257923" xlink:href="#am" y="314.263098"/><g clip-path="url(#q)"><path d="m5.794271 3353.78125h9909.700521" style="fill:none;stroke-width:11.5845;stroke-linecap:round;stroke-linejoin:round;stroke:#000;stroke-miterlimit:10" transform="matrix(.06 0 0 -.06 0 665.43)"/></g><g clip-path="url(#r)"><path d="m5.794271 3532.296875h9909.700521" style="fill:none;stroke-width:11.5845;stroke-linecap:round;stroke-linejoin:round;stroke:#000;stroke-miterlimit:10" transform="matrix(.06 0 0 -.06 0 665.43)"/></g><g clip-path="url(#s)"><path d="m5.794271 3710.8125h9909.700521" style="fill:none;stroke-width:11.5845;stroke-linecap:round;stroke-linejoin:round;stroke:#000;stroke-miterlimit:10" transform="matrix(.06 0 0 -.06 0 665.43)"/></g><g clip-path="url(#t)"><path d="m5.794271 3889.263021h9909.700521" style="fill:none;stroke-width:11.5845;stroke-linecap:round;stroke-linejoin:round;stroke:#000;stroke-miterlimit:10" transform="matrix(.06 0 0 -.06 0 665.43)"/></g><g clip-path="url(#u)"><path d="m5.794271 4067.778646h9909.700521" style="fill:none;stroke-width:11.5845;stroke-linecap:round;stroke-linejoin:round;stroke:#000;stroke-miterlimit:10" transform="matrix(.06 0 0 -.06 0 665.43)"/></g><use x="506.597013" xlink:href="#T" y="501.685673"/><use x="519.352455" xlink:href="#R" y="501.685673"/><use x="533.809702" xlink:href="#G" y="501.685673"/><use x="540.442278" xlink:href="#ag" y="501.685673"/><use x="308.092616" xlink:href="#am" y="458.846287"/><use x="519.828488" xlink:href="#an" y="458.846287"/><path d="m7684.179687 3672.791667h8.398438v570.182291h-8.398438zm0 0" style="fill:none;stroke-width:6.6401;stroke-linecap:round;stroke-linejoin:round;stroke:#000;stroke-miterlimit:10" transform="matrix(.06 0 0 -.06 0 665.43)"/><path d="m461.050781 445.0625h.503907v-34.210938h-.503907zm0 0"/><use x="433.060866" xlink:href="#X" y="501.685673"/><use x="455.171377" xlink:href="#N" y="501.685673"/><use x="461.123821" xlink:href="#D" y="501.685673"/><use x="447.058694" xlink:href="#an" y="448.136465"/><path d="m6310.807292 3119.145833h8.398437v553.190104h-8.398437zm0 0" style="fill:none;stroke-width:6.6401;stroke-linecap:round;stroke-linejoin:round;stroke:#000;stroke-miterlimit:10" transform="matrix(.06 0 0 -.06 0 665.43)"/><path d="m378.648438 478.28125h.503906v-33.191406h-.503906zm0 0"/><use x="359.75972" xlink:href="#X" y="501.685673"/><use x="381.869996" xlink:href="#R" y="501.685673"/><use x="396.496667" xlink:href="#Y" y="501.685673"/><use x="378.449257" xlink:href="#am" y="442.781455"/><path d="m5356.25 3481.450521h8.398437v583.007812h-8.398437zm0 0" style="fill:none;stroke-width:6.6401;stroke-linecap:round;stroke-linejoin:round;stroke:#000;stroke-miterlimit:10" transform="matrix(.06 0 0 -.06 0 665.43)"/><path d="m321.375 456.542969h.503906v-34.980469h-.503906zm0 0"/><use x="301.138602" xlink:href="#G" y="501.685673"/><use x="308.452538" xlink:href="#C" y="501.685673"/><use x="323.078975" xlink:href="#J" y="501.685673"/><path d="m3498.958333 2849.679688h108.59375v5.79427h-108.59375zm0 0" style="fill:none;stroke-width:9.26401;stroke-linecap:round;stroke-linejoin:round;stroke:#000;stroke-miterlimit:10" transform="matrix(.06 0 0 -.06 0 665.43)"/><path d="m209.9375 494.449219h6.511719v-.347657h-6.511719zm0 0"/><path d="m4629.166667 2849.679688h108.528645v5.79427h-108.528645zm0 0" style="fill:none;stroke-width:9.26401;stroke-linecap:round;stroke-linejoin:round;stroke:#000;stroke-miterlimit:10" transform="matrix(.06 0 0 -.06 0 665.43)"/><path d="m277.75 494.449219h6.511719v-.347657h-6.511719zm0 0"/><path d="m8131.901042 2849.679688h108.59375v5.79427h-108.59375zm0 0" style="fill:none;stroke-width:9.26401;stroke-linecap:round;stroke-linejoin:round;stroke:#000;stroke-miterlimit:10" transform="matrix(.06 0 0 -.06 0 665.43)"/><path d="m487.914062 494.449219h6.515626v-.347657h-6.515626zm0 0"/><path d="m8897.005208 3494.276042h8.398438v570.182291h-8.398438zm0 0" style="fill:none;stroke-width:6.6401;stroke-linecap:round;stroke-linejoin:round;stroke:#000;stroke-miterlimit:10" transform="matrix(.06 0 0 -.06 0 665.43)"/><path d="m533.820312 455.773438h.503907v-34.210938h-.503907zm0 0"/><use x="579.212158" xlink:href="#as" y="442.781555"/><use x="88.548177" xlink:href="#ah" y="501.685773"/><use x="102.154143" xlink:href="#R" y="501.685773"/><use x="46.052592" xlink:href="#ap" y="421.361812"/><use x="57.833516" xlink:href="#ap" y="437.426644"/><use x="8.568017" xlink:href="#aq" y="453.491476"/><use x="95.317891" xlink:href="#an" y="448.136695"/><path d="m3067.447917 3659.966146h8.398437v583.007812h-8.398437zm0 0" style="fill:none;stroke-width:6.6401;stroke-linecap:round;stroke-linejoin:round;stroke:#000;stroke-miterlimit:10" transform="matrix(.06 0 0 -.06 0 665.43)"/><path d="m184.046875 445.832031h.503906v-34.980469h-.503906zm0 0"/><path d="m4211.848958 3570.708333h8.398438v583.007813h-8.398438zm0 0" style="fill:none;stroke-width:6.6401;stroke-linecap:round;stroke-linejoin:round;stroke:#000;stroke-miterlimit:10" transform="matrix(.06 0 0 -.06 0 665.43)"/><path d="m252.710938 451.1875h.503906v-34.980469h-.503906zm0 0"/><use x="231.964464" xlink:href="#G" y="501.685673"/><use x="239.107995" xlink:href="#I" y="501.685673"/><use x="253.565212" xlink:href="#G" y="501.685673"/><use x="239.428149" xlink:href="#am" y="453.491276"/><use x="161.089792" xlink:href="#V" y="501.685673"/><use x="173.845205" xlink:href="#C" y="501.685673"/><use x="188.471641" xlink:href="#J" y="501.685673"/><use x="170.765042" xlink:href="#am" y="448.136465"/><path d="m1821.809896 3672.791667h8.398437v570.182291h-8.398437zm0 0" style="fill:none;stroke-width:6.6401;stroke-linecap:round;stroke-linejoin:round;stroke:#000;stroke-miterlimit:10" transform="matrix(.06 0 0 -.06 0 665.43)"/><path d="m109.308594 445.0625h.503906v-34.210938h-.503906zm0 0"/><g clip-path="url(#v)"><path d="m5.794271 1211.854167h9909.700521" style="fill:none;stroke-width:11.5845;stroke-linecap:round;stroke-linejoin:round;stroke:#000;stroke-miterlimit:10" transform="matrix(.06 0 0 -.06 0 665.43)"/></g><g clip-path="url(#w)"><path d="m5.794271 1390.304688h9909.700521" style="fill:none;stroke-width:11.5845;stroke-linecap:round;stroke-linejoin:round;stroke:#000;stroke-miterlimit:10" transform="matrix(.06 0 0 -.06 0 665.43)"/></g><g clip-path="url(#x)"><path d="m5.794271 1568.820312h9909.700521" style="fill:none;stroke-width:11.5845;stroke-linecap:round;stroke-linejoin:round;stroke:#000;stroke-miterlimit:10" transform="matrix(.06 0 0 -.06 0 665.43)"/></g><g clip-path="url(#y)"><path d="m5.794271 1747.335938h9909.700521" style="fill:none;stroke-width:11.5845;stroke-linecap:round;stroke-linejoin:round;stroke:#000;stroke-miterlimit:10" transform="matrix(.06 0 0 -.06 0 665.43)"/></g><g clip-path="url(#z)"><path d="m5.794271 1925.851562h9909.700521" style="fill:none;stroke-width:11.5845;stroke-linecap:round;stroke-linejoin:round;stroke:#000;stroke-miterlimit:10" transform="matrix(.06 0 0 -.06 0 665.43)"/></g><g clip-path="url(#A)"><path d="m9886.523437 1211.854167v713.997395" fill="none" stroke="#000" stroke-linejoin="round" stroke-miterlimit="10" stroke-width="69.4533" transform="matrix(.06 0 0 -.06 0 665.43)"/></g><path d="m9806.119792 1211.854167v713.997395" fill="none" stroke="#000" stroke-linejoin="round" stroke-miterlimit="10" stroke-width="21.9909" transform="matrix(.06 0 0 -.06 0 665.43)"/><use x="337.575675" xlink:href="#am" y="592.719655"/><path d="m8245.638021 1263.091146h8.398437v570.182292h-8.398437zm0 0" fill="none" stroke="#000" stroke-linejoin="round" stroke-miterlimit="10" stroke-width="6.6401" transform="matrix(.06 0 0 -.06 0 665.43)"/><path d="m494.738281 589.644531h.503907v-34.210937h-.503907zm0 0"/><use x="474.147948" xlink:href="#ai" y="631.635132"/><use x="487.414299" xlink:href="#ac" y="631.635132"/><use x="480.747491" xlink:href="#an" y="592.719655"/><path d="m7480.989583 1161.007812h8.398438v583.007813h-8.398438zm0 0" fill="none" stroke="#000" stroke-linejoin="round" stroke-miterlimit="10" stroke-width="6.6401" transform="matrix(.06 0 0 -.06 0 665.43)"/><path d="m448.859375 595.769531h.503906v-34.980469h-.503906zm0 0"/><use x="435.577871" xlink:href="#am" y="598.074665"/><path d="m6772.721354 1518.039062h8.398438v582.942709h-8.398438zm0 0" fill="none" stroke="#000" stroke-linejoin="round" stroke-miterlimit="10" stroke-width="6.6401" transform="matrix(.06 0 0 -.06 0 665.43)"/><path d="m406.363281 574.347656h.503907v-34.976562h-.503907zm0 0"/><use x="393.083786" xlink:href="#aj" y="631.635132"/><use x="407.710223" xlink:href="#F" y="631.635132"/><use x="393.083786" xlink:href="#am" y="576.654822"/><path d="m5847.65625 1250.265625h8.398437v583.007813h-8.398437zm0 0" fill="none" stroke="#000" stroke-linejoin="round" stroke-miterlimit="10" stroke-width="6.6401" transform="matrix(.06 0 0 -.06 0 665.43)"/><path d="m350.859375 590.414062h.503906v-34.980468h-.503906zm0 0"/><use x="313.188626" xlink:href="#T" y="631.635132"/><use x="326.11443" xlink:href="#ab" y="631.635132"/><use x="340.740867" xlink:href="#D" y="631.635132"/><use x="355.367304" xlink:href="#T" y="631.635132"/><use x="368.633655" xlink:href="#F" y="631.635132"/><path d="m1985.677083 683.859375h108.528646v5.794271h-108.528646zm0 0" fill="none" stroke="#000" stroke-linejoin="round" stroke-miterlimit="10" stroke-width="9.26401" transform="matrix(.06 0 0 -.06 0 665.43)"/><path d="m119.140625 624.398438h6.511719v-.347657h-6.511719zm0 0"/><path d="m2909.505208 683.859375h108.528646v5.794271h-108.528646zm0 0" fill="none" stroke="#000" stroke-linejoin="round" stroke-miterlimit="10" stroke-width="9.26401" transform="matrix(.06 0 0 -.06 0 665.43)"/><path d="m174.570312 624.398438h6.511719v-.347657h-6.511719zm0 0"/><path d="m5022.721354 683.859375h108.528646v5.794271h-108.528646zm0 0" fill="none" stroke="#000" stroke-linejoin="round" stroke-miterlimit="10" stroke-width="9.26401" transform="matrix(.06 0 0 -.06 0 665.43)"/><path d="m301.363281 624.398438h6.511719v-.347657h-6.511719zm0 0"/><path d="m6632.942708 1294.145833c91.666667-236.588541 463.541667-424.023437 708.268229-357.03125-238.476562-54.557291-610.351562 132.877605-708.268229 357.03125zm0 0" style="fill:none;stroke-width:9.26051;stroke-linecap:round;stroke-linejoin:round;stroke:#000;stroke-miterlimit:10" transform="matrix(.06 0 0 -.06 0 665.43)"/><path d="m397.976562 587.78125c5.5 14.195312 27.8125 25.441406 42.496094 21.421875-14.308594 3.273437-36.621094-7.972656-42.496094-21.421875"/><path d="m8455.859375 683.859375h108.528646v5.794271h-108.528646zm0 0" fill="none" stroke="#000" stroke-linejoin="round" stroke-miterlimit="10" stroke-width="9.26401" transform="matrix(.06 0 0 -.06 0 665.43)"/><path d="m507.351562 624.398438h6.511719v-.347657h-6.511719zm0 0"/><use x="536.066072" xlink:href="#an" y="598.074665"/><path d="m9167.578125 1173.833333h8.463542v570.182292h-8.463542zm0 0" fill="none" stroke="#000" stroke-linejoin="round" stroke-miterlimit="10" stroke-width="6.6401" transform="matrix(.06 0 0 -.06 0 665.43)"/><path d="m550.054688 595h.503906v-34.210938h-.503906zm0 0"/><use x="519.178038" xlink:href="#P" y="631.635132"/><use x="532.444184" xlink:href="#S" y="631.635132"/><use x="547.07065" xlink:href="#O" y="631.635132"/><use x="560.337031" xlink:href="#ak" y="631.635132"/><use x="543.413187" xlink:href="#at" y="546.705863"/><use x="46.053192" xlink:href="#ap" y="549.880249"/><use x="57.834116" xlink:href="#ap" y="565.945081"/><path d="m1591.992187 977.153646h8.398438v540.429687h-8.398438zm0 0" fill="none" stroke="#000" stroke-linejoin="round" stroke-miterlimit="10" stroke-width="6.6401" transform="matrix(.06 0 0 -.06 0 665.43)"/><path d="m95.519531 606.800781h.503907v-32.425781h-.503907zm0 0"/><use x="94.586189" xlink:href="#al" y="631.635132"/><use x="101.900111" xlink:href="#B" y="631.635132"/><use x="95.317675" xlink:href="#an" y="571.300112"/><use x="8.567801" xlink:href="#aq" y="582.009933"/><use x="266.799318" xlink:href="#D" y="631.635232"/><use x="281.425754" xlink:href="#ac" y="631.635232"/><path d="m3738.606771 1518.039062h8.463541v582.942709h-8.463541zm0 0" fill="none" stroke="#000" stroke-linejoin="round" stroke-miterlimit="10" stroke-width="6.6401" transform="matrix(.06 0 0 -.06 0 665.43)"/><path d="m224.316406 574.347656h.503906v-34.976562h-.503906zm0 0"/><use x="186.394373" xlink:href="#X" y="631.635132"/><use x="208.504883" xlink:href="#K" y="631.635132"/><use x="223.13132" xlink:href="#P" y="631.635132"/><use x="236.397671" xlink:href="#P" y="631.635132"/><use x="211.036822" xlink:href="#am" y="576.654822"/><use x="274.433749" xlink:href="#am" y="582.009833"/><path d="m4795.247396 1428.78125h8.398437v582.942708h-8.398437zm0 0" fill="none" stroke="#000" stroke-linejoin="round" stroke-miterlimit="10" stroke-width="6.6401" transform="matrix(.06 0 0 -.06 0 665.43)"/><path d="m287.714844 579.703125h.503906v-34.976563h-.503906zm0 0"/><path d="m2414.388021 977.153646h8.398437v553.255208h-8.398437zm0 0" fill="none" stroke="#000" stroke-linejoin="round" stroke-miterlimit="10" stroke-width="6.6401" transform="matrix(.06 0 0 -.06 0 665.43)"/><path d="m144.863281 606.800781h.503907v-33.195312h-.503907zm0 0"/><use x="134.052268" xlink:href="#Y" y="631.635132"/><use x="148.678705" xlink:href="#K" y="631.635132"/><use x="163.305142" xlink:href="#J" y="631.635132"/><use x="144.662489" xlink:href="#am" y="571.300112"/></svg>