<svg height="211.58em" viewBox="0 0 595.28 211.58" width="595.28em" xmlns="http://www.w3.org/2000/svg" xmlns:xlink="http://www.w3.org/1999/xlink"><clipPath id="a"><path d="m0 55h595.28125v1h-595.28125zm0 0"/></clipPath><clipPath id="b"><path d="m0 47h595.28125v1h-595.28125zm0 0"/></clipPath><clipPath id="c"><path d="m0 38h595.28125v2h-595.28125zm0 0"/></clipPath><clipPath id="d"><path d="m0 30h595.28125v2h-595.28125zm0 0"/></clipPath><clipPath id="e"><path d="m0 22h595.28125v2h-595.28125zm0 0"/></clipPath><clipPath id="f"><path d="m0 153h595.28125v2h-595.28125zm0 0"/></clipPath><clipPath id="g"><path d="m0 145h595.28125v2h-595.28125zm0 0"/></clipPath><clipPath id="h"><path d="m0 137h595.28125v2h-595.28125zm0 0"/></clipPath><clipPath id="i"><path d="m0 129h595.28125v1h-595.28125zm0 0"/></clipPath><clipPath id="j"><path d="m0 121h595.28125v1h-595.28125zm0 0"/></clipPath><clipPath id="k"><path d="m591 119h4.28125v38h-4.28125zm0 0"/></clipPath><symbol id="l" overflow="visible"><path d="m7.296875-4.4375c-1.375 0-2.6875.453125-3.875 1.1875-1.546875.921875-3.421875 2.53125-3.421875 4.859375 0 1.9375 1.703125 2.828125 3.453125 2.828125 1.375 0 2.6875-.453125 3.875-1.1875 1.546875-.921875 3.390625-2.53125 3.390625-4.859375 0-1.9375-1.671875-2.828125-3.421875-2.828125zm0 0"/></symbol><symbol id="m" overflow="visible"><path d="m4.671875 0c.125 0 .265625-.125.265625-.265625v-7.6875c0-.140625-.140625-.265625-.265625-.265625h-4.40625c-.140625 0-.265625.125-.265625.265625v7.6875c0 .140625.125.265625.265625.265625zm0 0"/></symbol><symbol id="n" overflow="visible"><path d="m7.0625 10.390625v-5.359375l1.609375-.5625c.203125-.0625.375-.265625.375-.484375v-2.140625c0-.359375-.375-.625-.703125-.5l-1.28125.46875v-5.390625l1.609375-.59375c.203125-.0625.375-.265625.375-.5v-2.09375c0-.375-.375-.625-.703125-.5l-1.28125.421875v-4.921875c0-.296875-.25-.5625-.546875-.5625s-.5625.265625-.5625.5625v5.328125l-2.859375 1.015625v-4.96875c0-.296875-.265625-.5625-.5625-.5625s-.5625.265625-.5625.5625v5.359375l-1.609375.5625c-.1875.0625-.359375.265625-.359375.484375v2.140625c0 .359375.359375.625.6875.5l1.28125-.46875v5.390625l-1.609375.59375c-.1875.0625-.359375.265625-.359375.5v2.09375c0 .375.359375.625.6875.5l1.28125-.421875v4.921875c0 .296875.265625.5625.5625.5625s.5625-.265625.5625-.5625v-5.328125l2.859375-1.015625v4.96875c0 .296875.265625.5625.5625.5625s.546875-.265625.546875-.5625zm-3.96875-12.59375 2.859375-.984375v5.390625l-2.859375.984375zm0 0"/></symbol><symbol id="o" overflow="visible"><path d="m12.296875-8.546875c-.53125-2.296875-1.15625-4.5625-1.8125-6.84375 3.15625-3.578125 6.015625-7.265625 6.015625-12 0-3.703125-2.03125-9.03125-4.34375-11.796875-.15625-.125-.359375-.125-.515625 0-3.125 2.265625-4.9375 5.890625-4.9375 9.703125 0 1.703125.03125 3.375.234375 5.0625.234375 2.125.78125 4.203125 1.375 6.28125-3.875 4.40625-8.25 8.609375-8.25 14.453125 0 6.609375 4.765625 12.234375 10.953125 12.234375 1.015625 0 1.96875-.09375 2.921875-.265625.09375 1.0625.171875 2.109375.171875 3.15625 0 .59375-.03125 1.15625-.078125 1.75-.1875 3.25-2.203125 6.234375-5.25 6.3125-.03125 0-.0625.03125-.109375.03125-1.671875 0-3.109375-.953125-3.96875-2.3125.359375.171875.75.296875 1.15625.296875 1.703125 0 3.109375-1.40625 3.109375-3.109375 0-1.84375-1.34375-3.421875-3.109375-3.421875-1.953125 0-3.6875 1.515625-3.6875 3.421875 0 3.546875 2.859375 6.40625 6.40625 6.40625 3.875 0 6.546875-3.484375 6.78125-7.4375.03125-.625.03125-1.21875.03125-1.828125 0-1.1875-.078125-2.375-.171875-3.5625.859375-.265625 1.671875-.65625 2.40625-1.21875 2.421875-1.796875 3.515625-4.328125 3.515625-6.828125 0-4.34375-3.296875-8.515625-8.359375-8.515625-.15625 0-.328125.03125-.484375.03125zm2.796875 15.28125c-.46875-4.078125-1.21875-7.953125-2.046875-11.796875 3.625.296875 5.890625 3.3125 5.890625 6.34375 0 2.296875-1.578125 4.671875-3.84375 5.453125zm-12.765625-7.75c0-5.265625 3.5625-9.234375 7.109375-13.21875.53125 1.9375 1.046875 3.875 1.515625 5.84375-3.328125.765625-5.203125 3.5625-5.203125 6.453125 0 2.296875 1.1875 4.640625 3.8125 6.046875.109375.03125.203125.0625.296875.0625.359375 0 .65625-.328125.65625-.6875 0-.15625-.09375-.328125-.21875-.453125-1.84375-1.0625-2.703125-2.640625-2.703125-4.078125 0-1.9375 1.515625-3.6875 4.109375-3.984375.859375 3.953125 1.609375 7.859375 2.109375 12.0625-.890625.140625-1.78125.203125-2.703125.203125-4.46875 0-8.78125-3.78125-8.78125-8.25zm11.1875-33.5c.5625 1.734375.6875 2.59375.6875 4.5 0 4.171875-2.203125 7.5-4.90625 10.6875-.578125-2.078125-1.078125-4.078125-1.078125-6.578125 0-3.640625 2.03125-6.96875 5.296875-8.609375zm0 0"/></symbol><symbol id="p" overflow="visible"><path d="m3.0625 0v-14.796875h-1.6875v14.796875zm0 0"/></symbol><symbol id="q" overflow="visible"><path d="m10.859375-.046875v-1.265625c-.1875.03125-.265625.03125-.359375.03125-.59375 0-.921875-.296875-.921875-.828125v-5.921875c0-1.890625-1.375-2.90625-4-2.90625-2.578125 0-4.15625.984375-4.265625 3.453125h1.71875c.140625-1.296875.90625-1.890625 2.484375-1.890625 1.53125 0 2.375.5625 2.375 1.578125v.453125c0 .703125-.421875 1.015625-1.765625 1.171875-2.390625.3125-2.75.390625-3.40625.65625-1.234375.5-1.859375 1.453125-1.859375 2.75 0 1.9375 1.328125 3.0625 3.484375 3.0625 1.359375 0 2.671875-.5625 3.609375-1.5625.1875.8125.921875 1.40625 1.75 1.40625.34375 0 .609375-.046875 1.15625-.1875zm-2.96875-3.625c0 1.515625-1.53125 2.5-3.1875 2.5-1.3125 0-2.078125-.46875-2.078125-1.625 0-1.125.75-1.609375 2.546875-1.875 1.796875-.234375 2.15625-.328125 2.71875-.578125zm1.328125-11.125h-2.296875l-1.953125 3h1.21875zm0 0"/></symbol><symbol id="r" overflow="visible"><path d="m5.15625 0v-1.421875c-.21875.0625-.484375.078125-.8125.078125-.734375 0-.9375-.203125-.9375-.953125v-6.953125h1.75v-1.390625h-1.75v-2.921875h-1.6875v2.921875h-1.4375v1.390625h1.4375v7.703125c0 1.078125.734375 1.6875 2.0625 1.6875.40625 0 .8125-.046875 1.375-.140625zm0 0"/></symbol><symbol id="s" overflow="visible"><path d="m10.859375-.046875v-1.265625c-.1875.03125-.265625.03125-.359375.03125-.59375 0-.921875-.296875-.921875-.828125v-5.921875c0-1.890625-1.375-2.90625-4-2.90625-2.578125 0-4.15625.984375-4.265625 3.453125h1.71875c.140625-1.296875.90625-1.890625 2.484375-1.890625 1.53125 0 2.375.5625 2.375 1.578125v.453125c0 .703125-.421875 1.015625-1.765625 1.171875-2.390625.3125-2.75.390625-3.40625.65625-1.234375.5-1.859375 1.453125-1.859375 2.75 0 1.9375 1.328125 3.0625 3.484375 3.0625 1.359375 0 2.671875-.5625 3.609375-1.5625.1875.8125.921875 1.40625 1.75 1.40625.34375 0 .609375-.046875 1.15625-.1875zm-2.96875-3.625c0 1.515625-1.53125 2.5-3.1875 2.5-1.3125 0-2.078125-.46875-2.078125-1.625 0-1.125.75-1.609375 2.546875-1.875 1.796875-.234375 2.15625-.328125 2.71875-.578125zm0 0"/></symbol><symbol id="t" overflow="visible"><path d="m9.859375 0v-8.03125c0-1.796875-1.28125-2.90625-3.34375-2.90625-1.5 0-2.421875.46875-3.40625 1.765625v-5.625h-1.6875v14.796875h1.6875v-5.859375c0-2.171875 1.125-3.59375 2.875-3.59375 1.203125 0 2.1875.6875 2.1875 2.078125v7.375zm0 0"/></symbol><symbol id="u" overflow="visible"><path d="m9.703125-10.640625h-1.828125l-2.9375 8.28125-2.71875-8.28125h-1.8125l3.59375 10.6875-.65625 1.671875c-.28125.75-.625 1.046875-1.359375 1.046875-.234375 0-.515625-.046875-.890625-.125v1.515625c.34375.1875.6875.265625 1.140625.265625 1.203125 0 2.171875-.671875 2.734375-2.1875zm0 0"/></symbol><symbol id="v" overflow="visible"><path d="m9.890625 0v-8.03125c0-1.765625-1.328125-2.90625-3.375-2.90625-1.578125 0-2.59375.609375-3.53125 2.09375v-1.796875h-1.5625v10.640625h1.6875v-5.859375c0-2.171875 1.171875-3.59375 2.90625-3.59375 1.328125 0 2.1875.8125 2.1875 2.078125v7.375zm0 0"/></symbol><symbol id="w" overflow="visible"><path d="m10.1875 0-4.34375-6.96875 3.703125-3.671875h-2.171875l-4.515625 4.515625v-8.671875h-1.6875v14.796875h1.6875v-4.140625l1.640625-1.625 3.59375 5.765625zm0 0"/></symbol><symbol id="x" overflow="visible"><path d="m3.890625.328125v-2.4375h-2.125v2.109375h1.21875v.359375c0 1.40625-.265625 1.8125-1.21875 1.859375v.765625c1.421875 0 2.125-.921875 2.125-2.65625zm0 0"/></symbol><symbol id="y" overflow="visible"><path d="m10.046875 0v-14.796875h-1.6875v5.5c-.703125-1.078125-1.84375-1.640625-3.265625-1.640625-2.765625 0-4.5625 2.125-4.5625 5.515625 0 3.59375 1.765625 5.71875 4.625 5.71875 1.453125 0 2.46875-.546875 3.390625-1.859375v1.5625zm-1.6875-5.28125c0 2.453125-1.171875 4-2.953125 4-1.875 0-3.109375-1.5625-3.109375-4.03125 0-2.484375 1.234375-4.046875 3.078125-4.046875 1.828125 0 2.984375 1.625 2.984375 4.078125zm0 0"/></symbol><symbol id="z" overflow="visible"><path d="m9.78125 0v-10.640625h-1.6875v5.875c0 2.171875-1.125 3.59375-2.890625 3.59375-1.34375 0-2.203125-.8125-2.203125-2.09375v-7.375h-1.6875v8.046875c0 1.765625 1.328125 2.890625 3.390625 2.890625 1.5625 0 2.5625-.546875 3.5625-1.9375v1.640625zm0 0"/></symbol><symbol id="A" overflow="visible"><path d="m10.40625-4.828125c0-1.546875-.109375-2.515625-.421875-3.3125-.6875-1.75-2.3125-2.796875-4.296875-2.796875-2.96875 0-4.875 2.1875-4.875 5.6875 0 3.484375 1.84375 5.546875 4.828125 5.546875 2.4375 0 4.125-1.375 4.546875-3.53125h-1.703125c-.46875 1.40625-1.421875 1.96875-2.78125 1.96875-1.765625 0-3.078125-1.125-3.125-3.5625zm-1.796875-1.5s0 .078125-.03125.125h-5.953125c.140625-1.890625 1.328125-3.171875 3.03125-3.171875 1.671875 0 2.953125 1.375 2.953125 3.046875zm0 0"/></symbol><symbol id="B" overflow="visible"><path d="m13.109375 0v-14.796875h-1.78125v12.09375l-7.734375-12.09375h-2.046875v14.796875h1.78125v-12l7.65625 12zm0 0"/></symbol><symbol id="C" overflow="visible"><path d="m10.40625-4.828125c0-1.546875-.109375-2.515625-.421875-3.3125-.6875-1.75-2.3125-2.796875-4.296875-2.796875-2.96875 0-4.875 2.1875-4.875 5.6875 0 3.484375 1.84375 5.546875 4.828125 5.546875 2.4375 0 4.125-1.375 4.546875-3.53125h-1.703125c-.46875 1.40625-1.421875 1.96875-2.78125 1.96875-1.765625 0-3.078125-1.125-3.125-3.5625zm-1.796875-1.5s0 .078125-.03125.125h-5.953125c.140625-1.890625 1.328125-3.171875 3.03125-3.171875 1.671875 0 2.953125 1.375 2.953125 3.046875zm.703125-8.46875h-2.296875l-1.9375 3h1.21875zm0 0"/></symbol><symbol id="D" overflow="visible"><path d="m13.25 0-5.1875-14.796875h-2.4375l-5.28125 14.796875h2.015625l1.5625-4.4375h5.703125l1.515625 4.4375zm-4.15625-6.03125h-4.703125l2.421875-6.734375zm0 0"/></symbol><symbol id="E" overflow="visible"><path d="m3.109375 0v-10.640625h-1.6875v10.640625zm.21875-12.234375v-2.109375h-2.109375v2.109375zm0 0"/></symbol><symbol id="F" overflow="visible"><path d="m15.421875 0v-7.984375c0-1.90625-1.046875-2.953125-3.046875-2.953125-1.421875 0-2.265625.421875-3.265625 1.625-.625-1.140625-1.484375-1.625-2.859375-1.625-1.421875 0-2.359375.53125-3.265625 1.796875v-1.5h-1.546875v10.640625h1.6875v-6.671875c0-1.546875 1.109375-2.78125 2.5-2.78125 1.25 0 1.96875.765625 1.96875 2.125v7.328125h1.6875v-6.671875c0-1.546875 1.125-2.78125 2.515625-2.78125 1.234375 0 1.9375.78125 1.9375 2.125v7.328125zm0 0"/></symbol><symbol id="G" overflow="visible"><path d="m5.765625-4.875v-1.453125h-4.828125v1.453125zm0 0"/></symbol><symbol id="H" overflow="visible"><path d="m11.75-13.125v-1.671875h-9.921875v14.796875h1.890625v-6.734375h7.0625v-1.671875h-7.0625v-4.71875zm0 0"/></symbol><symbol id="I" overflow="visible"><path d="m12.609375-4.0625c0-1.828125-1.140625-3.15625-3.15625-3.71875l-3.703125-.984375c-1.796875-.46875-2.4375-1.0625-2.4375-2.1875 0-1.515625 1.3125-2.625 3.296875-2.625 2.359375 0 3.703125 1.078125 3.703125 3h1.78125c0-2.90625-2-4.578125-5.421875-4.578125-3.234375 0-5.25 1.78125-5.25 4.453125 0 1.8125.953125 2.953125 2.90625 3.453125l3.671875.984375c1.859375.484375 2.71875 1.234375 2.71875 2.390625 0 1.625-1.21875 2.578125-3.78125 2.578125-2.796875 0-4.171875-1.40625-4.171875-3.515625h-1.796875c0 3.5 2.359375 5.171875 5.84375 5.171875 3.765625 0 5.796875-1.78125 5.796875-4.421875zm0 0"/></symbol><symbol id="J" overflow="visible"><path d="m9.28125 0v-1.484375h-6.609375l6.3125-7.65625v-1.5h-7.921875v1.484375h5.921875l-6.359375 7.640625v1.515625zm0 0"/></symbol><symbol id="K" overflow="visible"><path d="m9.3125-2.984375c0-1.578125-.890625-2.375-3-2.875l-1.625-.390625c-1.375-.328125-1.96875-.765625-1.96875-1.53125 0-.96875.875-1.59375 2.25-1.59375 1.359375 0 2.09375.59375 2.140625 1.703125h1.78125c-.015625-2.09375-1.40625-3.265625-3.859375-3.265625-2.46875 0-4.078125 1.28125-4.078125 3.25 0 1.65625.859375 2.453125 3.375 3.0625l1.578125.390625c1.171875.28125 1.640625.625 1.640625 1.390625 0 1-.984375 1.578125-2.46875 1.578125-1.53125 0-2.375-.359375-2.609375-1.984375h-1.78125c.078125 2.453125 1.46875 3.546875 4.25 3.546875 2.671875 0 4.375-1.234375 4.375-3.28125zm0 0"/></symbol><symbol id="L" overflow="visible"><path d=""/></symbol><symbol id="M" overflow="visible"><path d="m6.828125 0v-12.8125h-1.671875c-.40625 1.515625-1.71875 2.296875-3.921875 2.296875v1.671875h3.0625v8.84375zm0 0"/></symbol><symbol id="N" overflow="visible"><path d="m3.875 0v-2.640625h-2.71875v2.640625zm0 0"/></symbol><g clip-path="url(#a)"><path d="m5.078125 2598.859375h9911.132812" fill="none" stroke="#000" stroke-linecap="round" stroke-miterlimit="10" stroke-width="10.1507" transform="matrix(.06 0 0 -.06 0 211.58)"/></g><g clip-path="url(#b)"><path d="m5.078125 2735.838542h9911.132812" fill="none" stroke="#000" stroke-linecap="round" stroke-miterlimit="10" stroke-width="10.1507" transform="matrix(.06 0 0 -.06 0 211.58)"/></g><g clip-path="url(#c)"><path d="m5.078125 2872.817708h9911.132812" fill="none" stroke="#000" stroke-linecap="round" stroke-miterlimit="10" stroke-width="10.1507" transform="matrix(.06 0 0 -.06 0 211.58)"/></g><g clip-path="url(#d)"><path d="m5.078125 3009.861979h9911.132812" fill="none" stroke="#000" stroke-linecap="round" stroke-miterlimit="10" stroke-width="10.1507" transform="matrix(.06 0 0 -.06 0 211.58)"/></g><g clip-path="url(#e)"><path d="m5.078125 3146.841146h9911.132812" fill="none" stroke="#000" stroke-linecap="round" stroke-miterlimit="10" stroke-width="10.1507" transform="matrix(.06 0 0 -.06 0 211.58)"/></g><use x="459.380919" xlink:href="#l" y="39.208655"/><use x="454.117318" xlink:href="#p" y="84.744546"/><use x="458.539273" xlink:href="#q" y="84.744546"/><use x="469.764208" xlink:href="#r" y="84.744546"/><path d="m7825.325521 2903.15625h6.575521v377.083333h-6.575521zm0 0" style="fill:none;stroke-width:6.64384;stroke-linecap:round;stroke-linejoin:round;stroke:#000;stroke-miterlimit:10" transform="matrix(.06 0 0 -.06 0 211.58)"/><path d="m469.519531 37.394531h.394531v-22.628906h-.394531zm0 0"/><use x="500.597001" xlink:href="#l" y="47.427672"/><use x="500.351376" xlink:href="#s" y="84.744446"/><path d="m8512.304687 2766.111979h6.575521v445.898438h-6.575521zm0 0" style="fill:none;stroke-width:6.64384;stroke-linecap:round;stroke-linejoin:round;stroke:#000;stroke-miterlimit:10" transform="matrix(.06 0 0 -.06 0 211.58)"/><path d="m510.738281 45.613281h.394531v-26.753906h-.394531zm0 0"/><path d="m7104.166667 2834.601562h6.510416v418.359375h-6.510416zm0 0" style="fill:none;stroke-width:6.64384;stroke-linecap:round;stroke-linejoin:round;stroke:#000;stroke-miterlimit:10" transform="matrix(.06 0 0 -.06 0 211.58)"/><path d="m426.25 41.503906h.390625v-25.101562h-.390625zm0 0"/><use x="410.24982" xlink:href="#t" y="84.744746"/><use x="421.474755" xlink:href="#q" y="84.744746"/><use x="416.108502" xlink:href="#l" y="43.318363"/><path d="m6081.510417 2465.200521h6.510416v377.408854h-6.510416zm0 0" style="fill:none;stroke-width:6.64384;stroke-linecap:round;stroke-linejoin:round;stroke:#000;stroke-miterlimit:10" transform="matrix(.06 0 0 -.06 0 211.58)"/><path d="m364.890625 63.667969h.390625v-22.640625h-.390625zm0 0"/><use x="343.013686" xlink:href="#r" y="84.744746"/><use x="348.626505" xlink:href="#u" y="84.744746"/><use x="358.831436" xlink:href="#q" y="84.744746"/><use x="370.056371" xlink:href="#v" y="84.744746"/><use x="381.281306" xlink:href="#w" y="84.744746"/><use x="391.486236" xlink:href="#x" y="84.744746"/><use x="364.689429" xlink:href="#l" y="39.208855"/><path d="m1492.513021 2206.997396h82.291666v5.078125h-82.291666zm0 0" style="fill:none;stroke-width:8.12329;stroke-linecap:round;stroke-linejoin:round;stroke:#000;stroke-miterlimit:10" transform="matrix(.06 0 0 -.06 0 211.58)"/><path d="m89.550781 79.160156h4.9375v-.304687h-4.9375zm0 0"/><path d="m2074.414062 3176.398438v-59.114584l1003.841146-27.799479v59.114583zm0 0" fill="none" stroke="#000" stroke-linejoin="round" stroke-miterlimit="10" stroke-width="6.64384" transform="matrix(.06 0 0 -.06 0 211.58)"/><path d="m124.464844 20.996094v3.546875l60.230468 1.667969v-3.546876zm0 0"/><path d="m4019.401042 3176.398438v-59.114584l727.734375 27.799479v59.114584zm0 0" fill="none" stroke="#000" stroke-linejoin="round" stroke-miterlimit="10" stroke-width="6.64384" transform="matrix(.06 0 0 -.06 0 211.58)"/><path d="m241.164062 20.996094v3.546875l43.664063-1.667969v-3.546875zm0 0"/><path d="m4373.372396 2206.997396h82.291666v5.078125h-82.291666zm0 0" fill="none" stroke="#000" stroke-linejoin="round" stroke-miterlimit="10" stroke-width="8.12329" transform="matrix(.06 0 0 -.06 0 211.58)"/><path d="m262.402344 79.160156h4.9375v-.304687h-4.9375zm0 0"/><path d="m5298.177083 2432.322917h789.84375v59.114583h-789.84375zm0 0" fill="none" stroke="#000" stroke-linejoin="round" stroke-miterlimit="10" stroke-width="6.64384" transform="matrix(.06 0 0 -.06 0 211.58)"/><path d="m317.890625 65.640625h47.390625v-3.546875h-47.390625zm0 0"/><path d="m5566.145833 2206.997396h82.291667v5.078125h-82.291667zm0 0" fill="none" stroke="#000" stroke-linejoin="round" stroke-miterlimit="10" stroke-width="8.12329" transform="matrix(.06 0 0 -.06 0 211.58)"/><path d="m333.96875 79.160156h4.9375v-.304687h-4.9375zm0 0"/><path d="m7104.101562 3285.578125v-59.114583l727.79948 27.799479v59.114583zm0 0" fill="none" stroke="#000" stroke-linejoin="round" stroke-miterlimit="10" stroke-width="6.64384" transform="matrix(.06 0 0 -.06 0 211.58)"/><path d="m426.246094 14.445312v3.546876l43.667968-1.667969v-3.546875zm0 0"/><path d="m7348.958333 2206.997396h82.291667v5.078125h-82.291667zm0 0" fill="none" stroke="#000" stroke-linejoin="round" stroke-miterlimit="10" stroke-width="8.12329" transform="matrix(.06 0 0 -.06 0 211.58)"/><path d="m440.9375 79.160156h4.9375v-.304687h-4.9375zm0 0"/><path d="m8626.627604 2206.997396h82.291667v5.078125h-82.291667zm0 0" fill="none" stroke="#000" stroke-linejoin="round" stroke-miterlimit="10" stroke-width="8.12329" transform="matrix(.06 0 0 -.06 0 211.58)"/><path d="m517.597656 79.160156h4.9375v-.304687h-4.9375zm0 0"/><use x="582.948166" xlink:href="#m" y="30.989639"/><path d="m9301.302083 2697.622396h6.510417v445.898437h-6.510417zm0 0" fill="none" stroke="#000" stroke-linejoin="round" stroke-miterlimit="10" stroke-width="6.64384" transform="matrix(.06 0 0 -.06 0 211.58)"/><path d="m558.078125 49.722656h.390625v-26.753906h-.390625zm0 0"/><use x="528.557057" xlink:href="#y" y="84.744746"/><use x="539.781992" xlink:href="#z" y="84.744746"/><use x="551.006927" xlink:href="#v" y="84.744746"/><use x="562.231862" xlink:href="#w" y="84.744746"/><use x="572.436793" xlink:href="#x" y="84.744746"/><use x="547.937096" xlink:href="#l" y="51.53748"/><path d="m1251.171875 2629.132812h6.575521v445.898438h-6.575521zm0 0" fill="none" stroke="#000" stroke-linejoin="round" stroke-miterlimit="10" stroke-width="6.64384" transform="matrix(.06 0 0 -.06 0 211.58)"/><path d="m75.070312 53.832031h.394532v-26.753906h-.394532zm0 0"/><use x="114.326229" xlink:href="#l" y="47.427672"/><use x="100.813802" xlink:href="#w" y="84.744446"/><use x="110.50827" xlink:href="#A" y="84.744446"/><use x="121.733212" xlink:href="#y" y="84.744446"/><use x="132.958147" xlink:href="#x" y="84.744446"/><path d="m2074.414062 2766.111979h6.575521v377.213542h-6.575521zm0 0" fill="none" stroke="#000" stroke-linejoin="round" stroke-miterlimit="10" stroke-width="6.64384" transform="matrix(.06 0 0 -.06 0 211.58)"/><path d="m124.464844 45.613281h.394531v-22.632812h-.394531zm0 0"/><path d="m5298.242187 2465.200521h6.510417v377.408854h-6.510417zm0 0" fill="none" stroke="#000" stroke-linejoin="round" stroke-miterlimit="10" stroke-width="6.64384" transform="matrix(.06 0 0 -.06 0 211.58)"/><path d="m317.890625 63.667969h.394531v-22.640625h-.394531zm0 0"/><use x="34.015868" xlink:href="#M" y="84.744746"/><use x="44.050865" xlink:href="#N" y="84.744746"/><use x="57.371615" xlink:href="#B" y="84.744746"/><use x="71.998515" xlink:href="#C" y="84.744746"/><use x="35.342671" xlink:href="#n" y="22.770522"/><use x="6.575413" xlink:href="#o" y="47.427972"/><use x="64.93163" xlink:href="#l" y="55.647288"/><use x="316.256133" xlink:href="#D" y="84.744746"/><use x="317.692855" xlink:href="#l" y="39.208855"/><path d="m4740.625 2834.601562h6.510417v336.458334h-6.510417zm0 0" fill="none" stroke="#000" stroke-linejoin="round" stroke-miterlimit="10" stroke-width="6.64384" transform="matrix(.06 0 0 -.06 0 211.58)"/><path d="m284.4375 41.503906h.390625v-20.1875h-.390625zm0 0"/><use x="277.451555" xlink:href="#E" y="84.744746"/><use x="274.296159" xlink:href="#l" y="43.318363"/><path d="m4019.401042 2766.111979h6.57552v377.669271h-6.57552zm0 0" fill="none" stroke="#000" stroke-linejoin="round" stroke-miterlimit="10" stroke-width="6.64384" transform="matrix(.06 0 0 -.06 0 211.58)"/><path d="m241.164062 45.613281h.394532v-22.660156h-.394532zm0 0"/><use x="220.488441" xlink:href="#v" y="84.744746"/><use x="231.373297" xlink:href="#u" y="84.744746"/><use x="241.067773" xlink:href="#A" y="84.744746"/><use x="174.163448" xlink:href="#l" y="51.53748"/><use x="231.024862" xlink:href="#l" y="47.427942"/><use x="151.721803" xlink:href="#F" y="84.744716"/><use x="168.559798" xlink:href="#A" y="84.744716"/><use x="179.784733" xlink:href="#v" y="84.744716"/><use x="190.669356" xlink:href="#u" y="84.744716"/><use x="200.533988" xlink:href="#G" y="84.744716"/><path d="m3071.744792 2697.622396h6.57552v418.294271h-6.57552zm0 0" fill="none" stroke="#000" stroke-linejoin="round" stroke-miterlimit="10" stroke-width="6.64384" transform="matrix(.06 0 0 -.06 0 211.58)"/><path d="m184.304688 49.722656h.390624v-25.097656h-.390624zm0 0"/><g clip-path="url(#f)"><path d="m5.078125 955.044271h9911.132812" style="fill:none;stroke-width:10.1507;stroke-linecap:round;stroke-linejoin:round;stroke:#000;stroke-miterlimit:10" transform="matrix(.06 0 0 -.06 0 211.58)"/></g><g clip-path="url(#g)"><path d="m5.078125 1092.023438h9911.132812" style="fill:none;stroke-width:10.1507;stroke-linecap:round;stroke-linejoin:round;stroke:#000;stroke-miterlimit:10" transform="matrix(.06 0 0 -.06 0 211.58)"/></g><g clip-path="url(#h)"><path d="m5.078125 1229.002604h9911.132812" style="fill:none;stroke-width:10.1507;stroke-linecap:round;stroke-linejoin:round;stroke:#000;stroke-miterlimit:10" transform="matrix(.06 0 0 -.06 0 211.58)"/></g><g clip-path="url(#i)"><path d="m5.078125 1365.981771h9911.132812" style="fill:none;stroke-width:10.1507;stroke-linecap:round;stroke-linejoin:round;stroke:#000;stroke-miterlimit:10" transform="matrix(.06 0 0 -.06 0 211.58)"/></g><g clip-path="url(#j)"><path d="m5.078125 1502.960938h9911.132812" style="fill:none;stroke-width:10.1507;stroke-linecap:round;stroke-linejoin:round;stroke:#000;stroke-miterlimit:10" transform="matrix(.06 0 0 -.06 0 211.58)"/></g><g clip-path="url(#k)"><path d="m9890.820312 955.044271v547.916667" fill="none" stroke="#000" stroke-linejoin="round" stroke-miterlimit="10" stroke-width="60.9178" transform="matrix(.06 0 0 -.06 0 211.58)"/></g><path d="m9820.247396 955.044271v547.916667" fill="none" stroke="#000" stroke-linejoin="round" stroke-miterlimit="10" stroke-width="19.2877" transform="matrix(.06 0 0 -.06 0 211.58)"/><use x="446.901894" xlink:href="#l" y="146.058269"/><use x="450.05729" xlink:href="#E" y="183.126843"/><path d="m7617.317708 1122.296875h6.575521v377.604167h-6.575521zm0 0" fill="none" stroke="#000" stroke-linejoin="round" stroke-miterlimit="10" stroke-width="6.64384" transform="matrix(.06 0 0 -.06 0 211.58)"/><path d="m457.039062 144.242188h.394532v-22.65625h-.394532zm0 0"/><use x="488.881978" xlink:href="#l" y="150.167777"/><use x="480.21735" xlink:href="#F" y="183.126843"/><use x="497.055345" xlink:href="#q" y="183.126843"/><path d="m8317.057292 1053.807292h6.510416v445.833333h-6.510416zm0 0" fill="none" stroke="#000" stroke-linejoin="round" stroke-miterlimit="10" stroke-width="6.64384" transform="matrix(.06 0 0 -.06 0 211.58)"/><path d="m499.023438 148.351562h.390624v-26.75h-.390624zm0 0"/><path d="m5507.03125 1053.807292h6.510417v418.29427h-6.510417zm0 0" fill="none" stroke="#000" stroke-linejoin="round" stroke-miterlimit="10" stroke-width="6.64384" transform="matrix(.06 0 0 -.06 0 211.58)"/><path d="m330.421875 148.351562h.390625v-25.097656h-.390625zm0 0"/><path d="m6917.643229 1190.786458h6.575521v336.458334h-6.575521zm0 0" fill="none" stroke="#000" stroke-linejoin="round" stroke-miterlimit="10" stroke-width="6.64384" transform="matrix(.06 0 0 -.06 0 211.58)"/><path d="m415.058594 140.132812h.394531v-20.183593h-.394531zm0 0"/><use x="396.850794" xlink:href="#y" y="183.126843"/><use x="408.075729" xlink:href="#A" y="183.126843"/><use x="419.300664" xlink:href="#p" y="183.126843"/><use x="404.92034" xlink:href="#l" y="141.948761"/><path d="m6206.640625 1122.296875h6.575521v377.083333h-6.575521zm0 0" fill="none" stroke="#000" stroke-linejoin="round" stroke-miterlimit="10" stroke-width="6.64384" transform="matrix(.06 0 0 -.06 0 211.58)"/><path d="m372.398438 144.242188h.394531v-22.625h-.394531zm0 0"/><use x="351.554703" xlink:href="#w" y="183.126843"/><use x="361.249163" xlink:href="#A" y="183.126843"/><use x="372.474098" xlink:href="#y" y="183.126843"/><use x="362.261025" xlink:href="#l" y="146.058269"/><path d="m2036.523437 1669.5625v-59.179688l706.25-27.734374v59.049479zm0 0" fill="none" stroke="#000" stroke-linejoin="round" stroke-miterlimit="10" stroke-width="6.64384" transform="matrix(.06 0 0 -.06 0 211.58)"/><path d="m122.191406 111.40625v3.550781l42.375 1.664063v-3.542969zm0 0"/><path d="m2242.252604 567.283854h82.291667v5.143229h-82.291667zm0 0" fill="none" stroke="#000" stroke-linejoin="round" stroke-miterlimit="10" stroke-width="8.12329" transform="matrix(.06 0 0 -.06 0 211.58)"/><path d="m134.535156 177.542969h4.9375v-.308594h-4.9375zm0 0"/><path d="m2946.875 567.283854h82.291667v5.143229h-82.291667zm0 0" fill="none" stroke="#000" stroke-linejoin="round" stroke-miterlimit="10" stroke-width="8.12329" transform="matrix(.06 0 0 -.06 0 211.58)"/><path d="m176.8125 177.542969h4.9375v-.308594h-4.9375zm0 0"/><path d="m3435.872396 1560.317708v-59.114583l1070.442708-27.799479v59.114583zm0 0" fill="none" stroke="#000" stroke-linejoin="round" stroke-miterlimit="10" stroke-width="6.64384" transform="matrix(.06 0 0 -.06 0 211.58)"/><path d="m206.152344 117.960938v3.546874l64.226562 1.667969v-3.546875zm0 0"/><path d="m5506.966146 1504.71875v-59.114583l706.25 27.864583v59.049479zm0 0" fill="none" stroke="#000" stroke-linejoin="round" stroke-miterlimit="10" stroke-width="6.64384" transform="matrix(.06 0 0 -.06 0 211.58)"/><path d="m330.417969 121.296875v3.546875l42.375-1.671875v-3.542969zm0 0"/><path d="m5685.807292 567.283854h82.291666v5.143229h-82.291666zm0 0" fill="none" stroke="#000" stroke-linejoin="round" stroke-miterlimit="10" stroke-width="8.12329" transform="matrix(.06 0 0 -.06 0 211.58)"/><path d="m341.148438 177.542969h4.9375v-.308594h-4.9375zm0 0"/><path d="m6463.411458 567.283854h82.291667v5.143229h-82.291667zm0 0" fill="none" stroke="#000" stroke-linejoin="round" stroke-miterlimit="10" stroke-width="8.12329" transform="matrix(.06 0 0 -.06 0 211.58)"/><path d="m387.804688 177.542969h4.9375v-.308594h-4.9375zm0 0"/><path d="m6917.643229 1560.317708v-59.114583l706.25-27.799479v59.114583zm0 0" fill="none" stroke="#000" stroke-linejoin="round" stroke-miterlimit="10" stroke-width="6.64384" transform="matrix(.06 0 0 -.06 0 211.58)"/><path d="m415.058594 117.960938v3.546874l42.375 1.667969v-3.546875zm0 0"/><path d="m7747.981771 567.283854h82.291666v5.143229h-82.291666zm0 0" fill="none" stroke="#000" stroke-linejoin="round" stroke-miterlimit="10" stroke-width="8.12329" transform="matrix(.06 0 0 -.06 0 211.58)"/><path d="m464.878906 177.542969h4.9375v-.308594h-4.9375zm0 0"/><path d="m8539.778646 567.283854h82.291666v5.143229h-82.291666zm0 0" fill="none" stroke="#000" stroke-linejoin="round" stroke-miterlimit="10" stroke-width="8.12329" transform="matrix(.06 0 0 -.06 0 211.58)"/><path d="m512.386719 177.542969h4.933593v-.308594h-4.933593zm0 0"/><path d="m9182.486979 985.317708h6.575521v445.833334h-6.575521zm0 0" fill="none" stroke="#000" stroke-linejoin="round" stroke-miterlimit="10" stroke-width="6.64384" transform="matrix(.06 0 0 -.06 0 211.58)"/><path d="m550.949219 152.460938h.394531v-26.75h-.394531zm0 0"/><use x="521.431043" xlink:href="#y" y="183.126843"/><use x="532.655978" xlink:href="#z" y="183.126843"/><use x="543.881147" xlink:href="#v" y="183.126843"/><use x="555.106082" xlink:href="#w" y="183.126843"/><use x="565.311013" xlink:href="#x" y="183.126843"/><use x="540.811082" xlink:href="#l" y="154.277285"/><use x="315.612631" xlink:href="#p" y="183.126843"/><use x="320.034586" xlink:href="#A" y="183.126843"/><use x="331.259521" xlink:href="#p" y="183.126843"/><path d="m2036.523437 1259.276042h6.575521v377.148437h-6.575521zm0 0" fill="none" stroke="#000" stroke-linejoin="round" stroke-miterlimit="10" stroke-width="6.64384" transform="matrix(.06 0 0 -.06 0 211.58)"/><path d="m122.191406 136.023438h.394532v-22.628907h-.394532zm0 0"/><use x="108.999218" xlink:href="#H" y="183.126843"/><use x="121.415023" xlink:href="#E" y="183.126843"/><use x="112.051724" xlink:href="#l" y="137.838953"/><path d="m1237.5 1053.807292h6.575521v445.833333h-6.575521zm0 0" fill="none" stroke="#000" stroke-linejoin="round" stroke-miterlimit="10" stroke-width="6.64384" transform="matrix(.06 0 0 -.06 0 211.58)"/><path d="m74.25 148.351562h.394531v-26.75h-.394531zm0 0"/><use x="43.538787" xlink:href="#I" y="183.126843"/><use x="57.14475" xlink:href="#J" y="183.126843"/><use x="67.349688" xlink:href="#A" y="183.126843"/><use x="78.57463" xlink:href="#v" y="183.126843"/><use x="89.799572" xlink:href="#r" y="183.126843"/><use x="64.109728" xlink:href="#l" y="150.167777"/><use x="35.342671" xlink:href="#n" y="121.40052"/><use x="6.575413" xlink:href="#o" y="146.058269"/><path d="m3435.872396 1190.786458h6.575521v336.523438h-6.575521zm0 0" fill="none" stroke="#000" stroke-linejoin="round" stroke-miterlimit="10" stroke-width="6.64384" transform="matrix(.06 0 0 -.06 0 211.58)"/><path d="m206.152344 140.132812h.394531v-20.191406h-.394531zm0 0"/><use x="320.279641" xlink:href="#l" y="150.167777"/><path d="m4499.804687 1122.296875h6.510417v377.539063h-6.510417zm0 0" fill="none" stroke="#000" stroke-linejoin="round" stroke-miterlimit="10" stroke-width="6.64384" transform="matrix(.06 0 0 -.06 0 211.58)"/><path d="m269.988281 144.242188h.390625v-22.652344h-.390625zm0 0"/><use x="227.966456" xlink:href="#K" y="183.126843"/><use x="238.171401" xlink:href="#L" y="183.126843"/><use x="243.784455" xlink:href="#I" y="183.126843"/><use x="257.390421" xlink:href="#J" y="183.126843"/><use x="267.595352" xlink:href="#A" y="183.126843"/><use x="278.820287" xlink:href="#v" y="183.126843"/><use x="290.045222" xlink:href="#r" y="183.126843"/><use x="295.658041" xlink:href="#G" y="183.126843"/><use x="259.84712" xlink:href="#l" y="146.058269"/><use x="187.943076" xlink:href="#y" y="183.126843"/><use x="199.168011" xlink:href="#s" y="183.126843"/><use x="210.392946" xlink:href="#p" y="183.126843"/><use x="196.012622" xlink:href="#l" y="141.948761"/><use x="154.032438" xlink:href="#l" y="141.948761"/><use x="148.172816" xlink:href="#s" y="183.126843"/><use x="159.397751" xlink:href="#y" y="183.126843"/><path d="m2736.197917 1190.786458h6.57552v418.294271h-6.57552zm0 0" fill="none" stroke="#000" stroke-linejoin="round" stroke-miterlimit="10" stroke-width="6.64384" transform="matrix(.06 0 0 -.06 0 211.58)"/><path d="m164.171875 140.132812h.394531v-25.097656h-.394531zm0 0"/></svg>