<svg height="879.9em" viewBox="0 0 595.28 879.9" width="595.28em" xmlns="http://www.w3.org/2000/svg" xmlns:xlink="http://www.w3.org/1999/xlink"><clipPath id="a"><path d="m0 80h595.28125v2h-595.28125zm0 0"/></clipPath><clipPath id="b"><path d="m0 68h595.28125v2h-595.28125zm0 0"/></clipPath><clipPath id="c"><path d="m0 56h595.28125v2h-595.28125zm0 0"/></clipPath><clipPath id="d"><path d="m0 44h595.28125v2h-595.28125zm0 0"/></clipPath><clipPath id="e"><path d="m0 32h595.28125v2h-595.28125zm0 0"/></clipPath><clipPath id="f"><path d="m0 224h595.28125v1h-595.28125zm0 0"/></clipPath><clipPath id="g"><path d="m0 212h595.28125v1h-595.28125zm0 0"/></clipPath><clipPath id="h"><path d="m0 200h595.28125v1h-595.28125zm0 0"/></clipPath><clipPath id="i"><path d="m0 188h595.28125v1h-595.28125zm0 0"/></clipPath><clipPath id="j"><path d="m0 176h595.28125v1h-595.28125zm0 0"/></clipPath><clipPath id="k"><path d="m0 367h595.28125v2h-595.28125zm0 0"/></clipPath><clipPath id="l"><path d="m0 355h595.28125v2h-595.28125zm0 0"/></clipPath><clipPath id="m"><path d="m0 343h595.28125v2h-595.28125zm0 0"/></clipPath><clipPath id="n"><path d="m0 331h595.28125v2h-595.28125zm0 0"/></clipPath><clipPath id="o"><path d="m0 319h595.28125v2h-595.28125zm0 0"/></clipPath><clipPath id="p"><path d="m0 510h595.28125v2h-595.28125zm0 0"/></clipPath><clipPath id="q"><path d="m0 498h595.28125v2h-595.28125zm0 0"/></clipPath><clipPath id="r"><path d="m0 487h595.28125v1h-595.28125zm0 0"/></clipPath><clipPath id="s"><path d="m0 475h595.28125v1h-595.28125zm0 0"/></clipPath><clipPath id="t"><path d="m0 463h595.28125v1h-595.28125zm0 0"/></clipPath><clipPath id="u"><path d="m0 654h595.28125v2h-595.28125zm0 0"/></clipPath><clipPath id="v"><path d="m0 642h595.28125v2h-595.28125zm0 0"/></clipPath><clipPath id="w"><path d="m0 630h595.28125v2h-595.28125zm0 0"/></clipPath><clipPath id="x"><path d="m0 618h595.28125v2h-595.28125zm0 0"/></clipPath><clipPath id="y"><path d="m0 606h595.28125v2h-595.28125zm0 0"/></clipPath><clipPath id="z"><path d="m0 797h595.28125v2h-595.28125zm0 0"/></clipPath><clipPath id="A"><path d="m0 785h595.28125v2h-595.28125zm0 0"/></clipPath><clipPath id="B"><path d="m0 773h595.28125v2h-595.28125zm0 0"/></clipPath><clipPath id="C"><path d="m0 761h595.28125v2h-595.28125zm0 0"/></clipPath><clipPath id="D"><path d="m0 750h595.28125v1h-595.28125zm0 0"/></clipPath><clipPath id="E"><path d="m590 748h5.28125v53h-5.28125zm0 0"/></clipPath><symbol id="F" overflow="visible"><path d="m4.453125 0v-21.515625h-2.453125v21.515625zm0 0"/></symbol><symbol id="G" overflow="visible"><path d="m15.140625-7.03125c0-2.234375-.171875-3.65625-.625-4.796875-1-2.546875-3.359375-4.078125-6.25-4.078125-4.3125 0-7.078125 3.1875-7.078125 8.265625s2.671875 8.078125 7.015625 8.078125c3.546875 0 6-2 6.609375-5.125h-2.46875c-.6875 2.03125-2.078125 2.859375-4.046875 2.859375-2.578125 0-4.484375-1.65625-4.546875-5.203125zm-2.625-2.171875s0 .109375-.03125.171875h-8.671875c.203125-2.75 1.9375-4.609375 4.421875-4.609375 2.421875 0 4.28125 2.015625 4.28125 4.4375zm0 0"/></symbol><symbol id="H" overflow="visible"><path d="m14.8125 0-6.3125-10.125 5.375-5.34375h-3.15625l-6.5625 6.5625v-12.609375h-2.4375v21.515625h2.4375v-6.015625l2.390625-2.359375 5.234375 8.375zm0 0"/></symbol><symbol id="I" overflow="visible"><path d="m7.5 0v-2.0625c-.328125.078125-.71875.109375-1.1875.109375-1.0625 0-1.359375-.296875-1.359375-1.375v-10.125h2.546875v-2.015625h-2.546875v-4.25h-2.4375v4.25h-2.109375v2.015625h2.109375v11.203125c0 1.578125 1.0625 2.453125 2.96875 2.453125.59375 0 1.1875-.0625 2.015625-.203125zm0 0"/></symbol><symbol id="J" overflow="visible"><path d="m4.515625 0v-15.46875h-2.453125v15.46875zm.328125-17.796875v-3.078125h-3.078125v3.078125zm0 0"/></symbol><symbol id="K" overflow="visible"><path d="m13.546875-4.34375c0-2.296875-1.296875-3.453125-4.375-4.1875l-2.359375-.5625c-2-.46875-2.859375-1.125-2.859375-2.203125 0-1.421875 1.265625-2.34375 3.28125-2.34375 1.96875 0 3.03125.859375 3.09375 2.484375h2.59375c-.03125-3.046875-2.03125-4.75-5.609375-4.75-3.59375 0-5.921875 1.859375-5.921875 4.71875 0 2.421875 1.234375 3.578125 4.890625 4.453125l2.3125.5625c1.703125.421875 2.390625.921875 2.390625 2.046875 0 1.4375-1.453125 2.296875-3.609375 2.296875-2.203125 0-3.453125-.53125-3.78125-2.890625h-2.59375c.125 3.5625 2.125 5.15625 6.171875 5.15625 3.890625 0 6.375-1.796875 6.375-4.78125zm0 0"/></symbol><symbol id="L" overflow="visible"><path d="m13.484375 0v-2.15625h-9.59375l9.1875-11.125v-2.1875h-11.546875v2.15625h8.625l-9.234375 11.09375v2.21875zm0 0"/></symbol><symbol id="M" overflow="visible"><path d="m19.03125-6.546875v-14.96875h-2.734375v14.96875c0 2.890625-2.09375 4.65625-5.546875 4.65625-3.21875 0-5.5-1.53125-5.5-4.65625v-14.96875h-2.734375v14.96875c0 4.359375 3.125 7.078125 8.234375 7.078125 5.046875 0 8.28125-2.78125 8.28125-7.078125zm0 0"/></symbol><symbol id="N" overflow="visible"><path d="m14.4375-2.53125v-12.9375h-2.28125v2.25c-1.234375-1.828125-2.734375-2.6875-4.71875-2.6875-3.921875 0-6.578125 3.296875-6.578125 8.328125 0 4.859375 2.734375 8.015625 6.375 8.015625 1.9375 0 3.296875-.828125 4.921875-2.765625v1.03125c0 4.09375-1.671875 5.671875-4.546875 5.671875-1.9375 0-3.453125-.71875-3.75-2.609375h-2.5c.265625 2.921875 2.53125 4.671875 6.171875 4.671875 4.828125 0 6.90625-2.15625 6.90625-8.96875zm-2.515625-5.109375c0 3.6875-1.59375 5.8125-4.1875 5.8125-2.6875 0-4.3125-2.15625-4.3125-5.90625 0-3.71875 1.65625-5.90625 4.28125-5.90625 2.65625 0 4.21875 2.25 4.21875 6zm0 0"/></symbol><symbol id="O" overflow="visible"><path d="m14.609375 0v-21.515625h-2.453125v8c-1.03125-1.5625-2.6875-2.390625-4.75-2.390625-4.015625 0-6.640625 3.09375-6.640625 8.03125 0 5.21875 2.5625 8.3125 6.734375 8.3125 2.125 0 3.59375-.796875 4.921875-2.703125v2.265625zm-2.453125-7.671875c0 3.5625-1.703125 5.8125-4.3125 5.8125-2.703125 0-4.515625-2.265625-4.515625-5.875 0-3.59375 1.8125-5.875 4.5-5.875 2.65625 0 4.328125 2.359375 4.328125 5.9375zm0 0"/></symbol><symbol id="P" overflow="visible"><path d="m15.140625-7.03125c0-2.234375-.171875-3.65625-.625-4.796875-1-2.546875-3.359375-4.078125-6.25-4.078125-4.3125 0-7.078125 3.1875-7.078125 8.265625s2.671875 8.078125 7.015625 8.078125c3.546875 0 6-2 6.609375-5.125h-2.46875c-.6875 2.03125-2.078125 2.859375-4.046875 2.859375-2.578125 0-4.484375-1.65625-4.546875-5.203125zm-2.625-2.171875s0 .109375-.03125.171875h-8.671875c.203125-2.75 1.9375-4.609375 4.421875-4.609375 2.421875 0 4.28125 2.015625 4.28125 4.4375zm1.03125-12.3125h-3.328125l-2.84375 4.359375h1.78125zm0 0"/></symbol><symbol id="Q" overflow="visible"><path d="m9.46875-13.3125v-2.515625c-.40625-.046875-.609375-.078125-.9375-.078125-1.59375 0-2.8125.9375-4.21875 3.25v-2.8125h-2.25v15.46875h2.453125v-8.03125c0-3.484375 1.15625-5.21875 4.953125-5.28125zm0 0"/></symbol><symbol id="R" overflow="visible"><path d="m15.796875-.0625v-1.859375c-.265625.0625-.390625.0625-.53125.0625-.859375 0-1.328125-.4375-1.328125-1.203125v-8.625c0-2.75-2.015625-4.21875-5.828125-4.21875-3.734375 0-6.046875 1.4375-6.1875 5.015625h2.46875c.21875-1.890625 1.328125-2.75 3.640625-2.75 2.203125 0 3.453125.828125 3.453125 2.3125v.640625c0 1.03125-.625 1.484375-2.578125 1.71875-3.46875.4375-4 .5625-4.953125.9375-1.796875.734375-2.71875 2.125-2.71875 4.015625 0 2.8125 1.953125 4.453125 5.078125 4.453125 1.984375 0 3.90625-.828125 5.25-2.265625.265625 1.171875 1.328125 2.03125 2.546875 2.03125.5 0 .890625-.0625 1.6875-.265625zm-4.3125-5.28125c0 2.21875-2.25 3.625-4.640625 3.625-1.921875 0-3.03125-.671875-3.03125-2.359375 0-1.625 1.09375-2.328125 3.71875-2.703125 2.59375-.359375 3.125-.484375 3.953125-.859375zm0 0"/></symbol><symbol id="S" overflow="visible"><path d="m22.4375 0v-11.59375c0-2.78125-1.546875-4.3125-4.4375-4.3125-2.0625 0-3.296875.609375-4.75 2.359375-.90625-1.65625-2.15625-2.359375-4.15625-2.359375-2.0625 0-3.421875.765625-4.75 2.625v-2.1875h-2.25v15.46875h2.453125v-9.703125c0-2.25 1.625-4.046875 3.625-4.046875 1.828125 0 2.859375 1.125 2.859375 3.09375v10.65625h2.453125v-9.703125c0-2.25 1.65625-4.046875 3.671875-4.046875 1.796875 0 2.828125 1.140625 2.828125 3.09375v10.65625zm0 0"/></symbol><symbol id="T" overflow="visible"><path d="m5.671875.46875v-3.53125h-3.109375v3.0625h1.78125v.53125c0 2.03125-.390625 2.625-1.78125 2.6875v1.125c2.078125 0 3.109375-1.328125 3.109375-3.875zm0 0"/></symbol><symbol id="U" overflow="visible"><path d="m5.640625 0v-3.0625h-3.078125v3.0625zm0 0"/></symbol><symbol id="V" overflow="visible"><path d="m15.796875-.0625v-1.859375c-.265625.0625-.390625.0625-.53125.0625-.859375 0-1.328125-.4375-1.328125-1.203125v-8.625c0-2.75-2.015625-4.21875-5.828125-4.21875-3.734375 0-6.046875 1.4375-6.1875 5.015625h2.46875c.21875-1.890625 1.328125-2.75 3.640625-2.75 2.203125 0 3.453125.828125 3.453125 2.3125v.640625c0 1.03125-.625 1.484375-2.578125 1.71875-3.46875.4375-4 .5625-4.953125.9375-1.796875.734375-2.71875 2.125-2.71875 4.015625 0 2.8125 1.953125 4.453125 5.078125 4.453125 1.984375 0 3.90625-.828125 5.25-2.265625.265625 1.171875 1.328125 2.03125 2.546875 2.03125.5 0 .890625-.0625 1.6875-.265625zm-4.3125-5.28125c0 2.21875-2.25 3.625-4.640625 3.625-1.921875 0-3.03125-.671875-3.03125-2.359375 0-1.625 1.09375-2.328125 3.71875-2.703125 2.59375-.359375 3.125-.484375 3.953125-.859375zm1.921875-16.171875h-3.34375l-2.828125 4.359375h1.765625zm0 0"/></symbol><symbol id="W" overflow="visible"><path d="m22.46875 0v-21.515625h-3.8125l-6.265625 18.734375-6.375-18.734375h-3.796875v21.515625h2.59375v-18.03125l6.109375 18.03125h2.890625l6.046875-18.03125v18.03125zm0 0"/></symbol><symbol id="X" overflow="visible"><path d="m14.34375 0v-11.6875c0-2.59375-1.859375-4.21875-4.875-4.21875-2.171875 0-3.5.671875-4.953125 2.5625v-8.171875h-2.453125v21.515625h2.453125v-8.53125c0-3.15625 1.65625-5.21875 4.1875-5.21875 1.75 0 3.1875 1 3.1875 3.03125v10.71875zm0 0"/></symbol><symbol id="Y" overflow="visible"><path d="m15.046875-7.609375c0-5.34375-2.5625-8.296875-7.015625-8.296875-4.34375 0-6.96875 2.984375-6.96875 8.171875 0 5.203125 2.59375 8.171875 7 8.171875 4.328125 0 6.984375-2.96875 6.984375-8.046875zm-2.5625-.03125c0 3.625-1.71875 5.8125-4.421875 5.8125-2.75 0-4.4375-2.15625-4.4375-5.90625 0-3.71875 1.6875-5.90625 4.4375-5.90625 2.765625 0 4.421875 2.15625 4.421875 6zm1-13.875h-3.328125l-2.84375 4.359375h1.78125zm0 0"/></symbol><symbol id="Z" overflow="visible"><path d="m5.34375 0v-15.46875h-2.453125v15.46875zm3.75-21.515625h-3.34375l-2.828125 4.359375h1.765625zm0 0"/></symbol><symbol id="aa" overflow="visible"><path d="m14.34375-15.46875h-2.78125l-4.359375 12.546875-4.140625-12.546875h-2.765625l5.421875 15.46875h2.6875zm0 0"/></symbol><symbol id="ab" overflow="visible"><path d="m19.28125 0-7.5625-21.515625h-3.546875l-7.671875 21.515625h2.921875l2.28125-6.46875h8.28125l2.21875 6.46875zm-6.0625-8.765625h-6.84375l3.546875-9.796875zm3.078125-18.265625h-4.015625l-3.390625 3.921875h2.125zm0 0"/></symbol><symbol id="ac" overflow="visible"><path d="m14.375 0v-11.6875c0-2.5625-1.921875-4.21875-4.90625-4.21875-2.296875 0-3.765625.875-5.125 3.03125v-2.59375h-2.28125v15.46875h2.453125v-8.53125c0-3.15625 1.71875-5.21875 4.21875-5.21875 1.953125 0 3.1875 1.171875 3.1875 3.03125v10.71875zm0 0"/></symbol><symbol id="ad" overflow="visible"><path d="m15.046875-7.609375c0-5.34375-2.5625-8.296875-7.015625-8.296875-4.34375 0-6.96875 2.984375-6.96875 8.171875 0 5.203125 2.59375 8.171875 7 8.171875 4.328125 0 6.984375-2.96875 6.984375-8.046875zm-2.5625-.03125c0 3.625-1.71875 5.8125-4.421875 5.8125-2.75 0-4.4375-2.15625-4.4375-5.90625 0-3.71875 1.6875-5.90625 4.4375-5.90625 2.765625 0 4.421875 2.15625 4.421875 6zm0 0"/></symbol><symbol id="ae" overflow="visible"><path d="m18.328125-5.90625c0-2.65625-1.65625-4.59375-4.578125-5.390625l-5.390625-1.453125c-2.609375-.671875-3.546875-1.53125-3.546875-3.1875 0-2.1875 1.921875-3.8125 4.8125-3.8125 3.421875 0 5.375 1.5625 5.375 4.375h2.59375c0-4.21875-2.921875-6.671875-7.890625-6.671875-4.71875 0-7.640625 2.59375-7.640625 6.484375 0 2.640625 1.390625 4.28125 4.21875 5.03125l5.34375 1.40625c2.71875.71875 3.953125 1.8125 3.953125 3.484375 0 2.359375-1.765625 3.75-5.484375 3.75-4.078125 0-6.078125-2.03125-6.078125-5.109375h-2.59375c0 5.078125 3.421875 7.53125 8.5 7.53125 5.453125 0 8.40625-2.59375 8.40625-6.4375zm0 0"/></symbol><symbol id="af" overflow="visible"><path d="m15.4375-7.578125c0-5.203125-2.546875-8.328125-6.640625-8.328125-2.09375 0-3.78125.9375-4.9375 2.765625v-2.328125h-2.234375v21.90625h2.453125v-8.296875c1.296875 1.59375 2.734375 2.296875 4.75 2.296875 3.984375 0 6.609375-3.09375 6.609375-8.015625zm-2.5625-.0625c0 3.515625-1.8125 5.78125-4.5 5.78125-2.59375 0-4.296875-2.125-4.296875-5.75 0-3.640625 1.703125-6 4.296875-6 2.71875 0 4.5 2.28125 4.5 5.96875zm0 0"/></symbol><symbol id="ag" overflow="visible"><path d="m14.078125-5.3125h-2.484375c-.40625 2.484375-1.671875 3.484375-3.765625 3.484375-2.71875 0-4.34375-2.09375-4.34375-5.75 0-3.875 1.59375-6.0625 4.28125-6.0625 2.0625 0 3.359375 1.21875 3.65625 3.375h2.484375c-.296875-3.78125-2.65625-5.640625-6.109375-5.640625-4.171875 0-6.875 3.1875-6.875 8.328125 0 4.984375 2.65625 8.015625 6.84375 8.015625 3.6875 0 6.015625-2.203125 6.3125-5.75zm0 0"/></symbol><symbol id="ah" overflow="visible"><path d="m18.09375 0v-2.421875h-12.6875v-7.375h11.71875v-2.421875h-11.71875v-6.875h12.15625v-2.421875h-14.90625v21.515625zm-1.625-27.03125h-4.015625l-3.390625 3.921875h2.125zm0 0"/></symbol><symbol id="ai" overflow="visible"><path d="m14.109375-15.46875h-2.65625l-4.28125 12.046875-3.953125-12.046875h-2.625l5.21875 15.53125-.9375 2.453125c-.421875 1.078125-.921875 1.5-1.984375 1.5-.359375 0-.765625-.0625-1.296875-.171875v2.203125c.5.265625 1 .390625 1.65625.390625 1.734375 0 3.15625-.984375 3.984375-3.1875zm0 0"/></symbol><symbol id="aj" overflow="visible"><path d="m19.0625 0v-21.515625h-2.59375v17.59375l-11.25-17.59375h-2.96875v21.515625h2.59375v-17.4375l11.125 17.4375zm0 0"/></symbol><symbol id="ak" overflow="visible"><path d="m10.625-6.453125c-2.015625 0-3.921875.671875-5.65625 1.71875-2.25 1.34375-4.96875 3.6875-4.96875 7.078125 0 2.828125 2.484375 4.109375 5.015625 4.109375 2.015625 0 3.921875-.671875 5.65625-1.71875 2.234375-1.34375 4.921875-3.6875 4.921875-7.078125 0-2.828125-2.4375-4.109375-4.96875-4.109375zm0 0"/></symbol><symbol id="al" overflow="visible"><path d="m6.796875 0c.1875 0 .375-.1875.375-.375v-11.203125c0-.1875-.1875-.375-.375-.375h-6.421875c-.1875 0-.375.1875-.375.375v11.203125c0 .1875.1875.375.375.375zm0 0"/></symbol><symbol id="am" overflow="visible"><path d="m17.890625-12.4375c-.765625-3.34375-1.671875-6.640625-2.640625-9.953125 4.59375-5.203125 8.765625-10.5625 8.765625-17.453125 0-5.40625-2.96875-13.15625-6.3125-17.171875-.25-.1875-.53125-.1875-.765625 0-4.546875 3.296875-7.1875 8.5625-7.1875 14.109375 0 2.484375.0625 4.9375.34375 7.375.328125 3.109375 1.140625 6.109375 2 9.125-5.640625 6.421875-12 12.53125-12 21.046875 0 9.609375 6.9375 17.796875 15.921875 17.796875 1.484375 0 2.875-.140625 4.265625-.390625.140625 1.53125.234375 3.0625.234375 4.59375 0 .859375-.046875 1.671875-.09375 2.53125-.28125 4.75-3.203125 9.09375-7.65625 9.1875-.046875 0-.09375.046875-.140625.046875-2.4375 0-4.546875-1.390625-5.78125-3.34375.515625.234375 1.09375.4375 1.671875.4375 2.484375 0 4.546875-2.0625 4.546875-4.546875 0-2.6875-1.96875-4.984375-4.546875-4.984375-2.828125 0-5.359375 2.203125-5.359375 4.984375 0 5.15625 4.15625 9.328125 9.328125 9.328125 5.640625 0 9.515625-5.078125 9.84375-10.8125.0625-.90625.0625-1.765625.0625-2.6875 0-1.71875-.109375-3.4375-.25-5.15625 1.25-.390625 2.4375-.953125 3.5-1.765625 3.53125-2.640625 5.109375-6.3125 5.109375-9.953125 0-6.3125-4.78125-12.390625-12.140625-12.390625-.25 0-.484375.046875-.71875.046875zm4.0625 22.25c-.671875-5.9375-1.765625-11.578125-2.96875-17.171875 5.265625.421875 8.5625 4.828125 8.5625 9.21875 0 3.359375-2.296875 6.796875-5.59375 7.953125zm-18.5625-11.296875c0-7.65625 5.171875-13.4375 10.34375-19.21875.75 2.8125 1.515625 5.640625 2.1875 8.5-4.828125 1.109375-7.546875 5.171875-7.546875 9.375 0 3.359375 1.71875 6.75 5.546875 8.8125.140625.046875.28125.09375.421875.09375.53125 0 .96875-.484375.96875-1.015625 0-.234375-.15625-.46875-.34375-.65625-2.671875-1.53125-3.921875-3.828125-3.921875-5.9375 0-2.828125 2.203125-5.359375 5.984375-5.78125 1.234375 5.734375 2.34375 11.421875 3.0625 17.546875-1.296875.1875-2.59375.28125-3.921875.28125-6.515625 0-12.78125-5.5-12.78125-12zm16.265625-48.734375c.8125 2.53125 1 3.78125 1 6.546875 0 6.078125-3.203125 10.90625-7.125 15.546875-.859375-3.015625-1.578125-5.921875-1.578125-9.5625 0-5.3125 2.96875-10.140625 7.703125-12.53125zm0 0"/></symbol><symbol id="an" overflow="visible"><path d="m6.796875 11.953125c.1875 0 .375-.1875.375-.375v-23.15625c0-.1875-.1875-.375-.375-.375h-6.421875c-.1875 0-.375.1875-.375.375v23.15625c0 .1875.1875.375.375.375zm0 0"/></symbol><symbol id="ao" overflow="visible"><path d="m-3.015625-2.25c0 1.671875 1.34375 3.015625 3.015625 3.015625s3.015625-1.34375 3.015625-3.015625-1.34375-3.015625-3.015625-3.015625-3.015625 1.34375-3.015625 3.015625zm3.015625-14.96875c-7.40625 0-15.734375 8.28125-15.734375 17.3125 0 .390625.375.671875.765625.671875.328125 0 .71875-.234375.8125-.765625 1.25-7.125 7.03125-12.671875 14.15625-12.671875s12.90625 5.546875 14.15625 12.671875c.09375.53125.484375.765625.8125.765625.390625 0 .765625-.28125.765625-.671875 0-9.03125-8.265625-17.3125-15.734375-17.3125zm0 0"/></symbol><symbol id="ap" overflow="visible"><path d="m9.9375 0v-18.640625h-2.4375c-.578125 2.203125-2.5 3.328125-5.71875 3.328125v2.453125h4.484375v12.859375zm0 0"/></symbol><symbol id="aq" overflow="visible"><path d="m5.625 0v-3.84375h-3.9375v3.84375zm0 0"/></symbol><g clip-path="url(#a)"><path d="m6.119792 13316.497396h9908.984375" fill="none" stroke="#000" stroke-linecap="round" stroke-miterlimit="10" stroke-width="12.2939" transform="matrix(.06 0 0 -.06 0 879.9)"/></g><g clip-path="url(#b)"><path d="m6.119792 13515.716146h9908.984375" fill="none" stroke="#000" stroke-linecap="round" stroke-miterlimit="10" stroke-width="12.2939" transform="matrix(.06 0 0 -.06 0 879.9)"/></g><g clip-path="url(#c)"><path d="m6.119792 13715h9908.984375" fill="none" stroke="#000" stroke-linecap="round" stroke-miterlimit="10" stroke-width="12.2939" transform="matrix(.06 0 0 -.06 0 879.9)"/></g><g clip-path="url(#d)"><path d="m6.119792 13914.21875h9908.984375" fill="none" stroke="#000" stroke-linecap="round" stroke-miterlimit="10" stroke-width="12.2939" transform="matrix(.06 0 0 -.06 0 879.9)"/></g><g clip-path="url(#e)"><path d="m6.119792 14113.502604h9908.984375" fill="none" stroke="#000" stroke-linecap="round" stroke-miterlimit="10" stroke-width="12.2939" transform="matrix(.06 0 0 -.06 0 879.9)"/></g><path d="m8602.929687 13120.46875h9.309896v651.5625h-9.309896zm0 0" style="fill:none;stroke-width:6.63512;stroke-linecap:round;stroke-linejoin:round;stroke:#000;stroke-miterlimit:10" transform="matrix(.06 0 0 -.06 0 879.9)"/><path d="m516.175781 92.671875h.558594v-39.09375h-.558594zm0 0"/><use x="504.81901" xlink:href="#F" y="122.754486"/><use x="511.451798" xlink:href="#G" y="122.754486"/><use x="527.949942" xlink:href="#H" y="122.754486"/><use x="515.978032" xlink:href="#ak" y="51.023342"/><path d="m7640.364583 13757.513021h9.375v551.627604h-9.375zm0 0" style="fill:none;stroke-width:6.63512;stroke-linecap:round;stroke-linejoin:round;stroke:#000;stroke-miterlimit:10" transform="matrix(.06 0 0 -.06 0 879.9)"/><path d="m458.421875 54.449219h.5625v-33.097657h-.5625zm0 0"/><use x="435.900872" xlink:href="#I" y="122.754486"/><use x="443.72432" xlink:href="#G" y="122.754486"/><use x="460.222464" xlink:href="#F" y="122.754486"/><use x="443.572887" xlink:href="#ak" y="57.000354"/><path d="m6436.653646 13657.903646h9.375v610.15625h-9.375zm0 0" style="fill:none;stroke-width:6.63512;stroke-linecap:round;stroke-linejoin:round;stroke:#000;stroke-miterlimit:10" transform="matrix(.06 0 0 -.06 0 879.9)"/><path d="m386.199219 60.425781h.5625v-36.609375h-.5625zm0 0"/><use x="356.959714" xlink:href="#I" y="122.754486"/><use x="365.123708" xlink:href="#J" y="122.754486"/><use x="371.756525" xlink:href="#K" y="122.754486"/><use x="386.553337" xlink:href="#L" y="122.754486"/><use x="371.349743" xlink:href="#ak" y="62.978366"/><path d="m1719.791667 12753.476562h121.679687v6.184896h-121.679687zm0 0" style="fill:none;stroke-width:9.82316;stroke-linecap:round;stroke-linejoin:round;stroke:#000;stroke-miterlimit:10" transform="matrix(.06 0 0 -.06 0 879.9)"/><path d="m103.1875 114.691406h7.300781v-.371094h-7.300781zm0 0"/><path d="m4029.231771 14068.971354h1213.020833v88.997396h-1213.020833zm0 0" fill="none" stroke="#000" stroke-linejoin="round" stroke-miterlimit="10" stroke-width="6.63512" transform="matrix(.06 0 0 -.06 0 879.9)"/><path d="m241.753906 35.761719h72.78125v-5.339844h-72.78125zm0 0"/><path d="m4347.981771 12753.476562h121.679687v6.184896h-121.679687zm0 0" fill="none" stroke="#000" stroke-linejoin="round" stroke-miterlimit="10" stroke-width="9.82316" transform="matrix(.06 0 0 -.06 0 879.9)"/><path d="m260.878906 114.691406h7.300782v-.371094h-7.300782zm0 0"/><path d="m6436.653646 14315.520833v-88.997396l1213.085937 41.666667v88.997396zm0 0" fill="none" stroke="#000" stroke-linejoin="round" stroke-miterlimit="10" stroke-width="6.63512" transform="matrix(.06 0 0 -.06 0 879.9)"/><path d="m386.199219 20.96875v5.339844l72.785156-2.5v-5.339844zm0 0"/><path d="m6916.276042 12753.476562h121.679687v6.184896h-121.679687zm0 0" fill="none" stroke="#000" stroke-linejoin="round" stroke-miterlimit="10" stroke-width="9.82316" transform="matrix(.06 0 0 -.06 0 879.9)"/><path d="m414.972656 114.691406h7.304688v-.371094h-7.304688zm0 0"/><path d="m8036.458333 12753.476562h121.679688v6.184896h-121.679688zm0 0" fill="none" stroke="#000" stroke-linejoin="round" stroke-miterlimit="10" stroke-width="9.82316" transform="matrix(.06 0 0 -.06 0 879.9)"/><path d="m482.1875 114.691406h7.300781v-.371094h-7.300781zm0 0"/><use x="577.344155" xlink:href="#al" y="45.04533"/><use x="9.564019" xlink:href="#am" y="68.955578"/><path d="m5232.942708 13558.229167h9.309896v551.88802h-9.309896zm0 0" fill="none" stroke="#000" stroke-linejoin="round" stroke-miterlimit="10" stroke-width="6.63512" transform="matrix(.06 0 0 -.06 0 879.9)"/><path d="m313.976562 66.40625h.558594v-33.113281h-.558594zm0 0"/><path d="m1158.984375 13120.46875h9.309896v651.5625h-9.309896zm0 0" fill="none" stroke="#000" stroke-linejoin="round" stroke-miterlimit="10" stroke-width="6.63512" transform="matrix(.06 0 0 -.06 0 879.9)"/><path d="m69.539062 92.671875h.558594v-39.09375h-.558594zm0 0"/><use x="32.620865" xlink:href="#ap" y="122.754486"/><use x="47.24823" xlink:href="#aq" y="122.754486"/><use x="66.516233" xlink:href="#M" y="122.754486"/><use x="69.340239" xlink:href="#ak" y="51.023342"/><use x="226.903554" xlink:href="#ak" y="68.956078"/><use x="282.185564" xlink:href="#N" y="122.754486"/><use x="298.683709" xlink:href="#G" y="122.754486"/><use x="315.181853" xlink:href="#O" y="122.754486"/><use x="299.126598" xlink:href="#ak" y="68.955378"/><path d="m4029.231771 13558.229167h9.375v551.88802h-9.375zm0 0" fill="none" stroke="#000" stroke-linejoin="round" stroke-miterlimit="10" stroke-width="6.63512" transform="matrix(.06 0 0 -.06 0 879.9)"/><path d="m241.753906 66.40625h.5625v-33.113281h-.5625zm0 0"/><use x="222.548445" xlink:href="#I" y="122.754486"/><use x="230.371893" xlink:href="#P" y="122.754486"/><path d="m2707.617187 13657.903646h9.309896v651.5625h-9.309896zm0 0" fill="none" stroke="#000" stroke-linejoin="round" stroke-miterlimit="10" stroke-width="6.63512" transform="matrix(.06 0 0 -.06 0 879.9)"/><path d="m162.457031 60.425781h.558594v-39.09375h-.558594zm0 0"/><use x="125.900252" xlink:href="#Q" y="122.754486"/><use x="135.594713" xlink:href="#R" y="122.754486"/><use x="152.092842" xlink:href="#S" y="122.754486"/><use x="176.754022" xlink:href="#T" y="122.754486"/><use x="147.603295" xlink:href="#ak" y="62.978366"/><g clip-path="url(#f)"><path d="m6.119792 10925.416667h9908.984375" style="fill:none;stroke-width:12.2939;stroke-linecap:round;stroke-linejoin:round;stroke:#000;stroke-miterlimit:10" transform="matrix(.06 0 0 -.06 0 879.9)"/></g><g clip-path="url(#g)"><path d="m6.119792 11124.700521h9908.984375" style="fill:none;stroke-width:12.2939;stroke-linecap:round;stroke-linejoin:round;stroke:#000;stroke-miterlimit:10" transform="matrix(.06 0 0 -.06 0 879.9)"/></g><g clip-path="url(#h)"><path d="m6.119792 11323.919271h9908.984375" style="fill:none;stroke-width:12.2939;stroke-linecap:round;stroke-linejoin:round;stroke:#000;stroke-miterlimit:10" transform="matrix(.06 0 0 -.06 0 879.9)"/></g><g clip-path="url(#i)"><path d="m6.119792 11523.203125h9908.984375" style="fill:none;stroke-width:12.2939;stroke-linecap:round;stroke-linejoin:round;stroke:#000;stroke-miterlimit:10" transform="matrix(.06 0 0 -.06 0 879.9)"/></g><g clip-path="url(#j)"><path d="m6.119792 11722.421875h9908.984375" style="fill:none;stroke-width:12.2939;stroke-linecap:round;stroke-linejoin:round;stroke:#000;stroke-miterlimit:10" transform="matrix(.06 0 0 -.06 0 879.9)"/></g><path d="m8574.804687 10726.197917h358.007813" style="fill:none;stroke-width:32.2192;stroke-linecap:round;stroke-linejoin:round;stroke:#000;stroke-miterlimit:10" transform="matrix(.06 0 0 -.06 0 879.9)"/><use x="502.184004" xlink:href="#K" y="266.216773"/><use x="516.980816" xlink:href="#R" y="266.216773"/><use x="533.47896" xlink:href="#F" y="266.216773"/><use x="540.111749" xlink:href="#U" y="266.216773"/><use x="517.424035" xlink:href="#ak" y="236.328713"/><use x="290.782582" xlink:href="#ak" y="218.395977"/><path d="m7573.697917 10868.320312h9.375v651.497396h-9.375zm0 0" fill="none" stroke="#000" stroke-linejoin="round" stroke-miterlimit="10" stroke-width="6.63512" transform="matrix(.06 0 0 -.06 0 879.9)"/><path d="m454.421875 227.800781h.5625v-39.089843h-.5625zm0 0"/><use x="423.481847" xlink:href="#O" y="266.216773"/><use x="439.979991" xlink:href="#V" y="266.216773"/><use x="456.478135" xlink:href="#K" y="266.216773"/><use x="439.571879" xlink:href="#ak" y="230.350701"/><path d="m1884.114583 10362.526042h121.679688v6.119791h-121.679688zm0 0" fill="none" stroke="#000" stroke-linejoin="round" stroke-miterlimit="10" stroke-width="9.82316" transform="matrix(.06 0 0 -.06 0 879.9)"/><path d="m113.046875 258.148438h7.300781v-.367188h-7.300781zm0 0"/><path d="m6276.171875 10967.929687h9.309896v651.497396h-9.309896zm0 0" fill="none" stroke="#000" stroke-linejoin="round" stroke-miterlimit="10" stroke-width="6.63512" transform="matrix(.06 0 0 -.06 0 879.9)"/><path d="m376.570312 221.824219h.558594v-39.089844h-.558594zm0 0"/><use x="361.275723" xlink:href="#R" y="266.216773"/><use x="361.718723" xlink:href="#ak" y="224.372689"/><path d="m5093.880208 11067.604167h9.375v610.15625h-9.375zm0 0" fill="none" stroke="#000" stroke-linejoin="round" stroke-miterlimit="10" stroke-width="6.63512" transform="matrix(.06 0 0 -.06 0 879.9)"/><path d="m305.632812 215.84375h.558594v-36.609375h-.558594zm0 0"/><use x="287.022574" xlink:href="#F" y="266.216773"/><use x="293.655157" xlink:href="#R" y="266.216773"/><path d="m3911.588542 11766.888021v-88.997396l1191.601562-41.601563v88.997396zm0 0" fill="none" stroke="#000" stroke-linejoin="round" stroke-miterlimit="10" stroke-width="6.63512" transform="matrix(.06 0 0 -.06 0 879.9)"/><path d="m234.695312 173.886719v5.339843l71.496094 2.496094v-5.339844zm0 0"/><path d="m4365.559896 10362.526042h121.744791v6.119791h-121.744791zm0 0" fill="none" stroke="#000" stroke-linejoin="round" stroke-miterlimit="10" stroke-width="9.82316" transform="matrix(.06 0 0 -.06 0 879.9)"/><path d="m261.933594 258.148438h7.304687v-.367188h-7.304687zm0 0"/><path d="m5534.375 10362.526042h121.679687v6.119791h-121.679687zm0 0" fill="none" stroke="#000" stroke-linejoin="round" stroke-miterlimit="10" stroke-width="9.82316" transform="matrix(.06 0 0 -.06 0 879.9)"/><path d="m332.0625 258.148438h7.300781v-.367188h-7.300781zm0 0"/><path d="m6616.276042 10362.526042h121.679687v6.119791h-121.679687zm0 0" fill="none" stroke="#000" stroke-linejoin="round" stroke-miterlimit="10" stroke-width="9.82316" transform="matrix(.06 0 0 -.06 0 879.9)"/><path d="m396.976562 258.148438h7.300782v-.367188h-7.300782zm0 0"/><path d="m8051.302083 10362.526042h121.679688v6.119791h-121.679688zm0 0" fill="none" stroke="#000" stroke-linejoin="round" stroke-miterlimit="10" stroke-width="9.82316" transform="matrix(.06 0 0 -.06 0 879.9)"/><path d="m483.078125 258.148438h7.300781v-.367188h-7.300781zm0 0"/><path d="m8871.223958 10768.710937h9.375v651.497396h-9.375zm0 0" fill="none" stroke="#000" stroke-linejoin="round" stroke-miterlimit="10" stroke-width="6.63512" transform="matrix(.06 0 0 -.06 0 879.9)"/><path d="m532.273438 233.777344h.5625v-39.089844h-.5625zm0 0"/><use x="577.344155" xlink:href="#an" y="200.462641"/><use x="48.049096" xlink:href="#W" y="266.216773"/><use x="72.710276" xlink:href="#P" y="266.216773"/><use x="89.208405" xlink:href="#F" y="266.216773"/><use x="9.564159" xlink:href="#am" y="212.417665"/><use x="64.139708" xlink:href="#ak" y="212.417665"/><path d="m3911.588542 11167.213542h9.375v551.627604h-9.375zm0 0" fill="none" stroke="#000" stroke-linejoin="round" stroke-miterlimit="10" stroke-width="6.63512" transform="matrix(.06 0 0 -.06 0 879.9)"/><path d="m234.695312 209.867188h.5625v-33.097657h-.5625zm0 0"/><use x="211.152422" xlink:href="#X" y="266.216773"/><use x="227.650552" xlink:href="#V" y="266.216773"/><use x="219.84544" xlink:href="#ak" y="212.417665"/><path d="m1316.536458 11167.213542h9.309896v651.497395h-9.309896zm0 0" fill="none" stroke="#000" stroke-linejoin="round" stroke-miterlimit="10" stroke-width="6.63512" transform="matrix(.06 0 0 -.06 0 879.9)"/><path d="m78.992188 209.867188h.558593v-39.089844h-.558593zm0 0"/><path d="m2614.0625 11266.822917h9.309896v651.497395h-9.309896zm0 0" fill="none" stroke="#000" stroke-linejoin="round" stroke-miterlimit="10" stroke-width="6.63512" transform="matrix(.06 0 0 -.06 0 879.9)"/><path d="m156.84375 203.890625h.558594v-39.089844h-.558594zm0 0"/><use x="137.553275" xlink:href="#I" y="266.216773"/><use x="145.54641" xlink:href="#Y" y="266.216773"/><use x="141.993284" xlink:href="#ak" y="206.440653"/><g clip-path="url(#k)"><path d="m6.119792 8534.401042h9908.984375" style="fill:none;stroke-width:12.2939;stroke-linecap:round;stroke-linejoin:round;stroke:#000;stroke-miterlimit:10" transform="matrix(.06 0 0 -.06 0 879.9)"/></g><g clip-path="url(#l)"><path d="m6.119792 8733.619792h9908.984375" style="fill:none;stroke-width:12.2939;stroke-linecap:round;stroke-linejoin:round;stroke:#000;stroke-miterlimit:10" transform="matrix(.06 0 0 -.06 0 879.9)"/></g><g clip-path="url(#m)"><path d="m6.119792 8932.903646h9908.984375" style="fill:none;stroke-width:12.2939;stroke-linecap:round;stroke-linejoin:round;stroke:#000;stroke-miterlimit:10" transform="matrix(.06 0 0 -.06 0 879.9)"/></g><g clip-path="url(#n)"><path d="m6.119792 9132.122396h9908.984375" style="fill:none;stroke-width:12.2939;stroke-linecap:round;stroke-linejoin:round;stroke:#000;stroke-miterlimit:10" transform="matrix(.06 0 0 -.06 0 879.9)"/></g><g clip-path="url(#o)"><path d="m6.119792 9331.40625h9908.984375" style="fill:none;stroke-width:12.2939;stroke-linecap:round;stroke-linejoin:round;stroke:#000;stroke-miterlimit:10" transform="matrix(.06 0 0 -.06 0 879.9)"/></g><path d="m4904.882812 8335.117188h358.072917" style="fill:none;stroke-width:32.2192;stroke-linecap:round;stroke-linejoin:round;stroke:#000;stroke-miterlimit:10" transform="matrix(.06 0 0 -.06 0 879.9)"/><path d="m1020.052083 8335.117188h358.072917" style="fill:none;stroke-width:32.2192;stroke-linecap:round;stroke-linejoin:round;stroke:#000;stroke-miterlimit:10" transform="matrix(.06 0 0 -.06 0 879.9)"/><use x="500.986002" xlink:href="#F" y="419.254079"/><use x="507.618556" xlink:href="#G" y="419.254079"/><use x="524.116935" xlink:href="#H" y="419.254079"/><use x="538.913746" xlink:href="#T" y="419.254079"/><use x="516.226032" xlink:href="#ak" y="355.879952"/><path d="m5201.367187 8377.630208h9.375v552.213542h-9.375zm0 0" fill="none" stroke="#000" stroke-linejoin="round" stroke-miterlimit="10" stroke-width="6.63512" transform="matrix(.06 0 0 -.06 0 879.9)"/><path d="m312.082031 377.242188h.5625v-33.132813h-.5625zm0 0"/><path d="m7651.302083 8676.523438h9.309896v493.684895h-9.309896zm0 0" fill="none" stroke="#000" stroke-linejoin="round" stroke-miterlimit="10" stroke-width="6.63512" transform="matrix(.06 0 0 -.06 0 879.9)"/><path d="m459.078125 359.308594h.558594v-29.621094h-.558594zm0 0"/><use x="443.781888" xlink:href="#P" y="419.254079"/><use x="444.223888" xlink:href="#ak" y="361.857964"/><path d="m1691.536458 7811.875h121.679688v6.119792h-121.679688zm0 0" fill="none" stroke="#000" stroke-linejoin="round" stroke-miterlimit="10" stroke-width="9.82316" transform="matrix(.06 0 0 -.06 0 879.9)"/><path d="m101.492188 411.1875h7.300781v-.367188h-7.300781zm0 0"/><path d="m6451.236979 8576.914062h9.309896v552.213542h-9.309896zm0 0" fill="none" stroke="#000" stroke-linejoin="round" stroke-miterlimit="10" stroke-width="6.63512" transform="matrix(.06 0 0 -.06 0 879.9)"/><path d="m387.074219 365.285156h.558593v-33.132812h-.558593zm0 0"/><use x="355.366711" xlink:href="#S" y="419.254079"/><use x="380.02789" xlink:href="#Z" y="419.254079"/><use x="388.192119" xlink:href="#N" y="419.254079"/><use x="372.222744" xlink:href="#ak" y="367.835976"/><path d="m4001.367187 9019.101562v-88.997395l1209.375-41.731771v89.0625zm0 0" fill="none" stroke="#000" stroke-linejoin="round" stroke-miterlimit="10" stroke-width="6.63512" transform="matrix(.06 0 0 -.06 0 879.9)"/><path d="m240.082031 338.753906v5.339844l72.5625 2.503906v-5.34375zm0 0"/><path d="m4330.273437 7811.875h121.679688v6.119792h-121.679688zm0 0" fill="none" stroke="#000" stroke-linejoin="round" stroke-miterlimit="10" stroke-width="9.82316" transform="matrix(.06 0 0 -.06 0 879.9)"/><path d="m259.816406 411.1875h7.300782v-.367188h-7.300782zm0 0"/><path d="m6451.236979 9176.653646v-88.997396l1209.309896 41.666667v88.997395zm0 0" fill="none" stroke="#000" stroke-linejoin="round" stroke-miterlimit="10" stroke-width="6.63512" transform="matrix(.06 0 0 -.06 0 879.9)"/><path d="m387.074219 329.300781v5.339844l72.558593-2.5v-5.339844zm0 0"/><path d="m7949.674479 7811.875h121.679688v6.119792h-121.679688zm0 0" fill="none" stroke="#000" stroke-linejoin="round" stroke-miterlimit="10" stroke-width="9.82316" transform="matrix(.06 0 0 -.06 0 879.9)"/><path d="m476.980469 411.1875h7.300781v-.367188h-7.300781zm0 0"/><path d="m8851.302083 8776.132812h9.309896v651.5625h-9.309896zm0 0" fill="none" stroke="#000" stroke-linejoin="round" stroke-miterlimit="10" stroke-width="6.63512" transform="matrix(.06 0 0 -.06 0 879.9)"/><path d="m531.078125 353.332031h.558594v-39.09375h-.558594zm0 0"/><use x="577.344155" xlink:href="#al" y="331.969904"/><use x="9.564019" xlink:href="#am" y="355.880152"/><path d="m1316.536458 8377.630208h9.309896v651.5625h-9.309896zm0 0" fill="none" stroke="#000" stroke-linejoin="round" stroke-miterlimit="10" stroke-width="6.63512" transform="matrix(.06 0 0 -.06 0 879.9)"/><path d="m78.992188 377.242188h.558593v-39.09375h-.558593zm0 0"/><use x="277.399555" xlink:href="#aa" y="419.254079"/><use x="291.516209" xlink:href="#G" y="419.254079"/><use x="308.014353" xlink:href="#O" y="419.254079"/><use x="324.512497" xlink:href="#T" y="419.254079"/><use x="64.139628" xlink:href="#ak" y="379.791"/><use x="58.764518" xlink:href="#ab" y="419.254079"/><use x="78.494212" xlink:href="#F" y="419.254079"/><use x="297.232594" xlink:href="#ak" y="379.791"/><path d="m4001.367187 8477.304688h9.309896v493.684895h-9.309896zm0 0" fill="none" stroke="#000" stroke-linejoin="round" stroke-miterlimit="10" stroke-width="6.63512" transform="matrix(.06 0 0 -.06 0 879.9)"/><path d="m240.082031 371.261719h.558594v-29.621094h-.558594zm0 0"/><use x="216.538433" xlink:href="#ac" y="419.254079"/><use x="233.036563" xlink:href="#G" y="419.254079"/><use x="225.22945" xlink:href="#ak" y="373.812988"/><path d="m2683.854167 8576.914062h9.309895v651.5625h-9.309895zm0 0" fill="none" stroke="#000" stroke-linejoin="round" stroke-miterlimit="10" stroke-width="6.63512" transform="matrix(.06 0 0 -.06 0 879.9)"/><path d="m161.03125 365.285156h.558594v-39.09375h-.558594zm0 0"/><use x="125.15625" xlink:href="#O" y="419.254079"/><use x="141.65438" xlink:href="#ad" y="419.254079"/><use x="158.152509" xlink:href="#S" y="419.254079"/><use x="146.179292" xlink:href="#ak" y="367.835976"/><g clip-path="url(#p)"><path d="m6.119792 6143.385417h9908.984375" style="fill:none;stroke-width:12.2939;stroke-linecap:round;stroke-linejoin:round;stroke:#000;stroke-miterlimit:10" transform="matrix(.06 0 0 -.06 0 879.9)"/></g><g clip-path="url(#q)"><path d="m6.119792 6342.604167h9908.984375" style="fill:none;stroke-width:12.2939;stroke-linecap:round;stroke-linejoin:round;stroke:#000;stroke-miterlimit:10" transform="matrix(.06 0 0 -.06 0 879.9)"/></g><g clip-path="url(#r)"><path d="m6.119792 6541.888021h9908.984375" style="fill:none;stroke-width:12.2939;stroke-linecap:round;stroke-linejoin:round;stroke:#000;stroke-miterlimit:10" transform="matrix(.06 0 0 -.06 0 879.9)"/></g><g clip-path="url(#s)"><path d="m6.119792 6741.106771h9908.984375" style="fill:none;stroke-width:12.2939;stroke-linecap:round;stroke-linejoin:round;stroke:#000;stroke-miterlimit:10" transform="matrix(.06 0 0 -.06 0 879.9)"/></g><g clip-path="url(#t)"><path d="m6.119792 6940.390625h9908.984375" style="fill:none;stroke-width:12.2939;stroke-linecap:round;stroke-linejoin:round;stroke:#000;stroke-miterlimit:10" transform="matrix(.06 0 0 -.06 0 879.9)"/></g><use x="500.432001" xlink:href="#K" y="553.141346"/><use x="515.228813" xlink:href="#R" y="553.141346"/><use x="531.727191" xlink:href="#F" y="553.141346"/><use x="538.359745" xlink:href="#T" y="553.141346"/><use x="515.673031" xlink:href="#ak" y="499.342239"/><path d="m5228.059896 6584.401042h9.309896v551.627604h-9.309896zm0 0" style="fill:none;stroke-width:6.63512;stroke-linecap:round;stroke-linejoin:round;stroke:#000;stroke-miterlimit:10" transform="matrix(.06 0 0 -.06 0 879.9)"/><path d="m313.683594 484.835938h.558594v-33.097657h-.558594zm0 0"/><path d="m7392.643229 5989.869792h9.375v409.830729h-9.375zm0 0" style="fill:none;stroke-width:6.63512;stroke-linecap:round;stroke-linejoin:round;stroke:#000;stroke-miterlimit:10" transform="matrix(.06 0 0 -.06 0 879.9)"/><path d="m443.558594 520.507812h.558594v-24.589843h-.558594zm0 0"/><use x="427.269855" xlink:href="#O" y="553.141346"/><use x="443.767999" xlink:href="#V" y="553.141346"/><use x="460.266143" xlink:href="#K" y="553.141346"/><use x="443.360887" xlink:href="#ak" y="493.365227"/><path d="m6195.117187 6104.257812h9.309896v494.726563h-9.309896zm0 0" style="fill:none;stroke-width:6.63512;stroke-linecap:round;stroke-linejoin:round;stroke:#000;stroke-miterlimit:10" transform="matrix(.06 0 0 -.06 0 879.9)"/><path d="m371.707031 513.644531h.558594v-29.683593h-.558594zm0 0"/><use x="350.484701" xlink:href="#S" y="553.141346"/><use x="375.145881" xlink:href="#ad" y="553.141346"/><use x="391.644025" xlink:href="#ac" y="553.141346"/><use x="371.507743" xlink:href="#ak" y="481.410203"/><path d="m3088.867187 5580.429688h121.679688v6.119791h-121.679688zm0 0" style="fill:none;stroke-width:9.82316;stroke-linecap:round;stroke-linejoin:round;stroke:#000;stroke-miterlimit:10" transform="matrix(.06 0 0 -.06 0 879.9)"/><path d="m185.332031 545.074219h7.300781v-.367188h-7.300781zm0 0"/><path d="m4019.791667 7142.408854.065104-88.997396 1217.513021 41.666667v89.0625zm0 0" fill="none" stroke="#000" stroke-linejoin="round" stroke-miterlimit="10" stroke-width="6.63512" transform="matrix(.06 0 0 -.06 0 879.9)"/><path d="m241.1875 451.355469.003906 5.339843 73.050782-2.5v-5.34375zm0 0"/><path d="m4496.679687 5580.429688h121.679688v6.119791h-121.679688zm0 0" fill="none" stroke="#000" stroke-linejoin="round" stroke-miterlimit="10" stroke-width="9.82316" transform="matrix(.06 0 0 -.06 0 879.9)"/><path d="m269.800781 545.074219h7.300781v-.367188h-7.300781zm0 0"/><path d="m5556.184896 5580.429688h121.679687v6.119791h-121.679687zm0 0" fill="none" stroke="#000" stroke-linejoin="round" stroke-miterlimit="10" stroke-width="9.82316" transform="matrix(.06 0 0 -.06 0 879.9)"/><path d="m333.371094 545.074219h7.300781v-.367188h-7.300781zm0 0"/><path d="m6195.117187 6146.184896v-88.997396l1206.835938-115.885417v88.997396zm0 0" fill="none" stroke="#000" stroke-linejoin="round" stroke-miterlimit="10" stroke-width="6.63512" transform="matrix(.06 0 0 -.06 0 879.9)"/><path d="m371.707031 511.128906v5.339844l72.410157 6.953125v-5.339844zm0 0"/><path d="m6900.911458 5580.429688h121.679688v6.119791h-121.679688zm0 0" fill="none" stroke="#000" stroke-linejoin="round" stroke-miterlimit="10" stroke-width="9.82316" transform="matrix(.06 0 0 -.06 0 879.9)"/><path d="m414.054688 545.074219h7.300781v-.367188h-7.300781zm0 0"/><path d="m8068.294271 5580.429688h121.679687v6.119791h-121.679687zm0 0" fill="none" stroke="#000" stroke-linejoin="round" stroke-miterlimit="10" stroke-width="9.82316" transform="matrix(.06 0 0 -.06 0 879.9)"/><path d="m484.09375 545.074219h7.304688v-.367188h-7.304688zm0 0"/><path d="m8842.057292 6385.117188h9.309895v651.562499h-9.309895zm0 0" fill="none" stroke="#000" stroke-linejoin="round" stroke-miterlimit="10" stroke-width="6.63512" transform="matrix(.06 0 0 -.06 0 879.9)"/><path d="m530.523438 496.792969h.558593v-39.09375h-.558593zm0 0"/><use x="577.344155" xlink:href="#an" y="487.387215"/><use x="9.564019" xlink:href="#am" y="499.342439"/><path d="m1316.536458 6185.898438h9.309896v651.497395h-9.309896zm0 0" fill="none" stroke="#000" stroke-linejoin="round" stroke-miterlimit="10" stroke-width="6.63512" transform="matrix(.06 0 0 -.06 0 879.9)"/><path d="m78.992188 508.746094h.558593v-39.089844h-.558593zm0 0"/><use x="289.713579" xlink:href="#Q" y="553.141346"/><use x="299.238102" xlink:href="#G" y="553.141346"/><use x="315.395465" xlink:href="#I" y="553.141346"/><use x="64.139628" xlink:href="#ak" y="511.298263"/><use x="38.184876" xlink:href="#ae" y="553.141346"/><use x="57.914571" xlink:href="#L" y="553.141346"/><use x="72.711375" xlink:href="#P" y="553.141346"/><use x="89.209505" xlink:href="#af" y="553.141346"/><use x="298.831598" xlink:href="#ak" y="487.387215"/><path d="m4019.791667 6484.726562h9.375v610.15625h-9.375zm0 0" fill="none" stroke="#000" stroke-linejoin="round" stroke-miterlimit="10" stroke-width="6.63512" transform="matrix(.06 0 0 -.06 0 879.9)"/><path d="m241.1875 490.816406h.5625v-36.609375h-.5625zm0 0"/><use x="211.097422" xlink:href="#ag" y="553.141346"/><use x="225.894454" xlink:href="#K" y="553.141346"/><use x="240.691251" xlink:href="#P" y="553.141346"/><use x="226.336453" xlink:href="#ak" y="493.365227"/><path d="m2693.098958 6385.117188h9.309896v651.562499h-9.309896zm0 0" fill="none" stroke="#000" stroke-linejoin="round" stroke-miterlimit="10" stroke-width="6.63512" transform="matrix(.06 0 0 -.06 0 879.9)"/><path d="m161.585938 496.792969h.558593v-39.09375h-.558593zm0 0"/><use x="142.208284" xlink:href="#O" y="553.141346"/><use x="158.706414" xlink:href="#Z" y="553.141346"/><use x="146.733293" xlink:href="#ak" y="499.342239"/><g clip-path="url(#u)"><path d="m6.119792 3752.304688h9908.984375" style="fill:none;stroke-width:12.2939;stroke-linecap:round;stroke-linejoin:round;stroke:#000;stroke-miterlimit:10" transform="matrix(.06 0 0 -.06 0 879.9)"/></g><g clip-path="url(#v)"><path d="m6.119792 3951.588542h9908.984375" style="fill:none;stroke-width:12.2939;stroke-linecap:round;stroke-linejoin:round;stroke:#000;stroke-miterlimit:10" transform="matrix(.06 0 0 -.06 0 879.9)"/></g><g clip-path="url(#w)"><path d="m6.119792 4150.807292h9908.984375" style="fill:none;stroke-width:12.2939;stroke-linecap:round;stroke-linejoin:round;stroke:#000;stroke-miterlimit:10" transform="matrix(.06 0 0 -.06 0 879.9)"/></g><g clip-path="url(#x)"><path d="m6.119792 4350.091146h9908.984375" style="fill:none;stroke-width:12.2939;stroke-linecap:round;stroke-linejoin:round;stroke:#000;stroke-miterlimit:10" transform="matrix(.06 0 0 -.06 0 879.9)"/></g><g clip-path="url(#y)"><path d="m6.119792 4549.309896h9908.984375" style="fill:none;stroke-width:12.2939;stroke-linecap:round;stroke-linejoin:round;stroke:#000;stroke-miterlimit:10" transform="matrix(.06 0 0 -.06 0 879.9)"/></g><use x="499.678999" xlink:href="#ac" y="696.603633"/><use x="516.177144" xlink:href="#G" y="696.603633"/><use x="532.675288" xlink:href="#H" y="696.603633"/><use x="515.770032" xlink:href="#ak" y="660.737562"/><path d="m5223.307292 3994.101562h9.375v509.505209h-9.375zm0 0" style="fill:none;stroke-width:6.63512;stroke-linecap:round;stroke-linejoin:round;stroke:#000;stroke-miterlimit:10" transform="matrix(.06 0 0 -.06 0 879.9)"/><path d="m313.398438 640.253906h.5625v-30.570312h-.5625zm0 0"/><path d="m7636.914062 3794.817708h9.309896v552.213542h-9.309896zm0 0" style="fill:none;stroke-width:6.63512;stroke-linecap:round;stroke-linejoin:round;stroke:#000;stroke-miterlimit:10" transform="matrix(.06 0 0 -.06 0 879.9)"/><path d="m458.214844 652.210938h.558594v-33.132813h-.558594zm0 0"/><use x="426.422853" xlink:href="#O" y="696.603633"/><use x="442.920997" xlink:href="#G" y="696.603633"/><use x="459.419376" xlink:href="#ac" y="696.603633"/><use x="443.362887" xlink:href="#ak" y="654.76055"/><path d="m6430.143229 3894.492188h9.309896v493.684895h-9.309896zm0 0" style="fill:none;stroke-width:6.63512;stroke-linecap:round;stroke-linejoin:round;stroke:#000;stroke-miterlimit:10" transform="matrix(.06 0 0 -.06 0 879.9)"/><path d="m385.808594 646.230469h.558594v-29.621094h-.558594zm0 0"/><use x="354.86571" xlink:href="#S" y="696.603633"/><use x="379.526889" xlink:href="#J" y="696.603633"/><use x="386.159473" xlink:href="#ac" y="696.603633"/><use x="370.956742" xlink:href="#ak" y="648.782538"/><path d="m3125.911458 3189.348958h121.679688v6.184896h-121.679688zm0 0" style="fill:none;stroke-width:9.82316;stroke-linecap:round;stroke-linejoin:round;stroke:#000;stroke-miterlimit:10" transform="matrix(.06 0 0 -.06 0 879.9)"/><path d="m187.554688 688.539062h7.300781v-.371093h-7.300781zm0 0"/><path d="m3966.731771 4436.289062v-88.997395l1265.950521 115.885416v88.997396zm0 0" fill="none" stroke="#000" stroke-linejoin="round" stroke-miterlimit="10" stroke-width="6.63512" transform="matrix(.06 0 0 -.06 0 879.9)"/><path d="m238.003906 613.722656v5.339844l75.957032-6.953125v-5.339844zm0 0"/><path d="m4350.130208 3189.348958h121.679688v6.184896h-121.679688zm0 0" fill="none" stroke="#000" stroke-linejoin="round" stroke-miterlimit="10" stroke-width="9.82316" transform="matrix(.06 0 0 -.06 0 879.9)"/><path d="m261.007812 688.539062h7.300782v-.371093h-7.300782zm0 0"/><path d="m6430.143229 4436.289062v-88.997395l1216.080729-41.731771v89.0625zm0 0" fill="none" stroke="#000" stroke-linejoin="round" stroke-miterlimit="10" stroke-width="6.63512" transform="matrix(.06 0 0 -.06 0 879.9)"/><path d="m385.808594 613.722656v5.339844l72.964844 2.503906v-5.34375zm0 0"/><path d="m6848.177083 3189.348958h121.679688v6.184896h-121.679688zm0 0" fill="none" stroke="#000" stroke-linejoin="round" stroke-miterlimit="10" stroke-width="9.82316" transform="matrix(.06 0 0 -.06 0 879.9)"/><path d="m410.890625 688.539062h7.300781v-.371093h-7.300781zm0 0"/><path d="m8069.075521 3189.348958h121.679687v6.184896h-121.679687zm0 0" fill="none" stroke="#000" stroke-linejoin="round" stroke-miterlimit="10" stroke-width="9.82316" transform="matrix(.06 0 0 -.06 0 879.9)"/><path d="m484.144531 688.539062h7.300781v-.371093h-7.300781zm0 0"/><path d="m8843.684896 3695.208333h9.375v651.5625h-9.375zm0 0" fill="none" stroke="#000" stroke-linejoin="round" stroke-miterlimit="10" stroke-width="6.63512" transform="matrix(.06 0 0 -.06 0 879.9)"/><path d="m530.621094 658.1875h.558594v-39.09375h-.558594zm0 0"/><use x="577.344155" xlink:href="#al" y="618.894478"/><use x="9.564019" xlink:href="#am" y="642.805026"/><path d="m1316.536458 3994.101562h9.309896v651.497396h-9.309896zm0 0" fill="none" stroke="#000" stroke-linejoin="round" stroke-miterlimit="10" stroke-width="6.63512" transform="matrix(.06 0 0 -.06 0 879.9)"/><path d="m78.992188 640.253906h.558593v-39.089844h-.558593zm0 0"/><use x="281.862564" xlink:href="#I" y="696.603633"/><use x="289.686012" xlink:href="#G" y="696.603633"/><use x="306.184156" xlink:href="#S" y="696.603633"/><use x="64.139628" xlink:href="#ak" y="642.805526"/><use x="54.681909" xlink:href="#ah" y="696.603633"/><use x="74.41137" xlink:href="#K" y="696.603633"/><use x="298.548597" xlink:href="#ak" y="642.805526"/><path d="m3966.731771 3794.817708h9.375v594.335938h-9.375zm0 0" fill="none" stroke="#000" stroke-linejoin="round" stroke-miterlimit="10" stroke-width="6.63512" transform="matrix(.06 0 0 -.06 0 879.9)"/><path d="m238.003906 652.210938h.558594v-35.660157h-.558594zm0 0"/><use x="214.460429" xlink:href="#O" y="696.603633"/><use x="230.958558" xlink:href="#G" y="696.603633"/><use x="223.153446" xlink:href="#ak" y="654.76055"/><path d="m2641.601562 3894.492188h9.375v651.497395h-9.375zm0 0" fill="none" stroke="#000" stroke-linejoin="round" stroke-miterlimit="10" stroke-width="6.63512" transform="matrix(.06 0 0 -.06 0 879.9)"/><path d="m158.496094 646.230469h.5625v-39.089844h-.5625zm0 0"/><use x="134.95427" xlink:href="#X" y="696.603633"/><use x="151.452399" xlink:href="#J" y="696.603633"/><use x="158.084983" xlink:href="#Q" y="696.603633"/><use x="143.646287" xlink:href="#ak" y="648.782538"/><g clip-path="url(#z)"><path d="m6.119792 1361.289062h9908.984375" style="fill:none;stroke-width:12.2939;stroke-linecap:round;stroke-linejoin:round;stroke:#000;stroke-miterlimit:10" transform="matrix(.06 0 0 -.06 0 879.9)"/></g><g clip-path="url(#A)"><path d="m6.119792 1560.507812h9908.984375" style="fill:none;stroke-width:12.2939;stroke-linecap:round;stroke-linejoin:round;stroke:#000;stroke-miterlimit:10" transform="matrix(.06 0 0 -.06 0 879.9)"/></g><g clip-path="url(#B)"><path d="m6.119792 1759.791667h9908.984375" style="fill:none;stroke-width:12.2939;stroke-linecap:round;stroke-linejoin:round;stroke:#000;stroke-miterlimit:10" transform="matrix(.06 0 0 -.06 0 879.9)"/></g><g clip-path="url(#C)"><path d="m6.119792 1959.075521h9908.984375" style="fill:none;stroke-width:12.2939;stroke-linecap:round;stroke-linejoin:round;stroke:#000;stroke-miterlimit:10" transform="matrix(.06 0 0 -.06 0 879.9)"/></g><g clip-path="url(#D)"><path d="m6.119792 2158.294271h9908.984375" style="fill:none;stroke-width:12.2939;stroke-linecap:round;stroke-linejoin:round;stroke:#000;stroke-miterlimit:10" transform="matrix(.06 0 0 -.06 0 879.9)"/></g><g clip-path="url(#E)"><path d="m9884.375 1361.289062v797.005209" fill="none" stroke="#000" stroke-linejoin="round" stroke-miterlimit="10" stroke-width="73.7235" transform="matrix(.06 0 0 -.06 0 879.9)"/></g><path d="m9799.023437 1361.289062v797.005209" fill="none" stroke="#000" stroke-linejoin="round" stroke-miterlimit="10" stroke-width="23.3524" transform="matrix(.06 0 0 -.06 0 879.9)"/><path d="m8437.695312 1162.070312h358.072917" style="fill:none;stroke-width:32.2192;stroke-linecap:round;stroke-linejoin:round;stroke:#000;stroke-miterlimit:10" transform="matrix(.06 0 0 -.06 0 879.9)"/><use x="509.199018" xlink:href="#ak" y="810.177761"/><path d="m7468.619792 1304.192708h9.309895v651.497396h-9.309895zm0 0" fill="none" stroke="#000" stroke-linejoin="round" stroke-miterlimit="10" stroke-width="6.63512" transform="matrix(.06 0 0 -.06 0 879.9)"/><path d="m448.117188 801.648438h.558593v-39.089844h-.558593zm0 0"/><use x="288.150576" xlink:href="#ak" y="792.245025"/><use x="412.241824" xlink:href="#S" y="844.120928"/><use x="436.903004" xlink:href="#G" y="844.120928"/><use x="453.401148" xlink:href="#O" y="844.120928"/><use x="433.264867" xlink:href="#ak" y="804.200049"/><path d="m6203.450521 1403.802083h9.375v651.5625h-9.375zm0 0" fill="none" stroke="#000" stroke-linejoin="round" stroke-miterlimit="10" stroke-width="6.63512" transform="matrix(.06 0 0 -.06 0 879.9)"/><path d="m372.207031 795.671875h.5625v-39.09375h-.5625zm0 0"/><use x="338.374677" xlink:href="#N" y="844.120928"/><use x="354.872821" xlink:href="#ai" y="844.120928"/><use x="368.819789" xlink:href="#G" y="844.120928"/><use x="385.317933" xlink:href="#F" y="844.120928"/><use x="357.357715" xlink:href="#ak" y="798.222537"/><path d="m5050 1503.411458h9.375v610.15625h-9.375zm0 0" fill="none" stroke="#000" stroke-linejoin="round" stroke-miterlimit="10" stroke-width="6.63512" transform="matrix(.06 0 0 -.06 0 879.9)"/><path d="m303 789.695312h.5625v-36.609374h-.5625zm0 0"/><use x="280.648561" xlink:href="#H" y="844.120928"/><use x="294.765215" xlink:href="#G" y="844.120928"/><path d="m3079.947917 730.755208h121.679687v6.119792h-121.679687zm0 0" fill="none" stroke="#000" stroke-linejoin="round" stroke-miterlimit="10" stroke-width="9.82316" transform="matrix(.06 0 0 -.06 0 879.9)"/><path d="m184.796875 836.054688h7.300781v-.367188h-7.300781zm0 0"/><path d="m3896.549479 2202.760417v-88.932292l1162.825521-41.666667v88.997396zm0 0" fill="none" stroke="#000" stroke-linejoin="round" stroke-miterlimit="10" stroke-width="6.63512" transform="matrix(.06 0 0 -.06 0 879.9)"/><path d="m233.792969 747.734375v5.335937l69.769531 2.5v-5.339843zm0 0"/><path d="m5352.799479 730.755208h121.679688v6.119792h-121.679688zm0 0" fill="none" stroke="#000" stroke-linejoin="round" stroke-miterlimit="10" stroke-width="9.82316" transform="matrix(.06 0 0 -.06 0 879.9)"/><path d="m321.167969 836.054688h7.300781v-.367188h-7.300781zm0 0"/><path d="m6640.755208 730.755208h121.679688v6.119792h-121.679688zm0 0" fill="none" stroke="#000" stroke-linejoin="round" stroke-miterlimit="10" stroke-width="9.82316" transform="matrix(.06 0 0 -.06 0 879.9)"/><path d="m398.445312 836.054688h7.300782v-.367188h-7.300782zm0 0"/><path d="m7930.208333 730.755208h121.679688v6.119792h-121.679688zm0 0" fill="none" stroke="#000" stroke-linejoin="round" stroke-miterlimit="10" stroke-width="9.82316" transform="matrix(.06 0 0 -.06 0 879.9)"/><path d="m475.8125 836.054688h7.300781v-.367188h-7.300781zm0 0"/><use x="517.005034" xlink:href="#ao" y="746.877734"/><path d="m8734.179687 1204.583333h9.309896v651.497396h-9.309896zm0 0" fill="none" stroke="#000" stroke-linejoin="round" stroke-miterlimit="10" stroke-width="6.63512" transform="matrix(.06 0 0 -.06 0 879.9)"/><path d="m524.050781 807.628906h.558594v-39.09375h-.558594zm0 0"/><use x="489.026978" xlink:href="#ac" y="844.120928"/><use x="505.525122" xlink:href="#G" y="844.120928"/><use x="522.023267" xlink:href="#H" y="844.120928"/><use x="536.820078" xlink:href="#U" y="844.120928"/><use x="9.564159" xlink:href="#am" y="786.267213"/><path d="m1316.536458 1304.192708h9.309896v651.497396h-9.309896zm0 0" fill="none" stroke="#000" stroke-linejoin="round" stroke-miterlimit="10" stroke-width="6.63512" transform="matrix(.06 0 0 -.06 0 879.9)"/><path d="m78.992188 801.648438h.558593v-39.089844h-.558593zm0 0"/><use x="64.139628" xlink:href="#ak" y="804.200049"/><use x="37.504575" xlink:href="#aj" y="844.120928"/><use x="58.594818" xlink:href="#R" y="844.120928"/><use x="75.092948" xlink:href="#N" y="844.120928"/><use x="91.591077" xlink:href="#ai" y="844.120928"/><path d="m3896.549479 1603.085938h9.375v551.627604h-9.375zm0 0" fill="none" stroke="#000" stroke-linejoin="round" stroke-miterlimit="10" stroke-width="6.63512" transform="matrix(.06 0 0 -.06 0 879.9)"/><path d="m233.792969 783.714844h.5625v-33.097656h-.5625zm0 0"/><use x="210.336421" xlink:href="#I" y="844.120928"/><use x="218.500649" xlink:href="#V" y="844.120928"/><use x="234.998778" xlink:href="#I" y="844.120928"/><use x="218.942438" xlink:href="#ak" y="786.267213"/><path d="m2581.640625 1403.802083h9.309896v651.5625h-9.309896zm0 0" fill="none" stroke="#000" stroke-linejoin="round" stroke-miterlimit="10" stroke-width="6.63512" transform="matrix(.06 0 0 -.06 0 879.9)"/><path d="m154.898438 795.671875h.558593v-39.09375h-.558593zm0 0"/><use x="129.143258" xlink:href="#aa" y="844.120928"/><use x="143.429586" xlink:href="#ad" y="844.120928"/><use x="159.927716" xlink:href="#F" y="844.120928"/><use x="140.04628" xlink:href="#ak" y="798.222537"/></svg>