<svg height="589.04em" viewBox="0 0 595.28 589.04" width="595.28em" xmlns="http://www.w3.org/2000/svg" xmlns:xlink="http://www.w3.org/1999/xlink"><clipPath id="a"><path d="m0 80h595.28125v2h-595.28125zm0 0"/></clipPath><clipPath id="b"><path d="m0 68h595.28125v2h-595.28125zm0 0"/></clipPath><clipPath id="c"><path d="m0 56h595.28125v2h-595.28125zm0 0"/></clipPath><clipPath id="d"><path d="m0 44h595.28125v2h-595.28125zm0 0"/></clipPath><clipPath id="e"><path d="m0 32h595.28125v2h-595.28125zm0 0"/></clipPath><clipPath id="f"><path d="m0 224h595.28125v1h-595.28125zm0 0"/></clipPath><clipPath id="g"><path d="m0 212h595.28125v1h-595.28125zm0 0"/></clipPath><clipPath id="h"><path d="m0 200h595.28125v1h-595.28125zm0 0"/></clipPath><clipPath id="i"><path d="m0 188h595.28125v1h-595.28125zm0 0"/></clipPath><clipPath id="j"><path d="m0 176h595.28125v1h-595.28125zm0 0"/></clipPath><clipPath id="k"><path d="m0 367h595.28125v2h-595.28125zm0 0"/></clipPath><clipPath id="l"><path d="m0 355h595.28125v2h-595.28125zm0 0"/></clipPath><clipPath id="m"><path d="m0 343h595.28125v2h-595.28125zm0 0"/></clipPath><clipPath id="n"><path d="m0 331h595.28125v2h-595.28125zm0 0"/></clipPath><clipPath id="o"><path d="m0 319h595.28125v2h-595.28125zm0 0"/></clipPath><clipPath id="p"><path d="m0 510h595.28125v2h-595.28125zm0 0"/></clipPath><clipPath id="q"><path d="m0 498h595.28125v2h-595.28125zm0 0"/></clipPath><clipPath id="r"><path d="m0 487h595.28125v1h-595.28125zm0 0"/></clipPath><clipPath id="s"><path d="m0 475h595.28125v1h-595.28125zm0 0"/></clipPath><clipPath id="t"><path d="m0 463h595.28125v1h-595.28125zm0 0"/></clipPath><clipPath id="u"><path d="m590 461h5.28125v53h-5.28125zm0 0"/></clipPath><symbol id="v" overflow="visible"><path d="m9.46875-13.3125v-2.515625c-.40625-.046875-.609375-.078125-.9375-.078125-1.59375 0-2.8125.9375-4.21875 3.25v-2.8125h-2.25v15.46875h2.453125v-8.03125c0-3.484375 1.15625-5.21875 4.953125-5.28125zm0 0"/></symbol><symbol id="w" overflow="visible"><path d="m15.796875-.0625v-1.859375c-.265625.0625-.390625.0625-.53125.0625-.859375 0-1.328125-.4375-1.328125-1.203125v-8.625c0-2.75-2.015625-4.21875-5.828125-4.21875-3.734375 0-6.046875 1.4375-6.1875 5.015625h2.46875c.21875-1.890625 1.328125-2.75 3.640625-2.75 2.203125 0 3.453125.828125 3.453125 2.3125v.640625c0 1.03125-.625 1.484375-2.578125 1.71875-3.46875.4375-4 .5625-4.953125.9375-1.796875.734375-2.71875 2.125-2.71875 4.015625 0 2.8125 1.953125 4.453125 5.078125 4.453125 1.984375 0 3.90625-.828125 5.25-2.265625.265625 1.171875 1.328125 2.03125 2.546875 2.03125.5 0 .890625-.0625 1.6875-.265625zm-4.3125-5.28125c0 2.21875-2.25 3.625-4.640625 3.625-1.921875 0-3.03125-.671875-3.03125-2.359375 0-1.625 1.09375-2.328125 3.71875-2.703125 2.59375-.359375 3.125-.484375 3.953125-.859375zm1.921875-16.171875h-3.34375l-2.828125 4.359375h1.765625zm0 0"/></symbol><symbol id="x" overflow="visible"><path d="m22.4375 0v-11.59375c0-2.78125-1.546875-4.3125-4.4375-4.3125-2.0625 0-3.296875.609375-4.75 2.359375-.90625-1.65625-2.15625-2.359375-4.15625-2.359375-2.0625 0-3.421875.765625-4.75 2.625v-2.1875h-2.25v15.46875h2.453125v-9.703125c0-2.25 1.625-4.046875 3.625-4.046875 1.828125 0 2.859375 1.125 2.859375 3.09375v10.65625h2.453125v-9.703125c0-2.25 1.65625-4.046875 3.671875-4.046875 1.796875 0 2.828125 1.140625 2.828125 3.09375v10.65625zm0 0"/></symbol><symbol id="y" overflow="visible"><path d="m5.671875.46875v-3.53125h-3.109375v3.0625h1.78125v.53125c0 2.03125-.390625 2.625-1.78125 2.6875v1.125c2.078125 0 3.109375-1.328125 3.109375-3.875zm0 0"/></symbol><symbol id="z" overflow="visible"><path d="m4.453125 0v-21.515625h-2.453125v21.515625zm0 0"/></symbol><symbol id="A" overflow="visible"><path d="m15.140625-7.03125c0-2.234375-.171875-3.65625-.625-4.796875-1-2.546875-3.359375-4.078125-6.25-4.078125-4.3125 0-7.078125 3.1875-7.078125 8.265625s2.671875 8.078125 7.015625 8.078125c3.546875 0 6-2 6.609375-5.125h-2.46875c-.6875 2.03125-2.078125 2.859375-4.046875 2.859375-2.578125 0-4.484375-1.65625-4.546875-5.203125zm-2.625-2.171875s0 .109375-.03125.171875h-8.671875c.203125-2.75 1.9375-4.609375 4.421875-4.609375 2.421875 0 4.28125 2.015625 4.28125 4.4375zm0 0"/></symbol><symbol id="B" overflow="visible"><path d="m14.375 0v-11.6875c0-2.5625-1.921875-4.21875-4.90625-4.21875-2.296875 0-3.765625.875-5.125 3.03125v-2.59375h-2.28125v15.46875h2.453125v-8.53125c0-3.15625 1.71875-5.21875 4.21875-5.21875 1.953125 0 3.1875 1.171875 3.1875 3.03125v10.71875zm0 0"/></symbol><symbol id="C" overflow="visible"><path d="m15.140625-7.03125c0-2.234375-.171875-3.65625-.625-4.796875-1-2.546875-3.359375-4.078125-6.25-4.078125-4.3125 0-7.078125 3.1875-7.078125 8.265625s2.671875 8.078125 7.015625 8.078125c3.546875 0 6-2 6.609375-5.125h-2.46875c-.6875 2.03125-2.078125 2.859375-4.046875 2.859375-2.578125 0-4.484375-1.65625-4.546875-5.203125zm-2.625-2.171875s0 .109375-.03125.171875h-8.671875c.203125-2.75 1.9375-4.609375 4.421875-4.609375 2.421875 0 4.28125 2.015625 4.28125 4.4375zm1.03125-12.3125h-3.328125l-2.84375 4.359375h1.78125zm0 0"/></symbol><symbol id="D" overflow="visible"><path d="m13.484375 0v-2.15625h-9.59375l9.1875-11.125v-2.1875h-11.546875v2.15625h8.625l-9.234375 11.09375v2.21875zm0 0"/></symbol><symbol id="E" overflow="visible"><path d="m19.03125-6.546875v-14.96875h-2.734375v14.96875c0 2.890625-2.09375 4.65625-5.546875 4.65625-3.21875 0-5.5-1.53125-5.5-4.65625v-14.96875h-2.734375v14.96875c0 4.359375 3.125 7.078125 8.234375 7.078125 5.046875 0 8.28125-2.78125 8.28125-7.078125zm-2.03125-20.484375h-4.015625l-3.390625 3.921875h2.125zm0 0"/></symbol><symbol id="F" overflow="visible"><path d="m14.234375 0v-15.46875h-2.453125v8.53125c0 3.15625-1.65625 5.21875-4.21875 5.21875-1.953125 0-3.1875-1.171875-3.1875-3.03125v-10.71875h-2.453125v11.6875c0 2.578125 1.921875 4.21875 4.921875 4.21875 2.28125 0 3.71875-.796875 5.171875-2.828125v2.390625zm0 0"/></symbol><symbol id="G" overflow="visible"><path d="m13.546875-4.34375c0-2.296875-1.296875-3.453125-4.375-4.1875l-2.359375-.5625c-2-.46875-2.859375-1.125-2.859375-2.203125 0-1.421875 1.265625-2.34375 3.28125-2.34375 1.96875 0 3.03125.859375 3.09375 2.484375h2.59375c-.03125-3.046875-2.03125-4.75-5.609375-4.75-3.59375 0-5.921875 1.859375-5.921875 4.71875 0 2.421875 1.234375 3.578125 4.890625 4.453125l2.3125.5625c1.703125.421875 2.390625.921875 2.390625 2.046875 0 1.4375-1.453125 2.296875-3.609375 2.296875-2.203125 0-3.453125-.53125-3.78125-2.890625h-2.59375c.125 3.5625 2.125 5.15625 6.171875 5.15625 3.890625 0 6.375-1.796875 6.375-4.78125zm0 0"/></symbol><symbol id="H" overflow="visible"><path d="m12.578125-5.515625v-16h-2.75v15c0 3.53125-1.203125 4.75-3.3125 4.75-2.0625 0-3.203125-1.390625-3.203125-3.90625v-1.234375h-2.75v1.734375c0 3.484375 2.1875 5.703125 5.9375 5.703125 3.734375 0 6.078125-2.328125 6.078125-6.046875zm0 0"/></symbol><symbol id="I" overflow="visible"><path d="m7.5 0v-2.0625c-.328125.078125-.71875.109375-1.1875.109375-1.0625 0-1.359375-.296875-1.359375-1.375v-10.125h2.546875v-2.015625h-2.546875v-4.25h-2.4375v4.25h-2.109375v2.015625h2.109375v11.203125c0 1.578125 1.0625 2.453125 2.96875 2.453125.59375 0 1.1875-.0625 2.015625-.203125zm0 0"/></symbol><symbol id="J" overflow="visible"><path d="m15.046875-7.609375c0-5.34375-2.5625-8.296875-7.015625-8.296875-4.34375 0-6.96875 2.984375-6.96875 8.171875 0 5.203125 2.59375 8.171875 7 8.171875 4.328125 0 6.984375-2.96875 6.984375-8.046875zm-2.5625-.03125c0 3.625-1.71875 5.8125-4.421875 5.8125-2.75 0-4.4375-2.15625-4.4375-5.90625 0-3.71875 1.6875-5.90625 4.4375-5.90625 2.765625 0 4.421875 2.15625 4.421875 6zm-5.34375-10.1875v-3.015625h-2.6875v3.015625zm4.78125 0v-3.015625h-2.6875v3.015625zm0 0"/></symbol><symbol id="K" overflow="visible"><path d="m15.4375-7.90625c0-5.015625-2.546875-8-6.609375-8-2.125 0-3.640625.796875-4.78125 2.53125v-8.140625h-2.453125v21.515625h2.21875v-2.21875c1.171875 1.8125 2.734375 2.65625 4.890625 2.65625 4.078125 0 6.734375-3.328125 6.734375-8.34375zm-2.5625.140625c0 3.515625-1.84375 5.90625-4.515625 5.90625-2.609375 0-4.3125-2.359375-4.3125-5.875 0-3.625 1.703125-5.984375 4.3125-5.875 2.734375 0 4.515625 2.390625 4.515625 5.84375zm0 0"/></symbol><symbol id="L" overflow="visible"><path d="m14.234375 0v-15.46875h-2.453125v8.53125c0 3.15625-1.65625 5.21875-4.21875 5.21875-1.953125 0-3.1875-1.171875-3.1875-3.03125v-10.71875h-2.453125v11.6875c0 2.578125 1.921875 4.21875 4.921875 4.21875 2.28125 0 3.71875-.796875 5.171875-2.828125v2.390625zm-3.46875-21.546875h-3.328125l-2.828125 4.421875h1.765625zm4.84375 0h-3.328125l-2.84375 4.421875h1.78125zm0 0"/></symbol><symbol id="M" overflow="visible"><path d="m4.515625 3.21875v-18.6875h-2.453125v17.71875c0 1.46875-.5 2.125-2 2.03125l-.59375-.03125v2.09375c.296875.0625.4375.09375.828125.09375 2.765625 0 4.21875-1.125 4.21875-3.21875zm.328125-21.015625v-3.078125h-3.078125v3.078125zm0 0"/></symbol><symbol id="N" overflow="visible"><path d="m15.046875-7.609375c0-5.34375-2.5625-8.296875-7.015625-8.296875-4.34375 0-6.96875 2.984375-6.96875 8.171875 0 5.203125 2.59375 8.171875 7 8.171875 4.328125 0 6.984375-2.96875 6.984375-8.046875zm-2.5625-.03125c0 3.625-1.71875 5.8125-4.421875 5.8125-2.75 0-4.4375-2.15625-4.4375-5.90625 0-3.71875 1.6875-5.90625 4.4375-5.90625 2.765625 0 4.421875 2.15625 4.421875 6zm0 0"/></symbol><symbol id="O" overflow="visible"><path d="m14.609375 0v-21.515625h-2.453125v8c-1.03125-1.5625-2.6875-2.390625-4.75-2.390625-4.015625 0-6.640625 3.09375-6.640625 8.03125 0 5.21875 2.5625 8.3125 6.734375 8.3125 2.125 0 3.59375-.796875 4.921875-2.703125v2.265625zm-2.453125-7.671875c0 3.5625-1.703125 5.8125-4.3125 5.8125-2.703125 0-4.515625-2.265625-4.515625-5.875 0-3.59375 1.8125-5.875 4.5-5.875 2.65625 0 4.328125 2.359375 4.328125 5.9375zm0 0"/></symbol><symbol id="P" overflow="visible"><path d="m14.8125 0-6.3125-10.125 5.375-5.34375h-3.15625l-6.5625 6.5625v-12.609375h-2.4375v21.515625h2.4375v-6.015625l2.390625-2.359375 5.234375 8.375zm0 0"/></symbol><symbol id="Q" overflow="visible"><path d="m14.109375-15.46875h-2.65625l-4.28125 12.046875-3.953125-12.046875h-2.625l5.21875 15.53125-.9375 2.453125c-.421875 1.078125-.921875 1.5-1.984375 1.5-.359375 0-.765625-.0625-1.296875-.171875v2.203125c.5.265625 1 .390625 1.65625.390625 1.734375 0 3.15625-.984375 3.984375-3.1875zm0 0"/></symbol><symbol id="R" overflow="visible"><path d="m14.34375-15.46875h-2.78125l-4.359375 12.546875-4.140625-12.546875h-2.765625l5.421875 15.46875h2.6875zm0 0"/></symbol><symbol id="S" overflow="visible"><path d="m5.640625 0v-3.0625h-3.078125v3.0625zm0-12.390625v-3.078125h-3.078125v3.078125zm0 0"/></symbol><symbol id="T" overflow="visible"><path d="m18.328125-5.90625c0-2.65625-1.65625-4.59375-4.578125-5.390625l-5.390625-1.453125c-2.609375-.671875-3.546875-1.53125-3.546875-3.1875 0-2.1875 1.921875-3.8125 4.8125-3.8125 3.421875 0 5.375 1.5625 5.375 4.375h2.59375c0-4.21875-2.921875-6.671875-7.890625-6.671875-4.71875 0-7.640625 2.59375-7.640625 6.484375 0 2.640625 1.390625 4.28125 4.21875 5.03125l5.34375 1.40625c2.71875.71875 3.953125 1.8125 3.953125 3.484375 0 2.359375-1.765625 3.75-5.484375 3.75-4.078125 0-6.078125-2.03125-6.078125-5.109375h-2.59375c0 5.078125 3.421875 7.53125 8.5 7.53125 5.453125 0 8.40625-2.59375 8.40625-6.4375zm0 0"/></symbol><symbol id="U" overflow="visible"><path d="m7.609375-13.453125v-2.015625h-2.5625v-2.421875c0-1.03125.59375-1.5625 1.71875-1.5625.203125 0 .28125 0 .84375.03125v-2.03125c-.5625-.125-.875-.15625-1.375-.15625-2.28125 0-3.640625 1.296875-3.640625 3.515625v2.625h-2.0625v2.015625h2.0625v13.453125h2.453125v-13.453125zm0 0"/></symbol><symbol id="V" overflow="visible"><path d="m4.515625 0v-15.46875h-2.453125v15.46875zm.328125-17.796875v-3.078125h-3.078125v3.078125zm0 0"/></symbol><symbol id="W" overflow="visible"><path d="m5.640625 0v-3.0625h-3.078125v3.0625zm0 0"/></symbol><symbol id="X" overflow="visible"><path d="m14.4375-2.53125v-12.9375h-2.28125v2.25c-1.234375-1.828125-2.734375-2.6875-4.71875-2.6875-3.921875 0-6.578125 3.296875-6.578125 8.328125 0 4.859375 2.734375 8.015625 6.375 8.015625 1.9375 0 3.296875-.828125 4.921875-2.765625v1.03125c0 4.09375-1.671875 5.671875-4.546875 5.671875-1.9375 0-3.453125-.71875-3.75-2.609375h-2.5c.265625 2.921875 2.53125 4.671875 6.171875 4.671875 4.828125 0 6.90625-2.15625 6.90625-8.96875zm-2.515625-5.109375c0 3.6875-1.59375 5.8125-4.1875 5.8125-2.6875 0-4.3125-2.15625-4.3125-5.90625 0-3.71875 1.65625-5.90625 4.28125-5.90625 2.65625 0 4.21875 2.25 4.21875 6zm0 0"/></symbol><symbol id="Y" overflow="visible"><path d="m10.625-6.453125c-2.015625 0-3.921875.671875-5.65625 1.71875-2.25 1.34375-4.96875 3.6875-4.96875 7.078125 0 2.828125 2.484375 4.109375 5.015625 4.109375 2.015625 0 3.921875-.671875 5.65625-1.71875 2.234375-1.34375 4.921875-3.6875 4.921875-7.078125 0-2.828125-2.4375-4.109375-4.96875-4.109375zm0 0"/></symbol><symbol id="Z" overflow="visible"><path d="m2.296875-7.46875c-.90625 0-1.578125.765625-1.578125 1.578125 0 .296875.09375.578125.28125.875.96875 1.328125 1.390625 2.859375 1.390625 4.4375 0 2.34375-.953125 4.828125-2.390625 6.890625-.484375.671875.53125 1.390625 1 .71875 2.0625-2.96875 3.875-6.359375 3.875-9.5625 0-1.484375-.625-4.9375-2.578125-4.9375zm0 0"/></symbol><symbol id="aa" overflow="visible"><path d="m1.203125-2.109375c.046875-1.578125 1.09375-2.953125 2.578125-2.953125 1.4375 0 2.109375 1.671875 2.109375 3.296875 0 2.8125-2.40625 4.828125-4.59375 6.640625-.09375-1.046875-.203125-2.09375-.203125-3.15625 0-.1875.046875-.328125.046875-.515625zm-2.40625-20.03125.53125 28.640625c0 .578125.4375 1.015625 1 1.015625.875 0 1.25-1.015625 1.921875-1.53125 3.015625-2.4375 7.3125-4.171875 7.3125-8.09375 0-2.578125-1.90625-4.78125-4.4375-4.78125-1.53125 0-2.96875.53125-4.21875 1.4375l.296875-16.6875c-.390625-.1875-.765625-.34375-1.203125-.34375s-.8125.15625-1.203125.34375zm0 0"/></symbol><symbol id="ab" overflow="visible"><path d="m17.890625-12.4375c-.765625-3.34375-1.671875-6.640625-2.640625-9.953125 4.59375-5.203125 8.765625-10.5625 8.765625-17.453125 0-5.40625-2.96875-13.15625-6.3125-17.171875-.25-.1875-.53125-.1875-.765625 0-4.546875 3.296875-7.1875 8.5625-7.1875 14.109375 0 2.484375.0625 4.9375.34375 7.375.328125 3.109375 1.140625 6.109375 2 9.125-5.640625 6.421875-12 12.53125-12 21.046875 0 9.609375 6.9375 17.796875 15.921875 17.796875 1.484375 0 2.875-.140625 4.265625-.390625.140625 1.53125.234375 3.0625.234375 4.59375 0 .859375-.046875 1.671875-.09375 2.53125-.28125 4.75-3.203125 9.09375-7.65625 9.1875-.046875 0-.09375.046875-.140625.046875-2.4375 0-4.546875-1.390625-5.78125-3.34375.515625.234375 1.09375.4375 1.671875.4375 2.484375 0 4.546875-2.0625 4.546875-4.546875 0-2.6875-1.96875-4.984375-4.546875-4.984375-2.828125 0-5.359375 2.203125-5.359375 4.984375 0 5.15625 4.15625 9.328125 9.328125 9.328125 5.640625 0 9.515625-5.078125 9.84375-10.8125.0625-.90625.0625-1.765625.0625-2.6875 0-1.71875-.109375-3.4375-.25-5.15625 1.25-.390625 2.4375-.953125 3.5-1.765625 3.53125-2.640625 5.109375-6.3125 5.109375-9.953125 0-6.3125-4.78125-12.390625-12.140625-12.390625-.25 0-.484375.046875-.71875.046875zm4.0625 22.25c-.671875-5.9375-1.765625-11.578125-2.96875-17.171875 5.265625.421875 8.5625 4.828125 8.5625 9.21875 0 3.359375-2.296875 6.796875-5.59375 7.953125zm-18.5625-11.296875c0-7.65625 5.171875-13.4375 10.34375-19.21875.75 2.8125 1.515625 5.640625 2.1875 8.5-4.828125 1.109375-7.546875 5.171875-7.546875 9.375 0 3.359375 1.71875 6.75 5.546875 8.8125.140625.046875.28125.09375.421875.09375.53125 0 .96875-.484375.96875-1.015625 0-.234375-.15625-.46875-.34375-.65625-2.671875-1.53125-3.921875-3.828125-3.921875-5.9375 0-2.828125 2.203125-5.359375 5.984375-5.78125 1.234375 5.734375 2.34375 11.421875 3.0625 17.546875-1.296875.1875-2.59375.28125-3.921875.28125-6.515625 0-12.78125-5.5-12.78125-12zm16.265625-48.734375c.8125 2.53125 1 3.78125 1 6.546875 0 6.078125-3.203125 10.90625-7.125 15.546875-.859375-3.015625-1.578125-5.921875-1.578125-9.5625 0-5.3125 2.96875-10.140625 7.703125-12.53125zm0 0"/></symbol><symbol id="ac" overflow="visible"><path d="m-3.015625-2.25c0 1.671875 1.34375 3.015625 3.015625 3.015625s3.015625-1.34375 3.015625-3.015625-1.34375-3.015625-3.015625-3.015625-3.015625 1.34375-3.015625 3.015625zm3.015625-14.96875c-7.40625 0-15.734375 8.28125-15.734375 17.3125 0 .390625.375.671875.765625.671875.328125 0 .71875-.234375.8125-.765625 1.25-7.125 7.03125-12.671875 14.15625-12.671875s12.90625 5.546875 14.15625 12.671875c.09375.53125.484375.765625.8125.765625.390625 0 .765625-.28125.765625-.671875 0-9.03125-8.265625-17.3125-15.734375-17.3125zm0 0"/></symbol><symbol id="ad" overflow="visible"><path d="m0 0h-.671875v11.953125h.671875zm0 0v11.953125c3.4375 3.59375 8.03125 8.609375 8.03125 13.59375 0 3.203125-.71875 6.3125-1.953125 9.265625-.140625.71875.421875 1.203125 1 1.203125.328125 0 .625-.1875.8125-.53125 1.25-3.15625 2.015625-6.546875 2.015625-9.9375 0-9.484375-9.90625-16.078125-9.90625-25.546875zm0 0"/></symbol><symbol id="ae" overflow="visible"><path d="m9.9375 0v-18.640625h-2.4375c-.578125 2.203125-2.5 3.328125-5.71875 3.328125v2.453125h4.484375v12.859375zm0 0"/></symbol><symbol id="af" overflow="visible"><path d="m5.625 0v-3.84375h-3.9375v3.84375zm0 0"/></symbol><g clip-path="url(#a)"><path d="m6.119792 8468.440104h9908.984375" fill="none" stroke="#000" stroke-linecap="round" stroke-miterlimit="10" stroke-width="12.2939" transform="matrix(.06 0 0 -.06 0 589.04)"/></g><g clip-path="url(#b)"><path d="m6.119792 8667.723958h9908.984375" fill="none" stroke="#000" stroke-linecap="round" stroke-miterlimit="10" stroke-width="12.2939" transform="matrix(.06 0 0 -.06 0 589.04)"/></g><g clip-path="url(#c)"><path d="m6.119792 8866.942708h9908.984375" fill="none" stroke="#000" stroke-linecap="round" stroke-miterlimit="10" stroke-width="12.2939" transform="matrix(.06 0 0 -.06 0 589.04)"/></g><g clip-path="url(#d)"><path d="m6.119792 9066.226562h9908.984375" fill="none" stroke="#000" stroke-linecap="round" stroke-miterlimit="10" stroke-width="12.2939" transform="matrix(.06 0 0 -.06 0 589.04)"/></g><g clip-path="url(#e)"><path d="m6.119792 9265.445312h9908.984375" fill="none" stroke="#000" stroke-linecap="round" stroke-miterlimit="10" stroke-width="12.2939" transform="matrix(.06 0 0 -.06 0 589.04)"/></g><g fill="none" stroke="#000" stroke-miterlimit="10" transform="matrix(.06 0 0 -.06 0 589.04)"><path d="m8356.640625 8468.440104v797.005208" stroke-width="23.3524"/><path d="m3000.065104 8468.440104v797.005208" stroke-width="23.3524"/><path d="m8758.072917 8411.34375h9.309895v651.5625h-9.309895zm0 0" stroke-linejoin="round" stroke-width="6.63512"/></g><path d="m525.484375 84.359375h.558594v-39.09375h-.558594zm0 0"/><use x="488.929978" xlink:href="#v" y="126.372075"/><use x="498.62419" xlink:href="#w" y="126.372075"/><use x="515.122568" xlink:href="#x" y="126.372075"/><use x="539.783513" xlink:href="#y" y="126.372075"/><use x="510.634021" xlink:href="#Y" y="86.908996"/><path d="m7259.830729 8510.953125h9.309896v552.018229h-9.309896zm0 0" fill="none" stroke="#000" stroke-linejoin="round" stroke-miterlimit="10" stroke-width="6.63512" transform="matrix(.06 0 0 -.06 0 589.04)"/><path d="m435.585938 78.382812h.5625v-33.121093h-.5625zm0 0"/><use x="416.976834" xlink:href="#z" y="126.372075"/><use x="423.609651" xlink:href="#A" y="126.372075"/><use x="420.736841" xlink:href="#Y" y="80.931984"/><path d="m5976.953125 8510.953125h9.309896v565.820312h-9.309896zm0 0" fill="none" stroke="#000" stroke-linejoin="round" stroke-miterlimit="10" stroke-width="6.63512" transform="matrix(.06 0 0 -.06 0 589.04)"/><path d="m358.617188 78.382812h.558593v-33.949218h-.558593zm0 0"/><use x="320.274641" xlink:href="#B" y="126.372075"/><use x="336.772785" xlink:href="#C" y="126.372075"/><use x="353.270929" xlink:href="#D" y="126.372075"/><use x="368.067975" xlink:href="#D" y="126.372075"/><use x="343.762688" xlink:href="#Y" y="80.931984"/><path d="m3769.010417 7845.523437h121.679687v6.184896h-121.679687zm0 0" fill="none" stroke="#000" stroke-linejoin="round" stroke-miterlimit="10" stroke-width="9.82316" transform="matrix(.06 0 0 -.06 0 589.04)"/><path d="m226.140625 118.308594h7.300781v-.371094h-7.300781zm0 0"/><path d="m3401.497396 9152.359375v-88.932292l3867.643229-41.731771v89.0625zm0 0" fill="none" stroke="#000" stroke-linejoin="round" stroke-miterlimit="10" stroke-width="6.63512" transform="matrix(.06 0 0 -.06 0 589.04)"/><path d="m204.089844 39.898438v5.335937l232.058594 2.503906v-5.34375zm0 0"/><use x="577.344155" xlink:href="#Z" y="33.110888"/><path d="m1782.552083 8411.34375h9.309896v651.5625h-9.309896zm0 0" fill="none" stroke="#000" stroke-linejoin="round" stroke-miterlimit="10" stroke-width="6.63512" transform="matrix(.06 0 0 -.06 0 589.04)"/><path d="m106.953125 84.359375h.558594v-39.09375h-.558594zm0 0"/><use x="50.447201" xlink:href="#ae" y="126.372075"/><use x="65.074562" xlink:href="#af" y="126.372075"/><use x="84.342569" xlink:href="#E" y="126.372075"/><use x="105.602503" xlink:href="#v" y="126.372075"/><use x="52.647105" xlink:href="#aa" y="57.020936"/><use x="9.564219" xlink:href="#ab" y="68.97616"/><use x="92.099284" xlink:href="#Y" y="86.908896"/><path d="m4684.440104 8610.627604h9.309896v480.078125h-9.309896zm0 0" fill="none" stroke="#000" stroke-linejoin="round" stroke-miterlimit="10" stroke-width="6.63512" transform="matrix(.06 0 0 -.06 0 589.04)"/><path d="m281.066406 72.402344h.558594v-28.804688h-.558594zm0 0"/><use x="246.891494" xlink:href="#D" y="126.372075"/><use x="261.68854" xlink:href="#F" y="126.372075"/><use x="278.186684" xlink:href="#G" y="126.372075"/><use x="292.983496" xlink:href="#y" y="126.372075"/><use x="266.213532" xlink:href="#Y" y="74.953972"/><use x="189.239978" xlink:href="#Y" y="74.953972"/><use x="181.398363" xlink:href="#H" y="126.372075"/><use x="196.19516" xlink:href="#C" y="126.372075"/><path d="m3401.497396 8610.627604h9.375v493.880208h-9.375zm0 0" fill="none" stroke="#000" stroke-linejoin="round" stroke-miterlimit="10" stroke-width="6.63512" transform="matrix(.06 0 0 -.06 0 589.04)"/><path d="m204.089844 72.402344h.5625v-29.632813h-.5625zm0 0"/><g clip-path="url(#f)"><path d="m6.119792 6077.424479h9908.984375" style="fill:none;stroke-width:12.2939;stroke-linecap:round;stroke-linejoin:round;stroke:#000;stroke-miterlimit:10" transform="matrix(.06 0 0 -.06 0 589.04)"/></g><g clip-path="url(#g)"><path d="m6.119792 6276.708333h9908.984375" style="fill:none;stroke-width:12.2939;stroke-linecap:round;stroke-linejoin:round;stroke:#000;stroke-miterlimit:10" transform="matrix(.06 0 0 -.06 0 589.04)"/></g><g clip-path="url(#h)"><path d="m6.119792 6475.927083h9908.984375" style="fill:none;stroke-width:12.2939;stroke-linecap:round;stroke-linejoin:round;stroke:#000;stroke-miterlimit:10" transform="matrix(.06 0 0 -.06 0 589.04)"/></g><g clip-path="url(#i)"><path d="m6.119792 6675.210937h9908.984375" style="fill:none;stroke-width:12.2939;stroke-linecap:round;stroke-linejoin:round;stroke:#000;stroke-miterlimit:10" transform="matrix(.06 0 0 -.06 0 589.04)"/></g><g clip-path="url(#j)"><path d="m6.119792 6874.429687h9908.984375" style="fill:none;stroke-width:12.2939;stroke-linecap:round;stroke-linejoin:round;stroke:#000;stroke-miterlimit:10" transform="matrix(.06 0 0 -.06 0 589.04)"/></g><g fill="none" stroke="#000" stroke-linejoin="round" stroke-miterlimit="10" transform="matrix(.06 0 0 -.06 0 589.04)"><path d="m8349.348958 6077.424479v797.005208" stroke-width="23.3524"/><path d="m2987.174479 6077.424479v797.005208" stroke-width="23.3524"/><path d="m8751.041667 6418.830729h9.375v651.497396h-9.375zm0 0" stroke-width="6.63512"/></g><path d="m525.0625 203.910156h.5625v-39.089844h-.5625zm0 0"/><use x="489.445979" xlink:href="#x" y="266.237354"/><use x="514.107158" xlink:href="#A" y="266.237354"/><use x="530.264521" xlink:href="#I" y="266.237354"/><use x="538.42872" xlink:href="#y" y="266.237354"/><use x="510.21302" xlink:href="#Y" y="206.461235"/><path d="m7256.184896 6319.221354h9.375v551.822917h-9.375zm0 0" fill="none" stroke="#000" stroke-linejoin="round" stroke-miterlimit="10" stroke-width="6.63512" transform="matrix(.06 0 0 -.06 0 589.04)"/><path d="m435.371094 209.886719h.5625v-33.109375h-.5625zm0 0"/><use x="411.828824" xlink:href="#B" y="266.237354"/><use x="428.326968" xlink:href="#J" y="266.237354"/><use x="420.521841" xlink:href="#Y" y="212.438247"/><path d="m5967.122396 6319.221354h9.309896v537.955729h-9.309896zm0 0" fill="none" stroke="#000" stroke-linejoin="round" stroke-miterlimit="10" stroke-width="6.63512" transform="matrix(.06 0 0 -.06 0 589.04)"/><path d="m358.027344 209.886719h.558594v-32.277344h-.558594zm0 0"/><use x="334.482669" xlink:href="#K" y="266.237354"/><use x="350.980813" xlink:href="#L" y="266.237354"/><use x="343.174686" xlink:href="#Y" y="212.438247"/><path d="m6433.398437 5514.46875h121.679688v6.119792h-121.679688zm0 0" fill="none" stroke="#000" stroke-linejoin="round" stroke-miterlimit="10" stroke-width="9.82316" transform="matrix(.06 0 0 -.06 0 589.04)"/><path d="m386.003906 258.171875h7.300782v-.367187h-7.300782zm0 0"/><path d="m7724.739583 5514.46875h121.679688v6.119792h-121.679688zm0 0" fill="none" stroke="#000" stroke-linejoin="round" stroke-miterlimit="10" stroke-width="9.82316" transform="matrix(.06 0 0 -.06 0 589.04)"/><path d="m463.484375 258.171875h7.300781v-.367187h-7.300781zm0 0"/><path d="m3388.867187 6877.229167v-88.997396l3876.692709 41.666666v89.0625zm0 0" fill="none" stroke="#000" stroke-linejoin="round" stroke-miterlimit="10" stroke-width="6.63512" transform="matrix(.06 0 0 -.06 0 589.04)"/><path d="m203.332031 176.40625v5.339844l232.601563-2.5v-5.34375zm0 0"/><use x="577.344155" xlink:href="#Z" y="176.573175"/><use x="52.647105" xlink:href="#aa" y="200.483423"/><path d="m1762.630208 6020.328125h9.309896v651.5625h-9.309896zm0 0" fill="none" stroke="#000" stroke-linejoin="round" stroke-miterlimit="10" stroke-width="6.63512" transform="matrix(.06 0 0 -.06 0 589.04)"/><path d="m105.757812 227.820312h.558594v-39.089843h-.558594zm0 0"/><use x="72.347945" xlink:href="#H" y="266.237354"/><use x="87.144983" xlink:href="#J" y="266.237354"/><use x="103.643113" xlink:href="#M" y="266.237354"/><use x="110.27593" xlink:href="#M" y="266.237354"/><use x="116.908514" xlink:href="#y" y="266.237354"/><use x="90.903682" xlink:href="#Y" y="230.371283"/><use x="9.564119" xlink:href="#ab" y="212.438547"/><path d="m4677.994792 6219.546875h9.309895v623.828125h-9.309895zm0 0" fill="none" stroke="#000" stroke-linejoin="round" stroke-miterlimit="10" stroke-width="6.63512" transform="matrix(.06 0 0 -.06 0 589.04)"/><path d="m280.679688 215.867188h.558593v-37.429688h-.558593zm0 0"/><use x="262.067524" xlink:href="#z" y="266.237354"/><use x="268.700342" xlink:href="#A" y="266.237354"/><use x="265.827532" xlink:href="#Y" y="218.416259"/><use x="188.481077" xlink:href="#Y" y="218.416259"/><use x="160.05932" xlink:href="#x" y="266.237354"/><use x="184.7205" xlink:href="#N" y="266.237354"/><use x="201.218629" xlink:href="#G" y="266.237354"/><use x="216.015426" xlink:href="#O" y="266.237354"/><path d="m3388.867187 6219.546875h9.309896v609.960937h-9.309896zm0 0" fill="none" stroke="#000" stroke-linejoin="round" stroke-miterlimit="10" stroke-width="6.63512" transform="matrix(.06 0 0 -.06 0 589.04)"/><path d="m203.332031 215.867188h.558594v-36.597657h-.558594zm0 0"/><path d="m2613.216146 3686.408854v797.005208" fill="none" stroke="#000" stroke-linejoin="round" stroke-miterlimit="10" stroke-width="23.3524" transform="matrix(.06 0 0 -.06 0 589.04)"/><path d="m6819.661458 3686.408854v797.005208" fill="none" stroke="#000" stroke-linejoin="round" stroke-miterlimit="10" stroke-width="23.3524" transform="matrix(.06 0 0 -.06 0 589.04)"/><g clip-path="url(#k)"><path d="m6.119792 3686.408854h9908.984375" style="fill:none;stroke-width:12.2939;stroke-linecap:round;stroke-linejoin:round;stroke:#000;stroke-miterlimit:10" transform="matrix(.06 0 0 -.06 0 589.04)"/></g><g clip-path="url(#l)"><path d="m6.119792 3885.627604h9908.984375" style="fill:none;stroke-width:12.2939;stroke-linecap:round;stroke-linejoin:round;stroke:#000;stroke-miterlimit:10" transform="matrix(.06 0 0 -.06 0 589.04)"/></g><g clip-path="url(#m)"><path d="m6.119792 4084.911458h9908.984375" style="fill:none;stroke-width:12.2939;stroke-linecap:round;stroke-linejoin:round;stroke:#000;stroke-miterlimit:10" transform="matrix(.06 0 0 -.06 0 589.04)"/></g><g clip-path="url(#n)"><path d="m6.119792 4284.130208h9908.984375" style="fill:none;stroke-width:12.2939;stroke-linecap:round;stroke-linejoin:round;stroke:#000;stroke-miterlimit:10" transform="matrix(.06 0 0 -.06 0 589.04)"/></g><g clip-path="url(#o)"><path d="m6.119792 4483.414062h9908.984375" style="fill:none;stroke-width:12.2939;stroke-linecap:round;stroke-linejoin:round;stroke:#000;stroke-miterlimit:10" transform="matrix(.06 0 0 -.06 0 589.04)"/></g><use x="471.679943" xlink:href="#P" y="409.699641"/><use x="485.796597" xlink:href="#J" y="409.699641"/><use x="479.181958" xlink:href="#Y" y="349.923522"/><path d="m8233.854167 4027.815104h9.375v472.526042h-9.375zm0 0" style="fill:none;stroke-width:6.63512;stroke-linecap:round;stroke-linejoin:round;stroke:#000;stroke-miterlimit:10" transform="matrix(.06 0 0 -.06 0 589.04)"/><path d="m494.03125 347.371094h.5625v-28.351563h-.5625zm0 0"/><path d="m7207.8125 4027.815104h9.309896v493.815104h-9.309896zm0 0" style="fill:none;stroke-width:6.63512;stroke-linecap:round;stroke-linejoin:round;stroke:#000;stroke-miterlimit:10" transform="matrix(.06 0 0 -.06 0 589.04)"/><path d="m432.46875 347.371094h.558594v-29.625h-.558594zm0 0"/><use x="398.296797" xlink:href="#O" y="409.699641"/><use x="414.794941" xlink:href="#C" y="409.699641"/><use x="431.293085" xlink:href="#z" y="409.699641"/><use x="437.756215" xlink:href="#Q" y="409.699641"/><use x="417.618835" xlink:href="#Y" y="349.923522"/><path d="m5871.354167 3490.575521h9.375v551.822917h-9.375zm0 0" style="fill:none;stroke-width:6.63512;stroke-linecap:round;stroke-linejoin:round;stroke:#000;stroke-miterlimit:10" transform="matrix(.06 0 0 -.06 0 589.04)"/><path d="m352.28125 379.605469h.5625v-33.109375h-.5625zm0 0"/><use x="344.581689" xlink:href="#R" y="409.699641"/><use x="358.698343" xlink:href="#A" y="409.699641"/><use x="352.083704" xlink:href="#Y" y="343.94551"/><path d="m3359.244792 3123.453125h121.679687v6.119792h-121.679687zm0 0" style="fill:none;stroke-width:9.82316;stroke-linecap:round;stroke-linejoin:round;stroke:#000;stroke-miterlimit:10" transform="matrix(.06 0 0 -.06 0 589.04)"/><path d="m201.554688 401.632812h7.300781v-.367187h-7.300781zm0 0"/><path d="m5522.786458 3123.453125h121.679688v6.119792h-121.679688zm0 0" style="fill:none;stroke-width:9.82316;stroke-linecap:round;stroke-linejoin:round;stroke:#000;stroke-miterlimit:10" transform="matrix(.06 0 0 -.06 0 589.04)"/><path d="m331.367188 401.632812h7.300781v-.367187h-7.300781zm0 0"/><path d="m6384.960937 3123.453125h121.679688v6.119792h-121.679688zm0 0" style="fill:none;stroke-width:9.82316;stroke-linecap:round;stroke-linejoin:round;stroke:#000;stroke-miterlimit:10" transform="matrix(.06 0 0 -.06 0 589.04)"/><path d="m383.097656 401.632812h7.300782v-.367187h-7.300782zm0 0"/><path d="m7207.877604 4569.611979v-88.997396l2004.6875-41.731771v88.997396zm0 0" fill="none" stroke="#000" stroke-linejoin="round" stroke-miterlimit="10" stroke-width="6.63512" transform="matrix(.06 0 0 -.06 0 589.04)"/><path d="m432.472656 314.863281v5.339844l120.28125 2.503906v-5.339843zm0 0"/><path d="m2777.213542 3573.322917v-88.997396l3103.515625-41.666667v88.997396zm0 0" fill="none" stroke="#000" stroke-linejoin="round" stroke-miterlimit="10" stroke-width="6.63512" transform="matrix(.06 0 0 -.06 0 589.04)"/><path d="m166.632812 374.640625v5.339844l186.210938 2.5v-5.339844zm0 0"/><path d="m8470.117187 3123.453125h121.679688v6.119792h-121.679688zm0 0" fill="none" stroke="#000" stroke-linejoin="round" stroke-miterlimit="10" stroke-width="9.82316" transform="matrix(.06 0 0 -.06 0 589.04)"/><path d="m508.207031 401.632812h7.300781v-.367187h-7.300781zm0 0"/><use x="577.344155" xlink:href="#Z" y="320.035462"/><path d="m9203.255208 3928.140625h9.309896v552.083333h-9.309896zm0 0" fill="none" stroke="#000" stroke-linejoin="round" stroke-miterlimit="10" stroke-width="6.63512" transform="matrix(.06 0 0 -.06 0 589.04)"/><path d="m552.195312 353.351562h.558594v-33.125h-.558594zm0 0"/><use x="521.423043" xlink:href="#I" y="409.699641"/><use x="529.416148" xlink:href="#J" y="409.699641"/><use x="545.914527" xlink:href="#D" y="409.699641"/><use x="560.711339" xlink:href="#S" y="409.699641"/><use x="537.344075" xlink:href="#Y" y="355.900534"/><path d="m2777.213542 3532.046875h9.309895v609.960937h-9.309895zm0 0" fill="none" stroke="#000" stroke-linejoin="round" stroke-miterlimit="10" stroke-width="6.63512" transform="matrix(.06 0 0 -.06 0 589.04)"/><path d="m166.628906 377.117188h.5625v-36.597657h-.5625zm0 0"/><use x="166.433333" xlink:href="#Y" y="337.968498"/><path d="m1762.630208 4027.815104h9.309896v651.497396h-9.309896zm0 0" fill="none" stroke="#000" stroke-linejoin="round" stroke-miterlimit="10" stroke-width="6.63512" transform="matrix(.06 0 0 -.06 0 589.04)"/><path d="m105.757812 347.371094h.558594v-39.089844h-.558594zm0 0"/><use x="73.198046" xlink:href="#T" y="409.699641"/><use x="92.927741" xlink:href="#N" y="409.699641"/><use x="109.42587" xlink:href="#P" y="409.699641"/><use x="90.903682" xlink:href="#Y" y="349.923522"/><use x="158.676317" xlink:href="#U" y="409.699641"/><use x="166.669686" xlink:href="#J" y="409.699641"/><use x="183.167816" xlink:href="#z" y="409.699641"/><use x="52.647105" xlink:href="#aa" y="343.94551"/><use x="9.564219" xlink:href="#ab" y="355.900534"/><path d="m4775.911458 3505.223958h9.309896v537.17448h-9.309896zm0 0" fill="none" stroke="#000" stroke-linejoin="round" stroke-miterlimit="10" stroke-width="6.63512" transform="matrix(.06 0 0 -.06 0 589.04)"/><path d="m286.554688 378.726562h.558593v-32.230468h-.558593zm0 0"/><use x="262.864526" xlink:href="#G" y="409.699641"/><use x="277.661572" xlink:href="#D" y="409.699641"/><use x="292.458383" xlink:href="#A" y="409.699641"/><use x="308.956528" xlink:href="#B" y="409.699641"/><use x="286.354573" xlink:href="#Y" y="343.94551"/><path d="m3742.773437 3519.091146h9.309896v622.916666h-9.309896zm0 0" fill="none" stroke="#000" stroke-linejoin="round" stroke-miterlimit="10" stroke-width="6.63512" transform="matrix(.06 0 0 -.06 0 589.04)"/><path d="m224.5625 377.894531h.5625v-37.375h-.5625zm0 0"/><use x="220.605441" xlink:href="#O" y="409.699641"/><use x="237.103571" xlink:href="#V" y="409.699641"/><use x="224.365449" xlink:href="#Y" y="337.968498"/><g clip-path="url(#p)"><path d="m6.119792 1295.328125h9908.984375" style="fill:none;stroke-width:12.2939;stroke-linecap:round;stroke-linejoin:round;stroke:#000;stroke-miterlimit:10" transform="matrix(.06 0 0 -.06 0 589.04)"/></g><g clip-path="url(#q)"><path d="m6.119792 1494.611979h9908.984375" style="fill:none;stroke-width:12.2939;stroke-linecap:round;stroke-linejoin:round;stroke:#000;stroke-miterlimit:10" transform="matrix(.06 0 0 -.06 0 589.04)"/></g><g clip-path="url(#r)"><path d="m6.119792 1693.830729h9908.984375" style="fill:none;stroke-width:12.2939;stroke-linecap:round;stroke-linejoin:round;stroke:#000;stroke-miterlimit:10" transform="matrix(.06 0 0 -.06 0 589.04)"/></g><g clip-path="url(#s)"><path d="m6.119792 1893.114583h9908.984375" style="fill:none;stroke-width:12.2939;stroke-linecap:round;stroke-linejoin:round;stroke:#000;stroke-miterlimit:10" transform="matrix(.06 0 0 -.06 0 589.04)"/></g><g clip-path="url(#t)"><path d="m6.119792 2092.398438h9908.984375" style="fill:none;stroke-width:12.2939;stroke-linecap:round;stroke-linejoin:round;stroke:#000;stroke-miterlimit:10" transform="matrix(.06 0 0 -.06 0 589.04)"/></g><path d="m2798.958333 1295.328125v797.070313" fill="none" stroke="#000" stroke-linejoin="round" stroke-miterlimit="10" stroke-width="23.3524" transform="matrix(.06 0 0 -.06 0 589.04)"/><g clip-path="url(#u)"><path d="m9884.375 1295.328125v797.070313" fill="none" stroke="#000" stroke-linejoin="round" stroke-miterlimit="10" stroke-width="73.7235" transform="matrix(.06 0 0 -.06 0 589.04)"/></g><g fill="none" stroke="#000" stroke-linejoin="round" stroke-miterlimit="10" transform="matrix(.06 0 0 -.06 0 589.04)"><path d="m9799.023437 1295.328125v797.070313" stroke-width="23.3524"/><path d="m8102.734375 1295.328125v797.070313" stroke-width="23.3524"/><path d="m8593.489583 1238.231771h9.309896v651.5625h-9.309896zm0 0" stroke-width="6.63512"/></g><path d="m515.605469 514.746094h.5625v-39.09375h-.5625zm0 0"/><use x="479.98896" xlink:href="#x" y="553.281128"/><use x="504.65014" xlink:href="#A" y="553.281128"/><use x="520.807502" xlink:href="#I" y="553.281128"/><use x="528.971701" xlink:href="#W" y="553.281128"/><use x="508.562017" xlink:href="#ac" y="459.973742"/><use x="500.756372" xlink:href="#Y" y="517.296357"/><path d="m7016.601562 1337.90625h9.309896v593.815104h-9.309896zm0 0" fill="none" stroke="#000" stroke-linejoin="round" stroke-miterlimit="10" stroke-width="6.63512" transform="matrix(.06 0 0 -.06 0 589.04)"/><path d="m420.996094 508.765625h.558594v-35.628906h-.558594zm0 0"/><use x="397.450795" xlink:href="#X" y="553.281128"/><use x="413.948939" xlink:href="#A" y="553.281128"/><use x="406.142812" xlink:href="#Y" y="511.318545"/><path d="m5744.335937 1337.90625h9.375v632.291667h-9.375zm0 0" fill="none" stroke="#000" stroke-linejoin="round" stroke-miterlimit="10" stroke-width="6.63512" transform="matrix(.06 0 0 -.06 0 589.04)"/><path d="m344.660156 508.765625h.5625v-37.9375h-.5625zm0 0"/><use x="321.118642" xlink:href="#A" y="553.281128"/><use x="337.616787" xlink:href="#B" y="553.281128"/><use x="329.81066" xlink:href="#Y" y="511.318545"/><path d="m6202.213542 730.419271h121.679687v6.119791h-121.679687zm0 0" fill="none" stroke="#000" stroke-linejoin="round" stroke-miterlimit="10" stroke-width="9.82316" transform="matrix(.06 0 0 -.06 0 589.04)"/><path d="m372.132812 545.214844h7.300782v-.367188h-7.300782zm0 0"/><path d="m7526.106771 730.419271h121.679687v6.119791h-121.679687zm0 0" fill="none" stroke="#000" stroke-linejoin="round" stroke-miterlimit="10" stroke-width="9.82316" transform="matrix(.06 0 0 -.06 0 589.04)"/><path d="m451.566406 545.214844h7.300782v-.367188h-7.300782zm0 0"/><path d="m3199.934896 2095.197917v-88.997396l3825.976562-115.885417v88.997396zm0 0" fill="none" stroke="#000" stroke-linejoin="round" stroke-miterlimit="10" stroke-width="6.63512" transform="matrix(.06 0 0 -.06 0 589.04)"/><path d="m191.996094 463.328125v5.339844l229.558594 6.953125v-5.339844zm0 0"/><use x="106.516213" xlink:href="#ad" y="451.741725"/><path d="m1762.630208 1636.734375h9.309896v651.5625h-9.309896zm0 0" fill="none" stroke="#000" stroke-linejoin="round" stroke-miterlimit="10" stroke-width="6.63512" transform="matrix(.06 0 0 -.06 0 589.04)"/><path d="m105.757812 490.835938h.558594v-39.09375h-.558594zm0 0"/><use x="72.347945" xlink:href="#H" y="553.281128"/><use x="87.144983" xlink:href="#J" y="553.281128"/><use x="103.643113" xlink:href="#M" y="553.281128"/><use x="110.27593" xlink:href="#M" y="553.281128"/><use x="116.908514" xlink:href="#y" y="553.281128"/><use x="90.903682" xlink:href="#Y" y="493.385709"/><use x="52.647005" xlink:href="#aa" y="487.407967"/><use x="9.564119" xlink:href="#ab" y="499.363191"/><path d="m4472.135417 1437.515625h9.375v571.158854h-9.375zm0 0" fill="none" stroke="#000" stroke-linejoin="round" stroke-miterlimit="10" stroke-width="6.63512" transform="matrix(.06 0 0 -.06 0 589.04)"/><path d="m268.328125 502.789062h.558594v-34.269531h-.558594zm0 0"/><use x="245.805492" xlink:href="#U" y="553.281128"/><use x="253.62894" xlink:href="#A" y="553.281128"/><use x="270.127084" xlink:href="#z" y="553.281128"/><use x="253.477507" xlink:href="#Y" y="505.340733"/><use x="177.144954" xlink:href="#Y" y="499.363221"/><use x="161.819324" xlink:href="#N" y="553.281128"/><use x="178.317453" xlink:href="#z" y="553.281128"/><use x="184.950037" xlink:href="#O" y="553.281128"/><use x="201.448166" xlink:href="#M" y="553.281128"/><path d="m3199.934896 1537.125h9.375v510.026042h-9.375zm0 0" fill="none" stroke="#000" stroke-linejoin="round" stroke-miterlimit="10" stroke-width="6.63512" transform="matrix(.06 0 0 -.06 0 589.04)"/><path d="m191.996094 496.8125h.5625v-30.601562h-.5625zm0 0"/></svg>