<svg height="648.98em" viewBox="0 0 595.28 648.98" width="595.28em" xmlns="http://www.w3.org/2000/svg" xmlns:xlink="http://www.w3.org/1999/xlink"><clipPath id="a"><path d="m0 61h595.28125v1h-595.28125zm0 0"/></clipPath><clipPath id="b"><path d="m0 52h595.28125v1h-595.28125zm0 0"/></clipPath><clipPath id="c"><path d="m0 43h595.28125v2h-595.28125zm0 0"/></clipPath><clipPath id="d"><path d="m0 34h595.28125v2h-595.28125zm0 0"/></clipPath><clipPath id="e"><path d="m0 26h595.28125v1h-595.28125zm0 0"/></clipPath><clipPath id="f"><path d="m594 25h1.28125v37h-1.28125zm0 0"/></clipPath><clipPath id="g"><path d="m0 165h595.28125v2h-595.28125zm0 0"/></clipPath><clipPath id="h"><path d="m0 156h595.28125v2h-595.28125zm0 0"/></clipPath><clipPath id="i"><path d="m0 148h595.28125v1h-595.28125zm0 0"/></clipPath><clipPath id="j"><path d="m0 139h595.28125v2h-595.28125zm0 0"/></clipPath><clipPath id="k"><path d="m0 130h595.28125v2h-595.28125zm0 0"/></clipPath><clipPath id="l"><path d="m594 130h1.28125v37h-1.28125zm0 0"/></clipPath><clipPath id="m"><path d="m0 270h595.28125v1h-595.28125zm0 0"/></clipPath><clipPath id="n"><path d="m0 261h595.28125v2h-595.28125zm0 0"/></clipPath><clipPath id="o"><path d="m0 252h595.28125v2h-595.28125zm0 0"/></clipPath><clipPath id="p"><path d="m0 244h595.28125v1h-595.28125zm0 0"/></clipPath><clipPath id="q"><path d="m0 235h595.28125v2h-595.28125zm0 0"/></clipPath><clipPath id="r"><path d="m594 235h1.28125v37h-1.28125zm0 0"/></clipPath><clipPath id="s"><path d="m0 374h595.28125v2h-595.28125zm0 0"/></clipPath><clipPath id="t"><path d="m0 366h595.28125v1h-595.28125zm0 0"/></clipPath><clipPath id="u"><path d="m0 357h595.28125v2h-595.28125zm0 0"/></clipPath><clipPath id="v"><path d="m0 348h595.28125v2h-595.28125zm0 0"/></clipPath><clipPath id="w"><path d="m0 339h595.28125v2h-595.28125zm0 0"/></clipPath><clipPath id="x"><path d="m594 339h1.28125v37h-1.28125zm0 0"/></clipPath><clipPath id="y"><path d="m0 479h595.28125v2h-595.28125zm0 0"/></clipPath><clipPath id="z"><path d="m0 470h595.28125v2h-595.28125zm0 0"/></clipPath><clipPath id="A"><path d="m0 462h595.28125v1h-595.28125zm0 0"/></clipPath><clipPath id="B"><path d="m0 453h595.28125v1h-595.28125zm0 0"/></clipPath><clipPath id="C"><path d="m0 444h595.28125v2h-595.28125zm0 0"/></clipPath><clipPath id="D"><path d="m594 444h1.28125v37h-1.28125zm0 0"/></clipPath><clipPath id="E"><path d="m0 584h595.28125v1h-595.28125zm0 0"/></clipPath><clipPath id="F"><path d="m0 575h595.28125v1h-595.28125zm0 0"/></clipPath><clipPath id="G"><path d="m0 566h595.28125v2h-595.28125zm0 0"/></clipPath><clipPath id="H"><path d="m0 557h595.28125v2h-595.28125zm0 0"/></clipPath><clipPath id="I"><path d="m0 549h595.28125v1h-595.28125zm0 0"/></clipPath><clipPath id="J"><path d="m591 547h4.28125v40h-4.28125zm0 0"/></clipPath><symbol id="K" overflow="visible"><path d="m7.75-4.703125c-1.46875 0-2.875.484375-4.125 1.25-1.640625.984375-3.625 2.6875-3.625 5.15625 0 2.0625 1.8125 3 3.65625 3 1.46875 0 2.859375-.484375 4.125-1.25 1.640625-.984375 3.59375-2.6875 3.59375-5.15625 0-2.0625-1.78125-3-3.625-3zm0 0"/></symbol><symbol id="L" overflow="visible"><path d="m13.046875-9.0625c-.5625-2.453125-1.21875-4.859375-1.921875-7.265625 3.34375-3.796875 6.375-7.703125 6.375-12.71875 0-3.9375-2.15625-9.59375-4.59375-12.53125-.171875-.125-.390625-.125-.5625 0-3.3125 2.40625-5.234375 6.25-5.234375 10.296875 0 1.8125.046875 3.59375.25 5.375.25 2.265625.84375 4.453125 1.46875 6.65625-4.125 4.671875-8.765625 9.140625-8.765625 15.34375 0 7.015625 5.0625 12.96875 11.625 12.96875 1.078125 0 2.09375-.09375 3.09375-.28125.109375 1.125.1875 2.234375.1875 3.359375 0 .625-.046875 1.21875-.078125 1.84375-.203125 3.453125-2.328125 6.625-5.578125 6.703125-.03125 0-.078125.03125-.109375.03125-1.78125 0-3.3125-1.015625-4.21875-2.4375.390625.171875.8125.3125 1.21875.3125 1.8125 0 3.3125-1.5 3.3125-3.3125 0-1.953125-1.421875-3.640625-3.3125-3.640625-2.046875 0-3.90625 1.609375-3.90625 3.640625 0 3.765625 3.03125 6.796875 6.8125 6.796875 4.109375 0 6.9375-3.703125 7.171875-7.890625.046875-.65625.046875-1.28125.046875-1.953125 0-1.25-.078125-2.5-.1875-3.765625.90625-.265625 1.78125-.6875 2.546875-1.28125 2.59375-1.921875 3.734375-4.609375 3.734375-7.25 0-4.609375-3.484375-9.046875-8.859375-9.046875-.171875 0-.34375.046875-.515625.046875zm2.953125 16.21875c-.484375-4.328125-1.28125-8.453125-2.15625-12.53125 3.84375.3125 6.25 3.53125 6.25 6.734375 0 2.4375-1.6875 4.953125-4.09375 5.796875zm-13.53125-8.234375c0-5.578125 3.78125-9.796875 7.546875-14.015625.546875 2.046875 1.109375 4.109375 1.59375 6.203125-3.515625.796875-5.5 3.765625-5.5 6.828125 0 2.453125 1.25 4.921875 4.046875 6.421875.09375.03125.203125.0625.3125.0625.375 0 .6875-.34375.6875-.71875 0-.1875-.09375-.359375-.234375-.5-1.953125-1.109375-2.859375-2.78125-2.859375-4.3125 0-2.0625 1.59375-3.90625 4.359375-4.21875.90625 4.171875 1.703125 8.328125 2.21875 12.796875-.9375.140625-1.875.203125-2.859375.203125-4.734375 0-9.3125-4.015625-9.3125-8.75zm11.859375-35.546875c.59375 1.859375.734375 2.765625.734375 4.78125 0 4.4375-2.328125 7.953125-5.1875 11.34375-.640625-2.203125-1.15625-4.328125-1.15625-6.984375 0-3.875 2.15625-7.390625 5.609375-9.140625zm0 0"/></symbol><symbol id="M" overflow="visible"><path d="m.875-1.53125c.03125-1.15625.796875-2.171875 1.875-2.171875 1.046875 0 1.546875 1.234375 1.546875 2.40625 0 2.0625-1.75 3.53125-3.359375 4.859375-.0625-.765625-.140625-1.546875-.140625-2.3125 0-.140625.046875-.234375.046875-.375zm-1.75-14.609375.390625 20.890625c0 .40625.3125.71875.734375.71875.625 0 .90625-.71875 1.390625-1.109375 2.203125-1.78125 5.328125-3.03125 5.328125-5.890625 0-1.890625-1.390625-3.484375-3.234375-3.484375-1.125 0-2.171875.375-3.078125 1.046875l.21875-12.171875c-.28125-.140625-.5625-.25-.875-.25s-.59375.109375-.875.25zm0 0"/></symbol><symbol id="N" overflow="visible"><path d="m0 0h-.484375v8.71875h.484375zm0 0v8.71875c2.515625 2.609375 5.859375 6.28125 5.859375 9.90625 0 2.328125-.53125 4.609375-1.4375 6.765625-.09375.515625.328125.875.734375.875.25 0 .453125-.140625.59375-.390625.90625-2.296875 1.46875-4.78125 1.46875-7.25 0-6.90625-7.21875-11.71875-7.21875-18.625zm0 0"/></symbol><symbol id="O" overflow="visible"><path d="m0 0c0 1.109375.875 1.984375 1.984375 1.984375 1.125 0 1.984375-.875 1.984375-1.984375s-.859375-1.984375-1.984375-1.984375c-1.109375 0-1.984375.875-1.984375 1.984375zm0 0"/></symbol><symbol id="P" overflow="visible"><path d="m-.796875 3.9375c0 1.890625 1.640625 5.203125 3.234375 7.125.21875.234375.5625-.078125.359375-.328125-.59375-.71875-.984375-2.125-.984375-3.34375 0-1.421875.421875-2.4375 1.8125-2.4375 1.25 0 2.890625.734375 3.5625 1.5.09375.140625.234375.171875.34375.171875.25 0 .484375-.25.484375-.484375 0-.109375-.03125-.171875-.09375-.28125l-3.046875-3.625c-.546875-.703125-.828125-1.5-.828125-2.34375 0-1.078125.453125-2.1875 1.359375-2.953125 1.296875-1.125 3-2.203125 3-3.359375 0-.28125-.109375-.59375-.34375-.859375l-5.3125-6.359375c-.09375-.140625-.234375-.171875-.34375-.171875-.25 0-.484375.25-.484375.484375 0 .109375.03125.21875.09375.3125l1.375 1.609375c.546875.703125.828125 1.5.828125 2.34375 0 1.078125-.453125 2.1875-1.359375 2.953125-1.296875 1.125-3 2.203125-3 3.359375 0 .28125.109375.59375.34375.859375l4.78125 5.734375c-1.5625-.78125-3.34375-1.296875-4.53125-1.296875-.90625 0-1.25.484375-1.25 1.390625zm0 0"/></symbol><symbol id="Q" overflow="visible"><path d="m11.015625-2.34375c0 .359375-.09375.734375-.34375 1.015625-.734375.875-2.40625 1.953125-3.734375 2.796875-1.328125.828125-3 1.953125-4.078125 2.265625-.140625.03125-.3125.0625-.453125.0625-.765625 0-1.46875-.59375-1.46875-1.453125 0-.359375.109375-.734375.359375-1.015625.71875-.875 2.40625-1.953125 3.71875-2.796875 1.328125-.828125 3-1.953125 4.09375-2.265625.125-.03125.3125-.0625.453125-.0625.765625 0 1.453125.59375 1.453125 1.453125zm-1.78125-2.359375c-2.609375 0-4.734375.546875-6.578125 1.8125-1.125.765625-1.859375 1.953125-2.265625 3.234375-.21875.625-.390625 1.328125-.390625 2 0 1.625 1.1875 2.359375 2.71875 2.359375 2.609375 0 4.75-.546875 6.59375-1.8125 1.109375-.765625 1.84375-1.953125 2.265625-3.234375.203125-.625.390625-1.328125.390625-2 0-1.625-1.1875-2.359375-2.734375-2.359375zm0 0"/></symbol><symbol id="R" overflow="visible"><path d="m-.25-13.078125.25 20.046875c0 .3125.28125.59375.59375.59375.03125 0 .03125-.03125.0625-.03125l3.8125-.625-.078125 6.171875c.25.140625.5625.203125.84375.203125s.59375-.0625.828125-.203125l-.234375-20.046875c0-.3125-.28125-.59375-.59375-.59375-.03125 0-.078125.03125-.109375.03125l-3.796875.625.0625-6.171875c-.234375-.140625-.515625-.203125-.796875-.203125s-.59375.0625-.84375.203125zm4.859375 9.109375-.078125 7.421875-3.34375.515625.109375-7.421875zm0 0"/></symbol><symbol id="S" overflow="visible"><path d="m-2.203125-1.640625c0 1.21875.984375 2.203125 2.203125 2.203125s2.203125-.984375 2.203125-2.203125-.984375-2.203125-2.203125-2.203125-2.203125.984375-2.203125 2.203125zm2.203125-10.921875c-5.40625 0-11.46875 6.046875-11.46875 12.625 0 .28125.28125.5.546875.5.25 0 .53125-.171875.59375-.5625.90625-5.203125 5.125-9.234375 10.328125-9.234375s9.421875 4.03125 10.328125 9.234375c.0625.390625.34375.5625.59375.5625.265625 0 .546875-.21875.546875-.5 0-6.578125-6.03125-12.625-11.46875-12.625zm0 0"/></symbol><symbol id="T" overflow="visible"><path d="m10.8125 0-4.609375-7.390625 3.921875-3.890625h-2.3125l-4.78125 4.78125v-9.203125h-1.78125v15.703125h1.78125v-4.390625l1.75-1.71875 3.8125 6.109375zm0 0"/></symbol><symbol id="U" overflow="visible"><path d="m10.375 0v-11.28125h-1.78125v6.21875c0 2.3125-1.203125 3.8125-3.078125 3.8125-1.421875 0-2.328125-.859375-2.328125-2.21875v-7.8125h-1.78125v8.53125c0 1.875 1.390625 3.078125 3.59375 3.078125 1.65625 0 2.703125-.59375 3.765625-2.078125v1.75zm-5.171875-13v-2.203125h-1.953125v2.203125zm3.5 0v-2.203125h-1.96875v2.203125zm0 0"/></symbol><symbol id="V" overflow="visible"><path d="m3.25 0v-15.703125h-1.78125v15.703125zm0 0"/></symbol><symbol id="W" overflow="visible"><path d="m10.65625 0v-15.703125h-1.78125v5.84375c-.75-1.140625-1.96875-1.75-3.46875-1.75-2.9375 0-4.84375 2.265625-4.84375 5.859375 0 3.8125 1.875 6.078125 4.90625 6.078125 1.546875 0 2.625-.59375 3.59375-1.984375v1.65625zm-1.78125-5.59375c0 2.59375-1.25 4.234375-3.140625 4.234375-1.984375 0-3.296875-1.65625-3.296875-4.28125s1.3125-4.28125 3.265625-4.28125c1.9375 0 3.171875 1.71875 3.171875 4.328125zm0 0"/></symbol><symbol id="X" overflow="visible"><path d="m11.046875-5.125c0-1.640625-.125-2.671875-.453125-3.515625-.734375-1.84375-2.453125-2.96875-4.5625-2.96875-3.140625 0-5.171875 2.328125-5.171875 6.03125s1.96875 5.90625 5.125 5.90625c2.578125 0 4.375-1.46875 4.828125-3.75h-1.8125c-.5 1.484375-1.5 2.09375-2.953125 2.09375-1.875 0-3.265625-1.21875-3.3125-3.796875zm-1.921875-1.59375s0 .09375-.015625.125h-6.328125c.140625-2 1.421875-3.359375 3.21875-3.359375 1.765625 0 3.125 1.46875 3.125 3.234375zm0 0"/></symbol><symbol id="Y" overflow="visible"><path d="m11.265625-5.765625c0-3.671875-1.859375-5.84375-4.828125-5.84375-1.546875 0-2.640625.578125-3.484375 1.859375v-5.953125h-1.796875v15.703125h1.625v-1.609375c.859375 1.3125 2 1.9375 3.578125 1.9375 2.96875 0 4.90625-2.4375 4.90625-6.09375zm-1.875.109375c0 2.5625-1.34375 4.296875-3.296875 4.296875-1.890625 0-3.140625-1.71875-3.140625-4.28125 0-2.65625 1.25-4.375 3.140625-4.28125 2 0 3.296875 1.734375 3.296875 4.265625zm0 0"/></symbol><symbol id="Z" overflow="visible"><path d="m9.890625-3.171875c0-1.671875-.953125-2.515625-3.1875-3.046875l-1.734375-.40625c-1.453125-.34375-2.078125-.828125-2.078125-1.625 0-1.03125.921875-1.703125 2.390625-1.703125 1.4375 0 2.21875.625 2.25 1.8125h1.90625c-.03125-2.21875-1.5-3.46875-4.09375-3.46875-2.625 0-4.328125 1.359375-4.328125 3.453125 0 1.765625.90625 2.59375 3.578125 3.25l1.671875.40625c1.25.296875 1.75.671875 1.75 1.484375 0 1.0625-1.0625 1.6875-2.625 1.6875-1.625 0-2.53125-.390625-2.765625-2.109375h-1.890625c.078125 2.59375 1.546875 3.765625 4.5 3.765625 2.84375 0 4.65625-1.3125 4.65625-3.5zm0 0"/></symbol><symbol id="aa" overflow="visible"><path d="m4.140625.34375v-2.578125h-2.265625v2.234375h1.296875v.390625c0 1.484375-.28125 1.90625-1.296875 1.953125v.828125c1.5 0 2.265625-.96875 2.265625-2.828125zm0 0"/></symbol><symbol id="ab" overflow="visible"><path d="m5.46875 0v-1.5c-.234375.0625-.515625.078125-.859375.078125-.78125 0-.984375-.21875-.984375-1.015625v-7.375h1.84375v-1.46875h-1.84375v-3.109375h-1.796875v3.109375h-1.53125v1.46875h1.53125v8.171875c0 1.140625.78125 1.796875 2.171875 1.796875.4375 0 .859375-.046875 1.46875-.15625zm0 0"/></symbol><symbol id="ac" overflow="visible"><path d="m11.046875-5.125c0-1.640625-.125-2.671875-.453125-3.515625-.734375-1.84375-2.453125-2.96875-4.5625-2.96875-3.140625 0-5.171875 2.328125-5.171875 6.03125s1.96875 5.90625 5.125 5.90625c2.578125 0 4.375-1.46875 4.828125-3.75h-1.8125c-.5 1.484375-1.5 2.09375-2.953125 2.09375-1.875 0-3.265625-1.21875-3.3125-3.796875zm-1.921875-1.59375s0 .09375-.015625.125h-6.328125c.140625-2 1.421875-3.359375 3.21875-3.359375 1.765625 0 3.125 1.46875 3.125 3.234375zm.765625-8.984375h-2.4375l-2.0625 3.1875h1.28125zm0 0"/></symbol><symbol id="ad" overflow="visible"><path d="m13.375-4.3125c0-1.9375-1.203125-3.359375-3.34375-3.9375l-3.9375-1.046875c-1.890625-.5-2.578125-1.125-2.578125-2.328125 0-1.59375 1.390625-2.78125 3.5-2.78125 2.5 0 3.921875 1.140625 3.921875 3.1875h1.890625c0-3.078125-2.125-4.859375-5.75-4.859375-3.4375 0-5.578125 1.890625-5.578125 4.734375 0 1.90625 1.015625 3.125 3.09375 3.65625l3.890625 1.03125c1.984375.515625 2.890625 1.3125 2.890625 2.546875 0 1.71875-1.296875 2.734375-4.015625 2.734375-2.96875 0-4.4375-1.484375-4.4375-3.734375h-1.890625c0 3.703125 2.5 5.5 6.203125 5.5 3.984375 0 6.140625-1.890625 6.140625-4.703125zm0 0"/></symbol><symbol id="ae" overflow="visible"><path d="m3.296875 0v-11.28125h-1.796875v11.28125zm.234375-12.984375v-2.234375h-2.234375v2.234375zm0 0"/></symbol><symbol id="af" overflow="visible"><path d="m15.96875-7.59375c0-5.0625-2.984375-8.484375-7.59375-8.484375-4.5 0-7.5625 3.4375-7.5625 8.34375s3.0625 8.125 7.578125 8.125c4.609375 0 7.578125-3.390625 7.578125-7.984375zm-2-.046875c0 3.78125-2.25 6.265625-5.578125 6.265625s-5.5625-2.484375-5.5625-6.359375 2.234375-6.578125 5.546875-6.578125c3.40625 0 5.59375 2.703125 5.59375 6.671875zm-.96875-12.078125h-2.921875l-2.484375 2.859375h1.5625zm0 0"/></symbol><symbol id="ag" overflow="visible"><path d="m6.90625-9.703125v-1.84375c-.296875-.03125-.453125-.0625-.6875-.0625-1.15625 0-2.046875.6875-3.078125 2.375v-2.046875h-1.640625v11.28125h1.796875v-5.859375c0-2.53125.84375-3.8125 3.609375-3.84375zm0 0"/></symbol><symbol id="ah" overflow="visible"><path d="m3.296875 2.34375v-13.625h-1.796875v12.921875c0 1.078125-.359375 1.546875-1.453125 1.484375l-.4375-.03125v1.53125c.21875.046875.328125.0625.609375.0625 2.015625 0 3.078125-.8125 3.078125-2.34375zm.234375-15.328125v-2.234375h-2.234375v2.234375zm0 0"/></symbol><symbol id="ai" overflow="visible"><path d="m10.984375-5.5625c0-3.890625-1.875-6.046875-5.125-6.046875-3.171875 0-5.078125 2.171875-5.078125 5.96875 0 3.78125 1.890625 5.96875 5.09375 5.96875 3.171875 0 5.109375-2.1875 5.109375-5.890625zm-1.875-.015625c0 2.65625-1.25 4.25-3.234375 4.25-2 0-3.234375-1.578125-3.234375-4.3125 0-2.71875 1.234375-4.3125 3.234375-4.3125 2.03125 0 3.234375 1.578125 3.234375 4.375zm-3.90625-7.421875v-2.203125h-1.953125v2.203125zm3.5 0v-2.203125h-1.96875v2.203125zm0 0"/></symbol><symbol id="aj" overflow="visible"><path d="m10.984375-5.5625c0-3.890625-1.875-6.046875-5.125-6.046875-3.171875 0-5.078125 2.171875-5.078125 5.96875 0 3.78125 1.890625 5.96875 5.09375 5.96875 3.171875 0 5.109375-2.1875 5.109375-5.890625zm-1.875-.015625c0 2.65625-1.25 4.25-3.234375 4.25-2 0-3.234375-1.578125-3.234375-4.3125 0-2.71875 1.234375-4.3125 3.234375-4.3125 2.03125 0 3.234375 1.578125 3.234375 4.375zm0 0"/></symbol><symbol id="ak" overflow="visible"><path d="m10.484375 0v-8.53125c0-1.875-1.390625-3.078125-3.578125-3.078125-1.671875 0-2.75.65625-3.734375 2.21875v-1.890625h-1.671875v11.28125h1.796875v-6.21875c0-2.3125 1.25-3.8125 3.078125-3.8125 1.421875 0 2.328125.859375 2.328125 2.21875v7.8125zm0 0"/></symbol><symbol id="al" overflow="visible"><path d="m11.515625-.046875v-1.359375c-.1875.046875-.28125.046875-.390625.046875-.625 0-.96875-.3125-.96875-.875v-6.296875c0-2-1.453125-3.078125-4.234375-3.078125-2.734375 0-4.421875 1.0625-4.515625 3.671875h1.796875c.15625-1.390625.96875-2.015625 2.65625-2.015625 1.609375 0 2.515625.609375 2.515625 1.6875v.46875c0 .75-.453125 1.078125-1.875 1.25-2.53125.328125-2.921875.40625-3.609375.6875-1.3125.546875-1.984375 1.546875-1.984375 2.9375 0 2.046875 1.421875 3.25 3.703125 3.25 1.4375 0 2.84375-.609375 3.828125-1.65625.203125.859375.96875 1.484375 1.859375 1.484375.359375 0 .640625-.046875 1.21875-.203125zm-3.140625-3.84375c0 1.609375-1.640625 2.640625-3.375 2.640625-1.40625 0-2.21875-.5-2.21875-1.71875 0-1.1875.796875-1.703125 2.703125-1.984375 1.90625-.25 2.28125-.34375 2.890625-.625zm0 0"/></symbol><symbol id="am" overflow="visible"><path d="m9.84375 0v-1.578125h-7l6.6875-8.109375v-1.59375h-8.40625v1.578125h6.28125l-6.734375 8.09375v1.609375zm0 0"/></symbol><symbol id="an" overflow="visible"><path d="m3.890625-8.421875v-7.28125h-1.78125v7.28125l.46875 4.796875h.84375zm0 8.421875v-2.234375h-1.796875v2.234375zm0 0"/></symbol><symbol id="ao" overflow="visible"><path d="m16.390625 0v-15.703125h-2.78125l-4.5625 13.671875-4.65625-13.671875h-2.78125v15.703125h1.90625v-13.15625l4.453125 13.15625h2.109375l4.40625-13.15625v13.15625zm0 0"/></symbol><symbol id="ap" overflow="visible"><path d="m10.46875 0v-8.53125c0-1.890625-1.359375-3.078125-3.5625-3.078125-1.59375 0-2.5625.5-3.609375 1.875v-5.96875h-1.796875v15.703125h1.796875v-6.21875c0-2.3125 1.203125-3.8125 3.0625-3.8125 1.265625 0 2.3125.734375 2.3125 2.21875v7.8125zm0 0"/></symbol><symbol id="aq" overflow="visible"><path d="m4.109375 0v-2.234375h-2.234375v2.234375zm0-9.046875v-2.234375h-2.234375v2.234375zm0 0"/></symbol><symbol id="ar" overflow="visible"><path d="m10.46875-11.28125h-2.03125l-3.1875 9.15625-3.015625-9.15625h-2.015625l3.953125 11.28125h1.96875zm0 0"/></symbol><symbol id="as" overflow="visible"><path d="m11.515625-.046875v-1.359375c-.1875.046875-.28125.046875-.390625.046875-.625 0-.96875-.3125-.96875-.875v-6.296875c0-2-1.453125-3.078125-4.234375-3.078125-2.734375 0-4.421875 1.0625-4.515625 3.671875h1.796875c.15625-1.390625.96875-2.015625 2.65625-2.015625 1.609375 0 2.515625.609375 2.515625 1.6875v.46875c0 .75-.453125 1.078125-1.875 1.25-2.53125.328125-2.921875.40625-3.609375.6875-1.3125.546875-1.984375 1.546875-1.984375 2.9375 0 2.046875 1.421875 3.25 3.703125 3.25 1.4375 0 2.84375-.609375 3.828125-1.65625.203125.859375.96875 1.484375 1.859375 1.484375.359375 0 .640625-.046875 1.21875-.203125zm-3.140625-3.84375c0 1.609375-1.640625 2.640625-3.375 2.640625-1.40625 0-2.21875-.5-2.21875-1.71875 0-1.1875.796875-1.703125 2.703125-1.984375 1.90625-.25 2.28125-.34375 2.890625-.625zm1.40625-11.8125h-2.4375l-2.0625 3.1875h1.28125zm0 0"/></symbol><symbol id="at" overflow="visible"><path d="m10.53125-1.859375v-9.421875h-1.65625v1.640625c-.90625-1.34375-2-1.96875-3.453125-1.96875-2.859375 0-4.796875 2.421875-4.796875 6.078125 0 3.546875 2 5.859375 4.65625 5.859375 1.421875 0 2.40625-.609375 3.59375-2.03125v.75c0 3-1.234375 4.140625-3.3125 4.140625-1.421875 0-2.53125-.515625-2.734375-1.890625h-1.84375c.203125 2.125 1.859375 3.390625 4.5 3.390625 3.53125 0 5.046875-1.5625 5.046875-6.546875zm-1.828125-3.71875c0 2.6875-1.171875 4.25-3.0625 4.25-1.953125 0-3.140625-1.578125-3.140625-4.3125 0-2.71875 1.203125-4.3125 3.125-4.3125 1.9375 0 3.078125 1.640625 3.078125 4.375zm0 0"/></symbol><symbol id="au" overflow="visible"><path d="m11.265625-5.53125c0-3.796875-1.859375-6.078125-4.84375-6.078125-1.53125 0-2.765625.6875-3.59375 2.03125v-1.703125h-1.640625v15.96875h1.78125v-6.046875c.953125 1.171875 2 1.6875 3.46875 1.6875 2.90625 0 4.828125-2.265625 4.828125-5.859375zm-1.875-.046875c0 2.5625-1.3125 4.21875-3.28125 4.21875-1.890625 0-3.140625-1.546875-3.140625-4.203125 0-2.640625 1.25-4.359375 3.140625-4.359375 1.984375 0 3.28125 1.65625 3.28125 4.34375zm0 0"/></symbol><symbol id="av" overflow="visible"><path d="m16.359375 0v-8.46875c0-2.015625-1.109375-3.140625-3.21875-3.140625-1.515625 0-2.421875.453125-3.46875 1.71875-.671875-1.203125-1.578125-1.71875-3.046875-1.71875-1.5 0-2.484375.5625-3.453125 1.921875v-1.59375h-1.640625v11.28125h1.78125v-7.078125c0-1.640625 1.1875-2.953125 2.65625-2.953125 1.328125 0 2.078125.8125 2.078125 2.265625v7.765625h1.796875v-7.078125c0-1.640625 1.203125-2.953125 2.671875-2.953125 1.3125 0 2.0625.84375 2.0625 2.265625v7.765625zm0 0"/></symbol><symbol id="aw" overflow="visible"><path d="m10.296875-11.28125h-1.9375l-3.125 8.78125-2.890625-8.78125h-1.90625l3.796875 11.328125-.6875 1.78125c-.296875.796875-.65625 1.09375-1.4375 1.09375-.25 0-.5625-.03125-.953125-.125v1.609375c.375.203125.734375.28125 1.21875.28125 1.265625 0 2.296875-.703125 2.90625-2.3125zm0 0"/></symbol><symbol id="ax" overflow="visible"><path d="m4.109375 0v-2.234375h-2.234375v2.234375zm0 0"/></symbol><symbol id="ay" overflow="visible"><path d="m10.375 0v-11.28125h-1.78125v6.21875c0 2.3125-1.203125 3.8125-3.078125 3.8125-1.421875 0-2.328125-.859375-2.328125-2.21875v-7.8125h-1.78125v8.53125c0 1.875 1.390625 3.078125 3.59375 3.078125 1.65625 0 2.703125-.59375 3.765625-2.078125v1.75zm-2.515625-15.71875h-2.4375l-2.0625 3.234375h1.296875zm3.53125 0h-2.4375l-2.0625 3.234375h1.296875zm0 0"/></symbol><symbol id="az" overflow="visible"><path d="m11.46875 0v-1.765625h-7.75v-13.9375h-2v15.703125zm0 0"/></symbol><symbol id="aA" overflow="visible"><path d="m10.984375-5.5625c0-3.890625-1.875-6.046875-5.125-6.046875-3.171875 0-5.078125 2.171875-5.078125 5.96875 0 3.78125 1.890625 5.96875 5.09375 5.96875 3.171875 0 5.109375-2.1875 5.109375-5.890625zm-1.875-.015625c0 2.65625-1.25 4.25-3.234375 4.25-2 0-3.234375-1.578125-3.234375-4.3125 0-2.71875 1.234375-4.3125 3.234375-4.3125 2.03125 0 3.234375 1.578125 3.234375 4.375zm.734375-10.125h-2.4375l-2.0625 3.1875h1.28125zm0 0"/></symbol><symbol id="aB" overflow="visible"><path d="m13.859375 0v-15.703125h-2v6.796875h-8.0625v-6.796875h-2.015625v15.703125h2.015625v-7.140625h8.0625v7.140625zm0 0"/></symbol><symbol id="aC" overflow="visible"><path d="m3.890625 0v-11.28125h-1.78125v11.28125zm2.734375-15.703125h-2.421875l-2.078125 3.1875h1.296875zm0 0"/></symbol><symbol id="aD" overflow="visible"><path d="m7.25 0v-13.59375h-1.78125c-.421875 1.609375-1.828125 2.4375-4.171875 2.4375v1.78125h3.265625v9.375zm0 0"/></symbol><symbol id="aE" overflow="visible"><path d="m4.109375 0v-2.796875h-2.875v2.796875zm0 0"/></symbol><g clip-path="url(#a)"><path d="m5.208333 9793.742187h9910.807292" fill="none" stroke="#000" stroke-linecap="round" stroke-miterlimit="10" stroke-width="10.4317" transform="matrix(.06 0 0 -.06 0 648.98)"/></g><g clip-path="url(#b)"><path d="m5.208333 9939.054687h9910.807292" fill="none" stroke="#000" stroke-linecap="round" stroke-miterlimit="10" stroke-width="10.4317" transform="matrix(.06 0 0 -.06 0 648.98)"/></g><g clip-path="url(#c)"><path d="m5.208333 10084.302083h9910.807292" fill="none" stroke="#000" stroke-linecap="round" stroke-miterlimit="10" stroke-width="10.4317" transform="matrix(.06 0 0 -.06 0 648.98)"/></g><g clip-path="url(#d)"><path d="m5.208333 10229.614583h9910.807292" fill="none" stroke="#000" stroke-linecap="round" stroke-miterlimit="10" stroke-width="10.4317" transform="matrix(.06 0 0 -.06 0 648.98)"/></g><g clip-path="url(#e)"><path d="m5.208333 10374.927083h9910.807292" fill="none" stroke="#000" stroke-linecap="round" stroke-miterlimit="10" stroke-width="10.4317" transform="matrix(.06 0 0 -.06 0 648.98)"/></g><path d="m5165.364583 9793.742187v581.184896" fill="none" stroke="#000" stroke-miterlimit="10" stroke-width="19.8319" transform="matrix(.06 0 0 -.06 0 648.98)"/><g clip-path="url(#f)"><path d="m9911.328125 9793.742187v581.184896" fill="none" stroke="#000" stroke-miterlimit="10" stroke-width="19.8319" transform="matrix(.06 0 0 -.06 0 648.98)"/></g><use x="413.562827" xlink:href="#K" y="35.200772"/><use x="405.648431" xlink:href="#T" y="96.758996"/><use x="416.193013" xlink:href="#U" y="96.758996"/><use x="428.09814" xlink:href="#V" y="96.758996"/><path d="m7072.200521 10261.515625h6.901041v325.911458h-6.901041zm0 0" fill="none" stroke="#000" stroke-linejoin="round" stroke-miterlimit="10" stroke-width="6.63968" transform="matrix(.06 0 0 -.06 0 648.98)"/><path d="m424.332031 33.289062h.414063v-19.554687h-.414063zm0 0"/><use x="456.972914" xlink:href="#K" y="39.559781"/><use x="450.759152" xlink:href="#W" y="96.759596"/><use x="462.664278" xlink:href="#X" y="96.759596"/><path d="m7795.703125 10188.924479h6.901042v443.164063h-6.901042zm0 0" fill="none" stroke="#000" stroke-linejoin="round" stroke-miterlimit="10" stroke-width="6.63968" transform="matrix(.06 0 0 -.06 0 648.98)"/><path d="m467.742188 37.644531h.414062v-26.589843h-.414062zm0 0"/><use x="367.973736" xlink:href="#K" y="43.91779"/><use x="361.759034" xlink:href="#Y" y="96.758896"/><use x="373.664394" xlink:href="#X" y="96.758896"/><path d="m6312.369792 10116.203125h6.901041v424.283854h-6.901041zm0 0" fill="none" stroke="#000" stroke-linejoin="round" stroke-miterlimit="10" stroke-width="6.63968" transform="matrix(.06 0 0 -.06 0 648.98)"/><path d="m378.742188 42.007812h.414062v-25.457031h-.414062zm0 0"/><path d="m7319.726562 9302.270833h87.5v5.208334h-87.5zm0 0" fill="none" stroke="#000" stroke-linejoin="round" stroke-miterlimit="10" stroke-width="8.35409" transform="matrix(.06 0 0 -.06 0 648.98)"/><path d="m439.183594 90.84375h5.25v-.3125h-5.25zm0 0"/><path d="m5456.25 10522.127604v-63.151042l2346.354167 145.3125v63.085938zm0 0" fill="none" stroke="#000" stroke-linejoin="round" stroke-miterlimit="10" stroke-width="6.63968" transform="matrix(.06 0 0 -.06 0 648.98)"/><path d="m327.375 17.652344v3.789062l140.78125-8.71875v-3.785156zm0 0"/><path d="m8690.234375 9302.270833h87.5v5.208334h-87.5zm0 0" fill="none" stroke="#000" stroke-linejoin="round" stroke-miterlimit="10" stroke-width="8.35409" transform="matrix(.06 0 0 -.06 0 648.98)"/><path d="m521.414062 90.84375h5.25v-.3125h-5.25zm0 0"/><path d="m8055.273437 9302.270833h87.5v5.208334h-87.5zm0 0" fill="none" stroke="#000" stroke-linejoin="round" stroke-miterlimit="10" stroke-width="8.35409" transform="matrix(.06 0 0 -.06 0 648.98)"/><path d="m483.316406 90.84375h5.25v-.3125h-5.25zm0 0"/><path d="m2176.5625 10231.502604v-63.085937l730.403646 29.6875v63.085937zm0 0" fill="none" stroke="#000" stroke-linejoin="round" stroke-miterlimit="10" stroke-width="6.63968" transform="matrix(.06 0 0 -.06 0 648.98)"/><path d="m130.59375 35.089844v3.785156l43.824219-1.78125v-3.785156zm0 0"/><path d="m3836.067708 9302.270833h87.565104v5.208334h-87.565104zm0 0" fill="none" stroke="#000" stroke-linejoin="round" stroke-miterlimit="10" stroke-width="8.35409" transform="matrix(.06 0 0 -.06 0 648.98)"/><path d="m230.164062 90.84375h5.253907v-.3125h-5.253907zm0 0"/><path d="m2365.234375 9302.270833h87.565104v5.208334h-87.565104zm0 0" fill="none" stroke="#000" stroke-linejoin="round" stroke-miterlimit="10" stroke-width="8.35409" transform="matrix(.06 0 0 -.06 0 648.98)"/><path d="m141.914062 90.84375h5.253907v-.3125h-5.253907zm0 0"/><use x="500.383001" xlink:href="#K" y="39.559781"/><path d="m9133.268229 9603.377604h6.901042v449.088542h-6.901042zm0 0" fill="none" stroke="#000" stroke-linejoin="round" stroke-miterlimit="10" stroke-width="6.63968" transform="matrix(.06 0 0 -.06 0 648.98)"/><path d="m547.996094 72.777344h.414062v-26.941406h-.414062zm0 0"/><use x="533.248066" xlink:href="#Z" y="96.758896"/><use x="543.963479" xlink:href="#X" y="96.758896"/><use x="555.868606" xlink:href="#W" y="96.758896"/><use x="567.773967" xlink:href="#aa" y="96.758896"/><use x="547.796496" xlink:href="#K" y="43.91779"/><path d="m8343.033854 9651.815104h6.901042v473.307292h-6.901042zm0 0" fill="none" stroke="#000" stroke-linejoin="round" stroke-miterlimit="10" stroke-width="6.63968" transform="matrix(.06 0 0 -.06 0 648.98)"/><path d="m500.582031 69.871094h.414063v-28.394532h-.414063zm0 0"/><use x="497.315995" xlink:href="#ab" y="96.758896"/><use x="502.928126" xlink:href="#ac" y="96.758896"/><use x="119.82424" xlink:href="#K" y="65.711133"/><use x="115.992202" xlink:href="#ad" y="96.758896"/><use x="130.279061" xlink:href="#ae" y="96.758896"/><path d="m2176.5625 9753.052083h6.901042v443.880209h-6.901042zm0 0" fill="none" stroke="#000" stroke-linejoin="round" stroke-miterlimit="10" stroke-width="6.63968" transform="matrix(.06 0 0 -.06 0 648.98)"/><path d="m130.59375 63.796875h.414062v-26.632813h-.414062zm0 0"/><use x="75.03435" xlink:href="#K" y="43.91779"/><use x="6.973814" xlink:href="#L" y="52.635147"/><use x="38.388577" xlink:href="#M" y="43.91779"/><use x="46.267113" xlink:href="#M" y="30.841964"/><use x="69.416159" xlink:href="#af" y="96.758896"/><use x="86.083571" xlink:href="#aa" y="96.758896"/><use x="44.711109" xlink:href="#aD" y="96.758896"/><use x="55.426497" xlink:href="#aE" y="96.758896"/><path d="m1253.90625 9603.377604h6.901042v449.088542h-6.901042zm0 0" fill="none" stroke="#000" stroke-linejoin="round" stroke-miterlimit="10" stroke-width="6.63968" transform="matrix(.06 0 0 -.06 0 648.98)"/><path d="m75.234375 72.777344h.414063v-26.941406h-.414063zm0 0"/><use x="267.782536" xlink:href="#N" y="26.682755"/><use x="163.234326" xlink:href="#K" y="61.353225"/><use x="256.399013" xlink:href="#K" y="56.994546"/><use x="241.341583" xlink:href="#ag" y="96.759626"/><use x="248.314499" xlink:href="#X" y="96.759626"/><use x="260.21986" xlink:href="#W" y="96.759626"/><use x="272.125221" xlink:href="#ah" y="96.759626"/><use x="276.887514" xlink:href="#aa" y="96.759626"/><path d="m4452.799479 9898.299479h6.901042v473.307292h-6.901042zm0 0" fill="none" stroke="#000" stroke-linejoin="round" stroke-miterlimit="10" stroke-width="6.63968" transform="matrix(.06 0 0 -.06 0 648.98)"/><path d="m267.167969 55.082031h.414062v-28.398437h-.414062zm0 0"/><use x="316.608633" xlink:href="#K" y="56.993816"/><use x="296.788194" xlink:href="#ab" y="96.758896"/><use x="302.571186" xlink:href="#ai" y="96.758896"/><use x="314.476547" xlink:href="#V" y="96.758896"/><use x="319.23884" xlink:href="#ab" y="96.758896"/><use x="325.191755" xlink:href="#Z" y="96.758896"/><use x="335.907196" xlink:href="#W" y="96.758896"/><path d="m5456.25 9898.299479h6.966146v589.388021h-6.966146zm0 0" fill="none" stroke="#000" stroke-linejoin="round" stroke-miterlimit="10" stroke-width="6.63968" transform="matrix(.06 0 0 -.06 0 648.98)"/><path d="m327.375 55.082031h.417969v-35.363281h-.417969zm0 0"/><path d="m3623.567708 9898.299479h6.901042v473.307292h-6.901042zm0 0" fill="none" stroke="#000" stroke-linejoin="round" stroke-miterlimit="10" stroke-width="6.63968" transform="matrix(.06 0 0 -.06 0 648.98)"/><path d="m217.414062 55.082031h.414063v-28.398437h-.414063zm0 0"/><use x="222.009444" xlink:href="#O" y="56.993816"/><use x="200.430701" xlink:href="#ac" y="96.758896"/><use x="212.335827" xlink:href="#Y" y="96.758896"/><use x="206.644233" xlink:href="#K" y="56.993816"/><use x="154.044028" xlink:href="#aj" y="96.758896"/><use x="165.949155" xlink:href="#ak" y="96.758896"/><use x="177.854516" xlink:href="#aa" y="96.758896"/><path d="m2900.065104 9825.643229h6.901042v400.390625h-6.901042zm0 0" fill="none" stroke="#000" stroke-linejoin="round" stroke-miterlimit="10" stroke-width="6.63968" transform="matrix(.06 0 0 -.06 0 648.98)"/><path d="m174.003906 59.441406h.414063v-24.023437h-.414063zm0 0"/><g clip-path="url(#g)"><path d="m5.208333 8050.317708h9910.807292" style="fill:none;stroke-width:10.4317;stroke-linecap:round;stroke-linejoin:round;stroke:#000;stroke-miterlimit:10" transform="matrix(.06 0 0 -.06 0 648.98)"/></g><g clip-path="url(#h)"><path d="m5.208333 8195.565104h9910.807292" style="fill:none;stroke-width:10.4317;stroke-linecap:round;stroke-linejoin:round;stroke:#000;stroke-miterlimit:10" transform="matrix(.06 0 0 -.06 0 648.98)"/></g><g clip-path="url(#i)"><path d="m5.208333 8340.877604h9910.807292" style="fill:none;stroke-width:10.4317;stroke-linecap:round;stroke-linejoin:round;stroke:#000;stroke-miterlimit:10" transform="matrix(.06 0 0 -.06 0 648.98)"/></g><g clip-path="url(#j)"><path d="m5.208333 8486.190104h9910.807292" style="fill:none;stroke-width:10.4317;stroke-linecap:round;stroke-linejoin:round;stroke:#000;stroke-miterlimit:10" transform="matrix(.06 0 0 -.06 0 648.98)"/></g><g clip-path="url(#k)"><path d="m5.208333 8631.4375h9910.807292" style="fill:none;stroke-width:10.4317;stroke-linecap:round;stroke-linejoin:round;stroke:#000;stroke-miterlimit:10" transform="matrix(.06 0 0 -.06 0 648.98)"/></g><g clip-path="url(#l)"><path d="m9911.328125 8050.317708v581.119792" fill="none" stroke="#000" stroke-linejoin="round" stroke-miterlimit="10" stroke-width="19.8319" transform="matrix(.06 0 0 -.06 0 648.98)"/></g><path d="m5232.161458 8050.317708v581.119792" fill="none" stroke="#000" stroke-linejoin="round" stroke-miterlimit="10" stroke-width="19.8319" transform="matrix(.06 0 0 -.06 0 648.98)"/><use x="409.79682" xlink:href="#K" y="161.602025"/><use x="401.201332" xlink:href="#V" y="196.471495"/><use x="405.963625" xlink:href="#aj" y="196.471495"/><use x="417.868986" xlink:href="#W" y="196.471495"/><path d="m7009.440104 8154.875h6.901042v406.184896h-6.901042zm0 0" fill="none" stroke="#000" stroke-linejoin="round" stroke-miterlimit="10" stroke-width="6.63968" transform="matrix(.06 0 0 -.06 0 648.98)"/><path d="m420.566406 159.6875h.414063v-24.371094h-.414063zm0 0"/><use x="454.558909" xlink:href="#K" y="165.961034"/><use x="449.110378" xlink:href="#T" y="196.471795"/><use x="459.485038" xlink:href="#ai" y="196.471795"/><path d="m7755.46875 8082.21875h6.901042v430.729167h-6.901042zm0 0" fill="none" stroke="#000" stroke-linejoin="round" stroke-miterlimit="10" stroke-width="6.63968" transform="matrix(.06 0 0 -.06 0 648.98)"/><path d="m465.328125 164.046875h.414063v-25.84375h-.414063zm0 0"/><path d="m6263.411458 8227.53125h6.901042v381.705729h-6.901042zm0 0" fill="none" stroke="#000" stroke-linejoin="round" stroke-miterlimit="10" stroke-width="6.63968" transform="matrix(.06 0 0 -.06 0 648.98)"/><path d="m375.804688 155.328125h.414062v-22.902344h-.414062zm0 0"/><use x="358.821718" xlink:href="#ak" y="196.471095"/><use x="370.726844" xlink:href="#al" y="196.471095"/><use x="365.03548" xlink:href="#K" y="157.243217"/><path d="m5517.382812 8692.635417v-63.085938l2244.98698-145.247396v63.085938zm0 0" fill="none" stroke="#000" stroke-linejoin="round" stroke-miterlimit="10" stroke-width="6.63968" transform="matrix(.06 0 0 -.06 0 648.98)"/><path d="m331.042969 127.421875v3.785156l134.699219 8.714844v-3.785156zm0 0"/><path d="m7954.036458 7640.421875h87.5v5.208333h-87.5zm0 0" fill="none" stroke="#000" stroke-linejoin="round" stroke-miterlimit="10" stroke-width="8.35409" transform="matrix(.06 0 0 -.06 0 648.98)"/><path d="m477.242188 190.554688h5.25v-.3125h-5.25zm0 0"/><path d="m6488.151042 7640.421875h87.565104v5.208333h-87.565104zm0 0" fill="none" stroke="#000" stroke-linejoin="round" stroke-miterlimit="10" stroke-width="8.35409" transform="matrix(.06 0 0 -.06 0 648.98)"/><path d="m389.289062 190.554688h5.253907v-.3125h-5.253907zm0 0"/><path d="m5781.835937 7640.421875h87.5v5.208333h-87.5zm0 0" fill="none" stroke="#000" stroke-linejoin="round" stroke-miterlimit="10" stroke-width="8.35409" transform="matrix(.06 0 0 -.06 0 648.98)"/><path d="m346.910156 190.554688h5.25v-.3125h-5.25zm0 0"/><path d="m2307.356771 8692.635417v-63.085938l752.994791-29.622396v63.085938zm0 0" fill="none" stroke="#000" stroke-linejoin="round" stroke-miterlimit="10" stroke-width="6.63968" transform="matrix(.06 0 0 -.06 0 648.98)"/><path d="m138.441406 127.421875v3.785156l45.179688 1.777344v-3.785156zm0 0"/><path d="m4049.544271 7640.421875h87.565104v5.208333h-87.565104zm0 0" fill="none" stroke="#000" stroke-linejoin="round" stroke-miterlimit="10" stroke-width="8.35409" transform="matrix(.06 0 0 -.06 0 648.98)"/><path d="m242.972656 190.554688h5.253906v-.3125h-5.253906zm0 0"/><path d="m3243.489583 7640.421875h87.5v5.208333h-87.5zm0 0" fill="none" stroke="#000" stroke-linejoin="round" stroke-miterlimit="10" stroke-width="8.35409" transform="matrix(.06 0 0 -.06 0 648.98)"/><path d="m194.609375 190.554688h5.25v-.3125h-5.25zm0 0"/><use x="548.255097" xlink:href="#P" y="148.525999"/><path d="m8501.497396 8009.5625h6.901041v473.307292h-6.901041zm0 0" fill="none" stroke="#000" stroke-linejoin="round" stroke-miterlimit="10" stroke-width="6.63968" transform="matrix(.06 0 0 -.06 0 648.98)"/><path d="m510.089844 168.40625h.414062v-28.398438h-.414062zm0 0"/><use x="488.344977" xlink:href="#am" y="196.471095"/><use x="499.060155" xlink:href="#X" y="196.471095"/><use x="510.965516" xlink:href="#V" y="196.471095"/><use x="515.72778" xlink:href="#an" y="196.471095"/><use x="499.320999" xlink:href="#K" y="170.319043"/><use x="75.03415" xlink:href="#K" y="148.525899"/><use x="47.985096" xlink:href="#ao" y="196.471195"/><use x="65.843604" xlink:href="#aj" y="196.471195"/><use x="77.74873" xlink:href="#ak" y="196.471195"/><use x="89.654091" xlink:href="#W" y="196.471195"/><use x="101.559452" xlink:href="#W" y="196.471195"/><path d="m1253.90625 7859.888021h6.901042v449.088541h-6.901042zm0 0" fill="none" stroke="#000" stroke-linejoin="round" stroke-miterlimit="10" stroke-width="6.63968" transform="matrix(.06 0 0 -.06 0 648.98)"/><path d="m75.234375 177.386719h.414063v-26.945313h-.414063zm0 0"/><use x="127.675255" xlink:href="#K" y="152.885008"/><use x="127.41463" xlink:href="#al" y="196.471595"/><path d="m2307.421875 8300.122396h6.901042v357.421875h-6.901042zm0 0" fill="none" stroke="#000" stroke-linejoin="round" stroke-miterlimit="10" stroke-width="6.63968" transform="matrix(.06 0 0 -.06 0 648.98)"/><path d="m138.441406 150.972656h.417969v-21.445312h-.417969zm0 0"/><use x="6.973844" xlink:href="#L" y="157.244017"/><use x="38.388607" xlink:href="#M" y="148.526659"/><use x="46.267143" xlink:href="#M" y="135.450633"/><path d="m5517.382812 8300.122396h6.901042v357.226562h-6.901042zm0 0" fill="none" stroke="#000" stroke-linejoin="round" stroke-miterlimit="10" stroke-width="6.63968" transform="matrix(.06 0 0 -.06 0 648.98)"/><path d="m331.042969 150.972656h.414062v-21.433594h-.414062zm0 0"/><use x="311.679623" xlink:href="#ap" y="196.471095"/><use x="323.584984" xlink:href="#al" y="196.471095"/><use x="335.490111" xlink:href="#ah" y="196.471095"/><use x="320.274171" xlink:href="#K" y="152.884508"/><use x="279.95639" xlink:href="#N" y="131.289865"/><path d="m4655.664062 8154.875h6.966146v473.242188h-6.966146zm0 0" fill="none" stroke="#000" stroke-linejoin="round" stroke-miterlimit="10" stroke-width="6.63968" transform="matrix(.06 0 0 -.06 0 648.98)"/><path d="m279.339844 159.6875h.417968v-28.394531h-.417968zm0 0"/><use x="254.025508" xlink:href="#ak" y="196.471095"/><use x="265.930869" xlink:href="#al" y="196.471095"/><use x="277.835996" xlink:href="#T" y="196.471095"/><use x="288.551438" xlink:href="#aq" y="196.471095"/><use x="268.572937" xlink:href="#K" y="161.601625"/><path d="m3799.414062 8154.875h6.966146v473.242188h-6.966146zm0 0" fill="none" stroke="#000" stroke-linejoin="round" stroke-miterlimit="10" stroke-width="6.63968" transform="matrix(.06 0 0 -.06 0 648.98)"/><path d="m227.964844 159.6875h.417968v-28.394531h-.417968zm0 0"/><use x="172.436345" xlink:href="#K" y="157.244017"/><use x="170.389541" xlink:href="#ar" y="196.471895"/><use x="181.104734" xlink:href="#ae" y="196.471895"/><path d="m3053.385417 8227.53125h6.966145v400.846354h-6.966145zm0 0" fill="none" stroke="#000" stroke-linejoin="round" stroke-miterlimit="10" stroke-width="6.63968" transform="matrix(.06 0 0 -.06 0 648.98)"/><path d="m183.203125 155.328125h.417969v-24.050781h-.417969zm0 0"/><use x="208.603417" xlink:href="#V" y="196.471095"/><use x="213.365695" xlink:href="#as" y="196.471095"/><use x="225.270822" xlink:href="#at" y="196.471095"/><use x="217.198664" xlink:href="#K" y="161.601625"/><use x="232.563887" xlink:href="#O" y="161.601625"/><g clip-path="url(#m)"><path d="m5.208333 6306.828125h9910.807292" style="fill:none;stroke-width:10.4317;stroke-linecap:round;stroke-linejoin:round;stroke:#000;stroke-miterlimit:10" transform="matrix(.06 0 0 -.06 0 648.98)"/></g><g clip-path="url(#n)"><path d="m5.208333 6452.140625h9910.807292" style="fill:none;stroke-width:10.4317;stroke-linecap:round;stroke-linejoin:round;stroke:#000;stroke-miterlimit:10" transform="matrix(.06 0 0 -.06 0 648.98)"/></g><g clip-path="url(#o)"><path d="m5.208333 6597.388021h9910.807292" style="fill:none;stroke-width:10.4317;stroke-linecap:round;stroke-linejoin:round;stroke:#000;stroke-miterlimit:10" transform="matrix(.06 0 0 -.06 0 648.98)"/></g><g clip-path="url(#p)"><path d="m5.208333 6742.700521h9910.807292" style="fill:none;stroke-width:10.4317;stroke-linecap:round;stroke-linejoin:round;stroke:#000;stroke-miterlimit:10" transform="matrix(.06 0 0 -.06 0 648.98)"/></g><g clip-path="url(#q)"><path d="m5.208333 6888.013021h9910.807292" style="fill:none;stroke-width:10.4317;stroke-linecap:round;stroke-linejoin:round;stroke:#000;stroke-miterlimit:10" transform="matrix(.06 0 0 -.06 0 648.98)"/></g><path d="m5454.817708 6306.828125v581.184896" fill="none" stroke="#000" stroke-linejoin="round" stroke-miterlimit="10" stroke-width="19.8319" transform="matrix(.06 0 0 -.06 0 648.98)"/><g clip-path="url(#r)"><path d="m9911.328125 6306.828125v581.184896" fill="none" stroke="#000" stroke-linejoin="round" stroke-miterlimit="10" stroke-width="19.8319" transform="matrix(.06 0 0 -.06 0 648.98)"/></g><use x="417.780836" xlink:href="#K" y="253.134208"/><use x="409.441049" xlink:href="#T" y="301.079504"/><use x="419.815474" xlink:href="#X" y="301.079504"/><use x="431.550913" xlink:href="#ab" y="301.079504"/><path d="m7142.447917 6629.289062h6.966145v344.20573h-6.966145zm0 0" fill="none" stroke="#000" stroke-linejoin="round" stroke-miterlimit="10" stroke-width="6.63968" transform="matrix(.06 0 0 -.06 0 648.98)"/><path d="m428.546875 251.222656h.417969v-20.652344h-.417969zm0 0"/><use x="457.775916" xlink:href="#K" y="257.493217"/><use x="454.708409" xlink:href="#ab" y="301.079804"/><use x="460.320541" xlink:href="#X" y="301.079804"/><path d="m7809.049479 6556.697917h6.901042v472.721354h-6.901042zm0 0" fill="none" stroke="#000" stroke-linejoin="round" stroke-miterlimit="10" stroke-width="6.63968" transform="matrix(.06 0 0 -.06 0 648.98)"/><path d="m468.542969 255.578125h.414062v-28.363281h-.414062zm0 0"/><use x="375.606751" xlink:href="#K" y="266.210234"/><use x="369.392989" xlink:href="#au" y="301.079404"/><use x="381.298115" xlink:href="#X" y="301.079404"/><path d="m6439.583333 6411.385417h6.966146v503.125h-6.966146zm0 0" fill="none" stroke="#000" stroke-linejoin="round" stroke-miterlimit="10" stroke-width="6.63968" transform="matrix(.06 0 0 -.06 0 648.98)"/><path d="m386.375 264.296875h.417969v-30.1875h-.417969zm0 0"/><path d="m5736.71875 6889.901042v-63.085938l2079.231771 174.934896v63.085938zm0 0" fill="none" stroke="#000" stroke-linejoin="round" stroke-miterlimit="10" stroke-width="6.63968" transform="matrix(.06 0 0 -.06 0 648.98)"/><path d="m344.203125 235.585938v3.785156l124.753906-10.496094v-3.785156zm0 0"/><path d="m8787.630208 5896.932292h87.565104v5.208333h-87.565104zm0 0" fill="none" stroke="#000" stroke-linejoin="round" stroke-miterlimit="10" stroke-width="8.35409" transform="matrix(.06 0 0 -.06 0 648.98)"/><path d="m527.257812 295.164062h5.253907v-.3125h-5.253907zm0 0"/><path d="m7942.903646 5896.932292h87.5v5.208333h-87.5zm0 0" fill="none" stroke="#000" stroke-linejoin="round" stroke-miterlimit="10" stroke-width="8.35409" transform="matrix(.06 0 0 -.06 0 648.98)"/><path d="m476.574219 295.164062h5.25v-.3125h-5.25zm0 0"/><path d="m6644.921875 5896.932292h87.565104v5.208333h-87.565104zm0 0" fill="none" stroke="#000" stroke-linejoin="round" stroke-miterlimit="10" stroke-width="8.35409" transform="matrix(.06 0 0 -.06 0 648.98)"/><path d="m398.695312 295.164062h5.253907v-.3125h-5.253907zm0 0"/><path d="m5959.765625 5896.932292h87.5v5.208333h-87.5zm0 0" fill="none" stroke="#000" stroke-linejoin="round" stroke-miterlimit="10" stroke-width="8.35409" transform="matrix(.06 0 0 -.06 0 648.98)"/><path d="m357.585938 295.164062h5.25v-.3125h-5.25zm0 0"/><path d="m2372.591146 6711.190104h973.567708v63.085938h-973.567708zm0 0" fill="none" stroke="#000" stroke-linejoin="round" stroke-miterlimit="10" stroke-width="6.63968" transform="matrix(.06 0 0 -.06 0 648.98)"/><path d="m142.355469 246.308594h58.414062v-3.785156h-58.414062zm0 0"/><use x="498.850998" xlink:href="#K" y="257.493217"/><path d="m9325.651042 6484.041667h6.901041v473.307291h-6.901041zm0 0" fill="none" stroke="#000" stroke-linejoin="round" stroke-miterlimit="10" stroke-width="6.63968" transform="matrix(.06 0 0 -.06 0 648.98)"/><path d="m559.539062 259.9375h.414063v-28.398438h-.414063zm0 0"/><use x="536.859074" xlink:href="#ab" y="301.079304"/><use x="542.471205" xlink:href="#X" y="301.079304"/><use x="554.206409" xlink:href="#ab" y="301.079304"/><use x="560.159558" xlink:href="#ab" y="301.079304"/><use x="566.112707" xlink:href="#aa" y="301.079304"/><use x="548.770298" xlink:href="#K" y="261.851426"/><path d="m8493.619792 6556.697917h6.966145v473.307291h-6.966145zm0 0" fill="none" stroke="#000" stroke-linejoin="round" stroke-miterlimit="10" stroke-width="6.63968" transform="matrix(.06 0 0 -.06 0 648.98)"/><path d="m509.617188 255.578125h.417968v-28.394531h-.417968zm0 0"/><use x="486.173972" xlink:href="#ag" y="301.079304"/><use x="493.146888" xlink:href="#X" y="301.079304"/><use x="505.052249" xlink:href="#av" y="301.079304"/><use x="75.03415" xlink:href="#K" y="274.927452"/><use x="58.956018" xlink:href="#ao" y="301.079304"/><use x="76.814291" xlink:href="#X" y="301.079304"/><use x="88.719652" xlink:href="#ag" y="301.079304"/><use x="96.543353" xlink:href="#ab" y="301.079304"/><path d="m1430.078125 6266.072917h6.901042v473.307291h-6.901042zm0 0" fill="none" stroke="#000" stroke-linejoin="round" stroke-miterlimit="10" stroke-width="6.63968" transform="matrix(.06 0 0 -.06 0 648.98)"/><path d="m85.800781 273.015625h.417969v-28.398437h-.417969zm0 0"/><use x="131.587263" xlink:href="#K" y="270.569243"/><use x="116.443333" xlink:href="#ak" y="301.079804"/><use x="128.348694" xlink:href="#X" y="301.079804"/><use x="140.254055" xlink:href="#av" y="301.079804"/><path d="m2372.591146 6338.729167h6.901041v400.651041h-6.901041zm0 0" fill="none" stroke="#000" stroke-linejoin="round" stroke-miterlimit="10" stroke-width="6.63968" transform="matrix(.06 0 0 -.06 0 648.98)"/><path d="m142.355469 268.65625h.414062v-24.039062h-.414062zm0 0"/><use x="6.973844" xlink:href="#L" y="261.851226"/><use x="38.388607" xlink:href="#M" y="253.133868"/><use x="46.267143" xlink:href="#M" y="240.057842"/><use x="298.080646" xlink:href="#N" y="235.897914"/><use x="189.585429" xlink:href="#K" y="270.568583"/><use x="286.698223" xlink:href="#K" y="266.209904"/><use x="284.651419" xlink:href="#T" y="301.079074"/><use x="295.366627" xlink:href="#ae" y="301.079074"/><path d="m4957.747396 6411.385417h6.966146v473.307291h-6.966146zm0 0" fill="none" stroke="#000" stroke-linejoin="round" stroke-miterlimit="10" stroke-width="6.63968" transform="matrix(.06 0 0 -.06 0 648.98)"/><path d="m297.464844 264.296875h.417968v-28.398437h-.417968zm0 0"/><use x="333.433667" xlink:href="#K" y="274.927252"/><use x="327.220134" xlink:href="#ak" y="301.079104"/><use x="339.125261" xlink:href="#ac" y="301.079104"/><path d="m5736.71875 6266.072917h6.901042v589.518229h-6.901042zm0 0" fill="none" stroke="#000" stroke-linejoin="round" stroke-miterlimit="10" stroke-width="6.63968" transform="matrix(.06 0 0 -.06 0 648.98)"/><path d="m344.199219 273.015625h.417969v-35.371094h-.417969zm0 0"/><use x="172.061344" xlink:href="#ap" y="301.079304"/><use x="183.966705" xlink:href="#al" y="301.079304"/><use x="195.871832" xlink:href="#at" y="301.079304"/><use x="207.777193" xlink:href="#aw" y="301.079304"/><path d="m4196.679687 6411.385417h6.966146v473.307291h-6.966146zm0 0" fill="none" stroke="#000" stroke-linejoin="round" stroke-miterlimit="10" stroke-width="6.63968" transform="matrix(.06 0 0 -.06 0 648.98)"/><path d="m251.800781 264.296875h.417969v-28.398437h-.417969zm0 0"/><use x="256.400513" xlink:href="#O" y="266.210234"/><use x="232.440765" xlink:href="#al" y="301.079404"/><use x="244.346126" xlink:href="#am" y="301.079404"/><use x="255.061568" xlink:href="#aa" y="301.079404"/><use x="241.035312" xlink:href="#K" y="266.210234"/><path d="m3339.192708 6338.729167h6.966146v400.651041h-6.966146zm0 0" fill="none" stroke="#000" stroke-linejoin="round" stroke-miterlimit="10" stroke-width="6.63968" transform="matrix(.06 0 0 -.06 0 648.98)"/><path d="m200.351562 268.65625h.417969v-24.039062h-.417969zm0 0"/><g clip-path="url(#s)"><path d="m5.208333 4563.403646h9910.807292" style="fill:none;stroke-width:10.4317;stroke-linecap:round;stroke-linejoin:round;stroke:#000;stroke-miterlimit:10" transform="matrix(.06 0 0 -.06 0 648.98)"/></g><g clip-path="url(#t)"><path d="m5.208333 4708.651042h9910.807292" style="fill:none;stroke-width:10.4317;stroke-linecap:round;stroke-linejoin:round;stroke:#000;stroke-miterlimit:10" transform="matrix(.06 0 0 -.06 0 648.98)"/></g><g clip-path="url(#u)"><path d="m5.208333 4853.963542h9910.807292" style="fill:none;stroke-width:10.4317;stroke-linecap:round;stroke-linejoin:round;stroke:#000;stroke-miterlimit:10" transform="matrix(.06 0 0 -.06 0 648.98)"/></g><g clip-path="url(#v)"><path d="m5.208333 4999.276042h9910.807292" style="fill:none;stroke-width:10.4317;stroke-linecap:round;stroke-linejoin:round;stroke:#000;stroke-miterlimit:10" transform="matrix(.06 0 0 -.06 0 648.98)"/></g><g clip-path="url(#w)"><path d="m5.208333 5144.523438h9910.807292" style="fill:none;stroke-width:10.4317;stroke-linecap:round;stroke-linejoin:round;stroke:#000;stroke-miterlimit:10" transform="matrix(.06 0 0 -.06 0 648.98)"/></g><g clip-path="url(#x)"><path d="m9911.328125 4563.403646v581.119792" fill="none" stroke="#000" stroke-linejoin="round" stroke-miterlimit="10" stroke-width="19.8319" transform="matrix(.06 0 0 -.06 0 648.98)"/></g><path d="m5482.03125 4563.403646v581.119792" fill="none" stroke="#000" stroke-linejoin="round" stroke-miterlimit="10" stroke-width="19.8319" transform="matrix(.06 0 0 -.06 0 648.98)"/><use x="438.721877" xlink:href="#K" y="370.818444"/><use x="422.558445" xlink:href="#ar" y="405.687613"/><use x="432.932871" xlink:href="#X" y="405.687613"/><use x="444.838231" xlink:href="#Z" y="405.687613"/><use x="455.553439" xlink:href="#am" y="405.687613"/><path d="m7491.471354 4667.960938h6.966146v403.776041h-6.966146zm0 0" fill="none" stroke="#000" stroke-linejoin="round" stroke-miterlimit="10" stroke-width="6.63968" transform="matrix(.06 0 0 -.06 0 648.98)"/><path d="m449.488281 368.902344h.417969v-24.226563h-.417969zm0 0"/><use x="486.605973" xlink:href="#K" y="375.176452"/><use x="483.963628" xlink:href="#ak" y="405.687013"/><use x="495.868989" xlink:href="#ae" y="405.687013"/><path d="m8289.518229 4595.304688h6.966146v430.664062h-6.966146zm0 0" fill="none" stroke="#000" stroke-linejoin="round" stroke-miterlimit="10" stroke-width="6.63968" transform="matrix(.06 0 0 -.06 0 648.98)"/><path d="m497.371094 373.261719h.417968v-25.839844h-.417968zm0 0"/><path d="m6597.135417 4740.552083h6.966145v382.486979h-6.966145zm0 0" fill="none" stroke="#000" stroke-linejoin="round" stroke-miterlimit="10" stroke-width="6.63968" transform="matrix(.06 0 0 -.06 0 648.98)"/><path d="m395.828125 364.546875h.417969v-22.949219h-.417969zm0 0"/><use x="372.893746" xlink:href="#Y" y="405.687513"/><use x="384.798872" xlink:href="#X" y="405.687513"/><use x="396.704233" xlink:href="#ak" y="405.687513"/><use x="385.06037" xlink:href="#K" y="366.459635"/><path d="m1808.138021 4153.507812h87.565104v5.208334h-87.565104zm0 0" fill="none" stroke="#000" stroke-linejoin="round" stroke-miterlimit="10" stroke-width="8.35409" transform="matrix(.06 0 0 -.06 0 648.98)"/><path d="m108.488281 399.769531h5.253907v-.3125h-5.253907zm0 0"/><path d="m4090.299479 4153.507812h87.5v5.208334h-87.5zm0 0" fill="none" stroke="#000" stroke-linejoin="round" stroke-miterlimit="10" stroke-width="8.35409" transform="matrix(.06 0 0 -.06 0 648.98)"/><path d="m245.417969 399.769531h5.25v-.3125h-5.25zm0 0"/><path d="m2304.166667 5291.723958v-63.085937l804.947916 29.622396v63.085937zm0 0" fill="none" stroke="#000" stroke-linejoin="round" stroke-miterlimit="10" stroke-width="6.63968" transform="matrix(.06 0 0 -.06 0 648.98)"/><path d="m138.25 331.476562v3.785157l48.296875-1.777344v-3.785156zm0 0"/><path d="m6054.882812 4153.507812h87.5v5.208334h-87.5zm0 0" fill="none" stroke="#000" stroke-linejoin="round" stroke-miterlimit="10" stroke-width="8.35409" transform="matrix(.06 0 0 -.06 0 648.98)"/><path d="m363.292969 399.769531h5.25v-.3125h-5.25zm0 0"/><path d="m7874.804687 4153.507812h87.565105v5.208334h-87.565105zm0 0" fill="none" stroke="#000" stroke-linejoin="round" stroke-miterlimit="10" stroke-width="8.35409" transform="matrix(.06 0 0 -.06 0 648.98)"/><path d="m472.488281 399.769531h5.253907v-.3125h-5.253907zm0 0"/><path d="m5769.401042 5205.721354v-63.085937l2527.083333-145.247396v63.020833zm0 0" fill="none" stroke="#000" stroke-linejoin="round" stroke-miterlimit="10" stroke-width="6.63968" transform="matrix(.06 0 0 -.06 0 648.98)"/><path d="m346.164062 336.636719v3.785156l151.625 8.714844v-3.78125zm0 0"/><path d="m9097.200521 4678.3125h6.966146v462.890625h-6.966146zm0 0" fill="none" stroke="#000" stroke-linejoin="round" stroke-miterlimit="10" stroke-width="6.63968" transform="matrix(.06 0 0 -.06 0 648.98)"/><path d="m545.832031 368.28125h.417969v-27.773438h-.417969zm0 0"/><use x="529.159058" xlink:href="#X" y="405.687513"/><use x="541.064185" xlink:href="#V" y="405.687513"/><use x="545.826448" xlink:href="#ax" y="405.687513"/><use x="534.488759" xlink:href="#Q" y="370.818344"/><use x="477.535745" xlink:href="#R" y="375.177022"/><use x="75.03394" xlink:href="#K" y="366.459665"/><use x="61.676413" xlink:href="#ad" y="405.687543"/><use x="75.963265" xlink:href="#X" y="405.687543"/><use x="87.868626" xlink:href="#ak" y="405.687543"/><path d="m1430.078125 4740.552083h6.901042v473.307292h-6.901042zm0 0" fill="none" stroke="#000" stroke-linejoin="round" stroke-miterlimit="10" stroke-width="6.63968" transform="matrix(.06 0 0 -.06 0 648.98)"/><path d="m85.800781 364.546875h.417969v-28.398437h-.417969zm0 0"/><use x="127.480255" xlink:href="#K" y="362.100426"/><use x="122.456415" xlink:href="#T" y="405.687013"/><use x="133.171608" xlink:href="#ae" y="405.687013"/><use x="137.933886" xlink:href="#ab" y="405.687013"/><path d="m2304.166667 4813.208333h6.901041v443.880209h-6.901041zm0 0" fill="none" stroke="#000" stroke-linejoin="round" stroke-miterlimit="10" stroke-width="6.63968" transform="matrix(.06 0 0 -.06 0 648.98)"/><path d="m138.25 360.1875h.414062v-26.632812h-.414062zm0 0"/><use x="38.388577" xlink:href="#M" y="357.742418"/><use x="46.267113" xlink:href="#M" y="344.666391"/><use x="6.973834" xlink:href="#L" y="366.459835"/><path d="m3726.302083 4421.411458h6.966146v473.307292h-6.966146zm0 0" fill="none" stroke="#000" stroke-linejoin="round" stroke-miterlimit="10" stroke-width="6.63968" transform="matrix(.06 0 0 -.06 0 648.98)"/><path d="m223.578125 383.695312h.417969v-28.398437h-.417969zm0 0"/><path d="m5769.401042 4813.208333h6.966145v357.291667h-6.966145zm0 0" fill="none" stroke="#000" stroke-linejoin="round" stroke-miterlimit="10" stroke-width="6.63968" transform="matrix(.06 0 0 -.06 0 648.98)"/><path d="m346.164062 360.1875h.414063v-21.4375h-.414063zm0 0"/><use x="323.229646" xlink:href="#Y" y="405.687513"/><use x="335.135007" xlink:href="#ay" y="405.687513"/><use x="347.040134" xlink:href="#ak" y="405.687513"/><use x="335.396571" xlink:href="#K" y="362.100926"/><path d="m4743.229167 4667.960938h6.901041v473.242187h-6.901041zm0 0" fill="none" stroke="#000" stroke-linejoin="round" stroke-miterlimit="10" stroke-width="6.63968" transform="matrix(.06 0 0 -.06 0 648.98)"/><path d="m284.59375 368.902344h.414062v-28.394532h-.414062zm0 0"/><use x="258.681517" xlink:href="#Y" y="405.687513"/><use x="270.586878" xlink:href="#X" y="405.687513"/><use x="282.492239" xlink:href="#ak" y="405.687513"/><use x="294.397366" xlink:href="#aa" y="405.687513"/><use x="273.825448" xlink:href="#K" y="370.818344"/><use x="220.737741" xlink:href="#ac" y="405.687513"/><use x="232.642868" xlink:href="#ah" y="405.687513"/><use x="223.379857" xlink:href="#K" y="353.383609"/><use x="175.364061" xlink:href="#K" y="357.742288"/><use x="160.815632" xlink:href="#Z" y="405.687583"/><use x="171.530825" xlink:href="#X" y="405.687583"/><use x="183.436186" xlink:href="#av" y="405.687583"/><path d="m3102.213542 4885.864583h6.901041v400.390625h-6.901041zm0 0" fill="none" stroke="#000" stroke-linejoin="round" stroke-miterlimit="10" stroke-width="6.63968" transform="matrix(.06 0 0 -.06 0 648.98)"/><path d="m186.132812 355.828125h.414063v-24.023437h-.414063zm0 0"/><g clip-path="url(#y)"><path d="m5.208333 2819.914062h9910.807292" style="fill:none;stroke-width:10.4317;stroke-linecap:round;stroke-linejoin:round;stroke:#000;stroke-miterlimit:10" transform="matrix(.06 0 0 -.06 0 648.98)"/></g><g clip-path="url(#z)"><path d="m5.208333 2965.226562h9910.807292" style="fill:none;stroke-width:10.4317;stroke-linecap:round;stroke-linejoin:round;stroke:#000;stroke-miterlimit:10" transform="matrix(.06 0 0 -.06 0 648.98)"/></g><g clip-path="url(#A)"><path d="m5.208333 3110.473958h9910.807292" style="fill:none;stroke-width:10.4317;stroke-linecap:round;stroke-linejoin:round;stroke:#000;stroke-miterlimit:10" transform="matrix(.06 0 0 -.06 0 648.98)"/></g><g clip-path="url(#B)"><path d="m5.208333 3255.786458h9910.807292" style="fill:none;stroke-width:10.4317;stroke-linecap:round;stroke-linejoin:round;stroke:#000;stroke-miterlimit:10" transform="matrix(.06 0 0 -.06 0 648.98)"/></g><g clip-path="url(#C)"><path d="m5.208333 3401.098958h9910.807292" style="fill:none;stroke-width:10.4317;stroke-linecap:round;stroke-linejoin:round;stroke:#000;stroke-miterlimit:10" transform="matrix(.06 0 0 -.06 0 648.98)"/></g><g clip-path="url(#D)"><path d="m9911.328125 2819.914062v581.184896" fill="none" stroke="#000" stroke-linejoin="round" stroke-miterlimit="10" stroke-width="19.8319" transform="matrix(.06 0 0 -.06 0 648.98)"/></g><path d="m5972.330729 2819.914062v581.184896" fill="none" stroke="#000" stroke-linejoin="round" stroke-miterlimit="10" stroke-width="19.8319" transform="matrix(.06 0 0 -.06 0 648.98)"/><use x="423.241846" xlink:href="#K" y="471.067644"/><use x="417.793556" xlink:href="#T" y="510.295723"/><use x="428.167981" xlink:href="#X" y="510.295723"/><path d="m7233.528646 2997.127604h6.901041v400.390625h-6.901041zm0 0" fill="none" stroke="#000" stroke-linejoin="round" stroke-miterlimit="10" stroke-width="6.63968" transform="matrix(.06 0 0 -.06 0 648.98)"/><path d="m434.011719 469.152344h.414062v-24.023438h-.414062zm0 0"/><use x="476.250953" xlink:href="#K" y="475.425653"/><use x="470.802662" xlink:href="#T" y="510.295123"/><use x="481.177087" xlink:href="#ai" y="510.295123"/><path d="m8116.992187 2924.471354h6.901042v443.815104h-6.901042zm0 0" fill="none" stroke="#000" stroke-linejoin="round" stroke-miterlimit="10" stroke-width="6.63968" transform="matrix(.06 0 0 -.06 0 648.98)"/><path d="m487.019531 473.511719h.414063v-26.628907h-.414063zm0 0"/><use x="365.02973" xlink:href="#K" y="466.708635"/><path d="m6263.28125 3069.71875h6.966146v473.307292h-6.966146zm0 0" fill="none" stroke="#000" stroke-linejoin="round" stroke-miterlimit="10" stroke-width="6.63968" transform="matrix(.06 0 0 -.06 0 648.98)"/><path d="m375.796875 464.796875h.417969v-28.398437h-.417969zm0 0"/><use x="358.815718" xlink:href="#Y" y="510.295723"/><use x="370.720844" xlink:href="#ac" y="510.295723"/><path d="m2609.440104 2410.018229h87.5v5.208333h-87.5zm0 0" fill="none" stroke="#000" stroke-linejoin="round" stroke-miterlimit="10" stroke-width="8.35409" transform="matrix(.06 0 0 -.06 0 648.98)"/><path d="m156.566406 504.378906h5.25v-.3125h-5.25zm0 0"/><path d="m3588.736979 2410.018229h87.5v5.208333h-87.5zm0 0" fill="none" stroke="#000" stroke-linejoin="round" stroke-miterlimit="10" stroke-width="8.35409" transform="matrix(.06 0 0 -.06 0 648.98)"/><path d="m215.324219 504.378906h5.25v-.3125h-5.25zm0 0"/><path d="m4585.026042 2410.018229h87.565104v5.208333h-87.565104zm0 0" fill="none" stroke="#000" stroke-linejoin="round" stroke-miterlimit="10" stroke-width="8.35409" transform="matrix(.06 0 0 -.06 0 648.98)"/><path d="m275.101562 504.378906h5.253907v-.3125h-5.253907zm0 0"/><path d="m2400.260417 3432.609375v-63.085937l890.364583-29.622396v63.085937zm0 0" fill="none" stroke="#000" stroke-linejoin="round" stroke-miterlimit="10" stroke-width="6.63968" transform="matrix(.06 0 0 -.06 0 648.98)"/><path d="m144.015625 443.023438v3.785156l53.421875 1.777344v-3.785157zm0 0"/><path d="m6626.367187 2410.018229h87.565105v5.208333h-87.565105zm0 0" fill="none" stroke="#000" stroke-linejoin="round" stroke-miterlimit="10" stroke-width="8.35409" transform="matrix(.06 0 0 -.06 0 648.98)"/><path d="m397.582031 504.378906h5.253907v-.3125h-5.253907zm0 0"/><path d="m7546.875 2410.018229h87.5v5.208333h-87.5zm0 0" fill="none" stroke="#000" stroke-linejoin="round" stroke-miterlimit="10" stroke-width="8.35409" transform="matrix(.06 0 0 -.06 0 648.98)"/><path d="m452.8125 504.378906h5.25v-.3125h-5.25zm0 0"/><path d="m8404.947917 2410.018229h87.565104v5.208333h-87.565104zm0 0" fill="none" stroke="#000" stroke-linejoin="round" stroke-miterlimit="10" stroke-width="8.35409" transform="matrix(.06 0 0 -.06 0 648.98)"/><path d="m504.296875 504.378906h5.253906v-.3125h-5.253906zm0 0"/><path d="m7233.528646 3432.609375v-63.085937l890.364583-29.622396v63.085937zm0 0" fill="none" stroke="#000" stroke-linejoin="round" stroke-miterlimit="10" stroke-width="6.63968" transform="matrix(.06 0 0 -.06 0 648.98)"/><path d="m434.011719 443.023438v3.785156l53.421875 1.777344v-3.785157zm0 0"/><path d="m8866.536458 2750.578125h6.966146v462.890625h-6.966146zm0 0" fill="none" stroke="#000" stroke-linejoin="round" stroke-miterlimit="10" stroke-width="6.63968" transform="matrix(.06 0 0 -.06 0 648.98)"/><path d="m531.992188 483.945312h.417968v-27.773437h-.417968zm0 0"/><use x="520.767042" xlink:href="#ar" y="510.295723"/><use x="531.141437" xlink:href="#X" y="510.295723"/><use x="542.876875" xlink:href="#ab" y="510.295723"/><use x="548.82979" xlink:href="#aa" y="510.295723"/><use x="531.794364" xlink:href="#Q" y="453.633109"/><use x="38.388377" xlink:href="#M" y="462.350467"/><use x="46.266913" xlink:href="#M" y="449.274441"/><path d="m2400.260417 2997.127604h6.901041v400.390625h-6.901041zm0 0" fill="none" stroke="#000" stroke-linejoin="round" stroke-miterlimit="10" stroke-width="6.63968" transform="matrix(.06 0 0 -.06 0 648.98)"/><path d="m144.015625 469.152344h.414063v-24.023438h-.414063zm0 0"/><use x="132.985266" xlink:href="#ai" y="510.295723"/><path d="m1430.078125 3069.71875h6.901042v473.307292h-6.901042zm0 0" fill="none" stroke="#000" stroke-linejoin="round" stroke-miterlimit="10" stroke-width="6.63968" transform="matrix(.06 0 0 -.06 0 648.98)"/><path d="m85.800781 464.796875h.417969v-28.398437h-.417969zm0 0"/><use x="57.509915" xlink:href="#az" y="510.295723"/><use x="69.415276" xlink:href="#ac" y="510.295723"/><use x="81.320637" xlink:href="#at" y="510.295723"/><use x="93.225764" xlink:href="#aw" y="510.295723"/><use x="75.03445" xlink:href="#K" y="466.708935"/><use x="133.246966" xlink:href="#K" y="471.067614"/><use x="6.973714" xlink:href="#L" y="471.067614"/><path d="m5137.434896 2924.471354h6.901041v473.307292h-6.901041zm0 0" fill="none" stroke="#000" stroke-linejoin="round" stroke-miterlimit="10" stroke-width="6.63968" transform="matrix(.06 0 0 -.06 0 648.98)"/><path d="m308.246094 473.511719h.414062v-28.398438h-.414062zm0 0"/><use x="288.287577" xlink:href="#W" y="510.295723"/><use x="300.192938" xlink:href="#aA" y="510.295723"/><use x="312.098064" xlink:href="#aa" y="510.295723"/><use x="297.478375" xlink:href="#K" y="475.426253"/><path d="m4014.0625 2629.549479h6.901042v449.023438h-6.901042zm0 0" fill="none" stroke="#000" stroke-linejoin="round" stroke-miterlimit="10" stroke-width="6.63968" transform="matrix(.06 0 0 -.06 0 648.98)"/><path d="m240.84375 491.207031h.414062v-26.941406h-.414062zm0 0"/><use x="225.499451" xlink:href="#av" y="510.295723"/><use x="243.357732" xlink:href="#aj" y="510.295723"/><use x="255.263093" xlink:href="#ak" y="510.295723"/><use x="240.643181" xlink:href="#K" y="462.350427"/><path d="m3283.723958 2924.471354h6.966146v443.815104h-6.966146zm0 0" fill="none" stroke="#000" stroke-linejoin="round" stroke-miterlimit="10" stroke-width="6.63968" transform="matrix(.06 0 0 -.06 0 648.98)"/><path d="m197.023438 473.511719h.417968v-26.628907h-.417968zm0 0"/><use x="173.494347" xlink:href="#ag" y="510.295723"/><use x="180.637186" xlink:href="#ai" y="510.295723"/><use x="192.542547" xlink:href="#av" y="510.295723"/><use x="186.256373" xlink:href="#K" y="475.426253"/><g clip-path="url(#E)"><path d="m5.208333 1076.489583h9910.807292" style="fill:none;stroke-width:10.4317;stroke-linecap:round;stroke-linejoin:round;stroke:#000;stroke-miterlimit:10" transform="matrix(.06 0 0 -.06 0 648.98)"/></g><g clip-path="url(#F)"><path d="m5.208333 1221.736979h9910.807292" style="fill:none;stroke-width:10.4317;stroke-linecap:round;stroke-linejoin:round;stroke:#000;stroke-miterlimit:10" transform="matrix(.06 0 0 -.06 0 648.98)"/></g><g clip-path="url(#G)"><path d="m5.208333 1367.049479h9910.807292" style="fill:none;stroke-width:10.4317;stroke-linecap:round;stroke-linejoin:round;stroke:#000;stroke-miterlimit:10" transform="matrix(.06 0 0 -.06 0 648.98)"/></g><g clip-path="url(#H)"><path d="m5.208333 1512.296875h9910.807292" style="fill:none;stroke-width:10.4317;stroke-linecap:round;stroke-linejoin:round;stroke:#000;stroke-miterlimit:10" transform="matrix(.06 0 0 -.06 0 648.98)"/></g><g clip-path="url(#I)"><path d="m5.208333 1657.609375h9910.807292" style="fill:none;stroke-width:10.4317;stroke-linecap:round;stroke-linejoin:round;stroke:#000;stroke-miterlimit:10" transform="matrix(.06 0 0 -.06 0 648.98)"/></g><g clip-path="url(#J)"><path d="m9889.973958 1076.489583v581.119792" fill="none" stroke="#000" stroke-linejoin="round" stroke-miterlimit="10" stroke-width="62.6193" transform="matrix(.06 0 0 -.06 0 648.98)"/></g><path d="m9817.382812 1076.489583v581.119792" fill="none" stroke="#000" stroke-linejoin="round" stroke-miterlimit="10" stroke-width="19.8319" transform="matrix(.06 0 0 -.06 0 648.98)"/><path d="m6214.84375 1076.489583v581.119792" fill="none" stroke="#000" stroke-linejoin="round" stroke-miterlimit="10" stroke-width="19.8319" transform="matrix(.06 0 0 -.06 0 648.98)"/><use x="420.09984" xlink:href="#K" y="566.957936"/><use x="499.969875" xlink:href="#K" y="566.957936"/><use x="414.651549" xlink:href="#T" y="618.299539"/><use x="425.025975" xlink:href="#ai" y="618.299539"/><path d="m7181.119792 1398.950521h6.966145v405.859375h-6.966145zm0 0" fill="none" stroke="#000" stroke-linejoin="round" stroke-miterlimit="10" stroke-width="6.63968" transform="matrix(.06 0 0 -.06 0 648.98)"/><path d="m430.867188 565.042969h.417968v-24.351563h-.417968zm0 0"/><use x="459.027918" xlink:href="#K" y="562.599327"/><use x="451.027902" xlink:href="#am" y="618.299639"/><use x="461.743344" xlink:href="#X" y="618.299639"/><use x="473.648471" xlink:href="#V" y="618.299639"/><use x="474.393049" xlink:href="#O" y="562.599327"/><path d="m7829.947917 1471.606771h6.901041v365.885417h-6.901041zm0 0" fill="none" stroke="#000" stroke-linejoin="round" stroke-miterlimit="10" stroke-width="6.63968" transform="matrix(.06 0 0 -.06 0 648.98)"/><path d="m469.796875 560.683594h.414063v-21.953125h-.414063zm0 0"/><path d="m1646.09375 609.953125h87.5v5.208333h-87.5zm0 0" fill="none" stroke="#000" stroke-linejoin="round" stroke-miterlimit="10" stroke-width="8.35409" transform="matrix(.06 0 0 -.06 0 648.98)"/><path d="m98.765625 612.382812h5.25v-.3125h-5.25zm0 0"/><use x="378.992758" xlink:href="#K" y="580.033762"/><use x="376.350413" xlink:href="#X" y="618.299539"/><use x="388.255774" xlink:href="#V" y="618.299539"/><path d="m6496.028646 1180.981771h6.901041v589.257812h-6.901041zm0 0" fill="none" stroke="#000" stroke-linejoin="round" stroke-miterlimit="10" stroke-width="6.63968" transform="matrix(.06 0 0 -.06 0 648.98)"/><path d="m389.761719 578.121094h.414062v-35.355469h-.414062zm0 0"/><path d="m6686.783854 609.953125h87.565104v5.208333h-87.565104zm0 0" fill="none" stroke="#000" stroke-linejoin="round" stroke-miterlimit="10" stroke-width="8.35409" transform="matrix(.06 0 0 -.06 0 648.98)"/><path d="m401.207031 612.382812h5.253907v-.3125h-5.253907zm0 0"/><path d="m6496.028646 1804.809896v-63.085938l2023.177083 102.278646v63.085938zm0 0" fill="none" stroke="#000" stroke-linejoin="round" stroke-miterlimit="10" stroke-width="6.63968" transform="matrix(.06 0 0 -.06 0 648.98)"/><path d="m389.761719 540.691406v3.785156l121.390625-6.136718v-3.785156zm0 0"/><path d="m8359.244792 1783.065104v-63.085937l159.960937 8.398437v63.085938zm0 0" fill="none" stroke="#000" stroke-linejoin="round" stroke-miterlimit="10" stroke-width="6.63968" transform="matrix(.06 0 0 -.06 0 648.98)"/><path d="m501.554688 541.996094v3.785156l9.597656-.503906v-3.785156zm0 0"/><path d="m8698.567708 609.953125h87.5v5.208333h-87.5zm0 0" fill="none" stroke="#000" stroke-linejoin="round" stroke-miterlimit="10" stroke-width="8.35409" transform="matrix(.06 0 0 -.06 0 648.98)"/><path d="m521.914062 612.382812h5.25v-.3125h-5.25zm0 0"/><path d="m8057.617187 609.953125h87.5v5.208333h-87.5zm0 0" fill="none" stroke="#000" stroke-linejoin="round" stroke-miterlimit="10" stroke-width="8.35409" transform="matrix(.06 0 0 -.06 0 648.98)"/><path d="m483.457031 612.382812h5.25v-.3125h-5.25zm0 0"/><path d="m7355.859375 609.953125h87.565104v5.208333h-87.565104zm0 0" fill="none" stroke="#000" stroke-linejoin="round" stroke-miterlimit="10" stroke-width="8.35409" transform="matrix(.06 0 0 -.06 0 648.98)"/><path d="m441.351562 612.382812h5.253907v-.3125h-5.253907zm0 0"/><path d="m3568.098958 1078.3125v-63.020833l2006.640625-188.346355v63.151042zm0 0" fill="none" stroke="#000" stroke-linejoin="round" stroke-miterlimit="10" stroke-width="6.63968" transform="matrix(.06 0 0 -.06 0 648.98)"/><path d="m214.085938 584.28125v3.78125l120.398437 11.300781v-3.789062zm0 0"/><path d="m5310.026042 609.953125h87.565104v5.208333h-87.565104zm0 0" fill="none" stroke="#000" stroke-linejoin="round" stroke-miterlimit="10" stroke-width="8.35409" transform="matrix(.06 0 0 -.06 0 648.98)"/><path d="m318.601562 612.382812h5.253907v-.3125h-5.253907zm0 0"/><path d="m4703.515625 609.953125h87.5v5.208333h-87.5zm0 0" fill="none" stroke="#000" stroke-linejoin="round" stroke-miterlimit="10" stroke-width="8.35409" transform="matrix(.06 0 0 -.06 0 648.98)"/><path d="m282.210938 612.382812h5.25v-.3125h-5.25zm0 0"/><path d="m2151.106771 1137.622396v-63.020834l775.130208-29.6875v63.085938zm0 0" fill="none" stroke="#000" stroke-linejoin="round" stroke-miterlimit="10" stroke-width="6.63968" transform="matrix(.06 0 0 -.06 0 648.98)"/><path d="m129.066406 580.722656v3.78125l46.507813 1.78125v-3.785156zm0 0"/><path d="m4039.648437 609.953125h87.5v5.208333h-87.5zm0 0" fill="none" stroke="#000" stroke-linejoin="round" stroke-miterlimit="10" stroke-width="8.35409" transform="matrix(.06 0 0 -.06 0 648.98)"/><path d="m242.378906 612.382812h5.25v-.3125h-5.25zm0 0"/><path d="m9055.598958 886.059896h6.901042v438.671875h-6.901042zm0 0" fill="none" stroke="#000" stroke-linejoin="round" stroke-miterlimit="10" stroke-width="6.63968" transform="matrix(.06 0 0 -.06 0 648.98)"/><path d="m543.335938 595.816406h.414062v-26.320312h-.414062zm0 0"/><path d="m8512.304687 1398.950521h6.901042v472.916667h-6.901042zm0 0" fill="none" stroke="#000" stroke-linejoin="round" stroke-miterlimit="10" stroke-width="6.63968" transform="matrix(.06 0 0 -.06 0 648.98)"/><path d="m510.738281 565.042969h.414063v-28.375h-.414063zm0 0"/><use x="543.137086" xlink:href="#Q" y="566.957936"/><use x="549.118118" xlink:href="#S" y="546.908996"/><use x="531.514183" xlink:href="#ab" y="618.299539"/><use x="537.126549" xlink:href="#X" y="618.299539"/><use x="548.861753" xlink:href="#ab" y="618.299539"/><use x="554.814902" xlink:href="#ab" y="618.299539"/><use x="560.767817" xlink:href="#an" y="618.299539"/><use x="493.756108" xlink:href="#at" y="618.299539"/><use x="505.661234" xlink:href="#X" y="618.299539"/><path d="m2151.106771 1109.171875h6.901041v443.880208h-6.901041zm0 0" fill="none" stroke="#000" stroke-linejoin="round" stroke-miterlimit="10" stroke-width="6.63968" transform="matrix(.06 0 0 -.06 0 648.98)"/><path d="m129.066406 582.429688h.414063v-26.632813h-.414063zm0 0"/><use x="75.03435" xlink:href="#K" y="558.240619"/><use x="67.034334" xlink:href="#aB" y="618.299539"/><use x="82.512054" xlink:href="#ae" y="618.299539"/><use x="87.27434" xlink:href="#ag" y="618.299539"/><path d="m1253.90625 1007.153646h6.901042v473.307292h-6.901042zm0 0" fill="none" stroke="#000" stroke-linejoin="round" stroke-miterlimit="10" stroke-width="6.63968" transform="matrix(.06 0 0 -.06 0 648.98)"/><path d="m75.234375 588.550781h.414063v-28.398437h-.414063zm0 0"/><use x="128.865258" xlink:href="#K" y="553.88191"/><use x="108.364717" xlink:href="#W" y="618.299539"/><use x="120.269843" xlink:href="#X" y="618.299539"/><use x="132.175204" xlink:href="#Z" y="618.299539"/><use x="142.890632" xlink:href="#W" y="618.299539"/><use x="154.795758" xlink:href="#aq" y="618.299539"/><use x="174.95805" xlink:href="#K" y="558.240619"/><use x="174.696486" xlink:href="#al" y="618.299539"/><path d="m2919.270833 1080.005208h6.966146v400.390625h-6.966146zm0 0" fill="none" stroke="#000" stroke-linejoin="round" stroke-miterlimit="10" stroke-width="6.63968" transform="matrix(.06 0 0 -.06 0 648.98)"/><path d="m175.15625 584.179688h.417969v-24.023438h-.417969zm0 0"/><use x="6.973844" xlink:href="#L" y="575.675053"/><use x="38.388607" xlink:href="#M" y="566.957926"/><use x="46.267143" xlink:href="#M" y="553.8819"/><use x="251.978554" xlink:href="#Y" y="618.299529"/><use x="263.883915" xlink:href="#al" y="618.299529"/><path d="m4306.510417 980.460938h6.966145v427.278645h-6.966145zm0 0" fill="none" stroke="#000" stroke-linejoin="round" stroke-miterlimit="10" stroke-width="6.63968" transform="matrix(.06 0 0 -.06 0 648.98)"/><path d="m258.390625 590.152344h.417969v-25.636719h-.417969zm0 0"/><use x="297.120594" xlink:href="#K" y="566.957936"/><use x="293.882928" xlink:href="#W" y="618.299539"/><use x="305.788289" xlink:href="#aC" y="618.299539"/><path d="m4955.338542 919.783854h6.901041v415.364584h-6.901041zm0 0" fill="none" stroke="#000" stroke-linejoin="round" stroke-miterlimit="10" stroke-width="6.63968" transform="matrix(.06 0 0 -.06 0 648.98)"/><path d="m297.320312 593.792969h.414063v-24.921875h-.414063zm0 0"/><use x="333.869668" xlink:href="#K" y="575.675053"/><use x="330.717551" xlink:href="#ab" y="618.299539"/><use x="336.500544" xlink:href="#aA" y="618.299539"/><path d="m5567.773437 862.492188h6.966146v327.34375h-6.966146zm0 0" fill="none" stroke="#000" stroke-linejoin="round" stroke-miterlimit="10" stroke-width="6.63968" transform="matrix(.06 0 0 -.06 0 648.98)"/><path d="m334.066406 597.230469h.417969v-19.640625h-.417969zm0 0"/><use x="258.193516" xlink:href="#K" y="562.599327"/><use x="213.885728" xlink:href="#K" y="558.240649"/><use x="201.124402" xlink:href="#ad" y="618.299569"/><use x="215.411261" xlink:href="#am" y="618.299569"/><use x="226.126688" xlink:href="#al" y="618.299569"/><path d="m3568.098958 1049.471354h6.901042v430.924479h-6.901042zm0 0" fill="none" stroke="#000" stroke-linejoin="round" stroke-miterlimit="10" stroke-width="6.63968" transform="matrix(.06 0 0 -.06 0 648.98)"/><path d="m214.085938 586.011719h.414062v-25.855469h-.414062zm0 0"/></svg>