<svg height="687.79em" viewBox="0 0 595.28 687.79" width="595.28em" xmlns="http://www.w3.org/2000/svg" xmlns:xlink="http://www.w3.org/1999/xlink"><clipPath id="a"><path d="m0 75h595.28125v2h-595.28125zm0 0"/></clipPath><clipPath id="b"><path d="m0 64h595.28125v2h-595.28125zm0 0"/></clipPath><clipPath id="c"><path d="m0 53h595.28125v1h-595.28125zm0 0"/></clipPath><clipPath id="d"><path d="m0 41h595.28125v2h-595.28125zm0 0"/></clipPath><clipPath id="e"><path d="m0 30h595.28125v2h-595.28125zm0 0"/></clipPath><clipPath id="f"><path d="m0 210h595.28125v1h-595.28125zm0 0"/></clipPath><clipPath id="g"><path d="m0 198h595.28125v2h-595.28125zm0 0"/></clipPath><clipPath id="h"><path d="m0 187h595.28125v2h-595.28125zm0 0"/></clipPath><clipPath id="i"><path d="m0 176h595.28125v2h-595.28125zm0 0"/></clipPath><clipPath id="j"><path d="m0 165h595.28125v1h-595.28125zm0 0"/></clipPath><clipPath id="k"><path d="m0 344h595.28125v2h-595.28125zm0 0"/></clipPath><clipPath id="l"><path d="m0 333h595.28125v2h-595.28125zm0 0"/></clipPath><clipPath id="m"><path d="m0 322h595.28125v1h-595.28125zm0 0"/></clipPath><clipPath id="n"><path d="m0 310h595.28125v2h-595.28125zm0 0"/></clipPath><clipPath id="o"><path d="m0 299h595.28125v2h-595.28125zm0 0"/></clipPath><clipPath id="p"><path d="m0 478h595.28125v2h-595.28125zm0 0"/></clipPath><clipPath id="q"><path d="m0 467h595.28125v2h-595.28125zm0 0"/></clipPath><clipPath id="r"><path d="m0 456h595.28125v2h-595.28125zm0 0"/></clipPath><clipPath id="s"><path d="m0 445h595.28125v2h-595.28125zm0 0"/></clipPath><clipPath id="t"><path d="m0 434h595.28125v1h-595.28125zm0 0"/></clipPath><clipPath id="u"><path d="m0 613h595.28125v2h-595.28125zm0 0"/></clipPath><clipPath id="v"><path d="m0 602h595.28125v1h-595.28125zm0 0"/></clipPath><clipPath id="w"><path d="m0 591h595.28125v1h-595.28125zm0 0"/></clipPath><clipPath id="x"><path d="m0 579h595.28125v2h-595.28125zm0 0"/></clipPath><clipPath id="y"><path d="m0 568h595.28125v2h-595.28125zm0 0"/></clipPath><clipPath id="z"><path d="m591 566h4.28125v50h-4.28125zm0 0"/></clipPath><symbol id="A" overflow="visible"><path d="m9.953125-6.046875c-1.890625 0-3.671875.625-5.296875 1.609375-2.09375 1.25-4.65625 3.453125-4.65625 6.640625 0 2.640625 2.328125 3.84375 4.703125 3.84375 1.890625 0 3.6875-.625 5.296875-1.609375 2.109375-1.25 4.609375-3.453125 4.609375-6.640625 0-2.640625-2.28125-3.84375-4.65625-3.84375zm0 0"/></symbol><symbol id="B" overflow="visible"><path d="m6.359375 0c.1875 0 .359375-.171875.359375-.359375v-10.484375c0-.1875-.171875-.359375-.359375-.359375h-6c-.1875 0-.359375.171875-.359375.359375v10.484375c0 .1875.171875.359375.359375.359375zm0 0"/></symbol><symbol id="C" overflow="visible"><path d="m1.125-1.96875c.046875-1.484375 1.03125-2.78125 2.421875-2.78125 1.34375 0 1.96875 1.5625 1.96875 3.09375 0 2.640625-2.25 4.53125-4.3125 6.234375-.078125-.984375-.171875-1.984375-.171875-2.96875 0-.171875.046875-.3125.046875-.484375zm-2.25-18.78125.5 26.84375c0 .546875.40625.9375.9375.9375.8125 0 1.171875-.9375 1.796875-1.421875 2.828125-2.296875 6.859375-3.90625 6.859375-7.578125 0-2.421875-1.796875-4.484375-4.171875-4.484375-1.4375 0-2.78125.484375-3.9375 1.34375l.265625-15.640625c-.359375-.1875-.71875-.3125-1.125-.3125s-.765625.125-1.125.3125zm0 0"/></symbol><symbol id="D" overflow="visible"><path d="m16.765625-11.65625c-.71875-3.140625-1.5625-6.234375-2.46875-9.328125 4.3125-4.875 8.203125-9.90625 8.203125-16.359375 0-5.0625-2.78125-12.328125-5.90625-16.09375-.234375-.171875-.5-.171875-.71875 0-4.265625 3.09375-6.734375 8.03125-6.734375 13.234375 0 2.328125.046875 4.609375.3125 6.890625.3125 2.921875 1.078125 5.75 1.890625 8.5625-5.296875 6.015625-11.25 11.75-11.25 19.734375 0 9 6.5 16.671875 14.921875 16.671875 1.390625 0 2.6875-.140625 3.984375-.359375.140625 1.4375.234375 2.875.234375 4.296875 0 .8125-.046875 1.578125-.09375 2.375-.265625 4.453125-3 8.53125-7.171875 8.609375-.046875 0-.09375.046875-.140625.046875-2.28125 0-4.25-1.296875-5.421875-3.140625.5.234375 1.03125.40625 1.578125.40625 2.328125 0 4.25-1.921875 4.25-4.25 0-2.515625-1.828125-4.671875-4.25-4.671875-2.65625 0-5.03125 2.0625-5.03125 4.671875 0 4.828125 3.90625 8.734375 8.75 8.734375 5.28125 0 8.921875-4.75 9.234375-10.125.046875-.859375.046875-1.65625.046875-2.515625 0-1.609375-.09375-3.234375-.234375-4.84375 1.171875-.359375 2.296875-.890625 3.28125-1.65625 3.3125-2.46875 4.796875-5.921875 4.796875-9.328125 0-5.90625-4.484375-11.609375-11.390625-11.609375-.21875 0-.453125.046875-.671875.046875zm3.8125 20.84375c-.625-5.5625-1.65625-10.84375-2.78125-16.09375 4.9375.40625 8.03125 4.53125 8.03125 8.65625 0 3.140625-2.15625 6.359375-5.25 7.4375zm-17.390625-10.578125c0-7.171875 4.84375-12.59375 9.671875-18.015625.71875 2.640625 1.4375 5.28125 2.0625 7.96875-4.515625 1.03125-7.078125 4.84375-7.078125 8.796875 0 3.140625 1.609375 6.3125 5.203125 8.25.125.03125.265625.078125.40625.078125.484375 0 .890625-.4375.890625-.9375 0-.21875-.140625-.453125-.3125-.625-2.515625-1.4375-3.671875-3.59375-3.671875-5.5625 0-2.640625 2.0625-5.015625 5.59375-5.421875 1.171875 5.375 2.203125 10.71875 2.875 16.453125-1.203125.171875-2.421875.265625-3.671875.265625-6.09375 0-11.96875-5.15625-11.96875-11.25zm15.234375-45.671875c.765625 2.375.9375 3.53125.9375 6.140625 0 5.6875-3 10.21875-6.671875 14.5625-.8125-2.828125-1.484375-5.5625-1.484375-8.96875 0-4.96875 2.78125-9.5 7.21875-11.734375zm0 0"/></symbol><symbol id="E" overflow="visible"><path d="m6.359375 11.203125c.1875 0 .359375-.171875.359375-.359375v-21.6875c0-.1875-.171875-.359375-.359375-.359375h-6c-.1875 0-.359375.171875-.359375.359375v21.6875c0 .1875.171875.359375.359375.359375zm0 0"/></symbol><symbol id="F" overflow="visible"><path d="m-2.828125-2.109375c0 1.578125 1.265625 2.828125 2.828125 2.828125s2.828125-1.25 2.828125-2.828125c0-1.5625-1.265625-2.828125-2.828125-2.828125s-2.828125 1.265625-2.828125 2.828125zm2.828125-14.03125c-6.953125 0-14.75 7.75-14.75 16.234375 0 .359375.359375.625.71875.625.3125 0 .671875-.21875.765625-.71875 1.15625-6.671875 6.59375-11.875 13.265625-11.875s12.109375 5.203125 13.265625 11.875c.09375.5.453125.71875.765625.71875.359375 0 .71875-.265625.71875-.625 0-8.484375-7.75-16.234375-14.75-16.234375zm0 0"/></symbol><symbol id="G" overflow="visible"><path d="m12.640625 0v-2.015625h-8.984375l8.609375-10.4375v-2.046875h-10.828125v2.015625h8.078125l-8.65625 10.40625v2.078125zm0 0"/></symbol><symbol id="H" overflow="visible"><path d="m5.015625 0v-14.5h-2.296875v14.5zm3.5-20.171875h-3.125l-2.65625 4.09375h1.671875zm0 0"/></symbol><symbol id="I" overflow="visible"><path d="m13.453125-14.5h-2.609375l-4.09375 11.765625-3.875-11.765625h-2.59375l5.09375 14.5h2.515625zm0 0"/></symbol><symbol id="J" overflow="visible"><path d="m14.203125-6.578125c0-2.109375-.171875-3.4375-.59375-4.515625-.9375-2.375-3.15625-3.828125-5.859375-3.828125-4.046875 0-6.640625 3-6.640625 7.75 0 4.765625 2.515625 7.59375 6.578125 7.59375 3.328125 0 5.625-1.890625 6.203125-4.828125h-2.328125c-.625 1.921875-1.9375 2.6875-3.78125 2.6875-2.40625 0-4.21875-1.546875-4.265625-4.859375zm-2.46875-2.0625s0 .125-.03125.171875h-8.140625c.203125-2.578125 1.828125-4.3125 4.15625-4.3125 2.265625 0 4.015625 1.875 4.015625 4.140625zm0 0"/></symbol><symbol id="K" overflow="visible"><path d="m5.34375 0v-20.171875h-2.578125v20.171875zm0 0"/></symbol><symbol id="L" overflow="visible"><path d="m13.703125 0v-20.171875h-2.296875v7.5c-.96875-1.46875-2.53125-2.25-4.453125-2.25-3.765625 0-6.234375 2.90625-6.234375 7.53125 0 4.90625 2.40625 7.8125 6.3125 7.8125 1.984375 0 3.375-.75 4.625-2.546875v2.125zm-2.296875-7.1875c0 3.34375-1.609375 5.4375-4.046875 5.4375-2.546875 0-4.234375-2.125-4.234375-5.5s1.6875-5.5 4.203125-5.5c2.5 0 4.078125 2.203125 4.078125 5.5625zm0 0"/></symbol><symbol id="M" overflow="visible"><path d="m7.03125 0v-1.9375c-.3125.078125-.671875.109375-1.109375.109375-1 0-1.265625-.28125-1.265625-1.296875v-9.5h2.375v-1.875h-2.375v-3.984375h-2.296875v3.984375h-1.96875v1.875h1.96875v10.515625c0 1.46875.984375 2.296875 2.78125 2.296875.5625 0 1.109375-.046875 1.890625-.1875zm0 0"/></symbol><symbol id="N" overflow="visible"><path d="m14.109375-7.140625c0-5-2.40625-7.78125-6.578125-7.78125-4.078125 0-6.53125 2.796875-6.53125 7.671875s2.4375 7.671875 6.546875 7.671875c4.078125 0 6.5625-2.796875 6.5625-7.5625zm-2.40625-.03125c0 3.40625-1.609375 5.453125-4.15625 5.453125-2.5625 0-4.140625-2.015625-4.140625-5.53125 0-3.484375 1.578125-5.53125 4.140625-5.53125 2.609375 0 4.15625 2.015625 4.15625 5.609375zm-1.609375-13.03125h-3.125l-2.65625 4.15625h1.671875zm4.546875 0h-3.125l-2.65625 4.15625h1.65625zm0 0"/></symbol><symbol id="O" overflow="visible"><path d="m13.46875 0v-10.953125c0-2.40625-1.796875-3.96875-4.59375-3.96875-2.15625 0-3.53125.84375-4.8125 2.859375v-2.4375h-2.125v14.5h2.296875v-8c0-2.953125 1.609375-4.890625 3.953125-4.890625 1.828125 0 2.984375 1.109375 2.984375 2.84375v10.046875zm0 0"/></symbol><symbol id="P" overflow="visible"><path d="m13.890625 0-5.921875-9.484375 5.03125-5.015625h-2.953125l-6.140625 6.140625v-11.8125h-2.296875v20.171875h2.296875v-5.640625l2.234375-2.21875 4.90625 7.859375zm0 0"/></symbol><symbol id="Q" overflow="visible"><path d="m5.3125.4375v-3.3125h-2.90625v2.875h1.65625v.5c0 1.90625-.359375 2.453125-1.65625 2.515625v1.046875c1.9375 0 2.90625-1.234375 2.90625-3.625zm0 0"/></symbol><symbol id="R" overflow="visible"><path d="m11.78125-5.171875v-15h-2.5625v14.0625c0 3.3125-1.140625 4.453125-3.109375 4.453125-1.9375 0-3.015625-1.296875-3.015625-3.65625v-1.15625h-2.5625v1.625c0 3.265625 2.046875 5.34375 5.5625 5.34375s5.6875-2.1875 5.6875-5.671875zm0 0"/></symbol><symbol id="S" overflow="visible"><path d="m14.203125-6.578125c0-2.109375-.171875-3.4375-.59375-4.515625-.9375-2.375-3.15625-3.828125-5.859375-3.828125-4.046875 0-6.640625 3-6.640625 7.75 0 4.765625 2.515625 7.59375 6.578125 7.59375 3.328125 0 5.625-1.890625 6.203125-4.828125h-2.328125c-.625 1.921875-1.9375 2.6875-3.78125 2.6875-2.40625 0-4.21875-1.546875-4.265625-4.859375zm-2.46875-2.0625s0 .125-.03125.171875h-8.140625c.203125-2.578125 1.828125-4.3125 4.15625-4.3125 2.265625 0 4.015625 1.875 4.015625 4.140625zm.96875-11.53125h-3.125l-2.65625 4.09375h1.65625zm0 0"/></symbol><symbol id="T" overflow="visible"><path d="m21.03125 0v-10.875c0-2.59375-1.4375-4.046875-4.15625-4.046875-1.9375 0-3.09375.59375-4.453125 2.21875-.859375-1.546875-2.015625-2.21875-3.90625-2.21875-1.9375 0-3.203125.71875-4.453125 2.46875v-2.046875h-2.09375v14.5h2.296875v-9.109375c0-2.09375 1.515625-3.78125 3.40625-3.78125 1.703125 0 2.671875 1.046875 2.671875 2.90625v9.984375h2.296875v-9.109375c0-2.09375 1.5625-3.78125 3.4375-3.78125 1.6875 0 2.65625 1.078125 2.65625 2.90625v9.984375zm0 0"/></symbol><symbol id="U" overflow="visible"><path d="m4.234375 0v-14.5h-2.296875v14.5zm.296875-16.6875v-2.875h-2.875v2.875zm0 0"/></symbol><symbol id="V" overflow="visible"><path d="m14.109375-7.140625c0-5-2.40625-7.78125-6.578125-7.78125-4.078125 0-6.53125 2.796875-6.53125 7.671875s2.4375 7.671875 6.546875 7.671875c4.078125 0 6.5625-2.796875 6.5625-7.5625zm-2.40625-.03125c0 3.40625-1.609375 5.453125-4.15625 5.453125-2.5625 0-4.140625-2.015625-4.140625-5.53125 0-3.484375 1.578125-5.53125 4.140625-5.53125 2.609375 0 4.15625 2.015625 4.15625 5.609375zm.9375-13h-3.125l-2.65625 4.09375h1.65625zm0 0"/></symbol><symbol id="W" overflow="visible"><path d="m13.34375 0v-14.5h-2.296875v8c0 2.953125-1.5625 4.890625-3.96875 4.890625-1.828125 0-2.984375-1.109375-2.984375-2.84375v-10.046875h-2.296875v10.953125c0 2.40625 1.796875 3.96875 4.625 3.96875 2.125 0 3.484375-.75 4.84375-2.65625v2.234375zm0 0"/></symbol><symbol id="X" overflow="visible"><path d="m12.703125-4.0625c0-2.15625-1.21875-3.25-4.09375-3.9375l-2.21875-.515625c-1.875-.453125-2.6875-1.0625-2.6875-2.078125 0-1.328125 1.1875-2.1875 3.078125-2.1875 1.859375 0 2.84375.796875 2.90625 2.328125h2.4375c-.03125-2.859375-1.921875-4.46875-5.265625-4.46875-3.375 0-5.5625 1.75-5.5625 4.4375 0 2.265625 1.171875 3.34375 4.59375 4.171875l2.15625.53125c1.609375.390625 2.25.859375 2.25 1.90625 0 1.359375-1.359375 2.15625-3.375 2.15625-2.078125 0-3.234375-.5-3.546875-2.703125h-2.4375c.109375 3.34375 2 4.84375 5.78125 4.84375 3.65625 0 5.984375-1.6875 5.984375-4.484375zm0 0"/></symbol><symbol id="Y" overflow="visible"><path d="m13.34375 0v-14.5h-2.296875v8c0 2.953125-1.5625 4.890625-3.96875 4.890625-1.828125 0-2.984375-1.109375-2.984375-2.84375v-10.046875h-2.296875v10.953125c0 2.40625 1.796875 3.96875 4.625 3.96875 2.125 0 3.484375-.75 4.84375-2.65625v2.234375zm-6.640625-16.71875v-2.8125h-2.53125v2.8125zm4.46875 0v-2.8125h-2.515625v2.8125zm0 0"/></symbol><symbol id="Z" overflow="visible"><path d="m13.453125 0v-10.953125c0-2.4375-1.75-3.96875-4.578125-3.96875-2.046875 0-3.28125.640625-4.640625 2.421875v-7.671875h-2.296875v20.171875h2.296875v-8c0-2.953125 1.546875-4.890625 3.921875-4.890625 1.640625 0 3 .9375 3 2.84375v10.046875zm0 0"/></symbol><symbol id="aa" overflow="visible"><path d="m13.53125-2.375v-12.125h-2.125v2.109375c-1.171875-1.71875-2.578125-2.53125-4.4375-2.53125-3.671875 0-6.171875 3.109375-6.171875 7.8125 0 4.5625 2.578125 7.53125 5.984375 7.53125 1.828125 0 3.09375-.78125 4.625-2.609375v.96875c0 3.84375-1.578125 5.3125-4.265625 5.3125-1.828125 0-3.234375-.65625-3.515625-2.4375h-2.359375c.25 2.75 2.390625 4.375 5.796875 4.375 4.53125 0 6.46875-2.015625 6.46875-8.40625zm-2.359375-4.796875c0 3.46875-1.484375 5.453125-3.921875 5.453125-2.515625 0-4.046875-2.015625-4.046875-5.53125 0-3.484375 1.5625-5.53125 4.015625-5.53125 2.5 0 3.953125 2.09375 3.953125 5.609375zm0 0"/></symbol><symbol id="ab" overflow="visible"><path d="m13.234375-14.5h-2.5l-4.015625 11.296875-3.703125-11.296875h-2.46875l4.90625 14.5625-.890625 2.296875c-.390625 1.015625-.859375 1.40625-1.84375 1.40625-.34375 0-.71875-.0625-1.21875-.171875v2.078125c.46875.25.9375.359375 1.546875.359375 1.625 0 2.953125-.90625 3.734375-2.984375zm0 0"/></symbol><symbol id="ac" overflow="visible"><path d="m14.109375-7.140625c0-5-2.40625-7.78125-6.578125-7.78125-4.078125 0-6.53125 2.796875-6.53125 7.671875s2.4375 7.671875 6.546875 7.671875c4.078125 0 6.5625-2.796875 6.5625-7.5625zm-2.40625-.03125c0 3.40625-1.609375 5.453125-4.15625 5.453125-2.5625 0-4.140625-2.015625-4.140625-5.53125 0-3.484375 1.578125-5.53125 4.140625-5.53125 2.609375 0 4.15625 2.015625 4.15625 5.609375zm0 0"/></symbol><symbol id="ad" overflow="visible"><path d="m14.46875-7.421875c0-4.703125-2.375-7.5-6.1875-7.5-2 0-3.40625.75-4.484375 2.390625v-7.640625h-2.296875v20.171875h2.0625v-2.078125c1.109375 1.6875 2.578125 2.5 4.59375 2.5 3.828125 0 6.3125-3.140625 6.3125-7.84375zm-2.40625.140625c0 3.296875-1.71875 5.53125-4.234375 5.53125-2.4375 0-4.03125-2.203125-4.03125-5.5 0-3.40625 1.59375-5.625 4.03125-5.5 2.578125 0 4.234375 2.234375 4.234375 5.46875zm0 0"/></symbol><symbol id="ae" overflow="visible"><path d="m14.796875-.0625v-1.734375c-.234375.046875-.359375.046875-.484375.046875-.8125 0-1.25-.40625-1.25-1.125v-8.078125c0-2.578125-1.890625-3.96875-5.453125-3.96875-3.515625 0-5.671875 1.359375-5.8125 4.71875h2.328125c.1875-1.78125 1.25-2.578125 3.40625-2.578125 2.078125 0 3.234375.765625 3.234375 2.15625v.609375c0 .96875-.578125 1.375-2.40625 1.609375-3.265625.40625-3.765625.515625-4.65625.875-1.6875.703125-2.546875 2-2.546875 3.765625 0 2.625 1.828125 4.1875 4.765625 4.1875 1.859375 0 3.65625-.78125 4.921875-2.140625.25 1.109375 1.25 1.90625 2.390625 1.90625.46875 0 .828125-.046875 1.5625-.25zm-4.03125-4.953125c0 2.078125-2.109375 3.40625-4.34375 3.40625-1.796875 0-2.859375-.625-2.859375-2.203125 0-1.53125 1.03125-2.1875 3.5-2.546875 2.421875-.34375 2.921875-.453125 3.703125-.8125zm0 0"/></symbol><symbol id="af" overflow="visible"><path d="m18.203125 0-8.296875-11.953125 8.21875-8.21875h-3.328125l-10.03125 10.203125v-10.203125h-2.578125v20.171875h2.578125v-7.0625l3.28125-3.28125 7.125 10.34375zm0 0"/></symbol><symbol id="ag" overflow="visible"><path d="m4.171875 0v-20.171875h-2.296875v20.171875zm0 0"/></symbol><symbol id="ah" overflow="visible"><path d="m8.875-12.484375v-2.34375c-.375-.0625-.578125-.09375-.875-.09375-1.5 0-2.625.890625-3.953125 3.046875v-2.625h-2.109375v14.5h2.296875v-7.53125c0-3.265625 1.078125-4.890625 4.640625-4.953125zm0 0"/></symbol><symbol id="ai" overflow="visible"><path d="m5.3125-11.625v-2.875h-2.875v2.875zm0 12.0625v-3.3125h-2.90625v2.875h1.65625v.5c0 1.90625-.359375 2.453125-1.65625 2.515625v1.046875c1.9375 0 2.90625-1.234375 2.90625-3.625zm0 0"/></symbol><symbol id="aj" overflow="visible"><path d="m14.796875-.0625v-1.734375c-.234375.046875-.359375.046875-.484375.046875-.8125 0-1.25-.40625-1.25-1.125v-8.078125c0-2.578125-1.890625-3.96875-5.453125-3.96875-3.515625 0-5.671875 1.359375-5.8125 4.71875h2.328125c.1875-1.78125 1.25-2.578125 3.40625-2.578125 2.078125 0 3.234375.765625 3.234375 2.15625v.609375c0 .96875-.578125 1.375-2.40625 1.609375-3.265625.40625-3.765625.515625-4.65625.875-1.6875.703125-2.546875 2-2.546875 3.765625 0 2.625 1.828125 4.1875 4.765625 4.1875 1.859375 0 3.65625-.78125 4.921875-2.140625.25 1.109375 1.25 1.90625 2.390625 1.90625.46875 0 .828125-.046875 1.5625-.25zm-4.03125-4.953125c0 2.078125-2.109375 3.40625-4.34375 3.40625-1.796875 0-2.859375-.625-2.859375-2.203125 0-1.53125 1.03125-2.1875 3.5-2.546875 2.421875-.34375 2.921875-.453125 3.703125-.8125zm1.796875-15.15625h-3.125l-2.65625 4.09375h1.65625zm0 0"/></symbol><symbol id="ak" overflow="visible"><path d="m16.96875 0v-2.265625h-11.90625v-6.921875h10.984375v-2.265625h-10.984375v-6.453125h11.40625v-2.265625h-13.984375v20.171875zm-1.53125-25.34375h-3.765625l-3.171875 3.671875h1.984375zm0 0"/></symbol><symbol id="al" overflow="visible"><path d="m5.015625-10.8125v-9.359375h-2.296875v9.359375l.609375 6.15625h1.078125zm0 10.8125v-2.875h-2.328125v2.875zm0 0"/></symbol><symbol id="am" overflow="visible"><path d="m9.3125 0v-17.484375h-2.28125c-.546875 2.078125-2.34375 3.140625-5.359375 3.140625v2.28125h4.203125v12.0625zm0 0"/></symbol><symbol id="an" overflow="visible"><path d="m5.28125 0v-3.59375h-3.703125v3.59375zm0 0"/></symbol><g clip-path="url(#a)"><path d="m5.924479 10198.713542h9909.375" fill="none" stroke="#000" stroke-linecap="round" stroke-miterlimit="10" stroke-width="11.8618" transform="matrix(.06 0 0 -.06 0 687.79)"/></g><g clip-path="url(#b)"><path d="m5.924479 10385.497396h9909.375" fill="none" stroke="#000" stroke-linecap="round" stroke-miterlimit="10" stroke-width="11.8618" transform="matrix(.06 0 0 -.06 0 687.79)"/></g><g clip-path="url(#c)"><path d="m5.924479 10572.28125h9909.375" fill="none" stroke="#000" stroke-linecap="round" stroke-miterlimit="10" stroke-width="11.8618" transform="matrix(.06 0 0 -.06 0 687.79)"/></g><g clip-path="url(#d)"><path d="m5.924479 10759.130208h9909.375" fill="none" stroke="#000" stroke-linecap="round" stroke-miterlimit="10" stroke-width="11.8618" transform="matrix(.06 0 0 -.06 0 687.79)"/></g><g clip-path="url(#e)"><path d="m5.924479 10945.914062h9909.375" fill="none" stroke="#000" stroke-linecap="round" stroke-miterlimit="10" stroke-width="11.8618" transform="matrix(.06 0 0 -.06 0 687.79)"/></g><use x="530.11906" xlink:href="#A" y="64.656754"/><path d="m7981.184896 10519.026042h8.789062v610.351562h-8.789062zm0 0" style="fill:none;stroke-width:6.65006;stroke-linecap:round;stroke-linejoin:round;stroke:#000;stroke-miterlimit:10" transform="matrix(.06 0 0 -.06 0 687.79)"/><path d="m478.871094 56.648438h.527344v-36.621094h-.527344zm0 0"/><use x="461.564923" xlink:href="#G" y="115.092855"/><use x="475.341964" xlink:href="#H" y="115.092855"/><use x="464.9622" xlink:href="#A" y="59.052743"/><path d="m6988.802083 10612.385417h8.789063v516.731771h-8.789063zm0 0" style="fill:none;stroke-width:6.65006;stroke-linecap:round;stroke-linejoin:round;stroke:#000;stroke-miterlimit:10" transform="matrix(.06 0 0 -.06 0 687.79)"/><path d="m419.328125 51.046875h.527344v-31.003906h-.527344zm0 0"/><use x="398.449797" xlink:href="#I" y="115.092855"/><use x="411.71543" xlink:href="#J" y="115.092855"/><use x="405.418951" xlink:href="#A" y="53.448831"/><path d="m5996.419271 10519.026042h8.723958v571.809896h-8.723958zm0 0" style="fill:none;stroke-width:6.65006;stroke-linecap:round;stroke-linejoin:round;stroke:#000;stroke-miterlimit:10" transform="matrix(.06 0 0 -.06 0 687.79)"/><path d="m359.785156 56.648438h.523438v-34.308594h-.523438zm0 0"/><use x="341.712683" xlink:href="#K" y="115.092855"/><use x="349.366675" xlink:href="#L" y="115.092855"/><use x="345.875422" xlink:href="#A" y="59.052743"/><path d="m2126.627604 9671.109375h113.802083v5.924479h-113.802083zm0 0" style="fill:none;stroke-width:9.48941;stroke-linecap:round;stroke-linejoin:round;stroke:#000;stroke-miterlimit:10" transform="matrix(.06 0 0 -.06 0 687.79)"/><path d="m127.597656 107.523438h6.828125v-.355469h-6.828125zm0 0"/><path d="m4011.588542 10948.518229v-83.007812l1001.171875 38.867187v83.007813zm0 0" fill="none" stroke="#000" stroke-linejoin="round" stroke-miterlimit="10" stroke-width="6.65006" transform="matrix(.06 0 0 -.06 0 687.79)"/><path d="m240.695312 30.878906v4.980469l60.070313-2.332031v-4.980469zm0 0"/><path d="m5996.419271 11135.302083v-83.007812l1001.171875 38.932291v82.942709zm0 0" fill="none" stroke="#000" stroke-linejoin="round" stroke-miterlimit="10" stroke-width="6.65006" transform="matrix(.06 0 0 -.06 0 687.79)"/><path d="m359.785156 19.671875v4.980469l60.070313-2.335938v-4.976562zm0 0"/><path d="m6302.473958 9671.109375h113.802084v5.924479h-113.802084zm0 0" fill="none" stroke="#000" stroke-linejoin="round" stroke-miterlimit="10" stroke-width="9.48941" transform="matrix(.06 0 0 -.06 0 687.79)"/><path d="m378.148438 107.523438h6.828124v-.355469h-6.828124zm0 0"/><path d="m7347.981771 9671.109375h113.802083v5.924479h-113.802083zm0 0" fill="none" stroke="#000" stroke-linejoin="round" stroke-miterlimit="10" stroke-width="9.48941" transform="matrix(.06 0 0 -.06 0 687.79)"/><path d="m440.878906 107.523438h6.828125v-.355469h-6.828125zm0 0"/><path d="m8198.632812 9671.109375h113.802084v5.924479h-113.802084zm0 0" fill="none" stroke="#000" stroke-linejoin="round" stroke-miterlimit="10" stroke-width="9.48941" transform="matrix(.06 0 0 -.06 0 687.79)"/><path d="m491.917969 107.523438h6.828125v-.355469h-6.828125zm0 0"/><use x="507.674015" xlink:href="#M" y="115.092855"/><use x="515.157645" xlink:href="#N" y="115.092855"/><use x="530.464222" xlink:href="#O" y="115.092855"/><use x="545.771034" xlink:href="#P" y="115.092855"/><use x="559.54784" xlink:href="#Q" y="115.092855"/><use x="578.464757" xlink:href="#B" y="42.240709"/><path d="m9067.122396 10425.601562h8.789062v610.416667h-8.789062zm0 0" fill="none" stroke="#000" stroke-linejoin="round" stroke-miterlimit="10" stroke-width="6.65006" transform="matrix(.06 0 0 -.06 0 687.79)"/><path d="m544.027344 62.253906h.527344v-36.625h-.527344zm0 0"/><path d="m1839.713542 10425.601562h8.789062v610.416667h-8.789062zm0 0" fill="none" stroke="#000" stroke-linejoin="round" stroke-miterlimit="10" stroke-width="6.65006" transform="matrix(.06 0 0 -.06 0 687.79)"/><path d="m110.382812 62.253906h.523438v-36.625h-.523438zm0 0"/><use x="57.461115" xlink:href="#am" y="115.092855"/><use x="71.237942" xlink:href="#an" y="115.092855"/><use x="89.249178" xlink:href="#R" y="115.092855"/><use x="103.025992" xlink:href="#S" y="115.092855"/><use x="49.356599" xlink:href="#C" y="53.448831"/><use x="59.486319" xlink:href="#C" y="36.636798"/><use x="8.966418" xlink:href="#D" y="64.656854"/><use x="96.472634" xlink:href="#A" y="64.656854"/><path d="m4011.588542 10332.177083h8.789062v571.809896h-8.789062zm0 0" fill="none" stroke="#000" stroke-linejoin="round" stroke-miterlimit="10" stroke-width="6.65006" transform="matrix(.06 0 0 -.06 0 687.79)"/><path d="m240.695312 67.859375h.527344v-34.308594h-.527344zm0 0"/><path d="m5003.971354 10425.601562h8.789063v516.731771h-8.789063zm0 0" fill="none" stroke="#000" stroke-linejoin="round" stroke-miterlimit="10" stroke-width="6.65006" transform="matrix(.06 0 0 -.06 0 687.79)"/><path d="m300.238281 62.253906h.527344v-31.003906h-.527344zm0 0"/><use x="279.021558" xlink:href="#T" y="115.092855"/><use x="302.152524" xlink:href="#U" y="115.092855"/><use x="286.330323" xlink:href="#A" y="64.656854"/><use x="222.623995" xlink:href="#V" y="115.092855"/><use x="237.930807" xlink:href="#Q" y="115.092855"/><use x="226.786734" xlink:href="#A" y="70.260765"/><use x="161.630103" xlink:href="#A" y="64.656844"/><use x="143.690567" xlink:href="#G" y="115.092845"/><use x="157.467389" xlink:href="#W" y="115.092845"/><use x="172.7742" xlink:href="#X" y="115.092845"/><use x="186.551021" xlink:href="#Q" y="115.092845"/><path d="m2925.651042 10425.601562h8.789062v610.416667h-8.789062zm0 0" fill="none" stroke="#000" stroke-linejoin="round" stroke-miterlimit="10" stroke-width="6.65006" transform="matrix(.06 0 0 -.06 0 687.79)"/><path d="m175.539062 62.253906h.527344v-36.625h-.527344zm0 0"/><g clip-path="url(#f)"><path d="m5.924479 7957.177083h9909.375" style="fill:none;stroke-width:11.8618;stroke-linecap:round;stroke-linejoin:round;stroke:#000;stroke-miterlimit:10" transform="matrix(.06 0 0 -.06 0 687.79)"/></g><g clip-path="url(#g)"><path d="m5.924479 8143.960938h9909.375" style="fill:none;stroke-width:11.8618;stroke-linecap:round;stroke-linejoin:round;stroke:#000;stroke-miterlimit:10" transform="matrix(.06 0 0 -.06 0 687.79)"/></g><g clip-path="url(#h)"><path d="m5.924479 8330.744792h9909.375" style="fill:none;stroke-width:11.8618;stroke-linecap:round;stroke-linejoin:round;stroke:#000;stroke-miterlimit:10" transform="matrix(.06 0 0 -.06 0 687.79)"/></g><g clip-path="url(#i)"><path d="m5.924479 8517.528646h9909.375" style="fill:none;stroke-width:11.8618;stroke-linecap:round;stroke-linejoin:round;stroke:#000;stroke-miterlimit:10" transform="matrix(.06 0 0 -.06 0 687.79)"/></g><g clip-path="url(#j)"><path d="m5.924479 8704.3125h9909.375" style="fill:none;stroke-width:11.8618;stroke-linecap:round;stroke-linejoin:round;stroke:#000;stroke-miterlimit:10" transform="matrix(.06 0 0 -.06 0 687.79)"/></g><path d="m8677.669271 8184h8.723958v610.416667h-8.723958zm0 0" style="fill:none;stroke-width:6.65006;stroke-linecap:round;stroke-linejoin:round;stroke:#000;stroke-miterlimit:10" transform="matrix(.06 0 0 -.06 0 687.79)"/><path d="m520.660156 196.75h.523438v-36.625h-.523438zm0 0"/><use x="484.217968" xlink:href="#M" y="249.588124"/><use x="491.871755" xlink:href="#Y" y="249.588124"/><use x="507.178566" xlink:href="#O" y="249.588124"/><use x="522.485378" xlink:href="#P" y="249.588124"/><use x="536.262184" xlink:href="#Q" y="249.588124"/><use x="506.749413" xlink:href="#A" y="199.152123"/><path d="m7202.213542 8277.424479h8.723958v610.416667h-8.723958zm0 0" style="fill:none;stroke-width:6.65006;stroke-linecap:round;stroke-linejoin:round;stroke:#000;stroke-miterlimit:10" transform="matrix(.06 0 0 -.06 0 687.79)"/><path d="m432.128906 191.144531h.527344v-36.625h-.527344zm0 0"/><use x="414.82483" xlink:href="#Z" y="249.588124"/><use x="430.131641" xlink:href="#U" y="249.588124"/><use x="418.221866" xlink:href="#A" y="193.548012"/><path d="m5637.890625 7773.908854h8.789062v516.796875h-8.789062zm0 0" style="fill:none;stroke-width:6.65006;stroke-linecap:round;stroke-linejoin:round;stroke:#000;stroke-miterlimit:10" transform="matrix(.06 0 0 -.06 0 687.79)"/><path d="m338.273438 221.355469h.527343v-31.003907h-.527343zm0 0"/><use x="315.799632" xlink:href="#aa" y="249.588124"/><use x="331.106209" xlink:href="#ab" y="249.588124"/><use x="344.372077" xlink:href="#ac" y="249.588124"/><use x="359.678654" xlink:href="#O" y="249.588124"/><use x="338.075376" xlink:href="#A" y="187.9441"/><path d="m1821.028646 8662.841146h1347.395833v83.007812h-1347.395833zm0 0" fill="none" stroke="#000" stroke-linejoin="round" stroke-miterlimit="10" stroke-width="6.65006" transform="matrix(.06 0 0 -.06 0 687.79)"/><path d="m109.261719 168.019531h80.84375v-4.980469h-80.84375zm0 0"/><path d="m2234.960937 7429.507812h113.802084v5.92448h-113.802084zm0 0" fill="none" stroke="#000" stroke-linejoin="round" stroke-miterlimit="10" stroke-width="9.48941" transform="matrix(.06 0 0 -.06 0 687.79)"/><path d="m134.097656 242.019531h6.828125v-.355469h-6.828125zm0 0"/><path d="m4299.283854 7850.796875v-83.072917l1347.395833-38.867187v83.007812zm0 0" fill="none" stroke="#000" stroke-linejoin="round" stroke-miterlimit="10" stroke-width="6.65006" transform="matrix(.06 0 0 -.06 0 687.79)"/><path d="m257.957031 216.742188v4.984374l80.84375 2.332032v-4.980469zm0 0"/><path d="m4902.799479 7429.507812h113.802083v5.92448h-113.802083zm0 0" fill="none" stroke="#000" stroke-linejoin="round" stroke-miterlimit="10" stroke-width="9.48941" transform="matrix(.06 0 0 -.06 0 687.79)"/><path d="m294.167969 242.019531h6.824219v-.355469h-6.824219zm0 0"/><path d="m7613.671875 7429.507812h113.802083v5.92448h-113.802083zm0 0" fill="none" stroke="#000" stroke-linejoin="round" stroke-miterlimit="10" stroke-width="9.48941" transform="matrix(.06 0 0 -.06 0 687.79)"/><path d="m456.820312 242.019531h6.828126v-.355469h-6.828126zm0 0"/><use x="578.465157" xlink:href="#E" y="187.944"/><use x="95.352191" xlink:href="#A" y="199.152023"/><use x="49.356899" xlink:href="#C" y="187.944"/><use x="59.486619" xlink:href="#C" y="171.131967"/><use x="8.966718" xlink:href="#D" y="199.152023"/><path d="m4299.283854 7812.320312h8.789063v571.744792h-8.789063zm0 0" fill="none" stroke="#000" stroke-linejoin="round" stroke-miterlimit="10" stroke-width="6.65006" transform="matrix(.06 0 0 -.06 0 687.79)"/><path d="m257.957031 219.050781h.527344v-34.304687h-.527344zm0 0"/><use x="160.02632" xlink:href="#ad" y="249.588124"/><use x="175.332897" xlink:href="#J" y="249.588124"/><use x="190.639708" xlink:href="#O" y="249.588124"/><use x="250.788608" xlink:href="#I" y="249.588124"/><use x="264.054241" xlink:href="#ae" y="249.588124"/><use x="257.757816" xlink:href="#A" y="182.340189"/><path d="m3159.635417 8184h8.789062v516.992188h-8.789062zm0 0" fill="none" stroke="#000" stroke-linejoin="round" stroke-miterlimit="10" stroke-width="6.65006" transform="matrix(.06 0 0 -.06 0 687.79)"/><path d="m189.578125 196.75h.527344v-31.019531h-.527344zm0 0"/><use x="90.338581" xlink:href="#af" y="249.588124"/><use x="108.877667" xlink:href="#U" y="249.588124"/><use x="175.669551" xlink:href="#A" y="199.152123"/><path d="m1821.028646 8184h8.789062v516.992188h-8.789062zm0 0" fill="none" stroke="#000" stroke-linejoin="round" stroke-miterlimit="10" stroke-width="6.65006" transform="matrix(.06 0 0 -.06 0 687.79)"/><path d="m109.261719 196.75h.527343v-31.019531h-.527343zm0 0"/><g clip-path="url(#k)"><path d="m5.924479 5715.575521h9909.375" style="fill:none;stroke-width:11.8618;stroke-linecap:round;stroke-linejoin:round;stroke:#000;stroke-miterlimit:10" transform="matrix(.06 0 0 -.06 0 687.79)"/></g><g clip-path="url(#l)"><path d="m5.924479 5902.359375h9909.375" style="fill:none;stroke-width:11.8618;stroke-linecap:round;stroke-linejoin:round;stroke:#000;stroke-miterlimit:10" transform="matrix(.06 0 0 -.06 0 687.79)"/></g><g clip-path="url(#m)"><path d="m5.924479 6089.143229h9909.375" style="fill:none;stroke-width:11.8618;stroke-linecap:round;stroke-linejoin:round;stroke:#000;stroke-miterlimit:10" transform="matrix(.06 0 0 -.06 0 687.79)"/></g><g clip-path="url(#n)"><path d="m5.924479 6275.927083h9909.375" style="fill:none;stroke-width:11.8618;stroke-linecap:round;stroke-linejoin:round;stroke:#000;stroke-miterlimit:10" transform="matrix(.06 0 0 -.06 0 687.79)"/></g><g clip-path="url(#o)"><path d="m5.924479 6462.776042h9909.375" style="fill:none;stroke-width:11.8618;stroke-linecap:round;stroke-linejoin:round;stroke:#000;stroke-miterlimit:10" transform="matrix(.06 0 0 -.06 0 687.79)"/></g><use x="509.285019" xlink:href="#M" y="384.084393"/><use x="516.598259" xlink:href="#S" y="384.084393"/><use x="531.90507" xlink:href="#ag" y="384.084393"/><use x="538.027914" xlink:href="#Q" y="384.084393"/><use x="520.16594" xlink:href="#A" y="333.648392"/><use x="286.767474" xlink:href="#M" y="384.084393"/><use x="294.421231" xlink:href="#Y" y="384.084393"/><use x="309.728042" xlink:href="#O" y="384.084393"/><use x="325.034854" xlink:href="#P" y="384.084393"/><path d="m7649.414062 6035.822917h8.789063v610.416666h-8.789063zm0 0" style="fill:none;stroke-width:6.65006;stroke-linecap:round;stroke-linejoin:round;stroke:#000;stroke-miterlimit:10" transform="matrix(.06 0 0 -.06 0 687.79)"/><path d="m458.964844 325.640625h.527344v-36.625h-.527344zm0 0"/><use x="437.917876" xlink:href="#ag" y="384.084393"/><use x="444.040691" xlink:href="#J" y="384.084393"/><use x="459.178049" xlink:href="#M" y="384.084393"/><use x="445.05625" xlink:href="#A" y="328.044281"/><path d="m6509.570312 6129.247396h8.789063v477.408854h-8.789063zm0 0" style="fill:none;stroke-width:6.65006;stroke-linecap:round;stroke-linejoin:round;stroke:#000;stroke-miterlimit:10" transform="matrix(.06 0 0 -.06 0 687.79)"/><path d="m390.574219 320.035156h.527343v-28.640625h-.527343zm0 0"/><use x="362.552725" xlink:href="#X" y="384.084393"/><use x="376.329532" xlink:href="#G" y="384.084393"/><use x="390.106338" xlink:href="#Y" y="384.084393"/><use x="376.664753" xlink:href="#A" y="322.440369"/><path d="m5323.046875 5942.398438h8.723958v556.640624h-8.723958zm0 0" style="fill:none;stroke-width:6.65006;stroke-linecap:round;stroke-linejoin:round;stroke:#000;stroke-miterlimit:10" transform="matrix(.06 0 0 -.06 0 687.79)"/><path d="m319.382812 331.246094h.523438v-33.398438h-.523438zm0 0"/><path d="m2844.335937 5526.1875h1148.632813v83.007812h-1148.632813zm0 0" fill="none" stroke="#000" stroke-linejoin="round" stroke-miterlimit="10" stroke-width="6.65006" transform="matrix(.06 0 0 -.06 0 687.79)"/><path d="m170.660156 356.21875h68.917969v-4.980469h-68.917969zm0 0"/><path d="m3495.833333 5187.90625h113.802084v5.924479h-113.802084zm0 0" fill="none" stroke="#000" stroke-linejoin="round" stroke-miterlimit="10" stroke-width="9.48941" transform="matrix(.06 0 0 -.06 0 687.79)"/><path d="m209.75 376.515625h6.828125v-.355469h-6.828125zm0 0"/><path d="m4486.263021 5187.90625h113.802083v5.924479h-113.802083zm0 0" fill="none" stroke="#000" stroke-linejoin="round" stroke-miterlimit="10" stroke-width="9.48941" transform="matrix(.06 0 0 -.06 0 687.79)"/><path d="m269.175781 376.515625h6.828125v-.355469h-6.828125zm0 0"/><path d="m5323.046875 6543.179688v-83.007813l1195.3125 108.984375v83.007812zm0 0" fill="none" stroke="#000" stroke-linejoin="round" stroke-miterlimit="10" stroke-width="6.65006" transform="matrix(.06 0 0 -.06 0 687.79)"/><path d="m319.382812 295.199219v4.980469l71.71875-6.539063v-4.980469zm0 0"/><path d="m6970.833333 5187.90625h113.802084v5.924479h-113.802084zm0 0" fill="none" stroke="#000" stroke-linejoin="round" stroke-miterlimit="10" stroke-width="9.48941" transform="matrix(.06 0 0 -.06 0 687.79)"/><path d="m418.25 376.515625h6.828125v-.355469h-6.828125zm0 0"/><path d="m8077.408854 5187.90625h113.736979v5.924479h-113.736979zm0 0" fill="none" stroke="#000" stroke-linejoin="round" stroke-miterlimit="10" stroke-width="9.48941" transform="matrix(.06 0 0 -.06 0 687.79)"/><path d="m484.644531 376.515625h6.824219v-.355469h-6.824219zm0 0"/><path d="m8901.236979 5942.398438h8.789063v610.416666h-8.789063zm0 0" fill="none" stroke="#000" stroke-linejoin="round" stroke-miterlimit="10" stroke-width="6.65006" transform="matrix(.06 0 0 -.06 0 687.79)"/><path d="m534.074219 331.246094h.527343v-36.625h-.527343zm0 0"/><use x="578.465157" xlink:href="#B" y="311.232247"/><use x="8.967018" xlink:href="#D" y="333.648392"/><path d="m1592.513021 5532.111979h8.789062v610.351563h-8.789062zm0 0" fill="none" stroke="#000" stroke-linejoin="round" stroke-miterlimit="10" stroke-width="6.65006" transform="matrix(.06 0 0 -.06 0 687.79)"/><path d="m95.550781 355.863281h.527344v-36.621093h-.527344zm0 0"/><use x="305.472611" xlink:href="#A" y="333.648292"/><use x="95.352191" xlink:href="#A" y="316.836258"/><use x="49.356899" xlink:href="#C" y="322.440179"/><use x="59.486619" xlink:href="#C" y="305.628146"/><use x="90.338881" xlink:href="#af" y="384.084203"/><use x="108.877967" xlink:href="#U" y="384.084203"/><path d="m2844.335937 5570.979167h8.789063v571.484375h-8.789063zm0 0" fill="none" stroke="#000" stroke-linejoin="round" stroke-miterlimit="10" stroke-width="6.65006" transform="matrix(.06 0 0 -.06 0 687.79)"/><path d="m170.660156 353.53125h.527344v-34.289062h-.527344zm0 0"/><use x="233.925468" xlink:href="#S" y="384.084393"/><use x="249.232045" xlink:href="#ah" y="384.084393"/><use x="238.853448" xlink:href="#A" y="316.836458"/><path d="m3984.179687 5570.979167h8.789063v571.484375h-8.789063zm0 0" fill="none" stroke="#000" stroke-linejoin="round" stroke-miterlimit="10" stroke-width="6.65006" transform="matrix(.06 0 0 -.06 0 687.79)"/><path d="m239.050781 353.53125h.527344v-34.289062h-.527344zm0 0"/><use x="163.153326" xlink:href="#T" y="384.084393"/><use x="186.284292" xlink:href="#U" y="384.084393"/><use x="170.462091" xlink:href="#A" y="316.836458"/><g clip-path="url(#p)"><path d="m5.924479 3473.973958h9909.375" style="fill:none;stroke-width:11.8618;stroke-linecap:round;stroke-linejoin:round;stroke:#000;stroke-miterlimit:10" transform="matrix(.06 0 0 -.06 0 687.79)"/></g><g clip-path="url(#q)"><path d="m5.924479 3660.757813h9909.375" style="fill:none;stroke-width:11.8618;stroke-linecap:round;stroke-linejoin:round;stroke:#000;stroke-miterlimit:10" transform="matrix(.06 0 0 -.06 0 687.79)"/></g><g clip-path="url(#r)"><path d="m5.924479 3847.541667h9909.375" style="fill:none;stroke-width:11.8618;stroke-linecap:round;stroke-linejoin:round;stroke:#000;stroke-miterlimit:10" transform="matrix(.06 0 0 -.06 0 687.79)"/></g><g clip-path="url(#s)"><path d="m5.924479 4034.390625h9909.375" style="fill:none;stroke-width:11.8618;stroke-linecap:round;stroke-linejoin:round;stroke:#000;stroke-miterlimit:10" transform="matrix(.06 0 0 -.06 0 687.79)"/></g><g clip-path="url(#t)"><path d="m5.924479 4221.174479h9909.375" style="fill:none;stroke-width:11.8618;stroke-linecap:round;stroke-linejoin:round;stroke:#000;stroke-miterlimit:10" transform="matrix(.06 0 0 -.06 0 687.79)"/></g><use x="509.204018" xlink:href="#M" y="518.579662"/><use x="516.517023" xlink:href="#S" y="518.579662"/><use x="531.823835" xlink:href="#ag" y="518.579662"/><use x="537.946913" xlink:href="#ai" y="518.579662"/><use x="520.08464" xlink:href="#A" y="468.143661"/><use x="297.187194" xlink:href="#ag" y="518.579662"/><use x="303.310009" xlink:href="#aj" y="518.579662"/><use x="318.616821" xlink:href="#ag" y="518.579662"/><use x="324.739636" xlink:href="#M" y="518.579662"/><path d="m7646.679687 3794.221354h8.789063v610.416667h-8.789063zm0 0" style="fill:none;stroke-width:6.65006;stroke-linecap:round;stroke-linejoin:round;stroke:#000;stroke-miterlimit:10" transform="matrix(.06 0 0 -.06 0 687.79)"/><path d="m458.800781 460.136719h.527344v-36.625h-.527344zm0 0"/><use x="430.268861" xlink:href="#I" y="518.579662"/><use x="443.534493" xlink:href="#J" y="518.579662"/><use x="458.841305" xlink:href="#L" y="518.579662"/><use x="444.89179" xlink:href="#A" y="462.53955"/><path d="m6497.395833 3887.645833h8.789063v516.731771h-8.789063zm0 0" style="fill:none;stroke-width:6.65006;stroke-linecap:round;stroke-linejoin:round;stroke:#000;stroke-miterlimit:10" transform="matrix(.06 0 0 -.06 0 687.79)"/><path d="m389.84375 454.53125h.527344v-31.003906h-.527344zm0 0"/><use x="354.170708" xlink:href="#X" y="518.579662"/><use x="367.947515" xlink:href="#G" y="518.579662"/><use x="381.724321" xlink:href="#J" y="518.579662"/><use x="397.031133" xlink:href="#O" y="518.579662"/><use x="375.935552" xlink:href="#A" y="456.935638"/><path d="m5356.315104 3794.221354h8.789063v571.744792h-8.789063zm0 0" style="fill:none;stroke-width:6.65006;stroke-linecap:round;stroke-linejoin:round;stroke:#000;stroke-miterlimit:10" transform="matrix(.06 0 0 -.06 0 687.79)"/><path d="m321.378906 460.136719h.527344v-34.304688h-.527344zm0 0"/><path d="m3074.21875 4223.778646v-83.007813l1149.869792 38.867188v83.007812zm0 0" fill="none" stroke="#000" stroke-linejoin="round" stroke-miterlimit="10" stroke-width="6.65006" transform="matrix(.06 0 0 -.06 0 687.79)"/><path d="m184.453125 434.363281v4.980469l68.992187-2.332031v-4.980469zm0 0"/><path d="m4599.934896 2946.304688h113.802083v5.924479h-113.802083zm0 0" fill="none" stroke="#000" stroke-linejoin="round" stroke-miterlimit="10" stroke-width="9.48941" transform="matrix(.06 0 0 -.06 0 687.79)"/><path d="m275.996094 511.011719h6.828125v-.355469h-6.828125zm0 0"/><path d="m5356.315104 4410.5625v-83.007812l1149.869792 38.867187v83.007813zm0 0" fill="none" stroke="#000" stroke-linejoin="round" stroke-miterlimit="10" stroke-width="6.65006" transform="matrix(.06 0 0 -.06 0 687.79)"/><path d="m321.378906 423.15625v4.980469l68.992188-2.332031v-4.980469zm0 0"/><path d="m6964.778646 2946.304688h113.802083v5.924479h-113.802083zm0 0" fill="none" stroke="#000" stroke-linejoin="round" stroke-miterlimit="10" stroke-width="9.48941" transform="matrix(.06 0 0 -.06 0 687.79)"/><path d="m417.886719 511.011719h6.828125v-.355469h-6.828125zm0 0"/><path d="m8137.695312 2946.304688h113.802084v5.924479h-113.802084zm0 0" fill="none" stroke="#000" stroke-linejoin="round" stroke-miterlimit="10" stroke-width="9.48941" transform="matrix(.06 0 0 -.06 0 687.79)"/><path d="m488.261719 511.011719h6.828125v-.355469h-6.828125zm0 0"/><path d="m8899.869792 3700.861979h8.789062v610.351563h-8.789062zm0 0" fill="none" stroke="#000" stroke-linejoin="round" stroke-miterlimit="10" stroke-width="6.65006" transform="matrix(.06 0 0 -.06 0 687.79)"/><path d="m533.992188 465.742188h.527343v-36.625h-.527343zm0 0"/><use x="578.465157" xlink:href="#E" y="456.935538"/><use x="8.967018" xlink:href="#D" y="468.143561"/><path d="m1821.028646 3700.861979h8.789062v610.351563h-8.789062zm0 0" fill="none" stroke="#000" stroke-linejoin="round" stroke-miterlimit="10" stroke-width="6.65006" transform="matrix(.06 0 0 -.06 0 687.79)"/><path d="m109.261719 465.742188h.527343v-36.625h-.527343zm0 0"/><use x="307.472615" xlink:href="#A" y="462.53955"/><use x="95.352191" xlink:href="#A" y="468.143701"/><use x="49.356899" xlink:href="#C" y="456.935678"/><use x="59.486619" xlink:href="#C" y="440.123645"/><use x="86.512473" xlink:href="#ak" y="518.579702"/><use x="105.051559" xlink:href="#X" y="518.579702"/><path d="m3074.21875 3607.4375h8.789062v571.744792h-8.789062zm0 0" fill="none" stroke="#000" stroke-linejoin="round" stroke-miterlimit="10" stroke-width="6.65006" transform="matrix(.06 0 0 -.06 0 687.79)"/><path d="m184.453125 471.34375h.527344v-34.304688h-.527344zm0 0"/><use x="231.019462" xlink:href="#Z" y="518.579662"/><use x="246.326039" xlink:href="#ae" y="518.579662"/><use x="239.008388" xlink:href="#A" y="468.143661"/><path d="m4215.299479 3700.861979h8.789063v516.731771h-8.789063zm0 0" fill="none" stroke="#000" stroke-linejoin="round" stroke-miterlimit="10" stroke-width="6.65006" transform="matrix(.06 0 0 -.06 0 687.79)"/><path d="m252.917969 465.742188h.527343v-31.007813h-.527343zm0 0"/><use x="148.012296" xlink:href="#O" y="518.579662"/><use x="163.319107" xlink:href="#ae" y="518.579662"/><use x="178.625684" xlink:href="#aa" y="518.579662"/><use x="193.932496" xlink:href="#ab" y="518.579662"/><use x="170.543741" xlink:href="#A" y="473.747572"/><g clip-path="url(#u)"><path d="m5.924479 1232.372396h9909.375" style="fill:none;stroke-width:11.8618;stroke-linecap:round;stroke-linejoin:round;stroke:#000;stroke-miterlimit:10" transform="matrix(.06 0 0 -.06 0 687.79)"/></g><g clip-path="url(#v)"><path d="m5.924479 1419.15625h9909.375" style="fill:none;stroke-width:11.8618;stroke-linecap:round;stroke-linejoin:round;stroke:#000;stroke-miterlimit:10" transform="matrix(.06 0 0 -.06 0 687.79)"/></g><g clip-path="url(#w)"><path d="m5.924479 1605.940104h9909.375" style="fill:none;stroke-width:11.8618;stroke-linecap:round;stroke-linejoin:round;stroke:#000;stroke-miterlimit:10" transform="matrix(.06 0 0 -.06 0 687.79)"/></g><g clip-path="url(#x)"><path d="m5.924479 1792.789062h9909.375" style="fill:none;stroke-width:11.8618;stroke-linecap:round;stroke-linejoin:round;stroke:#000;stroke-miterlimit:10" transform="matrix(.06 0 0 -.06 0 687.79)"/></g><g clip-path="url(#y)"><path d="m5.924479 1979.572917h9909.375" style="fill:none;stroke-width:11.8618;stroke-linecap:round;stroke-linejoin:round;stroke:#000;stroke-miterlimit:10" transform="matrix(.06 0 0 -.06 0 687.79)"/></g><g clip-path="url(#z)"><path d="m9885.677083 1232.372396v747.200521" fill="none" stroke="#000" stroke-linejoin="round" stroke-miterlimit="10" stroke-width="71.1706" transform="matrix(.06 0 0 -.06 0 687.79)"/></g><path d="m9803.255208 1232.372396v747.200521" fill="none" stroke="#000" stroke-linejoin="round" stroke-miterlimit="10" stroke-width="22.528" transform="matrix(.06 0 0 -.06 0 687.79)"/><use x="508.232016" xlink:href="#F" y="565.701756"/><use x="500.914342" xlink:href="#A" y="619.452063"/><path d="m7176.953125 1272.411458h8.789062v610.416667h-8.789062zm0 0" fill="none" stroke="#000" stroke-linejoin="round" stroke-miterlimit="10" stroke-width="6.65006" transform="matrix(.06 0 0 -.06 0 687.79)"/><path d="m430.617188 611.445312h.527343v-36.625h-.527343zm0 0"/><use x="408.720817" xlink:href="#O" y="653.187931"/><use x="424.027394" xlink:href="#S" y="653.187931"/><use x="416.709743" xlink:href="#A" y="613.848052"/><path d="m5773.567708 1365.835938h8.789063v610.416666h-8.789063zm0 0" fill="none" stroke="#000" stroke-linejoin="round" stroke-miterlimit="10" stroke-width="6.65006" transform="matrix(.06 0 0 -.06 0 687.79)"/><path d="m346.414062 605.839844h.527344v-36.625h-.527344zm0 0"/><use x="325.19665" xlink:href="#T" y="653.187931"/><use x="348.327616" xlink:href="#U" y="653.187931"/><use x="332.505185" xlink:href="#A" y="608.243841"/><path d="m2273.046875 702.880208h113.802083v5.92448h-113.802083zm0 0" fill="none" stroke="#000" stroke-linejoin="round" stroke-miterlimit="10" stroke-width="9.48941" transform="matrix(.06 0 0 -.06 0 687.79)"/><path d="m136.382812 645.617188h6.828126v-.355469h-6.828126zm0 0"/><path d="m3224.414062 1938.036458h1283.398438v83.007813h-1283.398438zm0 0" fill="none" stroke="#000" stroke-linejoin="round" stroke-miterlimit="10" stroke-width="6.65006" transform="matrix(.06 0 0 -.06 0 687.79)"/><path d="m193.464844 571.507812h77.003906v-4.980468h-77.003906zm0 0"/><path d="m3573.046875 702.880208h113.802083v5.92448h-113.802083zm0 0" fill="none" stroke="#000" stroke-linejoin="round" stroke-miterlimit="10" stroke-width="9.48941" transform="matrix(.06 0 0 -.06 0 687.79)"/><path d="m214.382812 645.617188h6.828126v-.355469h-6.828126zm0 0"/><path d="m6302.864583 702.880208h113.802084v5.92448h-113.802084zm0 0" fill="none" stroke="#000" stroke-linejoin="round" stroke-miterlimit="10" stroke-width="9.48941" transform="matrix(.06 0 0 -.06 0 687.79)"/><path d="m378.171875 645.617188h6.828125v-.355469h-6.828125zm0 0"/><path d="m7565.950521 702.880208h113.736979v5.92448h-113.736979zm0 0" fill="none" stroke="#000" stroke-linejoin="round" stroke-miterlimit="10" stroke-width="9.48941" transform="matrix(.06 0 0 -.06 0 687.79)"/><path d="m453.957031 645.617188h6.824219v-.355469h-6.824219zm0 0"/><use x="475.405951" xlink:href="#P" y="653.187931"/><use x="489.012367" xlink:href="#Y" y="653.187931"/><use x="504.319178" xlink:href="#O" y="653.187931"/><use x="519.625989" xlink:href="#P" y="653.187931"/><use x="533.402796" xlink:href="#al" y="653.187931"/><path d="m8580.403646 1179.052083h8.723958v610.416667h-8.723958zm0 0" fill="none" stroke="#000" stroke-linejoin="round" stroke-miterlimit="10" stroke-width="6.65006" transform="matrix(.06 0 0 -.06 0 687.79)"/><path d="m514.820312 617.046875h.527344v-36.621094h-.527344zm0 0"/><use x="49.356699" xlink:href="#C" y="591.431907"/><use x="59.486419" xlink:href="#C" y="574.619874"/><use x="8.966518" xlink:href="#D" y="602.63993"/><use x="230.352961" xlink:href="#T" y="653.187931"/><use x="253.483926" xlink:href="#ae" y="653.187931"/><use x="268.790738" xlink:href="#G" y="653.187931"/><use x="282.567544" xlink:href="#G" y="653.187931"/><path d="m4498.958333 1459.260417h8.789063v516.992187h-8.789063zm0 0" fill="none" stroke="#000" stroke-linejoin="round" stroke-miterlimit="10" stroke-width="6.65006" transform="matrix(.06 0 0 -.06 0 687.79)"/><path d="m269.9375 600.234375h.527344v-31.019531h-.527344zm0 0"/><path d="m3224.414062 1459.260417h8.789063v516.992187h-8.789063zm0 0" fill="none" stroke="#000" stroke-linejoin="round" stroke-miterlimit="10" stroke-width="6.65006" transform="matrix(.06 0 0 -.06 0 687.79)"/><path d="m193.464844 600.234375h.527344v-31.019531h-.527344zm0 0"/><use x="168.505337" xlink:href="#aa" y="653.187931"/><use x="183.812148" xlink:href="#ae" y="653.187931"/><use x="199.11896" xlink:href="#ag" y="653.187931"/><use x="95.351791" xlink:href="#A" y="597.035818"/><use x="179.556359" xlink:href="#A" y="602.63997"/><path d="m1821.028646 1552.619792h8.789062v610.416666h-8.789062zm0 0" fill="none" stroke="#000" stroke-linejoin="round" stroke-miterlimit="10" stroke-width="6.65006" transform="matrix(.06 0 0 -.06 0 687.79)"/><path d="m109.261719 594.632812h.527343v-36.625h-.527343zm0 0"/><use x="256.030512" xlink:href="#A" y="602.64003"/><use x="94.250188" xlink:href="#K" y="653.188031"/><use x="101.903946" xlink:href="#ah" y="653.188031"/></svg>