<svg height="919.13em" viewBox="0 0 595.28 919.13" width="595.28em" xmlns="http://www.w3.org/2000/svg" xmlns:xlink="http://www.w3.org/1999/xlink"><clipPath id="a"><path d="m0 63h595.28125v2h-595.28125zm0 0"/></clipPath><clipPath id="b"><path d="m0 54h595.28125v1h-595.28125zm0 0"/></clipPath><clipPath id="c"><path d="m0 44h595.28125v2h-595.28125zm0 0"/></clipPath><clipPath id="d"><path d="m0 35h595.28125v1h-595.28125zm0 0"/></clipPath><clipPath id="e"><path d="m0 25h595.28125v2h-595.28125zm0 0"/></clipPath><clipPath id="f"><path d="m0 177h595.28125v1h-595.28125zm0 0"/></clipPath><clipPath id="g"><path d="m0 167h595.28125v2h-595.28125zm0 0"/></clipPath><clipPath id="h"><path d="m0 158h595.28125v2h-595.28125zm0 0"/></clipPath><clipPath id="i"><path d="m0 148h595.28125v2h-595.28125zm0 0"/></clipPath><clipPath id="j"><path d="m0 139h595.28125v2h-595.28125zm0 0"/></clipPath><clipPath id="k"><path d="m0 290h595.28125v2h-595.28125zm0 0"/></clipPath><clipPath id="l"><path d="m0 281h595.28125v2h-595.28125zm0 0"/></clipPath><clipPath id="m"><path d="m0 271h595.28125v2h-595.28125zm0 0"/></clipPath><clipPath id="n"><path d="m0 262h595.28125v2h-595.28125zm0 0"/></clipPath><clipPath id="o"><path d="m0 253h595.28125v1h-595.28125zm0 0"/></clipPath><clipPath id="p"><path d="m0 404h595.28125v2h-595.28125zm0 0"/></clipPath><clipPath id="q"><path d="m0 394h595.28125v2h-595.28125zm0 0"/></clipPath><clipPath id="r"><path d="m0 385h595.28125v2h-595.28125zm0 0"/></clipPath><clipPath id="s"><path d="m0 376h595.28125v1h-595.28125zm0 0"/></clipPath><clipPath id="t"><path d="m0 366h595.28125v2h-595.28125zm0 0"/></clipPath><clipPath id="u"><path d="m0 518h595.28125v1h-595.28125zm0 0"/></clipPath><clipPath id="v"><path d="m0 508h595.28125v2h-595.28125zm0 0"/></clipPath><clipPath id="w"><path d="m0 499h595.28125v1h-595.28125zm0 0"/></clipPath><clipPath id="x"><path d="m0 489h595.28125v2h-595.28125zm0 0"/></clipPath><clipPath id="y"><path d="m0 480h595.28125v1h-595.28125zm0 0"/></clipPath><clipPath id="z"><path d="m0 631h595.28125v2h-595.28125zm0 0"/></clipPath><clipPath id="A"><path d="m0 622h595.28125v1h-595.28125zm0 0"/></clipPath><clipPath id="B"><path d="m0 612h595.28125v2h-595.28125zm0 0"/></clipPath><clipPath id="C"><path d="m0 603h595.28125v1h-595.28125zm0 0"/></clipPath><clipPath id="D"><path d="m0 593h595.28125v2h-595.28125zm0 0"/></clipPath><clipPath id="E"><path d="m0 745h595.28125v1h-595.28125zm0 0"/></clipPath><clipPath id="F"><path d="m0 735h595.28125v2h-595.28125zm0 0"/></clipPath><clipPath id="G"><path d="m0 726h595.28125v1h-595.28125zm0 0"/></clipPath><clipPath id="H"><path d="m0 716h595.28125v2h-595.28125zm0 0"/></clipPath><clipPath id="I"><path d="m0 707h595.28125v1h-595.28125zm0 0"/></clipPath><clipPath id="J"><path d="m0 858h595.28125v2h-595.28125zm0 0"/></clipPath><clipPath id="K"><path d="m0 849h595.28125v1h-595.28125zm0 0"/></clipPath><clipPath id="L"><path d="m0 839h595.28125v2h-595.28125zm0 0"/></clipPath><clipPath id="M"><path d="m0 830h595.28125v1h-595.28125zm0 0"/></clipPath><clipPath id="N"><path d="m0 820h595.28125v2h-595.28125zm0 0"/></clipPath><clipPath id="O"><path d="m591 819h4.28125v43h-4.28125zm0 0"/></clipPath><symbol id="P" overflow="visible"><path d="m8.40625-5.109375c-1.59375 0-3.109375.53125-4.46875 1.359375-1.78125 1.0625-3.9375 2.921875-3.9375 5.609375 0 2.234375 1.96875 3.25 3.96875 3.25 1.59375 0 3.109375-.53125 4.46875-1.359375 1.78125-1.0625 3.90625-2.921875 3.90625-5.609375 0-2.234375-1.9375-3.25-3.9375-3.25zm0 0"/></symbol><symbol id="Q" overflow="visible"><path d="m5.375 0c.15625 0 .296875-.15625.296875-.296875v-8.859375c0-.15625-.140625-.3125-.296875-.3125h-5.078125c-.140625 0-.296875.15625-.296875.3125v8.859375c0 .140625.15625.296875.296875.296875zm0 0"/></symbol><symbol id="R" overflow="visible"><path d="m8.140625 11.96875v-6.171875l1.859375-.640625c.21875-.078125.40625-.3125.40625-.578125v-2.453125c0-.421875-.40625-.71875-.796875-.578125l-1.46875.53125v-6.203125l1.859375-.6875c.21875-.078125.40625-.296875.40625-.5625v-2.421875c0-.421875-.40625-.71875-.796875-.5625l-1.46875.484375v-5.671875c0-.34375-.296875-.65625-.640625-.65625s-.640625.3125-.640625.65625v6.125l-3.296875 1.171875v-5.71875c0-.328125-.3125-.640625-.640625-.640625-.34375 0-.65625.3125-.65625.640625v6.171875l-1.84375.640625c-.234375.078125-.421875.3125-.421875.578125v2.453125c0 .421875.421875.71875.796875.578125l1.46875-.53125v6.203125l-1.84375.6875c-.234375.078125-.421875.296875-.421875.5625v2.421875c0 .421875.421875.71875.796875.5625l1.46875-.484375v5.671875c0 .34375.3125.65625.65625.65625.328125 0 .640625-.3125.640625-.65625v-6.125l3.296875-1.171875v5.71875c0 .328125.296875.640625.640625.640625s.640625-.3125.640625-.640625zm-4.578125-14.5 3.296875-1.140625v6.203125l-3.296875 1.140625zm0 0"/></symbol><symbol id="S" overflow="visible"><path d="m14.15625-9.84375c-.609375-2.65625-1.328125-5.265625-2.078125-7.875 3.640625-4.125 6.921875-8.359375 6.921875-13.8125 0-4.28125-2.34375-10.421875-4.984375-13.59375-.203125-.15625-.421875-.15625-.609375 0-3.59375 2.609375-5.6875 6.765625-5.6875 11.171875 0 1.96875.046875 3.890625.265625 5.828125.265625 2.453125.90625 4.84375 1.59375 7.234375-4.46875 5.0625-9.5 9.90625-9.5 16.65625 0 7.609375 5.484375 14.078125 12.609375 14.078125 1.171875 0 2.265625-.109375 3.359375-.296875.125 1.203125.1875 2.421875.1875 3.625 0 .6875-.03125 1.328125-.0625 2.015625-.234375 3.75-2.546875 7.1875-6.0625 7.265625-.03125 0-.078125.03125-.109375.03125-1.9375 0-3.609375-1.09375-4.59375-2.640625.421875.1875.875.328125 1.328125.328125 1.96875 0 3.59375-1.625 3.59375-3.59375 0-2.109375-1.546875-3.9375-3.59375-3.9375-2.234375 0-4.234375 1.75-4.234375 3.9375 0 4.09375 3.296875 7.390625 7.375 7.390625 4.46875 0 7.546875-4.015625 7.8125-8.5625.03125-.71875.03125-1.390625.03125-2.125 0-1.359375-.078125-2.71875-.1875-4.078125.984375-.3125 1.921875-.765625 2.765625-1.40625 2.796875-2.078125 4.046875-5 4.046875-7.875 0-5-3.78125-9.796875-9.609375-9.796875-.203125 0-.390625.03125-.578125.03125zm3.21875 17.609375c-.53125-4.703125-1.390625-9.171875-2.34375-13.59375 4.15625.34375 6.78125 3.828125 6.78125 7.296875 0 2.65625-1.828125 5.390625-4.4375 6.296875zm-14.6875-8.9375c0-6.0625 4.09375-10.640625 8.171875-15.21875.609375 2.234375 1.21875 4.46875 1.75 6.734375-3.828125.875-5.984375 4.09375-5.984375 7.421875 0 2.65625 1.359375 5.34375 4.390625 6.96875.109375.03125.234375.078125.34375.078125.421875 0 .75-.390625.75-.796875 0-.1875-.109375-.375-.265625-.53125-2.109375-1.21875-3.09375-3.03125-3.09375-4.703125 0-2.21875 1.734375-4.234375 4.734375-4.578125.984375 4.546875 1.84375 9.046875 2.421875 13.90625-1.03125.140625-2.046875.21875-3.109375.21875-5.15625 0-10.109375-4.359375-10.109375-9.5zm12.875-38.578125c.640625 2 .796875 2.984375.796875 5.1875 0 4.8125-2.546875 8.625-5.640625 12.296875-.6875-2.375-1.25-4.6875-1.25-7.5625 0-4.203125 2.34375-8.03125 6.09375-9.921875zm0 0"/></symbol><symbol id="T" overflow="visible"><path d="m5.375 9.46875c.15625 0 .296875-.15625.296875-.3125v-18.3125c0-.15625-.140625-.3125-.296875-.3125h-5.078125c-.140625 0-.296875.15625-.296875.3125v18.3125c0 .15625.15625.3125.296875.3125zm0 0"/></symbol><symbol id="U" overflow="visible"><path d="m-2.390625-1.78125c0 1.328125 1.0625 2.390625 2.390625 2.390625s2.390625-1.0625 2.390625-2.390625-1.0625-2.390625-2.390625-2.390625-2.390625 1.0625-2.390625 2.390625zm2.390625-11.84375c-5.875 0-12.453125 6.546875-12.453125 13.703125 0 .296875.296875.53125.609375.53125.265625 0 .5625-.1875.640625-.609375.984375-5.640625 5.5625-10.03125 11.203125-10.03125s10.21875 4.390625 11.203125 10.03125c.078125.421875.375.609375.640625.609375.3125 0 .609375-.234375.609375-.53125 0-7.15625-6.546875-13.703125-12.453125-13.703125zm0 0"/></symbol><symbol id="V" overflow="visible"><path d="m12.21875-6.265625c0-3.96875-2-6.328125-5.234375-6.328125-1.671875 0-2.875.625-3.78125 2v-6.453125h-1.9375v17.046875h1.75v-1.75c.9375 1.421875 2.171875 2.09375 3.875 2.09375 3.234375 0 5.328125-2.640625 5.328125-6.609375zm-2.03125.125c0 2.78125-1.4375 4.671875-3.578125 4.671875-2.046875 0-3.40625-1.875-3.40625-4.65625 0-2.875 1.359375-4.75 3.40625-4.65625 2.171875 0 3.578125 1.90625 3.578125 4.640625zm0 0"/></symbol><symbol id="W" overflow="visible"><path d="m11.984375-5.5625c0-1.78125-.140625-2.90625-.484375-3.8125-.796875-2.015625-2.671875-3.21875-4.953125-3.21875-3.421875 0-5.609375 2.515625-5.609375 6.546875 0 4.015625 2.125 6.390625 5.5625 6.390625 2.796875 0 4.75-1.578125 5.234375-4.0625h-1.96875c-.53125 1.609375-1.625 2.265625-3.203125 2.265625-2.03125 0-3.546875-1.3125-3.59375-4.109375zm-2.078125-1.734375s0 .09375-.015625.140625h-6.875c.15625-2.171875 1.546875-3.640625 3.5-3.640625 1.921875 0 3.390625 1.59375 3.390625 3.5zm.828125-9.75h-2.640625l-2.25 3.46875h1.40625zm0 0"/></symbol><symbol id="X" overflow="visible"><path d="m11.734375 0-5-8.015625 4.25-4.234375h-2.5l-5.1875 5.1875v-9.984375h-1.9375v17.046875h1.9375v-4.765625l1.890625-1.875 4.140625 6.640625zm0 0"/></symbol><symbol id="Y" overflow="visible"><path d="m3.578125 0v-12.25h-1.9375v12.25zm.25-14.09375v-2.4375h-2.421875v2.4375zm0 0"/></symbol><symbol id="Z" overflow="visible"><path d="m3.53125 0v-17.046875h-1.9375v17.046875zm0 0"/></symbol><symbol id="aa" overflow="visible"><path d="m11.984375-5.5625c0-1.78125-.140625-2.90625-.484375-3.8125-.796875-2.015625-2.671875-3.21875-4.953125-3.21875-3.421875 0-5.609375 2.515625-5.609375 6.546875 0 4.015625 2.125 6.390625 5.5625 6.390625 2.796875 0 4.75-1.578125 5.234375-4.0625h-1.96875c-.53125 1.609375-1.625 2.265625-3.203125 2.265625-2.03125 0-3.546875-1.3125-3.59375-4.109375zm-2.078125-1.734375s0 .09375-.015625.140625h-6.875c.15625-2.171875 1.546875-3.640625 3.5-3.640625 1.921875 0 3.390625 1.59375 3.390625 3.5zm0 0"/></symbol><symbol id="ab" overflow="visible"><path d="m5.9375 0v-1.640625c-.25.078125-.5625.09375-.9375.09375-.84375 0-1.078125-.234375-1.078125-1.09375v-8.015625h2.015625v-1.59375h-2.015625v-3.359375h-1.9375v3.359375h-1.65625v1.59375h1.65625v8.875c0 1.25.84375 1.9375 2.359375 1.9375.46875 0 .9375-.046875 1.59375-.15625zm0 0"/></symbol><symbol id="ac" overflow="visible"><path d="m4.484375.375v-2.8125h-2.453125v2.4375h1.40625v.421875c0 1.609375-.3125 2.078125-1.40625 2.125v.890625c1.640625 0 2.453125-1.046875 2.453125-3.0625zm0 0"/></symbol><symbol id="ad" overflow="visible"><path d="m17.78125 0v-17.046875h-3.015625l-4.953125 14.84375-5.046875-14.84375h-3.015625v17.046875h2.0625v-14.28125l4.84375 14.28125h2.28125l4.796875-14.28125v14.28125zm0 0"/></symbol><symbol id="ae" overflow="visible"><path d="m11.390625 0v-9.25c0-2.046875-1.53125-3.34375-3.890625-3.34375-1.8125 0-2.984375.703125-4.0625 2.40625v-2.0625h-1.796875v12.25h1.9375v-6.75c0-2.5 1.359375-4.140625 3.34375-4.140625 1.546875 0 2.515625.9375 2.515625 2.40625v8.484375zm0 0"/></symbol><symbol id="af" overflow="visible"><path d="m11.171875-12.25h-2.109375l-3.375 9.53125-3.140625-9.53125h-2.078125l4.140625 12.296875-.75 1.9375c-.328125.875-.734375 1.1875-1.5625 1.1875-.28125 0-.609375-.046875-1.03125-.140625v1.765625c.390625.203125.796875.296875 1.3125.296875 1.375 0 2.5-.765625 3.15625-2.515625zm0 0"/></symbol><symbol id="ag" overflow="visible"><path d="m6.640625-5.609375v-1.6875h-5.5625v1.6875zm0 0"/></symbol><symbol id="ah" overflow="visible"><path d="m10.6875 0v-1.703125h-7.609375l7.28125-8.8125v-1.734375h-9.140625v1.703125h6.828125l-7.328125 8.796875v1.75zm0 0"/></symbol><symbol id="ai" overflow="visible"><path d="m11.4375-2.015625v-10.234375h-1.8125v1.78125c-.96875-1.453125-2.171875-2.125-3.734375-2.125-3.109375 0-5.21875 2.609375-5.21875 6.59375 0 3.84375 2.1875 6.34375 5.0625 6.34375 1.53125 0 2.609375-.640625 3.890625-2.1875v.8125c0 3.25-1.328125 4.484375-3.59375 4.484375-1.546875 0-2.734375-.546875-2.96875-2.046875h-1.984375c.203125 2.3125 2 3.6875 4.875 3.6875 3.84375 0 5.484375-1.703125 5.484375-7.109375zm-2-4.03125c0 2.921875-1.25 4.59375-3.3125 4.59375-2.125 0-3.40625-1.703125-3.40625-4.671875 0-2.9375 1.296875-4.671875 3.375-4.671875 2.109375 0 3.34375 1.78125 3.34375 4.75zm0 0"/></symbol><symbol id="aj" overflow="visible"><path d="m12.5-.046875v-1.46875c-.203125.046875-.296875.046875-.421875.046875-.671875 0-1.046875-.359375-1.046875-.96875v-6.8125c0-2.1875-1.59375-3.34375-4.609375-3.34375-2.96875 0-4.78125 1.140625-4.90625 3.96875h1.96875c.15625-1.5 1.046875-2.171875 2.875-2.171875 1.75 0 2.734375.65625 2.734375 1.828125v.5c0 .828125-.484375 1.171875-2.03125 1.359375-2.765625.359375-3.1875.453125-3.9375.75-1.421875.578125-2.140625 1.6875-2.140625 3.1875 0 2.21875 1.546875 3.515625 4.015625 3.515625 1.5625 0 3.09375-.640625 4.15625-1.796875.21875.9375 1.0625 1.609375 2.015625 1.609375.40625 0 .703125-.046875 1.328125-.203125zm-3.40625-4.1875c0 1.75-1.78125 2.875-3.671875 2.875-1.515625 0-2.40625-.53125-2.40625-1.859375 0-1.296875.859375-1.859375 2.9375-2.15625 2.0625-.28125 2.484375-.375 3.140625-.671875zm0 0"/></symbol><symbol id="ak" overflow="visible"><path d="m3.578125 2.546875v-14.796875h-1.9375v14.03125c0 1.15625-.40625 1.671875-1.59375 1.609375l-.46875-.03125v1.671875c.234375.046875.359375.0625.65625.0625 2.203125 0 3.34375-.890625 3.34375-2.546875zm.25-16.640625v-2.4375h-2.421875v2.4375zm0 0"/></symbol><symbol id="al" overflow="visible"><path d="m11.265625 0v-12.25h-1.9375v6.75c0 2.515625-1.3125 4.140625-3.34375 4.140625-1.546875 0-2.53125-.9375-2.53125-2.40625v-8.484375h-1.9375v9.265625c0 2.03125 1.515625 3.328125 3.90625 3.328125 1.796875 0 2.953125-.625 4.09375-2.234375v1.890625zm-5.609375-14.125v-2.375h-2.125v2.375zm3.78125 0v-2.375h-2.125v2.375zm0 0"/></symbol><symbol id="am" overflow="visible"><path d="m15.265625 0-5.984375-17.046875h-2.8125l-6.078125 17.046875h2.328125l1.796875-5.125h6.5625l1.75 5.125zm-4.796875-6.9375h-5.421875l2.8125-7.765625zm0 0"/></symbol><symbol id="an" overflow="visible"><path d="m11.15625-4.203125h-1.96875c-.328125 1.953125-1.328125 2.75-3 2.75-2.140625 0-3.421875-1.65625-3.421875-4.546875 0-3.0625 1.25-4.796875 3.375-4.796875 1.640625 0 2.671875.953125 2.90625 2.65625h1.96875c-.234375-2.984375-2.109375-4.453125-4.84375-4.453125-3.296875 0-5.453125 2.515625-5.453125 6.59375 0 3.9375 2.109375 6.34375 5.421875 6.34375 2.921875 0 4.78125-1.75 5.015625-4.546875zm0 0"/></symbol><symbol id="ao" overflow="visible"><path d="m10.734375-3.4375c0-1.828125-1.03125-2.734375-3.46875-3.3125l-1.859375-.453125c-1.59375-.375-2.28125-.890625-2.28125-1.75 0-1.125 1.015625-1.84375 2.609375-1.84375 1.5625 0 2.40625.671875 2.453125 1.96875h2.046875c-.015625-2.421875-1.609375-3.765625-4.4375-3.765625-2.859375 0-4.703125 1.46875-4.703125 3.734375 0 1.921875.984375 2.828125 3.890625 3.53125l1.8125.4375c1.359375.328125 1.90625.734375 1.90625 1.625 0 1.140625-1.15625 1.8125-2.859375 1.8125-1.75 0-2.734375-.421875-2.984375-2.28125h-2.0625c.09375 2.828125 1.6875 4.078125 4.890625 4.078125 3.078125 0 5.046875-1.421875 5.046875-3.78125zm0 0"/></symbol><symbol id="ap" overflow="visible"><path d="m11.578125 0v-17.046875h-1.953125v6.34375c-.8125-1.234375-2.125-1.890625-3.765625-1.890625-3.171875 0-5.25 2.453125-5.25 6.359375 0 4.125 2.03125 6.578125 5.328125 6.578125 1.6875 0 2.84375-.625 3.90625-2.140625v1.796875zm-1.953125-6.078125c0 2.828125-1.34375 4.609375-3.40625 4.609375-2.15625 0-3.578125-1.796875-3.578125-4.65625 0-2.84375 1.421875-4.65625 3.546875-4.65625 2.109375 0 3.4375 1.875 3.4375 4.703125zm0 0"/></symbol><symbol id="aq" overflow="visible"><path d="m11.359375-12.25h-2.203125l-3.453125 9.9375-3.265625-9.9375h-2.203125l4.296875 12.25h2.125zm0 0"/></symbol><symbol id="ar" overflow="visible"><path d="m4.234375 0v-12.25h-1.9375v12.25zm2.96875-17.046875h-2.640625l-2.25 3.46875h1.40625zm0 0"/></symbol><symbol id="as" overflow="visible"><path d="m14.5625-4.859375c0-2.0625-.9375-3.296875-3.109375-4.140625 1.546875-.71875 2.359375-1.984375 2.359375-3.71875 0-2.46875-1.828125-4.328125-5.046875-4.328125h-6.921875v17.046875h7.6875c3.0625 0 5.03125-2.0625 5.03125-4.859375zm-2.921875-7.546875c0 1.71875-1 2.703125-3.40625 2.703125h-4.21875v-5.421875h4.21875c2.40625 0 3.40625.984375 3.40625 2.71875zm.75 7.5625c0 1.640625-1 2.921875-3.0625 2.921875h-5.3125v-5.859375h5.3125c2.0625 0 3.0625 1.28125 3.0625 2.9375zm0 0"/></symbol><symbol id="at" overflow="visible"><path d="m12.5-.046875v-1.46875c-.203125.046875-.296875.046875-.421875.046875-.671875 0-1.046875-.359375-1.046875-.96875v-6.8125c0-2.1875-1.59375-3.34375-4.609375-3.34375-2.96875 0-4.78125 1.140625-4.90625 3.96875h1.96875c.15625-1.5 1.046875-2.171875 2.875-2.171875 1.75 0 2.734375.65625 2.734375 1.828125v.5c0 .828125-.484375 1.171875-2.03125 1.359375-2.765625.359375-3.1875.453125-3.9375.75-1.421875.578125-2.140625 1.6875-2.140625 3.1875 0 2.21875 1.546875 3.515625 4.015625 3.515625 1.5625 0 3.09375-.640625 4.15625-1.796875.21875.9375 1.0625 1.609375 2.015625 1.609375.40625 0 .703125-.046875 1.328125-.203125zm-3.40625-4.1875c0 1.75-1.78125 2.875-3.671875 2.875-1.515625 0-2.40625-.53125-2.40625-1.859375 0-1.296875.859375-1.859375 2.9375-2.15625 2.0625-.28125 2.484375-.375 3.140625-.671875zm1.515625-12.8125h-2.640625l-2.234375 3.46875h1.390625zm0 0"/></symbol><symbol id="au" overflow="visible"><path d="m7.5-10.546875v-1.984375c-.328125-.046875-.484375-.0625-.75-.0625-1.25 0-2.21875.75-3.34375 2.5625v-2.21875h-1.765625v12.25h1.9375v-6.359375c0-2.75.90625-4.140625 3.921875-4.1875zm0 0"/></symbol><symbol id="av" overflow="visible"><path d="m4.46875 0v-2.4375h-2.4375v2.4375zm0 0"/></symbol><symbol id="aw" overflow="visible"><path d="m11.921875-6.03125c0-4.234375-2.03125-6.5625-5.5625-6.5625-3.4375 0-5.515625 2.359375-5.515625 6.46875s2.0625 6.46875 5.53125 6.46875c3.4375 0 5.546875-2.359375 5.546875-6.375zm-2.03125-.015625c0 2.875-1.359375 4.59375-3.515625 4.59375-2.171875 0-3.5-1.703125-3.5-4.671875 0-2.9375 1.328125-4.671875 3.5-4.671875 2.203125 0 3.515625 1.703125 3.515625 4.75zm.796875-11h-2.640625l-2.25 3.46875h1.40625zm0 0"/></symbol><symbol id="ax" overflow="visible"><path d="m14.515625-4.671875c0-2.109375-1.3125-3.65625-3.625-4.28125l-4.28125-1.140625c-2.046875-.546875-2.796875-1.21875-2.796875-2.53125 0-1.734375 1.515625-3.015625 3.8125-3.015625 2.703125 0 4.25 1.234375 4.25 3.46875h2.0625c0-3.34375-2.3125-5.296875-6.25-5.296875-3.734375 0-6.046875 2.0625-6.046875 5.15625 0 2.078125 1.09375 3.390625 3.34375 3.96875l4.21875 1.125c2.15625.5625 3.140625 1.421875 3.140625 2.75 0 1.875-1.40625 2.96875-4.34375 2.96875-3.234375 0-4.828125-1.609375-4.828125-4.046875h-2.046875c0 4.03125 2.703125 5.96875 6.734375 5.96875 4.3125 0 6.65625-2.0625 6.65625-5.09375zm0 0"/></symbol><symbol id="ay" overflow="visible"><path d="m11.921875-6.03125c0-4.234375-2.03125-6.5625-5.5625-6.5625-3.4375 0-5.515625 2.359375-5.515625 6.46875s2.0625 6.46875 5.53125 6.46875c3.4375 0 5.546875-2.359375 5.546875-6.375zm-2.03125-.015625c0 2.875-1.359375 4.59375-3.515625 4.59375-2.171875 0-3.5-1.703125-3.5-4.671875 0-2.9375 1.328125-4.671875 3.5-4.671875 2.203125 0 3.515625 1.703125 3.515625 4.75zm0 0"/></symbol><symbol id="az" overflow="visible"><path d="m11.359375 0v-9.25c0-2.0625-1.46875-3.34375-3.859375-3.34375-1.71875 0-2.78125.53125-3.921875 2.03125v-6.484375h-1.9375v17.046875h1.9375v-6.75c0-2.5 1.3125-4.140625 3.3125-4.140625 1.390625 0 2.53125.796875 2.53125 2.40625v8.484375zm0 0"/></symbol><symbol id="aA" overflow="visible"><path d="m6.03125-10.65625v-1.59375h-2.03125v-1.921875c0-.8125.46875-1.234375 1.359375-1.234375.15625 0 .234375 0 .671875.03125v-1.625c-.4375-.09375-.703125-.109375-1.09375-.109375-1.8125 0-2.875 1.03125-2.875 2.78125v2.078125h-1.640625v1.59375h1.640625v10.65625h1.9375v-10.65625zm0 0"/></symbol><symbol id="aB" overflow="visible"><path d="m11.265625 0v-12.25h-1.9375v6.75c0 2.515625-1.3125 4.140625-3.34375 4.140625-1.546875 0-2.53125-.9375-2.53125-2.40625v-8.484375h-1.9375v9.265625c0 2.03125 1.515625 3.328125 3.90625 3.328125 1.796875 0 2.953125-.625 4.09375-2.234375v1.890625zm0 0"/></symbol><symbol id="aC" overflow="visible"><path d=""/></symbol><symbol id="aD" overflow="visible"><path d="m11.265625 0v-12.25h-1.9375v6.75c0 2.515625-1.3125 4.140625-3.34375 4.140625-1.546875 0-2.53125-.9375-2.53125-2.40625v-8.484375h-1.9375v9.265625c0 2.03125 1.515625 3.328125 3.90625 3.328125 1.796875 0 2.953125-.625 4.09375-2.234375v1.890625zm-.578125-17.046875h-2.640625l-2.25 3.46875h1.40625zm0 0"/></symbol><symbol id="aE" overflow="visible"><path d="m17.765625 0v-9.1875c0-2.203125-1.21875-3.40625-3.5-3.40625-1.640625 0-2.625.484375-3.765625 1.859375-.734375-1.296875-1.71875-1.859375-3.296875-1.859375-1.640625 0-2.71875.609375-3.765625 2.078125v-1.734375h-1.78125v12.25h1.9375v-7.6875c0-1.78125 1.296875-3.203125 2.875-3.203125 1.453125 0 2.28125.890625 2.28125 2.453125v8.4375h1.9375v-7.6875c0-1.78125 1.296875-3.203125 2.890625-3.203125 1.421875 0 2.25.90625 2.25 2.453125v8.4375zm0 0"/></symbol><symbol id="aF" overflow="visible"><path d="m15.09375 0v-17.046875h-2.046875v13.9375l-8.90625-13.9375h-2.359375v17.046875h2.046875v-13.8125l8.8125 13.8125zm0 0"/></symbol><symbol id="aG" overflow="visible"><path d="m11.921875-6.03125c0-4.234375-2.03125-6.5625-5.5625-6.5625-3.4375 0-5.515625 2.359375-5.515625 6.46875s2.0625 6.46875 5.53125 6.46875c3.4375 0 5.546875-2.359375 5.546875-6.375zm-2.03125-.015625c0 2.875-1.359375 4.59375-3.515625 4.59375-2.171875 0-3.5-1.703125-3.5-4.671875 0-2.9375 1.328125-4.671875 3.5-4.671875 2.203125 0 3.515625 1.703125 3.515625 4.75zm-1.359375-11.015625h-2.640625l-2.25 3.5h1.40625zm3.828125 0h-2.640625l-2.234375 3.5h1.390625zm0 0"/></symbol><symbol id="aH" overflow="visible"><path d="m7.875 0v-14.765625h-1.9375c-.453125 1.75-1.984375 2.640625-4.515625 2.640625v1.9375h3.53125v10.1875zm0 0"/></symbol><symbol id="aI" overflow="visible"><path d="m4.453125 0v-3.046875h-3.125v3.046875zm0 0"/></symbol><g clip-path="url(#a)"><path d="m5.403646 14251.385417h9910.416666" fill="none" stroke="#000" stroke-linecap="round" stroke-miterlimit="10" stroke-width="10.8684" transform="matrix(.06 0 0 -.06 0 919.13)"/></g><g clip-path="url(#b)"><path d="m5.403646 14409.067708h9910.416666" fill="none" stroke="#000" stroke-linecap="round" stroke-miterlimit="10" stroke-width="10.8684" transform="matrix(.06 0 0 -.06 0 919.13)"/></g><g clip-path="url(#c)"><path d="m5.403646 14566.880208h9910.416666" fill="none" stroke="#000" stroke-linecap="round" stroke-miterlimit="10" stroke-width="10.8684" transform="matrix(.06 0 0 -.06 0 919.13)"/></g><g clip-path="url(#d)"><path d="m5.403646 14724.627604h9910.416666" fill="none" stroke="#000" stroke-linecap="round" stroke-miterlimit="10" stroke-width="10.8684" transform="matrix(.06 0 0 -.06 0 919.13)"/></g><g clip-path="url(#e)"><path d="m5.403646 14882.375h9910.416666" fill="none" stroke="#000" stroke-linecap="round" stroke-miterlimit="10" stroke-width="10.8684" transform="matrix(.06 0 0 -.06 0 919.13)"/></g><use x="534.96207" xlink:href="#P" y="49.847261"/><path d="m5317.252604 14443.507812h7.486979v435.546875h-7.486979zm0 0" style="fill:none;stroke-width:6.64093;stroke-linecap:round;stroke-linejoin:round;stroke:#000;stroke-miterlimit:10" transform="matrix(.06 0 0 -.06 0 919.13)"/><path d="m319.035156 52.519531h.449219v-26.132812h-.449219zm0 0"/><path d="m7916.536458 14044.419271h7.421875v488.085937h-7.421875zm0 0" style="fill:none;stroke-width:6.64093;stroke-linecap:round;stroke-linejoin:round;stroke:#000;stroke-miterlimit:10" transform="matrix(.06 0 0 -.06 0 919.13)"/><path d="m474.992188 76.464844h.445312v-29.285156h-.445312zm0 0"/><use x="468.045936" xlink:href="#V" y="97.169356"/><use x="480.971507" xlink:href="#W" y="97.169356"/><use x="474.79295" xlink:href="#P" y="45.115252"/><path d="m7000.065104 14221.567708h7.486979v389.84375h-7.486979zm0 0" style="fill:none;stroke-width:6.64093;stroke-linecap:round;stroke-linejoin:round;stroke:#000;stroke-miterlimit:10" transform="matrix(.06 0 0 -.06 0 919.13)"/><path d="m420.003906 65.835938h.449219v-23.386719h-.449219zm0 0"/><use x="417.481835" xlink:href="#X" y="97.169356"/><use x="429.216784" xlink:href="#Y" y="97.169356"/><use x="419.80684" xlink:href="#P" y="40.383243"/><path d="m6044.205729 14130.096354h7.486979v323.567708h-7.486979zm0 0" style="fill:none;stroke-width:6.64093;stroke-linecap:round;stroke-linejoin:round;stroke:#000;stroke-miterlimit:10" transform="matrix(.06 0 0 -.06 0 919.13)"/><path d="m362.652344 71.324219h.449218v-19.414063h-.449218zm0 0"/><use x="356.898714" xlink:href="#Z" y="97.169356"/><use x="362.171449" xlink:href="#aa" y="97.169356"/><use x="375.09702" xlink:href="#Z" y="97.169356"/><use x="362.454725" xlink:href="#P" y="49.847261"/><path d="m2528.515625 14759.197917v-69.075521l923.958333-32.421875v69.010416zm0 0" fill="none" stroke="#000" stroke-linejoin="round" stroke-miterlimit="10" stroke-width="6.64093" transform="matrix(.06 0 0 -.06 0 919.13)"/><path d="m151.710938 33.578125v4.144531l55.4375 1.945313v-4.140625zm0 0"/><path d="m3863.802083 13806.203125h95.377604v5.403646h-95.377604zm0 0" fill="none" stroke="#000" stroke-linejoin="round" stroke-miterlimit="10" stroke-width="8.69157" transform="matrix(.06 0 0 -.06 0 919.13)"/><path d="m231.828125 90.757812h5.722656v-.324218h-5.722656zm0 0"/><path d="m4400.846354 14847.804687h923.893229v69.075521h-923.893229zm0 0" fill="none" stroke="#000" stroke-linejoin="round" stroke-miterlimit="10" stroke-width="6.64093" transform="matrix(.06 0 0 -.06 0 919.13)"/><path d="m264.050781 28.261719h55.433594v-4.144531h-55.433594zm0 0"/><path d="m6044.205729 14160.630208v-69.010416l963.346354 92.773437v69.075521zm0 0" fill="none" stroke="#000" stroke-linejoin="round" stroke-miterlimit="10" stroke-width="6.64093" transform="matrix(.06 0 0 -.06 0 919.13)"/><path d="m362.652344 69.492188v4.140624l57.800781-5.566406v-4.144531zm0 0"/><path d="m6601.041667 13806.203125h95.442708v5.403646h-95.442708zm0 0" fill="none" stroke="#000" stroke-linejoin="round" stroke-miterlimit="10" stroke-width="8.69157" transform="matrix(.06 0 0 -.06 0 919.13)"/><path d="m396.0625 90.757812h5.726562v-.324218h-5.726562zm0 0"/><path d="m8423.828125 13806.203125h95.377604v5.403646h-95.377604zm0 0" fill="none" stroke="#000" stroke-linejoin="round" stroke-miterlimit="10" stroke-width="8.69157" transform="matrix(.06 0 0 -.06 0 919.13)"/><path d="m505.429688 90.757812h5.722656v-.324218h-5.722656zm0 0"/><use x="522.689045" xlink:href="#X" y="97.169356"/><use x="533.913994" xlink:href="#W" y="97.169356"/><use x="546.67014" xlink:href="#ab" y="97.169356"/><use x="553.133526" xlink:href="#ac" y="97.169356"/><use x="581.080162" xlink:href="#Q" y="35.650233"/><path d="m9111.197917 14522.414062h7.486979v514.388021h-7.486979zm0 0" fill="none" stroke="#000" stroke-linejoin="round" stroke-miterlimit="10" stroke-width="6.64093" transform="matrix(.06 0 0 -.06 0 919.13)"/><path d="m546.671875 47.785156h.449219v-30.863281h-.449219zm0 0"/><use x="48.889098" xlink:href="#ad" y="97.169356"/><use x="68.278054" xlink:href="#aa" y="97.169356"/><use x="81.203866" xlink:href="#ae" y="97.169356"/><use x="93.789599" xlink:href="#af" y="97.169356"/><use x="105.184944" xlink:href="#ag" y="97.169356"/><use x="140.00128" xlink:href="#P" y="64.04429"/><path d="m1441.341146 14443.507812h7.486979v514.453125h-7.486979zm0 0" fill="none" stroke="#000" stroke-linejoin="round" stroke-miterlimit="10" stroke-width="6.64093" transform="matrix(.06 0 0 -.06 0 919.13)"/><path d="m86.480469 52.519531h.449219v-30.863281h-.449219zm0 0"/><use x="22.077044" xlink:href="#aH" y="97.169356"/><use x="33.64279" xlink:href="#aI" y="97.169356"/><use x="307.324615" xlink:href="#P" y="54.579271"/><use x="40.697081" xlink:href="#R" y="26.185614"/><use x="7.571415" xlink:href="#S" y="54.579271"/><use x="74.769298" xlink:href="#P" y="54.579271"/><use x="182.373365" xlink:href="#ah" y="97.169356"/><use x="194.108314" xlink:href="#aa" y="97.169356"/><use x="207.034134" xlink:href="#ae" y="97.169356"/><use x="249.420042" xlink:href="#ai" y="97.169356"/><use x="262.345847" xlink:href="#Y" y="97.169356"/><path d="m4400.846354 14443.507812h7.421875v435.546875h-7.421875zm0 0" fill="none" stroke="#000" stroke-linejoin="round" stroke-miterlimit="10" stroke-width="6.64093" transform="matrix(.06 0 0 -.06 0 919.13)"/><path d="m264.050781 52.519531h.445313v-26.132812h-.445313zm0 0"/><use x="252.339505" xlink:href="#P" y="54.579271"/><use x="128.152256" xlink:href="#ae" y="97.169356"/><use x="140.738232" xlink:href="#af" y="97.169356"/><use x="152.473181" xlink:href="#Y" y="97.169356"/><use x="157.745931" xlink:href="#ab" y="97.169356"/><path d="m3444.921875 14206.919271h7.486979v482.226562h-7.486979zm0 0" fill="none" stroke="#000" stroke-linejoin="round" stroke-miterlimit="10" stroke-width="6.64093" transform="matrix(.06 0 0 -.06 0 919.13)"/><path d="m206.695312 66.714844h.449219v-28.933594h-.449219zm0 0"/><use x="194.98739" xlink:href="#P" y="68.776299"/><path d="m2528.515625 14285.825521h7.486979v435.286458h-7.486979zm0 0" fill="none" stroke="#000" stroke-linejoin="round" stroke-miterlimit="10" stroke-width="6.64093" transform="matrix(.06 0 0 -.06 0 919.13)"/><path d="m151.710938 61.980469h.449218v-26.117188h-.449218zm0 0"/><use x="307.041614" xlink:href="#aj" y="97.169356"/><g clip-path="url(#f)"><path d="m5.403646 12358.481771h9910.416666" style="fill:none;stroke-width:10.8684;stroke-linecap:round;stroke-linejoin:round;stroke:#000;stroke-miterlimit:10" transform="matrix(.06 0 0 -.06 0 919.13)"/></g><g clip-path="url(#g)"><path d="m5.403646 12516.229167h9910.416666" style="fill:none;stroke-width:10.8684;stroke-linecap:round;stroke-linejoin:round;stroke:#000;stroke-miterlimit:10" transform="matrix(.06 0 0 -.06 0 919.13)"/></g><g clip-path="url(#h)"><path d="m5.403646 12673.976562h9910.416666" style="fill:none;stroke-width:10.8684;stroke-linecap:round;stroke-linejoin:round;stroke:#000;stroke-miterlimit:10" transform="matrix(.06 0 0 -.06 0 919.13)"/></g><g clip-path="url(#i)"><path d="m5.403646 12831.723958h9910.416666" style="fill:none;stroke-width:10.8684;stroke-linecap:round;stroke-linejoin:round;stroke:#000;stroke-miterlimit:10" transform="matrix(.06 0 0 -.06 0 919.13)"/></g><g clip-path="url(#j)"><path d="m5.403646 12989.471354h9910.416666" style="fill:none;stroke-width:10.8684;stroke-linecap:round;stroke-linejoin:round;stroke:#000;stroke-miterlimit:10" transform="matrix(.06 0 0 -.06 0 919.13)"/></g><use x="527.287055" xlink:href="#P" y="168.153498"/><path d="m7850.130208 12629.510417h7.486979v514.38802h-7.486979zm0 0" style="fill:none;stroke-width:6.64093;stroke-linecap:round;stroke-linejoin:round;stroke:#000;stroke-miterlimit:10" transform="matrix(.06 0 0 -.06 0 919.13)"/><path d="m471.007812 161.359375h.449219v-30.863281h-.449219zm0 0"/><use x="452.549905" xlink:href="#ae" y="211.124584"/><use x="465.475476" xlink:href="#aa" y="211.124584"/><use x="459.296919" xlink:href="#P" y="163.421489"/><path d="m6527.473958 12151.515625h7.486979v488.085937h-7.486979zm0 0" style="fill:none;stroke-width:6.64093;stroke-linecap:round;stroke-linejoin:round;stroke:#000;stroke-miterlimit:10" transform="matrix(.06 0 0 -.06 0 919.13)"/><path d="m391.648438 190.039062h.449218v-29.285156h-.449218zm0 0"/><use x="391.166782" xlink:href="#W" y="211.124584"/><use x="391.450783" xlink:href="#P" y="158.689479"/><path d="m5689.192708 12787.192708h7.486979v355.859375h-7.486979zm0 0" style="fill:none;stroke-width:6.64093;stroke-linecap:round;stroke-linejoin:round;stroke:#000;stroke-miterlimit:10" transform="matrix(.06 0 0 -.06 0 919.13)"/><path d="m341.351562 151.898438h.449219v-21.351563h-.449219zm0 0"/><use x="323.576647" xlink:href="#ak" y="211.124584"/><use x="328.849148" xlink:href="#W" y="211.124584"/><use x="341.605499" xlink:href="#ab" y="211.124584"/><use x="329.641659" xlink:href="#P" y="153.95747"/><path d="m2327.473958 12166.229167h1037.630209v69.010416h-1037.630209zm0 0" fill="none" stroke="#000" stroke-linejoin="round" stroke-miterlimit="10" stroke-width="6.64093" transform="matrix(.06 0 0 -.06 0 919.13)"/><path d="m139.648438 189.15625h62.257812v-4.140625h-62.257812zm0 0"/><path d="m2869.661458 11906.919271h95.442709v5.403646h-95.442709zm0 0" fill="none" stroke="#000" stroke-linejoin="round" stroke-miterlimit="10" stroke-width="8.69157" transform="matrix(.06 0 0 -.06 0 919.13)"/><path d="m172.179688 204.714844h5.722656v-.324219h-5.722656zm0 0"/><path d="m4619.661458 13056.398437v-69.010416l1077.018229 125.325521v69.07552zm0 0" fill="none" stroke="#000" stroke-linejoin="round" stroke-miterlimit="10" stroke-width="6.64093" transform="matrix(.06 0 0 -.06 0 919.13)"/><path d="m277.179688 135.746094v4.140625l64.621093-7.519531v-4.144532zm0 0"/><path d="m5171.809896 11906.919271h95.442708v5.403646h-95.442708zm0 0" fill="none" stroke="#000" stroke-linejoin="round" stroke-miterlimit="10" stroke-width="8.69157" transform="matrix(.06 0 0 -.06 0 919.13)"/><path d="m310.308594 204.714844h5.726562v-.324219h-5.726562zm0 0"/><path d="m7090.950521 11906.919271h95.442708v5.403646h-95.442708zm0 0" fill="none" stroke="#000" stroke-linejoin="round" stroke-miterlimit="10" stroke-width="8.69157" transform="matrix(.06 0 0 -.06 0 919.13)"/><path d="m425.457031 204.714844h5.726563v-.324219h-5.726563zm0 0"/><path d="m8153.450521 11906.919271h95.442708v5.403646h-95.442708zm0 0" fill="none" stroke="#000" stroke-linejoin="round" stroke-miterlimit="10" stroke-width="8.69157" transform="matrix(.06 0 0 -.06 0 919.13)"/><path d="m489.207031 204.714844h5.726563v-.324219h-5.726563zm0 0"/><use x="505.744011" xlink:href="#X" y="211.124584"/><use x="517.13935" xlink:href="#al" y="211.124584"/><use x="530.06495" xlink:href="#ae" y="211.124584"/><use x="542.990784" xlink:href="#X" y="211.124584"/><use x="554.725733" xlink:href="#ac" y="211.124584"/><use x="581.080162" xlink:href="#T" y="158.689479"/><path d="m8983.268229 12550.604167h7.486979v514.453125h-7.486979zm0 0" fill="none" stroke="#000" stroke-linejoin="round" stroke-miterlimit="10" stroke-width="6.64093" transform="matrix(.06 0 0 -.06 0 919.13)"/><path d="m538.996094 166.09375h.449218v-30.867188h-.449218zm0 0"/><use x="40.697381" xlink:href="#R" y="139.760441"/><path d="m1233.723958 12283.026042h7.486979v514.38802h-7.486979zm0 0" fill="none" stroke="#000" stroke-linejoin="round" stroke-miterlimit="10" stroke-width="6.64093" transform="matrix(.06 0 0 -.06 0 919.13)"/><path d="m74.023438 182.148438h.449218v-30.863282h-.449218zm0 0"/><use x="72.179244" xlink:href="#am" y="211.124584"/><use x="73.823348" xlink:href="#P" y="149.22446"/><use x="7.571715" xlink:href="#S" y="168.153298"/><use x="201.256103" xlink:href="#P" y="158.688979"/><path d="m4619.661458 12550.604167h7.421875v468.815104h-7.421875zm0 0" fill="none" stroke="#000" stroke-linejoin="round" stroke-miterlimit="10" stroke-width="6.64093" transform="matrix(.06 0 0 -.06 0 919.13)"/><path d="m277.179688 166.09375h.445312v-28.128906h-.445312zm0 0"/><use x="240.521481" xlink:href="#an" y="211.124584"/><use x="252.256665" xlink:href="#ao" y="211.124584"/><use x="263.991614" xlink:href="#aa" y="211.124584"/><use x="276.917419" xlink:href="#ae" y="211.124584"/><use x="289.84299" xlink:href="#ap" y="211.124584"/><use x="265.466531" xlink:href="#P" y="168.153498"/><path d="m3357.552083 12204.119792h7.486979v435.546875h-7.486979zm0 0" fill="none" stroke="#000" stroke-linejoin="round" stroke-miterlimit="10" stroke-width="6.64093" transform="matrix(.06 0 0 -.06 0 919.13)"/><path d="m201.453125 186.882812h.449219v-26.132812h-.449219zm0 0"/><use x="189.492379" xlink:href="#aq" y="211.124584"/><use x="200.717328" xlink:href="#aa" y="211.124584"/><use x="213.642913" xlink:href="#X" y="211.124584"/><path d="m2327.408854 12204.119792h7.486979v435.546875h-7.486979zm0 0" fill="none" stroke="#000" stroke-linejoin="round" stroke-miterlimit="10" stroke-width="6.64093" transform="matrix(.06 0 0 -.06 0 919.13)"/><path d="m139.644531 186.882812h.449219v-26.132812h-.449219zm0 0"/><use x="139.447279" xlink:href="#P" y="158.689479"/><use x="130.659261" xlink:href="#ao" y="211.124584"/><use x="142.394445" xlink:href="#ah" y="211.124584"/><use x="154.129394" xlink:href="#ar" y="211.124584"/><g clip-path="url(#k)"><path d="m5.403646 10465.578125h9910.416666" style="fill:none;stroke-width:10.8684;stroke-linecap:round;stroke-linejoin:round;stroke:#000;stroke-miterlimit:10" transform="matrix(.06 0 0 -.06 0 919.13)"/></g><g clip-path="url(#l)"><path d="m5.403646 10623.325521h9910.416666" style="fill:none;stroke-width:10.8684;stroke-linecap:round;stroke-linejoin:round;stroke:#000;stroke-miterlimit:10" transform="matrix(.06 0 0 -.06 0 919.13)"/></g><g clip-path="url(#m)"><path d="m5.403646 10781.072917h9910.416666" style="fill:none;stroke-width:10.8684;stroke-linecap:round;stroke-linejoin:round;stroke:#000;stroke-miterlimit:10" transform="matrix(.06 0 0 -.06 0 919.13)"/></g><g clip-path="url(#n)"><path d="m5.403646 10938.820312h9910.416666" style="fill:none;stroke-width:10.8684;stroke-linecap:round;stroke-linejoin:round;stroke:#000;stroke-miterlimit:10" transform="matrix(.06 0 0 -.06 0 919.13)"/></g><g clip-path="url(#o)"><path d="m5.403646 11096.567708h9910.416666" style="fill:none;stroke-width:10.8684;stroke-linecap:round;stroke-linejoin:round;stroke:#000;stroke-miterlimit:10" transform="matrix(.06 0 0 -.06 0 919.13)"/></g><path d="m6952.539062 10435.825521h7.48698v389.778646h-7.48698zm0 0" style="fill:none;stroke-width:6.64093;stroke-linecap:round;stroke-linejoin:round;stroke:#000;stroke-miterlimit:10" transform="matrix(.06 0 0 -.06 0 919.13)"/><path d="m417.152344 292.980469h.449218v-23.386719h-.449218zm0 0"/><use x="533.975068" xlink:href="#P" y="276.995716"/><use x="472.817146" xlink:href="#P" y="272.263436"/><use x="460.20292" xlink:href="#ah" y="324.31881"/><use x="471.93787" xlink:href="#aa" y="324.31881"/><use x="484.863675" xlink:href="#ae" y="324.31881"/><path d="m7883.59375 10258.611979h7.486979v488.085938h-7.486979zm0 0" style="fill:none;stroke-width:6.64093;stroke-linecap:round;stroke-linejoin:round;stroke:#000;stroke-miterlimit:10" transform="matrix(.06 0 0 -.06 0 919.13)"/><path d="m473.015625 303.613281h.449219v-29.285156h-.449219zm0 0"/><path d="m5240.429687 10657.700521h7.48698v435.546875h-7.48698zm0 0" style="fill:none;stroke-width:6.64093;stroke-linecap:round;stroke-linejoin:round;stroke:#000;stroke-miterlimit:10" transform="matrix(.06 0 0 -.06 0 919.13)"/><path d="m314.425781 279.667969h.449219v-26.132813h-.449219zm0 0"/><use x="416.669833" xlink:href="#al" y="324.31881"/><use x="416.953834" xlink:href="#P" y="267.531697"/><path d="m5982.03125 10344.289062h7.486979v323.632813h-7.486979zm0 0" style="fill:none;stroke-width:6.64093;stroke-linecap:round;stroke-linejoin:round;stroke:#000;stroke-miterlimit:10" transform="matrix(.06 0 0 -.06 0 919.13)"/><path d="m358.921875 298.472656h.449219v-19.417968h-.449219zm0 0"/><use x="346.109692" xlink:href="#ao" y="324.31881"/><use x="357.844641" xlink:href="#W" y="324.31881"/><use x="370.770447" xlink:href="#ai" y="324.31881"/><use x="358.723717" xlink:href="#P" y="276.995716"/><path d="m2407.8125 10973.390625v-69.075521l938.541667-32.421875v69.010417zm0 0" fill="none" stroke="#000" stroke-linejoin="round" stroke-miterlimit="10" stroke-width="6.64093" transform="matrix(.06 0 0 -.06 0 919.13)"/><path d="m144.46875 260.726562v4.144532l56.3125 1.945312v-4.140625zm0 0"/><path d="m4309.375 11061.997396h938.541667v69.075521h-938.541667zm0 0" fill="none" stroke="#000" stroke-linejoin="round" stroke-miterlimit="10" stroke-width="6.64093" transform="matrix(.06 0 0 -.06 0 919.13)"/><path d="m258.5625 255.410156h56.3125v-4.144531h-56.3125zm0 0"/><path d="m5491.40625 10020.395833h95.442708v5.403646h-95.442708zm0 0" fill="none" stroke="#000" stroke-linejoin="round" stroke-miterlimit="10" stroke-width="8.69157" transform="matrix(.06 0 0 -.06 0 919.13)"/><path d="m329.484375 317.90625h5.726563v-.324219h-5.726563zm0 0"/><path d="m5982.03125 10374.822917v-69.010417l977.994792 92.773437v69.140625zm0 0" fill="none" stroke="#000" stroke-linejoin="round" stroke-miterlimit="10" stroke-width="6.64093" transform="matrix(.06 0 0 -.06 0 919.13)"/><path d="m358.921875 296.640625v4.140625l58.679687-5.566406v-4.148438zm0 0"/><path d="m7367.252604 10020.395833h95.442708v5.403646h-95.442708zm0 0" fill="none" stroke="#000" stroke-linejoin="round" stroke-miterlimit="10" stroke-width="8.69157" transform="matrix(.06 0 0 -.06 0 919.13)"/><path d="m442.035156 317.90625h5.726563v-.324219h-5.726563zm0 0"/><path d="m8467.838542 10020.395833h95.442708v5.403646h-95.442708zm0 0" fill="none" stroke="#000" stroke-linejoin="round" stroke-miterlimit="10" stroke-width="8.69157" transform="matrix(.06 0 0 -.06 0 919.13)"/><path d="m508.070312 317.90625h5.726563v-.324219h-5.726563zm0 0"/><use x="524.082048" xlink:href="#ai" y="324.31881"/><use x="537.007882" xlink:href="#aa" y="324.31881"/><use x="549.764028" xlink:href="#ab" y="324.31881"/><use x="581.080162" xlink:href="#Q" y="262.798687"/><path d="m9094.726562 10736.606771h7.48698v514.388021h-7.48698zm0 0" fill="none" stroke="#000" stroke-linejoin="round" stroke-miterlimit="10" stroke-width="6.64093" transform="matrix(.06 0 0 -.06 0 919.13)"/><path d="m545.683594 274.933594h.449218v-30.863282h-.449218zm0 0"/><use x="132.759266" xlink:href="#P" y="291.192744"/><path d="m1425.585937 10657.700521h7.421875v514.453125h-7.421875zm0 0" fill="none" stroke="#000" stroke-linejoin="round" stroke-miterlimit="10" stroke-width="6.64093" transform="matrix(.06 0 0 -.06 0 919.13)"/><path d="m85.535156 279.667969h.445313v-30.867188h-.445313zm0 0"/><use x="61.804324" xlink:href="#as" y="324.31881"/><use x="77.451941" xlink:href="#at" y="324.31881"/><use x="90.377753" xlink:href="#au" y="324.31881"/><use x="73.823348" xlink:href="#P" y="281.727725"/><use x="302.71615" xlink:href="#P" y="281.727725"/><use x="40.697381" xlink:href="#R" y="253.334068"/><use x="7.571715" xlink:href="#S" y="281.727725"/><use x="299.201598" xlink:href="#ar" y="324.31881"/><use x="305.664984" xlink:href="#ae" y="324.31881"/><path d="m4309.375 10657.700521h7.486979v435.546875h-7.486979zm0 0" fill="none" stroke="#000" stroke-linejoin="round" stroke-miterlimit="10" stroke-width="6.64093" transform="matrix(.06 0 0 -.06 0 919.13)"/><path d="m258.5625 279.667969h.449219v-26.132813h-.449219zm0 0"/><use x="240.700481" xlink:href="#W" y="324.31881"/><use x="253.626286" xlink:href="#ao" y="324.31881"/><use x="246.852494" xlink:href="#P" y="281.727725"/><use x="113.851228" xlink:href="#X" y="324.31881"/><use x="125.246566" xlink:href="#al" y="324.31881"/><use x="138.172151" xlink:href="#ae" y="324.31881"/><use x="151.097971" xlink:href="#ae" y="324.31881"/><path d="m3338.867187 10421.111979h7.48698v482.226563h-7.48698zm0 0" fill="none" stroke="#000" stroke-linejoin="round" stroke-miterlimit="10" stroke-width="6.64093" transform="matrix(.06 0 0 -.06 0 919.13)"/><path d="m200.332031 293.863281h.449219v-28.933593h-.449219zm0 0"/><use x="188.622377" xlink:href="#P" y="295.924754"/><use x="179.240358" xlink:href="#X" y="324.31881"/><use x="190.975542" xlink:href="#ar" y="324.31881"/><use x="197.438913" xlink:href="#ae" y="324.31881"/><path d="m2407.8125 10500.018229h7.486979v435.286458h-7.486979zm0 0" fill="none" stroke="#000" stroke-linejoin="round" stroke-miterlimit="10" stroke-width="6.64093" transform="matrix(.06 0 0 -.06 0 919.13)"/><path d="m144.46875 289.128906h.449219v-26.117187h-.449219zm0 0"/><g clip-path="url(#p)"><path d="m5.403646 8572.674479h9910.416666" style="fill:none;stroke-width:10.8684;stroke-linecap:round;stroke-linejoin:round;stroke:#000;stroke-miterlimit:10" transform="matrix(.06 0 0 -.06 0 919.13)"/></g><g clip-path="url(#q)"><path d="m5.403646 8730.421875h9910.416666" style="fill:none;stroke-width:10.8684;stroke-linecap:round;stroke-linejoin:round;stroke:#000;stroke-miterlimit:10" transform="matrix(.06 0 0 -.06 0 919.13)"/></g><g clip-path="url(#r)"><path d="m5.403646 8888.169271h9910.416666" style="fill:none;stroke-width:10.8684;stroke-linecap:round;stroke-linejoin:round;stroke:#000;stroke-miterlimit:10" transform="matrix(.06 0 0 -.06 0 919.13)"/></g><g clip-path="url(#s)"><path d="m5.403646 9045.916667h9910.416666" style="fill:none;stroke-width:10.8684;stroke-linecap:round;stroke-linejoin:round;stroke:#000;stroke-miterlimit:10" transform="matrix(.06 0 0 -.06 0 919.13)"/></g><g clip-path="url(#t)"><path d="m5.403646 9203.664062h9910.416666" style="fill:none;stroke-width:10.8684;stroke-linecap:round;stroke-linejoin:round;stroke:#000;stroke-miterlimit:10" transform="matrix(.06 0 0 -.06 0 919.13)"/></g><use x="503.730007" xlink:href="#X" y="437.893038"/><use x="515.125346" xlink:href="#al" y="437.893038"/><use x="528.050946" xlink:href="#ae" y="437.893038"/><use x="540.97678" xlink:href="#X" y="437.893038"/><use x="552.711729" xlink:href="#av" y="437.893038"/><use x="525.274051" xlink:href="#P" y="395.302952"/><path d="m7889.713542 8685.955729h7.486979v482.161458h-7.486979zm0 0" style="fill:none;stroke-width:6.64093;stroke-linecap:round;stroke-linejoin:round;stroke:#000;stroke-miterlimit:10" transform="matrix(.06 0 0 -.06 0 919.13)"/><path d="m473.382812 397.972656h.449219v-28.929687h-.449219zm0 0"/><use x="454.92891" xlink:href="#ae" y="437.893038"/><use x="467.85448" xlink:href="#aa" y="437.893038"/><use x="461.674923" xlink:href="#P" y="400.034962"/><path d="m6829.752604 8764.796875h7.486979v435.351562h-7.486979zm0 0" style="fill:none;stroke-width:6.64093;stroke-linecap:round;stroke-linejoin:round;stroke:#000;stroke-miterlimit:10" transform="matrix(.06 0 0 -.06 0 919.13)"/><path d="m409.785156 393.242188h.449219v-26.121094h-.449219zm0 0"/><use x="389.543779" xlink:href="#aq" y="437.893038"/><use x="400.768728" xlink:href="#aj" y="437.893038"/><use x="413.694533" xlink:href="#Z" y="437.893038"/><use x="398.075796" xlink:href="#P" y="395.302952"/><path d="m5769.791667 8764.796875h7.486979v435.742187h-7.486979zm0 0" style="fill:none;stroke-width:6.64093;stroke-linecap:round;stroke-linejoin:round;stroke:#000;stroke-miterlimit:10" transform="matrix(.06 0 0 -.06 0 919.13)"/><path d="m346.1875 393.242188h.449219v-26.144532h-.449219zm0 0"/><use x="322.459645" xlink:href="#ao" y="437.893038"/><use x="334.194829" xlink:href="#ah" y="437.893038"/><use x="345.929778" xlink:href="#aw" y="437.893038"/><use x="334.477669" xlink:href="#P" y="395.302952"/><path d="m2400.455729 8481.919271v-69.075521l1067.447917-32.421875v69.075521zm0 0" fill="none" stroke="#000" stroke-linejoin="round" stroke-miterlimit="10" stroke-width="6.64093" transform="matrix(.06 0 0 -.06 0 919.13)"/><path d="m144.027344 410.214844v4.144531l64.046875 1.945313v-4.144532zm0 0"/><path d="m2987.304687 8127.492187h95.442709v5.403646h-95.442709zm0 0" fill="none" stroke="#000" stroke-linejoin="round" stroke-miterlimit="10" stroke-width="8.69157" transform="matrix(.06 0 0 -.06 0 919.13)"/><path d="m179.238281 431.480469h5.726563v-.324219h-5.726563zm0 0"/><path d="m4709.830729 9270.65625v-69.075521l1067.447917-32.421875v69.075521zm0 0" fill="none" stroke="#000" stroke-linejoin="round" stroke-miterlimit="10" stroke-width="6.64093" transform="matrix(.06 0 0 -.06 0 919.13)"/><path d="m282.589844 362.890625v4.144531l64.046875 1.945313v-4.144531zm0 0"/><path d="m5046.028646 8127.492187h95.442708v5.403646h-95.442708zm0 0" fill="none" stroke="#000" stroke-linejoin="round" stroke-miterlimit="10" stroke-width="8.69157" transform="matrix(.06 0 0 -.06 0 919.13)"/><path d="m302.761719 431.480469h5.726562v-.324219h-5.726562zm0 0"/><path d="m6188.932292 8127.492187h95.442708v5.403646h-95.442708zm0 0" fill="none" stroke="#000" stroke-linejoin="round" stroke-miterlimit="10" stroke-width="8.69157" transform="matrix(.06 0 0 -.06 0 919.13)"/><path d="m371.335938 431.480469h5.726562v-.324219h-5.726562zm0 0"/><path d="m6829.752604 9238.169271v-69.010417l1067.447917-32.421875v69.075521zm0 0" fill="none" stroke="#000" stroke-linejoin="round" stroke-miterlimit="10" stroke-width="6.64093" transform="matrix(.06 0 0 -.06 0 919.13)"/><path d="m409.785156 364.839844v4.140625l64.046875 1.945312v-4.144531zm0 0"/><path d="m8156.510417 8127.492187h95.442708v5.403646h-95.442708zm0 0" fill="none" stroke="#000" stroke-linejoin="round" stroke-miterlimit="10" stroke-width="8.69157" transform="matrix(.06 0 0 -.06 0 919.13)"/><path d="m489.390625 431.480469h5.726563v-.324219h-5.726563zm0 0"/><path d="m8949.739583 8764.796875h7.486979v514.453125h-7.486979zm0 0" fill="none" stroke="#000" stroke-linejoin="round" stroke-miterlimit="10" stroke-width="6.64093" transform="matrix(.06 0 0 -.06 0 919.13)"/><path d="m536.984375 393.242188h.445313v-30.867188h-.445313zm0 0"/><use x="581.080162" xlink:href="#T" y="385.837933"/><use x="40.697081" xlink:href="#R" y="366.908796"/><path d="m1233.723958 8497.153646h7.486979v514.453125h-7.486979zm0 0" fill="none" stroke="#000" stroke-linejoin="round" stroke-miterlimit="10" stroke-width="6.64093" transform="matrix(.06 0 0 -.06 0 919.13)"/><path d="m74.023438 409.300781h.449218v-30.867187h-.449218zm0 0"/><use x="59.84802" xlink:href="#ax" y="437.893038"/><use x="75.495637" xlink:href="#ay" y="437.893038"/><use x="88.421449" xlink:href="#X" y="437.893038"/><use x="73.823348" xlink:href="#P" y="376.372914"/><use x="7.571715" xlink:href="#S" y="395.302052"/><use x="194.81139" xlink:href="#ai" y="437.893038"/><use x="207.736975" xlink:href="#ay" y="437.893038"/><use x="220.662795" xlink:href="#ao" y="437.893038"/><path d="m4709.830729 8843.638021h7.486979v388.932291h-7.486979zm0 0" fill="none" stroke="#000" stroke-linejoin="round" stroke-miterlimit="10" stroke-width="6.64093" transform="matrix(.06 0 0 -.06 0 919.13)"/><path d="m282.589844 388.511719h.449218v-23.335938h-.449218zm0 0"/><use x="265.323531" xlink:href="#ak" y="437.893038"/><use x="270.596266" xlink:href="#aj" y="437.893038"/><use x="283.521836" xlink:href="#ak" y="437.893038"/><use x="270.879542" xlink:href="#P" y="390.569943"/><path d="m3460.416667 8418.507812h7.486979v435.286459h-7.486979zm0 0" fill="none" stroke="#000" stroke-linejoin="round" stroke-miterlimit="10" stroke-width="6.64093" transform="matrix(.06 0 0 -.06 0 919.13)"/><path d="m207.625 414.019531h.445312v-26.117187h-.445312zm0 0"/><use x="207.425415" xlink:href="#P" y="385.837933"/><use x="143.826688" xlink:href="#P" y="381.105654"/><use x="130.617261" xlink:href="#az" y="437.893038"/><use x="143.542847" xlink:href="#aj" y="437.893038"/><use x="156.468666" xlink:href="#ae" y="437.893038"/><path d="m2400.455729 8450.473958h7.486979v482.226563h-7.486979zm0 0" fill="none" stroke="#000" stroke-linejoin="round" stroke-miterlimit="10" stroke-width="6.64093" transform="matrix(.06 0 0 -.06 0 919.13)"/><path d="m144.027344 412.101562h.445312v-28.933593h-.445312zm0 0"/><g clip-path="url(#u)"><path d="m5.403646 6679.770833h9910.416666" style="fill:none;stroke-width:10.8684;stroke-linecap:round;stroke-linejoin:round;stroke:#000;stroke-miterlimit:10" transform="matrix(.06 0 0 -.06 0 919.13)"/></g><g clip-path="url(#v)"><path d="m5.403646 6837.518229h9910.416666" style="fill:none;stroke-width:10.8684;stroke-linecap:round;stroke-linejoin:round;stroke:#000;stroke-miterlimit:10" transform="matrix(.06 0 0 -.06 0 919.13)"/></g><g clip-path="url(#w)"><path d="m5.403646 6995.265625h9910.416666" style="fill:none;stroke-width:10.8684;stroke-linecap:round;stroke-linejoin:round;stroke:#000;stroke-miterlimit:10" transform="matrix(.06 0 0 -.06 0 919.13)"/></g><g clip-path="url(#x)"><path d="m5.403646 7153.013021h9910.416666" style="fill:none;stroke-width:10.8684;stroke-linecap:round;stroke-linejoin:round;stroke:#000;stroke-miterlimit:10" transform="matrix(.06 0 0 -.06 0 919.13)"/></g><g clip-path="url(#y)"><path d="m5.403646 7310.760417h9910.416666" style="fill:none;stroke-width:10.8684;stroke-linecap:round;stroke-linejoin:round;stroke:#000;stroke-miterlimit:10" transform="matrix(.06 0 0 -.06 0 919.13)"/></g><use x="407.545815" xlink:href="#ao" y="551.467265"/><use x="419.280764" xlink:href="#aj" y="551.467265"/><use x="432.206569" xlink:href="#ae" y="551.467265"/><path d="m7197.851562 6793.052083h7.421875v482.226563h-7.421875zm0 0" style="fill:none;stroke-width:6.64093;stroke-linecap:round;stroke-linejoin:round;stroke:#000;stroke-miterlimit:10" transform="matrix(.06 0 0 -.06 0 919.13)"/><path d="m431.871094 511.546875h.445312v-28.933594h-.445312zm0 0"/><use x="474.99195" xlink:href="#P" y="518.341198"/><use x="472.072944" xlink:href="#aa" y="551.467265"/><use x="484.998749" xlink:href="#Z" y="551.467265"/><path d="m8111.71875 6714.145833h7.486979v514.453125h-7.486979zm0 0" style="fill:none;stroke-width:6.64093;stroke-linecap:round;stroke-linejoin:round;stroke:#000;stroke-miterlimit:10" transform="matrix(.06 0 0 -.06 0 919.13)"/><path d="m486.703125 516.28125h.449219v-30.867188h-.449219zm0 0"/><use x="291.440583" xlink:href="#aq" y="551.467265"/><use x="302.665532" xlink:href="#W" y="551.467265"/><use x="315.591102" xlink:href="#au" y="551.467265"/><use x="321.713707" xlink:href="#ac" y="551.467265"/><use x="420.15984" xlink:href="#P" y="513.609189"/><path d="m6258.007812 6871.893229h7.48698v435.286458h-7.48698zm0 0" style="fill:none;stroke-width:6.64093;stroke-linecap:round;stroke-linejoin:round;stroke:#000;stroke-miterlimit:10" transform="matrix(.06 0 0 -.06 0 919.13)"/><path d="m375.480469 506.816406h.449219v-26.117187h-.449219zm0 0"/><use x="347.500695" xlink:href="#ai" y="551.467265"/><use x="360.426266" xlink:href="#af" y="551.467265"/><use x="371.651215" xlink:href="#ay" y="551.467265"/><use x="384.57702" xlink:href="#au" y="551.467265"/><use x="363.771728" xlink:href="#P" y="508.877179"/><path d="m5255.664062 6950.799479h7.48698v514.388021h-7.48698zm0 0" style="fill:none;stroke-width:6.64093;stroke-linecap:round;stroke-linejoin:round;stroke:#000;stroke-miterlimit:10" transform="matrix(.06 0 0 -.06 0 919.13)"/><path d="m315.339844 502.082031h.449218v-30.863281h-.449218zm0 0"/><path d="m2236.067708 6714.341146v-69.075521l921.354167-32.421875v69.075521zm0 0" fill="none" stroke="#000" stroke-linejoin="round" stroke-miterlimit="10" stroke-width="6.64093" transform="matrix(.06 0 0 -.06 0 919.13)"/><path d="m134.164062 516.269531v4.144531l55.28125 1.945313v-4.144531zm0 0"/><path d="m2686.132812 6234.588542h95.442709v5.403645h-95.442709zm0 0" fill="none" stroke="#000" stroke-linejoin="round" stroke-miterlimit="10" stroke-width="8.69157" transform="matrix(.06 0 0 -.06 0 919.13)"/><path d="m161.167969 545.054688h5.726562v-.324219h-5.726562zm0 0"/><path d="m4617.1875 6234.588542h95.442708v5.403645h-95.442708zm0 0" fill="none" stroke="#000" stroke-linejoin="round" stroke-miterlimit="10" stroke-width="8.69157" transform="matrix(.06 0 0 -.06 0 919.13)"/><path d="m277.03125 545.054688h5.726562v-.324219h-5.726562zm0 0"/><path d="m6258.007812 7345.265625v-69.010417l947.265625-32.486979v69.140625zm0 0" fill="none" stroke="#000" stroke-linejoin="round" stroke-miterlimit="10" stroke-width="6.64093" transform="matrix(.06 0 0 -.06 0 919.13)"/><path d="m375.480469 478.414062v4.140626l56.835937 1.949218v-4.148437zm0 0"/><path d="m6618.489583 6234.588542h95.442709v5.403645h-95.442709zm0 0" fill="none" stroke="#000" stroke-linejoin="round" stroke-miterlimit="10" stroke-width="8.69157" transform="matrix(.06 0 0 -.06 0 919.13)"/><path d="m397.109375 545.054688h5.726563v-.324219h-5.726563zm0 0"/><path d="m8441.080729 6234.588542h95.442708v5.403645h-95.442708zm0 0" fill="none" stroke="#000" stroke-linejoin="round" stroke-miterlimit="10" stroke-width="8.69157" transform="matrix(.06 0 0 -.06 0 919.13)"/><path d="m506.464844 545.054688h5.726562v-.324219h-5.726562zm0 0"/><use x="535.13507" xlink:href="#P" y="523.073208"/><use x="581.080662" xlink:href="#Q" y="489.947242"/><path d="m9114.0625 6635.304687h7.486979v514.388021h-7.486979zm0 0" fill="none" stroke="#000" stroke-linejoin="round" stroke-miterlimit="10" stroke-width="6.64093" transform="matrix(.06 0 0 -.06 0 919.13)"/><path d="m546.84375 521.011719h.449219v-30.863281h-.449219zm0 0"/><use x="528.387057" xlink:href="#aA" y="551.467265"/><use x="534.850443" xlink:href="#aB" y="551.467265"/><use x="547.776043" xlink:href="#ab" y="551.467265"/><use x="40.697381" xlink:href="#R" y="480.483123"/><use x="303.629907" xlink:href="#P" y="504.14447"/><path d="m1233.723958 6604.25h7.486979v514.453125h-7.486979zm0 0" fill="none" stroke="#000" stroke-linejoin="round" stroke-miterlimit="10" stroke-width="6.64093" transform="matrix(.06 0 0 -.06 0 919.13)"/><path d="m74.023438 522.875h.449218v-30.867188h-.449218zm0 0"/><use x="66.311433" xlink:href="#am" y="551.467265"/><use x="81.95905" xlink:href="#ah" y="551.467265"/><use x="73.823348" xlink:href="#P" y="489.948142"/><use x="7.571715" xlink:href="#S" y="508.877279"/><use x="243.631187" xlink:href="#P" y="499.412731"/><use x="231.272463" xlink:href="#ab" y="551.467265"/><use x="237.395051" xlink:href="#aa" y="551.467265"/><use x="250.320856" xlink:href="#ao" y="551.467265"/><use x="261.886351" xlink:href="#ab" y="551.467265"/><path d="m4063.867187 6472.804687h7.421875v488.085938h-7.421875zm0 0" fill="none" stroke="#000" stroke-linejoin="round" stroke-miterlimit="10" stroke-width="6.64093" transform="matrix(.06 0 0 -.06 0 919.13)"/><path d="m243.832031 530.761719h.445313v-29.285157h-.445313zm0 0"/><path d="m3149.934896 6650.929687h7.486979v388.867188h-7.486979zm0 0" fill="none" stroke="#000" stroke-linejoin="round" stroke-miterlimit="10" stroke-width="6.64093" transform="matrix(.06 0 0 -.06 0 919.13)"/><path d="m188.996094 520.074219h.449218v-23.332031h-.449218zm0 0"/><use x="181.456363" xlink:href="#au" y="551.467265"/><use x="189.110363" xlink:href="#aj" y="551.467265"/><use x="202.035948" xlink:href="#ac" y="551.467265"/><use x="188.798378" xlink:href="#P" y="494.680151"/><path d="m2236.067708 6682.895833h7.486979v435.807292h-7.486979zm0 0" fill="none" stroke="#000" stroke-linejoin="round" stroke-miterlimit="10" stroke-width="6.64093" transform="matrix(.06 0 0 -.06 0 919.13)"/><path d="m134.164062 518.15625h.449219v-26.144531h-.449219zm0 0"/><use x="133.681267" xlink:href="#aw" y="551.467265"/><use x="133.965268" xlink:href="#P" y="489.948142"/><g clip-path="url(#z)"><path d="m5.403646 4786.932292h9910.416666" style="fill:none;stroke-width:10.8684;stroke-linecap:round;stroke-linejoin:round;stroke:#000;stroke-miterlimit:10" transform="matrix(.06 0 0 -.06 0 919.13)"/></g><g clip-path="url(#A)"><path d="m5.403646 4944.614583h9910.416666" style="fill:none;stroke-width:10.8684;stroke-linecap:round;stroke-linejoin:round;stroke:#000;stroke-miterlimit:10" transform="matrix(.06 0 0 -.06 0 919.13)"/></g><g clip-path="url(#B)"><path d="m5.403646 5102.361979h9910.416666" style="fill:none;stroke-width:10.8684;stroke-linecap:round;stroke-linejoin:round;stroke:#000;stroke-miterlimit:10" transform="matrix(.06 0 0 -.06 0 919.13)"/></g><g clip-path="url(#C)"><path d="m5.403646 5260.109375h9910.416666" style="fill:none;stroke-width:10.8684;stroke-linecap:round;stroke-linejoin:round;stroke:#000;stroke-miterlimit:10" transform="matrix(.06 0 0 -.06 0 919.13)"/></g><g clip-path="url(#D)"><path d="m5.403646 5417.856771h9910.416666" style="fill:none;stroke-width:10.8684;stroke-linecap:round;stroke-linejoin:round;stroke:#000;stroke-miterlimit:10" transform="matrix(.06 0 0 -.06 0 919.13)"/></g><use x="527.633055" xlink:href="#P" y="612.986388"/><path d="m7859.244792 5057.895833h7.486979v514.388021h-7.486979zm0 0" style="fill:none;stroke-width:6.64093;stroke-linecap:round;stroke-linejoin:round;stroke:#000;stroke-miterlimit:10" transform="matrix(.06 0 0 -.06 0 919.13)"/><path d="m471.554688 615.660156h.449218v-30.867187h-.449218zm0 0"/><use x="453.694907" xlink:href="#ao" y="665.041492"/><use x="465.429857" xlink:href="#aj" y="665.041492"/><use x="459.84492" xlink:href="#P" y="617.719397"/><path d="m6731.901042 4978.989583h7.421875v514.453125h-7.421875zm0 0" style="fill:none;stroke-width:6.64093;stroke-linecap:round;stroke-linejoin:round;stroke:#000;stroke-miterlimit:10" transform="matrix(.06 0 0 -.06 0 919.13)"/><path d="m403.914062 620.390625h.445313v-30.867187h-.445313zm0 0"/><use x="382.138764" xlink:href="#ao" y="665.041492"/><use x="393.873714" xlink:href="#ay" y="665.041492"/><use x="406.799519" xlink:href="#au" y="665.041492"/><use x="392.202784" xlink:href="#P" y="622.451407"/><path d="m5667.447917 4821.242187h7.486979v435.807292h-7.486979zm0 0" style="fill:none;stroke-width:6.64093;stroke-linecap:round;stroke-linejoin:round;stroke:#000;stroke-miterlimit:10" transform="matrix(.06 0 0 -.06 0 919.13)"/><path d="m340.046875 629.855469h.449219v-26.148438h-.449219zm0 0"/><use x="322.183644" xlink:href="#ak" y="665.041492"/><use x="327.45638" xlink:href="#aj" y="665.041492"/><use x="340.382185" xlink:href="#ac" y="665.041492"/><use x="328.334657" xlink:href="#P" y="631.915426"/><path d="m2592.382812 5383.351562h1032.48698v69.075521h-1032.48698zm0 0" fill="none" stroke="#000" stroke-linejoin="round" stroke-miterlimit="10" stroke-width="6.64093" transform="matrix(.06 0 0 -.06 0 919.13)"/><path d="m155.542969 596.128906h61.949219v-4.144531h-61.949219zm0 0"/><path d="m2959.309896 4341.684896h95.442708v5.403646h-95.442708zm0 0" fill="none" stroke="#000" stroke-linejoin="round" stroke-miterlimit="10" stroke-width="8.69157" transform="matrix(.06 0 0 -.06 0 919.13)"/><path d="m177.558594 658.628906h5.726562v-.324218h-5.726562zm0 0"/><path d="m4642.447917 5327.101562v-69.07552l1032.421875-32.421875v69.07552zm0 0" fill="none" stroke="#000" stroke-linejoin="round" stroke-miterlimit="10" stroke-width="6.64093" transform="matrix(.06 0 0 -.06 0 919.13)"/><path d="m278.546875 599.503906v4.144532l61.945313 1.945312v-4.144531zm0 0"/><path d="m4993.033854 4341.684896h95.442708v5.403646h-95.442708zm0 0" fill="none" stroke="#000" stroke-linejoin="round" stroke-miterlimit="10" stroke-width="8.69157" transform="matrix(.06 0 0 -.06 0 919.13)"/><path d="m299.582031 658.628906h5.726563v-.324218h-5.726563zm0 0"/><path d="m7188.28125 4341.684896h95.377604v5.403646h-95.377604zm0 0" fill="none" stroke="#000" stroke-linejoin="round" stroke-miterlimit="10" stroke-width="8.69157" transform="matrix(.06 0 0 -.06 0 919.13)"/><path d="m431.296875 658.628906h5.722656v-.324218h-5.722656zm0 0"/><use x="507.876016" xlink:href="#ah" y="665.041492"/><use x="519.611199" xlink:href="#ay" y="665.041492"/><use x="532.536799" xlink:href="#au" y="665.041492"/><use x="540.360238" xlink:href="#ap" y="665.041492"/><use x="553.285838" xlink:href="#ac" y="665.041492"/><use x="581.080162" xlink:href="#T" y="612.986388"/><path d="m8797.200521 4579.901042h7.486979v488.151041h-7.486979zm0 0" fill="none" stroke="#000" stroke-linejoin="round" stroke-miterlimit="10" stroke-width="6.64093" transform="matrix(.06 0 0 -.06 0 919.13)"/><path d="m527.832031 644.335938h.449219v-29.285157h-.449219zm0 0"/><use x="40.697381" xlink:href="#R" y="594.05735"/><path d="m1425.585937 4742.401042h7.421875v514.38802h-7.421875zm0 0" fill="none" stroke="#000" stroke-linejoin="round" stroke-miterlimit="10" stroke-width="6.64093" transform="matrix(.06 0 0 -.06 0 919.13)"/><path d="m85.535156 634.585938h.445313v-30.863282h-.445313zm0 0"/><use x="56.616913" xlink:href="#ax" y="665.041492"/><use x="72.264531" xlink:href="#aC" y="665.041492"/><use x="78.727909" xlink:href="#aj" y="665.041492"/><use x="91.653487" xlink:href="#ah" y="665.041492"/><use x="73.823348" xlink:href="#P" y="636.647435"/><use x="7.571715" xlink:href="#S" y="622.450607"/><use x="205.333739" xlink:href="#P" y="622.450607"/><path d="m4642.447917 4900.148437h7.421875v388.867188h-7.421875zm0 0" fill="none" stroke="#000" stroke-linejoin="round" stroke-miterlimit="10" stroke-width="6.64093" transform="matrix(.06 0 0 -.06 0 919.13)"/><path d="m278.546875 625.121094h.445313v-23.332032h-.445313zm0 0"/><use x="263.319527" xlink:href="#aD" y="665.041492"/><use x="276.245332" xlink:href="#ab" y="665.041492"/><use x="266.834534" xlink:href="#P" y="627.183416"/><path d="m3617.382812 4978.989583h7.48698v435.546875h-7.48698zm0 0" fill="none" stroke="#000" stroke-linejoin="round" stroke-miterlimit="10" stroke-width="6.64093" transform="matrix(.06 0 0 -.06 0 919.13)"/><path d="m217.042969 620.390625h.449219v-26.132813h-.449219zm0 0"/><use x="194.674389" xlink:href="#V" y="665.041492"/><use x="207.600209" xlink:href="#aa" y="665.041492"/><use x="220.525794" xlink:href="#au" y="665.041492"/><path d="m2592.382812 4978.989583h7.48698v435.546875h-7.48698zm0 0" fill="none" stroke="#000" stroke-linejoin="round" stroke-miterlimit="10" stroke-width="6.64093" transform="matrix(.06 0 0 -.06 0 919.13)"/><path d="m155.542969 620.390625h.449219v-26.132813h-.449219zm0 0"/><use x="143.833288" xlink:href="#P" y="622.451407"/><use x="133.855268" xlink:href="#aa" y="665.041492"/><use x="146.781087" xlink:href="#aE" y="665.041492"/><g clip-path="url(#E)"><path d="m5.403646 2894.028646h9910.416666" style="fill:none;stroke-width:10.8684;stroke-linecap:round;stroke-linejoin:round;stroke:#000;stroke-miterlimit:10" transform="matrix(.06 0 0 -.06 0 919.13)"/></g><g clip-path="url(#F)"><path d="m5.403646 3051.710937h9910.416666" style="fill:none;stroke-width:10.8684;stroke-linecap:round;stroke-linejoin:round;stroke:#000;stroke-miterlimit:10" transform="matrix(.06 0 0 -.06 0 919.13)"/></g><g clip-path="url(#G)"><path d="m5.403646 3209.458333h9910.416666" style="fill:none;stroke-width:10.8684;stroke-linecap:round;stroke-linejoin:round;stroke:#000;stroke-miterlimit:10" transform="matrix(.06 0 0 -.06 0 919.13)"/></g><g clip-path="url(#H)"><path d="m5.403646 3367.205729h9910.416666" style="fill:none;stroke-width:10.8684;stroke-linecap:round;stroke-linejoin:round;stroke:#000;stroke-miterlimit:10" transform="matrix(.06 0 0 -.06 0 919.13)"/></g><g clip-path="url(#I)"><path d="m5.403646 3524.953125h9910.416666" style="fill:none;stroke-width:10.8684;stroke-linecap:round;stroke-linejoin:round;stroke:#000;stroke-miterlimit:10" transform="matrix(.06 0 0 -.06 0 919.13)"/></g><path d="m6992.252604 2772.023437h7.486979v481.966146h-7.486979zm0 0" style="fill:none;stroke-width:6.64093;stroke-linecap:round;stroke-linejoin:round;stroke:#000;stroke-miterlimit:10" transform="matrix(.06 0 0 -.06 0 919.13)"/><path d="m419.535156 752.808594h.449219v-28.917969h-.449219zm0 0"/><use x="534.80007" xlink:href="#P" y="731.292624"/><use x="474.467349" xlink:href="#P" y="726.560345"/><use x="461.852924" xlink:href="#ap" y="779.780721"/><use x="474.778729" xlink:href="#ay" y="779.780721"/><use x="487.704299" xlink:href="#ah" y="779.780721"/><path d="m7911.067708 2686.997396h7.486979v488.151041h-7.486979zm0 0" style="fill:none;stroke-width:6.64093;stroke-linecap:round;stroke-linejoin:round;stroke:#000;stroke-miterlimit:10" transform="matrix(.06 0 0 -.06 0 919.13)"/><path d="m474.664062 757.910156h.449219v-29.289062h-.449219zm0 0"/><path d="m5321.549479 3086.085937h7.421875v468.619792h-7.421875zm0 0" style="fill:none;stroke-width:6.64093;stroke-linecap:round;stroke-linejoin:round;stroke:#000;stroke-miterlimit:10" transform="matrix(.06 0 0 -.06 0 919.13)"/><path d="m319.289062 733.964844h.449219v-28.117188h-.449219zm0 0"/><use x="409.359819" xlink:href="#aE" y="779.780721"/><use x="428.748782" xlink:href="#ay" y="779.780721"/><use x="419.336839" xlink:href="#P" y="721.828605"/><path d="m6073.4375 2772.023437h7.486979v481.966146h-7.486979zm0 0" style="fill:none;stroke-width:6.64093;stroke-linecap:round;stroke-linejoin:round;stroke:#000;stroke-miterlimit:10" transform="matrix(.06 0 0 -.06 0 919.13)"/><path d="m364.40625 752.808594h.449219v-28.917969h-.449219zm0 0"/><use x="361.287723" xlink:href="#at" y="779.780721"/><use x="374.213528" xlink:href="#Z" y="779.780721"/><use x="364.207728" xlink:href="#P" y="721.828605"/><path d="m2433.528646 3559.458333v-69.010416l926.302083 32.421875v69.07552zm0 0" fill="none" stroke="#000" stroke-linejoin="round" stroke-miterlimit="10" stroke-width="6.64093" transform="matrix(.06 0 0 -.06 0 919.13)"/><path d="m146.011719 705.5625v4.140625l55.578125-1.945313v-4.144531zm0 0"/><path d="m3505.338542 2429.380208h95.377604v5.403646h-95.377604zm0 0" fill="none" stroke="#000" stroke-linejoin="round" stroke-miterlimit="10" stroke-width="8.69157" transform="matrix(.06 0 0 -.06 0 919.13)"/><path d="m210.320312 773.367188h5.722657v-.324219h-5.722657zm0 0"/><path d="m4271.158854 3684.783854v-69.075521l1057.877604-92.838541v69.07552zm0 0" fill="none" stroke="#000" stroke-linejoin="round" stroke-miterlimit="10" stroke-width="6.64093" transform="matrix(.06 0 0 -.06 0 919.13)"/><path d="m256.269531 698.042969v4.144531l63.472657 5.570312v-4.144531zm0 0"/><path d="m6073.4375 2734.132812h926.302083v69.075521h-926.302083zm0 0" fill="none" stroke="#000" stroke-linejoin="round" stroke-miterlimit="10" stroke-width="6.64093" transform="matrix(.06 0 0 -.06 0 919.13)"/><path d="m364.40625 755.082031h55.578125v-4.144531h-55.578125zm0 0"/><path d="m6525.976562 2429.380208h95.442709v5.403646h-95.442709zm0 0" fill="none" stroke="#000" stroke-linejoin="round" stroke-miterlimit="10" stroke-width="8.69157" transform="matrix(.06 0 0 -.06 0 919.13)"/><path d="m391.558594 773.367188h5.726562v-.324219h-5.726562zm0 0"/><path d="m7481.640625 2429.380208h95.442708v5.403646h-95.442708zm0 0" fill="none" stroke="#000" stroke-linejoin="round" stroke-miterlimit="10" stroke-width="8.69157" transform="matrix(.06 0 0 -.06 0 919.13)"/><path d="m448.898438 773.367188h5.726562v-.324219h-5.726562zm0 0"/><path d="m8521.809896 2429.380208h95.442708v5.403646h-95.442708zm0 0" fill="none" stroke="#000" stroke-linejoin="round" stroke-miterlimit="10" stroke-width="8.69157" transform="matrix(.06 0 0 -.06 0 919.13)"/><path d="m511.308594 773.367188h5.726562v-.324219h-5.726562zm0 0"/><use x="528.904058" xlink:href="#aq" y="779.780721"/><use x="540.128771" xlink:href="#aj" y="779.780721"/><use x="581.080162" xlink:href="#Q" y="717.096596"/><path d="m9108.528646 3164.992187h7.421875v514.388021h-7.421875zm0 0" fill="none" stroke="#000" stroke-linejoin="round" stroke-miterlimit="10" stroke-width="6.64093" transform="matrix(.06 0 0 -.06 0 919.13)"/><path d="m546.511719 729.230469h.445312v-30.863281h-.445312zm0 0"/><use x="134.299269" xlink:href="#P" y="736.025634"/><path d="m1425.585937 3086.085937h7.421875v514.453125h-7.421875zm0 0" fill="none" stroke="#000" stroke-linejoin="round" stroke-miterlimit="10" stroke-width="6.64093" transform="matrix(.06 0 0 -.06 0 919.13)"/><path d="m85.535156 733.964844h.445313v-30.867188h-.445313zm0 0"/><use x="50.748901" xlink:href="#aF" y="779.780721"/><use x="67.58621" xlink:href="#Y" y="779.780721"/><use x="72.858959" xlink:href="#ae" y="779.780721"/><use x="85.784537" xlink:href="#an" y="779.780721"/><use x="97.519728" xlink:href="#ao" y="779.780721"/><use x="73.823348" xlink:href="#P" y="736.025634"/><use x="307.580925" xlink:href="#P" y="736.025634"/><use x="40.697381" xlink:href="#R" y="707.632177"/><use x="7.571715" xlink:href="#S" y="736.025634"/><use x="288.503577" xlink:href="#az" y="779.780721"/><use x="301.429382" xlink:href="#ay" y="779.780721"/><use x="314.354953" xlink:href="#ai" y="779.780721"/><use x="327.280758" xlink:href="#af" y="779.780721"/><path d="m4271.158854 3243.833333h7.486979v402.539063h-7.486979zm0 0" fill="none" stroke="#000" stroke-linejoin="round" stroke-miterlimit="10" stroke-width="6.64093" transform="matrix(.06 0 0 -.06 0 919.13)"/><path d="m256.269531 724.5h.449219v-24.148438h-.449219zm0 0"/><use x="228.119456" xlink:href="#ap" y="779.780721"/><use x="241.045042" xlink:href="#aG" y="779.780721"/><use x="253.970847" xlink:href="#ap" y="779.780721"/><use x="266.896417" xlink:href="#ac" y="779.780721"/><use x="244.560489" xlink:href="#P" y="726.560615"/><use x="130.18926" xlink:href="#au" y="779.780721"/><use x="137.84326" xlink:href="#at" y="779.780721"/><path d="m3352.34375 3164.992187h7.486979v388.802084h-7.486979zm0 0" fill="none" stroke="#000" stroke-linejoin="round" stroke-miterlimit="10" stroke-width="6.64093" transform="matrix(.06 0 0 -.06 0 919.13)"/><path d="m201.140625 729.230469h.449219v-23.328125h-.449219zm0 0"/><use x="189.430379" xlink:href="#P" y="731.292624"/><use x="192.973386" xlink:href="#Y" y="779.780721"/><path d="m2433.528646 3086.085937h7.486979v435.807292h-7.486979zm0 0" fill="none" stroke="#000" stroke-linejoin="round" stroke-miterlimit="10" stroke-width="6.64093" transform="matrix(.06 0 0 -.06 0 919.13)"/><path d="m146.011719 733.964844h.449219v-26.148438h-.449219zm0 0"/><g clip-path="url(#J)"><path d="m5.403646 1001.059896h9910.416666" style="fill:none;stroke-width:10.8684;stroke-linecap:round;stroke-linejoin:round;stroke:#000;stroke-miterlimit:10" transform="matrix(.06 0 0 -.06 0 919.13)"/></g><g clip-path="url(#K)"><path d="m5.403646 1158.872396h9910.416666" style="fill:none;stroke-width:10.8684;stroke-linecap:round;stroke-linejoin:round;stroke:#000;stroke-miterlimit:10" transform="matrix(.06 0 0 -.06 0 919.13)"/></g><g clip-path="url(#L)"><path d="m5.403646 1316.554687h9910.416666" style="fill:none;stroke-width:10.8684;stroke-linecap:round;stroke-linejoin:round;stroke:#000;stroke-miterlimit:10" transform="matrix(.06 0 0 -.06 0 919.13)"/></g><g clip-path="url(#M)"><path d="m5.403646 1474.302083h9910.416666" style="fill:none;stroke-width:10.8684;stroke-linecap:round;stroke-linejoin:round;stroke:#000;stroke-miterlimit:10" transform="matrix(.06 0 0 -.06 0 919.13)"/></g><g clip-path="url(#N)"><path d="m5.403646 1632.049479h9910.416666" style="fill:none;stroke-width:10.8684;stroke-linecap:round;stroke-linejoin:round;stroke:#000;stroke-miterlimit:10" transform="matrix(.06 0 0 -.06 0 919.13)"/></g><g clip-path="url(#O)"><path d="m9888.671875 1001.059896v630.989583" fill="none" stroke="#000" stroke-linejoin="round" stroke-miterlimit="10" stroke-width="65.1789" transform="matrix(.06 0 0 -.06 0 919.13)"/></g><path d="m9813.151042 1001.059896v630.989583" fill="none" stroke="#000" stroke-linejoin="round" stroke-miterlimit="10" stroke-width="20.6484" transform="matrix(.06 0 0 -.06 0 919.13)"/><use x="517.500035" xlink:href="#P" y="849.599661"/><path d="m7778.385417 1114.341146h7.486979v482.226562h-7.486979zm0 0" fill="none" stroke="#000" stroke-linejoin="round" stroke-miterlimit="10" stroke-width="6.64093" transform="matrix(.06 0 0 -.06 0 919.13)"/><path d="m466.703125 852.269531h.449219v-28.929687h-.449219zm0 0"/><use x="449.096898" xlink:href="#X" y="892.299846"/><use x="460.321847" xlink:href="#ay" y="892.299846"/><use x="454.99291" xlink:href="#P" y="854.33197"/><path d="m6736.588542 1193.182292h7.486979v435.351562h-7.486979zm0 0" fill="none" stroke="#000" stroke-linejoin="round" stroke-miterlimit="10" stroke-width="6.64093" transform="matrix(.06 0 0 -.06 0 919.13)"/><path d="m404.195312 847.539062h.449219v-26.121093h-.449219zm0 0"/><use x="389.140778" xlink:href="#ab" y="892.299846"/><use x="395.263383" xlink:href="#W" y="892.299846"/><use x="392.485785" xlink:href="#P" y="849.599661"/><path d="m5694.791667 1193.182292h7.486979v435.742187h-7.486979zm0 0" fill="none" stroke="#000" stroke-linejoin="round" stroke-miterlimit="10" stroke-width="6.64093" transform="matrix(.06 0 0 -.06 0 919.13)"/><path d="m341.6875 847.539062h.449219v-26.144531h-.449219zm0 0"/><use x="316.768634" xlink:href="#ap" y="892.299846"/><use x="329.694204" xlink:href="#aG" y="892.299846"/><use x="342.620009" xlink:href="#ae" y="892.299846"/><use x="329.97766" xlink:href="#P" y="849.599661"/><path d="m2379.947917 910.304687v-69.07552l1049.283854-32.421875v69.07552zm0 0" fill="none" stroke="#000" stroke-linejoin="round" stroke-miterlimit="10" stroke-width="6.64093" transform="matrix(.06 0 0 -.06 0 919.13)"/><path d="m142.796875 864.511719v4.144531l62.957031 1.945312v-4.144531zm0 0"/><path d="m2896.158854 554.054687h95.377604v5.403646h-95.377604zm0 0" fill="none" stroke="#000" stroke-linejoin="round" stroke-miterlimit="10" stroke-width="8.69157" transform="matrix(.06 0 0 -.06 0 919.13)"/><path d="m173.765625 885.886719h5.726563v-.324219h-5.726563zm0 0"/><path d="m4652.994792 1699.041667v-69.075521l1049.283854-32.421875v69.075521zm0 0" fill="none" stroke="#000" stroke-linejoin="round" stroke-miterlimit="10" stroke-width="6.64093" transform="matrix(.06 0 0 -.06 0 919.13)"/><path d="m279.179688 817.1875v4.144531l62.957031 1.945313v-4.144532zm0 0"/><path d="m5060.9375 554.054687h95.442708v5.403646h-95.442708zm0 0" fill="none" stroke="#000" stroke-linejoin="round" stroke-miterlimit="10" stroke-width="8.69157" transform="matrix(.06 0 0 -.06 0 919.13)"/><path d="m303.65625 885.886719h5.722656v-.324219h-5.722656zm0 0"/><path d="m6736.588542 1666.619792v-69.075521l1049.283854-32.421875v69.075521zm0 0" fill="none" stroke="#000" stroke-linejoin="round" stroke-miterlimit="10" stroke-width="6.64093" transform="matrix(.06 0 0 -.06 0 919.13)"/><path d="m404.195312 819.132812v4.144532l62.957032 1.945312v-4.144531zm0 0"/><path d="m7096.289062 554.054687h95.442709v5.403646h-95.442709zm0 0" fill="none" stroke="#000" stroke-linejoin="round" stroke-miterlimit="10" stroke-width="8.69157" transform="matrix(.06 0 0 -.06 0 919.13)"/><path d="m425.777344 885.886719h5.726562v-.324219h-5.726562zm0 0"/><path d="m8054.492187 554.054687h95.377605v5.403646h-95.377605zm0 0" fill="none" stroke="#000" stroke-linejoin="round" stroke-miterlimit="10" stroke-width="8.69157" transform="matrix(.06 0 0 -.06 0 919.13)"/><path d="m483.269531 885.886719h5.722657v-.324219h-5.722657zm0 0"/><use x="523.680047" xlink:href="#U" y="813.97579"/><path d="m8820.182292 1193.182292h7.421875v514.453125h-7.421875zm0 0" fill="none" stroke="#000" stroke-linejoin="round" stroke-miterlimit="10" stroke-width="6.64093" transform="matrix(.06 0 0 -.06 0 919.13)"/><path d="m529.210938 847.539062h.445312v-30.867187h-.445312zm0 0"/><use x="499.017998" xlink:href="#ah" y="892.299846"/><use x="510.752947" xlink:href="#ay" y="892.299846"/><use x="523.678782" xlink:href="#Z" y="892.299846"/><use x="528.951517" xlink:href="#ap" y="892.299846"/><use x="541.877117" xlink:href="#av" y="892.299846"/><path d="m1233.723958 925.539062h7.486979v514.453125h-7.486979zm0 0" fill="none" stroke="#000" stroke-linejoin="round" stroke-miterlimit="10" stroke-width="6.64093" transform="matrix(.06 0 0 -.06 0 919.13)"/><path d="m74.023438 863.597656h.449218v-30.867187h-.449218zm0 0"/><use x="72.179244" xlink:href="#am" y="892.299846"/><use x="73.823348" xlink:href="#P" y="830.670623"/><use x="40.697381" xlink:href="#R" y="821.206074"/><use x="7.571715" xlink:href="#S" y="849.599731"/><use x="192.747385" xlink:href="#X" y="892.299846"/><use x="203.972334" xlink:href="#aa" y="892.299846"/><use x="216.898154" xlink:href="#ap" y="892.299846"/><path d="m4652.994792 1272.088542h7.486979v388.867187h-7.486979zm0 0" fill="none" stroke="#000" stroke-linejoin="round" stroke-miterlimit="10" stroke-width="6.64093" transform="matrix(.06 0 0 -.06 0 919.13)"/><path d="m279.179688 842.804688h.449218v-23.332032h-.449218zm0 0"/><use x="251.029502" xlink:href="#aE" y="892.299846"/><use x="270.418466" xlink:href="#aa" y="892.299846"/><use x="283.344271" xlink:href="#ap" y="892.299846"/><use x="267.470535" xlink:href="#P" y="844.867451"/><path d="m3421.744792 846.893229h7.486979v435.351563h-7.486979zm0 0" fill="none" stroke="#000" stroke-linejoin="round" stroke-miterlimit="10" stroke-width="6.64093" transform="matrix(.06 0 0 -.06 0 919.13)"/><path d="m205.304688 868.316406h.449218v-26.121094h-.449218zm0 0"/><use x="205.10641" xlink:href="#P" y="840.135142"/><use x="142.598985" xlink:href="#P" y="835.402863"/><use x="137.043274" xlink:href="#Z" y="892.299846"/><use x="142.316024" xlink:href="#aa" y="892.299846"/><use x="155.241609" xlink:href="#Z" y="892.299846"/><path d="m2379.947917 878.859375h7.486979v482.226562h-7.486979zm0 0" fill="none" stroke="#000" stroke-linejoin="round" stroke-miterlimit="10" stroke-width="6.64093" transform="matrix(.06 0 0 -.06 0 919.13)"/><path d="m142.796875 866.398438h.449219v-28.933594h-.449219zm0 0"/></svg>