<svg height="700.24em" viewBox="0 0 595.28 700.24" width="595.28em" xmlns="http://www.w3.org/2000/svg" xmlns:xlink="http://www.w3.org/1999/xlink"><clipPath id="a"><path d="m0 63h595.28125v2h-595.28125zm0 0"/></clipPath><clipPath id="b"><path d="m0 54h595.28125v2h-595.28125zm0 0"/></clipPath><clipPath id="c"><path d="m0 44h595.28125v2h-595.28125zm0 0"/></clipPath><clipPath id="d"><path d="m0 35h595.28125v2h-595.28125zm0 0"/></clipPath><clipPath id="e"><path d="m0 26h595.28125v1h-595.28125zm0 0"/></clipPath><clipPath id="f"><path d="m0 185h595.28125v1h-595.28125zm0 0"/></clipPath><clipPath id="g"><path d="m0 175h595.28125v2h-595.28125zm0 0"/></clipPath><clipPath id="h"><path d="m0 166h595.28125v1h-595.28125zm0 0"/></clipPath><clipPath id="i"><path d="m0 156h595.28125v2h-595.28125zm0 0"/></clipPath><clipPath id="j"><path d="m0 147h595.28125v2h-595.28125zm0 0"/></clipPath><clipPath id="k"><path d="m591 145h4.28125v43h-4.28125zm0 0"/></clipPath><clipPath id="l"><path d="m0 298h595.28125v2h-595.28125zm0 0"/></clipPath><clipPath id="m"><path d="m0 289h595.28125v1h-595.28125zm0 0"/></clipPath><clipPath id="n"><path d="m0 279h595.28125v2h-595.28125zm0 0"/></clipPath><clipPath id="o"><path d="m0 270h595.28125v2h-595.28125zm0 0"/></clipPath><clipPath id="p"><path d="m0 260h595.28125v2h-595.28125zm0 0"/></clipPath><clipPath id="q"><path d="m0 412h595.28125v2h-595.28125zm0 0"/></clipPath><clipPath id="r"><path d="m0 402h595.28125v2h-595.28125zm0 0"/></clipPath><clipPath id="s"><path d="m0 393h595.28125v2h-595.28125zm0 0"/></clipPath><clipPath id="t"><path d="m0 383h595.28125v2h-595.28125zm0 0"/></clipPath><clipPath id="u"><path d="m0 374h595.28125v2h-595.28125zm0 0"/></clipPath><clipPath id="v"><path d="m0 525h595.28125v2h-595.28125zm0 0"/></clipPath><clipPath id="w"><path d="m0 516h595.28125v2h-595.28125zm0 0"/></clipPath><clipPath id="x"><path d="m0 507h595.28125v1h-595.28125zm0 0"/></clipPath><clipPath id="y"><path d="m0 497h595.28125v2h-595.28125zm0 0"/></clipPath><clipPath id="z"><path d="m0 488h595.28125v1h-595.28125zm0 0"/></clipPath><clipPath id="A"><path d="m0 639h595.28125v2h-595.28125zm0 0"/></clipPath><clipPath id="B"><path d="m0 630h595.28125v1h-595.28125zm0 0"/></clipPath><clipPath id="C"><path d="m0 620h595.28125v2h-595.28125zm0 0"/></clipPath><clipPath id="D"><path d="m0 611h595.28125v1h-595.28125zm0 0"/></clipPath><clipPath id="E"><path d="m0 601h595.28125v2h-595.28125zm0 0"/></clipPath><clipPath id="F"><path d="m591 600h4.28125v42h-4.28125zm0 0"/></clipPath><symbol id="G" overflow="visible"><path d="m8.40625-5.109375c-1.59375 0-3.109375.53125-4.46875 1.359375-1.78125 1.0625-3.9375 2.921875-3.9375 5.609375 0 2.234375 1.96875 3.25 3.96875 3.25 1.59375 0 3.109375-.53125 4.46875-1.359375 1.78125-1.0625 3.90625-2.921875 3.90625-5.609375 0-2.234375-1.9375-3.25-3.9375-3.25zm0 0"/></symbol><symbol id="H" overflow="visible"><path d="m5.375 0c.15625 0 .296875-.15625.296875-.296875v-8.859375c0-.15625-.140625-.3125-.296875-.3125h-5.078125c-.140625 0-.296875.15625-.296875.3125v8.859375c0 .140625.15625.296875.296875.296875zm0 0"/></symbol><symbol id="I" overflow="visible"><path d="m8.140625 11.96875v-6.171875l1.859375-.640625c.21875-.078125.40625-.3125.40625-.578125v-2.453125c0-.421875-.40625-.71875-.796875-.578125l-1.46875.53125v-6.203125l1.859375-.6875c.21875-.078125.40625-.296875.40625-.5625v-2.421875c0-.421875-.40625-.71875-.796875-.5625l-1.46875.484375v-5.671875c0-.34375-.296875-.65625-.640625-.65625s-.640625.3125-.640625.65625v6.125l-3.296875 1.171875v-5.71875c0-.328125-.3125-.640625-.640625-.640625-.34375 0-.65625.3125-.65625.640625v6.171875l-1.84375.640625c-.234375.078125-.421875.3125-.421875.578125v2.453125c0 .421875.421875.71875.796875.578125l1.46875-.53125v6.203125l-1.84375.6875c-.234375.078125-.421875.296875-.421875.5625v2.421875c0 .421875.421875.71875.796875.5625l1.46875-.484375v5.671875c0 .34375.3125.65625.65625.65625.328125 0 .640625-.3125.640625-.65625v-6.125l3.296875-1.171875v5.71875c0 .328125.296875.640625.640625.640625s.640625-.3125.640625-.640625zm-4.578125-14.5 3.296875-1.140625v6.203125l-3.296875 1.140625zm0 0"/></symbol><symbol id="J" overflow="visible"><path d="m14.15625-9.84375c-.609375-2.65625-1.328125-5.265625-2.078125-7.875 3.640625-4.125 6.921875-8.359375 6.921875-13.8125 0-4.28125-2.34375-10.421875-4.984375-13.59375-.203125-.15625-.421875-.15625-.609375 0-3.59375 2.609375-5.6875 6.765625-5.6875 11.171875 0 1.96875.046875 3.890625.265625 5.828125.265625 2.453125.90625 4.84375 1.59375 7.234375-4.46875 5.0625-9.5 9.90625-9.5 16.65625 0 7.609375 5.484375 14.078125 12.609375 14.078125 1.171875 0 2.265625-.109375 3.359375-.296875.125 1.203125.1875 2.421875.1875 3.625 0 .6875-.03125 1.328125-.0625 2.015625-.234375 3.75-2.546875 7.1875-6.0625 7.265625-.03125 0-.078125.03125-.109375.03125-1.9375 0-3.609375-1.09375-4.59375-2.640625.421875.1875.875.328125 1.328125.328125 1.96875 0 3.59375-1.625 3.59375-3.59375 0-2.109375-1.546875-3.9375-3.59375-3.9375-2.234375 0-4.234375 1.75-4.234375 3.9375 0 4.09375 3.296875 7.390625 7.375 7.390625 4.46875 0 7.546875-4.015625 7.8125-8.5625.03125-.71875.03125-1.390625.03125-2.125 0-1.359375-.078125-2.71875-.1875-4.078125.984375-.3125 1.921875-.765625 2.765625-1.40625 2.796875-2.078125 4.046875-5 4.046875-7.875 0-5-3.78125-9.796875-9.609375-9.796875-.203125 0-.390625.03125-.578125.03125zm3.21875 17.609375c-.53125-4.703125-1.390625-9.171875-2.34375-13.59375 4.15625.34375 6.78125 3.828125 6.78125 7.296875 0 2.65625-1.828125 5.390625-4.4375 6.296875zm-14.6875-8.9375c0-6.0625 4.09375-10.640625 8.171875-15.21875.609375 2.234375 1.21875 4.46875 1.75 6.734375-3.828125.875-5.984375 4.09375-5.984375 7.421875 0 2.65625 1.359375 5.34375 4.390625 6.96875.109375.03125.234375.078125.34375.078125.421875 0 .75-.390625.75-.796875 0-.1875-.109375-.375-.265625-.53125-2.109375-1.21875-3.09375-3.03125-3.09375-4.703125 0-2.21875 1.734375-4.234375 4.734375-4.578125.984375 4.546875 1.84375 9.046875 2.421875 13.90625-1.03125.140625-2.046875.21875-3.109375.21875-5.15625 0-10.109375-4.359375-10.109375-9.5zm12.875-38.578125c.640625 2 .796875 2.984375.796875 5.1875 0 4.8125-2.546875 8.625-5.640625 12.296875-.6875-2.375-1.25-4.6875-1.25-7.5625 0-4.203125 2.34375-8.03125 6.09375-9.921875zm0 0"/></symbol><symbol id="K" overflow="visible"><path d="m0 0c0 1.21875.953125 2.15625 2.15625 2.15625 1.21875 0 2.15625-.9375 2.15625-2.15625s-.9375-2.15625-2.15625-2.15625c-1.203125 0-2.15625.9375-2.15625 2.15625zm0 0"/></symbol><symbol id="L" overflow="visible"><path d="m5.375 9.46875c.15625 0 .296875-.15625.296875-.3125v-18.3125c0-.15625-.140625-.3125-.296875-.3125h-5.078125c-.140625 0-.296875.15625-.296875.3125v18.3125c0 .15625.15625.3125.296875.3125zm0 0"/></symbol><symbol id="M" overflow="visible"><path d="m-2.390625-1.78125c0 1.328125 1.0625 2.390625 2.390625 2.390625s2.390625-1.0625 2.390625-2.390625-1.0625-2.390625-2.390625-2.390625-2.390625 1.0625-2.390625 2.390625zm2.390625-11.84375c-5.875 0-12.453125 6.546875-12.453125 13.703125 0 .296875.296875.53125.609375.53125.265625 0 .5625-.1875.640625-.609375.984375-5.640625 5.5625-10.03125 11.203125-10.03125s10.21875 4.390625 11.203125 10.03125c.078125.421875.375.609375.640625.609375.3125 0 .609375-.234375.609375-.53125 0-7.15625-6.546875-13.703125-12.453125-13.703125zm0 0"/></symbol><symbol id="N" overflow="visible"><path d="m4.53125-17.046875h-2.1875v17.046875h2.1875zm0 0"/></symbol><symbol id="O" overflow="visible"><path d="m10.234375-8.828125c-.015625-2.421875-1.609375-3.765625-4.4375-3.765625-2.859375 0-4.703125 1.46875-4.703125 3.734375 0 1.921875.984375 2.828125 3.890625 3.53125l1.8125.4375c1.359375.328125 1.90625.828125 1.90625 1.6875 0 1.171875-1.15625 1.9375-2.859375 1.9375-1.046875 0-1.9375-.296875-2.4375-.8125-.296875-.359375-.4375-.703125-.546875-1.5625h-2.0625c.09375 2.828125 1.6875 4.171875 4.890625 4.171875 3.078125 0 5.046875-1.515625 5.046875-3.875 0-1.828125-1.03125-2.828125-3.46875-3.40625l-1.859375-.453125c-1.59375-.375-2.28125-.890625-2.28125-1.75 0-1.140625 1.015625-1.84375 2.609375-1.84375 1.5625 0 2.40625.671875 2.453125 1.96875zm0 0"/></symbol><symbol id="P" overflow="visible"><path d="m3.5-12.25h-1.9375v12.25h1.9375zm0-4.796875h-1.953125v2.453125h1.953125zm0 0"/></symbol><symbol id="Q" overflow="visible"><path d="m5.9375-12.25h-2.015625v-3.359375h-1.9375v3.359375h-1.65625v1.59375h1.65625v9.25c0 1.265625.84375 1.9375 2.359375 1.9375.515625 0 .9375-.046875 1.59375-.15625v-1.640625c-.28125.078125-.53125.09375-.9375.09375-.84375 0-1.078125-.234375-1.078125-1.09375v-8.390625h2.015625zm0 0"/></symbol><symbol id="R" overflow="visible"><path d="m11.984375-5.46875c0-1.875-.140625-3-.484375-3.90625-.796875-2.015625-2.671875-3.21875-4.953125-3.21875-3.421875 0-5.609375 2.59375-5.609375 6.640625 0 4.03125 2.09375 6.484375 5.5625 6.484375 2.796875 0 4.75-1.578125 5.234375-4.25h-1.96875c-.53125 1.609375-1.625 2.453125-3.203125 2.453125-1.234375 0-2.28125-.5625-2.9375-1.59375-.46875-.6875-.640625-1.390625-.65625-2.609375zm-8.96875-1.59375c.15625-2.265625 1.546875-3.734375 3.5-3.734375 2 0 3.375 1.546875 3.375 3.734375zm0 0"/></symbol><symbol id="S" overflow="visible"><path d="m1.640625-12.25v12.25h1.953125v-6.75c0-2.5 1.3125-4.140625 3.328125-4.140625 1.546875 0 2.515625.9375 2.515625 2.40625v8.484375h1.953125v-9.25c0-2.046875-1.53125-3.34375-3.890625-3.34375-1.8125 0-2.984375.703125-4.0625 2.40625v-2.0625zm0 0"/></symbol><symbol id="T" overflow="visible"><path d="m2.03125-2.4375v2.4375h1.40625v.421875c0 1.609375-.3125 2.078125-1.40625 2.125v.890625c1.546875.046875 2.453125-1.078125 2.453125-3.0625v-2.8125zm0 0"/></symbol><symbol id="U" overflow="visible"><path d="m3.296875-17.046875h-1.9375v17.046875h1.9375v-4.765625l1.890625-1.875 4.140625 6.640625h2.40625l-5-8.015625 4.25-4.234375h-2.5l-5.1875 5.1875zm0 0"/></symbol><symbol id="V" overflow="visible"><path d="m11.578125-17.046875h-1.953125v6.34375c-.8125-1.234375-2.125-1.890625-3.765625-1.890625-3.171875 0-5.25 2.546875-5.25 6.453125 0 4.125 2.015625 6.671875 5.328125 6.671875 1.6875 0 2.84375-.625 3.90625-2.140625v1.609375h1.734375zm-5.390625 6.265625c2.109375 0 3.4375 1.859375 3.4375 4.796875 0 2.828125-1.34375 4.703125-3.40625 4.703125-2.15625 0-3.578125-1.890625-3.578125-4.75 0-2.84375 1.421875-4.75 3.546875-4.75zm0 0"/></symbol><symbol id="W" overflow="visible"><path d="m12.875-17.046875.03125 11.96875c0 2.296875-1.65625 3.703125-4.375 3.703125-2.703125 0-4.375-1.40625-4.375-3.703125v-11.96875h-2.171875v11.96875c0 3.421875 2.578125 5.609375 6.546875 5.609375s6.546875-2.21875 6.546875-5.609375l-.03125-11.96875zm-3.828125-4.90625-2.25 3.46875h1.40625l3.484375-3.46875zm0 0"/></symbol><symbol id="X" overflow="visible"><path d="m1.609375-12.25v12.25h1.96875v-6.359375c.015625-2.9375 1.234375-4.25 3.921875-4.1875v-1.984375c-.328125-.046875-.515625-.0625-.75-.0625-1.25 0-2.21875.75-3.34375 2.5625v-2.21875zm0 0"/></symbol><symbol id="Y" overflow="visible"><path d="m11.984375-5.46875c0-1.875-.140625-3-.484375-3.90625-.796875-2.015625-2.671875-3.21875-4.953125-3.21875-3.421875 0-5.609375 2.59375-5.609375 6.640625 0 4.03125 2.09375 6.484375 5.5625 6.484375 2.796875 0 4.75-1.578125 5.234375-4.25h-1.96875c-.53125 1.609375-1.625 2.453125-3.203125 2.453125-1.234375 0-2.28125-.5625-2.9375-1.59375-.46875-.6875-.640625-1.390625-.65625-2.609375zm-8.96875-1.59375c.15625-2.265625 1.546875-3.734375 3.5-3.734375 2 0 3.375 1.546875 3.375 3.734375zm4.1875-10.234375-2.25 3.453125h1.40625l3.484375-3.453125zm0 0"/></symbol><symbol id="Z" overflow="visible"><path d="m9.4375-12.25v1.78125c-.96875-1.46875-2.046875-2.125-3.59375-2.125-2.96875 0-5.03125 2.75-5.03125 6.6875 0 2.046875.5 3.546875 1.546875 4.78125.90625 1.078125 2.078125 1.65625 3.34375 1.65625 1.46875 0 2.53125-.640625 3.546875-2.1875v.625c0 3.28125-.90625 4.484375-3.34375 4.484375-1.65625 0-2.515625-.640625-2.703125-2.046875h-1.984375c.1875 2.265625 1.984375 3.6875 4.640625 3.6875 1.8125 0 3.296875-.578125 4.09375-1.5625.9375-1.140625 1.296875-2.671875 1.296875-5.546875v-10.234375zm-3.40625 1.453125c2.0625 0 3.21875 1.734375 3.21875 4.84375 0 2.96875-1.1875 4.6875-3.21875 4.6875-2.015625 0-3.171875-1.75-3.171875-4.765625 0-2.984375 1.15625-4.765625 3.171875-4.765625zm0 0"/></symbol><symbol id="aa" overflow="visible"><path d="m9.0625-12.25-3.375 9.53125-3.140625-9.53125h-2.078125l4.140625 12.296875-.75 1.9375c-.328125.875-.75 1.1875-1.5625 1.1875-.328125 0-.609375-.046875-1.03125-.140625v1.765625c.390625.203125.796875.296875 1.3125.296875.625 0 1.296875-.203125 1.8125-.578125.609375-.453125.96875-.96875 1.34375-1.9375l5.4375-14.828125zm0 0"/></symbol><symbol id="ab" overflow="visible"><path d="m12.5-1.140625c-.203125.046875-.296875.046875-.421875.046875-.671875 0-1.046875-.359375-1.046875-.96875v-7.1875c0-2.1875-1.59375-3.34375-4.609375-3.34375-1.796875 0-3.21875.515625-4.0625 1.421875-.5625.625-.796875 1.328125-.84375 2.546875h1.96875c.15625-1.5 1.046875-2.171875 2.875-2.171875 1.78125 0 2.734375.65625 2.734375 1.828125v.5c-.03125.84375-.4375 1.15625-2.03125 1.359375-2.765625.359375-3.1875.453125-3.9375.75-1.421875.609375-2.140625 1.6875-2.140625 3.28125 0 2.21875 1.546875 3.609375 4.015625 3.609375 1.546875 0 2.78125-.53125 4.15625-1.796875.140625 1.265625.75 1.796875 2.015625 1.796875.421875 0 .671875-.046875 1.328125-.203125zm-3.40625-2.71875c0 .65625-.1875 1.046875-.765625 1.59375-.796875.71875-1.765625 1.09375-2.90625 1.09375-1.515625 0-2.40625-.71875-2.40625-1.953125 0-1.296875.84375-1.953125 2.9375-2.25 2.09375-.28125 2.484375-.375 3.140625-.671875zm0 0"/></symbol><symbol id="ac" overflow="visible"><path d="m4.28125-7.765625h8.125v-1.90625h-8.125v-5.453125h9.25v-1.921875h-11.421875v17.046875h2.171875zm0 0"/></symbol><symbol id="ad" overflow="visible"><path d="m6.359375-12.59375c-3.453125 0-5.515625 2.453125-5.515625 6.5625 0 4.140625 2.0625 6.5625 5.53125 6.5625s5.546875-2.453125 5.546875-6.46875c0-4.25-2.015625-6.65625-5.5625-6.65625zm.015625 1.796875c2.203125 0 3.515625 1.796875 3.515625 4.84375 0 2.890625-1.359375 4.6875-3.515625 4.6875-2.171875 0-3.5-1.796875-3.5-4.765625s1.328125-4.765625 3.5-4.765625zm0 0"/></symbol><symbol id="ae" overflow="visible"><path d="m13.9375-12.03125c0-1.171875-.078125-1.5-.453125-2.296875-.9375-1.96875-2.921875-3-5.796875-3-3.734375 0-6.046875 1.921875-6.046875 5.015625 0 2.078125 1.09375 3.390625 3.34375 3.96875l4.21875 1.125c2.1875.5625 3.140625 1.421875 3.140625 2.75 0 .921875-.5 1.84375-1.21875 2.359375-.671875.5-1.75.734375-3.125.734375-1.875 0-3.109375-.453125-3.9375-1.4375-.625-.734375-.90625-1.5625-.890625-2.609375h-2.046875c.015625 1.5625.328125 2.59375 1 3.53125 1.171875 1.609375 3.140625 2.421875 5.734375 2.421875 2.03125 0 3.6875-.46875 4.78125-1.296875 1.15625-.921875 1.875-2.4375 1.875-3.90625 0-2.109375-1.3125-3.65625-3.625-4.28125l-4.28125-1.140625c-2.046875-.5625-2.796875-1.21875-2.796875-2.53125 0-1.734375 1.515625-2.875 3.8125-2.875 2.703125 0 4.21875 1.21875 4.25 3.46875zm0 0"/></symbol><symbol id="af" overflow="visible"><path d="m11.078125-5.125 1.75 5.125h2.4375l-5.984375-17.046875h-2.8125l-6.078125 17.046875h2.328125l1.796875-5.125zm-.609375-1.8125h-5.421875l2.8125-7.765625zm0 0"/></symbol><symbol id="ag" overflow="visible"><path d="m1.640625-17.046875v17.046875h1.9375v-6.75c0-2.5 1.3125-4.140625 3.3125-4.140625.65625 0 1.265625.1875 1.734375.53125.5625.421875.796875 1.015625.796875 1.875v8.484375h1.9375v-9.25c0-2.0625-1.46875-3.34375-3.859375-3.34375-1.71875 0-2.78125.53125-3.921875 2.03125v-6.484375zm0 0"/></symbol><symbol id="ah" overflow="visible"><path d="m10.359375-12.25h-9.140625v1.703125h6.828125l-7.328125 8.796875v1.75h9.96875v-1.703125h-7.609375l7.28125-8.8125zm0 0"/></symbol><symbol id="ai" overflow="visible"><path d="m12.5-1.140625c-.203125.046875-.296875.046875-.421875.046875-.671875 0-1.046875-.359375-1.046875-.96875v-7.1875c0-2.1875-1.59375-3.34375-4.609375-3.34375-1.796875 0-3.21875.515625-4.0625 1.421875-.5625.625-.796875 1.328125-.84375 2.546875h1.96875c.15625-1.5 1.046875-2.171875 2.875-2.171875 1.78125 0 2.734375.65625 2.734375 1.828125v.5c-.03125.84375-.4375 1.15625-2.03125 1.359375-2.765625.359375-3.1875.453125-3.9375.75-1.421875.609375-2.140625 1.6875-2.140625 3.28125 0 2.21875 1.546875 3.609375 4.015625 3.609375 1.546875 0 2.78125-.53125 4.15625-1.796875.140625 1.265625.75 1.796875 2.015625 1.796875.421875 0 .671875-.046875 1.328125-.203125zm-3.40625-2.71875c0 .65625-.1875 1.046875-.765625 1.59375-.796875.71875-1.765625 1.09375-2.90625 1.09375-1.515625 0-2.40625-.71875-2.40625-1.953125 0-1.296875.84375-1.953125 2.9375-2.25 2.09375-.28125 2.484375-.375 3.140625-.671875zm-1.984375-13.4375-2.265625 3.453125h1.390625l3.484375-3.453125zm0 0"/></symbol><symbol id="aj" overflow="visible"><path d="m11.015625-8.140625c-.09375-1.1875-.359375-1.953125-.828125-2.640625-.84375-1.140625-2.3125-1.8125-4.015625-1.8125-3.3125 0-5.453125 2.609375-5.453125 6.6875 0 3.9375 2.109375 6.4375 5.421875 6.4375 2.921875 0 4.78125-1.75 5.015625-4.734375h-1.96875c-.328125 1.953125-1.328125 2.9375-3 2.9375-2.140625 0-3.421875-1.75-3.421875-4.640625 0-3.0625 1.25-4.890625 3.375-4.890625 1.640625 0 2.671875.953125 2.90625 2.65625zm0 0"/></symbol><symbol id="ak" overflow="visible"><path d="m8.28125-15.125h5.578125v-1.921875h-13.375v1.921875h5.609375v15.125h2.1875zm0 0"/></symbol><symbol id="al" overflow="visible"><path d="m3.546875-17.046875h-1.953125v17.046875h1.953125zm0 0"/></symbol><symbol id="am" overflow="visible"><path d="m6.65625 0 4.703125-12.25h-2.203125l-3.453125 9.9375-3.265625-9.9375h-2.203125l4.296875 12.25zm0 0"/></symbol><symbol id="an" overflow="visible"><path d="m4.140625-12.25h-1.9375v12.25h1.9375zm-.375-5.046875-2.25 3.453125h1.40625l3.484375-3.453125zm0 0"/></symbol><symbol id="ao" overflow="visible"><path d="m10.9375 0 4.796875-14.28125v14.28125h2.046875v-17.046875h-3.015625l-4.953125 14.84375-5.046875-14.84375h-3.015625v17.046875h2.0625v-14.28125l4.84375 14.28125zm0 0"/></symbol><symbol id="ap" overflow="visible"><path d="m11.265625 0v-12.25h-1.9375v6.9375c0 2.5-1.3125 4.140625-3.34375 4.140625-1.546875 0-2.53125-.9375-2.53125-2.40625v-8.671875h-1.9375v9.4375c0 2.046875 1.515625 3.34375 3.90625 3.34375 1.796875 0 2.953125-.625 4.09375-2.234375v1.703125zm-5.53125-16.71875h-2.4375v2.40625h2.4375zm3.78125 0h-2.4375v2.40625h2.4375zm0 0"/></symbol><symbol id="aq" overflow="visible"><path d="m1.265625-17.046875v17.046875h1.75v-1.5625c.9375 1.421875 2.171875 2.09375 3.875 2.09375 3.234375 0 5.328125-2.640625 5.328125-6.703125 0-3.96875-1.984375-6.421875-5.234375-6.421875-1.671875 0-2.875.625-3.78125 2v-6.453125zm5.34375 6.265625c2.171875 0 3.578125 1.90625 3.578125 4.828125 0 2.78125-1.4375 4.671875-3.578125 4.671875-2.078125 0-3.40625-1.875-3.40625-4.75s1.328125-4.75 3.40625-4.75zm0 0"/></symbol><symbol id="ar" overflow="visible"><path d="m1.640625-12.25v12.25h1.953125v-7.6875c0-1.78125 1.296875-3.203125 2.875-3.203125 1.453125 0 2.28125.890625 2.28125 2.453125v8.4375h1.953125v-7.6875c0-1.78125 1.28125-3.203125 2.875-3.203125 1.421875 0 2.265625.90625 2.265625 2.453125v8.4375h1.96875v-9.1875c0-2.203125-1.265625-3.40625-3.546875-3.40625-1.640625 0-2.625.484375-3.765625 1.859375-.734375-1.296875-1.71875-1.859375-3.296875-1.859375-1.640625 0-2.734375.609375-3.765625 2.078125v-1.734375zm0 0"/></symbol><symbol id="as" overflow="visible"><path d="m4.46875-2.4375h-2.4375v2.4375h2.4375zm0 0"/></symbol><symbol id="at" overflow="visible"><path d="m7.78125-17.046875v12c0 1.359375-.140625 2.125-.53125 2.703125-.421875.65625-1.21875 1.0625-2.078125 1.0625-1.640625 0-2.546875-1.109375-2.546875-3.09375v-1.09375h-2.234375v1.5c0 2.75 1.828125 4.5 4.75 4.5 2.96875 0 4.8125-1.84375 4.8125-4.78125v-12.796875zm0 0"/></symbol><symbol id="au" overflow="visible"><path d="m6.359375-12.59375c-3.453125 0-5.515625 2.453125-5.515625 6.5625 0 4.140625 2.0625 6.5625 5.53125 6.5625s5.546875-2.453125 5.546875-6.46875c0-4.25-2.015625-6.65625-5.5625-6.65625zm.015625 1.796875c2.203125 0 3.515625 1.796875 3.515625 4.84375 0 2.890625-1.359375 4.6875-3.515625 4.6875-2.171875 0-3.5-1.796875-3.5-4.765625s1.328125-4.765625 3.5-4.765625zm-.671875-5.921875h-2.4375v2.40625h2.4375zm3.78125 0h-2.421875v2.40625h2.421875zm0 0"/></symbol><symbol id="av" overflow="visible"><path d="m4.953125-10.1875v10.1875h2.921875v-14.765625h-1.9375c-.453125 1.75-1.984375 2.640625-4.515625 2.640625v1.9375zm0 0"/></symbol><symbol id="aw" overflow="visible"><path d="m4.453125-3.046875h-3.125v3.046875h3.125zm0 0"/></symbol><g clip-path="url(#a)"><path d="m3.242188 6360.290625h5946.25" fill="none" stroke="#000" stroke-linecap="round" stroke-miterlimit="10" stroke-width="6.52105" transform="matrix(.1 0 0 -.1 0 700.24)"/></g><g clip-path="url(#b)"><path d="m3.242188 6454.939062h5946.25" fill="none" stroke="#000" stroke-linecap="round" stroke-miterlimit="10" stroke-width="6.52105" transform="matrix(.1 0 0 -.1 0 700.24)"/></g><g clip-path="url(#c)"><path d="m3.242188 6549.5875h5946.25" fill="none" stroke="#000" stroke-linecap="round" stroke-miterlimit="10" stroke-width="6.52105" transform="matrix(.1 0 0 -.1 0 700.24)"/></g><g clip-path="url(#d)"><path d="m3.242188 6644.235937h5946.25" fill="none" stroke="#000" stroke-linecap="round" stroke-miterlimit="10" stroke-width="6.52105" transform="matrix(.1 0 0 -.1 0 700.24)"/></g><g clip-path="url(#e)"><path d="m3.242188 6738.884375h5946.25" fill="none" stroke="#000" stroke-linecap="round" stroke-miterlimit="10" stroke-width="6.52105" transform="matrix(.1 0 0 -.1 0 700.24)"/></g><use x="476.697" xlink:href="#G" y="50.013"/><use x="473.77747" xlink:href="#N" y="99.4696"/><use x="480.240755" xlink:href="#O" y="99.4696"/><use x="477.00833" xlink:href="#P" y="125.9704"/><use x="482.280996" xlink:href="#Q" y="125.9704"/><path d="m4884.0625 6522.907812h4.492188v308.632813h-4.492188zm0 0" style="fill:none;stroke-width:3.98456;stroke-linecap:round;stroke-linejoin:round;stroke:#000;stroke-miterlimit:10" transform="matrix(.1 0 0 -.1 0 700.24)"/><path d="m488.40625 47.949219h.449219v-30.863281h-.449219zm0 0"/><use x="535.986" xlink:href="#G" y="54.745"/><use x="522.9458" xlink:href="#Q" y="99.4696"/><use x="529.06846" xlink:href="#R" y="99.4696"/><use x="541.994249" xlink:href="#S" y="99.4696"/><use x="554.920038" xlink:href="#T" y="99.4696"/><use x="522.9458" xlink:href="#Q" y="125.9704"/><use x="529.06846" xlink:href="#R" y="125.9704"/><use x="541.994249" xlink:href="#S" y="125.9704"/><use x="554.920038" xlink:href="#T" y="125.9704"/><path d="m5476.953125 6475.564062h4.492187v308.671875h-4.492187zm0 0" style="fill:none;stroke-width:3.98456;stroke-linecap:round;stroke-linejoin:round;stroke:#000;stroke-miterlimit:10" transform="matrix(.1 0 0 -.1 0 700.24)"/><path d="m547.695312 52.683594h.449219v-30.863282h-.449219zm0 0"/><path d="m4229.648438 6267.790625h4.492187v261.210937h-4.492187zm0 0" style="fill:none;stroke-width:3.98456;stroke-linecap:round;stroke-linejoin:round;stroke:#000;stroke-miterlimit:10" transform="matrix(.1 0 0 -.1 0 700.24)"/><path d="m422.964844 73.460938h.449218v-26.117188h-.449218zm0 0"/><use x="410.407" xlink:href="#U" y="125.97"/><use x="421.632013" xlink:href="#R" y="125.97"/><use x="434.557411" xlink:href="#V" y="125.97"/><use x="416.61481" xlink:href="#W" y="99.4692"/><use x="433.452333" xlink:href="#X" y="99.4692"/><use x="422.76559" xlink:href="#G" y="45.2801"/><path d="m3674.296875 6286.970312h4.453125v289.335938h-4.453125zm0 0" style="fill:none;stroke-width:3.98456;stroke-linecap:round;stroke-linejoin:round;stroke:#000;stroke-miterlimit:10" transform="matrix(.1 0 0 -.1 0 700.24)"/><path d="m367.429688 71.542969h.445312v-28.933594h-.445312zm0 0"/><use x="360.482" xlink:href="#S" y="125.97"/><use x="373.407398" xlink:href="#Y" y="125.97"/><use x="345.3445" xlink:href="#Z" y="99.4692"/><use x="358.100758" xlink:href="#aa" y="99.4692"/><use x="369.15624" xlink:href="#Y" y="99.4692"/><use x="382.081638" xlink:href="#S" y="99.4692"/><use x="395.007427" xlink:href="#T" y="99.4692"/><use x="367.2281" xlink:href="#G" y="40.5481"/><path d="m1079.84375 5806.814062h57.265625v3.28125h-57.265625zm0 0" style="fill:none;stroke-width:5.21494;stroke-linecap:round;stroke-linejoin:round;stroke:#000;stroke-miterlimit:10" transform="matrix(.1 0 0 -.1 0 700.24)"/><path d="m107.984375 119.558594h5.726563v-.324219h-5.726563zm0 0"/><path d="m1342.578125 6244.939062h545.234375v41.445313h-545.234375zm0 0" fill="none" stroke="#000" stroke-linejoin="round" stroke-miterlimit="10" stroke-width="3.98456" transform="matrix(.1 0 0 -.1 0 700.24)"/><path d="m134.257812 75.746094h54.523438v-4.144532h-54.523438zm0 0"/><path d="m1631.367188 6071.814062h57.265624v3.28125h-57.265624zm0 0" fill="none" stroke="#000" stroke-linejoin="round" stroke-miterlimit="10" stroke-width="5.21494" transform="matrix(.1 0 0 -.1 0 700.24)"/><path d="m163.136719 93.058594h5.726562v-.328125h-5.726562zm0 0"/><path d="m1598.632812 5806.814062h57.265626v3.28125h-57.265626zm0 0" fill="none" stroke="#000" stroke-linejoin="round" stroke-miterlimit="10" stroke-width="5.21494" transform="matrix(.1 0 0 -.1 0 700.24)"/><path d="m159.863281 119.558594h5.726563v-.324219h-5.726563zm0 0"/><path d="m2176.875 6071.814062h57.265625v3.28125h-57.265625zm0 0" fill="none" stroke="#000" stroke-linejoin="round" stroke-miterlimit="10" stroke-width="5.21494" transform="matrix(.1 0 0 -.1 0 700.24)"/><path d="m217.6875 93.058594h5.726562v-.328125h-5.726562zm0 0"/><path d="m2817.578125 5806.814062h57.226563v3.28125h-57.226563zm0 0" fill="none" stroke="#000" stroke-linejoin="round" stroke-miterlimit="10" stroke-width="5.21494" transform="matrix(.1 0 0 -.1 0 700.24)"/><path d="m281.757812 119.558594h5.722657v-.324219h-5.722657zm0 0"/><path d="m3333.320312 6071.814062h57.265626v3.28125h-57.265626zm0 0" fill="none" stroke="#000" stroke-linejoin="round" stroke-miterlimit="10" stroke-width="5.21494" transform="matrix(.1 0 0 -.1 0 700.24)"/><path d="m333.332031 93.058594h5.722657v-.328125h-5.722657zm0 0"/><path d="m3674.296875 6305.8375v-41.445313l559.84375-19.453125v41.445313zm0 0" fill="none" stroke="#000" stroke-linejoin="round" stroke-miterlimit="10" stroke-width="3.98456" transform="matrix(.1 0 0 -.1 0 700.24)"/><path d="m367.429688 69.65625v4.144531l55.984374 1.945313v-4.144532zm0 0"/><path d="m3955.078125 5806.814062h57.265625v3.28125h-57.265625zm0 0" fill="none" stroke="#000" stroke-linejoin="round" stroke-miterlimit="10" stroke-width="5.21494" transform="matrix(.1 0 0 -.1 0 700.24)"/><path d="m395.507812 119.558594h5.722657v-.324219h-5.722657zm0 0"/><path d="m5045.976562 6071.814062h57.265626v3.28125h-57.265626zm0 0" fill="none" stroke="#000" stroke-linejoin="round" stroke-miterlimit="10" stroke-width="5.21494" transform="matrix(.1 0 0 -.1 0 700.24)"/><path d="m504.597656 93.058594h5.722656v-.328125h-5.722656zm0 0"/><path d="m5029.804688 5806.814062h57.265624v3.28125h-57.265624zm0 0" fill="none" stroke="#000" stroke-linejoin="round" stroke-miterlimit="10" stroke-width="5.21494" transform="matrix(.1 0 0 -.1 0 700.24)"/><path d="m502.980469 119.558594h5.726562v-.324219h-5.726562zm0 0"/><use x="581.079" xlink:href="#H" y="35.816"/><use x="40.785" xlink:href="#av" y="99.4695"/><use x="52.35064" xlink:href="#aw" y="99.4695"/><use x="127.3975" xlink:href="#Z" y="125.9703"/><use x="140.153758" xlink:href="#ab" y="125.9703"/><use x="134.05844" xlink:href="#G" y="45.2805"/><path d="m749.6875 6236.110937h4.492188v292.890625h-4.492188zm0 0" fill="none" stroke="#000" stroke-linejoin="round" stroke-miterlimit="10" stroke-width="3.98456" transform="matrix(.1 0 0 -.1 0 700.24)"/><path d="m74.96875 76.628906h.449219v-29.285156h-.449219zm0 0"/><use x="67.5984" xlink:href="#ac" y="125.97"/><use x="81.374974" xlink:href="#ad" y="125.97"/><use x="129.8632" xlink:href="#ae" y="99.4692"/><use x="145.340556" xlink:href="#P" y="99.4692"/><use x="73.125751" xlink:href="#af" y="99.4692"/><use x="40.6972" xlink:href="#I" y="26.3512"/><use x="7.5714" xlink:href="#J" y="54.7446"/><use x="74.7694" xlink:href="#G" y="45.28015"/><path d="m3081.40625 6236.110937h4.453125v292.890625h-4.453125zm0 0" fill="none" stroke="#000" stroke-linejoin="round" stroke-miterlimit="10" stroke-width="3.98456" transform="matrix(.1 0 0 -.1 0 700.24)"/><path d="m308.140625 76.628906h.445313v-29.285156h-.445313zm0 0"/><use x="295.325" xlink:href="#S" y="125.97"/><use x="308.250398" xlink:href="#R" y="125.97"/><use x="321.176187" xlink:href="#U" y="125.97"/><use x="301.19297" xlink:href="#ag" y="99.4692"/><use x="314.118368" xlink:href="#R" y="99.4692"/><use x="307.93906" xlink:href="#G" y="45.2801"/><path d="m2581.875 6380.915625h4.492188v308.671875h-4.492188zm0 0" fill="none" stroke="#000" stroke-linejoin="round" stroke-miterlimit="10" stroke-width="3.98456" transform="matrix(.1 0 0 -.1 0 700.24)"/><path d="m258.1875 62.148438h.449219v-30.867188h-.449219zm0 0"/><use x="231.397" xlink:href="#Q" y="125.97"/><use x="237.51966" xlink:href="#R" y="125.97"/><use x="250.445058" xlink:href="#O" y="125.97"/><use x="262.180228" xlink:href="#ah" y="125.97"/><use x="233.86341" xlink:href="#S" y="99.4692"/><use x="246.789199" xlink:href="#ab" y="99.4692"/><use x="259.714597" xlink:href="#U" y="99.4692"/><use x="246.47791" xlink:href="#G" y="64.2094"/><path d="m1342.578125 6267.673437h4.492187v261.328125h-4.492187zm0 0" fill="none" stroke="#000" stroke-linejoin="round" stroke-miterlimit="10" stroke-width="3.98456" transform="matrix(.1 0 0 -.1 0 700.24)"/><path d="m134.257812 73.472656h.449219v-26.132812h-.449219zm0 0"/><path d="m1883.320312 6267.673437h4.492188v261.328125h-4.492188zm0 0" fill="none" stroke="#000" stroke-linejoin="round" stroke-miterlimit="10" stroke-width="3.98456" transform="matrix(.1 0 0 -.1 0 700.24)"/><path d="m188.332031 73.472656h.449219v-26.132812h-.449219zm0 0"/><use x="172.373" xlink:href="#V" y="125.97"/><use x="185.298398" xlink:href="#ai" y="125.97"/><use x="198.224187" xlink:href="#O" y="125.97"/><use x="209.789826" xlink:href="#Q" y="125.97"/><use x="181.38706" xlink:href="#ad" y="99.4692"/><use x="194.312458" xlink:href="#S" y="99.4692"/><use x="188.13394" xlink:href="#G" y="45.2801"/><g clip-path="url(#f)"><path d="m3.242188 5146.735937h5946.25" style="fill:none;stroke-width:6.52105;stroke-linecap:round;stroke-linejoin:round;stroke:#000;stroke-miterlimit:10" transform="matrix(.1 0 0 -.1 0 700.24)"/></g><g clip-path="url(#g)"><path d="m3.242188 5241.384375h5946.25" style="fill:none;stroke-width:6.52105;stroke-linecap:round;stroke-linejoin:round;stroke:#000;stroke-miterlimit:10" transform="matrix(.1 0 0 -.1 0 700.24)"/></g><g clip-path="url(#h)"><path d="m3.242188 5336.032812h5946.25" style="fill:none;stroke-width:6.52105;stroke-linecap:round;stroke-linejoin:round;stroke:#000;stroke-miterlimit:10" transform="matrix(.1 0 0 -.1 0 700.24)"/></g><g clip-path="url(#i)"><path d="m3.242188 5430.68125h5946.25" style="fill:none;stroke-width:6.52105;stroke-linecap:round;stroke-linejoin:round;stroke:#000;stroke-miterlimit:10" transform="matrix(.1 0 0 -.1 0 700.24)"/></g><g clip-path="url(#j)"><path d="m3.242188 5525.329687h5946.25" style="fill:none;stroke-width:6.52105;stroke-linecap:round;stroke-linejoin:round;stroke:#000;stroke-miterlimit:10" transform="matrix(.1 0 0 -.1 0 700.24)"/></g><use x="581.892" xlink:href="#K" y="161.905"/><use x="581.892" xlink:href="#K" y="171.36945"/><g clip-path="url(#k)"><path d="m5933.203125 5146.735937v378.59375" fill="none" stroke="#000" stroke-linejoin="round" stroke-miterlimit="10" stroke-width="39.1073" transform="matrix(.1 0 0 -.1 0 700.24)"/></g><path d="m5887.890625 5146.735937v378.59375" fill="none" stroke="#000" stroke-linejoin="round" stroke-miterlimit="10" stroke-width="12.389" transform="matrix(.1 0 0 -.1 0 700.24)"/><path d="m5061.445312 5167.360937h4.492188v308.632813h-4.492188zm0 0" fill="none" stroke="#000" stroke-linejoin="round" stroke-miterlimit="10" stroke-width="3.98456" transform="matrix(.1 0 0 -.1 0 700.24)"/><path d="m506.144531 183.503906h.445313v-30.863281h-.445313zm0 0"/><use x="481.477" xlink:href="#V" y="237.512"/><use x="494.402789" xlink:href="#R" y="237.512"/><use x="507.159047" xlink:href="#Q" y="237.512"/><use x="513.281707" xlink:href="#T" y="237.512"/><use x="484.19927" xlink:href="#X" y="211.0116"/><use x="491.682879" xlink:href="#R" y="211.0116"/><use x="504.439137" xlink:href="#Q" y="211.0116"/><use x="510.561797" xlink:href="#T" y="211.0116"/><use x="494.43207" xlink:href="#G" y="185.5663"/><path d="m4186.835938 5214.665625h4.492187v308.671875h-4.492187zm0 0" fill="none" stroke="#000" stroke-linejoin="round" stroke-miterlimit="10" stroke-width="3.98456" transform="matrix(.1 0 0 -.1 0 700.24)"/><path d="m418.683594 178.773438h.449218v-30.867188h-.449218zm0 0"/><use x="400.226" xlink:href="#Z" y="237.512"/><use x="413.151398" xlink:href="#R" y="237.512"/><use x="394.95413" xlink:href="#aj" y="211.0116"/><use x="406.859612" xlink:href="#O" y="211.0116"/><use x="418.425251" xlink:href="#Y" y="211.0116"/><use x="406.97323" xlink:href="#G" y="180.8339"/><path d="m3312.226562 5262.009375h4.492188v308.632812h-4.492188zm0 0" fill="none" stroke="#000" stroke-linejoin="round" stroke-miterlimit="10" stroke-width="3.98456" transform="matrix(.1 0 0 -.1 0 700.24)"/><path d="m331.222656 174.039062h.449219v-30.863281h-.449219zm0 0"/><use x="316.168" xlink:href="#Q" y="237.512"/><use x="322.29066" xlink:href="#Y" y="237.512"/><use x="316.593781" xlink:href="#V" y="211.0116"/><use x="329.51957" xlink:href="#P" y="211.0116"/><use x="319.513701" xlink:href="#G" y="176.1018"/><path d="m1192.96875 4956.423437h57.226562v3.242188h-57.226562zm0 0" fill="none" stroke="#000" stroke-linejoin="round" stroke-miterlimit="10" stroke-width="5.21494" transform="matrix(.1 0 0 -.1 0 700.24)"/><path d="m119.296875 204.597656h5.722656v-.324218h-5.722656zm0 0"/><path d="m1255.46875 4691.384375h57.265625v3.28125h-57.265625zm0 0" fill="none" stroke="#000" stroke-linejoin="round" stroke-miterlimit="10" stroke-width="5.21494" transform="matrix(.1 0 0 -.1 0 700.24)"/><path d="m125.546875 231.101562h5.722656v-.328124h-5.722656zm0 0"/><path d="m1729.921875 5640.68125v-41.445313l795.664063-19.453125v41.445313zm0 0" fill="none" stroke="#000" stroke-linejoin="round" stroke-miterlimit="10" stroke-width="3.98456" transform="matrix(.1 0 0 -.1 0 700.24)"/><path d="m172.992188 136.171875v4.144531l79.566406 1.945313v-4.144531zm0 0"/><path d="m2009.6875 4691.384375h57.226562v3.28125h-57.226562zm0 0" fill="none" stroke="#000" stroke-linejoin="round" stroke-miterlimit="10" stroke-width="5.21494" transform="matrix(.1 0 0 -.1 0 700.24)"/><path d="m200.96875 231.101562h5.722656v-.328124h-5.722656zm0 0"/><path d="m3620.117188 4956.423437h57.226562v3.242188h-57.226562zm0 0" fill="none" stroke="#000" stroke-linejoin="round" stroke-miterlimit="10" stroke-width="5.21494" transform="matrix(.1 0 0 -.1 0 700.24)"/><path d="m362.011719 204.597656h5.722656v-.324218h-5.722656zm0 0"/><path d="m3648.59375 4691.384375h57.265625v3.28125h-57.265625zm0 0" fill="none" stroke="#000" stroke-linejoin="round" stroke-miterlimit="10" stroke-width="5.21494" transform="matrix(.1 0 0 -.1 0 700.24)"/><path d="m364.859375 231.101562h5.726563v-.328124h-5.726563zm0 0"/><path d="m4549.101562 4956.423437h57.265626v3.242188h-57.265626zm0 0" fill="none" stroke="#000" stroke-linejoin="round" stroke-miterlimit="10" stroke-width="5.21494" transform="matrix(.1 0 0 -.1 0 700.24)"/><path d="m454.910156 204.597656h5.726563v-.324218h-5.726563zm0 0"/><path d="m4509.140625 4691.384375h57.265625v3.28125h-57.265625zm0 0" fill="none" stroke="#000" stroke-linejoin="round" stroke-miterlimit="10" stroke-width="5.21494" transform="matrix(.1 0 0 -.1 0 700.24)"/><path d="m450.914062 231.101562h5.726563v-.328124h-5.726563zm0 0"/><use x="73.823" xlink:href="#G" y="171.369"/><use x="40.6972" xlink:href="#I" y="147.7077"/><use x="7.5714" xlink:href="#J" y="176.1015"/><path d="m2521.09375 5309.314062h4.492188v289.296875h-4.492188zm0 0" fill="none" stroke="#000" stroke-linejoin="round" stroke-miterlimit="10" stroke-width="3.98456" transform="matrix(.1 0 0 -.1 0 700.24)"/><path d="m252.109375 169.308594h.449219v-28.929688h-.449219zm0 0"/><use x="161.283" xlink:href="#G" y="166.637"/><path d="m1729.921875 5356.657812h4.492187v261.210938h-4.492187zm0 0" fill="none" stroke="#000" stroke-linejoin="round" stroke-miterlimit="10" stroke-width="3.98456" transform="matrix(.1 0 0 -.1 0 700.24)"/><path d="m172.992188 164.574219h.449218v-26.121094h-.449218zm0 0"/><use x="240.398" xlink:href="#G" y="171.369"/><use x="70.223" xlink:href="#ak" y="211.0112"/><use x="84.509341" xlink:href="#P" y="211.0112"/><use x="155.3011" xlink:href="#Q" y="237.5116"/><use x="161.42376" xlink:href="#R" y="237.5116"/><use x="174.349549" xlink:href="#al" y="237.5116"/><use x="154.536256" xlink:href="#R" y="211.0112"/><use x="167.462045" xlink:href="#V" y="211.0112"/><use x="240.114374" xlink:href="#ab" y="211.0112"/><use x="228.038556" xlink:href="#am" y="237.5116"/><use x="239.263569" xlink:href="#Y" y="237.5116"/><use x="252.189358" xlink:href="#S" y="237.5116"/><path d="m855.351562 5309.314062h4.453126v308.671875h-4.453126zm0 0" fill="none" stroke="#000" stroke-linejoin="round" stroke-miterlimit="10" stroke-width="3.98456" transform="matrix(.1 0 0 -.1 0 700.24)"/><path d="m85.535156 169.308594h.445313v-30.867188h-.445313zm0 0"/><use x="58.4879" xlink:href="#ak" y="237.512"/><use x="72.774631" xlink:href="#P" y="237.512"/><use x="78.047291" xlink:href="#O" y="237.512"/><use x="89.782064" xlink:href="#ah" y="237.512"/><g clip-path="url(#l)"><path d="m3.242188 4010.99375h5946.25" style="fill:none;stroke-width:6.52105;stroke-linecap:round;stroke-linejoin:round;stroke:#000;stroke-miterlimit:10" transform="matrix(.1 0 0 -.1 0 700.24)"/></g><g clip-path="url(#m)"><path d="m3.242188 4105.642187h5946.25" style="fill:none;stroke-width:6.52105;stroke-linecap:round;stroke-linejoin:round;stroke:#000;stroke-miterlimit:10" transform="matrix(.1 0 0 -.1 0 700.24)"/></g><g clip-path="url(#n)"><path d="m3.242188 4200.290625h5946.25" style="fill:none;stroke-width:6.52105;stroke-linecap:round;stroke-linejoin:round;stroke:#000;stroke-miterlimit:10" transform="matrix(.1 0 0 -.1 0 700.24)"/></g><g clip-path="url(#o)"><path d="m3.242188 4294.939062h5946.25" style="fill:none;stroke-width:6.52105;stroke-linecap:round;stroke-linejoin:round;stroke:#000;stroke-miterlimit:10" transform="matrix(.1 0 0 -.1 0 700.24)"/></g><g clip-path="url(#p)"><path d="m3.242188 4389.5875h5946.25" style="fill:none;stroke-width:6.52105;stroke-linecap:round;stroke-linejoin:round;stroke:#000;stroke-miterlimit:10" transform="matrix(.1 0 0 -.1 0 700.24)"/></g><use x="534.088" xlink:href="#G" y="284.944"/><path d="m3173.203125 4078.923437h4.492187v289.21875h-4.492187zm0 0" style="fill:none;stroke-width:3.98456;stroke-linecap:round;stroke-linejoin:round;stroke:#000;stroke-miterlimit:10" transform="matrix(.1 0 0 -.1 0 700.24)"/><path d="m317.320312 292.347656h.449219v-28.921875h-.449219zm0 0"/><path d="m4732.421875 3886.814062h4.492187v292.851563h-4.492187zm0 0" style="fill:none;stroke-width:3.98456;stroke-linecap:round;stroke-linejoin:round;stroke:#000;stroke-miterlimit:10" transform="matrix(.1 0 0 -.1 0 700.24)"/><path d="m473.242188 311.5625h.449218v-29.289062h-.449218zm0 0"/><use x="461.279" xlink:href="#am" y="332.266"/><use x="472.504013" xlink:href="#R" y="332.266"/><use x="485.429411" xlink:href="#U" y="332.266"/><use x="473.0435" xlink:href="#G" y="280.2109"/><path d="m4288.476562 4173.571875h4.492188v233.320312h-4.492188zm0 0" style="fill:none;stroke-width:3.98456;stroke-linecap:round;stroke-linejoin:round;stroke:#000;stroke-miterlimit:10" transform="matrix(.1 0 0 -.1 0 700.24)"/><path d="m428.847656 282.882812h.449219v-23.332031h-.449219zm0 0"/><use x="413.622" xlink:href="#ag" y="332.266"/><use x="426.547398" xlink:href="#an" y="332.266"/><use x="417.13684" xlink:href="#G" y="284.9433"/><path d="m3730.859375 4126.267187h4.492187v261.484375h-4.492187zm0 0" style="fill:none;stroke-width:3.98456;stroke-linecap:round;stroke-linejoin:round;stroke:#000;stroke-miterlimit:10" transform="matrix(.1 0 0 -.1 0 700.24)"/><path d="m373.085938 287.613281h.449218v-26.144531h-.449218zm0 0"/><use x="361.091" xlink:href="#ab" y="332.266"/><use x="361.373813" xlink:href="#G" y="289.6754"/><path d="m1500.351562 4368.845312h562.109376v41.445313h-562.109376zm0 0" fill="none" stroke="#000" stroke-linejoin="round" stroke-miterlimit="10" stroke-width="3.98456" transform="matrix(.1 0 0 -.1 0 700.24)"/><path d="m150.035156 263.355469h56.210938v-4.144531h-56.210938zm0 0"/><path d="m1704.570312 3743.845312h57.265626v3.28125h-57.265626zm0 0" fill="none" stroke="#000" stroke-linejoin="round" stroke-miterlimit="10" stroke-width="5.21494" transform="matrix(.1 0 0 -.1 0 700.24)"/><path d="m170.457031 325.855469h5.726563v-.328125h-5.726563zm0 0"/><path d="m2242.226562 3743.845312h57.226563v3.28125h-57.226563zm0 0" fill="none" stroke="#000" stroke-linejoin="round" stroke-miterlimit="10" stroke-width="5.21494" transform="matrix(.1 0 0 -.1 0 700.24)"/><path d="m224.222656 325.855469h5.722656v-.328125h-5.722656zm0 0"/><path d="m2615.585938 4349.392187h562.109374v41.445313h-562.109374zm0 0" fill="none" stroke="#000" stroke-linejoin="round" stroke-miterlimit="10" stroke-width="3.98456" transform="matrix(.1 0 0 -.1 0 700.24)"/><path d="m261.558594 265.300781h56.210937v-4.144531h-56.210937zm0 0"/><path d="m2796.015625 3743.845312h57.265625v3.28125h-57.265625zm0 0" fill="none" stroke="#000" stroke-linejoin="round" stroke-miterlimit="10" stroke-width="5.21494" transform="matrix(.1 0 0 -.1 0 700.24)"/><path d="m279.601562 325.855469h5.722657v-.328125h-5.722657zm0 0"/><path d="m3730.859375 4410.290625v-41.445313l562.109375 19.453125v41.445313zm0 0" fill="none" stroke="#000" stroke-linejoin="round" stroke-miterlimit="10" stroke-width="3.98456" transform="matrix(.1 0 0 -.1 0 700.24)"/><path d="m373.085938 259.210938v4.144531l56.210937-1.945313v-4.144531zm0 0"/><path d="m4442.8125 3743.845312h57.265625v3.28125h-57.265625zm0 0" fill="none" stroke="#000" stroke-linejoin="round" stroke-miterlimit="10" stroke-width="5.21494" transform="matrix(.1 0 0 -.1 0 700.24)"/><path d="m444.28125 325.855469h5.726562v-.328125h-5.726562zm0 0"/><path d="m5064.570312 3743.845312h57.226563v3.28125h-57.226563zm0 0" fill="none" stroke="#000" stroke-linejoin="round" stroke-miterlimit="10" stroke-width="5.21494" transform="matrix(.1 0 0 -.1 0 700.24)"/><path d="m506.457031 325.855469h5.722657v-.328125h-5.722657zm0 0"/><use x="521.473" xlink:href="#S" y="332.266"/><use x="534.398789" xlink:href="#R" y="332.266"/><use x="547.324578" xlink:href="#U" y="332.266"/><use x="581.0789" xlink:href="#H" y="270.7465"/><path d="m5457.96875 4173.571875h4.492188v308.671875h-4.492188zm0 0" fill="none" stroke="#000" stroke-linejoin="round" stroke-miterlimit="10" stroke-width="3.98456" transform="matrix(.1 0 0 -.1 0 700.24)"/><path d="m545.796875 282.882812h.449219v-30.867187h-.449219zm0 0"/><use x="40.6973" xlink:href="#I" y="261.282"/><use x="296.5693" xlink:href="#U" y="332.266"/><use x="307.793923" xlink:href="#R" y="332.266"/><use x="320.550571" xlink:href="#Q" y="332.266"/><path d="m864.804688 4031.61875h4.492187v308.632812h-4.492187zm0 0" fill="none" stroke="#000" stroke-linejoin="round" stroke-miterlimit="10" stroke-width="3.98456" transform="matrix(.1 0 0 -.1 0 700.24)"/><path d="m86.480469 297.078125h.449219v-30.863281h-.449219zm0 0"/><use x="57.393" xlink:href="#ao" y="332.266"/><use x="76.781682" xlink:href="#R" y="332.266"/><use x="89.707471" xlink:href="#X" y="332.266"/><use x="98.041068" xlink:href="#Q" y="332.266"/><use x="74.7696" xlink:href="#G" y="299.1402"/><use x="138.3239" xlink:href="#G" y="289.67536"/><use x="7.571487" xlink:href="#J" y="289.67536"/><use x="305.6119" xlink:href="#G" y="294.40778"/><path d="m2615.585938 4078.923437h4.492187v289.21875h-4.492187zm0 0" fill="none" stroke="#000" stroke-linejoin="round" stroke-miterlimit="10" stroke-width="3.98456" transform="matrix(.1 0 0 -.1 0 700.24)"/><path d="m261.558594 292.347656h.449218v-28.921875h-.449218zm0 0"/><use x="243.698" xlink:href="#O" y="332.266"/><use x="255.43317" xlink:href="#ap" y="332.266"/><use x="249.84917" xlink:href="#G" y="294.4078"/><use x="132.42817" xlink:href="#U" y="332.266"/><use x="143.653183" xlink:href="#Y" y="332.266"/><path d="m2057.96875 4126.267187h4.492188v261.328125h-4.492188zm0 0" fill="none" stroke="#000" stroke-linejoin="round" stroke-miterlimit="10" stroke-width="3.98456" transform="matrix(.1 0 0 -.1 0 700.24)"/><path d="m205.796875 287.613281h.449219v-26.132812h-.449219zm0 0"/><use x="194.087" xlink:href="#G" y="289.676"/><path d="m1500.351562 4126.267187h4.492188v261.328125h-4.492188zm0 0" fill="none" stroke="#000" stroke-linejoin="round" stroke-miterlimit="10" stroke-width="3.98456" transform="matrix(.1 0 0 -.1 0 700.24)"/><path d="m150.035156 287.613281h.449219v-26.132812h-.449219zm0 0"/><use x="190.061" xlink:href="#X" y="332.266"/><use x="197.544595" xlink:href="#Y" y="332.266"/><g clip-path="url(#q)"><path d="m3.242188 2875.251562h5946.25" style="fill:none;stroke-width:6.52105;stroke-linecap:round;stroke-linejoin:round;stroke:#000;stroke-miterlimit:10" transform="matrix(.1 0 0 -.1 0 700.24)"/></g><g clip-path="url(#r)"><path d="m3.242188 2969.9h5946.25" style="fill:none;stroke-width:6.52105;stroke-linecap:round;stroke-linejoin:round;stroke:#000;stroke-miterlimit:10" transform="matrix(.1 0 0 -.1 0 700.24)"/></g><g clip-path="url(#s)"><path d="m3.242188 3064.548437h5946.25" style="fill:none;stroke-width:6.52105;stroke-linecap:round;stroke-linejoin:round;stroke:#000;stroke-miterlimit:10" transform="matrix(.1 0 0 -.1 0 700.24)"/></g><g clip-path="url(#t)"><path d="m3.242188 3159.196875h5946.25" style="fill:none;stroke-width:6.52105;stroke-linecap:round;stroke-linejoin:round;stroke:#000;stroke-miterlimit:10" transform="matrix(.1 0 0 -.1 0 700.24)"/></g><g clip-path="url(#u)"><path d="m3.242188 3253.845312h5946.25" style="fill:none;stroke-width:6.52105;stroke-linecap:round;stroke-linejoin:round;stroke:#000;stroke-miterlimit:10" transform="matrix(.1 0 0 -.1 0 700.24)"/></g><path d="m5140.898438 2990.525h4.453124v308.632812h-4.453124zm0 0" style="fill:none;stroke-width:3.98456;stroke-linecap:round;stroke-linejoin:round;stroke:#000;stroke-miterlimit:10" transform="matrix(.1 0 0 -.1 0 700.24)"/><path d="m514.085938 401.1875h.449218v-30.863281h-.449218zm0 0"/><use x="486.532" xlink:href="#O" y="447.104"/><use x="498.266779" xlink:href="#R" y="447.104"/><use x="511.192568" xlink:href="#S" y="447.104"/><use x="524.118357" xlink:href="#T" y="447.104"/><use x="502.3773" xlink:href="#G" y="403.2501"/><path d="m4301.367188 3037.829687h4.492187v289.21875h-4.492187zm0 0" style="fill:none;stroke-width:3.98456;stroke-linecap:round;stroke-linejoin:round;stroke:#000;stroke-miterlimit:10" transform="matrix(.1 0 0 -.1 0 700.24)"/><path d="m430.136719 396.457031h.449219v-28.921875h-.449219zm0 0"/><use x="406.238" xlink:href="#Z" y="447.104"/><use x="418.994258" xlink:href="#aa" y="447.104"/><use x="430.04974" xlink:href="#R" y="447.104"/><use x="418.4267" xlink:href="#G" y="398.5177"/><path d="m3461.875 3037.829687h4.492188v289.21875h-4.492188zm0 0" style="fill:none;stroke-width:3.98456;stroke-linecap:round;stroke-linejoin:round;stroke:#000;stroke-miterlimit:10" transform="matrix(.1 0 0 -.1 0 700.24)"/><path d="m346.1875 396.457031h.449219v-28.921875h-.449219zm0 0"/><use x="328.581" xlink:href="#U" y="447.104"/><use x="339.806013" xlink:href="#R" y="447.104"/><use x="334.47748" xlink:href="#G" y="398.5177"/><path d="m1271.601562 2595.485937h57.265626v3.242188h-57.265626zm0 0" style="fill:none;stroke-width:5.21494;stroke-linecap:round;stroke-linejoin:round;stroke:#000;stroke-miterlimit:10" transform="matrix(.1 0 0 -.1 0 700.24)"/><path d="m127.160156 440.691406h5.726563v-.324218h-5.726563zm0 0"/><path d="m1669.21875 2820.798437v-41.445312l843.984375-19.453125v41.445312zm0 0" fill="none" stroke="#000" stroke-linejoin="round" stroke-miterlimit="10" stroke-width="3.98456" transform="matrix(.1 0 0 -.1 0 700.24)"/><path d="m166.921875 418.160156v4.144532l84.398437 1.945312v-4.144531zm0 0"/><path d="m2120.15625 2595.485937h57.226562v3.242188h-57.226562zm0 0" fill="none" stroke="#000" stroke-linejoin="round" stroke-miterlimit="10" stroke-width="5.21494" transform="matrix(.1 0 0 -.1 0 700.24)"/><path d="m212.011719 440.691406h5.726562v-.324218h-5.726562zm0 0"/><path d="m3461.875 3308.3375h843.984375v41.40625h-843.984375zm0 0" fill="none" stroke="#000" stroke-linejoin="round" stroke-miterlimit="10" stroke-width="3.98456" transform="matrix(.1 0 0 -.1 0 700.24)"/><path d="m346.1875 369.40625h84.398438v-4.140625h-84.398438zm0 0"/><path d="m3766.210938 2595.485937h57.265624v3.242188h-57.265624zm0 0" fill="none" stroke="#000" stroke-linejoin="round" stroke-miterlimit="10" stroke-width="5.21494" transform="matrix(.1 0 0 -.1 0 700.24)"/><path d="m376.621094 440.691406h5.726562v-.324218h-5.726562zm0 0"/><path d="m4618.90625 2595.485937h57.226562v3.242188h-57.226562zm0 0" fill="none" stroke="#000" stroke-linejoin="round" stroke-miterlimit="10" stroke-width="5.21494" transform="matrix(.1 0 0 -.1 0 700.24)"/><path d="m461.890625 440.691406h5.722656v-.324218h-5.722656zm0 0"/><use x="581.079" xlink:href="#L" y="393.785"/><use x="73.822104" xlink:href="#G" y="393.785"/><use x="40.697" xlink:href="#I" y="374.8561"/><use x="7.5712" xlink:href="#J" y="403.2495"/><use x="166.7212" xlink:href="#G" y="389.0526"/><use x="250.6704" xlink:href="#G" y="393.78502"/><use x="57.2964" xlink:href="#ao" y="447.10342"/><use x="76.685473" xlink:href="#R" y="447.10342"/><use x="89.781183" xlink:href="#Z" y="447.10342"/><path d="m1669.21875 2801.970312h4.492188v289.296875h-4.492188zm0 0" fill="none" stroke="#000" stroke-linejoin="round" stroke-miterlimit="10" stroke-width="3.98456" transform="matrix(.1 0 0 -.1 0 700.24)"/><path d="m166.921875 420.042969h.449219v-28.929688h-.449219zm0 0"/><use x="157.339" xlink:href="#ag" y="447.104"/><use x="170.264398" xlink:href="#ab" y="447.104"/><use x="183.190187" xlink:href="#al" y="447.104"/><use x="241.289006" xlink:href="#al" y="447.104"/><use x="246.561672" xlink:href="#ad" y="447.104"/><use x="259.487461" xlink:href="#V" y="447.104"/><path d="m2508.710938 2782.7125h4.492187v261.210937h-4.492187zm0 0" fill="none" stroke="#000" stroke-linejoin="round" stroke-miterlimit="10" stroke-width="3.98456" transform="matrix(.1 0 0 -.1 0 700.24)"/><path d="m250.871094 421.96875h.449218v-26.121094h-.449218zm0 0"/><path d="m740.234375 2751.032812h4.492187v292.890625h-4.492187zm0 0" fill="none" stroke="#000" stroke-linejoin="round" stroke-miterlimit="10" stroke-width="3.98456" transform="matrix(.1 0 0 -.1 0 700.24)"/><path d="m74.023438 425.136719h.449218v-29.289063h-.449218zm0 0"/><g clip-path="url(#v)"><path d="m3.242188 1739.509375h5946.25" style="fill:none;stroke-width:6.52105;stroke-linecap:round;stroke-linejoin:round;stroke:#000;stroke-miterlimit:10" transform="matrix(.1 0 0 -.1 0 700.24)"/></g><g clip-path="url(#w)"><path d="m3.242188 1834.157812h5946.25" style="fill:none;stroke-width:6.52105;stroke-linecap:round;stroke-linejoin:round;stroke:#000;stroke-miterlimit:10" transform="matrix(.1 0 0 -.1 0 700.24)"/></g><g clip-path="url(#x)"><path d="m3.242188 1928.80625h5946.25" style="fill:none;stroke-width:6.52105;stroke-linecap:round;stroke-linejoin:round;stroke:#000;stroke-miterlimit:10" transform="matrix(.1 0 0 -.1 0 700.24)"/></g><g clip-path="url(#y)"><path d="m3.242188 2023.454687h5946.25" style="fill:none;stroke-width:6.52105;stroke-linecap:round;stroke-linejoin:round;stroke:#000;stroke-miterlimit:10" transform="matrix(.1 0 0 -.1 0 700.24)"/></g><g clip-path="url(#z)"><path d="m3.242188 2118.103125h5946.25" style="fill:none;stroke-width:6.52105;stroke-linecap:round;stroke-linejoin:round;stroke:#000;stroke-miterlimit:10" transform="matrix(.1 0 0 -.1 0 700.24)"/></g><path d="m4268.28125 1807.439062h4.492188v233.320313h-4.492188zm0 0" style="fill:none;stroke-width:3.98456;stroke-linecap:round;stroke-linejoin:round;stroke:#000;stroke-miterlimit:10" transform="matrix(.1 0 0 -.1 0 700.24)"/><path d="m426.828125 519.496094h.449219v-23.332032h-.449219zm0 0"/><use x="533.388" xlink:href="#G" y="521.556"/><use x="471.5017" xlink:href="#G" y="516.82397"/><use x="464.75522" xlink:href="#aq" y="559.41417"/><use x="477.681009" xlink:href="#R" y="559.41417"/><path d="m4832.148438 1854.782812h4.453124v308.632813h-4.453124zm0 0" style="fill:none;stroke-width:3.98456;stroke-linecap:round;stroke-linejoin:round;stroke:#000;stroke-miterlimit:10" transform="matrix(.1 0 0 -.1 0 700.24)"/><path d="m483.210938 514.761719h.449218v-30.863281h-.449218zm0 0"/><path d="m3140.625 1712.790625h4.492188v328.554687h-4.492188zm0 0" style="fill:none;stroke-width:3.98456;stroke-linecap:round;stroke-linejoin:round;stroke:#000;stroke-miterlimit:10" transform="matrix(.1 0 0 -.1 0 700.24)"/><path d="m314.0625 528.960938h.445312v-32.855469h-.445312zm0 0"/><use x="405.141" xlink:href="#R" y="559.414"/><use x="418.066789" xlink:href="#ar" y="559.414"/><use x="415.11834" xlink:href="#G" y="521.5558"/><path d="m3704.453125 1760.134375h4.492187v261.484375h-4.492187zm0 0" style="fill:none;stroke-width:3.98456;stroke-linecap:round;stroke-linejoin:round;stroke:#000;stroke-miterlimit:10" transform="matrix(.1 0 0 -.1 0 700.24)"/><path d="m370.445312 524.226562h.449219v-26.148437h-.449219zm0 0"/><use x="352.413" xlink:href="#ab" y="559.414"/><use x="365.679415" xlink:href="#ah" y="559.414"/><use x="358.73448" xlink:href="#G" y="526.2882"/><path d="m1020.585938 1472.360937h57.265624v3.28125h-57.265624zm0 0" style="fill:none;stroke-width:5.21494;stroke-linecap:round;stroke-linejoin:round;stroke:#000;stroke-miterlimit:10" transform="matrix(.1 0 0 -.1 0 700.24)"/><path d="m102.058594 553.003906h5.726562v-.328125h-5.726562zm0 0"/><path d="m1472.773438 2158.259375v-41.40625l568.320312-19.492188v41.445313zm0 0" fill="none" stroke="#000" stroke-linejoin="round" stroke-miterlimit="10" stroke-width="3.98456" transform="matrix(.1 0 0 -.1 0 700.24)"/><path d="m147.277344 484.414062v4.140626l56.832031 1.949218v-4.144531zm0 0"/><path d="m2189.101562 1472.360937h57.226563v3.28125h-57.226563zm0 0" fill="none" stroke="#000" stroke-linejoin="round" stroke-miterlimit="10" stroke-width="5.21494" transform="matrix(.1 0 0 -.1 0 700.24)"/><path d="m218.90625 553.003906h5.726562v-.328125h-5.726562zm0 0"/><path d="m2600.46875 2119.353125v-41.40625l544.648438-55.742188v41.445313zm0 0" fill="none" stroke="#000" stroke-linejoin="round" stroke-miterlimit="10" stroke-width="3.98456" transform="matrix(.1 0 0 -.1 0 700.24)"/><path d="m260.046875 488.304688v4.140624l54.464844 5.574219v-4.144531zm0 0"/><path d="m2785.742188 1472.360937h57.226562v3.28125h-57.226562zm0 0" fill="none" stroke="#000" stroke-linejoin="round" stroke-miterlimit="10" stroke-width="5.21494" transform="matrix(.1 0 0 -.1 0 700.24)"/><path d="m278.574219 553.003906h5.722656v-.328125h-5.722656zm0 0"/><path d="m3704.453125 2044.157812v-41.445312l568.320313 19.453125v41.445312zm0 0" fill="none" stroke="#000" stroke-linejoin="round" stroke-miterlimit="10" stroke-width="3.98456" transform="matrix(.1 0 0 -.1 0 700.24)"/><path d="m370.445312 495.824219v4.144531l56.832032-1.945312v-4.144532zm0 0"/><path d="m4482.421875 1472.360937h57.265625v3.28125h-57.265625zm0 0" fill="none" stroke="#000" stroke-linejoin="round" stroke-miterlimit="10" stroke-width="5.21494" transform="matrix(.1 0 0 -.1 0 700.24)"/><path d="m448.242188 553.003906h5.726562v-.328125h-5.726562zm0 0"/><path d="m5041.875 1472.360937h57.265625v3.28125h-57.265625zm0 0" fill="none" stroke="#000" stroke-linejoin="round" stroke-miterlimit="10" stroke-width="5.21494" transform="matrix(.1 0 0 -.1 0 700.24)"/><path d="m504.1875 553.003906h5.726562v-.328125h-5.726562zm0 0"/><use x="523.496" xlink:href="#X" y="559.414"/><use x="530.979609" xlink:href="#R" y="559.414"/><use x="543.905398" xlink:href="#U" y="559.414"/><use x="581.0792" xlink:href="#H" y="497.8945"/><path d="m5451.015625 1807.439062h4.453125v308.671875h-4.453125zm0 0" fill="none" stroke="#000" stroke-linejoin="round" stroke-miterlimit="10" stroke-width="3.98456" transform="matrix(.1 0 0 -.1 0 700.24)"/><path d="m545.101562 519.496094h.445313v-30.867188h-.445313zm0 0"/><use x="135.566" xlink:href="#G" y="512.092"/><path d="m740.234375 1615.290625h4.492187v292.890625h-4.492187zm0 0" fill="none" stroke="#000" stroke-linejoin="round" stroke-miterlimit="10" stroke-width="3.98456" transform="matrix(.1 0 0 -.1 0 700.24)"/><path d="m74.023438 538.710938h.449218v-29.289063h-.449218zm0 0"/><use x="72.1793" xlink:href="#af" y="559.414"/><use x="73.82305" xlink:href="#G" y="507.3593"/><use x="302.35105" xlink:href="#G" y="531.0202"/><use x="40.69705" xlink:href="#I" y="488.43"/><use x="7.57125" xlink:href="#J" y="516.8238"/><use x="289.73725" xlink:href="#ah" y="559.414"/><use x="301.472029" xlink:href="#ai" y="559.414"/><use x="314.397818" xlink:href="#V" y="559.414"/><path d="m2600.429688 1807.439062h4.492187v288.789063h-4.492187zm0 0" fill="none" stroke="#000" stroke-linejoin="round" stroke-miterlimit="10" stroke-width="3.98456" transform="matrix(.1 0 0 -.1 0 700.24)"/><path d="m260.042969 519.496094h.449219v-28.878906h-.449219zm0 0"/><use x="235.889" xlink:href="#ag" y="559.414"/><use x="248.814789" xlink:href="#ad" y="559.414"/><use x="261.400735" xlink:href="#ah" y="559.414"/><use x="248.3339" xlink:href="#G" y="521.5558"/><use x="122.0169" xlink:href="#ah" y="559.414"/><use x="133.75207" xlink:href="#Y" y="559.414"/><use x="146.677859" xlink:href="#X" y="559.414"/><use x="155.011064" xlink:href="#Q" y="559.414"/><path d="m2036.601562 1854.782812h4.492188v261.445313h-4.492188zm0 0" fill="none" stroke="#000" stroke-linejoin="round" stroke-miterlimit="10" stroke-width="3.98456" transform="matrix(.1 0 0 -.1 0 700.24)"/><path d="m203.660156 514.761719h.449219v-26.144531h-.449219zm0 0"/><use x="191.95" xlink:href="#G" y="516.824"/><use x="188.60547" xlink:href="#Q" y="559.4142"/><use x="194.72774" xlink:href="#R" y="559.4142"/><path d="m1472.773438 1902.0875h4.492187v233.320312h-4.492187zm0 0" fill="none" stroke="#000" stroke-linejoin="round" stroke-miterlimit="10" stroke-width="3.98456" transform="matrix(.1 0 0 -.1 0 700.24)"/><path d="m147.277344 510.03125h.449218v-23.332031h-.449218zm0 0"/><g clip-path="url(#A)"><path d="m3.242188 603.767187h5946.25" style="fill:none;stroke-width:6.52105;stroke-linecap:round;stroke-linejoin:round;stroke:#000;stroke-miterlimit:10" transform="matrix(.1 0 0 -.1 0 700.24)"/></g><g clip-path="url(#B)"><path d="m3.242188 698.415625h5946.25" style="fill:none;stroke-width:6.52105;stroke-linecap:round;stroke-linejoin:round;stroke:#000;stroke-miterlimit:10" transform="matrix(.1 0 0 -.1 0 700.24)"/></g><g clip-path="url(#C)"><path d="m3.242188 793.064062h5946.25" style="fill:none;stroke-width:6.52105;stroke-linecap:round;stroke-linejoin:round;stroke:#000;stroke-miterlimit:10" transform="matrix(.1 0 0 -.1 0 700.24)"/></g><g clip-path="url(#D)"><path d="m3.242188 887.7125h5946.25" style="fill:none;stroke-width:6.52105;stroke-linecap:round;stroke-linejoin:round;stroke:#000;stroke-miterlimit:10" transform="matrix(.1 0 0 -.1 0 700.24)"/></g><g clip-path="url(#E)"><path d="m3.242188 982.360937h5946.25" style="fill:none;stroke-width:6.52105;stroke-linecap:round;stroke-linejoin:round;stroke:#000;stroke-miterlimit:10" transform="matrix(.1 0 0 -.1 0 700.24)"/></g><g clip-path="url(#F)"><path d="m5933.203125 603.767187v378.59375" fill="none" stroke="#000" stroke-linejoin="round" stroke-miterlimit="10" stroke-width="39.1073" transform="matrix(.1 0 0 -.1 0 700.24)"/></g><path d="m5887.890625 603.767187v378.59375" fill="none" stroke="#000" stroke-linejoin="round" stroke-miterlimit="10" stroke-width="12.389" transform="matrix(.1 0 0 -.1 0 700.24)"/><use x="412.313" xlink:href="#G" y="635.1302"/><use x="478.304" xlink:href="#S" y="673.0829"/><use x="491.229789" xlink:href="#R" y="673.0829"/><use x="504.155578" xlink:href="#S" y="673.0829"/><use x="517.081367" xlink:href="#as" y="673.0829"/><use x="500.9255" xlink:href="#M" y="599.1794"/><use x="494.74581" xlink:href="#G" y="639.8626"/><path d="m4240.234375 671.696875h4.492187v289.21875h-4.492187zm0 0" fill="none" stroke="#000" stroke-linejoin="round" stroke-miterlimit="10" stroke-width="3.98456" transform="matrix(.1 0 0 -.1 0 700.24)"/><path d="m424.023438 633.070312h.449218v-28.921874h-.449218zm0 0"/><use x="399.103" xlink:href="#S" y="673.083"/><use x="412.028789" xlink:href="#ap" y="673.083"/><use x="424.954578" xlink:href="#S" y="673.083"/><path d="m1227.34375 335.68125h57.265625v3.28125h-57.265625zm0 0" fill="none" stroke="#000" stroke-linejoin="round" stroke-miterlimit="10" stroke-width="5.21494" transform="matrix(.1 0 0 -.1 0 700.24)"/><path d="m122.734375 666.671875h5.726563v-.328125h-5.726563zm0 0"/><path d="m3415.898438 671.696875h4.492187v289.21875h-4.492187zm0 0" fill="none" stroke="#000" stroke-linejoin="round" stroke-miterlimit="10" stroke-width="3.98456" transform="matrix(.1 0 0 -.1 0 700.24)"/><path d="m341.589844 633.070312h.449218v-28.921874h-.449218zm0 0"/><use x="323.134" xlink:href="#V" y="673.083"/><use x="336.059398" xlink:href="#R" y="673.083"/><use x="329.88127" xlink:href="#G" y="635.1303"/><path d="m1767.265625 1022.517187v-41.40625l828.789063-19.492187v41.445312zm0 0" fill="none" stroke="#000" stroke-linejoin="round" stroke-miterlimit="10" stroke-width="3.98456" transform="matrix(.1 0 0 -.1 0 700.24)"/><path d="m176.726562 597.988281v4.140625l82.878907 1.949219v-4.144531zm0 0"/><path d="m2949.140625 335.68125h57.265625v3.28125h-57.265625zm0 0" fill="none" stroke="#000" stroke-linejoin="round" stroke-miterlimit="10" stroke-width="5.21494" transform="matrix(.1 0 0 -.1 0 700.24)"/><path d="m294.914062 666.671875h5.726563v-.328125h-5.726563zm0 0"/><path d="m3415.898438 942.204687h828.828124v41.40625h-828.828124zm0 0" fill="none" stroke="#000" stroke-linejoin="round" stroke-miterlimit="10" stroke-width="3.98456" transform="matrix(.1 0 0 -.1 0 700.24)"/><path d="m341.589844 606.019531h82.882812v-4.140625h-82.882812zm0 0"/><path d="m3711.835938 335.68125h57.226562v3.28125h-57.226562zm0 0" fill="none" stroke="#000" stroke-linejoin="round" stroke-miterlimit="10" stroke-width="5.21494" transform="matrix(.1 0 0 -.1 0 700.24)"/><path d="m371.183594 666.671875h5.722656v-.328125h-5.722656zm0 0"/><path d="m4552.304688 335.68125h57.226562v3.28125h-57.226562zm0 0" fill="none" stroke="#000" stroke-linejoin="round" stroke-miterlimit="10" stroke-width="5.21494" transform="matrix(.1 0 0 -.1 0 700.24)"/><path d="m455.230469 666.671875h5.722656v-.328125h-5.722656zm0 0"/><path d="m5064.570312 624.392187h4.492188v308.671875h-4.492188zm0 0" fill="none" stroke="#000" stroke-linejoin="round" stroke-miterlimit="10" stroke-width="3.98456" transform="matrix(.1 0 0 -.1 0 700.24)"/><path d="m506.457031 637.800781h.449219v-30.863281h-.449219zm0 0"/><use x="40.6973" xlink:href="#I" y="602.0045"/><use x="7.5715" xlink:href="#J" y="630.3979"/><use x="73.823175" xlink:href="#G" y="630.3979"/><path d="m855.351562 719.040625h4.453126v308.632812h-4.453126zm0 0" fill="none" stroke="#000" stroke-linejoin="round" stroke-miterlimit="10" stroke-width="3.98456" transform="matrix(.1 0 0 -.1 0 700.24)"/><path d="m85.535156 628.335938h.445313v-30.863282h-.445313zm0 0"/><path d="m2591.5625 719.040625h4.492188v261.40625h-4.492188zm0 0" fill="none" stroke="#000" stroke-linejoin="round" stroke-miterlimit="10" stroke-width="3.98456" transform="matrix(.1 0 0 -.1 0 700.24)"/><path d="m259.15625 628.335938h.449219v-26.140626h-.449219zm0 0"/><use x="234.833" xlink:href="#ar" y="673.083"/><use x="254.222066" xlink:href="#P" y="673.083"/><use x="259.494733" xlink:href="#S" y="673.083"/><use x="247.4475" xlink:href="#G" y="630.3978"/><path d="m1767.265625 766.345312h4.492187v233.359375h-4.492187zm0 0" fill="none" stroke="#000" stroke-linejoin="round" stroke-miterlimit="10" stroke-width="3.98456" transform="matrix(.1 0 0 -.1 0 700.24)"/><path d="m176.726562 623.605469h.449219v-23.335938h-.449219zm0 0"/><use x="152.4" xlink:href="#S" y="673.083"/><use x="165.325789" xlink:href="#R" y="673.083"/><use x="178.251187" xlink:href="#U" y="673.083"/><use x="165.0145" xlink:href="#G" y="625.6658"/><use x="61.2085" xlink:href="#at" y="673.083"/><use x="72.943273" xlink:href="#au" y="673.083"/><use x="85.869062" xlink:href="#S" y="673.083"/></svg>