<svg height="613.26em" viewBox="0 0 595.28 613.26" width="595.28em" xmlns="http://www.w3.org/2000/svg" xmlns:xlink="http://www.w3.org/1999/xlink"><clipPath id="a"><path d="m0 67h595.28125v1h-595.28125zm0 0"/></clipPath><clipPath id="b"><path d="m0 57h595.28125v1h-595.28125zm0 0"/></clipPath><clipPath id="c"><path d="m0 47h595.28125v1h-595.28125zm0 0"/></clipPath><clipPath id="d"><path d="m0 37h595.28125v1h-595.28125zm0 0"/></clipPath><clipPath id="e"><path d="m0 27h595.28125v1h-595.28125zm0 0"/></clipPath><clipPath id="f"><path d="m0 186h595.28125v2h-595.28125zm0 0"/></clipPath><clipPath id="g"><path d="m0 176h595.28125v2h-595.28125zm0 0"/></clipPath><clipPath id="h"><path d="m0 166h595.28125v2h-595.28125zm0 0"/></clipPath><clipPath id="i"><path d="m0 156h595.28125v2h-595.28125zm0 0"/></clipPath><clipPath id="j"><path d="m0 146h595.28125v2h-595.28125zm0 0"/></clipPath><clipPath id="k"><path d="m0 306h595.28125v1h-595.28125zm0 0"/></clipPath><clipPath id="l"><path d="m0 296h595.28125v1h-595.28125zm0 0"/></clipPath><clipPath id="m"><path d="m0 286h595.28125v2h-595.28125zm0 0"/></clipPath><clipPath id="n"><path d="m0 276h595.28125v2h-595.28125zm0 0"/></clipPath><clipPath id="o"><path d="m0 266h595.28125v2h-595.28125zm0 0"/></clipPath><clipPath id="p"><path d="m0 425h595.28125v2h-595.28125zm0 0"/></clipPath><clipPath id="q"><path d="m0 415h595.28125v2h-595.28125zm0 0"/></clipPath><clipPath id="r"><path d="m0 405h595.28125v2h-595.28125zm0 0"/></clipPath><clipPath id="s"><path d="m0 395h595.28125v2h-595.28125zm0 0"/></clipPath><clipPath id="t"><path d="m0 385h595.28125v2h-595.28125zm0 0"/></clipPath><clipPath id="u"><path d="m0 545h595.28125v2h-595.28125zm0 0"/></clipPath><clipPath id="v"><path d="m0 535h595.28125v2h-595.28125zm0 0"/></clipPath><clipPath id="w"><path d="m0 525h595.28125v2h-595.28125zm0 0"/></clipPath><clipPath id="x"><path d="m0 515h595.28125v2h-595.28125zm0 0"/></clipPath><clipPath id="y"><path d="m0 505h595.28125v2h-595.28125zm0 0"/></clipPath><clipPath id="z"><path d="m591 503h4.28125v45h-4.28125zm0 0"/></clipPath><symbol id="A" overflow="visible"><path d="m12.609375-5.75c0-1.96875-.140625-3.15625-.515625-4.109375-.828125-2.125-2.796875-3.390625-5.203125-3.390625-3.59375 0-5.90625 2.71875-5.90625 6.984375 0 4.25 2.21875 6.828125 5.859375 6.828125 2.9375 0 4.984375-1.671875 5.5-4.46875h-2.0625c-.5625 1.6875-1.71875 2.578125-3.375 2.578125-1.296875 0-2.40625-.59375-3.09375-1.671875-.5-.734375-.671875-1.46875-.6875-2.75zm-9.4375-1.671875c.171875-2.390625 1.625-3.9375 3.6875-3.9375 2.09375 0 3.546875 1.625 3.546875 3.9375zm4.40625-10.78125-2.359375 3.640625h1.46875l3.671875-3.640625zm0 0"/></symbol><symbol id="B" overflow="visible"><path d="m1.71875-12.890625v12.890625h2.0625v-7.109375c0-2.625 1.390625-4.34375 3.5-4.34375 1.625 0 2.65625.96875 2.65625 2.53125v8.921875h2.046875v-9.734375c0-2.140625-1.609375-3.515625-4.09375-3.515625-1.921875 0-3.140625.734375-4.28125 2.53125v-2.171875zm0 0"/></symbol><symbol id="C" overflow="visible"><path d="m10.765625-9.296875c-.015625-2.53125-1.6875-3.953125-4.671875-3.953125-3 0-4.9375 1.546875-4.9375 3.921875 0 2.03125 1.03125 2.984375 4.078125 3.71875l1.921875.46875c1.421875.34375 2 .859375 2 1.765625 0 1.234375-1.21875 2.046875-3 2.046875-1.109375 0-2.046875-.3125-2.5625-.859375-.328125-.375-.46875-.734375-.59375-1.65625h-2.15625c.09375 2.984375 1.765625 4.40625 5.125 4.40625 3.25 0 5.3125-1.59375 5.3125-4.078125 0-1.921875-1.078125-2.984375-3.625-3.59375l-1.96875-.46875c-1.671875-.390625-2.390625-.9375-2.390625-1.84375 0-1.203125 1.0625-1.9375 2.734375-1.9375 1.640625 0 2.53125.703125 2.578125 2.0625zm0 0"/></symbol><symbol id="D" overflow="visible"><path d="m13.15625-1.203125c-.21875.046875-.3125.046875-.4375.046875-.71875 0-1.109375-.375-1.109375-1.015625v-7.5625c0-2.296875-1.671875-3.515625-4.84375-3.515625-1.890625 0-3.390625.53125-4.28125 1.5-.59375.65625-.84375 1.390625-.890625 2.671875h2.078125c.171875-1.578125 1.09375-2.28125 3.015625-2.28125 1.875 0 2.875.6875 2.875 1.921875v.53125c-.015625.890625-.46875 1.203125-2.140625 1.4375-2.890625.359375-3.34375.453125-4.125.78125-1.5.640625-2.265625 1.765625-2.265625 3.4375 0 2.34375 1.625 3.8125 4.234375 3.8125 1.625 0 2.921875-.5625 4.375-1.890625.140625 1.328125.78125 1.890625 2.109375 1.890625.453125 0 .71875-.046875 1.40625-.21875zm-3.59375-2.859375c0 .6875-.1875 1.109375-.8125 1.671875-.828125.765625-1.84375 1.15625-3.046875 1.15625-1.59375 0-2.53125-.75-2.53125-2.0625 0-1.34375.890625-2.046875 3.09375-2.359375 2.1875-.296875 2.609375-.390625 3.296875-.71875zm-2.09375-14.140625-2.375 3.640625h1.46875l3.671875-3.640625zm0 0"/></symbol><symbol id="E" overflow="visible"><path d="m1.71875-12.890625v12.890625h2.0625v-8.09375c0-1.859375 1.359375-3.359375 3.03125-3.359375 1.53125 0 2.390625.921875 2.390625 2.578125v8.875h2.0625v-8.09375c0-1.859375 1.34375-3.359375 3.015625-3.359375 1.515625 0 2.390625.953125 2.390625 2.578125v8.875h2.0625v-9.671875c0-2.3125-1.328125-3.578125-3.734375-3.578125-1.71875 0-2.75.515625-3.953125 1.96875-.765625-1.390625-1.796875-1.96875-3.46875-1.96875-1.71875 0-2.875.640625-3.96875 2.1875v-1.828125zm0 0"/></symbol><symbol id="F" overflow="visible"><path d="m12.171875-17.921875h-2.046875v6.65625c-.859375-1.296875-2.234375-1.984375-3.953125-1.984375-3.34375 0-5.53125 2.671875-5.53125 6.78125 0 4.359375 2.109375 7.03125 5.609375 7.03125 1.765625 0 3-.65625 4.109375-2.265625v1.703125h1.8125zm-5.65625 6.578125c2.21875 0 3.609375 1.953125 3.609375 5.046875 0 2.984375-1.421875 4.9375-3.578125 4.9375-2.265625 0-3.765625-1.984375-3.765625-4.984375s1.5-5 3.734375-5zm0 0"/></symbol><symbol id="G" overflow="visible"><path d="m3.6875-12.890625h-2.046875v12.890625h2.046875zm0-5.03125h-2.0625v2.578125h2.0625zm0 0"/></symbol><symbol id="H" overflow="visible"><path d="m9.9375-12.890625v1.875c-1.03125-1.546875-2.171875-2.234375-3.78125-2.234375-3.125 0-5.296875 2.890625-5.296875 7.03125 0 2.15625.515625 3.734375 1.625 5.03125.953125 1.140625 2.1875 1.75 3.515625 1.75 1.546875 0 2.65625-.6875 3.734375-2.3125v.671875c0 3.4375-.953125 4.71875-3.515625 4.71875-1.75 0-2.65625-.6875-2.84375-2.171875h-2.09375c.1875 2.390625 2.09375 3.890625 4.890625 3.890625 1.890625 0 3.46875-.609375 4.3125-1.640625.96875-1.203125 1.34375-2.8125 1.34375-5.828125v-10.78125zm-3.59375 1.53125c2.171875 0 3.390625 1.8125 3.390625 5.09375 0 3.125-1.25 4.9375-3.390625 4.9375-2.109375 0-3.34375-1.84375-3.34375-5.015625 0-3.15625 1.234375-5.015625 3.34375-5.015625zm0 0"/></symbol><symbol id="I" overflow="visible"><path d="m6.6875-13.25c-3.640625 0-5.796875 2.578125-5.796875 6.90625 0 4.359375 2.15625 6.90625 5.828125 6.90625 3.640625 0 5.828125-2.578125 5.828125-6.8125 0-4.46875-2.125-7-5.859375-7zm.03125 1.890625c2.3125 0 3.6875 1.890625 3.6875 5.09375 0 3.046875-1.421875 4.9375-3.6875 4.9375-2.296875 0-3.6875-1.890625-3.6875-5.015625s1.390625-5.015625 3.6875-5.015625zm0 0"/></symbol><symbol id="J" overflow="visible"><path d="m2.140625-2.5625v2.5625h1.46875v.4375c0 1.703125-.3125 2.1875-1.46875 2.25v.921875c1.625.0625 2.578125-1.125 2.578125-3.21875v-2.953125zm0 0"/></symbol><symbol id="K" overflow="visible"><path d="m13.546875-17.921875.03125 12.578125c0 2.421875-1.75 3.890625-4.59375 3.890625-2.859375 0-4.609375-1.46875-4.609375-3.890625v-12.578125h-2.28125v12.578125c0 3.59375 2.703125 5.90625 6.890625 5.90625 4.171875 0 6.875-2.328125 6.875-5.90625l-.015625-12.578125zm-4.03125-5.171875-2.359375 3.640625h1.46875l3.671875-3.640625zm0 0"/></symbol><symbol id="L" overflow="visible"><path d="m1.703125-12.890625v12.890625h2.0625v-6.6875c.015625-3.09375 1.296875-4.484375 4.125-4.40625v-2.09375c-.34375-.046875-.53125-.0625-.78125-.0625-1.328125 0-2.34375.78125-3.515625 2.703125v-2.34375zm0 0"/></symbol><symbol id="M" overflow="visible"><path d="m13.15625-1.203125c-.21875.046875-.3125.046875-.4375.046875-.71875 0-1.109375-.375-1.109375-1.015625v-7.5625c0-2.296875-1.671875-3.515625-4.84375-3.515625-1.890625 0-3.390625.53125-4.28125 1.5-.59375.65625-.84375 1.390625-.890625 2.671875h2.078125c.171875-1.578125 1.09375-2.28125 3.015625-2.28125 1.875 0 2.875.6875 2.875 1.921875v.53125c-.015625.890625-.46875 1.203125-2.140625 1.4375-2.890625.359375-3.34375.453125-4.125.78125-1.5.640625-2.265625 1.765625-2.265625 3.4375 0 2.34375 1.625 3.8125 4.234375 3.8125 1.625 0 2.921875-.5625 4.375-1.890625.140625 1.328125.78125 1.890625 2.109375 1.890625.453125 0 .71875-.046875 1.40625-.21875zm-3.59375-2.859375c0 .6875-.1875 1.109375-.8125 1.671875-.828125.765625-1.84375 1.15625-3.046875 1.15625-1.59375 0-2.53125-.75-2.53125-2.0625 0-1.34375.890625-2.046875 3.09375-2.359375 2.1875-.296875 2.609375-.390625 3.296875-.71875zm0 0"/></symbol><symbol id="N" overflow="visible"><path d="m10.890625-12.890625h-9.609375v1.796875h7.171875l-7.6875 9.25v1.84375h10.46875v-1.796875h-7.984375l7.640625-9.265625zm0 0"/></symbol><symbol id="O" overflow="visible"><path d="m6.25-12.890625h-2.125v-3.53125h-2.03125v3.53125h-1.75v1.671875h1.75v9.75c0 1.328125.875 2.03125 2.484375 2.03125.53125 0 .984375-.046875 1.671875-.171875v-1.71875c-.296875.078125-.5625.09375-.984375.09375-.890625 0-1.140625-.234375-1.140625-1.15625v-8.828125h2.125zm0 0"/></symbol><symbol id="P" overflow="visible"><path d="m12.609375-5.75c0-1.96875-.140625-3.15625-.515625-4.109375-.828125-2.125-2.796875-3.390625-5.203125-3.390625-3.59375 0-5.90625 2.71875-5.90625 6.984375 0 4.25 2.21875 6.828125 5.859375 6.828125 2.9375 0 4.984375-1.671875 5.5-4.46875h-2.0625c-.5625 1.6875-1.71875 2.578125-3.375 2.578125-1.296875 0-2.40625-.59375-3.09375-1.671875-.5-.734375-.671875-1.46875-.6875-2.75zm-9.4375-1.671875c.171875-2.390625 1.625-3.9375 3.6875-3.9375 2.09375 0 3.546875 1.625 3.546875 3.9375zm0 0"/></symbol><symbol id="Q" overflow="visible"><path d="m4.765625-17.921875h-2.3125v17.921875h2.3125zm0 0"/></symbol><symbol id="R" overflow="visible"><path d="m3.734375-17.921875h-2.0625v17.921875h2.0625zm0 0"/></symbol><symbol id="S" overflow="visible"><path d="m6.34375-12.890625h-2.140625v-2.015625c0-.859375.46875-1.296875 1.421875-1.296875.171875 0 .25 0 .71875.015625v-1.6875c-.46875-.109375-.734375-.125-1.15625-.125-1.890625 0-3.015625 1.078125-3.015625 2.921875v2.1875h-1.734375v1.671875h1.734375v11.21875h2.03125v-11.21875h2.140625zm0 0"/></symbol><symbol id="T" overflow="visible"><path d="m11.859375 0v-12.890625h-2.046875v7.3125c0 2.625-1.375 4.34375-3.515625 4.34375-1.625 0-2.65625-.984375-2.65625-2.53125v-9.125h-2.046875v9.9375c0 2.140625 1.609375 3.515625 4.109375 3.515625 1.890625 0 3.09375-.65625 4.3125-2.359375v1.796875zm-5.828125-17.578125h-2.5625v2.53125h2.5625zm3.984375 0h-2.5625v2.53125h2.5625zm0 0"/></symbol><symbol id="U" overflow="visible"><path d="m1.328125-17.921875v17.921875h1.84375v-1.640625c.984375 1.5 2.28125 2.203125 4.078125 2.203125 3.40625 0 5.609375-2.78125 5.609375-7.0625 0-4.171875-2.09375-6.75-5.5-6.75-1.78125 0-3.03125.65625-3.984375 2.109375v-6.78125zm5.625 6.578125c2.296875 0 3.765625 2 3.765625 5.078125 0 2.921875-1.515625 4.90625-3.765625 4.90625-2.1875 0-3.578125-1.953125-3.578125-4.984375s1.390625-5 3.578125-5zm0 0"/></symbol><symbol id="V" overflow="visible"><path d="m4.234375-6.265625 2.921875-2.9375 6.328125 9.203125h2.703125l-7.390625-10.625 7.3125-7.296875h-2.953125l-8.921875 9.0625v-9.0625h-2.296875v17.921875h2.296875zm0 0"/></symbol><symbol id="W" overflow="visible"><path d="m9.546875-12.890625-3.578125 10.03125-3.28125-10.03125h-2.203125l4.359375 12.9375-.78125 2.046875c-.34375.90625-.796875 1.25-1.65625 1.25-.34375 0-.640625-.046875-1.078125-.140625v1.84375c.421875.21875.84375.3125 1.375.3125.671875 0 1.375-.21875 1.921875-.609375.640625-.46875 1-1.015625 1.40625-2.046875l5.71875-15.59375zm0 0"/></symbol><symbol id="X" overflow="visible"><path d="m7.015625 0 4.9375-12.890625h-2.3125l-3.640625 10.453125-3.4375-10.453125h-2.3125l4.515625 12.890625zm0 0"/></symbol><symbol id="Y" overflow="visible"><path d="m3.46875-17.921875h-2.046875v17.921875h2.046875v-5.015625l1.984375-1.96875 4.359375 6.984375h2.53125l-5.265625-8.4375 4.484375-4.453125h-2.640625l-5.453125 5.46875zm0 0"/></symbol><symbol id="Z" overflow="visible"><path d="m1.1875-17.4375v2.734375l.65625 3.296875h.984375l.671875-3.296875v-2.734375zm0 0"/></symbol><symbol id="aa" overflow="visible"><path d="m5.109375-17.921875h-2.03125v8.3125l.53125 5.484375h.96875l.53125-5.484375zm0 15.359375h-2.0625v2.5625h2.0625zm0 0"/></symbol><symbol id="ab" overflow="visible"><path d="m4.5-8.171875h9.765625v-2.015625h-9.765625v-5.71875h10.140625v-2.015625h-12.421875v17.921875h12.859375v-2.015625h-10.578125zm4.53125-14.921875-2.390625 3.640625h1.46875l3.671875-3.640625zm0 0"/></symbol><symbol id="ac" overflow="visible"><path d="m1.71875-17.921875v17.921875h2.046875v-7.109375c0-2.625 1.375-4.34375 3.484375-4.34375.6875 0 1.328125.1875 1.828125.5625.59375.4375.828125 1.046875.828125 1.96875v8.921875h2.046875v-9.734375c0-2.171875-1.546875-3.515625-4.0625-3.515625-1.8125 0-2.921875.5625-4.125 2.140625v-6.8125zm0 0"/></symbol><symbol id="ad" overflow="visible"><path d="m4.703125-2.5625h-2.5625v2.5625h2.5625zm0 0"/></symbol><symbol id="ae" overflow="visible"><path d="m8.84375-5.375c-1.671875 0-3.265625.546875-4.703125 1.4375-1.875 1.109375-4.140625 3.0625-4.140625 5.890625 0 2.34375 2.078125 3.421875 4.1875 3.421875 1.671875 0 3.265625-.546875 4.703125-1.4375 1.875-1.109375 4.09375-3.0625 4.09375-5.890625 0-2.34375-2.03125-3.421875-4.140625-3.421875zm0 0"/></symbol><symbol id="af" overflow="visible"><path d="m5.65625 0c.15625 0 .328125-.15625.328125-.3125v-9.328125c0-.15625-.171875-.328125-.328125-.328125h-5.34375c-.15625 0-.3125.171875-.3125.328125v9.328125c0 .15625.15625.3125.3125.3125zm0 0"/></symbol><symbol id="ag" overflow="visible"><path d="m1-1.75c.03125-1.3125.90625-2.46875 2.140625-2.46875 1.203125 0 1.765625 1.390625 1.765625 2.75 0 2.34375-2 4.015625-3.828125 5.53125-.078125-.875-.15625-1.75-.15625-2.625 0-.15625.03125-.28125.03125-.4375zm-2-16.703125.4375 23.875c0 .46875.359375.828125.84375.828125.71875 0 1.03125-.828125 1.59375-1.265625 2.515625-2.03125 6.09375-3.46875 6.09375-6.734375 0-2.15625-1.59375-3.984375-3.703125-3.984375-1.28125 0-2.46875.4375-3.515625 1.1875l.25-13.90625c-.328125-.15625-.640625-.28125-1-.28125s-.671875.125-1 .28125zm0 0"/></symbol><symbol id="ah" overflow="visible"><path d="m14.90625-10.359375c-.640625-2.796875-1.40625-5.53125-2.203125-8.28125 3.828125-4.34375 7.296875-8.8125 7.296875-14.546875 0-4.5-2.46875-10.953125-5.25-14.3125-.203125-.15625-.453125-.15625-.640625 0-3.796875 2.75-5.984375 7.140625-5.984375 11.765625 0 2.0625.046875 4.09375.28125 6.125.28125 2.59375.953125 5.109375 1.671875 7.609375-4.703125 5.34375-10 10.4375-10 17.53125 0 8.015625 5.78125 14.828125 13.265625 14.828125 1.234375 0 2.390625-.125 3.546875-.3125.125 1.265625.203125 2.546875.203125 3.8125 0 .71875-.046875 1.40625-.078125 2.125-.234375 3.9375-2.671875 7.5625-6.375 7.640625-.046875 0-.078125.046875-.125.046875-2.03125 0-3.78125-1.15625-4.8125-2.796875.4375.203125.90625.359375 1.390625.359375 2.078125 0 3.78125-1.703125 3.78125-3.78125 0-2.234375-1.625-4.140625-3.78125-4.140625-2.359375 0-4.46875 1.828125-4.46875 4.140625 0 4.296875 3.46875 7.765625 7.78125 7.765625 4.6875 0 7.921875-4.21875 8.203125-9 .03125-.765625.03125-1.46875.03125-2.234375 0-1.4375-.078125-2.875-.1875-4.296875 1.03125-.328125 2.03125-.796875 2.90625-1.484375 2.953125-2.1875 4.265625-5.25 4.265625-8.28125 0-5.265625-3.984375-10.328125-10.125-10.328125-.203125 0-.40625.046875-.59375.046875zm3.375 18.53125c-.546875-4.9375-1.46875-9.640625-2.46875-14.3125 4.390625.359375 7.140625 4.03125 7.140625 7.6875 0 2.796875-1.921875 5.671875-4.671875 6.625zm-15.453125-9.40625c0-6.375 4.296875-11.203125 8.609375-16.015625.640625 2.34375 1.265625 4.703125 1.828125 7.09375-4.015625.90625-6.296875 4.296875-6.296875 7.8125 0 2.78125 1.4375 5.609375 4.625 7.328125.125.03125.234375.078125.359375.078125.4375 0 .796875-.40625.796875-.84375 0-.1875-.125-.390625-.28125-.546875-2.234375-1.28125-3.265625-3.1875-3.265625-4.953125 0-2.34375 1.828125-4.453125 4.984375-4.8125 1.03125 4.78125 1.953125 9.515625 2.546875 14.625-1.078125.15625-2.15625.234375-3.265625.234375-5.421875 0-10.640625-4.578125-10.640625-10zm13.546875-40.609375c.671875 2.125.84375 3.15625.84375 5.46875 0 5.0625-2.671875 9.078125-5.9375 12.953125-.71875-2.515625-1.3125-4.953125-1.3125-7.96875 0-4.421875 2.46875-8.453125 6.40625-10.453125zm0 0"/></symbol><symbol id="ai" overflow="visible"><path d="m5.65625 9.96875c.15625 0 .328125-.171875.328125-.328125v-19.28125c0-.15625-.171875-.328125-.328125-.328125h-5.34375c-.15625 0-.3125.171875-.3125.328125v19.28125c0 .15625.15625.328125.3125.328125zm0 0"/></symbol><symbol id="aj" overflow="visible"><path d="m-2.515625-1.875c0 1.390625 1.125 2.515625 2.515625 2.515625s2.515625-1.125 2.515625-2.515625-1.125-2.515625-2.515625-2.515625-2.515625 1.125-2.515625 2.515625zm2.515625-12.46875c-6.171875 0-13.109375 6.890625-13.109375 14.421875 0 .328125.3125.5625.640625.5625.28125 0 .59375-.203125.671875-.640625 1.03125-5.9375 5.859375-10.5625 11.796875-10.5625s10.765625 4.625 11.796875 10.5625c.078125.4375.390625.640625.671875.640625.328125 0 .640625-.234375.640625-.5625 0-7.53125-6.890625-14.421875-13.109375-14.421875zm0 0"/></symbol><symbol id="ak" overflow="visible"><path d="m5.21875-10.71875v10.71875h3.0625v-15.546875h-2.03125c-.484375 1.84375-2.078125 2.78125-4.765625 2.78125v2.046875zm0 0"/></symbol><symbol id="al" overflow="visible"><path d="m4.6875-3.203125h-3.28125v3.203125h3.28125zm0 0"/></symbol><g clip-path="url(#a)"><path d="m3.359375 5457.521875h5946.054687" fill="none" stroke="#000" stroke-linecap="round" stroke-miterlimit="10" stroke-width="6.68493" transform="matrix(.1 0 0 -.1 0 613.26)"/></g><g clip-path="url(#b)"><path d="m3.359375 5557.170313h5946.054687" fill="none" stroke="#000" stroke-linecap="round" stroke-miterlimit="10" stroke-width="6.68493" transform="matrix(.1 0 0 -.1 0 613.26)"/></g><g clip-path="url(#c)"><path d="m3.359375 5656.779688h5946.054687" fill="none" stroke="#000" stroke-linecap="round" stroke-miterlimit="10" stroke-width="6.68493" transform="matrix(.1 0 0 -.1 0 613.26)"/></g><g clip-path="url(#d)"><path d="m3.359375 5756.428125h5946.054687" fill="none" stroke="#000" stroke-linecap="round" stroke-miterlimit="10" stroke-width="6.68493" transform="matrix(.1 0 0 -.1 0 613.26)"/></g><g clip-path="url(#e)"><path d="m3.359375 5856.0375h5946.054687" fill="none" stroke="#000" stroke-linecap="round" stroke-miterlimit="10" stroke-width="6.68493" transform="matrix(.1 0 0 -.1 0 613.26)"/></g><path d="m833.320312 5357.9125h178.515626" fill="none" stroke="#000" stroke-linecap="round" stroke-miterlimit="10" stroke-width="16.6476" transform="matrix(.1 0 0 -.1 0 613.26)"/><use x="305.516" xlink:href="#A" y="110.923"/><use x="319.121873" xlink:href="#B" y="110.923"/><path d="m4904.414062 5628.576563h4.6875v325.078125h-4.6875zm0 0" fill="none" stroke="#000" stroke-linejoin="round" stroke-miterlimit="10" stroke-width="3.98506" transform="matrix(.1 0 0 -.1 0 613.26)"/><path d="m490.441406 50.402344h.46875v-32.507813h-.46875zm0 0"/><use x="471.679" xlink:href="#C" y="110.923"/><use x="483.925107" xlink:href="#D" y="110.923"/><use x="478.0997" xlink:href="#ae" y="52.5628"/><path d="m4249.296875 5360.060938h4.726563v275.117187h-4.726563zm0 0" fill="none" stroke="#000" stroke-linejoin="round" stroke-miterlimit="10" stroke-width="3.98506" transform="matrix(.1 0 0 -.1 0 613.26)"/><path d="m424.929688 77.253906h.46875v-27.511718h-.46875zm0 0"/><use x="407.338" xlink:href="#E" y="110.923"/><use x="427.917728" xlink:href="#D" y="110.923"/><use x="441.524016" xlink:href="#F" y="110.923"/><use x="424.7286" xlink:href="#ae" y="47.5816"/><path d="m3714.0625 5380.295313h4.6875v304.726562h-4.6875zm0 0" fill="none" stroke="#000" stroke-linejoin="round" stroke-miterlimit="10" stroke-width="3.98506" transform="matrix(.1 0 0 -.1 0 613.26)"/><path d="m371.40625 75.230469h.46875v-30.472657h-.46875zm0 0"/><use x="374.989" xlink:href="#G" y="110.923"/><use x="371.20541" xlink:href="#ae" y="42.6003"/><path d="m3128.164062 5326.701563h4.726563v308.515625h-4.726563zm0 0" fill="none" stroke="#000" stroke-linejoin="round" stroke-miterlimit="10" stroke-width="3.98506" transform="matrix(.1 0 0 -.1 0 613.26)"/><path d="m312.816406 80.589844h.472656v-30.847656h-.472656zm0 0"/><path d="m1591.71875 5877.951563v-43.828125l539.921875 20.546875v43.867187zm0 0" fill="none" stroke="#000" stroke-linejoin="round" stroke-miterlimit="10" stroke-width="3.98506" transform="matrix(.1 0 0 -.1 0 613.26)"/><path d="m159.171875 25.464844v4.382812l53.992187-2.054687v-4.386719zm0 0"/><path d="m1717.226562 5090.803125h60.390626v3.359375h-60.390626zm0 0" fill="none" stroke="#000" stroke-linejoin="round" stroke-miterlimit="10" stroke-width="5.34994" transform="matrix(.1 0 0 -.1 0 613.26)"/><path d="m171.722656 104.179688h6.039063v-.335938h-6.039063zm0 0"/><path d="m3714.023438 5400.373438v-43.828125l539.960937-20.546875v43.828125zm0 0" fill="none" stroke="#000" stroke-linejoin="round" stroke-miterlimit="10" stroke-width="3.98506" transform="matrix(.1 0 0 -.1 0 613.26)"/><path d="m371.402344 73.222656v4.382813l53.996094 2.054687v-4.382812zm0 0"/><path d="m3908.632812 5090.803125h60.390626v3.359375h-60.390626zm0 0" fill="none" stroke="#000" stroke-linejoin="round" stroke-miterlimit="10" stroke-width="5.34994" transform="matrix(.1 0 0 -.1 0 613.26)"/><path d="m390.863281 104.179688h6.039063v-.335938h-6.039063zm0 0"/><path d="m4603.867188 5090.803125h60.390624v3.359375h-60.390624zm0 0" fill="none" stroke="#000" stroke-linejoin="round" stroke-miterlimit="10" stroke-width="5.34994" transform="matrix(.1 0 0 -.1 0 613.26)"/><path d="m460.382812 104.179688h6.042969v-.335938h-6.042969zm0 0"/><path d="m5036.914062 5090.803125h60.429688v3.359375h-60.429688zm0 0" fill="none" stroke="#000" stroke-linejoin="round" stroke-miterlimit="10" stroke-width="5.34994" transform="matrix(.1 0 0 -.1 0 613.26)"/><path d="m503.691406 104.179688h6.042969v-.335938h-6.042969zm0 0"/><use x="536.688" xlink:href="#ae" y="57.544"/><use x="580.3314" xlink:href="#af" y="37.6186"/><path d="m5490.273438 5578.732813h4.726562v325.117187h-4.726562zm0 0" fill="none" stroke="#000" stroke-linejoin="round" stroke-miterlimit="10" stroke-width="3.98506" transform="matrix(.1 0 0 -.1 0 613.26)"/><path d="m549.027344 55.386719h.472656v-32.511719h-.472656zm0 0"/><use x="515.895" xlink:href="#H" y="110.923"/><use x="529.501288" xlink:href="#I" y="110.923"/><use x="543.107185" xlink:href="#E" y="110.923"/><use x="563.686913" xlink:href="#J" y="110.923"/><use x="312.617" xlink:href="#ae" y="47.5816"/><path d="m980.9375 5379.514063h4.726562v325.078125h-4.726562zm0 0" fill="none" stroke="#000" stroke-linejoin="round" stroke-miterlimit="10" stroke-width="3.98506" transform="matrix(.1 0 0 -.1 0 613.26)"/><path d="m98.09375 75.3125h.46875v-32.511719h-.46875zm0 0"/><use x="51.0008" xlink:href="#ak" y="110.923"/><use x="63.246905" xlink:href="#al" y="110.923"/><use x="79.3324" xlink:href="#K" y="110.923"/><use x="97.021091" xlink:href="#L" y="110.923"/><use x="43.8726" xlink:href="#ag" y="47.5816"/><use x="52.87651" xlink:href="#ag" y="32.6375"/><use x="7.96991" xlink:href="#ah" y="57.5441"/><use x="85.75351" xlink:href="#ae" y="77.4695"/><use x="254.03051" xlink:href="#ae" y="47.5816"/><use x="247.4391" xlink:href="#M" y="110.923"/><use x="261.385988" xlink:href="#N" y="110.923"/><path d="m2542.304688 5326.701563h4.6875v308.515625h-4.6875zm0 0" fill="none" stroke="#000" stroke-linejoin="round" stroke-miterlimit="10" stroke-width="3.98506" transform="matrix(.1 0 0 -.1 0 613.26)"/><path d="m254.230469 80.589844h.46875v-30.847656h-.46875zm0 0"/><path d="m2126.953125 5628.576563h4.726563v245.859375h-4.726563zm0 0" fill="none" stroke="#000" stroke-linejoin="round" stroke-miterlimit="10" stroke-width="3.98506" transform="matrix(.1 0 0 -.1 0 613.26)"/><path d="m212.695312 50.402344h.46875v-24.585938h-.46875zm0 0"/><use x="186.62" xlink:href="#O" y="110.923"/><use x="193.082507" xlink:href="#P" y="110.923"/><use x="206.68877" xlink:href="#B" y="110.923"/><use x="220.294643" xlink:href="#J" y="110.923"/><use x="200.3544" xlink:href="#ae" y="52.5628"/><path d="m1591.71875 5578.732813h4.6875v275.46875h-4.6875zm0 0" fill="none" stroke="#000" stroke-linejoin="round" stroke-miterlimit="10" stroke-width="3.98506" transform="matrix(.1 0 0 -.1 0 613.26)"/><path d="m159.171875 55.386719h.46875v-27.546875h-.46875zm0 0"/><use x="143.812" xlink:href="#Q" y="110.923"/><use x="150.615522" xlink:href="#C" y="110.923"/><use x="146.83153" xlink:href="#ae" y="57.5441"/><g clip-path="url(#f)"><path d="m3.359375 4262.014063h5946.054687" style="fill:none;stroke-width:6.68493;stroke-linecap:round;stroke-linejoin:round;stroke:#000;stroke-miterlimit:10" transform="matrix(.1 0 0 -.1 0 613.26)"/></g><g clip-path="url(#g)"><path d="m3.359375 4361.623438h5946.054687" style="fill:none;stroke-width:6.68493;stroke-linecap:round;stroke-linejoin:round;stroke:#000;stroke-miterlimit:10" transform="matrix(.1 0 0 -.1 0 613.26)"/></g><g clip-path="url(#h)"><path d="m3.359375 4461.271875h5946.054687" style="fill:none;stroke-width:6.68493;stroke-linecap:round;stroke-linejoin:round;stroke:#000;stroke-miterlimit:10" transform="matrix(.1 0 0 -.1 0 613.26)"/></g><g clip-path="url(#i)"><path d="m3.359375 4560.88125h5946.054687" style="fill:none;stroke-width:6.68493;stroke-linecap:round;stroke-linejoin:round;stroke:#000;stroke-miterlimit:10" transform="matrix(.1 0 0 -.1 0 613.26)"/></g><g clip-path="url(#j)"><path d="m3.359375 4660.529688h5946.054687" style="fill:none;stroke-width:6.68493;stroke-linecap:round;stroke-linejoin:round;stroke:#000;stroke-miterlimit:10" transform="matrix(.1 0 0 -.1 0 613.26)"/></g><use x="528.123" xlink:href="#ae" y="192.04"/><path d="m4733.085938 4283.615625h4.726562v325.117188h-4.726562zm0 0" style="fill:none;stroke-width:3.98506;stroke-linecap:round;stroke-linejoin:round;stroke:#000;stroke-miterlimit:10" transform="matrix(.1 0 0 -.1 0 613.26)"/><path d="m473.308594 184.898438h.472656v-32.511719h-.472656zm0 0"/><use x="457.95" xlink:href="#G" y="221.928"/><use x="463.392597" xlink:href="#F" y="221.928"/><use x="460.96992" xlink:href="#ae" y="187.0589"/><path d="m4086.445312 4383.225h4.726563v325.117188h-4.726563zm0 0" style="fill:none;stroke-width:3.98506;stroke-linecap:round;stroke-linejoin:round;stroke:#000;stroke-miterlimit:10" transform="matrix(.1 0 0 -.1 0 613.26)"/><path d="m408.644531 174.9375h.472657v-32.511719h-.472657zm0 0"/><use x="393.287" xlink:href="#R" y="221.928"/><use x="398.729597" xlink:href="#P" y="221.928"/><use x="396.30692" xlink:href="#ae" y="177.096"/><path d="m3475.078125 4433.06875h4.726563v304.6875h-4.726563zm0 0" style="fill:none;stroke-width:3.98506;stroke-linecap:round;stroke-linejoin:round;stroke:#000;stroke-miterlimit:10" transform="matrix(.1 0 0 -.1 0 613.26)"/><path d="m347.507812 169.957031h.472657v-30.46875h-.472657zm0 0"/><use x="331.47" xlink:href="#S" y="221.928"/><use x="338.273535" xlink:href="#T" y="221.928"/><use x="335.17039" xlink:href="#ae" y="172.1147"/><path d="m1218.164062 3980.764063h60.429688v3.359375h-60.429688zm0 0" style="fill:none;stroke-width:5.34994;stroke-linecap:round;stroke-linejoin:round;stroke:#000;stroke-miterlimit:10" transform="matrix(.1 0 0 -.1 0 613.26)"/><path d="m121.816406 215.183594h6.042969v-.332032h-6.042969zm0 0"/><path d="m1521.09375 4161.0375h616.09375v43.828125h-616.09375zm0 0" fill="none" stroke="#000" stroke-linejoin="round" stroke-miterlimit="10" stroke-width="3.98506" transform="matrix(.1 0 0 -.1 0 613.26)"/><path d="m152.109375 197.15625h61.609375v-4.382812h-61.609375zm0 0"/><path d="m2402.65625 3980.764063h60.390625v3.359375h-60.390625zm0 0" fill="none" stroke="#000" stroke-linejoin="round" stroke-miterlimit="10" stroke-width="5.34994" transform="matrix(.1 0 0 -.1 0 613.26)"/><path d="m240.265625 215.183594h6.039063v-.332032h-6.039063zm0 0"/><path d="m2863.710938 4782.053125v-43.828125l616.09375-20.546875v43.828125zm0 0" fill="none" stroke="#000" stroke-linejoin="round" stroke-miterlimit="10" stroke-width="3.98506" transform="matrix(.1 0 0 -.1 0 613.26)"/><path d="m286.371094 135.054688v4.382812l61.609375 2.054688v-4.382813zm0 0"/><path d="m3695.625 3980.764063h60.390625v3.359375h-60.390625zm0 0" fill="none" stroke="#000" stroke-linejoin="round" stroke-miterlimit="10" stroke-width="5.34994" transform="matrix(.1 0 0 -.1 0 613.26)"/><path d="m369.5625 215.183594h6.039062v-.332032h-6.039062zm0 0"/><path d="m4321.210938 3980.764063h60.429687v3.359375h-60.429687zm0 0" fill="none" stroke="#000" stroke-linejoin="round" stroke-miterlimit="10" stroke-width="5.34994" transform="matrix(.1 0 0 -.1 0 613.26)"/><path d="m432.121094 215.183594h6.042968v-.332032h-6.042968zm0 0"/><path d="m4959.882812 3980.764063h60.429688v3.359375h-60.429688zm0 0" fill="none" stroke="#000" stroke-linejoin="round" stroke-miterlimit="10" stroke-width="5.34994" transform="matrix(.1 0 0 -.1 0 613.26)"/><path d="m495.988281 215.183594h6.042969v-.332032h-6.042969zm0 0"/><use x="521.021" xlink:href="#U" y="221.928"/><use x="534.627288" xlink:href="#P" y="221.928"/><use x="580.3315" xlink:href="#af" y="157.171"/><path d="m5404.648438 4233.771875h4.6875v325.117188h-4.6875zm0 0" fill="none" stroke="#000" stroke-linejoin="round" stroke-miterlimit="10" stroke-width="3.98506" transform="matrix(.1 0 0 -.1 0 613.26)"/><path d="m540.460938 189.882812h.472656v-32.511718h-.472656zm0 0"/><use x="43.8727" xlink:href="#ag" y="167.133"/><use x="52.87661" xlink:href="#ag" y="152.1893"/><path d="m849.570312 4164.396875h4.726563v325.078125h-4.726563zm0 0" fill="none" stroke="#000" stroke-linejoin="round" stroke-miterlimit="10" stroke-width="3.98506" transform="matrix(.1 0 0 -.1 0 613.26)"/><path d="m84.957031 196.820312h.46875v-32.507812h-.46875zm0 0"/><use x="72.2133" xlink:href="#V" y="221.928"/><use x="88.541057" xlink:href="#A" y="221.928"/><use x="102.146936" xlink:href="#L" y="221.928"/><use x="84.757" xlink:href="#ae" y="162.1522"/><use x="7.9699" xlink:href="#ah" y="177.0959"/><use x="213.0469" xlink:href="#ae" y="162.1522"/><path d="m2863.710938 4482.873438h4.726562v275.117187h-4.726562zm0 0" fill="none" stroke="#000" stroke-linejoin="round" stroke-miterlimit="10" stroke-width="3.98506" transform="matrix(.1 0 0 -.1 0 613.26)"/><path d="m286.371094 164.972656h.472656v-27.511718h-.472656zm0 0"/><use x="254.345" xlink:href="#H" y="221.928"/><use x="267.781341" xlink:href="#W" y="221.928"/><use x="279.516509" xlink:href="#P" y="221.928"/><use x="293.122381" xlink:href="#F" y="221.928"/><use x="274.0321" xlink:href="#ae" y="167.1335"/><path d="m2132.460938 4184.94375h4.726562v304.53125h-4.726562zm0 0" fill="none" stroke="#000" stroke-linejoin="round" stroke-miterlimit="10" stroke-width="3.98506" transform="matrix(.1 0 0 -.1 0 613.26)"/><path d="m213.246094 194.765625h.472656v-30.453125h-.472656zm0 0"/><use x="206.881" xlink:href="#X" y="221.928"/><use x="218.615779" xlink:href="#P" y="221.928"/><path d="m1521.09375 4184.94375h4.726562v304.53125h-4.726562zm0 0" fill="none" stroke="#000" stroke-linejoin="round" stroke-miterlimit="10" stroke-width="3.98506" transform="matrix(.1 0 0 -.1 0 613.26)"/><path d="m152.109375 194.765625h.472656v-30.453125h-.472656zm0 0"/><use x="151.91" xlink:href="#ae" y="162.152"/><use x="139.3663" xlink:href="#R" y="221.9278"/><use x="144.808884" xlink:href="#P" y="221.9278"/><use x="158.414757" xlink:href="#Y" y="221.9278"/><use x="170.660863" xlink:href="#J" y="221.9278"/><g clip-path="url(#k)"><path d="m3.359375 3066.50625h5946.054687" style="fill:none;stroke-width:6.68493;stroke-linecap:round;stroke-linejoin:round;stroke:#000;stroke-miterlimit:10" transform="matrix(.1 0 0 -.1 0 613.26)"/></g><g clip-path="url(#l)"><path d="m3.359375 3166.115625h5946.054687" style="fill:none;stroke-width:6.68493;stroke-linecap:round;stroke-linejoin:round;stroke:#000;stroke-miterlimit:10" transform="matrix(.1 0 0 -.1 0 613.26)"/></g><g clip-path="url(#m)"><path d="m3.359375 3265.764063h5946.054687" style="fill:none;stroke-width:6.68493;stroke-linecap:round;stroke-linejoin:round;stroke:#000;stroke-miterlimit:10" transform="matrix(.1 0 0 -.1 0 613.26)"/></g><g clip-path="url(#n)"><path d="m3.359375 3365.373438h5946.054687" style="fill:none;stroke-width:6.68493;stroke-linecap:round;stroke-linejoin:round;stroke:#000;stroke-miterlimit:10" transform="matrix(.1 0 0 -.1 0 613.26)"/></g><g clip-path="url(#o)"><path d="m3.359375 3464.982813h5946.054687" style="fill:none;stroke-width:6.68493;stroke-linecap:round;stroke-linejoin:round;stroke:#000;stroke-miterlimit:10" transform="matrix(.1 0 0 -.1 0 613.26)"/></g><use x="529.455" xlink:href="#ae" y="296.647"/><path d="m4759.726562 3237.521875h4.6875v325.117188h-4.6875zm0 0" style="fill:none;stroke-width:3.98506;stroke-linecap:round;stroke-linejoin:round;stroke:#000;stroke-miterlimit:10" transform="matrix(.1 0 0 -.1 0 613.26)"/><path d="m475.972656 289.507812h.46875v-32.511718h-.46875zm0 0"/><use x="446.922" xlink:href="#C" y="341.479"/><use x="459.168107" xlink:href="#P" y="341.479"/><use x="472.774394" xlink:href="#E" y="341.479"/><use x="463.6325" xlink:href="#ae" y="291.6661"/><path d="m3981.640625 2935.646875h4.6875v308.515625h-4.6875zm0 0" style="fill:none;stroke-width:3.98506;stroke-linecap:round;stroke-linejoin:round;stroke:#000;stroke-miterlimit:10" transform="matrix(.1 0 0 -.1 0 613.26)"/><path d="m398.164062 319.695312h.46875v-30.851562h-.46875zm0 0"/><use x="393.668" xlink:href="#L" y="341.479"/><use x="401.661753" xlink:href="#A" y="341.479"/><use x="397.96253" xlink:href="#ae" y="286.6845"/><path d="m3494.84375 3187.717188h4.726562v275.15625h-4.726562zm0 0" style="fill:none;stroke-width:3.98506;stroke-linecap:round;stroke-linejoin:round;stroke:#000;stroke-miterlimit:10" transform="matrix(.1 0 0 -.1 0 613.26)"/><path d="m349.484375 294.488281h.472656v-27.515625h-.472656zm0 0"/><use x="330.98" xlink:href="#Y" y="341.479"/><use x="342.715168" xlink:href="#A" y="341.479"/><use x="337.14719" xlink:href="#ae" y="296.6474"/><path d="m1629.179688 3443.107813h613.125v43.828125h-613.125zm0 0" fill="none" stroke="#000" stroke-linejoin="round" stroke-miterlimit="10" stroke-width="3.98506" transform="matrix(.1 0 0 -.1 0 613.26)"/><path d="m162.917969 268.949219h61.3125v-4.382813h-61.3125zm0 0"/><path d="m1810.820312 2785.25625h60.429688v3.320313h-60.429688zm0 0" fill="none" stroke="#000" stroke-linejoin="round" stroke-miterlimit="10" stroke-width="5.34994" transform="matrix(.1 0 0 -.1 0 613.26)"/><path d="m181.082031 334.734375h6.042969v-.332031h-6.042969zm0 0"/><path d="m2895.3125 3466.35v-43.828125l604.257812 20.585938v43.828125zm0 0" fill="none" stroke="#000" stroke-linejoin="round" stroke-miterlimit="10" stroke-width="3.98506" transform="matrix(.1 0 0 -.1 0 613.26)"/><path d="m289.53125 266.625v4.382812l60.425781-2.058593v-4.382813zm0 0"/><path d="m3719.765625 2785.25625h60.390625v3.320313h-60.390625zm0 0" fill="none" stroke="#000" stroke-linejoin="round" stroke-miterlimit="10" stroke-width="5.34994" transform="matrix(.1 0 0 -.1 0 613.26)"/><path d="m371.976562 334.734375h6.039063v-.332031h-6.039063zm0 0"/><path d="m4280.742188 2785.25625h60.429687v3.320313h-60.429687zm0 0" fill="none" stroke="#000" stroke-linejoin="round" stroke-miterlimit="10" stroke-width="5.34994" transform="matrix(.1 0 0 -.1 0 613.26)"/><path d="m428.074219 334.734375h6.039062v-.332031h-6.039062zm0 0"/><path d="m5019.414062 2785.25625h60.390626v3.320313h-60.390626zm0 0" fill="none" stroke="#000" stroke-linejoin="round" stroke-miterlimit="10" stroke-width="5.34994" transform="matrix(.1 0 0 -.1 0 613.26)"/><path d="m501.941406 334.734375h6.039063v-.332031h-6.039063zm0 0"/><use x="516.57" xlink:href="#U" y="341.479"/><use x="530.175897" xlink:href="#P" y="341.479"/><use x="543.782185" xlink:href="#Z" y="341.479"/><use x="548.544276" xlink:href="#aa" y="341.479"/><use x="580.3317" xlink:href="#ai" y="286.6845"/><path d="m5417.929688 3187.717188h4.726562v325.117187h-4.726562zm0 0" fill="none" stroke="#000" stroke-linejoin="round" stroke-miterlimit="10" stroke-width="3.98506" transform="matrix(.1 0 0 -.1 0 613.26)"/><path d="m541.792969 294.488281h.472656v-32.511719h-.472656zm0 0"/><use x="43.8727" xlink:href="#ag" y="286.685"/><use x="52.87661" xlink:href="#ag" y="271.7413"/><path d="m970.976562 3187.717188h4.6875v325.117187h-4.6875zm0 0" fill="none" stroke="#000" stroke-linejoin="round" stroke-miterlimit="10" stroke-width="3.98506" transform="matrix(.1 0 0 -.1 0 613.26)"/><path d="m97.097656 294.488281h.46875v-32.511719h-.46875zm0 0"/><use x="76.9754" xlink:href="#ab" y="341.479"/><use x="93.303157" xlink:href="#C" y="341.479"/><use x="84.75704" xlink:href="#ae" y="296.6474"/><use x="7.969716" xlink:href="#ah" y="296.6474"/><use x="211.418984" xlink:href="#ae" y="296.6474"/><path d="m2895.3125 3137.9125h4.726562v304.6875h-4.726562zm0 0" fill="none" stroke="#000" stroke-linejoin="round" stroke-miterlimit="10" stroke-width="3.98506" transform="matrix(.1 0 0 -.1 0 613.26)"/><path d="m289.53125 299.46875h.472656v-30.46875h-.472656zm0 0"/><use x="259.716" xlink:href="#E" y="341.479"/><use x="280.295704" xlink:href="#P" y="341.479"/><use x="294.07228" xlink:href="#H" y="341.479"/><use x="277.1926" xlink:href="#ae" y="301.6286"/><path d="m2237.578125 3187.717188h4.726563v275.273437h-4.726563zm0 0" fill="none" stroke="#000" stroke-linejoin="round" stroke-miterlimit="10" stroke-width="3.98506" transform="matrix(.1 0 0 -.1 0 613.26)"/><path d="m223.757812 294.488281h.472657v-27.527343h-.472657zm0 0"/><use x="192.073" xlink:href="#H" y="341.479"/><use x="205.509732" xlink:href="#M" y="341.479"/><use x="219.115604" xlink:href="#C" y="341.479"/><use x="231.531243" xlink:href="#C" y="341.479"/><path d="m1629.179688 3187.717188h4.726562v275.273437h-4.726562zm0 0" fill="none" stroke="#000" stroke-linejoin="round" stroke-miterlimit="10" stroke-width="3.98506" transform="matrix(.1 0 0 -.1 0 613.26)"/><path d="m162.917969 294.488281h.472656v-27.527343h-.472656zm0 0"/><use x="150.579" xlink:href="#ae" y="296.647"/><use x="138.0349" xlink:href="#ac" y="341.4786"/><use x="151.640773" xlink:href="#M" y="341.4786"/><use x="165.247036" xlink:href="#R" y="341.4786"/><use x="170.68962" xlink:href="#R" y="341.4786"/><g clip-path="url(#p)"><path d="m3.359375 1870.998438h5946.054687" style="fill:none;stroke-width:6.68493;stroke-linecap:round;stroke-linejoin:round;stroke:#000;stroke-miterlimit:10" transform="matrix(.1 0 0 -.1 0 613.26)"/></g><g clip-path="url(#q)"><path d="m3.359375 1970.607813h5946.054687" style="fill:none;stroke-width:6.68493;stroke-linecap:round;stroke-linejoin:round;stroke:#000;stroke-miterlimit:10" transform="matrix(.1 0 0 -.1 0 613.26)"/></g><g clip-path="url(#r)"><path d="m3.359375 2070.217188h5946.054687" style="fill:none;stroke-width:6.68493;stroke-linecap:round;stroke-linejoin:round;stroke:#000;stroke-miterlimit:10" transform="matrix(.1 0 0 -.1 0 613.26)"/></g><g clip-path="url(#s)"><path d="m3.359375 2169.865625h5946.054687" style="fill:none;stroke-width:6.68493;stroke-linecap:round;stroke-linejoin:round;stroke:#000;stroke-miterlimit:10" transform="matrix(.1 0 0 -.1 0 613.26)"/></g><g clip-path="url(#t)"><path d="m3.359375 2269.475h5946.054687" style="fill:none;stroke-width:6.68493;stroke-linecap:round;stroke-linejoin:round;stroke:#000;stroke-miterlimit:10" transform="matrix(.1 0 0 -.1 0 613.26)"/></g><use x="420.975" xlink:href="#Y" y="461.031"/><use x="433.390638" xlink:href="#G" y="461.031"/><path d="m4357.382812 1992.209375h4.726563v275.429688h-4.726563zm0 0" style="fill:none;stroke-width:3.98506;stroke-linecap:round;stroke-linejoin:round;stroke:#000;stroke-miterlimit:10" transform="matrix(.1 0 0 -.1 0 613.26)"/><path d="m435.738281 414.039062h.472657v-27.542968h-.472657zm0 0"/><use x="477.285" xlink:href="#ae" y="421.18"/><use x="472.90453" xlink:href="#L" y="461.0308"/><use x="481.067839" xlink:href="#D" y="461.0308"/><path d="m4896.25 1942.404688h4.726562v325.078125h-4.726562zm0 0" style="fill:none;stroke-width:3.98506;stroke-linecap:round;stroke-linejoin:round;stroke:#000;stroke-miterlimit:10" transform="matrix(.1 0 0 -.1 0 613.26)"/><path d="m489.625 419.023438h.472656v-32.511719h-.472656zm0 0"/><path d="m3228.59375 1992.209375h4.6875v325.117188h-4.6875zm0 0" style="fill:none;stroke-width:3.98506;stroke-linecap:round;stroke-linejoin:round;stroke:#000;stroke-miterlimit:10" transform="matrix(.1 0 0 -.1 0 613.26)"/><path d="m322.859375 414.039062h.46875v-32.511718h-.46875zm0 0"/><use x="423.399" xlink:href="#ae" y="416.199"/><use x="358.0572" xlink:href="#ag" y="411.21775"/><path d="m3818.515625 2042.014063h4.726563v245.898437h-4.726563zm0 0" style="fill:none;stroke-width:3.98506;stroke-linecap:round;stroke-linejoin:round;stroke:#000;stroke-miterlimit:10" transform="matrix(.1 0 0 -.1 0 613.26)"/><path d="m381.851562 409.058594h.472657v-24.589844h-.472657zm0 0"/><use x="362.412" xlink:href="#A" y="461.031"/><use x="376.017873" xlink:href="#B" y="461.031"/><use x="369.51434" xlink:href="#ae" y="411.2177"/><path d="m1560.9375 2191.779688v-43.828125l543.554688 20.546875v43.828125zm0 0" fill="none" stroke="#000" stroke-linejoin="round" stroke-miterlimit="10" stroke-width="3.98506" transform="matrix(.1 0 0 -.1 0 613.26)"/><path d="m156.09375 394.082031v4.382813l54.355469-2.054688v-4.382812zm0 0"/><path d="m1739.257812 1589.748438h60.390626v3.320312h-60.390626zm0 0" fill="none" stroke="#000" stroke-linejoin="round" stroke-miterlimit="10" stroke-width="5.34994" transform="matrix(.1 0 0 -.1 0 613.26)"/><path d="m173.925781 454.285156h6.039063v-.332031h-6.039063zm0 0"/><path d="m2211.367188 1589.748438h60.390624v3.320312h-60.390624zm0 0" fill="none" stroke="#000" stroke-linejoin="round" stroke-miterlimit="10" stroke-width="5.34994" transform="matrix(.1 0 0 -.1 0 613.26)"/><path d="m221.132812 454.285156h6.042969v-.332031h-6.042969zm0 0"/><path d="m3818.515625 2311.975v-43.828125l543.59375-20.585937v43.867187zm0 0" fill="none" stroke="#000" stroke-linejoin="round" stroke-miterlimit="10" stroke-width="3.98506" transform="matrix(.1 0 0 -.1 0 613.26)"/><path d="m381.851562 382.0625v4.382812l54.359376 2.058594v-4.386718zm0 0"/><path d="m4528.515625 1589.748438h60.390625v3.320312h-60.390625zm0 0" fill="none" stroke="#000" stroke-linejoin="round" stroke-miterlimit="10" stroke-width="5.34994" transform="matrix(.1 0 0 -.1 0 613.26)"/><path d="m452.851562 454.285156h6.039063v-.332031h-6.039063zm0 0"/><path d="m5012.109375 1589.748438h60.390625v3.320312h-60.390625zm0 0" fill="none" stroke="#000" stroke-linejoin="round" stroke-miterlimit="10" stroke-width="5.34994" transform="matrix(.1 0 0 -.1 0 613.26)"/><path d="m501.210938 454.285156h6.039062v-.332031h-6.039062zm0 0"/><use x="536.28" xlink:href="#ae" y="426.162"/><use x="580.3316" xlink:href="#af" y="396.2741"/><path d="m5486.210938 1892.560938h4.6875v325.117187h-4.6875zm0 0" fill="none" stroke="#000" stroke-linejoin="round" stroke-miterlimit="10" stroke-width="3.98506" transform="matrix(.1 0 0 -.1 0 613.26)"/><path d="m548.621094 424.003906h.46875v-32.511718h-.46875zm0 0"/><use x="513.786" xlink:href="#R" y="461.031"/><use x="519.058284" xlink:href="#W" y="461.031"/><use x="530.793063" xlink:href="#I" y="461.031"/><use x="544.39935" xlink:href="#E" y="461.031"/><use x="564.979078" xlink:href="#J" y="461.031"/><use x="43.872" xlink:href="#ag" y="406.2365"/><use x="52.87591" xlink:href="#ag" y="391.2924"/><path d="m970.976562 1892.560938h4.6875v325.117187h-4.6875zm0 0" fill="none" stroke="#000" stroke-linejoin="round" stroke-miterlimit="10" stroke-width="3.98506" transform="matrix(.1 0 0 -.1 0 613.26)"/><path d="m97.097656 424.003906h.46875v-32.511718h-.46875zm0 0"/><use x="76.2949" xlink:href="#ab" y="461.031"/><use x="92.622657" xlink:href="#B" y="461.031"/><use x="84.75701" xlink:href="#ae" y="426.1615"/><use x="310.51901" xlink:href="#ae" y="416.199"/><use x="7.970067" xlink:href="#ah" y="416.199"/><use x="304.09792" xlink:href="#A" y="461.031"/><use x="317.703793" xlink:href="#C" y="461.031"/><path d="m2638.632812 1992.209375h4.726563v325.117188h-4.726563zm0 0" fill="none" stroke="#000" stroke-linejoin="round" stroke-miterlimit="10" stroke-width="3.98506" transform="matrix(.1 0 0 -.1 0 613.26)"/><path d="m263.863281 414.039062h.472657v-32.511718h-.472657zm0 0"/><use x="234.132" xlink:href="#B" y="461.031"/><use x="247.737873" xlink:href="#P" y="461.031"/><use x="261.344136" xlink:href="#E" y="461.031"/><use x="251.5238" xlink:href="#ae" y="416.199"/><use x="143.7518" xlink:href="#ae" y="426.1615"/><path d="m2099.765625 1942.404688h4.726563v245.859375h-4.726563zm0 0" fill="none" stroke="#000" stroke-linejoin="round" stroke-miterlimit="10" stroke-width="3.98506" transform="matrix(.1 0 0 -.1 0 613.26)"/><path d="m209.976562 419.023438h.472657v-24.589844h-.472657zm0 0"/><use x="194.108" xlink:href="#O" y="461.031"/><use x="200.570507" xlink:href="#P" y="461.031"/><use x="140.732268" xlink:href="#Q" y="461.031"/><use x="147.53579" xlink:href="#C" y="461.031"/><path d="m1560.9375 1892.560938h4.6875v275.46875h-4.6875zm0 0" fill="none" stroke="#000" stroke-linejoin="round" stroke-miterlimit="10" stroke-width="3.98506" transform="matrix(.1 0 0 -.1 0 613.26)"/><path d="m156.089844 424.003906h.472656v-27.546875h-.472656zm0 0"/><use x="197.638" xlink:href="#ae" y="421.18"/><g clip-path="url(#u)"><path d="m3.359375 675.451563h5946.054687" style="fill:none;stroke-width:6.68493;stroke-linecap:round;stroke-linejoin:round;stroke:#000;stroke-miterlimit:10" transform="matrix(.1 0 0 -.1 0 613.26)"/></g><g clip-path="url(#v)"><path d="m3.359375 775.1h5946.054687" style="fill:none;stroke-width:6.68493;stroke-linecap:round;stroke-linejoin:round;stroke:#000;stroke-miterlimit:10" transform="matrix(.1 0 0 -.1 0 613.26)"/></g><g clip-path="url(#w)"><path d="m3.359375 874.709375h5946.054687" style="fill:none;stroke-width:6.68493;stroke-linecap:round;stroke-linejoin:round;stroke:#000;stroke-miterlimit:10" transform="matrix(.1 0 0 -.1 0 613.26)"/></g><g clip-path="url(#x)"><path d="m3.359375 974.357813h5946.054687" style="fill:none;stroke-width:6.68493;stroke-linecap:round;stroke-linejoin:round;stroke:#000;stroke-miterlimit:10" transform="matrix(.1 0 0 -.1 0 613.26)"/></g><g clip-path="url(#y)"><path d="m3.359375 1073.967188h5946.054687" style="fill:none;stroke-width:6.68493;stroke-linecap:round;stroke-linejoin:round;stroke:#000;stroke-miterlimit:10" transform="matrix(.1 0 0 -.1 0 613.26)"/></g><path d="m4794.375 575.842188h178.476562" style="fill:none;stroke-width:16.6476;stroke-linecap:round;stroke-linejoin:round;stroke:#000;stroke-miterlimit:10" transform="matrix(.1 0 0 -.1 0 613.26)"/><g clip-path="url(#z)"><path d="m5932.695312 675.451563v398.515625" fill="none" stroke="#000" stroke-linejoin="round" stroke-miterlimit="10" stroke-width="40.1395" transform="matrix(.1 0 0 -.1 0 613.26)"/></g><path d="m5886.210938 675.451563v398.515625" fill="none" stroke="#000" stroke-linejoin="round" stroke-miterlimit="10" stroke-width="12.7123" transform="matrix(.1 0 0 -.1 0 613.26)"/><use x="461.743" xlink:href="#C" y="580.6823"/><use x="473.989107" xlink:href="#I" y="580.6823"/><use x="487.595394" xlink:href="#E" y="580.6823"/><use x="508.175122" xlink:href="#ad" y="580.6823"/><use x="283.306" xlink:href="#ae" y="545.7135"/><use x="488.36" xlink:href="#aj" y="502.8979"/><use x="481.8557" xlink:href="#ae" y="555.676"/><path d="m3898.476562 647.248438h4.6875v325.117187h-4.6875zm0 0" fill="none" stroke="#000" stroke-linejoin="round" stroke-miterlimit="10" stroke-width="3.98506" transform="matrix(.1 0 0 -.1 0 613.26)"/><path d="m389.847656 548.535156h.46875v-32.511718h-.46875zm0 0"/><use x="370.405" xlink:href="#F" y="580.6823"/><use x="384.010873" xlink:href="#D" y="580.6823"/><use x="377.50734" xlink:href="#ae" y="550.6948"/><path d="m2956.445312 697.053125h4.726563v275.390625h-4.726563zm0 0" fill="none" stroke="#000" stroke-linejoin="round" stroke-miterlimit="10" stroke-width="3.98506" transform="matrix(.1 0 0 -.1 0 613.26)"/><path d="m295.644531 543.554688h.472657v-27.539063h-.472657zm0 0"/><use x="265.915" xlink:href="#E" y="580.6823"/><use x="286.494704" xlink:href="#I" y="580.6823"/><use x="300.100967" xlink:href="#B" y="580.6823"/><path d="m2014.453125 1016.81875v-43.828125l946.71875-20.546875v43.828125zm0 0" fill="none" stroke="#000" stroke-linejoin="round" stroke-miterlimit="10" stroke-width="3.98506" transform="matrix(.1 0 0 -.1 0 613.26)"/><path d="m201.445312 511.578125v4.382813l94.671876 2.054687v-4.382813zm0 0"/><path d="m3390.351562 393.225h60.429688v3.320313h-60.429688zm0 0" fill="none" stroke="#000" stroke-linejoin="round" stroke-miterlimit="10" stroke-width="5.34994" transform="matrix(.1 0 0 -.1 0 613.26)"/><path d="m339.035156 573.9375h6.042969v-.332031h-6.042969zm0 0"/><path d="m4266.601562 393.225h60.429688v3.320313h-60.429688zm0 0" fill="none" stroke="#000" stroke-linejoin="round" stroke-miterlimit="10" stroke-width="5.34994" transform="matrix(.1 0 0 -.1 0 613.26)"/><path d="m426.660156 573.9375h6.042969v-.332031h-6.042969zm0 0"/><path d="m4941.953125 597.44375h4.726563v325.078125h-4.726563zm0 0" fill="none" stroke="#000" stroke-linejoin="round" stroke-miterlimit="10" stroke-width="3.98506" transform="matrix(.1 0 0 -.1 0 613.26)"/><path d="m494.195312 553.515625h.472657v-32.507813h-.472657zm0 0"/><use x="43.8727" xlink:href="#ag" y="525.7881"/><use x="52.87661" xlink:href="#ag" y="510.844"/><use x="7.97001" xlink:href="#ah" y="535.7506"/><path d="m2014.453125 746.857813h4.726563v245.976562h-4.726563zm0 0" fill="none" stroke="#000" stroke-linejoin="round" stroke-miterlimit="10" stroke-width="3.98506" transform="matrix(.1 0 0 -.1 0 613.26)"/><path d="m201.445312 538.574219h.472657v-24.597657h-.472657zm0 0"/><use x="171.629" xlink:href="#E" y="580.6823"/><use x="192.209107" xlink:href="#P" y="580.6823"/><use x="205.985292" xlink:href="#H" y="580.6823"/><use x="189.1056" xlink:href="#ae" y="540.7323"/><path d="m970.976562 796.6625h4.6875v325.117188h-4.6875zm0 0" fill="none" stroke="#000" stroke-linejoin="round" stroke-miterlimit="10" stroke-width="3.98506" transform="matrix(.1 0 0 -.1 0 613.26)"/><path d="m97.097656 533.59375h.46875v-32.511719h-.46875zm0 0"/><use x="62.348" xlink:href="#ab" y="580.6823"/><use x="78.675757" xlink:href="#L" y="580.6823"/><use x="87.519907" xlink:href="#O" y="580.6823"/><use x="94.323429" xlink:href="#C" y="580.6823"/><use x="106.569535" xlink:href="#F" y="580.6823"/><use x="84.757" xlink:href="#ae" y="535.7507"/></svg>