<svg height="484.35em" viewBox="0 0 595.28 484.35" width="595.28em" xmlns="http://www.w3.org/2000/svg" xmlns:xlink="http://www.w3.org/1999/xlink"><clipPath id="a"><path d="m0 65h595.28125v2h-595.28125zm0 0"/></clipPath><clipPath id="b"><path d="m0 55h595.28125v2h-595.28125zm0 0"/></clipPath><clipPath id="c"><path d="m0 45h595.28125v2h-595.28125zm0 0"/></clipPath><clipPath id="d"><path d="m0 36h595.28125v1h-595.28125zm0 0"/></clipPath><clipPath id="e"><path d="m0 26h595.28125v2h-595.28125zm0 0"/></clipPath><clipPath id="f"><path d="m0 181h595.28125v2h-595.28125zm0 0"/></clipPath><clipPath id="g"><path d="m0 172h595.28125v1h-595.28125zm0 0"/></clipPath><clipPath id="h"><path d="m0 162h595.28125v2h-595.28125zm0 0"/></clipPath><clipPath id="i"><path d="m0 152h595.28125v2h-595.28125zm0 0"/></clipPath><clipPath id="j"><path d="m0 143h595.28125v1h-595.28125zm0 0"/></clipPath><clipPath id="k"><path d="m0 298h595.28125v2h-595.28125zm0 0"/></clipPath><clipPath id="l"><path d="m0 288h595.28125v2h-595.28125zm0 0"/></clipPath><clipPath id="m"><path d="m0 279h595.28125v1h-595.28125zm0 0"/></clipPath><clipPath id="n"><path d="m0 269h595.28125v2h-595.28125zm0 0"/></clipPath><clipPath id="o"><path d="m0 259h595.28125v2h-595.28125zm0 0"/></clipPath><clipPath id="p"><path d="m0 415h595.28125v1h-595.28125zm0 0"/></clipPath><clipPath id="q"><path d="m0 405h595.28125v2h-595.28125zm0 0"/></clipPath><clipPath id="r"><path d="m0 395h595.28125v2h-595.28125zm0 0"/></clipPath><clipPath id="s"><path d="m0 385h595.28125v2h-595.28125zm0 0"/></clipPath><clipPath id="t"><path d="m0 376h595.28125v1h-595.28125zm0 0"/></clipPath><clipPath id="u"><path d="m591 374h4.28125v44h-4.28125zm0 0"/></clipPath><symbol id="v" overflow="visible"><path d="m3.671875 0v-12.5625h-2v12.5625zm.265625-14.46875v-2.484375h-2.5v2.484375zm0 0"/></symbol><symbol id="w" overflow="visible"><path d="m12.046875 0-5.140625-8.234375 4.359375-4.328125h-2.5625l-5.328125 5.3125v-10.234375h-1.984375v17.484375h1.984375v-4.890625l1.953125-1.921875 4.234375 6.8125zm0 0"/></symbol><symbol id="x" overflow="visible"><path d="m18.234375 0v-9.421875c0-2.265625-1.25-3.5-3.609375-3.5-1.671875 0-2.6875.5-3.859375 1.90625-.734375-1.34375-1.75-1.90625-3.375-1.90625-1.6875 0-2.78125.625-3.859375 2.125v-1.765625h-1.828125v12.5625h1.984375v-7.890625c0-1.828125 1.328125-3.28125 2.953125-3.28125 1.484375 0 2.328125.90625 2.328125 2.515625v8.65625h1.984375v-7.890625c0-1.828125 1.34375-3.28125 2.984375-3.28125 1.453125 0 2.296875.9375 2.296875 2.515625v8.65625zm0 0"/></symbol><symbol id="y" overflow="visible"><path d="m12.296875-5.703125c0-1.828125-.140625-2.984375-.5-3.921875-.8125-2.0625-2.734375-3.296875-5.078125-3.296875-3.5 0-5.765625 2.578125-5.765625 6.703125s2.1875 6.578125 5.71875 6.578125c2.875 0 4.859375-1.625 5.375-4.171875h-2.015625c-.5625 1.65625-1.6875 2.328125-3.296875 2.328125-2.078125 0-3.640625-1.34375-3.6875-4.21875zm-2.125-1.78125s0 .09375-.03125.140625h-7.046875c.171875-2.21875 1.578125-3.734375 3.59375-3.734375 1.96875 0 3.484375 1.625 3.484375 3.59375zm0 0"/></symbol><symbol id="z" overflow="visible"><path d="m11.6875 0v-9.5c0-2.078125-1.5625-3.421875-3.984375-3.421875-1.875 0-3.078125.71875-4.171875 2.46875v-2.109375h-1.859375v12.5625h2v-6.9375c0-2.5625 1.390625-4.234375 3.421875-4.234375 1.59375 0 2.59375.953125 2.59375 2.46875v8.703125zm0 0"/></symbol><symbol id="A" overflow="visible"><path d="m11.46875-12.5625h-2.15625l-3.484375 9.78125-3.21875-9.78125h-2.125l4.234375 12.609375-.765625 1.984375c-.328125.890625-.734375 1.234375-1.609375 1.234375-.28125 0-.609375-.046875-1.046875-.140625v1.796875c.40625.203125.8125.3125 1.34375.3125 1.40625 0 2.5625-.796875 3.234375-2.59375zm0 0"/></symbol><symbol id="B" overflow="visible"><path d="m6.8125-5.75v-1.734375h-5.703125v1.734375zm0 0"/></symbol><symbol id="C" overflow="visible"><path d="m7.703125-10.8125v-2.046875c-.34375-.046875-.5-.0625-.765625-.0625-1.296875 0-2.28125.765625-3.4375 2.625v-2.265625h-1.828125v12.5625h2v-6.53125c0-2.828125.9375-4.234375 4.03125-4.28125zm0 0"/></symbol><symbol id="D" overflow="visible"><path d="m12.828125-.046875v-1.515625c-.21875.046875-.3125.046875-.421875.046875-.703125 0-1.078125-.359375-1.078125-.984375v-7c0-2.234375-1.640625-3.421875-4.734375-3.421875-3.046875 0-4.921875 1.171875-5.03125 4.078125h2.015625c.15625-1.546875 1.078125-2.234375 2.953125-2.234375 1.796875 0 2.796875.671875 2.796875 1.875v.515625c0 .84375-.5 1.203125-2.078125 1.390625-2.84375.359375-3.265625.46875-4.03125.765625-1.46875.609375-2.21875 1.734375-2.21875 3.265625 0 2.28125 1.59375 3.625 4.125 3.625 1.609375 0 3.171875-.671875 4.28125-1.84375.21875.953125 1.078125 1.65625 2.0625 1.65625.40625 0 .71875-.046875 1.359375-.21875zm-3.5-4.296875c0 1.796875-1.828125 2.953125-3.765625 2.953125-1.5625 0-2.46875-.546875-2.46875-1.921875 0-1.3125.890625-1.890625 3.015625-2.203125 2.125-.28125 2.546875-.390625 3.21875-.703125zm1.5625-13.140625h-2.71875l-2.296875 3.546875h1.4375zm0 0"/></symbol><symbol id="E" overflow="visible"><path d="m3.625 0v-17.484375h-2v17.484375zm0 0"/></symbol><symbol id="F" overflow="visible"><path d="m4.609375.390625v-2.890625h-2.515625v2.5h1.4375v.4375c0 1.65625-.3125 2.125-1.4375 2.171875v.921875c1.671875 0 2.515625-1.078125 2.515625-3.140625zm0 0"/></symbol><symbol id="G" overflow="visible"><path d="m11.5625 0v-12.5625h-2v6.921875c0 2.578125-1.328125 4.25-3.421875 4.25-1.578125 0-2.59375-.953125-2.59375-2.46875v-8.703125h-1.984375v9.5c0 2.078125 1.5625 3.421875 4 3.421875 1.84375 0 3.03125-.640625 4.203125-2.296875v1.9375zm-5.765625-14.484375v-2.453125h-2.171875v2.453125zm3.890625 0v-2.453125h-2.1875v2.453125zm0 0"/></symbol><symbol id="H" overflow="visible"><path d="m15.5 0v-17.484375h-2.109375v14.296875l-9.140625-14.296875h-2.421875v17.484375h2.109375v-14.171875l9.03125 14.171875zm0 0"/></symbol><symbol id="I" overflow="visible"><path d="m12.296875-5.703125c0-1.828125-.140625-2.984375-.5-3.921875-.8125-2.0625-2.734375-3.296875-5.078125-3.296875-3.5 0-5.765625 2.578125-5.765625 6.703125s2.1875 6.578125 5.71875 6.578125c2.875 0 4.859375-1.625 5.375-4.171875h-2.015625c-.5625 1.65625-1.6875 2.328125-3.296875 2.328125-2.078125 0-3.640625-1.34375-3.6875-4.21875zm-2.125-1.78125s0 .09375-.03125.140625h-7.046875c.171875-2.21875 1.578125-3.734375 3.59375-3.734375 1.96875 0 3.484375 1.625 3.484375 3.59375zm.84375-10h-2.71875l-2.296875 3.546875h1.4375zm0 0"/></symbol><symbol id="J" overflow="visible"><path d="m11.015625-3.53125c0-1.859375-1.0625-2.796875-3.5625-3.40625l-1.90625-.453125c-1.640625-.375-2.328125-.90625-2.328125-1.796875 0-1.15625 1.03125-1.890625 2.65625-1.890625 1.609375 0 2.46875.6875 2.515625 2.015625h2.109375c-.015625-2.46875-1.65625-3.859375-4.546875-3.859375-2.9375 0-4.828125 1.5-4.828125 3.828125 0 1.96875 1.015625 2.90625 3.984375 3.625l1.875.453125c1.390625.34375 1.9375.75 1.9375 1.65625 0 1.171875-1.171875 1.875-2.921875 1.875-1.796875 0-2.8125-.4375-3.078125-2.359375h-2.109375c.09375 2.90625 1.734375 4.203125 5.015625 4.203125 3.171875 0 5.1875-1.46875 5.1875-3.890625zm0 0"/></symbol><symbol id="K" overflow="visible"><path d="m10.953125 0v-1.75h-7.78125l7.453125-9.046875v-1.765625h-9.375v1.75h7l-7.5 9.015625v1.796875zm0 0"/></symbol><symbol id="L" overflow="visible"><path d="m6.09375 0v-1.671875c-.265625.0625-.578125.09375-.96875.09375-.859375 0-1.09375-.25-1.09375-1.125v-8.234375h2.0625v-1.625h-2.0625v-3.453125h-2v3.453125h-1.703125v1.625h1.703125v9.109375c0 1.28125.875 2 2.4375 2 .46875 0 .953125-.046875 1.625-.171875zm0 0"/></symbol><symbol id="M" overflow="visible"><path d="m12.828125-.046875v-1.515625c-.21875.046875-.3125.046875-.421875.046875-.703125 0-1.078125-.359375-1.078125-.984375v-7c0-2.234375-1.640625-3.421875-4.734375-3.421875-3.046875 0-4.921875 1.171875-5.03125 4.078125h2.015625c.15625-1.546875 1.078125-2.234375 2.953125-2.234375 1.796875 0 2.796875.671875 2.796875 1.875v.515625c0 .84375-.5 1.203125-2.078125 1.390625-2.84375.359375-3.265625.46875-4.03125.765625-1.46875.609375-2.21875 1.734375-2.21875 3.265625 0 2.28125 1.59375 3.625 4.125 3.625 1.609375 0 3.171875-.671875 4.28125-1.84375.21875.953125 1.078125 1.65625 2.0625 1.65625.40625 0 .71875-.046875 1.359375-.21875zm-3.5-4.296875c0 1.796875-1.828125 2.953125-3.765625 2.953125-1.5625 0-2.46875-.546875-2.46875-1.921875 0-1.3125.890625-1.890625 3.015625-2.203125 2.125-.28125 2.546875-.390625 3.21875-.703125zm0 0"/></symbol><symbol id="N" overflow="visible"><path d="m12.234375-6.1875c0-4.34375-2.09375-6.734375-5.703125-6.734375-3.53125 0-5.671875 2.421875-5.671875 6.640625s2.109375 6.640625 5.6875 6.640625c3.53125 0 5.6875-2.421875 5.6875-6.546875zm-2.09375-.03125c0 2.953125-1.390625 4.734375-3.59375 4.734375-2.234375 0-3.59375-1.75-3.59375-4.796875 0-3.03125 1.359375-4.796875 3.59375-4.796875 2.25 0 3.59375 1.75 3.59375 4.859375zm0 0"/></symbol><symbol id="O" overflow="visible"><path d="m11.875 0v-17.484375h-2v6.5c-.828125-1.265625-2.171875-1.9375-3.859375-1.9375-3.25 0-5.390625 2.515625-5.390625 6.515625 0 4.25 2.078125 6.765625 5.46875 6.765625 1.71875 0 2.921875-.640625 4-2.203125v1.84375zm-2-6.234375c0 2.90625-1.390625 4.71875-3.5 4.71875-2.203125 0-3.671875-1.84375-3.671875-4.765625s1.46875-4.78125 3.65625-4.78125c2.15625 0 3.515625 1.921875 3.515625 4.828125zm0 0"/></symbol><symbol id="P" overflow="visible"><path d="m11.734375-2.0625v-10.5h-1.859375v1.8125c-1-1.484375-2.21875-2.171875-3.828125-2.171875-3.1875 0-5.34375 2.6875-5.34375 6.765625 0 3.953125 2.21875 6.515625 5.171875 6.515625 1.578125 0 2.6875-.671875 4-2.25v.828125c0 3.34375-1.359375 4.609375-3.6875 4.609375-1.578125 0-2.8125-.578125-3.046875-2.109375h-2.03125c.203125 2.375 2.0625 3.796875 5 3.796875 3.9375 0 5.625-1.75 5.625-7.296875zm-2.046875-4.15625c0 3-1.296875 4.734375-3.40625 4.734375-2.1875 0-3.5-1.75-3.5-4.796875 0-3.03125 1.34375-4.796875 3.484375-4.796875 2.15625 0 3.421875 1.8125 3.421875 4.859375zm0 0"/></symbol><symbol id="Q" overflow="visible"><path d="m4.578125 0v-2.5h-2.484375v2.5zm0-10.078125v-2.484375h-2.484375v2.484375zm0 0"/></symbol><symbol id="R" overflow="visible"><path d="m11.65625-12.5625h-2.25l-3.546875 10.1875-3.359375-10.1875h-2.265625l4.421875 12.5625h2.171875zm0 0"/></symbol><symbol id="S" overflow="visible"><path d="m4.625 0v-17.484375h-2.21875v17.484375zm0 0"/></symbol><symbol id="T" overflow="visible"><path d="m12.234375-6.1875c0-4.34375-2.09375-6.734375-5.703125-6.734375-3.53125 0-5.671875 2.421875-5.671875 6.640625s2.109375 6.640625 5.6875 6.640625c3.53125 0 5.6875-2.421875 5.6875-6.546875zm-2.09375-.03125c0 2.953125-1.390625 4.734375-3.59375 4.734375-2.234375 0-3.59375-1.75-3.59375-4.796875 0-3.03125 1.359375-4.796875 3.59375-4.796875 2.25 0 3.59375 1.75 3.59375 4.859375zm-1.390625-11.296875h-2.703125l-2.3125 3.609375h1.453125zm3.9375 0h-2.703125l-2.3125 3.609375h1.4375zm0 0"/></symbol><symbol id="U" overflow="visible"><path d="m4.34375 0v-12.5625h-2v12.5625zm3.046875-17.484375h-2.71875l-2.296875 3.546875h1.4375zm0 0"/></symbol><symbol id="V" overflow="visible"><path d="m12.546875-6.421875c0-4.078125-2.0625-6.5-5.375-6.5-1.734375 0-2.953125.640625-3.890625 2.0625v-6.625h-1.984375v17.484375h1.796875v-1.796875c.953125 1.46875 2.234375 2.15625 3.984375 2.15625 3.3125 0 5.46875-2.703125 5.46875-6.78125zm-2.09375.109375c0 2.859375-1.484375 4.796875-3.671875 4.796875-2.109375 0-3.5-1.921875-3.5-4.765625 0-2.953125 1.390625-4.875 3.5-4.78125 2.234375 0 3.671875 1.953125 3.671875 4.75zm0 0"/></symbol><symbol id="W" overflow="visible"><path d="m3.671875 2.609375v-15.171875h-2v14.390625c0 1.1875-.40625 1.71875-1.625 1.65625l-.484375-.03125v1.703125c.25.046875.359375.078125.671875.078125 2.265625 0 3.4375-.921875 3.4375-2.625zm.265625-17.078125v-2.484375h-2.5v2.484375zm0 0"/></symbol><symbol id="X" overflow="visible"><path d="m11.5625 0v-12.5625h-2v6.921875c0 2.578125-1.328125 4.25-3.421875 4.25-1.578125 0-2.59375-.953125-2.59375-2.46875v-8.703125h-1.984375v9.5c0 2.078125 1.5625 3.421875 4 3.421875 1.84375 0 3.03125-.640625 4.203125-2.296875v1.9375zm0 0"/></symbol><symbol id="Y" overflow="visible"><path d="m15.46875-5.328125v-12.15625h-2.234375v12.15625c0 2.359375-1.703125 3.796875-4.5 3.796875-2.625 0-4.46875-1.25-4.46875-3.796875v-12.15625h-2.234375v12.15625c0 3.546875 2.546875 5.765625 6.703125 5.765625 4.09375 0 6.734375-2.265625 6.734375-5.765625zm-1.65625-16.640625h-3.265625l-2.75 3.1875h1.71875zm0 0"/></symbol><symbol id="Z" overflow="visible"><path d="m4.34375-9.375v-8.109375h-2v8.109375l.53125 5.34375h.9375zm0 9.375v-2.5h-2.015625v2.5zm0 0"/></symbol><symbol id="aa" overflow="visible"><path d="m14.890625-4.796875c0-2.15625-1.34375-3.734375-3.71875-4.390625l-4.390625-1.171875c-2.109375-.546875-2.875-1.25-2.875-2.59375 0-1.765625 1.5625-3.09375 3.90625-3.09375 2.78125 0 4.375 1.265625 4.375 3.546875h2.109375c0-3.421875-2.375-5.421875-6.40625-5.421875-3.84375 0-6.21875 2.109375-6.21875 5.28125 0 2.140625 1.140625 3.484375 3.4375 4.078125l4.34375 1.15625c2.203125.578125 3.203125 1.453125 3.203125 2.828125 0 1.921875-1.4375 3.046875-4.453125 3.046875-3.3125 0-4.9375-1.65625-4.9375-4.15625h-2.109375c0 4.125 2.78125 6.125 6.90625 6.125 4.4375 0 6.828125-2.109375 6.828125-5.234375zm0 0"/></symbol><symbol id="ab" overflow="visible"><path d="m10.21875-4.484375v-13h-2.234375v12.1875c0 2.875-.984375 3.859375-2.6875 3.859375-1.671875 0-2.609375-1.125-2.609375-3.171875v-1h-2.234375v1.40625c0 2.84375 1.78125 4.640625 4.828125 4.640625s4.9375-1.90625 4.9375-4.921875zm0 0"/></symbol><symbol id="ac" overflow="visible"><path d="m8.625-5.25c-1.625 0-3.1875.546875-4.578125 1.40625-1.828125 1.078125-4.046875 2.984375-4.046875 5.75 0 2.296875 2.015625 3.34375 4.078125 3.34375 1.640625 0 3.1875-.546875 4.59375-1.40625 1.8125-1.078125 4-2.984375 4-5.75 0-2.296875-1.984375-3.34375-4.046875-3.34375zm0 0"/></symbol><symbol id="ad" overflow="visible"><path d="m5.515625 0c.15625 0 .3125-.15625.3125-.3125v-9.09375c0-.15625-.15625-.3125-.3125-.3125h-5.203125c-.15625 0-.3125.15625-.3125.3125v9.09375c0 .15625.15625.3125.3125.3125zm0 0"/></symbol><symbol id="ae" overflow="visible"><path d="m14.53125-10.109375c-.625-2.71875-1.359375-5.390625-2.140625-8.078125 3.734375-4.234375 7.109375-8.59375 7.109375-14.1875 0-4.390625-2.40625-10.6875-5.125-13.953125-.1875-.140625-.421875-.140625-.625 0-3.6875 2.6875-5.828125 6.96875-5.828125 11.46875 0 2.015625.046875 4 .28125 5.984375.265625 2.53125.921875 4.96875 1.625 7.421875-4.578125 5.203125-9.75 10.1875-9.75 17.09375 0 7.8125 5.640625 14.46875 12.9375 14.46875 1.203125 0 2.328125-.125 3.453125-.3125.125 1.234375.203125 2.484375.203125 3.71875 0 .703125-.046875 1.375-.078125 2.0625-.234375 3.84375-2.609375 7.390625-6.21875 7.46875-.03125 0-.078125.03125-.109375.03125-1.984375 0-3.703125-1.125-4.703125-2.71875.421875.203125.890625.359375 1.359375.359375 2.015625 0 3.6875-1.671875 3.6875-3.703125 0-2.171875-1.59375-4.03125-3.6875-4.03125-2.296875 0-4.359375 1.78125-4.359375 4.03125 0 4.203125 3.390625 7.578125 7.578125 7.578125 4.59375 0 7.734375-4.109375 8-8.78125.046875-.734375.046875-1.4375.046875-2.171875 0-1.40625-.078125-2.796875-.203125-4.203125 1.015625-.3125 1.984375-.765625 2.84375-1.4375 2.875-2.125 4.15625-5.125 4.15625-8.078125 0-5.125-3.890625-10.0625-9.875-10.0625-.1875 0-.375.03125-.578125.03125zm3.3125 18.078125c-.546875-4.828125-1.4375-9.40625-2.421875-13.953125 4.28125.34375 6.96875 3.921875 6.96875 7.5 0 2.71875-1.875 5.515625-4.546875 6.453125zm-15.078125-9.171875c0-6.21875 4.1875-10.921875 8.390625-15.625.625 2.296875 1.234375 4.59375 1.78125 6.921875-3.921875.890625-6.140625 4.1875-6.140625 7.609375 0 2.71875 1.40625 5.484375 4.515625 7.15625.109375.03125.234375.078125.34375.078125.421875 0 .78125-.390625.78125-.8125 0-.203125-.125-.390625-.28125-.546875-2.171875-1.25-3.1875-3.109375-3.1875-4.828125 0-2.28125 1.796875-4.34375 4.859375-4.703125 1.015625 4.671875 1.90625 9.296875 2.5 14.265625-1.0625.15625-2.109375.234375-3.1875.234375-5.296875 0-10.375-4.46875-10.375-9.75zm13.203125-39.59375c.65625 2.046875.8125 3.0625.8125 5.3125 0 4.9375-2.59375 8.859375-5.78125 12.640625-.703125-2.453125-1.28125-4.828125-1.28125-7.78125 0-4.3125 2.40625-8.234375 6.25-10.171875zm0 0"/></symbol><symbol id="af" overflow="visible"><path d="m5.515625 9.71875c.15625 0 .3125-.15625.3125-.3125v-18.8125c0-.15625-.15625-.3125-.3125-.3125h-5.203125c-.15625 0-.3125.15625-.3125.3125v18.8125c0 .15625.15625.3125.3125.3125zm0 0"/></symbol><symbol id="ag" overflow="visible"><path d="m-2.453125-1.828125c0 1.359375 1.09375 2.453125 2.453125 2.453125s2.453125-1.09375 2.453125-2.453125-1.09375-2.453125-2.453125-2.453125-2.453125 1.09375-2.453125 2.453125zm2.453125-12.15625c-6.015625 0-12.78125 6.71875-12.78125 14.0625 0 .3125.3125.546875.625.546875.265625 0 .578125-.203125.65625-.625 1.015625-5.796875 5.703125-10.296875 11.5-10.296875s10.484375 4.5 11.5 10.296875c.078125.421875.390625.625.65625.625.3125 0 .625-.234375.625-.546875 0-7.34375-6.71875-14.0625-12.78125-14.0625zm0 0"/></symbol><symbol id="ah" overflow="visible"><path d="m8.078125 0v-15.15625h-1.984375c-.46875 1.796875-2.03125 2.71875-4.640625 2.71875v1.984375h3.640625v10.453125zm0 0"/></symbol><symbol id="ai" overflow="visible"><path d="m4.578125 0v-3.125h-3.203125v3.125zm0 0"/></symbol><g clip-path="url(#a)"><path d="m5.533854 6977.317708h9910.221354" fill="none" stroke="#000" stroke-linecap="round" stroke-miterlimit="10" stroke-width="11.0087" transform="matrix(.06 0 0 -.06 0 484.35)"/></g><g clip-path="url(#b)"><path d="m5.533854 7139.231771h9910.221354" fill="none" stroke="#000" stroke-linecap="round" stroke-miterlimit="10" stroke-width="11.0087" transform="matrix(.06 0 0 -.06 0 484.35)"/></g><g clip-path="url(#c)"><path d="m5.533854 7301.080729h9910.221354" fill="none" stroke="#000" stroke-linecap="round" stroke-miterlimit="10" stroke-width="11.0087" transform="matrix(.06 0 0 -.06 0 484.35)"/></g><g clip-path="url(#d)"><path d="m5.533854 7462.994792h9910.221354" fill="none" stroke="#000" stroke-linecap="round" stroke-miterlimit="10" stroke-width="11.0087" transform="matrix(.06 0 0 -.06 0 484.35)"/></g><g clip-path="url(#e)"><path d="m5.533854 7624.908854h9910.221354" fill="none" stroke="#000" stroke-linecap="round" stroke-miterlimit="10" stroke-width="11.0087" transform="matrix(.06 0 0 -.06 0 484.35)"/></g><use x="451.942904" xlink:href="#v" y="100.359232"/><path d="m7671.028646 7255.3125h7.617187v494.791667h-7.617187zm0 0" style="fill:none;stroke-width:6.63761;stroke-linecap:round;stroke-linejoin:round;stroke:#000;stroke-miterlimit:10" transform="matrix(.06 0 0 -.06 0 484.35)"/><path d="m460.261719 49.03125h.457031v-29.6875h-.457031zm0 0"/><use x="495.795992" xlink:href="#ac" y="51.140134"/><use x="493.463717" xlink:href="#w" y="100.358932"/><use x="505.539667" xlink:href="#v" y="100.358932"/><path d="m8463.671875 7255.3125h7.682292v494.791667h-7.682292zm0 0" style="fill:none;stroke-width:6.63761;stroke-linecap:round;stroke-linejoin:round;stroke:#000;stroke-miterlimit:10" transform="matrix(.06 0 0 -.06 0 484.35)"/><path d="m507.820312 49.03125h.460938v-29.6875h-.460938zm0 0"/><use x="304.603609" xlink:href="#x" y="100.359232"/><use x="324.502753" xlink:href="#y" y="100.359232"/><use x="337.76861" xlink:href="#z" y="100.359232"/><use x="350.694387" xlink:href="#A" y="100.359232"/><use x="362.259398" xlink:href="#B" y="100.359232"/><use x="448.235896" xlink:href="#ac" y="51.140434"/><path d="m6837.890625 6931.549479h7.617187v494.726563h-7.617187zm0 0" style="fill:none;stroke-width:6.63761;stroke-linecap:round;stroke-linejoin:round;stroke:#000;stroke-miterlimit:10" transform="matrix(.06 0 0 -.06 0 484.35)"/><path d="m410.269531 68.457031h.460938v-29.683593h-.460938zm0 0"/><use x="385.795772" xlink:href="#z" y="100.359232"/><use x="398.721549" xlink:href="#A" y="100.359232"/><use x="410.116639" xlink:href="#y" y="100.359232"/><use x="398.247696" xlink:href="#ac" y="70.567572"/><path d="m5718.489583 6931.549479h7.682292v494.726563h-7.682292zm0 0" style="fill:none;stroke-width:6.63761;stroke-linecap:round;stroke-linejoin:round;stroke:#000;stroke-miterlimit:10" transform="matrix(.06 0 0 -.06 0 484.35)"/><path d="m343.109375 68.457031h.460937v-29.683593h-.460937zm0 0"/><path d="m1380.273437 6509.479167h98.046875v5.46875h-98.046875zm0 0" style="fill:none;stroke-width:8.80697;stroke-linecap:round;stroke-linejoin:round;stroke:#000;stroke-miterlimit:10" transform="matrix(.06 0 0 -.06 0 484.35)"/><path d="m82.816406 93.78125h5.882813v-.328125h-5.882813zm0 0"/><path d="m3063.411458 7498.541667v-71.09375l800.390625 33.333333v71.09375zm0 0" fill="none" stroke="#000" stroke-linejoin="round" stroke-miterlimit="10" stroke-width="6.63761" transform="matrix(.06 0 0 -.06 0 484.35)"/><path d="m183.804688 34.4375v4.265625l48.023437-2v-4.265625zm0 0"/><path d="m3394.726562 6509.479167h98.046875v5.46875h-98.046875zm0 0" fill="none" stroke="#000" stroke-linejoin="round" stroke-miterlimit="10" stroke-width="8.80697" transform="matrix(.06 0 0 -.06 0 484.35)"/><path d="m203.683594 93.78125h5.878906v-.328125h-5.878906zm0 0"/><path d="m4054.166667 6509.479167h98.046875v5.46875h-98.046875zm0 0" fill="none" stroke="#000" stroke-linejoin="round" stroke-miterlimit="10" stroke-width="8.80697" transform="matrix(.06 0 0 -.06 0 484.35)"/><path d="m243.25 93.78125h5.878906v-.328125h-5.878906zm0 0"/><path d="m5718.489583 7394.114583h1127.018229v71.028646h-1127.018229zm0 0" fill="none" stroke="#000" stroke-linejoin="round" stroke-miterlimit="10" stroke-width="6.63761" transform="matrix(.06 0 0 -.06 0 484.35)"/><path d="m343.109375 40.703125h67.621094v-4.261719h-67.621094zm0 0"/><path d="m7245.3125 6509.479167h98.046875v5.46875h-98.046875zm0 0" fill="none" stroke="#000" stroke-linejoin="round" stroke-miterlimit="10" stroke-width="8.80697" transform="matrix(.06 0 0 -.06 0 484.35)"/><path d="m434.71875 93.78125h5.882812v-.328125h-5.882812zm0 0"/><path d="m7671.028646 7788.971354v-71.09375h800.325521v71.09375zm0 0" fill="none" stroke="#000" stroke-linejoin="round" stroke-miterlimit="10" stroke-width="6.63761" transform="matrix(.06 0 0 -.06 0 484.35)"/><path d="m460.261719 17.011719v4.265625h48.019531v-4.265625zm0 0"/><path d="m8607.8125 6509.479167h98.046875v5.46875h-98.046875zm0 0" fill="none" stroke="#000" stroke-linejoin="round" stroke-miterlimit="10" stroke-width="8.80697" transform="matrix(.06 0 0 -.06 0 484.35)"/><path d="m516.46875 93.78125h5.882812v-.328125h-5.882812zm0 0"/><use x="543.357087" xlink:href="#ac" y="55.997143"/><use x="580.706961" xlink:href="#ad" y="36.570004"/><path d="m9256.315104 7174.388021h7.682292v528.125h-7.682292zm0 0" fill="none" stroke="#000" stroke-linejoin="round" stroke-miterlimit="10" stroke-width="6.63761" transform="matrix(.06 0 0 -.06 0 484.35)"/><path d="m555.378906 53.886719h.460938v-31.6875h-.460938zm0 0"/><use x="528.013056" xlink:href="#C" y="100.359232"/><use x="535.836279" xlink:href="#D" y="100.359232"/><use x="549.102136" xlink:href="#E" y="100.359232"/><use x="554.374884" xlink:href="#A" y="100.359232"/><use x="564.749738" xlink:href="#F" y="100.359232"/><use x="331.086662" xlink:href="#ac" y="70.567572"/><path d="m2073.046875 6931.549479h7.682292v528.125h-7.682292zm0 0" fill="none" stroke="#000" stroke-linejoin="round" stroke-miterlimit="10" stroke-width="6.63761" transform="matrix(.06 0 0 -.06 0 484.35)"/><path d="m124.382812 68.457031h.460938v-31.6875h-.460938zm0 0"/><use x="93.529187" xlink:href="#w" y="100.359232"/><use x="105.264356" xlink:href="#G" y="100.359232"/><use x="118.530227" xlink:href="#z" y="100.359232"/><use x="131.795864" xlink:href="#w" y="100.359232"/><use x="112.359125" xlink:href="#ac" y="70.567572"/><path d="m1139.388021 6931.549479h7.682291v528.125h-7.682291zm0 0" fill="none" stroke="#000" stroke-linejoin="round" stroke-miterlimit="10" stroke-width="6.63761" transform="matrix(.06 0 0 -.06 0 484.35)"/><path d="m68.363281 68.457031h.460938v-31.6875h-.460938zm0 0"/><use x="19.80214" xlink:href="#ah" y="100.359232"/><use x="31.708193" xlink:href="#ai" y="100.359232"/><use x="47.374095" xlink:href="#H" y="100.359232"/><use x="64.722544" xlink:href="#I" y="100.359232"/><use x="7.771016" xlink:href="#ae" y="55.997143"/><use x="56.339013" xlink:href="#ac" y="70.567572"/><use x="159.415219" xlink:href="#J" y="100.359232"/><use x="171.491169" xlink:href="#K" y="100.359232"/><use x="183.567119" xlink:href="#G" y="100.359232"/><path d="m4648.763021 7012.473958h7.682291v528.125h-7.682291zm0 0" fill="none" stroke="#000" stroke-linejoin="round" stroke-miterlimit="10" stroke-width="6.63761" transform="matrix(.06 0 0 -.06 0 484.35)"/><path d="m278.925781 63.601562h.460938v-31.6875h-.460938zm0 0"/><use x="257.426515" xlink:href="#L" y="100.359232"/><use x="263.719014" xlink:href="#I" y="100.359232"/><use x="276.984636" xlink:href="#w" y="100.359232"/><use x="266.902084" xlink:href="#ac" y="65.710763"/><path d="m3856.119792 7093.398437h7.617187v399.283855h-7.617187zm0 0" fill="none" stroke="#000" stroke-linejoin="round" stroke-miterlimit="10" stroke-width="6.63761" transform="matrix(.06 0 0 -.06 0 484.35)"/><path d="m231.367188 58.746094h.457031v-23.957032h-.457031zm0 0"/><use x="216.415433" xlink:href="#E" y="100.359232"/><use x="221.687932" xlink:href="#y" y="100.359232"/><use x="219.342079" xlink:href="#ac" y="60.854053"/><path d="m3063.411458 7012.473958h7.682292v447.460938h-7.682292zm0 0" fill="none" stroke="#000" stroke-linejoin="round" stroke-miterlimit="10" stroke-width="6.63761" transform="matrix(.06 0 0 -.06 0 484.35)"/><path d="m183.804688 63.601562h.460937v-26.847656h-.460937zm0 0"/><use x="171.782344" xlink:href="#ac" y="65.710163"/><g clip-path="url(#f)"><path d="m5.533854 5034.609375h9910.221354" style="fill:none;stroke-width:11.0087;stroke-linecap:round;stroke-linejoin:round;stroke:#000;stroke-miterlimit:10" transform="matrix(.06 0 0 -.06 0 484.35)"/></g><g clip-path="url(#g)"><path d="m5.533854 5196.458333h9910.221354" style="fill:none;stroke-width:11.0087;stroke-linecap:round;stroke-linejoin:round;stroke:#000;stroke-miterlimit:10" transform="matrix(.06 0 0 -.06 0 484.35)"/></g><g clip-path="url(#h)"><path d="m5.533854 5358.372396h9910.221354" style="fill:none;stroke-width:11.0087;stroke-linecap:round;stroke-linejoin:round;stroke:#000;stroke-miterlimit:10" transform="matrix(.06 0 0 -.06 0 484.35)"/></g><g clip-path="url(#i)"><path d="m5.533854 5520.286458h9910.221354" style="fill:none;stroke-width:11.0087;stroke-linecap:round;stroke-linejoin:round;stroke:#000;stroke-miterlimit:10" transform="matrix(.06 0 0 -.06 0 484.35)"/></g><g clip-path="url(#j)"><path d="m5.533854 5682.200521h9910.221354" style="fill:none;stroke-width:11.0087;stroke-linecap:round;stroke-linejoin:round;stroke:#000;stroke-miterlimit:10" transform="matrix(.06 0 0 -.06 0 484.35)"/></g><path d="m4350.195312 4872.695312h289.908855" style="fill:none;stroke-width:27.198;stroke-linecap:round;stroke-linejoin:round;stroke:#000;stroke-miterlimit:10" transform="matrix(.06 0 0 -.06 0 484.35)"/><use x="428.297857" xlink:href="#M" y="216.271464"/><use x="441.563479" xlink:href="#K" y="216.271464"/><path d="m7444.205729 5150.690104h7.617188v495.052084h-7.617188zm0 0" fill="none" stroke="#000" stroke-linejoin="round" stroke-miterlimit="10" stroke-width="6.63761" transform="matrix(.06 0 0 -.06 0 484.35)"/><path d="m446.648438 175.308594h.460937v-29.703125h-.460937zm0 0"/><use x="485.650971" xlink:href="#ac" y="172.560376"/><use x="478.727047" xlink:href="#M" y="216.271664"/><use x="491.992904" xlink:href="#z" y="216.271664"/><path d="m8294.596354 5231.679688h7.617188v446.875h-7.617188zm0 0" fill="none" stroke="#000" stroke-linejoin="round" stroke-miterlimit="10" stroke-width="6.63761" transform="matrix(.06 0 0 -.06 0 484.35)"/><path d="m497.675781 170.449219h.457031v-26.8125h-.457031zm0 0"/><use x="319.183638" xlink:href="#ac" y="187.130406"/><use x="434.625869" xlink:href="#ac" y="177.416946"/><path d="m6476.497396 5069.765625h7.682291v446.940104h-7.682291zm0 0" fill="none" stroke="#000" stroke-linejoin="round" stroke-miterlimit="10" stroke-width="6.63761" transform="matrix(.06 0 0 -.06 0 484.35)"/><path d="m388.589844 180.164062h.460937v-26.816406h-.460937zm0 0"/><use x="353.057706" xlink:href="#x" y="216.271464"/><use x="372.95685" xlink:href="#N" y="216.271464"/><use x="386.222707" xlink:href="#z" y="216.271464"/><use x="399.488563" xlink:href="#O" y="216.271464"/><use x="376.564653" xlink:href="#ac" y="182.273896"/><path d="m5520.117187 4988.841146h7.682292v494.986979h-7.682292zm0 0" fill="none" stroke="#000" stroke-linejoin="round" stroke-miterlimit="10" stroke-width="6.63761" transform="matrix(.06 0 0 -.06 0 484.35)"/><path d="m331.207031 185.019531h.460938v-29.699219h-.460938zm0 0"/><use x="313.535627" xlink:href="#w" y="216.271464"/><use x="325.611577" xlink:href="#v" y="216.271464"/><use x="330.884091" xlink:href="#L" y="216.271464"/><path d="m1369.791667 4577.578125h98.046875v5.533854h-98.046875zm0 0" fill="none" stroke="#000" stroke-linejoin="round" stroke-miterlimit="10" stroke-width="8.80697" transform="matrix(.06 0 0 -.06 0 484.35)"/><path d="m82.1875 209.695312h5.882812v-.332031h-5.882812zm0 0"/><path d="m1999.21875 5717.682292v-71.028646l858.072917-33.398438v71.09375zm0 0" fill="none" stroke="#000" stroke-linejoin="round" stroke-miterlimit="10" stroke-width="6.63761" transform="matrix(.06 0 0 -.06 0 484.35)"/><path d="m119.953125 141.289062v4.261719l51.484375 2.003907v-4.265626zm0 0"/><path d="m2306.25 4577.578125h98.046875v5.533854h-98.046875zm0 0" fill="none" stroke="#000" stroke-linejoin="round" stroke-miterlimit="10" stroke-width="8.80697" transform="matrix(.06 0 0 -.06 0 484.35)"/><path d="m138.375 209.695312h5.882812v-.332031h-5.882812zm0 0"/><path d="m3126.888021 4577.578125h98.046875v5.533854h-98.046875zm0 0" fill="none" stroke="#000" stroke-linejoin="round" stroke-miterlimit="10" stroke-width="8.80697" transform="matrix(.06 0 0 -.06 0 484.35)"/><path d="m187.613281 209.695312h5.878907v-.332031h-5.878907zm0 0"/><path d="m3922.526042 4577.578125h98.046875v5.533854h-98.046875zm0 0" fill="none" stroke="#000" stroke-linejoin="round" stroke-miterlimit="10" stroke-width="8.80697" transform="matrix(.06 0 0 -.06 0 484.35)"/><path d="m235.351562 209.695312h5.882813v-.332031h-5.882813zm0 0"/><path d="m5520.117187 5522.434896v-71.028646l964.0625 33.333333v71.09375zm0 0" fill="none" stroke="#000" stroke-linejoin="round" stroke-miterlimit="10" stroke-width="6.63761" transform="matrix(.06 0 0 -.06 0 484.35)"/><path d="m331.207031 153.003906v4.261719l57.84375-2v-4.265625zm0 0"/><path d="m7444.205729 5684.348958v-71.09375l858.007813 33.398438v71.028646zm0 0" fill="none" stroke="#000" stroke-linejoin="round" stroke-miterlimit="10" stroke-width="6.63761" transform="matrix(.06 0 0 -.06 0 484.35)"/><path d="m446.652344 143.289062v4.265626l51.480468-2.003907v-4.261719zm0 0"/><path d="m8501.432292 4577.578125h98.046875v5.533854h-98.046875zm0 0" fill="none" stroke="#000" stroke-linejoin="round" stroke-miterlimit="10" stroke-width="8.80697" transform="matrix(.06 0 0 -.06 0 484.35)"/><path d="m510.085938 209.695312h5.882812v-.332031h-5.882812zm0 0"/><use x="539.460079" xlink:href="#ac" y="182.273396"/><use x="580.707061" xlink:href="#af" y="162.846257"/><path d="m9191.40625 5069.765625h7.682292v528.125h-7.682292zm0 0" fill="none" stroke="#000" stroke-linejoin="round" stroke-miterlimit="10" stroke-width="6.63761" transform="matrix(.06 0 0 -.06 0 484.35)"/><path d="m551.484375 180.164062h.460937v-31.6875h-.460937zm0 0"/><use x="520.800042" xlink:href="#P" y="216.271464"/><use x="534.065898" xlink:href="#A" y="216.271464"/><use x="545.630909" xlink:href="#M" y="216.271464"/><use x="558.896766" xlink:href="#E" y="216.271464"/><use x="564.169279" xlink:href="#Q" y="216.271464"/><path d="m1999.21875 5231.679688h7.682292v446.875h-7.682292zm0 0" fill="none" stroke="#000" stroke-linejoin="round" stroke-miterlimit="10" stroke-width="6.63761" transform="matrix(.06 0 0 -.06 0 484.35)"/><path d="m119.953125 170.449219h.460937v-26.8125h-.460937zm0 0"/><use x="101.857204" xlink:href="#R" y="216.271464"/><use x="113.422215" xlink:href="#y" y="216.271464"/><use x="107.931046" xlink:href="#ac" y="172.560176"/><path d="m1068.945312 5312.604167h7.682292v528.125h-7.682292zm0 0" fill="none" stroke="#000" stroke-linejoin="round" stroke-miterlimit="10" stroke-width="6.63761" transform="matrix(.06 0 0 -.06 0 484.35)"/><path d="m64.136719 165.59375h.460937v-31.6875h-.460937zm0 0"/><use x="48.505897" xlink:href="#S" y="216.271464"/><use x="55.139184" xlink:href="#O" y="216.271464"/><use x="52.113404" xlink:href="#ac" y="167.703467"/><use x="7.771016" xlink:href="#ae" y="172.560196"/><use x="263.366527" xlink:href="#ac" y="191.987335"/><path d="m3700.065104 5069.765625h7.682292v528.125h-7.682292zm0 0" fill="none" stroke="#000" stroke-linejoin="round" stroke-miterlimit="10" stroke-width="6.63761" transform="matrix(.06 0 0 -.06 0 484.35)"/><path d="m222.003906 180.164062h.457032v-31.6875h-.457032zm0 0"/><use x="206.455413" xlink:href="#L" y="216.271464"/><use x="212.918771" xlink:href="#T" y="216.271464"/><use x="209.97854" xlink:href="#ac" y="182.273896"/><path d="m2849.609375 5150.690104h7.682292v495.052084h-7.682292zm0 0" fill="none" stroke="#000" stroke-linejoin="round" stroke-miterlimit="10" stroke-width="6.63761" transform="matrix(.06 0 0 -.06 0 484.35)"/><path d="m170.976562 175.308594h.460938v-29.703125h-.460938zm0 0"/><use x="155.942312" xlink:href="#K" y="216.271464"/><use x="168.018262" xlink:href="#U" y="216.271464"/><use x="250.405098" xlink:href="#z" y="216.271464"/><use x="263.67072" xlink:href="#y" y="216.271464"/><use x="276.936577" xlink:href="#w" y="216.271464"/><use x="158.954508" xlink:href="#ac" y="177.417186"/><path d="m4589.84375 4907.851562h7.682292v528.125h-7.682292zm0 0" fill="none" stroke="#000" stroke-linejoin="round" stroke-miterlimit="10" stroke-width="6.63761" transform="matrix(.06 0 0 -.06 0 484.35)"/><path d="m275.390625 189.878906h.460937v-31.6875h-.460937zm0 0"/><g clip-path="url(#k)"><path d="m5.533854 3091.901042h9910.221354" style="fill:none;stroke-width:11.0087;stroke-linecap:round;stroke-linejoin:round;stroke:#000;stroke-miterlimit:10" transform="matrix(.06 0 0 -.06 0 484.35)"/></g><g clip-path="url(#l)"><path d="m5.533854 3253.75h9910.221354" style="fill:none;stroke-width:11.0087;stroke-linecap:round;stroke-linejoin:round;stroke:#000;stroke-miterlimit:10" transform="matrix(.06 0 0 -.06 0 484.35)"/></g><g clip-path="url(#m)"><path d="m5.533854 3415.664062h9910.221354" style="fill:none;stroke-width:11.0087;stroke-linecap:round;stroke-linejoin:round;stroke:#000;stroke-miterlimit:10" transform="matrix(.06 0 0 -.06 0 484.35)"/></g><g clip-path="url(#n)"><path d="m5.533854 3577.578125h9910.221354" style="fill:none;stroke-width:11.0087;stroke-linecap:round;stroke-linejoin:round;stroke:#000;stroke-miterlimit:10" transform="matrix(.06 0 0 -.06 0 484.35)"/></g><g clip-path="url(#o)"><path d="m5.533854 3739.427083h9910.221354" style="fill:none;stroke-width:11.0087;stroke-linecap:round;stroke-linejoin:round;stroke:#000;stroke-miterlimit:10" transform="matrix(.06 0 0 -.06 0 484.35)"/></g><use x="409.98382" xlink:href="#R" y="332.834697"/><use x="422.05977" xlink:href="#v" y="332.834697"/><path d="m7072.330729 3288.90625h7.682292v447.460938h-7.682292zm0 0" style="fill:none;stroke-width:6.63761;stroke-linecap:round;stroke-linejoin:round;stroke:#000;stroke-miterlimit:10" transform="matrix(.06 0 0 -.06 0 484.35)"/><path d="m424.339844 287.015625h.460937v-26.847656h-.460937zm0 0"/><use x="469.586939" xlink:href="#ac" y="293.980619"/><use x="456.029712" xlink:href="#P" y="332.834897"/><use x="469.295569" xlink:href="#M" y="332.834897"/><use x="482.561191" xlink:href="#O" y="332.834897"/><path d="m8026.822917 3207.981771h7.682291v528.125h-7.682291zm0 0" style="fill:none;stroke-width:6.63761;stroke-linecap:round;stroke-linejoin:round;stroke:#000;stroke-miterlimit:10" transform="matrix(.06 0 0 -.06 0 484.35)"/><path d="m481.609375 291.871094h.460937v-31.6875h-.460937zm0 0"/><use x="278.641557" xlink:href="#V" y="332.834697"/><use x="291.907414" xlink:href="#y" y="332.834697"/><use x="305.17327" xlink:href="#z" y="332.834697"/><use x="412.314825" xlink:href="#ac" y="289.12341"/><path d="m6117.773437 3369.895833h7.682292v399.348959h-7.682292zm0 0" style="fill:none;stroke-width:6.63761;stroke-linecap:round;stroke-linejoin:round;stroke:#000;stroke-miterlimit:10" transform="matrix(.06 0 0 -.06 0 484.35)"/><path d="m367.066406 282.15625h.460938v-23.960938h-.460938zm0 0"/><use x="348.799698" xlink:href="#x" y="332.834697"/><use x="368.698842" xlink:href="#v" y="332.834697"/><use x="355.04346" xlink:href="#ac" y="284.2667"/><path d="m5070.377604 3288.90625h7.682292v528.125h-7.682292zm0 0" style="fill:none;stroke-width:6.63761;stroke-linecap:round;stroke-linejoin:round;stroke:#000;stroke-miterlimit:10" transform="matrix(.06 0 0 -.06 0 484.35)"/><path d="m304.222656 287.015625h.460938v-31.6875h-.460938zm0 0"/><path d="m2113.932292 3936.888021v-71.09375l962.174479-33.333333v71.09375zm0 0" fill="none" stroke="#000" stroke-linejoin="round" stroke-miterlimit="10" stroke-width="6.63761" transform="matrix(.06 0 0 -.06 0 484.35)"/><path d="m126.835938 248.136719v4.265625l57.730468 2v-4.265625zm0 0"/><path d="m2466.601562 2634.869792h98.046875v5.533854h-98.046875zm0 0" fill="none" stroke="#000" stroke-linejoin="round" stroke-miterlimit="10" stroke-width="8.80697" transform="matrix(.06 0 0 -.06 0 484.35)"/><path d="m147.996094 326.257812h5.882812v-.332031h-5.882812zm0 0"/><path d="m3428.190104 2634.869792h98.046875v5.533854h-98.046875zm0 0" fill="none" stroke="#000" stroke-linejoin="round" stroke-miterlimit="10" stroke-width="8.80697" transform="matrix(.06 0 0 -.06 0 484.35)"/><path d="m205.691406 326.257812h5.882813v-.332031h-5.882813zm0 0"/><path d="m4347.65625 2634.869792h98.046875v5.533854h-98.046875zm0 0" fill="none" stroke="#000" stroke-linejoin="round" stroke-miterlimit="10" stroke-width="8.80697" transform="matrix(.06 0 0 -.06 0 484.35)"/><path d="m260.859375 326.257812h5.882813v-.332031h-5.882813zm0 0"/><path d="m6117.773437 3808.372396v-71.09375l962.239584-33.398438v71.09375zm0 0" fill="none" stroke="#000" stroke-linejoin="round" stroke-miterlimit="10" stroke-width="6.63761" transform="matrix(.06 0 0 -.06 0 484.35)"/><path d="m367.066406 255.847656v4.265625l57.734375 2.003907v-4.265626zm0 0"/><path d="m7312.304687 2634.869792h98.046875v5.533854h-98.046875zm0 0" fill="none" stroke="#000" stroke-linejoin="round" stroke-miterlimit="10" stroke-width="8.80697" transform="matrix(.06 0 0 -.06 0 484.35)"/><path d="m438.738281 326.257812h5.882813v-.332031h-5.882813zm0 0"/><path d="m8362.174479 2634.869792h98.046875v5.533854h-98.046875zm0 0" fill="none" stroke="#000" stroke-linejoin="round" stroke-miterlimit="10" stroke-width="8.80697" transform="matrix(.06 0 0 -.06 0 484.35)"/><path d="m501.730469 326.257812h5.882812v-.332031h-5.882812zm0 0"/><use x="532.432065" xlink:href="#ac" y="298.836629"/><use x="580.706861" xlink:href="#ad" y="269.695771"/><path d="m9074.283854 3127.057292h7.682292v528.125h-7.682292zm0 0" fill="none" stroke="#000" stroke-linejoin="round" stroke-miterlimit="10" stroke-width="6.63761" transform="matrix(.06 0 0 -.06 0 484.35)"/><path d="m544.457031 296.726562h.457031v-31.6875h-.457031zm0 0"/><use x="513.517027" xlink:href="#W" y="332.834697"/><use x="518.789541" xlink:href="#X" y="332.834697"/><use x="532.055397" xlink:href="#z" y="332.834697"/><use x="545.321254" xlink:href="#w" y="332.834697"/><use x="557.397204" xlink:href="#F" y="332.834697"/><use x="292.198584" xlink:href="#ac" y="289.12341"/><path d="m871.875 2933.307292h7.682292v528.125h-7.682292zm0 0" fill="none" stroke="#000" stroke-linejoin="round" stroke-miterlimit="10" stroke-width="6.63761" transform="matrix(.06 0 0 -.06 0 484.35)"/><path d="m52.3125 308.351562h.460938v-31.6875h-.460938zm0 0"/><use x="47.144894" xlink:href="#Y" y="332.834697"/><use x="64.493343" xlink:href="#W" y="332.834697"/><use x="52.113424" xlink:href="#ac" y="274.55298"/><use x="7.771036" xlink:href="#ae" y="289.12341"/><use x="229.353484" xlink:href="#ac" y="289.12341"/><use x="222.429465" xlink:href="#O" y="332.834697"/><use x="235.695336" xlink:href="#T" y="332.834697"/><path d="m4022.981771 3288.90625h7.682291v528.125h-7.682291zm0 0" fill="none" stroke="#000" stroke-linejoin="round" stroke-miterlimit="10" stroke-width="6.63761" transform="matrix(.06 0 0 -.06 0 484.35)"/><path d="m241.378906 287.015625h.460938v-31.6875h-.460938zm0 0"/><path d="m3068.424479 3369.895833h7.682292v494.986979h-7.682292zm0 0" fill="none" stroke="#000" stroke-linejoin="round" stroke-miterlimit="10" stroke-width="6.63761" transform="matrix(.06 0 0 -.06 0 484.35)"/><path d="m184.105469 282.15625h.460937v-29.699219h-.460937zm0 0"/><use x="162.012324" xlink:href="#L" y="332.834697"/><use x="168.304823" xlink:href="#y" y="332.834697"/><use x="181.570694" xlink:href="#z" y="332.834697"/><use x="172.082544" xlink:href="#ac" y="284.2667"/><path d="m2113.932292 3450.820312h7.682291v446.940105h-7.682291zm0 0" fill="none" stroke="#000" stroke-linejoin="round" stroke-miterlimit="10" stroke-width="6.63761" transform="matrix(.06 0 0 -.06 0 484.35)"/><path d="m126.835938 277.300781h.457031v-26.816406h-.457031zm0 0"/><use x="102.444205" xlink:href="#y" y="332.834697"/><use x="115.710076" xlink:href="#J" y="332.834697"/><use x="127.786026" xlink:href="#K" y="332.834697"/><use x="114.81053" xlink:href="#ac" y="279.40999"/><g clip-path="url(#p)"><path d="m5.533854 1149.127604h9910.221354" style="fill:none;stroke-width:11.0087;stroke-linecap:round;stroke-linejoin:round;stroke:#000;stroke-miterlimit:10" transform="matrix(.06 0 0 -.06 0 484.35)"/></g><g clip-path="url(#q)"><path d="m5.533854 1311.041667h9910.221354" style="fill:none;stroke-width:11.0087;stroke-linecap:round;stroke-linejoin:round;stroke:#000;stroke-miterlimit:10" transform="matrix(.06 0 0 -.06 0 484.35)"/></g><g clip-path="url(#r)"><path d="m5.533854 1472.955729h9910.221354" style="fill:none;stroke-width:11.0087;stroke-linecap:round;stroke-linejoin:round;stroke:#000;stroke-miterlimit:10" transform="matrix(.06 0 0 -.06 0 484.35)"/></g><g clip-path="url(#s)"><path d="m5.533854 1634.869792h9910.221354" style="fill:none;stroke-width:11.0087;stroke-linecap:round;stroke-linejoin:round;stroke:#000;stroke-miterlimit:10" transform="matrix(.06 0 0 -.06 0 484.35)"/></g><g clip-path="url(#t)"><path d="m5.533854 1796.71875h9910.221354" style="fill:none;stroke-width:11.0087;stroke-linecap:round;stroke-linejoin:round;stroke:#000;stroke-miterlimit:10" transform="matrix(.06 0 0 -.06 0 484.35)"/></g><path d="m829.296875 987.278646h289.908854" style="fill:none;stroke-width:27.198;stroke-linecap:round;stroke-linejoin:round;stroke:#000;stroke-miterlimit:10" transform="matrix(.06 0 0 -.06 0 484.35)"/><g clip-path="url(#u)"><path d="m9888.216146 1149.127604v647.591146" fill="none" stroke="#000" stroke-linejoin="round" stroke-miterlimit="10" stroke-width="66.0361" transform="matrix(.06 0 0 -.06 0 484.35)"/></g><path d="m9811.71875 1149.127604v647.591146" fill="none" stroke="#000" stroke-linejoin="round" stroke-miterlimit="10" stroke-width="20.9166" transform="matrix(.06 0 0 -.06 0 484.35)"/><use x="410.604821" xlink:href="#v" y="452.057035"/><path d="m6982.03125 1346.197917h7.682292v447.460937h-7.682292zm0 0" fill="none" stroke="#000" stroke-linejoin="round" stroke-miterlimit="10" stroke-width="6.63761" transform="matrix(.06 0 0 -.06 0 484.35)"/><path d="m418.921875 403.578125h.460937v-26.847656h-.460937zm0 0"/><use x="462.917926" xlink:href="#ac" y="410.543252"/><use x="446.043392" xlink:href="#x" y="452.057035"/><use x="465.94277" xlink:href="#D" y="452.057035"/><use x="479.208627" xlink:href="#O" y="452.057035"/><path d="m7915.690104 1265.273438h7.682292v528.125h-7.682292zm0 0" fill="none" stroke="#000" stroke-linejoin="round" stroke-miterlimit="10" stroke-width="6.63761" transform="matrix(.06 0 0 -.06 0 484.35)"/><path d="m474.941406 408.433594h.460938v-31.6875h-.460938zm0 0"/><use x="271.420543" xlink:href="#K" y="452.057035"/><use x="283.496493" xlink:href="#X" y="452.057035"/><use x="296.762349" xlink:href="#J" y="452.057035"/><use x="308.668143" xlink:href="#L" y="452.057035"/><use x="406.899814" xlink:href="#ac" y="405.686343"/><path d="m6048.4375 1427.1875h7.682292v399.348958h-7.682292zm0 0" fill="none" stroke="#000" stroke-linejoin="round" stroke-miterlimit="10" stroke-width="6.63761" transform="matrix(.06 0 0 -.06 0 484.35)"/><path d="m362.90625 398.71875h.460938v-23.957031h-.460938zm0 0"/><use x="344.638689" xlink:href="#x" y="452.057035"/><use x="364.537833" xlink:href="#v" y="452.057035"/><use x="350.881512" xlink:href="#ac" y="400.829633"/><path d="m4984.049479 1184.348958h7.682292v528.125h-7.682292zm0 0" fill="none" stroke="#000" stroke-linejoin="round" stroke-miterlimit="10" stroke-width="6.63761" transform="matrix(.06 0 0 -.06 0 484.35)"/><path d="m299.042969 413.289062h.460937v-31.6875h-.460937zm0 0"/><path d="m1532.161458 647.825521h98.046875v5.533854h-98.046875zm0 0" fill="none" stroke="#000" stroke-linejoin="round" stroke-miterlimit="10" stroke-width="8.80697" transform="matrix(.06 0 0 -.06 0 484.35)"/><path d="m91.929688 445.480469h5.882812v-.332031h-5.882812zm0 0"/><path d="m2092.838542 1637.018229v-71.028646l941.341145 33.333334v71.028645zm0 0" fill="none" stroke="#000" stroke-linejoin="round" stroke-miterlimit="10" stroke-width="6.63761" transform="matrix(.06 0 0 -.06 0 484.35)"/><path d="m125.570312 386.128906v4.261719l56.480469-2v-4.261719zm0 0"/><path d="m2357.161458 647.825521h98.046875v5.533854h-98.046875zm0 0" fill="none" stroke="#000" stroke-linejoin="round" stroke-miterlimit="10" stroke-width="8.80697" transform="matrix(.06 0 0 -.06 0 484.35)"/><path d="m141.429688 445.480469h5.882812v-.332031h-5.882812zm0 0"/><path d="m4251.106771 647.825521h98.046875v5.533854h-98.046875zm0 0" fill="none" stroke="#000" stroke-linejoin="round" stroke-miterlimit="10" stroke-width="8.80697" transform="matrix(.06 0 0 -.06 0 484.35)"/><path d="m255.066406 445.480469h5.882813v-.332031h-5.882813zm0 0"/><path d="m6048.4375 1865.598958v-71.028646l941.276042-33.398437v71.09375zm0 0" fill="none" stroke="#000" stroke-linejoin="round" stroke-miterlimit="10" stroke-width="6.63761" transform="matrix(.06 0 0 -.06 0 484.35)"/><path d="m362.90625 372.414062v4.261719l56.476562 2.003907v-4.265626zm0 0"/><path d="m7133.658854 647.825521h98.046875v5.533854h-98.046875zm0 0" fill="none" stroke="#000" stroke-linejoin="round" stroke-miterlimit="10" stroke-width="8.80697" transform="matrix(.06 0 0 -.06 0 484.35)"/><path d="m428.019531 445.480469h5.882813v-.332031h-5.882813zm0 0"/><path d="m8322.200521 647.825521h97.981771v5.533854h-97.981771zm0 0" fill="none" stroke="#000" stroke-linejoin="round" stroke-miterlimit="10" stroke-width="8.80697" transform="matrix(.06 0 0 -.06 0 484.35)"/><path d="m499.332031 445.480469h5.878907v-.332031h-5.878907zm0 0"/><use x="524.352049" xlink:href="#ac" y="415.400062"/><path d="m8939.583333 1184.348958h7.682292v528.125h-7.682292zm0 0" fill="none" stroke="#000" stroke-linejoin="round" stroke-miterlimit="10" stroke-width="6.63761" transform="matrix(.06 0 0 -.06 0 484.35)"/><path d="m536.375 413.289062h.460938v-31.6875h-.460938zm0 0"/><use x="512.071024" xlink:href="#W" y="452.057035"/><use x="517.343538" xlink:href="#X" y="452.057035"/><use x="530.609394" xlink:href="#w" y="452.057035"/><use x="542.685344" xlink:href="#Z" y="452.057035"/><use x="530.694961" xlink:href="#ag" y="373.650979"/><use x="110.622121" xlink:href="#E" y="452.057035"/><use x="115.894628" xlink:href="#y" y="452.057035"/><use x="113.548997" xlink:href="#ac" y="420.256772"/><use x="287.019344" xlink:href="#ac" y="415.400042"/><path d="m1068.945312 1022.434896h7.682292v528.125h-7.682292zm0 0" fill="none" stroke="#000" stroke-linejoin="round" stroke-miterlimit="10" stroke-width="6.63761" transform="matrix(.06 0 0 -.06 0 484.35)"/><path d="m64.136719 423.003906h.460937v-31.6875h-.460937zm0 0"/><use x="37.790676" xlink:href="#aa" y="452.057035"/><use x="53.778343" xlink:href="#K" y="452.057035"/><use x="65.854293" xlink:href="#G" y="452.057035"/><use x="52.113404" xlink:href="#ac" y="425.113482"/><path d="m2092.838542 1103.359375h7.682291v495.052083h-7.682291zm0 0" fill="none" stroke="#000" stroke-linejoin="round" stroke-miterlimit="10" stroke-width="6.63761" transform="matrix(.06 0 0 -.06 0 484.35)"/><path d="m125.570312 418.148438h.460938v-29.703126h-.460938zm0 0"/><use x="7.770956" xlink:href="#ae" y="405.686343"/><path d="m3960.15625 1265.273438h7.682292v528.125h-7.682292zm0 0" fill="none" stroke="#000" stroke-linejoin="round" stroke-miterlimit="10" stroke-width="6.63761" transform="matrix(.06 0 0 -.06 0 484.35)"/><path d="m237.609375 408.433594h.460937v-31.6875h-.460937zm0 0"/><use x="219.255439" xlink:href="#ab" y="452.057035"/><use x="231.331388" xlink:href="#I" y="452.057035"/><use x="225.583811" xlink:href="#ac" y="410.543252"/><path d="m3026.497396 1184.348958h7.682291v446.940104h-7.682291zm0 0" fill="none" stroke="#000" stroke-linejoin="round" stroke-miterlimit="10" stroke-width="6.63761" transform="matrix(.06 0 0 -.06 0 484.35)"/><path d="m181.589844 413.289062h.460937v-26.816406h-.460937zm0 0"/><use x="159.581319" xlink:href="#L" y="452.057035"/><use x="165.873583" xlink:href="#y" y="452.057035"/><use x="178.969533" xlink:href="#L" y="452.057035"/><use x="185.602813" xlink:href="#L" y="452.057035"/><use x="169.566889" xlink:href="#ac" y="415.399962"/></svg>