<svg height="857.27em" viewBox="0 0 595.28 857.27" width="595.28em" xmlns="http://www.w3.org/2000/svg" xmlns:xlink="http://www.w3.org/1999/xlink"><clipPath id="a"><path d="m0 63h595.28125v2h-595.28125zm0 0"/></clipPath><clipPath id="b"><path d="m0 54h595.28125v2h-595.28125zm0 0"/></clipPath><clipPath id="c"><path d="m0 46h595.28125v1h-595.28125zm0 0"/></clipPath><clipPath id="d"><path d="m0 37h595.28125v1h-595.28125zm0 0"/></clipPath><clipPath id="e"><path d="m0 28h595.28125v2h-595.28125zm0 0"/></clipPath><clipPath id="f"><path d="m0 168h595.28125v1h-595.28125zm0 0"/></clipPath><clipPath id="g"><path d="m0 159h595.28125v2h-595.28125zm0 0"/></clipPath><clipPath id="h"><path d="m0 150h595.28125v2h-595.28125zm0 0"/></clipPath><clipPath id="i"><path d="m0 141h595.28125v2h-595.28125zm0 0"/></clipPath><clipPath id="j"><path d="m0 133h595.28125v1h-595.28125zm0 0"/></clipPath><clipPath id="k"><path d="m0 272h595.28125v2h-595.28125zm0 0"/></clipPath><clipPath id="l"><path d="m0 263h595.28125v2h-595.28125zm0 0"/></clipPath><clipPath id="m"><path d="m0 255h595.28125v1h-595.28125zm0 0"/></clipPath><clipPath id="n"><path d="m0 246h595.28125v2h-595.28125zm0 0"/></clipPath><clipPath id="o"><path d="m0 237h595.28125v2h-595.28125zm0 0"/></clipPath><clipPath id="p"><path d="m0 377h595.28125v1h-595.28125zm0 0"/></clipPath><clipPath id="q"><path d="m0 368h595.28125v2h-595.28125zm0 0"/></clipPath><clipPath id="r"><path d="m0 359h595.28125v2h-595.28125zm0 0"/></clipPath><clipPath id="s"><path d="m0 351h595.28125v1h-595.28125zm0 0"/></clipPath><clipPath id="t"><path d="m0 342h595.28125v2h-595.28125zm0 0"/></clipPath><clipPath id="u"><path d="m591 340h4.28125v40h-4.28125zm0 0"/></clipPath><clipPath id="v"><path d="m0 481h595.28125v2h-595.28125zm0 0"/></clipPath><clipPath id="w"><path d="m0 473h595.28125v1h-595.28125zm0 0"/></clipPath><clipPath id="x"><path d="m0 464h595.28125v2h-595.28125zm0 0"/></clipPath><clipPath id="y"><path d="m0 455h595.28125v2h-595.28125zm0 0"/></clipPath><clipPath id="z"><path d="m0 447h595.28125v1h-595.28125zm0 0"/></clipPath><clipPath id="A"><path d="m0 586h595.28125v2h-595.28125zm0 0"/></clipPath><clipPath id="B"><path d="m0 577h595.28125v2h-595.28125zm0 0"/></clipPath><clipPath id="C"><path d="m0 569h595.28125v1h-595.28125zm0 0"/></clipPath><clipPath id="D"><path d="m0 560h595.28125v1h-595.28125zm0 0"/></clipPath><clipPath id="E"><path d="m0 551h595.28125v2h-595.28125zm0 0"/></clipPath><clipPath id="F"><path d="m0 691h595.28125v1h-595.28125zm0 0"/></clipPath><clipPath id="G"><path d="m0 682h595.28125v2h-595.28125zm0 0"/></clipPath><clipPath id="H"><path d="m0 673h595.28125v2h-595.28125zm0 0"/></clipPath><clipPath id="I"><path d="m0 664h595.28125v2h-595.28125zm0 0"/></clipPath><clipPath id="J"><path d="m0 656h595.28125v1h-595.28125zm0 0"/></clipPath><clipPath id="K"><path d="m0 795h595.28125v2h-595.28125zm0 0"/></clipPath><clipPath id="L"><path d="m0 787h595.28125v1h-595.28125zm0 0"/></clipPath><clipPath id="M"><path d="m0 778h595.28125v1h-595.28125zm0 0"/></clipPath><clipPath id="N"><path d="m0 769h595.28125v2h-595.28125zm0 0"/></clipPath><clipPath id="O"><path d="m0 760h595.28125v2h-595.28125zm0 0"/></clipPath><clipPath id="P"><path d="m591 759h4.28125v39h-4.28125zm0 0"/></clipPath><symbol id="Q" overflow="visible"><path d="m7.75-4.703125c-1.46875 0-2.875.484375-4.125 1.25-1.640625.984375-3.625 2.6875-3.625 5.15625 0 2.0625 1.8125 3 3.65625 3 1.46875 0 2.859375-.484375 4.125-1.25 1.640625-.984375 3.59375-2.6875 3.59375-5.15625 0-2.0625-1.78125-3-3.625-3zm0 0"/></symbol><symbol id="R" overflow="visible"><path d="m0 0h-.484375v8.71875h.484375zm0 0v8.71875c2.515625 2.609375 5.859375 6.28125 5.859375 9.90625 0 2.328125-.53125 4.609375-1.4375 6.765625-.09375.515625.328125.875.734375.875.25 0 .453125-.140625.59375-.390625.90625-2.296875 1.46875-4.78125 1.46875-7.25 0-6.90625-7.21875-11.71875-7.21875-18.625zm0 0"/></symbol><symbol id="S" overflow="visible"><path d="m4.953125 0c.140625 0 .28125-.140625.28125-.28125v-8.15625c0-.140625-.140625-.28125-.28125-.28125h-4.671875c-.140625 0-.28125.140625-.28125.28125v8.15625c0 .140625.140625.28125.28125.28125zm0 0"/></symbol><symbol id="T" overflow="visible"><path d="m.875-1.53125c.03125-1.15625.796875-2.171875 1.875-2.171875 1.046875 0 1.546875 1.234375 1.546875 2.40625 0 2.0625-1.75 3.53125-3.359375 4.859375-.0625-.765625-.140625-1.546875-.140625-2.3125 0-.140625.046875-.234375.046875-.375zm-1.75-14.609375.390625 20.890625c0 .40625.3125.71875.734375.71875.625 0 .90625-.71875 1.390625-1.109375 2.203125-1.78125 5.328125-3.03125 5.328125-5.890625 0-1.890625-1.390625-3.484375-3.234375-3.484375-1.125 0-2.171875.375-3.078125 1.046875l.21875-12.171875c-.28125-.140625-.5625-.25-.875-.25s-.59375.109375-.875.25zm0 0"/></symbol><symbol id="U" overflow="visible"><path d="m13.046875-9.0625c-.5625-2.453125-1.21875-4.859375-1.921875-7.265625 3.34375-3.796875 6.375-7.703125 6.375-12.71875 0-3.9375-2.15625-9.59375-4.59375-12.53125-.171875-.125-.390625-.125-.5625 0-3.3125 2.40625-5.234375 6.25-5.234375 10.296875 0 1.8125.046875 3.59375.25 5.375.25 2.265625.84375 4.453125 1.46875 6.65625-4.125 4.671875-8.765625 9.140625-8.765625 15.34375 0 7.015625 5.0625 12.96875 11.625 12.96875 1.078125 0 2.09375-.09375 3.09375-.28125.109375 1.125.1875 2.234375.1875 3.359375 0 .625-.046875 1.21875-.078125 1.84375-.203125 3.453125-2.328125 6.625-5.578125 6.703125-.03125 0-.078125.03125-.109375.03125-1.78125 0-3.3125-1.015625-4.21875-2.4375.390625.171875.8125.3125 1.21875.3125 1.8125 0 3.3125-1.5 3.3125-3.3125 0-1.953125-1.421875-3.640625-3.3125-3.640625-2.046875 0-3.90625 1.609375-3.90625 3.640625 0 3.765625 3.03125 6.796875 6.8125 6.796875 4.109375 0 6.9375-3.703125 7.171875-7.890625.046875-.65625.046875-1.28125.046875-1.953125 0-1.25-.078125-2.5-.1875-3.765625.90625-.265625 1.78125-.6875 2.546875-1.28125 2.59375-1.921875 3.734375-4.609375 3.734375-7.25 0-4.609375-3.484375-9.046875-8.859375-9.046875-.171875 0-.34375.046875-.515625.046875zm2.953125 16.21875c-.484375-4.328125-1.28125-8.453125-2.15625-12.53125 3.84375.3125 6.25 3.53125 6.25 6.734375 0 2.4375-1.6875 4.953125-4.09375 5.796875zm-13.53125-8.234375c0-5.578125 3.78125-9.796875 7.546875-14.015625.546875 2.046875 1.109375 4.109375 1.59375 6.203125-3.515625.796875-5.5 3.765625-5.5 6.828125 0 2.453125 1.25 4.921875 4.046875 6.421875.09375.03125.203125.0625.3125.0625.375 0 .6875-.34375.6875-.71875 0-.1875-.09375-.359375-.234375-.5-1.953125-1.109375-2.859375-2.78125-2.859375-4.3125 0-2.0625 1.59375-3.90625 4.359375-4.21875.90625 4.171875 1.703125 8.328125 2.21875 12.796875-.9375.140625-1.875.203125-2.859375.203125-4.734375 0-9.3125-4.015625-9.3125-8.75zm11.859375-35.546875c.59375 1.859375.734375 2.765625.734375 4.78125 0 4.4375-2.328125 7.953125-5.1875 11.34375-.640625-2.203125-1.15625-4.328125-1.15625-6.984375 0-3.875 2.15625-7.390625 5.609375-9.140625zm0 0"/></symbol><symbol id="V" overflow="visible"><path d="m4.953125 8.71875c.140625 0 .28125-.140625.28125-.28125v-16.875c0-.140625-.140625-.28125-.28125-.28125h-4.671875c-.140625 0-.28125.140625-.28125.28125v16.875c0 .140625.140625.28125.28125.28125zm0 0"/></symbol><symbol id="W" overflow="visible"><path d="m-2.203125-1.640625c0 1.21875.984375 2.203125 2.203125 2.203125s2.203125-.984375 2.203125-2.203125-.984375-2.203125-2.203125-2.203125-2.203125.984375-2.203125 2.203125zm2.203125-10.921875c-5.40625 0-11.46875 6.046875-11.46875 12.625 0 .28125.28125.5.546875.5.25 0 .53125-.171875.59375-.5625.90625-5.203125 5.125-9.234375 10.328125-9.234375s9.421875 4.03125 10.328125 9.234375c.0625.390625.34375.5625.59375.5625.265625 0 .546875-.21875.546875-.5 0-6.578125-6.03125-12.625-11.46875-12.625zm0 0"/></symbol><symbol id="X" overflow="visible"><path d="m1.5-11.28125v11.28125h1.8125v-6.21875c0-2.3125 1.203125-3.8125 3.0625-3.8125 1.421875 0 2.328125.859375 2.328125 2.21875v7.8125h1.78125v-8.53125c0-1.875-1.390625-3.078125-3.578125-3.078125-1.671875 0-2.75.65625-3.734375 2.21875v-1.890625zm0 0"/></symbol><symbol id="Y" overflow="visible"><path d="m11.046875-5.03125c0-1.734375-.125-2.765625-.453125-3.609375-.734375-1.84375-2.453125-2.96875-4.5625-2.96875-3.140625 0-5.171875 2.390625-5.171875 6.125 0 3.71875 1.9375 5.984375 5.125 5.984375 2.578125 0 4.375-1.46875 4.828125-3.921875h-1.8125c-.5 1.484375-1.5 2.265625-2.953125 2.265625-1.140625 0-2.109375-.515625-2.703125-1.46875-.4375-.640625-.59375-1.296875-.609375-2.40625zm-8.265625-1.46875c.140625-2.09375 1.421875-3.453125 3.21875-3.453125 1.84375 0 3.109375 1.421875 3.109375 3.453125zm0 0"/></symbol><symbol id="Z" overflow="visible"><path d="m1.5-11.28125v11.28125h1.8125v-7.078125c0-1.640625 1.1875-2.953125 2.65625-2.953125 1.328125 0 2.078125.8125 2.078125 2.265625v7.765625h1.8125v-7.078125c0-1.640625 1.1875-2.953125 2.65625-2.953125 1.3125 0 2.078125.84375 2.078125 2.265625v7.765625h1.8125v-8.46875c0-2.015625-1.15625-3.140625-3.265625-3.140625-1.515625 0-2.421875.453125-3.46875 1.71875-.671875-1.203125-1.578125-1.71875-3.046875-1.71875-1.5 0-2.515625.5625-3.453125 1.921875v-1.59375zm0 0"/></symbol><symbol id="aa" overflow="visible"><path d="m1.875-2.234375v2.234375h1.296875v.390625c0 1.484375-.28125 1.90625-1.296875 1.953125v.828125c1.421875.03125 2.265625-1 2.265625-2.828125v-2.578125zm0 0"/></symbol><symbol id="ab" overflow="visible"><path d="m5.46875-11.28125h-1.84375v-3.109375h-1.796875v3.109375h-1.53125v1.46875h1.53125v8.515625c0 1.171875.78125 1.796875 2.171875 1.796875.484375 0 .859375-.046875 1.46875-.15625v-1.5c-.265625.0625-.5.078125-.859375.078125-.78125 0-.984375-.21875-.984375-1.015625v-7.71875h1.84375zm0 0"/></symbol><symbol id="ac" overflow="visible"><path d="m4.171875-15.703125h-2.015625v15.703125h2.015625zm0 0"/></symbol><symbol id="ad" overflow="visible"><path d="m9.4375-8.140625c-.03125-2.21875-1.5-3.46875-4.09375-3.46875-2.625 0-4.328125 1.359375-4.328125 3.453125 0 1.765625.90625 2.59375 3.578125 3.25l1.671875.40625c1.25.296875 1.75.75 1.75 1.546875 0 1.078125-1.0625 1.796875-2.625 1.796875-.984375 0-1.796875-.28125-2.25-.765625-.28125-.3125-.40625-.640625-.515625-1.4375h-1.890625c.078125 2.609375 1.546875 3.859375 4.5 3.859375 2.84375 0 4.65625-1.40625 4.65625-3.578125 0-1.6875-.953125-2.609375-3.1875-3.140625l-1.734375-.40625c-1.453125-.34375-2.078125-.828125-2.078125-1.625 0-1.046875.921875-1.703125 2.390625-1.703125 1.4375 0 2.21875.625 2.25 1.8125zm0 0"/></symbol><symbol id="ae" overflow="visible"><path d="m11.046875-5.03125c0-1.734375-.125-2.765625-.453125-3.609375-.734375-1.84375-2.453125-2.96875-4.5625-2.96875-3.140625 0-5.171875 2.390625-5.171875 6.125 0 3.71875 1.9375 5.984375 5.125 5.984375 2.578125 0 4.375-1.46875 4.828125-3.921875h-1.8125c-.5 1.484375-1.5 2.265625-2.953125 2.265625-1.140625 0-2.109375-.515625-2.703125-1.46875-.4375-.640625-.59375-1.296875-.609375-2.40625zm-8.265625-1.46875c.140625-2.09375 1.421875-3.453125 3.21875-3.453125 1.84375 0 3.109375 1.421875 3.109375 3.453125zm3.84375-9.4375-2.0625 3.1875h1.296875l3.203125-3.1875zm0 0"/></symbol><symbol id="af" overflow="visible"><path d="m3.03125-15.703125h-1.78125v15.703125h1.78125v-4.390625l1.75-1.71875 3.8125 6.109375h2.21875l-4.609375-7.390625 3.921875-3.890625h-2.3125l-4.78125 4.78125zm0 0"/></symbol><symbol id="ag" overflow="visible"><path d="m8.703125-11.28125v1.640625c-.90625-1.359375-1.90625-1.96875-3.3125-1.96875-2.75 0-4.640625 2.546875-4.640625 6.15625 0 1.90625.453125 3.28125 1.421875 4.421875.84375.984375 1.921875 1.53125 3.078125 1.53125 1.359375 0 2.328125-.609375 3.28125-2.03125v.578125c0 3.015625-.84375 4.140625-3.078125 4.140625-1.53125 0-2.328125-.609375-2.5-1.890625h-1.828125c.171875 2.078125 1.828125 3.390625 4.28125 3.390625 1.65625 0 3.03125-.53125 3.765625-1.4375.859375-1.046875 1.1875-2.453125 1.1875-5.109375v-9.421875zm-3.140625 1.328125c1.890625 0 2.96875 1.59375 2.96875 4.46875 0 2.734375-1.109375 4.328125-2.96875 4.328125s-2.9375-1.625-2.9375-4.40625c0-2.75 1.078125-4.390625 2.9375-4.390625zm0 0"/></symbol><symbol id="ah" overflow="visible"><path d="m8.359375-11.28125-3.125 8.78125-2.890625-8.78125h-1.90625l3.796875 11.328125-.6875 1.78125c-.296875.796875-.6875 1.09375-1.4375 1.09375-.296875 0-.5625-.03125-.953125-.125v1.609375c.375.203125.734375.28125 1.21875.28125.578125 0 1.203125-.1875 1.671875-.53125.5625-.40625.890625-.890625 1.234375-1.78125l5.015625-13.65625zm0 0"/></symbol><symbol id="ai" overflow="visible"><path d="m3.265625-15.703125h-1.796875v15.703125h1.796875zm0 0"/></symbol><symbol id="aj" overflow="visible"><path d="m3.703125-5.484375 2.5625-2.5625 5.53125 8.046875h2.375l-6.46875-9.296875 6.40625-6.40625h-2.59375l-7.8125 7.953125v-7.953125h-2v15.703125h2zm0 0"/></symbol><symbol id="ak" overflow="visible"><path d="m9.53125-11.28125h-8.40625v1.578125h6.28125l-6.734375 8.09375v1.609375h9.171875v-1.578125h-7l6.6875-8.109375zm0 0"/></symbol><symbol id="al" overflow="visible"><path d="m1.484375-11.28125v11.28125h1.8125v-5.859375c.015625-2.703125 1.140625-3.921875 3.609375-3.84375v-1.84375c-.296875-.03125-.46875-.0625-.6875-.0625-1.15625 0-2.046875.6875-3.078125 2.375v-2.046875zm0 0"/></symbol><symbol id="am" overflow="visible"><path d="m11.515625-1.0625c-.1875.046875-.28125.046875-.390625.046875-.625 0-.96875-.3125-.96875-.875v-6.640625c0-2-1.453125-3.078125-4.234375-3.078125-1.65625 0-2.96875.484375-3.75 1.3125-.515625.59375-.734375 1.234375-.765625 2.359375h1.796875c.15625-1.390625.96875-2.015625 2.65625-2.015625 1.640625 0 2.515625.609375 2.515625 1.6875v.46875c-.015625.78125-.40625 1.0625-1.875 1.25-2.53125.328125-2.921875.40625-3.609375.6875-1.3125.5625-1.984375 1.546875-1.984375 3.015625 0 2.046875 1.421875 3.34375 3.703125 3.34375 1.421875 0 2.5625-.5 3.828125-1.65625.125 1.15625.6875 1.65625 1.859375 1.65625.375 0 .625-.046875 1.21875-.203125zm-3.140625-2.484375c0 .59375-.171875.96875-.703125 1.453125-.734375.671875-1.625 1.015625-2.671875 1.015625-1.40625 0-2.21875-.671875-2.21875-1.8125 0-1.171875.765625-1.78125 2.703125-2.0625 1.921875-.25 2.28125-.34375 2.890625-.625zm0 0"/></symbol><symbol id="an" overflow="visible"><path d="m10.078125 0 4.40625-13.15625v13.15625h1.90625v-15.703125h-2.78125l-4.5625 13.671875-4.65625-13.671875h-2.78125v15.703125h1.90625v-13.15625l4.453125 13.15625zm0 0"/></symbol><symbol id="ao" overflow="visible"><path d="m3.234375-11.28125h-1.796875v11.28125h1.796875zm0-4.421875h-1.8125v2.265625h1.8125zm0 0"/></symbol><symbol id="ap" overflow="visible"><path d="m1.15625-15.703125v15.703125h1.625v-1.4375c.859375 1.3125 2 1.9375 3.578125 1.9375 2.96875 0 4.90625-2.4375 4.90625-6.1875 0-3.65625-1.828125-5.921875-4.828125-5.921875-1.546875 0-2.640625.578125-3.484375 1.859375v-5.953125zm4.9375 5.78125c2 0 3.296875 1.734375 3.296875 4.4375 0 2.5625-1.34375 4.296875-3.296875 4.296875-1.921875 0-3.140625-1.71875-3.140625-4.375 0-2.640625 1.21875-4.359375 3.140625-4.359375zm0 0"/></symbol><symbol id="aq" overflow="visible"><path d="m10.65625-15.703125h-1.78125v5.84375c-.75-1.140625-1.96875-1.75-3.46875-1.75-2.9375 0-4.84375 2.34375-4.84375 5.953125 0 3.796875 1.84375 6.15625 4.90625 6.15625 1.546875 0 2.625-.59375 3.59375-1.984375v1.484375h1.59375zm-4.953125 5.78125c1.9375 0 3.171875 1.703125 3.171875 4.40625 0 2.609375-1.25 4.328125-3.140625 4.328125-1.984375 0-3.296875-1.734375-3.296875-4.375 0-2.625 1.3125-4.359375 3.265625-4.359375zm0 0"/></symbol><symbol id="ar" overflow="visible"><path d="m11.515625-1.0625c-.1875.046875-.28125.046875-.390625.046875-.625 0-.96875-.3125-.96875-.875v-6.640625c0-2-1.453125-3.078125-4.234375-3.078125-1.65625 0-2.96875.484375-3.75 1.3125-.515625.59375-.734375 1.234375-.765625 2.359375h1.796875c.15625-1.390625.96875-2.015625 2.65625-2.015625 1.640625 0 2.515625.609375 2.515625 1.6875v.46875c-.015625.78125-.40625 1.0625-1.875 1.25-2.53125.328125-2.921875.40625-3.609375.6875-1.3125.5625-1.984375 1.546875-1.984375 3.015625 0 2.046875 1.421875 3.34375 3.703125 3.34375 1.421875 0 2.5625-.5 3.828125-1.65625.125 1.15625.6875 1.65625 1.859375 1.65625.375 0 .625-.046875 1.21875-.203125zm-3.140625-2.484375c0 .59375-.171875.96875-.703125 1.453125-.734375.671875-1.625 1.015625-2.671875 1.015625-1.40625 0-2.21875-.671875-2.21875-1.8125 0-1.171875.765625-1.78125 2.703125-2.0625 1.921875-.25 2.28125-.34375 2.890625-.625zm-1.828125-12.390625-2.09375 3.1875h1.296875l3.203125-3.1875zm0 0"/></symbol><symbol id="as" overflow="visible"><path d="m1.5-15.703125v15.703125h1.796875v-6.21875c0-2.3125 1.203125-3.8125 3.0625-3.8125.59375 0 1.15625.171875 1.578125.5.53125.375.734375.921875.734375 1.71875v7.8125h1.796875v-8.53125c0-1.890625-1.359375-3.078125-3.5625-3.078125-1.59375 0-2.5625.5-3.609375 1.875v-5.96875zm0 0"/></symbol><symbol id="at" overflow="visible"><path d="m13.90625-15.703125h-1.890625v12.84375l-8.203125-12.84375h-2.171875v15.703125h1.890625v-12.71875l8.125 12.71875h2.25zm0 0"/></symbol><symbol id="au" overflow="visible"><path d="m5.859375-11.609375c-3.1875 0-5.078125 2.265625-5.078125 6.046875 0 3.8125 1.890625 6.0625 5.09375 6.0625 3.1875 0 5.109375-2.265625 5.109375-5.96875 0-3.921875-1.859375-6.140625-5.125-6.140625zm.015625 1.65625c2.03125 0 3.234375 1.65625 3.234375 4.46875 0 2.65625-1.25 4.328125-3.234375 4.328125-2 0-3.234375-1.671875-3.234375-4.40625s1.234375-4.390625 3.234375-4.390625zm0 0"/></symbol><symbol id="av" overflow="visible"><path d="m1.5-11.28125v12.921875c0 1.109375-.34375 1.484375-1.453125 1.484375-.140625 0-.203125 0-.4375-.03125v1.53125c.21875.046875.328125.0625.609375.0625 2.015625 0 3.078125-.796875 3.078125-2.34375v-13.625zm1.796875-4.421875h-1.796875v2.265625h1.796875zm0 0"/></symbol><symbol id="aw" overflow="visible"><path d="m4.109375-2.234375h-2.234375v2.234375h2.234375zm0 0"/></symbol><symbol id="ax" overflow="visible"><path d="m11.859375-7.140625v7.140625h2v-15.703125h-2v6.796875h-8.0625v-6.796875h-2.015625v15.703125h2.015625v-7.140625zm0 0"/></symbol><symbol id="ay" overflow="visible"><path d="m5.859375-11.609375c-3.1875 0-5.078125 2.265625-5.078125 6.046875 0 3.8125 1.890625 6.0625 5.09375 6.0625 3.1875 0 5.109375-2.265625 5.109375-5.96875 0-3.921875-1.859375-6.140625-5.125-6.140625zm.015625 1.65625c2.03125 0 3.234375 1.65625 3.234375 4.46875 0 2.65625-1.25 4.328125-3.234375 4.328125-2 0-3.234375-1.671875-3.234375-4.40625s1.234375-4.390625 3.234375-4.390625zm-.625-5.4375h-2.234375v2.21875h2.234375zm3.484375 0h-2.234375v2.21875h2.234375zm0 0"/></symbol><symbol id="az" overflow="visible"><path d="m12.828125-11.09375c0-1.078125-.0625-1.375-.40625-2.109375-.859375-1.796875-2.6875-2.75-5.34375-2.75-3.4375 0-5.578125 1.765625-5.578125 4.609375 0 1.90625 1.015625 3.125 3.09375 3.65625l3.890625 1.03125c2 .515625 2.890625 1.3125 2.890625 2.546875 0 .84375-.453125 1.703125-1.125 2.171875-.625.453125-1.609375.671875-2.890625.671875-1.71875 0-2.859375-.40625-3.609375-1.3125-.578125-.6875-.84375-1.453125-.828125-2.421875h-1.890625c.03125 1.453125.296875 2.390625.921875 3.25 1.078125 1.484375 2.890625 2.25 5.28125 2.25 1.875 0 3.40625-.4375 4.421875-1.203125 1.046875-.84375 1.71875-2.25 1.71875-3.609375 0-1.9375-1.203125-3.359375-3.34375-3.9375l-3.9375-1.046875c-1.890625-.515625-2.578125-1.125-2.578125-2.328125 0-1.59375 1.390625-2.65625 3.5-2.65625 2.5 0 3.90625 1.125 3.921875 3.1875zm0 0"/></symbol><symbol id="aA" overflow="visible"><path d="m3.9375-7.140625h8.546875v-1.765625h-8.546875v-5.03125h8.875v-1.765625h-10.875v15.703125h11.265625v-1.765625h-9.265625zm0 0"/></symbol><symbol id="aB" overflow="visible"><path d="m5.5625-11.28125h-1.875v-1.765625c0-.75.40625-1.140625 1.25-1.140625.140625 0 .203125 0 .625.015625v-1.484375c-.421875-.078125-.65625-.109375-1.015625-.109375-1.65625 0-2.65625.953125-2.65625 2.5625v1.921875h-1.5v1.46875h1.5v9.8125h1.796875v-9.8125h1.875zm0 0"/></symbol><symbol id="aC" overflow="visible"><path d="m11.859375-15.703125.03125 11.03125c0 2.109375-1.53125 3.40625-4.03125 3.40625s-4.03125-1.296875-4.03125-3.40625v-11.03125h-2v11.03125c0 3.140625 2.375 5.171875 6.03125 5.171875s6.03125-2.046875 6.03125-5.171875l-.03125-11.03125zm-3.53125-4.515625-2.0625 3.1875h1.296875l3.203125-3.1875zm0 0"/></symbol><symbol id="aD" overflow="visible"><path d="m4.484375-15.703125h-1.796875v7.28125l.484375 4.796875h.828125l.484375-4.796875zm0 13.46875h-1.8125v2.234375h1.8125zm0 0"/></symbol><symbol id="aE" overflow="visible"><path d="m1.703125 0h7.078125c1.484375 0 2.59375-.40625 3.421875-1.3125.78125-.8125 1.203125-1.9375 1.203125-3.171875 0-1.890625-.859375-3.03125-2.859375-3.8125 1.453125-.65625 2.171875-1.796875 2.171875-3.421875 0-1.15625-.421875-2.140625-1.25-2.875-.828125-.765625-1.890625-1.109375-3.390625-1.109375h-6.375zm2-8.9375v-5h3.875c1.125 0 1.75.15625 2.28125.5625.5625.4375.859375 1.078125.859375 1.9375s-.296875 1.515625-.859375 1.9375c-.53125.40625-1.15625.5625-2.28125.5625zm0 7.171875v-5.40625h4.890625c1.765625 0 2.8125 1.015625 2.8125 2.71875 0 1.671875-1.046875 2.6875-2.8125 2.6875zm0 0"/></symbol><symbol id="aF" overflow="visible"><path d="m4.5625-9.375v9.375h2.6875v-13.59375h-1.78125c-.421875 1.609375-1.828125 2.4375-4.171875 2.4375v1.78125zm0 0"/></symbol><symbol id="aG" overflow="visible"><path d="m4.109375-2.796875h-2.875v2.796875h2.875zm0 0"/></symbol><g clip-path="url(#a)"><path d="m3.125 7934.692188h5946.523438" fill="none" stroke="#000" stroke-linecap="round" stroke-miterlimit="10" stroke-width="6.25903" transform="matrix(.1 0 0 -.1 0 857.27)"/></g><g clip-path="url(#b)"><path d="m3.125 8021.879688h5946.523438" fill="none" stroke="#000" stroke-linecap="round" stroke-miterlimit="10" stroke-width="6.25903" transform="matrix(.1 0 0 -.1 0 857.27)"/></g><g clip-path="url(#c)"><path d="m3.125 8109.067188h5946.523438" fill="none" stroke="#000" stroke-linecap="round" stroke-miterlimit="10" stroke-width="6.25903" transform="matrix(.1 0 0 -.1 0 857.27)"/></g><g clip-path="url(#d)"><path d="m3.125 8196.215625h5946.523438" fill="none" stroke="#000" stroke-linecap="round" stroke-miterlimit="10" stroke-width="6.25903" transform="matrix(.1 0 0 -.1 0 857.27)"/></g><g clip-path="url(#e)"><path d="m3.125 8283.403125h5946.523438" fill="none" stroke="#000" stroke-linecap="round" stroke-miterlimit="10" stroke-width="6.25903" transform="matrix(.1 0 0 -.1 0 857.27)"/></g><path d="m1740.039062 7847.54375h155.78125" fill="none" stroke="#000" stroke-linecap="round" stroke-miterlimit="10" stroke-width="14.9763" transform="matrix(.1 0 0 -.1 0 857.27)"/><use x="542.83" xlink:href="#Q" y="55.082"/><use x="524.7101" xlink:href="#X" y="95.4754"/><use x="536.615193" xlink:href="#Y" y="95.4754"/><use x="548.520677" xlink:href="#Z" y="95.4754"/><use x="566.378931" xlink:href="#aa" y="95.4754"/><path d="m5011.523438 8084.614063h4.140624v283.984375h-4.140624zm0 0" fill="none" stroke="#000" stroke-linejoin="round" stroke-miterlimit="10" stroke-width="3.98381" transform="matrix(.1 0 0 -.1 0 857.27)"/><path d="m501.152344 48.808594h.414062v-28.394532h-.414062zm0 0"/><use x="487.316" xlink:href="#ab" y="95.476"/><use x="492.92814" xlink:href="#Y" y="95.476"/><use x="490.38358" xlink:href="#Q" y="50.724"/><path d="m4382.695312 7820.473438h4.179688v269.414062h-4.179688zm0 0" fill="none" stroke="#000" stroke-linejoin="round" stroke-miterlimit="10" stroke-width="3.98381" transform="matrix(.1 0 0 -.1 0 857.27)"/><path d="m438.269531 75.222656h.417969v-26.941406h-.417969zm0 0"/><use x="435.428" xlink:href="#ac" y="95.476"/><use x="441.381157" xlink:href="#ad" y="95.476"/><use x="438.07019" xlink:href="#Q" y="46.3655"/><use x="401.57019" xlink:href="#R" y="20.4124"/><path d="m4009.53125 8084.614063h4.179688v283.984375h-4.179688zm0 0" fill="none" stroke="#000" stroke-linejoin="round" stroke-miterlimit="10" stroke-width="3.98381" transform="matrix(.1 0 0 -.1 0 857.27)"/><path d="m400.953125 48.808594h.417969v-28.394532h-.417969zm0 0"/><use x="383.972" xlink:href="#ae" y="95.476"/><use x="395.877093" xlink:href="#X" y="95.476"/><use x="390.18645" xlink:href="#Q" y="50.724"/><path d="m3485.078125 8041.020313h4.179687v283.984375h-4.179687zm0 0" fill="none" stroke="#000" stroke-linejoin="round" stroke-miterlimit="10" stroke-width="3.98381" transform="matrix(.1 0 0 -.1 0 857.27)"/><path d="m348.507812 53.167969h.414063v-28.398438h-.414063zm0 0"/><use x="320.386" xlink:href="#af" y="95.476"/><use x="330.760624" xlink:href="#Y" y="95.476"/><use x="342.665717" xlink:href="#Z" y="95.476"/><use x="360.523947" xlink:href="#aa" y="95.476"/><use x="337.7395" xlink:href="#Q" y="55.0826"/><path d="m921.210938 7677.114063h52.539062v3.125h-52.539062zm0 0" fill="none" stroke="#000" stroke-linejoin="round" stroke-miterlimit="10" stroke-width="5.01245" transform="matrix(.1 0 0 -.1 0 857.27)"/><path d="m92.121094 89.558594h5.253906v-.3125h-5.253906zm0 0"/><path d="m1281.914062 8145.785938v-37.890625l590.9375-17.773438v37.851563zm0 0" fill="none" stroke="#000" stroke-linejoin="round" stroke-miterlimit="10" stroke-width="3.98381" transform="matrix(.1 0 0 -.1 0 857.27)"/><path d="m128.191406 42.691406v3.789063l59.09375 1.777343v-3.785156zm0 0"/><path d="m1467.65625 7677.114063h52.539062v3.125h-52.539062zm0 0" fill="none" stroke="#000" stroke-linejoin="round" stroke-miterlimit="10" stroke-width="5.01245" transform="matrix(.1 0 0 -.1 0 857.27)"/><path d="m146.765625 89.558594h5.25v-.3125h-5.25zm0 0"/><g fill="none" stroke="#000" stroke-linecap="round" stroke-linejoin="round" stroke-miterlimit="10" transform="matrix(.1 0 0 -.1 0 857.27)"><g stroke-width="10.0162"><path d="m3019.6875 8404.223438v-61.015625"/><path d="m2452.226562 8404.223438v-61.015625"/><path d="m3019.6875 8404.223438h-275.039062"/><path d="m2452.226562 8404.223438h292.421876"/></g><path d="m3107.851562 7677.114063h52.539063v3.125h-52.539063zm0 0" stroke-width="5.01245"/></g><path d="m310.785156 89.558594h5.253906v-.3125h-5.253906zm0 0"/><g fill="none" stroke="#000" stroke-linecap="round" stroke-linejoin="round" stroke-miterlimit="10" transform="matrix(.1 0 0 -.1 0 857.27)"><g stroke-width="10.0162"><path d="m4033.046875 8480.825v-61.015625"/><path d="m3465.742188 8431.29375v-61.015625"/><path d="m4033.046875 8480.825-274.960937-24.023437"/><path d="m3465.742188 8431.29375 292.34375 25.507813"/></g><path d="m4670.78125 7677.114063h52.539062v3.125h-52.539062zm0 0" stroke-width="5.01245"/></g><path d="m467.078125 89.558594h5.253906v-.3125h-5.253906zm0 0"/><path d="m5121.445312 7677.114063h52.539063v3.125h-52.539063zm0 0" style="fill:none;stroke-width:5.01245;stroke-linecap:round;stroke-linejoin:round;stroke:#000;stroke-miterlimit:10" transform="matrix(.1 0 0 -.1 0 857.27)"/><path d="m512.144531 89.558594h5.253907v-.3125h-5.253907zm0 0"/><path d="m5535.976562 8041.020313h4.140626v283.984375h-4.140626zm0 0" style="fill:none;stroke-width:3.98381;stroke-linecap:round;stroke-linejoin:round;stroke:#000;stroke-miterlimit:10" transform="matrix(.1 0 0 -.1 0 857.27)"/><path d="m553.597656 53.167969h.414063v-28.398438h-.414063zm0 0"/><use x="582.2" xlink:href="#S" y="37.648"/><use x="35.302" xlink:href="#aF" y="95.4761"/><use x="46.017209" xlink:href="#aG" y="95.4761"/><path d="m1281.914062 7910.278125h4.140626v214.453125h-4.140626zm0 0" style="fill:none;stroke-width:3.98381;stroke-linecap:round;stroke-linejoin:round;stroke:#000;stroke-miterlimit:10" transform="matrix(.1 0 0 -.1 0 857.27)"/><path d="m128.191406 66.242188h.414063v-21.445313h-.414063zm0 0"/><use x="117.423" xlink:href="#Q" y="68.159"/><path d="m779.257812 7997.426563h4.140626v283.984375h-4.140626zm0 0" style="fill:none;stroke-width:3.98381;stroke-linecap:round;stroke-linejoin:round;stroke:#000;stroke-miterlimit:10" transform="matrix(.1 0 0 -.1 0 857.27)"/><path d="m77.925781 57.527344h.414063v-28.398438h-.414063zm0 0"/><use x="103.81" xlink:href="#ag" y="95.476"/><use x="115.545183" xlink:href="#ah" y="95.476"/><use x="125.749896" xlink:href="#Y" y="95.476"/><use x="137.655001" xlink:href="#ai" y="95.476"/><use x="60.006368" xlink:href="#aj" y="95.476"/><use x="73.78218" xlink:href="#Y" y="95.476"/><use x="38.3881" xlink:href="#T" y="46.3655"/><use x="6.9736" xlink:href="#U" y="55.08269"/><use x="67.1552" xlink:href="#Q" y="59.44128"/><path d="m2471.640625 7997.426563h4.140625v283.984375h-4.140625zm0 0" style="fill:none;stroke-width:3.98381;stroke-linecap:round;stroke-linejoin:round;stroke:#000;stroke-miterlimit:10" transform="matrix(.1 0 0 -.1 0 857.27)"/><path d="m247.164062 57.527344h.414063v-28.398438h-.414063zm0 0"/><use x="221.167" xlink:href="#Z" y="95.476"/><use x="239.02523" xlink:href="#Y" y="95.476"/><use x="251.100636" xlink:href="#ag" y="95.476"/><use x="236.3955" xlink:href="#Q" y="59.4412"/><use x="288.841368" xlink:href="#Q" y="59.4412"/><use x="282.6275" xlink:href="#X" y="95.476"/><use x="294.532593" xlink:href="#Y" y="95.476"/><path d="m1868.710938 7866.684375h4.140624v240.507813h-4.140624zm0 0" style="fill:none;stroke-width:3.98381;stroke-linecap:round;stroke-linejoin:round;stroke:#000;stroke-miterlimit:10" transform="matrix(.1 0 0 -.1 0 857.27)"/><path d="m186.867188 70.601562h.417968v-24.050781h-.417968zm0 0"/><use x="156.366" xlink:href="#Z" y="95.476"/><use x="174.224242" xlink:href="#Y" y="95.476"/><use x="185.789503" xlink:href="#ak" y="95.476"/><use x="196.504765" xlink:href="#ak" y="95.476"/><path d="m2996.09375 7997.426563h4.179688v283.984375h-4.179688zm0 0" style="fill:none;stroke-width:3.98381;stroke-linecap:round;stroke-linejoin:round;stroke:#000;stroke-miterlimit:10" transform="matrix(.1 0 0 -.1 0 857.27)"/><path d="m299.609375 57.527344h.414063v-28.398438h-.414063zm0 0"/><use x="176.101" xlink:href="#Q" y="72.517"/><use x="300.224" xlink:href="#R" y="29.1291"/><g clip-path="url(#f)"><path d="m3.125 6888.6375h5946.523438" style="fill:none;stroke-width:6.25903;stroke-linecap:round;stroke-linejoin:round;stroke:#000;stroke-miterlimit:10" transform="matrix(.1 0 0 -.1 0 857.27)"/></g><g clip-path="url(#g)"><path d="m3.125 6975.785938h5946.523438" style="fill:none;stroke-width:6.25903;stroke-linecap:round;stroke-linejoin:round;stroke:#000;stroke-miterlimit:10" transform="matrix(.1 0 0 -.1 0 857.27)"/></g><g clip-path="url(#h)"><path d="m3.125 7062.973438h5946.523438" style="fill:none;stroke-width:6.25903;stroke-linecap:round;stroke-linejoin:round;stroke:#000;stroke-miterlimit:10" transform="matrix(.1 0 0 -.1 0 857.27)"/></g><g clip-path="url(#i)"><path d="m3.125 7150.121875h5946.523438" style="fill:none;stroke-width:6.25903;stroke-linecap:round;stroke-linejoin:round;stroke:#000;stroke-miterlimit:10" transform="matrix(.1 0 0 -.1 0 857.27)"/></g><g clip-path="url(#j)"><path d="m3.125 7237.309375h5946.523438" style="fill:none;stroke-width:6.25903;stroke-linecap:round;stroke-linejoin:round;stroke:#000;stroke-miterlimit:10" transform="matrix(.1 0 0 -.1 0 857.27)"/></g><use x="430.358" xlink:href="#Q" y="159.69"/><use x="421.25292" xlink:href="#ag" y="199.0615"/><use x="433.158013" xlink:href="#Y" y="199.0615"/><use x="444.893185" xlink:href="#ab" y="199.0615"/><path d="m4411.289062 6994.926563h4.140626v283.984375h-4.140626zm0 0" style="fill:none;stroke-width:3.98381;stroke-linecap:round;stroke-linejoin:round;stroke:#000;stroke-miterlimit:10" transform="matrix(.1 0 0 -.1 0 857.27)"/><path d="m441.125 157.777344h.417969v-28.398438h-.417969zm0 0"/><use x="485.879" xlink:href="#Q" y="150.973"/><use x="479.66533" xlink:href="#Y" y="199.0617"/><use x="491.570423" xlink:href="#X" y="199.0617"/><path d="m4860.78125 6774.379688h4.140625v269.453125h-4.140625zm0 0" style="fill:none;stroke-width:3.98381;stroke-linecap:round;stroke-linejoin:round;stroke:#000;stroke-miterlimit:10" transform="matrix(.1 0 0 -.1 0 857.27)"/><path d="m486.078125 179.832031h.414063v-26.945312h-.414063zm0 0"/><path d="m3813.671875 6803.598438h4.179687v240.234375h-4.179687zm0 0" style="fill:none;stroke-width:3.98381;stroke-linecap:round;stroke-linejoin:round;stroke:#000;stroke-miterlimit:10" transform="matrix(.1 0 0 -.1 0 857.27)"/><path d="m381.367188 176.910156h.417968v-24.023437h-.417968zm0 0"/><use x="372.148" xlink:href="#af" y="199.062"/><use x="382.522624" xlink:href="#Y" y="199.062"/><use x="394.427717" xlink:href="#al" y="199.062"/><use x="381.1687" xlink:href="#Q" y="150.9733"/><path d="m3314.21875 6821.098438h4.179688v266.328125h-4.179688zm0 0" style="fill:none;stroke-width:3.98381;stroke-linecap:round;stroke-linejoin:round;stroke:#000;stroke-miterlimit:10" transform="matrix(.1 0 0 -.1 0 857.27)"/><path d="m331.421875 175.160156h.417969v-26.632812h-.417969zm0 0"/><use x="319.057" xlink:href="#ag" y="199.062"/><use x="330.962093" xlink:href="#Y" y="199.062"/><use x="342.867577" xlink:href="#X" y="199.062"/><use x="331.2238" xlink:href="#Q" y="146.6143"/><path d="m1318.164062 7218.403125h503.632813v37.851563h-503.632813zm0 0" fill="none" stroke="#000" stroke-linejoin="round" stroke-miterlimit="10" stroke-width="3.98381" transform="matrix(.1 0 0 -.1 0 857.27)"/><path d="m131.816406 135.429688h50.363282v-3.785157h-50.363282zm0 0"/><path d="m1987.34375 6641.254688h52.539062v3.125h-52.539062zm0 0" fill="none" stroke="#000" stroke-linejoin="round" stroke-miterlimit="10" stroke-width="5.01245" transform="matrix(.1 0 0 -.1 0 857.27)"/><path d="m198.734375 193.144531h5.25v-.3125h-5.25zm0 0"/><path d="m2991.679688 6641.254688h52.539062v3.125h-52.539062zm0 0" fill="none" stroke="#000" stroke-linejoin="round" stroke-miterlimit="10" stroke-width="5.01245" transform="matrix(.1 0 0 -.1 0 857.27)"/><path d="m299.167969 193.144531h5.253906v-.3125h-5.253906zm0 0"/><path d="m3314.21875 6838.16875v-37.851562l503.59375-17.773438v37.851563zm0 0" fill="none" stroke="#000" stroke-linejoin="round" stroke-miterlimit="10" stroke-width="3.98381" transform="matrix(.1 0 0 -.1 0 857.27)"/><path d="m331.421875 173.453125v3.785156l50.359375 1.777344v-3.785156zm0 0"/><path d="m4087.851562 6641.254688h52.539063v3.125h-52.539063zm0 0" fill="none" stroke="#000" stroke-linejoin="round" stroke-miterlimit="10" stroke-width="5.01245" transform="matrix(.1 0 0 -.1 0 857.27)"/><path d="m408.785156 193.144531h5.253906v-.3125h-5.253906zm0 0"/><path d="m5103.085938 6641.254688h52.5v3.125h-52.5zm0 0" fill="none" stroke="#000" stroke-linejoin="round" stroke-miterlimit="10" stroke-width="5.01245" transform="matrix(.1 0 0 -.1 0 857.27)"/><path d="m510.308594 193.144531h5.25v-.3125h-5.25zm0 0"/><use x="540.511" xlink:href="#Q" y="155.332"/><use x="582.2001" xlink:href="#V" y="150.97341"/><path d="m5512.773438 7038.520313h4.179687v283.984375h-4.179687zm0 0" fill="none" stroke="#000" stroke-linejoin="round" stroke-miterlimit="10" stroke-width="3.98381" transform="matrix(.1 0 0 -.1 0 857.27)"/><path d="m551.277344 153.417969h.417968v-28.398438h-.417968zm0 0"/><use x="522.391" xlink:href="#ag" y="199.062"/><use x="534.296093" xlink:href="#Y" y="199.062"/><use x="546.201186" xlink:href="#Z" y="199.062"/><use x="564.059831" xlink:href="#aa" y="199.062"/><use x="115.259429" xlink:href="#am" y="199.062"/><use x="127.505552" xlink:href="#ak" y="199.062"/><path d="m770.546875 6951.371875h4.140625v283.945313h-4.140625zm0 0" fill="none" stroke="#000" stroke-linejoin="round" stroke-miterlimit="10" stroke-width="3.98381" transform="matrix(.1 0 0 -.1 0 857.27)"/><path d="m77.054688 162.136719h.414062v-28.398438h-.414062zm0 0"/><use x="50.2055" xlink:href="#an" y="199.062"/><use x="68.064127" xlink:href="#Y" y="199.062"/><use x="79.969226" xlink:href="#al" y="199.062"/><use x="87.793066" xlink:href="#ab" y="199.062"/><use x="66.284" xlink:href="#Q" y="164.0491"/><use x="121.0496" xlink:href="#Q" y="159.69051"/><use x="38.3883" xlink:href="#T" y="150.97332"/><use x="6.9738" xlink:href="#U" y="159.69051"/><path d="m2766.601562 6803.442188h4.140626v283.984375h-4.140626zm0 0" fill="none" stroke="#000" stroke-linejoin="round" stroke-miterlimit="10" stroke-width="3.98381" transform="matrix(.1 0 0 -.1 0 857.27)"/><path d="m276.660156 176.925781h.414063v-28.398437h-.414063zm0 0"/><use x="279.77" xlink:href="#ao" y="199.062"/><use x="276.45906" xlink:href="#Q" y="146.6143"/><path d="m2317.070312 7038.520313h4.140626v283.984375h-4.140626zm0 0" fill="none" stroke="#000" stroke-linejoin="round" stroke-miterlimit="10" stroke-width="3.98381" transform="matrix(.1 0 0 -.1 0 857.27)"/><path d="m231.707031 153.417969h.414063v-28.398438h-.414063zm0 0"/><use x="211.153" xlink:href="#ap" y="199.062"/><use x="223.058484" xlink:href="#Y" y="199.062"/><use x="234.963577" xlink:href="#al" y="199.062"/><use x="220.93855" xlink:href="#Q" y="155.3319"/><path d="m1318.164062 6994.926563h4.179688v240.390625h-4.179688zm0 0" fill="none" stroke="#000" stroke-linejoin="round" stroke-miterlimit="10" stroke-width="3.98381" transform="matrix(.1 0 0 -.1 0 857.27)"/><path d="m131.816406 157.777344h.417969v-24.039063h-.417969zm0 0"/><path d="m1817.617188 6994.926563h4.179687v240.390625h-4.179687zm0 0" fill="none" stroke="#000" stroke-linejoin="round" stroke-miterlimit="10" stroke-width="3.98381" transform="matrix(.1 0 0 -.1 0 857.27)"/><path d="m181.761719 157.777344h.417969v-24.039063h-.417969zm0 0"/><use x="161.804" xlink:href="#Y" y="199.062"/><use x="173.709105" xlink:href="#Z" y="199.062"/><use x="170.99345" xlink:href="#Q" y="159.6905"/><g clip-path="url(#k)"><path d="m3.125 5842.54375h5946.523438" style="fill:none;stroke-width:6.25903;stroke-linecap:round;stroke-linejoin:round;stroke:#000;stroke-miterlimit:10" transform="matrix(.1 0 0 -.1 0 857.27)"/></g><g clip-path="url(#l)"><path d="m3.125 5929.73125h5946.523438" style="fill:none;stroke-width:6.25903;stroke-linecap:round;stroke-linejoin:round;stroke:#000;stroke-miterlimit:10" transform="matrix(.1 0 0 -.1 0 857.27)"/></g><g clip-path="url(#m)"><path d="m3.125 6016.879688h5946.523438" style="fill:none;stroke-width:6.25903;stroke-linecap:round;stroke-linejoin:round;stroke:#000;stroke-miterlimit:10" transform="matrix(.1 0 0 -.1 0 857.27)"/></g><g clip-path="url(#n)"><path d="m3.125 6104.067188h5946.523438" style="fill:none;stroke-width:6.25903;stroke-linecap:round;stroke-linejoin:round;stroke:#000;stroke-miterlimit:10" transform="matrix(.1 0 0 -.1 0 857.27)"/></g><g clip-path="url(#o)"><path d="m3.125 6191.254688h5946.523438" style="fill:none;stroke-width:6.25903;stroke-linecap:round;stroke-linejoin:round;stroke:#000;stroke-miterlimit:10" transform="matrix(.1 0 0 -.1 0 857.27)"/></g><path d="m5370.78125 5755.395313h155.78125" style="fill:none;stroke-width:14.9763;stroke-linecap:round;stroke-linejoin:round;stroke:#000;stroke-miterlimit:10" transform="matrix(.1 0 0 -.1 0 857.27)"/><use x="434.275" xlink:href="#Y" y="303.526"/><use x="446.180484" xlink:href="#ai" y="303.526"/><path d="m4476.875 5818.090625h4.140625v266.210938h-4.140625zm0 0" fill="none" stroke="#000" stroke-linejoin="round" stroke-miterlimit="10" stroke-width="3.98381" transform="matrix(.1 0 0 -.1 0 857.27)"/><path d="m447.6875 275.460938h.414062v-26.617188h-.414062zm0 0"/><use x="488.048" xlink:href="#Q" y="277.374"/><use x="485.40503" xlink:href="#ai" y="303.526"/><use x="490.167147" xlink:href="#Y" y="303.526"/><path d="m4988.164062 5818.090625h4.179688v266.210938h-4.179688zm0 0" fill="none" stroke="#000" stroke-linejoin="round" stroke-miterlimit="10" stroke-width="3.98381" transform="matrix(.1 0 0 -.1 0 857.27)"/><path d="m498.816406 275.460938h.414063v-26.617188h-.414063zm0 0"/><use x="334.658" xlink:href="#Q" y="268.657"/><use x="436.917" xlink:href="#Q" y="277.37419"/><path d="m3965.585938 5861.684375h4.140624v240.546875h-4.140624zm0 0" fill="none" stroke="#000" stroke-linejoin="round" stroke-miterlimit="10" stroke-width="3.98381" transform="matrix(.1 0 0 -.1 0 857.27)"/><path d="m396.554688 271.101562h.417968v-24.054687h-.417968zm0 0"/><use x="370.645" xlink:href="#Z" y="303.526"/><use x="388.50323" xlink:href="#am" y="303.526"/><use x="400.408323" xlink:href="#aq" y="303.526"/><use x="385.7876" xlink:href="#Q" y="273.0155"/><path d="m3454.257812 5905.278125h4.179688v214.453125h-4.179688zm0 0" fill="none" stroke="#000" stroke-linejoin="round" stroke-miterlimit="10" stroke-width="3.98381" transform="matrix(.1 0 0 -.1 0 857.27)"/><path d="m345.425781 266.742188h.417969v-21.445313h-.417969zm0 0"/><use x="331.421" xlink:href="#ab" y="303.526"/><use x="337.374132" xlink:href="#ar" y="303.526"/><path d="m1331.523438 6227.973438v-37.851563l515.429687-17.8125v37.851563zm0 0" fill="none" stroke="#000" stroke-linejoin="round" stroke-miterlimit="10" stroke-width="3.98381" transform="matrix(.1 0 0 -.1 0 857.27)"/><path d="m133.152344 234.472656v3.785156l51.542968 1.78125v-3.785156zm0 0"/><path d="m1525 5596.60625h52.539062v3.125h-52.539062zm0 0" fill="none" stroke="#000" stroke-linejoin="round" stroke-miterlimit="10" stroke-width="5.01245" transform="matrix(.1 0 0 -.1 0 857.27)"/><path d="m152.5 297.609375h5.25v-.3125h-5.25zm0 0"/><path d="m1968.867188 5596.60625h52.5v3.125h-52.5zm0 0" fill="none" stroke="#000" stroke-linejoin="round" stroke-miterlimit="10" stroke-width="5.01245" transform="matrix(.1 0 0 -.1 0 857.27)"/><path d="m196.886719 297.609375h5.25v-.3125h-5.25zm0 0"/><path d="m2535.742188 5596.60625h52.539062v3.125h-52.539062zm0 0" fill="none" stroke="#000" stroke-linejoin="round" stroke-miterlimit="10" stroke-width="5.01245" transform="matrix(.1 0 0 -.1 0 857.27)"/><path d="m253.574219 297.609375h5.253906v-.3125h-5.253906zm0 0"/><path d="m3454.257812 6140.785938v-37.851563l515.46875-17.8125v37.890625zm0 0" fill="none" stroke="#000" stroke-linejoin="round" stroke-miterlimit="10" stroke-width="3.98381" transform="matrix(.1 0 0 -.1 0 857.27)"/><path d="m345.425781 243.191406v3.785156l51.546875 1.78125v-3.789062zm0 0"/><path d="m3573.359375 5596.60625h52.539063v3.125h-52.539063zm0 0" fill="none" stroke="#000" stroke-linejoin="round" stroke-miterlimit="10" stroke-width="5.01245" transform="matrix(.1 0 0 -.1 0 857.27)"/><path d="m357.335938 297.609375h5.253906v-.3125h-5.253906zm0 0"/><path d="m4476.875 6067.348438h515.429688v37.851562h-515.429688zm0 0" fill="none" stroke="#000" stroke-linejoin="round" stroke-miterlimit="10" stroke-width="3.98381" transform="matrix(.1 0 0 -.1 0 857.27)"/><path d="m447.6875 250.535156h51.542969v-3.785156h-51.542969zm0 0"/><path d="m4655.46875 5596.60625h52.539062v3.125h-52.539062zm0 0" fill="none" stroke="#000" stroke-linejoin="round" stroke-miterlimit="10" stroke-width="5.01245" transform="matrix(.1 0 0 -.1 0 857.27)"/><path d="m465.546875 297.609375h5.253906v-.3125h-5.253906zm0 0"/><path d="m5089.375 5596.60625h52.539062v3.125h-52.539062zm0 0" fill="none" stroke="#000" stroke-linejoin="round" stroke-miterlimit="10" stroke-width="5.01245" transform="matrix(.1 0 0 -.1 0 857.27)"/><path d="m508.9375 297.609375h5.253906v-.3125h-5.253906zm0 0"/><use x="539.178" xlink:href="#Q" y="281.732"/><use x="582.1999" xlink:href="#S" y="246.8629"/><path d="m5499.453125 5774.535938h4.179687v283.945312h-4.179687zm0 0" fill="none" stroke="#000" stroke-linejoin="round" stroke-miterlimit="10" stroke-width="3.98381" transform="matrix(.1 0 0 -.1 0 857.27)"/><path d="m549.945312 279.816406h.417969v-28.394531h-.417969zm0 0"/><use x="521.058" xlink:href="#X" y="303.526"/><use x="532.963093" xlink:href="#Y" y="303.526"/><use x="544.868186" xlink:href="#Z" y="303.526"/><use x="562.726441" xlink:href="#aa" y="303.526"/><path d="m1331.523438 5992.465625h4.140624v214.414063h-4.140624zm0 0" fill="none" stroke="#000" stroke-linejoin="round" stroke-miterlimit="10" stroke-width="3.98381" transform="matrix(.1 0 0 -.1 0 857.27)"/><path d="m133.152344 258.023438h.414062v-21.441407h-.414062zm0 0"/><use x="116.169" xlink:href="#as" y="303.526"/><use x="128.074105" xlink:href="#am" y="303.526"/><use x="122.38267" xlink:href="#Q" y="259.9393"/><path d="m770.546875 5948.871875h4.140625v283.984375h-4.140625zm0 0" fill="none" stroke="#000" stroke-linejoin="round" stroke-miterlimit="10" stroke-width="3.98381" transform="matrix(.1 0 0 -.1 0 857.27)"/><path d="m77.054688 262.382812h.414062v-28.394531h-.414062zm0 0"/><use x="47.1441" xlink:href="#at" y="303.526"/><use x="62.621473" xlink:href="#am" y="303.526"/><use x="74.357041" xlink:href="#ag" y="303.526"/><use x="86.092217" xlink:href="#ah" y="303.526"/><use x="66.2839" xlink:href="#Q" y="264.2983"/><use x="38.3882" xlink:href="#T" y="255.58072"/><use x="6.9737" xlink:href="#U" y="264.2983"/><use x="278.5607" xlink:href="#Q" y="273.01549"/><path d="m2332.304688 5861.684375h4.179687v283.984375h-4.179687zm0 0" fill="none" stroke="#000" stroke-linejoin="round" stroke-miterlimit="10" stroke-width="3.98381" transform="matrix(.1 0 0 -.1 0 857.27)"/><path d="m233.230469 271.101562h.414062v-28.398437h-.414062zm0 0"/><use x="210.891" xlink:href="#ai" y="303.526"/><use x="215.653117" xlink:href="#au" y="303.526"/><use x="227.558601" xlink:href="#Z" y="303.526"/><use x="222.4621" xlink:href="#Q" y="273.0155"/><path d="m1842.8125 5948.871875h4.140625v240.507813h-4.140625zm0 0" fill="none" stroke="#000" stroke-linejoin="round" stroke-miterlimit="10" stroke-width="3.98381" transform="matrix(.1 0 0 -.1 0 857.27)"/><path d="m184.28125 262.382812h.414062v-24.050781h-.414062zm0 0"/><use x="170.274" xlink:href="#ab" y="303.526"/><use x="176.227132" xlink:href="#am" y="303.526"/><use x="266.98936" xlink:href="#Z" y="303.526"/><use x="284.84759" xlink:href="#am" y="303.526"/><use x="296.753074" xlink:href="#ai" y="303.526"/><use x="173.51189" xlink:href="#Q" y="264.2983"/><path d="m2893.28125 5861.684375h4.179688v283.984375h-4.179688zm0 0" fill="none" stroke="#000" stroke-linejoin="round" stroke-miterlimit="10" stroke-width="3.98381" transform="matrix(.1 0 0 -.1 0 857.27)"/><path d="m289.328125 271.101562h.417969v-28.398437h-.417969zm0 0"/><g clip-path="url(#p)"><path d="m3.125 4796.489063h5946.523438" style="fill:none;stroke-width:6.25903;stroke-linecap:round;stroke-linejoin:round;stroke:#000;stroke-miterlimit:10" transform="matrix(.1 0 0 -.1 0 857.27)"/></g><g clip-path="url(#q)"><path d="m3.125 4883.6375h5946.523438" style="fill:none;stroke-width:6.25903;stroke-linecap:round;stroke-linejoin:round;stroke:#000;stroke-miterlimit:10" transform="matrix(.1 0 0 -.1 0 857.27)"/></g><g clip-path="url(#r)"><path d="m3.125 4970.825h5946.523438" style="fill:none;stroke-width:6.25903;stroke-linecap:round;stroke-linejoin:round;stroke:#000;stroke-miterlimit:10" transform="matrix(.1 0 0 -.1 0 857.27)"/></g><g clip-path="url(#s)"><path d="m3.125 5057.973438h5946.523438" style="fill:none;stroke-width:6.25903;stroke-linecap:round;stroke-linejoin:round;stroke:#000;stroke-miterlimit:10" transform="matrix(.1 0 0 -.1 0 857.27)"/></g><g clip-path="url(#t)"><path d="m3.125 5145.160938h5946.523438" style="fill:none;stroke-width:6.25903;stroke-linecap:round;stroke-linejoin:round;stroke:#000;stroke-miterlimit:10" transform="matrix(.1 0 0 -.1 0 857.27)"/></g><g clip-path="url(#u)"><path d="m5933.984375 4796.489063v348.671875" fill="none" stroke="#000" stroke-linejoin="round" stroke-miterlimit="10" stroke-width="37.5716" transform="matrix(.1 0 0 -.1 0 857.27)"/></g><use x="510.406" xlink:href="#Q" y="373.265"/><path d="m4421.171875 4902.778125h4.179687v283.984375h-4.179687zm0 0" fill="none" stroke="#000" stroke-linejoin="round" stroke-miterlimit="10" stroke-width="3.98381" transform="matrix(.1 0 0 -.1 0 857.27)"/><path d="m442.117188 366.992188h.417968v-28.398438h-.417968zm0 0"/><use x="288.279" xlink:href="#Q" y="368.906"/><use x="419.779" xlink:href="#as" y="408.1341"/><use x="431.684484" xlink:href="#Y" y="408.1341"/><use x="443.589577" xlink:href="#ad" y="408.1341"/><use x="431.3505" xlink:href="#Q" y="368.906"/><path d="m3705.820312 4859.184375h4.179688v266.289063h-4.179688zm0 0" fill="none" stroke="#000" stroke-linejoin="round" stroke-miterlimit="10" stroke-width="3.98381" transform="matrix(.1 0 0 -.1 0 857.27)"/><path d="m370.582031 371.351562h.417969v-26.628906h-.417969zm0 0"/><use x="354.281" xlink:href="#Y" y="408.134"/><use x="366.016172" xlink:href="#av" y="408.134"/><use x="370.778289" xlink:href="#ab" y="408.134"/><use x="359.81459" xlink:href="#Q" y="373.2649"/><path d="m2990.46875 4902.778125h4.179688v240.3125h-4.179688zm0 0" fill="none" stroke="#000" stroke-linejoin="round" stroke-miterlimit="10" stroke-width="3.98381" transform="matrix(.1 0 0 -.1 0 857.27)"/><path d="m299.046875 366.992188h.414063v-24.027344h-.414063zm0 0"/><use x="285.637" xlink:href="#Y" y="408.134"/><use x="297.542093" xlink:href="#ai" y="408.134"/><path d="m1559.765625 5251.254688v-37.851563l719.492187-17.773437v37.851562zm0 0" fill="none" stroke="#000" stroke-linejoin="round" stroke-miterlimit="10" stroke-width="3.98381" transform="matrix(.1 0 0 -.1 0 857.27)"/><path d="m155.976562 332.144531v3.785157l71.949219 1.777343v-3.785156zm0 0"/><path d="m1795.742188 4550.5125h52.539062v3.164063h-52.539062zm0 0" fill="none" stroke="#000" stroke-linejoin="round" stroke-miterlimit="10" stroke-width="5.01245" transform="matrix(.1 0 0 -.1 0 857.27)"/><path d="m179.574219 402.21875h5.253906v-.316406h-5.253906zm0 0"/><path d="m2990.46875 5164.10625v-37.851562l719.492188-17.8125v37.851562zm0 0" fill="none" stroke="#000" stroke-linejoin="round" stroke-miterlimit="10" stroke-width="3.98381" transform="matrix(.1 0 0 -.1 0 857.27)"/><path d="m299.046875 340.859375v3.785156l71.949219 1.78125v-3.785156zm0 0"/><path d="m3256.640625 4550.5125h52.539063v3.164063h-52.539063zm0 0" fill="none" stroke="#000" stroke-linejoin="round" stroke-miterlimit="10" stroke-width="5.01245" transform="matrix(.1 0 0 -.1 0 857.27)"/><path d="m325.664062 402.21875h5.253907v-.316406h-5.253907zm0 0"/><path d="m3956.289062 4550.5125h52.539063v3.164063h-52.539063zm0 0" fill="none" stroke="#000" stroke-linejoin="round" stroke-miterlimit="10" stroke-width="5.01245" transform="matrix(.1 0 0 -.1 0 857.27)"/><path d="m395.628906 402.21875h5.253906v-.316406h-5.253906zm0 0"/><path d="m4724.53125 4550.5125h52.539062v3.164063h-52.539062zm0 0" fill="none" stroke="#000" stroke-linejoin="round" stroke-miterlimit="10" stroke-width="5.01245" transform="matrix(.1 0 0 -.1 0 857.27)"/><path d="m472.453125 402.21875h5.253906v-.316406h-5.253906zm0 0"/><use x="495.858" xlink:href="#ad" y="408.134"/><use x="506.573274" xlink:href="#Y" y="408.134"/><use x="518.478367" xlink:href="#X" y="408.134"/><use x="530.383851" xlink:href="#aw" y="408.134"/><path d="m5211.757812 4859.184375h4.140626v283.984375h-4.140626zm0 0" fill="none" stroke="#000" stroke-linejoin="round" stroke-miterlimit="10" stroke-width="3.98381" transform="matrix(.1 0 0 -.1 0 857.27)"/><path d="m521.175781 371.351562h.414063v-28.398437h-.414063zm0 0"/><use x="66.284" xlink:href="#Q" y="355.83"/><use x="38.3883" xlink:href="#T" y="360.18859"/><use x="6.9738" xlink:href="#U" y="368.90578"/><use x="47.0593" xlink:href="#ax" y="408.13388"/><use x="62.537064" xlink:href="#au" y="408.13388"/><use x="74.442163" xlink:href="#ag" y="408.13388"/><use x="86.177731" xlink:href="#ah" y="408.13388"/><path d="m2275.117188 4946.371875h4.140624v266.289063h-4.140624zm0 0" fill="none" stroke="#000" stroke-linejoin="round" stroke-miterlimit="10" stroke-width="3.98381" transform="matrix(.1 0 0 -.1 0 857.27)"/><path d="m227.511719 362.632812h.414062v-26.628906h-.414062zm0 0"/><use x="201.6" xlink:href="#ag" y="408.134"/><use x="213.505093" xlink:href="#Y" y="408.134"/><use x="225.410577" xlink:href="#Z" y="408.134"/><use x="216.743" xlink:href="#Q" y="364.5473"/><path d="m664.84375 4711.29375h4.140625v283.984375h-4.140625zm0 0" fill="none" stroke="#000" stroke-linejoin="round" stroke-miterlimit="10" stroke-width="3.98381" transform="matrix(.1 0 0 -.1 0 857.27)"/><path d="m66.484375 386.140625h.414063v-28.398437h-.414063zm0 0"/><path d="m1559.765625 4989.965625h4.140625v240.273438h-4.140625zm0 0" fill="none" stroke="#000" stroke-linejoin="round" stroke-miterlimit="10" stroke-width="3.98381" transform="matrix(.1 0 0 -.1 0 857.27)"/><path d="m155.976562 358.273438h.414063v-24.027344h-.414063zm0 0"/><use x="138.993" xlink:href="#Y" y="408.134"/><use x="150.898496" xlink:href="#X" y="408.134"/><use x="145.20706" xlink:href="#Q" y="360.1887"/><g clip-path="url(#v)"><path d="m3.125 3750.395313h5946.523438" style="fill:none;stroke-width:6.25903;stroke-linecap:round;stroke-linejoin:round;stroke:#000;stroke-miterlimit:10" transform="matrix(.1 0 0 -.1 0 857.27)"/></g><g clip-path="url(#w)"><path d="m3.125 3837.582813h5946.523438" style="fill:none;stroke-width:6.25903;stroke-linecap:round;stroke-linejoin:round;stroke:#000;stroke-miterlimit:10" transform="matrix(.1 0 0 -.1 0 857.27)"/></g><g clip-path="url(#x)"><path d="m3.125 3924.73125h5946.523438" style="fill:none;stroke-width:6.25903;stroke-linecap:round;stroke-linejoin:round;stroke:#000;stroke-miterlimit:10" transform="matrix(.1 0 0 -.1 0 857.27)"/></g><g clip-path="url(#y)"><path d="m3.125 4011.91875h5946.523438" style="fill:none;stroke-width:6.25903;stroke-linecap:round;stroke-linejoin:round;stroke:#000;stroke-miterlimit:10" transform="matrix(.1 0 0 -.1 0 857.27)"/></g><g clip-path="url(#z)"><path d="m3.125 4099.10625h5946.523438" style="fill:none;stroke-width:6.25903;stroke-linecap:round;stroke-linejoin:round;stroke:#000;stroke-miterlimit:10" transform="matrix(.1 0 0 -.1 0 857.27)"/></g><use x="435.943" xlink:href="#Q" y="460.438"/><use x="424.3719" xlink:href="#X" y="513.0939"/><use x="436.276993" xlink:href="#am" y="513.0939"/><use x="448.182086" xlink:href="#af" y="513.0939"/><path d="m4361.445312 3683.0125h4.140626v266.171875h-4.140626zm0 0" style="fill:none;stroke-width:3.98381;stroke-linecap:round;stroke-linejoin:round;stroke:#000;stroke-miterlimit:10" transform="matrix(.1 0 0 -.1 0 857.27)"/><path d="m436.144531 488.96875h.414063v-26.617188h-.414063zm0 0"/><use x="487.223" xlink:href="#Q" y="456.079"/><use x="472.8457" xlink:href="#ad" y="513.0935"/><use x="483.560974" xlink:href="#ak" y="513.0935"/><use x="493.935622" xlink:href="#ay" y="513.0935"/><use x="505.840715" xlink:href="#al" y="513.0935"/><path d="m4874.21875 3708.79375h4.179688v283.984375h-4.179688zm0 0" style="fill:none;stroke-width:3.98381;stroke-linecap:round;stroke-linejoin:round;stroke:#000;stroke-miterlimit:10" transform="matrix(.1 0 0 -.1 0 857.27)"/><path d="m487.421875 486.390625h.414063v-28.398437h-.414063zm0 0"/><path d="m3902.1875 3683.0125h4.179688v266.171875h-4.179688zm0 0" style="fill:none;stroke-width:3.98381;stroke-linecap:round;stroke-linejoin:round;stroke:#000;stroke-miterlimit:10" transform="matrix(.1 0 0 -.1 0 857.27)"/><path d="m390.21875 488.96875h.417969v-26.617188h-.417969zm0 0"/><use x="381" xlink:href="#ag" y="513.093"/><use x="392.735172" xlink:href="#am" y="513.093"/><use x="404.470733" xlink:href="#ab" y="513.093"/><use x="390.01992" xlink:href="#Q" y="460.4371"/><path d="m3564.882812 3943.871875h4.140626v240.234375h-4.140626zm0 0" style="fill:none;stroke-width:3.98381;stroke-linecap:round;stroke-linejoin:round;stroke:#000;stroke-miterlimit:10" transform="matrix(.1 0 0 -.1 0 857.27)"/><path d="m356.484375 462.882812h.417969v-24.023437h-.417969zm0 0"/><use x="335.932" xlink:href="#ap" y="513.093"/><use x="347.837093" xlink:href="#au" y="513.093"/><use x="359.742577" xlink:href="#al" y="513.093"/><use x="345.71794" xlink:href="#Q" y="464.7957"/><path d="m1170.039062 3644.301563h445.820313v37.851562h-445.820313zm0 0" fill="none" stroke="#000" stroke-linejoin="round" stroke-miterlimit="10" stroke-width="3.98381" transform="matrix(.1 0 0 -.1 0 857.27)"/><path d="m117.003906 492.839844h44.582032v-3.785156h-44.582032zm0 0"/><path d="m1389.765625 3500.942188h52.539063v3.125h-52.539063zm0 0" fill="none" stroke="#000" stroke-linejoin="round" stroke-miterlimit="10" stroke-width="5.01245" transform="matrix(.1 0 0 -.1 0 857.27)"/><path d="m138.976562 507.175781h5.253907v-.3125h-5.253907zm0 0"/><path d="m1875.46875 3500.942188h52.5v3.125h-52.5zm0 0" fill="none" stroke="#000" stroke-linejoin="round" stroke-miterlimit="10" stroke-width="5.01245" transform="matrix(.1 0 0 -.1 0 857.27)"/><path d="m187.546875 507.175781h5.25v-.3125h-5.25zm0 0"/><path d="m2292.34375 3500.942188h52.5v3.125h-52.5zm0 0" fill="none" stroke="#000" stroke-linejoin="round" stroke-miterlimit="10" stroke-width="5.01245" transform="matrix(.1 0 0 -.1 0 857.27)"/><path d="m229.234375 507.175781h5.25v-.3125h-5.25zm0 0"/><path d="m3123.164062 4187.3875v-37.851562l445.859376 17.773437v37.851563zm0 0" fill="none" stroke="#000" stroke-linejoin="round" stroke-miterlimit="10" stroke-width="3.98381" transform="matrix(.1 0 0 -.1 0 857.27)"/><path d="m312.316406 438.53125v3.785156l44.585938-1.777344v-3.785156zm0 0"/><path d="m3249.101562 3500.942188h52.539063v3.125h-52.539063zm0 0" fill="none" stroke="#000" stroke-linejoin="round" stroke-miterlimit="10" stroke-width="5.01245" transform="matrix(.1 0 0 -.1 0 857.27)"/><path d="m324.910156 507.175781h5.253906v-.3125h-5.253906zm0 0"/><path d="m3713.164062 3500.942188h52.5v3.125h-52.5zm0 0" fill="none" stroke="#000" stroke-linejoin="round" stroke-miterlimit="10" stroke-width="5.01245" transform="matrix(.1 0 0 -.1 0 857.27)"/><path d="m371.316406 507.175781h5.25v-.3125h-5.25zm0 0"/><path d="m3902.1875 3662.075h463.398438v37.851563h-463.398438zm0 0" fill="none" stroke="#000" stroke-linejoin="round" stroke-miterlimit="10" stroke-width="3.98381" transform="matrix(.1 0 0 -.1 0 857.27)"/><path d="m390.21875 491.0625h46.339844v-3.785156h-46.339844zm0 0"/><path d="m4147.695312 3500.942188h52.539063v3.125h-52.539063zm0 0" fill="none" stroke="#000" stroke-linejoin="round" stroke-miterlimit="10" stroke-width="5.01245" transform="matrix(.1 0 0 -.1 0 857.27)"/><path d="m414.769531 507.175781h5.253907v-.3125h-5.253907zm0 0"/><path d="m5173.320312 3500.942188h52.5v3.125h-52.5zm0 0" fill="none" stroke="#000" stroke-linejoin="round" stroke-miterlimit="10" stroke-width="5.01245" transform="matrix(.1 0 0 -.1 0 857.27)"/><path d="m517.332031 507.175781h5.25v-.3125h-5.25zm0 0"/><use x="582.2" xlink:href="#S" y="456.079"/><path d="m5472.070312 3665.2h4.140626v283.984375h-4.140626zm0 0" fill="none" stroke="#000" stroke-linejoin="round" stroke-miterlimit="10" stroke-width="3.98381" transform="matrix(.1 0 0 -.1 0 857.27)"/><path d="m547.207031 490.75h.414063v-28.398438h-.414063zm0 0"/><use x="526.932" xlink:href="#X" y="513.093"/><use x="538.497248" xlink:href="#ah" y="513.093"/><use x="548.701974" xlink:href="#Y" y="513.093"/><use x="560.607068" xlink:href="#X" y="513.093"/><use x="572.512551" xlink:href="#aa" y="513.093"/><use x="547.0074" xlink:href="#Q" y="460.4371"/><path d="m1170.039062 3665.2h4.140626v240.390625h-4.140626zm0 0" fill="none" stroke="#000" stroke-linejoin="round" stroke-miterlimit="10" stroke-width="3.98381" transform="matrix(.1 0 0 -.1 0 857.27)"/><path d="m117.003906 490.75h.414063v-24.039062h-.414063zm0 0"/><use x="114.16" xlink:href="#Y" y="513.093"/><use x="126.065105" xlink:href="#ai" y="513.093"/><use x="116.80219" xlink:href="#Q" y="464.7957"/><path d="m779.257812 3813.129688h4.140626v283.984375h-4.140626zm0 0" fill="none" stroke="#000" stroke-linejoin="round" stroke-miterlimit="10" stroke-width="3.98381" transform="matrix(.1 0 0 -.1 0 857.27)"/><path d="m77.925781 475.957031h.414063v-28.394531h-.414063zm0 0"/><use x="54.3941" xlink:href="#az" y="513.093"/><use x="68.68124" xlink:href="#au" y="513.093"/><use x="80.586339" xlink:href="#af" y="513.093"/><use x="67.1554" xlink:href="#Q" y="477.8715"/><use x="38.3882" xlink:href="#T" y="464.7957"/><use x="6.9737" xlink:href="#U" y="473.51289"/><path d="m2157.773438 3900.317188h4.179687v283.945312h-4.179687zm0 0" fill="none" stroke="#000" stroke-linejoin="round" stroke-miterlimit="10" stroke-width="3.98381" transform="matrix(.1 0 0 -.1 0 857.27)"/><path d="m215.777344 467.242188h.417968v-28.398438h-.417968zm0 0"/><path d="m3123.164062 3900.317188h4.140626v266.328125h-4.140626zm0 0" fill="none" stroke="#000" stroke-linejoin="round" stroke-miterlimit="10" stroke-width="3.98381" transform="matrix(.1 0 0 -.1 0 857.27)"/><path d="m312.316406 467.242188h.414063v-26.636719h-.414063zm0 0"/><use x="295.334" xlink:href="#as" y="513.093"/><use x="307.239484" xlink:href="#ar" y="513.093"/><use x="301.54767" xlink:href="#Q" y="469.1543"/><path d="m2640.46875 3856.723438h4.179688v283.945312h-4.179688zm0 0" fill="none" stroke="#000" stroke-linejoin="round" stroke-miterlimit="10" stroke-width="3.98381" transform="matrix(.1 0 0 -.1 0 857.27)"/><path d="m264.046875 471.597656h.414063v-28.394531h-.414063zm0 0"/><use x="241.707" xlink:href="#ag" y="513.093"/><use x="253.612484" xlink:href="#ao" y="513.093"/><use x="258.374601" xlink:href="#Z" y="513.093"/><use x="253.2785" xlink:href="#Q" y="473.5129"/><use x="199.3914" xlink:href="#ad" y="513.093"/><use x="210.10665" xlink:href="#ae" y="513.093"/><use x="205.00976" xlink:href="#Q" y="469.1543"/><use x="160.97266" xlink:href="#Q" y="464.79571"/><use x="152.37735" xlink:href="#ai" y="513.09301"/><use x="157.139467" xlink:href="#Y" y="513.09301"/><use x="169.044963" xlink:href="#X" y="513.09301"/><path d="m1611.71875 3665.2h4.179688v240.390625h-4.179688zm0 0" fill="none" stroke="#000" stroke-linejoin="round" stroke-miterlimit="10" stroke-width="3.98381" transform="matrix(.1 0 0 -.1 0 857.27)"/><path d="m161.171875 490.75h.414063v-24.039062h-.414063zm0 0"/><g clip-path="url(#A)"><path d="m3.125 2704.301563h5946.523438" style="fill:none;stroke-width:6.25903;stroke-linecap:round;stroke-linejoin:round;stroke:#000;stroke-miterlimit:10" transform="matrix(.1 0 0 -.1 0 857.27)"/></g><g clip-path="url(#B)"><path d="m3.125 2791.489063h5946.523438" style="fill:none;stroke-width:6.25903;stroke-linecap:round;stroke-linejoin:round;stroke:#000;stroke-miterlimit:10" transform="matrix(.1 0 0 -.1 0 857.27)"/></g><g clip-path="url(#C)"><path d="m3.125 2878.676563h5946.523438" style="fill:none;stroke-width:6.25903;stroke-linecap:round;stroke-linejoin:round;stroke:#000;stroke-miterlimit:10" transform="matrix(.1 0 0 -.1 0 857.27)"/></g><g clip-path="url(#D)"><path d="m3.125 2965.825h5946.523438" style="fill:none;stroke-width:6.25903;stroke-linecap:round;stroke-linejoin:round;stroke:#000;stroke-miterlimit:10" transform="matrix(.1 0 0 -.1 0 857.27)"/></g><g clip-path="url(#E)"><path d="m3.125 3053.0125h5946.523438" style="fill:none;stroke-width:6.25903;stroke-linecap:round;stroke-linejoin:round;stroke:#000;stroke-miterlimit:10" transform="matrix(.1 0 0 -.1 0 857.27)"/></g><use x="453.008" xlink:href="#Q" y="573.763"/><use x="446.79433" xlink:href="#as" y="617.3493"/><use x="458.699423" xlink:href="#ao" y="617.3493"/><use x="463.46154" xlink:href="#al" y="617.3493"/><path d="m4637.773438 2854.223438h4.140624v266.328125h-4.140624zm0 0" style="fill:none;stroke-width:3.98381;stroke-linecap:round;stroke-linejoin:round;stroke:#000;stroke-miterlimit:10" transform="matrix(.1 0 0 -.1 0 857.27)"/><path d="m463.777344 571.847656h.414062v-26.632812h-.414062zm0 0"/><use x="497.658" xlink:href="#Q" y="578.121"/><use x="494.59042" xlink:href="#ab" y="617.3487"/><use x="500.20256" xlink:href="#Y" y="617.3487"/><path d="m5084.257812 2810.629688h4.179688v283.984375h-4.179688zm0 0" style="fill:none;stroke-width:3.98381;stroke-linecap:round;stroke-linejoin:round;stroke:#000;stroke-miterlimit:10" transform="matrix(.1 0 0 -.1 0 857.27)"/><path d="m508.425781 576.207031h.417969v-28.398437h-.417969zm0 0"/><path d="m4191.289062 2897.817188h4.140626v240.195312h-4.140626zm0 0" style="fill:none;stroke-width:3.98381;stroke-linecap:round;stroke-linejoin:round;stroke:#000;stroke-miterlimit:10" transform="matrix(.1 0 0 -.1 0 857.27)"/><path d="m419.125 567.488281h.417969v-24.019531h-.417969zm0 0"/><use x="396.787" xlink:href="#X" y="617.349"/><use x="408.692093" xlink:href="#Y" y="617.349"/><use x="420.597577" xlink:href="#af" y="617.349"/><use x="408.3585" xlink:href="#Q" y="569.4037"/><path d="m3744.765625 2854.223438h4.179687v214.414062h-4.179687zm0 0" style="fill:none;stroke-width:3.98381;stroke-linecap:round;stroke-linejoin:round;stroke:#000;stroke-miterlimit:10" transform="matrix(.1 0 0 -.1 0 857.27)"/><path d="m374.476562 571.847656h.414063v-21.441406h-.414063zm0 0"/><use x="361.065" xlink:href="#av" y="617.349"/><use x="365.827117" xlink:href="#Y" y="617.349"/><use x="363.70797" xlink:href="#Q" y="573.7627"/><path d="m861.210938 2458.364063h52.5v3.164062h-52.5zm0 0" style="fill:none;stroke-width:5.01245;stroke-linecap:round;stroke-linejoin:round;stroke:#000;stroke-miterlimit:10" transform="matrix(.1 0 0 -.1 0 857.27)"/><path d="m86.121094 611.433594h5.25v-.3125h-5.25zm0 0"/><path d="m1238.59375 3054.145313v-37.851563l542.460938 17.773438v37.851562zm0 0" fill="none" stroke="#000" stroke-linejoin="round" stroke-miterlimit="10" stroke-width="3.98381" transform="matrix(.1 0 0 -.1 0 857.27)"/><path d="m123.859375 551.855469v3.785156l54.246094-1.777344v-3.785156zm0 0"/><path d="m1457.539062 2458.364063h52.5v3.164062h-52.5zm0 0" fill="none" stroke="#000" stroke-linejoin="round" stroke-miterlimit="10" stroke-width="5.01245" transform="matrix(.1 0 0 -.1 0 857.27)"/><path d="m145.753906 611.433594h5.25v-.3125h-5.25zm0 0"/><path d="m2940.625 2458.364063h52.5v3.164062h-52.5zm0 0" fill="none" stroke="#000" stroke-linejoin="round" stroke-miterlimit="10" stroke-width="5.01245" transform="matrix(.1 0 0 -.1 0 857.27)"/><path d="m294.0625 611.433594h5.25v-.3125h-5.25zm0 0"/><path d="m3298.28125 3071.91875v-37.851562l450.625 17.8125v37.851562zm0 0" fill="none" stroke="#000" stroke-linejoin="round" stroke-miterlimit="10" stroke-width="3.98381" transform="matrix(.1 0 0 -.1 0 857.27)"/><path d="m329.828125 550.078125v3.785156l45.0625-1.78125v-3.785156zm0 0"/><path d="m3498.90625 2458.364063h52.5v3.164062h-52.5zm0 0" fill="none" stroke="#000" stroke-linejoin="round" stroke-miterlimit="10" stroke-width="5.01245" transform="matrix(.1 0 0 -.1 0 857.27)"/><path d="m349.890625 611.433594h5.25v-.3125h-5.25zm0 0"/><path d="m3846.328125 2458.364063h52.539063v3.164062h-52.539063zm0 0" fill="none" stroke="#000" stroke-linejoin="round" stroke-miterlimit="10" stroke-width="5.01245" transform="matrix(.1 0 0 -.1 0 857.27)"/><path d="m384.632812 611.433594h5.253907v-.3125h-5.253907zm0 0"/><path d="m4191.289062 3159.10625v-37.851562l450.625-17.8125v37.890625zm0 0" fill="none" stroke="#000" stroke-linejoin="round" stroke-miterlimit="10" stroke-width="3.98381" transform="matrix(.1 0 0 -.1 0 857.27)"/><path d="m419.128906 541.359375v3.785156l45.0625 1.78125v-3.789062zm0 0"/><path d="m4799.726562 2458.364063h52.5v3.164062h-52.5zm0 0" fill="none" stroke="#000" stroke-linejoin="round" stroke-miterlimit="10" stroke-width="5.01245" transform="matrix(.1 0 0 -.1 0 857.27)"/><path d="m479.972656 611.433594h5.25v-.3125h-5.25zm0 0"/><path d="m5208.75 2458.364063h52.539062v3.164062h-52.539062zm0 0" fill="none" stroke="#000" stroke-linejoin="round" stroke-miterlimit="10" stroke-width="5.01245" transform="matrix(.1 0 0 -.1 0 857.27)"/><path d="m520.875 611.433594h5.253906v-.3125h-5.253906zm0 0"/><use x="582.2" xlink:href="#V" y="569.404"/><path d="m5572.34375 2854.223438h4.179688v283.984375h-4.179688zm0 0" fill="none" stroke="#000" stroke-linejoin="round" stroke-miterlimit="10" stroke-width="3.98381" transform="matrix(.1 0 0 -.1 0 857.27)"/><path d="m557.234375 571.847656h.417969v-28.398437h-.417969zm0 0"/><use x="534.896" xlink:href="#ai" y="617.349"/><use x="539.658508" xlink:href="#Y" y="617.349"/><use x="551.563601" xlink:href="#X" y="617.349"/><use x="563.469084" xlink:href="#aa" y="617.349"/><use x="546.4675" xlink:href="#Q" y="573.7627"/><path d="m3298.242188 2810.629688h4.179687v240.546875h-4.179687zm0 0" fill="none" stroke="#000" stroke-linejoin="round" stroke-miterlimit="10" stroke-width="3.98381" transform="matrix(.1 0 0 -.1 0 857.27)"/><path d="m329.824219 576.207031h.417969v-24.054687h-.417969zm0 0"/><use x="96.1633" xlink:href="#ad" y="617.349"/><use x="106.878562" xlink:href="#ak" y="617.349"/><use x="117.593824" xlink:href="#ar" y="617.349"/><use x="129.49932" xlink:href="#X" y="617.349"/><use x="113.0922" xlink:href="#Q" y="582.4799"/><path d="m664.84375 2619.145313h4.140625v283.984375h-4.140625zm0 0" fill="none" stroke="#000" stroke-linejoin="round" stroke-miterlimit="10" stroke-width="3.98381" transform="matrix(.1 0 0 -.1 0 857.27)"/><path d="m66.484375 595.355469h.414063v-28.398438h-.414063zm0 0"/><use x="62.6215" xlink:href="#aA" y="617.349"/><use x="76.568405" xlink:href="#ai" y="617.349"/><use x="66.284" xlink:href="#Q" y="565.0451"/><path d="m1238.59375 2767.035938h4.179688v266.328125h-4.179688zm0 0" fill="none" stroke="#000" stroke-linejoin="round" stroke-miterlimit="10" stroke-width="3.98381" transform="matrix(.1 0 0 -.1 0 857.27)"/><path d="m123.859375 580.566406h.417969v-26.632812h-.417969zm0 0"/><use x="38.3883" xlink:href="#T" y="569.404"/><use x="6.9738" xlink:href="#U" y="578.12158"/><use x="203.8258" xlink:href="#as" y="617.34928"/><use x="215.731284" xlink:href="#au" y="617.34928"/><use x="227.636377" xlink:href="#ag" y="617.34928"/><use x="239.371548" xlink:href="#ah" y="617.34928"/><use x="305.53112" xlink:href="#X" y="617.34928"/><use x="317.096368" xlink:href="#ah" y="617.34928"/><use x="327.300679" xlink:href="#Y" y="617.34928"/><use x="339.206163" xlink:href="#ai" y="617.34928"/><use x="319.0578" xlink:href="#Q" y="578.12158"/><path d="m2810.15625 2767.035938h4.179688v283.984375h-4.179688zm0 0" fill="none" stroke="#000" stroke-linejoin="round" stroke-miterlimit="10" stroke-width="3.98381" transform="matrix(.1 0 0 -.1 0 857.27)"/><path d="m281.015625 580.566406h.417969v-28.398437h-.417969zm0 0"/><use x="264.035" xlink:href="#ap" y="617.349"/><use x="275.940093" xlink:href="#ae" y="617.349"/><use x="270.24867" xlink:href="#Q" y="582.4799"/><path d="m2320.3125 2854.223438h4.179688v283.984375h-4.179688zm0 0" fill="none" stroke="#000" stroke-linejoin="round" stroke-miterlimit="10" stroke-width="3.98381" transform="matrix(.1 0 0 -.1 0 857.27)"/><path d="m232.03125 571.847656h.417969v-28.398437h-.417969zm0 0"/><use x="221.264" xlink:href="#Q" y="573.763"/><path d="m1776.914062 2810.629688h4.179688v240.234375h-4.179688zm0 0" fill="none" stroke="#000" stroke-linejoin="round" stroke-miterlimit="10" stroke-width="3.98381" transform="matrix(.1 0 0 -.1 0 857.27)"/><path d="m177.691406 576.207031h.417969v-24.023437h-.417969zm0 0"/><use x="166.923" xlink:href="#Q" y="578.121"/><use x="155.3515" xlink:href="#ab" y="617.3487"/><use x="161.304632" xlink:href="#ar" y="617.3487"/><use x="173.209738" xlink:href="#af" y="617.3487"/><use x="183.92539" xlink:href="#aa" y="617.3487"/><g clip-path="url(#F)"><path d="m3.125 1658.246875h5946.523438" style="fill:none;stroke-width:6.25903;stroke-linecap:round;stroke-linejoin:round;stroke:#000;stroke-miterlimit:10" transform="matrix(.1 0 0 -.1 0 857.27)"/></g><g clip-path="url(#G)"><path d="m3.125 1745.395313h5946.523438" style="fill:none;stroke-width:6.25903;stroke-linecap:round;stroke-linejoin:round;stroke:#000;stroke-miterlimit:10" transform="matrix(.1 0 0 -.1 0 857.27)"/></g><g clip-path="url(#H)"><path d="m3.125 1832.582813h5946.523438" style="fill:none;stroke-width:6.25903;stroke-linecap:round;stroke-linejoin:round;stroke:#000;stroke-miterlimit:10" transform="matrix(.1 0 0 -.1 0 857.27)"/></g><g clip-path="url(#I)"><path d="m3.125 1919.770313h5946.523438" style="fill:none;stroke-width:6.25903;stroke-linecap:round;stroke-linejoin:round;stroke:#000;stroke-miterlimit:10" transform="matrix(.1 0 0 -.1 0 857.27)"/></g><g clip-path="url(#J)"><path d="m3.125 2006.91875h5946.523438" style="fill:none;stroke-width:6.25903;stroke-linecap:round;stroke-linejoin:round;stroke:#000;stroke-miterlimit:10" transform="matrix(.1 0 0 -.1 0 857.27)"/></g><path d="m5453.203125 1571.059375h155.78125" style="fill:none;stroke-width:14.9763;stroke-linecap:round;stroke-linejoin:round;stroke:#000;stroke-miterlimit:10" transform="matrix(.1 0 0 -.1 0 857.27)"/><use x="443.327" xlink:href="#Q" y="687.088"/><use x="438.30317" xlink:href="#ai" y="721.9571"/><use x="443.065678" xlink:href="#Y" y="721.9571"/><use x="454.970771" xlink:href="#ai" y="721.9571"/><path d="m4540.9375 1720.98125h4.179688v266.328125h-4.179688zm0 0" fill="none" stroke="#000" stroke-linejoin="round" stroke-miterlimit="10" stroke-width="3.98381" transform="matrix(.1 0 0 -.1 0 857.27)"/><path d="m454.09375 685.175781h.417969v-26.636719h-.417969zm0 0"/><use x="491.8" xlink:href="#Q" y="691.446"/><use x="473.6805" xlink:href="#Z" y="721.9565"/><use x="491.538755" xlink:href="#Y" y="721.9565"/><use x="503.443848" xlink:href="#Z" y="721.9565"/><path d="m5025.703125 1677.3875h4.140625v283.984375h-4.140625zm0 0" fill="none" stroke="#000" stroke-linejoin="round" stroke-miterlimit="10" stroke-width="3.98381" transform="matrix(.1 0 0 -.1 0 857.27)"/><path d="m502.566406 689.53125h.417969v-28.398438h-.417969zm0 0"/><path d="m4102.890625 1764.535938h4.179687v240.234375h-4.179687zm0 0" fill="none" stroke="#000" stroke-linejoin="round" stroke-miterlimit="10" stroke-width="3.98381" transform="matrix(.1 0 0 -.1 0 857.27)"/><path d="m410.289062 680.816406h.414063v-24.023437h-.414063zm0 0"/><use x="396.454" xlink:href="#aB" y="721.957"/><use x="402.066508" xlink:href="#ae" y="721.957"/><use x="399.5208" xlink:href="#Q" y="682.7293"/><path d="m3645.351562 1808.129688h4.179688v266.328125h-4.179688zm0 0" fill="none" stroke="#000" stroke-linejoin="round" stroke-miterlimit="10" stroke-width="3.98381" transform="matrix(.1 0 0 -.1 0 857.27)"/><path d="m364.535156 676.457031h.417969v-26.632812h-.417969zm0 0"/><use x="336.414" xlink:href="#X" y="721.957"/><use x="348.319093" xlink:href="#am" y="721.957"/><use x="360.054654" xlink:href="#ag" y="721.957"/><use x="371.789826" xlink:href="#ah" y="721.957"/><use x="353.7683" xlink:href="#Q" y="678.3703"/><path d="m1249.101562 2057.3875h442.226563v37.851563h-442.226563zm0 0" fill="none" stroke="#000" stroke-linejoin="round" stroke-miterlimit="10" stroke-width="3.98381" transform="matrix(.1 0 0 -.1 0 857.27)"/><path d="m124.910156 651.53125h44.222656v-3.785156h-44.222656zm0 0"/><path d="m1344.335938 1412.309375h52.5v3.125h-52.5zm0 0" fill="none" stroke="#000" stroke-linejoin="round" stroke-miterlimit="10" stroke-width="5.01245" transform="matrix(.1 0 0 -.1 0 857.27)"/><path d="m134.433594 716.039062h5.25v-.3125h-5.25zm0 0"/><path d="m2681.445312 1412.309375h52.539063v3.125h-52.539063zm0 0" fill="none" stroke="#000" stroke-linejoin="round" stroke-miterlimit="10" stroke-width="5.01245" transform="matrix(.1 0 0 -.1 0 857.27)"/><path d="m268.144531 716.039062h5.253907v-.3125h-5.253907zm0 0"/><path d="m3082.382812 2113.0125v-37.851562l567.148438-17.773438v37.851563zm0 0" fill="none" stroke="#000" stroke-linejoin="round" stroke-miterlimit="10" stroke-width="3.98381" transform="matrix(.1 0 0 -.1 0 857.27)"/><path d="m308.238281 645.96875v3.785156l56.714844 1.777344v-3.785156zm0 0"/><path d="m4102.890625 2025.864063v-37.851563l442.226563-17.8125v37.851563zm0 0" fill="none" stroke="#000" stroke-linejoin="round" stroke-miterlimit="10" stroke-width="3.98381" transform="matrix(.1 0 0 -.1 0 857.27)"/><path d="m410.289062 654.683594v3.785156l44.222657 1.78125v-3.785156zm0 0"/><path d="m4235.117188 1412.309375h52.5v3.125h-52.5zm0 0" fill="none" stroke="#000" stroke-linejoin="round" stroke-miterlimit="10" stroke-width="5.01245" transform="matrix(.1 0 0 -.1 0 857.27)"/><path d="m423.511719 716.039062h5.25v-.3125h-5.25zm0 0"/><path d="m4640.78125 1412.309375h52.539062v3.125h-52.539062zm0 0" fill="none" stroke="#000" stroke-linejoin="round" stroke-miterlimit="10" stroke-width="5.01245" transform="matrix(.1 0 0 -.1 0 857.27)"/><path d="m464.078125 716.039062h5.253906v-.3125h-5.253906zm0 0"/><path d="m5256.484375 1412.309375h52.539063v3.125h-52.539063zm0 0" fill="none" stroke="#000" stroke-linejoin="round" stroke-miterlimit="10" stroke-width="5.01245" transform="matrix(.1 0 0 -.1 0 857.27)"/><path d="m525.648438 716.039062h5.253906v-.3125h-5.253906zm0 0"/><use x="582.2" xlink:href="#S" y="665.294"/><path d="m5581.875 1590.2h4.140625v283.984375h-4.140625zm0 0" fill="none" stroke="#000" stroke-linejoin="round" stroke-miterlimit="10" stroke-width="3.98381" transform="matrix(.1 0 0 -.1 0 857.27)"/><path d="m558.1875 698.25h.414062v-28.398438h-.414062zm0 0"/><use x="535.251" xlink:href="#ap" y="721.957"/><use x="547.156093" xlink:href="#Y" y="721.957"/><use x="559.061577" xlink:href="#X" y="721.957"/><use x="547.4178" xlink:href="#Q" y="700.1636"/><path d="m3082.382812 1851.723438h4.179688v240.273437h-4.179688zm0 0" fill="none" stroke="#000" stroke-linejoin="round" stroke-miterlimit="10" stroke-width="3.98381" transform="matrix(.1 0 0 -.1 0 857.27)"/><path d="m308.238281 672.097656h.417969v-24.027344h-.417969zm0 0"/><use x="111.5" xlink:href="#ac" y="721.957"/><use x="117.453132" xlink:href="#ad" y="721.957"/><use x="114.14219" xlink:href="#Q" y="678.3703"/><path d="m770.546875 1808.129688h4.140625v283.984375h-4.140625zm0 0" fill="none" stroke="#000" stroke-linejoin="round" stroke-miterlimit="10" stroke-width="3.98381" transform="matrix(.1 0 0 -.1 0 857.27)"/><path d="m77.054688 676.457031h.414062v-28.398437h-.414062zm0 0"/><use x="60.6656" xlink:href="#aC" y="721.957"/><use x="76.142973" xlink:href="#al" y="721.957"/><use x="66.28396" xlink:href="#Q" y="678.3703"/><path d="m1249.101562 1808.129688h4.179688v266.210937h-4.179688zm0 0" fill="none" stroke="#000" stroke-linejoin="round" stroke-miterlimit="10" stroke-width="3.98381" transform="matrix(.1 0 0 -.1 0 857.27)"/><path d="m124.910156 676.457031h.417969v-26.617187h-.417969zm0 0"/><use x="38.3883" xlink:href="#T" y="674.011"/><use x="6.9738" xlink:href="#U" y="682.72858"/><use x="195.5398" xlink:href="#ae" y="721.95628"/><use x="207.444893" xlink:href="#X" y="721.95628"/><use x="283.858227" xlink:href="#ai" y="721.95628"/><use x="288.450422" xlink:href="#ah" y="721.95628"/><use x="298.655124" xlink:href="#Y" y="721.95628"/><use x="310.560217" xlink:href="#X" y="721.95628"/><use x="297.4708" xlink:href="#Q" y="674.01098"/><path d="m2603.828125 1808.129688h4.140625v283.984375h-4.140625zm0 0" fill="none" stroke="#000" stroke-linejoin="round" stroke-miterlimit="10" stroke-width="3.98381" transform="matrix(.1 0 0 -.1 0 857.27)"/><path d="m260.378906 676.457031h.417969v-28.398437h-.417969zm0 0"/><use x="252.923" xlink:href="#ao" y="721.957"/><use x="249.61245" xlink:href="#Q" y="678.3703"/><path d="m2125.234375 1764.535938h4.140625v283.984375h-4.140625zm0 0" fill="none" stroke="#000" stroke-linejoin="round" stroke-miterlimit="10" stroke-width="3.98381" transform="matrix(.1 0 0 -.1 0 857.27)"/><path d="m212.523438 680.816406h.414062v-28.398437h-.414062zm0 0"/><use x="201.754" xlink:href="#Q" y="682.729"/><path d="m1687.1875 1808.129688h4.140625v266.210937h-4.140625zm0 0" fill="none" stroke="#000" stroke-linejoin="round" stroke-miterlimit="10" stroke-width="3.98381" transform="matrix(.1 0 0 -.1 0 857.27)"/><path d="m168.71875 676.457031h.414062v-26.617187h-.414062zm0 0"/><use x="157.948" xlink:href="#Q" y="678.37"/><use x="145.9523" xlink:href="#ab" y="721.9567"/><use x="151.564416" xlink:href="#Y" y="721.9567"/><use x="163.469521" xlink:href="#X" y="721.9567"/><use x="175.375017" xlink:href="#aa" y="721.9567"/><g clip-path="url(#K)"><path d="m3.125 612.153125h5946.523438" style="fill:none;stroke-width:6.25903;stroke-linecap:round;stroke-linejoin:round;stroke:#000;stroke-miterlimit:10" transform="matrix(.1 0 0 -.1 0 857.27)"/></g><g clip-path="url(#L)"><path d="m3.125 699.340625h5946.523438" style="fill:none;stroke-width:6.25903;stroke-linecap:round;stroke-linejoin:round;stroke:#000;stroke-miterlimit:10" transform="matrix(.1 0 0 -.1 0 857.27)"/></g><g clip-path="url(#M)"><path d="m3.125 786.489063h5946.523438" style="fill:none;stroke-width:6.25903;stroke-linecap:round;stroke-linejoin:round;stroke:#000;stroke-miterlimit:10" transform="matrix(.1 0 0 -.1 0 857.27)"/></g><g clip-path="url(#N)"><path d="m3.125 873.676563h5946.523438" style="fill:none;stroke-width:6.25903;stroke-linecap:round;stroke-linejoin:round;stroke:#000;stroke-miterlimit:10" transform="matrix(.1 0 0 -.1 0 857.27)"/></g><g clip-path="url(#O)"><path d="m3.125 960.864063h5946.523438" style="fill:none;stroke-width:6.25903;stroke-linecap:round;stroke-linejoin:round;stroke:#000;stroke-miterlimit:10" transform="matrix(.1 0 0 -.1 0 857.27)"/></g><g clip-path="url(#P)"><path d="m5933.984375 612.153125v348.710938" fill="none" stroke="#000" stroke-linejoin="round" stroke-miterlimit="10" stroke-width="37.5716" transform="matrix(.1 0 0 -.1 0 857.27)"/></g><path d="m5890.46875 612.153125v348.710938" fill="none" stroke="#000" stroke-linejoin="round" stroke-miterlimit="10" stroke-width="11.8991" transform="matrix(.1 0 0 -.1 0 857.27)"/><use x="417.439" xlink:href="#Q" y="787.3364"/><use x="484.8249" xlink:href="#ag" y="826.6516"/><use x="496.729993" xlink:href="#Y" y="826.6516"/><use x="508.635477" xlink:href="#Z" y="826.6516"/><use x="526.493731" xlink:href="#aD" y="826.6516"/><use x="508.6362" xlink:href="#W" y="758.5704"/><use x="502.9444" xlink:href="#Q" y="791.695"/><path d="m4282.070312 718.48125h4.140626v240.390625h-4.140626zm0 0" fill="none" stroke="#000" stroke-linejoin="round" stroke-miterlimit="10" stroke-width="3.98381" transform="matrix(.1 0 0 -.1 0 857.27)"/><path d="m428.207031 785.421875h.414063v-24.039063h-.414063zm0 0"/><use x="411.821" xlink:href="#ad" y="826.6516"/><use x="422.536274" xlink:href="#ae" y="826.6516"/><path d="m1172.65625 365.35625h52.5v3.125h-52.5zm0 0" fill="none" stroke="#000" stroke-linejoin="round" stroke-miterlimit="10" stroke-width="5.01245" transform="matrix(.1 0 0 -.1 0 857.27)"/><path d="m117.261719 820.734375h5.253906v-.3125h-5.253906zm0 0"/><path d="m3427.03125 718.48125h4.140625v240.390625h-4.140625zm0 0" fill="none" stroke="#000" stroke-linejoin="round" stroke-miterlimit="10" stroke-width="3.98381" transform="matrix(.1 0 0 -.1 0 857.27)"/><path d="m342.703125 785.421875h.414063v-24.039063h-.414063zm0 0"/><use x="311.603" xlink:href="#Z" y="826.6516"/><use x="329.461621" xlink:href="#ae" y="826.6516"/><use x="341.366714" xlink:href="#X" y="826.6516"/><use x="352.931962" xlink:href="#ah" y="826.6516"/><use x="331.9335" xlink:href="#Q" y="787.3364"/><path d="m1716.914062 1066.957813v-37.851563l859.179688-17.8125v37.890625zm0 0" fill="none" stroke="#000" stroke-linejoin="round" stroke-miterlimit="10" stroke-width="3.98381" transform="matrix(.1 0 0 -.1 0 857.27)"/><path d="m171.691406 750.574219v3.785156l85.917969 1.78125v-3.789063zm0 0"/><path d="m2839.53125 365.35625h52.539062v3.125h-52.539062zm0 0" fill="none" stroke="#000" stroke-linejoin="round" stroke-miterlimit="10" stroke-width="5.01245" transform="matrix(.1 0 0 -.1 0 857.27)"/><path d="m283.953125 820.734375h5.253906v-.3125h-5.253906zm0 0"/><path d="m3427.03125 979.770313v-37.851563h859.179688v37.851563zm0 0" fill="none" stroke="#000" stroke-linejoin="round" stroke-miterlimit="10" stroke-width="3.98381" transform="matrix(.1 0 0 -.1 0 857.27)"/><path d="m342.703125 759.292969v3.785156h85.917969v-3.785156zm0 0"/><path d="m3851.054688 365.35625h52.539062v3.125h-52.539062zm0 0" fill="none" stroke="#000" stroke-linejoin="round" stroke-miterlimit="10" stroke-width="5.01245" transform="matrix(.1 0 0 -.1 0 857.27)"/><path d="m385.105469 820.734375h5.253906v-.3125h-5.253906zm0 0"/><path d="m4570.078125 365.35625h52.5v3.125h-52.5zm0 0" fill="none" stroke="#000" stroke-linejoin="round" stroke-miterlimit="10" stroke-width="5.01245" transform="matrix(.1 0 0 -.1 0 857.27)"/><path d="m457.007812 820.734375h5.25v-.3125h-5.25zm0 0"/><path d="m5137.148438 674.8875h4.140624v283.984375h-4.140624zm0 0" fill="none" stroke="#000" stroke-linejoin="round" stroke-miterlimit="10" stroke-width="3.98381" transform="matrix(.1 0 0 -.1 0 857.27)"/><path d="m513.714844 789.78125h.414062v-28.398438h-.414062zm0 0"/><use x="514.327" xlink:href="#R" y="761.3833"/><use x="38.388" xlink:href="#T" y="778.6192"/><use x="6.9735" xlink:href="#U" y="787.33639"/><use x="66.2837" xlink:href="#Q" y="774.26059"/><path d="m2571.953125 762.075h4.179687v266.25h-4.179687zm0 0" fill="none" stroke="#000" stroke-linejoin="round" stroke-miterlimit="10" stroke-width="3.98381" transform="matrix(.1 0 0 -.1 0 857.27)"/><path d="m257.195312 781.0625h.417969v-26.625h-.417969zm0 0"/><use x="242.68" xlink:href="#al" y="826.6516"/><use x="249.652668" xlink:href="#Y" y="826.6516"/><use x="246.42727" xlink:href="#Q" y="782.9778"/><use x="52.92627" xlink:href="#aE" y="826.6516"/><use x="67.21341" xlink:href="#Y" y="826.6516"/><use x="79.118509" xlink:href="#X" y="826.6516"/><path d="m1716.914062 805.66875h4.140626v240.273438h-4.140626zm0 0" fill="none" stroke="#000" stroke-linejoin="round" stroke-miterlimit="10" stroke-width="3.98381" transform="matrix(.1 0 0 -.1 0 857.27)"/><path d="m171.691406 776.707031h.414063v-24.03125h-.414063zm0 0"/><use x="148.755" xlink:href="#X" y="826.6516"/><use x="160.660496" xlink:href="#Y" y="826.6516"/><use x="172.565601" xlink:href="#aq" y="826.6516"/><use x="160.9218" xlink:href="#Q" y="778.6192"/><path d="m664.84375 526.996875h4.140625v283.945313h-4.140625zm0 0" fill="none" stroke="#000" stroke-linejoin="round" stroke-miterlimit="10" stroke-width="3.98381" transform="matrix(.1 0 0 -.1 0 857.27)"/><path d="m66.484375 804.570312h.414063v-28.394531h-.414063zm0 0"/></svg>