<svg height="772.59em" viewBox="0 0 595.28 772.59" width="595.28em" xmlns="http://www.w3.org/2000/svg" xmlns:xlink="http://www.w3.org/1999/xlink"><clipPath id="a"><path d="m0 70h595.28125v1h-595.28125zm0 0"/></clipPath><clipPath id="b"><path d="m0 60h595.28125v1h-595.28125zm0 0"/></clipPath><clipPath id="c"><path d="m0 50h595.28125v1h-595.28125zm0 0"/></clipPath><clipPath id="d"><path d="m0 40h595.28125v2h-595.28125zm0 0"/></clipPath><clipPath id="e"><path d="m0 30h595.28125v2h-595.28125zm0 0"/></clipPath><clipPath id="f"><path d="m0 208h595.28125v2h-595.28125zm0 0"/></clipPath><clipPath id="g"><path d="m0 198h595.28125v2h-595.28125zm0 0"/></clipPath><clipPath id="h"><path d="m0 188h595.28125v2h-595.28125zm0 0"/></clipPath><clipPath id="i"><path d="m0 178h595.28125v2h-595.28125zm0 0"/></clipPath><clipPath id="j"><path d="m0 168h595.28125v2h-595.28125zm0 0"/></clipPath><clipPath id="k"><path d="m591 166h4.28125v45h-4.28125zm0 0"/></clipPath><clipPath id="l"><path d="m0 345h595.28125v1h-595.28125zm0 0"/></clipPath><clipPath id="m"><path d="m0 335h595.28125v1h-595.28125zm0 0"/></clipPath><clipPath id="n"><path d="m0 325h595.28125v1h-595.28125zm0 0"/></clipPath><clipPath id="o"><path d="m0 315h595.28125v1h-595.28125zm0 0"/></clipPath><clipPath id="p"><path d="m0 305h595.28125v1h-595.28125zm0 0"/></clipPath><clipPath id="q"><path d="m0 464h595.28125v2h-595.28125zm0 0"/></clipPath><clipPath id="r"><path d="m0 454h595.28125v2h-595.28125zm0 0"/></clipPath><clipPath id="s"><path d="m0 444h595.28125v2h-595.28125zm0 0"/></clipPath><clipPath id="t"><path d="m0 434h595.28125v2h-595.28125zm0 0"/></clipPath><clipPath id="u"><path d="m0 424h595.28125v2h-595.28125zm0 0"/></clipPath><clipPath id="v"><path d="m0 584h595.28125v1h-595.28125zm0 0"/></clipPath><clipPath id="w"><path d="m0 574h595.28125v1h-595.28125zm0 0"/></clipPath><clipPath id="x"><path d="m0 564h595.28125v1h-595.28125zm0 0"/></clipPath><clipPath id="y"><path d="m0 554h595.28125v1h-595.28125zm0 0"/></clipPath><clipPath id="z"><path d="m0 544h595.28125v1h-595.28125zm0 0"/></clipPath><clipPath id="A"><path d="m0 703h595.28125v2h-595.28125zm0 0"/></clipPath><clipPath id="B"><path d="m0 693h595.28125v2h-595.28125zm0 0"/></clipPath><clipPath id="C"><path d="m0 683h595.28125v2h-595.28125zm0 0"/></clipPath><clipPath id="D"><path d="m0 673h595.28125v2h-595.28125zm0 0"/></clipPath><clipPath id="E"><path d="m0 663h595.28125v2h-595.28125zm0 0"/></clipPath><clipPath id="F"><path d="m591 662h4.28125v45h-4.28125zm0 0"/></clipPath><symbol id="G" overflow="visible"><path d="m8.84375-5.375c-1.671875 0-3.265625.546875-4.703125 1.4375-1.875 1.109375-4.140625 3.0625-4.140625 5.890625 0 2.34375 2.078125 3.421875 4.1875 3.421875 1.671875 0 3.265625-.546875 4.703125-1.4375 1.875-1.109375 4.09375-3.0625 4.09375-5.890625 0-2.34375-2.03125-3.421875-4.140625-3.421875zm0 0"/></symbol><symbol id="H" overflow="visible"><path d="m5.65625 0c.15625 0 .328125-.15625.328125-.3125v-9.328125c0-.15625-.171875-.328125-.328125-.328125h-5.34375c-.15625 0-.3125.171875-.3125.328125v9.328125c0 .15625.15625.3125.3125.3125zm0 0"/></symbol><symbol id="I" overflow="visible"><path d="m1-1.75c.03125-1.3125.90625-2.46875 2.140625-2.46875 1.203125 0 1.765625 1.390625 1.765625 2.75 0 2.34375-2 4.015625-3.828125 5.53125-.078125-.875-.15625-1.75-.15625-2.625 0-.15625.03125-.28125.03125-.4375zm-2-16.703125.4375 23.875c0 .46875.359375.828125.84375.828125.71875 0 1.03125-.828125 1.59375-1.265625 2.515625-2.03125 6.09375-3.46875 6.09375-6.734375 0-2.15625-1.59375-3.984375-3.703125-3.984375-1.28125 0-2.46875.4375-3.515625 1.1875l.25-13.90625c-.328125-.15625-.640625-.28125-1-.28125s-.671875.125-1 .28125zm0 0"/></symbol><symbol id="J" overflow="visible"><path d="m14.90625-10.359375c-.640625-2.796875-1.40625-5.53125-2.203125-8.28125 3.828125-4.34375 7.296875-8.8125 7.296875-14.546875 0-4.5-2.46875-10.953125-5.25-14.3125-.203125-.15625-.453125-.15625-.640625 0-3.796875 2.75-5.984375 7.140625-5.984375 11.765625 0 2.0625.046875 4.09375.28125 6.125.28125 2.59375.953125 5.109375 1.671875 7.609375-4.703125 5.34375-10 10.4375-10 17.53125 0 8.015625 5.78125 14.828125 13.265625 14.828125 1.234375 0 2.390625-.125 3.546875-.3125.125 1.265625.203125 2.546875.203125 3.8125 0 .71875-.046875 1.40625-.078125 2.125-.234375 3.9375-2.671875 7.5625-6.375 7.640625-.046875 0-.078125.046875-.125.046875-2.03125 0-3.78125-1.15625-4.8125-2.796875.4375.203125.90625.359375 1.390625.359375 2.078125 0 3.78125-1.703125 3.78125-3.78125 0-2.234375-1.625-4.140625-3.78125-4.140625-2.359375 0-4.46875 1.828125-4.46875 4.140625 0 4.296875 3.46875 7.765625 7.78125 7.765625 4.6875 0 7.921875-4.21875 8.203125-9 .03125-.765625.03125-1.46875.03125-2.234375 0-1.4375-.078125-2.875-.1875-4.296875 1.03125-.328125 2.03125-.796875 2.90625-1.484375 2.953125-2.1875 4.265625-5.25 4.265625-8.28125 0-5.265625-3.984375-10.328125-10.125-10.328125-.203125 0-.40625.046875-.59375.046875zm3.375 18.53125c-.546875-4.9375-1.46875-9.640625-2.46875-14.3125 4.390625.359375 7.140625 4.03125 7.140625 7.6875 0 2.796875-1.921875 5.671875-4.671875 6.625zm-15.453125-9.40625c0-6.375 4.296875-11.203125 8.609375-16.015625.640625 2.34375 1.265625 4.703125 1.828125 7.09375-4.015625.90625-6.296875 4.296875-6.296875 7.8125 0 2.78125 1.4375 5.609375 4.625 7.328125.125.03125.234375.078125.359375.078125.4375 0 .796875-.40625.796875-.84375 0-.1875-.125-.390625-.28125-.546875-2.234375-1.28125-3.265625-3.1875-3.265625-4.953125 0-2.34375 1.828125-4.453125 4.984375-4.8125 1.03125 4.78125 1.953125 9.515625 2.546875 14.625-1.078125.15625-2.15625.234375-3.265625.234375-5.421875 0-10.640625-4.578125-10.640625-10zm13.546875-40.609375c.671875 2.125.84375 3.15625.84375 5.46875 0 5.0625-2.671875 9.078125-5.9375 12.953125-.71875-2.515625-1.3125-4.953125-1.3125-7.96875 0-4.421875 2.46875-8.453125 6.40625-10.453125zm0 0"/></symbol><symbol id="K" overflow="visible"><path d="m0 0h-.5625v9.96875h.5625zm0 0v9.96875c2.875 2.984375 6.6875 7.171875 6.6875 11.3125 0 2.671875-.59375 5.25-1.625 7.71875-.125.609375.359375 1 .828125 1 .28125 0 .53125-.15625.6875-.4375 1.03125-2.625 1.671875-5.453125 1.671875-8.28125 0-7.890625-8.25-13.390625-8.25-21.28125zm0 0"/></symbol><symbol id="L" overflow="visible"><path d="m0 0c0 1.28125 1 2.265625 2.265625 2.265625 1.28125 0 2.28125-.984375 2.28125-2.265625s-1-2.265625-2.28125-2.265625c-1.265625 0-2.265625.984375-2.265625 2.265625zm0 0"/></symbol><symbol id="M" overflow="visible"><path d="m0 0v-9.96875h-.5625v9.96875zm0 0c0-8.09375 10.640625-12.1875 10.640625-20.28125 0-2.46875-.59375-4.90625-1.59375-7.125-.15625-.28125-.4375-.40625-.71875-.40625-.484375 0-.953125.40625-.84375 1 1 2.0625 1.59375 4.265625 1.59375 6.53125 0 4.46875-5.171875 8.015625-9.078125 10.3125zm0 0"/></symbol><symbol id="N" overflow="visible"><path d="m5.65625 9.96875c.15625 0 .328125-.171875.328125-.328125v-19.28125c0-.15625-.171875-.328125-.328125-.328125h-5.34375c-.15625 0-.3125.171875-.3125.328125v19.28125c0 .15625.15625.328125.3125.328125zm0 0"/></symbol><symbol id="O" overflow="visible"><path d="m-2.515625-1.875c0 1.390625 1.125 2.515625 2.515625 2.515625s2.515625-1.125 2.515625-2.515625-1.125-2.515625-2.515625-2.515625-2.515625 1.125-2.515625 2.515625zm2.515625-12.46875c-6.171875 0-13.109375 6.890625-13.109375 14.421875 0 .328125.3125.5625.640625.5625.28125 0 .59375-.203125.671875-.640625 1.03125-5.9375 5.859375-10.5625 11.796875-10.5625s10.765625 4.625 11.796875 10.5625c.078125.4375.390625.640625.671875.640625.328125 0 .640625-.234375.640625-.5625 0-7.53125-6.890625-14.421875-13.109375-14.421875zm0 0"/></symbol><symbol id="P" overflow="visible"><path d="m1.71875-17.921875v17.921875h2.046875v-7.109375c0-2.625 1.375-4.34375 3.484375-4.34375.6875 0 1.328125.1875 1.828125.5625.59375.4375.828125 1.046875.828125 1.96875v8.921875h2.046875v-9.734375c0-2.171875-1.546875-3.515625-4.0625-3.515625-1.8125 0-2.921875.5625-4.125 2.140625v-6.8125zm0 0"/></symbol><symbol id="Q" overflow="visible"><path d="m13.15625-1.203125c-.21875.046875-.3125.046875-.4375.046875-.71875 0-1.109375-.375-1.109375-1.015625v-7.5625c0-2.296875-1.671875-3.515625-4.84375-3.515625-1.890625 0-3.390625.53125-4.28125 1.5-.59375.65625-.84375 1.390625-.890625 2.671875h2.078125c.171875-1.578125 1.09375-2.28125 3.015625-2.28125 1.875 0 2.875.6875 2.875 1.921875v.53125c-.015625.890625-.46875 1.203125-2.140625 1.4375-2.890625.359375-3.34375.453125-4.125.78125-1.5.640625-2.265625 1.765625-2.265625 3.4375 0 2.34375 1.625 3.8125 4.234375 3.8125 1.625 0 2.921875-.5625 4.375-1.890625.140625 1.328125.78125 1.890625 2.109375 1.890625.453125 0 .71875-.046875 1.40625-.21875zm-3.59375-2.859375c0 .6875-.1875 1.109375-.8125 1.671875-.828125.765625-1.84375 1.15625-3.046875 1.15625-1.59375 0-2.53125-.75-2.53125-2.0625 0-1.34375.890625-2.046875 3.09375-2.359375 2.1875-.296875 2.609375-.390625 3.296875-.71875zm0 0"/></symbol><symbol id="R" overflow="visible"><path d="m1.71875-12.890625v14.765625c0 1.265625-.390625 1.6875-1.671875 1.6875-.140625 0-.21875 0-.484375-.015625v1.734375c.234375.0625.359375.078125.6875.078125 2.3125 0 3.515625-.90625 3.515625-2.671875v-15.578125zm2.046875-5.03125h-2.046875v2.578125h2.046875zm0 0"/></symbol><symbol id="S" overflow="visible"><path d="m6.25-12.890625h-2.125v-3.53125h-2.03125v3.53125h-1.75v1.671875h1.75v9.75c0 1.328125.875 2.03125 2.484375 2.03125.53125 0 .984375-.046875 1.671875-.171875v-1.71875c-.296875.078125-.5625.09375-.984375.09375-.890625 0-1.140625-.234375-1.140625-1.15625v-8.828125h2.125zm0 0"/></symbol><symbol id="T" overflow="visible"><path d="m1.703125-12.890625v12.890625h2.0625v-6.6875c.015625-3.09375 1.296875-4.484375 4.125-4.40625v-2.09375c-.34375-.046875-.53125-.0625-.78125-.0625-1.328125 0-2.34375.78125-3.515625 2.703125v-2.34375zm0 0"/></symbol><symbol id="U" overflow="visible"><path d="m2.140625-2.5625v2.5625h1.46875v.4375c0 1.703125-.3125 2.1875-1.46875 2.25v.921875c1.625.0625 2.578125-1.125 2.578125-3.21875v-2.953125zm0 0"/></symbol><symbol id="V" overflow="visible"><path d="m1.71875-12.890625v12.890625h2.0625v-8.09375c0-1.859375 1.359375-3.359375 3.03125-3.359375 1.53125 0 2.390625.921875 2.390625 2.578125v8.875h2.0625v-8.09375c0-1.859375 1.34375-3.359375 3.015625-3.359375 1.515625 0 2.390625.953125 2.390625 2.578125v8.875h2.0625v-9.671875c0-2.3125-1.328125-3.578125-3.734375-3.578125-1.71875 0-2.75.515625-3.953125 1.96875-.765625-1.390625-1.796875-1.96875-3.46875-1.96875-1.71875 0-2.875.640625-3.96875 2.1875v-1.828125zm0 0"/></symbol><symbol id="W" overflow="visible"><path d="m3.46875-17.921875h-2.046875v17.921875h2.046875v-5.015625l1.984375-1.96875 4.359375 6.984375h2.53125l-5.265625-8.4375 4.484375-4.453125h-2.640625l-5.453125 5.46875zm0 0"/></symbol><symbol id="X" overflow="visible"><path d="m13.578125-17.921875v12.578125c0 2.421875-1.75 3.890625-4.625 3.890625-1.328125 0-2.40625-.3125-3.265625-.9375-.890625-.6875-1.3125-1.59375-1.3125-2.953125v-12.578125h-2.28125v12.578125c0 3.640625 2.609375 5.90625 6.859375 5.90625 4.203125 0 6.90625-2.3125 6.90625-5.90625v-12.578125zm0 0"/></symbol><symbol id="Y" overflow="visible"><path d="m1.328125 5.359375h2.0625v-6.71875c1.078125 1.328125 2.296875 1.921875 3.96875 1.921875 3.34375 0 5.5-2.671875 5.5-6.78125 0-4.328125-2.109375-7.03125-5.53125-7.03125-1.75 0-3.140625.78125-4.109375 2.3125v-1.953125h-1.890625zm5.65625-16.703125c2.265625 0 3.734375 2 3.734375 5.078125 0 2.921875-1.5 4.90625-3.734375 4.90625-2.1875 0-3.59375-1.953125-3.59375-4.984375s1.40625-5 3.59375-5zm0 0"/></symbol><symbol id="Z" overflow="visible"><path d="m11.515625 0 5.03125-15.03125v15.03125h2.171875v-17.921875h-3.171875l-5.21875 15.609375-5.3125-15.609375h-3.171875v17.921875h2.171875v-15.03125l5.078125 15.03125zm0 0"/></symbol><symbol id="aa" overflow="visible"><path d="m3.6875-12.890625h-2.046875v12.890625h2.046875zm0-5.03125h-2.0625v2.578125h2.0625zm0 0"/></symbol><symbol id="ab" overflow="visible"><path d="m1.71875-12.890625v12.890625h2.0625v-7.109375c0-2.625 1.390625-4.34375 3.5-4.34375 1.625 0 2.65625.96875 2.65625 2.53125v8.921875h2.046875v-9.734375c0-2.140625-1.609375-3.515625-4.09375-3.515625-1.921875 0-3.140625.734375-4.28125 2.53125v-2.171875zm0 0"/></symbol><symbol id="ac" overflow="visible"><path d="m4.25-17.921875h-2.28125v17.921875h11.140625v-2.015625h-8.859375zm0 0"/></symbol><symbol id="ad" overflow="visible"><path d="m12.609375-5.75c0-1.96875-.140625-3.15625-.515625-4.109375-.828125-2.125-2.796875-3.390625-5.203125-3.390625-3.59375 0-5.90625 2.71875-5.90625 6.984375 0 4.25 2.21875 6.828125 5.859375 6.828125 2.9375 0 4.984375-1.671875 5.5-4.46875h-2.0625c-.5625 1.6875-1.71875 2.578125-3.375 2.578125-1.296875 0-2.40625-.59375-3.09375-1.671875-.5-.734375-.671875-1.46875-.6875-2.75zm-9.4375-1.671875c.171875-2.390625 1.625-3.9375 3.6875-3.9375 2.09375 0 3.546875 1.625 3.546875 3.9375zm0 0"/></symbol><symbol id="ae" overflow="visible"><path d="m3.734375-17.921875h-2.0625v17.921875h2.0625zm0 0"/></symbol><symbol id="af" overflow="visible"><path d="m11.859375 0v-12.890625h-2.046875v7.3125c0 2.625-1.375 4.34375-3.515625 4.34375-1.625 0-2.65625-.984375-2.65625-2.53125v-9.125h-2.046875v9.9375c0 2.140625 1.609375 3.515625 4.109375 3.515625 1.890625 0 3.09375-.65625 4.3125-2.359375v1.796875zm-4.578125-18.203125-2.359375 3.640625h1.46875l3.671875-3.640625zm0 0"/></symbol><symbol id="ag" overflow="visible"><path d="m9.9375-12.890625v1.875c-1.03125-1.546875-2.171875-2.234375-3.78125-2.234375-3.125 0-5.296875 2.890625-5.296875 7.03125 0 2.15625.515625 3.734375 1.625 5.03125.953125 1.140625 2.1875 1.75 3.515625 1.75 1.546875 0 2.65625-.6875 3.734375-2.3125v.671875c0 3.4375-.953125 4.71875-3.515625 4.71875-1.75 0-2.65625-.6875-2.84375-2.171875h-2.09375c.1875 2.390625 2.09375 3.890625 4.890625 3.890625 1.890625 0 3.46875-.609375 4.3125-1.640625.96875-1.203125 1.34375-2.8125 1.34375-5.828125v-10.78125zm-3.59375 1.53125c2.171875 0 3.390625 1.8125 3.390625 5.09375 0 3.125-1.25 4.9375-3.390625 4.9375-2.109375 0-3.34375-1.84375-3.34375-5.015625 0-3.15625 1.234375-5.015625 3.34375-5.015625zm0 0"/></symbol><symbol id="ah" overflow="visible"><path d="m9.546875-12.890625-3.578125 10.03125-3.28125-10.03125h-2.203125l4.359375 12.9375-.78125 2.046875c-.34375.90625-.796875 1.25-1.65625 1.25-.34375 0-.640625-.046875-1.078125-.140625v1.84375c.421875.21875.84375.3125 1.375.3125.671875 0 1.375-.21875 1.921875-.609375.640625-.46875 1-1.015625 1.40625-2.046875l5.71875-15.59375zm0 0"/></symbol><symbol id="ai" overflow="visible"><path d="m6.6875-13.25c-3.640625 0-5.796875 2.578125-5.796875 6.90625 0 4.359375 2.15625 6.90625 5.828125 6.90625 3.640625 0 5.828125-2.578125 5.828125-6.8125 0-4.46875-2.125-7-5.859375-7zm.03125 1.890625c2.3125 0 3.6875 1.890625 3.6875 5.09375 0 3.046875-1.421875 4.9375-3.6875 4.9375-2.296875 0-3.6875-1.890625-3.6875-5.015625s1.390625-5.015625 3.6875-5.015625zm.609375-6.84375-2.359375 3.640625h1.46875l3.671875-3.640625zm0 0"/></symbol><symbol id="aj" overflow="visible"><path d="m4.359375-12.890625h-2.046875v12.890625h2.046875zm-.40625-5.3125-2.359375 3.640625h1.484375l3.65625-3.640625zm0 0"/></symbol><symbol id="ak" overflow="visible"><path d="m10.765625-9.296875c-.015625-2.53125-1.6875-3.953125-4.671875-3.953125-3 0-4.9375 1.546875-4.9375 3.921875 0 2.03125 1.03125 2.984375 4.078125 3.71875l1.921875.46875c1.421875.34375 2 .859375 2 1.765625 0 1.234375-1.21875 2.046875-3 2.046875-1.109375 0-2.046875-.3125-2.5625-.859375-.328125-.375-.46875-.734375-.59375-1.65625h-2.15625c.09375 2.984375 1.765625 4.40625 5.125 4.40625 3.25 0 5.3125-1.59375 5.3125-4.078125 0-1.921875-1.078125-2.984375-3.625-3.59375l-1.96875-.46875c-1.671875-.390625-2.390625-.9375-2.390625-1.84375 0-1.203125 1.0625-1.9375 2.734375-1.9375 1.640625 0 2.53125.703125 2.578125 2.0625zm0 0"/></symbol><symbol id="al" overflow="visible"><path d="m10.890625-12.890625h-9.609375v1.796875h7.171875l-7.6875 9.25v1.84375h10.46875v-1.796875h-7.984375l7.640625-9.265625zm0 0"/></symbol><symbol id="am" overflow="visible"><path d="m12.609375-5.75c0-1.96875-.140625-3.15625-.515625-4.109375-.828125-2.125-2.796875-3.390625-5.203125-3.390625-3.59375 0-5.90625 2.71875-5.90625 6.984375 0 4.25 2.21875 6.828125 5.859375 6.828125 2.9375 0 4.984375-1.671875 5.5-4.46875h-2.0625c-.5625 1.6875-1.71875 2.578125-3.375 2.578125-1.296875 0-2.40625-.59375-3.09375-1.671875-.5-.734375-.671875-1.46875-.6875-2.75zm-9.4375-1.671875c.171875-2.390625 1.625-3.9375 3.6875-3.9375 2.09375 0 3.546875 1.625 3.546875 3.9375zm4.40625-10.78125-2.359375 3.640625h1.46875l3.671875-3.640625zm0 0"/></symbol><symbol id="an" overflow="visible"><path d="m7.015625 0 4.9375-12.890625h-2.3125l-3.640625 10.453125-3.4375-10.453125h-2.3125l4.515625 12.890625zm0 0"/></symbol><symbol id="ao" overflow="visible"><path d="m12.171875-17.921875h-2.046875v6.65625c-.859375-1.296875-2.234375-1.984375-3.953125-1.984375-3.34375 0-5.53125 2.671875-5.53125 6.78125 0 4.359375 2.109375 7.03125 5.609375 7.03125 1.765625 0 3-.65625 4.109375-2.265625v1.703125h1.8125zm-5.65625 6.578125c2.21875 0 3.609375 1.953125 3.609375 5.046875 0 2.984375-1.421875 4.9375-3.578125 4.9375-2.265625 0-3.765625-1.984375-3.765625-4.984375s1.5-5 3.734375-5zm0 0"/></symbol><symbol id="ap" overflow="visible"><path d="m6.6875-13.25c-3.640625 0-5.796875 2.578125-5.796875 6.90625 0 4.359375 2.15625 6.90625 5.828125 6.90625 3.640625 0 5.828125-2.578125 5.828125-6.8125 0-4.46875-2.125-7-5.859375-7zm.03125 1.890625c2.3125 0 3.6875 1.890625 3.6875 5.09375 0 3.046875-1.421875 4.9375-3.6875 4.9375-2.296875 0-3.6875-1.890625-3.6875-5.015625s1.390625-5.015625 3.6875-5.015625zm0 0"/></symbol><symbol id="aq" overflow="visible"><path d="m13.15625-1.203125c-.21875.046875-.3125.046875-.4375.046875-.71875 0-1.109375-.375-1.109375-1.015625v-7.5625c0-2.296875-1.671875-3.515625-4.84375-3.515625-1.890625 0-3.390625.53125-4.28125 1.5-.59375.65625-.84375 1.390625-.890625 2.671875h2.078125c.171875-1.578125 1.09375-2.28125 3.015625-2.28125 1.875 0 2.875.6875 2.875 1.921875v.53125c-.015625.890625-.46875 1.203125-2.140625 1.4375-2.890625.359375-3.34375.453125-4.125.78125-1.5.640625-2.265625 1.765625-2.265625 3.4375 0 2.34375 1.625 3.8125 4.234375 3.8125 1.625 0 2.921875-.5625 4.375-1.890625.140625 1.328125.78125 1.890625 2.109375 1.890625.453125 0 .71875-.046875 1.40625-.21875zm-3.59375-2.859375c0 .6875-.1875 1.109375-.8125 1.671875-.828125.765625-1.84375 1.15625-3.046875 1.15625-1.59375 0-2.53125-.75-2.53125-2.0625 0-1.34375.890625-2.046875 3.09375-2.359375 2.1875-.296875 2.609375-.390625 3.296875-.71875zm-2.09375-14.140625-2.375 3.640625h1.46875l3.671875-3.640625zm0 0"/></symbol><symbol id="ar" overflow="visible"><path d="m6.34375-12.890625h-2.140625v-2.015625c0-.859375.46875-1.296875 1.421875-1.296875.171875 0 .25 0 .71875.015625v-1.6875c-.46875-.109375-.734375-.125-1.15625-.125-1.890625 0-3.015625 1.078125-3.015625 2.921875v2.1875h-1.734375v1.671875h1.734375v11.21875h2.03125v-11.21875h2.140625zm0 0"/></symbol><symbol id="as" overflow="visible"><path d="m11.65625-5.390625 1.84375 5.390625h2.5625l-6.296875-17.921875h-2.953125l-6.390625 17.921875h2.4375l1.890625-5.390625zm-.640625-1.90625h-5.703125l2.953125-8.171875zm0 0"/></symbol><symbol id="at" overflow="visible"><path d="m4.5-8.171875h9.765625v-2.015625h-9.765625v-5.71875h10.140625v-2.015625h-12.421875v17.921875h12.859375v-2.015625h-10.578125zm4.53125-14.921875-2.390625 3.640625h1.46875l3.671875-3.640625zm0 0"/></symbol><symbol id="au" overflow="visible"><path d="m4.765625-17.921875h-2.3125v17.921875h2.3125zm0 0"/></symbol><symbol id="av" overflow="visible"><path d="m8.703125-15.90625h5.875v-2.015625h-14.0625v2.015625h5.90625v15.90625h2.28125zm0 0"/></symbol><symbol id="aw" overflow="visible"><path d="m14.65625-12.671875c0-1.21875-.078125-1.5625-.46875-2.40625-.984375-2.0625-3.078125-3.140625-6.09375-3.140625-3.9375 0-6.375 2.015625-6.375 5.25 0 2.203125 1.15625 3.578125 3.515625 4.1875l4.453125 1.1875c2.296875.578125 3.296875 1.5 3.296875 2.890625 0 .96875-.515625 1.953125-1.28125 2.484375-.703125.515625-1.84375.765625-3.296875.765625-1.96875 0-3.265625-.46875-4.125-1.5-.671875-.78125-.96875-1.640625-.9375-2.75h-2.15625c.015625 1.640625.34375 2.734375 1.046875 3.71875 1.234375 1.6875 3.296875 2.546875 6.03125 2.546875 2.140625 0 3.890625-.484375 5.046875-1.375 1.203125-.953125 1.953125-2.5625 1.953125-4.109375 0-2.203125-1.375-3.828125-3.8125-4.5l-4.5-1.203125c-2.15625-.59375-2.9375-1.28125-2.9375-2.65625 0-1.8125 1.59375-3.03125 4-3.03125 2.859375 0 4.453125 1.28125 4.484375 3.640625zm0 0"/></symbol><symbol id="ax" overflow="visible"><path d="m1.328125-17.921875v17.921875h1.84375v-1.640625c.984375 1.5 2.28125 2.203125 4.078125 2.203125 3.40625 0 5.609375-2.78125 5.609375-7.0625 0-4.171875-2.09375-6.75-5.5-6.75-1.78125 0-3.03125.65625-3.984375 2.109375v-6.78125zm5.625 6.578125c2.296875 0 3.765625 2 3.765625 5.078125 0 2.921875-1.515625 4.90625-3.765625 4.90625-2.1875 0-3.578125-1.953125-3.578125-4.984375s1.390625-5 3.578125-5zm0 0"/></symbol><symbol id="ay" overflow="visible"><path d="m9.640625 0 6.21875-17.921875h-2.4375l-4.96875 15.171875-5.25-15.171875h-2.46875l6.453125 17.921875zm0 0"/></symbol><symbol id="az" overflow="visible"><path d="m6.6875-13.25c-3.640625 0-5.796875 2.578125-5.796875 6.90625 0 4.359375 2.15625 6.90625 5.828125 6.90625 3.640625 0 5.828125-2.578125 5.828125-6.8125 0-4.46875-2.125-7-5.859375-7zm.03125 1.890625c2.3125 0 3.6875 1.890625 3.6875 5.09375 0 3.046875-1.421875 4.9375-3.6875 4.9375-2.296875 0-3.6875-1.890625-3.6875-5.015625s1.390625-5.015625 3.6875-5.015625zm-.8125-6.84375-2.390625 3.6875h1.484375l3.65625-3.6875zm4.28125 0-2.390625 3.6875h1.46875l3.671875-3.6875zm0 0"/></symbol><symbol id="aA" overflow="visible"><path d="m8.109375-4.890625v-1.15625c.03125-1.109375.375-1.65625 1.953125-3.046875 1.84375-1.671875 2.453125-2.765625 2.453125-4.40625 0-2.875-2.03125-4.71875-5.234375-4.71875-3.5625 0-5.390625 1.9375-5.390625 5.75h2.09375c0-2.65625.953125-3.84375 3.171875-3.84375 1.890625 0 3.15625 1.140625 3.15625 2.8125 0 1.125-.546875 2.09375-1.859375 3.25-2.078125 1.84375-2.546875 2.546875-2.546875 4v1.359375zm0 2.328125h-2.203125v2.5625h2.203125zm0 0"/></symbol><symbol id="aB" overflow="visible"><path d="m11.859375 0v-12.890625h-2.046875v7.3125c0 2.625-1.375 4.34375-3.515625 4.34375-1.625 0-2.65625-.984375-2.65625-2.53125v-9.125h-2.046875v9.9375c0 2.140625 1.609375 3.515625 4.109375 3.515625 1.890625 0 3.09375-.65625 4.3125-2.359375v1.796875zm0 0"/></symbol><symbol id="aC" overflow="visible"><path d="m5.21875-10.71875v10.71875h3.0625v-15.546875h-2.03125c-.484375 1.84375-2.078125 2.78125-4.765625 2.78125v2.046875zm0 0"/></symbol><symbol id="aD" overflow="visible"><path d="m4.6875-3.203125h-3.28125v3.203125h3.28125zm0 0"/></symbol><g clip-path="url(#a)"><path d="m3.359375 7020.11875h5946.054687" fill="none" stroke="#000" stroke-linecap="round" stroke-miterlimit="10" stroke-width="6.68493" transform="matrix(.1 0 0 -.1 0 772.59)"/></g><g clip-path="url(#b)"><path d="m3.359375 7119.767188h5946.054687" fill="none" stroke="#000" stroke-linecap="round" stroke-miterlimit="10" stroke-width="6.68493" transform="matrix(.1 0 0 -.1 0 772.59)"/></g><g clip-path="url(#c)"><path d="m3.359375 7219.376563h5946.054687" fill="none" stroke="#000" stroke-linecap="round" stroke-miterlimit="10" stroke-width="6.68493" transform="matrix(.1 0 0 -.1 0 772.59)"/></g><g clip-path="url(#d)"><path d="m3.359375 7319.025h5946.054687" fill="none" stroke="#000" stroke-linecap="round" stroke-miterlimit="10" stroke-width="6.68493" transform="matrix(.1 0 0 -.1 0 772.59)"/></g><g clip-path="url(#e)"><path d="m3.359375 7418.634375h5946.054687" fill="none" stroke="#000" stroke-linecap="round" stroke-miterlimit="10" stroke-width="6.68493" transform="matrix(.1 0 0 -.1 0 772.59)"/></g><path d="m5249.921875 6920.509375h178.476563" fill="none" stroke="#000" stroke-linecap="round" stroke-miterlimit="10" stroke-width="16.6476" transform="matrix(.1 0 0 -.1 0 772.59)"/><use x="459.55" xlink:href="#G" y="75.559"/><use x="322.789" xlink:href="#P" y="132.0481"/><use x="336.394873" xlink:href="#Q" y="132.0481"/><use x="350.000745" xlink:href="#R" y="132.0481"/><use x="355.443342" xlink:href="#S" y="132.0481"/><path d="m5397.539062 6942.071875h4.6875v325.117188h-4.6875zm0 0" fill="none" stroke="#000" stroke-linejoin="round" stroke-miterlimit="10" stroke-width="3.98506" transform="matrix(.1 0 0 -.1 0 772.59)"/><path d="m539.753906 78.382812h.46875v-32.511718h-.46875zm0 0"/><use x="519.715" xlink:href="#T" y="132.048"/><use x="527.878309" xlink:href="#Q" y="132.048"/><use x="541.315065" xlink:href="#U" y="132.048"/><use x="523.03141" xlink:href="#T" y="104.1527"/><use x="531.194719" xlink:href="#Q" y="104.1527"/><use x="527.41188" xlink:href="#G" y="80.5402"/><path d="m4718.867188 6991.915625h4.726562v325.078125h-4.726562zm0 0" fill="none" stroke="#000" stroke-linejoin="round" stroke-miterlimit="10" stroke-width="3.98506" transform="matrix(.1 0 0 -.1 0 772.59)"/><path d="m471.886719 73.398438h.472656v-32.507813h-.472656zm0 0"/><use x="444.879" xlink:href="#T" y="132.048"/><use x="453.042309" xlink:href="#Q" y="132.048"/><use x="466.648206" xlink:href="#V" y="132.048"/><use x="449.72666" xlink:href="#S" y="104.1527"/><use x="456.53017" xlink:href="#Q" y="104.1527"/><use x="470.136067" xlink:href="#W" y="104.1527"/><path d="m4101.210938 7041.720313h4.6875v275.429687h-4.6875zm0 0" fill="none" stroke="#000" stroke-linejoin="round" stroke-miterlimit="10" stroke-width="3.98506" transform="matrix(.1 0 0 -.1 0 772.59)"/><path d="m410.121094 68.417969h.46875v-27.542969h-.46875zm0 0"/><use x="395.441" xlink:href="#X" y="132.048"/><use x="390.67889" xlink:href="#Y" y="104.1527"/><use x="404.284763" xlink:href="#Q" y="104.1527"/><use x="397.78123" xlink:href="#G" y="70.5773"/><path d="m3483.515625 7091.525h4.726563v245.898438h-4.726563zm0 0" fill="none" stroke="#000" stroke-linejoin="round" stroke-miterlimit="10" stroke-width="3.98506" transform="matrix(.1 0 0 -.1 0 772.59)"/><path d="m348.351562 63.4375h.472657v-24.589844h-.472657zm0 0"/><g fill="none" stroke="#000" stroke-linecap="round" stroke-linejoin="round" stroke-miterlimit="10" transform="matrix(.1 0 0 -.1 0 772.59)"><g stroke-width="10.6999"><path d="m1596.132812 7587.110938v-69.726563"/><path d="m868.984375 7560.509375v-69.726562"/><path d="m1596.132812 7587.110938-353.632812-12.929688"/><path d="m868.984375 7560.509375 373.515625 13.671875"/></g><path d="m4307.890625 6751.798438h60.390625v3.359375h-60.390625zm0 0" stroke-width="5.34994"/></g><path d="m430.789062 97.410156h6.039063v-.335937h-6.039063zm0 0"/><path d="m1108.085938 6472.853125h60.390624v3.359375h-60.390624zm0 0" style="fill:none;stroke-width:5.34994;stroke-linecap:round;stroke-linejoin:round;stroke:#000;stroke-miterlimit:10" transform="matrix(.1 0 0 -.1 0 772.59)"/><path d="m110.808594 125.304688h6.039062v-.335938h-6.039062zm0 0"/><g fill="none" stroke="#000" stroke-linecap="round" stroke-linejoin="round" stroke-miterlimit="10" transform="matrix(.1 0 0 -.1 0 772.59)"><g stroke-width="10.6999"><path d="m2892.421875 7572.15v-69.726562"/><path d="m2165.3125 7621.017188v-69.726563"/><path d="m2892.421875 7572.15-353.59375 23.789063"/><path d="m2165.3125 7621.017188 373.515625-25.078125"/></g><path d="m3043.203125 6751.798438h60.390625v3.359375h-60.390625zm0 0" stroke-width="5.34994"/></g><path d="m304.320312 97.410156h6.039063v-.335937h-6.039063zm0 0"/><path d="m3021.523438 6472.853125h60.390624v3.359375h-60.390624zm0 0" style="fill:none;stroke-width:5.34994;stroke-linecap:round;stroke-linejoin:round;stroke:#000;stroke-miterlimit:10" transform="matrix(.1 0 0 -.1 0 772.59)"/><path d="m302.152344 125.304688h6.039062v-.335938h-6.039062zm0 0"/><path d="m3483.515625 7361.485938v-43.828125l622.382813-20.585938v43.867188zm0 0" fill="none" stroke="#000" stroke-linejoin="round" stroke-miterlimit="10" stroke-width="3.98506" transform="matrix(.1 0 0 -.1 0 772.59)"/><path d="m348.351562 36.441406v4.382813l62.238282 2.058593v-4.386718zm0 0"/><use x="580.332" xlink:href="#H" y="40.689"/><path d="m4259.84375 6472.853125h60.390625v3.359375h-60.390625zm0 0" fill="none" stroke="#000" stroke-linejoin="round" stroke-miterlimit="10" stroke-width="5.34994" transform="matrix(.1 0 0 -.1 0 772.59)"/><path d="m425.984375 125.304688h6.039063v-.335938h-6.039063zm0 0"/><path d="m4996.875 6751.798438h60.390625v3.359375h-60.390625zm0 0" fill="none" stroke="#000" stroke-linejoin="round" stroke-miterlimit="10" stroke-width="5.34994" transform="matrix(.1 0 0 -.1 0 772.59)"/><path d="m499.6875 97.410156h6.039062v-.335937h-6.039062zm0 0"/><path d="m5004.53125 6472.853125h60.390625v3.359375h-60.390625zm0 0" fill="none" stroke="#000" stroke-linejoin="round" stroke-miterlimit="10" stroke-width="5.34994" transform="matrix(.1 0 0 -.1 0 772.59)"/><path d="m500.453125 125.304688h6.039063v-.335938h-6.039063zm0 0"/><use x="60.0387" xlink:href="#Z" y="104.152"/><use x="80.6188" xlink:href="#aa" y="104.152"/><use x="86.061385" xlink:href="#ab" y="104.152"/><use x="99.667263" xlink:href="#S" y="104.152"/><use x="144.6129" xlink:href="#G" y="60.6141"/><path d="m890.898438 7091.525h4.6875v325.117188h-4.6875zm0 0" fill="none" stroke="#000" stroke-linejoin="round" stroke-miterlimit="10" stroke-width="3.98506" transform="matrix(.1 0 0 -.1 0 772.59)"/><path d="m89.089844 63.4375h.46875v-32.511719h-.46875zm0 0"/><use x="67.0117" xlink:href="#ac" y="132.048"/><use x="80.448438" xlink:href="#ad" y="132.048"/><use x="94.054317" xlink:href="#ae" y="132.048"/><use x="31.707" xlink:href="#aC" y="104.1527"/><use x="43.953108" xlink:href="#aD" y="104.1527"/><use x="336.013" xlink:href="#G" y="65.5961"/><use x="43.873" xlink:href="#I" y="50.6524"/><use x="7.9703" xlink:href="#J" y="60.6149"/><use x="76.7496" xlink:href="#G" y="65.59615"/><use x="193.2416" xlink:href="#af" y="132.04815"/><use x="206.847473" xlink:href="#ag" y="132.04815"/><use x="220.284204" xlink:href="#ah" y="132.04815"/><path d="m2865.820312 7141.329688h4.726563v325.117187h-4.726563zm0 0" fill="none" stroke="#000" stroke-linejoin="round" stroke-miterlimit="10" stroke-width="3.98506" transform="matrix(.1 0 0 -.1 0 772.59)"/><path d="m286.582031 58.457031h.472657v-32.511719h-.472657zm0 0"/><use x="273.946" xlink:href="#ai" y="132.048"/><use x="270.54483" xlink:href="#P" y="104.1527"/><use x="284.150703" xlink:href="#aj" y="104.1527"/><use x="274.24483" xlink:href="#G" y="60.6148"/><use x="287.25423" xlink:href="#K" y="25.9449"/><use x="144.31523" xlink:href="#Q" y="104.1527"/><path d="m2187.226562 7191.173438h4.6875v325.078125h-4.6875zm0 0" fill="none" stroke="#000" stroke-linejoin="round" stroke-miterlimit="10" stroke-width="3.98506" transform="matrix(.1 0 0 -.1 0 772.59)"/><path d="m218.722656 53.476562h.46875v-32.511718h-.46875zm0 0"/><use x="187.034" xlink:href="#ak" y="104.152"/><use x="199.280107" xlink:href="#al" y="104.152"/><use x="211.526213" xlink:href="#am" y="104.152"/><use x="225.132086" xlink:href="#Y" y="104.152"/><use x="206.3817" xlink:href="#G" y="55.6329"/><use x="157.6223" xlink:href="#K" y="25.9442"/><path d="m1569.53125 7141.329688h4.6875v325.117187h-4.6875zm0 0" fill="none" stroke="#000" stroke-linejoin="round" stroke-miterlimit="10" stroke-width="3.98506" transform="matrix(.1 0 0 -.1 0 772.59)"/><path d="m156.953125 58.457031h.46875v-32.511719h-.46875zm0 0"/><use x="128.156" xlink:href="#W" y="132.048"/><use x="139.891168" xlink:href="#ad" y="132.048"/><use x="153.49704" xlink:href="#V" y="132.048"/><use x="323.724" xlink:href="#an" y="104.1527"/><use x="335.458779" xlink:href="#ad" y="104.1527"/><use x="349.064651" xlink:href="#ak" y="104.1527"/><g clip-path="url(#f)"><path d="m3.359375 5639.103125h5946.054687" style="fill:none;stroke-width:6.68493;stroke-linecap:round;stroke-linejoin:round;stroke:#000;stroke-miterlimit:10" transform="matrix(.1 0 0 -.1 0 772.59)"/></g><g clip-path="url(#g)"><path d="m3.359375 5738.7125h5946.054687" style="fill:none;stroke-width:6.68493;stroke-linecap:round;stroke-linejoin:round;stroke:#000;stroke-miterlimit:10" transform="matrix(.1 0 0 -.1 0 772.59)"/></g><g clip-path="url(#h)"><path d="m3.359375 5838.360938h5946.054687" style="fill:none;stroke-width:6.68493;stroke-linecap:round;stroke-linejoin:round;stroke:#000;stroke-miterlimit:10" transform="matrix(.1 0 0 -.1 0 772.59)"/></g><g clip-path="url(#i)"><path d="m3.359375 5937.970313h5946.054687" style="fill:none;stroke-width:6.68493;stroke-linecap:round;stroke-linejoin:round;stroke:#000;stroke-miterlimit:10" transform="matrix(.1 0 0 -.1 0 772.59)"/></g><g clip-path="url(#j)"><path d="m3.359375 6037.61875h5946.054687" style="fill:none;stroke-width:6.68493;stroke-linecap:round;stroke-linejoin:round;stroke:#000;stroke-miterlimit:10" transform="matrix(.1 0 0 -.1 0 772.59)"/></g><use x="581.427" xlink:href="#L" y="183.774"/><use x="581.427" xlink:href="#L" y="193.73689"/><g clip-path="url(#k)"><path d="m5932.695312 5639.103125v398.515625" fill="none" stroke="#000" stroke-linejoin="round" stroke-miterlimit="10" stroke-width="40.1395" transform="matrix(.1 0 0 -.1 0 772.59)"/></g><path d="m5886.210938 5639.103125v398.515625" fill="none" stroke="#000" stroke-linejoin="round" stroke-miterlimit="10" stroke-width="12.7123" transform="matrix(.1 0 0 -.1 0 772.59)"/><use x="433.11" xlink:href="#G" y="198.718"/><path d="m2917.851562 5504.103125h4.726563v312.65625h-4.726563zm0 0" fill="none" stroke="#000" stroke-linejoin="round" stroke-miterlimit="10" stroke-width="3.98506" transform="matrix(.1 0 0 -.1 0 772.59)"/><path d="m291.785156 222.179688h.472656v-31.265626h-.472656zm0 0"/><path d="m5196.054688 5710.509375h4.726562v325.117188h-4.726562zm0 0" fill="none" stroke="#000" stroke-linejoin="round" stroke-miterlimit="10" stroke-width="3.98506" transform="matrix(.1 0 0 -.1 0 772.59)"/><path d="m519.605469 201.539062h.472656v-32.511718h-.472656zm0 0"/><use x="494.724" xlink:href="#ao" y="273.192"/><use x="508.329897" xlink:href="#aa" y="273.192"/><use x="513.772494" xlink:href="#W" y="273.192"/><use x="526.0186" xlink:href="#U" y="273.192"/><use x="495.574781" xlink:href="#al" y="245.2967"/><use x="507.480262" xlink:href="#aa" y="245.2967"/><use x="512.922858" xlink:href="#W" y="245.2967"/><use x="525.168965" xlink:href="#U" y="245.2967"/><use x="507.268881" xlink:href="#G" y="203.6987"/><path d="m4454.492188 5760.314063h4.6875v325.117187h-4.6875zm0 0" fill="none" stroke="#000" stroke-linejoin="round" stroke-miterlimit="10" stroke-width="3.98506" transform="matrix(.1 0 0 -.1 0 772.59)"/><path d="m445.449219 196.558594h.46875v-32.511719h-.46875zm0 0"/><use x="426.858" xlink:href="#W" y="273.192"/><use x="438.763481" xlink:href="#ap" y="273.192"/><use x="426.858" xlink:href="#W" y="245.2967"/><use x="438.763481" xlink:href="#ap" y="245.2967"/><g fill="none" stroke="#000" stroke-linecap="round" stroke-linejoin="round" stroke-miterlimit="10" transform="matrix(.1 0 0 -.1 0 772.59)"><g stroke-width="10.6999"><path d="m1649.140625 6205.626563v-69.726563"/><path d="m859.023438 6179.142188v-69.765625"/><path d="m1649.140625 6205.626563-385.117187-12.929688"/><path d="m859.023438 6179.142188 405 13.59375"/></g><path d="m3712.890625 5810.11875h4.726563v325.117188h-4.726563zm0 0" stroke-width="3.98506"/></g><path d="m371.289062 191.578125h.472657v-32.511719h-.472657zm0 0"/><use x="339.604" xlink:href="#P" y="273.192"/><use x="353.209873" xlink:href="#aq" y="273.192"/><use x="366.816136" xlink:href="#ak" y="273.192"/><use x="379.062242" xlink:href="#al" y="273.192"/><use x="345.89736" xlink:href="#an" y="245.2967"/><use x="357.802841" xlink:href="#aq" y="245.2967"/><use x="371.408713" xlink:href="#ab" y="245.2967"/><use x="358.95126" xlink:href="#G" y="193.7362"/><use x="292.45676" xlink:href="#M" y="222.1796"/><path d="m4060.625 5061.407813h60.390625v3.359375h-60.390625zm0 0" style="fill:none;stroke-width:5.34994;stroke-linecap:round;stroke-linejoin:round;stroke:#000;stroke-miterlimit:10" transform="matrix(.1 0 0 -.1 0 772.59)"/><path d="m406.0625 266.449219h6.039062v-.335938h-6.039062zm0 0"/><path d="m1891.640625 5340.353125h60.390625v3.359375h-60.390625zm0 0" style="fill:none;stroke-width:5.34994;stroke-linecap:round;stroke-linejoin:round;stroke:#000;stroke-miterlimit:10" transform="matrix(.1 0 0 -.1 0 772.59)"/><path d="m189.164062 238.554688h6.039063v-.335938h-6.039063zm0 0"/><path d="m1903.945312 5061.407813h60.429688v3.359375h-60.429688zm0 0" style="fill:none;stroke-width:5.34994;stroke-linecap:round;stroke-linejoin:round;stroke:#000;stroke-miterlimit:10" transform="matrix(.1 0 0 -.1 0 772.59)"/><path d="m190.394531 266.449219h6.042969v-.335938h-6.042969zm0 0"/><g fill="none" stroke="#000" stroke-linecap="round" stroke-linejoin="round" stroke-miterlimit="10" transform="matrix(.1 0 0 -.1 0 772.59)"><g stroke-width="10.6999"><path d="m3065.898438 6246.8375v-69.765625"/><path d="m2274.21875 6246.8375v-69.765625"/><path d="m3065.898438 6246.8375h-385.859376"/><path d="m2274.21875 6246.8375h405.820312"/></g><path d="m3237.34375 5340.353125h60.429688v3.359375h-60.429688zm0 0" stroke-width="5.34994"/></g><path d="m323.734375 238.554688h6.042969v-.335938h-6.042969zm0 0"/><path d="m3208.867188 5061.407813h60.429687v3.359375h-60.429687zm0 0" style="fill:none;stroke-width:5.34994;stroke-linecap:round;stroke-linejoin:round;stroke:#000;stroke-miterlimit:10" transform="matrix(.1 0 0 -.1 0 772.59)"/><path d="m320.886719 266.449219h6.042969v-.335938h-6.042969zm0 0"/><path d="m4029.179688 5340.353125h60.390624v3.359375h-60.390624zm0 0" style="fill:none;stroke-width:5.34994;stroke-linecap:round;stroke-linejoin:round;stroke:#000;stroke-miterlimit:10" transform="matrix(.1 0 0 -.1 0 772.59)"/><path d="m402.917969 238.554688h6.039062v-.335938h-6.039062zm0 0"/><path d="m4709.53125 5340.353125h60.390625v3.359375h-60.390625zm0 0" style="fill:none;stroke-width:5.34994;stroke-linecap:round;stroke-linejoin:round;stroke:#000;stroke-miterlimit:10" transform="matrix(.1 0 0 -.1 0 772.59)"/><path d="m470.953125 238.554688h6.039063v-.335938h-6.039063zm0 0"/><path d="m4705.273438 5061.407813h60.390624v3.359375h-60.390624zm0 0" style="fill:none;stroke-width:5.34994;stroke-linecap:round;stroke-linejoin:round;stroke:#000;stroke-miterlimit:10" transform="matrix(.1 0 0 -.1 0 772.59)"/><path d="m470.527344 266.449219h6.039062v-.335938h-6.039062zm0 0"/><path d="m880.9375 5710.509375h4.6875v325.117188h-4.6875zm0 0" style="fill:none;stroke-width:3.98506;stroke-linecap:round;stroke-linejoin:round;stroke:#000;stroke-miterlimit:10" transform="matrix(.1 0 0 -.1 0 772.59)"/><path d="m88.09375 201.539062h.46875v-32.511718h-.46875zm0 0"/><use x="287.972" xlink:href="#ar" y="273.192"/><use x="294.604831" xlink:href="#ap" y="273.192"/><use x="74.094" xlink:href="#as" y="245.2967"/><use x="75.75298" xlink:href="#G" y="203.6987"/><use x="43.87248" xlink:href="#I" y="188.755"/><use x="7.96978" xlink:href="#J" y="198.7175"/><use x="67.97098" xlink:href="#at" y="273.1921"/><use x="84.298737" xlink:href="#ak" y="273.1921"/><use x="288.56698" xlink:href="#W" y="245.2968"/><use x="300.813087" xlink:href="#aj" y="245.2968"/><use x="291.5869" xlink:href="#G" y="188.755"/><path d="m2296.171875 5810.11875h4.6875v325.117188h-4.6875zm0 0" style="fill:none;stroke-width:3.98506;stroke-linecap:round;stroke-linejoin:round;stroke:#000;stroke-miterlimit:10" transform="matrix(.1 0 0 -.1 0 772.59)"/><path d="m229.617188 191.578125h.46875v-32.511719h-.46875zm0 0"/><use x="210.855" xlink:href="#al" y="273.192"/><use x="223.101107" xlink:href="#aq" y="273.192"/><use x="204.90227" xlink:href="#an" y="245.2967"/><use x="216.80736" xlink:href="#Q" y="245.2967"/><use x="230.413623" xlink:href="#ak" y="245.2967"/><use x="217.27567" xlink:href="#G" y="193.7362"/><use x="149.91117" xlink:href="#G" y="198.71745"/><use x="133.37017" xlink:href="#ak" y="245.29675"/><use x="145.616277" xlink:href="#al" y="245.29675"/><use x="157.69207" xlink:href="#Q" y="245.29675"/><use x="171.297943" xlink:href="#T" y="245.29675"/><use x="136.85728" xlink:href="#P" y="273.19205"/><use x="150.463153" xlink:href="#ap" y="273.19205"/><use x="163.729571" xlink:href="#al" y="273.19205"/><path d="m1622.539062 5760.314063h4.6875v325.117187h-4.6875zm0 0" style="fill:none;stroke-width:3.98506;stroke-linecap:round;stroke-linejoin:round;stroke:#000;stroke-miterlimit:10" transform="matrix(.1 0 0 -.1 0 772.59)"/><path d="m162.253906 196.558594h.46875v-32.511719h-.46875zm0 0"/><use x="162.921" xlink:href="#K" y="164.048"/><g clip-path="url(#l)"><path d="m3.359375 4271.99375h5946.054687" style="fill:none;stroke-width:6.68493;stroke-linecap:round;stroke-linejoin:round;stroke:#000;stroke-miterlimit:10" transform="matrix(.1 0 0 -.1 0 772.59)"/></g><g clip-path="url(#m)"><path d="m3.359375 4371.642188h5946.054687" style="fill:none;stroke-width:6.68493;stroke-linecap:round;stroke-linejoin:round;stroke:#000;stroke-miterlimit:10" transform="matrix(.1 0 0 -.1 0 772.59)"/></g><g clip-path="url(#n)"><path d="m3.359375 4471.251563h5946.054687" style="fill:none;stroke-width:6.68493;stroke-linecap:round;stroke-linejoin:round;stroke:#000;stroke-miterlimit:10" transform="matrix(.1 0 0 -.1 0 772.59)"/></g><g clip-path="url(#o)"><path d="m3.359375 4570.9h5946.054687" style="fill:none;stroke-width:6.68493;stroke-linecap:round;stroke-linejoin:round;stroke:#000;stroke-miterlimit:10" transform="matrix(.1 0 0 -.1 0 772.59)"/></g><g clip-path="url(#p)"><path d="m3.359375 4670.509375h5946.054687" style="fill:none;stroke-width:6.68493;stroke-linecap:round;stroke-linejoin:round;stroke:#000;stroke-miterlimit:10" transform="matrix(.1 0 0 -.1 0 772.59)"/></g><use x="305.02" xlink:href="#M" y="358.888"/><path d="m5293.984375 4443.048438h4.726563v325.117187h-4.726563zm0 0" style="fill:none;stroke-width:3.98506;stroke-linecap:round;stroke-linejoin:round;stroke:#000;stroke-miterlimit:10" transform="matrix(.1 0 0 -.1 0 772.59)"/><path d="m529.398438 328.285156h.472656v-32.511718h-.472656zm0 0"/><use x="496.267" xlink:href="#ab" y="382.276"/><use x="509.872897" xlink:href="#ad" y="382.276"/><use x="523.478794" xlink:href="#V" y="382.276"/><use x="544.058522" xlink:href="#U" y="382.276"/><use x="517.06" xlink:href="#G" y="330.4451"/><path d="m4584.296875 4393.24375h4.726563v275.390625h-4.726563zm0 0" style="fill:none;stroke-width:3.98506;stroke-linecap:round;stroke-linejoin:round;stroke:#000;stroke-miterlimit:10" transform="matrix(.1 0 0 -.1 0 772.59)"/><path d="m458.429688 333.265625h.472656v-27.539063h-.472656zm0 0"/><use x="442.561" xlink:href="#S" y="382.276"/><use x="449.023495" xlink:href="#ad" y="382.276"/><use x="446.09069" xlink:href="#G" y="335.4264"/><path d="m3874.609375 4443.048438h4.6875v245.898437h-4.6875zm0 0" style="fill:none;stroke-width:3.98506;stroke-linecap:round;stroke-linejoin:round;stroke:#000;stroke-miterlimit:10" transform="matrix(.1 0 0 -.1 0 772.59)"/><path d="m387.460938 328.285156h.46875v-24.589844h-.46875zm0 0"/><use x="372.101" xlink:href="#au" y="382.276"/><use x="378.904535" xlink:href="#ak" y="382.276"/><use x="375.12053" xlink:href="#G" y="330.4451"/><g fill="none" stroke="#000" stroke-linecap="round" stroke-linejoin="round" stroke-miterlimit="10" transform="matrix(.1 0 0 -.1 0 772.59)"><g stroke-width="10.6999"><path d="m1699.6875 4883.321875v-69.726562"/><path d="m868.984375 4883.321875v-69.726562"/><path d="m1699.6875 4883.321875h-405.390625"/><path d="m868.984375 4883.321875h425.3125"/></g><path d="m1161.523438 3970.5875h60.429687v3.359375h-60.429687zm0 0" stroke-width="5.34994"/></g><path d="m116.152344 375.53125h6.039062v-.332031h-6.039062zm0 0"/><path d="m1921.914062 3970.5875h60.390626v3.359375h-60.390626zm0 0" style="fill:none;stroke-width:5.34994;stroke-linecap:round;stroke-linejoin:round;stroke:#000;stroke-miterlimit:10" transform="matrix(.1 0 0 -.1 0 772.59)"/><path d="m192.191406 375.53125h6.039063v-.332031h-6.039063zm0 0"/><g fill="none" stroke="#000" stroke-linejoin="round" stroke-miterlimit="10" transform="matrix(.1 0 0 -.1 0 772.59)"><g stroke-linecap="round" stroke-width="10.6999"><path d="m3191.523438 4808.360938v-69.726563"/><path d="m2239.414062 4808.360938v-69.726563"/><path d="m3191.523438 4808.360938h-466.09375"/><path d="m2239.414062 4808.360938h486.015626"/></g><path d="m3874.609375 4713.009375v-43.867187l714.375-20.546875v43.828125zm0 0" stroke-width="3.98506"/></g><path d="m387.460938 301.289062v4.386719l71.4375 2.054688v-4.382813zm0 0"/><path d="m4138.359375 3970.5875h60.390625v3.359375h-60.390625zm0 0" fill="none" stroke="#000" stroke-linejoin="round" stroke-miterlimit="10" stroke-width="5.34994" transform="matrix(.1 0 0 -.1 0 772.59)"/><path d="m413.835938 375.53125h6.039062v-.332031h-6.039062zm0 0"/><path d="m4764.296875 3970.5875h60.390625v3.359375h-60.390625zm0 0" fill="none" stroke="#000" stroke-linejoin="round" stroke-miterlimit="10" stroke-width="5.34994" transform="matrix(.1 0 0 -.1 0 772.59)"/><path d="m476.429688 375.53125h6.039062v-.332031h-6.039062zm0 0"/><use x="580.332" xlink:href="#H" y="315.501"/><use x="7.97" xlink:href="#J" y="335.426"/><path d="m890.898438 4443.048438h4.6875v325.117187h-4.6875zm0 0" fill="none" stroke="#000" stroke-linejoin="round" stroke-miterlimit="10" stroke-width="3.98506" transform="matrix(.1 0 0 -.1 0 772.59)"/><path d="m89.089844 328.285156h.46875v-32.511718h-.46875zm0 0"/><use x="70.073" xlink:href="#av" y="382.276"/><use x="82.829263" xlink:href="#ad" y="382.276"/><use x="76.74917" xlink:href="#G" y="330.4451"/><use x="43.87257" xlink:href="#I" y="325.46385"/><path d="m3043.515625 4137.032813h4.6875v312.65625h-4.6875zm0 0" fill="none" stroke="#000" stroke-linejoin="round" stroke-miterlimit="10" stroke-width="3.98506" transform="matrix(.1 0 0 -.1 0 772.59)"/><path d="m304.351562 358.886719h.46875v-31.265625h-.46875zm0 0"/><use x="297.048" xlink:href="#am" y="382.276"/><use x="310.653873" xlink:href="#ab" y="382.276"/><use x="304.15034" xlink:href="#G" y="325.4639"/><path d="m2261.367188 4174.376563h4.6875v325.117187h-4.6875zm0 0" fill="none" stroke="#000" stroke-linejoin="round" stroke-miterlimit="10" stroke-width="3.98506" transform="matrix(.1 0 0 -.1 0 772.59)"/><path d="m226.136719 355.152344h.46875v-32.511719h-.46875zm0 0"/><use x="209.394" xlink:href="#al" y="382.276"/><use x="221.640107" xlink:href="#aq" y="382.276"/><use x="235.245979" xlink:href="#ao" y="382.276"/><use x="248.682711" xlink:href="#U" y="382.276"/><use x="225.935" xlink:href="#G" y="320.4826"/><use x="167.9745" xlink:href="#K" y="295.7752"/><path d="m1673.046875 4443.048438h4.726563v325.117187h-4.726563zm0 0" fill="none" stroke="#000" stroke-linejoin="round" stroke-miterlimit="10" stroke-width="3.98506" transform="matrix(.1 0 0 -.1 0 772.59)"/><path d="m167.304688 328.285156h.46875v-32.511718h-.46875zm0 0"/><use x="141.911" xlink:href="#P" y="382.276"/><use x="155.516873" xlink:href="#ap" y="382.276"/><use x="168.783291" xlink:href="#al" y="382.276"/><use x="154.9649" xlink:href="#G" y="330.4451"/><g clip-path="url(#q)"><path d="m3.359375 3076.485938h5946.054687" style="fill:none;stroke-width:6.68493;stroke-linecap:round;stroke-linejoin:round;stroke:#000;stroke-miterlimit:10" transform="matrix(.1 0 0 -.1 0 772.59)"/></g><g clip-path="url(#r)"><path d="m3.359375 3176.134375h5946.054687" style="fill:none;stroke-width:6.68493;stroke-linecap:round;stroke-linejoin:round;stroke:#000;stroke-miterlimit:10" transform="matrix(.1 0 0 -.1 0 772.59)"/></g><g clip-path="url(#s)"><path d="m3.359375 3275.74375h5946.054687" style="fill:none;stroke-width:6.68493;stroke-linecap:round;stroke-linejoin:round;stroke:#000;stroke-miterlimit:10" transform="matrix(.1 0 0 -.1 0 772.59)"/></g><g clip-path="url(#t)"><path d="m3.359375 3375.392188h5946.054687" style="fill:none;stroke-width:6.68493;stroke-linecap:round;stroke-linejoin:round;stroke:#000;stroke-miterlimit:10" transform="matrix(.1 0 0 -.1 0 772.59)"/></g><g clip-path="url(#u)"><path d="m3.359375 3475.001563h5946.054687" style="fill:none;stroke-width:6.68493;stroke-linecap:round;stroke-linejoin:round;stroke:#000;stroke-miterlimit:10" transform="matrix(.1 0 0 -.1 0 772.59)"/></g><use x="445.803" xlink:href="#G" y="449.997"/><path d="m5292.460938 3197.696875h4.726562v325.117188h-4.726562zm0 0" style="fill:none;stroke-width:3.98506;stroke-linecap:round;stroke-linejoin:round;stroke:#000;stroke-miterlimit:10" transform="matrix(.1 0 0 -.1 0 772.59)"/><path d="m529.246094 452.820312h.472656v-32.511718h-.472656zm0 0"/><use x="497.051" xlink:href="#W" y="499.81"/><use x="508.785779" xlink:href="#ad" y="499.81"/><use x="522.392066" xlink:href="#V" y="499.81"/><use x="542.971795" xlink:href="#U" y="499.81"/><use x="516.9084" xlink:href="#G" y="454.9784"/><path d="m4581.445312 3247.501563h4.6875v304.6875h-4.6875zm0 0" style="fill:none;stroke-width:3.98506;stroke-linecap:round;stroke-linejoin:round;stroke:#000;stroke-miterlimit:10" transform="matrix(.1 0 0 -.1 0 772.59)"/><path d="m458.144531 447.839844h.46875v-30.46875h-.46875zm0 0"/><use x="440.062" xlink:href="#ae" y="499.81"/><use x="445.504597" xlink:href="#ad" y="499.81"/><use x="459.110494" xlink:href="#ae" y="499.81"/><g fill="none" stroke="#000" stroke-linecap="round" stroke-linejoin="round" stroke-miterlimit="10" transform="matrix(.1 0 0 -.1 0 772.59)"><g stroke-width="10.6999"><path d="m1691.210938 3612.853125v-69.726562"/><path d="m737.617188 3612.853125v-69.726562"/><path d="m1691.210938 3612.853125h-466.835938"/><path d="m737.617188 3612.853125h486.757812"/></g><path d="m3870.390625 3297.345313h4.6875v275.15625h-4.6875zm0 0" stroke-width="3.98506"/></g><path d="m387.039062 442.855469h.46875v-27.515625h-.46875zm0 0"/><use x="367.596" xlink:href="#am" y="499.81"/><use x="381.201873" xlink:href="#ab" y="499.81"/><use x="374.69756" xlink:href="#G" y="445.0155"/><use x="304.46166" xlink:href="#M" y="474.7042"/><path d="m1292.226562 2795.235938h60.390626v3.359375h-60.390626zm0 0" style="fill:none;stroke-width:5.34994;stroke-linecap:round;stroke-linejoin:round;stroke:#000;stroke-miterlimit:10" transform="matrix(.1 0 0 -.1 0 772.59)"/><path d="m129.222656 493.066406h6.039063v-.335937h-6.039063zm0 0"/><path d="m1911.171875 2795.235938h60.390625v3.359375h-60.390625zm0 0" style="fill:none;stroke-width:5.34994;stroke-linecap:round;stroke-linejoin:round;stroke:#000;stroke-miterlimit:10" transform="matrix(.1 0 0 -.1 0 772.59)"/><path d="m191.117188 493.066406h6.039062v-.335937h-6.039062zm0 0"/><g fill="none" stroke="#000" stroke-linecap="round" stroke-linejoin="round" stroke-miterlimit="10" transform="matrix(.1 0 0 -.1 0 772.59)"><g stroke-width="10.6999"><path d="m3185.9375 3612.853125v-69.726562"/><path d="m2232.34375 3612.853125v-69.726562"/><path d="m3185.9375 3612.853125h-466.835938"/><path d="m2232.34375 3612.853125h486.757812"/></g><path d="m2673.007812 2795.235938h60.390626v3.359375h-60.390626zm0 0" stroke-width="5.34994"/></g><path d="m267.296875 493.066406h6.042969v-.335937h-6.042969zm0 0"/><path d="m3870.351562 3596.564063v-43.867188l715.78125-20.546875v43.828125zm0 0" fill="none" stroke="#000" stroke-linejoin="round" stroke-miterlimit="10" stroke-width="3.98506" transform="matrix(.1 0 0 -.1 0 772.59)"/><path d="m387.035156 412.933594v4.386718l71.578125 2.054688v-4.382812zm0 0"/><path d="m4777.8125 2795.235938h60.390625v3.359375h-60.390625zm0 0" fill="none" stroke="#000" stroke-linejoin="round" stroke-miterlimit="10" stroke-width="5.34994" transform="matrix(.1 0 0 -.1 0 772.59)"/><path d="m477.78125 493.066406h6.039062v-.335937h-6.039062zm0 0"/><use x="580.332" xlink:href="#N" y="445.015"/><use x="7.97" xlink:href="#J" y="454.97789"/><path d="m3037.929688 2978.86875h4.726562v325.117188h-4.726562zm0 0" fill="none" stroke="#000" stroke-linejoin="round" stroke-miterlimit="10" stroke-width="3.98506" transform="matrix(.1 0 0 -.1 0 772.59)"/><path d="m303.792969 474.703125h.472656v-32.511719h-.472656zm0 0"/><use x="51.1332" xlink:href="#aw" y="499.81"/><use x="67.460957" xlink:href="#al" y="499.81"/><use x="79.196124" xlink:href="#ap" y="499.81"/><use x="92.802003" xlink:href="#V" y="499.81"/><use x="75.7531" xlink:href="#G" y="440.0342"/><use x="43.8726" xlink:href="#I" y="445.01545"/><path d="m759.53125 2978.86875h4.726562v325.117188h-4.726562zm0 0" fill="none" stroke="#000" stroke-linejoin="round" stroke-miterlimit="10" stroke-width="3.98506" transform="matrix(.1 0 0 -.1 0 772.59)"/><path d="m75.953125 474.703125h.472656v-32.511719h-.472656zm0 0"/><use x="295.301" xlink:href="#al" y="499.81"/><use x="307.20609" xlink:href="#aa" y="499.81"/><use x="312.648686" xlink:href="#W" y="499.81"/><use x="303.5928" xlink:href="#G" y="440.0342"/><path d="m2254.257812 3028.673438h4.726563v325.117187h-4.726563zm0 0" fill="none" stroke="#000" stroke-linejoin="round" stroke-miterlimit="10" stroke-width="3.98506" transform="matrix(.1 0 0 -.1 0 772.59)"/><path d="m225.425781 469.722656h.46875v-32.511718h-.46875zm0 0"/><use x="218.124" xlink:href="#P" y="499.81"/><use x="231.729873" xlink:href="#ap" y="499.81"/><use x="225.22517" xlink:href="#G" y="435.053"/><use x="154.98967" xlink:href="#M" y="474.7042"/><path d="m1543.203125 2978.86875h4.726563v325.117188h-4.726563zm0 0" fill="none" stroke="#000" stroke-linejoin="round" stroke-miterlimit="10" stroke-width="3.98506" transform="matrix(.1 0 0 -.1 0 772.59)"/><path d="m154.320312 474.703125h.472657v-32.511719h-.472657zm0 0"/><use x="151.1" xlink:href="#R" y="499.81"/><use x="156.542584" xlink:href="#af" y="499.81"/><use x="154.1207" xlink:href="#G" y="440.0342"/><g clip-path="url(#v)"><path d="m3.359375 1880.978125h5946.054687" style="fill:none;stroke-width:6.68493;stroke-linecap:round;stroke-linejoin:round;stroke:#000;stroke-miterlimit:10" transform="matrix(.1 0 0 -.1 0 772.59)"/></g><g clip-path="url(#w)"><path d="m3.359375 1980.626563h5946.054687" style="fill:none;stroke-width:6.68493;stroke-linecap:round;stroke-linejoin:round;stroke:#000;stroke-miterlimit:10" transform="matrix(.1 0 0 -.1 0 772.59)"/></g><g clip-path="url(#x)"><path d="m3.359375 2080.235938h5946.054687" style="fill:none;stroke-width:6.68493;stroke-linecap:round;stroke-linejoin:round;stroke:#000;stroke-miterlimit:10" transform="matrix(.1 0 0 -.1 0 772.59)"/></g><g clip-path="url(#y)"><path d="m3.359375 2179.845313h5946.054687" style="fill:none;stroke-width:6.68493;stroke-linecap:round;stroke-linejoin:round;stroke:#000;stroke-miterlimit:10" transform="matrix(.1 0 0 -.1 0 772.59)"/></g><g clip-path="url(#z)"><path d="m3.359375 2279.49375h5946.054687" style="fill:none;stroke-width:6.68493;stroke-linecap:round;stroke-linejoin:round;stroke:#000;stroke-miterlimit:10" transform="matrix(.1 0 0 -.1 0 772.59)"/></g><use x="337.116" xlink:href="#G" y="579.511"/><path d="m5393.828125 1952.384375h4.726563v325.117188h-4.726563zm0 0" style="fill:none;stroke-width:3.98506;stroke-linecap:round;stroke-linejoin:round;stroke:#000;stroke-miterlimit:10" transform="matrix(.1 0 0 -.1 0 772.59)"/><path d="m539.382812 577.351562h.472657v-32.511718h-.472657zm0 0"/><use x="513.141" xlink:href="#ax" y="619.361"/><use x="526.747288" xlink:href="#ad" y="619.361"/><use x="540.353185" xlink:href="#ab" y="619.361"/><use x="527.0461" xlink:href="#G" y="579.5102"/><path d="m4736.445312 2051.99375h4.726563v325.117188h-4.726563zm0 0" style="fill:none;stroke-width:3.98506;stroke-linecap:round;stroke-linejoin:round;stroke:#000;stroke-miterlimit:10" transform="matrix(.1 0 0 -.1 0 772.59)"/><path d="m473.644531 567.390625h.472657v-32.511719h-.472657zm0 0"/><use x="465.089" xlink:href="#aa" y="619.361"/><use x="461.30502" xlink:href="#G" y="569.5477"/><path d="m4115.507812 2002.189063h4.6875v275.15625h-4.6875zm0 0" style="fill:none;stroke-width:3.98506;stroke-linecap:round;stroke-linejoin:round;stroke:#000;stroke-miterlimit:10" transform="matrix(.1 0 0 -.1 0 772.59)"/><path d="m411.550781 572.371094h.46875v-27.515625h-.46875zm0 0"/><use x="396.19" xlink:href="#ae" y="619.361"/><use x="401.632597" xlink:href="#ad" y="619.361"/><use x="399.20992" xlink:href="#G" y="574.529"/><path d="m3494.53125 1952.384375h4.726562v304.6875h-4.726562zm0 0" style="fill:none;stroke-width:3.98506;stroke-linecap:round;stroke-linejoin:round;stroke:#000;stroke-miterlimit:10" transform="matrix(.1 0 0 -.1 0 772.59)"/><path d="m349.453125 577.351562h.472656v-30.46875h-.472656zm0 0"/><use x="336.817" xlink:href="#ad" y="619.361"/><g fill="none" stroke="#000" stroke-linecap="round" stroke-linejoin="round" stroke-miterlimit="10" transform="matrix(.1 0 0 -.1 0 772.59)"><g stroke-width="10.6999"><path d="m1598.515625 2488.7125v-69.765625"/><path d="m859.023438 2488.7125v-69.765625"/><path d="m1598.515625 2488.7125h-359.804687"/><path d="m859.023438 2488.7125h379.6875"/></g><path d="m1127.65625 1599.728125h60.390625v3.320313h-60.390625zm0 0" stroke-width="5.34994"/></g><path d="m112.765625 612.617188h6.039063v-.332032h-6.039063zm0 0"/><g fill="none" stroke="#000" stroke-linecap="round" stroke-linejoin="round" stroke-miterlimit="10" transform="matrix(.1 0 0 -.1 0 772.59)"><g stroke-width="10.6999"><path d="m2900.234375 2492.30625v-69.726562"/><path d="m2049.492188 2492.30625v-69.726562"/><path d="m2900.234375 2492.30625h-415.429687"/><path d="m2049.492188 2492.30625h435.3125"/></g><path d="m2420.859375 1599.728125h60.390625v3.320313h-60.390625zm0 0" stroke-width="5.34994"/></g><path d="m242.085938 612.617188h6.039062v-.332032h-6.039062zm0 0"/><path d="m3494.53125 2280.821875v-43.828125l625.664062 20.585938v43.828125zm0 0" fill="none" stroke="#000" stroke-linejoin="round" stroke-miterlimit="10" stroke-width="3.98506" transform="matrix(.1 0 0 -.1 0 772.59)"/><path d="m349.453125 544.507812v4.382813l62.566406-2.058594v-4.382812zm0 0"/><path d="m3702.890625 1599.728125h60.390625v3.320313h-60.390625zm0 0" fill="none" stroke="#000" stroke-linejoin="round" stroke-miterlimit="10" stroke-width="5.34994" transform="matrix(.1 0 0 -.1 0 772.59)"/><path d="m370.285156 612.617188h6.042969v-.332032h-6.042969zm0 0"/><path d="m4371.445312 1599.728125h60.390626v3.320313h-60.390626zm0 0" fill="none" stroke="#000" stroke-linejoin="round" stroke-miterlimit="10" stroke-width="5.34994" transform="matrix(.1 0 0 -.1 0 772.59)"/><path d="m437.144531 612.617188h6.039063v-.332032h-6.039063zm0 0"/><path d="m4888.164062 1599.728125h60.390626v3.320313h-60.390626zm0 0" fill="none" stroke="#000" stroke-linejoin="round" stroke-miterlimit="10" stroke-width="5.34994" transform="matrix(.1 0 0 -.1 0 772.59)"/><path d="m488.816406 612.617188h6.039063v-.332032h-6.039063zm0 0"/><use x="580.332" xlink:href="#H" y="554.604"/><use x="43.873" xlink:href="#I" y="564.56689"/><path d="m880.9375 2051.99375h4.6875v325.117188h-4.6875zm0 0" fill="none" stroke="#000" stroke-linejoin="round" stroke-miterlimit="10" stroke-width="3.98506" transform="matrix(.1 0 0 -.1 0 772.59)"/><path d="m88.09375 567.390625h.46875v-32.511719h-.46875zm0 0"/><use x="67.9711" xlink:href="#ay" y="619.361"/><use x="82.937917" xlink:href="#Q" y="619.361"/><use x="75.75313" xlink:href="#G" y="569.5477"/><use x="7.96993" xlink:href="#J" y="574.52895"/><use x="144.84693" xlink:href="#G" y="559.58485"/><use x="288.02993" xlink:href="#K" y="534.87785"/><path d="m2873.59375 2051.99375h4.726562v325.117188h-4.726562zm0 0" fill="none" stroke="#000" stroke-linejoin="round" stroke-miterlimit="10" stroke-width="3.98506" transform="matrix(.1 0 0 -.1 0 772.59)"/><path d="m287.359375 567.390625h.472656v-32.511719h-.472656zm0 0"/><use x="261.116" xlink:href="#ab" y="619.361"/><use x="274.721873" xlink:href="#ad" y="619.361"/><use x="288.327745" xlink:href="#ao" y="619.361"/><use x="275.0207" xlink:href="#G" y="569.5477"/><path d="m2071.40625 1750.157813h4.726562v308.476562h-4.726562zm0 0" fill="none" stroke="#000" stroke-linejoin="round" stroke-miterlimit="10" stroke-width="3.98506" transform="matrix(.1 0 0 -.1 0 772.59)"/><path d="m207.140625 597.574219h.472656v-30.847657h-.472656zm0 0"/><use x="197.799" xlink:href="#ak" y="619.361"/><use x="210.045107" xlink:href="#al" y="619.361"/><use x="222.291213" xlink:href="#aj" y="619.361"/><use x="206.94158" xlink:href="#G" y="564.5665"/><use x="145.71618" xlink:href="#M" y="594.2552"/><path d="m1450.46875 1783.321875h4.726562v325.117188h-4.726562zm0 0" fill="none" stroke="#000" stroke-linejoin="round" stroke-miterlimit="10" stroke-width="3.98506" transform="matrix(.1 0 0 -.1 0 772.59)"/><path d="m145.046875 594.257812h.472656v-32.511718h-.472656zm0 0"/><use x="135.025" xlink:href="#R" y="619.361"/><use x="140.467584" xlink:href="#ap" y="619.361"/><use x="154.073457" xlink:href="#ab" y="619.361"/><g clip-path="url(#A)"><path d="m3.359375 685.470313h5946.054687" style="fill:none;stroke-width:6.68493;stroke-linecap:round;stroke-linejoin:round;stroke:#000;stroke-miterlimit:10" transform="matrix(.1 0 0 -.1 0 772.59)"/></g><g clip-path="url(#B)"><path d="m3.359375 785.079688h5946.054687" style="fill:none;stroke-width:6.68493;stroke-linecap:round;stroke-linejoin:round;stroke:#000;stroke-miterlimit:10" transform="matrix(.1 0 0 -.1 0 772.59)"/></g><g clip-path="url(#C)"><path d="m3.359375 884.728125h5946.054687" style="fill:none;stroke-width:6.68493;stroke-linecap:round;stroke-linejoin:round;stroke:#000;stroke-miterlimit:10" transform="matrix(.1 0 0 -.1 0 772.59)"/></g><g clip-path="url(#D)"><path d="m3.359375 984.3375h5946.054687" style="fill:none;stroke-width:6.68493;stroke-linecap:round;stroke-linejoin:round;stroke:#000;stroke-miterlimit:10" transform="matrix(.1 0 0 -.1 0 772.59)"/></g><g clip-path="url(#E)"><path d="m3.359375 1083.985938h5946.054687" style="fill:none;stroke-width:6.68493;stroke-linecap:round;stroke-linejoin:round;stroke:#000;stroke-miterlimit:10" transform="matrix(.1 0 0 -.1 0 772.59)"/></g><g clip-path="url(#F)"><path d="m5932.695312 685.470313v398.515625" fill="none" stroke="#000" stroke-linejoin="round" stroke-miterlimit="10" stroke-width="40.1395" transform="matrix(.1 0 0 -.1 0 772.59)"/></g><path d="m5886.210938 685.470313v398.515625" fill="none" stroke="#000" stroke-linejoin="round" stroke-miterlimit="10" stroke-width="12.7123" transform="matrix(.1 0 0 -.1 0 772.59)"/><use x="525.4" xlink:href="#O" y="661.228"/><use x="518.8957" xlink:href="#G" y="699.0624"/><use x="471.1355" xlink:href="#K" y="669.3737"/><path d="m4704.648438 707.032813h4.726562v325.117187h-4.726562zm0 0" fill="none" stroke="#000" stroke-linejoin="round" stroke-miterlimit="10" stroke-width="3.98506" transform="matrix(.1 0 0 -.1 0 772.59)"/><path d="m470.464844 701.886719h.46875v-32.511719h-.46875zm0 0"/><use x="455.106" xlink:href="#au" y="740.2451"/><use x="461.90951" xlink:href="#ak" y="740.2451"/><use x="458.12592" xlink:href="#G" y="704.0439"/><path d="m4037.265625 756.876563h4.6875v325.117187h-4.6875zm0 0" fill="none" stroke="#000" stroke-linejoin="round" stroke-miterlimit="10" stroke-width="3.98506" transform="matrix(.1 0 0 -.1 0 772.59)"/><path d="m403.726562 696.902344h.46875v-32.507813h-.46875zm0 0"/><use x="388.367" xlink:href="#ae" y="740.2451"/><use x="393.809597" xlink:href="#az" y="740.2451"/><use x="391.38653" xlink:href="#G" y="699.0627"/><use x="343.62753" xlink:href="#K" y="659.4111"/><path d="m3429.570312 806.68125h4.726563v325.117188h-4.726563zm0 0" fill="none" stroke="#000" stroke-linejoin="round" stroke-miterlimit="10" stroke-width="3.98506" transform="matrix(.1 0 0 -.1 0 772.59)"/><path d="m342.957031 691.921875h.472657v-32.511719h-.472657zm0 0"/><use x="330.319" xlink:href="#am" y="740.2451"/><use x="330.618219" xlink:href="#G" y="694.081"/><g fill="none" stroke="#000" stroke-linecap="round" stroke-linejoin="round" stroke-miterlimit="10" transform="matrix(.1 0 0 -.1 0 772.59)"><g stroke-width="10.6999"><path d="m1574.960938 1296.798438v-69.765625"/><path d="m859.023438 1296.798438v-69.765625"/><path d="m1574.960938 1296.798438h-348.007813"/><path d="m859.023438 1296.798438h367.929687"/></g><path d="m1106.953125 390.9h60.390625v3.320313h-60.390625zm0 0" stroke-width="5.34994"/></g><path d="m110.695312 733.5h6.039063v-.332031h-6.039063zm0 0"/><g fill="none" stroke="#000" stroke-linecap="round" stroke-linejoin="round" stroke-miterlimit="10" transform="matrix(.1 0 0 -.1 0 772.59)"><g stroke-width="10.6999"><path d="m2848.515625 1296.798438v-69.765625"/><path d="m2012.695312 1296.798438v-69.765625"/><path d="m2848.515625 1296.798438h-407.96875"/><path d="m2012.695312 1296.798438h427.890626"/></g><path d="m2350.234375 390.9h60.390625v3.320313h-60.390625zm0 0" stroke-width="5.34994"/></g><path d="m235.023438 733.5h6.039062v-.332031h-6.039062zm0 0"/><path d="m3631.25 390.9h60.429688v3.320313h-60.429688zm0 0" style="fill:none;stroke-width:5.34994;stroke-linecap:round;stroke-linejoin:round;stroke:#000;stroke-miterlimit:10" transform="matrix(.1 0 0 -.1 0 772.59)"/><path d="m363.125 733.5h6.042969v-.332031h-6.042969zm0 0"/><path d="m4849.375 390.9h60.390625v3.320313h-60.390625zm0 0" style="fill:none;stroke-width:5.34994;stroke-linecap:round;stroke-linejoin:round;stroke:#000;stroke-miterlimit:10" transform="matrix(.1 0 0 -.1 0 772.59)"/><path d="m484.9375 733.5h6.039062v-.332031h-6.039062zm0 0"/><use x="501.759" xlink:href="#S" y="740.2451"/><use x="508.221495" xlink:href="#ad" y="740.2451"/><use x="521.827783" xlink:href="#ab" y="740.2451"/><use x="535.43368" xlink:href="#aA" y="740.2451"/><path d="m5312.34375 756.876563h4.726562v325.117187h-4.726562zm0 0" style="fill:none;stroke-width:3.98506;stroke-linecap:round;stroke-linejoin:round;stroke:#000;stroke-miterlimit:10" transform="matrix(.1 0 0 -.1 0 772.59)"/><path d="m531.234375 696.902344h.472656v-32.507813h-.472656zm0 0"/><path d="m880.9375 856.485938h4.6875v325.117187h-4.6875zm0 0" style="fill:none;stroke-width:3.98506;stroke-linecap:round;stroke-linejoin:round;stroke:#000;stroke-miterlimit:10" transform="matrix(.1 0 0 -.1 0 772.59)"/><path d="m88.09375 686.941406h.46875v-32.511718h-.46875zm0 0"/><use x="69.2473" xlink:href="#Z" y="740.2451"/><use x="89.82701" xlink:href="#aa" y="740.2451"/><use x="75.75316" xlink:href="#G" y="689.0998"/><use x="43.87266" xlink:href="#I" y="684.11855"/><use x="7.96996" xlink:href="#J" y="694.08105"/><use x="269.84896" xlink:href="#G" y="689.0998"/><path d="m2034.609375 554.610938h4.726563v308.515625h-4.726563zm0 0" style="fill:none;stroke-width:3.98506;stroke-linecap:round;stroke-linejoin:round;stroke:#000;stroke-miterlimit:10" transform="matrix(.1 0 0 -.1 0 772.59)"/><path d="m203.460938 717.128906h.472656v-30.851562h-.472656zm0 0"/><use x="200.242" xlink:href="#R" y="740.2451"/><use x="205.684597" xlink:href="#aB" y="740.2451"/><use x="203.26153" xlink:href="#G" y="684.1185"/><use x="256.79393" xlink:href="#S" y="740.2451"/><use x="263.25645" xlink:href="#ap" y="740.2451"/><use x="276.862713" xlink:href="#W" y="740.2451"/><use x="289.108819" xlink:href="#U" y="740.2451"/><path d="m2821.875 856.485938h4.726562v325.117187h-4.726562zm0 0" style="fill:none;stroke-width:3.98506;stroke-linecap:round;stroke-linejoin:round;stroke:#000;stroke-miterlimit:10" transform="matrix(.1 0 0 -.1 0 772.59)"/><path d="m282.1875 686.941406h.472656v-32.511718h-.472656zm0 0"/><use x="155.502" xlink:href="#K" y="654.43"/><use x="282.858142" xlink:href="#K" y="654.43"/><path d="m1548.320312 856.485938h4.6875v325.117187h-4.6875zm0 0" style="fill:none;stroke-width:3.98506;stroke-linecap:round;stroke-linejoin:round;stroke:#000;stroke-miterlimit:10" transform="matrix(.1 0 0 -.1 0 772.59)"/><path d="m154.832031 686.941406h.46875v-32.511718h-.46875zm0 0"/><use x="132.159" xlink:href="#W" y="740.2451"/><use x="144.064481" xlink:href="#ap" y="740.2451"/><use x="157.670353" xlink:href="#T" y="740.2451"/><use x="142.4922" xlink:href="#G" y="689.0998"/></svg>