<svg height="610.25em" viewBox="0 0 595.28 610.25" width="595.28em" xmlns="http://www.w3.org/2000/svg" xmlns:xlink="http://www.w3.org/1999/xlink"><clipPath id="a"><path d="m0 69h595.28125v2h-595.28125zm0 0"/></clipPath><clipPath id="b"><path d="m0 59h595.28125v2h-595.28125zm0 0"/></clipPath><clipPath id="c"><path d="m0 49h595.28125v2h-595.28125zm0 0"/></clipPath><clipPath id="d"><path d="m0 39h595.28125v2h-595.28125zm0 0"/></clipPath><clipPath id="e"><path d="m0 29h595.28125v2h-595.28125zm0 0"/></clipPath><clipPath id="f"><path d="m0 188h595.28125v2h-595.28125zm0 0"/></clipPath><clipPath id="g"><path d="m0 178h595.28125v2h-595.28125zm0 0"/></clipPath><clipPath id="h"><path d="m0 169h595.28125v1h-595.28125zm0 0"/></clipPath><clipPath id="i"><path d="m0 159h595.28125v1h-595.28125zm0 0"/></clipPath><clipPath id="j"><path d="m0 149h595.28125v1h-595.28125zm0 0"/></clipPath><clipPath id="k"><path d="m0 308h595.28125v2h-595.28125zm0 0"/></clipPath><clipPath id="l"><path d="m0 298h595.28125v2h-595.28125zm0 0"/></clipPath><clipPath id="m"><path d="m0 288h595.28125v2h-595.28125zm0 0"/></clipPath><clipPath id="n"><path d="m0 278h595.28125v2h-595.28125zm0 0"/></clipPath><clipPath id="o"><path d="m0 268h595.28125v2h-595.28125zm0 0"/></clipPath><clipPath id="p"><path d="m0 428h595.28125v1h-595.28125zm0 0"/></clipPath><clipPath id="q"><path d="m0 418h595.28125v1h-595.28125zm0 0"/></clipPath><clipPath id="r"><path d="m0 408h595.28125v1h-595.28125zm0 0"/></clipPath><clipPath id="s"><path d="m0 398h595.28125v1h-595.28125zm0 0"/></clipPath><clipPath id="t"><path d="m0 388h595.28125v1h-595.28125zm0 0"/></clipPath><clipPath id="u"><path d="m594 387h1.28125v43h-1.28125zm0 0"/></clipPath><clipPath id="v"><path d="m0 547h595.28125v2h-595.28125zm0 0"/></clipPath><clipPath id="w"><path d="m0 537h595.28125v2h-595.28125zm0 0"/></clipPath><clipPath id="x"><path d="m0 527h595.28125v2h-595.28125zm0 0"/></clipPath><clipPath id="y"><path d="m0 517h595.28125v2h-595.28125zm0 0"/></clipPath><clipPath id="z"><path d="m0 507h595.28125v2h-595.28125zm0 0"/></clipPath><clipPath id="A"><path d="m591 506h4.28125v44h-4.28125zm0 0"/></clipPath><symbol id="B" overflow="visible"><path d="m8.84375-5.375c-1.671875 0-3.265625.546875-4.703125 1.4375-1.875 1.109375-4.140625 3.0625-4.140625 5.890625 0 2.34375 2.078125 3.421875 4.1875 3.421875 1.671875 0 3.265625-.546875 4.703125-1.4375 1.875-1.109375 4.09375-3.0625 4.09375-5.890625 0-2.34375-2.03125-3.421875-4.140625-3.421875zm0 0"/></symbol><symbol id="C" overflow="visible"><path d="m1.90625-6.21875c-.75 0-1.3125.640625-1.3125 1.3125 0 .25.078125.484375.25.71875.796875 1.125 1.15625 2.390625 1.15625 3.703125 0 1.953125-.796875 4.03125-2 5.75-.40625.546875.4375 1.15625.84375.59375 1.703125-2.46875 3.21875-5.296875 3.21875-7.96875 0-1.234375-.515625-4.109375-2.15625-4.109375zm0 0"/></symbol><symbol id="D" overflow="visible"><path d="m8.5625 12.59375v-6.5l1.953125-.671875c.25-.078125.4375-.328125.4375-.59375v-2.59375c0-.4375-.4375-.765625-.828125-.59375l-1.5625.546875v-6.53125l1.953125-.71875c.25-.078125.4375-.3125.4375-.59375v-2.546875c0-.4375-.4375-.765625-.828125-.609375l-1.5625.53125v-5.984375c0-.359375-.3125-.671875-.671875-.671875s-.671875.3125-.671875.671875v6.453125l-3.46875 1.234375v-6.015625c0-.359375-.328125-.671875-.6875-.671875s-.671875.3125-.671875.671875v6.5l-1.953125.671875c-.234375.078125-.4375.328125-.4375.59375v2.59375c0 .4375.4375.765625.84375.59375l1.546875-.546875v6.53125l-1.953125.71875c-.234375.078125-.4375.3125-.4375.59375v2.546875c0 .4375.4375.765625.84375.609375l1.546875-.53125v5.984375c0 .359375.3125.671875.671875.671875s.6875-.3125.6875-.671875v-6.453125l3.46875-1.234375v6.015625c0 .359375.3125.671875.671875.671875s.671875-.3125.671875-.671875zm-4.8125-15.265625 3.46875-1.1875v6.53125l-3.46875 1.1875zm0 0"/></symbol><symbol id="E" overflow="visible"><path d="m14.90625-10.359375c-.640625-2.796875-1.40625-5.53125-2.203125-8.28125 3.828125-4.34375 7.296875-8.8125 7.296875-14.546875 0-4.5-2.46875-10.953125-5.25-14.3125-.203125-.15625-.453125-.15625-.640625 0-3.796875 2.75-5.984375 7.140625-5.984375 11.765625 0 2.0625.046875 4.09375.28125 6.125.28125 2.59375.953125 5.109375 1.671875 7.609375-4.703125 5.34375-10 10.4375-10 17.53125 0 8.015625 5.78125 14.828125 13.265625 14.828125 1.234375 0 2.390625-.125 3.546875-.3125.125 1.265625.203125 2.546875.203125 3.8125 0 .71875-.046875 1.40625-.078125 2.125-.234375 3.9375-2.671875 7.5625-6.375 7.640625-.046875 0-.078125.046875-.125.046875-2.03125 0-3.78125-1.15625-4.8125-2.796875.4375.203125.90625.359375 1.390625.359375 2.078125 0 3.78125-1.703125 3.78125-3.78125 0-2.234375-1.625-4.140625-3.78125-4.140625-2.359375 0-4.46875 1.828125-4.46875 4.140625 0 4.296875 3.46875 7.765625 7.78125 7.765625 4.6875 0 7.921875-4.21875 8.203125-9 .03125-.765625.03125-1.46875.03125-2.234375 0-1.4375-.078125-2.875-.1875-4.296875 1.03125-.328125 2.03125-.796875 2.90625-1.484375 2.953125-2.1875 4.265625-5.25 4.265625-8.28125 0-5.265625-3.984375-10.328125-10.125-10.328125-.203125 0-.40625.046875-.59375.046875zm3.375 18.53125c-.546875-4.9375-1.46875-9.640625-2.46875-14.3125 4.390625.359375 7.140625 4.03125 7.140625 7.6875 0 2.796875-1.921875 5.671875-4.671875 6.625zm-15.453125-9.40625c0-6.375 4.296875-11.203125 8.609375-16.015625.640625 2.34375 1.265625 4.703125 1.828125 7.09375-4.015625.90625-6.296875 4.296875-6.296875 7.8125 0 2.78125 1.4375 5.609375 4.625 7.328125.125.03125.234375.078125.359375.078125.4375 0 .796875-.40625.796875-.84375 0-.1875-.125-.390625-.28125-.546875-2.234375-1.28125-3.265625-3.1875-3.265625-4.953125 0-2.34375 1.828125-4.453125 4.984375-4.8125 1.03125 4.78125 1.953125 9.515625 2.546875 14.625-1.078125.15625-2.15625.234375-3.265625.234375-5.421875 0-10.640625-4.578125-10.640625-10zm13.546875-40.609375c.671875 2.125.84375 3.15625.84375 5.46875 0 5.0625-2.671875 9.078125-5.9375 12.953125-.71875-2.515625-1.3125-4.953125-1.3125-7.96875 0-4.421875 2.46875-8.453125 6.40625-10.453125zm0 0"/></symbol><symbol id="F" overflow="visible"><path d="m0 0c0 1.28125 1 2.265625 2.265625 2.265625 1.28125 0 2.28125-.984375 2.28125-2.265625s-1-2.265625-2.28125-2.265625c-1.265625 0-2.265625.984375-2.265625 2.265625zm0 0"/></symbol><symbol id="G" overflow="visible"><path d="m12.59375-2.671875c0 .40625-.125.84375-.40625 1.15625-.828125 1-2.75 2.234375-4.265625 3.1875-1.5.953125-3.421875 2.234375-4.65625 2.59375-.15625.03125-.359375.078125-.515625.078125-.875 0-1.671875-.671875-1.671875-1.671875 0-.40625.125-.84375.390625-1.15625.84375-1 2.75-2.234375 4.265625-3.1875s3.4375-2.234375 4.671875-2.59375c.15625-.03125.359375-.078125.515625-.078125.875 0 1.671875.671875 1.671875 1.671875zm-2.03125-2.703125c-2.984375 0-5.421875.640625-7.53125 2.0625-1.28125.875-2.109375 2.234375-2.59375 3.71875-.234375.703125-.4375 1.5-.4375 2.265625 0 1.875 1.359375 2.703125 3.109375 2.703125 2.984375 0 5.421875-.640625 7.53125-2.0625 1.265625-.875 2.109375-2.234375 2.59375-3.71875.234375-.703125.4375-1.5.4375-2.265625 0-1.875-1.359375-2.703125-3.109375-2.703125zm0 0"/></symbol><symbol id="H" overflow="visible"><path d="m-2.515625-1.875c0 1.390625 1.125 2.515625 2.515625 2.515625s2.515625-1.125 2.515625-2.515625-1.125-2.515625-2.515625-2.515625-2.515625 1.125-2.515625 2.515625zm2.515625-12.46875c-6.171875 0-13.109375 6.890625-13.109375 14.421875 0 .328125.3125.5625.640625.5625.28125 0 .59375-.203125.671875-.640625 1.03125-5.9375 5.859375-10.5625 11.796875-10.5625s10.765625 4.625 11.796875 10.5625c.078125.4375.390625.640625.671875.640625.328125 0 .640625-.234375.640625-.5625 0-7.53125-6.890625-14.421875-13.109375-14.421875zm0 0"/></symbol><symbol id="I" overflow="visible"><path d="m11.953125-12.890625h-2.3125l-3.640625 10.453125-3.4375-10.453125h-2.3125l4.515625 12.890625h2.25zm0 0"/></symbol><symbol id="J" overflow="visible"><path d="m3.765625 0v-12.890625h-2.046875v12.890625zm.265625-14.828125v-2.5625h-2.5625v2.5625zm0 0"/></symbol><symbol id="K" overflow="visible"><path d="m11.234375 0v-1.796875h-7.984375l7.640625-9.265625v-1.828125h-9.609375v1.796875h7.171875l-7.6875 9.25v1.84375zm0 0"/></symbol><symbol id="L" overflow="visible"><path d="m12.609375-5.859375c0-1.859375-.140625-3.046875-.515625-4-.828125-2.125-2.796875-3.390625-5.203125-3.390625-3.59375 0-5.90625 2.65625-5.90625 6.875 0 4.234375 2.234375 6.75 5.859375 6.75 2.9375 0 4.984375-1.671875 5.5-4.28125h-2.0625c-.5625 1.6875-1.71875 2.375-3.375 2.375-2.140625 0-3.734375-1.375-3.78125-4.328125zm-2.1875-1.8125s0 .09375-.015625.140625h-7.234375c.171875-2.28125 1.625-3.828125 3.6875-3.828125 2.015625 0 3.5625 1.671875 3.5625 3.6875zm0 0"/></symbol><symbol id="M" overflow="visible"><path d="m11.984375 0v-9.734375c0-2.140625-1.609375-3.515625-4.09375-3.515625-1.921875 0-3.140625.734375-4.28125 2.53125v-2.171875h-1.890625v12.890625h2.046875v-7.109375c0-2.625 1.421875-4.34375 3.515625-4.34375 1.625 0 2.65625.96875 2.65625 2.53125v8.921875zm0 0"/></symbol><symbol id="N" overflow="visible"><path d="m12.03125-2.109375v-10.78125h-1.90625v1.875c-1.03125-1.53125-2.28125-2.234375-3.921875-2.234375-3.28125 0-5.484375 2.75-5.484375 6.921875 0 4.0625 2.28125 6.703125 5.3125 6.703125 1.625 0 2.75-.6875 4.09375-2.3125v.859375c0 3.421875-1.390625 4.71875-3.78125 4.71875-1.625 0-2.875-.59375-3.125-2.171875h-2.09375c.234375 2.4375 2.125 3.890625 5.140625 3.890625 4.046875 0 5.765625-1.796875 5.765625-7.46875zm-2.09375-4.265625c0 3.078125-1.328125 4.84375-3.5 4.84375-2.234375 0-3.578125-1.78125-3.578125-4.90625 0-3.109375 1.375-4.921875 3.5625-4.921875 2.203125 0 3.515625 1.859375 3.515625 4.984375zm0 0"/></symbol><symbol id="O" overflow="visible"><path d="m12.171875 0v-17.921875h-2.046875v6.65625c-.859375-1.296875-2.234375-1.984375-3.953125-1.984375-3.34375 0-5.53125 2.578125-5.53125 6.6875 0 4.34375 2.140625 6.9375 5.609375 6.9375 1.765625 0 3-.671875 4.109375-2.265625v1.890625zm-2.046875-6.390625c0 2.96875-1.421875 4.84375-3.578125 4.84375-2.265625 0-3.765625-1.890625-3.765625-4.890625s1.5-4.90625 3.734375-4.90625c2.21875 0 3.609375 1.96875 3.609375 4.953125zm0 0"/></symbol><symbol id="P" overflow="visible"><path d="m4.71875.390625v-2.953125h-2.578125v2.5625h1.46875v.4375c0 1.703125-.3125 2.1875-1.46875 2.25v.921875c1.71875 0 2.578125-1.09375 2.578125-3.21875zm0 0"/></symbol><symbol id="Q" overflow="visible"><path d="m3.71875 0v-17.921875h-2.046875v17.921875zm0 0"/></symbol><symbol id="R" overflow="visible"><path d="m13.15625-.046875v-1.546875c-.21875.046875-.3125.046875-.4375.046875-.71875 0-1.109375-.375-1.109375-1.015625v-7.171875c0-2.296875-1.671875-3.515625-4.84375-3.515625-3.125 0-5.046875 1.203125-5.171875 4.171875h2.078125c.171875-1.578125 1.09375-2.28125 3.015625-2.28125 1.84375 0 2.875.6875 2.875 1.921875v.53125c0 .859375-.515625 1.234375-2.140625 1.4375-2.890625.359375-3.34375.453125-4.125.78125-1.5.609375-2.265625 1.765625-2.265625 3.34375 0 2.328125 1.625 3.71875 4.234375 3.71875 1.640625 0 3.25-.6875 4.375-1.90625.21875.984375 1.109375 1.703125 2.109375 1.703125.421875 0 .75-.046875 1.40625-.21875zm-3.59375-4.40625c0 1.84375-1.859375 3.03125-3.859375 3.03125-1.59375 0-2.53125-.5625-2.53125-1.96875 0-1.359375.90625-1.953125 3.09375-2.265625 2.171875-.296875 2.609375-.390625 3.296875-.71875zm1.609375-13.46875h-2.78125l-2.359375 3.640625h1.46875zm0 0"/></symbol><symbol id="S" overflow="visible"><path d="m12.609375-5.859375c0-1.859375-.140625-3.046875-.515625-4-.828125-2.125-2.796875-3.390625-5.203125-3.390625-3.59375 0-5.90625 2.65625-5.90625 6.875 0 4.234375 2.234375 6.75 5.859375 6.75 2.9375 0 4.984375-1.671875 5.5-4.28125h-2.0625c-.5625 1.6875-1.71875 2.375-3.375 2.375-2.140625 0-3.734375-1.375-3.78125-4.328125zm-2.1875-1.8125s0 .09375-.015625.140625h-7.234375c.171875-2.28125 1.625-3.828125 3.6875-3.828125 2.015625 0 3.5625 1.671875 3.5625 3.6875zm.859375-10.25h-2.765625l-2.359375 3.640625h1.46875zm0 0"/></symbol><symbol id="T" overflow="visible"><path d="m6.25 0v-1.71875c-.28125.078125-.59375.09375-.984375.09375-.890625 0-1.140625-.25-1.140625-1.15625v-8.4375h2.125v-1.671875h-2.125v-3.53125h-2.03125v3.53125h-1.75v1.671875h1.75v9.34375c0 1.3125.875 2.046875 2.484375 2.046875.484375 0 .984375-.046875 1.671875-.171875zm0 0"/></symbol><symbol id="U" overflow="visible"><path d="m10.484375-4.59375v-13.328125h-2.296875v12.484375c0 2.953125-1 3.96875-2.75 3.96875-1.71875 0-2.6875-1.15625-2.6875-3.25v-1.03125h-2.28125v1.453125c0 2.890625 1.8125 4.734375 4.9375 4.734375s5.078125-1.9375 5.078125-5.03125zm0 0"/></symbol><symbol id="V" overflow="visible"><path d="m14.34375 0v-2.015625h-10.78125l10.71875-13.84375v-2.0625h-12.90625v2.015625h10.078125l-10.765625 13.890625v2.015625zm0 0"/></symbol><symbol id="W" overflow="visible"><path d="m11.859375 0v-12.890625h-2.046875v7.109375c0 2.640625-1.375 4.359375-3.515625 4.359375-1.625 0-2.65625-.984375-2.65625-2.53125v-8.9375h-2.046875v9.75c0 2.125 1.609375 3.515625 4.109375 3.515625 1.890625 0 3.09375-.671875 4.3125-2.359375v1.984375zm0 0"/></symbol><symbol id="X" overflow="visible"><path d="m11.28125-3.609375c0-1.921875-1.078125-2.890625-3.625-3.5l-1.96875-.46875c-1.671875-.390625-2.390625-.9375-2.390625-1.84375 0-1.171875 1.0625-1.9375 2.734375-1.9375 1.640625 0 2.53125.703125 2.578125 2.0625h2.15625c-.015625-2.53125-1.6875-3.953125-4.671875-3.953125-3 0-4.9375 1.546875-4.9375 3.921875 0 2.03125 1.03125 2.984375 4.078125 3.71875l1.921875.46875c1.421875.34375 2 .765625 2 1.703125 0 1.203125-1.21875 1.90625-3 1.90625-1.859375 0-2.890625-.4375-3.15625-2.40625h-2.15625c.09375 2.984375 1.765625 4.3125 5.125 4.3125 3.25 0 5.3125-1.5 5.3125-3.984375zm0 0"/></symbol><symbol id="Y" overflow="visible"><path d="m12.546875-6.34375c0-4.453125-2.140625-6.90625-5.859375-6.90625-3.609375 0-5.796875 2.484375-5.796875 6.8125s2.15625 6.8125 5.828125 6.8125c3.609375 0 5.828125-2.484375 5.828125-6.71875zm-2.140625-.03125c0 3.03125-1.421875 4.84375-3.6875 4.84375-2.296875 0-3.6875-1.78125-3.6875-4.90625 0-3.109375 1.390625-4.921875 3.6875-4.921875 2.3125 0 3.6875 1.796875 3.6875 4.984375zm0 0"/></symbol><symbol id="Z" overflow="visible"><path d="m12.34375 0-5.265625-8.4375 4.484375-4.453125h-2.640625l-5.453125 5.46875v-10.5h-2.046875v17.921875h2.046875v-5.015625l1.984375-1.96875 4.359375 6.984375zm0 0"/></symbol><symbol id="aa" overflow="visible"><path d="m4.453125-9.609375v-8.3125h-2.046875v8.3125l.546875 5.484375h.953125zm0 9.609375v-2.5625h-2.0625v2.5625zm0 0"/></symbol><symbol id="ab" overflow="visible"><path d="m3.765625 2.6875v-15.578125h-2.046875v14.765625c0 1.21875-.421875 1.765625-1.671875 1.6875l-.484375-.015625v1.734375c.234375.0625.359375.078125.6875.078125 2.3125 0 3.515625-.9375 3.515625-2.671875zm.265625-17.515625v-2.5625h-2.5625v2.5625zm0 0"/></symbol><symbol id="ac" overflow="visible"><path d="m13.15625-.046875v-1.546875c-.21875.046875-.3125.046875-.4375.046875-.71875 0-1.109375-.375-1.109375-1.015625v-7.171875c0-2.296875-1.671875-3.515625-4.84375-3.515625-3.125 0-5.046875 1.203125-5.171875 4.171875h2.078125c.171875-1.578125 1.09375-2.28125 3.015625-2.28125 1.84375 0 2.875.6875 2.875 1.921875v.53125c0 .859375-.515625 1.234375-2.140625 1.4375-2.890625.359375-3.34375.453125-4.125.78125-1.5.609375-2.265625 1.765625-2.265625 3.34375 0 2.328125 1.625 3.71875 4.234375 3.71875 1.640625 0 3.25-.6875 4.375-1.90625.21875.984375 1.109375 1.703125 2.109375 1.703125.421875 0 .75-.046875 1.40625-.21875zm-3.59375-4.40625c0 1.84375-1.859375 3.03125-3.859375 3.03125-1.59375 0-2.53125-.5625-2.53125-1.96875 0-1.359375.90625-1.953125 3.09375-2.265625 2.171875-.296875 2.609375-.390625 3.296875-.71875zm0 0"/></symbol><symbol id="ad" overflow="visible"><path d="m18.25-8.6875c0-5.78125-3.421875-9.6875-8.6875-9.6875-5.140625 0-8.625 3.9375-8.625 9.546875s3.484375 9.265625 8.65625 9.265625c5.265625 0 8.65625-3.859375 8.65625-9.125zm-2.28125-.046875c0 4.328125-2.59375 7.15625-6.375 7.15625-3.8125 0-6.375-2.828125-6.375-7.25s2.5625-7.53125 6.34375-7.53125c3.890625 0 6.40625 3.109375 6.40625 7.625zm-4.265625-14.265625h-2.78125l-2.359375 3.6875h1.484375zm4.03125 0h-2.765625l-2.375 3.6875h1.484375zm0 0"/></symbol><symbol id="ae" overflow="visible"><path d="m11.75-12.890625h-2.203125l-3.578125 10.03125-3.28125-10.03125h-2.203125l4.359375 12.9375-.78125 2.046875c-.34375.90625-.765625 1.25-1.65625 1.25-.296875 0-.640625-.046875-1.078125-.140625v1.84375c.421875.21875.84375.3125 1.375.3125 1.453125 0 2.640625-.8125 3.328125-2.65625zm0 0"/></symbol><symbol id="af" overflow="visible"><path d="m11.953125 0v-9.734375c0-2.171875-1.546875-3.515625-4.0625-3.515625-1.8125 0-2.921875.5625-4.125 2.140625v-6.8125h-2.046875v17.921875h2.046875v-7.109375c0-2.625 1.375-4.34375 3.484375-4.34375 1.453125 0 2.65625.828125 2.65625 2.53125v8.921875zm0 0"/></symbol><symbol id="ag" overflow="visible"><path d="m18.6875 0v-9.671875c0-2.3125-1.28125-3.578125-3.6875-3.578125-1.71875 0-2.75.515625-3.953125 1.96875-.765625-1.390625-1.796875-1.96875-3.46875-1.96875-1.71875 0-2.859375.640625-3.96875 2.1875v-1.828125h-1.859375v12.890625h2.03125v-8.09375c0-1.859375 1.359375-3.359375 3.03125-3.359375 1.53125 0 2.390625.921875 2.390625 2.578125v8.875h2.03125v-8.09375c0-1.859375 1.375-3.359375 3.046875-3.359375 1.515625 0 2.375.953125 2.375 2.578125v8.875zm0 0"/></symbol><symbol id="ah" overflow="visible"><path d="m14.234375-15.90625v-2.015625h-12.015625v17.921875h2.28125v-8.171875h8.5625v-2.015625h-8.5625v-5.71875zm0 0"/></symbol><symbol id="ai" overflow="visible"><path d="m4.453125 0v-12.890625h-2.046875v12.890625zm3.125-17.921875h-2.78125l-2.359375 3.640625h1.46875zm0 0"/></symbol><symbol id="aj" overflow="visible"><path d="m7.890625-11.09375v-2.09375c-.34375-.046875-.515625-.0625-.78125-.0625-1.328125 0-2.34375.78125-3.515625 2.703125v-2.34375h-1.875v12.890625h2.046875v-6.6875c0-2.90625.953125-4.359375 4.125-4.40625zm0 0"/></symbol><symbol id="ak" overflow="visible"><path d="m16.1875 0-7.390625-10.625 7.3125-7.296875h-2.953125l-8.921875 9.0625v-9.0625h-2.296875v17.921875h2.296875v-6.265625l2.921875-2.9375 6.328125 9.203125zm0 0"/></symbol><symbol id="al" overflow="visible"><path d="m8.28125 0v-15.546875h-2.03125c-.484375 1.84375-2.078125 2.78125-4.765625 2.78125v2.046875h3.734375v10.71875zm0 0"/></symbol><symbol id="am" overflow="visible"><path d="m4.6875 0v-3.203125h-3.28125v3.203125zm0 0"/></symbol><g clip-path="url(#a)"><path d="m5.598958 9008.658854h9910.091146" fill="none" stroke="#000" stroke-linecap="round" stroke-miterlimit="10" stroke-width="11.1416" transform="matrix(.06 0 0 -.06 0 610.25)"/></g><g clip-path="url(#b)"><path d="m5.598958 9174.739583h9910.091146" fill="none" stroke="#000" stroke-linecap="round" stroke-miterlimit="10" stroke-width="11.1416" transform="matrix(.06 0 0 -.06 0 610.25)"/></g><g clip-path="url(#c)"><path d="m5.598958 9340.755208h9910.091146" fill="none" stroke="#000" stroke-linecap="round" stroke-miterlimit="10" stroke-width="11.1416" transform="matrix(.06 0 0 -.06 0 610.25)"/></g><g clip-path="url(#d)"><path d="m5.598958 9506.835937h9910.091146" fill="none" stroke="#000" stroke-linecap="round" stroke-miterlimit="10" stroke-width="11.1416" transform="matrix(.06 0 0 -.06 0 610.25)"/></g><g clip-path="url(#e)"><path d="m5.598958 9672.851562h9910.091146" fill="none" stroke="#000" stroke-linecap="round" stroke-miterlimit="10" stroke-width="11.1416" transform="matrix(.06 0 0 -.06 0 610.25)"/></g><path d="m2617.838542 9008.658854v664.192708" fill="none" stroke="#000" stroke-miterlimit="10" stroke-width="21.1872" transform="matrix(.06 0 0 -.06 0 610.25)"/><path d="m6364.518229 9008.658854v664.192708" fill="none" stroke="#000" stroke-miterlimit="10" stroke-width="21.1872" transform="matrix(.06 0 0 -.06 0 610.25)"/><use x="496.697993" xlink:href="#B" y="54.783889"/><use x="449.614499" xlink:href="#B" y="49.802469"/><use x="449.614499" xlink:href="#I" y="105.929081"/><use x="461.86064" xlink:href="#J" y="105.929081"/><path d="m7699.21875 9376.757812h7.877604v458.528646h-7.877604zm0 0" fill="none" stroke="#000" stroke-linejoin="round" stroke-miterlimit="10" stroke-width="6.64176" transform="matrix(.06 0 0 -.06 0 610.25)"/><path d="m461.953125 47.644531h.46875v-27.511719h-.46875zm0 0"/><path d="m5309.440104 8790.625h7.8125v514.192708h-7.8125zm0 0" fill="none" stroke="#000" stroke-linejoin="round" stroke-miterlimit="10" stroke-width="6.64176" transform="matrix(.06 0 0 -.06 0 610.25)"/><path d="m318.566406 82.8125h.46875v-30.851562h-.46875zm0 0"/><path d="m6510.546875 8845.963542h7.8125v541.861979h-7.8125zm0 0" fill="none" stroke="#000" stroke-linejoin="round" stroke-miterlimit="10" stroke-width="6.64176" transform="matrix(.06 0 0 -.06 0 610.25)"/><path d="m390.632812 79.492188h.46875v-32.511719h-.46875zm0 0"/><use x="360.19972" xlink:href="#K" y="105.928991"/><use x="372.445861" xlink:href="#L" y="105.928991"/><use x="386.051854" xlink:href="#M" y="105.928991"/><use x="399.657846" xlink:href="#N" y="105.928991"/><use x="413.264073" xlink:href="#O" y="105.928991"/><use x="426.870066" xlink:href="#P" y="105.928991"/><use x="390.432481" xlink:href="#B" y="44.821169"/><path d="m3171.354167 8517.708333h100.651041v5.598959h-100.651041zm0 0" fill="none" stroke="#000" stroke-linejoin="round" stroke-miterlimit="10" stroke-width="8.91656" transform="matrix(.06 0 0 -.06 0 610.25)"/><path d="m190.28125 99.1875h6.039062v-.335938h-6.039062zm0 0"/><path d="m4886.848958 8517.708333h100.651042v5.598959h-100.651042zm0 0" fill="none" stroke="#000" stroke-linejoin="round" stroke-miterlimit="10" stroke-width="8.91656" transform="matrix(.06 0 0 -.06 0 610.25)"/><path d="m293.210938 99.1875h6.039062v-.335938h-6.039062zm0 0"/><path d="m7596.614583 9134.375c170.963542-212.304688 589.388021-243.294271 784.765625-58.138021-194.335937-171.809896-612.825521-140.820312-784.765625 58.138021zm0 0" style="fill:none;stroke-width:8.91894;stroke-linecap:round;stroke-linejoin:round;stroke:#000;stroke-miterlimit:10" transform="matrix(.06 0 0 -.06 0 610.25)"/><path d="m455.796875 62.1875c10.257813 12.738281 35.363281 14.597656 47.085937 3.488281-11.660156 10.308594-36.769531 8.449219-47.085937-3.488281"/><path d="m8266.40625 8517.708333h100.716146v5.598959h-100.716146zm0 0" fill="none" stroke="#000" stroke-linejoin="round" stroke-miterlimit="10" stroke-width="8.91656" transform="matrix(.06 0 0 -.06 0 610.25)"/><path d="m495.984375 99.1875h6.042969v-.335938h-6.042969zm0 0"/><path d="m7699.21875 9875.455729v-73.046875l792.578125-34.309896v73.046875zm0 0" fill="none" stroke="#000" stroke-linejoin="round" stroke-miterlimit="10" stroke-width="6.64176" transform="matrix(.06 0 0 -.06 0 610.25)"/><path d="m461.953125 17.722656v4.382813l47.554687 2.058593v-4.382812zm0 0"/><path d="m8483.919271 9293.75h7.877604v507.877604h-7.877604zm0 0" fill="none" stroke="#000" stroke-linejoin="round" stroke-miterlimit="10" stroke-width="6.64176" transform="matrix(.06 0 0 -.06 0 610.25)"/><path d="m509.035156 52.625h.472656v-30.472656h-.472656zm0 0"/><use x="580.333161" xlink:href="#C" y="29.876839"/><path d="m9068.880208 8790.625h7.877604v514.192708h-7.877604zm0 0" fill="none" stroke="#000" stroke-linejoin="round" stroke-miterlimit="10" stroke-width="6.64176" transform="matrix(.06 0 0 -.06 0 610.25)"/><path d="m544.132812 82.8125h.472657v-30.851562h-.472657zm0 0"/><use x="530.709061" xlink:href="#Q" y="105.928991"/><use x="536.151474" xlink:href="#R" y="105.928991"/><use x="549.757466" xlink:href="#N" y="105.928991"/><use x="563.363693" xlink:href="#P" y="105.928991"/><use x="543.933488" xlink:href="#B" y="49.802379"/><use x="44.100488" xlink:href="#al" y="105.928991"/><use x="56.346621" xlink:href="#am" y="105.928991"/><path d="m2942.057292 9293.75h7.877604v541.861979h-7.877604zm0 0" fill="none" stroke="#000" stroke-linejoin="round" stroke-miterlimit="10" stroke-width="6.64176" transform="matrix(.06 0 0 -.06 0 610.25)"/><path d="m176.523438 52.625h.472656v-32.511719h-.472656zm0 0"/><use x="305.482611" xlink:href="#I" y="105.928991"/><use x="317.217578" xlink:href="#S" y="105.928991"/><use x="330.654117" xlink:href="#T" y="105.928991"/><use x="337.457582" xlink:href="#P" y="105.928991"/><use x="164.186328" xlink:href="#B" y="54.783789"/><path d="m1882.682292 9044.661458h7.877604v541.861979h-7.877604zm0 0" fill="none" stroke="#000" stroke-linejoin="round" stroke-miterlimit="10" stroke-width="6.64176" transform="matrix(.06 0 0 -.06 0 610.25)"/><path d="m112.960938 67.570312h.472656v-32.511718h-.472656zm0 0"/><use x="157.763316" xlink:href="#U" y="105.928991"/><use x="170.009442" xlink:href="#S" y="105.928991"/><use x="72.431245" xlink:href="#V" y="105.928991"/><use x="87.398013" xlink:href="#L" y="105.928991"/><use x="101.003991" xlink:href="#M" y="105.928991"/><use x="114.610203" xlink:href="#N" y="105.928991"/><use x="128.216181" xlink:href="#O" y="105.928991"/><use x="42.838986" xlink:href="#D" y="29.877239"/><use x="53.797908" xlink:href="#D" y="44.821269"/><use x="64.75683" xlink:href="#D" y="24.895829"/><use x="7.969816" xlink:href="#E" y="59.764999"/><use x="100.622401" xlink:href="#B" y="69.727829"/><use x="215.527631" xlink:href="#B" y="54.783799"/><use x="318.364837" xlink:href="#B" y="49.802379"/><path d="m4653.515625 9293.75h7.8125v541.861979h-7.8125zm0 0" fill="none" stroke="#000" stroke-linejoin="round" stroke-miterlimit="10" stroke-width="6.64176" transform="matrix(.06 0 0 -.06 0 610.25)"/><path d="m279.210938 52.625h.46875v-32.511719h-.46875zm0 0"/><use x="259.77052" xlink:href="#M" y="105.928991"/><use x="273.376512" xlink:href="#L" y="105.928991"/><use x="266.871864" xlink:href="#B" y="54.783789"/><path d="m3797.786458 9293.75h7.877604v541.861979h-7.877604zm0 0" fill="none" stroke="#000" stroke-linejoin="round" stroke-miterlimit="10" stroke-width="6.64176" transform="matrix(.06 0 0 -.06 0 610.25)"/><path d="m227.867188 52.625h.472656v-32.511719h-.472656zm0 0"/><use x="202.984406" xlink:href="#K" y="105.928991"/><use x="215.230532" xlink:href="#W" y="105.928991"/><use x="228.83651" xlink:href="#X" y="105.928991"/><g clip-path="url(#f)"><path d="m5.598958 7016.145833h9910.091146" style="fill:none;stroke-width:11.1416;stroke-linecap:round;stroke-linejoin:round;stroke:#000;stroke-miterlimit:10" transform="matrix(.06 0 0 -.06 0 610.25)"/></g><g clip-path="url(#g)"><path d="m5.598958 7182.226562h9910.091146" style="fill:none;stroke-width:11.1416;stroke-linecap:round;stroke-linejoin:round;stroke:#000;stroke-miterlimit:10" transform="matrix(.06 0 0 -.06 0 610.25)"/></g><g clip-path="url(#h)"><path d="m5.598958 7348.242187h9910.091146" style="fill:none;stroke-width:11.1416;stroke-linecap:round;stroke-linejoin:round;stroke:#000;stroke-miterlimit:10" transform="matrix(.06 0 0 -.06 0 610.25)"/></g><g clip-path="url(#i)"><path d="m5.598958 7514.322917h9910.091146" style="fill:none;stroke-width:11.1416;stroke-linecap:round;stroke-linejoin:round;stroke:#000;stroke-miterlimit:10" transform="matrix(.06 0 0 -.06 0 610.25)"/></g><g clip-path="url(#j)"><path d="m5.598958 7680.338542h9910.091146" style="fill:none;stroke-width:11.1416;stroke-linecap:round;stroke-linejoin:round;stroke:#000;stroke-miterlimit:10" transform="matrix(.06 0 0 -.06 0 610.25)"/></g><g fill="none" stroke="#000" stroke-linejoin="round" stroke-miterlimit="10" transform="matrix(.06 0 0 -.06 0 610.25)"><path d="m8415.104167 7016.145833v664.192709" stroke-width="21.1872"/><path d="m2834.375 7016.145833v664.192709" stroke-width="21.1872"/><g stroke-linecap="round" stroke-width="27.746"><path d="m8583.203125 6850.130208h313.997396"/><path d="m8583.203125 6684.049479h313.997396"/><path d="m7216.276042 6850.130208h297.460937"/><path d="m6092.122396 6850.130208h297.460937"/></g></g><use x="294.002588" xlink:href="#Q" y="237.490254"/><use x="299.445029" xlink:href="#Y" y="237.490254"/><use x="313.051022" xlink:href="#Z" y="237.490254"/><use x="325.297163" xlink:href="#P" y="237.490254"/><path d="m8842.96875 6731.966146h7.877604v612.955729h-7.877604zm0 0" fill="none" stroke="#000" stroke-linejoin="round" stroke-miterlimit="10" stroke-width="6.64176" transform="matrix(.06 0 0 -.06 0 610.25)"/><path d="m530.578125 206.332031h.472656v-36.777343h-.472656zm0 0"/><use x="535.800072" xlink:href="#F" y="204.223188"/><use x="504.77041" xlink:href="#T" y="237.490454"/><use x="511.403454" xlink:href="#Y" y="237.490454"/><use x="525.009447" xlink:href="#Z" y="237.490454"/><use x="537.255587" xlink:href="#aa" y="237.490454"/><use x="517.580435" xlink:href="#G" y="209.204398"/><path d="m7462.239583 6803.059896h7.877604v541.861979h-7.877604zm0 0" fill="none" stroke="#000" stroke-linejoin="round" stroke-miterlimit="10" stroke-width="6.64176" transform="matrix(.06 0 0 -.06 0 610.25)"/><path d="m447.734375 202.066406h.472656v-32.511718h-.472656zm0 0"/><use x="432.377865" xlink:href="#ab" y="237.490254"/><use x="437.820306" xlink:href="#R" y="237.490254"/><use x="435.397561" xlink:href="#B" y="204.222988"/><path d="m5314.778646 6969.140625h7.8125v507.8125h-7.8125zm0 0" fill="none" stroke="#000" stroke-linejoin="round" stroke-miterlimit="10" stroke-width="6.64176" transform="matrix(.06 0 0 -.06 0 610.25)"/><path d="m318.886719 192.101562h.46875v-30.46875h-.46875zm0 0"/><path d="m6338.085937 6886.067708h7.877605v541.861979h-7.877605zm0 0" fill="none" stroke="#000" stroke-linejoin="round" stroke-miterlimit="10" stroke-width="6.64176" transform="matrix(.06 0 0 -.06 0 610.25)"/><path d="m380.285156 197.085938h.472656v-32.511719h-.472656zm0 0"/><use x="358.124716" xlink:href="#R" y="237.490254"/><use x="371.730709" xlink:href="#Q" y="237.490254"/><use x="377.173385" xlink:href="#O" y="237.490254"/><use x="367.947856" xlink:href="#B" y="199.241578"/><path d="m3532.877604 6325.065104h100.651042v5.533854h-100.651042zm0 0" fill="none" stroke="#000" stroke-linejoin="round" stroke-miterlimit="10" stroke-width="8.91656" transform="matrix(.06 0 0 -.06 0 610.25)"/><path d="m211.972656 230.746094h6.039063v-.332032h-6.039063zm0 0"/><path d="m4659.049479 6325.065104h100.651042v5.533854h-100.651042zm0 0" fill="none" stroke="#000" stroke-linejoin="round" stroke-miterlimit="10" stroke-width="8.91656" transform="matrix(.06 0 0 -.06 0 610.25)"/><path d="m279.542969 230.746094h6.039062v-.332032h-6.039062zm0 0"/><path d="m6809.309896 6325.065104h100.651041v5.533854h-100.651041zm0 0" fill="none" stroke="#000" stroke-linejoin="round" stroke-miterlimit="10" stroke-width="8.91656" transform="matrix(.06 0 0 -.06 0 610.25)"/><path d="m408.558594 230.746094h6.039062v-.332032h-6.039062zm0 0"/><path d="m4291.40625 7550.846354v-73.046875l1031.184896-34.309896v73.046875zm0 0" fill="none" stroke="#000" stroke-linejoin="round" stroke-miterlimit="10" stroke-width="6.64176" transform="matrix(.06 0 0 -.06 0 610.25)"/><path d="m257.484375 157.199219v4.382812l61.871094 2.058594v-4.382813zm0 0"/><path d="m7917.96875 6325.065104h100.651042v5.533854h-100.651042zm0 0" fill="none" stroke="#000" stroke-linejoin="round" stroke-miterlimit="10" stroke-width="8.91656" transform="matrix(.06 0 0 -.06 0 610.25)"/><path d="m475.078125 230.746094h6.039063v-.332032h-6.039063zm0 0"/><use x="580.333161" xlink:href="#C" y="149.429078"/><path d="m3167.252604 7135.15625h7.877604v541.861979h-7.877604zm0 0" fill="none" stroke="#000" stroke-linejoin="round" stroke-miterlimit="10" stroke-width="6.64176" transform="matrix(.06 0 0 -.06 0 610.25)"/><path d="m190.035156 182.140625h.472656v-32.511719h-.472656zm0 0"/><use x="170.594341" xlink:href="#ac" y="237.490254"/><use x="184.200319" xlink:href="#M" y="237.490254"/><use x="177.695685" xlink:href="#B" y="184.297548"/><use x="306.546943" xlink:href="#B" y="194.260378"/><path d="m1866.080729 7052.148437h7.877604v541.86198h-7.877604zm0 0" fill="none" stroke="#000" stroke-linejoin="round" stroke-miterlimit="10" stroke-width="6.64176" transform="matrix(.06 0 0 -.06 0 610.25)"/><path d="m111.964844 187.121094h.472656v-32.511719h-.472656zm0 0"/><use x="93.119986" xlink:href="#ad" y="237.490254"/><use x="112.339031" xlink:href="#T" y="237.490254"/><use x="99.626719" xlink:href="#B" y="189.278958"/><use x="42.839406" xlink:href="#D" y="149.428378"/><use x="53.798328" xlink:href="#D" y="164.372408"/><use x="64.75725" xlink:href="#D" y="144.446968"/><use x="7.970236" xlink:href="#E" y="179.316438"/><path d="m4291.40625 7052.148437h7.877604v458.59375h-7.877604zm0 0" fill="none" stroke="#000" stroke-linejoin="round" stroke-miterlimit="10" stroke-width="6.64176" transform="matrix(.06 0 0 -.06 0 610.25)"/><path d="m257.484375 187.121094h.472656v-27.515625h-.472656zm0 0"/><use x="232.176464" xlink:href="#N" y="237.490254"/><use x="245.782457" xlink:href="#ae" y="237.490254"/><use x="257.517658" xlink:href="#ac" y="237.490254"/><use x="245.14589" xlink:href="#B" y="189.278958"/><g clip-path="url(#k)"><path d="m5.598958 5023.632812h9910.091146" style="fill:none;stroke-width:11.1416;stroke-linecap:round;stroke-linejoin:round;stroke:#000;stroke-miterlimit:10" transform="matrix(.06 0 0 -.06 0 610.25)"/></g><g clip-path="url(#l)"><path d="m5.598958 5189.648437h9910.091146" style="fill:none;stroke-width:11.1416;stroke-linecap:round;stroke-linejoin:round;stroke:#000;stroke-miterlimit:10" transform="matrix(.06 0 0 -.06 0 610.25)"/></g><g clip-path="url(#m)"><path d="m5.598958 5355.729167h9910.091146" style="fill:none;stroke-width:11.1416;stroke-linecap:round;stroke-linejoin:round;stroke:#000;stroke-miterlimit:10" transform="matrix(.06 0 0 -.06 0 610.25)"/></g><g clip-path="url(#n)"><path d="m5.598958 5521.744792h9910.091146" style="fill:none;stroke-width:11.1416;stroke-linecap:round;stroke-linejoin:round;stroke:#000;stroke-miterlimit:10" transform="matrix(.06 0 0 -.06 0 610.25)"/></g><g clip-path="url(#o)"><path d="m5.598958 5687.825521h9910.091146" style="fill:none;stroke-width:11.1416;stroke-linecap:round;stroke-linejoin:round;stroke:#000;stroke-miterlimit:10" transform="matrix(.06 0 0 -.06 0 610.25)"/></g><path d="m6330.273437 5023.632812v664.192709" fill="none" stroke="#000" stroke-linejoin="round" stroke-miterlimit="10" stroke-width="21.1872" transform="matrix(.06 0 0 -.06 0 610.25)"/><path d="m2612.109375 5023.632812v664.192709" fill="none" stroke="#000" stroke-linejoin="round" stroke-miterlimit="10" stroke-width="21.1872" transform="matrix(.06 0 0 -.06 0 610.25)"/><use x="441.921884" xlink:href="#B" y="288.906357"/><use x="441.921884" xlink:href="#Q" y="343.700967"/><use x="447.364325" xlink:href="#Y" y="343.700967"/><path d="m7571.028646 5391.731771h7.8125v458.528646h-7.8125zm0 0" fill="none" stroke="#000" stroke-linejoin="round" stroke-miterlimit="10" stroke-width="6.64176" transform="matrix(.06 0 0 -.06 0 610.25)"/><path d="m454.261719 286.746094h.46875v-27.507813h-.46875zm0 0"/><use x="320.18664" xlink:href="#I" y="343.700467"/><use x="331.921841" xlink:href="#L" y="343.700467"/><path d="m6469.335937 4860.9375h7.8125v541.796875h-7.8125zm0 0" fill="none" stroke="#000" stroke-linejoin="round" stroke-miterlimit="10" stroke-width="6.64176" transform="matrix(.06 0 0 -.06 0 610.25)"/><path d="m388.160156 318.59375h.46875v-32.507812h-.46875zm0 0"/><use x="370.568741" xlink:href="#af" y="343.700467"/><use x="384.174734" xlink:href="#Y" y="343.700467"/><use x="397.780726" xlink:href="#ag" y="343.700467"/><use x="387.960576" xlink:href="#B" y="283.924447"/><path d="m5442.513021 4805.598958h7.877604v514.127604h-7.877604zm0 0" fill="none" stroke="#000" stroke-linejoin="round" stroke-miterlimit="10" stroke-width="6.64176" transform="matrix(.06 0 0 -.06 0 610.25)"/><path d="m326.550781 321.914062h.472657v-30.847656h-.472657zm0 0"/><path d="m2336.71875 4554.882812h100.716146v5.598959h-100.716146zm0 0" fill="none" stroke="#000" stroke-linejoin="round" stroke-miterlimit="10" stroke-width="8.91656" transform="matrix(.06 0 0 -.06 0 610.25)"/><path d="m140.203125 336.957031h6.042969v-.335937h-6.042969zm0 0"/><path d="m3191.210937 4554.882812h100.651042v5.598959h-100.651042zm0 0" fill="none" stroke="#000" stroke-linejoin="round" stroke-miterlimit="10" stroke-width="8.91656" transform="matrix(.06 0 0 -.06 0 610.25)"/><path d="m191.472656 336.957031h6.039063v-.335937h-6.039063zm0 0"/><path d="m4139.84375 4554.882812h100.651042v5.598959h-100.651042zm0 0" fill="none" stroke="#000" stroke-linejoin="round" stroke-miterlimit="10" stroke-width="8.91656" transform="matrix(.06 0 0 -.06 0 610.25)"/><path d="m248.390625 336.957031h6.039063v-.335937h-6.039063zm0 0"/><path d="m5047.200521 4554.882812h100.716146v5.598959h-100.716146zm0 0" fill="none" stroke="#000" stroke-linejoin="round" stroke-miterlimit="10" stroke-width="8.91656" transform="matrix(.06 0 0 -.06 0 610.25)"/><path d="m302.832031 336.957031h6.042969v-.335937h-6.042969zm0 0"/><path d="m7118.684896 4554.882812h100.651041v5.598959h-100.651041zm0 0" fill="none" stroke="#000" stroke-linejoin="round" stroke-miterlimit="10" stroke-width="8.91656" transform="matrix(.06 0 0 -.06 0 610.25)"/><path d="m427.121094 336.957031h6.039062v-.335937h-6.039062zm0 0"/><path d="m7468.684896 5150.390625c177.994791-213.541667 623.763021-244.921875 825.78125-58.138021-201.041667-173.4375-646.809896-142.057292-825.78125 58.138021zm0 0" style="fill:none;stroke-width:8.91894;stroke-linecap:round;stroke-linejoin:round;stroke:#000;stroke-miterlimit:10" transform="matrix(.06 0 0 -.06 0 610.25)"/><path d="m448.121094 301.226562c10.679687 12.8125 37.425781 14.695313 49.546875 3.488282-12.0625 10.40625-38.808594 8.523437-49.546875-3.488282"/><path d="m8190.559896 4554.882812h100.651041v5.598959h-100.651041zm0 0" fill="none" stroke="#000" stroke-linejoin="round" stroke-miterlimit="10" stroke-width="8.91656" transform="matrix(.06 0 0 -.06 0 610.25)"/><path d="m491.433594 336.957031h6.039062v-.335937h-6.039062zm0 0"/><path d="m7570.963542 5890.364583v-73.046875l833.658854-34.244791v73.046875zm0 0" fill="none" stroke="#000" stroke-linejoin="round" stroke-miterlimit="10" stroke-width="6.64176" transform="matrix(.06 0 0 -.06 0 610.25)"/><path d="m454.257812 256.828125v4.382813l50.019532 2.054687v-4.382813zm0 0"/><use x="491.466983" xlink:href="#B" y="293.887367"/><use x="580.332761" xlink:href="#C" y="268.980717"/><path d="m9022.721354 4805.598958h7.8125v514.127604h-7.8125zm0 0" fill="none" stroke="#000" stroke-linejoin="round" stroke-miterlimit="10" stroke-width="6.64176" transform="matrix(.06 0 0 -.06 0 610.25)"/><path d="m541.363281 321.914062h.46875v-30.847656h-.46875zm0 0"/><use x="527.939056" xlink:href="#Z" y="343.700467"/><use x="540.184962" xlink:href="#R" y="343.700467"/><use x="553.791189" xlink:href="#T" y="343.700467"/><use x="560.594625" xlink:href="#P" y="343.700467"/><use x="541.164382" xlink:href="#B" y="288.905857"/><path d="m8396.744792 5308.658854h7.877604v507.877604h-7.877604zm0 0" fill="none" stroke="#000" stroke-linejoin="round" stroke-miterlimit="10" stroke-width="6.64176" transform="matrix(.06 0 0 -.06 0 610.25)"/><path d="m503.804688 291.730469h.472656v-30.472657h-.472656zm0 0"/><path d="m2936.71875 5308.658854h7.877604v541.861979h-7.877604zm0 0" fill="none" stroke="#000" stroke-linejoin="round" stroke-miterlimit="10" stroke-width="6.64176" transform="matrix(.06 0 0 -.06 0 610.25)"/><path d="m176.203125 291.730469h.472656v-32.511719h-.472656zm0 0"/><use x="326.353653" xlink:href="#B" y="288.906357"/><use x="163.864328" xlink:href="#B" y="293.887537"/><path d="m1866.080729 5059.635417h7.877604v541.861979h-7.877604zm0 0" fill="none" stroke="#000" stroke-linejoin="round" stroke-miterlimit="10" stroke-width="6.64176" transform="matrix(.06 0 0 -.06 0 610.25)"/><path d="m111.964844 306.671875h.472656v-32.511719h-.472656zm0 0"/><use x="89.379079" xlink:href="#ah" y="343.700467"/><use x="103.835846" xlink:href="#L" y="343.700467"/><use x="117.441824" xlink:href="#Q" y="343.700467"/><use x="99.626699" xlink:href="#B" y="308.830997"/><use x="163.565927" xlink:href="#S" y="343.700467"/><use x="42.839686" xlink:href="#D" y="268.980417"/><use x="53.798608" xlink:href="#D" y="283.924447"/><use x="64.75753" xlink:href="#D" y="263.999007"/><use x="7.970516" xlink:href="#E" y="298.868477"/><use x="272.090044" xlink:href="#B" y="293.887057"/><path d="m3838.606771 5308.658854h7.877604v541.861979h-7.877604zm0 0" fill="none" stroke="#000" stroke-linejoin="round" stroke-miterlimit="10" stroke-width="6.64176" transform="matrix(.06 0 0 -.06 0 610.25)"/><path d="m230.316406 291.730469h.46875v-32.511719h-.46875zm0 0"/><use x="211.811424" xlink:href="#Z" y="343.700467"/><use x="223.546376" xlink:href="#L" y="343.700467"/><use x="217.977376" xlink:href="#B" y="293.886967"/><use x="265.668571" xlink:href="#X" y="343.700467"/><use x="277.914712" xlink:href="#ai" y="343.700467"/><use x="284.718177" xlink:href="#T" y="343.700467"/><path d="m4740.494792 5308.658854h7.8125v541.861979h-7.8125zm0 0" fill="none" stroke="#000" stroke-linejoin="round" stroke-miterlimit="10" stroke-width="6.64176" transform="matrix(.06 0 0 -.06 0 610.25)"/><path d="m284.429688 291.730469h.46875v-32.511719h-.46875zm0 0"/><g clip-path="url(#p)"><path d="m5.598958 3031.119792h9910.091146" style="fill:none;stroke-width:11.1416;stroke-linecap:round;stroke-linejoin:round;stroke:#000;stroke-miterlimit:10" transform="matrix(.06 0 0 -.06 0 610.25)"/></g><g clip-path="url(#q)"><path d="m5.598958 3197.135417h9910.091146" style="fill:none;stroke-width:11.1416;stroke-linecap:round;stroke-linejoin:round;stroke:#000;stroke-miterlimit:10" transform="matrix(.06 0 0 -.06 0 610.25)"/></g><g clip-path="url(#r)"><path d="m5.598958 3363.216146h9910.091146" style="fill:none;stroke-width:11.1416;stroke-linecap:round;stroke-linejoin:round;stroke:#000;stroke-miterlimit:10" transform="matrix(.06 0 0 -.06 0 610.25)"/></g><g clip-path="url(#s)"><path d="m5.598958 3529.231771h9910.091146" style="fill:none;stroke-width:11.1416;stroke-linecap:round;stroke-linejoin:round;stroke:#000;stroke-miterlimit:10" transform="matrix(.06 0 0 -.06 0 610.25)"/></g><g clip-path="url(#t)"><path d="m5.598958 3695.3125h9910.091146" style="fill:none;stroke-width:11.1416;stroke-linecap:round;stroke-linejoin:round;stroke:#000;stroke-miterlimit:10" transform="matrix(.06 0 0 -.06 0 610.25)"/></g><g clip-path="url(#u)"><path d="m9910.677083 3031.119792v664.192708" fill="none" stroke="#000" stroke-linejoin="round" stroke-miterlimit="10" stroke-width="21.1872" transform="matrix(.06 0 0 -.06 0 610.25)"/></g><g fill="none" stroke="#000" stroke-linejoin="round" stroke-miterlimit="10" transform="matrix(.06 0 0 -.06 0 610.25)"><g stroke-width="21.1872"><path d="m2736.979167 3031.119792v664.192708"/><path d="m5153.255208 3031.119792v664.192708"/><path d="m7533.138021 3031.119792v664.192708"/></g><path d="m7686.197917 3034.440104h7.8125v529.947917h-7.8125zm0 0" stroke-width="6.64176"/></g><path d="m461.171875 428.183594h.46875v-31.796875h-.46875zm0 0"/><use x="454.87991" xlink:href="#U" y="461.532703"/><use x="467.126051" xlink:href="#S" y="461.532703"/><use x="460.972032" xlink:href="#G" y="393.513667"/><path d="m6424.544271 2868.359375h7.877604v529.947917h-7.877604zm0 0" fill="none" stroke="#000" stroke-linejoin="round" stroke-miterlimit="10" stroke-width="6.64176" transform="matrix(.06 0 0 -.06 0 610.25)"/><path d="m385.472656 438.148438h.472656v-31.796876h-.472656zm0 0"/><use x="366.257733" xlink:href="#K" y="461.532703"/><use x="378.503873" xlink:href="#W" y="461.532703"/><use x="392.109866" xlink:href="#X" y="461.532703"/><use x="404.356007" xlink:href="#T" y="461.532703"/><use x="411.159472" xlink:href="#P" y="461.532703"/><use x="385.275471" xlink:href="#G" y="403.476286"/><path d="m2249.088542 2591.015625h100.651041v5.598958h-100.651041zm0 0" fill="none" stroke="#000" stroke-linejoin="round" stroke-miterlimit="10" stroke-width="8.91656" transform="matrix(.06 0 0 -.06 0 610.25)"/><path d="m134.945312 454.789062h6.039063v-.335937h-6.039063zm0 0"/><path d="m3521.354167 2591.015625h100.716145v5.598958h-100.716145zm0 0" fill="none" stroke="#000" stroke-linejoin="round" stroke-miterlimit="10" stroke-width="8.91656" transform="matrix(.06 0 0 -.06 0 610.25)"/><path d="m211.28125 454.789062h6.042969v-.335937h-6.042969zm0 0"/><path d="m5813.216146 2591.015625h100.651041v5.598958h-100.651041zm0 0" fill="none" stroke="#000" stroke-linejoin="round" stroke-miterlimit="10" stroke-width="8.91656" transform="matrix(.06 0 0 -.06 0 610.25)"/><path d="m348.792969 454.789062h6.039062v-.335937h-6.039062zm0 0"/><path d="m8230.924479 2591.015625h100.716146v5.598958h-100.716146zm0 0" fill="none" stroke="#000" stroke-linejoin="round" stroke-miterlimit="10" stroke-width="8.91656" transform="matrix(.06 0 0 -.06 0 610.25)"/><path d="m493.855469 454.789062h6.042969v-.335937h-6.042969zm0 0"/><path d="m8813.932292 3034.440104h7.877604v529.947917h-7.877604zm0 0" fill="none" stroke="#000" stroke-linejoin="round" stroke-miterlimit="10" stroke-width="6.64176" transform="matrix(.06 0 0 -.06 0 610.25)"/><path d="m528.835938 428.183594h.472656v-31.796875h-.472656zm0 0"/><use x="513.023026" xlink:href="#K" y="461.532703"/><use x="525.268932" xlink:href="#W" y="461.532703"/><use x="538.875159" xlink:href="#X" y="461.532703"/><use x="551.121066" xlink:href="#T" y="461.532703"/><use x="528.638557" xlink:href="#G" y="393.513667"/><use x="158.911818" xlink:href="#aj" y="461.532703"/><use x="166.905909" xlink:href="#R" y="461.532703"/><use x="180.511887" xlink:href="#Q" y="461.532703"/><use x="185.784172" xlink:href="#ae" y="461.532703"/><use x="171.636043" xlink:href="#G" y="413.438906"/><path d="m1866.080729 3067.122396h7.877604v541.796875h-7.877604zm0 0" fill="none" stroke="#000" stroke-linejoin="round" stroke-miterlimit="10" stroke-width="6.64176" transform="matrix(.06 0 0 -.06 0 610.25)"/><path d="m111.964844 426.222656h.472656v-32.507812h-.472656zm0 0"/><use x="95.24599" xlink:href="#ak" y="461.532703"/><use x="111.573775" xlink:href="#J" y="461.532703"/><use x="99.626699" xlink:href="#B" y="428.382836"/><use x="42.839386" xlink:href="#D" y="388.532257"/><use x="53.798308" xlink:href="#D" y="403.476286"/><use x="64.75723" xlink:href="#D" y="383.551047"/><use x="7.970216" xlink:href="#E" y="418.420216"/><path d="m3077.278646 3328.059896h7.8125v529.947916h-7.8125zm0 0" fill="none" stroke="#000" stroke-linejoin="round" stroke-miterlimit="10" stroke-width="6.64176" transform="matrix(.06 0 0 -.06 0 610.25)"/><path d="m184.636719 410.566406h.46875v-31.796875h-.46875zm0 0"/><path d="m5296.809896 2868.359375h7.8125v529.947917h-7.8125zm0 0" fill="none" stroke="#000" stroke-linejoin="round" stroke-miterlimit="10" stroke-width="6.64176" transform="matrix(.06 0 0 -.06 0 610.25)"/><path d="m317.808594 438.148438h.46875v-31.796876h-.46875zm0 0"/><use x="311.516623" xlink:href="#U" y="461.532703"/><use x="323.762764" xlink:href="#S" y="461.532703"/><use x="317.607805" xlink:href="#G" y="403.476286"/><path d="m4205.013021 3328.059896h7.877604v529.947916h-7.877604zm0 0" fill="none" stroke="#000" stroke-linejoin="round" stroke-miterlimit="10" stroke-width="6.64176" transform="matrix(.06 0 0 -.06 0 610.25)"/><path d="m252.300781 410.566406h.472657v-31.796875h-.472657zm0 0"/><use x="230.575461" xlink:href="#Q" y="461.532703"/><use x="235.847746" xlink:href="#ae" y="461.532703"/><use x="248.093887" xlink:href="#R" y="461.532703"/><use x="239.302899" xlink:href="#G" y="413.438906"/><g clip-path="url(#v)"><path d="m5.598958 1038.606771h9910.091146" style="fill:none;stroke-width:11.1416;stroke-linecap:round;stroke-linejoin:round;stroke:#000;stroke-miterlimit:10" transform="matrix(.06 0 0 -.06 0 610.25)"/></g><g clip-path="url(#w)"><path d="m5.598958 1204.622396h9910.091146" style="fill:none;stroke-width:11.1416;stroke-linecap:round;stroke-linejoin:round;stroke:#000;stroke-miterlimit:10" transform="matrix(.06 0 0 -.06 0 610.25)"/></g><g clip-path="url(#x)"><path d="m5.598958 1370.638021h9910.091146" style="fill:none;stroke-width:11.1416;stroke-linecap:round;stroke-linejoin:round;stroke:#000;stroke-miterlimit:10" transform="matrix(.06 0 0 -.06 0 610.25)"/></g><g clip-path="url(#y)"><path d="m5.598958 1536.71875h9910.091146" style="fill:none;stroke-width:11.1416;stroke-linecap:round;stroke-linejoin:round;stroke:#000;stroke-miterlimit:10" transform="matrix(.06 0 0 -.06 0 610.25)"/></g><g clip-path="url(#z)"><path d="m5.598958 1702.734375h9910.091146" style="fill:none;stroke-width:11.1416;stroke-linecap:round;stroke-linejoin:round;stroke:#000;stroke-miterlimit:10" transform="matrix(.06 0 0 -.06 0 610.25)"/></g><path d="m7921.354167 1038.606771v664.127604" fill="none" stroke="#000" stroke-linejoin="round" stroke-miterlimit="10" stroke-width="21.1872" transform="matrix(.06 0 0 -.06 0 610.25)"/><g clip-path="url(#A)"><path d="m9887.825521 1038.606771v664.127604" fill="none" stroke="#000" stroke-linejoin="round" stroke-miterlimit="10" stroke-width="66.8991" transform="matrix(.06 0 0 -.06 0 610.25)"/></g><g fill="none" stroke="#000" stroke-linejoin="round" stroke-miterlimit="10" transform="matrix(.06 0 0 -.06 0 610.25)"><path d="m9810.351562 1038.606771v664.127604" stroke-width="21.1872"/><path d="m4715.625 1038.606771v664.127604" stroke-width="21.1872"/><path d="m8383.528646 1335.546875h7.877604v529.947917h-7.877604zm0 0" stroke-width="6.64176"/></g><path d="m503.011719 530.117188h.472656v-31.796876h-.472656zm0 0"/><use x="508.235016" xlink:href="#F" y="532.991145"/><use x="477.205354" xlink:href="#T" y="582.903945"/><use x="483.838428" xlink:href="#Y" y="582.903945"/><use x="497.444421" xlink:href="#Z" y="582.903945"/><use x="509.690562" xlink:href="#aa" y="582.903945"/><use x="496.849494" xlink:href="#H" y="495.49147"/><use x="490.01511" xlink:href="#G" y="532.991045"/><path d="m6404.427083 820.507812h7.877604v502.278646h-7.877604zm0 0" fill="none" stroke="#000" stroke-linejoin="round" stroke-miterlimit="10" stroke-width="6.64176" transform="matrix(.06 0 0 -.06 0 610.25)"/><path d="m384.265625 561.019531h.472656v-30.136719h-.472656zm0 0"/><use x="377.976756" xlink:href="#K" y="582.904045"/><use x="390.222897" xlink:href="#R" y="582.904045"/><use x="384.067938" xlink:href="#G" y="528.009836"/><path d="m2521.289062 568.164062h100.716146v5.598959h-100.716146zm0 0" fill="none" stroke="#000" stroke-linejoin="round" stroke-miterlimit="10" stroke-width="8.91656" transform="matrix(.06 0 0 -.06 0 610.25)"/><path d="m151.277344 576.160156h6.042968v-.335937h-6.042968zm0 0"/><path d="m4028.255208 568.164062h100.651042v5.598959h-100.651042zm0 0" fill="none" stroke="#000" stroke-linejoin="round" stroke-miterlimit="10" stroke-width="8.91656" transform="matrix(.06 0 0 -.06 0 610.25)"/><path d="m241.695312 576.160156h6.039063v-.335937h-6.039063zm0 0"/><path d="m5756.315104 568.164062h100.651042v5.598959h-100.651042zm0 0" fill="none" stroke="#000" stroke-linejoin="round" stroke-miterlimit="10" stroke-width="8.91656" transform="matrix(.06 0 0 -.06 0 610.25)"/><path d="m345.378906 576.160156h6.039063v-.335937h-6.039063zm0 0"/><path d="m7291.601562 568.164062h100.716146v5.598959h-100.716146zm0 0" fill="none" stroke="#000" stroke-linejoin="round" stroke-miterlimit="10" stroke-width="8.91656" transform="matrix(.06 0 0 -.06 0 610.25)"/><path d="m437.496094 576.160156h6.039062v-.335937h-6.039062zm0 0"/><use x="7.970176" xlink:href="#E" y="537.972355"/><use x="94.78685" xlink:href="#Z" y="582.904045"/><use x="106.521809" xlink:href="#Y" y="582.904045"/><use x="100.622801" xlink:href="#G" y="523.028426"/><use x="42.839386" xlink:href="#D" y="508.084396"/><use x="53.798308" xlink:href="#D" y="523.028426"/><use x="64.75723" xlink:href="#D" y="503.103186"/><path d="m1680.403646 875.846354h7.8125v529.947917h-7.8125zm0 0" fill="none" stroke="#000" stroke-linejoin="round" stroke-miterlimit="10" stroke-width="6.64176" transform="matrix(.06 0 0 -.06 0 610.25)"/><path d="m100.824219 557.699219h.46875v-31.796875h-.46875zm0 0"/><path d="m4874.21875 875.846354h7.877604v529.947917h-7.877604zm0 0" fill="none" stroke="#000" stroke-linejoin="round" stroke-miterlimit="10" stroke-width="6.64176" transform="matrix(.06 0 0 -.06 0 610.25)"/><path d="m292.453125 557.699219h.472656v-31.796875h-.472656zm0 0"/><use x="279.361559" xlink:href="#M" y="582.904045"/><use x="292.967551" xlink:href="#R" y="582.904045"/><use x="306.573544" xlink:href="#K" y="582.904045"/><use x="292.256185" xlink:href="#G" y="523.028426"/><path d="m3210.546875 958.854167h7.877604v529.947916h-7.877604zm0 0" fill="none" stroke="#000" stroke-linejoin="round" stroke-miterlimit="10" stroke-width="6.64176" transform="matrix(.06 0 0 -.06 0 610.25)"/><path d="m192.632812 552.71875h.472657v-31.796875h-.472657zm0 0"/><use x="188.468377" xlink:href="#aj" y="582.904045"/><use x="196.462468" xlink:href="#Y" y="582.904045"/><use x="192.433545" xlink:href="#G" y="518.047216"/></svg>