<svg height="551.63em" viewBox="0 0 595.28 551.63" width="595.28em" xmlns="http://www.w3.org/2000/svg" xmlns:xlink="http://www.w3.org/1999/xlink"><clipPath id="a"><path d="m0 84h595.28125v1h-595.28125zm0 0"/></clipPath><clipPath id="b"><path d="m0 73h595.28125v1h-595.28125zm0 0"/></clipPath><clipPath id="c"><path d="m0 62h595.28125v1h-595.28125zm0 0"/></clipPath><clipPath id="d"><path d="m0 51h595.28125v1h-595.28125zm0 0"/></clipPath><clipPath id="e"><path d="m0 40h595.28125v1h-595.28125zm0 0"/></clipPath><clipPath id="f"><path d="m593 39h2.28125v47h-2.28125zm0 0"/></clipPath><clipPath id="g"><path d="m0 215h595.28125v2h-595.28125zm0 0"/></clipPath><clipPath id="h"><path d="m0 204h595.28125v2h-595.28125zm0 0"/></clipPath><clipPath id="i"><path d="m0 193h595.28125v2h-595.28125zm0 0"/></clipPath><clipPath id="j"><path d="m0 182h595.28125v2h-595.28125zm0 0"/></clipPath><clipPath id="k"><path d="m0 171h595.28125v2h-595.28125zm0 0"/></clipPath><clipPath id="l"><path d="m593 171h2.28125v46h-2.28125zm0 0"/></clipPath><clipPath id="m"><path d="m0 347h595.28125v1h-595.28125zm0 0"/></clipPath><clipPath id="n"><path d="m0 336h595.28125v1h-595.28125zm0 0"/></clipPath><clipPath id="o"><path d="m0 325h595.28125v1h-595.28125zm0 0"/></clipPath><clipPath id="p"><path d="m0 314h595.28125v1h-595.28125zm0 0"/></clipPath><clipPath id="q"><path d="m0 303h595.28125v1h-595.28125zm0 0"/></clipPath><clipPath id="r"><path d="m593 302h2.28125v47h-2.28125zm0 0"/></clipPath><clipPath id="s"><path d="m0 478h595.28125v2h-595.28125zm0 0"/></clipPath><clipPath id="t"><path d="m0 467h595.28125v2h-595.28125zm0 0"/></clipPath><clipPath id="u"><path d="m0 456h595.28125v2h-595.28125zm0 0"/></clipPath><clipPath id="v"><path d="m0 445h595.28125v2h-595.28125zm0 0"/></clipPath><clipPath id="w"><path d="m0 434h595.28125v2h-595.28125zm0 0"/></clipPath><clipPath id="x"><path d="m591 432h4.28125v50h-4.28125zm0 0"/></clipPath><symbol id="y" overflow="visible"><path d="m13.15625-14.1875h-2.546875l-4 11.515625-3.796875-11.515625h-2.546875l4.984375 14.1875h2.46875zm0 0"/></symbol><symbol id="z" overflow="visible"><path d="m4.140625 0v-14.1875h-2.25v14.1875zm.296875-16.3125v-2.828125h-2.8125v2.828125zm0 0"/></symbol><symbol id="A" overflow="visible"><path d="m13.890625-6.4375c0-2.0625-.171875-3.359375-.578125-4.421875-.921875-2.3125-3.078125-3.734375-5.734375-3.734375-3.953125 0-6.5 2.9375-6.5 7.578125 0 4.65625 2.46875 7.421875 6.4375 7.421875 3.25 0 5.5-1.84375 6.0625-4.703125h-2.265625c-.625 1.859375-1.890625 2.625-3.703125 2.625-2.359375 0-4.125-1.515625-4.171875-4.765625zm-2.421875-2s0 .109375-.015625.15625h-7.96875c.203125-2.515625 1.796875-4.21875 4.0625-4.21875 2.21875 0 3.921875 1.84375 3.921875 4.0625zm.953125-11.296875h-3.0625l-2.59375 4.015625h1.625zm0 0"/></symbol><symbol id="B" overflow="visible"><path d="m12.421875-3.984375c0-2.109375-1.1875-3.15625-4-3.84375l-2.171875-.5c-1.84375-.4375-2.625-1.03125-2.625-2.03125 0-1.296875 1.171875-2.140625 3-2.140625 1.8125 0 2.796875.78125 2.84375 2.265625h2.390625c-.03125-2.78125-1.875-4.359375-5.140625-4.359375-3.3125 0-5.453125 1.71875-5.453125 4.34375 0 2.21875 1.140625 3.265625 4.5 4.078125l2.109375.515625c1.5625.375 2.1875.84375 2.1875 1.875 0 1.3125-1.328125 2.109375-3.296875 2.109375-2.03125 0-3.171875-.5-3.46875-2.65625h-2.375c.109375 3.265625 1.953125 4.734375 5.65625 4.734375 3.5625 0 5.84375-1.65625 5.84375-4.390625zm0 0"/></symbol><symbol id="C" overflow="visible"><path d="m4.09375 0v-19.734375h-2.25v19.734375zm0 0"/></symbol><symbol id="D" overflow="visible"><path d="m14.484375-.046875v-1.71875c-.25.0625-.359375.0625-.5.0625-.78125 0-1.203125-.40625-1.203125-1.109375v-7.90625c0-2.515625-1.84375-3.875-5.34375-3.875-3.4375 0-5.546875 1.328125-5.671875 4.609375h2.265625c.1875-1.734375 1.21875-2.515625 3.328125-2.515625 2.03125 0 3.171875.75 3.171875 2.109375v.59375c0 .953125-.578125 1.359375-2.359375 1.5625-3.1875.40625-3.671875.515625-4.546875.875-1.65625.671875-2.484375 1.953125-2.484375 3.671875 0 2.578125 1.78125 4.09375 4.65625 4.09375 1.8125 0 3.5625-.765625 4.8125-2.078125.25 1.078125 1.21875 1.859375 2.328125 1.859375.453125 0 .8125-.046875 1.546875-.234375zm-3.953125-4.84375c0 2.015625-2.0625 3.328125-4.25 3.328125-1.765625 0-2.796875-.625-2.796875-2.171875 0-1.484375 1.015625-2.140625 3.421875-2.484375 2.375-.328125 2.859375-.4375 3.625-.796875zm1.75-14.84375h-3.046875l-2.609375 4.015625h1.625zm0 0"/></symbol><symbol id="E" overflow="visible"><path d="m13.234375-2.328125v-11.859375h-2.078125v2.0625c-1.140625-1.671875-2.515625-2.46875-4.34375-2.46875-3.59375 0-6.03125 3.03125-6.03125 7.640625 0 4.46875 2.515625 7.359375 5.84375 7.359375 1.796875 0 3.03125-.765625 4.53125-2.546875v.953125c0 3.765625-1.546875 5.1875-4.171875 5.1875-1.78125 0-3.171875-.640625-3.4375-2.375h-2.296875c.234375 2.671875 2.328125 4.28125 5.65625 4.28125 4.4375 0 6.328125-1.984375 6.328125-8.234375zm-2.296875-4.6875c0 3.390625-1.46875 5.34375-3.84375 5.34375-2.46875 0-3.953125-1.984375-3.953125-5.421875 0-3.40625 1.515625-5.40625 3.921875-5.40625 2.4375 0 3.875 2.046875 3.875 5.484375zm0 0"/></symbol><symbol id="F" overflow="visible"><path d="m5.203125.4375v-3.25h-2.84375v2.8125h1.625v.484375c0 1.875-.359375 2.40625-1.625 2.46875v1.03125c1.890625 0 2.84375-1.21875 2.84375-3.546875zm0 0"/></symbol><symbol id="G" overflow="visible"><path d="m13.171875 0v-10.71875c0-2.359375-1.75-3.875-4.484375-3.875-2.109375 0-3.46875.8125-4.703125 2.796875v-2.390625h-2.09375v14.1875h2.25v-7.828125c0-2.890625 1.5625-4.78125 3.875-4.78125 1.78125 0 2.921875 1.078125 2.921875 2.78125v9.828125zm0 0"/></symbol><symbol id="H" overflow="visible"><path d="m14.484375-.046875v-1.71875c-.25.0625-.359375.0625-.5.0625-.78125 0-1.203125-.40625-1.203125-1.109375v-7.90625c0-2.515625-1.84375-3.875-5.34375-3.875-3.4375 0-5.546875 1.328125-5.671875 4.609375h2.265625c.1875-1.734375 1.21875-2.515625 3.328125-2.515625 2.03125 0 3.171875.75 3.171875 2.109375v.59375c0 .953125-.578125 1.359375-2.359375 1.5625-3.1875.40625-3.671875.515625-4.546875.875-1.65625.671875-2.484375 1.953125-2.484375 3.671875 0 2.578125 1.78125 4.09375 4.65625 4.09375 1.8125 0 3.5625-.765625 4.8125-2.078125.25 1.078125 1.21875 1.859375 2.328125 1.859375.453125 0 .8125-.046875 1.546875-.234375zm-3.953125-4.84375c0 2.015625-2.0625 3.328125-4.25 3.328125-1.765625 0-2.796875-.625-2.796875-2.171875 0-1.484375 1.015625-2.140625 3.421875-2.484375 2.375-.328125 2.859375-.4375 3.625-.796875zm0 0"/></symbol><symbol id="I" overflow="visible"><path d="m14.15625-6.953125c0-4.765625-2.328125-7.640625-6.09375-7.640625-1.921875 0-3.46875.875-4.515625 2.546875v-2.140625h-2.0625v20.09375h2.25v-7.609375c1.1875 1.453125 2.515625 2.109375 4.359375 2.109375 3.65625 0 6.0625-2.84375 6.0625-7.359375zm-2.359375-.0625c0 3.234375-1.65625 5.3125-4.109375 5.3125-2.390625 0-3.953125-1.953125-3.953125-5.28125s1.5625-5.484375 3.953125-5.484375c2.484375 0 4.109375 2.078125 4.109375 5.453125zm0 0"/></symbol><symbol id="J" overflow="visible"><path d="m17.8125 0-8.125-11.6875 8.03125-8.046875h-3.234375l-9.828125 9.984375v-9.984375h-2.515625v19.734375h2.515625v-6.90625l3.21875-3.21875 6.953125 10.125zm0 0"/></symbol><symbol id="K" overflow="visible"><path d="m8.6875-12.203125v-2.296875c-.375-.0625-.5625-.09375-.859375-.09375-1.46875 0-2.578125.875-3.875 2.984375v-2.578125h-2.0625v14.1875h2.25v-7.359375c0-3.1875 1.0625-4.796875 4.546875-4.84375zm0 0"/></symbol><symbol id="L" overflow="visible"><path d="m12.375 0v-1.96875h-8.796875l8.40625-10.203125v-2.015625h-10.578125v1.984375h7.90625l-8.46875 10.171875v2.03125zm0 0"/></symbol><symbol id="M" overflow="visible"><path d="m12.9375-14.1875h-2.4375l-3.921875 11.046875-3.625-11.046875h-2.40625l4.78125 14.234375-.859375 2.25c-.375 1-.84375 1.390625-1.8125 1.390625-.328125 0-.703125-.0625-1.1875-.171875v2.03125c.453125.25.90625.359375 1.515625.359375 1.59375 0 2.890625-.90625 3.640625-2.921875zm0 0"/></symbol><symbol id="N" overflow="visible"><path d="m13.578125 0-5.78125-9.28125 4.921875-4.90625h-2.890625l-6.015625 6.015625v-11.5625h-2.25v19.734375h2.25v-5.515625l2.203125-2.171875 4.78125 7.6875zm0 0"/></symbol><symbol id="O" overflow="visible"><path d="m6.875 0v-1.890625c-.296875.078125-.65625.109375-1.078125.109375-.984375 0-1.25-.28125-1.25-1.28125v-9.28125h2.328125v-1.84375h-2.328125v-3.890625h-2.25v3.890625h-1.921875v1.84375h1.921875v10.28125c0 1.4375.984375 2.25 2.734375 2.25.546875 0 1.078125-.046875 1.84375-.1875zm0 0"/></symbol><symbol id="P" overflow="visible"><path d="m13.046875 0v-14.1875h-2.25v7.828125c0 2.890625-1.515625 4.796875-3.875 4.796875-1.78125 0-2.921875-1.09375-2.921875-2.796875v-9.828125h-2.234375v10.71875c0 2.359375 1.75 3.875 4.515625 3.875 2.078125 0 3.40625-.734375 4.734375-2.59375v2.1875zm0 0"/></symbol><symbol id="Q" overflow="visible"><path d="m13.890625-6.4375c0-2.0625-.171875-3.359375-.578125-4.421875-.921875-2.3125-3.078125-3.734375-5.734375-3.734375-3.953125 0-6.5 2.9375-6.5 7.578125 0 4.65625 2.46875 7.421875 6.4375 7.421875 3.25 0 5.5-1.84375 6.0625-4.703125h-2.265625c-.625 1.859375-1.890625 2.625-3.703125 2.625-2.359375 0-4.125-1.515625-4.171875-4.765625zm-2.421875-2s0 .109375-.015625.15625h-7.96875c.203125-2.515625 1.796875-4.21875 4.0625-4.21875 2.21875 0 3.921875 1.84375 3.921875 4.0625zm0 0"/></symbol><symbol id="R" overflow="visible"><path d="m14.15625-7.25c0-4.609375-2.328125-7.34375-6.0625-7.34375-1.953125 0-3.328125.734375-4.390625 2.328125v-7.46875h-2.234375v19.734375h2.015625v-2.03125c1.09375 1.65625 2.53125 2.4375 4.5 2.4375 3.734375 0 6.171875-3.0625 6.171875-7.65625zm-2.359375.125c0 3.234375-1.671875 5.421875-4.140625 5.421875-2.375 0-3.953125-2.171875-3.953125-5.390625 0-3.328125 1.578125-5.484375 3.953125-5.375 2.515625 0 4.140625 2.1875 4.140625 5.34375zm0 0"/></symbol><symbol id="S" overflow="visible"><path d="m13.15625 0v-10.71875c0-2.375-1.703125-3.875-4.46875-3.875-2 0-3.21875.625-4.546875 2.359375v-7.5h-2.25v19.734375h2.25v-7.828125c0-2.890625 1.515625-4.78125 3.84375-4.78125 1.59375 0 2.921875.921875 2.921875 2.78125v9.828125zm0 0"/></symbol><symbol id="T" overflow="visible"><path d="m4.140625 2.953125v-17.140625h-2.25v16.25c0 1.34375-.453125 1.9375-1.84375 1.859375l-.53125-.03125v1.921875c.265625.0625.40625.09375.75.09375 2.546875 0 3.875-1.03125 3.875-2.953125zm.296875-19.265625v-2.828125h-2.8125v2.828125zm0 0"/></symbol><symbol id="U" overflow="visible"><path d="m4.890625-10.578125v-9.15625h-2.234375v9.15625l.59375 6.03125h1.046875zm0 10.578125v-2.8125h-2.265625v2.8125zm0 0"/></symbol><symbol id="V" overflow="visible"><path d="m20.59375 0v-19.734375h-3.484375l-5.75 17.1875-5.84375-17.1875h-3.484375v19.734375h2.375v-16.53125l5.609375 16.53125h2.65625l5.546875-16.53125v16.53125zm0 0"/></symbol><symbol id="W" overflow="visible"><path d="m13.796875-6.984375c0-4.890625-2.34375-7.609375-6.4375-7.609375-3.984375 0-6.390625 2.734375-6.390625 7.5s2.390625 7.5 6.421875 7.5c3.96875 0 6.40625-2.734375 6.40625-7.390625zm-2.34375-.03125c0 3.328125-1.578125 5.34375-4.0625 5.34375-2.515625 0-4.0625-1.984375-4.0625-5.421875 0-3.40625 1.546875-5.40625 4.0625-5.40625 2.546875 0 4.0625 1.96875 4.0625 5.484375zm-4.90625-9.328125v-2.765625h-2.453125v2.765625zm4.390625 0v-2.765625h-2.46875v2.765625zm0 0"/></symbol><symbol id="X" overflow="visible"><path d="m13.796875-6.984375c0-4.890625-2.34375-7.609375-6.4375-7.609375-3.984375 0-6.390625 2.734375-6.390625 7.5s2.390625 7.5 6.421875 7.5c3.96875 0 6.40625-2.734375 6.40625-7.390625zm-2.34375-.03125c0 3.328125-1.578125 5.34375-4.0625 5.34375-2.515625 0-4.0625-1.984375-4.0625-5.421875 0-3.40625 1.546875-5.40625 4.0625-5.40625 2.546875 0 4.0625 1.96875 4.0625 5.484375zm0 0"/></symbol><symbol id="Y" overflow="visible"><path d="m5.21875 0v-19.734375h-2.515625v19.734375zm0 0"/></symbol><symbol id="Z" overflow="visible"><path d="m13.046875 0v-14.1875h-2.25v7.828125c0 2.890625-1.515625 4.796875-3.875 4.796875-1.78125 0-2.921875-1.09375-2.921875-2.796875v-9.828125h-2.234375v10.71875c0 2.359375 1.75 3.875 4.515625 3.875 2.078125 0 3.40625-.734375 4.734375-2.59375v2.1875zm-6.5-16.34375v-2.765625h-2.453125v2.765625zm4.390625 0v-2.765625h-2.46875v2.765625zm0 0"/></symbol><symbol id="aa" overflow="visible"><path d="m20.5625 0v-10.640625c0-2.53125-1.40625-3.953125-4.046875-3.953125-1.90625 0-3.03125.578125-4.359375 2.171875-.84375-1.515625-1.984375-2.171875-3.828125-2.171875-1.890625 0-3.125.703125-4.34375 2.421875v-2.015625h-2.0625v14.1875h2.25v-8.90625c0-2.046875 1.484375-3.703125 3.328125-3.703125 1.671875 0 2.625 1.03125 2.625 2.84375v9.765625h2.25v-8.90625c0-2.046875 1.515625-3.703125 3.34375-3.703125 1.65625 0 2.609375 1.046875 2.609375 2.84375v9.765625zm0 0"/></symbol><symbol id="ab" overflow="visible"><path d="m9.734375-5.921875c-1.84375 0-3.59375.625-5.171875 1.578125-2.0625 1.234375-4.5625 3.375-4.5625 6.484375 0 2.59375 2.28125 3.78125 4.609375 3.78125 1.828125 0 3.59375-.625 5.171875-1.578125 2.046875-1.234375 4.5-3.375 4.5-6.484375 0-2.59375-2.234375-3.78125-4.546875-3.78125zm0 0"/></symbol><symbol id="ac" overflow="visible"><path d="m-2.765625-2.0625c0 1.53125 1.234375 2.765625 2.765625 2.765625s2.765625-1.234375 2.765625-2.765625-1.234375-2.765625-2.765625-2.765625-2.765625 1.234375-2.765625 2.765625zm2.765625-13.71875c-6.796875 0-14.421875 7.578125-14.421875 15.875 0 .34375.359375.609375.703125.609375.3125 0 .65625-.21875.75-.703125 1.140625-6.53125 6.4375-11.609375 12.96875-11.609375s11.828125 5.078125 12.96875 11.609375c.09375.484375.4375.703125.75.703125.34375 0 .703125-.265625.703125-.609375 0-8.296875-7.578125-15.875-14.421875-15.875zm0 0"/></symbol><symbol id="ad" overflow="visible"><path d="m1.09375-1.921875c.046875-1.453125 1.015625-2.71875 2.375-2.71875 1.3125 0 1.921875 1.53125 1.921875 3.015625 0 2.59375-2.1875 4.4375-4.203125 6.09375-.09375-.96875-.171875-1.921875-.171875-2.890625 0-.171875.03125-.3125.03125-.484375zm-2.1875-18.375.484375 26.25c0 .53125.390625.921875.921875.921875.78125 0 1.140625-.921875 1.75-1.390625 2.765625-2.234375 6.703125-3.8125 6.703125-7.40625 0-2.375-1.75-4.390625-4.078125-4.390625-1.40625 0-2.71875.484375-3.859375 1.3125l.265625-15.296875c-.34375-.171875-.703125-.296875-1.09375-.296875s-.75.125-1.09375.296875zm0 0"/></symbol><symbol id="ae" overflow="visible"><path d="m16.390625-11.390625c-.703125-3.078125-1.53125-6.09375-2.40625-9.125 4.203125-4.765625 8.015625-9.6875 8.015625-16 0-4.953125-2.71875-12.046875-5.78125-15.734375-.21875-.171875-.484375-.171875-.703125 0-4.171875 3.03125-6.578125 7.859375-6.578125 12.9375 0 2.28125.046875 4.515625.3125 6.75.296875 2.84375 1.046875 5.609375 1.84375 8.375-5.171875 5.875-11 11.484375-11 19.28125 0 8.8125 6.34375 16.296875 14.59375 16.296875 1.359375 0 2.625-.125 3.890625-.34375.140625 1.40625.21875 2.796875.21875 4.203125 0 .796875-.03125 1.53125-.078125 2.328125-.265625 4.328125-2.9375 8.328125-7.015625 8.40625-.046875 0-.09375.046875-.125.046875-2.25 0-4.171875-1.265625-5.3125-3.0625.484375.21875 1.015625.390625 1.53125.390625 2.28125 0 4.171875-1.890625 4.171875-4.15625 0-2.453125-1.796875-4.5625-4.171875-4.5625-2.578125 0-4.90625 2.015625-4.90625 4.5625 0 4.734375 3.8125 8.546875 8.546875 8.546875 5.171875 0 8.71875-4.65625 9.03125-9.90625.046875-.84375.046875-1.625.046875-2.453125 0-1.578125-.09375-3.15625-.21875-4.734375 1.140625-.359375 2.234375-.875 3.1875-1.625 3.25-2.40625 4.703125-5.78125 4.703125-9.125 0-5.78125-4.390625-11.34375-11.140625-11.34375-.21875 0-.4375.046875-.65625.046875zm3.71875 20.375c-.609375-5.4375-1.609375-10.609375-2.703125-15.734375 4.8125.390625 7.84375 4.421875 7.84375 8.453125 0 3.078125-2.109375 6.234375-5.140625 7.28125zm-17-10.34375c0-7.015625 4.734375-12.3125 9.46875-17.625.703125 2.59375 1.40625 5.171875 2.015625 7.8125-4.421875 1-6.921875 4.734375-6.921875 8.59375 0 3.0625 1.578125 6.171875 5.078125 8.0625.140625.03125.265625.078125.390625.078125.484375 0 .890625-.4375.890625-.921875 0-.21875-.140625-.4375-.3125-.609375-2.453125-1.40625-3.59375-3.5-3.59375-5.4375 0-2.578125 2.015625-4.90625 5.484375-5.296875 1.140625 5.25 2.140625 10.46875 2.796875 16.078125-1.1875.171875-2.359375.265625-3.59375.265625-5.953125 0-11.703125-5.03125-11.703125-11zm14.90625-44.65625c.75 2.3125.921875 3.453125.921875 6 0 5.5625-2.9375 10-6.53125 14.25-.796875-2.765625-1.453125-5.4375-1.453125-8.765625 0-4.875 2.71875-9.296875 7.0625-11.484375zm0 0"/></symbol><symbol id="af" overflow="visible"><path d="m9.109375 0v-17.09375h-2.234375c-.53125 2.03125-2.296875 3.0625-5.234375 3.0625v2.234375h4.09375v11.796875zm0 0"/></symbol><symbol id="ag" overflow="visible"><path d="m5.15625 0v-3.515625h-3.609375v3.515625zm0 0"/></symbol><g clip-path="url(#a)"><path d="m5.859375 7786.867187h9909.570312" fill="none" stroke="#000" stroke-linecap="round" stroke-miterlimit="10" stroke-width="11.726" transform="matrix(.06 0 0 -.06 0 551.63)"/></g><g clip-path="url(#b)"><path d="m5.859375 7969.549479h9909.570312" fill="none" stroke="#000" stroke-linecap="round" stroke-miterlimit="10" stroke-width="11.726" transform="matrix(.06 0 0 -.06 0 551.63)"/></g><g clip-path="url(#c)"><path d="m5.859375 8152.166667h9909.570312" fill="none" stroke="#000" stroke-linecap="round" stroke-miterlimit="10" stroke-width="11.726" transform="matrix(.06 0 0 -.06 0 551.63)"/></g><g clip-path="url(#d)"><path d="m5.859375 8334.848958h9909.570312" fill="none" stroke="#000" stroke-linecap="round" stroke-miterlimit="10" stroke-width="11.726" transform="matrix(.06 0 0 -.06 0 551.63)"/></g><g clip-path="url(#e)"><path d="m5.859375 8517.466146h9909.570312" fill="none" stroke="#000" stroke-linecap="round" stroke-miterlimit="10" stroke-width="11.726" transform="matrix(.06 0 0 -.06 0 551.63)"/></g><path d="m4523.697917 7604.25h327.799479" fill="none" stroke="#000" stroke-linecap="round" stroke-miterlimit="10" stroke-width="29.9909" transform="matrix(.06 0 0 -.06 0 551.63)"/><path d="m5637.109375 7786.867187v730.598959" fill="none" stroke="#000" stroke-miterlimit="10" stroke-width="22.2648" transform="matrix(.06 0 0 -.06 0 551.63)"/><g clip-path="url(#f)"><path d="m9910.15625 7786.867187v730.598959" fill="none" stroke="#000" stroke-miterlimit="10" stroke-width="22.2648" transform="matrix(.06 0 0 -.06 0 551.63)"/></g><path d="m8045.442708 8008.807292h8.59375v596.679687h-8.59375zm0 0" fill="none" stroke="#000" stroke-linejoin="round" stroke-miterlimit="10" stroke-width="6.6484" transform="matrix(.06 0 0 -.06 0 551.63)"/><path d="m482.726562 71.105469h.511719v-35.804688h-.511719zm0 0"/><use x="466.505933" xlink:href="#y" y="122.772142"/><use x="480.112628" xlink:href="#z" y="122.772142"/><use x="469.130708" xlink:href="#ab" y="73.456944"/><path d="m7020.377604 8008.807292h8.59375v596.679687h-8.59375zm0 0" fill="none" stroke="#000" stroke-linejoin="round" stroke-miterlimit="10" stroke-width="6.6484" transform="matrix(.06 0 0 -.06 0 551.63)"/><path d="m421.222656 71.105469h.515625v-35.804688h-.515625zm0 0"/><use x="400.495801" xlink:href="#A" y="122.772142"/><use x="415.462326" xlink:href="#B" y="122.772142"/><use x="407.626905" xlink:href="#ab" y="73.456944"/><path d="m5995.3125 7917.466146h8.59375v596.679687h-8.59375zm0 0" fill="none" stroke="#000" stroke-linejoin="round" stroke-miterlimit="10" stroke-width="6.6484" transform="matrix(.06 0 0 -.06 0 551.63)"/><path d="m359.71875 76.582031h.515625v-35.800781h-.515625zm0 0"/><path d="m2118.619792 7271.046875h111.132812v5.859375h-111.132812zm0 0" fill="none" stroke="#000" stroke-linejoin="round" stroke-miterlimit="10" stroke-width="9.36986" transform="matrix(.06 0 0 -.06 0 551.63)"/><path d="m127.117188 115.367188h6.667968v-.351563h-6.667968zm0 0"/><path d="m8295.833333 7271.046875h111.197917v5.859375h-111.197917zm0 0" fill="none" stroke="#000" stroke-linejoin="round" stroke-miterlimit="10" stroke-width="9.36986" transform="matrix(.06 0 0 -.06 0 551.63)"/><path d="m497.75 115.367188h6.667969v-.351563h-6.667969zm0 0"/><path d="m9070.507812 8100.083333h8.528646v596.679688h-8.528646zm0 0" fill="none" stroke="#000" stroke-linejoin="round" stroke-miterlimit="10" stroke-width="6.6484" transform="matrix(.06 0 0 -.06 0 551.63)"/><path d="m544.230469 65.625h.511719v-35.800781h-.511719zm0 0"/><use x="516.104032" xlink:href="#C" y="122.772142"/><use x="522.056941" xlink:href="#D" y="122.772142"/><use x="537.023731" xlink:href="#E" y="122.772142"/><use x="551.990285" xlink:href="#F" y="122.772142"/><use x="537.789576" xlink:href="#ac" y="26.72815"/><use x="530.634561" xlink:href="#ab" y="67.977533"/><use x="330.829162" xlink:href="#G" y="122.772142"/><use x="345.795687" xlink:href="#H" y="122.772142"/><use x="360.762447" xlink:href="#I" y="122.772142"/><path d="m1633.658854 7734.783854h8.59375v596.679688h-8.59375zm0 0" fill="none" stroke="#000" stroke-linejoin="round" stroke-miterlimit="10" stroke-width="6.6484" transform="matrix(.06 0 0 -.06 0 551.63)"/><path d="m98.019531 87.542969h.515625v-35.800781h-.515625zm0 0"/><use x="30.447261" xlink:href="#af" y="122.772142"/><use x="43.884008" xlink:href="#ag" y="122.772142"/><use x="61.476223" xlink:href="#J" y="122.772142"/><use x="79.504875" xlink:href="#K" y="122.772142"/><use x="88.518496" xlink:href="#z" y="122.772142"/><use x="94.471406" xlink:href="#B" y="122.772142"/><use x="108.078086" xlink:href="#L" y="122.772142"/><use x="48.259797" xlink:href="#ad" y="62.498022"/><use x="8.767018" xlink:href="#ae" y="73.456944"/><use x="84.424369" xlink:href="#ab" y="89.895377"/><use x="346.124892" xlink:href="#ab" y="78.936455"/><path d="m4794.921875 7643.507812h8.59375v596.679688h-8.59375zm0 0" fill="none" stroke="#000" stroke-linejoin="round" stroke-miterlimit="10" stroke-width="6.6484" transform="matrix(.06 0 0 -.06 0 551.63)"/><path d="m287.695312 93.019531h.515626v-35.800781h-.515626zm0 0"/><use x="253.023506" xlink:href="#y" y="122.772142"/><use x="265.949575" xlink:href="#H" y="122.772142"/><use x="280.9161" xlink:href="#E" y="122.772142"/><use x="295.882626" xlink:href="#M" y="122.772142"/><use x="274.100648" xlink:href="#ab" y="95.374787"/><path d="m3769.856771 7734.783854h8.59375v596.679688h-8.59375zm0 0" fill="none" stroke="#000" stroke-linejoin="round" stroke-miterlimit="10" stroke-width="6.6484" transform="matrix(.06 0 0 -.06 0 551.63)"/><path d="m226.191406 87.542969h.515625v-35.800781h-.515625zm0 0"/><use x="209.97342" xlink:href="#N" y="122.772142"/><use x="223.5801" xlink:href="#z" y="122.772142"/><use x="153.834208" xlink:href="#ab" y="78.936455"/><use x="139.218278" xlink:href="#O" y="122.772142"/><use x="146.702127" xlink:href="#P" y="122.772142"/><use x="161.668653" xlink:href="#B" y="122.772142"/><use x="175.275333" xlink:href="#F" y="122.772142"/><path d="m2790.494792 7917.466146h8.59375v596.679687h-8.59375zm0 0" fill="none" stroke="#000" stroke-linejoin="round" stroke-miterlimit="10" stroke-width="6.6484" transform="matrix(.06 0 0 -.06 0 551.63)"/><path d="m167.429688 76.582031h.515624v-35.800781h-.515624zm0 0"/><use x="212.596425" xlink:href="#ab" y="89.896077"/><g clip-path="url(#g)"><path d="m5.859375 5595.070312h9909.570312" style="fill:none;stroke-width:11.726;stroke-linecap:round;stroke-linejoin:round;stroke:#000;stroke-miterlimit:10" transform="matrix(.06 0 0 -.06 0 551.63)"/></g><g clip-path="url(#h)"><path d="m5.859375 5777.752604h9909.570312" style="fill:none;stroke-width:11.726;stroke-linecap:round;stroke-linejoin:round;stroke:#000;stroke-miterlimit:10" transform="matrix(.06 0 0 -.06 0 551.63)"/></g><g clip-path="url(#i)"><path d="m5.859375 5960.369792h9909.570312" style="fill:none;stroke-width:11.726;stroke-linecap:round;stroke-linejoin:round;stroke:#000;stroke-miterlimit:10" transform="matrix(.06 0 0 -.06 0 551.63)"/></g><g clip-path="url(#j)"><path d="m5.859375 6143.052083h9909.570312" style="fill:none;stroke-width:11.726;stroke-linecap:round;stroke-linejoin:round;stroke:#000;stroke-miterlimit:10" transform="matrix(.06 0 0 -.06 0 551.63)"/></g><g clip-path="url(#k)"><path d="m5.859375 6325.669271h9909.570312" style="fill:none;stroke-width:11.726;stroke-linecap:round;stroke-linejoin:round;stroke:#000;stroke-miterlimit:10" transform="matrix(.06 0 0 -.06 0 551.63)"/></g><path d="m5495.052083 5595.070312v730.598959" fill="none" stroke="#000" stroke-linejoin="round" stroke-miterlimit="10" stroke-width="22.2648" transform="matrix(.06 0 0 -.06 0 551.63)"/><g clip-path="url(#l)"><path d="m9910.15625 5595.070312v730.598959" fill="none" stroke="#000" stroke-linejoin="round" stroke-miterlimit="10" stroke-width="22.2648" transform="matrix(.06 0 0 -.06 0 551.63)"/></g><path d="m7918.489583 5817.010417h8.59375v596.679687h-8.59375zm0 0" fill="none" stroke="#000" stroke-linejoin="round" stroke-miterlimit="10" stroke-width="6.6484" transform="matrix(.06 0 0 -.06 0 551.63)"/><path d="m475.109375 202.609375h.515625v-35.800781h-.515625zm0 0"/><use x="453.703907" xlink:href="#G" y="252.388402"/><use x="468.670667" xlink:href="#Q" y="252.388402"/><use x="461.515643" xlink:href="#ab" y="204.964607"/><path d="m6895.768229 5908.351562h8.528646v596.679688h-8.528646zm0 0" fill="none" stroke="#000" stroke-linejoin="round" stroke-miterlimit="10" stroke-width="6.6484" transform="matrix(.06 0 0 -.06 0 551.63)"/><path d="m413.746094 197.128906h.511718v-35.800781h-.511718zm0 0"/><use x="384.85477" xlink:href="#R" y="252.388402"/><use x="399.82153" xlink:href="#Q" y="252.388402"/><use x="414.788055" xlink:href="#G" y="252.388402"/><use x="400.1503" xlink:href="#ab" y="199.485196"/><path d="m5643.229167 5354.901042h8.59375v566.210937h-8.59375zm0 0" fill="none" stroke="#000" stroke-linejoin="round" stroke-miterlimit="10" stroke-width="6.6484" transform="matrix(.06 0 0 -.06 0 551.63)"/><path d="m338.59375 230.335938h.515625v-33.972657h-.515625zm0 0"/><path d="m2016.861979 5110.760417h111.197917v5.859375h-111.197917zm0 0" fill="none" stroke="#000" stroke-linejoin="round" stroke-miterlimit="10" stroke-width="9.36986" transform="matrix(.06 0 0 -.06 0 551.63)"/><path d="m121.011719 244.984375h6.671875v-.351563h-6.671875zm0 0"/><path d="m4032.03125 5110.760417h111.197917v5.859375h-111.197917zm0 0" fill="none" stroke="#000" stroke-linejoin="round" stroke-miterlimit="10" stroke-width="9.36986" transform="matrix(.06 0 0 -.06 0 551.63)"/><path d="m241.921875 244.984375h6.671875v-.351563h-6.671875zm0 0"/><path d="m5070.377604 5110.760417h111.197917v5.859375h-111.197917zm0 0" fill="none" stroke="#000" stroke-linejoin="round" stroke-miterlimit="10" stroke-width="9.36986" transform="matrix(.06 0 0 -.06 0 551.63)"/><path d="m304.222656 244.984375h6.671875v-.351563h-6.671875zm0 0"/><path d="m6212.5 5110.760417h111.197917v5.859375h-111.197917zm0 0" fill="none" stroke="#000" stroke-linejoin="round" stroke-miterlimit="10" stroke-width="9.36986" transform="matrix(.06 0 0 -.06 0 551.63)"/><path d="m372.75 244.984375h6.671875v-.351563h-6.671875zm0 0"/><path d="m9059.700521 5725.669271h8.59375v596.679687h-8.59375zm0 0" fill="none" stroke="#000" stroke-linejoin="round" stroke-miterlimit="10" stroke-width="6.6484" transform="matrix(.06 0 0 -.06 0 551.63)"/><path d="m543.582031 208.089844h.515625v-35.800782h-.515625zm0 0"/><use x="501.173002" xlink:href="#S" y="252.388402"/><use x="516.139557" xlink:href="#H" y="252.388402"/><use x="531.106112" xlink:href="#E" y="252.388402"/><use x="546.072901" xlink:href="#M" y="252.388402"/><use x="559.679332" xlink:href="#T" y="252.388402"/><use x="565.632241" xlink:href="#U" y="252.388402"/><use x="537.144474" xlink:href="#ac" y="168.842934"/><use x="529.98946" xlink:href="#ab" y="210.444118"/><use x="8.767418" xlink:href="#ae" y="204.964657"/><use x="323.779048" xlink:href="#B" y="252.388452"/><use x="337.385742" xlink:href="#A" y="252.388452"/><use x="352.352502" xlink:href="#E" y="252.388452"/><path d="m1633.658854 5908.351562h8.59375v596.679688h-8.59375zm0 0" fill="none" stroke="#000" stroke-linejoin="round" stroke-miterlimit="10" stroke-width="6.6484" transform="matrix(.06 0 0 -.06 0 551.63)"/><path d="m98.019531 197.128906h.515625v-35.800781h-.515625zm0 0"/><use x="69.80944" xlink:href="#V" y="252.388402"/><use x="92.429742" xlink:href="#z" y="252.388402"/><use x="98.382651" xlink:href="#G" y="252.388402"/><use x="84.424369" xlink:href="#ab" y="199.485196"/><use x="48.259797" xlink:href="#ad" y="194.005735"/><path d="m3679.231771 5908.351562h8.59375v596.679688h-8.59375zm0 0" fill="none" stroke="#000" stroke-linejoin="round" stroke-miterlimit="10" stroke-width="6.6484" transform="matrix(.06 0 0 -.06 0 551.63)"/><path d="m220.753906 197.128906h.511719v-35.800781h-.511719zm0 0"/><use x="338.393677" xlink:href="#ab" y="194.005285"/><path d="m4494.53125 5415.773438h8.59375v596.679687h-8.59375zm0 0" fill="none" stroke="#000" stroke-linejoin="round" stroke-miterlimit="10" stroke-width="6.6484" transform="matrix(.06 0 0 -.06 0 551.63)"/><path d="m269.671875 226.683594h.515625v-35.800782h-.515625zm0 0"/><use x="261.917524" xlink:href="#O" y="252.388402"/><use x="269.060605" xlink:href="#A" y="252.388402"/><use x="283.857442" xlink:href="#O" y="252.388402"/><use x="269.473789" xlink:href="#ab" y="188.526274"/><use x="200.02715" xlink:href="#B" y="252.388402"/><use x="213.633596" xlink:href="#W" y="252.388402"/><use x="145.791242" xlink:href="#ab" y="199.485196"/><use x="135.343021" xlink:href="#N" y="252.388402"/><use x="148.269073" xlink:href="#Q" y="252.388402"/><use x="163.065911" xlink:href="#O" y="252.388402"/><use x="207.157964" xlink:href="#ab" y="199.485196"/><path d="m2656.445312 5908.351562h8.59375v596.679688h-8.59375zm0 0" fill="none" stroke="#000" stroke-linejoin="round" stroke-miterlimit="10" stroke-width="6.6484" transform="matrix(.06 0 0 -.06 0 551.63)"/><path d="m159.386719 197.128906h.515625v-35.800781h-.515625zm0 0"/><g clip-path="url(#m)"><path d="m5.859375 3403.338542h9909.570312" style="fill:none;stroke-width:11.726;stroke-linecap:round;stroke-linejoin:round;stroke:#000;stroke-miterlimit:10" transform="matrix(.06 0 0 -.06 0 551.63)"/></g><g clip-path="url(#n)"><path d="m5.859375 3585.955729h9909.570312" style="fill:none;stroke-width:11.726;stroke-linecap:round;stroke-linejoin:round;stroke:#000;stroke-miterlimit:10" transform="matrix(.06 0 0 -.06 0 551.63)"/></g><g clip-path="url(#o)"><path d="m5.859375 3768.638021h9909.570312" style="fill:none;stroke-width:11.726;stroke-linecap:round;stroke-linejoin:round;stroke:#000;stroke-miterlimit:10" transform="matrix(.06 0 0 -.06 0 551.63)"/></g><g clip-path="url(#p)"><path d="m5.859375 3951.255208h9909.570312" style="fill:none;stroke-width:11.726;stroke-linecap:round;stroke-linejoin:round;stroke:#000;stroke-miterlimit:10" transform="matrix(.06 0 0 -.06 0 551.63)"/></g><g clip-path="url(#q)"><path d="m5.859375 4133.9375h9909.570312" style="fill:none;stroke-width:11.726;stroke-linecap:round;stroke-linejoin:round;stroke:#000;stroke-miterlimit:10" transform="matrix(.06 0 0 -.06 0 551.63)"/></g><path d="m5589.322917 3403.338542v730.598958" fill="none" stroke="#000" stroke-linejoin="round" stroke-miterlimit="10" stroke-width="22.2648" transform="matrix(.06 0 0 -.06 0 551.63)"/><g clip-path="url(#r)"><path d="m9910.15625 3403.338542v730.598958" fill="none" stroke="#000" stroke-linejoin="round" stroke-miterlimit="10" stroke-width="22.2648" transform="matrix(.06 0 0 -.06 0 551.63)"/></g><path d="m8021.744792 3625.213542h8.59375v596.679687h-8.59375zm0 0" fill="none" stroke="#000" stroke-linejoin="round" stroke-miterlimit="10" stroke-width="6.6484" transform="matrix(.06 0 0 -.06 0 551.63)"/><path d="m481.304688 334.117188h.515624v-35.800782h-.515624zm0 0"/><use x="463.809928" xlink:href="#O" y="385.786668"/><use x="470.953008" xlink:href="#Q" y="385.786668"/><use x="467.708995" xlink:href="#ab" y="336.47147"/><path d="m6984.830729 3533.872396h8.59375v596.744791h-8.59375zm0 0" fill="none" stroke="#000" stroke-linejoin="round" stroke-miterlimit="10" stroke-width="6.6484" transform="matrix(.06 0 0 -.06 0 551.63)"/><path d="m419.089844 339.597656h.515625v-35.800781h-.515625zm0 0"/><use x="390.880782" xlink:href="#B" y="385.786668"/><use x="404.487242" xlink:href="#D" y="385.786668"/><use x="419.454002" xlink:href="#E" y="385.786668"/><use x="405.495511" xlink:href="#ab" y="341.950981"/><path d="m5947.981771 3625.213542h8.528646v596.679687h-8.528646zm0 0" fill="none" stroke="#000" stroke-linejoin="round" stroke-miterlimit="10" stroke-width="6.6484" transform="matrix(.06 0 0 -.06 0 551.63)"/><path d="m356.875 334.117188h.515625v-35.800782h-.515625zm0 0"/><path d="m1838.932292 2887.453125h111.197916v5.859375h-111.197916zm0 0" fill="none" stroke="#000" stroke-linejoin="round" stroke-miterlimit="10" stroke-width="9.36986" transform="matrix(.06 0 0 -.06 0 551.63)"/><path d="m110.335938 378.382812h6.671874v-.351562h-6.671874zm0 0"/><path d="m4052.213542 2887.453125h111.197916v5.859375h-111.197916zm0 0" fill="none" stroke="#000" stroke-linejoin="round" stroke-miterlimit="10" stroke-width="9.36986" transform="matrix(.06 0 0 -.06 0 551.63)"/><path d="m243.132812 378.382812h6.667969v-.351562h-6.667969zm0 0"/><path d="m5082.486979 2887.453125h111.132813v5.859375h-111.132813zm0 0" fill="none" stroke="#000" stroke-linejoin="round" stroke-miterlimit="10" stroke-width="9.36986" transform="matrix(.06 0 0 -.06 0 551.63)"/><path d="m304.949219 378.382812h6.667969v-.351562h-6.667969zm0 0"/><path d="m6303.450521 2887.453125h111.197916v5.859375h-111.197916zm0 0" fill="none" stroke="#000" stroke-linejoin="round" stroke-miterlimit="10" stroke-width="9.36986" transform="matrix(.06 0 0 -.06 0 551.63)"/><path d="m378.207031 378.382812h6.671875v-.351562h-6.671875zm0 0"/><path d="m9058.658854 3716.554688h8.59375v596.679687h-8.59375zm0 0" fill="none" stroke="#000" stroke-linejoin="round" stroke-miterlimit="10" stroke-width="6.6484" transform="matrix(.06 0 0 -.06 0 551.63)"/><path d="m543.519531 328.636719h.515625v-35.800781h-.515625zm0 0"/><use x="506.125012" xlink:href="#y" y="385.786668"/><use x="519.051051" xlink:href="#H" y="385.786668"/><use x="534.017606" xlink:href="#E" y="385.786668"/><use x="548.984161" xlink:href="#M" y="385.786668"/><use x="560.549179" xlink:href="#F" y="385.786668"/><use x="537.079474" xlink:href="#ac" y="289.742676"/><use x="529.92446" xlink:href="#ab" y="330.992059"/><use x="8.767418" xlink:href="#ae" y="336.47152"/><use x="328.667057" xlink:href="#E" y="385.786718"/><use x="343.633583" xlink:href="#X" y="385.786718"/><use x="358.600108" xlink:href="#B" y="385.786718"/><path d="m1633.658854 3716.554688h8.59375v596.679687h-8.59375zm0 0" fill="none" stroke="#000" stroke-linejoin="round" stroke-miterlimit="10" stroke-width="6.6484" transform="matrix(.06 0 0 -.06 0 551.63)"/><path d="m98.019531 328.636719h.515625v-35.800781h-.515625zm0 0"/><use x="87.838076" xlink:href="#Y" y="385.786668"/><use x="84.424399" xlink:href="#ab" y="330.992059"/><use x="48.259827" xlink:href="#ad" y="325.512598"/><path d="m3486.979167 3163.104167h8.59375v566.210937h-8.59375zm0 0" fill="none" stroke="#000" stroke-linejoin="round" stroke-miterlimit="10" stroke-width="6.6484" transform="matrix(.06 0 0 -.06 0 551.63)"/><path d="m209.21875 361.84375h.515625v-33.972656h-.515625zm0 0"/><use x="343.281687" xlink:href="#ab" y="336.47157"/><path d="m4731.315104 3625.213542h8.59375v596.679687h-8.59375zm0 0" fill="none" stroke="#000" stroke-linejoin="round" stroke-miterlimit="10" stroke-width="6.6484" transform="matrix(.06 0 0 -.06 0 551.63)"/><path d="m283.878906 334.117188h.515625v-35.800782h-.515625zm0 0"/><use x="266.979534" xlink:href="#C" y="385.786668"/><use x="272.932443" xlink:href="#D" y="385.786668"/><use x="270.284701" xlink:href="#ab" y="336.47147"/><use x="206.395373" xlink:href="#y" y="385.786668"/><use x="220.001819" xlink:href="#z" y="385.786668"/><use x="146.639453" xlink:href="#ab" y="330.992059"/><use x="132.023524" xlink:href="#E" y="385.786668"/><use x="146.990284" xlink:href="#H" y="385.786668"/><use x="161.956809" xlink:href="#L" y="385.786668"/><use x="209.019878" xlink:href="#ab" y="325.512548"/><path d="m2670.572917 3716.554688h8.59375v596.679687h-8.59375zm0 0" fill="none" stroke="#000" stroke-linejoin="round" stroke-miterlimit="10" stroke-width="6.6484" transform="matrix(.06 0 0 -.06 0 551.63)"/><path d="m160.234375 328.636719h.515625v-35.800781h-.515625zm0 0"/><g clip-path="url(#s)"><path d="m5.859375 1211.541667h9909.570312" style="fill:none;stroke-width:11.726;stroke-linecap:round;stroke-linejoin:round;stroke:#000;stroke-miterlimit:10" transform="matrix(.06 0 0 -.06 0 551.63)"/></g><g clip-path="url(#t)"><path d="m5.859375 1394.158854h9909.570312" style="fill:none;stroke-width:11.726;stroke-linecap:round;stroke-linejoin:round;stroke:#000;stroke-miterlimit:10" transform="matrix(.06 0 0 -.06 0 551.63)"/></g><g clip-path="url(#u)"><path d="m5.859375 1576.841146h9909.570312" style="fill:none;stroke-width:11.726;stroke-linecap:round;stroke-linejoin:round;stroke:#000;stroke-miterlimit:10" transform="matrix(.06 0 0 -.06 0 551.63)"/></g><g clip-path="url(#v)"><path d="m5.859375 1759.458333h9909.570312" style="fill:none;stroke-width:11.726;stroke-linecap:round;stroke-linejoin:round;stroke:#000;stroke-miterlimit:10" transform="matrix(.06 0 0 -.06 0 551.63)"/></g><g clip-path="url(#w)"><path d="m5.859375 1942.140625h9909.570312" style="fill:none;stroke-width:11.726;stroke-linecap:round;stroke-linejoin:round;stroke:#000;stroke-miterlimit:10" transform="matrix(.06 0 0 -.06 0 551.63)"/></g><path d="m5271.809896 1211.541667v730.598958" fill="none" stroke="#000" stroke-linejoin="round" stroke-miterlimit="10" stroke-width="22.2648" transform="matrix(.06 0 0 -.06 0 551.63)"/><g clip-path="url(#x)"><path d="m9886.132812 1211.541667v730.598958" fill="none" stroke="#000" stroke-linejoin="round" stroke-miterlimit="10" stroke-width="70.3014" transform="matrix(.06 0 0 -.06 0 551.63)"/></g><path d="m9804.6875 1211.541667v730.598958" fill="none" stroke="#000" stroke-linejoin="round" stroke-miterlimit="10" stroke-width="22.2648" transform="matrix(.06 0 0 -.06 0 551.63)"/><path d="m7874.739583 1250.799479h8.59375v596.679688h-8.59375zm0 0" fill="none" stroke="#000" stroke-linejoin="round" stroke-miterlimit="10" stroke-width="6.6484" transform="matrix(.06 0 0 -.06 0 551.63)"/><path d="m472.484375 476.582031h.515625v-35.800781h-.515625zm0 0"/><use x="451.077902" xlink:href="#G" y="517.403632"/><use x="466.044662" xlink:href="#Q" y="517.403632"/><use x="458.889398" xlink:href="#ab" y="478.937655"/><path d="m6845.507812 1342.140625h8.59375v596.679687h-8.59375zm0 0" fill="none" stroke="#000" stroke-linejoin="round" stroke-miterlimit="10" stroke-width="6.6484" transform="matrix(.06 0 0 -.06 0 551.63)"/><path d="m410.730469 471.101562h.515625v-35.800781h-.515625zm0 0"/><use x="375.03675" xlink:href="#G" y="517.403632"/><use x="390.003276" xlink:href="#Z" y="517.403632"/><use x="404.970035" xlink:href="#G" y="517.403632"/><use x="419.936561" xlink:href="#N" y="517.403632"/><use x="397.135294" xlink:href="#ab" y="473.458244"/><path d="m5627.734375 1433.416667h8.59375v596.679687h-8.59375zm0 0" fill="none" stroke="#000" stroke-linejoin="round" stroke-miterlimit="10" stroke-width="6.6484" transform="matrix(.06 0 0 -.06 0 551.63)"/><path d="m337.664062 465.625h.515626v-35.800781h-.515626zm0 0"/><path d="m2003.580729 693.833333h111.197917v5.859375h-111.197917zm0 0" fill="none" stroke="#000" stroke-linejoin="round" stroke-miterlimit="10" stroke-width="9.36986" transform="matrix(.06 0 0 -.06 0 551.63)"/><path d="m120.214844 510h6.671875v-.351562h-6.671875zm0 0"/><path d="m2892.773437 693.833333h111.197917v5.859375h-111.197917zm0 0" fill="none" stroke="#000" stroke-linejoin="round" stroke-miterlimit="10" stroke-width="9.36986" transform="matrix(.06 0 0 -.06 0 551.63)"/><path d="m173.566406 510h6.671875v-.351562h-6.671875zm0 0"/><path d="m3911.523437 693.833333h111.132813v5.859375h-111.132813zm0 0" fill="none" stroke="#000" stroke-linejoin="round" stroke-miterlimit="10" stroke-width="9.36986" transform="matrix(.06 0 0 -.06 0 551.63)"/><path d="m234.691406 510h6.667969v-.351562h-6.667969zm0 0"/><path d="m6048.893229 693.833333h111.197917v5.859375h-111.197917zm0 0" fill="none" stroke="#000" stroke-linejoin="round" stroke-miterlimit="10" stroke-width="9.36986" transform="matrix(.06 0 0 -.06 0 551.63)"/><path d="m362.933594 510h6.671875v-.351562h-6.671875zm0 0"/><path d="m9015.950521 1159.458333h8.59375v596.679688h-8.59375zm0 0" fill="none" stroke="#000" stroke-linejoin="round" stroke-miterlimit="10" stroke-width="6.6484" transform="matrix(.06 0 0 -.06 0 551.63)"/><path d="m540.957031 482.0625h.515625v-35.800781h-.515625zm0 0"/><use x="498.546997" xlink:href="#S" y="517.403632"/><use x="513.513786" xlink:href="#H" y="517.403632"/><use x="528.480341" xlink:href="#E" y="517.403632"/><use x="543.446896" xlink:href="#M" y="517.403632"/><use x="557.053561" xlink:href="#T" y="517.403632"/><use x="563.006471" xlink:href="#U" y="517.403632"/><use x="534.518669" xlink:href="#ac" y="431.85706"/><use x="527.363655" xlink:href="#ab" y="484.417166"/><use x="48.259697" xlink:href="#ad" y="457.019811"/><use x="304.94821" xlink:href="#aa" y="517.403632"/><use x="327.568526" xlink:href="#Q" y="517.403632"/><use x="342.535286" xlink:href="#G" y="517.403632"/><path d="m1633.658854 1342.140625h8.59375v596.679687h-8.59375zm0 0" fill="none" stroke="#000" stroke-linejoin="round" stroke-miterlimit="10" stroke-width="6.6484" transform="matrix(.06 0 0 -.06 0 551.63)"/><path d="m98.019531 471.101562h.515625v-35.800781h-.515625zm0 0"/><use x="70.575341" xlink:href="#J" y="517.403632"/><use x="88.603993" xlink:href="#D" y="517.403632"/><use x="103.570526" xlink:href="#K" y="517.403632"/><use x="84.424369" xlink:href="#ab" y="473.458244"/><use x="8.767018" xlink:href="#ae" y="467.978783"/><path d="m3563.736979 1524.757812h8.59375v596.679688h-8.59375zm0 0" fill="none" stroke="#000" stroke-linejoin="round" stroke-miterlimit="10" stroke-width="6.6484" transform="matrix(.06 0 0 -.06 0 551.63)"/><path d="m213.824219 460.144531h.515625v-35.800781h-.515625zm0 0"/><use x="324.069648" xlink:href="#ab" y="467.978833"/><path d="m4483.072917 1159.458333h8.59375v596.679688h-8.59375zm0 0" fill="none" stroke="#000" stroke-linejoin="round" stroke-miterlimit="10" stroke-width="6.6484" transform="matrix(.06 0 0 -.06 0 551.63)"/><path d="m268.984375 482.0625h.515625v-35.800781h-.515625zm0 0"/><use x="250.639501" xlink:href="#K" y="517.403632"/><use x="259.483201" xlink:href="#H" y="517.403632"/><use x="255.390061" xlink:href="#ab" y="484.417166"/><use x="189.355029" xlink:href="#L" y="517.403632"/><use x="202.961475" xlink:href="#H" y="517.403632"/><use x="217.928234" xlink:href="#O" y="517.403632"/><use x="142.326935" xlink:href="#ab" y="467.978733"/><use x="134.514259" xlink:href="#S" y="517.403632"/><use x="149.481019" xlink:href="#X" y="517.403632"/><path d="m2598.697917 1433.416667h8.59375v596.679687h-8.59375zm0 0" fill="none" stroke="#000" stroke-linejoin="round" stroke-miterlimit="10" stroke-width="6.6484" transform="matrix(.06 0 0 -.06 0 551.63)"/><path d="m155.921875 465.625h.515625v-35.800781h-.515625zm0 0"/><use x="200.2284" xlink:href="#ab" y="462.499322"/></svg>