<svg height="594.59em" viewBox="0 0 595.28 594.59" width="595.28em" xmlns="http://www.w3.org/2000/svg" xmlns:xlink="http://www.w3.org/1999/xlink"><clipPath id="a"><path d="m0 63h595.28125v2h-595.28125zm0 0"/></clipPath><clipPath id="b"><path d="m0 54h595.28125v1h-595.28125zm0 0"/></clipPath><clipPath id="c"><path d="m0 44h595.28125v2h-595.28125zm0 0"/></clipPath><clipPath id="d"><path d="m0 35h595.28125v1h-595.28125zm0 0"/></clipPath><clipPath id="e"><path d="m0 25h595.28125v2h-595.28125zm0 0"/></clipPath><clipPath id="f"><path d="m0 185h595.28125v2h-595.28125zm0 0"/></clipPath><clipPath id="g"><path d="m0 176h595.28125v1h-595.28125zm0 0"/></clipPath><clipPath id="h"><path d="m0 166h595.28125v2h-595.28125zm0 0"/></clipPath><clipPath id="i"><path d="m0 157h595.28125v1h-595.28125zm0 0"/></clipPath><clipPath id="j"><path d="m0 147h595.28125v2h-595.28125zm0 0"/></clipPath><clipPath id="k"><path d="m591 146h4.28125v42h-4.28125zm0 0"/></clipPath><clipPath id="l"><path d="m0 299h595.28125v1h-595.28125zm0 0"/></clipPath><clipPath id="m"><path d="m0 289h595.28125v2h-595.28125zm0 0"/></clipPath><clipPath id="n"><path d="m0 280h595.28125v1h-595.28125zm0 0"/></clipPath><clipPath id="o"><path d="m0 270h595.28125v2h-595.28125zm0 0"/></clipPath><clipPath id="p"><path d="m0 261h595.28125v2h-595.28125zm0 0"/></clipPath><clipPath id="q"><path d="m0 412h595.28125v2h-595.28125zm0 0"/></clipPath><clipPath id="r"><path d="m0 403h595.28125v2h-595.28125zm0 0"/></clipPath><clipPath id="s"><path d="m0 393h595.28125v2h-595.28125zm0 0"/></clipPath><clipPath id="t"><path d="m0 384h595.28125v2h-595.28125zm0 0"/></clipPath><clipPath id="u"><path d="m0 374h595.28125v2h-595.28125zm0 0"/></clipPath><clipPath id="v"><path d="m0 526h595.28125v2h-595.28125zm0 0"/></clipPath><clipPath id="w"><path d="m0 516h595.28125v2h-595.28125zm0 0"/></clipPath><clipPath id="x"><path d="m0 507h595.28125v2h-595.28125zm0 0"/></clipPath><clipPath id="y"><path d="m0 498h595.28125v1h-595.28125zm0 0"/></clipPath><clipPath id="z"><path d="m0 488h595.28125v2h-595.28125zm0 0"/></clipPath><clipPath id="A"><path d="m591 486h4.28125v43h-4.28125zm0 0"/></clipPath><symbol id="B" overflow="visible"><path d="m11.96875-2.53125c0 .375-.125.796875-.390625 1.09375-.78125.953125-2.609375 2.125-4.046875 3.03125s-3.25 2.109375-4.421875 2.453125c-.15625.046875-.34375.078125-.5.078125-.828125 0-1.59375-.640625-1.59375-1.59375 0-.375.125-.796875.390625-1.09375.796875-.953125 2.609375-2.125 4.046875-3.03125s3.25-2.109375 4.421875-2.453125c.15625-.046875.34375-.078125.5-.078125.828125 0 1.59375.640625 1.59375 1.59375zm-1.9375-2.578125c-2.84375 0-5.140625.609375-7.15625 1.96875-1.203125.828125-2 2.125-2.453125 3.515625-.234375.6875-.421875 1.4375-.421875 2.15625 0 1.78125 1.28125 2.578125 2.953125 2.578125 2.84375 0 5.15625-.609375 7.15625-1.96875 1.203125-.828125 2-2.125 2.453125-3.515625.234375-.6875.421875-1.4375.421875-2.15625 0-1.78125-1.28125-2.578125-2.953125-2.578125zm0 0"/></symbol><symbol id="C" overflow="visible"><path d="m8.40625-5.109375c-1.59375 0-3.109375.53125-4.46875 1.359375-1.78125 1.0625-3.9375 2.921875-3.9375 5.609375 0 2.234375 1.96875 3.25 3.96875 3.25 1.59375 0 3.109375-.53125 4.46875-1.359375 1.78125-1.0625 3.90625-2.921875 3.90625-5.609375 0-2.234375-1.9375-3.25-3.9375-3.25zm0 0"/></symbol><symbol id="D" overflow="visible"><path d="m0 0h-.53125v9.46875h.53125zm0 0v9.46875c2.71875 2.828125 6.359375 6.8125 6.359375 10.75 0 2.53125-.5625 5-1.546875 7.34375-.125.5625.34375.953125.796875.953125.265625 0 .484375-.15625.640625-.421875.984375-2.5 1.59375-5.1875 1.59375-7.875 0-7.5-7.84375-12.71875-7.84375-20.21875zm0 0"/></symbol><symbol id="E" overflow="visible"><path d="m5.375 0c.15625 0 .296875-.15625.296875-.296875v-8.859375c0-.15625-.140625-.3125-.296875-.3125h-5.078125c-.140625 0-.296875.15625-.296875.3125v8.859375c0 .140625.15625.296875.296875.296875zm0 0"/></symbol><symbol id="F" overflow="visible"><path d="m.953125-1.671875c.03125-1.25.859375-2.34375 2.03125-2.34375 1.140625 0 1.671875 1.328125 1.671875 2.609375 0 2.234375-1.890625 3.828125-3.640625 5.265625-.0625-.828125-.140625-1.65625-.140625-2.5 0-.140625.03125-.265625.03125-.40625zm-1.90625-15.859375.421875 22.6875c0 .453125.34375.78125.796875.78125.6875 0 .984375-.78125 1.515625-1.203125 2.390625-1.9375 5.796875-3.296875 5.796875-6.40625 0-2.03125-1.515625-3.78125-3.53125-3.78125-1.203125 0-2.34375.421875-3.328125 1.140625l.234375-13.21875c-.3125-.15625-.609375-.265625-.953125-.265625s-.640625.109375-.953125.265625zm0 0"/></symbol><symbol id="G" overflow="visible"><path d="m14.15625-9.84375c-.609375-2.65625-1.328125-5.265625-2.078125-7.875 3.640625-4.125 6.921875-8.359375 6.921875-13.8125 0-4.28125-2.34375-10.421875-4.984375-13.59375-.203125-.15625-.421875-.15625-.609375 0-3.59375 2.609375-5.6875 6.765625-5.6875 11.171875 0 1.96875.046875 3.890625.265625 5.828125.265625 2.453125.90625 4.84375 1.59375 7.234375-4.46875 5.0625-9.5 9.90625-9.5 16.65625 0 7.609375 5.484375 14.078125 12.609375 14.078125 1.171875 0 2.265625-.109375 3.359375-.296875.125 1.203125.1875 2.421875.1875 3.625 0 .6875-.03125 1.328125-.0625 2.015625-.234375 3.75-2.546875 7.1875-6.0625 7.265625-.03125 0-.078125.03125-.109375.03125-1.9375 0-3.609375-1.09375-4.59375-2.640625.421875.1875.875.328125 1.328125.328125 1.96875 0 3.59375-1.625 3.59375-3.59375 0-2.109375-1.546875-3.9375-3.59375-3.9375-2.234375 0-4.234375 1.75-4.234375 3.9375 0 4.09375 3.296875 7.390625 7.375 7.390625 4.46875 0 7.546875-4.015625 7.8125-8.5625.03125-.71875.03125-1.390625.03125-2.125 0-1.359375-.078125-2.71875-.1875-4.078125.984375-.3125 1.921875-.765625 2.765625-1.40625 2.796875-2.078125 4.046875-5 4.046875-7.875 0-5-3.78125-9.796875-9.609375-9.796875-.203125 0-.390625.03125-.578125.03125zm3.21875 17.609375c-.53125-4.703125-1.390625-9.171875-2.34375-13.59375 4.15625.34375 6.78125 3.828125 6.78125 7.296875 0 2.65625-1.828125 5.390625-4.4375 6.296875zm-14.6875-8.9375c0-6.0625 4.09375-10.640625 8.171875-15.21875.609375 2.234375 1.21875 4.46875 1.75 6.734375-3.828125.875-5.984375 4.09375-5.984375 7.421875 0 2.65625 1.359375 5.34375 4.390625 6.96875.109375.03125.234375.078125.34375.078125.421875 0 .75-.390625.75-.796875 0-.1875-.109375-.375-.265625-.53125-2.109375-1.21875-3.09375-3.03125-3.09375-4.703125 0-2.21875 1.734375-4.234375 4.734375-4.578125.984375 4.546875 1.84375 9.046875 2.421875 13.90625-1.03125.140625-2.046875.21875-3.109375.21875-5.15625 0-10.109375-4.359375-10.109375-9.5zm12.875-38.578125c.640625 2 .796875 2.984375.796875 5.1875 0 4.8125-2.546875 8.625-5.640625 12.296875-.6875-2.375-1.25-4.6875-1.25-7.5625 0-4.203125 2.34375-8.03125 6.09375-9.921875zm0 0"/></symbol><symbol id="H" overflow="visible"><path d="m0 0c0 1.21875.953125 2.15625 2.15625 2.15625 1.21875 0 2.15625-.9375 2.15625-2.15625s-.9375-2.15625-2.15625-2.15625c-1.203125 0-2.15625.9375-2.15625 2.15625zm0 0"/></symbol><symbol id="I" overflow="visible"><path d="m-.265625-14.203125.265625 21.78125c0 .328125.296875.640625.640625.640625.046875 0 .046875-.046875.078125-.046875l4.125-.671875-.078125 6.703125c.265625.140625.609375.21875.90625.21875.3125 0 .65625-.078125.921875-.21875l-.265625-21.78125c0-.328125-.3125-.640625-.65625-.640625-.03125 0-.0625.046875-.109375.046875l-4.125.671875.078125-6.703125c-.265625-.140625-.5625-.21875-.875-.21875-.296875 0-.640625.078125-.90625.21875zm5.265625 9.890625-.078125 8.0625-3.640625.5625.125-8.0625zm0 0"/></symbol><symbol id="J" overflow="visible"><path d="m0 0v-9.46875h-.53125v9.46875zm0 0c0-7.6875 10.109375-11.578125 10.109375-19.265625 0-2.359375-.5625-4.65625-1.515625-6.78125-.15625-.265625-.421875-.375-.6875-.375-.453125 0-.90625.375-.78125.9375.9375 1.96875 1.5 4.0625 1.5 6.21875 0 4.234375-4.921875 7.609375-8.625 9.796875zm0 0"/></symbol><symbol id="K" overflow="visible"><path d="m5.375 9.46875c.15625 0 .296875-.15625.296875-.3125v-18.3125c0-.15625-.140625-.3125-.296875-.3125h-5.078125c-.140625 0-.296875.15625-.296875.3125v18.3125c0 .15625.15625.3125.296875.3125zm0 0"/></symbol><symbol id="L" overflow="visible"><path d="m-2.390625-1.78125c0 1.328125 1.0625 2.390625 2.390625 2.390625s2.390625-1.0625 2.390625-2.390625-1.0625-2.390625-2.390625-2.390625-2.390625 1.0625-2.390625 2.390625zm2.390625-11.84375c-5.875 0-12.453125 6.546875-12.453125 13.703125 0 .296875.296875.53125.609375.53125.265625 0 .5625-.1875.640625-.609375.984375-5.640625 5.5625-10.03125 11.203125-10.03125s10.21875 4.390625 11.203125 10.03125c.078125.421875.375.609375.640625.609375.3125 0 .609375-.234375.609375-.53125 0-7.15625-6.546875-13.703125-12.453125-13.703125zm0 0"/></symbol><symbol id="M" overflow="visible"><path d="m11.734375 0-5-8.015625 4.25-4.234375h-2.5l-5.1875 5.1875v-9.984375h-1.9375v17.046875h1.9375v-4.765625l1.890625-1.875 4.140625 6.640625zm0 0"/></symbol><symbol id="N" overflow="visible"><path d="m11.984375-5.5625c0-1.78125-.140625-2.90625-.484375-3.8125-.796875-2.015625-2.671875-3.21875-4.953125-3.21875-3.421875 0-5.609375 2.515625-5.609375 6.546875 0 4.015625 2.125 6.390625 5.5625 6.390625 2.796875 0 4.75-1.578125 5.234375-4.0625h-1.96875c-.53125 1.609375-1.625 2.265625-3.203125 2.265625-2.03125 0-3.546875-1.3125-3.59375-4.109375zm-2.078125-1.734375s0 .09375-.015625.140625h-6.875c.15625-2.171875 1.546875-3.640625 3.5-3.640625 1.921875 0 3.390625 1.59375 3.390625 3.5zm.828125-9.75h-2.640625l-2.25 3.46875h1.40625zm0 0"/></symbol><symbol id="O" overflow="visible"><path d="m11.4375-2.015625v-10.234375h-1.8125v1.78125c-.96875-1.453125-2.171875-2.125-3.734375-2.125-3.109375 0-5.21875 2.609375-5.21875 6.59375 0 3.84375 2.1875 6.34375 5.0625 6.34375 1.53125 0 2.609375-.640625 3.890625-2.1875v.8125c0 3.25-1.328125 4.484375-3.59375 4.484375-1.546875 0-2.734375-.546875-2.96875-2.046875h-1.984375c.203125 2.3125 2 3.6875 4.875 3.6875 3.84375 0 5.484375-1.703125 5.484375-7.109375zm-2-4.03125c0 2.921875-1.25 4.59375-3.3125 4.59375-2.125 0-3.40625-1.703125-3.40625-4.671875 0-2.9375 1.296875-4.671875 3.375-4.671875 2.109375 0 3.34375 1.78125 3.34375 4.75zm0 0"/></symbol><symbol id="P" overflow="visible"><path d="m11.359375-12.25h-2.203125l-3.453125 9.9375-3.265625-9.9375h-2.203125l4.296875 12.25h2.125zm0 0"/></symbol><symbol id="Q" overflow="visible"><path d="m11.984375-5.5625c0-1.78125-.140625-2.90625-.484375-3.8125-.796875-2.015625-2.671875-3.21875-4.953125-3.21875-3.421875 0-5.609375 2.515625-5.609375 6.546875 0 4.015625 2.125 6.390625 5.5625 6.390625 2.796875 0 4.75-1.578125 5.234375-4.0625h-1.96875c-.53125 1.609375-1.625 2.265625-3.203125 2.265625-2.03125 0-3.546875-1.3125-3.59375-4.109375zm-2.078125-1.734375s0 .09375-.015625.140625h-6.875c.15625-2.171875 1.546875-3.640625 3.5-3.640625 1.921875 0 3.390625 1.59375 3.390625 3.5zm0 0"/></symbol><symbol id="R" overflow="visible"><path d="m3.53125 0v-17.046875h-1.9375v17.046875zm0 0"/></symbol><symbol id="S" overflow="visible"><path d="m4.484375.375v-2.8125h-2.453125v2.4375h1.40625v.421875c0 1.609375-.3125 2.078125-1.40625 2.125v.890625c1.640625 0 2.453125-1.046875 2.453125-3.0625zm0 0"/></symbol><symbol id="T" overflow="visible"><path d="m10.734375-3.4375c0-1.828125-1.03125-2.734375-3.46875-3.3125l-1.859375-.453125c-1.59375-.375-2.28125-.890625-2.28125-1.75 0-1.125 1.015625-1.84375 2.609375-1.84375 1.5625 0 2.40625.671875 2.453125 1.96875h2.046875c-.015625-2.421875-1.609375-3.765625-4.4375-3.765625-2.859375 0-4.703125 1.46875-4.703125 3.734375 0 1.921875.984375 2.828125 3.890625 3.53125l1.8125.4375c1.359375.328125 1.90625.734375 1.90625 1.625 0 1.140625-1.15625 1.8125-2.859375 1.8125-1.75 0-2.734375-.421875-2.984375-2.28125h-2.0625c.09375 2.828125 1.6875 4.078125 4.890625 4.078125 3.078125 0 5.046875-1.421875 5.046875-3.78125zm0 0"/></symbol><symbol id="U" overflow="visible"><path d="m12.21875-6.265625c0-3.96875-2-6.328125-5.234375-6.328125-1.671875 0-2.875.625-3.78125 2v-6.453125h-1.9375v17.046875h1.75v-1.75c.9375 1.421875 2.171875 2.09375 3.875 2.09375 3.234375 0 5.328125-2.640625 5.328125-6.609375zm-2.03125.125c0 2.78125-1.4375 4.671875-3.578125 4.671875-2.046875 0-3.40625-1.875-3.40625-4.65625 0-2.875 1.359375-4.75 3.40625-4.65625 2.171875 0 3.578125 1.90625 3.578125 4.640625zm0 0"/></symbol><symbol id="V" overflow="visible"><path d="m11.921875-6.03125c0-4.234375-2.03125-6.5625-5.5625-6.5625-3.4375 0-5.515625 2.359375-5.515625 6.46875s2.0625 6.46875 5.53125 6.46875c3.4375 0 5.546875-2.359375 5.546875-6.375zm-2.03125-.015625c0 2.875-1.359375 4.59375-3.515625 4.59375-2.171875 0-3.5-1.703125-3.5-4.671875 0-2.9375 1.328125-4.671875 3.5-4.671875 2.203125 0 3.515625 1.703125 3.515625 4.75zm-1.359375-11.015625h-2.640625l-2.25 3.5h1.40625zm3.828125 0h-2.640625l-2.234375 3.5h1.390625zm0 0"/></symbol><symbol id="W" overflow="visible"><path d="m12.453125 0v-1.921875h-8.40625v-15.125h-2.171875v17.046875zm0 0"/></symbol><symbol id="X" overflow="visible"><path d="m11.171875-12.25h-2.109375l-3.375 9.53125-3.140625-9.53125h-2.078125l4.140625 12.296875-.75 1.9375c-.328125.875-.734375 1.1875-1.5625 1.1875-.28125 0-.609375-.046875-1.03125-.140625v1.765625c.390625.203125.796875.296875 1.3125.296875 1.375 0 2.5-.765625 3.15625-2.515625zm0 0"/></symbol><symbol id="Y" overflow="visible"><path d="m11.15625-4.203125h-1.96875c-.328125 1.953125-1.328125 2.75-3 2.75-2.140625 0-3.421875-1.65625-3.421875-4.546875 0-3.0625 1.25-4.796875 3.375-4.796875 1.640625 0 2.671875.953125 2.90625 2.65625h1.96875c-.234375-2.984375-2.109375-4.453125-4.84375-4.453125-3.296875 0-5.453125 2.515625-5.453125 6.59375 0 3.9375 2.109375 6.34375 5.421875 6.34375 2.921875 0 4.78125-1.75 5.015625-4.546875zm0 0"/></symbol><symbol id="Z" overflow="visible"><path d="m11.390625 0v-9.25c0-2.046875-1.53125-3.34375-3.890625-3.34375-1.8125 0-2.984375.703125-4.0625 2.40625v-2.0625h-1.796875v12.25h1.9375v-6.75c0-2.5 1.359375-4.140625 3.34375-4.140625 1.546875 0 2.515625.9375 2.515625 2.40625v8.484375zm0 0"/></symbol><symbol id="aa" overflow="visible"><path d="m17.34375-8.25c0-5.5-3.25-9.21875-8.25-9.21875-4.890625 0-8.203125 3.75-8.203125 9.078125s3.3125 8.8125 8.21875 8.8125c5.015625 0 8.234375-3.671875 8.234375-8.671875zm-2.171875-.046875c0 4.109375-2.453125 6.796875-6.0625 6.796875s-6.046875-2.6875-6.046875-6.890625 2.4375-7.15625 6.03125-7.15625c3.6875 0 6.078125 2.953125 6.078125 7.25zm-4.046875-13.5625h-2.640625l-2.25 3.515625h1.40625zm3.828125 0h-2.640625l-2.234375 3.515625h1.40625zm0 0"/></symbol><symbol id="ab" overflow="visible"><path d="m7.5-10.546875v-1.984375c-.328125-.046875-.484375-.0625-.75-.0625-1.25 0-2.21875.75-3.34375 2.5625v-2.21875h-1.765625v12.25h1.9375v-6.359375c0-2.75.90625-4.140625 3.921875-4.1875zm0 0"/></symbol><symbol id="ac" overflow="visible"><path d="m11.921875-6.03125c0-4.234375-2.03125-6.5625-5.5625-6.5625-3.4375 0-5.515625 2.359375-5.515625 6.46875s2.0625 6.46875 5.53125 6.46875c3.4375 0 5.546875-2.359375 5.546875-6.375zm-2.03125-.015625c0 2.875-1.359375 4.59375-3.515625 4.59375-2.171875 0-3.5-1.703125-3.5-4.671875 0-2.9375 1.328125-4.671875 3.5-4.671875 2.203125 0 3.515625 1.703125 3.515625 4.75zm-4.234375-8.078125v-2.375h-2.125v2.375zm3.78125 0v-2.375h-2.125v2.375zm0 0"/></symbol><symbol id="ad" overflow="visible"><path d="m17.765625 0v-9.1875c0-2.203125-1.21875-3.40625-3.5-3.40625-1.640625 0-2.625.484375-3.765625 1.859375-.734375-1.296875-1.71875-1.859375-3.296875-1.859375-1.640625 0-2.71875.609375-3.765625 2.078125v-1.734375h-1.78125v12.25h1.9375v-7.6875c0-1.78125 1.296875-3.203125 2.875-3.203125 1.453125 0 2.28125.890625 2.28125 2.453125v8.4375h1.9375v-7.6875c0-1.78125 1.296875-3.203125 2.890625-3.203125 1.421875 0 2.25.90625 2.25 2.453125v8.4375zm0 0"/></symbol><symbol id="ae" overflow="visible"><path d="m10.6875 0v-1.703125h-7.609375l7.28125-8.8125v-1.734375h-9.140625v1.703125h6.828125l-7.328125 8.796875v1.75zm0 0"/></symbol><symbol id="af" overflow="visible"><path d="m4.234375 0v-12.25h-1.9375v12.25zm2.96875-17.046875h-2.640625l-2.25 3.46875h1.40625zm0 0"/></symbol><symbol id="ag" overflow="visible"><path d="m11.578125 0v-17.046875h-1.953125v6.34375c-.8125-1.234375-2.125-1.890625-3.765625-1.890625-3.171875 0-5.25 2.453125-5.25 6.359375 0 4.125 2.03125 6.578125 5.328125 6.578125 1.6875 0 2.84375-.625 3.90625-2.140625v1.796875zm-1.953125-6.078125c0 2.828125-1.34375 4.609375-3.40625 4.609375-2.15625 0-3.578125-1.796875-3.578125-4.65625 0-2.84375 1.421875-4.65625 3.546875-4.65625 2.109375 0 3.4375 1.875 3.4375 4.703125zm0 0"/></symbol><symbol id="ah" overflow="visible"><path d="m4.234375-9.140625v-7.90625h-1.9375v7.90625l.515625 5.21875h.90625zm0 9.140625v-2.4375h-1.96875v2.4375zm0 0"/></symbol><symbol id="ai" overflow="visible"><path d="m3.578125 0v-12.25h-1.9375v12.25zm.25-14.09375v-2.4375h-2.421875v2.4375zm0 0"/></symbol><symbol id="aj" overflow="visible"><path d="m5.9375 0v-1.640625c-.25.078125-.5625.09375-.9375.09375-.84375 0-1.078125-.234375-1.078125-1.09375v-8.015625h2.015625v-1.59375h-2.015625v-3.359375h-1.9375v3.359375h-1.65625v1.59375h1.65625v8.875c0 1.25.84375 1.9375 2.359375 1.9375.46875 0 .9375-.046875 1.59375-.15625zm0 0"/></symbol><symbol id="ak" overflow="visible"><path d="m11.265625 0v-12.25h-1.9375v6.75c0 2.515625-1.3125 4.140625-3.34375 4.140625-1.546875 0-2.53125-.9375-2.53125-2.40625v-8.484375h-1.9375v9.265625c0 2.03125 1.515625 3.328125 3.90625 3.328125 1.796875 0 2.953125-.625 4.09375-2.234375v1.890625zm0 0"/></symbol><symbol id="al" overflow="visible"><path d="m4.515625 0v-17.046875h-2.171875v17.046875zm0 0"/></symbol><symbol id="am" overflow="visible"><path d="m15.078125-17.046875h-2.3125l-4.71875 14.421875-5.015625-14.421875h-2.328125l6.125 17.046875h2.328125zm0 0"/></symbol><symbol id="an" overflow="visible"><path d="m14.328125 0v-1.921875h-10.046875v-5.84375h9.28125v-1.90625h-9.28125v-5.453125h9.625v-1.921875h-11.796875v17.046875zm-1.28125-21.40625h-3.1875l-2.6875 3.109375h1.6875zm0 0"/></symbol><symbol id="ao" overflow="visible"><path d="m11.921875-6.03125c0-4.234375-2.03125-6.5625-5.5625-6.5625-3.4375 0-5.515625 2.359375-5.515625 6.46875s2.0625 6.46875 5.53125 6.46875c3.4375 0 5.546875-2.359375 5.546875-6.375zm-2.03125-.015625c0 2.875-1.359375 4.59375-3.515625 4.59375-2.171875 0-3.5-1.703125-3.5-4.671875 0-2.9375 1.328125-4.671875 3.5-4.671875 2.203125 0 3.515625 1.703125 3.515625 4.75zm0 0"/></symbol><symbol id="ap" overflow="visible"><path d="m12.5-.046875v-1.46875c-.203125.046875-.296875.046875-.421875.046875-.671875 0-1.046875-.359375-1.046875-.96875v-6.8125c0-2.1875-1.59375-3.34375-4.609375-3.34375-2.96875 0-4.78125 1.140625-4.90625 3.96875h1.96875c.15625-1.5 1.046875-2.171875 2.875-2.171875 1.75 0 2.734375.65625 2.734375 1.828125v.5c0 .828125-.484375 1.171875-2.03125 1.359375-2.765625.359375-3.1875.453125-3.9375.75-1.421875.578125-2.140625 1.6875-2.140625 3.1875 0 2.21875 1.546875 3.515625 4.015625 3.515625 1.5625 0 3.09375-.640625 4.15625-1.796875.21875.9375 1.0625 1.609375 2.015625 1.609375.40625 0 .703125-.046875 1.328125-.203125zm-3.40625-4.1875c0 1.75-1.78125 2.875-3.671875 2.875-1.515625 0-2.40625-.53125-2.40625-1.859375 0-1.296875.859375-1.859375 2.9375-2.15625 2.0625-.28125 2.484375-.375 3.140625-.671875zm0 0"/></symbol><symbol id="aq" overflow="visible"><path d="m6.03125-10.65625v-1.59375h-2.03125v-1.921875c0-.8125.46875-1.234375 1.359375-1.234375.15625 0 .234375 0 .671875.03125v-1.625c-.4375-.09375-.703125-.109375-1.09375-.109375-1.8125 0-2.875 1.03125-2.875 2.78125v2.078125h-1.640625v1.59375h1.640625v10.65625h1.9375v-10.65625zm0 0"/></symbol><symbol id="ar" overflow="visible"><path d="m12.21875-6c0-4.125-2-6.59375-5.25-6.59375-1.65625 0-3 .75-3.90625 2.1875v-1.84375h-1.78125v17.34375h1.9375v-6.5625c1.03125 1.265625 2.1875 1.8125 3.765625 1.8125 3.15625 0 5.234375-2.453125 5.234375-6.34375zm-2.03125-.046875c0 2.78125-1.421875 4.578125-3.546875 4.578125-2.0625 0-3.421875-1.6875-3.421875-4.5625s1.359375-4.75 3.421875-4.75c2.140625 0 3.546875 1.8125 3.546875 4.734375zm0 0"/></symbol><symbol id="as" overflow="visible"><path d="m11.265625 0v-12.25h-1.9375v6.75c0 2.515625-1.3125 4.140625-3.34375 4.140625-1.546875 0-2.53125-.9375-2.53125-2.40625v-8.484375h-1.9375v9.265625c0 2.03125 1.515625 3.328125 3.90625 3.328125 1.796875 0 2.953125-.625 4.09375-2.234375v1.890625zm-.578125-17.046875h-2.640625l-2.25 3.46875h1.40625zm0 0"/></symbol><symbol id="at" overflow="visible"><path d="m12.5-.046875v-1.46875c-.203125.046875-.296875.046875-.421875.046875-.671875 0-1.046875-.359375-1.046875-.96875v-6.8125c0-2.1875-1.59375-3.34375-4.609375-3.34375-2.96875 0-4.78125 1.140625-4.90625 3.96875h1.96875c.15625-1.5 1.046875-2.171875 2.875-2.171875 1.75 0 2.734375.65625 2.734375 1.828125v.5c0 .828125-.484375 1.171875-2.03125 1.359375-2.765625.359375-3.1875.453125-3.9375.75-1.421875.578125-2.140625 1.6875-2.140625 3.1875 0 2.21875 1.546875 3.515625 4.015625 3.515625 1.5625 0 3.09375-.640625 4.15625-1.796875.21875.9375 1.0625 1.609375 2.015625 1.609375.40625 0 .703125-.046875 1.328125-.203125zm-3.40625-4.1875c0 1.75-1.78125 2.875-3.671875 2.875-1.515625 0-2.40625-.53125-2.40625-1.859375 0-1.296875.859375-1.859375 2.9375-2.15625 2.0625-.28125 2.484375-.375 3.140625-.671875zm1.515625-12.8125h-2.640625l-2.234375 3.46875h1.390625zm0 0"/></symbol><symbol id="au" overflow="visible"><path d="m4.46875 0v-2.4375h-2.4375v2.4375zm0-9.8125v-2.4375h-2.4375v2.4375zm0 0"/></symbol><symbol id="av" overflow="visible"><path d="m3.578125 2.546875v-14.796875h-1.9375v14.03125c0 1.15625-.40625 1.671875-1.59375 1.609375l-.46875-.03125v1.671875c.234375.046875.359375.0625.65625.0625 2.203125 0 3.34375-.890625 3.34375-2.546875zm.25-16.640625v-2.4375h-2.421875v2.4375zm0 0"/></symbol><symbol id="aw" overflow="visible"><path d="m7.875 0v-14.765625h-1.9375c-.453125 1.75-1.984375 2.640625-4.515625 2.640625v1.9375h3.53125v10.1875zm0 0"/></symbol><symbol id="ax" overflow="visible"><path d="m4.453125 0v-3.046875h-3.125v3.046875zm0 0"/></symbol><g clip-path="url(#a)"><path d="m5.403646 8842.385417h9910.416666" fill="none" stroke="#000" stroke-linecap="round" stroke-miterlimit="10" stroke-width="10.8684" transform="matrix(.06 0 0 -.06 0 594.59)"/></g><g clip-path="url(#b)"><path d="m5.403646 9000.132812h9910.416666" fill="none" stroke="#000" stroke-linecap="round" stroke-miterlimit="10" stroke-width="10.8684" transform="matrix(.06 0 0 -.06 0 594.59)"/></g><g clip-path="url(#c)"><path d="m5.403646 9157.880208h9910.416666" fill="none" stroke="#000" stroke-linecap="round" stroke-miterlimit="10" stroke-width="10.8684" transform="matrix(.06 0 0 -.06 0 594.59)"/></g><g clip-path="url(#d)"><path d="m5.403646 9315.627604h9910.416666" fill="none" stroke="#000" stroke-linecap="round" stroke-miterlimit="10" stroke-width="10.8684" transform="matrix(.06 0 0 -.06 0 594.59)"/></g><g clip-path="url(#e)"><path d="m5.403646 9473.375h9910.416666" fill="none" stroke="#000" stroke-linecap="round" stroke-miterlimit="10" stroke-width="10.8684" transform="matrix(.06 0 0 -.06 0 594.59)"/></g><path d="m9150.455729 8809.182292h7.486979v503.125h-7.486979zm0 0" style="fill:none;stroke-width:6.64093;stroke-linecap:round;stroke-linejoin:round;stroke:#000;stroke-miterlimit:10" transform="matrix(.06 0 0 -.06 0 594.59)"/><path d="m549.027344 66.039062h.449218v-30.1875h-.449218zm0 0"/><use x="478.103956" xlink:href="#B" y="64.044939"/><use x="472.520945" xlink:href="#M" y="95.280001"/><use x="483.745894" xlink:href="#N" y="95.280001"/><use x="471.670162" xlink:href="#O" y="124.121259"/><use x="484.595967" xlink:href="#N" y="124.121259"/><path d="m8174.023437 8888.023437h7.48698v503.125h-7.48698zm0 0" style="fill:none;stroke-width:6.64093;stroke-linecap:round;stroke-linejoin:round;stroke:#000;stroke-miterlimit:10" transform="matrix(.06 0 0 -.06 0 594.59)"/><path d="m490.441406 61.308594h.445313v-30.1875h-.445313zm0 0"/><use x="536.691073" xlink:href="#B" y="68.776948"/><use x="528.472057" xlink:href="#P" y="95.280001"/><use x="539.697006" xlink:href="#Q" y="95.280001"/><use x="552.62284" xlink:href="#R" y="95.280001"/><use x="525.24002" xlink:href="#P" y="124.121259"/><use x="536.464969" xlink:href="#Q" y="124.121259"/><use x="549.39057" xlink:href="#R" y="124.121259"/><use x="554.663305" xlink:href="#S" y="124.121259"/><path d="m7313.020833 9034.507812h7.486979v514.453125h-7.486979zm0 0" style="fill:none;stroke-width:6.64093;stroke-linecap:round;stroke-linejoin:round;stroke:#000;stroke-miterlimit:10" transform="matrix(.06 0 0 -.06 0 594.59)"/><path d="m438.78125 52.519531h.449219v-30.863281h-.449219zm0 0"/><use x="420.918842" xlink:href="#T" y="124.121059"/><use x="432.654026" xlink:href="#N" y="124.121059"/><use x="420.324466" xlink:href="#U" y="95.279801"/><use x="433.250271" xlink:href="#N" y="95.279801"/><use x="427.070854" xlink:href="#C" y="54.57992"/><path d="m6422.981771 8955.601562h7.486979v514.453125h-7.486979zm0 0" style="fill:none;stroke-width:6.64093;stroke-linecap:round;stroke-linejoin:round;stroke:#000;stroke-miterlimit:10" transform="matrix(.06 0 0 -.06 0 594.59)"/><path d="m385.378906 57.253906h.449219v-30.867187h-.449219zm0 0"/><use x="366.924734" xlink:href="#U" y="124.121059"/><use x="379.850304" xlink:href="#V" y="124.121059"/><use x="367.520047" xlink:href="#N" y="95.279801"/><use x="380.445618" xlink:href="#T" y="95.279801"/><use x="373.670747" xlink:href="#C" y="59.312929"/><use x="337.189774" xlink:href="#D" y="21.654454"/><path d="m8475.260417 7947.984375h95.442708v5.46875h-95.442708zm0 0" style="fill:none;stroke-width:8.69157;stroke-linecap:round;stroke-linejoin:round;stroke:#000;stroke-miterlimit:10" transform="matrix(.06 0 0 -.06 0 594.59)"/><path d="m508.515625 117.710938h5.726563v-.328126h-5.726563zm0 0"/><path d="m3182.421875 8428.713542h95.377604v5.403646h-95.377604zm0 0" style="fill:none;stroke-width:8.69157;stroke-linecap:round;stroke-linejoin:round;stroke:#000;stroke-miterlimit:10" transform="matrix(.06 0 0 -.06 0 594.59)"/><path d="m190.945312 88.867188h5.722657v-.324219h-5.722657zm0 0"/><path d="m3965.559896 7947.984375h95.442708v5.46875h-95.442708zm0 0" style="fill:none;stroke-width:8.69157;stroke-linecap:round;stroke-linejoin:round;stroke:#000;stroke-miterlimit:10" transform="matrix(.06 0 0 -.06 0 594.59)"/><path d="m237.933594 117.710938h5.726562v-.328126h-5.726562zm0 0"/><path d="m5052.929687 8428.713542h95.377605v5.403646h-95.377605zm0 0" style="fill:none;stroke-width:8.69157;stroke-linecap:round;stroke-linejoin:round;stroke:#000;stroke-miterlimit:10" transform="matrix(.06 0 0 -.06 0 594.59)"/><path d="m303.175781 88.867188h5.722657v-.324219h-5.722657zm0 0"/><path d="m5011.848958 7947.984375h95.377604v5.46875h-95.377604zm0 0" style="fill:none;stroke-width:8.69157;stroke-linecap:round;stroke-linejoin:round;stroke:#000;stroke-miterlimit:10" transform="matrix(.06 0 0 -.06 0 594.59)"/><path d="m300.710938 117.710938h5.722656v-.328126h-5.722656zm0 0"/><path d="m6733.072917 7947.984375h95.442708v5.46875h-95.442708zm0 0" style="fill:none;stroke-width:8.69157;stroke-linecap:round;stroke-linejoin:round;stroke:#000;stroke-miterlimit:10" transform="matrix(.06 0 0 -.06 0 594.59)"/><path d="m403.984375 117.710938h5.726563v-.328126h-5.726563zm0 0"/><path d="m7608.072917 8428.713542h95.442708v5.403646h-95.442708zm0 0" style="fill:none;stroke-width:8.69157;stroke-linecap:round;stroke-linejoin:round;stroke:#000;stroke-miterlimit:10" transform="matrix(.06 0 0 -.06 0 594.59)"/><path d="m456.484375 88.867188h5.726563v-.324219h-5.726563zm0 0"/><path d="m7596.028646 7947.984375h95.377604v5.46875h-95.377604zm0 0" style="fill:none;stroke-width:8.69157;stroke-linecap:round;stroke-linejoin:round;stroke:#000;stroke-miterlimit:10" transform="matrix(.06 0 0 -.06 0 594.59)"/><path d="m455.761719 117.710938h5.722656v-.328126h-5.722656zm0 0"/><path d="m8495.117187 8428.713542h95.442709v5.403646h-95.442709zm0 0" style="fill:none;stroke-width:8.69157;stroke-linecap:round;stroke-linejoin:round;stroke:#000;stroke-miterlimit:10" transform="matrix(.06 0 0 -.06 0 594.59)"/><path d="m509.707031 88.867188h5.726563v-.324219h-5.726563zm0 0"/><use x="581.080162" xlink:href="#E" y="35.650882"/><use x="71.255543" xlink:href="#W" y="95.280001"/><use x="84.181355" xlink:href="#N" y="95.280001"/><use x="97.106933" xlink:href="#O" y="95.280001"/><use x="110.032745" xlink:href="#X" y="95.280001"/><use x="136.912118" xlink:href="#Y" y="95.280001"/><use x="148.647067" xlink:href="#T" y="95.280001"/><use x="160.382251" xlink:href="#Q" y="95.280001"/><use x="173.307836" xlink:href="#Z" y="95.280001"/><path d="m5609.049479 9034.507812h7.486979v514.453125h-7.486979zm0 0" style="fill:none;stroke-width:6.64093;stroke-linecap:round;stroke-linejoin:round;stroke:#000;stroke-miterlimit:10" transform="matrix(.06 0 0 -.06 0 594.59)"/><path d="m336.542969 52.519531h.449219v-30.863281h-.449219zm0 0"/><path d="m1503.645833 8687.958333h7.486979v503.125h-7.486979zm0 0" style="fill:none;stroke-width:6.64093;stroke-linecap:round;stroke-linejoin:round;stroke:#000;stroke-miterlimit:10" transform="matrix(.06 0 0 -.06 0 594.59)"/><path d="m90.21875 73.3125h.449219v-30.1875h-.449219zm0 0"/><use x="87.413375" xlink:href="#aa" y="124.121059"/><use x="44.442489" xlink:href="#aw" y="95.279801"/><use x="56.008235" xlink:href="#ax" y="95.279801"/><use x="155.394311" xlink:href="#C" y="45.115901"/><use x="41.679083" xlink:href="#F" y="45.115901"/><use x="50.23308" xlink:href="#F" y="30.919073"/><use x="58.786148" xlink:href="#F" y="49.848211"/><use x="7.571845" xlink:href="#G" y="54.58049"/><use x="90.01901" xlink:href="#B" y="40.383662"/><path d="m2593.229167 8635.419271h7.486979v488.085937h-7.486979zm0 0" style="fill:none;stroke-width:6.64093;stroke-linecap:round;stroke-linejoin:round;stroke:#000;stroke-miterlimit:10" transform="matrix(.06 0 0 -.06 0 594.59)"/><path d="m155.59375 76.464844h.449219v-29.285156h-.449219zm0 0"/><use x="312.216624" xlink:href="#Z" y="124.121059"/><use x="325.142429" xlink:href="#Q" y="124.121059"/><use x="338.068" xlink:href="#M" y="124.121059"/><use x="316.298743" xlink:href="#P" y="95.279801"/><use x="327.523692" xlink:href="#Q" y="95.279801"/><use x="340.449262" xlink:href="#R" y="95.279801"/><use x="324.83065" xlink:href="#C" y="54.57992"/><path d="m4674.609375 9034.507812h7.421875v514.453125h-7.421875zm0 0" style="fill:none;stroke-width:6.64093;stroke-linecap:round;stroke-linejoin:round;stroke:#000;stroke-miterlimit:10" transform="matrix(.06 0 0 -.06 0 594.59)"/><path d="m280.476562 52.519531h.445313v-30.863281h-.445313zm0 0"/><use x="285.446571" xlink:href="#H" y="49.847911"/><use x="254.95951" xlink:href="#ab" y="124.121059"/><use x="262.613524" xlink:href="#ac" y="124.121059"/><use x="275.539095" xlink:href="#ad" y="124.121059"/><use x="254.109664" xlink:href="#T" y="95.279801"/><use x="265.844613" xlink:href="#ae" y="95.279801"/><use x="277.579797" xlink:href="#af" y="95.279801"/><use x="284.042949" xlink:href="#P" y="95.279801"/><use x="268.764538" xlink:href="#C" y="54.57992"/><path d="m3761.71875 9113.348958h7.486979v514.453125h-7.486979zm0 0" style="fill:none;stroke-width:6.64093;stroke-linecap:round;stroke-linejoin:round;stroke:#000;stroke-miterlimit:10" transform="matrix(.06 0 0 -.06 0 594.59)"/><path d="m225.703125 47.789062h.449219v-30.867187h-.449219zm0 0"/><use x="147.967296" xlink:href="#U" y="124.121059"/><use x="160.892881" xlink:href="#af" y="124.121059"/><use x="167.356253" xlink:href="#ab" y="124.121059"/><use x="213.993428" xlink:href="#C" y="49.847911"/><use x="201.378403" xlink:href="#ag" y="95.280001"/><use x="214.303988" xlink:href="#Q" y="95.280001"/><use x="227.229808" xlink:href="#T" y="95.280001"/><use x="213.708627" xlink:href="#ac" y="124.121259"/><g clip-path="url(#f)"><path d="m5.403646 6809.768229h9910.416666" style="fill:none;stroke-width:10.8684;stroke-linecap:round;stroke-linejoin:round;stroke:#000;stroke-miterlimit:10" transform="matrix(.06 0 0 -.06 0 594.59)"/></g><g clip-path="url(#g)"><path d="m5.403646 6967.515625h9910.416666" style="fill:none;stroke-width:10.8684;stroke-linecap:round;stroke-linejoin:round;stroke:#000;stroke-miterlimit:10" transform="matrix(.06 0 0 -.06 0 594.59)"/></g><g clip-path="url(#h)"><path d="m5.403646 7125.263021h9910.416666" style="fill:none;stroke-width:10.8684;stroke-linecap:round;stroke-linejoin:round;stroke:#000;stroke-miterlimit:10" transform="matrix(.06 0 0 -.06 0 594.59)"/></g><g clip-path="url(#i)"><path d="m5.403646 7283.010417h9910.416666" style="fill:none;stroke-width:10.8684;stroke-linecap:round;stroke-linejoin:round;stroke:#000;stroke-miterlimit:10" transform="matrix(.06 0 0 -.06 0 594.59)"/></g><g clip-path="url(#j)"><path d="m5.403646 7440.757812h9910.416666" style="fill:none;stroke-width:10.8684;stroke-linecap:round;stroke-linejoin:round;stroke:#000;stroke-miterlimit:10" transform="matrix(.06 0 0 -.06 0 594.59)"/></g><use x="581.893164" xlink:href="#H" y="162.342136"/><use x="581.893164" xlink:href="#H" y="171.806684"/><g clip-path="url(#k)"><path d="m9888.671875 6809.768229v630.989583" fill="none" stroke="#000" stroke-linejoin="round" stroke-miterlimit="10" stroke-width="65.1789" transform="matrix(.06 0 0 -.06 0 594.59)"/></g><path d="m9813.151042 6809.768229v630.989583" fill="none" stroke="#000" stroke-linejoin="round" stroke-miterlimit="10" stroke-width="20.6484" transform="matrix(.06 0 0 -.06 0 594.59)"/><use x="506.757014" xlink:href="#U" y="218.967249"/><use x="519.682848" xlink:href="#Q" y="218.967249"/><use x="532.608448" xlink:href="#Z" y="218.967249"/><use x="545.534282" xlink:href="#ah" y="218.967249"/><use x="463.875928" xlink:href="#B" y="171.807154"/><use x="457.442915" xlink:href="#Z" y="218.967249"/><use x="470.36872" xlink:href="#N" y="218.967249"/><use x="450.979542" xlink:href="#ag" y="245.467802"/><use x="463.905347" xlink:href="#Q" y="245.467802"/><use x="476.830918" xlink:href="#Z" y="245.467802"/><path d="m7936.848958 7091.994792h7.486979v503.125h-7.486979zm0 0" fill="none" stroke="#000" stroke-linejoin="round" stroke-miterlimit="10" stroke-width="6.64093" transform="matrix(.06 0 0 -.06 0 594.59)"/><path d="m476.210938 169.070312h.449218v-30.1875h-.449218zm0 0"/><use x="454.028908" xlink:href="#I" y="171.807154"/><use x="522.884446" xlink:href="#B" y="176.539434"/><path d="m6839.0625 6602.736979h7.421875v488.151042h-7.421875zm0 0" fill="none" stroke="#000" stroke-linejoin="round" stroke-miterlimit="10" stroke-width="6.64093" transform="matrix(.06 0 0 -.06 0 594.59)"/><path d="m410.34375 198.425781h.445312v-29.289062h-.445312zm0 0"/><use x="397.529795" xlink:href="#ad" y="245.468302"/><use x="416.918759" xlink:href="#ai" y="245.468302"/><use x="422.191494" xlink:href="#Z" y="245.468302"/><use x="406.798404" xlink:href="#aj" y="218.967749"/><use x="412.921008" xlink:href="#Q" y="218.967749"/><use x="410.14482" xlink:href="#C" y="167.074145"/><path d="m5818.489583 6655.341146h7.421875v514.453125h-7.421875zm0 0" fill="none" stroke="#000" stroke-linejoin="round" stroke-miterlimit="10" stroke-width="6.64093" transform="matrix(.06 0 0 -.06 0 594.59)"/><path d="m349.109375 195.269531h.445313v-30.867187h-.445313zm0 0"/><use x="327.790656" xlink:href="#O" y="245.468302"/><use x="340.716226" xlink:href="#ak" y="245.468302"/><use x="353.642031" xlink:href="#R" y="245.468302"/><use x="358.914532" xlink:href="#T" y="245.468302"/><use x="370.649716" xlink:href="#ae" y="245.468302"/><use x="345.989892" xlink:href="#al" y="218.967749"/><use x="352.453278" xlink:href="#T" y="218.967749"/><use x="348.909698" xlink:href="#C" y="162.342136"/><path d="m1977.34375 6367.255208h95.442708v5.403646h-95.442708zm0 0" fill="none" stroke="#000" stroke-linejoin="round" stroke-miterlimit="10" stroke-width="8.69157" transform="matrix(.06 0 0 -.06 0 594.59)"/><path d="m118.640625 212.554688h5.726563v-.324219h-5.726563zm0 0"/><path d="m8256.575521 5925.523438h95.377604v5.46875h-95.377604zm0 0" fill="none" stroke="#000" stroke-linejoin="round" stroke-miterlimit="10" stroke-width="8.69157" transform="matrix(.06 0 0 -.06 0 594.59)"/><path d="m495.394531 239.058594h5.722657v-.328125h-5.722657zm0 0"/><path d="m2026.953125 5925.523438h95.442708v5.46875h-95.442708zm0 0" fill="none" stroke="#000" stroke-linejoin="round" stroke-miterlimit="10" stroke-width="8.69157" transform="matrix(.06 0 0 -.06 0 594.59)"/><path d="m121.617188 239.058594h5.726562v-.328125h-5.726562zm0 0"/><path d="m2826.888021 6367.255208h95.442708v5.403646h-95.442708zm0 0" fill="none" stroke="#000" stroke-linejoin="round" stroke-miterlimit="10" stroke-width="8.69157" transform="matrix(.06 0 0 -.06 0 594.59)"/><path d="m169.613281 212.554688h5.726563v-.324219h-5.726563zm0 0"/><path d="m3862.369792 6367.255208h95.377604v5.403646h-95.377604zm0 0" fill="none" stroke="#000" stroke-linejoin="round" stroke-miterlimit="10" stroke-width="8.69157" transform="matrix(.06 0 0 -.06 0 594.59)"/><path d="m231.742188 212.554688h5.722656v-.324219h-5.722656zm0 0"/><path d="m3858.789062 5925.523438h95.442709v5.46875h-95.442709zm0 0" fill="none" stroke="#000" stroke-linejoin="round" stroke-miterlimit="10" stroke-width="8.69157" transform="matrix(.06 0 0 -.06 0 594.59)"/><path d="m231.527344 239.058594h5.726562v-.328125h-5.726562zm0 0"/><path d="m4368.684896 7600.588542v-69.075521l827.083333 32.421875v69.075521zm0 0" fill="none" stroke="#000" stroke-linejoin="round" stroke-miterlimit="10" stroke-width="6.64093" transform="matrix(.06 0 0 -.06 0 594.59)"/><path d="m262.121094 138.554688v4.144531l49.625-1.945313v-4.144531zm0 0"/><path d="m4281.119792 6875.71875c197.395833-179.296875 644.596354-149.153646 819.596354 55.208333-175.846354-191.341146-623.111979-221.484375-819.596354-55.208333zm0 0" style="fill:none;stroke-width:8.69122;stroke-linecap:round;stroke-linejoin:round;stroke:#000;stroke-miterlimit:10" transform="matrix(.06 0 0 -.06 0 594.59)"/><path d="m256.867188 182.046875c11.84375 10.757813 38.675781 8.949219 49.175781-3.3125-10.550781 11.480469-37.386719 13.289063-49.175781 3.3125"/><path d="m4986.067708 5925.523438h95.442709v5.46875h-95.442709zm0 0" fill="none" stroke="#000" stroke-linejoin="round" stroke-miterlimit="10" stroke-width="8.69157" transform="matrix(.06 0 0 -.06 0 594.59)"/><path d="m299.164062 239.058594h5.726563v-.328125h-5.726563zm0 0"/><path d="m6377.148437 6367.255208h95.442709v5.403646h-95.442709zm0 0" fill="none" stroke="#000" stroke-linejoin="round" stroke-miterlimit="10" stroke-width="8.69157" transform="matrix(.06 0 0 -.06 0 594.59)"/><path d="m382.628906 212.554688h5.726563v-.324219h-5.726563zm0 0"/><path d="m7313.020833 6367.255208h95.442709v5.403646h-95.442709zm0 0" fill="none" stroke="#000" stroke-linejoin="round" stroke-miterlimit="10" stroke-width="8.69157" transform="matrix(.06 0 0 -.06 0 594.59)"/><path d="m438.78125 212.554688h5.726562v-.324219h-5.726562zm0 0"/><path d="m7336.393229 5925.523438h95.442708v5.46875h-95.442708zm0 0" fill="none" stroke="#000" stroke-linejoin="round" stroke-miterlimit="10" stroke-width="8.69157" transform="matrix(.06 0 0 -.06 0 594.59)"/><path d="m440.183594 239.058594h5.726562v-.328125h-5.726562zm0 0"/><path d="m8202.669271 6367.255208h95.442708v5.403646h-95.442708zm0 0" fill="none" stroke="#000" stroke-linejoin="round" stroke-miterlimit="10" stroke-width="8.69157" transform="matrix(.06 0 0 -.06 0 594.59)"/><path d="m492.160156 212.554688h5.726563v-.324219h-5.726563zm0 0"/><use x="506.757014" xlink:href="#U" y="245.468302"/><use x="519.682848" xlink:href="#Q" y="245.468302"/><use x="532.608448" xlink:href="#Z" y="245.468302"/><use x="545.534282" xlink:href="#S" y="245.468302"/><path d="m8920.377604 7013.153646h7.421875v503.125h-7.421875zm0 0" fill="none" stroke="#000" stroke-linejoin="round" stroke-miterlimit="10" stroke-width="6.64093" transform="matrix(.06 0 0 -.06 0 594.59)"/><path d="m535.21875 173.800781h.449219v-30.1875h-.449219zm0 0"/><use x="41.678983" xlink:href="#F" y="167.074145"/><use x="50.23298" xlink:href="#F" y="152.877317"/><use x="58.786048" xlink:href="#F" y="171.806454"/><use x="142.852816" xlink:href="#C" y="181.271003"/><path d="m1679.752604 6844.078125h7.421875v514.453125h-7.421875zm0 0" fill="none" stroke="#000" stroke-linejoin="round" stroke-miterlimit="10" stroke-width="6.64093" transform="matrix(.06 0 0 -.06 0 594.59)"/><path d="m100.785156 183.945312h.445313v-30.867187h-.445313zm0 0"/><use x="81.476363" xlink:href="#am" y="245.468302"/><use x="96.102805" xlink:href="#N" y="245.468302"/><use x="87.428565" xlink:href="#an" y="218.967749"/><use x="89.072478" xlink:href="#C" y="186.004183"/><use x="299.587899" xlink:href="#C" y="167.075045"/><use x="7.571315" xlink:href="#G" y="176.539594"/><path d="m5188.28125 7159.572917h7.486979v435.286458h-7.486979zm0 0" fill="none" stroke="#000" stroke-linejoin="round" stroke-miterlimit="10" stroke-width="6.64093" transform="matrix(.06 0 0 -.06 0 594.59)"/><path d="m311.296875 165.015625h.449219v-26.117187h-.449219zm0 0"/><use x="240.564481" xlink:href="#I" y="171.807154"/><path d="m4368.684896 7080.731771h7.486979v482.291666h-7.486979zm0 0" fill="none" stroke="#000" stroke-linejoin="round" stroke-miterlimit="10" stroke-width="6.64093" transform="matrix(.06 0 0 -.06 0 594.59)"/><path d="m262.121094 169.746094h.449218v-28.9375h-.449218zm0 0"/><use x="250.411501" xlink:href="#ag" y="245.468302"/><use x="263.337306" xlink:href="#ao" y="245.468302"/><use x="250.411501" xlink:href="#Z" y="218.967749"/><use x="263.337306" xlink:href="#Q" y="218.967749"/><use x="276.262876" xlink:href="#M" y="218.967749"/><use x="250.411501" xlink:href="#C" y="171.807154"/><path d="m3472.395833 7001.890625h7.421875v514.388021h-7.421875zm0 0" fill="none" stroke="#000" stroke-linejoin="round" stroke-miterlimit="10" stroke-width="6.64093" transform="matrix(.06 0 0 -.06 0 594.59)"/><path d="m208.34375 174.476562h.445312v-30.863281h-.445312zm0 0"/><use x="139.93328" xlink:href="#R" y="218.967249"/><use x="145.20603" xlink:href="#Q" y="218.967249"/><use x="186.824633" xlink:href="#aj" y="218.967249"/><use x="192.947221" xlink:href="#Q" y="218.967249"/><use x="205.872807" xlink:href="#ag" y="218.967249"/><use x="139.93328" xlink:href="#R" y="245.467802"/><use x="145.20603" xlink:href="#Q" y="245.467802"/><use x="196.632393" xlink:href="#C" y="176.539164"/><path d="m2576.041667 6922.984375h7.486979v514.453125h-7.486979zm0 0" fill="none" stroke="#000" stroke-linejoin="round" stroke-miterlimit="10" stroke-width="6.64093" transform="matrix(.06 0 0 -.06 0 594.59)"/><path d="m154.5625 179.210938h.449219v-30.867188h-.449219zm0 0"/><use x="187.249374" xlink:href="#U" y="245.468302"/><use x="200.17496" xlink:href="#ao" y="245.468302"/><use x="213.10078" xlink:href="#R" y="245.468302"/><g clip-path="url(#l)"><path d="m5.403646 4916.864583h9910.416666" style="fill:none;stroke-width:10.8684;stroke-linecap:round;stroke-linejoin:round;stroke:#000;stroke-miterlimit:10" transform="matrix(.06 0 0 -.06 0 594.59)"/></g><g clip-path="url(#m)"><path d="m5.403646 5074.611979h9910.416666" style="fill:none;stroke-width:10.8684;stroke-linecap:round;stroke-linejoin:round;stroke:#000;stroke-miterlimit:10" transform="matrix(.06 0 0 -.06 0 594.59)"/></g><g clip-path="url(#n)"><path d="m5.403646 5232.359375h9910.416666" style="fill:none;stroke-width:10.8684;stroke-linecap:round;stroke-linejoin:round;stroke:#000;stroke-miterlimit:10" transform="matrix(.06 0 0 -.06 0 594.59)"/></g><g clip-path="url(#o)"><path d="m5.403646 5390.106771h9910.416666" style="fill:none;stroke-width:10.8684;stroke-linecap:round;stroke-linejoin:round;stroke:#000;stroke-miterlimit:10" transform="matrix(.06 0 0 -.06 0 594.59)"/></g><g clip-path="url(#p)"><path d="m5.403646 5547.789062h9910.416666" style="fill:none;stroke-width:10.8684;stroke-linecap:round;stroke-linejoin:round;stroke:#000;stroke-miterlimit:10" transform="matrix(.06 0 0 -.06 0 594.59)"/></g><use x="313.114626" xlink:href="#V" y="333.990479"/><path d="m7942.903646 4841.34375h7.486979v503.125h-7.486979zm0 0" style="fill:none;stroke-width:6.64093;stroke-linecap:round;stroke-linejoin:round;stroke:#000;stroke-miterlimit:10" transform="matrix(.06 0 0 -.06 0 594.59)"/><path d="m476.574219 304.113281h.449219v-30.1875h-.449219zm0 0"/><use x="469.94394" xlink:href="#Z" y="333.990479"/><use x="482.869745" xlink:href="#ap" y="333.990479"/><use x="476.376953" xlink:href="#B" y="271.184353"/><use x="425.316851" xlink:href="#J" y="299.37811"/><path d="m7077.799479 4920.184896h7.486979v514.453125h-7.486979zm0 0" style="fill:none;stroke-width:6.64093;stroke-linecap:round;stroke-linejoin:round;stroke:#000;stroke-miterlimit:10" transform="matrix(.06 0 0 -.06 0 594.59)"/><path d="m424.667969 299.378906h.449219v-30.867187h-.449219zm0 0"/><use x="406.498813" xlink:href="#Z" y="333.990479"/><use x="419.084772" xlink:href="#X" y="333.990479"/><use x="430.140267" xlink:href="#Q" y="333.990479"/><use x="443.066072" xlink:href="#T" y="333.990479"/><use x="424.469849" xlink:href="#C" y="266.452344"/><path d="m6129.557292 4920.184896h7.486979v514.453125h-7.486979zm0 0" style="fill:none;stroke-width:6.64093;stroke-linecap:round;stroke-linejoin:round;stroke:#000;stroke-miterlimit:10" transform="matrix(.06 0 0 -.06 0 594.59)"/><path d="m367.773438 299.378906h.449218v-30.867187h-.449218zm0 0"/><use x="384.256769" xlink:href="#H" y="266.452344"/><use x="364.144728" xlink:href="#aq" y="333.990479"/><use x="370.437489" xlink:href="#N" y="333.990479"/><use x="367.575735" xlink:href="#C" y="266.452344"/><path d="m5226.627604 4841.34375h7.486979v514.388021h-7.486979zm0 0" style="fill:none;stroke-width:6.64093;stroke-linecap:round;stroke-linejoin:round;stroke:#000;stroke-miterlimit:10" transform="matrix(.06 0 0 -.06 0 594.59)"/><path d="m313.597656 304.113281h.449219v-30.867187h-.449219zm0 0"/><path d="m3016.276042 4450.197917h95.377604v5.403645h-95.377604zm0 0" style="fill:none;stroke-width:8.69157;stroke-linecap:round;stroke-linejoin:round;stroke:#000;stroke-miterlimit:10" transform="matrix(.06 0 0 -.06 0 594.59)"/><path d="m180.976562 327.578125h5.722657v-.324219h-5.722657zm0 0"/><path d="m6534.440104 4450.197917h95.442708v5.403645h-95.442708zm0 0" style="fill:none;stroke-width:8.69157;stroke-linecap:round;stroke-linejoin:round;stroke:#000;stroke-miterlimit:10" transform="matrix(.06 0 0 -.06 0 594.59)"/><path d="m392.066406 327.578125h5.726563v-.324219h-5.726563zm0 0"/><path d="m8414.713542 4450.197917h95.442708v5.403645h-95.442708zm0 0" style="fill:none;stroke-width:8.69157;stroke-linecap:round;stroke-linejoin:round;stroke:#000;stroke-miterlimit:10" transform="matrix(.06 0 0 -.06 0 594.59)"/><path d="m504.882812 327.578125h5.726563v-.324219h-5.726563zm0 0"/><use x="581.080162" xlink:href="#E" y="271.184353"/><path d="m8933.723958 4762.4375h7.486979v503.125h-7.486979zm0 0" style="fill:none;stroke-width:6.64093;stroke-linecap:round;stroke-linejoin:round;stroke:#000;stroke-miterlimit:10" transform="matrix(.06 0 0 -.06 0 594.59)"/><path d="m536.023438 308.84375h.449218v-30.1875h-.449218zm0 0"/><use x="519.699039" xlink:href="#ar" y="333.990479"/><use x="532.624874" xlink:href="#ao" y="333.990479"/><use x="545.550474" xlink:href="#ag" y="333.990479"/><use x="558.476308" xlink:href="#S" y="333.990479"/><use x="535.827072" xlink:href="#B" y="275.916363"/><use x="41.679083" xlink:href="#F" y="280.648642"/><use x="50.23308" xlink:href="#F" y="266.451814"/><use x="58.786148" xlink:href="#F" y="285.380952"/><use x="313.398657" xlink:href="#C" y="271.184123"/><path d="m1705.924479 5120.25h7.486979v503.125h-7.486979zm0 0" style="fill:none;stroke-width:6.64093;stroke-linecap:round;stroke-linejoin:round;stroke:#000;stroke-miterlimit:10" transform="matrix(.06 0 0 -.06 0 594.59)"/><path d="m102.355469 287.375h.449219v-30.1875h-.449219zm0 0"/><use x="87.413375" xlink:href="#aa" y="333.990479"/><use x="90.01888" xlink:href="#B" y="290.113391"/><use x="7.571715" xlink:href="#G" y="290.113391"/><path d="m4323.697917 4762.4375h7.486979v514.453125h-7.486979zm0 0" style="fill:none;stroke-width:6.64093;stroke-linecap:round;stroke-linejoin:round;stroke:#000;stroke-miterlimit:10" transform="matrix(.06 0 0 -.06 0 594.59)"/><path d="m259.421875 308.84375h.449219v-30.867188h-.449219zm0 0"/><use x="259.222518" xlink:href="#C" y="275.916363"/><use x="195.14569" xlink:href="#I" y="280.648642"/><use x="253.071506" xlink:href="#N" y="333.990479"/><use x="265.997077" xlink:href="#T" y="333.990479"/><path d="m3420.768229 4709.833333h7.421875v488.151042h-7.421875zm0 0" style="fill:none;stroke-width:6.64093;stroke-linecap:round;stroke-linejoin:round;stroke:#000;stroke-miterlimit:10" transform="matrix(.06 0 0 -.06 0 594.59)"/><path d="m205.246094 312h.445312v-29.289062h-.445312zm0 0"/><use x="195.06639" xlink:href="#aq" y="333.990479"/><use x="201.529761" xlink:href="#V" y="333.990479"/><use x="214.455347" xlink:href="#ag" y="333.990479"/><use x="205.04541" xlink:href="#C" y="280.649372"/><path d="m2517.773437 4762.4375h7.48698v514.453125h-7.48698zm0 0" style="fill:none;stroke-width:6.64093;stroke-linecap:round;stroke-linejoin:round;stroke:#000;stroke-miterlimit:10" transform="matrix(.06 0 0 -.06 0 594.59)"/><path d="m151.066406 308.84375h.449219v-30.867188h-.449219zm0 0"/><use x="141.486283" xlink:href="#M" y="333.990479"/><use x="153.221467" xlink:href="#as" y="333.990479"/><use x="166.147052" xlink:href="#aj" y="333.990479"/><use x="150.868302" xlink:href="#C" y="275.916363"/><g clip-path="url(#q)"><path d="m5.403646 3023.960938h9910.416666" style="fill:none;stroke-width:10.8684;stroke-linecap:round;stroke-linejoin:round;stroke:#000;stroke-miterlimit:10" transform="matrix(.06 0 0 -.06 0 594.59)"/></g><g clip-path="url(#r)"><path d="m5.403646 3181.708333h9910.416666" style="fill:none;stroke-width:10.8684;stroke-linecap:round;stroke-linejoin:round;stroke:#000;stroke-miterlimit:10" transform="matrix(.06 0 0 -.06 0 594.59)"/></g><g clip-path="url(#s)"><path d="m5.403646 3339.455729h9910.416666" style="fill:none;stroke-width:10.8684;stroke-linecap:round;stroke-linejoin:round;stroke:#000;stroke-miterlimit:10" transform="matrix(.06 0 0 -.06 0 594.59)"/></g><g clip-path="url(#t)"><path d="m5.403646 3497.203125h9910.416666" style="fill:none;stroke-width:10.8684;stroke-linecap:round;stroke-linejoin:round;stroke:#000;stroke-miterlimit:10" transform="matrix(.06 0 0 -.06 0 594.59)"/></g><g clip-path="url(#u)"><path d="m5.403646 3654.950521h9910.416666" style="fill:none;stroke-width:10.8684;stroke-linecap:round;stroke-linejoin:round;stroke:#000;stroke-miterlimit:10" transform="matrix(.06 0 0 -.06 0 594.59)"/></g><use x="311.824624" xlink:href="#C" y="403.687618"/><path d="m8130.859375 3148.505208h7.486979v503.059896h-7.486979zm0 0" style="fill:none;stroke-width:6.64093;stroke-linecap:round;stroke-linejoin:round;stroke:#000;stroke-miterlimit:10" transform="matrix(.06 0 0 -.06 0 594.59)"/><path d="m487.851562 405.679688h.449219v-30.183594h-.449219zm0 0"/><use x="469.678939" xlink:href="#T" y="447.003705"/><use x="481.413889" xlink:href="#at" y="447.003705"/><use x="475.516951" xlink:href="#B" y="408.419628"/><path d="m7211.067708 3216.018229h7.421875v514.453125h-7.421875zm0 0" style="fill:none;stroke-width:6.64093;stroke-linecap:round;stroke-linejoin:round;stroke:#000;stroke-miterlimit:10" transform="matrix(.06 0 0 -.06 0 594.59)"/><path d="m432.664062 401.628906h.445313v-30.867187h-.445313zm0 0"/><use x="411.569823" xlink:href="#P" y="447.003705"/><use x="423.305007" xlink:href="#af" y="447.003705"/><use x="429.768158" xlink:href="#O" y="447.003705"/><use x="420.952842" xlink:href="#C" y="403.687618"/><path d="m6301.627604 3294.924479h7.486979v514.453125h-7.486979zm0 0" style="fill:none;stroke-width:6.64093;stroke-linecap:round;stroke-linejoin:round;stroke:#000;stroke-miterlimit:10" transform="matrix(.06 0 0 -.06 0 594.59)"/><path d="m378.097656 396.894531h.449219v-30.867187h-.449219zm0 0"/><use x="353.179706" xlink:href="#ag" y="447.003705"/><use x="366.105511" xlink:href="#Q" y="447.003705"/><use x="379.031082" xlink:href="#Z" y="447.003705"/><use x="366.388733" xlink:href="#C" y="398.955609"/><path d="m5392.252604 3216.018229h7.486979v514.453125h-7.486979zm0 0" style="fill:none;stroke-width:6.64093;stroke-linecap:round;stroke-linejoin:round;stroke:#000;stroke-miterlimit:10" transform="matrix(.06 0 0 -.06 0 594.59)"/><path d="m323.535156 401.628906h.449219v-30.867187h-.449219zm0 0"/><use x="299.210598" xlink:href="#ad" y="447.003705"/><use x="318.599796" xlink:href="#ai" y="447.003705"/><use x="323.872297" xlink:href="#Z" y="447.003705"/><path d="m2037.174479 2566.604167h95.442708v5.46875h-95.442708zm0 0" style="fill:none;stroke-width:8.69157;stroke-linecap:round;stroke-linejoin:round;stroke:#000;stroke-miterlimit:10" transform="matrix(.06 0 0 -.06 0 594.59)"/><path d="m122.230469 440.59375h5.726562v-.328125h-5.726562zm0 0"/><path d="m2996.744792 2566.604167h95.442708v5.46875h-95.442708zm0 0" style="fill:none;stroke-width:8.69157;stroke-linecap:round;stroke-linejoin:round;stroke:#000;stroke-miterlimit:10" transform="matrix(.06 0 0 -.06 0 594.59)"/><path d="m179.804688 440.59375h5.726562v-.328125h-5.726562zm0 0"/><path d="m5702.083333 2566.604167h95.442709v5.46875h-95.442709zm0 0" style="fill:none;stroke-width:8.69157;stroke-linecap:round;stroke-linejoin:round;stroke:#000;stroke-miterlimit:10" transform="matrix(.06 0 0 -.06 0 594.59)"/><path d="m342.125 440.59375h5.726562v-.328125h-5.726562zm0 0"/><path d="m7555.403646 2566.604167h95.377604v5.46875h-95.377604zm0 0" style="fill:none;stroke-width:8.69157;stroke-linecap:round;stroke-linejoin:round;stroke:#000;stroke-miterlimit:10" transform="matrix(.06 0 0 -.06 0 594.59)"/><path d="m453.320312 440.59375h5.726563v-.328125h-5.726563zm0 0"/><path d="m8399.023437 2566.604167h95.377605v5.46875h-95.377605zm0 0" style="fill:none;stroke-width:8.69157;stroke-linecap:round;stroke-linejoin:round;stroke:#000;stroke-miterlimit:10" transform="matrix(.06 0 0 -.06 0 594.59)"/><path d="m503.941406 440.59375h5.722656v-.328125h-5.722656zm0 0"/><use x="535.397071" xlink:href="#B" y="413.152637"/><use x="581.080362" xlink:href="#K" y="394.223799"/><path d="m9128.90625 3069.598958h7.421875v503.125h-7.421875zm0 0" style="fill:none;stroke-width:6.64093;stroke-linecap:round;stroke-linejoin:round;stroke:#000;stroke-miterlimit:10" transform="matrix(.06 0 0 -.06 0 594.59)"/><path d="m547.734375 410.414062h.445313v-30.1875h-.445313zm0 0"/><use x="519.269039" xlink:href="#O" y="447.003705"/><use x="532.194639" xlink:href="#ao" y="447.003705"/><use x="545.120473" xlink:href="#ag" y="447.003705"/><use x="558.046073" xlink:href="#au" y="447.003705"/><use x="41.678983" xlink:href="#F" y="394.223599"/><use x="50.23298" xlink:href="#F" y="380.026771"/><use x="58.786048" xlink:href="#F" y="398.955609"/><path d="m1487.890625 3027.28125h7.486979v503.125h-7.486979zm0 0" style="fill:none;stroke-width:6.64093;stroke-linecap:round;stroke-linejoin:round;stroke:#000;stroke-miterlimit:10" transform="matrix(.06 0 0 -.06 0 594.59)"/><path d="m89.273438 412.953125h.449218v-30.1875h-.449218zm0 0"/><use x="86.466973" xlink:href="#aa" y="447.003705"/><use x="89.072478" xlink:href="#B" y="380.026571"/><use x="7.571715" xlink:href="#G" y="403.687718"/><path d="m3395.247396 2869.533854h7.486979v514.453125h-7.486979zm0 0" style="fill:none;stroke-width:6.64093;stroke-linecap:round;stroke-linejoin:round;stroke:#000;stroke-miterlimit:10" transform="matrix(.06 0 0 -.06 0 594.59)"/><path d="m203.714844 422.417969h.449218v-30.867188h-.449218zm0 0"/><use x="258.080516" xlink:href="#C" y="394.223599"/><use x="200.596401" xlink:href="#R" y="447.003705"/><use x="205.869151" xlink:href="#Q" y="447.003705"/><use x="203.516407" xlink:href="#C" y="389.49059"/><use x="248.698497" xlink:href="#av" y="447.003705"/><use x="253.971233" xlink:href="#ac" y="447.003705"/><use x="266.896803" xlink:href="#Z" y="447.003705"/><path d="m4304.6875 2816.929688h7.421875v488.151041h-7.421875zm0 0" style="fill:none;stroke-width:6.64093;stroke-linecap:round;stroke-linejoin:round;stroke:#000;stroke-miterlimit:10" transform="matrix(.06 0 0 -.06 0 594.59)"/><path d="m258.28125 425.574219h.445312v-29.289063h-.445312zm0 0"/><path d="m2485.872396 2948.440104h7.486979v514.388021h-7.486979zm0 0" style="fill:none;stroke-width:6.64093;stroke-linecap:round;stroke-linejoin:round;stroke:#000;stroke-miterlimit:10" transform="matrix(.06 0 0 -.06 0 594.59)"/><path d="m149.152344 417.683594h.449218v-30.863282h-.449218zm0 0"/><use x="145.523291" xlink:href="#aj" y="447.003705"/><use x="151.816271" xlink:href="#V" y="447.003705"/><use x="148.952298" xlink:href="#C" y="384.75858"/><g clip-path="url(#v)"><path d="m5.403646 1131.057292h9910.416666" style="fill:none;stroke-width:10.8684;stroke-linecap:round;stroke-linejoin:round;stroke:#000;stroke-miterlimit:10" transform="matrix(.06 0 0 -.06 0 594.59)"/></g><g clip-path="url(#w)"><path d="m5.403646 1288.804688h9910.416666" style="fill:none;stroke-width:10.8684;stroke-linecap:round;stroke-linejoin:round;stroke:#000;stroke-miterlimit:10" transform="matrix(.06 0 0 -.06 0 594.59)"/></g><g clip-path="url(#x)"><path d="m5.403646 1446.552083h9910.416666" style="fill:none;stroke-width:10.8684;stroke-linecap:round;stroke-linejoin:round;stroke:#000;stroke-miterlimit:10" transform="matrix(.06 0 0 -.06 0 594.59)"/></g><g clip-path="url(#y)"><path d="m5.403646 1604.299479h9910.416666" style="fill:none;stroke-width:10.8684;stroke-linecap:round;stroke-linejoin:round;stroke:#000;stroke-miterlimit:10" transform="matrix(.06 0 0 -.06 0 594.59)"/></g><g clip-path="url(#z)"><path d="m5.403646 1762.046875h9910.416666" style="fill:none;stroke-width:10.8684;stroke-linecap:round;stroke-linejoin:round;stroke:#000;stroke-miterlimit:10" transform="matrix(.06 0 0 -.06 0 594.59)"/></g><path d="m8011.458333 973.309896h297.981771" style="fill:none;stroke-width:26.6426;stroke-linecap:round;stroke-linejoin:round;stroke:#000;stroke-miterlimit:10" transform="matrix(.06 0 0 -.06 0 594.59)"/><g clip-path="url(#A)"><path d="m9888.671875 1131.057292v630.989583" fill="none" stroke="#000" stroke-linejoin="round" stroke-miterlimit="10" stroke-width="65.1789" transform="matrix(.06 0 0 -.06 0 594.59)"/></g><path d="m9813.151042 1131.057292v630.989583" fill="none" stroke="#000" stroke-linejoin="round" stroke-miterlimit="10" stroke-width="20.6484" transform="matrix(.06 0 0 -.06 0 594.59)"/><use x="471.684943" xlink:href="#P" y="562.704136"/><use x="482.909892" xlink:href="#Q" y="562.704136"/><use x="495.835492" xlink:href="#R" y="562.704136"/><use x="501.108228" xlink:href="#ah" y="562.704136"/><use x="286.103572" xlink:href="#C" y="526.726564"/><use x="489.626979" xlink:href="#L" y="486.043183"/><use x="483.134306" xlink:href="#B" y="536.191083"/><path d="m6535.416667 1097.854167h7.486979v503.125h-7.486979zm0 0" fill="none" stroke="#000" stroke-linejoin="round" stroke-miterlimit="10" stroke-width="6.64093" transform="matrix(.06 0 0 -.06 0 594.59)"/><path d="m392.125 528.71875h.449219v-30.1875h-.449219zm0 0"/><use x="365.445731" xlink:href="#T" y="562.704136"/><use x="377.180915" xlink:href="#ae" y="562.704136"/><use x="388.915864" xlink:href="#af" y="562.704136"/><use x="395.37925" xlink:href="#P" y="562.704136"/><use x="379.78776" xlink:href="#B" y="531.458874"/><path d="m4963.541667 1165.432292h7.486979v514.38802h-7.486979zm0 0" fill="none" stroke="#000" stroke-linejoin="round" stroke-miterlimit="10" stroke-width="6.64093" transform="matrix(.06 0 0 -.06 0 594.59)"/><path d="m297.8125 524.664062h.449219v-30.863281h-.449219zm0 0"/><use x="273.489547" xlink:href="#ag" y="562.704136"/><use x="286.415352" xlink:href="#Q" y="562.704136"/><use x="299.340923" xlink:href="#T" y="562.704136"/><path d="m8257.877604 1018.947917h7.486979v503.125h-7.486979zm0 0" fill="none" stroke="#000" stroke-linejoin="round" stroke-miterlimit="10" stroke-width="6.64093" transform="matrix(.06 0 0 -.06 0 594.59)"/><path d="m495.472656 533.453125h.449219v-30.1875h-.449219zm0 0"/><path d="m7275.585937 638.283854h95.442709v5.46875h-95.442709zm0 0" fill="none" stroke="#000" stroke-linejoin="round" stroke-miterlimit="10" stroke-width="8.69157" transform="matrix(.06 0 0 -.06 0 594.59)"/><path d="m436.535156 556.292969h5.726563v-.328125h-5.726563zm0 0"/><path d="m4091.861979 638.283854h95.442708v5.46875h-95.442708zm0 0" fill="none" stroke="#000" stroke-linejoin="round" stroke-miterlimit="10" stroke-width="8.69157" transform="matrix(.06 0 0 -.06 0 594.59)"/><path d="m245.511719 556.292969h5.722656v-.328125h-5.722656zm0 0"/><use x="41.678983" xlink:href="#F" y="507.797526"/><use x="50.23298" xlink:href="#F" y="493.600698"/><use x="58.786048" xlink:href="#F" y="512.529836"/><use x="7.571745" xlink:href="#G" y="517.262115"/><path d="m3402.148437 1244.273438h7.48698v514.453124h-7.48698zm0 0" fill="none" stroke="#000" stroke-linejoin="round" stroke-miterlimit="10" stroke-width="6.64093" transform="matrix(.06 0 0 -.06 0 594.59)"/><path d="m204.128906 519.933594h.449219v-30.867188h-.449219zm0 0"/><use x="173.938348" xlink:href="#Y" y="562.704136"/><use x="185.673532" xlink:href="#T" y="562.704136"/><use x="197.408481" xlink:href="#Q" y="562.704136"/><use x="210.334301" xlink:href="#Z" y="562.704136"/><use x="192.419385" xlink:href="#C" y="521.994355"/><path d="m1690.169271 1334.442708h7.486979v503.125h-7.486979zm0 0" fill="none" stroke="#000" stroke-linejoin="round" stroke-miterlimit="10" stroke-width="6.64093" transform="matrix(.06 0 0 -.06 0 594.59)"/><path d="m101.410156 514.523438h.449219v-30.1875h-.449219zm0 0"/><use x="70.309141" xlink:href="#W" y="562.704136"/><use x="83.234953" xlink:href="#N" y="562.704136"/><use x="96.160531" xlink:href="#O" y="562.704136"/><use x="109.086343" xlink:href="#X" y="562.704136"/><use x="89.072478" xlink:href="#B" y="517.262045"/></svg>