<svg height="248.66em" viewBox="0 0 595.28 248.66" width="595.28em" xmlns="http://www.w3.org/2000/svg" xmlns:xlink="http://www.w3.org/1999/xlink"><clipPath id="a"><path d="m0 65h595.28125v2h-595.28125zm0 0"/></clipPath><clipPath id="b"><path d="m0 55h595.28125v2h-595.28125zm0 0"/></clipPath><clipPath id="c"><path d="m0 46h595.28125v1h-595.28125zm0 0"/></clipPath><clipPath id="d"><path d="m0 36h595.28125v1h-595.28125zm0 0"/></clipPath><clipPath id="e"><path d="m0 26h595.28125v2h-595.28125zm0 0"/></clipPath><clipPath id="f"><path d="m0 181h595.28125v2h-595.28125zm0 0"/></clipPath><clipPath id="g"><path d="m0 172h595.28125v1h-595.28125zm0 0"/></clipPath><clipPath id="h"><path d="m0 162h595.28125v2h-595.28125zm0 0"/></clipPath><clipPath id="i"><path d="m0 152h595.28125v2h-595.28125zm0 0"/></clipPath><clipPath id="j"><path d="m0 143h595.28125v1h-595.28125zm0 0"/></clipPath><clipPath id="k"><path d="m591 141h4.28125v44h-4.28125zm0 0"/></clipPath><symbol id="l" overflow="visible"><path d="m6.09375 0v-1.671875c-.265625.0625-.578125.09375-.96875.09375-.859375 0-1.09375-.25-1.09375-1.125v-8.234375h2.0625v-1.625h-2.0625v-3.453125h-2v3.453125h-1.703125v1.625h1.703125v9.109375c0 1.28125.875 2 2.4375 2 .46875 0 .953125-.046875 1.625-.171875zm0 0"/></symbol><symbol id="m" overflow="visible"><path d="m12.296875-5.703125c0-1.828125-.140625-2.984375-.5-3.921875-.8125-2.0625-2.734375-3.296875-5.078125-3.296875-3.5 0-5.765625 2.578125-5.765625 6.703125s2.1875 6.578125 5.71875 6.578125c2.875 0 4.859375-1.625 5.375-4.171875h-2.015625c-.5625 1.65625-1.6875 2.328125-3.296875 2.328125-2.078125 0-3.640625-1.34375-3.6875-4.21875zm-2.125-1.78125s0 .09375-.03125.140625h-7.046875c.171875-2.21875 1.578125-3.734375 3.59375-3.734375 1.96875 0 3.484375 1.625 3.484375 3.59375zm0 0"/></symbol><symbol id="n" overflow="visible"><path d="m11.6875 0v-9.5c0-2.078125-1.5625-3.421875-3.984375-3.421875-1.875 0-3.078125.71875-4.171875 2.46875v-2.109375h-1.859375v12.5625h2v-6.9375c0-2.5625 1.390625-4.234375 3.421875-4.234375 1.59375 0 2.59375.953125 2.59375 2.46875v8.703125zm0 0"/></symbol><symbol id="o" overflow="visible"><path d="m4.609375.390625v-2.890625h-2.515625v2.5h1.4375v.4375c0 1.65625-.3125 2.125-1.4375 2.171875v.921875c1.671875 0 2.515625-1.078125 2.515625-3.140625zm0 0"/></symbol><symbol id="p" overflow="visible"><path d="m4.625 0v-17.484375h-2.21875v17.484375zm0 0"/></symbol><symbol id="q" overflow="visible"><path d="m11.015625-3.53125c0-1.859375-1.0625-2.796875-3.5625-3.40625l-1.90625-.453125c-1.640625-.375-2.328125-.90625-2.328125-1.796875 0-1.15625 1.03125-1.890625 2.65625-1.890625 1.609375 0 2.46875.6875 2.515625 2.015625h2.109375c-.015625-2.46875-1.65625-3.859375-4.546875-3.859375-2.9375 0-4.828125 1.5-4.828125 3.828125 0 1.96875 1.015625 2.90625 3.984375 3.625l1.875.453125c1.390625.34375 1.9375.75 1.9375 1.65625 0 1.171875-1.171875 1.875-2.921875 1.875-1.796875 0-2.8125-.4375-3.078125-2.359375h-2.109375c.09375 2.90625 1.734375 4.203125 5.015625 4.203125 3.171875 0 5.1875-1.46875 5.1875-3.890625zm0 0"/></symbol><symbol id="r" overflow="visible"><path d="m7.703125-10.8125v-2.046875c-.34375-.046875-.5-.0625-.765625-.0625-1.296875 0-2.28125.765625-3.4375 2.625v-2.265625h-1.828125v12.5625h2v-6.53125c0-2.828125.9375-4.234375 4.03125-4.28125zm0 0"/></symbol><symbol id="s" overflow="visible"><path d="m12.828125-.046875v-1.515625c-.21875.046875-.3125.046875-.421875.046875-.703125 0-1.078125-.359375-1.078125-.984375v-7c0-2.234375-1.640625-3.421875-4.734375-3.421875-3.046875 0-4.921875 1.171875-5.03125 4.078125h2.015625c.15625-1.546875 1.078125-2.234375 2.953125-2.234375 1.796875 0 2.796875.671875 2.796875 1.875v.515625c0 .84375-.5 1.203125-2.078125 1.390625-2.84375.359375-3.265625.46875-4.03125.765625-1.46875.609375-2.21875 1.734375-2.21875 3.265625 0 2.28125 1.59375 3.625 4.125 3.625 1.609375 0 3.171875-.671875 4.28125-1.84375.21875.953125 1.078125 1.65625 2.0625 1.65625.40625 0 .71875-.046875 1.359375-.21875zm-3.5-4.296875c0 1.796875-1.828125 2.953125-3.765625 2.953125-1.5625 0-2.46875-.546875-2.46875-1.921875 0-1.3125.890625-1.890625 3.015625-2.203125 2.125-.28125 2.546875-.390625 3.21875-.703125zm0 0"/></symbol><symbol id="t" overflow="visible"><path d="m18.234375 0v-9.421875c0-2.265625-1.25-3.5-3.609375-3.5-1.671875 0-2.6875.5-3.859375 1.90625-.734375-1.34375-1.75-1.90625-3.375-1.90625-1.6875 0-2.78125.625-3.859375 2.125v-1.765625h-1.828125v12.5625h1.984375v-7.890625c0-1.828125 1.328125-3.28125 2.953125-3.28125 1.484375 0 2.328125.90625 2.328125 2.515625v8.65625h1.984375v-7.890625c0-1.828125 1.34375-3.28125 2.984375-3.28125 1.453125 0 2.296875.9375 2.296875 2.515625v8.65625zm0 0"/></symbol><symbol id="u" overflow="visible"><path d="m15.46875-5.328125v-12.15625h-2.234375v12.15625c0 2.359375-1.703125 3.796875-4.5 3.796875-2.625 0-4.46875-1.25-4.46875-3.796875v-12.15625h-2.234375v12.15625c0 3.546875 2.546875 5.765625 6.703125 5.765625 4.09375 0 6.734375-2.265625 6.734375-5.765625zm0 0"/></symbol><symbol id="v" overflow="visible"><path d="m10.953125 0v-1.75h-7.78125l7.453125-9.046875v-1.765625h-9.375v1.75h7l-7.5 9.015625v1.796875zm0 0"/></symbol><symbol id="w" overflow="visible"><path d="m15.453125 0v-17.484375h-2.234375v7.5625h-9v-7.5625h-2.234375v17.484375h2.234375v-7.96875h9v7.96875zm0 0"/></symbol><symbol id="x" overflow="visible"><path d="m11.734375-2.0625v-10.5h-1.859375v1.8125c-1-1.484375-2.21875-2.171875-3.828125-2.171875-3.1875 0-5.34375 2.6875-5.34375 6.765625 0 3.953125 2.21875 6.515625 5.171875 6.515625 1.578125 0 2.6875-.671875 4-2.25v.828125c0 3.34375-1.359375 4.609375-3.6875 4.609375-1.578125 0-2.8125-.578125-3.046875-2.109375h-2.03125c.203125 2.375 2.0625 3.796875 5 3.796875 3.9375 0 5.625-1.75 5.625-7.296875zm-2.046875-4.15625c0 3-1.296875 4.734375-3.40625 4.734375-2.1875 0-3.5-1.75-3.5-4.796875 0-3.03125 1.34375-4.796875 3.484375-4.796875 2.15625 0 3.421875 1.8125 3.421875 4.859375zm0 0"/></symbol><symbol id="y" overflow="visible"><path d="m3.671875 0v-12.5625h-2v12.5625zm.265625-14.46875v-2.484375h-2.5v2.484375zm0 0"/></symbol><symbol id="z" overflow="visible"><path d="m12.046875 0-5.140625-8.234375 4.359375-4.328125h-2.5625l-5.328125 5.3125v-10.234375h-1.984375v17.484375h1.984375v-4.890625l1.953125-1.921875 4.234375 6.8125zm0 0"/></symbol><symbol id="A" overflow="visible"><path d="m4.578125 0v-2.5h-2.484375v2.5zm0 0"/></symbol><symbol id="B" overflow="visible"><path d="m12.828125-.046875v-1.515625c-.21875.046875-.3125.046875-.421875.046875-.703125 0-1.078125-.359375-1.078125-.984375v-7c0-2.234375-1.640625-3.421875-4.734375-3.421875-3.046875 0-4.921875 1.171875-5.03125 4.078125h2.015625c.15625-1.546875 1.078125-2.234375 2.953125-2.234375 1.796875 0 2.796875.671875 2.796875 1.875v.515625c0 .84375-.5 1.203125-2.078125 1.390625-2.84375.359375-3.265625.46875-4.03125.765625-1.46875.609375-2.21875 1.734375-2.21875 3.265625 0 2.28125 1.59375 3.625 4.125 3.625 1.609375 0 3.171875-.671875 4.28125-1.84375.21875.953125 1.078125 1.65625 2.0625 1.65625.40625 0 .71875-.046875 1.359375-.21875zm-3.5-4.296875c0 1.796875-1.828125 2.953125-3.765625 2.953125-1.5625 0-2.46875-.546875-2.46875-1.921875 0-1.3125.890625-1.890625 3.015625-2.203125 2.125-.28125 2.546875-.390625 3.21875-.703125zm1.5625-13.140625h-2.71875l-2.296875 3.546875h1.4375zm0 0"/></symbol><symbol id="C" overflow="visible"><path d="m11.46875-12.5625h-2.15625l-3.484375 9.78125-3.21875-9.78125h-2.125l4.234375 12.609375-.765625 1.984375c-.328125.890625-.734375 1.234375-1.609375 1.234375-.28125 0-.609375-.046875-1.046875-.140625v1.796875c.40625.203125.8125.3125 1.34375.3125 1.40625 0 2.5625-.796875 3.234375-2.59375zm0 0"/></symbol><symbol id="D" overflow="visible"><path d="m12.546875-6.421875c0-4.078125-2.0625-6.5-5.375-6.5-1.734375 0-2.953125.640625-3.890625 2.0625v-6.625h-1.984375v17.484375h1.796875v-1.796875c.953125 1.46875 2.234375 2.15625 3.984375 2.15625 3.3125 0 5.46875-2.703125 5.46875-6.78125zm-2.09375.109375c0 2.859375-1.484375 4.796875-3.671875 4.796875-2.109375 0-3.5-1.921875-3.5-4.765625 0-2.953125 1.390625-4.875 3.5-4.78125 2.234375 0 3.671875 1.953125 3.671875 4.75zm0 0"/></symbol><symbol id="E" overflow="visible"><path d="m11.65625-12.5625h-2.25l-3.546875 10.1875-3.359375-10.1875h-2.265625l4.421875 12.5625h2.171875zm0 0"/></symbol><symbol id="F" overflow="visible"><path d="m8.625-5.25c-1.625 0-3.1875.546875-4.578125 1.40625-1.828125 1.078125-4.046875 2.984375-4.046875 5.75 0 2.296875 2.015625 3.34375 4.078125 3.34375 1.640625 0 3.1875-.546875 4.59375-1.40625 1.8125-1.078125 4-2.984375 4-5.75 0-2.296875-1.984375-3.34375-4.046875-3.34375zm0 0"/></symbol><symbol id="G" overflow="visible"><path d="m-.890625 4.390625c0 2.09375 1.828125 5.796875 3.609375 7.921875.234375.28125.625-.078125.390625-.34375-.65625-.8125-1.09375-2.375-1.09375-3.734375 0-1.59375.46875-2.71875 2.03125-2.71875 1.390625 0 3.21875.8125 3.953125 1.671875.125.15625.28125.203125.390625.203125.28125 0 .546875-.28125.546875-.546875 0-.125-.03125-.203125-.109375-.3125l-3.390625-4.046875c-.625-.78125-.9375-1.671875-.9375-2.59375 0-1.21875.515625-2.453125 1.515625-3.3125 1.453125-1.234375 3.34375-2.453125 3.34375-3.734375 0-.3125-.109375-.65625-.390625-.96875l-5.90625-7.0625c-.109375-.15625-.265625-.203125-.375-.203125-.28125 0-.546875.28125-.546875.546875 0 .109375.03125.234375.109375.34375l1.515625 1.796875c.625.765625.9375 1.671875.9375 2.59375 0 1.203125-.5 2.453125-1.515625 3.3125-1.4375 1.234375-3.34375 2.4375-3.34375 3.734375 0 .296875.125.65625.390625.96875l5.328125 6.375c-1.75-.859375-3.734375-1.4375-5.0625-1.4375-1 0-1.390625.53125-1.390625 1.546875zm0 0"/></symbol><symbol id="H" overflow="visible"><path d="m8.359375 12.28125v-6.328125l1.90625-.671875c.21875-.078125.421875-.3125.421875-.578125v-2.53125c0-.421875-.421875-.734375-.8125-.578125l-1.515625.546875v-6.375l1.90625-.703125c.21875-.078125.421875-.3125.421875-.578125v-2.484375c0-.4375-.421875-.75-.8125-.59375l-1.515625.515625v-5.828125c0-.359375-.3125-.671875-.671875-.671875-.34375 0-.65625.3125-.65625.671875v6.296875l-3.375 1.203125v-5.875c0-.34375-.3125-.65625-.671875-.65625-.34375 0-.65625.3125-.65625.65625v6.328125l-1.90625.671875c-.234375.078125-.421875.3125-.421875.578125v2.53125c0 .421875.421875.734375.8125.578125l1.515625-.546875v6.375l-1.90625.703125c-.234375.078125-.421875.3125-.421875.578125v2.484375c0 .4375.421875.75.8125.59375l1.515625-.515625v5.828125c0 .359375.3125.671875.65625.671875.359375 0 .671875-.3125.671875-.671875v-6.296875l3.375-1.203125v5.875c0 .34375.3125.65625.65625.65625.359375 0 .671875-.3125.671875-.65625zm-4.703125-14.890625 3.375-1.15625v6.375l-3.375 1.15625zm0 0"/></symbol><symbol id="I" overflow="visible"><path d="m14.53125-10.109375c-.625-2.71875-1.359375-5.390625-2.140625-8.078125 3.734375-4.234375 7.109375-8.59375 7.109375-14.1875 0-4.390625-2.40625-10.6875-5.125-13.953125-.1875-.140625-.421875-.140625-.625 0-3.6875 2.6875-5.828125 6.96875-5.828125 11.46875 0 2.015625.046875 4 .28125 5.984375.265625 2.53125.921875 4.96875 1.625 7.421875-4.578125 5.203125-9.75 10.1875-9.75 17.09375 0 7.8125 5.640625 14.46875 12.9375 14.46875 1.203125 0 2.328125-.125 3.453125-.3125.125 1.234375.203125 2.484375.203125 3.71875 0 .703125-.046875 1.375-.078125 2.0625-.234375 3.84375-2.609375 7.390625-6.21875 7.46875-.03125 0-.078125.03125-.109375.03125-1.984375 0-3.703125-1.125-4.703125-2.71875.421875.203125.890625.359375 1.359375.359375 2.015625 0 3.6875-1.671875 3.6875-3.703125 0-2.171875-1.59375-4.03125-3.6875-4.03125-2.296875 0-4.359375 1.78125-4.359375 4.03125 0 4.203125 3.390625 7.578125 7.578125 7.578125 4.59375 0 7.734375-4.109375 8-8.78125.046875-.734375.046875-1.4375.046875-2.171875 0-1.40625-.078125-2.796875-.203125-4.203125 1.015625-.3125 1.984375-.765625 2.84375-1.4375 2.875-2.125 4.15625-5.125 4.15625-8.078125 0-5.125-3.890625-10.0625-9.875-10.0625-.1875 0-.375.03125-.578125.03125zm3.3125 18.078125c-.546875-4.828125-1.4375-9.40625-2.421875-13.953125 4.28125.34375 6.96875 3.921875 6.96875 7.5 0 2.71875-1.875 5.515625-4.546875 6.453125zm-15.078125-9.171875c0-6.21875 4.1875-10.921875 8.390625-15.625.625 2.296875 1.234375 4.59375 1.78125 6.921875-3.921875.890625-6.140625 4.1875-6.140625 7.609375 0 2.71875 1.40625 5.484375 4.515625 7.15625.109375.03125.234375.078125.34375.078125.421875 0 .78125-.390625.78125-.8125 0-.203125-.125-.390625-.28125-.546875-2.171875-1.25-3.1875-3.109375-3.1875-4.828125 0-2.28125 1.796875-4.34375 4.859375-4.703125 1.015625 4.671875 1.90625 9.296875 2.5 14.265625-1.0625.15625-2.109375.234375-3.1875.234375-5.296875 0-10.375-4.46875-10.375-9.75zm13.203125-39.59375c.65625 2.046875.8125 3.0625.8125 5.3125 0 4.9375-2.59375 8.859375-5.78125 12.640625-.703125-2.453125-1.28125-4.828125-1.28125-7.78125 0-4.3125 2.40625-8.234375 6.25-10.171875zm0 0"/></symbol><symbol id="J" overflow="visible"><path d="m12.28125-2.609375c0 .390625-.125.828125-.390625 1.125-.8125.984375-2.6875 2.1875-4.15625 3.109375-1.484375.9375-3.34375 2.1875-4.546875 2.53125-.15625.046875-.34375.078125-.5.078125-.859375 0-1.640625-.65625-1.640625-1.625 0-.390625.125-.828125.390625-1.125.8125-.984375 2.6875-2.1875 4.15625-3.109375 1.484375-.9375 3.34375-2.1875 4.546875-2.53125.15625-.046875.34375-.078125.5-.078125.859375 0 1.640625.65625 1.640625 1.625zm-1.984375-2.640625c-2.90625 0-5.28125.625-7.34375 2.03125-1.25.84375-2.0625 2.171875-2.53125 3.609375-.234375.703125-.421875 1.46875-.421875 2.21875 0 1.828125 1.328125 2.640625 3.03125 2.640625 2.921875 0 5.28125-.625 7.34375-2.03125 1.25-.84375 2.0625-2.171875 2.53125-3.609375.234375-.703125.421875-1.46875.421875-2.21875 0-1.828125-1.328125-2.640625-3.03125-2.640625zm0 0"/></symbol><symbol id="K" overflow="visible"><path d="m8.078125 0v-15.15625h-1.984375c-.46875 1.796875-2.03125 2.71875-4.640625 2.71875v1.984375h3.640625v10.453125zm0 0"/></symbol><symbol id="L" overflow="visible"><path d="m4.578125 0v-3.125h-3.203125v3.125zm0 0"/></symbol><g clip-path="url(#a)"><path d="m5.533854 3048.304688h9910.221354" fill="none" stroke="#000" stroke-linecap="round" stroke-miterlimit="10" stroke-width="11.0087" transform="matrix(.06 0 0 -.06 0 248.66)"/></g><g clip-path="url(#b)"><path d="m5.533854 3210.21875h9910.221354" fill="none" stroke="#000" stroke-linecap="round" stroke-miterlimit="10" stroke-width="11.0087" transform="matrix(.06 0 0 -.06 0 248.66)"/></g><g clip-path="url(#c)"><path d="m5.533854 3372.067708h9910.221354" fill="none" stroke="#000" stroke-linecap="round" stroke-miterlimit="10" stroke-width="11.0087" transform="matrix(.06 0 0 -.06 0 248.66)"/></g><g clip-path="url(#d)"><path d="m5.533854 3533.981771h9910.221354" fill="none" stroke="#000" stroke-linecap="round" stroke-miterlimit="10" stroke-width="11.0087" transform="matrix(.06 0 0 -.06 0 248.66)"/></g><g clip-path="url(#e)"><path d="m5.533854 3695.895833h9910.221354" fill="none" stroke="#000" stroke-linecap="round" stroke-miterlimit="10" stroke-width="11.0087" transform="matrix(.06 0 0 -.06 0 248.66)"/></g><path d="m7361.71875 3326.299479h7.617187v495.117188h-7.617187zm0 0" style="fill:none;stroke-width:6.63761;stroke-linecap:round;stroke-linejoin:round;stroke:#000;stroke-miterlimit:10" transform="matrix(.06 0 0 -.06 0 248.66)"/><path d="m441.703125 49.082031h.457031v-29.707031h-.457031zm0 0"/><use x="506.307013" xlink:href="#l" y="99.758702"/><use x="512.599512" xlink:href="#m" y="99.758702"/><use x="525.865134" xlink:href="#n" y="99.758702"/><use x="539.13099" xlink:href="#o" y="99.758702"/><use x="475.06805" xlink:href="#F" y="65.761134"/><use x="472.055854" xlink:href="#p" y="99.758702"/><use x="478.689368" xlink:href="#q" y="99.758702"/><path d="m8118.229167 3083.460938h7.617187v528.125h-7.617187zm0 0" style="fill:none;stroke-width:6.63761;stroke-linecap:round;stroke-linejoin:round;stroke:#000;stroke-miterlimit:10" transform="matrix(.06 0 0 -.06 0 248.66)"/><path d="m487.09375 63.652344h.457031v-31.6875h-.457031zm0 0"/><use x="519.694039" xlink:href="#F" y="70.617644"/><use x="335.410671" xlink:href="#F" y="56.047215"/><use x="415.526531" xlink:href="#r" y="99.758502"/><use x="423.349989" xlink:href="#s" y="99.758502"/><use x="436.615611" xlink:href="#t" y="99.758502"/><use x="429.678359" xlink:href="#F" y="51.190505"/><path d="m6616.536458 3407.289062h7.682292v446.875h-7.682292zm0 0" style="fill:none;stroke-width:6.63761;stroke-linecap:round;stroke-linejoin:round;stroke:#000;stroke-miterlimit:10" transform="matrix(.06 0 0 -.06 0 248.66)"/><path d="m396.992188 44.222656h.460937v-26.808594h-.460937zm0 0"/><use x="382.635765" xlink:href="#u" y="99.758702"/><use x="384.96804" xlink:href="#F" y="46.333995"/><path d="m5790.559896 3245.375h7.682291v528.125h-7.682291zm0 0" style="fill:none;stroke-width:6.63761;stroke-linecap:round;stroke-linejoin:round;stroke:#000;stroke-miterlimit:10" transform="matrix(.06 0 0 -.06 0 248.66)"/><path d="m347.433594 53.9375h.460937v-31.6875h-.460937zm0 0"/><use x="316.410633" xlink:href="#l" y="99.758702"/><use x="323.043913" xlink:href="#s" y="99.758702"/><use x="336.309769" xlink:href="#q" y="99.758702"/><use x="348.385719" xlink:href="#v" y="99.758702"/><use x="360.461669" xlink:href="#o" y="99.758702"/><path d="m1479.361979 3731.377604v-71.028646l684.830729 33.333334v71.09375zm0 0" fill="none" stroke="#000" stroke-linejoin="round" stroke-miterlimit="10" stroke-width="6.63761" transform="matrix(.06 0 0 -.06 0 248.66)"/><path d="m88.761719 24.777344v4.261718l41.089843-2v-4.265624zm0 0"/><path d="m2965.429687 3859.958333v-71.09375l1040.559896-95.182291v71.09375zm0 0" fill="none" stroke="#000" stroke-linejoin="round" stroke-miterlimit="10" stroke-width="6.63761" transform="matrix(.06 0 0 -.06 0 248.66)"/><path d="m177.925781 17.0625v4.265625l62.433594 5.710937v-4.265624zm0 0"/><path d="m5094.986979 2591.338542h98.046875v5.46875h-98.046875zm0 0" fill="none" stroke="#000" stroke-linejoin="round" stroke-miterlimit="10" stroke-width="8.80697" transform="matrix(.06 0 0 -.06 0 248.66)"/><path d="m305.699219 93.179688h5.878906v-.328126h-5.878906zm0 0"/><path d="m6616.536458 3893.291667v-71.028646l752.799479-33.398438v71.09375zm0 0" fill="none" stroke="#000" stroke-linejoin="round" stroke-miterlimit="10" stroke-width="6.63761" transform="matrix(.06 0 0 -.06 0 248.66)"/><path d="m396.992188 15.0625v4.261719l45.167968 2.003906v-4.265625zm0 0"/><path d="m6746.875 2591.338542h98.046875v5.46875h-98.046875zm0 0" fill="none" stroke="#000" stroke-linejoin="round" stroke-miterlimit="10" stroke-width="8.80697" transform="matrix(.06 0 0 -.06 0 248.66)"/><path d="m404.8125 93.179688h5.882812v-.328126h-5.882812zm0 0"/><path d="m8259.895833 2591.338542h98.046875v5.46875h-98.046875zm0 0" fill="none" stroke="#000" stroke-linejoin="round" stroke-miterlimit="10" stroke-width="8.80697" transform="matrix(.06 0 0 -.06 0 248.66)"/><path d="m495.59375 93.179688h5.882812v-.328126h-5.882812zm0 0"/><path d="m8861.979167 3002.536458h7.682291v528.125h-7.682291zm0 0" fill="none" stroke="#000" stroke-linejoin="round" stroke-miterlimit="10" stroke-width="6.63761" transform="matrix(.06 0 0 -.06 0 248.66)"/><path d="m531.71875 68.507812h.460938v-31.6875h-.460938zm0 0"/><use x="559.213118" xlink:href="#G" y="46.333595"/><use x="40.20078" xlink:href="#K" y="99.758702"/><use x="52.106599" xlink:href="#L" y="99.758702"/><path d="m2156.510417 3326.299479h7.682291v399.283854h-7.682291zm0 0" fill="none" stroke="#000" stroke-linejoin="round" stroke-miterlimit="10" stroke-width="6.63761" transform="matrix(.06 0 0 -.06 0 248.66)"/><path d="m129.390625 49.082031h.460937v-23.957031h-.460937zm0 0"/><use x="117.365235" xlink:href="#F" y="51.190605"/><path d="m1479.361979 3245.375h7.682292v447.526042h-7.682292zm0 0" fill="none" stroke="#000" stroke-linejoin="round" stroke-miterlimit="10" stroke-width="6.63761" transform="matrix(.06 0 0 -.06 0 248.66)"/><path d="m88.761719 53.9375h.460937v-26.851562h-.460937zm0 0"/><use x="113.929228" xlink:href="#l" y="99.758702"/><use x="120.221734" xlink:href="#m" y="99.758702"/><use x="67.773236" xlink:href="#w" y="99.758702"/><use x="85.121684" xlink:href="#s" y="99.758702"/><use x="41.769084" xlink:href="#H" y="26.906856"/><use x="7.771516" xlink:href="#I" y="56.047415"/><use x="76.737858" xlink:href="#F" y="56.047415"/><use x="272.977046" xlink:href="#l" y="99.758702"/><use x="279.61056" xlink:href="#s" y="99.758702"/><use x="292.876417" xlink:href="#r" y="99.758702"/><path d="m3998.307292 3245.375h7.682291v481.184896h-7.682291zm0 0" fill="none" stroke="#000" stroke-linejoin="round" stroke-miterlimit="10" stroke-width="6.63761" transform="matrix(.06 0 0 -.06 0 248.66)"/><path d="m239.898438 53.9375h.460937v-28.871094h-.460937zm0 0"/><use x="211.002422" xlink:href="#n" y="99.758702"/><use x="224.268293" xlink:href="#m" y="99.758702"/><use x="237.534164" xlink:href="#t" y="99.758702"/><use x="227.875856" xlink:href="#F" y="56.047415"/><use x="280.579861" xlink:href="#F" y="51.190685"/><path d="m2965.429687 3407.289062h7.682292v413.151042h-7.682292zm0 0" fill="none" stroke="#000" stroke-linejoin="round" stroke-miterlimit="10" stroke-width="6.63761" transform="matrix(.06 0 0 -.06 0 248.66)"/><path d="m177.925781 44.222656h.460938v-24.789062h-.460938zm0 0"/><use x="149.029298" xlink:href="#t" y="99.758702"/><use x="168.928691" xlink:href="#m" y="99.758702"/><use x="182.194328" xlink:href="#x" y="99.758702"/><path d="m4876.757812 3326.299479h7.617188v528.125h-7.617188zm0 0" fill="none" stroke="#000" stroke-linejoin="round" stroke-miterlimit="10" stroke-width="6.63761" transform="matrix(.06 0 0 -.06 0 248.66)"/><path d="m292.605469 49.082031h.457031v-31.6875h-.457031zm0 0"/><use x="165.903332" xlink:href="#F" y="46.333595"/><g clip-path="url(#f)"><path d="m5.533854 1105.596354h9910.221354" style="fill:none;stroke-width:11.0087;stroke-linecap:round;stroke-linejoin:round;stroke:#000;stroke-miterlimit:10" transform="matrix(.06 0 0 -.06 0 248.66)"/></g><g clip-path="url(#g)"><path d="m5.533854 1267.510417h9910.221354" style="fill:none;stroke-width:11.0087;stroke-linecap:round;stroke-linejoin:round;stroke:#000;stroke-miterlimit:10" transform="matrix(.06 0 0 -.06 0 248.66)"/></g><g clip-path="url(#h)"><path d="m5.533854 1429.359375h9910.221354" style="fill:none;stroke-width:11.0087;stroke-linecap:round;stroke-linejoin:round;stroke:#000;stroke-miterlimit:10" transform="matrix(.06 0 0 -.06 0 248.66)"/></g><g clip-path="url(#i)"><path d="m5.533854 1591.273438h9910.221354" style="fill:none;stroke-width:11.0087;stroke-linecap:round;stroke-linejoin:round;stroke:#000;stroke-miterlimit:10" transform="matrix(.06 0 0 -.06 0 248.66)"/></g><g clip-path="url(#j)"><path d="m5.533854 1753.1875h9910.221354" style="fill:none;stroke-width:11.0087;stroke-linecap:round;stroke-linejoin:round;stroke:#000;stroke-miterlimit:10" transform="matrix(.06 0 0 -.06 0 248.66)"/></g><g clip-path="url(#k)"><path d="m9888.216146 1105.596354v647.591146" fill="none" stroke="#000" stroke-linejoin="round" stroke-miterlimit="10" stroke-width="66.0361" transform="matrix(.06 0 0 -.06 0 248.66)"/></g><path d="m9811.71875 1105.596354v647.591146" fill="none" stroke="#000" stroke-linejoin="round" stroke-miterlimit="10" stroke-width="20.9166" transform="matrix(.06 0 0 -.06 0 248.66)"/><use x="438.436877" xlink:href="#F" y="172.610548"/><use x="426.070552" xlink:href="#q" y="216.418836"/><use x="438.146502" xlink:href="#v" y="216.418836"/><use x="450.222452" xlink:href="#m" y="216.418836"/><path d="m7507.682292 1302.666667h7.682291v446.875h-7.682291zm0 0" fill="none" stroke="#000" stroke-linejoin="round" stroke-miterlimit="10" stroke-width="6.63761" transform="matrix(.06 0 0 -.06 0 248.66)"/><path d="m450.460938 170.5h.460937v-26.8125h-.460937zm0 0"/><use x="489.269979" xlink:href="#F" y="177.467558"/><use x="479.029858" xlink:href="#t" y="216.418836"/><use x="498.929031" xlink:href="#m" y="216.418836"/><path d="m8354.882812 1221.677083h7.682292v495.052084h-7.682292zm0 0" fill="none" stroke="#000" stroke-linejoin="round" stroke-miterlimit="10" stroke-width="6.63761" transform="matrix(.06 0 0 -.06 0 248.66)"/><path d="m501.292969 175.359375h.460937v-29.703125h-.460937zm0 0"/><path d="m6727.083333 1383.591146h7.682292v493.815104h-7.682292zm0 0" fill="none" stroke="#000" stroke-linejoin="round" stroke-miterlimit="10" stroke-width="6.63761" transform="matrix(.06 0 0 -.06 0 248.66)"/><path d="m403.625 165.644531h.460938v-29.628906h-.460938zm0 0"/><use x="385.356771" xlink:href="#t" y="216.418836"/><use x="405.256149" xlink:href="#y" y="216.418836"/><use x="391.600763" xlink:href="#F" y="167.753838"/><path d="m6037.695312 1221.677083h7.682292v562.5h-7.682292zm0 0" fill="none" stroke="#000" stroke-linejoin="round" stroke-miterlimit="10" stroke-width="6.63761" transform="matrix(.06 0 0 -.06 0 248.66)"/><path d="m362.261719 175.359375h.460937v-33.75h-.460937zm0 0"/><use x="349.9467" xlink:href="#s" y="216.418836"/><use x="350.238262" xlink:href="#F" y="177.467558"/><path d="m1710.221354 647.002604h98.046875v5.46875h-98.046875zm0 0" fill="none" stroke="#000" stroke-linejoin="round" stroke-miterlimit="10" stroke-width="8.80697" transform="matrix(.06 0 0 -.06 0 248.66)"/><path d="m102.613281 209.839844h5.882813v-.328125h-5.882813zm0 0"/><path d="m2166.731771 1822.067708v-71.09375l656.575521-33.333333v71.028646zm0 0" fill="none" stroke="#000" stroke-linejoin="round" stroke-miterlimit="10" stroke-width="6.63761" transform="matrix(.06 0 0 -.06 0 248.66)"/><path d="m130.003906 139.335938v4.265624l39.394532 2v-4.261718zm0 0"/><path d="m2292.1875 647.002604h98.046875v5.46875h-98.046875zm0 0" fill="none" stroke="#000" stroke-linejoin="round" stroke-miterlimit="10" stroke-width="8.80697" transform="matrix(.06 0 0 -.06 0 248.66)"/><path d="m137.53125 209.839844h5.882812v-.328125h-5.882812zm0 0"/><path d="m3505.013021 1950.583333v-71.09375l833.658854-33.333333v71.09375zm0 0" fill="none" stroke="#000" stroke-linejoin="round" stroke-miterlimit="10" stroke-width="6.63761" transform="matrix(.06 0 0 -.06 0 248.66)"/><path d="m210.300781 131.625v4.265625l50.019531 2v-4.265625zm0 0"/><path d="m3635.416667 647.002604h98.046875v5.46875h-98.046875zm0 0" fill="none" stroke="#000" stroke-linejoin="round" stroke-miterlimit="10" stroke-width="8.80697" transform="matrix(.06 0 0 -.06 0 248.66)"/><path d="m218.121094 209.839844h5.882812v-.328125h-5.882812zm0 0"/><path d="m4739.127604 647.002604h98.046875v5.46875h-98.046875zm0 0" fill="none" stroke="#000" stroke-linejoin="round" stroke-miterlimit="10" stroke-width="8.80697" transform="matrix(.06 0 0 -.06 0 248.66)"/><path d="m284.347656 209.839844h5.882813v-.328125h-5.882813zm0 0"/><path d="m6037.695312 1822.067708v-71.09375l697.070313 95.182292v71.09375zm0 0" fill="none" stroke="#000" stroke-linejoin="round" stroke-miterlimit="10" stroke-width="6.63761" transform="matrix(.06 0 0 -.06 0 248.66)"/><path d="m362.261719 139.335938v4.265624l41.824219-5.710937v-4.265625zm0 0"/><path d="m7507.682292 1788.669271v-71.028646l854.882812-33.333333v71.028646zm0 0" fill="none" stroke="#000" stroke-linejoin="round" stroke-miterlimit="10" stroke-width="6.63761" transform="matrix(.06 0 0 -.06 0 248.66)"/><path d="m450.460938 141.339844v4.261718l51.292968 2v-4.261718zm0 0"/><path d="m7805.273437 647.002604h98.046875v5.46875h-98.046875zm0 0" fill="none" stroke="#000" stroke-linejoin="round" stroke-miterlimit="10" stroke-width="8.80697" transform="matrix(.06 0 0 -.06 0 248.66)"/><path d="m468.316406 209.839844h5.882813v-.328125h-5.882813zm0 0"/><path d="m8617.057292 647.002604h98.046875v5.46875h-98.046875zm0 0" fill="none" stroke="#000" stroke-linejoin="round" stroke-miterlimit="10" stroke-width="8.80697" transform="matrix(.06 0 0 -.06 0 248.66)"/><path d="m517.023438 209.839844h5.882812v-.328125h-5.882812zm0 0"/><path d="m9206.054687 1152.341146h7.682292v516.536458h-7.682292zm0 0" fill="none" stroke="#000" stroke-linejoin="round" stroke-miterlimit="10" stroke-width="6.63761" transform="matrix(.06 0 0 -.06 0 248.66)"/><path d="m552.363281 179.519531h.460938v-30.992187h-.460938zm0 0"/><use x="527.737055" xlink:href="#y" y="216.418836"/><use x="533.009569" xlink:href="#n" y="216.418836"/><use x="546.275426" xlink:href="#z" y="216.418836"/><use x="558.351375" xlink:href="#A" y="216.418836"/><use x="539.697479" xlink:href="#J" y="182.324267"/><path d="m5334.114583 1302.666667h7.682292v528.125h-7.682292zm0 0" fill="none" stroke="#000" stroke-linejoin="round" stroke-miterlimit="10" stroke-width="6.63761" transform="matrix(.06 0 0 -.06 0 248.66)"/><path d="m320.046875 170.5h.460937v-31.6875h-.460937zm0 0"/><path d="m2166.731771 1383.591146h7.682291v399.21875h-7.682291zm0 0" fill="none" stroke="#000" stroke-linejoin="round" stroke-miterlimit="10" stroke-width="6.63761" transform="matrix(.06 0 0 -.06 0 248.66)"/><path d="m130.003906 165.644531h.460938v-23.953125h-.460938zm0 0"/><use x="117.690235" xlink:href="#B" y="216.418836"/><use x="117.981564" xlink:href="#F" y="167.753838"/><path d="m1463.151042 1302.666667h7.682291v528.125h-7.682291zm0 0" fill="none" stroke="#000" stroke-linejoin="round" stroke-miterlimit="10" stroke-width="6.63761" transform="matrix(.06 0 0 -.06 0 248.66)"/><path d="m87.789062 170.5h.460938v-31.6875h-.460938zm0 0"/><use x="70.797542" xlink:href="#w" y="216.418836"/><use x="88.14599" xlink:href="#y" y="216.418836"/><use x="75.766072" xlink:href="#F" y="172.610548"/><use x="41.768504" xlink:href="#H" y="143.46999"/><use x="7.770936" xlink:href="#I" y="172.610548"/><use x="295.06151" xlink:href="#n" y="216.418836"/><use x="308.327367" xlink:href="#s" y="216.418836"/><use x="321.592989" xlink:href="#z" y="216.418836"/><use x="308.023436" xlink:href="#F" y="172.610548"/><path d="m4330.989583 1383.591146h7.682292v495.052083h-7.682292zm0 0" fill="none" stroke="#000" stroke-linejoin="round" stroke-miterlimit="10" stroke-width="6.63761" transform="matrix(.06 0 0 -.06 0 248.66)"/><path d="m259.859375 165.644531h.460937v-29.703125h-.460937zm0 0"/><use x="228.835458" xlink:href="#x" y="216.418836"/><use x="242.101329" xlink:href="#C" y="216.418836"/><use x="254.177279" xlink:href="#B" y="216.418836"/><use x="267.442901" xlink:href="#v" y="216.418836"/><use x="247.835496" xlink:href="#F" y="167.753838"/><path d="m3505.013021 1464.515625h7.682291v446.940104h-7.682291zm0 0" fill="none" stroke="#000" stroke-linejoin="round" stroke-miterlimit="10" stroke-width="6.63761" transform="matrix(.06 0 0 -.06 0 248.66)"/><path d="m210.300781 160.789062h.460938v-26.816406h-.460938zm0 0"/><use x="156.915314" xlink:href="#F" y="172.610548"/><use x="149.99139" xlink:href="#D" y="216.418836"/><use x="163.257261" xlink:href="#s" y="216.418836"/><path d="m2815.690104 1302.666667h7.617188v447.526041h-7.617188zm0 0" fill="none" stroke="#000" stroke-linejoin="round" stroke-miterlimit="10" stroke-width="6.63761" transform="matrix(.06 0 0 -.06 0 248.66)"/><path d="m168.941406 170.5h.457032v-26.851562h-.457032zm0 0"/><use x="195.945392" xlink:href="#E" y="216.418836"/><use x="208.021107" xlink:href="#y" y="216.418836"/><use x="198.277427" xlink:href="#F" y="162.897128"/></svg>