<svg height="400.28em" viewBox="0 0 595.28 400.28" width="595.28em" xmlns="http://www.w3.org/2000/svg" xmlns:xlink="http://www.w3.org/1999/xlink"><clipPath id="a"><path d="m0 70h595.28125v2h-595.28125zm0 0"/></clipPath><clipPath id="b"><path d="m0 60h595.28125v1h-595.28125zm0 0"/></clipPath><clipPath id="c"><path d="m0 49h595.28125v2h-595.28125zm0 0"/></clipPath><clipPath id="d"><path d="m0 39h595.28125v1h-595.28125zm0 0"/></clipPath><clipPath id="e"><path d="m0 28h595.28125v2h-595.28125zm0 0"/></clipPath><clipPath id="f"><path d="m593 28h2.28125v44h-2.28125zm0 0"/></clipPath><clipPath id="g"><path d="m0 196h595.28125v1h-595.28125zm0 0"/></clipPath><clipPath id="h"><path d="m0 185h595.28125v2h-595.28125zm0 0"/></clipPath><clipPath id="i"><path d="m0 175h595.28125v1h-595.28125zm0 0"/></clipPath><clipPath id="j"><path d="m0 164h595.28125v2h-595.28125zm0 0"/></clipPath><clipPath id="k"><path d="m0 154h595.28125v1h-595.28125zm0 0"/></clipPath><clipPath id="l"><path d="m593 153h2.28125v44h-2.28125zm0 0"/></clipPath><clipPath id="m"><path d="m0 321h595.28125v2h-595.28125zm0 0"/></clipPath><clipPath id="n"><path d="m0 311h595.28125v1h-595.28125zm0 0"/></clipPath><clipPath id="o"><path d="m0 300h595.28125v2h-595.28125zm0 0"/></clipPath><clipPath id="p"><path d="m0 290h595.28125v1h-595.28125zm0 0"/></clipPath><clipPath id="q"><path d="m0 279h595.28125v2h-595.28125zm0 0"/></clipPath><clipPath id="r"><path d="m591 277h4.28125v47h-4.28125zm0 0"/></clipPath><symbol id="s" overflow="visible"><path d="m12.546875 0v-10.234375c0-2.265625-1.625-3.6875-4.25-3.6875-1.921875 0-3.078125.59375-4.34375 2.25v-7.15625h-2.140625v18.828125h2.140625v-7.46875c0-2.765625 1.4375-4.5625 3.671875-4.5625 1.515625 0 2.78125.875 2.78125 2.65625v9.375zm0 0"/></symbol><symbol id="t" overflow="visible"><path d="m13.8125-.046875v-1.625c-.234375.046875-.328125.046875-.453125.046875-.75 0-1.171875-.390625-1.171875-1.0625v-7.546875c0-2.390625-1.75-3.6875-5.078125-3.6875-3.28125 0-5.296875 1.265625-5.4375 4.390625h2.171875c.1875-1.65625 1.171875-2.40625 3.1875-2.40625 1.9375 0 3.015625.734375 3.015625 2.015625v.578125c0 .890625-.546875 1.28125-2.25 1.484375-3.046875.390625-3.515625.5-4.328125.828125-1.578125.65625-2.390625 1.859375-2.390625 3.515625 0 2.453125 1.71875 3.90625 4.453125 3.90625 1.71875 0 3.40625-.71875 4.59375-1.984375.234375 1.03125 1.15625 1.78125 2.21875 1.78125.4375 0 .78125-.0625 1.46875-.234375zm-3.765625-4.625c0 1.9375-1.96875 3.171875-4.0625 3.171875-1.671875 0-2.65625-.59375-2.65625-2.0625 0-1.421875.953125-2.046875 3.265625-2.375 2.265625-.3125 2.734375-.421875 3.453125-.75zm0 0"/></symbol><symbol id="u" overflow="visible"><path d="m3.953125 2.8125v-16.34375h-2.140625v15.5c0 1.28125-.4375 1.859375-1.765625 1.78125l-.515625-.03125v1.828125c.265625.0625.390625.078125.734375.078125 2.421875 0 3.6875-.96875 3.6875-2.8125zm.28125-18.390625v-2.6875h-2.6875v2.6875zm0 0"/></symbol><symbol id="v" overflow="visible"><path d="m12.578125 0v-10.234375c0-2.234375-1.671875-3.6875-4.28125-3.6875-2.015625 0-3.3125.78125-4.5 2.65625v-2.265625h-1.984375v13.53125h2.140625v-7.46875c0-2.765625 1.5-4.5625 3.6875-4.5625 1.703125 0 2.796875 1.03125 2.796875 2.65625v9.375zm0 0"/></symbol><symbol id="w" overflow="visible"><path d="m12.34375-13.53125h-2.328125l-3.734375 10.53125-3.46875-10.53125h-2.296875l4.578125 13.578125-.828125 2.15625c-.359375.953125-.796875 1.3125-1.734375 1.3125-.3125 0-.671875-.046875-1.140625-.15625v1.9375c.4375.234375.875.328125 1.453125.328125 1.515625 0 2.765625-.84375 3.484375-2.78125zm0 0"/></symbol><symbol id="x" overflow="visible"><path d="m13.25-6.140625c0-1.96875-.15625-3.203125-.546875-4.21875-.875-2.21875-2.9375-3.5625-5.46875-3.5625-3.765625 0-6.203125 2.796875-6.203125 7.234375s2.359375 7.078125 6.15625 7.078125c3.09375 0 5.234375-1.765625 5.78125-4.5h-2.171875c-.59375 1.78125-1.8125 2.515625-3.546875 2.515625-2.234375 0-3.921875-1.453125-3.96875-4.546875zm-2.296875-1.921875s0 .109375-.03125.15625h-7.59375c.1875-2.40625 1.703125-4.03125 3.875-4.03125 2.125 0 3.75 1.765625 3.75 3.875zm0 0"/></symbol><symbol id="y" overflow="visible"><path d="m11.859375-3.796875c0-2.015625-1.140625-3.015625-3.828125-3.671875l-2.0625-.484375c-1.765625-.421875-2.5-.984375-2.5-1.9375 0-1.234375 1.109375-2.046875 2.859375-2.046875 1.734375 0 2.65625.75 2.71875 2.171875h2.265625c-.03125-2.65625-1.78125-4.15625-4.90625-4.15625-3.15625 0-5.1875 1.625-5.1875 4.140625 0 2.109375 1.078125 3.125 4.28125 3.890625l2.015625.5c1.5.359375 2.09375.796875 2.09375 1.78125 0 1.265625-1.265625 2.015625-3.15625 2.015625-1.9375 0-3.015625-.46875-3.296875-2.53125h-2.28125c.109375 3.125 1.859375 4.515625 5.40625 4.515625 3.40625 0 5.578125-1.578125 5.578125-4.1875zm0 0"/></symbol><symbol id="z" overflow="visible"><path d="m6.65625-11.78125v-1.75h-2.234375v-2.125c0-.90625.515625-1.359375 1.5-1.359375.171875 0 .25 0 .734375.015625v-1.78125c-.484375-.09375-.765625-.125-1.203125-.125-1.984375 0-3.1875 1.140625-3.1875 3.078125v2.296875h-1.796875v1.75h1.796875v11.78125h2.15625v-11.78125zm0 0"/></symbol><symbol id="A" overflow="visible"><path d="m13.25-6.140625c0-1.96875-.15625-3.203125-.546875-4.21875-.875-2.21875-2.9375-3.5625-5.46875-3.5625-3.765625 0-6.203125 2.796875-6.203125 7.234375s2.359375 7.078125 6.15625 7.078125c3.09375 0 5.234375-1.765625 5.78125-4.5h-2.171875c-.59375 1.78125-1.8125 2.515625-3.546875 2.515625-2.234375 0-3.921875-1.453125-3.96875-4.546875zm-2.296875-1.921875s0 .109375-.03125.15625h-7.59375c.1875-2.40625 1.703125-4.03125 3.875-4.03125 2.125 0 3.75 1.765625 3.75 3.875zm.90625-10.765625h-2.921875l-2.484375 3.828125h1.546875zm0 0"/></symbol><symbol id="B" overflow="visible"><path d="m3.90625 0v-18.828125h-2.15625v18.828125zm0 0"/></symbol><symbol id="C" overflow="visible"><path d="m4.953125.40625v-3.09375h-2.703125v2.6875h1.546875v.46875c0 1.78125-.328125 2.296875-1.546875 2.34375v.984375c1.8125 0 2.703125-1.15625 2.703125-3.390625zm0 0"/></symbol><symbol id="D" overflow="visible"><path d="m11.796875 0v-1.890625h-8.390625l8.03125-9.734375v-1.90625h-10.09375v1.875h7.546875l-8.09375 9.71875v1.9375zm0 0"/></symbol><symbol id="E" overflow="visible"><path d="m12.453125 0v-13.53125h-2.140625v7.46875c0 2.75-1.453125 4.5625-3.703125 4.5625-1.703125 0-2.78125-1.03125-2.78125-2.65625v-9.375h-2.15625v10.21875c0 2.25 1.6875 3.703125 4.3125 3.703125 2 0 3.265625-.703125 4.53125-2.484375v2.09375zm0 0"/></symbol><symbol id="F" overflow="visible"><path d="m11-4.828125v-14h-2.40625v13.125c0 3.09375-1.046875 4.15625-2.890625 4.15625-1.796875 0-2.8125-1.21875-2.8125-3.40625v-1.09375h-2.40625v1.53125c0 3.046875 1.921875 4.984375 5.203125 4.984375s5.3125-2.046875 5.3125-5.296875zm0 0"/></symbol><symbol id="G" overflow="visible"><path d="m6.5625 0v-1.8125c-.28125.078125-.625.109375-1.03125.109375-.9375 0-1.1875-.265625-1.1875-1.21875v-8.859375h2.21875v-1.75h-2.21875v-3.71875h-2.140625v3.71875h-1.84375v1.75h1.84375v9.8125c0 1.375.921875 2.15625 2.59375 2.15625.53125 0 1.046875-.0625 1.765625-.1875zm0 0"/></symbol><symbol id="H" overflow="visible"><path d="m13.515625-6.640625c0-4.546875-2.234375-7.28125-5.8125-7.28125-1.84375 0-3.3125.828125-4.3125 2.421875v-2.03125h-1.96875v19.15625h2.140625v-7.25c1.140625 1.390625 2.40625 2.015625 4.15625 2.015625 3.484375 0 5.796875-2.71875 5.796875-7.03125zm-2.25-.046875c0 3.078125-1.578125 5.0625-3.9375 5.0625-2.265625 0-3.765625-1.859375-3.765625-5.03125 0-3.1875 1.5-5.25 3.765625-5.25 2.390625 0 3.9375 1.984375 3.9375 5.21875zm0 0"/></symbol><symbol id="I" overflow="visible"><path d="m17 0-7.75-11.15625 7.671875-7.671875h-3.109375l-9.375 9.53125v-9.53125h-2.390625v18.828125h2.390625v-6.59375l3.078125-3.0625 6.640625 9.65625zm0 0"/></symbol><symbol id="J" overflow="visible"><path d="m8.296875-11.65625v-2.1875c-.375-.046875-.546875-.078125-.828125-.078125-1.40625 0-2.453125.828125-3.703125 2.84375v-2.453125h-1.953125v13.53125h2.140625v-7.03125c0-3.046875 1-4.5625 4.34375-4.625zm0 0"/></symbol><symbol id="K" overflow="visible"><path d="m3.953125 0v-13.53125h-2.140625v13.53125zm.28125-15.578125v-2.6875h-2.6875v2.6875zm0 0"/></symbol><symbol id="L" overflow="visible"><path d="m12.546875-13.53125h-2.421875l-3.828125 10.96875-3.609375-10.96875h-2.421875l4.75 13.53125h2.34375zm0 0"/></symbol><symbol id="M" overflow="visible"><path d="m13.8125-.046875v-1.625c-.234375.046875-.328125.046875-.453125.046875-.75 0-1.171875-.390625-1.171875-1.0625v-7.546875c0-2.390625-1.75-3.6875-5.078125-3.6875-3.28125 0-5.296875 1.265625-5.4375 4.390625h2.171875c.1875-1.65625 1.171875-2.40625 3.1875-2.40625 1.9375 0 3.015625.734375 3.015625 2.015625v.578125c0 .890625-.546875 1.28125-2.25 1.484375-3.046875.390625-3.515625.5-4.328125.828125-1.578125.65625-2.390625 1.859375-2.390625 3.515625 0 2.453125 1.71875 3.90625 4.453125 3.90625 1.71875 0 3.40625-.71875 4.59375-1.984375.234375 1.03125 1.15625 1.78125 2.21875 1.78125.4375 0 .78125-.0625 1.46875-.234375zm-3.765625-4.625c0 1.9375-1.96875 3.171875-4.0625 3.171875-1.671875 0-2.65625-.59375-2.65625-2.0625 0-1.421875.953125-2.046875 3.265625-2.375 2.265625-.3125 2.734375-.421875 3.453125-.75zm1.671875-14.15625h-2.90625l-2.484375 3.828125h1.546875zm0 0"/></symbol><symbol id="N" overflow="visible"><path d="m12.625-2.21875v-11.3125h-1.984375v1.953125c-1.078125-1.59375-2.40625-2.34375-4.125-2.34375-3.4375 0-5.765625 2.890625-5.765625 7.28125 0 4.265625 2.40625 7.03125 5.578125 7.03125 1.703125 0 2.890625-.71875 4.3125-2.4375v.90625c0 3.59375-1.46875 4.96875-3.984375 4.96875-1.703125 0-3.015625-.625-3.265625-2.28125h-2.203125c.234375 2.5625 2.21875 4.078125 5.40625 4.078125 4.234375 0 6.03125-1.875 6.03125-7.84375zm-2.1875-4.46875c0 3.21875-1.390625 5.09375-3.671875 5.09375-2.34375 0-3.765625-1.890625-3.765625-5.171875 0-3.25 1.4375-5.171875 3.734375-5.171875 2.328125 0 3.703125 1.96875 3.703125 5.25zm0 0"/></symbol><symbol id="O" overflow="visible"><path d="m12.453125 0v-13.53125h-2.140625v7.46875c0 2.75-1.453125 4.5625-3.703125 4.5625-1.703125 0-2.78125-1.03125-2.78125-2.65625v-9.375h-2.15625v10.21875c0 2.25 1.6875 3.703125 4.3125 3.703125 2 0 3.265625-.703125 4.53125-2.484375v2.09375zm-.65625-18.828125h-2.90625l-2.484375 3.828125h1.546875zm0 0"/></symbol><symbol id="P" overflow="visible"><path d="m19.625 0v-10.15625c0-2.421875-1.34375-3.765625-3.875-3.765625-1.796875 0-2.890625.546875-4.15625 2.0625-.796875-1.4375-1.875-2.0625-3.640625-2.0625-1.8125 0-3 .671875-4.15625 2.296875v-1.90625h-1.96875v13.53125h2.15625v-8.5c0-1.953125 1.40625-3.53125 3.171875-3.53125 1.59375 0 2.5.984375 2.5 2.703125v9.328125h2.140625v-8.5c0-1.953125 1.453125-3.53125 3.203125-3.53125 1.578125 0 2.484375 1 2.484375 2.703125v9.328125zm0 0"/></symbol><symbol id="Q" overflow="visible"><path d="m12.78125 0v-18.828125h-2.140625v7c-.90625-1.375-2.34375-2.09375-4.15625-2.09375-3.515625 0-5.8125 2.71875-5.8125 7.03125 0 4.5625 2.25 7.28125 5.890625 7.28125 1.859375 0 3.15625-.703125 4.3125-2.375v1.984375zm-2.140625-6.71875c0 3.125-1.5 5.09375-3.765625 5.09375-2.375 0-3.953125-1.984375-3.953125-5.140625s1.578125-5.140625 3.921875-5.140625c2.328125 0 3.796875 2.0625 3.796875 5.1875zm0 0"/></symbol><symbol id="R" overflow="visible"><path d="m13.171875-6.65625c0-4.6875-2.25-7.265625-6.140625-7.265625-3.796875 0-6.09375 2.609375-6.09375 7.15625s2.265625 7.15625 6.109375 7.15625c3.796875 0 6.125-2.609375 6.125-7.046875zm-2.25-.03125c0 3.171875-1.5 5.09375-3.875 5.09375-2.390625 0-3.875-1.890625-3.875-5.171875 0-3.25 1.484375-5.171875 3.875-5.171875 2.4375 0 3.875 1.890625 3.875 5.25zm.875-12.140625h-2.90625l-2.484375 3.828125h1.546875zm0 0"/></symbol><symbol id="S" overflow="visible"><path d="m12.96875 0-5.53125-8.859375 4.703125-4.671875h-2.765625l-5.734375 5.734375v-11.03125h-2.140625v18.828125h2.140625v-5.265625l2.09375-2.0625 4.578125 7.328125zm0 0"/></symbol><symbol id="T" overflow="visible"><path d="m4.9375 0v-2.6875h-2.6875v2.6875zm0-10.84375v-2.6875h-2.6875v2.6875zm0 0"/></symbol><symbol id="U" overflow="visible"><path d="m15.828125 0v-2.125h-11.109375v-6.453125h10.265625v-2.109375h-10.265625v-6.015625h10.65625v-2.125h-13.046875v18.828125zm-1.421875-23.65625h-3.5l-2.984375 3.4375h1.859375zm0 0"/></symbol><symbol id="V" overflow="visible"><path d="m9.296875-5.65625c-1.765625 0-3.4375.59375-4.9375 1.515625-1.96875 1.171875-4.359375 3.21875-4.359375 6.1875 0 2.46875 2.171875 3.609375 4.390625 3.609375 1.765625 0 3.4375-.59375 4.9375-1.515625 1.96875-1.171875 4.3125-3.21875 4.3125-6.1875 0-2.46875-2.140625-3.609375-4.34375-3.609375zm0 0"/></symbol><symbol id="W" overflow="visible"><path d="m15.65625-10.875c-.671875-2.9375-1.46875-5.828125-2.3125-8.703125 4.015625-4.5625 7.65625-9.25 7.65625-15.28125 0-4.71875-2.59375-11.5-5.515625-15.015625-.21875-.171875-.46875-.171875-.671875 0-3.96875 2.890625-6.28125 7.484375-6.28125 12.34375 0 2.171875.046875 4.3125.296875 6.4375.296875 2.71875 1 5.359375 1.765625 8-4.9375 5.609375-10.515625 10.953125-10.515625 18.40625 0 8.40625 6.078125 15.5625 13.9375 15.5625 1.296875 0 2.515625-.125 3.71875-.328125.140625 1.34375.21875 2.671875.21875 4.015625 0 .75-.046875 1.46875-.078125 2.21875-.265625 4.140625-2.8125 7.953125-6.703125 8.03125-.046875 0-.078125.046875-.125.046875-2.140625 0-3.96875-1.21875-5.0625-2.9375.453125.21875.96875.375 1.46875.375 2.171875 0 3.96875-1.796875 3.96875-3.96875 0-2.34375-1.71875-4.359375-3.96875-4.359375-2.46875 0-4.6875 1.9375-4.6875 4.359375 0 4.515625 3.640625 8.15625 8.15625 8.15625 4.9375 0 8.328125-4.4375 8.625-9.453125.03125-.796875.03125-1.546875.03125-2.34375 0-1.5-.078125-3.015625-.203125-4.515625 1.09375-.34375 2.125-.84375 3.046875-1.546875 3.109375-2.3125 4.484375-5.53125 4.484375-8.703125 0-5.53125-4.1875-10.84375-10.625-10.84375-.21875 0-.421875.046875-.625.046875zm3.546875 19.453125c-.578125-5.1875-1.546875-10.125-2.59375-15.015625 4.609375.375 7.5 4.21875 7.5 8.0625 0 2.9375-2.015625 5.953125-4.90625 6.953125zm-16.234375-9.875c0-6.6875 4.515625-11.765625 9.046875-16.828125.65625 2.46875 1.328125 4.9375 1.921875 7.453125-4.234375.96875-6.609375 4.515625-6.609375 8.203125 0 2.921875 1.5 5.90625 4.84375 7.703125.125.03125.25.078125.375.078125.46875 0 .84375-.421875.84375-.875 0-.21875-.125-.421875-.296875-.59375-2.34375-1.328125-3.421875-3.34375-3.421875-5.1875 0-2.46875 1.921875-4.6875 5.21875-5.0625 1.09375 5.03125 2.0625 10 2.6875 15.359375-1.140625.171875-2.265625.25-3.4375.25-5.6875 0-11.171875-4.8125-11.171875-10.5zm14.234375-42.640625c.703125 2.21875.875 3.3125.875 5.734375 0 5.3125-2.8125 9.546875-6.234375 13.59375-.75-2.625-1.390625-5.1875-1.390625-8.359375 0-4.65625 2.609375-8.875 6.75-10.96875zm0 0"/></symbol><symbol id="X" overflow="visible"><path d="m-2.640625-1.96875c0 1.46875 1.171875 2.640625 2.640625 2.640625s2.640625-1.171875 2.640625-2.640625-1.171875-2.640625-2.640625-2.640625-2.640625 1.171875-2.640625 2.640625zm2.640625-13.09375c-6.484375 0-13.765625 7.234375-13.765625 15.140625 0 .34375.328125.59375.671875.59375.296875 0 .625-.21875.703125-.671875 1.09375-6.234375 6.15625-11.09375 12.390625-11.09375s11.296875 4.859375 12.390625 11.09375c.078125.453125.40625.671875.703125.671875.34375 0 .671875-.25.671875-.59375 0-7.90625-7.234375-15.140625-13.765625-15.140625zm0 0"/></symbol><symbol id="Y" overflow="visible"><path d="m8.703125 0v-16.3125h-2.140625c-.515625 1.921875-2.1875 2.921875-5 2.921875v2.140625h3.921875v11.25zm0 0"/></symbol><symbol id="Z" overflow="visible"><path d="m4.921875 0v-3.359375h-3.453125v3.359375zm0 0"/></symbol><g clip-path="url(#a)"><path d="m5.729167 5490.994792h9909.830729" fill="none" stroke="#000" stroke-linecap="round" stroke-miterlimit="10" stroke-width="11.4371" transform="matrix(.06 0 0 -.06 0 400.28)"/></g><g clip-path="url(#b)"><path d="m5.729167 5665.34375h9909.830729" fill="none" stroke="#000" stroke-linecap="round" stroke-miterlimit="10" stroke-width="11.4371" transform="matrix(.06 0 0 -.06 0 400.28)"/></g><g clip-path="url(#c)"><path d="m5.729167 5839.692708h9909.830729" fill="none" stroke="#000" stroke-linecap="round" stroke-miterlimit="10" stroke-width="11.4371" transform="matrix(.06 0 0 -.06 0 400.28)"/></g><g clip-path="url(#d)"><path d="m5.729167 6014.041667h9909.830729" fill="none" stroke="#000" stroke-linecap="round" stroke-miterlimit="10" stroke-width="11.4371" transform="matrix(.06 0 0 -.06 0 400.28)"/></g><g clip-path="url(#e)"><path d="m5.729167 6188.390625h9909.830729" fill="none" stroke="#000" stroke-linecap="round" stroke-miterlimit="10" stroke-width="11.4371" transform="matrix(.06 0 0 -.06 0 400.28)"/></g><path d="m5058.723958 5490.994792v697.395833" fill="none" stroke="#000" stroke-miterlimit="10" stroke-width="21.7235" transform="matrix(.06 0 0 -.06 0 400.28)"/><g clip-path="url(#f)"><path d="m9910.416667 5490.994792v697.395833" fill="none" stroke="#000" stroke-miterlimit="10" stroke-width="21.7235" transform="matrix(.06 0 0 -.06 0 400.28)"/></g><path d="m8217.708333 5790.148437h8.268229v533.333334h-8.268229zm0 0" fill="none" stroke="#000" stroke-linejoin="round" stroke-miterlimit="10" stroke-width="6.64259" transform="matrix(.06 0 0 -.06 0 400.28)"/><path d="m493.0625 52.871094h.496094v-32h-.496094zm0 0"/><use x="469.749939" xlink:href="#s" y="107.430414"/><use x="484.036325" xlink:href="#t" y="107.430414"/><use x="498.322476" xlink:href="#u" y="107.430414"/><use x="480.09796" xlink:href="#V" y="55.12631"/><path d="m7208.854167 5702.973958h8.268229v646.223959h-8.268229zm0 0" fill="none" stroke="#000" stroke-linejoin="round" stroke-miterlimit="10" stroke-width="6.64259" transform="matrix(.06 0 0 -.06 0 400.28)"/><path d="m432.53125 58.101562h.496094v-38.773437h-.496094zm0 0"/><use x="399.7778" xlink:href="#v" y="107.430414"/><use x="413.554651" xlink:href="#w" y="107.430414"/><use x="425.800076" xlink:href="#x" y="107.430414"/><use x="440.086461" xlink:href="#y" y="107.430414"/><use x="419.565839" xlink:href="#V" y="60.35732"/><path d="m6309.114583 5790.148437h8.268229v582.03125h-8.268229zm0 0" fill="none" stroke="#000" stroke-linejoin="round" stroke-miterlimit="10" stroke-width="6.64259" transform="matrix(.06 0 0 -.06 0 400.28)"/><path d="m378.546875 52.871094h.492187v-34.921875h-.492187zm0 0"/><use x="361.780724" xlink:href="#z" y="107.430414"/><use x="368.753876" xlink:href="#A" y="107.430414"/><use x="365.580731" xlink:href="#V" y="55.12631"/><path d="m1451.171875 4998.742187h105.924479v5.664063h-105.924479zm0 0" fill="none" stroke="#000" stroke-linejoin="round" stroke-miterlimit="10" stroke-width="9.15318" transform="matrix(.06 0 0 -.06 0 400.28)"/><path d="m87.070312 100.359375h6.355469v-.34375h-6.355469zm0 0"/><path d="m3649.023437 4998.742187h105.92448v5.664063h-105.92448zm0 0" fill="none" stroke="#000" stroke-linejoin="round" stroke-miterlimit="10" stroke-width="9.15318" transform="matrix(.06 0 0 -.06 0 400.28)"/><path d="m218.941406 100.359375h6.355469v-.34375h-6.355469zm0 0"/><path d="m1227.34375 6016.450521v-77.018229l874.153646 36.132812v77.018229zm0 0" fill="none" stroke="#000" stroke-linejoin="round" stroke-miterlimit="10" stroke-width="6.64259" transform="matrix(.06 0 0 -.06 0 400.28)"/><path d="m73.640625 39.292969v4.621093l52.449219-2.167968v-4.621094zm0 0"/><path d="m6470.507812 4998.742187h105.92448v5.664063h-105.92448zm0 0" fill="none" stroke="#000" stroke-linejoin="round" stroke-miterlimit="10" stroke-width="9.15318" transform="matrix(.06 0 0 -.06 0 400.28)"/><path d="m388.230469 100.359375h6.355469v-.34375h-6.355469zm0 0"/><path d="m8488.28125 4998.742187h105.859375v5.664063h-105.859375zm0 0" fill="none" stroke="#000" stroke-linejoin="round" stroke-miterlimit="10" stroke-width="9.15318" transform="matrix(.06 0 0 -.06 0 400.28)"/><path d="m509.296875 100.359375h6.351563v-.34375h-6.351563zm0 0"/><path d="m5399.479167 6437.414062v-77.083333l2826.497395-72.200521v77.018229zm0 0" fill="none" stroke="#000" stroke-linejoin="round" stroke-miterlimit="10" stroke-width="6.64259" transform="matrix(.06 0 0 -.06 0 400.28)"/><path d="m323.96875 14.035156v4.625l169.589844 4.332032v-4.621094zm0 0"/><path d="m9128.841146 5528.625h8.203125v569.270833h-8.203125zm0 0" fill="none" stroke="#000" stroke-linejoin="round" stroke-miterlimit="10" stroke-width="6.64259" transform="matrix(.06 0 0 -.06 0 400.28)"/><path d="m547.730469 68.5625h.492187v-34.15625h-.492187zm0 0"/><use x="520.843042" xlink:href="#v" y="107.430414"/><use x="535.129427" xlink:href="#t" y="107.430414"/><use x="549.415578" xlink:href="#B" y="107.430414"/><use x="555.198351" xlink:href="#C" y="107.430414"/><use x="534.76307" xlink:href="#V" y="70.818341"/><path d="m1227.34375 5441.450521h8.203125v533.463541h-8.203125zm0 0" fill="none" stroke="#000" stroke-linejoin="round" stroke-miterlimit="10" stroke-width="6.64259" transform="matrix(.06 0 0 -.06 0 400.28)"/><path d="m73.640625 73.792969h.492187v-32.007813h-.492187zm0 0"/><path d="m2093.229167 5528.625h8.268229v481.835937h-8.268229zm0 0" fill="none" stroke="#000" stroke-linejoin="round" stroke-miterlimit="10" stroke-width="6.64259" transform="matrix(.06 0 0 -.06 0 400.28)"/><path d="m125.59375 68.5625h.496094v-28.910156h-.496094zm0 0"/><use x="112.628225" xlink:href="#V" y="70.818341"/><use x="99.388099" xlink:href="#D" y="107.430414"/><use x="112.314394" xlink:href="#E" y="107.430414"/><use x="126.600779" xlink:href="#y" y="107.430414"/><use x="24.216848" xlink:href="#Y" y="107.430414"/><use x="36.97274" xlink:href="#Z" y="107.430414"/><use x="53.896008" xlink:href="#F" y="107.430414"/><use x="66.822537" xlink:href="#A" y="107.430414"/><use x="8.368607" xlink:href="#W" y="60.35732"/><use x="60.672511" xlink:href="#V" y="76.048552"/><use x="230.489461" xlink:href="#G" y="107.430414"/><use x="237.633005" xlink:href="#E" y="107.430414"/><use x="251.91939" xlink:href="#y" y="107.430414"/><use x="264.845678" xlink:href="#C" y="107.430414"/><path d="m5399.479167 5877.322917h8.203125v518.033854h-8.203125zm0 0" fill="none" stroke="#000" stroke-linejoin="round" stroke-miterlimit="10" stroke-width="6.64259" transform="matrix(.06 0 0 -.06 0 400.28)"/><path d="m323.96875 47.640625h.492188v-31.082031h-.492188zm0 0"/><use x="290.618581" xlink:href="#y" y="107.430414"/><use x="303.545104" xlink:href="#D" y="107.430414"/><use x="316.471392" xlink:href="#A" y="107.430414"/><use x="330.757777" xlink:href="#H" y="107.430414"/><use x="311.000622" xlink:href="#V" y="49.896299"/><path d="m4289.583333 5790.148437h8.203125v569.270834h-8.203125zm0 0" fill="none" stroke="#000" stroke-linejoin="round" stroke-miterlimit="10" stroke-width="6.64259" transform="matrix(.06 0 0 -.06 0 400.28)"/><path d="m257.375 52.871094h.492188v-34.15625h-.492188zm0 0"/><use x="244.408489" xlink:href="#V" y="55.12631"/><path d="m3185.742187 5702.973958h8.203125v569.270834h-8.203125zm0 0" fill="none" stroke="#000" stroke-linejoin="round" stroke-miterlimit="10" stroke-width="6.64259" transform="matrix(.06 0 0 -.06 0 400.28)"/><path d="m191.144531 58.101562h.492188v-34.15625h-.492188zm0 0"/><use x="156.264313" xlink:href="#I" y="107.430414"/><use x="173.441952" xlink:href="#J" y="107.430414"/><use x="182.115966" xlink:href="#K" y="107.430414"/><use x="187.898724" xlink:href="#y" y="107.430414"/><use x="200.825261" xlink:href="#D" y="107.430414"/><use x="178.177356" xlink:href="#V" y="60.35732"/><g clip-path="url(#g)"><path d="m5.729167 3398.872396h9909.830729" style="fill:none;stroke-width:11.4371;stroke-linecap:round;stroke-linejoin:round;stroke:#000;stroke-miterlimit:10" transform="matrix(.06 0 0 -.06 0 400.28)"/></g><g clip-path="url(#h)"><path d="m5.729167 3573.221354h9909.830729" style="fill:none;stroke-width:11.4371;stroke-linecap:round;stroke-linejoin:round;stroke:#000;stroke-miterlimit:10" transform="matrix(.06 0 0 -.06 0 400.28)"/></g><g clip-path="url(#i)"><path d="m5.729167 3747.570312h9909.830729" style="fill:none;stroke-width:11.4371;stroke-linecap:round;stroke-linejoin:round;stroke:#000;stroke-miterlimit:10" transform="matrix(.06 0 0 -.06 0 400.28)"/></g><g clip-path="url(#j)"><path d="m5.729167 3921.919271h9909.830729" style="fill:none;stroke-width:11.4371;stroke-linecap:round;stroke-linejoin:round;stroke:#000;stroke-miterlimit:10" transform="matrix(.06 0 0 -.06 0 400.28)"/></g><g clip-path="url(#k)"><path d="m5.729167 4096.268229h9909.830729" style="fill:none;stroke-width:11.4371;stroke-linecap:round;stroke-linejoin:round;stroke:#000;stroke-miterlimit:10" transform="matrix(.06 0 0 -.06 0 400.28)"/></g><path d="m8690.494792 3224.523437h312.630208" style="fill:none;stroke-width:28.8717;stroke-linecap:round;stroke-linejoin:round;stroke:#000;stroke-miterlimit:10" transform="matrix(.06 0 0 -.06 0 400.28)"/><g clip-path="url(#l)"><path d="m9910.416667 3398.872396v697.395833" fill="none" stroke="#000" stroke-linejoin="round" stroke-miterlimit="10" stroke-width="21.7235" transform="matrix(.06 0 0 -.06 0 400.28)"/></g><path d="m5396.875 3398.872396v697.395833" fill="none" stroke="#000" stroke-linejoin="round" stroke-miterlimit="10" stroke-width="21.7235" transform="matrix(.06 0 0 -.06 0 400.28)"/><path d="m7813.736979 3349.328125h8.203125v569.270833h-8.203125zm0 0" fill="none" stroke="#000" stroke-linejoin="round" stroke-miterlimit="10" stroke-width="6.64259" transform="matrix(.06 0 0 -.06 0 400.28)"/><path d="m468.824219 199.320312h.492187v-34.15625h-.492187zm0 0"/><use x="393.783788" xlink:href="#V" y="196.347592"/><use x="391.259783" xlink:href="#L" y="232.959665"/><use x="404.186071" xlink:href="#K" y="232.959665"/><path d="m6779.166667 3436.502604h8.203125v482.356771h-8.203125zm0 0" fill="none" stroke="#000" stroke-linejoin="round" stroke-miterlimit="10" stroke-width="6.64259" transform="matrix(.06 0 0 -.06 0 400.28)"/><path d="m406.75 194.089844h.492188v-28.941406h-.492188zm0 0"/><use x="455.856912" xlink:href="#V" y="201.577603"/><use x="445.507891" xlink:href="#B" y="232.959665"/><use x="451.290635" xlink:href="#M" y="232.959665"/><use x="465.57702" xlink:href="#N" y="232.959665"/><path d="m5744.661458 3523.677083h8.203125v430.794271h-8.203125zm0 0" fill="none" stroke="#000" stroke-linejoin="round" stroke-miterlimit="10" stroke-width="6.64259" transform="matrix(.06 0 0 -.06 0 400.28)"/><path d="m344.679688 188.859375h.492187v-25.847656h-.492187zm0 0"/><path d="m2624.739583 2906.554687h105.924479v5.729167h-105.924479zm0 0" fill="none" stroke="#000" stroke-linejoin="round" stroke-miterlimit="10" stroke-width="9.15318" transform="matrix(.06 0 0 -.06 0 400.28)"/><path d="m157.484375 225.886719h6.355469v-.34375h-6.355469zm0 0"/><path d="m3459.570312 2906.554687h105.92448v5.729167h-105.92448zm0 0" fill="none" stroke="#000" stroke-linejoin="round" stroke-miterlimit="10" stroke-width="9.15318" transform="matrix(.06 0 0 -.06 0 400.28)"/><path d="m207.574219 225.886719h6.355469v-.34375h-6.355469zm0 0"/><path d="m1227.34375 4170.877604v-77.018229l1042.773437-36.132813v77.01823zm0 0" fill="none" stroke="#000" stroke-linejoin="round" stroke-miterlimit="10" stroke-width="6.64259" transform="matrix(.06 0 0 -.06 0 400.28)"/><path d="m73.640625 150.027344v4.621094l62.566406 2.167968v-4.621094zm0 0"/><path d="m7075.976562 2906.554687h105.92448v5.729167h-105.92448zm0 0" fill="none" stroke="#000" stroke-linejoin="round" stroke-miterlimit="10" stroke-width="9.15318" transform="matrix(.06 0 0 -.06 0 400.28)"/><path d="m424.558594 225.886719h6.355468v-.34375h-6.355468zm0 0"/><path d="m8196.419271 2906.554687h105.924479v5.729167h-105.924479zm0 0" fill="none" stroke="#000" stroke-linejoin="round" stroke-miterlimit="10" stroke-width="9.15318" transform="matrix(.06 0 0 -.06 0 400.28)"/><path d="m491.785156 225.886719h6.355469v-.34375h-6.355469zm0 0"/><path d="m5744.661458 3996.528646v-77.018229l1042.708334-36.132813v77.018229zm0 0" fill="none" stroke="#000" stroke-linejoin="round" stroke-miterlimit="10" stroke-width="6.64259" transform="matrix(.06 0 0 -.06 0 400.28)"/><path d="m344.679688 160.488281v4.621094l62.5625 2.167969v-4.621094zm0 0"/><path d="m8949.088542 3262.153646h8.268229v569.270833h-8.268229zm0 0" fill="none" stroke="#000" stroke-linejoin="round" stroke-miterlimit="10" stroke-width="6.64259" transform="matrix(.06 0 0 -.06 0 400.28)"/><path d="m536.945312 204.550781h.496094v-34.15625h-.496094zm0 0"/><use x="510.06102" xlink:href="#N" y="232.959665"/><use x="524.347405" xlink:href="#t" y="232.959665"/><use x="538.633556" xlink:href="#B" y="232.959665"/><use x="544.416329" xlink:href="#C" y="232.959665"/><use x="523.981048" xlink:href="#V" y="206.808613"/><use x="328.506657" xlink:href="#O" y="232.959665"/><use x="342.793042" xlink:href="#u" y="232.959665"/><path d="m1227.34375 3698.026042h8.203125v430.79427h-8.203125zm0 0" fill="none" stroke="#000" stroke-linejoin="round" stroke-miterlimit="10" stroke-width="6.64259" transform="matrix(.06 0 0 -.06 0 400.28)"/><path d="m73.640625 178.398438h.492187v-25.847657h-.492187zm0 0"/><use x="56.021812" xlink:href="#I" y="232.959665"/><use x="73.199452" xlink:href="#K" y="232.959665"/><use x="60.672521" xlink:href="#V" y="180.656561"/><use x="8.368617" xlink:href="#W" y="185.887121"/><use x="178.317357" xlink:href="#G" y="232.959665"/><use x="185.461135" xlink:href="#M" y="232.959665"/><use x="331.711663" xlink:href="#V" y="191.116582"/><path d="m4431.835937 3610.851562h8.203125v569.270834h-8.203125zm0 0" fill="none" stroke="#000" stroke-linejoin="round" stroke-miterlimit="10" stroke-width="6.64259" transform="matrix(.06 0 0 -.06 0 400.28)"/><path d="m265.910156 183.628906h.492188v-34.15625h-.492188zm0 0"/><use x="221.759444" xlink:href="#P" y="232.959665"/><use x="243.359759" xlink:href="#t" y="232.959665"/><use x="257.646144" xlink:href="#Q" y="232.959665"/><use x="271.93253" xlink:href="#y" y="232.959665"/><use x="284.859052" xlink:href="#D" y="232.959665"/><use x="252.941506" xlink:href="#V" y="185.886571"/><path d="m3252.799479 3436.502604h8.268229v569.270833h-8.268229zm0 0" fill="none" stroke="#000" stroke-linejoin="round" stroke-miterlimit="10" stroke-width="6.64259" transform="matrix(.06 0 0 -.06 0 400.28)"/><path d="m195.167969 194.089844h.496093v-34.15625h-.496093zm0 0"/><use x="182.203364" xlink:href="#V" y="196.347592"/><use x="122.745145" xlink:href="#V" y="185.886971"/><use x="116.139232" xlink:href="#z" y="232.959665"/><use x="122.941761" xlink:href="#x" y="232.959665"/><use x="137.228146" xlink:href="#B" y="232.959665"/><path d="m2261.848958 3610.851562h8.268229v482.356771h-8.268229zm0 0" fill="none" stroke="#000" stroke-linejoin="round" stroke-miterlimit="10" stroke-width="6.64259" transform="matrix(.06 0 0 -.06 0 400.28)"/><path d="m135.710938 183.628906h.496093v-28.941406h-.496093zm0 0"/><g clip-path="url(#m)"><path d="m5.729167 1306.684896h9909.830729" style="fill:none;stroke-width:11.4371;stroke-linecap:round;stroke-linejoin:round;stroke:#000;stroke-miterlimit:10" transform="matrix(.06 0 0 -.06 0 400.28)"/></g><g clip-path="url(#n)"><path d="m5.729167 1481.033854h9909.830729" style="fill:none;stroke-width:11.4371;stroke-linecap:round;stroke-linejoin:round;stroke:#000;stroke-miterlimit:10" transform="matrix(.06 0 0 -.06 0 400.28)"/></g><g clip-path="url(#o)"><path d="m5.729167 1655.382812h9909.830729" style="fill:none;stroke-width:11.4371;stroke-linecap:round;stroke-linejoin:round;stroke:#000;stroke-miterlimit:10" transform="matrix(.06 0 0 -.06 0 400.28)"/></g><g clip-path="url(#p)"><path d="m5.729167 1829.731771h9909.830729" style="fill:none;stroke-width:11.4371;stroke-linecap:round;stroke-linejoin:round;stroke:#000;stroke-miterlimit:10" transform="matrix(.06 0 0 -.06 0 400.28)"/></g><g clip-path="url(#q)"><path d="m5.729167 2004.080729h9909.830729" style="fill:none;stroke-width:11.4371;stroke-linecap:round;stroke-linejoin:round;stroke:#000;stroke-miterlimit:10" transform="matrix(.06 0 0 -.06 0 400.28)"/></g><g clip-path="url(#r)"><path d="m9886.979167 1306.684896v697.395833" fill="none" stroke="#000" stroke-linejoin="round" stroke-miterlimit="10" stroke-width="68.6052" transform="matrix(.06 0 0 -.06 0 400.28)"/></g><g fill="none" stroke="#000" stroke-linejoin="round" stroke-miterlimit="10" transform="matrix(.06 0 0 -.06 0 400.28)"><path d="m9807.486979 1306.684896v697.395833" stroke-width="21.7235"/><path d="m5362.565104 1306.684896v697.395833" stroke-width="21.7235"/><path d="m968.75 1132.401042h312.565104" stroke-linecap="round" stroke-width="28.8717"/><path d="m5709.570312 1257.140625h8.26823v533.463542h-8.26823zm0 0" stroke-width="6.64259"/></g><path d="m342.574219 324.851562h.496093v-32.003906h-.496093zm0 0"/><path d="m7742.057292 1431.489583h8.203125v569.270834h-8.203125zm0 0" fill="none" stroke="#000" stroke-linejoin="round" stroke-miterlimit="10" stroke-width="6.64259" transform="matrix(.06 0 0 -.06 0 400.28)"/><path d="m464.523438 314.390625h.492187v-34.15625h-.492187zm0 0"/><use x="441.887884" xlink:href="#u" y="366.868833"/><use x="447.670627" xlink:href="#R" y="366.868833"/><use x="461.957013" xlink:href="#S" y="366.868833"/><use x="451.555903" xlink:href="#V" y="316.646433"/><path d="m6725.846354 1344.315104h8.203125v481.835938h-8.203125zm0 0" fill="none" stroke="#000" stroke-linejoin="round" stroke-miterlimit="10" stroke-width="6.64259" transform="matrix(.06 0 0 -.06 0 400.28)"/><path d="m403.550781 319.621094h.492188v-28.910156h-.492188zm0 0"/><use x="375.982752" xlink:href="#Q" y="366.868833"/><use x="390.269137" xlink:href="#x" y="366.868833"/><use x="404.555522" xlink:href="#v" y="366.868833"/><use x="390.582781" xlink:href="#V" y="321.876943"/><path d="m2721.809896 674.71875h105.924479v5.729167h-105.924479zm0 0" fill="none" stroke="#000" stroke-linejoin="round" stroke-miterlimit="10" stroke-width="9.15318" transform="matrix(.06 0 0 -.06 0 400.28)"/><path d="m163.308594 359.796875h6.355468v-.34375h-6.355468zm0 0"/><path d="m3540.559896 674.71875h105.924479v5.729167h-105.924479zm0 0" fill="none" stroke="#000" stroke-linejoin="round" stroke-miterlimit="10" stroke-width="9.15318" transform="matrix(.06 0 0 -.06 0 400.28)"/><path d="m212.433594 359.796875h6.355468v-.34375h-6.355468zm0 0"/><path d="m1227.34375 1693.924479v-77.018229l1024.414062 36.132812v77.01823zm0 0" fill="none" stroke="#000" stroke-linejoin="round" stroke-miterlimit="10" stroke-width="6.64259" transform="matrix(.06 0 0 -.06 0 400.28)"/><path d="m73.640625 298.644531v4.621094l61.464844-2.167969v-4.621094zm0 0"/><path d="m6057.486979 674.71875h105.924479v5.729167h-105.924479zm0 0" fill="none" stroke="#000" stroke-linejoin="round" stroke-miterlimit="10" stroke-width="9.15318" transform="matrix(.06 0 0 -.06 0 400.28)"/><path d="m363.449219 359.796875h6.355469v-.34375h-6.355469zm0 0"/><path d="m8114.388021 674.71875h105.924479v5.729167h-105.924479zm0 0" fill="none" stroke="#000" stroke-linejoin="round" stroke-miterlimit="10" stroke-width="9.15318" transform="matrix(.06 0 0 -.06 0 400.28)"/><path d="m486.863281 359.796875h6.355469v-.34375h-6.355469zm0 0"/><path d="m5709.570312 1832.140625v-77.018229l1024.479167 36.132812v77.018229zm0 0" fill="none" stroke="#000" stroke-linejoin="round" stroke-miterlimit="10" stroke-width="6.64259" transform="matrix(.06 0 0 -.06 0 400.28)"/><path d="m342.574219 290.351562v4.621094l61.46875-2.167968v-4.621094zm0 0"/><path d="m8856.835937 1344.315104h8.203125v569.270833h-8.203125zm0 0" fill="none" stroke="#000" stroke-linejoin="round" stroke-miterlimit="10" stroke-width="6.64259" transform="matrix(.06 0 0 -.06 0 400.28)"/><path d="m531.410156 319.621094h.492188v-34.15625h-.492188zm0 0"/><use x="505.20401" xlink:href="#S" y="366.868833"/><use x="518.130328" xlink:href="#t" y="366.868833"/><use x="532.416713" xlink:href="#B" y="366.868833"/><use x="538.199486" xlink:href="#T" y="366.868833"/><use x="525.273051" xlink:href="#X" y="276.928753"/><use x="518.443117" xlink:href="#V" y="321.876843"/><path d="m1227.34375 1169.966146h8.203125v482.356771h-8.203125zm0 0" fill="none" stroke="#000" stroke-linejoin="round" stroke-miterlimit="10" stroke-width="6.64259" transform="matrix(.06 0 0 -.06 0 400.28)"/><path d="m73.640625 330.082031h.492187v-28.941406h-.492187zm0 0"/><use x="52.450405" xlink:href="#U" y="366.868833"/><use x="69.628045" xlink:href="#y" y="366.868833"/><use x="60.672521" xlink:href="#V" y="332.337564"/><use x="8.368617" xlink:href="#W" y="311.416022"/><path d="m4418.164062 1518.664062h8.203125v569.270834h-8.203125zm0 0" fill="none" stroke="#000" stroke-linejoin="round" stroke-miterlimit="10" stroke-width="6.64259" transform="matrix(.06 0 0 -.06 0 400.28)"/><path d="m265.089844 309.160156h.492187v-34.15625h-.492187zm0 0"/><use x="231.739463" xlink:href="#Q" y="366.868833"/><use x="246.025849" xlink:href="#t" y="366.868833"/><use x="260.312234" xlink:href="#y" y="366.868833"/><use x="273.238522" xlink:href="#D" y="366.868833"/><use x="252.121504" xlink:href="#V" y="311.416122"/><use x="121.646243" xlink:href="#V" y="327.107354"/><path d="m3259.765625 1344.315104h8.203125v569.270833h-8.203125zm0 0" fill="none" stroke="#000" stroke-linejoin="round" stroke-miterlimit="10" stroke-width="6.64259" transform="matrix(.06 0 0 -.06 0 400.28)"/><path d="m195.585938 319.621094h.492187v-34.15625h-.492187zm0 0"/><use x="179.414359" xlink:href="#M" y="366.868833"/><use x="193.70051" xlink:href="#B" y="366.868833"/><use x="182.619365" xlink:href="#V" y="321.876943"/><path d="m2243.554687 1257.140625h8.203125v430.794271h-8.203125zm0 0" fill="none" stroke="#000" stroke-linejoin="round" stroke-miterlimit="10" stroke-width="6.64259" transform="matrix(.06 0 0 -.06 0 400.28)"/><path d="m134.613281 324.851562h.492188v-25.847656h-.492188zm0 0"/><use x="329.609659" xlink:href="#V" y="327.107254"/><use x="103.389207" xlink:href="#P" y="366.868833"/><use x="124.989757" xlink:href="#x" y="366.868833"/><use x="139.275908" xlink:href="#N" y="366.868833"/><use x="315.604313" xlink:href="#P" y="366.868833"/><use x="337.204848" xlink:href="#K" y="366.868833"/><use x="342.987592" xlink:href="#v" y="366.868833"/></svg>