<svg height="841.84em" viewBox="0 0 595.28 841.84" width="595.28em" xmlns="http://www.w3.org/2000/svg" xmlns:xlink="http://www.w3.org/1999/xlink"><clipPath id="a"><path d="m0 56h595.28125v2h-595.28125zm0 0"/></clipPath><clipPath id="b"><path d="m0 48h595.28125v2h-595.28125zm0 0"/></clipPath><clipPath id="c"><path d="m0 40h595.28125v1h-595.28125zm0 0"/></clipPath><clipPath id="d"><path d="m0 31h595.28125v2h-595.28125zm0 0"/></clipPath><clipPath id="e"><path d="m0 23h595.28125v1h-595.28125zm0 0"/></clipPath><clipPath id="f"><path d="m0 160h595.28125v1h-595.28125zm0 0"/></clipPath><clipPath id="g"><path d="m0 151h595.28125v2h-595.28125zm0 0"/></clipPath><clipPath id="h"><path d="m0 143h595.28125v1h-595.28125zm0 0"/></clipPath><clipPath id="i"><path d="m0 134h595.28125v2h-595.28125zm0 0"/></clipPath><clipPath id="j"><path d="m0 126h595.28125v1h-595.28125zm0 0"/></clipPath><clipPath id="k"><path d="m0 269h595.28125v2h-595.28125zm0 0"/></clipPath><clipPath id="l"><path d="m0 261h595.28125v1h-595.28125zm0 0"/></clipPath><clipPath id="m"><path d="m0 252h595.28125v2h-595.28125zm0 0"/></clipPath><clipPath id="n"><path d="m0 244h595.28125v1h-595.28125zm0 0"/></clipPath><clipPath id="o"><path d="m0 235h595.28125v2h-595.28125zm0 0"/></clipPath><clipPath id="p"><path d="m591 234h4.28125v38h-4.28125zm0 0"/></clipPath><clipPath id="q"><path d="m0 371h595.28125v1h-595.28125zm0 0"/></clipPath><clipPath id="r"><path d="m0 362h595.28125v2h-595.28125zm0 0"/></clipPath><clipPath id="s"><path d="m0 354h595.28125v1h-595.28125zm0 0"/></clipPath><clipPath id="t"><path d="m0 345h595.28125v2h-595.28125zm0 0"/></clipPath><clipPath id="u"><path d="m0 337h595.28125v1h-595.28125zm0 0"/></clipPath><clipPath id="v"><path d="m0 472h595.28125v2h-595.28125zm0 0"/></clipPath><clipPath id="w"><path d="m0 464h595.28125v1h-595.28125zm0 0"/></clipPath><clipPath id="x"><path d="m0 455h595.28125v2h-595.28125zm0 0"/></clipPath><clipPath id="y"><path d="m0 447h595.28125v2h-595.28125zm0 0"/></clipPath><clipPath id="z"><path d="m0 438h595.28125v2h-595.28125zm0 0"/></clipPath><clipPath id="A"><path d="m594 438h1.28125v36h-1.28125zm0 0"/></clipPath><clipPath id="B"><path d="m0 574h595.28125v2h-595.28125zm0 0"/></clipPath><clipPath id="C"><path d="m0 565h595.28125v2h-595.28125zm0 0"/></clipPath><clipPath id="D"><path d="m0 557h595.28125v2h-595.28125zm0 0"/></clipPath><clipPath id="E"><path d="m0 549h595.28125v1h-595.28125zm0 0"/></clipPath><clipPath id="F"><path d="m0 540h595.28125v2h-595.28125zm0 0"/></clipPath><clipPath id="G"><path d="m591 539h4.28125v38h-4.28125zm0 0"/></clipPath><clipPath id="H"><path d="m0 679h595.28125v2h-595.28125zm0 0"/></clipPath><clipPath id="I"><path d="m0 671h595.28125v2h-595.28125zm0 0"/></clipPath><clipPath id="J"><path d="m0 662h595.28125v2h-595.28125zm0 0"/></clipPath><clipPath id="K"><path d="m0 654h595.28125v2h-595.28125zm0 0"/></clipPath><clipPath id="L"><path d="m0 646h595.28125v1h-595.28125zm0 0"/></clipPath><clipPath id="M"><path d="m0 781h595.28125v2h-595.28125zm0 0"/></clipPath><clipPath id="N"><path d="m0 773h595.28125v1h-595.28125zm0 0"/></clipPath><clipPath id="O"><path d="m0 764h595.28125v2h-595.28125zm0 0"/></clipPath><clipPath id="P"><path d="m0 756h595.28125v1h-595.28125zm0 0"/></clipPath><clipPath id="Q"><path d="m0 747h595.28125v2h-595.28125zm0 0"/></clipPath><clipPath id="R"><path d="m591 746h4.28125v38h-4.28125zm0 0"/></clipPath><symbol id="S" overflow="visible"><path d="m-.78125 3.828125c0 1.828125 1.59375 5.046875 3.15625 6.90625.203125.234375.53125-.0625.328125-.296875-.5625-.71875-.9375-2.078125-.9375-3.25 0-1.390625.40625-2.375 1.75-2.375 1.234375 0 2.8125.703125 3.46875 1.453125.09375.140625.234375.171875.328125.171875.234375 0 .484375-.234375.484375-.46875 0-.109375-.046875-.171875-.109375-.28125l-2.9375-3.515625c-.546875-.6875-.828125-1.453125-.828125-2.28125 0-1.046875.453125-2.125 1.328125-2.875 1.25-1.078125 2.90625-2.125 2.90625-3.25 0-.265625-.09375-.578125-.328125-.84375l-5.15625-6.171875c-.09375-.125-.234375-.171875-.328125-.171875-.25 0-.484375.25-.484375.484375 0 .09375.03125.203125.109375.296875l1.3125 1.5625c.546875.671875.8125 1.453125.8125 2.265625 0 1.0625-.4375 2.140625-1.3125 2.890625-1.25 1.078125-2.921875 2.125-2.921875 3.25 0 .265625.109375.578125.34375.84375l4.640625 5.546875c-1.53125-.734375-3.25-1.25-4.40625-1.25-.875 0-1.21875.484375-1.21875 1.359375zm0 0"/></symbol><symbol id="T" overflow="visible"><path d="m7.515625-4.578125c-1.421875 0-2.765625.484375-4 1.21875-1.578125.953125-3.515625 2.609375-3.515625 5.015625 0 2 1.765625 2.921875 3.5625 2.921875 1.421875 0 2.765625-.484375 3.984375-1.21875 1.59375-.953125 3.5-2.609375 3.5-5.015625 0-2-1.734375-2.921875-3.53125-2.921875zm0 0"/></symbol><symbol id="U" overflow="visible"><path d="m7.28125 10.703125v-5.515625l1.65625-.578125c.203125-.0625.375-.265625.375-.515625v-2.203125c0-.359375-.375-.640625-.703125-.5l-1.328125.46875v-5.546875l1.65625-.609375c.203125-.078125.375-.28125.375-.515625v-2.171875c0-.359375-.375-.640625-.703125-.5l-1.328125.4375v-5.078125c0-.3125-.265625-.578125-.578125-.578125-.296875 0-.578125.265625-.578125.578125v5.484375l-2.9375 1.046875v-5.109375c0-.3125-.28125-.578125-.578125-.578125-.3125 0-.578125.265625-.578125.578125v5.515625l-1.65625.578125c-.203125.0625-.375.265625-.375.515625v2.203125c0 .359375.375.640625.71875.5l1.3125-.46875v5.546875l-1.65625.609375c-.203125.078125-.375.28125-.375.515625v2.171875c0 .359375.375.640625.71875.5l1.3125-.4375v5.078125c0 .3125.265625.578125.578125.578125.296875 0 .578125-.265625.578125-.578125v-5.484375l2.9375-1.046875v5.109375c0 .3125.28125.578125.578125.578125.3125 0 .578125-.265625.578125-.578125zm-4.09375-12.96875 2.9375-1.015625v5.546875l-2.9375 1.015625zm0 0"/></symbol><symbol id="V" overflow="visible"><path d="m12.671875-8.8125c-.546875-2.359375-1.1875-4.703125-1.859375-7.046875 3.25-3.6875 6.1875-7.484375 6.1875-12.359375 0-3.828125-2.09375-9.3125-4.46875-12.15625-.171875-.140625-.375-.140625-.546875 0-3.203125 2.328125-5.078125 6.0625-5.078125 9.984375 0 1.765625.03125 3.5.234375 5.21875.25 2.203125.8125 4.34375 1.4375 6.46875-4 4.546875-8.515625 8.875-8.515625 14.90625 0 6.8125 4.921875 12.609375 11.28125 12.609375 1.046875 0 2.03125-.109375 3.015625-.28125.109375 1.09375.171875 2.171875.171875 3.25 0 .609375-.03125 1.1875-.0625 1.796875-.203125 3.359375-2.28125 6.4375-5.421875 6.515625-.03125 0-.0625.03125-.109375.03125-1.71875 0-3.21875-.984375-4.09375-2.375.375.171875.78125.3125 1.1875.3125 1.765625 0 3.21875-1.46875 3.21875-3.21875 0-1.90625-1.390625-3.53125-3.21875-3.53125-2 0-3.796875 1.5625-3.796875 3.53125 0 3.65625 2.953125 6.59375 6.609375 6.59375 4 0 6.734375-3.578125 6.96875-7.65625.046875-.640625.046875-1.25.046875-1.890625 0-1.21875-.078125-2.4375-.171875-3.65625.875-.28125 1.71875-.6875 2.46875-1.25 2.5-1.875 3.625-4.484375 3.625-7.046875 0-4.484375-3.390625-8.78125-8.609375-8.78125-.15625 0-.328125.03125-.5.03125zm2.875 15.75c-.46875-4.1875-1.25-8.1875-2.09375-12.15625 3.71875.3125 6.0625 3.421875 6.0625 6.546875 0 2.359375-1.625 4.796875-3.96875 5.609375zm-13.140625-7.984375c0-5.421875 3.65625-9.515625 7.3125-13.625.546875 2 1.09375 4 1.5625 6.03125-3.421875.78125-5.359375 3.65625-5.359375 6.640625 0 2.375 1.21875 4.78125 3.9375 6.234375.09375.03125.203125.0625.296875.0625.375 0 .6875-.328125.6875-.703125 0-.171875-.109375-.34375-.234375-.484375-1.90625-1.078125-2.78125-2.703125-2.78125-4.1875 0-2 1.5625-3.796875 4.234375-4.109375.875 4.0625 1.65625 8.09375 2.171875 12.4375-.921875.140625-1.84375.203125-2.78125.203125-4.609375 0-9.046875-3.890625-9.046875-8.5zm11.515625-34.515625c.578125 1.796875.71875 2.671875.71875 4.640625 0 4.296875-2.28125 7.71875-5.046875 11-.609375-2.125-1.125-4.203125-1.125-6.765625 0-3.765625 2.09375-7.1875 5.453125-8.875zm0 0"/></symbol><symbol id="W" overflow="visible"><path d="m0 0c0 1.078125.84375 1.9375 1.9375 1.9375 1.078125 0 1.921875-.859375 1.921875-1.9375s-.84375-1.9375-1.921875-1.9375c-1.09375 0-1.9375.859375-1.9375 1.9375zm0 0"/></symbol><symbol id="X" overflow="visible"><path d="m10.703125-2.265625c0 .328125-.09375.703125-.34375.984375-.703125.84375-2.328125 1.890625-3.625 2.703125-1.28125.8125-2.90625 1.890625-3.953125 2.203125-.140625.03125-.3125.0625-.4375.0625-.75 0-1.421875-.578125-1.421875-1.421875 0-.328125.09375-.703125.328125-.984375.71875-.84375 2.34375-1.890625 3.625-2.703125 1.296875-.8125 2.921875-1.890625 3.96875-2.203125.140625-.03125.296875-.0625.4375-.0625.75 0 1.421875.578125 1.421875 1.421875zm-1.71875-2.3125c-2.546875 0-4.609375.546875-6.40625 1.765625-1.09375.75-1.796875 1.890625-2.203125 3.15625-.203125.609375-.375 1.28125-.375 1.921875 0 1.59375 1.15625 2.3125 2.640625 2.3125 2.546875 0 4.609375-.546875 6.40625-1.765625 1.078125-.75 1.796875-1.890625 2.203125-3.15625.203125-.609375.375-1.28125.375-1.921875 0-1.59375-1.15625-2.3125-2.640625-2.3125zm0 0"/></symbol><symbol id="Y" overflow="visible"><path d="m-2.140625-1.59375c0 1.1875.953125 2.140625 2.140625 2.140625s2.140625-.953125 2.140625-2.140625-.953125-2.125-2.140625-2.125-2.140625.9375-2.140625 2.125zm2.140625-10.59375c-5.25 0-11.140625 5.859375-11.140625 12.25 0 .28125.265625.484375.53125.484375.25 0 .515625-.171875.578125-.546875.890625-5.046875 4.984375-8.984375 10.03125-8.984375s9.140625 3.9375 10.03125 8.984375c.0625.375.328125.546875.578125.546875.265625 0 .53125-.203125.53125-.484375 0-6.390625-5.859375-12.25-11.140625-12.25zm0 0"/></symbol><symbol id="Z" overflow="visible"><path d="m9.59375-3.078125c0-1.625-.921875-2.4375-3.09375-2.96875l-1.671875-.390625c-1.421875-.34375-2.03125-.796875-2.03125-1.5625 0-1.015625.90625-1.65625 2.328125-1.65625 1.390625 0 2.15625.609375 2.1875 1.75h1.84375c-.015625-2.15625-1.4375-3.359375-3.96875-3.359375-2.546875 0-4.203125 1.3125-4.203125 3.34375 0 1.71875.875 2.53125 3.46875 3.15625l1.625.390625c1.21875.296875 1.703125.65625 1.703125 1.453125 0 1.015625-1.03125 1.625-2.5625 1.625-1.5625 0-2.4375-.375-2.671875-2.046875h-1.84375c.09375 2.53125 1.515625 3.65625 4.375 3.65625 2.765625 0 4.515625-1.28125 4.515625-3.390625zm0 0"/></symbol><symbol id="aa" overflow="visible"><path d="m11.1875-.046875v-1.3125c-.1875.046875-.28125.046875-.375.046875-.609375 0-.9375-.3125-.9375-.859375v-6.109375c0-1.9375-1.421875-2.984375-4.125-2.984375-2.65625 0-4.28125 1.015625-4.390625 3.546875h1.75c.15625-1.328125.953125-1.9375 2.578125-1.9375 1.5625 0 2.4375.578125 2.4375 1.625v.46875c0 .71875-.4375 1.046875-1.8125 1.203125-2.46875.3125-2.84375.40625-3.515625.671875-1.265625.53125-1.921875 1.5-1.921875 2.84375 0 1.984375 1.390625 3.15625 3.59375 3.15625 1.40625 0 2.765625-.578125 3.71875-1.609375.203125.84375.953125 1.4375 1.8125 1.4375.34375 0 .625-.03125 1.1875-.1875zm-3.0625-3.734375c0 1.5625-1.578125 2.5625-3.28125 2.5625-1.359375 0-2.140625-.46875-2.140625-1.671875 0-1.140625.765625-1.640625 2.625-1.921875 1.84375-.25 2.21875-.328125 2.796875-.609375zm0 0"/></symbol><symbol id="ab" overflow="visible"><path d="m3.15625 0v-15.234375h-1.734375v15.234375zm0 0"/></symbol><symbol id="ac" overflow="visible"><path d="m4.015625.328125v-2.5h-2.203125v2.171875h1.265625v.375c0 1.4375-.28125 1.859375-1.265625 1.90625v.796875c1.46875 0 2.203125-.953125 2.203125-2.75zm0 0"/></symbol><symbol id="ad" overflow="visible"><path d="m10.34375 0v-15.234375h-1.734375v5.65625c-.734375-1.109375-1.90625-1.6875-3.359375-1.6875-2.84375 0-4.703125 2.1875-4.703125 5.6875 0 3.703125 1.8125 5.890625 4.765625 5.890625 1.5 0 2.546875-.5625 3.484375-1.921875v1.609375zm-1.734375-5.4375c0 2.53125-1.203125 4.125-3.046875 4.125-1.921875 0-3.203125-1.609375-3.203125-4.171875 0-2.546875 1.28125-4.15625 3.1875-4.15625 1.875 0 3.0625 1.671875 3.0625 4.203125zm0 0"/></symbol><symbol id="ae" overflow="visible"><path d="m11.1875-.046875v-1.3125c-.1875.046875-.28125.046875-.375.046875-.609375 0-.9375-.3125-.9375-.859375v-6.109375c0-1.9375-1.421875-2.984375-4.125-2.984375-2.65625 0-4.28125 1.015625-4.390625 3.546875h1.75c.15625-1.328125.953125-1.9375 2.578125-1.9375 1.5625 0 2.4375.578125 2.4375 1.625v.46875c0 .71875-.4375 1.046875-1.8125 1.203125-2.46875.3125-2.84375.40625-3.515625.671875-1.265625.53125-1.921875 1.5-1.921875 2.84375 0 1.984375 1.390625 3.15625 3.59375 3.15625 1.40625 0 2.765625-.578125 3.71875-1.609375.203125.84375.953125 1.4375 1.8125 1.4375.34375 0 .625-.03125 1.1875-.1875zm-3.0625-3.734375c0 1.5625-1.578125 2.5625-3.28125 2.5625-1.359375 0-2.140625-.46875-2.140625-1.671875 0-1.140625.765625-1.640625 2.625-1.921875 1.84375-.25 2.21875-.328125 2.796875-.609375zm1.359375-11.453125h-2.359375l-2 3.09375h1.25zm0 0"/></symbol><symbol id="af" overflow="visible"><path d="m13.46875 0v-15.234375h-1.953125v6.578125h-7.84375v-6.578125h-1.9375v15.234375h1.9375v-6.9375h7.84375v6.9375zm0 0"/></symbol><symbol id="ag" overflow="visible"><path d="m10.65625-5.390625c0-3.78125-1.8125-5.875-4.96875-5.875-3.078125 0-4.9375 2.109375-4.9375 5.78125 0 3.6875 1.84375 5.796875 4.953125 5.796875 3.078125 0 4.953125-2.109375 4.953125-5.703125zm-1.8125-.03125c0 2.578125-1.21875 4.125-3.140625 4.125-1.9375 0-3.125-1.53125-3.125-4.1875 0-2.625 1.1875-4.171875 3.125-4.171875 1.96875 0 3.140625 1.53125 3.140625 4.234375zm0 0"/></symbol><symbol id="ah" overflow="visible"><path d="m10.21875-1.796875v-9.15625h-1.609375v1.59375c-.875-1.296875-1.9375-1.90625-3.34375-1.90625-2.78125 0-4.65625 2.34375-4.65625 5.890625 0 3.453125 1.9375 5.6875 4.515625 5.6875 1.375 0 2.34375-.578125 3.484375-1.96875v.734375c0 2.90625-1.1875 4.015625-3.21875 4.015625-1.375 0-2.4375-.5-2.65625-1.84375h-1.765625c.1875 2.078125 1.796875 3.3125 4.359375 3.3125 3.4375 0 4.890625-1.53125 4.890625-6.359375zm-1.765625-3.625c0 2.625-1.140625 4.125-2.96875 4.125-1.90625 0-3.0625-1.53125-3.0625-4.1875 0-2.625 1.171875-4.171875 3.03125-4.171875 1.890625 0 3 1.59375 3 4.234375zm0 0"/></symbol><symbol id="ai" overflow="visible"><path d="m10-10.953125h-1.890625l-3.03125 8.53125-2.796875-8.53125h-1.859375l3.703125 11-.671875 1.734375c-.296875.765625-.65625 1.0625-1.40625 1.0625-.25 0-.546875-.046875-.921875-.125v1.5625c.359375.1875.71875.28125 1.171875.28125 1.234375 0 2.234375-.6875 2.828125-2.265625zm0 0"/></symbol><symbol id="aj" overflow="visible"><path d="m12.8125 0v-1.71875h-8.984375v-5.21875h8.296875v-1.71875h-8.296875v-4.875h8.609375v-1.703125h-10.5625v15.234375zm0 0"/></symbol><symbol id="ak" overflow="visible"><path d="m9.546875 0v-1.53125h-6.78125l6.5-7.875v-1.546875h-8.171875v1.53125h6.09375l-6.546875 7.859375v1.5625zm0 0"/></symbol><symbol id="al" overflow="visible"><path d="m5.3125 0v-1.46875c-.234375.0625-.5.09375-.84375.09375-.75 0-.953125-.21875-.953125-.984375v-7.171875h1.796875v-1.421875h-1.796875v-3.015625h-1.734375v3.015625h-1.484375v1.421875h1.484375v7.9375c0 1.109375.75 1.734375 2.109375 1.734375.421875 0 .828125-.03125 1.421875-.140625zm0 0"/></symbol><symbol id="am" overflow="visible"><path d="m10.71875-4.96875c0-1.59375-.125-2.59375-.4375-3.421875-.703125-1.796875-2.375-2.875-4.421875-2.875-3.0625 0-5.015625 2.25-5.015625 5.84375 0 3.609375 1.890625 5.734375 4.96875 5.734375 2.515625 0 4.25-1.421875 4.6875-3.640625h-1.765625c-.46875 1.453125-1.453125 2.03125-2.859375 2.03125-1.8125 0-3.171875-1.171875-3.21875-3.671875zm-1.859375-1.546875s0 .078125-.015625.125h-6.140625c.140625-1.953125 1.375-3.265625 3.125-3.265625 1.71875 0 3.03125 1.421875 3.03125 3.140625zm0 0"/></symbol><symbol id="an" overflow="visible"><path d="m10.1875 0v-8.28125c0-1.8125-1.359375-2.984375-3.484375-2.984375-1.625 0-2.671875.625-3.625 2.15625v-1.84375h-1.609375v10.953125h1.734375v-6.046875c0-2.234375 1.203125-3.703125 2.984375-3.703125 1.375 0 2.265625.84375 2.265625 2.15625v7.59375zm0 0"/></symbol><symbol id="ao" overflow="visible"><path d="m10.65625-5.390625c0-3.78125-1.8125-5.875-4.96875-5.875-3.078125 0-4.9375 2.109375-4.9375 5.78125 0 3.6875 1.84375 5.796875 4.953125 5.796875 3.078125 0 4.953125-2.109375 4.953125-5.703125zm-1.8125-.03125c0 2.578125-1.21875 4.125-3.140625 4.125-1.9375 0-3.125-1.53125-3.125-4.1875 0-2.625 1.1875-4.171875 3.125-4.171875 1.96875 0 3.140625 1.53125 3.140625 4.234375zm-1.21875-9.84375h-2.359375l-2 3.140625h1.25zm3.4375 0h-2.359375l-2.015625 3.140625h1.25zm0 0"/></symbol><symbol id="ap" overflow="visible"><path d="m10.15625 0v-8.28125c0-1.84375-1.3125-2.984375-3.453125-2.984375-1.546875 0-2.484375.484375-3.5 1.8125v-5.78125h-1.734375v15.234375h1.734375v-6.046875c0-2.234375 1.171875-3.703125 2.96875-3.703125 1.234375 0 2.25.71875 2.25 2.15625v7.59375zm0 0"/></symbol><symbol id="aq" overflow="visible"><path d="m10.15625-10.953125h-1.96875l-3.09375 8.890625-2.921875-8.890625h-1.96875l3.859375 10.953125h1.890625zm0 0"/></symbol><symbol id="ar" overflow="visible"><path d="m3.78125 0v-10.953125h-1.734375v10.953125zm2.65625-15.234375h-2.359375l-2.015625 3.09375h1.265625zm0 0"/></symbol><symbol id="as" overflow="visible"><path d="m4 0v-2.171875h-2.1875v2.171875zm0 0"/></symbol><symbol id="at" overflow="visible"><path d="m15.890625 0v-8.21875c0-1.96875-1.09375-3.046875-3.140625-3.046875-1.453125 0-2.34375.4375-3.359375 1.671875-.65625-1.171875-1.53125-1.671875-2.953125-1.671875-1.46875 0-2.421875.546875-3.359375 1.859375v-1.546875h-1.59375v10.953125h1.734375v-6.875c0-1.59375 1.15625-2.875 2.578125-2.875 1.296875 0 2.015625.796875 2.015625 2.203125v7.546875h1.734375v-6.875c0-1.59375 1.171875-2.875 2.59375-2.875 1.28125 0 2.015625.828125 2.015625 2.203125v7.546875zm0 0"/></symbol><symbol id="au" overflow="visible"><path d="m3.203125 0v-10.953125h-1.734375v10.953125zm.21875-12.609375v-2.171875h-2.171875v2.171875zm0 0"/></symbol><symbol id="av" overflow="visible"><path d="m4.03125 0v-15.234375h-1.9375v15.234375zm0 0"/></symbol><symbol id="aw" overflow="visible"><path d="m13.484375-4.640625v-10.59375h-1.9375v10.59375c0 2.046875-1.484375 3.296875-3.9375 3.296875-2.28125 0-3.890625-1.078125-3.890625-3.296875v-10.59375h-1.9375v10.59375c0 3.09375 2.21875 5.015625 5.828125 5.015625 3.578125 0 5.875-1.96875 5.875-5.015625zm-1.4375-14.515625h-2.84375l-2.40625 2.78125h1.5zm0 0"/></symbol><symbol id="ax" overflow="visible"><path d="m6.703125-9.421875v-1.78125c-.28125-.046875-.4375-.0625-.65625-.0625-1.140625 0-1.984375.671875-3 2.296875v-1.984375h-1.578125v10.953125h1.734375v-5.6875c0-2.46875.8125-3.703125 3.5-3.734375zm0 0"/></symbol><symbol id="ay" overflow="visible"><path d="m13.9375-7.625c0-4.734375-2.328125-7.609375-6.203125-7.609375h-5.875v15.234375h5.875c3.84375 0 6.203125-2.890625 6.203125-7.625zm-1.9375.015625c0 3.84375-1.59375 5.890625-4.59375 5.890625h-3.59375v-11.8125h3.59375c3 0 4.59375 2.03125 4.59375 5.921875zm0 0"/></symbol><symbol id="az" overflow="visible"><path d="m13.75 0-6.265625-9.03125 6.203125-6.203125h-2.5l-7.59375 7.703125v-7.703125h-1.9375v15.234375h1.9375v-5.328125l2.484375-2.484375 5.375 7.8125zm0 0"/></symbol><symbol id="aA" overflow="visible"><path d="m3.203125 2.28125v-13.234375h-1.734375v12.546875c0 1.046875-.359375 1.5-1.421875 1.4375l-.421875-.015625v1.484375c.203125.03125.3125.0625.578125.0625 1.96875 0 3-.796875 3-2.28125zm.21875-14.890625v-2.171875h-2.171875v2.171875zm0 0"/></symbol><symbol id="aB" overflow="visible"><path d="m9.96875-3.765625h-1.75c-.296875 1.765625-1.1875 2.46875-2.671875 2.46875-1.9375 0-3.078125-1.484375-3.078125-4.078125 0-2.734375 1.125-4.28125 3.03125-4.28125 1.46875 0 2.375.859375 2.59375 2.375h1.75c-.203125-2.671875-1.875-3.984375-4.328125-3.984375-2.9375 0-4.875 2.25-4.875 5.890625 0 3.53125 1.890625 5.6875 4.859375 5.6875 2.609375 0 4.265625-1.5625 4.46875-4.078125zm0 0"/></symbol><symbol id="aC" overflow="visible"><path d="m10.71875-4.96875c0-1.59375-.125-2.59375-.4375-3.421875-.703125-1.796875-2.375-2.875-4.421875-2.875-3.0625 0-5.015625 2.25-5.015625 5.84375 0 3.609375 1.890625 5.734375 4.96875 5.734375 2.515625 0 4.25-1.421875 4.6875-3.640625h-1.765625c-.46875 1.453125-1.453125 2.03125-2.859375 2.03125-1.8125 0-3.171875-1.171875-3.21875-3.671875zm-1.859375-1.546875s0 .078125-.015625.125h-6.140625c.140625-1.953125 1.375-3.265625 3.125-3.265625 1.71875 0 3.03125 1.421875 3.03125 3.140625zm.734375-8.71875h-2.359375l-2.015625 3.09375h1.265625zm0 0"/></symbol><symbol id="aD" overflow="visible"><path d="m10.5 0-4.484375-7.171875 3.8125-3.78125h-2.234375l-4.640625 4.640625v-8.921875h-1.734375v15.234375h1.734375v-4.265625l1.6875-1.671875 3.703125 5.9375zm0 0"/></symbol><symbol id="aE" overflow="visible"><path d="m12.390625-13.53125v-1.703125h-11.953125v1.703125h5.015625v13.53125h1.953125v-13.53125zm0 0"/></symbol><symbol id="aF" overflow="visible"><path d="m4.015625-8.78125v-2.171875h-2.171875v2.171875zm0 9.109375v-2.5h-2.203125v2.171875h1.265625v.375c0 1.4375-.28125 1.859375-1.265625 1.90625v.796875c1.46875 0 2.203125-.953125 2.203125-2.75zm0 0"/></symbol><symbol id="aG" overflow="visible"><path d="m10.9375-5.375c0-3.671875-1.796875-5.890625-4.703125-5.890625-1.484375 0-2.6875.671875-3.5 1.96875v-1.65625h-1.578125v15.515625h1.734375v-5.875c.921875 1.125 1.9375 1.625 3.359375 1.625 2.828125 0 4.6875-2.1875 4.6875-5.6875zm-1.828125-.046875c0 2.5-1.265625 4.109375-3.171875 4.109375-1.84375 0-3.046875-1.515625-3.046875-4.078125 0-2.578125 1.203125-4.25 3.046875-4.25 1.921875 0 3.171875 1.609375 3.171875 4.21875zm0 0"/></symbol><symbol id="aH" overflow="visible"><path d="m13.5 0v-15.234375h-1.828125v12.453125l-7.96875-12.453125h-2.109375v15.234375h1.828125v-12.359375l7.890625 12.359375zm0 0"/></symbol><symbol id="aI" overflow="visible"><path d="m10.078125 0v-10.953125h-1.734375v6.046875c0 2.234375-1.171875 3.6875-2.984375 3.6875-1.390625 0-2.265625-.828125-2.265625-2.140625v-7.59375h-1.734375v8.28125c0 1.8125 1.359375 2.984375 3.484375 2.984375 1.609375 0 2.640625-.5625 3.671875-2v1.6875zm-.53125-15.234375h-2.359375l-2 3.09375h1.25zm0 0"/></symbol><symbol id="aJ" overflow="visible"><path d="m10.078125 0v-10.953125h-1.734375v6.046875c0 2.234375-1.171875 3.6875-2.984375 3.6875-1.390625 0-2.265625-.828125-2.265625-2.140625v-7.59375h-1.734375v8.28125c0 1.8125 1.359375 2.984375 3.484375 2.984375 1.609375 0 2.640625-.5625 3.671875-2v1.6875zm-5.015625-12.625v-2.140625h-1.90625v2.140625zm3.390625 0v-2.140625h-1.90625v2.140625zm0 0"/></symbol><symbol id="aK" overflow="visible"><path d="m10.9375-5.609375c0-3.546875-1.796875-5.65625-4.6875-5.65625-1.5 0-2.578125.5625-3.390625 1.796875v-5.765625h-1.734375v15.234375h1.578125v-1.5625c.828125 1.265625 1.9375 1.875 3.46875 1.875 2.875 0 4.765625-2.359375 4.765625-5.921875zm-1.828125.109375c0 2.484375-1.296875 4.1875-3.1875 4.1875-1.84375 0-3.0625-1.671875-3.0625-4.171875 0-2.5625 1.21875-4.234375 3.0625-4.15625 1.9375 0 3.1875 1.703125 3.1875 4.140625zm0 0"/></symbol><symbol id="aL" overflow="visible"><path d="m3.78125-8.171875v-7.0625h-1.734375v7.0625l.46875 4.65625h.8125zm0 8.171875v-2.171875h-1.75v2.171875zm0 0"/></symbol><symbol id="aM" overflow="visible"><path d="m7.046875 0v-13.203125h-1.734375c-.421875 1.5625-1.78125 2.359375-4.046875 2.359375v1.734375h3.171875v9.109375zm0 0"/></symbol><symbol id="aN" overflow="visible"><path d="m3.984375 0v-2.71875h-2.796875v2.71875zm0 0"/></symbol><g clip-path="url(#a)"><path d="m5.143229 13075.783854h9911.002604" fill="none" stroke="#000" stroke-linecap="round" stroke-miterlimit="10" stroke-width="10.2889" transform="matrix(.06 0 0 -.06 0 841.84)"/></g><g clip-path="url(#b)"><path d="m5.143229 13216.929687h9911.002604" fill="none" stroke="#000" stroke-linecap="round" stroke-miterlimit="10" stroke-width="10.2889" transform="matrix(.06 0 0 -.06 0 841.84)"/></g><g clip-path="url(#c)"><path d="m5.143229 13358.075521h9911.002604" fill="none" stroke="#000" stroke-linecap="round" stroke-miterlimit="10" stroke-width="10.2889" transform="matrix(.06 0 0 -.06 0 841.84)"/></g><g clip-path="url(#d)"><path d="m5.143229 13499.221354h9911.002604" fill="none" stroke="#000" stroke-linecap="round" stroke-miterlimit="10" stroke-width="10.2889" transform="matrix(.06 0 0 -.06 0 841.84)"/></g><g clip-path="url(#e)"><path d="m5.143229 13640.302083h9911.002604" fill="none" stroke="#000" stroke-linecap="round" stroke-miterlimit="10" stroke-width="10.2889" transform="matrix(.06 0 0 -.06 0 841.84)"/></g><use x="528.609057" xlink:href="#S" y="40.354397"/><path d="m7823.046875 13247.984375h6.770833v459.570312h-6.770833zm0 0" style="fill:none;stroke-width:6.64757;stroke-linecap:round;stroke-linejoin:round;stroke:#000;stroke-miterlimit:10" transform="matrix(.06 0 0 -.06 0 841.84)"/><path d="m469.382812 46.960938h.402344v-27.574219h-.402344zm0 0"/><use x="448.300897" xlink:href="#Z" y="105.307527"/><use x="458.675288" xlink:href="#aa" y="105.307527"/><use x="470.240308" xlink:href="#ab" y="105.307527"/><use x="474.832643" xlink:href="#ac" y="105.307527"/><use x="448.300897" xlink:href="#Z" y="81.59648"/><use x="458.675288" xlink:href="#aa" y="81.59648"/><use x="470.240308" xlink:href="#ab" y="81.59648"/><use x="474.832643" xlink:href="#ac" y="81.59648"/><use x="458.929318" xlink:href="#T" y="48.823314"/><path d="m6661.71875 13318.622396h6.705729v459.570312h-6.705729zm0 0" style="fill:none;stroke-width:6.64757;stroke-linecap:round;stroke-linejoin:round;stroke:#000;stroke-miterlimit:10" transform="matrix(.06 0 0 -.06 0 841.84)"/><path d="m399.699219 42.722656h.40625v-27.574218h-.40625zm0 0"/><use x="378.023756" xlink:href="#ad" y="105.307527"/><use x="389.58901" xlink:href="#ae" y="105.307527"/><use x="401.15403" xlink:href="#Z" y="105.307527"/><use x="378.023756" xlink:href="#ad" y="81.59648"/><use x="389.58901" xlink:href="#ae" y="81.59648"/><use x="401.15403" xlink:href="#Z" y="81.59648"/><use x="389.247778" xlink:href="#T" y="44.589306"/><path d="m5608.919271 13247.984375h6.705729v388.867187h-6.705729zm0 0" style="fill:none;stroke-width:6.64757;stroke-linecap:round;stroke-linejoin:round;stroke:#000;stroke-miterlimit:10" transform="matrix(.06 0 0 -.06 0 841.84)"/><path d="m336.535156 46.960938h.402344v-23.328126h-.402344zm0 0"/><use x="325.827652" xlink:href="#aa" y="105.307527"/><use x="323.531007" xlink:href="#ae" y="81.59648"/><use x="335.096261" xlink:href="#ab" y="81.59648"/><use x="326.080782" xlink:href="#T" y="48.823314"/><path d="m7122.786458 12371.421875h84.895834v5.143229h-84.895834zm0 0" style="fill:none;stroke-width:8.24242;stroke-linecap:round;stroke-linejoin:round;stroke:#000;stroke-miterlimit:10" transform="matrix(.06 0 0 -.06 0 841.84)"/><path d="m427.367188 99.554688h5.09375v-.308594h-5.09375zm0 0"/><path d="m2415.299479 13529.820312v-61.197916l1094.791667 141.145833v61.132813zm0 0" fill="none" stroke="#000" stroke-linejoin="round" stroke-miterlimit="10" stroke-width="6.64757" transform="matrix(.06 0 0 -.06 0 841.84)"/><path d="m144.917969 30.050781v3.671875l65.6875-8.46875v-3.667968zm0 0"/><path d="m2850.390625 12766.604167h84.895833v5.143229h-84.895833zm0 0" fill="none" stroke="#000" stroke-linejoin="round" stroke-miterlimit="10" stroke-width="8.24242" transform="matrix(.06 0 0 -.06 0 841.84)"/><path d="m171.023438 75.84375h5.09375v-.308594h-5.09375zm0 0"/><path d="m3904.492187 12766.604167h84.895834v5.143229h-84.895834zm0 0" fill="none" stroke="#000" stroke-linejoin="round" stroke-miterlimit="10" stroke-width="8.24242" transform="matrix(.06 0 0 -.06 0 841.84)"/><path d="m234.269531 75.84375h5.09375v-.308594h-5.09375zm0 0"/><path d="m3934.244792 12371.421875h84.895833v5.143229h-84.895833zm0 0" fill="none" stroke="#000" stroke-linejoin="round" stroke-miterlimit="10" stroke-width="8.24242" transform="matrix(.06 0 0 -.06 0 841.84)"/><path d="m236.054688 99.554688h5.09375v-.308594h-5.09375zm0 0"/><path d="m4556.119792 13642.190104v-61.067708l1059.570312 28.645833v61.132813zm0 0" fill="none" stroke="#000" stroke-linejoin="round" stroke-miterlimit="10" stroke-width="6.64757" transform="matrix(.06 0 0 -.06 0 841.84)"/><path d="m273.367188 23.308594v3.664062l63.574218-1.71875v-3.667968zm0 0"/><path d="m4977.083333 12371.421875h84.960938v5.143229h-84.960938zm0 0" fill="none" stroke="#000" stroke-linejoin="round" stroke-miterlimit="10" stroke-width="8.24242" transform="matrix(.06 0 0 -.06 0 841.84)"/><path d="m298.625 99.554688h5.097656v-.308594h-5.097656zm0 0"/><path d="m5938.476562 12766.604167h84.895834v5.143229h-84.895834zm0 0" fill="none" stroke="#000" stroke-linejoin="round" stroke-miterlimit="10" stroke-width="8.24242" transform="matrix(.06 0 0 -.06 0 841.84)"/><path d="m356.308594 75.84375h5.09375v-.308594h-5.09375zm0 0"/><path d="m5919.335937 12371.421875h84.895834v5.143229h-84.895834zm0 0" fill="none" stroke="#000" stroke-linejoin="round" stroke-miterlimit="10" stroke-width="8.24242" transform="matrix(.06 0 0 -.06 0 841.84)"/><path d="m355.160156 99.554688h5.09375v-.308594h-5.09375zm0 0"/><path d="m7122.786458 12766.604167h84.895834v5.143229h-84.895834zm0 0" fill="none" stroke="#000" stroke-linejoin="round" stroke-miterlimit="10" stroke-width="8.24242" transform="matrix(.06 0 0 -.06 0 841.84)"/><path d="m427.367188 75.84375h5.09375v-.308594h-5.09375zm0 0"/><path d="m1289.192708 13247.984375h6.770834v459.570312h-6.770834zm0 0" fill="none" stroke="#000" stroke-linejoin="round" stroke-miterlimit="10" stroke-width="6.64757" transform="matrix(.06 0 0 -.06 0 841.84)"/><path d="m77.351562 46.960938h.40625v-27.574219h-.40625zm0 0"/><use x="48.107396" xlink:href="#af" y="105.307527"/><use x="63.244287" xlink:href="#ag" y="105.307527"/><use x="74.8093" xlink:href="#ah" y="105.307527"/><use x="86.374546" xlink:href="#ai" y="105.307527"/><use x="24.161548" xlink:href="#aM" y="81.59648"/><use x="34.536153" xlink:href="#aN" y="81.59648"/><use x="60.267821" xlink:href="#aj" y="81.59648"/><use x="74.214086" xlink:href="#ak" y="81.59648"/><use x="36.413573" xlink:href="#U" y="23.418663"/><use x="6.774714" xlink:href="#V" y="48.823314"/><use x="66.899231" xlink:href="#T" y="48.823314"/><use x="190.989082" xlink:href="#al" y="81.59648"/><use x="196.431748" xlink:href="#am" y="81.59648"/><use x="207.996768" xlink:href="#an" y="81.59648"/><path d="m4556.119792 13177.411458h6.770833v430.989584h-6.770833zm0 0" fill="none" stroke="#000" stroke-linejoin="round" stroke-miterlimit="10" stroke-width="6.64757" transform="matrix(.06 0 0 -.06 0 841.84)"/><path d="m273.367188 51.195312h.40625v-25.859374h-.40625zm0 0"/><use x="260.364521" xlink:href="#ab" y="105.307527"/><use x="264.956622" xlink:href="#aa" y="105.307527"/><use x="254.071778" xlink:href="#ad" y="81.59648"/><use x="265.636798" xlink:href="#ao" y="81.59648"/><use x="277.031661" xlink:href="#al" y="81.59648"/><use x="262.914296" xlink:href="#T" y="53.057522"/><path d="m3503.320312 13247.984375h6.770834v388.151042h-6.770834zm0 0" fill="none" stroke="#000" stroke-linejoin="round" stroke-miterlimit="10" stroke-width="6.64757" transform="matrix(.06 0 0 -.06 0 841.84)"/><path d="m210.199219 46.960938h.40625v-23.289063h-.40625zm0 0"/><use x="193.710387" xlink:href="#ap" y="105.307527"/><use x="205.275407" xlink:href="#ae" y="105.307527"/><use x="199.746489" xlink:href="#T" y="48.823314"/><use x="134.463059" xlink:href="#T" y="61.525739"/><use x="123.833638" xlink:href="#am" y="81.59648"/><use x="135.398657" xlink:href="#Z" y="81.59648"/><use x="145.773283" xlink:href="#ak" y="81.59648"/><use x="126.130282" xlink:href="#aq" y="105.307527"/><use x="136.504674" xlink:href="#ar" y="105.307527"/><use x="142.287652" xlink:href="#ah" y="105.307527"/><path d="m2415.299479 13036.330729h6.705729v460.416667h-6.705729zm0 0" fill="none" stroke="#000" stroke-linejoin="round" stroke-miterlimit="10" stroke-width="6.64757" transform="matrix(.06 0 0 -.06 0 841.84)"/><path d="m144.917969 59.660156h.402343v-27.625h-.402343zm0 0"/><g clip-path="url(#f)"><path d="m5.143229 11358.075521h9911.002604" style="fill:none;stroke-width:10.2889;stroke-linecap:round;stroke-linejoin:round;stroke:#000;stroke-miterlimit:10" transform="matrix(.06 0 0 -.06 0 841.84)"/></g><g clip-path="url(#g)"><path d="m5.143229 11499.286458h9911.002604" style="fill:none;stroke-width:10.2889;stroke-linecap:round;stroke-linejoin:round;stroke:#000;stroke-miterlimit:10" transform="matrix(.06 0 0 -.06 0 841.84)"/></g><g clip-path="url(#h)"><path d="m5.143229 11640.432292h9911.002604" style="fill:none;stroke-width:10.2889;stroke-linecap:round;stroke-linejoin:round;stroke:#000;stroke-miterlimit:10" transform="matrix(.06 0 0 -.06 0 841.84)"/></g><g clip-path="url(#i)"><path d="m5.143229 11781.513021h9911.002604" style="fill:none;stroke-width:10.2889;stroke-linecap:round;stroke-linejoin:round;stroke:#000;stroke-miterlimit:10" transform="matrix(.06 0 0 -.06 0 841.84)"/></g><g clip-path="url(#j)"><path d="m5.143229 11922.723958h9911.002604" style="fill:none;stroke-width:10.2889;stroke-linecap:round;stroke-linejoin:round;stroke:#000;stroke-miterlimit:10" transform="matrix(.06 0 0 -.06 0 841.84)"/></g><use x="378.605757" xlink:href="#ad" y="214.833746"/><use x="390.170777" xlink:href="#ae" y="214.833746"/><use x="401.735797" xlink:href="#Z" y="214.833746"/><use x="528.760058" xlink:href="#S" y="143.414803"/><path d="m7828.059896 11600.914062h6.770833v459.570313h-6.770833zm0 0" style="fill:none;stroke-width:6.64757;stroke-linecap:round;stroke-linejoin:round;stroke:#000;stroke-miterlimit:10" transform="matrix(.06 0 0 -.06 0 841.84)"/><path d="m469.683594 145.785156h.40625v-27.574218h-.40625zm0 0"/><use x="451.493903" xlink:href="#Z" y="214.833746"/><use x="461.868295" xlink:href="#aa" y="214.833746"/><use x="473.433549" xlink:href="#ab" y="214.833746"/><use x="448.601947" xlink:href="#Z" y="191.122699"/><use x="458.976339" xlink:href="#aa" y="191.122699"/><use x="470.541358" xlink:href="#ab" y="191.122699"/><use x="475.133694" xlink:href="#ac" y="191.122699"/><use x="459.230368" xlink:href="#T" y="147.649112"/><path d="m6500.455729 11173.309896h6.770833v436.002604h-6.770833zm0 0" style="fill:none;stroke-width:6.64757;stroke-linecap:round;stroke-linejoin:round;stroke:#000;stroke-miterlimit:10" transform="matrix(.06 0 0 -.06 0 841.84)"/><path d="m390.027344 171.441406h.40625v-26.160156h-.40625zm0 0"/><use x="378.605757" xlink:href="#ad" y="191.122699"/><use x="390.170777" xlink:href="#ae" y="191.122699"/><use x="401.735797" xlink:href="#Z" y="191.122699"/><use x="389.82958" xlink:href="#T" y="143.414903"/><path d="m5449.934896 11332.880208h6.770833v347.005209h-6.770833zm0 0" style="fill:none;stroke-width:6.64757;stroke-linecap:round;stroke-linejoin:round;stroke:#000;stroke-miterlimit:10" transform="matrix(.06 0 0 -.06 0 841.84)"/><path d="m326.996094 161.867188h.40625v-20.820313h-.40625zm0 0"/><use x="326.543653" xlink:href="#aa" y="214.833746"/><use x="324.247008" xlink:href="#ae" y="191.122699"/><use x="335.812028" xlink:href="#ab" y="191.122699"/><use x="326.796784" xlink:href="#T" y="139.180895"/><path d="m7154.231771 10545.901042h84.895833v5.143229h-84.895833zm0 0" style="fill:none;stroke-width:8.24242;stroke-linecap:round;stroke-linejoin:round;stroke:#000;stroke-miterlimit:10" transform="matrix(.06 0 0 -.06 0 841.84)"/><path d="m429.253906 209.085938h5.09375v-.308594h-5.09375zm0 0"/><path d="m2263.020833 11247.528646v-61.132813l1092.578125 141.210938v61.067708zm0 0" fill="none" stroke="#000" stroke-linejoin="round" stroke-miterlimit="10" stroke-width="6.64757" transform="matrix(.06 0 0 -.06 0 841.84)"/><path d="m135.78125 166.988281v3.667969l65.554688-8.472656v-3.664063zm0 0"/><path d="m2867.903646 10941.083333h84.895833v5.143229h-84.895833zm0 0" fill="none" stroke="#000" stroke-linejoin="round" stroke-miterlimit="10" stroke-width="8.24242" transform="matrix(.06 0 0 -.06 0 841.84)"/><path d="m172.074219 185.375h5.09375v-.308594h-5.09375zm0 0"/><path d="m3919.791667 10941.083333h84.895833v5.143229h-84.895833zm0 0" fill="none" stroke="#000" stroke-linejoin="round" stroke-miterlimit="10" stroke-width="8.24242" transform="matrix(.06 0 0 -.06 0 841.84)"/><path d="m235.1875 185.375h5.09375v-.308594h-5.09375zm0 0"/><path d="m3949.544271 10545.901042h84.895833v5.143229h-84.895833zm0 0" fill="none" stroke="#000" stroke-linejoin="round" stroke-miterlimit="10" stroke-width="8.24242" transform="matrix(.06 0 0 -.06 0 841.84)"/><path d="m236.972656 209.085938h5.09375v-.308594h-5.09375zm0 0"/><path d="m4399.348958 11388.674479v-61.067708l1057.291667-28.776042v61.067708zm0 0" fill="none" stroke="#000" stroke-linejoin="round" stroke-miterlimit="10" stroke-width="6.64757" transform="matrix(.06 0 0 -.06 0 841.84)"/><path d="m263.960938 158.519531v3.664063l63.4375 1.726562v-3.664062zm0 0"/><path d="m4990.169271 10545.901042h84.895833v5.143229h-84.895833zm0 0" fill="none" stroke="#000" stroke-linejoin="round" stroke-miterlimit="10" stroke-width="8.24242" transform="matrix(.06 0 0 -.06 0 841.84)"/><path d="m299.410156 209.085938h5.09375v-.308594h-5.09375zm0 0"/><path d="m5949.283854 10941.083333h84.895833v5.143229h-84.895833zm0 0" fill="none" stroke="#000" stroke-linejoin="round" stroke-miterlimit="10" stroke-width="8.24242" transform="matrix(.06 0 0 -.06 0 841.84)"/><path d="m356.957031 185.375h5.09375v-.308594h-5.09375zm0 0"/><path d="m5930.143229 10545.901042h84.895833v5.143229h-84.895833zm0 0" fill="none" stroke="#000" stroke-linejoin="round" stroke-miterlimit="10" stroke-width="8.24242" transform="matrix(.06 0 0 -.06 0 841.84)"/><path d="m355.808594 209.085938h5.09375v-.308594h-5.09375zm0 0"/><path d="m7130.143229 10941.083333h84.895833v5.143229h-84.895833zm0 0" fill="none" stroke="#000" stroke-linejoin="round" stroke-miterlimit="10" stroke-width="8.24242" transform="matrix(.06 0 0 -.06 0 841.84)"/><path d="m427.808594 185.375h5.09375v-.308594h-5.09375zm0 0"/><use x="6.774624" xlink:href="#V" y="151.88262"/><path d="m1104.166667 11173.309896h6.770833v436.002604h-6.770833zm0 0" fill="none" stroke="#000" stroke-linejoin="round" stroke-miterlimit="10" stroke-width="6.64757" transform="matrix(.06 0 0 -.06 0 841.84)"/><path d="m66.25 171.441406h.40625v-26.160156h-.40625zm0 0"/><use x="47.260395" xlink:href="#af" y="214.833746"/><use x="62.39752" xlink:href="#ag" y="214.833746"/><use x="73.962532" xlink:href="#ah" y="214.833746"/><use x="85.527779" xlink:href="#ai" y="214.833746"/><use x="59.420919" xlink:href="#aj" y="191.122699"/><use x="73.367185" xlink:href="#ak" y="191.122699"/><use x="66.052342" xlink:href="#T" y="143.414903"/><use x="36.413483" xlink:href="#U" y="126.478469"/><use x="200.731811" xlink:href="#T" y="134.946686"/><path d="m4399.348958 11361.330729h6.770834v389.127604h-6.770834zm0 0" fill="none" stroke="#000" stroke-linejoin="round" stroke-miterlimit="10" stroke-width="6.64757" transform="matrix(.06 0 0 -.06 0 841.84)"/><path d="m263.960938 160.160156h.40625v-23.347656h-.40625zm0 0"/><use x="261.214522" xlink:href="#ab" y="214.833746"/><use x="265.806858" xlink:href="#aa" y="214.833746"/><use x="254.92178" xlink:href="#ad" y="191.122699"/><use x="266.4868" xlink:href="#ao" y="191.122699"/><use x="277.881662" xlink:href="#al" y="191.122699"/><use x="263.764298" xlink:href="#T" y="134.946686"/><path d="m3348.828125 11360.614583h6.770833v389.84375h-6.770833zm0 0" fill="none" stroke="#000" stroke-linejoin="round" stroke-miterlimit="10" stroke-width="6.64757" transform="matrix(.06 0 0 -.06 0 841.84)"/><path d="m200.929688 160.203125h.40625v-23.390625h-.40625zm0 0"/><use x="194.695389" xlink:href="#ap" y="214.833746"/><use x="206.260409" xlink:href="#ae" y="214.833746"/><use x="191.973824" xlink:href="#al" y="191.122699"/><use x="197.416256" xlink:href="#am" y="191.122699"/><use x="208.981276" xlink:href="#an" y="191.122699"/><path d="m2263.020833 11221.226562h6.705729v317.513021h-6.705729zm0 0" fill="none" stroke="#000" stroke-linejoin="round" stroke-miterlimit="10" stroke-width="6.64757" transform="matrix(.06 0 0 -.06 0 841.84)"/><path d="m135.78125 168.566406h.402344v-19.050781h-.402344zm0 0"/><use x="135.582271" xlink:href="#T" y="147.648612"/><use x="124.95385" xlink:href="#am" y="191.122199"/><use x="136.51887" xlink:href="#Z" y="191.122199"/><use x="146.893261" xlink:href="#ak" y="191.122199"/><use x="127.249554" xlink:href="#aq" y="214.833246"/><use x="137.623946" xlink:href="#ar" y="214.833246"/><use x="143.406925" xlink:href="#ah" y="214.833246"/><g clip-path="url(#k)"><path d="m5.143229 9532.684896h9911.002604" style="fill:none;stroke-width:10.2889;stroke-linecap:round;stroke-linejoin:round;stroke:#000;stroke-miterlimit:10" transform="matrix(.06 0 0 -.06 0 841.84)"/></g><g clip-path="url(#l)"><path d="m5.143229 9673.830729h9911.002604" style="fill:none;stroke-width:10.2889;stroke-linecap:round;stroke-linejoin:round;stroke:#000;stroke-miterlimit:10" transform="matrix(.06 0 0 -.06 0 841.84)"/></g><g clip-path="url(#m)"><path d="m5.143229 9814.976562h9911.002604" style="fill:none;stroke-width:10.2889;stroke-linecap:round;stroke-linejoin:round;stroke:#000;stroke-miterlimit:10" transform="matrix(.06 0 0 -.06 0 841.84)"/></g><g clip-path="url(#n)"><path d="m5.143229 9956.122396h9911.002604" style="fill:none;stroke-width:10.2889;stroke-linecap:round;stroke-linejoin:round;stroke:#000;stroke-miterlimit:10" transform="matrix(.06 0 0 -.06 0 841.84)"/></g><g clip-path="url(#o)"><path d="m5.143229 10097.203125h9911.002604" style="fill:none;stroke-width:10.2889;stroke-linecap:round;stroke-linejoin:round;stroke:#000;stroke-miterlimit:10" transform="matrix(.06 0 0 -.06 0 841.84)"/></g><use x="582.823166" xlink:href="#W" y="248.705814"/><use x="582.823166" xlink:href="#W" y="257.174271"/><g clip-path="url(#p)"><path d="m9890.364583 9532.684896v564.518229" fill="none" stroke="#000" stroke-linejoin="round" stroke-miterlimit="10" stroke-width="61.7617" transform="matrix(.06 0 0 -.06 0 841.84)"/></g><path d="m9818.815104 9532.684896v564.518229" fill="none" stroke="#000" stroke-linejoin="round" stroke-miterlimit="10" stroke-width="19.5616" transform="matrix(.06 0 0 -.06 0 841.84)"/><path d="m8484.375 9715.041667h6.770833v449.414062h-6.770833zm0 0" fill="none" stroke="#000" stroke-linejoin="round" stroke-miterlimit="10" stroke-width="6.64757" transform="matrix(.06 0 0 -.06 0 841.84)"/><path d="m509.0625 258.9375h.40625v-26.964844h-.40625zm0 0"/><path d="m4874.023437 9634.377604h6.70573v430.989583h-6.70573zm0 0" fill="none" stroke="#000" stroke-linejoin="round" stroke-miterlimit="10" stroke-width="6.64757" transform="matrix(.06 0 0 -.06 0 841.84)"/><path d="m292.441406 263.777344h.402344v-25.859375h-.402344zm0 0"/><use x="498.048996" xlink:href="#ad" y="324.237965"/><use x="509.613987" xlink:href="#am" y="324.237965"/><use x="521.178977" xlink:href="#an" y="324.237965"/><use x="532.744202" xlink:href="#as" y="324.237965"/><use x="486.680173" xlink:href="#al" y="300.526917"/><use x="492.122854" xlink:href="#am" y="300.526917"/><use x="503.687845" xlink:href="#an" y="300.526917"/><use x="515.25307" xlink:href="#ac" y="300.526917"/><use x="498.048996" xlink:href="#X" y="261.408439"/><path d="m7193.359375 9775.523437h6.770833v459.570313h-6.770833zm0 0" fill="none" stroke="#000" stroke-linejoin="round" stroke-miterlimit="10" stroke-width="6.64757" transform="matrix(.06 0 0 -.06 0 841.84)"/><path d="m431.601562 255.3125h.40625v-27.574219h-.40625zm0 0"/><use x="409.92782" xlink:href="#at" y="324.237965"/><use x="427.275808" xlink:href="#au" y="324.237965"/><use x="431.868143" xlink:href="#an" y="324.237965"/><use x="418.601817" xlink:href="#av" y="300.526917"/><use x="424.384781" xlink:href="#Z" y="300.526917"/><use x="421.151592" xlink:href="#T" y="257.174531"/><path d="m6033.723958 9704.950521h6.705729v388.802083h-6.705729zm0 0" fill="none" stroke="#000" stroke-linejoin="round" stroke-miterlimit="10" stroke-width="6.64757" transform="matrix(.06 0 0 -.06 0 841.84)"/><path d="m362.019531 259.542969h.40625v-23.328125h-.40625zm0 0"/><use x="340.514681" xlink:href="#aq" y="324.237965"/><use x="350.549462" xlink:href="#am" y="324.237965"/><use x="362.114716" xlink:href="#ad" y="324.237965"/><use x="346.041962" xlink:href="#aw" y="300.526917"/><use x="361.178846" xlink:href="#ax" y="300.526917"/><use x="351.568303" xlink:href="#T" y="261.408439"/><path d="m1817.252604 9117.710937h84.895833v5.14323h-84.895833zm0 0" fill="none" stroke="#000" stroke-linejoin="round" stroke-miterlimit="10" stroke-width="8.24242" transform="matrix(.06 0 0 -.06 0 841.84)"/><path d="m109.035156 294.777344h5.09375v-.308594h-5.09375zm0 0"/><path d="m7803.190104 8722.528646h84.895833v5.143229h-84.895833zm0 0" fill="none" stroke="#000" stroke-linejoin="round" stroke-miterlimit="10" stroke-width="8.24242" transform="matrix(.06 0 0 -.06 0 841.84)"/><path d="m468.191406 318.488281h5.09375v-.308593h-5.09375zm0 0"/><path d="m1708.789062 8722.528646h84.895834v5.143229h-84.895834zm0 0" fill="none" stroke="#000" stroke-linejoin="round" stroke-miterlimit="10" stroke-width="8.24242" transform="matrix(.06 0 0 -.06 0 841.84)"/><path d="m102.527344 318.488281h5.09375v-.308593h-5.09375zm0 0"/><path d="m2554.622396 10156.513021v-61.132813l1166.40625-28.710937v61.132812zm0 0" fill="none" stroke="#000" stroke-linejoin="round" stroke-miterlimit="10" stroke-width="6.64757" transform="matrix(.06 0 0 -.06 0 841.84)"/><path d="m153.277344 232.449219v3.667969l69.984375 1.722656v-3.667969zm0 0"/><path d="m2898.632812 9117.710937h84.895834v5.14323h-84.895834zm0 0" fill="none" stroke="#000" stroke-linejoin="round" stroke-miterlimit="10" stroke-width="8.24242" transform="matrix(.06 0 0 -.06 0 841.84)"/><path d="m173.917969 294.777344h5.09375v-.308594h-5.09375zm0 0"/><path d="m3106.25 8722.528646h84.960937v5.143229h-84.960937zm0 0" fill="none" stroke="#000" stroke-linejoin="round" stroke-miterlimit="10" stroke-width="8.24242" transform="matrix(.06 0 0 -.06 0 841.84)"/><path d="m186.375 318.488281h5.097656v-.308593h-5.097656zm0 0"/><path d="m4874.023437 10099.091146v-61.067709l1166.40625 28.645834v61.132812zm0 0" fill="none" stroke="#000" stroke-linejoin="round" stroke-miterlimit="10" stroke-width="6.64757" transform="matrix(.06 0 0 -.06 0 841.84)"/><path d="m292.441406 235.894531v3.664063l69.984375-1.71875v-3.667969zm0 0"/><path d="m5287.5 8722.528646h84.895833v5.143229h-84.895833zm0 0" fill="none" stroke="#000" stroke-linejoin="round" stroke-miterlimit="10" stroke-width="8.24242" transform="matrix(.06 0 0 -.06 0 841.84)"/><path d="m317.25 318.488281h5.09375v-.308593h-5.09375zm0 0"/><path d="m7636.197917 9117.710937h84.895833v5.14323h-84.895833zm0 0" fill="none" stroke="#000" stroke-linejoin="round" stroke-miterlimit="10" stroke-width="8.24242" transform="matrix(.06 0 0 -.06 0 841.84)"/><path d="m458.171875 294.777344h5.09375v-.308594h-5.09375zm0 0"/><use x="275.949552" xlink:href="#an" y="324.237965"/><use x="287.514806" xlink:href="#am" y="324.237965"/><use x="61.717123" xlink:href="#ay" y="324.237965"/><use x="76.854014" xlink:href="#au" y="324.237965"/><use x="59.166418" xlink:href="#az" y="300.526917"/><use x="72.43276" xlink:href="#ag" y="300.526917"/><use x="66.052842" xlink:href="#T" y="252.940222"/><use x="36.413983" xlink:href="#U" y="236.003788"/><use x="6.775124" xlink:href="#V" y="261.408439"/><path d="m1104.166667 9347.854167h6.770833v436.002604h-6.770833zm0 0" fill="none" stroke="#000" stroke-linejoin="round" stroke-miterlimit="10" stroke-width="6.64757" transform="matrix(.06 0 0 -.06 0 841.84)"/><path d="m66.25 280.96875h.40625v-26.160156h-.40625zm0 0"/><use x="264.384529" xlink:href="#at" y="300.526917"/><use x="281.732517" xlink:href="#am" y="300.526917"/><use x="293.297771" xlink:href="#ah" y="300.526917"/><use x="304.86279" xlink:href="#ac" y="300.526917"/><use x="281.986564" xlink:href="#T" y="265.642748"/><path d="m3714.257812 9704.950521h6.770834v389.127604h-6.770834zm0 0" fill="none" stroke="#000" stroke-linejoin="round" stroke-miterlimit="10" stroke-width="6.64757" transform="matrix(.06 0 0 -.06 0 841.84)"/><path d="m222.855469 259.542969h.40625v-23.347657h-.40625zm0 0"/><use x="209.85342" xlink:href="#aA" y="324.237965"/><use x="214.44577" xlink:href="#am" y="324.237965"/><use x="195.397091" xlink:href="#an" y="300.526917"/><use x="206.962345" xlink:href="#ae" y="300.526917"/><use x="218.527365" xlink:href="#ak" y="300.526917"/><use x="228.901756" xlink:href="#ad" y="300.526917"/><use x="212.403125" xlink:href="#T" y="261.408439"/><use x="139.166178" xlink:href="#ax" y="300.526917"/><use x="145.969618" xlink:href="#ag" y="300.526917"/><use x="142.821026" xlink:href="#T" y="257.174531"/><use x="128.706197" xlink:href="#aB" y="324.238065"/><use x="139.080589" xlink:href="#Z" y="324.238065"/><use x="149.454981" xlink:href="#aC" y="324.238065"/><use x="161.020235" xlink:href="#ax" y="324.238065"/><path d="m2554.622396 9775.523437h6.705729v347.005209h-6.705729zm0 0" fill="none" stroke="#000" stroke-linejoin="round" stroke-miterlimit="10" stroke-width="6.64757" transform="matrix(.06 0 0 -.06 0 841.84)"/><path d="m153.277344 255.3125h.402344v-20.820312h-.402344zm0 0"/><g clip-path="url(#q)"><path d="m5.143229 7839.065104h9911.002604" style="fill:none;stroke-width:10.2889;stroke-linecap:round;stroke-linejoin:round;stroke:#000;stroke-miterlimit:10" transform="matrix(.06 0 0 -.06 0 841.84)"/></g><g clip-path="url(#r)"><path d="m5.143229 7980.210937h9911.002604" style="fill:none;stroke-width:10.2889;stroke-linecap:round;stroke-linejoin:round;stroke:#000;stroke-miterlimit:10" transform="matrix(.06 0 0 -.06 0 841.84)"/></g><g clip-path="url(#s)"><path d="m5.143229 8121.291667h9911.002604" style="fill:none;stroke-width:10.2889;stroke-linecap:round;stroke-linejoin:round;stroke:#000;stroke-miterlimit:10" transform="matrix(.06 0 0 -.06 0 841.84)"/></g><g clip-path="url(#t)"><path d="m5.143229 8262.4375h9911.002604" style="fill:none;stroke-width:10.2889;stroke-linecap:round;stroke-linejoin:round;stroke:#000;stroke-miterlimit:10" transform="matrix(.06 0 0 -.06 0 841.84)"/></g><g clip-path="url(#u)"><path d="m5.143229 8403.583333h9911.002604" style="fill:none;stroke-width:10.2889;stroke-linecap:round;stroke-linejoin:round;stroke:#000;stroke-miterlimit:10" transform="matrix(.06 0 0 -.06 0 841.84)"/></g><use x="232.716465" xlink:href="#ab" y="402.268121"/><use x="237.308816" xlink:href="#am" y="402.268121"/><use x="248.873835" xlink:href="#ad" y="402.268121"/><path d="m6923.242187 7771.8125h6.770834v459.570312h-6.770834zm0 0" style="fill:none;stroke-width:6.64757;stroke-linecap:round;stroke-linejoin:round;stroke:#000;stroke-miterlimit:10" transform="matrix(.06 0 0 -.06 0 841.84)"/><path d="m415.394531 375.53125h.40625v-27.574219h-.40625zm0 0"/><use x="403.973808" xlink:href="#an" y="402.268121"/><use x="415.538828" xlink:href="#am" y="402.268121"/><use x="427.103847" xlink:href="#aD" y="402.268121"/><use x="415.19763" xlink:href="#T" y="346.091409"/><path d="m5397.526042 7771.8125h6.705729v459.570312h-6.705729zm0 0" style="fill:none;stroke-width:6.64757;stroke-linecap:round;stroke-linejoin:round;stroke:#000;stroke-miterlimit:10" transform="matrix(.06 0 0 -.06 0 841.84)"/><path d="m323.851562 375.53125h.402344v-27.574219h-.402344zm0 0"/><use x="321.101642" xlink:href="#aA" y="402.268121"/><use x="325.693978" xlink:href="#ao" y="402.268121"/><use x="323.651417" xlink:href="#T" y="346.091409"/><path d="m4020.768229 7729.820312h6.770833v430.989584h-6.770833zm0 0" style="fill:none;stroke-width:6.64757;stroke-linecap:round;stroke-linejoin:round;stroke:#000;stroke-miterlimit:10" transform="matrix(.06 0 0 -.06 0 841.84)"/><path d="m241.246094 378.050781h.40625v-25.859375h-.40625zm0 0"/><path d="m1948.828125 7422.007812h84.895833v5.208334h-84.895833zm0 0" style="fill:none;stroke-width:8.24242;stroke-linecap:round;stroke-linejoin:round;stroke:#000;stroke-miterlimit:10" transform="matrix(.06 0 0 -.06 0 841.84)"/><path d="m116.929688 396.519531h5.09375v-.3125h-5.09375zm0 0"/><path d="m2644.075521 7728.453125v-61.067708l1383.463541 28.710937v61.067708zm0 0" fill="none" stroke="#000" stroke-linejoin="round" stroke-miterlimit="10" stroke-width="6.64757" transform="matrix(.06 0 0 -.06 0 841.84)"/><path d="m158.644531 378.132812v3.664063l83.007813-1.722656v-3.664063zm0 0"/><path d="m3334.895833 7422.007812h84.895834v5.208334h-84.895834zm0 0" fill="none" stroke="#000" stroke-linejoin="round" stroke-miterlimit="10" stroke-width="8.24242" transform="matrix(.06 0 0 -.06 0 841.84)"/><path d="m200.089844 396.519531h5.097656v-.3125h-5.097656zm0 0"/><path d="m6134.505208 7422.007812h84.895834v5.208334h-84.895834zm0 0" fill="none" stroke="#000" stroke-linejoin="round" stroke-miterlimit="10" stroke-width="8.24242" transform="matrix(.06 0 0 -.06 0 841.84)"/><path d="m368.070312 396.519531h5.09375v-.3125h-5.09375zm0 0"/><use x="506.744013" xlink:href="#S" y="354.560025"/><use x="241.048482" xlink:href="#T" y="350.326037"/><use x="36.414073" xlink:href="#U" y="337.623612"/><use x="6.775214" xlink:href="#V" y="363.028262"/><use x="158.445517" xlink:href="#T" y="354.560045"/><path d="m2644.075521 7701.369792h6.770833v388.867187h-6.770833zm0 0" fill="none" stroke="#000" stroke-linejoin="round" stroke-miterlimit="10" stroke-width="6.64757" transform="matrix(.06 0 0 -.06 0 841.84)"/><path d="m158.644531 379.757812h.40625v-23.332031h-.40625zm0 0"/><use x="155.385311" xlink:href="#al" y="402.268121"/><use x="160.998133" xlink:href="#ao" y="402.268121"/><path d="m1118.294271 7654.169271h6.770833v436.067708h-6.770833zm0 0" fill="none" stroke="#000" stroke-linejoin="round" stroke-miterlimit="10" stroke-width="6.64757" transform="matrix(.06 0 0 -.06 0 841.84)"/><path d="m67.097656 382.589844h.40625v-26.164063h-.40625zm0 0"/><use x="61.288223" xlink:href="#aE" y="402.268121"/><use x="72.003155" xlink:href="#am" y="402.268121"/><use x="66.899174" xlink:href="#T" y="354.559625"/><g clip-path="url(#v)"><path d="m5.143229 6145.380208h9911.002604" style="fill:none;stroke-width:10.2889;stroke-linecap:round;stroke-linejoin:round;stroke:#000;stroke-miterlimit:10" transform="matrix(.06 0 0 -.06 0 841.84)"/></g><g clip-path="url(#w)"><path d="m5.143229 6286.526042h9911.002604" style="fill:none;stroke-width:10.2889;stroke-linecap:round;stroke-linejoin:round;stroke:#000;stroke-miterlimit:10" transform="matrix(.06 0 0 -.06 0 841.84)"/></g><g clip-path="url(#x)"><path d="m5.143229 6427.671875h9911.002604" style="fill:none;stroke-width:10.2889;stroke-linecap:round;stroke-linejoin:round;stroke:#000;stroke-miterlimit:10" transform="matrix(.06 0 0 -.06 0 841.84)"/></g><g clip-path="url(#y)"><path d="m5.143229 6568.817708h9911.002604" style="fill:none;stroke-width:10.2889;stroke-linecap:round;stroke-linejoin:round;stroke:#000;stroke-miterlimit:10" transform="matrix(.06 0 0 -.06 0 841.84)"/></g><g clip-path="url(#z)"><path d="m5.143229 6709.963542h9911.002604" style="fill:none;stroke-width:10.2889;stroke-linecap:round;stroke-linejoin:round;stroke:#000;stroke-miterlimit:10" transform="matrix(.06 0 0 -.06 0 841.84)"/></g><g clip-path="url(#A)"><path d="m9911.458333 6145.380208v564.583334" fill="none" stroke="#000" stroke-linejoin="round" stroke-miterlimit="10" stroke-width="19.5616" transform="matrix(.06 0 0 -.06 0 841.84)"/></g><use x="414.78083" xlink:href="#T" y="468.881254"/><use x="418.014036" xlink:href="#au" y="502.754322"/><path d="m7087.239583 6247.072917h6.770834v431.054687h-6.770834zm0 0" fill="none" stroke="#000" stroke-linejoin="round" stroke-miterlimit="10" stroke-width="6.64757" transform="matrix(.06 0 0 -.06 0 841.84)"/><path d="m425.234375 467.015625h.40625v-25.863281h-.40625zm0 0"/><use x="470.24894" xlink:href="#T" y="473.115263"/><use x="464.212838" xlink:href="#ad" y="502.754122"/><use x="475.777858" xlink:href="#ao" y="502.754122"/><path d="m8011.71875 6176.5h6.705729v459.570312h-6.705729zm0 0" fill="none" stroke="#000" stroke-linejoin="round" stroke-miterlimit="10" stroke-width="6.64757" transform="matrix(.06 0 0 -.06 0 841.84)"/><path d="m480.703125 471.25h.402344v-27.574219h-.402344zm0 0"/><use x="299.027598" xlink:href="#T" y="456.178229"/><path d="m6162.760417 6317.645833h6.770833v388.802084h-6.770833zm0 0" fill="none" stroke="#000" stroke-linejoin="round" stroke-miterlimit="10" stroke-width="6.64757" transform="matrix(.06 0 0 -.06 0 841.84)"/><path d="m369.765625 462.78125h.40625v-23.328125h-.40625zm0 0"/><use x="353.872708" xlink:href="#aa" y="502.754322"/><use x="365.437962" xlink:href="#ak" y="502.754322"/><use x="359.313739" xlink:href="#T" y="464.647246"/><path d="m4987.109375 5960.549479h6.770833v436.002604h-6.770833zm0 0" fill="none" stroke="#000" stroke-linejoin="round" stroke-miterlimit="10" stroke-width="6.64757" transform="matrix(.06 0 0 -.06 0 841.84)"/><path d="m299.226562 484.207031h.402344v-26.160156h-.402344zm0 0"/><use x="302.260605" xlink:href="#au" y="502.754322"/><path d="m1677.473958 5747.268229h84.895834v5.143229h-84.895834zm0 0" fill="none" stroke="#000" stroke-linejoin="round" stroke-miterlimit="10" stroke-width="8.24242" transform="matrix(.06 0 0 -.06 0 841.84)"/><path d="m100.648438 497.003906h5.09375v-.308594h-5.09375zm0 0"/><path d="m2121.158854 6063.544271v-61.132813l931.25-28.710937v61.067708zm0 0" fill="none" stroke="#000" stroke-linejoin="round" stroke-miterlimit="10" stroke-width="6.64757" transform="matrix(.06 0 0 -.06 0 841.84)"/><path d="m127.269531 478.027344v3.667968l55.875 1.722657v-3.664063zm0 0"/><path d="m3630.403646 5747.268229h84.895833v5.143229h-84.895833zm0 0" fill="none" stroke="#000" stroke-linejoin="round" stroke-miterlimit="10" stroke-width="8.24242" transform="matrix(.06 0 0 -.06 0 841.84)"/><path d="m217.824219 497.003906h5.09375v-.308594h-5.09375zm0 0"/><path d="m4572.135417 5747.268229h84.895833v5.143229h-84.895833zm0 0" fill="none" stroke="#000" stroke-linejoin="round" stroke-miterlimit="10" stroke-width="8.24242" transform="matrix(.06 0 0 -.06 0 841.84)"/><path d="m274.324219 497.003906h5.097656v-.308594h-5.097656zm0 0"/><path d="m6162.760417 6740.497396v-61.132813l931.25-28.710937v61.132812zm0 0" fill="none" stroke="#000" stroke-linejoin="round" stroke-miterlimit="10" stroke-width="6.64757" transform="matrix(.06 0 0 -.06 0 841.84)"/><path d="m369.765625 437.410156v3.667969l55.875 1.722656v-3.667969zm0 0"/><path d="m7347.721354 5747.268229h84.895833v5.143229h-84.895833zm0 0" fill="none" stroke="#000" stroke-linejoin="round" stroke-miterlimit="10" stroke-width="8.24242" transform="matrix(.06 0 0 -.06 0 841.84)"/><path d="m440.863281 497.003906h5.09375v-.308594h-5.09375zm0 0"/><path d="m8328.320312 5747.268229h84.960938v5.143229h-84.960938zm0 0" fill="none" stroke="#000" stroke-linejoin="round" stroke-miterlimit="10" stroke-width="8.24242" transform="matrix(.06 0 0 -.06 0 841.84)"/><path d="m499.699219 497.003906h5.097656v-.308594h-5.097656zm0 0"/><path d="m9028.710937 6105.927083h6.70573v459.570313h-6.70573zm0 0" fill="none" stroke="#000" stroke-linejoin="round" stroke-miterlimit="10" stroke-width="6.64757" transform="matrix(.06 0 0 -.06 0 841.84)"/><path d="m541.722656 475.484375h.402344v-27.574219h-.402344zm0 0"/><use x="517.154034" xlink:href="#an" y="502.754322"/><use x="528.719025" xlink:href="#am" y="502.754322"/><use x="540.28425" xlink:href="#aD" y="502.754322"/><use x="550.658612" xlink:href="#aF" y="502.754322"/><use x="531.269063" xlink:href="#T" y="477.349471"/><use x="6.774014" xlink:href="#V" y="464.647246"/><path d="m1104.166667 6078.127604h6.770833v459.570313h-6.770833zm0 0" fill="none" stroke="#000" stroke-linejoin="round" stroke-miterlimit="10" stroke-width="6.64757" transform="matrix(.06 0 0 -.06 0 841.84)"/><path d="m66.25 477.152344h.40625v-27.574219h-.40625zm0 0"/><use x="53.383007" xlink:href="#az" y="502.754322"/><use x="66.649349" xlink:href="#am" y="502.754322"/><use x="78.214596" xlink:href="#ad" y="502.754322"/><use x="66.052432" xlink:href="#T" y="447.710512"/><use x="36.413573" xlink:href="#U" y="439.242295"/><use x="170.720841" xlink:href="#an" y="502.754322"/><use x="182.285861" xlink:href="#aa" y="502.754322"/><use x="193.851115" xlink:href="#aG" y="502.754322"/><path d="m4138.867187 6388.21875h6.770834v459.570312h-6.770834zm0 0" fill="none" stroke="#000" stroke-linejoin="round" stroke-miterlimit="10" stroke-width="6.64757" transform="matrix(.06 0 0 -.06 0 841.84)"/><path d="m248.332031 458.546875h.40625v-27.574219h-.40625zm0 0"/><use x="235.329471" xlink:href="#aA" y="502.754322"/><use x="239.921821" xlink:href="#aa" y="502.754322"/><use x="237.879246" xlink:href="#T" y="460.412937"/><path d="m3045.638021 6007.815104h6.770833v388.802083h-6.770833zm0 0" fill="none" stroke="#000" stroke-linejoin="round" stroke-miterlimit="10" stroke-width="6.64757" transform="matrix(.06 0 0 -.06 0 841.84)"/><path d="m182.738281 481.371094h.40625v-23.328125h-.40625zm0 0"/><use x="182.540365" xlink:href="#T" y="456.178229"/><use x="127.072554" xlink:href="#T" y="451.94424"/><use x="116.613333" xlink:href="#aq" y="502.753842"/><use x="126.648115" xlink:href="#am" y="502.753842"/><use x="138.213369" xlink:href="#Z" y="502.753842"/><path d="m2121.158854 6036.070312h6.770833v431.054688h-6.770833zm0 0" fill="none" stroke="#000" stroke-linejoin="round" stroke-miterlimit="10" stroke-width="6.64757" transform="matrix(.06 0 0 -.06 0 841.84)"/><path d="m127.269531 479.675781h.40625v-25.863281h-.40625zm0 0"/><g clip-path="url(#B)"><path d="m5.143229 4451.760417h9911.002604" style="fill:none;stroke-width:10.2889;stroke-linecap:round;stroke-linejoin:round;stroke:#000;stroke-miterlimit:10" transform="matrix(.06 0 0 -.06 0 841.84)"/></g><g clip-path="url(#C)"><path d="m5.143229 4592.90625h9911.002604" style="fill:none;stroke-width:10.2889;stroke-linecap:round;stroke-linejoin:round;stroke:#000;stroke-miterlimit:10" transform="matrix(.06 0 0 -.06 0 841.84)"/></g><g clip-path="url(#D)"><path d="m5.143229 4734.052083h9911.002604" style="fill:none;stroke-width:10.2889;stroke-linecap:round;stroke-linejoin:round;stroke:#000;stroke-miterlimit:10" transform="matrix(.06 0 0 -.06 0 841.84)"/></g><g clip-path="url(#E)"><path d="m5.143229 4875.132812h9911.002604" style="fill:none;stroke-width:10.2889;stroke-linecap:round;stroke-linejoin:round;stroke:#000;stroke-miterlimit:10" transform="matrix(.06 0 0 -.06 0 841.84)"/></g><g clip-path="url(#F)"><path d="m5.143229 5016.278646h9911.002604" style="fill:none;stroke-width:10.2889;stroke-linecap:round;stroke-linejoin:round;stroke:#000;stroke-miterlimit:10" transform="matrix(.06 0 0 -.06 0 841.84)"/></g><use x="582.823166" xlink:href="#W" y="553.563423"/><use x="582.823166" xlink:href="#W" y="562.03164"/><g clip-path="url(#G)"><path d="m9890.364583 4451.760417v564.518229" fill="none" stroke="#000" stroke-linejoin="round" stroke-miterlimit="10" stroke-width="61.7617" transform="matrix(.06 0 0 -.06 0 841.84)"/></g><path d="m9818.815104 4451.760417v564.518229" fill="none" stroke="#000" stroke-linejoin="round" stroke-miterlimit="10" stroke-width="19.5616" transform="matrix(.06 0 0 -.06 0 841.84)"/><use x="63.629627" xlink:href="#W" y="553.563423"/><use x="63.629627" xlink:href="#W" y="562.03164"/><path d="m1019.856771 4451.760417v564.518229" fill="none" stroke="#000" stroke-linejoin="round" stroke-miterlimit="10" stroke-width="19.5616" transform="matrix(.06 0 0 -.06 0 841.84)"/><path d="m948.242187 4451.760417v564.518229" fill="none" stroke="#000" stroke-linejoin="round" stroke-miterlimit="10" stroke-width="61.7617" transform="matrix(.06 0 0 -.06 0 841.84)"/><use x="492.450985" xlink:href="#T" y="553.563423"/><use x="481.227162" xlink:href="#ak" y="605.384027"/><use x="491.601525" xlink:href="#am" y="605.384027"/><use x="503.166515" xlink:href="#ad" y="605.384027"/><use x="475.615271" xlink:href="#aq" y="629.095075"/><use x="485.650053" xlink:href="#am" y="629.095075"/><use x="497.215277" xlink:href="#ad" y="629.095075"/><use x="508.780268" xlink:href="#ad" y="629.095075"/><path d="m8210.807292 4313.934896h6.770833v459.570312h-6.770833zm0 0" fill="none" stroke="#000" stroke-linejoin="round" stroke-miterlimit="10" stroke-width="6.64757" transform="matrix(.06 0 0 -.06 0 841.84)"/><path d="m492.648438 583.003906h.40625v-27.574218h-.40625zm0 0"/><use x="359.563719" xlink:href="#T" y="566.266449"/><path d="m1795.638021 3641.604167h84.895833v5.143229h-84.895833zm0 0" fill="none" stroke="#000" stroke-linejoin="round" stroke-miterlimit="10" stroke-width="8.24242" transform="matrix(.06 0 0 -.06 0 841.84)"/><path d="m107.738281 623.34375h5.09375v-.308594h-5.09375zm0 0"/><use x="350.720701" xlink:href="#ah" y="605.384527"/><use x="362.285956" xlink:href="#am" y="605.384527"/><use x="373.680818" xlink:href="#al" y="605.384527"/><use x="350.720701" xlink:href="#ah" y="629.095575"/><use x="362.285956" xlink:href="#am" y="629.095575"/><use x="373.680818" xlink:href="#al" y="629.095575"/><path d="m6166.992187 4623.960937h6.70573v459.570313h-6.70573zm0 0" fill="none" stroke="#000" stroke-linejoin="round" stroke-miterlimit="10" stroke-width="6.64757" transform="matrix(.06 0 0 -.06 0 841.84)"/><path d="m370.019531 564.402344h.402344v-27.574219h-.402344zm0 0"/><use x="402.880806" xlink:href="#S" y="557.798432"/><use x="443.184726" xlink:href="#T" y="557.798432"/><use x="436.298273" xlink:href="#az" y="605.384827"/><use x="449.564631" xlink:href="#am" y="605.384827"/><use x="435.362412" xlink:href="#aH" y="629.095875"/><use x="450.49953" xlink:href="#am" y="629.095875"/><path d="m7389.713542 4266.864583h6.770833v436.067709h-6.770833zm0 0" fill="none" stroke="#000" stroke-linejoin="round" stroke-miterlimit="10" stroke-width="6.64757" transform="matrix(.06 0 0 -.06 0 841.84)"/><path d="m443.382812 585.828125h.40625v-26.164063h-.40625zm0 0"/><path d="m7810.481771 4036.786458h84.895833v5.143229h-84.895833zm0 0" fill="none" stroke="#000" stroke-linejoin="round" stroke-miterlimit="10" stroke-width="8.24242" transform="matrix(.06 0 0 -.06 0 841.84)"/><path d="m468.628906 599.632812h5.09375v-.308593h-5.09375zm0 0"/><path d="m5653.059896 3641.604167h84.960937v5.143229h-84.960937zm0 0" fill="none" stroke="#000" stroke-linejoin="round" stroke-miterlimit="10" stroke-width="8.24242" transform="matrix(.06 0 0 -.06 0 841.84)"/><path d="m339.183594 623.34375h5.097656v-.308594h-5.097656zm0 0"/><path d="m5653.059896 4036.786458h84.960937v5.143229h-84.960937zm0 0" fill="none" stroke="#000" stroke-linejoin="round" stroke-miterlimit="10" stroke-width="8.24242" transform="matrix(.06 0 0 -.06 0 841.84)"/><path d="m339.183594 599.632812h5.097656v-.308593h-5.097656zm0 0"/><path d="m5024.739583 3641.604167h84.895834v5.143229h-84.895834zm0 0" fill="none" stroke="#000" stroke-linejoin="round" stroke-miterlimit="10" stroke-width="8.24242" transform="matrix(.06 0 0 -.06 0 841.84)"/><path d="m301.484375 623.34375h5.09375v-.308594h-5.09375zm0 0"/><path d="m4987.890625 4036.786458h84.895833v5.143229h-84.895833zm0 0" fill="none" stroke="#000" stroke-linejoin="round" stroke-miterlimit="10" stroke-width="8.24242" transform="matrix(.06 0 0 -.06 0 841.84)"/><path d="m299.273438 599.632812h5.09375v-.308593h-5.09375zm0 0"/><path d="m8649.283854 4036.786458h84.960938v5.143229h-84.960938zm0 0" fill="none" stroke="#000" stroke-linejoin="round" stroke-miterlimit="10" stroke-width="8.24242" transform="matrix(.06 0 0 -.06 0 841.84)"/><path d="m518.957031 599.632812h5.097657v-.308593h-5.097657zm0 0"/><path d="m4206.445312 3641.604167h84.895834v5.143229h-84.895834zm0 0" fill="none" stroke="#000" stroke-linejoin="round" stroke-miterlimit="10" stroke-width="8.24242" transform="matrix(.06 0 0 -.06 0 841.84)"/><path d="m252.386719 623.34375h5.09375v-.308594h-5.09375zm0 0"/><path d="m3794.921875 4369.859375v-61.067708l810.807292-28.710938v61.067708zm0 0" fill="none" stroke="#000" stroke-linejoin="round" stroke-miterlimit="10" stroke-width="6.64757" transform="matrix(.06 0 0 -.06 0 841.84)"/><path d="m227.695312 579.648438v3.664062l48.648438 1.722656v-3.664062zm0 0"/><path d="m3342.838542 4036.786458h84.895833v5.143229h-84.895833zm0 0" fill="none" stroke="#000" stroke-linejoin="round" stroke-miterlimit="10" stroke-width="8.24242" transform="matrix(.06 0 0 -.06 0 841.84)"/><path d="m200.570312 599.632812h5.09375v-.308593h-5.09375zm0 0"/><path d="m2479.492187 5159.247396v-61.067709l701.692709 28.710938v61.067708zm0 0" fill="none" stroke="#000" stroke-linejoin="round" stroke-miterlimit="10" stroke-width="6.64757" transform="matrix(.06 0 0 -.06 0 841.84)"/><path d="m148.769531 532.285156v3.664063l42.101563-1.722657v-3.664062zm0 0"/><use x="539.505079" xlink:href="#T" y="549.329415"/><use x="528.281257" xlink:href="#ad" y="605.384327"/><use x="539.846247" xlink:href="#am" y="605.384327"/><use x="551.411237" xlink:href="#ab" y="605.384327"/><use x="556.003602" xlink:href="#ac" y="605.384327"/><use x="534.064238" xlink:href="#am" y="629.095375"/><use x="545.629229" xlink:href="#ab" y="629.095375"/><use x="550.221593" xlink:href="#aF" y="629.095375"/><path d="m8995.052083 4384.507812h6.770834v459.570313h-6.770834zm0 0" fill="none" stroke="#000" stroke-linejoin="round" stroke-miterlimit="10" stroke-width="6.64757" transform="matrix(.06 0 0 -.06 0 841.84)"/><path d="m539.703125 578.769531h.40625v-27.574219h-.40625zm0 0"/><use x="138.317277" xlink:href="#T" y="562.03244"/><use x="78.506757" xlink:href="#T" y="566.266669"/><use x="55.12171" xlink:href="#aH" y="605.384847"/><use x="70.258836" xlink:href="#ai" y="605.384847"/><use x="80.633227" xlink:href="#aI" y="605.384847"/><use x="92.19824" xlink:href="#aA" y="605.384847"/><use x="96.79059" xlink:href="#al" y="605.384847"/><use x="102.573569" xlink:href="#Z" y="605.384847"/><use x="72.299545" xlink:href="#aE" y="629.095895"/><use x="84.205103" xlink:href="#ao" y="629.095895"/><path d="m1482.682292 4623.960937h6.770833v459.570313h-6.770833zm0 0" fill="none" stroke="#000" stroke-linejoin="round" stroke-miterlimit="10" stroke-width="6.64757" transform="matrix(.06 0 0 -.06 0 841.84)"/><path d="m88.960938 564.402344h.40625v-27.574219h-.40625zm0 0"/><use x="126.498253" xlink:href="#ap" y="605.384527"/><use x="138.063273" xlink:href="#ae" y="605.384527"/><use x="149.628527" xlink:href="#al" y="605.384527"/><use x="155.411505" xlink:href="#ac" y="605.384527"/><use x="124.79786" xlink:href="#ab" y="629.095575"/><use x="129.39021" xlink:href="#aJ" y="629.095575"/><use x="140.95523" xlink:href="#an" y="629.095575"/><use x="152.520249" xlink:href="#aD" y="629.095575"/><path d="m2479.492187 4694.533854h6.770834v431.119792h-6.770834zm0 0" fill="none" stroke="#000" stroke-linejoin="round" stroke-miterlimit="10" stroke-width="6.64757" transform="matrix(.06 0 0 -.06 0 841.84)"/><path d="m148.769531 560.167969h.40625v-25.867188h-.40625zm0 0"/><use x="180.01436" xlink:href="#T" y="557.798432"/><use x="174.743719" xlink:href="#aD" y="605.384827"/><use x="184.778735" xlink:href="#aC" y="605.384827"/><use x="6.775384" xlink:href="#V" y="566.266649"/><use x="36.414243" xlink:href="#U" y="540.861798"/><use x="275.740721" xlink:href="#T" y="557.798432"/><use x="269.703679" xlink:href="#aK" y="605.384827"/><use x="281.268699" xlink:href="#ao" y="605.384827"/><use x="265.281481" xlink:href="#aD" y="629.095875"/><use x="275.316496" xlink:href="#am" y="629.095875"/><use x="286.881516" xlink:href="#Z" y="629.095875"/><path d="m4598.958333 4314.195312h6.770834v388.73698h-6.770834zm0 0" fill="none" stroke="#000" stroke-linejoin="round" stroke-miterlimit="10" stroke-width="6.64757" transform="matrix(.06 0 0 -.06 0 841.84)"/><path d="m275.9375 582.988281h.40625v-23.324219h-.40625zm0 0"/><path d="m3174.479167 4765.106771h6.705729v388.736979h-6.705729zm0 0" fill="none" stroke="#000" stroke-linejoin="round" stroke-miterlimit="10" stroke-width="6.64757" transform="matrix(.06 0 0 -.06 0 841.84)"/><path d="m190.46875 555.933594h.402344v-23.324219h-.402344zm0 0"/><use x="316.246632" xlink:href="#T" y="562.03244"/><use x="310.805842" xlink:href="#Z" y="605.384827"/><use x="321.180233" xlink:href="#aC" y="605.384827"/><use x="310.805842" xlink:href="#Z" y="629.095875"/><use x="321.180233" xlink:href="#aC" y="629.095875"/><path d="m5444.986979 4694.533854h6.770833v459.570313h-6.770833zm0 0" fill="none" stroke="#000" stroke-linejoin="round" stroke-miterlimit="10" stroke-width="6.64757" transform="matrix(.06 0 0 -.06 0 841.84)"/><path d="m326.699219 560.167969h.40625v-27.574219h-.40625zm0 0"/><use x="179.76036" xlink:href="#aa" y="629.095575"/><use x="227.494255" xlink:href="#T" y="553.563823"/><use x="209.89222" xlink:href="#ax" y="605.384427"/><use x="216.865816" xlink:href="#aJ" y="605.384427"/><use x="228.430836" xlink:href="#an" y="605.384427"/><use x="239.99609" xlink:href="#aD" y="605.384427"/><use x="250.370482" xlink:href="#ac" y="605.384427"/><path d="m3794.921875 4342.450521h6.705729v431.054687h-6.705729zm0 0" fill="none" stroke="#000" stroke-linejoin="round" stroke-miterlimit="10" stroke-width="6.64757" transform="matrix(.06 0 0 -.06 0 841.84)"/><path d="m227.695312 581.292969h.402344v-25.863281h-.402344zm0 0"/><use x="221.457443" xlink:href="#aK" y="629.095575"/><use x="233.022463" xlink:href="#aC" y="629.095575"/><g clip-path="url(#H)"><path d="m5.143229 2693.6875h9911.002604" style="fill:none;stroke-width:10.2889;stroke-linecap:round;stroke-linejoin:round;stroke:#000;stroke-miterlimit:10" transform="matrix(.06 0 0 -.06 0 841.84)"/></g><g clip-path="url(#I)"><path d="m5.143229 2834.833333h9911.002604" style="fill:none;stroke-width:10.2889;stroke-linecap:round;stroke-linejoin:round;stroke:#000;stroke-miterlimit:10" transform="matrix(.06 0 0 -.06 0 841.84)"/></g><g clip-path="url(#J)"><path d="m5.143229 2975.979167h9911.002604" style="fill:none;stroke-width:10.2889;stroke-linecap:round;stroke-linejoin:round;stroke:#000;stroke-miterlimit:10" transform="matrix(.06 0 0 -.06 0 841.84)"/></g><g clip-path="url(#K)"><path d="m5.143229 3117.125h9911.002604" style="fill:none;stroke-width:10.2889;stroke-linecap:round;stroke-linejoin:round;stroke:#000;stroke-miterlimit:10" transform="matrix(.06 0 0 -.06 0 841.84)"/></g><g clip-path="url(#L)"><path d="m5.143229 3258.205729h9911.002604" style="fill:none;stroke-width:10.2889;stroke-linecap:round;stroke-linejoin:round;stroke:#000;stroke-miterlimit:10" transform="matrix(.06 0 0 -.06 0 841.84)"/></g><path d="m8312.760417 2865.888021h6.770833v459.570312h-6.770833zm0 0" style="fill:none;stroke-width:6.64757;stroke-linecap:round;stroke-linejoin:round;stroke:#000;stroke-miterlimit:10" transform="matrix(.06 0 0 -.06 0 841.84)"/><path d="m498.765625 669.886719h.40625v-27.574219h-.40625zm0 0"/><use x="477.343955" xlink:href="#aD" y="710.157737"/><use x="487.378736" xlink:href="#am" y="710.157737"/><use x="498.773569" xlink:href="#al" y="710.157737"/><use x="504.556563" xlink:href="#ac" y="710.157737"/><use x="488.312977" xlink:href="#T" y="671.74996"/><path d="m7396.289062 2936.460937h6.770834v459.570313h-6.770834zm0 0" style="fill:none;stroke-width:6.64757;stroke-linecap:round;stroke-linejoin:round;stroke:#000;stroke-miterlimit:10" transform="matrix(.06 0 0 -.06 0 841.84)"/><path d="m443.777344 665.652344h.40625v-27.574219h-.40625zm0 0"/><use x="424.395849" xlink:href="#al" y="710.157737"/><use x="430.178813" xlink:href="#aJ" y="710.157737"/><use x="441.743832" xlink:href="#an" y="710.157737"/><use x="433.323917" xlink:href="#T" y="667.515651"/><path d="m6392.382812 2556.122396h6.770834v388.736979h-6.770834zm0 0" style="fill:none;stroke-width:6.64757;stroke-linecap:round;stroke-linejoin:round;stroke:#000;stroke-miterlimit:10" transform="matrix(.06 0 0 -.06 0 841.84)"/><path d="m383.542969 688.472656h.40625v-23.324218h-.40625zm0 0"/><use x="375.18275" xlink:href="#al" y="710.157737"/><use x="380.625402" xlink:href="#am" y="710.157737"/><use x="392.190422" xlink:href="#Z" y="710.157737"/><use x="383.345347" xlink:href="#T" y="663.281743"/><path d="m5557.291667 2584.377604h6.705729v431.054688h-6.705729zm0 0" style="fill:none;stroke-width:6.64757;stroke-linecap:round;stroke-linejoin:round;stroke:#000;stroke-miterlimit:10" transform="matrix(.06 0 0 -.06 0 841.84)"/><path d="m333.4375 686.777344h.402344v-25.863282h-.402344zm0 0"/><use x="324.395649" xlink:href="#al" y="710.157737"/><use x="330.008456" xlink:href="#ag" y="710.157737"/><use x="341.573476" xlink:href="#ad" y="710.157737"/><use x="333.238166" xlink:href="#T" y="659.047434"/><path d="m2034.765625 2611.851562v-61.132812l841.861979-28.710938v61.067709zm0 0" fill="none" stroke="#000" stroke-linejoin="round" stroke-miterlimit="10" stroke-width="6.64757" transform="matrix(.06 0 0 -.06 0 841.84)"/><path d="m122.085938 685.128906v3.667969l50.511718 1.722656v-3.664062zm0 0"/><path d="m2445.572917 2290.5625h84.895833v5.143229h-84.895833zm0 0" fill="none" stroke="#000" stroke-linejoin="round" stroke-miterlimit="10" stroke-width="8.24242" transform="matrix(.06 0 0 -.06 0 841.84)"/><path d="m146.734375 704.40625h5.09375v-.308594h-5.09375zm0 0"/><path d="m4295.182292 2290.5625h84.895833v5.143229h-84.895833zm0 0" fill="none" stroke="#000" stroke-linejoin="round" stroke-miterlimit="10" stroke-width="8.24242" transform="matrix(.06 0 0 -.06 0 841.84)"/><path d="m257.710938 704.40625h5.09375v-.308594h-5.09375zm0 0"/><path d="m5126.953125 2290.5625h84.960937v5.143229h-84.960937zm0 0" fill="none" stroke="#000" stroke-linejoin="round" stroke-miterlimit="10" stroke-width="8.24242" transform="matrix(.06 0 0 -.06 0 841.84)"/><path d="m307.617188 704.40625h5.097656v-.308594h-5.097656zm0 0"/><path d="m5557.291667 2611.851562v-61.132812l841.861979-28.710938v61.067709zm0 0" fill="none" stroke="#000" stroke-linejoin="round" stroke-miterlimit="10" stroke-width="6.64757" transform="matrix(.06 0 0 -.06 0 841.84)"/><path d="m333.4375 685.128906v3.667969l50.511719 1.722656v-3.664062zm0 0"/><path d="m6848.893229 2290.5625h84.895833v5.143229h-84.895833zm0 0" fill="none" stroke="#000" stroke-linejoin="round" stroke-miterlimit="10" stroke-width="8.24242" transform="matrix(.06 0 0 -.06 0 841.84)"/><path d="m410.933594 704.40625h5.09375v-.308594h-5.09375zm0 0"/><path d="m7712.955729 2290.5625h84.960938v5.143229h-84.960938zm0 0" fill="none" stroke="#000" stroke-linejoin="round" stroke-miterlimit="10" stroke-width="8.24242" transform="matrix(.06 0 0 -.06 0 841.84)"/><path d="m462.777344 704.40625h5.09375v-.308594h-5.09375zm0 0"/><use x="543.301087" xlink:href="#S" y="663.281643"/><use x="116.446233" xlink:href="#at" y="710.157637"/><use x="133.794221" xlink:href="#au" y="710.157637"/><use x="121.887024" xlink:href="#T" y="659.047334"/><path d="m1118.294271 2626.434896h6.770833v459.570312h-6.770833zm0 0" fill="none" stroke="#000" stroke-linejoin="round" stroke-miterlimit="10" stroke-width="6.64757" transform="matrix(.06 0 0 -.06 0 841.84)"/><path d="m67.097656 684.253906h.40625v-27.574218h-.40625zm0 0"/><use x="59.077118" xlink:href="#ay" y="710.157737"/><use x="74.214009" xlink:href="#am" y="710.157737"/><use x="66.899164" xlink:href="#T" y="654.813526"/><use x="271.617573" xlink:href="#al" y="710.157737"/><use x="277.400537" xlink:href="#aa" y="710.157737"/><use x="288.965557" xlink:href="#ax" y="710.157737"/><use x="36.413103" xlink:href="#U" y="646.345309"/><use x="6.774244" xlink:href="#V" y="671.74996"/><path d="m4640.820312 2508.791667h6.70573v436.067708h-6.70573zm0 0" fill="none" stroke="#000" stroke-linejoin="round" stroke-miterlimit="10" stroke-width="6.64757" transform="matrix(.06 0 0 -.06 0 841.84)"/><path d="m278.449219 691.3125h.402343v-26.164062h-.402343zm0 0"/><use x="278.249556" xlink:href="#T" y="663.281643"/><path d="m3893.098958 2936.460937h6.770834v459.570313h-6.770834zm0 0" fill="none" stroke="#000" stroke-linejoin="round" stroke-miterlimit="10" stroke-width="6.64757" transform="matrix(.06 0 0 -.06 0 841.84)"/><path d="m233.585938 665.652344h.402343v-27.574219h-.402343zm0 0"/><use x="208.421417" xlink:href="#at" y="710.157737"/><use x="225.769405" xlink:href="#am" y="710.157737"/><use x="237.334659" xlink:href="#ah" y="710.157737"/><use x="223.131746" xlink:href="#T" y="667.515651"/><path d="m2034.765625 2584.377604h6.770833v431.054688h-6.770833zm0 0" fill="none" stroke="#000" stroke-linejoin="round" stroke-miterlimit="10" stroke-width="6.64757" transform="matrix(.06 0 0 -.06 0 841.84)"/><path d="m122.085938 686.777344h.40625v-25.863282h-.40625zm0 0"/><path d="m2869.921875 2556.122396h6.705729v388.736979h-6.705729zm0 0" fill="none" stroke="#000" stroke-linejoin="round" stroke-miterlimit="10" stroke-width="6.64757" transform="matrix(.06 0 0 -.06 0 841.84)"/><path d="m172.195312 688.472656h.402344v-23.324218h-.402344zm0 0"/><use x="160.17632" xlink:href="#ad" y="710.157737"/><use x="171.74134" xlink:href="#ao" y="710.157737"/><use x="183.30636" xlink:href="#an" y="710.157737"/><use x="171.995444" xlink:href="#T" y="663.281743"/><g clip-path="url(#M)"><path d="m5.143229 1000.067708h9911.002604" style="fill:none;stroke-width:10.2889;stroke-linecap:round;stroke-linejoin:round;stroke:#000;stroke-miterlimit:10" transform="matrix(.06 0 0 -.06 0 841.84)"/></g><g clip-path="url(#N)"><path d="m5.143229 1141.148437h9911.002604" style="fill:none;stroke-width:10.2889;stroke-linecap:round;stroke-linejoin:round;stroke:#000;stroke-miterlimit:10" transform="matrix(.06 0 0 -.06 0 841.84)"/></g><g clip-path="url(#O)"><path d="m5.143229 1282.294271h9911.002604" style="fill:none;stroke-width:10.2889;stroke-linecap:round;stroke-linejoin:round;stroke:#000;stroke-miterlimit:10" transform="matrix(.06 0 0 -.06 0 841.84)"/></g><g clip-path="url(#P)"><path d="m5.143229 1423.440104h9911.002604" style="fill:none;stroke-width:10.2889;stroke-linecap:round;stroke-linejoin:round;stroke:#000;stroke-miterlimit:10" transform="matrix(.06 0 0 -.06 0 841.84)"/></g><g clip-path="url(#Q)"><path d="m5.143229 1564.585937h9911.002604" style="fill:none;stroke-width:10.2889;stroke-linecap:round;stroke-linejoin:round;stroke:#000;stroke-miterlimit:10" transform="matrix(.06 0 0 -.06 0 841.84)"/></g><g clip-path="url(#R)"><path d="m9890.364583 1000.067708v564.518229" fill="none" stroke="#000" stroke-linejoin="round" stroke-miterlimit="10" stroke-width="61.7617" transform="matrix(.06 0 0 -.06 0 841.84)"/></g><path d="m9818.815104 1000.067708v564.518229" fill="none" stroke="#000" stroke-linejoin="round" stroke-miterlimit="10" stroke-width="19.5616" transform="matrix(.06 0 0 -.06 0 841.84)"/><use x="402.197804" xlink:href="#T" y="769.135355"/><use x="479.313159" xlink:href="#aD" y="811.78724"/><use x="489.348174" xlink:href="#am" y="811.78724"/><use x="500.743008" xlink:href="#al" y="811.78724"/><use x="506.526001" xlink:href="#aL" y="811.78724"/><use x="495.810192" xlink:href="#Y" y="741.494799"/><use x="490.0012" xlink:href="#X" y="773.369363"/><path d="m6877.539062 1242.841146h6.70573v459.570312h-6.70573zm0 0" fill="none" stroke="#000" stroke-linejoin="round" stroke-miterlimit="10" stroke-width="6.64757" transform="matrix(.06 0 0 -.06 0 841.84)"/><path d="m412.652344 767.269531h.402344v-27.574219h-.402344zm0 0"/><use x="391.058782" xlink:href="#aD" y="811.78724"/><use x="401.263955" xlink:href="#aJ" y="811.78724"/><use x="412.828974" xlink:href="#an" y="811.78724"/><path d="m5387.5 862.372396h6.770833v388.867187h-6.770833zm0 0" fill="none" stroke="#000" stroke-linejoin="round" stroke-miterlimit="10" stroke-width="6.64757" transform="matrix(.06 0 0 -.06 0 841.84)"/><path d="m323.25 790.097656h.40625v-23.332031h-.40625zm0 0"/><use x="318.204636" xlink:href="#ab" y="811.78724"/><use x="322.796972" xlink:href="#am" y="811.78724"/><use x="334.362226" xlink:href="#ab" y="811.78724"/><use x="323.051056" xlink:href="#T" y="764.901146"/><path d="m4066.210937 918.166667v-61.132813l1327.994792-28.710937v61.132812zm0 0" fill="none" stroke="#000" stroke-linejoin="round" stroke-miterlimit="10" stroke-width="6.64757" transform="matrix(.06 0 0 -.06 0 841.84)"/><path d="m243.972656 786.75v3.667969l79.679688 1.722656v-3.667969zm0 0"/><path d="m6040.950521 596.747396h84.960937v5.143229h-84.960937zm0 0" fill="none" stroke="#000" stroke-linejoin="round" stroke-miterlimit="10" stroke-width="8.24242" transform="matrix(.06 0 0 -.06 0 841.84)"/><path d="m362.457031 806.035156h5.097657v-.308594h-5.097657zm0 0"/><path d="m7488.411458 596.747396h84.960938v5.143229h-84.960938zm0 0" fill="none" stroke="#000" stroke-linejoin="round" stroke-miterlimit="10" stroke-width="8.24242" transform="matrix(.06 0 0 -.06 0 841.84)"/><path d="m449.304688 806.035156h5.09375v-.308594h-5.09375zm0 0"/><path d="m8350.260417 1182.359375h6.705729v449.479167h-6.705729zm0 0" fill="none" stroke="#000" stroke-linejoin="round" stroke-miterlimit="10" stroke-width="6.64757" transform="matrix(.06 0 0 -.06 0 841.84)"/><path d="m501.015625 770.898438h.402344v-26.96875h-.402344zm0 0"/><use x="6.774624" xlink:href="#V" y="773.369363"/><use x="58.230326" xlink:href="#aH" y="811.78724"/><use x="73.367217" xlink:href="#am" y="811.78724"/><use x="36.413483" xlink:href="#U" y="747.964712"/><use x="66.052342" xlink:href="#T" y="764.901146"/><path d="m4066.210937 890.822917h6.770834v430.989583h-6.770834zm0 0" fill="none" stroke="#000" stroke-linejoin="round" stroke-miterlimit="10" stroke-width="6.64757" transform="matrix(.06 0 0 -.06 0 841.84)"/><path d="m243.972656 788.390625h.40625v-25.859375h-.40625zm0 0"/><use x="241.225482" xlink:href="#am" y="811.78724"/><use x="252.790737" xlink:href="#ab" y="811.78724"/><use x="243.775488" xlink:href="#T" y="760.666938"/><path d="m2602.864583 932.815104h6.770834v459.570313h-6.770834zm0 0" fill="none" stroke="#000" stroke-linejoin="round" stroke-miterlimit="10" stroke-width="6.64757" transform="matrix(.06 0 0 -.06 0 841.84)"/><path d="m156.171875 785.871094h.40625v-27.574219h-.40625zm0 0"/><use x="133.183266" xlink:href="#ap" y="811.78724"/><use x="144.748286" xlink:href="#aa" y="811.78724"/><use x="156.313306" xlink:href="#ah" y="811.78724"/><use x="167.87856" xlink:href="#ai" y="811.78724"/><use x="178.252951" xlink:href="#ad" y="811.78724"/><use x="155.973012" xlink:href="#T" y="756.432929"/><path d="m1104.166667 815.171875h6.770833v436.067708h-6.770833zm0 0" fill="none" stroke="#000" stroke-linejoin="round" stroke-miterlimit="10" stroke-width="6.64757" transform="matrix(.06 0 0 -.06 0 841.84)"/><path d="m66.25 792.929688h.40625v-26.164063h-.40625zm0 0"/></svg>