<svg height="398.36em" viewBox="0 0 595.28 398.36" width="595.28em" xmlns="http://www.w3.org/2000/svg" xmlns:xlink="http://www.w3.org/1999/xlink"><clipPath id="a"><path d="m0 53h595.28125v2h-595.28125zm0 0"/></clipPath><clipPath id="b"><path d="m0 45h595.28125v2h-595.28125zm0 0"/></clipPath><clipPath id="c"><path d="m0 37h595.28125v2h-595.28125zm0 0"/></clipPath><clipPath id="d"><path d="m0 29h595.28125v2h-595.28125zm0 0"/></clipPath><clipPath id="e"><path d="m0 21h595.28125v2h-595.28125zm0 0"/></clipPath><clipPath id="f"><path d="m0 149h595.28125v1h-595.28125zm0 0"/></clipPath><clipPath id="g"><path d="m0 141h595.28125v1h-595.28125zm0 0"/></clipPath><clipPath id="h"><path d="m0 133h595.28125v1h-595.28125zm0 0"/></clipPath><clipPath id="i"><path d="m0 125h595.28125v2h-595.28125zm0 0"/></clipPath><clipPath id="j"><path d="m0 117h595.28125v2h-595.28125zm0 0"/></clipPath><clipPath id="k"><path d="m0 244h595.28125v2h-595.28125zm0 0"/></clipPath><clipPath id="l"><path d="m0 237h595.28125v1h-595.28125zm0 0"/></clipPath><clipPath id="m"><path d="m0 229h595.28125v1h-595.28125zm0 0"/></clipPath><clipPath id="n"><path d="m0 221h595.28125v1h-595.28125zm0 0"/></clipPath><clipPath id="o"><path d="m0 213h595.28125v1h-595.28125zm0 0"/></clipPath><clipPath id="p"><path d="m0 340h595.28125v2h-595.28125zm0 0"/></clipPath><clipPath id="q"><path d="m0 332h595.28125v2h-595.28125zm0 0"/></clipPath><clipPath id="r"><path d="m0 324h595.28125v2h-595.28125zm0 0"/></clipPath><clipPath id="s"><path d="m0 316h595.28125v2h-595.28125zm0 0"/></clipPath><clipPath id="t"><path d="m0 308h595.28125v2h-595.28125zm0 0"/></clipPath><clipPath id="u"><path d="m591 307h4.28125v36h-4.28125zm0 0"/></clipPath><symbol id="v" overflow="visible"><path d="m10.84375-14.359375.03125 10.09375c0 1.921875-1.40625 3.109375-3.6875 3.109375s-3.6875-1.1875-3.6875-3.109375v-10.09375h-1.828125v10.09375c0 2.875 2.171875 4.71875 5.515625 4.71875s5.515625-1.875 5.515625-4.71875l-.03125-10.09375zm-3.21875-4.125-1.890625 2.90625h1.171875l2.9375-2.90625zm0 0"/></symbol><symbol id="w" overflow="visible"><path d="m1.359375-10.3125v10.3125h1.65625v-5.359375c.015625-2.46875 1.046875-3.578125 3.296875-3.515625v-1.671875c-.265625-.046875-.421875-.0625-.625-.0625-1.0625 0-1.875.625-2.8125 2.15625v-1.859375zm0 0"/></symbol><symbol id="x" overflow="visible"><path d="m3.8125-14.359375h-1.84375v14.359375h1.84375zm0 0"/></symbol><symbol id="y" overflow="visible"><path d="m8.625-7.4375c-.015625-2.03125-1.359375-3.171875-3.75-3.171875s-3.953125 1.234375-3.953125 3.140625c0 1.625.828125 2.390625 3.265625 2.984375l1.546875.375c1.140625.265625 1.59375.6875 1.59375 1.40625 0 .984375-.96875 1.640625-2.40625 1.640625-.890625 0-1.640625-.25-2.046875-.6875-.25-.296875-.375-.59375-.46875-1.328125h-1.734375c.078125 2.390625 1.421875 3.53125 4.109375 3.53125 2.59375 0 4.25-1.28125 4.25-3.265625 0-1.53125-.859375-2.390625-2.90625-2.875l-1.578125-.375c-1.34375-.3125-1.90625-.75-1.90625-1.484375 0-.953125.84375-1.546875 2.1875-1.546875 1.3125 0 2.015625.5625 2.0625 1.65625zm0 0"/></symbol><symbol id="z" overflow="visible"><path d="m10.09375-4.609375c0-1.578125-.109375-2.515625-.40625-3.28125-.671875-1.703125-2.25-2.71875-4.171875-2.71875-2.875 0-4.734375 2.1875-4.734375 5.59375s1.78125 5.46875 4.6875 5.46875c2.359375 0 4-1.34375 4.421875-3.578125h-1.65625c-.453125 1.359375-1.390625 2.0625-2.703125 2.0625-1.046875 0-1.921875-.46875-2.484375-1.34375-.390625-.59375-.53125-1.171875-.546875-2.203125zm-7.546875-1.34375c.125-1.90625 1.296875-3.140625 2.953125-3.140625 1.671875 0 2.828125 1.296875 2.828125 3.140625zm0 0"/></symbol><symbol id="A" overflow="visible"><path d="m3-14.359375h-1.65625v14.359375h1.65625zm0 0"/></symbol><symbol id="B" overflow="visible"><path d="m1.71875-2.046875v2.046875h1.171875v.359375c0 1.359375-.25 1.75-1.171875 1.78125v.75c1.296875.046875 2.0625-.90625 2.0625-2.578125v-2.359375zm0 0"/></symbol><symbol id="C" overflow="visible"><path d="m3.484375-10.3125h-1.640625v10.3125h1.640625zm-.3125-4.25-1.890625 2.90625h1.171875l2.9375-2.90625zm0 0"/></symbol><symbol id="D" overflow="visible"><path d="m7.953125-10.3125v1.5c-.828125-1.25-1.734375-1.796875-3.03125-1.796875-2.5 0-4.234375 2.328125-4.234375 5.625 0 1.734375.421875 3 1.296875 4.046875.765625.890625 1.75 1.390625 2.8125 1.390625 1.25 0 2.140625-.546875 3-1.84375v.53125c0 2.75-.765625 3.765625-2.8125 3.765625-1.40625 0-2.125-.546875-2.28125-1.71875h-1.671875c.15625 1.90625 1.671875 3.109375 3.90625 3.109375 1.515625 0 2.78125-.5 3.453125-1.328125.78125-.953125 1.078125-2.234375 1.078125-4.65625v-8.625zm-2.875 1.21875c1.734375 0 2.71875 1.453125 2.71875 4.078125 0 2.5-1 3.953125-2.71875 3.953125-1.6875 0-2.671875-1.484375-2.671875-4.015625 0-2.515625.984375-4.015625 2.671875-4.015625zm0 0"/></symbol><symbol id="E" overflow="visible"><path d="m7.640625-10.3125-2.859375 8.03125-2.640625-8.03125h-1.75l3.484375 10.359375-.625 1.625c-.28125.734375-.625 1-1.328125 1-.265625 0-.5-.03125-.859375-.109375v1.46875c.328125.1875.671875.265625 1.109375.265625.53125 0 1.09375-.1875 1.53125-.5.515625-.375.8125-.796875 1.125-1.625l4.578125-12.484375zm0 0"/></symbol><symbol id="F" overflow="visible"><path d="m5-10.3125h-1.6875v-2.84375h-1.640625v2.84375h-1.390625v1.328125h1.390625v7.796875c0 1.0625.703125 1.640625 1.984375 1.640625.4375 0 .796875-.046875 1.34375-.140625v-1.375c-.234375.0625-.453125.078125-.78125.078125-.71875 0-.90625-.203125-.90625-.921875v-7.078125h1.6875zm0 0"/></symbol><symbol id="G" overflow="visible"><path d="m1.375-10.3125v10.3125h1.65625v-5.6875c0-2.109375 1.109375-3.484375 2.796875-3.484375 1.296875 0 2.125.78125 2.125 2.03125v7.140625h1.640625v-7.796875c0-1.71875-1.28125-2.8125-3.28125-2.8125-1.53125 0-2.515625.59375-3.421875 2.03125v-1.734375zm0 0"/></symbol><symbol id="H" overflow="visible"><path d="m6.5-3.921875v-.921875c.015625-.890625.296875-1.3125 1.546875-2.4375 1.484375-1.34375 1.96875-2.203125 1.96875-3.53125 0-2.296875-1.625-3.78125-4.1875-3.78125-2.859375 0-4.3125 1.5625-4.3125 4.609375h1.671875c0-2.125.765625-3.0625 2.546875-3.0625 1.515625 0 2.515625.90625 2.515625 2.234375 0 .90625-.4375 1.671875-1.484375 2.609375-1.671875 1.46875-2.046875 2.046875-2.046875 3.203125v1.078125zm0 1.875h-1.78125v2.046875h1.78125zm0 0"/></symbol><symbol id="I" overflow="visible"><path d="m10.09375-4.609375c0-1.578125-.109375-2.515625-.40625-3.28125-.671875-1.703125-2.25-2.71875-4.171875-2.71875-2.875 0-4.734375 2.1875-4.734375 5.59375s1.78125 5.46875 4.6875 5.46875c2.359375 0 4-1.34375 4.421875-3.578125h-1.65625c-.453125 1.359375-1.390625 2.0625-2.703125 2.0625-1.046875 0-1.921875-.46875-2.484375-1.34375-.390625-.59375-.53125-1.171875-.546875-2.203125zm-7.546875-1.34375c.125-1.90625 1.296875-3.140625 2.953125-3.140625 1.671875 0 2.828125 1.296875 2.828125 3.140625zm3.515625-8.609375-1.890625 2.90625h1.1875l2.921875-2.90625zm0 0"/></symbol><symbol id="J" overflow="visible"><path d="m9.21875 0 4.03125-12.03125v12.03125h1.734375v-14.359375h-2.546875l-4.171875 12.515625-4.25-12.515625h-2.546875v14.359375h1.734375v-12.03125l4.078125 12.03125zm0 0"/></symbol><symbol id="K" overflow="visible"><path d="m2.953125-10.3125h-1.640625v10.3125h1.640625zm0-4.046875h-1.65625v2.078125h1.65625zm0 0"/></symbol><symbol id="L" overflow="visible"><path d="m1.375-10.3125v10.3125h1.65625v-6.484375c0-1.484375 1.078125-2.6875 2.421875-2.6875 1.21875 0 1.90625.75 1.90625 2.0625v7.109375h1.65625v-6.484375c0-1.484375 1.078125-2.6875 2.421875-2.6875 1.203125 0 1.90625.765625 1.90625 2.0625v7.109375h1.65625v-7.734375c0-1.859375-1.0625-2.875-2.984375-2.875-1.390625 0-2.21875.40625-3.171875 1.578125-.609375-1.109375-1.4375-1.578125-2.78125-1.578125-1.375 0-2.296875.515625-3.171875 1.75v-1.453125zm0 0"/></symbol><symbol id="M" overflow="visible"><path d="m5.609375 0 3.953125-10.3125h-1.84375l-2.921875 8.359375-2.75-8.359375h-1.84375l3.609375 10.3125zm0 0"/></symbol><symbol id="N" overflow="visible"><path d="m8.71875-10.3125h-7.6875v1.4375h5.734375l-6.15625 7.40625v1.46875h8.390625v-1.4375h-6.40625l6.125-7.421875zm0 0"/></symbol><symbol id="O" overflow="visible"><path d="m2.78125-14.359375h-1.640625v14.359375h1.640625v-4.015625l1.59375-1.578125 3.484375 5.59375h2.03125l-4.21875-6.75 3.578125-3.5625h-2.109375l-4.359375 4.359375zm0 0"/></symbol><symbol id="P" overflow="visible"><path d="m5.59375-6.140625h-4.6875v1.421875h4.6875zm0 0"/></symbol><symbol id="Q" overflow="visible"><path d="m10.53125-.96875c-.171875.046875-.25.046875-.359375.046875-.5625 0-.875-.296875-.875-.8125v-6.0625c0-1.828125-1.34375-2.8125-3.890625-2.8125-1.515625 0-2.703125.4375-3.421875 1.203125-.46875.53125-.671875 1.125-.703125 2.140625h1.65625c.140625-1.265625.875-1.828125 2.421875-1.828125 1.484375 0 2.296875.546875 2.296875 1.53125v.4375c-.015625.703125-.375.96875-1.703125 1.140625-2.328125.296875-2.6875.375-3.3125.625-1.203125.515625-1.8125 1.421875-1.8125 2.765625 0 1.859375 1.296875 3.046875 3.390625 3.046875 1.296875 0 2.34375-.453125 3.5-1.515625.109375 1.0625.625 1.515625 1.6875 1.515625.359375 0 .578125-.046875 1.125-.171875zm-2.875-2.28125c0 .546875-.15625.890625-.640625 1.34375-.671875.609375-1.484375.921875-2.453125.921875-1.28125 0-2.015625-.609375-2.015625-1.65625 0-1.078125.703125-1.625 2.46875-1.890625 1.75-.234375 2.09375-.3125 2.640625-.5625zm-1.671875-11.3125-1.90625 2.90625h1.171875l2.9375-2.90625zm0 0"/></symbol><symbol id="R" overflow="visible"><path d="m10.53125-.96875c-.171875.046875-.25.046875-.359375.046875-.5625 0-.875-.296875-.875-.8125v-6.0625c0-1.828125-1.34375-2.8125-3.890625-2.8125-1.515625 0-2.703125.4375-3.421875 1.203125-.46875.53125-.671875 1.125-.703125 2.140625h1.65625c.140625-1.265625.875-1.828125 2.421875-1.828125 1.484375 0 2.296875.546875 2.296875 1.53125v.4375c-.015625.703125-.375.96875-1.703125 1.140625-2.328125.296875-2.6875.375-3.3125.625-1.203125.515625-1.8125 1.421875-1.8125 2.765625 0 1.859375 1.296875 3.046875 3.390625 3.046875 1.296875 0 2.34375-.453125 3.5-1.515625.109375 1.0625.625 1.515625 1.6875 1.515625.359375 0 .578125-.046875 1.125-.171875zm-2.875-2.28125c0 .546875-.15625.890625-.640625 1.34375-.671875.609375-1.484375.921875-2.453125.921875-1.28125 0-2.015625-.609375-2.015625-1.65625 0-1.078125.703125-1.625 2.46875-1.890625 1.75-.234375 2.09375-.3125 2.640625-.5625zm0 0"/></symbol><symbol id="S" overflow="visible"><path d="m5.359375-10.609375c-2.921875 0-4.65625 2.0625-4.65625 5.53125 0 3.484375 1.734375 5.53125 4.671875 5.53125 2.90625 0 4.671875-2.0625 4.671875-5.453125 0-3.578125-1.703125-5.609375-4.6875-5.609375zm.015625 1.515625c1.84375 0 2.953125 1.515625 2.953125 4.078125 0 2.4375-1.140625 3.953125-2.953125 3.953125-1.828125 0-2.953125-1.515625-2.953125-4.015625s1.125-4.015625 2.953125-4.015625zm0 0"/></symbol><symbol id="T" overflow="visible"><path d="m1.375-14.359375v14.359375h1.640625v-5.6875c0-2.109375 1.09375-3.484375 2.796875-3.484375.546875 0 1.0625.15625 1.453125.453125.46875.359375.671875.84375.671875 1.578125v7.140625h1.625v-7.796875c0-1.734375-1.234375-2.8125-3.25-2.8125-1.453125 0-2.328125.453125-3.296875 1.703125v-5.453125zm0 0"/></symbol><symbol id="U" overflow="visible"><path d="m9.484375 0v-10.3125h-1.625v5.84375c0 2.109375-1.109375 3.484375-2.8125 3.484375-1.3125 0-2.140625-.78125-2.140625-2.03125v-7.296875h-1.625v7.953125c0 1.703125 1.28125 2.8125 3.28125 2.8125 1.515625 0 2.484375-.53125 3.453125-1.890625v1.4375zm-4.65625-14.078125h-2.046875v2.03125h2.046875zm3.1875 0h-2.046875v2.03125h2.046875zm0 0"/></symbol><symbol id="V" overflow="visible"><path d="m9.75-14.359375h-1.640625v5.34375c-.6875-1.046875-1.796875-1.59375-3.171875-1.59375-2.671875 0-4.421875 2.140625-4.421875 5.4375 0 3.484375 1.6875 5.625 4.484375 5.625 1.421875 0 2.40625-.53125 3.28125-1.8125v1.359375h1.46875zm-4.53125 5.28125c1.765625 0 2.890625 1.5625 2.890625 4.03125 0 2.390625-1.140625 3.96875-2.875 3.96875-1.8125 0-3.015625-1.59375-3.015625-4s1.203125-4 3-4zm0 0"/></symbol><symbol id="W" overflow="visible"><path d="m1.375-10.3125v11.8125c0 1.015625-.3125 1.359375-1.328125 1.359375-.125 0-.1875 0-.40625-.03125v1.40625c.203125.03125.296875.0625.5625.0625 1.84375 0 2.8125-.734375 2.8125-2.15625v-12.453125zm1.640625-4.046875h-1.640625v2.078125h1.640625zm0 0"/></symbol><symbol id="X" overflow="visible"><path d="m5.078125-10.3125h-1.71875v-1.625c0-.6875.375-1.03125 1.15625-1.03125.125 0 .1875 0 .5625.015625v-1.359375c-.375-.078125-.59375-.09375-.921875-.09375-1.515625 0-2.421875.859375-2.421875 2.34375v1.75h-1.375v1.328125h1.375v8.984375h1.625v-8.984375h1.71875zm0 0"/></symbol><symbol id="Y" overflow="visible"><path d="m5.359375-10.609375c-2.921875 0-4.65625 2.0625-4.65625 5.53125 0 3.484375 1.734375 5.53125 4.671875 5.53125 2.90625 0 4.671875-2.0625 4.671875-5.453125 0-3.578125-1.703125-5.609375-4.6875-5.609375zm.015625 1.515625c1.84375 0 2.953125 1.515625 2.953125 4.078125 0 2.4375-1.140625 3.953125-2.953125 3.953125-1.828125 0-2.953125-1.515625-2.953125-4.015625s1.125-4.015625 2.953125-4.015625zm-.578125-4.984375h-2.046875v2.03125h2.046875zm3.203125 0h-2.046875v2.03125h2.046875zm0 0"/></symbol><symbol id="Z" overflow="visible"><path d="m6.5625-14.359375v10.109375c0 1.140625-.125 1.796875-.453125 2.28125-.359375.546875-1.03125.890625-1.765625.890625-1.375 0-2.140625-.9375-2.140625-2.609375v-.921875h-1.875v1.265625c0 2.3125 1.546875 3.796875 4 3.796875 2.5 0 4.0625-1.5625 4.0625-4.03125v-10.78125zm0 0"/></symbol><symbol id="aa" overflow="visible"><path d="m9.484375 0v-10.3125h-1.625v5.84375c0 2.109375-1.109375 3.484375-2.8125 3.484375-1.3125 0-2.140625-.78125-2.140625-2.03125v-7.296875h-1.625v7.953125c0 1.703125 1.28125 2.8125 3.28125 2.8125 1.515625 0 2.484375-.53125 3.453125-1.890625v1.4375zm0 0"/></symbol><symbol id="ab" overflow="visible"><path d="m7.078125-4.296875c-1.34375 0-2.609375.4375-3.765625 1.140625-1.5.890625-3.3125 2.453125-3.3125 4.71875 0 1.875 1.65625 2.734375 3.34375 2.734375 1.34375 0 2.609375-.4375 3.765625-1.140625 1.5-.890625 3.28125-2.453125 3.28125-4.71875 0-1.875-1.625-2.734375-3.3125-2.734375zm0 0"/></symbol><symbol id="ac" overflow="visible"><path d="m4.53125 0c.125 0 .25-.125.25-.25v-7.46875c0-.125-.125-.25-.25-.25h-4.28125c-.125 0-.25.125-.25.25v7.46875c0 .125.125.25.25.25zm0 0"/></symbol><symbol id="ad" overflow="visible"><path d="m.796875-1.40625c.03125-1.046875.734375-1.96875 1.71875-1.96875.953125 0 1.40625 1.109375 1.40625 2.203125 0 1.875-1.59375 3.21875-3.0625 4.421875-.0625-.703125-.125-1.40625-.125-2.109375 0-.125.03125-.21875.03125-.34375zm-1.59375-13.359375.34375 19.09375c0 .390625.296875.671875.671875.671875.578125 0 .828125-.671875 1.28125-1.015625 2-1.625 4.875-2.765625 4.875-5.390625 0-1.71875-1.28125-3.1875-2.96875-3.1875-1.015625 0-1.96875.359375-2.796875.953125l.1875-11.125c-.25-.125-.515625-.21875-.796875-.21875s-.546875.09375-.796875.21875zm0 0"/></symbol><symbol id="ae" overflow="visible"><path d="m11.921875-8.28125c-.515625-2.234375-1.109375-4.4375-1.75-6.640625 3.0625-3.46875 5.828125-7.046875 5.828125-11.625 0-3.609375-1.96875-8.765625-4.203125-11.453125-.15625-.125-.359375-.125-.515625 0-3.03125 2.203125-4.78125 5.703125-4.78125 9.40625 0 1.65625.03125 3.28125.21875 4.90625.234375 2.078125.765625 4.078125 1.34375 6.09375-3.765625 4.265625-8 8.34375-8 14.03125 0 6.40625 4.625 11.84375 10.609375 11.84375 1 0 1.921875-.09375 2.84375-.25.09375 1.015625.15625 2.046875.15625 3.0625 0 .578125-.03125 1.109375-.0625 1.6875-.1875 3.15625-2.140625 6.0625-5.09375 6.125-.03125 0-.0625.03125-.09375.03125-1.625 0-3.03125-.921875-3.859375-2.234375.34375.15625.734375.28125 1.109375.28125 1.65625 0 3.03125-1.359375 3.03125-3.015625 0-1.796875-1.3125-3.328125-3.03125-3.328125-1.875 0-3.5625 1.46875-3.5625 3.328125 0 3.4375 2.765625 6.203125 6.203125 6.203125 3.765625 0 6.34375-3.375 6.578125-7.203125.03125-.59375.03125-1.171875.03125-1.78125 0-1.140625-.0625-2.296875-.15625-3.4375.828125-.265625 1.625-.640625 2.3125-1.1875 2.359375-1.75 3.421875-4.203125 3.421875-6.625 0-4.203125-3.1875-8.25-8.09375-8.25-.171875 0-.328125.03125-.484375.03125zm2.703125 14.8125c-.4375-3.953125-1.171875-7.703125-1.96875-11.4375 3.5.28125 5.703125 3.21875 5.703125 6.15625 0 2.21875-1.53125 4.515625-3.734375 5.28125zm-12.359375-7.515625c0-5.109375 3.4375-8.953125 6.875-12.8125.515625 1.875 1.03125 3.75 1.46875 5.671875-3.21875.734375-5.03125 3.4375-5.03125 6.25 0 2.21875 1.140625 4.484375 3.703125 5.859375.09375.03125.1875.0625.28125.0625.34375 0 .640625-.3125.640625-.671875 0-.15625-.09375-.3125-.21875-.4375-1.796875-1.03125-2.625-2.5625-2.625-3.953125 0-1.890625 1.46875-3.578125 3.984375-3.859375.828125 3.828125 1.5625 7.609375 2.046875 11.703125-.859375.125-1.71875.1875-2.609375.1875-4.34375 0-8.515625-3.671875-8.515625-8zm10.828125-32.484375c.546875 1.6875.671875 2.515625.671875 4.359375 0 4.0625-2.125 7.28125-4.75 10.359375-.5625-2-1.046875-3.9375-1.046875-6.375 0-3.53125 1.96875-6.75 5.125-8.34375zm0 0"/></symbol><symbol id="af" overflow="visible"><path d="m4.53125 7.96875c.125 0 .25-.125.25-.25v-15.4375c0-.125-.125-.25-.25-.25h-4.28125c-.125 0-.25.125-.25.25v15.4375c0 .125.125.25.25.25zm0 0"/></symbol><symbol id="ag" overflow="visible"><path d="m-2.015625-1.5c0 1.125.90625 2.015625 2.015625 2.015625s2.015625-.890625 2.015625-2.015625c0-1.109375-.90625-2-2.015625-2s-2.015625.890625-2.015625 2zm2.015625-9.96875c-4.9375 0-10.484375 5.515625-10.484375 11.53125 0 .25.25.453125.5.453125.234375 0 .484375-.171875.546875-.515625.828125-4.75 4.6875-8.453125 9.4375-8.453125s8.609375 3.703125 9.4375 8.453125c.0625.34375.3125.515625.546875.515625.25 0 .5-.203125.5-.453125 0-6.015625-5.515625-11.53125-10.484375-11.53125zm0 0"/></symbol><symbol id="ah" overflow="visible"><path d="m4.171875-8.578125v8.578125h2.453125v-12.421875h-1.625c-.390625 1.46875-1.671875 2.21875-3.8125 2.21875v1.625zm0 0"/></symbol><symbol id="ai" overflow="visible"><path d="m3.75-2.5625h-2.625v2.5625h2.625zm0 0"/></symbol><g clip-path="url(#a)"><path d="m3.007812 3443.639063h5946.757813" fill="none" stroke="#000" stroke-linecap="round" stroke-miterlimit="10" stroke-width="6.00947" transform="matrix(.1 0 0 -.1 0 398.36)"/></g><g clip-path="url(#b)"><path d="m3.007812 3523.326563h5946.757813" fill="none" stroke="#000" stroke-linecap="round" stroke-miterlimit="10" stroke-width="6.00947" transform="matrix(.1 0 0 -.1 0 398.36)"/></g><g clip-path="url(#c)"><path d="m3.007812 3603.014063h5946.757813" fill="none" stroke="#000" stroke-linecap="round" stroke-miterlimit="10" stroke-width="6.00947" transform="matrix(.1 0 0 -.1 0 398.36)"/></g><g clip-path="url(#d)"><path d="m3.007812 3682.740625h5946.757813" fill="none" stroke="#000" stroke-linecap="round" stroke-miterlimit="10" stroke-width="6.00947" transform="matrix(.1 0 0 -.1 0 398.36)"/></g><g clip-path="url(#e)"><path d="m3.007812 3762.428125h5946.757813" fill="none" stroke="#000" stroke-linecap="round" stroke-miterlimit="10" stroke-width="6.00947" transform="matrix(.1 0 0 -.1 0 398.36)"/></g><use x="432.203" xlink:href="#v" y="81.893"/><use x="446.3198" xlink:href="#w" y="81.893"/><path d="m4471.992188 3540.982813h3.828124v219.453125h-3.828124zm0 0" style="fill:none;stroke-width:3.98506;stroke-linecap:round;stroke-linejoin:round;stroke:#000;stroke-miterlimit:10" transform="matrix(.1 0 0 -.1 0 398.36)"/><path d="m447.199219 44.261719h.382812v-21.945313h-.382812zm0 0"/><use x="488.319" xlink:href="#ab" y="46.027"/><use x="485.869" xlink:href="#x" y="81.8926"/><use x="491.311983" xlink:href="#y" y="81.8926"/><path d="m4981.445312 3540.982813h3.828126v219.453125h-3.828126zm0 0" style="fill:none;stroke-width:3.98506;stroke-linecap:round;stroke-linejoin:round;stroke:#000;stroke-miterlimit:10" transform="matrix(.1 0 0 -.1 0 398.36)"/><path d="m498.144531 44.261719h.382813v-21.945313h-.382813zm0 0"/><use x="337.477" xlink:href="#ab" y="42.042"/><use x="437.3743" xlink:href="#ab" y="46.02716"/><path d="m3982.460938 3620.709375h3.828124v219.296875h-3.828124zm0 0" style="fill:none;stroke-width:3.98506;stroke-linecap:round;stroke-linejoin:round;stroke:#000;stroke-miterlimit:10" transform="matrix(.1 0 0 -.1 0 398.36)"/><path d="m398.246094 36.289062h.382812v-21.929687h-.382812zm0 0"/><use x="383.421" xlink:href="#z" y="81.893"/><use x="394.305794" xlink:href="#A" y="81.893"/><use x="398.387063" xlink:href="#B" y="81.893"/><use x="388.42217" xlink:href="#ab" y="38.0575"/><path d="m3473.046875 3580.865625h3.828125v243.28125h-3.828125zm0 0" style="fill:none;stroke-width:3.98506;stroke-linecap:round;stroke-linejoin:round;stroke:#000;stroke-miterlimit:10" transform="matrix(.1 0 0 -.1 0 398.36)"/><path d="m347.304688 40.273438h.378906v-24.328126h-.378906zm0 0"/><use x="329.67" xlink:href="#C" y="81.893"/><use x="335.112592" xlink:href="#D" y="81.893"/><use x="345.827855" xlink:href="#E" y="81.893"/><path d="m983.984375 3218.873438h47.773437v3.007812h-47.773437zm0 0" style="fill:none;stroke-width:4.80598;stroke-linecap:round;stroke-linejoin:round;stroke:#000;stroke-miterlimit:10" transform="matrix(.1 0 0 -.1 0 398.36)"/><path d="m98.398438 76.472656h4.777343v-.300781h-4.777343zm0 0"/><path d="m1337.5 3843.13125v-34.257812l513.28125 16.132812v34.257813zm0 0" fill="none" stroke="#000" stroke-linejoin="round" stroke-miterlimit="10" stroke-width="3.98506" transform="matrix(.1 0 0 -.1 0 398.36)"/><path d="m133.75 14.046875v3.425781l51.328125-1.613281v-3.425781zm0 0"/><path d="m2584.921875 3218.873438h47.8125v3.007812h-47.8125zm0 0" fill="none" stroke="#000" stroke-linejoin="round" stroke-miterlimit="10" stroke-width="4.80598" transform="matrix(.1 0 0 -.1 0 398.36)"/><path d="m258.492188 76.472656h4.78125v-.300781h-4.78125zm0 0"/><path d="m3473.046875 3843.13125v-34.257812l513.242187 16.132812v34.257813zm0 0" fill="none" stroke="#000" stroke-linejoin="round" stroke-miterlimit="10" stroke-width="3.98506" transform="matrix(.1 0 0 -.1 0 398.36)"/><path d="m347.304688 14.046875v3.425781l51.324218-1.613281v-3.425781zm0 0"/><path d="m4471.992188 3745.31875h513.28125v34.257813h-513.28125zm0 0" fill="none" stroke="#000" stroke-linejoin="round" stroke-miterlimit="10" stroke-width="3.98506" transform="matrix(.1 0 0 -.1 0 398.36)"/><path d="m447.199219 23.828125h51.328125v-3.425781h-51.328125zm0 0"/><path d="m5109.492188 3218.873438h47.8125v3.007812h-47.8125zm0 0" fill="none" stroke="#000" stroke-linejoin="round" stroke-miterlimit="10" stroke-width="4.80598" transform="matrix(.1 0 0 -.1 0 398.36)"/><path d="m510.949219 76.472656h4.777343v-.300781h-4.777343zm0 0"/><use x="539.263" xlink:href="#ab" y="50.012"/><use x="583.3204" xlink:href="#ac" y="30.0866"/><path d="m5490.898438 3501.139063h3.828124v259.296875h-3.828124zm0 0" fill="none" stroke="#000" stroke-linejoin="round" stroke-miterlimit="10" stroke-width="3.98506" transform="matrix(.1 0 0 -.1 0 398.36)"/><path d="m549.089844 48.246094h.382812v-25.929688h-.382812zm0 0"/><use x="525.504" xlink:href="#F" y="81.893"/><use x="530.776278" xlink:href="#z" y="81.893"/><use x="541.661072" xlink:href="#G" y="81.893"/><use x="552.545865" xlink:href="#H" y="81.893"/><use x="40.835" xlink:href="#ah" y="81.893"/><use x="50.529905" xlink:href="#ai" y="81.893"/><path d="m1337.5 3580.865625h3.828125v243.28125h-3.828125zm0 0" fill="none" stroke="#000" stroke-linejoin="round" stroke-miterlimit="10" stroke-width="3.98506" transform="matrix(.1 0 0 -.1 0 398.36)"/><path d="m133.75 40.273438h.382812v-24.328126h-.382812zm0 0"/><use x="117.393" xlink:href="#I" y="81.893"/><use x="128.277781" xlink:href="#w" y="81.893"/><use x="135.421548" xlink:href="#F" y="81.893"/><use x="123.92464" xlink:href="#ab" y="42.0422"/><path d="m688.007812 3365.904688h3.828126v259.296875h-3.828126zm0 0" fill="none" stroke="#000" stroke-linejoin="round" stroke-miterlimit="10" stroke-width="3.98506" transform="matrix(.1 0 0 -.1 0 398.36)"/><path d="m68.800781 61.769531h.382813v-25.929687h-.382813zm0 0"/><use x="63.4316" xlink:href="#J" y="81.893"/><use x="79.759366" xlink:href="#K" y="81.893"/><use x="35.098" xlink:href="#ad" y="38.0575"/><use x="42.30152" xlink:href="#ad" y="26.102"/><use x="6.37612" xlink:href="#ae" y="46.0274"/><use x="68.60272" xlink:href="#ab" y="34.0723"/><path d="m2263.4375 3365.904688h3.828125v259.296875h-3.828125zm0 0" fill="none" stroke="#000" stroke-linejoin="round" stroke-miterlimit="10" stroke-width="3.98506" transform="matrix(.1 0 0 -.1 0 398.36)"/><path d="m226.34375 61.769531h.382812v-25.929687h-.382812zm0 0"/><use x="215.53" xlink:href="#L" y="81.893"/><use x="231.857772" xlink:href="#K" y="81.893"/><use x="236.279666" xlink:href="#G" y="81.893"/><use x="226.1441" xlink:href="#ab" y="34.0723"/><use x="282.155412" xlink:href="#ab" y="34.0723"/><path d="m1846.953125 3620.709375h3.828125v219.296875h-3.828125zm0 0" fill="none" stroke="#000" stroke-linejoin="round" stroke-miterlimit="10" stroke-width="3.98506" transform="matrix(.1 0 0 -.1 0 398.36)"/><path d="m184.695312 36.289062h.382813v-21.929687h-.382813zm0 0"/><use x="157.367" xlink:href="#M" y="81.893"/><use x="166.89124" xlink:href="#z" y="81.893"/><use x="177.606099" xlink:href="#F" y="81.893"/><use x="183.049082" xlink:href="#y" y="81.893"/><use x="192.913556" xlink:href="#N" y="81.893"/><use x="274.604287" xlink:href="#O" y="81.893"/><use x="283.958593" xlink:href="#z" y="81.893"/><use x="294.673855" xlink:href="#F" y="81.893"/><use x="174.8693" xlink:href="#ab" y="38.0575"/><path d="m2823.554688 3365.904688h3.828124v259.296875h-3.828124zm0 0" fill="none" stroke="#000" stroke-linejoin="round" stroke-miterlimit="10" stroke-width="3.98506" transform="matrix(.1 0 0 -.1 0 398.36)"/><path d="m282.355469 61.769531h.382812v-25.929687h-.382812zm0 0"/><g clip-path="url(#f)"><path d="m3.007812 2487.19375h5946.757813" style="fill:none;stroke-width:6.00947;stroke-linecap:round;stroke-linejoin:round;stroke:#000;stroke-miterlimit:10" transform="matrix(.1 0 0 -.1 0 398.36)"/></g><g clip-path="url(#g)"><path d="m3.007812 2566.920313h5946.757813" style="fill:none;stroke-width:6.00947;stroke-linecap:round;stroke-linejoin:round;stroke:#000;stroke-miterlimit:10" transform="matrix(.1 0 0 -.1 0 398.36)"/></g><g clip-path="url(#h)"><path d="m3.007812 2646.607813h5946.757813" style="fill:none;stroke-width:6.00947;stroke-linecap:round;stroke-linejoin:round;stroke:#000;stroke-miterlimit:10" transform="matrix(.1 0 0 -.1 0 398.36)"/></g><g clip-path="url(#i)"><path d="m3.007812 2726.334375h5946.757813" style="fill:none;stroke-width:6.00947;stroke-linecap:round;stroke-linejoin:round;stroke:#000;stroke-miterlimit:10" transform="matrix(.1 0 0 -.1 0 398.36)"/></g><g clip-path="url(#j)"><path d="m3.007812 2806.021875h5946.757813" style="fill:none;stroke-width:6.00947;stroke-linecap:round;stroke-linejoin:round;stroke:#000;stroke-miterlimit:10" transform="matrix(.1 0 0 -.1 0 398.36)"/></g><use x="449.742" xlink:href="#ab" y="129.714"/><use x="436.1522" xlink:href="#z" y="177.5347"/><use x="447.036994" xlink:href="#G" y="177.5347"/><use x="457.582334" xlink:href="#E" y="177.5347"/><use x="467.106585" xlink:href="#P" y="177.5347"/><path d="m4499.414062 2472.701563h3.828126v196.09375h-3.828126zm0 0" style="fill:none;stroke-width:3.98506;stroke-linecap:round;stroke-linejoin:round;stroke:#000;stroke-miterlimit:10" transform="matrix(.1 0 0 -.1 0 398.36)"/><path d="m449.941406 151.089844h.382813v-19.609375h-.382813zm0 0"/><use x="495.323" xlink:href="#ab" y="133.699"/><use x="488.11089" xlink:href="#G" y="177.5345"/><use x="498.655838" xlink:href="#E" y="177.5345"/><use x="508.520715" xlink:href="#K" y="177.5345"/><path d="m4955.234375 2382.935938h3.828125v246.015625h-3.828125zm0 0" style="fill:none;stroke-width:3.98506;stroke-linecap:round;stroke-linejoin:round;stroke:#000;stroke-miterlimit:10" transform="matrix(.1 0 0 -.1 0 398.36)"/><path d="m495.519531 160.066406h.382813v-24.601562h-.382813zm0 0"/><path d="m4023.671875 2426.021875h3.828125v163.046875h-3.828125zm0 0" style="fill:none;stroke-width:3.98506;stroke-linecap:round;stroke-linejoin:round;stroke:#000;stroke-miterlimit:10" transform="matrix(.1 0 0 -.1 0 398.36)"/><path d="m402.367188 155.757812h.382812v-16.304687h-.382812zm0 0"/><use x="391.557" xlink:href="#Q" y="177.534"/><use x="402.441794" xlink:href="#G" y="177.534"/><use x="413.326587" xlink:href="#O" y="177.534"/><use x="402.1699" xlink:href="#ab" y="137.6832"/><path d="m3662.96875 2584.576563h3.789062v219.570312h-3.789062zm0 0" style="fill:none;stroke-width:3.98506;stroke-linecap:round;stroke-linejoin:round;stroke:#000;stroke-miterlimit:10" transform="matrix(.1 0 0 -.1 0 398.36)"/><path d="m366.292969 139.902344h.382812v-21.957032h-.382812zm0 0"/><use x="353.083" xlink:href="#w" y="177.534"/><use x="359.375973" xlink:href="#z" y="177.534"/><use x="356.46777" xlink:href="#ab" y="141.6684"/><path d="m974.960938 2262.467188h47.8125v3.007812h-47.8125zm0 0" style="fill:none;stroke-width:4.80598;stroke-linecap:round;stroke-linejoin:round;stroke:#000;stroke-miterlimit:10" transform="matrix(.1 0 0 -.1 0 398.36)"/><path d="m97.496094 172.113281h4.78125v-.300781h-4.78125zm0 0"/><path d="m1296.015625 2886.725v-34.257812l459.609375 16.09375v34.296875zm0 0" fill="none" stroke="#000" stroke-linejoin="round" stroke-miterlimit="10" stroke-width="3.98506" transform="matrix(.1 0 0 -.1 0 398.36)"/><path d="m129.601562 109.6875v3.425781l45.960938-1.609375v-3.429687zm0 0"/><path d="m1894.023438 2262.467188h47.8125v3.007812h-47.8125zm0 0" fill="none" stroke="#000" stroke-linejoin="round" stroke-miterlimit="10" stroke-width="4.80598" transform="matrix(.1 0 0 -.1 0 398.36)"/><path d="m189.402344 172.113281h4.78125v-.300781h-4.78125zm0 0"/><path d="m2372.851562 2262.467188h47.8125v3.007812h-47.8125zm0 0" fill="none" stroke="#000" stroke-linejoin="round" stroke-miterlimit="10" stroke-width="4.80598" transform="matrix(.1 0 0 -.1 0 398.36)"/><path d="m237.285156 172.113281h4.777344v-.300781h-4.777344zm0 0"/><path d="m3207.148438 2839.264063v-34.257813l459.609374-16.132812v34.257812zm0 0" fill="none" stroke="#000" stroke-linejoin="round" stroke-miterlimit="10" stroke-width="3.98506" transform="matrix(.1 0 0 -.1 0 398.36)"/><path d="m320.714844 114.433594v3.425781l45.960937 1.613281v-3.425781zm0 0"/><path d="m3373.828125 2262.467188h47.8125v3.007812h-47.8125zm0 0" fill="none" stroke="#000" stroke-linejoin="round" stroke-miterlimit="10" stroke-width="4.80598" transform="matrix(.1 0 0 -.1 0 398.36)"/><path d="m337.382812 172.113281h4.78125v-.300781h-4.78125zm0 0"/><path d="m3785.195312 2262.467188h47.773438v3.007812h-47.773438zm0 0" fill="none" stroke="#000" stroke-linejoin="round" stroke-miterlimit="10" stroke-width="4.80598" transform="matrix(.1 0 0 -.1 0 398.36)"/><path d="m378.519531 172.113281h4.777344v-.300781h-4.777344zm0 0"/><path d="m4023.671875 2440.7875v-34.296875l479.570313 47.460938v34.296875zm0 0" fill="none" stroke="#000" stroke-linejoin="round" stroke-miterlimit="10" stroke-width="3.98506" transform="matrix(.1 0 0 -.1 0 398.36)"/><path d="m402.367188 154.28125v3.429688l47.957031-4.746094v-3.429688zm0 0"/><path d="m5226.5625 2262.467188h47.8125v3.007812h-47.8125zm0 0" fill="none" stroke="#000" stroke-linejoin="round" stroke-miterlimit="10" stroke-width="4.80598" transform="matrix(.1 0 0 -.1 0 398.36)"/><path d="m522.65625 172.113281h4.777344v-.300781h-4.777344zm0 0"/><use x="583.321" xlink:href="#af" y="133.699"/><path d="m5454.960938 2409.498438h3.828124v259.296875h-3.828124zm0 0" fill="none" stroke="#000" stroke-linejoin="round" stroke-miterlimit="10" stroke-width="3.98506" transform="matrix(.1 0 0 -.1 0 398.36)"/><path d="m545.496094 157.410156h.382812v-25.929687h-.382812zm0 0"/><use x="537.151" xlink:href="#w" y="177.534"/><use x="543.444363" xlink:href="#z" y="177.534"/><use x="552.968607" xlink:href="#H" y="177.534"/><use x="545.29905" xlink:href="#ab" y="129.7133"/><path d="m3207.148438 2624.420313h3.828124v195.585937h-3.828124zm0 0" fill="none" stroke="#000" stroke-linejoin="round" stroke-miterlimit="10" stroke-width="3.98506" transform="matrix(.1 0 0 -.1 0 398.36)"/><path d="m320.714844 135.917969h.382812v-19.558594h-.382812zm0 0"/><use x="116.39" xlink:href="#w" y="177.534"/><use x="122.683375" xlink:href="#z" y="177.534"/><use x="119.77516" xlink:href="#ab" y="137.6832"/><path d="m776.328125 2544.732813h3.828125v259.296875h-3.828125zm0 0" fill="none" stroke="#000" stroke-linejoin="round" stroke-miterlimit="10" stroke-width="3.98506" transform="matrix(.1 0 0 -.1 0 398.36)"/><path d="m77.632812 143.886719h.382813v-25.929688h-.382813zm0 0"/><use x="62.6348" xlink:href="#J" y="177.534"/><use x="78.962175" xlink:href="#K" y="177.534"/><use x="67.80589" xlink:href="#ab" y="145.6535"/><path d="m1296.015625 2624.420313h3.828125v243.320312h-3.828125zm0 0" fill="none" stroke="#000" stroke-linejoin="round" stroke-miterlimit="10" stroke-width="3.98506" transform="matrix(.1 0 0 -.1 0 398.36)"/><path d="m129.601562 135.917969h.382813v-24.332031h-.382813zm0 0"/><use x="35.098" xlink:href="#ad" y="133.699"/><use x="42.30152" xlink:href="#ad" y="121.7435"/><use x="6.37612" xlink:href="#ae" y="141.6689"/><use x="202.14412" xlink:href="#w" y="177.5345"/><use x="208.607015" xlink:href="#R" y="177.5345"/><use x="219.491808" xlink:href="#D" y="177.5345"/><use x="305.71806" xlink:href="#L" y="177.5345"/><use x="322.045832" xlink:href="#K" y="177.5345"/><use x="310.88912" xlink:href="#ab" y="137.6837"/><path d="m2612.304688 2382.935938h3.828124v246.015625h-3.828124zm0 0" fill="none" stroke="#000" stroke-linejoin="round" stroke-miterlimit="10" stroke-width="3.98506" transform="matrix(.1 0 0 -.1 0 398.36)"/><path d="m261.230469 160.066406h.382812v-24.601562h-.382812zm0 0"/><use x="248.973" xlink:href="#y" y="177.534"/><use x="258.837853" xlink:href="#N" y="177.534"/><use x="268.192158" xlink:href="#S" y="177.534"/><use x="279.076952" xlink:href="#A" y="177.534"/><use x="261.0328" xlink:href="#ab" y="133.6985"/><path d="m2112.578125 2409.498438h3.789063v259.296875h-3.789063zm0 0" fill="none" stroke="#000" stroke-linejoin="round" stroke-miterlimit="10" stroke-width="3.98506" transform="matrix(.1 0 0 -.1 0 398.36)"/><path d="m211.253906 157.410156h.382813v-25.929687h-.382813zm0 0"/><use x="211.057" xlink:href="#ab" y="129.714"/><path d="m1751.796875 2664.303125h3.828125v219.296875h-3.828125zm0 0" fill="none" stroke="#000" stroke-linejoin="round" stroke-miterlimit="10" stroke-width="3.98506" transform="matrix(.1 0 0 -.1 0 398.36)"/><path d="m175.179688 131.933594h.382812v-21.933594h-.382812zm0 0"/><use x="165.355" xlink:href="#ab" y="133.699"/><use x="159.67336" xlink:href="#T" y="177.5345"/><use x="170.558141" xlink:href="#R" y="177.5345"/><g clip-path="url(#k)"><path d="m3.007812 1530.7875h5946.757813" style="fill:none;stroke-width:6.00947;stroke-linecap:round;stroke-linejoin:round;stroke:#000;stroke-miterlimit:10" transform="matrix(.1 0 0 -.1 0 398.36)"/></g><g clip-path="url(#l)"><path d="m3.007812 1610.514063h5946.757813" style="fill:none;stroke-width:6.00947;stroke-linecap:round;stroke-linejoin:round;stroke:#000;stroke-miterlimit:10" transform="matrix(.1 0 0 -.1 0 398.36)"/></g><g clip-path="url(#m)"><path d="m3.007812 1690.201563h5946.757813" style="fill:none;stroke-width:6.00947;stroke-linecap:round;stroke-linejoin:round;stroke:#000;stroke-miterlimit:10" transform="matrix(.1 0 0 -.1 0 398.36)"/></g><g clip-path="url(#n)"><path d="m3.007812 1769.889063h5946.757813" style="fill:none;stroke-width:6.00947;stroke-linecap:round;stroke-linejoin:round;stroke:#000;stroke-miterlimit:10" transform="matrix(.1 0 0 -.1 0 398.36)"/></g><g clip-path="url(#o)"><path d="m3.007812 1849.615625h5946.757813" style="fill:none;stroke-width:6.00947;stroke-linecap:round;stroke-linejoin:round;stroke:#000;stroke-miterlimit:10" transform="matrix(.1 0 0 -.1 0 398.36)"/></g><use x="448.913" xlink:href="#ab" y="225.355"/><use x="438.2993" xlink:href="#G" y="273.1757"/><use x="449.184094" xlink:href="#R" y="273.1757"/><use x="460.068887" xlink:href="#O" y="273.1757"/><path d="m4491.132812 1469.06875h3.828126v243.320313h-3.828126zm0 0" style="fill:none;stroke-width:3.98506;stroke-linecap:round;stroke-linejoin:round;stroke:#000;stroke-miterlimit:10" transform="matrix(.1 0 0 -.1 0 398.36)"/><path d="m449.113281 251.453125h.382813v-24.332031h-.382813zm0 0"/><use x="494.748" xlink:href="#ab" y="221.37"/><use x="491.78784" xlink:href="#F" y="273.1759"/><use x="497.230432" xlink:href="#U" y="273.1759"/><path d="m4949.453125 1492.935938h3.828125v259.296875h-3.828125zm0 0" style="fill:none;stroke-width:3.98506;stroke-linecap:round;stroke-linejoin:round;stroke:#000;stroke-miterlimit:10" transform="matrix(.1 0 0 -.1 0 398.36)"/><path d="m494.945312 249.066406h.382813v-25.929687h-.382813zm0 0"/><path d="m4032.773438 1453.248438h3.828124v219.296875h-3.828124zm0 0" style="fill:none;stroke-width:3.98506;stroke-linecap:round;stroke-linejoin:round;stroke:#000;stroke-miterlimit:10" transform="matrix(.1 0 0 -.1 0 398.36)"/><path d="m403.277344 253.039062h.382812v-21.929687h-.382812zm0 0"/><use x="391.954" xlink:href="#D" y="273.176"/><use x="402.838794" xlink:href="#S" y="273.176"/><use x="413.723587" xlink:href="#V" y="273.176"/><use x="403.0778" xlink:href="#ab" y="229.3401"/><path d="m3669.453125 1668.014063h3.828125v243.320312h-3.828125zm0 0" style="fill:none;stroke-width:3.98506;stroke-linecap:round;stroke-linejoin:round;stroke:#000;stroke-miterlimit:10" transform="matrix(.1 0 0 -.1 0 398.36)"/><path d="m366.945312 231.558594h.382813v-24.328125h-.382813zm0 0"/><use x="353.651" xlink:href="#w" y="273.176"/><use x="360.113895" xlink:href="#R" y="273.176"/><use x="357.12092" xlink:href="#ab" y="233.3252"/><path d="m973.046875 1306.060938h47.8125v3.007812h-47.8125zm0 0" style="fill:none;stroke-width:4.80598;stroke-linecap:round;stroke-linejoin:round;stroke:#000;stroke-miterlimit:10" transform="matrix(.1 0 0 -.1 0 398.36)"/><path d="m97.304688 267.753906h4.78125v-.300781h-4.78125zm0 0"/><path d="m1277.734375 1946.451563v-34.296875l462.1875-16.09375v34.257812zm0 0" fill="none" stroke="#000" stroke-linejoin="round" stroke-miterlimit="10" stroke-width="3.98506" transform="matrix(.1 0 0 -.1 0 398.36)"/><path d="m127.773438 203.714844v3.429687l46.21875 1.609375v-3.425781zm0 0"/><path d="m1900.664062 1306.060938h47.8125v3.007812h-47.8125zm0 0" fill="none" stroke="#000" stroke-linejoin="round" stroke-miterlimit="10" stroke-width="4.80598" transform="matrix(.1 0 0 -.1 0 398.36)"/><path d="m190.066406 267.753906h4.78125v-.300781h-4.78125zm0 0"/><path d="m3211.09375 1946.451563v-34.296875l462.1875-16.09375v34.257812zm0 0" fill="none" stroke="#000" stroke-linejoin="round" stroke-miterlimit="10" stroke-width="3.98506" transform="matrix(.1 0 0 -.1 0 398.36)"/><path d="m321.109375 203.714844v3.429687l46.21875 1.609375v-3.425781zm0 0"/><path d="m3381.210938 1306.060938h47.8125v3.007812h-47.8125zm0 0" fill="none" stroke="#000" stroke-linejoin="round" stroke-miterlimit="10" stroke-width="4.80598" transform="matrix(.1 0 0 -.1 0 398.36)"/><path d="m338.121094 267.753906h4.777344v-.300781h-4.777344zm0 0"/><path d="m3790.859375 1306.060938h47.8125v3.007812h-47.8125zm0 0" fill="none" stroke="#000" stroke-linejoin="round" stroke-miterlimit="10" stroke-width="4.80598" transform="matrix(.1 0 0 -.1 0 398.36)"/><path d="m379.085938 267.753906h4.78125v-.300781h-4.78125zm0 0"/><path d="m4032.773438 1468.248438v-34.296875l462.1875 16.132812v34.257813zm0 0" fill="none" stroke="#000" stroke-linejoin="round" stroke-miterlimit="10" stroke-width="3.98506" transform="matrix(.1 0 0 -.1 0 398.36)"/><path d="m403.277344 251.535156v3.429688l46.21875-1.613282v-3.425781zm0 0"/><path d="m4290.625 1306.060938h47.8125v3.007812h-47.8125zm0 0" fill="none" stroke="#000" stroke-linejoin="round" stroke-miterlimit="10" stroke-width="4.80598" transform="matrix(.1 0 0 -.1 0 398.36)"/><path d="m429.0625 267.753906h4.78125v-.300781h-4.78125zm0 0"/><path d="m5217.148438 1306.060938h47.8125v3.007812h-47.8125zm0 0" fill="none" stroke="#000" stroke-linejoin="round" stroke-miterlimit="10" stroke-width="4.80598" transform="matrix(.1 0 0 -.1 0 398.36)"/><path d="m521.714844 267.753906h4.78125v-.300781h-4.78125zm0 0"/><use x="583.321" xlink:href="#ac" y="221.37"/><path d="m5452.109375 1453.092188h3.828125v259.296875h-3.828125zm0 0" fill="none" stroke="#000" stroke-linejoin="round" stroke-miterlimit="10" stroke-width="3.98506" transform="matrix(.1 0 0 -.1 0 398.36)"/><path d="m545.210938 253.050781h.382812v-25.929687h-.382812zm0 0"/><use x="540.095" xlink:href="#N" y="273.176"/><use x="549.449721" xlink:href="#z" y="273.176"/><use x="545.01102" xlink:href="#ab" y="225.3553"/><path d="m3211.09375 1707.857813h3.828125v219.335937h-3.828125zm0 0" fill="none" stroke="#000" stroke-linejoin="round" stroke-miterlimit="10" stroke-width="3.98506" transform="matrix(.1 0 0 -.1 0 398.36)"/><path d="m321.109375 227.574219h.382813v-21.933594h-.382813zm0 0"/><use x="110.056" xlink:href="#A" y="273.176"/><use x="114.477491" xlink:href="#z" y="273.176"/><use x="125.362663" xlink:href="#G" y="273.176"/><use x="117.9478" xlink:href="#ab" y="229.3401"/><path d="m680.039062 1453.092188h3.828126v259.296875h-3.828126zm0 0" fill="none" stroke="#000" stroke-linejoin="round" stroke-miterlimit="10" stroke-width="3.98506" transform="matrix(.1 0 0 -.1 0 398.36)"/><path d="m68.003906 253.050781h.382813v-25.929687h-.382813zm0 0"/><use x="56.682" xlink:href="#J" y="273.176"/><use x="73.009375" xlink:href="#C" y="273.176"/><use x="78.452352" xlink:href="#D" y="273.176"/><use x="67.8058" xlink:href="#ab" y="225.3553"/><path d="m1277.734375 1707.857813h3.828125v219.335937h-3.828125zm0 0" fill="none" stroke="#000" stroke-linejoin="round" stroke-miterlimit="10" stroke-width="3.98506" transform="matrix(.1 0 0 -.1 0 398.36)"/><path d="m127.773438 227.574219h.382812v-21.933594h-.382812zm0 0"/><use x="35.098" xlink:href="#ad" y="229.34"/><use x="42.30152" xlink:href="#ad" y="217.3849"/><use x="6.37612" xlink:href="#ae" y="237.3103"/><use x="201.72612" xlink:href="#W" y="273.1759"/><use x="206.148014" xlink:href="#z" y="273.1759"/><use x="217.032808" xlink:href="#V" y="273.1759"/><use x="305.603382" xlink:href="#T" y="273.1759"/><use x="316.488176" xlink:href="#R" y="273.1759"/><use x="311.28512" xlink:href="#ab" y="229.34"/><path d="m2613.4375 1453.092188h3.789062v259.296875h-3.789062zm0 0" fill="none" stroke="#000" stroke-linejoin="round" stroke-miterlimit="10" stroke-width="3.98506" transform="matrix(.1 0 0 -.1 0 398.36)"/><path d="m261.339844 253.050781h.382812v-25.929687h-.382812zm0 0"/><use x="256.057" xlink:href="#X" y="273.176"/><use x="261.329278" xlink:href="#Y" y="273.176"/><use x="272.214072" xlink:href="#A" y="273.176"/><use x="261.14255" xlink:href="#ab" y="225.3553"/><path d="m2194.453125 1628.170313h3.828125v259.296875h-3.828125zm0 0" fill="none" stroke="#000" stroke-linejoin="round" stroke-miterlimit="10" stroke-width="3.98506" transform="matrix(.1 0 0 -.1 0 398.36)"/><path d="m219.445312 235.542969h.382813v-25.929688h-.382813zm0 0"/><use x="209.619" xlink:href="#ab" y="237.31"/><path d="m1736.09375 1668.014063h3.828125v243.320312h-3.828125zm0 0" fill="none" stroke="#000" stroke-linejoin="round" stroke-miterlimit="10" stroke-width="3.98506" transform="matrix(.1 0 0 -.1 0 398.36)"/><path d="m173.609375 231.558594h.382813v-24.328125h-.382813zm0 0"/><use x="163.784" xlink:href="#ab" y="233.325"/><use x="154.78634" xlink:href="#D" y="273.1758"/><use x="165.671121" xlink:href="#z" y="273.1758"/><use x="176.555903" xlink:href="#w" y="273.1758"/><g clip-path="url(#p)"><path d="m3.007812 574.38125h5946.757813" style="fill:none;stroke-width:6.00947;stroke-linecap:round;stroke-linejoin:round;stroke:#000;stroke-miterlimit:10" transform="matrix(.1 0 0 -.1 0 398.36)"/></g><g clip-path="url(#q)"><path d="m3.007812 654.06875h5946.757813" style="fill:none;stroke-width:6.00947;stroke-linecap:round;stroke-linejoin:round;stroke:#000;stroke-miterlimit:10" transform="matrix(.1 0 0 -.1 0 398.36)"/></g><g clip-path="url(#r)"><path d="m3.007812 733.795313h5946.757813" style="fill:none;stroke-width:6.00947;stroke-linecap:round;stroke-linejoin:round;stroke:#000;stroke-miterlimit:10" transform="matrix(.1 0 0 -.1 0 398.36)"/></g><g clip-path="url(#s)"><path d="m3.007812 813.482813h5946.757813" style="fill:none;stroke-width:6.00947;stroke-linecap:round;stroke-linejoin:round;stroke:#000;stroke-miterlimit:10" transform="matrix(.1 0 0 -.1 0 398.36)"/></g><g clip-path="url(#t)"><path d="m3.007812 893.209375h5946.757813" style="fill:none;stroke-width:6.00947;stroke-linecap:round;stroke-linejoin:round;stroke:#000;stroke-miterlimit:10" transform="matrix(.1 0 0 -.1 0 398.36)"/></g><g clip-path="url(#u)"><path d="m5934.726562 574.38125v318.828125" fill="none" stroke="#000" stroke-linejoin="round" stroke-miterlimit="10" stroke-width="36.0329" transform="matrix(.1 0 0 -.1 0 398.36)"/></g><path d="m5893.007812 574.38125v318.828125" fill="none" stroke="#000" stroke-linejoin="round" stroke-miterlimit="10" stroke-width="11.4132" transform="matrix(.1 0 0 -.1 0 398.36)"/><use x="431.192" xlink:href="#ab" y="332.9514"/><use x="427.12638" xlink:href="#K" y="368.8963"/><use x="431.548274" xlink:href="#A" y="368.8963"/><use x="435.800637" xlink:href="#E" y="368.8963"/><path d="m4410.195312 671.764063h3.828126v219.453125h-3.828126zm0 0" fill="none" stroke="#000" stroke-linejoin="round" stroke-miterlimit="10" stroke-width="3.98506" transform="matrix(.1 0 0 -.1 0 398.36)"/><path d="m441.015625 331.183594h.382813v-21.941406h-.382813zm0 0"/><use x="481.418" xlink:href="#ab" y="332.9514"/><use x="484.41058" xlink:href="#K" y="368.8963"/><path d="m4912.421875 671.764063h3.828125v219.453125h-3.828125zm0 0" fill="none" stroke="#000" stroke-linejoin="round" stroke-miterlimit="10" stroke-width="3.98506" transform="matrix(.1 0 0 -.1 0 398.36)"/><path d="m491.242188 331.183594h.382812v-21.941406h-.382812zm0 0"/><use x="332.732" xlink:href="#ab" y="328.9663"/><path d="m3927.851562 751.451563h3.828126v219.335937h-3.828126zm0 0" fill="none" stroke="#000" stroke-linejoin="round" stroke-miterlimit="10" stroke-width="3.98506" transform="matrix(.1 0 0 -.1 0 398.36)"/><path d="m392.785156 323.214844h.382813v-21.933594h-.382813zm0 0"/><use x="379.488" xlink:href="#w" y="368.8963"/><use x="385.950895" xlink:href="#R" y="368.8963"/><use x="382.95792" xlink:href="#ab" y="324.9811"/><path d="m3425.585938 711.607813h3.789062v243.28125h-3.789062zm0 0" fill="none" stroke="#000" stroke-linejoin="round" stroke-miterlimit="10" stroke-width="3.98506" transform="matrix(.1 0 0 -.1 0 398.36)"/><path d="m342.558594 327.199219h.378906v-24.328125h-.378906zm0 0"/><use x="330.282" xlink:href="#W" y="368.8963"/><use x="334.703504" xlink:href="#Q" y="368.8963"/><path d="m979.648438 348.834375h47.8125v3.007813h-47.8125zm0 0" fill="none" stroke="#000" stroke-linejoin="round" stroke-miterlimit="10" stroke-width="4.80598" transform="matrix(.1 0 0 -.1 0 398.36)"/><path d="m97.964844 363.476562h4.78125v-.300781h-4.78125zm0 0"/><path d="m1328.359375 973.9125v-34.296875l506.09375 16.132813v34.296875zm0 0" fill="none" stroke="#000" stroke-linejoin="round" stroke-miterlimit="10" stroke-width="3.98506" transform="matrix(.1 0 0 -.1 0 398.36)"/><path d="m132.835938 300.96875v3.429688l50.609374-1.613282v-3.429687zm0 0"/><path d="m1525.507812 348.834375h47.8125v3.007813h-47.8125zm0 0" fill="none" stroke="#000" stroke-linejoin="round" stroke-miterlimit="10" stroke-width="4.80598" transform="matrix(.1 0 0 -.1 0 398.36)"/><path d="m152.550781 363.476562h4.78125v-.300781h-4.78125zm0 0"/><path d="m1971.40625 348.834375h47.8125v3.007813h-47.8125zm0 0" fill="none" stroke="#000" stroke-linejoin="round" stroke-miterlimit="10" stroke-width="4.80598" transform="matrix(.1 0 0 -.1 0 398.36)"/><path d="m197.140625 363.476562h4.78125v-.300781h-4.78125zm0 0"/><path d="m3118.125 348.834375h47.8125v3.007813h-47.8125zm0 0" fill="none" stroke="#000" stroke-linejoin="round" stroke-miterlimit="10" stroke-width="4.80598" transform="matrix(.1 0 0 -.1 0 398.36)"/><path d="m311.8125 363.476562h4.777344v-.300781h-4.777344zm0 0"/><path d="m3425.585938 973.9125v-34.296875l506.054687 16.132813v34.296875zm0 0" fill="none" stroke="#000" stroke-linejoin="round" stroke-miterlimit="10" stroke-width="3.98506" transform="matrix(.1 0 0 -.1 0 398.36)"/><path d="m342.558594 300.96875v3.429688l50.605468-1.613282v-3.429687zm0 0"/><path d="m3601.484375 348.834375h47.773437v3.007813h-47.773437zm0 0" fill="none" stroke="#000" stroke-linejoin="round" stroke-miterlimit="10" stroke-width="4.80598" transform="matrix(.1 0 0 -.1 0 398.36)"/><path d="m360.148438 363.476562h4.777343v-.300781h-4.777343zm0 0"/><path d="m4410.195312 876.060938h506.054688v34.257812h-506.054688zm0 0" fill="none" stroke="#000" stroke-linejoin="round" stroke-miterlimit="10" stroke-width="3.98506" transform="matrix(.1 0 0 -.1 0 398.36)"/><path d="m441.019531 310.753906h50.605469v-3.425781h-50.605469zm0 0"/><path d="m4995.664062 348.834375h47.773438v3.007813h-47.773438zm0 0" fill="none" stroke="#000" stroke-linejoin="round" stroke-miterlimit="10" stroke-width="4.80598" transform="matrix(.1 0 0 -.1 0 398.36)"/><path d="m499.566406 363.476562h4.777344v-.300781h-4.777344zm0 0"/><path d="m5414.6875 631.920313h3.828125v259.296875h-3.828125zm0 0" fill="none" stroke="#000" stroke-linejoin="round" stroke-miterlimit="10" stroke-width="3.98506" transform="matrix(.1 0 0 -.1 0 398.36)"/><path d="m541.46875 335.167969h.382812v-25.925781h-.382812zm0 0"/><use x="515.078" xlink:href="#D" y="368.8963"/><use x="525.962794" xlink:href="#z" y="368.8963"/><use x="536.847587" xlink:href="#G" y="368.8963"/><use x="547.732381" xlink:href="#H" y="368.8963"/><use x="536.8483" xlink:href="#ag" y="306.6361"/><use x="531.64478" xlink:href="#ab" y="336.9361"/><path d="m1328.359375 711.607813h3.828125v243.28125h-3.828125zm0 0" fill="none" stroke="#000" stroke-linejoin="round" stroke-miterlimit="10" stroke-width="3.98506" transform="matrix(.1 0 0 -.1 0 398.36)"/><path d="m132.835938 327.199219h.382812v-24.328125h-.382812zm0 0"/><use x="123.01" xlink:href="#ab" y="328.9663"/><path d="m776.328125 671.764063h3.828125v259.296875h-3.828125zm0 0" fill="none" stroke="#000" stroke-linejoin="round" stroke-miterlimit="10" stroke-width="3.98506" transform="matrix(.1 0 0 -.1 0 398.36)"/><path d="m77.632812 331.183594h.382813v-25.929688h-.382813zm0 0"/><use x="62.6348" xlink:href="#Z" y="368.8963"/><use x="72.499268" xlink:href="#aa" y="368.8963"/><use x="67.80589" xlink:href="#ab" y="332.9514"/><use x="117.32819" xlink:href="#T" y="368.8963"/><use x="128.212971" xlink:href="#R" y="368.8963"/><use x="35.09809" xlink:href="#ad" y="324.9811"/><use x="42.30161" xlink:href="#ad" y="313.026"/><use x="6.37621" xlink:href="#ae" y="332.9514"/><path d="m2873.554688 671.764063h3.828124v259.296875h-3.828124zm0 0" fill="none" stroke="#000" stroke-linejoin="round" stroke-miterlimit="10" stroke-width="3.98506" transform="matrix(.1 0 0 -.1 0 398.36)"/><path d="m287.355469 331.183594h.382812v-25.929688h-.382812zm0 0"/><use x="267.339" xlink:href="#G" y="368.8963"/><use x="277.88434" xlink:href="#E" y="368.8963"/><use x="287.239035" xlink:href="#Q" y="368.8963"/><use x="277.5273" xlink:href="#ab" y="332.9514"/><path d="m2237.8125 496.685938h3.828125v259.296875h-3.828125zm0 0" fill="none" stroke="#000" stroke-linejoin="round" stroke-miterlimit="10" stroke-width="3.98506" transform="matrix(.1 0 0 -.1 0 398.36)"/><path d="m223.78125 348.691406h.382812v-25.929687h-.382812zm0 0"/><use x="212.97" xlink:href="#G" y="368.8963"/><use x="223.854794" xlink:href="#R" y="368.8963"/><use x="234.739587" xlink:href="#O" y="368.8963"/><use x="223.5837" xlink:href="#ab" y="320.9959"/><path d="m1830.625 751.451563h3.828125v219.335937h-3.828125zm0 0" fill="none" stroke="#000" stroke-linejoin="round" stroke-miterlimit="10" stroke-width="3.98506" transform="matrix(.1 0 0 -.1 0 398.36)"/><path d="m183.0625 323.214844h.382812v-21.933594h-.382812zm0 0"/><use x="170.786" xlink:href="#K" y="368.8963"/><use x="175.207882" xlink:href="#V" y="368.8963"/><use x="173.236" xlink:href="#ab" y="324.9811"/></svg>