<svg height="810.32em" viewBox="0 0 595.28 810.32" width="595.28em" xmlns="http://www.w3.org/2000/svg" xmlns:xlink="http://www.w3.org/1999/xlink"><clipPath id="a"><path d="m0 73h595.28125v2h-595.28125zm0 0"/></clipPath><clipPath id="b"><path d="m0 62h595.28125v2h-595.28125zm0 0"/></clipPath><clipPath id="c"><path d="m0 51h595.28125v2h-595.28125zm0 0"/></clipPath><clipPath id="d"><path d="m0 40h595.28125v2h-595.28125zm0 0"/></clipPath><clipPath id="e"><path d="m0 30h595.28125v1h-595.28125zm0 0"/></clipPath><clipPath id="f"><path d="m593 29h2.28125v46h-2.28125zm0 0"/></clipPath><clipPath id="g"><path d="m0 209h595.28125v2h-595.28125zm0 0"/></clipPath><clipPath id="h"><path d="m0 198h595.28125v2h-595.28125zm0 0"/></clipPath><clipPath id="i"><path d="m0 187h595.28125v2h-595.28125zm0 0"/></clipPath><clipPath id="j"><path d="m0 176h595.28125v2h-595.28125zm0 0"/></clipPath><clipPath id="k"><path d="m0 165h595.28125v2h-595.28125zm0 0"/></clipPath><clipPath id="l"><path d="m591 164h4.28125v49h-4.28125zm0 0"/></clipPath><clipPath id="m"><path d="m0 342h595.28125v2h-595.28125zm0 0"/></clipPath><clipPath id="n"><path d="m0 331h595.28125v2h-595.28125zm0 0"/></clipPath><clipPath id="o"><path d="m0 320h595.28125v2h-595.28125zm0 0"/></clipPath><clipPath id="p"><path d="m0 309h595.28125v2h-595.28125zm0 0"/></clipPath><clipPath id="q"><path d="m0 298h595.28125v2h-595.28125zm0 0"/></clipPath><clipPath id="r"><path d="m593 298h2.28125v46h-2.28125zm0 0"/></clipPath><clipPath id="s"><path d="m0 474h595.28125v1h-595.28125zm0 0"/></clipPath><clipPath id="t"><path d="m0 463h595.28125v2h-595.28125zm0 0"/></clipPath><clipPath id="u"><path d="m0 452h595.28125v2h-595.28125zm0 0"/></clipPath><clipPath id="v"><path d="m0 441h595.28125v2h-595.28125zm0 0"/></clipPath><clipPath id="w"><path d="m0 430h595.28125v2h-595.28125zm0 0"/></clipPath><clipPath id="x"><path d="m593 430h2.28125v46h-2.28125zm0 0"/></clipPath><clipPath id="y"><path d="m0 605h595.28125v2h-595.28125zm0 0"/></clipPath><clipPath id="z"><path d="m0 594h595.28125v2h-595.28125zm0 0"/></clipPath><clipPath id="A"><path d="m0 583h595.28125v2h-595.28125zm0 0"/></clipPath><clipPath id="B"><path d="m0 572h595.28125v2h-595.28125zm0 0"/></clipPath><clipPath id="C"><path d="m0 561h595.28125v2h-595.28125zm0 0"/></clipPath><clipPath id="D"><path d="m593 561h2.28125v46h-2.28125zm0 0"/></clipPath><clipPath id="E"><path d="m0 737h595.28125v2h-595.28125zm0 0"/></clipPath><clipPath id="F"><path d="m0 726h595.28125v2h-595.28125zm0 0"/></clipPath><clipPath id="G"><path d="m0 715h595.28125v2h-595.28125zm0 0"/></clipPath><clipPath id="H"><path d="m0 704h595.28125v2h-595.28125zm0 0"/></clipPath><clipPath id="I"><path d="m0 693h595.28125v2h-595.28125zm0 0"/></clipPath><clipPath id="J"><path d="m591 691h4.28125v49h-4.28125zm0 0"/></clipPath><symbol id="K" overflow="visible"><path d="m13.84375-2.9375c0 .4375-.125.921875-.4375 1.265625-.921875 1.109375-3.015625 2.453125-4.6875 3.515625-1.65625 1.046875-3.765625 2.453125-5.125 2.84375-.171875.046875-.390625.09375-.5625.09375-.96875 0-1.84375-.75-1.84375-1.84375 0-.4375.125-.921875.4375-1.265625.921875-1.109375 3.015625-2.453125 4.6875-3.515625 1.671875-1.046875 3.765625-2.453125 5.125-2.84375.171875-.046875.390625-.09375.578125-.09375.953125 0 1.828125.75 1.828125 1.84375zm-2.234375-2.984375c-3.28125 0-5.953125.703125-8.28125 2.28125-1.40625.96875-2.3125 2.453125-2.84375 4.078125-.265625.796875-.484375 1.671875-.484375 2.5 0 2.0625 1.484375 2.984375 3.421875 2.984375 3.28125 0 5.953125-.703125 8.28125-2.28125 1.40625-.96875 2.328125-2.453125 2.84375-4.078125.265625-.796875.484375-1.671875.484375-2.5 0-2.0625-1.484375-2.984375-3.421875-2.984375zm0 0"/></symbol><symbol id="L" overflow="visible"><path d="m9.734375-5.921875c-1.84375 0-3.59375.625-5.171875 1.578125-2.0625 1.234375-4.5625 3.375-4.5625 6.484375 0 2.59375 2.28125 3.78125 4.609375 3.78125 1.828125 0 3.59375-.625 5.171875-1.578125 2.046875-1.234375 4.5-3.375 4.5-6.484375 0-2.59375-2.234375-3.78125-4.546875-3.78125zm0 0"/></symbol><symbol id="M" overflow="visible"><path d="m16.390625-11.390625c-.703125-3.078125-1.53125-6.09375-2.40625-9.125 4.203125-4.765625 8.015625-9.6875 8.015625-16 0-4.953125-2.71875-12.046875-5.78125-15.734375-.21875-.171875-.484375-.171875-.703125 0-4.171875 3.03125-6.578125 7.859375-6.578125 12.9375 0 2.28125.046875 4.515625.3125 6.75.296875 2.84375 1.046875 5.609375 1.84375 8.375-5.171875 5.875-11 11.484375-11 19.28125 0 8.8125 6.34375 16.296875 14.59375 16.296875 1.359375 0 2.625-.125 3.890625-.34375.140625 1.40625.21875 2.796875.21875 4.203125 0 .796875-.03125 1.53125-.078125 2.328125-.265625 4.328125-2.9375 8.328125-7.015625 8.40625-.046875 0-.09375.046875-.125.046875-2.25 0-4.171875-1.265625-5.3125-3.0625.484375.21875 1.015625.390625 1.53125.390625 2.28125 0 4.171875-1.890625 4.171875-4.15625 0-2.453125-1.796875-4.5625-4.171875-4.5625-2.578125 0-4.90625 2.015625-4.90625 4.5625 0 4.734375 3.8125 8.546875 8.546875 8.546875 5.171875 0 8.71875-4.65625 9.03125-9.90625.046875-.84375.046875-1.625.046875-2.453125 0-1.578125-.09375-3.15625-.21875-4.734375 1.140625-.359375 2.234375-.875 3.1875-1.625 3.25-2.40625 4.703125-5.78125 4.703125-9.125 0-5.78125-4.390625-11.34375-11.140625-11.34375-.21875 0-.4375.046875-.65625.046875zm3.71875 20.375c-.609375-5.4375-1.609375-10.609375-2.703125-15.734375 4.8125.390625 7.84375 4.421875 7.84375 8.453125 0 3.078125-2.109375 6.234375-5.140625 7.28125zm-17-10.34375c0-7.015625 4.734375-12.3125 9.46875-17.625.703125 2.59375 1.40625 5.171875 2.015625 7.8125-4.421875 1-6.921875 4.734375-6.921875 8.59375 0 3.0625 1.578125 6.171875 5.078125 8.0625.140625.03125.265625.078125.390625.078125.484375 0 .890625-.4375.890625-.921875 0-.21875-.140625-.4375-.3125-.609375-2.453125-1.40625-3.59375-3.5-3.59375-5.4375 0-2.578125 2.015625-4.90625 5.484375-5.296875 1.140625 5.25 2.140625 10.46875 2.796875 16.078125-1.1875.171875-2.359375.265625-3.59375.265625-5.953125 0-11.703125-5.03125-11.703125-11zm14.90625-44.65625c.75 2.3125.921875 3.453125.921875 6 0 5.5625-2.9375 10-6.53125 14.25-.796875-2.765625-1.453125-5.4375-1.453125-8.765625 0-4.875 2.71875-9.296875 7.0625-11.484375zm0 0"/></symbol><symbol id="N" overflow="visible"><path d="m0 0c0 1.40625 1.09375 2.5 2.5 2.5s2.5-1.09375 2.5-2.5-1.09375-2.5-2.5-2.5-2.5 1.09375-2.5 2.5zm0 0"/></symbol><symbol id="O" overflow="visible"><path d="m-2.765625-2.0625c0 1.53125 1.234375 2.765625 2.765625 2.765625s2.765625-1.234375 2.765625-2.765625-1.234375-2.765625-2.765625-2.765625-2.765625 1.234375-2.765625 2.765625zm2.765625-13.71875c-6.796875 0-14.421875 7.578125-14.421875 15.875 0 .34375.359375.609375.703125.609375.3125 0 .65625-.21875.75-.703125 1.140625-6.53125 6.4375-11.609375 12.96875-11.609375s11.828125 5.078125 12.96875 11.609375c.09375.484375.4375.703125.75.703125.34375 0 .703125-.265625.703125-.609375 0-8.296875-7.578125-15.875-14.421875-15.875zm0 0"/></symbol><symbol id="P" overflow="visible"><path d="m20.5625 0v-10.640625c0-2.53125-1.40625-3.953125-4.046875-3.953125-1.90625 0-3.03125.578125-4.359375 2.171875-.84375-1.515625-1.984375-2.171875-3.828125-2.171875-1.890625 0-3.125.703125-4.34375 2.421875v-2.015625h-2.0625v14.1875h2.25v-8.90625c0-2.046875 1.484375-3.703125 3.328125-3.703125 1.671875 0 2.625 1.03125 2.625 2.84375v9.765625h2.25v-8.90625c0-2.046875 1.515625-3.703125 3.34375-3.703125 1.65625 0 2.609375 1.046875 2.609375 2.84375v9.765625zm0 0"/></symbol><symbol id="Q" overflow="visible"><path d="m13.890625-6.4375c0-2.0625-.171875-3.359375-.578125-4.421875-.921875-2.3125-3.078125-3.734375-5.734375-3.734375-3.953125 0-6.5 2.9375-6.5 7.578125 0 4.65625 2.46875 7.421875 6.4375 7.421875 3.25 0 5.5-1.84375 6.0625-4.703125h-2.265625c-.625 1.859375-1.890625 2.625-3.703125 2.625-2.359375 0-4.125-1.515625-4.171875-4.765625zm-2.421875-2s0 .109375-.015625.15625h-7.96875c.203125-2.515625 1.796875-4.21875 4.0625-4.21875 2.21875 0 3.921875 1.84375 3.921875 4.0625zm.953125-11.296875h-3.0625l-2.59375 4.015625h1.625zm0 0"/></symbol><symbol id="R" overflow="visible"><path d="m12.90625-4.875h-2.265625c-.390625 2.28125-1.546875 3.203125-3.46875 3.203125-2.484375 0-3.984375-1.921875-3.984375-5.28125 0-3.546875 1.46875-5.546875 3.9375-5.546875 1.890625 0 3.078125 1.109375 3.34375 3.078125h2.28125c-.28125-3.453125-2.4375-5.171875-5.609375-5.171875-3.8125 0-6.296875 2.9375-6.296875 7.640625 0 4.578125 2.4375 7.359375 6.28125 7.359375 3.375 0 5.515625-2.03125 5.78125-5.28125zm0 0"/></symbol><symbol id="S" overflow="visible"><path d="m12.421875-3.984375c0-2.109375-1.1875-3.15625-4-3.84375l-2.171875-.5c-1.84375-.4375-2.625-1.03125-2.625-2.03125 0-1.296875 1.171875-2.140625 3-2.140625 1.8125 0 2.796875.78125 2.84375 2.265625h2.390625c-.03125-2.78125-1.875-4.359375-5.140625-4.359375-3.3125 0-5.453125 1.71875-5.453125 4.34375 0 2.21875 1.140625 3.265625 4.5 4.078125l2.109375.515625c1.5625.375 2.1875.84375 2.1875 1.875 0 1.3125-1.328125 2.109375-3.296875 2.109375-2.03125 0-3.171875-.5-3.46875-2.65625h-2.375c.109375 3.265625 1.953125 4.734375 5.65625 4.734375 3.5625 0 5.84375-1.65625 5.84375-4.390625zm0 0"/></symbol><symbol id="T" overflow="visible"><path d="m8.6875-12.203125v-2.296875c-.375-.0625-.5625-.09375-.859375-.09375-1.46875 0-2.578125.875-3.875 2.984375v-2.578125h-2.0625v14.1875h2.25v-7.359375c0-3.1875 1.0625-4.796875 4.546875-4.84375zm0 0"/></symbol><symbol id="U" overflow="visible"><path d="m13.046875 0v-14.1875h-2.25v7.828125c0 2.890625-1.515625 4.796875-3.875 4.796875-1.78125 0-2.921875-1.09375-2.921875-2.796875v-9.828125h-2.234375v10.71875c0 2.359375 1.75 3.875 4.515625 3.875 2.078125 0 3.40625-.734375 4.734375-2.59375v2.1875zm-6.5-16.34375v-2.765625h-2.453125v2.765625zm4.390625 0v-2.765625h-2.46875v2.765625zm0 0"/></symbol><symbol id="V" overflow="visible"><path d="m13.171875 0v-10.71875c0-2.359375-1.75-3.875-4.484375-3.875-2.109375 0-3.46875.8125-4.703125 2.796875v-2.390625h-2.09375v14.1875h2.25v-7.828125c0-2.890625 1.5625-4.78125 3.875-4.78125 1.78125 0 2.921875 1.078125 2.921875 2.78125v9.828125zm0 0"/></symbol><symbol id="W" overflow="visible"><path d="m13.578125 0-5.78125-9.28125 4.921875-4.90625h-2.890625l-6.015625 6.015625v-11.5625h-2.25v19.734375h2.25v-5.515625l2.203125-2.171875 4.78125 7.6875zm0 0"/></symbol><symbol id="X" overflow="visible"><path d="m5.203125.4375v-3.25h-2.84375v2.8125h1.625v.484375c0 1.875-.359375 2.40625-1.625 2.46875v1.03125c1.890625 0 2.84375-1.21875 2.84375-3.546875zm0 0"/></symbol><symbol id="Y" overflow="visible"><path d="m13.890625-6.4375c0-2.0625-.171875-3.359375-.578125-4.421875-.921875-2.3125-3.078125-3.734375-5.734375-3.734375-3.953125 0-6.5 2.9375-6.5 7.578125 0 4.65625 2.46875 7.421875 6.4375 7.421875 3.25 0 5.5-1.84375 6.0625-4.703125h-2.265625c-.625 1.859375-1.890625 2.625-3.703125 2.625-2.359375 0-4.125-1.515625-4.171875-4.765625zm-2.421875-2s0 .109375-.015625.15625h-7.96875c.203125-2.515625 1.796875-4.21875 4.0625-4.21875 2.21875 0 3.921875 1.84375 3.921875 4.0625zm0 0"/></symbol><symbol id="Z" overflow="visible"><path d="m13.390625 0v-19.734375h-2.234375v7.34375c-.953125-1.4375-2.46875-2.203125-4.359375-2.203125-3.6875 0-6.09375 2.84375-6.09375 7.375 0 4.78125 2.359375 7.625 6.171875 7.625 1.953125 0 3.296875-.734375 4.515625-2.484375v2.078125zm-2.234375-7.03125c0 3.265625-1.578125 5.328125-3.953125 5.328125-2.5 0-4.140625-2.078125-4.140625-5.390625 0-3.296875 1.640625-5.375 4.109375-5.375 2.4375 0 3.984375 2.15625 3.984375 5.4375zm0 0"/></symbol><symbol id="aa" overflow="visible"><path d="m4.890625 0v-14.1875h-2.234375v14.1875zm3.4375-19.734375h-3.046875l-2.609375 4.015625h1.625zm0 0"/></symbol><symbol id="ab" overflow="visible"><path d="m13.234375-2.328125v-11.859375h-2.078125v2.0625c-1.140625-1.671875-2.515625-2.46875-4.34375-2.46875-3.59375 0-6.03125 3.03125-6.03125 7.640625 0 4.46875 2.515625 7.359375 5.84375 7.359375 1.796875 0 3.03125-.765625 4.53125-2.546875v.953125c0 3.765625-1.546875 5.1875-4.171875 5.1875-1.78125 0-3.171875-.640625-3.4375-2.375h-2.296875c.234375 2.671875 2.328125 4.28125 5.65625 4.28125 4.4375 0 6.328125-1.984375 6.328125-8.234375zm-2.296875-4.6875c0 3.390625-1.46875 5.34375-3.84375 5.34375-2.46875 0-3.953125-1.984375-3.953125-5.421875 0-3.40625 1.515625-5.40625 3.921875-5.40625 2.4375 0 3.875 2.046875 3.875 5.484375zm0 0"/></symbol><symbol id="ac" overflow="visible"><path d="m15.671875-17.515625v-2.21875h-13.234375v19.734375h2.515625v-8.984375h9.421875v-2.21875h-9.421875v-6.3125zm0 0"/></symbol><symbol id="ad" overflow="visible"><path d="m13.796875-6.984375c0-4.890625-2.34375-7.609375-6.4375-7.609375-3.984375 0-6.390625 2.734375-6.390625 7.5s2.390625 7.5 6.421875 7.5c3.96875 0 6.40625-2.734375 6.40625-7.390625zm-2.34375-.03125c0 3.328125-1.578125 5.34375-4.0625 5.34375-2.515625 0-4.0625-1.984375-4.0625-5.421875 0-3.40625 1.546875-5.40625 4.0625-5.40625 2.546875 0 4.0625 1.96875 4.0625 5.484375zm-1.578125-12.734375h-3.0625l-2.59375 4.046875h1.625zm4.4375 0h-3.046875l-2.609375 4.046875h1.625zm0 0"/></symbol><symbol id="ae" overflow="visible"><path d="m4.140625 0v-14.1875h-2.25v14.1875zm.296875-16.3125v-2.828125h-2.8125v2.828125zm0 0"/></symbol><symbol id="af" overflow="visible"><path d="m16.046875-17.515625v-2.21875h-15.484375v2.21875h6.5v17.515625h2.515625v-17.515625zm0 0"/></symbol><symbol id="ag" overflow="visible"><path d="m14.484375-.046875v-1.71875c-.25.0625-.359375.0625-.5.0625-.78125 0-1.203125-.40625-1.203125-1.109375v-7.90625c0-2.515625-1.84375-3.875-5.34375-3.875-3.4375 0-5.546875 1.328125-5.671875 4.609375h2.265625c.1875-1.734375 1.21875-2.515625 3.328125-2.515625 2.03125 0 3.171875.75 3.171875 2.109375v.59375c0 .953125-.578125 1.359375-2.359375 1.5625-3.1875.40625-3.671875.515625-4.546875.875-1.65625.671875-2.484375 1.953125-2.484375 3.671875 0 2.578125 1.78125 4.09375 4.65625 4.09375 1.8125 0 3.5625-.765625 4.8125-2.078125.25 1.078125 1.21875 1.859375 2.328125 1.859375.453125 0 .8125-.046875 1.546875-.234375zm-3.953125-4.84375c0 2.015625-2.0625 3.328125-4.25 3.328125-1.765625 0-2.796875-.625-2.796875-2.171875 0-1.484375 1.015625-2.140625 3.421875-2.484375 2.375-.328125 2.859375-.4375 3.625-.796875zm0 0"/></symbol><symbol id="ah" overflow="visible"><path d="m6.875 0v-1.890625c-.296875.078125-.65625.109375-1.078125.109375-.984375 0-1.25-.28125-1.25-1.28125v-9.28125h2.328125v-1.84375h-2.328125v-3.890625h-2.25v3.890625h-1.921875v1.84375h1.921875v10.28125c0 1.4375.984375 2.25 2.734375 2.25.546875 0 1.078125-.046875 1.84375-.1875zm0 0"/></symbol><symbol id="ai" overflow="visible"><path d="m4.09375 0v-19.734375h-2.25v19.734375zm0 0"/></symbol><symbol id="aj" overflow="visible"><path d="m12.9375-14.1875h-2.4375l-3.921875 11.046875-3.625-11.046875h-2.40625l4.78125 14.234375-.859375 2.25c-.375 1-.84375 1.390625-1.8125 1.390625-.328125 0-.703125-.0625-1.1875-.171875v2.03125c.453125.25.90625.359375 1.515625.359375 1.59375 0 2.890625-.90625 3.640625-2.921875zm0 0"/></symbol><symbol id="ak" overflow="visible"><path d="m13.046875 0v-14.1875h-2.25v7.828125c0 2.890625-1.515625 4.796875-3.875 4.796875-1.78125 0-2.921875-1.09375-2.921875-2.796875v-9.828125h-2.234375v10.71875c0 2.359375 1.75 3.875 4.515625 3.875 2.078125 0 3.40625-.734375 4.734375-2.59375v2.1875zm0 0"/></symbol><symbol id="al" overflow="visible"><path d="m5.21875 0v-19.734375h-2.515625v19.734375zm0 0"/></symbol><symbol id="am" overflow="visible"><path d="m14.484375-.046875v-1.71875c-.25.0625-.359375.0625-.5.0625-.78125 0-1.203125-.40625-1.203125-1.109375v-7.90625c0-2.515625-1.84375-3.875-5.34375-3.875-3.4375 0-5.546875 1.328125-5.671875 4.609375h2.265625c.1875-1.734375 1.21875-2.515625 3.328125-2.515625 2.03125 0 3.171875.75 3.171875 2.109375v.59375c0 .953125-.578125 1.359375-2.359375 1.5625-3.1875.40625-3.671875.515625-4.546875.875-1.65625.671875-2.484375 1.953125-2.484375 3.671875 0 2.578125 1.78125 4.09375 4.65625 4.09375 1.8125 0 3.5625-.765625 4.8125-2.078125.25 1.078125 1.21875 1.859375 2.328125 1.859375.453125 0 .8125-.046875 1.546875-.234375zm-3.953125-4.84375c0 2.015625-2.0625 3.328125-4.25 3.328125-1.765625 0-2.796875-.625-2.796875-2.171875 0-1.484375 1.015625-2.140625 3.421875-2.484375 2.375-.328125 2.859375-.4375 3.625-.796875zm1.75-14.84375h-3.046875l-2.609375 4.015625h1.625zm0 0"/></symbol><symbol id="an" overflow="visible"><path d="m13.796875-6.984375c0-4.890625-2.34375-7.609375-6.4375-7.609375-3.984375 0-6.390625 2.734375-6.390625 7.5s2.390625 7.5 6.421875 7.5c3.96875 0 6.40625-2.734375 6.40625-7.390625zm-2.34375-.03125c0 3.328125-1.578125 5.34375-4.0625 5.34375-2.515625 0-4.0625-1.984375-4.0625-5.421875 0-3.40625 1.546875-5.40625 4.0625-5.40625 2.546875 0 4.0625 1.96875 4.0625 5.484375zm.921875-12.71875h-3.0625l-2.59375 4.015625h1.609375zm0 0"/></symbol><symbol id="ao" overflow="visible"><path d="m13.15625-14.1875h-2.546875l-4 11.515625-3.796875-11.515625h-2.546875l4.984375 14.1875h2.46875zm0 0"/></symbol><symbol id="ap" overflow="visible"><path d="m12.375 0v-1.96875h-8.796875l8.40625-10.203125v-2.015625h-10.578125v1.984375h7.90625l-8.46875 10.171875v2.03125zm0 0"/></symbol><symbol id="aq" overflow="visible"><path d="m5.171875 0v-2.8125h-2.8125v2.8125zm0-11.359375v-2.828125h-2.8125v2.828125zm0 0"/></symbol><symbol id="ar" overflow="visible"><path d="m17.671875 0-6.921875-19.734375h-3.25l-7.046875 19.734375h2.6875l2.078125-5.921875h7.609375l2.03125 5.921875zm-5.546875-8.03125h-6.28125l3.25-8.984375zm2.8125-16.765625h-3.671875l-3.125 3.609375h1.953125zm0 0"/></symbol><symbol id="as" overflow="visible"><path d="m17.453125-6.015625v-13.71875h-2.515625v13.71875c0 2.65625-1.921875 4.28125-5.09375 4.28125-2.9375 0-5.03125-1.40625-5.03125-4.28125v-13.71875h-2.515625v13.71875c0 4.015625 2.875 6.5 7.546875 6.5 4.640625 0 7.609375-2.546875 7.609375-6.5zm0 0"/></symbol><symbol id="at" overflow="visible"><path d="m6.984375-12.34375v-1.84375h-2.359375v-2.21875c0-.9375.546875-1.421875 1.578125-1.421875.1875 0 .265625 0 .78125.015625v-1.859375c-.515625-.109375-.8125-.140625-1.28125-.140625-2.078125 0-3.328125 1.1875-3.328125 3.21875v2.40625h-1.890625v1.84375h1.890625v12.34375h2.25v-12.34375zm0 0"/></symbol><symbol id="au" overflow="visible"><path d="m17.453125-19.734375h-2.671875l-5.46875 16.703125-5.796875-16.703125h-2.703125l7.09375 19.734375h2.703125zm0 0"/></symbol><symbol id="av" overflow="visible"><path d="m13.15625 0v-10.71875c0-2.375-1.703125-3.875-4.46875-3.875-2 0-3.21875.625-4.546875 2.359375v-7.5h-2.25v19.734375h2.25v-7.828125c0-2.890625 1.515625-4.78125 3.84375-4.78125 1.59375 0 2.921875.921875 2.921875 2.78125v9.828125zm0 0"/></symbol><symbol id="aw" overflow="visible"><path d="m13.796875-6.984375c0-4.890625-2.34375-7.609375-6.4375-7.609375-3.984375 0-6.390625 2.734375-6.390625 7.5s2.390625 7.5 6.421875 7.5c3.96875 0 6.40625-2.734375 6.40625-7.390625zm-2.34375-.03125c0 3.328125-1.578125 5.34375-4.0625 5.34375-2.515625 0-4.0625-1.984375-4.0625-5.421875 0-3.40625 1.546875-5.40625 4.0625-5.40625 2.546875 0 4.0625 1.96875 4.0625 5.484375zm0 0"/></symbol><symbol id="ax" overflow="visible"><path d="m4.140625 2.953125v-17.140625h-2.25v16.25c0 1.34375-.453125 1.9375-1.84375 1.859375l-.53125-.03125v1.921875c.265625.0625.40625.09375.75.09375 2.546875 0 3.875-1.03125 3.875-2.953125zm.296875-19.265625v-2.828125h-2.8125v2.828125zm0 0"/></symbol><symbol id="ay" overflow="visible"><path d="m17.671875 0-6.921875-19.734375h-3.25l-7.046875 19.734375h2.6875l2.078125-5.921875h7.609375l2.03125 5.921875zm-5.546875-8.03125h-6.28125l3.25-8.984375zm0 0"/></symbol><symbol id="az" overflow="visible"><path d="m14.15625-7.25c0-4.609375-2.328125-7.34375-6.0625-7.34375-1.953125 0-3.328125.734375-4.390625 2.328125v-7.46875h-2.234375v19.734375h2.015625v-2.03125c1.09375 1.65625 2.53125 2.4375 4.5 2.4375 3.734375 0 6.171875-3.0625 6.171875-7.65625zm-2.359375.125c0 3.234375-1.671875 5.421875-4.140625 5.421875-2.375 0-3.953125-2.171875-3.953125-5.390625 0-3.328125 1.578125-5.484375 3.953125-5.375 2.515625 0 4.140625 2.1875 4.140625 5.34375zm0 0"/></symbol><symbol id="aA" overflow="visible"><path d="m5.171875 0v-2.8125h-2.8125v2.8125zm0 0"/></symbol><symbol id="aB" overflow="visible"><path d="m20.59375 0v-19.734375h-3.484375l-5.75 17.1875-5.84375-17.1875h-3.484375v19.734375h2.375v-16.53125l5.609375 16.53125h2.65625l5.546875-16.53125v16.53125zm0 0"/></symbol><symbol id="aC" overflow="visible"><path d="m9.109375 0v-17.09375h-2.234375c-.53125 2.03125-2.296875 3.0625-5.234375 3.0625v2.234375h4.09375v11.796875zm0 0"/></symbol><symbol id="aD" overflow="visible"><path d="m5.15625 0v-3.515625h-3.609375v3.515625zm0 0"/></symbol><g clip-path="url(#a)"><path d="m5.859375 12268.809896h9909.570312" fill="none" stroke="#000" stroke-linecap="round" stroke-miterlimit="10" stroke-width="11.726" transform="matrix(.06 0 0 -.06 0 810.32)"/></g><g clip-path="url(#b)"><path d="m5.859375 12451.492187h9909.570312" fill="none" stroke="#000" stroke-linecap="round" stroke-miterlimit="10" stroke-width="11.726" transform="matrix(.06 0 0 -.06 0 810.32)"/></g><g clip-path="url(#c)"><path d="m5.859375 12634.109375h9909.570312" fill="none" stroke="#000" stroke-linecap="round" stroke-miterlimit="10" stroke-width="11.726" transform="matrix(.06 0 0 -.06 0 810.32)"/></g><g clip-path="url(#d)"><path d="m5.859375 12816.791667h9909.570312" fill="none" stroke="#000" stroke-linecap="round" stroke-miterlimit="10" stroke-width="11.726" transform="matrix(.06 0 0 -.06 0 810.32)"/></g><g clip-path="url(#e)"><path d="m5.859375 12999.408854h9909.570312" fill="none" stroke="#000" stroke-linecap="round" stroke-miterlimit="10" stroke-width="11.726" transform="matrix(.06 0 0 -.06 0 810.32)"/></g><path d="m6369.596354 12268.809896v730.598958" fill="none" stroke="#000" stroke-miterlimit="10" stroke-width="22.2648" transform="matrix(.06 0 0 -.06 0 810.32)"/><g clip-path="url(#f)"><path d="m9910.15625 12268.809896v730.598958" fill="none" stroke="#000" stroke-miterlimit="10" stroke-width="22.2648" transform="matrix(.06 0 0 -.06 0 810.32)"/></g><use x="522.785046" xlink:href="#K" y="57.749495"/><path d="m7578.385417 12028.575521h8.59375v566.276041h-8.59375zm0 0" fill="none" stroke="#000" stroke-linejoin="round" stroke-miterlimit="10" stroke-width="6.6484" transform="matrix(.06 0 0 -.06 0 810.32)"/><path d="m454.703125 88.605469h.515625v-33.976563h-.515625zm0 0"/><use x="442.865886" xlink:href="#P" y="143.963667"/><use x="465.486202" xlink:href="#Q" y="143.963667"/><use x="440.569941" xlink:href="#R" y="113.278806"/><use x="454.176636" xlink:href="#S" y="113.278806"/><use x="467.783097" xlink:href="#Q" y="113.278806"/><use x="454.505169" xlink:href="#L" y="52.270384"/><use x="500.284061" xlink:href="#T" y="113.278806"/><use x="509.297653" xlink:href="#U" y="113.278806"/><use x="524.264208" xlink:href="#V" y="113.278806"/><use x="539.230997" xlink:href="#W" y="113.278806"/><use x="552.837428" xlink:href="#X" y="113.278806"/><path d="m6524.283854 12089.513021h8.59375v596.679687h-8.59375zm0 0" fill="none" stroke="#000" stroke-linejoin="round" stroke-miterlimit="10" stroke-width="6.6484" transform="matrix(.06 0 0 -.06 0 810.32)"/><path d="m391.457031 84.949219h.515625v-35.800781h-.515625zm0 0"/><use x="384.126768" xlink:href="#Y" y="143.963667"/><use x="399.093294" xlink:href="#S" y="143.963667"/><use x="387.188654" xlink:href="#Z" y="113.278806"/><use x="402.15518" xlink:href="#aa" y="113.278806"/><use x="391.258823" xlink:href="#L" y="46.790973"/><path d="m1555.143229 11740.684896h111.132813v5.859375h-111.132813zm0 0" fill="none" stroke="#000" stroke-linejoin="round" stroke-miterlimit="10" stroke-width="9.36986" transform="matrix(.06 0 0 -.06 0 810.32)"/><path d="m93.308594 105.878906h6.667968v-.351562h-6.667968zm0 0"/><path d="m2641.145833 11229.291667h111.197917v5.859375h-111.197917zm0 0" fill="none" stroke="#000" stroke-linejoin="round" stroke-miterlimit="10" stroke-width="9.36986" transform="matrix(.06 0 0 -.06 0 810.32)"/><path d="m158.46875 136.5625h6.671875v-.351562h-6.671875zm0 0"/><path d="m3485.15625 11229.291667h111.197917v5.859375h-111.197917zm0 0" fill="none" stroke="#000" stroke-linejoin="round" stroke-miterlimit="10" stroke-width="9.36986" transform="matrix(.06 0 0 -.06 0 810.32)"/><path d="m209.109375 136.5625h6.671875v-.351562h-6.671875zm0 0"/><path d="m4649.739583 11740.684896h111.197917v5.859375h-111.197917zm0 0" fill="none" stroke="#000" stroke-linejoin="round" stroke-miterlimit="10" stroke-width="9.36986" transform="matrix(.06 0 0 -.06 0 810.32)"/><path d="m278.984375 105.878906h6.671875v-.351562h-6.671875zm0 0"/><path d="m4829.036458 11229.291667h111.197917v5.859375h-111.197917zm0 0" fill="none" stroke="#000" stroke-linejoin="round" stroke-miterlimit="10" stroke-width="9.36986" transform="matrix(.06 0 0 -.06 0 810.32)"/><path d="m289.742188 136.5625h6.671874v-.351562h-6.671874zm0 0"/><path d="m2340.039062 12738.276042h972.070313v81.054687h-972.070313zm0 0" fill="none" stroke="#000" stroke-linejoin="round" stroke-miterlimit="10" stroke-width="6.6484" transform="matrix(.06 0 0 -.06 0 810.32)"/><path d="m140.402344 46.023438h58.324218v-4.863282h-58.324218zm0 0"/><path d="m7029.492187 11740.684896h111.132813v5.859375h-111.132813zm0 0" fill="none" stroke="#000" stroke-linejoin="round" stroke-miterlimit="10" stroke-width="9.36986" transform="matrix(.06 0 0 -.06 0 810.32)"/><path d="m421.769531 105.878906h6.667969v-.351562h-6.667969zm0 0"/><path d="m7074.088542 11229.291667h111.197916v5.859375h-111.197916zm0 0" fill="none" stroke="#000" stroke-linejoin="round" stroke-miterlimit="10" stroke-width="9.36986" transform="matrix(.06 0 0 -.06 0 810.32)"/><path d="m424.445312 136.5625h6.671876v-.351562h-6.671876zm0 0"/><path d="m8136.328125 11740.684896h111.197917v5.859375h-111.197917zm0 0" fill="none" stroke="#000" stroke-linejoin="round" stroke-miterlimit="10" stroke-width="9.36986" transform="matrix(.06 0 0 -.06 0 810.32)"/><path d="m488.179688 105.878906h6.671874v-.351562h-6.671874zm0 0"/><path d="m8117.1875 11229.291667h111.197917v5.859375h-111.197917zm0 0" fill="none" stroke="#000" stroke-linejoin="round" stroke-miterlimit="10" stroke-width="9.36986" transform="matrix(.06 0 0 -.06 0 810.32)"/><path d="m487.03125 136.5625h6.671875v-.351562h-6.671875zm0 0"/><use x="500.284001" xlink:href="#T" y="143.963667"/><use x="509.297593" xlink:href="#U" y="143.963667"/><use x="524.264148" xlink:href="#V" y="143.963667"/><use x="539.230937" xlink:href="#W" y="143.963667"/><use x="552.837368" xlink:href="#X" y="143.963667"/><path d="m8951.757812 12595.177083h8.59375v583.59375h-8.59375zm0 0" fill="none" stroke="#000" stroke-linejoin="round" stroke-miterlimit="10" stroke-width="6.6484" transform="matrix(.06 0 0 -.06 0 810.32)"/><path d="m537.105469 54.609375h.515625v-35.015625h-.515625zm0 0"/><use x="24.041748" xlink:href="#aC" y="113.278606"/><use x="37.478495" xlink:href="#aD" y="113.278606"/><path d="m2340.039062 12216.791667h8.59375v558.723958h-8.59375zm0 0" fill="none" stroke="#000" stroke-linejoin="round" stroke-miterlimit="10" stroke-width="6.6484" transform="matrix(.06 0 0 -.06 0 810.32)"/><path d="m140.402344 77.3125h.515625v-33.523438h-.515625zm0 0"/><use x="107.771216" xlink:href="#ab" y="113.278606"/><use x="122.737748" xlink:href="#Y" y="113.278606"/><use x="137.704274" xlink:href="#Z" y="113.278606"/><use x="152.671034" xlink:href="#X" y="113.278606"/><use x="126.807854" xlink:href="#L" y="79.667539"/><path d="m1285.9375 12216.791667h8.59375v596.679687h-8.59375zm0 0" fill="none" stroke="#000" stroke-linejoin="round" stroke-miterlimit="10" stroke-width="6.6484" transform="matrix(.06 0 0 -.06 0 810.32)"/><path d="m77.15625 77.3125h.515625v-35.800781h-.515625zm0 0"/><use x="55.06981" xlink:href="#ac" y="143.963667"/><use x="71.397358" xlink:href="#ad" y="143.963667"/><use x="124.183567" xlink:href="#W" y="143.963667"/><use x="137.790013" xlink:href="#ae" y="143.963667"/><use x="55.920125" xlink:href="#af" y="113.278806"/><use x="70.547044" xlink:href="#Q" y="113.278806"/><use x="8.767031" xlink:href="#M" y="63.229306"/><use x="63.56164" xlink:href="#L" y="79.667739"/><path d="m5500.911458 12582.091146h8.59375v596.679687h-8.59375zm0 0" fill="none" stroke="#000" stroke-linejoin="round" stroke-miterlimit="10" stroke-width="6.6484" transform="matrix(.06 0 0 -.06 0 810.32)"/><path d="m330.054688 55.394531h.515624v-35.800781h-.515624zm0 0"/><use x="301.844604" xlink:href="#V" y="143.963667"/><use x="316.811364" xlink:href="#ag" y="143.963667"/><use x="331.777889" xlink:href="#W" y="143.963667"/><use x="301.335072" xlink:href="#ah" y="113.278806"/><use x="308.478152" xlink:href="#Y" y="113.278806"/><use x="323.444678" xlink:href="#V" y="113.278806"/><use x="338.411438" xlink:href="#X" y="113.278806"/><use x="316.460702" xlink:href="#L" y="57.749895"/><path d="m4320.052083 12582.091146h8.528646v596.679687h-8.528646zm0 0" fill="none" stroke="#000" stroke-linejoin="round" stroke-miterlimit="10" stroke-width="6.6484" transform="matrix(.06 0 0 -.06 0 810.32)"/><path d="m259.203125 55.394531h.511719v-35.800781h-.511719zm0 0"/><use x="221.211442" xlink:href="#ai" y="143.963667"/><use x="227.164352" xlink:href="#aj" y="143.963667"/><use x="240.771032" xlink:href="#ak" y="143.963667"/><use x="255.737557" xlink:href="#V" y="143.963667"/><use x="270.704317" xlink:href="#W" y="143.963667"/><use x="242.216384" xlink:href="#al" y="113.278806"/><use x="249.700248" xlink:href="#S" y="113.278806"/><use x="245.606161" xlink:href="#L" y="57.749895"/><path d="m3303.515625 12216.791667h8.59375v558.723958h-8.59375zm0 0" fill="none" stroke="#000" stroke-linejoin="round" stroke-miterlimit="10" stroke-width="6.6484" transform="matrix(.06 0 0 -.06 0 810.32)"/><path d="m198.210938 77.3125h.515624v-33.523438h-.515624zm0 0"/><use x="179.86636" xlink:href="#T" y="143.963667"/><use x="188.710059" xlink:href="#am" y="143.963667"/><use x="184.288089" xlink:href="#an" y="113.278806"/><use x="184.616917" xlink:href="#L" y="79.667739"/><g clip-path="url(#g)"><path d="m5.859375 10003.315104h9909.570312" style="fill:none;stroke-width:11.726;stroke-linecap:round;stroke-linejoin:round;stroke:#000;stroke-miterlimit:10" transform="matrix(.06 0 0 -.06 0 810.32)"/></g><g clip-path="url(#h)"><path d="m5.859375 10185.932292h9909.570312" style="fill:none;stroke-width:11.726;stroke-linecap:round;stroke-linejoin:round;stroke:#000;stroke-miterlimit:10" transform="matrix(.06 0 0 -.06 0 810.32)"/></g><g clip-path="url(#i)"><path d="m5.859375 10368.614583h9909.570312" style="fill:none;stroke-width:11.726;stroke-linecap:round;stroke-linejoin:round;stroke:#000;stroke-miterlimit:10" transform="matrix(.06 0 0 -.06 0 810.32)"/></g><g clip-path="url(#j)"><path d="m5.859375 10551.231771h9909.570312" style="fill:none;stroke-width:11.726;stroke-linecap:round;stroke-linejoin:round;stroke:#000;stroke-miterlimit:10" transform="matrix(.06 0 0 -.06 0 810.32)"/></g><g clip-path="url(#k)"><path d="m5.859375 10733.914062h9909.570312" style="fill:none;stroke-width:11.726;stroke-linecap:round;stroke-linejoin:round;stroke:#000;stroke-miterlimit:10" transform="matrix(.06 0 0 -.06 0 810.32)"/></g><path d="m6856.25 10003.315104v730.598958" fill="none" stroke="#000" stroke-linejoin="round" stroke-miterlimit="10" stroke-width="22.2648" transform="matrix(.06 0 0 -.06 0 810.32)"/><use x="580.499161" xlink:href="#N" y="182.725745"/><use x="580.499161" xlink:href="#N" y="193.684667"/><g clip-path="url(#l)"><path d="m9886.132812 10003.315104v730.598958" fill="none" stroke="#000" stroke-linejoin="round" stroke-miterlimit="10" stroke-width="70.3014" transform="matrix(.06 0 0 -.06 0 810.32)"/></g><path d="m9804.6875 10003.315104v730.598958" fill="none" stroke="#000" stroke-linejoin="round" stroke-miterlimit="10" stroke-width="22.2648" transform="matrix(.06 0 0 -.06 0 810.32)"/><use x="479.525959" xlink:href="#ai" y="246.291872"/><use x="485.478868" xlink:href="#ak" y="246.291872"/><use x="500.445657" xlink:href="#V" y="246.291872"/><use x="515.412212" xlink:href="#W" y="246.291872"/><use x="529.018878" xlink:href="#X" y="246.291872"/><use x="500.496001" xlink:href="#K" y="193.684667"/><use x="339.729679" xlink:href="#L" y="182.725745"/><path d="m7011.523437 9763.080729h8.59375v553.125h-8.59375zm0 0" fill="none" stroke="#000" stroke-linejoin="round" stroke-miterlimit="10" stroke-width="6.6484" transform="matrix(.06 0 0 -.06 0 810.32)"/><path d="m420.691406 224.539062h.515625v-33.191406h-.515625zm0 0"/><use x="416.787834" xlink:href="#ah" y="276.976933"/><use x="424.271697" xlink:href="#ag" y="276.976933"/><use x="411.089232" xlink:href="#ao" y="246.292072"/><use x="424.015301" xlink:href="#ag" y="246.292072"/><use x="438.982061" xlink:href="#ai" y="246.292072"/><use x="420.494251" xlink:href="#K" y="188.205356"/><path d="m5665.494792 9823.953125h8.59375v596.679687h-8.59375zm0 0" fill="none" stroke="#000" stroke-linejoin="round" stroke-miterlimit="10" stroke-width="6.6484" transform="matrix(.06 0 0 -.06 0 810.32)"/><path d="m339.929688 220.882812h.515624v-35.800781h-.515624zm0 0"/><use x="318.311637" xlink:href="#ab" y="276.976933"/><use x="333.278162" xlink:href="#ag" y="276.976933"/><use x="348.244922" xlink:href="#S" y="276.976933"/><use x="361.851383" xlink:href="#ap" y="276.976933"/><use x="325.11485" xlink:href="#V" y="246.292072"/><use x="340.08161" xlink:href="#ag" y="246.292072"/><use x="355.048136" xlink:href="#W" y="246.292072"/><path d="m1664.388021 9523.888021h111.132812v5.859375h-111.132812zm0 0" fill="none" stroke="#000" stroke-linejoin="round" stroke-miterlimit="10" stroke-width="9.36986" transform="matrix(.06 0 0 -.06 0 810.32)"/><path d="m99.863281 238.886719h6.667969v-.351563h-6.667969zm0 0"/><path d="m1584.244792 9012.429687h111.197916v5.859375h-111.197916zm0 0" fill="none" stroke="#000" stroke-linejoin="round" stroke-miterlimit="10" stroke-width="9.36986" transform="matrix(.06 0 0 -.06 0 810.32)"/><path d="m95.054688 269.574219h6.671874v-.351563h-6.671874zm0 0"/><path d="m3807.161458 9523.888021h111.197917v5.859375h-111.197917zm0 0" fill="none" stroke="#000" stroke-linejoin="round" stroke-miterlimit="10" stroke-width="9.36986" transform="matrix(.06 0 0 -.06 0 810.32)"/><path d="m228.429688 238.886719h6.671874v-.351563h-6.671874zm0 0"/><path d="m5148.958333 9523.888021h111.197917v5.859375h-111.197917zm0 0" fill="none" stroke="#000" stroke-linejoin="round" stroke-miterlimit="10" stroke-width="9.36986" transform="matrix(.06 0 0 -.06 0 810.32)"/><path d="m308.9375 238.886719h6.671875v-.351563h-6.671875zm0 0"/><path d="m5029.947917 9012.429687h111.132812v5.859375h-111.132812zm0 0" fill="none" stroke="#000" stroke-linejoin="round" stroke-miterlimit="10" stroke-width="9.36986" transform="matrix(.06 0 0 -.06 0 810.32)"/><path d="m301.792969 269.574219h6.671875v-.351563h-6.671875zm0 0"/><path d="m2496.158854 10919.005208v-80.989583l1067.643229-106.705729v80.989583zm0 0" fill="none" stroke="#000" stroke-linejoin="round" stroke-miterlimit="10" stroke-width="6.6484" transform="matrix(.06 0 0 -.06 0 810.32)"/><path d="m149.769531 155.179688v4.859374l64.058594 6.402344v-4.859375zm0 0"/><path d="m6546.419271 9012.429687h111.197916v5.859375h-111.197916zm0 0" fill="none" stroke="#000" stroke-linejoin="round" stroke-miterlimit="10" stroke-width="9.36986" transform="matrix(.06 0 0 -.06 0 810.32)"/><path d="m392.785156 269.574219h6.671875v-.351563h-6.671875zm0 0"/><path d="m7648.242187 9523.888021h111.197917v5.859375h-111.197917zm0 0" fill="none" stroke="#000" stroke-linejoin="round" stroke-miterlimit="10" stroke-width="9.36986" transform="matrix(.06 0 0 -.06 0 810.32)"/><path d="m458.894531 238.886719h6.671875v-.351563h-6.671875zm0 0"/><path d="m7600.78125 9012.429687h111.197917v5.859375h-111.197917zm0 0" fill="none" stroke="#000" stroke-linejoin="round" stroke-miterlimit="10" stroke-width="9.36986" transform="matrix(.06 0 0 -.06 0 810.32)"/><path d="m456.046875 269.574219h6.667969v-.351563h-6.667969zm0 0"/><use x="479.525959" xlink:href="#ai" y="276.976933"/><use x="485.478868" xlink:href="#ak" y="276.976933"/><use x="500.445657" xlink:href="#V" y="276.976933"/><use x="515.412212" xlink:href="#W" y="276.976933"/><use x="529.018878" xlink:href="#aq" y="276.976933"/><path d="m8580.273437 10329.617187h8.59375v583.59375h-8.59375zm0 0" fill="none" stroke="#000" stroke-linejoin="round" stroke-miterlimit="10" stroke-width="6.6484" transform="matrix(.06 0 0 -.06 0 810.32)"/><path d="m514.816406 190.542969h.515625v-35.015625h-.515625zm0 0"/><use x="8.767048" xlink:href="#M" y="199.163778"/><path d="m1062.695312 9823.953125h8.59375v596.679687h-8.59375zm0 0" fill="none" stroke="#000" stroke-linejoin="round" stroke-miterlimit="10" stroke-width="6.6484" transform="matrix(.06 0 0 -.06 0 810.32)"/><path d="m63.761719 220.882812h.515625v-35.800781h-.515625zm0 0"/><use x="58.726717" xlink:href="#ar" y="276.976933"/><use x="76.755135" xlink:href="#ai" y="276.976933"/><use x="55.920072" xlink:href="#af" y="246.292072"/><use x="70.546991" xlink:href="#Q" y="246.292072"/><use x="63.561647" xlink:href="#L" y="182.725945"/><path d="m4659.960937 10316.53125h8.528646v596.679687h-8.528646zm0 0" fill="none" stroke="#000" stroke-linejoin="round" stroke-miterlimit="10" stroke-width="6.6484" transform="matrix(.06 0 0 -.06 0 810.32)"/><path d="m279.597656 191.328125h.511719v-35.800781h-.511719zm0 0"/><use x="266.000532" xlink:href="#L" y="193.684767"/><use x="246.878294" xlink:href="#T" y="246.291972"/><use x="255.89215" xlink:href="#ak" y="246.291972"/><use x="270.858675" xlink:href="#V" y="246.291972"/><use x="285.825201" xlink:href="#W" y="246.291972"/><use x="254.362139" xlink:href="#P" y="276.976833"/><use x="276.98269" xlink:href="#ag" y="276.976833"/><path d="m3555.208333 10225.190104h8.59375v544.140625h-8.59375zm0 0" fill="none" stroke="#000" stroke-linejoin="round" stroke-miterlimit="10" stroke-width="6.6484" transform="matrix(.06 0 0 -.06 0 810.32)"/><path d="m213.3125 196.808594h.515625v-32.648438h-.515625zm0 0"/><use x="192.586385" xlink:href="#Q" y="276.976933"/><use x="207.552911" xlink:href="#S" y="276.976933"/><use x="197.092484" xlink:href="#as" y="246.292072"/><use x="199.717259" xlink:href="#L" y="199.164278"/><path d="m2496.158854 10407.807292h8.59375v466.601562h-8.59375zm0 0" fill="none" stroke="#000" stroke-linejoin="round" stroke-miterlimit="10" stroke-width="6.6484" transform="matrix(.06 0 0 -.06 0 810.32)"/><path d="m149.769531 185.851562h.515625v-27.996093h-.515625zm0 0"/><use x="114.076228" xlink:href="#Z" y="276.976933"/><use x="129.042754" xlink:href="#ak" y="276.976933"/><use x="144.009279" xlink:href="#V" y="276.976933"/><use x="158.976039" xlink:href="#W" y="276.976933"/><use x="120.879442" xlink:href="#ab" y="246.292072"/><use x="135.845967" xlink:href="#Y" y="246.292072"/><use x="150.812727" xlink:href="#Z" y="246.292072"/><use x="136.174772" xlink:href="#L" y="188.205356"/><g clip-path="url(#m)"><path d="m5.859375 7786.388021h9909.570312" style="fill:none;stroke-width:11.726;stroke-linecap:round;stroke-linejoin:round;stroke:#000;stroke-miterlimit:10" transform="matrix(.06 0 0 -.06 0 810.32)"/></g><g clip-path="url(#n)"><path d="m5.859375 7969.005208h9909.570312" style="fill:none;stroke-width:11.726;stroke-linecap:round;stroke-linejoin:round;stroke:#000;stroke-miterlimit:10" transform="matrix(.06 0 0 -.06 0 810.32)"/></g><g clip-path="url(#o)"><path d="m5.859375 8151.6875h9909.570312" style="fill:none;stroke-width:11.726;stroke-linecap:round;stroke-linejoin:round;stroke:#000;stroke-miterlimit:10" transform="matrix(.06 0 0 -.06 0 810.32)"/></g><g clip-path="url(#p)"><path d="m5.859375 8334.304687h9909.570312" style="fill:none;stroke-width:11.726;stroke-linecap:round;stroke-linejoin:round;stroke:#000;stroke-miterlimit:10" transform="matrix(.06 0 0 -.06 0 810.32)"/></g><g clip-path="url(#q)"><path d="m5.859375 8516.986979h9909.570312" style="fill:none;stroke-width:11.726;stroke-linecap:round;stroke-linejoin:round;stroke:#000;stroke-miterlimit:10" transform="matrix(.06 0 0 -.06 0 810.32)"/></g><path d="m7022.395833 7786.388021v730.598958" fill="none" stroke="#000" stroke-linejoin="round" stroke-miterlimit="10" stroke-width="22.2648" transform="matrix(.06 0 0 -.06 0 810.32)"/><g clip-path="url(#r)"><path d="m9910.15625 7786.388021v730.598958" fill="none" stroke="#000" stroke-linejoin="round" stroke-miterlimit="10" stroke-width="22.2648" transform="matrix(.06 0 0 -.06 0 810.32)"/></g><path d="m7400.325521 8021.348958h8.59375v583.59375h-8.59375zm0 0" fill="none" stroke="#000" stroke-linejoin="round" stroke-miterlimit="10" stroke-width="6.6484" transform="matrix(.06 0 0 -.06 0 810.32)"/><path d="m444.019531 329.039062h.515625v-35.015624h-.515625zm0 0"/><use x="422.929846" xlink:href="#S" y="381.493142"/><use x="436.536541" xlink:href="#Q" y="381.493142"/><use x="429.698139" xlink:href="#K" y="332.177944"/><path d="m5976.106771 8099.604167h8.59375v596.679687h-8.59375zm0 0" fill="none" stroke="#000" stroke-linejoin="round" stroke-miterlimit="10" stroke-width="6.6484" transform="matrix(.06 0 0 -.06 0 810.32)"/><path d="m358.566406 324.34375h.515625v-35.800781h-.515625zm0 0"/><use x="338.095676" xlink:href="#at" y="381.493142"/><use x="345.238757" xlink:href="#Y" y="381.493142"/><use x="360.205282" xlink:href="#ai" y="381.493142"/><use x="344.97249" xlink:href="#L" y="326.698533"/><path d="m1809.700521 7270.502604h111.197916v5.859375h-111.197916zm0 0" fill="none" stroke="#000" stroke-linejoin="round" stroke-miterlimit="10" stroke-width="9.36986" transform="matrix(.06 0 0 -.06 0 810.32)"/><path d="m108.582031 374.089844h6.671875v-.351563h-6.671875zm0 0"/><path d="m2917.513021 7270.502604h111.197916v5.859375h-111.197916zm0 0" fill="none" stroke="#000" stroke-linejoin="round" stroke-miterlimit="10" stroke-width="9.36986" transform="matrix(.06 0 0 -.06 0 810.32)"/><path d="m175.050781 374.089844h6.667969v-.351563h-6.667969zm0 0"/><path d="m4009.765625 7270.502604h111.197917v5.859375h-111.197917zm0 0" fill="none" stroke="#000" stroke-linejoin="round" stroke-miterlimit="10" stroke-width="9.36986" transform="matrix(.06 0 0 -.06 0 810.32)"/><path d="m240.585938 374.089844h6.671874v-.351563h-6.671874zm0 0"/><path d="m2294.335937 7682.221354v-81.054687l1129.947917-37.95573v80.989584zm0 0" fill="none" stroke="#000" stroke-linejoin="round" stroke-miterlimit="10" stroke-width="6.6484" transform="matrix(.06 0 0 -.06 0 810.32)"/><path d="m137.660156 349.386719v4.863281l67.796875 2.277344v-4.859375zm0 0"/><path d="m6520.117187 7270.502604h111.197917v5.859375h-111.197917zm0 0" fill="none" stroke="#000" stroke-linejoin="round" stroke-miterlimit="10" stroke-width="9.36986" transform="matrix(.06 0 0 -.06 0 810.32)"/><path d="m391.207031 374.089844h6.671875v-.351563h-6.671875zm0 0"/><path d="m7809.179687 7270.502604h111.197917v5.859375h-111.197917zm0 0" fill="none" stroke="#000" stroke-linejoin="round" stroke-miterlimit="10" stroke-width="9.36986" transform="matrix(.06 0 0 -.06 0 810.32)"/><path d="m468.550781 374.089844h6.671875v-.351563h-6.671875zm0 0"/><path d="m8754.427083 8112.690104h8.59375v583.59375h-8.59375zm0 0" fill="none" stroke="#000" stroke-linejoin="round" stroke-miterlimit="10" stroke-width="6.6484" transform="matrix(.06 0 0 -.06 0 810.32)"/><path d="m525.265625 323.558594h.515625v-35.015625h-.515625zm0 0"/><use x="492.272985" xlink:href="#ab" y="381.493142"/><use x="507.239539" xlink:href="#Y" y="381.493142"/><use x="522.206094" xlink:href="#Z" y="381.493142"/><use x="537.172883" xlink:href="#X" y="381.493142"/><use x="510.946822" xlink:href="#K" y="326.698533"/><use x="47.245894" xlink:href="#au" y="381.493142"/><use x="64.254074" xlink:href="#Q" y="381.493142"/><use x="79.220841" xlink:href="#ab" y="381.493142"/><use x="63.561427" xlink:href="#L" y="310.2601"/><use x="8.766818" xlink:href="#M" y="332.177944"/><path d="m1062.695312 7698.367187h8.59375v596.679688h-8.59375zm0 0" fill="none" stroke="#000" stroke-linejoin="round" stroke-miterlimit="10" stroke-width="6.6484" transform="matrix(.06 0 0 -.06 0 810.32)"/><path d="m63.761719 348.417969h.515625v-35.800781h-.515625zm0 0"/><use x="204.742409" xlink:href="#L" y="321.219022"/><path d="m4536.979167 7607.026042h8.59375v596.744791h-8.59375zm0 0" fill="none" stroke="#000" stroke-linejoin="round" stroke-miterlimit="10" stroke-width="6.6484" transform="matrix(.06 0 0 -.06 0 810.32)"/><path d="m272.21875 353.898438h.515625v-35.800782h-.515625zm0 0"/><use x="261.233522" xlink:href="#ai" y="381.493142"/><use x="267.186197" xlink:href="#Y" y="381.493142"/><use x="282.152957" xlink:href="#V" y="381.493142"/><use x="272.021344" xlink:href="#L" y="315.739611"/><path d="m3415.690104 7607.286458h8.59375v505.143229h-8.59375zm0 0" fill="none" stroke="#000" stroke-linejoin="round" stroke-miterlimit="10" stroke-width="6.6484" transform="matrix(.06 0 0 -.06 0 810.32)"/><path d="m204.941406 353.882812h.515625v-30.308593h-.515625zm0 0"/><use x="197.185394" xlink:href="#ah" y="381.493142"/><use x="204.328462" xlink:href="#Y" y="381.493142"/><use x="219.125299" xlink:href="#ah" y="381.493142"/><path d="m2294.335937 7644.786458h8.59375v558.984375h-8.59375zm0 0" fill="none" stroke="#000" stroke-linejoin="round" stroke-miterlimit="10" stroke-width="6.6484" transform="matrix(.06 0 0 -.06 0 810.32)"/><path d="m137.660156 351.632812h.515625v-33.535156h-.515625zm0 0"/><use x="129.650259" xlink:href="#av" y="381.493142"/><use x="144.616785" xlink:href="#Y" y="381.493142"/><use x="137.461755" xlink:href="#L" y="315.739611"/><g clip-path="url(#s)"><path d="m5.859375 5594.591146h9909.570312" style="fill:none;stroke-width:11.726;stroke-linecap:round;stroke-linejoin:round;stroke:#000;stroke-miterlimit:10" transform="matrix(.06 0 0 -.06 0 810.32)"/></g><g clip-path="url(#t)"><path d="m5.859375 5777.208333h9909.570312" style="fill:none;stroke-width:11.726;stroke-linecap:round;stroke-linejoin:round;stroke:#000;stroke-miterlimit:10" transform="matrix(.06 0 0 -.06 0 810.32)"/></g><g clip-path="url(#u)"><path d="m5.859375 5959.890625h9909.570312" style="fill:none;stroke-width:11.726;stroke-linecap:round;stroke-linejoin:round;stroke:#000;stroke-miterlimit:10" transform="matrix(.06 0 0 -.06 0 810.32)"/></g><g clip-path="url(#v)"><path d="m5.859375 6142.507812h9909.570312" style="fill:none;stroke-width:11.726;stroke-linecap:round;stroke-linejoin:round;stroke:#000;stroke-miterlimit:10" transform="matrix(.06 0 0 -.06 0 810.32)"/></g><g clip-path="url(#w)"><path d="m5.859375 6325.190104h9909.570312" style="fill:none;stroke-width:11.726;stroke-linecap:round;stroke-linejoin:round;stroke:#000;stroke-miterlimit:10" transform="matrix(.06 0 0 -.06 0 810.32)"/></g><path d="m7003.059896 5594.591146v730.598958" fill="none" stroke="#000" stroke-linejoin="round" stroke-miterlimit="10" stroke-width="22.2648" transform="matrix(.06 0 0 -.06 0 810.32)"/><g clip-path="url(#x)"><path d="m9910.15625 5594.591146v730.598958" fill="none" stroke="#000" stroke-linejoin="round" stroke-miterlimit="10" stroke-width="22.2648" transform="matrix(.06 0 0 -.06 0 810.32)"/></g><path d="m7381.119792 5646.934896h8.59375v583.59375h-8.59375zm0 0" fill="none" stroke="#000" stroke-linejoin="round" stroke-miterlimit="10" stroke-width="6.6484" transform="matrix(.06 0 0 -.06 0 810.32)"/><path d="m442.867188 471.503906h.511718v-35.015625h-.511718zm0 0"/><use x="421.775844" xlink:href="#S" y="513.000405"/><use x="435.382304" xlink:href="#Q" y="513.000405"/><use x="428.545077" xlink:href="#K" y="474.644129"/><path d="m5940.950521 5725.190104h8.59375v596.679688h-8.59375zm0 0" fill="none" stroke="#000" stroke-linejoin="round" stroke-miterlimit="10" stroke-width="6.6484" transform="matrix(.06 0 0 -.06 0 810.32)"/><path d="m356.457031 466.808594h.515625v-35.800782h-.515625zm0 0"/><use x="328.928658" xlink:href="#R" y="513.000405"/><use x="342.535353" xlink:href="#S" y="513.000405"/><use x="356.141813" xlink:href="#ad" y="513.000405"/><use x="342.862986" xlink:href="#L" y="469.164718"/><path d="m1766.341146 5078.705729h111.197916v5.859375h-111.197916zm0 0" fill="none" stroke="#000" stroke-linejoin="round" stroke-miterlimit="10" stroke-width="9.36986" transform="matrix(.06 0 0 -.06 0 810.32)"/><path d="m105.980469 505.597656h6.671875v-.351562h-6.671875zm0 0"/><path d="m2804.361979 5078.705729h111.132813v5.859375h-111.132813zm0 0" fill="none" stroke="#000" stroke-linejoin="round" stroke-miterlimit="10" stroke-width="9.36986" transform="matrix(.06 0 0 -.06 0 810.32)"/><path d="m168.261719 505.597656h6.667969v-.351562h-6.667969zm0 0"/><path d="m5095.052083 5078.705729h111.197917v5.859375h-111.197917zm0 0" fill="none" stroke="#000" stroke-linejoin="round" stroke-miterlimit="10" stroke-width="9.36986" transform="matrix(.06 0 0 -.06 0 810.32)"/><path d="m305.703125 505.597656h6.671875v-.351562h-6.671875zm0 0"/><path d="m2504.622396 6403.640625v-80.989583l1132.356771-37.95573v80.989584zm0 0" fill="none" stroke="#000" stroke-linejoin="round" stroke-miterlimit="10" stroke-width="6.6484" transform="matrix(.06 0 0 -.06 0 810.32)"/><path d="m150.277344 426.101562v4.859376l67.941406 2.277343v-4.859375zm0 0"/><path d="m6551.757812 5078.705729h111.197917v5.859375h-111.197917zm0 0" fill="none" stroke="#000" stroke-linejoin="round" stroke-miterlimit="10" stroke-width="9.36986" transform="matrix(.06 0 0 -.06 0 810.32)"/><path d="m393.105469 505.597656h6.671875v-.351562h-6.671875zm0 0"/><path d="m7822.721354 5078.705729h111.132813v5.859375h-111.132813zm0 0" fill="none" stroke="#000" stroke-linejoin="round" stroke-miterlimit="10" stroke-width="9.36986" transform="matrix(.06 0 0 -.06 0 810.32)"/><path d="m469.363281 505.597656h6.667969v-.351562h-6.667969zm0 0"/><path d="m8738.346354 5738.276042h8.528646v583.59375h-8.528646zm0 0" fill="none" stroke="#000" stroke-linejoin="round" stroke-miterlimit="10" stroke-width="6.6484" transform="matrix(.06 0 0 -.06 0 810.32)"/><path d="m524.300781 466.023438h.511719v-35.015626h-.511719zm0 0"/><use x="495.04499" xlink:href="#ab" y="513.000405"/><use x="510.011779" xlink:href="#Y" y="513.000405"/><use x="524.978334" xlink:href="#Z" y="513.000405"/><use x="509.97772" xlink:href="#K" y="469.164718"/><use x="52.348805" xlink:href="#ac" y="513.000405"/><use x="68.165649" xlink:href="#Y" y="513.000405"/><use x="83.132416" xlink:href="#ai" y="513.000405"/><use x="63.561827" xlink:href="#L" y="447.246874"/><use x="8.767218" xlink:href="#M" y="463.685307"/><path d="m1062.695312 5415.294271h8.59375v596.679687h-8.59375zm0 0" fill="none" stroke="#000" stroke-linejoin="round" stroke-miterlimit="10" stroke-width="6.6484" transform="matrix(.06 0 0 -.06 0 810.32)"/><path d="m63.761719 485.40625h.515625v-35.804688h-.515625zm0 0"/><use x="204.107408" xlink:href="#L" y="463.685307"/><path d="m4752.148437 5907.807292h8.59375v596.679687h-8.59375zm0 0" fill="none" stroke="#000" stroke-linejoin="round" stroke-miterlimit="10" stroke-width="6.6484" transform="matrix(.06 0 0 -.06 0 810.32)"/><path d="m285.128906 455.851562h.515625v-35.800781h-.515625zm0 0"/><use x="268.230536" xlink:href="#Z" y="513.000405"/><use x="283.197062" xlink:href="#ae" y="513.000405"/><use x="271.535703" xlink:href="#L" y="458.205796"/><path d="m3628.385417 5816.466146h8.59375v505.664062h-8.59375zm0 0" fill="none" stroke="#000" stroke-linejoin="round" stroke-miterlimit="10" stroke-width="6.6484" transform="matrix(.06 0 0 -.06 0 810.32)"/><path d="m217.703125 461.332031h.515625v-30.339843h-.515625zm0 0"/><use x="185.07137" xlink:href="#ab" y="513.000405"/><use x="200.037896" xlink:href="#Y" y="513.000405"/><use x="215.004655" xlink:href="#Z" y="513.000405"/><use x="229.971181" xlink:href="#X" y="513.000405"/><path d="m2504.622396 5907.807292h8.528646v451.757812h-8.528646zm0 0" fill="none" stroke="#000" stroke-linejoin="round" stroke-miterlimit="10" stroke-width="6.6484" transform="matrix(.06 0 0 -.06 0 810.32)"/><path d="m150.273438 455.851562h.515624v-27.105468h-.515624zm0 0"/><use x="129.548259" xlink:href="#S" y="513.000405"/><use x="143.154939" xlink:href="#Q" y="513.000405"/><use x="136.679363" xlink:href="#L" y="458.205796"/><g clip-path="url(#y)"><path d="m5.859375 3402.794271h9909.570312" style="fill:none;stroke-width:11.726;stroke-linecap:round;stroke-linejoin:round;stroke:#000;stroke-miterlimit:10" transform="matrix(.06 0 0 -.06 0 810.32)"/></g><g clip-path="url(#z)"><path d="m5.859375 3585.476562h9909.570312" style="fill:none;stroke-width:11.726;stroke-linecap:round;stroke-linejoin:round;stroke:#000;stroke-miterlimit:10" transform="matrix(.06 0 0 -.06 0 810.32)"/></g><g clip-path="url(#A)"><path d="m5.859375 3768.09375h9909.570312" style="fill:none;stroke-width:11.726;stroke-linecap:round;stroke-linejoin:round;stroke:#000;stroke-miterlimit:10" transform="matrix(.06 0 0 -.06 0 810.32)"/></g><g clip-path="url(#B)"><path d="m5.859375 3950.776042h9909.570312" style="fill:none;stroke-width:11.726;stroke-linecap:round;stroke-linejoin:round;stroke:#000;stroke-miterlimit:10" transform="matrix(.06 0 0 -.06 0 810.32)"/></g><g clip-path="url(#C)"><path d="m5.859375 4133.393229h9909.570312" style="fill:none;stroke-width:11.726;stroke-linecap:round;stroke-linejoin:round;stroke:#000;stroke-miterlimit:10" transform="matrix(.06 0 0 -.06 0 810.32)"/></g><g clip-path="url(#D)"><path d="m9910.15625 3402.794271v730.598958" fill="none" stroke="#000" stroke-linejoin="round" stroke-miterlimit="10" stroke-width="22.2648" transform="matrix(.06 0 0 -.06 0 810.32)"/></g><path d="m6406.119792 3402.794271v730.598958" fill="none" stroke="#000" stroke-linejoin="round" stroke-miterlimit="10" stroke-width="22.2648" transform="matrix(.06 0 0 -.06 0 810.32)"/><path d="m7630.859375 3162.559896h8.59375v566.276041h-8.59375zm0 0" fill="none" stroke="#000" stroke-linejoin="round" stroke-miterlimit="10" stroke-width="6.6484" transform="matrix(.06 0 0 -.06 0 810.32)"/><path d="m457.851562 620.566406h.515626v-33.976562h-.515626zm0 0"/><use x="298.610597" xlink:href="#V" y="644.507668"/><use x="313.577123" xlink:href="#Y" y="644.507668"/><use x="328.543883" xlink:href="#P" y="644.507668"/><use x="446.099265" xlink:href="#av" y="644.507668"/><use x="461.066024" xlink:href="#ag" y="644.507668"/><use x="476.03255" xlink:href="#ah" y="644.507668"/><use x="457.652915" xlink:href="#L" y="584.233548"/><path d="m6561.458333 3223.497396h8.59375v596.679687h-8.59375zm0 0" fill="none" stroke="#000" stroke-linejoin="round" stroke-miterlimit="10" stroke-width="6.6484" transform="matrix(.06 0 0 -.06 0 810.32)"/><path d="m393.6875 616.910156h.515625v-35.800781h-.515625zm0 0"/><use x="382.019764" xlink:href="#at" y="644.507668"/><use x="389.332767" xlink:href="#aw" y="644.507668"/><use x="404.299293" xlink:href="#ab" y="644.507668"/><use x="393.488187" xlink:href="#L" y="578.754137"/><path d="m5522.135417 3716.010417h8.59375v596.744791h-8.59375zm0 0" fill="none" stroke="#000" stroke-linejoin="round" stroke-miterlimit="10" stroke-width="6.6484" transform="matrix(.06 0 0 -.06 0 810.32)"/><path d="m331.328125 587.359375h.515625v-35.800781h-.515625zm0 0"/><path d="m1560.677083 2886.973958h111.132813v5.859375h-111.132813zm0 0" fill="none" stroke="#000" stroke-linejoin="round" stroke-miterlimit="10" stroke-width="9.36986" transform="matrix(.06 0 0 -.06 0 810.32)"/><path d="m93.640625 637.101562h6.667969v-.351562h-6.667969zm0 0"/><path d="m3772.721354 2886.973958h111.197917v5.859375h-111.197917zm0 0" fill="none" stroke="#000" stroke-linejoin="round" stroke-miterlimit="10" stroke-width="9.36986" transform="matrix(.06 0 0 -.06 0 810.32)"/><path d="m226.363281 637.101562h6.671875v-.351562h-6.671875zm0 0"/><path d="m2355.403646 3872.260417h1083.203125v81.054687h-1083.203125zm0 0" fill="none" stroke="#000" stroke-linejoin="round" stroke-miterlimit="10" stroke-width="6.6484" transform="matrix(.06 0 0 -.06 0 810.32)"/><path d="m141.324219 577.984375h64.992187v-4.863281h-64.992187zm0 0"/><path d="m7155.794271 2886.973958h111.197916v5.859375h-111.197916zm0 0" fill="none" stroke="#000" stroke-linejoin="round" stroke-miterlimit="10" stroke-width="9.36986" transform="matrix(.06 0 0 -.06 0 810.32)"/><path d="m429.347656 637.101562h6.671875v-.351562h-6.671875zm0 0"/><path d="m8266.080729 2886.973958h111.132813v5.859375h-111.132813zm0 0" fill="none" stroke="#000" stroke-linejoin="round" stroke-miterlimit="10" stroke-width="9.36986" transform="matrix(.06 0 0 -.06 0 810.32)"/><path d="m495.960938 637.101562h6.671874v-.351562h-6.671874zm0 0"/><path d="m8934.765625 3729.161458h8.528646v583.59375h-8.528646zm0 0" fill="none" stroke="#000" stroke-linejoin="round" stroke-miterlimit="10" stroke-width="6.6484" transform="matrix(.06 0 0 -.06 0 810.32)"/><path d="m536.085938 586.570312h.511718v-35.015624h-.511718zm0 0"/><use x="515.08003" xlink:href="#ax" y="644.507668"/><use x="521.032939" xlink:href="#ag" y="644.507668"/><use x="535.999729" xlink:href="#X" y="644.507668"/><use x="521.763954" xlink:href="#K" y="589.713059"/><use x="8.766928" xlink:href="#M" y="595.19252"/><use x="317.733545" xlink:href="#L" y="589.713059"/><path d="m1285.9375 3350.710937h8.59375v596.744792h-8.59375zm0 0" fill="none" stroke="#000" stroke-linejoin="round" stroke-miterlimit="10" stroke-width="6.6484" transform="matrix(.06 0 0 -.06 0 810.32)"/><path d="m77.15625 609.277344h.515625v-35.800782h-.515625zm0 0"/><use x="54.219208" xlink:href="#ay" y="644.507668"/><use x="72.24786" xlink:href="#V" y="644.507668"/><use x="63.561647" xlink:href="#L" y="611.630903"/><use x="127.725989" xlink:href="#L" y="611.630903"/><path d="m4452.734375 3716.010417h8.59375v596.744791h-8.59375zm0 0" fill="none" stroke="#000" stroke-linejoin="round" stroke-miterlimit="10" stroke-width="6.6484" transform="matrix(.06 0 0 -.06 0 810.32)"/><path d="m267.164062 587.359375h.515626v-35.800781h-.515626zm0 0"/><use x="241.249482" xlink:href="#az" y="644.507668"/><use x="256.216242" xlink:href="#Y" y="644.507668"/><use x="271.182768" xlink:href="#T" y="644.507668"/><use x="253.568507" xlink:href="#L" y="589.713059"/><path d="m3429.947917 3350.710937h8.59375v558.723959h-8.59375zm0 0" fill="none" stroke="#000" stroke-linejoin="round" stroke-miterlimit="10" stroke-width="6.6484" transform="matrix(.06 0 0 -.06 0 810.32)"/><path d="m205.796875 609.277344h.515625v-33.523438h-.515625zm0 0"/><use x="180.564361" xlink:href="#Y" y="644.507668"/><use x="195.530887" xlink:href="#P" y="644.507668"/><use x="192.202784" xlink:href="#L" y="611.630903"/><use x="106.733113" xlink:href="#ab" y="644.507668"/><use x="121.699646" xlink:href="#aj" y="644.507668"/><use x="134.625699" xlink:href="#ag" y="644.507668"/><use x="149.592459" xlink:href="#ai" y="644.507668"/><use x="155.545134" xlink:href="#X" y="644.507668"/><path d="m2355.403646 3350.710937h8.59375v558.723959h-8.59375zm0 0" fill="none" stroke="#000" stroke-linejoin="round" stroke-miterlimit="10" stroke-width="6.6484" transform="matrix(.06 0 0 -.06 0 810.32)"/><path d="m141.324219 609.277344h.511719v-33.523438h-.511719zm0 0"/><g clip-path="url(#E)"><path d="m5.859375 1211.0625h9909.570312" style="fill:none;stroke-width:11.726;stroke-linecap:round;stroke-linejoin:round;stroke:#000;stroke-miterlimit:10" transform="matrix(.06 0 0 -.06 0 810.32)"/></g><g clip-path="url(#F)"><path d="m5.859375 1393.679687h9909.570312" style="fill:none;stroke-width:11.726;stroke-linecap:round;stroke-linejoin:round;stroke:#000;stroke-miterlimit:10" transform="matrix(.06 0 0 -.06 0 810.32)"/></g><g clip-path="url(#G)"><path d="m5.859375 1576.296875h9909.570312" style="fill:none;stroke-width:11.726;stroke-linecap:round;stroke-linejoin:round;stroke:#000;stroke-miterlimit:10" transform="matrix(.06 0 0 -.06 0 810.32)"/></g><g clip-path="url(#H)"><path d="m5.859375 1758.979167h9909.570312" style="fill:none;stroke-width:11.726;stroke-linecap:round;stroke-linejoin:round;stroke:#000;stroke-miterlimit:10" transform="matrix(.06 0 0 -.06 0 810.32)"/></g><g clip-path="url(#I)"><path d="m5.859375 1941.596354h9909.570312" style="fill:none;stroke-width:11.726;stroke-linecap:round;stroke-linejoin:round;stroke:#000;stroke-miterlimit:10" transform="matrix(.06 0 0 -.06 0 810.32)"/></g><g clip-path="url(#J)"><path d="m9886.132812 1211.0625v730.533854" fill="none" stroke="#000" stroke-linejoin="round" stroke-miterlimit="10" stroke-width="70.3014" transform="matrix(.06 0 0 -.06 0 810.32)"/></g><g fill="none" stroke="#000" stroke-linejoin="round" stroke-miterlimit="10" transform="matrix(.06 0 0 -.06 0 810.32)"><path d="m9804.6875 1211.0625v730.533854" stroke-width="22.2648"/><path d="m6343.945312 1211.0625v730.533854" stroke-width="22.2648"/><path d="m7761.523437 1250.255208h8.59375v596.744792h-8.59375zm0 0" stroke-width="6.6484"/></g><path d="m465.691406 735.304688h.511719v-35.804688h-.511719zm0 0"/><use x="440.540881" xlink:href="#av" y="776.123932"/><use x="455.507641" xlink:href="#ag" y="776.123932"/><use x="470.474166" xlink:href="#ah" y="776.123932"/><use x="452.094904" xlink:href="#L" y="737.658255"/><path d="m5464.648437 1432.9375h8.59375v596.679687h-8.59375zm0 0" fill="none" stroke="#000" stroke-linejoin="round" stroke-miterlimit="10" stroke-width="6.6484" transform="matrix(.06 0 0 -.06 0 810.32)"/><path d="m327.878906 724.34375h.515625v-35.800781h-.515625zm0 0"/><path d="m1708.789062 693.354167h111.197917v5.859375h-111.197917zm0 0" fill="none" stroke="#000" stroke-linejoin="round" stroke-miterlimit="10" stroke-width="9.36986" transform="matrix(.06 0 0 -.06 0 810.32)"/><path d="m102.527344 768.71875h6.671875v-.351562h-6.671875zm0 0"/><path d="m6703.320312 1341.596354h8.59375v596.679688h-8.59375zm0 0" fill="none" stroke="#000" stroke-linejoin="round" stroke-miterlimit="10" stroke-width="6.6484" transform="matrix(.06 0 0 -.06 0 810.32)"/><path d="m402.199219 729.824219h.515625v-35.800781h-.515625zm0 0"/><use x="377.816756" xlink:href="#Z" y="776.123932"/><use x="392.783515" xlink:href="#am" y="776.123932"/><use x="407.750041" xlink:href="#ai" y="776.123932"/><use x="388.605977" xlink:href="#L" y="732.178744"/><path d="m2645.638021 693.354167h111.132812v5.859375h-111.132812zm0 0" fill="none" stroke="#000" stroke-linejoin="round" stroke-miterlimit="10" stroke-width="9.36986" transform="matrix(.06 0 0 -.06 0 810.32)"/><path d="m158.738281 768.71875h6.667969v-.351562h-6.667969zm0 0"/><path d="m2344.140625 1944.135417v-80.989584l975.651042 37.955729v81.054688zm0 0" fill="none" stroke="#000" stroke-linejoin="round" stroke-miterlimit="10" stroke-width="6.6484" transform="matrix(.06 0 0 -.06 0 810.32)"/><path d="m140.648438 693.671875v4.859375l58.539062-2.277344v-4.863281zm0 0"/><path d="m5947.265625 693.354167h111.197917v5.859375h-111.197917zm0 0" fill="none" stroke="#000" stroke-linejoin="round" stroke-miterlimit="10" stroke-width="9.36986" transform="matrix(.06 0 0 -.06 0 810.32)"/><path d="m356.835938 768.71875h6.671874v-.351562h-6.671874zm0 0"/><path d="m7063.151042 693.354167h111.132812v5.859375h-111.132812zm0 0" fill="none" stroke="#000" stroke-linejoin="round" stroke-miterlimit="10" stroke-width="9.36986" transform="matrix(.06 0 0 -.06 0 810.32)"/><path d="m423.789062 768.71875h6.667969v-.351562h-6.667969zm0 0"/><path d="m8168.229167 693.354167h111.197916v5.859375h-111.197916zm0 0" fill="none" stroke="#000" stroke-linejoin="round" stroke-miterlimit="10" stroke-width="9.36986" transform="matrix(.06 0 0 -.06 0 810.32)"/><path d="m490.09375 768.71875h6.671875v-.351562h-6.671875zm0 0"/><path d="m8831.770833 1172.065104h8.59375v583.59375h-8.59375zm0 0" fill="none" stroke="#000" stroke-linejoin="round" stroke-miterlimit="10" stroke-width="6.6484" transform="matrix(.06 0 0 -.06 0 810.32)"/><path d="m529.90625 739.996094h.515625v-35.015625h-.515625zm0 0"/><use x="508.902018" xlink:href="#ax" y="776.123932"/><use x="514.854927" xlink:href="#ag" y="776.123932"/><use x="529.821482" xlink:href="#aA" y="776.123932"/><use x="523.102546" xlink:href="#O" y="690.577561"/><use x="515.584721" xlink:href="#K" y="743.137666"/><use x="127.050944" xlink:href="#L" y="732.178744"/><use x="300.350291" xlink:href="#R" y="776.123932"/><use x="313.956751" xlink:href="#S" y="776.123932"/><use x="327.563446" xlink:href="#ak" y="776.123932"/><path d="m1285.9375 1341.596354h8.59375v596.679688h-8.59375zm0 0" fill="none" stroke="#000" stroke-linejoin="round" stroke-miterlimit="10" stroke-width="6.6484" transform="matrix(.06 0 0 -.06 0 810.32)"/><path d="m77.15625 729.824219h.515625v-35.800781h-.515625zm0 0"/><use x="48.946998" xlink:href="#aB" y="776.123932"/><use x="71.5673" xlink:href="#ae" y="776.123932"/><use x="77.520209" xlink:href="#V" y="776.123932"/><use x="63.561727" xlink:href="#L" y="732.178744"/><use x="8.767118" xlink:href="#M" y="726.699283"/><use x="314.284068" xlink:href="#L" y="726.699283"/><path d="m4356.054687 1524.278646h8.59375v596.679687h-8.59375zm0 0" fill="none" stroke="#000" stroke-linejoin="round" stroke-miterlimit="10" stroke-width="6.6484" transform="matrix(.06 0 0 -.06 0 810.32)"/><path d="m261.363281 718.863281h.515625v-35.800781h-.515625zm0 0"/><use x="227.029454" xlink:href="#R" y="776.123932"/><use x="240.636134" xlink:href="#S" y="776.123932"/><use x="254.242829" xlink:href="#ag" y="776.123932"/><use x="269.209355" xlink:href="#W" y="776.123932"/><use x="247.766996" xlink:href="#L" y="721.219822"/><use x="119.239738" xlink:href="#Z" y="776.123932"/><use x="134.206264" xlink:href="#Y" y="776.123932"/><path d="m3311.197917 1432.9375h8.59375v505.078125h-8.59375zm0 0" fill="none" stroke="#000" stroke-linejoin="round" stroke-miterlimit="10" stroke-width="6.6484" transform="matrix(.06 0 0 -.06 0 810.32)"/><path d="m198.671875 724.34375h.515625v-30.304688h-.515625zm0 0"/><use x="185.07637" xlink:href="#L" y="726.699333"/><use x="174.96895" xlink:href="#V" y="776.123932"/><use x="189.93571" xlink:href="#ae" y="776.123932"/><use x="195.888619" xlink:href="#W" y="776.123932"/><path d="m2344.140625 1341.596354h8.528646v559.049479h-8.528646zm0 0" fill="none" stroke="#000" stroke-linejoin="round" stroke-miterlimit="10" stroke-width="6.6484" transform="matrix(.06 0 0 -.06 0 810.32)"/><path d="m140.648438 729.824219h.511718v-33.539063h-.511718zm0 0"/></svg>