<svg height="904.21em" viewBox="0 0 595.28 904.21" width="595.28em" xmlns="http://www.w3.org/2000/svg" xmlns:xlink="http://www.w3.org/1999/xlink"><clipPath id="a"><path d="m0 82h595.28125v2h-595.28125zm0 0"/></clipPath><clipPath id="b"><path d="m0 70h595.28125v1h-595.28125zm0 0"/></clipPath><clipPath id="c"><path d="m0 57h595.28125v2h-595.28125zm0 0"/></clipPath><clipPath id="d"><path d="m0 45h595.28125v2h-595.28125zm0 0"/></clipPath><clipPath id="e"><path d="m0 33h595.28125v2h-595.28125zm0 0"/></clipPath><clipPath id="f"><path d="m0 228h595.28125v2h-595.28125zm0 0"/></clipPath><clipPath id="g"><path d="m0 216h595.28125v2h-595.28125zm0 0"/></clipPath><clipPath id="h"><path d="m0 204h595.28125v2h-595.28125zm0 0"/></clipPath><clipPath id="i"><path d="m0 192h595.28125v1h-595.28125zm0 0"/></clipPath><clipPath id="j"><path d="m0 180h595.28125v1h-595.28125zm0 0"/></clipPath><clipPath id="k"><path d="m0 375h595.28125v2h-595.28125zm0 0"/></clipPath><clipPath id="l"><path d="m0 363h595.28125v1h-595.28125zm0 0"/></clipPath><clipPath id="m"><path d="m0 350h595.28125v2h-595.28125zm0 0"/></clipPath><clipPath id="n"><path d="m0 338h595.28125v2h-595.28125zm0 0"/></clipPath><clipPath id="o"><path d="m0 326h595.28125v2h-595.28125zm0 0"/></clipPath><clipPath id="p"><path d="m0 521h595.28125v2h-595.28125zm0 0"/></clipPath><clipPath id="q"><path d="m0 509h595.28125v2h-595.28125zm0 0"/></clipPath><clipPath id="r"><path d="m0 497h595.28125v2h-595.28125zm0 0"/></clipPath><clipPath id="s"><path d="m0 485h595.28125v1h-595.28125zm0 0"/></clipPath><clipPath id="t"><path d="m0 472h595.28125v2h-595.28125zm0 0"/></clipPath><clipPath id="u"><path d="m0 668h595.28125v1h-595.28125zm0 0"/></clipPath><clipPath id="v"><path d="m0 655h595.28125v2h-595.28125zm0 0"/></clipPath><clipPath id="w"><path d="m0 643h595.28125v2h-595.28125zm0 0"/></clipPath><clipPath id="x"><path d="m0 631h595.28125v2h-595.28125zm0 0"/></clipPath><clipPath id="y"><path d="m0 619h595.28125v2h-595.28125zm0 0"/></clipPath><clipPath id="z"><path d="m0 814h595.28125v2h-595.28125zm0 0"/></clipPath><clipPath id="A"><path d="m0 802h595.28125v2h-595.28125zm0 0"/></clipPath><clipPath id="B"><path d="m0 790h595.28125v1h-595.28125zm0 0"/></clipPath><clipPath id="C"><path d="m0 778h595.28125v1h-595.28125zm0 0"/></clipPath><clipPath id="D"><path d="m0 765h595.28125v2h-595.28125zm0 0"/></clipPath><clipPath id="E"><path d="m590 763h5.28125v55h-5.28125zm0 0"/></clipPath><symbol id="F" overflow="visible"><path d="m2.078125-15.796875v15.796875h2.53125v-8.203125c.03125-3.796875 1.59375-5.484375 5.0625-5.390625v-2.5625c-.421875-.0625-.65625-.09375-.96875-.09375-1.625 0-2.859375.96875-4.296875 3.3125v-2.859375zm0 0"/></symbol><symbol id="G" overflow="visible"><path d="m16.125-1.484375c-.265625.0625-.390625.0625-.546875.0625-.875 0-1.359375-.453125-1.359375-1.234375v-9.28125c0-2.796875-2.046875-4.3125-5.9375-4.3125-2.3125 0-4.15625.671875-5.234375 1.84375-.71875.8125-1.03125 1.71875-1.09375 3.28125h2.53125c.21875-1.921875 1.359375-2.796875 3.71875-2.796875 2.28125 0 3.515625.84375 3.515625 2.34375v.671875c-.03125 1.078125-.5625 1.46875-2.609375 1.75-3.5625.453125-4.109375.5625-5.078125.953125-1.828125.78125-2.765625 2.171875-2.765625 4.21875 0 2.875 1.984375 4.671875 5.1875 4.671875 1.984375 0 3.578125-.6875 5.359375-2.3125.1875 1.625.96875 2.3125 2.59375 2.3125.546875 0 .875-.046875 1.71875-.265625zm-4.40625-3.484375c0 .84375-.234375 1.359375-.984375 2.046875-1.03125.9375-2.265625 1.421875-3.734375 1.421875-1.96875 0-3.109375-.9375-3.109375-2.53125 0-1.671875 1.078125-2.515625 3.796875-2.90625 2.6875-.359375 3.1875-.484375 4.03125-.875zm-2.5625-17.328125-2.921875 4.453125h1.8125l4.484375-4.453125zm0 0"/></symbol><symbol id="H" overflow="visible"><path d="m4.578125-21.96875h-2.53125v21.96875h2.53125zm0 0"/></symbol><symbol id="I" overflow="visible"><path d="m11.6875-15.796875-4.359375 12.296875-4.046875-12.296875h-2.671875l5.328125 15.859375-.96875 2.5c-.421875 1.109375-.953125 1.53125-2.015625 1.53125-.421875 0-.78125-.0625-1.328125-.171875v2.25c.515625.28125 1.03125.40625 1.6875.40625.8125 0 1.6875-.28125 2.359375-.765625.78125-.5625 1.234375-1.234375 1.71875-2.5l7.015625-19.109375zm0 0"/></symbol><symbol id="J" overflow="visible"><path d="m4.25-21.96875h-2.5v21.96875h2.5v-6.15625l2.4375-2.40625 5.34375 8.5625h3.09375l-6.4375-10.34375 5.484375-5.453125h-3.234375l-6.6875 6.6875zm0 0"/></symbol><symbol id="K" overflow="visible"><path d="m4.515625-15.796875h-2.5v15.796875h2.5zm0-6.171875h-2.53125v3.15625h2.53125zm0 0"/></symbol><symbol id="L" overflow="visible"><path d="m16.125-1.484375c-.265625.0625-.390625.0625-.546875.0625-.875 0-1.359375-.453125-1.359375-1.234375v-9.28125c0-2.796875-2.046875-4.3125-5.9375-4.3125-2.3125 0-4.15625.671875-5.234375 1.84375-.71875.8125-1.03125 1.71875-1.09375 3.28125h2.53125c.21875-1.921875 1.359375-2.796875 3.71875-2.796875 2.28125 0 3.515625.84375 3.515625 2.34375v.671875c-.03125 1.078125-.5625 1.46875-2.609375 1.75-3.5625.453125-4.109375.5625-5.078125.953125-1.828125.78125-2.765625 2.171875-2.765625 4.21875 0 2.875 1.984375 4.671875 5.1875 4.671875 1.984375 0 3.578125-.6875 5.359375-2.3125.1875 1.625.96875 2.3125 2.59375 2.3125.546875 0 .875-.046875 1.71875-.265625zm-4.40625-3.484375c0 .84375-.234375 1.359375-.984375 2.046875-1.03125.9375-2.265625 1.421875-3.734375 1.421875-1.96875 0-3.109375-.9375-3.109375-2.53125 0-1.671875 1.078125-2.515625 3.796875-2.90625 2.6875-.359375 3.1875-.484375 4.03125-.875zm0 0"/></symbol><symbol id="M" overflow="visible"><path d="m2.109375-15.796875v15.796875h2.53125v-9.921875c0-2.28125 1.65625-4.125 3.703125-4.125 1.875 0 2.921875 1.140625 2.921875 3.171875v10.875h2.53125v-9.921875c0-2.28125 1.671875-4.125 3.71875-4.125 1.828125 0 2.921875 1.171875 2.921875 3.171875v10.875h2.53125v-11.84375c0-2.828125-1.625-4.40625-4.578125-4.40625-2.109375 0-3.375.640625-4.859375 2.421875-.9375-1.6875-2.203125-2.421875-4.25-2.421875-2.109375 0-3.53125.78125-4.84375 2.6875v-2.234375zm0 0"/></symbol><symbol id="N" overflow="visible"><path d="m2.625-3.140625v3.140625h1.8125v.546875c0 2.078125-.40625 2.671875-1.8125 2.734375v1.15625c1.984375.046875 3.15625-1.390625 3.15625-3.953125v-3.625zm0 0"/></symbol><symbol id="O" overflow="visible"><path d="m11.71875-22.328125c-6.296875 0-10.578125 4.640625-10.578125 11.5 0 6.90625 4.25 11.515625 10.609375 11.515625 2.6875 0 5.03125-.8125 6.8125-2.3125 2.390625-2.015625 3.796875-5.421875 3.796875-9.015625 0-7.078125-4.1875-11.6875-10.640625-11.6875zm0 2.46875c4.765625 0 7.84375 3.578125 7.84375 9.15625 0 5.3125-3.171875 8.921875-7.8125 8.921875-4.703125 0-7.796875-3.609375-7.796875-9.046875 0-5.421875 3.09375-9.03125 7.765625-9.03125zm-.84375-7.6875h-3.125v3.109375h3.125zm4.890625 0h-3.140625v3.109375h3.140625zm0 0"/></symbol><symbol id="P" overflow="visible"><path d="m14.921875-21.96875h-2.5v8.171875c-1.0625-1.609375-2.75-2.453125-4.859375-2.453125-4.09375 0-6.78125 3.296875-6.78125 8.328125 0 5.328125 2.59375 8.609375 6.875 8.609375 2.171875 0 3.671875-.8125 5.03125-2.765625v2.078125h2.234375zm-6.9375 8.078125c2.71875 0 4.4375 2.375 4.4375 6.171875 0 3.65625-1.75 6.0625-4.40625 6.0625-2.765625 0-4.609375-2.4375-4.609375-6.125 0-3.671875 1.84375-6.109375 4.578125-6.109375zm0 0"/></symbol><symbol id="Q" overflow="visible"><path d="m15.46875-7.046875c0-2.421875-.1875-3.859375-.640625-5.046875-1.03125-2.578125-3.4375-4.15625-6.390625-4.15625-4.40625 0-7.234375 3.34375-7.234375 8.5625s2.71875 8.375 7.171875 8.375c3.625 0 6.125-2.046875 6.75-5.484375h-2.53125c-.6875 2.078125-2.109375 3.171875-4.125 3.171875-1.59375 0-2.953125-.71875-3.796875-2.046875-.609375-.90625-.8125-1.8125-.84375-3.375zm-11.578125-2.0625c.203125-2.921875 1.984375-4.8125 4.515625-4.8125 2.5625 0 4.34375 1.984375 4.34375 4.8125zm0 0"/></symbol><symbol id="R" overflow="visible"><path d="m13.359375-15.796875h-11.796875v2.203125h8.8125l-9.4375 11.328125v2.265625h12.84375v-2.203125h-9.796875l9.375-11.359375zm0 0"/></symbol><symbol id="S" overflow="visible"><path d="m16.640625-21.96875v15.421875c0 2.953125-2.140625 4.765625-5.671875 4.765625-1.625 0-2.953125-.390625-4-1.140625-1.09375-.84375-1.609375-1.953125-1.609375-3.625v-15.421875h-2.796875v15.421875c0 4.46875 3.1875 7.234375 8.40625 7.234375 5.15625 0 8.46875-2.828125 8.46875-7.234375v-15.421875zm0 0"/></symbol><symbol id="T" overflow="visible"><path d="m8.59375 0 6.046875-15.796875h-2.828125l-4.453125 12.8125-4.21875-12.8125h-2.84375l5.546875 15.796875zm0 0"/></symbol><symbol id="U" overflow="visible"><path d="m2.109375-15.796875v15.796875h2.53125v-8.703125c0-3.234375 1.6875-5.34375 4.28125-5.34375 1.984375 0 3.25 1.203125 3.25 3.109375v10.9375h2.5v-11.9375c0-2.625-1.953125-4.3125-5-4.3125-2.34375 0-3.859375.90625-5.234375 3.109375v-2.65625zm0 0"/></symbol><symbol id="V" overflow="visible"><path d="m1.625-21.96875v21.96875h2.265625v-2.015625c1.203125 1.828125 2.796875 2.703125 5 2.703125 4.15625 0 6.875-3.40625 6.875-8.640625 0-5.125-2.5625-8.296875-6.75-8.296875-2.171875 0-3.703125.8125-4.890625 2.59375v-8.3125zm6.90625 8.078125c2.796875 0 4.609375 2.4375 4.609375 6.203125 0 3.59375-1.875 6.03125-4.609375 6.03125-2.6875 0-4.40625-2.40625-4.40625-6.125 0-3.703125 1.71875-6.109375 4.40625-6.109375zm0 0"/></symbol><symbol id="W" overflow="visible"><path d="m2.109375-21.96875v21.96875h2.5v-8.703125c0-3.234375 1.6875-5.34375 4.28125-5.34375.84375 0 1.625.25 2.234375.6875.71875.546875 1.015625 1.296875 1.015625 2.421875v10.9375h2.5v-11.9375c0-2.65625-1.890625-4.3125-4.96875-4.3125-2.234375 0-3.578125.703125-5.0625 2.625v-8.34375zm0 0"/></symbol><symbol id="X" overflow="visible"><path d="m7.65625-15.796875h-2.59375v-4.34375h-2.5v4.34375h-2.140625v2.046875h2.140625v11.9375c0 1.625 1.078125 2.5 3.046875 2.5.65625 0 1.203125-.046875 2.046875-.203125v-2.109375c-.359375.09375-.6875.125-1.203125.125-1.09375 0-1.390625-.3125-1.390625-1.421875v-10.828125h2.59375zm0 0"/></symbol><symbol id="Y" overflow="visible"><path d="m14.28125-6.59375 2.265625 6.59375h3.140625l-7.71875-21.96875h-3.625l-7.828125 21.96875h2.984375l2.3125-6.59375zm-.78125-2.359375h-6.984375l3.609375-10zm0 0"/></symbol><symbol id="Z" overflow="visible"><path d="m12.171875-15.796875v2.296875c-1.265625-1.90625-2.640625-2.75-4.640625-2.75-3.828125 0-6.46875 3.5625-6.46875 8.625 0 2.65625.625 4.578125 1.984375 6.171875 1.171875 1.390625 2.6875 2.140625 4.3125 2.140625 1.890625 0 3.25-.84375 4.578125-2.828125v.8125c0 4.21875-1.171875 5.78125-4.3125 5.78125-2.140625 0-3.25-.84375-3.5-2.640625h-2.5625c.25 2.921875 2.5625 4.765625 6 4.765625 2.328125 0 4.25-.765625 5.28125-2.03125 1.203125-1.46875 1.65625-3.4375 1.65625-7.140625v-13.203125zm-4.390625 1.875c2.640625 0 4.15625 2.234375 4.15625 6.234375 0 3.828125-1.53125 6.0625-4.15625 6.0625-2.59375 0-4.109375-2.265625-4.109375-6.15625 0-3.859375 1.515625-6.140625 4.109375-6.140625zm0 0"/></symbol><symbol id="aa" overflow="visible"><path d="m6.484375-15.796875h-3.140625v3.140625h3.140625zm-3.171875 12.65625v3.140625h1.8125v.546875c0 2.078125-.390625 2.671875-1.8125 2.734375v1.15625c2 .046875 3.171875-1.390625 3.171875-3.953125v-3.625zm0 0"/></symbol><symbol id="ab" overflow="visible"><path d="m5.328125-15.796875h-2.5v15.796875h2.5zm-.46875-6.5-2.90625 4.453125h1.8125l4.5-4.453125zm0 0"/></symbol><symbol id="ac" overflow="visible"><path d="m13.203125-11.390625c-.03125-3.109375-2.078125-4.859375-5.734375-4.859375-3.671875 0-6.046875 1.90625-6.046875 4.828125 0 2.46875 1.265625 3.640625 5 4.546875l2.34375.578125c1.75.421875 2.453125 1.046875 2.453125 2.171875 0 1.5-1.484375 2.5-3.6875 2.5-1.359375 0-2.5-.390625-3.125-1.0625-.390625-.453125-.578125-.90625-.734375-2.015625h-2.640625c.109375 3.640625 2.15625 5.390625 6.296875 5.390625 3.96875 0 6.5-1.953125 6.5-5 0-2.34375-1.3125-3.640625-4.453125-4.390625l-2.40625-.578125c-2.0625-.484375-2.9375-1.140625-2.9375-2.265625 0-1.46875 1.296875-2.375 3.359375-2.375 2.015625 0 3.09375.875 3.15625 2.53125zm0 0"/></symbol><symbol id="ad" overflow="visible"><path d="m8.203125-16.25c-4.46875 0-7.125 3.171875-7.125 8.46875 0 5.34375 2.65625 8.46875 7.15625 8.46875 4.453125 0 7.140625-3.15625 7.140625-8.34375 0-5.484375-2.59375-8.59375-7.171875-8.59375zm.03125 2.328125c2.828125 0 4.515625 2.3125 4.515625 6.234375 0 3.734375-1.75 6.0625-4.515625 6.0625-2.8125 0-4.53125-2.328125-4.53125-6.15625s1.71875-6.140625 4.53125-6.140625zm0 0"/></symbol><symbol id="ae" overflow="visible"><path d="m5.515625-10h11.96875v-2.484375h-11.96875v-7.015625h12.421875v-2.46875h-15.21875v21.96875h15.75v-2.46875h-12.953125zm5.546875-18.296875-2.921875 4.453125h1.8125l4.484375-4.453125zm0 0"/></symbol><symbol id="af" overflow="visible"><path d="m8.203125-16.25c-4.46875 0-7.125 3.171875-7.125 8.46875 0 5.34375 2.65625 8.46875 7.15625 8.46875 4.453125 0 7.140625-3.15625 7.140625-8.34375 0-5.484375-2.59375-8.59375-7.171875-8.59375zm.03125 2.328125c2.828125 0 4.515625 2.3125 4.515625 6.234375 0 3.734375-1.75 6.0625-4.515625 6.0625-2.8125 0-4.53125-2.328125-4.53125-6.15625s1.71875-6.140625 4.53125-6.140625zm.75-8.375-2.890625 4.453125h1.796875l4.5-4.453125zm0 0"/></symbol><symbol id="ag" overflow="visible"><path d="m14.53125 0v-15.796875h-2.5v8.953125c0 3.234375-1.6875 5.34375-4.3125 5.34375-1.984375 0-3.265625-1.21875-3.265625-3.109375v-11.1875h-2.5v12.1875c0 2.609375 1.96875 4.296875 5.046875 4.296875 2.3125 0 3.796875-.8125 5.265625-2.890625v2.203125zm0 0"/></symbol><symbol id="ah" overflow="visible"><path d="m15.46875-7.046875c0-2.421875-.1875-3.859375-.640625-5.046875-1.03125-2.578125-3.4375-4.15625-6.390625-4.15625-4.40625 0-7.234375 3.34375-7.234375 8.5625s2.71875 8.375 7.171875 8.375c3.625 0 6.125-2.046875 6.75-5.484375h-2.53125c-.6875 2.078125-2.109375 3.171875-4.125 3.171875-1.59375 0-2.953125-.71875-3.796875-2.046875-.609375-.90625-.8125-1.8125-.84375-3.375zm-11.578125-2.0625c.203125-2.921875 1.984375-4.8125 4.515625-4.8125 2.5625 0 4.34375 1.984375 4.34375 4.8125zm5.390625-13.1875-2.890625 4.453125h1.8125l4.484375-4.453125zm0 0"/></symbol><symbol id="ai" overflow="visible"><path d="m8.203125-16.25c-4.46875 0-7.125 3.171875-7.125 8.46875 0 5.34375 2.65625 8.46875 7.15625 8.46875 4.453125 0 7.140625-3.15625 7.140625-8.34375 0-5.484375-2.59375-8.59375-7.171875-8.59375zm.03125 2.328125c2.828125 0 4.515625 2.3125 4.515625 6.234375 0 3.734375-1.75 6.0625-4.515625 6.0625-2.8125 0-4.53125-2.328125-4.53125-6.15625s1.71875-6.140625 4.53125-6.140625zm-1-8.375-2.921875 4.515625h1.8125l4.484375-4.515625zm5.25 0-2.9375 4.515625h1.8125l4.5-4.515625zm0 0"/></symbol><symbol id="aj" overflow="visible"><path d="m16.609375-10v10h2.796875v-21.96875h-2.796875v9.484375h-11.296875v-9.484375h-2.8125v21.96875h2.8125v-10zm0 0"/></symbol><symbol id="ak" overflow="visible"><path d="m5.75-3.140625h-3.125v3.140625h3.125zm0 0"/></symbol><symbol id="al" overflow="visible"><path d="m5.8125-21.96875h-2.796875v21.96875h2.796875zm-.78125-6.328125-2.890625 4.453125h1.8125l4.484375-4.453125zm0 0"/></symbol><symbol id="am" overflow="visible"><path d="m10.84375-6.59375c-2.0625 0-4.015625.6875-5.765625 1.765625-2.296875 1.359375-5.078125 3.75-5.078125 7.21875 0 2.875 2.53125 4.203125 5.125 4.203125 2.046875 0 4-.6875 5.765625-1.765625 2.28125-1.359375 5.015625-3.75 5.015625-7.21875 0-2.875-2.484375-4.203125-5.0625-4.203125zm0 0"/></symbol><symbol id="an" overflow="visible"><path d="m6.9375 0c.1875 0 .390625-.1875.390625-.390625v-11.421875c0-.203125-.203125-.390625-.390625-.390625h-6.546875c-.203125 0-.390625.1875-.390625.390625v11.421875c0 .203125.1875.390625.390625.390625zm0 0"/></symbol><symbol id="ao" overflow="visible"><path d="m18.25-12.6875c-.78125-3.421875-1.703125-6.78125-2.671875-10.15625 4.671875-5.328125 8.921875-10.78125 8.921875-17.8125 0-5.515625-3.015625-13.421875-6.4375-17.53125-.25-.1875-.53125-.1875-.78125 0-4.640625 3.375-7.328125 8.734375-7.328125 14.40625 0 2.53125.046875 5.03125.34375 7.515625.34375 3.171875 1.171875 6.25 2.046875 9.328125-5.75 6.53125-12.25 12.78125-12.25 21.46875 0 9.8125 7.078125 18.15625 16.265625 18.15625 1.5 0 2.921875-.140625 4.34375-.390625.140625 1.5625.234375 3.125.234375 4.6875 0 .875-.046875 1.703125-.09375 2.59375-.296875 4.828125-3.265625 9.265625-7.8125 9.375-.046875 0-.09375.046875-.140625.046875-2.5 0-4.640625-1.421875-5.90625-3.421875.53125.25 1.125.4375 1.703125.4375 2.546875 0 4.640625-2.09375 4.640625-4.640625 0-2.734375-2-5.078125-4.640625-5.078125-2.875 0-5.46875 2.25-5.46875 5.078125 0 5.28125 4.25 9.515625 9.515625 9.515625 5.765625 0 9.71875-5.171875 10.0625-11.03125.046875-.921875.046875-1.796875.046875-2.71875 0-1.765625-.09375-3.515625-.25-5.28125 1.28125-.390625 2.5-.96875 3.5625-1.796875 3.625-2.6875 5.234375-6.453125 5.234375-10.15625 0-6.453125-4.890625-12.640625-12.40625-12.640625-.234375 0-.484375.046875-.734375.046875zm4.15625 22.6875c-.6875-6.046875-1.8125-11.8125-3.03125-17.515625 5.375.4375 8.734375 4.921875 8.734375 9.421875 0 3.421875-2.34375 6.921875-5.703125 8.09375zm-18.9375-11.515625c0-7.8125 5.265625-13.71875 10.546875-19.625.78125 2.890625 1.5625 5.765625 2.234375 8.6875-4.921875 1.125-7.703125 5.28125-7.703125 9.578125 0 3.40625 1.75 6.875 5.65625 8.96875.140625.0625.296875.109375.4375.109375.546875 0 .984375-.484375.984375-1.03125 0-.234375-.15625-.484375-.34375-.6875-2.734375-1.5625-4-3.90625-4-6.046875 0-2.875 2.234375-5.46875 6.09375-5.90625 1.265625 5.859375 2.390625 11.671875 3.125 17.921875-1.3125.1875-2.640625.28125-4 .28125-6.640625 0-13.03125-5.609375-13.03125-12.25zm16.59375-49.734375c.828125 2.578125 1.03125 3.859375 1.03125 6.6875 0 6.203125-3.28125 11.125-7.28125 15.859375-.875-3.078125-1.609375-6.046875-1.609375-9.765625 0-5.40625 3.03125-10.34375 7.859375-12.78125zm0 0"/></symbol><symbol id="ap" overflow="visible"><path d="m6.9375 12.203125c.1875 0 .390625-.1875.390625-.390625v-23.625c0-.203125-.203125-.390625-.390625-.390625h-6.546875c-.203125 0-.390625.1875-.390625.390625v23.625c0 .203125.1875.390625.390625.390625zm0 0"/></symbol><symbol id="aq" overflow="visible"><path d="m-3.078125-2.296875c0 1.71875 1.375 3.078125 3.078125 3.078125s3.078125-1.359375 3.078125-3.078125c0-1.703125-1.375-3.078125-3.078125-3.078125s-3.078125 1.375-3.078125 3.078125zm3.078125-15.28125c-7.5625 0-16.0625 8.453125-16.0625 17.671875 0 .390625.390625.6875.78125.6875.34375 0 .734375-.25.828125-.78125 1.28125-7.265625 7.1875-12.9375 14.453125-12.9375s13.171875 5.671875 14.453125 12.9375c.09375.53125.484375.78125.828125.78125.390625 0 .78125-.296875.78125-.6875 0-9.21875-8.453125-17.671875-16.0625-17.671875zm0 0"/></symbol><symbol id="ar" overflow="visible"><path d="m6.390625-13.140625v13.140625h3.765625v-19.046875h-2.5c-.59375 2.265625-2.546875 3.421875-5.828125 3.421875v2.484375zm0 0"/></symbol><symbol id="as" overflow="visible"><path d="m5.75-3.921875h-4.03125v3.921875h4.03125zm0 0"/></symbol><g clip-path="url(#a)"><path d="m3.75 8214.560938h5945.273438" fill="none" stroke="#000" stroke-linecap="round" stroke-miterlimit="10" stroke-width="7.45679" transform="matrix(.1 0 0 -.1 0 904.21)"/></g><g clip-path="url(#b)"><path d="m3.75 8336.592188h5945.273438" fill="none" stroke="#000" stroke-linecap="round" stroke-miterlimit="10" stroke-width="7.45679" transform="matrix(.1 0 0 -.1 0 904.21)"/></g><g clip-path="url(#c)"><path d="m3.75 8458.623438h5945.273438" fill="none" stroke="#000" stroke-linecap="round" stroke-miterlimit="10" stroke-width="7.45679" transform="matrix(.1 0 0 -.1 0 904.21)"/></g><g clip-path="url(#d)"><path d="m3.75 8580.69375h5945.273438" fill="none" stroke="#000" stroke-linecap="round" stroke-miterlimit="10" stroke-width="7.45679" transform="matrix(.1 0 0 -.1 0 904.21)"/></g><g clip-path="url(#e)"><path d="m3.75 8702.725h5945.273438" fill="none" stroke="#000" stroke-linecap="round" stroke-miterlimit="10" stroke-width="7.45679" transform="matrix(.1 0 0 -.1 0 904.21)"/></g><use x="512.396" xlink:href="#F" y="125.469"/><use x="522.260454" xlink:href="#G" y="125.469"/><use x="539.098783" xlink:href="#H" y="125.469"/><use x="545.562097" xlink:href="#I" y="125.469"/><use x="528.5788" xlink:href="#am" y="82.7542"/><path d="m4826.875 8301.592188h5.703125v373.789062h-5.703125zm0 0" style="fill:none;stroke-width:3.99078;stroke-linecap:round;stroke-linejoin:round;stroke:#000;stroke-miterlimit:10" transform="matrix(.1 0 0 -.1 0 904.21)"/><path d="m482.6875 74.050781h.570312v-37.378906h-.570312zm0 0"/><use x="464.521" xlink:href="#J" y="125.469"/><use x="479.827283" xlink:href="#K" y="125.469"/><use x="467.52295" xlink:href="#am" y="76.6522"/><path d="m4216.328125 8362.607813h5.703125v337.929687h-5.703125zm0 0" style="fill:none;stroke-width:3.99078;stroke-linecap:round;stroke-linejoin:round;stroke:#000;stroke-miterlimit:10" transform="matrix(.1 0 0 -.1 0 904.21)"/><path d="m421.632812 67.949219h.570313v-33.792969h-.570313zm0 0"/><use x="406.015" xlink:href="#L" y="125.469"/><use x="406.466563" xlink:href="#am" y="70.5499"/><path d="m3549.375 8423.623438h5.703125v399.140625h-5.703125zm0 0" style="fill:none;stroke-width:3.99078;stroke-linecap:round;stroke-linejoin:round;stroke:#000;stroke-miterlimit:10" transform="matrix(.1 0 0 -.1 0 904.21)"/><path d="m354.9375 61.847656h.570312v-39.914062h-.570312zm0 0"/><use x="317.635" xlink:href="#F" y="125.469"/><use x="327.499869" xlink:href="#L" y="125.469"/><use x="344.337783" xlink:href="#M" y="125.469"/><use x="369.509302" xlink:href="#N" y="125.469"/><use x="339.7709" xlink:href="#am" y="64.4479"/><path d="m1047.148438 7869.717188h74.570312v3.710937h-74.570312zm0 0" style="fill:none;stroke-width:5.96787;stroke-linecap:round;stroke-linejoin:round;stroke:#000;stroke-miterlimit:10" transform="matrix(.1 0 0 -.1 0 904.21)"/><path d="m104.714844 117.238281h7.457031v-.371093h-7.457031zm0 0"/><path d="m1526.484375 8730.029688v-54.609375l720.546875-25.546875v54.570312zm0 0" fill="none" stroke="#000" stroke-linejoin="round" stroke-miterlimit="10" stroke-width="3.99078" transform="matrix(.1 0 0 -.1 0 904.21)"/><path d="m152.648438 31.207031v5.460938l72.054687 2.554687v-5.457031zm0 0"/><path d="m1755.507812 7869.717188h74.570313v3.710937h-74.570313zm0 0" fill="none" stroke="#000" stroke-linejoin="round" stroke-miterlimit="10" stroke-width="5.96787" transform="matrix(.1 0 0 -.1 0 904.21)"/><path d="m175.550781 117.238281h7.457031v-.371093h-7.457031zm0 0"/><path d="m2995.273438 7869.717188h74.570312v3.710937h-74.570312zm0 0" fill="none" stroke="#000" stroke-linejoin="round" stroke-miterlimit="10" stroke-width="5.96787" transform="matrix(.1 0 0 -.1 0 904.21)"/><path d="m299.527344 117.238281h7.457031v-.371093h-7.457031zm0 0"/><path d="m4216.328125 8730.029688v-54.609375l616.289063-25.546875v54.570312zm0 0" fill="none" stroke="#000" stroke-linejoin="round" stroke-miterlimit="10" stroke-width="3.99078" transform="matrix(.1 0 0 -.1 0 904.21)"/><path d="m421.632812 31.207031v5.460938l61.628907 2.554687v-5.457031zm0 0"/><path d="m4956.992188 7869.717188h74.570312v3.710937h-74.570312zm0 0" fill="none" stroke="#000" stroke-linejoin="round" stroke-miterlimit="10" stroke-width="5.96787" transform="matrix(.1 0 0 -.1 0 904.21)"/><path d="m495.699219 117.238281h7.457031v-.371093h-7.457031zm0 0"/><path d="m5437.460938 8240.576563h5.703124v399.140625h-5.703124zm0 0" fill="none" stroke="#000" stroke-linejoin="round" stroke-miterlimit="10" stroke-width="3.99078" transform="matrix(.1 0 0 -.1 0 904.21)"/><path d="m543.746094 80.152344h.570312v-39.914063h-.570312zm0 0"/><use x="576.97" xlink:href="#an" y="46.142"/><path d="m859.492188 8362.607813h5.742187v399.140625h-5.742187zm0 0" fill="none" stroke="#000" stroke-linejoin="round" stroke-miterlimit="10" stroke-width="3.99078" transform="matrix(.1 0 0 -.1 0 904.21)"/><path d="m85.949219 67.949219h.574219v-39.914063h-.574219zm0 0"/><use x="27.3449" xlink:href="#ar" y="125.469"/><use x="42.312073" xlink:href="#as" y="125.469"/><use x="62" xlink:href="#O" y="125.469"/><use x="85.471126" xlink:href="#F" y="125.469"/><use x="9.7633" xlink:href="#ao" y="70.5499"/><use x="70.784425" xlink:href="#am" y="70.5499"/><path d="m2851.875 8240.576563h5.742188v399.140625h-5.742188zm0 0" fill="none" stroke="#000" stroke-linejoin="round" stroke-miterlimit="10" stroke-width="3.99078" transform="matrix(.1 0 0 -.1 0 904.21)"/><path d="m285.1875 80.152344h.570312v-39.914063h-.570312zm0 0"/><use x="270.023" xlink:href="#am" y="82.755"/><path d="m2241.328125 8301.592188h5.703125v373.75h-5.703125zm0 0" fill="none" stroke="#000" stroke-linejoin="round" stroke-miterlimit="10" stroke-width="3.99078" transform="matrix(.1 0 0 -.1 0 904.21)"/><path d="m224.132812 74.050781h.570313v-37.375h-.570313zm0 0"/><use x="189.042" xlink:href="#P" y="125.469"/><use x="205.880305" xlink:href="#Q" y="125.469"/><use x="222.208454" xlink:href="#R" y="125.469"/><use x="236.494814" xlink:href="#N" y="125.469"/><use x="208.967" xlink:href="#am" y="76.6522"/><use x="267.1065" xlink:href="#S" y="125.469"/><path d="m1526.484375 8362.607813h5.703125v337.96875h-5.703125zm0 0" fill="none" stroke="#000" stroke-linejoin="round" stroke-miterlimit="10" stroke-width="3.99078" transform="matrix(.1 0 0 -.1 0 904.21)"/><path d="m152.648438 67.949219h.570312v-33.792969h-.570312zm0 0"/><use x="121.383" xlink:href="#T" y="125.469"/><use x="135.840443" xlink:href="#Q" y="125.469"/><use x="152.678357" xlink:href="#U" y="125.469"/><use x="137.4807" xlink:href="#am" y="70.5499"/><g clip-path="url(#f)"><path d="m3.75 6750.06875h5945.273438" style="fill:none;stroke-width:7.45679;stroke-linecap:round;stroke-linejoin:round;stroke:#000;stroke-miterlimit:10" transform="matrix(.1 0 0 -.1 0 904.21)"/></g><g clip-path="url(#g)"><path d="m3.75 6872.1h5945.273438" style="fill:none;stroke-width:7.45679;stroke-linecap:round;stroke-linejoin:round;stroke:#000;stroke-miterlimit:10" transform="matrix(.1 0 0 -.1 0 904.21)"/></g><g clip-path="url(#h)"><path d="m3.75 6994.13125h5945.273438" style="fill:none;stroke-width:7.45679;stroke-linecap:round;stroke-linejoin:round;stroke:#000;stroke-miterlimit:10" transform="matrix(.1 0 0 -.1 0 904.21)"/></g><g clip-path="url(#i)"><path d="m3.75 7116.1625h5945.273438" style="fill:none;stroke-width:7.45679;stroke-linecap:round;stroke-linejoin:round;stroke:#000;stroke-miterlimit:10" transform="matrix(.1 0 0 -.1 0 904.21)"/></g><g clip-path="url(#j)"><path d="m3.75 7238.19375h5945.273438" style="fill:none;stroke-width:7.45679;stroke-linecap:round;stroke-linejoin:round;stroke:#000;stroke-miterlimit:10" transform="matrix(.1 0 0 -.1 0 904.21)"/></g><path d="m624.726562 6627.998438h219.414063" style="fill:none;stroke-width:19.661;stroke-linecap:round;stroke-linejoin:round;stroke:#000;stroke-miterlimit:10" transform="matrix(.1 0 0 -.1 0 904.21)"/><use x="498.716" xlink:href="#V" y="276.061"/><use x="515.553939" xlink:href="#L" y="276.061"/><use x="532.392268" xlink:href="#U" y="276.061"/><use x="516.0043" xlink:href="#am" y="217.0012"/><use x="283.3953" xlink:href="#W" y="276.061"/><use x="300.233605" xlink:href="#L" y="276.061"/><path d="m4518.984375 6959.13125h5.742187v399.140625h-5.742187zm0 0" fill="none" stroke="#000" stroke-linejoin="round" stroke-miterlimit="10" stroke-width="3.99078" transform="matrix(.1 0 0 -.1 0 904.21)"/><path d="m451.898438 208.300781h.574218v-39.917969h-.574218zm0 0"/><use x="415.279" xlink:href="#M" y="276.061"/><use x="440.450128" xlink:href="#L" y="276.061"/><use x="457.288457" xlink:href="#P" y="276.061"/><use x="436.7341" xlink:href="#am" y="210.8989"/><path d="m3796.640625 6898.076563h5.703125v338.164062h-5.703125zm0 0" fill="none" stroke="#000" stroke-linejoin="round" stroke-miterlimit="10" stroke-width="3.99078" transform="matrix(.1 0 0 -.1 0 904.21)"/><path d="m379.664062 214.402344h.570313v-33.8125h-.570313zm0 0"/><use x="356.565" xlink:href="#X" y="276.061"/><use x="364.899399" xlink:href="#L" y="276.061"/><use x="381.737704" xlink:href="#H" y="276.061"/><use x="364.50055" xlink:href="#am" y="217.0012"/><path d="m3074.335938 6898.076563h5.703124v338.164062h-5.703124zm0 0" fill="none" stroke="#000" stroke-linejoin="round" stroke-miterlimit="10" stroke-width="3.99078" transform="matrix(.1 0 0 -.1 0 904.21)"/><path d="m307.433594 214.402344h.570312v-33.8125h-.570312zm0 0"/><path d="m1629.648438 7143.467188v-54.609375l728.046874 25.585937v54.570313zm0 0" fill="none" stroke="#000" stroke-linejoin="round" stroke-miterlimit="10" stroke-width="3.99078" transform="matrix(.1 0 0 -.1 0 904.21)"/><path d="m162.964844 189.863281v5.460938l72.804687-2.558594v-5.457031zm0 0"/><path d="m3074.335938 7210.928125h728.046874v54.570313h-728.046874zm0 0" fill="none" stroke="#000" stroke-linejoin="round" stroke-miterlimit="10" stroke-width="3.99078" transform="matrix(.1 0 0 -.1 0 904.21)"/><path d="m307.433594 183.117188h72.804687v-5.457032h-72.804687zm0 0"/><path d="m3330.898438 6363.779688h74.570312v3.75h-74.570312zm0 0" fill="none" stroke="#000" stroke-linejoin="round" stroke-miterlimit="10" stroke-width="5.96787" transform="matrix(.1 0 0 -.1 0 904.21)"/><path d="m333.089844 267.832031h7.457031v-.375h-7.457031zm0 0"/><path d="m3980.9375 6363.779688h74.609375v3.75h-74.609375zm0 0" fill="none" stroke="#000" stroke-linejoin="round" stroke-miterlimit="10" stroke-width="5.96787" transform="matrix(.1 0 0 -.1 0 904.21)"/><path d="m398.09375 267.832031h7.460938v-.375h-7.460938zm0 0"/><path d="m4826.914062 6363.779688h74.570313v3.75h-74.570313zm0 0" fill="none" stroke="#000" stroke-linejoin="round" stroke-miterlimit="10" stroke-width="5.96787" transform="matrix(.1 0 0 -.1 0 904.21)"/><path d="m482.691406 267.832031h7.457032v-.375h-7.457032zm0 0"/><path d="m5311.71875 6898.076563h5.703125v399.179687h-5.703125zm0 0" fill="none" stroke="#000" stroke-linejoin="round" stroke-miterlimit="10" stroke-width="3.99078" transform="matrix(.1 0 0 -.1 0 904.21)"/><path d="m531.171875 214.402344h.570313v-39.917969h-.570313zm0 0"/><use x="576.97" xlink:href="#an" y="192.593"/><use x="9.763" xlink:href="#ao" y="217.0016"/><path d="m806.40625 6654.014063h5.742188v399.140625h-5.742188zm0 0" fill="none" stroke="#000" stroke-linejoin="round" stroke-miterlimit="10" stroke-width="3.99078" transform="matrix(.1 0 0 -.1 0 904.21)"/><path d="m80.640625 238.808594h.574219v-39.914063h-.574219zm0 0"/><use x="292.266" xlink:href="#am" y="217.001"/><use x="65.476" xlink:href="#am" y="241.4092"/><use x="63.40959" xlink:href="#Y" y="276.0608"/><path d="m1629.648438 6776.045313h5.703124v338.320312h-5.703124zm0 0" fill="none" stroke="#000" stroke-linejoin="round" stroke-miterlimit="10" stroke-width="3.99078" transform="matrix(.1 0 0 -.1 0 904.21)"/><path d="m162.964844 226.605469h.570312v-33.832031h-.570312zm0 0"/><use x="195.516" xlink:href="#U" y="276.061"/><use x="212.353914" xlink:href="#L" y="276.061"/><use x="228.851984" xlink:href="#Z" y="276.061"/><use x="245.349663" xlink:href="#I" y="276.061"/><use x="220.0316" xlink:href="#am" y="223.1032"/><path d="m2351.992188 6837.060938h5.703124v302.5h-5.703124zm0 0" fill="none" stroke="#000" stroke-linejoin="round" stroke-miterlimit="10" stroke-width="3.99078" transform="matrix(.1 0 0 -.1 0 904.21)"/><path d="m235.195312 220.503906h.574219v-30.25h-.574219zm0 0"/><use x="143.351" xlink:href="#X" y="276.061"/><use x="151.344762" xlink:href="#Q" y="276.061"/><use x="147.79827" xlink:href="#am" y="229.2051"/><g clip-path="url(#k)"><path d="m3.75 5285.5375h5945.273438" style="fill:none;stroke-width:7.45679;stroke-linecap:round;stroke-linejoin:round;stroke:#000;stroke-miterlimit:10" transform="matrix(.1 0 0 -.1 0 904.21)"/></g><g clip-path="url(#l)"><path d="m3.75 5407.56875h5945.273438" style="fill:none;stroke-width:7.45679;stroke-linecap:round;stroke-linejoin:round;stroke:#000;stroke-miterlimit:10" transform="matrix(.1 0 0 -.1 0 904.21)"/></g><g clip-path="url(#m)"><path d="m3.75 5529.639063h5945.273438" style="fill:none;stroke-width:7.45679;stroke-linecap:round;stroke-linejoin:round;stroke:#000;stroke-miterlimit:10" transform="matrix(.1 0 0 -.1 0 904.21)"/></g><g clip-path="url(#n)"><path d="m3.75 5651.670313h5945.273438" style="fill:none;stroke-width:7.45679;stroke-linecap:round;stroke-linejoin:round;stroke:#000;stroke-miterlimit:10" transform="matrix(.1 0 0 -.1 0 904.21)"/></g><g clip-path="url(#o)"><path d="m3.75 5773.701563h5945.273438" style="fill:none;stroke-width:7.45679;stroke-linecap:round;stroke-linejoin:round;stroke:#000;stroke-miterlimit:10" transform="matrix(.1 0 0 -.1 0 904.21)"/></g><path d="m5120.742188 5163.50625h219.375" style="fill:none;stroke-width:19.661;stroke-linecap:round;stroke-linejoin:round;stroke:#000;stroke-miterlimit:10" transform="matrix(.1 0 0 -.1 0 904.21)"/><path d="m2826.992188 5163.50625h219.375" style="fill:none;stroke-width:19.661;stroke-linecap:round;stroke-linejoin:round;stroke:#000;stroke-miterlimit:10" transform="matrix(.1 0 0 -.1 0 904.21)"/><use x="493.619" xlink:href="#V" y="422.844"/><use x="510.456939" xlink:href="#L" y="422.844"/><use x="527.295268" xlink:href="#U" y="422.844"/><use x="544.133597" xlink:href="#aa" y="422.844"/><use x="515.0741" xlink:href="#am" y="387.8604"/><use x="281.0811" xlink:href="#P" y="422.844"/><use x="297.919405" xlink:href="#ab" y="422.844"/><path d="m4500.390625 5250.5375h5.703125v399.140625h-5.703125zm0 0" fill="none" stroke="#000" stroke-linejoin="round" stroke-miterlimit="10" stroke-width="3.99078" transform="matrix(.1 0 0 -.1 0 904.21)"/><path d="m450.039062 379.15625h.570313v-39.914062h-.570313zm0 0"/><use x="418.433" xlink:href="#ac" y="422.844"/><use x="433.569752" xlink:href="#ad" y="422.844"/><use x="450.408081" xlink:href="#P" y="422.844"/><use x="434.8721" xlink:href="#am" y="381.7585"/><path d="m3769.765625 5311.553125h5.703125v312.109375h-5.703125zm0 0" fill="none" stroke="#000" stroke-linejoin="round" stroke-miterlimit="10" stroke-width="3.99078" transform="matrix(.1 0 0 -.1 0 904.21)"/><path d="m376.976562 373.054688h.570313v-31.210938h-.570313zm0 0"/><use x="357.194" xlink:href="#X" y="422.844"/><use x="365.528008" xlink:href="#G" y="422.844"/><use x="361.8108" xlink:href="#am" y="375.6565"/><path d="m3008.632812 5189.482813h5.742188v364.140625h-5.742188zm0 0" fill="none" stroke="#000" stroke-linejoin="round" stroke-miterlimit="10" stroke-width="3.99078" transform="matrix(.1 0 0 -.1 0 904.21)"/><path d="m300.863281 385.261719h.574219v-36.414063h-.574219zm0 0"/><path d="m1577.929688 5624.365625h736.328124v54.609375h-736.328124zm0 0" fill="none" stroke="#000" stroke-linejoin="round" stroke-miterlimit="10" stroke-width="3.99078" transform="matrix(.1 0 0 -.1 0 904.21)"/><path d="m157.792969 341.773438h73.632812v-5.460938h-73.632812zm0 0"/><path d="m1866.289062 4895.967188h74.570313v3.710937h-74.570313zm0 0" fill="none" stroke="#000" stroke-linejoin="round" stroke-miterlimit="10" stroke-width="5.96787" transform="matrix(.1 0 0 -.1 0 904.21)"/><path d="m186.628906 414.613281h7.457032v-.371093h-7.457032zm0 0"/><path d="m2570.585938 4895.967188h74.570312v3.710937h-74.570312zm0 0" fill="none" stroke="#000" stroke-linejoin="round" stroke-miterlimit="10" stroke-width="5.96787" transform="matrix(.1 0 0 -.1 0 904.21)"/><path d="m257.058594 414.613281h7.457031v-.371093h-7.457031zm0 0"/><path d="m3008.632812 5582.490625v-54.609375l766.835938 70.9375v54.570313zm0 0" fill="none" stroke="#000" stroke-linejoin="round" stroke-miterlimit="10" stroke-width="3.99078" transform="matrix(.1 0 0 -.1 0 904.21)"/><path d="m300.863281 345.960938v5.460937l76.683594-7.09375v-5.457031zm0 0"/><path d="m3279.921875 4895.967188h74.570313v3.710937h-74.570313zm0 0" fill="none" stroke="#000" stroke-linejoin="round" stroke-miterlimit="10" stroke-width="5.96787" transform="matrix(.1 0 0 -.1 0 904.21)"/><path d="m327.992188 414.613281h7.457031v-.371093h-7.457031zm0 0"/><path d="m3966.71875 4895.967188h74.570312v3.710937h-74.570312zm0 0" fill="none" stroke="#000" stroke-linejoin="round" stroke-miterlimit="10" stroke-width="5.96787" transform="matrix(.1 0 0 -.1 0 904.21)"/><path d="m396.667969 414.613281h7.457031v-.371093h-7.457031zm0 0"/><path d="m4767.03125 4895.967188h74.570312v3.710937h-74.570312zm0 0" fill="none" stroke="#000" stroke-linejoin="round" stroke-miterlimit="10" stroke-width="5.96787" transform="matrix(.1 0 0 -.1 0 904.21)"/><path d="m476.703125 414.613281h7.457031v-.371093h-7.457031zm0 0"/><path d="m5302.382812 5189.482813h5.742188v399.179687h-5.742188zm0 0" fill="none" stroke="#000" stroke-linejoin="round" stroke-miterlimit="10" stroke-width="3.99078" transform="matrix(.1 0 0 -.1 0 904.21)"/><path d="m530.238281 385.261719h.574219v-39.917969h-.574219zm0 0"/><use x="576.97" xlink:href="#ap" y="351.248"/><use x="9.763" xlink:href="#ao" y="363.4523"/><path d="m806.40625 5433.584375h5.742188v399.140625h-5.742188zm0 0" fill="none" stroke="#000" stroke-linejoin="round" stroke-miterlimit="10" stroke-width="3.99078" transform="matrix(.1 0 0 -.1 0 904.21)"/><path d="m80.640625 360.851562h.574219v-39.914062h-.574219zm0 0"/><use x="285.699" xlink:href="#am" y="387.86"/><use x="65.476" xlink:href="#am" y="363.4518"/><use x="55.84084" xlink:href="#ae" y="422.8436"/><use x="75.910399" xlink:href="#ac" y="422.8436"/><path d="m1577.929688 5311.553125h5.703124v338.125h-5.703124zm0 0" fill="none" stroke="#000" stroke-linejoin="round" stroke-miterlimit="10" stroke-width="3.99078" transform="matrix(.1 0 0 -.1 0 904.21)"/><path d="m157.792969 373.054688h.570312v-33.8125h-.570312zm0 0"/><use x="206.818" xlink:href="#V" y="422.844"/><use x="223.655914" xlink:href="#L" y="422.844"/><use x="215.68792" xlink:href="#am" y="375.6565"/><path d="m2308.554688 5311.553125h5.703124v338.125h-5.703124zm0 0" fill="none" stroke="#000" stroke-linejoin="round" stroke-miterlimit="10" stroke-width="3.99078" transform="matrix(.1 0 0 -.1 0 904.21)"/><path d="m230.855469 373.054688h.570312v-33.8125h-.570312zm0 0"/><use x="127.294" xlink:href="#ac" y="422.844"/><use x="142.261208" xlink:href="#R" y="422.844"/><use x="157.057713" xlink:href="#L" y="422.844"/><use x="142.6276" xlink:href="#am" y="375.6565"/><g clip-path="url(#p)"><path d="m3.75 3821.045313h5945.273438" style="fill:none;stroke-width:7.45679;stroke-linecap:round;stroke-linejoin:round;stroke:#000;stroke-miterlimit:10" transform="matrix(.1 0 0 -.1 0 904.21)"/></g><g clip-path="url(#q)"><path d="m3.75 3943.076563h5945.273438" style="fill:none;stroke-width:7.45679;stroke-linecap:round;stroke-linejoin:round;stroke:#000;stroke-miterlimit:10" transform="matrix(.1 0 0 -.1 0 904.21)"/></g><g clip-path="url(#r)"><path d="m3.75 4065.107813h5945.273438" style="fill:none;stroke-width:7.45679;stroke-linecap:round;stroke-linejoin:round;stroke:#000;stroke-miterlimit:10" transform="matrix(.1 0 0 -.1 0 904.21)"/></g><g clip-path="url(#s)"><path d="m3.75 4187.178125h5945.273438" style="fill:none;stroke-width:7.45679;stroke-linecap:round;stroke-linejoin:round;stroke:#000;stroke-miterlimit:10" transform="matrix(.1 0 0 -.1 0 904.21)"/></g><g clip-path="url(#t)"><path d="m3.75 4309.209375h5945.273438" style="fill:none;stroke-width:7.45679;stroke-linecap:round;stroke-linejoin:round;stroke:#000;stroke-miterlimit:10" transform="matrix(.1 0 0 -.1 0 904.21)"/></g><use x="531.954" xlink:href="#am" y="491.597"/><path d="m4792.890625 4091.123438h5.742187v337.929687h-5.742187zm0 0" style="fill:none;stroke-width:3.99078;stroke-linecap:round;stroke-linejoin:round;stroke:#000;stroke-miterlimit:10" transform="matrix(.1 0 0 -.1 0 904.21)"/><path d="m479.289062 495.097656h.574219v-33.792968h-.574219zm0 0"/><use x="447.687" xlink:href="#ac" y="564.822"/><use x="462.823752" xlink:href="#G" y="564.822"/><use x="479.662081" xlink:href="#Z" y="564.822"/><use x="464.1249" xlink:href="#am" y="497.6986"/><path d="m4186.054688 4030.107813h5.703124v373.789062h-5.703124zm0 0" style="fill:none;stroke-width:3.99078;stroke-linecap:round;stroke-linejoin:round;stroke:#000;stroke-miterlimit:10" transform="matrix(.1 0 0 -.1 0 904.21)"/><path d="m418.605469 501.199219h.570312v-37.378907h-.570312zm0 0"/><use x="394.654" xlink:href="#Z" y="564.822"/><use x="411.321626" xlink:href="#af" y="564.822"/><use x="403.43877" xlink:href="#am" y="503.8005"/><path d="m3552.8125 3969.092188h5.703125v399.140625h-5.703125zm0 0" style="fill:none;stroke-width:3.99078;stroke-linecap:round;stroke-linejoin:round;stroke:#000;stroke-miterlimit:10" transform="matrix(.1 0 0 -.1 0 904.21)"/><path d="m355.28125 507.300781h.570312v-39.914062h-.570312zm0 0"/><use x="323.933" xlink:href="#V" y="564.822"/><use x="340.771305" xlink:href="#ag" y="564.822"/><use x="357.099454" xlink:href="#R" y="564.822"/><use x="340.1158" xlink:href="#am" y="509.9029"/><path d="m1439.648438 4378.389063h586.25v54.609375h-586.25zm0 0" fill="none" stroke="#000" stroke-linejoin="round" stroke-miterlimit="10" stroke-width="3.99078" transform="matrix(.1 0 0 -.1 0 904.21)"/><path d="m143.964844 466.371094h58.625v-5.460938h-58.625zm0 0"/><path d="m1549.648438 3476.201563h74.570312v3.710937h-74.570312zm0 0" fill="none" stroke="#000" stroke-linejoin="round" stroke-miterlimit="10" stroke-width="5.96787" transform="matrix(.1 0 0 -.1 0 904.21)"/><path d="m154.964844 556.59375h7.457031v-.375h-7.457031zm0 0"/><path d="m3797.148438 3476.201563h74.570312v3.710937h-74.570312zm0 0" fill="none" stroke="#000" stroke-linejoin="round" stroke-miterlimit="10" stroke-width="5.96787" transform="matrix(.1 0 0 -.1 0 904.21)"/><path d="m379.714844 556.59375h7.457031v-.375h-7.457031zm0 0"/><path d="m4186.054688 4432.998438v-54.609375l612.539062 25.546875v54.609375zm0 0" fill="none" stroke="#000" stroke-linejoin="round" stroke-miterlimit="10" stroke-width="3.99078" transform="matrix(.1 0 0 -.1 0 904.21)"/><path d="m418.605469 460.910156v5.460938l61.253906-2.554688v-5.460937zm0 0"/><path d="m4341.953125 3476.201563h74.570313v3.710937h-74.570313zm0 0" fill="none" stroke="#000" stroke-linejoin="round" stroke-miterlimit="10" stroke-width="5.96787" transform="matrix(.1 0 0 -.1 0 904.21)"/><path d="m434.195312 556.59375h7.457032v-.375h-7.457032zm0 0"/><path d="m5025.3125 3476.201563h74.570312v3.710937h-74.570312zm0 0" fill="none" stroke="#000" stroke-linejoin="round" stroke-miterlimit="10" stroke-width="5.96787" transform="matrix(.1 0 0 -.1 0 904.21)"/><path d="m502.53125 556.59375h7.457031v-.375h-7.457031zm0 0"/><use x="516.026" xlink:href="#Z" y="564.822"/><use x="532.523704" xlink:href="#L" y="564.822"/><use x="549.361642" xlink:href="#H" y="564.822"/><use x="555.484723" xlink:href="#N" y="564.822"/><use x="576.9701" xlink:href="#an" y="485.4943"/><path d="m5321.523438 3700.967188h5.703124v399.179687h-5.703124zm0 0" fill="none" stroke="#000" stroke-linejoin="round" stroke-miterlimit="10" stroke-width="3.99078" transform="matrix(.1 0 0 -.1 0 904.21)"/><path d="m532.152344 534.113281h.570312v-39.914062h-.570312zm0 0"/><path d="m806.40625 3969.092188h5.742188v399.140625h-5.742188zm0 0" fill="none" stroke="#000" stroke-linejoin="round" stroke-miterlimit="10" stroke-width="3.99078" transform="matrix(.1 0 0 -.1 0 904.21)"/><path d="m80.640625 507.300781h.574219v-39.914062h-.574219zm0 0"/><use x="55.8406" xlink:href="#ae" y="564.822"/><use x="75.910159" xlink:href="#ac" y="564.822"/><use x="65.47576" xlink:href="#am" y="509.9029"/><use x="9.762985" xlink:href="#ao" y="509.9029"/><use x="186.85576" xlink:href="#am" y="503.80056"/><path d="m2641.523438 3660.303125h5.703124v378.828125h-5.703124zm0 0" fill="none" stroke="#000" stroke-linejoin="round" stroke-miterlimit="10" stroke-width="3.99078" transform="matrix(.1 0 0 -.1 0 904.21)"/><path d="m264.152344 538.179688h.570312v-37.882813h-.570312zm0 0"/><use x="239.436" xlink:href="#U" y="564.822"/><use x="256.274305" xlink:href="#L" y="564.822"/><use x="272.771984" xlink:href="#Z" y="564.822"/><use x="289.269663" xlink:href="#I" y="564.822"/><use x="263.9532" xlink:href="#am" y="497.6986"/><path d="m2020.195312 4030.107813h5.742188v373.59375h-5.742188zm0 0" fill="none" stroke="#000" stroke-linejoin="round" stroke-miterlimit="10" stroke-width="3.99078" transform="matrix(.1 0 0 -.1 0 904.21)"/><path d="m202.019531 501.199219h.574219v-37.359375h-.574219zm0 0"/><use x="169.736" xlink:href="#Z" y="564.822"/><use x="186.23407" xlink:href="#L" y="564.822"/><use x="203.071984" xlink:href="#P" y="564.822"/><path d="m1439.648438 4030.107813h5.703124v373.59375h-5.703124zm0 0" fill="none" stroke="#000" stroke-linejoin="round" stroke-miterlimit="10" stroke-width="3.99078" transform="matrix(.1 0 0 -.1 0 904.21)"/><path d="m143.964844 501.199219h.570312v-37.359375h-.570312zm0 0"/><use x="128.798" xlink:href="#am" y="503.801"/><use x="125.88003" xlink:href="#T" y="564.8225"/><use x="141.01716" xlink:href="#K" y="564.8225"/><g clip-path="url(#u)"><path d="m3.75 2356.514063h5945.273438" style="fill:none;stroke-width:7.45679;stroke-linecap:round;stroke-linejoin:round;stroke:#000;stroke-miterlimit:10" transform="matrix(.1 0 0 -.1 0 904.21)"/></g><g clip-path="url(#v)"><path d="m3.75 2478.545313h5945.273438" style="fill:none;stroke-width:7.45679;stroke-linecap:round;stroke-linejoin:round;stroke:#000;stroke-miterlimit:10" transform="matrix(.1 0 0 -.1 0 904.21)"/></g><g clip-path="url(#w)"><path d="m3.75 2600.615625h5945.273438" style="fill:none;stroke-width:7.45679;stroke-linecap:round;stroke-linejoin:round;stroke:#000;stroke-miterlimit:10" transform="matrix(.1 0 0 -.1 0 904.21)"/></g><g clip-path="url(#x)"><path d="m3.75 2722.646875h5945.273438" style="fill:none;stroke-width:7.45679;stroke-linecap:round;stroke-linejoin:round;stroke:#000;stroke-miterlimit:10" transform="matrix(.1 0 0 -.1 0 904.21)"/></g><g clip-path="url(#y)"><path d="m3.75 2844.678125h5945.273438" style="fill:none;stroke-width:7.45679;stroke-linecap:round;stroke-linejoin:round;stroke:#000;stroke-miterlimit:10" transform="matrix(.1 0 0 -.1 0 904.21)"/></g><path d="m5193.59375 2382.529688h5.703125v399.140625h-5.703125zm0 0" style="fill:none;stroke-width:3.99078;stroke-linecap:round;stroke-linejoin:round;stroke:#000;stroke-miterlimit:10" transform="matrix(.1 0 0 -.1 0 904.21)"/><path d="m519.359375 665.957031h.570313v-39.914062h-.570313zm0 0"/><use x="487.33" xlink:href="#X" y="711.273"/><use x="495.32375" xlink:href="#ah" y="711.273"/><use x="512.331611" xlink:href="#P" y="711.273"/><use x="528.659784" xlink:href="#N" y="711.273"/><use x="504.1925" xlink:href="#am" y="668.5582"/><path d="m4282.773438 2443.545313h5.703124v399.140625h-5.703124zm0 0" style="fill:none;stroke-width:3.99078;stroke-linecap:round;stroke-linejoin:round;stroke:#000;stroke-miterlimit:10" transform="matrix(.1 0 0 -.1 0 904.21)"/><path d="m428.277344 659.855469h.570312v-39.914063h-.570312zm0 0"/><use x="408.492" xlink:href="#Z" y="711.273"/><use x="425.329939" xlink:href="#ab" y="711.273"/><use x="413.10997" xlink:href="#am" y="662.4558"/><path d="m3371.914062 2504.560938h5.703126v399.179687h-5.703126zm0 0" style="fill:none;stroke-width:3.99078;stroke-linecap:round;stroke-linejoin:round;stroke:#000;stroke-miterlimit:10" transform="matrix(.1 0 0 -.1 0 904.21)"/><path d="m337.191406 653.753906h.570313v-39.914062h-.570313zm0 0"/><use x="314.006" xlink:href="#ac" y="711.273"/><use x="329.143142" xlink:href="#Q" y="711.273"/><use x="322.02553" xlink:href="#am" y="656.3539"/><path d="m1717.265625 2913.896875h833.046875v54.570313h-833.046875zm0 0" fill="none" stroke="#000" stroke-linejoin="round" stroke-miterlimit="10" stroke-width="3.99078" transform="matrix(.1 0 0 -.1 0 904.21)"/><path d="m171.726562 612.820312h83.304688v-5.457031h-83.304688zm0 0"/><path d="m2916.171875 2011.670313h74.570313v3.75h-74.570313zm0 0" fill="none" stroke="#000" stroke-linejoin="round" stroke-miterlimit="10" stroke-width="5.96787" transform="matrix(.1 0 0 -.1 0 904.21)"/><path d="m291.617188 703.042969h7.457031v-.375h-7.457031zm0 0"/><path d="m3735.078125 2011.670313h74.570313v3.75h-74.570313zm0 0" fill="none" stroke="#000" stroke-linejoin="round" stroke-miterlimit="10" stroke-width="5.96787" transform="matrix(.1 0 0 -.1 0 904.21)"/><path d="m373.507812 703.042969h7.457032v-.375h-7.457032zm0 0"/><path d="m4567.65625 2011.670313h74.609375v3.75h-74.609375zm0 0" fill="none" stroke="#000" stroke-linejoin="round" stroke-miterlimit="10" stroke-width="5.96787" transform="matrix(.1 0 0 -.1 0 904.21)"/><path d="m456.765625 703.042969h7.457031v-.375h-7.457031zm0 0"/><use x="576.97" xlink:href="#an" y="631.945"/><path d="m2544.570312 2565.576563h5.703126v373.59375h-5.703126zm0 0" fill="none" stroke="#000" stroke-linejoin="round" stroke-miterlimit="10" stroke-width="3.99078" transform="matrix(.1 0 0 -.1 0 904.21)"/><path d="m254.457031 647.652344h.570313v-37.359375h-.570313zm0 0"/><use x="9.76328" xlink:href="#ao" y="656.354"/><use x="65.475811" xlink:href="#am" y="656.354"/><use x="217.83728" xlink:href="#M" y="711.2731"/><use x="243.008408" xlink:href="#Q" y="711.2731"/><use x="259.846713" xlink:href="#Z" y="711.2731"/><use x="239.29238" xlink:href="#am" y="650.252"/><path d="m1717.265625 2565.576563h5.703125v373.59375h-5.703125zm0 0" fill="none" stroke="#000" stroke-linejoin="round" stroke-miterlimit="10" stroke-width="3.99078" transform="matrix(.1 0 0 -.1 0 904.21)"/><path d="m171.722656 647.652344h.574219v-37.359375h-.574219zm0 0"/><use x="151.941" xlink:href="#ai" y="711.273"/><use x="168.779305" xlink:href="#X" y="711.273"/><use x="156.55936" xlink:href="#am" y="650.2519"/><path d="m806.40625 2504.560938h5.742188v399.179687h-5.742188zm0 0" fill="none" stroke="#000" stroke-linejoin="round" stroke-miterlimit="10" stroke-width="3.99078" transform="matrix(.1 0 0 -.1 0 904.21)"/><path d="m80.640625 653.753906h.574219v-39.914062h-.574219zm0 0"/><use x="38.3227" xlink:href="#aj" y="711.273"/><use x="60.092651" xlink:href="#ad" y="711.273"/><use x="76.930566" xlink:href="#Z" y="711.273"/><use x="93.428245" xlink:href="#I" y="711.273"/><g clip-path="url(#z)"><path d="m3.75 892.021875h5945.273438" style="fill:none;stroke-width:7.45679;stroke-linecap:round;stroke-linejoin:round;stroke:#000;stroke-miterlimit:10" transform="matrix(.1 0 0 -.1 0 904.21)"/></g><g clip-path="url(#A)"><path d="m3.75 1014.053125h5945.273438" style="fill:none;stroke-width:7.45679;stroke-linecap:round;stroke-linejoin:round;stroke:#000;stroke-miterlimit:10" transform="matrix(.1 0 0 -.1 0 904.21)"/></g><g clip-path="url(#B)"><path d="m3.75 1136.084375h5945.273438" style="fill:none;stroke-width:7.45679;stroke-linecap:round;stroke-linejoin:round;stroke:#000;stroke-miterlimit:10" transform="matrix(.1 0 0 -.1 0 904.21)"/></g><g clip-path="url(#C)"><path d="m3.75 1258.154688h5945.273438" style="fill:none;stroke-width:7.45679;stroke-linecap:round;stroke-linejoin:round;stroke:#000;stroke-miterlimit:10" transform="matrix(.1 0 0 -.1 0 904.21)"/></g><g clip-path="url(#D)"><path d="m3.75 1380.185938h5945.273438" style="fill:none;stroke-width:7.45679;stroke-linecap:round;stroke-linejoin:round;stroke:#000;stroke-miterlimit:10" transform="matrix(.1 0 0 -.1 0 904.21)"/></g><path d="m4931.953125 769.951563h219.375" style="fill:none;stroke-width:19.661;stroke-linecap:round;stroke-linejoin:round;stroke:#000;stroke-miterlimit:10" transform="matrix(.1 0 0 -.1 0 904.21)"/><path d="m624.726562 769.951563h219.414063" style="fill:none;stroke-width:19.661;stroke-linecap:round;stroke-linejoin:round;stroke:#000;stroke-miterlimit:10" transform="matrix(.1 0 0 -.1 0 904.21)"/><g clip-path="url(#E)"><path d="m5930.390625 892.021875v488.164063" fill="none" stroke="#000" stroke-linejoin="round" stroke-miterlimit="10" stroke-width="44.7407" transform="matrix(.1 0 0 -.1 0 904.21)"/></g><path d="m5878.554688 892.021875v488.164063" fill="none" stroke="#000" stroke-linejoin="round" stroke-miterlimit="10" stroke-width="14.1691" transform="matrix(.1 0 0 -.1 0 904.21)"/><use x="504.164" xlink:href="#aq" y="762.596"/><use x="496.19564" xlink:href="#am" y="827.2128"/><path d="m4225.898438 856.982813h5.742187v399.179687h-5.742187zm0 0" fill="none" stroke="#000" stroke-linejoin="round" stroke-miterlimit="10" stroke-width="3.99078" transform="matrix(.1 0 0 -.1 0 904.21)"/><path d="m422.589844 818.511719h.570312v-39.917969h-.570312zm0 0"/><use x="385.97" xlink:href="#M" y="868.1936"/><use x="411.141128" xlink:href="#Q" y="868.1936"/><use x="427.979457" xlink:href="#U" y="868.1936"/><use x="407.4251" xlink:href="#am" y="821.1108"/><path d="m3338.203125 918.0375h5.703125v399.140625h-5.703125zm0 0" fill="none" stroke="#000" stroke-linejoin="round" stroke-miterlimit="10" stroke-width="3.99078" transform="matrix(.1 0 0 -.1 0 904.21)"/><path d="m333.820312 812.410156h.570313v-39.917968h-.570313zm0 0"/><use x="315.653" xlink:href="#J" y="868.1936"/><use x="330.959674" xlink:href="#K" y="868.1936"/><use x="318.65534" xlink:href="#am" y="815.0088"/><path d="m1082.304688 442.451563h74.609374v3.75h-74.609374zm0 0" fill="none" stroke="#000" stroke-linejoin="round" stroke-miterlimit="10" stroke-width="5.96787" transform="matrix(.1 0 0 -.1 0 904.21)"/><path d="m108.230469 859.964844h7.460937v-.375h-7.460937zm0 0"/><path d="m1694.140625 1311.00625v-54.609375l843.007813 70.898438v54.609375zm0 0" fill="none" stroke="#000" stroke-linejoin="round" stroke-miterlimit="10" stroke-width="3.99078" transform="matrix(.1 0 0 -.1 0 904.21)"/><path d="m169.414062 773.109375v5.460937l84.300782-7.089843v-5.460938zm0 0"/><path d="m2024.335938 442.451563h74.570312v3.75h-74.570312zm0 0" fill="none" stroke="#000" stroke-linejoin="round" stroke-miterlimit="10" stroke-width="5.96787" transform="matrix(.1 0 0 -.1 0 904.21)"/><path d="m202.433594 859.964844h7.457031v-.375h-7.457031zm0 0"/><path d="m3580.507812 442.451563h74.609376v3.75h-74.609376zm0 0" fill="none" stroke="#000" stroke-linejoin="round" stroke-miterlimit="10" stroke-width="5.96787" transform="matrix(.1 0 0 -.1 0 904.21)"/><path d="m358.050781 859.964844h7.457031v-.375h-7.457031zm0 0"/><path d="m4583.476562 442.451563h74.570313v3.75h-74.570313zm0 0" fill="none" stroke="#000" stroke-linejoin="round" stroke-miterlimit="10" stroke-width="5.96787" transform="matrix(.1 0 0 -.1 0 904.21)"/><path d="m458.347656 859.964844h7.457032v-.375h-7.457032zm0 0"/><use x="479.334" xlink:href="#X" y="868.1936"/><use x="487.32775" xlink:href="#ah" y="868.1936"/><use x="504.335611" xlink:href="#P" y="868.1936"/><use x="520.663784" xlink:href="#ak" y="868.1936"/><path d="m5113.632812 795.967188h5.703126v399.179687h-5.703126zm0 0" fill="none" stroke="#000" stroke-linejoin="round" stroke-miterlimit="10" stroke-width="3.99078" transform="matrix(.1 0 0 -.1 0 904.21)"/><path d="m511.363281 824.613281h.570313v-39.914062h-.570313zm0 0"/><use x="9.76328" xlink:href="#ao" y="802.805"/><use x="225.79028" xlink:href="#V" y="868.1941"/><use x="242.628585" xlink:href="#ai" y="868.1941"/><use x="259.466499" xlink:href="#H" y="868.1941"/><path d="m2531.445312 979.053125h5.703126v373.164063h-5.703126zm0 0" fill="none" stroke="#000" stroke-linejoin="round" stroke-miterlimit="10" stroke-width="3.99078" transform="matrix(.1 0 0 -.1 0 904.21)"/><path d="m253.144531 806.304688h.570313v-37.316407h-.570313zm0 0"/><path d="m1694.140625 856.982813h5.703125v425.15625h-5.703125zm0 0" fill="none" stroke="#000" stroke-linejoin="round" stroke-miterlimit="10" stroke-width="3.99078" transform="matrix(.1 0 0 -.1 0 904.21)"/><path d="m169.414062 818.511719h.570313v-42.511719h-.570313zm0 0"/><use x="137.895" xlink:href="#ac" y="868.1936"/><use x="152.862208" xlink:href="#ah" y="868.1936"/><use x="169.700513" xlink:href="#Z" y="868.1936"/><use x="65.4762" xlink:href="#am" y="827.2131"/><use x="154.2473" xlink:href="#am" y="821.11076"/><path d="m806.40625 795.967188h5.742188v399.179687h-5.742188zm0 0" fill="none" stroke="#000" stroke-linejoin="round" stroke-miterlimit="10" stroke-width="3.99078" transform="matrix(.1 0 0 -.1 0 904.21)"/><path d="m80.640625 824.613281h.574219v-39.914062h-.574219zm0 0"/><use x="237.977" xlink:href="#am" y="808.9065"/><use x="60.859" xlink:href="#al" y="868.1936"/><use x="69.192996" xlink:href="#U" y="868.1936"/></svg>