<svg height="293.79em" viewBox="0 0 595.28 293.79" width="595.28em" xmlns="http://www.w3.org/2000/svg" xmlns:xlink="http://www.w3.org/1999/xlink"><clipPath id="a"><path d="m0 51h595.28125v2h-595.28125zm0 0"/></clipPath><clipPath id="b"><path d="m0 44h595.28125v1h-595.28125zm0 0"/></clipPath><clipPath id="c"><path d="m0 36h595.28125v2h-595.28125zm0 0"/></clipPath><clipPath id="d"><path d="m0 28h595.28125v2h-595.28125zm0 0"/></clipPath><clipPath id="e"><path d="m0 21h595.28125v1h-595.28125zm0 0"/></clipPath><clipPath id="f"><path d="m594 20h1.28125v33h-1.28125zm0 0"/></clipPath><clipPath id="g"><path d="m0 144h595.28125v2h-595.28125zm0 0"/></clipPath><clipPath id="h"><path d="m0 136h595.28125v2h-595.28125zm0 0"/></clipPath><clipPath id="i"><path d="m0 129h595.28125v1h-595.28125zm0 0"/></clipPath><clipPath id="j"><path d="m0 121h595.28125v2h-595.28125zm0 0"/></clipPath><clipPath id="k"><path d="m0 113h595.28125v2h-595.28125zm0 0"/></clipPath><clipPath id="l"><path d="m594 113h1.28125v33h-1.28125zm0 0"/></clipPath><clipPath id="m"><path d="m0 237h595.28125v1h-595.28125zm0 0"/></clipPath><clipPath id="n"><path d="m0 229h595.28125v2h-595.28125zm0 0"/></clipPath><clipPath id="o"><path d="m0 221h595.28125v2h-595.28125zm0 0"/></clipPath><clipPath id="p"><path d="m0 214h595.28125v1h-595.28125zm0 0"/></clipPath><clipPath id="q"><path d="m0 206h595.28125v1h-595.28125zm0 0"/></clipPath><clipPath id="r"><path d="m591 204h4.28125v36h-4.28125zm0 0"/></clipPath><symbol id="s" overflow="visible"><path d="m6.859375-4.171875c-1.296875 0-2.53125.4375-3.640625 1.109375-1.453125.875-3.21875 2.390625-3.21875 4.578125 0 1.828125 1.609375 2.65625 3.25 2.65625 1.296875 0 2.53125-.4375 3.640625-1.109375 1.453125-.875 3.1875-2.390625 3.1875-4.578125 0-1.828125-1.578125-2.65625-3.21875-2.65625zm0 0"/></symbol><symbol id="t" overflow="visible"><path d="m11.546875-8.03125c-.484375-2.15625-1.078125-4.296875-1.6875-6.421875 2.953125-3.375 5.640625-6.828125 5.640625-11.28125 0-3.484375-1.90625-8.5-4.078125-11.09375-.140625-.109375-.328125-.109375-.484375 0-2.9375 2.140625-4.640625 5.53125-4.640625 9.125 0 1.59375.03125 3.171875.21875 4.75.21875 2.015625.75 3.953125 1.296875 5.90625-3.640625 4.140625-7.75 8.09375-7.75 13.59375 0 6.203125 4.484375 11.484375 10.28125 11.484375.96875 0 1.859375-.09375 2.75-.25.09375.984375.15625 1.984375.15625 2.96875 0 .5625-.03125 1.078125-.0625 1.640625-.1875 3.0625-2.0625 5.859375-4.9375 5.921875-.03125 0-.0625.03125-.09375.03125-1.578125 0-2.9375-.890625-3.734375-2.15625.328125.15625.703125.28125 1.078125.28125 1.609375 0 2.9375-1.328125 2.9375-2.9375 0-1.734375-1.265625-3.21875-2.9375-3.21875-1.828125 0-3.46875 1.421875-3.46875 3.21875 0 3.328125 2.6875 6.015625 6.03125 6.015625 3.640625 0 6.140625-3.265625 6.359375-6.96875.03125-.59375.03125-1.15625.03125-1.734375 0-1.109375-.0625-2.21875-.15625-3.34375.8125-.234375 1.578125-.609375 2.265625-1.140625 2.28125-1.6875 3.296875-4.078125 3.296875-6.421875 0-4.078125-3.078125-8-7.84375-8-.15625 0-.3125.03125-.46875.03125zm2.625 14.359375c-.421875-3.828125-1.140625-7.46875-1.90625-11.078125 3.390625.265625 5.53125 3.109375 5.53125 5.953125 0 2.15625-1.484375 4.390625-3.625 5.125zm-11.984375-7.28125c0-4.953125 3.34375-8.6875 6.671875-12.421875.5 1.828125 1 3.640625 1.421875 5.5-3.109375.703125-4.875 3.328125-4.875 6.046875 0 2.171875 1.109375 4.359375 3.578125 5.6875.09375.03125.1875.0625.28125.0625.34375 0 .625-.3125.625-.640625 0-.15625-.09375-.3125-.21875-.4375-1.734375-.984375-2.53125-2.46875-2.53125-3.828125 0-1.828125 1.421875-3.46875 3.859375-3.734375.796875 3.703125 1.515625 7.375 1.96875 11.328125-.828125.125-1.65625.1875-2.53125.1875-4.203125 0-8.25-3.546875-8.25-7.75zm10.515625-31.484375c.515625 1.640625.640625 2.4375.640625 4.234375 0 3.921875-2.0625 7.046875-4.609375 10.046875-.546875-1.953125-1.015625-3.84375-1.015625-6.1875 0-3.421875 1.921875-6.546875 4.984375-8.09375zm0 0"/></symbol><symbol id="u" overflow="visible"><path d="m6.640625 9.765625v-5.046875l1.515625-.515625c.1875-.0625.34375-.25.34375-.46875v-2c0-.34375-.34375-.59375-.65625-.46875l-1.203125.4375v-5.0625l1.515625-.5625c.1875-.0625.34375-.25.34375-.46875v-1.96875c0-.34375-.34375-.59375-.65625-.46875l-1.203125.40625v-4.640625c0-.28125-.25-.515625-.53125-.515625-.265625 0-.515625.234375-.515625.515625v5.015625l-2.6875.953125v-4.671875c0-.28125-.25-.515625-.53125-.515625s-.515625.234375-.515625.515625v5.046875l-1.515625.515625c-.1875.0625-.34375.25-.34375.46875v2c0 .34375.34375.59375.65625.46875l1.203125-.4375v5.0625l-1.515625.5625c-.1875.0625-.34375.25-.34375.46875v1.96875c0 .34375.34375.59375.65625.46875l1.203125-.40625v4.640625c0 .28125.234375.515625.515625.515625s.53125-.234375.53125-.515625v-5.015625l2.6875-.953125v4.671875c0 .28125.25.515625.515625.515625.28125 0 .53125-.234375.53125-.515625zm-3.734375-11.828125 2.6875-.9375v5.0625l-2.6875.9375zm0 0"/></symbol><symbol id="v" overflow="visible"><path d="m9.765625-2.0625c0 .296875-.09375.640625-.3125.890625-.65625.765625-2.125 1.734375-3.3125 2.46875-1.171875.734375-2.65625 1.734375-3.609375 2.015625-.125.03125-.28125.046875-.40625.046875-.671875 0-1.296875-.515625-1.296875-1.296875 0-.296875.09375-.640625.3125-.890625.65625-.765625 2.140625-1.734375 3.3125-2.46875s2.65625-1.734375 3.609375-2.015625c.125-.03125.28125-.046875.40625-.046875.671875 0 1.296875.515625 1.296875 1.296875zm-1.578125-2.109375c-2.3125 0-4.203125.5-5.84375 1.609375-.984375.671875-1.640625 1.734375-2 2.875-.1875.546875-.34375 1.171875-.34375 1.75 0 1.453125 1.046875 2.109375 2.40625 2.109375 2.3125 0 4.203125-.5 5.84375-1.609375.984375-.671875 1.640625-1.734375 2-2.875.1875-.546875.34375-1.171875.34375-1.75 0-1.453125-1.046875-2.109375-2.40625-2.109375zm0 0"/></symbol><symbol id="w" overflow="visible"><path d="m-1.953125-1.453125c0 1.078125.875 1.953125 1.953125 1.953125s1.953125-.875 1.953125-1.953125-.875-1.9375-1.953125-1.9375-1.953125.859375-1.953125 1.9375zm1.953125-9.671875c-4.78125 0-10.15625 5.34375-10.15625 11.1875 0 .25.234375.4375.484375.4375.21875 0 .46875-.15625.53125-.5.796875-4.609375 4.53125-8.1875 9.140625-8.1875s8.34375 3.578125 9.140625 8.1875c.0625.34375.3125.5.53125.5.25 0 .484375-.1875.484375-.4375 0-5.84375-5.34375-11.1875-10.15625-11.1875zm0 0"/></symbol><symbol id="x" overflow="visible"><path d="m14.484375 0v-7.484375c0-1.796875-.984375-2.796875-2.859375-2.796875-1.328125 0-2.125.40625-3.0625 1.53125-.59375-1.0625-1.390625-1.53125-2.6875-1.53125-1.34375 0-2.21875.5-3.078125 1.703125v-1.40625h-1.4375v9.984375h1.578125v-6.265625c0-1.453125 1.046875-2.625 2.34375-2.625 1.1875 0 1.84375.734375 1.84375 2.015625v6.875h1.59375v-6.265625c0-1.453125 1.0625-2.625 2.359375-2.625 1.15625 0 1.828125.75 1.828125 2.015625v6.875zm0 0"/></symbol><symbol id="y" overflow="visible"><path d="m9.78125-4.53125c0-1.453125-.109375-2.375-.40625-3.109375-.640625-1.640625-2.171875-2.640625-4.03125-2.640625-2.796875 0-4.578125 2.0625-4.578125 5.34375s1.734375 5.21875 4.53125 5.21875c2.296875 0 3.875-1.296875 4.265625-3.3125h-1.59375c-.4375 1.3125-1.328125 1.84375-2.609375 1.84375-1.65625 0-2.90625-1.0625-2.9375-3.34375zm-1.703125-1.421875s0 .078125-.015625.125h-5.609375c.140625-1.78125 1.265625-2.984375 2.859375-2.984375 1.5625 0 2.765625 1.296875 2.765625 2.859375zm0 0"/></symbol><symbol id="z" overflow="visible"><path d="m9.328125-1.640625v-8.34375h-1.46875v1.4375c-.8125-1.171875-1.78125-1.734375-3.0625-1.734375-2.53125 0-4.25 2.140625-4.25 5.375 0 3.15625 1.78125 5.1875 4.125 5.1875 1.25 0 2.140625-.53125 3.1875-1.78125v.65625c0 2.65625-1.09375 3.671875-2.9375 3.671875-1.265625 0-2.234375-.46875-2.421875-1.6875h-1.625c.171875 1.890625 1.640625 3.015625 3.984375 3.015625 3.125 0 4.46875-1.390625 4.46875-5.796875zm-1.625-3.296875c0 2.390625-1.03125 3.75-2.703125 3.75-1.734375 0-2.78125-1.390625-2.78125-3.8125 0-2.390625 1.0625-3.8125 2.75-3.8125 1.71875 0 2.734375 1.453125 2.734375 3.875zm0 0"/></symbol><symbol id="A" overflow="visible"><path d="m4.84375 0v-1.328125c-.21875.046875-.453125.0625-.765625.0625-.6875 0-.875-.1875-.875-.890625v-6.53125h1.640625v-1.296875h-1.640625v-2.75h-1.578125v2.75h-1.359375v1.296875h1.359375v7.234375c0 1.015625.6875 1.59375 1.921875 1.59375.375 0 .765625-.046875 1.296875-.140625zm0 0"/></symbol><symbol id="B" overflow="visible"><path d="m10.203125-.03125v-1.203125c-.171875.03125-.25.03125-.34375.03125-.5625 0-.859375-.28125-.859375-.78125v-5.5625c0-1.78125-1.296875-2.734375-3.75-2.734375-2.421875 0-3.921875.9375-4.015625 3.25h1.609375c.125-1.21875.859375-1.78125 2.34375-1.78125 1.421875 0 2.234375.546875 2.234375 1.5v.40625c0 .671875-.40625.953125-1.671875 1.109375-2.25.28125-2.578125.359375-3.203125.609375-1.15625.484375-1.75 1.375-1.75 2.59375 0 1.8125 1.265625 2.875 3.28125 2.875 1.28125 0 2.515625-.53125 3.390625-1.46875.171875.765625.859375 1.328125 1.640625 1.328125.328125 0 .578125-.046875 1.09375-.171875zm-2.78125-3.421875c0 1.4375-1.453125 2.34375-3 2.34375-1.234375 0-1.96875-.4375-1.96875-1.515625 0-1.046875.71875-1.515625 2.40625-1.765625 1.671875-.21875 2.015625-.296875 2.5625-.546875zm0 0"/></symbol><symbol id="C" overflow="visible"><path d="m2.921875 2.078125v-12.0625h-1.59375v11.4375c0 .953125-.3125 1.375-1.296875 1.3125l-.375-.015625v1.34375c.1875.046875.28125.0625.53125.0625 1.796875 0 2.734375-.71875 2.734375-2.078125zm.203125-13.578125v-1.984375h-1.984375v1.984375zm0 0"/></symbol><symbol id="D" overflow="visible"><path d="m9.71875-4.921875c0-3.453125-1.65625-5.359375-4.53125-5.359375-2.796875 0-4.5 1.9375-4.5 5.28125 0 3.359375 1.671875 5.28125 4.515625 5.28125 2.796875 0 4.515625-1.921875 4.515625-5.203125zm-1.65625-.015625c0 2.34375-1.109375 3.75-2.859375 3.75-1.765625 0-2.859375-1.390625-2.859375-3.8125 0-2.390625 1.09375-3.8125 2.859375-3.8125 1.796875 0 2.859375 1.390625 2.859375 3.875zm.65625-8.953125h-2.15625l-1.828125 2.8125h1.140625zm0 0"/></symbol><symbol id="E" overflow="visible"><path d="m2.875 0v-13.890625h-1.578125v13.890625zm0 0"/></symbol><symbol id="F" overflow="visible"><path d="m9.28125 0v-7.546875c0-1.65625-1.234375-2.734375-3.15625-2.734375-1.5 0-2.453125.578125-3.328125 1.96875v-1.671875h-1.46875v9.984375h1.59375v-5.515625c0-2.03125 1.09375-3.375 2.71875-3.375 1.265625 0 2.0625.765625 2.0625 1.96875v6.921875zm0 0"/></symbol><symbol id="G" overflow="visible"><path d="m9.1875 0v-9.984375h-1.578125v5.5c0 2.046875-1.078125 3.375-2.734375 3.375-1.25 0-2.046875-.765625-2.046875-1.953125v-6.921875h-1.59375v7.546875c0 1.65625 1.25 2.71875 3.1875 2.71875 1.46875 0 2.40625-.515625 3.34375-1.828125v1.546875zm0 0"/></symbol><symbol id="H" overflow="visible"><path d="m10.203125-.03125v-1.203125c-.171875.03125-.25.03125-.34375.03125-.5625 0-.859375-.28125-.859375-.78125v-5.5625c0-1.78125-1.296875-2.734375-3.75-2.734375-2.421875 0-3.921875.9375-4.015625 3.25h1.609375c.125-1.21875.859375-1.78125 2.34375-1.78125 1.421875 0 2.234375.546875 2.234375 1.5v.40625c0 .671875-.40625.953125-1.671875 1.109375-2.25.28125-2.578125.359375-3.203125.609375-1.15625.484375-1.75 1.375-1.75 2.59375 0 1.8125 1.265625 2.875 3.28125 2.875 1.28125 0 2.515625-.53125 3.390625-1.46875.171875.765625.859375 1.328125 1.640625 1.328125.328125 0 .578125-.046875 1.09375-.171875zm-2.78125-3.421875c0 1.4375-1.453125 2.34375-3 2.34375-1.234375 0-1.96875-.4375-1.96875-1.515625 0-1.046875.71875-1.515625 2.40625-1.765625 1.671875-.21875 2.015625-.296875 2.5625-.546875zm1.234375-10.4375h-2.15625l-1.828125 2.8125h1.140625zm0 0"/></symbol><symbol id="I" overflow="visible"><path d="m9.5625 0-4.078125-6.53125 3.46875-3.453125h-2.03125l-4.234375 4.234375v-8.140625h-1.578125v13.890625h1.578125v-3.890625l1.546875-1.515625 3.375 5.40625zm0 0"/></symbol><symbol id="J" overflow="visible"><path d="m3.65625.3125v-2.296875h-2v1.984375h1.140625v.34375c0 1.3125-.25 1.703125-1.140625 1.734375v.71875c1.34375 0 2-.859375 2-2.484375zm0 0"/></symbol><symbol id="K" overflow="visible"><path d="m9.4375 0v-13.890625h-1.578125v5.15625c-.671875-1-1.734375-1.546875-3.078125-1.546875-2.59375 0-4.28125 2.015625-4.28125 5.1875 0 3.375 1.65625 5.375 4.34375 5.375 1.375 0 2.328125-.515625 3.1875-1.75v1.46875zm-1.578125-4.953125c0 2.296875-1.109375 3.75-2.78125 3.75-1.765625 0-2.921875-1.46875-2.921875-3.796875 0-2.3125 1.15625-3.78125 2.890625-3.78125 1.71875 0 2.8125 1.515625 2.8125 3.828125zm0 0"/></symbol><symbol id="L" overflow="visible"><path d="m9.78125-4.53125c0-1.453125-.109375-2.375-.40625-3.109375-.640625-1.640625-2.171875-2.640625-4.03125-2.640625-2.796875 0-4.578125 2.0625-4.578125 5.34375s1.734375 5.21875 4.53125 5.21875c2.296875 0 3.875-1.296875 4.265625-3.3125h-1.59375c-.4375 1.3125-1.328125 1.84375-2.609375 1.84375-1.65625 0-2.90625-1.0625-2.9375-3.34375zm-1.703125-1.421875s0 .078125-.015625.125h-5.609375c.140625-1.78125 1.265625-2.984375 2.859375-2.984375 1.5625 0 2.765625 1.296875 2.765625 2.859375zm.671875-7.9375h-2.15625l-1.828125 2.8125h1.140625zm0 0"/></symbol><symbol id="M" overflow="visible"><path d="m8.75-2.796875c0-1.5-.84375-2.234375-2.828125-2.71875l-1.515625-.359375c-1.296875-.296875-1.859375-.71875-1.859375-1.421875 0-.921875.828125-1.515625 2.125-1.515625 1.28125 0 1.96875.5625 2 1.609375h1.671875c-.015625-1.96875-1.3125-3.078125-3.609375-3.078125-2.328125 0-3.84375 1.203125-3.84375 3.0625 0 1.5625.8125 2.296875 3.171875 2.875l1.484375.359375c1.109375.265625 1.546875.59375 1.546875 1.3125 0 .9375-.9375 1.484375-2.328125 1.484375-1.421875 0-2.234375-.34375-2.4375-1.859375h-1.6875c.078125 2.296875 1.375 3.328125 3.984375 3.328125 2.53125 0 4.125-1.15625 4.125-3.078125zm0 0"/></symbol><symbol id="N" overflow="visible"><path d="m14.5 0v-13.890625h-2.453125l-4.046875 12.09375-4.109375-12.09375h-2.453125v13.890625h1.671875v-11.640625l3.9375 11.640625h1.875l3.90625-11.640625v11.640625zm0 0"/></symbol><symbol id="O" overflow="visible"><path d="m2.921875 0v-9.984375h-1.59375v9.984375zm.203125-11.5v-1.984375h-1.984375v1.984375zm0 0"/></symbol><symbol id="P" overflow="visible"><path d="m9.265625 0v-7.546875c0-1.671875-1.203125-2.734375-3.140625-2.734375-1.421875 0-2.28125.4375-3.203125 1.671875v-5.28125h-1.59375v13.890625h1.59375v-5.515625c0-2.03125 1.0625-3.375 2.703125-3.375 1.125 0 2.0625.65625 2.0625 1.96875v6.921875zm0 0"/></symbol><symbol id="Q" overflow="visible"><path d="m9.71875-4.921875c0-3.453125-1.65625-5.359375-4.53125-5.359375-2.796875 0-4.5 1.9375-4.5 5.28125 0 3.359375 1.671875 5.28125 4.515625 5.28125 2.796875 0 4.515625-1.921875 4.515625-5.203125zm-1.65625-.015625c0 2.34375-1.109375 3.75-2.859375 3.75-1.765625 0-2.859375-1.390625-2.859375-3.8125 0-2.390625 1.09375-3.8125 2.859375-3.8125 1.796875 0 2.859375 1.390625 2.859375 3.875zm-1.109375-8.984375h-2.15625l-1.828125 2.859375h1.15625zm3.125 0h-2.140625l-1.84375 2.859375h1.15625zm0 0"/></symbol><symbol id="R" overflow="visible"><path d="m3.671875 0v-13.890625h-1.765625v13.890625zm0 0"/></symbol><symbol id="S" overflow="visible"><path d="m9.265625-9.984375h-1.796875l-2.8125 8.09375-2.671875-8.09375h-1.796875l3.515625 9.984375h1.734375zm0 0"/></symbol><symbol id="T" overflow="visible"><path d="m6.125-8.59375v-1.625c-.265625-.03125-.40625-.0625-.609375-.0625-1.03125 0-1.8125.609375-2.734375 2.109375v-1.8125h-1.453125v9.984375h1.59375v-5.1875c0-2.25.734375-3.375 3.203125-3.40625zm0 0"/></symbol><symbol id="U" overflow="visible"><path d="m3.640625 0v-1.984375h-1.984375v1.984375zm0-8v-1.984375h-1.984375v1.984375zm0 0"/></symbol><symbol id="V" overflow="visible"><path d="m12.546875 0-5.71875-8.234375 5.65625-5.65625h-2.28125l-6.921875 7.03125v-7.03125h-1.78125v13.890625h1.78125v-4.859375l2.265625-2.265625 4.90625 7.125zm0 0"/></symbol><symbol id="W" overflow="visible"><path d="m9.1875 0v-9.984375h-1.578125v5.5c0 2.046875-1.078125 3.375-2.734375 3.375-1.25 0-2.046875-.765625-2.046875-1.953125v-6.921875h-1.59375v7.546875c0 1.65625 1.25 2.71875 3.1875 2.71875 1.46875 0 2.40625-.515625 3.34375-1.828125v1.546875zm-4.578125-11.515625v-1.9375h-1.734375v1.9375zm3.09375 0v-1.9375h-1.734375v1.9375zm0 0"/></symbol><symbol id="X" overflow="visible"><path d="m3.453125 0v-9.984375h-1.578125v9.984375zm2.421875-13.890625h-2.15625l-1.828125 2.8125h1.140625zm0 0"/></symbol><symbol id="Y" overflow="visible"><path d="m3.640625 0v-1.984375h-1.984375v1.984375zm0 0"/></symbol><symbol id="Z" overflow="visible"><path d="m9.09375-3.4375h-1.609375c-.265625 1.609375-1.078125 2.25-2.4375 2.25-1.75 0-2.796875-1.34375-2.796875-3.71875 0-2.484375 1.03125-3.90625 2.765625-3.90625 1.328125 0 2.171875.78125 2.359375 2.171875h1.609375c-.203125-2.4375-1.71875-3.640625-3.953125-3.640625-2.6875 0-4.4375 2.0625-4.4375 5.375 0 3.234375 1.71875 5.1875 4.421875 5.1875 2.375 0 3.890625-1.421875 4.078125-3.71875zm0 0"/></symbol><symbol id="aa" overflow="visible"><path d="m12.3125 0v-13.890625h-1.671875v11.359375l-7.265625-11.359375h-1.921875v13.890625h1.671875v-11.265625l7.1875 11.265625zm0 0"/></symbol><symbol id="ab" overflow="visible"><path d="m6.421875 0v-12.046875h-1.578125c-.375 1.4375-1.609375 2.15625-3.6875 2.15625v1.578125h2.890625v8.3125zm0 0"/></symbol><symbol id="ac" overflow="visible"><path d="m3.640625 0v-2.484375h-2.546875v2.484375zm0 0"/></symbol><g clip-path="url(#a)"><path d="m4.947917 4026.057292h9911.393229" fill="none" stroke="#000" stroke-linecap="round" stroke-miterlimit="10" stroke-width="9.87007" transform="matrix(.06 0 0 -.06 0 293.79)"/></g><g clip-path="url(#b)"><path d="m4.947917 4154.768229h9911.393229" fill="none" stroke="#000" stroke-linecap="round" stroke-miterlimit="10" stroke-width="9.87007" transform="matrix(.06 0 0 -.06 0 293.79)"/></g><g clip-path="url(#c)"><path d="m4.947917 4283.414062h9911.393229" fill="none" stroke="#000" stroke-linecap="round" stroke-miterlimit="10" stroke-width="9.87007" transform="matrix(.06 0 0 -.06 0 293.79)"/></g><g clip-path="url(#d)"><path d="m4.947917 4412.125h9911.393229" fill="none" stroke="#000" stroke-linecap="round" stroke-miterlimit="10" stroke-width="9.87007" transform="matrix(.06 0 0 -.06 0 293.79)"/></g><g clip-path="url(#e)"><path d="m4.947917 4540.770833h9911.393229" fill="none" stroke="#000" stroke-linecap="round" stroke-miterlimit="10" stroke-width="9.87007" transform="matrix(.06 0 0 -.06 0 293.79)"/></g><g clip-path="url(#f)"><path d="m9911.914062 4026.057292v514.713541" fill="none" stroke="#000" stroke-miterlimit="10" stroke-width="18.7493" transform="matrix(.06 0 0 -.06 0 293.79)"/></g><path d="m5481.184896 4026.057292v514.713541" fill="none" stroke="#000" stroke-miterlimit="10" stroke-width="18.7493" transform="matrix(.06 0 0 -.06 0 293.79)"/><use x="418.400837" xlink:href="#s" y="36.783486"/><use x="404.98781" xlink:href="#x" y="79.954272"/><use x="420.805097" xlink:href="#y" y="79.954272"/><use x="431.349874" xlink:href="#z" y="79.954272"/><path d="m6976.627604 3892.138021h6.25v362.695312h-6.25zm0 0" fill="none" stroke="#000" stroke-linejoin="round" stroke-miterlimit="10" stroke-width="6.6401" transform="matrix(.06 0 0 -.06 0 293.79)"/><path d="m418.597656 60.261719h.375v-21.761719h-.375zm0 0"/><use x="460.01092" xlink:href="#s" y="40.643494"/><use x="457.143334" xlink:href="#A" y="79.953872"/><use x="462.41584" xlink:href="#B" y="79.953872"/><path d="m7670.182292 3874.885417h6.184895v315.559895h-6.184895zm0 0" fill="none" stroke="#000" stroke-linejoin="round" stroke-miterlimit="10" stroke-width="6.6401" transform="matrix(.06 0 0 -.06 0 293.79)"/><path d="m460.210938 61.296875h.371093v-18.933594h-.371093zm0 0"/><path d="m5589.648437 3926.513021h6.184896v328.255208h-6.184896zm0 0" fill="none" stroke="#000" stroke-linejoin="round" stroke-miterlimit="10" stroke-width="6.6401" transform="matrix(.06 0 0 -.06 0 293.79)"/><path d="m335.378906 58.199219h.371094v-19.695313h-.371094zm0 0"/><path d="m1448.567708 3651.513021h77.018229v4.947916h-77.018229zm0 0" fill="none" stroke="#000" stroke-linejoin="round" stroke-miterlimit="10" stroke-width="7.88833" transform="matrix(.06 0 0 -.06 0 293.79)"/><path d="m86.914062 74.699219h4.621094v-.296875h-4.621094zm0 0"/><use x="376.790754" xlink:href="#s" y="32.922478"/><use x="372.307155" xlink:href="#C" y="79.953872"/><use x="376.559193" xlink:href="#D" y="79.953872"/><use x="387.103736" xlink:href="#E" y="79.953872"/><path d="m6283.138021 3909.325521h6.184896v409.830729h-6.184896zm0 0" fill="none" stroke="#000" stroke-linejoin="round" stroke-miterlimit="10" stroke-width="6.6401" transform="matrix(.06 0 0 -.06 0 293.79)"/><path d="m376.988281 59.230469h.371094v-24.589844h-.371094zm0 0"/><path d="m7453.450521 3651.513021h77.083333v4.947916h-77.083333zm0 0" fill="none" stroke="#000" stroke-linejoin="round" stroke-miterlimit="10" stroke-width="7.88833" transform="matrix(.06 0 0 -.06 0 293.79)"/><path d="m447.207031 74.699219h4.625v-.296875h-4.625zm0 0"/><path d="m5589.648437 3950.927083v-55.143229l2086.71875-51.888021v55.078125zm0 0" fill="none" stroke="#000" stroke-linejoin="round" stroke-miterlimit="10" stroke-width="6.6401" transform="matrix(.06 0 0 -.06 0 293.79)"/><path d="m335.378906 56.734375v3.308594l125.203125 3.113281v-3.304688zm0 0"/><path d="m8765.755208 3651.513021h77.018229v4.947916h-77.018229zm0 0" fill="none" stroke="#000" stroke-linejoin="round" stroke-miterlimit="10" stroke-width="7.88833" transform="matrix(.06 0 0 -.06 0 293.79)"/><path d="m525.945312 74.699219h4.621094v-.296875h-4.621094zm0 0"/><path d="m8018.424479 3651.513021h77.018229v4.947916h-77.018229zm0 0" fill="none" stroke="#000" stroke-linejoin="round" stroke-miterlimit="10" stroke-width="7.88833" transform="matrix(.06 0 0 -.06 0 293.79)"/><path d="m481.105469 74.699219h4.621093v-.296875h-4.621093zm0 0"/><path d="m1175.130208 4594.351562v-55.143229l2161.783854 76.757813v55.143229zm0 0" fill="none" stroke="#000" stroke-linejoin="round" stroke-miterlimit="10" stroke-width="6.6401" transform="matrix(.06 0 0 -.06 0 293.79)"/><path d="m70.507812 18.128906v3.308594l129.707032-4.605469v-3.308593zm0 0"/><path d="m4379.296875 3651.513021h77.083333v4.947916h-77.083333zm0 0" fill="none" stroke="#000" stroke-linejoin="round" stroke-miterlimit="10" stroke-width="7.88833" transform="matrix(.06 0 0 -.06 0 293.79)"/><path d="m262.757812 74.699219h4.625v-.296875h-4.625zm0 0"/><path d="m3628.190104 3651.513021h77.018229v4.947916h-77.018229zm0 0" fill="none" stroke="#000" stroke-linejoin="round" stroke-miterlimit="10" stroke-width="7.88833" transform="matrix(.06 0 0 -.06 0 293.79)"/><path d="m217.691406 74.699219h4.621094v-.296875h-4.621094zm0 0"/><path d="m2062.695312 3651.513021h77.01823v4.947916h-77.01823zm0 0" fill="none" stroke="#000" stroke-linejoin="round" stroke-miterlimit="10" stroke-width="7.88833" transform="matrix(.06 0 0 -.06 0 293.79)"/><path d="m123.761719 74.699219h4.621093v-.296875h-4.621093zm0 0"/><path d="m9276.106771 4183.348958h6.184896v418.489584h-6.184896zm0 0" fill="none" stroke="#000" stroke-linejoin="round" stroke-miterlimit="10" stroke-width="6.6401" transform="matrix(.06 0 0 -.06 0 293.79)"/><path d="m556.566406 42.789062h.371094v-25.109374h-.371094zm0 0"/><use x="501.504003" xlink:href="#s" y="44.504501"/><use x="493.874148" xlink:href="#F" y="79.954272"/><use x="504.41869" xlink:href="#G" y="79.954272"/><use x="514.963467" xlink:href="#E" y="79.954272"/><path d="m8516.927083 4183.348958h6.184896v418.489584h-6.184896zm0 0" fill="none" stroke="#000" stroke-linejoin="round" stroke-miterlimit="10" stroke-width="6.6401" transform="matrix(.06 0 0 -.06 0 293.79)"/><path d="m511.015625 42.789062h.371094v-25.109374h-.371094zm0 0"/><use x="547.055094" xlink:href="#s" y="44.504501"/><use x="537.298745" xlink:href="#C" y="79.954272"/><use x="541.550524" xlink:href="#H" y="79.954272"/><use x="552.095301" xlink:href="#I" y="79.954272"/><use x="561.619821" xlink:href="#J" y="79.954272"/><use x="102.606875" xlink:href="#s" y="44.504501"/><use x="97.102564" xlink:href="#K" y="79.954272"/><use x="107.647107" xlink:href="#y" y="79.954272"/><path d="m1868.619792 4183.348958h6.184895v404.882813h-6.184895zm0 0" fill="none" stroke="#000" stroke-linejoin="round" stroke-miterlimit="10" stroke-width="6.6401" transform="matrix(.06 0 0 -.06 0 293.79)"/><path d="m112.117188 42.789062h.371093v-24.292968h-.371093zm0 0"/><use x="144.216288" xlink:href="#s" y="44.504501"/><use x="330.18666" xlink:href="#L" y="79.954272"/><use x="340.731437" xlink:href="#M" y="79.954272"/><use x="60.996122" xlink:href="#s" y="44.504501"/><use x="6.176612" xlink:href="#t" y="44.504501"/><use x="33.200066" xlink:href="#u" y="21.341455"/><use x="50.730201" xlink:href="#N" y="79.954272"/><use x="66.547489" xlink:href="#O" y="79.954272"/><use x="70.799527" xlink:href="#F" y="79.954272"/><use x="28.721857" xlink:href="#ab" y="79.954272"/><use x="38.246627" xlink:href="#ac" y="79.954272"/><path d="m1175.130208 4183.348958h6.184896v380.273438h-6.184896zm0 0" fill="none" stroke="#000" stroke-linejoin="round" stroke-miterlimit="10" stroke-width="6.6401" transform="matrix(.06 0 0 -.06 0 293.79)"/><path d="m70.507812 42.789062h.371094v-22.816406h-.371094zm0 0"/><use x="281.486563" xlink:href="#s" y="40.643494"/><use x="274.366939" xlink:href="#C" y="79.953872"/><use x="278.618977" xlink:href="#H" y="79.953872"/><use x="289.16352" xlink:href="#I" y="79.953872"/><path d="m4090.755208 4247.736979h6.184896v418.424479h-6.184896zm0 0" fill="none" stroke="#000" stroke-linejoin="round" stroke-miterlimit="10" stroke-width="6.6401" transform="matrix(.06 0 0 -.06 0 293.79)"/><path d="m245.445312 38.925781h.371094v-25.105469h-.371094zm0 0"/><use x="226.179452" xlink:href="#P" y="79.954572"/><use x="236.724229" xlink:href="#B" y="79.954572"/><use x="247.268772" xlink:href="#E" y="79.954572"/><use x="251.52081" xlink:href="#E" y="79.954572"/><use x="235.935802" xlink:href="#s" y="40.644194"/><use x="133.950598" xlink:href="#F" y="79.954572"/><use x="144.495375" xlink:href="#y" y="79.954572"/><use x="155.039917" xlink:href="#I" y="79.954572"/><path d="m4849.934896 4247.736979h6.184896v418.424479h-6.184896zm0 0" fill="none" stroke="#000" stroke-linejoin="round" stroke-miterlimit="10" stroke-width="6.6401" transform="matrix(.06 0 0 -.06 0 293.79)"/><path d="m290.996094 38.925781h.371094v-25.105469h-.371094zm0 0"/><path d="m3330.729167 4312.059896h6.184895v327.929687h-6.184895zm0 0" fill="none" stroke="#000" stroke-linejoin="round" stroke-miterlimit="10" stroke-width="6.6401" transform="matrix(.06 0 0 -.06 0 293.79)"/><path d="m199.84375 35.066406h.371094v-19.675781h-.371094zm0 0"/><use x="176.918354" xlink:href="#x" y="79.954572"/><use x="192.735875" xlink:href="#y" y="79.954572"/><use x="203.280418" xlink:href="#z" y="79.954572"/><use x="190.330681" xlink:href="#s" y="36.783786"/><use x="335.18019" xlink:href="#s" y="36.783786"/><path d="m2562.109375 4183.348958h6.25v429.427084h-6.25zm0 0" fill="none" stroke="#000" stroke-linejoin="round" stroke-miterlimit="10" stroke-width="6.6401" transform="matrix(.06 0 0 -.06 0 293.79)"/><path d="m153.726562 42.789062h.375v-25.765624h-.375zm0 0"/><g clip-path="url(#g)"><path d="m4.947917 2481.851562h9911.393229" style="fill:none;stroke-width:9.87007;stroke-linecap:round;stroke-linejoin:round;stroke:#000;stroke-miterlimit:10" transform="matrix(.06 0 0 -.06 0 293.79)"/></g><g clip-path="url(#h)"><path d="m4.947917 2610.5625h9911.393229" style="fill:none;stroke-width:9.87007;stroke-linecap:round;stroke-linejoin:round;stroke:#000;stroke-miterlimit:10" transform="matrix(.06 0 0 -.06 0 293.79)"/></g><g clip-path="url(#i)"><path d="m4.947917 2739.208333h9911.393229" style="fill:none;stroke-width:9.87007;stroke-linecap:round;stroke-linejoin:round;stroke:#000;stroke-miterlimit:10" transform="matrix(.06 0 0 -.06 0 293.79)"/></g><g clip-path="url(#j)"><path d="m4.947917 2867.919271h9911.393229" style="fill:none;stroke-width:9.87007;stroke-linecap:round;stroke-linejoin:round;stroke:#000;stroke-miterlimit:10" transform="matrix(.06 0 0 -.06 0 293.79)"/></g><g clip-path="url(#k)"><path d="m4.947917 2996.565104h9911.393229" style="fill:none;stroke-width:9.87007;stroke-linecap:round;stroke-linejoin:round;stroke:#000;stroke-miterlimit:10" transform="matrix(.06 0 0 -.06 0 293.79)"/></g><g clip-path="url(#l)"><path d="m9911.914062 2481.851562v514.713542" fill="none" stroke="#000" stroke-linejoin="round" stroke-miterlimit="10" stroke-width="18.7493" transform="matrix(.06 0 0 -.06 0 293.79)"/></g><path d="m5429.166667 2481.851562v514.713542" fill="none" stroke="#000" stroke-linejoin="round" stroke-miterlimit="10" stroke-width="18.7493" transform="matrix(.06 0 0 -.06 0 293.79)"/><use x="415.831832" xlink:href="#s" y="141.017694"/><use x="407.861186" xlink:href="#A" y="171.902056"/><use x="412.793379" xlink:href="#y" y="171.902056"/><use x="423.338156" xlink:href="#F" y="171.902056"/><path d="m7089.0625 2574.820312h6.184896v358.723959h-6.184896zm0 0" fill="none" stroke="#000" stroke-linejoin="round" stroke-miterlimit="10" stroke-width="6.6401" transform="matrix(.06 0 0 -.06 0 293.79)"/><path d="m425.34375 139.300781h.371094v-21.523437h-.371094zm0 0"/><use x="457.991916" xlink:href="#s" y="144.878702"/><use x="453.083856" xlink:href="#A" y="171.902456"/><use x="458.185736" xlink:href="#Q" y="171.902456"/><use x="468.730513" xlink:href="#E" y="171.902456"/><path d="m7791.731771 2510.497396h6.184896v380.403646h-6.184896zm0 0" fill="none" stroke="#000" stroke-linejoin="round" stroke-miterlimit="10" stroke-width="6.6401" transform="matrix(.06 0 0 -.06 0 293.79)"/><path d="m467.503906 143.160156h.371094v-22.824218h-.371094zm0 0"/><path d="m5683.658854 2703.53125h6.184896v315.299479h-6.184896zm0 0" fill="none" stroke="#000" stroke-linejoin="round" stroke-miterlimit="10" stroke-width="6.6401" transform="matrix(.06 0 0 -.06 0 293.79)"/><path d="m341.019531 131.578125h.371094v-18.917969h-.371094zm0 0"/><use x="373.669747" xlink:href="#s" y="137.156687"/><use x="371.312633" xlink:href="#R" y="171.901656"/><use x="376.585373" xlink:href="#M" y="171.901656"/><path d="m6386.328125 2639.143229h6.184896v337.044271h-6.184896zm0 0" fill="none" stroke="#000" stroke-linejoin="round" stroke-miterlimit="10" stroke-width="6.6401" transform="matrix(.06 0 0 -.06 0 293.79)"/><path d="m383.179688 135.441406h.371093v-20.222656h-.371093zm0 0"/><path d="m7352.864583 2119.091146h77.018229v4.882812h-77.018229zm0 0" fill="none" stroke="#000" stroke-linejoin="round" stroke-miterlimit="10" stroke-width="7.88833" transform="matrix(.06 0 0 -.06 0 293.79)"/><path d="m441.171875 166.648438h4.621094v-.296876h-4.621094zm0 0"/><path d="m5683.658854 3050.080729v-55.078125l2114.257813-128.710937v55.143229zm0 0" fill="none" stroke="#000" stroke-linejoin="round" stroke-miterlimit="10" stroke-width="6.6401" transform="matrix(.06 0 0 -.06 0 293.79)"/><path d="m341.019531 110.785156v3.304688l126.855469 7.722656v-3.308594zm0 0"/><path d="m8751.302083 2119.091146h77.018229v4.882812h-77.018229zm0 0" fill="none" stroke="#000" stroke-linejoin="round" stroke-miterlimit="10" stroke-width="7.88833" transform="matrix(.06 0 0 -.06 0 293.79)"/><path d="m525.078125 166.648438h4.621094v-.296876h-4.621094zm0 0"/><path d="m6577.864583 2119.091146h77.083334v4.882812h-77.083334zm0 0" fill="none" stroke="#000" stroke-linejoin="round" stroke-miterlimit="10" stroke-width="7.88833" transform="matrix(.06 0 0 -.06 0 293.79)"/><path d="m394.671875 166.648438h4.625v-.296876h-4.625zm0 0"/><path d="m1175.130208 3152.815104v-55.078125l2114.257813-25.976562v55.143229zm0 0" fill="none" stroke="#000" stroke-linejoin="round" stroke-miterlimit="10" stroke-width="6.6401" transform="matrix(.06 0 0 -.06 0 293.79)"/><path d="m70.507812 104.621094v3.304687l126.855469 1.558594v-3.308594zm0 0"/><path d="m4280.078125 2119.091146h77.083333v4.882812h-77.083333zm0 0" fill="none" stroke="#000" stroke-linejoin="round" stroke-miterlimit="10" stroke-width="7.88833" transform="matrix(.06 0 0 -.06 0 293.79)"/><path d="m256.804688 166.648438h4.625v-.296876h-4.625zm0 0"/><path d="m3517.252604 2119.091146h77.083333v4.882812h-77.083333zm0 0" fill="none" stroke="#000" stroke-linejoin="round" stroke-miterlimit="10" stroke-width="7.88833" transform="matrix(.06 0 0 -.06 0 293.79)"/><path d="m211.035156 166.648438h4.625v-.296876h-4.625zm0 0"/><path d="m2801.106771 2119.091146h77.083333v4.882812h-77.083333zm0 0" fill="none" stroke="#000" stroke-linejoin="round" stroke-miterlimit="10" stroke-width="7.88833" transform="matrix(.06 0 0 -.06 0 293.79)"/><path d="m168.066406 166.648438h4.625v-.296876h-4.625zm0 0"/><path d="m2111.914062 2119.091146h77.01823v4.882812h-77.01823zm0 0" fill="none" stroke="#000" stroke-linejoin="round" stroke-miterlimit="10" stroke-width="7.88833" transform="matrix(.06 0 0 -.06 0 293.79)"/><path d="m126.714844 166.648438h4.621094v-.296876h-4.621094zm0 0"/><path d="m9263.932292 2446.174479h6.184895v418.424479h-6.184895zm0 0" fill="none" stroke="#000" stroke-linejoin="round" stroke-miterlimit="10" stroke-width="6.6401" transform="matrix(.06 0 0 -.06 0 293.79)"/><path d="m555.835938 147.023438h.371093v-25.109376h-.371093zm0 0"/><use x="500.154" xlink:href="#s" y="148.73871"/><use x="492.184294" xlink:href="#S" y="171.902056"/><use x="501.368502" xlink:href="#H" y="171.902056"/><use x="511.913044" xlink:href="#T" y="171.902056"/><path d="m8494.401042 2446.174479h6.184895v418.424479h-6.184895zm0 0" fill="none" stroke="#000" stroke-linejoin="round" stroke-miterlimit="10" stroke-width="6.6401" transform="matrix(.06 0 0 -.06 0 293.79)"/><path d="m509.664062 147.023438h.371094v-25.109376h-.371094zm0 0"/><use x="546.326093" xlink:href="#s" y="148.73871"/><use x="536.569743" xlink:href="#C" y="171.902056"/><use x="540.821757" xlink:href="#H" y="171.902056"/><use x="551.3663" xlink:href="#I" y="171.902056"/><use x="560.891054" xlink:href="#U" y="171.902056"/><use x="60.996792" xlink:href="#s" y="133.296679"/><use x="52.771386" xlink:href="#V" y="171.902056"/><use x="65.527502" xlink:href="#O" y="171.902056"/><use x="69.77954" xlink:href="#I" y="171.902056"/><path d="m1175.130208 2703.53125h6.184896v418.359375h-6.184896zm0 0" fill="none" stroke="#000" stroke-linejoin="round" stroke-miterlimit="10" stroke-width="6.6401" transform="matrix(.06 0 0 -.06 0 293.79)"/><path d="m70.507812 131.578125h.371094v-25.101563h-.371094zm0 0"/><use x="103.158206" xlink:href="#s" y="129.435671"/><use x="98.165066" xlink:href="#M" y="171.901656"/><use x="107.689608" xlink:href="#y" y="171.901656"/><path d="m1877.864583 2767.854167h6.184896v345.442708h-6.184896zm0 0" fill="none" stroke="#000" stroke-linejoin="round" stroke-miterlimit="10" stroke-width="6.6401" transform="matrix(.06 0 0 -.06 0 293.79)"/><path d="m112.667969 127.71875h.375v-20.726562h-.375zm0 0"/><use x="145.319291" xlink:href="#s" y="133.296679"/><use x="318.094636" xlink:href="#F" y="171.902056"/><use x="328.639413" xlink:href="#y" y="171.902056"/><use x="339.183956" xlink:href="#x" y="171.902056"/><use x="6.176012" xlink:href="#t" y="137.157087"/><use x="33.199466" xlink:href="#u" y="113.99404"/><use x="139.81468" xlink:href="#z" y="171.902156"/><use x="150.359456" xlink:href="#y" y="171.902156"/><use x="229.641659" xlink:href="#s" y="141.017794"/><use x="221.501333" xlink:href="#x" y="171.902156"/><use x="237.31862" xlink:href="#W" y="171.902156"/><path d="m3985.872396 2574.820312h6.25v418.42448h-6.25zm0 0" fill="none" stroke="#000" stroke-linejoin="round" stroke-miterlimit="10" stroke-width="6.6401" transform="matrix(.06 0 0 -.06 0 293.79)"/><path d="m239.152344 139.300781h.371094v-25.105469h-.371094zm0 0"/><use x="277.744555" xlink:href="#s" y="133.296679"/><use x="270.370161" xlink:href="#I" y="171.902056"/><use x="279.554397" xlink:href="#y" y="171.902056"/><use x="289.929251" xlink:href="#A" y="171.902056"/><path d="m4787.630208 2703.53125h6.184896v418.424479h-6.184896zm0 0" fill="none" stroke="#000" stroke-linejoin="round" stroke-miterlimit="10" stroke-width="6.6401" transform="matrix(.06 0 0 -.06 0 293.79)"/><path d="m287.257812 131.578125h.371094v-25.105469h-.371094zm0 0"/><use x="331.508663" xlink:href="#s" y="133.296679"/><path d="m2580.533854 2703.53125h6.184896v401.171875h-6.184896zm0 0" fill="none" stroke="#000" stroke-linejoin="round" stroke-miterlimit="10" stroke-width="6.6401" transform="matrix(.06 0 0 -.06 0 293.79)"/><path d="m154.832031 131.578125h.371094v-24.066406h-.371094zm0 0"/><path d="m3283.203125 2639.143229h6.184896v456.901042h-6.184896zm0 0" fill="none" stroke="#000" stroke-linejoin="round" stroke-miterlimit="10" stroke-width="6.6401" transform="matrix(.06 0 0 -.06 0 293.79)"/><path d="m196.992188 135.441406h.371093v-27.414062h-.371093zm0 0"/><use x="179.85136" xlink:href="#K" y="171.901756"/><use x="190.395902" xlink:href="#y" y="171.901756"/><use x="200.940679" xlink:href="#E" y="171.901756"/><use x="187.481215" xlink:href="#s" y="137.156787"/><g clip-path="url(#m)"><path d="m4.947917 937.645833h9911.393229" style="fill:none;stroke-width:9.87007;stroke-linecap:round;stroke-linejoin:round;stroke:#000;stroke-miterlimit:10" transform="matrix(.06 0 0 -.06 0 293.79)"/></g><g clip-path="url(#n)"><path d="m4.947917 1066.356771h9911.393229" style="fill:none;stroke-width:9.87007;stroke-linecap:round;stroke-linejoin:round;stroke:#000;stroke-miterlimit:10" transform="matrix(.06 0 0 -.06 0 293.79)"/></g><g clip-path="url(#o)"><path d="m4.947917 1195.002604h9911.393229" style="fill:none;stroke-width:9.87007;stroke-linecap:round;stroke-linejoin:round;stroke:#000;stroke-miterlimit:10" transform="matrix(.06 0 0 -.06 0 293.79)"/></g><g clip-path="url(#p)"><path d="m4.947917 1323.713542h9911.393229" style="fill:none;stroke-width:9.87007;stroke-linecap:round;stroke-linejoin:round;stroke:#000;stroke-miterlimit:10" transform="matrix(.06 0 0 -.06 0 293.79)"/></g><g clip-path="url(#q)"><path d="m4.947917 1452.359375h9911.393229" style="fill:none;stroke-width:9.87007;stroke-linecap:round;stroke-linejoin:round;stroke:#000;stroke-miterlimit:10" transform="matrix(.06 0 0 -.06 0 293.79)"/></g><g clip-path="url(#r)"><path d="m9891.666667 937.645833v514.713542" fill="none" stroke="#000" stroke-linejoin="round" stroke-miterlimit="10" stroke-width="59.2076" transform="matrix(.06 0 0 -.06 0 293.79)"/></g><g fill="none" stroke="#000" stroke-linejoin="round" stroke-miterlimit="10" transform="matrix(.06 0 0 -.06 0 293.79)"><g stroke-width="18.7493"><path d="m9823.111979 937.645833v514.713542"/><path d="m5013.867187 937.645833v514.713542"/><path d="m7590.234375 937.645833v514.713542"/></g><path d="m7123.567708 1159.325521h6.184896v418.424479h-6.184896zm0 0" stroke-width="6.6401"/></g><path d="m427.414062 224.230469h.371094v-25.105469h-.371094zm0 0"/><use x="460.903922" xlink:href="#s" y="229.809972"/><use x="458.546807" xlink:href="#O" y="264.632042"/><use x="462.798846" xlink:href="#K" y="264.632042"/><path d="m7840.234375 1094.9375h6.184896v418.489583h-6.184896zm0 0" fill="none" stroke="#000" stroke-linejoin="round" stroke-miterlimit="10" stroke-width="6.6401" transform="matrix(.06 0 0 -.06 0 293.79)"/><path d="m470.414062 228.09375h.371094v-25.109375h-.371094zm0 0"/><path d="m1403.190104 573.583333h77.018229v4.882813h-77.018229zm0 0" fill="none" stroke="#000" stroke-linejoin="round" stroke-miterlimit="10" stroke-width="7.88833" transform="matrix(.06 0 0 -.06 0 293.79)"/><path d="m84.191406 259.375h4.621094v-.292969h-4.621094zm0 0"/><use x="342.001684" xlink:href="#s" y="222.088957"/><use x="336.498083" xlink:href="#z" y="264.632042"/><use x="347.042625" xlink:href="#X" y="264.632042"/><use x="352.315366" xlink:href="#A" y="264.632042"/><path d="m5858.528646 1223.648437h6.184896v354.101563h-6.184896zm0 0" fill="none" stroke="#000" stroke-linejoin="round" stroke-miterlimit="10" stroke-width="6.6401" transform="matrix(.06 0 0 -.06 0 293.79)"/><path d="m351.511719 220.371094h.371093v-21.246094h-.371093zm0 0"/><use x="412.909826" xlink:href="#L" y="264.632042"/><use x="423.454368" xlink:href="#M" y="264.632042"/><use x="380.20786" xlink:href="#s" y="222.088957"/><use x="369.94194" xlink:href="#M" y="264.632042"/><use x="379.466723" xlink:href="#L" y="264.632042"/><use x="390.011266" xlink:href="#z" y="264.632042"/><path d="m6495.3125 1223.648437h6.184896v354.101563h-6.184896zm0 0" fill="none" stroke="#000" stroke-linejoin="round" stroke-miterlimit="10" stroke-width="6.6401" transform="matrix(.06 0 0 -.06 0 293.79)"/><path d="m389.71875 220.371094h.371094v-21.246094h-.371094zm0 0"/><use x="417.902836" xlink:href="#s" y="225.949364"/><path d="m8721.940104 573.583333h77.018229v4.882813h-77.018229zm0 0" fill="none" stroke="#000" stroke-linejoin="round" stroke-miterlimit="10" stroke-width="7.88833" transform="matrix(.06 0 0 -.06 0 293.79)"/><path d="m523.316406 259.375h4.621094v-.292969h-4.621094zm0 0"/><path d="m7990.950521 573.583333h77.083333v4.882813h-77.083333zm0 0" fill="none" stroke="#000" stroke-linejoin="round" stroke-miterlimit="10" stroke-width="7.88833" transform="matrix(.06 0 0 -.06 0 293.79)"/><path d="m479.457031 259.375h4.625v-.292969h-4.625zm0 0"/><path d="m6024.21875 573.583333h77.018229v4.882813h-77.018229zm0 0" fill="none" stroke="#000" stroke-linejoin="round" stroke-miterlimit="10" stroke-width="7.88833" transform="matrix(.06 0 0 -.06 0 293.79)"/><path d="m361.453125 259.375h4.621094v-.292969h-4.621094zm0 0"/><path d="m5443.945312 573.583333h77.01823v4.882813h-77.01823zm0 0" fill="none" stroke="#000" stroke-linejoin="round" stroke-miterlimit="10" stroke-width="7.88833" transform="matrix(.06 0 0 -.06 0 293.79)"/><path d="m326.636719 259.375h4.621093v-.292969h-4.621093zm0 0"/><path d="m5263.867187 1553.53125h1865.885417v55.078125h-1865.885417zm0 0" fill="none" stroke="#000" stroke-linejoin="round" stroke-miterlimit="10" stroke-width="6.6401" transform="matrix(.06 0 0 -.06 0 293.79)"/><path d="m315.832031 200.578125h111.953125v-3.304687h-111.953125zm0 0"/><path d="m1175.130208 1505.875v-55.078125l2043.033854-51.888021v55.078125zm0 0" fill="none" stroke="#000" stroke-linejoin="round" stroke-miterlimit="10" stroke-width="6.6401" transform="matrix(.06 0 0 -.06 0 293.79)"/><path d="m70.507812 203.4375v3.304688l122.582032 3.113281v-3.304688zm0 0"/><path d="m4061.848958 573.583333h77.018229v4.882813h-77.018229zm0 0" fill="none" stroke="#000" stroke-linejoin="round" stroke-miterlimit="10" stroke-width="7.88833" transform="matrix(.06 0 0 -.06 0 293.79)"/><path d="m243.710938 259.375h4.621093v-.292969h-4.621093zm0 0"/><path d="m2754.817708 573.583333h77.083334v4.882813h-77.083334zm0 0" fill="none" stroke="#000" stroke-linejoin="round" stroke-miterlimit="10" stroke-width="7.88833" transform="matrix(.06 0 0 -.06 0 293.79)"/><path d="m165.289062 259.375h4.625v-.292969h-4.625zm0 0"/><use x="499.783" xlink:href="#s" y="233.67058"/><use x="490.19728" xlink:href="#S" y="264.632042"/><use x="499.381488" xlink:href="#y" y="264.632042"/><use x="509.926264" xlink:href="#M" y="264.632042"/><path d="m8488.216146 1030.614583h6.184896v418.424479h-6.184896zm0 0" fill="none" stroke="#000" stroke-linejoin="round" stroke-miterlimit="10" stroke-width="6.6401" transform="matrix(.06 0 0 -.06 0 293.79)"/><path d="m509.292969 231.953125h.371093v-25.105469h-.371093zm0 0"/><use x="544.451089" xlink:href="#v" y="237.530987"/><use x="549.747739" xlink:href="#w" y="204.312721"/><use x="531.803904" xlink:href="#M" y="264.632042"/><use x="541.328658" xlink:href="#L" y="264.632042"/><use x="551.8732" xlink:href="#z" y="264.632042"/><use x="562.417743" xlink:href="#Y" y="264.632042"/><path d="m9241.210937 975.536458h6.184896v409.179688h-6.184896zm0 0" fill="none" stroke="#000" stroke-linejoin="round" stroke-miterlimit="10" stroke-width="6.6401" transform="matrix(.06 0 0 -.06 0 293.79)"/><path d="m554.472656 235.257812h.371094v-24.550781h-.371094zm0 0"/><path d="m1175.130208 1094.9375h6.184896v379.882812h-6.184896zm0 0" fill="none" stroke="#000" stroke-linejoin="round" stroke-miterlimit="10" stroke-width="6.6401" transform="matrix(.06 0 0 -.06 0 293.79)"/><path d="m70.507812 228.09375h.371094v-22.792969h-.371094zm0 0"/><use x="107.706215" xlink:href="#s" y="233.67058"/><use x="92.677785" xlink:href="#Z" y="264.632042"/><use x="102.202562" xlink:href="#M" y="264.632042"/><use x="111.727338" xlink:href="#y" y="264.632042"/><use x="122.27188" xlink:href="#F" y="264.632042"/><path d="m1953.645833 1030.614583h6.184896v424.544271h-6.184896zm0 0" fill="none" stroke="#000" stroke-linejoin="round" stroke-miterlimit="10" stroke-width="6.6401" transform="matrix(.06 0 0 -.06 0 293.79)"/><path d="m117.21875 231.953125h.371094v-25.472656h-.371094zm0 0"/><use x="51.751304" xlink:href="#aa" y="264.632042"/><use x="65.527882" xlink:href="#O" y="264.632042"/><use x="69.77992" xlink:href="#F" y="264.632042"/><use x="147.527895" xlink:href="#s" y="237.530987"/><use x="145.17055" xlink:href="#R" y="264.632042"/><use x="150.44329" xlink:href="#M" y="264.632042"/><path d="m2617.317708 966.291667h6.184896v472.070312h-6.184896zm0 0" fill="none" stroke="#000" stroke-linejoin="round" stroke-miterlimit="10" stroke-width="6.6401" transform="matrix(.06 0 0 -.06 0 293.79)"/><path d="m157.039062 235.8125h.371094v-28.320312h-.371094zm0 0"/><use x="183.206366" xlink:href="#s" y="233.67058"/><use x="6.176012" xlink:href="#t" y="229.809942"/><use x="33.199466" xlink:href="#u" y="206.646896"/><use x="60.995422" xlink:href="#s" y="229.809942"/><path d="m5263.932292 1223.648437h6.184895v354.101563h-6.184895zm0 0" fill="none" stroke="#000" stroke-linejoin="round" stroke-miterlimit="10" stroke-width="6.6401" transform="matrix(.06 0 0 -.06 0 293.79)"/><path d="m315.835938 220.371094h.371093v-21.246094h-.371093zm0 0"/><use x="260.12052" xlink:href="#s" y="225.949364"/><use x="253.086676" xlink:href="#I" y="264.632142"/><use x="262.440835" xlink:href="#W" y="264.632142"/><use x="272.985377" xlink:href="#E" y="264.632142"/><use x="175.23672" xlink:href="#A" y="264.632142"/><use x="180.168914" xlink:href="#y" y="264.632142"/><use x="190.713691" xlink:href="#F" y="264.632142"/><use x="306.321983" xlink:href="#s" y="222.089057"/><use x="301.328613" xlink:href="#M" y="264.632142"/><use x="310.853396" xlink:href="#y" y="264.632142"/><path d="m4493.880208 1159.325521h6.184896v418.424479h-6.184896zm0 0" fill="none" stroke="#000" stroke-linejoin="round" stroke-miterlimit="10" stroke-width="6.6401" transform="matrix(.06 0 0 -.06 0 293.79)"/><path d="m269.632812 224.230469h.371094v-25.105469h-.371094zm0 0"/><use x="221.242442" xlink:href="#s" y="229.809972"/><use x="213.612347" xlink:href="#F" y="264.632042"/><use x="224.157124" xlink:href="#L" y="264.632042"/><use x="234.701667" xlink:href="#E" y="264.632042"/><path d="m3845.898437 1094.9375h6.184896v418.489583h-6.184896zm0 0" fill="none" stroke="#000" stroke-linejoin="round" stroke-miterlimit="10" stroke-width="6.6401" transform="matrix(.06 0 0 -.06 0 293.79)"/><path d="m230.753906 228.09375h.371094v-25.109375h-.371094zm0 0"/><path d="m3211.979167 1030.614583h6.184895v392.643229h-6.184895zm0 0" fill="none" stroke="#000" stroke-linejoin="round" stroke-miterlimit="10" stroke-width="6.6401" transform="matrix(.06 0 0 -.06 0 293.79)"/><path d="m192.71875 231.953125h.371094v-23.558594h-.371094zm0 0"/></svg>