<svg height="854.08em" viewBox="0 0 595.28 854.08" width="595.28em" xmlns="http://www.w3.org/2000/svg" xmlns:xlink="http://www.w3.org/1999/xlink"><clipPath id="a"><path d="m0 67h595.28125v1h-595.28125zm0 0"/></clipPath><clipPath id="b"><path d="m0 57h595.28125v1h-595.28125zm0 0"/></clipPath><clipPath id="c"><path d="m0 47h595.28125v1h-595.28125zm0 0"/></clipPath><clipPath id="d"><path d="m0 37h595.28125v1h-595.28125zm0 0"/></clipPath><clipPath id="e"><path d="m0 27h595.28125v1h-595.28125zm0 0"/></clipPath><clipPath id="f"><path d="m0 186h595.28125v2h-595.28125zm0 0"/></clipPath><clipPath id="g"><path d="m0 176h595.28125v2h-595.28125zm0 0"/></clipPath><clipPath id="h"><path d="m0 166h595.28125v2h-595.28125zm0 0"/></clipPath><clipPath id="i"><path d="m0 156h595.28125v2h-595.28125zm0 0"/></clipPath><clipPath id="j"><path d="m0 146h595.28125v2h-595.28125zm0 0"/></clipPath><clipPath id="k"><path d="m0 306h595.28125v1h-595.28125zm0 0"/></clipPath><clipPath id="l"><path d="m0 296h595.28125v1h-595.28125zm0 0"/></clipPath><clipPath id="m"><path d="m0 286h595.28125v1h-595.28125zm0 0"/></clipPath><clipPath id="n"><path d="m0 276h595.28125v1h-595.28125zm0 0"/></clipPath><clipPath id="o"><path d="m0 266h595.28125v1h-595.28125zm0 0"/></clipPath><clipPath id="p"><path d="m594 266h1.28125v42h-1.28125zm0 0"/></clipPath><clipPath id="q"><path d="m0 425h595.28125v2h-595.28125zm0 0"/></clipPath><clipPath id="r"><path d="m0 415h595.28125v2h-595.28125zm0 0"/></clipPath><clipPath id="s"><path d="m0 405h595.28125v2h-595.28125zm0 0"/></clipPath><clipPath id="t"><path d="m0 395h595.28125v2h-595.28125zm0 0"/></clipPath><clipPath id="u"><path d="m0 385h595.28125v2h-595.28125zm0 0"/></clipPath><clipPath id="v"><path d="m591 384h4.28125v45h-4.28125zm0 0"/></clipPath><clipPath id="w"><path d="m0 547h595.28125v1h-595.28125zm0 0"/></clipPath><clipPath id="x"><path d="m0 537h595.28125v1h-595.28125zm0 0"/></clipPath><clipPath id="y"><path d="m0 527h595.28125v1h-595.28125zm0 0"/></clipPath><clipPath id="z"><path d="m0 517h595.28125v1h-595.28125zm0 0"/></clipPath><clipPath id="A"><path d="m0 507h595.28125v1h-595.28125zm0 0"/></clipPath><clipPath id="B"><path d="m0 666h595.28125v2h-595.28125zm0 0"/></clipPath><clipPath id="C"><path d="m0 656h595.28125v2h-595.28125zm0 0"/></clipPath><clipPath id="D"><path d="m0 646h595.28125v2h-595.28125zm0 0"/></clipPath><clipPath id="E"><path d="m0 636h595.28125v2h-595.28125zm0 0"/></clipPath><clipPath id="F"><path d="m0 626h595.28125v2h-595.28125zm0 0"/></clipPath><clipPath id="G"><path d="m0 786h595.28125v1h-595.28125zm0 0"/></clipPath><clipPath id="H"><path d="m0 776h595.28125v1h-595.28125zm0 0"/></clipPath><clipPath id="I"><path d="m0 766h595.28125v1h-595.28125zm0 0"/></clipPath><clipPath id="J"><path d="m0 756h595.28125v1h-595.28125zm0 0"/></clipPath><clipPath id="K"><path d="m0 746h595.28125v1h-595.28125zm0 0"/></clipPath><clipPath id="L"><path d="m591 744h4.28125v45h-4.28125zm0 0"/></clipPath><symbol id="M" overflow="visible"><path d="m8.84375-5.375c-1.671875 0-3.265625.546875-4.703125 1.4375-1.875 1.109375-4.140625 3.0625-4.140625 5.890625 0 2.34375 2.078125 3.421875 4.1875 3.421875 1.671875 0 3.265625-.546875 4.703125-1.4375 1.875-1.109375 4.09375-3.0625 4.09375-5.890625 0-2.34375-2.03125-3.421875-4.140625-3.421875zm0 0"/></symbol><symbol id="N" overflow="visible"><path d="m5.65625 0c.15625 0 .328125-.15625.328125-.3125v-9.328125c0-.15625-.171875-.328125-.328125-.328125h-5.34375c-.15625 0-.3125.171875-.3125.328125v9.328125c0 .15625.15625.3125.3125.3125zm0 0"/></symbol><symbol id="O" overflow="visible"><path d="m8.5625 12.59375v-6.5l1.953125-.671875c.25-.078125.4375-.328125.4375-.59375v-2.59375c0-.4375-.4375-.765625-.828125-.59375l-1.5625.546875v-6.53125l1.953125-.71875c.25-.078125.4375-.3125.4375-.59375v-2.546875c0-.4375-.4375-.765625-.828125-.609375l-1.5625.53125v-5.984375c0-.359375-.3125-.671875-.671875-.671875s-.671875.3125-.671875.671875v6.453125l-3.46875 1.234375v-6.015625c0-.359375-.328125-.671875-.6875-.671875s-.671875.3125-.671875.671875v6.5l-1.953125.671875c-.234375.078125-.4375.328125-.4375.59375v2.59375c0 .4375.4375.765625.84375.59375l1.546875-.546875v6.53125l-1.953125.71875c-.234375.078125-.4375.3125-.4375.59375v2.546875c0 .4375.4375.765625.84375.609375l1.546875-.53125v5.984375c0 .359375.3125.671875.671875.671875s.6875-.3125.6875-.671875v-6.453125l3.46875-1.234375v6.015625c0 .359375.3125.671875.671875.671875s.671875-.3125.671875-.671875zm-4.8125-15.265625 3.46875-1.1875v6.53125l-3.46875 1.1875zm0 0"/></symbol><symbol id="P" overflow="visible"><path d="m14.90625-10.359375c-.640625-2.796875-1.40625-5.53125-2.203125-8.28125 3.828125-4.34375 7.296875-8.8125 7.296875-14.546875 0-4.5-2.46875-10.953125-5.25-14.3125-.203125-.15625-.453125-.15625-.640625 0-3.796875 2.75-5.984375 7.140625-5.984375 11.765625 0 2.0625.046875 4.09375.28125 6.125.28125 2.59375.953125 5.109375 1.671875 7.609375-4.703125 5.34375-10 10.4375-10 17.53125 0 8.015625 5.78125 14.828125 13.265625 14.828125 1.234375 0 2.390625-.125 3.546875-.3125.125 1.265625.203125 2.546875.203125 3.8125 0 .71875-.046875 1.40625-.078125 2.125-.234375 3.9375-2.671875 7.5625-6.375 7.640625-.046875 0-.078125.046875-.125.046875-2.03125 0-3.78125-1.15625-4.8125-2.796875.4375.203125.90625.359375 1.390625.359375 2.078125 0 3.78125-1.703125 3.78125-3.78125 0-2.234375-1.625-4.140625-3.78125-4.140625-2.359375 0-4.46875 1.828125-4.46875 4.140625 0 4.296875 3.46875 7.765625 7.78125 7.765625 4.6875 0 7.921875-4.21875 8.203125-9 .03125-.765625.03125-1.46875.03125-2.234375 0-1.4375-.078125-2.875-.1875-4.296875 1.03125-.328125 2.03125-.796875 2.90625-1.484375 2.953125-2.1875 4.265625-5.25 4.265625-8.28125 0-5.265625-3.984375-10.328125-10.125-10.328125-.203125 0-.40625.046875-.59375.046875zm3.375 18.53125c-.546875-4.9375-1.46875-9.640625-2.46875-14.3125 4.390625.359375 7.140625 4.03125 7.140625 7.6875 0 2.796875-1.921875 5.671875-4.671875 6.625zm-15.453125-9.40625c0-6.375 4.296875-11.203125 8.609375-16.015625.640625 2.34375 1.265625 4.703125 1.828125 7.09375-4.015625.90625-6.296875 4.296875-6.296875 7.8125 0 2.78125 1.4375 5.609375 4.625 7.328125.125.03125.234375.078125.359375.078125.4375 0 .796875-.40625.796875-.84375 0-.1875-.125-.390625-.28125-.546875-2.234375-1.28125-3.265625-3.1875-3.265625-4.953125 0-2.34375 1.828125-4.453125 4.984375-4.8125 1.03125 4.78125 1.953125 9.515625 2.546875 14.625-1.078125.15625-2.15625.234375-3.265625.234375-5.421875 0-10.640625-4.578125-10.640625-10zm13.546875-40.609375c.671875 2.125.84375 3.15625.84375 5.46875 0 5.0625-2.671875 9.078125-5.9375 12.953125-.71875-2.515625-1.3125-4.953125-1.3125-7.96875 0-4.421875 2.46875-8.453125 6.40625-10.453125zm0 0"/></symbol><symbol id="Q" overflow="visible"><path d="m0 0c0 1.28125 1 2.265625 2.265625 2.265625 1.28125 0 2.28125-.984375 2.28125-2.265625s-1-2.265625-2.28125-2.265625c-1.265625 0-2.265625.984375-2.265625 2.265625zm0 0"/></symbol><symbol id="R" overflow="visible"><path d="m5.65625 9.96875c.15625 0 .328125-.171875.328125-.328125v-19.28125c0-.15625-.171875-.328125-.328125-.328125h-5.34375c-.15625 0-.3125.171875-.3125.328125v19.28125c0 .15625.15625.328125.3125.328125zm0 0"/></symbol><symbol id="S" overflow="visible"><path d="m-2.515625-1.875c0 1.390625 1.125 2.515625 2.515625 2.515625s2.515625-1.125 2.515625-2.515625-1.125-2.515625-2.515625-2.515625-2.515625 1.125-2.515625 2.515625zm2.515625-12.46875c-6.171875 0-13.109375 6.890625-13.109375 14.421875 0 .328125.3125.5625.640625.5625.28125 0 .59375-.203125.671875-.640625 1.03125-5.9375 5.859375-10.5625 11.796875-10.5625s10.765625 4.625 11.796875 10.5625c.078125.4375.390625.640625.671875.640625.328125 0 .640625-.234375.640625-.5625 0-7.53125-6.890625-14.421875-13.109375-14.421875zm0 0"/></symbol><symbol id="T" overflow="visible"><path d="m12.03125-2.109375v-10.78125h-1.90625v1.875c-1.03125-1.53125-2.28125-2.234375-3.921875-2.234375-3.28125 0-5.484375 2.75-5.484375 6.921875 0 4.0625 2.28125 6.703125 5.3125 6.703125 1.625 0 2.75-.6875 4.09375-2.3125v.859375c0 3.421875-1.390625 4.71875-3.78125 4.71875-1.625 0-2.875-.59375-3.125-2.171875h-2.09375c.234375 2.4375 2.125 3.890625 5.140625 3.890625 4.046875 0 5.765625-1.796875 5.765625-7.46875zm-2.09375-4.265625c0 3.078125-1.328125 4.84375-3.5 4.84375-2.234375 0-3.578125-1.78125-3.578125-4.90625 0-3.109375 1.375-4.921875 3.5625-4.921875 2.203125 0 3.515625 1.859375 3.515625 4.984375zm0 0"/></symbol><symbol id="U" overflow="visible"><path d="m13.15625-.046875v-1.546875c-.21875.046875-.3125.046875-.4375.046875-.71875 0-1.109375-.375-1.109375-1.015625v-7.171875c0-2.296875-1.671875-3.515625-4.84375-3.515625-3.125 0-5.046875 1.203125-5.171875 4.171875h2.078125c.171875-1.578125 1.09375-2.28125 3.015625-2.28125 1.84375 0 2.875.6875 2.875 1.921875v.53125c0 .859375-.515625 1.234375-2.140625 1.4375-2.890625.359375-3.34375.453125-4.125.78125-1.5.609375-2.265625 1.765625-2.265625 3.34375 0 2.328125 1.625 3.71875 4.234375 3.71875 1.640625 0 3.25-.6875 4.375-1.90625.21875.984375 1.109375 1.703125 2.109375 1.703125.421875 0 .75-.046875 1.40625-.21875zm-3.59375-4.40625c0 1.84375-1.859375 3.03125-3.859375 3.03125-1.59375 0-2.53125-.5625-2.53125-1.96875 0-1.359375.90625-1.953125 3.09375-2.265625 2.171875-.296875 2.609375-.390625 3.296875-.71875zm0 0"/></symbol><symbol id="V" overflow="visible"><path d="m11.953125 0v-9.734375c0-2.171875-1.546875-3.515625-4.0625-3.515625-1.8125 0-2.921875.5625-4.125 2.140625v-6.8125h-2.046875v17.921875h2.046875v-7.109375c0-2.625 1.375-4.34375 3.484375-4.34375 1.453125 0 2.65625.828125 2.65625 2.53125v8.921875zm0 0"/></symbol><symbol id="W" overflow="visible"><path d="m3.71875 0v-17.921875h-2.046875v17.921875zm0 0"/></symbol><symbol id="X" overflow="visible"><path d="m18.6875 0v-9.671875c0-2.3125-1.28125-3.578125-3.6875-3.578125-1.71875 0-2.75.515625-3.953125 1.96875-.765625-1.390625-1.796875-1.96875-3.46875-1.96875-1.71875 0-2.859375.640625-3.96875 2.1875v-1.828125h-1.859375v12.890625h2.03125v-8.09375c0-1.859375 1.359375-3.359375 3.03125-3.359375 1.53125 0 2.390625.921875 2.390625 2.578125v8.875h2.03125v-8.09375c0-1.859375 1.375-3.359375 3.046875-3.359375 1.515625 0 2.375.953125 2.375 2.578125v8.875zm0 0"/></symbol><symbol id="Y" overflow="visible"><path d="m12.609375-5.859375c0-1.859375-.140625-3.046875-.515625-4-.828125-2.125-2.796875-3.390625-5.203125-3.390625-3.59375 0-5.90625 2.65625-5.90625 6.875 0 4.234375 2.234375 6.75 5.859375 6.75 2.9375 0 4.984375-1.671875 5.5-4.28125h-2.0625c-.5625 1.6875-1.71875 2.375-3.375 2.375-2.140625 0-3.734375-1.375-3.78125-4.328125zm-2.1875-1.8125s0 .09375-.015625.140625h-7.234375c.171875-2.28125 1.625-3.828125 3.6875-3.828125 2.015625 0 3.5625 1.671875 3.5625 3.6875zm0 0"/></symbol><symbol id="Z" overflow="visible"><path d="m6.25 0v-1.71875c-.28125.078125-.59375.09375-.984375.09375-.890625 0-1.140625-.25-1.140625-1.15625v-8.4375h2.125v-1.671875h-2.125v-3.53125h-2.03125v3.53125h-1.75v1.671875h1.75v9.34375c0 1.3125.875 2.046875 2.484375 2.046875.484375 0 .984375-.046875 1.671875-.171875zm0 0"/></symbol><symbol id="aa" overflow="visible"><path d="m12.546875-6.34375c0-4.453125-2.140625-6.90625-5.859375-6.90625-3.609375 0-5.796875 2.484375-5.796875 6.8125s2.15625 6.8125 5.828125 6.8125c3.609375 0 5.828125-2.484375 5.828125-6.71875zm-2.140625-.03125c0 3.03125-1.421875 4.84375-3.6875 4.84375-2.296875 0-3.6875-1.78125-3.6875-4.90625 0-3.109375 1.390625-4.921875 3.6875-4.921875 2.3125 0 3.6875 1.796875 3.6875 4.984375zm.828125-11.546875h-2.78125l-2.359375 3.640625h1.484375zm0 0"/></symbol><symbol id="ab" overflow="visible"><path d="m18.25-8.6875c0-5.78125-3.421875-9.6875-8.6875-9.6875-5.140625 0-8.625 3.9375-8.625 9.546875s3.484375 9.265625 8.65625 9.265625c5.265625 0 8.65625-3.859375 8.65625-9.125zm-2.28125-.046875c0 4.328125-2.59375 7.15625-6.375 7.15625-3.8125 0-6.375-2.828125-6.375-7.25s2.5625-7.53125 6.34375-7.53125c3.890625 0 6.40625 3.109375 6.40625 7.625zm-1.109375-13.796875h-3.34375l-2.828125 3.28125h1.765625zm0 0"/></symbol><symbol id="ac" overflow="visible"><path d="m4.71875.390625v-2.953125h-2.578125v2.5625h1.46875v.4375c0 1.703125-.3125 2.1875-1.46875 2.25v.921875c1.71875 0 2.578125-1.09375 2.578125-3.21875zm0 0"/></symbol><symbol id="ad" overflow="visible"><path d="m11.984375 0v-9.734375c0-2.140625-1.609375-3.515625-4.09375-3.515625-1.921875 0-3.140625.734375-4.28125 2.53125v-2.171875h-1.890625v12.890625h2.046875v-7.109375c0-2.625 1.421875-4.34375 3.515625-4.34375 1.625 0 2.65625.96875 2.65625 2.53125v8.921875zm0 0"/></symbol><symbol id="ae" overflow="visible"><path d="m11.75-12.890625h-2.203125l-3.578125 10.03125-3.28125-10.03125h-2.203125l4.359375 12.9375-.78125 2.046875c-.34375.90625-.765625 1.25-1.65625 1.25-.296875 0-.640625-.046875-1.078125-.140625v1.84375c.421875.21875.84375.3125 1.375.3125 1.453125 0 2.640625-.8125 3.328125-2.65625zm0 0"/></symbol><symbol id="af" overflow="visible"><path d="m12.546875-6.34375c0-4.453125-2.140625-6.90625-5.859375-6.90625-3.609375 0-5.796875 2.484375-5.796875 6.8125s2.15625 6.8125 5.828125 6.8125c3.609375 0 5.828125-2.484375 5.828125-6.71875zm-2.140625-.03125c0 3.03125-1.421875 4.84375-3.6875 4.84375-2.296875 0-3.6875-1.78125-3.6875-4.90625 0-3.109375 1.390625-4.921875 3.6875-4.921875 2.3125 0 3.6875 1.796875 3.6875 4.984375zm-4.453125-8.484375v-2.5h-2.234375v2.5zm3.984375 0v-2.5h-2.234375v2.5zm0 0"/></symbol><symbol id="ag" overflow="visible"><path d="m7.890625-11.09375v-2.09375c-.34375-.046875-.515625-.0625-.78125-.0625-1.328125 0-2.34375.78125-3.515625 2.703125v-2.34375h-1.875v12.890625h2.046875v-6.6875c0-2.90625.953125-4.359375 4.125-4.40625zm0 0"/></symbol><symbol id="ah" overflow="visible"><path d="m12.609375-5.859375c0-1.859375-.140625-3.046875-.515625-4-.828125-2.125-2.796875-3.390625-5.203125-3.390625-3.59375 0-5.90625 2.65625-5.90625 6.875 0 4.234375 2.234375 6.75 5.859375 6.75 2.9375 0 4.984375-1.671875 5.5-4.28125h-2.0625c-.5625 1.6875-1.71875 2.375-3.375 2.375-2.140625 0-3.734375-1.375-3.78125-4.328125zm-2.1875-1.8125s0 .09375-.015625.140625h-7.234375c.171875-2.28125 1.625-3.828125 3.6875-3.828125 2.015625 0 3.5625 1.671875 3.5625 3.6875zm.859375-10.25h-2.765625l-2.359375 3.640625h1.46875zm0 0"/></symbol><symbol id="ai" overflow="visible"><path d="m11.28125-3.609375c0-1.921875-1.078125-2.890625-3.625-3.5l-1.96875-.46875c-1.671875-.390625-2.390625-.9375-2.390625-1.84375 0-1.171875 1.0625-1.9375 2.734375-1.9375 1.640625 0 2.53125.703125 2.578125 2.0625h2.15625c-.015625-2.53125-1.6875-3.953125-4.671875-3.953125-3 0-4.9375 1.546875-4.9375 3.921875 0 2.03125 1.03125 2.984375 4.078125 3.71875l1.921875.46875c1.421875.34375 2 .765625 2 1.703125 0 1.203125-1.21875 1.90625-3 1.90625-1.859375 0-2.890625-.4375-3.15625-2.40625h-2.15625c.09375 2.984375 1.765625 4.3125 5.125 4.3125 3.25 0 5.3125-1.5 5.3125-3.984375zm0 0"/></symbol><symbol id="aj" overflow="visible"><path d="m12.34375 0-5.265625-8.4375 4.484375-4.453125h-2.640625l-5.453125 5.46875v-10.5h-2.046875v17.921875h2.046875v-5.015625l1.984375-1.96875 4.359375 6.984375zm0 0"/></symbol><symbol id="ak" overflow="visible"><path d="m12.171875 0v-17.921875h-2.046875v6.65625c-.859375-1.296875-2.234375-1.984375-3.953125-1.984375-3.34375 0-5.53125 2.578125-5.53125 6.6875 0 4.34375 2.140625 6.9375 5.609375 6.9375 1.765625 0 3-.671875 4.109375-2.265625v1.890625zm-2.046875-6.390625c0 2.96875-1.421875 4.84375-3.578125 4.84375-2.265625 0-3.765625-1.890625-3.765625-4.890625s1.5-4.90625 3.734375-4.90625c2.21875 0 3.609375 1.96875 3.609375 4.953125zm0 0"/></symbol><symbol id="al" overflow="visible"><path d="m3.765625 0v-12.890625h-2.046875v12.890625zm.265625-14.828125v-2.5625h-2.5625v2.5625zm0 0"/></symbol><symbol id="am" overflow="visible"><path d="m15.078125 0v-2.015625h-10.578125v-6.15625h9.765625v-2.015625h-9.765625v-5.71875h10.140625v-2.015625h-12.421875v17.921875zm-1.359375-22.53125h-3.34375l-2.828125 3.28125h1.78125zm0 0"/></symbol><symbol id="an" overflow="visible"><path d="m16.0625 0-6.296875-17.921875h-2.953125l-6.390625 17.921875h2.4375l1.890625-5.390625h6.90625l1.84375 5.390625zm-5.046875-7.296875h-5.703125l2.953125-8.171875zm0 0"/></symbol><symbol id="ao" overflow="visible"><path d="m11.234375 0v-1.796875h-7.984375l7.640625-9.265625v-1.828125h-9.609375v1.796875h7.171875l-7.6875 9.25v1.84375zm0 0"/></symbol><symbol id="ap" overflow="visible"><path d="m13.15625-.046875v-1.546875c-.21875.046875-.3125.046875-.4375.046875-.71875 0-1.109375-.375-1.109375-1.015625v-7.171875c0-2.296875-1.671875-3.515625-4.84375-3.515625-3.125 0-5.046875 1.203125-5.171875 4.171875h2.078125c.171875-1.578125 1.09375-2.28125 3.015625-2.28125 1.84375 0 2.875.6875 2.875 1.921875v.53125c0 .859375-.515625 1.234375-2.140625 1.4375-2.890625.359375-3.34375.453125-4.125.78125-1.5.609375-2.265625 1.765625-2.265625 3.34375 0 2.328125 1.625 3.71875 4.234375 3.71875 1.640625 0 3.25-.6875 4.375-1.90625.21875.984375 1.109375 1.703125 2.109375 1.703125.421875 0 .75-.046875 1.40625-.21875zm-3.59375-4.40625c0 1.84375-1.859375 3.03125-3.859375 3.03125-1.59375 0-2.53125-.5625-2.53125-1.96875 0-1.359375.90625-1.953125 3.09375-2.265625 2.171875-.296875 2.609375-.390625 3.296875-.71875zm1.609375-13.46875h-2.78125l-2.359375 3.640625h1.46875zm0 0"/></symbol><symbol id="aq" overflow="visible"><path d="m15.84375 0v-17.921875h-2.296875v7.734375h-9.21875v-7.734375h-2.28125v17.921875h2.28125v-8.171875h9.21875v8.171875zm0 0"/></symbol><symbol id="ar" overflow="visible"><path d="m12.546875-6.34375c0-4.453125-2.140625-6.90625-5.859375-6.90625-3.609375 0-5.796875 2.484375-5.796875 6.8125s2.15625 6.8125 5.828125 6.8125c3.609375 0 5.828125-2.484375 5.828125-6.71875zm-2.140625-.03125c0 3.03125-1.421875 4.84375-3.6875 4.84375-2.296875 0-3.6875-1.78125-3.6875-4.90625 0-3.109375 1.390625-4.921875 3.6875-4.921875 2.3125 0 3.6875 1.796875 3.6875 4.984375zm0 0"/></symbol><symbol id="as" overflow="visible"><path d="m3.765625 2.6875v-15.578125h-2.046875v14.765625c0 1.21875-.421875 1.765625-1.671875 1.6875l-.484375-.015625v1.734375c.234375.0625.359375.078125.6875.078125 2.3125 0 3.515625-.9375 3.515625-2.671875zm.265625-17.515625v-2.5625h-2.5625v2.5625zm0 0"/></symbol><symbol id="at" overflow="visible"><path d="m12.859375-6.59375c0-4.171875-2.109375-6.65625-5.5-6.65625-1.78125 0-3.03125.65625-3.984375 2.109375v-6.78125h-2.046875v17.921875h1.84375v-1.84375c.984375 1.5 2.28125 2.21875 4.078125 2.21875 3.40625 0 5.609375-2.78125 5.609375-6.96875zm-2.140625.125c0 2.921875-1.515625 4.921875-3.765625 4.921875-2.15625 0-3.578125-1.96875-3.578125-4.890625 0-3.03125 1.421875-5 3.578125-4.90625 2.296875 0 3.765625 2 3.765625 4.875zm0 0"/></symbol><symbol id="au" overflow="visible"><path d="m11.859375 0v-12.890625h-2.046875v7.109375c0 2.640625-1.375 4.359375-3.515625 4.359375-1.625 0-2.65625-.984375-2.65625-2.53125v-8.9375h-2.046875v9.75c0 2.125 1.609375 3.515625 4.109375 3.515625 1.890625 0 3.09375-.671875 4.3125-2.359375v1.984375zm0 0"/></symbol><symbol id="av" overflow="visible"><path d="m4.703125 0v-2.5625h-2.5625v2.5625zm0-10.328125v-2.5625h-2.5625v2.5625zm0 0"/></symbol><symbol id="aw" overflow="visible"><path d="m15.078125 0v-2.015625h-10.578125v-6.15625h9.765625v-2.015625h-9.765625v-5.71875h10.140625v-2.015625h-12.421875v17.921875zm0 0"/></symbol><symbol id="ax" overflow="visible"><path d="m11.953125-12.890625h-2.3125l-3.640625 10.453125-3.4375-10.453125h-2.3125l4.515625 12.890625h2.25zm0 0"/></symbol><symbol id="ay" overflow="visible"><path d="m12.546875-6.34375c0-4.453125-2.140625-6.90625-5.859375-6.90625-3.609375 0-5.796875 2.484375-5.796875 6.8125s2.15625 6.8125 5.828125 6.8125c3.609375 0 5.828125-2.484375 5.828125-6.71875zm-2.140625-.03125c0 3.03125-1.421875 4.84375-3.6875 4.84375-2.296875 0-3.6875-1.78125-3.6875-4.90625 0-3.109375 1.390625-4.921875 3.6875-4.921875 2.3125 0 3.6875 1.796875 3.6875 4.984375zm-1.421875-11.578125h-2.78125l-2.359375 3.6875h1.46875zm4.03125 0h-2.78125l-2.359375 3.6875h1.46875zm0 0"/></symbol><symbol id="az" overflow="visible"><path d="m4.703125 0v-2.5625h-2.5625v2.5625zm0 0"/></symbol><symbol id="aA" overflow="visible"><path d="m18.71875 0v-17.921875h-3.171875l-5.21875 15.609375-5.3125-15.609375h-3.171875v17.921875h2.171875v-15.03125l5.078125 15.03125h2.421875l5.03125-15.03125v15.03125zm0 0"/></symbol><symbol id="aB" overflow="visible"><path d="m6.34375-11.21875v-1.671875h-2.140625v-2.015625c0-.859375.5-1.296875 1.421875-1.296875.171875 0 .25 0 .71875.015625v-1.6875c-.46875-.109375-.734375-.125-1.15625-.125-1.890625 0-3.015625 1.078125-3.015625 2.921875v2.1875h-1.734375v1.671875h1.734375v11.21875h2.03125v-11.21875zm0 0"/></symbol><symbol id="aC" overflow="visible"><path d="m8.28125 0v-15.546875h-2.03125c-.484375 1.84375-2.078125 2.78125-4.765625 2.78125v2.046875h3.734375v10.71875zm0 0"/></symbol><symbol id="aD" overflow="visible"><path d="m4.6875 0v-3.203125h-3.28125v3.203125zm0 0"/></symbol><g clip-path="url(#a)"><path d="m5.598958 13111.229167h9910.091146" fill="none" stroke="#000" stroke-linecap="round" stroke-miterlimit="10" stroke-width="11.1416" transform="matrix(.06 0 0 -.06 0 854.08)"/></g><g clip-path="url(#b)"><path d="m5.598958 13277.309896h9910.091146" fill="none" stroke="#000" stroke-linecap="round" stroke-miterlimit="10" stroke-width="11.1416" transform="matrix(.06 0 0 -.06 0 854.08)"/></g><g clip-path="url(#c)"><path d="m5.598958 13443.325521h9910.091146" fill="none" stroke="#000" stroke-linecap="round" stroke-miterlimit="10" stroke-width="11.1416" transform="matrix(.06 0 0 -.06 0 854.08)"/></g><g clip-path="url(#d)"><path d="m5.598958 13609.276042h9910.091146" fill="none" stroke="#000" stroke-linecap="round" stroke-miterlimit="10" stroke-width="11.1416" transform="matrix(.06 0 0 -.06 0 854.08)"/></g><g clip-path="url(#e)"><path d="m5.598958 13775.421875h9910.091146" fill="none" stroke="#000" stroke-linecap="round" stroke-miterlimit="10" stroke-width="11.1416" transform="matrix(.06 0 0 -.06 0 854.08)"/></g><use x="530.406061" xlink:href="#M" y="62.424417"/><path d="m7964.583333 13147.231771h7.8125v541.796875h-7.8125zm0 0" style="fill:none;stroke-width:6.64176;stroke-linecap:round;stroke-linejoin:round;stroke:#000;stroke-miterlimit:10" transform="matrix(.06 0 0 -.06 0 854.08)"/><path d="m477.875 65.246094h.46875v-32.507813h-.46875zm0 0"/><use x="458.433917" xlink:href="#T" y="105.274502"/><use x="472.040144" xlink:href="#U" y="105.274502"/><use x="465.536431" xlink:href="#M" y="67.405527"/><path d="m6883.398437 13064.223958h7.877605v541.796875h-7.877605zm0 0" style="fill:none;stroke-width:6.64176;stroke-linecap:round;stroke-linejoin:round;stroke:#000;stroke-miterlimit:10" transform="matrix(.06 0 0 -.06 0 854.08)"/><path d="m413.003906 70.226562h.472656v-32.507812h-.472656zm0 0"/><use x="388.121776" xlink:href="#V" y="105.274502"/><use x="401.727769" xlink:href="#U" y="105.274502"/><use x="415.333761" xlink:href="#W" y="105.274502"/><use x="420.776437" xlink:href="#W" y="105.274502"/><use x="400.665801" xlink:href="#M" y="72.386937"/><path d="m5898.242187 13147.231771h7.877605v459.049479h-7.877605zm0 0" style="fill:none;stroke-width:6.64176;stroke-linecap:round;stroke-linejoin:round;stroke:#000;stroke-miterlimit:10" transform="matrix(.06 0 0 -.06 0 854.08)"/><path d="m353.894531 65.246094h.472657v-27.542969h-.472657zm0 0"/><use x="324.165648" xlink:href="#X" y="105.274502"/><use x="344.745476" xlink:href="#Y" y="105.274502"/><use x="358.351469" xlink:href="#T" y="105.274502"/><use x="341.556283" xlink:href="#M" y="67.405527"/><path d="m2822.721354 13846.190104v-73.111979l992.96875-34.179687v72.98177zm0 0" fill="none" stroke="#000" stroke-linejoin="round" stroke-miterlimit="10" stroke-width="6.64176" transform="matrix(.06 0 0 -.06 0 854.08)"/><path d="m169.363281 23.308594v4.386718l59.578125 2.050782v-4.378906zm0 0"/><path d="m3078.450521 12592.479167h100.651041v5.598958h-100.651041zm0 0" fill="none" stroke="#000" stroke-linejoin="round" stroke-miterlimit="10" stroke-width="8.91656" transform="matrix(.06 0 0 -.06 0 854.08)"/><path d="m184.707031 98.53125h6.039063v-.335938h-6.039063zm0 0"/><path d="m4182.877604 12592.479167h100.716146v5.598958h-100.716146zm0 0" fill="none" stroke="#000" stroke-linejoin="round" stroke-miterlimit="10" stroke-width="8.91656" transform="matrix(.06 0 0 -.06 0 854.08)"/><path d="m250.972656 98.53125h6.042969v-.335938h-6.042969zm0 0"/><path d="m4848.828125 13680.109375v-72.981771l1057.291667-34.309896v73.11198zm0 0" fill="none" stroke="#000" stroke-linejoin="round" stroke-miterlimit="10" stroke-width="6.64176" transform="matrix(.06 0 0 -.06 0 854.08)"/><path d="m290.929688 33.273438v4.378906l63.4375 2.058594v-4.386719zm0 0"/><path d="m6283.658854 12592.479167h100.651042v5.598958h-100.651042zm0 0" fill="none" stroke="#000" stroke-linejoin="round" stroke-miterlimit="10" stroke-width="8.91656" transform="matrix(.06 0 0 -.06 0 854.08)"/><path d="m377.019531 98.53125h6.039063v-.335938h-6.039063zm0 0"/><path d="m7321.744792 12592.479167h100.716145v5.598958h-100.716145zm0 0" fill="none" stroke="#000" stroke-linejoin="round" stroke-miterlimit="10" stroke-width="8.91656" transform="matrix(.06 0 0 -.06 0 854.08)"/><path d="m439.304688 98.53125h6.042968v-.335938h-6.042968zm0 0"/><path d="m8386.653646 12592.479167h100.651041v5.598958h-100.651041zm0 0" fill="none" stroke="#000" stroke-linejoin="round" stroke-miterlimit="10" stroke-width="8.91656" transform="matrix(.06 0 0 -.06 0 854.08)"/><path d="m503.199219 98.53125h6.039062v-.335938h-6.039062zm0 0"/><use x="526.792054" xlink:href="#Z" y="105.274502"/><use x="533.425098" xlink:href="#aa" y="105.274502"/><use x="580.333261" xlink:href="#N" y="37.517467"/><path d="m9045.768229 13230.174479h7.8125v541.861979h-7.8125zm0 0" fill="none" stroke="#000" stroke-linejoin="round" stroke-miterlimit="10" stroke-width="6.64176" transform="matrix(.06 0 0 -.06 0 854.08)"/><path d="m542.746094 60.269531h.46875v-32.511719h-.46875zm0 0"/><path d="m1700.065104 13064.223958h7.877604v541.796875h-7.877604zm0 0" fill="none" stroke="#000" stroke-linejoin="round" stroke-miterlimit="10" stroke-width="6.64176" transform="matrix(.06 0 0 -.06 0 854.08)"/><path d="m102.003906 70.226562h.46875v-32.507812h-.46875zm0 0"/><use x="54.82651" xlink:href="#aC" y="105.274502"/><use x="67.072643" xlink:href="#aD" y="105.274502"/><use x="83.157366" xlink:href="#ab" y="105.274502"/><use x="102.376411" xlink:href="#ac" y="105.274502"/><use x="42.839386" xlink:href="#O" y="27.554947"/><use x="53.798308" xlink:href="#O" y="42.498977"/><use x="7.970216" xlink:href="#P" y="57.443007"/><use x="89.663879" xlink:href="#M" y="72.387037"/><use x="199.252099" xlink:href="#ad" y="105.274602"/><use x="212.518465" xlink:href="#ae" y="105.274602"/><use x="224.253417" xlink:href="#af" y="105.274602"/><use x="237.859395" xlink:href="#ag" y="105.274602"/><path d="m4848.828125 13230.174479h7.877604v409.895833h-7.877604zm0 0" fill="none" stroke="#000" stroke-linejoin="round" stroke-miterlimit="10" stroke-width="6.64176" transform="matrix(.06 0 0 -.06 0 854.08)"/><path d="m290.929688 60.269531h.46875v-24.59375h-.46875zm0 0"/><use x="261.964524" xlink:href="#T" y="105.274502"/><use x="275.570516" xlink:href="#ah" y="105.274502"/><use x="289.176509" xlink:href="#ai" y="105.274502"/><use x="301.42265" xlink:href="#Z" y="105.274502"/><use x="278.590157" xlink:href="#M" y="62.424117"/><path d="m3807.877604 13313.182292h7.8125v459.114583h-7.8125zm0 0" fill="none" stroke="#000" stroke-linejoin="round" stroke-miterlimit="10" stroke-width="6.64176" transform="matrix(.06 0 0 -.06 0 854.08)"/><path d="m228.472656 55.289062h.46875v-27.546874h-.46875zm0 0"/><use x="216.132432" xlink:href="#M" y="57.443407"/><use x="157.025014" xlink:href="#M" y="52.461987"/><use x="150.858132" xlink:href="#aj" y="105.274992"/><use x="162.593084" xlink:href="#af" y="105.274992"/><path d="m2822.721354 13396.320312h7.877604v409.83073h-7.877604zm0 0" fill="none" stroke="#000" stroke-linejoin="round" stroke-miterlimit="10" stroke-width="6.64176" transform="matrix(.06 0 0 -.06 0 854.08)"/><path d="m169.363281 50.300781h.472657v-24.589843h-.472657zm0 0"/><g clip-path="url(#f)"><path d="m5.598958 11118.716146h9910.091146" style="fill:none;stroke-width:11.1416;stroke-linecap:round;stroke-linejoin:round;stroke:#000;stroke-miterlimit:10" transform="matrix(.06 0 0 -.06 0 854.08)"/></g><g clip-path="url(#g)"><path d="m5.598958 11284.731771h9910.091146" style="fill:none;stroke-width:11.1416;stroke-linecap:round;stroke-linejoin:round;stroke:#000;stroke-miterlimit:10" transform="matrix(.06 0 0 -.06 0 854.08)"/></g><g clip-path="url(#h)"><path d="m5.598958 11450.8125h9910.091146" style="fill:none;stroke-width:11.1416;stroke-linecap:round;stroke-linejoin:round;stroke:#000;stroke-miterlimit:10" transform="matrix(.06 0 0 -.06 0 854.08)"/></g><g clip-path="url(#i)"><path d="m5.598958 11616.828125h9910.091146" style="fill:none;stroke-width:11.1416;stroke-linecap:round;stroke-linejoin:round;stroke:#000;stroke-miterlimit:10" transform="matrix(.06 0 0 -.06 0 854.08)"/></g><g clip-path="url(#j)"><path d="m5.598958 11782.908854h9910.091146" style="fill:none;stroke-width:11.1416;stroke-linecap:round;stroke-linejoin:round;stroke:#000;stroke-miterlimit:10" transform="matrix(.06 0 0 -.06 0 854.08)"/></g><use x="383.078766" xlink:href="#ak" y="222.179736"/><use x="396.684759" xlink:href="#Y" y="222.179736"/><use x="410.290751" xlink:href="#ad" y="222.179736"/><use x="529.179058" xlink:href="#M" y="181.976656"/><path d="m7923.697917 11320.669271h7.8125v541.861979h-7.8125zm0 0" style="fill:none;stroke-width:6.64176;stroke-linecap:round;stroke-linejoin:round;stroke:#000;stroke-miterlimit:10" transform="matrix(.06 0 0 -.06 0 854.08)"/><path d="m475.421875 174.839844h.46875v-32.511719h-.46875zm0 0"/><use x="455.979912" xlink:href="#V" y="222.179736"/><use x="469.585904" xlink:href="#U" y="222.179736"/><use x="463.081256" xlink:href="#M" y="176.995246"/><path d="m6822.070312 11403.677083h7.8125v541.861979h-7.8125zm0 0" style="fill:none;stroke-width:6.64176;stroke-linecap:round;stroke-linejoin:round;stroke:#000;stroke-miterlimit:10" transform="matrix(.06 0 0 -.06 0 854.08)"/><path d="m409.324219 169.859375h.46875v-32.511719h-.46875zm0 0"/><path d="m2003.450521 10644.106771h100.651041v5.598958h-100.651041zm0 0" style="fill:none;stroke-width:8.91656;stroke-linecap:round;stroke-linejoin:round;stroke:#000;stroke-miterlimit:10" transform="matrix(.06 0 0 -.06 0 854.08)"/><path d="m120.207031 215.441406h6.039063v-.335937h-6.039063zm0 0"/><use x="396.983794" xlink:href="#M" y="172.013636"/><path d="m5777.213542 11237.726562h7.877604v576.822917h-7.877604zm0 0" style="fill:none;stroke-width:6.64176;stroke-linecap:round;stroke-linejoin:round;stroke:#000;stroke-miterlimit:10" transform="matrix(.06 0 0 -.06 0 854.08)"/><path d="m346.632812 179.816406h.472657v-34.609375h-.472657zm0 0"/><use x="320.984642" xlink:href="#X" y="222.179736"/><use x="341.56447" xlink:href="#al" y="222.179736"/><use x="347.007146" xlink:href="#ad" y="222.179736"/><use x="334.293869" xlink:href="#M" y="181.976656"/><path d="m2608.984375 10916.111979h1011.132812v73.046875h-1011.132812zm0 0" fill="none" stroke="#000" stroke-linejoin="round" stroke-miterlimit="10" stroke-width="6.64176" transform="matrix(.06 0 0 -.06 0 854.08)"/><path d="m156.539062 199.113281h60.667969v-4.382812h-60.667969zm0 0"/><path d="m4073.242187 10644.106771h100.651042v5.598958h-100.651042zm0 0" fill="none" stroke="#000" stroke-linejoin="round" stroke-miterlimit="10" stroke-width="8.91656" transform="matrix(.06 0 0 -.06 0 854.08)"/><path d="m244.394531 215.441406h6.039063v-.335937h-6.039063zm0 0"/><path d="m4815.429687 11951.203125v-73.111979l969.596355-97.460938v73.046875zm0 0" fill="none" stroke="#000" stroke-linejoin="round" stroke-miterlimit="10" stroke-width="6.64176" transform="matrix(.06 0 0 -.06 0 854.08)"/><path d="m288.925781 137.007812v4.386719l58.175781 5.847657v-4.382813zm0 0"/><path d="m6147.070312 10644.106771h100.716146v5.598958h-100.716146zm0 0" fill="none" stroke="#000" stroke-linejoin="round" stroke-miterlimit="10" stroke-width="8.91656" transform="matrix(.06 0 0 -.06 0 854.08)"/><path d="m368.824219 215.441406h6.042969v-.335937h-6.042969zm0 0"/><path d="m7281.966146 10644.106771h100.716146v5.598958h-100.716146zm0 0" fill="none" stroke="#000" stroke-linejoin="round" stroke-miterlimit="10" stroke-width="8.91656" transform="matrix(.06 0 0 -.06 0 854.08)"/><path d="m436.917969 215.441406h6.042969v-.335937h-6.042969zm0 0"/><path d="m8327.604167 10644.106771h100.716145v5.598958h-100.716145zm0 0" fill="none" stroke="#000" stroke-linejoin="round" stroke-miterlimit="10" stroke-width="8.91656" transform="matrix(.06 0 0 -.06 0 854.08)"/><path d="m499.65625 215.441406h6.042969v-.335937h-6.042969zm0 0"/><use x="522.163044" xlink:href="#Z" y="222.179736"/><use x="528.796089" xlink:href="#aa" y="222.179736"/><use x="542.402081" xlink:href="#ac" y="222.179736"/><use x="580.332961" xlink:href="#N" y="157.069806"/><path d="m9025.260417 11237.726562h7.877604v541.796876h-7.877604zm0 0" fill="none" stroke="#000" stroke-linejoin="round" stroke-miterlimit="10" stroke-width="6.64176" transform="matrix(.06 0 0 -.06 0 854.08)"/><path d="m541.515625 179.816406h.472656v-32.507812h-.472656zm0 0"/><use x="7.970176" xlink:href="#P" y="176.994646"/><path d="m1683.463542 11237.726562h7.8125v541.796876h-7.8125zm0 0" fill="none" stroke="#000" stroke-linejoin="round" stroke-miterlimit="10" stroke-width="6.64176" transform="matrix(.06 0 0 -.06 0 854.08)"/><path d="m101.007812 179.816406h.46875v-32.507812h-.46875zm0 0"/><use x="87.008874" xlink:href="#am" y="222.179736"/><use x="88.667787" xlink:href="#M" y="181.976656"/><use x="42.839396" xlink:href="#O" y="147.107186"/><use x="53.798318" xlink:href="#O" y="162.051216"/><path d="m4815.429687 11403.677083h7.877605v506.901042h-7.877605zm0 0" fill="none" stroke="#000" stroke-linejoin="round" stroke-miterlimit="10" stroke-width="6.64176" transform="matrix(.06 0 0 -.06 0 854.08)"/><path d="m288.925781 169.859375h.472657v-30.414063h-.472657zm0 0"/><use x="263.617527" xlink:href="#Z" y="222.179736"/><use x="270.420992" xlink:href="#ae" y="222.179736"/><use x="282.155959" xlink:href="#U" y="222.179736"/><use x="295.761952" xlink:href="#ac" y="222.179736"/><use x="276.586953" xlink:href="#M" y="172.013736"/><path d="m3612.304687 10956.020833h7.877605v458.789063h-7.877605zm0 0" fill="none" stroke="#000" stroke-linejoin="round" stroke-miterlimit="10" stroke-width="6.64176" transform="matrix(.06 0 0 -.06 0 854.08)"/><path d="m216.738281 196.71875h.472657v-27.527344h-.472657zm0 0"/><use x="214.87943" xlink:href="#an" y="222.179736"/><use x="216.539273" xlink:href="#M" y="167.032626"/><path d="m2608.984375 10956.020833h7.877604v458.789063h-7.877604zm0 0" fill="none" stroke="#000" stroke-linejoin="round" stroke-miterlimit="10" stroke-width="6.64176" transform="matrix(.06 0 0 -.06 0 854.08)"/><path d="m156.539062 196.71875h.472657v-27.527344h-.472657zm0 0"/><use x="143.115286" xlink:href="#ak" y="222.179736"/><use x="156.721499" xlink:href="#Y" y="222.179736"/><use x="170.327477" xlink:href="#ai" y="222.179736"/><use x="156.339913" xlink:href="#M" y="167.032626"/><g clip-path="url(#k)"><path d="m5.598958 9126.138021h9910.091146" style="fill:none;stroke-width:11.1416;stroke-linecap:round;stroke-linejoin:round;stroke:#000;stroke-miterlimit:10" transform="matrix(.06 0 0 -.06 0 854.08)"/></g><g clip-path="url(#l)"><path d="m5.598958 9292.21875h9910.091146" style="fill:none;stroke-width:11.1416;stroke-linecap:round;stroke-linejoin:round;stroke:#000;stroke-miterlimit:10" transform="matrix(.06 0 0 -.06 0 854.08)"/></g><g clip-path="url(#m)"><path d="m5.598958 9458.234375h9910.091146" style="fill:none;stroke-width:11.1416;stroke-linecap:round;stroke-linejoin:round;stroke:#000;stroke-miterlimit:10" transform="matrix(.06 0 0 -.06 0 854.08)"/></g><g clip-path="url(#n)"><path d="m5.598958 9624.315104h9910.091146" style="fill:none;stroke-width:11.1416;stroke-linecap:round;stroke-linejoin:round;stroke:#000;stroke-miterlimit:10" transform="matrix(.06 0 0 -.06 0 854.08)"/></g><g clip-path="url(#o)"><path d="m5.598958 9790.330729h9910.091146" style="fill:none;stroke-width:11.1416;stroke-linecap:round;stroke-linejoin:round;stroke:#000;stroke-miterlimit:10" transform="matrix(.06 0 0 -.06 0 854.08)"/></g><g clip-path="url(#p)"><path d="m9910.677083 9126.138021v664.192708" fill="none" stroke="#000" stroke-linejoin="round" stroke-miterlimit="10" stroke-width="21.1872" transform="matrix(.06 0 0 -.06 0 854.08)"/></g><use x="421.675843" xlink:href="#M" y="301.527895"/><use x="408.366617" xlink:href="#X" y="341.378475"/><use x="428.946445" xlink:href="#Y" y="341.378475"/><use x="442.552672" xlink:href="#W" y="341.378475"/><path d="m7233.59375 9245.148438h7.8125v507.877604h-7.8125zm0 0" fill="none" stroke="#000" stroke-linejoin="round" stroke-miterlimit="10" stroke-width="6.64176" transform="matrix(.06 0 0 -.06 0 854.08)"/><path d="m434.015625 299.371094h.46875v-30.472656h-.46875zm0 0"/><use x="475.04495" xlink:href="#M" y="306.508905"/><use x="468.878068" xlink:href="#aj" y="341.378375"/><use x="480.613035" xlink:href="#Y" y="341.378375"/><path d="m8123.046875 9162.140625h7.877604v541.861979h-7.877604zm0 0" fill="none" stroke="#000" stroke-linejoin="round" stroke-miterlimit="10" stroke-width="6.64176" transform="matrix(.06 0 0 -.06 0 854.08)"/><path d="m487.382812 304.351562h.46875v-32.511718h-.46875zm0 0"/><use x="314.93863" xlink:href="#M" y="291.564875"/><path d="m6344.075521 9328.15625h7.877604v458.59375h-7.877604zm0 0" fill="none" stroke="#000" stroke-linejoin="round" stroke-miterlimit="10" stroke-width="6.64176" transform="matrix(.06 0 0 -.06 0 854.08)"/><path d="m380.644531 294.390625h.472657v-27.515625h-.472657zm0 0"/><use x="368.008736" xlink:href="#Y" y="341.378975"/><use x="368.307799" xlink:href="#M" y="296.546985"/><path d="m5454.622396 9411.229167h7.877604v408.789062h-7.877604zm0 0" fill="none" stroke="#000" stroke-linejoin="round" stroke-miterlimit="10" stroke-width="6.64176" transform="matrix(.06 0 0 -.06 0 854.08)"/><path d="m327.277344 289.40625h.472656v-24.527344h-.472656zm0 0"/><use x="301.714603" xlink:href="#ao" y="341.378975"/><use x="313.960744" xlink:href="#ap" y="341.378975"/><use x="327.566737" xlink:href="#ak" y="341.378975"/><path d="m2657.03125 9826.854167v-73.046875l897.265625-34.244792v73.046875zm0 0" fill="none" stroke="#000" stroke-linejoin="round" stroke-miterlimit="10" stroke-width="6.64176" transform="matrix(.06 0 0 -.06 0 854.08)"/><path d="m159.421875 264.46875v4.382812l53.835937 2.054688v-4.382812zm0 0"/><path d="m2864.908854 8657.388021h100.651042v5.598958h-100.651042zm0 0" fill="none" stroke="#000" stroke-linejoin="round" stroke-miterlimit="10" stroke-width="8.91656" transform="matrix(.06 0 0 -.06 0 854.08)"/><path d="m171.890625 334.636719h6.042969v-.335938h-6.042969zm0 0"/><path d="m4523.632812 9695.083333v-73.046875l938.802084 166.015625v73.111979zm0 0" fill="none" stroke="#000" stroke-linejoin="round" stroke-miterlimit="10" stroke-width="6.64176" transform="matrix(.06 0 0 -.06 0 854.08)"/><path d="m271.417969 272.375v4.382812l56.328125-9.960937v-4.386719zm0 0"/><path d="m4841.536458 8657.388021h100.716146v5.598958h-100.716146zm0 0" fill="none" stroke="#000" stroke-linejoin="round" stroke-miterlimit="10" stroke-width="8.91656" transform="matrix(.06 0 0 -.06 0 854.08)"/><path d="m290.492188 334.636719h6.042968v-.335938h-6.042968zm0 0"/><path d="m6344.075521 9826.854167v-73.046875l897.330729-34.244792v73.046875zm0 0" fill="none" stroke="#000" stroke-linejoin="round" stroke-miterlimit="10" stroke-width="6.64176" transform="matrix(.06 0 0 -.06 0 854.08)"/><path d="m380.644531 264.46875v4.382812l53.839844 2.054688v-4.382812zm0 0"/><path d="m6532.8125 8657.388021h100.716146v5.598958h-100.716146zm0 0" fill="none" stroke="#000" stroke-linejoin="round" stroke-miterlimit="10" stroke-width="8.91656" transform="matrix(.06 0 0 -.06 0 854.08)"/><path d="m391.96875 334.636719h6.042969v-.335938h-6.042969zm0 0"/><path d="m7590.299479 8657.388021h100.651042v5.598958h-100.651042zm0 0" fill="none" stroke="#000" stroke-linejoin="round" stroke-miterlimit="10" stroke-width="8.91656" transform="matrix(.06 0 0 -.06 0 854.08)"/><path d="m455.417969 334.636719h6.039062v-.335938h-6.039062zm0 0"/><path d="m8409.114583 8657.388021h100.651042v5.598958h-100.651042zm0 0" fill="none" stroke="#000" stroke-linejoin="round" stroke-miterlimit="10" stroke-width="8.91656" transform="matrix(.06 0 0 -.06 0 854.08)"/><path d="m504.546875 334.636719h6.039063v-.335938h-6.039063zm0 0"/><path d="m9096.614583 9079.132812h7.877604v541.86198h-7.877604zm0 0" fill="none" stroke="#000" stroke-linejoin="round" stroke-miterlimit="10" stroke-width="6.64176" transform="matrix(.06 0 0 -.06 0 854.08)"/><path d="m545.796875 309.332031h.46875v-32.511719h-.46875zm0 0"/><use x="520.914042" xlink:href="#ak" y="341.378975"/><use x="534.520034" xlink:href="#al" y="341.378975"/><use x="539.962681" xlink:href="#aj" y="341.378975"/><use x="552.208822" xlink:href="#ac" y="341.378975"/><use x="533.458067" xlink:href="#M" y="311.490915"/><use x="7.971016" xlink:href="#P" y="296.546885"/><path d="m1683.463542 9411.229167h7.8125v541.861979h-7.8125zm0 0" fill="none" stroke="#000" stroke-linejoin="round" stroke-miterlimit="10" stroke-width="6.64176" transform="matrix(.06 0 0 -.06 0 854.08)"/><path d="m101.007812 289.40625h.46875v-32.507812h-.46875zm0 0"/><use x="79.524959" xlink:href="#aq" y="341.378975"/><use x="97.213527" xlink:href="#U" y="341.378975"/><use x="88.667707" xlink:href="#M" y="291.565475"/><use x="42.839316" xlink:href="#O" y="266.658825"/><use x="53.798238" xlink:href="#O" y="281.602855"/><use x="147.080624" xlink:href="#M" y="296.546885"/><path d="m4523.632812 9162.140625h7.877605v494.401042h-7.877605zm0 0" fill="none" stroke="#000" stroke-linejoin="round" stroke-miterlimit="10" stroke-width="6.64176" transform="matrix(.06 0 0 -.06 0 854.08)"/><path d="m271.417969 304.351562h.472656v-29.664062h-.472656zm0 0"/><use x="245.855492" xlink:href="#V" y="341.378975"/><use x="259.461484" xlink:href="#ar" y="341.378975"/><use x="273.067477" xlink:href="#ao" y="341.378975"/><use x="259.079918" xlink:href="#M" y="306.509505"/><path d="m3546.484375 9245.148438h7.877604v507.877604h-7.877604zm0 0" fill="none" stroke="#000" stroke-linejoin="round" stroke-miterlimit="10" stroke-width="6.64176" transform="matrix(.06 0 0 -.06 0 854.08)"/><path d="m212.789062 299.371094h.472657v-30.472656h-.472657zm0 0"/><use x="183.993368" xlink:href="#aj" y="341.378975"/><use x="195.72832" xlink:href="#Y" y="341.378975"/><use x="209.334298" xlink:href="#X" y="341.378975"/><use x="141.340283" xlink:href="#W" y="341.378975"/><use x="146.782724" xlink:href="#Y" y="341.378975"/><use x="160.388702" xlink:href="#W" y="341.378975"/><path d="m2657.03125 9328.15625h7.8125v458.59375h-7.8125zm0 0" fill="none" stroke="#000" stroke-linejoin="round" stroke-miterlimit="10" stroke-width="6.64176" transform="matrix(.06 0 0 -.06 0 854.08)"/><path d="m159.421875 294.390625h.46875v-27.515625h-.46875zm0 0"/><use x="200.449401" xlink:href="#M" y="301.527895"/><g clip-path="url(#q)"><path d="m5.598958 7133.625h9910.091146" style="fill:none;stroke-width:11.1416;stroke-linecap:round;stroke-linejoin:round;stroke:#000;stroke-miterlimit:10" transform="matrix(.06 0 0 -.06 0 854.08)"/></g><g clip-path="url(#r)"><path d="m5.598958 7299.705729h9910.091146" style="fill:none;stroke-width:11.1416;stroke-linecap:round;stroke-linejoin:round;stroke:#000;stroke-miterlimit:10" transform="matrix(.06 0 0 -.06 0 854.08)"/></g><g clip-path="url(#s)"><path d="m5.598958 7465.721354h9910.091146" style="fill:none;stroke-width:11.1416;stroke-linecap:round;stroke-linejoin:round;stroke:#000;stroke-miterlimit:10" transform="matrix(.06 0 0 -.06 0 854.08)"/></g><g clip-path="url(#t)"><path d="m5.598958 7631.736979h9910.091146" style="fill:none;stroke-width:11.1416;stroke-linecap:round;stroke-linejoin:round;stroke:#000;stroke-miterlimit:10" transform="matrix(.06 0 0 -.06 0 854.08)"/></g><g clip-path="url(#u)"><path d="m5.598958 7797.817708h9910.091146" style="fill:none;stroke-width:11.1416;stroke-linecap:round;stroke-linejoin:round;stroke:#000;stroke-miterlimit:10" transform="matrix(.06 0 0 -.06 0 854.08)"/></g><use x="581.428163" xlink:href="#Q" y="401.155094"/><use x="581.428163" xlink:href="#Q" y="411.117694"/><g clip-path="url(#v)"><path d="m9887.825521 7133.625v664.192708" fill="none" stroke="#000" stroke-linejoin="round" stroke-miterlimit="10" stroke-width="66.8991" transform="matrix(.06 0 0 -.06 0 854.08)"/></g><path d="m9810.351562 7133.625v664.192708" fill="none" stroke="#000" stroke-linejoin="round" stroke-miterlimit="10" stroke-width="21.1872" transform="matrix(.06 0 0 -.06 0 854.08)"/><use x="85.01427" xlink:href="#Q" y="401.155094"/><use x="85.01427" xlink:href="#Q" y="411.117694"/><path d="m1372.851562 7133.625v664.192708" fill="none" stroke="#000" stroke-linejoin="round" stroke-miterlimit="10" stroke-width="21.1872" transform="matrix(.06 0 0 -.06 0 854.08)"/><path d="m1295.377604 7133.625v664.192708" fill="none" stroke="#000" stroke-linejoin="round" stroke-miterlimit="10" stroke-width="66.8991" transform="matrix(.06 0 0 -.06 0 854.08)"/><use x="462.764926" xlink:href="#M" y="416.098124"/><path d="m8861.848958 7418.651042h7.8125v541.861979h-7.8125zm0 0" fill="none" stroke="#000" stroke-linejoin="round" stroke-miterlimit="10" stroke-width="6.64176" transform="matrix(.06 0 0 -.06 0 854.08)"/><path d="m531.710938 408.960938h.46875v-32.511719h-.46875zm0 0"/><use x="449.9659" xlink:href="#ad" y="463.93022"/><use x="463.232281" xlink:href="#ae" y="463.93022"/><use x="474.967248" xlink:href="#U" y="463.93022"/><use x="456.343963" xlink:href="#ai" y="491.825575"/><use x="468.590104" xlink:href="#U" y="491.825575"/><path d="m7918.359375 7335.643229h7.877604v459.114583h-7.877604zm0 0" fill="none" stroke="#000" stroke-linejoin="round" stroke-miterlimit="10" stroke-width="6.64176" transform="matrix(.06 0 0 -.06 0 854.08)"/><path d="m475.101562 413.941406h.472657v-27.546875h-.472657zm0 0"/><use x="519.371039" xlink:href="#M" y="411.117114"/><use x="512.950086" xlink:href="#al" y="463.93012"/><use x="518.392732" xlink:href="#ad" y="463.93012"/><use x="531.998725" xlink:href="#ac" y="463.93012"/><use x="516.351343" xlink:href="#al" y="491.825475"/><use x="521.793989" xlink:href="#ad" y="491.825475"/><use x="329.260969" xlink:href="#ai" y="463.93012"/><use x="341.507109" xlink:href="#ap" y="463.93012"/><use x="355.113102" xlink:href="#T" y="463.93012"/><path d="m6945.442708 7418.651042h7.877604v409.830729h-7.877604zm0 0" fill="none" stroke="#000" stroke-linejoin="round" stroke-miterlimit="10" stroke-width="6.64176" transform="matrix(.06 0 0 -.06 0 854.08)"/><path d="m416.726562 408.960938h.472657v-24.589844h-.472657zm0 0"/><use x="400.689801" xlink:href="#Z" y="491.825275"/><use x="407.493266" xlink:href="#ap" y="491.825275"/><use x="387.763276" xlink:href="#ai" y="463.92992"/><use x="400.009416" xlink:href="#ao" y="463.92992"/><use x="412.255557" xlink:href="#ap" y="463.92992"/><use x="425.86155" xlink:href="#ag" y="463.92992"/><use x="404.389909" xlink:href="#M" y="411.116914"/><path d="m5711.393229 6915.591146h7.877604v514.127604h-7.877604zm0 0" fill="none" stroke="#000" stroke-linejoin="round" stroke-miterlimit="10" stroke-width="6.64176" transform="matrix(.06 0 0 -.06 0 854.08)"/><path d="m342.683594 439.144531h.472656v-30.847656h-.472656zm0 0"/><use x="332.662665" xlink:href="#V" y="491.825275"/><use x="346.268658" xlink:href="#U" y="491.825275"/><use x="359.87465" xlink:href="#as" y="491.825275"/><path d="m2293.229167 6149.966146h100.651041v5.533854h-100.651041zm0 0" fill="none" stroke="#000" stroke-linejoin="round" stroke-miterlimit="10" stroke-width="8.91656" transform="matrix(.06 0 0 -.06 0 854.08)"/><path d="m137.59375 485.082031h6.039062v-.332031h-6.039062zm0 0"/><path d="m8295.703125 6614.875h100.651042v5.598958h-100.651042zm0 0" fill="none" stroke="#000" stroke-linejoin="round" stroke-miterlimit="10" stroke-width="8.91656" transform="matrix(.06 0 0 -.06 0 854.08)"/><path d="m497.742188 457.1875h6.039062v-.335938h-6.039062zm0 0"/><path d="m2990.039062 7800.03125v-73.046875l951.302084 34.309896v73.046875zm0 0" fill="none" stroke="#000" stroke-linejoin="round" stroke-miterlimit="10" stroke-width="6.64176" transform="matrix(.06 0 0 -.06 0 854.08)"/><path d="m179.402344 386.078125v4.382813l57.078125-2.058594v-4.382813zm0 0"/><path d="m3234.114583 6149.966146h100.651042v5.533854h-100.651042zm0 0" fill="none" stroke="#000" stroke-linejoin="round" stroke-miterlimit="10" stroke-width="8.91656" transform="matrix(.06 0 0 -.06 0 854.08)"/><path d="m194.046875 485.082031h6.039063v-.332031h-6.039063zm0 0"/><path d="m4308.658854 6614.875h100.651042v5.598958h-100.651042zm0 0" fill="none" stroke="#000" stroke-linejoin="round" stroke-miterlimit="10" stroke-width="8.91656" transform="matrix(.06 0 0 -.06 0 854.08)"/><path d="m258.519531 457.1875h6.039063v-.335938h-6.039063zm0 0"/><path d="m5196.744792 6614.875h100.651041v5.598958h-100.651041zm0 0" fill="none" stroke="#000" stroke-linejoin="round" stroke-miterlimit="10" stroke-width="8.91656" transform="matrix(.06 0 0 -.06 0 854.08)"/><path d="m311.804688 457.1875h6.039062v-.335938h-6.039062zm0 0"/><path d="m5168.359375 6149.966146h100.716146v5.533854h-100.716146zm0 0" fill="none" stroke="#000" stroke-linejoin="round" stroke-miterlimit="10" stroke-width="8.91656" transform="matrix(.06 0 0 -.06 0 854.08)"/><path d="m310.101562 485.082031h6.042969v-.332031h-6.042969zm0 0"/><path d="m6333.072917 6149.966146h100.651041v5.533854h-100.651041zm0 0" fill="none" stroke="#000" stroke-linejoin="round" stroke-miterlimit="10" stroke-width="8.91656" transform="matrix(.06 0 0 -.06 0 854.08)"/><path d="m379.984375 485.082031h6.039063v-.332031h-6.039063zm0 0"/><path d="m6945.442708 7868.585938v-73.046876l980.794271-34.244791v73.046875zm0 0" fill="none" stroke="#000" stroke-linejoin="round" stroke-miterlimit="10" stroke-width="6.64176" transform="matrix(.06 0 0 -.06 0 854.08)"/><path d="m416.726562 381.964844v4.382812l58.847657 2.054688v-4.382813zm0 0"/><path d="m7316.276042 6614.875h100.651041v5.598958h-100.651041zm0 0" fill="none" stroke="#000" stroke-linejoin="round" stroke-miterlimit="10" stroke-width="8.91656" transform="matrix(.06 0 0 -.06 0 854.08)"/><path d="m438.976562 457.1875h6.039063v-.335938h-6.039063zm0 0"/><path d="m7261.71875 6149.966146h100.651042v5.533854h-100.651042zm0 0" fill="none" stroke="#000" stroke-linejoin="round" stroke-miterlimit="10" stroke-width="8.91656" transform="matrix(.06 0 0 -.06 0 854.08)"/><path d="m435.699219 485.082031h6.042969v-.332031h-6.042969zm0 0"/><path d="m8270.898437 6149.966146h100.651042v5.533854h-100.651042zm0 0" fill="none" stroke="#000" stroke-linejoin="round" stroke-miterlimit="10" stroke-width="8.91656" transform="matrix(.06 0 0 -.06 0 854.08)"/><path d="m496.253906 485.082031h6.039063v-.332031h-6.039063zm0 0"/><use x="102.517205" xlink:href="#M" y="431.042154"/><path d="m2990.039062 7252.635417h7.877605v507.8125h-7.877605zm0 0" fill="none" stroke="#000" stroke-linejoin="round" stroke-miterlimit="10" stroke-width="6.64176" transform="matrix(.06 0 0 -.06 0 854.08)"/><path d="m179.402344 418.921875h.472656v-30.46875h-.472656zm0 0"/><use x="164.044328" xlink:href="#as" y="491.825275"/><use x="169.487004" xlink:href="#U" y="491.825275"/><use x="166.765194" xlink:href="#U" y="463.92992"/><use x="167.064022" xlink:href="#M" y="421.079534"/><use x="342.485373" xlink:href="#M" y="406.135504"/><path d="m1914.257812 7086.619792h7.877605v541.796875h-7.877605zm0 0" fill="none" stroke="#000" stroke-linejoin="round" stroke-miterlimit="10" stroke-width="6.64176" transform="matrix(.06 0 0 -.06 0 854.08)"/><path d="m114.855469 428.882812h.46875v-32.507812h-.46875zm0 0"/><use x="100.857202" xlink:href="#an" y="491.825275"/><use x="94.735319" xlink:href="#am" y="463.92992"/><use x="111.063104" xlink:href="#ai" y="463.92992"/><use x="42.839716" xlink:href="#O" y="386.210364"/><use x="53.798638" xlink:href="#O" y="401.154394"/><use x="7.970546" xlink:href="#P" y="416.098124"/><path d="m4876.953125 7418.651042h7.8125v541.861979h-7.8125zm0 0" fill="none" stroke="#000" stroke-linejoin="round" stroke-miterlimit="10" stroke-width="6.64176" transform="matrix(.06 0 0 -.06 0 854.08)"/><path d="m292.617188 408.960938h.46875v-32.511719h-.46875zm0 0"/><use x="279.97856" xlink:href="#aa" y="491.825275"/><use x="273.175106" xlink:href="#T" y="463.92992"/><use x="286.781099" xlink:href="#aa" y="463.92992"/><use x="280.277391" xlink:href="#M" y="411.116914"/><path d="m3933.463542 7335.643229h7.877604v458.59375h-7.877604zm0 0" fill="none" stroke="#000" stroke-linejoin="round" stroke-miterlimit="10" stroke-width="6.64176" transform="matrix(.06 0 0 -.06 0 854.08)"/><path d="m236.007812 413.941406h.472657v-27.515625h-.472657zm0 0"/><use x="211.041422" xlink:href="#aj" y="491.825275"/><use x="223.287548" xlink:href="#al" y="491.825275"/><use x="228.730224" xlink:href="#X" y="491.825275"/><use x="210.446577" xlink:href="#at" y="463.92992"/><use x="224.052555" xlink:href="#au" y="463.92992"/><use x="237.658767" xlink:href="#ao" y="463.92992"/><use x="223.671003" xlink:href="#M" y="416.098124"/><g clip-path="url(#w)"><path d="m5.598958 5112.401042h9910.091146" style="fill:none;stroke-width:11.1416;stroke-linecap:round;stroke-linejoin:round;stroke:#000;stroke-miterlimit:10" transform="matrix(.06 0 0 -.06 0 854.08)"/></g><g clip-path="url(#x)"><path d="m5.598958 5278.416667h9910.091146" style="fill:none;stroke-width:11.1416;stroke-linecap:round;stroke-linejoin:round;stroke:#000;stroke-miterlimit:10" transform="matrix(.06 0 0 -.06 0 854.08)"/></g><g clip-path="url(#y)"><path d="m5.598958 5444.432292h9910.091146" style="fill:none;stroke-width:11.1416;stroke-linecap:round;stroke-linejoin:round;stroke:#000;stroke-miterlimit:10" transform="matrix(.06 0 0 -.06 0 854.08)"/></g><g clip-path="url(#z)"><path d="m5.598958 5610.513021h9910.091146" style="fill:none;stroke-width:11.1416;stroke-linecap:round;stroke-linejoin:round;stroke:#000;stroke-miterlimit:10" transform="matrix(.06 0 0 -.06 0 854.08)"/></g><g clip-path="url(#A)"><path d="m5.598958 5776.528646h9910.091146" style="fill:none;stroke-width:11.1416;stroke-linecap:round;stroke-linejoin:round;stroke:#000;stroke-miterlimit:10" transform="matrix(.06 0 0 -.06 0 854.08)"/></g><use x="537.667075" xlink:href="#M" y="532.393357"/><path d="m5331.445312 5231.411458h7.877605v541.796875h-7.877605zm0 0" style="fill:none;stroke-width:6.64176;stroke-linecap:round;stroke-linejoin:round;stroke:#000;stroke-miterlimit:10" transform="matrix(.06 0 0 -.06 0 854.08)"/><path d="m319.886719 540.195312h.472656v-32.507812h-.472656zm0 0"/><path d="m8006.770833 4894.302083h7.877604v514.192709h-7.877604zm0 0" style="fill:none;stroke-width:6.64176;stroke-linecap:round;stroke-linejoin:round;stroke:#000;stroke-miterlimit:10" transform="matrix(.06 0 0 -.06 0 854.08)"/><path d="m480.40625 560.421875h.472656v-30.851563h-.472656zm0 0"/><use x="474.041948" xlink:href="#aj" y="582.476457"/><use x="485.776915" xlink:href="#Y" y="582.476457"/><use x="480.20883" xlink:href="#M" y="527.411847"/><path d="m7234.765625 5397.427083h7.877604v409.830729h-7.877604zm0 0" style="fill:none;stroke-width:6.64176;stroke-linecap:round;stroke-linejoin:round;stroke:#000;stroke-miterlimit:10" transform="matrix(.06 0 0 -.06 0 854.08)"/><path d="m434.085938 530.234375h.472656v-24.589844h-.472656zm0 0"/><use x="398.404797" xlink:href="#X" y="582.476457"/><use x="418.984625" xlink:href="#ah" y="582.476457"/><use x="432.590617" xlink:href="#ad" y="582.476457"/><use x="445.856998" xlink:href="#ae" y="582.476457"/><use x="421.748343" xlink:href="#M" y="532.393257"/><path d="m6291.666667 5314.419271h7.8125v459.049479h-7.8125zm0 0" style="fill:none;stroke-width:6.64176;stroke-linecap:round;stroke-linejoin:round;stroke:#000;stroke-miterlimit:10" transform="matrix(.06 0 0 -.06 0 854.08)"/><path d="m377.5 535.214844h.46875v-27.542969h-.46875zm0 0"/><use x="360.864722" xlink:href="#ag" y="582.476457"/><use x="368.858798" xlink:href="#Y" y="582.476457"/><use x="365.15965" xlink:href="#M" y="537.374467"/><path d="m1964.518229 4639.09375h100.716146v5.598958h-100.716146zm0 0" style="fill:none;stroke-width:8.91656;stroke-linecap:round;stroke-linejoin:round;stroke:#000;stroke-miterlimit:10" transform="matrix(.06 0 0 -.06 0 854.08)"/><path d="m117.871094 575.734375h6.042968v-.335937h-6.042968zm0 0"/><path d="m2457.877604 5017.153646v-73.111979l885.416667-34.244792v73.046875zm0 0" fill="none" stroke="#000" stroke-linejoin="round" stroke-miterlimit="10" stroke-width="6.64176" transform="matrix(.06 0 0 -.06 0 854.08)"/><path d="m147.472656 553.050781v4.386719l53.125 2.054688v-4.382813zm0 0"/><path d="m2974.088542 4639.09375h100.651041v5.598958h-100.651041zm0 0" fill="none" stroke="#000" stroke-linejoin="round" stroke-miterlimit="10" stroke-width="8.91656" transform="matrix(.06 0 0 -.06 0 854.08)"/><path d="m178.445312 575.734375h6.039063v-.335937h-6.039063zm0 0"/><path d="m4624.674479 4639.09375h100.651042v5.598958h-100.651042zm0 0" fill="none" stroke="#000" stroke-linejoin="round" stroke-miterlimit="10" stroke-width="8.91656" transform="matrix(.06 0 0 -.06 0 854.08)"/><path d="m277.480469 575.734375h6.039062v-.335937h-6.039062zm0 0"/><path d="m6291.601562 5813.052083v-73.046875l951.041667 34.309896v73.046875zm0 0" fill="none" stroke="#000" stroke-linejoin="round" stroke-miterlimit="10" stroke-width="6.64176" transform="matrix(.06 0 0 -.06 0 854.08)"/><path d="m377.496094 505.296875v4.382813l57.0625-2.058594v-4.382813zm0 0"/><path d="m6456.901042 4639.09375h100.651041v5.598958h-100.651041zm0 0" fill="none" stroke="#000" stroke-linejoin="round" stroke-miterlimit="10" stroke-width="8.91656" transform="matrix(.06 0 0 -.06 0 854.08)"/><path d="m387.414062 575.734375h6.039063v-.335937h-6.039063zm0 0"/><path d="m7717.513021 4639.09375h100.716146v5.598958h-100.716146zm0 0" fill="none" stroke="#000" stroke-linejoin="round" stroke-miterlimit="10" stroke-width="8.91656" transform="matrix(.06 0 0 -.06 0 854.08)"/><path d="m463.050781 575.734375h6.039063v-.335937h-6.039063zm0 0"/><path d="m8487.239583 4639.09375h100.651042v5.598958h-100.651042zm0 0" fill="none" stroke="#000" stroke-linejoin="round" stroke-miterlimit="10" stroke-width="8.91656" transform="matrix(.06 0 0 -.06 0 854.08)"/><path d="m509.234375 575.734375h6.039063v-.335937h-6.039063zm0 0"/><use x="525.12305" xlink:href="#ak" y="582.476457"/><use x="538.729043" xlink:href="#al" y="582.476457"/><use x="544.171689" xlink:href="#aj" y="582.476457"/><use x="556.41783" xlink:href="#av" y="582.476457"/><use x="580.332961" xlink:href="#R" y="527.411847"/><path d="m9166.731771 5397.427083h7.877604v541.861979h-7.877604zm0 0" fill="none" stroke="#000" stroke-linejoin="round" stroke-miterlimit="10" stroke-width="6.64176" transform="matrix(.06 0 0 -.06 0 854.08)"/><path d="m550.003906 530.234375h.472656v-32.511719h-.472656zm0 0"/><use x="42.839386" xlink:href="#O" y="507.486307"/><use x="53.798308" xlink:href="#O" y="522.430037"/><use x="147.274054" xlink:href="#M" y="522.430037"/><path d="m1497.721354 5032.648438h7.877604v541.861979h-7.877604zm0 0" fill="none" stroke="#000" stroke-linejoin="round" stroke-miterlimit="10" stroke-width="6.64176" transform="matrix(.06 0 0 -.06 0 854.08)"/><path d="m89.863281 552.121094h.472657v-32.511719h-.472657zm0 0"/><use x="88.005176" xlink:href="#aw" y="582.476457"/><use x="89.663849" xlink:href="#M" y="517.449227"/><use x="307.549285" xlink:href="#M" y="542.355877"/><use x="7.969686" xlink:href="#P" y="537.374457"/><use x="291.178252" xlink:href="#ax" y="582.476447"/><use x="302.913219" xlink:href="#ah" y="582.476447"/><use x="316.519212" xlink:href="#ad" y="582.476447"/><use x="330.125205" xlink:href="#ac" y="582.476447"/><path d="m4412.825521 5397.427083h7.877604v541.861979h-7.877604zm0 0" fill="none" stroke="#000" stroke-linejoin="round" stroke-miterlimit="10" stroke-width="6.64176" transform="matrix(.06 0 0 -.06 0 854.08)"/><path d="m264.769531 530.234375h.472657v-32.511719h-.472657zm0 0"/><use x="248.050496" xlink:href="#ah" y="582.476457"/><use x="261.656489" xlink:href="#ag" y="582.476457"/><use x="252.430975" xlink:href="#M" y="532.393257"/><use x="137.450745" xlink:href="#W" y="582.476457"/><use x="142.893186" xlink:href="#ay" y="582.476457"/><use x="156.499399" xlink:href="#ak" y="582.476457"/><path d="m3335.481771 4949.901042h7.8125v458.59375h-7.8125zm0 0" fill="none" stroke="#000" stroke-linejoin="round" stroke-miterlimit="10" stroke-width="6.64176" transform="matrix(.06 0 0 -.06 0 854.08)"/><path d="m200.128906 557.085938h.46875v-27.515626h-.46875zm0 0"/><use x="199.9274" xlink:href="#M" y="527.411347"/><use x="192.826056" xlink:href="#at" y="582.475957"/><use x="206.432034" xlink:href="#Y" y="582.475957"/><path d="m2457.877604 4983.690104h7.877604v507.8125h-7.877604zm0 0" fill="none" stroke="#000" stroke-linejoin="round" stroke-miterlimit="10" stroke-width="6.64176" transform="matrix(.06 0 0 -.06 0 854.08)"/><path d="m147.472656 555.058594h.472656v-30.46875h-.472656zm0 0"/><g clip-path="url(#B)"><path d="m5.598958 3119.822917h9910.091146" style="fill:none;stroke-width:11.1416;stroke-linecap:round;stroke-linejoin:round;stroke:#000;stroke-miterlimit:10" transform="matrix(.06 0 0 -.06 0 854.08)"/></g><g clip-path="url(#C)"><path d="m5.598958 3285.903646h9910.091146" style="fill:none;stroke-width:11.1416;stroke-linecap:round;stroke-linejoin:round;stroke:#000;stroke-miterlimit:10" transform="matrix(.06 0 0 -.06 0 854.08)"/></g><g clip-path="url(#D)"><path d="m5.598958 3451.919271h9910.091146" style="fill:none;stroke-width:11.1416;stroke-linecap:round;stroke-linejoin:round;stroke:#000;stroke-miterlimit:10" transform="matrix(.06 0 0 -.06 0 854.08)"/></g><g clip-path="url(#E)"><path d="m5.598958 3618h9910.091146" style="fill:none;stroke-width:11.1416;stroke-linecap:round;stroke-linejoin:round;stroke:#000;stroke-miterlimit:10" transform="matrix(.06 0 0 -.06 0 854.08)"/></g><g clip-path="url(#F)"><path d="m5.598958 3784.015625h9910.091146" style="fill:none;stroke-width:11.1416;stroke-linecap:round;stroke-linejoin:round;stroke:#000;stroke-miterlimit:10" transform="matrix(.06 0 0 -.06 0 854.08)"/></g><use x="530.513061" xlink:href="#M" y="661.907616"/><path d="m8063.932292 3321.90625h7.877604v459.049479h-7.877604zm0 0" style="fill:none;stroke-width:6.64176;stroke-linecap:round;stroke-linejoin:round;stroke:#000;stroke-miterlimit:10" transform="matrix(.06 0 0 -.06 0 854.08)"/><path d="m483.835938 654.769531h.472656v-27.546875h-.472656zm0 0"/><use x="471.200942" xlink:href="#ah" y="701.757695"/><use x="471.500005" xlink:href="#M" y="656.925906"/><path d="m7080.403646 3404.914063h7.877604v409.830729h-7.877604zm0 0" style="fill:none;stroke-width:6.64176;stroke-linecap:round;stroke-linejoin:round;stroke:#000;stroke-miterlimit:10" transform="matrix(.06 0 0 -.06 0 854.08)"/><path d="m424.824219 649.785156h.472656v-24.589844h-.472656zm0 0"/><use x="402.067804" xlink:href="#ag" y="701.757695"/><use x="410.061881" xlink:href="#af" y="701.757695"/><use x="423.667873" xlink:href="#aj" y="701.757695"/><use x="412.485825" xlink:href="#M" y="651.944496"/><path d="m5801.236979 2901.789063h7.8125v514.192708h-7.8125zm0 0" style="fill:none;stroke-width:6.64176;stroke-linecap:round;stroke-linejoin:round;stroke:#000;stroke-miterlimit:10" transform="matrix(.06 0 0 -.06 0 854.08)"/><path d="m348.074219 679.972656h.46875v-30.851562h-.46875zm0 0"/><use x="347.575695" xlink:href="#af" y="701.757695"/><use x="347.874524" xlink:href="#M" y="646.963086"/><path d="m1955.794271 2651.072917h100.716146v5.598958h-100.716146zm0 0" style="fill:none;stroke-width:8.91656;stroke-linecap:round;stroke-linejoin:round;stroke:#000;stroke-miterlimit:10" transform="matrix(.06 0 0 -.06 0 854.08)"/><path d="m117.347656 695.015625h6.042969v-.335937h-6.042969zm0 0"/><path d="m2762.825521 3854.848958v-73.046875l1159.375-34.309895v73.046874zm0 0" fill="none" stroke="#000" stroke-linejoin="round" stroke-miterlimit="10" stroke-width="6.64176" transform="matrix(.06 0 0 -.06 0 854.08)"/><path d="m165.769531 622.789062v4.382813l69.5625 2.058594v-4.382813zm0 0"/><path d="m6310.091146 2651.072917h100.651041v5.598958h-100.651041zm0 0" fill="none" stroke="#000" stroke-linejoin="round" stroke-miterlimit="10" stroke-width="8.91656" transform="matrix(.06 0 0 -.06 0 854.08)"/><path d="m378.605469 695.015625h6.039062v-.335937h-6.039062zm0 0"/><path d="m7080.403646 3854.848958v-73.046875l991.40625-34.309895v73.046874zm0 0" fill="none" stroke="#000" stroke-linejoin="round" stroke-miterlimit="10" stroke-width="6.64176" transform="matrix(.06 0 0 -.06 0 854.08)"/><path d="m424.824219 622.789062v4.382813l59.484375 2.058594v-4.382813zm0 0"/><path d="m8357.877604 2651.072917h100.651042v5.598958h-100.651042zm0 0" fill="none" stroke="#000" stroke-linejoin="round" stroke-miterlimit="10" stroke-width="8.91656" transform="matrix(.06 0 0 -.06 0 854.08)"/><path d="m501.472656 695.015625h6.039063v-.335937h-6.039063zm0 0"/><use x="524.176048" xlink:href="#W" y="701.757695"/><use x="529.61846" xlink:href="#Y" y="701.757695"/><use x="543.055234" xlink:href="#Z" y="701.757695"/><use x="580.332361" xlink:href="#N" y="637.000466"/><path d="m9047.526042 3238.833333h7.877604v541.861979h-7.877604zm0 0" fill="none" stroke="#000" stroke-linejoin="round" stroke-miterlimit="10" stroke-width="6.64176" transform="matrix(.06 0 0 -.06 0 854.08)"/><path d="m542.851562 659.75h.472657v-32.511719h-.472657zm0 0"/><use x="42.839386" xlink:href="#O" y="627.038546"/><use x="53.798308" xlink:href="#O" y="641.982576"/><path d="m1683.463542 3404.914063h7.8125v541.796875h-7.8125zm0 0" fill="none" stroke="#000" stroke-linejoin="round" stroke-miterlimit="10" stroke-width="6.64176" transform="matrix(.06 0 0 -.06 0 854.08)"/><path d="m101.007812 649.785156h.46875v-32.507812h-.46875zm0 0"/><use x="82.927166" xlink:href="#am" y="701.757695"/><use x="99.254951" xlink:href="#ag" y="701.757695"/><use x="88.667727" xlink:href="#M" y="651.944496"/><use x="7.970166" xlink:href="#P" y="656.925916"/><use x="222.521842" xlink:href="#M" y="656.925916"/><path d="m4897.916667 3238.833333h7.8125v541.861979h-7.8125zm0 0" fill="none" stroke="#000" stroke-linejoin="round" stroke-miterlimit="10" stroke-width="6.64176" transform="matrix(.06 0 0 -.06 0 854.08)"/><path d="m293.875 659.75h.46875v-32.511719h-.46875zm0 0"/><use x="275.11355" xlink:href="#U" y="701.757695"/><use x="288.719543" xlink:href="#ao" y="701.757695"/><use x="281.534503" xlink:href="#M" y="661.907116"/><path d="m3914.322917 3321.90625h7.877604v458.984375h-7.877604zm0 0" fill="none" stroke="#000" stroke-linejoin="round" stroke-miterlimit="10" stroke-width="6.64176" transform="matrix(.06 0 0 -.06 0 854.08)"/><path d="m234.859375 654.769531h.472656v-27.542969h-.472656zm0 0"/><use x="202.494405" xlink:href="#V" y="701.757695"/><use x="216.100383" xlink:href="#ar" y="701.757695"/><use x="229.706361" xlink:href="#T" y="701.757695"/><use x="243.312339" xlink:href="#ae" y="701.757695"/><path d="m2762.825521 3404.914063h7.877604v409.830729h-7.877604zm0 0" fill="none" stroke="#000" stroke-linejoin="round" stroke-miterlimit="10" stroke-width="6.64176" transform="matrix(.06 0 0 -.06 0 854.08)"/><path d="m165.769531 649.785156h.472657v-24.589844h-.472657zm0 0"/><use x="153.432307" xlink:href="#M" y="651.944596"/><use x="133.319567" xlink:href="#ao" y="701.757795"/><use x="145.565693" xlink:href="#Y" y="701.757795"/><use x="159.171671" xlink:href="#X" y="701.757795"/><use x="179.751499" xlink:href="#ac" y="701.757795"/><g clip-path="url(#G)"><path d="m5.598958 1127.309896h9910.091146" style="fill:none;stroke-width:11.1416;stroke-linecap:round;stroke-linejoin:round;stroke:#000;stroke-miterlimit:10" transform="matrix(.06 0 0 -.06 0 854.08)"/></g><g clip-path="url(#H)"><path d="m5.598958 1293.390625h9910.091146" style="fill:none;stroke-width:11.1416;stroke-linecap:round;stroke-linejoin:round;stroke:#000;stroke-miterlimit:10" transform="matrix(.06 0 0 -.06 0 854.08)"/></g><g clip-path="url(#I)"><path d="m5.598958 1459.40625h9910.091146" style="fill:none;stroke-width:11.1416;stroke-linecap:round;stroke-linejoin:round;stroke:#000;stroke-miterlimit:10" transform="matrix(.06 0 0 -.06 0 854.08)"/></g><g clip-path="url(#J)"><path d="m5.598958 1625.421875h9910.091146" style="fill:none;stroke-width:11.1416;stroke-linecap:round;stroke-linejoin:round;stroke:#000;stroke-miterlimit:10" transform="matrix(.06 0 0 -.06 0 854.08)"/></g><g clip-path="url(#K)"><path d="m5.598958 1791.502604h9910.091146" style="fill:none;stroke-width:11.1416;stroke-linecap:round;stroke-linejoin:round;stroke:#000;stroke-miterlimit:10" transform="matrix(.06 0 0 -.06 0 854.08)"/></g><g clip-path="url(#L)"><path d="m9887.825521 1127.309896v664.192708" fill="none" stroke="#000" stroke-linejoin="round" stroke-miterlimit="10" stroke-width="66.8991" transform="matrix(.06 0 0 -.06 0 854.08)"/></g><path d="m9810.351562 1127.309896v664.192708" fill="none" stroke="#000" stroke-linejoin="round" stroke-miterlimit="10" stroke-width="21.1872" transform="matrix(.06 0 0 -.06 0 854.08)"/><use x="521.632043" xlink:href="#M" y="791.422075"/><path d="m7808.984375 1163.3125h7.8125v541.861979h-7.8125zm0 0" fill="none" stroke="#000" stroke-linejoin="round" stroke-miterlimit="10" stroke-width="6.64176" transform="matrix(.06 0 0 -.06 0 854.08)"/><path d="m468.539062 784.28125h.46875v-32.511719h-.46875zm0 0"/><use x="432.854866" xlink:href="#ad" y="821.409435"/><use x="446.121247" xlink:href="#ae" y="821.409435"/><use x="458.367388" xlink:href="#ah" y="821.409435"/><use x="471.97338" xlink:href="#X" y="821.409435"/><use x="456.199412" xlink:href="#M" y="786.440665"/><path d="m6738.671875 1246.320313h7.8125v541.861979h-7.8125zm0 0" fill="none" stroke="#000" stroke-linejoin="round" stroke-miterlimit="10" stroke-width="6.64176" transform="matrix(.06 0 0 -.06 0 854.08)"/><path d="m404.320312 779.300781h.46875v-32.511719h-.46875zm0 0"/><use x="391.681783" xlink:href="#Y" y="821.409435"/><use x="391.980612" xlink:href="#M" y="781.459155"/><path d="m5763.216146 1329.328125h7.8125v423.893229h-7.8125zm0 0" fill="none" stroke="#000" stroke-linejoin="round" stroke-miterlimit="10" stroke-width="6.64176" transform="matrix(.06 0 0 -.06 0 854.08)"/><path d="m345.792969 774.320312h.46875v-25.433593h-.46875zm0 0"/><use x="327.031654" xlink:href="#U" y="821.409435"/><use x="340.637647" xlink:href="#ao" y="821.409435"/><use x="333.452607" xlink:href="#M" y="776.478045"/><path d="m2795.247396 1862.270833v-73.046875l1024.869791 97.526042v73.046875zm0 0" fill="none" stroke="#000" stroke-linejoin="round" stroke-miterlimit="10" stroke-width="6.64176" transform="matrix(.06 0 0 -.06 0 854.08)"/><path d="m167.714844 742.34375v4.382812l61.492187-5.851562v-4.382812zm0 0"/><path d="m4068.554687 656.932292h100.716146v5.533854h-100.716146zm0 0" fill="none" stroke="#000" stroke-linejoin="round" stroke-miterlimit="10" stroke-width="8.91656" transform="matrix(.06 0 0 -.06 0 854.08)"/><path d="m244.113281 814.667969h6.042969v-.335938h-6.042969zm0 0"/><path d="m4746.223958 1696.255208v-73.046875l1024.804688 97.460938v73.046875zm0 0" fill="none" stroke="#000" stroke-linejoin="round" stroke-miterlimit="10" stroke-width="6.64176" transform="matrix(.06 0 0 -.06 0 854.08)"/><path d="m284.773438 752.304688v4.382812l61.488281-5.847656v-4.382813zm0 0"/><path d="m6934.179687 656.932292h100.651042v5.533854h-100.651042zm0 0" fill="none" stroke="#000" stroke-linejoin="round" stroke-miterlimit="10" stroke-width="8.91656" transform="matrix(.06 0 0 -.06 0 854.08)"/><path d="m416.050781 814.667969h6.039063v-.335938h-6.039063zm0 0"/><use x="528.138056" xlink:href="#S" y="743.624779"/><path d="m8899.479167 1080.304688h7.877604v541.796875h-7.877604zm0 0" fill="none" stroke="#000" stroke-linejoin="round" stroke-miterlimit="10" stroke-width="6.64176" transform="matrix(.06 0 0 -.06 0 854.08)"/><path d="m533.96875 789.261719h.472656v-32.507813h-.472656zm0 0"/><use x="508.493017" xlink:href="#W" y="821.409435"/><use x="513.935429" xlink:href="#Y" y="821.409435"/><use x="527.372202" xlink:href="#Z" y="821.409435"/><use x="534.175638" xlink:href="#Z" y="821.409435"/><use x="540.979074" xlink:href="#az" y="821.409435"/><use x="42.839086" xlink:href="#O" y="746.589985"/><use x="53.798008" xlink:href="#O" y="761.534015"/><path d="m1683.463542 1080.304688h7.8125v541.796875h-7.8125zm0 0" fill="none" stroke="#000" stroke-linejoin="round" stroke-miterlimit="10" stroke-width="6.64176" transform="matrix(.06 0 0 -.06 0 854.08)"/><path d="m101.007812 789.261719h.46875v-32.507813h-.46875zm0 0"/><use x="73.997748" xlink:href="#aA" y="821.409435"/><use x="94.577576" xlink:href="#ap" y="821.409435"/><use x="108.183554" xlink:href="#ag" y="821.409435"/><use x="88.667777" xlink:href="#M" y="791.422075"/><use x="7.970216" xlink:href="#P" y="776.478045"/><use x="216.395633" xlink:href="#M" y="771.496625"/><path d="m4746.223958 1163.3125h7.8125v493.75h-7.8125zm0 0" fill="none" stroke="#000" stroke-linejoin="round" stroke-miterlimit="10" stroke-width="6.64176" transform="matrix(.06 0 0 -.06 0 854.08)"/><path d="m284.773438 784.28125h.46875v-29.625h-.46875zm0 0"/><use x="258.529517" xlink:href="#ak" y="821.409435"/><use x="272.13551" xlink:href="#af" y="821.409435"/><use x="285.741502" xlink:href="#ad" y="821.409435"/><use x="272.434545" xlink:href="#M" y="786.440665"/><path d="m3812.239583 1412.401042h7.877604v506.835937h-7.877604zm0 0" fill="none" stroke="#000" stroke-linejoin="round" stroke-miterlimit="10" stroke-width="6.64176" transform="matrix(.06 0 0 -.06 0 854.08)"/><path d="m228.734375 769.335938h.46875v-30.410157h-.46875zm0 0"/><use x="210.05942" xlink:href="#aB" y="821.409435"/><use x="216.692494" xlink:href="#af" y="821.409435"/><use x="230.298472" xlink:href="#W" y="821.409435"/><use x="155.376311" xlink:href="#M" y="781.459155"/><use x="155.077482" xlink:href="#Y" y="821.409435"/><path d="m2795.247396 1246.320313h7.877604v576.822916h-7.877604zm0 0" fill="none" stroke="#000" stroke-linejoin="round" stroke-miterlimit="10" stroke-width="6.64176" transform="matrix(.06 0 0 -.06 0 854.08)"/><path d="m167.714844 779.300781h.472656v-34.609375h-.472656zm0 0"/></svg>