<svg height="505.29em" viewBox="0 0 595.28 505.29" width="595.28em" xmlns="http://www.w3.org/2000/svg" xmlns:xlink="http://www.w3.org/1999/xlink"><clipPath id="a"><path d="m0 68h595.28125v2h-595.28125zm0 0"/></clipPath><clipPath id="b"><path d="m0 58h595.28125v2h-595.28125zm0 0"/></clipPath><clipPath id="c"><path d="m0 48h595.28125v1h-595.28125zm0 0"/></clipPath><clipPath id="d"><path d="m0 38h595.28125v1h-595.28125zm0 0"/></clipPath><clipPath id="e"><path d="m0 27h595.28125v2h-595.28125zm0 0"/></clipPath><clipPath id="f"><path d="m0 191h595.28125v1h-595.28125zm0 0"/></clipPath><clipPath id="g"><path d="m0 181h595.28125v1h-595.28125zm0 0"/></clipPath><clipPath id="h"><path d="m0 170h595.28125v2h-595.28125zm0 0"/></clipPath><clipPath id="i"><path d="m0 160h595.28125v2h-595.28125zm0 0"/></clipPath><clipPath id="j"><path d="m0 150h595.28125v2h-595.28125zm0 0"/></clipPath><clipPath id="k"><path d="m0 313h595.28125v2h-595.28125zm0 0"/></clipPath><clipPath id="l"><path d="m0 303h595.28125v2h-595.28125zm0 0"/></clipPath><clipPath id="m"><path d="m0 293h595.28125v2h-595.28125zm0 0"/></clipPath><clipPath id="n"><path d="m0 283h595.28125v1h-595.28125zm0 0"/></clipPath><clipPath id="o"><path d="m0 272h595.28125v2h-595.28125zm0 0"/></clipPath><clipPath id="p"><path d="m0 436h595.28125v2h-595.28125zm0 0"/></clipPath><clipPath id="q"><path d="m0 426h595.28125v1h-595.28125zm0 0"/></clipPath><clipPath id="r"><path d="m0 415h595.28125v2h-595.28125zm0 0"/></clipPath><clipPath id="s"><path d="m0 405h595.28125v2h-595.28125zm0 0"/></clipPath><clipPath id="t"><path d="m0 395h595.28125v2h-595.28125zm0 0"/></clipPath><clipPath id="u"><path d="m591 393h4.28125v46h-4.28125zm0 0"/></clipPath><symbol id="v" overflow="visible"><path d="m6.40625 0v-1.765625c-.28125.078125-.609375.09375-1.015625.09375-.90625 0-1.15625-.25-1.15625-1.171875v-8.65625h2.171875v-1.71875h-2.171875v-3.625h-2.09375v3.625h-1.78125v1.71875h1.78125v9.578125c0 1.34375.90625 2.09375 2.546875 2.09375.5 0 1.015625-.046875 1.71875-.171875zm0 0"/></symbol><symbol id="w" overflow="visible"><path d="m12.9375-6c0-1.921875-.15625-3.125-.53125-4.109375-.859375-2.171875-2.875-3.484375-5.34375-3.484375-3.6875 0-6.046875 2.71875-6.046875 7.0625s2.28125 6.90625 6 6.90625c3.015625 0 5.109375-1.71875 5.640625-4.390625h-2.109375c-.578125 1.75-1.765625 2.453125-3.453125 2.453125-2.203125 0-3.84375-1.40625-3.890625-4.4375zm-2.25-1.875s0 .109375-.015625.15625h-7.421875c.1875-2.34375 1.671875-3.9375 3.78125-3.9375 2.078125 0 3.65625 1.71875 3.65625 3.78125zm0 0"/></symbol><symbol id="x" overflow="visible"><path d="m12.28125 0v-9.984375c0-2.203125-1.640625-3.609375-4.1875-3.609375-1.96875 0-3.21875.75-4.390625 2.59375v-2.21875h-1.9375v13.21875h2.09375v-7.28125c0-2.703125 1.46875-4.46875 3.609375-4.46875 1.65625 0 2.71875 1 2.71875 2.59375v9.15625zm0 0"/></symbol><symbol id="y" overflow="visible"><path d="m4.84375.40625v-3.03125h-2.65625v2.625h1.515625v.453125c0 1.734375-.328125 2.25-1.515625 2.296875v.953125c1.765625 0 2.65625-1.125 2.65625-3.296875zm0 0"/></symbol><symbol id="z" overflow="visible"><path d="m4.875 0v-18.390625h-2.359375v18.390625zm0 0"/></symbol><symbol id="A" overflow="visible"><path d="m11.578125-3.703125c0-1.96875-1.109375-2.953125-3.734375-3.578125l-2.015625-.484375c-1.71875-.40625-2.453125-.953125-2.453125-1.890625 0-1.21875 1.09375-2 2.796875-2s2.609375.734375 2.65625 2.125h2.21875c-.03125-2.59375-1.734375-4.0625-4.796875-4.0625-3.078125 0-5.0625 1.59375-5.0625 4.03125 0 2.078125 1.0625 3.0625 4.1875 3.8125l1.96875.484375c1.453125.34375 2.03125.78125 2.03125 1.734375 0 1.234375-1.234375 1.96875-3.078125 1.96875-1.890625 0-2.9375-.453125-3.21875-2.46875h-2.21875c.09375 3.046875 1.8125 4.40625 5.265625 4.40625 3.328125 0 5.453125-1.53125 5.453125-4.078125zm0 0"/></symbol><symbol id="B" overflow="visible"><path d="m16.265625-5.59375v-12.796875h-2.34375v12.796875c0 2.46875-1.796875 3.984375-4.75 3.984375-2.734375 0-4.6875-1.3125-4.6875-3.984375v-12.796875h-2.34375v12.796875c0 3.734375 2.671875 6.046875 7.03125 6.046875 4.3125 0 7.09375-2.375 7.09375-6.046875zm-1.734375-17.5h-3.4375l-2.890625 3.34375h1.8125zm0 0"/></symbol><symbol id="C" overflow="visible"><path d="m8.09375-11.375v-2.140625c-.359375-.046875-.53125-.078125-.8125-.078125-1.359375 0-2.390625.8125-3.59375 2.78125v-2.40625h-1.921875v13.21875h2.09375v-6.859375c0-2.96875.984375-4.46875 4.234375-4.515625zm0 0"/></symbol><symbol id="D" overflow="visible"><path d="m13.484375-.046875v-1.59375c-.21875.046875-.3125.046875-.453125.046875-.71875 0-1.125-.375-1.125-1.03125v-7.359375c0-2.34375-1.71875-3.609375-4.96875-3.609375-3.203125 0-5.171875 1.234375-5.296875 4.28125h2.109375c.1875-1.609375 1.140625-2.34375 3.109375-2.34375 1.890625 0 2.953125.71875 2.953125 1.96875v.5625c0 .875-.53125 1.25-2.203125 1.453125-2.96875.390625-3.421875.484375-4.234375.8125-1.53125.625-2.3125 1.8125-2.3125 3.421875 0 2.40625 1.65625 3.8125 4.328125 3.8125 1.703125 0 3.328125-.703125 4.5-1.9375.21875 1 1.125 1.734375 2.15625 1.734375.4375 0 .765625-.046875 1.4375-.21875zm-3.671875-4.515625c0 1.890625-1.921875 3.09375-3.96875 3.09375-1.625 0-2.59375-.578125-2.59375-2.015625 0-1.390625.9375-1.984375 3.1875-2.3125 2.21875-.3125 2.671875-.40625 3.375-.734375zm0 0"/></symbol><symbol id="E" overflow="visible"><path d="m12.328125-2.171875v-11.046875h-1.9375v1.921875c-1.0625-1.5625-2.34375-2.296875-4.03125-2.296875-3.359375 0-5.625 2.828125-5.625 7.109375 0 4.171875 2.34375 6.859375 5.4375 6.859375 1.671875 0 2.828125-.703125 4.21875-2.375v.890625c0 3.5-1.4375 4.84375-3.890625 4.84375-1.65625 0-2.9375-.609375-3.203125-2.21875h-2.140625c.234375 2.5 2.171875 3.984375 5.28125 3.984375 4.125 0 5.890625-1.84375 5.890625-7.671875zm-2.140625-4.359375c0 3.15625-1.359375 4.96875-3.578125 4.96875-2.296875 0-3.6875-1.84375-3.6875-5.046875 0-3.171875 1.421875-5.046875 3.65625-5.046875 2.28125 0 3.609375 1.921875 3.609375 5.125zm0 0"/></symbol><symbol id="F" overflow="visible"><path d="m12.046875-13.21875h-2.265625l-3.65625 10.296875-3.375-10.296875h-2.25l4.46875 13.265625-.8125 2.09375c-.34375.9375-.78125 1.296875-1.6875 1.296875-.296875 0-.65625-.0625-1.109375-.15625v1.890625c.4375.21875.859375.328125 1.421875.328125 1.484375 0 2.6875-.828125 3.390625-2.71875zm0 0"/></symbol><symbol id="G" overflow="visible"><path d="m12.859375-6.5c0-4.578125-2.1875-7.09375-6-7.09375-3.703125 0-5.953125 2.546875-5.953125 6.984375s2.21875 6.984375 5.984375 6.984375c3.703125 0 5.96875-2.546875 5.96875-6.875zm-2.1875-.03125c0 3.09375-1.46875 4.96875-3.78125 4.96875-2.34375 0-3.78125-1.84375-3.78125-5.046875 0-3.171875 1.4375-5.046875 3.78125-5.046875 2.359375 0 3.78125 1.84375 3.78125 5.125zm.859375-11.859375h-2.859375l-2.421875 3.734375h1.515625zm0 0"/></symbol><symbol id="H" overflow="visible"><path d="m15.71875-5.25c0-2.21875-1.015625-3.546875-3.359375-4.453125 1.65625-.78125 2.546875-2.15625 2.546875-4.015625 0-2.671875-1.96875-4.671875-5.453125-4.671875h-7.453125v18.390625h8.296875c3.296875 0 5.421875-2.21875 5.421875-5.25zm-3.15625-8.140625c0 1.859375-1.09375 2.921875-3.6875 2.921875h-4.53125v-5.84375h4.53125c2.59375 0 3.6875 1.0625 3.6875 2.921875zm.796875 8.171875c0 1.765625-1.078125 3.15625-3.296875 3.15625h-5.71875v-6.328125h5.71875c2.21875 0 3.296875 1.375 3.296875 3.171875zm0 0"/></symbol><symbol id="I" overflow="visible"><path d="m3.859375 0v-13.21875h-2.09375v13.21875zm.28125-15.203125v-2.625h-2.625v2.625zm0 0"/></symbol><symbol id="J" overflow="visible"><path d="m11.53125 0v-1.84375h-8.203125l7.84375-9.5v-1.875h-9.859375v1.84375h7.359375l-7.890625 9.484375v1.890625zm0 0"/></symbol><symbol id="K" overflow="visible"><path d="m13.1875-6.765625c0-4.28125-2.171875-6.828125-5.640625-6.828125-1.828125 0-3.109375.6875-4.09375 2.171875v-6.96875h-2.09375v18.390625h1.890625v-1.890625c1.015625 1.53125 2.34375 2.265625 4.1875 2.265625 3.484375 0 5.75-2.84375 5.75-7.140625zm-2.1875.140625c0 3-1.5625 5.03125-3.859375 5.03125-2.21875 0-3.6875-2.015625-3.6875-5.015625 0-3.09375 1.46875-5.125 3.6875-5.015625 2.34375 0 3.859375 2.046875 3.859375 5zm0 0"/></symbol><symbol id="L" overflow="visible"><path d="m12.484375 0v-18.390625h-2.09375v6.84375c-.890625-1.34375-2.296875-2.046875-4.0625-2.046875-3.421875 0-5.671875 2.65625-5.671875 6.859375 0 4.46875 2.1875 7.109375 5.75 7.109375 1.8125 0 3.078125-.671875 4.203125-2.3125v1.9375zm-2.09375-6.5625c0 3.0625-1.46875 4.96875-3.6875 4.96875-2.3125 0-3.859375-1.9375-3.859375-5.015625s1.546875-5.015625 3.84375-5.015625c2.265625 0 3.703125 2.015625 3.703125 5.0625zm0 0"/></symbol><symbol id="M" overflow="visible"><path d="m3.859375 2.75v-15.96875h-2.09375v15.140625c0 1.25-.421875 1.8125-1.71875 1.734375l-.5-.03125v1.796875c.25.046875.375.078125.703125.078125 2.375 0 3.609375-.953125 3.609375-2.75zm.28125-17.953125v-2.625h-2.625v2.625zm0 0"/></symbol><symbol id="N" overflow="visible"><path d="m16.59375 0-7.5625-10.890625 7.484375-7.5h-3.03125l-9.140625 9.3125v-9.3125h-2.34375v18.390625h2.34375v-6.4375l3-3 6.46875 9.4375zm0 0"/></symbol><symbol id="O" overflow="visible"><path d="m3.8125 0v-18.390625h-2.09375v18.390625zm0 0"/></symbol><symbol id="P" overflow="visible"><path d="m19.171875 0v-9.90625c0-2.375-1.3125-3.6875-3.78125-3.6875-1.765625 0-2.828125.53125-4.0625 2.015625-.78125-1.40625-1.84375-2.015625-3.5625-2.015625-1.765625 0-2.921875.65625-4.0625 2.25v-1.875h-1.90625v13.21875h2.09375v-8.296875c0-1.921875 1.375-3.453125 3.09375-3.453125 1.5625 0 2.453125.953125 2.453125 2.640625v9.109375h2.09375v-8.296875c0-1.921875 1.40625-3.453125 3.125-3.453125 1.53125 0 2.421875.984375 2.421875 2.640625v9.109375zm0 0"/></symbol><symbol id="Q" overflow="visible"><path d="m13.484375-.046875v-1.59375c-.21875.046875-.3125.046875-.453125.046875-.71875 0-1.125-.375-1.125-1.03125v-7.359375c0-2.34375-1.71875-3.609375-4.96875-3.609375-3.203125 0-5.171875 1.234375-5.296875 4.28125h2.109375c.1875-1.609375 1.140625-2.34375 3.109375-2.34375 1.890625 0 2.953125.71875 2.953125 1.96875v.5625c0 .875-.53125 1.25-2.203125 1.453125-2.96875.390625-3.421875.484375-4.234375.8125-1.53125.625-2.3125 1.8125-2.3125 3.421875 0 2.40625 1.65625 3.8125 4.328125 3.8125 1.703125 0 3.328125-.703125 4.5-1.9375.21875 1 1.125 1.734375 2.15625 1.734375.4375 0 .765625-.046875 1.4375-.21875zm-3.671875-4.515625c0 1.890625-1.921875 3.09375-3.96875 3.09375-1.625 0-2.59375-.578125-2.59375-2.015625 0-1.390625.9375-1.984375 3.1875-2.3125 2.21875-.3125 2.671875-.40625 3.375-.734375zm1.640625-13.828125h-2.859375l-2.421875 3.734375h1.515625zm0 0"/></symbol><symbol id="R" overflow="visible"><path d="m12.25-13.21875h-2.359375l-3.734375 10.71875-3.53125-10.71875h-2.375l4.640625 13.21875h2.296875zm0 0"/></symbol><symbol id="S" overflow="visible"><path d="m12.9375-6c0-1.921875-.15625-3.125-.53125-4.109375-.859375-2.171875-2.875-3.484375-5.34375-3.484375-3.6875 0-6.046875 2.71875-6.046875 7.0625s2.28125 6.90625 6 6.90625c3.015625 0 5.109375-1.71875 5.640625-4.390625h-2.109375c-.578125 1.75-1.765625 2.453125-3.453125 2.453125-2.203125 0-3.84375-1.40625-3.890625-4.4375zm-2.25-1.875s0 .109375-.015625.15625h-7.421875c.1875-2.34375 1.671875-3.9375 3.78125-3.9375 2.078125 0 3.65625 1.71875 3.65625 3.78125zm.890625-10.515625h-2.859375l-2.421875 3.734375h1.515625zm0 0"/></symbol><symbol id="T" overflow="visible"><path d="m17.125 0v-.578125c-.890625-.609375-1.078125-1.265625-1.109375-3.703125-.046875-3.03125-.5-3.9375-2.5-4.796875 2.0625-1.015625 2.90625-2.296875 2.90625-4.390625 0-3.171875-2-4.921875-5.609375-4.921875h-8.46875v18.390625h2.34375v-7.921875h6.0625c2.0625 0 3.046875 1.015625 3.015625 3.28125l-.015625 1.640625c-.03125 1.140625.203125 2.25.53125 3zm-3.15625-13.140625c0 2.171875-1.109375 3.15625-3.609375 3.15625h-5.671875v-6.328125h5.671875c2.625 0 3.609375 1.109375 3.609375 3.171875zm0 0"/></symbol><symbol id="U" overflow="visible"><path d="m4.8125 0v-2.625h-2.625v2.625zm0-10.59375v-2.625h-2.625v2.625zm0 0"/></symbol><symbol id="V" overflow="visible"><path d="m15.65625-5.046875c0-2.265625-1.40625-3.9375-3.90625-4.609375l-4.609375-1.234375c-2.21875-.578125-3.03125-1.3125-3.03125-2.734375 0-1.859375 1.640625-3.25 4.109375-3.25 2.921875 0 4.59375 1.34375 4.59375 3.734375h2.21875c0-3.609375-2.5-5.703125-6.734375-5.703125-4.03125 0-6.53125 2.21875-6.53125 5.546875 0 2.25 1.1875 3.65625 3.609375 4.296875l4.5625 1.203125c2.3125.609375 3.375 1.546875 3.375 2.984375 0 2.015625-1.515625 3.203125-4.6875 3.203125-3.484375 0-5.1875-1.75-5.1875-4.375h-2.234375c0 4.34375 2.9375 6.4375 7.265625 6.4375 4.671875 0 7.1875-2.21875 7.1875-5.5zm0 0"/></symbol><symbol id="W" overflow="visible"><path d=""/></symbol><symbol id="X" overflow="visible"><path d="m12.25 0v-9.984375c0-2.21875-1.578125-3.609375-4.15625-3.609375-1.859375 0-3 .578125-4.234375 2.1875v-6.984375h-2.09375v18.390625h2.09375v-7.28125c0-2.703125 1.40625-4.46875 3.578125-4.46875 1.484375 0 2.71875.859375 2.71875 2.59375v9.15625zm0 0"/></symbol><symbol id="Y" overflow="visible"><path d="m4.5625 0v-13.21875h-2.09375v13.21875zm3.203125-18.390625h-2.84375l-2.421875 3.734375h1.515625zm0 0"/></symbol><symbol id="Z" overflow="visible"><path d="m7.15625-6.046875v-1.828125h-6v1.828125zm0 0"/></symbol><symbol id="aa" overflow="visible"><path d="m12.65625 0-5.390625-8.65625 4.59375-4.5625h-2.703125l-5.59375 5.609375v-10.78125h-2.09375v18.390625h2.09375v-5.140625l2.03125-2.015625 4.46875 7.15625zm0 0"/></symbol><symbol id="ab" overflow="visible"><path d="m9.0625-5.515625c-1.703125 0-3.34375.578125-4.8125 1.46875-1.921875 1.140625-4.25 3.140625-4.25 6.046875 0 2.40625 2.125 3.515625 4.28125 3.515625 1.71875 0 3.359375-.578125 4.828125-1.46875 1.921875-1.140625 4.203125-3.140625 4.203125-6.046875 0-2.40625-2.078125-3.515625-4.25-3.515625zm0 0"/></symbol><symbol id="ac" overflow="visible"><path d="m5.796875 0c.171875 0 .328125-.15625.328125-.328125v-9.5625c0-.15625-.15625-.3125-.328125-.3125h-5.46875c-.171875 0-.328125.15625-.328125.3125v9.5625c0 .171875.15625.328125.328125.328125zm0 0"/></symbol><symbol id="ad" overflow="visible"><path d="m1.015625-1.796875c.046875-1.34375.9375-2.53125 2.21875-2.53125 1.21875 0 1.796875 1.421875 1.796875 2.8125 0 2.421875-2.046875 4.125-3.921875 5.6875-.09375-.90625-.171875-1.796875-.171875-2.703125 0-.15625.046875-.28125.046875-.453125zm-2.03125-17.109375.4375 24.46875c0 .484375.375.84375.859375.84375.734375 0 1.0625-.84375 1.640625-1.296875 2.578125-2.09375 6.25-3.5625 6.25-6.90625 0-2.203125-1.640625-4.078125-3.796875-4.078125-1.3125 0-2.53125.4375-3.59375 1.21875l.234375-14.25c-.328125-.171875-.640625-.296875-1.015625-.296875s-.6875.125-1.015625.296875zm0 0"/></symbol><symbol id="ae" overflow="visible"><path d="m15.28125-10.625c-.65625-2.859375-1.4375-5.671875-2.25-8.484375 3.921875-4.453125 7.46875-9.03125 7.46875-14.90625 0-4.625-2.53125-11.234375-5.390625-14.671875-.203125-.15625-.453125-.15625-.65625 0-3.875 2.8125-6.125 7.3125-6.125 12.046875 0 2.125.046875 4.203125.296875 6.296875.28125 2.65625.96875 5.21875 1.703125 7.796875-4.8125 5.46875-10.25 10.703125-10.25 17.96875 0 8.21875 5.921875 15.203125 13.609375 15.203125 1.265625 0 2.453125-.125 3.625-.328125.125 1.296875.203125 2.609375.203125 3.921875 0 .734375-.03125 1.421875-.078125 2.15625-.25 4.046875-2.734375 7.765625-6.53125 7.84375-.046875 0-.078125.046875-.125.046875-2.078125 0-3.875-1.1875-4.9375-2.859375.453125.203125.9375.359375 1.421875.359375 2.125 0 3.890625-1.75 3.890625-3.875 0-2.28125-1.6875-4.25-3.890625-4.25-2.40625 0-4.5625 1.875-4.5625 4.25 0 4.40625 3.546875 7.96875 7.953125 7.96875 4.828125 0 8.125-4.328125 8.421875-9.234375.03125-.78125.03125-1.515625.03125-2.28125 0-1.484375-.078125-2.953125-.203125-4.421875 1.0625-.328125 2.09375-.8125 2.984375-1.515625 3.03125-2.234375 4.375-5.390625 4.375-8.484375 0-5.390625-4.09375-10.578125-10.375-10.578125-.203125 0-.40625.03125-.609375.03125zm3.46875 19c-.578125-5.0625-1.515625-9.890625-2.53125-14.671875 4.484375.375 7.3125 4.125 7.3125 7.890625 0 2.859375-1.96875 5.796875-4.78125 6.78125zm-15.84375-9.640625c0-6.53125 4.40625-11.484375 8.8125-16.421875.65625 2.40625 1.3125 4.828125 1.875 7.265625-4.125.953125-6.453125 4.421875-6.453125 8.015625 0 2.859375 1.484375 5.75 4.75 7.515625.125.03125.234375.078125.359375.078125.453125 0 .8125-.40625.8125-.859375 0-.203125-.109375-.40625-.28125-.578125-2.28125-1.296875-3.34375-3.265625-3.34375-5.0625 0-2.40625 1.875-4.5625 5.109375-4.9375 1.0625 4.90625 2 9.765625 2.609375 14.984375-1.109375.171875-2.203125.25-3.34375.25-5.5625 0-10.90625-4.703125-10.90625-10.25zm13.875-41.625c.703125 2.171875.859375 3.234375.859375 5.59375 0 5.1875-2.734375 9.3125-6.078125 13.28125-.734375-2.578125-1.359375-5.0625-1.359375-8.171875 0-4.53125 2.546875-8.65625 6.578125-10.703125zm0 0"/></symbol><symbol id="af" overflow="visible"><path d="m5.796875 10.203125c.171875 0 .328125-.15625.328125-.3125v-19.78125c0-.15625-.15625-.3125-.328125-.3125h-5.46875c-.171875 0-.328125.15625-.328125.3125v19.78125c0 .15625.15625.3125.328125.3125zm0 0"/></symbol><symbol id="ag" overflow="visible"><path d="m-2.578125-1.921875c0 1.4375 1.15625 2.578125 2.578125 2.578125s2.578125-1.140625 2.578125-2.578125c0-1.421875-1.15625-2.578125-2.578125-2.578125s-2.578125 1.15625-2.578125 2.578125zm2.578125-12.78125c-6.328125 0-13.4375 7.0625-13.4375 14.78125 0 .328125.328125.578125.65625.578125.28125 0 .609375-.203125.6875-.65625 1.0625-6.078125 6.015625-10.828125 12.09375-10.828125s11.03125 4.75 12.09375 10.828125c.078125.453125.40625.65625.6875.65625.328125 0 .65625-.25.65625-.578125 0-7.71875-7.0625-14.78125-13.4375-14.78125zm0 0"/></symbol><symbol id="ah" overflow="visible"><path d="m8.5 0v-15.9375h-2.09375c-.5 1.890625-2.140625 2.859375-4.875 2.859375v2.09375h3.8125v10.984375zm0 0"/></symbol><symbol id="ai" overflow="visible"><path d="m4.8125 0v-3.28125h-3.375v3.28125zm0 0"/></symbol><g clip-path="url(#a)"><path d="m5.664062 7270.132812h9909.960938" fill="none" stroke="#000" stroke-linecap="round" stroke-miterlimit="10" stroke-width="11.2839" transform="matrix(.06 0 0 -.06 0 505.29)"/></g><g clip-path="url(#b)"><path d="m5.664062 7440.315104h9909.960938" fill="none" stroke="#000" stroke-linecap="round" stroke-miterlimit="10" stroke-width="11.2839" transform="matrix(.06 0 0 -.06 0 505.29)"/></g><g clip-path="url(#c)"><path d="m5.664062 7610.497396h9909.960938" fill="none" stroke="#000" stroke-linecap="round" stroke-miterlimit="10" stroke-width="11.2839" transform="matrix(.06 0 0 -.06 0 505.29)"/></g><g clip-path="url(#d)"><path d="m5.664062 7780.679687h9909.960938" fill="none" stroke="#000" stroke-linecap="round" stroke-miterlimit="10" stroke-width="11.2839" transform="matrix(.06 0 0 -.06 0 505.29)"/></g><g clip-path="url(#e)"><path d="m5.664062 7950.927083h9909.960938" fill="none" stroke="#000" stroke-linecap="round" stroke-miterlimit="10" stroke-width="11.2839" transform="matrix(.06 0 0 -.06 0 505.29)"/></g><path d="m8720.182292 7099.950521h305.01302" fill="none" stroke="#000" stroke-linecap="round" stroke-miterlimit="10" stroke-width="28.3034" transform="matrix(.06 0 0 -.06 0 505.29)"/><path d="m1269.726562 7099.950521h305.078125" fill="none" stroke="#000" stroke-linecap="round" stroke-miterlimit="10" stroke-width="28.3034" transform="matrix(.06 0 0 -.06 0 505.29)"/><use x="511.612023" xlink:href="#v" y="108.287206"/><use x="518.245567" xlink:href="#w" y="108.287206"/><use x="532.191582" xlink:href="#x" y="108.287206"/><use x="546.137831" xlink:href="#y" y="108.287206"/><use x="525.695051" xlink:href="#ab" y="79.293148"/><path d="m7916.927083 7221.825521h8.007813v591.471354h-8.007813zm0 0" fill="none" stroke="#000" stroke-linejoin="round" stroke-miterlimit="10" stroke-width="6.63761" transform="matrix(.06 0 0 -.06 0 505.29)"/><path d="m475.011719 71.980469h.484375v-35.488281h-.484375zm0 0"/><use x="459.248918" xlink:href="#z" y="108.287206"/><use x="466.222512" xlink:href="#A" y="108.287206"/><use x="462.360925" xlink:href="#ab" y="74.188138"/><path d="m6903.90625 7392.007812h8.007812v519.661459h-8.007812zm0 0" fill="none" stroke="#000" stroke-linejoin="round" stroke-miterlimit="10" stroke-width="6.63761" transform="matrix(.06 0 0 -.06 0 505.29)"/><path d="m414.234375 61.769531h.480469v-31.179687h-.480469zm0 0"/><use x="394.98379" xlink:href="#B" y="108.287206"/><use x="413.182107" xlink:href="#C" y="108.287206"/><use x="401.581803" xlink:href="#ab" y="63.976117"/><path d="m5848.372396 7306.916667h8.007812v506.380208h-8.007812zm0 0" fill="none" stroke="#000" stroke-linejoin="round" stroke-miterlimit="10" stroke-width="6.63761" transform="matrix(.06 0 0 -.06 0 505.29)"/><path d="m350.902344 66.875h.480468v-30.382812h-.480468zm0 0"/><use x="317.704635" xlink:href="#x" y="108.287206"/><use x="331.650914" xlink:href="#D" y="108.287206"/><use x="345.596958" xlink:href="#E" y="108.287206"/><use x="359.543236" xlink:href="#F" y="108.287206"/><use x="338.249676" xlink:href="#ab" y="69.082128"/><path d="m1832.161458 6731.851562h103.255209v5.664063h-103.255209zm0 0" fill="none" stroke="#000" stroke-linejoin="round" stroke-miterlimit="10" stroke-width="9.03736" transform="matrix(.06 0 0 -.06 0 505.29)"/><path d="m109.929688 101.378906h6.195312v-.339844h-6.195312zm0 0"/><path d="m2724.283854 7988.427083v-75.065104h1063.606771v75.065104zm0 0" fill="none" stroke="#000" stroke-linejoin="round" stroke-miterlimit="10" stroke-width="6.63761" transform="matrix(.06 0 0 -.06 0 505.29)"/><path d="m163.457031 25.984375v4.503906h63.816407v-4.503906zm0 0"/><path d="m4127.799479 6731.851562h103.320313v5.664063h-103.320313zm0 0" fill="none" stroke="#000" stroke-linejoin="round" stroke-miterlimit="10" stroke-width="9.03736" transform="matrix(.06 0 0 -.06 0 505.29)"/><path d="m247.667969 101.378906h6.199219v-.339844h-6.199219zm0 0"/><path d="m4835.351562 7953.205729v-75l1021.028646-99.804687v75zm0 0" fill="none" stroke="#000" stroke-linejoin="round" stroke-miterlimit="10" stroke-width="6.63761" transform="matrix(.06 0 0 -.06 0 505.29)"/><path d="m290.121094 28.097656v4.5l61.261718 5.988282v-4.5zm0 0"/><path d="m6903.90625 7953.205729v-75l1021.028646-99.804687v75zm0 0" fill="none" stroke="#000" stroke-linejoin="round" stroke-miterlimit="10" stroke-width="6.63761" transform="matrix(.06 0 0 -.06 0 505.29)"/><path d="m414.234375 28.097656v4.5l61.261719 5.988282v-4.5zm0 0"/><path d="m8201.822917 6731.851562h103.320312v5.664063h-103.320312zm0 0" fill="none" stroke="#000" stroke-linejoin="round" stroke-miterlimit="10" stroke-width="9.03736" transform="matrix(.06 0 0 -.06 0 505.29)"/><path d="m492.109375 101.378906h6.199219v-.339844h-6.199219zm0 0"/><path d="m8972.460937 7136.734375h8.007813v555.533854h-8.007813zm0 0" fill="none" stroke="#000" stroke-linejoin="round" stroke-miterlimit="10" stroke-width="6.63761" transform="matrix(.06 0 0 -.06 0 505.29)"/><path d="m538.347656 77.085938h.480469v-33.332032h-.480469zm0 0"/><use x="579.96016" xlink:href="#ac" y="38.447066"/><path d="m1522.005208 7136.734375h8.072917v555.533854h-8.072917zm0 0" fill="none" stroke="#000" stroke-linejoin="round" stroke-miterlimit="10" stroke-width="6.63761" transform="matrix(.06 0 0 -.06 0 505.29)"/><path d="m91.320312 77.085938h.484376v-33.332032h-.484376zm0 0"/><use x="52.928306" xlink:href="#ah" y="108.287206"/><use x="65.34389" xlink:href="#ai" y="108.287206"/><use x="81.849064" xlink:href="#z" y="108.287206"/><use x="44.96939" xlink:href="#ad" y="48.658087"/><use x="8.169416" xlink:href="#ae" y="58.869807"/><use x="78.668157" xlink:href="#ab" y="79.293248"/><path d="m3779.817708 7477.098958h8.072917v470.442709h-8.072917zm0 0" fill="none" stroke="#000" stroke-linejoin="round" stroke-miterlimit="10" stroke-width="6.63761" transform="matrix(.06 0 0 -.06 0 505.29)"/><path d="m226.789062 56.664062h.484376v-28.226562h-.484376zm0 0"/><path d="m4835.351562 7477.098958h8.007813v434.570313h-8.007813zm0 0" fill="none" stroke="#000" stroke-linejoin="round" stroke-miterlimit="10" stroke-width="6.63761" transform="matrix(.06 0 0 -.06 0 505.29)"/><path d="m290.121094 56.664062h.480468v-26.074218h-.480468zm0 0"/><use x="269.509539" xlink:href="#C" y="108.287206"/><use x="277.843216" xlink:href="#G" y="108.287206"/><use x="291.789494" xlink:href="#y" y="108.287206"/><use x="277.468555" xlink:href="#ab" y="58.870107"/><use x="209.578419" xlink:href="#H" y="108.287206"/><use x="226.416653" xlink:href="#I" y="108.287206"/><use x="214.136428" xlink:href="#ab" y="58.870107"/><use x="150.803302" xlink:href="#ab" y="58.870107"/><use x="137.232274" xlink:href="#E" y="108.287206"/><use x="151.178553" xlink:href="#D" y="108.287206"/><use x="165.124597" xlink:href="#J" y="108.287206"/><path d="m2724.283854 7477.098958h8.007813v470.442709h-8.007813zm0 0" fill="none" stroke="#000" stroke-linejoin="round" stroke-miterlimit="10" stroke-width="6.63761" transform="matrix(.06 0 0 -.06 0 505.29)"/><path d="m163.457031 56.664062h.480469v-28.226562h-.480469zm0 0"/><g clip-path="url(#f)"><path d="m5.664062 5227.75h9909.960938" style="fill:none;stroke-width:11.2839;stroke-linecap:round;stroke-linejoin:round;stroke:#000;stroke-miterlimit:10" transform="matrix(.06 0 0 -.06 0 505.29)"/></g><g clip-path="url(#g)"><path d="m5.664062 5397.997396h9909.960938" style="fill:none;stroke-width:11.2839;stroke-linecap:round;stroke-linejoin:round;stroke:#000;stroke-miterlimit:10" transform="matrix(.06 0 0 -.06 0 505.29)"/></g><g clip-path="url(#h)"><path d="m5.664062 5568.179687h9909.960938" style="fill:none;stroke-width:11.2839;stroke-linecap:round;stroke-linejoin:round;stroke:#000;stroke-miterlimit:10" transform="matrix(.06 0 0 -.06 0 505.29)"/></g><g clip-path="url(#i)"><path d="m5.664062 5738.361979h9909.960938" style="fill:none;stroke-width:11.2839;stroke-linecap:round;stroke-linejoin:round;stroke:#000;stroke-miterlimit:10" transform="matrix(.06 0 0 -.06 0 505.29)"/></g><g clip-path="url(#j)"><path d="m5.664062 5908.544271h9909.960938" style="fill:none;stroke-width:11.2839;stroke-linecap:round;stroke-linejoin:round;stroke:#000;stroke-miterlimit:10" transform="matrix(.06 0 0 -.06 0 505.29)"/></g><path d="m1252.734375 5057.567708h305.078125" style="fill:none;stroke-width:28.3034;stroke-linecap:round;stroke-linejoin:round;stroke:#000;stroke-miterlimit:10" transform="matrix(.06 0 0 -.06 0 505.29)"/><use x="508.568017" xlink:href="#K" y="230.827451"/><use x="522.514032" xlink:href="#w" y="230.827451"/><use x="536.460047" xlink:href="#x" y="230.827451"/><use x="550.406296" xlink:href="#y" y="230.827451"/><use x="526.306053" xlink:href="#ab" y="181.411352"/><path d="m7886.848958 5434.78125h8.072917v470.182292h-8.072917zm0 0" fill="none" stroke="#000" stroke-linejoin="round" stroke-miterlimit="10" stroke-width="6.63761" transform="matrix(.06 0 0 -.06 0 505.29)"/><path d="m473.210938 179.203125h.484374v-28.210937h-.484374zm0 0"/><use x="442.225884" xlink:href="#C" y="230.827451"/><use x="450.390108" xlink:href="#w" y="230.827451"/><use x="464.336152" xlink:href="#x" y="230.827451"/><use x="478.28243" xlink:href="#L" y="230.827451"/><use x="460.559921" xlink:href="#ab" y="181.411352"/><path d="m6840.364583 5349.690104h8.072917v520.572917h-8.072917zm0 0" fill="none" stroke="#000" stroke-linejoin="round" stroke-miterlimit="10" stroke-width="6.63761" transform="matrix(.06 0 0 -.06 0 505.29)"/><path d="m410.421875 184.308594h.484375v-31.234375h-.484375zm0 0"/><use x="394.658789" xlink:href="#M" y="230.827451"/><use x="400.271136" xlink:href="#G" y="230.827451"/><use x="397.770796" xlink:href="#ab" y="186.517362"/><path d="m5836.458333 5519.872396h8.007813v420.3125h-8.007813zm0 0" fill="none" stroke="#000" stroke-linejoin="round" stroke-miterlimit="10" stroke-width="6.63761" transform="matrix(.06 0 0 -.06 0 505.29)"/><path d="m350.1875 174.097656h.480469v-25.21875h-.480469zm0 0"/><use x="319.79664" xlink:href="#L" y="230.827451"/><use x="333.742684" xlink:href="#w" y="230.827451"/><use x="347.688728" xlink:href="#x" y="230.827451"/><use x="361.635006" xlink:href="#v" y="230.827451"/><use x="337.536675" xlink:href="#ab" y="176.305342"/><path d="m2697.070312 5871.044271h1054.492188v75.065104h-1054.492188zm0 0" fill="none" stroke="#000" stroke-linejoin="round" stroke-miterlimit="10" stroke-width="6.63761" transform="matrix(.06 0 0 -.06 0 505.29)"/><path d="m161.824219 153.027344h63.269531v-4.503906h-63.269531zm0 0"/><path d="m2934.960937 4689.46875h103.255209v5.664062h-103.255209zm0 0" fill="none" stroke="#000" stroke-linejoin="round" stroke-miterlimit="10" stroke-width="9.03736" transform="matrix(.06 0 0 -.06 0 505.29)"/><path d="m176.097656 223.921875h6.195313v-.339844h-6.195313zm0 0"/><path d="m4789.973958 5946.109375v-75.065104l1054.557292 35.15625v75.065104zm0 0" fill="none" stroke="#000" stroke-linejoin="round" stroke-miterlimit="10" stroke-width="6.63761" transform="matrix(.06 0 0 -.06 0 505.29)"/><path d="m287.398438 148.523438v4.503906l63.273437-2.109375v-4.503907zm0 0"/><path d="m5127.799479 4689.46875h103.320313v5.664062h-103.320313zm0 0" fill="none" stroke="#000" stroke-linejoin="round" stroke-miterlimit="10" stroke-width="9.03736" transform="matrix(.06 0 0 -.06 0 505.29)"/><path d="m307.667969 223.921875h6.199219v-.339844h-6.199219zm0 0"/><path d="m6840.364583 5910.888021.065104-75.065104 1054.492188 35.221354v75.065104zm0 0" fill="none" stroke="#000" stroke-linejoin="round" stroke-miterlimit="10" stroke-width="6.63761" transform="matrix(.06 0 0 -.06 0 505.29)"/><path d="m410.421875 150.636719.003906 4.503906 63.269531-2.113281v-4.503906zm0 0"/><path d="m8288.28125 4689.46875h103.320312v5.664062h-103.320312zm0 0" fill="none" stroke="#000" stroke-linejoin="round" stroke-miterlimit="10" stroke-width="9.03736" transform="matrix(.06 0 0 -.06 0 505.29)"/><path d="m497.296875 223.921875h6.199219v-.339844h-6.199219zm0 0"/><path d="m8982.617187 5434.78125h8.072917v555.533854h-8.072917zm0 0" fill="none" stroke="#000" stroke-linejoin="round" stroke-miterlimit="10" stroke-width="6.63761" transform="matrix(.06 0 0 -.06 0 505.29)"/><path d="m538.957031 179.203125h.484375v-33.332031h-.484375zm0 0"/><use x="579.96016" xlink:href="#af" y="171.199332"/><use x="44.97009" xlink:href="#ad" y="171.199332"/><path d="m1505.013021 5094.351562h8.007812v555.598959h-8.007812zm0 0" fill="none" stroke="#000" stroke-linejoin="round" stroke-miterlimit="10" stroke-width="6.63761" transform="matrix(.06 0 0 -.06 0 505.29)"/><path d="m90.300781 199.628906h.480469v-33.335937h-.480469zm0 0"/><use x="73.089546" xlink:href="#N" y="230.827451"/><use x="89.927538" xlink:href="#I" y="230.827451"/><use x="77.646955" xlink:href="#ab" y="201.834393"/><use x="8.169416" xlink:href="#ae" y="181.410952"/><use x="192.773386" xlink:href="#O" y="230.827451"/><use x="198.385733" xlink:href="#D" y="230.827451"/><use x="212.332011" xlink:href="#v" y="230.827451"/><use x="219.305619" xlink:href="#A" y="230.827451"/><use x="231.891574" xlink:href="#J" y="230.827451"/><path d="m4789.973958 5434.78125h8.072917v470.703125h-8.072917zm0 0" fill="none" stroke="#000" stroke-linejoin="round" stroke-miterlimit="10" stroke-width="6.63761" transform="matrix(.06 0 0 -.06 0 505.29)"/><path d="m287.398438 179.203125h.484374v-28.242187h-.484374zm0 0"/><use x="261.090522" xlink:href="#P" y="230.827451"/><use x="282.180794" xlink:href="#I" y="230.827451"/><use x="287.793141" xlink:href="#x" y="230.827451"/><use x="274.747549" xlink:href="#ab" y="181.411352"/><path d="m3743.554687 5434.78125h8.007813v470.442708h-8.007813zm0 0" fill="none" stroke="#000" stroke-linejoin="round" stroke-miterlimit="10" stroke-width="6.63761" transform="matrix(.06 0 0 -.06 0 505.29)"/><path d="m224.609375 179.203125h.484375v-28.226563h-.484375zm0 0"/><use x="211.958424" xlink:href="#ab" y="181.411352"/><use x="149.170598" xlink:href="#ab" y="181.411352"/><use x="146.058292" xlink:href="#Q" y="230.827451"/><use x="160.004336" xlink:href="#O" y="230.827451"/><path d="m2697.070312 5434.78125h8.007813v470.442708h-8.007813zm0 0" fill="none" stroke="#000" stroke-linejoin="round" stroke-miterlimit="10" stroke-width="6.63761" transform="matrix(.06 0 0 -.06 0 505.29)"/><path d="m161.824219 179.203125h.480469v-28.226563h-.480469zm0 0"/><g clip-path="url(#k)"><path d="m5.664062 3185.432292h9909.960938" style="fill:none;stroke-width:11.2839;stroke-linecap:round;stroke-linejoin:round;stroke:#000;stroke-miterlimit:10" transform="matrix(.06 0 0 -.06 0 505.29)"/></g><g clip-path="url(#l)"><path d="m5.664062 3355.614583h9909.960938" style="fill:none;stroke-width:11.2839;stroke-linecap:round;stroke-linejoin:round;stroke:#000;stroke-miterlimit:10" transform="matrix(.06 0 0 -.06 0 505.29)"/></g><g clip-path="url(#m)"><path d="m5.664062 3525.861979h9909.960938" style="fill:none;stroke-width:11.2839;stroke-linecap:round;stroke-linejoin:round;stroke:#000;stroke-miterlimit:10" transform="matrix(.06 0 0 -.06 0 505.29)"/></g><g clip-path="url(#n)"><path d="m5.664062 3696.044271h9909.960938" style="fill:none;stroke-width:11.2839;stroke-linecap:round;stroke-linejoin:round;stroke:#000;stroke-miterlimit:10" transform="matrix(.06 0 0 -.06 0 505.29)"/></g><g clip-path="url(#o)"><path d="m5.664062 3866.226562h9909.960938" style="fill:none;stroke-width:11.2839;stroke-linecap:round;stroke-linejoin:round;stroke:#000;stroke-miterlimit:10" transform="matrix(.06 0 0 -.06 0 505.29)"/></g><use x="515.655031" xlink:href="#v" y="349.904689"/><use x="522.288576" xlink:href="#w" y="349.904689"/><use x="536.234825" xlink:href="#L" y="349.904689"/><use x="526.251053" xlink:href="#ab" y="309.057608"/><path d="m7934.440104 3392.398437h8.007813v470.76823h-8.007813zm0 0" style="fill:none;stroke-width:6.63761;stroke-linecap:round;stroke-linejoin:round;stroke:#000;stroke-miterlimit:10" transform="matrix(.06 0 0 -.06 0 505.29)"/><path d="m476.066406 301.746094h.480469v-28.246094h-.480469zm0 0"/><use x="453.327907" xlink:href="#L" y="349.904689"/><use x="467.274185" xlink:href="#w" y="349.904689"/><use x="481.220229" xlink:href="#O" y="349.904689"/><use x="463.412927" xlink:href="#ab" y="303.951597"/><path d="m6887.174479 3477.554687h8.007813v420.3125h-8.007813zm0 0" style="fill:none;stroke-width:6.63761;stroke-linecap:round;stroke-linejoin:round;stroke:#000;stroke-miterlimit:10" transform="matrix(.06 0 0 -.06 0 505.29)"/><path d="m413.230469 296.640625h.480469v-25.21875h-.480469zm0 0"/><use x="389.214778" xlink:href="#C" y="349.904689"/><use x="397.379002" xlink:href="#w" y="349.904689"/><use x="411.325046" xlink:href="#x" y="349.904689"/><use x="400.576801" xlink:href="#ab" y="298.845587"/><path d="m5634.895833 3018.830729h8.007813v470.182292h-8.007813zm0 0" style="fill:none;stroke-width:6.63761;stroke-linecap:round;stroke-linejoin:round;stroke:#000;stroke-miterlimit:10" transform="matrix(.06 0 0 -.06 0 505.29)"/><path d="m338.09375 324.160156h.480469v-28.210937h-.480469zm0 0"/><use x="328.148656" xlink:href="#R" y="349.904689"/><use x="340.224156" xlink:href="#S" y="349.904689"/><use x="354.000747" xlink:href="#v" y="349.904689"/><use x="337.893676" xlink:href="#ab" y="293.739577"/><path d="m1923.697917 2704.898437h103.320312v5.664063h-103.320312zm0 0" style="fill:none;stroke-width:9.03736;stroke-linecap:round;stroke-linejoin:round;stroke:#000;stroke-miterlimit:10" transform="matrix(.06 0 0 -.06 0 505.29)"/><path d="m115.421875 342.996094h6.199219v-.339844h-6.199219zm0 0"/><path d="m2450.455729 3087.971354v-75.065104l1097.851563 99.804687v75.065105zm0 0" fill="none" stroke="#000" stroke-linejoin="round" stroke-miterlimit="10" stroke-width="6.63761" transform="matrix(.06 0 0 -.06 0 505.29)"/><path d="m147.027344 320.011719v4.503906l65.871094-5.988281v-4.503906zm0 0"/><path d="m4587.565104 3087.971354v-75.065104l1055.338542-35.221354v75.065104zm0 0" fill="none" stroke="#000" stroke-linejoin="round" stroke-miterlimit="10" stroke-width="6.63761" transform="matrix(.06 0 0 -.06 0 505.29)"/><path d="m275.253906 320.011719v4.503906l63.320313 2.113281v-4.503906zm0 0"/><path d="m5169.53125 2704.898437h103.255208v5.664063h-103.255208zm0 0" fill="none" stroke="#000" stroke-linejoin="round" stroke-miterlimit="10" stroke-width="9.03736" transform="matrix(.06 0 0 -.06 0 505.29)"/><path d="m310.171875 342.996094h6.195313v-.339844h-6.195313zm0 0"/><path d="m6887.109375 3938.947917v-75.065105l1055.338542-35.221354v75.065104zm0 0" fill="none" stroke="#000" stroke-linejoin="round" stroke-miterlimit="10" stroke-width="6.63761" transform="matrix(.06 0 0 -.06 0 505.29)"/><path d="m413.226562 268.953125v4.503906l63.320313 2.113281v-4.503906zm0 0"/><path d="m7269.986979 2704.898437h103.320313v5.664063h-103.320313zm0 0" fill="none" stroke="#000" stroke-linejoin="round" stroke-miterlimit="10" stroke-width="9.03736" transform="matrix(.06 0 0 -.06 0 505.29)"/><path d="m436.199219 342.996094h6.199219v-.339844h-6.199219zm0 0"/><path d="m8302.408854 2704.898437h103.320313v5.664063h-103.320313zm0 0" fill="none" stroke="#000" stroke-linejoin="round" stroke-miterlimit="10" stroke-width="9.03736" transform="matrix(.06 0 0 -.06 0 505.29)"/><path d="m498.144531 342.996094h6.195313v-.339844h-6.195313zm0 0"/><path d="m8981.705729 3307.307292h8.072917v555.598958h-8.072917zm0 0" fill="none" stroke="#000" stroke-linejoin="round" stroke-miterlimit="10" stroke-width="6.63761" transform="matrix(.06 0 0 -.06 0 505.29)"/><path d="m538.902344 306.851562h.484375v-33.335937h-.484375zm0 0"/><use x="579.96016" xlink:href="#ac" y="283.528556"/><use x="44.97009" xlink:href="#ad" y="293.740277"/><path d="m1505.013021 3392.398437h8.007812v555.598959h-8.007812zm0 0" fill="none" stroke="#000" stroke-linejoin="round" stroke-miterlimit="10" stroke-width="6.63761" transform="matrix(.06 0 0 -.06 0 505.29)"/><path d="m90.300781 301.746094h.480469v-33.335938h-.480469zm0 0"/><use x="61.354123" xlink:href="#T" y="349.904689"/><use x="79.382979" xlink:href="#w" y="349.904689"/><use x="93.329015" xlink:href="#E" y="349.904689"/><use x="77.646955" xlink:href="#ab" y="303.951597"/><use x="8.169416" xlink:href="#ae" y="303.951597"/><use x="195.16039" xlink:href="#L" y="349.904689"/><use x="209.106434" xlink:href="#S" y="349.904689"/><use x="223.052713" xlink:href="#O" y="349.904689"/><use x="228.66506" xlink:href="#v" y="349.904689"/><use x="235.638668" xlink:href="#y" y="349.904689"/><path d="m4587.565104 3053.53125h8.072917v520.572917h-8.072917zm0 0" fill="none" stroke="#000" stroke-linejoin="round" stroke-miterlimit="10" stroke-width="6.63761" transform="matrix(.06 0 0 -.06 0 505.29)"/><path d="m275.253906 322.078125h.484375v-31.234375h-.484375zm0 0"/><use x="265.05553" xlink:href="#w" y="349.904689"/><use x="279.001574" xlink:href="#A" y="349.904689"/><use x="291.416919" xlink:href="#v" y="349.904689"/><use x="275.05555" xlink:href="#ab" y="288.633567"/><path d="m3540.299479 3152.880208h8.007813v421.223959h-8.007813zm0 0" fill="none" stroke="#000" stroke-linejoin="round" stroke-miterlimit="10" stroke-width="6.63761" transform="matrix(.06 0 0 -.06 0 505.29)"/><path d="m212.417969 316.117188h.480469v-25.273438h-.480469zm0 0"/><use x="212.219424" xlink:href="#ab" y="288.633567"/><use x="146.828694" xlink:href="#ab" y="298.845287"/><use x="129.76926" xlink:href="#E" y="349.904689"/><use x="143.715304" xlink:href="#w" y="349.904689"/><use x="157.661348" xlink:href="#O" y="349.904689"/><use x="163.273929" xlink:href="#v" y="349.904689"/><use x="170.247302" xlink:href="#y" y="349.904689"/><path d="m2450.455729 3054.442708h8.007813v349.479167h-8.007813zm0 0" fill="none" stroke="#000" stroke-linejoin="round" stroke-miterlimit="10" stroke-width="6.63761" transform="matrix(.06 0 0 -.06 0 505.29)"/><path d="m147.027344 322.023438h.480468v-20.96875h-.480468zm0 0"/><g clip-path="url(#p)"><path d="m5.664062 1143.114583h9909.960938" style="fill:none;stroke-width:11.2839;stroke-linecap:round;stroke-linejoin:round;stroke:#000;stroke-miterlimit:10" transform="matrix(.06 0 0 -.06 0 505.29)"/></g><g clip-path="url(#q)"><path d="m5.664062 1313.296875h9909.960938" style="fill:none;stroke-width:11.2839;stroke-linecap:round;stroke-linejoin:round;stroke:#000;stroke-miterlimit:10" transform="matrix(.06 0 0 -.06 0 505.29)"/></g><g clip-path="url(#r)"><path d="m5.664062 1483.479167h9909.960938" style="fill:none;stroke-width:11.2839;stroke-linecap:round;stroke-linejoin:round;stroke:#000;stroke-miterlimit:10" transform="matrix(.06 0 0 -.06 0 505.29)"/></g><g clip-path="url(#s)"><path d="m5.664062 1653.661458h9909.960938" style="fill:none;stroke-width:11.2839;stroke-linecap:round;stroke-linejoin:round;stroke:#000;stroke-miterlimit:10" transform="matrix(.06 0 0 -.06 0 505.29)"/></g><g clip-path="url(#t)"><path d="m5.664062 1823.908854h9909.960938" style="fill:none;stroke-width:11.2839;stroke-linecap:round;stroke-linejoin:round;stroke:#000;stroke-miterlimit:10" transform="matrix(.06 0 0 -.06 0 505.29)"/></g><g clip-path="url(#u)"><path d="m9887.369792 1143.114583v680.794271" fill="none" stroke="#000" stroke-linejoin="round" stroke-miterlimit="10" stroke-width="67.7376" transform="matrix(.06 0 0 -.06 0 505.29)"/></g><path d="m9808.919271 1143.114583v680.794271" fill="none" stroke="#000" stroke-linejoin="round" stroke-miterlimit="10" stroke-width="21.4446" transform="matrix(.06 0 0 -.06 0 505.29)"/><use x="520.352041" xlink:href="#ab" y="426.492242"/><path d="m7791.796875 1435.171875h8.007812v555.533854h-8.007812zm0 0" fill="none" stroke="#000" stroke-linejoin="round" stroke-miterlimit="10" stroke-width="6.63761" transform="matrix(.06 0 0 -.06 0 505.29)"/><path d="m467.507812 419.179688h.480469v-33.332032h-.480469zm0 0"/><use x="448.427897" xlink:href="#v" y="472.547235"/><use x="455.061411" xlink:href="#w" y="472.547235"/><use x="469.007455" xlink:href="#O" y="472.547235"/><use x="454.85691" xlink:href="#ab" y="421.386632"/><path d="m6495.247396 919.481771h8.007812v527.213541h-8.007812zm0 0" fill="none" stroke="#000" stroke-linejoin="round" stroke-miterlimit="10" stroke-width="6.63761" transform="matrix(.06 0 0 -.06 0 505.29)"/><path d="m389.714844 450.121094h.480468v-31.632813h-.480468zm0 0"/><use x="369.650739" xlink:href="#A" y="472.547235"/><use x="382.236709" xlink:href="#J" y="472.547235"/><use x="394.822679" xlink:href="#w" y="472.547235"/><use x="408.768957" xlink:href="#x" y="472.547235"/><use x="389.515779" xlink:href="#ab" y="416.280722"/><path d="m5580.078125 1435.171875h8.072917v420.3125h-8.072917zm0 0" fill="none" stroke="#000" stroke-linejoin="round" stroke-miterlimit="10" stroke-width="6.63761" transform="matrix(.06 0 0 -.06 0 505.29)"/><path d="m334.804688 419.179688h.484374v-25.21875h-.484374zm0 0"/><use x="304.329609" xlink:href="#P" y="472.547235"/><use x="325.41988" xlink:href="#w" y="472.547235"/><use x="339.365924" xlink:href="#E" y="472.547235"/><use x="322.153644" xlink:href="#ab" y="421.386632"/><path d="m1505.013021 1996.369792v-75l1002.994791 35.15625v75.065104zm0 0" fill="none" stroke="#000" stroke-linejoin="round" stroke-miterlimit="10" stroke-width="6.63761" transform="matrix(.06 0 0 -.06 0 505.29)"/><path d="m90.300781 385.507812v4.5l60.179688-2.109374v-4.503907zm0 0"/><path d="m2874.283854 660.822917h103.320313v5.664062h-103.320313zm0 0" fill="none" stroke="#000" stroke-linejoin="round" stroke-miterlimit="10" stroke-width="9.03736" transform="matrix(.06 0 0 -.06 0 505.29)"/><path d="m172.457031 465.640625h6.199219v-.339844h-6.199219zm0 0"/><path d="m3791.341146 660.822917h103.320312v5.664062h-103.320312zm0 0" fill="none" stroke="#000" stroke-linejoin="round" stroke-miterlimit="10" stroke-width="9.03736" transform="matrix(.06 0 0 -.06 0 505.29)"/><path d="m227.480469 465.640625h6.199219v-.339844h-6.199219zm0 0"/><path d="m4562.304687 1861.408854v-75.065104l1025.846355 35.221354v75.065104zm0 0" fill="none" stroke="#000" stroke-linejoin="round" stroke-miterlimit="10" stroke-width="6.63761" transform="matrix(.06 0 0 -.06 0 505.29)"/><path d="m273.738281 393.605469v4.503906l61.550781-2.113281v-4.503906zm0 0"/><path d="m5973.046875 660.822917h103.255208v5.664062h-103.255208zm0 0" fill="none" stroke="#000" stroke-linejoin="round" stroke-miterlimit="10" stroke-width="9.03736" transform="matrix(.06 0 0 -.06 0 505.29)"/><path d="m358.382812 465.640625h6.195313v-.339844h-6.195313zm0 0"/><path d="m7207.877604 660.822917h103.255208v5.664062h-103.255208zm0 0" fill="none" stroke="#000" stroke-linejoin="round" stroke-miterlimit="10" stroke-width="9.03736" transform="matrix(.06 0 0 -.06 0 505.29)"/><path d="m432.472656 465.640625h6.195313v-.339844h-6.195313zm0 0"/><path d="m8122.395833 660.822917h103.320313v5.664062h-103.320313zm0 0" fill="none" stroke="#000" stroke-linejoin="round" stroke-miterlimit="10" stroke-width="9.03736" transform="matrix(.06 0 0 -.06 0 505.29)"/><path d="m487.34375 465.640625h6.199219v-.339844h-6.199219zm0 0"/><use x="527.019054" xlink:href="#ag" y="388.055766"/><path d="m8883.398437 1350.080729h8.007813v555.533854h-8.007813zm0 0" fill="none" stroke="#000" stroke-linejoin="round" stroke-miterlimit="10" stroke-width="6.63761" transform="matrix(.06 0 0 -.06 0 505.29)"/><path d="m533.003906 424.285156h.480469v-33.332031h-.480469zm0 0"/><use x="506.270013" xlink:href="#v" y="472.547235"/><use x="512.903557" xlink:href="#w" y="472.547235"/><use x="526.849806" xlink:href="#L" y="472.547235"/><use x="540.795821" xlink:href="#U" y="472.547235"/><use x="44.96939" xlink:href="#ad" y="416.280722"/><path d="m1505.013021 1435.171875h8.007812v520.638021h-8.007812zm0 0" fill="none" stroke="#000" stroke-linejoin="round" stroke-miterlimit="10" stroke-width="6.63761" transform="matrix(.06 0 0 -.06 0 505.29)"/><path d="m90.300781 419.179688h.480469v-31.238282h-.480469zm0 0"/><use x="57.782016" xlink:href="#V" y="472.547235"/><use x="74.620242" xlink:href="#W" y="472.547235"/><use x="81.59385" xlink:href="#X" y="472.547235"/><use x="95.539886" xlink:href="#Y" y="472.547235"/><use x="102.513494" xlink:href="#Z" y="472.547235"/><use x="77.646955" xlink:href="#ab" y="421.386632"/><use x="8.169416" xlink:href="#ae" y="426.492262"/><path d="m4562.304687 1350.080729h8.007813v470.703125h-8.007813zm0 0" fill="none" stroke="#000" stroke-linejoin="round" stroke-miterlimit="10" stroke-width="6.63761" transform="matrix(.06 0 0 -.06 0 505.29)"/><path d="m273.738281 424.285156h.480469v-28.242187h-.480469zm0 0"/><use x="247.511495" xlink:href="#x" y="472.547235"/><use x="261.457774" xlink:href="#w" y="472.547235"/><use x="275.403818" xlink:href="#aa" y="472.547235"/><use x="261.084522" xlink:href="#ab" y="426.492242"/><path d="m3290.039062 976.1875h8.007813v555.598958h-8.007813zm0 0" fill="none" stroke="#000" stroke-linejoin="round" stroke-miterlimit="10" stroke-width="6.63761" transform="matrix(.06 0 0 -.06 0 505.29)"/><path d="m197.402344 446.71875h.480468v-33.335938h-.480468zm0 0"/><use x="194.090388" xlink:href="#I" y="472.547235"/><use x="199.702735" xlink:href="#L" y="472.547235"/><use x="197.202394" xlink:href="#ab" y="411.174912"/><path d="m2500 1520.263021h8.072917v470.247396h-8.072917zm0 0" fill="none" stroke="#000" stroke-linejoin="round" stroke-miterlimit="10" stroke-width="6.63761" transform="matrix(.06 0 0 -.06 0 505.29)"/><path d="m150 414.074219h.484375v-28.210938h-.484375zm0 0"/><use x="131.003262" xlink:href="#R" y="472.547235"/><use x="143.078513" xlink:href="#w" y="472.547235"/><use x="137.347275" xlink:href="#ab" y="416.280722"/></svg>