<svg height="852.55em" viewBox="0 0 595.28 852.55" width="595.28em" xmlns="http://www.w3.org/2000/svg" xmlns:xlink="http://www.w3.org/1999/xlink"><clipPath id="a"><path d="m0 58h595.28125v2h-595.28125zm0 0"/></clipPath><clipPath id="b"><path d="m0 50h595.28125v1h-595.28125zm0 0"/></clipPath><clipPath id="c"><path d="m0 41h595.28125v1h-595.28125zm0 0"/></clipPath><clipPath id="d"><path d="m0 32h595.28125v2h-595.28125zm0 0"/></clipPath><clipPath id="e"><path d="m0 23h595.28125v2h-595.28125zm0 0"/></clipPath><clipPath id="f"><path d="m0 163h595.28125v1h-595.28125zm0 0"/></clipPath><clipPath id="g"><path d="m0 154h595.28125v2h-595.28125zm0 0"/></clipPath><clipPath id="h"><path d="m0 145h595.28125v2h-595.28125zm0 0"/></clipPath><clipPath id="i"><path d="m0 137h595.28125v1h-595.28125zm0 0"/></clipPath><clipPath id="j"><path d="m0 128h595.28125v2h-595.28125zm0 0"/></clipPath><clipPath id="k"><path d="m0 267h595.28125v2h-595.28125zm0 0"/></clipPath><clipPath id="l"><path d="m0 259h595.28125v1h-595.28125zm0 0"/></clipPath><clipPath id="m"><path d="m0 250h595.28125v2h-595.28125zm0 0"/></clipPath><clipPath id="n"><path d="m0 241h595.28125v2h-595.28125zm0 0"/></clipPath><clipPath id="o"><path d="m0 233h595.28125v1h-595.28125zm0 0"/></clipPath><clipPath id="p"><path d="m0 372h595.28125v2h-595.28125zm0 0"/></clipPath><clipPath id="q"><path d="m0 363h595.28125v2h-595.28125zm0 0"/></clipPath><clipPath id="r"><path d="m0 355h595.28125v1h-595.28125zm0 0"/></clipPath><clipPath id="s"><path d="m0 346h595.28125v2h-595.28125zm0 0"/></clipPath><clipPath id="t"><path d="m0 337h595.28125v2h-595.28125zm0 0"/></clipPath><clipPath id="u"><path d="m0 477h595.28125v1h-595.28125zm0 0"/></clipPath><clipPath id="v"><path d="m0 468h595.28125v2h-595.28125zm0 0"/></clipPath><clipPath id="w"><path d="m0 459h595.28125v2h-595.28125zm0 0"/></clipPath><clipPath id="x"><path d="m0 451h595.28125v1h-595.28125zm0 0"/></clipPath><clipPath id="y"><path d="m0 442h595.28125v1h-595.28125zm0 0"/></clipPath><clipPath id="z"><path d="m0 581h595.28125v2h-595.28125zm0 0"/></clipPath><clipPath id="A"><path d="m0 573h595.28125v1h-595.28125zm0 0"/></clipPath><clipPath id="B"><path d="m0 564h595.28125v1h-595.28125zm0 0"/></clipPath><clipPath id="C"><path d="m0 555h595.28125v2h-595.28125zm0 0"/></clipPath><clipPath id="D"><path d="m0 546h595.28125v2h-595.28125zm0 0"/></clipPath><clipPath id="E"><path d="m0 686h595.28125v2h-595.28125zm0 0"/></clipPath><clipPath id="F"><path d="m0 677h595.28125v2h-595.28125zm0 0"/></clipPath><clipPath id="G"><path d="m0 668h595.28125v2h-595.28125zm0 0"/></clipPath><clipPath id="H"><path d="m0 660h595.28125v1h-595.28125zm0 0"/></clipPath><clipPath id="I"><path d="m0 651h595.28125v2h-595.28125zm0 0"/></clipPath><clipPath id="J"><path d="m0 790h595.28125v2h-595.28125zm0 0"/></clipPath><clipPath id="K"><path d="m0 782h595.28125v1h-595.28125zm0 0"/></clipPath><clipPath id="L"><path d="m0 773h595.28125v2h-595.28125zm0 0"/></clipPath><clipPath id="M"><path d="m0 764h595.28125v2h-595.28125zm0 0"/></clipPath><clipPath id="N"><path d="m0 756h595.28125v1h-595.28125zm0 0"/></clipPath><clipPath id="O"><path d="m591 754h4.28125v40h-4.28125zm0 0"/></clipPath><symbol id="P" overflow="visible"><path d="m7.75-4.703125c-1.46875 0-2.875.484375-4.125 1.25-1.640625.984375-3.625 2.6875-3.625 5.15625 0 2.0625 1.8125 3 3.65625 3 1.46875 0 2.859375-.484375 4.125-1.25 1.640625-.984375 3.59375-2.6875 3.59375-5.15625 0-2.0625-1.78125-3-3.625-3zm0 0"/></symbol><symbol id="Q" overflow="visible"><path d="m1.671875-5.4375c-.65625 0-1.15625.5625-1.15625 1.140625 0 .21875.078125.421875.21875.640625.703125.96875 1.015625 2.09375 1.015625 3.234375 0 1.71875-.703125 3.53125-1.75 5.03125-.34375.484375.390625 1 .734375.515625 1.5-2.15625 2.828125-4.640625 2.828125-6.96875 0-1.078125-.453125-3.59375-1.890625-3.59375zm0 0"/></symbol><symbol id="R" overflow="visible"><path d="m0 0v-8.71875h-.484375v8.71875zm0 0c0-7.078125 9.3125-10.671875 9.3125-17.75 0-2.15625-.53125-4.296875-1.390625-6.25-.140625-.234375-.390625-.34375-.640625-.34375-.40625 0-.828125.34375-.71875.875.859375 1.8125 1.390625 3.734375 1.390625 5.71875 0 3.90625-4.53125 7.015625-7.953125 9.03125zm0 0"/></symbol><symbol id="S" overflow="visible"><path d="m.875-1.53125c.03125-1.15625.796875-2.171875 1.875-2.171875 1.046875 0 1.546875 1.234375 1.546875 2.40625 0 2.0625-1.75 3.53125-3.359375 4.859375-.0625-.765625-.140625-1.546875-.140625-2.3125 0-.140625.046875-.234375.046875-.375zm-1.75-14.609375.390625 20.890625c0 .40625.3125.71875.734375.71875.625 0 .90625-.71875 1.390625-1.109375 2.203125-1.78125 5.328125-3.03125 5.328125-5.890625 0-1.890625-1.390625-3.484375-3.234375-3.484375-1.125 0-2.171875.375-3.078125 1.046875l.21875-12.171875c-.28125-.140625-.5625-.25-.875-.25s-.59375.109375-.875.25zm0 0"/></symbol><symbol id="T" overflow="visible"><path d="m13.046875-9.0625c-.5625-2.453125-1.21875-4.859375-1.921875-7.265625 3.34375-3.796875 6.375-7.703125 6.375-12.71875 0-3.9375-2.15625-9.59375-4.59375-12.53125-.171875-.125-.390625-.125-.5625 0-3.3125 2.40625-5.234375 6.25-5.234375 10.296875 0 1.8125.046875 3.59375.25 5.375.25 2.265625.84375 4.453125 1.46875 6.65625-4.125 4.671875-8.765625 9.140625-8.765625 15.34375 0 7.015625 5.0625 12.96875 11.625 12.96875 1.078125 0 2.09375-.09375 3.09375-.28125.109375 1.125.1875 2.234375.1875 3.359375 0 .625-.046875 1.21875-.078125 1.84375-.203125 3.453125-2.328125 6.625-5.578125 6.703125-.03125 0-.078125.03125-.109375.03125-1.78125 0-3.3125-1.015625-4.21875-2.4375.390625.171875.8125.3125 1.21875.3125 1.8125 0 3.3125-1.5 3.3125-3.3125 0-1.953125-1.421875-3.640625-3.3125-3.640625-2.046875 0-3.90625 1.609375-3.90625 3.640625 0 3.765625 3.03125 6.796875 6.8125 6.796875 4.109375 0 6.9375-3.703125 7.171875-7.890625.046875-.65625.046875-1.28125.046875-1.953125 0-1.25-.078125-2.5-.1875-3.765625.90625-.265625 1.78125-.6875 2.546875-1.28125 2.59375-1.921875 3.734375-4.609375 3.734375-7.25 0-4.609375-3.484375-9.046875-8.859375-9.046875-.171875 0-.34375.046875-.515625.046875zm2.953125 16.21875c-.484375-4.328125-1.28125-8.453125-2.15625-12.53125 3.84375.3125 6.25 3.53125 6.25 6.734375 0 2.4375-1.6875 4.953125-4.09375 5.796875zm-13.53125-8.234375c0-5.578125 3.78125-9.796875 7.546875-14.015625.546875 2.046875 1.109375 4.109375 1.59375 6.203125-3.515625.796875-5.5 3.765625-5.5 6.828125 0 2.453125 1.25 4.921875 4.046875 6.421875.09375.03125.203125.0625.3125.0625.375 0 .6875-.34375.6875-.71875 0-.1875-.09375-.359375-.234375-.5-1.953125-1.109375-2.859375-2.78125-2.859375-4.3125 0-2.0625 1.59375-3.90625 4.359375-4.21875.90625 4.171875 1.703125 8.328125 2.21875 12.796875-.9375.140625-1.875.203125-2.859375.203125-4.734375 0-9.3125-4.015625-9.3125-8.75zm11.859375-35.546875c.59375 1.859375.734375 2.765625.734375 4.78125 0 4.4375-2.328125 7.953125-5.1875 11.34375-.640625-2.203125-1.15625-4.328125-1.15625-6.984375 0-3.875 2.15625-7.390625 5.609375-9.140625zm0 0"/></symbol><symbol id="U" overflow="visible"><path d="m0 0h-.484375v8.71875h.484375zm0 0v8.71875c2.515625 2.609375 5.859375 6.28125 5.859375 9.90625 0 2.328125-.53125 4.609375-1.4375 6.765625-.09375.515625.328125.875.734375.875.25 0 .453125-.140625.59375-.390625.90625-2.296875 1.46875-4.78125 1.46875-7.25 0-6.90625-7.21875-11.71875-7.21875-18.625zm0 0"/></symbol><symbol id="V" overflow="visible"><path d="m4.953125 8.71875c.140625 0 .28125-.140625.28125-.28125v-16.875c0-.140625-.140625-.28125-.28125-.28125h-4.671875c-.140625 0-.28125.140625-.28125.28125v16.875c0 .140625.140625.28125.28125.28125zm0 0"/></symbol><symbol id="W" overflow="visible"><path d="m-2.203125-1.640625c0 1.21875.984375 2.203125 2.203125 2.203125s2.203125-.984375 2.203125-2.203125-.984375-2.203125-2.203125-2.203125-2.203125.984375-2.203125 2.203125zm2.203125-10.921875c-5.40625 0-11.46875 6.046875-11.46875 12.625 0 .28125.28125.5.546875.5.25 0 .53125-.171875.59375-.5625.90625-5.203125 5.125-9.234375 10.328125-9.234375s9.421875 4.03125 10.328125 9.234375c.0625.390625.34375.5625.59375.5625.265625 0 .546875-.21875.546875-.5 0-6.578125-6.03125-12.625-11.46875-12.625zm0 0"/></symbol><symbol id="X" overflow="visible"><path d="m11.859375-15.703125.03125 11.03125c0 2.109375-1.53125 3.40625-4.03125 3.40625s-4.03125-1.296875-4.03125-3.40625v-11.03125h-2v11.03125c0 3.140625 2.375 5.171875 6.03125 5.171875s6.03125-2.046875 6.03125-5.171875l-.03125-11.03125zm-3.53125-4.515625-2.0625 3.1875h1.296875l3.203125-3.1875zm0 0"/></symbol><symbol id="Y" overflow="visible"><path d="m1.484375-11.28125v11.28125h1.8125v-5.859375c.015625-2.703125 1.140625-3.921875 3.609375-3.84375v-1.84375c-.296875-.03125-.46875-.0625-.6875-.0625-1.15625 0-2.046875.6875-3.078125 2.375v-2.046875zm0 0"/></symbol><symbol id="Z" overflow="visible"><path d="m4.171875-15.703125h-2.015625v15.703125h2.015625zm0 0"/></symbol><symbol id="aa" overflow="visible"><path d="m9.4375-8.140625c-.03125-2.21875-1.5-3.46875-4.09375-3.46875-2.625 0-4.328125 1.359375-4.328125 3.453125 0 1.765625.90625 2.59375 3.578125 3.25l1.671875.40625c1.25.296875 1.75.75 1.75 1.546875 0 1.078125-1.0625 1.796875-2.625 1.796875-.984375 0-1.796875-.28125-2.25-.765625-.28125-.3125-.40625-.640625-.515625-1.4375h-1.890625c.078125 2.609375 1.546875 3.859375 4.5 3.859375 2.84375 0 4.65625-1.40625 4.65625-3.578125 0-1.6875-.953125-2.609375-3.1875-3.140625l-1.734375-.40625c-1.453125-.34375-2.078125-.828125-2.078125-1.625 0-1.046875.921875-1.703125 2.390625-1.703125 1.4375 0 2.21875.625 2.25 1.8125zm0 0"/></symbol><symbol id="ab" overflow="visible"><path d="m1.5-11.28125v11.28125h1.8125v-7.078125c0-1.640625 1.1875-2.953125 2.65625-2.953125 1.328125 0 2.078125.8125 2.078125 2.265625v7.765625h1.8125v-7.078125c0-1.640625 1.1875-2.953125 2.65625-2.953125 1.3125 0 2.078125.84375 2.078125 2.265625v7.765625h1.8125v-8.46875c0-2.015625-1.15625-3.140625-3.265625-3.140625-1.515625 0-2.421875.453125-3.46875 1.71875-.671875-1.203125-1.578125-1.71875-3.046875-1.71875-1.5 0-2.515625.5625-3.453125 1.921875v-1.59375zm0 0"/></symbol><symbol id="ac" overflow="visible"><path d="m11.046875-5.03125c0-1.734375-.125-2.765625-.453125-3.609375-.734375-1.84375-2.453125-2.96875-4.5625-2.96875-3.140625 0-5.171875 2.390625-5.171875 6.125 0 3.71875 1.9375 5.984375 5.125 5.984375 2.578125 0 4.375-1.46875 4.828125-3.921875h-1.8125c-.5 1.484375-1.5 2.265625-2.953125 2.265625-1.140625 0-2.109375-.515625-2.703125-1.46875-.4375-.640625-.59375-1.296875-.609375-2.40625zm-8.265625-1.46875c.140625-2.09375 1.421875-3.453125 3.21875-3.453125 1.84375 0 3.109375 1.421875 3.109375 3.453125zm0 0"/></symbol><symbol id="ad" overflow="visible"><path d="m5.46875-11.28125h-1.84375v-3.109375h-1.796875v3.109375h-1.53125v1.46875h1.53125v8.515625c0 1.171875.78125 1.796875 2.171875 1.796875.484375 0 .859375-.046875 1.46875-.15625v-1.5c-.265625.0625-.5.078125-.859375.078125-.78125 0-.984375-.21875-.984375-1.015625v-7.71875h1.84375zm0 0"/></symbol><symbol id="ae" overflow="visible"><path d="m1.875-2.234375v2.234375h1.296875v.390625c0 1.484375-.28125 1.90625-1.296875 1.953125v.828125c1.421875.03125 2.265625-1 2.265625-2.828125v-2.578125zm0 0"/></symbol><symbol id="af" overflow="visible"><path d="m3.234375-11.28125h-1.796875v11.28125h1.796875zm0-4.421875h-1.8125v2.265625h1.8125zm0 0"/></symbol><symbol id="ag" overflow="visible"><path d="m1.5-11.28125v11.28125h1.8125v-6.21875c0-2.3125 1.203125-3.8125 3.0625-3.8125 1.421875 0 2.328125.859375 2.328125 2.21875v7.8125h1.78125v-8.53125c0-1.875-1.390625-3.078125-3.578125-3.078125-1.671875 0-2.75.65625-3.734375 2.21875v-1.890625zm0 0"/></symbol><symbol id="ah" overflow="visible"><path d="m1.5-15.703125v15.703125h1.796875v-6.21875c0-2.3125 1.203125-3.8125 3.0625-3.8125.59375 0 1.15625.171875 1.578125.5.53125.375.734375.921875.734375 1.71875v7.8125h1.796875v-8.53125c0-1.890625-1.359375-3.078125-3.5625-3.078125-1.59375 0-2.5625.5-3.609375 1.875v-5.96875zm0 0"/></symbol><symbol id="ai" overflow="visible"><path d="m5.859375-11.609375c-3.1875 0-5.078125 2.265625-5.078125 6.046875 0 3.8125 1.890625 6.0625 5.09375 6.0625 3.1875 0 5.109375-2.265625 5.109375-5.96875 0-3.921875-1.859375-6.140625-5.125-6.140625zm.015625 1.65625c2.03125 0 3.234375 1.65625 3.234375 4.46875 0 2.65625-1.25 4.328125-3.234375 4.328125-2 0-3.234375-1.671875-3.234375-4.40625s1.234375-4.390625 3.234375-4.390625zm0 0"/></symbol><symbol id="aj" overflow="visible"><path d="m9.53125-11.28125h-8.40625v1.578125h6.28125l-6.734375 8.09375v1.609375h9.171875v-1.578125h-7l6.6875-8.109375zm0 0"/></symbol><symbol id="ak" overflow="visible"><path d="m7.625-13.9375h5.140625v-1.765625h-12.3125v1.765625h5.171875v13.9375h2zm0 0"/></symbol><symbol id="al" overflow="visible"><path d="m11.515625-1.0625c-.1875.046875-.28125.046875-.390625.046875-.625 0-.96875-.3125-.96875-.875v-6.640625c0-2-1.453125-3.078125-4.234375-3.078125-1.65625 0-2.96875.484375-3.75 1.3125-.515625.59375-.734375 1.234375-.765625 2.359375h1.796875c.15625-1.390625.96875-2.015625 2.65625-2.015625 1.640625 0 2.515625.609375 2.515625 1.6875v.46875c-.015625.78125-.40625 1.0625-1.875 1.25-2.53125.328125-2.921875.40625-3.609375.6875-1.3125.5625-1.984375 1.546875-1.984375 3.015625 0 2.046875 1.421875 3.34375 3.703125 3.34375 1.421875 0 2.5625-.5 3.828125-1.65625.125 1.15625.6875 1.65625 1.859375 1.65625.375 0 .625-.046875 1.21875-.203125zm-3.140625-2.484375c0 .59375-.171875.96875-.703125 1.453125-.734375.671875-1.625 1.015625-2.671875 1.015625-1.40625 0-2.21875-.671875-2.21875-1.8125 0-1.171875.765625-1.78125 2.703125-2.0625 1.921875-.25 2.28125-.34375 2.890625-.625zm-1.828125-12.390625-2.09375 3.1875h1.296875l3.203125-3.1875zm0 0"/></symbol><symbol id="am" overflow="visible"><path d="m10.65625-15.703125h-1.78125v5.84375c-.75-1.140625-1.96875-1.75-3.46875-1.75-2.9375 0-4.84375 2.34375-4.84375 5.953125 0 3.796875 1.84375 6.15625 4.90625 6.15625 1.546875 0 2.625-.59375 3.59375-1.984375v1.484375h1.59375zm-4.953125 5.78125c1.9375 0 3.171875 1.703125 3.171875 4.40625 0 2.609375-1.25 4.328125-3.140625 4.328125-1.984375 0-3.296875-1.734375-3.296875-4.375 0-2.625 1.3125-4.359375 3.265625-4.359375zm0 0"/></symbol><symbol id="an" overflow="visible"><path d="m1.15625-15.703125v15.703125h1.625v-1.4375c.859375 1.3125 2 1.9375 3.578125 1.9375 2.96875 0 4.90625-2.4375 4.90625-6.1875 0-3.65625-1.828125-5.921875-4.828125-5.921875-1.546875 0-2.640625.578125-3.484375 1.859375v-5.953125zm4.9375 5.78125c2 0 3.296875 1.734375 3.296875 4.4375 0 2.5625-1.34375 4.296875-3.296875 4.296875-1.921875 0-3.140625-1.71875-3.140625-4.375 0-2.640625 1.21875-4.359375 3.140625-4.359375zm0 0"/></symbol><symbol id="ao" overflow="visible"><path d="m4.484375-15.703125h-1.796875v7.28125l.484375 4.796875h.828125l.484375-4.796875zm0 13.46875h-1.8125v2.234375h1.8125zm0 0"/></symbol><symbol id="ap" overflow="visible"><path d="m11.046875-5.03125c0-1.734375-.125-2.765625-.453125-3.609375-.734375-1.84375-2.453125-2.96875-4.5625-2.96875-3.140625 0-5.171875 2.390625-5.171875 6.125 0 3.71875 1.9375 5.984375 5.125 5.984375 2.578125 0 4.375-1.46875 4.828125-3.921875h-1.8125c-.5 1.484375-1.5 2.265625-2.953125 2.265625-1.140625 0-2.109375-.515625-2.703125-1.46875-.4375-.640625-.59375-1.296875-.609375-2.40625zm-8.265625-1.46875c.140625-2.09375 1.421875-3.453125 3.21875-3.453125 1.84375 0 3.109375 1.421875 3.109375 3.453125zm3.84375-9.4375-2.0625 3.1875h1.296875l3.203125-3.1875zm0 0"/></symbol><symbol id="aq" overflow="visible"><path d="m8.703125-11.28125v1.640625c-.90625-1.359375-1.90625-1.96875-3.3125-1.96875-2.75 0-4.640625 2.546875-4.640625 6.15625 0 1.90625.453125 3.28125 1.421875 4.421875.84375.984375 1.921875 1.53125 3.078125 1.53125 1.359375 0 2.328125-.609375 3.28125-2.03125v.578125c0 3.015625-.84375 4.140625-3.078125 4.140625-1.53125 0-2.328125-.609375-2.5-1.890625h-1.828125c.171875 2.078125 1.828125 3.390625 4.28125 3.390625 1.65625 0 3.03125-.53125 3.765625-1.4375.859375-1.046875 1.1875-2.453125 1.1875-5.109375v-9.421875zm-3.140625 1.328125c1.890625 0 2.96875 1.59375 2.96875 4.46875 0 2.734375-1.109375 4.328125-2.96875 4.328125s-2.9375-1.625-2.9375-4.40625c0-2.75 1.078125-4.390625 2.9375-4.390625zm0 0"/></symbol><symbol id="ar" overflow="visible"><path d="m11.515625-1.0625c-.1875.046875-.28125.046875-.390625.046875-.625 0-.96875-.3125-.96875-.875v-6.640625c0-2-1.453125-3.078125-4.234375-3.078125-1.65625 0-2.96875.484375-3.75 1.3125-.515625.59375-.734375 1.234375-.765625 2.359375h1.796875c.15625-1.390625.96875-2.015625 2.65625-2.015625 1.640625 0 2.515625.609375 2.515625 1.6875v.46875c-.015625.78125-.40625 1.0625-1.875 1.25-2.53125.328125-2.921875.40625-3.609375.6875-1.3125.5625-1.984375 1.546875-1.984375 3.015625 0 2.046875 1.421875 3.34375 3.703125 3.34375 1.421875 0 2.5625-.5 3.828125-1.65625.125 1.15625.6875 1.65625 1.859375 1.65625.375 0 .625-.046875 1.21875-.203125zm-3.140625-2.484375c0 .59375-.171875.96875-.703125 1.453125-.734375.671875-1.625 1.015625-2.671875 1.015625-1.40625 0-2.21875-.671875-2.21875-1.8125 0-1.171875.765625-1.78125 2.703125-2.0625 1.921875-.25 2.28125-.34375 2.890625-.625zm0 0"/></symbol><symbol id="as" overflow="visible"><path d="m3.265625-15.703125h-1.796875v15.703125h1.796875zm0 0"/></symbol><symbol id="at" overflow="visible"><path d="m3.9375-7.140625h8.546875v-1.765625h-8.546875v-5.03125h8.875v-1.765625h-10.875v15.703125h11.265625v-1.765625h-9.265625zm0 0"/></symbol><symbol id="au" overflow="visible"><path d="m6.140625 0 4.328125-11.28125h-2.03125l-3.1875 9.15625-3.015625-9.15625h-2.015625l3.953125 11.28125zm0 0"/></symbol><symbol id="av" overflow="visible"><path d="m8.359375-11.28125-3.125 8.78125-2.890625-8.78125h-1.90625l3.796875 11.328125-.6875 1.78125c-.296875.796875-.6875 1.09375-1.4375 1.09375-.296875 0-.5625-.03125-.953125-.125v1.609375c.375.203125.734375.28125 1.21875.28125.578125 0 1.203125-.1875 1.671875-.53125.5625-.40625.890625-.890625 1.234375-1.78125l5.015625-13.65625zm0 0"/></symbol><symbol id="aw" overflow="visible"><path d="m3.03125-15.703125h-1.78125v15.703125h1.78125v-4.390625l1.75-1.71875 3.8125 6.109375h2.21875l-4.609375-7.390625 3.921875-3.890625h-2.3125l-4.78125 4.78125zm0 0"/></symbol><symbol id="ax" overflow="visible"><path d="m10.078125 0 4.40625-13.15625v13.15625h1.90625v-15.703125h-2.78125l-4.5625 13.671875-4.65625-13.671875h-2.78125v15.703125h1.90625v-13.15625l4.453125 13.15625zm0 0"/></symbol><symbol id="ay" overflow="visible"><path d="m3.9375-7.140625h8.546875v-1.765625h-8.546875v-5.03125h8.875v-1.765625h-10.875v15.703125h11.265625v-1.765625h-9.265625zm3.96875-13.078125-2.09375 3.1875h1.296875l3.203125-3.1875zm0 0"/></symbol><symbol id="az" overflow="visible"><path d="m6.109375-6.71875h-5.125v1.546875h5.125zm0 0"/></symbol><symbol id="aA" overflow="visible"><path d="m5.859375-11.609375c-3.1875 0-5.078125 2.265625-5.078125 6.046875 0 3.8125 1.890625 6.0625 5.09375 6.0625 3.1875 0 5.109375-2.265625 5.109375-5.96875 0-3.921875-1.859375-6.140625-5.125-6.140625zm.015625 1.65625c2.03125 0 3.234375 1.65625 3.234375 4.46875 0 2.65625-1.25 4.328125-3.234375 4.328125-2 0-3.234375-1.671875-3.234375-4.40625s1.234375-4.390625 3.234375-4.390625zm-.703125-5.984375-2.09375 3.234375h1.296875l3.203125-3.234375zm3.734375 0-2.078125 3.234375h1.296875l3.203125-3.234375zm0 0"/></symbol><symbol id="aB" overflow="visible"><path d="m5.859375-11.609375c-3.1875 0-5.078125 2.265625-5.078125 6.046875 0 3.8125 1.890625 6.0625 5.09375 6.0625 3.1875 0 5.109375-2.265625 5.109375-5.96875 0-3.921875-1.859375-6.140625-5.125-6.140625zm.015625 1.65625c2.03125 0 3.234375 1.65625 3.234375 4.46875 0 2.65625-1.25 4.328125-3.234375 4.328125-2 0-3.234375-1.671875-3.234375-4.40625s1.234375-4.390625 3.234375-4.390625zm.546875-5.984375-2.078125 3.1875h1.296875l3.203125-3.1875zm0 0"/></symbol><symbol id="aC" overflow="visible"><path d="m4.109375-2.234375h-2.234375v2.234375h2.234375zm0 0"/></symbol><symbol id="aD" overflow="visible"><path d="m4.5625-9.375v9.375h2.6875v-13.59375h-1.78125c-.421875 1.609375-1.828125 2.4375-4.171875 2.4375v1.78125zm0 0"/></symbol><symbol id="aE" overflow="visible"><path d="m4.109375-2.796875h-2.875v2.796875h2.875zm0 0"/></symbol><g clip-path="url(#a)"><path d="m3.125 7934.953125h5946.523438" fill="none" stroke="#000" stroke-linecap="round" stroke-miterlimit="10" stroke-width="6.25903" transform="matrix(.1 0 0 -.1 0 852.55)"/></g><g clip-path="url(#b)"><path d="m3.125 8022.140625h5946.523438" fill="none" stroke="#000" stroke-linecap="round" stroke-miterlimit="10" stroke-width="6.25903" transform="matrix(.1 0 0 -.1 0 852.55)"/></g><g clip-path="url(#c)"><path d="m3.125 8109.328125h5946.523438" fill="none" stroke="#000" stroke-linecap="round" stroke-miterlimit="10" stroke-width="6.25903" transform="matrix(.1 0 0 -.1 0 852.55)"/></g><g clip-path="url(#d)"><path d="m3.125 8196.476562h5946.523438" fill="none" stroke="#000" stroke-linecap="round" stroke-miterlimit="10" stroke-width="6.25903" transform="matrix(.1 0 0 -.1 0 852.55)"/></g><g clip-path="url(#e)"><path d="m3.125 8283.664062h5946.523438" fill="none" stroke="#000" stroke-linecap="round" stroke-miterlimit="10" stroke-width="6.25903" transform="matrix(.1 0 0 -.1 0 852.55)"/></g><use x="434.31" xlink:href="#P" y="45.977"/><use x="428.69203" xlink:href="#X" y="90.729"/><use x="444.169421" xlink:href="#Y" y="90.729"/><path d="m4450.78125 8084.875h4.179688v283.984375h-4.179688zm0 0" style="fill:none;stroke-width:3.98381;stroke-linecap:round;stroke-linejoin:round;stroke:#000;stroke-miterlimit:10" transform="matrix(.1 0 0 -.1 0 852.55)"/><path d="m445.078125 44.0625h.417969v-28.398438h-.417969zm0 0"/><use x="489.679" xlink:href="#P" y="41.619"/><use x="487.03642" xlink:href="#Z" y="90.7295"/><use x="492.989577" xlink:href="#aa" y="90.7295"/><path d="m4898.789062 7820.734375h4.140626v269.453125h-4.140626zm0 0" style="fill:none;stroke-width:3.98381;stroke-linecap:round;stroke-linejoin:round;stroke:#000;stroke-miterlimit:10" transform="matrix(.1 0 0 -.1 0 852.55)"/><path d="m489.878906 70.476562h.414063v-26.941406h-.414063zm0 0"/><path d="m3925.351562 7997.6875h4.179688v266.328125h-4.179688zm0 0" style="fill:none;stroke-width:3.98381;stroke-linecap:round;stroke-linejoin:round;stroke:#000;stroke-miterlimit:10" transform="matrix(.1 0 0 -.1 0 852.55)"/><path d="m392.535156 52.78125h.417969v-26.632812h-.417969zm0 0"/><use x="366.881" xlink:href="#ab" y="90.729"/><use x="384.739621" xlink:href="#ac" y="90.729"/><use x="396.474793" xlink:href="#ad" y="90.729"/><use x="402.086909" xlink:href="#ae" y="90.729"/><use x="381.7685" xlink:href="#P" y="54.6942"/><path d="m3421.757812 8041.28125h4.140626v240.234375h-4.140626zm0 0" style="fill:none;stroke-width:3.98381;stroke-linecap:round;stroke-linejoin:round;stroke:#000;stroke-miterlimit:10" transform="matrix(.1 0 0 -.1 0 852.55)"/><path d="m342.175781 48.421875h.414063v-24.023437h-.414063zm0 0"/><use x="334.717" xlink:href="#af" y="90.729"/><use x="331.40606" xlink:href="#P" y="50.3356"/><path d="m939.84375 7677.375h52.539062v3.125h-52.539062zm0 0" style="fill:none;stroke-width:5.01245;stroke-linecap:round;stroke-linejoin:round;stroke:#000;stroke-miterlimit:10" transform="matrix(.1 0 0 -.1 0 852.55)"/><path d="m93.984375 84.8125h5.253906v-.3125h-5.253906zm0 0"/><path d="m1508.085938 7677.375h52.539062v3.125h-52.539062zm0 0" style="fill:none;stroke-width:5.01245;stroke-linecap:round;stroke-linejoin:round;stroke:#000;stroke-miterlimit:10" transform="matrix(.1 0 0 -.1 0 852.55)"/><path d="m150.808594 84.8125h5.25v-.3125h-5.25zm0 0"/><path d="m2414.492188 8334.132812h507.773437v37.851563h-507.773437zm0 0" fill="none" stroke="#000" stroke-linejoin="round" stroke-miterlimit="10" stroke-width="3.98381" transform="matrix(.1 0 0 -.1 0 852.55)"/><path d="m241.449219 19.136719h50.777343v-3.785157h-50.777343zm0 0"/><path d="m2596.914062 7677.375h52.539063v3.125h-52.539063zm0 0" fill="none" stroke="#000" stroke-linejoin="round" stroke-miterlimit="10" stroke-width="5.01245" transform="matrix(.1 0 0 -.1 0 852.55)"/><path d="m259.691406 84.8125h5.253906v-.3125h-5.253906zm0 0"/><path d="m3155.390625 7677.375h52.539063v3.125h-52.539063zm0 0" fill="none" stroke="#000" stroke-linejoin="round" stroke-miterlimit="10" stroke-width="5.01245" transform="matrix(.1 0 0 -.1 0 852.55)"/><path d="m315.539062 84.8125h5.253907v-.3125h-5.253907zm0 0"/><path d="m3421.757812 8302.609375v-37.890625l507.773438-17.773438v37.851563zm0 0" fill="none" stroke="#000" stroke-linejoin="round" stroke-miterlimit="10" stroke-width="3.98381" transform="matrix(.1 0 0 -.1 0 852.55)"/><path d="m342.175781 22.289062v3.789063l50.777344 1.777344v-3.785157zm0 0"/><path d="m3505.546875 7677.375h52.5v3.125h-52.5zm0 0" fill="none" stroke="#000" stroke-linejoin="round" stroke-miterlimit="10" stroke-width="5.01245" transform="matrix(.1 0 0 -.1 0 852.55)"/><path d="m350.554688 84.8125h5.25v-.3125h-5.25zm0 0"/><path d="m5156.835938 7677.375h52.539062v3.125h-52.539062zm0 0" fill="none" stroke="#000" stroke-linejoin="round" stroke-miterlimit="10" stroke-width="5.01245" transform="matrix(.1 0 0 -.1 0 852.55)"/><path d="m515.683594 84.8125h5.253906v-.3125h-5.253906zm0 0"/><use x="544.913" xlink:href="#P" y="37.26"/><use x="582.1997" xlink:href="#Q" y="24.1838"/><use x="545.727" xlink:href="#R" y="67.5709"/><path d="m5451.132812 7849.796875h4.140626v283.984375h-4.140626zm0 0" fill="none" stroke="#000" stroke-linejoin="round" stroke-miterlimit="10" stroke-width="3.98381" transform="matrix(.1 0 0 -.1 0 852.55)"/><path d="m545.113281 67.570312h.414063v-28.398437h-.414063zm0 0"/><use x="532.916" xlink:href="#ad" y="90.729"/><use x="538.528531" xlink:href="#ac" y="90.729"/><use x="550.433624" xlink:href="#ag" y="90.729"/><use x="562.338717" xlink:href="#ae" y="90.729"/><path d="m1309.804688 7997.6875h4.140624v283.984375h-4.140624zm0 0" fill="none" stroke="#000" stroke-linejoin="round" stroke-miterlimit="10" stroke-width="3.98381" transform="matrix(.1 0 0 -.1 0 852.55)"/><path d="m130.980469 52.78125h.414062v-28.398438h-.414062zm0 0"/><use x="108.81" xlink:href="#ah" y="90.729"/><use x="120.715496" xlink:href="#ai" y="90.729"/><use x="132.280757" xlink:href="#aj" y="90.729"/><use x="120.2116" xlink:href="#P" y="54.6942"/><path d="m779.257812 8084.875h4.140626v283.984375h-4.140626zm0 0" fill="none" stroke="#000" stroke-linejoin="round" stroke-miterlimit="10" stroke-width="3.98381" transform="matrix(.1 0 0 -.1 0 852.55)"/><path d="m77.925781 44.0625h.414063v-28.398438h-.414063zm0 0"/><use x="36.5777" xlink:href="#aD" y="90.729"/><use x="47.292909" xlink:href="#aE" y="90.729"/><use x="61.2816" xlink:href="#ak" y="90.729"/><use x="72.507012" xlink:href="#ac" y="90.729"/><use x="38.3882" xlink:href="#S" y="41.6185"/><use x="6.9737" xlink:href="#T" y="50.33569"/><use x="67.1553" xlink:href="#P" y="45.9771"/><path d="m2918.125 8084.875h4.179688v266.171875h-4.179688zm0 0" fill="none" stroke="#000" stroke-linejoin="round" stroke-miterlimit="10" stroke-width="3.98381" transform="matrix(.1 0 0 -.1 0 852.55)"/><path d="m291.8125 44.0625h.417969v-26.617188h-.417969zm0 0"/><use x="271.854" xlink:href="#ab" y="90.729"/><use x="289.712621" xlink:href="#ac" y="90.729"/><use x="281.04384" xlink:href="#P" y="45.977"/><path d="m2414.492188 8084.875h4.179687v266.171875h-4.179687zm0 0" fill="none" stroke="#000" stroke-linejoin="round" stroke-miterlimit="10" stroke-width="3.98381" transform="matrix(.1 0 0 -.1 0 852.55)"/><path d="m241.449219 44.0625h.417969v-26.617188h-.417969zm0 0"/><use x="219.961" xlink:href="#aa" y="90.729"/><use x="230.67625" xlink:href="#aj" y="90.729"/><use x="240.880561" xlink:href="#ac" y="90.729"/><use x="230.6813" xlink:href="#P" y="45.977"/><path d="m1862.148438 8041.28125h4.140624v283.984375h-4.140624zm0 0" fill="none" stroke="#000" stroke-linejoin="round" stroke-miterlimit="10" stroke-width="3.98381" transform="matrix(.1 0 0 -.1 0 852.55)"/><path d="m186.214844 48.421875h.414062v-28.398437h-.414062zm0 0"/><use x="163.875" xlink:href="#aj" y="90.729"/><use x="174.590262" xlink:href="#al" y="90.729"/><use x="186.495367" xlink:href="#am" y="90.729"/><use x="175.4465" xlink:href="#P" y="50.3356"/><g clip-path="url(#f)"><path d="m3.125 6888.898438h5946.523438" style="fill:none;stroke-width:6.25903;stroke-linecap:round;stroke-linejoin:round;stroke:#000;stroke-miterlimit:10" transform="matrix(.1 0 0 -.1 0 852.55)"/></g><g clip-path="url(#g)"><path d="m3.125 6976.046875h5946.523438" style="fill:none;stroke-width:6.25903;stroke-linecap:round;stroke-linejoin:round;stroke:#000;stroke-miterlimit:10" transform="matrix(.1 0 0 -.1 0 852.55)"/></g><g clip-path="url(#h)"><path d="m3.125 7063.234375h5946.523438" style="fill:none;stroke-width:6.25903;stroke-linecap:round;stroke-linejoin:round;stroke:#000;stroke-miterlimit:10" transform="matrix(.1 0 0 -.1 0 852.55)"/></g><g clip-path="url(#i)"><path d="m3.125 7150.421875h5946.523438" style="fill:none;stroke-width:6.25903;stroke-linecap:round;stroke-linejoin:round;stroke:#000;stroke-miterlimit:10" transform="matrix(.1 0 0 -.1 0 852.55)"/></g><g clip-path="url(#j)"><path d="m3.125 7237.570312h5946.523438" style="fill:none;stroke-width:6.25903;stroke-linecap:round;stroke-linejoin:round;stroke:#000;stroke-miterlimit:10" transform="matrix(.1 0 0 -.1 0 852.55)"/></g><use x="487.451" xlink:href="#an" y="194.171"/><use x="499.356093" xlink:href="#ac" y="194.171"/><use x="511.261186" xlink:href="#ag" y="194.171"/><use x="523.16667" xlink:href="#ao" y="194.171"/><path d="m2443.515625 6995.226562h4.140625v283.945313h-4.140625zm0 0" style="fill:none;stroke-width:3.98381;stroke-linecap:round;stroke-linejoin:round;stroke:#000;stroke-miterlimit:10" transform="matrix(.1 0 0 -.1 0 852.55)"/><path d="m244.351562 153.03125h.414063v-28.398438h-.414063zm0 0"/><use x="502.594" xlink:href="#P" y="159.302"/><use x="430.3284" xlink:href="#U" y="133.3497"/><path d="m4297.148438 6908.039062h4.140624v283.984376h-4.140624zm0 0" style="fill:none;stroke-width:3.98381;stroke-linecap:round;stroke-linejoin:round;stroke:#000;stroke-miterlimit:10" transform="matrix(.1 0 0 -.1 0 852.55)"/><path d="m429.714844 161.746094h.414062v-28.394532h-.414062zm0 0"/><use x="412.646" xlink:href="#ap" y="194.171"/><use x="424.721015" xlink:href="#aq" y="194.171"/><use x="418.94522" xlink:href="#P" y="163.6605"/><path d="m3370.3125 6951.632812h4.179688v283.945313h-4.179688zm0 0" style="fill:none;stroke-width:3.98381;stroke-linecap:round;stroke-linejoin:round;stroke:#000;stroke-miterlimit:10" transform="matrix(.1 0 0 -.1 0 852.55)"/><path d="m337.03125 157.386719h.417969v-28.394531h-.417969zm0 0"/><use x="320.475" xlink:href="#ar" y="194.171"/><use x="332.72111" xlink:href="#aj" y="194.171"/><use x="326.26406" xlink:href="#P" y="159.3019"/><path d="m1073.046875 6642.960938h52.5v3.125h-52.5zm0 0" style="fill:none;stroke-width:5.01245;stroke-linecap:round;stroke-linejoin:round;stroke:#000;stroke-miterlimit:10" transform="matrix(.1 0 0 -.1 0 852.55)"/><path d="m107.304688 188.253906h5.25v-.3125h-5.25zm0 0"/><path d="m1936.328125 6642.960938h52.5v3.125h-52.5zm0 0" style="fill:none;stroke-width:5.01245;stroke-linecap:round;stroke-linejoin:round;stroke:#000;stroke-miterlimit:10" transform="matrix(.1 0 0 -.1 0 852.55)"/><path d="m193.632812 188.253906h5.25v-.3125h-5.25zm0 0"/><path d="m4594.140625 6642.960938h52.5v3.125h-52.5zm0 0" style="fill:none;stroke-width:5.01245;stroke-linecap:round;stroke-linejoin:round;stroke:#000;stroke-miterlimit:10" transform="matrix(.1 0 0 -.1 0 852.55)"/><path d="m459.414062 188.253906h5.25v-.3125h-5.25zm0 0"/><path d="m5133.632812 6951.632812h4.140626v283.945313h-4.140626zm0 0" style="fill:none;stroke-width:3.98381;stroke-linecap:round;stroke-linejoin:round;stroke:#000;stroke-miterlimit:10" transform="matrix(.1 0 0 -.1 0 852.55)"/><path d="m513.363281 157.386719h.414063v-28.394531h-.414063zm0 0"/><use x="582.2" xlink:href="#V" y="146.227"/><use x="222.01" xlink:href="#as" y="194.1719"/><use x="226.772508" xlink:href="#ac" y="194.1719"/><use x="238.677601" xlink:href="#ab" y="194.1719"/><use x="38.389" xlink:href="#S" y="146.227"/><use x="6.9745" xlink:href="#T" y="154.94419"/><use x="66.2847" xlink:href="#P" y="150.5856"/><use x="233.5817" xlink:href="#P" y="154.94419"/><use x="161.3161" xlink:href="#U" y="120.27469"/><path d="m1607.03125 7038.78125h4.140625v283.984375h-4.140625zm0 0" style="fill:none;stroke-width:3.98381;stroke-linecap:round;stroke-linejoin:round;stroke:#000;stroke-miterlimit:10" transform="matrix(.1 0 0 -.1 0 852.55)"/><path d="m160.703125 148.671875h.414063v-28.398437h-.414063zm0 0"/><use x="140.743" xlink:href="#ab" y="194.171"/><use x="158.601633" xlink:href="#ac" y="194.171"/><use x="149.93284" xlink:href="#P" y="150.5847"/><use x="77.66804" xlink:href="#U" y="120.2738"/><path d="m770.546875 7038.78125h4.140625v283.984375h-4.140625zm0 0" style="fill:none;stroke-width:3.98381;stroke-linecap:round;stroke-linejoin:round;stroke:#000;stroke-miterlimit:10" transform="matrix(.1 0 0 -.1 0 852.55)"/><path d="m77.054688 148.671875h.414062v-28.398437h-.414062zm0 0"/><use x="64.8324" xlink:href="#at" y="194.171"/><g clip-path="url(#k)"><path d="m3.125 5842.804688h5946.523438" style="fill:none;stroke-width:6.25903;stroke-linecap:round;stroke-linejoin:round;stroke:#000;stroke-miterlimit:10" transform="matrix(.1 0 0 -.1 0 852.55)"/></g><g clip-path="url(#l)"><path d="m3.125 5929.992188h5946.523438" style="fill:none;stroke-width:6.25903;stroke-linecap:round;stroke-linejoin:round;stroke:#000;stroke-miterlimit:10" transform="matrix(.1 0 0 -.1 0 852.55)"/></g><g clip-path="url(#m)"><path d="m3.125 6017.140625h5946.523438" style="fill:none;stroke-width:6.25903;stroke-linecap:round;stroke-linejoin:round;stroke:#000;stroke-miterlimit:10" transform="matrix(.1 0 0 -.1 0 852.55)"/></g><g clip-path="url(#n)"><path d="m3.125 6104.328125h5946.523438" style="fill:none;stroke-width:6.25903;stroke-linecap:round;stroke-linejoin:round;stroke:#000;stroke-miterlimit:10" transform="matrix(.1 0 0 -.1 0 852.55)"/></g><g clip-path="url(#o)"><path d="m3.125 6191.515625h5946.523438" style="fill:none;stroke-width:6.25903;stroke-linecap:round;stroke-linejoin:round;stroke:#000;stroke-miterlimit:10" transform="matrix(.1 0 0 -.1 0 852.55)"/></g><use x="447.734" xlink:href="#P" y="259.552"/><use x="442.28595" xlink:href="#au" y="298.7797"/><use x="452.660208" xlink:href="#ar" y="298.7797"/><path d="m4585.039062 5949.132812h4.140626v283.984376h-4.140626zm0 0" style="fill:none;stroke-width:3.98381;stroke-linecap:round;stroke-linejoin:round;stroke:#000;stroke-miterlimit:10" transform="matrix(.1 0 0 -.1 0 852.55)"/><path d="m458.503906 257.636719h.414063v-28.398438h-.414063zm0 0"/><use x="498.027" xlink:href="#P" y="263.91"/><use x="486.6254" xlink:href="#au" y="298.7791"/><use x="497.000048" xlink:href="#ar" y="298.7791"/><use x="508.905141" xlink:href="#ag" y="298.7791"/><path d="m5087.96875 5905.539062h4.140625v283.984376h-4.140625zm0 0" style="fill:none;stroke-width:3.98381;stroke-linecap:round;stroke-linejoin:round;stroke:#000;stroke-miterlimit:10" transform="matrix(.1 0 0 -.1 0 852.55)"/><path d="m508.796875 261.996094h.414063v-28.398438h-.414063zm0 0"/><path d="m3058.359375 5775.265625h4.140625v266.328125h-4.140625zm0 0" style="fill:none;stroke-width:3.98381;stroke-linecap:round;stroke-linejoin:round;stroke:#000;stroke-miterlimit:10" transform="matrix(.1 0 0 -.1 0 852.55)"/><path d="m305.835938 275.023438h.414062v-26.632813h-.414062zm0 0"/><path d="m4082.109375 5992.726562h4.179687v283.945313h-4.179687zm0 0" style="fill:none;stroke-width:3.98381;stroke-linecap:round;stroke-linejoin:round;stroke:#000;stroke-miterlimit:10" transform="matrix(.1 0 0 -.1 0 852.55)"/><path d="m408.210938 253.277344h.414062v-28.394532h-.414062zm0 0"/><use x="386.636" xlink:href="#ag" y="298.779"/><use x="398.201248" xlink:href="#av" y="298.779"/><use x="408.916498" xlink:href="#af" y="298.779"/><use x="413.678615" xlink:href="#ad" y="298.779"/><use x="397.4419" xlink:href="#P" y="255.1927"/><path d="m3518.046875 5757.804688h4.140625v240.234374h-4.140625zm0 0" style="fill:none;stroke-width:3.98381;stroke-linecap:round;stroke-linejoin:round;stroke:#000;stroke-miterlimit:10" transform="matrix(.1 0 0 -.1 0 852.55)"/><path d="m351.804688 276.773438h.414062v-24.023438h-.414062zm0 0"/><use x="354.916" xlink:href="#af" y="298.779"/><use x="351.60506" xlink:href="#P" y="250.8337"/><path d="m1301.171875 6192.648438v-37.851563l463.867187 17.773437v37.851563zm0 0" fill="none" stroke="#000" stroke-linejoin="round" stroke-miterlimit="10" stroke-width="3.98381" transform="matrix(.1 0 0 -.1 0 852.55)"/><path d="m130.117188 233.285156v3.785156l46.386718-1.777343v-3.785157zm0 0"/><path d="m1488.867188 5596.867188h52.5v3.125h-52.5zm0 0" fill="none" stroke="#000" stroke-linejoin="round" stroke-miterlimit="10" stroke-width="5.01245" transform="matrix(.1 0 0 -.1 0 852.55)"/><path d="m148.886719 292.863281h5.25v-.3125h-5.25zm0 0"/><path d="m1886.875 5596.867188h52.539062v3.125h-52.539062zm0 0" fill="none" stroke="#000" stroke-linejoin="round" stroke-miterlimit="10" stroke-width="5.01245" transform="matrix(.1 0 0 -.1 0 852.55)"/><path d="m188.6875 292.863281h5.253906v-.3125h-5.253906zm0 0"/><path d="m2220.585938 6241.945312h480.351562v37.851563h-480.351562zm0 0" fill="none" stroke="#000" stroke-linejoin="round" stroke-miterlimit="10" stroke-width="3.98381" transform="matrix(.1 0 0 -.1 0 852.55)"/><path d="m222.058594 228.355469h48.035156v-3.785157h-48.035156zm0 0"/><path d="m2861.054688 5596.867188h52.5v3.125h-52.5zm0 0" fill="none" stroke="#000" stroke-linejoin="round" stroke-miterlimit="10" stroke-width="5.01245" transform="matrix(.1 0 0 -.1 0 852.55)"/><path d="m286.105469 292.863281h5.25v-.3125h-5.25zm0 0"/><path d="m3058.359375 5792.375v-37.851562l463.828125-17.8125v37.851562zm0 0" fill="none" stroke="#000" stroke-linejoin="round" stroke-miterlimit="10" stroke-width="3.98381" transform="matrix(.1 0 0 -.1 0 852.55)"/><path d="m305.835938 273.3125v3.785156l46.382812 1.78125v-3.785156zm0 0"/><path d="m3379.375 5596.867188h52.5v3.125h-52.5zm0 0" fill="none" stroke="#000" stroke-linejoin="round" stroke-miterlimit="10" stroke-width="5.01245" transform="matrix(.1 0 0 -.1 0 852.55)"/><path d="m337.9375 292.863281h5.25v-.3125h-5.25zm0 0"/><path d="m4283.320312 5596.867188h52.539063v3.125h-52.539063zm0 0" fill="none" stroke="#000" stroke-linejoin="round" stroke-miterlimit="10" stroke-width="5.01245" transform="matrix(.1 0 0 -.1 0 852.55)"/><path d="m428.332031 292.863281h5.25v-.3125h-5.25zm0 0"/><path d="m5251.601562 5596.867188h52.5v3.125h-52.5zm0 0" fill="none" stroke="#000" stroke-linejoin="round" stroke-miterlimit="10" stroke-width="5.01245" transform="matrix(.1 0 0 -.1 0 852.55)"/><path d="m525.160156 292.863281h5.25v-.3125h-5.25zm0 0"/><use x="549.307" xlink:href="#P" y="268.269"/><use x="582.2" xlink:href="#Q" y="233.3999"/><use x="560.6898" xlink:href="#U" y="237.9581"/><path d="m5600.742188 5861.945312h4.179687v283.984376h-4.179687zm0 0" fill="none" stroke="#000" stroke-linejoin="round" stroke-miterlimit="10" stroke-width="3.98381" transform="matrix(.1 0 0 -.1 0 852.55)"/><path d="m560.074219 266.355469h.417969v-28.398438h-.417969zm0 0"/><use x="534.759" xlink:href="#ag" y="298.779"/><use x="546.664484" xlink:href="#ar" y="298.779"/><use x="558.569577" xlink:href="#aw" y="298.779"/><use x="569.284851" xlink:href="#ae" y="298.779"/><use x="296.444673" xlink:href="#ab" y="298.779"/><use x="314.302904" xlink:href="#ac" y="298.779"/><path d="m1301.171875 5905.539062h4.179687v266.328126h-4.179687zm0 0" fill="none" stroke="#000" stroke-linejoin="round" stroke-miterlimit="10" stroke-width="3.98381" transform="matrix(.1 0 0 -.1 0 852.55)"/><path d="m130.117188 261.996094h.417968v-26.632813h-.417968zm0 0"/><use x="106.163" xlink:href="#aa" y="298.779"/><use x="116.878262" xlink:href="#aj" y="298.779"/><use x="127.252899" xlink:href="#ai" y="298.779"/><use x="139.158004" xlink:href="#as" y="298.779"/><use x="119.3505" xlink:href="#P" y="263.9099"/><path d="m770.546875 5905.539062h4.140625v283.984376h-4.140625zm0 0" fill="none" stroke="#000" stroke-linejoin="round" stroke-miterlimit="10" stroke-width="3.98381" transform="matrix(.1 0 0 -.1 0 852.55)"/><path d="m77.054688 261.996094h.414062v-28.398438h-.414062zm0 0"/><use x="51.7363" xlink:href="#ax" y="298.779"/><use x="69.594536" xlink:href="#af" y="298.779"/><use x="74.357044" xlink:href="#ag" y="298.779"/><use x="86.262143" xlink:href="#ad" y="298.779"/><use x="66.284" xlink:href="#P" y="263.9099"/><use x="38.3883" xlink:href="#S" y="250.8337"/><use x="6.9738" xlink:href="#T" y="259.55128"/><use x="199.7168" xlink:href="#ag" y="298.77898"/><use x="211.621893" xlink:href="#ar" y="298.77898"/><use x="223.526986" xlink:href="#aw" y="298.77898"/><use x="305.6358" xlink:href="#P" y="246.47508"/><path d="m2696.796875 5992.726562h4.140625v266.171876h-4.140625zm0 0" fill="none" stroke="#000" stroke-linejoin="round" stroke-miterlimit="10" stroke-width="3.98381" transform="matrix(.1 0 0 -.1 0 852.55)"/><path d="m269.679688 253.277344h.414062v-26.617188h-.414062zm0 0"/><use x="248.191" xlink:href="#aa" y="298.779"/><use x="258.90625" xlink:href="#aj" y="298.779"/><use x="269.110561" xlink:href="#ac" y="298.779"/><use x="258.9125" xlink:href="#P" y="255.1927"/><path d="m2220.585938 5992.726562h4.140624v266.171876h-4.140624zm0 0" fill="none" stroke="#000" stroke-linejoin="round" stroke-miterlimit="10" stroke-width="3.98381" transform="matrix(.1 0 0 -.1 0 852.55)"/><path d="m222.058594 253.277344h.414062v-26.617188h-.414062zm0 0"/><use x="211.288" xlink:href="#P" y="255.193"/><path d="m1760.898438 5949.132812h4.140624v240.234376h-4.140624zm0 0" fill="none" stroke="#000" stroke-linejoin="round" stroke-miterlimit="10" stroke-width="3.98381" transform="matrix(.1 0 0 -.1 0 852.55)"/><path d="m176.089844 257.636719h.414062v-24.023438h-.414062zm0 0"/><use x="165.32" xlink:href="#P" y="259.552"/><use x="159.10516" xlink:href="#aq" y="298.7797"/><use x="171.010656" xlink:href="#al" y="298.7797"/><g clip-path="url(#p)"><path d="m3.125 4796.710938h5946.523438" style="fill:none;stroke-width:6.25903;stroke-linecap:round;stroke-linejoin:round;stroke:#000;stroke-miterlimit:10" transform="matrix(.1 0 0 -.1 0 852.55)"/></g><g clip-path="url(#q)"><path d="m3.125 4883.898438h5946.523438" style="fill:none;stroke-width:6.25903;stroke-linecap:round;stroke-linejoin:round;stroke:#000;stroke-miterlimit:10" transform="matrix(.1 0 0 -.1 0 852.55)"/></g><g clip-path="url(#r)"><path d="m3.125 4971.085938h5946.523438" style="fill:none;stroke-width:6.25903;stroke-linecap:round;stroke-linejoin:round;stroke:#000;stroke-miterlimit:10" transform="matrix(.1 0 0 -.1 0 852.55)"/></g><g clip-path="url(#s)"><path d="m3.125 5058.234375h5946.523438" style="fill:none;stroke-width:6.25903;stroke-linecap:round;stroke-linejoin:round;stroke:#000;stroke-miterlimit:10" transform="matrix(.1 0 0 -.1 0 852.55)"/></g><g clip-path="url(#t)"><path d="m3.125 5145.421875h5946.523438" style="fill:none;stroke-width:6.25903;stroke-linecap:round;stroke-linejoin:round;stroke:#000;stroke-miterlimit:10" transform="matrix(.1 0 0 -.1 0 852.55)"/></g><use x="501.948" xlink:href="#ag" y="403.387"/><use x="513.853093" xlink:href="#ar" y="403.387"/><use x="525.758186" xlink:href="#aw" y="403.387"/><use x="536.473851" xlink:href="#ae" y="403.387"/><use x="516.496" xlink:href="#P" y="368.5179"/><path d="m4484.84375 4903.039062h4.179688v283.984376h-4.179688zm0 0" style="fill:none;stroke-width:3.98381;stroke-linecap:round;stroke-linejoin:round;stroke:#000;stroke-miterlimit:10" transform="matrix(.1 0 0 -.1 0 852.55)"/><path d="m448.484375 362.246094h.414063v-28.398438h-.414063zm0 0"/><use x="421.043" xlink:href="#aq" y="403.387"/><use x="432.778172" xlink:href="#av" y="403.387"/><use x="443.15282" xlink:href="#al" y="403.387"/><use x="455.057913" xlink:href="#aj" y="403.387"/><use x="437.7164" xlink:href="#P" y="364.1589"/><path d="m3697.03125 4946.632812h4.179688v283.984376h-4.179688zm0 0" style="fill:none;stroke-width:3.98381;stroke-linecap:round;stroke-linejoin:round;stroke:#000;stroke-miterlimit:10" transform="matrix(.1 0 0 -.1 0 852.55)"/><path d="m369.703125 357.886719h.417969v-28.398438h-.417969zm0 0"/><use x="356.89" xlink:href="#au" y="403.387"/><use x="367.60525" xlink:href="#af" y="403.387"/><use x="358.93688" xlink:href="#P" y="359.8003"/><path d="m2804.882812 4682.492188h4.179688v269.453124h-4.179688zm0 0" style="fill:none;stroke-width:3.98381;stroke-linecap:round;stroke-linejoin:round;stroke:#000;stroke-miterlimit:10" transform="matrix(.1 0 0 -.1 0 852.55)"/><path d="m280.488281 384.300781h.417969v-26.945312h-.417969zm0 0"/><use x="276.457" xlink:href="#Y" y="403.387"/><use x="283.599981" xlink:href="#ar" y="403.387"/><use x="280.28981" xlink:href="#P" y="355.4417"/><path d="m1483.4375 5164.367188v-37.851563l717.070312 17.773437v37.851563zm0 0" fill="none" stroke="#000" stroke-linejoin="round" stroke-miterlimit="10" stroke-width="3.98381" transform="matrix(.1 0 0 -.1 0 852.55)"/><path d="m148.34375 336.113281v3.785157l71.707031-1.777344v-3.785156zm0 0"/><path d="m2485.351562 4550.773438h52.539063v3.164062h-52.539063zm0 0" fill="none" stroke="#000" stroke-linejoin="round" stroke-miterlimit="10" stroke-width="5.01245" transform="matrix(.1 0 0 -.1 0 852.55)"/><path d="m248.535156 397.472656h5.253906v-.316406h-5.253906zm0 0"/><path d="m3940.78125 4550.773438h52.539062v3.164062h-52.539062zm0 0" fill="none" stroke="#000" stroke-linejoin="round" stroke-miterlimit="10" stroke-width="5.01245" transform="matrix(.1 0 0 -.1 0 852.55)"/><path d="m394.078125 397.472656h5.25v-.316406h-5.25zm0 0"/><path d="m4812.34375 4550.773438h52.5v3.164062h-52.5zm0 0" fill="none" stroke="#000" stroke-linejoin="round" stroke-miterlimit="10" stroke-width="5.01245" transform="matrix(.1 0 0 -.1 0 852.55)"/><path d="m481.234375 397.472656h5.25v-.316406h-5.25zm0 0"/><path d="m5272.65625 4859.445312h4.140625v283.984376h-4.140625zm0 0" fill="none" stroke="#000" stroke-linejoin="round" stroke-miterlimit="10" stroke-width="3.98381" transform="matrix(.1 0 0 -.1 0 852.55)"/><path d="m527.265625 366.605469h.414063v-28.398438h-.414063zm0 0"/><use x="582.2" xlink:href="#V" y="355.442"/><use x="66.284" xlink:href="#P" y="368.5182"/><use x="38.3883" xlink:href="#S" y="355.442"/><use x="6.9738" xlink:href="#T" y="364.15919"/><use x="59.4746" xlink:href="#ay" y="403.38729"/><use x="73.76135" xlink:href="#aa" y="403.38729"/><path d="m770.546875 4859.445312h4.140625v283.984376h-4.140625zm0 0" fill="none" stroke="#000" stroke-linejoin="round" stroke-miterlimit="10" stroke-width="3.98381" transform="matrix(.1 0 0 -.1 0 852.55)"/><path d="m77.054688 366.605469h.414062v-28.398438h-.414062zm0 0"/><use x="208.867" xlink:href="#P" y="359.8"/><path d="m1483.4375 4903.039062h4.179688v240.507813h-4.179688zm0 0" fill="none" stroke="#000" stroke-linejoin="round" stroke-miterlimit="10" stroke-width="3.98381" transform="matrix(.1 0 0 -.1 0 852.55)"/><path d="m148.34375 362.246094h.414062v-24.050782h-.414062zm0 0"/><use x="131.787" xlink:href="#ar" y="403.387"/><use x="144.032731" xlink:href="#aj" y="403.387"/><use x="203.248102" xlink:href="#X" y="403.387"/><use x="218.725469" xlink:href="#Y" y="403.387"/><use x="137.57606" xlink:href="#P" y="364.1589"/><path d="m2196.367188 4946.632812h4.140624v214.492188h-4.140624zm0 0" fill="none" stroke="#000" stroke-linejoin="round" stroke-miterlimit="10" stroke-width="3.98381" transform="matrix(.1 0 0 -.1 0 852.55)"/><path d="m219.636719 357.886719h.414062v-21.449219h-.414062zm0 0"/><use x="77.6676" xlink:href="#U" y="338.207"/><g clip-path="url(#u)"><path d="m3.125 3750.65625h5946.523438" style="fill:none;stroke-width:6.25903;stroke-linecap:round;stroke-linejoin:round;stroke:#000;stroke-miterlimit:10" transform="matrix(.1 0 0 -.1 0 852.55)"/></g><g clip-path="url(#v)"><path d="m3.125 3837.84375h5946.523438" style="fill:none;stroke-width:6.25903;stroke-linecap:round;stroke-linejoin:round;stroke:#000;stroke-miterlimit:10" transform="matrix(.1 0 0 -.1 0 852.55)"/></g><g clip-path="url(#w)"><path d="m3.125 3924.992188h5946.523438" style="fill:none;stroke-width:6.25903;stroke-linecap:round;stroke-linejoin:round;stroke:#000;stroke-miterlimit:10" transform="matrix(.1 0 0 -.1 0 852.55)"/></g><g clip-path="url(#x)"><path d="m3.125 4012.179688h5946.523438" style="fill:none;stroke-width:6.25903;stroke-linecap:round;stroke-linejoin:round;stroke:#000;stroke-miterlimit:10" transform="matrix(.1 0 0 -.1 0 852.55)"/></g><g clip-path="url(#y)"><path d="m3.125 4099.367188h5946.523438" style="fill:none;stroke-width:6.25903;stroke-linecap:round;stroke-linejoin:round;stroke:#000;stroke-miterlimit:10" transform="matrix(.1 0 0 -.1 0 852.55)"/></g><use x="452.218" xlink:href="#P" y="468.767"/><use x="441.4121" xlink:href="#aa" y="509.1604"/><use x="452.127374" xlink:href="#aj" y="509.1604"/><use x="462.501632" xlink:href="#ai" y="509.1604"/><path d="m4629.882812 3856.984375h4.140626v240.234375h-4.140626zm0 0" style="fill:none;stroke-width:3.98381;stroke-linecap:round;stroke-linejoin:round;stroke:#000;stroke-miterlimit:10" transform="matrix(.1 0 0 -.1 0 852.55)"/><path d="m462.988281 466.851562h.414063v-24.023437h-.414063zm0 0"/><use x="499.586" xlink:href="#P" y="464.408"/><use x="488.3548" xlink:href="#ag" y="509.16"/><use x="499.920048" xlink:href="#av" y="509.16"/><use x="510.294696" xlink:href="#al" y="509.16"/><path d="m5103.554688 3900.578125h4.140624v283.945313h-4.140624zm0 0" style="fill:none;stroke-width:3.98381;stroke-linecap:round;stroke-linejoin:round;stroke:#000;stroke-miterlimit:10" transform="matrix(.1 0 0 -.1 0 852.55)"/><path d="m510.355469 462.492188h.414062v-28.394532h-.414062zm0 0"/><path d="m4128.984375 3813.390625h4.140625v266.328125h-4.140625zm0 0" style="fill:none;stroke-width:3.98381;stroke-linecap:round;stroke-linejoin:round;stroke:#000;stroke-miterlimit:10" transform="matrix(.1 0 0 -.1 0 852.55)"/><path d="m412.898438 471.210938h.414062v-26.632813h-.414062zm0 0"/><use x="388.176" xlink:href="#ar" y="509.16"/><use x="400.081093" xlink:href="#aa" y="509.16"/><use x="410.796367" xlink:href="#aj" y="509.16"/><use x="420.321014" xlink:href="#az" y="509.16"/><use x="402.1287" xlink:href="#P" y="473.1252"/><path d="m3671.992188 3856.984375h4.140624v240.507813h-4.140624zm0 0" style="fill:none;stroke-width:3.98381;stroke-linecap:round;stroke-linejoin:round;stroke:#000;stroke-miterlimit:10" transform="matrix(.1 0 0 -.1 0 852.55)"/><path d="m367.195312 466.851562h.417969v-24.050781h-.417969zm0 0"/><use x="356.168" xlink:href="#aA" y="509.16"/><use x="356.429328" xlink:href="#P" y="468.7666"/><path d="m1301.171875 4187.648438v-37.851563l461.171875 17.8125v37.851563zm0 0" fill="none" stroke="#000" stroke-linejoin="round" stroke-miterlimit="10" stroke-width="3.98381" transform="matrix(.1 0 0 -.1 0 852.55)"/><path d="m130.117188 433.785156v3.785156l46.117187-1.78125v-3.785156zm0 0"/><path d="m1487.5 3493.078125h52.539062v3.125h-52.539062zm0 0" fill="none" stroke="#000" stroke-linejoin="round" stroke-miterlimit="10" stroke-width="5.01245" transform="matrix(.1 0 0 -.1 0 852.55)"/><path d="m148.75 503.242188h5.253906v-.3125h-5.253906zm0 0"/><path d="m1928.164062 3493.078125h52.539063v3.125h-52.539063zm0 0" fill="none" stroke="#000" stroke-linejoin="round" stroke-miterlimit="10" stroke-width="5.01245" transform="matrix(.1 0 0 -.1 0 852.55)"/><path d="m192.816406 503.242188h5.253906v-.3125h-5.253906zm0 0"/><path d="m2844.84375 3493.078125h52.539062v3.125h-52.539062zm0 0" fill="none" stroke="#000" stroke-linejoin="round" stroke-miterlimit="10" stroke-width="5.01245" transform="matrix(.1 0 0 -.1 0 852.55)"/><path d="m284.484375 503.242188h5.253906v-.3125h-5.253906zm0 0"/><path d="m3214.960938 4136.085938v-37.851563l461.171874-17.8125v37.851563zm0 0" fill="none" stroke="#000" stroke-linejoin="round" stroke-miterlimit="10" stroke-width="3.98381" transform="matrix(.1 0 0 -.1 0 852.55)"/><path d="m321.496094 438.941406v3.785156l46.117187 1.78125v-3.785156zm0 0"/><path d="m4128.984375 4100.460938v-37.8125l505.039063 17.773437v37.851563zm0 0" fill="none" stroke="#000" stroke-linejoin="round" stroke-miterlimit="10" stroke-width="3.98381" transform="matrix(.1 0 0 -.1 0 852.55)"/><path d="m412.898438 442.503906v3.78125l50.503906-1.777344v-3.785156zm0 0"/><path d="m4787.539062 3493.078125h52.539063v3.125h-52.539063zm0 0" fill="none" stroke="#000" stroke-linejoin="round" stroke-miterlimit="10" stroke-width="5.01245" transform="matrix(.1 0 0 -.1 0 852.55)"/><path d="m478.753906 503.242188h5.253906v-.3125h-5.253906zm0 0"/><path d="m5313.4375 3493.078125h52.539062v3.125h-52.539062zm0 0" fill="none" stroke="#000" stroke-linejoin="round" stroke-miterlimit="10" stroke-width="5.01245" transform="matrix(.1 0 0 -.1 0 852.55)"/><path d="m531.34375 503.242188h5.253906v-.3125h-5.253906zm0 0"/><use x="549.576" xlink:href="#P" y="468.767"/><use x="582.1998" xlink:href="#Q" y="442.615"/><use x="560.9592" xlink:href="#U" y="438.45602"/><path d="m5603.4375 3856.984375h4.179688v283.945313h-4.179688zm0 0" fill="none" stroke="#000" stroke-linejoin="round" stroke-miterlimit="10" stroke-width="3.98381" transform="matrix(.1 0 0 -.1 0 852.55)"/><path d="m560.34375 466.851562h.414062v-28.394531h-.414062zm0 0"/><use x="545.743" xlink:href="#Y" y="509.16"/><use x="552.885981" xlink:href="#ar" y="509.16"/><path d="m1301.171875 3900.578125h4.179687v266.328125h-4.179687zm0 0" fill="none" stroke="#000" stroke-linejoin="round" stroke-miterlimit="10" stroke-width="3.98381" transform="matrix(.1 0 0 -.1 0 852.55)"/><path d="m130.117188 462.492188h.417968v-26.632813h-.417968zm0 0"/><use x="106.163" xlink:href="#aa" y="509.16"/><use x="116.878262" xlink:href="#aj" y="509.16"/><use x="127.252899" xlink:href="#ai" y="509.16"/><use x="139.158004" xlink:href="#as" y="509.16"/><use x="119.3505" xlink:href="#P" y="464.408"/><path d="m770.546875 3900.578125h4.140625v283.945313h-4.140625zm0 0" fill="none" stroke="#000" stroke-linejoin="round" stroke-miterlimit="10" stroke-width="3.98381" transform="matrix(.1 0 0 -.1 0 852.55)"/><path d="m77.054688 462.492188h.414062v-28.394532h-.414062zm0 0"/><use x="51.7363" xlink:href="#ax" y="509.16"/><use x="69.594536" xlink:href="#af" y="509.16"/><use x="74.357044" xlink:href="#ag" y="509.16"/><use x="86.262143" xlink:href="#ad" y="509.16"/><use x="66.284" xlink:href="#P" y="464.408"/><use x="38.3883" xlink:href="#S" y="460.04941"/><use x="6.9738" xlink:href="#T" y="468.7666"/><use x="208.2398" xlink:href="#as" y="509.16"/><use x="213.002308" xlink:href="#aB" y="509.16"/><path d="m3214.960938 3900.578125h4.179687v214.414063h-4.179687zm0 0" fill="none" stroke="#000" stroke-linejoin="round" stroke-miterlimit="10" stroke-width="3.98381" transform="matrix(.1 0 0 -.1 0 852.55)"/><path d="m321.496094 462.492188h.417968v-21.441407h-.417968zm0 0"/><use x="299.327" xlink:href="#al" y="509.16"/><use x="311.232093" xlink:href="#ag" y="509.16"/><use x="322.797341" xlink:href="#av" y="509.16"/><use x="310.7282" xlink:href="#P" y="464.408"/><path d="m2610.703125 3636.4375h4.179687v269.414062h-4.179687zm0 0" fill="none" stroke="#000" stroke-linejoin="round" stroke-miterlimit="10" stroke-width="3.98381" transform="matrix(.1 0 0 -.1 0 852.55)"/><path d="m261.070312 488.910156h.417969v-26.945312h-.417969zm0 0"/><use x="258.229" xlink:href="#as" y="509.16"/><use x="262.991508" xlink:href="#ac" y="509.16"/><use x="260.87119" xlink:href="#P" y="460.0495"/><path d="m2110.820312 3665.460938h4.140626v283.984374h-4.140626zm0 0" fill="none" stroke="#000" stroke-linejoin="round" stroke-miterlimit="10" stroke-width="3.98381" transform="matrix(.1 0 0 -.1 0 852.55)"/><path d="m211.082031 486.003906h.414063v-28.398437h-.414063zm0 0"/><use x="210.882" xlink:href="#P" y="455.691"/><path d="m1758.164062 3944.132812h4.179688v240.234376h-4.179688zm0 0" fill="none" stroke="#000" stroke-linejoin="round" stroke-miterlimit="10" stroke-width="3.98381" transform="matrix(.1 0 0 -.1 0 852.55)"/><path d="m175.816406 458.136719h.417969v-24.023438h-.417969zm0 0"/><use x="165.05" xlink:href="#P" y="460.05"/><use x="158.83633" xlink:href="#aq" y="509.1605"/><use x="170.741435" xlink:href="#al" y="509.1605"/><g clip-path="url(#z)"><path d="m3.125 2704.5625h5946.523438" style="fill:none;stroke-width:6.25903;stroke-linecap:round;stroke-linejoin:round;stroke:#000;stroke-miterlimit:10" transform="matrix(.1 0 0 -.1 0 852.55)"/></g><g clip-path="url(#A)"><path d="m3.125 2791.75h5946.523438" style="fill:none;stroke-width:6.25903;stroke-linecap:round;stroke-linejoin:round;stroke:#000;stroke-miterlimit:10" transform="matrix(.1 0 0 -.1 0 852.55)"/></g><g clip-path="url(#B)"><path d="m3.125 2878.9375h5946.523438" style="fill:none;stroke-width:6.25903;stroke-linecap:round;stroke-linejoin:round;stroke:#000;stroke-miterlimit:10" transform="matrix(.1 0 0 -.1 0 852.55)"/></g><g clip-path="url(#C)"><path d="m3.125 2966.085938h5946.523438" style="fill:none;stroke-width:6.25903;stroke-linecap:round;stroke-linejoin:round;stroke:#000;stroke-miterlimit:10" transform="matrix(.1 0 0 -.1 0 852.55)"/></g><g clip-path="url(#D)"><path d="m3.125 3053.273438h5946.523438" style="fill:none;stroke-width:6.25903;stroke-linecap:round;stroke-linejoin:round;stroke:#000;stroke-miterlimit:10" transform="matrix(.1 0 0 -.1 0 852.55)"/></g><path d="m5120.742188 2617.414062h155.78125" style="fill:none;stroke-width:14.9763;stroke-linecap:round;stroke-linejoin:round;stroke:#000;stroke-miterlimit:10" transform="matrix(.1 0 0 -.1 0 852.55)"/><use x="505.067" xlink:href="#an" y="614.132"/><use x="516.972093" xlink:href="#ar" y="614.132"/><use x="528.707265" xlink:href="#ae" y="614.132"/><use x="514.17208" xlink:href="#P" y="590.8097"/><use x="286.35508" xlink:href="#P" y="577.7335"/><path d="m4438.398438 2680.148438h4.140624v283.984374h-4.140624zm0 0" fill="none" stroke="#000" stroke-linejoin="round" stroke-miterlimit="10" stroke-width="3.98381" transform="matrix(.1 0 0 -.1 0 852.55)"/><path d="m443.835938 584.535156h.417968v-28.394531h-.417968zm0 0"/><use x="429.236" xlink:href="#Y" y="614.132"/><use x="436.378981" xlink:href="#al" y="614.132"/><use x="433.06803" xlink:href="#P" y="586.4508"/><path d="m1034.335938 2443.351562h52.539062v3.125h-52.539062zm0 0" fill="none" stroke="#000" stroke-linejoin="round" stroke-miterlimit="10" stroke-width="5.01245" transform="matrix(.1 0 0 -.1 0 852.55)"/><path d="m103.433594 608.214844h5.253906v-.3125h-5.253906zm0 0"/><path d="m3704.804688 2723.703125h4.140624v240.507813h-4.140624zm0 0" fill="none" stroke="#000" stroke-linejoin="round" stroke-miterlimit="10" stroke-width="3.98381" transform="matrix(.1 0 0 -.1 0 852.55)"/><path d="m370.480469 580.179688h.414062v-24.050782h-.414062zm0 0"/><use x="359.45" xlink:href="#aB" y="614.132"/><use x="359.711719" xlink:href="#P" y="582.0922"/><path d="m2971.210938 2767.296875h4.179687v214.492187h-4.179687zm0 0" fill="none" stroke="#000" stroke-linejoin="round" stroke-miterlimit="10" stroke-width="3.98381" transform="matrix(.1 0 0 -.1 0 852.55)"/><path d="m297.121094 575.820312h.417968v-21.449218h-.417968zm0 0"/><use x="274.188" xlink:href="#am" y="614.132"/><use x="286.093093" xlink:href="#ac" y="614.132"/><use x="297.998186" xlink:href="#ag" y="614.132"/><path d="m1504.101562 3089.992188v-37.851563l737.695313-17.773437v37.851562zm0 0" fill="none" stroke="#000" stroke-linejoin="round" stroke-miterlimit="10" stroke-width="3.98381" transform="matrix(.1 0 0 -.1 0 852.55)"/><path d="m150.410156 543.550781v3.785157l73.769532 1.777343v-3.785156zm0 0"/><path d="m2524.453125 2443.351562h52.5v3.125h-52.5zm0 0" fill="none" stroke="#000" stroke-linejoin="round" stroke-miterlimit="10" stroke-width="5.01245" transform="matrix(.1 0 0 -.1 0 852.55)"/><path d="m252.441406 608.214844h5.253906v-.3125h-5.253906zm0 0"/><path d="m2971.210938 3002.804688v-37.851563l737.734374-17.773437v37.851562zm0 0" fill="none" stroke="#000" stroke-linejoin="round" stroke-miterlimit="10" stroke-width="3.98381" transform="matrix(.1 0 0 -.1 0 852.55)"/><path d="m297.121094 552.269531v3.785157l73.773437 1.777343v-3.785156zm0 0"/><path d="m3976.679688 2443.351562h52.539062v3.125h-52.539062zm0 0" fill="none" stroke="#000" stroke-linejoin="round" stroke-miterlimit="10" stroke-width="5.01245" transform="matrix(.1 0 0 -.1 0 852.55)"/><path d="m397.667969 608.214844h5.253906v-.3125h-5.253906zm0 0"/><path d="m4740.507812 2443.351562h52.5v3.125h-52.5zm0 0" fill="none" stroke="#000" stroke-linejoin="round" stroke-miterlimit="10" stroke-width="5.01245" transform="matrix(.1 0 0 -.1 0 852.55)"/><path d="m474.050781 608.214844h5.25v-.3125h-5.25zm0 0"/><path d="m5249.414062 2636.554688h4.140626v283.984374h-4.140626zm0 0" fill="none" stroke="#000" stroke-linejoin="round" stroke-miterlimit="10" stroke-width="3.98381" transform="matrix(.1 0 0 -.1 0 852.55)"/><path d="m524.941406 588.894531h.414063v-28.398437h-.414063zm0 0"/><use x="582.2" xlink:href="#V" y="564.657"/><path d="m664.84375 2586.710938h4.140625v273.085937h-4.140625zm0 0" fill="none" stroke="#000" stroke-linejoin="round" stroke-miterlimit="10" stroke-width="3.98381" transform="matrix(.1 0 0 -.1 0 852.55)"/><path d="m66.484375 593.878906h.414063v-27.308594h-.414063zm0 0"/><use x="66.284" xlink:href="#P" y="564.657"/><use x="38.388211" xlink:href="#S" y="564.657"/><use x="6.9738" xlink:href="#T" y="573.37419"/><use x="60.4101" xlink:href="#ak" y="614.13119"/><use x="71.635512" xlink:href="#ac" y="614.13119"/><path d="m2237.65625 2810.890625h4.140625v240.507813h-4.140625zm0 0" fill="none" stroke="#000" stroke-linejoin="round" stroke-miterlimit="10" stroke-width="3.98381" transform="matrix(.1 0 0 -.1 0 852.55)"/><path d="m223.765625 571.460938h.414063v-24.046876h-.414063zm0 0"/><use x="201.427" xlink:href="#ab" y="614.132"/><use x="219.28523" xlink:href="#af" y="614.132"/><use x="224.047347" xlink:href="#ag" y="614.132"/><use x="212.9985" xlink:href="#P" y="573.375"/><path d="m1504.101562 2854.484375h4.140626v214.492187h-4.140626zm0 0" fill="none" stroke="#000" stroke-linejoin="round" stroke-miterlimit="10" stroke-width="3.98381" transform="matrix(.1 0 0 -.1 0 852.55)"/><path d="m150.410156 567.101562h.414063v-21.449218h-.414063zm0 0"/><use x="128.58" xlink:href="#aw" y="614.132"/><use x="139.465184" xlink:href="#af" y="614.132"/><use x="144.227301" xlink:href="#ag" y="614.132"/><use x="156.132797" xlink:href="#ad" y="614.132"/><use x="139.6405" xlink:href="#P" y="569.0164"/><use x="67.0975" xlink:href="#R" y="593.8789"/><g clip-path="url(#E)"><path d="m3.125 1658.507812h5946.523438" style="fill:none;stroke-width:6.25903;stroke-linecap:round;stroke-linejoin:round;stroke:#000;stroke-miterlimit:10" transform="matrix(.1 0 0 -.1 0 852.55)"/></g><g clip-path="url(#F)"><path d="m3.125 1745.695312h5946.523438" style="fill:none;stroke-width:6.25903;stroke-linecap:round;stroke-linejoin:round;stroke:#000;stroke-miterlimit:10" transform="matrix(.1 0 0 -.1 0 852.55)"/></g><g clip-path="url(#G)"><path d="m3.125 1832.84375h5946.523438" style="fill:none;stroke-width:6.25903;stroke-linecap:round;stroke-linejoin:round;stroke:#000;stroke-miterlimit:10" transform="matrix(.1 0 0 -.1 0 852.55)"/></g><g clip-path="url(#H)"><path d="m3.125 1920.03125h5946.523438" style="fill:none;stroke-width:6.25903;stroke-linecap:round;stroke-linejoin:round;stroke:#000;stroke-miterlimit:10" transform="matrix(.1 0 0 -.1 0 852.55)"/></g><g clip-path="url(#I)"><path d="m3.125 2007.21875h5946.523438" style="fill:none;stroke-width:6.25903;stroke-linecap:round;stroke-linejoin:round;stroke:#000;stroke-miterlimit:10" transform="matrix(.1 0 0 -.1 0 852.55)"/></g><use x="433.946" xlink:href="#P" y="682.341"/><use x="431.30381" xlink:href="#Z" y="717.2101"/><use x="437.256576" xlink:href="#aa" y="717.2101"/><path d="m4447.148438 1721.242188h4.140624v283.945312h-4.140624zm0 0" style="fill:none;stroke-width:3.98381;stroke-linecap:round;stroke-linejoin:round;stroke:#000;stroke-miterlimit:10" transform="matrix(.1 0 0 -.1 0 852.55)"/><path d="m444.714844 680.425781h.414062v-28.394531h-.414062zm0 0"/><use x="489.353" xlink:href="#P" y="677.982"/><use x="480.3323" xlink:href="#ad" y="717.2097"/><use x="485.94444" xlink:href="#ac" y="717.2097"/><use x="497.849923" xlink:href="#ag" y="717.2097"/><path d="m5001.210938 1764.835938h4.140624v283.945312h-4.140624zm0 0" style="fill:none;stroke-width:3.98381;stroke-linecap:round;stroke-linejoin:round;stroke:#000;stroke-miterlimit:10" transform="matrix(.1 0 0 -.1 0 852.55)"/><path d="m500.121094 676.066406h.414062v-28.394531h-.414062zm0 0"/><path d="m3963.789062 1808.390625h4.140626v266.210937h-4.140626zm0 0" style="fill:none;stroke-width:3.98381;stroke-linecap:round;stroke-linejoin:round;stroke:#000;stroke-miterlimit:10" transform="matrix(.1 0 0 -.1 0 852.55)"/><path d="m396.378906 671.710938h.414063v-26.621094h-.414063zm0 0"/><use x="379.82" xlink:href="#ar" y="717.21"/><use x="392.06611" xlink:href="#aj" y="717.21"/><use x="385.60906" xlink:href="#P" y="673.6237"/><path d="m3458.632812 1808.390625h4.140626v266.210937h-4.140626zm0 0" style="fill:none;stroke-width:3.98381;stroke-linecap:round;stroke-linejoin:round;stroke:#000;stroke-miterlimit:10" transform="matrix(.1 0 0 -.1 0 852.55)"/><path d="m345.863281 671.710938h.414063v-26.621094h-.414063zm0 0"/><use x="327.093" xlink:href="#af" y="717.21"/><use x="331.855508" xlink:href="#ag" y="717.21"/><use x="343.760601" xlink:href="#aw" y="717.21"/><use x="335.093" xlink:href="#P" y="673.6237"/><path d="m1346.40625 2095.5v-37.851562l509.296875 17.773437v37.851563zm0 0" fill="none" stroke="#000" stroke-linejoin="round" stroke-miterlimit="10" stroke-width="3.98381" transform="matrix(.1 0 0 -.1 0 852.55)"/><path d="m134.640625 643v3.785156l50.929687-1.777344v-3.785156zm0 0"/><path d="m1521.09375 1412.570312h52.5v3.125h-52.5zm0 0" fill="none" stroke="#000" stroke-linejoin="round" stroke-miterlimit="10" stroke-width="5.01245" transform="matrix(.1 0 0 -.1 0 852.55)"/><path d="m152.109375 711.292969h5.25v-.3125h-5.25zm0 0"/><path d="m2565.703125 1412.570312h52.5v3.125h-52.5zm0 0" fill="none" stroke="#000" stroke-linejoin="round" stroke-miterlimit="10" stroke-width="5.01245" transform="matrix(.1 0 0 -.1 0 852.55)"/><path d="m256.570312 711.292969h5.25v-.3125h-5.25zm0 0"/><path d="m3114.296875 1412.570312h52.5v3.125h-52.5zm0 0" fill="none" stroke="#000" stroke-linejoin="round" stroke-miterlimit="10" stroke-width="5.01245" transform="matrix(.1 0 0 -.1 0 852.55)"/><path d="m311.425781 711.292969h5.253907v-.3125h-5.253907zm0 0"/><path d="m3458.632812 2057.648438h509.296876v37.851562h-509.296876zm0 0" fill="none" stroke="#000" stroke-linejoin="round" stroke-miterlimit="10" stroke-width="3.98381" transform="matrix(.1 0 0 -.1 0 852.55)"/><path d="m345.863281 646.785156h50.929688v-3.785156h-50.929688zm0 0"/><path d="m4615.234375 1412.570312h52.539063v3.125h-52.539063zm0 0" fill="none" stroke="#000" stroke-linejoin="round" stroke-miterlimit="10" stroke-width="5.01245" transform="matrix(.1 0 0 -.1 0 852.55)"/><path d="m461.523438 711.292969h5.253906v-.3125h-5.253906zm0 0"/><path d="m5227.578125 1412.570312h52.539063v3.125h-52.539063zm0 0" fill="none" stroke="#000" stroke-linejoin="round" stroke-miterlimit="10" stroke-width="5.01245" transform="matrix(.1 0 0 -.1 0 852.55)"/><path d="m522.757812 711.292969h5.253907v-.3125h-5.253907zm0 0"/><use x="544.761" xlink:href="#P" y="673.624"/><use x="582.2001" xlink:href="#Q" y="651.8306"/><use x="556.1439" xlink:href="#U" y="643.31302"/><path d="m5555.273438 1808.390625h4.179687v283.984375h-4.179687zm0 0" fill="none" stroke="#000" stroke-linejoin="round" stroke-miterlimit="10" stroke-width="3.98381" transform="matrix(.1 0 0 -.1 0 852.55)"/><path d="m555.527344 671.710938h.417968v-28.398438h-.417968zm0 0"/><use x="541.012" xlink:href="#Y" y="717.21"/><use x="547.984668" xlink:href="#ac" y="717.21"/><path d="m1346.40625 1808.390625h4.140625v266.328125h-4.140625zm0 0" fill="none" stroke="#000" stroke-linejoin="round" stroke-miterlimit="10" stroke-width="3.98381" transform="matrix(.1 0 0 -.1 0 852.55)"/><path d="m134.640625 671.710938h.414063v-26.632813h-.414063zm0 0"/><use x="112.469" xlink:href="#ag" y="717.21"/><use x="124.374105" xlink:href="#ap" y="717.21"/><use x="135.939366" xlink:href="#aj" y="717.21"/><use x="123.8702" xlink:href="#P" y="673.6237"/><path d="m770.546875 1721.242188h4.140625v283.945312h-4.140625zm0 0" fill="none" stroke="#000" stroke-linejoin="round" stroke-miterlimit="10" stroke-width="3.98381" transform="matrix(.1 0 0 -.1 0 852.55)"/><path d="m77.054688 680.425781h.414062v-28.394531h-.414062zm0 0"/><use x="53.0117" xlink:href="#X" y="717.21"/><use x="68.489464" xlink:href="#aq" y="717.21"/><use x="80.22464" xlink:href="#av" y="717.21"/><use x="66.284" xlink:href="#P" y="682.3409"/><use x="38.3883" xlink:href="#S" y="669.2647"/><use x="6.9738" xlink:href="#T" y="677.98228"/><use x="225.0348" xlink:href="#P" y="664.90608"/><path d="m2806.40625 1573.3125h4.179688v283.984375h-4.179688zm0 0" fill="none" stroke="#000" stroke-linejoin="round" stroke-miterlimit="10" stroke-width="3.98381" transform="matrix(.1 0 0 -.1 0 852.55)"/><path d="m280.640625 695.21875h.414063v-28.398438h-.414063zm0 0"/><use x="271.251" xlink:href="#ab" y="717.21"/><use x="289.109621" xlink:href="#ac" y="717.21"/><use x="280.44163" xlink:href="#P" y="664.9061"/><path d="m2252.34375 1573.3125h4.140625v283.984375h-4.140625zm0 0" fill="none" stroke="#000" stroke-linejoin="round" stroke-miterlimit="10" stroke-width="3.98381" transform="matrix(.1 0 0 -.1 0 852.55)"/><path d="m225.234375 695.21875h.414063v-28.398438h-.414063zm0 0"/><use x="214.313" xlink:href="#aa" y="717.21"/><use x="225.02825" xlink:href="#aj" y="717.21"/><use x="235.232953" xlink:href="#ac" y="717.21"/><path d="m1851.5625 1851.984375h4.140625v240.234375h-4.140625zm0 0" fill="none" stroke="#000" stroke-linejoin="round" stroke-miterlimit="10" stroke-width="3.98381" transform="matrix(.1 0 0 -.1 0 852.55)"/><path d="m185.15625 667.351562h.414062v-24.023437h-.414062zm0 0"/><use x="162.815" xlink:href="#ag" y="717.21"/><use x="174.720496" xlink:href="#ac" y="717.21"/><use x="186.625601" xlink:href="#aw" y="717.21"/><use x="174.3865" xlink:href="#P" y="669.2647"/><g clip-path="url(#J)"><path d="m3.125 612.414062h5946.523438" style="fill:none;stroke-width:6.25903;stroke-linecap:round;stroke-linejoin:round;stroke:#000;stroke-miterlimit:10" transform="matrix(.1 0 0 -.1 0 852.55)"/></g><g clip-path="url(#K)"><path d="m3.125 699.601562h5946.523438" style="fill:none;stroke-width:6.25903;stroke-linecap:round;stroke-linejoin:round;stroke:#000;stroke-miterlimit:10" transform="matrix(.1 0 0 -.1 0 852.55)"/></g><g clip-path="url(#L)"><path d="m3.125 786.789062h5946.523438" style="fill:none;stroke-width:6.25903;stroke-linecap:round;stroke-linejoin:round;stroke:#000;stroke-miterlimit:10" transform="matrix(.1 0 0 -.1 0 852.55)"/></g><g clip-path="url(#M)"><path d="m3.125 873.9375h5946.523438" style="fill:none;stroke-width:6.25903;stroke-linecap:round;stroke-linejoin:round;stroke:#000;stroke-miterlimit:10" transform="matrix(.1 0 0 -.1 0 852.55)"/></g><g clip-path="url(#N)"><path d="m3.125 961.125h5946.523438" style="fill:none;stroke-width:6.25903;stroke-linecap:round;stroke-linejoin:round;stroke:#000;stroke-miterlimit:10" transform="matrix(.1 0 0 -.1 0 852.55)"/></g><g clip-path="url(#O)"><path d="m5933.984375 612.414062v348.710938" fill="none" stroke="#000" stroke-linejoin="round" stroke-miterlimit="10" stroke-width="37.5716" transform="matrix(.1 0 0 -.1 0 852.55)"/></g><path d="m5890.46875 612.414062v348.710938" fill="none" stroke="#000" stroke-linejoin="round" stroke-miterlimit="10" stroke-width="11.8991" transform="matrix(.1 0 0 -.1 0 852.55)"/><use x="501.355" xlink:href="#W" y="753.8238"/><use x="495.66359" xlink:href="#P" y="786.9488"/><path d="m4157.03125 718.742188h4.140625v283.984374h-4.140625zm0 0" fill="none" stroke="#000" stroke-linejoin="round" stroke-miterlimit="10" stroke-width="3.98381" transform="matrix(.1 0 0 -.1 0 852.55)"/><path d="m415.703125 780.675781h.414063v-28.398437h-.414063zm0 0"/><use x="395.743" xlink:href="#ab" y="821.9051"/><use x="413.601255" xlink:href="#ap" y="821.9051"/><use x="404.93363" xlink:href="#P" y="782.5899"/><path d="m3249.726562 762.335938h4.140626v283.984374h-4.140626zm0 0" fill="none" stroke="#000" stroke-linejoin="round" stroke-miterlimit="10" stroke-width="3.98381" transform="matrix(.1 0 0 -.1 0 852.55)"/><path d="m324.972656 776.316406h.414063v-28.398437h-.414063zm0 0"/><use x="300.591" xlink:href="#aq" y="821.9051"/><use x="312.326561" xlink:href="#av" y="821.9051"/><use x="322.530872" xlink:href="#ac" y="821.9051"/><use x="334.436356" xlink:href="#as" y="821.9051"/><use x="314.2043" xlink:href="#P" y="778.2313"/><path d="m1589.648438 997.84375v-37.851562l845.117187 51.5625v37.890624zm0 0" fill="none" stroke="#000" stroke-linejoin="round" stroke-miterlimit="10" stroke-width="3.98381" transform="matrix(.1 0 0 -.1 0 852.55)"/><path d="m158.964844 752.765625v3.785156l84.511718-5.15625v-3.789062zm0 0"/><path d="m2722.304688 365.617188h52.5v3.125h-52.5zm0 0" fill="none" stroke="#000" stroke-linejoin="round" stroke-miterlimit="10" stroke-width="5.01245" transform="matrix(.1 0 0 -.1 0 852.55)"/><path d="m272.230469 815.988281h5.25v-.3125h-5.25zm0 0"/><path d="m3648.4375 365.617188h52.539062v3.125h-52.539062zm0 0" fill="none" stroke="#000" stroke-linejoin="round" stroke-miterlimit="10" stroke-width="5.01245" transform="matrix(.1 0 0 -.1 0 852.55)"/><path d="m364.84375 815.988281h5.253906v-.3125h-5.253906zm0 0"/><path d="m4547.226562 365.617188h52.539063v3.125h-52.539063zm0 0" fill="none" stroke="#000" stroke-linejoin="round" stroke-miterlimit="10" stroke-width="5.01245" transform="matrix(.1 0 0 -.1 0 852.55)"/><path d="m454.722656 815.988281h5.253906v-.3125h-5.253906zm0 0"/><use x="489.195" xlink:href="#Y" y="821.9051"/><use x="496.168058" xlink:href="#ac" y="821.9051"/><use x="507.563385" xlink:href="#aC" y="821.9051"/><path d="m5064.335938 675.148438h4.140624v283.984374h-4.140624zm0 0" fill="none" stroke="#000" stroke-linejoin="round" stroke-miterlimit="10" stroke-width="3.98381" transform="matrix(.1 0 0 -.1 0 852.55)"/><path d="m506.433594 785.035156h.414062v-28.398437h-.414062zm0 0"/><use x="66.284" xlink:href="#P" y="778.2312"/><use x="38.3883" xlink:href="#S" y="773.87261"/><use x="6.9738" xlink:href="#T" y="782.5898"/><use x="226.8418" xlink:href="#aw" y="821.905"/><use x="237.216424" xlink:href="#ac" y="821.905"/><use x="148.1977" xlink:href="#P" y="782.5898"/><path d="m2430.585938 805.929688h4.179687v222.34375h-4.179687zm0 0" fill="none" stroke="#000" stroke-linejoin="round" stroke-miterlimit="10" stroke-width="3.98381" transform="matrix(.1 0 0 -.1 0 852.55)"/><path d="m243.058594 771.957031h.417968v-22.234375h-.417968zm0 0"/><use x="232.29" xlink:href="#P" y="773.8727"/><path d="m1589.648438 718.742188h4.179687v258.4375h-4.179687zm0 0" fill="none" stroke="#000" stroke-linejoin="round" stroke-miterlimit="10" stroke-width="3.98381" transform="matrix(.1 0 0 -.1 0 852.55)"/><path d="m158.964844 780.675781h.417968v-25.84375h-.417968zm0 0"/><use x="147.936" xlink:href="#aA" y="821.9051"/><use x="59.474082" xlink:href="#ay" y="821.9051"/><use x="73.760832" xlink:href="#aa" y="821.9051"/><use x="77.6673" xlink:href="#U" y="747.9203"/><path d="m770.546875 762.335938h4.140625v283.984374h-4.140625zm0 0" fill="none" stroke="#000" stroke-linejoin="round" stroke-miterlimit="10" stroke-width="3.98381" transform="matrix(.1 0 0 -.1 0 852.55)"/><path d="m77.054688 776.316406h.414062v-28.398437h-.414062zm0 0"/></svg>