<svg height="732.51em" viewBox="0 0 595.28 732.51" width="595.28em" xmlns="http://www.w3.org/2000/svg" xmlns:xlink="http://www.w3.org/1999/xlink"><clipPath id="a"><path d="m0 80h595.28125v2h-595.28125zm0 0"/></clipPath><clipPath id="b"><path d="m0 68h595.28125v2h-595.28125zm0 0"/></clipPath><clipPath id="c"><path d="m0 56h595.28125v2h-595.28125zm0 0"/></clipPath><clipPath id="d"><path d="m0 44h595.28125v2h-595.28125zm0 0"/></clipPath><clipPath id="e"><path d="m0 32h595.28125v2h-595.28125zm0 0"/></clipPath><clipPath id="f"><path d="m593 32h2.28125v50h-2.28125zm0 0"/></clipPath><clipPath id="g"><path d="m0 223h595.28125v2h-595.28125zm0 0"/></clipPath><clipPath id="h"><path d="m0 212h595.28125v1h-595.28125zm0 0"/></clipPath><clipPath id="i"><path d="m0 200h595.28125v1h-595.28125zm0 0"/></clipPath><clipPath id="j"><path d="m0 188h595.28125v1h-595.28125zm0 0"/></clipPath><clipPath id="k"><path d="m0 176h595.28125v1h-595.28125zm0 0"/></clipPath><clipPath id="l"><path d="m593 175h2.28125v51h-2.28125zm0 0"/></clipPath><clipPath id="m"><path d="m0 367h595.28125v2h-595.28125zm0 0"/></clipPath><clipPath id="n"><path d="m0 355h595.28125v2h-595.28125zm0 0"/></clipPath><clipPath id="o"><path d="m0 343h595.28125v2h-595.28125zm0 0"/></clipPath><clipPath id="p"><path d="m0 331h595.28125v2h-595.28125zm0 0"/></clipPath><clipPath id="q"><path d="m0 319h595.28125v2h-595.28125zm0 0"/></clipPath><clipPath id="r"><path d="m593 319h2.28125v50h-2.28125zm0 0"/></clipPath><clipPath id="s"><path d="m0 510h595.28125v2h-595.28125zm0 0"/></clipPath><clipPath id="t"><path d="m0 498h595.28125v2h-595.28125zm0 0"/></clipPath><clipPath id="u"><path d="m0 486h595.28125v2h-595.28125zm0 0"/></clipPath><clipPath id="v"><path d="m0 475h595.28125v1h-595.28125zm0 0"/></clipPath><clipPath id="w"><path d="m0 463h595.28125v1h-595.28125zm0 0"/></clipPath><clipPath id="x"><path d="m593 462h2.28125v50h-2.28125zm0 0"/></clipPath><clipPath id="y"><path d="m0 654h595.28125v2h-595.28125zm0 0"/></clipPath><clipPath id="z"><path d="m0 642h595.28125v2h-595.28125zm0 0"/></clipPath><clipPath id="A"><path d="m0 630h595.28125v2h-595.28125zm0 0"/></clipPath><clipPath id="B"><path d="m0 618h595.28125v2h-595.28125zm0 0"/></clipPath><clipPath id="C"><path d="m0 606h595.28125v2h-595.28125zm0 0"/></clipPath><clipPath id="D"><path d="m590 604h5.28125v53h-5.28125zm0 0"/></clipPath><symbol id="E" overflow="visible"><path d="m7.5 0v-2.0625c-.328125.078125-.71875.109375-1.1875.109375-1.0625 0-1.359375-.296875-1.359375-1.375v-10.125h2.546875v-2.015625h-2.546875v-4.25h-2.4375v4.25h-2.109375v2.015625h2.109375v11.203125c0 1.578125 1.0625 2.453125 2.96875 2.453125.59375 0 1.1875-.0625 2.015625-.203125zm0 0"/></symbol><symbol id="F" overflow="visible"><path d="m15.140625-7.03125c0-2.234375-.171875-3.65625-.625-4.796875-1-2.546875-3.359375-4.078125-6.25-4.078125-4.3125 0-7.078125 3.1875-7.078125 8.265625s2.671875 8.078125 7.015625 8.078125c3.546875 0 6-2 6.609375-5.125h-2.46875c-.6875 2.03125-2.078125 2.859375-4.046875 2.859375-2.578125 0-4.484375-1.65625-4.546875-5.203125zm-2.625-2.171875s0 .109375-.03125.171875h-8.671875c.203125-2.75 1.9375-4.609375 4.421875-4.609375 2.421875 0 4.28125 2.015625 4.28125 4.4375zm0 0"/></symbol><symbol id="G" overflow="visible"><path d="m14.375 0v-11.6875c0-2.5625-1.921875-4.21875-4.90625-4.21875-2.296875 0-3.765625.875-5.125 3.03125v-2.59375h-2.28125v15.46875h2.453125v-8.53125c0-3.15625 1.71875-5.21875 4.21875-5.21875 1.953125 0 3.1875 1.171875 3.1875 3.03125v10.71875zm0 0"/></symbol><symbol id="H" overflow="visible"><path d="m5.703125 0v-21.515625h-2.75v21.515625zm0 0"/></symbol><symbol id="I" overflow="visible"><path d="m13.546875-4.34375c0-2.296875-1.296875-3.453125-4.375-4.1875l-2.359375-.5625c-2-.46875-2.859375-1.125-2.859375-2.203125 0-1.421875 1.265625-2.34375 3.28125-2.34375 1.96875 0 3.03125.859375 3.09375 2.484375h2.59375c-.03125-3.046875-2.03125-4.75-5.609375-4.75-3.59375 0-5.921875 1.859375-5.921875 4.71875 0 2.421875 1.234375 3.578125 4.890625 4.453125l2.3125.5625c1.703125.421875 2.390625.921875 2.390625 2.046875 0 1.4375-1.453125 2.296875-3.609375 2.296875-2.203125 0-3.453125-.53125-3.78125-2.890625h-2.59375c.125 3.5625 2.125 5.15625 6.171875 5.15625 3.890625 0 6.375-1.796875 6.375-4.78125zm0 0"/></symbol><symbol id="J" overflow="visible"><path d="m19.03125-6.546875v-14.96875h-2.734375v14.96875c0 2.890625-2.09375 4.65625-5.546875 4.65625-3.21875 0-5.5-1.53125-5.5-4.65625v-14.96875h-2.734375v14.96875c0 4.359375 3.125 7.078125 8.234375 7.078125 5.046875 0 8.28125-2.78125 8.28125-7.078125zm-2.03125-20.484375h-4.015625l-3.390625 3.921875h2.125zm0 0"/></symbol><symbol id="K" overflow="visible"><path d="m9.46875-13.3125v-2.515625c-.40625-.046875-.609375-.078125-.9375-.078125-1.59375 0-2.8125.9375-4.21875 3.25v-2.8125h-2.25v15.46875h2.453125v-8.03125c0-3.484375 1.15625-5.21875 4.953125-5.28125zm0 0"/></symbol><symbol id="L" overflow="visible"><path d="m19.421875 0-8.859375-12.75 8.765625-8.765625h-3.53125l-10.71875 10.890625v-10.890625h-2.75v21.515625h2.75v-7.53125l3.515625-3.5 7.578125 11.03125zm0 0"/></symbol><symbol id="M" overflow="visible"><path d="m14.234375 0v-15.46875h-2.453125v8.53125c0 3.15625-1.65625 5.21875-4.21875 5.21875-1.953125 0-3.1875-1.171875-3.1875-3.03125v-10.71875h-2.453125v11.6875c0 2.578125 1.921875 4.21875 4.921875 4.21875 2.28125 0 3.71875-.796875 5.171875-2.828125v2.390625zm-7.09375-17.828125v-3.015625h-2.6875v3.015625zm4.78125 0v-3.015625h-2.6875v3.015625zm0 0"/></symbol><symbol id="N" overflow="visible"><path d="m4.453125 0v-21.515625h-2.453125v21.515625zm0 0"/></symbol><symbol id="O" overflow="visible"><path d="m15.796875-.0625v-1.859375c-.265625.0625-.390625.0625-.53125.0625-.859375 0-1.328125-.4375-1.328125-1.203125v-8.625c0-2.75-2.015625-4.21875-5.828125-4.21875-3.734375 0-6.046875 1.4375-6.1875 5.015625h2.46875c.21875-1.890625 1.328125-2.75 3.640625-2.75 2.203125 0 3.453125.828125 3.453125 2.3125v.640625c0 1.03125-.625 1.484375-2.578125 1.71875-3.46875.4375-4 .5625-4.953125.9375-1.796875.734375-2.71875 2.125-2.71875 4.015625 0 2.8125 1.953125 4.453125 5.078125 4.453125 1.984375 0 3.90625-.828125 5.25-2.265625.265625 1.171875 1.328125 2.03125 2.546875 2.03125.5 0 .890625-.0625 1.6875-.265625zm-4.3125-5.28125c0 2.21875-2.25 3.625-4.640625 3.625-1.921875 0-3.03125-.671875-3.03125-2.359375 0-1.625 1.09375-2.328125 3.71875-2.703125 2.59375-.359375 3.125-.484375 3.953125-.859375zm0 0"/></symbol><symbol id="P" overflow="visible"><path d="m13.484375 0v-2.15625h-9.59375l9.1875-11.125v-2.1875h-11.546875v2.15625h8.625l-9.234375 11.09375v2.21875zm0 0"/></symbol><symbol id="Q" overflow="visible"><path d="m14.609375 0v-21.515625h-2.453125v8c-1.03125-1.5625-2.6875-2.390625-4.75-2.390625-4.015625 0-6.640625 3.09375-6.640625 8.03125 0 5.21875 2.5625 8.3125 6.734375 8.3125 2.125 0 3.59375-.796875 4.921875-2.703125v2.265625zm-2.453125-7.671875c0 3.5625-1.703125 5.8125-4.3125 5.8125-2.703125 0-4.515625-2.265625-4.515625-5.875 0-3.59375 1.8125-5.875 4.5-5.875 2.65625 0 4.328125 2.359375 4.328125 5.9375zm0 0"/></symbol><symbol id="R" overflow="visible"><path d="m15.140625-7.03125c0-2.234375-.171875-3.65625-.625-4.796875-1-2.546875-3.359375-4.078125-6.25-4.078125-4.3125 0-7.078125 3.1875-7.078125 8.265625s2.671875 8.078125 7.015625 8.078125c3.546875 0 6-2 6.609375-5.125h-2.46875c-.6875 2.03125-2.078125 2.859375-4.046875 2.859375-2.578125 0-4.484375-1.65625-4.546875-5.203125zm-2.625-2.171875s0 .109375-.03125.171875h-8.671875c.203125-2.75 1.9375-4.609375 4.421875-4.609375 2.421875 0 4.28125 2.015625 4.28125 4.4375zm1.03125-12.3125h-3.328125l-2.84375 4.359375h1.78125zm0 0"/></symbol><symbol id="S" overflow="visible"><path d="m4.515625 3.21875v-18.6875h-2.453125v17.71875c0 1.46875-.5 2.125-2 2.03125l-.59375-.03125v2.09375c.296875.0625.4375.09375.828125.09375 2.765625 0 4.21875-1.125 4.21875-3.21875zm.328125-21.015625v-3.078125h-3.078125v3.078125zm0 0"/></symbol><symbol id="T" overflow="visible"><path d="m15.796875-.0625v-1.859375c-.265625.0625-.390625.0625-.53125.0625-.859375 0-1.328125-.4375-1.328125-1.203125v-8.625c0-2.75-2.015625-4.21875-5.828125-4.21875-3.734375 0-6.046875 1.4375-6.1875 5.015625h2.46875c.21875-1.890625 1.328125-2.75 3.640625-2.75 2.203125 0 3.453125.828125 3.453125 2.3125v.640625c0 1.03125-.625 1.484375-2.578125 1.71875-3.46875.4375-4 .5625-4.953125.9375-1.796875.734375-2.71875 2.125-2.71875 4.015625 0 2.8125 1.953125 4.453125 5.078125 4.453125 1.984375 0 3.90625-.828125 5.25-2.265625.265625 1.171875 1.328125 2.03125 2.546875 2.03125.5 0 .890625-.0625 1.6875-.265625zm-4.3125-5.28125c0 2.21875-2.25 3.625-4.640625 3.625-1.921875 0-3.03125-.671875-3.03125-2.359375 0-1.625 1.09375-2.328125 3.71875-2.703125 2.59375-.359375 3.125-.484375 3.953125-.859375zm1.921875-16.171875h-3.34375l-2.828125 4.359375h1.765625zm0 0"/></symbol><symbol id="U" overflow="visible"><path d="m14.4375-2.53125v-12.9375h-2.28125v2.25c-1.234375-1.828125-2.734375-2.6875-4.71875-2.6875-3.921875 0-6.578125 3.296875-6.578125 8.328125 0 4.859375 2.734375 8.015625 6.375 8.015625 1.9375 0 3.296875-.828125 4.921875-2.765625v1.03125c0 4.09375-1.671875 5.671875-4.546875 5.671875-1.9375 0-3.453125-.71875-3.75-2.609375h-2.5c.265625 2.921875 2.53125 4.671875 6.171875 4.671875 4.828125 0 6.90625-2.15625 6.90625-8.96875zm-2.515625-5.109375c0 3.6875-1.59375 5.8125-4.1875 5.8125-2.6875 0-4.3125-2.15625-4.3125-5.90625 0-3.71875 1.65625-5.90625 4.28125-5.90625 2.65625 0 4.21875 2.25 4.21875 6zm0 0"/></symbol><symbol id="V" overflow="visible"><path d="m15.046875-7.609375c0-5.34375-2.5625-8.296875-7.015625-8.296875-4.34375 0-6.96875 2.984375-6.96875 8.171875 0 5.203125 2.59375 8.171875 7 8.171875 4.328125 0 6.984375-2.96875 6.984375-8.046875zm-2.5625-.03125c0 3.625-1.71875 5.8125-4.421875 5.8125-2.75 0-4.4375-2.15625-4.4375-5.90625 0-3.71875 1.6875-5.90625 4.4375-5.90625 2.765625 0 4.421875 2.15625 4.421875 6zm0 0"/></symbol><symbol id="W" overflow="visible"><path d="m19.015625 0v-21.515625h-2.75v9.296875h-11.078125v-9.296875h-2.734375v21.515625h2.734375v-9.796875h11.078125v9.796875zm0 0"/></symbol><symbol id="X" overflow="visible"><path d="m14.234375 0v-15.46875h-2.453125v8.53125c0 3.15625-1.65625 5.21875-4.21875 5.21875-1.953125 0-3.1875-1.171875-3.1875-3.03125v-10.71875h-2.453125v11.6875c0 2.578125 1.921875 4.21875 4.921875 4.21875 2.28125 0 3.71875-.796875 5.171875-2.828125v2.390625zm-3.46875-21.546875h-3.328125l-2.828125 4.421875h1.765625zm4.84375 0h-3.328125l-2.84375 4.421875h1.78125zm0 0"/></symbol><symbol id="Y" overflow="visible"><path d="m15.4375-7.90625c0-5.015625-2.546875-8-6.609375-8-2.125 0-3.640625.796875-4.78125 2.53125v-8.140625h-2.453125v21.515625h2.21875v-2.21875c1.171875 1.8125 2.734375 2.65625 4.890625 2.65625 4.078125 0 6.734375-3.328125 6.734375-8.34375zm-2.5625.140625c0 3.515625-1.84375 5.90625-4.515625 5.90625-2.609375 0-4.3125-2.359375-4.3125-5.875 0-3.625 1.703125-5.984375 4.3125-5.875 2.734375 0 4.515625 2.390625 4.515625 5.84375zm0 0"/></symbol><symbol id="Z" overflow="visible"><path d="m18.328125-5.90625c0-2.65625-1.65625-4.59375-4.578125-5.390625l-5.390625-1.453125c-2.609375-.671875-3.546875-1.53125-3.546875-3.1875 0-2.1875 1.921875-3.8125 4.8125-3.8125 3.421875 0 5.375 1.5625 5.375 4.375h2.59375c0-4.21875-2.921875-6.671875-7.890625-6.671875-4.71875 0-7.640625 2.59375-7.640625 6.484375 0 2.640625 1.390625 4.28125 4.21875 5.03125l5.34375 1.40625c2.71875.71875 3.953125 1.8125 3.953125 3.484375 0 2.359375-1.765625 3.75-5.484375 3.75-4.078125 0-6.078125-2.03125-6.078125-5.109375h-2.59375c0 5.078125 3.421875 7.53125 8.5 7.53125 5.453125 0 8.40625-2.59375 8.40625-6.4375zm0 0"/></symbol><symbol id="aa" overflow="visible"><path d="m19.0625 0v-21.515625h-2.59375v17.59375l-11.25-17.59375h-2.96875v21.515625h2.59375v-17.4375l11.125 17.4375zm0 0"/></symbol><symbol id="ab" overflow="visible"><path d="m14.34375 0v-11.6875c0-2.59375-1.859375-4.21875-4.875-4.21875-2.171875 0-3.5.671875-4.953125 2.5625v-8.171875h-2.453125v21.515625h2.453125v-8.53125c0-3.15625 1.65625-5.21875 4.1875-5.21875 1.75 0 3.1875 1 3.1875 3.03125v10.71875zm0 0"/></symbol><symbol id="ac" overflow="visible"><path d="m15.046875-7.609375c0-5.34375-2.5625-8.296875-7.015625-8.296875-4.34375 0-6.96875 2.984375-6.96875 8.171875 0 5.203125 2.59375 8.171875 7 8.171875 4.328125 0 6.984375-2.96875 6.984375-8.046875zm-2.5625-.03125c0 3.625-1.71875 5.8125-4.421875 5.8125-2.75 0-4.4375-2.15625-4.4375-5.90625 0-3.71875 1.6875-5.90625 4.4375-5.90625 2.765625 0 4.421875 2.15625 4.421875 6zm-5.34375-10.1875v-3.015625h-2.6875v3.015625zm4.78125 0v-3.015625h-2.6875v3.015625zm0 0"/></symbol><symbol id="ad" overflow="visible"><path d="m14.109375-15.46875h-2.65625l-4.28125 12.046875-3.953125-12.046875h-2.625l5.21875 15.53125-.9375 2.453125c-.421875 1.078125-.921875 1.5-1.984375 1.5-.359375 0-.765625-.0625-1.296875-.171875v2.203125c.5.265625 1 .390625 1.65625.390625 1.734375 0 3.15625-.984375 3.984375-3.1875zm0 0"/></symbol><symbol id="ae" overflow="visible"><path d="m20.921875 0v-11.359375h-8.96875v2.421875h6.546875v.578125c0 3.84375-2.828125 6.46875-6.75 6.46875-4.875 0-7.703125-3.546875-7.703125-8.796875 0-5.28125 3-8.9375 7.546875-8.9375 3.28125 0 5.640625 1.859375 6.234375 4.625h2.796875c-.765625-4.359375-4.0625-7.046875-9-7.046875-6.578125 0-10.328125 5.078125-10.328125 11.515625 0 6.609375 4.046875 11.0625 9.859375 11.0625 2.921875 0 5.25-1.03125 7.34375-3.359375l.6875 2.828125zm0 0"/></symbol><symbol id="af" overflow="visible"><path d="m4.515625 0v-15.46875h-2.453125v15.46875zm.328125-17.796875v-3.078125h-3.078125v3.078125zm0 0"/></symbol><symbol id="ag" overflow="visible"><path d="m5.640625 0v-3.0625h-3.078125v3.0625zm0-12.390625v-3.078125h-3.078125v3.078125zm0 0"/></symbol><symbol id="ah" overflow="visible"><path d="m14.34375-15.46875h-2.78125l-4.359375 12.546875-4.140625-12.546875h-2.765625l5.421875 15.46875h2.6875zm0 0"/></symbol><symbol id="ai" overflow="visible"><path d="m14.8125 0-6.3125-10.125 5.375-5.34375h-3.15625l-6.5625 6.5625v-12.609375h-2.4375v21.515625h2.4375v-6.015625l2.390625-2.359375 5.234375 8.375zm0 0"/></symbol><symbol id="aj" overflow="visible"><path d="m15.046875-7.609375c0-5.34375-2.5625-8.296875-7.015625-8.296875-4.34375 0-6.96875 2.984375-6.96875 8.171875 0 5.203125 2.59375 8.171875 7 8.171875 4.328125 0 6.984375-2.96875 6.984375-8.046875zm-2.5625-.03125c0 3.625-1.71875 5.8125-4.421875 5.8125-2.75 0-4.4375-2.15625-4.4375-5.90625 0-3.71875 1.6875-5.90625 4.4375-5.90625 2.765625 0 4.421875 2.15625 4.421875 6zm1-13.875h-3.328125l-2.84375 4.359375h1.78125zm0 0"/></symbol><symbol id="ak" overflow="visible"><path d="m10.625-6.453125c-2.015625 0-3.921875.671875-5.65625 1.71875-2.25 1.34375-4.96875 3.6875-4.96875 7.078125 0 2.828125 2.484375 4.109375 5.015625 4.109375 2.015625 0 3.921875-.671875 5.65625-1.71875 2.234375-1.34375 4.921875-3.6875 4.921875-7.078125 0-2.828125-2.4375-4.109375-4.96875-4.109375zm0 0"/></symbol><symbol id="al" overflow="visible"><path d="m-1.09375 5.40625c0 2.578125 2.234375 7.125 4.4375 9.75.296875.34375.765625-.09375.484375-.421875-.8125-1-1.34375-2.921875-1.34375-4.59375 0-1.96875.578125-3.34375 2.484375-3.34375 1.734375 0 3.96875 1 4.890625 2.046875.140625.203125.328125.25.46875.25.34375 0 .671875-.34375.671875-.671875 0-.140625-.046875-.25-.140625-.390625l-4.15625-4.96875c-.765625-.953125-1.15625-2.0625-1.15625-3.203125 0-1.484375.625-3.015625 1.859375-4.0625 1.78125-1.53125 4.125-3.015625 4.125-4.59375 0-.390625-.140625-.8125-.484375-1.203125l-7.265625-8.703125c-.140625-.1875-.34375-.234375-.484375-.234375-.328125 0-.671875.328125-.671875.671875 0 .140625.046875.28125.15625.421875l1.859375 2.203125c.765625.953125 1.140625 2.0625 1.140625 3.203125 0 1.484375-.609375 3.015625-1.859375 4.0625-1.765625 1.53125-4.109375 3.015625-4.109375 4.59375 0 .390625.140625.8125.46875 1.203125l6.5625 7.84375c-2.15625-1.0625-4.59375-1.78125-6.21875-1.78125-1.25 0-1.71875.671875-1.71875 1.921875zm0 0"/></symbol><symbol id="am" overflow="visible"><path d="m10.28125 15.109375v-7.796875l2.34375-.8125c.28125-.09375.53125-.375.53125-.71875v-3.109375c0-.515625-.53125-.90625-1.015625-.703125l-1.859375.65625v-7.84375l2.34375-.859375c.28125-.09375.53125-.375.53125-.71875v-3.0625c0-.515625-.53125-.90625-1.015625-.703125l-1.859375.609375v-7.171875c0-.421875-.375-.8125-.8125-.8125-.421875 0-.8125.390625-.8125.8125v7.75l-4.15625 1.484375v-7.21875c0-.4375-.390625-.8125-.8125-.8125-.4375 0-.8125.375-.8125.8125v7.796875l-2.34375.8125c-.296875.09375-.53125.375-.53125.71875v3.109375c0 .515625.53125.90625 1 .703125l1.875-.65625v7.84375l-2.34375.859375c-.296875.09375-.53125.375-.53125.71875v3.0625c0 .515625.53125.90625 1 .703125l1.875-.609375v7.171875c0 .421875.375.8125.8125.8125.421875 0 .8125-.390625.8125-.8125v-7.75l4.15625-1.484375v7.21875c0 .4375.390625.8125.8125.8125.4375 0 .8125-.375.8125-.8125zm-5.78125-18.3125 4.15625-1.4375v7.84375l-4.15625 1.4375zm0 0"/></symbol><symbol id="an" overflow="visible"><path d="m17.890625-12.4375c-.765625-3.34375-1.671875-6.640625-2.640625-9.953125 4.59375-5.203125 8.765625-10.5625 8.765625-17.453125 0-5.40625-2.96875-13.15625-6.3125-17.171875-.25-.1875-.53125-.1875-.765625 0-4.546875 3.296875-7.1875 8.5625-7.1875 14.109375 0 2.484375.0625 4.9375.34375 7.375.328125 3.109375 1.140625 6.109375 2 9.125-5.640625 6.421875-12 12.53125-12 21.046875 0 9.609375 6.9375 17.796875 15.921875 17.796875 1.484375 0 2.875-.140625 4.265625-.390625.140625 1.53125.234375 3.0625.234375 4.59375 0 .859375-.046875 1.671875-.09375 2.53125-.28125 4.75-3.203125 9.09375-7.65625 9.1875-.046875 0-.09375.046875-.140625.046875-2.4375 0-4.546875-1.390625-5.78125-3.34375.515625.234375 1.09375.4375 1.671875.4375 2.484375 0 4.546875-2.0625 4.546875-4.546875 0-2.6875-1.96875-4.984375-4.546875-4.984375-2.828125 0-5.359375 2.203125-5.359375 4.984375 0 5.15625 4.15625 9.328125 9.328125 9.328125 5.640625 0 9.515625-5.078125 9.84375-10.8125.0625-.90625.0625-1.765625.0625-2.6875 0-1.71875-.109375-3.4375-.25-5.15625 1.25-.390625 2.4375-.953125 3.5-1.765625 3.53125-2.640625 5.109375-6.3125 5.109375-9.953125 0-6.3125-4.78125-12.390625-12.140625-12.390625-.25 0-.484375.046875-.71875.046875zm4.0625 22.25c-.671875-5.9375-1.765625-11.578125-2.96875-17.171875 5.265625.421875 8.5625 4.828125 8.5625 9.21875 0 3.359375-2.296875 6.796875-5.59375 7.953125zm-18.5625-11.296875c0-7.65625 5.171875-13.4375 10.34375-19.21875.75 2.8125 1.515625 5.640625 2.1875 8.5-4.828125 1.109375-7.546875 5.171875-7.546875 9.375 0 3.359375 1.71875 6.75 5.546875 8.8125.140625.046875.28125.09375.421875.09375.53125 0 .96875-.484375.96875-1.015625 0-.234375-.15625-.46875-.34375-.65625-2.671875-1.53125-3.921875-3.828125-3.921875-5.9375 0-2.828125 2.203125-5.359375 5.984375-5.78125 1.234375 5.734375 2.34375 11.421875 3.0625 17.546875-1.296875.1875-2.59375.28125-3.921875.28125-6.515625 0-12.78125-5.5-12.78125-12zm16.265625-48.734375c.8125 2.53125 1 3.78125 1 6.546875 0 6.078125-3.203125 10.90625-7.125 15.546875-.859375-3.015625-1.578125-5.921875-1.578125-9.5625 0-5.3125 2.96875-10.140625 7.703125-12.53125zm0 0"/></symbol><symbol id="ao" overflow="visible"><path d="m9.9375 0v-18.640625h-2.4375c-.578125 2.203125-2.5 3.328125-5.71875 3.328125v2.453125h4.484375v12.859375zm0 0"/></symbol><symbol id="ap" overflow="visible"><path d="m5.625 0v-3.84375h-3.9375v3.84375zm0 0"/></symbol><g clip-path="url(#a)"><path d="m6.119792 10860.518229h9908.984375" fill="none" stroke="#000" stroke-linecap="round" stroke-miterlimit="10" stroke-width="12.2939" transform="matrix(.06 0 0 -.06 0 732.51)"/></g><g clip-path="url(#b)"><path d="m6.119792 11059.671875h9908.984375" fill="none" stroke="#000" stroke-linecap="round" stroke-miterlimit="10" stroke-width="12.2939" transform="matrix(.06 0 0 -.06 0 732.51)"/></g><g clip-path="url(#c)"><path d="m6.119792 11259.020833h9908.984375" fill="none" stroke="#000" stroke-linecap="round" stroke-miterlimit="10" stroke-width="12.2939" transform="matrix(.06 0 0 -.06 0 732.51)"/></g><g clip-path="url(#d)"><path d="m6.119792 11458.174479h9908.984375" fill="none" stroke="#000" stroke-linecap="round" stroke-miterlimit="10" stroke-width="12.2939" transform="matrix(.06 0 0 -.06 0 732.51)"/></g><g clip-path="url(#e)"><path d="m6.119792 11657.523437h9908.984375" fill="none" stroke="#000" stroke-linecap="round" stroke-miterlimit="10" stroke-width="12.2939" transform="matrix(.06 0 0 -.06 0 732.51)"/></g><g clip-path="url(#f)"><path d="m9909.570312 10860.518229v797.005208" fill="none" stroke="#000" stroke-miterlimit="10" stroke-width="23.3524" transform="matrix(.06 0 0 -.06 0 732.51)"/></g><path d="m7770.963542 11102.184896h9.309895v651.5625h-9.309895zm0 0" fill="none" stroke="#000" stroke-linejoin="round" stroke-miterlimit="10" stroke-width="6.63512" transform="matrix(.06 0 0 -.06 0 732.51)"/><path d="m466.257812 66.378906h.558594v-39.09375h-.558594zm0 0"/><use x="438.803878" xlink:href="#E" y="122.72478"/><use x="446.627326" xlink:href="#F" y="122.72478"/><use x="463.12547" xlink:href="#G" y="122.72478"/><use x="451.407903" xlink:href="#ak" y="68.925673"/><path d="m6548.307292 11201.924479h9.309895v651.497396h-9.309895zm0 0" fill="none" stroke="#000" stroke-linejoin="round" stroke-miterlimit="10" stroke-width="6.63512" transform="matrix(.06 0 0 -.06 0 732.51)"/><path d="m392.898438 60.394531h.558593v-39.089843h-.558593zm0 0"/><use x="374.371749" xlink:href="#H" y="122.72478"/><use x="382.535743" xlink:href="#I" y="122.72478"/><use x="378.045756" xlink:href="#ak" y="62.948661"/><path d="m5432.552083 11102.184896h9.309896v551.627604h-9.309896zm0 0" fill="none" stroke="#000" stroke-linejoin="round" stroke-miterlimit="10" stroke-width="6.63512" transform="matrix(.06 0 0 -.06 0 732.51)"/><path d="m325.953125 66.378906h.558594v-33.097656h-.558594zm0 0"/><use x="303.345607" xlink:href="#J" y="122.72478"/><use x="324.605548" xlink:href="#K" y="122.72478"/><use x="311.101622" xlink:href="#ak" y="68.925673"/><path d="m2317.838542 10297.497396h121.744791v6.119791h-121.744791zm0 0" fill="none" stroke="#000" stroke-linejoin="round" stroke-miterlimit="10" stroke-width="9.82316" transform="matrix(.06 0 0 -.06 0 732.51)"/><path d="m139.070312 114.660156h7.304688v-.367187h-7.304688zm0 0"/><path d="m6906.966146 10297.497396h121.679687v6.119791h-121.679687zm0 0" fill="none" stroke="#000" stroke-linejoin="round" stroke-miterlimit="10" stroke-width="9.82316" transform="matrix(.06 0 0 -.06 0 732.51)"/><path d="m414.417969 114.660156h7.300781v-.367187h-7.300781zm0 0"/><path d="m4316.796875 11660.322917v-88.997396l1125.065104 41.666666v88.997396zm0 0" fill="none" stroke="#000" stroke-linejoin="round" stroke-miterlimit="10" stroke-width="6.63512" transform="matrix(.06 0 0 -.06 0 732.51)"/><path d="m259.007812 32.890625v5.339844l67.503907-2.5v-5.339844zm0 0"/><use x="524.76805" xlink:href="#al" y="56.970649"/><path d="m1821.614583 10803.421875h9.309896v651.497396h-9.309896zm0 0" fill="none" stroke="#000" stroke-linejoin="round" stroke-miterlimit="10" stroke-width="6.63512" transform="matrix(.06 0 0 -.06 0 732.51)"/><path d="m109.296875 84.304688h.558594v-39.089844h-.558594zm0 0"/><use x="47.265995" xlink:href="#ao" y="122.72478"/><use x="61.893121" xlink:href="#ap" y="122.72478"/><use x="81.161362" xlink:href="#L" y="122.72478"/><use x="100.210665" xlink:href="#M" y="122.72478"/><use x="116.708794" xlink:href="#N" y="122.72478"/><use x="51.407403" xlink:href="#am" y="33.060601"/><use x="9.564119" xlink:href="#an" y="68.926173"/><use x="94.445989" xlink:href="#ak" y="86.858909"/><path d="m4316.796875 11002.575521h9.309896v610.15625h-9.309896zm0 0" fill="none" stroke="#000" stroke-linejoin="round" stroke-miterlimit="10" stroke-width="6.63512" transform="matrix(.06 0 0 -.06 0 732.51)"/><path d="m259.007812 72.355469h.558594v-36.609375h-.558594zm0 0"/><use x="236.315473" xlink:href="#O" y="122.72478"/><use x="252.813617" xlink:href="#P" y="122.72478"/><use x="244.157488" xlink:href="#ak" y="74.903685"/><path d="m3094.140625 11102.184896h9.309896v651.5625h-9.309896zm0 0" fill="none" stroke="#000" stroke-linejoin="round" stroke-miterlimit="10" stroke-width="6.63512" transform="matrix(.06 0 0 -.06 0 732.51)"/><path d="m185.648438 66.378906h.558593v-39.09375h-.558593zm0 0"/><use x="162.104324" xlink:href="#Q" y="122.72478"/><use x="178.602454" xlink:href="#R" y="122.72478"/><use x="170.796342" xlink:href="#ak" y="68.925673"/><g clip-path="url(#g)"><path d="m6.119792 8469.4375h9908.984375" style="fill:none;stroke-width:12.2939;stroke-linecap:round;stroke-linejoin:round;stroke:#000;stroke-miterlimit:10" transform="matrix(.06 0 0 -.06 0 732.51)"/></g><g clip-path="url(#h)"><path d="m6.119792 8668.65625h9908.984375" style="fill:none;stroke-width:12.2939;stroke-linecap:round;stroke-linejoin:round;stroke:#000;stroke-miterlimit:10" transform="matrix(.06 0 0 -.06 0 732.51)"/></g><g clip-path="url(#i)"><path d="m6.119792 8867.940104h9908.984375" style="fill:none;stroke-width:12.2939;stroke-linecap:round;stroke-linejoin:round;stroke:#000;stroke-miterlimit:10" transform="matrix(.06 0 0 -.06 0 732.51)"/></g><g clip-path="url(#j)"><path d="m6.119792 9067.158854h9908.984375" style="fill:none;stroke-width:12.2939;stroke-linecap:round;stroke-linejoin:round;stroke:#000;stroke-miterlimit:10" transform="matrix(.06 0 0 -.06 0 732.51)"/></g><g clip-path="url(#k)"><path d="m6.119792 9266.442708h9908.984375" style="fill:none;stroke-width:12.2939;stroke-linecap:round;stroke-linejoin:round;stroke:#000;stroke-miterlimit:10" transform="matrix(.06 0 0 -.06 0 732.51)"/></g><g clip-path="url(#l)"><path d="m9909.570312 8469.4375v797.005208" fill="none" stroke="#000" stroke-linejoin="round" stroke-miterlimit="10" stroke-width="23.3524" transform="matrix(.06 0 0 -.06 0 732.51)"/></g><path d="m7767.903646 8412.341146h9.309896v651.497396h-9.309896zm0 0" fill="none" stroke="#000" stroke-linejoin="round" stroke-miterlimit="10" stroke-width="6.63512" transform="matrix(.06 0 0 -.06 0 732.51)"/><path d="m466.074219 227.769531h.558593v-39.089843h-.558593zm0 0"/><use x="443.379887" xlink:href="#S" y="266.187067"/><use x="450.012704" xlink:href="#T" y="266.187067"/><use x="466.510849" xlink:href="#E" y="266.187067"/><use x="451.220902" xlink:href="#ak" y="230.320996"/><path d="m6543.684896 8511.950521h9.309896v651.5625h-9.309896zm0 0" fill="none" stroke="#000" stroke-linejoin="round" stroke-miterlimit="10" stroke-width="6.63512" transform="matrix(.06 0 0 -.06 0 732.51)"/><path d="m392.621094 221.792969h.558594v-39.089844h-.558594zm0 0"/><use x="369.160738" xlink:href="#U" y="266.187067"/><use x="385.487789" xlink:href="#T" y="266.187067"/><use x="377.767756" xlink:href="#ak" y="224.342984"/><path d="m5426.5625 8611.559896h9.309896v610.15625h-9.309896zm0 0" fill="none" stroke="#000" stroke-linejoin="round" stroke-miterlimit="10" stroke-width="6.63512" transform="matrix(.06 0 0 -.06 0 732.51)"/><path d="m325.59375 215.816406h.558594v-36.609375h-.558594zm0 0"/><use x="292.183584" xlink:href="#I" y="266.187067"/><use x="306.980396" xlink:href="#P" y="266.187067"/><use x="321.777442" xlink:href="#V" y="266.187067"/><use x="338.275586" xlink:href="#N" y="266.187067"/><use x="310.740621" xlink:href="#ak" y="218.365972"/><path d="m2282.421875 7906.481771h121.679687v6.119791h-121.679687zm0 0" fill="none" stroke="#000" stroke-linejoin="round" stroke-miterlimit="10" stroke-width="9.82316" transform="matrix(.06 0 0 -.06 0 732.51)"/><path d="m136.945312 258.121094h7.300782v-.367188h-7.300782zm0 0"/><path d="m3410.9375 7906.481771h121.744792v6.119791h-121.744792zm0 0" fill="none" stroke="#000" stroke-linejoin="round" stroke-miterlimit="10" stroke-width="9.82316" transform="matrix(.06 0 0 -.06 0 732.51)"/><path d="m204.65625 258.121094h7.304688v-.367188h-7.304688zm0 0"/><path d="m5889.713542 7906.481771h121.679687v6.119791h-121.679687zm0 0" fill="none" stroke="#000" stroke-linejoin="round" stroke-miterlimit="10" stroke-width="9.82316" transform="matrix(.06 0 0 -.06 0 732.51)"/><path d="m353.382812 258.121094h7.300782v-.367188h-7.300782zm0 0"/><path d="m6983.854167 7906.481771h121.679687v6.119791h-121.679687zm0 0" fill="none" stroke="#000" stroke-linejoin="round" stroke-miterlimit="10" stroke-width="9.82316" transform="matrix(.06 0 0 -.06 0 732.51)"/><path d="m419.03125 258.121094h7.300781v-.367188h-7.300781zm0 0"/><path d="m4270.117187 9310.908854v-88.997396l1165.755209-41.666666v88.997395zm0 0" fill="none" stroke="#000" stroke-linejoin="round" stroke-miterlimit="10" stroke-width="6.63512" transform="matrix(.06 0 0 -.06 0 732.51)"/><path d="m256.207031 173.855469v5.339843l69.945313 2.5v-5.339843zm0 0"/><use x="524.676049" xlink:href="#al" y="200.432936"/><path d="m1821.614583 8711.169271h9.309896v651.5625h-9.309896zm0 0" fill="none" stroke="#000" stroke-linejoin="round" stroke-miterlimit="10" stroke-width="6.63512" transform="matrix(.06 0 0 -.06 0 732.51)"/><path d="m109.296875 209.839844h.558594v-39.09375h-.558594zm0 0"/><use x="83.373167" xlink:href="#W" y="266.187067"/><use x="104.632867" xlink:href="#X" y="266.187067"/><use x="94.446089" xlink:href="#ak" y="212.38796"/><use x="51.407503" xlink:href="#am" y="176.522388"/><use x="9.564219" xlink:href="#an" y="212.38796"/><path d="m4270.117187 8711.169271h9.309896v551.692708h-9.309896zm0 0" fill="none" stroke="#000" stroke-linejoin="round" stroke-miterlimit="10" stroke-width="6.63512" transform="matrix(.06 0 0 -.06 0 732.51)"/><path d="m256.207031 209.839844h.558594v-33.097656h-.558594zm0 0"/><use x="225.263451" xlink:href="#U" y="266.187067"/><use x="241.76158" xlink:href="#F" y="266.187067"/><use x="258.259724" xlink:href="#I" y="266.187067"/><use x="241.353483" xlink:href="#ak" y="212.38796"/><path d="m3045.833333 8810.84375h9.375v651.497396h-9.375zm0 0" fill="none" stroke="#000" stroke-linejoin="round" stroke-miterlimit="10" stroke-width="6.63512" transform="matrix(.06 0 0 -.06 0 732.51)"/><path d="m182.75 203.859375h.5625v-39.089844h-.5625zm0 0"/><use x="160.05832" xlink:href="#I" y="266.187067"/><use x="174.855117" xlink:href="#R" y="266.187067"/><use x="167.900336" xlink:href="#ak" y="206.410948"/><g clip-path="url(#m)"><path d="m6.119792 6078.421875h9908.984375" style="fill:none;stroke-width:12.2939;stroke-linecap:round;stroke-linejoin:round;stroke:#000;stroke-miterlimit:10" transform="matrix(.06 0 0 -.06 0 732.51)"/></g><g clip-path="url(#n)"><path d="m6.119792 6277.640625h9908.984375" style="fill:none;stroke-width:12.2939;stroke-linecap:round;stroke-linejoin:round;stroke:#000;stroke-miterlimit:10" transform="matrix(.06 0 0 -.06 0 732.51)"/></g><g clip-path="url(#o)"><path d="m6.119792 6476.859375h9908.984375" style="fill:none;stroke-width:12.2939;stroke-linecap:round;stroke-linejoin:round;stroke:#000;stroke-miterlimit:10" transform="matrix(.06 0 0 -.06 0 732.51)"/></g><g clip-path="url(#p)"><path d="m6.119792 6676.143229h9908.984375" style="fill:none;stroke-width:12.2939;stroke-linecap:round;stroke-linejoin:round;stroke:#000;stroke-miterlimit:10" transform="matrix(.06 0 0 -.06 0 732.51)"/></g><g clip-path="url(#q)"><path d="m6.119792 6875.427083h9908.984375" style="fill:none;stroke-width:12.2939;stroke-linecap:round;stroke-linejoin:round;stroke:#000;stroke-miterlimit:10" transform="matrix(.06 0 0 -.06 0 732.51)"/></g><g clip-path="url(#r)"><path d="m9909.570312 6078.421875v797.005208" fill="none" stroke="#000" stroke-linejoin="round" stroke-miterlimit="10" stroke-width="23.3524" transform="matrix(.06 0 0 -.06 0 732.51)"/></g><path d="m7770.052083 6320.153646h9.375v651.5625h-9.375zm0 0" fill="none" stroke="#000" stroke-linejoin="round" stroke-miterlimit="10" stroke-width="6.63512" transform="matrix(.06 0 0 -.06 0 732.51)"/><path d="m466.203125 353.300781h.5625v-39.09375h-.5625zm0 0"/><use x="434.411869" xlink:href="#Y" y="409.649354"/><use x="450.910013" xlink:href="#F" y="409.649354"/><use x="467.408157" xlink:href="#G" y="409.649354"/><use x="451.353903" xlink:href="#ak" y="355.850247"/><path d="m6546.940104 6419.763021h9.309896v651.5625h-9.309896zm0 0" fill="none" stroke="#000" stroke-linejoin="round" stroke-miterlimit="10" stroke-width="6.63512" transform="matrix(.06 0 0 -.06 0 732.51)"/><path d="m392.816406 347.324219h.558594v-39.09375h-.558594zm0 0"/><use x="368.848738" xlink:href="#K" y="409.649354"/><use x="378.373261" xlink:href="#F" y="409.649354"/><use x="394.530858" xlink:href="#E" y="409.649354"/><use x="377.965756" xlink:href="#ak" y="349.873235"/><path d="m5189.648437 5882.71875h9.309896v551.627604h-9.309896zm0 0" fill="none" stroke="#000" stroke-linejoin="round" stroke-miterlimit="10" stroke-width="6.63512" transform="matrix(.06 0 0 -.06 0 732.51)"/><path d="m311.378906 379.546875h.558594v-33.097656h-.558594zm0 0"/><use x="303.337607" xlink:href="#P" y="409.649354"/><use x="318.134653" xlink:href="#T" y="409.649354"/><use x="311.179622" xlink:href="#ak" y="343.895223"/><path d="m2354.947917 5515.466146h121.679687v6.119791h-121.679687zm0 0" fill="none" stroke="#000" stroke-linejoin="round" stroke-miterlimit="10" stroke-width="9.82316" transform="matrix(.06 0 0 -.06 0 732.51)"/><path d="m141.296875 401.582031h7.300781v-.367187h-7.300781zm0 0"/><path d="m4723.697917 5515.466146h121.744791v6.119791h-121.744791zm0 0" fill="none" stroke="#000" stroke-linejoin="round" stroke-miterlimit="10" stroke-width="9.82316" transform="matrix(.06 0 0 -.06 0 732.51)"/><path d="m283.421875 401.582031h7.300781v-.367187h-7.300781zm0 0"/><path d="m5801.497396 5515.466146h121.679687v6.119791h-121.679687zm0 0" fill="none" stroke="#000" stroke-linejoin="round" stroke-miterlimit="10" stroke-width="9.82316" transform="matrix(.06 0 0 -.06 0 732.51)"/><path d="m348.089844 401.582031h7.300781v-.367187h-7.300781zm0 0"/><path d="m6915.039062 5515.466146h121.679688v6.119791h-121.679688zm0 0" fill="none" stroke="#000" stroke-linejoin="round" stroke-miterlimit="10" stroke-width="9.82316" transform="matrix(.06 0 0 -.06 0 732.51)"/><path d="m414.902344 401.582031h7.300781v-.367187h-7.300781zm0 0"/><path d="m4073.502604 5965.335937v-88.997395l1125.455729-41.666667v88.997396zm0 0" fill="none" stroke="#000" stroke-linejoin="round" stroke-miterlimit="10" stroke-width="6.63512" transform="matrix(.06 0 0 -.06 0 732.51)"/><path d="m244.410156 374.589844v5.339844l67.527344 2.5v-5.339844zm0 0"/><use x="524.742049" xlink:href="#al" y="343.895223"/><path d="m1577.408854 5816.052083h9.375v618.359375h-9.375zm0 0" fill="none" stroke="#000" stroke-linejoin="round" stroke-miterlimit="10" stroke-width="6.63512" transform="matrix(.06 0 0 -.06 0 732.51)"/><path d="m94.644531 383.546875h.558594v-37.097656h-.558594zm0 0"/><use x="69.341439" xlink:href="#Z" y="409.649354"/><use x="89.070899" xlink:href="#P" y="409.649354"/><use x="103.867938" xlink:href="#X" y="409.649354"/><use x="120.366067" xlink:href="#P" y="409.649354"/><use x="94.446089" xlink:href="#ak" y="343.895223"/><use x="51.407503" xlink:href="#am" y="319.984675"/><use x="9.564219" xlink:href="#an" y="355.850247"/><path d="m4073.502604 5923.864583h9.309896v610.15625h-9.309896zm0 0" fill="none" stroke="#000" stroke-linejoin="round" stroke-miterlimit="10" stroke-width="6.63512" transform="matrix(.06 0 0 -.06 0 732.51)"/><path d="m244.410156 377.078125h.558594v-36.609375h-.558594zm0 0"/><use x="233.223466" xlink:href="#aa" y="409.649354"/><use x="254.31372" xlink:href="#T" y="409.649354"/><use x="244.211488" xlink:href="#ak" y="337.918211"/><path d="m2850.390625 5982.067708h9.309896v651.5625h-9.309896zm0 0" fill="none" stroke="#000" stroke-linejoin="round" stroke-miterlimit="10" stroke-width="6.63512" transform="matrix(.06 0 0 -.06 0 732.51)"/><path d="m171.023438 373.585938h.558593v-39.09375h-.558593zm0 0"/><use x="154.732309" xlink:href="#ab" y="409.649354"/><use x="171.230439" xlink:href="#ac" y="409.649354"/><use x="187.728568" xlink:href="#P" y="409.649354"/><use x="170.823342" xlink:href="#ak" y="331.940199"/><g clip-path="url(#s)"><path d="m6.119792 3687.341146h9908.984375" style="fill:none;stroke-width:12.2939;stroke-linecap:round;stroke-linejoin:round;stroke:#000;stroke-miterlimit:10" transform="matrix(.06 0 0 -.06 0 732.51)"/></g><g clip-path="url(#t)"><path d="m6.119792 3886.625h9908.984375" style="fill:none;stroke-width:12.2939;stroke-linecap:round;stroke-linejoin:round;stroke:#000;stroke-miterlimit:10" transform="matrix(.06 0 0 -.06 0 732.51)"/></g><g clip-path="url(#u)"><path d="m6.119792 4085.84375h9908.984375" style="fill:none;stroke-width:12.2939;stroke-linecap:round;stroke-linejoin:round;stroke:#000;stroke-miterlimit:10" transform="matrix(.06 0 0 -.06 0 732.51)"/></g><g clip-path="url(#v)"><path d="m6.119792 4285.127604h9908.984375" style="fill:none;stroke-width:12.2939;stroke-linecap:round;stroke-linejoin:round;stroke:#000;stroke-miterlimit:10" transform="matrix(.06 0 0 -.06 0 732.51)"/></g><g clip-path="url(#w)"><path d="m6.119792 4484.346354h9908.984375" style="fill:none;stroke-width:12.2939;stroke-linecap:round;stroke-linejoin:round;stroke:#000;stroke-miterlimit:10" transform="matrix(.06 0 0 -.06 0 732.51)"/></g><g clip-path="url(#x)"><path d="m9909.570312 3687.341146v797.005208" fill="none" stroke="#000" stroke-linejoin="round" stroke-miterlimit="10" stroke-width="23.3524" transform="matrix(.06 0 0 -.06 0 732.51)"/></g><path d="m7755.403646 3630.244792h9.309896v651.5625h-9.309896zm0 0" fill="none" stroke="#000" stroke-linejoin="round" stroke-miterlimit="10" stroke-width="6.63512" transform="matrix(.06 0 0 -.06 0 732.51)"/><path d="m465.324219 514.695312h.558593v-39.09375h-.558593zm0 0"/><use x="442.629885" xlink:href="#N" y="553.593642"/><use x="449.262703" xlink:href="#T" y="553.593642"/><use x="465.760847" xlink:href="#E" y="553.593642"/><use x="450.471901" xlink:href="#ak" y="517.245569"/><path d="m6524.934896 3729.854167h9.309896v651.5625h-9.309896zm0 0" fill="none" stroke="#000" stroke-linejoin="round" stroke-miterlimit="10" stroke-width="6.63512" transform="matrix(.06 0 0 -.06 0 732.51)"/><path d="m391.496094 508.71875h.558594v-39.09375h-.558594zm0 0"/><use x="360.892722" xlink:href="#U" y="553.593642"/><use x="377.390866" xlink:href="#ad" y="553.593642"/><use x="391.50752" xlink:href="#O" y="553.593642"/><use x="376.642753" xlink:href="#ak" y="511.268558"/><path d="m5402.213542 3829.528646h9.375v610.091146h-9.375zm0 0" fill="none" stroke="#000" stroke-linejoin="round" stroke-miterlimit="10" stroke-width="6.63512" transform="matrix(.06 0 0 -.06 0 732.51)"/><path d="m324.132812 502.738281h.5625v-36.605469h-.5625zm0 0"/><use x="300.590601" xlink:href="#O" y="553.593642"/><use x="317.088745" xlink:href="#G" y="553.593642"/><use x="309.281619" xlink:href="#ak" y="505.290546"/><path d="m2421.484375 3116.377604h121.679687v6.119792h-121.679687zm0 0" fill="none" stroke="#000" stroke-linejoin="round" stroke-miterlimit="10" stroke-width="9.82316" transform="matrix(.06 0 0 -.06 0 732.51)"/><path d="m145.289062 545.527344h7.300782v-.367188h-7.300782zm0 0"/><path d="m3458.398437 3116.377604h121.679688v6.119792h-121.679688zm0 0" fill="none" stroke="#000" stroke-linejoin="round" stroke-miterlimit="10" stroke-width="9.82316" transform="matrix(.06 0 0 -.06 0 732.51)"/><path d="m207.503906 545.527344h7.300782v-.367188h-7.300782zm0 0"/><path d="m5726.432292 3116.377604h121.679687v6.119792h-121.679687zm0 0" fill="none" stroke="#000" stroke-linejoin="round" stroke-miterlimit="10" stroke-width="9.82316" transform="matrix(.06 0 0 -.06 0 732.51)"/><path d="m343.585938 545.527344h7.300781v-.367188h-7.300781zm0 0"/><path d="m7027.799479 3116.377604h121.679688v6.119792h-121.679688zm0 0" fill="none" stroke="#000" stroke-linejoin="round" stroke-miterlimit="10" stroke-width="9.82316" transform="matrix(.06 0 0 -.06 0 732.51)"/><path d="m421.667969 545.527344h7.300781v-.367188h-7.300781zm0 0"/><path d="m4279.557292 4528.877604v-88.997396l1132.03125-41.666666v88.997395zm0 0" fill="none" stroke="#000" stroke-linejoin="round" stroke-miterlimit="10" stroke-width="6.63512" transform="matrix(.06 0 0 -.06 0 732.51)"/><path d="m256.773438 460.777344v5.339844l67.921874 2.5v-5.339844zm0 0"/><use x="524.301049" xlink:href="#al" y="487.35751"/><path d="m1577.408854 3424.971354h9.375v618.359375h-9.375zm0 0" fill="none" stroke="#000" stroke-linejoin="round" stroke-miterlimit="10" stroke-width="6.63512" transform="matrix(.06 0 0 -.06 0 732.51)"/><path d="m94.644531 527.011719h.558594v-37.101563h-.558594zm0 0"/><use x="74.274049" xlink:href="#ae" y="553.593642"/><use x="97.235074" xlink:href="#T" y="553.593642"/><use x="113.733203" xlink:href="#Y" y="553.593642"/><use x="94.446089" xlink:href="#ak" y="487.35751"/><use x="51.407503" xlink:href="#am" y="463.447262"/><use x="9.564219" xlink:href="#an" y="499.312834"/><path d="m4279.557292 3929.138021h9.309895v551.627604h-9.309895zm0 0" fill="none" stroke="#000" stroke-linejoin="round" stroke-miterlimit="10" stroke-width="6.63512" transform="matrix(.06 0 0 -.06 0 732.51)"/><path d="m256.773438 496.761719h.558593v-33.097657h-.558593zm0 0"/><use x="238.161476" xlink:href="#F" y="553.593642"/><use x="254.659621" xlink:href="#N" y="553.593642"/><use x="241.921484" xlink:href="#ak" y="499.312534"/><path d="m3049.088542 4028.747396h9.309895v651.5625h-9.309895zm0 0" fill="none" stroke="#000" stroke-linejoin="round" stroke-miterlimit="10" stroke-width="6.63512" transform="matrix(.06 0 0 -.06 0 732.51)"/><path d="m182.945312 490.785156h.558594v-39.09375h-.558594zm0 0"/><use x="167.650335" xlink:href="#K" y="553.593642"/><use x="177.514718" xlink:href="#af" y="553.593642"/><use x="168.093336" xlink:href="#ak" y="493.335522"/><g clip-path="url(#y)"><path d="m6.119792 1296.325521h9908.984375" style="fill:none;stroke-width:12.2939;stroke-linecap:round;stroke-linejoin:round;stroke:#000;stroke-miterlimit:10" transform="matrix(.06 0 0 -.06 0 732.51)"/></g><g clip-path="url(#z)"><path d="m6.119792 1495.544271h9908.984375" style="fill:none;stroke-width:12.2939;stroke-linecap:round;stroke-linejoin:round;stroke:#000;stroke-miterlimit:10" transform="matrix(.06 0 0 -.06 0 732.51)"/></g><g clip-path="url(#A)"><path d="m6.119792 1694.828125h9908.984375" style="fill:none;stroke-width:12.2939;stroke-linecap:round;stroke-linejoin:round;stroke:#000;stroke-miterlimit:10" transform="matrix(.06 0 0 -.06 0 732.51)"/></g><g clip-path="url(#B)"><path d="m6.119792 1894.111979h9908.984375" style="fill:none;stroke-width:12.2939;stroke-linecap:round;stroke-linejoin:round;stroke:#000;stroke-miterlimit:10" transform="matrix(.06 0 0 -.06 0 732.51)"/></g><g clip-path="url(#C)"><path d="m6.119792 2093.330729h9908.984375" style="fill:none;stroke-width:12.2939;stroke-linecap:round;stroke-linejoin:round;stroke:#000;stroke-miterlimit:10" transform="matrix(.06 0 0 -.06 0 732.51)"/></g><g clip-path="url(#D)"><path d="m9884.375 1296.325521v797.005208" fill="none" stroke="#000" stroke-linejoin="round" stroke-miterlimit="10" stroke-width="73.7235" transform="matrix(.06 0 0 -.06 0 732.51)"/></g><path d="m9799.023437 1296.325521v797.005208" fill="none" stroke="#000" stroke-linejoin="round" stroke-miterlimit="10" stroke-width="23.3524" transform="matrix(.06 0 0 -.06 0 732.51)"/><use x="309.168618" xlink:href="#ak" y="642.775321"/><path d="m7700.716146 1538.122396h9.309896v651.497396h-9.309896zm0 0" fill="none" stroke="#000" stroke-linejoin="round" stroke-miterlimit="10" stroke-width="6.63512" transform="matrix(.06 0 0 -.06 0 732.51)"/><path d="m462.042969 640.222656h.558593v-39.089844h-.558593zm0 0"/><use x="426.167852" xlink:href="#Y" y="696.693228"/><use x="442.665997" xlink:href="#F" y="696.693228"/><use x="459.164141" xlink:href="#G" y="696.693228"/><use x="475.662285" xlink:href="#ag" y="696.693228"/><use x="447.189894" xlink:href="#ak" y="642.775321"/><path d="m6498.177083 1637.731771h9.309896v651.497396h-9.309896zm0 0" fill="none" stroke="#000" stroke-linejoin="round" stroke-miterlimit="10" stroke-width="6.63512" transform="matrix(.06 0 0 -.06 0 732.51)"/><path d="m389.890625 634.246094h.558594v-39.089844h-.558594zm0 0"/><use x="367.535735" xlink:href="#ah" y="696.693228"/><use x="381.652389" xlink:href="#R" y="696.693228"/><use x="375.03775" xlink:href="#ak" y="636.797609"/><path d="m5400.325521 1538.122396h9.309896v551.5625h-9.309896zm0 0" fill="none" stroke="#000" stroke-linejoin="round" stroke-miterlimit="10" stroke-width="6.63512" transform="matrix(.06 0 0 -.06 0 732.51)"/><path d="m324.019531 640.222656h.558594v-33.09375h-.558594zm0 0"/><use x="293.417587" xlink:href="#ai" y="696.693228"/><use x="307.534241" xlink:href="#F" y="696.693228"/><use x="324.032385" xlink:href="#Q" y="696.693228"/><path d="m2240.690104 731.351562h121.744792v6.184896h-121.744792zm0 0" fill="none" stroke="#000" stroke-linejoin="round" stroke-miterlimit="10" stroke-width="9.82316" transform="matrix(.06 0 0 -.06 0 732.51)"/><path d="m134.441406 688.628906h7.300782v-.371094h-7.300782zm0 0"/><path d="m4573.242187 731.351562h121.679688v6.184896h-121.679688zm0 0" fill="none" stroke="#000" stroke-linejoin="round" stroke-miterlimit="10" stroke-width="9.82316" transform="matrix(.06 0 0 -.06 0 732.51)"/><path d="m274.394531 688.628906h7.300781v-.371094h-7.300781zm0 0"/><path d="m5839.713542 731.351562h121.679687v6.184896h-121.679687zm0 0" fill="none" stroke="#000" stroke-linejoin="round" stroke-miterlimit="10" stroke-width="9.82316" transform="matrix(.06 0 0 -.06 0 732.51)"/><path d="m350.382812 688.628906h7.300782v-.371094h-7.300782zm0 0"/><path d="m6808.463542 731.351562h121.679687v6.184896h-121.679687zm0 0" fill="none" stroke="#000" stroke-linejoin="round" stroke-miterlimit="10" stroke-width="9.82316" transform="matrix(.06 0 0 -.06 0 732.51)"/><path d="m408.507812 688.628906h7.300782v-.371094h-7.300782zm0 0"/><path d="m4302.473958 2096.130208.065104-88.997396 1107.096355 41.666667v89.0625zm0 0" fill="none" stroke="#000" stroke-linejoin="round" stroke-miterlimit="10" stroke-width="6.63512" transform="matrix(.06 0 0 -.06 0 732.51)"/><path d="m258.148438 606.742188.003906 5.339843 66.425781-2.5v-5.34375zm0 0"/><use x="519.342039" xlink:href="#al" y="630.819797"/><path d="m1821.614583 1239.229167h9.309896v651.497395h-9.309896zm0 0" fill="none" stroke="#000" stroke-linejoin="round" stroke-miterlimit="10" stroke-width="6.63512" transform="matrix(.06 0 0 -.06 0 732.51)"/><path d="m109.296875 658.15625h.558594v-39.089844h-.558594zm0 0"/><use x="75.973952" xlink:href="#W" y="696.693228"/><use x="97.233886" xlink:href="#V" y="696.693228"/><use x="113.732016" xlink:href="#P" y="696.693228"/><use x="94.446089" xlink:href="#ak" y="660.708156"/><use x="51.407503" xlink:href="#am" y="606.909849"/><use x="9.564219" xlink:href="#an" y="642.775421"/><path d="m4302.539062 1438.447917h9.309896v610.221354h-9.309896zm0 0" fill="none" stroke="#000" stroke-linejoin="round" stroke-miterlimit="10" stroke-width="6.63512" transform="matrix(.06 0 0 -.06 0 732.51)"/><path d="m258.148438 646.203125h.5625v-36.609375h-.5625zm0 0"/><use x="239.539479" xlink:href="#S" y="696.693228"/><use x="246.172297" xlink:href="#aj" y="696.693228"/><use x="243.298487" xlink:href="#ak" y="648.752832"/><path d="m3100 1538.122396h9.309896v651.497396h-9.309896zm0 0" fill="none" stroke="#000" stroke-linejoin="round" stroke-miterlimit="10" stroke-width="6.63512" transform="matrix(.06 0 0 -.06 0 732.51)"/><path d="m186 640.222656h.558594v-39.089844h-.558594zm0 0"/><use x="147.657295" xlink:href="#P" y="696.693228"/><use x="162.454092" xlink:href="#T" y="696.693228"/><use x="178.952222" xlink:href="#G" y="696.693228"/><use x="195.450351" xlink:href="#ai" y="696.693228"/><use x="171.145342" xlink:href="#ak" y="642.775321"/></svg>