<svg height="388.99em" viewBox="0 0 595.28 388.99" width="595.28em" xmlns="http://www.w3.org/2000/svg" xmlns:xlink="http://www.w3.org/1999/xlink"><clipPath id="a"><path d="m0 51h595.28125v2h-595.28125zm0 0"/></clipPath><clipPath id="b"><path d="m0 44h595.28125v1h-595.28125zm0 0"/></clipPath><clipPath id="c"><path d="m0 36h595.28125v2h-595.28125zm0 0"/></clipPath><clipPath id="d"><path d="m0 28h595.28125v2h-595.28125zm0 0"/></clipPath><clipPath id="e"><path d="m0 21h595.28125v1h-595.28125zm0 0"/></clipPath><clipPath id="f"><path d="m594 20h1.28125v33h-1.28125zm0 0"/></clipPath><clipPath id="g"><path d="m0 144h595.28125v2h-595.28125zm0 0"/></clipPath><clipPath id="h"><path d="m0 136h595.28125v2h-595.28125zm0 0"/></clipPath><clipPath id="i"><path d="m0 129h595.28125v1h-595.28125zm0 0"/></clipPath><clipPath id="j"><path d="m0 121h595.28125v2h-595.28125zm0 0"/></clipPath><clipPath id="k"><path d="m0 113h595.28125v2h-595.28125zm0 0"/></clipPath><clipPath id="l"><path d="m594 113h1.28125v33h-1.28125zm0 0"/></clipPath><clipPath id="m"><path d="m0 237h595.28125v1h-595.28125zm0 0"/></clipPath><clipPath id="n"><path d="m0 229h595.28125v2h-595.28125zm0 0"/></clipPath><clipPath id="o"><path d="m0 221h595.28125v2h-595.28125zm0 0"/></clipPath><clipPath id="p"><path d="m0 214h595.28125v1h-595.28125zm0 0"/></clipPath><clipPath id="q"><path d="m0 206h595.28125v1h-595.28125zm0 0"/></clipPath><clipPath id="r"><path d="m594 206h1.28125v33h-1.28125zm0 0"/></clipPath><clipPath id="s"><path d="m0 329h595.28125v2h-595.28125zm0 0"/></clipPath><clipPath id="t"><path d="m0 322h595.28125v1h-595.28125zm0 0"/></clipPath><clipPath id="u"><path d="m0 314h595.28125v2h-595.28125zm0 0"/></clipPath><clipPath id="v"><path d="m0 306h595.28125v2h-595.28125zm0 0"/></clipPath><clipPath id="w"><path d="m0 299h595.28125v1h-595.28125zm0 0"/></clipPath><clipPath id="x"><path d="m591 297h4.28125v35h-4.28125zm0 0"/></clipPath><symbol id="y" overflow="visible"><path d="m6.859375-4.171875c-1.296875 0-2.53125.4375-3.640625 1.109375-1.453125.875-3.21875 2.390625-3.21875 4.578125 0 1.828125 1.609375 2.65625 3.25 2.65625 1.296875 0 2.53125-.4375 3.640625-1.109375 1.453125-.875 3.1875-2.390625 3.1875-4.578125 0-1.828125-1.578125-2.65625-3.21875-2.65625zm0 0"/></symbol><symbol id="z" overflow="visible"><path d="m11.546875-8.03125c-.484375-2.15625-1.078125-4.296875-1.6875-6.421875 2.953125-3.375 5.640625-6.828125 5.640625-11.28125 0-3.484375-1.90625-8.5-4.078125-11.09375-.140625-.109375-.328125-.109375-.484375 0-2.9375 2.140625-4.640625 5.53125-4.640625 9.125 0 1.59375.03125 3.171875.21875 4.75.21875 2.015625.75 3.953125 1.296875 5.90625-3.640625 4.140625-7.75 8.09375-7.75 13.59375 0 6.203125 4.484375 11.484375 10.28125 11.484375.96875 0 1.859375-.09375 2.75-.25.09375.984375.15625 1.984375.15625 2.96875 0 .5625-.03125 1.078125-.0625 1.640625-.1875 3.0625-2.0625 5.859375-4.9375 5.921875-.03125 0-.0625.03125-.09375.03125-1.578125 0-2.9375-.890625-3.734375-2.15625.328125.15625.703125.28125 1.078125.28125 1.609375 0 2.9375-1.328125 2.9375-2.9375 0-1.734375-1.265625-3.21875-2.9375-3.21875-1.828125 0-3.46875 1.421875-3.46875 3.21875 0 3.328125 2.6875 6.015625 6.03125 6.015625 3.640625 0 6.140625-3.265625 6.359375-6.96875.03125-.59375.03125-1.15625.03125-1.734375 0-1.109375-.0625-2.21875-.15625-3.34375.8125-.234375 1.578125-.609375 2.265625-1.140625 2.28125-1.6875 3.296875-4.078125 3.296875-6.421875 0-4.078125-3.078125-8-7.84375-8-.15625 0-.3125.03125-.46875.03125zm2.625 14.359375c-.421875-3.828125-1.140625-7.46875-1.90625-11.078125 3.390625.265625 5.53125 3.109375 5.53125 5.953125 0 2.15625-1.484375 4.390625-3.625 5.125zm-11.984375-7.28125c0-4.953125 3.34375-8.6875 6.671875-12.421875.5 1.828125 1 3.640625 1.421875 5.5-3.109375.703125-4.875 3.328125-4.875 6.046875 0 2.171875 1.109375 4.359375 3.578125 5.6875.09375.03125.1875.0625.28125.0625.34375 0 .625-.3125.625-.640625 0-.15625-.09375-.3125-.21875-.4375-1.734375-.984375-2.53125-2.46875-2.53125-3.828125 0-1.828125 1.421875-3.46875 3.859375-3.734375.796875 3.703125 1.515625 7.375 1.96875 11.328125-.828125.125-1.65625.1875-2.53125.1875-4.203125 0-8.25-3.546875-8.25-7.75zm10.515625-31.484375c.515625 1.640625.640625 2.4375.640625 4.234375 0 3.921875-2.0625 7.046875-4.609375 10.046875-.546875-1.953125-1.015625-3.84375-1.015625-6.1875 0-3.421875 1.921875-6.546875 4.984375-8.09375zm0 0"/></symbol><symbol id="A" overflow="visible"><path d="m-1.953125-1.453125c0 1.078125.875 1.953125 1.953125 1.953125s1.953125-.875 1.953125-1.953125-.875-1.9375-1.953125-1.9375-1.953125.859375-1.953125 1.9375zm1.953125-9.671875c-4.78125 0-10.15625 5.34375-10.15625 11.1875 0 .25.234375.4375.484375.4375.21875 0 .46875-.15625.53125-.5.796875-4.609375 4.53125-8.1875 9.140625-8.1875s8.34375 3.578125 9.140625 8.1875c.0625.34375.3125.5.53125.5.25 0 .484375-.1875.484375-.4375 0-5.84375-5.34375-11.1875-10.15625-11.1875zm0 0"/></symbol><symbol id="B" overflow="visible"><path d="m8.75-2.796875c0-1.5-.84375-2.234375-2.828125-2.71875l-1.515625-.359375c-1.296875-.296875-1.859375-.71875-1.859375-1.421875 0-.921875.828125-1.515625 2.125-1.515625 1.28125 0 1.96875.5625 2 1.609375h1.671875c-.015625-1.96875-1.3125-3.078125-3.609375-3.078125-2.328125 0-3.84375 1.203125-3.84375 3.0625 0 1.5625.8125 2.296875 3.171875 2.875l1.484375.359375c1.109375.265625 1.546875.59375 1.546875 1.3125 0 .9375-.9375 1.484375-2.328125 1.484375-1.421875 0-2.234375-.34375-2.4375-1.859375h-1.6875c.078125 2.296875 1.375 3.328125 3.984375 3.328125 2.53125 0 4.125-1.15625 4.125-3.078125zm0 0"/></symbol><symbol id="C" overflow="visible"><path d="m8.71875 0v-1.390625h-6.203125l5.921875-7.1875v-1.40625h-7.453125v1.390625h5.578125l-5.96875 7.15625v1.4375zm0 0"/></symbol><symbol id="D" overflow="visible"><path d="m9.78125-4.53125c0-1.453125-.109375-2.375-.40625-3.109375-.640625-1.640625-2.171875-2.640625-4.03125-2.640625-2.796875 0-4.578125 2.0625-4.578125 5.34375s1.734375 5.21875 4.53125 5.21875c2.296875 0 3.875-1.296875 4.265625-3.3125h-1.59375c-.4375 1.3125-1.328125 1.84375-2.609375 1.84375-1.65625 0-2.90625-1.0625-2.9375-3.34375zm-1.703125-1.421875s0 .078125-.015625.125h-5.609375c.140625-1.78125 1.265625-2.984375 2.859375-2.984375 1.5625 0 2.765625 1.296875 2.765625 2.859375zm0 0"/></symbol><symbol id="E" overflow="visible"><path d="m9.28125 0v-7.546875c0-1.65625-1.234375-2.734375-3.15625-2.734375-1.5 0-2.453125.578125-3.328125 1.96875v-1.671875h-1.46875v9.984375h1.59375v-5.515625c0-2.03125 1.09375-3.375 2.71875-3.375 1.265625 0 2.0625.765625 2.0625 1.96875v6.921875zm0 0"/></symbol><symbol id="F" overflow="visible"><path d="m4.84375 0v-1.328125c-.21875.046875-.453125.0625-.765625.0625-.6875 0-.875-.1875-.875-.890625v-6.53125h1.640625v-1.296875h-1.640625v-2.75h-1.578125v2.75h-1.359375v1.296875h1.359375v7.234375c0 1.015625.6875 1.59375 1.921875 1.59375.375 0 .765625-.046875 1.296875-.140625zm0 0"/></symbol><symbol id="G" overflow="visible"><path d="m9.1875 0v-9.984375h-1.578125v5.5c0 2.046875-1.078125 3.375-2.734375 3.375-1.25 0-2.046875-.765625-2.046875-1.953125v-6.921875h-1.59375v7.546875c0 1.65625 1.25 2.71875 3.1875 2.71875 1.46875 0 2.40625-.515625 3.34375-1.828125v1.546875zm0 0"/></symbol><symbol id="H" overflow="visible"><path d="m6.125-8.59375v-1.625c-.265625-.03125-.40625-.0625-.609375-.0625-1.03125 0-1.8125.609375-2.734375 2.109375v-1.8125h-1.453125v9.984375h1.59375v-5.1875c0-2.25.734375-3.375 3.203125-3.40625zm0 0"/></symbol><symbol id="I" overflow="visible"><path d="m9.328125-1.640625v-8.34375h-1.46875v1.4375c-.8125-1.171875-1.78125-1.734375-3.0625-1.734375-2.53125 0-4.25 2.140625-4.25 5.375 0 3.15625 1.78125 5.1875 4.125 5.1875 1.25 0 2.140625-.53125 3.1875-1.78125v.65625c0 2.65625-1.09375 3.671875-2.9375 3.671875-1.265625 0-2.234375-.46875-2.421875-1.6875h-1.625c.171875 1.890625 1.640625 3.015625 3.984375 3.015625 3.125 0 4.46875-1.390625 4.46875-5.796875zm-1.625-3.296875c0 2.390625-1.03125 3.75-2.703125 3.75-1.734375 0-2.78125-1.390625-2.78125-3.8125 0-2.390625 1.0625-3.8125 2.75-3.8125 1.71875 0 2.734375 1.453125 2.734375 3.875zm0 0"/></symbol><symbol id="J" overflow="visible"><path d="m3.65625.3125v-2.296875h-2v1.984375h1.140625v.34375c0 1.3125-.25 1.703125-1.140625 1.734375v.71875c1.34375 0 2-.859375 2-2.484375zm0 0"/></symbol><symbol id="K" overflow="visible"><path d="m14.484375 0v-7.484375c0-1.796875-.984375-2.796875-2.859375-2.796875-1.328125 0-2.125.40625-3.0625 1.53125-.59375-1.0625-1.390625-1.53125-2.6875-1.53125-1.34375 0-2.21875.5-3.078125 1.703125v-1.40625h-1.4375v9.984375h1.578125v-6.265625c0-1.453125 1.046875-2.625 2.34375-2.625 1.1875 0 1.84375.734375 1.84375 2.015625v6.875h1.59375v-6.265625c0-1.453125 1.0625-2.625 2.359375-2.625 1.15625 0 1.828125.75 1.828125 2.015625v6.875zm0 0"/></symbol><symbol id="L" overflow="visible"><path d="m2.921875 0v-9.984375h-1.59375v9.984375zm.203125-11.5v-1.984375h-1.984375v1.984375zm0 0"/></symbol><symbol id="M" overflow="visible"><path d="m11.84375-3.8125c0-1.71875-1.078125-2.96875-2.953125-3.484375l-3.5-.9375c-1.671875-.4375-2.28125-.984375-2.28125-2.0625 0-1.40625 1.234375-2.453125 3.109375-2.453125 2.203125 0 3.46875 1 3.46875 2.8125h1.671875c0-2.71875-1.890625-4.296875-5.09375-4.296875-3.046875 0-4.9375 1.671875-4.9375 4.1875 0 1.703125.90625 2.765625 2.734375 3.234375l3.453125.921875c1.75.453125 2.546875 1.15625 2.546875 2.25 0 1.53125-1.140625 2.421875-3.546875 2.421875-2.625 0-3.921875-1.3125-3.921875-3.296875h-1.671875c0 3.28125 2.203125 4.859375 5.484375 4.859375 3.53125 0 5.4375-1.671875 5.4375-4.15625zm0 0"/></symbol><symbol id="N" overflow="visible"><path d="m2.921875 2.078125v-12.0625h-1.59375v11.4375c0 .953125-.3125 1.375-1.296875 1.3125l-.375-.015625v1.34375c.1875.046875.28125.0625.53125.0625 1.796875 0 2.734375-.71875 2.734375-2.078125zm.203125-13.578125v-1.984375h-1.984375v1.984375zm0 0"/></symbol><symbol id="O" overflow="visible"><path d="m10.203125-.03125v-1.203125c-.171875.03125-.25.03125-.34375.03125-.5625 0-.859375-.28125-.859375-.78125v-5.5625c0-1.78125-1.296875-2.734375-3.75-2.734375-2.421875 0-3.921875.9375-4.015625 3.25h1.609375c.125-1.21875.859375-1.78125 2.34375-1.78125 1.421875 0 2.234375.546875 2.234375 1.5v.40625c0 .671875-.40625.953125-1.671875 1.109375-2.25.28125-2.578125.359375-3.203125.609375-1.15625.484375-1.75 1.375-1.75 2.59375 0 1.8125 1.265625 2.875 3.28125 2.875 1.28125 0 2.515625-.53125 3.390625-1.46875.171875.765625.859375 1.328125 1.640625 1.328125.328125 0 .578125-.046875 1.09375-.171875zm-2.78125-3.421875c0 1.4375-1.453125 2.34375-3 2.34375-1.234375 0-1.96875-.4375-1.96875-1.515625 0-1.046875.71875-1.515625 2.40625-1.765625 1.671875-.21875 2.015625-.296875 2.5625-.546875zm1.234375-10.4375h-2.15625l-1.828125 2.8125h1.140625zm0 0"/></symbol><symbol id="P" overflow="visible"><path d="m2.875 0v-13.890625h-1.578125v13.890625zm0 0"/></symbol><symbol id="Q" overflow="visible"><path d="m9.5625 0-4.078125-6.53125 3.46875-3.453125h-2.03125l-4.234375 4.234375v-8.140625h-1.578125v13.890625h1.578125v-3.890625l1.546875-1.515625 3.375 5.40625zm0 0"/></symbol><symbol id="R" overflow="visible"><path d="m9.71875-4.921875c0-3.453125-1.65625-5.359375-4.53125-5.359375-2.796875 0-4.5 1.9375-4.5 5.28125 0 3.359375 1.671875 5.28125 4.515625 5.28125 2.796875 0 4.515625-1.921875 4.515625-5.203125zm-1.65625-.015625c0 2.34375-1.109375 3.75-2.859375 3.75-1.765625 0-2.859375-1.390625-2.859375-3.8125 0-2.390625 1.09375-3.8125 2.859375-3.8125 1.796875 0 2.859375 1.390625 2.859375 3.875zm.65625-8.953125h-2.15625l-1.828125 2.8125h1.140625zm0 0"/></symbol><symbol id="S" overflow="visible"><path d="m9.4375 0v-13.890625h-1.578125v5.15625c-.671875-1-1.734375-1.546875-3.078125-1.546875-2.59375 0-4.28125 2.015625-4.28125 5.1875 0 3.375 1.65625 5.375 4.34375 5.375 1.375 0 2.328125-.515625 3.1875-1.75v1.46875zm-1.578125-4.953125c0 2.296875-1.109375 3.75-2.78125 3.75-1.765625 0-2.921875-1.46875-2.921875-3.796875 0-2.3125 1.15625-3.78125 2.890625-3.78125 1.71875 0 2.8125 1.515625 2.8125 3.828125zm0 0"/></symbol><symbol id="T" overflow="visible"><path d="m12.546875 0-5.71875-8.234375 5.65625-5.65625h-2.28125l-6.921875 7.03125v-7.03125h-1.78125v13.890625h1.78125v-4.859375l2.265625-2.265625 4.90625 7.125zm0 0"/></symbol><symbol id="U" overflow="visible"><path d="m9.96875-5.109375c0-3.234375-1.640625-5.171875-4.265625-5.171875-1.375 0-2.34375.515625-3.09375 1.640625v-5.25h-1.578125v13.890625h1.421875v-1.4375c.765625 1.171875 1.78125 1.71875 3.171875 1.71875 2.625 0 4.34375-2.15625 4.34375-5.390625zm-1.65625.09375c0 2.265625-1.1875 3.8125-2.921875 3.8125-1.671875 0-2.78125-1.515625-2.78125-3.796875 0-2.34375 1.109375-3.859375 2.78125-3.78125 1.78125 0 2.921875 1.53125 2.921875 3.765625zm0 0"/></symbol><symbol id="V" overflow="visible"><path d="m9.109375-9.984375h-1.71875l-2.765625 7.765625-2.546875-7.765625h-1.703125l3.375 10.015625-.609375 1.59375c-.265625.703125-.59375.96875-1.265625.96875-.234375 0-.5-.046875-.84375-.109375v1.421875c.328125.171875.640625.25 1.0625.25 1.125 0 2.046875-.625 2.578125-2.0625zm0 0"/></symbol><symbol id="W" overflow="visible"><path d="m9.1875 0v-9.984375h-1.578125v5.5c0 2.046875-1.078125 3.375-2.734375 3.375-1.25 0-2.046875-.765625-2.046875-1.953125v-6.921875h-1.59375v7.546875c0 1.65625 1.25 2.71875 3.1875 2.71875 1.46875 0 2.40625-.515625 3.34375-1.828125v1.546875zm-2.234375-13.921875h-2.15625l-1.828125 2.859375h1.15625zm3.125 0h-2.140625l-1.84375 2.859375h1.15625zm0 0"/></symbol><symbol id="X" overflow="visible"><path d="m9.71875-4.921875c0-3.453125-1.65625-5.359375-4.53125-5.359375-2.796875 0-4.5 1.9375-4.5 5.28125 0 3.359375 1.671875 5.28125 4.515625 5.28125 2.796875 0 4.515625-1.921875 4.515625-5.203125zm-1.65625-.015625c0 2.34375-1.109375 3.75-2.859375 3.75-1.765625 0-2.859375-1.390625-2.859375-3.8125 0-2.390625 1.09375-3.8125 2.859375-3.8125 1.796875 0 2.859375 1.390625 2.859375 3.875zm-3.453125-6.578125v-1.9375h-1.734375v1.9375zm3.09375 0v-1.9375h-1.734375v1.9375zm0 0"/></symbol><symbol id="Y" overflow="visible"><path d="m9.78125-4.53125c0-1.453125-.109375-2.375-.40625-3.109375-.640625-1.640625-2.171875-2.640625-4.03125-2.640625-2.796875 0-4.578125 2.0625-4.578125 5.34375s1.734375 5.21875 4.53125 5.21875c2.296875 0 3.875-1.296875 4.265625-3.3125h-1.59375c-.4375 1.3125-1.328125 1.84375-2.609375 1.84375-1.65625 0-2.90625-1.0625-2.9375-3.34375zm-1.703125-1.421875s0 .078125-.015625.125h-5.609375c.140625-1.78125 1.265625-2.984375 2.859375-2.984375 1.5625 0 2.765625 1.296875 2.765625 2.859375zm.671875-7.9375h-2.15625l-1.828125 2.8125h1.140625zm0 0"/></symbol><symbol id="Z" overflow="visible"><path d="m14.5 0v-13.890625h-2.453125l-4.046875 12.09375-4.109375-12.09375h-2.453125v13.890625h1.671875v-11.640625l3.9375 11.640625h1.875l3.90625-11.640625v11.640625zm0 0"/></symbol><symbol id="aa" overflow="visible"><path d="m9.265625 0v-7.546875c0-1.671875-1.203125-2.734375-3.140625-2.734375-1.421875 0-2.28125.4375-3.203125 1.671875v-5.28125h-1.59375v13.890625h1.59375v-5.515625c0-2.03125 1.0625-3.375 2.703125-3.375 1.125 0 2.0625.65625 2.0625 1.96875v6.921875zm0 0"/></symbol><symbol id="ab" overflow="visible"><path d="m10.203125-.03125v-1.203125c-.171875.03125-.25.03125-.34375.03125-.5625 0-.859375-.28125-.859375-.78125v-5.5625c0-1.78125-1.296875-2.734375-3.75-2.734375-2.421875 0-3.921875.9375-4.015625 3.25h1.609375c.125-1.21875.859375-1.78125 2.34375-1.78125 1.421875 0 2.234375.546875 2.234375 1.5v.40625c0 .671875-.40625.953125-1.671875 1.109375-2.25.28125-2.578125.359375-3.203125.609375-1.15625.484375-1.75 1.375-1.75 2.59375 0 1.8125 1.265625 2.875 3.28125 2.875 1.28125 0 2.515625-.53125 3.390625-1.46875.171875.765625.859375 1.328125 1.640625 1.328125.328125 0 .578125-.046875 1.09375-.171875zm-2.78125-3.421875c0 1.4375-1.453125 2.34375-3 2.34375-1.234375 0-1.96875-.4375-1.96875-1.515625 0-1.046875.71875-1.515625 2.40625-1.765625 1.671875-.21875 2.015625-.296875 2.5625-.546875zm0 0"/></symbol><symbol id="ac" overflow="visible"><path d="m9.1875 0v-9.984375h-1.578125v5.5c0 2.046875-1.078125 3.375-2.734375 3.375-1.25 0-2.046875-.765625-2.046875-1.953125v-6.921875h-1.59375v7.546875c0 1.65625 1.25 2.71875 3.1875 2.71875 1.46875 0 2.40625-.515625 3.34375-1.828125v1.546875zm-4.578125-11.515625v-1.9375h-1.734375v1.9375zm3.09375 0v-1.9375h-1.734375v1.9375zm0 0"/></symbol><symbol id="ad" overflow="visible"><path d="m12.3125 0v-13.890625h-1.671875v11.359375l-7.265625-11.359375h-1.921875v13.890625h1.671875v-11.265625l7.1875 11.265625zm0 0"/></symbol><symbol id="ae" overflow="visible"><path d="m9.71875-4.921875c0-3.453125-1.65625-5.359375-4.53125-5.359375-2.796875 0-4.5 1.9375-4.5 5.28125 0 3.359375 1.671875 5.28125 4.515625 5.28125 2.796875 0 4.515625-1.921875 4.515625-5.203125zm-1.65625-.015625c0 2.34375-1.109375 3.75-2.859375 3.75-1.765625 0-2.859375-1.390625-2.859375-3.8125 0-2.390625 1.09375-3.8125 2.859375-3.8125 1.796875 0 2.859375 1.390625 2.859375 3.875zm0 0"/></symbol><symbol id="af" overflow="visible"><path d="m9.265625-9.984375h-1.796875l-2.8125 8.09375-2.671875-8.09375h-1.796875l3.515625 9.984375h1.734375zm0 0"/></symbol><symbol id="ag" overflow="visible"><path d="m9.71875-4.921875c0-3.453125-1.65625-5.359375-4.53125-5.359375-2.796875 0-4.5 1.9375-4.5 5.28125 0 3.359375 1.671875 5.28125 4.515625 5.28125 2.796875 0 4.515625-1.921875 4.515625-5.203125zm-1.65625-.015625c0 2.34375-1.109375 3.75-2.859375 3.75-1.765625 0-2.859375-1.390625-2.859375-3.8125 0-2.390625 1.09375-3.8125 2.859375-3.8125 1.796875 0 2.859375 1.390625 2.859375 3.875zm-1.109375-8.984375h-2.15625l-1.828125 2.859375h1.15625zm3.125 0h-2.140625l-1.84375 2.859375h1.15625zm0 0"/></symbol><symbol id="ah" overflow="visible"><path d="m11.03125-12.328125v-1.5625h-9.3125v13.890625h1.765625v-6.328125h6.640625v-1.5625h-6.640625v-4.4375zm0 0"/></symbol><symbol id="ai" overflow="visible"><path d="m3.640625 0v-1.984375h-1.984375v1.984375zm0 0"/></symbol><symbol id="aj" overflow="visible"><path d="m12.71875-6.953125c0-4.3125-2.140625-6.9375-5.671875-6.9375h-5.34375v13.890625h5.34375c3.515625 0 5.671875-2.625 5.671875-6.953125zm-1.78125.015625c0 3.5-1.4375 5.375-4.1875 5.375h-3.28125v-10.765625h3.28125c2.75 0 4.1875 1.84375 4.1875 5.390625zm0 0"/></symbol><symbol id="ak" overflow="visible"><path d="m6.421875 0v-12.046875h-1.578125c-.375 1.4375-1.609375 2.15625-3.6875 2.15625v1.578125h2.890625v8.3125zm0 0"/></symbol><symbol id="al" overflow="visible"><path d="m3.640625 0v-2.484375h-2.546875v2.484375zm0 0"/></symbol><g clip-path="url(#a)"><path d="m4.947917 5612.072917h9911.393229" fill="none" stroke="#000" stroke-linecap="round" stroke-miterlimit="10" stroke-width="9.87007" transform="matrix(.06 0 0 -.06 0 388.99)"/></g><g clip-path="url(#b)"><path d="m4.947917 5740.71875h9911.393229" fill="none" stroke="#000" stroke-linecap="round" stroke-miterlimit="10" stroke-width="9.87007" transform="matrix(.06 0 0 -.06 0 388.99)"/></g><g clip-path="url(#c)"><path d="m4.947917 5869.429687h9911.393229" fill="none" stroke="#000" stroke-linecap="round" stroke-miterlimit="10" stroke-width="9.87007" transform="matrix(.06 0 0 -.06 0 388.99)"/></g><g clip-path="url(#d)"><path d="m4.947917 5998.140625h9911.393229" fill="none" stroke="#000" stroke-linecap="round" stroke-miterlimit="10" stroke-width="9.87007" transform="matrix(.06 0 0 -.06 0 388.99)"/></g><g clip-path="url(#e)"><path d="m4.947917 6126.786458h9911.393229" fill="none" stroke="#000" stroke-linecap="round" stroke-miterlimit="10" stroke-width="9.87007" transform="matrix(.06 0 0 -.06 0 388.99)"/></g><g clip-path="url(#f)"><path d="m9911.914062 5612.072917v514.713541" fill="none" stroke="#000" stroke-miterlimit="10" stroke-width="18.7493" transform="matrix(.06 0 0 -.06 0 388.99)"/></g><path d="m5217.838542 5612.072917v514.713541" fill="none" stroke="#000" stroke-miterlimit="10" stroke-width="18.7493" transform="matrix(.06 0 0 -.06 0 388.99)"/><use x="412.764826" xlink:href="#y" y="40.683303"/><use x="395.10039" xlink:href="#B" y="79.999082"/><use x="404.625174" xlink:href="#C" y="79.999082"/><use x="414.149957" xlink:href="#D" y="79.999082"/><use x="424.6945" xlink:href="#E" y="79.999082"/><use x="435.239042" xlink:href="#F" y="79.999082"/><path d="m7037.955729 5833.6875h6.184896v349.153646h-6.184896zm0 0" fill="none" stroke="#000" stroke-linejoin="round" stroke-miterlimit="10" stroke-width="6.6401" transform="matrix(.06 0 0 -.06 0 388.99)"/><path d="m422.277344 38.96875h.371094v-20.949219h-.371094zm0 0"/><use x="457.858916" xlink:href="#y" y="44.544311"/><use x="452.865546" xlink:href="#B" y="79.999482"/><use x="462.390329" xlink:href="#D" y="79.999482"/><path d="m7789.518229 5769.364583h6.184896v380.338542h-6.184896zm0 0" fill="none" stroke="#000" stroke-linejoin="round" stroke-miterlimit="10" stroke-width="6.6401" transform="matrix(.06 0 0 -.06 0 388.99)"/><path d="m467.371094 42.828125h.371094v-22.820313h-.371094zm0 0"/><path d="m1220.768229 5237.398437h77.083333v4.947917h-77.083333zm0 0" fill="none" stroke="#000" stroke-linejoin="round" stroke-miterlimit="10" stroke-width="7.88833" transform="matrix(.06 0 0 -.06 0 388.99)"/><path d="m73.246094 74.746094h4.625v-.296875h-4.625zm0 0"/><use x="365.03473" xlink:href="#y" y="36.823296"/><use x="357.404635" xlink:href="#F" y="79.999482"/><use x="362.677375" xlink:href="#G" y="79.999482"/><use x="373.222152" xlink:href="#B" y="79.999482"/><path d="m6242.447917 5898.075521h6.184895v319.856771h-6.184895zm0 0" fill="none" stroke="#000" stroke-linejoin="round" stroke-miterlimit="10" stroke-width="6.6401" transform="matrix(.06 0 0 -.06 0 388.99)"/><path d="m374.546875 35.105469h.371094v-19.191407h-.371094zm0 0"/><path d="m5472.460937 6283.036458v-55.143229l2323.242188-102.669271v55.078125zm0 0" fill="none" stroke="#000" stroke-linejoin="round" stroke-miterlimit="10" stroke-width="6.6401" transform="matrix(.06 0 0 -.06 0 388.99)"/><path d="m328.347656 12.007812v3.308594l139.394532 6.160156v-3.304687zm0 0"/><path d="m8727.669271 5237.398437h77.083333v4.947917h-77.083333zm0 0" fill="none" stroke="#000" stroke-linejoin="round" stroke-miterlimit="10" stroke-width="7.88833" transform="matrix(.06 0 0 -.06 0 388.99)"/><path d="m523.660156 74.746094h4.625v-.296875h-4.625zm0 0"/><path d="m8043.294271 5237.398437h77.083333v4.947917h-77.083333zm0 0" fill="none" stroke="#000" stroke-linejoin="round" stroke-miterlimit="10" stroke-width="7.88833" transform="matrix(.06 0 0 -.06 0 388.99)"/><path d="m482.597656 74.746094h4.625v-.296875h-4.625zm0 0"/><path d="m5815.299479 5237.398437h77.018229v4.947917h-77.018229zm0 0" fill="none" stroke="#000" stroke-linejoin="round" stroke-miterlimit="10" stroke-width="7.88833" transform="matrix(.06 0 0 -.06 0 388.99)"/><path d="m348.917969 74.746094h4.621093v-.296875h-4.621093zm0 0"/><path d="m904.882812 5970.536458h2159.960938v55.143229h-2159.960938zm0 0" fill="none" stroke="#000" stroke-linejoin="round" stroke-miterlimit="10" stroke-width="6.6401" transform="matrix(.06 0 0 -.06 0 388.99)"/><path d="m54.292969 30.757812h129.597656v-3.308593h-129.597656zm0 0"/><path d="m4095.638021 5237.398437h77.018229v4.947917h-77.018229zm0 0" fill="none" stroke="#000" stroke-linejoin="round" stroke-miterlimit="10" stroke-width="7.88833" transform="matrix(.06 0 0 -.06 0 388.99)"/><path d="m245.738281 74.746094h4.621094v-.296875h-4.621094zm0 0"/><path d="m3318.619792 5237.398437h77.083333v4.947917h-77.083333zm0 0" fill="none" stroke="#000" stroke-linejoin="round" stroke-miterlimit="10" stroke-width="7.88833" transform="matrix(.06 0 0 -.06 0 388.99)"/><path d="m199.117188 74.746094h4.625v-.296875h-4.625zm0 0"/><path d="m9267.382812 5833.6875h6.184896v418.489583h-6.184896zm0 0" fill="none" stroke="#000" stroke-linejoin="round" stroke-miterlimit="10" stroke-width="6.6401" transform="matrix(.06 0 0 -.06 0 388.99)"/><path d="m556.042969 38.96875h.371093v-25.109375h-.371093zm0 0"/><use x="500.18" xlink:href="#y" y="40.683303"/><use x="496.887964" xlink:href="#H" y="79.999082"/><use x="503.010545" xlink:href="#D" y="79.999082"/><path d="m8494.856771 5833.6875h6.184896v418.489583h-6.184896zm0 0" fill="none" stroke="#000" stroke-linejoin="round" stroke-miterlimit="10" stroke-width="6.6401" transform="matrix(.06 0 0 -.06 0 388.99)"/><path d="m509.691406 38.96875h.371094v-25.109375h-.371094zm0 0"/><use x="546.531093" xlink:href="#y" y="40.683303"/><use x="538.390767" xlink:href="#I" y="79.999082"/><use x="548.935309" xlink:href="#D" y="79.999082"/><use x="559.480086" xlink:href="#J" y="79.999082"/><use x="89.365869" xlink:href="#y" y="48.404319"/><use x="81.735773" xlink:href="#K" y="79.999082"/><use x="97.553295" xlink:href="#L" y="79.999082"/><use x="101.805097" xlink:href="#F" y="79.999082"/><path d="m1647.981771 5705.041667h6.184896v289.778645h-6.184896zm0 0" fill="none" stroke="#000" stroke-linejoin="round" stroke-miterlimit="10" stroke-width="6.6401" transform="matrix(.06 0 0 -.06 0 388.99)"/><path d="m98.878906 46.6875h.371094v-17.386719h-.371094zm0 0"/><use x="131.686263" xlink:href="#y" y="52.265327"/><use x="126.182662" xlink:href="#E" y="79.999482"/><use x="136.727205" xlink:href="#D" y="79.999482"/><use x="44.7817" xlink:href="#y" y="56.126034"/><use x="6.176522" xlink:href="#z" y="44.544411"/><use x="30.263771" xlink:href="#M" y="79.999582"/><use x="43.019887" xlink:href="#D" y="79.999582"/><use x="53.564429" xlink:href="#K" y="79.999582"/><use x="8.255727" xlink:href="#ak" y="79.999582"/><use x="17.780497" xlink:href="#al" y="79.999582"/><path d="m904.882812 5576.330729h6.184896v418.489583h-6.184896zm0 0" fill="none" stroke="#000" stroke-linejoin="round" stroke-miterlimit="10" stroke-width="6.6401" transform="matrix(.06 0 0 -.06 0 388.99)"/><path d="m54.292969 54.410156h.371093v-25.109375h-.371093zm0 0"/><use x="257.490515" xlink:href="#N" y="79.999382"/><use x="261.742324" xlink:href="#O" y="79.999382"/><use x="272.287101" xlink:href="#P" y="79.999382"/><use x="276.53914" xlink:href="#J" y="79.999382"/><path d="m2353.320312 5640.71875h6.184896v354.101562h-6.184896zm0 0" fill="none" stroke="#000" stroke-linejoin="round" stroke-miterlimit="10" stroke-width="6.6401" transform="matrix(.06 0 0 -.06 0 388.99)"/><path d="m141.199219 50.546875h.371093v-21.246094h-.371093zm0 0"/><use x="207.993416" xlink:href="#Q" y="79.999382"/><use x="217.518199" xlink:href="#R" y="79.999382"/><use x="228.062742" xlink:href="#S" y="79.999382"/><path d="m3796.158854 5833.6875h6.184896v418.489583h-6.184896zm0 0" fill="none" stroke="#000" stroke-linejoin="round" stroke-miterlimit="10" stroke-width="6.6401" transform="matrix(.06 0 0 -.06 0 388.99)"/><path d="m227.769531 38.96875h.371094v-25.109375h-.371094zm0 0"/><use x="264.610529" xlink:href="#y" y="44.544311"/><use x="218.259237" xlink:href="#y" y="40.683673"/><path d="m4568.684896 5769.364583h6.184896v418.424479h-6.184896zm0 0" fill="none" stroke="#000" stroke-linejoin="round" stroke-miterlimit="10" stroke-width="6.6401" transform="matrix(.06 0 0 -.06 0 388.99)"/><path d="m274.121094 42.828125h.371094v-25.105469h-.371094zm0 0"/><use x="318.835638" xlink:href="#y" y="32.962288"/><use x="302.701705" xlink:href="#T" y="79.999082"/><use x="315.457568" xlink:href="#H" y="79.999082"/><use x="321.750306" xlink:href="#L" y="79.999082"/><use x="326.002115" xlink:href="#B" y="79.999082"/><use x="335.526898" xlink:href="#C" y="79.999082"/><path d="m5472.460937 5962.398437h6.184896v289.453125h-6.184896zm0 0" fill="none" stroke="#000" stroke-linejoin="round" stroke-miterlimit="10" stroke-width="6.6401" transform="matrix(.06 0 0 -.06 0 388.99)"/><path d="m328.347656 31.246094h.371094v-17.367188h-.371094zm0 0"/><use x="174.008348" xlink:href="#y" y="56.126334"/><use x="163.232026" xlink:href="#U" y="79.999782"/><use x="173.776569" xlink:href="#O" y="79.999782"/><use x="184.321346" xlink:href="#E" y="79.999782"/><path d="m3058.658854 5576.330729h6.184896v418.489583h-6.184896zm0 0" fill="none" stroke="#000" stroke-linejoin="round" stroke-miterlimit="10" stroke-width="6.6401" transform="matrix(.06 0 0 -.06 0 388.99)"/><path d="m183.519531 54.410156h.371094v-25.109375h-.371094zm0 0"/><g clip-path="url(#g)"><path d="m4.947917 4067.867187h9911.393229" style="fill:none;stroke-width:9.87007;stroke-linecap:round;stroke-linejoin:round;stroke:#000;stroke-miterlimit:10" transform="matrix(.06 0 0 -.06 0 388.99)"/></g><g clip-path="url(#h)"><path d="m4.947917 4196.513021h9911.393229" style="fill:none;stroke-width:9.87007;stroke-linecap:round;stroke-linejoin:round;stroke:#000;stroke-miterlimit:10" transform="matrix(.06 0 0 -.06 0 388.99)"/></g><g clip-path="url(#i)"><path d="m4.947917 4325.223958h9911.393229" style="fill:none;stroke-width:9.87007;stroke-linecap:round;stroke-linejoin:round;stroke:#000;stroke-miterlimit:10" transform="matrix(.06 0 0 -.06 0 388.99)"/></g><g clip-path="url(#j)"><path d="m4.947917 4453.934896h9911.393229" style="fill:none;stroke-width:9.87007;stroke-linecap:round;stroke-linejoin:round;stroke:#000;stroke-miterlimit:10" transform="matrix(.06 0 0 -.06 0 388.99)"/></g><g clip-path="url(#k)"><path d="m4.947917 4582.580729h9911.393229" style="fill:none;stroke-width:9.87007;stroke-linecap:round;stroke-linejoin:round;stroke:#000;stroke-miterlimit:10" transform="matrix(.06 0 0 -.06 0 388.99)"/></g><g clip-path="url(#l)"><path d="m9911.914062 4067.867187v514.713542" fill="none" stroke="#000" stroke-linejoin="round" stroke-miterlimit="10" stroke-width="18.7493" transform="matrix(.06 0 0 -.06 0 388.99)"/></g><path d="m5335.221354 4067.867187v514.713542" fill="none" stroke="#000" stroke-linejoin="round" stroke-miterlimit="10" stroke-width="18.7493" transform="matrix(.06 0 0 -.06 0 388.99)"/><use x="411.971824" xlink:href="#y" y="144.918512"/><use x="401.705203" xlink:href="#I" y="171.942266"/><use x="412.249746" xlink:href="#V" y="171.942266"/><use x="421.774529" xlink:href="#W" y="171.942266"/><path d="m7024.739583 4096.513021h6.184896v388.411458h-6.184896zm0 0" fill="none" stroke="#000" stroke-linejoin="round" stroke-miterlimit="10" stroke-width="6.6401" transform="matrix(.06 0 0 -.06 0 388.99)"/><path d="m421.484375 143.199219h.371094v-23.304688h-.371094zm0 0"/><use x="455.00191" xlink:href="#y" y="148.77852"/><use x="450.518311" xlink:href="#P" y="171.941866"/><use x="454.77012" xlink:href="#X" y="171.941866"/><use x="465.314897" xlink:href="#P" y="171.941866"/><path d="m7741.861979 4032.125h6.184896v418.75h-6.184896zm0 0" fill="none" stroke="#000" stroke-linejoin="round" stroke-miterlimit="10" stroke-width="6.6401" transform="matrix(.06 0 0 -.06 0 388.99)"/><path d="m464.511719 147.0625h.371093v-25.125h-.371093zm0 0"/><path d="m5590.364583 4225.158854h6.184896v327.864583h-6.184896zm0 0" fill="none" stroke="#000" stroke-linejoin="round" stroke-miterlimit="10" stroke-width="6.6401" transform="matrix(.06 0 0 -.06 0 388.99)"/><path d="m335.421875 135.480469h.371094v-19.671875h-.371094zm0 0"/><use x="368.940738" xlink:href="#y" y="141.057504"/><use x="367.093854" xlink:href="#Q" y="171.941866"/><use x="376.618403" xlink:href="#L" y="171.941866"/><path d="m6307.552083 4160.835937h6.184896v358.138021h-6.184896zm0 0" fill="none" stroke="#000" stroke-linejoin="round" stroke-miterlimit="10" stroke-width="6.6401" transform="matrix(.06 0 0 -.06 0 388.99)"/><path d="m378.453125 139.339844h.371094v-21.488282h-.371094zm0 0"/><path d="m7318.489583 3705.041667h77.018229v4.947916h-77.018229zm0 0" fill="none" stroke="#000" stroke-linejoin="round" stroke-miterlimit="10" stroke-width="7.88833" transform="matrix(.06 0 0 -.06 0 388.99)"/><path d="m439.109375 166.6875h4.621094v-.296875h-4.621094zm0 0"/><path d="m5590.364583 4584.208333v-55.143229l2157.682292-102.734375v55.143229zm0 0" fill="none" stroke="#000" stroke-linejoin="round" stroke-miterlimit="10" stroke-width="6.6401" transform="matrix(.06 0 0 -.06 0 388.99)"/><path d="m335.421875 113.9375v3.308594l129.460937 6.164062v-3.308594zm0 0"/><path d="m8712.695312 3705.041667h77.083334v4.947916h-77.083334zm0 0" fill="none" stroke="#000" stroke-linejoin="round" stroke-miterlimit="10" stroke-width="7.88833" transform="matrix(.06 0 0 -.06 0 388.99)"/><path d="m522.761719 166.6875h4.625v-.296875h-4.625zm0 0"/><path d="m7983.203125 3705.041667h77.018229v4.947916h-77.018229zm0 0" fill="none" stroke="#000" stroke-linejoin="round" stroke-miterlimit="10" stroke-width="7.88833" transform="matrix(.06 0 0 -.06 0 388.99)"/><path d="m478.992188 166.6875h4.621093v-.296875h-4.621093zm0 0"/><path d="m5906.119792 3705.041667h77.018229v4.947916h-77.018229zm0 0" fill="none" stroke="#000" stroke-linejoin="round" stroke-miterlimit="10" stroke-width="7.88833" transform="matrix(.06 0 0 -.06 0 388.99)"/><path d="m354.363281 166.6875h4.625v-.296875h-4.625zm0 0"/><path d="m904.882812 4657.776042h2275.716146v55.143229h-2275.716146zm0 0" fill="none" stroke="#000" stroke-linejoin="round" stroke-miterlimit="10" stroke-width="6.6401" transform="matrix(.06 0 0 -.06 0 388.99)"/><path d="m54.292969 109.523438h136.542969v-3.308594h-136.542969zm0 0"/><path d="m4133.203125 3705.041667h77.018229v4.947916h-77.018229zm0 0" fill="none" stroke="#000" stroke-linejoin="round" stroke-miterlimit="10" stroke-width="7.88833" transform="matrix(.06 0 0 -.06 0 388.99)"/><path d="m247.992188 166.6875h4.621093v-.296875h-4.621093zm0 0"/><path d="m2687.955729 3705.041667h77.018229v4.947916h-77.018229zm0 0" fill="none" stroke="#000" stroke-linejoin="round" stroke-miterlimit="10" stroke-width="7.88833" transform="matrix(.06 0 0 -.06 0 388.99)"/><path d="m161.277344 166.6875h4.621094v-.296875h-4.621094zm0 0"/><path d="m9244.856771 4096.513021h6.184896v418.424479h-6.184896zm0 0" fill="none" stroke="#000" stroke-linejoin="round" stroke-miterlimit="10" stroke-width="6.6401" transform="matrix(.06 0 0 -.06 0 388.99)"/><path d="m554.691406 143.199219h.371094v-25.105469h-.371094zm0 0"/><use x="498.031996" xlink:href="#y" y="144.918512"/><use x="493.037926" xlink:href="#B" y="171.942266"/><use x="502.56268" xlink:href="#Y" y="171.942266"/><path d="m8459.049479 4096.513021h6.184896v418.424479h-6.184896zm0 0" fill="none" stroke="#000" stroke-linejoin="round" stroke-miterlimit="10" stroke-width="6.6401" transform="matrix(.06 0 0 -.06 0 388.99)"/><path d="m507.542969 143.199219h.371093v-25.105469h-.371093zm0 0"/><use x="545.18109" xlink:href="#y" y="144.918512"/><use x="537.041694" xlink:href="#I" y="171.942266"/><use x="547.586237" xlink:href="#D" y="171.942266"/><use x="558.130779" xlink:href="#J" y="171.942266"/><use x="44.78171" xlink:href="#y" y="133.336889"/><use x="30.518581" xlink:href="#Z" y="171.942266"/><use x="46.336099" xlink:href="#D" y="171.942266"/><use x="56.880642" xlink:href="#H" y="171.942266"/><use x="63.853537" xlink:href="#F" y="171.942266"/><path d="m904.882812 4289.546875h6.184896v392.447917h-6.184896zm0 0" fill="none" stroke="#000" stroke-linejoin="round" stroke-miterlimit="10" stroke-width="6.6401" transform="matrix(.06 0 0 -.06 0 388.99)"/><path d="m54.292969 131.621094h.371093v-23.550782h-.371093zm0 0"/><use x="94.89349" xlink:href="#y" y="125.615473"/><use x="81.481163" xlink:href="#E" y="171.941866"/><use x="92.02594" xlink:href="#D" y="171.941866"/><use x="102.570482" xlink:href="#K" y="171.941866"/><path d="m1740.104167 4418.192708h6.184895v263.802084h-6.184895zm0 0" fill="none" stroke="#000" stroke-linejoin="round" stroke-miterlimit="10" stroke-width="6.6401" transform="matrix(.06 0 0 -.06 0 388.99)"/><path d="m104.40625 123.898438h.371094v-15.828126h-.371094zm0 0"/><use x="137.923276" xlink:href="#y" y="129.475481"/><use x="315.644631" xlink:href="#B" y="171.941466"/><use x="325.169415" xlink:href="#D" y="171.941466"/><use x="335.713957" xlink:href="#E" y="171.941466"/><use x="6.177012" xlink:href="#z" y="137.196496"/><use x="131.569263" xlink:href="#O" y="171.941466"/><use x="142.113806" xlink:href="#H" y="171.941466"/><use x="149.086701" xlink:href="#F" y="171.941466"/><use x="223.984248" xlink:href="#y" y="137.196496"/><use x="218.480647" xlink:href="#E" y="171.941466"/><use x="229.025189" xlink:href="#Y" y="171.941466"/><path d="m3891.601562 4225.158854h6.184896v418.424479h-6.184896zm0 0" fill="none" stroke="#000" stroke-linejoin="round" stroke-miterlimit="10" stroke-width="6.6401" transform="matrix(.06 0 0 -.06 0 388.99)"/><path d="m233.496094 135.480469h.371094v-25.105469h-.371094zm0 0"/><use x="271.133542" xlink:href="#y" y="133.336489"/><use x="261.037622" xlink:href="#Q" y="171.941866"/><use x="270.221858" xlink:href="#D" y="171.941866"/><use x="280.7664" xlink:href="#S" y="171.941866"/><path d="m4677.408854 4289.546875h6.184896v418.424479h-6.184896zm0 0" fill="none" stroke="#000" stroke-linejoin="round" stroke-miterlimit="10" stroke-width="6.6401" transform="matrix(.06 0 0 -.06 0 388.99)"/><path d="m280.644531 131.621094h.371094v-25.109375h-.371094zm0 0"/><use x="325.910652" xlink:href="#y" y="137.196496"/><path d="m2457.291667 4353.869792h6.184895v328.125h-6.184895zm0 0" fill="none" stroke="#000" stroke-linejoin="round" stroke-miterlimit="10" stroke-width="6.6401" transform="matrix(.06 0 0 -.06 0 388.99)"/><path d="m147.4375 127.757812h.371094v-19.6875h-.371094zm0 0"/><path d="m3174.414062 4289.546875h6.184896v392.447917h-6.184896zm0 0" fill="none" stroke="#000" stroke-linejoin="round" stroke-miterlimit="10" stroke-width="6.6401" transform="matrix(.06 0 0 -.06 0 388.99)"/><path d="m190.464844 131.621094h.371094v-23.550782h-.371094zm0 0"/><use x="172.814346" xlink:href="#aa" y="171.941566"/><use x="183.358888" xlink:href="#ab" y="171.941566"/><use x="193.903665" xlink:href="#F" y="171.941566"/><use x="180.953742" xlink:href="#y" y="133.336189"/><g clip-path="url(#m)"><path d="m4.947917 2523.661458h9911.393229" style="fill:none;stroke-width:9.87007;stroke-linecap:round;stroke-linejoin:round;stroke:#000;stroke-miterlimit:10" transform="matrix(.06 0 0 -.06 0 388.99)"/></g><g clip-path="url(#n)"><path d="m4.947917 2652.307292h9911.393229" style="fill:none;stroke-width:9.87007;stroke-linecap:round;stroke-linejoin:round;stroke:#000;stroke-miterlimit:10" transform="matrix(.06 0 0 -.06 0 388.99)"/></g><g clip-path="url(#o)"><path d="m4.947917 2781.018229h9911.393229" style="fill:none;stroke-width:9.87007;stroke-linecap:round;stroke-linejoin:round;stroke:#000;stroke-miterlimit:10" transform="matrix(.06 0 0 -.06 0 388.99)"/></g><g clip-path="url(#p)"><path d="m4.947917 2909.729167h9911.393229" style="fill:none;stroke-width:9.87007;stroke-linecap:round;stroke-linejoin:round;stroke:#000;stroke-miterlimit:10" transform="matrix(.06 0 0 -.06 0 388.99)"/></g><g clip-path="url(#q)"><path d="m4.947917 3038.375h9911.393229" style="fill:none;stroke-width:9.87007;stroke-linecap:round;stroke-linejoin:round;stroke:#000;stroke-miterlimit:10" transform="matrix(.06 0 0 -.06 0 388.99)"/></g><g clip-path="url(#r)"><path d="m9911.914062 2523.661458v514.713542" fill="none" stroke="#000" stroke-linejoin="round" stroke-miterlimit="10" stroke-width="18.7493" transform="matrix(.06 0 0 -.06 0 388.99)"/></g><path d="m5262.630208 2523.661458v514.713542" fill="none" stroke="#000" stroke-linejoin="round" stroke-miterlimit="10" stroke-width="18.7493" transform="matrix(.06 0 0 -.06 0 388.99)"/><use x="409.208818" xlink:href="#y" y="225.988674"/><use x="403.704507" xlink:href="#S" y="265.625553"/><use x="414.249284" xlink:href="#ac" y="265.625553"/><path d="m6978.645833 2745.276042h6.184896v350.065104h-6.184896zm0 0" fill="none" stroke="#000" stroke-linejoin="round" stroke-miterlimit="10" stroke-width="6.6401" transform="matrix(.06 0 0 -.06 0 388.99)"/><path d="m418.71875 224.273438h.371094v-21.003907h-.371094zm0 0"/><use x="453.019906" xlink:href="#y" y="229.849682"/><use x="442.753986" xlink:href="#aa" y="265.625953"/><use x="453.298528" xlink:href="#X" y="265.625953"/><use x="463.843305" xlink:href="#B" y="265.625953"/><path d="m7708.854167 2680.953125h6.184895v380.338542h-6.184895zm0 0" fill="none" stroke="#000" stroke-linejoin="round" stroke-miterlimit="10" stroke-width="6.6401" transform="matrix(.06 0 0 -.06 0 388.99)"/><path d="m462.53125 228.132812h.371094v-22.820312h-.371094zm0 0"/><path d="m5518.359375 2873.986979h6.184896v289.453125h-6.184896zm0 0" fill="none" stroke="#000" stroke-linejoin="round" stroke-miterlimit="10" stroke-width="6.6401" transform="matrix(.06 0 0 -.06 0 388.99)"/><path d="m331.101562 216.550781h.371094v-17.367187h-.371094zm0 0"/><path d="m1170.442708 2143.648437h77.018229v4.947917h-77.018229zm0 0" fill="none" stroke="#000" stroke-linejoin="round" stroke-miterlimit="10" stroke-width="7.88833" transform="matrix(.06 0 0 -.06 0 388.99)"/><path d="m70.226562 260.371094h4.621094v-.296875h-4.621094zm0 0"/><use x="365.399731" xlink:href="#y" y="222.128666"/><use x="357.259405" xlink:href="#F" y="265.625953"/><use x="362.53191" xlink:href="#ab" y="265.625953"/><use x="373.076687" xlink:href="#S" y="265.625953"/><path d="m6248.502604 2809.664062h6.184896v319.726563h-6.184896zm0 0" fill="none" stroke="#000" stroke-linejoin="round" stroke-miterlimit="10" stroke-width="6.6401" transform="matrix(.06 0 0 -.06 0 388.99)"/><path d="m374.910156 220.410156h.371094v-19.183594h-.371094zm0 0"/><path d="m7191.015625 2143.648437h77.083333v4.947917h-77.083333zm0 0" fill="none" stroke="#000" stroke-linejoin="round" stroke-miterlimit="10" stroke-width="7.88833" transform="matrix(.06 0 0 -.06 0 388.99)"/><path d="m431.460938 260.371094h4.625v-.296875h-4.625zm0 0"/><path d="m5518.359375 3194.625v-55.143229l2196.679687-102.669271v55.078125zm0 0" fill="none" stroke="#000" stroke-linejoin="round" stroke-miterlimit="10" stroke-width="6.6401" transform="matrix(.06 0 0 -.06 0 388.99)"/><path d="m331.101562 197.3125v3.308594l131.800782 6.160156v-3.304688zm0 0"/><path d="m8700 2143.648437h77.018229v4.947917h-77.018229zm0 0" fill="none" stroke="#000" stroke-linejoin="round" stroke-miterlimit="10" stroke-width="7.88833" transform="matrix(.06 0 0 -.06 0 388.99)"/><path d="m522 260.371094h4.621094v-.296875h-4.621094zm0 0"/><path d="m8004.817708 2143.648437h77.083334v4.947917h-77.083334zm0 0" fill="none" stroke="#000" stroke-linejoin="round" stroke-miterlimit="10" stroke-width="7.88833" transform="matrix(.06 0 0 -.06 0 388.99)"/><path d="m480.289062 260.371094h4.625v-.296875h-4.625zm0 0"/><path d="m5748.4375 2143.648437h77.018229v4.947917h-77.018229zm0 0" fill="none" stroke="#000" stroke-linejoin="round" stroke-miterlimit="10" stroke-width="7.88833" transform="matrix(.06 0 0 -.06 0 388.99)"/><path d="m344.90625 260.371094h4.621094v-.296875h-4.621094zm0 0"/><path d="m904.882812 2963.244792v-55.14323l2196.679688 128.710938v55.078125zm0 0" fill="none" stroke="#000" stroke-linejoin="round" stroke-miterlimit="10" stroke-width="6.6401" transform="matrix(.06 0 0 -.06 0 388.99)"/><path d="m54.292969 211.195312v3.308594l131.800781-7.722656v-3.304688zm0 0"/><path d="m4092.773437 2143.648437h77.01823v4.947917h-77.01823zm0 0" fill="none" stroke="#000" stroke-linejoin="round" stroke-miterlimit="10" stroke-width="7.88833" transform="matrix(.06 0 0 -.06 0 388.99)"/><path d="m245.566406 260.371094h4.621094v-.296875h-4.621094zm0 0"/><path d="m3300.260417 2143.648437h77.018229v4.947917h-77.018229zm0 0" fill="none" stroke="#000" stroke-linejoin="round" stroke-miterlimit="10" stroke-width="7.88833" transform="matrix(.06 0 0 -.06 0 388.99)"/><path d="m198.015625 260.371094h4.621094v-.296875h-4.621094zm0 0"/><path d="m9239.453125 2745.276042h6.184896v418.489583h-6.184896zm0 0" fill="none" stroke="#000" stroke-linejoin="round" stroke-miterlimit="10" stroke-width="6.6401" transform="matrix(.06 0 0 -.06 0 388.99)"/><path d="m554.367188 224.273438h.371093v-25.109376h-.371093zm0 0"/><use x="496.828994" xlink:href="#y" y="225.988674"/><use x="491.835154" xlink:href="#B" y="265.625553"/><use x="501.359673" xlink:href="#Y" y="265.625553"/><path d="m8438.997396 2745.276042h6.184896v418.489583h-6.184896zm0 0" fill="none" stroke="#000" stroke-linejoin="round" stroke-miterlimit="10" stroke-width="6.6401" transform="matrix(.06 0 0 -.06 0 388.99)"/><path d="m506.339844 224.273438h.371094v-25.109376h-.371094zm0 0"/><use x="544.85509" xlink:href="#y" y="225.988674"/><use x="536.715463" xlink:href="#I" y="265.625553"/><use x="547.26024" xlink:href="#D" y="265.625553"/><use x="557.804783" xlink:href="#J" y="265.625553"/><use x="44.78148" xlink:href="#y" y="237.570297"/><use x="37.661855" xlink:href="#ad" y="265.625553"/><use x="51.438668" xlink:href="#ae" y="265.625553"/><path d="m904.882812 2552.307292h6.184896v380.403645h-6.184896zm0 0" fill="none" stroke="#000" stroke-linejoin="round" stroke-miterlimit="10" stroke-width="6.6401" transform="matrix(.06 0 0 -.06 0 388.99)"/><path d="m54.292969 235.851562h.371093v-22.824218h-.371093zm0 0"/><use x="88.592277" xlink:href="#y" y="233.710689"/><use x="83.088676" xlink:href="#aa" y="265.626253"/><use x="93.633219" xlink:href="#ab" y="265.626253"/><path d="m1635.091146 2616.630208h6.184896v358.723959h-6.184896zm0 0" fill="none" stroke="#000" stroke-linejoin="round" stroke-miterlimit="10" stroke-width="6.6401" transform="matrix(.06 0 0 -.06 0 388.99)"/><path d="m98.105469 231.992188h.371093v-21.523438h-.371093zm0 0"/><use x="132.402265" xlink:href="#y" y="229.849682"/><use x="316.084632" xlink:href="#H" y="265.625953"/><use x="322.377136" xlink:href="#ab" y="265.625953"/><use x="332.921913" xlink:href="#N" y="265.625953"/><use x="6.177012" xlink:href="#z" y="229.849682"/><use x="132.171264" xlink:href="#D" y="265.625953"/><use x="220.14054" xlink:href="#y" y="222.128666"/><use x="212.510445" xlink:href="#P" y="265.625953"/><use x="216.762484" xlink:href="#O" y="265.625953"/><use x="227.307026" xlink:href="#I" y="265.625953"/><path d="m3672.330729 2355.367187h6.184896v397.005209h-6.184896zm0 0" fill="none" stroke="#000" stroke-linejoin="round" stroke-miterlimit="10" stroke-width="6.6401" transform="matrix(.06 0 0 -.06 0 388.99)"/><path d="m220.339844 247.667969h.371094v-23.820313h-.371094zm0 0"/><use x="268.166536" xlink:href="#y" y="222.128666"/><use x="257.900616" xlink:href="#E" y="265.625953"/><use x="268.445158" xlink:href="#ab" y="265.625953"/><use x="278.989935" xlink:href="#Q" y="265.625953"/><path d="m4472.721354 2355.367187h6.25v397.005209h-6.25zm0 0" fill="none" stroke="#000" stroke-linejoin="round" stroke-miterlimit="10" stroke-width="6.6401" transform="matrix(.06 0 0 -.06 0 388.99)"/><path d="m268.363281 247.667969h.371094v-23.820313h-.371094zm0 0"/><use x="321.588643" xlink:href="#y" y="218.267659"/><path d="m2365.234375 2680.953125h6.184896v337.044271h-6.184896zm0 0" fill="none" stroke="#000" stroke-linejoin="round" stroke-miterlimit="10" stroke-width="6.6401" transform="matrix(.06 0 0 -.06 0 388.99)"/><path d="m141.914062 228.132812h.371094v-20.222656h-.371094zm0 0"/><path d="m3095.377604 2745.276042h6.25v315.364583h-6.25zm0 0" fill="none" stroke="#000" stroke-linejoin="round" stroke-miterlimit="10" stroke-width="6.6401" transform="matrix(.06 0 0 -.06 0 388.99)"/><path d="m185.722656 224.273438h.371094v-18.921876h-.371094zm0 0"/><use x="174.365349" xlink:href="#af" y="265.625753"/><use x="183.890132" xlink:href="#L" y="265.625753"/><use x="176.212232" xlink:href="#y" y="225.988874"/><g clip-path="url(#s)"><path d="m4.947917 979.455729h9911.393229" style="fill:none;stroke-width:9.87007;stroke-linecap:round;stroke-linejoin:round;stroke:#000;stroke-miterlimit:10" transform="matrix(.06 0 0 -.06 0 388.99)"/></g><g clip-path="url(#t)"><path d="m4.947917 1108.101562h9911.393229" style="fill:none;stroke-width:9.87007;stroke-linecap:round;stroke-linejoin:round;stroke:#000;stroke-miterlimit:10" transform="matrix(.06 0 0 -.06 0 388.99)"/></g><g clip-path="url(#u)"><path d="m4.947917 1236.8125h9911.393229" style="fill:none;stroke-width:9.87007;stroke-linecap:round;stroke-linejoin:round;stroke:#000;stroke-miterlimit:10" transform="matrix(.06 0 0 -.06 0 388.99)"/></g><g clip-path="url(#v)"><path d="m4.947917 1365.458333h9911.393229" style="fill:none;stroke-width:9.87007;stroke-linecap:round;stroke-linejoin:round;stroke:#000;stroke-miterlimit:10" transform="matrix(.06 0 0 -.06 0 388.99)"/></g><g clip-path="url(#w)"><path d="m4.947917 1494.169271h9911.393229" style="fill:none;stroke-width:9.87007;stroke-linecap:round;stroke-linejoin:round;stroke:#000;stroke-miterlimit:10" transform="matrix(.06 0 0 -.06 0 388.99)"/></g><path d="m7635.807292 850.744792h229.296875" style="fill:none;stroke-width:22.7385;stroke-linecap:round;stroke-linejoin:round;stroke:#000;stroke-miterlimit:10" transform="matrix(.06 0 0 -.06 0 388.99)"/><g clip-path="url(#x)"><path d="m9891.666667 979.455729v514.713542" fill="none" stroke="#000" stroke-linejoin="round" stroke-miterlimit="10" stroke-width="59.2076" transform="matrix(.06 0 0 -.06 0 388.99)"/></g><path d="m9823.111979 979.455729v514.713542" fill="none" stroke="#000" stroke-linejoin="round" stroke-miterlimit="10" stroke-width="18.7493" transform="matrix(.06 0 0 -.06 0 388.99)"/><path d="m5471.744792 979.455729v514.713542" fill="none" stroke="#000" stroke-linejoin="round" stroke-miterlimit="10" stroke-width="18.7493" transform="matrix(.06 0 0 -.06 0 388.99)"/><use x="420.07984" xlink:href="#y" y="334.08399"/><use x="419.848981" xlink:href="#ag" y="359.866242"/><path d="m7159.830729 943.713542h6.184896v356.640625h-6.184896zm0 0" fill="none" stroke="#000" stroke-linejoin="round" stroke-miterlimit="10" stroke-width="6.6401" transform="matrix(.06 0 0 -.06 0 388.99)"/><path d="m429.589844 332.367188h.371094v-21.394532h-.371094zm0 0"/><use x="459.98792" xlink:href="#y" y="337.944698"/><use x="452.018214" xlink:href="#ah" y="359.866342"/><use x="463.243144" xlink:href="#D" y="359.866342"/><use x="473.787687" xlink:href="#P" y="359.866342"/><path d="m7825 879.390625h6.184896v380.46875h-6.184896zm0 0" fill="none" stroke="#000" stroke-linejoin="round" stroke-miterlimit="10" stroke-width="6.6401" transform="matrix(.06 0 0 -.06 0 388.99)"/><path d="m469.5 336.226562h.371094v-22.824218h-.371094zm0 0"/><use x="380.17176" xlink:href="#y" y="330.223682"/><use x="372.541665" xlink:href="#F" y="359.866342"/><use x="377.814405" xlink:href="#G" y="359.866342"/><use x="388.359182" xlink:href="#B" y="359.866342"/><path d="m6494.726562 1008.101562h6.184896v332.747396h-6.184896zm0 0" fill="none" stroke="#000" stroke-linejoin="round" stroke-miterlimit="10" stroke-width="6.6401" transform="matrix(.06 0 0 -.06 0 388.99)"/><path d="m389.683594 328.503906h.371094v-19.964844h-.371094zm0 0"/><path d="m5724.739583 1419.039062v-55.143229l2106.445313-128.710937v55.143229zm0 0" fill="none" stroke="#000" stroke-linejoin="round" stroke-miterlimit="10" stroke-width="6.6401" transform="matrix(.06 0 0 -.06 0 388.99)"/><path d="m343.484375 303.847656v3.308594l126.386719 7.722656v-3.308594zm0 0"/><path d="m8714.518229 573.010417h77.018229v4.882812h-77.018229zm0 0" fill="none" stroke="#000" stroke-linejoin="round" stroke-miterlimit="10" stroke-width="7.88833" transform="matrix(.06 0 0 -.06 0 388.99)"/><path d="m522.871094 354.609375h4.621094v-.292969h-4.621094zm0 0"/><path d="m8069.335937 573.010417h77.01823v4.882812h-77.01823zm0 0" fill="none" stroke="#000" stroke-linejoin="round" stroke-miterlimit="10" stroke-width="7.88833" transform="matrix(.06 0 0 -.06 0 388.99)"/><path d="m484.160156 354.609375h4.621094v-.292969h-4.621094zm0 0"/><path d="m6067.578125 573.010417h77.018229v4.882812h-77.018229zm0 0" fill="none" stroke="#000" stroke-linejoin="round" stroke-miterlimit="10" stroke-width="7.88833" transform="matrix(.06 0 0 -.06 0 388.99)"/><path d="m364.054688 354.609375h4.621093v-.292969h-4.621093zm0 0"/><path d="m904.882812 1492.541667h2374.283855v55.143229h-2374.283855zm0 0" fill="none" stroke="#000" stroke-linejoin="round" stroke-miterlimit="10" stroke-width="6.6401" transform="matrix(.06 0 0 -.06 0 388.99)"/><path d="m54.292969 299.4375h142.457031v-3.308594h-142.457031zm0 0"/><path d="m4392.903646 573.010417h77.018229v4.882812h-77.018229zm0 0" fill="none" stroke="#000" stroke-linejoin="round" stroke-miterlimit="10" stroke-width="7.88833" transform="matrix(.06 0 0 -.06 0 388.99)"/><path d="m263.574219 354.609375h4.621093v-.292969h-4.621093zm0 0"/><path d="m3509.505208 573.010417h77.018229v4.882812h-77.018229zm0 0" fill="none" stroke="#000" stroke-linejoin="round" stroke-miterlimit="10" stroke-width="7.88833" transform="matrix(.06 0 0 -.06 0 388.99)"/><path d="m210.570312 354.609375h4.621094v-.292969h-4.621094zm0 0"/><path d="m9217.382812 943.713542h6.184896v418.489583h-6.184896zm0 0" fill="none" stroke="#000" stroke-linejoin="round" stroke-miterlimit="10" stroke-width="6.6401" transform="matrix(.06 0 0 -.06 0 388.99)"/><path d="m553.042969 332.367188h.371093v-25.105469h-.371093zm0 0"/><use x="494.90199" xlink:href="#B" y="359.866242"/><use x="504.42651" xlink:href="#Y" y="359.866242"/><path d="m8490.104167 943.713542h6.184895v418.489583h-6.184895zm0 0" fill="none" stroke="#000" stroke-linejoin="round" stroke-miterlimit="10" stroke-width="6.6401" transform="matrix(.06 0 0 -.06 0 388.99)"/><path d="m509.40625 332.367188h.371094v-25.105469h-.371094zm0 0"/><use x="543.533087" xlink:href="#y" y="334.08399"/><use x="548.574267" xlink:href="#A" y="297.005116"/><use x="535.392741" xlink:href="#I" y="359.866242"/><use x="545.937283" xlink:href="#D" y="359.866242"/><use x="556.48206" xlink:href="#ai" y="359.866242"/><use x="499.89677" xlink:href="#y" y="334.08399"/><use x="87.749945" xlink:href="#y" y="322.502567"/><use x="44.78216" xlink:href="#y" y="318.641929"/><use x="37.662535" xlink:href="#aj" y="359.866212"/><use x="51.439348" xlink:href="#D" y="359.866212"/><path d="m904.882812 1201.070312h6.184896v315.755209h-6.184896zm0 0" fill="none" stroke="#000" stroke-linejoin="round" stroke-miterlimit="10" stroke-width="6.6401" transform="matrix(.06 0 0 -.06 0 388.99)"/><path d="m54.292969 316.925781h.371093v-18.941406h-.371093zm0 0"/><use x="74.337549" xlink:href="#E" y="359.866242"/><use x="84.882326" xlink:href="#D" y="359.866242"/><use x="95.426868" xlink:href="#K" y="359.866242"/><path d="m1621.028646 1136.747396h6.184896v380.078125h-6.184896zm0 0" fill="none" stroke="#000" stroke-linejoin="round" stroke-miterlimit="10" stroke-width="6.6401" transform="matrix(.06 0 0 -.06 0 388.99)"/><path d="m97.261719 320.785156h.371093v-22.800781h-.371093zm0 0"/><use x="139.136278" xlink:href="#y" y="318.641959"/><use x="123.598547" xlink:href="#aa" y="359.866242"/><use x="134.14309" xlink:href="#O" y="359.866242"/><use x="144.687632" xlink:href="#I" y="359.866242"/><use x="155.232409" xlink:href="#V" y="359.866242"/><use x="6.176312" xlink:href="#z" y="322.502567"/><use x="272.060844" xlink:href="#U" y="359.866242"/><use x="282.605387" xlink:href="#D" y="359.866242"/><use x="293.150163" xlink:href="#E" y="359.866242"/><use x="234.341169" xlink:href="#y" y="322.502567"/><use x="219.058038" xlink:href="#I" y="359.866242"/><use x="229.602815" xlink:href="#V" y="359.866242"/><use x="238.617129" xlink:href="#D" y="359.866242"/><use x="249.161672" xlink:href="#E" y="359.866242"/><path d="m4064.257812 1136.747396h6.184896v418.424479h-6.184896zm0 0" fill="none" stroke="#000" stroke-linejoin="round" stroke-miterlimit="10" stroke-width="6.6401" transform="matrix(.06 0 0 -.06 0 388.99)"/><path d="m243.855469 320.785156h.371093v-25.105468h-.371093zm0 0"/><use x="282.837566" xlink:href="#y" y="318.641959"/><path d="m4872.460937 1201.070312h6.184896v418.489584h-6.184896zm0 0" fill="none" stroke="#000" stroke-linejoin="round" stroke-miterlimit="10" stroke-width="6.6401" transform="matrix(.06 0 0 -.06 0 388.99)"/><path d="m292.347656 316.925781h.371094v-25.109375h-.371094zm0 0"/><use x="333.971668" xlink:href="#y" y="326.362975"/><use x="317.838636" xlink:href="#T" y="359.866242"/><use x="330.594498" xlink:href="#H" y="359.866242"/><use x="336.887002" xlink:href="#L" y="359.866242"/><use x="341.13904" xlink:href="#B" y="359.866242"/><use x="350.663824" xlink:href="#C" y="359.866242"/><path d="m5724.739583 1072.424479h6.184896v315.299479h-6.184896zm0 0" fill="none" stroke="#000" stroke-linejoin="round" stroke-miterlimit="10" stroke-width="6.6401" transform="matrix(.06 0 0 -.06 0 388.99)"/><path d="m343.484375 324.644531h.371094v-18.917969h-.371094zm0 0"/><path d="m2477.473958 1201.070312h6.184896v315.755209h-6.184896zm0 0" fill="none" stroke="#000" stroke-linejoin="round" stroke-miterlimit="10" stroke-width="6.6401" transform="matrix(.06 0 0 -.06 0 388.99)"/><path d="m148.648438 316.925781h.371093v-18.941406h-.371093zm0 0"/><path d="m3272.981771 1072.424479h6.184896v444.401042h-6.184896zm0 0" fill="none" stroke="#000" stroke-linejoin="round" stroke-miterlimit="10" stroke-width="6.6401" transform="matrix(.06 0 0 -.06 0 388.99)"/><path d="m196.378906 324.644531h.371094v-26.664062h-.371094zm0 0"/><use x="177.111354" xlink:href="#B" y="359.866242"/><use x="186.635903" xlink:href="#C" y="359.866242"/><use x="196.160687" xlink:href="#Y" y="359.866242"/><use x="186.867464" xlink:href="#y" y="326.362975"/></svg>