<svg height="512.07em" viewBox="0 0 595.28 512.07" width="595.28em" xmlns="http://www.w3.org/2000/svg" xmlns:xlink="http://www.w3.org/1999/xlink"><clipPath id="a"><path d="m0 73h595.28125v1h-595.28125zm0 0"/></clipPath><clipPath id="b"><path d="m0 62h595.28125v2h-595.28125zm0 0"/></clipPath><clipPath id="c"><path d="m0 52h595.28125v2h-595.28125zm0 0"/></clipPath><clipPath id="d"><path d="m0 42h595.28125v2h-595.28125zm0 0"/></clipPath><clipPath id="e"><path d="m0 32h595.28125v2h-595.28125zm0 0"/></clipPath><clipPath id="f"><path d="m593 32h2.28125v43h-2.28125zm0 0"/></clipPath><clipPath id="g"><path d="m0 197h595.28125v2h-595.28125zm0 0"/></clipPath><clipPath id="h"><path d="m0 187h595.28125v2h-595.28125zm0 0"/></clipPath><clipPath id="i"><path d="m0 177h595.28125v2h-595.28125zm0 0"/></clipPath><clipPath id="j"><path d="m0 167h595.28125v1h-595.28125zm0 0"/></clipPath><clipPath id="k"><path d="m0 157h595.28125v1h-595.28125zm0 0"/></clipPath><clipPath id="l"><path d="m591 155h4.28125v46h-4.28125zm0 0"/></clipPath><clipPath id="m"><path d="m0 325h595.28125v2h-595.28125zm0 0"/></clipPath><clipPath id="n"><path d="m0 315h595.28125v1h-595.28125zm0 0"/></clipPath><clipPath id="o"><path d="m0 304h595.28125v2h-595.28125zm0 0"/></clipPath><clipPath id="p"><path d="m0 294h595.28125v2h-595.28125zm0 0"/></clipPath><clipPath id="q"><path d="m0 284h595.28125v2h-595.28125zm0 0"/></clipPath><clipPath id="r"><path d="m593 284h2.28125v43h-2.28125zm0 0"/></clipPath><clipPath id="s"><path d="m0 447h595.28125v2h-595.28125zm0 0"/></clipPath><clipPath id="t"><path d="m0 437h595.28125v2h-595.28125zm0 0"/></clipPath><clipPath id="u"><path d="m0 427h595.28125v2h-595.28125zm0 0"/></clipPath><clipPath id="v"><path d="m0 417h595.28125v1h-595.28125zm0 0"/></clipPath><clipPath id="w"><path d="m0 407h595.28125v1h-595.28125zm0 0"/></clipPath><clipPath id="x"><path d="m591 405h4.28125v46h-4.28125zm0 0"/></clipPath><symbol id="y" overflow="visible"><path d="m8.09375-11.375v-2.140625c-.359375-.046875-.53125-.078125-.8125-.078125-1.359375 0-2.390625.8125-3.59375 2.78125v-2.40625h-1.921875v13.21875h2.09375v-6.859375c0-2.96875.984375-4.46875 4.234375-4.515625zm0 0"/></symbol><symbol id="z" overflow="visible"><path d="m12.859375-6.5c0-4.578125-2.1875-7.09375-6-7.09375-3.703125 0-5.953125 2.546875-5.953125 6.984375s2.21875 6.984375 5.984375 6.984375c3.703125 0 5.96875-2.546875 5.96875-6.875zm-2.1875-.03125c0 3.09375-1.46875 4.96875-3.78125 4.96875-2.34375 0-3.78125-1.84375-3.78125-5.046875 0-3.171875 1.4375-5.046875 3.78125-5.046875 2.359375 0 3.78125 1.84375 3.78125 5.125zm.859375-11.859375h-2.859375l-2.421875 3.734375h1.515625zm0 0"/></symbol><symbol id="A" overflow="visible"><path d="m3.8125 0v-18.390625h-2.09375v18.390625zm0 0"/></symbol><symbol id="B" overflow="visible"><path d="m19.171875 0v-9.90625c0-2.375-1.3125-3.6875-3.78125-3.6875-1.765625 0-2.828125.53125-4.0625 2.015625-.78125-1.40625-1.84375-2.015625-3.5625-2.015625-1.765625 0-2.921875.65625-4.0625 2.25v-1.875h-1.90625v13.21875h2.09375v-8.296875c0-1.921875 1.375-3.453125 3.09375-3.453125 1.5625 0 2.453125.953125 2.453125 2.640625v9.109375h2.09375v-8.296875c0-1.921875 1.40625-3.453125 3.125-3.453125 1.53125 0 2.421875.984375 2.421875 2.640625v9.109375zm0 0"/></symbol><symbol id="C" overflow="visible"><path d="m12.9375-6c0-1.921875-.15625-3.125-.53125-4.109375-.859375-2.171875-2.875-3.484375-5.34375-3.484375-3.6875 0-6.046875 2.71875-6.046875 7.0625s2.28125 6.90625 6 6.90625c3.015625 0 5.109375-1.71875 5.640625-4.390625h-2.109375c-.578125 1.75-1.765625 2.453125-3.453125 2.453125-2.203125 0-3.84375-1.40625-3.890625-4.4375zm-2.25-1.875s0 .109375-.015625.15625h-7.421875c.1875-2.34375 1.671875-3.9375 3.78125-3.9375 2.078125 0 3.65625 1.71875 3.65625 3.78125zm0 0"/></symbol><symbol id="D" overflow="visible"><path d="m12.28125 0v-9.984375c0-2.203125-1.640625-3.609375-4.1875-3.609375-1.96875 0-3.21875.75-4.390625 2.59375v-2.21875h-1.9375v13.21875h2.09375v-7.28125c0-2.703125 1.46875-4.46875 3.609375-4.46875 1.65625 0 2.71875 1 2.71875 2.59375v9.15625zm0 0"/></symbol><symbol id="E" overflow="visible"><path d="m11.53125 0v-1.84375h-8.203125l7.84375-9.5v-1.875h-9.859375v1.84375h7.359375l-7.890625 9.484375v1.890625zm0 0"/></symbol><symbol id="F" overflow="visible"><path d="m13.484375-.046875v-1.59375c-.21875.046875-.3125.046875-.453125.046875-.71875 0-1.125-.375-1.125-1.03125v-7.359375c0-2.34375-1.71875-3.609375-4.96875-3.609375-3.203125 0-5.171875 1.234375-5.296875 4.28125h2.109375c.1875-1.609375 1.140625-2.34375 3.109375-2.34375 1.890625 0 2.953125.71875 2.953125 1.96875v.5625c0 .875-.53125 1.25-2.203125 1.453125-2.96875.390625-3.421875.484375-4.234375.8125-1.53125.625-2.3125 1.8125-2.3125 3.421875 0 2.40625 1.65625 3.8125 4.328125 3.8125 1.703125 0 3.328125-.703125 4.5-1.9375.21875 1 1.125 1.734375 2.15625 1.734375.4375 0 .765625-.046875 1.4375-.21875zm-3.671875-4.515625c0 1.890625-1.921875 3.09375-3.96875 3.09375-1.625 0-2.59375-.578125-2.59375-2.015625 0-1.390625.9375-1.984375 3.1875-2.3125 2.21875-.3125 2.671875-.40625 3.375-.734375zm1.640625-13.828125h-2.859375l-2.421875 3.734375h1.515625zm0 0"/></symbol><symbol id="G" overflow="visible"><path d="m12.484375 0v-18.390625h-2.09375v6.84375c-.890625-1.34375-2.296875-2.046875-4.0625-2.046875-3.421875 0-5.671875 2.65625-5.671875 6.859375 0 4.46875 2.1875 7.109375 5.75 7.109375 1.8125 0 3.078125-.671875 4.203125-2.3125v1.9375zm-2.09375-6.5625c0 3.0625-1.46875 4.96875-3.6875 4.96875-2.3125 0-3.859375-1.9375-3.859375-5.015625s1.546875-5.015625 3.84375-5.015625c2.265625 0 3.703125 2.015625 3.703125 5.0625zm0 0"/></symbol><symbol id="H" overflow="visible"><path d="m3.859375 0v-13.21875h-2.09375v13.21875zm.28125-15.203125v-2.625h-2.625v2.625zm0 0"/></symbol><symbol id="I" overflow="visible"><path d="m4.84375.40625v-3.03125h-2.65625v2.625h1.515625v.453125c0 1.734375-.328125 2.25-1.515625 2.296875v.953125c1.765625 0 2.65625-1.125 2.65625-3.296875zm0 0"/></symbol><symbol id="J" overflow="visible"><path d="m13.4375 0v-2.0625h-9.078125v-16.328125h-2.34375v18.390625zm0 0"/></symbol><symbol id="K" overflow="visible"><path d="m12.65625 0-5.390625-8.65625 4.59375-4.5625h-2.703125l-5.59375 5.609375v-10.78125h-2.09375v18.390625h2.09375v-5.140625l2.03125-2.015625 4.46875 7.15625zm0 0"/></symbol><symbol id="L" overflow="visible"><path d="m16.59375 0-7.5625-10.890625 7.484375-7.5h-3.03125l-9.140625 9.3125v-9.3125h-2.34375v18.390625h2.34375v-6.4375l3-3 6.46875 9.4375zm0 0"/></symbol><symbol id="M" overflow="visible"><path d="m4.5625 0v-13.21875h-2.09375v13.21875zm3.203125-18.390625h-2.84375l-2.421875 3.734375h1.515625zm0 0"/></symbol><symbol id="N" overflow="visible"><path d="m12.859375-6.5c0-4.578125-2.1875-7.09375-6-7.09375-3.703125 0-5.953125 2.546875-5.953125 6.984375s2.21875 6.984375 5.984375 6.984375c3.703125 0 5.96875-2.546875 5.96875-6.875zm-2.1875-.03125c0 3.09375-1.46875 4.96875-3.78125 4.96875-2.34375 0-3.78125-1.84375-3.78125-5.046875 0-3.171875 1.4375-5.046875 3.78125-5.046875 2.359375 0 3.78125 1.84375 3.78125 5.125zm0 0"/></symbol><symbol id="O" overflow="visible"><path d="m12.25 0v-9.984375c0-2.21875-1.578125-3.609375-4.15625-3.609375-1.859375 0-3 .578125-4.234375 2.1875v-6.984375h-2.09375v18.390625h2.09375v-7.28125c0-2.703125 1.40625-4.46875 3.578125-4.46875 1.484375 0 2.71875.859375 2.71875 2.59375v9.15625zm0 0"/></symbol><symbol id="P" overflow="visible"><path d="m6.40625 0v-1.765625c-.28125.078125-.609375.09375-1.015625.09375-.90625 0-1.15625-.25-1.15625-1.171875v-8.65625h2.171875v-1.71875h-2.171875v-3.625h-2.09375v3.625h-1.78125v1.71875h1.78125v9.578125c0 1.34375.90625 2.09375 2.546875 2.09375.5 0 1.015625-.046875 1.71875-.171875zm0 0"/></symbol><symbol id="Q" overflow="visible"><path d="m13.484375-.046875v-1.59375c-.21875.046875-.3125.046875-.453125.046875-.71875 0-1.125-.375-1.125-1.03125v-7.359375c0-2.34375-1.71875-3.609375-4.96875-3.609375-3.203125 0-5.171875 1.234375-5.296875 4.28125h2.109375c.1875-1.609375 1.140625-2.34375 3.109375-2.34375 1.890625 0 2.953125.71875 2.953125 1.96875v.5625c0 .875-.53125 1.25-2.203125 1.453125-2.96875.390625-3.421875.484375-4.234375.8125-1.53125.625-2.3125 1.8125-2.3125 3.421875 0 2.40625 1.65625 3.8125 4.328125 3.8125 1.703125 0 3.328125-.703125 4.5-1.9375.21875 1 1.125 1.734375 2.15625 1.734375.4375 0 .765625-.046875 1.4375-.21875zm-3.671875-4.515625c0 1.890625-1.921875 3.09375-3.96875 3.09375-1.625 0-2.59375-.578125-2.59375-2.015625 0-1.390625.9375-1.984375 3.1875-2.3125 2.21875-.3125 2.671875-.40625 3.375-.734375zm0 0"/></symbol><symbol id="R" overflow="visible"><path d="m12.25-13.21875h-2.359375l-3.734375 10.71875-3.53125-10.71875h-2.375l4.640625 13.21875h2.296875zm0 0"/></symbol><symbol id="S" overflow="visible"><path d="m11.578125-3.703125c0-1.96875-1.109375-2.953125-3.734375-3.578125l-2.015625-.484375c-1.71875-.40625-2.453125-.953125-2.453125-1.890625 0-1.21875 1.09375-2 2.796875-2s2.609375.734375 2.65625 2.125h2.21875c-.03125-2.59375-1.734375-4.0625-4.796875-4.0625-3.078125 0-5.0625 1.59375-5.0625 4.03125 0 2.078125 1.0625 3.0625 4.1875 3.8125l1.96875.484375c1.453125.34375 2.03125.78125 2.03125 1.734375 0 1.234375-1.234375 1.96875-3.078125 1.96875-1.890625 0-2.9375-.453125-3.21875-2.46875h-2.21875c.09375 3.046875 1.8125 4.40625 5.265625 4.40625 3.328125 0 5.453125-1.53125 5.453125-4.078125zm0 0"/></symbol><symbol id="T" overflow="visible"><path d="m6.5-11.5v-1.71875h-2.1875v-2.0625c0-.890625.5-1.34375 1.46875-1.34375.171875 0 .25 0 .71875.03125v-1.734375c-.46875-.109375-.75-.125-1.171875-.125-1.953125 0-3.109375 1.109375-3.109375 3v2.234375h-1.765625v1.71875h1.765625v11.5h2.09375v-11.5zm0 0"/></symbol><symbol id="U" overflow="visible"><path d="m12.15625 0v-13.21875h-2.09375v7.296875c0 2.6875-1.40625 4.453125-3.609375 4.453125-1.65625 0-2.71875-1-2.71875-2.59375v-9.15625h-2.09375v9.984375c0 2.203125 1.640625 3.609375 4.203125 3.609375 1.953125 0 3.1875-.671875 4.421875-2.421875v2.046875zm-.625-18.390625h-2.859375l-2.421875 3.734375h1.515625zm0 0"/></symbol><symbol id="V" overflow="visible"><path d="m3.859375 2.75v-15.96875h-2.09375v15.140625c0 1.25-.421875 1.8125-1.71875 1.734375l-.5-.03125v1.796875c.25.046875.375.078125.703125.078125 2.375 0 3.609375-.953125 3.609375-2.75zm.28125-17.953125v-2.625h-2.625v2.625zm0 0"/></symbol><symbol id="W" overflow="visible"><path d="m4.5625-9.859375v-8.53125h-2.09375v8.53125l.5625 5.625h.984375zm0 9.859375v-2.625h-2.109375v2.625zm0 0"/></symbol><symbol id="X" overflow="visible"><path d="m18.71875-8.90625c0-5.921875-3.515625-9.9375-8.90625-9.9375-5.265625 0-8.859375 4.046875-8.859375 9.796875s3.59375 9.5 8.875 9.5c5.40625 0 8.890625-3.953125 8.890625-9.359375zm-2.359375-.046875c0 4.4375-2.640625 7.34375-6.53125 7.34375-3.90625 0-6.53125-2.90625-6.53125-7.4375 0-4.546875 2.625-7.71875 6.515625-7.71875 3.984375 0 6.546875 3.171875 6.546875 7.8125zm-1.125-14.140625h-3.4375l-2.890625 3.34375h1.8125zm0 0"/></symbol><symbol id="Y" overflow="visible"><path d="m16.46875 0-6.453125-18.390625h-3.03125l-6.5625 18.390625h2.5l1.953125-5.515625h7.078125l1.890625 5.515625zm-5.171875-7.484375h-5.84375l3.015625-8.375zm2.625-15.609375h-3.4375l-2.890625 3.34375h1.8125zm0 0"/></symbol><symbol id="Z" overflow="visible"><path d="m12.328125-2.171875v-11.046875h-1.9375v1.921875c-1.0625-1.5625-2.34375-2.296875-4.03125-2.296875-3.359375 0-5.625 2.828125-5.625 7.109375 0 4.171875 2.34375 6.859375 5.4375 6.859375 1.671875 0 2.828125-.703125 4.21875-2.375v.890625c0 3.5-1.4375 4.84375-3.890625 4.84375-1.65625 0-2.9375-.609375-3.203125-2.21875h-2.140625c.234375 2.5 2.171875 3.984375 5.28125 3.984375 4.125 0 5.890625-1.84375 5.890625-7.671875zm-2.140625-4.359375c0 3.15625-1.359375 4.96875-3.578125 4.96875-2.296875 0-3.6875-1.84375-3.6875-5.046875 0-3.171875 1.421875-5.046875 3.65625-5.046875 2.28125 0 3.609375 1.921875 3.609375 5.125zm0 0"/></symbol><symbol id="aa" overflow="visible"><path d="m12.046875-13.21875h-2.265625l-3.65625 10.296875-3.375-10.296875h-2.25l4.46875 13.265625-.8125 2.09375c-.34375.9375-.78125 1.296875-1.6875 1.296875-.296875 0-.65625-.0625-1.109375-.15625v1.890625c.4375.21875.859375.328125 1.421875.328125 1.484375 0 2.6875-.828125 3.390625-2.71875zm0 0"/></symbol><symbol id="ab" overflow="visible"><path d="m13.1875-6.765625c0-4.28125-2.171875-6.828125-5.640625-6.828125-1.828125 0-3.109375.6875-4.09375 2.171875v-6.96875h-2.09375v18.390625h1.890625v-1.890625c1.015625 1.53125 2.34375 2.265625 4.1875 2.265625 3.484375 0 5.75-2.84375 5.75-7.140625zm-2.1875.140625c0 3-1.5625 5.03125-3.859375 5.03125-2.21875 0-3.6875-2.015625-3.6875-5.015625 0-3.09375 1.46875-5.125 3.6875-5.015625 2.34375 0 3.859375 2.046875 3.859375 5zm0 0"/></symbol><symbol id="ac" overflow="visible"><path d="m12.9375-6c0-1.921875-.15625-3.125-.53125-4.109375-.859375-2.171875-2.875-3.484375-5.34375-3.484375-3.6875 0-6.046875 2.71875-6.046875 7.0625s2.28125 6.90625 6 6.90625c3.015625 0 5.109375-1.71875 5.640625-4.390625h-2.109375c-.578125 1.75-1.765625 2.453125-3.453125 2.453125-2.203125 0-3.84375-1.40625-3.890625-4.4375zm-2.25-1.875s0 .109375-.015625.15625h-7.421875c.1875-2.34375 1.671875-3.9375 3.78125-3.9375 2.078125 0 3.65625 1.71875 3.65625 3.78125zm.890625-10.515625h-2.859375l-2.421875 3.734375h1.515625zm0 0"/></symbol><symbol id="ad" overflow="visible"><path d="m12.15625 0v-13.21875h-2.09375v7.296875c0 2.6875-1.40625 4.453125-3.609375 4.453125-1.65625 0-2.71875-1-2.71875-2.59375v-9.15625h-2.09375v9.984375c0 2.203125 1.640625 3.609375 4.203125 3.609375 1.953125 0 3.1875-.671875 4.421875-2.421875v2.046875zm-6.046875-15.234375v-2.5625h-2.296875v2.5625zm4.078125 0v-2.5625h-2.296875v2.5625zm0 0"/></symbol><symbol id="ae" overflow="visible"><path d="m16.234375 0v-18.390625h-2.34375v7.953125h-9.453125v-7.953125h-2.34375v18.390625h2.34375v-8.375h9.453125v8.375zm0 0"/></symbol><symbol id="af" overflow="visible"><path d="m4.8125 0v-2.625h-2.625v2.625zm0 0"/></symbol><symbol id="ag" overflow="visible"><path d="m15.71875-5.25c0-2.21875-1.015625-3.546875-3.359375-4.453125 1.65625-.78125 2.546875-2.15625 2.546875-4.015625 0-2.671875-1.96875-4.671875-5.453125-4.671875h-7.453125v18.390625h8.296875c3.296875 0 5.421875-2.21875 5.421875-5.25zm-3.15625-8.140625c0 1.859375-1.09375 2.921875-3.6875 2.921875h-4.53125v-5.84375h4.53125c2.59375 0 3.6875 1.0625 3.6875 2.921875zm.796875 8.171875c0 1.765625-1.078125 3.15625-3.296875 3.15625h-5.71875v-6.328125h5.71875c2.21875 0 3.296875 1.375 3.296875 3.171875zm0 0"/></symbol><symbol id="ah" overflow="visible"><path d="m9.0625-5.515625c-1.703125 0-3.34375.578125-4.8125 1.46875-1.921875 1.140625-4.25 3.140625-4.25 6.046875 0 2.40625 2.125 3.515625 4.28125 3.515625 1.71875 0 3.359375-.578125 4.828125-1.46875 1.921875-1.140625 4.203125-3.140625 4.203125-6.046875 0-2.40625-2.078125-3.515625-4.25-3.515625zm0 0"/></symbol><symbol id="ai" overflow="visible"><path d="m-2.578125-1.921875c0 1.4375 1.15625 2.578125 2.578125 2.578125s2.578125-1.140625 2.578125-2.578125c0-1.421875-1.15625-2.578125-2.578125-2.578125s-2.578125 1.15625-2.578125 2.578125zm2.578125-12.78125c-6.328125 0-13.4375 7.0625-13.4375 14.78125 0 .328125.328125.578125.65625.578125.28125 0 .609375-.203125.6875-.65625 1.0625-6.078125 6.015625-10.828125 12.09375-10.828125s11.03125 4.75 12.09375 10.828125c.078125.453125.40625.65625.6875.65625.328125 0 .65625-.25.65625-.578125 0-7.71875-7.0625-14.78125-13.4375-14.78125zm0 0"/></symbol><symbol id="aj" overflow="visible"><path d="m1.015625-1.796875c.046875-1.34375.9375-2.53125 2.21875-2.53125 1.21875 0 1.796875 1.421875 1.796875 2.8125 0 2.421875-2.046875 4.125-3.921875 5.6875-.09375-.90625-.171875-1.796875-.171875-2.703125 0-.15625.046875-.28125.046875-.453125zm-2.03125-17.109375.4375 24.46875c0 .484375.375.84375.859375.84375.734375 0 1.0625-.84375 1.640625-1.296875 2.578125-2.09375 6.25-3.5625 6.25-6.90625 0-2.203125-1.640625-4.078125-3.796875-4.078125-1.3125 0-2.53125.4375-3.59375 1.21875l.234375-14.25c-.328125-.171875-.640625-.296875-1.015625-.296875s-.6875.125-1.015625.296875zm0 0"/></symbol><symbol id="ak" overflow="visible"><path d="m15.28125-10.625c-.65625-2.859375-1.4375-5.671875-2.25-8.484375 3.921875-4.453125 7.46875-9.03125 7.46875-14.90625 0-4.625-2.53125-11.234375-5.390625-14.671875-.203125-.15625-.453125-.15625-.65625 0-3.875 2.8125-6.125 7.3125-6.125 12.046875 0 2.125.046875 4.203125.296875 6.296875.28125 2.65625.96875 5.21875 1.703125 7.796875-4.8125 5.46875-10.25 10.703125-10.25 17.96875 0 8.21875 5.921875 15.203125 13.609375 15.203125 1.265625 0 2.453125-.125 3.625-.328125.125 1.296875.203125 2.609375.203125 3.921875 0 .734375-.03125 1.421875-.078125 2.15625-.25 4.046875-2.734375 7.765625-6.53125 7.84375-.046875 0-.078125.046875-.125.046875-2.078125 0-3.875-1.1875-4.9375-2.859375.453125.203125.9375.359375 1.421875.359375 2.125 0 3.890625-1.75 3.890625-3.875 0-2.28125-1.6875-4.25-3.890625-4.25-2.40625 0-4.5625 1.875-4.5625 4.25 0 4.40625 3.546875 7.96875 7.953125 7.96875 4.828125 0 8.125-4.328125 8.421875-9.234375.03125-.78125.03125-1.515625.03125-2.28125 0-1.484375-.078125-2.953125-.203125-4.421875 1.0625-.328125 2.09375-.8125 2.984375-1.515625 3.03125-2.234375 4.375-5.390625 4.375-8.484375 0-5.390625-4.09375-10.578125-10.375-10.578125-.203125 0-.40625.03125-.609375.03125zm3.46875 19c-.578125-5.0625-1.515625-9.890625-2.53125-14.671875 4.484375.375 7.3125 4.125 7.3125 7.890625 0 2.859375-1.96875 5.796875-4.78125 6.78125zm-15.84375-9.640625c0-6.53125 4.40625-11.484375 8.8125-16.421875.65625 2.40625 1.3125 4.828125 1.875 7.265625-4.125.953125-6.453125 4.421875-6.453125 8.015625 0 2.859375 1.484375 5.75 4.75 7.515625.125.03125.234375.078125.359375.078125.453125 0 .8125-.40625.8125-.859375 0-.203125-.109375-.40625-.28125-.578125-2.28125-1.296875-3.34375-3.265625-3.34375-5.0625 0-2.40625 1.875-4.5625 5.109375-4.9375 1.0625 4.90625 2 9.765625 2.609375 14.984375-1.109375.171875-2.203125.25-3.34375.25-5.5625 0-10.90625-4.703125-10.90625-10.25zm13.875-41.625c.703125 2.171875.859375 3.234375.859375 5.59375 0 5.1875-2.734375 9.3125-6.078125 13.28125-.734375-2.578125-1.359375-5.0625-1.359375-8.171875 0-4.53125 2.546875-8.65625 6.578125-10.703125zm0 0"/></symbol><symbol id="al" overflow="visible"><path d="m-.28125-15.3125.28125 23.484375c0 .359375.328125.6875.6875.6875.046875 0 .046875-.03125.09375-.03125l4.453125-.734375-.09375 7.21875c.296875.171875.65625.25.984375.25s.703125-.078125.984375-.25l-.28125-23.484375c0-.359375-.328125-.6875-.703125-.6875-.046875 0-.078125.03125-.125.03125l-4.453125.734375.09375-7.21875c-.296875-.171875-.625-.25-.953125-.25-.3125 0-.6875.078125-.96875.25zm5.671875 10.65625-.078125 8.703125-3.921875.609375.125-8.703125zm0 0"/></symbol><symbol id="am" overflow="visible"><path d="m0 0c0 1.3125 1.015625 2.328125 2.328125 2.328125s2.328125-1.015625 2.328125-2.328125-1.015625-2.328125-2.328125-2.328125-2.328125 1.015625-2.328125 2.328125zm0 0"/></symbol><symbol id="an" overflow="visible"><path d="m12.90625-2.734375c0 .40625-.125.859375-.40625 1.1875-.859375 1.015625-2.8125 2.28125-4.375 3.265625-1.546875.984375-3.515625 2.28125-4.78125 2.65625-.15625.03125-.359375.078125-.53125.078125-.890625 0-1.703125-.703125-1.703125-1.71875 0-.40625.109375-.859375.40625-1.1875.859375-1.015625 2.8125-2.28125 4.359375-3.265625 1.5625-.984375 3.515625-2.28125 4.78125-2.65625.171875-.03125.375-.078125.53125-.078125.90625 0 1.71875.703125 1.71875 1.71875zm-2.078125-2.78125c-3.0625 0-5.5625.65625-7.71875 2.125-1.3125.90625-2.171875 2.28125-2.65625 3.796875-.25.734375-.453125 1.546875-.453125 2.328125 0 1.921875 1.390625 2.78125 3.1875 2.78125 3.0625 0 5.546875-.65625 7.71875-2.125 1.3125-.90625 2.15625-2.28125 2.65625-3.796875.25-.734375.453125-1.546875.453125-2.328125 0-1.921875-1.390625-2.78125-3.1875-2.78125zm0 0"/></symbol><symbol id="ao" overflow="visible"><path d="m8.5 0v-15.9375h-2.09375c-.5 1.890625-2.140625 2.859375-4.875 2.859375v2.09375h3.8125v10.984375zm0 0"/></symbol><symbol id="ap" overflow="visible"><path d="m4.8125 0v-3.28125h-3.375v3.28125zm0 0"/></symbol><g clip-path="url(#a)"><path d="m5.664062 7308.914062h9909.960938" fill="none" stroke="#000" stroke-linecap="round" stroke-miterlimit="10" stroke-width="11.2839" transform="matrix(.06 0 0 -.06 0 512.07)"/></g><g clip-path="url(#b)"><path d="m5.664062 7479.096354h9909.960938" fill="none" stroke="#000" stroke-linecap="round" stroke-miterlimit="10" stroke-width="11.2839" transform="matrix(.06 0 0 -.06 0 512.07)"/></g><g clip-path="url(#c)"><path d="m5.664062 7649.278646h9909.960938" fill="none" stroke="#000" stroke-linecap="round" stroke-miterlimit="10" stroke-width="11.2839" transform="matrix(.06 0 0 -.06 0 512.07)"/></g><g clip-path="url(#d)"><path d="m5.664062 7819.526042h9909.960938" fill="none" stroke="#000" stroke-linecap="round" stroke-miterlimit="10" stroke-width="11.2839" transform="matrix(.06 0 0 -.06 0 512.07)"/></g><g clip-path="url(#e)"><path d="m5.664062 7989.708333h9909.960938" fill="none" stroke="#000" stroke-linecap="round" stroke-miterlimit="10" stroke-width="11.2839" transform="matrix(.06 0 0 -.06 0 512.07)"/></g><path d="m1731.184896 7138.731771h305.013021" fill="none" stroke="#000" stroke-linecap="round" stroke-miterlimit="10" stroke-width="28.3034" transform="matrix(.06 0 0 -.06 0 512.07)"/><path d="m5784.895833 7308.914062v680.794271" fill="none" stroke="#000" stroke-miterlimit="10" stroke-width="21.4446" transform="matrix(.06 0 0 -.06 0 512.07)"/><g clip-path="url(#f)"><path d="m9910.546875 7308.914062v680.794271" fill="none" stroke="#000" stroke-miterlimit="10" stroke-width="21.4446" transform="matrix(.06 0 0 -.06 0 512.07)"/></g><use x="406.029812" xlink:href="#y" y="137.00925"/><use x="414.363489" xlink:href="#z" y="137.00925"/><use x="428.309767" xlink:href="#A" y="137.00925"/><use x="533.161066" xlink:href="#ah" y="63.322103"/><path d="m7099.348958 7600.971354h8.072917v555.598958h-8.072917zm0 0" fill="none" stroke="#000" stroke-linejoin="round" stroke-miterlimit="10" stroke-width="6.63761" transform="matrix(.06 0 0 -.06 0 512.07)"/><path d="m425.960938 56.011719h.484374v-33.335938h-.484374zm0 0"/><use x="474.378949" xlink:href="#ah" y="63.322103"/><use x="456.554913" xlink:href="#B" y="108.416193"/><use x="477.645185" xlink:href="#C" y="108.416193"/><use x="491.591434" xlink:href="#D" y="108.416193"/><use x="467.099734" xlink:href="#C" y="137.00905"/><use x="481.045778" xlink:href="#D" y="137.00905"/><path d="m8117.1875 7515.880208h8.007812v555.598959h-8.007812zm0 0" fill="none" stroke="#000" stroke-linejoin="round" stroke-miterlimit="10" stroke-width="6.63761" transform="matrix(.06 0 0 -.06 0 512.07)"/><path d="m487.03125 61.117188h.480469v-33.335938h-.480469zm0 0"/><path d="m6119.661458 7515.880208h8.007813v555.598959h-8.007813zm0 0" fill="none" stroke="#000" stroke-linejoin="round" stroke-miterlimit="10" stroke-width="6.63761" transform="matrix(.06 0 0 -.06 0 512.07)"/><path d="m367.179688 61.117188h.480468v-33.335938h-.480468zm0 0"/><use x="399.736799" xlink:href="#E" y="108.416193"/><use x="412.322769" xlink:href="#F" y="108.416193"/><use x="426.269048" xlink:href="#G" y="108.416193"/><use x="413.309827" xlink:href="#ah" y="58.217092"/><path d="m2286.458333 6842.703125h103.320313v5.598958h-103.320313zm0 0" fill="none" stroke="#000" stroke-linejoin="round" stroke-miterlimit="10" stroke-width="9.03736" transform="matrix(.06 0 0 -.06 0 512.07)"/><path d="m137.1875 101.507812h6.199219v-.335937h-6.199219zm0 0"/><path d="m2275.846354 6366.140625h103.320313v5.664063h-103.320313zm0 0" fill="none" stroke="#000" stroke-linejoin="round" stroke-miterlimit="10" stroke-width="9.03736" transform="matrix(.06 0 0 -.06 0 512.07)"/><path d="m136.550781 130.101562h6.199219v-.339843h-6.199219zm0 0"/><path d="m4313.28125 6842.703125h103.255208v5.598958h-103.255208zm0 0" fill="none" stroke="#000" stroke-linejoin="round" stroke-miterlimit="10" stroke-width="9.03736" transform="matrix(.06 0 0 -.06 0 512.07)"/><path d="m258.796875 101.507812h6.195313v-.335937h-6.195313zm0 0"/><path d="m4399.739583 6366.140625h103.255209v5.664063h-103.255209zm0 0" fill="none" stroke="#000" stroke-linejoin="round" stroke-miterlimit="10" stroke-width="9.03736" transform="matrix(.06 0 0 -.06 0 512.07)"/><path d="m263.984375 130.101562h6.195313v-.339843h-6.195313zm0 0"/><path d="m5338.541667 6366.140625h103.320312v5.664063h-103.320312zm0 0" fill="none" stroke="#000" stroke-linejoin="round" stroke-miterlimit="10" stroke-width="9.03736" transform="matrix(.06 0 0 -.06 0 512.07)"/><path d="m320.3125 130.101562h6.195312v-.339843h-6.195312zm0 0"/><path d="m6458.072917 6842.703125h103.320312v5.598958h-103.320312zm0 0" fill="none" stroke="#000" stroke-linejoin="round" stroke-miterlimit="10" stroke-width="9.03736" transform="matrix(.06 0 0 -.06 0 512.07)"/><path d="m387.484375 101.507812h6.199219v-.335937h-6.199219zm0 0"/><path d="m6481.445312 6366.140625h103.320313v5.664063h-103.320313zm0 0" fill="none" stroke="#000" stroke-linejoin="round" stroke-miterlimit="10" stroke-width="9.03736" transform="matrix(.06 0 0 -.06 0 512.07)"/><path d="m388.886719 130.101562h6.199219v-.339843h-6.199219zm0 0"/><path d="m8549.153646 6842.703125h103.320312v5.598958h-103.320312zm0 0" fill="none" stroke="#000" stroke-linejoin="round" stroke-miterlimit="10" stroke-width="9.03736" transform="matrix(.06 0 0 -.06 0 512.07)"/><path d="m512.949219 101.507812h6.199219v-.335937h-6.199219zm0 0"/><path d="m8461.263021 6366.140625h103.320312v5.664063h-103.320312zm0 0" fill="none" stroke="#000" stroke-linejoin="round" stroke-miterlimit="10" stroke-width="9.03736" transform="matrix(.06 0 0 -.06 0 512.07)"/><path d="m507.675781 130.101562h6.199219v-.339843h-6.199219zm0 0"/><use x="539.82808" xlink:href="#ai" y="24.886026"/><path d="m9096.875 7515.880208h8.072917v555.598959h-8.072917zm0 0" fill="none" stroke="#000" stroke-linejoin="round" stroke-miterlimit="10" stroke-width="6.63761" transform="matrix(.06 0 0 -.06 0 512.07)"/><path d="m545.8125 61.117188h.484375v-33.335938h-.484375zm0 0"/><use x="526.563053" xlink:href="#D" y="137.00925"/><use x="540.509068" xlink:href="#H" y="137.00925"/><use x="546.121415" xlink:href="#I" y="137.00925"/><use x="526.563053" xlink:href="#D" y="108.416393"/><use x="540.509068" xlink:href="#H" y="108.416393"/><use x="546.121415" xlink:href="#I" y="108.416393"/><use x="96.270193" xlink:href="#J" y="108.416393"/><use x="110.216464" xlink:href="#C" y="108.416393"/><use x="124.162508" xlink:href="#A" y="108.416393"/><use x="150.803019" xlink:href="#K" y="108.416393"/><use x="162.878269" xlink:href="#C" y="108.416393"/><use x="176.824313" xlink:href="#B" y="108.416393"/><path d="m1983.463542 7175.515625h8.007812v555.533854h-8.007812zm0 0" fill="none" stroke="#000" stroke-linejoin="round" stroke-miterlimit="10" stroke-width="6.63761" transform="matrix(.06 0 0 -.06 0 512.07)"/><path d="m119.007812 81.539062h.480469v-33.332031h-.480469zm0 0"/><use x="101.116202" xlink:href="#L" y="137.00925"/><use x="117.954194" xlink:href="#M" y="137.00925"/><use x="67.349035" xlink:href="#ao" y="108.416393"/><use x="79.764384" xlink:href="#ap" y="108.416393"/><use x="167.691335" xlink:href="#ah" y="68.428113"/><use x="44.97009" xlink:href="#aj" y="53.110482"/><use x="54.199328" xlink:href="#aj" y="37.792851"/><use x="63.427857" xlink:href="#aj" y="58.216292"/><use x="72.657095" xlink:href="#aj" y="42.898662"/><use x="8.170066" xlink:href="#ak" y="63.322103"/><use x="106.355763" xlink:href="#ah" y="83.745543"/><use x="215.850982" xlink:href="#al" y="73.533823"/><use x="344.440689" xlink:href="#A" y="137.00925"/><use x="350.053036" xlink:href="#N" y="137.00925"/><use x="363.99908" xlink:href="#G" y="137.00925"/><use x="340.954352" xlink:href="#O" y="108.416393"/><use x="354.90063" xlink:href="#N" y="108.416393"/><use x="368.846674" xlink:href="#E" y="108.416393"/><use x="354.525709" xlink:href="#ah" y="63.322103"/><path d="m4965.169271 7430.789062h8.007812v555.598959h-8.007812zm0 0" fill="none" stroke="#000" stroke-linejoin="round" stroke-miterlimit="10" stroke-width="6.63761" transform="matrix(.06 0 0 -.06 0 512.07)"/><path d="m297.910156 66.222656h.480469v-33.332031h-.480469zm0 0"/><use x="281.464563" xlink:href="#P" y="137.00925"/><use x="288.438156" xlink:href="#Q" y="137.00925"/><use x="281.549407" xlink:href="#C" y="108.416393"/><use x="295.325998" xlink:href="#P" y="108.416393"/><use x="285.257571" xlink:href="#ah" y="68.428113"/><path d="m3985.416667 7345.697917h8.072916v555.533854h-8.072916zm0 0" fill="none" stroke="#000" stroke-linejoin="round" stroke-miterlimit="10" stroke-width="6.63761" transform="matrix(.06 0 0 -.06 0 512.07)"/><path d="m239.125 71.328125h.484375v-33.332031h-.484375zm0 0"/><use x="154.373309" xlink:href="#R" y="137.00925"/><use x="166.448559" xlink:href="#F" y="137.00925"/><use x="180.394838" xlink:href="#D" y="137.00925"/><path d="m3005.729167 7430.789062h8.007812v555.598959h-8.007812zm0 0" fill="none" stroke="#000" stroke-linejoin="round" stroke-miterlimit="10" stroke-width="6.63761" transform="matrix(.06 0 0 -.06 0 512.07)"/><path d="m180.34375 66.222656h.480469v-33.332031h-.480469zm0 0"/><use x="226.474453" xlink:href="#ah" y="73.534123"/><use x="224.042448" xlink:href="#S" y="108.416193"/><use x="236.628169" xlink:href="#H" y="108.416193"/><use x="213.582527" xlink:href="#Q" y="137.00905"/><use x="227.528571" xlink:href="#S" y="137.00905"/><use x="240.114526" xlink:href="#E" y="137.00905"/><g clip-path="url(#g)"><path d="m5.664062 5229.8125h9909.960938" style="fill:none;stroke-width:11.2839;stroke-linecap:round;stroke-linejoin:round;stroke:#000;stroke-miterlimit:10" transform="matrix(.06 0 0 -.06 0 512.07)"/></g><g clip-path="url(#h)"><path d="m5.664062 5399.994792h9909.960938" style="fill:none;stroke-width:11.2839;stroke-linecap:round;stroke-linejoin:round;stroke:#000;stroke-miterlimit:10" transform="matrix(.06 0 0 -.06 0 512.07)"/></g><g clip-path="url(#i)"><path d="m5.664062 5570.242188h9909.960938" style="fill:none;stroke-width:11.2839;stroke-linecap:round;stroke-linejoin:round;stroke:#000;stroke-miterlimit:10" transform="matrix(.06 0 0 -.06 0 512.07)"/></g><g clip-path="url(#j)"><path d="m5.664062 5740.424479h9909.960938" style="fill:none;stroke-width:11.2839;stroke-linecap:round;stroke-linejoin:round;stroke:#000;stroke-miterlimit:10" transform="matrix(.06 0 0 -.06 0 512.07)"/></g><g clip-path="url(#k)"><path d="m5.664062 5910.606771h9909.960938" style="fill:none;stroke-width:11.2839;stroke-linecap:round;stroke-linejoin:round;stroke:#000;stroke-miterlimit:10" transform="matrix(.06 0 0 -.06 0 512.07)"/></g><path d="m6163.28125 5229.8125v680.794271" fill="none" stroke="#000" stroke-linejoin="round" stroke-miterlimit="10" stroke-width="21.4446" transform="matrix(.06 0 0 -.06 0 512.07)"/><use x="581.195162" xlink:href="#am" y="172.750321"/><use x="581.195162" xlink:href="#am" y="182.962042"/><g clip-path="url(#l)"><path d="m9887.369792 5229.8125v680.794271" fill="none" stroke="#000" stroke-linejoin="round" stroke-miterlimit="10" stroke-width="67.7376" transform="matrix(.06 0 0 -.06 0 512.07)"/></g><path d="m9808.919271 5229.8125v680.794271" fill="none" stroke="#000" stroke-linejoin="round" stroke-miterlimit="10" stroke-width="21.4446" transform="matrix(.06 0 0 -.06 0 512.07)"/><use x="508.961018" xlink:href="#an" y="193.173362"/><use x="443.224986" xlink:href="#ah" y="188.067492"/><use x="438.837878" xlink:href="#y" y="232.16244"/><use x="447.002101" xlink:href="#C" y="232.16244"/><use x="439.602645" xlink:href="#T" y="260.755297"/><use x="446.236159" xlink:href="#C" y="260.755297"/><path d="m7597.981771 5436.84375h8.007812v555.533854h-8.007812zm0 0" fill="none" stroke="#000" stroke-linejoin="round" stroke-miterlimit="10" stroke-width="6.63761" transform="matrix(.06 0 0 -.06 0 512.07)"/><path d="m455.878906 185.859375h.480469v-33.332031h-.480469zm0 0"/><path d="m6502.34375 5436.84375h8.072917v555.533854h-8.072917zm0 0" fill="none" stroke="#000" stroke-linejoin="round" stroke-miterlimit="10" stroke-width="6.63761" transform="matrix(.06 0 0 -.06 0 512.07)"/><path d="m390.140625 185.859375h.480469v-33.332031h-.480469zm0 0"/><use x="367.403735" xlink:href="#K" y="260.755497"/><use x="379.989705" xlink:href="#U" y="260.755497"/><use x="393.935748" xlink:href="#P" y="260.755497"/><use x="377.183524" xlink:href="#C" y="232.16264"/><use x="377.488755" xlink:href="#ah" y="188.068352"/><path d="m2365.690104 4780.268229h103.255208v5.664063h-103.255208zm0 0" fill="none" stroke="#000" stroke-linejoin="round" stroke-miterlimit="10" stroke-width="9.03736" transform="matrix(.06 0 0 -.06 0 512.07)"/><path d="m141.941406 225.253906h6.195313v-.339844h-6.195313zm0 0"/><path d="m3381.184896 4303.705729h103.255208v5.664063h-103.255208zm0 0" fill="none" stroke="#000" stroke-linejoin="round" stroke-miterlimit="10" stroke-width="9.03736" transform="matrix(.06 0 0 -.06 0 512.07)"/><path d="m202.871094 253.847656h6.195312v-.339844h-6.195312zm0 0"/><path d="m4636.197917 4780.268229h103.320312v5.664063h-103.320312zm0 0" fill="none" stroke="#000" stroke-linejoin="round" stroke-miterlimit="10" stroke-width="9.03736" transform="matrix(.06 0 0 -.06 0 512.07)"/><path d="m278.171875 225.253906h6.199219v-.339844h-6.199219zm0 0"/><path d="m4469.661458 4303.705729h103.320313v5.664063h-103.320313zm0 0" fill="none" stroke="#000" stroke-linejoin="round" stroke-miterlimit="10" stroke-width="9.03736" transform="matrix(.06 0 0 -.06 0 512.07)"/><path d="m268.179688 253.847656h6.199218v-.339844h-6.199218zm0 0"/><path d="m6864.713542 4780.268229h103.320312v5.664063h-103.320312zm0 0" fill="none" stroke="#000" stroke-linejoin="round" stroke-miterlimit="10" stroke-width="9.03736" transform="matrix(.06 0 0 -.06 0 512.07)"/><path d="m411.882812 225.253906h6.195313v-.339844h-6.195313zm0 0"/><path d="m6952.604167 4303.705729h103.255208v5.664063h-103.255208zm0 0" fill="none" stroke="#000" stroke-linejoin="round" stroke-miterlimit="10" stroke-width="9.03736" transform="matrix(.06 0 0 -.06 0 512.07)"/><path d="m417.15625 253.847656h6.195312v-.339844h-6.195312zm0 0"/><path d="m7978.710937 4780.268229h103.320313v5.664063h-103.320313zm0 0" fill="none" stroke="#000" stroke-linejoin="round" stroke-miterlimit="10" stroke-width="9.03736" transform="matrix(.06 0 0 -.06 0 512.07)"/><path d="m478.722656 225.253906h6.199219v-.339844h-6.199219zm0 0"/><path d="m7972.330729 4303.705729h103.320313v5.664063h-103.320313zm0 0" fill="none" stroke="#000" stroke-linejoin="round" stroke-miterlimit="10" stroke-width="9.03736" transform="matrix(.06 0 0 -.06 0 512.07)"/><path d="m478.339844 253.847656h6.199218v-.339844h-6.199218zm0 0"/><use x="502.700005" xlink:href="#V" y="232.16244"/><use x="508.312352" xlink:href="#C" y="232.16244"/><use x="522.258602" xlink:href="#I" y="232.16244"/><path d="m8704.817708 5363.927083h8.072917v543.359375h-8.072917zm0 0" fill="none" stroke="#000" stroke-linejoin="round" stroke-miterlimit="10" stroke-width="6.63761" transform="matrix(.06 0 0 -.06 0 512.07)"/><path d="m522.289062 190.234375h.484376v-32.601563h-.484376zm0 0"/><use x="502.700005" xlink:href="#V" y="260.755497"/><use x="508.312352" xlink:href="#C" y="260.755497"/><use x="522.258602" xlink:href="#W" y="260.755497"/><path d="m1983.463542 5521.934896h8.007812v555.533854h-8.007812zm0 0" fill="none" stroke="#000" stroke-linejoin="round" stroke-miterlimit="10" stroke-width="6.63761" transform="matrix(.06 0 0 -.06 0 512.07)"/><path d="m119.007812 180.753906h.480469v-33.332031h-.480469zm0 0"/><use x="99.7563" xlink:href="#X" y="260.755497"/><use x="119.315862" xlink:href="#I" y="260.755497"/><use x="94.058158" xlink:href="#Y" y="232.16264"/><use x="110.896384" xlink:href="#B" y="232.16264"/><use x="106.355213" xlink:href="#ah" y="182.962342"/><use x="44.96949" xlink:href="#aj" y="177.856472"/><use x="54.198728" xlink:href="#aj" y="162.538841"/><use x="63.427257" xlink:href="#aj" y="182.962282"/><use x="72.656495" xlink:href="#aj" y="167.644651"/><use x="8.169466" xlink:href="#ak" y="188.068092"/><path d="m5227.734375 5351.6875h8.007812v555.598958h-8.007812zm0 0" fill="none" stroke="#000" stroke-linejoin="round" stroke-miterlimit="10" stroke-width="6.63761" transform="matrix(.06 0 0 -.06 0 512.07)"/><path d="m313.664062 190.96875h.480469v-33.335938h-.480469zm0 0"/><use x="287.437575" xlink:href="#D" y="260.755497"/><use x="301.383853" xlink:href="#C" y="260.755497"/><use x="315.329897" xlink:href="#K" y="260.755497"/><use x="293.731027" xlink:href="#Z" y="232.16264"/><use x="307.677306" xlink:href="#C" y="232.16264"/><use x="301.009602" xlink:href="#ah" y="193.173362"/><use x="224.649349" xlink:href="#al" y="198.279232"/><path d="m4132.096354 5266.661458h8.072917v555.533854h-8.072917zm0 0" fill="none" stroke="#000" stroke-linejoin="round" stroke-miterlimit="10" stroke-width="6.63761" transform="matrix(.06 0 0 -.06 0 512.07)"/><path d="m247.925781 196.074219h.484375v-33.335938h-.484375zm0 0"/><use x="228.760458" xlink:href="#A" y="260.755497"/><use x="234.372805" xlink:href="#C" y="260.755497"/><use x="248.149395" xlink:href="#P" y="260.755497"/><use x="215.06963" xlink:href="#Z" y="232.16264"/><use x="229.015674" xlink:href="#aa" y="232.16264"/><use x="240.921473" xlink:href="#C" y="232.16264"/><use x="254.867751" xlink:href="#D" y="232.16264"/><use x="235.274471" xlink:href="#ah" y="198.279372"/><use x="169.538439" xlink:href="#ah" y="193.173502"/><path d="m3036.523437 5351.6875h8.007813v555.598958h-8.007813zm0 0" fill="none" stroke="#000" stroke-linejoin="round" stroke-miterlimit="10" stroke-width="6.63761" transform="matrix(.06 0 0 -.06 0 512.07)"/><path d="m182.191406 190.96875h.480469v-33.335938h-.480469zm0 0"/><use x="158.092316" xlink:href="#ab" y="232.16244"/><use x="172.03836" xlink:href="#F" y="232.16244"/><use x="185.984639" xlink:href="#y" y="232.16244"/><use x="169.232138" xlink:href="#ac" y="260.755297"/><g clip-path="url(#m)"><path d="m5.664062 3105.658854h9909.960938" style="fill:none;stroke-width:11.2839;stroke-linecap:round;stroke-linejoin:round;stroke:#000;stroke-miterlimit:10" transform="matrix(.06 0 0 -.06 0 512.07)"/></g><g clip-path="url(#n)"><path d="m5.664062 3275.841146h9909.960938" style="fill:none;stroke-width:11.2839;stroke-linecap:round;stroke-linejoin:round;stroke:#000;stroke-miterlimit:10" transform="matrix(.06 0 0 -.06 0 512.07)"/></g><g clip-path="url(#o)"><path d="m5.664062 3446.023438h9909.960938" style="fill:none;stroke-width:11.2839;stroke-linecap:round;stroke-linejoin:round;stroke:#000;stroke-miterlimit:10" transform="matrix(.06 0 0 -.06 0 512.07)"/></g><g clip-path="url(#p)"><path d="m5.664062 3616.205729h9909.960938" style="fill:none;stroke-width:11.2839;stroke-linecap:round;stroke-linejoin:round;stroke:#000;stroke-miterlimit:10" transform="matrix(.06 0 0 -.06 0 512.07)"/></g><g clip-path="url(#q)"><path d="m5.664062 3786.388021h9909.960938" style="fill:none;stroke-width:11.2839;stroke-linecap:round;stroke-linejoin:round;stroke:#000;stroke-miterlimit:10" transform="matrix(.06 0 0 -.06 0 512.07)"/></g><path d="m6327.539062 3105.658854v680.729167" fill="none" stroke="#000" stroke-linejoin="round" stroke-miterlimit="10" stroke-width="21.4446" transform="matrix(.06 0 0 -.06 0 512.07)"/><g clip-path="url(#r)"><path d="m9910.546875 3105.658854v680.729167" fill="none" stroke="#000" stroke-linejoin="round" stroke-miterlimit="10" stroke-width="21.4446" transform="matrix(.06 0 0 -.06 0 512.07)"/></g><path d="m7588.541667 2882.026042h8.007812v527.213541h-8.007812zm0 0" fill="none" stroke="#000" stroke-linejoin="round" stroke-miterlimit="10" stroke-width="6.63761" transform="matrix(.06 0 0 -.06 0 512.07)"/><path d="m455.3125 339.148438h.480469v-31.632813h-.480469zm0 0"/><use x="441.541883" xlink:href="#O" y="361.473699"/><use x="455.487927" xlink:href="#C" y="361.473699"/><use x="469.434206" xlink:href="#S" y="361.473699"/><use x="455.11391" xlink:href="#ah" y="305.308586"/><path d="m6472.981771 2882.026042h8.007812v527.213541h-8.007812zm0 0" fill="none" stroke="#000" stroke-linejoin="round" stroke-miterlimit="10" stroke-width="6.63761" transform="matrix(.06 0 0 -.06 0 512.07)"/><path d="m388.378906 339.148438h.480469v-31.632813h-.480469zm0 0"/><use x="378.093756" xlink:href="#Z" y="361.473699"/><use x="392.0398" xlink:href="#ad" y="361.473699"/><use x="405.985844" xlink:href="#A" y="361.473699"/><use x="388.178776" xlink:href="#ah" y="305.308586"/><path d="m3705.273437 2625.059896h103.320313v5.664062h-103.320313zm0 0" fill="none" stroke="#000" stroke-linejoin="round" stroke-miterlimit="10" stroke-width="9.03736" transform="matrix(.06 0 0 -.06 0 512.07)"/><path d="m222.316406 354.566406h6.199219v-.339844h-6.199219zm0 0"/><path d="m4651.5625 2625.059896h103.255208v5.664062h-103.255208zm0 0" fill="none" stroke="#000" stroke-linejoin="round" stroke-miterlimit="10" stroke-width="9.03736" transform="matrix(.06 0 0 -.06 0 512.07)"/><path d="m279.09375 354.566406h6.195312v-.339844h-6.195312zm0 0"/><path d="m5822.786458 2625.059896h103.320313v5.664062h-103.320313zm0 0" fill="none" stroke="#000" stroke-linejoin="round" stroke-miterlimit="10" stroke-width="9.03736" transform="matrix(.06 0 0 -.06 0 512.07)"/><path d="m349.367188 354.566406h6.199218v-.339844h-6.199218zm0 0"/><path d="m7057.8125 2625.059896h103.320312v5.664062h-103.320312zm0 0" fill="none" stroke="#000" stroke-linejoin="round" stroke-miterlimit="10" stroke-width="9.03736" transform="matrix(.06 0 0 -.06 0 512.07)"/><path d="m423.46875 354.566406h6.199219v-.339844h-6.199219zm0 0"/><path d="m8176.236979 2625.059896h103.320313v5.664062h-103.320313zm0 0" fill="none" stroke="#000" stroke-linejoin="round" stroke-miterlimit="10" stroke-width="9.03736" transform="matrix(.06 0 0 -.06 0 512.07)"/><path d="m490.574219 354.566406h6.199219v-.339844h-6.199219zm0 0"/><path d="m8704.166667 2938.731771h8.007812v543.359375h-8.007812zm0 0" fill="none" stroke="#000" stroke-linejoin="round" stroke-miterlimit="10" stroke-width="6.63761" transform="matrix(.06 0 0 -.06 0 512.07)"/><path d="m522.246094 335.746094h.484375v-32.601563h-.484375zm0 0"/><use x="505.329011" xlink:href="#S" y="361.473699"/><use x="517.914746" xlink:href="#C" y="361.473699"/><use x="531.860995" xlink:href="#D" y="361.473699"/><use x="545.80701" xlink:href="#I" y="361.473699"/><use x="522.050044" xlink:href="#an" y="300.202576"/><use x="83.683967" xlink:href="#ae" y="361.473699"/><use x="101.882277" xlink:href="#N" y="361.473699"/><use x="115.828548" xlink:href="#Z" y="361.473699"/><use x="129.774592" xlink:href="#aa" y="361.473699"/><use x="106.355213" xlink:href="#ah" y="310.414597"/><use x="44.96949" xlink:href="#aj" y="305.308966"/><use x="54.198728" xlink:href="#aj" y="289.991336"/><use x="63.427257" xlink:href="#aj" y="310.414577"/><use x="72.656495" xlink:href="#aj" y="295.097246"/><use x="8.169466" xlink:href="#ak" y="315.520487"/><path d="m1983.463542 3397.716146h8.007812v555.533854h-8.007812zm0 0" fill="none" stroke="#000" stroke-linejoin="round" stroke-miterlimit="10" stroke-width="6.63761" transform="matrix(.06 0 0 -.06 0 512.07)"/><path d="m119.007812 308.207031h.480469v-33.332031h-.480469zm0 0"/><use x="243.459487" xlink:href="#ah" y="315.520607"/><path d="m5384.114583 3397.716146h8.072917v555.533854h-8.072917zm0 0" fill="none" stroke="#000" stroke-linejoin="round" stroke-miterlimit="10" stroke-width="6.63761" transform="matrix(.06 0 0 -.06 0 512.07)"/><path d="m323.046875 308.207031h.480469v-33.332031h-.480469zm0 0"/><use x="307.282615" xlink:href="#A" y="361.473699"/><use x="312.894962" xlink:href="#ac" y="361.473699"/><use x="310.394621" xlink:href="#ah" y="310.414597"/><path d="m4268.554687 3312.625h8.007813v555.533854h-8.007813zm0 0" fill="none" stroke="#000" stroke-linejoin="round" stroke-miterlimit="10" stroke-width="6.63761" transform="matrix(.06 0 0 -.06 0 512.07)"/><path d="m256.113281 313.3125h.480469v-33.332031h-.480469zm0 0"/><use x="243.153486" xlink:href="#C" y="361.473699"/><path d="m3152.929687 3397.716146h8.072917v555.533854h-8.072917zm0 0" fill="none" stroke="#000" stroke-linejoin="round" stroke-miterlimit="10" stroke-width="6.63761" transform="matrix(.06 0 0 -.06 0 512.07)"/><path d="m189.175781 308.207031h.484375v-33.332031h-.484375zm0 0"/><use x="158.699317" xlink:href="#B" y="361.473699"/><use x="179.789589" xlink:href="#C" y="361.473699"/><use x="193.735868" xlink:href="#Z" y="361.473699"/><use x="176.524353" xlink:href="#ah" y="310.414597"/><g clip-path="url(#s)"><path d="m5.664062 1063.276042h9909.960938" style="fill:none;stroke-width:11.2839;stroke-linecap:round;stroke-linejoin:round;stroke:#000;stroke-miterlimit:10" transform="matrix(.06 0 0 -.06 0 512.07)"/></g><g clip-path="url(#t)"><path d="m5.664062 1233.458333h9909.960938" style="fill:none;stroke-width:11.2839;stroke-linecap:round;stroke-linejoin:round;stroke:#000;stroke-miterlimit:10" transform="matrix(.06 0 0 -.06 0 512.07)"/></g><g clip-path="url(#u)"><path d="m5.664062 1403.640625h9909.960938" style="fill:none;stroke-width:11.2839;stroke-linecap:round;stroke-linejoin:round;stroke:#000;stroke-miterlimit:10" transform="matrix(.06 0 0 -.06 0 512.07)"/></g><g clip-path="url(#v)"><path d="m5.664062 1573.888021h9909.960938" style="fill:none;stroke-width:11.2839;stroke-linecap:round;stroke-linejoin:round;stroke:#000;stroke-miterlimit:10" transform="matrix(.06 0 0 -.06 0 512.07)"/></g><g clip-path="url(#w)"><path d="m5.664062 1744.070313h9909.960938" style="fill:none;stroke-width:11.2839;stroke-linecap:round;stroke-linejoin:round;stroke:#000;stroke-miterlimit:10" transform="matrix(.06 0 0 -.06 0 512.07)"/></g><path d="m6203.776042 1063.276042v680.794271" fill="none" stroke="#000" stroke-linejoin="round" stroke-miterlimit="10" stroke-width="21.4446" transform="matrix(.06 0 0 -.06 0 512.07)"/><g clip-path="url(#x)"><path d="m9887.369792 1063.276042v680.794271" fill="none" stroke="#000" stroke-linejoin="round" stroke-miterlimit="10" stroke-width="67.7376" transform="matrix(.06 0 0 -.06 0 512.07)"/></g><path d="m9808.919271 1063.276042v680.794271" fill="none" stroke="#000" stroke-linejoin="round" stroke-miterlimit="10" stroke-width="21.4446" transform="matrix(.06 0 0 -.06 0 512.07)"/><path d="m7648.958333 1270.242188h8.007813v555.598958h-8.007813zm0 0" fill="none" stroke="#000" stroke-linejoin="round" stroke-miterlimit="10" stroke-width="6.63761" transform="matrix(.06 0 0 -.06 0 512.07)"/><path d="m458.933594 435.855469h.484375v-33.335938h-.484375zm0 0"/><use x="432.710865" xlink:href="#O" y="484.116044"/><use x="446.656909" xlink:href="#C" y="484.116044"/><use x="460.602953" xlink:href="#S" y="484.116044"/><use x="446.282893" xlink:href="#ah" y="438.061252"/><path d="m6543.229167 1270.242188h8.007812v555.598958h-8.007812zm0 0" fill="none" stroke="#000" stroke-linejoin="round" stroke-miterlimit="10" stroke-width="6.63761" transform="matrix(.06 0 0 -.06 0 512.07)"/><path d="m392.59375 435.855469h.480469v-33.335938h-.480469zm0 0"/><use x="376.827754" xlink:href="#A" y="484.116044"/><use x="382.440101" xlink:href="#C" y="484.116044"/><use x="379.94076" xlink:href="#ah" y="438.061252"/><path d="m2375.716146 581.049479h103.255208v5.664063h-103.255208zm0 0" fill="none" stroke="#000" stroke-linejoin="round" stroke-miterlimit="10" stroke-width="9.03736" transform="matrix(.06 0 0 -.06 0 512.07)"/><path d="m142.539062 477.207031h6.199219v-.335937h-6.199219zm0 0"/><path d="m4482.942708 581.049479h103.255209v5.664063h-103.255209zm0 0" fill="none" stroke="#000" stroke-linejoin="round" stroke-miterlimit="10" stroke-width="9.03736" transform="matrix(.06 0 0 -.06 0 512.07)"/><path d="m268.976562 477.207031h6.195313v-.335937h-6.195313zm0 0"/><path d="m6857.486979 581.049479h103.255208v5.664063h-103.255208zm0 0" fill="none" stroke="#000" stroke-linejoin="round" stroke-miterlimit="10" stroke-width="9.03736" transform="matrix(.06 0 0 -.06 0 512.07)"/><path d="m411.449219 477.207031h6.195312v-.335937h-6.195312zm0 0"/><path d="m8024.088542 581.049479h103.320312v5.664063h-103.320312zm0 0" fill="none" stroke="#000" stroke-linejoin="round" stroke-miterlimit="10" stroke-width="9.03736" transform="matrix(.06 0 0 -.06 0 512.07)"/><path d="m481.445312 477.207031h6.199219v-.335937h-6.199219zm0 0"/><path d="m8765.950521 1197.390625h8.007812v543.359375h-8.007812zm0 0" fill="none" stroke="#000" stroke-linejoin="round" stroke-miterlimit="10" stroke-width="6.63761" transform="matrix(.06 0 0 -.06 0 512.07)"/><path d="m525.953125 440.226562h.484375v-32.601562h-.484375zm0 0"/><use x="495.905992" xlink:href="#S" y="484.116044"/><use x="508.491962" xlink:href="#C" y="484.116044"/><use x="522.438211" xlink:href="#D" y="484.116044"/><use x="536.384225" xlink:href="#af" y="484.116044"/><use x="519.632039" xlink:href="#ai" y="404.391785"/><use x="512.626795" xlink:href="#an" y="443.166862"/><use x="8.169786" xlink:href="#ak" y="438.060992"/><path d="m1983.463542 1355.398438h8.007812v555.533854h-8.007812zm0 0" fill="none" stroke="#000" stroke-linejoin="round" stroke-miterlimit="10" stroke-width="6.63761" transform="matrix(.06 0 0 -.06 0 512.07)"/><path d="m119.007812 430.746094h.480469v-33.332032h-.480469zm0 0"/><use x="90.656681" xlink:href="#ag" y="484.116044"/><use x="107.494673" xlink:href="#C" y="484.116044"/><use x="121.440944" xlink:href="#D" y="484.116044"/><use x="106.355213" xlink:href="#ah" y="432.955342"/><use x="44.96949" xlink:href="#aj" y="427.849472"/><use x="54.198728" xlink:href="#aj" y="412.531841"/><use x="63.427257" xlink:href="#aj" y="432.955282"/><use x="72.656495" xlink:href="#aj" y="417.637651"/><use x="232.100464" xlink:href="#y" y="484.116044"/><use x="240.264702" xlink:href="#ac" y="484.116044"/><path d="m5258.072917 1185.151042h8.007812v555.598958h-8.007812zm0 0" fill="none" stroke="#000" stroke-linejoin="round" stroke-miterlimit="10" stroke-width="6.63761" transform="matrix(.06 0 0 -.06 0 512.07)"/><path d="m315.484375 440.960938h.480469v-33.335938h-.480469zm0 0"/><use x="289.93958" xlink:href="#S" y="484.116044"/><use x="302.52555" xlink:href="#E" y="484.116044"/><use x="315.111519" xlink:href="#C" y="484.116044"/><use x="302.830606" xlink:href="#ah" y="443.167162"/><use x="225.863852" xlink:href="#al" y="448.273032"/><path d="m4152.34375 1100.059896h8.072917v555.598958h-8.072917zm0 0" fill="none" stroke="#000" stroke-linejoin="round" stroke-miterlimit="10" stroke-width="6.63761" transform="matrix(.06 0 0 -.06 0 512.07)"/><path d="m249.140625 446.066406h.480469v-33.332031h-.480469zm0 0"/><use x="236.488473" xlink:href="#ah" y="448.272972"/><path d="m3046.614583 1185.151042h8.072917v555.598958h-8.072917zm0 0" fill="none" stroke="#000" stroke-linejoin="round" stroke-miterlimit="10" stroke-width="6.63761" transform="matrix(.06 0 0 -.06 0 512.07)"/><path d="m182.796875 440.960938h.484375v-33.335938h-.484375zm0 0"/><use x="155.893312" xlink:href="#D" y="484.116044"/><use x="169.83959" xlink:href="#C" y="484.116044"/><use x="183.785634" xlink:href="#G" y="484.116044"/><use x="170.14434" xlink:href="#ah" y="443.167162"/></svg>