<svg height="347.37em" viewBox="0 0 595.28 347.37" width="595.28em" xmlns="http://www.w3.org/2000/svg" xmlns:xlink="http://www.w3.org/1999/xlink"><clipPath id="a"><path d="m0 62h595.28125v1h-595.28125zm0 0"/></clipPath><clipPath id="b"><path d="m0 52h595.28125v2h-595.28125zm0 0"/></clipPath><clipPath id="c"><path d="m0 43h595.28125v2h-595.28125zm0 0"/></clipPath><clipPath id="d"><path d="m0 34h595.28125v2h-595.28125zm0 0"/></clipPath><clipPath id="e"><path d="m0 25h595.28125v1h-595.28125zm0 0"/></clipPath><clipPath id="f"><path d="m594 24h1.28125v40h-1.28125zm0 0"/></clipPath><clipPath id="g"><path d="m0 172h595.28125v2h-595.28125zm0 0"/></clipPath><clipPath id="h"><path d="m0 163h595.28125v2h-595.28125zm0 0"/></clipPath><clipPath id="i"><path d="m0 154h595.28125v1h-595.28125zm0 0"/></clipPath><clipPath id="j"><path d="m0 145h595.28125v1h-595.28125zm0 0"/></clipPath><clipPath id="k"><path d="m0 135h595.28125v2h-595.28125zm0 0"/></clipPath><clipPath id="l"><path d="m594 135h1.28125v39h-1.28125zm0 0"/></clipPath><clipPath id="m"><path d="m0 283h595.28125v1h-595.28125zm0 0"/></clipPath><clipPath id="n"><path d="m0 274h595.28125v1h-595.28125zm0 0"/></clipPath><clipPath id="o"><path d="m0 264h595.28125v2h-595.28125zm0 0"/></clipPath><clipPath id="p"><path d="m0 255h595.28125v2h-595.28125zm0 0"/></clipPath><clipPath id="q"><path d="m0 246h595.28125v2h-595.28125zm0 0"/></clipPath><clipPath id="r"><path d="m591 244h4.28125v42h-4.28125zm0 0"/></clipPath><symbol id="s" overflow="visible"><path d="m5.78125 0v-1.59375c-.25.0625-.546875.09375-.90625.09375-.828125 0-1.046875-.234375-1.046875-1.078125v-7.796875h1.953125v-1.546875h-1.953125v-3.28125h-1.890625v3.28125h-1.625v1.546875h1.625v8.640625c0 1.21875.8125 1.890625 2.296875 1.890625.453125 0 .90625-.046875 1.546875-.15625zm0 0"/></symbol><symbol id="t" overflow="visible"><path d="m11.671875-5.421875c0-1.71875-.140625-2.8125-.484375-3.703125-.765625-1.953125-2.59375-3.140625-4.8125-3.140625-3.328125 0-5.46875 2.453125-5.46875 6.375 0 3.90625 2.078125 6.234375 5.421875 6.234375 2.71875 0 4.609375-1.546875 5.09375-3.96875h-1.90625c-.53125 1.578125-1.59375 2.21875-3.125 2.21875-1.984375 0-3.453125-1.28125-3.5-4.015625zm-2.03125-1.671875s0 .09375-.015625.125h-6.6875c.15625-2.109375 1.5-3.546875 3.40625-3.546875 1.875 0 3.296875 1.546875 3.296875 3.421875zm0 0"/></symbol><symbol id="u" overflow="visible"><path d="m17.3125 0v-16.578125h-2.9375l-4.8125 14.4375-4.921875-14.4375h-2.9375v16.578125h2v-13.90625l4.71875 13.90625h2.21875l4.671875-13.90625v13.90625zm0 0"/></symbol><symbol id="v" overflow="visible"><path d="m10.4375-3.34375c0-1.78125-1-2.65625-3.359375-3.234375l-1.828125-.421875c-1.546875-.375-2.203125-.875-2.203125-1.71875 0-1.09375.984375-1.796875 2.53125-1.796875 1.515625 0 2.34375.671875 2.390625 1.921875h2c-.03125-2.34375-1.578125-3.671875-4.328125-3.671875-2.78125 0-4.578125 1.4375-4.578125 3.640625 0 1.875.96875 2.75 3.78125 3.4375l1.78125.4375c1.3125.3125 1.84375.703125 1.84375 1.5625 0 1.125-1.125 1.78125-2.78125 1.78125-1.703125 0-2.65625-.40625-2.90625-2.234375h-2c.078125 2.75 1.625 3.984375 4.75 3.984375 3 0 4.90625-1.390625 4.90625-3.6875zm0 0"/></symbol><symbol id="w" overflow="visible"><path d="m7.296875-10.265625v-1.921875c-.3125-.046875-.46875-.078125-.71875-.078125-1.234375 0-2.171875.734375-3.25 2.5v-2.15625h-1.734375v11.921875h1.890625v-6.1875c0-2.6875.890625-4.03125 3.8125-4.078125zm0 0"/></symbol><symbol id="x" overflow="visible"><path d="m10.96875 0v-11.921875h-1.890625v6.578125c0 2.4375-1.28125 4.03125-3.25 4.03125-1.5 0-2.46875-.921875-2.46875-2.34375v-8.265625h-1.875v9.015625c0 1.96875 1.46875 3.25 3.796875 3.25 1.75 0 2.859375-.609375 3.984375-2.1875v1.84375zm-5.46875-13.734375v-2.328125h-2.0625v2.328125zm3.6875 0v-2.328125h-2.0625v2.328125zm0 0"/></symbol><symbol id="y" overflow="visible"><path d="m11.078125 0v-9.015625c0-1.96875-1.484375-3.25-3.78125-3.25-1.765625 0-2.90625.6875-3.953125 2.34375v-2h-1.75v11.921875h1.890625v-6.578125c0-2.4375 1.3125-4.015625 3.25-4.015625 1.5 0 2.453125.90625 2.453125 2.328125v8.265625zm0 0"/></symbol><symbol id="z" overflow="visible"><path d="m11.421875 0-4.875-7.796875 4.140625-4.125h-2.421875l-5.0625 5.046875v-9.703125h-1.890625v16.578125h1.890625v-4.640625l1.84375-1.828125 4.03125 6.46875zm0 0"/></symbol><symbol id="A" overflow="visible"><path d="m4.375.359375v-2.71875h-2.390625v2.359375h1.359375v.40625c0 1.578125-.296875 2.03125-1.359375 2.078125v.859375c1.59375 0 2.390625-1.015625 2.390625-2.984375zm0 0"/></symbol><symbol id="B" overflow="visible"><path d="m11.125-1.953125v-9.96875h-1.75v1.734375c-.953125-1.421875-2.125-2.078125-3.640625-2.078125-3.03125 0-5.078125 2.546875-5.078125 6.421875 0 3.75 2.125 6.1875 4.921875 6.1875 1.5 0 2.546875-.640625 3.796875-2.140625v.796875c0 3.15625-1.296875 4.359375-3.5 4.359375-1.5 0-2.671875-.53125-2.890625-2h-1.9375c.203125 2.265625 1.953125 3.59375 4.75 3.59375 3.734375 0 5.328125-1.65625 5.328125-6.90625zm-1.9375-3.9375c0 2.84375-1.21875 4.484375-3.234375 4.484375-2.0625 0-3.3125-1.671875-3.3125-4.546875s1.265625-4.5625 3.296875-4.5625c2.046875 0 3.25 1.734375 3.25 4.625zm0 0"/></symbol><symbol id="C" overflow="visible"><path d="m10.875-11.921875h-2.046875l-3.296875 9.28125-3.046875-9.28125h-2.03125l4.03125 11.96875-.734375 1.890625c-.3125.84375-.703125 1.15625-1.515625 1.15625-.28125 0-.59375-.046875-1-.140625v1.703125c.375.21875.765625.296875 1.265625.296875 1.34375 0 2.4375-.75 3.078125-2.453125zm0 0"/></symbol><symbol id="D" overflow="visible"><path d="m9.6875-4.25v-12.328125h-2.109375v11.546875c0 2.734375-.9375 3.671875-2.546875 3.671875-1.59375 0-2.484375-1.078125-2.484375-3.015625v-.953125h-2.109375v1.34375c0 2.6875 1.671875 4.390625 4.5625 4.390625s4.6875-1.796875 4.6875-4.65625zm0 0"/></symbol><symbol id="E" overflow="visible"><path d="m11.671875-5.421875c0-1.71875-.140625-2.8125-.484375-3.703125-.765625-1.953125-2.59375-3.140625-4.8125-3.140625-3.328125 0-5.46875 2.453125-5.46875 6.375 0 3.90625 2.078125 6.234375 5.421875 6.234375 2.71875 0 4.609375-1.546875 5.09375-3.96875h-1.90625c-.53125 1.578125-1.59375 2.21875-3.125 2.21875-1.984375 0-3.453125-1.28125-3.5-4.015625zm-2.03125-1.671875s0 .09375-.015625.125h-6.6875c.15625-2.109375 1.5-3.546875 3.40625-3.546875 1.875 0 3.296875 1.546875 3.296875 3.421875zm.796875-9.484375h-2.5625l-2.1875 3.359375h1.359375zm0 0"/></symbol><symbol id="F" overflow="visible"><path d="m10.96875 0v-11.921875h-1.890625v6.578125c0 2.4375-1.28125 4.03125-3.25 4.03125-1.5 0-2.46875-.921875-2.46875-2.34375v-8.265625h-1.875v9.015625c0 1.96875 1.46875 3.25 3.796875 3.25 1.75 0 2.859375-.609375 3.984375-2.1875v1.84375zm0 0"/></symbol><symbol id="G" overflow="visible"><path d="m14.96875 0-6.828125-9.828125 6.765625-6.75h-2.734375l-8.265625 8.390625v-8.390625h-2.109375v16.578125h2.109375v-5.796875l2.71875-2.71875 5.84375 8.515625zm0 0"/></symbol><symbol id="H" overflow="visible"><path d="m3.484375 0v-11.921875h-1.890625v11.921875zm.25-13.71875v-2.359375h-2.375v2.359375zm0 0"/></symbol><symbol id="I" overflow="visible"><path d="m10.390625 0v-1.65625h-7.390625l7.078125-8.578125v-1.6875h-8.890625v1.65625h6.640625l-7.125 8.5625v1.703125zm0 0"/></symbol><symbol id="J" overflow="visible"><path d="m10.859375-4.09375h-1.921875c-.3125 1.90625-1.296875 2.6875-2.90625 2.6875-2.09375 0-3.34375-1.625-3.34375-4.4375 0-2.984375 1.21875-4.671875 3.296875-4.671875 1.59375 0 2.59375.9375 2.8125 2.59375h1.921875c-.234375-2.90625-2.046875-4.34375-4.71875-4.34375-3.203125 0-5.296875 2.453125-5.296875 6.421875 0 3.84375 2.046875 6.1875 5.28125 6.1875 2.84375 0 4.640625-1.703125 4.875-4.4375zm0 0"/></symbol><symbol id="K" overflow="visible"><path d="m11.890625-6.09375c0-3.875-1.953125-6.171875-5.09375-6.171875-1.625 0-2.796875.625-3.6875 1.953125v-6.265625h-1.875v16.578125h1.703125v-1.703125c.90625 1.390625 2.109375 2.046875 3.78125 2.046875 3.125 0 5.171875-2.578125 5.171875-6.4375zm-1.96875.109375c0 2.703125-1.40625 4.546875-3.484375 4.546875-2 0-3.328125-1.8125-3.328125-4.515625 0-2.8125 1.328125-4.625 3.328125-4.53125 2.109375 0 3.484375 1.84375 3.484375 4.5zm0 0"/></symbol><symbol id="L" overflow="visible"><path d="m11.609375-5.875c0-4.109375-1.984375-6.390625-5.421875-6.390625-3.34375 0-5.375 2.296875-5.375 6.3125 0 4 2.015625 6.296875 5.390625 6.296875 3.359375 0 5.40625-2.296875 5.40625-6.21875zm-1.984375-.015625c0 2.796875-1.328125 4.484375-3.421875 4.484375-2.109375 0-3.40625-1.671875-3.40625-4.546875s1.296875-4.5625 3.40625-4.5625c2.140625 0 3.421875 1.671875 3.421875 4.625zm-4.125-7.84375v-2.328125h-2.0625v2.328125zm3.6875 0v-2.328125h-2.0625v2.328125zm0 0"/></symbol><symbol id="M" overflow="visible"><path d="m3.4375 0v-16.578125h-1.890625v16.578125zm0 0"/></symbol><symbol id="N" overflow="visible"><path d="m6.46875-5.453125v-1.640625h-5.421875v1.640625zm0 0"/></symbol><symbol id="O" overflow="visible"><path d="m11.0625-11.921875h-2.140625l-3.375 9.671875-3.1875-9.671875h-2.125l4.171875 11.921875h2.078125zm0 0"/></symbol><symbol id="P" overflow="visible"><path d="m11.265625 0v-16.578125h-1.890625v6.15625c-.796875-1.203125-2.078125-1.84375-3.671875-1.84375-3.09375 0-5.109375 2.390625-5.109375 6.1875 0 4.03125 1.984375 6.421875 5.1875 6.421875 1.640625 0 2.765625-.609375 3.796875-2.09375v1.75zm-1.890625-5.921875c0 2.765625-1.328125 4.484375-3.328125 4.484375-2.09375 0-3.46875-1.75-3.46875-4.515625 0-2.78125 1.375-4.53125 3.453125-4.53125 2.046875 0 3.34375 1.8125 3.34375 4.5625zm0 0"/></symbol><symbol id="Q" overflow="visible"><path d="m4.34375 0v-2.359375h-2.359375v2.359375zm0 0"/></symbol><symbol id="R" overflow="visible"><path d="m13.953125 0v-1.859375h-9.796875v-5.6875h9.03125v-1.875h-9.03125v-5.296875h9.375v-1.859375h-11.484375v16.578125zm-1.265625-20.84375h-3.09375l-2.609375 3.03125h1.640625zm0 0"/></symbol><symbol id="S" overflow="visible"><path d="m11.609375-5.875c0-4.109375-1.984375-6.390625-5.421875-6.390625-3.34375 0-5.375 2.296875-5.375 6.3125 0 4 2.015625 6.296875 5.390625 6.296875 3.359375 0 5.40625-2.296875 5.40625-6.21875zm-1.984375-.015625c0 2.796875-1.328125 4.484375-3.421875 4.484375-2.109375 0-3.40625-1.671875-3.40625-4.546875s1.296875-4.5625 3.40625-4.5625c2.140625 0 3.421875 1.671875 3.421875 4.625zm0 0"/></symbol><symbol id="T" overflow="visible"><path d="m8.1875-4.96875c-1.546875 0-3.03125.515625-4.359375 1.3125-1.734375 1.046875-3.828125 2.84375-3.828125 5.46875 0 2.171875 1.921875 3.15625 3.875 3.15625 1.546875 0 3.015625-.515625 4.34375-1.3125 1.734375-1.046875 3.796875-2.84375 3.796875-5.46875 0-2.171875-1.875-3.15625-3.828125-3.15625zm0 0"/></symbol><symbol id="U" overflow="visible"><path d="m.921875-1.625c.03125-1.21875.84375-2.28125 1.984375-2.28125 1.109375 0 1.625 1.296875 1.625 2.546875 0 2.171875-1.84375 3.71875-3.53125 5.125-.078125-.8125-.15625-1.625-.15625-2.4375 0-.15625.046875-.265625.046875-.40625zm-1.84375-15.4375.40625 22.078125c0 .4375.328125.765625.78125.765625.65625 0 .953125-.765625 1.46875-1.171875 2.3125-1.875 5.640625-3.203125 5.640625-6.234375 0-1.984375-1.484375-3.6875-3.4375-3.6875-1.171875 0-2.28125.40625-3.234375 1.109375l.21875-12.859375c-.296875-.15625-.59375-.265625-.921875-.265625s-.625.109375-.921875.265625zm0 0"/></symbol><symbol id="V" overflow="visible"><path d="m13.78125-9.578125c-.578125-2.578125-1.28125-5.125-2.015625-7.671875 3.53125-4.015625 6.734375-8.140625 6.734375-13.453125 0-4.171875-2.28125-10.140625-4.859375-13.234375-.1875-.140625-.40625-.140625-.59375 0-3.5 2.546875-5.53125 6.59375-5.53125 10.875 0 1.921875.046875 3.796875.265625 5.671875.25 2.40625.875 4.71875 1.546875 7.046875-4.359375 4.9375-9.25 9.65625-9.25 16.21875 0 7.40625 5.34375 13.703125 12.265625 13.703125 1.140625 0 2.21875-.109375 3.28125-.296875.109375 1.1875.1875 2.359375.1875 3.546875 0 .65625-.03125 1.28125-.078125 1.953125-.21875 3.640625-2.46875 7-5.890625 7.078125-.046875 0-.078125.03125-.109375.03125-1.890625 0-3.5-1.0625-4.46875-2.578125.40625.1875.859375.328125 1.296875.328125 1.921875 0 3.5-1.578125 3.5-3.5 0-2.0625-1.515625-3.828125-3.5-3.828125-2.171875 0-4.125 1.6875-4.125 3.828125 0 3.984375 3.203125 7.1875 7.1875 7.1875 4.34375 0 7.328125-3.90625 7.59375-8.328125.03125-.703125.03125-1.359375.03125-2.0625 0-1.328125-.078125-2.65625-.1875-3.984375.96875-.296875 1.890625-.734375 2.6875-1.359375 2.734375-2.03125 3.953125-4.859375 3.953125-7.671875 0-4.859375-3.6875-9.546875-9.359375-9.546875-.1875 0-.375.046875-.5625.046875zm3.140625 17.140625c-.515625-4.578125-1.375-8.921875-2.28125-13.234375 4.046875.328125 6.59375 3.71875 6.59375 7.109375 0 2.578125-1.765625 5.234375-4.3125 6.125zm-14.3125-8.703125c0-5.90625 3.984375-10.359375 7.96875-14.8125.59375 2.171875 1.1875 4.34375 1.703125 6.546875-3.734375.859375-5.828125 3.984375-5.828125 7.234375 0 2.578125 1.328125 5.1875 4.265625 6.78125.125.03125.234375.078125.34375.078125.40625 0 .734375-.375.734375-.78125 0-.1875-.109375-.375-.265625-.515625-2.0625-1.171875-3.015625-2.953125-3.015625-4.5625 0-2.1875 1.6875-4.140625 4.609375-4.46875.953125 4.421875 1.796875 8.8125 2.359375 13.53125-1 .140625-2 .21875-3.03125.21875-5 0-9.84375-4.234375-9.84375-9.25zm12.546875-37.5625c.625 1.953125.765625 2.90625.765625 5.046875 0 4.6875-2.46875 8.40625-5.484375 11.984375-.671875-2.328125-1.21875-4.578125-1.21875-7.375 0-4.09375 2.28125-7.8125 5.9375-9.65625zm0 0"/></symbol><symbol id="W" overflow="visible"><path d="m-2.328125-1.734375c0 1.296875 1.03125 2.328125 2.328125 2.328125s2.328125-1.03125 2.328125-2.328125c0-1.28125-1.03125-2.3125-2.328125-2.3125s-2.328125 1.03125-2.328125 2.3125zm2.328125-11.53125c-5.71875 0-12.125 6.375-12.125 13.34375 0 .296875.296875.515625.59375.515625.25 0 .546875-.1875.625-.59375.953125-5.484375 5.421875-9.765625 10.90625-9.765625s9.953125 4.28125 10.90625 9.765625c.078125.40625.375.59375.625.59375.296875 0 .59375-.21875.59375-.515625 0-6.96875-6.375-13.34375-12.125-13.34375zm0 0"/></symbol><symbol id="X" overflow="visible"><path d="m11.640625-2.46875c0 .375-.109375.765625-.359375 1.0625-.78125.921875-2.546875 2.0625-3.953125 2.953125-1.390625.890625-3.15625 2.0625-4.3125 2.390625-.140625.046875-.328125.078125-.46875.078125-.8125 0-1.546875-.625-1.546875-1.546875 0-.375.109375-.765625.359375-1.0625.78125-.921875 2.546875-2.0625 3.953125-2.953125 1.390625-.890625 3.171875-2.0625 4.3125-2.390625.140625-.046875.328125-.078125.46875-.078125.8125 0 1.546875.625 1.546875 1.546875zm-1.875-2.5c-2.765625 0-5.015625.578125-6.96875 1.90625-1.171875.8125-1.953125 2.0625-2.390625 3.4375-.21875.65625-.40625 1.390625-.40625 2.09375 0 1.734375 1.25 2.5 2.875 2.5 2.765625 0 5.015625-.578125 6.96875-1.90625 1.171875-.8125 1.953125-2.0625 2.390625-3.4375.21875-.65625.40625-1.390625.40625-2.09375 0-1.734375-1.25-2.5-2.875-2.5zm0 0"/></symbol><symbol id="Y" overflow="visible"><path d="m7.671875 0v-14.375h-1.890625c-.453125 1.703125-1.921875 2.578125-4.40625 2.578125v1.875h3.453125v9.921875zm0 0"/></symbol><symbol id="Z" overflow="visible"><path d="m4.34375 0v-2.96875h-3.046875v2.96875zm0 0"/></symbol><g clip-path="url(#a)"><path d="m5.338542 4749.526042h9910.546875" fill="none" stroke="#000" stroke-linecap="round" stroke-miterlimit="10" stroke-width="10.7206" transform="matrix(.06 0 0 -.06 0 347.37)"/></g><g clip-path="url(#b)"><path d="m5.338542 4903.106771h9910.546875" fill="none" stroke="#000" stroke-linecap="round" stroke-miterlimit="10" stroke-width="10.7206" transform="matrix(.06 0 0 -.06 0 347.37)"/></g><g clip-path="url(#c)"><path d="m5.338542 5056.6875h9910.546875" fill="none" stroke="#000" stroke-linecap="round" stroke-miterlimit="10" stroke-width="10.7206" transform="matrix(.06 0 0 -.06 0 347.37)"/></g><g clip-path="url(#d)"><path d="m5.338542 5210.268229h9910.546875" fill="none" stroke="#000" stroke-linecap="round" stroke-miterlimit="10" stroke-width="10.7206" transform="matrix(.06 0 0 -.06 0 347.37)"/></g><g clip-path="url(#e)"><path d="m5.338542 5363.848958h9910.546875" fill="none" stroke="#000" stroke-linecap="round" stroke-miterlimit="10" stroke-width="10.7206" transform="matrix(.06 0 0 -.06 0 347.37)"/></g><g clip-path="url(#f)"><path d="m9911.067708 4749.526042v614.322916" fill="none" stroke="#000" stroke-miterlimit="10" stroke-width="20.3661" transform="matrix(.06 0 0 -.06 0 347.37)"/></g><path d="m5614.127604 4749.526042v614.322916" fill="none" stroke="#000" stroke-miterlimit="10" stroke-width="20.3661" transform="matrix(.06 0 0 -.06 0 347.37)"/><path d="m7998.958333 5013.458333h7.291667v469.401042h-7.291667zm0 0" fill="none" stroke="#000" stroke-linejoin="round" stroke-miterlimit="10" stroke-width="6.63512" transform="matrix(.06 0 0 -.06 0 347.37)"/><path d="m479.9375 46.5625h.4375v-28.164062h-.4375zm0 0"/><use x="465.290931" xlink:href="#s" y="94.653495"/><use x="471.244053" xlink:href="#t" y="94.653495"/><use x="468.543127" xlink:href="#T" y="48.576202"/><path d="m7017.252604 5090.216146h7.291667v423.697916h-7.291667zm0 0" fill="none" stroke="#000" stroke-linejoin="round" stroke-miterlimit="10" stroke-width="6.63512" transform="matrix(.06 0 0 -.06 0 347.37)"/><path d="m421.035156 41.957031h.4375v-25.421875h-.4375zm0 0"/><use x="394.226788" xlink:href="#u" y="94.653495"/><use x="413.105459" xlink:href="#t" y="94.653495"/><use x="425.691158" xlink:href="#v" y="94.653495"/><use x="409.639519" xlink:href="#T" y="43.968393"/><path d="m5753.580729 4599.200521h7.291667v500.716146h-7.291667zm0 0" fill="none" stroke="#000" stroke-linejoin="round" stroke-miterlimit="10" stroke-width="6.63512" transform="matrix(.06 0 0 -.06 0 347.37)"/><path d="m345.214844 71.417969h.4375v-30.042969h-.4375zm0 0"/><path d="m2026.106771 4316.0625h92.838541v5.338542h-92.838541zm0 0" fill="none" stroke="#000" stroke-linejoin="round" stroke-miterlimit="10" stroke-width="8.57036" transform="matrix(.06 0 0 -.06 0 347.37)"/><path d="m121.566406 88.40625h5.570313v-.320312h-5.570313zm0 0"/><path d="m4165.039062 4316.0625h92.838542v5.338542h-92.838542zm0 0" fill="none" stroke="#000" stroke-linejoin="round" stroke-miterlimit="10" stroke-width="8.57036" transform="matrix(.06 0 0 -.06 0 347.37)"/><path d="m249.902344 88.40625h5.570312v-.320312h-5.570312zm0 0"/><path d="m2768.554687 5397.377604v-67.057292l988.997396 31.510417v67.057292zm0 0" fill="none" stroke="#000" stroke-linejoin="round" stroke-miterlimit="10" stroke-width="6.63512" transform="matrix(.06 0 0 -.06 0 347.37)"/><path d="m166.113281 23.527344v4.023437l59.339844-1.890625v-4.023437zm0 0"/><path d="m7473.372396 4316.0625h92.838541v5.338542h-92.838541zm0 0" fill="none" stroke="#000" stroke-linejoin="round" stroke-miterlimit="10" stroke-width="8.57036" transform="matrix(.06 0 0 -.06 0 347.37)"/><path d="m448.402344 88.40625h5.570312v-.320312h-5.570312zm0 0"/><path d="m8220.572917 4316.0625h92.773437v5.338542h-92.773437zm0 0" fill="none" stroke="#000" stroke-linejoin="round" stroke-miterlimit="10" stroke-width="8.57036" transform="matrix(.06 0 0 -.06 0 347.37)"/><path d="m493.234375 88.40625h5.566406v-.320312h-5.566406zm0 0"/><path d="m7017.252604 5551.023437v-67.122395l989.0625-31.510417v67.122396zm0 0" fill="none" stroke="#000" stroke-linejoin="round" stroke-miterlimit="10" stroke-width="6.63512" transform="matrix(.06 0 0 -.06 0 347.37)"/><path d="m421.035156 14.308594v4.027344l59.34375 1.890624v-4.027343zm0 0"/><path d="m8980.729167 4936.635417h7.291666v500.716145h-7.291666zm0 0" fill="none" stroke="#000" stroke-linejoin="round" stroke-miterlimit="10" stroke-width="6.63512" transform="matrix(.06 0 0 -.06 0 347.37)"/><path d="m538.84375 51.171875h.4375v-30.042969h-.4375zm0 0"/><use x="508.207016" xlink:href="#w" y="94.653495"/><use x="515.860539" xlink:href="#x" y="94.653495"/><use x="528.446003" xlink:href="#y" y="94.653495"/><use x="541.031466" xlink:href="#z" y="94.653495"/><use x="552.426302" xlink:href="#A" y="94.653495"/><use x="527.447155" xlink:href="#T" y="53.183812"/><use x="332.751766" xlink:href="#t" y="94.653495"/><use x="345.337464" xlink:href="#B" y="94.653495"/><use x="357.922928" xlink:href="#C" y="94.653495"/><path d="m1650.78125 4783.054687h7.291667v500.716146h-7.291667zm0 0" fill="none" stroke="#000" stroke-linejoin="round" stroke-miterlimit="10" stroke-width="6.63512" transform="matrix(.06 0 0 -.06 0 347.37)"/><path d="m99.046875 60.386719h.4375v-30.042969h-.4375zm0 0"/><use x="55.623611" xlink:href="#Y" y="94.653495"/><use x="66.849047" xlink:href="#Z" y="94.653495"/><use x="81.676563" xlink:href="#D" y="94.653495"/><use x="93.071407" xlink:href="#E" y="94.653495"/><use x="40.582081" xlink:href="#U" y="43.968393"/><use x="48.911078" xlink:href="#U" y="30.145166"/><use x="57.239144" xlink:href="#U" y="48.576202"/><use x="7.372245" xlink:href="#V" y="53.183792"/><use x="87.650105" xlink:href="#T" y="62.3992"/><use x="345.01862" xlink:href="#T" y="39.360554"/><path d="m4547.721354 4548.028646h7.291667v475.130208h-7.291667zm0 0" fill="none" stroke="#000" stroke-linejoin="round" stroke-miterlimit="10" stroke-width="6.63512" transform="matrix(.06 0 0 -.06 0 347.37)"/><path d="m272.863281 74.488281h.4375v-28.507812h-.4375zm0 0"/><use x="260.396521" xlink:href="#s" y="94.653495"/><use x="266.689721" xlink:href="#F" y="94.653495"/><use x="279.275185" xlink:href="#v" y="94.653495"/><use x="290.670021" xlink:href="#A" y="94.653495"/><use x="272.663045" xlink:href="#T" y="43.968393"/><use x="154.716809" xlink:href="#T" y="53.183802"/><path d="m3750.260417 5013.458333h7.291666v378.385417h-7.291666zm0 0" fill="none" stroke="#000" stroke-linejoin="round" stroke-miterlimit="10" stroke-width="6.63512" transform="matrix(.06 0 0 -.06 0 347.37)"/><path d="m225.015625 46.5625h.4375v-22.703125h-.4375zm0 0"/><use x="213.619427" xlink:href="#T" y="48.576402"/><use x="194.294689" xlink:href="#G" y="94.653695"/><use x="209.431805" xlink:href="#w" y="94.653695"/><use x="217.085327" xlink:href="#H" y="94.653695"/><use x="222.1879" xlink:href="#v" y="94.653695"/><use x="233.582751" xlink:href="#I" y="94.653695"/><use x="143.044786" xlink:href="#I" y="94.653695"/><use x="154.439637" xlink:href="#F" y="94.653695"/><use x="167.025101" xlink:href="#v" y="94.653695"/><path d="m2768.554687 4936.635417h7.291667v424.153645h-7.291667zm0 0" fill="none" stroke="#000" stroke-linejoin="round" stroke-miterlimit="10" stroke-width="6.63512" transform="matrix(.06 0 0 -.06 0 347.37)"/><path d="m166.113281 51.171875h.4375v-25.449219h-.4375zm0 0"/><g clip-path="url(#g)"><path d="m5.338542 2906.427083h9910.546875" style="fill:none;stroke-width:10.7206;stroke-linecap:round;stroke-linejoin:round;stroke:#000;stroke-miterlimit:10" transform="matrix(.06 0 0 -.06 0 347.37)"/></g><g clip-path="url(#h)"><path d="m5.338542 3060.007812h9910.546875" style="fill:none;stroke-width:10.7206;stroke-linecap:round;stroke-linejoin:round;stroke:#000;stroke-miterlimit:10" transform="matrix(.06 0 0 -.06 0 347.37)"/></g><g clip-path="url(#i)"><path d="m5.338542 3213.588542h9910.546875" style="fill:none;stroke-width:10.7206;stroke-linecap:round;stroke-linejoin:round;stroke:#000;stroke-miterlimit:10" transform="matrix(.06 0 0 -.06 0 347.37)"/></g><g clip-path="url(#j)"><path d="m5.338542 3367.169271h9910.546875" style="fill:none;stroke-width:10.7206;stroke-linecap:round;stroke-linejoin:round;stroke:#000;stroke-miterlimit:10" transform="matrix(.06 0 0 -.06 0 347.37)"/></g><g clip-path="url(#k)"><path d="m5.338542 3520.75h9910.546875" style="fill:none;stroke-width:10.7206;stroke-linecap:round;stroke-linejoin:round;stroke:#000;stroke-miterlimit:10" transform="matrix(.06 0 0 -.06 0 347.37)"/></g><g clip-path="url(#l)"><path d="m9911.067708 2906.427083v614.322917" fill="none" stroke="#000" stroke-linejoin="round" stroke-miterlimit="10" stroke-width="20.3661" transform="matrix(.06 0 0 -.06 0 347.37)"/></g><path d="m6514.0625 2906.427083v614.322917" fill="none" stroke="#000" stroke-linejoin="round" stroke-miterlimit="10" stroke-width="20.3661" transform="matrix(.06 0 0 -.06 0 347.37)"/><path d="m7900.455729 3016.778646h7.291667v500.651041h-7.291667zm0 0" fill="none" stroke="#000" stroke-linejoin="round" stroke-miterlimit="10" stroke-width="6.63512" transform="matrix(.06 0 0 -.06 0 347.37)"/><path d="m474.027344 166.363281h.4375v-30.039062h-.4375zm0 0"/><use x="456.658913" xlink:href="#v" y="205.238716"/><use x="468.053749" xlink:href="#E" y="205.238716"/><use x="462.632445" xlink:href="#T" y="168.376842"/><path d="m5675.716146 2939.955729h7.291666v546.354167h-7.291666zm0 0" fill="none" stroke="#000" stroke-linejoin="round" stroke-miterlimit="10" stroke-width="6.63512" transform="matrix(.06 0 0 -.06 0 347.37)"/><path d="m340.542969 170.972656h.4375v-32.78125h-.4375zm0 0"/><path d="m6823.4375 3093.536458h7.291667v500.716146h-7.291667zm0 0" fill="none" stroke="#000" stroke-linejoin="round" stroke-miterlimit="10" stroke-width="6.63512" transform="matrix(.06 0 0 -.06 0 347.37)"/><path d="m409.40625 161.757812h.4375v-30.042968h-.4375zm0 0"/><use x="380.640761" xlink:href="#J" y="205.238716"/><use x="392.035597" xlink:href="#v" y="205.238716"/><use x="403.430433" xlink:href="#t" y="205.238716"/><use x="416.015897" xlink:href="#v" y="205.238716"/><use x="398.009196" xlink:href="#T" y="163.769233"/><path d="m3247.591146 2472.963542h92.773437v5.338541h-92.773437zm0 0" fill="none" stroke="#000" stroke-linejoin="round" stroke-miterlimit="10" stroke-width="8.57036" transform="matrix(.06 0 0 -.06 0 347.37)"/><path d="m194.855469 198.992188h5.566406v-.320313h-5.566406zm0 0"/><path d="m6044.791667 2472.963542h92.773437v5.338541h-92.773437zm0 0" fill="none" stroke="#000" stroke-linejoin="round" stroke-miterlimit="10" stroke-width="8.57036" transform="matrix(.06 0 0 -.06 0 347.37)"/><path d="m362.6875 198.992188h5.566406v-.320313h-5.566406zm0 0"/><path d="m2766.210937 3676.414062v-67.122395l2916.796875-153.58073v67.122396zm0 0" fill="none" stroke="#000" stroke-linejoin="round" stroke-miterlimit="10" stroke-width="6.63512" transform="matrix(.06 0 0 -.06 0 347.37)"/><path d="m165.972656 126.785156v4.027344l175.007813 9.214844v-4.027344zm0 0"/><path d="m7320.833333 2472.963542h92.838542v5.338541h-92.838542zm0 0" fill="none" stroke="#000" stroke-linejoin="round" stroke-miterlimit="10" stroke-width="8.57036" transform="matrix(.06 0 0 -.06 0 347.37)"/><path d="m439.25 198.992188h5.570312v-.320313h-5.570312zm0 0"/><path d="m8171.809896 2472.963542h92.838541v5.338541h-92.838541zm0 0" fill="none" stroke="#000" stroke-linejoin="round" stroke-miterlimit="10" stroke-width="8.57036" transform="matrix(.06 0 0 -.06 0 347.37)"/><path d="m490.308594 198.992188h5.570312v-.320313h-5.570312zm0 0"/><path d="m8977.539062 2939.955729h7.291667v500.716146h-7.291667zm0 0" fill="none" stroke="#000" stroke-linejoin="round" stroke-miterlimit="10" stroke-width="6.63512" transform="matrix(.06 0 0 -.06 0 347.37)"/><path d="m538.652344 170.972656h.4375v-30.042968h-.4375zm0 0"/><use x="505.551011" xlink:href="#B" y="205.238716"/><use x="518.136475" xlink:href="#x" y="205.238716"/><use x="530.722173" xlink:href="#y" y="205.238716"/><use x="543.307637" xlink:href="#z" y="205.238716"/><use x="554.702473" xlink:href="#A" y="205.238716"/><use x="527.257255" xlink:href="#T" y="172.984651"/><use x="40.582281" xlink:href="#U" y="154.553814"/><use x="48.911278" xlink:href="#U" y="140.730587"/><use x="57.239344" xlink:href="#U" y="159.161424"/><use x="154.578539" xlink:href="#T" y="154.553834"/><use x="320.02687" xlink:href="#K" y="205.238736"/><use x="332.612568" xlink:href="#L" y="205.238736"/><use x="345.198032" xlink:href="#M" y="205.238736"/><path d="m1650.78125 3093.536458h7.291667v500.716146h-7.291667zm0 0" fill="none" stroke="#000" stroke-linejoin="round" stroke-miterlimit="10" stroke-width="6.63512" transform="matrix(.06 0 0 -.06 0 347.37)"/><path d="m99.046875 161.757812h.4375v-30.042968h-.4375zm0 0"/><use x="62.457825" xlink:href="#u" y="205.238716"/><use x="81.336503" xlink:href="#t" y="205.238716"/><use x="93.922209" xlink:href="#y" y="205.238716"/><use x="106.167601" xlink:href="#C" y="205.238716"/><use x="117.222367" xlink:href="#N" y="205.238716"/><use x="87.650175" xlink:href="#T" y="163.769233"/><use x="7.372315" xlink:href="#V" y="163.769233"/><use x="329.147958" xlink:href="#T" y="172.984641"/><path d="m4725.585937 3093.536458h7.291667v442.708334h-7.291667zm0 0" fill="none" stroke="#000" stroke-linejoin="round" stroke-miterlimit="10" stroke-width="6.63512" transform="matrix(.06 0 0 -.06 0 347.37)"/><path d="m283.535156 161.757812h.4375v-26.5625h-.4375zm0 0"/><use x="251.027502" xlink:href="#v" y="205.238716"/><use x="262.422338" xlink:href="#I" y="205.238716"/><use x="273.817174" xlink:href="#t" y="205.238716"/><use x="286.402638" xlink:href="#y" y="205.238716"/><use x="298.988336" xlink:href="#s" y="205.238716"/><use x="272.138144" xlink:href="#T" y="163.769233"/><use x="142.736885" xlink:href="#y" y="205.238716"/><use x="154.982271" xlink:href="#C" y="205.238716"/><use x="165.86759" xlink:href="#t" y="205.238716"/><path d="m3745.898437 3170.359375h7.291667v417.317708h-7.291667zm0 0" fill="none" stroke="#000" stroke-linejoin="round" stroke-miterlimit="10" stroke-width="6.63512" transform="matrix(.06 0 0 -.06 0 347.37)"/><path d="m224.753906 157.148438h.4375v-25.039063h-.4375zm0 0"/><use x="213.358427" xlink:href="#T" y="159.161624"/><path d="m2766.210937 3247.117187h7.291667v392.057292h-7.291667zm0 0" fill="none" stroke="#000" stroke-linejoin="round" stroke-miterlimit="10" stroke-width="6.63512" transform="matrix(.06 0 0 -.06 0 347.37)"/><path d="m165.972656 152.542969h.4375v-23.523438h-.4375zm0 0"/><use x="216.824434" xlink:href="#H" y="205.238716"/><g clip-path="url(#m)"><path d="m5.338542 1063.328125h9910.546875" style="fill:none;stroke-width:10.7206;stroke-linecap:round;stroke-linejoin:round;stroke:#000;stroke-miterlimit:10" transform="matrix(.06 0 0 -.06 0 347.37)"/></g><g clip-path="url(#n)"><path d="m5.338542 1216.908854h9910.546875" style="fill:none;stroke-width:10.7206;stroke-linecap:round;stroke-linejoin:round;stroke:#000;stroke-miterlimit:10" transform="matrix(.06 0 0 -.06 0 347.37)"/></g><g clip-path="url(#o)"><path d="m5.338542 1370.489583h9910.546875" style="fill:none;stroke-width:10.7206;stroke-linecap:round;stroke-linejoin:round;stroke:#000;stroke-miterlimit:10" transform="matrix(.06 0 0 -.06 0 347.37)"/></g><g clip-path="url(#p)"><path d="m5.338542 1524.070312h9910.546875" style="fill:none;stroke-width:10.7206;stroke-linecap:round;stroke-linejoin:round;stroke:#000;stroke-miterlimit:10" transform="matrix(.06 0 0 -.06 0 347.37)"/></g><g clip-path="url(#q)"><path d="m5.338542 1677.651042h9910.546875" style="fill:none;stroke-width:10.7206;stroke-linecap:round;stroke-linejoin:round;stroke:#000;stroke-miterlimit:10" transform="matrix(.06 0 0 -.06 0 347.37)"/></g><g clip-path="url(#r)"><path d="m9889.0625 1063.328125v614.322917" fill="none" stroke="#000" stroke-linejoin="round" stroke-miterlimit="10" stroke-width="64.3238" transform="matrix(.06 0 0 -.06 0 347.37)"/></g><g fill="none" stroke="#000" stroke-linejoin="round" stroke-miterlimit="10" transform="matrix(.06 0 0 -.06 0 347.37)"><path d="m9814.583333 1063.328125v614.322917" stroke-width="20.3661"/><path d="m6340.364583 1063.328125v614.322917" stroke-width="20.3661"/><path d="m8151.692708 1173.679688h7.291667v500.716145h-7.291667zm0 0" stroke-width="6.63512"/></g><path d="m489.101562 276.949219h.4375v-30.039063h-.4375zm0 0"/><use x="432.368865" xlink:href="#T" y="274.355054"/><use x="420.951942" xlink:href="#O" y="315.916837"/><use x="431.837247" xlink:href="#t" y="315.916837"/><use x="444.422711" xlink:href="#v" y="315.916837"/><path d="m7396.09375 1250.4375h7.291667v424.21875h-7.291667zm0 0" fill="none" stroke="#000" stroke-linejoin="round" stroke-miterlimit="10" stroke-width="6.63512" transform="matrix(.06 0 0 -.06 0 347.37)"/><path d="m443.765625 272.34375h.4375v-25.453125h-.4375zm0 0"/><use x="477.707955" xlink:href="#T" y="278.962863"/><use x="471.734423" xlink:href="#v" y="315.916837"/><use x="483.129259" xlink:href="#E" y="315.916837"/><path d="m6640.429687 1327.260417h7.291667v378.320312h-7.291667zm0 0" fill="none" stroke="#000" stroke-linejoin="round" stroke-miterlimit="10" stroke-width="6.63512" transform="matrix(.06 0 0 -.06 0 347.37)"/><path d="m398.425781 267.734375h.4375v-22.699219h-.4375zm0 0"/><use x="384.201768" xlink:href="#H" y="315.916837"/><use x="389.304341" xlink:href="#P" y="315.916837"/><use x="387.029044" xlink:href="#T" y="269.747445"/><path d="m2672.395833 628.367188h92.773438v5.338541h-92.773438zm0 0" fill="none" stroke="#000" stroke-linejoin="round" stroke-miterlimit="10" stroke-width="8.57036" transform="matrix(.06 0 0 -.06 0 347.37)"/><path d="m160.34375 309.667969h5.566406v-.320313h-5.566406zm0 0"/><path d="m4336.588542 628.367188h92.773437v5.338541h-92.773437zm0 0" fill="none" stroke="#000" stroke-linejoin="round" stroke-miterlimit="10" stroke-width="8.57036" transform="matrix(.06 0 0 -.06 0 347.37)"/><path d="m260.191406 309.667969h5.570313v-.320313h-5.570313zm0 0"/><path d="m2475.846354 1589.109375v-67.057292l861.067708-31.510416v67.122395zm0 0" fill="none" stroke="#000" stroke-linejoin="round" stroke-miterlimit="10" stroke-width="6.63512" transform="matrix(.06 0 0 -.06 0 347.37)"/><path d="m148.550781 252.023438v4.023437l51.664063 1.890625v-4.027344zm0 0"/><path d="m5063.346354 628.367188h92.773438v5.338541h-92.773438zm0 0" fill="none" stroke="#000" stroke-linejoin="round" stroke-miterlimit="10" stroke-width="8.57036" transform="matrix(.06 0 0 -.06 0 347.37)"/><path d="m303.800781 309.667969h5.566407v-.320313h-5.566407zm0 0"/><path d="m4121.028646 1679.734375v-67.122396l762.955729 31.510417v67.122396zm0 0" fill="none" stroke="#000" stroke-linejoin="round" stroke-miterlimit="10" stroke-width="6.63512" transform="matrix(.06 0 0 -.06 0 347.37)"/><path d="m247.261719 246.585938v4.027343l45.777343-1.890625v-4.027344zm0 0"/><path d="m6810.611979 628.367188h92.773438v5.338541h-92.773438zm0 0" fill="none" stroke="#000" stroke-linejoin="round" stroke-miterlimit="10" stroke-width="8.57036" transform="matrix(.06 0 0 -.06 0 347.37)"/><path d="m408.636719 309.667969h5.566406v-.320313h-5.566406zm0 0"/><path d="m7683.203125 628.367188h92.773437v5.338541h-92.773437zm0 0" fill="none" stroke="#000" stroke-linejoin="round" stroke-miterlimit="10" stroke-width="8.57036" transform="matrix(.06 0 0 -.06 0 347.37)"/><path d="m460.992188 309.667969h5.566406v-.320313h-5.566406zm0 0"/><path d="m8338.411458 628.367188h92.773438v5.338541h-92.773438zm0 0" fill="none" stroke="#000" stroke-linejoin="round" stroke-miterlimit="10" stroke-width="8.57036" transform="matrix(.06 0 0 -.06 0 347.37)"/><path d="m500.304688 309.667969h5.566406v-.320313h-5.566406zm0 0"/><path d="m6640.429687 1742.755208v-67.122396l762.95573-31.510416v67.122396zm0 0" fill="none" stroke="#000" stroke-linejoin="round" stroke-miterlimit="10" stroke-width="6.63512" transform="matrix(.06 0 0 -.06 0 347.37)"/><path d="m398.425781 242.804688v4.027343l45.777344 1.890625v-4.027344zm0 0"/><path d="m9064.453125 1107.859375h7.291667v489.713542h-7.291667zm0 0" fill="none" stroke="#000" stroke-linejoin="round" stroke-miterlimit="10" stroke-width="6.63512" transform="matrix(.06 0 0 -.06 0 347.37)"/><path d="m543.867188 280.898438h.4375v-29.382813h-.4375zm0 0"/><use x="510.460021" xlink:href="#B" y="315.916837"/><use x="523.045485" xlink:href="#x" y="315.916837"/><use x="535.630949" xlink:href="#y" y="315.916837"/><use x="548.216412" xlink:href="#z" y="315.916837"/><use x="559.611248" xlink:href="#Q" y="315.916837"/><use x="538.182876" xlink:href="#W" y="243.954193"/><use x="531.861064" xlink:href="#X" y="283.570672"/><use x="87.650175" xlink:href="#T" y="274.355024"/><use x="80.401181" xlink:href="#R" y="315.916807"/><use x="95.538524" xlink:href="#v" y="315.916807"/><path d="m1650.78125 1250.4375h7.291667v500.716146h-7.291667zm0 0" fill="none" stroke="#000" stroke-linejoin="round" stroke-miterlimit="10" stroke-width="6.63512" transform="matrix(.06 0 0 -.06 0 347.37)"/><path d="m99.046875 272.34375h.4375v-30.042969h-.4375zm0 0"/><use x="137.153274" xlink:href="#T" y="278.962863"/><use x="130.583491" xlink:href="#y" y="315.916837"/><use x="143.169189" xlink:href="#E" y="315.916837"/><path d="m2475.846354 1173.679688h7.291667v378.320312h-7.291667zm0 0" fill="none" stroke="#000" stroke-linejoin="round" stroke-miterlimit="10" stroke-width="6.63512" transform="matrix(.06 0 0 -.06 0 347.37)"/><path d="m148.550781 276.949219h.4375v-22.699219h-.4375zm0 0"/><path d="m5528.255208 861.830729h7.291667v475.130209h-7.291667zm0 0" fill="none" stroke="#000" stroke-linejoin="round" stroke-miterlimit="10" stroke-width="6.63512" transform="matrix(.06 0 0 -.06 0 347.37)"/><path d="m331.695312 295.660156h.4375v-28.507812h-.4375zm0 0"/><use x="40.582081" xlink:href="#U" y="265.139636"/><use x="48.911078" xlink:href="#U" y="251.316408"/><use x="57.239144" xlink:href="#U" y="269.747445"/><use x="7.372245" xlink:href="#V" y="274.355034"/><use x="275.23078" xlink:href="#I" y="315.916817"/><use x="286.625616" xlink:href="#S" y="315.916817"/><use x="235.865102" xlink:href="#T" y="278.962843"/><use x="233.037826" xlink:href="#K" y="315.916817"/><use x="245.62329" xlink:href="#H" y="315.916817"/><use x="281.204122" xlink:href="#T" y="274.355034"/><path d="m4121.028646 1173.679688h7.291666v469.466145h-7.291666zm0 0" fill="none" stroke="#000" stroke-linejoin="round" stroke-miterlimit="10" stroke-width="6.63512" transform="matrix(.06 0 0 -.06 0 347.37)"/><path d="m247.261719 276.949219h.4375v-28.167969h-.4375zm0 0"/><path d="m4876.692708 1250.4375h7.291667v423.632812h-7.291667zm0 0" fill="none" stroke="#000" stroke-linejoin="round" stroke-miterlimit="10" stroke-width="6.63512" transform="matrix(.06 0 0 -.06 0 347.37)"/><path d="m292.601562 272.34375h.4375v-25.417969h-.4375zm0 0"/><use x="331.495663" xlink:href="#T" y="265.139636"/><use x="313.956828" xlink:href="#y" y="315.916837"/><use x="326.202213" xlink:href="#C" y="315.916837"/><use x="337.087518" xlink:href="#S" y="315.916837"/><use x="349.672982" xlink:href="#v" y="315.916837"/><path d="m3329.622396 1096.856771h7.291666v424.153646h-7.291666zm0 0" fill="none" stroke="#000" stroke-linejoin="round" stroke-miterlimit="10" stroke-width="6.63512" transform="matrix(.06 0 0 -.06 0 347.37)"/><path d="m199.777344 281.558594h.4375v-25.449219h-.4375zm0 0"/><use x="188.379377" xlink:href="#T" y="283.570672"/><use x="170.500241" xlink:href="#z" y="315.916837"/><use x="181.725638" xlink:href="#x" y="315.916837"/><use x="194.311102" xlink:href="#y" y="315.916837"/><use x="206.896801" xlink:href="#z" y="315.916837"/></svg>