<svg height="463.06em" viewBox="0 0 595.28 463.06" width="595.28em" xmlns="http://www.w3.org/2000/svg" xmlns:xlink="http://www.w3.org/1999/xlink"><clipPath id="a"><path d="m0 67h595.28125v2h-595.28125zm0 0"/></clipPath><clipPath id="b"><path d="m0 58h595.28125v1h-595.28125zm0 0"/></clipPath><clipPath id="c"><path d="m0 48h595.28125v2h-595.28125zm0 0"/></clipPath><clipPath id="d"><path d="m0 39h595.28125v2h-595.28125zm0 0"/></clipPath><clipPath id="e"><path d="m0 30h595.28125v2h-595.28125zm0 0"/></clipPath><clipPath id="f"><path d="m0 178h595.28125v1h-595.28125zm0 0"/></clipPath><clipPath id="g"><path d="m0 168h595.28125v2h-595.28125zm0 0"/></clipPath><clipPath id="h"><path d="m0 159h595.28125v2h-595.28125zm0 0"/></clipPath><clipPath id="i"><path d="m0 150h595.28125v1h-595.28125zm0 0"/></clipPath><clipPath id="j"><path d="m0 141h595.28125v1h-595.28125zm0 0"/></clipPath><clipPath id="k"><path d="m0 288h595.28125v2h-595.28125zm0 0"/></clipPath><clipPath id="l"><path d="m0 279h595.28125v2h-595.28125zm0 0"/></clipPath><clipPath id="m"><path d="m0 270h595.28125v1h-595.28125zm0 0"/></clipPath><clipPath id="n"><path d="m0 260h595.28125v2h-595.28125zm0 0"/></clipPath><clipPath id="o"><path d="m0 251h595.28125v2h-595.28125zm0 0"/></clipPath><clipPath id="p"><path d="m0 399h595.28125v1h-595.28125zm0 0"/></clipPath><clipPath id="q"><path d="m0 389h595.28125v2h-595.28125zm0 0"/></clipPath><clipPath id="r"><path d="m0 380h595.28125v2h-595.28125zm0 0"/></clipPath><clipPath id="s"><path d="m0 371h595.28125v2h-595.28125zm0 0"/></clipPath><clipPath id="t"><path d="m0 362h595.28125v1h-595.28125zm0 0"/></clipPath><clipPath id="u"><path d="m591 360h4.28125v42h-4.28125zm0 0"/></clipPath><symbol id="v" overflow="visible"><path d="m5.78125-11.921875h-1.953125v-3.28125h-1.890625v3.28125h-1.625v1.546875h1.625v9.015625c0 1.21875.8125 1.875 2.296875 1.875.5 0 .90625-.03125 1.546875-.15625v-1.59375c-.28125.078125-.53125.09375-.90625.09375-.828125 0-1.046875-.21875-1.046875-1.0625v-8.171875h1.953125zm0 0"/></symbol><symbol id="w" overflow="visible"><path d="m11.671875-5.328125c0-1.8125-.140625-2.90625-.484375-3.796875-.765625-1.953125-2.59375-3.140625-4.8125-3.140625-3.328125 0-5.46875 2.53125-5.46875 6.46875s2.046875 6.3125 5.421875 6.3125c2.71875 0 4.609375-1.546875 5.09375-4.140625h-1.90625c-.53125 1.578125-1.59375 2.390625-3.125 2.390625-1.203125 0-2.234375-.546875-2.859375-1.546875-.453125-.671875-.625-1.359375-.640625-2.546875zm-8.734375-1.546875c.15625-2.203125 1.5-3.640625 3.40625-3.640625 1.9375 0 3.28125 1.5 3.28125 3.640625zm0 0"/></symbol><symbol id="x" overflow="visible"><path d="m1.59375-11.921875v11.921875h1.90625v-6.578125c0-2.4375 1.28125-4.015625 3.234375-4.015625 1.5 0 2.453125.90625 2.453125 2.328125v8.265625h1.890625v-9.015625c0-1.96875-1.484375-3.25-3.78125-3.25-1.765625 0-2.90625.6875-3.953125 2.34375v-2zm0 0"/></symbol><symbol id="y" overflow="visible"><path d="m1.984375-2.359375v2.359375h1.359375v.40625c0 1.578125-.296875 2.03125-1.359375 2.078125v.859375c1.5.046875 2.390625-1.046875 2.390625-2.984375v-2.71875zm0 0"/></symbol><symbol id="z" overflow="visible"><path d="m4.40625-16.578125h-2.125v16.578125h2.125zm0 0"/></symbol><symbol id="A" overflow="visible"><path d="m9.96875-8.59375c-.03125-2.34375-1.578125-3.671875-4.328125-3.671875-2.78125 0-4.578125 1.4375-4.578125 3.640625 0 1.875.96875 2.75 3.78125 3.4375l1.78125.4375c1.3125.3125 1.84375.796875 1.84375 1.640625 0 1.125-1.125 1.875-2.78125 1.875-1.03125 0-1.890625-.296875-2.359375-.796875-.296875-.328125-.4375-.671875-.546875-1.515625h-2c.078125 2.75 1.625 4.0625 4.75 4.0625 3 0 4.90625-1.46875 4.90625-3.765625 0-1.78125-1-2.75-3.359375-3.328125l-1.828125-.421875c-1.546875-.375-2.203125-.875-2.203125-1.71875 0-1.109375.984375-1.796875 2.53125-1.796875 1.515625 0 2.34375.671875 2.390625 1.921875zm0 0"/></symbol><symbol id="B" overflow="visible"><path d="m12.53125-16.578125.03125 11.640625c0 2.234375-1.625 3.59375-4.265625 3.59375-2.625 0-4.25-1.359375-4.25-3.59375v-11.640625h-2.109375v11.640625c0 3.328125 2.5 5.453125 6.359375 5.453125 3.875 0 6.375-2.15625 6.375-5.453125l-.015625-11.640625zm-3.734375-4.78125-2.171875 3.359375h1.359375l3.390625-3.359375zm0 0"/></symbol><symbol id="C" overflow="visible"><path d="m1.5625-11.921875v11.921875h1.921875v-6.1875c.015625-2.859375 1.203125-4.140625 3.8125-4.078125v-1.921875c-.3125-.046875-.5-.078125-.71875-.078125-1.234375 0-2.171875.734375-3.25 2.5v-2.15625zm0 0"/></symbol><symbol id="D" overflow="visible"><path d="m6.1875-12.265625c-3.359375 0-5.375 2.390625-5.375 6.390625 0 4.03125 2.015625 6.390625 5.390625 6.390625s5.40625-2.375 5.40625-6.296875c0-4.140625-1.96875-6.484375-5.421875-6.484375zm.015625 1.75c2.140625 0 3.421875 1.75 3.421875 4.71875 0 2.8125-1.328125 4.5625-3.421875 4.5625-2.109375 0-3.40625-1.75-3.40625-4.640625s1.296875-4.640625 3.40625-4.640625zm0 0"/></symbol><symbol id="E" overflow="visible"><path d="m3.203125-16.578125h-1.890625v16.578125h1.890625v-4.640625l1.84375-1.828125 4.03125 6.46875h2.34375l-4.875-7.796875 4.140625-4.125h-2.421875l-5.0625 5.046875zm0 0"/></symbol><symbol id="F" overflow="visible"><path d="m8.046875-14.71875h5.4375v-1.859375h-13v1.859375h5.453125v14.71875h2.109375zm0 0"/></symbol><symbol id="G" overflow="visible"><path d="m12.171875-1.109375c-.203125.046875-.296875.046875-.40625.046875-.65625 0-1.03125-.34375-1.03125-.9375v-7.015625c0-2.109375-1.546875-3.25-4.484375-3.25-1.75 0-3.140625.5-3.953125 1.390625-.546875.609375-.765625 1.296875-.8125 2.484375h1.90625c.15625-1.453125 1.015625-2.125 2.796875-2.125 1.734375 0 2.65625.640625 2.65625 1.78125v.5c-.015625.8125-.421875 1.109375-1.96875 1.3125-2.6875.34375-3.09375.4375-3.828125.734375-1.390625.59375-2.09375 1.640625-2.09375 3.1875 0 2.15625 1.5 3.515625 3.921875 3.515625 1.5 0 2.703125-.515625 4.046875-1.75.125 1.234375.71875 1.75 1.953125 1.75.40625 0 .65625-.03125 1.296875-.203125zm-3.328125-2.640625c0 .640625-.171875 1.015625-.75 1.546875-.765625.703125-1.703125 1.0625-2.8125 1.0625-1.484375 0-2.34375-.703125-2.34375-1.90625 0-1.25.8125-1.890625 2.859375-2.1875 2.03125-.265625 2.421875-.359375 3.046875-.65625zm-1.921875-13.078125-2.21875 3.359375h1.375l3.390625-3.359375zm0 0"/></symbol><symbol id="H" overflow="visible"><path d="m3.453125-16.578125h-1.90625v16.578125h1.90625zm0 0"/></symbol><symbol id="I" overflow="visible"><path d="m3.40625-11.921875h-1.875v11.921875h1.875zm0-4.65625h-1.90625v2.375h1.90625zm0 0"/></symbol><symbol id="J" overflow="visible"><path d="m1.59375-16.578125v16.578125h1.890625v-6.578125c0-2.4375 1.265625-4.015625 3.234375-4.015625.625 0 1.21875.171875 1.671875.515625.546875.40625.78125.984375.78125 1.8125v8.265625h1.890625v-9.015625c0-2-1.4375-3.25-3.765625-3.25-1.671875 0-2.703125.53125-3.8125 1.984375v-6.296875zm0 0"/></symbol><symbol id="K" overflow="visible"><path d="m10.078125-11.921875h-8.890625v1.65625h6.640625l-7.125 8.5625v1.703125h9.6875v-1.65625h-7.390625l7.078125-8.578125zm0 0"/></symbol><symbol id="L" overflow="visible"><path d="m11.265625-16.578125h-1.890625v6.15625c-.796875-1.203125-2.078125-1.84375-3.671875-1.84375-3.09375 0-5.109375 2.484375-5.109375 6.28125 0 4.03125 1.953125 6.5 5.1875 6.5 1.640625 0 2.765625-.609375 3.796875-2.078125v1.5625h1.6875zm-5.234375 6.09375c2.046875 0 3.34375 1.796875 3.34375 4.65625 0 2.75-1.328125 4.578125-3.328125 4.578125-2.09375 0-3.46875-1.84375-3.46875-4.625 0-2.765625 1.375-4.609375 3.453125-4.609375zm0 0"/></symbol><symbol id="M" overflow="visible"><path d="m11.671875-5.328125c0-1.8125-.140625-2.90625-.484375-3.796875-.765625-1.953125-2.59375-3.140625-4.8125-3.140625-3.328125 0-5.46875 2.53125-5.46875 6.46875s2.046875 6.3125 5.421875 6.3125c2.71875 0 4.609375-1.546875 5.09375-4.140625h-1.90625c-.53125 1.578125-1.59375 2.390625-3.125 2.390625-1.203125 0-2.234375-.546875-2.859375-1.546875-.453125-.671875-.625-1.359375-.640625-2.546875zm-8.734375-1.546875c.15625-2.203125 1.5-3.640625 3.40625-3.640625 1.9375 0 3.28125 1.5 3.28125 3.640625zm4.0625-9.953125-2.171875 3.359375h1.359375l3.390625-3.359375zm0 0"/></symbol><symbol id="N" overflow="visible"><path d="m1.59375-11.921875v11.921875h1.90625v-7.484375c0-1.734375 1.25-3.109375 2.796875-3.109375 1.421875 0 2.21875.859375 2.21875 2.375v8.21875h1.90625v-7.484375c0-1.734375 1.25-3.109375 2.796875-3.109375 1.390625 0 2.203125.875 2.203125 2.375v8.21875h1.90625v-8.9375c0-2.140625-1.21875-3.328125-3.453125-3.328125-1.59375 0-2.546875.484375-3.65625 1.828125-.703125-1.28125-1.671875-1.828125-3.21875-1.828125-1.578125 0-2.65625.59375-3.65625 2.03125v-1.6875zm0 0"/></symbol><symbol id="O" overflow="visible"><path d="m13.5625-11.71875c0-1.140625-.078125-1.453125-.4375-2.234375-.90625-1.90625-2.84375-2.90625-5.640625-2.90625-3.640625 0-5.890625 1.875-5.890625 4.875 0 2.015625 1.0625 3.296875 3.25 3.859375l4.125 1.09375c2.109375.546875 3.046875 1.390625 3.046875 2.6875 0 .890625-.484375 1.796875-1.1875 2.296875-.65625.484375-1.703125.703125-3.046875.703125-1.828125 0-3.03125-.4375-3.828125-1.390625-.609375-.71875-.875-1.515625-.859375-2.546875h-2c.015625 1.53125.3125 2.53125.96875 3.4375 1.140625 1.578125 3.0625 2.359375 5.578125 2.359375 1.984375 0 3.59375-.453125 4.671875-1.265625 1.109375-.890625 1.8125-2.359375 1.8125-3.796875 0-2.046875-1.265625-3.546875-3.53125-4.171875l-4.15625-1.109375c-2-.546875-2.734375-1.1875-2.734375-2.453125 0-1.6875 1.484375-2.796875 3.71875-2.796875 2.640625 0 4.109375 1.171875 4.140625 3.359375zm0 0"/></symbol><symbol id="P" overflow="visible"><path d="m6.484375 0 4.578125-11.921875h-2.140625l-3.375 9.671875-3.1875-9.671875h-2.125l4.171875 11.921875zm0 0"/></symbol><symbol id="Q" overflow="visible"><path d="m4.03125-11.921875h-1.890625v11.921875h1.890625zm-.375-4.90625-2.171875 3.359375h1.359375l3.390625-3.359375zm0 0"/></symbol><symbol id="R" overflow="visible"><path d="m12.171875-1.109375c-.203125.046875-.296875.046875-.40625.046875-.65625 0-1.03125-.34375-1.03125-.9375v-7.015625c0-2.109375-1.546875-3.25-4.484375-3.25-1.75 0-3.140625.5-3.953125 1.390625-.546875.609375-.765625 1.296875-.8125 2.484375h1.90625c.15625-1.453125 1.015625-2.125 2.796875-2.125 1.734375 0 2.65625.640625 2.65625 1.78125v.5c-.015625.8125-.421875 1.109375-1.96875 1.3125-2.6875.34375-3.09375.4375-3.828125.734375-1.390625.59375-2.09375 1.640625-2.09375 3.1875 0 2.15625 1.5 3.515625 3.921875 3.515625 1.5 0 2.703125-.515625 4.046875-1.75.125 1.234375.71875 1.75 1.953125 1.75.40625 0 .65625-.03125 1.296875-.203125zm-3.328125-2.640625c0 .640625-.171875 1.015625-.75 1.546875-.765625.703125-1.703125 1.0625-2.8125 1.0625-1.484375 0-2.34375-.703125-2.34375-1.90625 0-1.25.8125-1.890625 2.859375-2.1875 2.03125-.265625 2.421875-.359375 3.046875-.65625zm0 0"/></symbol><symbol id="S" overflow="visible"><path d="m1.59375-11.921875v13.65625c0 1.171875-.359375 1.5625-1.546875 1.5625-.140625 0-.203125 0-.453125-.015625v1.609375c.21875.046875.34375.0625.640625.0625 2.125 0 3.25-.828125 3.25-2.46875v-14.40625zm1.890625-4.65625h-1.890625v2.375h1.890625zm0 0"/></symbol><symbol id="T" overflow="visible"><path d="m10.640625 0 4.671875-13.90625v13.90625h2v-16.578125h-2.9375l-4.8125 14.4375-4.921875-14.4375h-2.9375v16.578125h2v-13.90625l4.71875 13.90625zm0 0"/></symbol><symbol id="U" overflow="visible"><path d="m6.1875-12.265625c-3.359375 0-5.375 2.390625-5.375 6.390625 0 4.03125 2.015625 6.390625 5.390625 6.390625s5.40625-2.375 5.40625-6.296875c0-4.140625-1.96875-6.484375-5.421875-6.484375zm.015625 1.75c2.140625 0 3.421875 1.75 3.421875 4.71875 0 2.8125-1.328125 4.5625-3.421875 4.5625-2.109375 0-3.40625-1.75-3.40625-4.640625s1.296875-4.640625 3.40625-4.640625zm.578125-6.3125-2.1875 3.359375h1.359375l3.390625-3.359375zm0 0"/></symbol><symbol id="V" overflow="visible"><path d="m9.1875-11.921875v1.734375c-.953125-1.4375-2-2.078125-3.5-2.078125-2.890625 0-4.890625 2.6875-4.890625 6.515625 0 2 .484375 3.453125 1.5 4.65625.890625 1.046875 2.03125 1.609375 3.25 1.609375 1.4375 0 2.46875-.625 3.46875-2.125v.609375c0 3.1875-.890625 4.359375-3.265625 4.359375-1.609375 0-2.453125-.625-2.640625-2h-1.921875c.171875 2.21875 1.921875 3.59375 4.515625 3.59375 1.765625 0 3.21875-.5625 3.984375-1.515625.90625-1.109375 1.25-2.59375 1.25-5.390625v-9.96875zm-3.3125 1.40625c2 0 3.140625 1.6875 3.140625 4.71875 0 2.890625-1.171875 4.5625-3.140625 4.5625s-3.09375-1.703125-3.09375-4.640625c0-2.90625 1.125-4.640625 3.09375-4.640625zm0 0"/></symbol><symbol id="W" overflow="visible"><path d="m8.828125-11.921875-3.296875 9.28125-3.046875-9.28125h-2.03125l4.03125 11.96875-.734375 1.890625c-.3125.84375-.71875 1.15625-1.515625 1.15625-.328125 0-.59375-.046875-1-.140625v1.703125c.375.21875.765625.296875 1.265625.296875.609375 0 1.28125-.203125 1.78125-.5625.59375-.4375.921875-.9375 1.296875-1.890625l5.296875-14.421875zm0 0"/></symbol><symbol id="X" overflow="visible"><path d="m4.734375-16.578125h-1.890625v7.6875l.5 5.0625h.890625l.5-5.0625zm0 14.21875h-1.90625v2.359375h1.90625zm0 0"/></symbol><symbol id="Y" overflow="visible"><path d="m10.78125-4.984375 1.703125 4.984375h2.375l-5.828125-16.578125h-2.734375l-5.90625 16.578125h2.25l1.75-4.984375zm-.59375-1.765625h-5.28125l2.734375-7.5625zm0 0"/></symbol><symbol id="Z" overflow="visible"><path d="m8.1875-4.96875c-1.546875 0-3.03125.515625-4.359375 1.3125-1.734375 1.046875-3.828125 2.84375-3.828125 5.46875 0 2.171875 1.921875 3.15625 3.875 3.15625 1.546875 0 3.015625-.515625 4.34375-1.3125 1.734375-1.046875 3.796875-2.84375 3.796875-5.46875 0-2.171875-1.875-3.15625-3.828125-3.15625zm0 0"/></symbol><symbol id="aa" overflow="visible"><path d="m5.234375 0c.140625 0 .296875-.140625.296875-.296875v-8.625c0-.140625-.15625-.296875-.296875-.296875h-4.9375c-.15625 0-.296875.15625-.296875.296875v8.625c0 .15625.140625.296875.296875.296875zm0 0"/></symbol><symbol id="ab" overflow="visible"><path d="m.921875-1.625c.03125-1.21875.84375-2.28125 1.984375-2.28125 1.109375 0 1.625 1.296875 1.625 2.546875 0 2.171875-1.84375 3.71875-3.53125 5.125-.078125-.8125-.15625-1.625-.15625-2.4375 0-.15625.046875-.265625.046875-.40625zm-1.84375-15.4375.40625 22.078125c0 .4375.328125.765625.78125.765625.65625 0 .953125-.765625 1.46875-1.171875 2.3125-1.875 5.640625-3.203125 5.640625-6.234375 0-1.984375-1.484375-3.6875-3.4375-3.6875-1.171875 0-2.28125.40625-3.234375 1.109375l.21875-12.859375c-.296875-.15625-.59375-.265625-.921875-.265625s-.625.109375-.921875.265625zm0 0"/></symbol><symbol id="ac" overflow="visible"><path d="m13.78125-9.578125c-.578125-2.578125-1.28125-5.125-2.015625-7.671875 3.53125-4.015625 6.734375-8.140625 6.734375-13.453125 0-4.171875-2.28125-10.140625-4.859375-13.234375-.1875-.140625-.40625-.140625-.59375 0-3.5 2.546875-5.53125 6.59375-5.53125 10.875 0 1.921875.046875 3.796875.265625 5.671875.25 2.40625.875 4.71875 1.546875 7.046875-4.359375 4.9375-9.25 9.65625-9.25 16.21875 0 7.40625 5.34375 13.703125 12.265625 13.703125 1.140625 0 2.21875-.109375 3.28125-.296875.109375 1.1875.1875 2.359375.1875 3.546875 0 .65625-.03125 1.28125-.078125 1.953125-.21875 3.640625-2.46875 7-5.890625 7.078125-.046875 0-.078125.03125-.109375.03125-1.890625 0-3.5-1.0625-4.46875-2.578125.40625.1875.859375.328125 1.296875.328125 1.921875 0 3.5-1.578125 3.5-3.5 0-2.0625-1.515625-3.828125-3.5-3.828125-2.171875 0-4.125 1.6875-4.125 3.828125 0 3.984375 3.203125 7.1875 7.1875 7.1875 4.34375 0 7.328125-3.90625 7.59375-8.328125.03125-.703125.03125-1.359375.03125-2.0625 0-1.328125-.078125-2.65625-.1875-3.984375.96875-.296875 1.890625-.734375 2.6875-1.359375 2.734375-2.03125 3.953125-4.859375 3.953125-7.671875 0-4.859375-3.6875-9.546875-9.359375-9.546875-.1875 0-.375.046875-.5625.046875zm3.140625 17.140625c-.515625-4.578125-1.375-8.921875-2.28125-13.234375 4.046875.328125 6.59375 3.71875 6.59375 7.109375 0 2.578125-1.765625 5.234375-4.3125 6.125zm-14.3125-8.703125c0-5.90625 3.984375-10.359375 7.96875-14.8125.59375 2.171875 1.1875 4.34375 1.703125 6.546875-3.734375.859375-5.828125 3.984375-5.828125 7.234375 0 2.578125 1.328125 5.1875 4.265625 6.78125.125.03125.234375.078125.34375.078125.40625 0 .734375-.375.734375-.78125 0-.1875-.109375-.375-.265625-.515625-2.0625-1.171875-3.015625-2.953125-3.015625-4.5625 0-2.1875 1.6875-4.140625 4.609375-4.46875.953125 4.421875 1.796875 8.8125 2.359375 13.53125-1 .140625-2 .21875-3.03125.21875-5 0-9.84375-4.234375-9.84375-9.25zm12.546875-37.5625c.625 1.953125.765625 2.90625.765625 5.046875 0 4.6875-2.46875 8.40625-5.484375 11.984375-.671875-2.328125-1.21875-4.578125-1.21875-7.375 0-4.09375 2.28125-7.8125 5.9375-9.65625zm0 0"/></symbol><symbol id="ad" overflow="visible"><path d="m0 0h-.515625v9.21875h.515625zm0 0v9.21875c2.65625 2.765625 6.1875 6.625 6.1875 10.46875 0 2.46875-.546875 4.859375-1.5 7.140625-.109375.5625.328125.921875.765625.921875.265625 0 .484375-.140625.625-.40625.96875-2.421875 1.546875-5.046875 1.546875-7.65625 0-7.296875-7.625-12.390625-7.625-19.6875zm0 0"/></symbol><symbol id="ae" overflow="visible"><path d="m5.234375 9.21875c.140625 0 .296875-.15625.296875-.296875v-17.84375c0-.140625-.15625-.296875-.296875-.296875h-4.9375c-.15625 0-.296875.15625-.296875.296875v17.84375c0 .140625.140625.296875.296875.296875zm0 0"/></symbol><symbol id="af" overflow="visible"><path d="m0 0v-9.21875h-.515625v9.21875zm0 0c0-7.484375 9.84375-11.28125 9.84375-18.765625 0-2.28125-.5625-4.53125-1.484375-6.59375-.140625-.265625-.390625-.375-.65625-.375-.4375 0-.890625.375-.78125.921875.921875 1.921875 1.484375 3.953125 1.484375 6.046875 0 4.125-4.796875 7.40625-8.40625 9.546875zm0 0"/></symbol><symbol id="ag" overflow="visible"><path d="m-2.328125-1.734375c0 1.296875 1.03125 2.328125 2.328125 2.328125s2.328125-1.03125 2.328125-2.328125c0-1.28125-1.03125-2.3125-2.328125-2.3125s-2.328125 1.03125-2.328125 2.3125zm2.328125-11.53125c-5.71875 0-12.125 6.375-12.125 13.34375 0 .296875.296875.515625.59375.515625.25 0 .546875-.1875.625-.59375.953125-5.484375 5.421875-9.765625 10.90625-9.765625s9.953125 4.28125 10.90625 9.765625c.078125.40625.375.59375.625.59375.296875 0 .59375-.21875.59375-.515625 0-6.96875-6.375-13.34375-12.125-13.34375zm0 0"/></symbol><symbol id="ah" overflow="visible"><path d="m4.828125-9.921875v9.921875h2.84375v-14.375h-1.890625c-.453125 1.703125-1.921875 2.578125-4.40625 2.578125v1.875zm0 0"/></symbol><symbol id="ai" overflow="visible"><path d="m4.34375-2.96875h-3.046875v2.96875h3.046875zm0 0"/></symbol><g clip-path="url(#a)"><path d="m3.203125 3953.25625h5946.328125" fill="none" stroke="#000" stroke-linecap="round" stroke-miterlimit="10" stroke-width="6.43238" transform="matrix(.1 0 0 -.1 0 463.06)"/></g><g clip-path="url(#b)"><path d="m3.203125 4045.404688h5946.328125" fill="none" stroke="#000" stroke-linecap="round" stroke-miterlimit="10" stroke-width="6.43238" transform="matrix(.1 0 0 -.1 0 463.06)"/></g><g clip-path="url(#c)"><path d="m3.203125 4137.553125h5946.328125" fill="none" stroke="#000" stroke-linecap="round" stroke-miterlimit="10" stroke-width="6.43238" transform="matrix(.1 0 0 -.1 0 463.06)"/></g><g clip-path="url(#d)"><path d="m3.203125 4229.701563h5946.328125" fill="none" stroke="#000" stroke-linecap="round" stroke-miterlimit="10" stroke-width="6.43238" transform="matrix(.1 0 0 -.1 0 463.06)"/></g><g clip-path="url(#e)"><path d="m3.203125 4321.889063h5946.328125" fill="none" stroke="#000" stroke-linecap="round" stroke-miterlimit="10" stroke-width="6.43238" transform="matrix(.1 0 0 -.1 0 463.06)"/></g><path d="m5352.421875 3863.1h4.375v300.429688h-4.375zm0 0" style="fill:none;stroke-width:3.98107;stroke-linecap:round;stroke-linejoin:round;stroke:#000;stroke-miterlimit:10" transform="matrix(.1 0 0 -.1 0 463.06)"/><path d="m535.242188 76.75h.4375v-30.042969h-.4375zm0 0"/><use x="522.352" xlink:href="#v" y="99.988"/><use x="528.305511" xlink:href="#w" y="99.988"/><use x="540.890657" xlink:href="#x" y="99.988"/><use x="553.476193" xlink:href="#y" y="99.988"/><use x="535.0438" xlink:href="#Z" y="44.6954"/><path d="m4750.117188 3909.154688h4.375v300.429687h-4.375zm0 0" style="fill:none;stroke-width:3.98107;stroke-linecap:round;stroke-linejoin:round;stroke:#000;stroke-miterlimit:10" transform="matrix(.1 0 0 -.1 0 463.06)"/><path d="m475.011719 72.144531h.4375v-30.042969h-.4375zm0 0"/><use x="471.986" xlink:href="#z" y="99.988"/><use x="478.279354" xlink:href="#A" y="99.988"/><use x="474.81334" xlink:href="#Z" y="40.0876"/><path d="m4298.75 4111.615625h4.375v281.679688h-4.375zm0 0" style="fill:none;stroke-width:3.98107;stroke-linecap:round;stroke-linejoin:round;stroke:#000;stroke-miterlimit:10" transform="matrix(.1 0 0 -.1 0 463.06)"/><path d="m429.875 51.898438h.4375v-28.167969h-.4375zm0 0"/><use x="412.506" xlink:href="#B" y="99.988"/><use x="428.833718" xlink:href="#C" y="99.988"/><use x="418.47944" xlink:href="#Z" y="53.9107"/><path d="m3750 4157.709375h4.375v254.179688h-4.375zm0 0" style="fill:none;stroke-width:3.98107;stroke-linecap:round;stroke-linejoin:round;stroke:#000;stroke-miterlimit:10" transform="matrix(.1 0 0 -.1 0 463.06)"/><path d="m375 47.289062h.4375v-25.417968h-.4375zm0 0"/><use x="351.507" xlink:href="#v" y="99.988"/><use x="357.629651" xlink:href="#D" y="99.988"/><use x="370.215163" xlink:href="#E" y="99.988"/><use x="381.440543" xlink:href="#y" y="99.988"/><use x="363.6031" xlink:href="#Z" y="49.3028"/><g fill="none" stroke="#000" stroke-linecap="round" stroke-linejoin="round" stroke-miterlimit="10" transform="matrix(.1 0 0 -.1 0 463.06)"><g stroke-width="10.2936"><path d="m1450.976562 4463.334375v-64.492187"/><path d="m803.515625 4508.803125v-64.492187"/><path d="m1450.976562 4463.334375-314.53125 22.109375"/><path d="m803.515625 4508.803125 332.929687-23.359375"/></g><path d="m1013.632812 3693.178125h55.703126v3.242188h-55.703126zm0 0" stroke-width="5.14222"/></g><path d="m101.363281 93.742188h5.570313v-.324219h-5.570313zm0 0"/><path d="m1618.125 3693.178125h55.664062v3.242188h-55.664062zm0 0" style="fill:none;stroke-width:5.14222;stroke-linecap:round;stroke-linejoin:round;stroke:#000;stroke-miterlimit:10" transform="matrix(.1 0 0 -.1 0 463.06)"/><path d="m161.8125 93.742188h5.566406v-.324219h-5.566406zm0 0"/><g fill="none" stroke="#000" stroke-linecap="round" stroke-linejoin="round" stroke-miterlimit="10" transform="matrix(.1 0 0 -.1 0 463.06)"><g stroke-width="10.2936"><path d="m2625.039062 4533.685938v-64.492188"/><path d="m1954.648438 4460.639063v-64.53125"/><path d="m2625.039062 4533.685938-326.054687-35.546875"/><path d="m1954.648438 4460.639063 344.335937 37.5"/></g><path d="m2790.507812 3693.178125h55.703126v3.242188h-55.703126zm0 0" stroke-width="5.14222"/></g><path d="m279.050781 93.742188h5.570313v-.324219h-5.570313zm0 0"/><path d="m3321.5625 3693.178125h55.664062v3.242188h-55.664062zm0 0" style="fill:none;stroke-width:5.14222;stroke-linecap:round;stroke-linejoin:round;stroke:#000;stroke-miterlimit:10" transform="matrix(.1 0 0 -.1 0 463.06)"/><path d="m332.15625 93.742188h5.566406v-.324219h-5.566406zm0 0"/><path d="m3750 4434.154688v-40.234375l553.125-18.90625v40.234375zm0 0" fill="none" stroke="#000" stroke-linejoin="round" stroke-miterlimit="10" stroke-width="3.98107" transform="matrix(.1 0 0 -.1 0 463.06)"/><path d="m375 19.644531v4.023438l55.3125 1.890625v-4.023438zm0 0"/><path d="m5032.304688 3693.178125h55.664062v3.242188h-55.664062zm0 0" fill="none" stroke="#000" stroke-linejoin="round" stroke-miterlimit="10" stroke-width="5.14222" transform="matrix(.1 0 0 -.1 0 463.06)"/><path d="m503.230469 93.742188h5.566406v-.324219h-5.566406zm0 0"/><use x="581.452" xlink:href="#aa" y="40.088"/><use x="64.85" xlink:href="#F" y="99.9884"/><use x="76.585916" xlink:href="#w" y="99.9884"/><use x="131.225" xlink:href="#Z" y="58.5189"/><path d="m823.90625 4111.615625h4.375v300.429688h-4.375zm0 0" fill="none" stroke="#000" stroke-linejoin="round" stroke-miterlimit="10" stroke-width="3.98107" transform="matrix(.1 0 0 -.1 0 463.06)"/><path d="m82.390625 51.898438h.4375v-30.042969h-.4375zm0 0"/><use x="38.7961" xlink:href="#ah" y="99.988"/><use x="50.021514" xlink:href="#ai" y="99.988"/><use x="300.6851" xlink:href="#G" y="99.988"/><use x="313.270612" xlink:href="#H" y="99.988"/><use x="40.5821" xlink:href="#ab" y="49.3028"/><use x="7.3723" xlink:href="#ac" y="58.51842"/><use x="70.993" xlink:href="#Z" y="53.91061"/><path d="m3037.109375 3863.1h4.375v300.429688h-4.375zm0 0" fill="none" stroke="#000" stroke-linejoin="round" stroke-miterlimit="10" stroke-width="3.98107" transform="matrix(.1 0 0 -.1 0 463.06)"/><path d="m303.710938 76.75h.4375v-30.042969h-.4375zm0 0"/><use x="303.512" xlink:href="#Z" y="44.696"/><use x="260.6694" xlink:href="#ad" y="21.8573"/><path d="m2600.3125 4111.615625h4.375v300.429688h-4.375zm0 0" fill="none" stroke="#000" stroke-linejoin="round" stroke-miterlimit="10" stroke-width="3.98107" transform="matrix(.1 0 0 -.1 0 463.06)"/><path d="m260.03125 51.898438h.4375v-30.042969h-.4375zm0 0"/><use x="246.32" xlink:href="#E" y="99.988"/><use x="257.885223" xlink:href="#I" y="99.988"/><use x="248.6368" xlink:href="#Z" y="53.9107"/><use x="119.1288" xlink:href="#J" y="99.988"/><use x="131.714324" xlink:href="#D" y="99.988"/><use x="143.959615" xlink:href="#K" y="99.988"/><use x="173.835347" xlink:href="#K" y="99.988"/><use x="185.229855" xlink:href="#G" y="99.988"/><use x="197.81538" xlink:href="#L" y="99.988"/><use x="186.1018" xlink:href="#Z" y="63.1263"/><path d="m1974.960938 4019.467188h4.375v300.429687h-4.375zm0 0" fill="none" stroke="#000" stroke-linejoin="round" stroke-miterlimit="10" stroke-width="3.98107" transform="matrix(.1 0 0 -.1 0 463.06)"/><path d="m197.496094 61.113281h.4375v-30.042969h-.4375zm0 0"/><path d="m1426.210938 4065.521875h4.375v300.429688h-4.375zm0 0" fill="none" stroke="#000" stroke-linejoin="round" stroke-miterlimit="10" stroke-width="3.98107" transform="matrix(.1 0 0 -.1 0 463.06)"/><path d="m142.621094 56.507812h.4375v-30.042968h-.4375zm0 0"/><use x="143.259" xlink:href="#ad" y="26.465"/><g clip-path="url(#f)"><path d="m3.203125 2847.396875h5946.328125" style="fill:none;stroke-width:6.43238;stroke-linecap:round;stroke-linejoin:round;stroke:#000;stroke-miterlimit:10" transform="matrix(.1 0 0 -.1 0 463.06)"/></g><g clip-path="url(#g)"><path d="m3.203125 2939.545313h5946.328125" style="fill:none;stroke-width:6.43238;stroke-linecap:round;stroke-linejoin:round;stroke:#000;stroke-miterlimit:10" transform="matrix(.1 0 0 -.1 0 463.06)"/></g><g clip-path="url(#h)"><path d="m3.203125 3031.69375h5946.328125" style="fill:none;stroke-width:6.43238;stroke-linecap:round;stroke-linejoin:round;stroke:#000;stroke-miterlimit:10" transform="matrix(.1 0 0 -.1 0 463.06)"/></g><g clip-path="url(#i)"><path d="m3.203125 3123.88125h5946.328125" style="fill:none;stroke-width:6.43238;stroke-linecap:round;stroke-linejoin:round;stroke:#000;stroke-miterlimit:10" transform="matrix(.1 0 0 -.1 0 463.06)"/></g><g clip-path="url(#j)"><path d="m3.203125 3216.029688h5946.328125" style="fill:none;stroke-width:6.43238;stroke-linecap:round;stroke-linejoin:round;stroke:#000;stroke-miterlimit:10" transform="matrix(.1 0 0 -.1 0 463.06)"/></g><use x="332.674" xlink:href="#Z" y="164.496"/><path d="m5376.5625 3005.75625h4.375v300.429688h-4.375zm0 0" style="fill:none;stroke-width:3.98107;stroke-linecap:round;stroke-linejoin:round;stroke:#000;stroke-miterlimit:10" transform="matrix(.1 0 0 -.1 0 463.06)"/><path d="m537.65625 162.484375h.4375v-30.042969h-.4375zm0 0"/><use x="514.929" xlink:href="#A" y="210.573"/><use x="526.15438" xlink:href="#M" y="210.573"/><use x="538.739916" xlink:href="#H" y="210.573"/><use x="543.331709" xlink:href="#y" y="210.573"/><use x="526.2603" xlink:href="#Z" y="164.496"/><use x="475.6095" xlink:href="#ad" y="137.0495"/><path d="m4749.726562 2959.701563h4.375v300.429687h-4.375zm0 0" style="fill:none;stroke-width:3.98107;stroke-linecap:round;stroke-linejoin:round;stroke:#000;stroke-miterlimit:10" transform="matrix(.1 0 0 -.1 0 463.06)"/><path d="m474.972656 167.089844h.4375v-30.042969h-.4375zm0 0"/><use x="452.159" xlink:href="#E" y="210.573"/><use x="463.044147" xlink:href="#M" y="210.573"/><use x="475.629683" xlink:href="#A" y="210.573"/><use x="463.575" xlink:href="#Z" y="169.1035"/><path d="m3955.585938 2726.5375h4.375v285.078125h-4.375zm0 0" style="fill:none;stroke-width:3.98107;stroke-linecap:round;stroke-linejoin:round;stroke:#000;stroke-miterlimit:10" transform="matrix(.1 0 0 -.1 0 463.06)"/><path d="m395.558594 190.40625h.4375v-28.507812h-.4375zm0 0"/><use x="388.789" xlink:href="#x" y="210.573"/><use x="401.374512" xlink:href="#w" y="210.573"/><use x="395.35775" xlink:href="#Z" y="159.8882"/><use x="344.70695" xlink:href="#ad" y="132.4417"/><path d="m3440.703125 3005.75625h4.375v300.429688h-4.375zm0 0" style="fill:none;stroke-width:3.98107;stroke-linecap:round;stroke-linejoin:round;stroke:#000;stroke-miterlimit:10" transform="matrix(.1 0 0 -.1 0 463.06)"/><path d="m344.070312 162.484375h.4375v-30.042969h-.4375zm0 0"/><use x="314.114" xlink:href="#K" y="210.573"/><use x="325.508911" xlink:href="#G" y="210.573"/><use x="338.094423" xlink:href="#N" y="210.573"/><use x="356.972895" xlink:href="#y" y="210.573"/><path d="m1040.273438 2587.357813h55.703124v3.203125h-55.703124zm0 0" style="fill:none;stroke-width:5.14222;stroke-linecap:round;stroke-linejoin:round;stroke:#000;stroke-miterlimit:10" transform="matrix(.1 0 0 -.1 0 463.06)"/><path d="m104.027344 204.324219h5.570312v-.320313h-5.570312zm0 0"/><path d="m1392.851562 2827.279688h631.25v40.234375h-631.25zm0 0" fill="none" stroke="#000" stroke-linejoin="round" stroke-miterlimit="10" stroke-width="3.98107" transform="matrix(.1 0 0 -.1 0 463.06)"/><path d="m139.285156 180.332031h63.125v-4.023437h-63.125zm0 0"/><path d="m2335.820312 2587.357813h55.703126v3.203125h-55.703126zm0 0" fill="none" stroke="#000" stroke-linejoin="round" stroke-miterlimit="10" stroke-width="5.14222" transform="matrix(.1 0 0 -.1 0 463.06)"/><path d="m233.582031 204.324219h5.570313v-.320313h-5.570313zm0 0"/><g fill="none" stroke="#000" stroke-linecap="round" stroke-linejoin="round" stroke-miterlimit="10" transform="matrix(.1 0 0 -.1 0 463.06)"><g stroke-width="10.2936"><path d="m3465.507812 3412.748438v-64.53125"/><path d="m2626.132812 3412.748438v-64.53125"/><path d="m3465.507812 3412.748438h-410.46875"/><path d="m2626.132812 3412.748438h428.90625"/></g><path d="m2985.664062 2587.357813h55.664063v3.203125h-55.664063zm0 0" stroke-width="5.14222"/></g><path d="m298.566406 204.324219h5.566406v-.320313h-5.566406zm0 0"/><g fill="none" stroke="#000" stroke-linecap="round" stroke-linejoin="round" stroke-miterlimit="10" transform="matrix(.1 0 0 -.1 0 463.06)"><g stroke-width="10.2936"><path d="m4774.53125 3366.654688v-64.53125"/><path d="m3935.15625 3366.654688v-64.53125"/><path d="m4774.53125 3366.654688h-410.46875"/><path d="m3935.15625 3366.654688h428.90625"/></g><path d="m4981.914062 2587.357813h55.703126v3.203125h-55.703126zm0 0" stroke-width="5.14222"/></g><path d="m498.191406 204.324219h5.570313v-.320313h-5.570313zm0 0"/><use x="581.452" xlink:href="#ae" y="159.889"/><use x="40.583962" xlink:href="#ab" y="159.889"/><path d="m702.695312 2757.240625h4.375v300.429688h-4.375zm0 0" style="fill:none;stroke-width:3.98107;stroke-linecap:round;stroke-linejoin:round;stroke:#000;stroke-miterlimit:10" transform="matrix(.1 0 0 -.1 0 463.06)"/><path d="m70.269531 187.335938h.4375v-30.042969h-.4375zm0 0"/><use x="65.9688" xlink:href="#O" y="210.573"/><use x="81.105884" xlink:href="#I" y="210.573"/><use x="70.07153" xlink:href="#Z" y="155.2804"/><use x="7.37233" xlink:href="#ac" y="169.1034"/><use x="139.08833" xlink:href="#Z" y="150.6725"/><path d="m2646.5625 2757.240625h4.375v300.429688h-4.375zm0 0" style="fill:none;stroke-width:3.98107;stroke-linecap:round;stroke-linejoin:round;stroke:#000;stroke-miterlimit:10" transform="matrix(.1 0 0 -.1 0 463.06)"/><path d="m264.65625 187.335938h.4375v-30.042969h-.4375zm0 0"/><use x="252.36" xlink:href="#J" y="210.573"/><use x="264.945512" xlink:href="#D" y="210.573"/><use x="277.19118" xlink:href="#K" y="210.573"/><use x="264.4565" xlink:href="#Z" y="155.2804"/><path d="m2019.726562 2849.389063h4.375v254.335937h-4.375zm0 0" style="fill:none;stroke-width:3.98107;stroke-linecap:round;stroke-linejoin:round;stroke:#000;stroke-miterlimit:10" transform="matrix(.1 0 0 -.1 0 463.06)"/><path d="m201.972656 178.121094h.4375v-25.433594h-.4375zm0 0"/><use x="195.204" xlink:href="#M" y="210.573"/><use x="207.789512" xlink:href="#x" y="210.573"/><use x="201.77275" xlink:href="#Z" y="150.6726"/><path d="m1392.851562 2849.389063h4.414063v254.335937h-4.414063zm0 0" style="fill:none;stroke-width:3.98107;stroke-linecap:round;stroke-linejoin:round;stroke:#000;stroke-miterlimit:10" transform="matrix(.1 0 0 -.1 0 463.06)"/><path d="m139.285156 178.121094h.4375v-25.433594h-.4375zm0 0"/><use x="127.416" xlink:href="#w" y="210.573"/><use x="140.001524" xlink:href="#A" y="210.573"/><use x="151.396423" xlink:href="#A" y="210.573"/><g clip-path="url(#k)"><path d="m3.203125 1741.5375h5946.328125" style="fill:none;stroke-width:6.43238;stroke-linecap:round;stroke-linejoin:round;stroke:#000;stroke-miterlimit:10" transform="matrix(.1 0 0 -.1 0 463.06)"/></g><g clip-path="url(#l)"><path d="m3.203125 1833.725h5946.328125" style="fill:none;stroke-width:6.43238;stroke-linecap:round;stroke-linejoin:round;stroke:#000;stroke-miterlimit:10" transform="matrix(.1 0 0 -.1 0 463.06)"/></g><g clip-path="url(#m)"><path d="m3.203125 1925.873438h5946.328125" style="fill:none;stroke-width:6.43238;stroke-linecap:round;stroke-linejoin:round;stroke:#000;stroke-miterlimit:10" transform="matrix(.1 0 0 -.1 0 463.06)"/></g><g clip-path="url(#n)"><path d="m3.203125 2018.021875h5946.328125" style="fill:none;stroke-width:6.43238;stroke-linecap:round;stroke-linejoin:round;stroke:#000;stroke-miterlimit:10" transform="matrix(.1 0 0 -.1 0 463.06)"/></g><g clip-path="url(#o)"><path d="m3.203125 2110.170313h5946.328125" style="fill:none;stroke-width:6.43238;stroke-linecap:round;stroke-linejoin:round;stroke:#000;stroke-miterlimit:10" transform="matrix(.1 0 0 -.1 0 463.06)"/></g><use x="331.522" xlink:href="#Z" y="270.474"/><path d="m5375.625 1807.748438h4.375v300.429687h-4.375zm0 0" style="fill:none;stroke-width:3.98107;stroke-linecap:round;stroke-linejoin:round;stroke:#000;stroke-miterlimit:10" transform="matrix(.1 0 0 -.1 0 463.06)"/><path d="m537.5625 282.285156h.4375v-30.042968h-.4375zm0 0"/><use x="515.005" xlink:href="#P" y="319.568"/><use x="525.890147" xlink:href="#w" y="319.568"/><use x="538.475683" xlink:href="#H" y="319.568"/><use x="543.067865" xlink:href="#y" y="319.568"/><use x="526.1667" xlink:href="#Z" y="284.2969"/><use x="475.4319" xlink:href="#ad" y="247.6348"/><path d="m4747.96875 1853.842188h4.375v300.429687h-4.375zm0 0" style="fill:none;stroke-width:3.98107;stroke-linecap:round;stroke-linejoin:round;stroke:#000;stroke-miterlimit:10" transform="matrix(.1 0 0 -.1 0 463.06)"/><path d="m474.796875 277.675781h.4375v-30.039062h-.4375zm0 0"/><use x="449.346" xlink:href="#A" y="319.568"/><use x="460.74052" xlink:href="#K" y="319.568"/><use x="472.135431" xlink:href="#Q" y="319.568"/><use x="478.088942" xlink:href="#P" y="319.568"/><use x="463.3983" xlink:href="#Z" y="279.6891"/><path d="m4056.875 1899.896875h4.375v300.429688h-4.375zm0 0" style="fill:none;stroke-width:3.98107;stroke-linecap:round;stroke-linejoin:round;stroke:#000;stroke-miterlimit:10" transform="matrix(.1 0 0 -.1 0 463.06)"/><path d="m405.6875 273.070312h.4375v-30.042968h-.4375zm0 0"/><use x="385.765" xlink:href="#H" y="319.568"/><use x="390.867729" xlink:href="#R" y="319.568"/><use x="403.453241" xlink:href="#E" y="319.568"/><use x="394.28922" xlink:href="#Z" y="275.0813"/><use x="332.35802" xlink:href="#af" y="301.3766"/><path d="m3317.226562 1616.810938h4.375v288.90625h-4.375zm0 0" style="fill:none;stroke-width:3.98107;stroke-linecap:round;stroke-linejoin:round;stroke:#000;stroke-miterlimit:10" transform="matrix(.1 0 0 -.1 0 463.06)"/><path d="m331.722656 301.378906h.4375v-28.890625h-.4375zm0 0"/><use x="319.255" xlink:href="#J" y="319.568"/><use x="331.840512" xlink:href="#R" y="319.568"/><use x="344.426024" xlink:href="#S" y="319.568"/><use x="349.528753" xlink:href="#v" y="319.568"/><path d="m1504.375 2203.56875v-40.273437l609.023438-54.335938v40.234375zm0 0" fill="none" stroke="#000" stroke-linejoin="round" stroke-miterlimit="10" stroke-width="3.98107" transform="matrix(.1 0 0 -.1 0 463.06)"/><path d="m150.4375 242.703125v4.027344l60.902344 5.433593v-4.023437zm0 0"/><path d="m1676.992188 1497.396875h55.703124v3.203125h-55.703124zm0 0" fill="none" stroke="#000" stroke-linejoin="round" stroke-miterlimit="10" stroke-width="5.14222" transform="matrix(.1 0 0 -.1 0 463.06)"/><path d="m167.699219 313.320312h5.570312v-.320312h-5.570312zm0 0"/><g fill="none" stroke="#000" stroke-linecap="round" stroke-linejoin="round" stroke-miterlimit="10" transform="matrix(.1 0 0 -.1 0 463.06)"><g stroke-width="10.2936"><path d="m3453.984375 2303.685938v-64.492188"/><path d="m2716.25 2303.685938v-64.492188"/><path d="m3453.984375 2303.685938h-359.648437"/><path d="m2716.25 2303.685938h378.085938"/></g><path d="m2941.367188 1497.396875h55.664062v3.203125h-55.664062zm0 0" stroke-width="5.14222"/></g><path d="m294.136719 313.320312h5.566406v-.320312h-5.566406zm0 0"/><path d="m3680.078125 1497.396875h55.703125v3.203125h-55.703125zm0 0" style="fill:none;stroke-width:5.14222;stroke-linecap:round;stroke-linejoin:round;stroke:#000;stroke-miterlimit:10" transform="matrix(.1 0 0 -.1 0 463.06)"/><path d="m368.007812 313.320312h5.570313v-.320312h-5.570313zm0 0"/><g fill="none" stroke="#000" stroke-linecap="round" stroke-linejoin="round" stroke-miterlimit="10" transform="matrix(.1 0 0 -.1 0 463.06)"><g stroke-width="10.2936"><path d="m4772.734375 2252.7875v-64.492187"/><path d="m4036.484375 2297.94375v-64.492187"/><path d="m4772.734375 2252.7875-358.945313 22.03125"/><path d="m4036.484375 2297.94375 377.304687-23.125"/></g><path d="m4994.609375 1497.396875h55.664063v3.203125h-55.664063zm0 0" stroke-width="5.14222"/></g><path d="m499.460938 313.320312h5.566406v-.320312h-5.566406zm0 0"/><use x="581.452" xlink:href="#aa" y="261.258"/><use x="40.582" xlink:href="#ab" y="270.47323"/><path d="m702.695312 1651.38125h4.375v300.429688h-4.375zm0 0" style="fill:none;stroke-width:3.98107;stroke-linecap:round;stroke-linejoin:round;stroke:#000;stroke-miterlimit:10" transform="matrix(.1 0 0 -.1 0 463.06)"/><path d="m70.269531 297.921875h.4375v-30.042969h-.4375zm0 0"/><use x="53.1281" xlink:href="#T" y="319.568"/><use x="72.006578" xlink:href="#w" y="319.568"/><use x="84.592102" xlink:href="#C" y="319.568"/><use x="92.756149" xlink:href="#v" y="319.568"/><use x="70.0715" xlink:href="#Z" y="265.866"/><use x="7.3723" xlink:href="#ac" y="279.689"/><use x="139.0403" xlink:href="#Z" y="270.47338"/><path d="m2736.679688 1899.896875h4.375v300.429688h-4.375zm0 0" style="fill:none;stroke-width:3.98107;stroke-linecap:round;stroke-linejoin:round;stroke:#000;stroke-miterlimit:10" transform="matrix(.1 0 0 -.1 0 463.06)"/><path d="m273.667969 273.070312h.4375v-30.042968h-.4375zm0 0"/><use x="261.996" xlink:href="#U" y="319.568"/><use x="262.272172" xlink:href="#Z" y="275.0813"/><path d="m2109.023438 1853.842188h4.375v273.59375h-4.375zm0 0" style="fill:none;stroke-width:3.98107;stroke-linecap:round;stroke-linejoin:round;stroke:#000;stroke-miterlimit:10" transform="matrix(.1 0 0 -.1 0 463.06)"/><path d="m210.902344 277.675781h.4375v-27.359375h-.4375zm0 0"/><use x="186.643" xlink:href="#V" y="319.568"/><use x="199.228524" xlink:href="#w" y="319.568"/><use x="211.814036" xlink:href="#L" y="319.568"/><use x="199.5051" xlink:href="#Z" y="279.6891"/><path d="m1504.375 1945.990625h4.375v235.078125h-4.375zm0 0" style="fill:none;stroke-width:3.98107;stroke-linecap:round;stroke-linejoin:round;stroke:#000;stroke-miterlimit:10" transform="matrix(.1 0 0 -.1 0 463.06)"/><path d="m150.4375 268.460938h.4375v-23.507813h-.4375zm0 0"/><use x="135.789" xlink:href="#v" y="319.568"/><use x="141.742108" xlink:href="#M" y="319.568"/><g clip-path="url(#p)"><path d="m3.203125 635.717188h5946.328125" style="fill:none;stroke-width:6.43238;stroke-linecap:round;stroke-linejoin:round;stroke:#000;stroke-miterlimit:10" transform="matrix(.1 0 0 -.1 0 463.06)"/></g><g clip-path="url(#q)"><path d="m3.203125 727.865625h5946.328125" style="fill:none;stroke-width:6.43238;stroke-linecap:round;stroke-linejoin:round;stroke:#000;stroke-miterlimit:10" transform="matrix(.1 0 0 -.1 0 463.06)"/></g><g clip-path="url(#r)"><path d="m3.203125 820.014063h5946.328125" style="fill:none;stroke-width:6.43238;stroke-linecap:round;stroke-linejoin:round;stroke:#000;stroke-miterlimit:10" transform="matrix(.1 0 0 -.1 0 463.06)"/></g><g clip-path="url(#s)"><path d="m3.203125 912.1625h5946.328125" style="fill:none;stroke-width:6.43238;stroke-linecap:round;stroke-linejoin:round;stroke:#000;stroke-miterlimit:10" transform="matrix(.1 0 0 -.1 0 463.06)"/></g><g clip-path="url(#t)"><path d="m3.203125 1004.310938h5946.328125" style="fill:none;stroke-width:6.43238;stroke-linecap:round;stroke-linejoin:round;stroke:#000;stroke-miterlimit:10" transform="matrix(.1 0 0 -.1 0 463.06)"/></g><g clip-path="url(#u)"><path d="m5933.476562 635.717188v368.59375" fill="none" stroke="#000" stroke-linejoin="round" stroke-miterlimit="10" stroke-width="38.5943" transform="matrix(.1 0 0 -.1 0 463.06)"/></g><path d="m5888.75 635.717188v368.59375" fill="none" stroke="#000" stroke-linejoin="round" stroke-miterlimit="10" stroke-width="12.2197" transform="matrix(.1 0 0 -.1 0 463.06)"/><use x="400.591" xlink:href="#V" y="431.8362"/><use x="413.007005" xlink:href="#W" y="431.8362"/><use x="423.892152" xlink:href="#w" y="431.8362"/><use x="436.477688" xlink:href="#H" y="431.8362"/><path d="m4152.65625 618.4125h4.375v227.539063h-4.375zm0 0" fill="none" stroke="#000" stroke-linejoin="round" stroke-miterlimit="10" stroke-width="3.98107" transform="matrix(.1 0 0 -.1 0 463.06)"/><path d="m415.265625 401.222656h.4375v-22.757812h-.4375zm0 0"/><use x="468.861" xlink:href="#Z" y="381.0592"/><use x="459.14538" xlink:href="#N" y="431.8362"/><use x="478.023876" xlink:href="#w" y="431.8362"/><path d="m4690.625 514.81875h4.375v285.078125h-4.375zm0 0" fill="none" stroke="#000" stroke-linejoin="round" stroke-miterlimit="10" stroke-width="3.98107" transform="matrix(.1 0 0 -.1 0 463.06)"/><path d="m469.058594 411.578125h.4375v-28.507813h-.4375zm0 0"/><use x="286.169" xlink:href="#N" y="431.8362"/><use x="305.047472" xlink:href="#w" y="431.8362"/><use x="317.803687" xlink:href="#V" y="431.8362"/><use x="415.068" xlink:href="#Z" y="376.4514"/><path d="m3591.71875 564.81875h4.375v188.984375h-4.375zm0 0" fill="none" stroke="#000" stroke-linejoin="round" stroke-miterlimit="10" stroke-width="3.98107" transform="matrix(.1 0 0 -.1 0 463.06)"/><path d="m359.171875 406.578125h.4375v-18.898437h-.4375zm0 0"/><use x="353.253" xlink:href="#E" y="431.8362"/><use x="364.138147" xlink:href="#w" y="431.8362"/><use x="358.97136" xlink:href="#Z" y="385.6667"/><path d="m3024.609375 545.521875h4.375v300.429688h-4.375zm0 0" fill="none" stroke="#000" stroke-linejoin="round" stroke-miterlimit="10" stroke-width="3.98107" transform="matrix(.1 0 0 -.1 0 463.06)"/><path d="m302.460938 408.507812h.4375v-30.042968h-.4375zm0 0"/><path d="m981.367188 374.701563h55.703124v3.242187h-55.703124zm0 0" fill="none" stroke="#000" stroke-linejoin="round" stroke-miterlimit="10" stroke-width="5.14222" transform="matrix(.1 0 0 -.1 0 463.06)"/><path d="m98.136719 425.589844h5.570312v-.320313h-5.570312zm0 0"/><path d="m1427.851562 1097.709375v-40.273437l542.304688 18.90625v40.273437zm0 0" fill="none" stroke="#000" stroke-linejoin="round" stroke-miterlimit="10" stroke-width="3.98107" transform="matrix(.1 0 0 -.1 0 463.06)"/><path d="m142.785156 353.289062v4.027344l54.230469-1.890625v-4.027343zm0 0"/><path d="m2134.765625 374.701563h55.664063v3.242187h-55.664063zm0 0" fill="none" stroke="#000" stroke-linejoin="round" stroke-miterlimit="10" stroke-width="5.14222" transform="matrix(.1 0 0 -.1 0 463.06)"/><path d="m213.476562 425.589844h5.566407v-.320313h-5.566407zm0 0"/><path d="m3591.71875 582.553125v-40.234375l565.3125 54.335938v40.273437zm0 0" fill="none" stroke="#000" stroke-linejoin="round" stroke-miterlimit="10" stroke-width="3.98107" transform="matrix(.1 0 0 -.1 0 463.06)"/><path d="m359.171875 404.804688v4.023437l56.53125-5.433594v-4.027343zm0 0"/><path d="m3858.710938 374.701563h55.703124v3.242187h-55.703124zm0 0" fill="none" stroke="#000" stroke-linejoin="round" stroke-miterlimit="10" stroke-width="5.14222" transform="matrix(.1 0 0 -.1 0 463.06)"/><path d="m385.871094 425.589844h5.570312v-.320313h-5.570312zm0 0"/><path d="m4475.78125 374.701563h55.703125v3.242187h-55.703125zm0 0" fill="none" stroke="#000" stroke-linejoin="round" stroke-miterlimit="10" stroke-width="5.14222" transform="matrix(.1 0 0 -.1 0 463.06)"/><path d="m447.578125 425.589844h5.570313v-.320313h-5.570313zm0 0"/><path d="m4986.835938 374.701563h55.664062v3.242187h-55.664062zm0 0" fill="none" stroke="#000" stroke-linejoin="round" stroke-miterlimit="10" stroke-width="5.14222" transform="matrix(.1 0 0 -.1 0 463.06)"/><path d="m498.683594 425.589844h5.566406v-.320313h-5.566406zm0 0"/><use x="527.734" xlink:href="#Z" y="385.6666"/><path d="m5391.289062 794.076563h4.375v300.390625h-4.375zm0 0" fill="none" stroke="#000" stroke-linejoin="round" stroke-miterlimit="10" stroke-width="3.98107" transform="matrix(.1 0 0 -.1 0 463.06)"/><path d="m539.128906 383.65625h.4375v-30.042969h-.4375zm0 0"/><use x="512.321" xlink:href="#A" y="431.8362"/><use x="523.715911" xlink:href="#w" y="431.8362"/><use x="536.301447" xlink:href="#x" y="431.8362"/><use x="548.886984" xlink:href="#X" y="431.8362"/><use x="533.7507" xlink:href="#ag" y="350.9799"/><use x="118.1867" xlink:href="#K" y="431.8362"/><use x="129.581599" xlink:href="#M" y="431.8362"/><use x="142.167123" xlink:href="#C" y="431.8362"/><use x="150.331176" xlink:href="#v" y="431.8362"/><use x="131.3887" xlink:href="#Z" y="385.6667"/><use x="302.2617" xlink:href="#Z" y="376.45147"/><path d="m814.6875 701.889063h4.375v300.429687h-4.375zm0 0" fill="none" stroke="#000" stroke-linejoin="round" stroke-miterlimit="10" stroke-width="3.98107" transform="matrix(.1 0 0 -.1 0 463.06)"/><path d="m81.46875 392.871094h.4375v-30.042969h-.4375zm0 0"/><use x="68.5203" xlink:href="#Y" y="431.8362"/><use x="70.07147" xlink:href="#Z" y="394.8823"/><path d="m1427.851562 794.076563h4.375v281.640625h-4.375zm0 0" fill="none" stroke="#000" stroke-linejoin="round" stroke-miterlimit="10" stroke-width="3.98107" transform="matrix(.1 0 0 -.1 0 463.06)"/><path d="m142.785156 383.65625h.4375v-28.167969h-.4375zm0 0"/><use x="40.582" xlink:href="#ab" y="381.0592"/><use x="7.3722" xlink:href="#ac" y="390.27443"/><path d="m2417.109375 545.521875h4.375v300.429688h-4.375zm0 0" fill="none" stroke="#000" stroke-linejoin="round" stroke-miterlimit="10" stroke-width="3.98107" transform="matrix(.1 0 0 -.1 0 463.06)"/><path d="m241.710938 408.507812h.4375v-30.042968h-.4375zm0 0"/><use x="223.632" xlink:href="#V" y="431.8362"/><use x="236.04798" xlink:href="#R" y="431.8362"/><use x="248.633492" xlink:href="#A" y="431.8362"/><use x="260.028403" xlink:href="#A" y="431.8362"/><use x="241.5109" xlink:href="#Z" y="376.4514"/><path d="m1965.78125 840.13125h4.375v254.21875h-4.375zm0 0" fill="none" stroke="#000" stroke-linejoin="round" stroke-miterlimit="10" stroke-width="3.98107" transform="matrix(.1 0 0 -.1 0 463.06)"/><path d="m196.578125 379.046875h.4375v-25.421875h-.4375zm0 0"/><use x="173.511" xlink:href="#J" y="431.8362"/><use x="186.096524" xlink:href="#R" y="431.8362"/><use x="198.682048" xlink:href="#H" y="431.8362"/><use x="203.784777" xlink:href="#H" y="431.8362"/><use x="185.1825" xlink:href="#Z" y="381.0592"/></svg>