<svg height="521.23em" viewBox="0 0 595.28 521.23" width="595.28em" xmlns="http://www.w3.org/2000/svg" xmlns:xlink="http://www.w3.org/1999/xlink"><clipPath id="a"><path d="m0 73h595.28125v1h-595.28125zm0 0"/></clipPath><clipPath id="b"><path d="m0 63h595.28125v1h-595.28125zm0 0"/></clipPath><clipPath id="c"><path d="m0 52h595.28125v2h-595.28125zm0 0"/></clipPath><clipPath id="d"><path d="m0 42h595.28125v2h-595.28125zm0 0"/></clipPath><clipPath id="e"><path d="m0 32h595.28125v2h-595.28125zm0 0"/></clipPath><clipPath id="f"><path d="m593 32h2.28125v43h-2.28125zm0 0"/></clipPath><clipPath id="g"><path d="m0 202h595.28125v1h-595.28125zm0 0"/></clipPath><clipPath id="h"><path d="m0 191h595.28125v2h-595.28125zm0 0"/></clipPath><clipPath id="i"><path d="m0 181h595.28125v2h-595.28125zm0 0"/></clipPath><clipPath id="j"><path d="m0 171h595.28125v2h-595.28125zm0 0"/></clipPath><clipPath id="k"><path d="m0 161h595.28125v1h-595.28125zm0 0"/></clipPath><clipPath id="l"><path d="m591 159h4.28125v46h-4.28125zm0 0"/></clipPath><clipPath id="m"><path d="m0 329h595.28125v2h-595.28125zm0 0"/></clipPath><clipPath id="n"><path d="m0 319h595.28125v1h-595.28125zm0 0"/></clipPath><clipPath id="o"><path d="m0 309h595.28125v1h-595.28125zm0 0"/></clipPath><clipPath id="p"><path d="m0 298h595.28125v2h-595.28125zm0 0"/></clipPath><clipPath id="q"><path d="m0 288h595.28125v2h-595.28125zm0 0"/></clipPath><clipPath id="r"><path d="m593 288h2.28125v43h-2.28125zm0 0"/></clipPath><clipPath id="s"><path d="m0 452h595.28125v1h-595.28125zm0 0"/></clipPath><clipPath id="t"><path d="m0 441h595.28125v2h-595.28125zm0 0"/></clipPath><clipPath id="u"><path d="m0 431h595.28125v2h-595.28125zm0 0"/></clipPath><clipPath id="v"><path d="m0 421h595.28125v2h-595.28125zm0 0"/></clipPath><clipPath id="w"><path d="m0 411h595.28125v1h-595.28125zm0 0"/></clipPath><clipPath id="x"><path d="m591 409h4.28125v46h-4.28125zm0 0"/></clipPath><symbol id="y" overflow="visible"><path d="m11.578125-3.703125c0-1.96875-1.109375-2.953125-3.734375-3.578125l-2.015625-.484375c-1.71875-.40625-2.453125-.953125-2.453125-1.890625 0-1.21875 1.09375-2 2.796875-2s2.609375.734375 2.65625 2.125h2.21875c-.03125-2.59375-1.734375-4.0625-4.796875-4.0625-3.078125 0-5.0625 1.59375-5.0625 4.03125 0 2.078125 1.0625 3.0625 4.1875 3.8125l1.96875.484375c1.453125.34375 2.03125.78125 2.03125 1.734375 0 1.234375-1.234375 1.96875-3.078125 1.96875-1.890625 0-2.9375-.453125-3.21875-2.46875h-2.21875c.09375 3.046875 1.8125 4.40625 5.265625 4.40625 3.328125 0 5.453125-1.53125 5.453125-4.078125zm0 0"/></symbol><symbol id="z" overflow="visible"><path d="m13.484375-.046875v-1.59375c-.21875.046875-.3125.046875-.453125.046875-.71875 0-1.125-.375-1.125-1.03125v-7.359375c0-2.34375-1.71875-3.609375-4.96875-3.609375-3.203125 0-5.171875 1.234375-5.296875 4.28125h2.109375c.1875-1.609375 1.140625-2.34375 3.109375-2.34375 1.890625 0 2.953125.71875 2.953125 1.96875v.5625c0 .875-.53125 1.25-2.203125 1.453125-2.96875.390625-3.421875.484375-4.234375.8125-1.53125.625-2.3125 1.8125-2.3125 3.421875 0 2.40625 1.65625 3.8125 4.328125 3.8125 1.703125 0 3.328125-.703125 4.5-1.9375.21875 1 1.125 1.734375 2.15625 1.734375.4375 0 .765625-.046875 1.4375-.21875zm-3.671875-4.515625c0 1.890625-1.921875 3.09375-3.96875 3.09375-1.625 0-2.59375-.578125-2.59375-2.015625 0-1.390625.9375-1.984375 3.1875-2.3125 2.21875-.3125 2.671875-.40625 3.375-.734375zm1.640625-13.828125h-2.859375l-2.421875 3.734375h1.515625zm0 0"/></symbol><symbol id="A" overflow="visible"><path d="m4.875 0v-18.390625h-2.359375v18.390625zm0 0"/></symbol><symbol id="B" overflow="visible"><path d="m12.328125-2.171875v-11.046875h-1.9375v1.921875c-1.0625-1.5625-2.34375-2.296875-4.03125-2.296875-3.359375 0-5.625 2.828125-5.625 7.109375 0 4.171875 2.34375 6.859375 5.4375 6.859375 1.671875 0 2.828125-.703125 4.21875-2.375v.890625c0 3.5-1.4375 4.84375-3.890625 4.84375-1.65625 0-2.9375-.609375-3.203125-2.21875h-2.140625c.234375 2.5 2.171875 3.984375 5.28125 3.984375 4.125 0 5.890625-1.84375 5.890625-7.671875zm-2.140625-4.359375c0 3.15625-1.359375 4.96875-3.578125 4.96875-2.296875 0-3.6875-1.84375-3.6875-5.046875 0-3.171875 1.421875-5.046875 3.65625-5.046875 2.28125 0 3.609375 1.921875 3.609375 5.125zm0 0"/></symbol><symbol id="C" overflow="visible"><path d="m12.859375-6.5c0-4.578125-2.1875-7.09375-6-7.09375-3.703125 0-5.953125 2.546875-5.953125 6.984375s2.21875 6.984375 5.984375 6.984375c3.703125 0 5.96875-2.546875 5.96875-6.875zm-2.1875-.03125c0 3.09375-1.46875 4.96875-3.78125 4.96875-2.34375 0-3.78125-1.84375-3.78125-5.046875 0-3.171875 1.4375-5.046875 3.78125-5.046875 2.359375 0 3.78125 1.84375 3.78125 5.125zm0 0"/></symbol><symbol id="D" overflow="visible"><path d="m8.09375-11.375v-2.140625c-.359375-.046875-.53125-.078125-.8125-.078125-1.359375 0-2.390625.8125-3.59375 2.78125v-2.40625h-1.921875v13.21875h2.09375v-6.859375c0-2.96875.984375-4.46875 4.234375-4.515625zm0 0"/></symbol><symbol id="E" overflow="visible"><path d="m13.484375-.046875v-1.59375c-.21875.046875-.3125.046875-.453125.046875-.71875 0-1.125-.375-1.125-1.03125v-7.359375c0-2.34375-1.71875-3.609375-4.96875-3.609375-3.203125 0-5.171875 1.234375-5.296875 4.28125h2.109375c.1875-1.609375 1.140625-2.34375 3.109375-2.34375 1.890625 0 2.953125.71875 2.953125 1.96875v.5625c0 .875-.53125 1.25-2.203125 1.453125-2.96875.390625-3.421875.484375-4.234375.8125-1.53125.625-2.3125 1.8125-2.3125 3.421875 0 2.40625 1.65625 3.8125 4.328125 3.8125 1.703125 0 3.328125-.703125 4.5-1.9375.21875 1 1.125 1.734375 2.15625 1.734375.4375 0 .765625-.046875 1.4375-.21875zm-3.671875-4.515625c0 1.890625-1.921875 3.09375-3.96875 3.09375-1.625 0-2.59375-.578125-2.59375-2.015625 0-1.390625.9375-1.984375 3.1875-2.3125 2.21875-.3125 2.671875-.40625 3.375-.734375zm0 0"/></symbol><symbol id="F" overflow="visible"><path d="m19.171875 0v-9.90625c0-2.375-1.3125-3.6875-3.78125-3.6875-1.765625 0-2.828125.53125-4.0625 2.015625-.78125-1.40625-1.84375-2.015625-3.5625-2.015625-1.765625 0-2.921875.65625-4.0625 2.25v-1.875h-1.90625v13.21875h2.09375v-8.296875c0-1.921875 1.375-3.453125 3.09375-3.453125 1.5625 0 2.453125.953125 2.453125 2.640625v9.109375h2.09375v-8.296875c0-1.921875 1.40625-3.453125 3.125-3.453125 1.53125 0 2.421875.984375 2.421875 2.640625v9.109375zm0 0"/></symbol><symbol id="G" overflow="visible"><path d="m12.484375 0v-18.390625h-2.09375v6.84375c-.890625-1.34375-2.296875-2.046875-4.0625-2.046875-3.421875 0-5.671875 2.65625-5.671875 6.859375 0 4.46875 2.1875 7.109375 5.75 7.109375 1.8125 0 3.078125-.671875 4.203125-2.3125v1.9375zm-2.09375-6.5625c0 3.0625-1.46875 4.96875-3.6875 4.96875-2.3125 0-3.859375-1.9375-3.859375-5.015625s1.546875-5.015625 3.84375-5.015625c2.265625 0 3.703125 2.015625 3.703125 5.0625zm0 0"/></symbol><symbol id="H" overflow="visible"><path d="m12.9375-6c0-1.921875-.15625-3.125-.53125-4.109375-.859375-2.171875-2.875-3.484375-5.34375-3.484375-3.6875 0-6.046875 2.71875-6.046875 7.0625s2.28125 6.90625 6 6.90625c3.015625 0 5.109375-1.71875 5.640625-4.390625h-2.109375c-.578125 1.75-1.765625 2.453125-3.453125 2.453125-2.203125 0-3.84375-1.40625-3.890625-4.4375zm-2.25-1.875s0 .109375-.015625.15625h-7.421875c.1875-2.34375 1.671875-3.9375 3.78125-3.9375 2.078125 0 3.65625 1.71875 3.65625 3.78125zm.890625-10.515625h-2.859375l-2.421875 3.734375h1.515625zm0 0"/></symbol><symbol id="I" overflow="visible"><path d="m6.40625 0v-1.765625c-.28125.078125-.609375.09375-1.015625.09375-.90625 0-1.15625-.25-1.15625-1.171875v-8.65625h2.171875v-1.71875h-2.171875v-3.625h-2.09375v3.625h-1.78125v1.71875h1.78125v9.578125c0 1.34375.90625 2.09375 2.546875 2.09375.5 0 1.015625-.046875 1.71875-.171875zm0 0"/></symbol><symbol id="J" overflow="visible"><path d="m12.9375-6c0-1.921875-.15625-3.125-.53125-4.109375-.859375-2.171875-2.875-3.484375-5.34375-3.484375-3.6875 0-6.046875 2.71875-6.046875 7.0625s2.28125 6.90625 6 6.90625c3.015625 0 5.109375-1.71875 5.640625-4.390625h-2.109375c-.578125 1.75-1.765625 2.453125-3.453125 2.453125-2.203125 0-3.84375-1.40625-3.890625-4.4375zm-2.25-1.875s0 .109375-.015625.15625h-7.421875c.1875-2.34375 1.671875-3.9375 3.78125-3.9375 2.078125 0 3.65625 1.71875 3.65625 3.78125zm0 0"/></symbol><symbol id="K" overflow="visible"><path d="m12.28125 0v-9.984375c0-2.203125-1.640625-3.609375-4.1875-3.609375-1.96875 0-3.21875.75-4.390625 2.59375v-2.21875h-1.9375v13.21875h2.09375v-7.28125c0-2.703125 1.46875-4.46875 3.609375-4.46875 1.65625 0 2.71875 1 2.71875 2.59375v9.15625zm0 0"/></symbol><symbol id="L" overflow="visible"><path d="m4.84375.40625v-3.03125h-2.65625v2.625h1.515625v.453125c0 1.734375-.328125 2.25-1.515625 2.296875v.953125c1.765625 0 2.65625-1.125 2.65625-3.296875zm0 0"/></symbol><symbol id="M" overflow="visible"><path d="m15.71875-5.25c0-2.21875-1.015625-3.546875-3.359375-4.453125 1.65625-.78125 2.546875-2.15625 2.546875-4.015625 0-2.671875-1.96875-4.671875-5.453125-4.671875h-7.453125v18.390625h8.296875c3.296875 0 5.421875-2.21875 5.421875-5.25zm-3.15625-8.140625c0 1.859375-1.09375 2.921875-3.6875 2.921875h-4.53125v-5.84375h4.53125c2.59375 0 3.6875 1.0625 3.6875 2.921875zm.796875 8.171875c0 1.765625-1.078125 3.15625-3.296875 3.15625h-5.71875v-6.328125h5.71875c2.21875 0 3.296875 1.375 3.296875 3.171875zm0 0"/></symbol><symbol id="N" overflow="visible"><path d="m16.46875 0-6.453125-18.390625h-3.03125l-6.5625 18.390625h2.5l1.953125-5.515625h7.078125l1.890625 5.515625zm-5.171875-7.484375h-5.84375l3.015625-8.375zm0 0"/></symbol><symbol id="O" overflow="visible"><path d="m11.53125 0v-1.84375h-8.203125l7.84375-9.5v-1.875h-9.859375v1.84375h7.359375l-7.890625 9.484375v1.890625zm0 0"/></symbol><symbol id="P" overflow="visible"><path d="m16.265625-5.59375v-12.796875h-2.34375v12.796875c0 2.46875-1.796875 3.984375-4.75 3.984375-2.734375 0-4.6875-1.3125-4.6875-3.984375v-12.796875h-2.34375v12.796875c0 3.734375 2.671875 6.046875 7.03125 6.046875 4.3125 0 7.09375-2.375 7.09375-6.046875zm0 0"/></symbol><symbol id="Q" overflow="visible"><path d="m3.859375 0v-13.21875h-2.09375v13.21875zm.28125-15.203125v-2.625h-2.625v2.625zm0 0"/></symbol><symbol id="R" overflow="visible"><path d="m13.1875-6.765625c0-4.28125-2.171875-6.828125-5.640625-6.828125-1.828125 0-3.109375.6875-4.09375 2.171875v-6.96875h-2.09375v18.390625h1.890625v-1.890625c1.015625 1.53125 2.34375 2.265625 4.1875 2.265625 3.484375 0 5.75-2.84375 5.75-7.140625zm-2.1875.140625c0 3-1.5625 5.03125-3.859375 5.03125-2.21875 0-3.6875-2.015625-3.6875-5.015625 0-3.09375 1.46875-5.125 3.6875-5.015625 2.34375 0 3.859375 2.046875 3.859375 5zm0 0"/></symbol><symbol id="S" overflow="visible"><path d="m4.5625 0v-13.21875h-2.09375v13.21875zm3.203125-18.390625h-2.84375l-2.421875 3.734375h1.515625zm0 0"/></symbol><symbol id="T" overflow="visible"><path d="m3.8125 0v-18.390625h-2.09375v18.390625zm0 0"/></symbol><symbol id="U" overflow="visible"><path d="m4.84375-10.59375v-2.625h-2.625v2.625zm0 11v-3.03125h-2.65625v2.625h1.515625v.453125c0 1.734375-.328125 2.25-1.515625 2.296875v.953125c1.765625 0 2.65625-1.125 2.65625-3.296875zm0 0"/></symbol><symbol id="V" overflow="visible"><path d="m4.8125 0v-2.625h-2.625v2.625zm0-10.59375v-2.625h-2.625v2.625zm0 0"/></symbol><symbol id="W" overflow="visible"><path d="m16.59375 0-7.5625-10.890625 7.484375-7.5h-3.03125l-9.140625 9.3125v-9.3125h-2.34375v18.390625h2.34375v-6.4375l3-3 6.46875 9.4375zm0 0"/></symbol><symbol id="X" overflow="visible"><path d="m15.65625-5.046875c0-2.265625-1.40625-3.9375-3.90625-4.609375l-4.609375-1.234375c-2.21875-.578125-3.03125-1.3125-3.03125-2.734375 0-1.859375 1.640625-3.25 4.109375-3.25 2.921875 0 4.59375 1.34375 4.59375 3.734375h2.21875c0-3.609375-2.5-5.703125-6.734375-5.703125-4.03125 0-6.53125 2.21875-6.53125 5.546875 0 2.25 1.1875 3.65625 3.609375 4.296875l4.5625 1.203125c2.3125.609375 3.375 1.546875 3.375 2.984375 0 2.015625-1.515625 3.203125-4.6875 3.203125-3.484375 0-5.1875-1.75-5.1875-4.375h-2.234375c0 4.34375 2.9375 6.4375 7.265625 6.4375 4.671875 0 7.1875-2.21875 7.1875-5.5zm0 0"/></symbol><symbol id="Y" overflow="visible"><path d="m12.046875-13.21875h-2.265625l-3.65625 10.296875-3.375-10.296875h-2.25l4.46875 13.265625-.8125 2.09375c-.34375.9375-.78125 1.296875-1.6875 1.296875-.296875 0-.65625-.0625-1.109375-.15625v1.890625c.4375.21875.859375.328125 1.421875.328125 1.484375 0 2.6875-.828125 3.390625-2.71875zm0 0"/></symbol><symbol id="Z" overflow="visible"><path d="m12.25 0v-9.984375c0-2.21875-1.578125-3.609375-4.15625-3.609375-1.859375 0-3 .578125-4.234375 2.1875v-6.984375h-2.09375v18.390625h2.09375v-7.28125c0-2.703125 1.40625-4.46875 3.578125-4.46875 1.484375 0 2.71875.859375 2.71875 2.59375v9.15625zm0 0"/></symbol><symbol id="aa" overflow="visible"><path d="m12.65625 0-5.390625-8.65625 4.59375-4.5625h-2.703125l-5.59375 5.609375v-10.78125h-2.09375v18.390625h2.09375v-5.140625l2.03125-2.015625 4.46875 7.15625zm0 0"/></symbol><symbol id="ab" overflow="visible"><path d="m12.859375-6.5c0-4.578125-2.1875-7.09375-6-7.09375-3.703125 0-5.953125 2.546875-5.953125 6.984375s2.21875 6.984375 5.984375 6.984375c3.703125 0 5.96875-2.546875 5.96875-6.875zm-2.1875-.03125c0 3.09375-1.46875 4.96875-3.78125 4.96875-2.34375 0-3.78125-1.84375-3.78125-5.046875 0-3.171875 1.4375-5.046875 3.78125-5.046875 2.359375 0 3.78125 1.84375 3.78125 5.125zm-4.5625-8.703125v-2.5625h-2.296875v2.5625zm4.078125 0v-2.5625h-2.296875v2.5625zm0 0"/></symbol><symbol id="ac" overflow="visible"><path d="m15.453125 0v-2.0625h-10.84375v-6.3125h10.015625v-2.0625h-10.015625v-5.875h10.390625v-2.078125h-12.734375v18.390625zm-1.375-23.09375h-3.4375l-2.90625 3.34375h1.828125zm0 0"/></symbol><symbol id="ad" overflow="visible"><path d="m3.859375 2.75v-15.96875h-2.09375v15.140625c0 1.25-.421875 1.8125-1.71875 1.734375l-.5-.03125v1.796875c.25.046875.375.078125.703125.078125 2.375 0 3.609375-.953125 3.609375-2.75zm.28125-17.953125v-2.625h-2.625v2.625zm0 0"/></symbol><symbol id="ae" overflow="visible"><path d="m13.1875-6.484375c0-4.4375-2.171875-7.109375-5.671875-7.109375-1.796875 0-3.234375.8125-4.21875 2.375v-2h-1.90625v18.71875h2.09375v-7.09375c1.109375 1.359375 2.34375 1.96875 4.0625 1.96875 3.390625 0 5.640625-2.640625 5.640625-6.859375zm-2.1875-.046875c0 3-1.546875 4.9375-3.84375 4.9375-2.21875 0-3.671875-1.8125-3.671875-4.90625 0-3.109375 1.453125-5.125 3.671875-5.125 2.328125 0 3.84375 1.9375 3.84375 5.09375zm0 0"/></symbol><symbol id="af" overflow="visible"><path d="m4.8125 0v-2.625h-2.625v2.625zm0 0"/></symbol><symbol id="ag" overflow="visible"><path d="m16.234375 0v-18.390625h-2.34375v7.953125h-9.453125v-7.953125h-2.34375v18.390625h2.34375v-8.375h9.453125v8.375zm0 0"/></symbol><symbol id="ah" overflow="visible"><path d="m9.0625-5.515625c-1.703125 0-3.34375.578125-4.8125 1.46875-1.921875 1.140625-4.25 3.140625-4.25 6.046875 0 2.40625 2.125 3.515625 4.28125 3.515625 1.71875 0 3.359375-.578125 4.828125-1.46875 1.921875-1.140625 4.203125-3.140625 4.203125-6.046875 0-2.40625-2.078125-3.515625-4.25-3.515625zm0 0"/></symbol><symbol id="ai" overflow="visible"><path d="m-2.578125-1.921875c0 1.4375 1.15625 2.578125 2.578125 2.578125s2.578125-1.140625 2.578125-2.578125c0-1.421875-1.15625-2.578125-2.578125-2.578125s-2.578125 1.15625-2.578125 2.578125zm2.578125-12.78125c-6.328125 0-13.4375 7.0625-13.4375 14.78125 0 .328125.328125.578125.65625.578125.28125 0 .609375-.203125.6875-.65625 1.0625-6.078125 6.015625-10.828125 12.09375-10.828125s11.03125 4.75 12.09375 10.828125c.078125.453125.40625.65625.6875.65625.328125 0 .65625-.25.65625-.578125 0-7.71875-7.0625-14.78125-13.4375-14.78125zm0 0"/></symbol><symbol id="aj" overflow="visible"><path d="m1.015625-1.796875c.046875-1.34375.9375-2.53125 2.21875-2.53125 1.21875 0 1.796875 1.421875 1.796875 2.8125 0 2.421875-2.046875 4.125-3.921875 5.6875-.09375-.90625-.171875-1.796875-.171875-2.703125 0-.15625.046875-.28125.046875-.453125zm-2.03125-17.109375.4375 24.46875c0 .484375.375.84375.859375.84375.734375 0 1.0625-.84375 1.640625-1.296875 2.578125-2.09375 6.25-3.5625 6.25-6.90625 0-2.203125-1.640625-4.078125-3.796875-4.078125-1.3125 0-2.53125.4375-3.59375 1.21875l.234375-14.25c-.328125-.171875-.640625-.296875-1.015625-.296875s-.6875.125-1.015625.296875zm0 0"/></symbol><symbol id="ak" overflow="visible"><path d="m15.28125-10.625c-.65625-2.859375-1.4375-5.671875-2.25-8.484375 3.921875-4.453125 7.46875-9.03125 7.46875-14.90625 0-4.625-2.53125-11.234375-5.390625-14.671875-.203125-.15625-.453125-.15625-.65625 0-3.875 2.8125-6.125 7.3125-6.125 12.046875 0 2.125.046875 4.203125.296875 6.296875.28125 2.65625.96875 5.21875 1.703125 7.796875-4.8125 5.46875-10.25 10.703125-10.25 17.96875 0 8.21875 5.921875 15.203125 13.609375 15.203125 1.265625 0 2.453125-.125 3.625-.328125.125 1.296875.203125 2.609375.203125 3.921875 0 .734375-.03125 1.421875-.078125 2.15625-.25 4.046875-2.734375 7.765625-6.53125 7.84375-.046875 0-.078125.046875-.125.046875-2.078125 0-3.875-1.1875-4.9375-2.859375.453125.203125.9375.359375 1.421875.359375 2.125 0 3.890625-1.75 3.890625-3.875 0-2.28125-1.6875-4.25-3.890625-4.25-2.40625 0-4.5625 1.875-4.5625 4.25 0 4.40625 3.546875 7.96875 7.953125 7.96875 4.828125 0 8.125-4.328125 8.421875-9.234375.03125-.78125.03125-1.515625.03125-2.28125 0-1.484375-.078125-2.953125-.203125-4.421875 1.0625-.328125 2.09375-.8125 2.984375-1.515625 3.03125-2.234375 4.375-5.390625 4.375-8.484375 0-5.390625-4.09375-10.578125-10.375-10.578125-.203125 0-.40625.03125-.609375.03125zm3.46875 19c-.578125-5.0625-1.515625-9.890625-2.53125-14.671875 4.484375.375 7.3125 4.125 7.3125 7.890625 0 2.859375-1.96875 5.796875-4.78125 6.78125zm-15.84375-9.640625c0-6.53125 4.40625-11.484375 8.8125-16.421875.65625 2.40625 1.3125 4.828125 1.875 7.265625-4.125.953125-6.453125 4.421875-6.453125 8.015625 0 2.859375 1.484375 5.75 4.75 7.515625.125.03125.234375.078125.359375.078125.453125 0 .8125-.40625.8125-.859375 0-.203125-.109375-.40625-.28125-.578125-2.28125-1.296875-3.34375-3.265625-3.34375-5.0625 0-2.40625 1.875-4.5625 5.109375-4.9375 1.0625 4.90625 2 9.765625 2.609375 14.984375-1.109375.171875-2.203125.25-3.34375.25-5.5625 0-10.90625-4.703125-10.90625-10.25zm13.875-41.625c.703125 2.171875.859375 3.234375.859375 5.59375 0 5.1875-2.734375 9.3125-6.078125 13.28125-.734375-2.578125-1.359375-5.0625-1.359375-8.171875 0-4.53125 2.546875-8.65625 6.578125-10.703125zm0 0"/></symbol><symbol id="al" overflow="visible"><path d="m-.28125-15.3125.28125 23.484375c0 .359375.328125.6875.6875.6875.046875 0 .046875-.03125.09375-.03125l4.453125-.734375-.09375 7.21875c.296875.171875.65625.25.984375.25s.703125-.078125.984375-.25l-.28125-23.484375c0-.359375-.328125-.6875-.703125-.6875-.046875 0-.078125.03125-.125.03125l-4.453125.734375.09375-7.21875c-.296875-.171875-.625-.25-.953125-.25-.3125 0-.6875.078125-.96875.25zm5.671875 10.65625-.078125 8.703125-3.921875.609375.125-8.703125zm0 0"/></symbol><symbol id="am" overflow="visible"><path d="m0 0c0 1.3125 1.015625 2.328125 2.328125 2.328125s2.328125-1.015625 2.328125-2.328125-1.015625-2.328125-2.328125-2.328125-2.328125 1.015625-2.328125 2.328125zm0 0"/></symbol><symbol id="an" overflow="visible"><path d="m12.90625-2.734375c0 .40625-.125.859375-.40625 1.1875-.859375 1.015625-2.8125 2.28125-4.375 3.265625-1.546875.984375-3.515625 2.28125-4.78125 2.65625-.15625.03125-.359375.078125-.53125.078125-.890625 0-1.703125-.703125-1.703125-1.71875 0-.40625.109375-.859375.40625-1.1875.859375-1.015625 2.8125-2.28125 4.359375-3.265625 1.5625-.984375 3.515625-2.28125 4.78125-2.65625.171875-.03125.375-.078125.53125-.078125.90625 0 1.71875.703125 1.71875 1.71875zm-2.078125-2.78125c-3.0625 0-5.5625.65625-7.71875 2.125-1.3125.90625-2.171875 2.28125-2.65625 3.796875-.25.734375-.453125 1.546875-.453125 2.328125 0 1.921875 1.390625 2.78125 3.1875 2.78125 3.0625 0 5.546875-.65625 7.71875-2.125 1.3125-.90625 2.15625-2.28125 2.65625-3.796875.25-.734375.453125-1.546875.453125-2.328125 0-1.921875-1.390625-2.78125-3.1875-2.78125zm0 0"/></symbol><symbol id="ao" overflow="visible"><path d="m8.5 0v-15.9375h-2.09375c-.5 1.890625-2.140625 2.859375-4.875 2.859375v2.09375h3.8125v10.984375zm0 0"/></symbol><symbol id="ap" overflow="visible"><path d="m4.8125 0v-3.28125h-3.375v3.28125zm0 0"/></symbol><g clip-path="url(#a)"><path d="m5.664062 7460.929688h9909.960938" fill="none" stroke="#000" stroke-linecap="round" stroke-miterlimit="10" stroke-width="11.2839" transform="matrix(.06 0 0 -.06 0 521.23)"/></g><g clip-path="url(#b)"><path d="m5.664062 7631.111979h9909.960938" fill="none" stroke="#000" stroke-linecap="round" stroke-miterlimit="10" stroke-width="11.2839" transform="matrix(.06 0 0 -.06 0 521.23)"/></g><g clip-path="url(#c)"><path d="m5.664062 7801.294271h9909.960938" fill="none" stroke="#000" stroke-linecap="round" stroke-miterlimit="10" stroke-width="11.2839" transform="matrix(.06 0 0 -.06 0 521.23)"/></g><g clip-path="url(#d)"><path d="m5.664062 7971.476562h9909.960938" fill="none" stroke="#000" stroke-linecap="round" stroke-miterlimit="10" stroke-width="11.2839" transform="matrix(.06 0 0 -.06 0 521.23)"/></g><g clip-path="url(#e)"><path d="m5.664062 8141.723958h9909.960938" fill="none" stroke="#000" stroke-linecap="round" stroke-miterlimit="10" stroke-width="11.2839" transform="matrix(.06 0 0 -.06 0 521.23)"/></g><path d="m1731.184896 7290.747396h305.013021" fill="none" stroke="#000" stroke-linecap="round" stroke-miterlimit="10" stroke-width="28.3034" transform="matrix(.06 0 0 -.06 0 521.23)"/><path d="m5803.841146 7460.929688v680.79427" fill="none" stroke="#000" stroke-miterlimit="10" stroke-width="21.4446" transform="matrix(.06 0 0 -.06 0 521.23)"/><g clip-path="url(#f)"><path d="m9910.546875 7460.929688v680.79427" fill="none" stroke="#000" stroke-miterlimit="10" stroke-width="21.4446" transform="matrix(.06 0 0 -.06 0 521.23)"/></g><use x="408.142816" xlink:href="#y" y="141.08824"/><use x="420.728786" xlink:href="#z" y="141.08824"/><use x="532.877066" xlink:href="#ah" y="63.362084"/><path d="m7123.242187 7752.986979h8.007813v555.533854h-8.007813zm0 0" fill="none" stroke="#000" stroke-linejoin="round" stroke-miterlimit="10" stroke-width="6.63761" transform="matrix(.06 0 0 -.06 0 521.23)"/><path d="m427.394531 56.050781h.480469v-33.332031h-.480469zm0 0"/><use x="473.809948" xlink:href="#ah" y="63.362084"/><use x="470.696941" xlink:href="#A" y="112.495183"/><use x="477.670535" xlink:href="#y" y="112.495183"/><use x="466.530683" xlink:href="#B" y="141.08804"/><use x="480.476727" xlink:href="#C" y="141.08804"/><path d="m8107.682292 7667.895833h8.072916v555.533855h-8.072916zm0 0" fill="none" stroke="#000" stroke-linejoin="round" stroke-miterlimit="10" stroke-width="6.63761" transform="matrix(.06 0 0 -.06 0 521.23)"/><path d="m486.460938 61.15625h.484374v-33.332031h-.484374zm0 0"/><path d="m6138.802083 7667.895833h8.007813v555.533855h-8.007813zm0 0" fill="none" stroke="#000" stroke-linejoin="round" stroke-miterlimit="10" stroke-width="6.63761" transform="matrix(.06 0 0 -.06 0 521.23)"/><path d="m368.328125 61.15625h.480469v-33.332031h-.480469zm0 0"/><use x="399.724799" xlink:href="#D" y="112.495183"/><use x="408.058476" xlink:href="#E" y="112.495183"/><use x="422.004755" xlink:href="#F" y="112.495183"/><use x="414.741829" xlink:href="#ah" y="58.257074"/><path d="m2357.617187 6927.401042h103.255209v5.598958h-103.255209zm0 0" fill="none" stroke="#000" stroke-linejoin="round" stroke-miterlimit="10" stroke-width="9.03736" transform="matrix(.06 0 0 -.06 0 521.23)"/><path d="m141.457031 105.585938h6.195313v-.335938h-6.195313zm0 0"/><path d="m4271.223958 6927.401042h103.320313v5.598958h-103.320313zm0 0" fill="none" stroke="#000" stroke-linejoin="round" stroke-miterlimit="10" stroke-width="9.03736" transform="matrix(.06 0 0 -.06 0 521.23)"/><path d="m256.273438 105.585938h6.199218v-.335938h-6.199218zm0 0"/><path d="m5262.369792 6450.838542h103.320312v5.598958h-103.320312zm0 0" fill="none" stroke="#000" stroke-linejoin="round" stroke-miterlimit="10" stroke-width="9.03736" transform="matrix(.06 0 0 -.06 0 521.23)"/><path d="m315.742188 134.179688h6.199218v-.335938h-6.199218zm0 0"/><path d="m6374.739583 6927.401042h103.255209v5.598958h-103.255209zm0 0" fill="none" stroke="#000" stroke-linejoin="round" stroke-miterlimit="10" stroke-width="9.03736" transform="matrix(.06 0 0 -.06 0 521.23)"/><path d="m382.484375 105.585938h6.195313v-.335938h-6.195313zm0 0"/><path d="m6537.695312 6450.838542h103.320313v5.598958h-103.320313zm0 0" fill="none" stroke="#000" stroke-linejoin="round" stroke-miterlimit="10" stroke-width="9.03736" transform="matrix(.06 0 0 -.06 0 521.23)"/><path d="m392.261719 134.179688h6.199219v-.335938h-6.199219zm0 0"/><path d="m7458.398437 6450.838542h103.255209v5.598958h-103.255209zm0 0" fill="none" stroke="#000" stroke-linejoin="round" stroke-miterlimit="10" stroke-width="9.03736" transform="matrix(.06 0 0 -.06 0 521.23)"/><path d="m447.503906 134.179688h6.195313v-.335938h-6.195313zm0 0"/><path d="m8357.096354 6927.401042h103.255208v5.598958h-103.255208zm0 0" fill="none" stroke="#000" stroke-linejoin="round" stroke-miterlimit="10" stroke-width="9.03736" transform="matrix(.06 0 0 -.06 0 521.23)"/><path d="m501.425781 105.585938h6.195313v-.335938h-6.195313zm0 0"/><path d="m8381.184896 6450.838542h103.320312v5.598958h-103.320312zm0 0" fill="none" stroke="#000" stroke-linejoin="round" stroke-miterlimit="10" stroke-width="9.03736" transform="matrix(.06 0 0 -.06 0 521.23)"/><path d="m502.871094 134.179688h6.199218v-.335938h-6.199218zm0 0"/><use x="539.545079" xlink:href="#ai" y="24.926007"/><path d="m9092.1875 7667.895833h8.007812v555.533855h-8.007812zm0 0" fill="none" stroke="#000" stroke-linejoin="round" stroke-miterlimit="10" stroke-width="6.63761" transform="matrix(.06 0 0 -.06 0 521.23)"/><path d="m545.53125 61.15625h.480469v-33.332031h-.480469zm0 0"/><use x="517.519035" xlink:href="#G" y="141.08824"/><use x="531.46505" xlink:href="#H" y="141.08824"/><use x="545.411299" xlink:href="#D" y="141.08824"/><use x="554.595787" xlink:href="#I" y="141.08824"/><use x="518.794508" xlink:href="#I" y="112.495383"/><use x="525.428052" xlink:href="#J" y="112.495383"/><use x="539.374067" xlink:href="#K" y="112.495383"/><use x="553.320316" xlink:href="#L" y="112.495383"/><use x="90.656651" xlink:href="#M" y="112.495383"/><use x="107.494643" xlink:href="#J" y="112.495383"/><use x="121.440914" xlink:href="#K" y="112.495383"/><use x="153.723326" xlink:href="#K" y="112.495383"/><use x="167.66937" xlink:href="#J" y="112.495383"/><use x="181.615414" xlink:href="#G" y="112.495383"/><path d="m1983.463542 7327.53125h8.007812v555.533854h-8.007812zm0 0" fill="none" stroke="#000" stroke-linejoin="round" stroke-miterlimit="10" stroke-width="6.63761" transform="matrix(.06 0 0 -.06 0 521.23)"/><path d="m119.007812 81.578125h.480469v-33.332031h-.480469zm0 0"/><use x="104.604209" xlink:href="#N" y="141.08824"/><use x="61.737423" xlink:href="#ao" y="112.495383"/><use x="74.152773" xlink:href="#ap" y="112.495383"/><use x="167.975336" xlink:href="#ah" y="68.468094"/><use x="44.96909" xlink:href="#aj" y="53.150464"/><use x="54.198328" xlink:href="#aj" y="37.832833"/><use x="63.426857" xlink:href="#aj" y="58.256274"/><use x="72.656095" xlink:href="#aj" y="42.938643"/><use x="8.169066" xlink:href="#ak" y="63.362084"/><use x="106.354763" xlink:href="#ah" y="83.785525"/><use x="216.418983" xlink:href="#al" y="73.573805"/><use x="342.101684" xlink:href="#B" y="141.08824"/><use x="356.047963" xlink:href="#E" y="141.08824"/><use x="369.994007" xlink:href="#O" y="141.08824"/><use x="353.242706" xlink:href="#P" y="112.495383"/><use x="355.674711" xlink:href="#ah" y="63.362084"/><path d="m4979.361979 7582.804688h8.072917v555.533854h-8.072917zm0 0" fill="none" stroke="#000" stroke-linejoin="round" stroke-miterlimit="10" stroke-width="6.63761" transform="matrix(.06 0 0 -.06 0 521.23)"/><path d="m298.761719 66.261719h.484375v-33.332031h-.484375zm0 0"/><use x="289.97258" xlink:href="#Q" y="141.08824"/><use x="268.287037" xlink:href="#I" y="112.495383"/><use x="275.26063" xlink:href="#E" y="112.495383"/><use x="289.206674" xlink:href="#F" y="112.495383"/><use x="310.296946" xlink:href="#L" y="112.495383"/><use x="286.110572" xlink:href="#ah" y="68.468094"/><path d="m3994.921875 7497.713542h8.072917v555.533854h-8.072917zm0 0" fill="none" stroke="#000" stroke-linejoin="round" stroke-miterlimit="10" stroke-width="6.63761" transform="matrix(.06 0 0 -.06 0 521.23)"/><path d="m239.695312 71.367188h.484376v-33.332032h-.484376zm0 0"/><use x="164.352329" xlink:href="#I" y="141.08824"/><use x="170.985858" xlink:href="#J" y="141.08824"/><path d="m3010.481771 7582.804688h8.007812v555.533854h-8.007812zm0 0" fill="none" stroke="#000" stroke-linejoin="round" stroke-miterlimit="10" stroke-width="6.63761" transform="matrix(.06 0 0 -.06 0 521.23)"/><path d="m180.628906 66.261719h.480469v-33.332031h-.480469zm0 0"/><use x="227.043454" xlink:href="#ah" y="73.574105"/><use x="216.957434" xlink:href="#R" y="112.495183"/><use x="230.903478" xlink:href="#S" y="112.495183"/><use x="237.877086" xlink:href="#O" y="112.495183"/><use x="203.691307" xlink:href="#y" y="141.08804"/><use x="216.277262" xlink:href="#O" y="141.08804"/><use x="228.863218" xlink:href="#J" y="141.08804"/><use x="242.809262" xlink:href="#K" y="141.08804"/><use x="256.75554" xlink:href="#I" y="141.08804"/><g clip-path="url(#g)"><path d="m5.664062 5314.510417h9909.960938" style="fill:none;stroke-width:11.2839;stroke-linecap:round;stroke-linejoin:round;stroke:#000;stroke-miterlimit:10" transform="matrix(.06 0 0 -.06 0 521.23)"/></g><g clip-path="url(#h)"><path d="m5.664062 5484.692708h9909.960938" style="fill:none;stroke-width:11.2839;stroke-linecap:round;stroke-linejoin:round;stroke:#000;stroke-miterlimit:10" transform="matrix(.06 0 0 -.06 0 521.23)"/></g><g clip-path="url(#i)"><path d="m5.664062 5654.940104h9909.960938" style="fill:none;stroke-width:11.2839;stroke-linecap:round;stroke-linejoin:round;stroke:#000;stroke-miterlimit:10" transform="matrix(.06 0 0 -.06 0 521.23)"/></g><g clip-path="url(#j)"><path d="m5.664062 5825.122396h9909.960938" style="fill:none;stroke-width:11.2839;stroke-linecap:round;stroke-linejoin:round;stroke:#000;stroke-miterlimit:10" transform="matrix(.06 0 0 -.06 0 521.23)"/></g><g clip-path="url(#k)"><path d="m5.664062 5995.304688h9909.960938" style="fill:none;stroke-width:11.2839;stroke-linecap:round;stroke-linejoin:round;stroke:#000;stroke-miterlimit:10" transform="matrix(.06 0 0 -.06 0 521.23)"/></g><path d="m6163.28125 5314.510417v680.794271" fill="none" stroke="#000" stroke-linejoin="round" stroke-miterlimit="10" stroke-width="21.4446" transform="matrix(.06 0 0 -.06 0 521.23)"/><use x="581.195162" xlink:href="#am" y="176.829311"/><use x="581.195162" xlink:href="#am" y="187.041032"/><g clip-path="url(#l)"><path d="m9887.369792 5314.510417v680.794271" fill="none" stroke="#000" stroke-linejoin="round" stroke-miterlimit="10" stroke-width="67.7376" transform="matrix(.06 0 0 -.06 0 521.23)"/></g><path d="m9808.919271 5314.510417v680.794271" fill="none" stroke="#000" stroke-linejoin="round" stroke-miterlimit="10" stroke-width="21.4446" transform="matrix(.06 0 0 -.06 0 521.23)"/><use x="508.961018" xlink:href="#an" y="197.252352"/><use x="443.224986" xlink:href="#ah" y="192.146482"/><use x="433.139866" xlink:href="#I" y="236.24043"/><use x="440.113225" xlink:href="#E" y="236.24043"/><use x="454.059504" xlink:href="#y" y="236.24043"/><use x="433.139866" xlink:href="#I" y="264.833287"/><use x="440.113225" xlink:href="#E" y="264.833287"/><use x="454.059504" xlink:href="#y" y="264.833287"/><path d="m7597.981771 5521.541667h8.007812v555.533854h-8.007812zm0 0" fill="none" stroke="#000" stroke-linejoin="round" stroke-miterlimit="10" stroke-width="6.63761" transform="matrix(.06 0 0 -.06 0 521.23)"/><path d="m455.878906 189.941406h.480469v-33.335937h-.480469zm0 0"/><path d="m6502.34375 5521.541667h8.072917v555.533854h-8.072917zm0 0" fill="none" stroke="#000" stroke-linejoin="round" stroke-miterlimit="10" stroke-width="6.63761" transform="matrix(.06 0 0 -.06 0 521.23)"/><path d="m390.140625 189.941406h.480469v-33.335937h-.480469zm0 0"/><use x="370.20974" xlink:href="#G" y="264.833487"/><use x="384.155784" xlink:href="#S" y="264.833487"/><use x="391.129378" xlink:href="#I" y="264.833487"/><use x="368.083486" xlink:href="#T" y="236.24063"/><use x="373.695833" xlink:href="#z" y="236.24063"/><use x="387.642112" xlink:href="#O" y="236.24063"/><use x="377.488755" xlink:href="#ah" y="192.146342"/><path d="m2370.638021 4864.966146h103.255208v5.664062h-103.255208zm0 0" fill="none" stroke="#000" stroke-linejoin="round" stroke-miterlimit="10" stroke-width="9.03736" transform="matrix(.06 0 0 -.06 0 521.23)"/><path d="m142.238281 229.332031h6.195313v-.339843h-6.195313zm0 0"/><path d="m2355.013021 4388.403646h103.320312v5.664062h-103.320312zm0 0" fill="none" stroke="#000" stroke-linejoin="round" stroke-miterlimit="10" stroke-width="9.03736" transform="matrix(.06 0 0 -.06 0 521.23)"/><path d="m141.300781 257.925781h6.199219v-.339843h-6.199219zm0 0"/><path d="m4575.260417 4388.403646h103.320312v5.664062h-103.320312zm0 0" fill="none" stroke="#000" stroke-linejoin="round" stroke-miterlimit="10" stroke-width="9.03736" transform="matrix(.06 0 0 -.06 0 521.23)"/><path d="m274.515625 257.925781h6.199219v-.339843h-6.199219zm0 0"/><path d="m5746.223958 4864.966146h103.255209v5.664062h-103.255209zm0 0" fill="none" stroke="#000" stroke-linejoin="round" stroke-miterlimit="10" stroke-width="9.03736" transform="matrix(.06 0 0 -.06 0 521.23)"/><path d="m344.773438 229.332031h6.195312v-.339843h-6.195312zm0 0"/><path d="m5713.606771 4388.403646h103.320312v5.664062h-103.320312zm0 0" fill="none" stroke="#000" stroke-linejoin="round" stroke-miterlimit="10" stroke-width="9.03736" transform="matrix(.06 0 0 -.06 0 521.23)"/><path d="m342.816406 257.925781h6.199219v-.339843h-6.199219zm0 0"/><path d="m6893.098958 4864.966146h103.255209v5.664062h-103.255209zm0 0" fill="none" stroke="#000" stroke-linejoin="round" stroke-miterlimit="10" stroke-width="9.03736" transform="matrix(.06 0 0 -.06 0 521.23)"/><path d="m413.585938 229.332031h6.195312v-.339843h-6.195312zm0 0"/><path d="m6875.390625 4388.403646h103.255208v5.664062h-103.255208zm0 0" fill="none" stroke="#000" stroke-linejoin="round" stroke-miterlimit="10" stroke-width="9.03736" transform="matrix(.06 0 0 -.06 0 521.23)"/><path d="m412.519531 257.925781h6.199219v-.339843h-6.199219zm0 0"/><path d="m7909.244792 4864.966146h103.320312v5.664062h-103.320312zm0 0" fill="none" stroke="#000" stroke-linejoin="round" stroke-miterlimit="10" stroke-width="9.03736" transform="matrix(.06 0 0 -.06 0 521.23)"/><path d="m474.554688 229.332031h6.199218v-.339843h-6.199218zm0 0"/><path d="m7909.244792 4388.403646h103.320312v5.664062h-103.320312zm0 0" fill="none" stroke="#000" stroke-linejoin="round" stroke-miterlimit="10" stroke-width="9.03736" transform="matrix(.06 0 0 -.06 0 521.23)"/><path d="m474.554688 257.925781h6.199218v-.339843h-6.199218zm0 0"/><use x="488.668977" xlink:href="#y" y="236.24043"/><use x="501.254947" xlink:href="#E" y="236.24043"/><use x="515.200962" xlink:href="#F" y="236.24043"/><use x="536.291438" xlink:href="#U" y="236.24043"/><path d="m8704.817708 5448.625h8.072917v543.359375h-8.072917zm0 0" fill="none" stroke="#000" stroke-linejoin="round" stroke-miterlimit="10" stroke-width="6.63761" transform="matrix(.06 0 0 -.06 0 521.23)"/><path d="m522.289062 194.3125h.484376v-32.601562h-.484376zm0 0"/><use x="488.668977" xlink:href="#y" y="264.833487"/><use x="501.254947" xlink:href="#E" y="264.833487"/><use x="515.200962" xlink:href="#F" y="264.833487"/><use x="536.291438" xlink:href="#V" y="264.833487"/><path d="m1983.463542 5606.632812h8.007812v555.533855h-8.007812zm0 0" fill="none" stroke="#000" stroke-linejoin="round" stroke-miterlimit="10" stroke-width="6.63761" transform="matrix(.06 0 0 -.06 0 521.23)"/><path d="m119.007812 184.835938h.480469v-33.335938h-.480469zm0 0"/><use x="93.888688" xlink:href="#W" y="264.833487"/><use x="109.876131" xlink:href="#H" y="264.833487"/><use x="123.822175" xlink:href="#D" y="264.833487"/><use x="97.630255" xlink:href="#X" y="236.24063"/><use x="114.468247" xlink:href="#C" y="236.24063"/><use x="106.355213" xlink:href="#ah" y="187.040332"/><use x="44.96949" xlink:href="#aj" y="181.934461"/><use x="54.198728" xlink:href="#aj" y="166.616831"/><use x="63.427257" xlink:href="#aj" y="187.040272"/><use x="72.656495" xlink:href="#aj" y="171.722641"/><use x="8.169466" xlink:href="#ak" y="192.146082"/><path d="m5227.734375 5436.385417h8.007812v555.598958h-8.007812zm0 0" fill="none" stroke="#000" stroke-linejoin="round" stroke-miterlimit="10" stroke-width="6.63761" transform="matrix(.06 0 0 -.06 0 521.23)"/><path d="m313.664062 195.046875h.480469v-33.335937h-.480469zm0 0"/><use x="293.730587" xlink:href="#R" y="264.833487"/><use x="307.676866" xlink:href="#E" y="264.833487"/><use x="287.692375" xlink:href="#B" y="236.24063"/><use x="301.638654" xlink:href="#Y" y="236.24063"/><use x="313.71392" xlink:href="#E" y="236.24063"/><use x="301.009602" xlink:href="#ah" y="197.252352"/><use x="224.649349" xlink:href="#al" y="202.358222"/><path d="m4132.096354 5351.294271h8.072917v555.598958h-8.072917zm0 0" fill="none" stroke="#000" stroke-linejoin="round" stroke-miterlimit="10" stroke-width="6.63761" transform="matrix(.06 0 0 -.06 0 521.23)"/><path d="m247.925781 200.152344h.484375v-33.335938h-.484375zm0 0"/><use x="222.381445" xlink:href="#y" y="264.833487"/><use x="234.9674" xlink:href="#O" y="264.833487"/><use x="247.55337" xlink:href="#E" y="264.833487"/><use x="227.994736" xlink:href="#K" y="236.24063"/><use x="241.941014" xlink:href="#J" y="236.24063"/><use x="235.274471" xlink:href="#ah" y="202.358362"/><use x="169.538439" xlink:href="#ah" y="197.252492"/><path d="m3036.523437 5436.385417h8.007813v555.598958h-8.007813zm0 0" fill="none" stroke="#000" stroke-linejoin="round" stroke-miterlimit="10" stroke-width="6.63761" transform="matrix(.06 0 0 -.06 0 521.23)"/><path d="m182.191406 195.046875h.480469v-33.335937h-.480469zm0 0"/><use x="162.259325" xlink:href="#Z" y="236.24043"/><use x="176.205369" xlink:href="#E" y="236.24043"/><use x="156.645793" xlink:href="#T" y="264.833287"/><use x="162.25814" xlink:href="#J" y="264.833287"/><use x="176.204419" xlink:href="#aa" y="264.833287"/><use x="188.790374" xlink:href="#L" y="264.833287"/><g clip-path="url(#m)"><path d="m5.664062 3190.291667h9909.960938" style="fill:none;stroke-width:11.2839;stroke-linecap:round;stroke-linejoin:round;stroke:#000;stroke-miterlimit:10" transform="matrix(.06 0 0 -.06 0 521.23)"/></g><g clip-path="url(#n)"><path d="m5.664062 3360.473958h9909.960938" style="fill:none;stroke-width:11.2839;stroke-linecap:round;stroke-linejoin:round;stroke:#000;stroke-miterlimit:10" transform="matrix(.06 0 0 -.06 0 521.23)"/></g><g clip-path="url(#o)"><path d="m5.664062 3530.65625h9909.960938" style="fill:none;stroke-width:11.2839;stroke-linecap:round;stroke-linejoin:round;stroke:#000;stroke-miterlimit:10" transform="matrix(.06 0 0 -.06 0 521.23)"/></g><g clip-path="url(#p)"><path d="m5.664062 3700.903646h9909.960938" style="fill:none;stroke-width:11.2839;stroke-linecap:round;stroke-linejoin:round;stroke:#000;stroke-miterlimit:10" transform="matrix(.06 0 0 -.06 0 521.23)"/></g><g clip-path="url(#q)"><path d="m5.664062 3871.085938h9909.960938" style="fill:none;stroke-width:11.2839;stroke-linecap:round;stroke-linejoin:round;stroke:#000;stroke-miterlimit:10" transform="matrix(.06 0 0 -.06 0 521.23)"/></g><path d="m6303.776042 3190.291667v680.794271" fill="none" stroke="#000" stroke-linejoin="round" stroke-miterlimit="10" stroke-width="21.4446" transform="matrix(.06 0 0 -.06 0 521.23)"/><g clip-path="url(#r)"><path d="m9910.546875 3190.291667v680.794271" fill="none" stroke="#000" stroke-linejoin="round" stroke-miterlimit="10" stroke-width="21.4446" transform="matrix(.06 0 0 -.06 0 521.23)"/></g><path d="m7572.65625 2966.658854h8.007812v527.213542h-8.007812zm0 0" fill="none" stroke="#000" stroke-linejoin="round" stroke-miterlimit="10" stroke-width="6.63761" transform="matrix(.06 0 0 -.06 0 521.23)"/><path d="m454.359375 343.230469h.480469v-31.632813h-.480469zm0 0"/><use x="436.930874" xlink:href="#K" y="365.552689"/><use x="450.367386" xlink:href="#Y" y="365.552689"/><use x="462.442886" xlink:href="#ab" y="365.552689"/><use x="476.38893" xlink:href="#D" y="365.552689"/><use x="454.159908" xlink:href="#ah" y="309.388576"/><path d="m6449.479167 2966.658854h8.072916v527.213542h-8.072916zm0 0" fill="none" stroke="#000" stroke-linejoin="round" stroke-miterlimit="10" stroke-width="6.63761" transform="matrix(.06 0 0 -.06 0 521.23)"/><path d="m386.96875 343.230469h.484375v-31.632813h-.484375zm0 0"/><use x="380.428761" xlink:href="#aa" y="365.552689"/><use x="392.504261" xlink:href="#ab" y="365.552689"/><use x="386.771774" xlink:href="#ah" y="309.388576"/><path d="m2382.291667 2709.757812h103.255208v5.664063h-103.255208zm0 0" fill="none" stroke="#000" stroke-linejoin="round" stroke-miterlimit="10" stroke-width="9.03736" transform="matrix(.06 0 0 -.06 0 521.23)"/><path d="m142.9375 358.644531h6.195312v-.339843h-6.195312zm0 0"/><path d="m3447.265625 2709.757812h103.320312v5.664063h-103.320312zm0 0" fill="none" stroke="#000" stroke-linejoin="round" stroke-miterlimit="10" stroke-width="9.03736" transform="matrix(.06 0 0 -.06 0 521.23)"/><path d="m206.835938 358.644531h6.199218v-.339843h-6.199218zm0 0"/><path d="m4674.609375 2709.757812h103.255208v5.664063h-103.255208zm0 0" fill="none" stroke="#000" stroke-linejoin="round" stroke-miterlimit="10" stroke-width="9.03736" transform="matrix(.06 0 0 -.06 0 521.23)"/><path d="m280.476562 358.644531h6.195313v-.339843h-6.195313zm0 0"/><path d="m6976.497396 2709.757812h103.320312v5.664063h-103.320312zm0 0" fill="none" stroke="#000" stroke-linejoin="round" stroke-miterlimit="10" stroke-width="9.03736" transform="matrix(.06 0 0 -.06 0 521.23)"/><path d="m418.589844 358.644531h6.199218v-.339843h-6.199218zm0 0"/><path d="m8194.596354 2709.757812h103.255208v5.664063h-103.255208zm0 0" fill="none" stroke="#000" stroke-linejoin="round" stroke-miterlimit="10" stroke-width="9.03736" transform="matrix(.06 0 0 -.06 0 521.23)"/><path d="m491.675781 358.644531h6.195313v-.339843h-6.195313zm0 0"/><path d="m8695.768229 3023.429688h8.007813v543.359374h-8.007813zm0 0" fill="none" stroke="#000" stroke-linejoin="round" stroke-miterlimit="10" stroke-width="6.63761" transform="matrix(.06 0 0 -.06 0 521.23)"/><path d="m521.746094 339.824219h.480468v-32.601563h-.480468zm0 0"/><use x="504.82701" xlink:href="#B" y="365.552689"/><use x="518.773024" xlink:href="#ab" y="365.552689"/><use x="532.719274" xlink:href="#aa" y="365.552689"/><use x="545.305243" xlink:href="#L" y="365.552689"/><use x="521.547043" xlink:href="#an" y="304.282566"/><use x="101.797204" xlink:href="#ac" y="365.552689"/><use x="118.635195" xlink:href="#ad" y="365.552689"/><use x="106.355213" xlink:href="#ah" y="314.494587"/><use x="44.96949" xlink:href="#aj" y="309.388716"/><use x="54.198728" xlink:href="#aj" y="294.071086"/><use x="63.427257" xlink:href="#aj" y="314.494527"/><use x="72.656495" xlink:href="#aj" y="299.176896"/><use x="8.169466" xlink:href="#ak" y="319.600337"/><path d="m1983.463542 3482.348958h8.007812v555.598959h-8.007812zm0 0" fill="none" stroke="#000" stroke-linejoin="round" stroke-miterlimit="10" stroke-width="6.63761" transform="matrix(.06 0 0 -.06 0 521.23)"/><path d="m119.007812 312.289062h.480469v-33.335937h-.480469zm0 0"/><use x="241.130482" xlink:href="#ah" y="319.600597"/><path d="m5352.864583 3482.348958h8.007813v555.598959h-8.007813zm0 0" fill="none" stroke="#000" stroke-linejoin="round" stroke-miterlimit="10" stroke-width="6.63761" transform="matrix(.06 0 0 -.06 0 521.23)"/><path d="m321.171875 312.289062h.480469v-33.335937h-.480469zm0 0"/><use x="298.432597" xlink:href="#ae" y="365.552689"/><use x="312.378641" xlink:href="#E" y="365.552689"/><use x="326.324919" xlink:href="#T" y="365.552689"/><use x="308.517617" xlink:href="#ah" y="314.494587"/><path d="m4229.6875 3397.257812h8.072917v555.598959h-8.072917zm0 0" fill="none" stroke="#000" stroke-linejoin="round" stroke-miterlimit="10" stroke-width="6.63761" transform="matrix(.06 0 0 -.06 0 521.23)"/><path d="m253.78125 317.394531h.484375v-33.335937h-.484375zm0 0"/><use x="226.878454" xlink:href="#K" y="365.552689"/><use x="240.824498" xlink:href="#E" y="365.552689"/><use x="254.770776" xlink:href="#ae" y="365.552689"/><path d="m3106.575521 3482.348958h8.072916v555.598959h-8.072916zm0 0" fill="none" stroke="#000" stroke-linejoin="round" stroke-miterlimit="10" stroke-width="6.63761" transform="matrix(.06 0 0 -.06 0 521.23)"/><path d="m186.394531 312.289062h.484375v-33.335937h-.484375zm0 0"/><use x="167.824336" xlink:href="#ad" y="365.552689"/><use x="173.436683" xlink:href="#J" y="365.552689"/><use x="187.382961" xlink:href="#T" y="365.552689"/><use x="173.742347" xlink:href="#ah" y="314.494587"/><g clip-path="url(#s)"><path d="m5.664062 1147.973958h9909.960938" style="fill:none;stroke-width:11.2839;stroke-linecap:round;stroke-linejoin:round;stroke:#000;stroke-miterlimit:10" transform="matrix(.06 0 0 -.06 0 521.23)"/></g><g clip-path="url(#t)"><path d="m5.664062 1318.15625h9909.960938" style="fill:none;stroke-width:11.2839;stroke-linecap:round;stroke-linejoin:round;stroke:#000;stroke-miterlimit:10" transform="matrix(.06 0 0 -.06 0 521.23)"/></g><g clip-path="url(#u)"><path d="m5.664062 1488.338542h9909.960938" style="fill:none;stroke-width:11.2839;stroke-linecap:round;stroke-linejoin:round;stroke:#000;stroke-miterlimit:10" transform="matrix(.06 0 0 -.06 0 521.23)"/></g><g clip-path="url(#v)"><path d="m5.664062 1658.520833h9909.960938" style="fill:none;stroke-width:11.2839;stroke-linecap:round;stroke-linejoin:round;stroke:#000;stroke-miterlimit:10" transform="matrix(.06 0 0 -.06 0 521.23)"/></g><g clip-path="url(#w)"><path d="m5.664062 1828.703125h9909.960938" style="fill:none;stroke-width:11.2839;stroke-linecap:round;stroke-linejoin:round;stroke:#000;stroke-miterlimit:10" transform="matrix(.06 0 0 -.06 0 521.23)"/></g><path d="m6252.408854 1147.973958v680.729167" fill="none" stroke="#000" stroke-linejoin="round" stroke-miterlimit="10" stroke-width="21.4446" transform="matrix(.06 0 0 -.06 0 521.23)"/><g clip-path="url(#x)"><path d="m9887.369792 1147.973958v680.729167" fill="none" stroke="#000" stroke-linejoin="round" stroke-miterlimit="10" stroke-width="67.7376" transform="matrix(.06 0 0 -.06 0 521.23)"/></g><path d="m9808.919271 1147.973958v680.729167" fill="none" stroke="#000" stroke-linejoin="round" stroke-miterlimit="10" stroke-width="21.4446" transform="matrix(.06 0 0 -.06 0 521.23)"/><path d="m7681.510417 1354.940104h8.072916v555.533854h-8.072916zm0 0" fill="none" stroke="#000" stroke-linejoin="round" stroke-miterlimit="10" stroke-width="6.63761" transform="matrix(.06 0 0 -.06 0 521.23)"/><path d="m460.890625 439.933594h.484375v-33.332032h-.484375zm0 0"/><use x="441.640883" xlink:href="#y" y="488.195934"/><use x="454.226619" xlink:href="#J" y="488.195934"/><use x="448.239896" xlink:href="#ah" y="442.140942"/><path d="m6591.276042 1354.940104h8.007812v555.533854h-8.007812zm0 0" fill="none" stroke="#000" stroke-linejoin="round" stroke-miterlimit="10" stroke-width="6.63761" transform="matrix(.06 0 0 -.06 0 521.23)"/><path d="m395.476562 439.933594h.480469v-33.332032h-.480469zm0 0"/><use x="378.435757" xlink:href="#D" y="488.195934"/><use x="386.59998" xlink:href="#H" y="488.195934"/><use x="382.822766" xlink:href="#ah" y="442.140942"/><path d="m5821.614583 665.682292h103.255209v5.664062h-103.255209zm0 0" fill="none" stroke="#000" stroke-linejoin="round" stroke-miterlimit="10" stroke-width="9.03736" transform="matrix(.06 0 0 -.06 0 521.23)"/><path d="m349.296875 481.289062h6.195313v-.339843h-6.195313zm0 0"/><path d="m6966.536458 665.682292h103.320313v5.664062h-103.320313zm0 0" fill="none" stroke="#000" stroke-linejoin="round" stroke-miterlimit="10" stroke-width="9.03736" transform="matrix(.06 0 0 -.06 0 521.23)"/><path d="m417.992188 481.289062h6.199218v-.339843h-6.199218zm0 0"/><path d="m7985.221354 665.682292h103.320313v5.664062h-103.320313zm0 0" fill="none" stroke="#000" stroke-linejoin="round" stroke-miterlimit="10" stroke-width="9.03736" transform="matrix(.06 0 0 -.06 0 521.23)"/><path d="m479.113281 481.289062h6.199219v-.339843h-6.199219zm0 0"/><path d="m8783.072917 1282.023438h8.007812v543.359374h-8.007812zm0 0" fill="none" stroke="#000" stroke-linejoin="round" stroke-miterlimit="10" stroke-width="6.63761" transform="matrix(.06 0 0 -.06 0 521.23)"/><path d="m526.984375 444.308594h.480469v-32.601563h-.480469zm0 0"/><use x="496.254993" xlink:href="#F" y="488.195934"/><use x="517.345235" xlink:href="#J" y="488.195934"/><use x="531.121796" xlink:href="#I" y="488.195934"/><use x="538.095419" xlink:href="#af" y="488.195934"/><use x="520.661041" xlink:href="#ai" y="408.470774"/><use x="513.655797" xlink:href="#an" y="447.246752"/><use x="8.169786" xlink:href="#ak" y="442.140882"/><path d="m1983.463542 1440.03125h8.007812v555.533854h-8.007812zm0 0" fill="none" stroke="#000" stroke-linejoin="round" stroke-miterlimit="10" stroke-width="6.63761" transform="matrix(.06 0 0 -.06 0 521.23)"/><path d="m119.007812 434.828125h.480469v-33.332031h-.480469zm0 0"/><use x="84.364169" xlink:href="#ag" y="488.195934"/><use x="102.562478" xlink:href="#E" y="488.195934"/><use x="116.508749" xlink:href="#T" y="488.195934"/><use x="122.121104" xlink:href="#T" y="488.195934"/><use x="127.733451" xlink:href="#G" y="488.195934"/><use x="106.355213" xlink:href="#ah" y="437.035032"/><use x="44.96949" xlink:href="#aj" y="431.929161"/><use x="54.198728" xlink:href="#aj" y="416.611531"/><use x="63.427257" xlink:href="#aj" y="437.034972"/><use x="72.656495" xlink:href="#aj" y="421.717341"/><use x="233.980468" xlink:href="#H" y="488.195934"/><use x="247.926512" xlink:href="#K" y="488.195934"/><path d="m5322.135417 1269.848958h8.007812v555.533854h-8.007812zm0 0" fill="none" stroke="#000" stroke-linejoin="round" stroke-miterlimit="10" stroke-width="6.63761" transform="matrix(.06 0 0 -.06 0 521.23)"/><path d="m319.328125 445.039062h.480469v-33.332031h-.480469zm0 0"/><use x="300.331601" xlink:href="#aa" y="488.195934"/><use x="312.406866" xlink:href="#H" y="488.195934"/><use x="306.675613" xlink:href="#ah" y="447.246852"/><use x="230.636061" xlink:href="#al" y="452.352722"/><path d="m4231.901042 1184.757813h8.007812v555.533854h-8.007812zm0 0" fill="none" stroke="#000" stroke-linejoin="round" stroke-miterlimit="10" stroke-width="6.63761" transform="matrix(.06 0 0 -.06 0 521.23)"/><path d="m253.914062 450.144531h.480469v-33.332031h-.480469zm0 0"/><use x="241.260483" xlink:href="#ah" y="452.352662"/><path d="m3141.601562 1269.848958h8.072917v555.533854h-8.072917zm0 0" fill="none" stroke="#000" stroke-linejoin="round" stroke-miterlimit="10" stroke-width="6.63761" transform="matrix(.06 0 0 -.06 0 521.23)"/><path d="m188.496094 445.039062h.480468v-33.332031h-.480468zm0 0"/><use x="158.019316" xlink:href="#F" y="488.195934"/><use x="179.109588" xlink:href="#J" y="488.195934"/><use x="193.055866" xlink:href="#B" y="488.195934"/><use x="175.844352" xlink:href="#ah" y="447.246852"/></svg>