<svg height="530.24em" viewBox="0 0 595.28 530.24" width="595.28em" xmlns="http://www.w3.org/2000/svg" xmlns:xlink="http://www.w3.org/1999/xlink"><clipPath id="a"><path d="m0 73h595.28125v1h-595.28125zm0 0"/></clipPath><clipPath id="b"><path d="m0 63h595.28125v1h-595.28125zm0 0"/></clipPath><clipPath id="c"><path d="m0 52h595.28125v2h-595.28125zm0 0"/></clipPath><clipPath id="d"><path d="m0 42h595.28125v2h-595.28125zm0 0"/></clipPath><clipPath id="e"><path d="m0 32h595.28125v2h-595.28125zm0 0"/></clipPath><clipPath id="f"><path d="m593 32h2.28125v43h-2.28125zm0 0"/></clipPath><clipPath id="g"><path d="m0 210h595.28125v2h-595.28125zm0 0"/></clipPath><clipPath id="h"><path d="m0 200h595.28125v2h-595.28125zm0 0"/></clipPath><clipPath id="i"><path d="m0 190h595.28125v1h-595.28125zm0 0"/></clipPath><clipPath id="j"><path d="m0 180h595.28125v1h-595.28125zm0 0"/></clipPath><clipPath id="k"><path d="m0 169h595.28125v2h-595.28125zm0 0"/></clipPath><clipPath id="l"><path d="m591 168h4.28125v46h-4.28125zm0 0"/></clipPath><clipPath id="m"><path d="m0 338h595.28125v2h-595.28125zm0 0"/></clipPath><clipPath id="n"><path d="m0 328h595.28125v1h-595.28125zm0 0"/></clipPath><clipPath id="o"><path d="m0 318h595.28125v1h-595.28125zm0 0"/></clipPath><clipPath id="p"><path d="m0 307h595.28125v2h-595.28125zm0 0"/></clipPath><clipPath id="q"><path d="m0 297h595.28125v2h-595.28125zm0 0"/></clipPath><clipPath id="r"><path d="m593 297h2.28125v43h-2.28125zm0 0"/></clipPath><clipPath id="s"><path d="m0 461h595.28125v1h-595.28125zm0 0"/></clipPath><clipPath id="t"><path d="m0 450h595.28125v2h-595.28125zm0 0"/></clipPath><clipPath id="u"><path d="m0 440h595.28125v2h-595.28125zm0 0"/></clipPath><clipPath id="v"><path d="m0 430h595.28125v2h-595.28125zm0 0"/></clipPath><clipPath id="w"><path d="m0 420h595.28125v1h-595.28125zm0 0"/></clipPath><clipPath id="x"><path d="m591 418h4.28125v46h-4.28125zm0 0"/></clipPath><symbol id="y" overflow="visible"><path d="m12.25-13.21875h-2.359375l-3.734375 10.71875-3.53125-10.71875h-2.375l4.640625 13.21875h2.296875zm0 0"/></symbol><symbol id="z" overflow="visible"><path d="m3.859375 0v-13.21875h-2.09375v13.21875zm.28125-15.203125v-2.625h-2.625v2.625zm0 0"/></symbol><symbol id="A" overflow="visible"><path d="m11.53125 0v-1.84375h-8.203125l7.84375-9.5v-1.875h-9.859375v1.84375h7.359375l-7.890625 9.484375v1.890625zm0 0"/></symbol><symbol id="B" overflow="visible"><path d="m11.578125-3.703125c0-1.96875-1.109375-2.953125-3.734375-3.578125l-2.015625-.484375c-1.71875-.40625-2.453125-.953125-2.453125-1.890625 0-1.21875 1.09375-2 2.796875-2s2.609375.734375 2.65625 2.125h2.21875c-.03125-2.59375-1.734375-4.0625-4.796875-4.0625-3.078125 0-5.0625 1.59375-5.0625 4.03125 0 2.078125 1.0625 3.0625 4.1875 3.8125l1.96875.484375c1.453125.34375 2.03125.78125 2.03125 1.734375 0 1.234375-1.234375 1.96875-3.078125 1.96875-1.890625 0-2.9375-.453125-3.21875-2.46875h-2.21875c.09375 3.046875 1.8125 4.40625 5.265625 4.40625 3.328125 0 5.453125-1.53125 5.453125-4.078125zm0 0"/></symbol><symbol id="C" overflow="visible"><path d="m12.484375 0v-18.390625h-2.09375v6.84375c-.890625-1.34375-2.296875-2.046875-4.0625-2.046875-3.421875 0-5.671875 2.65625-5.671875 6.859375 0 4.46875 2.1875 7.109375 5.75 7.109375 1.8125 0 3.078125-.671875 4.203125-2.3125v1.9375zm-2.09375-6.5625c0 3.0625-1.46875 4.96875-3.6875 4.96875-2.3125 0-3.859375-1.9375-3.859375-5.015625s1.546875-5.015625 3.84375-5.015625c2.265625 0 3.703125 2.015625 3.703125 5.0625zm0 0"/></symbol><symbol id="D" overflow="visible"><path d="m13.484375-.046875v-1.59375c-.21875.046875-.3125.046875-.453125.046875-.71875 0-1.125-.375-1.125-1.03125v-7.359375c0-2.34375-1.71875-3.609375-4.96875-3.609375-3.203125 0-5.171875 1.234375-5.296875 4.28125h2.109375c.1875-1.609375 1.140625-2.34375 3.109375-2.34375 1.890625 0 2.953125.71875 2.953125 1.96875v.5625c0 .875-.53125 1.25-2.203125 1.453125-2.96875.390625-3.421875.484375-4.234375.8125-1.53125.625-2.3125 1.8125-2.3125 3.421875 0 2.40625 1.65625 3.8125 4.328125 3.8125 1.703125 0 3.328125-.703125 4.5-1.9375.21875 1 1.125 1.734375 2.15625 1.734375.4375 0 .765625-.046875 1.4375-.21875zm-3.671875-4.515625c0 1.890625-1.921875 3.09375-3.96875 3.09375-1.625 0-2.59375-.578125-2.59375-2.015625 0-1.390625.9375-1.984375 3.1875-2.3125 2.21875-.3125 2.671875-.40625 3.375-.734375zm1.640625-13.828125h-2.859375l-2.421875 3.734375h1.515625zm0 0"/></symbol><symbol id="E" overflow="visible"><path d="m3.8125 0v-18.390625h-2.09375v18.390625zm0 0"/></symbol><symbol id="F" overflow="visible"><path d="m12.328125-2.171875v-11.046875h-1.9375v1.921875c-1.0625-1.5625-2.34375-2.296875-4.03125-2.296875-3.359375 0-5.625 2.828125-5.625 7.109375 0 4.171875 2.34375 6.859375 5.4375 6.859375 1.671875 0 2.828125-.703125 4.21875-2.375v.890625c0 3.5-1.4375 4.84375-3.890625 4.84375-1.65625 0-2.9375-.609375-3.203125-2.21875h-2.140625c.234375 2.5 2.171875 3.984375 5.28125 3.984375 4.125 0 5.890625-1.84375 5.890625-7.671875zm-2.140625-4.359375c0 3.15625-1.359375 4.96875-3.578125 4.96875-2.296875 0-3.6875-1.84375-3.6875-5.046875 0-3.171875 1.421875-5.046875 3.65625-5.046875 2.28125 0 3.609375 1.921875 3.609375 5.125zm0 0"/></symbol><symbol id="G" overflow="visible"><path d="m12.03125-4.546875h-2.125c-.34375 2.125-1.4375 2.984375-3.21875 2.984375-2.328125 0-3.71875-1.796875-3.71875-4.921875 0-3.296875 1.375-5.171875 3.65625-5.171875 1.765625 0 2.875 1.046875 3.140625 2.875h2.109375c-.25-3.21875-2.265625-4.8125-5.21875-4.8125-3.546875 0-5.875 2.71875-5.875 7.109375 0 4.265625 2.265625 6.859375 5.84375 6.859375 3.15625 0 5.15625-1.890625 5.40625-4.921875zm0 0"/></symbol><symbol id="H" overflow="visible"><path d="m12.15625 0v-13.21875h-2.09375v7.296875c0 2.6875-1.40625 4.453125-3.609375 4.453125-1.65625 0-2.71875-1-2.71875-2.59375v-9.15625h-2.09375v9.984375c0 2.203125 1.640625 3.609375 4.203125 3.609375 1.953125 0 3.1875-.671875 4.421875-2.421875v2.046875zm0 0"/></symbol><symbol id="I" overflow="visible"><path d="m3.859375 2.75v-15.96875h-2.09375v15.140625c0 1.25-.421875 1.8125-1.71875 1.734375l-.5-.03125v1.796875c.25.046875.375.078125.703125.078125 2.375 0 3.609375-.953125 3.609375-2.75zm.28125-17.953125v-2.625h-2.625v2.625zm0 0"/></symbol><symbol id="J" overflow="visible"><path d="m12.65625 0-5.390625-8.65625 4.59375-4.5625h-2.703125l-5.59375 5.609375v-10.78125h-2.09375v18.390625h2.09375v-5.140625l2.03125-2.015625 4.46875 7.15625zm0 0"/></symbol><symbol id="K" overflow="visible"><path d="m16.46875 0-6.453125-18.390625h-3.03125l-6.5625 18.390625h2.5l1.953125-5.515625h7.078125l1.890625 5.515625zm-5.171875-7.484375h-5.84375l3.015625-8.375zm2.625-15.609375h-3.4375l-2.890625 3.34375h1.8125zm0 0"/></symbol><symbol id="L" overflow="visible"><path d="m19.171875 0v-9.90625c0-2.375-1.3125-3.6875-3.78125-3.6875-1.765625 0-2.828125.53125-4.0625 2.015625-.78125-1.40625-1.84375-2.015625-3.5625-2.015625-1.765625 0-2.921875.65625-4.0625 2.25v-1.875h-1.90625v13.21875h2.09375v-8.296875c0-1.921875 1.375-3.453125 3.09375-3.453125 1.5625 0 2.453125.953125 2.453125 2.640625v9.109375h2.09375v-8.296875c0-1.921875 1.40625-3.453125 3.125-3.453125 1.53125 0 2.421875.984375 2.421875 2.640625v9.109375zm0 0"/></symbol><symbol id="M" overflow="visible"><path d="m12.9375-6c0-1.921875-.15625-3.125-.53125-4.109375-.859375-2.171875-2.875-3.484375-5.34375-3.484375-3.6875 0-6.046875 2.71875-6.046875 7.0625s2.28125 6.90625 6 6.90625c3.015625 0 5.109375-1.71875 5.640625-4.390625h-2.109375c-.578125 1.75-1.765625 2.453125-3.453125 2.453125-2.203125 0-3.84375-1.40625-3.890625-4.4375zm-2.25-1.875s0 .109375-.015625.15625h-7.421875c.1875-2.34375 1.671875-3.9375 3.78125-3.9375 2.078125 0 3.65625 1.71875 3.65625 3.78125zm.890625-10.515625h-2.859375l-2.421875 3.734375h1.515625zm0 0"/></symbol><symbol id="N" overflow="visible"><path d="m18.71875-8.90625c0-5.921875-3.515625-9.9375-8.90625-9.9375-5.265625 0-8.859375 4.046875-8.859375 9.796875s3.59375 9.5 8.875 9.5c5.40625 0 8.890625-3.953125 8.890625-9.359375zm-2.359375-.046875c0 4.4375-2.640625 7.34375-6.53125 7.34375-3.90625 0-6.53125-2.90625-6.53125-7.4375 0-4.546875 2.625-7.71875 6.515625-7.71875 3.984375 0 6.546875 3.171875 6.546875 7.8125zm-1.125-14.140625h-3.4375l-2.890625 3.34375h1.8125zm0 0"/></symbol><symbol id="O" overflow="visible"><path d="m4.84375.40625v-3.03125h-2.65625v2.625h1.515625v.453125c0 1.734375-.328125 2.25-1.515625 2.296875v.953125c1.765625 0 2.65625-1.125 2.65625-3.296875zm0 0"/></symbol><symbol id="P" overflow="visible"><path d="m12.9375-6c0-1.921875-.15625-3.125-.53125-4.109375-.859375-2.171875-2.875-3.484375-5.34375-3.484375-3.6875 0-6.046875 2.71875-6.046875 7.0625s2.28125 6.90625 6 6.90625c3.015625 0 5.109375-1.71875 5.640625-4.390625h-2.109375c-.578125 1.75-1.765625 2.453125-3.453125 2.453125-2.203125 0-3.84375-1.40625-3.890625-4.4375zm-2.25-1.875s0 .109375-.015625.15625h-7.421875c.1875-2.34375 1.671875-3.9375 3.78125-3.9375 2.078125 0 3.65625 1.71875 3.65625 3.78125zm0 0"/></symbol><symbol id="Q" overflow="visible"><path d="m13.484375-.046875v-1.59375c-.21875.046875-.3125.046875-.453125.046875-.71875 0-1.125-.375-1.125-1.03125v-7.359375c0-2.34375-1.71875-3.609375-4.96875-3.609375-3.203125 0-5.171875 1.234375-5.296875 4.28125h2.109375c.1875-1.609375 1.140625-2.34375 3.109375-2.34375 1.890625 0 2.953125.71875 2.953125 1.96875v.5625c0 .875-.53125 1.25-2.203125 1.453125-2.96875.390625-3.421875.484375-4.234375.8125-1.53125.625-2.3125 1.8125-2.3125 3.421875 0 2.40625 1.65625 3.8125 4.328125 3.8125 1.703125 0 3.328125-.703125 4.5-1.9375.21875 1 1.125 1.734375 2.15625 1.734375.4375 0 .765625-.046875 1.4375-.21875zm-3.671875-4.515625c0 1.890625-1.921875 3.09375-3.96875 3.09375-1.625 0-2.59375-.578125-2.59375-2.015625 0-1.390625.9375-1.984375 3.1875-2.3125 2.21875-.3125 2.671875-.40625 3.375-.734375zm0 0"/></symbol><symbol id="R" overflow="visible"><path d="m12.25 0v-9.984375c0-2.21875-1.578125-3.609375-4.15625-3.609375-1.859375 0-3 .578125-4.234375 2.1875v-6.984375h-2.09375v18.390625h2.09375v-7.28125c0-2.703125 1.40625-4.46875 3.578125-4.46875 1.484375 0 2.71875.859375 2.71875 2.59375v9.15625zm0 0"/></symbol><symbol id="S" overflow="visible"><path d="m4.875 0v-18.390625h-2.359375v18.390625zm0 0"/></symbol><symbol id="T" overflow="visible"><path d="m12.859375-6.5c0-4.578125-2.1875-7.09375-6-7.09375-3.703125 0-5.953125 2.546875-5.953125 6.984375s2.21875 6.984375 5.984375 6.984375c3.703125 0 5.96875-2.546875 5.96875-6.875zm-2.1875-.03125c0 3.09375-1.46875 4.96875-3.78125 4.96875-2.34375 0-3.78125-1.84375-3.78125-5.046875 0-3.171875 1.4375-5.046875 3.78125-5.046875 2.359375 0 3.78125 1.84375 3.78125 5.125zm0 0"/></symbol><symbol id="U" overflow="visible"><path d="m6.40625 0v-1.765625c-.28125.078125-.609375.09375-1.015625.09375-.90625 0-1.15625-.25-1.15625-1.171875v-8.65625h2.171875v-1.71875h-2.171875v-3.625h-2.09375v3.625h-1.78125v1.71875h1.78125v9.578125c0 1.34375.90625 2.09375 2.546875 2.09375.5 0 1.015625-.046875 1.71875-.171875zm0 0"/></symbol><symbol id="V" overflow="visible"><path d="m12.28125 0v-9.984375c0-2.203125-1.640625-3.609375-4.1875-3.609375-1.96875 0-3.21875.75-4.390625 2.59375v-2.21875h-1.9375v13.21875h2.09375v-7.28125c0-2.703125 1.46875-4.46875 3.609375-4.46875 1.65625 0 2.71875 1 2.71875 2.59375v9.15625zm0 0"/></symbol><symbol id="W" overflow="visible"><path d="m8.09375-11.375v-2.140625c-.359375-.046875-.53125-.078125-.8125-.078125-1.359375 0-2.390625.8125-3.59375 2.78125v-2.40625h-1.921875v13.21875h2.09375v-6.859375c0-2.96875.984375-4.46875 4.234375-4.515625zm0 0"/></symbol><symbol id="X" overflow="visible"><path d="m12.046875-13.21875h-2.265625l-3.65625 10.296875-3.375-10.296875h-2.25l4.46875 13.265625-.8125 2.09375c-.34375.9375-.78125 1.296875-1.6875 1.296875-.296875 0-.65625-.0625-1.109375-.15625v1.890625c.4375.21875.859375.328125 1.421875.328125 1.484375 0 2.6875-.828125 3.390625-2.71875zm0 0"/></symbol><symbol id="Y" overflow="visible"><path d="m4.84375-10.59375v-2.625h-2.625v2.625zm0 11v-3.03125h-2.65625v2.625h1.515625v.453125c0 1.734375-.328125 2.25-1.515625 2.296875v.953125c1.765625 0 2.65625-1.125 2.65625-3.296875zm0 0"/></symbol><symbol id="Z" overflow="visible"><path d="m16.59375 0-7.5625-10.890625 7.484375-7.5h-3.03125l-9.140625 9.3125v-9.3125h-2.34375v18.390625h2.34375v-6.4375l3-3 6.46875 9.4375zm0 0"/></symbol><symbol id="aa" overflow="visible"><path d="m16.265625-18.390625h-2.5l-5.09375 15.5625-5.390625-15.5625h-2.53125l6.609375 18.390625h2.53125zm0 0"/></symbol><symbol id="ab" overflow="visible"><path d="m15.453125 0v-2.0625h-10.84375v-6.3125h10.015625v-2.0625h-10.015625v-5.875h10.390625v-2.078125h-12.734375v18.390625zm0 0"/></symbol><symbol id="ac" overflow="visible"><path d="m4.8125 0v-2.625h-2.625v2.625zm0 0"/></symbol><symbol id="ad" overflow="visible"><path d="m16.296875 0v-18.390625h-2.21875v15.03125l-9.609375-15.03125h-2.546875v18.390625h2.21875v-14.90625l9.5 14.90625zm0 0"/></symbol><symbol id="ae" overflow="visible"><path d="m9.0625-5.515625c-1.703125 0-3.34375.578125-4.8125 1.46875-1.921875 1.140625-4.25 3.140625-4.25 6.046875 0 2.40625 2.125 3.515625 4.28125 3.515625 1.71875 0 3.359375-.578125 4.828125-1.46875 1.921875-1.140625 4.203125-3.140625 4.203125-6.046875 0-2.40625-2.078125-3.515625-4.25-3.515625zm0 0"/></symbol><symbol id="af" overflow="visible"><path d="m-2.578125-1.921875c0 1.4375 1.15625 2.578125 2.578125 2.578125s2.578125-1.140625 2.578125-2.578125c0-1.421875-1.15625-2.578125-2.578125-2.578125s-2.578125 1.15625-2.578125 2.578125zm2.578125-12.78125c-6.328125 0-13.4375 7.0625-13.4375 14.78125 0 .328125.328125.578125.65625.578125.28125 0 .609375-.203125.6875-.65625 1.0625-6.078125 6.015625-10.828125 12.09375-10.828125s11.03125 4.75 12.09375 10.828125c.078125.453125.40625.65625.6875.65625.328125 0 .65625-.25.65625-.578125 0-7.71875-7.0625-14.78125-13.4375-14.78125zm0 0"/></symbol><symbol id="ag" overflow="visible"><path d="m1.015625-1.796875c.046875-1.34375.9375-2.53125 2.21875-2.53125 1.21875 0 1.796875 1.421875 1.796875 2.8125 0 2.421875-2.046875 4.125-3.921875 5.6875-.09375-.90625-.171875-1.796875-.171875-2.703125 0-.15625.046875-.28125.046875-.453125zm-2.03125-17.109375.4375 24.46875c0 .484375.375.84375.859375.84375.734375 0 1.0625-.84375 1.640625-1.296875 2.578125-2.09375 6.25-3.5625 6.25-6.90625 0-2.203125-1.640625-4.078125-3.796875-4.078125-1.3125 0-2.53125.4375-3.59375 1.21875l.234375-14.25c-.328125-.171875-.640625-.296875-1.015625-.296875s-.6875.125-1.015625.296875zm0 0"/></symbol><symbol id="ah" overflow="visible"><path d="m15.28125-10.625c-.65625-2.859375-1.4375-5.671875-2.25-8.484375 3.921875-4.453125 7.46875-9.03125 7.46875-14.90625 0-4.625-2.53125-11.234375-5.390625-14.671875-.203125-.15625-.453125-.15625-.65625 0-3.875 2.8125-6.125 7.3125-6.125 12.046875 0 2.125.046875 4.203125.296875 6.296875.28125 2.65625.96875 5.21875 1.703125 7.796875-4.8125 5.46875-10.25 10.703125-10.25 17.96875 0 8.21875 5.921875 15.203125 13.609375 15.203125 1.265625 0 2.453125-.125 3.625-.328125.125 1.296875.203125 2.609375.203125 3.921875 0 .734375-.03125 1.421875-.078125 2.15625-.25 4.046875-2.734375 7.765625-6.53125 7.84375-.046875 0-.078125.046875-.125.046875-2.078125 0-3.875-1.1875-4.9375-2.859375.453125.203125.9375.359375 1.421875.359375 2.125 0 3.890625-1.75 3.890625-3.875 0-2.28125-1.6875-4.25-3.890625-4.25-2.40625 0-4.5625 1.875-4.5625 4.25 0 4.40625 3.546875 7.96875 7.953125 7.96875 4.828125 0 8.125-4.328125 8.421875-9.234375.03125-.78125.03125-1.515625.03125-2.28125 0-1.484375-.078125-2.953125-.203125-4.421875 1.0625-.328125 2.09375-.8125 2.984375-1.515625 3.03125-2.234375 4.375-5.390625 4.375-8.484375 0-5.390625-4.09375-10.578125-10.375-10.578125-.203125 0-.40625.03125-.609375.03125zm3.46875 19c-.578125-5.0625-1.515625-9.890625-2.53125-14.671875 4.484375.375 7.3125 4.125 7.3125 7.890625 0 2.859375-1.96875 5.796875-4.78125 6.78125zm-15.84375-9.640625c0-6.53125 4.40625-11.484375 8.8125-16.421875.65625 2.40625 1.3125 4.828125 1.875 7.265625-4.125.953125-6.453125 4.421875-6.453125 8.015625 0 2.859375 1.484375 5.75 4.75 7.515625.125.03125.234375.078125.359375.078125.453125 0 .8125-.40625.8125-.859375 0-.203125-.109375-.40625-.28125-.578125-2.28125-1.296875-3.34375-3.265625-3.34375-5.0625 0-2.40625 1.875-4.5625 5.109375-4.9375 1.0625 4.90625 2 9.765625 2.609375 14.984375-1.109375.171875-2.203125.25-3.34375.25-5.5625 0-10.90625-4.703125-10.90625-10.25zm13.875-41.625c.703125 2.171875.859375 3.234375.859375 5.59375 0 5.1875-2.734375 9.3125-6.078125 13.28125-.734375-2.578125-1.359375-5.0625-1.359375-8.171875 0-4.53125 2.546875-8.65625 6.578125-10.703125zm0 0"/></symbol><symbol id="ai" overflow="visible"><path d="m-.28125-15.3125.28125 23.484375c0 .359375.328125.6875.6875.6875.046875 0 .046875-.03125.09375-.03125l4.453125-.734375-.09375 7.21875c.296875.171875.65625.25.984375.25s.703125-.078125.984375-.25l-.28125-23.484375c0-.359375-.328125-.6875-.703125-.6875-.046875 0-.078125.03125-.125.03125l-4.453125.734375.09375-7.21875c-.296875-.171875-.625-.25-.953125-.25-.3125 0-.6875.078125-.96875.25zm5.671875 10.65625-.078125 8.703125-3.921875.609375.125-8.703125zm0 0"/></symbol><symbol id="aj" overflow="visible"><path d="m0 0c0 1.3125 1.015625 2.328125 2.328125 2.328125s2.328125-1.015625 2.328125-2.328125-1.015625-2.328125-2.328125-2.328125-2.328125 1.015625-2.328125 2.328125zm0 0"/></symbol><symbol id="ak" overflow="visible"><path d="m12.90625-2.734375c0 .40625-.125.859375-.40625 1.1875-.859375 1.015625-2.8125 2.28125-4.375 3.265625-1.546875.984375-3.515625 2.28125-4.78125 2.65625-.15625.03125-.359375.078125-.53125.078125-.890625 0-1.703125-.703125-1.703125-1.71875 0-.40625.109375-.859375.40625-1.1875.859375-1.015625 2.8125-2.28125 4.359375-3.265625 1.5625-.984375 3.515625-2.28125 4.78125-2.65625.171875-.03125.375-.078125.53125-.078125.90625 0 1.71875.703125 1.71875 1.71875zm-2.078125-2.78125c-3.0625 0-5.5625.65625-7.71875 2.125-1.3125.90625-2.171875 2.28125-2.65625 3.796875-.25.734375-.453125 1.546875-.453125 2.328125 0 1.921875 1.390625 2.78125 3.1875 2.78125 3.0625 0 5.546875-.65625 7.71875-2.125 1.3125-.90625 2.15625-2.28125 2.65625-3.796875.25-.734375.453125-1.546875.453125-2.328125 0-1.921875-1.390625-2.78125-3.1875-2.78125zm0 0"/></symbol><symbol id="al" overflow="visible"><path d="m8.5 0v-15.9375h-2.09375c-.5 1.890625-2.140625 2.859375-4.875 2.859375v2.09375h3.8125v10.984375zm0 0"/></symbol><symbol id="am" overflow="visible"><path d="m4.8125 0v-3.28125h-3.375v3.28125zm0 0"/></symbol><g clip-path="url(#a)"><path d="m5.664062 7610.901042h9909.960938" fill="none" stroke="#000" stroke-linecap="round" stroke-miterlimit="10" stroke-width="11.2839" transform="matrix(.06 0 0 -.06 0 530.24)"/></g><g clip-path="url(#b)"><path d="m5.664062 7781.083333h9909.960938" fill="none" stroke="#000" stroke-linecap="round" stroke-miterlimit="10" stroke-width="11.2839" transform="matrix(.06 0 0 -.06 0 530.24)"/></g><g clip-path="url(#c)"><path d="m5.664062 7951.330729h9909.960938" fill="none" stroke="#000" stroke-linecap="round" stroke-miterlimit="10" stroke-width="11.2839" transform="matrix(.06 0 0 -.06 0 530.24)"/></g><g clip-path="url(#d)"><path d="m5.664062 8121.513021h9909.960938" fill="none" stroke="#000" stroke-linecap="round" stroke-miterlimit="10" stroke-width="11.2839" transform="matrix(.06 0 0 -.06 0 530.24)"/></g><g clip-path="url(#e)"><path d="m5.664062 8291.695312h9909.960938" fill="none" stroke="#000" stroke-linecap="round" stroke-miterlimit="10" stroke-width="11.2839" transform="matrix(.06 0 0 -.06 0 530.24)"/></g><path d="m1731.184896 7440.71875h305.013021" fill="none" stroke="#000" stroke-linecap="round" stroke-miterlimit="10" stroke-width="28.3034" transform="matrix(.06 0 0 -.06 0 530.24)"/><path d="m5771.158854 7610.901042v680.79427" fill="none" stroke="#000" stroke-miterlimit="10" stroke-width="21.4446" transform="matrix(.06 0 0 -.06 0 530.24)"/><g clip-path="url(#f)"><path d="m9910.546875 7610.901042v680.79427" fill="none" stroke="#000" stroke-miterlimit="10" stroke-width="21.4446" transform="matrix(.06 0 0 -.06 0 530.24)"/></g><use x="401.194802" xlink:href="#y" y="146.097232"/><use x="413.780772" xlink:href="#z" y="146.097232"/><use x="419.393119" xlink:href="#A" y="146.097232"/><use x="431.978855" xlink:href="#B" y="146.097232"/><use x="533.368067" xlink:href="#ae" y="63.372066"/><path d="m7147.721354 7903.023437h8.072917v555.533855h-8.072917zm0 0" fill="none" stroke="#000" stroke-linejoin="round" stroke-miterlimit="10" stroke-width="6.63761" transform="matrix(.06 0 0 -.06 0 530.24)"/><path d="m428.863281 56.058594h.480469v-33.332032h-.480469zm0 0"/><use x="474.78895" xlink:href="#ae" y="63.372066"/><use x="464.703929" xlink:href="#C" y="117.505175"/><use x="478.650208" xlink:href="#D" y="117.505175"/><use x="492.596223" xlink:href="#E" y="117.505175"/><use x="464.703929" xlink:href="#F" y="146.098032"/><use x="478.650208" xlink:href="#D" y="146.098032"/><use x="492.596223" xlink:href="#E" y="146.098032"/><path d="m8124.023437 7817.932292h8.007813v555.533854h-8.007813zm0 0" fill="none" stroke="#000" stroke-linejoin="round" stroke-miterlimit="10" stroke-width="6.63761" transform="matrix(.06 0 0 -.06 0 530.24)"/><path d="m487.441406 61.164062h.480469v-33.332031h-.480469zm0 0"/><path d="m6105.794271 7817.932292h8.072916v555.533854h-8.072916zm0 0" fill="none" stroke="#000" stroke-linejoin="round" stroke-miterlimit="10" stroke-width="6.63761" transform="matrix(.06 0 0 -.06 0 530.24)"/><path d="m366.347656 61.164062h.484375v-33.332031h-.484375zm0 0"/><use x="403.320807" xlink:href="#G" y="117.505175"/><use x="415.906776" xlink:href="#B" y="117.505175"/><use x="428.492746" xlink:href="#H" y="117.505175"/><use x="416.211832" xlink:href="#ae" y="58.267056"/><path d="m2265.625 6994.039062h103.320312v5.664063h-103.320312zm0 0" fill="none" stroke="#000" stroke-linejoin="round" stroke-miterlimit="10" stroke-width="9.03736" transform="matrix(.06 0 0 -.06 0 530.24)"/><path d="m135.9375 110.597656h6.199219v-.339844h-6.199219zm0 0"/><path d="m3400 6994.039062h103.255208v5.664063h-103.255208zm0 0" fill="none" stroke="#000" stroke-linejoin="round" stroke-miterlimit="10" stroke-width="9.03736" transform="matrix(.06 0 0 -.06 0 530.24)"/><path d="m204 110.597656h6.195312v-.339844h-6.195312zm0 0"/><path d="m3247.591146 6517.476562h103.320312v5.664063h-103.320312zm0 0" fill="none" stroke="#000" stroke-linejoin="round" stroke-miterlimit="10" stroke-width="9.03736" transform="matrix(.06 0 0 -.06 0 530.24)"/><path d="m194.855469 139.191406h6.199219v-.339844h-6.199219zm0 0"/><path d="m4255.078125 6994.039062h103.320312v5.664063h-103.320312zm0 0" fill="none" stroke="#000" stroke-linejoin="round" stroke-miterlimit="10" stroke-width="9.03736" transform="matrix(.06 0 0 -.06 0 530.24)"/><path d="m255.304688 110.597656h6.199218v-.339844h-6.199218zm0 0"/><path d="m5413.671875 6994.039062h103.320312v5.664063h-103.320312zm0 0" fill="none" stroke="#000" stroke-linejoin="round" stroke-miterlimit="10" stroke-width="9.03736" transform="matrix(.06 0 0 -.06 0 530.24)"/><path d="m324.820312 110.597656h6.195313v-.339844h-6.195313zm0 0"/><path d="m6498.763021 6517.476562h103.255208v5.664063h-103.255208zm0 0" fill="none" stroke="#000" stroke-linejoin="round" stroke-miterlimit="10" stroke-width="9.03736" transform="matrix(.06 0 0 -.06 0 530.24)"/><path d="m389.925781 139.191406h6.195313v-.339844h-6.195313zm0 0"/><path d="m7507.877604 6994.039062h103.255208v5.664063h-103.255208zm0 0" fill="none" stroke="#000" stroke-linejoin="round" stroke-miterlimit="10" stroke-width="9.03736" transform="matrix(.06 0 0 -.06 0 530.24)"/><path d="m450.472656 110.597656h6.195313v-.339844h-6.195313zm0 0"/><path d="m7525.585937 6517.476562h103.255209v5.664063h-103.255209zm0 0" fill="none" stroke="#000" stroke-linejoin="round" stroke-miterlimit="10" stroke-width="9.03736" transform="matrix(.06 0 0 -.06 0 530.24)"/><path d="m451.535156 139.191406h6.195313v-.339844h-6.195313zm0 0"/><path d="m8466.40625 6994.039062h103.320312v5.664063h-103.320312zm0 0" fill="none" stroke="#000" stroke-linejoin="round" stroke-miterlimit="10" stroke-width="9.03736" transform="matrix(.06 0 0 -.06 0 530.24)"/><path d="m507.984375 110.597656h6.199219v-.339844h-6.199219zm0 0"/><path d="m8466.40625 6517.476562h103.320312v5.664063h-103.320312zm0 0" fill="none" stroke="#000" stroke-linejoin="round" stroke-miterlimit="10" stroke-width="9.03736" transform="matrix(.06 0 0 -.06 0 530.24)"/><path d="m507.984375 139.191406h6.199219v-.339844h-6.199219zm0 0"/><use x="540.03508" xlink:href="#af" y="24.935989"/><path d="m9100.325521 7817.932292h8.007812v555.533854h-8.007812zm0 0" fill="none" stroke="#000" stroke-linejoin="round" stroke-miterlimit="10" stroke-width="6.63761" transform="matrix(.06 0 0 -.06 0 530.24)"/><path d="m546.019531 61.164062h.480469v-33.332031h-.480469zm0 0"/><use x="523.962048" xlink:href="#I" y="146.097232"/><use x="529.574395" xlink:href="#H" y="146.097232"/><use x="543.520644" xlink:href="#J" y="146.097232"/><use x="523.962048" xlink:href="#I" y="117.504375"/><use x="529.574395" xlink:href="#H" y="117.504375"/><use x="543.520644" xlink:href="#J" y="117.504375"/><use x="101.798204" xlink:href="#K" y="117.504375"/><use x="118.636195" xlink:href="#E" y="117.504375"/><use x="153.828922" xlink:href="#L" y="117.504375"/><use x="174.919194" xlink:href="#M" y="117.504375"/><use x="188.865472" xlink:href="#E" y="117.504375"/><path d="m1983.463542 7477.502604h8.007812v555.598958h-8.007812zm0 0" fill="none" stroke="#000" stroke-linejoin="round" stroke-miterlimit="10" stroke-width="6.63761" transform="matrix(.06 0 0 -.06 0 530.24)"/><path d="m119.007812 81.589844h.480469v-33.335938h-.480469zm0 0"/><use x="99.7563" xlink:href="#N" y="146.097232"/><use x="119.315862" xlink:href="#O" y="146.097232"/><use x="70.835742" xlink:href="#al" y="117.504375"/><use x="83.251091" xlink:href="#am" y="117.504375"/><use x="167.485335" xlink:href="#ae" y="68.478076"/><use x="44.96909" xlink:href="#ag" y="53.160446"/><use x="54.198328" xlink:href="#ag" y="37.842815"/><use x="63.426857" xlink:href="#ag" y="58.266256"/><use x="72.656095" xlink:href="#ag" y="42.948625"/><use x="8.169066" xlink:href="#ah" y="63.372066"/><use x="106.354763" xlink:href="#ae" y="83.795507"/><use x="215.438981" xlink:href="#ai" y="73.583787"/><use x="335.872672" xlink:href="#L" y="146.097232"/><use x="356.962943" xlink:href="#P" y="146.097232"/><use x="370.908987" xlink:href="#F" y="146.097232"/><use x="344.291209" xlink:href="#B" y="117.504375"/><use x="356.877178" xlink:href="#Q" y="117.504375"/><use x="370.823222" xlink:href="#E" y="117.504375"/><use x="353.696707" xlink:href="#ae" y="63.372066"/><path d="m4954.882812 7732.841146h8.007813v555.533854h-8.007813zm0 0" fill="none" stroke="#000" stroke-linejoin="round" stroke-miterlimit="10" stroke-width="6.63761" transform="matrix(.06 0 0 -.06 0 530.24)"/><path d="m297.292969 66.273438h.480469v-33.335938h-.480469zm0 0"/><use x="277.361555" xlink:href="#R" y="146.097232"/><use x="291.307599" xlink:href="#Q" y="146.097232"/><use x="271.069042" xlink:href="#C" y="117.504375"/><use x="285.015086" xlink:href="#D" y="117.504375"/><use x="298.961365" xlink:href="#B" y="117.504375"/><use x="284.640569" xlink:href="#ae" y="68.478076"/><path d="m3978.580729 7647.684896h8.072917v555.598958h-8.072917zm0 0" fill="none" stroke="#000" stroke-linejoin="round" stroke-miterlimit="10" stroke-width="6.63761" transform="matrix(.06 0 0 -.06 0 530.24)"/><path d="m238.714844 71.378906h.484375v-33.335937h-.484375zm0 0"/><use x="164.373329" xlink:href="#S" y="146.097232"/><use x="171.346937" xlink:href="#B" y="146.097232"/><path d="m3002.278646 7732.841146h8.072916v555.533854h-8.072916zm0 0" fill="none" stroke="#000" stroke-linejoin="round" stroke-miterlimit="10" stroke-width="6.63761" transform="matrix(.06 0 0 -.06 0 530.24)"/><path d="m180.136719 66.273438h.484375v-33.335938h-.484375zm0 0"/><use x="226.063452" xlink:href="#ae" y="73.584087"/><use x="219.719439" xlink:href="#J" y="117.505175"/><use x="231.794924" xlink:href="#T" y="117.505175"/><use x="211.981064" xlink:href="#U" y="146.098032"/><use x="218.614593" xlink:href="#P" y="146.098032"/><use x="232.560872" xlink:href="#V" y="146.098032"/><use x="246.506916" xlink:href="#O" y="146.098032"/><g clip-path="url(#g)"><path d="m5.664062 5319.429687h9909.960938" style="fill:none;stroke-width:11.2839;stroke-linecap:round;stroke-linejoin:round;stroke:#000;stroke-miterlimit:10" transform="matrix(.06 0 0 -.06 0 530.24)"/></g><g clip-path="url(#h)"><path d="m5.664062 5489.611979h9909.960938" style="fill:none;stroke-width:11.2839;stroke-linecap:round;stroke-linejoin:round;stroke:#000;stroke-miterlimit:10" transform="matrix(.06 0 0 -.06 0 530.24)"/></g><g clip-path="url(#i)"><path d="m5.664062 5659.794271h9909.960938" style="fill:none;stroke-width:11.2839;stroke-linecap:round;stroke-linejoin:round;stroke:#000;stroke-miterlimit:10" transform="matrix(.06 0 0 -.06 0 530.24)"/></g><g clip-path="url(#j)"><path d="m5.664062 5829.976562h9909.960938" style="fill:none;stroke-width:11.2839;stroke-linecap:round;stroke-linejoin:round;stroke:#000;stroke-miterlimit:10" transform="matrix(.06 0 0 -.06 0 530.24)"/></g><g clip-path="url(#k)"><path d="m5.664062 6000.158854h9909.960938" style="fill:none;stroke-width:11.2839;stroke-linecap:round;stroke-linejoin:round;stroke:#000;stroke-miterlimit:10" transform="matrix(.06 0 0 -.06 0 530.24)"/></g><path d="m6152.994792 5319.429687v680.729167" fill="none" stroke="#000" stroke-linejoin="round" stroke-miterlimit="10" stroke-width="21.4446" transform="matrix(.06 0 0 -.06 0 530.24)"/><use x="581.195162" xlink:href="#aj" y="185.545311"/><use x="581.195162" xlink:href="#aj" y="195.757031"/><g clip-path="url(#l)"><path d="m9887.369792 5319.429687v680.729167" fill="none" stroke="#000" stroke-linejoin="round" stroke-miterlimit="10" stroke-width="67.7376" transform="matrix(.06 0 0 -.06 0 530.24)"/></g><path d="m9808.919271 5319.429687v680.729167" fill="none" stroke="#000" stroke-linejoin="round" stroke-miterlimit="10" stroke-width="21.4446" transform="matrix(.06 0 0 -.06 0 530.24)"/><use x="509.132018" xlink:href="#ak" y="205.969351"/><use x="442.448485" xlink:href="#ae" y="200.863481"/><use x="435.254871" xlink:href="#W" y="248.589437"/><use x="443.419094" xlink:href="#P" y="248.589437"/><use x="457.365138" xlink:href="#E" y="248.589437"/><use x="426.410473" xlink:href="#F" y="277.182294"/><use x="440.356517" xlink:href="#X" y="277.182294"/><use x="452.262563" xlink:href="#P" y="277.182294"/><use x="466.208607" xlink:href="#E" y="277.182294"/><path d="m7585.026042 5526.395833h8.007812v555.533854h-8.007812zm0 0" fill="none" stroke="#000" stroke-linejoin="round" stroke-miterlimit="10" stroke-width="6.63761" transform="matrix(.06 0 0 -.06 0 530.24)"/><path d="m455.101562 198.65625h.480469v-33.332031h-.480469zm0 0"/><path d="m6491.992187 5526.395833h8.007813v555.533854h-8.007813zm0 0" fill="none" stroke="#000" stroke-linejoin="round" stroke-miterlimit="10" stroke-width="6.63761" transform="matrix(.06 0 0 -.06 0 530.24)"/><path d="m389.519531 198.65625h.480469v-33.332031h-.480469zm0 0"/><use x="370.522741" xlink:href="#J" y="277.182494"/><use x="382.598007" xlink:href="#P" y="277.182494"/><use x="363.974998" xlink:href="#B" y="248.589637"/><use x="376.560968" xlink:href="#A" y="248.589637"/><use x="389.146937" xlink:href="#P" y="248.589637"/><use x="376.866754" xlink:href="#ae" y="200.863341"/><path d="m2423.177083 4809.273438h103.320313v5.664062h-103.320313zm0 0" fill="none" stroke="#000" stroke-linejoin="round" stroke-miterlimit="10" stroke-width="9.03736" transform="matrix(.06 0 0 -.06 0 530.24)"/><path d="m145.390625 241.683594h6.199219v-.339844h-6.199219zm0 0"/><path d="m2369.335937 4332.776042h103.320313v5.598958h-103.320313zm0 0" fill="none" stroke="#000" stroke-linejoin="round" stroke-miterlimit="10" stroke-width="9.03736" transform="matrix(.06 0 0 -.06 0 530.24)"/><path d="m142.160156 270.273438h6.199219v-.335938h-6.199219zm0 0"/><path d="m3431.184896 4809.273438h103.255208v5.664062h-103.255208zm0 0" fill="none" stroke="#000" stroke-linejoin="round" stroke-miterlimit="10" stroke-width="9.03736" transform="matrix(.06 0 0 -.06 0 530.24)"/><path d="m205.871094 241.683594h6.195312v-.339844h-6.195312zm0 0"/><path d="m3370.898437 4332.776042h103.320313v5.598958h-103.320313zm0 0" fill="none" stroke="#000" stroke-linejoin="round" stroke-miterlimit="10" stroke-width="9.03736" transform="matrix(.06 0 0 -.06 0 530.24)"/><path d="m202.253906 270.273438h6.199219v-.335938h-6.199219zm0 0"/><path d="m4496.549479 4809.273438h103.320313v5.664062h-103.320313zm0 0" fill="none" stroke="#000" stroke-linejoin="round" stroke-miterlimit="10" stroke-width="9.03736" transform="matrix(.06 0 0 -.06 0 530.24)"/><path d="m269.792969 241.683594h6.199219v-.339844h-6.199219zm0 0"/><path d="m4518.554687 4332.776042h103.255209v5.598958h-103.255209zm0 0" fill="none" stroke="#000" stroke-linejoin="round" stroke-miterlimit="10" stroke-width="9.03736" transform="matrix(.06 0 0 -.06 0 530.24)"/><path d="m271.109375 270.273438h6.199219v-.335938h-6.199219zm0 0"/><path d="m6934.570312 4809.273438h103.255209v5.664062h-103.255209zm0 0" fill="none" stroke="#000" stroke-linejoin="round" stroke-miterlimit="10" stroke-width="9.03736" transform="matrix(.06 0 0 -.06 0 530.24)"/><path d="m416.074219 241.683594h6.195312v-.339844h-6.195312zm0 0"/><path d="m6806.315104 4332.776042h103.255208v5.598958h-103.255208zm0 0" fill="none" stroke="#000" stroke-linejoin="round" stroke-miterlimit="10" stroke-width="9.03736" transform="matrix(.06 0 0 -.06 0 530.24)"/><path d="m408.378906 270.273438h6.195313v-.335938h-6.195313zm0 0"/><path d="m7874.479167 4809.273438h103.255208v5.664062h-103.255208zm0 0" fill="none" stroke="#000" stroke-linejoin="round" stroke-miterlimit="10" stroke-width="9.03736" transform="matrix(.06 0 0 -.06 0 530.24)"/><path d="m472.46875 241.683594h6.195312v-.339844h-6.195312zm0 0"/><path d="m7948.177083 4332.776042h103.255209v5.598958h-103.255209zm0 0" fill="none" stroke="#000" stroke-linejoin="round" stroke-miterlimit="10" stroke-width="9.03736" transform="matrix(.06 0 0 -.06 0 530.24)"/><path d="m476.890625 270.273438h6.195313v-.335938h-6.195313zm0 0"/><use x="488.158976" xlink:href="#L" y="248.589437"/><use x="509.249219" xlink:href="#P" y="248.589437"/><use x="523.195233" xlink:href="#C" y="248.589437"/><use x="537.141483" xlink:href="#O" y="248.589437"/><path d="m8707.682292 5453.479167h8.007812v543.359375h-8.007812zm0 0" fill="none" stroke="#000" stroke-linejoin="round" stroke-miterlimit="10" stroke-width="6.63761" transform="matrix(.06 0 0 -.06 0 530.24)"/><path d="m522.460938 203.03125h.480468v-32.601562h-.480468zm0 0"/><use x="488.158976" xlink:href="#L" y="277.182494"/><use x="509.249219" xlink:href="#P" y="277.182494"/><use x="523.195233" xlink:href="#C" y="277.182494"/><use x="537.141483" xlink:href="#Y" y="277.182494"/><path d="m1983.463542 5611.486979h8.007812v555.533854h-8.007812zm0 0" fill="none" stroke="#000" stroke-linejoin="round" stroke-miterlimit="10" stroke-width="6.63761" transform="matrix(.06 0 0 -.06 0 530.24)"/><path d="m119.007812 193.550781h.480469v-33.332031h-.480469zm0 0"/><use x="101.797204" xlink:href="#Z" y="277.182494"/><use x="118.635195" xlink:href="#z" y="277.182494"/><use x="91.166682" xlink:href="#aa" y="248.589637"/><use x="106.983736" xlink:href="#M" y="248.589637"/><use x="120.929773" xlink:href="#F" y="248.589637"/><use x="106.355213" xlink:href="#ae" y="195.757331"/><use x="44.96949" xlink:href="#ag" y="190.651461"/><use x="54.198728" xlink:href="#ag" y="175.33383"/><use x="63.427257" xlink:href="#ag" y="195.757271"/><use x="72.656495" xlink:href="#ag" y="180.43964"/><use x="8.169466" xlink:href="#ah" y="200.863081"/><path d="m5219.986979 5441.304687h8.072917v555.533855h-8.072917zm0 0" fill="none" stroke="#000" stroke-linejoin="round" stroke-miterlimit="10" stroke-width="6.63761" transform="matrix(.06 0 0 -.06 0 530.24)"/><path d="m313.199219 203.761719h.484375v-33.332031h-.484375zm0 0"/><use x="290.03658" xlink:href="#U" y="277.182494"/><use x="296.670094" xlink:href="#P" y="277.182494"/><use x="310.446685" xlink:href="#U" y="277.182494"/><use x="317.420278" xlink:href="#U" y="277.182494"/><use x="290.461269" xlink:href="#E" y="248.589637"/><use x="296.073616" xlink:href="#P" y="248.589637"/><use x="310.019894" xlink:href="#V" y="248.589637"/><use x="300.547601" xlink:href="#ae" y="205.969351"/><use x="224.341549" xlink:href="#ai" y="211.075222"/><path d="m4126.953125 5356.213542h8.072917v555.533854h-8.072917zm0 0" fill="none" stroke="#000" stroke-linejoin="round" stroke-miterlimit="10" stroke-width="6.63761" transform="matrix(.06 0 0 -.06 0 530.24)"/><path d="m247.617188 208.867188h.484374v-33.332032h-.484374zm0 0"/><use x="224.87945" xlink:href="#E" y="277.182494"/><use x="230.491797" xlink:href="#P" y="277.182494"/><use x="244.438075" xlink:href="#V" y="277.182494"/><use x="227.941096" xlink:href="#U" y="248.589637"/><use x="234.574625" xlink:href="#P" y="248.589637"/><use x="248.351216" xlink:href="#U" y="248.589637"/><use x="234.96547" xlink:href="#ae" y="211.075362"/><use x="169.383739" xlink:href="#ae" y="205.969491"/><path d="m3033.919271 5441.304687h8.072916v555.533855h-8.072916zm0 0" fill="none" stroke="#000" stroke-linejoin="round" stroke-miterlimit="10" stroke-width="6.63761" transform="matrix(.06 0 0 -.06 0 530.24)"/><path d="m182.035156 203.761719h.484375v-33.332031h-.484375zm0 0"/><use x="162.105324" xlink:href="#R" y="248.589437"/><use x="176.051368" xlink:href="#P" y="248.589437"/><use x="166.271583" xlink:href="#I" y="277.182294"/><use x="171.88393" xlink:href="#P" y="277.182294"/><g clip-path="url(#m)"><path d="m5.664062 3190.132812h9909.960938" style="fill:none;stroke-width:11.2839;stroke-linecap:round;stroke-linejoin:round;stroke:#000;stroke-miterlimit:10" transform="matrix(.06 0 0 -.06 0 530.24)"/></g><g clip-path="url(#n)"><path d="m5.664062 3360.315104h9909.960938" style="fill:none;stroke-width:11.2839;stroke-linecap:round;stroke-linejoin:round;stroke:#000;stroke-miterlimit:10" transform="matrix(.06 0 0 -.06 0 530.24)"/></g><g clip-path="url(#o)"><path d="m5.664062 3530.5625h9909.960938" style="fill:none;stroke-width:11.2839;stroke-linecap:round;stroke-linejoin:round;stroke:#000;stroke-miterlimit:10" transform="matrix(.06 0 0 -.06 0 530.24)"/></g><g clip-path="url(#p)"><path d="m5.664062 3700.744792h9909.960938" style="fill:none;stroke-width:11.2839;stroke-linecap:round;stroke-linejoin:round;stroke:#000;stroke-miterlimit:10" transform="matrix(.06 0 0 -.06 0 530.24)"/></g><g clip-path="url(#q)"><path d="m5.664062 3870.927083h9909.960938" style="fill:none;stroke-width:11.2839;stroke-linecap:round;stroke-linejoin:round;stroke:#000;stroke-miterlimit:10" transform="matrix(.06 0 0 -.06 0 530.24)"/></g><path d="m6303.776042 3190.132812v680.794271" fill="none" stroke="#000" stroke-linejoin="round" stroke-miterlimit="10" stroke-width="21.4446" transform="matrix(.06 0 0 -.06 0 530.24)"/><g clip-path="url(#r)"><path d="m9910.546875 3190.132812v680.794271" fill="none" stroke="#000" stroke-linejoin="round" stroke-miterlimit="10" stroke-width="21.4446" transform="matrix(.06 0 0 -.06 0 530.24)"/></g><path d="m7572.65625 2966.565104h8.007812v527.148438h-8.007812zm0 0" fill="none" stroke="#000" stroke-linejoin="round" stroke-miterlimit="10" stroke-width="6.63761" transform="matrix(.06 0 0 -.06 0 530.24)"/><path d="m454.359375 352.246094h.480469v-31.628906h-.480469zm0 0"/><use x="443.393887" xlink:href="#R" y="374.571689"/><use x="457.340165" xlink:href="#Q" y="374.571689"/><use x="471.286209" xlink:href="#U" y="374.571689"/><use x="454.159908" xlink:href="#ae" y="318.407576"/><path d="m6449.479167 2966.565104h8.072916v527.148438h-8.072916zm0 0" fill="none" stroke="#000" stroke-linejoin="round" stroke-miterlimit="10" stroke-width="6.63761" transform="matrix(.06 0 0 -.06 0 530.24)"/><path d="m386.96875 352.246094h.484375v-31.628906h-.484375zm0 0"/><use x="361.974724" xlink:href="#L" y="374.571689"/><use x="383.064996" xlink:href="#T" y="374.571689"/><use x="397.01104" xlink:href="#V" y="374.571689"/><use x="410.957318" xlink:href="#C" y="374.571689"/><use x="386.771774" xlink:href="#ae" y="318.407576"/><path d="m7184.179687 2709.598958h103.255209v5.664063h-103.255209zm0 0" fill="none" stroke="#000" stroke-linejoin="round" stroke-miterlimit="10" stroke-width="9.03736" transform="matrix(.06 0 0 -.06 0 530.24)"/><path d="m431.050781 367.664062h6.195313v-.339843h-6.195313zm0 0"/><path d="m8227.864583 2709.598958h103.320313v5.664063h-103.320313zm0 0" fill="none" stroke="#000" stroke-linejoin="round" stroke-miterlimit="10" stroke-width="9.03736" transform="matrix(.06 0 0 -.06 0 530.24)"/><path d="m493.671875 367.664062h6.199219v-.339843h-6.199219zm0 0"/><path d="m8695.768229 3023.270833h8.007813v543.359375h-8.007813zm0 0" fill="none" stroke="#000" stroke-linejoin="round" stroke-miterlimit="10" stroke-width="6.63761" transform="matrix(.06 0 0 -.06 0 530.24)"/><path d="m521.746094 348.84375h.480468v-32.601562h-.480468zm0 0"/><use x="515.287031" xlink:href="#I" y="374.571689"/><use x="520.899378" xlink:href="#Q" y="374.571689"/><use x="534.845392" xlink:href="#O" y="374.571689"/><use x="521.547043" xlink:href="#ak" y="313.301566"/><use x="94.82409" xlink:href="#ab" y="374.571689"/><use x="111.662081" xlink:href="#A" y="374.571689"/><use x="124.248036" xlink:href="#U" y="374.571689"/><use x="106.355213" xlink:href="#ae" y="323.513587"/><use x="44.96949" xlink:href="#ag" y="318.407716"/><use x="54.198728" xlink:href="#ag" y="303.090086"/><use x="63.427257" xlink:href="#ag" y="323.513527"/><use x="72.656495" xlink:href="#ag" y="308.195896"/><use x="8.169466" xlink:href="#ah" y="328.619337"/><path d="m1983.463542 3482.255208h8.007812v555.533854h-8.007812zm0 0" fill="none" stroke="#000" stroke-linejoin="round" stroke-miterlimit="10" stroke-width="6.63761" transform="matrix(.06 0 0 -.06 0 530.24)"/><path d="m119.007812 321.304688h.480469v-33.332032h-.480469zm0 0"/><use x="241.130482" xlink:href="#ae" y="328.618597"/><path d="m5352.864583 3482.255208h8.007813v555.533854h-8.007813zm0 0" fill="none" stroke="#000" stroke-linejoin="round" stroke-miterlimit="10" stroke-width="6.63761" transform="matrix(.06 0 0 -.06 0 530.24)"/><path d="m321.171875 321.304688h.480469v-33.332032h-.480469zm0 0"/><use x="290.694581" xlink:href="#V" y="374.571689"/><use x="304.640625" xlink:href="#P" y="374.571689"/><use x="318.586669" xlink:href="#L" y="374.571689"/><use x="308.517617" xlink:href="#ae" y="323.513587"/><path d="m4229.6875 3397.164062h8.072917v555.533855h-8.072917zm0 0" fill="none" stroke="#000" stroke-linejoin="round" stroke-miterlimit="10" stroke-width="6.63761" transform="matrix(.06 0 0 -.06 0 530.24)"/><path d="m253.78125 326.410156h.484375v-33.332031h-.484375zm0 0"/><use x="238.698477" xlink:href="#J" y="374.571689"/><use x="251.284447" xlink:href="#z" y="374.571689"/><path d="m3106.575521 3482.255208h8.072916v555.533854h-8.072916zm0 0" fill="none" stroke="#000" stroke-linejoin="round" stroke-miterlimit="10" stroke-width="6.63761" transform="matrix(.06 0 0 -.06 0 530.24)"/><path d="m186.394531 321.304688h.484375v-33.332032h-.484375zm0 0"/><use x="158.044316" xlink:href="#B" y="374.571689"/><use x="170.630271" xlink:href="#A" y="374.571689"/><use x="183.216226" xlink:href="#D" y="374.571689"/><use x="197.162505" xlink:href="#I" y="374.571689"/><use x="173.742347" xlink:href="#ae" y="323.513587"/><g clip-path="url(#s)"><path d="m5.664062 1147.815104h9909.960938" style="fill:none;stroke-width:11.2839;stroke-linecap:round;stroke-linejoin:round;stroke:#000;stroke-miterlimit:10" transform="matrix(.06 0 0 -.06 0 530.24)"/></g><g clip-path="url(#t)"><path d="m5.664062 1317.997396h9909.960938" style="fill:none;stroke-width:11.2839;stroke-linecap:round;stroke-linejoin:round;stroke:#000;stroke-miterlimit:10" transform="matrix(.06 0 0 -.06 0 530.24)"/></g><g clip-path="url(#u)"><path d="m5.664062 1488.179688h9909.960938" style="fill:none;stroke-width:11.2839;stroke-linecap:round;stroke-linejoin:round;stroke:#000;stroke-miterlimit:10" transform="matrix(.06 0 0 -.06 0 530.24)"/></g><g clip-path="url(#v)"><path d="m5.664062 1658.361979h9909.960938" style="fill:none;stroke-width:11.2839;stroke-linecap:round;stroke-linejoin:round;stroke:#000;stroke-miterlimit:10" transform="matrix(.06 0 0 -.06 0 530.24)"/></g><g clip-path="url(#w)"><path d="m5.664062 1828.609375h9909.960938" style="fill:none;stroke-width:11.2839;stroke-linecap:round;stroke-linejoin:round;stroke:#000;stroke-miterlimit:10" transform="matrix(.06 0 0 -.06 0 530.24)"/></g><path d="m6273.4375 1147.815104v680.794271" fill="none" stroke="#000" stroke-linejoin="round" stroke-miterlimit="10" stroke-width="21.4446" transform="matrix(.06 0 0 -.06 0 530.24)"/><g clip-path="url(#x)"><path d="m9887.369792 1147.815104v680.794271" fill="none" stroke="#000" stroke-linejoin="round" stroke-miterlimit="10" stroke-width="67.7376" transform="matrix(.06 0 0 -.06 0 530.24)"/></g><path d="m9808.919271 1147.815104v680.794271" fill="none" stroke="#000" stroke-linejoin="round" stroke-miterlimit="10" stroke-width="21.4446" transform="matrix(.06 0 0 -.06 0 530.24)"/><path d="m7695.638021 1354.78125h8.007812v555.598958h-8.007812zm0 0" fill="none" stroke="#000" stroke-linejoin="round" stroke-miterlimit="10" stroke-width="6.63761" transform="matrix(.06 0 0 -.06 0 530.24)"/><path d="m461.738281 448.953125h.480469v-33.335937h-.480469zm0 0"/><use x="438.320877" xlink:href="#R" y="497.214634"/><use x="452.266921" xlink:href="#Q" y="497.214634"/><use x="466.213199" xlink:href="#U" y="497.214634"/><use x="449.085898" xlink:href="#ae" y="451.159642"/><path d="m6612.044271 1354.78125h8.072916v555.598958h-8.072916zm0 0" fill="none" stroke="#000" stroke-linejoin="round" stroke-miterlimit="10" stroke-width="6.63761" transform="matrix(.06 0 0 -.06 0 530.24)"/><path d="m396.722656 448.953125h.484375v-33.335937h-.484375zm0 0"/><use x="373.305747" xlink:href="#W" y="497.214634"/><use x="381.639423" xlink:href="#D" y="497.214634"/><use x="395.585702" xlink:href="#A" y="497.214634"/><use x="384.071768" xlink:href="#ae" y="451.159642"/><path d="m4636.132812 665.588542h103.255209v5.598958h-103.255209zm0 0" fill="none" stroke="#000" stroke-linejoin="round" stroke-miterlimit="10" stroke-width="9.03736" transform="matrix(.06 0 0 -.06 0 530.24)"/><path d="m278.167969 490.304688h6.195312v-.335938h-6.195312zm0 0"/><path d="m5850.846354 665.588542h103.255208v5.598958h-103.255208zm0 0" fill="none" stroke="#000" stroke-linejoin="round" stroke-miterlimit="10" stroke-width="9.03736" transform="matrix(.06 0 0 -.06 0 530.24)"/><path d="m351.046875 490.304688h6.199219v-.335938h-6.199219zm0 0"/><path d="m7002.408854 665.588542h103.320313v5.598958h-103.320313zm0 0" fill="none" stroke="#000" stroke-linejoin="round" stroke-miterlimit="10" stroke-width="9.03736" transform="matrix(.06 0 0 -.06 0 530.24)"/><path d="m420.144531 490.304688h6.199219v-.335938h-6.199219zm0 0"/><path d="m8123.567708 665.588542h103.320313v5.598958h-103.320313zm0 0" fill="none" stroke="#000" stroke-linejoin="round" stroke-miterlimit="10" stroke-width="9.03736" transform="matrix(.06 0 0 -.06 0 530.24)"/><path d="m487.414062 490.304688h6.195313v-.335938h-6.195313zm0 0"/><path d="m8790.494792 1281.929688h8.072916v543.359374h-8.072916zm0 0" fill="none" stroke="#000" stroke-linejoin="round" stroke-miterlimit="10" stroke-width="6.63761" transform="matrix(.06 0 0 -.06 0 530.24)"/><path d="m527.429688 453.324219h.484374v-32.601563h-.484374zm0 0"/><use x="507.841016" xlink:href="#I" y="497.214634"/><use x="513.453363" xlink:href="#Q" y="497.214634"/><use x="527.399377" xlink:href="#ac" y="497.214634"/><use x="521.108042" xlink:href="#af" y="417.490775"/><use x="514.101618" xlink:href="#ak" y="456.265652"/><use x="8.169606" xlink:href="#ah" y="451.159782"/><path d="m1983.463542 1439.872396h8.007812v555.598958h-8.007812zm0 0" fill="none" stroke="#000" stroke-linejoin="round" stroke-miterlimit="10" stroke-width="6.63761" transform="matrix(.06 0 0 -.06 0 530.24)"/><path d="m119.007812 443.847656h.480469v-33.335937h-.480469zm0 0"/><use x="81.898064" xlink:href="#ad" y="497.214634"/><use x="100.096373" xlink:href="#X" y="497.214634"/><use x="112.002172" xlink:href="#P" y="497.214634"/><use x="125.948451" xlink:href="#E" y="497.214634"/><use x="131.560798" xlink:href="#y" y="497.214634"/><use x="106.355213" xlink:href="#ae" y="446.053732"/><use x="44.96949" xlink:href="#ag" y="440.948101"/><use x="54.198728" xlink:href="#ag" y="425.630471"/><use x="63.427257" xlink:href="#ag" y="446.053712"/><use x="72.656495" xlink:href="#ag" y="430.736381"/><use x="232.474465" xlink:href="#L" y="497.214634"/><use x="253.564737" xlink:href="#Q" y="497.214634"/><path d="m5349.869792 1269.690104h8.072916v555.533854h-8.072916zm0 0" fill="none" stroke="#000" stroke-linejoin="round" stroke-miterlimit="10" stroke-width="6.63761" transform="matrix(.06 0 0 -.06 0 530.24)"/><path d="m320.992188 454.058594h.484374v-33.332032h-.484374zm0 0"/><use x="295.02259" xlink:href="#F" y="497.214634"/><use x="308.968634" xlink:href="#X" y="497.214634"/><use x="321.044134" xlink:href="#Q" y="497.214634"/><use x="308.340617" xlink:href="#ae" y="456.265452"/><use x="232.701065" xlink:href="#ai" y="461.371322"/><path d="m4266.276042 1184.598958h8.072916v555.533854h-8.072916zm0 0" fill="none" stroke="#000" stroke-linejoin="round" stroke-miterlimit="10" stroke-width="6.63761" transform="matrix(.06 0 0 -.06 0 530.24)"/><path d="m255.976562 459.164062h.484376v-33.332031h-.484376zm0 0"/><use x="243.325487" xlink:href="#ae" y="461.371362"/><path d="m3182.682292 1269.690104h8.072916v555.533854h-8.072916zm0 0" fill="none" stroke="#000" stroke-linejoin="round" stroke-miterlimit="10" stroke-width="6.63761" transform="matrix(.06 0 0 -.06 0 530.24)"/><path d="m190.960938 454.058594h.484374v-33.332032h-.484374zm0 0"/><use x="160.485321" xlink:href="#V" y="497.214634"/><use x="174.431365" xlink:href="#P" y="497.214634"/><use x="188.377643" xlink:href="#L" y="497.214634"/><use x="178.310357" xlink:href="#ae" y="456.265452"/></svg>