<svg height="851.76em" viewBox="0 0 595.28 851.76" width="595.28em" xmlns="http://www.w3.org/2000/svg" xmlns:xlink="http://www.w3.org/1999/xlink"><clipPath id="a"><path d="m0 57h595.28125v1h-595.28125zm0 0"/></clipPath><clipPath id="b"><path d="m0 48h595.28125v2h-595.28125zm0 0"/></clipPath><clipPath id="c"><path d="m0 40h595.28125v1h-595.28125zm0 0"/></clipPath><clipPath id="d"><path d="m0 31h595.28125v2h-595.28125zm0 0"/></clipPath><clipPath id="e"><path d="m0 23h595.28125v1h-595.28125zm0 0"/></clipPath><clipPath id="f"><path d="m0 164h595.28125v1h-595.28125zm0 0"/></clipPath><clipPath id="g"><path d="m0 155h595.28125v2h-595.28125zm0 0"/></clipPath><clipPath id="h"><path d="m0 147h595.28125v1h-595.28125zm0 0"/></clipPath><clipPath id="i"><path d="m0 138h595.28125v2h-595.28125zm0 0"/></clipPath><clipPath id="j"><path d="m0 130h595.28125v1h-595.28125zm0 0"/></clipPath><clipPath id="k"><path d="m0 273h595.28125v2h-595.28125zm0 0"/></clipPath><clipPath id="l"><path d="m0 265h595.28125v1h-595.28125zm0 0"/></clipPath><clipPath id="m"><path d="m0 256h595.28125v2h-595.28125zm0 0"/></clipPath><clipPath id="n"><path d="m0 248h595.28125v1h-595.28125zm0 0"/></clipPath><clipPath id="o"><path d="m0 239h595.28125v2h-595.28125zm0 0"/></clipPath><clipPath id="p"><path d="m591 238h4.28125v38h-4.28125zm0 0"/></clipPath><clipPath id="q"><path d="m0 380h595.28125v2h-595.28125zm0 0"/></clipPath><clipPath id="r"><path d="m0 371h595.28125v2h-595.28125zm0 0"/></clipPath><clipPath id="s"><path d="m0 363h595.28125v2h-595.28125zm0 0"/></clipPath><clipPath id="t"><path d="m0 355h595.28125v1h-595.28125zm0 0"/></clipPath><clipPath id="u"><path d="m0 346h595.28125v2h-595.28125zm0 0"/></clipPath><clipPath id="v"><path d="m0 482h595.28125v1h-595.28125zm0 0"/></clipPath><clipPath id="w"><path d="m0 473h595.28125v2h-595.28125zm0 0"/></clipPath><clipPath id="x"><path d="m0 465h595.28125v1h-595.28125zm0 0"/></clipPath><clipPath id="y"><path d="m0 456h595.28125v2h-595.28125zm0 0"/></clipPath><clipPath id="z"><path d="m0 448h595.28125v1h-595.28125zm0 0"/></clipPath><clipPath id="A"><path d="m594 447h1.28125v36h-1.28125zm0 0"/></clipPath><clipPath id="B"><path d="m0 583h595.28125v2h-595.28125zm0 0"/></clipPath><clipPath id="C"><path d="m0 575h595.28125v1h-595.28125zm0 0"/></clipPath><clipPath id="D"><path d="m0 566h595.28125v2h-595.28125zm0 0"/></clipPath><clipPath id="E"><path d="m0 558h595.28125v1h-595.28125zm0 0"/></clipPath><clipPath id="F"><path d="m0 549h595.28125v2h-595.28125zm0 0"/></clipPath><clipPath id="G"><path d="m591 548h4.28125v38h-4.28125zm0 0"/></clipPath><clipPath id="H"><path d="m0 693h595.28125v2h-595.28125zm0 0"/></clipPath><clipPath id="I"><path d="m0 685h595.28125v1h-595.28125zm0 0"/></clipPath><clipPath id="J"><path d="m0 676h595.28125v2h-595.28125zm0 0"/></clipPath><clipPath id="K"><path d="m0 668h595.28125v1h-595.28125zm0 0"/></clipPath><clipPath id="L"><path d="m0 659h595.28125v2h-595.28125zm0 0"/></clipPath><clipPath id="M"><path d="m0 795h595.28125v1h-595.28125zm0 0"/></clipPath><clipPath id="N"><path d="m0 786h595.28125v2h-595.28125zm0 0"/></clipPath><clipPath id="O"><path d="m0 778h595.28125v1h-595.28125zm0 0"/></clipPath><clipPath id="P"><path d="m0 769h595.28125v2h-595.28125zm0 0"/></clipPath><clipPath id="Q"><path d="m0 761h595.28125v1h-595.28125zm0 0"/></clipPath><clipPath id="R"><path d="m591 759h4.28125v39h-4.28125zm0 0"/></clipPath><symbol id="S" overflow="visible"><path d="m-.78125 3.828125c0 1.828125 1.59375 5.046875 3.15625 6.90625.203125.234375.53125-.0625.328125-.296875-.5625-.71875-.9375-2.078125-.9375-3.25 0-1.390625.40625-2.375 1.75-2.375 1.234375 0 2.8125.703125 3.46875 1.453125.09375.140625.234375.171875.328125.171875.234375 0 .484375-.234375.484375-.46875 0-.109375-.046875-.171875-.109375-.28125l-2.9375-3.515625c-.546875-.6875-.828125-1.453125-.828125-2.28125 0-1.046875.453125-2.125 1.328125-2.875 1.25-1.078125 2.90625-2.125 2.90625-3.25 0-.265625-.09375-.578125-.328125-.84375l-5.15625-6.171875c-.09375-.125-.234375-.171875-.328125-.171875-.25 0-.484375.25-.484375.484375 0 .09375.03125.203125.109375.296875l1.3125 1.5625c.546875.671875.8125 1.453125.8125 2.265625 0 1.0625-.4375 2.140625-1.3125 2.890625-1.25 1.078125-2.921875 2.125-2.921875 3.25 0 .265625.109375.578125.34375.84375l4.640625 5.546875c-1.53125-.734375-3.25-1.25-4.40625-1.25-.875 0-1.21875.484375-1.21875 1.359375zm0 0"/></symbol><symbol id="T" overflow="visible"><path d="m7.515625-4.578125c-1.421875 0-2.765625.484375-4 1.21875-1.578125.953125-3.515625 2.609375-3.515625 5.015625 0 2 1.765625 2.921875 3.5625 2.921875 1.421875 0 2.765625-.484375 3.984375-1.21875 1.59375-.953125 3.5-2.609375 3.5-5.015625 0-2-1.734375-2.921875-3.53125-2.921875zm0 0"/></symbol><symbol id="U" overflow="visible"><path d="m7.28125 10.703125v-5.515625l1.65625-.578125c.203125-.0625.375-.265625.375-.515625v-2.203125c0-.359375-.375-.640625-.703125-.5l-1.328125.46875v-5.546875l1.65625-.609375c.203125-.078125.375-.28125.375-.515625v-2.171875c0-.359375-.375-.640625-.703125-.5l-1.328125.4375v-5.078125c0-.3125-.265625-.578125-.578125-.578125-.296875 0-.578125.265625-.578125.578125v5.484375l-2.9375 1.046875v-5.109375c0-.3125-.28125-.578125-.578125-.578125-.3125 0-.578125.265625-.578125.578125v5.515625l-1.65625.578125c-.203125.0625-.375.265625-.375.515625v2.203125c0 .359375.375.640625.71875.5l1.3125-.46875v5.546875l-1.65625.609375c-.203125.078125-.375.28125-.375.515625v2.171875c0 .359375.375.640625.71875.5l1.3125-.4375v5.078125c0 .3125.265625.578125.578125.578125.296875 0 .578125-.265625.578125-.578125v-5.484375l2.9375-1.046875v5.109375c0 .3125.28125.578125.578125.578125.3125 0 .578125-.265625.578125-.578125zm-4.09375-12.96875 2.9375-1.015625v5.546875l-2.9375 1.015625zm0 0"/></symbol><symbol id="V" overflow="visible"><path d="m12.671875-8.8125c-.546875-2.359375-1.1875-4.703125-1.859375-7.046875 3.25-3.6875 6.1875-7.484375 6.1875-12.359375 0-3.828125-2.09375-9.3125-4.46875-12.15625-.171875-.140625-.375-.140625-.546875 0-3.203125 2.328125-5.078125 6.0625-5.078125 9.984375 0 1.765625.03125 3.5.234375 5.21875.25 2.203125.8125 4.34375 1.4375 6.46875-4 4.546875-8.515625 8.875-8.515625 14.90625 0 6.8125 4.921875 12.609375 11.28125 12.609375 1.046875 0 2.03125-.109375 3.015625-.28125.109375 1.09375.171875 2.171875.171875 3.25 0 .609375-.03125 1.1875-.0625 1.796875-.203125 3.359375-2.28125 6.4375-5.421875 6.515625-.03125 0-.0625.03125-.109375.03125-1.71875 0-3.21875-.984375-4.09375-2.375.375.171875.78125.3125 1.1875.3125 1.765625 0 3.21875-1.46875 3.21875-3.21875 0-1.90625-1.390625-3.53125-3.21875-3.53125-2 0-3.796875 1.5625-3.796875 3.53125 0 3.65625 2.953125 6.59375 6.609375 6.59375 4 0 6.734375-3.578125 6.96875-7.65625.046875-.640625.046875-1.25.046875-1.890625 0-1.21875-.078125-2.4375-.171875-3.65625.875-.28125 1.71875-.6875 2.46875-1.25 2.5-1.875 3.625-4.484375 3.625-7.046875 0-4.484375-3.390625-8.78125-8.609375-8.78125-.15625 0-.328125.03125-.5.03125zm2.875 15.75c-.46875-4.1875-1.25-8.1875-2.09375-12.15625 3.71875.3125 6.0625 3.421875 6.0625 6.546875 0 2.359375-1.625 4.796875-3.96875 5.609375zm-13.140625-7.984375c0-5.421875 3.65625-9.515625 7.3125-13.625.546875 2 1.09375 4 1.5625 6.03125-3.421875.78125-5.359375 3.65625-5.359375 6.640625 0 2.375 1.21875 4.78125 3.9375 6.234375.09375.03125.203125.0625.296875.0625.375 0 .6875-.328125.6875-.703125 0-.171875-.109375-.34375-.234375-.484375-1.90625-1.078125-2.78125-2.703125-2.78125-4.1875 0-2 1.5625-3.796875 4.234375-4.109375.875 4.0625 1.65625 8.09375 2.171875 12.4375-.921875.140625-1.84375.203125-2.78125.203125-4.609375 0-9.046875-3.890625-9.046875-8.5zm11.515625-34.515625c.578125 1.796875.71875 2.671875.71875 4.640625 0 4.296875-2.28125 7.71875-5.046875 11-.609375-2.125-1.125-4.203125-1.125-6.765625 0-3.765625 2.09375-7.1875 5.453125-8.875zm0 0"/></symbol><symbol id="W" overflow="visible"><path d="m0 0c0 1.078125.84375 1.9375 1.9375 1.9375 1.078125 0 1.921875-.859375 1.921875-1.9375s-.84375-1.9375-1.921875-1.9375c-1.09375 0-1.9375.859375-1.9375 1.9375zm0 0"/></symbol><symbol id="X" overflow="visible"><path d="m10.703125-2.265625c0 .328125-.09375.703125-.34375.984375-.703125.84375-2.328125 1.890625-3.625 2.703125-1.28125.8125-2.90625 1.890625-3.953125 2.203125-.140625.03125-.3125.0625-.4375.0625-.75 0-1.421875-.578125-1.421875-1.421875 0-.328125.09375-.703125.328125-.984375.71875-.84375 2.34375-1.890625 3.625-2.703125 1.296875-.8125 2.921875-1.890625 3.96875-2.203125.140625-.03125.296875-.0625.4375-.0625.75 0 1.421875.578125 1.421875 1.421875zm-1.71875-2.3125c-2.546875 0-4.609375.546875-6.40625 1.765625-1.09375.75-1.796875 1.890625-2.203125 3.15625-.203125.609375-.375 1.28125-.375 1.921875 0 1.59375 1.15625 2.3125 2.640625 2.3125 2.546875 0 4.609375-.546875 6.40625-1.765625 1.078125-.75 1.796875-1.890625 2.203125-3.15625.203125-.609375.375-1.28125.375-1.921875 0-1.59375-1.15625-2.3125-2.640625-2.3125zm0 0"/></symbol><symbol id="Y" overflow="visible"><path d="m-2.140625-1.59375c0 1.1875.953125 2.140625 2.140625 2.140625s2.140625-.953125 2.140625-2.140625-.953125-2.125-2.140625-2.125-2.140625.9375-2.140625 2.125zm2.140625-10.59375c-5.25 0-11.140625 5.859375-11.140625 12.25 0 .28125.265625.484375.53125.484375.25 0 .515625-.171875.578125-.546875.890625-5.046875 4.984375-8.984375 10.03125-8.984375s9.140625 3.9375 10.03125 8.984375c.0625.375.328125.546875.578125.546875.265625 0 .53125-.203125.53125-.484375 0-6.390625-5.859375-12.25-11.140625-12.25zm0 0"/></symbol><symbol id="Z" overflow="visible"><path d="m11.1875-.046875v-1.3125c-.1875.046875-.28125.046875-.375.046875-.609375 0-.9375-.3125-.9375-.859375v-6.109375c0-1.9375-1.421875-2.984375-4.125-2.984375-2.65625 0-4.28125 1.015625-4.390625 3.546875h1.75c.15625-1.328125.953125-1.9375 2.578125-1.9375 1.5625 0 2.4375.578125 2.4375 1.625v.46875c0 .71875-.4375 1.046875-1.8125 1.203125-2.46875.3125-2.84375.40625-3.515625.671875-1.265625.53125-1.921875 1.5-1.921875 2.84375 0 1.984375 1.390625 3.15625 3.59375 3.15625 1.40625 0 2.765625-.578125 3.71875-1.609375.203125.84375.953125 1.4375 1.8125 1.4375.34375 0 .625-.03125 1.1875-.1875zm-3.0625-3.734375c0 1.5625-1.578125 2.5625-3.28125 2.5625-1.359375 0-2.140625-.46875-2.140625-1.671875 0-1.140625.765625-1.640625 2.625-1.921875 1.84375-.25 2.21875-.328125 2.796875-.609375zm1.359375-11.453125h-2.359375l-2 3.09375h1.25zm0 0"/></symbol><symbol id="aa" overflow="visible"><path d="m5.3125 0v-1.46875c-.234375.0625-.5.09375-.84375.09375-.75 0-.953125-.21875-.953125-.984375v-7.171875h1.796875v-1.421875h-1.796875v-3.015625h-1.734375v3.015625h-1.484375v1.421875h1.484375v7.9375c0 1.109375.75 1.734375 2.109375 1.734375.421875 0 .828125-.03125 1.421875-.140625zm0 0"/></symbol><symbol id="ab" overflow="visible"><path d="m4.015625.328125v-2.5h-2.203125v2.171875h1.265625v.375c0 1.4375-.28125 1.859375-1.265625 1.90625v.796875c1.46875 0 2.203125-.953125 2.203125-2.75zm0 0"/></symbol><symbol id="ac" overflow="visible"><path d="m10.9375-5.609375c0-3.546875-1.796875-5.65625-4.6875-5.65625-1.5 0-2.578125.5625-3.390625 1.796875v-5.765625h-1.734375v15.234375h1.578125v-1.5625c.828125 1.265625 1.9375 1.875 3.46875 1.875 2.875 0 4.765625-2.359375 4.765625-5.921875zm-1.828125.109375c0 2.484375-1.296875 4.1875-3.1875 4.1875-1.84375 0-3.0625-1.671875-3.0625-4.171875 0-2.5625 1.21875-4.234375 3.0625-4.15625 1.9375 0 3.1875 1.703125 3.1875 4.140625zm0 0"/></symbol><symbol id="ad" overflow="visible"><path d="m10.71875-4.96875c0-1.59375-.125-2.59375-.4375-3.421875-.703125-1.796875-2.375-2.875-4.421875-2.875-3.0625 0-5.015625 2.25-5.015625 5.84375 0 3.609375 1.890625 5.734375 4.96875 5.734375 2.515625 0 4.25-1.421875 4.6875-3.640625h-1.765625c-.46875 1.453125-1.453125 2.03125-2.859375 2.03125-1.8125 0-3.171875-1.171875-3.21875-3.671875zm-1.859375-1.546875s0 .078125-.015625.125h-6.140625c.140625-1.953125 1.375-3.265625 3.125-3.265625 1.71875 0 3.03125 1.421875 3.03125 3.140625zm0 0"/></symbol><symbol id="ae" overflow="visible"><path d="m10.1875 0v-8.28125c0-1.8125-1.359375-2.984375-3.484375-2.984375-1.625 0-2.671875.625-3.625 2.15625v-1.84375h-1.609375v10.953125h1.734375v-6.046875c0-2.234375 1.203125-3.703125 2.984375-3.703125 1.375 0 2.265625.84375 2.265625 2.15625v7.59375zm0 0"/></symbol><symbol id="af" overflow="visible"><path d="m12.109375-13.53125v-1.703125h-10.234375v15.234375h1.953125v-6.9375h7.265625v-1.71875h-7.265625v-4.875zm0 0"/></symbol><symbol id="ag" overflow="visible"><path d="m3.203125 0v-10.953125h-1.734375v10.953125zm.21875-12.609375v-2.171875h-2.171875v2.171875zm0 0"/></symbol><symbol id="ah" overflow="visible"><path d="m10.9375-5.375c0-3.671875-1.796875-5.890625-4.703125-5.890625-1.484375 0-2.6875.671875-3.5 1.96875v-1.65625h-1.578125v15.515625h1.734375v-5.875c.921875 1.125 1.9375 1.625 3.359375 1.625 2.828125 0 4.6875-2.1875 4.6875-5.6875zm-1.828125-.046875c0 2.5-1.265625 4.109375-3.171875 4.109375-1.84375 0-3.046875-1.515625-3.046875-4.078125 0-2.578125 1.203125-4.25 3.046875-4.25 1.921875 0 3.171875 1.609375 3.171875 4.21875zm0 0"/></symbol><symbol id="ai" overflow="visible"><path d="m10.71875-4.96875c0-1.59375-.125-2.59375-.4375-3.421875-.703125-1.796875-2.375-2.875-4.421875-2.875-3.0625 0-5.015625 2.25-5.015625 5.84375 0 3.609375 1.890625 5.734375 4.96875 5.734375 2.515625 0 4.25-1.421875 4.6875-3.640625h-1.765625c-.46875 1.453125-1.453125 2.03125-2.859375 2.03125-1.8125 0-3.171875-1.171875-3.21875-3.671875zm-1.859375-1.546875s0 .078125-.015625.125h-6.140625c.140625-1.953125 1.375-3.265625 3.125-3.265625 1.71875 0 3.03125 1.421875 3.03125 3.140625zm.734375-8.71875h-2.359375l-2.015625 3.09375h1.265625zm0 0"/></symbol><symbol id="aj" overflow="visible"><path d="m9.59375-3.078125c0-1.625-.921875-2.4375-3.09375-2.96875l-1.671875-.390625c-1.421875-.34375-2.03125-.796875-2.03125-1.5625 0-1.015625.90625-1.65625 2.328125-1.65625 1.390625 0 2.15625.609375 2.1875 1.75h1.84375c-.015625-2.15625-1.4375-3.359375-3.96875-3.359375-2.546875 0-4.203125 1.3125-4.203125 3.34375 0 1.71875.875 2.53125 3.46875 3.15625l1.625.390625c1.21875.296875 1.703125.65625 1.703125 1.453125 0 1.015625-1.03125 1.625-2.5625 1.625-1.5625 0-2.4375-.375-2.671875-2.046875h-1.84375c.09375 2.53125 1.515625 3.65625 4.375 3.65625 2.765625 0 4.515625-1.28125 4.515625-3.390625zm0 0"/></symbol><symbol id="ak" overflow="visible"><path d="m9.546875 0v-1.53125h-6.78125l6.5-7.875v-1.546875h-8.171875v1.53125h6.09375l-6.546875 7.859375v1.5625zm0 0"/></symbol><symbol id="al" overflow="visible"><path d="m15.90625 0v-15.234375h-2.6875l-4.4375 13.265625-4.515625-13.265625h-2.703125v15.234375h1.84375v-12.78125l4.328125 12.78125h2.046875l4.28125-12.78125v12.78125zm0 0"/></symbol><symbol id="am" overflow="visible"><path d="m6.703125-9.421875v-1.78125c-.28125-.046875-.4375-.0625-.65625-.0625-1.140625 0-1.984375.671875-3 2.296875v-1.984375h-1.578125v10.953125h1.734375v-5.6875c0-2.46875.8125-3.703125 3.5-3.734375zm0 0"/></symbol><symbol id="an" overflow="visible"><path d="m13.75 0-6.265625-9.03125 6.203125-6.203125h-2.5l-7.59375 7.703125v-7.703125h-1.9375v15.234375h1.9375v-5.328125l2.484375-2.484375 5.375 7.8125zm0 0"/></symbol><symbol id="ao" overflow="visible"><path d="m11.1875-.046875v-1.3125c-.1875.046875-.28125.046875-.375.046875-.609375 0-.9375-.3125-.9375-.859375v-6.109375c0-1.9375-1.421875-2.984375-4.125-2.984375-2.65625 0-4.28125 1.015625-4.390625 3.546875h1.75c.15625-1.328125.953125-1.9375 2.578125-1.9375 1.5625 0 2.4375.578125 2.4375 1.625v.46875c0 .71875-.4375 1.046875-1.8125 1.203125-2.46875.3125-2.84375.40625-3.515625.671875-1.265625.53125-1.921875 1.5-1.921875 2.84375 0 1.984375 1.390625 3.15625 3.59375 3.15625 1.40625 0 2.765625-.578125 3.71875-1.609375.203125.84375.953125 1.4375 1.8125 1.4375.34375 0 .625-.03125 1.1875-.1875zm-3.0625-3.734375c0 1.5625-1.578125 2.5625-3.28125 2.5625-1.359375 0-2.140625-.46875-2.140625-1.671875 0-1.140625.765625-1.640625 2.625-1.921875 1.84375-.25 2.21875-.328125 2.796875-.609375zm0 0"/></symbol><symbol id="ap" overflow="visible"><path d="m9.96875-3.765625h-1.75c-.296875 1.765625-1.1875 2.46875-2.671875 2.46875-1.9375 0-3.078125-1.484375-3.078125-4.078125 0-2.734375 1.125-4.28125 3.03125-4.28125 1.46875 0 2.375.859375 2.59375 2.375h1.75c-.203125-2.671875-1.875-3.984375-4.328125-3.984375-2.9375 0-4.875 2.25-4.875 5.890625 0 3.53125 1.890625 5.6875 4.859375 5.6875 2.609375 0 4.265625-1.5625 4.46875-4.078125zm0 0"/></symbol><symbol id="aq" overflow="visible"><path d="m10.65625-5.390625c0-3.78125-1.8125-5.875-4.96875-5.875-3.078125 0-4.9375 2.109375-4.9375 5.78125 0 3.6875 1.84375 5.796875 4.953125 5.796875 3.078125 0 4.953125-2.109375 4.953125-5.703125zm-1.8125-.03125c0 2.578125-1.21875 4.125-3.140625 4.125-1.9375 0-3.125-1.53125-3.125-4.1875 0-2.625 1.1875-4.171875 3.125-4.171875 1.96875 0 3.140625 1.53125 3.140625 4.234375zm0 0"/></symbol><symbol id="ar" overflow="visible"><path d="m10-10.953125h-1.890625l-3.03125 8.53125-2.796875-8.53125h-1.859375l3.703125 11-.671875 1.734375c-.296875.765625-.65625 1.0625-1.40625 1.0625-.25 0-.546875-.046875-.921875-.125v1.5625c.359375.1875.71875.28125 1.171875.28125 1.234375 0 2.234375-.6875 2.828125-2.265625zm0 0"/></symbol><symbol id="as" overflow="visible"><path d="m10.65625-5.390625c0-3.78125-1.8125-5.875-4.96875-5.875-3.078125 0-4.9375 2.109375-4.9375 5.78125 0 3.6875 1.84375 5.796875 4.953125 5.796875 3.078125 0 4.953125-2.109375 4.953125-5.703125zm-1.8125-.03125c0 2.578125-1.21875 4.125-3.140625 4.125-1.9375 0-3.125-1.53125-3.125-4.1875 0-2.625 1.1875-4.171875 3.125-4.171875 1.96875 0 3.140625 1.53125 3.140625 4.234375zm-1.21875-9.84375h-2.359375l-2 3.140625h1.25zm3.4375 0h-2.359375l-2.015625 3.140625h1.25zm0 0"/></symbol><symbol id="at" overflow="visible"><path d="m10.078125 0v-10.953125h-1.734375v6.046875c0 2.234375-1.171875 3.6875-2.984375 3.6875-1.390625 0-2.265625-.828125-2.265625-2.140625v-7.59375h-1.734375v8.28125c0 1.8125 1.359375 2.984375 3.484375 2.984375 1.609375 0 2.640625-.5625 3.671875-2v1.6875zm-5.015625-12.625v-2.140625h-1.90625v2.140625zm3.390625 0v-2.140625h-1.90625v2.140625zm0 0"/></symbol><symbol id="au" overflow="visible"><path d="m4.03125 0v-15.234375h-1.9375v15.234375zm0 0"/></symbol><symbol id="av" overflow="visible"><path d="m4 0v-2.171875h-2.1875v2.171875zm0-8.78125v-2.171875h-2.1875v2.171875zm0 0"/></symbol><symbol id="aw" overflow="visible"><path d="m10.15625-10.953125h-1.96875l-3.09375 8.890625-2.921875-8.890625h-1.96875l3.859375 10.953125h1.890625zm0 0"/></symbol><symbol id="ax" overflow="visible"><path d="m10.5 0-4.484375-7.171875 3.8125-3.78125h-2.234375l-4.640625 4.640625v-8.921875h-1.734375v15.234375h1.734375v-4.265625l1.6875-1.671875 3.703125 5.9375zm0 0"/></symbol><symbol id="ay" overflow="visible"><path d="m3.78125 0v-10.953125h-1.734375v10.953125zm2.65625-15.234375h-2.359375l-2.015625 3.09375h1.265625zm0 0"/></symbol><symbol id="az" overflow="visible"><path d="m13.65625 0-5.359375-15.234375h-2.5l-5.4375 15.234375h2.0625l1.609375-4.578125h5.875l1.578125 4.578125zm-4.296875-6.203125h-4.84375l2.515625-6.953125zm0 0"/></symbol><symbol id="aA" overflow="visible"><path d="m10.34375 0v-15.234375h-1.734375v5.65625c-.734375-1.109375-1.90625-1.6875-3.359375-1.6875-2.84375 0-4.703125 2.1875-4.703125 5.6875 0 3.703125 1.8125 5.890625 4.765625 5.890625 1.5 0 2.546875-.5625 3.484375-1.921875v1.609375zm-1.734375-5.4375c0 2.53125-1.203125 4.125-3.046875 4.125-1.921875 0-3.203125-1.609375-3.203125-4.171875 0-2.546875 1.28125-4.15625 3.1875-4.15625 1.875 0 3.0625 1.671875 3.0625 4.203125zm0 0"/></symbol><symbol id="aB" overflow="visible"><path d="m15.515625-7.375c0-4.921875-2.90625-8.234375-7.390625-8.234375-4.359375 0-7.328125 3.34375-7.328125 8.109375s2.96875 7.875 7.359375 7.875c4.46875 0 7.359375-3.28125 7.359375-7.75zm-1.953125-.046875c0 3.671875-2.1875 6.078125-5.40625 6.078125-3.25 0-5.421875-2.40625-5.421875-6.15625 0-3.765625 2.171875-6.40625 5.390625-6.40625 3.3125 0 5.4375 2.640625 5.4375 6.484375zm-6.15625-9.28125v-2.140625h-1.90625v2.140625zm3.375 0v-2.140625h-1.890625v2.140625zm0 0"/></symbol><symbol id="aC" overflow="visible"><path d="m15.890625 0v-8.21875c0-1.96875-1.09375-3.046875-3.140625-3.046875-1.453125 0-2.34375.4375-3.359375 1.671875-.65625-1.171875-1.53125-1.671875-2.953125-1.671875-1.46875 0-2.421875.546875-3.359375 1.859375v-1.546875h-1.59375v10.953125h1.734375v-6.875c0-1.59375 1.15625-2.875 2.578125-2.875 1.296875 0 2.015625.796875 2.015625 2.203125v7.546875h1.734375v-6.875c0-1.59375 1.171875-2.875 2.59375-2.875 1.28125 0 2.015625.828125 2.015625 2.203125v7.546875zm0 0"/></symbol><symbol id="aD" overflow="visible"><path d="m10.21875-1.796875v-9.15625h-1.609375v1.59375c-.875-1.296875-1.9375-1.90625-3.34375-1.90625-2.78125 0-4.65625 2.34375-4.65625 5.890625 0 3.453125 1.9375 5.6875 4.515625 5.6875 1.375 0 2.34375-.578125 3.484375-1.96875v.734375c0 2.90625-1.1875 4.015625-3.21875 4.015625-1.375 0-2.4375-.5-2.65625-1.84375h-1.765625c.1875 2.078125 1.796875 3.3125 4.359375 3.3125 3.4375 0 4.890625-1.53125 4.890625-6.359375zm-1.765625-3.625c0 2.625-1.140625 4.125-2.96875 4.125-1.90625 0-3.0625-1.53125-3.0625-4.1875 0-2.625 1.171875-4.171875 3.03125-4.171875 1.890625 0 3 1.59375 3 4.234375zm0 0"/></symbol><symbol id="aE" overflow="visible"><path d="m10.078125 0v-10.953125h-1.734375v6.046875c0 2.234375-1.171875 3.6875-2.984375 3.6875-1.390625 0-2.265625-.828125-2.265625-2.140625v-7.59375h-1.734375v8.28125c0 1.8125 1.359375 2.984375 3.484375 2.984375 1.609375 0 2.640625-.5625 3.671875-2v1.6875zm-2.453125-15.265625h-2.359375l-2 3.140625h1.25zm3.4375 0h-2.359375l-2.015625 3.140625h1.25zm0 0"/></symbol><symbol id="aF" overflow="visible"><path d="m10.65625-5.390625c0-3.78125-1.8125-5.875-4.96875-5.875-3.078125 0-4.9375 2.109375-4.9375 5.78125 0 3.6875 1.84375 5.796875 4.953125 5.796875 3.078125 0 4.953125-2.109375 4.953125-5.703125zm-1.8125-.03125c0 2.578125-1.21875 4.125-3.140625 4.125-1.9375 0-3.125-1.53125-3.125-4.1875 0-2.625 1.1875-4.171875 3.125-4.171875 1.96875 0 3.140625 1.53125 3.140625 4.234375zm-3.78125-7.203125v-2.140625h-1.90625v2.140625zm3.390625 0v-2.140625h-1.90625v2.140625zm0 0"/></symbol><symbol id="aG" overflow="visible"><path d="m3.15625 0v-15.234375h-1.734375v15.234375zm0 0"/></symbol><symbol id="aH" overflow="visible"><path d="m10.65625-5.390625c0-3.78125-1.8125-5.875-4.96875-5.875-3.078125 0-4.9375 2.109375-4.9375 5.78125 0 3.6875 1.84375 5.796875 4.953125 5.796875 3.078125 0 4.953125-2.109375 4.953125-5.703125zm-1.8125-.03125c0 2.578125-1.21875 4.125-3.140625 4.125-1.9375 0-3.125-1.53125-3.125-4.1875 0-2.625 1.1875-4.171875 3.125-4.171875 1.96875 0 3.140625 1.53125 3.140625 4.234375zm.703125-9.8125h-2.359375l-2 3.09375h1.25zm0 0"/></symbol><symbol id="aI" overflow="visible"><path d="m12.8125 0v-1.71875h-8.984375v-5.21875h8.296875v-1.71875h-8.296875v-4.875h8.609375v-1.703125h-10.5625v15.234375zm-1.140625-19.15625h-2.84375l-2.40625 2.78125h1.5zm0 0"/></symbol><symbol id="aJ" overflow="visible"><path d="m13.5 0v-15.234375h-1.828125v12.453125l-7.96875-12.453125h-2.109375v15.234375h1.828125v-12.359375l7.890625 12.359375zm0 0"/></symbol><symbol id="aK" overflow="visible"><path d="m10.078125 0v-10.953125h-1.734375v6.046875c0 2.234375-1.171875 3.6875-2.984375 3.6875-1.390625 0-2.265625-.828125-2.265625-2.140625v-7.59375h-1.734375v8.28125c0 1.8125 1.359375 2.984375 3.484375 2.984375 1.609375 0 2.640625-.5625 3.671875-2v1.6875zm0 0"/></symbol><symbol id="aL" overflow="visible"><path d="m11.140625 0v-1.71875h-7.53125v-13.515625h-1.9375v15.234375zm0 0"/></symbol><symbol id="aM" overflow="visible"><path d="m3.78125-8.171875v-7.0625h-1.734375v7.0625l.46875 4.65625h.8125zm0 8.171875v-2.171875h-1.75v2.171875zm0 0"/></symbol><symbol id="aN" overflow="visible"><path d="m7.046875 0v-13.203125h-1.734375c-.421875 1.5625-1.78125 2.359375-4.046875 2.359375v1.734375h3.171875v9.109375zm0 0"/></symbol><symbol id="aO" overflow="visible"><path d="m3.984375 0v-2.71875h-2.796875v2.71875zm0 0"/></symbol><g clip-path="url(#a)"><path d="m5.143229 13240.791667h9911.002604" fill="none" stroke="#000" stroke-linecap="round" stroke-miterlimit="10" stroke-width="10.2889" transform="matrix(.06 0 0 -.06 0 851.76)"/></g><g clip-path="url(#b)"><path d="m5.143229 13381.872396h9911.002604" fill="none" stroke="#000" stroke-linecap="round" stroke-miterlimit="10" stroke-width="10.2889" transform="matrix(.06 0 0 -.06 0 851.76)"/></g><g clip-path="url(#c)"><path d="m5.143229 13523.083333h9911.002604" fill="none" stroke="#000" stroke-linecap="round" stroke-miterlimit="10" stroke-width="10.2889" transform="matrix(.06 0 0 -.06 0 851.76)"/></g><g clip-path="url(#d)"><path d="m5.143229 13664.229167h9911.002604" fill="none" stroke="#000" stroke-linecap="round" stroke-miterlimit="10" stroke-width="10.2889" transform="matrix(.06 0 0 -.06 0 851.76)"/></g><g clip-path="url(#e)"><path d="m5.143229 13805.309896h9911.002604" fill="none" stroke="#000" stroke-linecap="round" stroke-miterlimit="10" stroke-width="10.2889" transform="matrix(.06 0 0 -.06 0 851.76)"/></g><use x="528.609057" xlink:href="#S" y="40.374377"/><path d="m7823.046875 13412.992187h6.770833v459.570313h-6.770833zm0 0" style="fill:none;stroke-width:6.64757;stroke-linecap:round;stroke-linejoin:round;stroke:#000;stroke-miterlimit:10" transform="matrix(.06 0 0 -.06 0 851.76)"/><path d="m469.382812 46.980469h.402344v-27.574219h-.402344zm0 0"/><use x="452.891906" xlink:href="#Z" y="109.300515"/><use x="464.456925" xlink:href="#aa" y="109.300515"/><use x="470.239889" xlink:href="#ab" y="109.300515"/><use x="444.217908" xlink:href="#ac" y="85.589168"/><use x="455.782928" xlink:href="#ad" y="85.589168"/><use x="467.347948" xlink:href="#ae" y="85.589168"/><use x="478.913202" xlink:href="#ab" y="85.589168"/><use x="458.928938" xlink:href="#T" y="48.842794"/><path d="m6661.71875 13483.630208h6.705729v459.570313h-6.705729zm0 0" style="fill:none;stroke-width:6.64757;stroke-linecap:round;stroke-linejoin:round;stroke:#000;stroke-miterlimit:10" transform="matrix(.06 0 0 -.06 0 851.76)"/><path d="m399.699219 42.742188h.40625v-27.574219h-.40625zm0 0"/><use x="386.102772" xlink:href="#af" y="109.300515"/><use x="398.858424" xlink:href="#ag" y="109.300515"/><use x="383.211516" xlink:href="#ah" y="85.589168"/><use x="394.776771" xlink:href="#ai" y="85.589168"/><use x="389.247858" xlink:href="#T" y="44.608886"/><path d="m5608.919271 13412.992187h6.705729v388.802084h-6.705729zm0 0" style="fill:none;stroke-width:6.64757;stroke-linecap:round;stroke-linejoin:round;stroke:#000;stroke-miterlimit:10" transform="matrix(.06 0 0 -.06 0 851.76)"/><path d="m336.535156 46.980469h.402344v-23.328125h-.402344zm0 0"/><use x="306.777614" xlink:href="#aj" y="109.300515"/><use x="317.152005" xlink:href="#ak" y="109.300515"/><use x="327.526631" xlink:href="#ad" y="109.300515"/><use x="339.091651" xlink:href="#ae" y="109.300515"/><use x="350.65667" xlink:href="#aa" y="109.300515"/><use x="320.04394" xlink:href="#ae" y="85.589168"/><use x="331.60896" xlink:href="#ad" y="85.589168"/><use x="326.080042" xlink:href="#T" y="48.842794"/><path d="m1756.770833 12865.270833h84.895834v5.208334h-84.895834zm0 0" style="fill:none;stroke-width:8.24242;stroke-linecap:round;stroke-linejoin:round;stroke:#000;stroke-miterlimit:10" transform="matrix(.06 0 0 -.06 0 851.76)"/><path d="m105.40625 79.84375h5.09375v-.3125h-5.09375zm0 0"/><path d="m7093.75 12470.21875h84.895833v5.143229h-84.895833zm0 0" style="fill:none;stroke-width:8.24242;stroke-linecap:round;stroke-linejoin:round;stroke:#000;stroke-miterlimit:10" transform="matrix(.06 0 0 -.06 0 851.76)"/><path d="m425.625 103.546875h5.09375v-.308594h-5.09375zm0 0"/><path d="m2415.299479 13694.828125v-61.197917l1094.791667 141.145834v61.132812zm0 0" fill="none" stroke="#000" stroke-linejoin="round" stroke-miterlimit="10" stroke-width="6.64757" transform="matrix(.06 0 0 -.06 0 851.76)"/><path d="m144.917969 30.070312v3.671876l65.6875-8.46875v-3.667969zm0 0"/><path d="m2686.653646 12865.270833h84.895833v5.208334h-84.895833zm0 0" fill="none" stroke="#000" stroke-linejoin="round" stroke-miterlimit="10" stroke-width="8.24242" transform="matrix(.06 0 0 -.06 0 851.76)"/><path d="m161.199219 79.84375h5.09375v-.3125h-5.09375zm0 0"/><path d="m2783.072917 12470.21875h84.895833v5.143229h-84.895833zm0 0" fill="none" stroke="#000" stroke-linejoin="round" stroke-miterlimit="10" stroke-width="8.24242" transform="matrix(.06 0 0 -.06 0 851.76)"/><path d="m166.980469 103.546875h5.097656v-.308594h-5.097656zm0 0"/><path d="m4556.119792 13807.197917v-61.067709l1059.570312 28.645834v61.132812zm0 0" fill="none" stroke="#000" stroke-linejoin="round" stroke-miterlimit="10" stroke-width="6.64757" transform="matrix(.06 0 0 -.06 0 851.76)"/><path d="m273.367188 23.328125v3.664063l63.574218-1.71875v-3.667969zm0 0"/><path d="m4957.942708 12865.270833h84.960938v5.208334h-84.960938zm0 0" fill="none" stroke="#000" stroke-linejoin="round" stroke-miterlimit="10" stroke-width="8.24242" transform="matrix(.06 0 0 -.06 0 851.76)"/><path d="m297.476562 79.84375h5.097657v-.3125h-5.097657zm0 0"/><path d="m6010.742187 12865.270833h84.895834v5.208334h-84.895834zm0 0" fill="none" stroke="#000" stroke-linejoin="round" stroke-miterlimit="10" stroke-width="8.24242" transform="matrix(.06 0 0 -.06 0 851.76)"/><path d="m360.644531 79.84375h5.09375v-.3125h-5.09375zm0 0"/><path d="m7045.507812 12865.270833h84.960938v5.208334h-84.960938zm0 0" fill="none" stroke="#000" stroke-linejoin="round" stroke-miterlimit="10" stroke-width="8.24242" transform="matrix(.06 0 0 -.06 0 851.76)"/><path d="m422.730469 79.84375h5.097656v-.3125h-5.097656zm0 0"/><path d="m1289.192708 13412.992187h6.770834v459.570313h-6.770834zm0 0" fill="none" stroke="#000" stroke-linejoin="round" stroke-miterlimit="10" stroke-width="6.64757" transform="matrix(.06 0 0 -.06 0 851.76)"/><path d="m77.351562 46.980469h.40625v-27.574219h-.40625zm0 0"/><use x="51.253203" xlink:href="#al" y="109.300515"/><use x="68.601425" xlink:href="#ad" y="109.300515"/><use x="80.166437" xlink:href="#am" y="109.300515"/><use x="87.819964" xlink:href="#aa" y="109.300515"/><use x="27.307555" xlink:href="#aN" y="85.589468"/><use x="37.682159" xlink:href="#aO" y="85.589468"/><use x="59.75712" xlink:href="#an" y="85.589468"/><use x="73.533229" xlink:href="#ao" y="85.589468"/><use x="36.413573" xlink:href="#U" y="23.438443"/><use x="6.774714" xlink:href="#V" y="48.843094"/><use x="66.899231" xlink:href="#T" y="48.843094"/><use x="178.319057" xlink:href="#ap" y="85.589468"/><use x="188.693448" xlink:href="#aj" y="85.589468"/><use x="199.068074" xlink:href="#aq" y="85.589468"/><use x="210.633094" xlink:href="#ae" y="85.589468"/><use x="221.858504" xlink:href="#ar" y="85.589468"/><path d="m4556.119792 13342.419271h6.770833v430.989583h-6.770833zm0 0" fill="none" stroke="#000" stroke-linejoin="round" stroke-miterlimit="10" stroke-width="6.64757" transform="matrix(.06 0 0 -.06 0 851.76)"/><path d="m273.367188 51.214844h.40625v-25.859375h-.40625zm0 0"/><use x="262.660525" xlink:href="#as" y="109.300515"/><use x="256.878244" xlink:href="#at" y="85.589168"/><use x="268.443498" xlink:href="#ae" y="85.589168"/><use x="262.914586" xlink:href="#T" y="53.077103"/><path d="m3503.320312 13412.992187h6.770834v388.151042h-6.770834zm0 0" fill="none" stroke="#000" stroke-linejoin="round" stroke-miterlimit="10" stroke-width="6.64757" transform="matrix(.06 0 0 -.06 0 851.76)"/><path d="m210.199219 46.980469h.40625v-23.289063h-.40625zm0 0"/><use x="190.988382" xlink:href="#aa" y="109.300515"/><use x="196.431048" xlink:href="#ad" y="109.300515"/><use x="207.996068" xlink:href="#ae" y="109.300515"/><use x="199.746289" xlink:href="#T" y="48.842894"/><use x="134.462859" xlink:href="#T" y="61.54532"/><use x="130.807072" xlink:href="#am" y="85.589168"/><use x="137.610512" xlink:href="#Z" y="85.589168"/><use x="131.913094" xlink:href="#au" y="109.300515"/><use x="137.696072" xlink:href="#aj" y="109.300515"/><path d="m2415.299479 13201.273437h6.705729v460.481771h-6.705729zm0 0" fill="none" stroke="#000" stroke-linejoin="round" stroke-miterlimit="10" stroke-width="6.64757" transform="matrix(.06 0 0 -.06 0 851.76)"/><path d="m144.917969 59.683594h.402343v-27.628906h-.402343zm0 0"/><g clip-path="url(#f)"><path d="m5.143229 11456.872396h9911.002604" style="fill:none;stroke-width:10.2889;stroke-linecap:round;stroke-linejoin:round;stroke:#000;stroke-miterlimit:10" transform="matrix(.06 0 0 -.06 0 851.76)"/></g><g clip-path="url(#g)"><path d="m5.143229 11598.018229h9911.002604" style="fill:none;stroke-width:10.2889;stroke-linecap:round;stroke-linejoin:round;stroke:#000;stroke-miterlimit:10" transform="matrix(.06 0 0 -.06 0 851.76)"/></g><g clip-path="url(#h)"><path d="m5.143229 11739.229167h9911.002604" style="fill:none;stroke-width:10.2889;stroke-linecap:round;stroke-linejoin:round;stroke:#000;stroke-miterlimit:10" transform="matrix(.06 0 0 -.06 0 851.76)"/></g><g clip-path="url(#i)"><path d="m5.143229 11880.309896h9911.002604" style="fill:none;stroke-width:10.2889;stroke-linecap:round;stroke-linejoin:round;stroke:#000;stroke-miterlimit:10" transform="matrix(.06 0 0 -.06 0 851.76)"/></g><g clip-path="url(#j)"><path d="m5.143229 12021.520833h9911.002604" style="fill:none;stroke-width:10.2889;stroke-linecap:round;stroke-linejoin:round;stroke:#000;stroke-miterlimit:10" transform="matrix(.06 0 0 -.06 0 851.76)"/></g><use x="386.685773" xlink:href="#af" y="218.826734"/><use x="399.44166" xlink:href="#ag" y="218.826734"/><use x="528.760058" xlink:href="#S" y="147.407791"/><path d="m7828.059896 11699.710937h6.770833v459.570313h-6.770833zm0 0" style="fill:none;stroke-width:6.64757;stroke-linecap:round;stroke-linejoin:round;stroke:#000;stroke-miterlimit:10" transform="matrix(.06 0 0 -.06 0 851.76)"/><path d="m469.683594 149.777344h.40625v-27.574219h-.40625zm0 0"/><use x="456.084912" xlink:href="#Z" y="218.826734"/><use x="467.649932" xlink:href="#aa" y="218.826734"/><use x="447.410915" xlink:href="#ac" y="195.115387"/><use x="458.975935" xlink:href="#ad" y="195.115387"/><use x="470.541189" xlink:href="#ae" y="195.115387"/><use x="459.230038" xlink:href="#T" y="151.642"/><path d="m6500.455729 11271.976562h6.770833v436.067709h-6.770833zm0 0" style="fill:none;stroke-width:6.64757;stroke-linecap:round;stroke-linejoin:round;stroke:#000;stroke-miterlimit:10" transform="matrix(.06 0 0 -.06 0 851.76)"/><path d="m390.027344 175.441406h.40625v-26.164062h-.40625zm0 0"/><path d="m1759.049479 11039.880208h84.895833v5.143229h-84.895833zm0 0" style="fill:none;stroke-width:8.24242;stroke-linecap:round;stroke-linejoin:round;stroke:#000;stroke-miterlimit:10" transform="matrix(.06 0 0 -.06 0 851.76)"/><path d="m105.542969 189.367188h5.09375v-.308594h-5.09375zm0 0"/><use x="383.793768" xlink:href="#ah" y="195.115687"/><use x="395.358787" xlink:href="#ai" y="195.115687"/><use x="389.82987" xlink:href="#T" y="147.408091"/><path d="m5449.934896 11431.677083h6.770833v347.005209h-6.770833zm0 0" style="fill:none;stroke-width:6.64757;stroke-linecap:round;stroke-linejoin:round;stroke:#000;stroke-miterlimit:10" transform="matrix(.06 0 0 -.06 0 851.76)"/><path d="m326.996094 165.859375h.40625v-20.820313h-.40625zm0 0"/><use x="307.494615" xlink:href="#aj" y="218.826734"/><use x="317.869007" xlink:href="#ak" y="218.826734"/><use x="328.243398" xlink:href="#ad" y="218.826734"/><use x="339.808652" xlink:href="#ae" y="218.826734"/><use x="351.373672" xlink:href="#aa" y="218.826734"/><use x="320.760942" xlink:href="#ae" y="195.115387"/><use x="332.325961" xlink:href="#ad" y="195.115387"/><use x="326.797044" xlink:href="#T" y="143.173783"/><path d="m7125.195312 10644.697917h84.895834v5.143229h-84.895834zm0 0" style="fill:none;stroke-width:8.24242;stroke-linecap:round;stroke-linejoin:round;stroke:#000;stroke-miterlimit:10" transform="matrix(.06 0 0 -.06 0 851.76)"/><path d="m427.511719 213.078125h5.09375v-.308594h-5.09375zm0 0"/><path d="m2263.020833 11346.325521v-61.132813l1092.578125 141.080729v61.197917zm0 0" fill="none" stroke="#000" stroke-linejoin="round" stroke-miterlimit="10" stroke-width="6.64757" transform="matrix(.06 0 0 -.06 0 851.76)"/><path d="m135.78125 170.980469v3.667969l65.554688-8.464844v-3.671875zm0 0"/><path d="m2704.166667 11039.880208h84.960937v5.143229h-84.960937zm0 0" fill="none" stroke="#000" stroke-linejoin="round" stroke-miterlimit="10" stroke-width="8.24242" transform="matrix(.06 0 0 -.06 0 851.76)"/><path d="m162.25 189.367188h5.097656v-.308594h-5.097656zm0 0"/><path d="m2800.585937 10644.697917h84.895834v5.143229h-84.895834zm0 0" fill="none" stroke="#000" stroke-linejoin="round" stroke-miterlimit="10" stroke-width="8.24242" transform="matrix(.06 0 0 -.06 0 851.76)"/><path d="m168.035156 213.078125h5.09375v-.308594h-5.09375zm0 0"/><path d="m4399.348958 11487.471354v-61.197917l1057.291667-28.645833v61.067708zm0 0" fill="none" stroke="#000" stroke-linejoin="round" stroke-miterlimit="10" stroke-width="6.64757" transform="matrix(.06 0 0 -.06 0 851.76)"/><path d="m263.960938 162.511719v3.671875l63.4375 1.71875v-3.664063zm0 0"/><path d="m4971.028646 11039.880208h84.895833v5.143229h-84.895833zm0 0" fill="none" stroke="#000" stroke-linejoin="round" stroke-miterlimit="10" stroke-width="8.24242" transform="matrix(.06 0 0 -.06 0 851.76)"/><path d="m298.261719 189.367188h5.09375v-.308594h-5.09375zm0 0"/><path d="m6021.549479 11039.880208h84.960938v5.143229h-84.960938zm0 0" fill="none" stroke="#000" stroke-linejoin="round" stroke-miterlimit="10" stroke-width="8.24242" transform="matrix(.06 0 0 -.06 0 851.76)"/><path d="m361.292969 189.367188h5.09375v-.308594h-5.09375zm0 0"/><path d="m7077.018229 11039.880208h84.895833v5.143229h-84.895833zm0 0" fill="none" stroke="#000" stroke-linejoin="round" stroke-miterlimit="10" stroke-width="8.24242" transform="matrix(.06 0 0 -.06 0 851.76)"/><path d="m424.621094 189.367188h5.09375v-.308594h-5.09375zm0 0"/><use x="6.774624" xlink:href="#V" y="155.875608"/><path d="m1104.166667 11271.976562h6.770833v436.067709h-6.770833zm0 0" fill="none" stroke="#000" stroke-linejoin="round" stroke-miterlimit="10" stroke-width="6.64757" transform="matrix(.06 0 0 -.06 0 851.76)"/><path d="m66.25 175.441406h.40625v-26.164062h-.40625zm0 0"/><use x="50.406401" xlink:href="#al" y="218.826734"/><use x="67.754623" xlink:href="#ad" y="218.826734"/><use x="79.319636" xlink:href="#am" y="218.826734"/><use x="86.973163" xlink:href="#aa" y="218.826734"/><use x="58.910248" xlink:href="#an" y="195.115387"/><use x="72.686357" xlink:href="#ao" y="195.115387"/><use x="66.052372" xlink:href="#T" y="147.407791"/><use x="36.413513" xlink:href="#U" y="130.471357"/><use x="200.731841" xlink:href="#T" y="138.939574"/><path d="m4399.348958 11459.997396h6.770834v389.192708h-6.770834zm0 0" fill="none" stroke="#000" stroke-linejoin="round" stroke-miterlimit="10" stroke-width="6.64757" transform="matrix(.06 0 0 -.06 0 851.76)"/><path d="m263.960938 164.160156h.40625v-23.351562h-.40625zm0 0"/><use x="263.511527" xlink:href="#as" y="218.826734"/><use x="257.728545" xlink:href="#at" y="195.115387"/><use x="269.293565" xlink:href="#ae" y="195.115387"/><use x="263.764648" xlink:href="#T" y="138.939574"/><path d="m3348.828125 11459.411458h6.770833v389.84375h-6.770833zm0 0" fill="none" stroke="#000" stroke-linejoin="round" stroke-miterlimit="10" stroke-width="6.64757" transform="matrix(.06 0 0 -.06 0 851.76)"/><path d="m200.929688 164.195312h.40625v-23.390624h-.40625zm0 0"/><use x="191.974384" xlink:href="#aa" y="218.826734"/><use x="197.416816" xlink:href="#ad" y="218.826734"/><use x="208.981836" xlink:href="#ae" y="218.826734"/><use x="179.304059" xlink:href="#ap" y="195.115387"/><use x="189.67845" xlink:href="#aj" y="195.115387"/><use x="200.053076" xlink:href="#aq" y="195.115387"/><use x="211.618096" xlink:href="#ae" y="195.115387"/><use x="222.843506" xlink:href="#ar" y="195.115387"/><path d="m2263.020833 11319.893229h6.705729v317.578125h-6.705729zm0 0" fill="none" stroke="#000" stroke-linejoin="round" stroke-miterlimit="10" stroke-width="6.64757" transform="matrix(.06 0 0 -.06 0 851.76)"/><path d="m135.78125 172.566406h.402344v-19.054687h-.402344zm0 0"/><use x="135.582271" xlink:href="#T" y="151.6416"/><use x="131.927424" xlink:href="#am" y="195.114987"/><use x="138.730629" xlink:href="#Z" y="195.114987"/><use x="133.032506" xlink:href="#au" y="218.826334"/><use x="138.815485" xlink:href="#aj" y="218.826334"/><g clip-path="url(#k)"><path d="m5.143229 9631.481771h9911.002604" style="fill:none;stroke-width:10.2889;stroke-linecap:round;stroke-linejoin:round;stroke:#000;stroke-miterlimit:10" transform="matrix(.06 0 0 -.06 0 851.76)"/></g><g clip-path="url(#l)"><path d="m5.143229 9772.627604h9911.002604" style="fill:none;stroke-width:10.2889;stroke-linecap:round;stroke-linejoin:round;stroke:#000;stroke-miterlimit:10" transform="matrix(.06 0 0 -.06 0 851.76)"/></g><g clip-path="url(#m)"><path d="m5.143229 9913.773438h9911.002604" style="fill:none;stroke-width:10.2889;stroke-linecap:round;stroke-linejoin:round;stroke:#000;stroke-miterlimit:10" transform="matrix(.06 0 0 -.06 0 851.76)"/></g><g clip-path="url(#n)"><path d="m5.143229 10054.919271h9911.002604" style="fill:none;stroke-width:10.2889;stroke-linecap:round;stroke-linejoin:round;stroke:#000;stroke-miterlimit:10" transform="matrix(.06 0 0 -.06 0 851.76)"/></g><g clip-path="url(#o)"><path d="m5.143229 10196h9911.002604" style="fill:none;stroke-width:10.2889;stroke-linecap:round;stroke-linejoin:round;stroke:#000;stroke-miterlimit:10" transform="matrix(.06 0 0 -.06 0 851.76)"/></g><use x="582.823166" xlink:href="#W" y="252.699802"/><use x="582.823166" xlink:href="#W" y="261.168019"/><g clip-path="url(#p)"><path d="m9890.364583 9631.481771v564.518229" fill="none" stroke="#000" stroke-linejoin="round" stroke-miterlimit="10" stroke-width="61.7617" transform="matrix(.06 0 0 -.06 0 851.76)"/></g><path d="m9818.815104 9631.481771v564.518229" fill="none" stroke="#000" stroke-linejoin="round" stroke-miterlimit="10" stroke-width="19.5616" transform="matrix(.06 0 0 -.06 0 851.76)"/><path d="m8484.375 9813.838542h6.770833v449.414062h-6.770833zm0 0" fill="none" stroke="#000" stroke-linejoin="round" stroke-miterlimit="10" stroke-width="6.64757" transform="matrix(.06 0 0 -.06 0 851.76)"/><path d="m509.0625 262.929688h.40625v-26.964844h-.40625zm0 0"/><path d="m4874.023437 9733.109375h6.70573v431.054687h-6.70573zm0 0" fill="none" stroke="#000" stroke-linejoin="round" stroke-miterlimit="10" stroke-width="6.64757" transform="matrix(.06 0 0 -.06 0 851.76)"/><path d="m292.441406 267.773438h.402344v-25.863282h-.402344zm0 0"/><use x="498.048996" xlink:href="#ac" y="331.94996"/><use x="509.613987" xlink:href="#ad" y="331.94996"/><use x="521.178977" xlink:href="#ae" y="331.94996"/><use x="532.744202" xlink:href="#ab" y="331.94996"/><use x="483.618967" xlink:href="#ac" y="308.238913"/><use x="495.183958" xlink:href="#ad" y="308.238913"/><use x="506.749183" xlink:href="#ae" y="308.238913"/><use x="518.314173" xlink:href="#av" y="308.238913"/><use x="498.048996" xlink:href="#X" y="265.402127"/><path d="m7193.359375 9874.255208h6.770833v459.570313h-6.770833zm0 0" fill="none" stroke="#000" stroke-linejoin="round" stroke-miterlimit="10" stroke-width="6.64757" transform="matrix(.06 0 0 -.06 0 851.76)"/><path d="m431.601562 259.304688h.40625v-27.574219h-.40625zm0 0"/><use x="410.09682" xlink:href="#aa" y="331.94996"/><use x="415.539238" xlink:href="#ad" y="331.94996"/><use x="427.104257" xlink:href="#aj" y="331.94996"/><use x="437.478883" xlink:href="#aa" y="331.94996"/><use x="404.739699" xlink:href="#aw" y="308.238913"/><use x="415.114091" xlink:href="#at" y="308.238913"/><use x="426.679111" xlink:href="#ae" y="308.238913"/><use x="438.244365" xlink:href="#ax" y="308.238913"/><use x="421.151132" xlink:href="#T" y="261.167919"/><path d="m6033.723958 9803.682292h6.705729v388.867187h-6.705729zm0 0" fill="none" stroke="#000" stroke-linejoin="round" stroke-miterlimit="10" stroke-width="6.64757" transform="matrix(.06 0 0 -.06 0 851.76)"/><path d="m362.019531 263.539062h.40625v-23.332031h-.40625zm0 0"/><use x="335.24267" xlink:href="#ax" y="331.94996"/><use x="345.447609" xlink:href="#at" y="331.94996"/><use x="357.012863" xlink:href="#ae" y="331.94996"/><use x="368.577883" xlink:href="#ax" y="331.94996"/><use x="343.831128" xlink:href="#aj" y="308.238913"/><use x="354.205519" xlink:href="#ak" y="308.238913"/><use x="364.579911" xlink:href="#ay" y="308.238913"/><use x="351.568563" xlink:href="#T" y="265.402127"/><path d="m1749.21875 9154.528646h84.895833v5.143229h-84.895833zm0 0" fill="none" stroke="#000" stroke-linejoin="round" stroke-miterlimit="10" stroke-width="8.24242" transform="matrix(.06 0 0 -.06 0 851.76)"/><path d="m104.953125 302.488281h5.09375v-.308593h-5.09375zm0 0"/><path d="m7801.757812 8759.346354h84.960938v5.143229h-84.960938zm0 0" fill="none" stroke="#000" stroke-linejoin="round" stroke-miterlimit="10" stroke-width="8.24242" transform="matrix(.06 0 0 -.06 0 851.76)"/><path d="m468.105469 326.199219h5.097656v-.308594h-5.097656zm0 0"/><path d="m1823.632812 8759.346354h84.895834v5.143229h-84.895834zm0 0" fill="none" stroke="#000" stroke-linejoin="round" stroke-miterlimit="10" stroke-width="8.24242" transform="matrix(.06 0 0 -.06 0 851.76)"/><path d="m109.417969 326.199219h5.09375v-.308594h-5.09375zm0 0"/><path d="m2554.622396 10255.309896v-61.132813l1166.40625-28.645833v61.067708zm0 0" fill="none" stroke="#000" stroke-linejoin="round" stroke-miterlimit="10" stroke-width="6.64757" transform="matrix(.06 0 0 -.06 0 851.76)"/><path d="m153.277344 236.441406v3.667969l69.984375 1.71875v-3.664063zm0 0"/><path d="m3051.692708 9154.528646h84.895834v5.143229h-84.895834zm0 0" fill="none" stroke="#000" stroke-linejoin="round" stroke-miterlimit="10" stroke-width="8.24242" transform="matrix(.06 0 0 -.06 0 851.76)"/><path d="m183.101562 302.488281h5.09375v-.308593h-5.09375zm0 0"/><path d="m4083.138021 9154.528646h84.895833v5.143229h-84.895833zm0 0" fill="none" stroke="#000" stroke-linejoin="round" stroke-miterlimit="10" stroke-width="8.24242" transform="matrix(.06 0 0 -.06 0 851.76)"/><path d="m244.988281 302.488281h5.09375v-.308593h-5.09375zm0 0"/><path d="m4874.023437 10197.822917v-61.132813l1166.40625 28.841146v61.067708zm0 0" fill="none" stroke="#000" stroke-linejoin="round" stroke-miterlimit="10" stroke-width="6.64757" transform="matrix(.06 0 0 -.06 0 851.76)"/><path d="m292.441406 239.890625v3.667969l69.984375-1.730469v-3.664063zm0 0"/><path d="m5243.554687 8759.346354h84.895834v5.143229h-84.895834zm0 0" fill="none" stroke="#000" stroke-linejoin="round" stroke-miterlimit="10" stroke-width="8.24242" transform="matrix(.06 0 0 -.06 0 851.76)"/><path d="m314.613281 326.199219h5.09375v-.308594h-5.09375zm0 0"/><path d="m6416.731771 9154.528646h84.895833v5.143229h-84.895833zm0 0" fill="none" stroke="#000" stroke-linejoin="round" stroke-miterlimit="10" stroke-width="8.24242" transform="matrix(.06 0 0 -.06 0 851.76)"/><path d="m385.003906 302.488281h5.09375v-.308593h-5.09375zm0 0"/><path d="m7726.171875 9154.528646h84.895833v5.143229h-84.895833zm0 0" fill="none" stroke="#000" stroke-linejoin="round" stroke-miterlimit="10" stroke-width="8.24242" transform="matrix(.06 0 0 -.06 0 851.76)"/><path d="m463.570312 302.488281h5.09375v-.308593h-5.09375zm0 0"/><use x="275.949552" xlink:href="#ae" y="331.94996"/><use x="287.514806" xlink:href="#ai" y="331.94996"/><use x="58.910118" xlink:href="#az" y="331.94996"/><use x="72.686227" xlink:href="#aA" y="331.94996"/><use x="59.93059" xlink:href="#aB" y="308.238913"/><use x="76.258109" xlink:href="#am" y="308.238913"/><use x="66.052242" xlink:href="#T" y="256.93391"/><use x="36.413383" xlink:href="#U" y="239.997276"/><use x="6.774524" xlink:href="#V" y="265.402127"/><path d="m1104.166667 9446.585938h6.770833v436.067708h-6.770833zm0 0" fill="none" stroke="#000" stroke-linejoin="round" stroke-miterlimit="10" stroke-width="6.64757" transform="matrix(.06 0 0 -.06 0 851.76)"/><path d="m66.25 284.964844h.40625v-26.164063h-.40625zm0 0"/><use x="265.574531" xlink:href="#ak" y="308.238913"/><use x="275.948923" xlink:href="#at" y="308.238913"/><use x="287.514177" xlink:href="#ae" y="308.238913"/><use x="299.079197" xlink:href="#ax" y="308.238913"/><use x="281.985964" xlink:href="#T" y="269.636336"/><path d="m3714.257812 9803.682292h6.770834v389.192708h-6.770834zm0 0" fill="none" stroke="#000" stroke-linejoin="round" stroke-miterlimit="10" stroke-width="6.64757" transform="matrix(.06 0 0 -.06 0 851.76)"/><path d="m222.855469 263.539062h.40625v-23.351562h-.40625zm0 0"/><use x="197.693395" xlink:href="#aC" y="331.94996"/><use x="215.041383" xlink:href="#ad" y="331.94996"/><use x="226.606403" xlink:href="#aD" y="331.94996"/><use x="206.367393" xlink:href="#aA" y="308.238913"/><use x="217.932412" xlink:href="#ad" y="308.238913"/><use x="212.403495" xlink:href="#T" y="265.402127"/><use x="131.767834" xlink:href="#aw" y="308.238913"/><use x="141.802849" xlink:href="#ad" y="308.238913"/><use x="153.367869" xlink:href="#ae" y="308.238913"/><use x="142.821456" xlink:href="#T" y="261.167919"/><use x="139.676369" xlink:href="#aa" y="331.95006"/><use x="145.459348" xlink:href="#ao" y="331.95006"/><path d="m2554.622396 9874.255208h6.705729v347.005209h-6.705729zm0 0" fill="none" stroke="#000" stroke-linejoin="round" stroke-miterlimit="10" stroke-width="6.64757" transform="matrix(.06 0 0 -.06 0 851.76)"/><path d="m153.277344 259.304688h.402344v-20.820313h-.402344zm0 0"/><g clip-path="url(#q)"><path d="m5.143229 7850.361979h9911.002604" style="fill:none;stroke-width:10.2889;stroke-linecap:round;stroke-linejoin:round;stroke:#000;stroke-miterlimit:10" transform="matrix(.06 0 0 -.06 0 851.76)"/></g><g clip-path="url(#r)"><path d="m5.143229 7991.442708h9911.002604" style="fill:none;stroke-width:10.2889;stroke-linecap:round;stroke-linejoin:round;stroke:#000;stroke-miterlimit:10" transform="matrix(.06 0 0 -.06 0 851.76)"/></g><g clip-path="url(#s)"><path d="m5.143229 8132.588542h9911.002604" style="fill:none;stroke-width:10.2889;stroke-linecap:round;stroke-linejoin:round;stroke:#000;stroke-miterlimit:10" transform="matrix(.06 0 0 -.06 0 851.76)"/></g><g clip-path="url(#t)"><path d="m5.143229 8273.734375h9911.002604" style="fill:none;stroke-width:10.2889;stroke-linecap:round;stroke-linejoin:round;stroke:#000;stroke-miterlimit:10" transform="matrix(.06 0 0 -.06 0 851.76)"/></g><g clip-path="url(#u)"><path d="m5.143229 8414.880208h9911.002604" style="fill:none;stroke-width:10.2889;stroke-linecap:round;stroke-linejoin:round;stroke:#000;stroke-miterlimit:10" transform="matrix(.06 0 0 -.06 0 851.76)"/></g><use x="240.795482" xlink:href="#as" y="411.51112"/><path d="m6923.242187 7783.109375h6.770834v459.570313h-6.770834zm0 0" style="fill:none;stroke-width:6.64757;stroke-linecap:round;stroke-linejoin:round;stroke:#000;stroke-miterlimit:10" transform="matrix(.06 0 0 -.06 0 851.76)"/><path d="m415.394531 384.773438h.40625v-27.574219h-.40625zm0 0"/><use x="406.354813" xlink:href="#ah" y="411.51112"/><use x="417.919832" xlink:href="#ai" y="411.51112"/><use x="429.314929" xlink:href="#aa" y="411.51112"/><use x="415.19827" xlink:href="#T" y="355.334107"/><path d="m5397.526042 7783.109375h6.705729v459.570313h-6.705729zm0 0" style="fill:none;stroke-width:6.64757;stroke-linecap:round;stroke-linejoin:round;stroke:#000;stroke-miterlimit:10" transform="matrix(.06 0 0 -.06 0 851.76)"/><path d="m323.851562 384.773438h.402344v-27.574219h-.402344zm0 0"/><use x="317.614635" xlink:href="#ae" y="411.51112"/><use x="329.179655" xlink:href="#ai" y="411.51112"/><use x="323.651677" xlink:href="#T" y="355.334107"/><path d="m4020.768229 7741.117187h6.770833v430.989584h-6.770833zm0 0" style="fill:none;stroke-width:6.64757;stroke-linecap:round;stroke-linejoin:round;stroke:#000;stroke-miterlimit:10" transform="matrix(.06 0 0 -.06 0 851.76)"/><path d="m241.246094 387.292969h.40625v-25.859375h-.40625zm0 0"/><path d="m2644.075521 7739.75v-61.132813l1383.463541 28.776042v61.067708zm0 0" fill="none" stroke="#000" stroke-linejoin="round" stroke-miterlimit="10" stroke-width="6.64757" transform="matrix(.06 0 0 -.06 0 851.76)"/><path d="m158.644531 387.375v3.667969l83.007813-1.726563v-3.664062zm0 0"/><path d="m6183.398437 7433.304687h84.895834v5.14323h-84.895834zm0 0" fill="none" stroke="#000" stroke-linejoin="round" stroke-miterlimit="10" stroke-width="8.24242" transform="matrix(.06 0 0 -.06 0 851.76)"/><path d="m371.003906 405.761719h5.09375v-.308594h-5.09375zm0 0"/><use x="506.744013" xlink:href="#S" y="363.802024"/><use x="241.048482" xlink:href="#T" y="359.567796"/><use x="36.414073" xlink:href="#U" y="346.86537"/><use x="6.775214" xlink:href="#V" y="372.270221"/><use x="158.445517" xlink:href="#T" y="363.802004"/><path d="m2644.075521 7712.666667h6.770833v388.867187h-6.770833zm0 0" fill="none" stroke="#000" stroke-linejoin="round" stroke-miterlimit="10" stroke-width="6.64757" transform="matrix(.06 0 0 -.06 0 851.76)"/><path d="m158.644531 389h.40625v-23.332031h-.40625zm0 0"/><use x="153.004306" xlink:href="#ao" y="411.51112"/><use x="164.569326" xlink:href="#ak" y="411.51112"/><path d="m1118.294271 7665.466146h6.770833v436.067708h-6.770833zm0 0" fill="none" stroke="#000" stroke-linejoin="round" stroke-miterlimit="10" stroke-width="6.64757" transform="matrix(.06 0 0 -.06 0 851.76)"/><path d="m67.097656 391.832031h.40625v-26.164062h-.40625zm0 0"/><use x="63.158826" xlink:href="#an" y="411.51112"/><use x="77.105327" xlink:href="#ag" y="411.51112"/><use x="66.899224" xlink:href="#T" y="363.802624"/><g clip-path="url(#v)"><path d="m5.143229 6156.677083h9911.002604" style="fill:none;stroke-width:10.2889;stroke-linecap:round;stroke-linejoin:round;stroke:#000;stroke-miterlimit:10" transform="matrix(.06 0 0 -.06 0 851.76)"/></g><g clip-path="url(#w)"><path d="m5.143229 6297.822917h9911.002604" style="fill:none;stroke-width:10.2889;stroke-linecap:round;stroke-linejoin:round;stroke:#000;stroke-miterlimit:10" transform="matrix(.06 0 0 -.06 0 851.76)"/></g><g clip-path="url(#x)"><path d="m5.143229 6438.96875h9911.002604" style="fill:none;stroke-width:10.2889;stroke-linecap:round;stroke-linejoin:round;stroke:#000;stroke-miterlimit:10" transform="matrix(.06 0 0 -.06 0 851.76)"/></g><g clip-path="url(#y)"><path d="m5.143229 6580.114583h9911.002604" style="fill:none;stroke-width:10.2889;stroke-linecap:round;stroke-linejoin:round;stroke:#000;stroke-miterlimit:10" transform="matrix(.06 0 0 -.06 0 851.76)"/></g><g clip-path="url(#z)"><path d="m5.143229 6721.260417h9911.002604" style="fill:none;stroke-width:10.2889;stroke-linecap:round;stroke-linejoin:round;stroke:#000;stroke-miterlimit:10" transform="matrix(.06 0 0 -.06 0 851.76)"/></g><g clip-path="url(#A)"><path d="m9911.458333 6156.677083v564.583334" fill="none" stroke="#000" stroke-linejoin="round" stroke-miterlimit="10" stroke-width="19.5616" transform="matrix(.06 0 0 -.06 0 851.76)"/></g><use x="414.78083" xlink:href="#T" y="478.124253"/><use x="408.744727" xlink:href="#ac" y="512.249521"/><use x="420.309747" xlink:href="#aE" y="512.249521"/><path d="m7087.239583 6258.369792h6.770834v431.054687h-6.770834zm0 0" fill="none" stroke="#000" stroke-linejoin="round" stroke-miterlimit="10" stroke-width="6.64757" transform="matrix(.06 0 0 -.06 0 851.76)"/><path d="m425.234375 476.257812h.40625v-25.863281h-.40625zm0 0"/><use x="470.24894" xlink:href="#T" y="482.358261"/><use x="459.025118" xlink:href="#ae" y="512.249621"/><use x="470.590138" xlink:href="#aF" y="512.249621"/><use x="482.155157" xlink:href="#ax" y="512.249621"/><path d="m8011.71875 6187.796875h6.705729v459.570312h-6.705729zm0 0" fill="none" stroke="#000" stroke-linejoin="round" stroke-miterlimit="10" stroke-width="6.64757" transform="matrix(.06 0 0 -.06 0 851.76)"/><path d="m480.703125 480.492188h.402344v-27.574219h-.402344zm0 0"/><use x="299.027598" xlink:href="#T" y="465.421227"/><path d="m6162.760417 6328.942708h6.770833v388.802084h-6.770833zm0 0" fill="none" stroke="#000" stroke-linejoin="round" stroke-miterlimit="10" stroke-width="6.64757" transform="matrix(.06 0 0 -.06 0 851.76)"/><path d="m369.765625 472.027344h.40625v-23.332032h-.40625zm0 0"/><use x="359.059718" xlink:href="#ao" y="512.249321"/><use x="359.313782" xlink:href="#T" y="473.889744"/><path d="m4987.109375 5971.846354h6.770833v436.002604h-6.770833zm0 0" fill="none" stroke="#000" stroke-linejoin="round" stroke-miterlimit="10" stroke-width="6.64757" transform="matrix(.06 0 0 -.06 0 851.76)"/><path d="m299.226562 493.449219h.402344v-26.160157h-.402344zm0 0"/><use x="295.882592" xlink:href="#aa" y="512.249321"/><use x="301.665321" xlink:href="#Z" y="512.249321"/><path d="m1693.098958 5754.333333h84.895834v5.208334h-84.895834zm0 0" fill="none" stroke="#000" stroke-linejoin="round" stroke-miterlimit="10" stroke-width="8.24242" transform="matrix(.06 0 0 -.06 0 851.76)"/><path d="m101.585938 506.5h5.09375v-.308594h-5.09375zm0 0"/><path d="m2121.158854 6074.841146v-61.132813l931.25-28.710937v61.067708zm0 0" fill="none" stroke="#000" stroke-linejoin="round" stroke-miterlimit="10" stroke-width="6.64757" transform="matrix(.06 0 0 -.06 0 851.76)"/><path d="m127.269531 487.269531v3.667969l55.875 1.722656v-3.664062zm0 0"/><path d="m2668.033854 5754.333333h84.960938v5.208334h-84.960938zm0 0" fill="none" stroke="#000" stroke-linejoin="round" stroke-miterlimit="10" stroke-width="8.24242" transform="matrix(.06 0 0 -.06 0 851.76)"/><path d="m160.082031 506.5h5.097657v-.308594h-5.097657zm0 0"/><path d="m3577.278646 5754.333333h84.895833v5.208334h-84.895833zm0 0" fill="none" stroke="#000" stroke-linejoin="round" stroke-miterlimit="10" stroke-width="8.24242" transform="matrix(.06 0 0 -.06 0 851.76)"/><path d="m214.636719 506.5h5.09375v-.308594h-5.09375zm0 0"/><path d="m4523.893229 5754.333333h84.895833v5.208334h-84.895833zm0 0" fill="none" stroke="#000" stroke-linejoin="round" stroke-miterlimit="10" stroke-width="8.24242" transform="matrix(.06 0 0 -.06 0 851.76)"/><path d="m271.433594 506.5h5.09375v-.308594h-5.09375zm0 0"/><path d="m6162.760417 6751.794271v-61.132813l931.25-28.710937v61.132812zm0 0" fill="none" stroke="#000" stroke-linejoin="round" stroke-miterlimit="10" stroke-width="6.64757" transform="matrix(.06 0 0 -.06 0 851.76)"/><path d="m369.765625 446.652344v3.667968l55.875 1.722657v-3.667969zm0 0"/><path d="m7381.705729 5754.333333h84.895833v5.208334h-84.895833zm0 0" fill="none" stroke="#000" stroke-linejoin="round" stroke-miterlimit="10" stroke-width="8.24242" transform="matrix(.06 0 0 -.06 0 851.76)"/><path d="m442.902344 506.5h5.09375v-.308594h-5.09375zm0 0"/><path d="m8420.442708 5754.333333h84.960938v5.208334h-84.960938zm0 0" fill="none" stroke="#000" stroke-linejoin="round" stroke-miterlimit="10" stroke-width="8.24242" transform="matrix(.06 0 0 -.06 0 851.76)"/><path d="m505.226562 506.5h5.097657v-.308594h-5.097657zm0 0"/><path d="m9028.710937 6117.223958h6.70573v459.570313h-6.70573zm0 0" fill="none" stroke="#000" stroke-linejoin="round" stroke-miterlimit="10" stroke-width="6.64757" transform="matrix(.06 0 0 -.06 0 851.76)"/><path d="m541.722656 484.726562h.402344v-27.574218h-.402344zm0 0"/><use x="523.022046" xlink:href="#aa" y="512.249321"/><use x="528.634883" xlink:href="#as" y="512.249321"/><use x="540.199873" xlink:href="#aG" y="512.249321"/><use x="544.792238" xlink:href="#ab" y="512.249321"/><use x="531.269483" xlink:href="#T" y="486.59227"/><use x="6.774434" xlink:href="#V" y="473.889844"/><path d="m1104.166667 6089.424479h6.770833v459.570313h-6.770833zm0 0" fill="none" stroke="#000" stroke-linejoin="round" stroke-miterlimit="10" stroke-width="6.64757" transform="matrix(.06 0 0 -.06 0 851.76)"/><path d="m66.25 486.394531h.40625v-27.574219h-.40625zm0 0"/><use x="51.342303" xlink:href="#al" y="512.249321"/><use x="68.690291" xlink:href="#ad" y="512.249321"/><use x="80.255303" xlink:href="#aD" y="512.249321"/><use x="66.052432" xlink:href="#T" y="456.95331"/><use x="36.413573" xlink:href="#U" y="448.485093"/><use x="176.503853" xlink:href="#ac" y="512.249321"/><use x="188.068873" xlink:href="#ao" y="512.249321"/><path d="m4138.867187 6399.450521h6.770834v459.635416h-6.770834zm0 0" fill="none" stroke="#000" stroke-linejoin="round" stroke-miterlimit="10" stroke-width="6.64757" transform="matrix(.06 0 0 -.06 0 851.76)"/><path d="m248.332031 467.792969h.40625v-27.574219h-.40625zm0 0"/><use x="234.734469" xlink:href="#aA" y="512.249321"/><use x="246.299489" xlink:href="#ay" y="512.249321"/><use x="237.879556" xlink:href="#T" y="469.655536"/><path d="m3045.638021 6019.111979h6.770833v388.802083h-6.770833zm0 0" fill="none" stroke="#000" stroke-linejoin="round" stroke-miterlimit="10" stroke-width="6.64757" transform="matrix(.06 0 0 -.06 0 851.76)"/><path d="m182.738281 490.617188h.40625v-23.328126h-.40625zm0 0"/><use x="182.540365" xlink:href="#T" y="465.421227"/><use x="127.072554" xlink:href="#T" y="461.186999"/><use x="116.443833" xlink:href="#aj" y="512.249001"/><use x="126.818459" xlink:href="#ak" y="512.249001"/><use x="137.19285" xlink:href="#ao" y="512.249001"/><path d="m2121.158854 6047.367187h6.770833v431.054688h-6.770833zm0 0" fill="none" stroke="#000" stroke-linejoin="round" stroke-miterlimit="10" stroke-width="6.64757" transform="matrix(.06 0 0 -.06 0 851.76)"/><path d="m127.269531 488.917969h.40625v-25.863281h-.40625zm0 0"/><g clip-path="url(#B)"><path d="m5.143229 4463.057292h9911.002604" style="fill:none;stroke-width:10.2889;stroke-linecap:round;stroke-linejoin:round;stroke:#000;stroke-miterlimit:10" transform="matrix(.06 0 0 -.06 0 851.76)"/></g><g clip-path="url(#C)"><path d="m5.143229 4604.203125h9911.002604" style="fill:none;stroke-width:10.2889;stroke-linecap:round;stroke-linejoin:round;stroke:#000;stroke-miterlimit:10" transform="matrix(.06 0 0 -.06 0 851.76)"/></g><g clip-path="url(#D)"><path d="m5.143229 4745.283854h9911.002604" style="fill:none;stroke-width:10.2889;stroke-linecap:round;stroke-linejoin:round;stroke:#000;stroke-miterlimit:10" transform="matrix(.06 0 0 -.06 0 851.76)"/></g><g clip-path="url(#E)"><path d="m5.143229 4886.429688h9911.002604" style="fill:none;stroke-width:10.2889;stroke-linecap:round;stroke-linejoin:round;stroke:#000;stroke-miterlimit:10" transform="matrix(.06 0 0 -.06 0 851.76)"/></g><g clip-path="url(#F)"><path d="m5.143229 5027.575521h9911.002604" style="fill:none;stroke-width:10.2889;stroke-linecap:round;stroke-linejoin:round;stroke:#000;stroke-miterlimit:10" transform="matrix(.06 0 0 -.06 0 851.76)"/></g><use x="582.823166" xlink:href="#W" y="562.806422"/><use x="582.823166" xlink:href="#W" y="571.274639"/><g clip-path="url(#G)"><path d="m9890.364583 4463.057292v564.518229" fill="none" stroke="#000" stroke-linejoin="round" stroke-miterlimit="10" stroke-width="61.7617" transform="matrix(.06 0 0 -.06 0 851.76)"/></g><path d="m9818.815104 4463.057292v564.518229" fill="none" stroke="#000" stroke-linejoin="round" stroke-miterlimit="10" stroke-width="19.5616" transform="matrix(.06 0 0 -.06 0 851.76)"/><use x="63.629627" xlink:href="#W" y="562.806422"/><use x="63.629627" xlink:href="#W" y="571.274639"/><path d="m1019.856771 4463.057292v564.518229" fill="none" stroke="#000" stroke-linejoin="round" stroke-miterlimit="10" stroke-width="19.5616" transform="matrix(.06 0 0 -.06 0 851.76)"/><path d="m948.242187 4463.057292v564.518229" fill="none" stroke="#000" stroke-linejoin="round" stroke-miterlimit="10" stroke-width="61.7617" transform="matrix(.06 0 0 -.06 0 851.76)"/><use x="489.402979" xlink:href="#T" y="562.806422"/><use x="474.691949" xlink:href="#aC" y="614.749226"/><use x="492.039937" xlink:href="#ad" y="614.749226"/><use x="503.604928" xlink:href="#ae" y="614.749226"/><use x="478.604147" xlink:href="#ae" y="638.460273"/><use x="489.829792" xlink:href="#ar" y="638.460273"/><use x="499.694389" xlink:href="#ad" y="638.460273"/><path d="m8160.026042 4325.231771h6.770833v459.570312h-6.770833zm0 0" fill="none" stroke="#000" stroke-linejoin="round" stroke-miterlimit="10" stroke-width="6.64757" transform="matrix(.06 0 0 -.06 0 851.76)"/><path d="m489.601562 592.246094h.402344v-27.574219h-.402344zm0 0"/><use x="344.96769" xlink:href="#T" y="575.508447"/><path d="m1693.554687 3650.817708h84.895834v5.208334h-84.895834zm0 0" fill="none" stroke="#000" stroke-linejoin="round" stroke-miterlimit="10" stroke-width="8.24242" transform="matrix(.06 0 0 -.06 0 851.76)"/><path d="m101.613281 632.710938h5.09375v-.3125h-5.09375zm0 0"/><use x="339.611679" xlink:href="#aa" y="614.749526"/><use x="345.224252" xlink:href="#aH" y="614.749526"/><use x="356.789507" xlink:href="#aG" y="614.749526"/><use x="336.125112" xlink:href="#aD" y="638.460573"/><use x="347.690366" xlink:href="#ad" y="638.460573"/><use x="359.085229" xlink:href="#aa" y="638.460573"/><path d="m5923.697917 4635.257812h6.705729v459.570313h-6.705729zm0 0" fill="none" stroke="#000" stroke-linejoin="round" stroke-miterlimit="10" stroke-width="6.64757" transform="matrix(.06 0 0 -.06 0 851.76)"/><path d="m355.421875 573.644531h.402344v-27.574219h-.402344zm0 0"/><use x="391.677783" xlink:href="#S" y="567.040431"/><use x="435.374928" xlink:href="#T" y="567.040431"/><use x="420.664641" xlink:href="#al" y="614.748926"/><use x="438.012629" xlink:href="#ad" y="614.748926"/><use x="449.577649" xlink:href="#aD" y="614.748926"/><use x="420.664641" xlink:href="#al" y="638.459973"/><use x="438.012629" xlink:href="#ad" y="638.459973"/><use x="449.577649" xlink:href="#aD" y="638.459973"/><path d="m7259.570312 4278.161458h6.70573v436.067709h-6.70573zm0 0" fill="none" stroke="#000" stroke-linejoin="round" stroke-miterlimit="10" stroke-width="6.64757" transform="matrix(.06 0 0 -.06 0 851.76)"/><path d="m435.574219 595.070312h.402343v-26.164062h-.402343zm0 0"/><path d="m7788.736979 3650.817708h84.895833v5.208334h-84.895833zm0 0" fill="none" stroke="#000" stroke-linejoin="round" stroke-miterlimit="10" stroke-width="8.24242" transform="matrix(.06 0 0 -.06 0 851.76)"/><path d="m467.324219 632.710938h5.09375v-.3125h-5.09375zm0 0"/><path d="m7756.119792 4046h84.960937v5.208333h-84.960937zm0 0" fill="none" stroke="#000" stroke-linejoin="round" stroke-miterlimit="10" stroke-width="8.24242" transform="matrix(.06 0 0 -.06 0 851.76)"/><path d="m465.367188 609h5.097656v-.3125h-5.097656zm0 0"/><path d="m5381.510417 3650.817708h84.960937v5.208334h-84.960937zm0 0" fill="none" stroke="#000" stroke-linejoin="round" stroke-miterlimit="10" stroke-width="8.24242" transform="matrix(.06 0 0 -.06 0 851.76)"/><path d="m322.890625 632.710938h5.097656v-.3125h-5.097656zm0 0"/><path d="m5458.789062 4046h84.895834v5.208333h-84.895834zm0 0" fill="none" stroke="#000" stroke-linejoin="round" stroke-miterlimit="10" stroke-width="8.24242" transform="matrix(.06 0 0 -.06 0 851.76)"/><path d="m327.527344 609h5.09375v-.3125h-5.09375zm0 0"/><path d="m4708.723958 3650.817708h84.895834v5.208334h-84.895834zm0 0" fill="none" stroke="#000" stroke-linejoin="round" stroke-miterlimit="10" stroke-width="8.24242" transform="matrix(.06 0 0 -.06 0 851.76)"/><path d="m282.523438 632.710938h5.09375v-.3125h-5.09375zm0 0"/><path d="m4593.164062 4046h84.960938v5.208333h-84.960938zm0 0" fill="none" stroke="#000" stroke-linejoin="round" stroke-miterlimit="10" stroke-width="8.24242" transform="matrix(.06 0 0 -.06 0 851.76)"/><path d="m275.589844 609h5.097656v-.3125h-5.097656zm0 0"/><path d="m8669.335937 4046h84.895834v5.208333h-84.895834zm0 0" fill="none" stroke="#000" stroke-linejoin="round" stroke-miterlimit="10" stroke-width="8.24242" transform="matrix(.06 0 0 -.06 0 851.76)"/><path d="m520.160156 609h5.09375v-.3125h-5.09375zm0 0"/><path d="m3886.71875 3650.817708h84.895833v5.208334h-84.895833zm0 0" fill="none" stroke="#000" stroke-linejoin="round" stroke-miterlimit="10" stroke-width="8.24242" transform="matrix(.06 0 0 -.06 0 851.76)"/><path d="m233.203125 632.710938h5.09375v-.3125h-5.09375zm0 0"/><path d="m3551.432292 4381.15625v-61.067708l719.270833-28.776042v61.132812zm0 0" fill="none" stroke="#000" stroke-linejoin="round" stroke-miterlimit="10" stroke-width="6.64757" transform="matrix(.06 0 0 -.06 0 851.76)"/><path d="m213.085938 588.890625v3.664063l43.15625 1.726562v-3.667969zm0 0"/><path d="m3249.739583 4046h84.895834v5.208333h-84.895834zm0 0" fill="none" stroke="#000" stroke-linejoin="round" stroke-miterlimit="10" stroke-width="8.24242" transform="matrix(.06 0 0 -.06 0 851.76)"/><path d="m194.984375 609h5.09375v-.3125h-5.09375zm0 0"/><path d="m2295.247396 5170.544271v-61.132813l719.205729 28.776042v61.067708zm0 0" fill="none" stroke="#000" stroke-linejoin="round" stroke-miterlimit="10" stroke-width="6.64757" transform="matrix(.06 0 0 -.06 0 851.76)"/><path d="m137.714844 541.527344v3.667968l43.152344-1.726562v-3.664062zm0 0"/><use x="536.113072" xlink:href="#T" y="558.572414"/><use x="530.24618" xlink:href="#aa" y="614.749126"/><use x="535.688627" xlink:href="#ai" y="614.749126"/><use x="547.253852" xlink:href="#ab" y="614.749126"/><use x="529.566257" xlink:href="#am" y="638.460173"/><use x="536.369492" xlink:href="#ai" y="638.460173"/><use x="547.934717" xlink:href="#av" y="638.460173"/><path d="m8938.541667 4395.804688h6.705729v459.570312h-6.705729zm0 0" fill="none" stroke="#000" stroke-linejoin="round" stroke-miterlimit="10" stroke-width="6.64757" transform="matrix(.06 0 0 -.06 0 851.76)"/><path d="m536.3125 588.011719h.402344v-27.574219h-.402344zm0 0"/><path d="m8631.054687 3650.817708h84.895834v5.208334h-84.895834zm0 0" fill="none" stroke="#000" stroke-linejoin="round" stroke-miterlimit="10" stroke-width="8.24242" transform="matrix(.06 0 0 -.06 0 851.76)"/><path d="m517.863281 632.710938h5.09375v-.3125h-5.09375zm0 0"/><use x="127.262255" xlink:href="#T" y="571.274439"/><use x="78.506957" xlink:href="#T" y="575.508667"/><use x="71.874604" xlink:href="#aI" y="614.748946"/><use x="85.821104" xlink:href="#aj" y="614.748946"/><use x="70.683971" xlink:href="#aJ" y="638.459993"/><use x="85.821097" xlink:href="#ai" y="638.459993"/><path d="m1482.682292 4635.257812h6.770833v459.570313h-6.770833zm0 0" fill="none" stroke="#000" stroke-linejoin="round" stroke-miterlimit="10" stroke-width="6.64757" transform="matrix(.06 0 0 -.06 0 851.76)"/><path d="m88.960938 573.644531h.40625v-27.574219h-.40625zm0 0"/><use x="127.008254" xlink:href="#ao" y="614.749526"/><use x="110.936422" xlink:href="#ax" y="638.460573"/><use x="121.14136" xlink:href="#at" y="638.460573"/><use x="132.706614" xlink:href="#ae" y="638.460573"/><use x="144.271634" xlink:href="#ax" y="638.460573"/><path d="m2295.247396 4705.830729h6.770833v431.119792h-6.770833zm0 0" fill="none" stroke="#000" stroke-linejoin="round" stroke-miterlimit="10" stroke-width="6.64757" transform="matrix(.06 0 0 -.06 0 851.76)"/><path d="m137.714844 569.410156h.40625v-25.867187h-.40625zm0 0"/><use x="170.01034" xlink:href="#T" y="567.040431"/><use x="166.355493" xlink:href="#am" y="614.748926"/><use x="173.158698" xlink:href="#ai" y="614.748926"/><use x="6.774174" xlink:href="#V" y="575.508647"/><use x="36.413033" xlink:href="#U" y="550.103997"/><use x="255.636471" xlink:href="#T" y="567.040431"/><use x="253.086696" xlink:href="#ax" y="614.748926"/><use x="263.461088" xlink:href="#ay" y="614.748926"/><use x="245.00801" xlink:href="#ap" y="638.459973"/><use x="255.382402" xlink:href="#aj" y="638.459973"/><use x="265.757028" xlink:href="#as" y="638.459973"/><path d="m4263.932292 4325.492188h6.770833v388.736979h-6.770833zm0 0" fill="none" stroke="#000" stroke-linejoin="round" stroke-miterlimit="10" stroke-width="6.64757" transform="matrix(.06 0 0 -.06 0 851.76)"/><path d="m255.835938 592.230469h.40625v-23.324219h-.40625zm0 0"/><path d="m3007.747396 4776.403646h6.770833v388.736979h-6.770833zm0 0" fill="none" stroke="#000" stroke-linejoin="round" stroke-miterlimit="10" stroke-width="6.64757" transform="matrix(.06 0 0 -.06 0 851.76)"/><path d="m180.464844 565.175781h.402344v-23.324219h-.402344zm0 0"/><use x="298.257597" xlink:href="#T" y="571.274439"/><use x="287.033574" xlink:href="#aD" y="614.749026"/><use x="298.598828" xlink:href="#ar" y="614.749026"/><use x="308.97322" xlink:href="#aH" y="614.749026"/><use x="292.816556" xlink:href="#aj" y="638.460073"/><use x="303.191182" xlink:href="#ai" y="638.460073"/><path d="m5145.182292 4705.830729h6.770833v459.570313h-6.770833zm0 0" fill="none" stroke="#000" stroke-linejoin="round" stroke-miterlimit="10" stroke-width="6.64757" transform="matrix(.06 0 0 -.06 0 851.76)"/><path d="m308.710938 569.410156h.40625v-27.574218h-.40625zm0 0"/><use x="169.75734" xlink:href="#ao" y="638.460573"/><use x="212.888726" xlink:href="#T" y="562.806722"/><use x="210.338951" xlink:href="#aD" y="614.749526"/><use x="221.904205" xlink:href="#ag" y="614.749526"/><path d="m3551.432292 4353.682292h6.770833v431.119791h-6.770833zm0 0" fill="none" stroke="#000" stroke-linejoin="round" stroke-miterlimit="10" stroke-width="6.64757" transform="matrix(.06 0 0 -.06 0 851.76)"/><path d="m213.085938 590.539062h.40625v-25.867187h-.40625zm0 0"/><use x="210.338421" xlink:href="#aA" y="638.460573"/><use x="221.903675" xlink:href="#ag" y="638.460573"/><g clip-path="url(#H)"><path d="m5.143229 2632.197917h9911.002604" style="fill:none;stroke-width:10.2889;stroke-linecap:round;stroke-linejoin:round;stroke:#000;stroke-miterlimit:10" transform="matrix(.06 0 0 -.06 0 851.76)"/></g><g clip-path="url(#I)"><path d="m5.143229 2773.34375h9911.002604" style="fill:none;stroke-width:10.2889;stroke-linecap:round;stroke-linejoin:round;stroke:#000;stroke-miterlimit:10" transform="matrix(.06 0 0 -.06 0 851.76)"/></g><g clip-path="url(#J)"><path d="m5.143229 2914.489583h9911.002604" style="fill:none;stroke-width:10.2889;stroke-linecap:round;stroke-linejoin:round;stroke:#000;stroke-miterlimit:10" transform="matrix(.06 0 0 -.06 0 851.76)"/></g><g clip-path="url(#K)"><path d="m5.143229 3055.570312h9911.002604" style="fill:none;stroke-width:10.2889;stroke-linecap:round;stroke-linejoin:round;stroke:#000;stroke-miterlimit:10" transform="matrix(.06 0 0 -.06 0 851.76)"/></g><g clip-path="url(#L)"><path d="m5.143229 3196.716146h9911.002604" style="fill:none;stroke-width:10.2889;stroke-linecap:round;stroke-linejoin:round;stroke:#000;stroke-miterlimit:10" transform="matrix(.06 0 0 -.06 0 851.76)"/></g><path d="m8308.723958 2804.398438h6.770834v459.570312h-6.770834zm0 0" style="fill:none;stroke-width:6.64757;stroke-linecap:round;stroke-linejoin:round;stroke:#000;stroke-miterlimit:10" transform="matrix(.06 0 0 -.06 0 851.76)"/><path d="m498.523438 683.496094h.402343v-27.574219h-.402343zm0 0"/><use x="476.845954" xlink:href="#ae" y="723.467743"/><use x="488.411208" xlink:href="#ao" y="723.467743"/><use x="499.976198" xlink:href="#ax" y="723.467743"/><use x="488.069976" xlink:href="#T" y="685.360367"/><path d="m7390.234375 2874.971354h6.705729v459.570313h-6.705729zm0 0" style="fill:none;stroke-width:6.64757;stroke-linecap:round;stroke-linejoin:round;stroke:#000;stroke-miterlimit:10" transform="matrix(.06 0 0 -.06 0 851.76)"/><path d="m443.414062 679.261719h.402344v-27.574219h-.402344zm0 0"/><use x="414.252829" xlink:href="#aG" y="723.467743"/><use x="418.845164" xlink:href="#ar" y="723.467743"/><use x="429.219556" xlink:href="#aK" y="723.467743"/><use x="440.784575" xlink:href="#ae" y="723.467743"/><use x="452.34983" xlink:href="#ax" y="723.467743"/><use x="432.959966" xlink:href="#T" y="681.126359"/><path d="m6384.570312 2494.567708h6.70573v388.802084h-6.70573zm0 0" style="fill:none;stroke-width:6.64757;stroke-linecap:round;stroke-linejoin:round;stroke:#000;stroke-miterlimit:10" transform="matrix(.06 0 0 -.06 0 851.76)"/><path d="m383.074219 702.085938h.402343v-23.328126h-.402343zm0 0"/><use x="379.218758" xlink:href="#am" y="723.467743"/><use x="386.022198" xlink:href="#Z" y="723.467743"/><use x="382.873846" xlink:href="#T" y="676.89215"/><path d="m5547.65625 2522.888021h6.705729v431.054687h-6.705729zm0 0" style="fill:none;stroke-width:6.64757;stroke-linecap:round;stroke-linejoin:round;stroke:#000;stroke-miterlimit:10" transform="matrix(.06 0 0 -.06 0 851.76)"/><path d="m332.859375 700.386719h.402344v-25.863281h-.402344zm0 0"/><use x="328.918658" xlink:href="#an" y="723.467743"/><use x="342.864938" xlink:href="#ag" y="723.467743"/><use x="332.659055" xlink:href="#T" y="672.658142"/><path d="m1534.635417 2234.085938h84.895833v5.143229h-84.895833zm0 0" style="fill:none;stroke-width:8.24242;stroke-linecap:round;stroke-linejoin:round;stroke:#000;stroke-miterlimit:10" transform="matrix(.06 0 0 -.06 0 851.76)"/><path d="m92.078125 717.714844h5.09375v-.308594h-5.09375zm0 0"/><path d="m2036.783854 2550.361979v-61.132812l843.684896-28.710938v61.067709zm0 0" fill="none" stroke="#000" stroke-linejoin="round" stroke-miterlimit="10" stroke-width="6.64757" transform="matrix(.06 0 0 -.06 0 851.76)"/><path d="m122.207031 698.738281v3.667969l50.621094 1.722656v-3.664062zm0 0"/><path d="m3270.182292 2234.085938h84.895833v5.143229h-84.895833zm0 0" fill="none" stroke="#000" stroke-linejoin="round" stroke-miterlimit="10" stroke-width="8.24242" transform="matrix(.06 0 0 -.06 0 851.76)"/><path d="m196.210938 717.714844h5.09375v-.308594h-5.09375zm0 0"/><path d="m4210.221354 2234.085938h84.895833v5.143229h-84.895833zm0 0" fill="none" stroke="#000" stroke-linejoin="round" stroke-miterlimit="10" stroke-width="8.24242" transform="matrix(.06 0 0 -.06 0 851.76)"/><path d="m252.613281 717.714844h5.09375v-.308594h-5.09375zm0 0"/><path d="m5547.591146 2550.361979v-61.132812l843.684896-28.710938v61.067709zm0 0" fill="none" stroke="#000" stroke-linejoin="round" stroke-miterlimit="10" stroke-width="6.64757" transform="matrix(.06 0 0 -.06 0 851.76)"/><path d="m332.855469 698.738281v3.667969l50.621093 1.722656v-3.664062zm0 0"/><path d="m6013.151042 2234.085938h84.960937v5.143229h-84.960937zm0 0" fill="none" stroke="#000" stroke-linejoin="round" stroke-miterlimit="10" stroke-width="8.24242" transform="matrix(.06 0 0 -.06 0 851.76)"/><path d="m360.789062 717.714844h5.09375v-.308594h-5.09375zm0 0"/><path d="m6722.851562 2234.085938h84.960938v5.143229h-84.960938zm0 0" fill="none" stroke="#000" stroke-linejoin="round" stroke-miterlimit="10" stroke-width="8.24242" transform="matrix(.06 0 0 -.06 0 851.76)"/><path d="m403.371094 717.714844h5.09375v-.308594h-5.09375zm0 0"/><path d="m7787.304687 2234.085938h84.895834v5.143229h-84.895834zm0 0" fill="none" stroke="#000" stroke-linejoin="round" stroke-miterlimit="10" stroke-width="8.24242" transform="matrix(.06 0 0 -.06 0 851.76)"/><path d="m467.238281 717.714844h5.09375v-.308594h-5.09375zm0 0"/><use x="543.180086" xlink:href="#S" y="676.89165"/><use x="105.258211" xlink:href="#aD" y="723.467243"/><use x="116.823223" xlink:href="#ar" y="723.467243"/><use x="126.687849" xlink:href="#ad" y="723.467243"/><use x="138.253103" xlink:href="#ae" y="723.467243"/><use x="122.009244" xlink:href="#T" y="672.657642"/><path d="m1118.294271 2564.945312h6.770833v459.570313h-6.770833zm0 0" fill="none" stroke="#000" stroke-linejoin="round" stroke-miterlimit="10" stroke-width="6.64757" transform="matrix(.06 0 0 -.06 0 851.76)"/><path d="m67.097656 697.863281h.40625v-27.574219h-.40625zm0 0"/><use x="60.863122" xlink:href="#aL" y="723.467743"/><use x="72.428134" xlink:href="#ai" y="723.467743"/><use x="66.899224" xlink:href="#T" y="668.423933"/><use x="266.324623" xlink:href="#aj" y="723.467743"/><use x="276.699249" xlink:href="#ai" y="723.467743"/><use x="288.264268" xlink:href="#aD" y="723.467743"/><use x="36.413163" xlink:href="#U" y="659.955716"/><use x="6.774304" xlink:href="#V" y="685.360367"/><path d="m4629.101562 2447.302083h6.770834v436.067709h-6.770834zm0 0" fill="none" stroke="#000" stroke-linejoin="round" stroke-miterlimit="10" stroke-width="6.64757" transform="matrix(.06 0 0 -.06 0 851.76)"/><path d="m277.746094 704.921875h.40625v-26.164063h-.40625zm0 0"/><use x="277.549555" xlink:href="#T" y="676.89165"/><path d="m3879.427083 2874.971354h6.705729v459.570313h-6.705729zm0 0" fill="none" stroke="#000" stroke-linejoin="round" stroke-miterlimit="10" stroke-width="6.64757" transform="matrix(.06 0 0 -.06 0 851.76)"/><path d="m232.765625 679.261719h.402344v-27.574219h-.402344zm0 0"/><use x="211.682423" xlink:href="#ap" y="723.467743"/><use x="222.056815" xlink:href="#aj" y="723.467743"/><use x="232.431206" xlink:href="#as" y="723.467743"/><use x="222.310845" xlink:href="#T" y="681.126359"/><path d="m2036.783854 2522.888021h6.770833v431.054687h-6.770833zm0 0" fill="none" stroke="#000" stroke-linejoin="round" stroke-miterlimit="10" stroke-width="6.64757" transform="matrix(.06 0 0 -.06 0 851.76)"/><path d="m122.207031 700.386719h.40625v-25.863281h-.40625zm0 0"/><path d="m2873.697917 2494.567708h6.770833v388.802084h-6.770833zm0 0" fill="none" stroke="#000" stroke-linejoin="round" stroke-miterlimit="10" stroke-width="6.64757" transform="matrix(.06 0 0 -.06 0 851.76)"/><path d="m172.421875 702.085938h.40625v-23.328126h-.40625zm0 0"/><use x="169.674339" xlink:href="#aA" y="723.467743"/><use x="181.239593" xlink:href="#ag" y="723.467743"/><use x="172.224114" xlink:href="#T" y="676.89215"/><g clip-path="url(#M)"><path d="m5.143229 938.513021h9911.002604" style="fill:none;stroke-width:10.2889;stroke-linecap:round;stroke-linejoin:round;stroke:#000;stroke-miterlimit:10" transform="matrix(.06 0 0 -.06 0 851.76)"/></g><g clip-path="url(#N)"><path d="m5.143229 1079.658854h9911.002604" style="fill:none;stroke-width:10.2889;stroke-linecap:round;stroke-linejoin:round;stroke:#000;stroke-miterlimit:10" transform="matrix(.06 0 0 -.06 0 851.76)"/></g><g clip-path="url(#O)"><path d="m5.143229 1220.804688h9911.002604" style="fill:none;stroke-width:10.2889;stroke-linecap:round;stroke-linejoin:round;stroke:#000;stroke-miterlimit:10" transform="matrix(.06 0 0 -.06 0 851.76)"/></g><g clip-path="url(#P)"><path d="m5.143229 1361.950521h9911.002604" style="fill:none;stroke-width:10.2889;stroke-linecap:round;stroke-linejoin:round;stroke:#000;stroke-miterlimit:10" transform="matrix(.06 0 0 -.06 0 851.76)"/></g><g clip-path="url(#Q)"><path d="m5.143229 1503.096354h9911.002604" style="fill:none;stroke-width:10.2889;stroke-linecap:round;stroke-linejoin:round;stroke:#000;stroke-miterlimit:10" transform="matrix(.06 0 0 -.06 0 851.76)"/></g><g clip-path="url(#R)"><path d="m9890.364583 938.513021v564.583333" fill="none" stroke="#000" stroke-linejoin="round" stroke-miterlimit="10" stroke-width="61.7617" transform="matrix(.06 0 0 -.06 0 851.76)"/></g><path d="m9818.815104 938.513021v564.583333" fill="none" stroke="#000" stroke-linejoin="round" stroke-miterlimit="10" stroke-width="19.5616" transform="matrix(.06 0 0 -.06 0 851.76)"/><use x="402.197804" xlink:href="#T" y="782.745062"/><use x="482.118864" xlink:href="#ax" y="825.974648"/><use x="492.153616" xlink:href="#ai" y="825.974648"/><use x="503.718607" xlink:href="#aM" y="825.974648"/><use x="495.810192" xlink:href="#Y" y="755.104707"/><use x="490.0012" xlink:href="#X" y="786.97907"/><path d="m6877.539062 1181.351562h6.70573v459.570313h-6.70573zm0 0" fill="none" stroke="#000" stroke-linejoin="round" stroke-miterlimit="10" stroke-width="6.64757" transform="matrix(.06 0 0 -.06 0 851.76)"/><path d="m412.652344 780.878906h.402344v-27.574218h-.402344zm0 0"/><use x="393.354787" xlink:href="#am" y="825.974748"/><use x="400.158227" xlink:href="#aF" y="825.974748"/><use x="411.723246" xlink:href="#ax" y="825.974748"/><path d="m5387.5 800.882812h6.770833v388.867188h-6.770833zm0 0" fill="none" stroke="#000" stroke-linejoin="round" stroke-miterlimit="10" stroke-width="6.64757" transform="matrix(.06 0 0 -.06 0 851.76)"/><path d="m323.25 803.707031h.40625v-23.332031h-.40625zm0 0"/><use x="322.797646" xlink:href="#aF" y="825.974748"/><use x="323.051709" xlink:href="#T" y="778.510854"/><path d="m4066.210937 856.677083v-61.132812l1327.994792-28.710938v61.132813zm0 0" fill="none" stroke="#000" stroke-linejoin="round" stroke-miterlimit="10" stroke-width="6.64757" transform="matrix(.06 0 0 -.06 0 851.76)"/><path d="m243.972656 800.359375v3.667969l79.679688 1.722656v-3.667969zm0 0"/><path d="m4912.825521 525.622396h84.960937v5.143229h-84.960937zm0 0" fill="none" stroke="#000" stroke-linejoin="round" stroke-miterlimit="10" stroke-width="8.24242" transform="matrix(.06 0 0 -.06 0 851.76)"/><path d="m294.769531 820.222656h5.097657v-.308594h-5.097657zm0 0"/><path d="m6021.875 525.622396h84.895833v5.143229h-84.895833zm0 0" fill="none" stroke="#000" stroke-linejoin="round" stroke-miterlimit="10" stroke-width="8.24242" transform="matrix(.06 0 0 -.06 0 851.76)"/><path d="m361.3125 820.222656h5.09375v-.308594h-5.09375zm0 0"/><path d="m7492.708333 525.622396h84.895834v5.143229h-84.895834zm0 0" fill="none" stroke="#000" stroke-linejoin="round" stroke-miterlimit="10" stroke-width="8.24242" transform="matrix(.06 0 0 -.06 0 851.76)"/><path d="m449.558594 820.222656h5.097656v-.308594h-5.097656zm0 0"/><path d="m8350.260417 1120.869792h6.705729v449.479166h-6.705729zm0 0" fill="none" stroke="#000" stroke-linejoin="round" stroke-miterlimit="10" stroke-width="6.64757" transform="matrix(.06 0 0 -.06 0 851.76)"/><path d="m501.015625 784.507812h.402344v-26.96875h-.402344zm0 0"/><use x="6.774624" xlink:href="#V" y="786.97907"/><use x="49.045608" xlink:href="#al" y="825.974648"/><use x="66.393596" xlink:href="#aq" y="825.974648"/><use x="77.958843" xlink:href="#aj" y="825.974648"/><use x="88.333234" xlink:href="#aa" y="825.974648"/><use x="36.413483" xlink:href="#U" y="761.57432"/><use x="66.052342" xlink:href="#T" y="778.510754"/><path d="m4066.210937 829.333333h6.770834v430.989584h-6.770834zm0 0" fill="none" stroke="#000" stroke-linejoin="round" stroke-miterlimit="10" stroke-width="6.64757" transform="matrix(.06 0 0 -.06 0 851.76)"/><path d="m243.972656 802.003906h.40625v-25.859375h-.40625zm0 0"/><use x="226.769454" xlink:href="#aC" y="825.974748"/><use x="244.117441" xlink:href="#ag" y="825.974748"/><use x="248.709777" xlink:href="#ae" y="825.974748"/><use x="260.275031" xlink:href="#aA" y="825.974748"/><use x="243.775488" xlink:href="#T" y="774.276945"/><path d="m2602.864583 871.260417h6.770834v459.570312h-6.770834zm0 0" fill="none" stroke="#000" stroke-linejoin="round" stroke-miterlimit="10" stroke-width="6.64757" transform="matrix(.06 0 0 -.06 0 851.76)"/><path d="m156.171875 799.484375h.40625v-27.574219h-.40625zm0 0"/><use x="150.531301" xlink:href="#ai" y="825.974748"/><use x="162.096555" xlink:href="#aj" y="825.974748"/><use x="155.973032" xlink:href="#T" y="770.042637"/><path d="m1104.166667 753.682292h6.770833v436.067708h-6.770833zm0 0" fill="none" stroke="#000" stroke-linejoin="round" stroke-miterlimit="10" stroke-width="6.64757" transform="matrix(.06 0 0 -.06 0 851.76)"/><path d="m66.25 806.539062h.40625v-26.164062h-.40625zm0 0"/></svg>