<svg height="780.91em" viewBox="0 0 595.28 780.91" width="595.28em" xmlns="http://www.w3.org/2000/svg" xmlns:xlink="http://www.w3.org/1999/xlink"><clipPath id="a"><path d="m0 53h595.28125v2h-595.28125zm0 0"/></clipPath><clipPath id="b"><path d="m0 45h595.28125v2h-595.28125zm0 0"/></clipPath><clipPath id="c"><path d="m0 37h595.28125v2h-595.28125zm0 0"/></clipPath><clipPath id="d"><path d="m0 29h595.28125v2h-595.28125zm0 0"/></clipPath><clipPath id="e"><path d="m0 21h595.28125v2h-595.28125zm0 0"/></clipPath><clipPath id="f"><path d="m0 149h595.28125v1h-595.28125zm0 0"/></clipPath><clipPath id="g"><path d="m0 141h595.28125v1h-595.28125zm0 0"/></clipPath><clipPath id="h"><path d="m0 133h595.28125v1h-595.28125zm0 0"/></clipPath><clipPath id="i"><path d="m0 125h595.28125v1h-595.28125zm0 0"/></clipPath><clipPath id="j"><path d="m0 117h595.28125v2h-595.28125zm0 0"/></clipPath><clipPath id="k"><path d="m0 244h595.28125v2h-595.28125zm0 0"/></clipPath><clipPath id="l"><path d="m0 236h595.28125v2h-595.28125zm0 0"/></clipPath><clipPath id="m"><path d="m0 228h595.28125v2h-595.28125zm0 0"/></clipPath><clipPath id="n"><path d="m0 221h595.28125v1h-595.28125zm0 0"/></clipPath><clipPath id="o"><path d="m0 213h595.28125v1h-595.28125zm0 0"/></clipPath><clipPath id="p"><path d="m0 340h595.28125v2h-595.28125zm0 0"/></clipPath><clipPath id="q"><path d="m0 332h595.28125v2h-595.28125zm0 0"/></clipPath><clipPath id="r"><path d="m0 324h595.28125v2h-595.28125zm0 0"/></clipPath><clipPath id="s"><path d="m0 316h595.28125v2h-595.28125zm0 0"/></clipPath><clipPath id="t"><path d="m0 308h595.28125v2h-595.28125zm0 0"/></clipPath><clipPath id="u"><path d="m591 307h4.28125v36h-4.28125zm0 0"/></clipPath><clipPath id="v"><path d="m0 436h595.28125v1h-595.28125zm0 0"/></clipPath><clipPath id="w"><path d="m0 428h595.28125v1h-595.28125zm0 0"/></clipPath><clipPath id="x"><path d="m0 420h595.28125v1h-595.28125zm0 0"/></clipPath><clipPath id="y"><path d="m0 412h595.28125v1h-595.28125zm0 0"/></clipPath><clipPath id="z"><path d="m0 404h595.28125v1h-595.28125zm0 0"/></clipPath><clipPath id="A"><path d="m0 531h595.28125v2h-595.28125zm0 0"/></clipPath><clipPath id="B"><path d="m0 523h595.28125v2h-595.28125zm0 0"/></clipPath><clipPath id="C"><path d="m0 515h595.28125v2h-595.28125zm0 0"/></clipPath><clipPath id="D"><path d="m0 507h595.28125v2h-595.28125zm0 0"/></clipPath><clipPath id="E"><path d="m0 499h595.28125v2h-595.28125zm0 0"/></clipPath><clipPath id="F"><path d="m0 627h595.28125v2h-595.28125zm0 0"/></clipPath><clipPath id="G"><path d="m0 619h595.28125v2h-595.28125zm0 0"/></clipPath><clipPath id="H"><path d="m0 611h595.28125v2h-595.28125zm0 0"/></clipPath><clipPath id="I"><path d="m0 603h595.28125v2h-595.28125zm0 0"/></clipPath><clipPath id="J"><path d="m0 595h595.28125v2h-595.28125zm0 0"/></clipPath><clipPath id="K"><path d="m0 723h595.28125v1h-595.28125zm0 0"/></clipPath><clipPath id="L"><path d="m0 715h595.28125v1h-595.28125zm0 0"/></clipPath><clipPath id="M"><path d="m0 707h595.28125v1h-595.28125zm0 0"/></clipPath><clipPath id="N"><path d="m0 699h595.28125v1h-595.28125zm0 0"/></clipPath><clipPath id="O"><path d="m0 691h595.28125v1h-595.28125zm0 0"/></clipPath><clipPath id="P"><path d="m591 689h4.28125v37h-4.28125zm0 0"/></clipPath><symbol id="Q" overflow="visible"><path d="m7.078125-4.296875c-1.34375 0-2.609375.4375-3.765625 1.140625-1.5.890625-3.3125 2.453125-3.3125 4.71875 0 1.875 1.65625 2.734375 3.34375 2.734375 1.34375 0 2.609375-.4375 3.765625-1.140625 1.5-.890625 3.28125-2.453125 3.28125-4.71875 0-1.875-1.625-2.734375-3.3125-2.734375zm0 0"/></symbol><symbol id="R" overflow="visible"><path d="m4.53125 0c.125 0 .25-.125.25-.25v-7.46875c0-.125-.125-.25-.25-.25h-4.28125c-.125 0-.25.125-.25.25v7.46875c0 .125.125.25.25.25zm0 0"/></symbol><symbol id="S" overflow="visible"><path d="m.796875-1.40625c.03125-1.046875.734375-1.96875 1.71875-1.96875.953125 0 1.40625 1.109375 1.40625 2.203125 0 1.875-1.59375 3.21875-3.0625 4.421875-.0625-.703125-.125-1.40625-.125-2.109375 0-.125.03125-.21875.03125-.34375zm-1.59375-13.359375.34375 19.09375c0 .390625.296875.671875.671875.671875.578125 0 .828125-.671875 1.28125-1.015625 2-1.625 4.875-2.765625 4.875-5.390625 0-1.71875-1.28125-3.1875-2.96875-3.1875-1.015625 0-1.96875.359375-2.796875.953125l.1875-11.125c-.25-.125-.515625-.21875-.796875-.21875s-.546875.09375-.796875.21875zm0 0"/></symbol><symbol id="T" overflow="visible"><path d="m11.921875-8.28125c-.515625-2.234375-1.109375-4.4375-1.75-6.640625 3.0625-3.46875 5.828125-7.046875 5.828125-11.625 0-3.609375-1.96875-8.765625-4.203125-11.453125-.15625-.125-.359375-.125-.515625 0-3.03125 2.203125-4.78125 5.703125-4.78125 9.40625 0 1.65625.03125 3.28125.21875 4.90625.234375 2.078125.765625 4.078125 1.34375 6.09375-3.765625 4.265625-8 8.34375-8 14.03125 0 6.40625 4.625 11.84375 10.609375 11.84375 1 0 1.921875-.09375 2.84375-.25.09375 1.015625.15625 2.046875.15625 3.0625 0 .578125-.03125 1.109375-.0625 1.6875-.1875 3.15625-2.140625 6.0625-5.09375 6.125-.03125 0-.0625.03125-.09375.03125-1.625 0-3.03125-.921875-3.859375-2.234375.34375.15625.734375.28125 1.109375.28125 1.65625 0 3.03125-1.359375 3.03125-3.015625 0-1.796875-1.3125-3.328125-3.03125-3.328125-1.875 0-3.5625 1.46875-3.5625 3.328125 0 3.4375 2.765625 6.203125 6.203125 6.203125 3.765625 0 6.34375-3.375 6.578125-7.203125.03125-.59375.03125-1.171875.03125-1.78125 0-1.140625-.0625-2.296875-.15625-3.4375.828125-.265625 1.625-.640625 2.3125-1.1875 2.359375-1.75 3.421875-4.203125 3.421875-6.625 0-4.203125-3.1875-8.25-8.09375-8.25-.171875 0-.328125.03125-.484375.03125zm2.703125 14.8125c-.4375-3.953125-1.171875-7.703125-1.96875-11.4375 3.5.28125 5.703125 3.21875 5.703125 6.15625 0 2.21875-1.53125 4.515625-3.734375 5.28125zm-12.359375-7.515625c0-5.109375 3.4375-8.953125 6.875-12.8125.515625 1.875 1.03125 3.75 1.46875 5.671875-3.21875.734375-5.03125 3.4375-5.03125 6.25 0 2.21875 1.140625 4.484375 3.703125 5.859375.09375.03125.1875.0625.28125.0625.34375 0 .640625-.3125.640625-.671875 0-.15625-.09375-.3125-.21875-.4375-1.796875-1.03125-2.625-2.5625-2.625-3.953125 0-1.890625 1.46875-3.578125 3.984375-3.859375.828125 3.828125 1.5625 7.609375 2.046875 11.703125-.859375.125-1.71875.1875-2.609375.1875-4.34375 0-8.515625-3.671875-8.515625-8zm10.828125-32.484375c.546875 1.6875.671875 2.515625.671875 4.359375 0 4.0625-2.125 7.28125-4.75 10.359375-.5625-2-1.046875-3.9375-1.046875-6.375 0-3.53125 1.96875-6.75 5.125-8.34375zm0 0"/></symbol><symbol id="U" overflow="visible"><path d="m4.53125 7.96875c.125 0 .25-.125.25-.25v-15.4375c0-.125-.125-.25-.25-.25h-4.28125c-.125 0-.25.125-.25.25v15.4375c0 .125.125.25.25.25zm0 0"/></symbol><symbol id="V" overflow="visible"><path d="m-2.015625-1.5c0 1.125.90625 2.015625 2.015625 2.015625s2.015625-.890625 2.015625-2.015625c0-1.109375-.90625-2-2.015625-2s-2.015625.890625-2.015625 2zm2.015625-9.96875c-4.9375 0-10.484375 5.515625-10.484375 11.53125 0 .25.25.453125.5.453125.234375 0 .484375-.171875.546875-.515625.828125-4.75 4.6875-8.453125 9.4375-8.453125s8.609375 3.703125 9.4375 8.453125c.0625.34375.3125.515625.546875.515625.25 0 .5-.203125.5-.453125 0-6.015625-5.515625-11.53125-10.484375-11.53125zm0 0"/></symbol><symbol id="W" overflow="visible"><path d="m3.015625 2.140625v-12.453125h-1.640625v11.8125c0 .984375-.328125 1.40625-1.328125 1.359375l-.40625-.03125v1.40625c.203125.03125.296875.0625.5625.0625 1.84375 0 2.8125-.75 2.8125-2.15625zm.21875-14.015625v-2.046875h-2.046875v2.046875zm0 0"/></symbol><symbol id="X" overflow="visible"><path d="m10.09375-4.6875c0-1.5-.109375-2.4375-.40625-3.203125-.671875-1.703125-2.25-2.71875-4.171875-2.71875-2.875 0-4.734375 2.125-4.734375 5.515625 0 3.375 1.796875 5.390625 4.6875 5.390625 2.359375 0 4-1.34375 4.421875-3.421875h-1.65625c-.453125 1.359375-1.390625 1.90625-2.703125 1.90625-1.71875 0-2.984375-1.109375-3.03125-3.46875zm-1.75-1.453125s0 .078125-.015625.109375h-5.78125c.125-1.828125 1.296875-3.0625 2.953125-3.0625 1.609375 0 2.84375 1.34375 2.84375 2.953125zm0 0"/></symbol><symbol id="Y" overflow="visible"><path d="m9.75 0v-14.359375h-1.640625v5.34375c-.6875-1.046875-1.796875-1.59375-3.171875-1.59375-2.671875 0-4.421875 2.0625-4.421875 5.359375 0 3.484375 1.703125 5.546875 4.484375 5.546875 1.421875 0 2.40625-.53125 3.28125-1.8125v1.515625zm-1.640625-5.125c0 2.390625-1.140625 3.890625-2.875 3.890625-1.8125 0-3.015625-1.515625-3.015625-3.921875s1.203125-3.921875 3-3.921875c1.765625 0 2.890625 1.578125 2.890625 3.953125zm0 0"/></symbol><symbol id="Z" overflow="visible"><path d="m2.96875 0v-14.359375h-1.625v14.359375zm0 0"/></symbol><symbol id="aa" overflow="visible"><path d="m5.078125-8.984375v-1.328125h-1.71875v-1.625c0-.6875.40625-1.03125 1.15625-1.03125.125 0 .1875 0 .5625.015625v-1.359375c-.375-.078125-.59375-.09375-.921875-.09375-1.515625 0-2.421875.859375-2.421875 2.34375v1.75h-1.375v1.328125h1.375v8.984375h1.625v-8.984375zm0 0"/></symbol><symbol id="ab" overflow="visible"><path d="m9.890625 0-4.21875-6.75 3.578125-3.5625h-2.109375l-4.359375 4.359375v-8.40625h-1.640625v14.359375h1.640625v-4.015625l1.59375-1.578125 3.484375 5.59375zm0 0"/></symbol><symbol id="ac" overflow="visible"><path d="m9.59375 0v-7.796875c0-1.71875-1.28125-2.8125-3.28125-2.8125-1.53125 0-2.515625.59375-3.421875 2.03125v-1.734375h-1.515625v10.3125h1.640625v-5.6875c0-2.109375 1.140625-3.484375 2.8125-3.484375 1.296875 0 2.125.78125 2.125 2.03125v7.140625zm0 0"/></symbol><symbol id="ad" overflow="visible"><path d="m5 0v-1.375c-.21875.0625-.46875.078125-.78125.078125-.71875 0-.90625-.203125-.90625-.921875v-6.765625h1.6875v-1.328125h-1.6875v-2.84375h-1.640625v2.84375h-1.390625v1.328125h1.390625v7.484375c0 1.046875.703125 1.640625 1.984375 1.640625.40625 0 .796875-.046875 1.34375-.140625zm0 0"/></symbol><symbol id="ae" overflow="visible"><path d="m14.96875 0v-7.734375c0-1.859375-1.03125-2.875-2.953125-2.875-1.390625 0-2.21875.40625-3.171875 1.578125-.609375-1.109375-1.4375-1.578125-2.78125-1.578125-1.375 0-2.28125.515625-3.171875 1.75v-1.453125h-1.5v10.3125h1.640625v-6.484375c0-1.484375 1.078125-2.6875 2.421875-2.6875 1.21875 0 1.90625.75 1.90625 2.0625v7.109375h1.640625v-6.484375c0-1.484375 1.09375-2.6875 2.4375-2.6875 1.203125 0 1.890625.765625 1.890625 2.0625v7.109375zm0 0"/></symbol><symbol id="af" overflow="visible"><path d="m3.78125.3125v-2.359375h-2.0625v2.046875h1.171875v.359375c0 1.359375-.25 1.75-1.171875 1.78125v.75c1.375 0 2.0625-.875 2.0625-2.578125zm0 0"/></symbol><symbol id="ag" overflow="visible"><path d="m3.015625 0v-10.3125h-1.640625v10.3125zm.21875-11.875v-2.046875h-2.046875v2.046875zm0 0"/></symbol><symbol id="ah" overflow="visible"><path d="m14.609375-6.953125c0-4.625-2.734375-7.75-6.953125-7.75-4.109375 0-6.90625 3.140625-6.90625 7.640625 0 4.484375 2.796875 7.421875 6.921875 7.421875 4.21875 0 6.9375-3.09375 6.9375-7.3125zm-1.828125-.03125c0 3.453125-2.078125 5.71875-5.109375 5.71875-3.046875 0-5.09375-2.265625-5.09375-5.796875 0-3.546875 2.046875-6.03125 5.078125-6.03125 3.109375 0 5.125 2.484375 5.125 6.109375zm-.890625-11.046875h-2.671875l-2.265625 2.609375h1.40625zm0 0"/></symbol><symbol id="ai" overflow="visible"><path d="m9.03125-2.890625c0-1.53125-.859375-2.3125-2.90625-2.796875l-1.578125-.375c-1.34375-.3125-1.90625-.75-1.90625-1.484375 0-.9375.84375-1.546875 2.1875-1.546875 1.3125 0 2.015625.5625 2.0625 1.65625h1.734375c-.015625-2.03125-1.359375-3.171875-3.75-3.171875s-3.953125 1.234375-3.953125 3.140625c0 1.625.828125 2.390625 3.265625 2.984375l1.546875.375c1.140625.265625 1.59375.609375 1.59375 1.359375 0 .953125-.96875 1.53125-2.40625 1.53125-1.484375 0-2.296875-.359375-2.515625-1.9375h-1.734375c.078125 2.390625 1.421875 3.453125 4.109375 3.453125 2.59375 0 4.25-1.203125 4.25-3.1875zm0 0"/></symbol><symbol id="aj" overflow="visible"><path d="m10.09375-4.6875c0-1.5-.109375-2.4375-.40625-3.203125-.671875-1.703125-2.25-2.71875-4.171875-2.71875-2.875 0-4.734375 2.125-4.734375 5.515625 0 3.375 1.796875 5.390625 4.6875 5.390625 2.359375 0 4-1.34375 4.421875-3.421875h-1.65625c-.453125 1.359375-1.390625 1.90625-2.703125 1.90625-1.71875 0-2.984375-1.109375-3.03125-3.46875zm-1.75-1.453125s0 .078125-.015625.109375h-5.78125c.125-1.828125 1.296875-3.0625 2.953125-3.0625 1.609375 0 2.84375 1.34375 2.84375 2.953125zm.6875-8.21875h-2.21875l-1.890625 2.921875h1.1875zm0 0"/></symbol><symbol id="ak" overflow="visible"><path d="m9.625-1.6875v-8.625h-1.515625v1.5c-.828125-1.234375-1.828125-1.796875-3.140625-1.796875-2.625 0-4.390625 2.203125-4.390625 5.546875 0 3.25 1.828125 5.359375 4.25 5.359375 1.296875 0 2.203125-.546875 3.28125-1.859375v.703125c0 2.734375-1.125 3.765625-3.03125 3.765625-1.296875 0-2.296875-.46875-2.5-1.71875h-1.671875c.171875 1.9375 1.6875 3.109375 4.109375 3.109375 3.234375 0 4.609375-1.4375 4.609375-5.984375zm-1.671875-3.40625c0 2.453125-1.0625 3.875-2.796875 3.875-1.796875 0-2.875-1.4375-2.875-3.9375 0-2.484375 1.109375-3.9375 2.859375-3.9375 1.765625 0 2.8125 1.5 2.8125 4zm0 0"/></symbol><symbol id="al" overflow="visible"><path d="m9.390625-3.546875h-1.65625c-.265625 1.65625-1.125 2.328125-2.515625 2.328125-1.8125 0-2.890625-1.40625-2.890625-3.84375 0-2.578125 1.0625-4.03125 2.84375-4.03125 1.390625 0 2.25.8125 2.453125 2.25h1.640625c-.1875-2.53125-1.765625-3.765625-4.0625-3.765625-2.78125 0-4.59375 2.125-4.59375 5.546875 0 3.328125 1.765625 5.359375 4.5625 5.359375 2.46875 0 4.015625-1.484375 4.21875-3.84375zm0 0"/></symbol><symbol id="am" overflow="visible"><path d="m10.046875-5.078125c0-3.5625-1.71875-5.53125-4.6875-5.53125-2.90625 0-4.65625 1.984375-4.65625 5.453125s1.734375 5.453125 4.671875 5.453125c2.890625 0 4.671875-1.984375 4.671875-5.375zm-1.71875-.015625c0 2.421875-1.140625 3.875-2.953125 3.875-1.828125 0-2.953125-1.4375-2.953125-3.9375 0-2.484375 1.125-3.9375 2.953125-3.9375 1.84375 0 2.953125 1.4375 2.953125 4zm-1.140625-9.28125h-2.21875l-1.890625 2.953125h1.171875zm3.234375 0h-2.234375l-1.890625 2.953125h1.1875zm0 0"/></symbol><symbol id="an" overflow="visible"><path d="m9.5625-10.3125h-1.84375l-2.921875 8.359375-2.75-8.359375h-1.84375l3.609375 10.3125h1.796875zm0 0"/></symbol><symbol id="ao" overflow="visible"><path d="m8.390625-3.6875v-10.671875h-1.828125v10.015625c0 2.359375-.8125 3.15625-2.21875 3.15625-1.375 0-2.140625-.921875-2.140625-2.59375v-.828125h-1.828125v1.171875c0 2.3125 1.453125 3.796875 3.953125 3.796875s4.0625-1.5625 4.0625-4.046875zm0 0"/></symbol><symbol id="ap" overflow="visible"><path d="m12.703125-4.375v-9.984375h-1.828125v9.984375c0 1.9375-1.40625 3.109375-3.703125 3.109375-2.15625 0-3.671875-1.015625-3.671875-3.109375v-9.984375h-1.828125v9.984375c0 2.921875 2.09375 4.734375 5.5 4.734375 3.359375 0 5.53125-1.859375 5.53125-4.734375zm-1.359375-13.65625h-2.6875l-2.265625 2.609375h1.421875zm0 0"/></symbol><symbol id="aq" overflow="visible"><path d="m6.3125-8.875v-1.671875c-.265625-.046875-.40625-.0625-.625-.0625-1.0625 0-1.875.625-2.8125 2.15625v-1.859375h-1.5v10.3125h1.640625v-5.359375c0-2.3125.765625-3.484375 3.296875-3.515625zm0 0"/></symbol><symbol id="ar" overflow="visible"><path d="m12.953125 0-5.90625-8.5 5.84375-5.859375h-2.359375l-7.140625 7.265625v-7.265625h-1.828125v14.359375h1.828125v-5.015625l2.34375-2.34375 5.046875 7.359375zm0 0"/></symbol><symbol id="as" overflow="visible"><path d="m9 0v-1.4375h-6.40625l6.125-7.421875v-1.453125h-7.6875v1.4375h5.734375l-6.15625 7.40625v1.46875zm0 0"/></symbol><symbol id="at" overflow="visible"><path d="m9.5625 0v-7.796875c0-1.734375-1.234375-2.8125-3.25-2.8125-1.453125 0-2.328125.453125-3.296875 1.703125v-5.453125h-1.640625v14.359375h1.640625v-5.6875c0-2.109375 1.09375-3.484375 2.796875-3.484375 1.15625 0 2.125.671875 2.125 2.03125v7.140625zm0 0"/></symbol><symbol id="au" overflow="visible"><path d="m3.5625 0v-10.3125h-1.640625v10.3125zm2.5-14.359375h-2.21875l-1.890625 2.921875h1.171875zm0 0"/></symbol><symbol id="av" overflow="visible"><path d="m9.484375 0v-10.3125h-1.625v5.6875c0 2.109375-1.109375 3.484375-2.8125 3.484375-1.3125 0-2.140625-.78125-2.140625-2.03125v-7.140625h-1.625v7.796875c0 1.703125 1.28125 2.8125 3.28125 2.8125 1.515625 0 2.484375-.53125 3.453125-1.890625v1.59375zm0 0"/></symbol><symbol id="aw" overflow="visible"><path d="m10.53125-.046875v-1.234375c-.171875.046875-.25.046875-.359375.046875-.5625 0-.875-.296875-.875-.8125v-5.75c0-1.828125-1.34375-2.8125-3.890625-2.8125-2.5 0-4.03125.96875-4.125 3.34375h1.65625c.140625-1.265625.875-1.828125 2.421875-1.828125 1.46875 0 2.296875.546875 2.296875 1.53125v.4375c0 .6875-.40625.984375-1.703125 1.140625-2.328125.296875-2.6875.375-3.3125.625-1.203125.5-1.8125 1.421875-1.8125 2.6875 0 1.859375 1.296875 2.96875 3.390625 2.96875 1.3125 0 2.59375-.546875 3.5-1.515625.171875.78125.890625 1.359375 1.6875 1.359375.34375 0 .59375-.046875 1.125-.1875zm-2.875-3.515625c0 1.46875-1.5 2.421875-3.09375 2.421875-1.28125 0-2.015625-.453125-2.015625-1.578125 0-1.078125.71875-1.546875 2.46875-1.8125 1.734375-.234375 2.09375-.3125 2.640625-.5625zm1.28125-10.796875h-2.21875l-1.890625 2.921875h1.171875zm0 0"/></symbol><symbol id="ax" overflow="visible"><path d="m10.53125-.046875v-1.234375c-.171875.046875-.25.046875-.359375.046875-.5625 0-.875-.296875-.875-.8125v-5.75c0-1.828125-1.34375-2.8125-3.890625-2.8125-2.5 0-4.03125.96875-4.125 3.34375h1.65625c.140625-1.265625.875-1.828125 2.421875-1.828125 1.46875 0 2.296875.546875 2.296875 1.53125v.4375c0 .6875-.40625.984375-1.703125 1.140625-2.328125.296875-2.6875.375-3.3125.625-1.203125.5-1.8125 1.421875-1.8125 2.6875 0 1.859375 1.296875 2.96875 3.390625 2.96875 1.3125 0 2.59375-.546875 3.5-1.515625.171875.78125.890625 1.359375 1.6875 1.359375.34375 0 .59375-.046875 1.125-.1875zm-2.875-3.515625c0 1.46875-1.5 2.421875-3.09375 2.421875-1.28125 0-2.015625-.453125-2.015625-1.578125 0-1.078125.71875-1.546875 2.46875-1.8125 1.734375-.234375 2.09375-.3125 2.640625-.5625zm0 0"/></symbol><symbol id="ay" overflow="visible"><path d="m3.796875 0v-14.359375h-1.828125v14.359375zm0 0"/></symbol><symbol id="az" overflow="visible"><path d="m10.046875-5.078125c0-3.5625-1.71875-5.53125-4.6875-5.53125-2.90625 0-4.65625 1.984375-4.65625 5.453125s1.734375 5.453125 4.671875 5.453125c2.890625 0 4.671875-1.984375 4.671875-5.375zm-1.71875-.015625c0 2.421875-1.140625 3.875-2.953125 3.875-1.828125 0-2.953125-1.4375-2.953125-3.9375 0-2.484375 1.125-3.9375 2.953125-3.9375 1.84375 0 2.953125 1.4375 2.953125 4zm.671875-9.265625h-2.234375l-1.890625 2.921875h1.1875zm0 0"/></symbol><symbol id="aA" overflow="visible"><path d="m9.40625-10.3125h-1.765625l-2.859375 8.03125-2.640625-8.03125h-1.75l3.484375 10.359375-.625 1.625c-.28125.734375-.609375 1-1.328125 1-.234375 0-.5-.03125-.859375-.109375v1.46875c.328125.1875.671875.265625 1.109375.265625 1.15625 0 2.09375-.65625 2.65625-2.125zm0 0"/></symbol><symbol id="aB" overflow="visible"><path d="m3.765625 0v-2.046875h-2.046875v2.046875zm0-8.265625v-2.046875h-2.046875v2.046875zm0 0"/></symbol><symbol id="aC" overflow="visible"><path d="m12.21875-3.9375c0-1.765625-1.09375-3.078125-3.046875-3.609375l-3.59375-.953125c-1.734375-.453125-2.375-1.03125-2.375-2.125 0-1.46875 1.28125-2.546875 3.21875-2.546875 2.28125 0 3.578125 1.046875 3.578125 2.921875h1.734375c0-2.828125-1.953125-4.453125-5.25-4.453125-3.15625 0-5.109375 1.734375-5.109375 4.328125 0 1.75.921875 2.859375 2.8125 3.34375l3.5625.953125c1.8125.46875 2.640625 1.203125 2.640625 2.3125 0 1.578125-1.171875 2.5-3.65625 2.5-2.71875 0-4.0625-1.359375-4.0625-3.40625h-1.734375c0 3.390625 2.296875 5.03125 5.671875 5.03125 3.640625 0 5.609375-1.734375 5.609375-4.296875zm0 0"/></symbol><symbol id="aD" overflow="visible"><path d=""/></symbol><symbol id="aE" overflow="visible"><path d="m5.59375-4.71875v-1.421875h-4.6875v1.421875zm0 0"/></symbol><symbol id="aF" overflow="visible"><path d="m10.296875-5.28125c0-3.34375-1.6875-5.328125-4.40625-5.328125-1.421875 0-2.421875.53125-3.1875 1.6875v-5.4375h-1.640625v14.359375h1.484375v-1.46875c.78125 1.1875 1.828125 1.765625 3.265625 1.765625 2.71875 0 4.484375-2.21875 4.484375-5.578125zm-1.71875.109375c0 2.34375-1.21875 3.9375-3 3.9375-1.734375 0-2.875-1.578125-2.875-3.921875 0-2.421875 1.140625-4 2.875-3.921875 1.828125 0 3 1.59375 3 3.90625zm0 0"/></symbol><symbol id="aG" overflow="visible"><path d="m10.046875-5.078125c0-3.5625-1.71875-5.53125-4.6875-5.53125-2.90625 0-4.65625 1.984375-4.65625 5.453125s1.734375 5.453125 4.671875 5.453125c2.890625 0 4.671875-1.984375 4.671875-5.375zm-1.71875-.015625c0 2.421875-1.140625 3.875-2.953125 3.875-1.828125 0-2.953125-1.4375-2.953125-3.9375 0-2.484375 1.125-3.9375 2.953125-3.9375 1.84375 0 2.953125 1.4375 2.953125 4zm-3.5625-6.796875v-2.015625h-1.796875v2.015625zm3.1875 0v-2.015625h-1.796875v2.015625zm0 0"/></symbol><symbol id="aH" overflow="visible"><path d="m11.40625-12.734375v-1.625h-9.640625v14.359375h1.84375v-6.53125h6.84375v-1.625h-6.84375v-4.578125zm0 0"/></symbol><symbol id="aI" overflow="visible"><path d="m12.859375 0-5.046875-14.359375h-2.359375l-5.125 14.359375h1.953125l1.515625-4.3125h5.53125l1.484375 4.3125zm-4.046875-5.84375h-4.5625l2.359375-6.546875zm0 0"/></symbol><symbol id="aJ" overflow="visible"><path d="m12.0625 0v-1.609375h-8.453125v-4.921875h7.8125v-1.625h-7.8125v-4.578125h8.109375v-1.625h-9.953125v14.359375zm-1.078125-18.03125h-2.671875l-2.265625 2.609375h1.421875zm0 0"/></symbol><symbol id="aK" overflow="visible"><path d="m3.765625 0v-2.046875h-2.046875v2.046875zm0 0"/></symbol><symbol id="aL" overflow="visible"><path d="m10.046875-5.078125c0-3.5625-1.71875-5.53125-4.6875-5.53125-2.90625 0-4.65625 1.984375-4.65625 5.453125s1.734375 5.453125 4.671875 5.453125c2.890625 0 4.671875-1.984375 4.671875-5.375zm-1.71875-.015625c0 2.421875-1.140625 3.875-2.953125 3.875-1.828125 0-2.953125-1.4375-2.953125-3.9375 0-2.484375 1.125-3.9375 2.953125-3.9375 1.84375 0 2.953125 1.4375 2.953125 4zm0 0"/></symbol><symbol id="aM" overflow="visible"><path d="m6.625 0v-12.421875h-1.625c-.390625 1.46875-1.671875 2.21875-3.8125 2.21875v1.625h2.984375v8.578125zm0 0"/></symbol><symbol id="aN" overflow="visible"><path d="m3.75 0v-2.5625h-2.625v2.5625zm0 0"/></symbol><g clip-path="url(#a)"><path d="m5.013021 12116.013021h9911.263021" fill="none" stroke="#000" stroke-linecap="round" stroke-miterlimit="10" stroke-width="10.0158" transform="matrix(.06 0 0 -.06 0 780.91)"/></g><g clip-path="url(#b)"><path d="m5.013021 12248.825521h9911.263021" fill="none" stroke="#000" stroke-linecap="round" stroke-miterlimit="10" stroke-width="10.0158" transform="matrix(.06 0 0 -.06 0 780.91)"/></g><g clip-path="url(#c)"><path d="m5.013021 12381.572917h9911.263021" fill="none" stroke="#000" stroke-linecap="round" stroke-miterlimit="10" stroke-width="10.0158" transform="matrix(.06 0 0 -.06 0 780.91)"/></g><g clip-path="url(#d)"><path d="m5.013021 12514.515625h9911.263021" fill="none" stroke="#000" stroke-linecap="round" stroke-miterlimit="10" stroke-width="10.0158" transform="matrix(.06 0 0 -.06 0 780.91)"/></g><g clip-path="url(#e)"><path d="m5.013021 12647.328125h9911.263021" fill="none" stroke="#000" stroke-linecap="round" stroke-miterlimit="10" stroke-width="10.0158" transform="matrix(.06 0 0 -.06 0 780.91)"/></g><use x="449.097898" xlink:href="#Q" y="34.024506"/><use x="446.647973" xlink:href="#W" y="82.910104"/><use x="451.069711" xlink:href="#X" y="82.910104"/><path d="m7488.28125 12092.575521h6.380208v325.976562h-6.380208zm0 0" style="fill:none;stroke-width:6.64176;stroke-linecap:round;stroke-linejoin:round;stroke:#000;stroke-miterlimit:10" transform="matrix(.06 0 0 -.06 0 780.91)"/><path d="m449.296875 55.355469h.382813v-19.558594h-.382813zm0 0"/><use x="494.91499" xlink:href="#Q" y="38.010514"/><use x="487.022164" xlink:href="#Y" y="82.911004"/><use x="497.906843" xlink:href="#X" y="82.911004"/><use x="508.791755" xlink:href="#Z" y="82.911004"/><path d="m8251.888021 11942.184896h6.380208v410.026041h-6.380208zm0 0" style="fill:none;stroke-width:6.64176;stroke-linecap:round;stroke-linejoin:round;stroke:#000;stroke-miterlimit:10" transform="matrix(.06 0 0 -.06 0 780.91)"/><path d="m495.113281 64.378906h.382813v-24.601562h-.382813zm0 0"/><path d="m6724.674479 12119.072917h6.380208v366.015625h-6.380208zm0 0" style="fill:none;stroke-width:6.64176;stroke-linecap:round;stroke-linejoin:round;stroke:#000;stroke-miterlimit:10" transform="matrix(.06 0 0 -.06 0 780.91)"/><path d="m403.480469 53.765625h.382812v-21.960937h-.382812zm0 0"/><use x="400.492801" xlink:href="#aa" y="82.910604"/><use x="405.595179" xlink:href="#X" y="82.910604"/><use x="403.283037" xlink:href="#Q" y="30.039998"/><path d="m5961.067708 12013.083333h6.380209v405.533854h-6.380209zm0 0" style="fill:none;stroke-width:6.64176;stroke-linecap:round;stroke-linejoin:round;stroke:#000;stroke-miterlimit:10" transform="matrix(.06 0 0 -.06 0 780.91)"/><path d="m357.664062 60.125h.382813v-24.332031h-.382813zm0 0"/><use x="344.301689" xlink:href="#ab" y="82.910604"/><use x="353.826009" xlink:href="#X" y="82.910604"/><use x="364.710892" xlink:href="#ac" y="82.910604"/><use x="375.595541" xlink:href="#ad" y="82.910604"/><use x="357.466815" xlink:href="#Q" y="34.025006"/><path d="m2394.075521 11723.630208h79.622396v4.947917h-79.622396zm0 0" style="fill:none;stroke-width:8.00996;stroke-linecap:round;stroke-linejoin:round;stroke:#000;stroke-miterlimit:10" transform="matrix(.06 0 0 -.06 0 780.91)"/><path d="m143.644531 77.492188h4.777344v-.296876h-4.777344zm0 0"/><path d="m3289.908854 11723.630208h79.6875v4.947917h-79.6875zm0 0" style="fill:none;stroke-width:8.00996;stroke-linecap:round;stroke-linejoin:round;stroke:#000;stroke-miterlimit:10" transform="matrix(.06 0 0 -.06 0 780.91)"/><path d="m197.394531 77.492188h4.78125v-.296876h-4.78125zm0 0"/><path d="m3828.710937 12781.768229v-57.096354h769.98698v57.096354zm0 0" fill="none" stroke="#000" stroke-linejoin="round" stroke-miterlimit="10" stroke-width="6.64176" transform="matrix(.06 0 0 -.06 0 780.91)"/><path d="m229.722656 14.003906v3.425782h46.199219v-3.425782zm0 0"/><path d="m4093.619792 11723.630208h79.6875v4.947917h-79.6875zm0 0" fill="none" stroke="#000" stroke-linejoin="round" stroke-miterlimit="10" stroke-width="8.00996" transform="matrix(.06 0 0 -.06 0 780.91)"/><path d="m245.617188 77.492188h4.78125v-.296876h-4.78125zm0 0"/><path d="m5197.526042 12011.716146v-57.096354l769.921875 26.757812v57.226563zm0 0" fill="none" stroke="#000" stroke-linejoin="round" stroke-miterlimit="10" stroke-width="6.64176" transform="matrix(.06 0 0 -.06 0 780.91)"/><path d="m311.851562 60.207031v3.425781l46.195313-1.605468v-3.433594zm0 0"/><path d="m5554.817708 11723.630208h79.6875v4.947917h-79.6875zm0 0" fill="none" stroke="#000" stroke-linejoin="round" stroke-miterlimit="10" stroke-width="8.00996" transform="matrix(.06 0 0 -.06 0 780.91)"/><path d="m333.289062 77.492188h4.78125v-.296876h-4.78125zm0 0"/><path d="m6724.674479 12144.528646v-57.096354l769.986979-26.953125v57.226562zm0 0" fill="none" stroke="#000" stroke-linejoin="round" stroke-miterlimit="10" stroke-width="6.64176" transform="matrix(.06 0 0 -.06 0 780.91)"/><path d="m403.480469 52.238281v3.425781l46.199219 1.617188v-3.433594zm0 0"/><path d="m7152.864583 11723.630208h79.6875v4.947917h-79.6875zm0 0" fill="none" stroke="#000" stroke-linejoin="round" stroke-miterlimit="10" stroke-width="8.00996" transform="matrix(.06 0 0 -.06 0 780.91)"/><path d="m429.171875 77.492188h4.78125v-.296876h-4.78125zm0 0"/><path d="m7868.294271 11723.630208h79.6875v4.947917h-79.6875zm0 0" fill="none" stroke="#000" stroke-linejoin="round" stroke-miterlimit="10" stroke-width="8.00996" transform="matrix(.06 0 0 -.06 0 780.91)"/><path d="m472.097656 77.492188h4.78125v-.296876h-4.78125zm0 0"/><path d="m8686.197917 11723.630208h79.622395v4.947917h-79.622395zm0 0" fill="none" stroke="#000" stroke-linejoin="round" stroke-miterlimit="10" stroke-width="8.00996" transform="matrix(.06 0 0 -.06 0 780.91)"/><path d="m521.171875 77.492188h4.777344v-.296876h-4.777344zm0 0"/><use x="583.322167" xlink:href="#R" y="30.039498"/><path d="m9247.65625 12344.723958h6.380208v432.096354h-6.380208zm0 0" fill="none" stroke="#000" stroke-linejoin="round" stroke-miterlimit="10" stroke-width="6.64176" transform="matrix(.06 0 0 -.06 0 780.91)"/><path d="m554.859375 40.226562h.382813v-25.925781h-.382813zm0 0"/><use x="533.911068" xlink:href="#ae" y="82.910604"/><use x="550.238882" xlink:href="#X" y="82.910604"/><use x="561.123561" xlink:href="#af" y="82.910604"/><use x="545.03499" xlink:href="#Q" y="41.995022"/><path d="m1307.161458 12278.317708h6.380209v432.161459h-6.380209zm0 0" fill="none" stroke="#000" stroke-linejoin="round" stroke-miterlimit="10" stroke-width="6.64176" transform="matrix(.06 0 0 -.06 0 780.91)"/><path d="m78.429688 44.210938h.382812v-25.929688h-.382812zm0 0"/><path d="m5197.460937 11986.716146h6.380209v365.494791h-6.380209zm0 0" fill="none" stroke="#000" stroke-linejoin="round" stroke-miterlimit="10" stroke-width="6.64176" transform="matrix(.06 0 0 -.06 0 780.91)"/><path d="m311.847656 61.707031h.382813v-21.929687h-.382813zm0 0"/><use x="117.085234" xlink:href="#Y" y="82.910604"/><use x="127.970118" xlink:href="#ag" y="82.910604"/><use x="119.535399" xlink:href="#Q" y="38.010114"/><path d="m1995.572917 11942.184896h6.380208v410.026041h-6.380208zm0 0" fill="none" stroke="#000" stroke-linejoin="round" stroke-miterlimit="10" stroke-width="6.64176" transform="matrix(.06 0 0 -.06 0 780.91)"/><path d="m119.734375 64.378906h.382813v-24.601562h-.382813zm0 0"/><use x="43.555887" xlink:href="#aM" y="82.910604"/><use x="53.250811" xlink:href="#aN" y="82.910604"/><use x="66.152932" xlink:href="#ah" y="82.910604"/><use x="35.09797" xlink:href="#S" y="38.010114"/><use x="42.301505" xlink:href="#S" y="26.05489"/><use x="6.376233" xlink:href="#T" y="45.98013"/><use x="68.602754" xlink:href="#Q" y="45.98013"/><use x="306.649833" xlink:href="#aa" y="82.910704"/><use x="311.752445" xlink:href="#X" y="82.910704"/><use x="322.637094" xlink:href="#Z" y="82.910704"/><use x="311.651173" xlink:href="#Q" y="38.010214"/><path d="m4592.317708 12344.723958h6.380209v405.273438h-6.380209zm0 0" fill="none" stroke="#000" stroke-linejoin="round" stroke-miterlimit="10" stroke-width="6.64176" transform="matrix(.06 0 0 -.06 0 780.91)"/><path d="m275.539062 40.226562h.382813v-24.316406h-.382813zm0 0"/><use x="255.09951" xlink:href="#ac" y="82.910604"/><use x="265.984394" xlink:href="#X" y="82.910604"/><use x="276.869043" xlink:href="#ab" y="82.910604"/><use x="265.713431" xlink:href="#Q" y="41.995022"/><path d="m3828.710937 12344.723958h6.380209v405.273438h-6.380209zm0 0" fill="none" stroke="#000" stroke-linejoin="round" stroke-miterlimit="10" stroke-width="6.64176" transform="matrix(.06 0 0 -.06 0 780.91)"/><path d="m229.722656 40.226562h.382813v-24.316406h-.382813zm0 0"/><use x="219.89844" xlink:href="#Q" y="41.994522"/><use x="169.77744" xlink:href="#Q" y="38.009674"/><use x="209.284519" xlink:href="#ai" y="82.910164"/><use x="219.149166" xlink:href="#aj" y="82.910164"/><use x="230.03405" xlink:href="#ak" y="82.910164"/><path d="m2832.942708 11942.184896h6.380209v410.026041h-6.380209zm0 0" fill="none" stroke="#000" stroke-linejoin="round" stroke-miterlimit="10" stroke-width="6.64176" transform="matrix(.06 0 0 -.06 0 780.91)"/><path d="m169.976562 64.378906h.382813v-24.601562h-.382813zm0 0"/><use x="159.673319" xlink:href="#al" y="82.910604"/><use x="169.537967" xlink:href="#ai" y="82.910604"/><use x="179.402615" xlink:href="#am" y="82.910604"/><g clip-path="url(#f)"><path d="m5.013021 10521.872396h9911.263021" style="fill:none;stroke-width:10.0158;stroke-linecap:round;stroke-linejoin:round;stroke:#000;stroke-miterlimit:10" transform="matrix(.06 0 0 -.06 0 780.91)"/></g><g clip-path="url(#g)"><path d="m5.013021 10654.815104h9911.263021" style="fill:none;stroke-width:10.0158;stroke-linecap:round;stroke-linejoin:round;stroke:#000;stroke-miterlimit:10" transform="matrix(.06 0 0 -.06 0 780.91)"/></g><g clip-path="url(#h)"><path d="m5.013021 10787.627604h9911.263021" style="fill:none;stroke-width:10.0158;stroke-linecap:round;stroke-linejoin:round;stroke:#000;stroke-miterlimit:10" transform="matrix(.06 0 0 -.06 0 780.91)"/></g><g clip-path="url(#i)"><path d="m5.013021 10920.505208h9911.263021" style="fill:none;stroke-width:10.0158;stroke-linecap:round;stroke-linejoin:round;stroke:#000;stroke-miterlimit:10" transform="matrix(.06 0 0 -.06 0 780.91)"/></g><g clip-path="url(#j)"><path d="m5.013021 11053.317708h9911.263021" style="fill:none;stroke-width:10.0158;stroke-linecap:round;stroke-linejoin:round;stroke:#000;stroke-miterlimit:10" transform="matrix(.06 0 0 -.06 0 780.91)"/></g><use x="450.672901" xlink:href="#Q" y="141.621721"/><use x="444.99164" xlink:href="#ak" y="177.807694"/><use x="455.876524" xlink:href="#X" y="177.807694"/><path d="m7674.934896 10684.177083h6.380208v366.015625h-6.380208zm0 0" style="fill:none;stroke-width:6.64176;stroke-linecap:round;stroke-linejoin:round;stroke:#000;stroke-miterlimit:10" transform="matrix(.06 0 0 -.06 0 780.91)"/><path d="m460.496094 139.859375h.382812v-21.960937h-.382812zm0 0"/><use x="495.966992" xlink:href="#Q" y="137.636713"/><use x="488.074866" xlink:href="#Y" y="177.807694"/><use x="498.959779" xlink:href="#X" y="177.807694"/><use x="509.844458" xlink:href="#Z" y="177.807694"/><path d="m8429.882812 10750.713542h6.380209v432.161458h-6.380209zm0 0" style="fill:none;stroke-width:6.64176;stroke-linecap:round;stroke-linejoin:round;stroke:#000;stroke-miterlimit:10" transform="matrix(.06 0 0 -.06 0 780.91)"/><path d="m505.789062 135.875h.382813v-25.929688h-.382813zm0 0"/><path d="m6920.052083 10750.713542h6.380209v325.976562h-6.380209zm0 0" style="fill:none;stroke-width:6.64176;stroke-linecap:round;stroke-linejoin:round;stroke:#000;stroke-miterlimit:10" transform="matrix(.06 0 0 -.06 0 780.91)"/><path d="m415.203125 135.875h.382813v-19.558594h-.382813zm0 0"/><use x="400.2078" xlink:href="#ai" y="177.807794"/><use x="410.072199" xlink:href="#X" y="177.807794"/><use x="405.378831" xlink:href="#Q" y="137.636813"/><path d="m6006.770833 10392.380208h6.315104v365.755209h-6.315104zm0 0" style="fill:none;stroke-width:6.64176;stroke-linecap:round;stroke-linejoin:round;stroke:#000;stroke-miterlimit:10" transform="matrix(.06 0 0 -.06 0 780.91)"/><path d="m360.40625 157.367188h.378906v-21.945313h-.378906zm0 0"/><use x="350.272701" xlink:href="#an" y="177.807794"/><use x="359.79702" xlink:href="#X" y="177.807794"/><use x="370.681904" xlink:href="#ab" y="177.807794"/><use x="360.206" xlink:href="#Q" y="133.651705"/><path d="m2121.419271 11108.721354v-57.096354l794.53125 79.101562v57.096355zm0 0" fill="none" stroke="#000" stroke-linejoin="round" stroke-miterlimit="10" stroke-width="6.64176" transform="matrix(.06 0 0 -.06 0 780.91)"/><path d="m127.285156 114.386719v3.425781l47.671875-4.746094v-3.425781zm0 0"/><path d="m2357.552083 10141.989583h79.622396v5.013021h-79.622396zm0 0" fill="none" stroke="#000" stroke-linejoin="round" stroke-miterlimit="10" stroke-width="8.00996" transform="matrix(.06 0 0 -.06 0 780.91)"/><path d="m141.453125 172.390625h4.777344v-.300781h-4.777344zm0 0"/><path d="m4097.916667 10141.989583h79.6875v5.013021h-79.6875zm0 0" fill="none" stroke="#000" stroke-linejoin="round" stroke-miterlimit="10" stroke-width="8.00996" transform="matrix(.06 0 0 -.06 0 780.91)"/><path d="m245.875 172.390625h4.78125v-.300781h-4.78125zm0 0"/><path d="m5251.822917 10360.609375h761.26302v57.096354h-761.26302zm0 0" fill="none" stroke="#000" stroke-linejoin="round" stroke-miterlimit="10" stroke-width="6.64176" transform="matrix(.06 0 0 -.06 0 780.91)"/><path d="m315.109375 159.273438h45.675781v-3.425782h-45.675781zm0 0"/><path d="m5614.778646 10141.989583h79.622396v5.013021h-79.622396zm0 0" fill="none" stroke="#000" stroke-linejoin="round" stroke-miterlimit="10" stroke-width="8.00996" transform="matrix(.06 0 0 -.06 0 780.91)"/><path d="m336.882812 172.390625h4.78125v-.300781h-4.78125zm0 0"/><path d="m6920.052083 11108.721354v-57.096354l761.263021-26.953125v57.226562zm0 0" fill="none" stroke="#000" stroke-linejoin="round" stroke-miterlimit="10" stroke-width="6.64176" transform="matrix(.06 0 0 -.06 0 780.91)"/><path d="m415.203125 114.386719v3.425781l45.675781 1.617188v-3.433594zm0 0"/><path d="m7176.367187 10141.989583h79.6875v5.013021h-79.6875zm0 0" fill="none" stroke="#000" stroke-linejoin="round" stroke-miterlimit="10" stroke-width="8.00996" transform="matrix(.06 0 0 -.06 0 780.91)"/><path d="m430.582031 172.390625h4.78125v-.300781h-4.78125zm0 0"/><path d="m7917.122396 10141.989583h79.622396v5.013021h-79.622396zm0 0" fill="none" stroke="#000" stroke-linejoin="round" stroke-miterlimit="10" stroke-width="8.00996" transform="matrix(.06 0 0 -.06 0 780.91)"/><path d="m475.027344 172.390625h4.777344v-.300781h-4.777344zm0 0"/><path d="m8699.869792 10141.989583h79.622395v5.013021h-79.622395zm0 0" fill="none" stroke="#000" stroke-linejoin="round" stroke-miterlimit="10" stroke-width="8.00996" transform="matrix(.06 0 0 -.06 0 780.91)"/><path d="m521.992188 172.390625h4.777343v-.300781h-4.777343zm0 0"/><use x="583.322167" xlink:href="#U" y="133.651705"/><path d="m9257.421875 10684.177083h6.380208v432.161459h-6.380208zm0 0" fill="none" stroke="#000" stroke-linejoin="round" stroke-miterlimit="10" stroke-width="6.64176" transform="matrix(.06 0 0 -.06 0 780.91)"/><path d="m555.445312 139.859375h.382813v-25.929687h-.382813zm0 0"/><use x="534.498069" xlink:href="#ae" y="177.807794"/><use x="550.825649" xlink:href="#X" y="177.807794"/><use x="561.710328" xlink:href="#af" y="177.807794"/><use x="545.621991" xlink:href="#Q" y="141.621821"/><path d="m5251.822917 10392.380208h6.380208v365.755209h-6.380208zm0 0" fill="none" stroke="#000" stroke-linejoin="round" stroke-miterlimit="10" stroke-width="6.64176" transform="matrix(.06 0 0 -.06 0 780.91)"/><path d="m315.109375 157.367188h.382813v-21.945313h-.382813zm0 0"/><use x="112.289225" xlink:href="#ao" y="177.807794"/><use x="122.153872" xlink:href="#aj" y="177.807794"/><use x="117.460255" xlink:href="#Q" y="141.621821"/><path d="m1293.880208 10617.770833h6.380209v432.161459h-6.380209zm0 0" fill="none" stroke="#000" stroke-linejoin="round" stroke-miterlimit="10" stroke-width="6.64176" transform="matrix(.06 0 0 -.06 0 780.91)"/><path d="m77.632812 143.84375h.378907v-25.929688h-.378907zm0 0"/><use x="62.549625" xlink:href="#ap" y="177.807794"/><use x="76.83601" xlink:href="#aq" y="177.807794"/><use x="67.805726" xlink:href="#Q" y="145.606929"/><path d="m2121.419271 10684.177083h6.380208v393.294271h-6.380208zm0 0" fill="none" stroke="#000" stroke-linejoin="round" stroke-miterlimit="10" stroke-width="6.64176" transform="matrix(.06 0 0 -.06 0 780.91)"/><path d="m127.285156 139.859375h.382813v-23.597656h-.382813zm0 0"/><use x="35.09797" xlink:href="#S" y="133.651705"/><use x="42.301505" xlink:href="#S" y="121.696682"/><use x="6.376233" xlink:href="#T" y="141.621921"/><use x="198.010616" xlink:href="#ar" y="177.807894"/><use x="211.106368" xlink:href="#aq" y="177.807894"/><use x="217.738974" xlink:href="#ag" y="177.807894"/><use x="222.160945" xlink:href="#ai" y="177.807894"/><use x="232.025593" xlink:href="#as" y="177.807894"/><use x="311.951796" xlink:href="#at" y="177.807894"/><use x="322.83668" xlink:href="#au" y="177.807894"/><use x="314.91185" xlink:href="#Q" y="133.651805"/><path d="m4424.21875 10392.380208h6.380208v432.161459h-6.380208zm0 0" fill="none" stroke="#000" stroke-linejoin="round" stroke-miterlimit="10" stroke-width="6.64176" transform="matrix(.06 0 0 -.06 0 780.91)"/><path d="m265.453125 157.367188h.382813v-25.929688h-.382813zm0 0"/><use x="254.643509" xlink:href="#ad" y="177.807794"/><use x="260.0862" xlink:href="#av" y="177.807794"/><use x="270.971084" xlink:href="#ai" y="177.807794"/><use x="280.835717" xlink:href="#af" y="177.807794"/><use x="265.257231" xlink:href="#Q" y="129.666598"/><path d="m3742.838542 10750.713542h6.380208v432.161458h-6.380208zm0 0" fill="none" stroke="#000" stroke-linejoin="round" stroke-miterlimit="10" stroke-width="6.64176" transform="matrix(.06 0 0 -.06 0 780.91)"/><path d="m224.570312 135.875h.382813v-25.929688h-.382813zm0 0"/><use x="214.747429" xlink:href="#Q" y="137.636713"/><path d="m2909.570312 10817.119792h6.315105v338.216145h-6.315105zm0 0" fill="none" stroke="#000" stroke-linejoin="round" stroke-miterlimit="10" stroke-width="6.64176" transform="matrix(.06 0 0 -.06 0 780.91)"/><path d="m174.574219 131.882812h.378906v-20.292968h-.378906zm0 0"/><use x="164.747329" xlink:href="#Q" y="133.651705"/><use x="154.644309" xlink:href="#as" y="177.807794"/><use x="164.508957" xlink:href="#av" y="177.807794"/><use x="175.393606" xlink:href="#ai" y="177.807794"/><g clip-path="url(#k)"><path d="m5.013021 8927.927083h9911.263021" style="fill:none;stroke-width:10.0158;stroke-linecap:round;stroke-linejoin:round;stroke:#000;stroke-miterlimit:10" transform="matrix(.06 0 0 -.06 0 780.91)"/></g><g clip-path="url(#l)"><path d="m5.013021 9060.739583h9911.263021" style="fill:none;stroke-width:10.0158;stroke-linecap:round;stroke-linejoin:round;stroke:#000;stroke-miterlimit:10" transform="matrix(.06 0 0 -.06 0 780.91)"/></g><g clip-path="url(#m)"><path d="m5.013021 9193.617187h9911.263021" style="fill:none;stroke-width:10.0158;stroke-linecap:round;stroke-linejoin:round;stroke:#000;stroke-miterlimit:10" transform="matrix(.06 0 0 -.06 0 780.91)"/></g><g clip-path="url(#n)"><path d="m5.013021 9326.429687h9911.263021" style="fill:none;stroke-width:10.0158;stroke-linecap:round;stroke-linejoin:round;stroke:#000;stroke-miterlimit:10" transform="matrix(.06 0 0 -.06 0 780.91)"/></g><g clip-path="url(#o)"><path d="m5.013021 9459.242187h9911.263021" style="fill:none;stroke-width:10.0158;stroke-linecap:round;stroke-linejoin:round;stroke:#000;stroke-miterlimit:10" transform="matrix(.06 0 0 -.06 0 780.91)"/></g><use x="428.279857" xlink:href="#an" y="277.129992"/><use x="437.804176" xlink:href="#aw" y="277.129992"/><use x="448.688826" xlink:href="#Z" y="277.129992"/><use x="453.110797" xlink:href="#ad" y="277.129992"/><path d="m7467.317708 9023.760417h6.380209v326.041666h-6.380209zm0 0" style="fill:none;stroke-width:6.64176;stroke-linecap:round;stroke-linejoin:round;stroke:#000;stroke-miterlimit:10" transform="matrix(.06 0 0 -.06 0 780.91)"/><path d="m448.039062 239.484375h.382813v-19.5625h-.382813zm0 0"/><use x="488.889978" xlink:href="#Q" y="245.232929"/><use x="478.276057" xlink:href="#ai" y="277.129292"/><use x="488.14069" xlink:href="#aw" y="277.129292"/><use x="499.025602" xlink:href="#ak" y="277.129292"/><path d="m8311.914062 8957.354167h6.380209v365.95052h-6.380209zm0 0" style="fill:none;stroke-width:6.64176;stroke-linecap:round;stroke-linejoin:round;stroke:#000;stroke-miterlimit:10" transform="matrix(.06 0 0 -.06 0 780.91)"/><path d="m498.714844 243.46875h.382812v-21.957031h-.382812zm0 0"/><use x="336.859674" xlink:href="#Q" y="241.247921"/><use x="438.21245" xlink:href="#Q" y="241.247921"/><path d="m6622.721354 9090.231771h6.315104v365.494791h-6.315104zm0 0" style="fill:none;stroke-width:6.64176;stroke-linecap:round;stroke-linejoin:round;stroke:#000;stroke-miterlimit:10" transform="matrix(.06 0 0 -.06 0 780.91)"/><path d="m397.359375 235.496094h.382813v-21.929688h-.382813zm0 0"/><use x="376.922754" xlink:href="#Y" y="277.129992"/><use x="387.807403" xlink:href="#X" y="277.129992"/><use x="398.692287" xlink:href="#Z" y="277.129992"/><use x="403.114024" xlink:href="#ad" y="277.129992"/><use x="387.536475" xlink:href="#Q" y="237.263413"/><path d="m5778.059896 9023.760417h6.380208v405.533854h-6.380208zm0 0" style="fill:none;stroke-width:6.64176;stroke-linecap:round;stroke-linejoin:round;stroke:#000;stroke-miterlimit:10" transform="matrix(.06 0 0 -.06 0 780.91)"/><path d="m346.683594 239.484375h.382812v-24.332031h-.382812zm0 0"/><use x="328.031656" xlink:href="#aq" y="277.129992"/><use x="334.324886" xlink:href="#X" y="277.129992"/><use x="345.209769" xlink:href="#ac" y="277.129992"/><path d="m2073.4375 8766.533854h850.976562v57.096354h-850.976562zm0 0" fill="none" stroke="#000" stroke-linejoin="round" stroke-miterlimit="10" stroke-width="6.64176" transform="matrix(.06 0 0 -.06 0 780.91)"/><path d="m124.40625 254.917969h51.058594v-3.425781h-51.058594zm0 0"/><path d="m4220.247396 8486.651042h79.6875v5.01302h-79.6875zm0 0" fill="none" stroke="#000" stroke-linejoin="round" stroke-miterlimit="10" stroke-width="8.00996" transform="matrix(.06 0 0 -.06 0 780.91)"/><path d="m253.214844 271.710938h4.78125v-.300782h-4.78125zm0 0"/><path d="m5778.059896 9460.934896v-57.096354l850.976562 26.88802v57.096355zm0 0" fill="none" stroke="#000" stroke-linejoin="round" stroke-miterlimit="10" stroke-width="6.64176" transform="matrix(.06 0 0 -.06 0 780.91)"/><path d="m346.683594 213.253906v3.425782l51.058594-1.613282v-3.425781zm0 0"/><path d="m6068.619792 8486.651042h79.6875v5.01302h-79.6875zm0 0" fill="none" stroke="#000" stroke-linejoin="round" stroke-miterlimit="10" stroke-width="8.00996" transform="matrix(.06 0 0 -.06 0 780.91)"/><path d="m364.117188 271.710938h4.78125v-.300782h-4.78125zm0 0"/><path d="m7467.317708 9381.833333v-57.096354l850.976563-26.888021v57.161459zm0 0" fill="none" stroke="#000" stroke-linejoin="round" stroke-miterlimit="10" stroke-width="6.64176" transform="matrix(.06 0 0 -.06 0 780.91)"/><path d="m448.039062 218v3.425781l51.058594 1.613281v-3.429687zm0 0"/><path d="m7767.057292 8486.651042h79.6875v5.01302h-79.6875zm0 0" fill="none" stroke="#000" stroke-linejoin="round" stroke-miterlimit="10" stroke-width="8.00996" transform="matrix(.06 0 0 -.06 0 780.91)"/><path d="m466.023438 271.710938h4.78125v-.300782h-4.78125zm0 0"/><path d="m8676.888021 8486.651042h79.622396v5.01302h-79.622396zm0 0" fill="none" stroke="#000" stroke-linejoin="round" stroke-miterlimit="10" stroke-width="8.00996" transform="matrix(.06 0 0 -.06 0 780.91)"/><path d="m520.613281 271.710938h4.777344v-.300782h-4.777344zm0 0"/><use x="539.566079" xlink:href="#Q" y="249.218937"/><use x="583.321367" xlink:href="#R" y="221.323381"/><path d="m9156.510417 8890.947917h6.380208v432.161458h-6.380208zm0 0" fill="none" stroke="#000" stroke-linejoin="round" stroke-miterlimit="10" stroke-width="6.64176" transform="matrix(.06 0 0 -.06 0 780.91)"/><path d="m549.390625 247.453125h.382813v-25.929687h-.382813zm0 0"/><use x="536.096072" xlink:href="#aq" y="277.129992"/><use x="542.558961" xlink:href="#ax" y="277.129992"/><path d="m2073.4375 8798.434896h6.380208v365.690104h-6.380208zm0 0" fill="none" stroke="#000" stroke-linejoin="round" stroke-miterlimit="10" stroke-width="6.64176" transform="matrix(.06 0 0 -.06 0 780.91)"/><path d="m124.40625 253.003906h.382812v-21.941406h-.382812zm0 0"/><use x="119.035238" xlink:href="#ax" y="277.129992"/><use x="129.919887" xlink:href="#as" y="277.129992"/><use x="124.206268" xlink:href="#Q" y="229.293297"/><path d="m1293.880208 9090.231771h6.380209v432.161458h-6.380209zm0 0" fill="none" stroke="#000" stroke-linejoin="round" stroke-miterlimit="10" stroke-width="6.64176" transform="matrix(.06 0 0 -.06 0 780.91)"/><path d="m77.632812 235.496094h.378907v-25.929688h-.378907zm0 0"/><use x="61.529423" xlink:href="#ar" y="277.129992"/><use x="74.625175" xlink:href="#ag" y="277.129992"/><use x="79.046912" xlink:href="#ad" y="277.129992"/><use x="67.805766" xlink:href="#Q" y="237.263413"/><use x="35.098" xlink:href="#S" y="229.293237"/><use x="42.301535" xlink:href="#S" y="217.338013"/><use x="6.376263" xlink:href="#T" y="237.263453"/><use x="281.149517" xlink:href="#Q" y="237.263453"/><path d="m3921.09375 9156.638021h6.380208v432.161458h-6.380208zm0 0" fill="none" stroke="#000" stroke-linejoin="round" stroke-miterlimit="10" stroke-width="6.64176" transform="matrix(.06 0 0 -.06 0 780.91)"/><path d="m235.265625 231.511719h.382813v-25.929688h-.382813zm0 0"/><use x="222.989446" xlink:href="#ay" y="277.129992"/><use x="228.432357" xlink:href="#ai" y="277.129992"/><use x="225.439371" xlink:href="#Q" y="233.278305"/><path d="m2918.033854 8798.434896h6.380208v365.690104h-6.380208zm0 0" fill="none" stroke="#000" stroke-linejoin="round" stroke-miterlimit="10" stroke-width="6.64176" transform="matrix(.06 0 0 -.06 0 780.91)"/><path d="m175.082031 253.003906h.382813v-21.941406h-.382813zm0 0"/><use x="169.627339" xlink:href="#ap" y="277.129992"/><use x="183.913958" xlink:href="#aq" y="277.129992"/><use x="272.917321" xlink:href="#ad" y="277.129992"/><use x="278.019933" xlink:href="#X" y="277.129992"/><use x="288.904583" xlink:href="#ac" y="277.129992"/><use x="174.88368" xlink:href="#Q" y="229.293297"/><path d="m4849.544271 9090.231771h6.380208v432.161458h-6.380208zm0 0" fill="none" stroke="#000" stroke-linejoin="round" stroke-miterlimit="10" stroke-width="6.64176" transform="matrix(.06 0 0 -.06 0 780.91)"/><path d="m290.972656 235.496094h.382813v-25.929688h-.382813zm0 0"/><g clip-path="url(#p)"><path d="m5.013021 7333.916667h9911.263021" style="fill:none;stroke-width:10.0158;stroke-linecap:round;stroke-linejoin:round;stroke:#000;stroke-miterlimit:10" transform="matrix(.06 0 0 -.06 0 780.91)"/></g><g clip-path="url(#q)"><path d="m5.013021 7466.729167h9911.263021" style="fill:none;stroke-width:10.0158;stroke-linecap:round;stroke-linejoin:round;stroke:#000;stroke-miterlimit:10" transform="matrix(.06 0 0 -.06 0 780.91)"/></g><g clip-path="url(#r)"><path d="m5.013021 7599.541667h9911.263021" style="fill:none;stroke-width:10.0158;stroke-linecap:round;stroke-linejoin:round;stroke:#000;stroke-miterlimit:10" transform="matrix(.06 0 0 -.06 0 780.91)"/></g><g clip-path="url(#s)"><path d="m5.013021 7732.419271h9911.263021" style="fill:none;stroke-width:10.0158;stroke-linecap:round;stroke-linejoin:round;stroke:#000;stroke-miterlimit:10" transform="matrix(.06 0 0 -.06 0 780.91)"/></g><g clip-path="url(#t)"><path d="m5.013021 7865.231771h9911.263021" style="fill:none;stroke-width:10.0158;stroke-linecap:round;stroke-linejoin:round;stroke:#000;stroke-miterlimit:10" transform="matrix(.06 0 0 -.06 0 780.91)"/></g><g clip-path="url(#u)"><path d="m9891.210937 7333.916667v531.315104" fill="none" stroke="#000" stroke-linejoin="round" stroke-miterlimit="10" stroke-width="60.0548" transform="matrix(.06 0 0 -.06 0 780.91)"/></g><use x="435.15387" xlink:href="#Q" y="332.905104"/><use x="432.279025" xlink:href="#ad" y="368.770676"/><use x="437.551323" xlink:href="#az" y="368.770676"/><path d="m7416.341146 7496.221354h6.315104v365.494792h-6.315104zm0 0" fill="none" stroke="#000" stroke-linejoin="round" stroke-miterlimit="10" stroke-width="6.64176" transform="matrix(.06 0 0 -.06 0 780.91)"/><path d="m444.980469 331.136719h.378906v-21.929688h-.378906zm0 0"/><use x="485.14597" xlink:href="#Q" y="336.890112"/><use x="474.532049" xlink:href="#ai" y="368.770576"/><use x="484.396682" xlink:href="#aw" y="368.770576"/><use x="495.281595" xlink:href="#ak" y="368.770576"/><path d="m8249.479167 7429.75h6.380208v405.46875h-6.380208zm0 0" fill="none" stroke="#000" stroke-linejoin="round" stroke-miterlimit="10" stroke-width="6.64176" transform="matrix(.06 0 0 -.06 0 780.91)"/><path d="m494.96875 335.125h.382812v-24.328125h-.382812zm0 0"/><path d="m6583.138021 7496.221354h6.380208v365.885417h-6.380208zm0 0" fill="none" stroke="#000" stroke-linejoin="round" stroke-miterlimit="10" stroke-width="6.64176" transform="matrix(.06 0 0 -.06 0 780.91)"/><path d="m394.988281 331.136719h.382813v-21.953125h-.382813zm0 0"/><use x="374.548749" xlink:href="#ae" y="368.770176"/><use x="390.8763" xlink:href="#aj" y="368.770176"/><use x="401.760949" xlink:href="#Z" y="368.770176"/><use x="385.16177" xlink:href="#Q" y="332.904604"/><path d="m5749.934896 7562.627604h6.380208v325.976563h-6.380208zm0 0" fill="none" stroke="#000" stroke-linejoin="round" stroke-miterlimit="10" stroke-width="6.64176" transform="matrix(.06 0 0 -.06 0 780.91)"/><path d="m344.996094 327.152344h.382812v-19.558594h-.382812zm0 0"/><use x="319.114638" xlink:href="#ac" y="368.770176"/><use x="329.999522" xlink:href="#ax" y="368.770176"/><use x="340.884171" xlink:href="#ak" y="368.770176"/><use x="351.769055" xlink:href="#aA" y="368.770176"/><use x="335.17057" xlink:href="#Q" y="328.919596"/><path d="m2242.708333 7809.828125h839.583334v57.096354h-839.583334zm0 0" fill="none" stroke="#000" stroke-linejoin="round" stroke-miterlimit="10" stroke-width="6.64176" transform="matrix(.06 0 0 -.06 0 780.91)"/><path d="m134.5625 312.320312h50.375v-3.425781h-50.375zm0 0"/><path d="m2433.333333 6959.307292h79.622396v5.01302h-79.622396zm0 0" fill="none" stroke="#000" stroke-linejoin="round" stroke-miterlimit="10" stroke-width="8.00996" transform="matrix(.06 0 0 -.06 0 780.91)"/><path d="m146 363.351562h4.777344v-.300781h-4.777344zm0 0"/><path d="m4192.057292 6959.307292h79.622395v5.01302h-79.622395zm0 0" fill="none" stroke="#000" stroke-linejoin="round" stroke-miterlimit="10" stroke-width="8.00996" transform="matrix(.06 0 0 -.06 0 780.91)"/><path d="m251.523438 363.351562h4.777343v-.300781h-4.777343zm0 0"/><path d="m5749.934896 7920.700521v-57.161459l839.583333-26.88802v57.161458zm0 0" fill="none" stroke="#000" stroke-linejoin="round" stroke-miterlimit="10" stroke-width="6.64176" transform="matrix(.06 0 0 -.06 0 780.91)"/><path d="m344.996094 305.667969v3.429687l50.375 1.613282v-3.429688zm0 0"/><path d="m6947.330729 6959.307292h79.6875v5.01302h-79.6875zm0 0" fill="none" stroke="#000" stroke-linejoin="round" stroke-miterlimit="10" stroke-width="8.00996" transform="matrix(.06 0 0 -.06 0 780.91)"/><path d="m416.839844 363.351562h4.78125v-.300781h-4.78125zm0 0"/><path d="m7416.341146 7893.8125v-57.161458l839.518229-26.822917v57.096354zm0 0" fill="none" stroke="#000" stroke-linejoin="round" stroke-miterlimit="10" stroke-width="6.64176" transform="matrix(.06 0 0 -.06 0 780.91)"/><path d="m444.980469 307.28125v3.429688l50.371093 1.609374v-3.425781zm0 0"/><path d="m7651.5625 6959.307292h79.622396v5.01302h-79.622396zm0 0" fill="none" stroke="#000" stroke-linejoin="round" stroke-miterlimit="10" stroke-width="8.00996" transform="matrix(.06 0 0 -.06 0 780.91)"/><path d="m459.09375 363.351562h4.777344v-.300781h-4.777344zm0 0"/><path d="m8586.067708 6959.307292h79.6875v5.01302h-79.6875zm0 0" fill="none" stroke="#000" stroke-linejoin="round" stroke-miterlimit="10" stroke-width="8.00996" transform="matrix(.06 0 0 -.06 0 780.91)"/><path d="m515.164062 363.351562h4.78125v-.300781h-4.78125zm0 0"/><path d="m9082.682292 7496.221354h6.380208v432.096354h-6.380208zm0 0" fill="none" stroke="#000" stroke-linejoin="round" stroke-miterlimit="10" stroke-width="6.64176" transform="matrix(.06 0 0 -.06 0 780.91)"/><path d="m544.960938 331.136719h.382812v-25.925781h-.382812zm0 0"/><use x="528.946058" xlink:href="#aq" y="368.770176"/><use x="535.408946" xlink:href="#ax" y="368.770176"/><use x="546.293859" xlink:href="#aB" y="368.770176"/><use x="535.13802" xlink:href="#Q" y="332.904604"/><use x="124.499199" xlink:href="#X" y="368.770176"/><path d="m1293.880208 7296.9375h6.380209v432.161458h-6.380209zm0 0" fill="none" stroke="#000" stroke-linejoin="round" stroke-miterlimit="10" stroke-width="6.64176" transform="matrix(.06 0 0 -.06 0 780.91)"/><path d="m77.632812 343.09375h.378907v-25.929688h-.378907zm0 0"/><use x="50.2189" xlink:href="#aC" y="368.770176"/><use x="63.314653" xlink:href="#aD" y="368.770176"/><use x="68.757563" xlink:href="#aa" y="368.770176"/><use x="73.859925" xlink:href="#X" y="368.770176"/><use x="84.744809" xlink:href="#Z" y="368.770176"/><use x="89.166546" xlink:href="#aE" y="368.770176"/><use x="67.805736" xlink:href="#Q" y="344.859628"/><use x="124.738149" xlink:href="#Q" y="336.889692"/><use x="35.09797" xlink:href="#S" y="324.934468"/><use x="42.301505" xlink:href="#S" y="312.979244"/><use x="6.376233" xlink:href="#T" y="332.904684"/><path d="m4675.846354 7160.088542h6.380208v410.026041h-6.380208zm0 0" fill="none" stroke="#000" stroke-linejoin="round" stroke-miterlimit="10" stroke-width="6.64176" transform="matrix(.06 0 0 -.06 0 780.91)"/><path d="m280.550781 351.304688h.382813v-24.601563h-.382813zm0 0"/><use x="264.80553" xlink:href="#al" y="368.770176"/><use x="274.670163" xlink:href="#ai" y="368.770176"/><use x="284.534796" xlink:href="#X" y="368.770176"/><use x="295.419679" xlink:href="#ac" y="368.770176"/><use x="280.351461" xlink:href="#Q" y="324.934488"/><path d="m3909.114583 7496.221354h6.380209v432.096354h-6.380209zm0 0" fill="none" stroke="#000" stroke-linejoin="round" stroke-miterlimit="10" stroke-width="6.64176" transform="matrix(.06 0 0 -.06 0 780.91)"/><path d="m234.546875 331.136719h.382813v-25.925781h-.382813zm0 0"/><use x="216.829434" xlink:href="#aF" y="368.770176"/><use x="227.714317" xlink:href="#aG" y="368.770176"/><use x="238.598966" xlink:href="#Z" y="368.770176"/><use x="224.722259" xlink:href="#Q" y="332.904604"/><path d="m3075.911458 7429.75h6.380209v405.273437h-6.380209zm0 0" fill="none" stroke="#000" stroke-linejoin="round" stroke-miterlimit="10" stroke-width="6.64176" transform="matrix(.06 0 0 -.06 0 780.91)"/><path d="m184.554688 335.125h.382812v-24.316406h-.382812zm0 0"/><path d="m2242.708333 7429.75h6.380209v405.273437h-6.380209zm0 0" fill="none" stroke="#000" stroke-linejoin="round" stroke-miterlimit="10" stroke-width="6.64176" transform="matrix(.06 0 0 -.06 0 780.91)"/><path d="m134.5625 335.125h.382812v-24.316406h-.382812zm0 0"/><use x="161.395323" xlink:href="#ae" y="368.770176"/><use x="177.722888" xlink:href="#X" y="368.770176"/><use x="188.607772" xlink:href="#Z" y="368.770176"/><use x="193.029509" xlink:href="#ad" y="368.770176"/><use x="174.730149" xlink:href="#Q" y="336.889712"/><g clip-path="url(#v)"><path d="m5.013021 5739.90625h9911.263021" style="fill:none;stroke-width:10.0158;stroke-linecap:round;stroke-linejoin:round;stroke:#000;stroke-miterlimit:10" transform="matrix(.06 0 0 -.06 0 780.91)"/></g><g clip-path="url(#w)"><path d="m5.013021 5872.71875h9911.263021" style="fill:none;stroke-width:10.0158;stroke-linecap:round;stroke-linejoin:round;stroke:#000;stroke-miterlimit:10" transform="matrix(.06 0 0 -.06 0 780.91)"/></g><g clip-path="url(#x)"><path d="m5.013021 6005.53125h9911.263021" style="fill:none;stroke-width:10.0158;stroke-linecap:round;stroke-linejoin:round;stroke:#000;stroke-miterlimit:10" transform="matrix(.06 0 0 -.06 0 780.91)"/></g><g clip-path="url(#y)"><path d="m5.013021 6138.408854h9911.263021" style="fill:none;stroke-width:10.0158;stroke-linecap:round;stroke-linejoin:round;stroke:#000;stroke-miterlimit:10" transform="matrix(.06 0 0 -.06 0 780.91)"/></g><g clip-path="url(#z)"><path d="m5.013021 6271.221354h9911.263021" style="fill:none;stroke-width:10.0158;stroke-linecap:round;stroke-linejoin:round;stroke:#000;stroke-miterlimit:10" transform="matrix(.06 0 0 -.06 0 780.91)"/></g><use x="448.817898" xlink:href="#Q" y="412.606263"/><use x="445.262421" xlink:href="#aq" y="464.663168"/><use x="451.895268" xlink:href="#av" y="464.663168"/><path d="m7483.59375 5715.6875h6.380208v393.229167h-6.380208zm0 0" style="fill:none;stroke-width:6.64176;stroke-linecap:round;stroke-linejoin:round;stroke:#000;stroke-miterlimit:10" transform="matrix(.06 0 0 -.06 0 780.91)"/><path d="m449.015625 437.96875h.382813v-23.59375h-.382813zm0 0"/><use x="494.682989" xlink:href="#Q" y="416.591271"/><use x="489.001958" xlink:href="#at" y="464.663068"/><use x="499.886871" xlink:href="#aw" y="464.663068"/><path d="m8248.046875 5610.348958h6.380208v432.161459h-6.380208zm0 0" style="fill:none;stroke-width:6.64176;stroke-linecap:round;stroke-linejoin:round;stroke:#000;stroke-miterlimit:10" transform="matrix(.06 0 0 -.06 0 780.91)"/><path d="m494.882812 444.289062h.382813v-25.929687h-.382813zm0 0"/><path d="m6686.002604 5637.888021h6.380208v338.216146h-6.380208zm0 0" style="fill:none;stroke-width:6.64176;stroke-linecap:round;stroke-linejoin:round;stroke:#000;stroke-miterlimit:10" transform="matrix(.06 0 0 -.06 0 780.91)"/><path d="m401.160156 442.636719h.382813v-20.292969h-.382813zm0 0"/><use x="395.279791" xlink:href="#ak" y="464.663368"/><use x="406.16444" xlink:href="#ax" y="464.663368"/><use x="400.960822" xlink:href="#Q" y="420.576679"/><path d="m6080.013021 5968.552083h6.380208v325.976563h-6.380208zm0 0" style="fill:none;stroke-width:6.64176;stroke-linecap:round;stroke-linejoin:round;stroke:#000;stroke-miterlimit:10" transform="matrix(.06 0 0 -.06 0 780.91)"/><path d="m364.796875 422.796875h.382813v-19.558594h-.382813zm0 0"/><use x="346.061692" xlink:href="#Y" y="464.663368"/><use x="356.946341" xlink:href="#aq" y="464.663368"/><use x="363.409493" xlink:href="#aw" y="464.663368"/><use x="354.97452" xlink:href="#Q" y="424.561687"/><path d="m1676.041667 5361.130208h79.622395v5.013021h-79.622395zm0 0" style="fill:none;stroke-width:8.00996;stroke-linecap:round;stroke-linejoin:round;stroke:#000;stroke-miterlimit:10" transform="matrix(.06 0 0 -.06 0 780.91)"/><path d="m100.5625 459.242188h4.777344v-.300782h-4.777344zm0 0"/><path d="m1984.960937 5662.497396v-57.161459l770.833334-26.822916v57.096354zm0 0" fill="none" stroke="#000" stroke-linejoin="round" stroke-miterlimit="10" stroke-width="6.64176" transform="matrix(.06 0 0 -.06 0 780.91)"/><path d="m119.097656 441.160156v3.429688l46.25 1.609375v-3.425781zm0 0"/><path d="m2371.09375 5361.130208h79.622396v5.013021h-79.622396zm0 0" fill="none" stroke="#000" stroke-linejoin="round" stroke-miterlimit="10" stroke-width="8.00996" transform="matrix(.06 0 0 -.06 0 780.91)"/><path d="m142.265625 459.242188h4.777344v-.300782h-4.777344zm0 0"/><path d="m3195.442708 5361.130208h79.622396v5.013021h-79.622396zm0 0" fill="none" stroke="#000" stroke-linejoin="round" stroke-miterlimit="10" stroke-width="8.00996" transform="matrix(.06 0 0 -.06 0 780.91)"/><path d="m191.722656 459.242188h4.78125v-.300782h-4.78125zm0 0"/><path d="m3887.760417 5361.130208h79.622395v5.013021h-79.622395zm0 0" fill="none" stroke="#000" stroke-linejoin="round" stroke-miterlimit="10" stroke-width="8.00996" transform="matrix(.06 0 0 -.06 0 780.91)"/><path d="m233.265625 459.242188h4.777344v-.300782h-4.777344zm0 0"/><path d="m5315.559896 6299.802083v-57.161458l770.833333 26.888021v57.161458zm0 0" fill="none" stroke="#000" stroke-linejoin="round" stroke-miterlimit="10" stroke-width="6.64176" transform="matrix(.06 0 0 -.06 0 780.91)"/><path d="m318.933594 402.921875v3.429687l46.25-1.613281v-3.429687zm0 0"/><path d="m6373.242187 5361.130208h79.6875v5.013021h-79.6875zm0 0" fill="none" stroke="#000" stroke-linejoin="round" stroke-miterlimit="10" stroke-width="8.00996" transform="matrix(.06 0 0 -.06 0 780.91)"/><path d="m382.394531 459.242188h4.78125v-.300782h-4.78125zm0 0"/><path d="m6686.002604 5662.497396v-57.161459l803.971354 79.101563v57.161458zm0 0" fill="none" stroke="#000" stroke-linejoin="round" stroke-miterlimit="10" stroke-width="6.64176" transform="matrix(.06 0 0 -.06 0 780.91)"/><path d="m401.160156 441.160156v3.429688l48.238282-4.746094v-3.429688zm0 0"/><path d="m7891.666667 5361.130208h79.622395v5.013021h-79.622395zm0 0" fill="none" stroke="#000" stroke-linejoin="round" stroke-miterlimit="10" stroke-width="8.00996" transform="matrix(.06 0 0 -.06 0 780.91)"/><path d="m473.5 459.242188h4.777344v-.300782h-4.777344zm0 0"/><path d="m8675.325521 5361.130208h79.622396v5.013021h-79.622396zm0 0" fill="none" stroke="#000" stroke-linejoin="round" stroke-miterlimit="10" stroke-width="8.00996" transform="matrix(.06 0 0 -.06 0 780.91)"/><path d="m520.515625 459.242188h4.78125v-.300782h-4.78125zm0 0"/><use x="583.322167" xlink:href="#R" y="412.606263"/><path d="m9086.328125 5566.078125h6.315104v410.026042h-6.315104zm0 0" fill="none" stroke="#000" stroke-linejoin="round" stroke-miterlimit="10" stroke-width="6.64176" transform="matrix(.06 0 0 -.06 0 780.91)"/><path d="m545.179688 446.945312h.378906v-24.601562h-.378906zm0 0"/><use x="535.04707" xlink:href="#an" y="464.663368"/><use x="544.57139" xlink:href="#ax" y="464.663368"/><use x="555.456303" xlink:href="#Z" y="464.663368"/><use x="559.87804" xlink:href="#af" y="464.663368"/><use x="544.98037" xlink:href="#Q" y="420.576679"/><path d="m1984.960937 5637.041667h6.380209v405.46875h-6.380209zm0 0" fill="none" stroke="#000" stroke-linejoin="round" stroke-miterlimit="10" stroke-width="6.64176" transform="matrix(.06 0 0 -.06 0 780.91)"/><path d="m119.097656 442.6875h.382813v-24.328125h-.382813zm0 0"/><use x="118.661237" xlink:href="#aj" y="464.663368"/><use x="118.900535" xlink:href="#Q" y="416.591571"/><path d="m1146.679687 5676.820312h6.380209v432.096355h-6.380209zm0 0" fill="none" stroke="#000" stroke-linejoin="round" stroke-miterlimit="10" stroke-width="6.64176" transform="matrix(.06 0 0 -.06 0 780.91)"/><path d="m68.800781 440.304688h.382813v-25.929688h-.382813zm0 0"/><use x="60.370421" xlink:href="#aH" y="464.663368"/><use x="71.935935" xlink:href="#X" y="464.663368"/><use x="82.820819" xlink:href="#Z" y="464.663368"/><use x="68.602857" xlink:href="#Q" y="412.606463"/><use x="35.09799" xlink:href="#S" y="420.576639"/><use x="42.301525" xlink:href="#S" y="408.621415"/><use x="6.376253" xlink:href="#T" y="428.546855"/><path d="m3672.200521 5968.552083h6.380208v432.161459h-6.380208zm0 0" fill="none" stroke="#000" stroke-linejoin="round" stroke-miterlimit="10" stroke-width="6.64176" transform="matrix(.06 0 0 -.06 0 780.91)"/><path d="m220.332031 422.796875h.382813v-25.929687h-.382813zm0 0"/><path d="m5315.559896 5902.145833h6.380208v366.015625h-6.380208zm0 0" fill="none" stroke="#000" stroke-linejoin="round" stroke-miterlimit="10" stroke-width="6.64176" transform="matrix(.06 0 0 -.06 0 780.91)"/><path d="m318.933594 426.78125h.382812v-21.957031h-.382812zm0 0"/><use x="295.774592" xlink:href="#ae" y="464.663368"/><use x="312.102377" xlink:href="#ag" y="464.663368"/><use x="316.524114" xlink:href="#ac" y="464.663368"/><use x="327.408997" xlink:href="#ad" y="464.663368"/><use x="309.109618" xlink:href="#Q" y="428.546795"/><path d="m4477.278646 5835.739583h6.380208v432.161459h-6.380208zm0 0" fill="none" stroke="#000" stroke-linejoin="round" stroke-miterlimit="10" stroke-width="6.64176" transform="matrix(.06 0 0 -.06 0 780.91)"/><path d="m268.636719 430.765625h.382812v-25.929687h-.382812zm0 0"/><use x="247.944496" xlink:href="#ad" y="464.663368"/><use x="253.046874" xlink:href="#X" y="464.663368"/><use x="263.762069" xlink:href="#ad" y="464.663368"/><use x="269.20476" xlink:href="#ad" y="464.663368"/><use x="274.647685" xlink:href="#af" y="464.663368"/><use x="258.812518" xlink:href="#Q" y="432.531703"/><use x="208.058716" xlink:href="#ai" y="464.663368"/><use x="217.923364" xlink:href="#au" y="464.663368"/><use x="210.507941" xlink:href="#Q" y="424.561687"/><use x="164.76485" xlink:href="#Q" y="420.576599"/><use x="159.76375" xlink:href="#ab" y="464.663288"/><use x="169.288083" xlink:href="#X" y="464.663288"/><path d="m2749.414062 5610.609375h6.380209v365.494792h-6.380209zm0 0" fill="none" stroke="#000" stroke-linejoin="round" stroke-miterlimit="10" stroke-width="6.64176" transform="matrix(.06 0 0 -.06 0 780.91)"/><path d="m164.964844 444.273438h.382812v-21.929688h-.382812zm0 0"/><g clip-path="url(#A)"><path d="m5.013021 4145.830729h9911.263021" style="fill:none;stroke-width:10.0158;stroke-linecap:round;stroke-linejoin:round;stroke:#000;stroke-miterlimit:10" transform="matrix(.06 0 0 -.06 0 780.91)"/></g><g clip-path="url(#B)"><path d="m5.013021 4278.708333h9911.263021" style="fill:none;stroke-width:10.0158;stroke-linecap:round;stroke-linejoin:round;stroke:#000;stroke-miterlimit:10" transform="matrix(.06 0 0 -.06 0 780.91)"/></g><g clip-path="url(#C)"><path d="m5.013021 4411.520833h9911.263021" style="fill:none;stroke-width:10.0158;stroke-linecap:round;stroke-linejoin:round;stroke:#000;stroke-miterlimit:10" transform="matrix(.06 0 0 -.06 0 780.91)"/></g><g clip-path="url(#D)"><path d="m5.013021 4544.333333h9911.263021" style="fill:none;stroke-width:10.0158;stroke-linecap:round;stroke-linejoin:round;stroke:#000;stroke-miterlimit:10" transform="matrix(.06 0 0 -.06 0 780.91)"/></g><g clip-path="url(#E)"><path d="m5.013021 4677.210937h9911.263021" style="fill:none;stroke-width:10.0158;stroke-linecap:round;stroke-linejoin:round;stroke:#000;stroke-miterlimit:10" transform="matrix(.06 0 0 -.06 0 780.91)"/></g><use x="448.878898" xlink:href="#Q" y="524.187487"/><use x="443.197866" xlink:href="#Y" y="560.053058"/><use x="454.082516" xlink:href="#aj" y="560.053058"/><path d="m7645.052083 4308.135417h6.380209v365.95052h-6.380209zm0 0" style="fill:none;stroke-width:6.64176;stroke-linecap:round;stroke-linejoin:round;stroke:#000;stroke-miterlimit:10" transform="matrix(.06 0 0 -.06 0 780.91)"/><path d="m458.703125 522.421875h.382813v-21.957031h-.382813zm0 0"/><use x="494.725989" xlink:href="#Q" y="520.202479"/><use x="489.554029" xlink:href="#ab" y="560.053058"/><use x="499.418662" xlink:href="#aw" y="560.053058"/><path d="m8409.179687 4374.541667h6.380209v432.161458h-6.380209zm0 0" style="fill:none;stroke-width:6.64176;stroke-linecap:round;stroke-linejoin:round;stroke:#000;stroke-miterlimit:10" transform="matrix(.06 0 0 -.06 0 780.91)"/><path d="m504.550781 518.4375h.382813v-25.929688h-.382813zm0 0"/><path d="m6880.989583 4374.541667h6.380209v325.976562h-6.380209zm0 0" style="fill:none;stroke-width:6.64176;stroke-linecap:round;stroke-linejoin:round;stroke:#000;stroke-miterlimit:10" transform="matrix(.06 0 0 -.06 0 780.91)"/><path d="m412.859375 518.4375h.382813v-19.558594h-.382813zm0 0"/><use x="395.14179" xlink:href="#W" y="560.053558"/><use x="399.563762" xlink:href="#aw" y="560.053558"/><use x="410.448411" xlink:href="#ac" y="560.053558"/><use x="403.033916" xlink:href="#Q" y="520.202979"/><path d="m5958.463542 4016.598958h6.380208v365.494792h-6.380208zm0 0" style="fill:none;stroke-width:6.64176;stroke-linecap:round;stroke-linejoin:round;stroke:#000;stroke-miterlimit:10" transform="matrix(.06 0 0 -.06 0 780.91)"/><path d="m357.507812 539.914062h.382813v-21.929687h-.382813zm0 0"/><use x="357.070714" xlink:href="#ax" y="560.053558"/><use x="357.309074" xlink:href="#Q" y="516.217871"/><path d="m2129.752604 4732.614583v-57.096354l770.507813-26.888021v57.161459zm0 0" fill="none" stroke="#000" stroke-linejoin="round" stroke-miterlimit="10" stroke-width="6.64176" transform="matrix(.06 0 0 -.06 0 780.91)"/><path d="m127.785156 496.953125v3.425781l46.230469 1.613282v-3.429688zm0 0"/><path d="m2540.234375 3771.286458h79.622396v5.013021h-79.622396zm0 0" fill="none" stroke="#000" stroke-linejoin="round" stroke-miterlimit="10" stroke-width="8.00996" transform="matrix(.06 0 0 -.06 0 780.91)"/><path d="m152.414062 554.632812h4.777344v-.300781h-4.777344zm0 0"/><path d="m3128.450521 3771.286458h79.622396v5.013021h-79.622396zm0 0" fill="none" stroke="#000" stroke-linejoin="round" stroke-miterlimit="10" stroke-width="8.00996" transform="matrix(.06 0 0 -.06 0 780.91)"/><path d="m187.707031 554.632812h4.777344v-.300781h-4.777344zm0 0"/><path d="m3954.101562 3771.286458h79.6875v5.013021h-79.6875zm0 0" fill="none" stroke="#000" stroke-linejoin="round" stroke-miterlimit="10" stroke-width="8.00996" transform="matrix(.06 0 0 -.06 0 780.91)"/><path d="m237.246094 554.632812h4.78125v-.300781h-4.78125zm0 0"/><path d="m5194.335937 4068.486979v-57.161458l770.507813-26.888021v57.161458zm0 0" fill="none" stroke="#000" stroke-linejoin="round" stroke-miterlimit="10" stroke-width="6.64176" transform="matrix(.06 0 0 -.06 0 780.91)"/><path d="m311.660156 536.800781v3.429688l46.230469 1.613281v-3.429688zm0 0"/><path d="m6319.270833 3771.286458h79.6875v5.013021h-79.6875zm0 0" fill="none" stroke="#000" stroke-linejoin="round" stroke-miterlimit="10" stroke-width="8.00996" transform="matrix(.06 0 0 -.06 0 780.91)"/><path d="m379.15625 554.632812h4.78125v-.300781h-4.78125zm0 0"/><path d="m6880.989583 4732.614583v-57.096354l770.442709-26.888021v57.161459zm0 0" fill="none" stroke="#000" stroke-linejoin="round" stroke-miterlimit="10" stroke-width="6.64176" transform="matrix(.06 0 0 -.06 0 780.91)"/><path d="m412.859375 496.953125v3.425781l46.226563 1.613282v-3.429688zm0 0"/><path d="m7164.583333 3771.286458h79.622396v5.013021h-79.622396zm0 0" fill="none" stroke="#000" stroke-linejoin="round" stroke-miterlimit="10" stroke-width="8.00996" transform="matrix(.06 0 0 -.06 0 780.91)"/><path d="m429.875 554.632812h4.777344v-.300781h-4.777344zm0 0"/><path d="m7914.518229 3771.286458h79.622396v5.013021h-79.622396zm0 0" fill="none" stroke="#000" stroke-linejoin="round" stroke-miterlimit="10" stroke-width="8.00996" transform="matrix(.06 0 0 -.06 0 780.91)"/><path d="m474.871094 554.632812h4.777344v-.300781h-4.777344zm0 0"/><path d="m8671.549479 3771.286458h79.6875v5.013021h-79.6875zm0 0" fill="none" stroke="#000" stroke-linejoin="round" stroke-miterlimit="10" stroke-width="8.00996" transform="matrix(.06 0 0 -.06 0 780.91)"/><path d="m520.292969 554.632812h4.78125v-.300781h-4.78125zm0 0"/><use x="583.322167" xlink:href="#U" y="516.217471"/><path d="m9247.070312 4308.135417h6.380209v432.161458h-6.380209zm0 0" fill="none" stroke="#000" stroke-linejoin="round" stroke-miterlimit="10" stroke-width="6.64176" transform="matrix(.06 0 0 -.06 0 780.91)"/><path d="m554.824219 522.421875h.382812v-25.929687h-.382812zm0 0"/><use x="535.06807" xlink:href="#an" y="560.053558"/><use x="544.59239" xlink:href="#ax" y="560.053558"/><use x="555.477303" xlink:href="#Z" y="560.053558"/><use x="559.89904" xlink:href="#af" y="560.053558"/><use x="545.00137" xlink:href="#Q" y="524.187987"/><path d="m5194.335937 4042.966146h6.380209v405.533854h-6.380209zm0 0" fill="none" stroke="#000" stroke-linejoin="round" stroke-miterlimit="10" stroke-width="6.64176" transform="matrix(.06 0 0 -.06 0 780.91)"/><path d="m311.660156 538.332031h.382813v-24.332031h-.382813zm0 0"/><use x="98.077196" xlink:href="#aC" y="560.053558"/><use x="111.172948" xlink:href="#as" y="560.053558"/><use x="121.037596" xlink:href="#X" y="560.053558"/><use x="131.92248" xlink:href="#ac" y="560.053558"/><use x="142.807129" xlink:href="#ad" y="560.053558"/><use x="117.960236" xlink:href="#Q" y="520.202979"/><path d="m1133.398437 3972.067708h6.380209v410.026042h-6.380209zm0 0" fill="none" stroke="#000" stroke-linejoin="round" stroke-miterlimit="10" stroke-width="6.64176" transform="matrix(.06 0 0 -.06 0 780.91)"/><path d="m68.003906 542.585938h.382813v-24.601563h-.382813zm0 0"/><use x="66.461333" xlink:href="#aI" y="560.053558"/><use x="67.805716" xlink:href="#Q" y="516.217871"/><path d="m2129.752604 4374.541667h6.380208v325.976562h-6.380208zm0 0" fill="none" stroke="#000" stroke-linejoin="round" stroke-miterlimit="10" stroke-width="6.64176" transform="matrix(.06 0 0 -.06 0 780.91)"/><path d="m127.785156 518.4375h.382813v-19.558594h-.382813zm0 0"/><use x="35.09797" xlink:href="#S" y="516.217471"/><use x="42.301505" xlink:href="#S" y="504.262447"/><use x="6.376233" xlink:href="#T" y="524.187687"/><use x="203.529627" xlink:href="#Z" y="560.053258"/><use x="207.951364" xlink:href="#X" y="560.053258"/><use x="218.836248" xlink:href="#ab" y="560.053258"/><use x="305.781657" xlink:href="#aF" y="560.053258"/><use x="316.66654" xlink:href="#am" y="560.053258"/><use x="311.462843" xlink:href="#Q" y="512.232463"/><path d="m4356.445312 4082.744792h6.380209v432.161458h-6.380209zm0 0" fill="none" stroke="#000" stroke-linejoin="round" stroke-miterlimit="10" stroke-width="6.64176" transform="matrix(.06 0 0 -.06 0 780.91)"/><path d="m261.386719 535.945312h.382812v-25.929687h-.382812zm0 0"/><use x="250.573501" xlink:href="#ac" y="560.053558"/><use x="261.458385" xlink:href="#X" y="560.053558"/><use x="272.343268" xlink:href="#ab" y="560.053558"/><use x="261.187422" xlink:href="#Q" y="508.247955"/><path d="m3518.489583 4016.338542h6.380209v432.161458h-6.380209zm0 0" fill="none" stroke="#000" stroke-linejoin="round" stroke-miterlimit="10" stroke-width="6.64176" transform="matrix(.06 0 0 -.06 0 780.91)"/><path d="m211.109375 539.929688h.382813v-25.929688h-.382813zm0 0"/><use x="210.911422" xlink:href="#Q" y="512.232463"/><path d="m2893.880208 4308.135417h6.380209v365.95052h-6.380209zm0 0" fill="none" stroke="#000" stroke-linejoin="round" stroke-miterlimit="10" stroke-width="6.64176" transform="matrix(.06 0 0 -.06 0 780.91)"/><path d="m173.632812 522.421875h.378907v-21.957031h-.378907zm0 0"/><use x="163.806328" xlink:href="#Q" y="524.187487"/><use x="161.356403" xlink:href="#Z" y="560.053058"/><use x="165.77814" xlink:href="#aj" y="560.053058"/><g clip-path="url(#F)"><path d="m5.013021 2551.820312h9911.263021" style="fill:none;stroke-width:10.0158;stroke-linecap:round;stroke-linejoin:round;stroke:#000;stroke-miterlimit:10" transform="matrix(.06 0 0 -.06 0 780.91)"/></g><g clip-path="url(#G)"><path d="m5.013021 2684.697917h9911.263021" style="fill:none;stroke-width:10.0158;stroke-linecap:round;stroke-linejoin:round;stroke:#000;stroke-miterlimit:10" transform="matrix(.06 0 0 -.06 0 780.91)"/></g><g clip-path="url(#H)"><path d="m5.013021 2817.510417h9911.263021" style="fill:none;stroke-width:10.0158;stroke-linecap:round;stroke-linejoin:round;stroke:#000;stroke-miterlimit:10" transform="matrix(.06 0 0 -.06 0 780.91)"/></g><g clip-path="url(#I)"><path d="m5.013021 2950.322917h9911.263021" style="fill:none;stroke-width:10.0158;stroke-linecap:round;stroke-linejoin:round;stroke:#000;stroke-miterlimit:10" transform="matrix(.06 0 0 -.06 0 780.91)"/></g><g clip-path="url(#J)"><path d="m5.013021 3083.200521h9911.263021" style="fill:none;stroke-width:10.0158;stroke-linecap:round;stroke-linejoin:round;stroke:#000;stroke-miterlimit:10" transform="matrix(.06 0 0 -.06 0 780.91)"/></g><use x="428.073856" xlink:href="#an" y="660.440759"/><use x="437.598176" xlink:href="#X" y="660.440759"/><use x="448.48306" xlink:href="#ai" y="660.440759"/><path d="m7463.867187 2647.71875h6.380209v325.976562h-6.380209zm0 0" style="fill:none;stroke-width:6.64176;stroke-linecap:round;stroke-linejoin:round;stroke:#000;stroke-miterlimit:10" transform="matrix(.06 0 0 -.06 0 780.91)"/><path d="m447.832031 622.046875h.382813v-19.558594h-.382813zm0 0"/><use x="488.749977" xlink:href="#Q" y="627.799694"/><use x="483.578947" xlink:href="#ai" y="660.440459"/><use x="493.44358" xlink:href="#aj" y="660.440459"/><path d="m8309.570312 2581.3125h6.380209v365.885417h-6.380209zm0 0" style="fill:none;stroke-width:6.64176;stroke-linecap:round;stroke-linejoin:round;stroke:#000;stroke-miterlimit:10" transform="matrix(.06 0 0 -.06 0 780.91)"/><path d="m498.574219 626.03125h.382812v-21.953125h-.382812zm0 0"/><use x="336.522673" xlink:href="#Q" y="623.814686"/><use x="438.007116" xlink:href="#Q" y="623.814686"/><path d="m6618.164062 2714.125h6.380209v365.494792h-6.380209zm0 0" style="fill:none;stroke-width:6.64176;stroke-linecap:round;stroke-linejoin:round;stroke:#000;stroke-miterlimit:10" transform="matrix(.06 0 0 -.06 0 780.91)"/><path d="m397.089844 618.0625h.382812v-21.929688h-.382812zm0 0"/><use x="384.81477" xlink:href="#ag" y="660.440759"/><use x="389.236741" xlink:href="#Y" y="660.440759"/><use x="387.264935" xlink:href="#Q" y="619.829778"/><path d="m5772.460937 2647.71875h6.380209v405.46875h-6.380209zm0 0" style="fill:none;stroke-width:6.64176;stroke-linecap:round;stroke-linejoin:round;stroke:#000;stroke-miterlimit:10" transform="matrix(.06 0 0 -.06 0 780.91)"/><path d="m346.347656 622.046875h.382813v-24.328125h-.382813zm0 0"/><use x="331.351663" xlink:href="#ax" y="660.440759"/><use x="342.236312" xlink:href="#as" y="660.440759"/><path d="m2221.549479 3138.604167v-57.096355l852.083333-26.88802v57.096354zm0 0" fill="none" stroke="#000" stroke-linejoin="round" stroke-miterlimit="10" stroke-width="6.64176" transform="matrix(.06 0 0 -.06 0 780.91)"/><path d="m133.292969 592.59375v3.425781l51.125 1.613281v-3.425781zm0 0"/><path d="m2508.398437 2098.174479h79.6875v5.013021h-79.6875zm0 0" fill="none" stroke="#000" stroke-linejoin="round" stroke-miterlimit="10" stroke-width="8.00996" transform="matrix(.06 0 0 -.06 0 780.91)"/><path d="m150.503906 655.019531h4.78125v-.300781h-4.78125zm0 0"/><path d="m4239.713542 2098.174479h79.6875v5.013021h-79.6875zm0 0" fill="none" stroke="#000" stroke-linejoin="round" stroke-miterlimit="10" stroke-width="8.00996" transform="matrix(.06 0 0 -.06 0 780.91)"/><path d="m254.382812 655.019531h4.78125v-.300781h-4.78125zm0 0"/><path d="m5772.460937 3084.828125v-57.096354l852.083334 26.888021v57.096354zm0 0" fill="none" stroke="#000" stroke-linejoin="round" stroke-miterlimit="10" stroke-width="6.64176" transform="matrix(.06 0 0 -.06 0 780.91)"/><path d="m346.347656 595.820312v3.425782l51.125-1.613282v-3.425781zm0 0"/><path d="m6861.783854 2098.174479h79.6875v5.013021h-79.6875zm0 0" fill="none" stroke="#000" stroke-linejoin="round" stroke-miterlimit="10" stroke-width="8.00996" transform="matrix(.06 0 0 -.06 0 780.91)"/><path d="m411.707031 655.019531h4.78125v-.300781h-4.78125zm0 0"/><path d="m7463.867187 3005.791667v-57.161459l852.083334-26.822916v57.096354zm0 0" fill="none" stroke="#000" stroke-linejoin="round" stroke-miterlimit="10" stroke-width="6.64176" transform="matrix(.06 0 0 -.06 0 780.91)"/><path d="m447.832031 600.5625v3.429688l51.125 1.609374v-3.425781zm0 0"/><path d="m7809.570312 2098.174479h79.622396v5.013021h-79.622396zm0 0" fill="none" stroke="#000" stroke-linejoin="round" stroke-miterlimit="10" stroke-width="8.00996" transform="matrix(.06 0 0 -.06 0 780.91)"/><path d="m468.574219 655.019531h4.777343v-.300781h-4.777343zm0 0"/><path d="m8566.666667 2098.174479h79.622395v5.013021h-79.622395zm0 0" fill="none" stroke="#000" stroke-linejoin="round" stroke-miterlimit="10" stroke-width="8.00996" transform="matrix(.06 0 0 -.06 0 780.91)"/><path d="m514 655.019531h4.777344v-.300781h-4.777344zm0 0"/><use x="539.492079" xlink:href="#Q" y="631.784702"/><use x="583.321467" xlink:href="#R" y="603.889146"/><path d="m9155.273437 2514.841146h6.380209v432.161458h-6.380209zm0 0" fill="none" stroke="#000" stroke-linejoin="round" stroke-miterlimit="10" stroke-width="6.64176" transform="matrix(.06 0 0 -.06 0 780.91)"/><path d="m549.316406 630.019531h.382813v-25.929687h-.382813zm0 0"/><use x="528.454057" xlink:href="#ak" y="660.440759"/><use x="539.338735" xlink:href="#X" y="660.440759"/><use x="550.05396" xlink:href="#ad" y="660.440759"/><use x="555.496622" xlink:href="#af" y="660.440759"/><path d="m2221.549479 2780.53125h6.380208v325.976562h-6.380208zm0 0" fill="none" stroke="#000" stroke-linejoin="round" stroke-miterlimit="10" stroke-width="6.64176" transform="matrix(.06 0 0 -.06 0 780.91)"/><path d="m133.292969 614.078125h.382812v-19.558594h-.382812zm0 0"/><use x="120.08324" xlink:href="#aq" y="660.440759"/><use x="126.37647" xlink:href="#X" y="660.440759"/><use x="123.469027" xlink:href="#Q" y="615.84477"/><path d="m1133.398437 2378.057292h6.380209v410.026041h-6.380209zm0 0" fill="none" stroke="#000" stroke-linejoin="round" stroke-miterlimit="10" stroke-width="6.64176" transform="matrix(.06 0 0 -.06 0 780.91)"/><path d="m68.003906 638.226562h.382813v-24.601562h-.382813zm0 0"/><use x="61.529423" xlink:href="#aJ" y="660.440759"/><use x="74.625175" xlink:href="#ai" y="660.440759"/><use x="67.805766" xlink:href="#Q" y="611.859662"/><use x="35.098" xlink:href="#S" y="611.859662"/><use x="42.301535" xlink:href="#S" y="599.904438"/><use x="6.376263" xlink:href="#T" y="619.829878"/><use x="280.738259" xlink:href="#Q" y="619.829878"/><path d="m3912.955729 2647.71875h6.380208v432.161458h-6.380208zm0 0" fill="none" stroke="#000" stroke-linejoin="round" stroke-miterlimit="10" stroke-width="6.64176" transform="matrix(.06 0 0 -.06 0 780.91)"/><path d="m234.777344 622.046875h.382812v-25.929687h-.382812zm0 0"/><use x="217.061434" xlink:href="#aF" y="660.440759"/><use x="227.946318" xlink:href="#au" y="660.440759"/><use x="233.388994" xlink:href="#as" y="660.440759"/><use x="224.95333" xlink:href="#Q" y="623.814886"/><path d="m3067.317708 2714.125h6.315104v365.950521h-6.315104zm0 0" fill="none" stroke="#000" stroke-linejoin="round" stroke-miterlimit="10" stroke-width="6.64176" transform="matrix(.06 0 0 -.06 0 780.91)"/><path d="m184.035156 618.0625h.382813v-21.957031h-.382813zm0 0"/><use x="168.530337" xlink:href="#aw" y="660.440759"/><use x="179.414986" xlink:href="#Y" y="660.440759"/><use x="270.295425" xlink:href="#an" y="660.440759"/><use x="279.819745" xlink:href="#aw" y="660.440759"/><use x="290.704629" xlink:href="#ac" y="660.440759"/><use x="174.211368" xlink:href="#Q" y="619.829778"/><path d="m4842.708333 2714.125h6.380209v432.161458h-6.380209zm0 0" fill="none" stroke="#000" stroke-linejoin="round" stroke-miterlimit="10" stroke-width="6.64176" transform="matrix(.06 0 0 -.06 0 780.91)"/><path d="m290.5625 618.0625h.382812v-25.929688h-.382812zm0 0"/><g clip-path="url(#K)"><path d="m5.013021 957.809896h9911.263021" style="fill:none;stroke-width:10.0158;stroke-linecap:round;stroke-linejoin:round;stroke:#000;stroke-miterlimit:10" transform="matrix(.06 0 0 -.06 0 780.91)"/></g><g clip-path="url(#L)"><path d="m5.013021 1090.622396h9911.263021" style="fill:none;stroke-width:10.0158;stroke-linecap:round;stroke-linejoin:round;stroke:#000;stroke-miterlimit:10" transform="matrix(.06 0 0 -.06 0 780.91)"/></g><g clip-path="url(#M)"><path d="m5.013021 1223.5h9911.263021" style="fill:none;stroke-width:10.0158;stroke-linecap:round;stroke-linejoin:round;stroke:#000;stroke-miterlimit:10" transform="matrix(.06 0 0 -.06 0 780.91)"/></g><g clip-path="url(#N)"><path d="m5.013021 1356.3125h9911.263021" style="fill:none;stroke-width:10.0158;stroke-linecap:round;stroke-linejoin:round;stroke:#000;stroke-miterlimit:10" transform="matrix(.06 0 0 -.06 0 780.91)"/></g><g clip-path="url(#O)"><path d="m5.013021 1489.190104h9911.263021" style="fill:none;stroke-width:10.0158;stroke-linecap:round;stroke-linejoin:round;stroke:#000;stroke-miterlimit:10" transform="matrix(.06 0 0 -.06 0 780.91)"/></g><g clip-path="url(#P)"><path d="m9891.210937 957.809896v531.380208" fill="none" stroke="#000" stroke-linejoin="round" stroke-miterlimit="10" stroke-width="60.0548" transform="matrix(.06 0 0 -.06 0 780.91)"/></g><path d="m9821.679687 957.809896v531.380208" fill="none" stroke="#000" stroke-linejoin="round" stroke-miterlimit="10" stroke-width="19.022" transform="matrix(.06 0 0 -.06 0 780.91)"/><use x="432.324865" xlink:href="#Q" y="711.485861"/><use x="420.01004" xlink:href="#ad" y="751.656841"/><use x="425.452965" xlink:href="#ag" y="751.656841"/><use x="429.874702" xlink:href="#ai" y="751.656841"/><use x="439.739335" xlink:href="#as" y="751.656841"/><use x="449.603968" xlink:href="#ad" y="751.656841"/><path d="m7369.140625 1186.520833h6.380208v405.273438h-6.380208zm0 0" fill="none" stroke="#000" stroke-linejoin="round" stroke-miterlimit="10" stroke-width="6.64176" transform="matrix(.06 0 0 -.06 0 780.91)"/><path d="m442.148438 709.71875h.382812v-24.316406h-.382812zm0 0"/><use x="482.279965" xlink:href="#Q" y="711.485861"/><use x="477.108934" xlink:href="#ai" y="751.656841"/><use x="486.973567" xlink:href="#aj" y="751.656841"/><path d="m8201.757812 1186.520833h6.380209v405.273438h-6.380209zm0 0" fill="none" stroke="#000" stroke-linejoin="round" stroke-miterlimit="10" stroke-width="6.64176" transform="matrix(.06 0 0 -.06 0 780.91)"/><path d="m492.105469 709.71875h.382812v-24.316406h-.382812zm0 0"/><use x="332.535665" xlink:href="#Q" y="707.500753"/><path d="m6378.125 828.317708h6.380208v365.690104h-6.380208zm0 0" fill="none" stroke="#000" stroke-linejoin="round" stroke-miterlimit="10" stroke-width="6.64176" transform="matrix(.06 0 0 -.06 0 780.91)"/><path d="m382.6875 731.210938h.382812v-21.941407h-.382812zm0 0"/><use x="369.155738" xlink:href="#ae" y="751.656941"/><use x="385.483289" xlink:href="#ax" y="751.656941"/><use x="396.368173" xlink:href="#ai" y="751.656941"/><use x="382.490565" xlink:href="#Q" y="707.500853"/><path d="m5545.572917 828.317708h6.380208v365.690104h-6.380208zm0 0" fill="none" stroke="#000" stroke-linejoin="round" stroke-miterlimit="10" stroke-width="6.64176" transform="matrix(.06 0 0 -.06 0 780.91)"/><path d="m332.734375 731.210938h.382813v-21.941407h-.382813zm0 0"/><use x="323.536647" xlink:href="#at" y="751.656941"/><use x="334.421296" xlink:href="#aw" y="751.656941"/><use x="345.30618" xlink:href="#aq" y="751.656941"/><path d="m1553.710937 577.927083h79.622396v4.947917h-79.622396zm0 0" fill="none" stroke="#000" stroke-linejoin="round" stroke-miterlimit="10" stroke-width="8.00996" transform="matrix(.06 0 0 -.06 0 780.91)"/><path d="m93.222656 746.238281h4.777344v-.300781h-4.777344zm0 0"/><path d="m2208.854167 1517.705729v-57.096354l838.932291 26.888021v57.096354zm0 0" fill="none" stroke="#000" stroke-linejoin="round" stroke-miterlimit="10" stroke-width="6.64176" transform="matrix(.06 0 0 -.06 0 780.91)"/><path d="m132.53125 689.847656v3.425782l50.335938-1.613282v-3.425781zm0 0"/><path d="m3336.197917 577.927083h79.6875v4.947917h-79.6875zm0 0" fill="none" stroke="#000" stroke-linejoin="round" stroke-miterlimit="10" stroke-width="8.00996" transform="matrix(.06 0 0 -.06 0 780.91)"/><path d="m200.171875 746.238281h4.78125v-.300781h-4.78125zm0 0"/><path d="m4253.515625 577.927083h79.622396v4.947917h-79.622396zm0 0" fill="none" stroke="#000" stroke-linejoin="round" stroke-miterlimit="10" stroke-width="8.00996" transform="matrix(.06 0 0 -.06 0 780.91)"/><path d="m255.210938 746.238281h4.777343v-.300781h-4.777343zm0 0"/><path d="m5545.572917 853.513021v-57.096354h838.932291v57.096354zm0 0" fill="none" stroke="#000" stroke-linejoin="round" stroke-miterlimit="10" stroke-width="6.64176" transform="matrix(.06 0 0 -.06 0 780.91)"/><path d="m332.734375 729.699219v3.425781h50.335937v-3.425781zm0 0"/><path d="m5969.270833 577.927083h79.6875v4.947917h-79.6875zm0 0" fill="none" stroke="#000" stroke-linejoin="round" stroke-miterlimit="10" stroke-width="8.00996" transform="matrix(.06 0 0 -.06 0 780.91)"/><path d="m358.15625 746.238281h4.78125v-.300781h-4.78125zm0 0"/><path d="m7369.140625 1566.533854h838.997396v57.161458h-838.997396zm0 0" fill="none" stroke="#000" stroke-linejoin="round" stroke-miterlimit="10" stroke-width="6.64176" transform="matrix(.06 0 0 -.06 0 780.91)"/><path d="m442.148438 686.917969h50.339843v-3.429688h-50.339843zm0 0"/><path d="m7728.125 577.927083h79.622396v4.947917h-79.622396zm0 0" fill="none" stroke="#000" stroke-linejoin="round" stroke-miterlimit="10" stroke-width="8.00996" transform="matrix(.06 0 0 -.06 0 780.91)"/><path d="m463.6875 746.238281h4.777344v-.300781h-4.777344zm0 0"/><path d="m8452.278646 577.927083h79.622396v4.947917h-79.622396zm0 0" fill="none" stroke="#000" stroke-linejoin="round" stroke-miterlimit="10" stroke-width="8.00996" transform="matrix(.06 0 0 -.06 0 780.91)"/><path d="m507.136719 746.238281h4.777343v-.300781h-4.777343zm0 0"/><path d="m9034.309896 1120.114583h6.380208v432.161459h-6.380208zm0 0" fill="none" stroke="#000" stroke-linejoin="round" stroke-miterlimit="10" stroke-width="6.64176" transform="matrix(.06 0 0 -.06 0 780.91)"/><path d="m542.058594 713.703125h.382812v-25.929687h-.382812zm0 0"/><use x="521.196042" xlink:href="#ak" y="751.656941"/><use x="532.080955" xlink:href="#X" y="751.656941"/><use x="542.795946" xlink:href="#ad" y="751.656941"/><use x="548.238842" xlink:href="#aK" y="751.656941"/><use x="537.439175" xlink:href="#V" y="685.471409"/><use x="532.235574" xlink:href="#Q" y="715.471469"/><path d="m2208.854167 1120.114583h6.380208v365.950521h-6.380208zm0 0" fill="none" stroke="#000" stroke-linejoin="round" stroke-miterlimit="10" stroke-width="6.64176" transform="matrix(.06 0 0 -.06 0 780.91)"/><path d="m132.53125 713.703125h.382812v-21.957031h-.382812zm0 0"/><use x="122.705245" xlink:href="#Q" y="715.470969"/><path d="m1293.880208 1053.708333h6.380209v432.096355h-6.380209zm0 0" fill="none" stroke="#000" stroke-linejoin="round" stroke-miterlimit="10" stroke-width="6.64176" transform="matrix(.06 0 0 -.06 0 780.91)"/><path d="m77.632812 717.6875h.378907v-25.925781h-.378907zm0 0"/><use x="66.461333" xlink:href="#aI" y="751.656941"/><use x="67.805716" xlink:href="#Q" y="719.455877"/><use x="111.666303" xlink:href="#Y" y="751.656941"/><use x="122.551187" xlink:href="#aL" y="751.656941"/><use x="133.266148" xlink:href="#ad" y="751.656941"/><use x="138.709059" xlink:href="#ad" y="751.656941"/><use x="35.09795" xlink:href="#S" y="707.500853"/><use x="42.301485" xlink:href="#S" y="695.545629"/><use x="6.376213" xlink:href="#T" y="715.471069"/><path d="m4630.598958 828.317708h6.315104v432.161459h-6.315104zm0 0" fill="none" stroke="#000" stroke-linejoin="round" stroke-miterlimit="10" stroke-width="6.64176" transform="matrix(.06 0 0 -.06 0 780.91)"/><path d="m277.835938 731.210938h.378906v-25.929688h-.378906zm0 0"/><use x="274.165548" xlink:href="#aq" y="751.656941"/><use x="280.6287" xlink:href="#ax" y="751.656941"/><use x="277.636645" xlink:href="#Q" y="703.515745"/><path d="m3715.625 784.046875h6.380208v409.960937h-6.380208zm0 0" fill="none" stroke="#000" stroke-linejoin="round" stroke-miterlimit="10" stroke-width="6.64176" transform="matrix(.06 0 0 -.06 0 780.91)"/><path d="m222.9375 733.867188h.382812v-24.597657h-.382812zm0 0"/><use x="214.84443" xlink:href="#Z" y="751.656941"/><use x="219.266167" xlink:href="#ax" y="751.656941"/><use x="230.151051" xlink:href="#Y" y="751.656941"/><use x="222.737025" xlink:href="#Q" y="707.500853"/><path d="m3041.40625 1186.520833h6.380208v325.976563h-6.380208zm0 0" fill="none" stroke="#000" stroke-linejoin="round" stroke-miterlimit="10" stroke-width="6.64176" transform="matrix(.06 0 0 -.06 0 780.91)"/><path d="m182.484375 709.71875h.382813v-19.558594h-.382813zm0 0"/><use x="165.448331" xlink:href="#an" y="751.656941"/><use x="174.972665" xlink:href="#aw" y="751.656941"/><use x="185.857314" xlink:href="#Z" y="751.656941"/><use x="172.660535" xlink:href="#Q" y="711.485961"/></svg>