<svg height="410.28em" viewBox="0 0 595.28 410.28" width="595.28em" xmlns="http://www.w3.org/2000/svg" xmlns:xlink="http://www.w3.org/1999/xlink"><clipPath id="a"><path d="m0 55h595.28125v1h-595.28125zm0 0"/></clipPath><clipPath id="b"><path d="m0 47h595.28125v1h-595.28125zm0 0"/></clipPath><clipPath id="c"><path d="m0 38h595.28125v2h-595.28125zm0 0"/></clipPath><clipPath id="d"><path d="m0 30h595.28125v2h-595.28125zm0 0"/></clipPath><clipPath id="e"><path d="m0 22h595.28125v2h-595.28125zm0 0"/></clipPath><clipPath id="f"><path d="m594 22h1.28125v35h-1.28125zm0 0"/></clipPath><clipPath id="g"><path d="m0 153h595.28125v2h-595.28125zm0 0"/></clipPath><clipPath id="h"><path d="m0 145h595.28125v2h-595.28125zm0 0"/></clipPath><clipPath id="i"><path d="m0 137h595.28125v2h-595.28125zm0 0"/></clipPath><clipPath id="j"><path d="m0 129h595.28125v1h-595.28125zm0 0"/></clipPath><clipPath id="k"><path d="m0 121h595.28125v1h-595.28125zm0 0"/></clipPath><clipPath id="l"><path d="m594 120h1.28125v35h-1.28125zm0 0"/></clipPath><clipPath id="m"><path d="m0 252h595.28125v2h-595.28125zm0 0"/></clipPath><clipPath id="n"><path d="m0 244h595.28125v1h-595.28125zm0 0"/></clipPath><clipPath id="o"><path d="m0 236h595.28125v1h-595.28125zm0 0"/></clipPath><clipPath id="p"><path d="m0 227h595.28125v2h-595.28125zm0 0"/></clipPath><clipPath id="q"><path d="m0 219h595.28125v2h-595.28125zm0 0"/></clipPath><clipPath id="r"><path d="m594 219h1.28125v35h-1.28125zm0 0"/></clipPath><clipPath id="s"><path d="m0 351h595.28125v1h-595.28125zm0 0"/></clipPath><clipPath id="t"><path d="m0 342h595.28125v2h-595.28125zm0 0"/></clipPath><clipPath id="u"><path d="m0 334h595.28125v2h-595.28125zm0 0"/></clipPath><clipPath id="v"><path d="m0 326h595.28125v2h-595.28125zm0 0"/></clipPath><clipPath id="w"><path d="m0 318h595.28125v1h-595.28125zm0 0"/></clipPath><clipPath id="x"><path d="m591 316h4.28125v38h-4.28125zm0 0"/></clipPath><symbol id="y" overflow="visible"><path d="m7.296875-4.4375c-1.375 0-2.6875.453125-3.875 1.1875-1.546875.921875-3.421875 2.53125-3.421875 4.859375 0 1.9375 1.703125 2.828125 3.453125 2.828125 1.375 0 2.6875-.453125 3.875-1.1875 1.546875-.921875 3.390625-2.53125 3.390625-4.859375 0-1.9375-1.671875-2.828125-3.421875-2.828125zm0 0"/></symbol><symbol id="z" overflow="visible"><path d="m12.296875-8.546875c-.53125-2.296875-1.15625-4.5625-1.8125-6.84375 3.15625-3.578125 6.015625-7.265625 6.015625-12 0-3.703125-2.03125-9.03125-4.34375-11.796875-.15625-.125-.359375-.125-.515625 0-3.125 2.265625-4.9375 5.890625-4.9375 9.703125 0 1.703125.03125 3.375.234375 5.0625.234375 2.125.78125 4.203125 1.375 6.28125-3.875 4.40625-8.25 8.609375-8.25 14.453125 0 6.609375 4.765625 12.234375 10.953125 12.234375 1.015625 0 1.96875-.09375 2.921875-.265625.09375 1.0625.171875 2.109375.171875 3.15625 0 .59375-.03125 1.15625-.078125 1.75-.1875 3.25-2.203125 6.234375-5.25 6.3125-.03125 0-.0625.03125-.109375.03125-1.671875 0-3.109375-.953125-3.96875-2.3125.359375.171875.75.296875 1.15625.296875 1.703125 0 3.109375-1.40625 3.109375-3.109375 0-1.84375-1.34375-3.421875-3.109375-3.421875-1.953125 0-3.6875 1.515625-3.6875 3.421875 0 3.546875 2.859375 6.40625 6.40625 6.40625 3.875 0 6.546875-3.484375 6.78125-7.4375.03125-.625.03125-1.21875.03125-1.828125 0-1.1875-.078125-2.375-.171875-3.5625.859375-.265625 1.671875-.65625 2.40625-1.21875 2.421875-1.796875 3.515625-4.328125 3.515625-6.828125 0-4.34375-3.296875-8.515625-8.359375-8.515625-.15625 0-.328125.03125-.484375.03125zm2.796875 15.28125c-.46875-4.078125-1.21875-7.953125-2.046875-11.796875 3.625.296875 5.890625 3.3125 5.890625 6.34375 0 2.296875-1.578125 4.671875-3.84375 5.453125zm-12.765625-7.75c0-5.265625 3.5625-9.234375 7.109375-13.21875.53125 1.9375 1.046875 3.875 1.515625 5.84375-3.328125.765625-5.203125 3.5625-5.203125 6.453125 0 2.296875 1.1875 4.640625 3.8125 6.046875.109375.03125.203125.0625.296875.0625.359375 0 .65625-.328125.65625-.6875 0-.15625-.09375-.328125-.21875-.453125-1.84375-1.0625-2.703125-2.640625-2.703125-4.078125 0-1.9375 1.515625-3.6875 4.109375-3.984375.859375 3.953125 1.609375 7.859375 2.109375 12.0625-.890625.140625-1.78125.203125-2.703125.203125-4.46875 0-8.78125-3.78125-8.78125-8.25zm11.1875-33.5c.5625 1.734375.6875 2.59375.6875 4.5 0 4.171875-2.203125 7.5-4.90625 10.6875-.578125-2.078125-1.078125-4.078125-1.078125-6.578125 0-3.640625 2.03125-6.96875 5.296875-8.609375zm0 0"/></symbol><symbol id="A" overflow="visible"><path d="m.828125-1.453125c.03125-1.078125.75-2.03125 1.765625-2.03125.984375 0 1.453125 1.15625 1.453125 2.265625 0 1.9375-1.640625 3.328125-3.15625 4.578125-.0625-.734375-.140625-1.453125-.140625-2.171875 0-.140625.03125-.234375.03125-.359375zm-1.65625-13.765625.375 19.6875c0 .390625.28125.6875.6875.6875.59375 0 .84375-.6875 1.3125-1.046875 2.0625-1.671875 5.03125-2.859375 5.03125-5.5625 0-1.765625-1.3125-3.28125-3.0625-3.28125-1.046875 0-2.03125.359375-2.890625.984375l.203125-11.46875c-.265625-.140625-.53125-.234375-.828125-.234375s-.5625.09375-.828125.234375zm0 0"/></symbol><symbol id="B" overflow="visible"><path d="m-2.078125-1.546875c0 1.15625.921875 2.078125 2.078125 2.078125s2.078125-.921875 2.078125-2.078125-.921875-2.0625-2.078125-2.0625-2.078125.90625-2.078125 2.0625zm2.078125-10.28125c-5.09375 0-10.8125 5.6875-10.8125 11.890625 0 .265625.265625.46875.515625.46875.234375 0 .5-.171875.5625-.53125.859375-4.890625 4.84375-8.71875 9.734375-8.71875s8.875 3.828125 9.734375 8.71875c.0625.359375.328125.53125.5625.53125.25 0 .515625-.203125.515625-.46875 0-6.203125-5.6875-11.890625-10.8125-11.890625zm0 0"/></symbol><symbol id="C" overflow="visible"><path d="m9.3125-2.984375c0-1.578125-.890625-2.375-3-2.875l-1.625-.390625c-1.375-.328125-1.96875-.765625-1.96875-1.53125 0-.96875.875-1.59375 2.25-1.59375 1.359375 0 2.09375.59375 2.140625 1.703125h1.78125c-.015625-2.09375-1.40625-3.265625-3.859375-3.265625-2.46875 0-4.078125 1.28125-4.078125 3.25 0 1.65625.859375 2.453125 3.375 3.0625l1.578125.390625c1.171875.28125 1.640625.625 1.640625 1.390625 0 1-.984375 1.578125-2.46875 1.578125-1.53125 0-2.375-.359375-2.609375-1.984375h-1.78125c.078125 2.453125 1.46875 3.546875 4.25 3.546875 2.671875 0 4.375-1.234375 4.375-3.28125zm0 0"/></symbol><symbol id="D" overflow="visible"><path d="m9.28125 0v-1.484375h-6.609375l6.3125-7.65625v-1.5h-7.921875v1.484375h5.921875l-6.359375 7.640625v1.515625zm0 0"/></symbol><symbol id="E" overflow="visible"><path d="m9.78125 0v-10.640625h-1.6875v5.875c0 2.171875-1.125 3.59375-2.890625 3.59375-1.34375 0-2.203125-.8125-2.203125-2.09375v-7.375h-1.6875v8.046875c0 1.765625 1.328125 2.890625 3.390625 2.890625 1.5625 0 2.5625-.546875 3.5625-1.9375v1.640625zm-4.875-12.265625v-2.0625h-1.84375v2.0625zm3.296875 0v-2.0625h-1.84375v2.0625zm0 0"/></symbol><symbol id="F" overflow="visible"><path d="m3.0625 0v-14.796875h-1.6875v14.796875zm0 0"/></symbol><symbol id="G" overflow="visible"><path d="m10.40625-4.828125c0-1.546875-.109375-2.515625-.421875-3.3125-.6875-1.75-2.3125-2.796875-4.296875-2.796875-2.96875 0-4.875 2.1875-4.875 5.6875 0 3.484375 1.84375 5.546875 4.828125 5.546875 2.4375 0 4.125-1.375 4.546875-3.53125h-1.703125c-.46875 1.40625-1.421875 1.96875-2.78125 1.96875-1.765625 0-3.078125-1.125-3.125-3.5625zm-1.796875-1.5s0 .078125-.03125.125h-5.953125c.140625-1.890625 1.328125-3.171875 3.03125-3.171875 1.671875 0 2.953125 1.375 2.953125 3.046875zm0 0"/></symbol><symbol id="H" overflow="visible"><path d="m10.046875 0v-14.796875h-1.6875v5.5c-.703125-1.078125-1.84375-1.640625-3.265625-1.640625-2.765625 0-4.5625 2.125-4.5625 5.515625 0 3.59375 1.765625 5.71875 4.625 5.71875 1.453125 0 2.46875-.546875 3.390625-1.859375v1.5625zm-1.6875-5.28125c0 2.453125-1.171875 4-2.953125 4-1.875 0-3.109375-1.5625-3.109375-4.03125 0-2.484375 1.234375-4.046875 3.078125-4.046875 1.828125 0 2.984375 1.625 2.984375 4.078125zm0 0"/></symbol><symbol id="I" overflow="visible"><path d="m10.34375-5.234375c0-3.671875-1.765625-5.703125-4.828125-5.703125-2.984375 0-4.78125 2.046875-4.78125 5.625 0 3.5625 1.78125 5.609375 4.8125 5.609375 2.984375 0 4.796875-2.046875 4.796875-5.53125zm-1.765625-.015625c0 2.484375-1.171875 3.984375-3.03125 3.984375-1.890625 0-3.046875-1.46875-3.046875-4.046875 0-2.5625 1.15625-4.0625 3.046875-4.0625 1.90625 0 3.03125 1.484375 3.03125 4.125zm0 0"/></symbol><symbol id="J" overflow="visible"><path d="m5.15625 0v-1.421875c-.21875.0625-.484375.078125-.8125.078125-.734375 0-.9375-.203125-.9375-.953125v-6.953125h1.75v-1.390625h-1.75v-2.921875h-1.6875v2.921875h-1.4375v1.390625h1.4375v7.703125c0 1.078125.734375 1.6875 2.0625 1.6875.40625 0 .8125-.046875 1.375-.140625zm0 0"/></symbol><symbol id="K" overflow="visible"><path d="m10.40625-4.828125c0-1.546875-.109375-2.515625-.421875-3.3125-.6875-1.75-2.3125-2.796875-4.296875-2.796875-2.96875 0-4.875 2.1875-4.875 5.6875 0 3.484375 1.84375 5.546875 4.828125 5.546875 2.4375 0 4.125-1.375 4.546875-3.53125h-1.703125c-.46875 1.40625-1.421875 1.96875-2.78125 1.96875-1.765625 0-3.078125-1.125-3.125-3.5625zm-1.796875-1.5s0 .078125-.03125.125h-5.953125c.140625-1.890625 1.328125-3.171875 3.03125-3.171875 1.671875 0 2.953125 1.375 2.953125 3.046875zm.703125-8.46875h-2.296875l-1.9375 3h1.21875zm0 0"/></symbol><symbol id="L" overflow="visible"><path d="m9.890625 0v-8.03125c0-1.765625-1.328125-2.90625-3.375-2.90625-1.578125 0-2.59375.609375-3.53125 2.09375v-1.796875h-1.5625v10.640625h1.6875v-5.859375c0-2.171875 1.171875-3.59375 2.90625-3.59375 1.328125 0 2.1875.8125 2.1875 2.078125v7.375zm0 0"/></symbol><symbol id="M" overflow="visible"><path d="m3.890625.328125v-2.4375h-2.125v2.109375h1.21875v.359375c0 1.40625-.265625 1.8125-1.21875 1.859375v.765625c1.421875 0 2.125-.921875 2.125-2.65625zm0 0"/></symbol><symbol id="N" overflow="visible"><path d="m9.78125 0v-10.640625h-1.6875v5.875c0 2.171875-1.125 3.59375-2.890625 3.59375-1.34375 0-2.203125-.8125-2.203125-2.09375v-7.375h-1.6875v8.046875c0 1.765625 1.328125 2.890625 3.390625 2.890625 1.5625 0 2.5625-.546875 3.5625-1.9375v1.640625zm0 0"/></symbol><symbol id="O" overflow="visible"><path d="m13.359375 0-6.09375-8.765625 6.03125-6.03125h-2.4375l-7.375 7.484375v-7.484375h-1.875v14.796875h1.875v-5.171875l2.421875-2.421875 5.21875 7.59375zm0 0"/></symbol><symbol id="P" overflow="visible"><path d="m6.515625-9.15625v-1.71875c-.28125-.046875-.421875-.0625-.65625-.0625-1.09375 0-1.921875.640625-2.890625 2.234375v-1.9375h-1.546875v10.640625h1.6875v-5.515625c0-2.40625.78125-3.59375 3.40625-3.640625zm0 0"/></symbol><symbol id="Q" overflow="visible"><path d="m3.109375 0v-10.640625h-1.6875v10.640625zm.21875-12.234375v-2.109375h-2.109375v2.109375zm0 0"/></symbol><symbol id="R" overflow="visible"><path d="m10.859375-.046875v-1.265625c-.1875.03125-.265625.03125-.359375.03125-.59375 0-.921875-.296875-.921875-.828125v-5.921875c0-1.890625-1.375-2.90625-4-2.90625-2.578125 0-4.15625.984375-4.265625 3.453125h1.71875c.140625-1.296875.90625-1.890625 2.484375-1.890625 1.53125 0 2.375.5625 2.375 1.578125v.453125c0 .703125-.421875 1.015625-1.765625 1.171875-2.390625.3125-2.75.390625-3.40625.65625-1.234375.5-1.859375 1.453125-1.859375 2.75 0 1.9375 1.328125 3.0625 3.484375 3.0625 1.359375 0 2.671875-.5625 3.609375-1.5625.1875.8125.921875 1.40625 1.75 1.40625.34375 0 .609375-.046875 1.15625-.1875zm-2.96875-3.625c0 1.515625-1.53125 2.5-3.1875 2.5-1.3125 0-2.078125-.46875-2.078125-1.625 0-1.125.75-1.609375 2.546875-1.875 1.796875-.234375 2.15625-.328125 2.71875-.578125zm1.328125-11.125h-2.296875l-1.953125 3h1.21875zm0 0"/></symbol><symbol id="S" overflow="visible"><path d="m10.859375-.046875v-1.265625c-.1875.03125-.265625.03125-.359375.03125-.59375 0-.921875-.296875-.921875-.828125v-5.921875c0-1.890625-1.375-2.90625-4-2.90625-2.578125 0-4.15625.984375-4.265625 3.453125h1.71875c.140625-1.296875.90625-1.890625 2.484375-1.890625 1.53125 0 2.375.5625 2.375 1.578125v.453125c0 .703125-.421875 1.015625-1.765625 1.171875-2.390625.3125-2.75.390625-3.40625.65625-1.234375.5-1.859375 1.453125-1.859375 2.75 0 1.9375 1.328125 3.0625 3.484375 3.0625 1.359375 0 2.671875-.5625 3.609375-1.5625.1875.8125.921875 1.40625 1.75 1.40625.34375 0 .609375-.046875 1.15625-.1875zm-2.96875-3.625c0 1.515625-1.53125 2.5-3.1875 2.5-1.3125 0-2.078125-.46875-2.078125-1.625 0-1.125.75-1.609375 2.546875-1.875 1.796875-.234375 2.15625-.328125 2.71875-.578125zm0 0"/></symbol><symbol id="T" overflow="visible"><path d="m10.1875 0-4.34375-6.96875 3.703125-3.671875h-2.171875l-4.515625 4.515625v-8.671875h-1.6875v14.796875h1.6875v-4.140625l1.640625-1.625 3.59375 5.765625zm0 0"/></symbol><symbol id="U" overflow="visible"><path d="m13.09375-4.5v-10.296875h-1.890625v10.296875c0 1.984375-1.4375 3.203125-3.8125 3.203125-2.21875 0-3.78125-1.0625-3.78125-3.203125v-10.296875h-1.890625v10.296875c0 3 2.15625 4.859375 5.671875 4.859375 3.46875 0 5.703125-1.90625 5.703125-4.859375zm0 0"/></symbol><symbol id="V" overflow="visible"><path d="m3.109375 2.21875v-12.859375h-1.6875v12.1875c0 1.015625-.34375 1.453125-1.375 1.390625l-.40625-.015625v1.4375c.203125.046875.296875.0625.5625.0625 1.90625 0 2.90625-.765625 2.90625-2.203125zm.21875-14.453125v-2.109375h-2.109375v2.109375zm0 0"/></symbol><symbol id="W" overflow="visible"><path d="m10.609375-5.21875c0-3.5625-1.734375-5.71875-4.5625-5.71875-1.4375 0-2.59375.640625-3.390625 1.90625v-1.609375h-1.546875v15.0625h1.6875v-5.703125c.890625 1.09375 1.890625 1.578125 3.265625 1.578125 2.75 0 4.546875-2.125 4.546875-5.515625zm-1.765625-.03125c0 2.40625-1.234375 3.96875-3.078125 3.96875-1.78125 0-2.96875-1.453125-2.96875-3.953125s1.1875-4.125 2.96875-4.125c1.859375 0 3.078125 1.5625 3.078125 4.109375zm0 0"/></symbol><symbol id="X" overflow="visible"><path d="m13.25 0-5.1875-14.796875h-2.4375l-5.28125 14.796875h2.015625l1.5625-4.4375h5.703125l1.515625 4.4375zm-4.15625-6.03125h-4.703125l2.421875-6.734375zm0 0"/></symbol><symbol id="Y" overflow="visible"><path d="m9.921875-1.75v-8.890625h-1.5625v1.546875c-.84375-1.25-1.890625-1.84375-3.25-1.84375-2.6875 0-4.515625 2.265625-4.515625 5.71875 0 3.34375 1.875 5.515625 4.375 5.515625 1.34375 0 2.28125-.5625 3.390625-1.90625v.71875c0 2.8125-1.15625 3.890625-3.125 3.890625-1.34375 0-2.375-.484375-2.578125-1.78125h-1.71875c.171875 2.015625 1.734375 3.203125 4.234375 3.203125 3.328125 0 4.75-1.484375 4.75-6.171875zm-1.71875-3.5c0 2.53125-1.09375 3.984375-2.890625 3.984375-1.84375 0-2.953125-1.46875-2.953125-4.046875 0-2.5625 1.125-4.0625 2.9375-4.0625 1.828125 0 2.90625 1.546875 2.90625 4.125zm0 0"/></symbol><symbol id="Z" overflow="visible"><path d="m9.703125-10.640625h-1.828125l-2.9375 8.28125-2.71875-8.28125h-1.8125l3.59375 10.6875-.65625 1.671875c-.28125.75-.625 1.046875-1.359375 1.046875-.234375 0-.515625-.046875-.890625-.125v1.515625c.34375.1875.6875.265625 1.140625.265625 1.203125 0 2.171875-.671875 2.734375-2.1875zm0 0"/></symbol><symbol id="aa" overflow="visible"><path d="m9.859375-10.640625h-1.90625l-3 8.625-2.84375-8.625h-1.90625l3.734375 10.640625h1.84375zm0 0"/></symbol><symbol id="ab" overflow="visible"><path d="m15.421875 0v-7.984375c0-1.90625-1.046875-2.953125-3.046875-2.953125-1.421875 0-2.265625.421875-3.265625 1.625-.625-1.140625-1.484375-1.625-2.859375-1.625-1.421875 0-2.359375.53125-3.265625 1.796875v-1.5h-1.546875v10.640625h1.6875v-6.671875c0-1.546875 1.109375-2.78125 2.5-2.78125 1.25 0 1.96875.765625 1.96875 2.125v7.328125h1.6875v-6.671875c0-1.546875 1.125-2.78125 2.515625-2.78125 1.234375 0 1.9375.78125 1.9375 2.125v7.328125zm0 0"/></symbol><symbol id="ac" overflow="visible"><path d="m10.609375-5.4375c0-3.453125-1.734375-5.5-4.546875-5.5-1.453125 0-2.484375.546875-3.28125 1.75v-5.609375h-1.6875v14.796875h1.53125v-1.515625c.8125 1.234375 1.875 1.8125 3.359375 1.8125 2.796875 0 4.625-2.28125 4.625-5.734375zm-1.765625.09375c0 2.421875-1.25 4.0625-3.09375 4.0625-1.796875 0-2.96875-1.625-2.96875-4.03125 0-2.5 1.171875-4.125 2.96875-4.046875 1.875 0 3.09375 1.640625 3.09375 4.015625zm0 0"/></symbol><symbol id="ad" overflow="visible"><path d="m15.453125 0v-14.796875h-2.625l-4.296875 12.890625-4.390625-12.890625h-2.625v14.796875h1.796875v-12.40625l4.203125 12.40625h1.984375l4.15625-12.40625v12.40625zm0 0"/></symbol><symbol id="ae" overflow="visible"><path d="m12.640625-4.21875c0-1.796875-.8125-2.859375-2.6875-3.59375 1.328125-.625 2.046875-1.734375 2.046875-3.234375 0-2.140625-1.59375-3.75-4.390625-3.75h-6v14.796875h6.671875c2.65625 0 4.359375-1.78125 4.359375-4.21875zm-2.53125-6.5625c0 1.5-.875 2.359375-2.96875 2.359375h-3.65625v-4.703125h3.65625c2.09375 0 2.96875.84375 2.96875 2.34375zm.640625 6.578125c0 1.421875-.859375 2.53125-2.65625 2.53125h-4.609375v-5.09375h4.609375c1.796875 0 2.65625 1.125 2.65625 2.5625zm0 0"/></symbol><symbol id="af" overflow="visible"><path d="m9.859375 0v-8.03125c0-1.796875-1.28125-2.90625-3.34375-2.90625-1.5 0-2.421875.46875-3.40625 1.765625v-5.625h-1.6875v14.796875h1.6875v-5.859375c0-2.171875 1.125-3.59375 2.875-3.59375 1.203125 0 2.1875.6875 2.1875 2.078125v7.375zm0 0"/></symbol><symbol id="ag" overflow="visible"><path d="m3.875 0v-2.109375h-2.109375v2.109375zm0-8.53125v-2.109375h-2.109375v2.109375zm0 0"/></symbol><symbol id="ah" overflow="visible"><path d="m11.828125 0v-1.671875h-8.890625l8.859375-11.421875v-1.703125h-10.65625v1.671875h8.3125l-8.890625 11.453125v1.671875zm0 0"/></symbol><symbol id="ai" overflow="visible"><path d="m6.828125 0v-12.8125h-1.671875c-.40625 1.515625-1.71875 2.296875-3.921875 2.296875v1.671875h3.0625v8.84375zm0 0"/></symbol><symbol id="aj" overflow="visible"><path d="m3.875 0v-2.640625h-2.71875v2.640625zm0 0"/></symbol><g clip-path="url(#a)"><path d="m5.078125 5910.851562h9911.132812" fill="none" stroke="#000" stroke-linecap="round" stroke-miterlimit="10" stroke-width="10.1507" transform="matrix(.06 0 0 -.06 0 410.28)"/></g><g clip-path="url(#b)"><path d="m5.078125 6047.830729h9911.132812" fill="none" stroke="#000" stroke-linecap="round" stroke-miterlimit="10" stroke-width="10.1507" transform="matrix(.06 0 0 -.06 0 410.28)"/></g><g clip-path="url(#c)"><path d="m5.078125 6184.875h9911.132812" fill="none" stroke="#000" stroke-linecap="round" stroke-miterlimit="10" stroke-width="10.1507" transform="matrix(.06 0 0 -.06 0 410.28)"/></g><g clip-path="url(#d)"><path d="m5.078125 6321.854167h9911.132812" fill="none" stroke="#000" stroke-linecap="round" stroke-miterlimit="10" stroke-width="10.1507" transform="matrix(.06 0 0 -.06 0 410.28)"/></g><g clip-path="url(#e)"><path d="m5.078125 6458.833333h9911.132812" fill="none" stroke="#000" stroke-linecap="round" stroke-miterlimit="10" stroke-width="10.1507" transform="matrix(.06 0 0 -.06 0 410.28)"/></g><path d="m5155.729167 5910.851562v547.981771" fill="none" stroke="#000" stroke-miterlimit="10" stroke-width="19.2877" transform="matrix(.06 0 0 -.06 0 410.28)"/><g clip-path="url(#f)"><path d="m9911.588542 5910.851562v547.981771" fill="none" stroke="#000" stroke-miterlimit="10" stroke-width="19.2877" transform="matrix(.06 0 0 -.06 0 410.28)"/></g><use x="405.709811" xlink:href="#y" y="47.407274"/><use x="395.259291" xlink:href="#C" y="84.393648"/><use x="405.464221" xlink:href="#D" y="84.393648"/><use x="415.669152" xlink:href="#E" y="84.393648"/><path d="m6930.794271 6078.169271h6.575521v349.544271h-6.575521zm0 0" fill="none" stroke="#000" stroke-linejoin="round" stroke-miterlimit="10" stroke-width="6.64384" transform="matrix(.06 0 0 -.06 0 410.28)"/><path d="m415.847656 45.589844h.394532v-20.972656h-.394532zm0 0"/><use x="450.258901" xlink:href="#y" y="51.517282"/><use x="447.801476" xlink:href="#F" y="84.394048"/><use x="452.223196" xlink:href="#G" y="84.394048"/><path d="m7673.307292 6009.614583h6.57552v418.098959h-6.57552zm0 0" fill="none" stroke="#000" stroke-linejoin="round" stroke-miterlimit="10" stroke-width="6.64384" transform="matrix(.06 0 0 -.06 0 410.28)"/><path d="m460.398438 49.703125h.394531v-25.085937h-.394531zm0 0"/><path d="m6168.815104 6009.614583h6.575521v418.098959h-6.575521zm0 0" fill="none" stroke="#000" stroke-linejoin="round" stroke-miterlimit="10" stroke-width="6.64384" transform="matrix(.06 0 0 -.06 0 410.28)"/><path d="m370.128906 49.703125h.394532v-25.085937h-.394532zm0 0"/><use x="348.603697" xlink:href="#H" y="84.393348"/><use x="359.828632" xlink:href="#I" y="84.393348"/><use x="370.883411" xlink:href="#J" y="84.393348"/><use x="376.49623" xlink:href="#J" y="84.393348"/><use x="359.98962" xlink:href="#y" y="51.516582"/><path d="m1713.997396 5524.523437h82.291666v5.078125h-82.291666zm0 0" fill="none" stroke="#000" stroke-linejoin="round" stroke-miterlimit="10" stroke-width="8.12329" transform="matrix(.06 0 0 -.06 0 410.28)"/><path d="m102.839844 78.808594h4.9375v-.304688h-4.9375zm0 0"/><path d="m7247.981771 5524.523437h82.291666v5.078125h-82.291666zm0 0" fill="none" stroke="#000" stroke-linejoin="round" stroke-miterlimit="10" stroke-width="8.12329" transform="matrix(.06 0 0 -.06 0 410.28)"/><path d="m434.878906 78.808594h4.9375v-.304688h-4.9375zm0 0"/><path d="m5426.302083 6401.476562h2253.515625v59.114584h-2253.515625zm0 0" fill="none" stroke="#000" stroke-linejoin="round" stroke-miterlimit="10" stroke-width="6.64384" transform="matrix(.06 0 0 -.06 0 410.28)"/><path d="m325.578125 26.191406h135.210937v-3.546875h-135.210937zm0 0"/><path d="m8610.807292 5524.523437h82.291666v5.078125h-82.291666zm0 0" fill="none" stroke="#000" stroke-linejoin="round" stroke-miterlimit="10" stroke-width="8.12329" transform="matrix(.06 0 0 -.06 0 410.28)"/><path d="m516.648438 78.808594h4.9375v-.304688h-4.9375zm0 0"/><path d="m7920.247396 5524.523437h82.291666v5.078125h-82.291666zm0 0" fill="none" stroke="#000" stroke-linejoin="round" stroke-miterlimit="10" stroke-width="8.12329" transform="matrix(.06 0 0 -.06 0 410.28)"/><path d="m475.214844 78.808594h4.9375v-.304688h-4.9375zm0 0"/><path d="m5602.473958 5524.523437h82.291667v5.078125h-82.291667zm0 0" fill="none" stroke="#000" stroke-linejoin="round" stroke-miterlimit="10" stroke-width="8.12329" transform="matrix(.06 0 0 -.06 0 410.28)"/><path d="m336.148438 78.808594h4.9375v-.304688h-4.9375zm0 0"/><path d="m2169.661458 6488.390625v-59.114583l749.023438 27.799479v59.114583zm0 0" fill="none" stroke="#000" stroke-linejoin="round" stroke-miterlimit="10" stroke-width="6.64384" transform="matrix(.06 0 0 -.06 0 410.28)"/><path d="m130.179688 20.976562v3.546876l44.941406-1.667969v-3.546875zm0 0"/><path d="m3972.265625 5524.523437h82.291667v5.078125h-82.291667zm0 0" fill="none" stroke="#000" stroke-linejoin="round" stroke-miterlimit="10" stroke-width="8.12329" transform="matrix(.06 0 0 -.06 0 410.28)"/><path d="m238.335938 78.808594h4.9375v-.304688h-4.9375zm0 0"/><path d="m3059.179687 5524.523437h82.291667v5.078125h-82.291667zm0 0" fill="none" stroke="#000" stroke-linejoin="round" stroke-miterlimit="10" stroke-width="8.12329" transform="matrix(.06 0 0 -.06 0 410.28)"/><path d="m183.550781 78.808594h4.9375v-.304688h-4.9375zm0 0"/><use x="494.80699" xlink:href="#y" y="55.626291"/><path d="m9228.710937 5872.635417h6.575521v445.898437h-6.575521zm0 0" fill="none" stroke="#000" stroke-linejoin="round" stroke-miterlimit="10" stroke-width="6.64384" transform="matrix(.06 0 0 -.06 0 410.28)"/><path d="m553.722656 57.921875h.394532v-26.753906h-.394532zm0 0"/><use x="529.81506" xlink:href="#C" y="84.393348"/><use x="540.01999" xlink:href="#K" y="84.393348"/><use x="551.244925" xlink:href="#L" y="84.393348"/><use x="562.46986" xlink:href="#M" y="84.393348"/><use x="543.582987" xlink:href="#y" y="59.735899"/><path d="m8415.755208 5941.125h6.575521v445.898437h-6.575521zm0 0" fill="none" stroke="#000" stroke-linejoin="round" stroke-miterlimit="10" stroke-width="6.64384" transform="matrix(.06 0 0 -.06 0 410.28)"/><path d="m504.945312 53.8125h.394532v-26.753906h-.394532zm0 0"/><use x="491.924984" xlink:href="#J" y="84.393348"/><use x="497.19752" xlink:href="#K" y="84.393348"/><use x="120.03924" xlink:href="#y" y="47.406974"/><use x="111.884844" xlink:href="#J" y="84.393348"/><use x="117.497897" xlink:href="#N" y="84.393348"/><use x="128.722832" xlink:href="#C" y="84.393348"/><path d="m2169.661458 6078.169271h6.575521v377.604166h-6.575521zm0 0" fill="none" stroke="#000" stroke-linejoin="round" stroke-miterlimit="10" stroke-width="6.64384" transform="matrix(.06 0 0 -.06 0 410.28)"/><path d="m130.179688 45.589844h.394531v-22.65625h-.394531zm0 0"/><use x="70.746741" xlink:href="#y" y="47.407274"/><use x="6.575413" xlink:href="#z" y="47.407274"/><use x="36.194872" xlink:href="#A" y="39.188198"/><use x="43.623407" xlink:href="#A" y="26.859373"/><use x="53.492257" xlink:href="#O" y="84.393588"/><use x="67.098216" xlink:href="#P" y="84.393588"/><use x="73.901195" xlink:href="#Q" y="84.393588"/><use x="78.323157" xlink:href="#C" y="84.393588"/><use x="88.528095" xlink:href="#D" y="84.393588"/><use x="30.13651" xlink:href="#ai" y="84.393588"/><use x="40.171273" xlink:href="#aj" y="84.393588"/><path d="m1348.111979 6078.169271h6.575521v445.833333h-6.575521zm0 0" fill="none" stroke="#000" stroke-linejoin="round" stroke-miterlimit="10" stroke-width="6.64384" transform="matrix(.06 0 0 -.06 0 410.28)"/><path d="m80.886719 45.589844h.394531v-26.75h-.394531zm0 0"/><path d="m5426.367187 6009.614583h6.510417v418.098959h-6.510417zm0 0" fill="none" stroke="#000" stroke-linejoin="round" stroke-miterlimit="10" stroke-width="6.64384" transform="matrix(.06 0 0 -.06 0 410.28)"/><path d="m325.582031 49.703125h.390625v-25.085937h-.390625zm0 0"/><use x="312.983626" xlink:href="#R" y="84.393348"/><use x="324.208561" xlink:href="#F" y="84.393348"/><use x="315.441291" xlink:href="#y" y="51.516582"/><path d="m4474.739583 6078.169271h6.575521v445.833333h-6.575521zm0 0" fill="none" stroke="#000" stroke-linejoin="round" stroke-miterlimit="10" stroke-width="6.64384" transform="matrix(.06 0 0 -.06 0 410.28)"/><path d="m268.484375 45.589844h.390625v-26.75h-.390625zm0 0"/><use x="247.382495" xlink:href="#L" y="84.393348"/><use x="258.60743" xlink:href="#S" y="84.393348"/><use x="269.832365" xlink:href="#T" y="84.393348"/><use x="258.344517" xlink:href="#y" y="47.406974"/><path d="m3654.622396 6078.169271h6.510416v445.833333h-6.510416zm0 0" fill="none" stroke="#000" stroke-linejoin="round" stroke-miterlimit="10" stroke-width="6.64384" transform="matrix(.06 0 0 -.06 0 410.28)"/><path d="m219.277344 45.589844h.390625v-26.75h-.390625zm0 0"/><use x="194.77339" xlink:href="#P" y="84.393348"/><use x="201.576376" xlink:href="#N" y="84.393348"/><use x="212.801311" xlink:href="#L" y="84.393348"/><use x="224.026246" xlink:href="#T" y="84.393348"/><use x="164.587729" xlink:href="#y" y="43.297466"/><use x="209.136418" xlink:href="#y" y="47.407004"/><use x="162.640525" xlink:href="#U" y="84.393378"/><path d="m2912.109375 6146.658854h6.575521v336.393229h-6.575521zm0 0" fill="none" stroke="#000" stroke-linejoin="round" stroke-miterlimit="10" stroke-width="6.64384" transform="matrix(.06 0 0 -.06 0 410.28)"/><path d="m174.726562 41.480469h.394532v-20.183594h-.394532zm0 0"/><g clip-path="url(#g)"><path d="m5.078125 4267.036458h9911.132812" style="fill:none;stroke-width:10.1507;stroke-linecap:round;stroke-linejoin:round;stroke:#000;stroke-miterlimit:10" transform="matrix(.06 0 0 -.06 0 410.28)"/></g><g clip-path="url(#h)"><path d="m5.078125 4404.015625h9911.132812" style="fill:none;stroke-width:10.1507;stroke-linecap:round;stroke-linejoin:round;stroke:#000;stroke-miterlimit:10" transform="matrix(.06 0 0 -.06 0 410.28)"/></g><g clip-path="url(#i)"><path d="m5.078125 4540.994792h9911.132812" style="fill:none;stroke-width:10.1507;stroke-linecap:round;stroke-linejoin:round;stroke:#000;stroke-miterlimit:10" transform="matrix(.06 0 0 -.06 0 410.28)"/></g><g clip-path="url(#j)"><path d="m5.078125 4677.973958h9911.132812" style="fill:none;stroke-width:10.1507;stroke-linecap:round;stroke-linejoin:round;stroke:#000;stroke-miterlimit:10" transform="matrix(.06 0 0 -.06 0 410.28)"/></g><g clip-path="url(#k)"><path d="m5.078125 4815.018229h9911.132812" style="fill:none;stroke-width:10.1507;stroke-linecap:round;stroke-linejoin:round;stroke:#000;stroke-miterlimit:10" transform="matrix(.06 0 0 -.06 0 410.28)"/></g><path d="m4851.5625 4267.036458v547.916667" fill="none" stroke="#000" stroke-linejoin="round" stroke-miterlimit="10" stroke-width="19.2877" transform="matrix(.06 0 0 -.06 0 410.28)"/><g clip-path="url(#l)"><path d="m9911.588542 4267.036458v547.916667" fill="none" stroke="#000" stroke-linejoin="round" stroke-miterlimit="10" stroke-width="19.2877" transform="matrix(.06 0 0 -.06 0 410.28)"/></g><use x="410.322821" xlink:href="#y" y="133.709447"/><use x="391.453283" xlink:href="#C" y="184.472148"/><use x="401.658213" xlink:href="#D" y="184.472148"/><use x="411.863144" xlink:href="#G" y="184.472148"/><use x="423.088079" xlink:href="#L" y="184.472148"/><use x="434.313014" xlink:href="#J" y="184.472148"/><path d="m6842.057292 4144.380208h6.510416v434.830729h-6.510416zm0 0" fill="none" stroke="#000" stroke-linejoin="round" stroke-miterlimit="10" stroke-width="6.64384" transform="matrix(.06 0 0 -.06 0 410.28)"/><path d="m410.523438 161.617188h.390624v-26.089844h-.390624zm0 0"/><use x="458.934918" xlink:href="#y" y="137.818455"/><use x="453.076236" xlink:href="#E" y="184.471548"/><use x="464.301171" xlink:href="#L" y="184.471548"/><path d="m7652.213542 4161.046875h6.57552v349.674479h-6.57552zm0 0" fill="none" stroke="#000" stroke-linejoin="round" stroke-miterlimit="10" stroke-width="6.64384" transform="matrix(.06 0 0 -.06 0 410.28)"/><path d="m459.132812 160.617188h.394532v-20.980469h-.394532zm0 0"/><path d="m5909.960937 4125.239583h6.510417v385.481771h-6.510417zm0 0" fill="none" stroke="#000" stroke-linejoin="round" stroke-miterlimit="10" stroke-width="6.64384" transform="matrix(.06 0 0 -.06 0 410.28)"/><path d="m354.597656 162.765625h.390625v-23.128906h-.390625zm0 0"/><use x="341.224682" xlink:href="#V" y="184.471548"/><use x="345.646637" xlink:href="#N" y="184.471548"/><use x="356.871572" xlink:href="#L" y="184.471548"/><use x="368.096507" xlink:href="#T" y="184.471548"/><use x="354.397709" xlink:href="#y" y="137.818455"/><path d="m1579.036458 3856.554687h82.291667v5.078125h-82.291667zm0 0" fill="none" stroke="#000" stroke-linejoin="round" stroke-miterlimit="10" stroke-width="8.12329" transform="matrix(.06 0 0 -.06 0 410.28)"/><path d="m94.742188 178.886719h4.9375v-.304688h-4.9375zm0 0"/><path d="m4960.807292 4131.815104v-59.114583l2697.98177 55.598958v59.114583zm0 0" fill="none" stroke="#000" stroke-linejoin="round" stroke-miterlimit="10" stroke-width="6.64384" transform="matrix(.06 0 0 -.06 0 410.28)"/><path d="m297.648438 162.371094v3.546875l161.878906-3.335938v-3.546875zm0 0"/><path d="m8706.315104 3856.554687h82.291667v5.078125h-82.291667zm0 0" fill="none" stroke="#000" stroke-linejoin="round" stroke-miterlimit="10" stroke-width="8.12329" transform="matrix(.06 0 0 -.06 0 410.28)"/><path d="m522.378906 178.886719h4.9375v-.304688h-4.9375zm0 0"/><path d="m8045.768229 3856.554687h82.291667v5.078125h-82.291667zm0 0" fill="none" stroke="#000" stroke-linejoin="round" stroke-miterlimit="10" stroke-width="8.12329" transform="matrix(.06 0 0 -.06 0 410.28)"/><path d="m482.746094 178.886719h4.9375v-.304688h-4.9375zm0 0"/><path d="m5536.328125 3856.554687h82.291667v5.078125h-82.291667zm0 0" fill="none" stroke="#000" stroke-linejoin="round" stroke-miterlimit="10" stroke-width="8.12329" transform="matrix(.06 0 0 -.06 0 410.28)"/><path d="m332.179688 178.886719h4.9375v-.304688h-4.9375zm0 0"/><path d="m2112.369792 4844.575521v-59.114584l705.79427 27.79948v59.049479zm0 0" fill="none" stroke="#000" stroke-linejoin="round" stroke-miterlimit="10" stroke-width="6.64384" transform="matrix(.06 0 0 -.06 0 410.28)"/><path d="m126.742188 119.605469v3.546875l42.347656-1.667969v-3.542969zm0 0"/><path d="m3752.34375 3856.554687h82.291667v5.078125h-82.291667zm0 0" fill="none" stroke="#000" stroke-linejoin="round" stroke-miterlimit="10" stroke-width="8.12329" transform="matrix(.06 0 0 -.06 0 410.28)"/><path d="m225.140625 178.886719h4.9375v-.304688h-4.9375zm0 0"/><path d="m2438.346354 3856.554687h82.291667v5.078125h-82.291667zm0 0" fill="none" stroke="#000" stroke-linejoin="round" stroke-miterlimit="10" stroke-width="8.12329" transform="matrix(.06 0 0 -.06 0 410.28)"/><path d="m146.300781 178.886719h4.9375v-.304688h-4.9375zm0 0"/><use x="500.763002" xlink:href="#y" y="141.928463"/><path d="m9279.296875 4434.289062h6.575521v445.898438h-6.575521zm0 0" fill="none" stroke="#000" stroke-linejoin="round" stroke-miterlimit="10" stroke-width="6.64384" transform="matrix(.06 0 0 -.06 0 410.28)"/><path d="m556.757812 144.222656h.394532v-26.753906h-.394532zm0 0"/><use x="532.341065" xlink:href="#W" y="184.471548"/><use x="543.566" xlink:href="#K" y="184.471548"/><use x="554.790935" xlink:href="#L" y="184.471548"/><use x="566.01587" xlink:href="#M" y="184.471548"/><use x="546.618793" xlink:href="#y" y="146.037672"/><path d="m8515.039062 4502.778646h6.575521v445.898437h-6.575521zm0 0" fill="none" stroke="#000" stroke-linejoin="round" stroke-miterlimit="10" stroke-width="6.64384" transform="matrix(.06 0 0 -.06 0 410.28)"/><path d="m510.902344 140.113281h.394531v-26.753906h-.394531zm0 0"/><use x="494.90399" xlink:href="#L" y="184.471548"/><use x="506.128925" xlink:href="#G" y="184.471548"/><use x="70.747141" xlink:href="#y" y="146.037672"/><use x="63.697597" xlink:href="#X" y="184.471548"/><use x="77.303557" xlink:href="#L" y="184.471548"/><path d="m1348.111979 4434.289062h6.575521v445.898438h-6.575521zm0 0" fill="none" stroke="#000" stroke-linejoin="round" stroke-miterlimit="10" stroke-width="6.64384" transform="matrix(.06 0 0 -.06 0 410.28)"/><path d="m80.886719 144.222656h.394531v-26.753906h-.394531zm0 0"/><use x="116.602233" xlink:href="#y" y="146.037472"/><use x="105.895712" xlink:href="#Y" y="184.471348"/><use x="117.120654" xlink:href="#Z" y="184.471348"/><use x="126.815364" xlink:href="#S" y="184.471348"/><path d="m2112.369792 4434.289062h6.57552v377.669271h-6.57552zm0 0" fill="none" stroke="#000" stroke-linejoin="round" stroke-miterlimit="10" stroke-width="6.64384" transform="matrix(.06 0 0 -.06 0 410.28)"/><path d="m126.742188 144.222656h.394531v-22.660156h-.394531zm0 0"/><use x="6.575403" xlink:href="#z" y="146.037472"/><use x="36.194862" xlink:href="#A" y="137.818155"/><use x="43.623397" xlink:href="#A" y="125.48953"/><use x="189.95769" xlink:href="#aa" y="184.471248"/><use x="199.6524" xlink:href="#G" y="184.471248"/><use x="210.877335" xlink:href="#P" y="184.471248"/><path d="m4096.809896 4087.739583h6.510416v422.981771h-6.510416zm0 0" fill="none" stroke="#000" stroke-linejoin="round" stroke-miterlimit="10" stroke-width="6.64384" transform="matrix(.06 0 0 -.06 0 410.28)"/><path d="m245.808594 165.015625h.390625v-25.378906h-.390625zm0 0"/><use x="237.537475" xlink:href="#C" y="184.471548"/><use x="247.742406" xlink:href="#G" y="184.471548"/><use x="258.797418" xlink:href="#J" y="184.471548"/><use x="245.607261" xlink:href="#y" y="137.818455"/><path d="m3476.5625 4365.799479h6.575521v445.898438h-6.575521zm0 0" fill="none" stroke="#000" stroke-linejoin="round" stroke-miterlimit="10" stroke-width="6.64384" transform="matrix(.06 0 0 -.06 0 410.28)"/><path d="m208.59375 148.332031h.394531v-26.75h-.394531zm0 0"/><use x="297.450595" xlink:href="#y" y="141.928463"/><use x="198.452697" xlink:href="#y" y="150.14754"/><use x="277.560055" xlink:href="#ab" y="184.471808"/><use x="294.397816" xlink:href="#I" y="184.471808"/><use x="305.622751" xlink:href="#L" y="184.471808"/><use x="316.847686" xlink:href="#H" y="184.471808"/><path d="m4960.872396 4105.708333h6.510416v336.523438h-6.510416zm0 0" fill="none" stroke="#000" stroke-linejoin="round" stroke-miterlimit="10" stroke-width="6.64384" transform="matrix(.06 0 0 -.06 0 410.28)"/><path d="m297.648438 163.9375h.394531v-20.191406h-.394531zm0 0"/><path d="m2811.588542 4502.778646h6.57552v336.393229h-6.57552zm0 0" fill="none" stroke="#000" stroke-linejoin="round" stroke-miterlimit="10" stroke-width="6.64384" transform="matrix(.06 0 0 -.06 0 410.28)"/><path d="m168.695312 140.113281h.390626v-20.183593h-.390626zm0 0"/><use x="159.499319" xlink:href="#F" y="184.471548"/><use x="163.921274" xlink:href="#Q" y="184.471548"/><use x="158.554786" xlink:href="#y" y="141.928163"/><g clip-path="url(#m)"><path d="m5.078125 2623.221354h9911.132812" style="fill:none;stroke-width:10.1507;stroke-linecap:round;stroke-linejoin:round;stroke:#000;stroke-miterlimit:10" transform="matrix(.06 0 0 -.06 0 410.28)"/></g><g clip-path="url(#n)"><path d="m5.078125 2760.200521h9911.132812" style="fill:none;stroke-width:10.1507;stroke-linecap:round;stroke-linejoin:round;stroke:#000;stroke-miterlimit:10" transform="matrix(.06 0 0 -.06 0 410.28)"/></g><g clip-path="url(#o)"><path d="m5.078125 2897.179687h9911.132812" style="fill:none;stroke-width:10.1507;stroke-linecap:round;stroke-linejoin:round;stroke:#000;stroke-miterlimit:10" transform="matrix(.06 0 0 -.06 0 410.28)"/></g><g clip-path="url(#p)"><path d="m5.078125 3034.158854h9911.132812" style="fill:none;stroke-width:10.1507;stroke-linecap:round;stroke-linejoin:round;stroke:#000;stroke-miterlimit:10" transform="matrix(.06 0 0 -.06 0 410.28)"/></g><g clip-path="url(#q)"><path d="m5.078125 3171.138021h9911.132812" style="fill:none;stroke-width:10.1507;stroke-linecap:round;stroke-linejoin:round;stroke:#000;stroke-miterlimit:10" transform="matrix(.06 0 0 -.06 0 410.28)"/></g><path d="m5152.929687 2623.221354v547.916667" fill="none" stroke="#000" stroke-linejoin="round" stroke-miterlimit="10" stroke-width="19.2877" transform="matrix(.06 0 0 -.06 0 410.28)"/><g clip-path="url(#r)"><path d="m9911.588542 2623.221354v547.916667" fill="none" stroke="#000" stroke-linejoin="round" stroke-miterlimit="10" stroke-width="19.2877" transform="matrix(.06 0 0 -.06 0 410.28)"/></g><use x="404.175808" xlink:href="#y" y="248.777677"/><use x="401.718383" xlink:href="#V" y="281.985643"/><use x="406.140104" xlink:href="#K" y="281.985643"/><path d="m6905.273437 2721.984375h6.575521v427.34375h-6.575521zm0 0" fill="none" stroke="#000" stroke-linejoin="round" stroke-miterlimit="10" stroke-width="6.64384" transform="matrix(.06 0 0 -.06 0 410.28)"/><path d="m414.316406 246.960938h.394532v-25.640626h-.394532zm0 0"/><use x="448.628897" xlink:href="#y" y="252.887685"/><use x="437.157374" xlink:href="#ac" y="281.986143"/><use x="448.382309" xlink:href="#G" y="281.986143"/><use x="459.607244" xlink:href="#L" y="281.986143"/><path d="m7646.158854 2653.494792h6.575521v486.588541h-6.575521zm0 0" fill="none" stroke="#000" stroke-linejoin="round" stroke-miterlimit="10" stroke-width="6.64384" transform="matrix(.06 0 0 -.06 0 410.28)"/><path d="m458.769531 251.070312h.390625v-29.195312h-.390625zm0 0"/><path d="m6164.388021 2790.473958h6.510416v368.033854h-6.510416zm0 0" fill="none" stroke="#000" stroke-linejoin="round" stroke-miterlimit="10" stroke-width="6.64384" transform="matrix(.06 0 0 -.06 0 410.28)"/><path d="m369.863281 242.851562h.390625v-22.082031h-.390625zm0 0"/><use x="354.373709" xlink:href="#D" y="281.985743"/><use x="364.578639" xlink:href="#G" y="281.985743"/><use x="359.722859" xlink:href="#y" y="244.668269"/><path d="m7079.882812 2231.359375h82.291667v5.078125h-82.291667zm0 0" fill="none" stroke="#000" stroke-linejoin="round" stroke-miterlimit="10" stroke-width="8.12329" transform="matrix(.06 0 0 -.06 0 410.28)"/><path d="m424.792969 276.398438h4.9375v-.304688h-4.9375zm0 0"/><path d="m5423.4375 3200.695312v-59.114583l2229.231771-27.799479v59.114583zm0 0" fill="none" stroke="#000" stroke-linejoin="round" stroke-miterlimit="10" stroke-width="6.64384" transform="matrix(.06 0 0 -.06 0 410.28)"/><path d="m325.40625 218.238281v3.546875l133.753906 1.667969v-3.546875zm0 0"/><path d="m8623.111979 2231.359375h82.291667v5.078125h-82.291667zm0 0" fill="none" stroke="#000" stroke-linejoin="round" stroke-miterlimit="10" stroke-width="8.12329" transform="matrix(.06 0 0 -.06 0 410.28)"/><path d="m517.386719 276.398438h4.9375v-.304688h-4.9375zm0 0"/><path d="m6438.216146 2231.359375h82.291666v5.078125h-82.291666zm0 0" fill="none" stroke="#000" stroke-linejoin="round" stroke-miterlimit="10" stroke-width="8.12329" transform="matrix(.06 0 0 -.06 0 410.28)"/><path d="m386.292969 276.398438h4.933593v-.304688h-4.933593zm0 0"/><path d="m5700.846354 2231.359375h82.291667v5.078125h-82.291667zm0 0" fill="none" stroke="#000" stroke-linejoin="round" stroke-miterlimit="10" stroke-width="8.12329" transform="matrix(.06 0 0 -.06 0 410.28)"/><path d="m342.050781 276.398438h4.9375v-.304688h-4.9375zm0 0"/><path d="m2009.635417 2456.684896h747.460937v59.114583h-747.460937zm0 0" fill="none" stroke="#000" stroke-linejoin="round" stroke-miterlimit="10" stroke-width="6.64384" transform="matrix(.06 0 0 -.06 0 410.28)"/><path d="m120.578125 262.878906h44.847656v-3.546875h-44.847656zm0 0"/><path d="m3971.289062 2231.359375h82.291667v5.078125h-82.291667zm0 0" fill="none" stroke="#000" stroke-linejoin="round" stroke-miterlimit="10" stroke-width="8.12329" transform="matrix(.06 0 0 -.06 0 410.28)"/><path d="m238.277344 276.398438h4.9375v-.304688h-4.9375zm0 0"/><path d="m3066.40625 2231.359375h82.291667v5.078125h-82.291667zm0 0" fill="none" stroke="#000" stroke-linejoin="round" stroke-miterlimit="10" stroke-width="8.12329" transform="matrix(.06 0 0 -.06 0 410.28)"/><path d="m183.984375 276.398438h4.933594v-.304688h-4.933594zm0 0"/><path d="m2486.002604 2231.359375h82.291667v5.078125h-82.291667zm0 0" fill="none" stroke="#000" stroke-linejoin="round" stroke-miterlimit="10" stroke-width="8.12329" transform="matrix(.06 0 0 -.06 0 410.28)"/><path d="m149.160156 276.398438h4.9375v-.304688h-4.9375zm0 0"/><use x="493.082986" xlink:href="#y" y="256.996693"/><path d="m9232.421875 2790.473958h6.575521v445.833334h-6.575521zm0 0" fill="none" stroke="#000" stroke-linejoin="round" stroke-miterlimit="10" stroke-width="6.64384" transform="matrix(.06 0 0 -.06 0 410.28)"/><path d="m553.945312 242.851562h.394532v-26.75h-.394532zm0 0"/><use x="532.334065" xlink:href="#Y" y="281.985743"/><use x="543.559" xlink:href="#G" y="281.985743"/><use x="554.783935" xlink:href="#L" y="281.985743"/><use x="543.805588" xlink:href="#y" y="244.668269"/><path d="m8387.044271 2585.005208h6.575521v445.833334h-6.575521zm0 0" fill="none" stroke="#000" stroke-linejoin="round" stroke-miterlimit="10" stroke-width="6.64384" transform="matrix(.06 0 0 -.06 0 410.28)"/><path d="m503.222656 255.179688h.390625v-26.75h-.390625zm0 0"/><use x="489.519979" xlink:href="#P" y="281.985743"/><use x="496.152809" xlink:href="#K" y="281.985743"/><use x="70.747141" xlink:href="#y" y="244.668269"/><use x="54.76811" xlink:href="#ad" y="281.985743"/><use x="71.606112" xlink:href="#G" y="281.985743"/><use x="82.831054" xlink:href="#F" y="281.985743"/><use x="87.253016" xlink:href="#Z" y="281.985743"/><path d="m1348.111979 2790.473958h6.575521v445.833334h-6.575521zm0 0" fill="none" stroke="#000" stroke-linejoin="round" stroke-miterlimit="10" stroke-width="6.64384" transform="matrix(.06 0 0 -.06 0 410.28)"/><path d="m80.886719 242.851562h.394531v-26.75h-.394531zm0 0"/><use x="120.379241" xlink:href="#y" y="236.448652"/><use x="110.609061" xlink:href="#ae" y="281.985443"/><use x="124.215028" xlink:href="#G" y="281.985443"/><use x="135.269807" xlink:href="#J" y="281.985443"/><path d="m2009.635417 2489.5625h6.57552v377.34375h-6.57552zm0 0" fill="none" stroke="#000" stroke-linejoin="round" stroke-miterlimit="10" stroke-width="6.64384" transform="matrix(.06 0 0 -.06 0 410.28)"/><path d="m120.578125 260.90625h.394531v-22.640625h-.394531zm0 0"/><use x="6.575403" xlink:href="#z" y="244.668669"/><use x="36.194862" xlink:href="#A" y="236.449352"/><use x="43.623397" xlink:href="#A" y="224.120728"/><use x="194.8827" xlink:href="#af" y="281.986143"/><use x="206.107635" xlink:href="#G" y="281.986143"/><use x="217.332804" xlink:href="#ab" y="281.986143"/><path d="m4473.697917 2790.473958h6.57552v445.833334h-6.57552zm0 0" fill="none" stroke="#000" stroke-linejoin="round" stroke-miterlimit="10" stroke-width="6.64384" transform="matrix(.06 0 0 -.06 0 410.28)"/><path d="m268.421875 242.851562h.394531v-26.75h-.394531zm0 0"/><use x="247.322495" xlink:href="#L" y="281.985743"/><use x="258.54743" xlink:href="#G" y="281.985743"/><use x="269.772365" xlink:href="#T" y="281.985743"/><use x="258.283517" xlink:href="#y" y="244.668269"/><path d="m3655.013021 2858.963542h6.575521v445.833333h-6.575521zm0 0" fill="none" stroke="#000" stroke-linejoin="round" stroke-miterlimit="10" stroke-width="6.64384" transform="matrix(.06 0 0 -.06 0 410.28)"/><path d="m219.300781 238.742188h.394531v-26.75h-.394531zm0 0"/><use x="315.269631" xlink:href="#y" y="248.777677"/><use x="209.160418" xlink:href="#y" y="240.558601"/><use x="306.603913" xlink:href="#ab" y="281.985683"/><use x="323.441674" xlink:href="#G" y="281.985683"/><path d="m5423.502604 2721.984375h6.510417v445.768229h-6.510417zm0 0" fill="none" stroke="#000" stroke-linejoin="round" stroke-miterlimit="10" stroke-width="6.64384" transform="matrix(.06 0 0 -.06 0 410.28)"/><path d="m325.410156 246.960938h.390625v-26.746094h-.390625zm0 0"/><path d="m2750.520833 2489.5625h6.575521v377.34375h-6.575521zm0 0" fill="none" stroke="#000" stroke-linejoin="round" stroke-miterlimit="10" stroke-width="6.64384" transform="matrix(.06 0 0 -.06 0 410.28)"/><path d="m165.03125 260.90625h.394531v-22.640625h-.394531zm0 0"/><use x="162.375325" xlink:href="#F" y="281.985743"/><use x="166.79728" xlink:href="#G" y="281.985743"/><use x="164.83299" xlink:href="#y" y="236.448952"/><g clip-path="url(#s)"><path d="m5.078125 979.341146h9911.132812" style="fill:none;stroke-width:10.1507;stroke-linecap:round;stroke-linejoin:round;stroke:#000;stroke-miterlimit:10" transform="matrix(.06 0 0 -.06 0 410.28)"/></g><g clip-path="url(#t)"><path d="m5.078125 1116.385417h9911.132812" style="fill:none;stroke-width:10.1507;stroke-linecap:round;stroke-linejoin:round;stroke:#000;stroke-miterlimit:10" transform="matrix(.06 0 0 -.06 0 410.28)"/></g><g clip-path="url(#u)"><path d="m5.078125 1253.364583h9911.132812" style="fill:none;stroke-width:10.1507;stroke-linecap:round;stroke-linejoin:round;stroke:#000;stroke-miterlimit:10" transform="matrix(.06 0 0 -.06 0 410.28)"/></g><g clip-path="url(#v)"><path d="m5.078125 1390.34375h9911.132812" style="fill:none;stroke-width:10.1507;stroke-linecap:round;stroke-linejoin:round;stroke:#000;stroke-miterlimit:10" transform="matrix(.06 0 0 -.06 0 410.28)"/></g><g clip-path="url(#w)"><path d="m5.078125 1527.322917h9911.132812" style="fill:none;stroke-width:10.1507;stroke-linecap:round;stroke-linejoin:round;stroke:#000;stroke-miterlimit:10" transform="matrix(.06 0 0 -.06 0 410.28)"/></g><path d="m7960.221354 842.361979h244.466146" style="fill:none;stroke-width:23.8493;stroke-linecap:round;stroke-linejoin:round;stroke:#000;stroke-miterlimit:10" transform="matrix(.06 0 0 -.06 0 410.28)"/><g clip-path="url(#x)"><path d="m9890.820312 979.341146v547.981771" fill="none" stroke="#000" stroke-linejoin="round" stroke-miterlimit="10" stroke-width="60.9178" transform="matrix(.06 0 0 -.06 0 410.28)"/></g><path d="m9820.247396 979.341146v547.981771" fill="none" stroke="#000" stroke-linejoin="round" stroke-miterlimit="10" stroke-width="19.2877" transform="matrix(.06 0 0 -.06 0 410.28)"/><path d="m8161.979167 872.635417h6.57552v445.898437h-6.57552zm0 0" fill="none" stroke="#000" stroke-linejoin="round" stroke-miterlimit="10" stroke-width="6.64384" transform="matrix(.06 0 0 -.06 0 410.28)"/><path d="m489.71875 357.921875h.394531v-26.753906h-.394531zm0 0"/><use x="275.16355" xlink:href="#y" y="351.517582"/><use x="465.302931" xlink:href="#W" y="380.36714"/><use x="476.527866" xlink:href="#G" y="380.36714"/><use x="487.752801" xlink:href="#L" y="380.36714"/><use x="498.977736" xlink:href="#ag" y="380.36714"/><use x="484.94687" xlink:href="#B" y="316.166112"/><use x="479.580609" xlink:href="#y" y="359.736999"/><path d="m6368.815104 941.125h6.575521v445.898437h-6.575521zm0 0" fill="none" stroke="#000" stroke-linejoin="round" stroke-miterlimit="10" stroke-width="6.64384" transform="matrix(.06 0 0 -.06 0 410.28)"/><path d="m382.128906 353.8125h.394532v-26.753906h-.394532zm0 0"/><use x="361.284723" xlink:href="#T" y="380.36714"/><use x="370.979183" xlink:href="#K" y="380.36714"/><use x="382.204118" xlink:href="#W" y="380.36714"/><use x="371.991044" xlink:href="#y" y="355.627391"/><path d="m4755.078125 1009.614583h6.510417v377.473959h-6.510417zm0 0" fill="none" stroke="#000" stroke-linejoin="round" stroke-miterlimit="10" stroke-width="6.64384" transform="matrix(.06 0 0 -.06 0 410.28)"/><path d="m285.304688 349.703125h.390624v-22.648437h-.390624zm0 0"/><use x="274.91755" xlink:href="#G" y="380.36714"/><path d="m2129.622396 591.645833h82.291666v5.078125h-82.291666zm0 0" fill="none" stroke="#000" stroke-linejoin="round" stroke-miterlimit="10" stroke-width="8.12329" transform="matrix(.06 0 0 -.06 0 410.28)"/><path d="m127.777344 374.78125h4.9375v-.304688h-4.9375zm0 0"/><path d="m5354.101562 591.645833h82.226563v5.078125h-82.226563zm0 0" fill="none" stroke="#000" stroke-linejoin="round" stroke-miterlimit="10" stroke-width="8.12329" transform="matrix(.06 0 0 -.06 0 410.28)"/><path d="m321.246094 374.78125h4.933594v-.304688h-4.933594zm0 0"/><path d="m7114.908854 591.645833h82.291667v5.078125h-82.291667zm0 0" fill="none" stroke="#000" stroke-linejoin="round" stroke-miterlimit="10" stroke-width="8.12329" transform="matrix(.06 0 0 -.06 0 410.28)"/><path d="m426.894531 374.78125h4.9375v-.304688h-4.9375zm0 0"/><path d="m3141.276042 1447.700521v-59.114584l1620.3125-27.799479v59.114584zm0 0" fill="none" stroke="#000" stroke-linejoin="round" stroke-miterlimit="10" stroke-width="6.64384" transform="matrix(.06 0 0 -.06 0 410.28)"/><path d="m188.476562 323.417969v3.546875l97.21875 1.667968v-3.546874zm0 0"/><use x="36.194872" xlink:href="#A" y="335.07925"/><use x="43.623407" xlink:href="#A" y="322.750625"/><use x="6.575433" xlink:href="#z" y="343.298566"/><path d="m3141.276042 1078.169271h6.510416v336.523437h-6.510416zm0 0" fill="none" stroke="#000" stroke-linejoin="round" stroke-miterlimit="10" stroke-width="6.64384" transform="matrix(.06 0 0 -.06 0 410.28)"/><path d="m188.476562 345.589844h.390626v-20.191406h-.390626zm0 0"/><use x="166.950334" xlink:href="#Y" y="380.36714"/><use x="178.175269" xlink:href="#G" y="380.36714"/><use x="189.230048" xlink:href="#J" y="380.36714"/><use x="194.843101" xlink:href="#J" y="380.36714"/><use x="178.336557" xlink:href="#y" y="347.408074"/><path d="m1348.111979 1146.658854h6.575521v445.833333h-6.575521zm0 0" fill="none" stroke="#000" stroke-linejoin="round" stroke-miterlimit="10" stroke-width="6.64384" transform="matrix(.06 0 0 -.06 0 410.28)"/><path d="m80.886719 341.480469h.394531v-26.75h-.394531zm0 0"/><use x="58.680117" xlink:href="#ah" y="380.36714"/><use x="71.095923" xlink:href="#G" y="380.36714"/><use x="82.3211" xlink:href="#L" y="380.36714"/><use x="70.746741" xlink:href="#y" y="343.298566"/></svg>