<svg height="911.76em" viewBox="0 0 595.28 911.76" width="595.28em" xmlns="http://www.w3.org/2000/svg" xmlns:xlink="http://www.w3.org/1999/xlink"><clipPath id="a"><path d="m0 84h595.28125v1h-595.28125zm0 0"/></clipPath><clipPath id="b"><path d="m0 71h595.28125v2h-595.28125zm0 0"/></clipPath><clipPath id="c"><path d="m0 59h595.28125v1h-595.28125zm0 0"/></clipPath><clipPath id="d"><path d="m0 46h595.28125v2h-595.28125zm0 0"/></clipPath><clipPath id="e"><path d="m0 34h595.28125v1h-595.28125zm0 0"/></clipPath><clipPath id="f"><path d="m593 34h2.28125v5h-2.28125zm0 0"/></clipPath><clipPath id="g"><path d="m594 34h1.28125v5h-1.28125zm0 0"/></clipPath><clipPath id="h"><path d="m593 43h2.28125v8h-2.28125zm0 0"/></clipPath><clipPath id="i"><path d="m594 43h1.28125v8h-1.28125zm0 0"/></clipPath><clipPath id="j"><path d="m593 55h2.28125v9h-2.28125zm0 0"/></clipPath><clipPath id="k"><path d="m594 55h1.28125v9h-1.28125zm0 0"/></clipPath><clipPath id="l"><path d="m593 68h2.28125v8h-2.28125zm0 0"/></clipPath><clipPath id="m"><path d="m594 68h1.28125v8h-1.28125zm0 0"/></clipPath><clipPath id="n"><path d="m593 80h2.28125v5h-2.28125zm0 0"/></clipPath><clipPath id="o"><path d="m594 80h1.28125v5h-1.28125zm0 0"/></clipPath><clipPath id="p"><path d="m0 233h595.28125v2h-595.28125zm0 0"/></clipPath><clipPath id="q"><path d="m0 221h595.28125v1h-595.28125zm0 0"/></clipPath><clipPath id="r"><path d="m0 208h595.28125v2h-595.28125zm0 0"/></clipPath><clipPath id="s"><path d="m0 196h595.28125v1h-595.28125zm0 0"/></clipPath><clipPath id="t"><path d="m0 183h595.28125v2h-595.28125zm0 0"/></clipPath><clipPath id="u"><path d="m593 183h2.28125v5h-2.28125zm0 0"/></clipPath><clipPath id="v"><path d="m594 183h1.28125v5h-1.28125zm0 0"/></clipPath><clipPath id="w"><path d="m593 192h2.28125v9h-2.28125zm0 0"/></clipPath><clipPath id="x"><path d="m594 192h1.28125v9h-1.28125zm0 0"/></clipPath><clipPath id="y"><path d="m593 205h2.28125v8h-2.28125zm0 0"/></clipPath><clipPath id="z"><path d="m594 205h1.28125v8h-1.28125zm0 0"/></clipPath><clipPath id="A"><path d="m593 217h2.28125v9h-2.28125zm0 0"/></clipPath><clipPath id="B"><path d="m594 217h1.28125v8h-1.28125zm0 0"/></clipPath><clipPath id="C"><path d="m593 230h2.28125v5h-2.28125zm0 0"/></clipPath><clipPath id="D"><path d="m594 230h1.28125v5h-1.28125zm0 0"/></clipPath><clipPath id="E"><path d="m0 382h595.28125v2h-595.28125zm0 0"/></clipPath><clipPath id="F"><path d="m0 370h595.28125v2h-595.28125zm0 0"/></clipPath><clipPath id="G"><path d="m0 357h595.28125v2h-595.28125zm0 0"/></clipPath><clipPath id="H"><path d="m0 345h595.28125v2h-595.28125zm0 0"/></clipPath><clipPath id="I"><path d="m0 333h595.28125v1h-595.28125zm0 0"/></clipPath><clipPath id="J"><path d="m593 332h2.28125v52h-2.28125zm0 0"/></clipPath><clipPath id="K"><path d="m0 532h595.28125v2h-595.28125zm0 0"/></clipPath><clipPath id="L"><path d="m0 519h595.28125v2h-595.28125zm0 0"/></clipPath><clipPath id="M"><path d="m0 507h595.28125v2h-595.28125zm0 0"/></clipPath><clipPath id="N"><path d="m0 494h595.28125v2h-595.28125zm0 0"/></clipPath><clipPath id="O"><path d="m0 482h595.28125v2h-595.28125zm0 0"/></clipPath><clipPath id="P"><path d="m593 482h2.28125v5h-2.28125zm0 0"/></clipPath><clipPath id="Q"><path d="m594 482h1.28125v5h-1.28125zm0 0"/></clipPath><clipPath id="R"><path d="m593 491h2.28125v9h-2.28125zm0 0"/></clipPath><clipPath id="S"><path d="m594 491h1.28125v8h-1.28125zm0 0"/></clipPath><clipPath id="T"><path d="m593 504h2.28125v8h-2.28125zm0 0"/></clipPath><clipPath id="U"><path d="m594 504h1.28125v8h-1.28125zm0 0"/></clipPath><clipPath id="V"><path d="m593 516h2.28125v8h-2.28125zm0 0"/></clipPath><clipPath id="W"><path d="m594 516h1.28125v8h-1.28125zm0 0"/></clipPath><clipPath id="X"><path d="m593 528h2.28125v6h-2.28125zm0 0"/></clipPath><clipPath id="Y"><path d="m594 529h1.28125v4h-1.28125zm0 0"/></clipPath><clipPath id="Z"><path d="m0 681h595.28125v2h-595.28125zm0 0"/></clipPath><clipPath id="aa"><path d="m0 669h595.28125v2h-595.28125zm0 0"/></clipPath><clipPath id="ab"><path d="m0 656h595.28125v2h-595.28125zm0 0"/></clipPath><clipPath id="ac"><path d="m0 644h595.28125v2h-595.28125zm0 0"/></clipPath><clipPath id="ad"><path d="m0 631h595.28125v2h-595.28125zm0 0"/></clipPath><clipPath id="ae"><path d="m593 631h2.28125v6h-2.28125zm0 0"/></clipPath><clipPath id="af"><path d="m594 632h1.28125v4h-1.28125zm0 0"/></clipPath><clipPath id="ag"><path d="m593 641h2.28125v8h-2.28125zm0 0"/></clipPath><clipPath id="ah"><path d="m594 641h1.28125v8h-1.28125zm0 0"/></clipPath><clipPath id="ai"><path d="m593 653h2.28125v8h-2.28125zm0 0"/></clipPath><clipPath id="aj"><path d="m594 653h1.28125v8h-1.28125zm0 0"/></clipPath><clipPath id="ak"><path d="m593 665h2.28125v9h-2.28125zm0 0"/></clipPath><clipPath id="al"><path d="m594 666h1.28125v8h-1.28125zm0 0"/></clipPath><clipPath id="am"><path d="m593 678h2.28125v5h-2.28125zm0 0"/></clipPath><clipPath id="an"><path d="m594 678h1.28125v5h-1.28125zm0 0"/></clipPath><clipPath id="ao"><path d="m0 831h595.28125v1h-595.28125zm0 0"/></clipPath><clipPath id="ap"><path d="m0 818h595.28125v2h-595.28125zm0 0"/></clipPath><clipPath id="aq"><path d="m0 806h595.28125v2h-595.28125zm0 0"/></clipPath><clipPath id="ar"><path d="m0 793h595.28125v2h-595.28125zm0 0"/></clipPath><clipPath id="as"><path d="m0 781h595.28125v2h-595.28125zm0 0"/></clipPath><clipPath id="at"><path d="m590 779h5.28125v55h-5.28125zm0 0"/></clipPath><symbol id="au" overflow="visible"><path d="m8.765625 0 6.171875-16.109375h-2.890625l-4.546875 13.0625-4.296875-13.0625h-2.890625l5.65625 16.109375zm0 0"/></symbol><symbol id="av" overflow="visible"><path d="m15.78125-7.203125c0-2.453125-.1875-3.921875-.65625-5.125-1.046875-2.640625-3.5-4.25-6.515625-4.25-4.484375 0-7.375 3.421875-7.375 8.734375 0 5.328125 2.765625 8.546875 7.3125 8.546875 3.6875 0 6.25-2.09375 6.890625-5.59375h-2.578125c-.71875 2.125-2.15625 3.234375-4.21875 3.234375-1.625 0-3.015625-.75-3.875-2.09375-.609375-.921875-.828125-1.84375-.859375-3.453125zm-11.8125-2.078125c.21875-2.984375 2.03125-4.921875 4.609375-4.921875 2.609375 0 4.421875 2.03125 4.421875 4.921875zm0 0"/></symbol><symbol id="aw" overflow="visible"><path d="m4.671875-22.421875h-2.578125v22.421875h2.578125zm0 0"/></symbol><symbol id="ax" overflow="visible"><path d="m13.46875-11.625c-.03125-3.171875-2.125-4.953125-5.84375-4.953125-3.75 0-6.1875 1.9375-6.1875 4.921875 0 2.53125 1.296875 3.71875 5.109375 4.640625l2.40625.59375c1.78125.421875 2.484375 1.078125 2.484375 2.203125 0 1.546875-1.5 2.5625-3.75 2.5625-1.390625 0-2.546875-.40625-3.203125-1.078125-.390625-.46875-.578125-.921875-.734375-2.0625h-2.703125c.125 3.71875 2.21875 5.5 6.421875 5.5 4.0625 0 6.640625-2 6.640625-5.09375 0-2.40625-1.34375-3.734375-4.546875-4.5l-2.453125-.578125c-2.09375-.5-2.984375-1.171875-2.984375-2.3125 0-1.5 1.3125-2.421875 3.40625-2.421875 2.0625 0 3.171875.890625 3.234375 2.578125zm0 0"/></symbol><symbol id="ay" overflow="visible"><path d="m13.625-16.109375h-12.03125v2.234375h8.984375l-9.625 11.5625v2.3125h13.09375v-2.25h-9.984375l9.5625-11.59375zm0 0"/></symbol><symbol id="az" overflow="visible"><path d="m5.4375-16.109375h-2.546875v16.109375h2.546875zm-.484375-6.640625-2.953125 4.546875h1.84375l4.578125-4.546875zm0 0"/></symbol><symbol id="aA" overflow="visible"><path d="m5.28125-7.84375 3.671875-3.65625 7.890625 11.5h3.390625l-9.21875-13.28125 9.125-9.140625h-3.6875l-11.171875 11.359375v-11.359375h-2.859375v22.421875h2.859375zm0 0"/></symbol><symbol id="aB" overflow="visible"><path d="m2.125-16.109375v16.109375h2.578125v-8.359375c.03125-3.875 1.625-5.59375 5.171875-5.515625v-2.609375c-.4375-.0625-.6875-.09375-.984375-.09375-1.671875 0-2.921875.984375-4.40625 3.390625v-2.921875zm0 0"/></symbol><symbol id="aC" overflow="visible"><path d="m1.65625-22.421875v22.421875h2.3125v-2.0625c1.234375 1.875 2.859375 2.765625 5.109375 2.765625 4.234375 0 7-3.46875 7-8.828125 0-5.21875-2.609375-8.453125-6.890625-8.453125-2.203125 0-3.78125.828125-4.96875 2.640625v-8.484375zm7.046875 8.25c2.859375 0 4.703125 2.484375 4.703125 6.328125 0 3.65625-1.90625 6.15625-4.703125 6.15625-2.734375 0-4.484375-2.46875-4.484375-6.25s1.75-6.234375 4.484375-6.234375zm0 0"/></symbol><symbol id="aD" overflow="visible"><path d="m16.453125-1.5c-.28125.0625-.40625.0625-.5625.0625-.890625 0-1.375-.46875-1.375-1.265625v-9.46875c0-2.859375-2.09375-4.40625-6.0625-4.40625-2.359375 0-4.234375.6875-5.34375 1.875-.734375.828125-1.046875 1.75-1.109375 3.359375h2.578125c.21875-1.96875 1.390625-2.859375 3.78125-2.859375 2.34375 0 3.609375.859375 3.609375 2.390625v.6875c-.03125 1.09375-.59375 1.5-2.6875 1.78125-3.625.453125-4.171875.578125-5.15625.984375-1.875.796875-2.828125 2.203125-2.828125 4.296875 0 2.921875 2.03125 4.765625 5.28125 4.765625 2.03125 0 3.65625-.703125 5.46875-2.359375.1875 1.65625.984375 2.359375 2.65625 2.359375.546875 0 .890625-.0625 1.75-.265625zm-4.484375-3.578125c0 .859375-.25 1.390625-1.015625 2.09375-1.046875.953125-2.3125 1.453125-3.8125 1.453125-2 0-3.171875-.953125-3.171875-2.59375 0-1.6875 1.109375-2.546875 3.875-2.953125 2.734375-.359375 3.25-.484375 4.125-.890625zm0 0"/></symbol><symbol id="aE" overflow="visible"><path d="m2.15625-16.109375v16.109375h2.578125v-8.890625c0-3.28125 1.71875-5.4375 4.375-5.4375 2.015625 0 3.3125 1.234375 3.3125 3.171875v11.15625h2.546875v-12.171875c0-2.6875-2-4.40625-5.09375-4.40625-2.40625 0-3.9375.921875-5.359375 3.171875v-2.703125zm0 0"/></symbol><symbol id="aF" overflow="visible"><path d="m16.453125-1.5c-.28125.0625-.40625.0625-.5625.0625-.890625 0-1.375-.46875-1.375-1.265625v-9.46875c0-2.859375-2.09375-4.40625-6.0625-4.40625-2.359375 0-4.234375.6875-5.34375 1.875-.734375.828125-1.046875 1.75-1.109375 3.359375h2.578125c.21875-1.96875 1.390625-2.859375 3.78125-2.859375 2.34375 0 3.609375.859375 3.609375 2.390625v.6875c-.03125 1.09375-.59375 1.5-2.6875 1.78125-3.625.453125-4.171875.578125-5.15625.984375-1.875.796875-2.828125 2.203125-2.828125 4.296875 0 2.921875 2.03125 4.765625 5.28125 4.765625 2.03125 0 3.65625-.703125 5.46875-2.359375.1875 1.65625.984375 2.359375 2.65625 2.359375.546875 0 .890625-.0625 1.75-.265625zm-4.484375-3.578125c0 .859375-.25 1.390625-1.015625 2.09375-1.046875.953125-2.3125 1.453125-3.8125 1.453125-2 0-3.171875-.953125-3.171875-2.59375 0-1.6875 1.109375-2.546875 3.875-2.953125 2.734375-.359375 3.25-.484375 4.125-.890625zm-2.625-17.671875-2.984375 4.546875h1.84375l4.59375-4.546875zm0 0"/></symbol><symbol id="aG" overflow="visible"><path d="m12.421875-16.109375v2.328125c-1.296875-1.9375-2.703125-2.796875-4.734375-2.796875-3.90625 0-6.609375 3.625-6.609375 8.796875 0 2.703125.640625 4.671875 2.03125 6.3125 1.203125 1.40625 2.734375 2.171875 4.390625 2.171875 1.9375 0 3.328125-.859375 4.671875-2.890625v.828125c0 4.3125-1.1875 5.90625-4.390625 5.90625-2.1875 0-3.328125-.859375-3.5625-2.703125h-2.625c.25 2.984375 2.625 4.859375 6.125 4.859375 2.375 0 4.328125-.765625 5.375-2.0625 1.234375-1.5 1.703125-3.5 1.703125-7.28125v-13.46875zm-4.484375 1.90625c2.703125 0 4.234375 2.265625 4.234375 6.359375 0 3.90625-1.5625 6.1875-4.234375 6.1875-2.65625 0-4.1875-2.3125-4.1875-6.28125 0-3.9375 1.53125-6.265625 4.1875-6.265625zm0 0"/></symbol><symbol id="aH" overflow="visible"><path d="m8.359375-16.578125c-4.546875 0-7.25 3.234375-7.25 8.640625 0 5.453125 2.703125 8.640625 7.28125 8.640625 4.5625 0 7.296875-3.21875 7.296875-8.515625 0-5.59375-2.65625-8.765625-7.328125-8.765625zm.03125 2.375c2.890625 0 4.609375 2.359375 4.609375 6.359375 0 3.8125-1.78125 6.1875-4.609375 6.1875-2.859375 0-4.609375-2.375-4.609375-6.28125s1.75-6.265625 4.609375-6.265625zm0 0"/></symbol><symbol id="aI" overflow="visible"><path d="m11.9375-16.109375-4.46875 12.546875-4.109375-12.546875h-2.75l5.453125 16.171875-.984375 2.546875c-.4375 1.140625-.984375 1.578125-2.0625 1.578125-.4375 0-.796875-.0625-1.359375-.1875v2.296875c.53125.28125 1.046875.40625 1.71875.40625.84375 0 1.734375-.28125 2.40625-.765625.796875-.59375 1.265625-1.265625 1.75-2.5625l7.171875-19.484375zm0 0"/></symbol><symbol id="aJ" overflow="visible"><path d="m14.390625 0 6.296875-18.78125v18.78125h2.71875v-22.421875h-3.96875l-6.515625 19.53125-6.65625-19.53125h-3.953125v22.421875h2.703125v-18.78125l6.359375 18.78125zm0 0"/></symbol><symbol id="aK" overflow="visible"><path d="m8.359375-16.578125c-4.546875 0-7.25 3.234375-7.25 8.640625 0 5.453125 2.703125 8.640625 7.28125 8.640625 4.5625 0 7.296875-3.21875 7.296875-8.515625 0-5.59375-2.65625-8.765625-7.328125-8.765625zm.03125 2.375c2.890625 0 4.609375 2.359375 4.609375 6.359375 0 3.8125-1.78125 6.1875-4.609375 6.1875-2.859375 0-4.609375-2.375-4.609375-6.28125s1.75-6.265625 4.609375-6.265625zm.765625-8.546875-2.9375 4.546875h1.84375l4.578125-4.546875zm0 0"/></symbol><symbol id="aL" overflow="visible"><path d="m14.828125 0v-16.109375h-2.5625v9.125c0 3.296875-1.71875 5.453125-4.390625 5.453125-2.03125 0-3.328125-1.234375-3.328125-3.171875v-11.40625h-2.546875v12.421875c0 2.671875 2 4.390625 5.140625 4.390625 2.359375 0 3.875-.828125 5.375-2.953125v2.25zm0 0"/></symbol><symbol id="aM" overflow="visible"><path d="m4.328125-22.421875h-2.546875v22.421875h2.546875v-6.265625l2.5-2.46875 5.4375 8.734375h3.171875l-6.578125-10.546875 5.59375-5.5625h-3.296875l-6.828125 6.828125zm0 0"/></symbol><symbol id="aN" overflow="visible"><path d="m2.15625-16.109375v16.109375h2.578125v-10.109375c0-2.34375 1.6875-4.21875 3.78125-4.21875 1.90625 0 2.984375 1.171875 2.984375 3.234375v11.09375h2.578125v-10.109375c0-2.34375 1.703125-4.21875 3.78125-4.21875 1.875 0 2.984375 1.203125 2.984375 3.234375v11.09375h2.59375v-12.078125c0-2.890625-1.671875-4.5-4.6875-4.5-2.140625 0-3.4375.65625-4.9375 2.46875-.953125-1.734375-2.25-2.46875-4.34375-2.46875-2.15625 0-3.59375.796875-4.953125 2.734375v-2.265625zm0 0"/></symbol><symbol id="aO" overflow="visible"><path d="m2.15625-16.109375v18.453125c0 1.59375-.5 2.109375-2.09375 2.109375-.1875 0-.28125 0-.609375-.03125v2.1875c.296875.0625.453125.09375.859375.09375 2.890625 0 4.390625-1.140625 4.390625-3.34375v-19.46875zm2.546875-6.3125h-2.546875v3.234375h2.546875zm0 0"/></symbol><symbol id="aP" overflow="visible"><path d="m2.15625-22.421875v22.421875h2.546875v-8.890625c0-3.28125 1.71875-5.4375 4.375-5.4375.859375 0 1.65625.25 2.265625.703125.734375.5625 1.046875 1.328125 1.046875 2.46875v11.15625h2.546875v-12.171875c0-2.71875-1.9375-4.40625-5.0625-4.40625-2.28125 0-3.65625.71875-5.171875 2.671875v-8.515625zm0 0"/></symbol><symbol id="aQ" overflow="visible"><path d="m7.8125-16.109375h-2.640625v-4.4375h-2.5625v4.4375h-2.171875v2.09375h2.171875v12.171875c0 1.65625 1.109375 2.546875 3.109375 2.546875.671875 0 1.234375-.0625 2.09375-.21875v-2.140625c-.375.09375-.703125.125-1.234375.125-1.109375 0-1.40625-.3125-1.40625-1.453125v-11.03125h2.640625zm0 0"/></symbol><symbol id="aR" overflow="visible"><path d="m15.21875-22.421875h-2.546875v8.34375c-1.078125-1.640625-2.796875-2.5-4.953125-2.5-4.1875 0-6.921875 3.359375-6.921875 8.484375 0 5.453125 2.640625 8.796875 7.015625 8.796875 2.21875 0 3.75-.828125 5.140625-2.828125v2.125h2.265625zm-7.0625 8.25c2.765625 0 4.515625 2.421875 4.515625 6.296875 0 3.71875-1.78125 6.1875-4.5 6.1875-2.828125 0-4.703125-2.5-4.703125-6.25s1.875-6.234375 4.6875-6.234375zm0 0"/></symbol><symbol id="aS" overflow="visible"><path d="m2.671875-3.203125v3.203125h1.84375v.546875c0 2.125-.390625 2.75-1.84375 2.8125v1.15625c2.03125.0625 3.234375-1.40625 3.234375-4.03125v-3.6875zm0 0"/></symbol><symbol id="aT" overflow="visible"><path d="m4.609375-16.109375h-2.546875v16.109375h2.546875zm0-6.3125h-2.578125v3.234375h2.578125zm0 0"/></symbol><symbol id="aU" overflow="visible"><path d="m14.578125-6.734375 2.296875 6.734375h3.203125l-7.875-22.421875h-3.6875l-8 22.421875h3.046875l2.375-6.734375zm-.796875-2.390625h-7.140625l3.6875-10.21875zm0 0"/></symbol><symbol id="aV" overflow="visible"><path d="m10.234375-22.421875v15.78125c0 1.78125-.171875 2.796875-.703125 3.5625-.546875.859375-1.59375 1.390625-2.734375 1.390625-2.15625 0-3.359375-1.453125-3.359375-4.0625v-1.453125h-2.921875v1.96875c0 3.640625 2.40625 5.9375 6.25 5.9375 3.90625 0 6.328125-2.421875 6.328125-6.296875v-16.828125zm0 0"/></symbol><symbol id="aW" overflow="visible"><path d="m6.578125-3.203125h-3.203125v3.203125h3.203125zm0-12.90625h-3.203125v3.1875h3.203125zm0 0"/></symbol><symbol id="aX" overflow="visible"><path d="m15.78125-7.203125c0-2.453125-.1875-3.921875-.65625-5.125-1.046875-2.640625-3.5-4.25-6.515625-4.25-4.484375 0-7.375 3.421875-7.375 8.734375 0 5.328125 2.765625 8.546875 7.3125 8.546875 3.6875 0 6.25-2.09375 6.890625-5.59375h-2.578125c-.71875 2.125-2.15625 3.234375-4.21875 3.234375-1.625 0-3.015625-.75-3.875-2.09375-.609375-.921875-.828125-1.84375-.859375-3.453125zm-11.8125-2.078125c.21875-2.984375 2.03125-4.921875 4.609375-4.921875 2.609375 0 4.421875 2.03125 4.421875 4.921875zm5.5-13.46875-2.953125 4.546875h1.84375l4.59375-4.546875zm0 0"/></symbol><symbol id="aY" overflow="visible"><path d="m11.0625-6.71875c-2.09375 0-4.09375.6875-5.875 1.78125-2.34375 1.40625-5.1875 3.84375-5.1875 7.375 0 2.9375 2.59375 4.28125 5.234375 4.28125 2.09375 0 4.078125-.6875 5.875-1.78125 2.34375-1.40625 5.125-3.84375 5.125-7.375 0-2.9375-2.53125-4.28125-5.171875-4.28125zm0 0"/></symbol><symbol id="aZ" overflow="visible"><path d="m10.703125 15.734375v-8.109375l2.453125-.84375c.296875-.109375.546875-.40625.546875-.75v-3.234375c0-.5625-.546875-.953125-1.046875-.75l-1.953125.6875v-8.15625l2.453125-.90625c.296875-.09375.546875-.390625.546875-.75v-3.1875c0-.546875-.546875-.9375-1.046875-.75l-1.953125.65625v-7.46875c0-.453125-.390625-.859375-.84375-.859375-.4375 0-.84375.40625-.84375.859375v8.0625l-4.328125 1.546875v-7.515625c0-.453125-.40625-.859375-.859375-.859375-.4375 0-.84375.40625-.84375.859375v8.109375l-2.4375.84375c-.296875.109375-.546875.40625-.546875.75v3.234375c0 .5625.546875.953125 1.046875.75l1.9375-.6875v8.15625l-2.4375.90625c-.296875.09375-.546875.390625-.546875.75v3.1875c0 .546875.546875.9375 1.046875.75l1.9375-.65625v7.46875c0 .453125.40625.859375.84375.859375.453125 0 .859375-.40625.859375-.859375v-8.0625l4.328125-1.546875v7.515625c0 .453125.40625.859375.84375.859375.453125 0 .84375-.40625.84375-.859375zm-6.015625-19.078125 4.328125-1.484375v8.171875l-4.328125 1.484375zm0 0"/></symbol><symbol id="a0" overflow="visible"><path d="m18.625-12.953125c-.796875-3.484375-1.734375-6.921875-2.734375-10.359375 4.78125-5.421875 9.109375-11.015625 9.109375-18.1875 0-5.625-3.078125-13.6875-6.5625-17.875-.25-.203125-.5625-.203125-.796875 0-4.734375 3.4375-7.484375 8.921875-7.484375 14.6875 0 2.59375.0625 5.140625.359375 7.671875.34375 3.25 1.1875 6.375 2.09375 9.515625-5.890625 6.671875-12.515625 13.046875-12.515625 21.921875 0 10.015625 7.234375 18.53125 16.59375 18.53125 1.546875 0 2.984375-.15625 4.4375-.40625.140625 1.59375.25 3.1875.25 4.78125 0 .90625-.0625 1.75-.109375 2.640625-.296875 4.9375-3.328125 9.46875-7.96875 9.5625-.046875 0-.09375.0625-.140625.0625-2.546875 0-4.734375-1.453125-6.03125-3.484375.546875.234375 1.140625.4375 1.734375.4375 2.59375 0 4.734375-2.140625 4.734375-4.734375 0-2.78125-2.03125-5.171875-4.734375-5.171875-2.9375 0-5.578125 2.28125-5.578125 5.171875 0 5.390625 4.34375 9.71875 9.71875 9.71875 5.875 0 9.90625-5.28125 10.265625-11.25.046875-.953125.046875-1.84375.046875-2.796875 0-1.796875-.09375-3.59375-.25-5.375 1.296875-.40625 2.546875-1 3.640625-1.84375 3.6875-2.75 5.328125-6.578125 5.328125-10.359375 0-6.578125-4.984375-12.90625-12.65625-12.90625-.25 0-.5.046875-.75.046875zm4.234375 23.171875c-.6875-6.1875-1.84375-12.0625-3.078125-17.890625 5.46875.453125 8.90625 5.03125 8.90625 9.609375 0 3.484375-2.390625 7.078125-5.828125 8.28125zm-19.328125-11.765625c0-7.96875 5.390625-14 10.765625-20.015625.796875 2.9375 1.59375 5.875 2.296875 8.859375-5.03125 1.140625-7.875 5.375-7.875 9.765625 0 3.484375 1.796875 7.015625 5.78125 9.171875.140625.046875.296875.09375.4375.09375.546875 0 1-.5 1-1.046875 0-.25-.140625-.5-.34375-.703125-2.796875-1.59375-4.09375-3.984375-4.09375-6.171875 0-2.9375 2.296875-5.578125 6.234375-6.03125 1.296875 5.984375 2.4375 11.90625 3.1875 18.28125-1.34375.203125-2.6875.296875-4.078125.296875-6.78125 0-13.3125-5.71875-13.3125-12.5zm16.9375-50.75c.84375 2.640625 1.046875 3.921875 1.046875 6.8125 0 6.328125-3.328125 11.359375-7.421875 16.1875-.890625-3.125-1.640625-6.171875-1.640625-9.953125 0-5.53125 3.09375-10.5625 8.015625-13.046875zm0 0"/></symbol><symbol id="a1" overflow="visible"><path d="m15.734375-3.34375c0 .5-.140625 1.046875-.484375 1.453125-1.046875 1.25-3.4375 2.78125-5.34375 3.984375-1.890625 1.1875-4.28125 2.78125-5.828125 3.234375-.1875.046875-.4375.09375-.640625.09375-1.09375 0-2.09375-.84375-2.09375-2.078125 0-.5.15625-1.046875.5-1.453125 1.046875-1.25 3.4375-2.78125 5.328125-3.984375 1.890625-1.1875 4.28125-2.78125 5.828125-3.234375.203125-.046875.453125-.09375.65625-.09375 1.09375 0 2.078125.84375 2.078125 2.078125zm-2.53125-3.375c-3.734375 0-6.78125.796875-9.421875 2.578125-1.59375 1.109375-2.640625 2.796875-3.234375 4.640625-.296875.890625-.546875 1.890625-.546875 2.84375 0 2.328125 1.6875 3.375 3.890625 3.375 3.734375 0 6.765625-.796875 9.40625-2.578125 1.59375-1.109375 2.640625-2.796875 3.234375-4.640625.3125-.890625.546875-1.890625.546875-2.84375 0-2.328125-1.6875-3.375-3.875-3.375zm0 0"/></symbol><symbol id="a2" overflow="visible"><path d="m6.515625-13.40625v13.40625h3.84375v-19.4375h-2.546875c-.609375 2.3125-2.609375 3.484375-5.953125 3.484375v2.546875zm0 0"/></symbol><symbol id="a3" overflow="visible"><path d="m5.859375-4h-4.109375v4h4.109375zm0 0"/></symbol><g clip-path="url(#a)"><path d="m3.789062 8273.654688h5945.195313" fill="none" stroke="#000" stroke-linecap="round" stroke-miterlimit="10" stroke-width="7.5467" transform="matrix(.1 0 0 -.1 0 911.76)"/></g><g clip-path="url(#b)"><path d="m3.789062 8398.185938h5945.195313" fill="none" stroke="#000" stroke-linecap="round" stroke-miterlimit="10" stroke-width="7.5467" transform="matrix(.1 0 0 -.1 0 911.76)"/></g><g clip-path="url(#c)"><path d="m3.789062 8522.717188h5945.195313" fill="none" stroke="#000" stroke-linecap="round" stroke-miterlimit="10" stroke-width="7.5467" transform="matrix(.1 0 0 -.1 0 911.76)"/></g><g clip-path="url(#d)"><path d="m3.789062 8647.2875h5945.195313" fill="none" stroke="#000" stroke-linecap="round" stroke-miterlimit="10" stroke-width="7.5467" transform="matrix(.1 0 0 -.1 0 911.76)"/></g><g clip-path="url(#e)"><path d="m3.789062 8771.81875h5945.195313" fill="none" stroke="#000" stroke-linecap="round" stroke-miterlimit="10" stroke-width="7.5467" transform="matrix(.1 0 0 -.1 0 911.76)"/></g><g clip-path="url(#f)"><path d="m5940.390625 8736.428125h10.351563v37.148438h-10.351563zm0 0" style="fill:none;stroke-width:3.98506;stroke-linecap:round;stroke-linejoin:round;stroke:#000;stroke-miterlimit:10" transform="matrix(.1 0 0 -.1 0 911.76)"/></g><g clip-path="url(#g)"><path d="m594.039062 38.117188h1.035157v-3.714844h-1.035157zm0 0"/></g><g clip-path="url(#h)"><path d="m5940.390625 8611.896875h10.351563v70.742188h-10.351563zm0 0" style="fill:none;stroke-width:3.98506;stroke-linecap:round;stroke-linejoin:round;stroke:#000;stroke-miterlimit:10" transform="matrix(.1 0 0 -.1 0 911.76)"/></g><g clip-path="url(#i)"><path d="m594.039062 50.570312h1.035157v-7.074218h-1.035157zm0 0"/></g><g clip-path="url(#j)"><path d="m5940.390625 8487.365625h10.351563v70.742188h-10.351563zm0 0" style="fill:none;stroke-width:3.98506;stroke-linecap:round;stroke-linejoin:round;stroke:#000;stroke-miterlimit:10" transform="matrix(.1 0 0 -.1 0 911.76)"/></g><g clip-path="url(#k)"><path d="m594.039062 63.023438h1.035157v-7.074219h-1.035157zm0 0"/></g><g clip-path="url(#l)"><path d="m5940.390625 8362.834375h10.351563v70.742188h-10.351563zm0 0" style="fill:none;stroke-width:3.98506;stroke-linecap:round;stroke-linejoin:round;stroke:#000;stroke-miterlimit:10" transform="matrix(.1 0 0 -.1 0 911.76)"/></g><g clip-path="url(#m)"><path d="m594.039062 75.476562h1.035157v-7.074218h-1.035157zm0 0"/></g><g clip-path="url(#n)"><path d="m5940.390625 8271.896875h10.351563v37.148438h-10.351563zm0 0" style="fill:none;stroke-width:3.98506;stroke-linecap:round;stroke-linejoin:round;stroke:#000;stroke-miterlimit:10" transform="matrix(.1 0 0 -.1 0 911.76)"/></g><g clip-path="url(#o)"><path d="m594.039062 84.570312h1.035157v-3.710937h-1.035157zm0 0"/></g><path d="m5063.789062 8362.404688h5.78125v407.382812h-5.78125zm0 0" style="fill:none;stroke-width:3.98506;stroke-linecap:round;stroke-linejoin:round;stroke:#000;stroke-miterlimit:10" transform="matrix(.1 0 0 -.1 0 911.76)"/><path d="m506.378906 75.519531h.578125v-40.738281h-.578125zm0 0"/><use x="479.725" xlink:href="#au" y="127.98"/><use x="494.521882" xlink:href="#av" y="127.98"/><use x="511.529286" xlink:href="#aw" y="127.98"/><use x="490.898" xlink:href="#aY" y="78.1667"/><path d="m4034.335938 8424.709375h5.78125v407.382813h-5.78125zm0 0" style="fill:none;stroke-width:3.98506;stroke-linecap:round;stroke-linejoin:round;stroke:#000;stroke-miterlimit:10" transform="matrix(.1 0 0 -.1 0 911.76)"/><path d="m403.433594 69.289062h.578125v-40.738281h-.578125zm0 0"/><use x="369.126" xlink:href="#ax" y="127.98"/><use x="384.43382" xlink:href="#ay" y="127.98"/><use x="399.741249" xlink:href="#az" y="127.98"/><use x="407.735003" xlink:href="#au" y="127.98"/><use x="387.953" xlink:href="#aY" y="71.9402"/><path d="m3101.210938 8362.404688h5.820312v308.828125h-5.820312zm0 0" style="fill:none;stroke-width:3.98506;stroke-linecap:round;stroke-linejoin:round;stroke:#000;stroke-miterlimit:10" transform="matrix(.1 0 0 -.1 0 911.76)"/><path d="m310.121094 75.519531h.582031v-30.882812h-.582031zm0 0"/><use x="279.214" xlink:href="#au" y="127.98"/><use x="294.011272" xlink:href="#av" y="127.98"/><use x="311.018677" xlink:href="#ax" y="127.98"/><use x="294.639" xlink:href="#aY" y="78.1667"/><path d="m1526.875 7921.740625h76.171875v3.789063h-76.171875zm0 0" style="fill:none;stroke-width:6.03985;stroke-linecap:round;stroke-linejoin:round;stroke:#000;stroke-miterlimit:10" transform="matrix(.1 0 0 -.1 0 911.76)"/><path d="m152.6875 119.585938h7.613281v-.378907h-7.613281zm0 0"/><path d="m2511.992188 7921.740625h76.132812v3.789063h-76.132812zm0 0" style="fill:none;stroke-width:6.03985;stroke-linecap:round;stroke-linejoin:round;stroke:#000;stroke-miterlimit:10" transform="matrix(.1 0 0 -.1 0 911.76)"/><path d="m251.199219 119.585938h7.613281v-.378907h-7.613281zm0 0"/><path d="m4475.742188 7921.740625h76.132812v3.789063h-76.132812zm0 0" style="fill:none;stroke-width:6.03985;stroke-linecap:round;stroke-linejoin:round;stroke:#000;stroke-miterlimit:10" transform="matrix(.1 0 0 -.1 0 911.76)"/><path d="m447.574219 119.585938h7.613281v-.378907h-7.613281zm0 0"/><path d="m2168.046875 8675.178125v-55.820312l938.945313 26.132812v55.78125zm0 0" fill="none" stroke="#000" stroke-linejoin="round" stroke-miterlimit="10" stroke-width="3.98506" transform="matrix(.1 0 0 -.1 0 911.76)"/><path d="m216.804688 44.242188v5.582031l93.894531-2.613281v-5.578126zm0 0"/><use x="52.7297" xlink:href="#a2" y="127.98"/><use x="68.037499" xlink:href="#a3" y="127.98"/><use x="88.1434" xlink:href="#aA" y="127.98"/><use x="107.702383" xlink:href="#av" y="127.98"/><use x="53.5493" xlink:href="#aZ" y="34.5804"/><use x="9.9626" xlink:href="#a0" y="71.9402"/><use x="98.3814" xlink:href="#aY" y="84.3933"/><path d="m1138.59375 8300.178125h5.820312v407.382813h-5.820312zm0 0" fill="none" stroke="#000" stroke-linejoin="round" stroke-miterlimit="10" stroke-width="3.98506" transform="matrix(.1 0 0 -.1 0 911.76)"/><path d="m113.859375 81.746094h.582031v-40.738282h-.582031zm0 0"/><path d="m2168.046875 8300.178125h5.820313v345.234375h-5.820313zm0 0" fill="none" stroke="#000" stroke-linejoin="round" stroke-miterlimit="10" stroke-width="3.98506" transform="matrix(.1 0 0 -.1 0 911.76)"/><path d="m216.804688 81.746094h.582031v-34.527344h-.582031zm0 0"/><use x="188.112" xlink:href="#ax" y="127.98"/><use x="203.419429" xlink:href="#av" y="127.98"/><use x="220.597565" xlink:href="#aB" y="127.98"/><use x="201.3261" xlink:href="#aY" y="84.3933"/><g clip-path="url(#p)"><path d="m3.789062 6779.279688h5945.195313" style="fill:none;stroke-width:7.5467;stroke-linecap:round;stroke-linejoin:round;stroke:#000;stroke-miterlimit:10" transform="matrix(.1 0 0 -.1 0 911.76)"/></g><g clip-path="url(#q)"><path d="m3.789062 6903.810938h5945.195313" style="fill:none;stroke-width:7.5467;stroke-linecap:round;stroke-linejoin:round;stroke:#000;stroke-miterlimit:10" transform="matrix(.1 0 0 -.1 0 911.76)"/></g><g clip-path="url(#r)"><path d="m3.789062 7028.342188h5945.195313" style="fill:none;stroke-width:7.5467;stroke-linecap:round;stroke-linejoin:round;stroke:#000;stroke-miterlimit:10" transform="matrix(.1 0 0 -.1 0 911.76)"/></g><g clip-path="url(#s)"><path d="m3.789062 7152.873438h5945.195313" style="fill:none;stroke-width:7.5467;stroke-linecap:round;stroke-linejoin:round;stroke:#000;stroke-miterlimit:10" transform="matrix(.1 0 0 -.1 0 911.76)"/></g><g clip-path="url(#t)"><path d="m3.789062 7277.404688h5945.195313" style="fill:none;stroke-width:7.5467;stroke-linecap:round;stroke-linejoin:round;stroke:#000;stroke-miterlimit:10" transform="matrix(.1 0 0 -.1 0 911.76)"/></g><g clip-path="url(#u)"><path d="m5940.390625 7242.053125h10.351563v37.148438h-10.351563zm0 0" style="fill:none;stroke-width:3.98506;stroke-linecap:round;stroke-linejoin:round;stroke:#000;stroke-miterlimit:10" transform="matrix(.1 0 0 -.1 0 911.76)"/></g><g clip-path="url(#v)"><path d="m594.039062 187.558594h1.035157v-3.714844h-1.035157zm0 0"/></g><g clip-path="url(#w)"><path d="m5940.390625 7117.482813h10.351563v70.742187h-10.351563zm0 0" style="fill:none;stroke-width:3.98506;stroke-linecap:round;stroke-linejoin:round;stroke:#000;stroke-miterlimit:10" transform="matrix(.1 0 0 -.1 0 911.76)"/></g><g clip-path="url(#x)"><path d="m594.039062 200.011719h1.035157v-7.074219h-1.035157zm0 0"/></g><g clip-path="url(#y)"><path d="m5940.390625 6992.951563h10.351563v70.742187h-10.351563zm0 0" style="fill:none;stroke-width:3.98506;stroke-linecap:round;stroke-linejoin:round;stroke:#000;stroke-miterlimit:10" transform="matrix(.1 0 0 -.1 0 911.76)"/></g><g clip-path="url(#z)"><path d="m594.039062 212.464844h1.035157v-7.074219h-1.035157zm0 0"/></g><g clip-path="url(#A)"><path d="m5940.390625 6868.459375h10.351563v70.703125h-10.351563zm0 0" style="fill:none;stroke-width:3.98506;stroke-linecap:round;stroke-linejoin:round;stroke:#000;stroke-miterlimit:10" transform="matrix(.1 0 0 -.1 0 911.76)"/></g><g clip-path="url(#B)"><path d="m594.039062 224.917969h1.035157v-7.074219h-1.035157zm0 0"/></g><g clip-path="url(#C)"><path d="m5940.390625 6777.482813h10.351563v37.148437h-10.351563zm0 0" style="fill:none;stroke-width:3.98506;stroke-linecap:round;stroke-linejoin:round;stroke:#000;stroke-miterlimit:10" transform="matrix(.1 0 0 -.1 0 911.76)"/></g><g clip-path="url(#D)"><path d="m594.039062 234.011719h1.035157v-3.714844h-1.035157zm0 0"/></g><use x="294.639" xlink:href="#aY" y="215.153"/><path d="m5063.789062 6992.560938h5.78125v407.382812h-5.78125zm0 0" style="fill:none;stroke-width:3.98506;stroke-linecap:round;stroke-linejoin:round;stroke:#000;stroke-miterlimit:10" transform="matrix(.1 0 0 -.1 0 911.76)"/><path d="m506.378906 212.503906h.578125v-40.738281h-.578125zm0 0"/><use x="473.262" xlink:href="#aC" y="277.419"/><use x="490.439745" xlink:href="#aD" y="277.419"/><use x="507.617881" xlink:href="#aE" y="277.419"/><use x="490.8983" xlink:href="#aY" y="215.1526"/><path d="m3883.398438 6615.217188h5.820312v386.640625h-5.820312zm0 0" style="fill:none;stroke-width:3.98506;stroke-linecap:round;stroke-linejoin:round;stroke:#000;stroke-miterlimit:10" transform="matrix(.1 0 0 -.1 0 911.76)"/><path d="m388.339844 250.238281h.582031v-38.664062h-.582031zm0 0"/><use x="363.788" xlink:href="#ax" y="277.419"/><use x="379.09582" xlink:href="#ay" y="277.419"/><use x="394.403249" xlink:href="#aF" y="277.419"/><use x="411.581385" xlink:href="#aG" y="277.419"/><use x="388.1419" xlink:href="#aY" y="208.926"/><path d="m3101.210938 6992.560938h5.820312v308.828125h-5.820312zm0 0" style="fill:none;stroke-width:3.98506;stroke-linecap:round;stroke-linejoin:round;stroke:#000;stroke-miterlimit:10" transform="matrix(.1 0 0 -.1 0 911.76)"/><path d="m310.121094 212.503906h.582031v-30.882812h-.582031zm0 0"/><use x="289.079" xlink:href="#aH" y="277.419"/><use x="306.257136" xlink:href="#aB" y="277.419"/><path d="m1501.796875 6427.365625h76.132813v3.75h-76.132813zm0 0" style="fill:none;stroke-width:6.03985;stroke-linecap:round;stroke-linejoin:round;stroke:#000;stroke-miterlimit:10" transform="matrix(.1 0 0 -.1 0 911.76)"/><path d="m150.179688 269.023438h7.613281v-.375h-7.613281zm0 0"/><path d="m2601.71875 6427.365625h76.171875v3.75h-76.171875zm0 0" style="fill:none;stroke-width:6.03985;stroke-linecap:round;stroke-linejoin:round;stroke:#000;stroke-miterlimit:10" transform="matrix(.1 0 0 -.1 0 911.76)"/><path d="m260.171875 269.023438h7.613281v-.375h-7.613281zm0 0"/><path d="m3363.164062 6427.365625h76.132813v3.75h-76.132813zm0 0" style="fill:none;stroke-width:6.03985;stroke-linecap:round;stroke-linejoin:round;stroke:#000;stroke-miterlimit:10" transform="matrix(.1 0 0 -.1 0 911.76)"/><path d="m336.316406 269.023438h7.613282v-.375h-7.613282zm0 0"/><path d="m4472.03125 6427.365625h76.132812v3.75h-76.132812zm0 0" style="fill:none;stroke-width:6.03985;stroke-linecap:round;stroke-linejoin:round;stroke:#000;stroke-miterlimit:10" transform="matrix(.1 0 0 -.1 0 911.76)"/><path d="m447.203125 269.023438h7.613281v-.375h-7.613281zm0 0"/><path d="m2168.046875 7305.295313v-55.78125l938.945313 26.09375v55.820312zm0 0" fill="none" stroke="#000" stroke-linejoin="round" stroke-miterlimit="10" stroke-width="3.98506" transform="matrix(.1 0 0 -.1 0 911.76)"/><path d="m216.804688 181.230469v5.578125l93.894531-2.609375v-5.582031zm0 0"/><use x="53.5492" xlink:href="#aZ" y="184.02"/><use x="9.9625" xlink:href="#a0" y="221.3798"/><path d="m2168.046875 6930.295313h5.820313v345.234375h-5.820313zm0 0" fill="none" stroke="#000" stroke-linejoin="round" stroke-miterlimit="10" stroke-width="3.98506" transform="matrix(.1 0 0 -.1 0 911.76)"/><path d="m216.804688 218.730469h.582031v-34.523438h-.582031zm0 0"/><use x="180.034" xlink:href="#aG" y="277.419"/><use x="196.872279" xlink:href="#aI" y="277.419"/><use x="211.49846" xlink:href="#aD" y="277.419"/><use x="228.676595" xlink:href="#aB" y="277.419"/><use x="201.3266" xlink:href="#aY" y="221.3792"/><path d="m1138.59375 6868.029688h5.820312v407.382812h-5.820312zm0 0" fill="none" stroke="#000" stroke-linejoin="round" stroke-miterlimit="10" stroke-width="3.98506" transform="matrix(.1 0 0 -.1 0 911.76)"/><path d="m113.859375 224.957031h.582031v-40.738281h-.582031zm0 0"/><use x="85.082" xlink:href="#aJ" y="277.419"/><use x="110.76442" xlink:href="#aD" y="277.419"/><use x="98.3812" xlink:href="#aY" y="227.6061"/><g clip-path="url(#E)"><path d="m3.789062 5284.865625h5945.195313" style="fill:none;stroke-width:7.5467;stroke-linecap:round;stroke-linejoin:round;stroke:#000;stroke-miterlimit:10" transform="matrix(.1 0 0 -.1 0 911.76)"/></g><g clip-path="url(#F)"><path d="m3.789062 5409.396875h5945.195313" style="fill:none;stroke-width:7.5467;stroke-linecap:round;stroke-linejoin:round;stroke:#000;stroke-miterlimit:10" transform="matrix(.1 0 0 -.1 0 911.76)"/></g><g clip-path="url(#G)"><path d="m3.789062 5533.928125h5945.195313" style="fill:none;stroke-width:7.5467;stroke-linecap:round;stroke-linejoin:round;stroke:#000;stroke-miterlimit:10" transform="matrix(.1 0 0 -.1 0 911.76)"/></g><g clip-path="url(#H)"><path d="m3.789062 5658.459375h5945.195313" style="fill:none;stroke-width:7.5467;stroke-linecap:round;stroke-linejoin:round;stroke:#000;stroke-miterlimit:10" transform="matrix(.1 0 0 -.1 0 911.76)"/></g><g clip-path="url(#I)"><path d="m3.789062 5782.990625h5945.195313" style="fill:none;stroke-width:7.5467;stroke-linecap:round;stroke-linejoin:round;stroke:#000;stroke-miterlimit:10" transform="matrix(.1 0 0 -.1 0 911.76)"/></g><g clip-path="url(#J)"><path d="m5945.585938 5284.865625v498.125" fill="none" stroke="#000" stroke-linejoin="round" stroke-miterlimit="10" stroke-width="14.3337" transform="matrix(.1 0 0 -.1 0 911.76)"/></g><path d="m5157.734375 5382.560938h5.820313v398.4375h-5.820313zm0 0" fill="none" stroke="#000" stroke-linejoin="round" stroke-miterlimit="10" stroke-width="3.98506" transform="matrix(.1 0 0 -.1 0 911.76)"/><path d="m515.773438 373.503906h.582031v-39.84375h-.582031zm0 0"/><use x="491.005" xlink:href="#aB" y="427.362"/><use x="501.039757" xlink:href="#aK" y="427.362"/><use x="518.217892" xlink:href="#aw" y="427.362"/><use x="499.46945" xlink:href="#a1" y="377.0456"/><path d="m4317.1875 5435.88125h5.78125v407.382813h-5.78125zm0 0" fill="none" stroke="#000" stroke-linejoin="round" stroke-miterlimit="10" stroke-width="3.98506" transform="matrix(.1 0 0 -.1 0 911.76)"/><path d="m431.71875 368.171875h.578125v-40.738281h-.578125zm0 0"/><use x="390.948" xlink:href="#aG" y="427.362"/><use x="408.126136" xlink:href="#aL" y="427.362"/><use x="425.304271" xlink:href="#aE" y="427.362"/><use x="442.482407" xlink:href="#aM" y="427.362"/><use x="416.2382" xlink:href="#aY" y="370.819"/><path d="m3484.84375 5498.146875h5.820312v407.382813h-5.820312zm0 0" fill="none" stroke="#000" stroke-linejoin="round" stroke-miterlimit="10" stroke-width="3.98506" transform="matrix(.1 0 0 -.1 0 911.76)"/><path d="m348.484375 361.945312h.582031v-40.738281h-.582031zm0 0"/><use x="319.706" xlink:href="#aN" y="427.362"/><use x="345.38842" xlink:href="#aD" y="427.362"/><use x="333.006" xlink:href="#aY" y="364.5921"/><path d="m1529.921875 4927.951563h76.171875v3.75h-76.171875zm0 0" fill="none" stroke="#000" stroke-linejoin="round" stroke-miterlimit="10" stroke-width="6.03985" transform="matrix(.1 0 0 -.1 0 911.76)"/><path d="m152.992188 418.964844h7.617187v-.375h-7.617187zm0 0"/><path d="m2246.40625 4927.951563h76.132812v3.75h-76.132812zm0 0" fill="none" stroke="#000" stroke-linejoin="round" stroke-miterlimit="10" stroke-width="6.03985" transform="matrix(.1 0 0 -.1 0 911.76)"/><path d="m224.640625 418.964844h7.613281v-.375h-7.613281zm0 0"/><path d="m3729.492188 4927.951563h76.132812v3.75h-76.132812zm0 0" fill="none" stroke="#000" stroke-linejoin="round" stroke-miterlimit="10" stroke-width="6.03985" transform="matrix(.1 0 0 -.1 0 911.76)"/><path d="m372.949219 418.964844h7.613281v-.375h-7.613281zm0 0"/><path d="m1818.125 5188.225v-55.78125h763.75v55.78125zm0 0" fill="none" stroke="#000" stroke-linejoin="round" stroke-miterlimit="10" stroke-width="3.98506" transform="matrix(.1 0 0 -.1 0 911.76)"/><path d="m181.8125 392.9375v5.578125h76.375v-5.578125zm0 0"/><path d="m4705.898438 4927.951563h76.132812v3.75h-76.132812zm0 0" fill="none" stroke="#000" stroke-linejoin="round" stroke-miterlimit="10" stroke-width="6.03985" transform="matrix(.1 0 0 -.1 0 911.76)"/><path d="m470.589844 418.964844h7.613281v-.375h-7.613281zm0 0"/><path d="m2576.015625 5162.326563h5.820313v345.117187h-5.820313zm0 0" fill="none" stroke="#000" stroke-linejoin="round" stroke-miterlimit="10" stroke-width="3.98506" transform="matrix(.1 0 0 -.1 0 911.76)"/><path d="m257.601562 395.527344h.582032v-34.511719h-.582032zm0 0"/><use x="53.5492" xlink:href="#aZ" y="333.459"/><use x="9.9625" xlink:href="#a0" y="370.8192"/><use x="181.6125" xlink:href="#aY" y="358.3657"/><use x="245.8902" xlink:href="#aO" y="427.3622"/><use x="252.693327" xlink:href="#aL" y="427.3622"/><use x="269.871463" xlink:href="#aM" y="427.3622"/><use x="257.4043" xlink:href="#aY" y="358.3657"/><path d="m1818.125 5162.326563h5.820312v345.117187h-5.820312zm0 0" fill="none" stroke="#000" stroke-linejoin="round" stroke-miterlimit="10" stroke-width="3.98506" transform="matrix(.1 0 0 -.1 0 911.76)"/><path d="m181.8125 395.527344h.582031v-34.511719h-.582031zm0 0"/><use x="168.484" xlink:href="#aP" y="427.362"/><use x="185.662123" xlink:href="#aD" y="427.362"/><use x="202.500403" xlink:href="#aQ" y="427.362"/><path d="m985.820312 5120.842188h5.78125v386.601562h-5.78125zm0 0" fill="none" stroke="#000" stroke-linejoin="round" stroke-miterlimit="10" stroke-width="3.98506" transform="matrix(.1 0 0 -.1 0 911.76)"/><path d="m98.582031 399.679688h.578125v-38.664063h-.578125zm0 0"/><use x="67.9043" xlink:href="#aN" y="427.362"/><use x="93.586727" xlink:href="#aH" y="427.362"/><use x="110.764459" xlink:href="#aE" y="427.362"/><use x="127.942583" xlink:href="#aR" y="427.362"/><use x="98.3813" xlink:href="#aY" y="358.3655"/><g clip-path="url(#K)"><path d="m3.789062 3790.490625h5945.195313" style="fill:none;stroke-width:7.5467;stroke-linecap:round;stroke-linejoin:round;stroke:#000;stroke-miterlimit:10" transform="matrix(.1 0 0 -.1 0 911.76)"/></g><g clip-path="url(#L)"><path d="m3.789062 3915.021875h5945.195313" style="fill:none;stroke-width:7.5467;stroke-linecap:round;stroke-linejoin:round;stroke:#000;stroke-miterlimit:10" transform="matrix(.1 0 0 -.1 0 911.76)"/></g><g clip-path="url(#M)"><path d="m3.789062 4039.553125h5945.195313" style="fill:none;stroke-width:7.5467;stroke-linecap:round;stroke-linejoin:round;stroke:#000;stroke-miterlimit:10" transform="matrix(.1 0 0 -.1 0 911.76)"/></g><g clip-path="url(#N)"><path d="m3.789062 4164.084375h5945.195313" style="fill:none;stroke-width:7.5467;stroke-linecap:round;stroke-linejoin:round;stroke:#000;stroke-miterlimit:10" transform="matrix(.1 0 0 -.1 0 911.76)"/></g><g clip-path="url(#O)"><path d="m3.789062 4288.615625h5945.195313" style="fill:none;stroke-width:7.5467;stroke-linecap:round;stroke-linejoin:round;stroke:#000;stroke-miterlimit:10" transform="matrix(.1 0 0 -.1 0 911.76)"/></g><g clip-path="url(#P)"><path d="m5940.390625 4253.225h10.351563v37.148438h-10.351563zm0 0" style="fill:none;stroke-width:3.98506;stroke-linecap:round;stroke-linejoin:round;stroke:#000;stroke-miterlimit:10" transform="matrix(.1 0 0 -.1 0 911.76)"/></g><g clip-path="url(#Q)"><path d="m594.039062 486.4375h1.035157v-3.714844h-1.035157zm0 0"/></g><g clip-path="url(#R)"><path d="m5940.390625 4128.69375h10.351563v70.742188h-10.351563zm0 0" style="fill:none;stroke-width:3.98506;stroke-linecap:round;stroke-linejoin:round;stroke:#000;stroke-miterlimit:10" transform="matrix(.1 0 0 -.1 0 911.76)"/></g><g clip-path="url(#S)"><path d="m594.039062 498.890625h1.035157v-7.074219h-1.035157zm0 0"/></g><g clip-path="url(#T)"><path d="m5940.390625 4004.1625h10.351563v70.742188h-10.351563zm0 0" style="fill:none;stroke-width:3.98506;stroke-linecap:round;stroke-linejoin:round;stroke:#000;stroke-miterlimit:10" transform="matrix(.1 0 0 -.1 0 911.76)"/></g><g clip-path="url(#U)"><path d="m594.039062 511.34375h1.035157v-7.074219h-1.035157zm0 0"/></g><g clip-path="url(#V)"><path d="m5940.390625 3879.63125h10.351563v70.742188h-10.351563zm0 0" style="fill:none;stroke-width:3.98506;stroke-linecap:round;stroke-linejoin:round;stroke:#000;stroke-miterlimit:10" transform="matrix(.1 0 0 -.1 0 911.76)"/></g><g clip-path="url(#W)"><path d="m594.039062 523.796875h1.035157v-7.074219h-1.035157zm0 0"/></g><g clip-path="url(#X)"><path d="m5940.390625 3788.69375h10.351563v37.148438h-10.351563zm0 0" style="fill:none;stroke-width:3.98506;stroke-linecap:round;stroke-linejoin:round;stroke:#000;stroke-miterlimit:10" transform="matrix(.1 0 0 -.1 0 911.76)"/></g><g clip-path="url(#Y)"><path d="m594.039062 532.890625h1.035157v-3.714844h-1.035157zm0 0"/></g><use x="294.639" xlink:href="#aY" y="514.032"/><path d="m5063.789062 4003.771875h5.78125v407.382813h-5.78125zm0 0" style="fill:none;stroke-width:3.98506;stroke-linecap:round;stroke-linejoin:round;stroke:#000;stroke-miterlimit:10" transform="matrix(.1 0 0 -.1 0 911.76)"/><path d="m506.378906 511.382812h.578125v-40.738281h-.578125zm0 0"/><use x="469.52" xlink:href="#aN" y="576.299"/><use x="495.20242" xlink:href="#aD" y="576.299"/><use x="512.040322" xlink:href="#aQ" y="576.299"/><use x="520.034054" xlink:href="#aS" y="576.299"/><use x="490.8985" xlink:href="#aY" y="514.0326"/><path d="m3883.398438 3626.428125h5.820312v386.640625h-5.820312zm0 0" style="fill:none;stroke-width:3.98506;stroke-linecap:round;stroke-linejoin:round;stroke:#000;stroke-miterlimit:10" transform="matrix(.1 0 0 -.1 0 911.76)"/><path d="m388.339844 549.117188h.582031v-38.664063h-.582031zm0 0"/><use x="379.265" xlink:href="#aB" y="576.299"/><use x="389.299757" xlink:href="#aD" y="576.299"/><use x="406.477892" xlink:href="#aw" y="576.299"/><use x="388.14195" xlink:href="#aY" y="507.806"/><path d="m3101.210938 4003.771875h5.820312v308.828125h-5.820312zm0 0" style="fill:none;stroke-width:3.98506;stroke-linecap:round;stroke-linejoin:round;stroke:#000;stroke-miterlimit:10" transform="matrix(.1 0 0 -.1 0 911.76)"/><path d="m310.121094 511.382812h.582031v-30.882812h-.582031zm0 0"/><use x="291.715" xlink:href="#ax" y="576.299"/><use x="307.022429" xlink:href="#aT" y="576.299"/><path d="m3427.382812 3438.576563h76.132813v3.75h-76.132813zm0 0" style="fill:none;stroke-width:6.03985;stroke-linecap:round;stroke-linejoin:round;stroke:#000;stroke-miterlimit:10" transform="matrix(.1 0 0 -.1 0 911.76)"/><path d="m342.738281 567.902344h7.613281v-.375h-7.613281zm0 0"/><path d="m4375.898438 3438.576563h76.171874v3.75h-76.171874zm0 0" style="fill:none;stroke-width:6.03985;stroke-linecap:round;stroke-linejoin:round;stroke:#000;stroke-miterlimit:10" transform="matrix(.1 0 0 -.1 0 911.76)"/><path d="m437.589844 567.902344h7.617187v-.375h-7.617187zm0 0"/><path d="m2168.046875 4316.50625v-55.78125l938.945313 26.09375v55.820313zm0 0" fill="none" stroke="#000" stroke-linejoin="round" stroke-miterlimit="10" stroke-width="3.98506" transform="matrix(.1 0 0 -.1 0 911.76)"/><path d="m216.804688 480.109375v5.578125l93.894531-2.609375v-5.582031zm0 0"/><use x="53.5492" xlink:href="#aZ" y="482.899"/><use x="9.9625" xlink:href="#a0" y="520.2588"/><path d="m2168.046875 3941.50625h5.820313v345.234375h-5.820313zm0 0" fill="none" stroke="#000" stroke-linejoin="round" stroke-miterlimit="10" stroke-width="3.98506" transform="matrix(.1 0 0 -.1 0 911.76)"/><path d="m216.804688 517.609375h.582031v-34.523437h-.582031zm0 0"/><use x="176.376" xlink:href="#aE" y="576.299"/><use x="193.554123" xlink:href="#aD" y="576.299"/><use x="210.392025" xlink:href="#aG" y="576.299"/><use x="227.230316" xlink:href="#aI" y="576.299"/><use x="201.326" xlink:href="#aY" y="520.2592"/><path d="m1138.59375 3879.240625h5.820312v407.382813h-5.820312zm0 0" fill="none" stroke="#000" stroke-linejoin="round" stroke-miterlimit="10" stroke-width="3.98506" transform="matrix(.1 0 0 -.1 0 911.76)"/><path d="m113.859375 523.835938h.582031v-40.738282h-.582031zm0 0"/><use x="96.2215" xlink:href="#aU" y="576.299"/><use x="98.38127" xlink:href="#aY" y="526.4857"/><g clip-path="url(#Z)"><path d="m3.789062 2296.076563h5945.195313" style="fill:none;stroke-width:7.5467;stroke-linecap:round;stroke-linejoin:round;stroke:#000;stroke-miterlimit:10" transform="matrix(.1 0 0 -.1 0 911.76)"/></g><g clip-path="url(#aa)"><path d="m3.789062 2420.607813h5945.195313" style="fill:none;stroke-width:7.5467;stroke-linecap:round;stroke-linejoin:round;stroke:#000;stroke-miterlimit:10" transform="matrix(.1 0 0 -.1 0 911.76)"/></g><g clip-path="url(#ab)"><path d="m3.789062 2545.139063h5945.195313" style="fill:none;stroke-width:7.5467;stroke-linecap:round;stroke-linejoin:round;stroke:#000;stroke-miterlimit:10" transform="matrix(.1 0 0 -.1 0 911.76)"/></g><g clip-path="url(#ac)"><path d="m3.789062 2669.670313h5945.195313" style="fill:none;stroke-width:7.5467;stroke-linecap:round;stroke-linejoin:round;stroke:#000;stroke-miterlimit:10" transform="matrix(.1 0 0 -.1 0 911.76)"/></g><g clip-path="url(#ad)"><path d="m3.789062 2794.201563h5945.195313" style="fill:none;stroke-width:7.5467;stroke-linecap:round;stroke-linejoin:round;stroke:#000;stroke-miterlimit:10" transform="matrix(.1 0 0 -.1 0 911.76)"/></g><g clip-path="url(#ae)"><path d="m5940.390625 2758.85h10.351563v37.148438h-10.351563zm0 0" style="fill:none;stroke-width:3.98506;stroke-linecap:round;stroke-linejoin:round;stroke:#000;stroke-miterlimit:10" transform="matrix(.1 0 0 -.1 0 911.76)"/></g><g clip-path="url(#af)"><path d="m594.039062 635.875h1.035157v-3.714844h-1.035157zm0 0"/></g><g clip-path="url(#ag)"><path d="m5940.390625 2634.31875h10.351563v70.742188h-10.351563zm0 0" style="fill:none;stroke-width:3.98506;stroke-linecap:round;stroke-linejoin:round;stroke:#000;stroke-miterlimit:10" transform="matrix(.1 0 0 -.1 0 911.76)"/></g><g clip-path="url(#ah)"><path d="m594.039062 648.328125h1.035157v-7.074219h-1.035157zm0 0"/></g><g clip-path="url(#ai)"><path d="m5940.390625 2509.7875h10.351563v70.742188h-10.351563zm0 0" style="fill:none;stroke-width:3.98506;stroke-linecap:round;stroke-linejoin:round;stroke:#000;stroke-miterlimit:10" transform="matrix(.1 0 0 -.1 0 911.76)"/></g><g clip-path="url(#aj)"><path d="m594.039062 660.78125h1.035157v-7.074219h-1.035157zm0 0"/></g><g clip-path="url(#ak)"><path d="m5940.390625 2385.25625h10.351563v70.742188h-10.351563zm0 0" style="fill:none;stroke-width:3.98506;stroke-linecap:round;stroke-linejoin:round;stroke:#000;stroke-miterlimit:10" transform="matrix(.1 0 0 -.1 0 911.76)"/></g><g clip-path="url(#al)"><path d="m594.039062 673.234375h1.035157v-7.074219h-1.035157zm0 0"/></g><g clip-path="url(#am)"><path d="m5940.390625 2294.31875h10.351563v37.148438h-10.351563zm0 0" style="fill:none;stroke-width:3.98506;stroke-linecap:round;stroke-linejoin:round;stroke:#000;stroke-miterlimit:10" transform="matrix(.1 0 0 -.1 0 911.76)"/></g><g clip-path="url(#an)"><path d="m594.039062 682.328125h1.035157v-3.710937h-1.035157zm0 0"/></g><use x="295.87" xlink:href="#aY" y="675.925"/><path d="m5057.265625 2322.560938h5.820313v407.382812h-5.820313zm0 0" style="fill:none;stroke-width:3.98506;stroke-linecap:round;stroke-linejoin:round;stroke:#000;stroke-miterlimit:10" transform="matrix(.1 0 0 -.1 0 911.76)"/><path d="m505.726562 679.503906h.582032v-40.738281h-.582032zm0 0"/><use x="482.134" xlink:href="#aF" y="725.738"/><use x="499.312136" xlink:href="#ax" y="725.738"/><use x="490.24494" xlink:href="#aY" y="682.1517"/><path d="m4052.421875 2447.092188h5.820313v407.382812h-5.820313zm0 0" style="fill:none;stroke-width:3.98506;stroke-linecap:round;stroke-linejoin:round;stroke:#000;stroke-miterlimit:10" transform="matrix(.1 0 0 -.1 0 911.76)"/><path d="m405.242188 667.050781h.582031v-40.738281h-.582031zm0 0"/><use x="381.651" xlink:href="#aN" y="725.738"/><use x="407.33342" xlink:href="#aT" y="725.738"/><use x="389.76311" xlink:href="#aY" y="669.6982"/><path d="m3113.515625 2384.826563h5.820313v381.40625h-5.820313zm0 0" style="fill:none;stroke-width:3.98506;stroke-linecap:round;stroke-linejoin:round;stroke:#000;stroke-miterlimit:10" transform="matrix(.1 0 0 -.1 0 911.76)"/><path d="m311.351562 673.277344h.578126v-38.140625h-.578126zm0 0"/><use x="290.479" xlink:href="#aB" y="725.738"/><use x="300.343445" xlink:href="#av" y="725.738"/><path d="m2546.09375 1944.1625h76.132812v3.789063h-76.132812zm0 0" style="fill:none;stroke-width:6.03985;stroke-linecap:round;stroke-linejoin:round;stroke:#000;stroke-miterlimit:10" transform="matrix(.1 0 0 -.1 0 911.76)"/><path d="m254.605469 717.34375h7.617187v-.378906h-7.617187zm0 0"/><path d="m3457.773438 1944.1625h76.171874v3.789063h-76.171874zm0 0" style="fill:none;stroke-width:6.03985;stroke-linecap:round;stroke-linejoin:round;stroke:#000;stroke-miterlimit:10" transform="matrix(.1 0 0 -.1 0 911.76)"/><path d="m345.777344 717.34375h7.617187v-.378906h-7.617187zm0 0"/><path d="m4443.28125 1944.1625h76.132812v3.789063h-76.132812zm0 0" style="fill:none;stroke-width:6.03985;stroke-linecap:round;stroke-linejoin:round;stroke:#000;stroke-miterlimit:10" transform="matrix(.1 0 0 -.1 0 911.76)"/><path d="m444.328125 717.34375h7.613281v-.378906h-7.613281zm0 0"/><path d="m2174.570312 2822.092188v-55.78125l944.765626-26.09375v55.78125zm0 0" fill="none" stroke="#000" stroke-linejoin="round" stroke-miterlimit="10" stroke-width="3.98506" transform="matrix(.1 0 0 -.1 0 911.76)"/><path d="m217.457031 629.550781v5.578125l94.476563 2.609375v-5.578125zm0 0"/><use x="53.5492" xlink:href="#aZ" y="632.339"/><use x="9.9625" xlink:href="#a0" y="669.6988"/><path d="m2174.570312 2447.092188h5.820313v345h-5.820313zm0 0" fill="none" stroke="#000" stroke-linejoin="round" stroke-miterlimit="10" stroke-width="3.98506" transform="matrix(.1 0 0 -.1 0 911.76)"/><path d="m217.457031 667.050781h.582031v-34.5h-.582031zm0 0"/><use x="193.866" xlink:href="#aV" y="725.738"/><use x="209.173429" xlink:href="#av" y="725.738"/><use x="201.97811" xlink:href="#aY" y="669.6982"/><path d="m1138.59375 2509.357813h5.820312v407.382812h-5.820312zm0 0" fill="none" stroke="#000" stroke-linejoin="round" stroke-miterlimit="10" stroke-width="3.98506" transform="matrix(.1 0 0 -.1 0 911.76)"/><path d="m113.859375 660.824219h.582031v-40.738281h-.582031zm0 0"/><use x="86.0176" xlink:href="#aN" y="725.738"/><use x="111.70002" xlink:href="#aT" y="725.738"/><use x="118.503147" xlink:href="#aQ" y="725.738"/><use x="98.3813" xlink:href="#aY" y="663.4716"/><g clip-path="url(#ao)"><path d="m3.789062 801.701563h5945.195313" style="fill:none;stroke-width:7.5467;stroke-linecap:round;stroke-linejoin:round;stroke:#000;stroke-miterlimit:10" transform="matrix(.1 0 0 -.1 0 911.76)"/></g><g clip-path="url(#ap)"><path d="m3.789062 926.232813h5945.195313" style="fill:none;stroke-width:7.5467;stroke-linecap:round;stroke-linejoin:round;stroke:#000;stroke-miterlimit:10" transform="matrix(.1 0 0 -.1 0 911.76)"/></g><g clip-path="url(#aq)"><path d="m3.789062 1050.764063h5945.195313" style="fill:none;stroke-width:7.5467;stroke-linecap:round;stroke-linejoin:round;stroke:#000;stroke-miterlimit:10" transform="matrix(.1 0 0 -.1 0 911.76)"/></g><g clip-path="url(#ar)"><path d="m3.789062 1175.295313h5945.195313" style="fill:none;stroke-width:7.5467;stroke-linecap:round;stroke-linejoin:round;stroke:#000;stroke-miterlimit:10" transform="matrix(.1 0 0 -.1 0 911.76)"/></g><g clip-path="url(#as)"><path d="m3.789062 1299.826563h5945.195313" style="fill:none;stroke-width:7.5467;stroke-linecap:round;stroke-linejoin:round;stroke:#000;stroke-miterlimit:10" transform="matrix(.1 0 0 -.1 0 911.76)"/></g><g clip-path="url(#at)"><path d="m5930.117188 801.701563v498.125" fill="none" stroke="#000" stroke-linejoin="round" stroke-miterlimit="10" stroke-width="45.2553" transform="matrix(.1 0 0 -.1 0 911.76)"/></g><path d="m5877.695312 801.701563v498.125" fill="none" stroke="#000" stroke-linejoin="round" stroke-miterlimit="10" stroke-width="14.3337" transform="matrix(.1 0 0 -.1 0 911.76)"/><use x="481.282" xlink:href="#aB" y="875.3026"/><use x="491.316757" xlink:href="#aK" y="875.3026"/><use x="508.494892" xlink:href="#aw" y="875.3026"/><use x="515.297995" xlink:href="#aW" y="875.3026"/><path d="m2706.445312 890.451563h5.820313v308.789062h-5.820313zm0 0" fill="none" stroke="#000" stroke-linejoin="round" stroke-miterlimit="10" stroke-width="3.98506" transform="matrix(.1 0 0 -.1 0 911.76)"/><path d="m270.644531 822.714844h.582031v-30.878906h-.582031zm0 0"/><use x="493.998" xlink:href="#a1" y="831.5912"/><path d="m4274.296875 890.451563h5.820313v407.382812h-5.820313zm0 0" fill="none" stroke="#000" stroke-linejoin="round" stroke-miterlimit="10" stroke-width="3.98506" transform="matrix(.1 0 0 -.1 0 911.76)"/><path d="m427.429688 822.714844h.582031v-40.738282h-.582031zm0 0"/><use x="395.25" xlink:href="#aR" y="875.3026"/><use x="412.428136" xlink:href="#aK" y="875.3026"/><use x="429.606271" xlink:href="#aM" y="875.3026"/><use x="411.95" xlink:href="#aY" y="825.3647"/><path d="m3453.828125 952.717188h5.820313v407.382812h-5.820313zm0 0" fill="none" stroke="#000" stroke-linejoin="round" stroke-miterlimit="10" stroke-width="3.98506" transform="matrix(.1 0 0 -.1 0 911.76)"/><path d="m345.382812 816.488281h.582032v-40.738281h-.582032zm0 0"/><use x="319.325" xlink:href="#ay" y="875.3026"/><use x="334.63282" xlink:href="#ax" y="875.3026"/><use x="349.940249" xlink:href="#aT" y="875.3026"/><use x="329.9027" xlink:href="#aY" y="819.1381"/><path d="m1376.484375 448.5375h76.132813v3.789063h-76.132813zm0 0" fill="none" stroke="#000" stroke-linejoin="round" stroke-miterlimit="10" stroke-width="6.03985" transform="matrix(.1 0 0 -.1 0 911.76)"/><path d="m137.648438 866.90625h7.613281v-.375h-7.613281zm0 0"/><path d="m3721.875 448.5375h76.171875v3.789063h-76.171875zm0 0" fill="none" stroke="#000" stroke-linejoin="round" stroke-miterlimit="10" stroke-width="6.03985" transform="matrix(.1 0 0 -.1 0 911.76)"/><path d="m372.1875 866.90625h7.617188v-.375h-7.617188zm0 0"/><path d="m1959.101562 1203.185938v-55.78125l753.203126 26.09375v55.820312zm0 0" fill="none" stroke="#000" stroke-linejoin="round" stroke-miterlimit="10" stroke-width="3.98506" transform="matrix(.1 0 0 -.1 0 911.76)"/><path d="m195.910156 791.441406v5.578125l75.320313-2.609375v-5.582031zm0 0"/><path d="m4592.890625 448.5375h76.132813v3.789063h-76.132813zm0 0" fill="none" stroke="#000" stroke-linejoin="round" stroke-miterlimit="10" stroke-width="6.03985" transform="matrix(.1 0 0 -.1 0 911.76)"/><path d="m459.289062 866.90625h7.613282v-.375h-7.613282zm0 0"/><path d="m5103.046875 837.092188h5.78125v398.476562h-5.78125zm0 0" fill="none" stroke="#000" stroke-linejoin="round" stroke-miterlimit="10" stroke-width="3.98506" transform="matrix(.1 0 0 -.1 0 911.76)"/><path d="m510.300781 828.050781h.582031v-39.847656h-.582031zm0 0"/><use x="249.265" xlink:href="#az" y="875.3026"/><use x="257.769302" xlink:href="#aB" y="875.3026"/><use x="268.82437" xlink:href="#aQ" y="875.3026"/><use x="53.549" xlink:href="#aZ" y="781.7784"/><use x="9.9623" xlink:href="#a0" y="819.1382"/><path d="m1959.0625 828.185938h5.820312v345.273437h-5.820312zm0 0" fill="none" stroke="#000" stroke-linejoin="round" stroke-miterlimit="10" stroke-width="3.98506" transform="matrix(.1 0 0 -.1 0 911.76)"/><path d="m195.90625 828.941406h.582031v-34.527344h-.582031zm0 0"/><use x="162.877" xlink:href="#aG" y="875.3026"/><use x="179.884811" xlink:href="#av" y="875.3026"/><use x="197.062544" xlink:href="#aE" y="875.3026"/><use x="180.429" xlink:href="#aY" y="831.5913"/><path d="m1138.59375 765.920313h5.820312v407.382812h-5.820312zm0 0" fill="none" stroke="#000" stroke-linejoin="round" stroke-miterlimit="10" stroke-width="3.98506" transform="matrix(.1 0 0 -.1 0 911.76)"/><path d="m113.859375 835.167969h.582031v-40.738281h-.582031zm0 0"/><use x="92.9914" xlink:href="#aB" y="875.3026"/><use x="102.855467" xlink:href="#aX" y="875.3026"/><use x="98.38124" xlink:href="#aY" y="837.8178"/><use x="255.16524" xlink:href="#aY" y="825.3647"/></svg>