<svg height="1032.38em" viewBox="0 0 595.28 1032.38" width="595.28em" xmlns="http://www.w3.org/2000/svg" xmlns:xlink="http://www.w3.org/1999/xlink"><clipPath id="a"><path d="m0 83h595.28125v1h-595.28125zm0 0"/></clipPath><clipPath id="b"><path d="m0 72h595.28125v2h-595.28125zm0 0"/></clipPath><clipPath id="c"><path d="m0 62h595.28125v2h-595.28125zm0 0"/></clipPath><clipPath id="d"><path d="m0 51h595.28125v2h-595.28125zm0 0"/></clipPath><clipPath id="e"><path d="m0 41h595.28125v2h-595.28125zm0 0"/></clipPath><clipPath id="f"><path d="m0 208h595.28125v2h-595.28125zm0 0"/></clipPath><clipPath id="g"><path d="m0 198h595.28125v2h-595.28125zm0 0"/></clipPath><clipPath id="h"><path d="m0 187h595.28125v2h-595.28125zm0 0"/></clipPath><clipPath id="i"><path d="m0 177h595.28125v2h-595.28125zm0 0"/></clipPath><clipPath id="j"><path d="m0 166h595.28125v2h-595.28125zm0 0"/></clipPath><clipPath id="k"><path d="m0 334h595.28125v2h-595.28125zm0 0"/></clipPath><clipPath id="l"><path d="m0 323h595.28125v2h-595.28125zm0 0"/></clipPath><clipPath id="m"><path d="m0 313h595.28125v2h-595.28125zm0 0"/></clipPath><clipPath id="n"><path d="m0 302h595.28125v2h-595.28125zm0 0"/></clipPath><clipPath id="o"><path d="m0 292h595.28125v2h-595.28125zm0 0"/></clipPath><clipPath id="p"><path d="m0 459h595.28125v2h-595.28125zm0 0"/></clipPath><clipPath id="q"><path d="m0 449h595.28125v2h-595.28125zm0 0"/></clipPath><clipPath id="r"><path d="m0 438h595.28125v2h-595.28125zm0 0"/></clipPath><clipPath id="s"><path d="m0 428h595.28125v2h-595.28125zm0 0"/></clipPath><clipPath id="t"><path d="m0 418h595.28125v1h-595.28125zm0 0"/></clipPath><clipPath id="u"><path d="m0 585h595.28125v2h-595.28125zm0 0"/></clipPath><clipPath id="v"><path d="m0 574h595.28125v2h-595.28125zm0 0"/></clipPath><clipPath id="w"><path d="m0 564h595.28125v2h-595.28125zm0 0"/></clipPath><clipPath id="x"><path d="m0 554h595.28125v1h-595.28125zm0 0"/></clipPath><clipPath id="y"><path d="m0 543h595.28125v2h-595.28125zm0 0"/></clipPath><clipPath id="z"><path d="m0 710h595.28125v2h-595.28125zm0 0"/></clipPath><clipPath id="A"><path d="m0 700h595.28125v2h-595.28125zm0 0"/></clipPath><clipPath id="B"><path d="m0 690h595.28125v1h-595.28125zm0 0"/></clipPath><clipPath id="C"><path d="m0 679h595.28125v2h-595.28125zm0 0"/></clipPath><clipPath id="D"><path d="m0 669h595.28125v1h-595.28125zm0 0"/></clipPath><clipPath id="E"><path d="m0 836h595.28125v2h-595.28125zm0 0"/></clipPath><clipPath id="F"><path d="m0 825h595.28125v2h-595.28125zm0 0"/></clipPath><clipPath id="G"><path d="m0 815h595.28125v2h-595.28125zm0 0"/></clipPath><clipPath id="H"><path d="m0 805h595.28125v1h-595.28125zm0 0"/></clipPath><clipPath id="I"><path d="m0 794h595.28125v2h-595.28125zm0 0"/></clipPath><clipPath id="J"><path d="m0 961h595.28125v2h-595.28125zm0 0"/></clipPath><clipPath id="K"><path d="m0 951h595.28125v2h-595.28125zm0 0"/></clipPath><clipPath id="L"><path d="m0 941h595.28125v1h-595.28125zm0 0"/></clipPath><clipPath id="M"><path d="m0 930h595.28125v2h-595.28125zm0 0"/></clipPath><clipPath id="N"><path d="m0 920h595.28125v1h-595.28125zm0 0"/></clipPath><clipPath id="O"><path d="m591 918h4.28125v47h-4.28125zm0 0"/></clipPath><symbol id="P" overflow="visible"><path d="m10.4375-13.53125v1.953125c-1.09375-1.625-2.28125-2.34375-3.984375-2.34375-3.28125 0-5.546875 3.046875-5.546875 7.390625 0 2.265625.546875 3.921875 1.703125 5.296875 1 1.1875 2.296875 1.828125 3.6875 1.828125 1.625 0 2.796875-.71875 3.9375-2.421875v.6875c0 3.625-1.015625 4.96875-3.703125 4.96875-1.828125 0-2.78125-.734375-3-2.28125h-2.1875c.203125 2.515625 2.1875 4.078125 5.140625 4.078125 1.984375 0 3.640625-.640625 4.515625-1.71875 1.03125-1.265625 1.421875-2.953125 1.421875-6.125v-11.3125zm-3.78125 1.59375c2.28125 0 3.578125 1.921875 3.578125 5.34375 0 3.28125-1.328125 5.203125-3.578125 5.203125-2.21875 0-3.5-1.9375-3.5-5.265625 0-3.3125 1.28125-5.28125 3.5-5.28125zm0 0"/></symbol><symbol id="Q" overflow="visible"><path d="m13.8125-1.265625c-.234375.046875-.328125.046875-.453125.046875-.75 0-1.171875-.375-1.171875-1.046875v-7.96875c0-2.390625-1.75-3.6875-5.078125-3.6875-2 0-3.578125.5625-4.5 1.578125-.625.6875-.875 1.46875-.9375 2.8125h2.171875c.1875-1.65625 1.171875-2.40625 3.1875-2.40625 1.953125 0 3.015625.734375 3.015625 2.015625v.578125c-.03125.921875-.484375 1.265625-2.25 1.484375-3.046875.390625-3.515625.5-4.328125.828125-1.578125.671875-2.390625 1.859375-2.390625 3.625 0 2.453125 1.71875 4 4.453125 4 1.703125 0 3.0625-.59375 4.59375-1.984375.15625 1.390625.828125 1.984375 2.21875 1.984375.46875 0 .75-.046875 1.46875-.234375zm-3.765625-3c0 .734375-.203125 1.171875-.859375 1.765625-.875.796875-1.9375 1.203125-3.203125 1.203125-1.671875 0-2.65625-.796875-2.65625-2.171875 0-1.40625.9375-2.140625 3.265625-2.46875 2.296875-.3125 2.734375-.421875 3.453125-.75zm0 0"/></symbol><symbol id="R" overflow="visible"><path d="m11.3125-9.765625c-.03125-2.65625-1.78125-4.15625-4.90625-4.15625-3.15625 0-5.1875 1.625-5.1875 4.140625 0 2.109375 1.078125 3.125 4.28125 3.890625l2.015625.5c1.5.359375 2.09375.890625 2.09375 1.859375 0 1.28125-1.265625 2.140625-3.15625 2.140625-1.15625 0-2.140625-.34375-2.6875-.90625-.328125-.390625-.484375-.78125-.609375-1.734375h-2.28125c.109375 3.125 1.859375 4.625 5.40625 4.625 3.40625 0 5.578125-1.671875 5.578125-4.28125 0-2.015625-1.140625-3.125-3.828125-3.78125l-2.0625-.484375c-1.765625-.421875-2.5-.984375-2.5-1.9375 0-1.265625 1.109375-2.046875 2.859375-2.046875 1.734375 0 2.65625.75 2.71875 2.171875zm0 0"/></symbol><symbol id="S" overflow="visible"><path d="m1.8125-18.828125v18.828125h2.140625v-7.46875c0-2.765625 1.4375-4.5625 3.671875-4.5625.71875 0 1.390625.203125 1.90625.59375.625.453125.875 1.109375.875 2.0625v9.375h2.140625v-10.234375c0-2.265625-1.625-3.6875-4.25-3.6875-1.921875 0-3.078125.59375-4.34375 2.25v-7.15625zm0 0"/></symbol><symbol id="T" overflow="visible"><path d="m3.921875-18.828125h-2.171875v18.828125h2.171875zm0 0"/></symbol><symbol id="U" overflow="visible"><path d="m1.8125-13.53125v13.53125h2.171875v-8.5c0-1.953125 1.40625-3.53125 3.171875-3.53125 1.59375 0 2.5.984375 2.5 2.703125v9.328125h2.171875v-8.5c0-1.953125 1.421875-3.53125 3.171875-3.53125 1.578125 0 2.515625 1 2.515625 2.703125v9.328125h2.171875v-10.15625c0-2.421875-1.40625-3.765625-3.9375-3.765625-1.796875 0-2.890625.546875-4.15625 2.0625-.796875-1.4375-1.875-2.0625-3.640625-2.0625-1.8125 0-3.015625.671875-4.15625 2.296875v-1.90625zm0 0"/></symbol><symbol id="V" overflow="visible"><path d="m13.25-6.046875c0-2.0625-.15625-3.296875-.546875-4.3125-.875-2.21875-2.9375-3.5625-5.46875-3.5625-3.765625 0-6.203125 2.875-6.203125 7.328125 0 4.46875 2.328125 7.1875 6.15625 7.1875 3.09375 0 5.234375-1.75 5.78125-4.703125h-2.171875c-.59375 1.78125-1.8125 2.71875-3.546875 2.71875-1.359375 0-2.53125-.625-3.25-1.765625-.515625-.765625-.6875-1.546875-.71875-2.890625zm-9.921875-1.75c.1875-2.515625 1.703125-4.140625 3.875-4.140625 2.203125 0 3.71875 1.703125 3.71875 4.140625zm0 0"/></symbol><symbol id="W" overflow="visible"><path d="m7.03125-13.921875c-3.828125 0-6.09375 2.71875-6.09375 7.265625 0 4.5625 2.265625 7.25 6.109375 7.25 3.828125 0 6.125-2.71875 6.125-7.15625 0-4.703125-2.21875-7.359375-6.140625-7.359375zm.015625 1.984375c2.4375 0 3.875 2 3.875 5.34375 0 3.203125-1.5 5.203125-3.875 5.203125-2.390625 0-3.875-2-3.875-5.265625 0-3.28125 1.484375-5.28125 3.875-5.28125zm0 0"/></symbol><symbol id="X" overflow="visible"><path d="m1.8125-13.53125v13.53125h2.171875v-7.46875c0-2.765625 1.4375-4.5625 3.65625-4.5625 1.703125 0 2.796875 1.03125 2.796875 2.65625v9.375h2.140625v-10.234375c0-2.234375-1.671875-3.6875-4.28125-3.6875-2.015625 0-3.3125.78125-4.5 2.65625v-2.265625zm0 0"/></symbol><symbol id="Y" overflow="visible"><path d="m12.78125-18.828125h-2.140625v7c-.90625-1.375-2.34375-2.09375-4.15625-2.09375-3.515625 0-5.8125 2.8125-5.8125 7.125 0 4.578125 2.21875 7.390625 5.890625 7.390625 1.859375 0 3.15625-.703125 4.3125-2.375v1.78125h1.90625zm-5.9375 6.921875c2.328125 0 3.796875 2.046875 3.796875 5.296875 0 3.125-1.5 5.1875-3.765625 5.1875-2.375 0-3.953125-2.09375-3.953125-5.234375 0-3.15625 1.578125-5.25 3.921875-5.25zm0 0"/></symbol><symbol id="Z" overflow="visible"><path d="m6.5625-13.53125h-2.21875v-3.71875h-2.140625v3.71875h-1.84375v1.75h1.84375v10.234375c0 1.390625.921875 2.140625 2.59375 2.140625.578125 0 1.046875-.046875 1.765625-.1875v-1.796875c-.3125.078125-.59375.09375-1.03125.09375-.9375 0-1.1875-.25-1.1875-1.203125v-9.28125h2.21875zm0 0"/></symbol><symbol id="aa" overflow="visible"><path d="m12.25-5.65625 1.921875 5.65625h2.6875l-6.609375-18.828125h-3.09375l-6.71875 18.828125h2.5625l1.984375-5.65625zm-.671875-2.015625h-6l3.09375-8.578125zm0 0"/></symbol><symbol id="ab" overflow="visible"><path d="m11.4375-13.53125h-10.09375v1.875h7.546875l-8.09375 9.71875v1.9375h11v-1.890625h-8.390625l8.03125-9.734375zm0 0"/></symbol><symbol id="ac" overflow="visible"><path d="m13.25-6.046875c0-2.0625-.15625-3.296875-.546875-4.3125-.875-2.21875-2.9375-3.5625-5.46875-3.5625-3.765625 0-6.203125 2.875-6.203125 7.328125 0 4.46875 2.328125 7.1875 6.15625 7.1875 3.09375 0 5.234375-1.75 5.78125-4.703125h-2.171875c-.59375 1.78125-1.8125 2.71875-3.546875 2.71875-1.359375 0-2.53125-.625-3.25-1.765625-.515625-.765625-.6875-1.546875-.71875-2.890625zm-9.921875-1.75c.1875-2.515625 1.703125-4.140625 3.875-4.140625 2.203125 0 3.71875 1.703125 3.71875 4.140625zm4.625-11.3125-2.484375 3.8125h1.5625l3.84375-3.8125zm0 0"/></symbol><symbol id="ad" overflow="visible"><path d="m14.234375-18.828125.015625 13.21875c0 2.53125-1.828125 4.078125-4.828125 4.078125-2.984375 0-4.828125-1.546875-4.828125-4.078125v-13.21875h-2.390625v13.21875c0 3.78125 2.828125 6.203125 7.21875 6.203125s7.234375-2.453125 7.234375-6.203125l-.015625-13.21875zm-4.234375-5.421875-2.484375 3.8125h1.546875l3.84375-3.8125zm0 0"/></symbol><symbol id="ae" overflow="visible"><path d="m1.78125-13.53125v13.53125h2.171875v-7.03125c.03125-3.25 1.375-4.6875 4.34375-4.625v-2.1875c-.375-.046875-.578125-.078125-.828125-.078125-1.40625 0-2.453125.828125-3.703125 2.84375v-2.453125zm0 0"/></symbol><symbol id="af" overflow="visible"><path d="m1.390625-18.828125v18.828125h1.9375v-1.734375c1.03125 1.578125 2.40625 2.328125 4.296875 2.328125 3.5625 0 5.890625-2.921875 5.890625-7.40625 0-4.390625-2.203125-7.109375-5.796875-7.109375-1.859375 0-3.171875.703125-4.1875 2.21875v-7.125zm5.921875 6.921875c2.40625 0 3.953125 2.09375 3.953125 5.3125 0 3.078125-1.609375 5.171875-3.953125 5.171875-2.296875 0-3.78125-2.0625-3.78125-5.234375 0-3.1875 1.484375-5.25 3.78125-5.25zm0 0"/></symbol><symbol id="ag" overflow="visible"><path d="m2.25-2.6875v2.6875h1.546875v.46875c0 1.78125-.328125 2.296875-1.546875 2.34375v.984375c1.703125.046875 2.703125-1.1875 2.703125-3.390625v-3.09375zm0 0"/></symbol><symbol id="ah" overflow="visible"><path d="m9.140625-16.703125h6.171875v-2.125h-14.765625v2.125h6.1875v16.703125h2.40625zm0 0"/></symbol><symbol id="ai" overflow="visible"><path d="m4.578125-13.53125h-2.15625v13.53125h2.15625zm-.421875-5.578125-2.484375 3.8125h1.5625l3.84375-3.8125zm0 0"/></symbol><symbol id="aj" overflow="visible"><path d="m10.015625-13.53125-3.734375 10.53125-3.46875-10.53125h-2.296875l4.578125 13.578125-.828125 2.15625c-.359375.953125-.828125 1.3125-1.734375 1.3125-.359375 0-.671875-.046875-1.140625-.15625v1.9375c.4375.234375.875.328125 1.453125.328125.6875 0 1.4375-.234375 2.015625-.640625.671875-.484375 1.0625-1.0625 1.46875-2.140625l6.015625-16.375zm0 0"/></symbol><symbol id="ak" overflow="visible"><path d="m5.015625-18.828125h-2.4375v18.828125h2.4375zm0 0"/></symbol><symbol id="al" overflow="visible"><path d="m3.640625-18.828125h-2.140625v18.828125h2.140625v-5.265625l2.09375-2.0625 4.578125 7.328125h2.65625l-5.53125-8.859375 4.703125-4.671875h-2.765625l-5.734375 5.734375zm0 0"/></symbol><symbol id="am" overflow="visible"><path d="m7.03125-13.921875c-3.828125 0-6.09375 2.71875-6.09375 7.265625 0 4.5625 2.265625 7.25 6.109375 7.25 3.828125 0 6.125-2.71875 6.125-7.15625 0-4.703125-2.21875-7.359375-6.140625-7.359375zm.015625 1.984375c2.4375 0 3.875 2 3.875 5.34375 0 3.203125-1.5 5.203125-3.875 5.203125-2.390625 0-3.875-2-3.875-5.265625 0-3.28125 1.484375-5.28125 3.875-5.28125zm.65625-7.171875-2.484375 3.8125h1.546875l3.84375-3.8125zm0 0"/></symbol><symbol id="an" overflow="visible"><path d="m8.59375-18.828125v13.25c0 1.5-.140625 2.34375-.59375 3-.453125.71875-1.34375 1.15625-2.296875 1.15625-1.796875 0-2.8125-1.21875-2.8125-3.40625v-1.21875h-2.453125v1.65625c0 3.046875 2.015625 4.984375 5.25 4.984375 3.28125 0 5.3125-2.046875 5.3125-5.296875v-14.125zm0 0"/></symbol><symbol id="ao" overflow="visible"><path d="m13.8125-1.265625c-.234375.046875-.328125.046875-.453125.046875-.75 0-1.171875-.375-1.171875-1.046875v-7.96875c0-2.390625-1.75-3.6875-5.078125-3.6875-2 0-3.578125.5625-4.5 1.578125-.625.6875-.875 1.46875-.9375 2.8125h2.171875c.1875-1.65625 1.171875-2.40625 3.1875-2.40625 1.953125 0 3.015625.734375 3.015625 2.015625v.578125c-.03125.921875-.484375 1.265625-2.25 1.484375-3.046875.390625-3.515625.5-4.328125.828125-1.578125.671875-2.390625 1.859375-2.390625 3.625 0 2.453125 1.71875 4 4.453125 4 1.703125 0 3.0625-.59375 4.59375-1.984375.15625 1.390625.828125 1.984375 2.21875 1.984375.46875 0 .75-.046875 1.46875-.234375zm-3.765625-3c0 .734375-.203125 1.171875-.859375 1.765625-.875.796875-1.9375 1.203125-3.203125 1.203125-1.671875 0-2.65625-.796875-2.65625-2.171875 0-1.40625.9375-2.140625 3.265625-2.46875 2.296875-.3125 2.734375-.421875 3.453125-.75zm-2.1875-14.84375-2.515625 3.8125h1.546875l3.859375-3.8125zm0 0"/></symbol><symbol id="ap" overflow="visible"><path d="m5.375-18.828125h-2.140625v8.734375l.5625 5.75h1l.578125-5.75zm0 16.140625h-2.171875v2.6875h2.171875zm0 0"/></symbol><symbol id="aq" overflow="visible"><path d="m7.359375 0 5.1875-13.53125h-2.421875l-3.828125 10.96875-3.609375-10.96875h-2.421875l4.75 13.53125zm0 0"/></symbol><symbol id="ar" overflow="visible"><path d="m4.4375-6.59375 3.078125-3.0625 6.640625 9.65625h2.84375l-7.75-11.15625 7.671875-7.671875h-3.109375l-9.375 9.53125v-9.53125h-2.390625v18.828125h2.390625zm0 0"/></symbol><symbol id="as" overflow="visible"><path d="m12.453125 0v-13.53125h-2.140625v7.671875c0 2.765625-1.453125 4.5625-3.703125 4.5625-1.703125 0-2.78125-1.03125-2.78125-2.65625v-9.578125h-2.15625v10.4375c0 2.234375 1.6875 3.6875 4.3125 3.6875 2 0 3.265625-.703125 4.53125-2.484375v1.890625zm-6.125-18.46875h-2.6875v2.65625h2.6875zm4.1875 0h-2.6875v2.65625h2.6875zm0 0"/></symbol><symbol id="at" overflow="visible"><path d="m1.8125-13.53125v15.5c0 1.34375-.421875 1.78125-1.765625 1.78125-.15625 0-.234375 0-.515625-.03125v1.828125c.265625.0625.390625.078125.734375.078125 2.421875 0 3.6875-.953125 3.6875-2.8125v-16.34375zm2.140625-5.296875h-2.140625v2.71875h2.140625zm0 0"/></symbol><symbol id="au" overflow="visible"><path d="m7.03125-13.921875c-3.828125 0-6.09375 2.71875-6.09375 7.265625 0 4.5625 2.265625 7.25 6.109375 7.25 3.828125 0 6.125-2.71875 6.125-7.15625 0-4.703125-2.21875-7.359375-6.140625-7.359375zm.015625 1.984375c2.4375 0 3.875 2 3.875 5.34375 0 3.203125-1.5 5.203125-3.875 5.203125-2.390625 0-3.875-2-3.875-5.265625 0-3.28125 1.484375-5.28125 3.875-5.28125zm-.75-6.53125h-2.6875v2.65625h2.6875zm4.1875 0h-2.6875v2.65625h2.6875zm0 0"/></symbol><symbol id="av" overflow="visible"><path d="m7.03125-13.921875c-3.828125 0-6.09375 2.71875-6.09375 7.265625 0 4.5625 2.265625 7.25 6.109375 7.25 3.828125 0 6.125-2.71875 6.125-7.15625 0-4.703125-2.21875-7.359375-6.140625-7.359375zm.015625 1.984375c2.4375 0 3.875 2 3.875 5.34375 0 3.203125-1.5 5.203125-3.875 5.203125-2.390625 0-3.875-2-3.875-5.265625 0-3.28125 1.484375-5.28125 3.875-5.28125zm-.84375-7.171875-2.515625 3.875h1.5625l3.84375-3.875zm4.484375 0-2.5 3.875h1.546875l3.84375-3.875zm0 0"/></symbol><symbol id="aw" overflow="visible"><path d="m6.65625-13.53125h-2.234375v-2.125c0-.90625.484375-1.359375 1.5-1.359375.171875 0 .25 0 .734375.015625v-1.78125c-.484375-.09375-.765625-.125-1.203125-.125-1.984375 0-3.1875 1.140625-3.1875 3.078125v2.296875h-1.796875v1.75h1.796875v11.78125h2.15625v-11.78125h2.234375zm0 0"/></symbol><symbol id="ax" overflow="visible"><path d="m15.390625-13.296875c0-1.296875-.078125-1.65625-.484375-2.53125-1.03125-2.171875-3.234375-3.3125-6.40625-3.3125-4.140625 0-6.6875 2.125-6.6875 5.53125 0 2.296875 1.203125 3.75 3.6875 4.390625l4.671875 1.234375c2.40625.625 3.46875 1.578125 3.46875 3.046875 0 1.015625-.546875 2.046875-1.34375 2.609375-.75.546875-1.9375.796875-3.46875.796875-2.0625 0-3.4375-.484375-4.328125-1.5625-.703125-.828125-1.015625-1.734375-.984375-2.890625h-2.28125c.03125 1.71875.359375 2.859375 1.109375 3.890625 1.296875 1.78125 3.46875 2.6875 6.328125 2.6875 2.25 0 4.09375-.515625 5.296875-1.453125 1.265625-1 2.078125-2.671875 2.078125-4.3125 0-2.3125-1.453125-4.015625-4.015625-4.71875l-4.71875-1.265625c-2.28125-.625-3.109375-1.34375-3.109375-2.796875 0-1.90625 1.6875-3.171875 4.21875-3.171875 3 0 4.671875 1.34375 4.703125 3.828125zm0 0"/></symbol><symbol id="ay" overflow="visible"><path d="m3.875-13.53125h-2.140625v13.53125h2.140625zm0-5.296875h-2.171875v2.71875h2.171875zm0 0"/></symbol><symbol id="az" overflow="visible"><path d="m9.296875-5.65625c-1.765625 0-3.4375.59375-4.9375 1.515625-1.96875 1.171875-4.359375 3.21875-4.359375 6.1875 0 2.46875 2.171875 3.609375 4.390625 3.609375 1.765625 0 3.4375-.59375 4.9375-1.515625 1.96875-1.171875 4.3125-3.21875 4.3125-6.1875 0-2.46875-2.140625-3.609375-4.34375-3.609375zm0 0"/></symbol><symbol id="aA" overflow="visible"><path d="m13.21875-2.796875c0 .40625-.125.875-.421875 1.203125-.875 1.046875-2.875 2.34375-4.46875 3.34375-1.59375 1.015625-3.59375 2.34375-4.890625 2.734375-.171875.03125-.390625.078125-.546875.078125-.921875 0-1.765625-.71875-1.765625-1.765625 0-.40625.125-.875.421875-1.203125.875-1.046875 2.890625-2.34375 4.484375-3.34375 1.578125-1.015625 3.59375-2.34375 4.890625-2.734375.171875-.03125.375-.078125.546875-.078125.921875 0 1.75.71875 1.75 1.765625zm-2.125-2.859375c-3.140625 0-5.703125.671875-7.90625 2.1875-1.34375.921875-2.21875 2.34375-2.734375 3.890625-.25.75-.453125 1.59375-.453125 2.375 0 1.96875 1.421875 2.859375 3.265625 2.859375 3.140625 0 5.6875-.671875 7.90625-2.1875 1.34375-.921875 2.21875-2.34375 2.71875-3.890625.25-.75.46875-1.59375.46875-2.375 0-1.96875-1.421875-2.859375-3.265625-2.859375zm0 0"/></symbol><symbol id="aB" overflow="visible"><path d="m9 13.21875v-6.8125l2.046875-.71875c.25-.078125.453125-.328125.453125-.625v-2.71875c0-.453125-.453125-.796875-.875-.625l-1.625.578125v-6.859375l2.046875-.75c.25-.078125.453125-.34375.453125-.625v-2.6875c0-.453125-.453125-.796875-.875-.625l-1.625.546875v-6.28125c0-.375-.34375-.703125-.71875-.703125s-.703125.328125-.703125.703125v6.78125l-3.640625 1.296875v-6.3125c0-.375-.34375-.71875-.71875-.71875s-.703125.34375-.703125.71875v6.8125l-2.0625.71875c-.25.078125-.453125.328125-.453125.625v2.71875c0 .453125.453125.796875.875.625l1.640625-.578125v6.859375l-2.0625.75c-.25.078125-.453125.34375-.453125.625v2.6875c0 .453125.453125.796875.875.625l1.640625-.546875v6.28125c0 .375.328125.703125.703125.703125s.71875-.328125.71875-.703125v-6.78125l3.640625-1.296875v6.3125c0 .375.328125.71875.703125.71875s.71875-.34375.71875-.71875zm-5.0625-16.015625 3.640625-1.265625v6.859375l-3.640625 1.265625zm0 0"/></symbol><symbol id="aC" overflow="visible"><path d="m15.65625-10.875c-.671875-2.9375-1.46875-5.828125-2.3125-8.703125 4.015625-4.5625 7.65625-9.25 7.65625-15.28125 0-4.71875-2.59375-11.5-5.515625-15.015625-.21875-.171875-.46875-.171875-.671875 0-3.96875 2.890625-6.28125 7.484375-6.28125 12.34375 0 2.171875.046875 4.3125.296875 6.4375.296875 2.71875 1 5.359375 1.765625 8-4.9375 5.609375-10.515625 10.953125-10.515625 18.40625 0 8.40625 6.078125 15.5625 13.9375 15.5625 1.296875 0 2.515625-.125 3.71875-.328125.140625 1.34375.21875 2.671875.21875 4.015625 0 .75-.046875 1.46875-.078125 2.21875-.265625 4.140625-2.8125 7.953125-6.703125 8.03125-.046875 0-.078125.046875-.125.046875-2.140625 0-3.96875-1.21875-5.0625-2.9375.453125.21875.96875.375 1.46875.375 2.171875 0 3.96875-1.796875 3.96875-3.96875 0-2.34375-1.71875-4.359375-3.96875-4.359375-2.46875 0-4.6875 1.9375-4.6875 4.359375 0 4.515625 3.640625 8.15625 8.15625 8.15625 4.9375 0 8.328125-4.4375 8.625-9.453125.03125-.796875.03125-1.546875.03125-2.34375 0-1.5-.078125-3.015625-.203125-4.515625 1.09375-.34375 2.125-.84375 3.046875-1.546875 3.109375-2.3125 4.484375-5.53125 4.484375-8.703125 0-5.53125-4.1875-10.84375-10.625-10.84375-.21875 0-.421875.046875-.625.046875zm3.546875 19.453125c-.578125-5.1875-1.546875-10.125-2.59375-15.015625 4.609375.375 7.5 4.21875 7.5 8.0625 0 2.9375-2.015625 5.953125-4.90625 6.953125zm-16.234375-9.875c0-6.6875 4.515625-11.765625 9.046875-16.828125.65625 2.46875 1.328125 4.9375 1.921875 7.453125-4.234375.96875-6.609375 4.515625-6.609375 8.203125 0 2.921875 1.5 5.90625 4.84375 7.703125.125.03125.25.078125.375.078125.46875 0 .84375-.421875.84375-.875 0-.21875-.125-.421875-.296875-.59375-2.34375-1.328125-3.421875-3.34375-3.421875-5.1875 0-2.46875 1.921875-4.6875 5.21875-5.0625 1.09375 5.03125 2.0625 10 2.6875 15.359375-1.140625.171875-2.265625.25-3.4375.25-5.6875 0-11.171875-4.8125-11.171875-10.5zm14.234375-42.640625c.703125 2.21875.875 3.3125.875 5.734375 0 5.3125-2.8125 9.546875-6.234375 13.59375-.75-2.625-1.390625-5.1875-1.390625-8.359375 0-4.65625 2.609375-8.875 6.75-10.96875zm0 0"/></symbol><symbol id="aD" overflow="visible"><path d="m15.359375 0c.171875 0 .328125-.171875.328125-.328125v-5.859375c0-.171875-.15625-.34375-.328125-.34375h-15.03125c-.15625 0-.328125.171875-.328125.34375v5.859375c0 .15625.171875.328125.328125.328125zm0 0"/></symbol><symbol id="aE" overflow="visible"><path d="m1.046875-1.84375c.046875-1.375.96875-2.59375 2.265625-2.59375 1.25 0 1.828125 1.46875 1.828125 2.890625 0 2.46875-2.09375 4.21875-4.015625 5.8125-.078125-.921875-.15625-1.84375-.15625-2.765625 0-.15625.03125-.28125.03125-.453125zm-2.09375-17.53125.46875 25.0625c0 .5.375.875.875.875.75 0 1.078125-.875 1.671875-1.328125 2.640625-2.140625 6.40625-3.640625 6.40625-7.078125 0-2.25-1.6875-4.1875-3.890625-4.1875-1.34375 0-2.59375.46875-3.6875 1.265625l.25-14.609375c-.328125-.171875-.671875-.296875-1.046875-.296875s-.71875.125-1.046875.296875zm0 0"/></symbol><symbol id="aF" overflow="visible"><path d="m9-4.765625c3.296875 0 5.765625 2.546875 5.765625 5.859375 0 1.921875-.828125 3.671875-2.921875 3.671875-3.3125 0-5.8125-2.546875-5.8125-5.859375 0-1.921875.875-3.671875 2.96875-3.671875zm11.796875 4.765625c0-1.796875-1.46875-3.09375-3.0625-3.96875-2.25-1.21875-4.765625-1.6875-7.3125-1.6875-2.5625 0-5.109375.46875-7.375 1.6875-1.578125.875-3.046875 2.171875-3.046875 3.96875s1.46875 3.09375 3.046875 3.96875c2.265625 1.21875 4.8125 1.6875 7.375 1.6875 2.546875 0 5.0625-.46875 7.3125-1.6875 1.59375-.875 3.0625-2.171875 3.0625-3.96875zm0 0"/></symbol><symbol id="aG" overflow="visible"><path d="m9.359375-1.984375c0 .296875-.09375.625-.296875.859375-.625.734375-2.046875 1.65625-3.171875 2.375-1.125.703125-2.546875 1.65625-3.46875 1.921875-.109375.03125-.265625.046875-.375.046875-.65625 0-1.25-.5-1.25-1.234375 0-.296875.09375-.625.296875-.859375.625-.734375 2.046875-1.65625 3.171875-2.375 1.125-.703125 2.546875-1.65625 3.453125-1.921875.125-.03125.265625-.046875.390625-.046875.65625 0 1.25.5 1.25 1.234375zm-1.515625-2.015625c-2.21875 0-4.03125.484375-5.59375 1.546875-.953125.640625-1.5625 1.65625-1.921875 2.75-.1875.53125-.328125 1.125-.328125 1.6875 0 1.390625 1 2.015625 2.3125 2.015625 2.21875 0 4.015625-.484375 5.59375-1.546875.9375-.640625 1.5625-1.65625 1.921875-2.75.171875-.53125.328125-1.125.328125-1.6875 0-1.390625-1.015625-2.015625-2.3125-2.015625zm0 0"/></symbol><symbol id="aH" overflow="visible"><path d="m5.484375-11.25v11.25h3.21875v-16.3125h-2.140625c-.515625 1.921875-2.1875 2.921875-5 2.921875v2.140625zm0 0"/></symbol><symbol id="aI" overflow="visible"><path d="m4.921875-3.359375h-3.453125v3.359375h3.453125zm0 0"/></symbol><g clip-path="url(#a)"><path d="m3.4375 9487.589062h5945.898438" fill="none" stroke="#000" stroke-linecap="round" stroke-miterlimit="10" stroke-width="6.86227" transform="matrix(.1 0 0 -.1 0 1032.38)"/></g><g clip-path="url(#b)"><path d="m3.4375 9592.198437h5945.898438" fill="none" stroke="#000" stroke-linecap="round" stroke-miterlimit="10" stroke-width="6.86227" transform="matrix(.1 0 0 -.1 0 1032.38)"/></g><g clip-path="url(#c)"><path d="m3.4375 9696.76875h5945.898438" fill="none" stroke="#000" stroke-linecap="round" stroke-miterlimit="10" stroke-width="6.86227" transform="matrix(.1 0 0 -.1 0 1032.38)"/></g><g clip-path="url(#d)"><path d="m3.4375 9801.378125h5945.898438" fill="none" stroke="#000" stroke-linecap="round" stroke-miterlimit="10" stroke-width="6.86227" transform="matrix(.1 0 0 -.1 0 1032.38)"/></g><g clip-path="url(#e)"><path d="m3.4375 9905.9875h5945.898438" fill="none" stroke="#000" stroke-linecap="round" stroke-miterlimit="10" stroke-width="6.86227" transform="matrix(.1 0 0 -.1 0 1032.38)"/></g><path d="m4928.945312 9614.7375h4.960938v341.5625h-4.960938zm0 0" style="fill:none;stroke-width:3.98555;stroke-linecap:round;stroke-linejoin:round;stroke:#000;stroke-miterlimit:10" transform="matrix(.1 0 0 -.1 0 1032.38)"/><path d="m492.894531 70.90625h.496094v-34.15625h-.496094zm0 0"/><use x="466.095" xlink:href="#P" y="120.245"/><use x="480.211815" xlink:href="#Q" y="120.245"/><use x="494.498162" xlink:href="#R" y="120.245"/><use x="479.9294" xlink:href="#az" y="73.1622"/><path d="m4308.632812 9674.542187h4.960938v334.0625h-4.960938zm0 0" style="fill:none;stroke-width:3.98555;stroke-linecap:round;stroke-linejoin:round;stroke:#000;stroke-miterlimit:10" transform="matrix(.1 0 0 -.1 0 1032.38)"/><path d="m430.863281 64.925781h.492188v-33.40625h-.492188zm0 0"/><use x="404.311" xlink:href="#S" y="120.245"/><use x="418.597347" xlink:href="#Q" y="120.245"/><use x="432.883694" xlink:href="#T" y="120.245"/><use x="438.666534" xlink:href="#T" y="120.245"/><use x="417.204" xlink:href="#aA" y="67.9317"/><use x="538.080347" xlink:href="#az" y="67.9317"/><path d="m3557.695312 9350.089062h4.960938v324.101563h-4.960938zm0 0" style="fill:none;stroke-width:3.98555;stroke-linecap:round;stroke-linejoin:round;stroke:#000;stroke-miterlimit:10" transform="matrix(.1 0 0 -.1 0 1032.38)"/><path d="m355.769531 97.371094h.496094v-32.410156h-.496094zm0 0"/><use x="337.23" xlink:href="#U" y="120.245"/><use x="358.830419" xlink:href="#V" y="120.245"/><use x="373.287469" xlink:href="#P" y="120.245"/><use x="355.5722" xlink:href="#az" y="62.7016"/><path d="m2960.898438 9384.932812h4.921874v341.601563h-4.921874zm0 0" style="fill:none;stroke-width:3.98555;stroke-linecap:round;stroke-linejoin:round;stroke:#000;stroke-miterlimit:10" transform="matrix(.1 0 0 -.1 0 1032.38)"/><path d="m296.089844 93.886719h.492187v-34.15625h-.492187zm0 0"/><use x="295.89" xlink:href="#az" y="57.471"/><path d="m2109.726562 9192.08125h63.554688v3.4375h-63.554688zm0 0" style="fill:none;stroke-width:5.49191;stroke-linecap:round;stroke-linejoin:round;stroke:#000;stroke-miterlimit:10" transform="matrix(.1 0 0 -.1 0 1032.38)"/><path d="m210.972656 113.171875h6.351563v-.34375h-6.351563zm0 0"/><path d="m2687.460938 9192.08125h63.554687v3.4375h-63.554687zm0 0" style="fill:none;stroke-width:5.49191;stroke-linecap:round;stroke-linejoin:round;stroke:#000;stroke-miterlimit:10" transform="matrix(.1 0 0 -.1 0 1032.38)"/><path d="m268.746094 113.171875h6.355468v-.34375h-6.355468zm0 0"/><path d="m3927.65625 9192.08125h63.515625v3.4375h-63.515625zm0 0" style="fill:none;stroke-width:5.49191;stroke-linecap:round;stroke-linejoin:round;stroke:#000;stroke-miterlimit:10" transform="matrix(.1 0 0 -.1 0 1032.38)"/><path d="m392.765625 113.171875h6.351563v-.34375h-6.351563zm0 0"/><path d="m4520.9375 9192.08125h63.554688v3.4375h-63.554688zm0 0" style="fill:none;stroke-width:5.49191;stroke-linecap:round;stroke-linejoin:round;stroke:#000;stroke-miterlimit:10" transform="matrix(.1 0 0 -.1 0 1032.38)"/><path d="m452.09375 113.171875h6.355469v-.34375h-6.355469zm0 0"/><path d="m5126.132812 9192.08125h63.554688v3.4375h-63.554688zm0 0" style="fill:none;stroke-width:5.49191;stroke-linecap:round;stroke-linejoin:round;stroke:#000;stroke-miterlimit:10" transform="matrix(.1 0 0 -.1 0 1032.38)"/><path d="m512.613281 113.171875h6.355469v-.34375h-6.355469zm0 0"/><use x="464.761" xlink:href="#aB" y="73.162"/><path d="m5510.46875 9667.042187h4.921875v341.5625h-4.921875zm0 0" style="fill:none;stroke-width:3.98555;stroke-linecap:round;stroke-linejoin:round;stroke:#000;stroke-miterlimit:10" transform="matrix(.1 0 0 -.1 0 1032.38)"/><path d="m551.046875 65.675781h.492187v-34.15625h-.492187zm0 0"/><use x="524.161" xlink:href="#R" y="120.245"/><use x="537.087575" xlink:href="#W" y="120.245"/><use x="551.373922" xlink:href="#X" y="120.245"/><use x="284.945741" xlink:href="#Y" y="120.245"/><use x="299.232088" xlink:href="#V" y="120.245"/><use x="313.348903" xlink:href="#Z" y="120.245"/><path d="m598.710938 10018.917187h6.40625v198.828125h-6.40625zm0 0" style="fill:none;stroke-width:3.201;stroke-linecap:round;stroke-linejoin:round;stroke:#000;stroke-miterlimit:10" transform="matrix(.1 0 0 -.1 0 1032.38)"/><path d="m59.871094 30.488281h.640625v-19.882812h-.640625zm0 0"/><use x="50.5234" xlink:href="#aG" y="32.631"/><path d="m743.320312 9674.542187h4.921876v334.0625h-4.921876zm0 0" style="fill:none;stroke-width:3.98555;stroke-linecap:round;stroke-linejoin:round;stroke:#000;stroke-miterlimit:10" transform="matrix(.1 0 0 -.1 0 1032.38)"/><path d="m74.332031 64.925781h.492188v-33.40625h-.492188zm0 0"/><use x="22.8621" xlink:href="#aH" y="120.245"/><use x="35.617967" xlink:href="#aI" y="120.245"/><use x="52.5414" xlink:href="#aa" y="120.245"/><use x="70.229317" xlink:href="#ab" y="120.245"/><use x="8.3687" xlink:href="#aC" y="73.1622"/><use x="60.6726" xlink:href="#aA" y="67.93173"/><use x="230.3316" xlink:href="#P" y="120.24503"/><use x="244.617947" xlink:href="#V" y="120.24503"/><use x="237.78785" xlink:href="#az" y="67.93173"/><path d="m1935.585938 9614.7375h4.960937v341.5625h-4.960937zm0 0" style="fill:none;stroke-width:3.98555;stroke-linecap:round;stroke-linejoin:round;stroke:#000;stroke-miterlimit:10" transform="matrix(.1 0 0 -.1 0 1032.38)"/><path d="m193.558594 70.90625h.496094v-34.15625h-.496094zm0 0"/><use x="176.878" xlink:href="#Z" y="120.245"/><use x="183.680742" xlink:href="#ac" y="120.245"/><use x="180.59245" xlink:href="#az" y="73.1622"/><path d="m2507.539062 9667.042187h4.960938v341.5625h-4.960938zm0 0" style="fill:none;stroke-width:3.98555;stroke-linecap:round;stroke-linejoin:round;stroke:#000;stroke-miterlimit:10" transform="matrix(.1 0 0 -.1 0 1032.38)"/><path d="m250.753906 65.675781h.496094v-34.15625h-.496094zm0 0"/><path d="m1363.632812 9667.042187h4.960938v341.5625h-4.960938zm0 0" style="fill:none;stroke-width:3.98555;stroke-linecap:round;stroke-linejoin:round;stroke:#000;stroke-miterlimit:10" transform="matrix(.1 0 0 -.1 0 1032.38)"/><path d="m136.363281 65.675781h.492188v-34.15625h-.492188zm0 0"/><use x="116.621" xlink:href="#ad" y="120.245"/><use x="135.159699" xlink:href="#ae" y="120.245"/><use x="123.39756" xlink:href="#az" y="67.9317"/><g clip-path="url(#f)"><path d="m3.4375 8232.276562h5945.898438" style="fill:none;stroke-width:6.86227;stroke-linecap:round;stroke-linejoin:round;stroke:#000;stroke-miterlimit:10" transform="matrix(.1 0 0 -.1 0 1032.38)"/></g><g clip-path="url(#g)"><path d="m3.4375 8336.885937h5945.898438" style="fill:none;stroke-width:6.86227;stroke-linecap:round;stroke-linejoin:round;stroke:#000;stroke-miterlimit:10" transform="matrix(.1 0 0 -.1 0 1032.38)"/></g><g clip-path="url(#h)"><path d="m3.4375 8441.495312h5945.898438" style="fill:none;stroke-width:6.86227;stroke-linecap:round;stroke-linejoin:round;stroke:#000;stroke-miterlimit:10" transform="matrix(.1 0 0 -.1 0 1032.38)"/></g><g clip-path="url(#i)"><path d="m3.4375 8546.104687h5945.898438" style="fill:none;stroke-width:6.86227;stroke-linecap:round;stroke-linejoin:round;stroke:#000;stroke-miterlimit:10" transform="matrix(.1 0 0 -.1 0 1032.38)"/></g><g clip-path="url(#j)"><path d="m3.4375 8650.714062h5945.898438" style="fill:none;stroke-width:6.86227;stroke-linecap:round;stroke-linejoin:round;stroke:#000;stroke-miterlimit:10" transform="matrix(.1 0 0 -.1 0 1032.38)"/></g><path d="m4268.75 8127.667187h197.96875" style="fill:none;stroke-width:17.323;stroke-linecap:round;stroke-linejoin:round;stroke:#000;stroke-miterlimit:10" transform="matrix(.1 0 0 -.1 0 1032.38)"/><path d="m4432.578125 8157.745312h4.921875v334.0625h-4.921875zm0 0" fill="none" stroke="#000" stroke-linejoin="round" stroke-miterlimit="10" stroke-width="3.98555" transform="matrix(.1 0 0 -.1 0 1032.38)"/><path d="m443.257812 216.605469h.492188v-33.40625h-.492188zm0 0"/><use x="411.773" xlink:href="#af" y="245.765"/><use x="426.059347" xlink:href="#V" y="245.765"/><use x="440.345694" xlink:href="#X" y="245.765"/><use x="454.63165" xlink:href="#ag" y="245.765"/><use x="429.598" xlink:href="#aA" y="219.613"/><path d="m3678.710938 8202.55h4.921874v341.5625h-4.921874zm0 0" fill="none" stroke="#000" stroke-linejoin="round" stroke-miterlimit="10" stroke-width="3.98555" transform="matrix(.1 0 0 -.1 0 1032.38)"/><path d="m367.871094 212.125h.492187v-34.15625h-.492187zm0 0"/><use x="340.303" xlink:href="#P" y="245.765"/><use x="354.588956" xlink:href="#V" y="245.765"/><use x="368.875303" xlink:href="#Y" y="245.765"/><use x="354.903" xlink:href="#az" y="214.3826"/><path d="m2931.757812 8254.854687h4.921876v341.5625h-4.921876zm0 0" fill="none" stroke="#000" stroke-linejoin="round" stroke-miterlimit="10" stroke-width="3.98555" transform="matrix(.1 0 0 -.1 0 1032.38)"/><path d="m293.175781 206.894531h.492188v-34.15625h-.492188zm0 0"/><use x="273.516" xlink:href="#R" y="245.765"/><use x="286.271871" xlink:href="#ac" y="245.765"/><use x="280.2078" xlink:href="#az" y="209.1525"/><path d="m2451.09375 7936.885937h63.554688v3.4375h-63.554688zm0 0" fill="none" stroke="#000" stroke-linejoin="round" stroke-miterlimit="10" stroke-width="5.49191" transform="matrix(.1 0 0 -.1 0 1032.38)"/><path d="m245.109375 238.691406h6.351563v-.34375h-6.351563zm0 0"/><path d="m3172.539062 7936.885937h63.515626v3.4375h-63.515626zm0 0" fill="none" stroke="#000" stroke-linejoin="round" stroke-miterlimit="10" stroke-width="5.49191" transform="matrix(.1 0 0 -.1 0 1032.38)"/><path d="m317.253906 238.691406h6.351563v-.34375h-6.351563zm0 0"/><path d="m3942.890625 7936.885937h63.554687v3.4375h-63.554687zm0 0" fill="none" stroke="#000" stroke-linejoin="round" stroke-miterlimit="10" stroke-width="5.49191" transform="matrix(.1 0 0 -.1 0 1032.38)"/><path d="m394.289062 238.691406h6.355469v-.34375h-6.355469zm0 0"/><use x="511.767" xlink:href="#aD" y="188.231"/><path d="m690.898438 8307.159375h4.921874v341.5625h-4.921874zm0 0" fill="none" stroke="#000" stroke-linejoin="round" stroke-miterlimit="10" stroke-width="3.98555" transform="matrix(.1 0 0 -.1 0 1032.38)"/><path d="m69.089844 201.664062h.492187v-34.15625h-.492187zm0 0"/><use x="49.0902" xlink:href="#ah" y="245.765"/><use x="62.526158" xlink:href="#V" y="245.765"/><use x="56.12184" xlink:href="#az" y="203.922"/><use x="8.36874" xlink:href="#aC" y="198.69153"/><path d="m2184.804688 8307.159375h4.921874v341.5625h-4.921874zm0 0" fill="none" stroke="#000" stroke-linejoin="round" stroke-miterlimit="10" stroke-width="3.98555" transform="matrix(.1 0 0 -.1 0 1032.38)"/><path d="m218.480469 201.664062h.492187v-34.15625h-.492187zm0 0"/><use x="201.627" xlink:href="#ai" y="245.765"/><use x="208.770369" xlink:href="#X" y="245.765"/><use x="205.51216" xlink:href="#az" y="203.922"/><path d="m1437.851562 8307.159375h4.921876v341.5625h-4.921876zm0 0" fill="none" stroke="#000" stroke-linejoin="round" stroke-miterlimit="10" stroke-width="3.98555" transform="matrix(.1 0 0 -.1 0 1032.38)"/><path d="m143.785156 201.664062h.492188v-34.15625h-.492188zm0 0"/><use x="109.924" xlink:href="#X" y="245.765"/><use x="124.210347" xlink:href="#Q" y="245.765"/><use x="138.327162" xlink:href="#P" y="245.765"/><use x="152.443978" xlink:href="#aj" y="245.765"/><use x="130.8174" xlink:href="#az" y="203.922"/><g clip-path="url(#k)"><path d="m3.4375 6976.964062h5945.898438" style="fill:none;stroke-width:6.86227;stroke-linecap:round;stroke-linejoin:round;stroke:#000;stroke-miterlimit:10" transform="matrix(.1 0 0 -.1 0 1032.38)"/></g><g clip-path="url(#l)"><path d="m3.4375 7081.573437h5945.898438" style="fill:none;stroke-width:6.86227;stroke-linecap:round;stroke-linejoin:round;stroke:#000;stroke-miterlimit:10" transform="matrix(.1 0 0 -.1 0 1032.38)"/></g><g clip-path="url(#m)"><path d="m3.4375 7186.182812h5945.898438" style="fill:none;stroke-width:6.86227;stroke-linecap:round;stroke-linejoin:round;stroke:#000;stroke-miterlimit:10" transform="matrix(.1 0 0 -.1 0 1032.38)"/></g><g clip-path="url(#n)"><path d="m3.4375 7290.792187h5945.898438" style="fill:none;stroke-width:6.86227;stroke-linecap:round;stroke-linejoin:round;stroke:#000;stroke-miterlimit:10" transform="matrix(.1 0 0 -.1 0 1032.38)"/></g><g clip-path="url(#o)"><path d="m3.4375 7395.401562h5945.898438" style="fill:none;stroke-width:6.86227;stroke-linecap:round;stroke-linejoin:round;stroke:#000;stroke-miterlimit:10" transform="matrix(.1 0 0 -.1 0 1032.38)"/></g><use x="295.436" xlink:href="#az" y="318.991"/><path d="m4864.453125 7007.042187h4.960937v334.0625h-4.960937zm0 0" style="fill:none;stroke-width:3.98555;stroke-linecap:round;stroke-linejoin:round;stroke:#000;stroke-miterlimit:10" transform="matrix(.1 0 0 -.1 0 1032.38)"/><path d="m486.445312 331.675781h.492188v-33.40625h-.492188zm0 0"/><use x="460.999" xlink:href="#Z" y="372.693"/><use x="468.142784" xlink:href="#Q" y="372.693"/><use x="482.429131" xlink:href="#ae" y="372.693"/><use x="491.783029" xlink:href="#Z" y="372.693"/><use x="472.7865" xlink:href="#aA" y="334.6817"/><path d="m4252.265625 7051.846875h4.960937v341.5625h-4.960937zm0 0" style="fill:none;stroke-width:3.98555;stroke-linecap:round;stroke-linejoin:round;stroke:#000;stroke-miterlimit:10" transform="matrix(.1 0 0 -.1 0 1032.38)"/><path d="m425.226562 327.195312h.492188v-34.15625h-.492188zm0 0"/><use x="393.918" xlink:href="#U" y="372.693"/><use x="415.518444" xlink:href="#V" y="372.693"/><use x="429.975103" xlink:href="#P" y="372.693"/><use x="412.2598" xlink:href="#az" y="329.4512"/><path d="m3668.125 7104.151562h4.960938v341.5625h-4.960938zm0 0" style="fill:none;stroke-width:3.98555;stroke-linecap:round;stroke-linejoin:round;stroke:#000;stroke-miterlimit:10" transform="matrix(.1 0 0 -.1 0 1032.38)"/><path d="m366.8125 321.964844h.496094v-34.15625h-.496094zm0 0"/><use x="346.391" xlink:href="#X" y="372.693"/><use x="360.677347" xlink:href="#V" y="372.693"/><use x="353.84842" xlink:href="#az" y="324.2207"/><path d="m3084.023438 7156.45625h4.921874v341.5625h-4.921874zm0 0" style="fill:none;stroke-width:3.98555;stroke-linecap:round;stroke-linejoin:round;stroke:#000;stroke-miterlimit:10" transform="matrix(.1 0 0 -.1 0 1032.38)"/><path d="m308.402344 316.734375h.492187v-34.15625h-.492187zm0 0"/><use x="291.721" xlink:href="#Z" y="372.693"/><use x="298.523742" xlink:href="#V" y="372.693"/><path d="m1496.132812 6667.628125h63.554688v3.398437h-63.554688zm0 0" style="fill:none;stroke-width:5.49191;stroke-linecap:round;stroke-linejoin:round;stroke:#000;stroke-miterlimit:10" transform="matrix(.1 0 0 -.1 0 1032.38)"/><path d="m149.613281 365.621094h6.355469v-.34375h-6.355469zm0 0"/><path d="m2697.070312 6667.628125h63.554688v3.398437h-63.554688zm0 0" style="fill:none;stroke-width:5.49191;stroke-linecap:round;stroke-linejoin:round;stroke:#000;stroke-miterlimit:10" transform="matrix(.1 0 0 -.1 0 1032.38)"/><path d="m269.707031 365.621094h6.355469v-.34375h-6.355469zm0 0"/><path d="m3264.21875 6667.628125h63.554688v3.398437h-63.554688zm0 0" style="fill:none;stroke-width:5.49191;stroke-linecap:round;stroke-linejoin:round;stroke:#000;stroke-miterlimit:10" transform="matrix(.1 0 0 -.1 0 1032.38)"/><path d="m326.421875 365.621094h6.355469v-.34375h-6.355469zm0 0"/><path d="m4494.53125 6667.628125h63.554688v3.398437h-63.554688zm0 0" style="fill:none;stroke-width:5.49191;stroke-linecap:round;stroke-linejoin:round;stroke:#000;stroke-miterlimit:10" transform="matrix(.1 0 0 -.1 0 1032.38)"/><path d="m449.453125 365.621094h6.355469v-.34375h-6.355469zm0 0"/><path d="m5077.578125 6667.628125h63.554687v3.398437h-63.554687zm0 0" style="fill:none;stroke-width:5.49191;stroke-linecap:round;stroke-linejoin:round;stroke:#000;stroke-miterlimit:10" transform="matrix(.1 0 0 -.1 0 1032.38)"/><path d="m507.757812 365.621094h6.355469v-.34375h-6.355469zm0 0"/><path d="m5498.320312 6947.2375h4.921876v341.5625h-4.921876zm0 0" style="fill:none;stroke-width:3.98555;stroke-linecap:round;stroke-linejoin:round;stroke:#000;stroke-miterlimit:10" transform="matrix(.1 0 0 -.1 0 1032.38)"/><path d="m549.828125 337.65625h.496094v-34.15625h-.496094zm0 0"/><use x="522.943" xlink:href="#R" y="372.693"/><use x="535.869575" xlink:href="#W" y="372.693"/><use x="550.155531" xlink:href="#X" y="372.693"/><use x="536.8633" xlink:href="#az" y="339.9117"/><path d="m697.8125 7059.346875h4.921875v334.0625h-4.921875zm0 0" style="fill:none;stroke-width:3.98555;stroke-linecap:round;stroke-linejoin:round;stroke:#000;stroke-miterlimit:10" transform="matrix(.1 0 0 -.1 0 1032.38)"/><path d="m69.78125 326.445312h.492188v-33.40625h-.492188zm0 0"/><use x="54.7098" xlink:href="#aa" y="372.693"/><use x="56.12191" xlink:href="#aA" y="329.4512"/><use x="8.36881" xlink:href="#aC" y="324.22073"/><use x="237.18281" xlink:href="#az" y="313.75983"/><path d="m1915.78125 7156.45625h4.960938v341.5625h-4.960938zm0 0" style="fill:none;stroke-width:3.98555;stroke-linecap:round;stroke-linejoin:round;stroke:#000;stroke-miterlimit:10" transform="matrix(.1 0 0 -.1 0 1032.38)"/><path d="m191.578125 316.734375h.496094v-34.15625h-.496094zm0 0"/><use x="233.978" xlink:href="#ak" y="372.693"/><use x="241.121759" xlink:href="#R" y="372.693"/><use x="164.946175" xlink:href="#al" y="372.693"/><use x="177.362215" xlink:href="#am" y="372.693"/><use x="191.648562" xlink:href="#af" y="372.693"/><use x="178.6112" xlink:href="#az" y="318.9903"/><path d="m2373.828125 6839.503125h4.921875v324.140625h-4.921875zm0 0" style="fill:none;stroke-width:3.98555;stroke-linecap:round;stroke-linejoin:round;stroke:#000;stroke-miterlimit:10" transform="matrix(.1 0 0 -.1 0 1032.38)"/><path d="m237.382812 348.429688h.492188v-32.414063h-.492188zm0 0"/><use x="225.154" xlink:href="#aE" y="313.76"/><path d="m1331.679688 7104.151562h4.921874v341.5625h-4.921874zm0 0" style="fill:none;stroke-width:3.98555;stroke-linecap:round;stroke-linejoin:round;stroke:#000;stroke-miterlimit:10" transform="matrix(.1 0 0 -.1 0 1032.38)"/><path d="m133.164062 321.964844h.496094v-34.15625h-.496094zm0 0"/><use x="113.423" xlink:href="#an" y="372.693"/><use x="126.349196" xlink:href="#ao" y="372.693"/><use x="120.19956" xlink:href="#az" y="324.2207"/><g clip-path="url(#p)"><path d="m3.4375 5721.690625h5945.898438" style="fill:none;stroke-width:6.86227;stroke-linecap:round;stroke-linejoin:round;stroke:#000;stroke-miterlimit:10" transform="matrix(.1 0 0 -.1 0 1032.38)"/></g><g clip-path="url(#q)"><path d="m3.4375 5826.3h5945.898438" style="fill:none;stroke-width:6.86227;stroke-linecap:round;stroke-linejoin:round;stroke:#000;stroke-miterlimit:10" transform="matrix(.1 0 0 -.1 0 1032.38)"/></g><g clip-path="url(#r)"><path d="m3.4375 5930.909375h5945.898438" style="fill:none;stroke-width:6.86227;stroke-linecap:round;stroke-linejoin:round;stroke:#000;stroke-miterlimit:10" transform="matrix(.1 0 0 -.1 0 1032.38)"/></g><g clip-path="url(#s)"><path d="m3.4375 6035.51875h5945.898438" style="fill:none;stroke-width:6.86227;stroke-linecap:round;stroke-linejoin:round;stroke:#000;stroke-miterlimit:10" transform="matrix(.1 0 0 -.1 0 1032.38)"/></g><g clip-path="url(#t)"><path d="m3.4375 6140.128125h5945.898438" style="fill:none;stroke-width:6.86227;stroke-linecap:round;stroke-linejoin:round;stroke:#000;stroke-miterlimit:10" transform="matrix(.1 0 0 -.1 0 1032.38)"/></g><path d="m3539.375 5617.08125h171.757812" style="fill:none;stroke-width:17.323;stroke-linecap:round;stroke-linejoin:round;stroke:#000;stroke-miterlimit:10" transform="matrix(.1 0 0 -.1 0 1032.38)"/><path d="m4432.578125 5699.464062h4.921875v334.0625h-4.921875zm0 0" fill="none" stroke="#000" stroke-linejoin="round" stroke-miterlimit="10" stroke-width="3.98555" transform="matrix(.1 0 0 -.1 0 1032.38)"/><path d="m443.257812 462.433594h.492188v-33.40625h-.492188zm0 0"/><use x="411.773" xlink:href="#af" y="505.201"/><use x="426.059347" xlink:href="#V" y="505.201"/><use x="440.345694" xlink:href="#X" y="505.201"/><use x="454.63165" xlink:href="#ap" y="505.201"/><use x="429.598" xlink:href="#aA" y="465.4416"/><use x="280.207672" xlink:href="#az" y="465.4416"/><use x="339.7347" xlink:href="#aB" y="470.67207"/><path d="m3678.710938 5639.659375h4.921874v341.5625h-4.921874zm0 0" fill="none" stroke="#000" stroke-linejoin="round" stroke-miterlimit="10" stroke-width="3.98555" transform="matrix(.1 0 0 -.1 0 1032.38)"/><path d="m367.871094 468.414062h.492187v-34.15625h-.492187zm0 0"/><use x="336.645" xlink:href="#U" y="505.201"/><use x="358.24581" xlink:href="#V" y="505.201"/><use x="372.531766" xlink:href="#Y" y="505.201"/><use x="354.9024" xlink:href="#az" y="470.6721"/><path d="m2931.757812 5691.964062h4.921876v341.5625h-4.921876zm0 0" fill="none" stroke="#000" stroke-linejoin="round" stroke-miterlimit="10" stroke-width="3.98555" transform="matrix(.1 0 0 -.1 0 1032.38)"/><path d="m293.175781 463.183594h.492188v-34.15625h-.492188zm0 0"/><use x="269.86" xlink:href="#Y" y="505.201"/><use x="284.146347" xlink:href="#V" y="505.201"/><use x="298.432694" xlink:href="#T" y="505.201"/><path d="m1686.289062 5342.510937h63.554688v3.4375h-63.554688zm0 0" fill="none" stroke="#000" stroke-linejoin="round" stroke-miterlimit="10" stroke-width="5.49191" transform="matrix(.1 0 0 -.1 0 1032.38)"/><path d="m168.628906 498.128906h6.351563v-.34375h-6.351563zm0 0"/><path d="m2477.890625 5342.510937h63.554687v3.4375h-63.554687zm0 0" fill="none" stroke="#000" stroke-linejoin="round" stroke-miterlimit="10" stroke-width="5.49191" transform="matrix(.1 0 0 -.1 0 1032.38)"/><path d="m247.785156 498.128906h6.355469v-.34375h-6.355469zm0 0"/><path d="m3172.539062 5342.510937h63.515626v3.4375h-63.515626zm0 0" fill="none" stroke="#000" stroke-linejoin="round" stroke-miterlimit="10" stroke-width="5.49191" transform="matrix(.1 0 0 -.1 0 1032.38)"/><path d="m317.253906 498.128906h6.351563v-.34375h-6.351563zm0 0"/><path d="m3961.171875 5342.510937h63.554687v3.4375h-63.554687zm0 0" fill="none" stroke="#000" stroke-linejoin="round" stroke-miterlimit="10" stroke-width="5.49191" transform="matrix(.1 0 0 -.1 0 1032.38)"/><path d="m396.117188 498.128906h6.355468v-.34375h-6.355468zm0 0"/><use x="511.767" xlink:href="#aD" y="439.289"/><use x="49.09" xlink:href="#ah" y="505.2003"/><use x="62.525958" xlink:href="#V" y="505.2003"/><use x="8.3685" xlink:href="#aC" y="449.7499"/><use x="56.1216" xlink:href="#az" y="454.98037"/><path d="m1437.851562 5744.26875h4.921876v341.5625h-4.921876zm0 0" fill="none" stroke="#000" stroke-linejoin="round" stroke-miterlimit="10" stroke-width="3.98555" transform="matrix(.1 0 0 -.1 0 1032.38)"/><path d="m143.785156 457.953125h.492188v-34.15625h-.492188zm0 0"/><path d="m2184.804688 5691.964062h4.921874v341.5625h-4.921874zm0 0" fill="none" stroke="#000" stroke-linejoin="round" stroke-miterlimit="10" stroke-width="3.98555" transform="matrix(.1 0 0 -.1 0 1032.38)"/><path d="m218.480469 463.183594h.492187v-34.15625h-.492187zm0 0"/><use x="192.613" xlink:href="#R" y="505.201"/><use x="205.539184" xlink:href="#ab" y="505.201"/><use x="217.784507" xlink:href="#V" y="505.201"/><use x="205.5122" xlink:href="#az" y="465.4416"/><path d="m690.898438 5796.573437h4.921874v341.5625h-4.921874zm0 0" fill="none" stroke="#000" stroke-linejoin="round" stroke-miterlimit="10" stroke-width="3.98555" transform="matrix(.1 0 0 -.1 0 1032.38)"/><path d="m69.089844 452.722656h.492187v-34.15625h-.492187zm0 0"/><use x="124.296" xlink:href="#aq" y="505.201"/><use x="136.711647" xlink:href="#V" y="505.201"/><use x="130.81709" xlink:href="#az" y="460.2115"/><g clip-path="url(#u)"><path d="m3.4375 4466.417187h5945.898438" style="fill:none;stroke-width:6.86227;stroke-linecap:round;stroke-linejoin:round;stroke:#000;stroke-miterlimit:10" transform="matrix(.1 0 0 -.1 0 1032.38)"/></g><g clip-path="url(#v)"><path d="m3.4375 4570.9875h5945.898438" style="fill:none;stroke-width:6.86227;stroke-linecap:round;stroke-linejoin:round;stroke:#000;stroke-miterlimit:10" transform="matrix(.1 0 0 -.1 0 1032.38)"/></g><g clip-path="url(#w)"><path d="m3.4375 4675.596875h5945.898438" style="fill:none;stroke-width:6.86227;stroke-linecap:round;stroke-linejoin:round;stroke:#000;stroke-miterlimit:10" transform="matrix(.1 0 0 -.1 0 1032.38)"/></g><g clip-path="url(#x)"><path d="m3.4375 4780.20625h5945.898438" style="fill:none;stroke-width:6.86227;stroke-linecap:round;stroke-linejoin:round;stroke:#000;stroke-miterlimit:10" transform="matrix(.1 0 0 -.1 0 1032.38)"/></g><g clip-path="url(#y)"><path d="m3.4375 4884.815625h5945.898438" style="fill:none;stroke-width:6.86227;stroke-linecap:round;stroke-linejoin:round;stroke:#000;stroke-miterlimit:10" transform="matrix(.1 0 0 -.1 0 1032.38)"/></g><path d="m4950.898438 4653.370312h4.921874v334.0625h-4.921874zm0 0" style="fill:none;stroke-width:3.98555;stroke-linecap:round;stroke-linejoin:round;stroke:#000;stroke-miterlimit:10" transform="matrix(.1 0 0 -.1 0 1032.38)"/><path d="m495.089844 567.042969h.492187v-33.40625h-.492187zm0 0"/><use x="467.176" xlink:href="#U" y="623.751"/><use x="488.776444" xlink:href="#V" y="623.751"/><use x="502.893259" xlink:href="#Z" y="623.751"/><use x="481.4287" xlink:href="#aA" y="570.0487"/><path d="m4253.75 4328.917187h4.921875v316.640625h-4.921875zm0 0" style="fill:none;stroke-width:3.98555;stroke-linecap:round;stroke-linejoin:round;stroke:#000;stroke-miterlimit:10" transform="matrix(.1 0 0 -.1 0 1032.38)"/><path d="m425.375 599.488281h.492188v-31.660156h-.492188zm0 0"/><use x="415.173" xlink:href="#Y" y="623.751"/><use x="429.459347" xlink:href="#V" y="623.751"/><use x="443.745694" xlink:href="#T" y="623.751"/><use x="425.1746" xlink:href="#aA" y="564.8182"/><path d="m3740.039062 4363.760937h4.921876v341.601563h-4.921876zm0 0" style="fill:none;stroke-width:3.98555;stroke-linecap:round;stroke-linejoin:round;stroke:#000;stroke-miterlimit:10" transform="matrix(.1 0 0 -.1 0 1032.38)"/><path d="m374.003906 596.003906h.492188v-34.15625h-.492188zm0 0"/><use x="366.348" xlink:href="#P" y="623.751"/><use x="380.634347" xlink:href="#V" y="623.751"/><use x="373.80464" xlink:href="#az" y="559.5881"/><path d="m3344.921875 4645.870312h4.960937v341.5625h-4.960937zm0 0" style="fill:none;stroke-width:3.98555;stroke-linecap:round;stroke-linejoin:round;stroke:#000;stroke-miterlimit:10" transform="matrix(.1 0 0 -.1 0 1032.38)"/><path d="m334.492188 567.792969h.496093v-34.15625h-.496093zm0 0"/><use x="314.75" xlink:href="#R" y="623.751"/><use x="327.676575" xlink:href="#V" y="623.751"/><use x="321.52656" xlink:href="#az" y="570.0487"/><path d="m940 4157.003125h63.554688v3.4375h-63.554688zm0 0" style="fill:none;stroke-width:5.49191;stroke-linecap:round;stroke-linejoin:round;stroke:#000;stroke-miterlimit:10" transform="matrix(.1 0 0 -.1 0 1032.38)"/><path d="m94 616.679688h6.355469v-.34375h-6.355469zm0 0"/><path d="m1947.34375 4157.003125h63.554688v3.4375h-63.554688zm0 0" style="fill:none;stroke-width:5.49191;stroke-linecap:round;stroke-linejoin:round;stroke:#000;stroke-miterlimit:10" transform="matrix(.1 0 0 -.1 0 1032.38)"/><path d="m194.734375 616.679688h6.351563v-.34375h-6.351563zm0 0"/><path d="m2449.453125 4157.003125h63.554687v3.4375h-63.554687zm0 0" style="fill:none;stroke-width:5.49191;stroke-linecap:round;stroke-linejoin:round;stroke:#000;stroke-miterlimit:10" transform="matrix(.1 0 0 -.1 0 1032.38)"/><path d="m244.945312 616.679688h6.351563v-.34375h-6.351563zm0 0"/><path d="m3509.765625 4157.003125h63.554687v3.4375h-63.554687zm0 0" style="fill:none;stroke-width:5.49191;stroke-linecap:round;stroke-linejoin:round;stroke:#000;stroke-miterlimit:10" transform="matrix(.1 0 0 -.1 0 1032.38)"/><path d="m350.976562 616.679688h6.355469v-.34375h-6.355469zm0 0"/><path d="m4018.710938 4157.003125h63.554687v3.4375h-63.554687zm0 0" style="fill:none;stroke-width:5.49191;stroke-linecap:round;stroke-linejoin:round;stroke:#000;stroke-miterlimit:10" transform="matrix(.1 0 0 -.1 0 1032.38)"/><path d="m401.867188 616.679688h6.355468v-.34375h-6.355468zm0 0"/><path d="m4551.757812 4157.003125h63.515626v3.4375h-63.515626zm0 0" style="fill:none;stroke-width:5.49191;stroke-linecap:round;stroke-linejoin:round;stroke:#000;stroke-miterlimit:10" transform="matrix(.1 0 0 -.1 0 1032.38)"/><path d="m455.175781 616.679688h6.351563v-.34375h-6.351563zm0 0"/><use x="537.683" xlink:href="#aD" y="564.819"/><use x="115.896" xlink:href="#az" y="570.04947"/><path d="m697.8125 4444.151562h4.921875v334.0625h-4.921875zm0 0" style="fill:none;stroke-width:3.98555;stroke-linecap:round;stroke-linejoin:round;stroke:#000;stroke-miterlimit:10" transform="matrix(.1 0 0 -.1 0 1032.38)"/><path d="m69.78125 587.964844h.492188v-33.40625h-.492188zm0 0"/><use x="37.7863" xlink:href="#ar" y="623.751"/><use x="54.454686" xlink:href="#as" y="623.751"/><use x="68.741039" xlink:href="#T" y="623.751"/><use x="74.523469" xlink:href="#Y" y="623.751"/><use x="56.1218" xlink:href="#aA" y="590.9701"/><use x="256.4908" xlink:href="#al" y="623.751"/><use x="268.906437" xlink:href="#V" y="623.751"/><use x="283.192784" xlink:href="#Y" y="623.751"/><use x="8.3688" xlink:href="#aC" y="575.2791"/><path d="m2831.210938 4593.565625h4.960937v341.5625h-4.960937zm0 0" style="fill:none;stroke-width:3.98555;stroke-linecap:round;stroke-linejoin:round;stroke:#000;stroke-miterlimit:10" transform="matrix(.1 0 0 -.1 0 1032.38)"/><path d="m283.121094 573.023438h.496094v-34.15625h-.496094zm0 0"/><use x="270.156" xlink:href="#az" y="575.28"/><path d="m2316.054688 4593.565625h4.921874v341.5625h-4.921874zm0 0" style="fill:none;stroke-width:3.98555;stroke-linecap:round;stroke-linejoin:round;stroke:#000;stroke-miterlimit:10" transform="matrix(.1 0 0 -.1 0 1032.38)"/><path d="m231.605469 573.023438h.492187v-34.15625h-.492187zm0 0"/><use x="211.181" xlink:href="#X" y="623.751"/><use x="225.467347" xlink:href="#ac" y="623.751"/><use x="218.63764" xlink:href="#az" y="575.2791"/><use x="105.54764" xlink:href="#at" y="623.751"/><use x="111.330077" xlink:href="#au" y="623.751"/><use x="125.616424" xlink:href="#X" y="623.751"/><path d="m1802.34375 4645.870312h4.921875v341.5625h-4.921875zm0 0" style="fill:none;stroke-width:3.98555;stroke-linecap:round;stroke-linejoin:round;stroke:#000;stroke-miterlimit:10" transform="matrix(.1 0 0 -.1 0 1032.38)"/><path d="m180.234375 567.792969h.492187v-34.15625h-.492187zm0 0"/><use x="163.552" xlink:href="#Z" y="623.751"/><use x="170.354742" xlink:href="#V" y="623.751"/><use x="167.26684" xlink:href="#az" y="570.0487"/><path d="m1288.632812 4645.870312h4.921876v341.5625h-4.921876zm0 0" style="fill:none;stroke-width:3.98555;stroke-linecap:round;stroke-linejoin:round;stroke:#000;stroke-miterlimit:10" transform="matrix(.1 0 0 -.1 0 1032.38)"/><path d="m128.863281 567.792969h.492188v-34.15625h-.492188zm0 0"/><g clip-path="url(#z)"><path d="m3.4375 3211.104687h5945.898438" style="fill:none;stroke-width:6.86227;stroke-linecap:round;stroke-linejoin:round;stroke:#000;stroke-miterlimit:10" transform="matrix(.1 0 0 -.1 0 1032.38)"/></g><g clip-path="url(#A)"><path d="m3.4375 3315.714062h5945.898438" style="fill:none;stroke-width:6.86227;stroke-linecap:round;stroke-linejoin:round;stroke:#000;stroke-miterlimit:10" transform="matrix(.1 0 0 -.1 0 1032.38)"/></g><g clip-path="url(#B)"><path d="m3.4375 3420.323437h5945.898438" style="fill:none;stroke-width:6.86227;stroke-linecap:round;stroke-linejoin:round;stroke:#000;stroke-miterlimit:10" transform="matrix(.1 0 0 -.1 0 1032.38)"/></g><g clip-path="url(#C)"><path d="m3.4375 3524.932812h5945.898438" style="fill:none;stroke-width:6.86227;stroke-linecap:round;stroke-linejoin:round;stroke:#000;stroke-miterlimit:10" transform="matrix(.1 0 0 -.1 0 1032.38)"/></g><g clip-path="url(#D)"><path d="m3.4375 3629.542187h5945.898438" style="fill:none;stroke-width:6.86227;stroke-linecap:round;stroke-linejoin:round;stroke:#000;stroke-miterlimit:10" transform="matrix(.1 0 0 -.1 0 1032.38)"/></g><use x="382.751" xlink:href="#aA" y="700.809"/><path d="m4668.046875 3293.4875h4.960937v334.0625h-4.960937zm0 0" style="fill:none;stroke-width:3.98555;stroke-linecap:round;stroke-linejoin:round;stroke:#000;stroke-miterlimit:10" transform="matrix(.1 0 0 -.1 0 1032.38)"/><path d="m466.804688 703.03125h.492187v-33.40625h-.492187zm0 0"/><use x="439.829" xlink:href="#af" y="751.115"/><use x="454.115347" xlink:href="#am" y="751.115"/><use x="468.401303" xlink:href="#T" y="751.115"/><use x="473.673596" xlink:href="#ag" y="751.115"/><use x="453.1466" xlink:href="#aA" y="706.0396"/><path d="m2675.234375 3338.292187h4.921875v341.5625h-4.921875zm0 0" style="fill:none;stroke-width:3.98555;stroke-linecap:round;stroke-linejoin:round;stroke:#000;stroke-miterlimit:10" transform="matrix(.1 0 0 -.1 0 1032.38)"/><path d="m267.519531 698.550781h.496094v-34.15625h-.496094zm0 0"/><path d="m3964.101562 3345.753125h4.960938v334.101562h-4.960938zm0 0" style="fill:none;stroke-width:3.98555;stroke-linecap:round;stroke-linejoin:round;stroke:#000;stroke-miterlimit:10" transform="matrix(.1 0 0 -.1 0 1032.38)"/><path d="m396.410156 697.804688h.496094v-33.40625h-.496094zm0 0"/><use x="376.321" xlink:href="#ab" y="751.115"/><use x="389.247184" xlink:href="#ao" y="751.115"/><path d="m3316.210938 3285.9875h4.921874v341.5625h-4.921874zm0 0" style="fill:none;stroke-width:3.98555;stroke-linecap:round;stroke-linejoin:round;stroke:#000;stroke-miterlimit:10" transform="matrix(.1 0 0 -.1 0 1032.38)"/><path d="m331.621094 703.78125h.492187v-34.15625h-.492187zm0 0"/><use x="311.196" xlink:href="#S" y="751.115"/><use x="325.482347" xlink:href="#ao" y="751.115"/><use x="318.65264" xlink:href="#az" y="706.0396"/><path d="m3548.671875 2883.409375h63.554687v3.398437h-63.554687zm0 0" style="fill:none;stroke-width:5.49191;stroke-linecap:round;stroke-linejoin:round;stroke:#000;stroke-miterlimit:10" transform="matrix(.1 0 0 -.1 0 1032.38)"/><path d="m354.867188 744.039062h6.355468v-.339843h-6.355468zm0 0"/><path d="m4185.039062 2883.409375h63.554688v3.398437h-63.554688zm0 0" style="fill:none;stroke-width:5.49191;stroke-linecap:round;stroke-linejoin:round;stroke:#000;stroke-miterlimit:10" transform="matrix(.1 0 0 -.1 0 1032.38)"/><path d="m418.503906 744.039062h6.355469v-.339843h-6.355469zm0 0"/><use x="523.542" xlink:href="#aD" y="690.348"/><use x="8.369" xlink:href="#aC" y="700.8089"/><path d="m563.203125 3108.4875h4.921875v334.0625h-4.921875zm0 0" style="fill:none;stroke-width:3.98555;stroke-linecap:round;stroke-linejoin:round;stroke:#000;stroke-miterlimit:10" transform="matrix(.1 0 0 -.1 0 1032.38)"/><path d="m56.320312 721.53125h.492188v-33.40625h-.492188zm0 0"/><use x="230.94" xlink:href="#R" y="751.115"/><use x="243.866575" xlink:href="#ab" y="751.115"/><use x="256.111898" xlink:href="#V" y="751.115"/><use x="270.398245" xlink:href="#X" y="751.115"/><use x="284.684592" xlink:href="#Z" y="751.115"/><use x="56.122" xlink:href="#aA" y="685.1181"/><use x="47.99114" xlink:href="#aa" y="751.115"/><use x="65.679057" xlink:href="#ab" y="751.115"/><use x="254.55514" xlink:href="#az" y="700.8091"/><path d="m2034.21875 3390.596875h4.960938v341.5625h-4.960938zm0 0" style="fill:none;stroke-width:3.98555;stroke-linecap:round;stroke-linejoin:round;stroke:#000;stroke-miterlimit:10" transform="matrix(.1 0 0 -.1 0 1032.38)"/><path d="m203.421875 693.320312h.496094v-34.15625h-.496094zm0 0"/><use x="190.143" xlink:href="#av" y="751.115"/><use x="190.455891" xlink:href="#az" y="695.5787"/><path d="m1267.148438 3073.604687h4.960937v324.140625h-4.960937zm0 0" style="fill:none;stroke-width:3.98555;stroke-linecap:round;stroke-linejoin:round;stroke:#000;stroke-miterlimit:10" transform="matrix(.1 0 0 -.1 0 1032.38)"/><path d="m126.714844 725.019531h.496094v-32.414062h-.496094zm0 0"/><use x="119.741" xlink:href="#ad" y="751.115"/><use x="138.279699" xlink:href="#ae" y="751.115"/><use x="126.51756" xlink:href="#az" y="690.3482"/><g clip-path="url(#E)"><path d="m3.4375 1955.792187h5945.898438" style="fill:none;stroke-width:6.86227;stroke-linecap:round;stroke-linejoin:round;stroke:#000;stroke-miterlimit:10" transform="matrix(.1 0 0 -.1 0 1032.38)"/></g><g clip-path="url(#F)"><path d="m3.4375 2060.401562h5945.898438" style="fill:none;stroke-width:6.86227;stroke-linecap:round;stroke-linejoin:round;stroke:#000;stroke-miterlimit:10" transform="matrix(.1 0 0 -.1 0 1032.38)"/></g><g clip-path="url(#G)"><path d="m3.4375 2165.010937h5945.898438" style="fill:none;stroke-width:6.86227;stroke-linecap:round;stroke-linejoin:round;stroke:#000;stroke-miterlimit:10" transform="matrix(.1 0 0 -.1 0 1032.38)"/></g><g clip-path="url(#H)"><path d="m3.4375 2269.620312h5945.898438" style="fill:none;stroke-width:6.86227;stroke-linecap:round;stroke-linejoin:round;stroke:#000;stroke-miterlimit:10" transform="matrix(.1 0 0 -.1 0 1032.38)"/></g><g clip-path="url(#I)"><path d="m3.4375 2374.229687h5945.898438" style="fill:none;stroke-width:6.86227;stroke-linecap:round;stroke-linejoin:round;stroke:#000;stroke-miterlimit:10" transform="matrix(.1 0 0 -.1 0 1032.38)"/></g><path d="m4958.710938 1985.870312h4.921874v334.0625h-4.921874zm0 0" style="fill:none;stroke-width:3.98555;stroke-linecap:round;stroke-linejoin:round;stroke:#000;stroke-miterlimit:10" transform="matrix(.1 0 0 -.1 0 1032.38)"/><path d="m495.871094 833.792969h.492187v-33.40625h-.492187zm0 0"/><use x="464.555" xlink:href="#U" y="873.412"/><use x="486.155444" xlink:href="#ac" y="873.412"/><use x="500.272259" xlink:href="#Z" y="873.412"/><use x="507.075027" xlink:href="#ag" y="873.412"/><use x="482.2105" xlink:href="#aA" y="836.7991"/><path d="m4310.859375 2038.175h4.921875v334.0625h-4.921875zm0 0" style="fill:none;stroke-width:3.98555;stroke-linecap:round;stroke-linejoin:round;stroke:#000;stroke-miterlimit:10" transform="matrix(.1 0 0 -.1 0 1032.38)"/><path d="m431.085938 828.5625h.492187v-33.40625h-.492187zm0 0"/><use x="401.386" xlink:href="#P" y="873.412"/><use x="415.502815" xlink:href="#aj" y="873.412"/><use x="427.748138" xlink:href="#V" y="873.412"/><use x="442.034095" xlink:href="#T" y="873.412"/><use x="417.4255" xlink:href="#aA" y="831.569"/><path d="m3774.335938 2082.979687h4.960937v341.5625h-4.960937zm0 0" style="fill:none;stroke-width:3.98555;stroke-linecap:round;stroke-linejoin:round;stroke:#000;stroke-miterlimit:10" transform="matrix(.1 0 0 -.1 0 1032.38)"/><path d="m377.433594 824.082031h.496094v-34.15625h-.496094zm0 0"/><use x="357.947" xlink:href="#al" y="873.412"/><use x="370.362637" xlink:href="#V" y="873.412"/><use x="364.46809" xlink:href="#az" y="826.3386"/><path d="m3264.140625 2135.284375h4.960937v341.5625h-4.960937zm0 0" style="fill:none;stroke-width:3.98555;stroke-linecap:round;stroke-linejoin:round;stroke:#000;stroke-miterlimit:10" transform="matrix(.1 0 0 -.1 0 1032.38)"/><path d="m326.414062 818.851562h.496094v-34.15625h-.496094zm0 0"/><use x="306.672" xlink:href="#R" y="873.412"/><use x="319.598184" xlink:href="#Q" y="873.412"/><use x="313.44856" xlink:href="#az" y="821.1081"/><path d="m878.476562 1660.401562h63.554688v3.4375h-63.554688zm0 0" style="fill:none;stroke-width:5.49191;stroke-linecap:round;stroke-linejoin:round;stroke:#000;stroke-miterlimit:10" transform="matrix(.1 0 0 -.1 0 1032.38)"/><path d="m87.847656 866.339844h6.355469v-.34375h-6.355469zm0 0"/><path d="m1370.429688 1660.401562h63.554687v3.4375h-63.554687zm0 0" style="fill:none;stroke-width:5.49191;stroke-linecap:round;stroke-linejoin:round;stroke:#000;stroke-miterlimit:10" transform="matrix(.1 0 0 -.1 0 1032.38)"/><path d="m137.042969 866.339844h6.355469v-.34375h-6.355469zm0 0"/><path d="m2409.101562 1660.401562h63.554688v3.4375h-63.554688zm0 0" style="fill:none;stroke-width:5.49191;stroke-linecap:round;stroke-linejoin:round;stroke:#000;stroke-miterlimit:10" transform="matrix(.1 0 0 -.1 0 1032.38)"/><path d="m240.910156 866.339844h6.355469v-.34375h-6.355469zm0 0"/><path d="m2919.296875 1660.401562h63.554687v3.4375h-63.554687zm0 0" style="fill:none;stroke-width:5.49191;stroke-linecap:round;stroke-linejoin:round;stroke:#000;stroke-miterlimit:10" transform="matrix(.1 0 0 -.1 0 1032.38)"/><path d="m291.929688 866.339844h6.355468v-.34375h-6.355468zm0 0"/><path d="m3898.398438 1660.401562h63.554687v3.4375h-63.554687zm0 0" style="fill:none;stroke-width:5.49191;stroke-linecap:round;stroke-linejoin:round;stroke:#000;stroke-miterlimit:10" transform="matrix(.1 0 0 -.1 0 1032.38)"/><path d="m389.839844 866.339844h6.355468v-.34375h-6.355468zm0 0"/><path d="m4530.078125 1660.401562h63.554687v3.4375h-63.554687zm0 0" style="fill:none;stroke-width:5.49191;stroke-linecap:round;stroke-linejoin:round;stroke:#000;stroke-miterlimit:10" transform="matrix(.1 0 0 -.1 0 1032.38)"/><path d="m453.007812 866.339844h6.355469v-.34375h-6.355469zm0 0"/><use x="538.074" xlink:href="#aD" y="815.877"/><use x="109.371" xlink:href="#az" y="842.029"/><path d="m697.8125 2038.175h4.921875v334.0625h-4.921875zm0 0" style="fill:none;stroke-width:3.98555;stroke-linecap:round;stroke-linejoin:round;stroke:#000;stroke-miterlimit:10" transform="matrix(.1 0 0 -.1 0 1032.38)"/><path d="m69.78125 828.5625h.492188v-33.40625h-.492188zm0 0"/><use x="49.4367" xlink:href="#ah" y="873.412"/><use x="62.872268" xlink:href="#V" y="873.412"/><use x="56.12186" xlink:href="#aA" y="831.569"/><use x="254.97186" xlink:href="#Y" y="873.412"/><use x="269.258207" xlink:href="#ai" y="873.412"/><use x="276.401967" xlink:href="#Z" y="873.412"/><use x="8.36886" xlink:href="#aC" y="826.3386"/><path d="m2753.945312 2082.979687h4.960938v341.5625h-4.960938zm0 0" style="fill:none;stroke-width:3.98555;stroke-linecap:round;stroke-linejoin:round;stroke:#000;stroke-miterlimit:10" transform="matrix(.1 0 0 -.1 0 1032.38)"/><path d="m275.394531 824.082031h.492188v-34.15625h-.492188zm0 0"/><use x="262.429" xlink:href="#az" y="826.338"/><path d="m2243.75 2030.675h4.960938v341.5625h-4.960938zm0 0" style="fill:none;stroke-width:3.98555;stroke-linecap:round;stroke-linejoin:round;stroke:#000;stroke-miterlimit:10" transform="matrix(.1 0 0 -.1 0 1032.38)"/><path d="m224.375 829.3125h.496094v-34.15625h-.496094zm0 0"/><use x="203.273" xlink:href="#aw" y="873.412"/><use x="210.246056" xlink:href="#W" y="873.412"/><use x="224.532403" xlink:href="#ae" y="873.412"/><use x="211.40933" xlink:href="#az" y="831.569"/><use x="104.89033" xlink:href="#ae" y="873.412"/><use x="113.22433" xlink:href="#V" y="873.412"/><path d="m1733.554688 1978.409375h4.960937v341.5625h-4.960937zm0 0" style="fill:none;stroke-width:3.98555;stroke-linecap:round;stroke-linejoin:round;stroke:#000;stroke-miterlimit:10" transform="matrix(.1 0 0 -.1 0 1032.38)"/><path d="m173.355469 834.542969h.496093v-34.15625h-.496093zm0 0"/><use x="152.933" xlink:href="#ao" y="873.412"/><use x="167.219347" xlink:href="#Y" y="873.412"/><use x="160.38964" xlink:href="#az" y="836.7991"/><path d="m1223.398438 1926.065625h4.921874v341.5625h-4.921874zm0 0" style="fill:none;stroke-width:3.98555;stroke-linecap:round;stroke-linejoin:round;stroke:#000;stroke-miterlimit:10" transform="matrix(.1 0 0 -.1 0 1032.38)"/><path d="m122.339844 839.773438h.492187v-34.15625h-.492187zm0 0"/><g clip-path="url(#J)"><path d="m3.4375 700.51875h5945.898438" style="fill:none;stroke-width:6.86227;stroke-linecap:round;stroke-linejoin:round;stroke:#000;stroke-miterlimit:10" transform="matrix(.1 0 0 -.1 0 1032.38)"/></g><g clip-path="url(#K)"><path d="m3.4375 805.128125h5945.898438" style="fill:none;stroke-width:6.86227;stroke-linecap:round;stroke-linejoin:round;stroke:#000;stroke-miterlimit:10" transform="matrix(.1 0 0 -.1 0 1032.38)"/></g><g clip-path="url(#L)"><path d="m3.4375 909.7375h5945.898438" style="fill:none;stroke-width:6.86227;stroke-linecap:round;stroke-linejoin:round;stroke:#000;stroke-miterlimit:10" transform="matrix(.1 0 0 -.1 0 1032.38)"/></g><g clip-path="url(#M)"><path d="m3.4375 1014.346875h5945.898438" style="fill:none;stroke-width:6.86227;stroke-linecap:round;stroke-linejoin:round;stroke:#000;stroke-miterlimit:10" transform="matrix(.1 0 0 -.1 0 1032.38)"/></g><g clip-path="url(#N)"><path d="m3.4375 1118.95625h5945.898438" style="fill:none;stroke-width:6.86227;stroke-linecap:round;stroke-linejoin:round;stroke:#000;stroke-miterlimit:10" transform="matrix(.1 0 0 -.1 0 1032.38)"/></g><g clip-path="url(#O)"><path d="m5932.1875 700.51875v418.4375" fill="none" stroke="#000" stroke-linejoin="round" stroke-miterlimit="10" stroke-width="41.1631" transform="matrix(.1 0 0 -.1 0 1032.38)"/></g><path d="m5884.492188 700.51875v418.4375" fill="none" stroke="#000" stroke-linejoin="round" stroke-miterlimit="10" stroke-width="13.0341" transform="matrix(.1 0 0 -.1 0 1032.38)"/><use x="496.803" xlink:href="#aF" y="967.5585"/><use x="276.462" xlink:href="#az" y="951.8675"/><path d="m4323.007812 730.596875h4.921876v334.0625h-4.921876zm0 0" fill="none" stroke="#000" stroke-linejoin="round" stroke-miterlimit="10" stroke-width="3.98555" transform="matrix(.1 0 0 -.1 0 1032.38)"/><path d="m432.300781 959.320312h.492188v-33.40625h-.492188zm0 0"/><use x="411.53" xlink:href="#W" y="999.0456"/><use x="425.815956" xlink:href="#X" y="999.0456"/><use x="418.64016" xlink:href="#aA" y="962.328"/><path d="m3605.195312 775.401562h4.921876v341.5625h-4.921876zm0 0" fill="none" stroke="#000" stroke-linejoin="round" stroke-miterlimit="10" stroke-width="3.98555" transform="matrix(.1 0 0 -.1 0 1032.38)"/><path d="m360.519531 954.839844h.492188v-34.15625h-.492188zm0 0"/><use x="342.901" xlink:href="#ax" y="999.0456"/><use x="360.078376" xlink:href="#ay" y="999.0456"/><use x="347.55178" xlink:href="#az" y="957.0979"/><path d="m2894.296875 827.70625h4.921875v341.5625h-4.921875zm0 0" fill="none" stroke="#000" stroke-linejoin="round" stroke-miterlimit="10" stroke-width="3.98555" transform="matrix(.1 0 0 -.1 0 1032.38)"/><path d="m289.429688 949.609375h.492187v-34.15625h-.492187zm0 0"/><use x="276.15" xlink:href="#Q" y="999.0456"/><path d="m996.640625 404.073437h63.554687v3.4375h-63.554687zm0 0" fill="none" stroke="#000" stroke-linejoin="round" stroke-miterlimit="10" stroke-width="5.49191" transform="matrix(.1 0 0 -.1 0 1032.38)"/><path d="m99.664062 991.972656h6.355469v-.34375h-6.355469zm0 0"/><path d="m3855.195312 404.073437h63.515626v3.4375h-63.515626zm0 0" fill="none" stroke="#000" stroke-linejoin="round" stroke-miterlimit="10" stroke-width="5.49191" transform="matrix(.1 0 0 -.1 0 1032.38)"/><path d="m385.519531 991.972656h6.351563v-.34375h-6.351563zm0 0"/><path d="m4601.015625 404.073437h63.554687v3.4375h-63.554687zm0 0" fill="none" stroke="#000" stroke-linejoin="round" stroke-miterlimit="10" stroke-width="5.49191" transform="matrix(.1 0 0 -.1 0 1032.38)"/><path d="m460.101562 991.972656h6.355469v-.34375h-6.355469zm0 0"/><use x="486.455" xlink:href="#af" y="999.0456"/><use x="500.741347" xlink:href="#am" y="999.0456"/><use x="515.027694" xlink:href="#T" y="999.0456"/><use x="520.810534" xlink:href="#ap" y="999.0456"/><use x="8.369" xlink:href="#aC" y="951.8675"/><path d="m697.8125 782.901562h4.921875v334.0625h-4.921875zm0 0" fill="none" stroke="#000" stroke-linejoin="round" stroke-miterlimit="10" stroke-width="3.98555" transform="matrix(.1 0 0 -.1 0 1032.38)"/><path d="m69.78125 954.089844h.492188v-33.40625h-.492188zm0 0"/><use x="56.1219" xlink:href="#aA" y="957.098"/><use x="41.2731" xlink:href="#ah" y="999.0457"/><use x="54.539527" xlink:href="#Q" y="999.0457"/><use x="68.82588" xlink:href="#ae" y="999.0457"/><use x="78.179804" xlink:href="#Z" y="999.0457"/><path d="m2183.398438 880.010937h4.921874v341.5625h-4.921874zm0 0" fill="none" stroke="#000" stroke-linejoin="round" stroke-miterlimit="10" stroke-width="3.98555" transform="matrix(.1 0 0 -.1 0 1032.38)"/><path d="m218.339844 944.378906h.492187v-34.15625h-.492187zm0 0"/><use x="187.032" xlink:href="#U" y="999.0456"/><use x="208.632419" xlink:href="#V" y="999.0456"/><use x="223.089079" xlink:href="#P" y="999.0456"/><use x="205.3738" xlink:href="#az" y="946.637"/><path d="m1472.539062 827.70625h4.921876v341.5625h-4.921876zm0 0" fill="none" stroke="#000" stroke-linejoin="round" stroke-miterlimit="10" stroke-width="3.98555" transform="matrix(.1 0 0 -.1 0 1032.38)"/><path d="m147.253906 949.609375h.492188v-34.15625h-.492188zm0 0"/><use x="120.365" xlink:href="#R" y="999.0456"/><use x="133.291196" xlink:href="#W" y="999.0456"/><use x="147.577543" xlink:href="#X" y="999.0456"/><use x="134.2849" xlink:href="#az" y="951.8675"/></svg>