<svg height="935.69em" viewBox="0 0 595.28 935.69" width="595.28em" xmlns="http://www.w3.org/2000/svg" xmlns:xlink="http://www.w3.org/1999/xlink"><clipPath id="a"><path d="m0 75h595.28125v2h-595.28125zm0 0"/></clipPath><clipPath id="b"><path d="m0 65h595.28125v2h-595.28125zm0 0"/></clipPath><clipPath id="c"><path d="m0 56h595.28125v2h-595.28125zm0 0"/></clipPath><clipPath id="d"><path d="m0 46h595.28125v2h-595.28125zm0 0"/></clipPath><clipPath id="e"><path d="m0 37h595.28125v2h-595.28125zm0 0"/></clipPath><clipPath id="f"><path d="m0 188h595.28125v2h-595.28125zm0 0"/></clipPath><clipPath id="g"><path d="m0 179h595.28125v2h-595.28125zm0 0"/></clipPath><clipPath id="h"><path d="m0 170h595.28125v1h-595.28125zm0 0"/></clipPath><clipPath id="i"><path d="m0 160h595.28125v2h-595.28125zm0 0"/></clipPath><clipPath id="j"><path d="m0 151h595.28125v1h-595.28125zm0 0"/></clipPath><clipPath id="k"><path d="m0 302h595.28125v2h-595.28125zm0 0"/></clipPath><clipPath id="l"><path d="m0 293h595.28125v1h-595.28125zm0 0"/></clipPath><clipPath id="m"><path d="m0 283h595.28125v2h-595.28125zm0 0"/></clipPath><clipPath id="n"><path d="m0 274h595.28125v1h-595.28125zm0 0"/></clipPath><clipPath id="o"><path d="m0 264h595.28125v2h-595.28125zm0 0"/></clipPath><clipPath id="p"><path d="m0 416h595.28125v1h-595.28125zm0 0"/></clipPath><clipPath id="q"><path d="m0 406h595.28125v2h-595.28125zm0 0"/></clipPath><clipPath id="r"><path d="m0 397h595.28125v1h-595.28125zm0 0"/></clipPath><clipPath id="s"><path d="m0 387h595.28125v2h-595.28125zm0 0"/></clipPath><clipPath id="t"><path d="m0 378h595.28125v1h-595.28125zm0 0"/></clipPath><clipPath id="u"><path d="m0 529h595.28125v2h-595.28125zm0 0"/></clipPath><clipPath id="v"><path d="m0 520h595.28125v1h-595.28125zm0 0"/></clipPath><clipPath id="w"><path d="m0 510h595.28125v2h-595.28125zm0 0"/></clipPath><clipPath id="x"><path d="m0 501h595.28125v1h-595.28125zm0 0"/></clipPath><clipPath id="y"><path d="m0 491h595.28125v2h-595.28125zm0 0"/></clipPath><clipPath id="z"><path d="m0 643h595.28125v1h-595.28125zm0 0"/></clipPath><clipPath id="A"><path d="m0 633h595.28125v2h-595.28125zm0 0"/></clipPath><clipPath id="B"><path d="m0 624h595.28125v1h-595.28125zm0 0"/></clipPath><clipPath id="C"><path d="m0 614h595.28125v2h-595.28125zm0 0"/></clipPath><clipPath id="D"><path d="m0 605h595.28125v2h-595.28125zm0 0"/></clipPath><clipPath id="E"><path d="m0 756h595.28125v2h-595.28125zm0 0"/></clipPath><clipPath id="F"><path d="m0 747h595.28125v1h-595.28125zm0 0"/></clipPath><clipPath id="G"><path d="m0 737h595.28125v2h-595.28125zm0 0"/></clipPath><clipPath id="H"><path d="m0 728h595.28125v2h-595.28125zm0 0"/></clipPath><clipPath id="I"><path d="m0 718h595.28125v2h-595.28125zm0 0"/></clipPath><clipPath id="J"><path d="m0 870h595.28125v2h-595.28125zm0 0"/></clipPath><clipPath id="K"><path d="m0 860h595.28125v2h-595.28125zm0 0"/></clipPath><clipPath id="L"><path d="m0 851h595.28125v2h-595.28125zm0 0"/></clipPath><clipPath id="M"><path d="m0 841h595.28125v2h-595.28125zm0 0"/></clipPath><clipPath id="N"><path d="m0 832h595.28125v2h-595.28125zm0 0"/></clipPath><clipPath id="O"><path d="m591 830h4.28125v43h-4.28125zm0 0"/></clipPath><symbol id="P" overflow="visible"><path d="m8.40625-5.109375c-1.59375 0-3.109375.53125-4.46875 1.359375-1.78125 1.0625-3.9375 2.921875-3.9375 5.609375 0 2.234375 1.96875 3.25 3.96875 3.25 1.59375 0 3.109375-.53125 4.46875-1.359375 1.78125-1.0625 3.90625-2.921875 3.90625-5.609375 0-2.234375-1.9375-3.25-3.9375-3.25zm0 0"/></symbol><symbol id="Q" overflow="visible"><path d="m11.96875-2.53125c0 .375-.125.796875-.390625 1.09375-.78125.953125-2.609375 2.125-4.046875 3.03125s-3.25 2.109375-4.421875 2.453125c-.15625.046875-.34375.078125-.5.078125-.828125 0-1.59375-.640625-1.59375-1.59375 0-.375.125-.796875.390625-1.09375.796875-.953125 2.609375-2.125 4.046875-3.03125s3.25-2.109375 4.421875-2.453125c.15625-.046875.34375-.078125.5-.078125.828125 0 1.59375.640625 1.59375 1.59375zm-1.9375-2.578125c-2.84375 0-5.140625.609375-7.15625 1.96875-1.203125.828125-2 2.125-2.453125 3.515625-.234375.6875-.421875 1.4375-.421875 2.15625 0 1.78125 1.28125 2.578125 2.953125 2.578125 2.84375 0 5.15625-.609375 7.15625-1.96875 1.203125-.828125 2-2.125 2.453125-3.515625.234375-.6875.421875-1.4375.421875-2.15625 0-1.78125-1.28125-2.578125-2.953125-2.578125zm0 0"/></symbol><symbol id="R" overflow="visible"><path d="m13.890625 0c.15625 0 .3125-.15625.3125-.296875v-5.3125c0-.140625-.15625-.296875-.3125-.296875h-13.59375c-.140625 0-.296875.15625-.296875.296875v5.3125c0 .140625.15625.296875.296875.296875zm0 0"/></symbol><symbol id="S" overflow="visible"><path d="m.953125-1.671875c.03125-1.25.859375-2.34375 2.03125-2.34375 1.140625 0 1.671875 1.328125 1.671875 2.609375 0 2.234375-1.890625 3.828125-3.640625 5.265625-.0625-.828125-.140625-1.65625-.140625-2.5 0-.140625.03125-.265625.03125-.40625zm-1.90625-15.859375.421875 22.6875c0 .453125.34375.78125.796875.78125.6875 0 .984375-.78125 1.515625-1.203125 2.390625-1.9375 5.796875-3.296875 5.796875-6.40625 0-2.03125-1.515625-3.78125-3.53125-3.78125-1.203125 0-2.34375.421875-3.328125 1.140625l.234375-13.21875c-.3125-.15625-.609375-.265625-.953125-.265625s-.640625.109375-.953125.265625zm0 0"/></symbol><symbol id="T" overflow="visible"><path d="m14.15625-9.84375c-.609375-2.65625-1.328125-5.265625-2.078125-7.875 3.640625-4.125 6.921875-8.359375 6.921875-13.8125 0-4.28125-2.34375-10.421875-4.984375-13.59375-.203125-.15625-.421875-.15625-.609375 0-3.59375 2.609375-5.6875 6.765625-5.6875 11.171875 0 1.96875.046875 3.890625.265625 5.828125.265625 2.453125.90625 4.84375 1.59375 7.234375-4.46875 5.0625-9.5 9.90625-9.5 16.65625 0 7.609375 5.484375 14.078125 12.609375 14.078125 1.171875 0 2.265625-.109375 3.359375-.296875.125 1.203125.1875 2.421875.1875 3.625 0 .6875-.03125 1.328125-.0625 2.015625-.234375 3.75-2.546875 7.1875-6.0625 7.265625-.03125 0-.078125.03125-.109375.03125-1.9375 0-3.609375-1.09375-4.59375-2.640625.421875.1875.875.328125 1.328125.328125 1.96875 0 3.59375-1.625 3.59375-3.59375 0-2.109375-1.546875-3.9375-3.59375-3.9375-2.234375 0-4.234375 1.75-4.234375 3.9375 0 4.09375 3.296875 7.390625 7.375 7.390625 4.46875 0 7.546875-4.015625 7.8125-8.5625.03125-.71875.03125-1.390625.03125-2.125 0-1.359375-.078125-2.71875-.1875-4.078125.984375-.3125 1.921875-.765625 2.765625-1.40625 2.796875-2.078125 4.046875-5 4.046875-7.875 0-5-3.78125-9.796875-9.609375-9.796875-.203125 0-.390625.03125-.578125.03125zm3.21875 17.609375c-.53125-4.703125-1.390625-9.171875-2.34375-13.59375 4.15625.34375 6.78125 3.828125 6.78125 7.296875 0 2.65625-1.828125 5.390625-4.4375 6.296875zm-14.6875-8.9375c0-6.0625 4.09375-10.640625 8.171875-15.21875.609375 2.234375 1.21875 4.46875 1.75 6.734375-3.828125.875-5.984375 4.09375-5.984375 7.421875 0 2.65625 1.359375 5.34375 4.390625 6.96875.109375.03125.234375.078125.34375.078125.421875 0 .75-.390625.75-.796875 0-.1875-.109375-.375-.265625-.53125-2.109375-1.21875-3.09375-3.03125-3.09375-4.703125 0-2.21875 1.734375-4.234375 4.734375-4.578125.984375 4.546875 1.84375 9.046875 2.421875 13.90625-1.03125.140625-2.046875.21875-3.109375.21875-5.15625 0-10.109375-4.359375-10.109375-9.5zm12.875-38.578125c.640625 2 .796875 2.984375.796875 5.1875 0 4.8125-2.546875 8.625-5.640625 12.296875-.6875-2.375-1.25-4.6875-1.25-7.5625 0-4.203125 2.34375-8.03125 6.09375-9.921875zm0 0"/></symbol><symbol id="U" overflow="visible"><path d="m8.140625-4.3125c2.984375 0 5.21875 2.3125 5.21875 5.296875 0 1.734375-.75 3.328125-2.640625 3.328125-3 0-5.265625-2.3125-5.265625-5.296875 0-1.734375.796875-3.328125 2.6875-3.328125zm10.671875 4.3125c0-1.625-1.328125-2.796875-2.765625-3.59375-2.03125-1.09375-4.3125-1.515625-6.625-1.515625-2.296875 0-4.609375.421875-6.65625 1.515625-1.4375.796875-2.765625 1.96875-2.765625 3.59375s1.328125 2.796875 2.765625 3.59375c2.046875 1.09375 4.359375 1.515625 6.65625 1.515625 2.3125 0 4.59375-.421875 6.625-1.515625 1.4375-.796875 2.765625-1.96875 2.765625-3.59375zm0 0"/></symbol><symbol id="V" overflow="visible"><path d="m1.640625-12.25v12.25h1.953125v-6.75c0-2.5 1.3125-4.140625 3.328125-4.140625 1.546875 0 2.515625.9375 2.515625 2.40625v8.484375h1.953125v-9.25c0-2.046875-1.53125-3.34375-3.890625-3.34375-1.8125 0-2.984375.703125-4.0625 2.40625v-2.0625zm0 0"/></symbol><symbol id="W" overflow="visible"><path d="m12.5-1.140625c-.203125.046875-.296875.046875-.421875.046875-.671875 0-1.046875-.359375-1.046875-.96875v-7.1875c0-2.1875-1.59375-3.34375-4.609375-3.34375-1.796875 0-3.21875.515625-4.0625 1.421875-.5625.625-.796875 1.328125-.84375 2.546875h1.96875c.15625-1.5 1.046875-2.171875 2.875-2.171875 1.78125 0 2.734375.65625 2.734375 1.828125v.5c-.03125.84375-.4375 1.15625-2.03125 1.359375-2.765625.359375-3.1875.453125-3.9375.75-1.421875.609375-2.140625 1.6875-2.140625 3.28125 0 2.21875 1.546875 3.609375 4.015625 3.609375 1.546875 0 2.78125-.53125 4.15625-1.796875.140625 1.265625.75 1.796875 2.015625 1.796875.421875 0 .671875-.046875 1.328125-.203125zm-3.40625-2.71875c0 .65625-.1875 1.046875-.765625 1.59375-.796875.71875-1.765625 1.09375-2.90625 1.09375-1.515625 0-2.40625-.71875-2.40625-1.953125 0-1.296875.84375-1.953125 2.9375-2.25 2.09375-.28125 2.484375-.375 3.140625-.671875zm0 0"/></symbol><symbol id="X" overflow="visible"><path d="m3.296875-17.046875h-1.9375v17.046875h1.9375v-4.765625l1.890625-1.875 4.140625 6.640625h2.40625l-5-8.015625 4.25-4.234375h-2.5l-5.1875 5.1875zm0 0"/></symbol><symbol id="Y" overflow="visible"><path d="m2.03125-2.4375v2.4375h1.40625v.421875c0 1.609375-.3125 2.078125-1.40625 2.125v.890625c1.546875.046875 2.453125-1.078125 2.453125-3.0625v-2.8125zm0 0"/></symbol><symbol id="Z" overflow="visible"><path d="m12.875-17.046875.03125 11.96875c0 2.296875-1.65625 3.703125-4.375 3.703125-2.703125 0-4.375-1.40625-4.375-3.703125v-11.96875h-2.171875v11.96875c0 3.421875 2.578125 5.609375 6.546875 5.609375s6.546875-2.21875 6.546875-5.609375l-.03125-11.96875zm-3.828125-4.90625-2.25 3.46875h1.40625l3.484375-3.46875zm0 0"/></symbol><symbol id="aa" overflow="visible"><path d="m1.609375-12.25v12.25h1.96875v-6.359375c.015625-2.9375 1.234375-4.25 3.921875-4.1875v-1.984375c-.328125-.046875-.515625-.0625-.75-.0625-1.25 0-2.21875.75-3.34375 2.5625v-2.21875zm0 0"/></symbol><symbol id="ab" overflow="visible"><path d="m10.359375-12.25h-9.140625v1.703125h6.828125l-7.328125 8.796875v1.75h9.96875v-1.703125h-7.609375l7.28125-8.8125zm0 0"/></symbol><symbol id="ac" overflow="visible"><path d="m5.9375-12.25h-2.015625v-3.359375h-1.9375v3.359375h-1.65625v1.59375h1.65625v9.25c0 1.265625.84375 1.9375 2.359375 1.9375.515625 0 .9375-.046875 1.59375-.15625v-1.640625c-.28125.078125-.53125.09375-.9375.09375-.84375 0-1.078125-.234375-1.078125-1.09375v-8.390625h2.015625zm0 0"/></symbol><symbol id="ad" overflow="visible"><path d="m3.546875-17.046875h-1.953125v17.046875h1.953125zm0 0"/></symbol><symbol id="ae" overflow="visible"><path d="m12.5-1.140625c-.203125.046875-.296875.046875-.421875.046875-.671875 0-1.046875-.359375-1.046875-.96875v-7.1875c0-2.1875-1.59375-3.34375-4.609375-3.34375-1.796875 0-3.21875.515625-4.0625 1.421875-.5625.625-.796875 1.328125-.84375 2.546875h1.96875c.15625-1.5 1.046875-2.171875 2.875-2.171875 1.78125 0 2.734375.65625 2.734375 1.828125v.5c-.03125.84375-.4375 1.15625-2.03125 1.359375-2.765625.359375-3.1875.453125-3.9375.75-1.421875.609375-2.140625 1.6875-2.140625 3.28125 0 2.21875 1.546875 3.609375 4.015625 3.609375 1.546875 0 2.78125-.53125 4.15625-1.796875.140625 1.265625.75 1.796875 2.015625 1.796875.421875 0 .671875-.046875 1.328125-.203125zm-3.40625-2.71875c0 .65625-.1875 1.046875-.765625 1.59375-.796875.71875-1.765625 1.09375-2.90625 1.09375-1.515625 0-2.40625-.71875-2.40625-1.953125 0-1.296875.84375-1.953125 2.9375-2.25 2.09375-.28125 2.484375-.375 3.140625-.671875zm-1.984375-13.4375-2.265625 3.453125h1.390625l3.484375-3.453125zm0 0"/></symbol><symbol id="af" overflow="visible"><path d="m11.078125-5.125 1.75 5.125h2.4375l-5.984375-17.046875h-2.8125l-6.078125 17.046875h2.328125l1.796875-5.125zm-.609375-1.8125h-5.421875l2.8125-7.765625zm0 0"/></symbol><symbol id="ag" overflow="visible"><path d="m11.578125-17.046875h-1.953125v6.34375c-.8125-1.234375-2.125-1.890625-3.765625-1.890625-3.171875 0-5.25 2.546875-5.25 6.453125 0 4.125 2.015625 6.671875 5.328125 6.671875 1.6875 0 2.84375-.625 3.90625-2.140625v1.609375h1.734375zm-5.390625 6.265625c2.109375 0 3.4375 1.859375 3.4375 4.796875 0 2.828125-1.34375 4.703125-3.40625 4.703125-2.15625 0-3.578125-1.890625-3.578125-4.75 0-2.84375 1.421875-4.75 3.546875-4.75zm0 0"/></symbol><symbol id="ah" overflow="visible"><path d="m1.640625-17.046875v17.046875h1.9375v-6.75c0-2.5 1.3125-4.140625 3.3125-4.140625.65625 0 1.265625.1875 1.734375.53125.5625.421875.796875 1.015625.796875 1.875v8.484375h1.9375v-9.25c0-2.0625-1.46875-3.34375-3.859375-3.34375-1.71875 0-2.78125.53125-3.921875 2.03125v-6.484375zm0 0"/></symbol><symbol id="ai" overflow="visible"><path d="m6.359375-12.59375c-3.453125 0-5.515625 2.453125-5.515625 6.5625 0 4.140625 2.0625 6.5625 5.53125 6.5625s5.546875-2.453125 5.546875-6.46875c0-4.25-2.015625-6.65625-5.5625-6.65625zm.015625 1.796875c2.203125 0 3.515625 1.796875 3.515625 4.84375 0 2.890625-1.359375 4.6875-3.515625 4.6875-2.171875 0-3.5-1.796875-3.5-4.765625s1.328125-4.765625 3.5-4.765625zm0 0"/></symbol><symbol id="aj" overflow="visible"><path d="m1.640625-12.25v14.03125c0 1.203125-.375 1.609375-1.59375 1.609375-.140625 0-.203125 0-.46875-.03125v1.671875c.234375.046875.359375.0625.65625.0625 2.203125 0 3.34375-.859375 3.34375-2.546875v-14.796875zm1.9375-4.796875h-1.9375v2.453125h1.9375zm0 0"/></symbol><symbol id="ak" overflow="visible"><path d="m9.4375-12.25v1.78125c-.96875-1.46875-2.046875-2.125-3.59375-2.125-2.96875 0-5.03125 2.75-5.03125 6.6875 0 2.046875.5 3.546875 1.546875 4.78125.90625 1.078125 2.078125 1.65625 3.34375 1.65625 1.46875 0 2.53125-.640625 3.546875-2.1875v.625c0 3.28125-.90625 4.484375-3.34375 4.484375-1.65625 0-2.515625-.640625-2.703125-2.046875h-1.984375c.1875 2.265625 1.984375 3.6875 4.640625 3.6875 1.8125 0 3.296875-.578125 4.09375-1.5625.9375-1.140625 1.296875-2.671875 1.296875-5.546875v-10.234375zm-3.40625 1.453125c2.0625 0 3.21875 1.734375 3.21875 4.84375 0 2.96875-1.1875 4.6875-3.21875 4.6875-2.015625 0-3.171875-1.75-3.171875-4.765625 0-2.984375 1.15625-4.765625 3.171875-4.765625zm0 0"/></symbol><symbol id="al" overflow="visible"><path d="m11.984375-5.46875c0-1.875-.140625-3-.484375-3.90625-.796875-2.015625-2.671875-3.21875-4.953125-3.21875-3.421875 0-5.609375 2.59375-5.609375 6.640625 0 4.03125 2.09375 6.484375 5.5625 6.484375 2.796875 0 4.75-1.578125 5.234375-4.25h-1.96875c-.53125 1.609375-1.625 2.453125-3.203125 2.453125-1.234375 0-2.28125-.5625-2.9375-1.59375-.46875-.6875-.640625-1.390625-.65625-2.609375zm-8.96875-1.59375c.15625-2.265625 1.546875-3.734375 3.5-3.734375 2 0 3.375 1.546875 3.375 3.734375zm0 0"/></symbol><symbol id="am" overflow="visible"><path d="m10.234375-8.828125c-.015625-2.421875-1.609375-3.765625-4.4375-3.765625-2.859375 0-4.703125 1.46875-4.703125 3.734375 0 1.921875.984375 2.828125 3.890625 3.53125l1.8125.4375c1.359375.328125 1.90625.828125 1.90625 1.6875 0 1.171875-1.15625 1.9375-2.859375 1.9375-1.046875 0-1.9375-.296875-2.4375-.8125-.296875-.359375-.4375-.703125-.546875-1.5625h-2.0625c.09375 2.828125 1.6875 4.171875 4.890625 4.171875 3.078125 0 5.046875-1.515625 5.046875-3.875 0-1.828125-1.03125-2.828125-3.46875-3.40625l-1.859375-.453125c-1.59375-.375-2.28125-.890625-2.28125-1.75 0-1.140625 1.015625-1.84375 2.609375-1.84375 1.5625 0 2.40625.671875 2.453125 1.96875zm0 0"/></symbol><symbol id="an" overflow="visible"><path d="m11.984375-5.46875c0-1.875-.140625-3-.484375-3.90625-.796875-2.015625-2.671875-3.21875-4.953125-3.21875-3.421875 0-5.609375 2.59375-5.609375 6.640625 0 4.03125 2.09375 6.484375 5.5625 6.484375 2.796875 0 4.75-1.578125 5.234375-4.25h-1.96875c-.53125 1.609375-1.625 2.453125-3.203125 2.453125-1.234375 0-2.28125-.5625-2.9375-1.59375-.46875-.6875-.640625-1.390625-.65625-2.609375zm-8.96875-1.59375c.15625-2.265625 1.546875-3.734375 3.5-3.734375 2 0 3.375 1.546875 3.375 3.734375zm4.1875-10.234375-2.25 3.453125h1.40625l3.484375-3.453125zm0 0"/></symbol><symbol id="ao" overflow="visible"><path d="m9.0625-12.25-3.375 9.53125-3.140625-9.53125h-2.078125l4.140625 12.296875-.75 1.9375c-.328125.875-.75 1.1875-1.5625 1.1875-.328125 0-.609375-.046875-1.03125-.140625v1.765625c.390625.203125.796875.296875 1.3125.296875.625 0 1.296875-.203125 1.8125-.578125.609375-.453125.96875-.96875 1.34375-1.9375l5.4375-14.828125zm0 0"/></symbol><symbol id="ap" overflow="visible"><path d="m10.9375 0 4.796875-14.28125v14.28125h2.046875v-17.046875h-3.015625l-4.953125 14.84375-5.046875-14.84375h-3.015625v17.046875h2.0625v-14.28125l4.84375 14.28125zm0 0"/></symbol><symbol id="aq" overflow="visible"><path d="m6.359375-12.59375c-3.453125 0-5.515625 2.453125-5.515625 6.5625 0 4.140625 2.0625 6.5625 5.53125 6.5625s5.546875-2.453125 5.546875-6.46875c0-4.25-2.015625-6.65625-5.5625-6.65625zm.015625 1.796875c2.203125 0 3.515625 1.796875 3.515625 4.84375 0 2.890625-1.359375 4.6875-3.515625 4.6875-2.171875 0-3.5-1.796875-3.5-4.765625s1.328125-4.765625 3.5-4.765625zm-.765625-6.5-2.265625 3.5h1.40625l3.484375-3.5zm4.0625 0-2.265625 3.5h1.40625l3.484375-3.5zm0 0"/></symbol><symbol id="ar" overflow="visible"><path d="m1.640625-12.25v12.25h1.953125v-7.6875c0-1.78125 1.296875-3.203125 2.875-3.203125 1.453125 0 2.28125.890625 2.28125 2.453125v8.4375h1.953125v-7.6875c0-1.78125 1.28125-3.203125 2.875-3.203125 1.421875 0 2.265625.90625 2.265625 2.453125v8.4375h1.96875v-9.1875c0-2.203125-1.265625-3.40625-3.546875-3.40625-1.640625 0-2.625.484375-3.765625 1.859375-.734375-1.296875-1.71875-1.859375-3.296875-1.859375-1.640625 0-2.734375.609375-3.765625 2.078125v-1.734375zm0 0"/></symbol><symbol id="as" overflow="visible"><path d="m3.5-12.25h-1.9375v12.25h1.9375zm0-4.796875h-1.953125v2.453125h1.953125zm0 0"/></symbol><symbol id="at" overflow="visible"><path d="m4.28125-7.765625h9.28125v-1.90625h-9.28125v-5.453125h9.625v-1.921875h-11.796875v17.046875h12.21875v-1.921875h-10.046875zm4.296875-14.1875-2.265625 3.46875h1.40625l3.484375-3.46875zm0 0"/></symbol><symbol id="au" overflow="visible"><path d="m6.65625 0 4.703125-12.25h-2.203125l-3.453125 9.9375-3.265625-9.9375h-2.203125l4.296875 12.25zm0 0"/></symbol><symbol id="av" overflow="visible"><path d="m4.859375-17.046875h-1.9375v7.90625l.515625 5.21875h.90625l.515625-5.21875zm0 14.609375h-1.953125v2.4375h1.953125zm0 0"/></symbol><symbol id="aw" overflow="visible"><path d="m6.359375-12.59375c-3.453125 0-5.515625 2.453125-5.515625 6.5625 0 4.140625 2.0625 6.5625 5.53125 6.5625s5.546875-2.453125 5.546875-6.46875c0-4.25-2.015625-6.65625-5.5625-6.65625zm.015625 1.796875c2.203125 0 3.515625 1.796875 3.515625 4.84375 0 2.890625-1.359375 4.6875-3.515625 4.6875-2.171875 0-3.5-1.796875-3.5-4.765625s1.328125-4.765625 3.5-4.765625zm-.671875-5.921875h-2.4375v2.40625h2.4375zm3.78125 0h-2.421875v2.40625h2.421875zm0 0"/></symbol><symbol id="ax" overflow="visible"><path d="m4.53125-17.046875h-2.1875v17.046875h2.1875zm0 0"/></symbol><symbol id="ay" overflow="visible"><path d="m1.265625-17.046875v17.046875h1.75v-1.5625c.9375 1.421875 2.171875 2.09375 3.875 2.09375 3.234375 0 5.328125-2.640625 5.328125-6.703125 0-3.96875-1.984375-6.421875-5.234375-6.421875-1.671875 0-2.875.625-3.78125 2v-6.453125zm5.34375 6.265625c2.171875 0 3.578125 1.90625 3.578125 4.828125 0 2.78125-1.4375 4.671875-3.578125 4.671875-2.078125 0-3.40625-1.875-3.40625-4.75s1.328125-4.75 3.40625-4.75zm0 0"/></symbol><symbol id="az" overflow="visible"><path d="m5.03125-12.25h-2.4375v2.4375h2.4375zm-2.453125 9.8125v2.4375h1.390625v.421875c0 1.609375-.296875 2.078125-1.390625 2.125v.890625c1.53125.046875 2.453125-1.078125 2.453125-3.0625v-2.8125zm0 0"/></symbol><symbol id="aA" overflow="visible"><path d="m12.875-7.765625v7.765625h2.171875v-17.046875h-2.171875v7.375h-8.765625v-7.375h-2.171875v17.046875h2.171875v-7.765625zm0 0"/></symbol><symbol id="aB" overflow="visible"><path d="m6.359375-12.59375c-3.453125 0-5.515625 2.453125-5.515625 6.5625 0 4.140625 2.0625 6.5625 5.53125 6.5625s5.546875-2.453125 5.546875-6.46875c0-4.25-2.015625-6.65625-5.5625-6.65625zm.015625 1.796875c2.203125 0 3.515625 1.796875 3.515625 4.84375 0 2.890625-1.359375 4.6875-3.515625 4.6875-2.171875 0-3.5-1.796875-3.5-4.765625s1.328125-4.765625 3.5-4.765625zm.59375-6.5-2.25 3.453125h1.40625l3.484375-3.453125zm0 0"/></symbol><symbol id="aC" overflow="visible"><path d="m4.953125-10.1875v10.1875h2.921875v-14.765625h-1.9375c-.453125 1.75-1.984375 2.640625-4.515625 2.640625v1.9375zm0 0"/></symbol><symbol id="aD" overflow="visible"><path d="m4.453125-3.046875h-3.125v3.046875h3.125zm0 0"/></symbol><symbol id="aE" overflow="visible"><path d="m8.453125-1.796875c0 .265625-.078125.5625-.265625.78125-.5625.671875-1.84375 1.5-2.859375 2.140625s-2.296875 1.5-3.140625 1.734375c-.09375.03125-.234375.0625-.34375.0625-.578125 0-1.125-.453125-1.125-1.125 0-.265625.078125-.5625.265625-.78125.5625-.671875 1.859375-1.5 2.875-2.140625s2.296875-1.5 3.125-1.734375c.109375-.03125.25-.0625.34375-.0625.59375 0 1.125.453125 1.125 1.125zm-1.359375-1.8125c-2.015625 0-3.640625.421875-5.0625 1.390625-.859375.59375-1.421875 1.5-1.734375 2.484375-.15625.484375-.296875 1.015625-.296875 1.53125 0 1.25.90625 1.8125 2.09375 1.8125 2 0 3.640625-.421875 5.046875-1.390625.859375-.59375 1.421875-1.5 1.75-2.484375.15625-.484375.296875-1.015625.296875-1.53125 0-1.25-.921875-1.8125-2.09375-1.8125zm0 0"/></symbol><path d="m1732.96875 8505.415625h169.375" fill="none" stroke="#000" stroke-linecap="round" stroke-miterlimit="10" stroke-width="15.9856" transform="matrix(.1 0 0 -.1 0 935.69)"/><g clip-path="url(#a)"><path d="m3.242188 8600.064063h5946.25" fill="none" stroke="#000" stroke-linecap="round" stroke-miterlimit="10" stroke-width="6.52105" transform="matrix(.1 0 0 -.1 0 935.69)"/></g><g clip-path="url(#b)"><path d="m3.242188 8694.7125h5946.25" fill="none" stroke="#000" stroke-linecap="round" stroke-miterlimit="10" stroke-width="6.52105" transform="matrix(.1 0 0 -.1 0 935.69)"/></g><g clip-path="url(#c)"><path d="m3.242188 8789.360938h5946.25" fill="none" stroke="#000" stroke-linecap="round" stroke-miterlimit="10" stroke-width="6.52105" transform="matrix(.1 0 0 -.1 0 935.69)"/></g><g clip-path="url(#d)"><path d="m3.242188 8884.009375h5946.25" fill="none" stroke="#000" stroke-linecap="round" stroke-miterlimit="10" stroke-width="6.52105" transform="matrix(.1 0 0 -.1 0 935.69)"/></g><g clip-path="url(#e)"><path d="m3.242188 8978.657813h5946.25" fill="none" stroke="#000" stroke-linecap="round" stroke-miterlimit="10" stroke-width="6.52105" transform="matrix(.1 0 0 -.1 0 935.69)"/></g><use x="379.21" xlink:href="#P" y="56.754"/><use x="468.7557" xlink:href="#V" y="112.0181"/><use x="481.681098" xlink:href="#W" y="112.0181"/><use x="494.606887" xlink:href="#X" y="112.0181"/><use x="506.172526" xlink:href="#Y" y="112.0181"/><use x="484.2034" xlink:href="#Q" y="66.2185"/><path d="m4416.09375 8769.439063h4.492188v301.875h-4.492188zm0 0" style="fill:none;stroke-width:3.98456;stroke-linecap:round;stroke-linejoin:round;stroke:#000;stroke-miterlimit:10" transform="matrix(.1 0 0 -.1 0 935.69)"/><path d="m441.609375 58.746094h.449219v-30.183594h-.449219zm0 0"/><use x="423.434" xlink:href="#Z" y="112.019"/><use x="440.271523" xlink:href="#aa" y="112.019"/><use x="429.27189" xlink:href="#Q" y="61.487"/><path d="m3794.101562 8475.845313h4.492188v292.890625h-4.492188zm0 0" style="fill:none;stroke-width:3.98456;stroke-linecap:round;stroke-linejoin:round;stroke:#000;stroke-miterlimit:10" transform="matrix(.1 0 0 -.1 0 935.69)"/><path d="m379.410156 88.105469h.449219v-29.289063h-.449219zm0 0"/><use x="372.888" xlink:href="#W" y="112.019"/><use x="386.154415" xlink:href="#ab" y="112.019"/><path d="m3399.921875 8715.3375h4.492187v308.632813h-4.492187zm0 0" style="fill:none;stroke-width:3.98456;stroke-linecap:round;stroke-linejoin:round;stroke:#000;stroke-miterlimit:10" transform="matrix(.1 0 0 -.1 0 935.69)"/><path d="m339.992188 64.15625h.445312v-30.863281h-.445312zm0 0"/><use x="319.068" xlink:href="#X" y="112.019"/><use x="330.633639" xlink:href="#W" y="112.019"/><use x="343.389896" xlink:href="#ac" y="112.019"/><use x="328.2805" xlink:href="#P" y="66.2194"/><use x="275.252" xlink:href="#ad" y="112.019"/><use x="280.524666" xlink:href="#ae" y="112.019"/><path d="m1052.1875 8300.845313h57.265625v3.242187h-57.265625zm0 0" style="fill:none;stroke-width:5.21494;stroke-linecap:round;stroke-linejoin:round;stroke:#000;stroke-miterlimit:10" transform="matrix(.1 0 0 -.1 0 935.69)"/><path d="m105.21875 105.605469h5.726562v-.324219h-5.726562zm0 0"/><path d="m1506.601562 8300.845313h57.226563v3.242187h-57.226563zm0 0" style="fill:none;stroke-width:5.21494;stroke-linecap:round;stroke-linejoin:round;stroke:#000;stroke-miterlimit:10" transform="matrix(.1 0 0 -.1 0 935.69)"/><path d="m150.660156 105.605469h5.722656v-.324219h-5.722656zm0 0"/><path d="m2583.476562 8300.845313h57.226563v3.242187h-57.226563zm0 0" style="fill:none;stroke-width:5.21494;stroke-linecap:round;stroke-linejoin:round;stroke:#000;stroke-miterlimit:10" transform="matrix(.1 0 0 -.1 0 935.69)"/><path d="m258.347656 105.605469h5.722656v-.324219h-5.722656zm0 0"/><path d="m3033.945312 8300.845313h57.265626v3.242187h-57.265626zm0 0" style="fill:none;stroke-width:5.21494;stroke-linecap:round;stroke-linejoin:round;stroke:#000;stroke-miterlimit:10" transform="matrix(.1 0 0 -.1 0 935.69)"/><path d="m303.394531 105.605469h5.726563v-.324219h-5.726563zm0 0"/><path d="m4555.625 8300.845313h57.265625v3.242187h-57.265625zm0 0" style="fill:none;stroke-width:5.21494;stroke-linecap:round;stroke-linejoin:round;stroke:#000;stroke-miterlimit:10" transform="matrix(.1 0 0 -.1 0 935.69)"/><path d="m455.5625 105.605469h5.726562v-.324219h-5.726562zm0 0"/><path d="m4965.390625 8722.095313h4.492187v301.875h-4.492187zm0 0" style="fill:none;stroke-width:3.98456;stroke-linecap:round;stroke-linejoin:round;stroke:#000;stroke-miterlimit:10" transform="matrix(.1 0 0 -.1 0 935.69)"/><path d="m496.539062 63.480469h.449219v-30.1875h-.449219zm0 0"/><use x="539.134" xlink:href="#R" y="56.754"/><path d="m2898.828125 8667.99375h4.492187v308.671875h-4.492187zm0 0" style="fill:none;stroke-width:3.98456;stroke-linecap:round;stroke-linejoin:round;stroke:#000;stroke-miterlimit:10" transform="matrix(.1 0 0 -.1 0 935.69)"/><path d="m289.882812 68.890625h.449219v-30.867187h-.449219zm0 0"/><use x="41.6789" xlink:href="#S" y="56.754"/><use x="278.1719" xlink:href="#P" y="70.9505"/><path d="m852.5 8674.790625h4.492188v301.875h-4.492188zm0 0" style="fill:none;stroke-width:3.98456;stroke-linecap:round;stroke-linejoin:round;stroke:#000;stroke-miterlimit:10" transform="matrix(.1 0 0 -.1 0 935.69)"/><path d="m85.25 68.210938h.449219v-30.1875h-.449219zm0 0"/><use x="38.391" xlink:href="#aC" y="112.019"/><use x="49.956643" xlink:href="#aD" y="112.019"/><use x="65.2039" xlink:href="#af" y="112.019"/><use x="80.681256" xlink:href="#ag" y="112.019"/><use x="7.5715" xlink:href="#T" y="66.2194"/><path d="m721.875 9081.001563h5.820312v179.921875h-5.820312zm0 0" style="fill:none;stroke-width:2.89614;stroke-linecap:round;stroke-linejoin:round;stroke:#000;stroke-miterlimit:10" transform="matrix(.1 0 0 -.1 0 935.69)"/><path d="m72.1875 27.589844h.578125v-17.992188h-.578125zm0 0"/><use x="63.7301" xlink:href="#aE" y="29.531"/><use x="72.91174" xlink:href="#Q" y="70.9505"/><path d="m2397.734375 8667.99375h4.492187v308.671875h-4.492187zm0 0" style="fill:none;stroke-width:3.98456;stroke-linecap:round;stroke-linejoin:round;stroke:#000;stroke-miterlimit:10" transform="matrix(.1 0 0 -.1 0 935.69)"/><path d="m239.773438 68.890625h.449218v-30.867187h-.449218zm0 0"/><use x="221.315" xlink:href="#ah" y="112.019"/><use x="234.240789" xlink:href="#ae" y="112.019"/><use x="228.06148" xlink:href="#P" y="70.9514"/><path d="m1872.96875 8526.040625h4.492188v308.671875h-4.492188zm0 0" style="fill:none;stroke-width:3.98456;stroke-linecap:round;stroke-linejoin:round;stroke:#000;stroke-miterlimit:10" transform="matrix(.1 0 0 -.1 0 935.69)"/><path d="m187.296875 83.085938h.449219v-30.867188h-.449219zm0 0"/><use x="166.289" xlink:href="#ac" y="112.019"/><use x="172.581972" xlink:href="#ai" y="112.019"/><use x="185.507371" xlink:href="#X" y="112.019"/><use x="175.58666" xlink:href="#P" y="85.1483"/><use x="125.47686" xlink:href="#P" y="80.41588"/><use x="122.55733" xlink:href="#aj" y="112.01898"/><use x="127.829984" xlink:href="#W" y="112.01898"/><path d="m1371.875 8573.345313h4.492188v308.671875h-4.492188zm0 0" style="fill:none;stroke-width:3.98456;stroke-linecap:round;stroke-linejoin:round;stroke:#000;stroke-miterlimit:10" transform="matrix(.1 0 0 -.1 0 935.69)"/><path d="m137.1875 78.355469h.449219v-30.867188h-.449219zm0 0"/><g clip-path="url(#f)"><path d="m3.242188 7464.321875h5946.25" style="fill:none;stroke-width:6.52105;stroke-linecap:round;stroke-linejoin:round;stroke:#000;stroke-miterlimit:10" transform="matrix(.1 0 0 -.1 0 935.69)"/></g><g clip-path="url(#g)"><path d="m3.242188 7558.970313h5946.25" style="fill:none;stroke-width:6.52105;stroke-linecap:round;stroke-linejoin:round;stroke:#000;stroke-miterlimit:10" transform="matrix(.1 0 0 -.1 0 935.69)"/></g><g clip-path="url(#h)"><path d="m3.242188 7653.61875h5946.25" style="fill:none;stroke-width:6.52105;stroke-linecap:round;stroke-linejoin:round;stroke:#000;stroke-miterlimit:10" transform="matrix(.1 0 0 -.1 0 935.69)"/></g><g clip-path="url(#i)"><path d="m3.242188 7748.267188h5946.25" style="fill:none;stroke-width:6.52105;stroke-linecap:round;stroke-linejoin:round;stroke:#000;stroke-miterlimit:10" transform="matrix(.1 0 0 -.1 0 935.69)"/></g><g clip-path="url(#j)"><path d="m3.242188 7842.915625h5946.25" style="fill:none;stroke-width:6.52105;stroke-linecap:round;stroke-linejoin:round;stroke:#000;stroke-miterlimit:10" transform="matrix(.1 0 0 -.1 0 935.69)"/></g><use x="299.291" xlink:href="#P" y="170.328"/><path d="m4863.398438 7539.048438h4.492187v301.875h-4.492187zm0 0" style="fill:none;stroke-width:3.98456;stroke-linecap:round;stroke-linejoin:round;stroke:#000;stroke-miterlimit:10" transform="matrix(.1 0 0 -.1 0 935.69)"/><path d="m486.339844 181.785156h.449218v-30.1875h-.449218zm0 0"/><use x="464.595" xlink:href="#ak" y="222.383"/><use x="477.520398" xlink:href="#al" y="222.383"/><use x="489.93603" xlink:href="#Y" y="222.383"/><use x="474.00438" xlink:href="#Q" y="184.5248"/><path d="m4263.125 7586.353125h4.492188v301.875h-4.492188zm0 0" style="fill:none;stroke-width:3.98456;stroke-linecap:round;stroke-linejoin:round;stroke:#000;stroke-miterlimit:10" transform="matrix(.1 0 0 -.1 0 935.69)"/><path d="m426.3125 177.054688h.449219v-30.1875h-.449219zm0 0"/><use x="408.221" xlink:href="#am" y="222.383"/><use x="419.786639" xlink:href="#an" y="222.383"/><use x="413.97334" xlink:href="#Q" y="179.7924"/><path d="m3662.8125 7633.696875h4.492188v301.835938h-4.492188zm0 0" style="fill:none;stroke-width:3.98456;stroke-linecap:round;stroke-linejoin:round;stroke:#000;stroke-miterlimit:10" transform="matrix(.1 0 0 -.1 0 935.69)"/><path d="m366.28125 172.320312h.449219v-30.183593h-.449219zm0 0"/><use x="336.2" xlink:href="#ak" y="222.383"/><use x="348.956258" xlink:href="#ao" y="222.383"/><use x="360.01213" xlink:href="#al" y="222.383"/><use x="372.937528" xlink:href="#am" y="222.383"/><use x="353.9434" xlink:href="#Q" y="175.0603"/><path d="m2994.921875 7340.142188h4.492187v292.851562h-4.492187zm0 0" style="fill:none;stroke-width:3.98456;stroke-linecap:round;stroke-linejoin:round;stroke:#000;stroke-miterlimit:10" transform="matrix(.1 0 0 -.1 0 935.69)"/><path d="m299.492188 201.679688h.445312v-29.289063h-.445312zm0 0"/><use x="293.396" xlink:href="#X" y="222.383"/><use x="304.620623" xlink:href="#al" y="222.383"/><path d="m3240.117188 7197.173438h57.226562v3.28125h-57.226562zm0 0" style="fill:none;stroke-width:5.21494;stroke-linecap:round;stroke-linejoin:round;stroke:#000;stroke-miterlimit:10" transform="matrix(.1 0 0 -.1 0 935.69)"/><path d="m324.011719 215.972656h5.722656v-.328125h-5.722656zm0 0"/><path d="m3935.859375 7197.173438h57.226563v3.28125h-57.226563zm0 0" style="fill:none;stroke-width:5.21494;stroke-linecap:round;stroke-linejoin:round;stroke:#000;stroke-miterlimit:10" transform="matrix(.1 0 0 -.1 0 935.69)"/><path d="m393.582031 215.972656h5.726563v-.328125h-5.726563zm0 0"/><path d="m4457.890625 7197.173438h57.265625v3.28125h-57.265625zm0 0" style="fill:none;stroke-width:5.21494;stroke-linecap:round;stroke-linejoin:round;stroke:#000;stroke-miterlimit:10" transform="matrix(.1 0 0 -.1 0 935.69)"/><path d="m445.789062 215.972656h5.726563v-.328125h-5.726563zm0 0"/><use x="534.034" xlink:href="#R" y="170.328"/><use x="41.678052" xlink:href="#S" y="170.328"/><path d="m721.640625 7371.665625h4.492187v301.875h-4.492187zm0 0" style="fill:none;stroke-width:3.98456;stroke-linecap:round;stroke-linejoin:round;stroke:#000;stroke-miterlimit:10" transform="matrix(.1 0 0 -.1 0 935.69)"/><path d="m72.164062 198.523438h.449219v-30.1875h-.449219zm0 0"/><use x="54.9027" xlink:href="#ap" y="222.383"/><use x="74.291773" xlink:href="#al" y="222.383"/><use x="87.217171" xlink:href="#aa" y="222.383"/><use x="95.550768" xlink:href="#ac" y="222.383"/><use x="71.9652" xlink:href="#Q" y="165.5959"/><use x="7.5715" xlink:href="#T" y="179.7924"/><use x="136.0645" xlink:href="#P" y="175.06037"/><path d="m2548.085938 7532.251563h4.453124v308.671875h-4.453124zm0 0" style="fill:none;stroke-width:3.98456;stroke-linecap:round;stroke-linejoin:round;stroke:#000;stroke-miterlimit:10" transform="matrix(.1 0 0 -.1 0 935.69)"/><path d="m254.808594 182.464844h.445312v-30.867188h-.445312zm0 0"/><use x="242.813" xlink:href="#aq" y="222.383"/><use x="243.096984" xlink:href="#P" y="184.5248"/><path d="m2024.726562 7626.9h4.492188v308.671875h-4.492188zm0 0" style="fill:none;stroke-width:3.98456;stroke-linecap:round;stroke-linejoin:round;stroke:#000;stroke-miterlimit:10" transform="matrix(.1 0 0 -.1 0 935.69)"/><path d="m202.472656 173h.449219v-30.867188h-.449219zm0 0"/><use x="184.443" xlink:href="#W" y="222.383"/><use x="197.709415" xlink:href="#ab" y="222.383"/><use x="190.76409" xlink:href="#P" y="175.0603"/><path d="m1477.773438 7626.9h4.453124v308.671875h-4.453124zm0 0" style="fill:none;stroke-width:3.98456;stroke-linecap:round;stroke-linejoin:round;stroke:#000;stroke-miterlimit:10" transform="matrix(.1 0 0 -.1 0 935.69)"/><path d="m147.777344 173h.445312v-30.867188h-.445312zm0 0"/><use x="117.157" xlink:href="#V" y="222.383"/><use x="130.082789" xlink:href="#W" y="222.383"/><use x="142.839047" xlink:href="#ak" y="222.383"/><use x="155.595304" xlink:href="#ao" y="222.383"/><g clip-path="url(#k)"><path d="m3.242188 6328.579688h5946.25" style="fill:none;stroke-width:6.52105;stroke-linecap:round;stroke-linejoin:round;stroke:#000;stroke-miterlimit:10" transform="matrix(.1 0 0 -.1 0 935.69)"/></g><g clip-path="url(#l)"><path d="m3.242188 6423.228125h5946.25" style="fill:none;stroke-width:6.52105;stroke-linecap:round;stroke-linejoin:round;stroke:#000;stroke-miterlimit:10" transform="matrix(.1 0 0 -.1 0 935.69)"/></g><g clip-path="url(#m)"><path d="m3.242188 6517.876563h5946.25" style="fill:none;stroke-width:6.52105;stroke-linecap:round;stroke-linejoin:round;stroke:#000;stroke-miterlimit:10" transform="matrix(.1 0 0 -.1 0 935.69)"/></g><g clip-path="url(#n)"><path d="m3.242188 6612.525h5946.25" style="fill:none;stroke-width:6.52105;stroke-linecap:round;stroke-linejoin:round;stroke:#000;stroke-miterlimit:10" transform="matrix(.1 0 0 -.1 0 935.69)"/></g><g clip-path="url(#o)"><path d="m3.242188 6707.173438h5946.25" style="fill:none;stroke-width:6.52105;stroke-linecap:round;stroke-linejoin:round;stroke:#000;stroke-miterlimit:10" transform="matrix(.1 0 0 -.1 0 935.69)"/></g><path d="m1788.515625 6233.93125h169.375" style="fill:none;stroke-width:15.9856;stroke-linecap:round;stroke-linejoin:round;stroke:#000;stroke-miterlimit:10" transform="matrix(.1 0 0 -.1 0 935.69)"/><path d="m4990.46875 6450.610938h4.492188v301.875h-4.492188zm0 0" fill="none" stroke="#000" stroke-linejoin="round" stroke-miterlimit="10" stroke-width="3.98456" transform="matrix(.1 0 0 -.1 0 935.69)"/><path d="m499.046875 290.628906h.449219v-30.1875h-.449219zm0 0"/><use x="474.407" xlink:href="#V" y="335.957"/><use x="487.332789" xlink:href="#W" y="335.957"/><use x="500.258578" xlink:href="#X" y="335.957"/><use x="486.7082" xlink:href="#Q" y="293.3668"/><path d="m4453.671875 6497.954688h4.492187v301.875h-4.492187zm0 0" fill="none" stroke="#000" stroke-linejoin="round" stroke-miterlimit="10" stroke-width="3.98456" transform="matrix(.1 0 0 -.1 0 935.69)"/><path d="m445.367188 285.894531h.449218v-30.183593h-.449218zm0 0"/><use x="423.366" xlink:href="#ar" y="335.957"/><use x="442.755091" xlink:href="#ae" y="335.957"/><use x="433.03006" xlink:href="#Q" y="288.6347"/><path d="m3842.96875 6204.360938h4.492188v292.890625h-4.492188zm0 0" fill="none" stroke="#000" stroke-linejoin="round" stroke-miterlimit="10" stroke-width="3.98456" transform="matrix(.1 0 0 -.1 0 935.69)"/><path d="m384.296875 315.253906h.449219v-29.289062h-.449219zm0 0"/><use x="374.798" xlink:href="#ak" y="335.957"/><use x="387.554258" xlink:href="#W" y="335.957"/><use x="400.479656" xlink:href="#ad" y="335.957"/><use x="384.09566" xlink:href="#P" y="283.9023"/><path d="m3460.039062 6443.853125h4.492188v308.632813h-4.492188zm0 0" fill="none" stroke="#000" stroke-linejoin="round" stroke-miterlimit="10" stroke-width="3.98456" transform="matrix(.1 0 0 -.1 0 935.69)"/><path d="m346.003906 291.304688h.449219v-30.863282h-.449219zm0 0"/><use x="333.926" xlink:href="#as" y="335.957"/><use x="339.198666" xlink:href="#aa" y="335.957"/><use x="334.294359" xlink:href="#P" y="293.3668"/><path d="m2126.40625 6061.43125h57.265625v3.28125h-57.265625zm0 0" fill="none" stroke="#000" stroke-linejoin="round" stroke-miterlimit="10" stroke-width="5.21494" transform="matrix(.1 0 0 -.1 0 935.69)"/><path d="m212.640625 329.546875h5.726563v-.328125h-5.726563zm0 0"/><path d="m3580.46875 6061.43125h57.265625v3.28125h-57.265625zm0 0" fill="none" stroke="#000" stroke-linejoin="round" stroke-miterlimit="10" stroke-width="5.21494" transform="matrix(.1 0 0 -.1 0 935.69)"/><path d="m358.046875 329.546875h5.726563v-.328125h-5.726563zm0 0"/><path d="m4116.953125 6061.43125h57.265625v3.28125h-57.265625zm0 0" fill="none" stroke="#000" stroke-linejoin="round" stroke-miterlimit="10" stroke-width="5.21494" transform="matrix(.1 0 0 -.1 0 935.69)"/><path d="m411.695312 329.546875h5.726563v-.328125h-5.726563zm0 0"/><path d="m4621.796875 6061.43125h57.265625v3.28125h-57.265625zm0 0" fill="none" stroke="#000" stroke-linejoin="round" stroke-miterlimit="10" stroke-width="5.21494" transform="matrix(.1 0 0 -.1 0 935.69)"/><path d="m462.179688 329.546875h5.726562v-.328125h-5.726562zm0 0"/><use x="540.386" xlink:href="#R" y="283.902"/><use x="126.2" xlink:href="#P" y="307.5633"/><path d="m843.046875 6403.30625h4.453125v301.875h-4.453125zm0 0" fill="none" stroke="#000" stroke-linejoin="round" stroke-miterlimit="10" stroke-width="3.98456" transform="matrix(.1 0 0 -.1 0 935.69)"/><path d="m84.304688 295.359375h.445312v-30.1875h-.445312zm0 0"/><use x="64.7676" xlink:href="#at" y="335.957"/><use x="80.415269" xlink:href="#am" y="335.957"/><use x="71.96526" xlink:href="#Q" y="298.0992"/><use x="263.50726" xlink:href="#am" y="335.957"/><use x="275.24243" xlink:href="#ab" y="335.957"/><use x="286.467443" xlink:href="#al" y="335.957"/><use x="299.392841" xlink:href="#V" y="335.957"/><use x="312.31863" xlink:href="#ac" y="335.957"/><use x="41.67926" xlink:href="#S" y="283.9023"/><use x="7.57186" xlink:href="#T" y="293.36675"/><path d="m2966.757812 6396.509375h4.492188v308.671875h-4.492188zm0 0" fill="none" stroke="#000" stroke-linejoin="round" stroke-miterlimit="10" stroke-width="3.98456" transform="matrix(.1 0 0 -.1 0 935.69)"/><path d="m296.675781 296.039062h.449219v-30.867187h-.449219zm0 0"/><use x="284.965" xlink:href="#P" y="298.099"/><path d="m2441.992188 6396.509375h4.492187v308.671875h-4.492187zm0 0" fill="none" stroke="#000" stroke-linejoin="round" stroke-miterlimit="10" stroke-width="3.98456" transform="matrix(.1 0 0 -.1 0 935.69)"/><path d="m244.199219 296.039062h.449219v-30.867187h-.449219zm0 0"/><use x="228.975" xlink:href="#ac" y="335.957"/><use x="235.438285" xlink:href="#W" y="335.957"/><use x="232.48984" xlink:href="#P" y="298.0992"/><use x="107.29384" xlink:href="#V" y="335.957"/><use x="120.219629" xlink:href="#W" y="335.957"/><use x="132.975887" xlink:href="#ak" y="335.957"/><use x="145.732144" xlink:href="#ao" y="335.957"/><path d="m1928.515625 6254.55625h4.492187v308.632813h-4.492187zm0 0" fill="none" stroke="#000" stroke-linejoin="round" stroke-miterlimit="10" stroke-width="3.98456" transform="matrix(.1 0 0 -.1 0 935.69)"/><path d="m192.851562 310.234375h.449219v-30.863281h-.449219zm0 0"/><use x="172.61" xlink:href="#au" y="335.957"/><use x="183.835013" xlink:href="#ai" y="335.957"/><use x="196.760802" xlink:href="#ad" y="335.957"/><use x="181.14242" xlink:href="#P" y="312.2957"/><path d="m1379.101562 6301.860938h4.492188v308.671875h-4.492188zm0 0" fill="none" stroke="#000" stroke-linejoin="round" stroke-miterlimit="10" stroke-width="3.98456" transform="matrix(.1 0 0 -.1 0 935.69)"/><path d="m137.910156 305.503906h.449219v-30.867187h-.449219zm0 0"/><g clip-path="url(#p)"><path d="m3.242188 5192.8375h5946.25" style="fill:none;stroke-width:6.52105;stroke-linecap:round;stroke-linejoin:round;stroke:#000;stroke-miterlimit:10" transform="matrix(.1 0 0 -.1 0 935.69)"/></g><g clip-path="url(#q)"><path d="m3.242188 5287.485938h5946.25" style="fill:none;stroke-width:6.52105;stroke-linecap:round;stroke-linejoin:round;stroke:#000;stroke-miterlimit:10" transform="matrix(.1 0 0 -.1 0 935.69)"/></g><g clip-path="url(#r)"><path d="m3.242188 5382.134375h5946.25" style="fill:none;stroke-width:6.52105;stroke-linecap:round;stroke-linejoin:round;stroke:#000;stroke-miterlimit:10" transform="matrix(.1 0 0 -.1 0 935.69)"/></g><g clip-path="url(#s)"><path d="m3.242188 5476.782813h5946.25" style="fill:none;stroke-width:6.52105;stroke-linecap:round;stroke-linejoin:round;stroke:#000;stroke-miterlimit:10" transform="matrix(.1 0 0 -.1 0 935.69)"/></g><g clip-path="url(#t)"><path d="m3.242188 5571.43125h5946.25" style="fill:none;stroke-width:6.52105;stroke-linecap:round;stroke-linejoin:round;stroke:#000;stroke-miterlimit:10" transform="matrix(.1 0 0 -.1 0 935.69)"/></g><use x="302.645" xlink:href="#P" y="411.673"/><path d="m4832.5 5267.564063h4.492188v301.875h-4.492188zm0 0" style="fill:none;stroke-width:3.98456;stroke-linecap:round;stroke-linejoin:round;stroke:#000;stroke-miterlimit:10" transform="matrix(.1 0 0 -.1 0 935.69)"/><path d="m483.25 408.933594h.449219v-30.183594h-.449219zm0 0"/><use x="464.31" xlink:href="#aa" y="449.531"/><use x="471.793609" xlink:href="#al" y="449.531"/><use x="484.03971" xlink:href="#av" y="449.531"/><use x="470.91352" xlink:href="#Q" y="411.6728"/><path d="m4265.351562 5213.4625h4.492188v308.671875h-4.492188zm0 0" style="fill:none;stroke-width:3.98456;stroke-linecap:round;stroke-linejoin:round;stroke:#000;stroke-miterlimit:10" transform="matrix(.1 0 0 -.1 0 935.69)"/><path d="m426.535156 414.34375h.449219v-30.867188h-.449219zm0 0"/><use x="404.845" xlink:href="#aa" y="449.531"/><use x="412.498921" xlink:href="#aw" y="449.531"/><use x="425.42471" xlink:href="#X" y="449.531"/><use x="414.82352" xlink:href="#P" y="416.4052"/><path d="m3704.453125 5260.767188h4.492187v308.671875h-4.492187zm0 0" style="fill:none;stroke-width:3.98456;stroke-linecap:round;stroke-linejoin:round;stroke:#000;stroke-miterlimit:10" transform="matrix(.1 0 0 -.1 0 935.69)"/><path d="m370.445312 409.613281h.449219v-30.867187h-.449219zm0 0"/><use x="358.45" xlink:href="#aw" y="449.531"/><use x="358.733984" xlink:href="#P" y="411.6728"/><path d="m3143.554688 5260.767188h4.492187v308.671875h-4.492187zm0 0" style="fill:none;stroke-width:3.98456;stroke-linecap:round;stroke-linejoin:round;stroke:#000;stroke-miterlimit:10" transform="matrix(.1 0 0 -.1 0 935.69)"/><path d="m314.355469 409.613281h.449219v-30.867187h-.449219zm0 0"/><use x="296.493" xlink:href="#an" y="449.531"/><use x="309.418789" xlink:href="#am" y="449.531"/><path d="m1095 4925.728125h57.265625v3.242188h-57.265625zm0 0" style="fill:none;stroke-width:5.21494;stroke-linecap:round;stroke-linejoin:round;stroke:#000;stroke-miterlimit:10" transform="matrix(.1 0 0 -.1 0 935.69)"/><path d="m109.5 443.117188h5.726562v-.324219h-5.726562zm0 0"/><path d="m1645.3125 4925.728125h57.265625v3.242188h-57.265625zm0 0" style="fill:none;stroke-width:5.21494;stroke-linecap:round;stroke-linejoin:round;stroke:#000;stroke-miterlimit:10" transform="matrix(.1 0 0 -.1 0 935.69)"/><path d="m164.53125 443.117188h5.726562v-.324219h-5.726562zm0 0"/><path d="m3852.460938 4925.728125h57.265624v3.242188h-57.265624zm0 0" style="fill:none;stroke-width:5.21494;stroke-linecap:round;stroke-linejoin:round;stroke:#000;stroke-miterlimit:10" transform="matrix(.1 0 0 -.1 0 935.69)"/><path d="m385.246094 443.117188h5.726562v-.324219h-5.726562zm0 0"/><path d="m4478.710938 4925.728125h57.265624v3.242188h-57.265624zm0 0" style="fill:none;stroke-width:5.21494;stroke-linecap:round;stroke-linejoin:round;stroke:#000;stroke-miterlimit:10" transform="matrix(.1 0 0 -.1 0 935.69)"/><path d="m447.871094 443.117188h5.726562v-.324219h-5.726562zm0 0"/><use x="532.489" xlink:href="#R" y="397.477"/><use x="41.677663" xlink:href="#S" y="397.477"/><path d="m721.640625 5100.18125h4.492187v301.875h-4.492187zm0 0" style="fill:none;stroke-width:3.98456;stroke-linecap:round;stroke-linejoin:round;stroke:#000;stroke-miterlimit:10" transform="matrix(.1 0 0 -.1 0 935.69)"/><path d="m72.164062 425.671875h.449219v-30.1875h-.449219zm0 0"/><use x="55.7527" xlink:href="#ap" y="449.531"/><use x="75.141382" xlink:href="#al" y="449.531"/><use x="88.237483" xlink:href="#ak" y="449.531"/><use x="71.9652" xlink:href="#Q" y="392.7439"/><use x="7.5715" xlink:href="#T" y="406.9408"/><use x="133.5415" xlink:href="#P" y="397.47635"/><path d="m2582.65625 5308.110938h4.492188v308.632812h-4.492188zm0 0" style="fill:none;stroke-width:3.98456;stroke-linecap:round;stroke-linejoin:round;stroke:#000;stroke-miterlimit:10" transform="matrix(.1 0 0 -.1 0 935.69)"/><path d="m258.265625 404.878906h.449219v-30.863281h-.449219zm0 0"/><use x="227.563" xlink:href="#ar" y="449.531"/><use x="246.951676" xlink:href="#ai" y="449.531"/><use x="259.877465" xlink:href="#am" y="449.531"/><use x="271.443103" xlink:href="#ac" y="449.531"/><use x="246.5544" xlink:href="#P" y="406.9408"/><path d="m2011.992188 5355.415625h4.453124v308.671875h-4.453124zm0 0" style="fill:none;stroke-width:3.98456;stroke-linecap:round;stroke-linejoin:round;stroke:#000;stroke-miterlimit:10" transform="matrix(.1 0 0 -.1 0 935.69)"/><path d="m201.195312 400.148438h.449219v-30.867188h-.449219zm0 0"/><use x="178.913" xlink:href="#aa" y="449.531"/><use x="186.566909" xlink:href="#W" y="449.531"/><use x="199.492698" xlink:href="#ag" y="449.531"/><use x="189.4868" xlink:href="#P" y="402.2083"/><path d="m1337.421875 5068.657813h4.492187v292.851562h-4.492187zm0 0" style="fill:none;stroke-width:3.98456;stroke-linecap:round;stroke-linejoin:round;stroke:#000;stroke-miterlimit:10" transform="matrix(.1 0 0 -.1 0 935.69)"/><path d="m133.742188 428.824219h.445312v-29.285157h-.445312zm0 0"/><use x="123.563" xlink:href="#ar" y="449.531"/><use x="142.952079" xlink:href="#W" y="449.531"/><g clip-path="url(#u)"><path d="m3.242188 4057.095313h5946.25" style="fill:none;stroke-width:6.52105;stroke-linecap:round;stroke-linejoin:round;stroke:#000;stroke-miterlimit:10" transform="matrix(.1 0 0 -.1 0 935.69)"/></g><g clip-path="url(#v)"><path d="m3.242188 4151.74375h5946.25" style="fill:none;stroke-width:6.52105;stroke-linecap:round;stroke-linejoin:round;stroke:#000;stroke-miterlimit:10" transform="matrix(.1 0 0 -.1 0 935.69)"/></g><g clip-path="url(#w)"><path d="m3.242188 4246.392188h5946.25" style="fill:none;stroke-width:6.52105;stroke-linecap:round;stroke-linejoin:round;stroke:#000;stroke-miterlimit:10" transform="matrix(.1 0 0 -.1 0 935.69)"/></g><g clip-path="url(#x)"><path d="m3.242188 4341.040625h5946.25" style="fill:none;stroke-width:6.52105;stroke-linecap:round;stroke-linejoin:round;stroke:#000;stroke-miterlimit:10" transform="matrix(.1 0 0 -.1 0 935.69)"/></g><g clip-path="url(#y)"><path d="m3.242188 4435.689063h5946.25" style="fill:none;stroke-width:6.52105;stroke-linecap:round;stroke-linejoin:round;stroke:#000;stroke-miterlimit:10" transform="matrix(.1 0 0 -.1 0 935.69)"/></g><path d="m4889.53125 3962.446875h178.789062" style="fill:none;stroke-width:15.9856;stroke-linecap:round;stroke-linejoin:round;stroke:#000;stroke-miterlimit:10" transform="matrix(.1 0 0 -.1 0 935.69)"/><path d="m5037.34375 3989.86875h4.492188v301.835938h-4.492188zm0 0" fill="none" stroke="#000" stroke-linejoin="round" stroke-miterlimit="10" stroke-width="3.98456" transform="matrix(.1 0 0 -.1 0 935.69)"/><path d="m503.734375 536.703125h.449219v-30.183594h-.449219zm0 0"/><use x="479.183" xlink:href="#aj" y="563.106"/><use x="484.455666" xlink:href="#W" y="563.106"/><use x="497.381455" xlink:href="#ag" y="563.106"/><use x="510.137713" xlink:href="#Y" y="563.106"/><use x="491.399" xlink:href="#Q" y="539.4447"/><path d="m4408.007812 4037.173438h4.492188v301.875h-4.492188zm0 0" fill="none" stroke="#000" stroke-linejoin="round" stroke-miterlimit="10" stroke-width="3.98456" transform="matrix(.1 0 0 -.1 0 935.69)"/><path d="m440.800781 531.972656h.449219v-30.1875h-.449219zm0 0"/><use x="405.873" xlink:href="#ar" y="563.106"/><use x="425.262091" xlink:href="#ai" y="563.106"/><use x="438.18788" xlink:href="#V" y="563.106"/><use x="451.113278" xlink:href="#ag" y="563.106"/><use x="428.464" xlink:href="#Q" y="534.7122"/><path d="m3807.851562 4077.720313h4.492188v308.632812h-4.492188zm0 0" fill="none" stroke="#000" stroke-linejoin="round" stroke-miterlimit="10" stroke-width="3.98456" transform="matrix(.1 0 0 -.1 0 935.69)"/><path d="m380.785156 527.917969h.449219v-30.863281h-.449219zm0 0"/><use x="359.775" xlink:href="#ak" y="563.106"/><use x="372.531258" xlink:href="#W" y="563.106"/><use x="385.457047" xlink:href="#ad" y="563.106"/><use x="369.07266" xlink:href="#P" y="529.9802"/><path d="m3313.710938 4125.025h4.492187v308.671875h-4.492187zm0 0" fill="none" stroke="#000" stroke-linejoin="round" stroke-miterlimit="10" stroke-width="3.98456" transform="matrix(.1 0 0 -.1 0 935.69)"/><path d="m331.367188 523.1875h.449218v-30.867188h-.449218zm0 0"/><use x="307.045" xlink:href="#am" y="563.106"/><use x="318.779779" xlink:href="#ae" y="563.106"/><use x="331.705568" xlink:href="#ak" y="563.106"/><use x="319.6591" xlink:href="#P" y="525.2478"/><path d="m1005.117188 3789.985938h57.226562v3.242187h-57.226562zm0 0" fill="none" stroke="#000" stroke-linejoin="round" stroke-miterlimit="10" stroke-width="5.21494" transform="matrix(.1 0 0 -.1 0 935.69)"/><path d="m100.511719 556.695312h5.722656v-.328124h-5.722656zm0 0"/><path d="m1491.5625 3789.985938h57.265625v3.242187h-57.265625zm0 0" fill="none" stroke="#000" stroke-linejoin="round" stroke-miterlimit="10" stroke-width="5.21494" transform="matrix(.1 0 0 -.1 0 935.69)"/><path d="m149.15625 556.695312h5.726562v-.328124h-5.726562zm0 0"/><path d="m2459.921875 3789.985938h57.265625v3.242187h-57.265625zm0 0" fill="none" stroke="#000" stroke-linejoin="round" stroke-miterlimit="10" stroke-width="5.21494" transform="matrix(.1 0 0 -.1 0 935.69)"/><path d="m245.992188 556.695312h5.726562v-.328124h-5.726562zm0 0"/><path d="m2948.28125 3789.985938h57.265625v3.242187h-57.265625zm0 0" fill="none" stroke="#000" stroke-linejoin="round" stroke-miterlimit="10" stroke-width="5.21494" transform="matrix(.1 0 0 -.1 0 935.69)"/><path d="m294.828125 556.695312h5.726563v-.328124h-5.726563zm0 0"/><path d="m3493.398438 3789.985938h57.265624v3.242187h-57.265624zm0 0" fill="none" stroke="#000" stroke-linejoin="round" stroke-miterlimit="10" stroke-width="5.21494" transform="matrix(.1 0 0 -.1 0 935.69)"/><path d="m349.339844 556.695312h5.726562v-.328124h-5.726562zm0 0"/><path d="m4687.5 3789.985938h57.226562v3.242187h-57.226562zm0 0" fill="none" stroke="#000" stroke-linejoin="round" stroke-miterlimit="10" stroke-width="5.21494" transform="matrix(.1 0 0 -.1 0 935.69)"/><path d="m468.746094 556.695312h5.726562v-.328124h-5.726562zm0 0"/><use x="542.732" xlink:href="#R" y="511.051"/><use x="123.299" xlink:href="#P" y="506.31897"/><path d="m721.640625 3964.439063h4.492187v301.875h-4.492187zm0 0" fill="none" stroke="#000" stroke-linejoin="round" stroke-miterlimit="10" stroke-width="3.98456" transform="matrix(.1 0 0 -.1 0 935.69)"/><path d="m72.164062 539.246094h.449219v-30.1875h-.449219zm0 0"/><use x="69.3598" xlink:href="#ax" y="563.106"/><use x="75.823085" xlink:href="#ab" y="563.106"/><use x="71.96527" xlink:href="#Q" y="506.3189"/><use x="261.29827" xlink:href="#ac" y="563.106"/><use x="267.591242" xlink:href="#ai" y="563.106"/><use x="280.517031" xlink:href="#aa" y="563.106"/><use x="41.67927" xlink:href="#S" y="511.0509"/><use x="7.57187" xlink:href="#T" y="520.51574"/><path d="m2806.640625 4179.126563h4.492187v301.875h-4.492187zm0 0" fill="none" stroke="#000" stroke-linejoin="round" stroke-miterlimit="10" stroke-width="3.98456" transform="matrix(.1 0 0 -.1 0 935.69)"/><path d="m280.664062 517.777344h.449219v-30.1875h-.449219zm0 0"/><use x="268.327" xlink:href="#Q" y="520.515"/><path d="m2293.320312 4226.470313h4.492188v301.875h-4.492188zm0 0" fill="none" stroke="#000" stroke-linejoin="round" stroke-miterlimit="10" stroke-width="3.98456" transform="matrix(.1 0 0 -.1 0 935.69)"/><path d="m229.332031 513.042969h.449219v-30.1875h-.449219zm0 0"/><use x="210.561" xlink:href="#ay" y="563.106"/><use x="223.486789" xlink:href="#ae" y="563.106"/><use x="216.9942" xlink:href="#Q" y="515.7833"/><use x="119.1887" xlink:href="#aa" y="563.106"/><use x="126.842999" xlink:href="#ae" y="563.106"/><path d="m1703.671875 3932.915625h4.492187v292.851563h-4.492187zm0 0" fill="none" stroke="#000" stroke-linejoin="round" stroke-miterlimit="10" stroke-width="3.98456" transform="matrix(.1 0 0 -.1 0 935.69)"/><path d="m170.367188 542.398438h.449218v-29.285157h-.449218zm0 0"/><use x="164.273" xlink:href="#al" y="563.106"/><use x="177.198789" xlink:href="#ad" y="563.106"/><use x="181.961287" xlink:href="#Y" y="563.106"/><use x="170.16948" xlink:href="#P" y="511.0509"/><path d="m1234.960938 3964.439063h4.492187v308.671875h-4.492187zm0 0" fill="none" stroke="#000" stroke-linejoin="round" stroke-miterlimit="10" stroke-width="3.98456" transform="matrix(.1 0 0 -.1 0 935.69)"/><path d="m123.496094 539.246094h.449218v-30.867188h-.449218zm0 0"/><g clip-path="url(#z)"><path d="m3.242188 2921.353125h5946.25" style="fill:none;stroke-width:6.52105;stroke-linecap:round;stroke-linejoin:round;stroke:#000;stroke-miterlimit:10" transform="matrix(.1 0 0 -.1 0 935.69)"/></g><g clip-path="url(#A)"><path d="m3.242188 3016.001563h5946.25" style="fill:none;stroke-width:6.52105;stroke-linecap:round;stroke-linejoin:round;stroke:#000;stroke-miterlimit:10" transform="matrix(.1 0 0 -.1 0 935.69)"/></g><g clip-path="url(#B)"><path d="m3.242188 3110.65h5946.25" style="fill:none;stroke-width:6.52105;stroke-linecap:round;stroke-linejoin:round;stroke:#000;stroke-miterlimit:10" transform="matrix(.1 0 0 -.1 0 935.69)"/></g><g clip-path="url(#C)"><path d="m3.242188 3205.298438h5946.25" style="fill:none;stroke-width:6.52105;stroke-linecap:round;stroke-linejoin:round;stroke:#000;stroke-miterlimit:10" transform="matrix(.1 0 0 -.1 0 935.69)"/></g><g clip-path="url(#D)"><path d="m3.242188 3299.946875h5946.25" style="fill:none;stroke-width:6.52105;stroke-linecap:round;stroke-linejoin:round;stroke:#000;stroke-miterlimit:10" transform="matrix(.1 0 0 -.1 0 935.69)"/></g><path d="m695.195312 2826.704688h178.789063" style="fill:none;stroke-width:15.9856;stroke-linecap:round;stroke-linejoin:round;stroke:#000;stroke-miterlimit:10" transform="matrix(.1 0 0 -.1 0 935.69)"/><use x="299.229" xlink:href="#P" y="648.286"/><path d="m4879.140625 3090.728125h4.492187v301.875h-4.492187zm0 0" fill="none" stroke="#000" stroke-linejoin="round" stroke-miterlimit="10" stroke-width="3.98456" transform="matrix(.1 0 0 -.1 0 935.69)"/><path d="m487.914062 626.617188h.449219v-30.1875h-.449219zm0 0"/><use x="465.912" xlink:href="#ak" y="676.679"/><use x="478.837789" xlink:href="#al" y="676.679"/><use x="491.763578" xlink:href="#az" y="676.679"/><use x="475.57645" xlink:href="#Q" y="629.3567"/><path d="m4286.71875 3043.384375h4.453125v301.875h-4.453125zm0 0" fill="none" stroke="#000" stroke-linejoin="round" stroke-miterlimit="10" stroke-width="3.98456" transform="matrix(.1 0 0 -.1 0 935.69)"/><path d="m428.671875 631.351562h.445313v-30.1875h-.445313zm0 0"/><use x="410.58" xlink:href="#am" y="676.679"/><use x="422.145639" xlink:href="#an" y="676.679"/><use x="416.33273" xlink:href="#Q" y="634.0888"/><path d="m3694.257812 2996.079688h4.492188v301.875h-4.492188zm0 0" fill="none" stroke="#000" stroke-linejoin="round" stroke-miterlimit="10" stroke-width="3.98456" transform="matrix(.1 0 0 -.1 0 935.69)"/><path d="m369.425781 636.082031h.449219v-30.1875h-.449219zm0 0"/><use x="341.556" xlink:href="#ar" y="676.679"/><use x="360.945066" xlink:href="#al" y="676.679"/><use x="373.870465" xlink:href="#am" y="676.679"/><use x="357.0892" xlink:href="#Q" y="638.8212"/><path d="m3109.414062 2894.634375h4.492188v308.671875h-4.492188zm0 0" fill="none" stroke="#000" stroke-linejoin="round" stroke-miterlimit="10" stroke-width="3.98456" transform="matrix(.1 0 0 -.1 0 935.69)"/><path d="m310.941406 646.226562h.445313v-30.867187h-.445313zm0 0"/><use x="284.404" xlink:href="#ak" y="676.679"/><use x="297.160258" xlink:href="#ao" y="676.679"/><use x="308.21574" xlink:href="#al" y="676.679"/><use x="321.141138" xlink:href="#ad" y="676.679"/><path d="m1730.546875 2654.24375h57.226563v3.242188h-57.226563zm0 0" fill="none" stroke="#000" stroke-linejoin="round" stroke-miterlimit="10" stroke-width="5.21494" transform="matrix(.1 0 0 -.1 0 935.69)"/><path d="m173.054688 670.269531h5.722656v-.328125h-5.722656zm0 0"/><path d="m2710.859375 2654.24375h57.226563v3.242188h-57.226563zm0 0" fill="none" stroke="#000" stroke-linejoin="round" stroke-miterlimit="10" stroke-width="5.21494" transform="matrix(.1 0 0 -.1 0 935.69)"/><path d="m271.085938 670.269531h5.722656v-.328125h-5.722656zm0 0"/><path d="m3311.210938 2654.24375h57.265624v3.242188h-57.265624zm0 0" fill="none" stroke="#000" stroke-linejoin="round" stroke-miterlimit="10" stroke-width="5.21494" transform="matrix(.1 0 0 -.1 0 935.69)"/><path d="m331.121094 670.269531h5.726562v-.328125h-5.726562zm0 0"/><path d="m3952.304688 2654.24375h57.226562v3.242188h-57.226562zm0 0" fill="none" stroke="#000" stroke-linejoin="round" stroke-miterlimit="10" stroke-width="5.21494" transform="matrix(.1 0 0 -.1 0 935.69)"/><path d="m395.230469 670.269531h5.722656v-.328125h-5.722656zm0 0"/><path d="m4476.289062 2654.24375h57.265626v3.242188h-57.265626zm0 0" fill="none" stroke="#000" stroke-linejoin="round" stroke-miterlimit="10" stroke-width="5.21494" transform="matrix(.1 0 0 -.1 0 935.69)"/><path d="m447.628906 670.269531h5.726563v-.328125h-5.726563zm0 0"/><use x="534.82" xlink:href="#R" y="624.625"/><use x="41.680389" xlink:href="#S" y="624.625"/><path d="m843.046875 2854.126563h4.453125v301.835937h-4.453125zm0 0" fill="none" stroke="#000" stroke-linejoin="round" stroke-miterlimit="10" stroke-width="3.98456" transform="matrix(.1 0 0 -.1 0 935.69)"/><path d="m84.304688 650.277344h.445312v-30.183594h-.445312zm0 0"/><use x="51.3309" xlink:href="#aA" y="676.679"/><use x="68.168021" xlink:href="#ai" y="676.679"/><use x="81.09381" xlink:href="#ak" y="676.679"/><use x="93.850067" xlink:href="#ao" y="676.679"/><use x="71.9653" xlink:href="#Q" y="653.0177"/><use x="7.5716" xlink:href="#T" y="634.0888"/><use x="137.2556" xlink:href="#P" y="638.82122"/><path d="m2569.492188 2941.978125h4.492187v308.671875h-4.492187zm0 0" fill="none" stroke="#000" stroke-linejoin="round" stroke-miterlimit="10" stroke-width="3.98456" transform="matrix(.1 0 0 -.1 0 935.69)"/><path d="m256.949219 641.492188h.449219v-30.863282h-.449219zm0 0"/><use x="239.341" xlink:href="#X" y="676.679"/><use x="250.566013" xlink:href="#al" y="676.679"/><use x="245.23748" xlink:href="#P" y="643.5532"/><path d="m2029.570312 2989.282813h4.492188v308.671875h-4.492188zm0 0" fill="none" stroke="#000" stroke-linejoin="round" stroke-miterlimit="10" stroke-width="3.98456" transform="matrix(.1 0 0 -.1 0 935.69)"/><path d="m202.957031 636.761719h.449219v-30.867188h-.449219zm0 0"/><use x="185.691" xlink:href="#ae" y="676.679"/><use x="198.616789" xlink:href="#ad" y="676.679"/><use x="203.889443" xlink:href="#ad" y="676.679"/><use x="191.24686" xlink:href="#P" y="638.8212"/><path d="m1489.6875 2989.282813h4.453125v308.671875h-4.453125zm0 0" fill="none" stroke="#000" stroke-linejoin="round" stroke-miterlimit="10" stroke-width="3.98456" transform="matrix(.1 0 0 -.1 0 935.69)"/><path d="m148.964844 636.761719h.449218v-30.867188h-.449218zm0 0"/><use x="120.729" xlink:href="#ar" y="676.679"/><use x="140.118079" xlink:href="#al" y="676.679"/><use x="153.21418" xlink:href="#ak" y="676.679"/><g clip-path="url(#E)"><path d="m3.242188 1785.610938h5946.25" style="fill:none;stroke-width:6.52105;stroke-linecap:round;stroke-linejoin:round;stroke:#000;stroke-miterlimit:10" transform="matrix(.1 0 0 -.1 0 935.69)"/></g><g clip-path="url(#F)"><path d="m3.242188 1880.259375h5946.25" style="fill:none;stroke-width:6.52105;stroke-linecap:round;stroke-linejoin:round;stroke:#000;stroke-miterlimit:10" transform="matrix(.1 0 0 -.1 0 935.69)"/></g><g clip-path="url(#G)"><path d="m3.242188 1974.907813h5946.25" style="fill:none;stroke-width:6.52105;stroke-linecap:round;stroke-linejoin:round;stroke:#000;stroke-miterlimit:10" transform="matrix(.1 0 0 -.1 0 935.69)"/></g><g clip-path="url(#H)"><path d="m3.242188 2069.55625h5946.25" style="fill:none;stroke-width:6.52105;stroke-linecap:round;stroke-linejoin:round;stroke:#000;stroke-miterlimit:10" transform="matrix(.1 0 0 -.1 0 935.69)"/></g><g clip-path="url(#I)"><path d="m3.242188 2164.204688h5946.25" style="fill:none;stroke-width:6.52105;stroke-linecap:round;stroke-linejoin:round;stroke:#000;stroke-miterlimit:10" transform="matrix(.1 0 0 -.1 0 935.69)"/></g><path d="m4969.804688 1907.642188h4.492187v301.875h-4.492187zm0 0" style="fill:none;stroke-width:3.98456;stroke-linecap:round;stroke-linejoin:round;stroke:#000;stroke-miterlimit:10" transform="matrix(.1 0 0 -.1 0 935.69)"/><path d="m496.980469 744.925781h.449219v-30.1875h-.449219zm0 0"/><use x="472.427" xlink:href="#aj" y="790.254"/><use x="477.699666" xlink:href="#W" y="790.254"/><use x="490.625455" xlink:href="#ag" y="790.254"/><use x="503.381713" xlink:href="#Y" y="790.254"/><use x="484.643" xlink:href="#Q" y="747.6638"/><path d="m4422.695312 1954.985938h4.492188v301.875h-4.492188zm0 0" style="fill:none;stroke-width:3.98456;stroke-linecap:round;stroke-linejoin:round;stroke:#000;stroke-miterlimit:10" transform="matrix(.1 0 0 -.1 0 935.69)"/><path d="m442.269531 740.191406h.449219v-30.1875h-.449219zm0 0"/><use x="419.076" xlink:href="#au" y="790.254"/><use x="430.301013" xlink:href="#W" y="790.254"/><use x="443.226411" xlink:href="#ad" y="790.254"/><use x="448.499078" xlink:href="#ad" y="790.254"/><use x="429.9319" xlink:href="#Q" y="742.9313"/><path d="m3802.65625 1661.43125h4.492188v292.851563h-4.492188zm0 0" style="fill:none;stroke-width:3.98456;stroke-linecap:round;stroke-linejoin:round;stroke:#000;stroke-miterlimit:10" transform="matrix(.1 0 0 -.1 0 935.69)"/><path d="m380.265625 769.546875h.449219v-29.285156h-.449219zm0 0"/><use x="370.515" xlink:href="#W" y="790.254"/><use x="383.781415" xlink:href="#ab" y="790.254"/><use x="395.516194" xlink:href="#ac" y="790.254"/><use x="380.06734" xlink:href="#P" y="738.1993"/><path d="m3303.554688 1661.43125h4.492187v292.851563h-4.492187zm0 0" style="fill:none;stroke-width:3.98456;stroke-linecap:round;stroke-linejoin:round;stroke:#000;stroke-miterlimit:10" transform="matrix(.1 0 0 -.1 0 935.69)"/><path d="m330.355469 769.546875h.449219v-29.285156h-.449219zm0 0"/><use x="323.409" xlink:href="#aa" y="790.254"/><use x="331.062921" xlink:href="#aB" y="790.254"/><use x="343.98871" xlink:href="#ad" y="790.254"/><use x="330.15627" xlink:href="#P" y="738.1993"/><path d="m986.289062 1518.4625h57.226563v3.28125h-57.226563zm0 0" style="fill:none;stroke-width:5.21494;stroke-linecap:round;stroke-linejoin:round;stroke:#000;stroke-miterlimit:10" transform="matrix(.1 0 0 -.1 0 935.69)"/><path d="m98.628906 783.84375h5.722656v-.328125h-5.722656zm0 0"/><path d="m1530.429688 1518.4625h57.226562v3.28125h-57.226562zm0 0" style="fill:none;stroke-width:5.21494;stroke-linecap:round;stroke-linejoin:round;stroke:#000;stroke-miterlimit:10" transform="matrix(.1 0 0 -.1 0 935.69)"/><path d="m153.042969 783.84375h5.722656v-.328125h-5.722656zm0 0"/><path d="m2608.007812 1518.4625h57.226563v3.28125h-57.226563zm0 0" style="fill:none;stroke-width:5.21494;stroke-linecap:round;stroke-linejoin:round;stroke:#000;stroke-miterlimit:10" transform="matrix(.1 0 0 -.1 0 935.69)"/><path d="m260.800781 783.84375h5.722657v-.328125h-5.722657zm0 0"/><path d="m3061.523438 1518.4625h57.265624v3.28125h-57.265624zm0 0" style="fill:none;stroke-width:5.21494;stroke-linecap:round;stroke-linejoin:round;stroke:#000;stroke-miterlimit:10" transform="matrix(.1 0 0 -.1 0 935.69)"/><path d="m306.152344 783.84375h5.726562v-.328125h-5.726562zm0 0"/><path d="m4602.34375 1518.4625h57.265625v3.28125h-57.265625zm0 0" style="fill:none;stroke-width:5.21494;stroke-linecap:round;stroke-linejoin:round;stroke:#000;stroke-miterlimit:10" transform="matrix(.1 0 0 -.1 0 935.69)"/><path d="m460.234375 783.84375h5.726563v-.328125h-5.726563zm0 0"/><use x="539.354" xlink:href="#R" y="738.199"/><use x="126.677" xlink:href="#P" y="752.3955"/><path d="m843.046875 1860.3375h4.453125v301.875h-4.453125zm0 0" style="fill:none;stroke-width:3.98456;stroke-linecap:round;stroke-linejoin:round;stroke:#000;stroke-miterlimit:10" transform="matrix(.1 0 0 -.1 0 935.69)"/><path d="m84.304688 749.65625h.445312v-30.1875h-.445312zm0 0"/><use x="71.3152" xlink:href="#ax" y="790.254"/><use x="77.778485" xlink:href="#aa" y="790.254"/><use x="71.9652" xlink:href="#Q" y="752.3958"/><use x="275.2332" xlink:href="#ac" y="790.254"/><use x="281.696485" xlink:href="#ae" y="790.254"/><use x="41.6792" xlink:href="#S" y="738.1993"/><use x="7.5718" xlink:href="#T" y="747.66375"/><path d="m2904.609375 1853.540625h4.453125v308.671875h-4.453125zm0 0" style="fill:none;stroke-width:3.98456;stroke-linecap:round;stroke-linejoin:round;stroke:#000;stroke-miterlimit:10" transform="matrix(.1 0 0 -.1 0 935.69)"/><path d="m290.460938 750.335938h.445312v-30.867188h-.445312zm0 0"/><use x="278.748" xlink:href="#P" y="752.395"/><path d="m2429.140625 1948.189063h4.492187v308.671875h-4.492187zm0 0" style="fill:none;stroke-width:3.98456;stroke-linecap:round;stroke-linejoin:round;stroke:#000;stroke-miterlimit:10" transform="matrix(.1 0 0 -.1 0 935.69)"/><path d="m242.914062 740.871094h.449219v-30.867188h-.449219zm0 0"/><use x="222.67" xlink:href="#au" y="790.254"/><use x="233.895013" xlink:href="#ai" y="790.254"/><use x="246.820802" xlink:href="#ad" y="790.254"/><use x="231.2032" xlink:href="#P" y="742.9313"/><use x="117.3792" xlink:href="#ak" y="790.254"/><use x="130.135458" xlink:href="#W" y="790.254"/><use x="143.061247" xlink:href="#ad" y="790.254"/><path d="m1910.3125 1900.884375h4.492188v308.632813h-4.492188zm0 0" style="fill:none;stroke-width:3.98456;stroke-linecap:round;stroke-linejoin:round;stroke:#000;stroke-miterlimit:10" transform="matrix(.1 0 0 -.1 0 935.69)"/><path d="m191.03125 745.601562h.449219v-30.863281h-.449219zm0 0"/><use x="163.477" xlink:href="#ar" y="790.254"/><use x="182.866079" xlink:href="#W" y="790.254"/><use x="195.791868" xlink:href="#am" y="790.254"/><use x="179.3227" xlink:href="#P" y="747.6638"/><path d="m1383.867188 1853.540625h4.492187v308.671875h-4.492187zm0 0" style="fill:none;stroke-width:3.98456;stroke-linecap:round;stroke-linejoin:round;stroke:#000;stroke-miterlimit:10" transform="matrix(.1 0 0 -.1 0 935.69)"/><path d="m138.386719 750.335938h.449219v-30.867188h-.449219zm0 0"/><g clip-path="url(#J)"><path d="m3.242188 649.86875h5946.25" style="fill:none;stroke-width:6.52105;stroke-linecap:round;stroke-linejoin:round;stroke:#000;stroke-miterlimit:10" transform="matrix(.1 0 0 -.1 0 935.69)"/></g><g clip-path="url(#K)"><path d="m3.242188 744.517188h5946.25" style="fill:none;stroke-width:6.52105;stroke-linecap:round;stroke-linejoin:round;stroke:#000;stroke-miterlimit:10" transform="matrix(.1 0 0 -.1 0 935.69)"/></g><g clip-path="url(#L)"><path d="m3.242188 839.165625h5946.25" style="fill:none;stroke-width:6.52105;stroke-linecap:round;stroke-linejoin:round;stroke:#000;stroke-miterlimit:10" transform="matrix(.1 0 0 -.1 0 935.69)"/></g><g clip-path="url(#M)"><path d="m3.242188 933.814063h5946.25" style="fill:none;stroke-width:6.52105;stroke-linecap:round;stroke-linejoin:round;stroke:#000;stroke-miterlimit:10" transform="matrix(.1 0 0 -.1 0 935.69)"/></g><g clip-path="url(#N)"><path d="m3.242188 1028.4625h5946.25" style="fill:none;stroke-width:6.52105;stroke-linecap:round;stroke-linejoin:round;stroke:#000;stroke-miterlimit:10" transform="matrix(.1 0 0 -.1 0 935.69)"/></g><g clip-path="url(#O)"><path d="m5933.203125 649.86875v378.59375" fill="none" stroke="#000" stroke-linejoin="round" stroke-miterlimit="10" stroke-width="39.1073" transform="matrix(.1 0 0 -.1 0 935.69)"/></g><path d="m5887.890625 649.86875v378.59375" fill="none" stroke="#000" stroke-linejoin="round" stroke-miterlimit="10" stroke-width="12.389" transform="matrix(.1 0 0 -.1 0 935.69)"/><path d="m4592.617188 670.49375h4.492187v308.671875h-4.492187zm0 0" fill="none" stroke="#000" stroke-linejoin="round" stroke-miterlimit="10" stroke-width="3.98456" transform="matrix(.1 0 0 -.1 0 935.69)"/><path d="m459.261719 868.640625h.449219v-30.867187h-.449219zm0 0"/><use x="437.575" xlink:href="#aa" y="903.9224"/><use x="445.228921" xlink:href="#aw" y="903.9224"/><use x="458.15471" xlink:href="#X" y="903.9224"/><use x="447.55352" xlink:href="#P" y="870.7021"/><path d="m3976.5625 717.798438h4.492188v308.671875h-4.492188zm0 0" fill="none" stroke="#000" stroke-linejoin="round" stroke-miterlimit="10" stroke-width="3.98456" transform="matrix(.1 0 0 -.1 0 935.69)"/><path d="m397.65625 863.910156h.449219v-30.867187h-.449219zm0 0"/><use x="385.664" xlink:href="#aw" y="903.9224"/><use x="385.947984" xlink:href="#P" y="865.9697"/><path d="m3360.507812 717.798438h4.492188v308.671875h-4.492188zm0 0" fill="none" stroke="#000" stroke-linejoin="round" stroke-miterlimit="10" stroke-width="3.98456" transform="matrix(.1 0 0 -.1 0 935.69)"/><path d="m336.050781 863.910156h.449219v-30.867187h-.449219zm0 0"/><use x="305.264" xlink:href="#ar" y="903.9224"/><use x="324.653066" xlink:href="#as" y="903.9224"/><use x="329.925733" xlink:href="#V" y="903.9224"/><use x="342.851522" xlink:href="#ag" y="903.9224"/><use x="324.3417" xlink:href="#P" y="865.9697"/><path d="m1769.921875 381.782813h57.226563v3.28125h-57.226563zm0 0" fill="none" stroke="#000" stroke-linejoin="round" stroke-miterlimit="10" stroke-width="5.21494" transform="matrix(.1 0 0 -.1 0 935.69)"/><path d="m176.992188 897.511719h5.722656v-.328125h-5.722656zm0 0"/><path d="m2349.53125 381.782813h57.265625v3.28125h-57.265625zm0 0" fill="none" stroke="#000" stroke-linejoin="round" stroke-miterlimit="10" stroke-width="5.21494" transform="matrix(.1 0 0 -.1 0 935.69)"/><path d="m234.953125 897.511719h5.722656v-.328125h-5.722656zm0 0"/><path d="m3678.59375 381.782813h57.226562v3.28125h-57.226562zm0 0" fill="none" stroke="#000" stroke-linejoin="round" stroke-miterlimit="10" stroke-width="5.21494" transform="matrix(.1 0 0 -.1 0 935.69)"/><path d="m367.859375 897.511719h5.722656v-.328125h-5.722656zm0 0"/><path d="m4152.1875 381.782813h57.265625v3.28125h-57.265625zm0 0" fill="none" stroke="#000" stroke-linejoin="round" stroke-miterlimit="10" stroke-width="5.21494" transform="matrix(.1 0 0 -.1 0 935.69)"/><path d="m415.21875 897.511719h5.726562v-.328125h-5.726562zm0 0"/><path d="m4848.164062 381.782813h57.265626v3.28125h-57.265626zm0 0" fill="none" stroke="#000" stroke-linejoin="round" stroke-miterlimit="10" stroke-width="5.21494" transform="matrix(.1 0 0 -.1 0 935.69)"/><path d="m484.816406 897.511719h5.726563v-.328125h-5.726563zm0 0"/><use x="509.157" xlink:href="#U" y="865.9697"/><use x="505.47262" xlink:href="#aa" y="903.9224"/><use x="512.955837" xlink:href="#al" y="903.9224"/><use x="525.202328" xlink:href="#av" y="903.9224"/><use x="41.67862" xlink:href="#S" y="851.7728"/><path d="m721.640625 557.2125h4.492187v301.875h-4.492187zm0 0" fill="none" stroke="#000" stroke-linejoin="round" stroke-miterlimit="10" stroke-width="3.98456" transform="matrix(.1 0 0 -.1 0 935.69)"/><path d="m72.164062 879.96875h.449219v-30.1875h-.449219zm0 0"/><use x="51.3309" xlink:href="#aA" y="903.9224"/><use x="68.168021" xlink:href="#ai" y="903.9224"/><use x="81.09381" xlink:href="#ak" y="903.9224"/><use x="93.850067" xlink:href="#ao" y="903.9224"/><use x="71.9653" xlink:href="#Q" y="847.0408"/><path d="m2744.453125 765.142188h4.492187v308.671875h-4.492187zm0 0" fill="none" stroke="#000" stroke-linejoin="round" stroke-miterlimit="10" stroke-width="3.98456" transform="matrix(.1 0 0 -.1 0 935.69)"/><path d="m274.445312 859.175781h.449219v-30.863281h-.449219zm0 0"/><use x="7.57148" xlink:href="#T" y="861.2373"/><use x="201.13148" xlink:href="#P" y="856.50527"/><use x="252.16308" xlink:href="#aa" y="903.92247"/><use x="259.817001" xlink:href="#W" y="903.92247"/><use x="272.74279" xlink:href="#ag" y="903.92247"/><use x="262.73688" xlink:href="#P" y="861.23727"/><path d="m2128.4375 812.446875h4.453125v308.671875h-4.453125zm0 0" fill="none" stroke="#000" stroke-linejoin="round" stroke-miterlimit="10" stroke-width="3.98456" transform="matrix(.1 0 0 -.1 0 935.69)"/><path d="m212.839844 854.445312h.449218v-30.867187h-.449218zm0 0"/><use x="191.153" xlink:href="#ar" y="903.9224"/><use x="210.542066" xlink:href="#W" y="903.9224"/><path d="m1398.710938 525.689063h4.492187v292.851562h-4.492187zm0 0" fill="none" stroke="#000" stroke-linejoin="round" stroke-miterlimit="10" stroke-width="3.98456" transform="matrix(.1 0 0 -.1 0 935.69)"/><path d="m139.867188 883.121094h.449218v-29.285156h-.449218zm0 0"/><use x="123.144" xlink:href="#ar" y="903.9224"/><use x="142.533079" xlink:href="#al" y="903.9224"/><use x="155.62879" xlink:href="#ak" y="903.9224"/><use x="139.6698" xlink:href="#P" y="851.7728"/></svg>