<svg height="682.41em" viewBox="0 0 595.28 682.41" width="595.28em" xmlns="http://www.w3.org/2000/svg" xmlns:xlink="http://www.w3.org/1999/xlink"><clipPath id="a"><path d="m0 62h595.28125v1h-595.28125zm0 0"/></clipPath><clipPath id="b"><path d="m0 52h595.28125v2h-595.28125zm0 0"/></clipPath><clipPath id="c"><path d="m0 43h595.28125v2h-595.28125zm0 0"/></clipPath><clipPath id="d"><path d="m0 34h595.28125v2h-595.28125zm0 0"/></clipPath><clipPath id="e"><path d="m0 25h595.28125v1h-595.28125zm0 0"/></clipPath><clipPath id="f"><path d="m594 25h1.28125v4h-1.28125zm0 0"/></clipPath><clipPath id="g"><path d="m594 32h1.28125v6h-1.28125zm0 0"/></clipPath><clipPath id="h"><path d="m594 41h1.28125v6h-1.28125zm0 0"/></clipPath><clipPath id="i"><path d="m594 50h1.28125v7h-1.28125zm0 0"/></clipPath><clipPath id="j"><path d="m594 50h1.28125v6h-1.28125zm0 0"/></clipPath><clipPath id="k"><path d="m594 59h1.28125v4h-1.28125zm0 0"/></clipPath><clipPath id="l"><path d="m0 172h595.28125v2h-595.28125zm0 0"/></clipPath><clipPath id="m"><path d="m0 163h595.28125v2h-595.28125zm0 0"/></clipPath><clipPath id="n"><path d="m0 154h595.28125v1h-595.28125zm0 0"/></clipPath><clipPath id="o"><path d="m0 145h595.28125v1h-595.28125zm0 0"/></clipPath><clipPath id="p"><path d="m0 135h595.28125v2h-595.28125zm0 0"/></clipPath><clipPath id="q"><path d="m594 135h1.28125v39h-1.28125zm0 0"/></clipPath><clipPath id="r"><path d="m0 283h595.28125v1h-595.28125zm0 0"/></clipPath><clipPath id="s"><path d="m0 274h595.28125v1h-595.28125zm0 0"/></clipPath><clipPath id="t"><path d="m0 264h595.28125v2h-595.28125zm0 0"/></clipPath><clipPath id="u"><path d="m0 255h595.28125v2h-595.28125zm0 0"/></clipPath><clipPath id="v"><path d="m0 246h595.28125v2h-595.28125zm0 0"/></clipPath><clipPath id="w"><path d="m594 246h1.28125v39h-1.28125zm0 0"/></clipPath><clipPath id="x"><path d="m0 393h595.28125v2h-595.28125zm0 0"/></clipPath><clipPath id="y"><path d="m0 384h595.28125v2h-595.28125zm0 0"/></clipPath><clipPath id="z"><path d="m0 375h595.28125v2h-595.28125zm0 0"/></clipPath><clipPath id="A"><path d="m0 366h595.28125v1h-595.28125zm0 0"/></clipPath><clipPath id="B"><path d="m0 357h595.28125v1h-595.28125zm0 0"/></clipPath><clipPath id="C"><path d="m594 357h1.28125v4h-1.28125zm0 0"/></clipPath><clipPath id="D"><path d="m594 357h1.28125v3h-1.28125zm0 0"/></clipPath><clipPath id="E"><path d="m594 363h1.28125v7h-1.28125zm0 0"/></clipPath><clipPath id="F"><path d="m594 364h1.28125v6h-1.28125zm0 0"/></clipPath><clipPath id="G"><path d="m594 373h1.28125v6h-1.28125zm0 0"/></clipPath><clipPath id="H"><path d="m594 382h1.28125v6h-1.28125zm0 0"/></clipPath><clipPath id="I"><path d="m594 391h1.28125v4h-1.28125zm0 0"/></clipPath><clipPath id="J"><path d="m0 504h595.28125v2h-595.28125zm0 0"/></clipPath><clipPath id="K"><path d="m0 495h595.28125v1h-595.28125zm0 0"/></clipPath><clipPath id="L"><path d="m0 486h595.28125v1h-595.28125zm0 0"/></clipPath><clipPath id="M"><path d="m0 476h595.28125v2h-595.28125zm0 0"/></clipPath><clipPath id="N"><path d="m0 467h595.28125v2h-595.28125zm0 0"/></clipPath><clipPath id="O"><path d="m594 467h1.28125v39h-1.28125zm0 0"/></clipPath><clipPath id="P"><path d="m0 615h595.28125v1h-595.28125zm0 0"/></clipPath><clipPath id="Q"><path d="m0 605h595.28125v2h-595.28125zm0 0"/></clipPath><clipPath id="R"><path d="m0 596h595.28125v2h-595.28125zm0 0"/></clipPath><clipPath id="S"><path d="m0 587h595.28125v2h-595.28125zm0 0"/></clipPath><clipPath id="T"><path d="m0 578h595.28125v1h-595.28125zm0 0"/></clipPath><clipPath id="U"><path d="m591 576h4.28125v42h-4.28125zm0 0"/></clipPath><symbol id="V" overflow="visible"><path d="m9.96875-8.59375c-.03125-2.34375-1.578125-3.671875-4.328125-3.671875-2.78125 0-4.578125 1.4375-4.578125 3.640625 0 1.875.96875 2.75 3.78125 3.4375l1.78125.4375c1.3125.3125 1.84375.796875 1.84375 1.640625 0 1.125-1.125 1.875-2.78125 1.875-1.03125 0-1.890625-.296875-2.359375-.796875-.296875-.328125-.4375-.671875-.546875-1.515625h-2c.078125 2.75 1.625 4.0625 4.75 4.0625 3 0 4.90625-1.46875 4.90625-3.765625 0-1.78125-1-2.75-3.359375-3.328125l-1.828125-.421875c-1.546875-.375-2.203125-.875-2.203125-1.71875 0-1.109375.984375-1.796875 2.53125-1.796875 1.515625 0 2.34375.671875 2.390625 1.921875zm0 0"/></symbol><symbol id="W" overflow="visible"><path d="m10.078125-11.921875h-8.890625v1.65625h6.640625l-7.125 8.5625v1.703125h9.6875v-1.65625h-7.390625l7.078125-8.578125zm0 0"/></symbol><symbol id="X" overflow="visible"><path d="m11.671875-5.328125c0-1.8125-.140625-2.90625-.484375-3.796875-.765625-1.953125-2.59375-3.140625-4.8125-3.140625-3.328125 0-5.46875 2.53125-5.46875 6.46875s2.046875 6.3125 5.421875 6.3125c2.71875 0 4.609375-1.546875 5.09375-4.140625h-1.90625c-.53125 1.578125-1.59375 2.390625-3.125 2.390625-1.203125 0-2.234375-.546875-2.859375-1.546875-.453125-.671875-.625-1.359375-.640625-2.546875zm-8.734375-1.546875c.15625-2.203125 1.5-3.640625 3.40625-3.640625 1.9375 0 3.28125 1.5 3.28125 3.640625zm4.0625-9.953125-2.171875 3.359375h1.359375l3.390625-3.359375zm0 0"/></symbol><symbol id="Y" overflow="visible"><path d="m1.234375 4.953125h1.90625v-6.203125c1 1.234375 2.109375 1.765625 3.65625 1.765625 3.09375 0 5.09375-2.46875 5.09375-6.265625 0-4.015625-1.953125-6.515625-5.109375-6.515625-1.609375 0-2.90625.734375-3.796875 2.140625v-1.796875h-1.75zm5.234375-15.4375c2.078125 0 3.453125 1.84375 3.453125 4.6875 0 2.703125-1.390625 4.546875-3.453125 4.546875-2.03125 0-3.328125-1.828125-3.328125-4.625s1.296875-4.609375 3.328125-4.609375zm0 0"/></symbol><symbol id="Z" overflow="visible"><path d="m12.171875-1.109375c-.203125.046875-.296875.046875-.40625.046875-.65625 0-1.03125-.34375-1.03125-.9375v-7.015625c0-2.109375-1.546875-3.25-4.484375-3.25-1.75 0-3.140625.5-3.953125 1.390625-.546875.609375-.765625 1.296875-.8125 2.484375h1.90625c.15625-1.453125 1.015625-2.125 2.796875-2.125 1.734375 0 2.65625.640625 2.65625 1.78125v.5c-.015625.8125-.421875 1.109375-1.96875 1.3125-2.6875.34375-3.09375.4375-3.828125.734375-1.390625.59375-2.09375 1.640625-2.09375 3.1875 0 2.15625 1.5 3.515625 3.921875 3.515625 1.5 0 2.703125-.515625 4.046875-1.75.125 1.234375.71875 1.75 1.953125 1.75.40625 0 .65625-.03125 1.296875-.203125zm-3.328125-2.640625c0 .640625-.171875 1.015625-.75 1.546875-.765625.703125-1.703125 1.0625-2.8125 1.0625-1.484375 0-2.34375-.703125-2.34375-1.90625 0-1.25.8125-1.890625 2.859375-2.1875 2.03125-.265625 2.421875-.359375 3.046875-.65625zm0 0"/></symbol><symbol id="aa" overflow="visible"><path d="m1.59375-11.921875v11.921875h1.90625v-6.578125c0-2.4375 1.28125-4.015625 3.234375-4.015625 1.5 0 2.453125.90625 2.453125 2.328125v8.265625h1.890625v-9.015625c0-1.96875-1.484375-3.25-3.78125-3.25-1.765625 0-2.90625.6875-3.953125 2.34375v-2zm0 0"/></symbol><symbol id="ab" overflow="visible"><path d="m8.828125-11.921875-3.296875 9.28125-3.046875-9.28125h-2.03125l4.03125 11.96875-.734375 1.890625c-.3125.84375-.71875 1.15625-1.515625 1.15625-.328125 0-.59375-.046875-1-.140625v1.703125c.375.21875.765625.296875 1.265625.296875.609375 0 1.28125-.203125 1.78125-.5625.59375-.4375.921875-.9375 1.296875-1.890625l5.296875-14.421875zm0 0"/></symbol><symbol id="ac" overflow="visible"><path d="m12.171875-1.109375c-.203125.046875-.296875.046875-.40625.046875-.65625 0-1.03125-.34375-1.03125-.9375v-7.015625c0-2.109375-1.546875-3.25-4.484375-3.25-1.75 0-3.140625.5-3.953125 1.390625-.546875.609375-.765625 1.296875-.8125 2.484375h1.90625c.15625-1.453125 1.015625-2.125 2.796875-2.125 1.734375 0 2.65625.640625 2.65625 1.78125v.5c-.015625.8125-.421875 1.109375-1.96875 1.3125-2.6875.34375-3.09375.4375-3.828125.734375-1.390625.59375-2.09375 1.640625-2.09375 3.1875 0 2.15625 1.5 3.515625 3.921875 3.515625 1.5 0 2.703125-.515625 4.046875-1.75.125 1.234375.71875 1.75 1.953125 1.75.40625 0 .65625-.03125 1.296875-.203125zm-3.328125-2.640625c0 .640625-.171875 1.015625-.75 1.546875-.765625.703125-1.703125 1.0625-2.8125 1.0625-1.484375 0-2.34375-.703125-2.34375-1.90625 0-1.25.8125-1.890625 2.859375-2.1875 2.03125-.265625 2.421875-.359375 3.046875-.65625zm-1.921875-13.078125-2.21875 3.359375h1.375l3.390625-3.359375zm0 0"/></symbol><symbol id="ad" overflow="visible"><path d="m1.5625-11.921875v11.921875h1.921875v-6.1875c.015625-2.859375 1.203125-4.140625 3.8125-4.078125v-1.921875c-.3125-.046875-.5-.078125-.71875-.078125-1.234375 0-2.171875.734375-3.25 2.5v-2.15625zm0 0"/></symbol><symbol id="ae" overflow="visible"><path d="m1.984375-2.359375v2.359375h1.359375v.40625c0 1.578125-.296875 2.03125-1.359375 2.078125v.859375c1.5.046875 2.390625-1.046875 2.390625-2.984375v-2.71875zm0 0"/></symbol><symbol id="af" overflow="visible"><path d="m1.59375-11.921875v11.921875h1.90625v-7.484375c0-1.734375 1.25-3.109375 2.796875-3.109375 1.421875 0 2.21875.859375 2.21875 2.375v8.21875h1.90625v-7.484375c0-1.734375 1.25-3.109375 2.796875-3.109375 1.390625 0 2.203125.875 2.203125 2.375v8.21875h1.90625v-8.9375c0-2.140625-1.21875-3.328125-3.453125-3.328125-1.59375 0-2.546875.484375-3.65625 1.828125-.703125-1.28125-1.671875-1.828125-3.21875-1.828125-1.578125 0-2.65625.59375-3.65625 2.03125v-1.6875zm0 0"/></symbol><symbol id="ag" overflow="visible"><path d="m3.40625-11.921875h-1.875v11.921875h1.875zm0-4.65625h-1.90625v2.375h1.90625zm0 0"/></symbol><symbol id="ah" overflow="visible"><path d="m5.78125-11.921875h-1.953125v-3.28125h-1.890625v3.28125h-1.625v1.546875h1.625v9.015625c0 1.21875.8125 1.875 2.296875 1.875.5 0 .90625-.03125 1.546875-.15625v-1.59375c-.28125.078125-.53125.09375-.90625.09375-.828125 0-1.046875-.21875-1.046875-1.0625v-8.171875h1.953125zm0 0"/></symbol><symbol id="ai" overflow="visible"><path d="m11.265625-16.578125h-1.890625v6.15625c-.796875-1.203125-2.078125-1.84375-3.671875-1.84375-3.09375 0-5.109375 2.484375-5.109375 6.28125 0 4.03125 1.953125 6.5 5.1875 6.5 1.640625 0 2.765625-.609375 3.796875-2.078125v1.5625h1.6875zm-5.234375 6.09375c2.046875 0 3.34375 1.796875 3.34375 4.65625 0 2.75-1.328125 4.578125-3.328125 4.578125-2.09375 0-3.46875-1.84375-3.46875-4.625 0-2.765625 1.375-4.609375 3.453125-4.609375zm0 0"/></symbol><symbol id="aj" overflow="visible"><path d="m6.1875-12.265625c-3.359375 0-5.375 2.390625-5.375 6.390625 0 4.03125 2.015625 6.390625 5.390625 6.390625s5.40625-2.375 5.40625-6.296875c0-4.140625-1.96875-6.484375-5.421875-6.484375zm.015625 1.75c2.140625 0 3.421875 1.75 3.421875 4.71875 0 2.8125-1.328125 4.5625-3.421875 4.5625-2.109375 0-3.40625-1.75-3.40625-4.640625s1.296875-4.640625 3.40625-4.640625zm-.75-6.3125-2.203125 3.40625h1.375l3.390625-3.40625zm3.96875 0-2.203125 3.40625h1.359375l3.390625-3.40625zm0 0"/></symbol><symbol id="ak" overflow="visible"><path d="m10.78125-4.984375 1.703125 4.984375h2.375l-5.828125-16.578125h-2.734375l-5.90625 16.578125h2.25l1.75-4.984375zm-.59375-1.765625h-5.28125l2.734375-7.5625zm0 0"/></symbol><symbol id="al" overflow="visible"><path d="m11.671875-5.328125c0-1.8125-.140625-2.90625-.484375-3.796875-.765625-1.953125-2.59375-3.140625-4.8125-3.140625-3.328125 0-5.46875 2.53125-5.46875 6.46875s2.046875 6.3125 5.421875 6.3125c2.71875 0 4.609375-1.546875 5.09375-4.140625h-1.90625c-.53125 1.578125-1.59375 2.390625-3.125 2.390625-1.203125 0-2.234375-.546875-2.859375-1.546875-.453125-.671875-.625-1.359375-.640625-2.546875zm-8.734375-1.546875c.15625-2.203125 1.5-3.640625 3.40625-3.640625 1.9375 0 3.28125 1.5 3.28125 3.640625zm0 0"/></symbol><symbol id="am" overflow="visible"><path d="m1.59375-11.921875v13.65625c0 1.171875-.359375 1.5625-1.546875 1.5625-.140625 0-.203125 0-.453125-.015625v1.609375c.21875.046875.34375.0625.640625.0625 2.125 0 3.25-.828125 3.25-2.46875v-14.40625zm1.890625-4.65625h-1.890625v2.375h1.890625zm0 0"/></symbol><symbol id="an" overflow="visible"><path d="m3.453125-16.578125h-1.90625v16.578125h1.90625zm0 0"/></symbol><symbol id="ao" overflow="visible"><path d="m10.640625 0 4.671875-13.90625v13.90625h2v-16.578125h-2.9375l-4.8125 14.4375-4.921875-14.4375h-2.9375v16.578125h2v-13.90625l4.71875 13.90625zm0 0"/></symbol><symbol id="ap" overflow="visible"><path d="m6.484375 0 4.578125-11.921875h-2.140625l-3.375 9.671875-3.1875-9.671875h-2.125l4.171875 11.921875zm0 0"/></symbol><symbol id="aq" overflow="visible"><path d="m9.1875-11.921875v1.734375c-.953125-1.4375-2-2.078125-3.5-2.078125-2.890625 0-4.890625 2.6875-4.890625 6.515625 0 2 .484375 3.453125 1.5 4.65625.890625 1.046875 2.03125 1.609375 3.25 1.609375 1.4375 0 2.46875-.625 3.46875-2.125v.609375c0 3.1875-.890625 4.359375-3.265625 4.359375-1.609375 0-2.453125-.625-2.640625-2h-1.921875c.171875 2.21875 1.921875 3.59375 4.515625 3.59375 1.765625 0 3.21875-.5625 3.984375-1.515625.90625-1.109375 1.25-2.59375 1.25-5.390625v-9.96875zm-3.3125 1.40625c2 0 3.140625 1.6875 3.140625 4.71875 0 2.890625-1.171875 4.5625-3.140625 4.5625s-3.09375-1.703125-3.09375-4.640625c0-2.90625 1.125-4.640625 3.09375-4.640625zm0 0"/></symbol><symbol id="ar" overflow="visible"><path d="m4.34375-2.359375h-2.359375v2.359375h2.359375zm0 0"/></symbol><symbol id="as" overflow="visible"><path d="m14.703125-16.578125h-2.015625v13.546875l-8.65625-13.546875h-2.296875v16.578125h2v-13.4375l8.578125 13.4375h2.390625zm0 0"/></symbol><symbol id="at" overflow="visible"><path d="m6.46875-7.09375h-5.421875v1.640625h5.421875zm0 0"/></symbol><symbol id="au" overflow="visible"><path d="m10.78125-4.984375 1.703125 4.984375h2.375l-5.828125-16.578125h-2.734375l-5.90625 16.578125h2.25l1.75-4.984375zm-.59375-1.765625h-5.28125l2.734375-7.5625zm-1.765625-14.609375-2.1875 3.359375h1.359375l3.390625-3.359375zm0 0"/></symbol><symbol id="av" overflow="visible"><path d="m3.203125-16.578125h-1.890625v16.578125h1.890625v-4.640625l1.84375-1.828125 4.03125 6.46875h2.34375l-4.875-7.796875 4.140625-4.125h-2.421875l-5.0625 5.046875zm0 0"/></symbol><symbol id="aw" overflow="visible"><path d="m1.234375-16.578125v16.578125h1.703125v-1.53125c.90625 1.390625 2.109375 2.046875 3.78125 2.046875 3.125 0 5.171875-2.5625 5.171875-6.515625 0-3.875-1.921875-6.265625-5.09375-6.265625-1.625 0-2.796875.625-3.6875 1.953125v-6.265625zm5.203125 6.09375c2.109375 0 3.484375 1.84375 3.484375 4.6875 0 2.703125-1.40625 4.546875-3.484375 4.546875-2.03125 0-3.328125-1.828125-3.328125-4.625s1.296875-4.609375 3.328125-4.609375zm0 0"/></symbol><symbol id="ax" overflow="visible"><path d="m13.5625-11.71875c0-1.140625-.078125-1.453125-.4375-2.234375-.90625-1.90625-2.84375-2.90625-5.640625-2.90625-3.640625 0-5.890625 1.875-5.890625 4.875 0 2.015625 1.0625 3.296875 3.25 3.859375l4.125 1.09375c2.109375.546875 3.046875 1.390625 3.046875 2.6875 0 .890625-.484375 1.796875-1.1875 2.296875-.65625.484375-1.703125.703125-3.046875.703125-1.828125 0-3.03125-.4375-3.828125-1.390625-.609375-.71875-.875-1.515625-.859375-2.546875h-2c.015625 1.53125.3125 2.53125.96875 3.4375 1.140625 1.578125 3.0625 2.359375 5.578125 2.359375 1.984375 0 3.59375-.453125 4.671875-1.265625 1.109375-.890625 1.8125-2.359375 1.8125-3.796875 0-2.046875-1.265625-3.546875-3.53125-4.171875l-4.15625-1.109375c-2-.546875-2.734375-1.1875-2.734375-2.453125 0-1.6875 1.484375-2.796875 3.71875-2.796875 2.640625 0 4.109375 1.171875 4.140625 3.359375zm0 0"/></symbol><symbol id="ay" overflow="visible"><path d="m6.1875-12.265625c-3.359375 0-5.375 2.390625-5.375 6.390625 0 4.03125 2.015625 6.390625 5.390625 6.390625s5.40625-2.375 5.40625-6.296875c0-4.140625-1.96875-6.484375-5.421875-6.484375zm.015625 1.75c2.140625 0 3.421875 1.75 3.421875 4.71875 0 2.8125-1.328125 4.5625-3.421875 4.5625-2.109375 0-3.40625-1.75-3.40625-4.640625s1.296875-4.640625 3.40625-4.640625zm0 0"/></symbol><symbol id="az" overflow="visible"><path d="m7.578125-16.578125v11.671875c0 1.3125-.140625 2.0625-.53125 2.625-.40625.640625-1.171875 1.03125-2.015625 1.03125-1.59375 0-2.484375-1.078125-2.484375-3v-1.078125h-2.15625v1.453125c0 2.6875 1.765625 4.390625 4.609375 4.390625 2.890625 0 4.6875-1.796875 4.6875-4.65625v-12.4375zm0 0"/></symbol><symbol id="aA" overflow="visible"><path d="m6.1875-12.265625c-3.359375 0-5.375 2.390625-5.375 6.390625 0 4.03125 2.015625 6.390625 5.390625 6.390625s5.40625-2.375 5.40625-6.296875c0-4.140625-1.96875-6.484375-5.421875-6.484375zm.015625 1.75c2.140625 0 3.421875 1.75 3.421875 4.71875 0 2.8125-1.328125 4.5625-3.421875 4.5625-2.109375 0-3.40625-1.75-3.40625-4.640625s1.296875-4.640625 3.40625-4.640625zm.578125-6.3125-2.1875 3.359375h1.359375l3.390625-3.359375zm0 0"/></symbol><symbol id="aB" overflow="visible"><path d="m4.875-2.359375h-2.375v2.359375h2.375zm0-9.5625h-2.375v2.359375h2.375zm0 0"/></symbol><symbol id="aC" overflow="visible"><path d="m11.640625-2.46875c0 .375-.109375.765625-.359375 1.0625-.78125.921875-2.546875 2.0625-3.953125 2.953125-1.390625.890625-3.15625 2.0625-4.3125 2.390625-.140625.046875-.328125.078125-.46875.078125-.8125 0-1.546875-.625-1.546875-1.546875 0-.375.109375-.765625.359375-1.0625.78125-.921875 2.546875-2.0625 3.953125-2.953125 1.390625-.890625 3.171875-2.0625 4.3125-2.390625.140625-.046875.328125-.078125.46875-.078125.8125 0 1.546875.625 1.546875 1.546875zm-1.875-2.5c-2.765625 0-5.015625.578125-6.96875 1.90625-1.171875.8125-1.953125 2.0625-2.390625 3.4375-.21875.65625-.40625 1.390625-.40625 2.09375 0 1.734375 1.25 2.5 2.875 2.5 2.765625 0 5.015625-.578125 6.96875-1.90625 1.171875-.8125 1.953125-2.0625 2.390625-3.4375.21875-.65625.40625-1.390625.40625-2.09375 0-1.734375-1.25-2.5-2.875-2.5zm0 0"/></symbol><symbol id="aD" overflow="visible"><path d="m8.1875-4.96875c-1.546875 0-3.03125.515625-4.359375 1.3125-1.734375 1.046875-3.828125 2.84375-3.828125 5.46875 0 2.171875 1.921875 3.15625 3.875 3.15625 1.546875 0 3.015625-.515625 4.34375-1.3125 1.734375-1.046875 3.796875-2.84375 3.796875-5.46875 0-2.171875-1.875-3.15625-3.828125-3.15625zm0 0"/></symbol><symbol id="aE" overflow="visible"><path d="m13.78125-9.578125c-.578125-2.578125-1.28125-5.125-2.015625-7.671875 3.53125-4.015625 6.734375-8.140625 6.734375-13.453125 0-4.171875-2.28125-10.140625-4.859375-13.234375-.1875-.140625-.40625-.140625-.59375 0-3.5 2.546875-5.53125 6.59375-5.53125 10.875 0 1.921875.046875 3.796875.265625 5.671875.25 2.40625.875 4.71875 1.546875 7.046875-4.359375 4.9375-9.25 9.65625-9.25 16.21875 0 7.40625 5.34375 13.703125 12.265625 13.703125 1.140625 0 2.21875-.109375 3.28125-.296875.109375 1.1875.1875 2.359375.1875 3.546875 0 .65625-.03125 1.28125-.078125 1.953125-.21875 3.640625-2.46875 7-5.890625 7.078125-.046875 0-.078125.03125-.109375.03125-1.890625 0-3.5-1.0625-4.46875-2.578125.40625.1875.859375.328125 1.296875.328125 1.921875 0 3.5-1.578125 3.5-3.5 0-2.0625-1.515625-3.828125-3.5-3.828125-2.171875 0-4.125 1.6875-4.125 3.828125 0 3.984375 3.203125 7.1875 7.1875 7.1875 4.34375 0 7.328125-3.90625 7.59375-8.328125.03125-.703125.03125-1.359375.03125-2.0625 0-1.328125-.078125-2.65625-.1875-3.984375.96875-.296875 1.890625-.734375 2.6875-1.359375 2.734375-2.03125 3.953125-4.859375 3.953125-7.671875 0-4.859375-3.6875-9.546875-9.359375-9.546875-.1875 0-.375.046875-.5625.046875zm3.140625 17.140625c-.515625-4.578125-1.375-8.921875-2.28125-13.234375 4.046875.328125 6.59375 3.71875 6.59375 7.109375 0 2.578125-1.765625 5.234375-4.3125 6.125zm-14.3125-8.703125c0-5.90625 3.984375-10.359375 7.96875-14.8125.59375 2.171875 1.1875 4.34375 1.703125 6.546875-3.734375.859375-5.828125 3.984375-5.828125 7.234375 0 2.578125 1.328125 5.1875 4.265625 6.78125.125.03125.234375.078125.34375.078125.40625 0 .734375-.375.734375-.78125 0-.1875-.109375-.375-.265625-.515625-2.0625-1.171875-3.015625-2.953125-3.015625-4.5625 0-2.1875 1.6875-4.140625 4.609375-4.46875.953125 4.421875 1.796875 8.8125 2.359375 13.53125-1 .140625-2 .21875-3.03125.21875-5 0-9.84375-4.234375-9.84375-9.25zm12.546875-37.5625c.625 1.953125.765625 2.90625.765625 5.046875 0 4.6875-2.46875 8.40625-5.484375 11.984375-.671875-2.328125-1.21875-4.578125-1.21875-7.375 0-4.09375 2.28125-7.8125 5.9375-9.65625zm0 0"/></symbol><symbol id="aF" overflow="visible"><path d="m.921875-1.625c.03125-1.21875.84375-2.28125 1.984375-2.28125 1.109375 0 1.625 1.296875 1.625 2.546875 0 2.171875-1.84375 3.71875-3.53125 5.125-.078125-.8125-.15625-1.625-.15625-2.4375 0-.15625.046875-.265625.046875-.40625zm-1.84375-15.4375.40625 22.078125c0 .4375.328125.765625.78125.765625.65625 0 .953125-.765625 1.46875-1.171875 2.3125-1.875 5.640625-3.203125 5.640625-6.234375 0-1.984375-1.484375-3.6875-3.4375-3.6875-1.171875 0-2.28125.40625-3.234375 1.109375l.21875-12.859375c-.296875-.15625-.59375-.265625-.921875-.265625s-.625.109375-.921875.265625zm0 0"/></symbol><symbol id="aG" overflow="visible"><path d="m-.265625-13.828125.265625 21.203125c0 .328125.296875.625.625.625.03125 0 .03125-.03125.078125-.03125l4.015625-.671875-.078125 6.53125c.265625.140625.59375.21875.890625.21875s.625-.078125.875-.21875l-.25-21.203125c0-.328125-.296875-.625-.625-.625-.046875 0-.078125.03125-.109375.03125l-4.015625.671875.0625-6.53125c-.25-.140625-.546875-.21875-.84375-.21875s-.625.078125-.890625.21875zm5.125 9.625-.0625 7.859375-3.546875.546875.109375-7.859375zm0 0"/></symbol><symbol id="aH" overflow="visible"><path d="m4.828125-9.921875v9.921875h2.84375v-14.375h-1.890625c-.453125 1.703125-1.921875 2.578125-4.40625 2.578125v1.875zm0 0"/></symbol><symbol id="aI" overflow="visible"><path d="m4.34375-2.96875h-3.046875v2.96875h3.046875zm0 0"/></symbol><g clip-path="url(#a)"><path d="m3.203125 6199.178125h5946.328125" fill="none" stroke="#000" stroke-linecap="round" stroke-miterlimit="10" stroke-width="6.43238" transform="matrix(.1 0 0 -.1 0 682.41)"/></g><g clip-path="url(#b)"><path d="m3.203125 6291.365625h5946.328125" fill="none" stroke="#000" stroke-linecap="round" stroke-miterlimit="10" stroke-width="6.43238" transform="matrix(.1 0 0 -.1 0 682.41)"/></g><g clip-path="url(#c)"><path d="m3.203125 6383.514062h5946.328125" fill="none" stroke="#000" stroke-linecap="round" stroke-miterlimit="10" stroke-width="6.43238" transform="matrix(.1 0 0 -.1 0 682.41)"/></g><g clip-path="url(#d)"><path d="m3.203125 6475.6625h5946.328125" fill="none" stroke="#000" stroke-linecap="round" stroke-miterlimit="10" stroke-width="6.43238" transform="matrix(.1 0 0 -.1 0 682.41)"/></g><g clip-path="url(#e)"><path d="m3.203125 6567.810937h5946.328125" fill="none" stroke="#000" stroke-linecap="round" stroke-miterlimit="10" stroke-width="6.43238" transform="matrix(.1 0 0 -.1 0 682.41)"/></g><g clip-path="url(#f)"><path d="m5942.539062 6542.146875h8.203126v26.875h-8.203126zm0 0" style="fill:none;stroke-width:3.98107;stroke-linecap:round;stroke-linejoin:round;stroke:#000;stroke-miterlimit:10" transform="matrix(.1 0 0 -.1 0 682.41)"/><path d="m594.253906 28.195312h.820313v-2.6875h-.820313zm0 0"/></g><g clip-path="url(#g)"><path d="m5942.539062 6449.998437h8.203126v51.328125h-8.203126zm0 0" style="fill:none;stroke-width:3.98107;stroke-linecap:round;stroke-linejoin:round;stroke:#000;stroke-miterlimit:10" transform="matrix(.1 0 0 -.1 0 682.41)"/><path d="m594.253906 37.410156h.820313v-5.132812h-.820313zm0 0"/></g><g clip-path="url(#h)"><path d="m5942.539062 6357.85h8.203126v51.328125h-8.203126zm0 0" style="fill:none;stroke-width:3.98107;stroke-linecap:round;stroke-linejoin:round;stroke:#000;stroke-miterlimit:10" transform="matrix(.1 0 0 -.1 0 682.41)"/><path d="m594.253906 46.625h.820313v-5.128906h-.820313zm0 0"/></g><g clip-path="url(#i)"><path d="m5942.539062 6265.701562h8.203126v51.289063h-8.203126zm0 0" style="fill:none;stroke-width:3.98107;stroke-linecap:round;stroke-linejoin:round;stroke:#000;stroke-miterlimit:10" transform="matrix(.1 0 0 -.1 0 682.41)"/></g><g clip-path="url(#j)"><path d="m594.253906 55.839844h.820313v-5.128906h-.820313zm0 0"/></g><g clip-path="url(#k)"><path d="m5942.539062 6197.967187h8.203126v26.875h-8.203126zm0 0" style="fill:none;stroke-width:3.98107;stroke-linecap:round;stroke-linejoin:round;stroke:#000;stroke-miterlimit:10" transform="matrix(.1 0 0 -.1 0 682.41)"/><path d="m594.253906 62.613281h.820313v-2.6875h-.820313zm0 0"/></g><path d="m4698.59375 6225.935937h4.414062v293.789063h-4.414062zm0 0" style="fill:none;stroke-width:3.98107;stroke-linecap:round;stroke-linejoin:round;stroke:#000;stroke-miterlimit:10" transform="matrix(.1 0 0 -.1 0 682.41)"/><path d="m469.859375 59.816406h.4375v-29.378906h-.4375zm0 0"/><use x="440.196" xlink:href="#V" y="96.226"/><use x="451.59052" xlink:href="#W" y="96.226"/><use x="462.985431" xlink:href="#X" y="96.226"/><use x="475.570968" xlink:href="#Y" y="96.226"/><use x="457.8546" xlink:href="#aC" y="62.4905"/><path d="m4073.085938 6265.389062h4.375v300.429688h-4.375zm0 0" style="fill:none;stroke-width:3.98107;stroke-linecap:round;stroke-linejoin:round;stroke:#000;stroke-miterlimit:10" transform="matrix(.1 0 0 -.1 0 682.41)"/><path d="m407.308594 55.871094h.4375v-30.042969h-.4375zm0 0"/><use x="395.635" xlink:href="#Z" y="96.226"/><use x="395.911172" xlink:href="#aD" y="57.8826"/><use x="508.295172" xlink:href="#aa" y="96.226"/><use x="520.540474" xlink:href="#ab" y="96.226"/><use x="531.42562" xlink:href="#ac" y="96.226"/><use x="544.011157" xlink:href="#ad" y="96.226"/><use x="549.964668" xlink:href="#ae" y="96.226"/><path d="m3453.632812 6311.482812h4.375v300.429688h-4.375zm0 0" style="fill:none;stroke-width:3.98107;stroke-linecap:round;stroke-linejoin:round;stroke:#000;stroke-miterlimit:10" transform="matrix(.1 0 0 -.1 0 682.41)"/><path d="m345.363281 51.261719h.4375v-30.039063h-.4375zm0 0"/><use x="318.555" xlink:href="#af" y="96.226"/><use x="337.433863" xlink:href="#ag" y="96.226"/><use x="342.536591" xlink:href="#aa" y="96.226"/><use x="355.122103" xlink:href="#ah" y="96.226"/><use x="333.9679" xlink:href="#aD" y="53.2748"/><path d="m2834.21875 6311.482812h4.375v300.429688h-4.375zm0 0" style="fill:none;stroke-width:3.98107;stroke-linecap:round;stroke-linejoin:round;stroke:#000;stroke-miterlimit:10" transform="matrix(.1 0 0 -.1 0 682.41)"/><path d="m283.421875 51.261719h.4375v-30.039063h-.4375zm0 0"/><path d="m2337.03125 5924.295312h55.703125v3.242188h-55.703125zm0 0" style="fill:none;stroke-width:5.14222;stroke-linecap:round;stroke-linejoin:round;stroke:#000;stroke-miterlimit:10" transform="matrix(.1 0 0 -.1 0 682.41)"/><path d="m233.703125 89.980469h5.570313v-.320313h-5.570313zm0 0"/><path d="m5379.609375 6179.842187h4.375v293.828125h-4.375zm0 0" style="fill:none;stroke-width:3.98107;stroke-linecap:round;stroke-linejoin:round;stroke:#000;stroke-miterlimit:10" transform="matrix(.1 0 0 -.1 0 682.41)"/><path d="m537.960938 64.425781h.4375v-29.382812h-.4375zm0 0"/><use x="252.869" xlink:href="#ai" y="96.226"/><use x="265.454512" xlink:href="#aj" y="96.226"/><use x="278.039633" xlink:href="#af" y="96.226"/><use x="296.918496" xlink:href="#ae" y="96.226"/><use x="525.954" xlink:href="#aC" y="67.0979"/><use x="7.372" xlink:href="#aE" y="53.2749"/><use x="272.023893" xlink:href="#aD" y="53.2749"/><path d="m878.476562 6109.021875h4.375v300.429687h-4.375zm0 0" style="fill:none;stroke-width:3.98107;stroke-linecap:round;stroke-linejoin:round;stroke:#000;stroke-miterlimit:10" transform="matrix(.1 0 0 -.1 0 682.41)"/><path d="m87.847656 71.507812h.4375v-30.042968h-.4375zm0 0"/><use x="54.1777" xlink:href="#aH" y="96.226"/><use x="65.40272" xlink:href="#aI" y="96.226"/><use x="80.2304" xlink:href="#ak" y="96.226"/><use x="95.707717" xlink:href="#W" y="96.226"/><use x="40.582" xlink:href="#aF" y="44.0592"/><use x="48.91091" xlink:href="#aF" y="30.2362"/><use x="57.23904" xlink:href="#aF" y="48.6671"/><use x="87.64994" xlink:href="#aD" y="39.45187"/><path d="m2117.34375 6109.021875h4.375v300.429687h-4.375zm0 0" style="fill:none;stroke-width:3.98107;stroke-linecap:round;stroke-linejoin:round;stroke:#000;stroke-miterlimit:10" transform="matrix(.1 0 0 -.1 0 682.41)"/><path d="m211.734375 71.507812h.4375v-30.042968h-.4375zm0 0"/><use x="215.003" xlink:href="#ag" y="96.226"/><use x="211.53816" xlink:href="#aD" y="39.4518"/><use x="139.95536" xlink:href="#aG" y="44.05922"/><path d="m1497.929688 6078.31875h4.375v285.078125h-4.375zm0 0" style="fill:none;stroke-width:3.98107;stroke-linecap:round;stroke-linejoin:round;stroke:#000;stroke-miterlimit:10" transform="matrix(.1 0 0 -.1 0 682.41)"/><path d="m149.792969 74.578125h.4375v-28.507813h-.4375zm0 0"/><use x="143.025" xlink:href="#X" y="96.226"/><use x="155.610524" xlink:href="#aa" y="96.226"/><use x="149.59453" xlink:href="#aD" y="44.0592"/><g clip-path="url(#l)"><path d="m3.203125 5093.357812h5946.328125" style="fill:none;stroke-width:6.43238;stroke-linecap:round;stroke-linejoin:round;stroke:#000;stroke-miterlimit:10" transform="matrix(.1 0 0 -.1 0 682.41)"/></g><g clip-path="url(#m)"><path d="m3.203125 5185.50625h5946.328125" style="fill:none;stroke-width:6.43238;stroke-linecap:round;stroke-linejoin:round;stroke:#000;stroke-miterlimit:10" transform="matrix(.1 0 0 -.1 0 682.41)"/></g><g clip-path="url(#n)"><path d="m3.203125 5277.654687h5946.328125" style="fill:none;stroke-width:6.43238;stroke-linecap:round;stroke-linejoin:round;stroke:#000;stroke-miterlimit:10" transform="matrix(.1 0 0 -.1 0 682.41)"/></g><g clip-path="url(#o)"><path d="m3.203125 5369.803125h5946.328125" style="fill:none;stroke-width:6.43238;stroke-linecap:round;stroke-linejoin:round;stroke:#000;stroke-miterlimit:10" transform="matrix(.1 0 0 -.1 0 682.41)"/></g><g clip-path="url(#p)"><path d="m3.203125 5461.951562h5946.328125" style="fill:none;stroke-width:6.43238;stroke-linecap:round;stroke-linejoin:round;stroke:#000;stroke-miterlimit:10" transform="matrix(.1 0 0 -.1 0 682.41)"/></g><g clip-path="url(#q)"><path d="m5946.640625 5093.357812v368.59375" fill="none" stroke="#000" stroke-linejoin="round" stroke-miterlimit="10" stroke-width="12.2197" transform="matrix(.1 0 0 -.1 0 682.41)"/></g><path d="m4714.21875 5212.225h4.375v293.828125h-4.375zm0 0" fill="none" stroke="#000" stroke-linejoin="round" stroke-miterlimit="10" stroke-width="3.98107" transform="matrix(.1 0 0 -.1 0 682.41)"/><path d="m471.421875 161.1875h.4375v-29.382812h-.4375zm0 0"/><use x="198.74" xlink:href="#ah" y="206.561"/><use x="204.69312" xlink:href="#al" y="206.561"/><use x="217.278632" xlink:href="#aa" y="206.561"/><use x="450.767963" xlink:href="#am" y="206.561"/><use x="455.870691" xlink:href="#ac" y="206.561"/><use x="468.456228" xlink:href="#ad" y="206.561"/><use x="474.409347" xlink:href="#ae" y="206.561"/><use x="459.413" xlink:href="#aC" y="163.8602"/><path d="m3286.953125 5049.25625h4.375v293.828125h-4.375zm0 0" fill="none" stroke="#000" stroke-linejoin="round" stroke-miterlimit="10" stroke-width="3.98107" transform="matrix(.1 0 0 -.1 0 682.41)"/><path d="m328.695312 177.484375h.4375v-29.382813h-.4375zm0 0"/><use x="325.976" xlink:href="#al" y="206.561"/><use x="338.561512" xlink:href="#an" y="206.561"/><use x="328.49827" xlink:href="#aC" y="145.4294"/><path d="m2084.84375 5003.1625h4.375v300.429687h-4.375zm0 0" fill="none" stroke="#000" stroke-linejoin="round" stroke-miterlimit="10" stroke-width="3.98107" transform="matrix(.1 0 0 -.1 0 682.41)"/><path d="m208.484375 182.09375h.4375v-30.042969h-.4375zm0 0"/><path d="m1546.445312 4820.975h55.703126v3.203125h-55.703126zm0 0" fill="none" stroke="#000" stroke-linejoin="round" stroke-miterlimit="10" stroke-width="5.14222" transform="matrix(.1 0 0 -.1 0 682.41)"/><path d="m154.644531 200.3125h5.566407v-.320312h-5.566407zm0 0"/><path d="m3944.335938 4820.975h55.664062v3.203125h-55.664062zm0 0" fill="none" stroke="#000" stroke-linejoin="round" stroke-miterlimit="10" stroke-width="5.14222" transform="matrix(.1 0 0 -.1 0 682.41)"/><path d="m394.433594 200.3125h5.566406v-.320312h-5.566406zm0 0"/><use x="7.37227" xlink:href="#aE" y="163.86"/><use x="40.58207" xlink:href="#aF" y="154.64477"/><use x="48.91098" xlink:href="#aF" y="140.82177"/><use x="57.23911" xlink:href="#aF" y="159.25267"/><use x="208.28711" xlink:href="#aD" y="150.03705"/><use x="78.43511" xlink:href="#aG" y="154.64486"/><path d="m882.734375 4972.459375h4.375v285.078125h-4.375zm0 0" fill="none" stroke="#000" stroke-linejoin="round" stroke-miterlimit="10" stroke-width="3.98107" transform="matrix(.1 0 0 -.1 0 682.41)"/><path d="m88.273438 185.164062h.4375v-28.507812h-.4375zm0 0"/><use x="72.0656" xlink:href="#ao" y="206.561"/><use x="90.944469" xlink:href="#al" y="206.561"/><use x="103.529993" xlink:href="#aa" y="206.561"/><use x="88.0738" xlink:href="#aD" y="154.645"/><g clip-path="url(#r)"><path d="m3.203125 3987.498437h5946.328125" style="fill:none;stroke-width:6.43238;stroke-linecap:round;stroke-linejoin:round;stroke:#000;stroke-miterlimit:10" transform="matrix(.1 0 0 -.1 0 682.41)"/></g><g clip-path="url(#s)"><path d="m3.203125 4079.646875h5946.328125" style="fill:none;stroke-width:6.43238;stroke-linecap:round;stroke-linejoin:round;stroke:#000;stroke-miterlimit:10" transform="matrix(.1 0 0 -.1 0 682.41)"/></g><g clip-path="url(#t)"><path d="m3.203125 4171.795312h5946.328125" style="fill:none;stroke-width:6.43238;stroke-linecap:round;stroke-linejoin:round;stroke:#000;stroke-miterlimit:10" transform="matrix(.1 0 0 -.1 0 682.41)"/></g><g clip-path="url(#u)"><path d="m3.203125 4263.94375h5946.328125" style="fill:none;stroke-width:6.43238;stroke-linecap:round;stroke-linejoin:round;stroke:#000;stroke-miterlimit:10" transform="matrix(.1 0 0 -.1 0 682.41)"/></g><g clip-path="url(#v)"><path d="m3.203125 4356.092187h5946.328125" style="fill:none;stroke-width:6.43238;stroke-linecap:round;stroke-linejoin:round;stroke:#000;stroke-miterlimit:10" transform="matrix(.1 0 0 -.1 0 682.41)"/></g><path d="m5205.507812 3895.310937h174.023438" style="fill:none;stroke-width:15.6478;stroke-linecap:round;stroke-linejoin:round;stroke:#000;stroke-miterlimit:10" transform="matrix(.1 0 0 -.1 0 682.41)"/><g clip-path="url(#w)"><path d="m5946.640625 3987.498437v368.59375" fill="none" stroke="#000" stroke-linejoin="round" stroke-miterlimit="10" stroke-width="12.2197" transform="matrix(.1 0 0 -.1 0 682.41)"/></g><path d="m4711.40625 3961.521875h4.375v300.429687h-4.375zm0 0" fill="none" stroke="#000" stroke-linejoin="round" stroke-miterlimit="10" stroke-width="3.98107" transform="matrix(.1 0 0 -.1 0 682.41)"/><path d="m471.140625 286.257812h.4375v-30.042968h-.4375zm0 0"/><use x="459.47" xlink:href="#Z" y="319.291"/><use x="459.746563" xlink:href="#aD" y="288.2691"/><path d="m4079.609375 4007.615625h4.375v300.429687h-4.375zm0 0" fill="none" stroke="#000" stroke-linejoin="round" stroke-miterlimit="10" stroke-width="3.98107" transform="matrix(.1 0 0 -.1 0 682.41)"/><path d="m407.957031 281.648438h.4375v-30.042969h-.4375zm0 0"/><use x="384.296" xlink:href="#an" y="319.291"/><use x="389.398338" xlink:href="#al" y="319.291"/><use x="401.98385" xlink:href="#af" y="319.291"/><use x="396.5624" xlink:href="#aD" y="283.6613"/><path d="m3504.570312 4053.709375h4.375v281.640625h-4.375zm0 0" fill="none" stroke="#000" stroke-linejoin="round" stroke-miterlimit="10" stroke-width="3.98107" transform="matrix(.1 0 0 -.1 0 682.41)"/><path d="m350.457031 277.039062h.4375v-28.164062h-.4375zm0 0"/><use x="339.062" xlink:href="#aD" y="279.054"/><path d="m2929.570312 4376.248437v-40.273437l579.375-18.90625v40.273437zm0 0" fill="none" stroke="#000" stroke-linejoin="round" stroke-miterlimit="10" stroke-width="3.98107" transform="matrix(.1 0 0 -.1 0 682.41)"/><path d="m292.957031 244.785156v4.027344l57.9375 1.890625v-4.027344zm0 0"/><path d="m2873.554688 3970.076562c117.265624-114.6875 445.585937-133.085937 575-32.265625-128.945313-93.125-457.304688-74.726562-575 32.265625zm0 0" style="fill:none;stroke-width:5.14642;stroke-linecap:round;stroke-linejoin:round;stroke:#000;stroke-miterlimit:10" transform="matrix(.1 0 0 -.1 0 682.41)"/><path d="m287.355469 285.402344c11.726562 11.46875 44.558593 13.308594 57.5 3.226562-12.894531 9.3125-45.730469 7.472656-57.5-3.226562"/><path d="m3395.859375 3693.670312h55.664063v3.203125h-55.664063zm0 0" fill="none" stroke="#000" stroke-linejoin="round" stroke-miterlimit="10" stroke-width="5.14222" transform="matrix(.1 0 0 -.1 0 682.41)"/><path d="m339.582031 313.042969h5.570313v-.320313h-5.570313zm0 0"/><use x="522.93" xlink:href="#aC" y="292.877"/><path d="m5349.375 3922.06875h4.375v293.828125h-4.375zm0 0" fill="none" stroke="#000" stroke-linejoin="round" stroke-miterlimit="10" stroke-width="3.98107" transform="matrix(.1 0 0 -.1 0 682.41)"/><path d="m534.9375 290.203125h.4375v-29.378906h-.4375zm0 0"/><use x="508.163" xlink:href="#ap" y="319.291"/><use x="519.048147" xlink:href="#X" y="319.291"/><use x="531.804386" xlink:href="#aq" y="319.291"/><use x="544.049688" xlink:href="#ar" y="319.291"/><use x="7.373" xlink:href="#aE" y="274.4461"/><path d="m878.476562 3897.303125h4.375v300.429687h-4.375zm0 0" fill="none" stroke="#000" stroke-linejoin="round" stroke-miterlimit="10" stroke-width="3.98107" transform="matrix(.1 0 0 -.1 0 682.41)"/><path d="m87.847656 292.679688h.4375v-30.042969h-.4375zm0 0"/><use x="69.6863" xlink:href="#as" y="319.291"/><use x="86.183537" xlink:href="#al" y="319.291"/><use x="98.769061" xlink:href="#af" y="319.291"/><use x="87.65" xlink:href="#aD" y="260.6226"/><use x="40.582" xlink:href="#aF" y="265.23041"/><use x="48.91091" xlink:href="#aF" y="251.40741"/><use x="57.23904" xlink:href="#aF" y="269.83831"/><use x="281.56104" xlink:href="#ah" y="319.29101"/><use x="287.854003" xlink:href="#aj" y="319.29101"/><path d="m2929.570312 4099.764062h4.375v254.21875h-4.375zm0 0" fill="none" stroke="#000" stroke-linejoin="round" stroke-miterlimit="10" stroke-width="3.98107" transform="matrix(.1 0 0 -.1 0 682.41)"/><path d="m292.957031 272.433594h.4375v-25.421875h-.4375zm0 0"/><use x="281.561" xlink:href="#aD" y="274.446"/><path d="m2200.3125 3897.303125h4.375v300.429687h-4.375zm0 0" fill="none" stroke="#000" stroke-linejoin="round" stroke-miterlimit="10" stroke-width="3.98107" transform="matrix(.1 0 0 -.1 0 682.41)"/><path d="m220.03125 292.679688h.4375v-30.042969h-.4375zm0 0"/><use x="208.418" xlink:href="#V" y="319.291"/><use x="219.81252" xlink:href="#W" y="319.291"/><use x="230.698056" xlink:href="#al" y="319.291"/><use x="219.8348" xlink:href="#aD" y="260.6226"/><use x="147.0118" xlink:href="#aG" y="265.23041"/><path d="m1568.476562 3866.6h4.375v285.078125h-4.375zm0 0" fill="none" stroke="#000" stroke-linejoin="round" stroke-miterlimit="10" stroke-width="3.98107" transform="matrix(.1 0 0 -.1 0 682.41)"/><path d="m156.847656 295.75h.4375v-28.507812h-.4375zm0 0"/><use x="132.393" xlink:href="#af" y="319.291"/><use x="151.271875" xlink:href="#al" y="319.291"/><use x="163.857399" xlink:href="#V" y="319.291"/><use x="175.252298" xlink:href="#W" y="319.291"/><use x="185.287043" xlink:href="#at" y="319.291"/><use x="156.6508" xlink:href="#aD" y="265.2305"/><g clip-path="url(#x)"><path d="m3.203125 2881.639062h5946.328125" style="fill:none;stroke-width:6.43238;stroke-linecap:round;stroke-linejoin:round;stroke:#000;stroke-miterlimit:10" transform="matrix(.1 0 0 -.1 0 682.41)"/></g><g clip-path="url(#y)"><path d="m3.203125 2973.7875h5946.328125" style="fill:none;stroke-width:6.43238;stroke-linecap:round;stroke-linejoin:round;stroke:#000;stroke-miterlimit:10" transform="matrix(.1 0 0 -.1 0 682.41)"/></g><g clip-path="url(#z)"><path d="m3.203125 3065.935937h5946.328125" style="fill:none;stroke-width:6.43238;stroke-linecap:round;stroke-linejoin:round;stroke:#000;stroke-miterlimit:10" transform="matrix(.1 0 0 -.1 0 682.41)"/></g><g clip-path="url(#A)"><path d="m3.203125 3158.084375h5946.328125" style="fill:none;stroke-width:6.43238;stroke-linecap:round;stroke-linejoin:round;stroke:#000;stroke-miterlimit:10" transform="matrix(.1 0 0 -.1 0 682.41)"/></g><g clip-path="url(#B)"><path d="m3.203125 3250.232812h5946.328125" style="fill:none;stroke-width:6.43238;stroke-linecap:round;stroke-linejoin:round;stroke:#000;stroke-miterlimit:10" transform="matrix(.1 0 0 -.1 0 682.41)"/></g><g clip-path="url(#C)"><path d="m5942.539062 3224.607812h8.203126v26.875h-8.203126zm0 0" style="fill:none;stroke-width:3.98107;stroke-linecap:round;stroke-linejoin:round;stroke:#000;stroke-miterlimit:10" transform="matrix(.1 0 0 -.1 0 682.41)"/></g><g clip-path="url(#D)"><path d="m594.253906 359.949219h.820313v-2.6875h-.820313zm0 0"/></g><g clip-path="url(#E)"><path d="m5942.539062 3132.459375h8.203126v51.289062h-8.203126zm0 0" style="fill:none;stroke-width:3.98107;stroke-linecap:round;stroke-linejoin:round;stroke:#000;stroke-miterlimit:10" transform="matrix(.1 0 0 -.1 0 682.41)"/></g><g clip-path="url(#F)"><path d="m594.253906 369.164062h.820313v-5.128906h-.820313zm0 0"/></g><g clip-path="url(#G)"><path d="m5942.539062 3040.271875h8.203126v51.328125h-8.203126zm0 0" style="fill:none;stroke-width:3.98107;stroke-linecap:round;stroke-linejoin:round;stroke:#000;stroke-miterlimit:10" transform="matrix(.1 0 0 -.1 0 682.41)"/><path d="m594.253906 378.382812h.820313v-5.132812h-.820313zm0 0"/></g><g clip-path="url(#H)"><path d="m5942.539062 2948.123437h8.203126v51.328125h-8.203126zm0 0" style="fill:none;stroke-width:3.98107;stroke-linecap:round;stroke-linejoin:round;stroke:#000;stroke-miterlimit:10" transform="matrix(.1 0 0 -.1 0 682.41)"/><path d="m594.253906 387.597656h.820313v-5.132812h-.820313zm0 0"/></g><g clip-path="url(#I)"><path d="m5942.539062 2880.428125h8.203126v26.875h-8.203126zm0 0" style="fill:none;stroke-width:3.98107;stroke-linecap:round;stroke-linejoin:round;stroke:#000;stroke-miterlimit:10" transform="matrix(.1 0 0 -.1 0 682.41)"/><path d="m594.253906 394.367188h.820313v-2.6875h-.820313zm0 0"/></g><path d="m4708.789062 2908.357812h4.375v293.828125h-4.375zm0 0" style="fill:none;stroke-width:3.98107;stroke-linecap:round;stroke-linejoin:round;stroke:#000;stroke-miterlimit:10" transform="matrix(.1 0 0 -.1 0 682.41)"/><path d="m470.878906 391.574219h.4375v-29.382813h-.4375zm0 0"/><use x="458.9" xlink:href="#al" y="429.798"/><use x="458.870703" xlink:href="#aC" y="394.2468"/><path d="m4087.8125 2947.85h4.375v300.429687h-4.375zm0 0" style="fill:none;stroke-width:3.98107;stroke-linecap:round;stroke-linejoin:round;stroke:#000;stroke-miterlimit:10" transform="matrix(.1 0 0 -.1 0 682.41)"/><path d="m408.78125 387.625h.4375v-30.042969h-.4375zm0 0"/><use x="381.377" xlink:href="#aa" y="429.798"/><use x="393.962512" xlink:href="#al" y="429.798"/><use x="406.548024" xlink:href="#af" y="429.798"/><use x="397.3852" xlink:href="#aD" y="389.639"/><path d="m3472.96875 2993.904687h4.375v300.429688h-4.375zm0 0" style="fill:none;stroke-width:3.98107;stroke-linecap:round;stroke-linejoin:round;stroke:#000;stroke-miterlimit:10" transform="matrix(.1 0 0 -.1 0 682.41)"/><path d="m347.296875 383.019531h.4375v-30.042969h-.4375zm0 0"/><use x="333.072" xlink:href="#al" y="429.798"/><use x="345.657512" xlink:href="#an" y="429.798"/><use x="335.89934" xlink:href="#aD" y="385.0312"/><path d="m2417.5 2588.592187h55.664062v3.203125h-55.664062zm0 0" style="fill:none;stroke-width:5.14222;stroke-linecap:round;stroke-linejoin:round;stroke:#000;stroke-miterlimit:10" transform="matrix(.1 0 0 -.1 0 682.41)"/><path d="m241.75 423.550781h5.566406v-.320312h-5.566406zm0 0"/><path d="m4833.203125 2588.592187h55.703125v3.203125h-55.703125zm0 0" style="fill:none;stroke-width:5.14222;stroke-linecap:round;stroke-linejoin:round;stroke:#000;stroke-miterlimit:10" transform="matrix(.1 0 0 -.1 0 682.41)"/><path d="m483.320312 423.550781h5.570313v-.320312h-5.570313zm0 0"/><use x="526.462" xlink:href="#aC" y="398.854"/><path d="m5384.6875 2862.264062h4.375v293.828125h-4.375zm0 0" style="fill:none;stroke-width:3.98107;stroke-linecap:round;stroke-linejoin:round;stroke:#000;stroke-miterlimit:10" transform="matrix(.1 0 0 -.1 0 682.41)"/><path d="m538.46875 396.183594h.4375v-29.382813h-.4375zm0 0"/><use x="500.724" xlink:href="#aa" y="429.798"/><use x="512.969302" xlink:href="#ab" y="429.798"/><use x="523.854838" xlink:href="#X" y="429.798"/><use x="536.440374" xlink:href="#V" y="429.798"/><use x="547.835285" xlink:href="#W" y="429.798"/><use x="558.549728" xlink:href="#ae" y="429.798"/><path d="m990.46875 2855.6625h4.375v300.429687h-4.375zm0 0" style="fill:none;stroke-width:3.98107;stroke-linecap:round;stroke-linejoin:round;stroke:#000;stroke-miterlimit:10" transform="matrix(.1 0 0 -.1 0 682.41)"/><path d="m99.046875 396.84375h.4375v-30.042969h-.4375zm0 0"/><use x="76.6598" xlink:href="#au" y="429.798"/><use x="91.796884" xlink:href="#af" y="429.798"/><use x="87.65" xlink:href="#aD" y="398.8542"/><use x="40.582" xlink:href="#aF" y="375.8159"/><use x="48.91091" xlink:href="#aF" y="361.9925"/><use x="57.23904" xlink:href="#aF" y="380.4234"/><use x="7.37224" xlink:href="#aE" y="385.03121"/><use x="263.58324" xlink:href="#an" y="429.79801"/><use x="268.685969" xlink:href="#al" y="429.79801"/><use x="281.271481" xlink:href="#av" y="429.79801"/><path d="m2835.039062 2855.6625h4.375v300.429687h-4.375zm0 0" style="fill:none;stroke-width:3.98107;stroke-linecap:round;stroke-linejoin:round;stroke:#000;stroke-miterlimit:10" transform="matrix(.1 0 0 -.1 0 682.41)"/><path d="m283.503906 396.84375h.4375v-30.042969h-.4375zm0 0"/><use x="272.109" xlink:href="#aD" y="398.854"/><path d="m2220.195312 2855.6625h4.375v300.429687h-4.375zm0 0" style="fill:none;stroke-width:3.98107;stroke-linecap:round;stroke-linejoin:round;stroke:#000;stroke-miterlimit:10" transform="matrix(.1 0 0 -.1 0 682.41)"/><path d="m222.019531 396.84375h.4375v-30.042969h-.4375zm0 0"/><use x="207.795" xlink:href="#an" y="429.798"/><use x="212.897729" xlink:href="#X" y="429.798"/><use x="210.62234" xlink:href="#aD" y="398.8542"/><path d="m1605.3125 2855.6625h4.375v300.429687h-4.375zm0 0" style="fill:none;stroke-width:3.98107;stroke-linecap:round;stroke-linejoin:round;stroke:#000;stroke-miterlimit:10" transform="matrix(.1 0 0 -.1 0 682.41)"/><path d="m160.53125 396.84375h.4375v-30.042969h-.4375zm0 0"/><use x="148.861" xlink:href="#Z" y="429.798"/><use x="149.136781" xlink:href="#aD" y="398.8542"/><g clip-path="url(#J)"><path d="m3.203125 1775.779687h5946.328125" style="fill:none;stroke-width:6.43238;stroke-linecap:round;stroke-linejoin:round;stroke:#000;stroke-miterlimit:10" transform="matrix(.1 0 0 -.1 0 682.41)"/></g><g clip-path="url(#K)"><path d="m3.203125 1867.928125h5946.328125" style="fill:none;stroke-width:6.43238;stroke-linecap:round;stroke-linejoin:round;stroke:#000;stroke-miterlimit:10" transform="matrix(.1 0 0 -.1 0 682.41)"/></g><g clip-path="url(#L)"><path d="m3.203125 1960.076562h5946.328125" style="fill:none;stroke-width:6.43238;stroke-linecap:round;stroke-linejoin:round;stroke:#000;stroke-miterlimit:10" transform="matrix(.1 0 0 -.1 0 682.41)"/></g><g clip-path="url(#M)"><path d="m3.203125 2052.264062h5946.328125" style="fill:none;stroke-width:6.43238;stroke-linecap:round;stroke-linejoin:round;stroke:#000;stroke-miterlimit:10" transform="matrix(.1 0 0 -.1 0 682.41)"/></g><g clip-path="url(#N)"><path d="m3.203125 2144.4125h5946.328125" style="fill:none;stroke-width:6.43238;stroke-linecap:round;stroke-linejoin:round;stroke:#000;stroke-miterlimit:10" transform="matrix(.1 0 0 -.1 0 682.41)"/></g><g clip-path="url(#O)"><path d="m5946.640625 1775.779687v368.632813" fill="none" stroke="#000" stroke-linejoin="round" stroke-miterlimit="10" stroke-width="12.2197" transform="matrix(.1 0 0 -.1 0 682.41)"/></g><path d="m4716.835938 1756.44375h4.375v293.828125h-4.375zm0 0" fill="none" stroke="#000" stroke-linejoin="round" stroke-miterlimit="10" stroke-width="3.98107" transform="matrix(.1 0 0 -.1 0 682.41)"/><path d="m471.683594 506.765625h.4375v-29.382813h-.4375zm0 0"/><path d="m2188.59375 1841.990625h4.375v300.429687h-4.375zm0 0" fill="none" stroke="#000" stroke-linejoin="round" stroke-miterlimit="10" stroke-width="3.98107" transform="matrix(.1 0 0 -.1 0 682.41)"/><path d="m218.859375 498.210938h.4375v-30.042969h-.4375zm0 0"/><use x="445.761" xlink:href="#an" y="537.086"/><use x="450.863338" xlink:href="#X" y="537.086"/><use x="463.448874" xlink:href="#V" y="537.086"/><use x="474.843785" xlink:href="#W" y="537.086"/><use x="459.6778" xlink:href="#aC" y="509.4399"/><path d="m3392.851562 1802.498437h4.375v293.828125h-4.375zm0 0" fill="none" stroke="#000" stroke-linejoin="round" stroke-miterlimit="10" stroke-width="3.98107" transform="matrix(.1 0 0 -.1 0 682.41)"/><path d="m339.285156 502.160156h.4375v-29.382812h-.4375zm0 0"/><use x="323.651" xlink:href="#ad" y="537.086"/><use x="330.964664" xlink:href="#al" y="537.086"/><use x="327.27834" xlink:href="#aC" y="504.8321"/><path d="m2720.742188 1515.701562h55.703124v3.242188h-55.703124zm0 0" fill="none" stroke="#000" stroke-linejoin="round" stroke-miterlimit="10" stroke-width="5.14222" transform="matrix(.1 0 0 -.1 0 682.41)"/><path d="m272.074219 530.839844h5.570312v-.324219h-5.570312zm0 0"/><use x="7.37227" xlink:href="#aE" y="495.617"/><use x="40.58207" xlink:href="#aF" y="486.40138"/><use x="48.91098" xlink:href="#aF" y="472.57838"/><use x="57.23911" xlink:href="#aF" y="491.00928"/><use x="200.89611" xlink:href="#aw" y="537.08628"/><use x="213.481622" xlink:href="#X" y="537.08628"/><use x="87.65011" xlink:href="#aD" y="495.61718"/><use x="207.46411" xlink:href="#aD" y="500.2246"/><path d="m990.46875 1888.045312h4.375v300.429688h-4.375zm0 0" fill="none" stroke="#000" stroke-linejoin="round" stroke-miterlimit="10" stroke-width="3.98107" transform="matrix(.1 0 0 -.1 0 682.41)"/><path d="m99.046875 493.605469h.4375v-30.042969h-.4375zm0 0"/><use x="73.6828" xlink:href="#ax" y="537.086"/><use x="88.820274" xlink:href="#aj" y="537.086"/><use x="101.405799" xlink:href="#ah" y="537.086"/><use x="107.358907" xlink:href="#ae" y="537.086"/><g clip-path="url(#P)"><path d="m3.203125 669.920312h5946.328125" style="fill:none;stroke-width:6.43238;stroke-linecap:round;stroke-linejoin:round;stroke:#000;stroke-miterlimit:10" transform="matrix(.1 0 0 -.1 0 682.41)"/></g><g clip-path="url(#Q)"><path d="m3.203125 762.06875h5946.328125" style="fill:none;stroke-width:6.43238;stroke-linecap:round;stroke-linejoin:round;stroke:#000;stroke-miterlimit:10" transform="matrix(.1 0 0 -.1 0 682.41)"/></g><g clip-path="url(#R)"><path d="m3.203125 854.25625h5946.328125" style="fill:none;stroke-width:6.43238;stroke-linecap:round;stroke-linejoin:round;stroke:#000;stroke-miterlimit:10" transform="matrix(.1 0 0 -.1 0 682.41)"/></g><g clip-path="url(#S)"><path d="m3.203125 946.404687h5946.328125" style="fill:none;stroke-width:6.43238;stroke-linecap:round;stroke-linejoin:round;stroke:#000;stroke-miterlimit:10" transform="matrix(.1 0 0 -.1 0 682.41)"/></g><g clip-path="url(#T)"><path d="m3.203125 1038.553125h5946.328125" style="fill:none;stroke-width:6.43238;stroke-linecap:round;stroke-linejoin:round;stroke:#000;stroke-miterlimit:10" transform="matrix(.1 0 0 -.1 0 682.41)"/></g><path d="m5147.578125 577.771875h174.023437" style="fill:none;stroke-width:15.6478;stroke-linecap:round;stroke-linejoin:round;stroke:#000;stroke-miterlimit:10" transform="matrix(.1 0 0 -.1 0 682.41)"/><g clip-path="url(#U)"><path d="m5933.476562 669.920312v368.632813" fill="none" stroke="#000" stroke-linejoin="round" stroke-miterlimit="10" stroke-width="38.5943" transform="matrix(.1 0 0 -.1 0 682.41)"/></g><path d="m5888.75 669.920312v368.632813" fill="none" stroke="#000" stroke-linejoin="round" stroke-miterlimit="10" stroke-width="12.2197" transform="matrix(.1 0 0 -.1 0 682.41)"/><path d="m4653.476562 643.982812h4.375v300.429688h-4.375zm0 0" fill="none" stroke="#000" stroke-linejoin="round" stroke-miterlimit="10" stroke-width="3.98107" transform="matrix(.1 0 0 -.1 0 682.41)"/><path d="m465.347656 618.011719h.4375v-30.042969h-.4375zm0 0"/><use x="436.325" xlink:href="#ap" y="651.0467"/><use x="447.379678" xlink:href="#Z" y="651.0467"/><use x="459.795683" xlink:href="#aq" y="651.0467"/><use x="472.211688" xlink:href="#ab" y="651.0467"/><use x="453.9496" xlink:href="#aD" y="620.0248"/><path d="m4021.5625 690.0375h4.414062v300.429687h-4.414062zm0 0" fill="none" stroke="#000" stroke-linejoin="round" stroke-miterlimit="10" stroke-width="3.98107" transform="matrix(.1 0 0 -.1 0 682.41)"/><path d="m402.15625 613.40625h.4375v-30.042969h-.4375zm0 0"/><use x="382.493" xlink:href="#av" y="651.0467"/><use x="393.378147" xlink:href="#ay" y="651.0467"/><use x="405.963659" xlink:href="#an" y="651.0467"/><use x="390.76292" xlink:href="#aD" y="615.417"/><path d="m3446.5625 736.13125h4.375v281.679687h-4.375zm0 0" fill="none" stroke="#000" stroke-linejoin="round" stroke-miterlimit="10" stroke-width="3.98107" transform="matrix(.1 0 0 -.1 0 682.41)"/><path d="m344.65625 608.796875h.4375v-28.164063h-.4375zm0 0"/><use x="333.259" xlink:href="#aD" y="610.8096"/><path d="m2871.523438 1058.670312v-40.234375l579.414062-18.90625v40.234375zm0 0" fill="none" stroke="#000" stroke-linejoin="round" stroke-miterlimit="10" stroke-width="3.98107" transform="matrix(.1 0 0 -.1 0 682.41)"/><path d="m287.152344 576.542969v4.023437l57.941406 1.890625v-4.023437zm0 0"/><path d="m2815.46875 652.5375c117.304688-114.6875 445.664062-133.125 575.039062-32.265625-128.945312-93.164063-457.304687-74.726563-575.039062 32.265625zm0 0" style="fill:none;stroke-width:5.14642;stroke-linecap:round;stroke-linejoin:round;stroke:#000;stroke-miterlimit:10" transform="matrix(.1 0 0 -.1 0 682.41)"/><path d="m281.546875 617.15625c11.730469 11.46875 44.566406 13.3125 57.503906 3.226562-12.894531 9.316407-45.730469 7.472657-57.503906-3.226562"/><path d="m3389.257812 376.092187h55.664063v3.242188h-55.664063zm0 0" fill="none" stroke="#000" stroke-linejoin="round" stroke-miterlimit="10" stroke-width="5.14222" transform="matrix(.1 0 0 -.1 0 682.41)"/><path d="m338.925781 644.800781h5.566407v-.324219h-5.566407zm0 0"/><use x="517.137" xlink:href="#aC" y="624.6327"/><path d="m5291.445312 604.490625h4.375v293.828125h-4.375zm0 0" fill="none" stroke="#000" stroke-linejoin="round" stroke-miterlimit="10" stroke-width="3.98107" transform="matrix(.1 0 0 -.1 0 682.41)"/><path d="m529.144531 621.960938h.4375v-29.382813h-.4375zm0 0"/><use x="507.811" xlink:href="#X" y="651.0467"/><use x="520.567239" xlink:href="#aq" y="651.0467"/><use x="532.812541" xlink:href="#ar" y="651.0467"/><use x="40.582" xlink:href="#aF" y="596.9862"/><use x="48.91091" xlink:href="#aF" y="583.1632"/><use x="57.23904" xlink:href="#aF" y="601.5941"/><path d="m878.476562 579.764062h4.375v300.429688h-4.375zm0 0" fill="none" stroke="#000" stroke-linejoin="round" stroke-miterlimit="10" stroke-width="3.98107" transform="matrix(.1 0 0 -.1 0 682.41)"/><path d="m87.847656 624.433594h.4375v-30.042969h-.4375zm0 0"/><use x="81.6766" xlink:href="#az" y="651.0467"/><use x="93.071499" xlink:href="#aA" y="651.0467"/><use x="87.65004" xlink:href="#aD" y="592.3787"/><use x="275.75504" xlink:href="#Y" y="651.0467"/><use x="288.340552" xlink:href="#ay" y="651.0467"/><use x="7.37204" xlink:href="#aE" y="606.2018"/><path d="m2871.523438 782.225h4.375v254.21875h-4.375zm0 0" fill="none" stroke="#000" stroke-linejoin="round" stroke-miterlimit="10" stroke-width="3.98107" transform="matrix(.1 0 0 -.1 0 682.41)"/><path d="m287.152344 604.1875h.4375v-25.417969h-.4375zm0 0"/><use x="275.755" xlink:href="#aD" y="606.2018"/><path d="m2142.226562 579.764062h4.375v300.429688h-4.375zm0 0" fill="none" stroke="#000" stroke-linejoin="round" stroke-miterlimit="10" stroke-width="3.98107" transform="matrix(.1 0 0 -.1 0 682.41)"/><path d="m214.222656 624.433594h.4375v-30.042969h-.4375zm0 0"/><use x="205.5" xlink:href="#am" y="651.0467"/><use x="210.602729" xlink:href="#Z" y="651.0467"/><use x="223.188241" xlink:href="#am" y="651.0467"/><use x="228.290969" xlink:href="#aB" y="651.0467"/><use x="214.02539" xlink:href="#aD" y="592.3787"/><use x="141.19839" xlink:href="#aG" y="596.98612"/><path d="m1510.351562 549.060937h4.375v285.039063h-4.375zm0 0" fill="none" stroke="#000" stroke-linejoin="round" stroke-miterlimit="10" stroke-width="3.98107" transform="matrix(.1 0 0 -.1 0 682.41)"/><path d="m151.035156 627.503906h.4375v-28.503906h-.4375zm0 0"/><use x="133.214" xlink:href="#ap" y="651.0467"/><use x="144.269056" xlink:href="#Z" y="651.0467"/><use x="156.685049" xlink:href="#aq" y="651.0467"/><use x="169.101043" xlink:href="#ab" y="651.0467"/><use x="150.8378" xlink:href="#aD" y="596.9862"/></svg>