<svg height="577.13em" viewBox="0 0 595.28 577.13" width="595.28em" xmlns="http://www.w3.org/2000/svg" xmlns:xlink="http://www.w3.org/1999/xlink"><clipPath id="a"><path d="m0 79h595.28125v1h-595.28125zm0 0"/></clipPath><clipPath id="b"><path d="m0 67h595.28125v2h-595.28125zm0 0"/></clipPath><clipPath id="c"><path d="m0 55h595.28125v2h-595.28125zm0 0"/></clipPath><clipPath id="d"><path d="m0 43h595.28125v2h-595.28125zm0 0"/></clipPath><clipPath id="e"><path d="m0 32h595.28125v1h-595.28125zm0 0"/></clipPath><clipPath id="f"><path d="m593 31h2.28125v50h-2.28125zm0 0"/></clipPath><clipPath id="g"><path d="m0 219h595.28125v2h-595.28125zm0 0"/></clipPath><clipPath id="h"><path d="m0 207h595.28125v2h-595.28125zm0 0"/></clipPath><clipPath id="i"><path d="m0 196h595.28125v1h-595.28125zm0 0"/></clipPath><clipPath id="j"><path d="m0 184h595.28125v2h-595.28125zm0 0"/></clipPath><clipPath id="k"><path d="m0 172h595.28125v2h-595.28125zm0 0"/></clipPath><clipPath id="l"><path d="m593 172h2.28125v49h-2.28125zm0 0"/></clipPath><clipPath id="m"><path d="m0 359h595.28125v2h-595.28125zm0 0"/></clipPath><clipPath id="n"><path d="m0 348h595.28125v1h-595.28125zm0 0"/></clipPath><clipPath id="o"><path d="m0 336h595.28125v2h-595.28125zm0 0"/></clipPath><clipPath id="p"><path d="m0 324h595.28125v2h-595.28125zm0 0"/></clipPath><clipPath id="q"><path d="m0 313h595.28125v1h-595.28125zm0 0"/></clipPath><clipPath id="r"><path d="m593 312h2.28125v50h-2.28125zm0 0"/></clipPath><clipPath id="s"><path d="m0 500h595.28125v2h-595.28125zm0 0"/></clipPath><clipPath id="t"><path d="m0 488h595.28125v2h-595.28125zm0 0"/></clipPath><clipPath id="u"><path d="m0 477h595.28125v1h-595.28125zm0 0"/></clipPath><clipPath id="v"><path d="m0 465h595.28125v2h-595.28125zm0 0"/></clipPath><clipPath id="w"><path d="m0 453h595.28125v2h-595.28125zm0 0"/></clipPath><clipPath id="x"><path d="m590 451h5.28125v53h-5.28125zm0 0"/></clipPath><symbol id="y" overflow="visible"><path d="m10.390625-6.328125c-1.96875 0-3.828125.65625-5.515625 1.6875-2.203125 1.3125-4.875 3.609375-4.875 6.9375 0 2.765625 2.4375 4.03125 4.921875 4.03125 1.96875 0 3.828125-.65625 5.515625-1.6875 2.203125-1.3125 4.828125-3.609375 4.828125-6.9375 0-2.765625-2.390625-4.03125-4.875-4.03125zm0 0"/></symbol><symbol id="z" overflow="visible"><path d="m14.796875-3.140625c0 .46875-.140625.984375-.46875 1.359375-.984375 1.171875-3.234375 2.625-5.015625 3.75-1.765625 1.125-4.015625 2.625-5.46875 3.046875-.1875.046875-.421875.09375-.609375.09375-1.03125 0-1.96875-.796875-1.96875-1.96875 0-.46875.140625-.984375.46875-1.359375.984375-1.171875 3.234375-2.625 5.015625-3.75 1.765625-1.125 4.015625-2.625 5.46875-3.046875.1875-.046875.421875-.09375.609375-.09375 1.03125 0 1.96875.796875 1.96875 1.96875zm-2.390625-3.1875c-3.515625 0-6.359375.75-8.84375 2.4375-1.5 1.03125-2.484375 2.625-3.046875 4.359375-.28125.84375-.515625 1.78125-.515625 2.671875 0 2.203125 1.59375 3.1875 3.65625 3.1875 3.515625 0 6.359375-.75 8.84375-2.4375 1.5-1.03125 2.484375-2.625 3.046875-4.359375.28125-.84375.515625-1.78125.515625-2.671875 0-2.203125-1.59375-3.1875-3.65625-3.1875zm0 0"/></symbol><symbol id="A" overflow="visible"><path d="m10.0625 14.796875v-7.625l2.296875-.796875c.28125-.09375.515625-.375.515625-.703125v-3.046875c0-.515625-.515625-.890625-.984375-.703125l-1.828125.65625v-7.6875l2.296875-.84375c.28125-.09375.515625-.375.515625-.703125v-2.984375c0-.515625-.515625-.890625-.984375-.703125l-1.828125.609375v-7.03125c0-.421875-.375-.796875-.796875-.796875s-.796875.375-.796875.796875v7.59375l-4.0625 1.4375v-7.0625c0-.421875-.375-.796875-.796875-.796875s-.796875.375-.796875.796875v7.625l-2.296875.796875c-.28125.09375-.515625.375-.515625.703125v3.046875c0 .515625.515625.890625.984375.703125l1.828125-.65625v7.6875l-2.296875.84375c-.28125.09375-.515625.375-.515625.703125v2.984375c0 .515625.515625.890625.984375.703125l1.828125-.609375v7.03125c0 .421875.375.796875.796875.796875s.796875-.375.796875-.796875v-7.59375l4.0625-1.4375v7.0625c0 .421875.375.796875.796875.796875s.796875-.375.796875-.796875zm-5.65625-17.9375 4.0625-1.40625v7.6875l-4.0625 1.40625zm0 0"/></symbol><symbol id="B" overflow="visible"><path d="m17.515625-12.171875c-.75-3.28125-1.640625-6.515625-2.578125-9.75 4.5-5.09375 8.5625-10.34375 8.5625-17.078125 0-5.296875-2.890625-12.890625-6.171875-16.8125-.234375-.1875-.515625-.1875-.75 0-4.453125 3.21875-7.03125 8.375-7.03125 13.8125 0 2.4375.046875 4.8125.328125 7.203125.328125 3.046875 1.125 6 1.96875 8.953125-5.515625 6.265625-11.75 12.265625-11.75 20.59375 0 9.421875 6.796875 17.421875 15.59375 17.421875 1.453125 0 2.8125-.140625 4.171875-.375.140625 1.5.234375 3 .234375 4.5 0 .84375-.046875 1.640625-.09375 2.484375-.28125 4.625-3.140625 8.890625-7.5 8.984375-.046875 0-.09375.046875-.140625.046875-2.390625 0-4.453125-1.359375-5.65625-3.28125.515625.234375 1.078125.421875 1.625.421875 2.4375 0 4.453125-2 4.453125-4.4375 0-2.625-1.921875-4.875-4.453125-4.875-2.75 0-5.234375 2.15625-5.234375 4.875 0 5.046875 4.078125 9.125 9.125 9.125 5.53125 0 9.328125-4.96875 9.65625-10.578125.046875-.890625.046875-1.734375.046875-2.625 0-1.6875-.09375-3.375-.234375-5.0625 1.21875-.375 2.375-.9375 3.40625-1.734375 3.46875-2.5625 5.015625-6.171875 5.015625-9.734375 0-6.1875-4.6875-12.125-11.890625-12.125-.234375 0-.46875.046875-.703125.046875zm3.984375 21.765625c-.65625-5.796875-1.734375-11.328125-2.90625-16.8125 5.140625.421875 8.375 4.734375 8.375 9.046875 0 3.28125-2.25 6.640625-5.46875 7.765625zm-18.171875-11.046875c0-7.484375 5.046875-13.15625 10.109375-18.828125.75 2.765625 1.5 5.53125 2.15625 8.34375-4.734375 1.078125-7.40625 5.046875-7.40625 9.171875 0 3.28125 1.6875 6.609375 5.4375 8.625.140625.046875.28125.09375.421875.09375.515625 0 .9375-.46875.9375-.984375 0-.234375-.140625-.46875-.328125-.65625-2.625-1.5-3.84375-3.75-3.84375-5.8125 0-2.765625 2.15625-5.25 5.859375-5.671875 1.21875 5.625 2.296875 11.203125 3 17.1875-1.265625.1875-2.53125.28125-3.84375.28125-6.375 0-12.5-5.375-12.5-11.75zm15.921875-47.71875c.796875 2.484375.984375 3.703125.984375 6.421875 0 5.9375-3.140625 10.671875-6.984375 15.21875-.84375-2.953125-1.546875-5.8125-1.546875-9.375 0-5.1875 2.90625-9.921875 7.546875-12.265625zm0 0"/></symbol><symbol id="C" overflow="visible"><path d="m7.34375-15.140625h-2.484375v-4.171875h-2.40625v4.171875h-2.046875v1.953125h2.046875v11.453125c0 1.5625 1.046875 2.40625 2.921875 2.40625.640625 0 1.15625-.0625 1.96875-.203125v-2.03125c-.34375.09375-.671875.109375-1.15625.109375-1.046875 0-1.328125-.28125-1.328125-1.34375v-10.390625h2.484375zm0 0"/></symbol><symbol id="D" overflow="visible"><path d="m7.859375-15.578125c-4.28125 0-6.8125 3.03125-6.8125 8.125 0 5.109375 2.53125 8.125 6.84375 8.125 4.28125 0 6.859375-3.046875 6.859375-8.015625 0-5.265625-2.5-8.234375-6.890625-8.234375zm.03125 2.21875c2.71875 0 4.34375 2.234375 4.34375 5.984375 0 3.59375-1.6875 5.8125-4.34375 5.8125-2.6875 0-4.328125-2.21875-4.328125-5.890625s1.640625-5.90625 4.328125-5.90625zm.71875-8.03125-2.765625 4.28125h1.734375l4.296875-4.28125zm0 0"/></symbol><symbol id="E" overflow="visible"><path d="m2.03125-15.140625v17.34375c0 1.5-.46875 1.984375-1.96875 1.984375-.171875 0-.265625 0-.578125-.03125v2.0625c.28125.046875.421875.078125.8125.078125 2.703125 0 4.125-1.0625 4.125-3.140625v-18.296875zm2.390625-5.9375h-2.390625v3.046875h2.390625zm0 0"/></symbol><symbol id="F" overflow="visible"><path d="m15.46875-1.421875c-.265625.0625-.375.0625-.53125.0625-.828125 0-1.296875-.4375-1.296875-1.1875v-8.90625c0-2.6875-1.96875-4.125-5.6875-4.125-2.234375 0-4 .640625-5.03125 1.765625-.703125.78125-.984375 1.640625-1.046875 3.140625h2.4375c.203125-1.84375 1.296875-2.6875 3.546875-2.6875 2.203125 0 3.390625.8125 3.390625 2.265625v.625c-.03125 1.046875-.546875 1.421875-2.515625 1.6875-3.421875.421875-3.9375.546875-4.859375.921875-1.765625.75-2.65625 2.078125-2.65625 4.046875 0 2.75 1.90625 4.484375 4.96875 4.484375 1.90625 0 3.4375-.671875 5.140625-2.234375.171875 1.5625.921875 2.234375 2.484375 2.234375.53125 0 .84375-.0625 1.65625-.265625zm-4.21875-3.34375c0 .8125-.234375 1.296875-.953125 1.96875-.984375.890625-2.171875 1.34375-3.59375 1.34375-1.875 0-2.96875-.890625-2.96875-2.421875 0-1.59375 1.03125-2.390625 3.640625-2.78125 2.5625-.34375 3.0625-.453125 3.875-.828125zm0 0"/></symbol><symbol id="G" overflow="visible"><path d="m2.515625-3v3h1.734375v.515625c0 2-.375 2.578125-1.734375 2.640625v1.09375c1.90625.0625 3.03125-1.328125 3.03125-3.78125v-3.46875zm0 0"/></symbol><symbol id="H" overflow="visible"><path d="m8.234375 0 5.8125-15.140625h-2.71875l-4.28125 12.28125-4.046875-12.28125h-2.703125l5.3125 15.140625zm0 0"/></symbol><symbol id="I" overflow="visible"><path d="m15.46875-1.421875c-.265625.0625-.375.0625-.53125.0625-.828125 0-1.296875-.4375-1.296875-1.1875v-8.90625c0-2.6875-1.96875-4.125-5.6875-4.125-2.234375 0-4 .640625-5.03125 1.765625-.703125.78125-.984375 1.640625-1.046875 3.140625h2.4375c.203125-1.84375 1.296875-2.6875 3.546875-2.6875 2.203125 0 3.390625.8125 3.390625 2.265625v.625c-.03125 1.046875-.546875 1.421875-2.515625 1.6875-3.421875.421875-3.9375.546875-4.859375.921875-1.765625.75-2.65625 2.078125-2.65625 4.046875 0 2.75 1.90625 4.484375 4.96875 4.484375 1.90625 0 3.4375-.671875 5.140625-2.234375.171875 1.5625.921875 2.234375 2.484375 2.234375.53125 0 .84375-.0625 1.65625-.265625zm-4.21875-3.34375c0 .8125-.234375 1.296875-.953125 1.96875-.984375.890625-2.171875 1.34375-3.59375 1.34375-1.875 0-2.96875-.890625-2.96875-2.421875 0-1.59375 1.03125-2.390625 3.640625-2.78125 2.5625-.34375 3.0625-.453125 3.875-.828125zm-2.46875-16.625-2.796875 4.28125h1.734375l4.3125-4.28125zm0 0"/></symbol><symbol id="J" overflow="visible"><path d="m4.390625-21.078125h-2.421875v21.078125h2.421875zm0 0"/></symbol><symbol id="K" overflow="visible"><path d="m9.625-21.078125v14.828125c0 1.6875-.171875 2.640625-.65625 3.359375-.53125.8125-1.515625 1.296875-2.578125 1.296875-2.03125 0-3.15625-1.359375-3.15625-3.8125v-1.359375h-2.75v1.84375c0 3.421875 2.265625 5.59375 5.875 5.59375 3.671875 0 5.953125-2.296875 5.953125-5.9375v-15.8125zm0 0"/></symbol><symbol id="L" overflow="visible"><path d="m7.859375-15.578125c-4.28125 0-6.8125 3.03125-6.8125 8.125 0 5.109375 2.53125 8.125 6.84375 8.125 4.28125 0 6.859375-3.046875 6.859375-8.015625 0-5.265625-2.5-8.234375-6.890625-8.234375zm.03125 2.21875c2.71875 0 4.34375 2.234375 4.34375 5.984375 0 3.59375-1.6875 5.8125-4.34375 5.8125-2.6875 0-4.328125-2.21875-4.328125-5.890625s1.640625-5.90625 4.328125-5.90625zm-.84375-7.3125h-3v2.984375h3zm4.6875 0h-3v2.984375h3zm0 0"/></symbol><symbol id="M" overflow="visible"><path d="m13.53125 0 5.921875-17.65625v17.65625h2.546875v-21.078125h-3.734375l-6.125 18.359375-6.25-18.359375h-3.71875v21.078125h2.546875v-17.65625l5.984375 17.65625zm0 0"/></symbol><symbol id="N" overflow="visible"><path d="m14.828125-6.765625c0-2.3125-.171875-3.703125-.609375-4.828125-.984375-2.484375-3.296875-3.984375-6.125-3.984375-4.21875 0-6.9375 3.203125-6.9375 8.203125s2.609375 8.046875 6.875 8.046875c3.46875 0 5.875-1.96875 6.484375-5.265625h-2.4375c-.65625 1.984375-2.015625 3.03125-3.953125 3.03125-1.53125 0-2.828125-.6875-3.640625-1.96875-.578125-.859375-.78125-1.734375-.8125-3.234375zm-11.09375-1.96875c.203125-2.796875 1.90625-4.625 4.328125-4.625 2.453125 0 4.171875 1.90625 4.171875 4.625zm0 0"/></symbol><symbol id="O" overflow="visible"><path d="m11.671875-15.140625v2.1875c-1.203125-1.8125-2.53125-2.625-4.4375-2.625-3.671875 0-6.21875 3.40625-6.21875 8.265625 0 2.546875.609375 4.390625 1.90625 5.921875 1.125 1.328125 2.578125 2.0625 4.125 2.0625 1.828125 0 3.125-.8125 4.40625-2.71875v.78125c0 4.046875-1.140625 5.546875-4.140625 5.546875-2.046875 0-3.125-.8125-3.359375-2.546875h-2.453125c.234375 2.796875 2.453125 4.5625 5.75 4.5625 2.234375 0 4.078125-.71875 5.0625-1.9375 1.15625-1.40625 1.59375-3.296875 1.59375-6.84375v-12.65625zm-4.21875 1.78125c2.546875 0 4 2.140625 4 5.984375 0 3.671875-1.484375 5.8125-4 5.8125-2.484375 0-3.921875-2.171875-3.921875-5.890625 0-3.703125 1.4375-5.90625 3.921875-5.90625zm0 0"/></symbol><symbol id="P" overflow="visible"><path d="m1.5625 6.296875h2.421875v-7.890625c1.28125 1.5625 2.6875 2.265625 4.65625 2.265625 3.9375 0 6.484375-3.15625 6.484375-7.984375 0-5.09375-2.5-8.265625-6.515625-8.265625-2.046875 0-3.6875.921875-4.828125 2.71875v-2.28125h-2.21875zm6.640625-19.625c2.671875 0 4.40625 2.34375 4.40625 5.953125 0 3.4375-1.765625 5.78125-4.40625 5.78125-2.5625 0-4.21875-2.3125-4.21875-5.859375 0-3.5625 1.65625-5.875 4.21875-5.875zm0 0"/></symbol><symbol id="Q" overflow="visible"><path d="m4.078125-21.078125h-2.40625v21.078125h2.40625v-5.890625l2.34375-2.3125 5.109375 8.203125h2.984375l-6.1875-9.921875 5.265625-5.21875h-3.09375l-6.421875 6.40625zm0 0"/></symbol><symbol id="R" overflow="visible"><path d="m2.03125-15.140625v15.140625h2.421875v-8.359375c0-3.09375 1.625-5.109375 4.109375-5.109375 1.90625 0 3.109375 1.15625 3.109375 2.96875v10.5h2.40625v-11.453125c0-2.515625-1.875-4.125-4.796875-4.125-2.25 0-3.703125.859375-5.03125 2.96875v-2.53125zm0 0"/></symbol><symbol id="S" overflow="visible"><path d="m14.828125-6.765625c0-2.3125-.171875-3.703125-.609375-4.828125-.984375-2.484375-3.296875-3.984375-6.125-3.984375-4.21875 0-6.9375 3.203125-6.9375 8.203125s2.609375 8.046875 6.875 8.046875c3.46875 0 5.875-1.96875 6.484375-5.265625h-2.4375c-.65625 1.984375-2.015625 3.03125-3.953125 3.03125-1.53125 0-2.828125-.6875-3.640625-1.96875-.578125-.859375-.78125-1.734375-.8125-3.234375zm-11.09375-1.96875c.203125-2.796875 1.90625-4.625 4.328125-4.625 2.453125 0 4.171875 1.90625 4.171875 4.625zm5.171875-12.65625-2.78125 4.28125h1.734375l4.3125-4.28125zm0 0"/></symbol><symbol id="T" overflow="visible"><path d="m2-15.140625v15.140625h2.421875v-7.859375c.03125-3.640625 1.53125-5.265625 4.859375-5.171875v-2.46875c-.40625-.046875-.640625-.078125-.921875-.078125-1.5625 0-2.75.921875-4.140625 3.171875v-2.734375zm0 0"/></symbol><symbol id="U" overflow="visible"><path d="m4.34375-15.140625h-2.40625v15.140625h2.40625zm0-5.9375h-2.4375v3.046875h2.4375zm0 0"/></symbol><symbol id="V" overflow="visible"><path d="m17.234375-14.890625c0-1.4375-.09375-1.84375-.5625-2.828125-1.15625-2.421875-3.609375-3.703125-7.15625-3.703125-4.625 0-7.484375 2.375-7.484375 6.1875 0 2.578125 1.34375 4.1875 4.125 4.921875l5.234375 1.375c2.6875.703125 3.875 1.765625 3.875 3.421875 0 1.125-.609375 2.28125-1.5 2.90625-.84375.609375-2.171875.90625-3.875.90625-2.3125 0-3.84375-.546875-4.859375-1.765625-.78125-.921875-1.125-1.9375-1.09375-3.234375h-2.546875c.03125 1.9375.40625 3.203125 1.234375 4.359375 1.453125 2 3.875 3.015625 7.09375 3.015625 2.515625 0 4.5625-.578125 5.921875-1.625 1.421875-1.125 2.3125-3 2.3125-4.828125 0-2.609375-1.625-4.515625-4.484375-5.296875l-5.28125-1.40625c-2.546875-.703125-3.46875-1.5-3.46875-3.125 0-2.140625 1.875-3.5625 4.703125-3.5625 3.359375 0 5.234375 1.515625 5.265625 4.28125zm0 0"/></symbol><symbol id="W" overflow="visible"><path d="m12.8125-15.140625h-11.3125v2.109375h8.4375l-9.046875 10.859375v2.171875h12.3125v-2.109375h-9.390625l9-10.90625zm0 0"/></symbol><symbol id="X" overflow="visible"><path d="m13.9375 0v-15.140625h-2.40625v8.578125c0 3.09375-1.609375 5.109375-4.125 5.109375-1.90625 0-3.125-1.15625-3.125-2.96875v-10.71875h-2.40625v11.671875c0 2.515625 1.890625 4.140625 4.828125 4.140625 2.234375 0 3.640625-.78125 5.0625-2.78125v2.109375zm-6.90625-21.390625-2.78125 4.328125h1.734375l4.3125-4.328125zm5.015625 0-2.765625 4.328125h1.734375l4.3125-4.328125zm0 0"/></symbol><symbol id="Y" overflow="visible"><path d="m12.65625-10.921875c-.03125-2.984375-1.984375-4.65625-5.484375-4.65625-3.53125 0-5.8125 1.8125-5.8125 4.625 0 2.375 1.21875 3.5 4.796875 4.359375l2.25.546875c1.6875.40625 2.34375 1.015625 2.34375 2.09375 0 1.4375-1.40625 2.390625-3.515625 2.390625-1.3125 0-2.40625-.375-3.015625-1.015625-.375-.421875-.546875-.859375-.6875-1.9375h-2.546875c.109375 3.5 2.078125 5.1875 6.046875 5.1875 3.8125 0 6.234375-1.890625 6.234375-4.8125 0-2.25-1.265625-3.484375-4.28125-4.21875l-2.3125-.546875c-1.953125-.453125-2.796875-1.09375-2.796875-2.171875 0-1.40625 1.234375-2.28125 3.203125-2.28125 1.9375 0 2.984375.84375 3.046875 2.4375zm0 0"/></symbol><symbol id="Z" overflow="visible"><path d="m14.3125-21.078125h-2.40625v7.84375c-1.015625-1.53125-2.625-2.34375-4.65625-2.34375-3.921875 0-6.5 3.140625-6.5 7.96875 0 5.125 2.484375 8.28125 6.59375 8.28125 2.078125 0 3.53125-.78125 4.828125-2.671875v2h2.140625zm-6.65625 7.75c2.609375 0 4.25 2.28125 4.25 5.921875 0 3.5-1.671875 5.8125-4.21875 5.8125-2.65625 0-4.421875-2.34375-4.421875-5.859375 0-3.53125 1.765625-5.875 4.390625-5.875zm0 0"/></symbol><symbol id="aa" overflow="visible"><path d="m13.609375-10.0625c-.109375-1.46875-.421875-2.421875-1-3.265625-1.046875-1.421875-2.875-2.25-4.984375-2.25-4.09375 0-6.734375 3.234375-6.734375 8.265625 0 4.890625 2.609375 7.984375 6.71875 7.984375 3.609375 0 5.890625-2.171875 6.171875-5.875h-2.421875c-.40625 2.421875-1.640625 3.640625-3.703125 3.640625-2.65625 0-4.25-2.171875-4.25-5.75 0-3.78125 1.5625-6.046875 4.203125-6.046875 2.015625 0 3.28125 1.1875 3.578125 3.296875zm0 0"/></symbol><symbol id="ab" overflow="visible"><path d="m13.9375 0v-15.140625h-2.40625v8.578125c0 3.09375-1.609375 5.109375-4.125 5.109375-1.90625 0-3.125-1.15625-3.125-2.96875v-10.71875h-2.40625v11.671875c0 2.515625 1.890625 4.140625 4.828125 4.140625 2.234375 0 3.640625-.78125 5.0625-2.78125v2.109375zm0 0"/></symbol><symbol id="ac" overflow="visible"><path d="m5.296875-9.59375h10.046875v-2.375h-10.046875v-6.734375h11.4375v-2.375h-14.125v21.078125h2.6875zm0 0"/></symbol><symbol id="ad" overflow="visible"><path d="m5.515625-3h-3v3h3zm0 0"/></symbol><symbol id="ae" overflow="visible"><path d="m5.609375-21.078125h-2.71875v21.078125h2.71875zm0 0"/></symbol><symbol id="af" overflow="visible"><path d="m6.125-12.59375v12.59375h3.609375v-18.25h-2.390625c-.578125 2.15625-2.453125 3.265625-5.59375 3.265625v2.390625zm0 0"/></symbol><symbol id="ag" overflow="visible"><path d="m5.515625-3.765625h-3.875v3.765625h3.875zm0 0"/></symbol><symbol id="ah" overflow="visible"><path d="m9.734375-14.9375c-.28125.1875-.375.5625-.375.9375v6.875h-8.09375l13.25-15.59375c.28125-.328125-.140625-.875-.703125-.6875-1.03125.3125-2.0625.59375-3.140625.59375s-2.109375-.28125-3.125-.59375c-.375-.140625-.703125.21875-.703125.6875 0 5.859375-3.046875 11.109375-6.84375 15.59375-.046875.046875-.09375.1875-.09375.28125 0 .375.375.984375 1.359375.984375h8.09375v.75c0 2.109375-1.21875 4.125-3.171875 4.125-.328125 0-.46875.234375-.46875.46875s.140625.515625.46875.515625c1.90625 0 3.828125-.609375 5.75-.609375s3.84375.609375 5.765625.609375c.328125 0 .46875-.28125.46875-.515625s-.140625-.46875-.46875-.46875c-1.96875 0-3.1875-2.015625-3.1875-4.125v-.75h3.1875c.421875 0 .609375-.28125.609375-.609375s-.1875-.65625-.609375-.65625h-3.1875v-11.984375c0-.65625-.75-.75-.9375-.328125-.328125.796875-.65625 1.59375-1.171875 2.296875-.703125.9375-1.6875 1.59375-2.671875 2.203125zm0 0"/></symbol><g clip-path="url(#a)"><path d="m3.632812 4977.315625h5945.46875" fill="none" stroke="#000" stroke-linecap="round" stroke-miterlimit="10" stroke-width="7.2812" transform="matrix(.1 0 0 -.1 0 577.13)"/></g><g clip-path="url(#b)"><path d="m3.632812 5094.385938h5945.46875" fill="none" stroke="#000" stroke-linecap="round" stroke-miterlimit="10" stroke-width="7.2812" transform="matrix(.1 0 0 -.1 0 577.13)"/></g><g clip-path="url(#c)"><path d="m3.632812 5211.45625h5945.46875" fill="none" stroke="#000" stroke-linecap="round" stroke-miterlimit="10" stroke-width="7.2812" transform="matrix(.1 0 0 -.1 0 577.13)"/></g><g clip-path="url(#d)"><path d="m3.632812 5328.526563h5945.46875" fill="none" stroke="#000" stroke-linecap="round" stroke-miterlimit="10" stroke-width="7.2812" transform="matrix(.1 0 0 -.1 0 577.13)"/></g><g clip-path="url(#e)"><path d="m3.632812 5445.557813h5945.46875" fill="none" stroke="#000" stroke-linecap="round" stroke-miterlimit="10" stroke-width="7.2812" transform="matrix(.1 0 0 -.1 0 577.13)"/></g><g clip-path="url(#f)"><path d="m5945.859375 4977.315625v468.242188" fill="none" stroke="#000" stroke-miterlimit="10" stroke-width="13.8483" transform="matrix(.1 0 0 -.1 0 577.13)"/></g><path d="m3658.4375 4977.315625v468.242188" fill="none" stroke="#000" stroke-miterlimit="10" stroke-width="13.8483" transform="matrix(.1 0 0 -.1 0 577.13)"/><use x="424.675" xlink:href="#y" y="79.397"/><path d="m4392.148438 5002.354688h5.46875v324.375h-5.46875zm0 0" fill="none" stroke="#000" stroke-linejoin="round" stroke-miterlimit="10" stroke-width="3.98007" transform="matrix(.1 0 0 -.1 0 577.13)"/><path d="m439.214844 76.894531h.546875v-32.4375h-.546875zm0 0"/><use x="475.482" xlink:href="#y" y="73.544"/><use x="471.21872" xlink:href="#C" y="123.6811"/><use x="478.871858" xlink:href="#D" y="123.6811"/><path d="m4900.195312 5060.870313h5.507813v382.695312h-5.507813zm0 0" fill="none" stroke="#000" stroke-linejoin="round" stroke-miterlimit="10" stroke-width="3.98007" transform="matrix(.1 0 0 -.1 0 577.13)"/><path d="m490.019531 71.042969h.550781v-38.269531h-.550781zm0 0"/><path d="m3884.0625 5060.870313h5.507812v289.882812h-5.507812zm0 0" fill="none" stroke="#000" stroke-linejoin="round" stroke-miterlimit="10" stroke-width="3.98007" transform="matrix(.1 0 0 -.1 0 577.13)"/><path d="m388.40625 71.042969h.550781v-28.988281h-.550781zm0 0"/><path d="m2085.351562 4613.4875h71.40625v3.632813h-71.40625zm0 0" fill="none" stroke="#000" stroke-linejoin="round" stroke-miterlimit="10" stroke-width="5.82964" transform="matrix(.1 0 0 -.1 0 577.13)"/><path d="m208.535156 115.78125h7.140625v-.363281h-7.140625zm0 0"/><path d="m3550.820312 4613.4875h71.445313v3.632813h-71.445313zm0 0" fill="none" stroke="#000" stroke-linejoin="round" stroke-miterlimit="10" stroke-width="5.82964" transform="matrix(.1 0 0 -.1 0 577.13)"/><path d="m355.082031 115.78125h7.144531v-.363281h-7.144531zm0 0"/><path d="m3809.296875 4914.229688c108.59375-123.28125 374.257813-153.867188 508.046875-58.515625-132.773438-86.679688-398.4375-56.054688-508.046875 58.515625zm0 0" style="fill:none;stroke-width:5.82957;stroke-linecap:round;stroke-linejoin:round;stroke:#000;stroke-miterlimit:10" transform="matrix(.1 0 0 -.1 0 577.13)"/><path d="m380.929688 85.707031c10.859374 12.328125 37.425781 15.386719 50.804687 5.851563-13.277344 8.667968-39.84375 5.605468-50.804687-5.851563"/><path d="m4372.578125 4613.4875h71.40625v3.632813h-71.40625zm0 0" fill="none" stroke="#000" stroke-linejoin="round" stroke-miterlimit="10" stroke-width="5.82964" transform="matrix(.1 0 0 -.1 0 577.13)"/><path d="m437.253906 115.78125h7.144532v-.363281h-7.144532zm0 0"/><path d="m5057.539062 4613.4875h71.445313v3.632813h-71.445313zm0 0" fill="none" stroke="#000" stroke-linejoin="round" stroke-miterlimit="10" stroke-width="5.82964" transform="matrix(.1 0 0 -.1 0 577.13)"/><path d="m505.753906 115.78125h7.144532v-.363281h-7.144532zm0 0"/><path d="m3884.0625 5379.073438v-52.226563l513.554688-24.453125v52.226563zm0 0" fill="none" stroke="#000" stroke-linejoin="round" stroke-miterlimit="10" stroke-width="3.98007" transform="matrix(.1 0 0 -.1 0 577.13)"/><path d="m388.40625 39.222656v5.222656l51.355469 2.445313v-5.222656zm0 0"/><path d="m5460.429688 5010.714063h5.46875v374.335937h-5.46875zm0 0" fill="none" stroke="#000" stroke-linejoin="round" stroke-miterlimit="10" stroke-width="3.98007" transform="matrix(.1 0 0 -.1 0 577.13)"/><path d="m546.039062 76.058594h.550782v-37.433594h-.550782zm0 0"/><use x="523.621" xlink:href="#E" y="123.682"/><use x="530.08388" xlink:href="#F" y="123.682"/><use x="545.901042" xlink:href="#G" y="123.682"/><use x="530.72764" xlink:href="#z" y="79.3976"/><use x="50.33664" xlink:href="#A" y="32.5734"/><use x="373.86964" xlink:href="#H" y="123.682"/><use x="387.816125" xlink:href="#I" y="123.682"/><use x="403.974327" xlink:href="#J" y="123.682"/><path d="m1329.921875 5002.354688h5.507813v382.695312h-5.507813zm0 0" fill="none" stroke="#000" stroke-linejoin="round" stroke-miterlimit="10" stroke-width="3.98007" transform="matrix(.1 0 0 -.1 0 577.13)"/><path d="m132.992188 76.894531h.550781v-38.269531h-.550781zm0 0"/><use x="67.3664" xlink:href="#af" y="123.682"/><use x="81.652333" xlink:href="#ag" y="123.682"/><use x="100.5016" xlink:href="#K" y="123.682"/><use x="114.958632" xlink:href="#L" y="123.682"/><use x="130.775819" xlink:href="#E" y="123.682"/><use x="137.23871" xlink:href="#E" y="123.682"/><use x="143.701602" xlink:href="#G" y="123.682"/><use x="76.675" xlink:href="#ah" y="55.9855"/><use x="76.675" xlink:href="#ah" y="79.5839"/><use x="9.3648" xlink:href="#B" y="67.6917"/><use x="118.4548" xlink:href="#y" y="79.3976"/><path d="m2517.539062 4943.839063h5.46875v382.695312h-5.46875zm0 0" fill="none" stroke="#000" stroke-linejoin="round" stroke-miterlimit="10" stroke-width="3.98007" transform="matrix(.1 0 0 -.1 0 577.13)"/><path d="m251.75 82.746094h.550781v-38.269532h-.550781zm0 0"/><use x="373.87" xlink:href="#y" y="73.544"/><path d="m3221.015625 5119.425h5.46875v382.695313h-5.46875zm0 0" fill="none" stroke="#000" stroke-linejoin="round" stroke-miterlimit="10" stroke-width="3.98007" transform="matrix(.1 0 0 -.1 0 577.13)"/><path d="m322.101562 65.1875h.546876v-38.269531h-.546876zm0 0"/><use x="286.971" xlink:href="#M" y="123.682"/><use x="311.121766" xlink:href="#N" y="123.682"/><use x="327.279968" xlink:href="#O" y="123.682"/><use x="307.5608" xlink:href="#y" y="67.6918"/><use x="221.4694" xlink:href="#P" y="123.682"/><use x="237.627602" xlink:href="#N" y="123.682"/><use x="253.785414" xlink:href="#Q" y="123.682"/><use x="237.212" xlink:href="#y" y="85.2508"/><use x="178.939" xlink:href="#y" y="79.39767"/><path d="m1934.804688 5002.354688h5.46875v382.695312h-5.46875zm0 0" fill="none" stroke="#000" stroke-linejoin="round" stroke-miterlimit="10" stroke-width="3.98007" transform="matrix(.1 0 0 -.1 0 577.13)"/><path d="m193.476562 76.894531h.550782v-38.269531h-.550782zm0 0"/><use x="170.426" xlink:href="#R" y="123.682"/><use x="186.583812" xlink:href="#S" y="123.682"/><g clip-path="url(#g)"><path d="m3.632812 3572.589063h5945.46875" style="fill:none;stroke-width:7.2812;stroke-linecap:round;stroke-linejoin:round;stroke:#000;stroke-miterlimit:10" transform="matrix(.1 0 0 -.1 0 577.13)"/></g><g clip-path="url(#h)"><path d="m3.632812 3689.659375h5945.46875" style="fill:none;stroke-width:7.2812;stroke-linecap:round;stroke-linejoin:round;stroke:#000;stroke-miterlimit:10" transform="matrix(.1 0 0 -.1 0 577.13)"/></g><g clip-path="url(#i)"><path d="m3.632812 3806.690625h5945.46875" style="fill:none;stroke-width:7.2812;stroke-linecap:round;stroke-linejoin:round;stroke:#000;stroke-miterlimit:10" transform="matrix(.1 0 0 -.1 0 577.13)"/></g><g clip-path="url(#j)"><path d="m3.632812 3923.760938h5945.46875" style="fill:none;stroke-width:7.2812;stroke-linecap:round;stroke-linejoin:round;stroke:#000;stroke-miterlimit:10" transform="matrix(.1 0 0 -.1 0 577.13)"/></g><g clip-path="url(#k)"><path d="m3.632812 4040.83125h5945.46875" style="fill:none;stroke-width:7.2812;stroke-linecap:round;stroke-linejoin:round;stroke:#000;stroke-miterlimit:10" transform="matrix(.1 0 0 -.1 0 577.13)"/></g><path d="m3734.921875 3572.589063v468.242187" fill="none" stroke="#000" stroke-linejoin="round" stroke-miterlimit="10" stroke-width="13.8483" transform="matrix(.1 0 0 -.1 0 577.13)"/><g clip-path="url(#l)"><path d="m5945.859375 3572.589063v468.242187" fill="none" stroke="#000" stroke-linejoin="round" stroke-miterlimit="10" stroke-width="13.8483" transform="matrix(.1 0 0 -.1 0 577.13)"/></g><path d="m4502.695312 3418.526563h5.46875v363.164062h-5.46875zm0 0" fill="none" stroke="#000" stroke-linejoin="round" stroke-miterlimit="10" stroke-width="3.98007" transform="matrix(.1 0 0 -.1 0 577.13)"/><path d="m450.269531 235.28125h.546875v-36.320312h-.546875zm0 0"/><use x="444.871" xlink:href="#T" y="260.842"/><use x="454.394812" xlink:href="#I" y="260.842"/><use x="450.06944" xlink:href="#y" y="196.4584"/><path d="m3965.234375 3773.214063h5.46875v382.695312h-5.46875zm0 0" fill="none" stroke="#000" stroke-linejoin="round" stroke-miterlimit="10" stroke-width="3.98007" transform="matrix(.1 0 0 -.1 0 577.13)"/><path d="m396.523438 199.808594h.546874v-38.269532h-.546874zm0 0"/><use x="379.169" xlink:href="#H" y="260.842"/><use x="393.626032" xlink:href="#U" y="260.842"/><use x="381.9858" xlink:href="#y" y="202.3111"/><path d="m1380.585938 3241.885938h71.445312v3.632812h-71.445312zm0 0" fill="none" stroke="#000" stroke-linejoin="round" stroke-miterlimit="10" stroke-width="5.82964" transform="matrix(.1 0 0 -.1 0 577.13)"/><path d="m138.058594 252.941406h7.144531v-.363281h-7.144531zm0 0"/><path d="m2656.523438 3241.885938h71.445312v3.632812h-71.445312zm0 0" fill="none" stroke="#000" stroke-linejoin="round" stroke-miterlimit="10" stroke-width="5.82964" transform="matrix(.1 0 0 -.1 0 577.13)"/><path d="m265.652344 252.941406h7.144531v-.363281h-7.144531zm0 0"/><path d="m4189.0625 3241.885938h71.445312v3.632812h-71.445312zm0 0" fill="none" stroke="#000" stroke-linejoin="round" stroke-miterlimit="10" stroke-width="5.82964" transform="matrix(.1 0 0 -.1 0 577.13)"/><path d="m418.90625 252.941406h7.144531v-.363281h-7.144531zm0 0"/><path d="m4843.515625 3241.885938h71.445313v3.632812h-71.445313zm0 0" fill="none" stroke="#000" stroke-linejoin="round" stroke-miterlimit="10" stroke-width="5.82964" transform="matrix(.1 0 0 -.1 0 577.13)"/><path d="m484.351562 252.941406h7.144532v-.363281h-7.144532zm0 0"/><path d="m5323.945312 3723.057813h5.46875v374.335937h-5.46875zm0 0" fill="none" stroke="#000" stroke-linejoin="round" stroke-miterlimit="10" stroke-width="3.98007" transform="matrix(.1 0 0 -.1 0 577.13)"/><path d="m532.394531 204.824219h.546875v-37.429688h-.546875zm0 0"/><use x="505.296" xlink:href="#O" y="260.842"/><use x="521.113553" xlink:href="#F" y="260.842"/><use x="536.930715" xlink:href="#G" y="260.842"/><use x="517.0796" xlink:href="#z" y="208.1643"/><use x="67.9756" xlink:href="#V" y="260.842"/><use x="87.194734" xlink:href="#W" y="260.842"/><use x="101.65176" xlink:href="#X" y="260.842"/><use x="117.809572" xlink:href="#W" y="260.842"/><use x="92.4776" xlink:href="#y" y="219.8705"/><use x="50.3358" xlink:href="#A" y="173.0459"/><use x="9.3643" xlink:href="#B" y="208.1643"/><path d="m1070.15625 3597.628125h5.507812v382.695313h-5.507812zm0 0" fill="none" stroke="#000" stroke-linejoin="round" stroke-miterlimit="10" stroke-width="3.98007" transform="matrix(.1 0 0 -.1 0 577.13)"/><path d="m107.015625 217.367188h.550781v-38.269532h-.550781zm0 0"/><use x="234.644" xlink:href="#y" y="202.311"/><path d="m3170.898438 3714.698438h5.46875v382.695312h-5.46875zm0 0" fill="none" stroke="#000" stroke-linejoin="round" stroke-miterlimit="10" stroke-width="3.98007" transform="matrix(.1 0 0 -.1 0 577.13)"/><path d="m317.089844 205.660156h.546875v-38.269531h-.546875zm0 0"/><use x="288.082" xlink:href="#Q" y="260.842"/><use x="301.858954" xlink:href="#N" y="260.842"/><use x="317.846063" xlink:href="#Y" y="260.842"/><use x="302.5496" xlink:href="#y" y="208.1643"/><path d="m2491.835938 3773.214063h5.46875v382.695312h-5.46875zm0 0" fill="none" stroke="#000" stroke-linejoin="round" stroke-miterlimit="10" stroke-width="3.98007" transform="matrix(.1 0 0 -.1 0 577.13)"/><path d="m249.183594 199.808594h.546875v-38.269532h-.546875zm0 0"/><use x="234.209" xlink:href="#S" y="260.842"/><path d="m1812.773438 3714.698438h5.46875v382.695312h-5.46875zm0 0" fill="none" stroke="#000" stroke-linejoin="round" stroke-miterlimit="10" stroke-width="3.98007" transform="matrix(.1 0 0 -.1 0 577.13)"/><path d="m181.277344 205.660156h.546875v-38.269531h-.546875zm0 0"/><use x="150.996" xlink:href="#R" y="260.842"/><use x="167.154202" xlink:href="#N" y="260.842"/><use x="183.312014" xlink:href="#Q" y="260.842"/><use x="166.7386" xlink:href="#y" y="208.1643"/><g clip-path="url(#m)"><path d="m3.632812 2167.8625h5945.46875" style="fill:none;stroke-width:7.2812;stroke-linecap:round;stroke-linejoin:round;stroke:#000;stroke-miterlimit:10" transform="matrix(.1 0 0 -.1 0 577.13)"/></g><g clip-path="url(#n)"><path d="m3.632812 2284.932813h5945.46875" style="fill:none;stroke-width:7.2812;stroke-linecap:round;stroke-linejoin:round;stroke:#000;stroke-miterlimit:10" transform="matrix(.1 0 0 -.1 0 577.13)"/></g><g clip-path="url(#o)"><path d="m3.632812 2401.964063h5945.46875" style="fill:none;stroke-width:7.2812;stroke-linecap:round;stroke-linejoin:round;stroke:#000;stroke-miterlimit:10" transform="matrix(.1 0 0 -.1 0 577.13)"/></g><g clip-path="url(#p)"><path d="m3.632812 2519.034375h5945.46875" style="fill:none;stroke-width:7.2812;stroke-linecap:round;stroke-linejoin:round;stroke:#000;stroke-miterlimit:10" transform="matrix(.1 0 0 -.1 0 577.13)"/></g><g clip-path="url(#q)"><path d="m3.632812 2636.104688h5945.46875" style="fill:none;stroke-width:7.2812;stroke-linecap:round;stroke-linejoin:round;stroke:#000;stroke-miterlimit:10" transform="matrix(.1 0 0 -.1 0 577.13)"/></g><path d="m3409.882812 2167.8625v468.242188" fill="none" stroke="#000" stroke-linejoin="round" stroke-miterlimit="10" stroke-width="13.8483" transform="matrix(.1 0 0 -.1 0 577.13)"/><g clip-path="url(#r)"><path d="m5945.859375 2167.8625v468.242188" fill="none" stroke="#000" stroke-linejoin="round" stroke-miterlimit="10" stroke-width="13.8483" transform="matrix(.1 0 0 -.1 0 577.13)"/></g><path d="m4817.96875 2251.417188h5.507812v358.4375h-5.507812zm0 0" fill="none" stroke="#000" stroke-linejoin="round" stroke-miterlimit="10" stroke-width="3.98007" transform="matrix(.1 0 0 -.1 0 577.13)"/><path d="m481.796875 351.988281h.550781v-35.84375h-.550781zm0 0"/><use x="467.259" xlink:href="#y" y="354.491"/><path d="m4253.632812 2309.932813h5.507813v323.984375h-5.507813zm0 0" fill="none" stroke="#000" stroke-linejoin="round" stroke-miterlimit="10" stroke-width="3.98007" transform="matrix(.1 0 0 -.1 0 577.13)"/><path d="m425.363281 346.136719h.546875v-32.398438h-.546875zm0 0"/><use x="410.826" xlink:href="#Z" y="401.315"/><use x="426.983787" xlink:href="#I" y="401.315"/><use x="443.141574" xlink:href="#J" y="401.315"/><use x="410.826" xlink:href="#y" y="348.6377"/><path d="m3637.851562 2368.4875h5.507813v382.695313h-5.507813zm0 0" fill="none" stroke="#000" stroke-linejoin="round" stroke-miterlimit="10" stroke-width="3.98007" transform="matrix(.1 0 0 -.1 0 577.13)"/><path d="m363.785156 340.28125h.550782v-38.269531h-.550782zm0 0"/><path d="m2456.992188 1837.159375h71.445312v3.632813h-71.445312zm0 0" fill="none" stroke="#000" stroke-linejoin="round" stroke-miterlimit="10" stroke-width="5.82964" transform="matrix(.1 0 0 -.1 0 577.13)"/><path d="m245.699219 393.414062h7.144531v-.363281h-7.144531zm0 0"/><path d="m3916.40625 1837.159375h71.40625v3.632813h-71.40625zm0 0" fill="none" stroke="#000" stroke-linejoin="round" stroke-miterlimit="10" stroke-width="5.82964" transform="matrix(.1 0 0 -.1 0 577.13)"/><path d="m391.640625 393.414062h7.140625v-.363281h-7.140625zm0 0"/><path d="m4181.015625 2145.753125c122.460937-126.757812 424.84375-148.710937 564.335937-40.976562-138.867187-98.984375-441.25-77.03125-564.335937 40.976562zm0 0" style="fill:none;stroke-width:5.82957;stroke-linecap:round;stroke-linejoin:round;stroke:#000;stroke-miterlimit:10" transform="matrix(.1 0 0 -.1 0 577.13)"/><path d="m418.101562 362.554688c12.246094 12.675781 42.484376 14.871093 56.433594 4.097656-13.886718 9.898437-44.125 7.703125-56.433594-4.097656"/><path d="m4795.234375 1837.159375h71.40625v3.632813h-71.40625zm0 0" fill="none" stroke="#000" stroke-linejoin="round" stroke-miterlimit="10" stroke-width="5.82964" transform="matrix(.1 0 0 -.1 0 577.13)"/><path d="m479.523438 393.414062h7.140624v-.363281h-7.140624zm0 0"/><path d="m4253.632812 2662.198438v-52.1875l569.804688-24.453125v52.1875zm0 0" fill="none" stroke="#000" stroke-linejoin="round" stroke-miterlimit="10" stroke-width="3.98007" transform="matrix(.1 0 0 -.1 0 577.13)"/><path d="m425.363281 310.910156v5.21875l56.980469 2.445313v-5.21875zm0 0"/><path d="m5390.078125 2201.260938h5.46875v374.335937h-5.46875zm0 0" fill="none" stroke="#000" stroke-linejoin="round" stroke-miterlimit="10" stroke-width="3.98007" transform="matrix(.1 0 0 -.1 0 577.13)"/><path d="m539.007812 357.003906h.546876v-37.433594h-.546876zm0 0"/><use x="516.587" xlink:href="#E" y="401.315"/><use x="523.04988" xlink:href="#F" y="401.315"/><use x="538.867042" xlink:href="#G" y="401.315"/><use x="523.69247" xlink:href="#z" y="360.3435"/><use x="9.36547" xlink:href="#B" y="348.6376"/><use x="334.18547" xlink:href="#aa" y="401.3149"/><use x="348.981954" xlink:href="#Y" y="401.3149"/><use x="363.438986" xlink:href="#ab" y="401.3149"/><path d="m1070.15625 2309.932813h5.507812v382.695312h-5.507812zm0 0" fill="none" stroke="#000" stroke-linejoin="round" stroke-miterlimit="10" stroke-width="3.98007" transform="matrix(.1 0 0 -.1 0 577.13)"/><path d="m107.015625 346.136719h.550781v-38.269531h-.550781zm0 0"/><use x="68.6563" xlink:href="#M" y="401.315"/><use x="92.807078" xlink:href="#U" y="401.315"/><use x="99.26997" xlink:href="#R" y="401.315"/><use x="115.428172" xlink:href="#Z" y="401.315"/><use x="92.4782" xlink:href="#y" y="348.6377"/><use x="50.3364" xlink:href="#A" y="313.5193"/><path d="m2160.117188 2013.760938h5.507812v363.203125h-5.507812zm0 0" fill="none" stroke="#000" stroke-linejoin="round" stroke-miterlimit="10" stroke-width="3.98007" transform="matrix(.1 0 0 -.1 0 577.13)"/><path d="m216.011719 375.753906h.546875v-36.320312h-.546875zm0 0"/><use x="349.248" xlink:href="#y" y="342.785"/><path d="m2909.140625 2309.932813h5.46875v382.695312h-5.46875zm0 0" fill="none" stroke="#000" stroke-linejoin="round" stroke-miterlimit="10" stroke-width="3.98007" transform="matrix(.1 0 0 -.1 0 577.13)"/><path d="m290.914062 346.136719h.546876v-38.269531h-.546876zm0 0"/><use x="264.628" xlink:href="#J" y="401.315"/><use x="271.09088" xlink:href="#I" y="401.315"/><use x="287.248691" xlink:href="#O" y="401.315"/><use x="276.3741" xlink:href="#y" y="348.6377"/><use x="212.9948" xlink:href="#H" y="401.315"/><use x="227.451832" xlink:href="#U" y="401.315"/><use x="154.0557" xlink:href="#y" y="342.7845"/><use x="153.620153" xlink:href="#N" y="401.315"/><use x="215.811153" xlink:href="#y" y="336.9314"/><path d="m1685.9375 2368.4875h5.507812v382.695313h-5.507812zm0 0" fill="none" stroke="#000" stroke-linejoin="round" stroke-miterlimit="10" stroke-width="3.98007" transform="matrix(.1 0 0 -.1 0 577.13)"/><path d="m168.59375 340.28125h.546875v-38.269531h-.546875zm0 0"/><g clip-path="url(#s)"><path d="m3.632812 763.135938h5945.46875" style="fill:none;stroke-width:7.2812;stroke-linecap:round;stroke-linejoin:round;stroke:#000;stroke-miterlimit:10" transform="matrix(.1 0 0 -.1 0 577.13)"/></g><g clip-path="url(#t)"><path d="m3.632812 880.20625h5945.46875" style="fill:none;stroke-width:7.2812;stroke-linecap:round;stroke-linejoin:round;stroke:#000;stroke-miterlimit:10" transform="matrix(.1 0 0 -.1 0 577.13)"/></g><g clip-path="url(#u)"><path d="m3.632812 997.2375h5945.46875" style="fill:none;stroke-width:7.2812;stroke-linecap:round;stroke-linejoin:round;stroke:#000;stroke-miterlimit:10" transform="matrix(.1 0 0 -.1 0 577.13)"/></g><g clip-path="url(#v)"><path d="m3.632812 1114.307813h5945.46875" style="fill:none;stroke-width:7.2812;stroke-linecap:round;stroke-linejoin:round;stroke:#000;stroke-miterlimit:10" transform="matrix(.1 0 0 -.1 0 577.13)"/></g><g clip-path="url(#w)"><path d="m3.632812 1231.378125h5945.46875" style="fill:none;stroke-width:7.2812;stroke-linecap:round;stroke-linejoin:round;stroke:#000;stroke-miterlimit:10" transform="matrix(.1 0 0 -.1 0 577.13)"/></g><path d="m3400.9375 763.135938v468.242187" fill="none" stroke="#000" stroke-linejoin="round" stroke-miterlimit="10" stroke-width="13.8483" transform="matrix(.1 0 0 -.1 0 577.13)"/><g clip-path="url(#x)"><path d="m5930.898438 763.135938v468.242187" fill="none" stroke="#000" stroke-linejoin="round" stroke-miterlimit="10" stroke-width="43.7223" transform="matrix(.1 0 0 -.1 0 577.13)"/></g><path d="m5880.234375 763.135938v468.242187" fill="none" stroke="#000" stroke-linejoin="round" stroke-miterlimit="10" stroke-width="13.8483" transform="matrix(.1 0 0 -.1 0 577.13)"/><path d="m3628.398438 846.690625h5.46875v289.882813h-5.46875zm0 0" fill="none" stroke="#000" stroke-linejoin="round" stroke-miterlimit="10" stroke-width="3.98007" transform="matrix(.1 0 0 -.1 0 577.13)"/><path d="m362.839844 492.460938h.546875v-28.988282h-.546875zm0 0"/><path d="m4731.40625 846.690625h5.507812v382.695313h-5.507812zm0 0" fill="none" stroke="#000" stroke-linejoin="round" stroke-miterlimit="10" stroke-width="3.98007" transform="matrix(.1 0 0 -.1 0 577.13)"/><path d="m473.140625 492.460938h.550781v-38.269532h-.550781zm0 0"/><use x="454.341" xlink:href="#ac" y="541.9054"/><use x="471.689434" xlink:href="#U" y="541.9054"/><use x="458.6035" xlink:href="#y" y="494.964"/><path d="m4179.882812 788.175h5.507813v324.375h-5.507813zm0 0" fill="none" stroke="#000" stroke-linejoin="round" stroke-miterlimit="10" stroke-width="3.98007" transform="matrix(.1 0 0 -.1 0 577.13)"/><path d="m417.988281 498.3125h.550781v-32.4375h-.550781zm0 0"/><use x="403.452" xlink:href="#y" y="500.8171"/><path d="m1860.390625 431.260938h71.40625v3.632812h-71.40625zm0 0" fill="none" stroke="#000" stroke-linejoin="round" stroke-miterlimit="10" stroke-width="5.82964" transform="matrix(.1 0 0 -.1 0 577.13)"/><path d="m186.039062 534.003906h7.140626v-.363281h-7.140626zm0 0"/><path d="m3184.765625 431.260938h71.40625v3.632812h-71.40625zm0 0" fill="none" stroke="#000" stroke-linejoin="round" stroke-miterlimit="10" stroke-width="5.82964" transform="matrix(.1 0 0 -.1 0 577.13)"/><path d="m318.476562 534.003906h7.140626v-.363281h-7.140626zm0 0"/><path d="m3554.0625 700.05c116.484375-129.0625 410.546875-160.273437 551.523438-58.515625-140.039063-93.046875-434.140626-61.875-551.523438 58.515625zm0 0" style="fill:none;stroke-width:5.82957;stroke-linecap:round;stroke-linejoin:round;stroke:#000;stroke-miterlimit:10" transform="matrix(.1 0 0 -.1 0 577.13)"/><path d="m355.40625 507.125c11.648438 12.90625 41.054688 16.027344 55.152344 5.851562-14.003906 9.304688-43.414063 6.1875-55.152344-5.851562"/><path d="m4929.375 431.260938h71.40625v3.632812h-71.40625zm0 0" fill="none" stroke="#000" stroke-linejoin="round" stroke-miterlimit="10" stroke-width="5.82964" transform="matrix(.1 0 0 -.1 0 577.13)"/><path d="m492.9375 534.003906h7.140625v-.363281h-7.140625zm0 0"/><path d="m3628.398438 1164.854688v-52.1875l556.992187-24.453125v52.1875zm0 0" fill="none" stroke="#000" stroke-linejoin="round" stroke-miterlimit="10" stroke-width="3.98007" transform="matrix(.1 0 0 -.1 0 577.13)"/><path d="m362.839844 460.644531v5.21875l55.699218 2.445313v-5.21875zm0 0"/><path d="m5340.507812 796.534375h5.507813v374.335938h-5.507813zm0 0" fill="none" stroke="#000" stroke-linejoin="round" stroke-miterlimit="10" stroke-width="3.98007" transform="matrix(.1 0 0 -.1 0 577.13)"/><path d="m534.050781 497.476562h.550781v-37.433593h-.550781zm0 0"/><use x="514.863" xlink:href="#F" y="541.9054"/><use x="530.680162" xlink:href="#ad" y="541.9054"/><use x="518.73761" xlink:href="#z" y="500.8171"/><use x="50.33661" xlink:href="#A" y="453.9925"/><path d="m1070.15625 788.175h5.507812v382.695313h-5.507812zm0 0" fill="none" stroke="#000" stroke-linejoin="round" stroke-miterlimit="10" stroke-width="3.98007" transform="matrix(.1 0 0 -.1 0 577.13)"/><path d="m107.015625 498.3125h.550781v-38.269531h-.550781zm0 0"/><use x="72.7383" xlink:href="#M" y="541.9054"/><use x="96.889078" xlink:href="#U" y="541.9054"/><use x="103.35197" xlink:href="#R" y="541.9054"/><use x="119.509781" xlink:href="#C" y="541.9054"/><use x="92.4781" xlink:href="#y" y="500.8171"/><use x="9.3648" xlink:href="#B" y="489.1108"/><path d="m2283.984375 729.620313h5.507813v382.695312h-5.507813zm0 0" fill="none" stroke="#000" stroke-linejoin="round" stroke-miterlimit="10" stroke-width="3.98007" transform="matrix(.1 0 0 -.1 0 577.13)"/><path d="m228.398438 504.167969h.550781v-38.269531h-.550781zm0 0"/><use x="348.301" xlink:href="#C" y="541.9054"/><use x="355.954112" xlink:href="#N" y="541.9054"/><use x="372.112314" xlink:href="#R" y="541.9054"/><use x="348.301" xlink:href="#y" y="494.964"/><path d="m2914.609375 905.20625h5.507813v382.695313h-5.507813zm0 0" fill="none" stroke="#000" stroke-linejoin="round" stroke-miterlimit="10" stroke-width="3.98007" transform="matrix(.1 0 0 -.1 0 577.13)"/><path d="m291.460938 486.609375h.550781v-38.269531h-.550781zm0 0"/><use x="273.341" xlink:href="#ae" y="541.9054"/><use x="281.335128" xlink:href="#Y" y="541.9054"/><use x="276.92303" xlink:href="#y" y="489.1109"/><use x="153.72803" xlink:href="#y" y="500.8172"/><use x="213.86243" xlink:href="#y" y="506.67033"/><use x="146.23393" xlink:href="#E" y="541.90553"/><use x="152.696822" xlink:href="#L" y="541.90553"/><use x="168.514008" xlink:href="#C" y="541.90553"/><path d="m1682.65625 788.175h5.507812v382.695313h-5.507812zm0 0" fill="none" stroke="#000" stroke-linejoin="round" stroke-miterlimit="10" stroke-width="3.98007" transform="matrix(.1 0 0 -.1 0 577.13)"/><path d="m168.265625 498.3125h.550781v-38.269531h-.550781zm0 0"/><use x="202.711" xlink:href="#C" y="541.9054"/><use x="210.364502" xlink:href="#S" y="541.9054"/><use x="226.35161" xlink:href="#J" y="541.9054"/><use x="232.304333" xlink:href="#G" y="541.9054"/></svg>