<svg height="1008.2em" viewBox="0 0 595.28 1008.2" width="595.28em" xmlns="http://www.w3.org/2000/svg" xmlns:xlink="http://www.w3.org/1999/xlink"><clipPath id="a"><path d="m0 81h595.28125v1h-595.28125zm0 0"/></clipPath><clipPath id="b"><path d="m0 71h595.28125v1h-595.28125zm0 0"/></clipPath><clipPath id="c"><path d="m0 60h595.28125v2h-595.28125zm0 0"/></clipPath><clipPath id="d"><path d="m0 50h595.28125v2h-595.28125zm0 0"/></clipPath><clipPath id="e"><path d="m0 40h595.28125v2h-595.28125zm0 0"/></clipPath><clipPath id="f"><path d="m0 203h595.28125v2h-595.28125zm0 0"/></clipPath><clipPath id="g"><path d="m0 193h595.28125v2h-595.28125zm0 0"/></clipPath><clipPath id="h"><path d="m0 183h595.28125v2h-595.28125zm0 0"/></clipPath><clipPath id="i"><path d="m0 173h595.28125v1h-595.28125zm0 0"/></clipPath><clipPath id="j"><path d="m0 163h595.28125v1h-595.28125zm0 0"/></clipPath><clipPath id="k"><path d="m0 326h595.28125v2h-595.28125zm0 0"/></clipPath><clipPath id="l"><path d="m0 316h595.28125v1h-595.28125zm0 0"/></clipPath><clipPath id="m"><path d="m0 305h595.28125v2h-595.28125zm0 0"/></clipPath><clipPath id="n"><path d="m0 295h595.28125v2h-595.28125zm0 0"/></clipPath><clipPath id="o"><path d="m0 285h595.28125v2h-595.28125zm0 0"/></clipPath><clipPath id="p"><path d="m0 448h595.28125v2h-595.28125zm0 0"/></clipPath><clipPath id="q"><path d="m0 438h595.28125v2h-595.28125zm0 0"/></clipPath><clipPath id="r"><path d="m0 428h595.28125v2h-595.28125zm0 0"/></clipPath><clipPath id="s"><path d="m0 418h595.28125v1h-595.28125zm0 0"/></clipPath><clipPath id="t"><path d="m0 408h595.28125v1h-595.28125zm0 0"/></clipPath><clipPath id="u"><path d="m0 571h595.28125v2h-595.28125zm0 0"/></clipPath><clipPath id="v"><path d="m0 561h595.28125v1h-595.28125zm0 0"/></clipPath><clipPath id="w"><path d="m0 551h595.28125v1h-595.28125zm0 0"/></clipPath><clipPath id="x"><path d="m0 540h595.28125v2h-595.28125zm0 0"/></clipPath><clipPath id="y"><path d="m0 530h595.28125v2h-595.28125zm0 0"/></clipPath><clipPath id="z"><path d="m0 694h595.28125v1h-595.28125zm0 0"/></clipPath><clipPath id="A"><path d="m0 683h595.28125v2h-595.28125zm0 0"/></clipPath><clipPath id="B"><path d="m0 673h595.28125v2h-595.28125zm0 0"/></clipPath><clipPath id="C"><path d="m0 663h595.28125v2h-595.28125zm0 0"/></clipPath><clipPath id="D"><path d="m0 653h595.28125v1h-595.28125zm0 0"/></clipPath><clipPath id="E"><path d="m0 816h595.28125v2h-595.28125zm0 0"/></clipPath><clipPath id="F"><path d="m0 806h595.28125v2h-595.28125zm0 0"/></clipPath><clipPath id="G"><path d="m0 796h595.28125v1h-595.28125zm0 0"/></clipPath><clipPath id="H"><path d="m0 785h595.28125v2h-595.28125zm0 0"/></clipPath><clipPath id="I"><path d="m0 775h595.28125v2h-595.28125zm0 0"/></clipPath><clipPath id="J"><path d="m0 939h595.28125v1h-595.28125zm0 0"/></clipPath><clipPath id="K"><path d="m0 928h595.28125v2h-595.28125zm0 0"/></clipPath><clipPath id="L"><path d="m0 918h595.28125v2h-595.28125zm0 0"/></clipPath><clipPath id="M"><path d="m0 908h595.28125v2h-595.28125zm0 0"/></clipPath><clipPath id="N"><path d="m0 898h595.28125v1h-595.28125zm0 0"/></clipPath><clipPath id="O"><path d="m591 896h4.28125v46h-4.28125zm0 0"/></clipPath><symbol id="P" overflow="visible"><path d="m3.828125-18.390625h-2.109375v18.390625h2.109375zm0 0"/></symbol><symbol id="Q" overflow="visible"><path d="m12.9375-5.90625c0-2.015625-.15625-3.21875-.53125-4.203125-.859375-2.171875-2.875-3.484375-5.34375-3.484375-3.6875 0-6.046875 2.796875-6.046875 7.15625 0 4.375 2.265625 7.015625 6 7.015625 3.015625 0 5.109375-1.71875 5.640625-4.59375h-2.109375c-.578125 1.75-1.765625 2.65625-3.453125 2.65625-1.34375 0-2.484375-.609375-3.1875-1.71875-.5-.75-.671875-1.515625-.703125-2.828125zm-9.6875-1.703125c.1875-2.453125 1.671875-4.046875 3.78125-4.046875 2.140625 0 3.640625 1.671875 3.640625 4.046875zm0 0"/></symbol><symbol id="R" overflow="visible"><path d="m3.5625-18.390625h-2.09375v18.390625h2.09375v-5.140625l2.03125-2.015625 4.46875 7.15625h2.59375l-5.390625-8.65625 4.59375-4.5625h-2.703125l-5.59375 5.609375zm0 0"/></symbol><symbol id="S" overflow="visible"><path d="m2.1875-2.625v2.625h1.515625v.453125c0 1.734375-.328125 2.25-1.515625 2.296875v.953125c1.671875.046875 2.65625-1.15625 2.65625-3.296875v-3.03125zm0 0"/></symbol><symbol id="T" overflow="visible"><path d="m3.78125-13.21875h-2.09375v13.21875h2.09375zm0-5.171875h-2.109375v2.65625h2.109375zm0 0"/></symbol><symbol id="U" overflow="visible"><path d="m1.765625-13.21875v13.21875h2.125v-7.28125c0-2.703125 1.40625-4.46875 3.578125-4.46875 1.65625 0 2.71875 1 2.71875 2.59375v9.15625h2.09375v-9.984375c0-2.203125-1.640625-3.609375-4.1875-3.609375-1.96875 0-3.21875.75-4.390625 2.59375v-2.21875zm0 0"/></symbol><symbol id="V" overflow="visible"><path d="m6.5-13.21875h-2.1875v-2.0625c0-.890625.484375-1.34375 1.46875-1.34375.171875 0 .25 0 .71875.03125v-1.734375c-.46875-.109375-.75-.125-1.171875-.125-1.953125 0-3.109375 1.109375-3.109375 3v2.234375h-1.765625v1.71875h1.765625v11.5h2.09375v-11.5h2.1875zm0 0"/></symbol><symbol id="W" overflow="visible"><path d="m12.15625 0v-13.21875h-2.09375v7.5c0 2.6875-1.40625 4.453125-3.609375 4.453125-1.65625 0-2.71875-1-2.71875-2.59375v-9.359375h-2.09375v10.1875c0 2.203125 1.640625 3.609375 4.203125 3.609375 1.953125 0 3.1875-.671875 4.421875-2.421875v1.84375zm-5.984375-18.03125h-2.609375v2.59375h2.609375zm4.09375 0h-2.625v2.59375h2.625zm0 0"/></symbol><symbol id="X" overflow="visible"><path d="m6.40625-13.21875h-2.171875v-3.625h-2.09375v3.625h-1.78125v1.71875h1.78125v9.984375c0 1.359375.90625 2.09375 2.546875 2.09375.5625 0 1.015625-.046875 1.71875-.171875v-1.765625c-.296875.078125-.578125.09375-1.015625.09375-.90625 0-1.15625-.25-1.15625-1.1875v-9.046875h2.171875zm0 0"/></symbol><symbol id="Y" overflow="visible"><path d="m13.890625-8.375v8.375h2.34375v-18.390625h-2.34375v7.953125h-9.453125v-7.953125h-2.34375v18.390625h2.34375v-8.375zm0 0"/></symbol><symbol id="Z" overflow="visible"><path d="m13.484375-1.234375c-.21875.046875-.3125.046875-.453125.046875-.71875 0-1.125-.375-1.125-1.03125v-7.765625c0-2.34375-1.71875-3.609375-4.96875-3.609375-1.9375 0-3.484375.5625-4.390625 1.546875-.609375.671875-.859375 1.4375-.90625 2.734375h2.109375c.1875-1.609375 1.140625-2.34375 3.109375-2.34375 1.921875 0 2.953125.71875 2.953125 1.96875v.5625c-.03125.90625-.484375 1.234375-2.203125 1.453125-2.96875.390625-3.421875.484375-4.234375.8125-1.53125.65625-2.3125 1.8125-2.3125 3.53125 0 2.390625 1.65625 3.90625 4.328125 3.90625 1.671875 0 3-.578125 4.5-1.9375.140625 1.359375.796875 1.9375 2.15625 1.9375.46875 0 .734375-.046875 1.4375-.21875zm-3.671875-2.921875c0 .703125-.203125 1.125-.828125 1.703125-.859375.78125-1.890625 1.1875-3.140625 1.1875-1.625 0-2.59375-.78125-2.59375-2.109375 0-1.390625.90625-2.09375 3.1875-2.421875 2.234375-.3125 2.671875-.40625 3.375-.734375zm0 0"/></symbol><symbol id="aa" overflow="visible"><path d="m4.890625-18.390625h-2.375v18.390625h2.375zm0 0"/></symbol><symbol id="ab" overflow="visible"><path d="m11.046875-9.53125c-.03125-2.59375-1.734375-4.0625-4.796875-4.0625-3.078125 0-5.0625 1.59375-5.0625 4.03125 0 2.078125 1.0625 3.0625 4.1875 3.8125l1.96875.484375c1.453125.34375 2.03125.875 2.03125 1.8125 0 1.265625-1.234375 2.09375-3.078125 2.09375-1.125 0-2.078125-.328125-2.609375-.890625-.328125-.375-.484375-.75-.609375-1.6875h-2.21875c.09375 3.0625 1.8125 4.515625 5.265625 4.515625 3.328125 0 5.453125-1.640625 5.453125-4.1875 0-1.96875-1.109375-3.046875-3.734375-3.671875l-2.015625-.484375c-1.71875-.40625-2.453125-.953125-2.453125-1.890625 0-1.234375 1.09375-2 2.796875-2s2.609375.734375 2.65625 2.125zm0 0"/></symbol><symbol id="ac" overflow="visible"><path d="m12.15625 0v-13.21875h-2.09375v7.5c0 2.6875-1.40625 4.453125-3.609375 4.453125-1.65625 0-2.71875-1-2.71875-2.59375v-9.359375h-2.09375v10.1875c0 2.203125 1.640625 3.609375 4.203125 3.609375 1.953125 0 3.1875-.671875 4.421875-2.421875v1.84375zm0 0"/></symbol><symbol id="ad" overflow="visible"><path d="m6.859375-13.59375c-3.734375 0-5.953125 2.65625-5.953125 7.09375 0 4.453125 2.21875 7.078125 5.984375 7.078125 3.71875 0 5.96875-2.640625 5.96875-6.984375 0-4.59375-2.171875-7.1875-6-7.1875zm.03125 1.9375c2.359375 0 3.78125 1.953125 3.78125 5.21875 0 3.140625-1.46875 5.078125-3.78125 5.078125-2.34375 0-3.78125-1.9375-3.78125-5.140625s1.4375-5.15625 3.78125-5.15625zm0 0"/></symbol><symbol id="ae" overflow="visible"><path d="m12.9375-5.90625c0-2.015625-.15625-3.21875-.53125-4.203125-.859375-2.171875-2.875-3.484375-5.34375-3.484375-3.6875 0-6.046875 2.796875-6.046875 7.15625 0 4.375 2.265625 7.015625 6 7.015625 3.015625 0 5.109375-1.71875 5.640625-4.59375h-2.109375c-.578125 1.75-1.765625 2.65625-3.453125 2.65625-1.34375 0-2.484375-.609375-3.1875-1.71875-.5-.75-.671875-1.515625-.703125-2.828125zm-9.6875-1.703125c.1875-2.453125 1.671875-4.046875 3.78125-4.046875 2.140625 0 3.640625 1.671875 3.640625 4.046875zm4.515625-11.046875-2.421875 3.734375h1.515625l3.75-3.734375zm0 0"/></symbol><symbol id="af" overflow="visible"><path d="m4.8125-2.625h-2.625v2.625h2.625zm0 0"/></symbol><symbol id="ag" overflow="visible"><path d="m12.484375-18.390625h-2.09375v6.84375c-.890625-1.34375-2.296875-2.046875-4.0625-2.046875-3.421875 0-5.671875 2.75-5.671875 6.96875 0 4.453125 2.171875 7.203125 5.75 7.203125 1.8125 0 3.078125-.671875 4.203125-2.3125v1.734375h1.875zm-5.796875 6.765625c2.265625 0 3.703125 1.984375 3.703125 5.171875 0 3.046875-1.46875 5.0625-3.6875 5.0625-2.3125 0-3.859375-2.046875-3.859375-5.109375 0-3.078125 1.546875-5.125 3.84375-5.125zm0 0"/></symbol><symbol id="ah" overflow="visible"><path d="m11.875-8.78125c-.09375-1.28125-.375-2.109375-.875-2.84375-.90625-1.234375-2.5-1.96875-4.34375-1.96875-3.578125 0-5.875 2.828125-5.875 7.21875 0 4.25 2.265625 6.953125 5.84375 6.953125 3.15625 0 5.15625-1.890625 5.40625-5.125h-2.125c-.34375 2.125-1.4375 3.1875-3.21875 3.1875-2.328125 0-3.71875-1.890625-3.71875-5.015625 0-3.3125 1.375-5.28125 3.65625-5.28125 1.765625 0 2.875 1.046875 3.140625 2.875zm0 0"/></symbol><symbol id="ai" overflow="visible"><path d="m11.953125-5.515625 1.890625 5.515625h2.625l-6.453125-18.390625h-3.03125l-6.5625 18.390625h2.5l1.953125-5.515625zm-.65625-1.96875h-5.84375l3.015625-8.375zm0 0"/></symbol><symbol id="aj" overflow="visible"><path d="m10.1875-13.21875v1.921875c-1.0625-1.59375-2.21875-2.296875-3.890625-2.296875-3.1875 0-5.421875 2.984375-5.421875 7.21875 0 2.21875.53125 3.828125 1.671875 5.171875.984375 1.15625 2.25 1.78125 3.609375 1.78125 1.578125 0 2.71875-.703125 3.828125-2.375v.6875c0 3.53125-.984375 4.84375-3.609375 4.84375-1.78125 0-2.71875-.703125-2.921875-2.21875h-2.140625c.203125 2.4375 2.140625 3.984375 5.015625 3.984375 1.9375 0 3.5625-.625 4.421875-1.6875 1-1.234375 1.375-2.875 1.375-5.984375v-11.046875zm-3.6875 1.5625c2.21875 0 3.484375 1.875 3.484375 5.21875 0 3.203125-1.28125 5.078125-3.484375 5.078125-2.15625 0-3.421875-1.890625-3.421875-5.140625 0-3.234375 1.265625-5.15625 3.421875-5.15625zm0 0"/></symbol><symbol id="ak" overflow="visible"><path d="m1.734375-13.21875v13.21875h2.125v-6.859375c.03125-3.171875 1.328125-4.59375 4.234375-4.515625v-2.140625c-.359375-.046875-.546875-.078125-.8125-.078125-1.359375 0-2.390625.8125-3.59375 2.78125v-2.40625zm0 0"/></symbol><symbol id="al" overflow="visible"><path d="m1.765625-13.21875v13.21875h2.125v-8.296875c0-1.921875 1.375-3.453125 3.09375-3.453125 1.5625 0 2.453125.953125 2.453125 2.640625v9.109375h2.109375v-8.296875c0-1.921875 1.390625-3.453125 3.109375-3.453125 1.53125 0 2.4375.984375 2.4375 2.640625v9.109375h2.125v-9.90625c0-2.375-1.359375-3.6875-3.828125-3.6875-1.765625 0-2.828125.53125-4.0625 2.015625-.78125-1.40625-1.84375-2.015625-3.5625-2.015625-1.765625 0-2.953125.65625-4.0625 2.25v-1.875zm0 0"/></symbol><symbol id="am" overflow="visible"><path d="m13.484375-1.234375c-.21875.046875-.3125.046875-.453125.046875-.71875 0-1.125-.375-1.125-1.03125v-7.765625c0-2.34375-1.71875-3.609375-4.96875-3.609375-1.9375 0-3.484375.5625-4.390625 1.546875-.609375.671875-.859375 1.4375-.90625 2.734375h2.109375c.1875-1.609375 1.140625-2.34375 3.109375-2.34375 1.921875 0 2.953125.71875 2.953125 1.96875v.5625c-.03125.90625-.484375 1.234375-2.203125 1.453125-2.96875.390625-3.421875.484375-4.234375.8125-1.53125.65625-2.3125 1.8125-2.3125 3.53125 0 2.390625 1.65625 3.90625 4.328125 3.90625 1.671875 0 3-.578125 4.5-1.9375.140625 1.359375.796875 1.9375 2.15625 1.9375.46875 0 .734375-.046875 1.4375-.21875zm-3.671875-2.921875c0 .703125-.203125 1.125-.828125 1.703125-.859375.78125-1.890625 1.1875-3.140625 1.1875-1.625 0-2.59375-.78125-2.59375-2.109375 0-1.390625.90625-2.09375 3.1875-2.421875 2.234375-.3125 2.671875-.40625 3.375-.734375zm-2.140625-14.5-2.453125 3.734375h1.515625l3.75-3.734375zm0 0"/></symbol><symbol id="an" overflow="visible"><path d="m16.296875-18.390625h-2.21875v15.03125l-9.609375-15.03125h-2.546875v18.390625h2.21875v-14.90625l9.5 14.90625h2.65625zm0 0"/></symbol><symbol id="ao" overflow="visible"><path d="m9.78125-13.21875-3.65625 10.296875-3.375-10.296875h-2.25l4.46875 13.265625-.8125 2.09375c-.34375.9375-.796875 1.296875-1.6875 1.296875-.34375 0-.65625-.0625-1.109375-.15625v1.890625c.4375.21875.859375.328125 1.421875.328125.671875 0 1.40625-.234375 1.953125-.625.65625-.484375 1.046875-1.046875 1.4375-2.09375l5.875-16zm0 0"/></symbol><symbol id="ap" overflow="visible"><path d="m5.421875-13.21875h-2.625v2.625h2.625zm-2.640625 10.59375v2.625h1.5v.453125c0 1.734375-.328125 2.25-1.5 2.296875v.953125c1.65625.046875 2.640625-1.15625 2.640625-3.296875v-3.03125zm0 0"/></symbol><symbol id="aq" overflow="visible"><path d="m4.34375-6.4375 3-3 6.46875 9.4375h2.78125l-7.5625-10.890625 7.484375-7.5h-3.03125l-9.140625 9.3125v-9.3125h-2.34375v18.390625h2.34375zm0 0"/></symbol><symbol id="ar" overflow="visible"><path d="m11.171875-13.21875h-9.859375v1.84375h7.359375l-7.890625 9.484375v1.890625h10.75v-1.84375h-8.203125l7.84375-9.5zm0 0"/></symbol><symbol id="as" overflow="visible"><path d="m1.359375 5.5h2.125v-6.890625c1.109375 1.359375 2.34375 1.96875 4.0625 1.96875 3.421875 0 5.640625-2.75 5.640625-6.953125 0-4.4375-2.171875-7.21875-5.671875-7.21875-1.796875 0-3.234375.8125-4.21875 2.375v-2h-1.9375zm5.796875-17.125c2.328125 0 3.84375 2.046875 3.84375 5.1875 0 3-1.546875 5.046875-3.84375 5.046875-2.234375 0-3.671875-2.015625-3.671875-5.109375 0-3.109375 1.4375-5.125 3.671875-5.125zm0 0"/></symbol><symbol id="at" overflow="visible"><path d="m4.46875-13.21875h-2.09375v13.21875h2.09375zm-.40625-5.4375-2.421875 3.734375h1.515625l3.75-3.734375zm0 0"/></symbol><symbol id="au" overflow="visible"><path d="m4.609375-8.375h10.015625v-2.0625h-10.015625v-5.875h10.390625v-2.078125h-12.734375v18.390625h13.1875v-2.0625h-10.84375zm0 0"/></symbol><symbol id="av" overflow="visible"><path d="m1.765625-13.21875v15.140625c0 1.3125-.40625 1.734375-1.71875 1.734375-.140625 0-.21875 0-.5-.03125v1.796875c.25.046875.375.078125.703125.078125 2.375 0 3.609375-.9375 3.609375-2.75v-15.96875zm2.09375-5.171875h-2.09375v2.65625h2.09375zm0 0"/></symbol><symbol id="aw" overflow="visible"><path d="m6.859375-13.59375c-3.734375 0-5.953125 2.65625-5.953125 7.09375 0 4.453125 2.21875 7.078125 5.984375 7.078125 3.71875 0 5.96875-2.640625 5.96875-6.984375 0-4.59375-2.171875-7.1875-6-7.1875zm.03125 1.9375c2.359375 0 3.78125 1.953125 3.78125 5.21875 0 3.140625-1.46875 5.078125-3.78125 5.078125-2.34375 0-3.78125-1.9375-3.78125-5.140625s1.4375-5.15625 3.78125-5.15625zm-.734375-6.375h-2.625v2.59375h2.625zm4.078125 0h-2.625v2.59375h2.625zm0 0"/></symbol><symbol id="ax" overflow="visible"><path d="m7.1875 0 5.0625-13.21875h-2.359375l-3.734375 10.71875-3.53125-10.71875h-2.375l4.640625 13.21875zm0 0"/></symbol><symbol id="ay" overflow="visible"><path d="m1.359375-18.390625v18.390625h1.890625v-1.6875c1.015625 1.53125 2.34375 2.265625 4.1875 2.265625 3.484375 0 5.75-2.84375 5.75-7.234375 0-4.28125-2.140625-6.9375-5.640625-6.9375-1.828125 0-3.109375.6875-4.09375 2.171875v-6.96875zm5.78125 6.765625c2.34375 0 3.859375 2.046875 3.859375 5.1875 0 3-1.5625 5.046875-3.859375 5.046875-2.25 0-3.6875-2.015625-3.6875-5.109375 0-3.109375 1.4375-5.125 3.6875-5.125zm0 0"/></symbol><symbol id="az" overflow="visible"><path d="m1.765625-18.390625v18.390625h2.09375v-7.28125c0-2.703125 1.40625-4.46875 3.578125-4.46875.703125 0 1.359375.203125 1.875.578125.59375.453125.84375 1.078125.84375 2.015625v9.15625h2.09375v-9.984375c0-2.21875-1.578125-3.609375-4.15625-3.609375-1.859375 0-3 .578125-4.234375 2.1875v-6.984375zm0 0"/></symbol><symbol id="aA" overflow="visible"><path d="m12.90625-2.734375c0 .40625-.125.859375-.40625 1.1875-.859375 1.015625-2.8125 2.28125-4.375 3.265625-1.546875.984375-3.515625 2.28125-4.78125 2.65625-.15625.03125-.359375.078125-.53125.078125-.890625 0-1.703125-.703125-1.703125-1.71875 0-.40625.109375-.859375.40625-1.1875.859375-1.015625 2.8125-2.28125 4.359375-3.265625 1.5625-.984375 3.515625-2.28125 4.78125-2.65625.171875-.03125.375-.078125.53125-.078125.90625 0 1.71875.703125 1.71875 1.71875zm-2.078125-2.78125c-3.0625 0-5.5625.65625-7.71875 2.125-1.3125.90625-2.171875 2.28125-2.65625 3.796875-.25.734375-.453125 1.546875-.453125 2.328125 0 1.921875 1.390625 2.78125 3.1875 2.78125 3.0625 0 5.546875-.65625 7.71875-2.125 1.3125-.90625 2.15625-2.28125 2.65625-3.796875.25-.734375.453125-1.546875.453125-2.328125 0-1.921875-1.390625-2.78125-3.1875-2.78125zm0 0"/></symbol><symbol id="aB" overflow="visible"><path d="m9.0625-5.515625c-1.703125 0-3.34375.578125-4.8125 1.46875-1.921875 1.140625-4.25 3.140625-4.25 6.046875 0 2.40625 2.125 3.515625 4.28125 3.515625 1.71875 0 3.359375-.578125 4.828125-1.46875 1.921875-1.140625 4.203125-3.140625 4.203125-6.046875 0-2.40625-2.078125-3.515625-4.25-3.515625zm0 0"/></symbol><symbol id="aC" overflow="visible"><path d="m14.984375 0c.171875 0 .328125-.15625.328125-.328125v-5.71875c0-.15625-.15625-.328125-.328125-.328125h-14.65625c-.171875 0-.328125.171875-.328125.328125v5.71875c0 .171875.15625.328125.328125.328125zm0 0"/></symbol><symbol id="aD" overflow="visible"><path d="m15.28125-10.625c-.65625-2.859375-1.4375-5.671875-2.25-8.484375 3.921875-4.453125 7.46875-9.03125 7.46875-14.90625 0-4.625-2.53125-11.234375-5.390625-14.671875-.203125-.15625-.453125-.15625-.65625 0-3.875 2.8125-6.125 7.3125-6.125 12.046875 0 2.125.046875 4.203125.296875 6.296875.28125 2.65625.96875 5.21875 1.703125 7.796875-4.8125 5.46875-10.25 10.703125-10.25 17.96875 0 8.21875 5.921875 15.203125 13.609375 15.203125 1.265625 0 2.453125-.125 3.625-.328125.125 1.296875.203125 2.609375.203125 3.921875 0 .734375-.03125 1.421875-.078125 2.15625-.25 4.046875-2.734375 7.765625-6.53125 7.84375-.046875 0-.078125.046875-.125.046875-2.078125 0-3.875-1.1875-4.9375-2.859375.453125.203125.9375.359375 1.421875.359375 2.125 0 3.890625-1.75 3.890625-3.875 0-2.28125-1.6875-4.25-3.890625-4.25-2.40625 0-4.5625 1.875-4.5625 4.25 0 4.40625 3.546875 7.96875 7.953125 7.96875 4.828125 0 8.125-4.328125 8.421875-9.234375.03125-.78125.03125-1.515625.03125-2.28125 0-1.484375-.078125-2.953125-.203125-4.421875 1.0625-.328125 2.09375-.8125 2.984375-1.515625 3.03125-2.234375 4.375-5.390625 4.375-8.484375 0-5.390625-4.09375-10.578125-10.375-10.578125-.203125 0-.40625.03125-.609375.03125zm3.46875 19c-.578125-5.0625-1.515625-9.890625-2.53125-14.671875 4.484375.375 7.3125 4.125 7.3125 7.890625 0 2.859375-1.96875 5.796875-4.78125 6.78125zm-15.84375-9.640625c0-6.53125 4.40625-11.484375 8.8125-16.421875.65625 2.40625 1.3125 4.828125 1.875 7.265625-4.125.953125-6.453125 4.421875-6.453125 8.015625 0 2.859375 1.484375 5.75 4.75 7.515625.125.03125.234375.078125.359375.078125.453125 0 .8125-.40625.8125-.859375 0-.203125-.109375-.40625-.28125-.578125-2.28125-1.296875-3.34375-3.265625-3.34375-5.0625 0-2.40625 1.875-4.5625 5.109375-4.9375 1.0625 4.90625 2 9.765625 2.609375 14.984375-1.109375.171875-2.203125.25-3.34375.25-5.5625 0-10.90625-4.703125-10.90625-10.25zm13.875-41.625c.703125 2.171875.859375 3.234375.859375 5.59375 0 5.1875-2.734375 9.3125-6.078125 13.28125-.734375-2.578125-1.359375-5.0625-1.359375-8.171875 0-4.53125 2.546875-8.65625 6.578125-10.703125zm0 0"/></symbol><symbol id="aE" overflow="visible"><path d="m8.78125 12.90625v-6.65625l2-.6875c.25-.09375.453125-.328125.453125-.625v-2.65625c0-.4375-.453125-.765625-.859375-.609375l-1.59375.578125v-6.703125l2-.734375c.25-.078125.453125-.328125.453125-.609375v-2.609375c0-.453125-.453125-.78125-.859375-.625l-1.59375.53125v-6.125c0-.359375-.328125-.6875-.6875-.6875-.375 0-.703125.328125-.703125.6875v6.625l-3.546875 1.265625v-6.171875c0-.375-.328125-.6875-.703125-.6875-.359375 0-.6875.3125-.6875.6875v6.65625l-2 .6875c-.25.09375-.453125.328125-.453125.625v2.65625c0 .4375.453125.765625.859375.609375l1.59375-.578125v6.703125l-2 .734375c-.25.078125-.453125.328125-.453125.609375v2.609375c0 .453125.453125.78125.859375.625l1.59375-.53125v6.125c0 .359375.328125.6875.6875.6875.375 0 .703125-.328125.703125-.6875v-6.625l3.546875-1.265625v6.171875c0 .375.328125.6875.703125.6875.359375 0 .6875-.3125.6875-.6875zm-4.9375-15.640625 3.546875-1.234375v6.703125l-3.546875 1.234375zm0 0"/></symbol><symbol id="aF" overflow="visible"><path d="m8.78125-4.65625c3.234375 0 5.640625 2.484375 5.640625 5.71875 0 1.875-.828125 3.59375-2.859375 3.59375-3.234375 0-5.6875-2.484375-5.6875-5.71875 0-1.875.859375-3.59375 2.90625-3.59375zm11.515625 4.65625c0-1.75-1.421875-3.015625-2.984375-3.875-2.203125-1.1875-4.65625-1.640625-7.140625-1.640625-2.5 0-4.984375.453125-7.1875 1.640625-1.5625.859375-2.984375 2.125-2.984375 3.875s1.421875 3.015625 2.984375 3.875c2.203125 1.1875 4.6875 1.640625 7.1875 1.640625 2.484375 0 4.9375-.453125 7.140625-1.640625 1.5625-.859375 2.984375-2.125 2.984375-3.875zm0 0"/></symbol><symbol id="aG" overflow="visible"><path d="m5.34375-10.984375v10.984375h3.15625v-15.9375h-2.09375c-.5 1.890625-2.140625 2.859375-4.875 2.859375v2.09375zm0 0"/></symbol><symbol id="aH" overflow="visible"><path d="m4.8125-3.28125h-3.375v3.28125h3.375zm0 0"/></symbol><symbol id="aI" overflow="visible"><path d="m9.125-1.9375c0 .296875-.078125.609375-.28125.84375-.609375.71875-2 1.609375-3.09375 2.3125-1.09375.6875-2.484375 1.609375-3.375 1.875-.125.03125-.265625.0625-.375.0625-.640625 0-1.21875-.5-1.21875-1.21875 0-.296875.078125-.609375.28125-.84375.609375-.71875 2-1.609375 3.09375-2.3125 1.109375-.6875 2.484375-1.609375 3.390625-1.875.109375-.03125.25-.0625.375-.0625.625 0 1.203125.5 1.203125 1.21875zm-1.46875-1.96875c-2.171875 0-3.921875.46875-5.453125 1.515625-.9375.625-1.53125 1.609375-1.890625 2.671875-.171875.53125-.3125 1.109375-.3125 1.65625 0 1.359375.984375 1.96875 2.25 1.96875 2.171875 0 3.9375-.46875 5.46875-1.515625.921875-.625 1.53125-1.609375 1.875-2.671875.171875-.53125.3125-1.109375.3125-1.65625 0-1.359375-.984375-1.96875-2.25-1.96875zm0 0"/></symbol><g clip-path="url(#a)"><path d="m3.398438 9265.4375h5945.976562" fill="none" stroke="#000" stroke-linecap="round" stroke-miterlimit="10" stroke-width="6.77036" transform="matrix(.1 0 0 -.1 0 1008.2)"/></g><g clip-path="url(#b)"><path d="m3.398438 9367.546875h5945.976562" fill="none" stroke="#000" stroke-linecap="round" stroke-miterlimit="10" stroke-width="6.77036" transform="matrix(.1 0 0 -.1 0 1008.2)"/></g><g clip-path="url(#c)"><path d="m3.398438 9469.695312h5945.976562" fill="none" stroke="#000" stroke-linecap="round" stroke-miterlimit="10" stroke-width="6.77036" transform="matrix(.1 0 0 -.1 0 1008.2)"/></g><g clip-path="url(#d)"><path d="m3.398438 9571.804688h5945.976562" fill="none" stroke="#000" stroke-linecap="round" stroke-miterlimit="10" stroke-width="6.77036" transform="matrix(.1 0 0 -.1 0 1008.2)"/></g><g clip-path="url(#e)"><path d="m3.398438 9673.914062h5945.976562" fill="none" stroke="#000" stroke-linecap="round" stroke-miterlimit="10" stroke-width="6.77036" transform="matrix(.1 0 0 -.1 0 1008.2)"/></g><use x="374.122" xlink:href="#P" y="118.762"/><use x="379.734487" xlink:href="#Q" y="118.762"/><path d="m4964.960938 9396.960938h4.84375v326.015624h-4.84375zm0 0" style="fill:none;stroke-width:3.98257;stroke-linecap:round;stroke-linejoin:round;stroke:#000;stroke-miterlimit:10" transform="matrix(.1 0 0 -.1 0 1008.2)"/><path d="m496.496094 68.503906h.484375v-32.601562h-.484375zm0 0"/><use x="471.125" xlink:href="#R" y="118.762"/><use x="483.200378" xlink:href="#Q" y="118.762"/><use x="497.146472" xlink:href="#P" y="118.762"/><use x="502.249219" xlink:href="#S" y="118.762"/><use x="483.1687" xlink:href="#aA" y="71.444"/><path d="m4410.976562 9448.015625h4.804688v326.015625h-4.804688zm0 0" style="fill:none;stroke-width:3.98257;stroke-linecap:round;stroke-linejoin:round;stroke:#000;stroke-miterlimit:10" transform="matrix(.1 0 0 -.1 0 1008.2)"/><path d="m441.097656 63.398438h.480469v-32.601563h-.480469zm0 0"/><use x="418.702" xlink:href="#T" y="118.762"/><use x="424.314121" xlink:href="#U" y="118.762"/><use x="438.260215" xlink:href="#R" y="118.762"/><use x="427.7688" xlink:href="#aA" y="66.3382"/><path d="m3774.335938 9131.296875h4.84375v316.289063h-4.84375zm0 0" style="fill:none;stroke-width:3.98257;stroke-linecap:round;stroke-linejoin:round;stroke:#000;stroke-miterlimit:10" transform="matrix(.1 0 0 -.1 0 1008.2)"/><path d="m377.433594 95.070312h.480468v-31.628906h-.480468zm0 0"/><use x="377.234" xlink:href="#aB" y="61.232"/><path d="m3268.476562 9165.320312h4.804688v333.320313h-4.804688zm0 0" style="fill:none;stroke-width:3.98257;stroke-linecap:round;stroke-linejoin:round;stroke:#000;stroke-miterlimit:10" transform="matrix(.1 0 0 -.1 0 1008.2)"/><path d="m326.847656 91.667969h.480469v-33.332031h-.480469zm0 0"/><use x="322.856" xlink:href="#V" y="118.762"/><use x="329.829828" xlink:href="#W" y="118.762"/><use x="326.64858" xlink:href="#aB" y="56.1265"/><path d="m2714.492188 9165.320312h4.804687v326.015626h-4.804687zm0 0" style="fill:none;stroke-width:3.98257;stroke-linecap:round;stroke-linejoin:round;stroke:#000;stroke-miterlimit:10" transform="matrix(.1 0 0 -.1 0 1008.2)"/><path d="m271.449219 91.667969h.480469v-32.601563h-.480469zm0 0"/><path d="m934.726562 8963.445312h61.953126v3.398438h-61.953126zm0 0" style="fill:none;stroke-width:5.42242;stroke-linecap:round;stroke-linejoin:round;stroke:#000;stroke-miterlimit:10" transform="matrix(.1 0 0 -.1 0 1008.2)"/><path d="m93.472656 111.855469h6.195313v-.339844h-6.195313zm0 0"/><path d="m1400.039062 8963.445312h61.953126v3.398438h-61.953126zm0 0" style="fill:none;stroke-width:5.42242;stroke-linecap:round;stroke-linejoin:round;stroke:#000;stroke-miterlimit:10" transform="matrix(.1 0 0 -.1 0 1008.2)"/><path d="m140 111.855469h6.199219v-.339844h-6.199219zm0 0"/><path d="m2419.6875 8963.445312h61.992188v3.398438h-61.992188zm0 0" style="fill:none;stroke-width:5.42242;stroke-linecap:round;stroke-linejoin:round;stroke:#000;stroke-miterlimit:10" transform="matrix(.1 0 0 -.1 0 1008.2)"/><path d="m241.96875 111.855469h6.199219v-.339844h-6.199219zm0 0"/><path d="m3558.476562 8963.445312h61.992188v3.398438h-61.992188zm0 0" style="fill:none;stroke-width:5.42242;stroke-linecap:round;stroke-linejoin:round;stroke:#000;stroke-miterlimit:10" transform="matrix(.1 0 0 -.1 0 1008.2)"/><path d="m355.847656 111.855469h6.199219v-.339844h-6.199219zm0 0"/><path d="m4030.9375 8963.445312h61.953125v3.398438h-61.953125zm0 0" style="fill:none;stroke-width:5.42242;stroke-linecap:round;stroke-linejoin:round;stroke:#000;stroke-miterlimit:10" transform="matrix(.1 0 0 -.1 0 1008.2)"/><path d="m403.089844 111.855469h6.199218v-.339844h-6.199218zm0 0"/><path d="m4578.867188 8963.445312h61.992187v3.398438h-61.992187zm0 0" style="fill:none;stroke-width:5.42242;stroke-linecap:round;stroke-linejoin:round;stroke:#000;stroke-miterlimit:10" transform="matrix(.1 0 0 -.1 0 1008.2)"/><path d="m457.886719 111.855469h6.199219v-.339844h-6.199219zm0 0"/><use x="538.568" xlink:href="#aC" y="61.232"/><use x="8.169" xlink:href="#aD" y="71.4437"/><use x="257.504" xlink:href="#X" y="118.7617"/><use x="264.137203" xlink:href="#Q" y="118.7617"/><use x="278.083297" xlink:href="#U" y="118.7617"/><use x="292.029782" xlink:href="#S" y="118.7617"/><path d="m725.585938 9396.960938h4.804687v326.015624h-4.804687zm0 0" style="fill:none;stroke-width:3.98257;stroke-linecap:round;stroke-linejoin:round;stroke:#000;stroke-miterlimit:10" transform="matrix(.1 0 0 -.1 0 1008.2)"/><path d="m72.558594 68.503906h.480468v-32.601562h-.480468zm0 0"/><use x="18.5188" xlink:href="#aG" y="118.762"/><use x="30.934434" xlink:href="#aH" y="118.762"/><use x="47.4395" xlink:href="#Y" y="118.762"/><use x="65.468393" xlink:href="#Z" y="118.762"/><use x="79.414481" xlink:href="#P" y="118.762"/><path d="m584.453125 9784.226562h6.25v194.101563h-6.25zm0 0" style="fill:none;stroke-width:3.12478;stroke-linecap:round;stroke-linejoin:round;stroke:#000;stroke-miterlimit:10" transform="matrix(.1 0 0 -.1 0 1008.2)"/><path d="m58.445312 29.78125h.625v-19.414062h-.625zm0 0"/><use x="49.3203" xlink:href="#aI" y="31.874"/><use x="59.22772" xlink:href="#aA" y="71.4443"/><use x="271.24972" xlink:href="#aA" y="56.1267"/><path d="m2160.46875 9131.296875h4.84375v308.984375h-4.84375zm0 0" style="fill:none;stroke-width:3.98257;stroke-linecap:round;stroke-linejoin:round;stroke:#000;stroke-miterlimit:10" transform="matrix(.1 0 0 -.1 0 1008.2)"/><path d="m216.046875 95.070312h.484375v-30.898437h-.484375zm0 0"/><use x="213.075" xlink:href="#aa" y="118.762"/><use x="220.048438" xlink:href="#ab" y="118.762"/><use x="215.84922" xlink:href="#aA" y="61.2323"/><path d="m1778.671875 9440.710938h4.804687v333.320312h-4.804687zm0 0" style="fill:none;stroke-width:3.98257;stroke-linecap:round;stroke-linejoin:round;stroke:#000;stroke-miterlimit:10" transform="matrix(.1 0 0 -.1 0 1008.2)"/><path d="m177.867188 64.128906h.480468v-33.332031h-.480468zm0 0"/><use x="151.725" xlink:href="#X" y="118.762"/><use x="158.698828" xlink:href="#ac" y="118.762"/><use x="172.64491" xlink:href="#R" y="118.762"/><use x="185.060132" xlink:href="#S" y="118.762"/><use x="165.2129" xlink:href="#aB" y="66.3382"/><use x="114.6281" xlink:href="#aB" y="71.44406"/><use x="108.11404" xlink:href="#P" y="118.76206"/><use x="113.726539" xlink:href="#ad" y="118.76206"/><use x="127.50309" xlink:href="#X" y="118.76206"/><path d="m1272.8125 9389.65625h4.804688v333.320312h-4.804688zm0 0" style="fill:none;stroke-width:3.98257;stroke-linecap:round;stroke-linejoin:round;stroke:#000;stroke-miterlimit:10" transform="matrix(.1 0 0 -.1 0 1008.2)"/><path d="m127.28125 69.234375h.480469v-33.332031h-.480469zm0 0"/><g clip-path="url(#f)"><path d="m3.398438 8040.046875h5945.976562" style="fill:none;stroke-width:6.77036;stroke-linecap:round;stroke-linejoin:round;stroke:#000;stroke-miterlimit:10" transform="matrix(.1 0 0 -.1 0 1008.2)"/></g><g clip-path="url(#g)"><path d="m3.398438 8142.15625h5945.976562" style="fill:none;stroke-width:6.77036;stroke-linecap:round;stroke-linejoin:round;stroke:#000;stroke-miterlimit:10" transform="matrix(.1 0 0 -.1 0 1008.2)"/></g><g clip-path="url(#h)"><path d="m3.398438 8244.265625h5945.976562" style="fill:none;stroke-width:6.77036;stroke-linecap:round;stroke-linejoin:round;stroke:#000;stroke-miterlimit:10" transform="matrix(.1 0 0 -.1 0 1008.2)"/></g><g clip-path="url(#i)"><path d="m3.398438 8346.375h5945.976562" style="fill:none;stroke-width:6.77036;stroke-linecap:round;stroke-linejoin:round;stroke:#000;stroke-miterlimit:10" transform="matrix(.1 0 0 -.1 0 1008.2)"/></g><g clip-path="url(#j)"><path d="m3.398438 8448.484375h5945.976562" style="fill:none;stroke-width:6.77036;stroke-linecap:round;stroke-linejoin:round;stroke:#000;stroke-miterlimit:10" transform="matrix(.1 0 0 -.1 0 1008.2)"/></g><path d="m4801.210938 7937.9375h193.164062" style="fill:none;stroke-width:16.9821;stroke-linecap:round;stroke-linejoin:round;stroke:#000;stroke-miterlimit:10" transform="matrix(.1 0 0 -.1 0 1008.2)"/><path d="m4961.054688 7967.3125h4.804687v326.015625h-4.804687zm0 0" fill="none" stroke="#000" stroke-linejoin="round" stroke-miterlimit="10" stroke-width="3.98257" transform="matrix(.1 0 0 -.1 0 1008.2)"/><path d="m496.105469 211.46875h.480469v-32.601562h-.480469zm0 0"/><use x="473.452" xlink:href="#X" y="243.679"/><use x="480.085569" xlink:href="#ae" y="243.679"/><use x="494.031663" xlink:href="#P" y="243.679"/><use x="499.13441" xlink:href="#af" y="243.679"/><use x="482.77427" xlink:href="#aA" y="214.4083"/><path d="m4405.078125 8018.367188h4.804687v326.015624h-4.804687zm0 0" fill="none" stroke="#000" stroke-linejoin="round" stroke-miterlimit="10" stroke-width="3.98257" transform="matrix(.1 0 0 -.1 0 1008.2)"/><path d="m440.507812 206.363281h.480469v-32.601562h-.480469zm0 0"/><use x="414.199" xlink:href="#R" y="243.679"/><use x="426.274378" xlink:href="#Q" y="243.679"/><use x="440.220472" xlink:href="#ag" y="243.679"/><use x="427.1779" xlink:href="#aA" y="209.3024"/><path d="m3890.703125 8062.117188h4.804687v333.320312h-4.804687zm0 0" fill="none" stroke="#000" stroke-linejoin="round" stroke-miterlimit="10" stroke-width="3.98257" transform="matrix(.1 0 0 -.1 0 1008.2)"/><path d="m389.070312 201.988281h.480469v-33.332031h-.480469zm0 0"/><use x="373.303" xlink:href="#P" y="243.679"/><use x="378.915487" xlink:href="#Q" y="243.679"/><use x="376.4155" xlink:href="#aB" y="204.1966"/><path d="m3383.085938 8113.171875h4.804687v333.320313h-4.804687zm0 0" fill="none" stroke="#000" stroke-linejoin="round" stroke-miterlimit="10" stroke-width="3.98257" transform="matrix(.1 0 0 -.1 0 1008.2)"/><path d="m338.308594 196.882812h.480468v-33.332031h-.480468zm0 0"/><use x="312.591" xlink:href="#ah" y="243.679"/><use x="325.51716" xlink:href="#ab" y="243.679"/><use x="338.103085" xlink:href="#Q" y="243.679"/><use x="325.6531" xlink:href="#aB" y="199.0907"/><path d="m821.132812 7714.304688h61.953126v3.359374h-61.953126zm0 0" fill="none" stroke="#000" stroke-linejoin="round" stroke-miterlimit="10" stroke-width="5.42242" transform="matrix(.1 0 0 -.1 0 1008.2)"/><path d="m82.113281 236.769531h6.195313v-.335937h-6.195313zm0 0"/><path d="m2399.570312 7714.304688h61.953126v3.359374h-61.953126zm0 0" fill="none" stroke="#000" stroke-linejoin="round" stroke-miterlimit="10" stroke-width="5.42242" transform="matrix(.1 0 0 -.1 0 1008.2)"/><path d="m239.953125 236.769531h6.199219v-.335937h-6.199219zm0 0"/><path d="m3595.78125 7714.304688h61.953125v3.359374h-61.953125zm0 0" fill="none" stroke="#000" stroke-linejoin="round" stroke-miterlimit="10" stroke-width="5.42242" transform="matrix(.1 0 0 -.1 0 1008.2)"/><path d="m359.578125 236.769531h6.195313v-.335937h-6.195313zm0 0"/><path d="m4004.335938 7714.304688h61.953124v3.359374h-61.953124zm0 0" fill="none" stroke="#000" stroke-linejoin="round" stroke-miterlimit="10" stroke-width="5.42242" transform="matrix(.1 0 0 -.1 0 1008.2)"/><path d="m400.433594 236.769531h6.195312v-.335937h-6.195312zm0 0"/><path d="m4607.109375 7714.304688h61.992187v3.359374h-61.992187zm0 0" fill="none" stroke="#000" stroke-linejoin="round" stroke-miterlimit="10" stroke-width="5.42242" transform="matrix(.1 0 0 -.1 0 1008.2)"/><path d="m460.710938 236.769531h6.199218v-.335937h-6.199218zm0 0"/><use x="538.371" xlink:href="#aC" y="183.773"/><use x="110.382" xlink:href="#aB" y="199.0906"/><path d="m681.132812 8171.53125h4.84375v326.015625h-4.84375zm0 0" fill="none" stroke="#000" stroke-linejoin="round" stroke-miterlimit="10" stroke-width="3.98257" transform="matrix(.1 0 0 -.1 0 1008.2)"/><path d="m68.113281 191.046875h.484375v-32.601563h-.484375zm0 0"/><use x="53.3727" xlink:href="#ai" y="243.679"/><use x="54.78598" xlink:href="#aA" y="193.9849"/><use x="253.58998" xlink:href="#aj" y="243.679"/><use x="267.536074" xlink:href="#Q" y="243.679"/><use x="281.482169" xlink:href="#U" y="243.679"/><use x="8.16998" xlink:href="#aD" y="193.9849"/><path d="m2808.320312 8018.367188h4.84375v326.015624h-4.84375zm0 0" fill="none" stroke="#000" stroke-linejoin="round" stroke-miterlimit="10" stroke-width="3.98257" transform="matrix(.1 0 0 -.1 0 1008.2)"/><path d="m280.832031 206.363281h.484375v-32.601562h-.484375zm0 0"/><use x="267.504" xlink:href="#aA" y="209.302"/><path d="m2277.890625 8171.53125h4.804687v326.015625h-4.804687zm0 0" fill="none" stroke="#000" stroke-linejoin="round" stroke-miterlimit="10" stroke-width="3.98257" transform="matrix(.1 0 0 -.1 0 1008.2)"/><path d="m227.789062 191.046875h.480469v-32.601563h-.480469zm0 0"/><use x="210.41" xlink:href="#ak" y="243.679"/><use x="218.574446" xlink:href="#ae" y="243.679"/><use x="214.46" xlink:href="#aA" y="193.9849"/><use x="100.212" xlink:href="#al" y="243.679"/><use x="121.302227" xlink:href="#T" y="243.679"/><use x="126.914726" xlink:href="#X" y="243.679"/><path d="m1737.96875 8062.117188h4.84375v333.320312h-4.84375zm0 0" fill="none" stroke="#000" stroke-linejoin="round" stroke-miterlimit="10" stroke-width="3.98257" transform="matrix(.1 0 0 -.1 0 1008.2)"/><path d="m173.796875 201.988281h.484375v-33.332031h-.484375zm0 0"/><use x="157.523" xlink:href="#X" y="243.679"/><use x="164.156594" xlink:href="#Q" y="243.679"/><use x="161.14527" xlink:href="#aB" y="204.1966"/><path d="m1230.351562 8113.171875h4.84375v333.320313h-4.84375zm0 0" fill="none" stroke="#000" stroke-linejoin="round" stroke-miterlimit="10" stroke-width="3.98257" transform="matrix(.1 0 0 -.1 0 1008.2)"/><path d="m123.035156 196.882812h.484375v-33.332031h-.484375zm0 0"/><g clip-path="url(#k)"><path d="m3.398438 6814.617188h5945.976562" style="fill:none;stroke-width:6.77036;stroke-linecap:round;stroke-linejoin:round;stroke:#000;stroke-miterlimit:10" transform="matrix(.1 0 0 -.1 0 1008.2)"/></g><g clip-path="url(#l)"><path d="m3.398438 6916.765625h5945.976562" style="fill:none;stroke-width:6.77036;stroke-linecap:round;stroke-linejoin:round;stroke:#000;stroke-miterlimit:10" transform="matrix(.1 0 0 -.1 0 1008.2)"/></g><g clip-path="url(#m)"><path d="m3.398438 7018.875h5945.976562" style="fill:none;stroke-width:6.77036;stroke-linecap:round;stroke-linejoin:round;stroke:#000;stroke-miterlimit:10" transform="matrix(.1 0 0 -.1 0 1008.2)"/></g><g clip-path="url(#n)"><path d="m3.398438 7120.984375h5945.976562" style="fill:none;stroke-width:6.77036;stroke-linecap:round;stroke-linejoin:round;stroke:#000;stroke-miterlimit:10" transform="matrix(.1 0 0 -.1 0 1008.2)"/></g><g clip-path="url(#o)"><path d="m3.398438 7223.09375h5945.976562" style="fill:none;stroke-width:6.77036;stroke-linecap:round;stroke-linejoin:round;stroke:#000;stroke-miterlimit:10" transform="matrix(.1 0 0 -.1 0 1008.2)"/></g><path d="m521.328125 6712.507812h193.164063" style="fill:none;stroke-width:16.9821;stroke-linecap:round;stroke-linejoin:round;stroke:#000;stroke-miterlimit:10" transform="matrix(.1 0 0 -.1 0 1008.2)"/><use x="297.914" xlink:href="#aB" y="316.525"/><path d="m4698.59375 6714.5h4.804688v326.015625h-4.804688zm0 0" fill="none" stroke="#000" stroke-linejoin="round" stroke-miterlimit="10" stroke-width="3.98257" transform="matrix(.1 0 0 -.1 0 1008.2)"/><path d="m469.859375 336.75h.480469v-32.601562h-.480469zm0 0"/><use x="456.51" xlink:href="#X" y="365.941"/><use x="463.483804" xlink:href="#am" y="365.941"/><use x="477.429898" xlink:href="#R" y="365.941"/><use x="489.84512" xlink:href="#S" y="365.941"/><use x="469.6588" xlink:href="#aA" y="301.207"/><path d="m4131.953125 6680.476562h4.804687v316.328126h-4.804687zm0 0" fill="none" stroke="#000" stroke-linejoin="round" stroke-miterlimit="10" stroke-width="3.98257" transform="matrix(.1 0 0 -.1 0 1008.2)"/><path d="m413.195312 340.152344h.480469v-31.632813h-.480469zm0 0"/><use x="402.315" xlink:href="#ag" y="365.941"/><use x="416.261094" xlink:href="#ad" y="365.941"/><use x="430.037657" xlink:href="#X" y="365.941"/><use x="412.9955" xlink:href="#aB" y="306.3129"/><path d="m3674.6875 6989.890625h4.84375v333.320313h-4.84375zm0 0" fill="none" stroke="#000" stroke-linejoin="round" stroke-miterlimit="10" stroke-width="3.98257" transform="matrix(.1 0 0 -.1 0 1008.2)"/><path d="m367.46875 309.210938h.484375v-33.332032h-.484375zm0 0"/><use x="336.993" xlink:href="#al" y="365.941"/><use x="358.083215" xlink:href="#ad" y="365.941"/><use x="372.029309" xlink:href="#U" y="365.941"/><use x="354.8176" xlink:href="#aB" y="311.4187"/><path d="m3105.664062 6938.835938h4.84375v333.320312h-4.84375zm0 0" fill="none" stroke="#000" stroke-linejoin="round" stroke-miterlimit="10" stroke-width="3.98257" transform="matrix(.1 0 0 -.1 0 1008.2)"/><path d="m310.566406 314.316406h.484375v-33.332031h-.484375zm0 0"/><use x="288.509" xlink:href="#T" y="365.941"/><use x="294.121097" xlink:href="#U" y="365.941"/><use x="308.067581" xlink:href="#R" y="365.941"/><path d="m858.59375 6491.6875h61.992188v3.359375h-61.992188zm0 0" fill="none" stroke="#000" stroke-linejoin="round" stroke-miterlimit="10" stroke-width="5.42242" transform="matrix(.1 0 0 -.1 0 1008.2)"/><path d="m85.859375 359.035156h6.195313v-.339844h-6.195313zm0 0"/><path d="m2102.96875 6491.6875h61.992188v3.359375h-61.992188zm0 0" fill="none" stroke="#000" stroke-linejoin="round" stroke-miterlimit="10" stroke-width="5.42242" transform="matrix(.1 0 0 -.1 0 1008.2)"/><path d="m210.296875 359.035156h6.195313v-.339844h-6.195313zm0 0"/><path d="m2734.921875 6491.6875h61.953125v3.359375h-61.953125zm0 0" fill="none" stroke="#000" stroke-linejoin="round" stroke-miterlimit="10" stroke-width="5.42242" transform="matrix(.1 0 0 -.1 0 1008.2)"/><path d="m273.492188 359.035156h6.195312v-.339844h-6.195312zm0 0"/><path d="m3910.46875 6491.6875h61.953125v3.359375h-61.953125zm0 0" fill="none" stroke="#000" stroke-linejoin="round" stroke-miterlimit="10" stroke-width="5.42242" transform="matrix(.1 0 0 -.1 0 1008.2)"/><path d="m391.046875 359.035156h6.195313v-.339844h-6.195313zm0 0"/><path d="m4436.601562 6491.6875h61.992188v3.359375h-61.992188zm0 0" fill="none" stroke="#000" stroke-linejoin="round" stroke-miterlimit="10" stroke-width="5.42242" transform="matrix(.1 0 0 -.1 0 1008.2)"/><path d="m443.660156 359.035156h6.199219v-.339844h-6.199219zm0 0"/><use x="531.814" xlink:href="#aC" y="306.313"/><path d="m681.132812 6741.921875h4.84375v326.015625h-4.84375zm0 0" fill="none" stroke="#000" stroke-linejoin="round" stroke-miterlimit="10" stroke-width="3.98257" transform="matrix(.1 0 0 -.1 0 1008.2)"/><path d="m68.113281 334.007812h.484375v-32.601562h-.484375zm0 0"/><use x="45.7188" xlink:href="#an" y="365.941"/><use x="63.917224" xlink:href="#ae" y="365.941"/><use x="54.78599" xlink:href="#aA" y="336.948"/><use x="8.16959" xlink:href="#aD" y="316.5246"/><use x="119.493595" xlink:href="#aA" y="316.5246"/><path d="m2539.023438 6887.78125h4.84375v333.320312h-4.84375zm0 0" fill="none" stroke="#000" stroke-linejoin="round" stroke-miterlimit="10" stroke-width="3.98257" transform="matrix(.1 0 0 -.1 0 1008.2)"/><path d="m253.902344 319.421875h.484375v-33.332031h-.484375zm0 0"/><use x="231.164" xlink:href="#X" y="365.941"/><use x="238.647203" xlink:href="#ao" y="365.941"/><use x="250.722581" xlink:href="#am" y="365.941"/><use x="241.2499" xlink:href="#aB" y="321.6305"/><path d="m1949.765625 6997.195312h4.84375v326.015626h-4.84375zm0 0" fill="none" stroke="#000" stroke-linejoin="round" stroke-miterlimit="10" stroke-width="3.98257" transform="matrix(.1 0 0 -.1 0 1008.2)"/><path d="m194.976562 308.480469h.484376v-32.601563h-.484376zm0 0"/><use x="181.68" xlink:href="#Z" y="365.941"/><use x="181.648359" xlink:href="#aA" y="311.4187"/><path d="m1328.242188 6946.140625h4.804687v326.015625h-4.804687zm0 0" fill="none" stroke="#000" stroke-linejoin="round" stroke-miterlimit="10" stroke-width="3.98257" transform="matrix(.1 0 0 -.1 0 1008.2)"/><path d="m132.824219 313.585938h.480469v-32.601563h-.480469zm0 0"/><use x="100.052" xlink:href="#R" y="365.941"/><use x="112.467222" xlink:href="#W" y="365.941"/><use x="126.413304" xlink:href="#U" y="365.941"/><use x="140.359386" xlink:href="#R" y="365.941"/><g clip-path="url(#p)"><path d="m3.398438 5589.226562h5945.976562" style="fill:none;stroke-width:6.77036;stroke-linecap:round;stroke-linejoin:round;stroke:#000;stroke-miterlimit:10" transform="matrix(.1 0 0 -.1 0 1008.2)"/></g><g clip-path="url(#q)"><path d="m3.398438 5691.335938h5945.976562" style="fill:none;stroke-width:6.77036;stroke-linecap:round;stroke-linejoin:round;stroke:#000;stroke-miterlimit:10" transform="matrix(.1 0 0 -.1 0 1008.2)"/></g><g clip-path="url(#r)"><path d="m3.398438 5793.445312h5945.976562" style="fill:none;stroke-width:6.77036;stroke-linecap:round;stroke-linejoin:round;stroke:#000;stroke-miterlimit:10" transform="matrix(.1 0 0 -.1 0 1008.2)"/></g><g clip-path="url(#s)"><path d="m3.398438 5895.59375h5945.976562" style="fill:none;stroke-width:6.77036;stroke-linecap:round;stroke-linejoin:round;stroke:#000;stroke-miterlimit:10" transform="matrix(.1 0 0 -.1 0 1008.2)"/></g><g clip-path="url(#t)"><path d="m3.398438 5997.703125h5945.976562" style="fill:none;stroke-width:6.77036;stroke-linecap:round;stroke-linejoin:round;stroke:#000;stroke-miterlimit:10" transform="matrix(.1 0 0 -.1 0 1008.2)"/></g><path d="m4834.335938 5720.75h4.84375v326.015625h-4.84375zm0 0" style="fill:none;stroke-width:3.98257;stroke-linecap:round;stroke-linejoin:round;stroke:#000;stroke-miterlimit:10" transform="matrix(.1 0 0 -.1 0 1008.2)"/><path d="m483.433594 436.125h.480468v-32.601562h-.480468zm0 0"/><use x="289.779" xlink:href="#aA" y="433.96"/><use x="456.957" xlink:href="#X" y="485.0186"/><use x="463.930413" xlink:href="#am" y="485.0186"/><use x="477.876508" xlink:href="#R" y="485.0186"/><use x="490.291729" xlink:href="#ap" y="485.0186"/><use x="470.1054" xlink:href="#aA" y="439.0659"/><use x="398.8347" xlink:href="#aE" y="444.17176"/><path d="m4262.96875 5662.351562h4.804688v333.359376h-4.804688zm0 0" style="fill:none;stroke-width:3.98257;stroke-linecap:round;stroke-linejoin:round;stroke:#000;stroke-miterlimit:10" transform="matrix(.1 0 0 -.1 0 1008.2)"/><path d="m426.296875 441.964844h.480469v-33.332032h-.480469zm0 0"/><use x="407.043" xlink:href="#P" y="485.018"/><use x="412.655512" xlink:href="#am" y="485.018"/><use x="426.601606" xlink:href="#X" y="485.018"/><use x="413.64183" xlink:href="#aB" y="444.1711"/><path d="m3650.390625 5720.75h4.84375v326.015625h-4.84375zm0 0" style="fill:none;stroke-width:3.98257;stroke-linecap:round;stroke-linejoin:round;stroke:#000;stroke-miterlimit:10" transform="matrix(.1 0 0 -.1 0 1008.2)"/><path d="m365.039062 436.125h.484376v-32.601562h-.484376zm0 0"/><use x="341.367" xlink:href="#ag" y="485.018"/><use x="355.313094" xlink:href="#Z" y="485.018"/><use x="369.089657" xlink:href="#X" y="485.018"/><use x="351.7104" xlink:href="#aA" y="439.0653"/><path d="m3031.09375 5771.804688h4.804688v326.015624h-4.804688zm0 0" style="fill:none;stroke-width:3.98257;stroke-linecap:round;stroke-linejoin:round;stroke:#000;stroke-miterlimit:10" transform="matrix(.1 0 0 -.1 0 1008.2)"/><path d="m303.109375 431.019531h.480469v-32.601562h-.480469zm0 0"/><use x="293.978" xlink:href="#T" y="485.018"/><path d="m2100.976562 5300.90625h61.953126v3.398438h-61.953126zm0 0" style="fill:none;stroke-width:5.42242;stroke-linecap:round;stroke-linejoin:round;stroke:#000;stroke-miterlimit:10" transform="matrix(.1 0 0 -.1 0 1008.2)"/><path d="m210.097656 478.109375h6.195313v-.339844h-6.195313zm0 0"/><path d="m2708.125 5300.90625h61.953125v3.398438h-61.953125zm0 0" style="fill:none;stroke-width:5.42242;stroke-linecap:round;stroke-linejoin:round;stroke:#000;stroke-miterlimit:10" transform="matrix(.1 0 0 -.1 0 1008.2)"/><path d="m270.8125 478.109375h6.195312v-.339844h-6.195312zm0 0"/><path d="m3173.789062 5300.90625h61.992188v3.398438h-61.992188zm0 0" style="fill:none;stroke-width:5.42242;stroke-linecap:round;stroke-linejoin:round;stroke:#000;stroke-miterlimit:10" transform="matrix(.1 0 0 -.1 0 1008.2)"/><path d="m317.378906 478.109375h6.199219v-.339844h-6.199219zm0 0"/><path d="m4421.679688 5300.90625h61.953124v3.398438h-61.953124zm0 0" style="fill:none;stroke-width:5.42242;stroke-linecap:round;stroke-linejoin:round;stroke:#000;stroke-miterlimit:10" transform="matrix(.1 0 0 -.1 0 1008.2)"/><path d="m442.167969 478.109375h6.195312v-.339844h-6.195312zm0 0"/><use x="532.037" xlink:href="#aC" y="428.854"/><path d="m549.84375 5489.109375h4.84375v326.015625h-4.84375zm0 0" style="fill:none;stroke-width:3.98257;stroke-linecap:round;stroke-linejoin:round;stroke:#000;stroke-miterlimit:10" transform="matrix(.1 0 0 -.1 0 1008.2)"/><path d="m54.984375 459.289062h.480469v-32.601562h-.480469zm0 0"/><use x="44.273" xlink:href="#aq" y="485.018"/><use x="61.110879" xlink:href="#T" y="485.018"/><use x="66.723378" xlink:href="#R" y="485.018"/><use x="54.7859" xlink:href="#aA" y="423.7477"/><use x="8.1695" xlink:href="#aD" y="439.0653"/><use x="166.7665" xlink:href="#ag" y="485.018"/><use x="180.712582" xlink:href="#ad" y="485.018"/><use x="194.658664" xlink:href="#P" y="485.018"/><path d="m2459.6875 5713.40625h4.804688v333.359375h-4.804688zm0 0" style="fill:none;stroke-width:3.98257;stroke-linecap:round;stroke-linejoin:round;stroke:#000;stroke-miterlimit:10" transform="matrix(.1 0 0 -.1 0 1008.2)"/><path d="m245.96875 436.859375h.480469v-33.335937h-.480469zm0 0"/><use x="226.121" xlink:href="#aj" y="485.018"/><use x="239.897954" xlink:href="#Z" y="485.018"/><use x="233.31514" xlink:href="#aB" y="439.0653"/><path d="m1895.039062 5764.460938h4.84375v333.359374h-4.84375zm0 0" style="fill:none;stroke-width:3.98257;stroke-linecap:round;stroke-linejoin:round;stroke:#000;stroke-miterlimit:10" transform="matrix(.1 0 0 -.1 0 1008.2)"/><path d="m189.503906 431.753906h.484375v-33.335937h-.484375zm0 0"/><use x="176.852" xlink:href="#aB" y="433.96"/><use x="116.718" xlink:href="#aB" y="428.85414"/><use x="96.3426" xlink:href="#U" y="485.01864"/><use x="110.288682" xlink:href="#Z" y="485.01864"/><use x="124.065624" xlink:href="#aj" y="485.01864"/><use x="137.842175" xlink:href="#ao" y="485.01864"/><path d="m1169.179688 5455.085938h4.804687v316.289062h-4.804687zm0 0" style="fill:none;stroke-width:3.98257;stroke-linecap:round;stroke-linejoin:round;stroke:#000;stroke-miterlimit:10" transform="matrix(.1 0 0 -.1 0 1008.2)"/><path d="m116.917969 462.695312h.480469v-31.632812h-.480469zm0 0"/><g clip-path="url(#u)"><path d="m3.398438 4363.835938h5945.976562" style="fill:none;stroke-width:6.77036;stroke-linecap:round;stroke-linejoin:round;stroke:#000;stroke-miterlimit:10" transform="matrix(.1 0 0 -.1 0 1008.2)"/></g><g clip-path="url(#v)"><path d="m3.398438 4465.945312h5945.976562" style="fill:none;stroke-width:6.77036;stroke-linecap:round;stroke-linejoin:round;stroke:#000;stroke-miterlimit:10" transform="matrix(.1 0 0 -.1 0 1008.2)"/></g><g clip-path="url(#w)"><path d="m3.398438 4568.054688h5945.976562" style="fill:none;stroke-width:6.77036;stroke-linecap:round;stroke-linejoin:round;stroke:#000;stroke-miterlimit:10" transform="matrix(.1 0 0 -.1 0 1008.2)"/></g><g clip-path="url(#x)"><path d="m3.398438 4670.164062h5945.976562" style="fill:none;stroke-width:6.77036;stroke-linecap:round;stroke-linejoin:round;stroke:#000;stroke-miterlimit:10" transform="matrix(.1 0 0 -.1 0 1008.2)"/></g><g clip-path="url(#y)"><path d="m3.398438 4772.273438h5945.976562" style="fill:none;stroke-width:6.77036;stroke-linecap:round;stroke-linejoin:round;stroke:#000;stroke-miterlimit:10" transform="matrix(.1 0 0 -.1 0 1008.2)"/></g><use x="291.853" xlink:href="#aA" y="576.923"/><path d="m4820.195312 4495.359375h4.84375v326.015625h-4.84375zm0 0" style="fill:none;stroke-width:3.98257;stroke-linecap:round;stroke-linejoin:round;stroke:#000;stroke-miterlimit:10" transform="matrix(.1 0 0 -.1 0 1008.2)"/><path d="m482.019531 558.664062h.484375v-32.601562h-.484375zm0 0"/><use x="458.944" xlink:href="#ag" y="607.559"/><use x="472.890094" xlink:href="#Q" y="607.559"/><use x="486.836189" xlink:href="#P" y="607.559"/><use x="468.69087" xlink:href="#aA" y="561.6063"/><path d="m4242.460938 4436.960938h4.804687v333.320312h-4.804687zm0 0" style="fill:none;stroke-width:3.98257;stroke-linecap:round;stroke-linejoin:round;stroke:#000;stroke-miterlimit:10" transform="matrix(.1 0 0 -.1 0 1008.2)"/><path d="m424.242188 564.503906h.484374v-33.332031h-.484374zm0 0"/><use x="398.275" xlink:href="#ar" y="607.559"/><use x="410.350378" xlink:href="#Q" y="607.559"/><use x="424.296472" xlink:href="#ag" y="607.559"/><use x="411.5922" xlink:href="#aB" y="566.7121"/><path d="m3671.445312 4385.90625h4.84375v333.320312h-4.84375zm0 0" style="fill:none;stroke-width:3.98257;stroke-linecap:round;stroke-linejoin:round;stroke:#000;stroke-miterlimit:10" transform="matrix(.1 0 0 -.1 0 1008.2)"/><path d="m367.144531 569.609375h.480469v-33.332031h-.480469zm0 0"/><use x="348.148" xlink:href="#R" y="607.559"/><use x="360.223378" xlink:href="#Q" y="607.559"/><use x="354.49253" xlink:href="#aB" y="571.818"/><path d="m3051.835938 4342.15625h4.804687v326.015625h-4.804687zm0 0" style="fill:none;stroke-width:3.98257;stroke-linecap:round;stroke-linejoin:round;stroke:#000;stroke-miterlimit:10" transform="matrix(.1 0 0 -.1 0 1008.2)"/><path d="m305.183594 573.984375h.480468v-32.601563h-.480468zm0 0"/><use x="281.51" xlink:href="#as" y="607.559"/><use x="295.456094" xlink:href="#Q" y="607.559"/><use x="309.232657" xlink:href="#X" y="607.559"/><path d="m1431.09375 4075.515625h61.953125v3.359375h-61.953125zm0 0" style="fill:none;stroke-width:5.42242;stroke-linecap:round;stroke-linejoin:round;stroke:#000;stroke-miterlimit:10" transform="matrix(.1 0 0 -.1 0 1008.2)"/><path d="m143.109375 600.652344h6.195313v-.339844h-6.195313zm0 0"/><path d="m2640.15625 4075.515625h61.992188v3.359375h-61.992188zm0 0" style="fill:none;stroke-width:5.42242;stroke-linecap:round;stroke-linejoin:round;stroke:#000;stroke-miterlimit:10" transform="matrix(.1 0 0 -.1 0 1008.2)"/><path d="m264.015625 600.652344h6.195313v-.339844h-6.195313zm0 0"/><path d="m3831.210938 4075.515625h61.992187v3.359375h-61.992187zm0 0" style="fill:none;stroke-width:5.42242;stroke-linecap:round;stroke-linejoin:round;stroke:#000;stroke-miterlimit:10" transform="matrix(.1 0 0 -.1 0 1008.2)"/><path d="m383.121094 600.652344h6.199218v-.339844h-6.199218zm0 0"/><path d="m4454.921875 4075.515625h61.992187v3.359375h-61.992187zm0 0" style="fill:none;stroke-width:5.42242;stroke-linecap:round;stroke-linejoin:round;stroke:#000;stroke-miterlimit:10" transform="matrix(.1 0 0 -.1 0 1008.2)"/><path d="m445.492188 600.652344h6.199218v-.339844h-6.199218zm0 0"/><use x="531.33" xlink:href="#aC" y="551.395"/><path d="m681.132812 4495.359375h4.84375v326.015625h-4.84375zm0 0" style="fill:none;stroke-width:3.98257;stroke-linecap:round;stroke-linejoin:round;stroke:#000;stroke-miterlimit:10" transform="matrix(.1 0 0 -.1 0 1008.2)"/><path d="m68.113281 558.664062h.484375v-32.601562h-.484375zm0 0"/><use x="53.3727" xlink:href="#ai" y="607.559"/><use x="54.78598" xlink:href="#aA" y="561.6063"/><use x="8.169341" xlink:href="#aD" y="561.6063"/><use x="117.42468" xlink:href="#aB" y="556.50083"/><path d="m2450.976562 4444.265625h4.804688v326.015625h-4.804688zm0 0" style="fill:none;stroke-width:3.98257;stroke-linecap:round;stroke-linejoin:round;stroke:#000;stroke-miterlimit:10" transform="matrix(.1 0 0 -.1 0 1008.2)"/><path d="m245.097656 563.773438h.480469v-32.601563h-.480469zm0 0"/><use x="224.826" xlink:href="#U" y="607.559"/><use x="238.772094" xlink:href="#ae" y="607.559"/><use x="231.76662" xlink:href="#aA" y="566.7121"/><path d="m1873.203125 4488.015625h4.804687v333.320313h-4.804687zm0 0" style="fill:none;stroke-width:3.98257;stroke-linecap:round;stroke-linejoin:round;stroke:#000;stroke-miterlimit:10" transform="matrix(.1 0 0 -.1 0 1008.2)"/><path d="m187.320312 559.398438h.480469v-33.332032h-.480469zm0 0"/><use x="154.377" xlink:href="#aj" y="607.559"/><use x="168.323473" xlink:href="#am" y="607.559"/><use x="182.269555" xlink:href="#U" y="607.559"/><use x="195.705871" xlink:href="#ao" y="607.559"/><use x="174.6668" xlink:href="#aB" y="561.6063"/><path d="m1300.78125 4539.070312h4.804688v333.320313h-4.804688zm0 0" style="fill:none;stroke-width:3.98257;stroke-linecap:round;stroke-linejoin:round;stroke:#000;stroke-miterlimit:10" transform="matrix(.1 0 0 -.1 0 1008.2)"/><path d="m130.078125 554.292969h.480469v-33.332031h-.480469zm0 0"/><use x="110.146" xlink:href="#as" y="607.559"/><use x="124.092082" xlink:href="#ad" y="607.559"/><g clip-path="url(#z)"><path d="m3.398438 3138.40625h5945.976562" style="fill:none;stroke-width:6.77036;stroke-linecap:round;stroke-linejoin:round;stroke:#000;stroke-miterlimit:10" transform="matrix(.1 0 0 -.1 0 1008.2)"/></g><g clip-path="url(#A)"><path d="m3.398438 3240.554688h5945.976562" style="fill:none;stroke-width:6.77036;stroke-linecap:round;stroke-linejoin:round;stroke:#000;stroke-miterlimit:10" transform="matrix(.1 0 0 -.1 0 1008.2)"/></g><g clip-path="url(#B)"><path d="m3.398438 3342.664062h5945.976562" style="fill:none;stroke-width:6.77036;stroke-linecap:round;stroke-linejoin:round;stroke:#000;stroke-miterlimit:10" transform="matrix(.1 0 0 -.1 0 1008.2)"/></g><g clip-path="url(#C)"><path d="m3.398438 3444.773438h5945.976562" style="fill:none;stroke-width:6.77036;stroke-linecap:round;stroke-linejoin:round;stroke:#000;stroke-miterlimit:10" transform="matrix(.1 0 0 -.1 0 1008.2)"/></g><g clip-path="url(#D)"><path d="m3.398438 3546.882812h5945.976562" style="fill:none;stroke-width:6.77036;stroke-linecap:round;stroke-linejoin:round;stroke:#000;stroke-miterlimit:10" transform="matrix(.1 0 0 -.1 0 1008.2)"/></g><path d="m4986.289062 3116.765625h4.804688v326.015625h-4.804688zm0 0" style="fill:none;stroke-width:3.98257;stroke-linecap:round;stroke-linejoin:round;stroke:#000;stroke-miterlimit:10" transform="matrix(.1 0 0 -.1 0 1008.2)"/><path d="m498.628906 696.523438h.480469v-32.601563h-.480469zm0 0"/><use x="471.385" xlink:href="#X" y="730.099"/><use x="478.358413" xlink:href="#am" y="730.099"/><use x="492.304508" xlink:href="#ag" y="730.099"/><use x="506.250602" xlink:href="#ap" y="730.099"/><use x="485.2995" xlink:href="#aA" y="699.4638"/><path d="m4442.929688 3167.820312h4.84375v326.015626h-4.84375zm0 0" style="fill:none;stroke-width:3.98257;stroke-linecap:round;stroke-linejoin:round;stroke:#000;stroke-miterlimit:10" transform="matrix(.1 0 0 -.1 0 1008.2)"/><path d="m444.292969 691.417969h.484375v-32.601563h-.484375zm0 0"/><use x="430.996" xlink:href="#X" y="730.099"/><use x="437.969413" xlink:href="#at" y="730.099"/><use x="430.963187" xlink:href="#aA" y="694.358"/><path d="m3939.921875 3211.53125h4.804687v333.359375h-4.804687zm0 0" style="fill:none;stroke-width:3.98257;stroke-linecap:round;stroke-linejoin:round;stroke:#000;stroke-miterlimit:10" transform="matrix(.1 0 0 -.1 0 1008.2)"/><path d="m393.992188 687.046875h.480468v-33.335937h-.480468zm0 0"/><use x="361.473" xlink:href="#as" y="730.099"/><use x="375.419094" xlink:href="#ac" y="730.099"/><use x="389.365189" xlink:href="#ab" y="730.099"/><use x="401.951114" xlink:href="#ar" y="730.099"/><use x="381.3378" xlink:href="#aB" y="689.2521"/><path d="m3413.398438 3262.625h4.84375v333.320312h-4.84375zm0 0" style="fill:none;stroke-width:3.98257;stroke-linecap:round;stroke-linejoin:round;stroke:#000;stroke-miterlimit:10" transform="matrix(.1 0 0 -.1 0 1008.2)"/><path d="m341.339844 681.9375h.480468v-33.332031h-.480468zm0 0"/><use x="325.575" xlink:href="#Q" y="730.099"/><use x="339.521094" xlink:href="#P" y="730.099"/><use x="328.6875" xlink:href="#aB" y="684.1463"/><path d="m785.46875 2850.085938h61.953125v3.398437h-61.953125zm0 0" style="fill:none;stroke-width:5.42242;stroke-linecap:round;stroke-linejoin:round;stroke:#000;stroke-miterlimit:10" transform="matrix(.1 0 0 -.1 0 1008.2)"/><path d="m78.546875 723.191406h6.195313v-.339844h-6.195313zm0 0"/><path d="m1467.929688 2850.085938h61.992187v3.398437h-61.992187zm0 0" style="fill:none;stroke-width:5.42242;stroke-linecap:round;stroke-linejoin:round;stroke:#000;stroke-miterlimit:10" transform="matrix(.1 0 0 -.1 0 1008.2)"/><path d="m146.792969 723.191406h6.199219v-.339844h-6.199219zm0 0"/><path d="m2612.773438 2850.085938h61.992187v3.398437h-61.992187zm0 0" style="fill:none;stroke-width:5.42242;stroke-linecap:round;stroke-linejoin:round;stroke:#000;stroke-miterlimit:10" transform="matrix(.1 0 0 -.1 0 1008.2)"/><path d="m261.277344 723.191406h6.199218v-.339844h-6.199218zm0 0"/><path d="m3502.03125 2850.085938h61.992188v3.398437h-61.992188zm0 0" style="fill:none;stroke-width:5.42242;stroke-linecap:round;stroke-linejoin:round;stroke:#000;stroke-miterlimit:10" transform="matrix(.1 0 0 -.1 0 1008.2)"/><path d="m350.203125 723.191406h6.199219v-.339844h-6.199219zm0 0"/><path d="m4196.679688 2850.085938h61.992187v3.398437h-61.992187zm0 0" style="fill:none;stroke-width:5.42242;stroke-linecap:round;stroke-linejoin:round;stroke:#000;stroke-miterlimit:10" transform="matrix(.1 0 0 -.1 0 1008.2)"/><path d="m419.667969 723.191406h6.195312v-.339844h-6.195312zm0 0"/><path d="m4550.625 2850.085938h61.992188v3.398437h-61.992188zm0 0" style="fill:none;stroke-width:5.42242;stroke-linecap:round;stroke-linejoin:round;stroke:#000;stroke-miterlimit:10" transform="matrix(.1 0 0 -.1 0 1008.2)"/><path d="m455.0625 723.191406h6.199219v-.339844h-6.199219zm0 0"/><use x="539.634" xlink:href="#aC" y="673.935"/><use x="109.122" xlink:href="#aA" y="689.2526"/><path d="m681.132812 3269.929688h4.84375v326.015624h-4.84375zm0 0" style="fill:none;stroke-width:3.98257;stroke-linecap:round;stroke-linejoin:round;stroke:#000;stroke-miterlimit:10" transform="matrix(.1 0 0 -.1 0 1008.2)"/><path d="m68.113281 681.207031h.484375v-32.601562h-.484375zm0 0"/><use x="50.8215" xlink:href="#au" y="730.099"/><use x="67.149224" xlink:href="#P" y="730.099"/><use x="54.78595" xlink:href="#aA" y="684.1463"/><use x="272.54695" xlink:href="#av" y="730.099"/><use x="278.159437" xlink:href="#ae" y="730.099"/><use x="291.936" xlink:href="#X" y="730.099"/><use x="8.16895" xlink:href="#aD" y="684.1463"/><path d="m2917.148438 3313.679688h4.804687v333.320312h-4.804687zm0 0" style="fill:none;stroke-width:3.98257;stroke-linecap:round;stroke-linejoin:round;stroke:#000;stroke-miterlimit:10" transform="matrix(.1 0 0 -.1 0 1008.2)"/><path d="m291.714844 676.832031h.480468v-33.332031h-.480468zm0 0"/><use x="279.061" xlink:href="#aB" y="679.041"/><path d="m2420.390625 3313.679688h4.84375v333.320312h-4.84375zm0 0" style="fill:none;stroke-width:3.98257;stroke-linecap:round;stroke-linejoin:round;stroke:#000;stroke-miterlimit:10" transform="matrix(.1 0 0 -.1 0 1008.2)"/><path d="m242.039062 676.832031h.484376v-33.332031h-.484376zm0 0"/><use x="215.9" xlink:href="#V" y="730.099"/><use x="222.703125" xlink:href="#aw" y="730.099"/><use x="236.64922" xlink:href="#P" y="730.099"/><use x="242.261707" xlink:href="#ag" y="730.099"/><use x="229.3867" xlink:href="#aB" y="679.0404"/><use x="90.5297" xlink:href="#ax" y="730.099"/><use x="102.605078" xlink:href="#Q" y="730.099"/><use x="116.55116" xlink:href="#ab" y="730.099"/><use x="129.137085" xlink:href="#ar" y="730.099"/><path d="m1851.367188 3116.765625h4.804687v326.015625h-4.804687zm0 0" style="fill:none;stroke-width:3.98257;stroke-linecap:round;stroke-linejoin:round;stroke:#000;stroke-miterlimit:10" transform="matrix(.1 0 0 -.1 0 1008.2)"/><path d="m185.136719 696.523438h.480469v-32.601563h-.480469zm0 0"/><use x="158.062" xlink:href="#X" y="730.099"/><use x="164.695594" xlink:href="#ae" y="730.099"/><use x="178.812379" xlink:href="#ag" y="730.099"/><use x="192.58893" xlink:href="#S" y="730.099"/><use x="171.8061" xlink:href="#aA" y="699.4638"/><path d="m1224.492188 3218.875h4.84375v326.015625h-4.84375zm0 0" style="fill:none;stroke-width:3.98257;stroke-linecap:round;stroke-linejoin:round;stroke:#000;stroke-miterlimit:10" transform="matrix(.1 0 0 -.1 0 1008.2)"/><path d="m122.449219 686.3125h.484375v-32.601562h-.484375zm0 0"/><g clip-path="url(#E)"><path d="m3.398438 1913.015625h5945.976562" style="fill:none;stroke-width:6.77036;stroke-linecap:round;stroke-linejoin:round;stroke:#000;stroke-miterlimit:10" transform="matrix(.1 0 0 -.1 0 1008.2)"/></g><g clip-path="url(#F)"><path d="m3.398438 2015.125h5945.976562" style="fill:none;stroke-width:6.77036;stroke-linecap:round;stroke-linejoin:round;stroke:#000;stroke-miterlimit:10" transform="matrix(.1 0 0 -.1 0 1008.2)"/></g><g clip-path="url(#G)"><path d="m3.398438 2117.234375h5945.976562" style="fill:none;stroke-width:6.77036;stroke-linecap:round;stroke-linejoin:round;stroke:#000;stroke-miterlimit:10" transform="matrix(.1 0 0 -.1 0 1008.2)"/></g><g clip-path="url(#H)"><path d="m3.398438 2219.34375h5945.976562" style="fill:none;stroke-width:6.77036;stroke-linecap:round;stroke-linejoin:round;stroke:#000;stroke-miterlimit:10" transform="matrix(.1 0 0 -.1 0 1008.2)"/></g><g clip-path="url(#I)"><path d="m3.398438 2321.492188h5945.976562" style="fill:none;stroke-width:6.77036;stroke-linecap:round;stroke-linejoin:round;stroke:#000;stroke-miterlimit:10" transform="matrix(.1 0 0 -.1 0 1008.2)"/></g><use x="286.98" xlink:href="#aB" y="806.687"/><path d="m4694.375 1778.835938h4.84375v309.023437h-4.84375zm0 0" style="fill:none;stroke-width:3.98257;stroke-linecap:round;stroke-linejoin:round;stroke:#000;stroke-miterlimit:10" transform="matrix(.1 0 0 -.1 0 1008.2)"/><path d="m469.4375 830.316406h.480469v-30.902344h-.480469zm0 0"/><use x="459.066" xlink:href="#ay" y="852.64"/><use x="473.012094" xlink:href="#Q" y="852.64"/><use x="486.448423" xlink:href="#S" y="852.64"/><use x="469.2387" xlink:href="#aA" y="796.4755"/><path d="m4070.742188 1812.898438h4.804687v326.015624h-4.804687zm0 0" style="fill:none;stroke-width:3.98257;stroke-linecap:round;stroke-linejoin:round;stroke:#000;stroke-miterlimit:10" transform="matrix(.1 0 0 -.1 0 1008.2)"/><path d="m407.074219 826.910156h.480469v-32.601562h-.480469zm0 0"/><use x="396.616" xlink:href="#X" y="852.64"/><use x="403.249594" xlink:href="#Q" y="852.64"/><use x="417.195688" xlink:href="#ag" y="852.64"/><use x="406.8738" xlink:href="#aA" y="791.3697"/><path d="m3571.640625 2095.59375h4.804687v326.015625h-4.804687zm0 0" style="fill:none;stroke-width:3.98257;stroke-linecap:round;stroke-linejoin:round;stroke:#000;stroke-miterlimit:10" transform="matrix(.1 0 0 -.1 0 1008.2)"/><path d="m357.164062 798.640625h.480469v-32.601563h-.480469zm0 0"/><use x="338.254" xlink:href="#ax" y="852.64"/><use x="350.839925" xlink:href="#T" y="852.64"/><use x="356.452412" xlink:href="#X" y="852.64"/><use x="343.83486" xlink:href="#aA" y="801.5814"/><path d="m2996.328125 2037.195312h4.84375v333.359376h-4.84375zm0 0" style="fill:none;stroke-width:3.98257;stroke-linecap:round;stroke-linejoin:round;stroke:#000;stroke-miterlimit:10" transform="matrix(.1 0 0 -.1 0 1008.2)"/><path d="m299.632812 804.480469h.484376v-33.335938h-.484376zm0 0"/><use x="282.593" xlink:href="#ak" y="852.64"/><use x="290.757446" xlink:href="#Q" y="852.64"/><path d="m872.8125 1624.695312h61.992188v3.359376h-61.992188zm0 0" style="fill:none;stroke-width:5.42242;stroke-linecap:round;stroke-linejoin:round;stroke:#000;stroke-miterlimit:10" transform="matrix(.1 0 0 -.1 0 1008.2)"/><path d="m87.28125 845.730469h6.199219v-.335938h-6.199219zm0 0"/><path d="m2015.46875 1624.695312h61.953125v3.359376h-61.953125zm0 0" style="fill:none;stroke-width:5.42242;stroke-linecap:round;stroke-linejoin:round;stroke:#000;stroke-miterlimit:10" transform="matrix(.1 0 0 -.1 0 1008.2)"/><path d="m201.542969 845.730469h6.199219v-.335938h-6.199219zm0 0"/><path d="m2677.34375 1624.695312h61.992188v3.359376h-61.992188zm0 0" style="fill:none;stroke-width:5.42242;stroke-linecap:round;stroke-linejoin:round;stroke:#000;stroke-miterlimit:10" transform="matrix(.1 0 0 -.1 0 1008.2)"/><path d="m267.734375 845.730469h6.195313v-.335938h-6.195313zm0 0"/><path d="m3769.21875 1624.695312h61.953125v3.359376h-61.953125zm0 0" style="fill:none;stroke-width:5.42242;stroke-linecap:round;stroke-linejoin:round;stroke:#000;stroke-miterlimit:10" transform="matrix(.1 0 0 -.1 0 1008.2)"/><path d="m376.921875 845.730469h6.195313v-.335938h-6.195313zm0 0"/><use x="531.604" xlink:href="#aC" y="796.475"/><path d="m681.132812 2044.539062h4.84375v326.015626h-4.84375zm0 0" style="fill:none;stroke-width:3.98257;stroke-linecap:round;stroke-linejoin:round;stroke:#000;stroke-miterlimit:10" transform="matrix(.1 0 0 -.1 0 1008.2)"/><path d="m68.113281 803.746094h.484375v-32.601563h-.484375zm0 0"/><use x="45.7188" xlink:href="#an" y="852.64"/><use x="63.917224" xlink:href="#ae" y="852.64"/><use x="54.78599" xlink:href="#aA" y="806.6873"/><use x="8.169351" xlink:href="#aD" y="806.6873"/><use x="117.15079" xlink:href="#aB" y="801.58144"/><path d="m2427.8125 2037.195312h4.804688v333.359376h-4.804688zm0 0" style="fill:none;stroke-width:3.98257;stroke-linecap:round;stroke-linejoin:round;stroke:#000;stroke-miterlimit:10" transform="matrix(.1 0 0 -.1 0 1008.2)"/><path d="m242.78125 804.480469h.480469v-33.335938h-.480469zm0 0"/><use x="214.514" xlink:href="#P" y="852.64"/><use x="219.956565" xlink:href="#ao" y="852.64"/><use x="232.54249" xlink:href="#W" y="852.64"/><use x="246.488585" xlink:href="#R" y="852.64"/><use x="230.1277" xlink:href="#aB" y="806.6873"/><path d="m1743.59375 1778.835938h4.804688v316.328124h-4.804688zm0 0" style="fill:none;stroke-width:3.98257;stroke-linecap:round;stroke-linejoin:round;stroke:#000;stroke-miterlimit:10" transform="matrix(.1 0 0 -.1 0 1008.2)"/><path d="m174.359375 830.316406h.480469v-31.632812h-.480469zm0 0"/><use x="166.88" xlink:href="#az" y="852.64"/><use x="180.826082" xlink:href="#Q" y="852.64"/><use x="174.16008" xlink:href="#aB" y="796.4755"/><path d="m1298.046875 2088.289062h4.804687v333.320313h-4.804687zm0 0" style="fill:none;stroke-width:3.98257;stroke-linecap:round;stroke-linejoin:round;stroke:#000;stroke-miterlimit:10" transform="matrix(.1 0 0 -.1 0 1008.2)"/><path d="m129.804688 799.371094h.480468v-33.332032h-.480468zm0 0"/><use x="102.898" xlink:href="#as" y="852.64"/><use x="116.844082" xlink:href="#Q" y="852.64"/><use x="130.790164" xlink:href="#ag" y="852.64"/><g clip-path="url(#J)"><path d="m3.398438 687.625h5945.976562" style="fill:none;stroke-width:6.77036;stroke-linecap:round;stroke-linejoin:round;stroke:#000;stroke-miterlimit:10" transform="matrix(.1 0 0 -.1 0 1008.2)"/></g><g clip-path="url(#K)"><path d="m3.398438 789.734375h5945.976562" style="fill:none;stroke-width:6.77036;stroke-linecap:round;stroke-linejoin:round;stroke:#000;stroke-miterlimit:10" transform="matrix(.1 0 0 -.1 0 1008.2)"/></g><g clip-path="url(#L)"><path d="m3.398438 891.84375h5945.976562" style="fill:none;stroke-width:6.77036;stroke-linecap:round;stroke-linejoin:round;stroke:#000;stroke-miterlimit:10" transform="matrix(.1 0 0 -.1 0 1008.2)"/></g><g clip-path="url(#M)"><path d="m3.398438 993.953125h5945.976562" style="fill:none;stroke-width:6.77036;stroke-linecap:round;stroke-linejoin:round;stroke:#000;stroke-miterlimit:10" transform="matrix(.1 0 0 -.1 0 1008.2)"/></g><g clip-path="url(#N)"><path d="m3.398438 1096.0625h5945.976562" style="fill:none;stroke-width:6.77036;stroke-linecap:round;stroke-linejoin:round;stroke:#000;stroke-miterlimit:10" transform="matrix(.1 0 0 -.1 0 1008.2)"/></g><g clip-path="url(#O)"><path d="m5932.421875 687.625v408.4375" fill="none" stroke="#000" stroke-linejoin="round" stroke-miterlimit="10" stroke-width="40.6426" transform="matrix(.1 0 0 -.1 0 1008.2)"/></g><path d="m5885.351562 687.625v408.4375" fill="none" stroke="#000" stroke-linejoin="round" stroke-miterlimit="10" stroke-width="12.8668" transform="matrix(.1 0 0 -.1 0 1008.2)"/><use x="268.539" xlink:href="#al" y="975.2824"/><use x="289.629215" xlink:href="#Q" y="975.2824"/><use x="303.745622" xlink:href="#aj" y="975.2824"/><path d="m4697.109375 870.203125h4.804687v326.015625h-4.804687zm0 0" fill="none" stroke="#000" stroke-linejoin="round" stroke-miterlimit="10" stroke-width="3.98257" transform="matrix(.1 0 0 -.1 0 1008.2)"/><path d="m469.710938 921.183594h.480468v-32.601563h-.480468zm0 0"/><use x="453.606" xlink:href="#ab" y="975.2824"/><use x="466.191534" xlink:href="#at" y="975.2824"/><use x="456.37944" xlink:href="#aA" y="924.1215"/><path d="m4140.46875 811.804688h4.804688v333.320312h-4.804688zm0 0" fill="none" stroke="#000" stroke-linejoin="round" stroke-miterlimit="10" stroke-width="3.98257" transform="matrix(.1 0 0 -.1 0 1008.2)"/><path d="m414.046875 927.019531h.480469v-33.332031h-.480469zm0 0"/><use x="394.793" xlink:href="#R" y="975.2824"/><use x="407.378925" xlink:href="#Z" y="975.2824"/><use x="401.39183" xlink:href="#aB" y="929.2273"/><path d="m3590.546875 760.75h4.84375v333.320312h-4.84375zm0 0" fill="none" stroke="#000" stroke-linejoin="round" stroke-miterlimit="10" stroke-width="3.98257" transform="matrix(.1 0 0 -.1 0 1008.2)"/><path d="m359.054688 932.125h.484374v-33.332031h-.484374zm0 0"/><use x="339.804" xlink:href="#ab" y="975.2824"/><use x="352.389925" xlink:href="#ad" y="975.2824"/><use x="346.40283" xlink:href="#aB" y="934.3332"/><path d="m2994.414062 819.109375h4.804688v326.054687h-4.804688zm0 0" fill="none" stroke="#000" stroke-linejoin="round" stroke-miterlimit="10" stroke-width="3.98257" transform="matrix(.1 0 0 -.1 0 1008.2)"/><path d="m299.441406 926.289062h.480469v-32.601562h-.480469zm0 0"/><path d="m845.039062 398.25h61.953126v3.398438h-61.953126zm0 0" fill="none" stroke="#000" stroke-linejoin="round" stroke-miterlimit="10" stroke-width="5.42242" transform="matrix(.1 0 0 -.1 0 1008.2)"/><path d="m84.503906 968.375h6.195313v-.339844h-6.195313zm0 0"/><path d="m1949.960938 398.25h61.992187v3.398438h-61.992187zm0 0" fill="none" stroke="#000" stroke-linejoin="round" stroke-miterlimit="10" stroke-width="5.42242" transform="matrix(.1 0 0 -.1 0 1008.2)"/><path d="m194.996094 968.375h6.199218v-.339844h-6.199218zm0 0"/><path d="m3256.484375 398.25h61.953125v3.398438h-61.953125zm0 0" fill="none" stroke="#000" stroke-linejoin="round" stroke-miterlimit="10" stroke-width="5.42242" transform="matrix(.1 0 0 -.1 0 1008.2)"/><path d="m325.648438 968.375h6.195312v-.339844h-6.195312zm0 0"/><path d="m3774.648438 398.25h61.992187v3.398438h-61.992187zm0 0" fill="none" stroke="#000" stroke-linejoin="round" stroke-miterlimit="10" stroke-width="5.42242" transform="matrix(.1 0 0 -.1 0 1008.2)"/><path d="m377.464844 968.375h6.199218v-.339844h-6.199218zm0 0"/><path d="m4343.671875 398.25h61.953125v3.398438h-61.953125zm0 0" fill="none" stroke="#000" stroke-linejoin="round" stroke-miterlimit="10" stroke-width="5.42242" transform="matrix(.1 0 0 -.1 0 1008.2)"/><path d="m434.367188 968.375h6.195312v-.339844h-6.195312zm0 0"/><path d="m4864.804688 398.25h61.953124v3.398438h-61.953124zm0 0" fill="none" stroke="#000" stroke-linejoin="round" stroke-miterlimit="10" stroke-width="5.42242" transform="matrix(.1 0 0 -.1 0 1008.2)"/><path d="m486.480469 968.375h6.195312v-.339844h-6.195312zm0 0"/><use x="505.992" xlink:href="#X" y="975.2824"/><use x="512.965413" xlink:href="#am" y="975.2824"/><use x="526.911508" xlink:href="#ag" y="975.2824"/><use x="540.688461" xlink:href="#af" y="975.2824"/><use x="516.6725" xlink:href="#aF" y="929.2273"/><use x="286.110383" xlink:href="#aA" y="929.2273"/><path d="m549.84375 587.46875h4.84375v326.015625h-4.84375zm0 0" fill="none" stroke="#000" stroke-linejoin="round" stroke-miterlimit="10" stroke-width="3.98257" transform="matrix(.1 0 0 -.1 0 1008.2)"/><path d="m54.984375 949.453125h.480469v-32.601563h-.480469zm0 0"/><use x="53.3727" xlink:href="#ai" y="975.2824"/><use x="54.78598" xlink:href="#aA" y="913.9097"/><use x="8.16958" xlink:href="#aD" y="929.2273"/><path d="m2376.054688 870.203125h4.804687v326.015625h-4.804687zm0 0" fill="none" stroke="#000" stroke-linejoin="round" stroke-miterlimit="10" stroke-width="3.98257" transform="matrix(.1 0 0 -.1 0 1008.2)"/><path d="m237.605469 921.183594h.480469v-32.601563h-.480469zm0 0"/><use x="224.276" xlink:href="#aA" y="924.1215"/><use x="210.3615" xlink:href="#al" y="975.2824"/><use x="231.451715" xlink:href="#ae" y="975.2824"/><use x="245.228278" xlink:href="#X" y="975.2824"/><path d="m1702.65625 587.46875h4.84375v333.359375h-4.84375zm0 0" fill="none" stroke="#000" stroke-linejoin="round" stroke-miterlimit="10" stroke-width="3.98257" transform="matrix(.1 0 0 -.1 0 1008.2)"/><path d="m170.265625 949.453125h.484375v-33.332031h-.484375zm0 0"/><use x="167.636" xlink:href="#T" y="975.2824"/><use x="173.248109" xlink:href="#ab" y="975.2824"/><use x="170.06725" xlink:href="#aB" y="913.9097"/><path d="m1152.773438 587.46875h4.84375v333.359375h-4.84375zm0 0" fill="none" stroke="#000" stroke-linejoin="round" stroke-miterlimit="10" stroke-width="3.98257" transform="matrix(.1 0 0 -.1 0 1008.2)"/><path d="m115.277344 949.453125h.480468v-33.332031h-.480468zm0 0"/><use x="104.994" xlink:href="#az" y="975.2824"/><use x="118.940082" xlink:href="#ad" y="975.2824"/><use x="132.886164" xlink:href="#P" y="975.2824"/><use x="115.0792" xlink:href="#aB" y="913.9097"/></svg>