<svg height="248.66em" viewBox="0 0 595.28 248.66" width="595.28em" xmlns="http://www.w3.org/2000/svg" xmlns:xlink="http://www.w3.org/1999/xlink"><clipPath id="a"><path d="m0 65h595.28125v2h-595.28125zm0 0"/></clipPath><clipPath id="b"><path d="m0 55h595.28125v2h-595.28125zm0 0"/></clipPath><clipPath id="c"><path d="m0 46h595.28125v1h-595.28125zm0 0"/></clipPath><clipPath id="d"><path d="m0 36h595.28125v2h-595.28125zm0 0"/></clipPath><clipPath id="e"><path d="m0 26h595.28125v2h-595.28125zm0 0"/></clipPath><clipPath id="f"><path d="m0 182h595.28125v1h-595.28125zm0 0"/></clipPath><clipPath id="g"><path d="m0 172h595.28125v1h-595.28125zm0 0"/></clipPath><clipPath id="h"><path d="m0 162h595.28125v2h-595.28125zm0 0"/></clipPath><clipPath id="i"><path d="m0 152h595.28125v2h-595.28125zm0 0"/></clipPath><clipPath id="j"><path d="m0 143h595.28125v1h-595.28125zm0 0"/></clipPath><clipPath id="k"><path d="m591 141h4.28125v44h-4.28125zm0 0"/></clipPath><symbol id="l" overflow="visible"><path d="m8.625-5.25c-1.625 0-3.1875.546875-4.578125 1.40625-1.828125 1.078125-4.046875 2.984375-4.046875 5.75 0 2.296875 2.015625 3.34375 4.078125 3.34375 1.640625 0 3.1875-.546875 4.59375-1.40625 1.8125-1.078125 4-2.984375 4-5.75 0-2.296875-1.984375-3.34375-4.046875-3.34375zm0 0"/></symbol><symbol id="m" overflow="visible"><path d="m8.359375 12.28125v-6.328125l1.90625-.671875c.21875-.078125.421875-.3125.421875-.578125v-2.53125c0-.421875-.421875-.734375-.8125-.578125l-1.515625.546875v-6.375l1.90625-.703125c.21875-.078125.421875-.3125.421875-.578125v-2.484375c0-.4375-.421875-.75-.8125-.59375l-1.515625.515625v-5.828125c0-.359375-.3125-.671875-.671875-.671875-.34375 0-.65625.3125-.65625.671875v6.296875l-3.375 1.203125v-5.875c0-.34375-.3125-.65625-.671875-.65625-.34375 0-.65625.3125-.65625.65625v6.328125l-1.90625.671875c-.234375.078125-.421875.3125-.421875.578125v2.53125c0 .421875.421875.734375.8125.578125l1.515625-.546875v6.375l-1.90625.703125c-.234375.078125-.421875.3125-.421875.578125v2.484375c0 .4375.421875.75.8125.59375l1.515625-.515625v5.828125c0 .359375.3125.671875.65625.671875.359375 0 .671875-.3125.671875-.671875v-6.296875l3.375-1.203125v5.875c0 .34375.3125.65625.65625.65625.359375 0 .671875-.3125.671875-.65625zm-4.703125-14.890625 3.375-1.15625v6.375l-3.375 1.15625zm0 0"/></symbol><symbol id="n" overflow="visible"><path d="m14.53125-10.109375c-.625-2.71875-1.359375-5.390625-2.140625-8.078125 3.734375-4.234375 7.109375-8.59375 7.109375-14.1875 0-4.390625-2.40625-10.6875-5.125-13.953125-.1875-.140625-.421875-.140625-.625 0-3.6875 2.6875-5.828125 6.96875-5.828125 11.46875 0 2.015625.046875 4 .28125 5.984375.265625 2.53125.921875 4.96875 1.625 7.421875-4.578125 5.203125-9.75 10.1875-9.75 17.09375 0 7.8125 5.640625 14.46875 12.9375 14.46875 1.203125 0 2.328125-.125 3.453125-.3125.125 1.234375.203125 2.484375.203125 3.71875 0 .703125-.046875 1.375-.078125 2.0625-.234375 3.84375-2.609375 7.390625-6.21875 7.46875-.03125 0-.078125.03125-.109375.03125-1.984375 0-3.703125-1.125-4.703125-2.71875.421875.203125.890625.359375 1.359375.359375 2.015625 0 3.6875-1.671875 3.6875-3.703125 0-2.171875-1.59375-4.03125-3.6875-4.03125-2.296875 0-4.359375 1.78125-4.359375 4.03125 0 4.203125 3.390625 7.578125 7.578125 7.578125 4.59375 0 7.734375-4.109375 8-8.78125.046875-.734375.046875-1.4375.046875-2.171875 0-1.40625-.078125-2.796875-.203125-4.203125 1.015625-.3125 1.984375-.765625 2.84375-1.4375 2.875-2.125 4.15625-5.125 4.15625-8.078125 0-5.125-3.890625-10.0625-9.875-10.0625-.1875 0-.375.03125-.578125.03125zm3.3125 18.078125c-.546875-4.828125-1.4375-9.40625-2.421875-13.953125 4.28125.34375 6.96875 3.921875 6.96875 7.5 0 2.71875-1.875 5.515625-4.546875 6.453125zm-15.078125-9.171875c0-6.21875 4.1875-10.921875 8.390625-15.625.625 2.296875 1.234375 4.59375 1.78125 6.921875-3.921875.890625-6.140625 4.1875-6.140625 7.609375 0 2.71875 1.40625 5.484375 4.515625 7.15625.109375.03125.234375.078125.34375.078125.421875 0 .78125-.390625.78125-.8125 0-.203125-.125-.390625-.28125-.546875-2.171875-1.25-3.1875-3.109375-3.1875-4.828125 0-2.28125 1.796875-4.34375 4.859375-4.703125 1.015625 4.671875 1.90625 9.296875 2.5 14.265625-1.0625.15625-2.109375.234375-3.1875.234375-5.296875 0-10.375-4.46875-10.375-9.75zm13.203125-39.59375c.65625 2.046875.8125 3.0625.8125 5.3125 0 4.9375-2.59375 8.859375-5.78125 12.640625-.703125-2.453125-1.28125-4.828125-1.28125-7.78125 0-4.3125 2.40625-8.234375 6.25-10.171875zm0 0"/></symbol><symbol id="o" overflow="visible"><path d="m-2.453125-1.828125c0 1.359375 1.09375 2.453125 2.453125 2.453125s2.453125-1.09375 2.453125-2.453125-1.09375-2.453125-2.453125-2.453125-2.453125 1.09375-2.453125 2.453125zm2.453125-12.15625c-6.015625 0-12.78125 6.71875-12.78125 14.0625 0 .3125.3125.546875.625.546875.265625 0 .578125-.203125.65625-.625 1.015625-5.796875 5.703125-10.296875 11.5-10.296875s10.484375 4.5 11.5 10.296875c.078125.421875.390625.625.65625.625.3125 0 .625-.234375.625-.546875 0-7.34375-6.71875-14.0625-12.78125-14.0625zm0 0"/></symbol><symbol id="p" overflow="visible"><path d="m4.65625-17.484375h-2.25v17.484375h2.25zm0 0"/></symbol><symbol id="q" overflow="visible"><path d="m10.5-9.0625c-.015625-2.46875-1.65625-3.859375-4.546875-3.859375-2.9375 0-4.828125 1.5-4.828125 3.828125 0 1.96875 1.015625 2.90625 3.984375 3.625l1.875.453125c1.390625.34375 1.9375.84375 1.9375 1.734375 0 1.1875-1.171875 1.984375-2.921875 1.984375-1.078125 0-2-.3125-2.5-.84375-.3125-.359375-.453125-.71875-.578125-1.59375h-2.109375c.09375 2.890625 1.734375 4.28125 5.015625 4.28125 3.171875 0 5.1875-1.546875 5.1875-3.984375 0-1.859375-1.0625-2.890625-3.5625-3.5l-1.90625-.453125c-1.640625-.375-2.328125-.90625-2.328125-1.796875 0-1.171875 1.03125-1.890625 2.65625-1.890625 1.609375 0 2.46875.6875 2.515625 2.015625zm0 0"/></symbol><symbol id="r" overflow="visible"><path d="m1.65625-12.5625v12.5625h2.015625v-6.53125c.015625-3.015625 1.265625-4.359375 4.03125-4.28125v-2.046875c-.34375-.046875-.53125-.0625-.765625-.0625-1.296875 0-2.28125.765625-3.4375 2.625v-2.265625zm0 0"/></symbol><symbol id="s" overflow="visible"><path d="m12.828125-1.171875c-.21875.046875-.3125.046875-.421875.046875-.703125 0-1.078125-.359375-1.078125-.984375v-7.390625c0-2.234375-1.640625-3.421875-4.734375-3.421875-1.84375 0-3.3125.515625-4.171875 1.453125-.578125.65625-.8125 1.375-.859375 2.625h2.015625c.15625-1.546875 1.078125-2.234375 2.953125-2.234375 1.8125 0 2.796875.671875 2.796875 1.875v.515625c-.015625.875-.453125 1.1875-2.078125 1.390625-2.84375.359375-3.265625.46875-4.03125.765625-1.46875.625-2.21875 1.734375-2.21875 3.359375 0 2.28125 1.59375 3.71875 4.125 3.71875 1.59375 0 2.859375-.546875 4.28125-1.84375.140625 1.296875.765625 1.84375 2.0625 1.84375.421875 0 .6875-.046875 1.359375-.21875zm-3.5-2.78125c0 .671875-.1875 1.078125-.796875 1.625-.8125.75-1.796875 1.125-2.96875 1.125-1.5625 0-2.46875-.734375-2.46875-2.015625 0-1.3125.859375-1.984375 3.015625-2.296875 2.140625-.28125 2.546875-.390625 3.21875-.703125zm0 0"/></symbol><symbol id="t" overflow="visible"><path d="m1.671875-12.5625v12.5625h2.015625v-7.890625c0-1.828125 1.328125-3.28125 2.953125-3.28125 1.484375 0 2.328125.90625 2.328125 2.515625v8.65625h2.015625v-7.890625c0-1.828125 1.3125-3.28125 2.953125-3.28125 1.453125 0 2.328125.9375 2.328125 2.515625v8.65625h2.015625v-9.421875c0-2.265625-1.296875-3.5-3.65625-3.5-1.671875 0-2.6875.5-3.859375 1.90625-.734375-1.34375-1.75-1.90625-3.375-1.90625-1.6875 0-2.8125.625-3.859375 2.125v-1.765625zm0 0"/></symbol><symbol id="u" overflow="visible"><path d="m13.234375-17.484375v12.28125c0 2.34375-1.703125 3.78125-4.5 3.78125-1.296875 0-2.359375-.3125-3.1875-.90625-.875-.671875-1.28125-1.5625-1.28125-2.875v-12.28125h-2.234375v12.28125c0 3.546875 2.546875 5.75 6.703125 5.75 4.09375 0 6.734375-2.25 6.734375-5.75v-12.28125zm0 0"/></symbol><symbol id="v" overflow="visible"><path d="m6.09375-12.5625h-2.0625v-3.453125h-2v3.453125h-1.703125v1.625h1.703125v9.5c0 1.296875.875 1.984375 2.4375 1.984375.515625 0 .953125-.046875 1.625-.15625v-1.6875c-.296875.078125-.546875.09375-.96875.09375-.859375 0-1.09375-.234375-1.09375-1.125v-8.609375h2.0625zm0 0"/></symbol><symbol id="w" overflow="visible"><path d="m10.625-12.5625h-9.375v1.75h7l-7.5 9.015625v1.796875h10.203125v-1.75h-7.78125l7.453125-9.046875zm0 0"/></symbol><symbol id="x" overflow="visible"><path d="m2.09375-2.5v2.5h1.4375v.4375c0 1.65625-.3125 2.125-1.4375 2.171875v.921875c1.578125.046875 2.515625-1.109375 2.515625-3.140625v-2.890625zm0 0"/></symbol><symbol id="y" overflow="visible"><path d="m12.296875-5.609375c0-1.921875-.140625-3.078125-.5-4.015625-.8125-2.0625-2.734375-3.296875-5.078125-3.296875-3.5 0-5.765625 2.65625-5.765625 6.8125 0 4.140625 2.171875 6.65625 5.71875 6.65625 2.875 0 4.859375-1.625 5.375-4.359375h-2.015625c-.5625 1.65625-1.6875 2.515625-3.296875 2.515625-1.265625 0-2.34375-.578125-3.015625-1.625-.484375-.71875-.65625-1.4375-.671875-2.6875zm-9.203125-1.640625c.171875-2.3125 1.578125-3.828125 3.59375-3.828125 2.046875 0 3.453125 1.578125 3.453125 3.828125zm0 0"/></symbol><symbol id="z" overflow="visible"><path d="m1.671875-12.5625v12.5625h2.015625v-6.9375c0-2.5625 1.34375-4.234375 3.40625-4.234375 1.59375 0 2.59375.953125 2.59375 2.46875v8.703125h2v-9.5c0-2.078125-1.5625-3.421875-3.984375-3.421875-1.875 0-3.078125.71875-4.171875 2.46875v-2.109375zm0 0"/></symbol><symbol id="A" overflow="visible"><path d="m13.21875-7.96875v7.96875h2.234375v-17.484375h-2.234375v7.5625h-9v-7.5625h-2.234375v17.484375h2.234375v-7.96875zm0 0"/></symbol><symbol id="B" overflow="visible"><path d="m9.6875-12.5625v1.8125c-1-1.5-2.109375-2.171875-3.6875-2.171875-3.046875 0-5.15625 2.828125-5.15625 6.859375 0 2.109375.5 3.640625 1.578125 4.90625.9375 1.109375 2.140625 1.703125 3.4375 1.703125 1.5 0 2.578125-.671875 3.640625-2.25v.640625c0 3.359375-.9375 4.609375-3.4375 4.609375-1.703125 0-2.578125-.671875-2.78125-2.109375h-2.03125c.1875 2.328125 2.03125 3.796875 4.765625 3.796875 1.84375 0 3.390625-.609375 4.203125-1.609375.953125-1.171875 1.3125-2.734375 1.3125-5.6875v-10.5zm-3.5 1.484375c2.109375 0 3.3125 1.765625 3.3125 4.96875 0 3.046875-1.21875 4.8125-3.3125 4.8125-2.0625 0-3.265625-1.796875-3.265625-4.890625 0-3.078125 1.203125-4.890625 3.265625-4.890625zm0 0"/></symbol><symbol id="C" overflow="visible"><path d="m3.59375-12.5625h-1.984375v12.5625h1.984375zm0-4.921875h-2.015625v2.515625h2.015625zm0 0"/></symbol><symbol id="D" overflow="visible"><path d="m3.375-17.484375h-1.984375v17.484375h1.984375v-4.890625l1.953125-1.921875 4.234375 6.8125h2.484375l-5.140625-8.234375 4.359375-4.328125h-2.5625l-5.328125 5.3125zm0 0"/></symbol><symbol id="E" overflow="visible"><path d="m4.578125-2.5h-2.484375v2.5h2.484375zm0 0"/></symbol><symbol id="F" overflow="visible"><path d="m12.828125-1.171875c-.21875.046875-.3125.046875-.421875.046875-.703125 0-1.078125-.359375-1.078125-.984375v-7.390625c0-2.234375-1.640625-3.421875-4.734375-3.421875-1.84375 0-3.3125.515625-4.171875 1.453125-.578125.65625-.8125 1.375-.859375 2.625h2.015625c.15625-1.546875 1.078125-2.234375 2.953125-2.234375 1.8125 0 2.796875.671875 2.796875 1.875v.515625c-.015625.875-.453125 1.1875-2.078125 1.390625-2.84375.359375-3.265625.46875-4.03125.765625-1.46875.625-2.21875 1.734375-2.21875 3.359375 0 2.28125 1.59375 3.71875 4.125 3.71875 1.59375 0 2.859375-.546875 4.28125-1.84375.140625 1.296875.765625 1.84375 2.0625 1.84375.421875 0 .6875-.046875 1.359375-.21875zm-3.5-2.78125c0 .671875-.1875 1.078125-.796875 1.625-.8125.75-1.796875 1.125-2.96875 1.125-1.5625 0-2.46875-.734375-2.46875-2.015625 0-1.3125.859375-1.984375 3.015625-2.296875 2.140625-.28125 2.546875-.390625 3.21875-.703125zm-2.03125-13.796875-2.328125 3.546875h1.4375l3.578125-3.546875zm0 0"/></symbol><symbol id="G" overflow="visible"><path d="m6.828125 0 4.828125-12.5625h-2.25l-3.546875 10.1875-3.359375-10.1875h-2.265625l4.421875 12.5625zm0 0"/></symbol><symbol id="H" overflow="visible"><path d="m9.3125-12.5625-3.484375 9.78125-3.21875-9.78125h-2.125l4.234375 12.609375-.765625 1.984375c-.328125.890625-.765625 1.234375-1.609375 1.234375-.328125 0-.609375-.046875-1.046875-.140625v1.796875c.40625.203125.8125.3125 1.34375.3125.640625 0 1.34375-.21875 1.875-.609375.609375-.453125.984375-.984375 1.359375-1.984375l5.59375-15.203125zm0 0"/></symbol><symbol id="I" overflow="visible"><path d="m1.296875-17.484375v17.484375h1.796875v-1.609375c.953125 1.46875 2.234375 2.15625 3.984375 2.15625 3.3125 0 5.46875-2.703125 5.46875-6.875 0-4.078125-2.046875-6.59375-5.375-6.59375-1.734375 0-2.953125.640625-3.890625 2.0625v-6.625zm5.484375 6.421875c2.234375 0 3.671875 1.953125 3.671875 4.953125 0 2.84375-1.484375 4.796875-3.671875 4.796875-2.125 0-3.5-1.921875-3.5-4.875s1.375-4.875 3.5-4.875zm0 0"/></symbol><symbol id="J" overflow="visible"><path d="m5.09375-10.453125v10.453125h2.984375v-15.15625h-1.984375c-.46875 1.796875-2.03125 2.71875-4.640625 2.71875v1.984375zm0 0"/></symbol><symbol id="K" overflow="visible"><path d="m4.578125-3.125h-3.203125v3.125h3.203125zm0 0"/></symbol><g clip-path="url(#a)"><path d="m3.28125 1828.435937h5946.171875" fill="none" stroke="#000" stroke-linecap="round" stroke-miterlimit="10" stroke-width="6.60523" transform="matrix(.1 0 0 -.1 0 248.66)"/></g><g clip-path="url(#b)"><path d="m3.28125 1925.545312h5946.171875" fill="none" stroke="#000" stroke-linecap="round" stroke-miterlimit="10" stroke-width="6.60523" transform="matrix(.1 0 0 -.1 0 248.66)"/></g><g clip-path="url(#c)"><path d="m3.28125 2022.69375h5946.171875" fill="none" stroke="#000" stroke-linecap="round" stroke-miterlimit="10" stroke-width="6.60523" transform="matrix(.1 0 0 -.1 0 248.66)"/></g><g clip-path="url(#d)"><path d="m3.28125 2119.842187h5946.171875" fill="none" stroke="#000" stroke-linecap="round" stroke-miterlimit="10" stroke-width="6.60523" transform="matrix(.1 0 0 -.1 0 248.66)"/></g><g clip-path="url(#e)"><path d="m3.28125 2216.951562h5946.171875" fill="none" stroke="#000" stroke-linecap="round" stroke-miterlimit="10" stroke-width="6.60523" transform="matrix(.1 0 0 -.1 0 248.66)"/></g><use x="471.29" xlink:href="#l" y="56.105"/><use x="471.29" xlink:href="#p" y="99.8159"/><use x="477.923579" xlink:href="#q" y="99.8159"/><path d="m4833.125 1946.639062h4.609375v268.125h-4.609375zm0 0" style="fill:none;stroke-width:3.98257;stroke-linecap:round;stroke-linejoin:round;stroke:#000;stroke-miterlimit:10" transform="matrix(.1 0 0 -.1 0 248.66)"/><path d="m483.3125 53.996094h.460938v-26.8125h-.460938zm0 0"/><path d="m4409.375 1995.232812h4.609375v297.03125h-4.609375zm0 0" style="fill:none;stroke-width:3.98257;stroke-linecap:round;stroke-linejoin:round;stroke:#000;stroke-miterlimit:10" transform="matrix(.1 0 0 -.1 0 248.66)"/><path d="m440.9375 49.136719h.460938v-29.703125h-.460938zm0 0"/><use x="511.473" xlink:href="#l" y="60.961"/><path d="m5234.960938 1898.084375h4.609374v297.070312h-4.609374zm0 0" style="fill:none;stroke-width:3.98257;stroke-linecap:round;stroke-linejoin:round;stroke:#000;stroke-miterlimit:10" transform="matrix(.1 0 0 -.1 0 248.66)"/><path d="m523.496094 58.851562h.460937v-29.707031h-.460937zm0 0"/><use x="551.655" xlink:href="#l" y="65.818"/><use x="414.76" xlink:href="#r" y="99.8153"/><use x="422.583442" xlink:href="#s" y="99.8153"/><use x="435.849428" xlink:href="#t" y="99.8153"/><use x="428.912" xlink:href="#l" y="51.2473"/><path d="m3962.265625 2043.7875h4.609375v268.125h-4.609375zm0 0" style="fill:none;stroke-width:3.98257;stroke-linecap:round;stroke-linejoin:round;stroke:#000;stroke-miterlimit:10" transform="matrix(.1 0 0 -.1 0 248.66)"/><path d="m396.226562 44.28125h.460938v-26.8125h-.460938zm0 0"/><use x="381.87" xlink:href="#u" y="99.815"/><use x="384.20203" xlink:href="#l" y="46.3904"/><use x="316.49543" xlink:href="#v" y="99.815"/><use x="323.129009" xlink:href="#s" y="99.815"/><use x="336.394629" xlink:href="#q" y="99.815"/><use x="348.300868" xlink:href="#w" y="99.815"/><use x="359.695779" xlink:href="#x" y="99.815"/><path d="m887.617188 2238.279687v-42.65625l410.039062 20.039063v42.617187zm0 0" fill="none" stroke="#000" stroke-linejoin="round" stroke-miterlimit="10" stroke-width="3.98257" transform="matrix(.1 0 0 -.1 0 248.66)"/><path d="m88.761719 24.832031v4.265625l41.003906-2.003906v-4.261719zm0 0"/><path d="m1661.015625 1709.959375h625.195313v42.65625h-625.195313zm0 0" fill="none" stroke="#000" stroke-linejoin="round" stroke-miterlimit="10" stroke-width="3.98257" transform="matrix(.1 0 0 -.1 0 248.66)"/><path d="m166.101562 77.664062h62.519532v-4.265624h-62.519532zm0 0"/><path d="m3057.8125 1554.217187h58.828125v3.320313h-58.828125zm0 0" fill="none" stroke="#000" stroke-linejoin="round" stroke-miterlimit="10" stroke-width="5.28418" transform="matrix(.1 0 0 -.1 0 248.66)"/><path d="m305.78125 93.238281h5.882812v-.332031h-5.882812zm0 0"/><path d="m3962.265625 2335.428125v-42.65625l451.679687-20v42.65625zm0 0" fill="none" stroke="#000" stroke-linejoin="round" stroke-miterlimit="10" stroke-width="3.98257" transform="matrix(.1 0 0 -.1 0 248.66)"/><path d="m396.226562 15.117188v4.265624l45.167969 2v-4.265624zm0 0"/><path d="m4040.46875 1554.217187h58.828125v3.320313h-58.828125zm0 0" fill="none" stroke="#000" stroke-linejoin="round" stroke-miterlimit="10" stroke-width="5.28418" transform="matrix(.1 0 0 -.1 0 248.66)"/><path d="m404.046875 93.238281h5.882813v-.332031h-5.882813zm0 0"/><path d="m4833.164062 2238.279687v-42.65625l406.40625-20v42.65625zm0 0" fill="none" stroke="#000" stroke-linejoin="round" stroke-miterlimit="10" stroke-width="3.98257" transform="matrix(.1 0 0 -.1 0 248.66)"/><path d="m483.316406 24.832031v4.265625l40.640625 2v-4.265625zm0 0"/><path d="m4772.773438 1810.076562c89.609374-96.445312 297.226562-114.023437 401.796874-34.023437-103.90625-72.109375-311.484374-54.53125-401.796874 34.023437zm0 0" style="fill:none;stroke-width:5.28305;stroke-linecap:round;stroke-linejoin:round;stroke:#000;stroke-miterlimit:10" transform="matrix(.1 0 0 -.1 0 248.66)"/><path d="m477.277344 67.652344c8.960937 9.644531 29.722656 11.402344 40.179687 3.402344-10.390625 7.210937-31.148437 5.453124-40.179687-3.402344"/><path d="m5111.914062 1554.217187h58.828126v3.320313h-58.828126zm0 0" fill="none" stroke="#000" stroke-linejoin="round" stroke-miterlimit="10" stroke-width="5.28418" transform="matrix(.1 0 0 -.1 0 248.66)"/><path d="m511.191406 93.238281h5.882813v-.332031h-5.882813zm0 0"/><path d="m5636.796875 1849.529687h4.609375v316.875h-4.609375zm0 0" fill="none" stroke="#000" stroke-linejoin="round" stroke-miterlimit="10" stroke-width="3.98257" transform="matrix(.1 0 0 -.1 0 248.66)"/><path d="m563.679688 63.707031h.460937v-31.6875h-.460937zm0 0"/><use x="538.268" xlink:href="#v" y="99.815"/><use x="544.560563" xlink:href="#y" y="99.815"/><use x="557.826159" xlink:href="#z" y="99.815"/><use x="571.092145" xlink:href="#x" y="99.815"/><path d="m3470.9375 1946.639062h4.609375v316.875h-4.609375zm0 0" fill="none" stroke="#000" stroke-linejoin="round" stroke-miterlimit="10" stroke-width="3.98257" transform="matrix(.1 0 0 -.1 0 248.66)"/><path d="m347.09375 53.996094h.460938v-31.6875h-.460938zm0 0"/><use x="40.2852" xlink:href="#J" y="99.815"/><use x="52.191076" xlink:href="#K" y="99.815"/><path d="m1293.046875 1995.232812h4.609375v239.53125h-4.609375zm0 0" fill="none" stroke="#000" stroke-linejoin="round" stroke-miterlimit="10" stroke-width="3.98257" transform="matrix(.1 0 0 -.1 0 248.66)"/><path d="m129.304688 49.136719h.460937v-23.953125h-.460937zm0 0"/><use x="335.07" xlink:href="#l" y="56.105"/><use x="117.281" xlink:href="#l" y="51.24797"/><path d="m887.617188 1946.639062h4.609374v268.515625h-4.609374zm0 0" fill="none" stroke="#000" stroke-linejoin="round" stroke-miterlimit="10" stroke-width="3.98257" transform="matrix(.1 0 0 -.1 0 248.66)"/><path d="m88.761719 53.996094h.460937v-26.851563h-.460937zm0 0"/><use x="113.843" xlink:href="#v" y="99.815"/><use x="120.135575" xlink:href="#y" y="99.815"/><use x="67.857238" xlink:href="#A" y="99.815"/><use x="85.034952" xlink:href="#s" y="99.815"/><use x="41.7684" xlink:href="#m" y="26.9634"/><use x="7.7707" xlink:href="#n" y="56.104"/><use x="76.736905" xlink:href="#l" y="56.104"/><path d="m2926.875 1995.232812h4.609375v316.875h-4.609375zm0 0" fill="none" stroke="#000" stroke-linejoin="round" stroke-miterlimit="10" stroke-width="3.98257" transform="matrix(.1 0 0 -.1 0 248.66)"/><path d="m292.6875 49.136719h.460938v-31.6875h-.460938zm0 0"/><use x="273.06" xlink:href="#v" y="99.815"/><use x="279.693579" xlink:href="#s" y="99.815"/><use x="292.959199" xlink:href="#r" y="99.815"/><use x="280.66469" xlink:href="#l" y="51.247"/><path d="m2281.601562 1733.279687h4.609376v268.28125h-4.609376zm0 0" fill="none" stroke="#000" stroke-linejoin="round" stroke-miterlimit="10" stroke-width="3.98257" transform="matrix(.1 0 0 -.1 0 248.66)"/><path d="m228.160156 75.332031h.460938v-26.828125h-.460938zm0 0"/><use x="211.088" xlink:href="#z" y="99.815"/><use x="224.354011" xlink:href="#y" y="99.815"/><use x="237.619631" xlink:href="#t" y="99.815"/><use x="227.9614" xlink:href="#l" y="46.3904"/><path d="m1661.015625 1733.279687h4.609375v268.28125h-4.609375zm0 0" fill="none" stroke="#000" stroke-linejoin="round" stroke-miterlimit="10" stroke-width="3.98257" transform="matrix(.1 0 0 -.1 0 248.66)"/><path d="m166.101562 75.332031h.460938v-26.828125h-.460938zm0 0"/><use x="148.944" xlink:href="#t" y="99.815"/><use x="168.843199" xlink:href="#y" y="99.815"/><use x="182.27912" xlink:href="#B" y="99.815"/><use x="165.903" xlink:href="#l" y="46.3904"/><g clip-path="url(#f)"><path d="m3.28125 662.771875h5946.171875" style="fill:none;stroke-width:6.60523;stroke-linecap:round;stroke-linejoin:round;stroke:#000;stroke-miterlimit:10" transform="matrix(.1 0 0 -.1 0 248.66)"/></g><g clip-path="url(#g)"><path d="m3.28125 759.920312h5946.171875" style="fill:none;stroke-width:6.60523;stroke-linecap:round;stroke-linejoin:round;stroke:#000;stroke-miterlimit:10" transform="matrix(.1 0 0 -.1 0 248.66)"/></g><g clip-path="url(#h)"><path d="m3.28125 857.06875h5946.171875" style="fill:none;stroke-width:6.60523;stroke-linecap:round;stroke-linejoin:round;stroke:#000;stroke-miterlimit:10" transform="matrix(.1 0 0 -.1 0 248.66)"/></g><g clip-path="url(#i)"><path d="m3.28125 954.217187h5946.171875" style="fill:none;stroke-width:6.60523;stroke-linecap:round;stroke-linejoin:round;stroke:#000;stroke-miterlimit:10" transform="matrix(.1 0 0 -.1 0 248.66)"/></g><g clip-path="url(#j)"><path d="m3.28125 1051.326562h5946.171875" style="fill:none;stroke-width:6.60523;stroke-linecap:round;stroke-linejoin:round;stroke:#000;stroke-miterlimit:10" transform="matrix(.1 0 0 -.1 0 248.66)"/></g><g clip-path="url(#k)"><path d="m5932.929688 662.771875v388.554687" fill="none" stroke="#000" stroke-linejoin="round" stroke-miterlimit="10" stroke-width="39.6217" transform="matrix(.1 0 0 -.1 0 248.66)"/></g><path d="m5887.03125 662.771875v388.554687" fill="none" stroke="#000" stroke-linejoin="round" stroke-miterlimit="10" stroke-width="12.5499" transform="matrix(.1 0 0 -.1 0 248.66)"/><use x="441.558" xlink:href="#l" y="172.6674"/><use x="429.6162" xlink:href="#q" y="216.4756"/><use x="441.522048" xlink:href="#w" y="216.4756"/><use x="452.916959" xlink:href="#y" y="216.4756"/><path d="m4535.820312 781.014062h4.609376v268.164063h-4.609376zm0 0" fill="none" stroke="#000" stroke-linejoin="round" stroke-miterlimit="10" stroke-width="3.98257" transform="matrix(.1 0 0 -.1 0 248.66)"/><path d="m453.582031 170.558594h.460938v-26.816406h-.460938zm0 0"/><use x="491.965" xlink:href="#l" y="177.5241"/><use x="481.724" xlink:href="#t" y="216.4757"/><use x="501.623212" xlink:href="#y" y="216.4757"/><path d="m5039.882812 732.459375h4.609376v297.03125h-4.609376zm0 0" fill="none" stroke="#000" stroke-linejoin="round" stroke-miterlimit="10" stroke-width="3.98257" transform="matrix(.1 0 0 -.1 0 248.66)"/><path d="m503.988281 175.414062h.460938v-29.703124h-.460938zm0 0"/><path d="m4071.71875 829.607812h4.609375v296.289063h-4.609375zm0 0" fill="none" stroke="#000" stroke-linejoin="round" stroke-miterlimit="10" stroke-width="3.98257" transform="matrix(.1 0 0 -.1 0 248.66)"/><path d="m407.171875 165.699219h.457031v-29.628907h-.457031zm0 0"/><use x="388.902" xlink:href="#t" y="216.4756"/><use x="408.801187" xlink:href="#C" y="216.4756"/><use x="395.14575" xlink:href="#l" y="167.8104"/><path d="m3649.726562 732.459375h4.570313v337.460937h-4.570313zm0 0" fill="none" stroke="#000" stroke-linejoin="round" stroke-miterlimit="10" stroke-width="3.98257" transform="matrix(.1 0 0 -.1 0 248.66)"/><path d="m364.972656 175.414062h.457032v-33.746093h-.457032zm0 0"/><use x="352.655" xlink:href="#s" y="216.4756"/><use x="352.946406" xlink:href="#l" y="177.524"/><path d="m1030.859375 387.615625h58.789063v3.320312h-58.789063zm0 0" fill="none" stroke="#000" stroke-linejoin="round" stroke-miterlimit="10" stroke-width="5.28418" transform="matrix(.1 0 0 -.1 0 248.66)"/><path d="m103.085938 209.898438h5.878906v-.332032h-5.878906zm0 0"/><path d="m1309.492188 1092.654687v-42.617187l402.304687-20.039063v42.65625zm0 0" fill="none" stroke="#000" stroke-linejoin="round" stroke-miterlimit="10" stroke-width="3.98257" transform="matrix(.1 0 0 -.1 0 248.66)"/><path d="m130.949219 139.394531v4.261719l40.230469 2.003906v-4.265625zm0 0"/><path d="m1388.945312 387.615625h58.828126v3.320312h-58.828126zm0 0" fill="none" stroke="#000" stroke-linejoin="round" stroke-miterlimit="10" stroke-width="5.28418" transform="matrix(.1 0 0 -.1 0 248.66)"/><path d="m138.894531 209.898438h5.882813v-.332032h-5.882813zm0 0"/><path d="m2129.21875 1169.803125v-42.65625l495.898438-20v42.617187zm0 0" fill="none" stroke="#000" stroke-linejoin="round" stroke-miterlimit="10" stroke-width="3.98257" transform="matrix(.1 0 0 -.1 0 248.66)"/><path d="m212.921875 131.679688v4.265624l49.589844 2v-4.261718zm0 0"/><path d="m2207.382812 387.615625h58.828126v3.320312h-58.828126zm0 0" fill="none" stroke="#000" stroke-linejoin="round" stroke-miterlimit="10" stroke-width="5.28418" transform="matrix(.1 0 0 -.1 0 248.66)"/><path d="m220.738281 209.898438h5.882813v-.332032h-5.882813zm0 0"/><path d="m2861.132812 387.615625h58.828126v3.320312h-58.828126zm0 0" fill="none" stroke="#000" stroke-linejoin="round" stroke-miterlimit="10" stroke-width="5.28418" transform="matrix(.1 0 0 -.1 0 248.66)"/><path d="m286.113281 209.898438h5.882813v-.332032h-5.882813zm0 0"/><path d="m3649.726562 1092.654687v-42.617187l426.601563 57.109375v42.617187zm0 0" fill="none" stroke="#000" stroke-linejoin="round" stroke-miterlimit="10" stroke-width="3.98257" transform="matrix(.1 0 0 -.1 0 248.66)"/><path d="m364.972656 139.394531v4.261719l42.660156-5.710938v-4.261718zm0 0"/><path d="m4535.820312 1072.654687v-42.65625l508.671876-20v42.65625zm0 0" fill="none" stroke="#000" stroke-linejoin="round" stroke-miterlimit="10" stroke-width="3.98257" transform="matrix(.1 0 0 -.1 0 248.66)"/><path d="m453.582031 141.394531v4.265625l50.867188 2v-4.265625zm0 0"/><path d="m4710.117188 387.615625h58.828124v3.320312h-58.828124zm0 0" fill="none" stroke="#000" stroke-linejoin="round" stroke-miterlimit="10" stroke-width="5.28418" transform="matrix(.1 0 0 -.1 0 248.66)"/><path d="m471.011719 209.898438h5.882812v-.332032h-5.882812zm0 0"/><path d="m5197.1875 387.615625h58.828125v3.320312h-58.828125zm0 0" fill="none" stroke="#000" stroke-linejoin="round" stroke-miterlimit="10" stroke-width="5.28418" transform="matrix(.1 0 0 -.1 0 248.66)"/><path d="m519.71875 209.898438h5.882812v-.332032h-5.882812zm0 0"/><path d="m5546.523438 683.904687h4.609374v316.875h-4.609374zm0 0" fill="none" stroke="#000" stroke-linejoin="round" stroke-miterlimit="10" stroke-width="3.98257" transform="matrix(.1 0 0 -.1 0 248.66)"/><path d="m554.652344 180.269531h.460937v-31.6875h-.460937zm0 0"/><use x="530.432" xlink:href="#C" y="216.4756"/><use x="535.704659" xlink:href="#z" y="216.4756"/><use x="548.970255" xlink:href="#D" y="216.4756"/><use x="560.876103" xlink:href="#E" y="216.4756"/><use x="548.9703" xlink:href="#o" y="140.6318"/><use x="542.6285" xlink:href="#l" y="182.381"/><path d="m1309.492188 829.607812h4.609374v239.53125h-4.609374zm0 0" fill="none" stroke="#000" stroke-linejoin="round" stroke-miterlimit="10" stroke-width="3.98257" transform="matrix(.1 0 0 -.1 0 248.66)"/><path d="m130.949219 165.699219h.457031v-23.953125h-.457031zm0 0"/><use x="118.632" xlink:href="#F" y="216.4756"/><use x="118.923406" xlink:href="#l" y="167.8104"/><path d="m877.890625 781.014062h4.609375v316.875h-4.609375zm0 0" fill="none" stroke="#000" stroke-linejoin="round" stroke-miterlimit="10" stroke-width="3.98257" transform="matrix(.1 0 0 -.1 0 248.66)"/><path d="m87.789062 170.558594h.460938v-31.6875h-.460938zm0 0"/><use x="70.7973" xlink:href="#A" y="216.4756"/><use x="88.145717" xlink:href="#C" y="216.4756"/><use x="75.76605" xlink:href="#l" y="172.6674"/><use x="41.76835" xlink:href="#m" y="143.5268"/><use x="7.77065" xlink:href="#n" y="172.6674"/><use x="198.56265" xlink:href="#G" y="216.4756"/><use x="210.638419" xlink:href="#C" y="216.4756"/><path d="m2620.507812 829.607812h4.609376v297.03125h-4.609376zm0 0" fill="none" stroke="#000" stroke-linejoin="round" stroke-miterlimit="10" stroke-width="3.98257" transform="matrix(.1 0 0 -.1 0 248.66)"/><path d="m262.050781 165.699219h.460938v-29.703125h-.460938zm0 0"/><use x="231.452" xlink:href="#B" y="216.4756"/><use x="244.548089" xlink:href="#H" y="216.4756"/><use x="255.943001" xlink:href="#F" y="216.4756"/><use x="269.209011" xlink:href="#w" y="216.4756"/><use x="250.0266" xlink:href="#l" y="167.8104"/><use x="158.6946" xlink:href="#l" y="172.66743"/><path d="m2129.21875 878.1625h4.570312v268.125h-4.570312zm0 0" fill="none" stroke="#000" stroke-linejoin="round" stroke-miterlimit="10" stroke-width="3.98257" transform="matrix(.1 0 0 -.1 0 248.66)"/><path d="m212.921875 160.84375h.457031v-26.8125h-.457031zm0 0"/><use x="200.894" xlink:href="#l" y="162.9537"/><use x="309.789" xlink:href="#l" y="172.66737"/><use x="296.8273" xlink:href="#z" y="216.47557"/><use x="310.093311" xlink:href="#s" y="216.47557"/><use x="323.358931" xlink:href="#D" y="216.47557"/><path d="m1707.1875 781.014062h4.609375v268.515625h-4.609375zm0 0" fill="none" stroke="#000" stroke-linejoin="round" stroke-miterlimit="10" stroke-width="3.98257" transform="matrix(.1 0 0 -.1 0 248.66)"/><path d="m170.71875 170.558594h.460938v-26.851563h-.460938zm0 0"/><use x="151.771" xlink:href="#I" y="216.4756"/><use x="165.036998" xlink:href="#s" y="216.4756"/><path d="m3218.125 781.014062h4.609375v316.875h-4.609375zm0 0" fill="none" stroke="#000" stroke-linejoin="round" stroke-miterlimit="10" stroke-width="3.98257" transform="matrix(.1 0 0 -.1 0 248.66)"/><path d="m321.8125 170.558594h.460938v-31.6875h-.460938zm0 0"/></svg>