<svg height="484.99em" viewBox="0 0 595.28 484.99" width="595.28em" xmlns="http://www.w3.org/2000/svg" xmlns:xlink="http://www.w3.org/1999/xlink"><clipPath id="a"><path d="m0 65h595.28125v2h-595.28125zm0 0"/></clipPath><clipPath id="b"><path d="m0 55h595.28125v2h-595.28125zm0 0"/></clipPath><clipPath id="c"><path d="m0 46h595.28125v1h-595.28125zm0 0"/></clipPath><clipPath id="d"><path d="m0 36h595.28125v2h-595.28125zm0 0"/></clipPath><clipPath id="e"><path d="m0 26h595.28125v2h-595.28125zm0 0"/></clipPath><clipPath id="f"><path d="m0 182h595.28125v1h-595.28125zm0 0"/></clipPath><clipPath id="g"><path d="m0 172h595.28125v2h-595.28125zm0 0"/></clipPath><clipPath id="h"><path d="m0 162h595.28125v2h-595.28125zm0 0"/></clipPath><clipPath id="i"><path d="m0 152h595.28125v2h-595.28125zm0 0"/></clipPath><clipPath id="j"><path d="m0 143h595.28125v1h-595.28125zm0 0"/></clipPath><clipPath id="k"><path d="m0 298h595.28125v2h-595.28125zm0 0"/></clipPath><clipPath id="l"><path d="m0 288h595.28125v2h-595.28125zm0 0"/></clipPath><clipPath id="m"><path d="m0 279h595.28125v1h-595.28125zm0 0"/></clipPath><clipPath id="n"><path d="m0 269h595.28125v2h-595.28125zm0 0"/></clipPath><clipPath id="o"><path d="m0 259h595.28125v2h-595.28125zm0 0"/></clipPath><clipPath id="p"><path d="m0 415h595.28125v1h-595.28125zm0 0"/></clipPath><clipPath id="q"><path d="m0 405h595.28125v2h-595.28125zm0 0"/></clipPath><clipPath id="r"><path d="m0 395h595.28125v2h-595.28125zm0 0"/></clipPath><clipPath id="s"><path d="m0 386h595.28125v1h-595.28125zm0 0"/></clipPath><clipPath id="t"><path d="m0 376h595.28125v2h-595.28125zm0 0"/></clipPath><clipPath id="u"><path d="m591 374h4.28125v44h-4.28125zm0 0"/></clipPath><symbol id="v" overflow="visible"><path d="m1.671875-12.5625v12.5625h2.015625v-7.890625c0-1.828125 1.328125-3.28125 2.953125-3.28125 1.484375 0 2.328125.90625 2.328125 2.515625v8.65625h2.015625v-7.890625c0-1.828125 1.3125-3.28125 2.953125-3.28125 1.453125 0 2.328125.9375 2.328125 2.515625v8.65625h2.015625v-9.421875c0-2.265625-1.296875-3.5-3.65625-3.5-1.671875 0-2.6875.5-3.859375 1.90625-.734375-1.34375-1.75-1.90625-3.375-1.90625-1.6875 0-2.8125.625-3.859375 2.125v-1.765625zm0 0"/></symbol><symbol id="w" overflow="visible"><path d="m12.296875-5.609375c0-1.921875-.140625-3.078125-.5-4.015625-.8125-2.0625-2.734375-3.296875-5.078125-3.296875-3.5 0-5.765625 2.65625-5.765625 6.8125 0 4.140625 2.171875 6.65625 5.71875 6.65625 2.875 0 4.859375-1.625 5.375-4.359375h-2.015625c-.5625 1.65625-1.6875 2.515625-3.296875 2.515625-1.265625 0-2.34375-.578125-3.015625-1.625-.484375-.71875-.65625-1.4375-.671875-2.6875zm-9.203125-1.640625c.171875-2.3125 1.578125-3.828125 3.59375-3.828125 2.046875 0 3.453125 1.578125 3.453125 3.828125zm0 0"/></symbol><symbol id="x" overflow="visible"><path d="m1.671875-12.5625v12.5625h2.015625v-6.9375c0-2.5625 1.34375-4.234375 3.40625-4.234375 1.59375 0 2.59375.953125 2.59375 2.46875v8.703125h2v-9.5c0-2.078125-1.5625-3.421875-3.984375-3.421875-1.875 0-3.078125.71875-4.171875 2.46875v-2.109375zm0 0"/></symbol><symbol id="y" overflow="visible"><path d="m6.09375-12.5625h-2.0625v-3.453125h-2v3.453125h-1.703125v1.625h1.703125v9.5c0 1.296875.875 1.984375 2.4375 1.984375.515625 0 .953125-.046875 1.625-.15625v-1.6875c-.296875.078125-.546875.09375-.96875.09375-.859375 0-1.09375-.234375-1.09375-1.125v-8.609375h2.0625zm0 0"/></symbol><symbol id="z" overflow="visible"><path d="m2.09375-2.5v2.5h1.4375v.4375c0 1.65625-.3125 2.125-1.4375 2.171875v.921875c1.578125.046875 2.515625-1.109375 2.515625-3.140625v-2.890625zm0 0"/></symbol><symbol id="A" overflow="visible"><path d="m1.296875-17.484375v17.484375h1.796875v-1.609375c.953125 1.46875 2.234375 2.15625 3.984375 2.15625 3.3125 0 5.46875-2.703125 5.46875-6.875 0-4.078125-2.046875-6.59375-5.375-6.59375-1.734375 0-2.953125.640625-3.890625 2.0625v-6.625zm5.484375 6.421875c2.234375 0 3.671875 1.953125 3.671875 4.953125 0 2.84375-1.484375 4.796875-3.671875 4.796875-2.125 0-3.5-1.921875-3.5-4.875s1.375-4.875 3.5-4.875zm0 0"/></symbol><symbol id="B" overflow="visible"><path d="m9.3125-12.5625-3.484375 9.78125-3.21875-9.78125h-2.125l4.234375 12.609375-.765625 1.984375c-.328125.890625-.765625 1.234375-1.609375 1.234375-.328125 0-.609375-.046875-1.046875-.140625v1.796875c.40625.203125.8125.3125 1.34375.3125.640625 0 1.34375-.21875 1.875-.609375.609375-.453125.984375-.984375 1.359375-1.984375l5.59375-15.203125zm0 0"/></symbol><symbol id="C" overflow="visible"><path d="m1.65625-12.5625v12.5625h2.015625v-6.53125c.015625-3.015625 1.265625-4.359375 4.03125-4.28125v-2.046875c-.34375-.046875-.53125-.0625-.765625-.0625-1.296875 0-2.28125.765625-3.4375 2.625v-2.265625zm0 0"/></symbol><symbol id="D" overflow="visible"><path d="m6.53125-12.921875c-3.5625 0-5.671875 2.515625-5.671875 6.734375 0 4.25 2.109375 6.734375 5.6875 6.734375 3.546875 0 5.6875-2.515625 5.6875-6.640625 0-4.359375-2.0625-6.828125-5.703125-6.828125zm.015625 1.84375c2.25 0 3.59375 1.84375 3.59375 4.96875 0 2.96875-1.390625 4.8125-3.59375 4.8125-2.234375 0-3.59375-1.84375-3.59375-4.890625s1.359375-4.890625 3.59375-4.890625zm-.796875-6.671875-2.3125 3.59375h1.4375l3.5625-3.59375zm4.171875 0-2.3125 3.59375h1.4375l3.5625-3.59375zm0 0"/></symbol><symbol id="E" overflow="visible"><path d="m3.640625-17.484375h-2.015625v17.484375h2.015625zm0 0"/></symbol><symbol id="F" overflow="visible"><path d="m11.21875 0 4.921875-14.65625v14.65625h2.109375v-17.484375h-3.09375l-5.078125 15.234375-5.1875-15.234375h-3.09375v17.484375h2.109375v-14.65625l4.96875 14.65625zm0 0"/></symbol><symbol id="G" overflow="visible"><path d="m9.6875-12.5625v1.8125c-1-1.5-2.109375-2.171875-3.6875-2.171875-3.046875 0-5.15625 2.828125-5.15625 6.859375 0 2.109375.5 3.640625 1.578125 4.90625.9375 1.109375 2.140625 1.703125 3.4375 1.703125 1.5 0 2.578125-.671875 3.640625-2.25v.640625c0 3.359375-.9375 4.609375-3.4375 4.609375-1.703125 0-2.578125-.671875-2.78125-2.109375h-2.03125c.1875 2.328125 2.03125 3.796875 4.765625 3.796875 1.84375 0 3.390625-.609375 4.203125-1.609375.953125-1.171875 1.3125-2.734375 1.3125-5.6875v-10.5zm-3.5 1.484375c2.109375 0 3.3125 1.765625 3.3125 4.96875 0 3.046875-1.21875 4.8125-3.3125 4.8125-2.0625 0-3.265625-1.796875-3.265625-4.890625 0-3.078125 1.203125-4.890625 3.265625-4.890625zm0 0"/></symbol><symbol id="H" overflow="visible"><path d="m6.828125 0 4.828125-12.5625h-2.25l-3.546875 10.1875-3.359375-10.1875h-2.265625l4.421875 12.5625zm0 0"/></symbol><symbol id="I" overflow="visible"><path d="m12.828125-1.171875c-.21875.046875-.3125.046875-.421875.046875-.703125 0-1.078125-.359375-1.078125-.984375v-7.390625c0-2.234375-1.640625-3.421875-4.734375-3.421875-1.84375 0-3.3125.515625-4.171875 1.453125-.578125.65625-.8125 1.375-.859375 2.625h2.015625c.15625-1.546875 1.078125-2.234375 2.953125-2.234375 1.8125 0 2.796875.671875 2.796875 1.875v.515625c-.015625.875-.453125 1.1875-2.078125 1.390625-2.84375.359375-3.265625.46875-4.03125.765625-1.46875.625-2.21875 1.734375-2.21875 3.359375 0 2.28125 1.59375 3.71875 4.125 3.71875 1.59375 0 2.859375-.546875 4.28125-1.84375.140625 1.296875.765625 1.84375 2.0625 1.84375.421875 0 .6875-.046875 1.359375-.21875zm-3.5-2.78125c0 .671875-.1875 1.078125-.796875 1.625-.8125.75-1.796875 1.125-2.96875 1.125-1.5625 0-2.46875-.734375-2.46875-2.015625 0-1.3125.859375-1.984375 3.015625-2.296875 2.140625-.28125 2.546875-.390625 3.21875-.703125zm-2.03125-13.796875-2.328125 3.546875h1.4375l3.578125-3.546875zm0 0"/></symbol><symbol id="J" overflow="visible"><path d="m6.1875-12.5625h-2.09375v-1.96875c0-.84375.46875-1.28125 1.40625-1.28125.15625 0 .234375 0 .6875.03125v-1.65625c-.453125-.09375-.71875-.125-1.125-.125-1.84375 0-2.953125 1.0625-2.953125 2.859375v2.140625h-1.671875v1.625h1.671875v10.9375h1.984375v-10.9375h2.09375zm0 0"/></symbol><symbol id="K" overflow="visible"><path d="m6.53125-12.921875c-3.5625 0-5.671875 2.515625-5.671875 6.734375 0 4.25 2.109375 6.734375 5.6875 6.734375 3.546875 0 5.6875-2.515625 5.6875-6.640625 0-4.359375-2.0625-6.828125-5.703125-6.828125zm.015625 1.84375c2.25 0 3.59375 1.84375 3.59375 4.96875 0 2.96875-1.390625 4.8125-3.59375 4.8125-2.234375 0-3.59375-1.84375-3.59375-4.890625s1.359375-4.890625 3.59375-4.890625zm-.6875-6.078125h-2.5v2.484375h2.5zm3.875 0h-2.484375v2.484375h2.484375zm0 0"/></symbol><symbol id="L" overflow="visible"><path d="m11.875-17.484375h-2v6.5c-.828125-1.265625-2.171875-1.9375-3.859375-1.9375-3.25 0-5.390625 2.609375-5.390625 6.609375 0 4.25 2.0625 6.859375 5.46875 6.859375 1.71875 0 2.921875-.640625 4-2.203125v1.65625h1.78125zm-5.515625 6.421875c2.15625 0 3.515625 1.90625 3.515625 4.921875 0 2.90625-1.390625 4.828125-3.5 4.828125-2.203125 0-3.671875-1.953125-3.671875-4.875s1.46875-4.875 3.65625-4.875zm0 0"/></symbol><symbol id="M" overflow="visible"><path d="m6.53125-12.921875c-3.5625 0-5.671875 2.515625-5.671875 6.734375 0 4.25 2.109375 6.734375 5.6875 6.734375 3.546875 0 5.6875-2.515625 5.6875-6.640625 0-4.359375-2.0625-6.828125-5.703125-6.828125zm.015625 1.84375c2.25 0 3.59375 1.84375 3.59375 4.96875 0 2.96875-1.390625 4.8125-3.59375 4.8125-2.234375 0-3.59375-1.84375-3.59375-4.890625s1.359375-4.890625 3.59375-4.890625zm.59375-6.671875-2.296875 3.546875h1.4375l3.578125-3.546875zm0 0"/></symbol><symbol id="N" overflow="visible"><path d="m3.375-17.484375h-1.984375v17.484375h1.984375v-4.890625l1.953125-1.921875 4.234375 6.8125h2.484375l-5.140625-8.234375 4.359375-4.328125h-2.5625l-5.328125 5.3125zm0 0"/></symbol><symbol id="O" overflow="visible"><path d="m1.671875-12.5625v14.390625c0 1.234375-.375 1.65625-1.625 1.65625-.140625 0-.21875 0-.484375-.03125v1.703125c.25.046875.359375.078125.671875.078125 2.265625 0 3.4375-.890625 3.4375-2.625v-15.171875zm2-4.921875h-2v2.515625h2zm0 0"/></symbol><symbol id="P" overflow="visible"><path d="m12.828125-1.171875c-.21875.046875-.3125.046875-.421875.046875-.703125 0-1.078125-.359375-1.078125-.984375v-7.390625c0-2.234375-1.640625-3.421875-4.734375-3.421875-1.84375 0-3.3125.515625-4.171875 1.453125-.578125.65625-.8125 1.375-.859375 2.625h2.015625c.15625-1.546875 1.078125-2.234375 2.953125-2.234375 1.8125 0 2.796875.671875 2.796875 1.875v.515625c-.015625.875-.453125 1.1875-2.078125 1.390625-2.84375.359375-3.265625.46875-4.03125.765625-1.46875.625-2.21875 1.734375-2.21875 3.359375 0 2.28125 1.59375 3.71875 4.125 3.71875 1.59375 0 2.859375-.546875 4.28125-1.84375.140625 1.296875.765625 1.84375 2.0625 1.84375.421875 0 .6875-.046875 1.359375-.21875zm-3.5-2.78125c0 .671875-.1875 1.078125-.796875 1.625-.8125.75-1.796875 1.125-2.96875 1.125-1.5625 0-2.46875-.734375-2.46875-2.015625 0-1.3125.859375-1.984375 3.015625-2.296875 2.140625-.28125 2.546875-.390625 3.21875-.703125zm0 0"/></symbol><symbol id="Q" overflow="visible"><path d="m13.21875-7.96875v7.96875h2.234375v-17.484375h-2.234375v7.5625h-9v-7.5625h-2.234375v17.484375h2.234375v-7.96875zm0 0"/></symbol><symbol id="R" overflow="visible"><path d="m11.5625 0v-12.5625h-2v7.125c0 2.5625-1.328125 4.234375-3.421875 4.234375-1.578125 0-2.59375-.953125-2.59375-2.46875v-8.890625h-1.984375v9.6875c0 2.078125 1.5625 3.421875 4 3.421875 1.84375 0 3.03125-.640625 4.203125-2.296875v1.75zm0 0"/></symbol><symbol id="S" overflow="visible"><path d="m4.578125-2.5h-2.484375v2.5h2.484375zm0 0"/></symbol><symbol id="T" overflow="visible"><path d="m6.53125-12.921875c-3.5625 0-5.671875 2.515625-5.671875 6.734375 0 4.25 2.109375 6.734375 5.6875 6.734375 3.546875 0 5.6875-2.515625 5.6875-6.640625 0-4.359375-2.0625-6.828125-5.703125-6.828125zm.015625 1.84375c2.25 0 3.59375 1.84375 3.59375 4.96875 0 2.96875-1.390625 4.8125-3.59375 4.8125-2.234375 0-3.59375-1.84375-3.59375-4.890625s1.359375-4.890625 3.59375-4.890625zm0 0"/></symbol><symbol id="U" overflow="visible"><path d="m11.5625 0v-12.5625h-2v7.125c0 2.5625-1.328125 4.234375-3.421875 4.234375-1.578125 0-2.59375-.953125-2.59375-2.46875v-8.890625h-1.984375v9.6875c0 2.078125 1.5625 3.421875 4 3.421875 1.84375 0 3.03125-.640625 4.203125-2.296875v1.75zm-5.6875-17.15625h-2.5v2.484375h2.5zm3.890625 0h-2.5v2.484375h2.5zm0 0"/></symbol><symbol id="V" overflow="visible"><path d="m10.5-9.0625c-.015625-2.46875-1.65625-3.859375-4.546875-3.859375-2.9375 0-4.828125 1.5-4.828125 3.828125 0 1.96875 1.015625 2.90625 3.984375 3.625l1.875.453125c1.390625.34375 1.9375.84375 1.9375 1.734375 0 1.1875-1.171875 1.984375-2.921875 1.984375-1.078125 0-2-.3125-2.5-.84375-.3125-.359375-.453125-.71875-.578125-1.59375h-2.109375c.09375 2.890625 1.734375 4.28125 5.015625 4.28125 3.171875 0 5.1875-1.546875 5.1875-3.984375 0-1.859375-1.0625-2.890625-3.5625-3.5l-1.90625-.453125c-1.640625-.375-2.328125-.90625-2.328125-1.796875 0-1.171875 1.03125-1.890625 2.65625-1.890625 1.609375 0 2.46875.6875 2.515625 2.015625zm0 0"/></symbol><symbol id="W" overflow="visible"><path d="m10.625-12.5625h-9.375v1.75h7l-7.5 9.015625v1.796875h10.203125v-1.75h-7.78125l7.453125-9.046875zm0 0"/></symbol><symbol id="X" overflow="visible"><path d="m4.25-12.5625h-2v12.5625h2zm-.390625-5.1875-2.296875 3.546875h1.4375l3.578125-3.546875zm0 0"/></symbol><symbol id="Y" overflow="visible"><path d="m12.296875-5.609375c0-1.921875-.140625-3.078125-.5-4.015625-.8125-2.0625-2.734375-3.296875-5.078125-3.296875-3.5 0-5.765625 2.65625-5.765625 6.8125 0 4.140625 2.171875 6.65625 5.71875 6.65625 2.875 0 4.859375-1.625 5.375-4.359375h-2.015625c-.5625 1.65625-1.6875 2.515625-3.296875 2.515625-1.265625 0-2.34375-.578125-3.015625-1.625-.484375-.71875-.65625-1.4375-.671875-2.6875zm-9.203125-1.640625c.171875-2.3125 1.578125-3.828125 3.59375-3.828125 2.046875 0 3.453125 1.578125 3.453125 3.828125zm4.296875-10.5-2.3125 3.546875h1.453125l3.5625-3.546875zm0 0"/></symbol><symbol id="Z" overflow="visible"><path d="m4.984375-17.484375h-1.984375v8.109375l.53125 5.34375h.9375l.515625-5.34375zm0 14.984375h-2.015625v2.5h2.015625zm0 0"/></symbol><symbol id="aa" overflow="visible"><path d="m12.28125-2.609375c0 .390625-.125.828125-.390625 1.125-.8125.984375-2.6875 2.1875-4.15625 3.109375-1.484375.9375-3.34375 2.1875-4.546875 2.53125-.15625.046875-.34375.078125-.5.078125-.859375 0-1.640625-.65625-1.640625-1.625 0-.390625.125-.828125.390625-1.125.8125-.984375 2.6875-2.1875 4.15625-3.109375 1.484375-.9375 3.34375-2.1875 4.546875-2.53125.15625-.046875.34375-.078125.5-.078125.859375 0 1.640625.65625 1.640625 1.625zm-1.984375-2.640625c-2.90625 0-5.28125.625-7.34375 2.03125-1.25.84375-2.0625 2.171875-2.53125 3.609375-.234375.703125-.421875 1.46875-.421875 2.21875 0 1.828125 1.328125 2.640625 3.03125 2.640625 2.921875 0 5.28125-.625 7.34375-2.03125 1.25-.84375 2.0625-2.171875 2.53125-3.609375.234375-.703125.421875-1.46875.421875-2.21875 0-1.828125-1.328125-2.640625-3.03125-2.640625zm0 0"/></symbol><symbol id="ab" overflow="visible"><path d="m-.265625-14.578125.265625 22.34375c0 .359375.3125.671875.65625.671875.046875 0 .046875-.046875.078125-.046875l4.234375-.703125-.078125 6.890625c.28125.15625.625.234375.9375.234375s.65625-.078125.9375-.234375l-.28125-22.34375c0-.359375-.3125-.671875-.65625-.671875-.03125 0-.078125.046875-.109375.046875l-4.234375.703125.0625-6.890625c-.265625-.15625-.578125-.234375-.890625-.234375s-.65625.078125-.921875.234375zm5.390625 10.140625-.078125 8.28125-3.71875.59375.109375-8.28125zm0 0"/></symbol><symbol id="ac" overflow="visible"><path d="m8.625-5.25c-1.625 0-3.1875.546875-4.578125 1.40625-1.828125 1.078125-4.046875 2.984375-4.046875 5.75 0 2.296875 2.015625 3.34375 4.078125 3.34375 1.640625 0 3.1875-.546875 4.59375-1.40625 1.8125-1.078125 4-2.984375 4-5.75 0-2.296875-1.984375-3.34375-4.046875-3.34375zm0 0"/></symbol><symbol id="ad" overflow="visible"><path d="m.96875-1.703125c.046875-1.28125.890625-2.421875 2.09375-2.421875 1.171875 0 1.71875 1.359375 1.71875 2.6875 0 2.296875-1.9375 3.921875-3.734375 5.40625-.078125-.859375-.15625-1.71875-.15625-2.5625 0-.15625.046875-.28125.046875-.4375zm-1.9375-16.28125.421875 23.265625c0 .46875.359375.8125.8125.8125.703125 0 1.015625-.8125 1.5625-1.234375 2.453125-1.984375 5.9375-3.375 5.9375-6.5625 0-2.109375-1.546875-3.890625-3.609375-3.890625-1.234375 0-2.40625.421875-3.421875 1.15625l.234375-13.546875c-.3125-.15625-.625-.28125-.96875-.28125s-.65625.125-.96875.28125zm0 0"/></symbol><symbol id="ae" overflow="visible"><path d="m14.53125-10.109375c-.625-2.71875-1.359375-5.390625-2.140625-8.078125 3.734375-4.234375 7.109375-8.59375 7.109375-14.1875 0-4.390625-2.40625-10.6875-5.125-13.953125-.1875-.140625-.421875-.140625-.625 0-3.6875 2.6875-5.828125 6.96875-5.828125 11.46875 0 2.015625.046875 4 .28125 5.984375.265625 2.53125.921875 4.96875 1.625 7.421875-4.578125 5.203125-9.75 10.1875-9.75 17.09375 0 7.8125 5.640625 14.46875 12.9375 14.46875 1.203125 0 2.328125-.125 3.453125-.3125.125 1.234375.203125 2.484375.203125 3.71875 0 .703125-.046875 1.375-.078125 2.0625-.234375 3.84375-2.609375 7.390625-6.21875 7.46875-.03125 0-.078125.03125-.109375.03125-1.984375 0-3.703125-1.125-4.703125-2.71875.421875.203125.890625.359375 1.359375.359375 2.015625 0 3.6875-1.671875 3.6875-3.703125 0-2.171875-1.59375-4.03125-3.6875-4.03125-2.296875 0-4.359375 1.78125-4.359375 4.03125 0 4.203125 3.390625 7.578125 7.578125 7.578125 4.59375 0 7.734375-4.109375 8-8.78125.046875-.734375.046875-1.4375.046875-2.171875 0-1.40625-.078125-2.796875-.203125-4.203125 1.015625-.3125 1.984375-.765625 2.84375-1.4375 2.875-2.125 4.15625-5.125 4.15625-8.078125 0-5.125-3.890625-10.0625-9.875-10.0625-.1875 0-.375.03125-.578125.03125zm3.3125 18.078125c-.546875-4.828125-1.4375-9.40625-2.421875-13.953125 4.28125.34375 6.96875 3.921875 6.96875 7.5 0 2.71875-1.875 5.515625-4.546875 6.453125zm-15.078125-9.171875c0-6.21875 4.1875-10.921875 8.390625-15.625.625 2.296875 1.234375 4.59375 1.78125 6.921875-3.921875.890625-6.140625 4.1875-6.140625 7.609375 0 2.71875 1.40625 5.484375 4.515625 7.15625.109375.03125.234375.078125.34375.078125.421875 0 .78125-.390625.78125-.8125 0-.203125-.125-.390625-.28125-.546875-2.171875-1.25-3.1875-3.109375-3.1875-4.828125 0-2.28125 1.796875-4.34375 4.859375-4.703125 1.015625 4.671875 1.90625 9.296875 2.5 14.265625-1.0625.15625-2.109375.234375-3.1875.234375-5.296875 0-10.375-4.46875-10.375-9.75zm13.203125-39.59375c.65625 2.046875.8125 3.0625.8125 5.3125 0 4.9375-2.59375 8.859375-5.78125 12.640625-.703125-2.453125-1.28125-4.828125-1.28125-7.78125 0-4.3125 2.40625-8.234375 6.25-10.171875zm0 0"/></symbol><symbol id="af" overflow="visible"><path d="m0 0v-9.71875h-.546875v9.71875zm0 0c0-7.890625 10.375-11.890625 10.375-19.78125 0-2.40625-.578125-4.78125-1.546875-6.953125-.15625-.265625-.4375-.390625-.703125-.390625-.46875 0-.9375.390625-.8125.96875.96875 2.03125 1.546875 4.15625 1.546875 6.375 0 4.359375-5.046875 7.8125-8.859375 10.0625zm0 0"/></symbol><symbol id="ag" overflow="visible"><path d="m-.890625 4.390625c0 2.09375 1.828125 5.796875 3.609375 7.921875.234375.28125.625-.078125.390625-.34375-.65625-.8125-1.09375-2.375-1.09375-3.734375 0-1.59375.46875-2.71875 2.03125-2.71875 1.390625 0 3.21875.8125 3.953125 1.671875.125.15625.28125.203125.390625.203125.28125 0 .546875-.28125.546875-.546875 0-.125-.03125-.203125-.109375-.3125l-3.390625-4.046875c-.625-.78125-.9375-1.671875-.9375-2.59375 0-1.21875.515625-2.453125 1.515625-3.3125 1.453125-1.234375 3.34375-2.453125 3.34375-3.734375 0-.3125-.109375-.65625-.390625-.96875l-5.90625-7.0625c-.109375-.15625-.265625-.203125-.375-.203125-.28125 0-.546875.28125-.546875.546875 0 .109375.03125.234375.109375.34375l1.515625 1.796875c.625.765625.9375 1.671875.9375 2.59375 0 1.203125-.5 2.453125-1.515625 3.3125-1.4375 1.234375-3.34375 2.4375-3.34375 3.734375 0 .296875.125.65625.390625.96875l5.328125 6.375c-1.75-.859375-3.734375-1.4375-5.0625-1.4375-1 0-1.390625.53125-1.390625 1.546875zm0 0"/></symbol><symbol id="ah" overflow="visible"><path d="m0 0c0 1.25.96875 2.21875 2.21875 2.21875 1.234375 0 2.21875-.96875 2.21875-2.21875s-.984375-2.21875-2.21875-2.21875c-1.25 0-2.21875.96875-2.21875 2.21875zm0 0"/></symbol><symbol id="ai" overflow="visible"><path d="m5.09375-10.453125v10.453125h2.984375v-15.15625h-1.984375c-.46875 1.796875-2.03125 2.71875-4.640625 2.71875v1.984375zm0 0"/></symbol><symbol id="aj" overflow="visible"><path d="m4.578125-3.125h-3.203125v3.125h3.203125zm0 0"/></symbol><symbol id="ak" overflow="visible"><path d="m6.453125-9.90625c2.25 0 2.484375 1.9375 2.484375 4.546875 0 2.59375-.234375 4.546875-2.484375 4.546875-2.171875 0-2.21875-1.984375-2.21875-4.546875s.046875-4.546875 2.21875-4.546875zm-2.21875-.3125c0-.859375-.03125-1.671875-.03125-2.53125 0-3.109375.296875-5.859375 3.03125-5.859375.84375 0 1.734375.421875 1.734375 1.203125 0 .890625-1.5 1-1.5 1.90625 0 1.390625 1.125 2.515625 2.515625 2.515625 1.40625 0 2.53125-1.125 2.53125-2.515625 0-2.453125-2.609375-3.921875-5.28125-3.921875-4.546875 0-7.234375 4.734375-7.234375 9.703125 0 4.859375 2.140625 9.71875 6.453125 9.71875 3.84375 0 6.484375-1.75 6.484375-5.359375s-2.640625-5.40625-6.484375-5.40625c-.78125 0-1.484375.28125-2.21875.546875zm0 0"/></symbol><symbol id="al" overflow="visible"><path d="m8.078125-12.390625c-.234375.15625-.3125.453125-.3125.765625v5.71875h-6.71875l11-12.9375c.234375-.28125-.109375-.734375-.578125-.578125-.859375.265625-1.71875.5-2.609375.5s-1.75-.234375-2.609375-.5c-.296875-.125-.578125.1875-.578125.578125 0 4.859375-2.53125 9.203125-5.671875 12.9375-.03125.03125-.078125.15625-.078125.234375 0 .3125.3125.8125 1.125.8125h6.71875v.625c0 1.75-1 3.421875-2.640625 3.421875-.265625 0-.390625.1875-.390625.390625 0 .1875.125.421875.390625.421875 1.59375 0 3.1875-.5 4.78125-.5s3.1875.5 4.78125.5c.265625 0 .390625-.234375.390625-.421875 0-.203125-.125-.390625-.390625-.390625-1.625 0-2.640625-1.671875-2.640625-3.421875v-.625h2.640625c.34375 0 .5-.234375.5-.5 0-.28125-.15625-.546875-.5-.546875h-2.640625v-9.953125c0-.546875-.625-.609375-.78125-.265625-.265625.65625-.546875 1.3125-.96875 1.90625-.578125.765625-1.390625 1.3125-2.21875 1.828125zm0 0"/></symbol><path d="m2699.101562 4191.423437v388.554688" fill="none" stroke="#000" stroke-miterlimit="10" stroke-width="12.5499" transform="matrix(.1 0 0 -.1 0 484.99)"/><path d="m5247.34375 4191.423437v388.554688" fill="none" stroke="#000" stroke-miterlimit="10" stroke-width="12.5499" transform="matrix(.1 0 0 -.1 0 484.99)"/><g clip-path="url(#a)"><path d="m3.28125 4191.423437h5946.171875" fill="none" stroke="#000" stroke-linecap="round" stroke-miterlimit="10" stroke-width="6.60523" transform="matrix(.1 0 0 -.1 0 484.99)"/></g><g clip-path="url(#b)"><path d="m3.28125 4288.532812h5946.171875" fill="none" stroke="#000" stroke-linecap="round" stroke-miterlimit="10" stroke-width="6.60523" transform="matrix(.1 0 0 -.1 0 484.99)"/></g><g clip-path="url(#c)"><path d="m3.28125 4385.68125h5946.171875" fill="none" stroke="#000" stroke-linecap="round" stroke-miterlimit="10" stroke-width="6.60523" transform="matrix(.1 0 0 -.1 0 484.99)"/></g><g clip-path="url(#d)"><path d="m3.28125 4482.829687h5946.171875" fill="none" stroke="#000" stroke-linecap="round" stroke-miterlimit="10" stroke-width="6.60523" transform="matrix(.1 0 0 -.1 0 484.99)"/></g><g clip-path="url(#e)"><path d="m3.28125 4579.978125h5946.171875" fill="none" stroke="#000" stroke-linecap="round" stroke-miterlimit="10" stroke-width="6.60523" transform="matrix(.1 0 0 -.1 0 484.99)"/></g><path d="m939.257812 4094.275h173.945313" fill="none" stroke="#000" stroke-linecap="round" stroke-miterlimit="10" stroke-width="16.3188" transform="matrix(.1 0 0 -.1 0 484.99)"/><use x="509.8" xlink:href="#v" y="103.141"/><use x="529.699212" xlink:href="#w" y="103.141"/><use x="542.965198" xlink:href="#x" y="103.141"/><use x="556.230793" xlink:href="#y" y="103.141"/><use x="562.523357" xlink:href="#z" y="103.141"/><use x="532.8152" xlink:href="#aa" y="41.564"/><use x="458.2957" xlink:href="#ab" y="46.42064"/><path d="m4686.5625 4063.884375h4.609375v300.703125h-4.609375zm0 0" fill="none" stroke="#000" stroke-linejoin="round" stroke-miterlimit="10" stroke-width="3.98257" transform="matrix(.1 0 0 -.1 0 484.99)"/><path d="m468.65625 78.601562h.457031v-30.070312h-.457031zm0 0"/><use x="461.533" xlink:href="#A" y="103.141"/><use x="474.798596" xlink:href="#w" y="103.141"/><use x="468.45683" xlink:href="#ac" y="46.4207"/><path d="m5330.15625 4096.267187h4.609375v309.921875h-4.609375zm0 0" fill="none" stroke="#000" stroke-linejoin="round" stroke-miterlimit="10" stroke-width="3.98257" transform="matrix(.1 0 0 -.1 0 484.99)"/><path d="m533.015625 75.363281h.460937v-30.992187h-.460937zm0 0"/><path d="m4162.773438 4365.173437h4.609374v309.921875h-4.609374zm0 0" fill="none" stroke="#000" stroke-linejoin="round" stroke-miterlimit="10" stroke-width="3.98257" transform="matrix(.1 0 0 -.1 0 484.99)"/><path d="m416.277344 48.472656h.460937v-30.992187h-.460937zm0 0"/><use x="374.557" xlink:href="#v" y="103.141"/><use x="394.456187" xlink:href="#w" y="103.141"/><use x="407.721807" xlink:href="#x" y="103.141"/><use x="420.987793" xlink:href="#x" y="103.141"/><use x="433.913545" xlink:href="#B" y="103.141"/><use x="403.6101" xlink:href="#aa" y="51.2773"/><path d="m3515.195312 4309.665625h4.570313v316.875h-4.570313zm0 0" fill="none" stroke="#000" stroke-linejoin="round" stroke-miterlimit="10" stroke-width="3.98257" transform="matrix(.1 0 0 -.1 0 484.99)"/><path d="m351.519531 54.023438h.457031v-31.6875h-.457031zm0 0"/><use x="332.654" xlink:href="#C" y="103.141"/><use x="340.477418" xlink:href="#D" y="103.141"/><use x="353.743038" xlink:href="#E" y="103.141"/><use x="339.49345" xlink:href="#ac" y="56.1344"/><path d="m1322.578125 3884.275h58.828125v3.28125h-58.828125zm0 0" fill="none" stroke="#000" stroke-linejoin="round" stroke-miterlimit="10" stroke-width="5.28418" transform="matrix(.1 0 0 -.1 0 484.99)"/><path d="m132.257812 96.5625h5.882813v-.328125h-5.882813zm0 0"/><path d="m1812.96875 3884.275h58.828125v3.28125h-58.828125zm0 0" fill="none" stroke="#000" stroke-linejoin="round" stroke-miterlimit="10" stroke-width="5.28418" transform="matrix(.1 0 0 -.1 0 484.99)"/><path d="m181.296875 96.5625h5.882813v-.328125h-5.882813zm0 0"/><path d="m3148.007812 3884.275h58.828126v3.28125h-58.828126zm0 0" fill="none" stroke="#000" stroke-linejoin="round" stroke-miterlimit="10" stroke-width="5.28418" transform="matrix(.1 0 0 -.1 0 484.99)"/><path d="m314.800781 96.5625h5.882813v-.328125h-5.882813zm0 0"/><path d="m4508.203125 3884.275h58.828125v3.28125h-58.828125zm0 0" fill="none" stroke="#000" stroke-linejoin="round" stroke-miterlimit="10" stroke-width="5.28418" transform="matrix(.1 0 0 -.1 0 484.99)"/><path d="m450.820312 96.5625h5.882813v-.328125h-5.882813zm0 0"/><use x="79.323" xlink:href="#F" y="103.141"/><use x="99.222193" xlink:href="#w" y="103.141"/><use x="112.658113" xlink:href="#G" y="103.141"/><use x="144.474862" xlink:href="#H" y="103.141"/><use x="156.039694" xlink:href="#I" y="103.141"/><use x="169.305302" xlink:href="#E" y="103.141"/><path d="m1083.046875 4115.36875h4.609375v316.875h-4.609375zm0 0" fill="none" stroke="#000" stroke-linejoin="round" stroke-miterlimit="10" stroke-width="3.98257" transform="matrix(.1 0 0 -.1 0 484.99)"/><path d="m108.304688 73.453125h.460937v-31.6875h-.460937zm0 0"/><use x="51.7512" xlink:href="#ai" y="103.141"/><use x="63.657076" xlink:href="#aj" y="103.141"/><use x="153.1852" xlink:href="#ac" y="70.7047"/><use x="62.8235" xlink:href="#ak" y="46.4207"/><use x="61.71725" xlink:href="#al" y="66.0023"/><use x="42.77585" xlink:href="#ad" y="46.4207"/><use x="7.77075" xlink:href="#ae" y="56.13437"/><use x="96.28205" xlink:href="#ac" y="75.56137"/><path d="m2896.992188 4268.064062h4.609374v309.921875h-4.609374zm0 0" fill="none" stroke="#000" stroke-linejoin="round" stroke-miterlimit="10" stroke-width="3.98257" transform="matrix(.1 0 0 -.1 0 484.99)"/><path d="m289.699219 58.183594h.460937v-30.992188h-.460937zm0 0"/><use x="264.563" xlink:href="#J" y="103.141"/><use x="271.026267" xlink:href="#K" y="103.141"/><use x="284.292277" xlink:href="#E" y="103.141"/><use x="289.564546" xlink:href="#L" y="103.141"/><use x="277.0333" xlink:href="#aa" y="60.991"/><path d="m1652.109375 4163.9625h4.570313v316.875h-4.570313zm0 0" fill="none" stroke="#000" stroke-linejoin="round" stroke-miterlimit="10" stroke-width="3.98257" transform="matrix(.1 0 0 -.1 0 484.99)"/><path d="m165.210938 68.59375h.457031v-31.6875h-.457031zm0 0"/><use x="210.088" xlink:href="#ac" y="65.848"/><use x="193.8942" xlink:href="#y" y="103.1414"/><use x="200.357869" xlink:href="#M" y="103.1414"/><use x="213.62349" xlink:href="#x" y="103.1414"/><use x="226.8895" xlink:href="#N" y="103.1414"/><path d="m2221.132812 4212.517187h4.609376v316.875h-4.609376zm0 0" fill="none" stroke="#000" stroke-linejoin="round" stroke-miterlimit="10" stroke-width="3.98257" transform="matrix(.1 0 0 -.1 0 484.99)"/><path d="m222.113281 63.738281h.460938v-31.6875h-.460938zm0 0"/><g clip-path="url(#f)"><path d="m3.28125 3025.798437h5946.171875" style="fill:none;stroke-width:6.60523;stroke-linecap:round;stroke-linejoin:round;stroke:#000;stroke-miterlimit:10" transform="matrix(.1 0 0 -.1 0 484.99)"/></g><g clip-path="url(#g)"><path d="m3.28125 3122.946875h5946.171875" style="fill:none;stroke-width:6.60523;stroke-linecap:round;stroke-linejoin:round;stroke:#000;stroke-miterlimit:10" transform="matrix(.1 0 0 -.1 0 484.99)"/></g><g clip-path="url(#h)"><path d="m3.28125 3220.05625h5946.171875" style="fill:none;stroke-width:6.60523;stroke-linecap:round;stroke-linejoin:round;stroke:#000;stroke-miterlimit:10" transform="matrix(.1 0 0 -.1 0 484.99)"/></g><g clip-path="url(#i)"><path d="m3.28125 3317.204687h5946.171875" style="fill:none;stroke-width:6.60523;stroke-linecap:round;stroke-linejoin:round;stroke:#000;stroke-miterlimit:10" transform="matrix(.1 0 0 -.1 0 484.99)"/></g><g clip-path="url(#j)"><path d="m3.28125 3414.314062h5946.171875" style="fill:none;stroke-width:6.60523;stroke-linecap:round;stroke-linejoin:round;stroke:#000;stroke-miterlimit:10" transform="matrix(.1 0 0 -.1 0 484.99)"/></g><path d="m4116.328125 3025.798437v388.515625" fill="none" stroke="#000" stroke-linejoin="round" stroke-miterlimit="10" stroke-width="12.5499" transform="matrix(.1 0 0 -.1 0 484.99)"/><use x="333.931" xlink:href="#ac" y="158.127"/><path d="m3341.289062 2930.642187h4.609376v316.875h-4.609376zm0 0" fill="none" stroke="#000" stroke-linejoin="round" stroke-miterlimit="10" stroke-width="3.98257" transform="matrix(.1 0 0 -.1 0 484.99)"/><path d="m334.128906 191.925781h.460938v-31.6875h-.460938zm0 0"/><path d="m4324.648438 3199.548437h4.609374v309.921875h-4.609374zm0 0" fill="none" stroke="#000" stroke-linejoin="round" stroke-miterlimit="10" stroke-width="3.98257" transform="matrix(.1 0 0 -.1 0 484.99)"/><path d="m432.464844 165.035156h.460937v-30.992187h-.460937zm0 0"/><path d="m1241.132812 2738.610937h58.828126v3.28125h-58.828126zm0 0" fill="none" stroke="#000" stroke-linejoin="round" stroke-miterlimit="10" stroke-width="5.28418" transform="matrix(.1 0 0 -.1 0 484.99)"/><path d="m124.113281 211.128906h5.882813v-.328125h-5.882813zm0 0"/><use x="413.961" xlink:href="#O" y="217.707"/><use x="419.233269" xlink:href="#P" y="217.707"/><use x="432.329334" xlink:href="#z" y="217.707"/><use x="419.79772" xlink:href="#aa" y="167.8402"/><use x="334.78952" xlink:href="#af" y="191.9254"/><path d="m2064.0625 2738.610937h58.828125v3.28125h-58.828125zm0 0" fill="none" stroke="#000" stroke-linejoin="round" stroke-miterlimit="10" stroke-width="5.28418" transform="matrix(.1 0 0 -.1 0 484.99)"/><path d="m206.40625 211.128906h5.882812v-.328125h-5.882812zm0 0"/><path d="m2502.851562 3335.564062c160.78125 142.1875 727.226563 163.632813 898.28125 33.984375-170.78125 121.71875-737.1875 100.273438-898.28125-33.984375zm0 0" style="fill:none;stroke-width:5.28305;stroke-linecap:round;stroke-linejoin:round;stroke:#000;stroke-miterlimit:10" transform="matrix(.1 0 0 -.1 0 484.99)"/><path d="m250.285156 151.433594c16.078125-14.21875 72.722656-16.363282 89.828125-3.398438-17.078125-12.171875-73.71875-10.027344-89.828125 3.398438"/><path d="m3839.257812 2738.610937h58.828126v3.28125h-58.828126zm0 0" fill="none" stroke="#000" stroke-linejoin="round" stroke-miterlimit="10" stroke-width="5.28418" transform="matrix(.1 0 0 -.1 0 484.99)"/><path d="m383.925781 211.128906h5.882813v-.328125h-5.882813zm0 0"/><path d="m2867.890625 2738.610937h58.828125v3.28125h-58.828125zm0 0" fill="none" stroke="#000" stroke-linejoin="round" stroke-miterlimit="10" stroke-width="5.28418" transform="matrix(.1 0 0 -.1 0 484.99)"/><path d="m286.789062 211.128906h5.882813v-.328125h-5.882813zm0 0"/><use x="513.611" xlink:href="#ag" y="162.984"/><path d="m740.585938 2979.196875h4.609374v316.875h-4.609374zm0 0" fill="none" stroke="#000" stroke-linejoin="round" stroke-miterlimit="10" stroke-width="3.98257" transform="matrix(.1 0 0 -.1 0 484.99)"/><path d="m74.058594 187.070312h.460937v-31.6875h-.460937zm0 0"/><use x="73.859" xlink:href="#ac" y="153.27"/><use x="42.7758" xlink:href="#ad" y="162.98367"/><use x="7.7707" xlink:href="#ae" y="172.69734"/><use x="62.3437" xlink:href="#Q" y="217.70714"/><use x="79.521023" xlink:href="#P" y="217.70714"/><use x="92.787021" xlink:href="#E" y="217.70714"/><path d="m2443.007812 2898.259375h4.609376v300.703125h-4.609376zm0 0" fill="none" stroke="#000" stroke-linejoin="round" stroke-miterlimit="10" stroke-width="3.98257" transform="matrix(.1 0 0 -.1 0 484.99)"/><path d="m244.300781 195.164062h.460938v-30.070312h-.460938zm0 0"/><use x="261.222" xlink:href="#ah" y="158.127"/><use x="244.1017" xlink:href="#E" y="217.7071"/><use x="249.374359" xlink:href="#R" y="217.7071"/><use x="244.1017" xlink:href="#ac" y="162.9837"/><path d="m1591.796875 2930.642187h4.609375v316.875h-4.609375zm0 0" fill="none" stroke="#000" stroke-linejoin="round" stroke-miterlimit="10" stroke-width="3.98257" transform="matrix(.1 0 0 -.1 0 484.99)"/><path d="m159.179688 191.925781h.460937v-31.6875h-.460937zm0 0"/><use x="156.054" xlink:href="#E" y="217.707"/><use x="161.326256" xlink:href="#w" y="217.707"/><use x="158.98173" xlink:href="#ac" y="158.1269"/><g clip-path="url(#k)"><path d="m3.28125 1860.173437h5946.171875" style="fill:none;stroke-width:6.60523;stroke-linecap:round;stroke-linejoin:round;stroke:#000;stroke-miterlimit:10" transform="matrix(.1 0 0 -.1 0 484.99)"/></g><g clip-path="url(#l)"><path d="m3.28125 1957.282812h5946.171875" style="fill:none;stroke-width:6.60523;stroke-linecap:round;stroke-linejoin:round;stroke:#000;stroke-miterlimit:10" transform="matrix(.1 0 0 -.1 0 484.99)"/></g><g clip-path="url(#m)"><path d="m3.28125 2054.43125h5946.171875" style="fill:none;stroke-width:6.60523;stroke-linecap:round;stroke-linejoin:round;stroke:#000;stroke-miterlimit:10" transform="matrix(.1 0 0 -.1 0 484.99)"/></g><g clip-path="url(#n)"><path d="m3.28125 2151.579687h5946.171875" style="fill:none;stroke-width:6.60523;stroke-linecap:round;stroke-linejoin:round;stroke:#000;stroke-miterlimit:10" transform="matrix(.1 0 0 -.1 0 484.99)"/></g><g clip-path="url(#o)"><path d="m3.28125 2248.689062h5946.171875" style="fill:none;stroke-width:6.60523;stroke-linecap:round;stroke-linejoin:round;stroke:#000;stroke-miterlimit:10" transform="matrix(.1 0 0 -.1 0 484.99)"/></g><g fill="none" stroke="#000" stroke-linejoin="round" stroke-miterlimit="10" transform="matrix(.1 0 0 -.1 0 484.99)"><path d="m2572.304688 1860.173437v388.515625" stroke-width="12.5499"/><path d="m5215.117188 1860.173437v388.515625" stroke-width="12.5499"/><path d="m5414.375 1839.665625h4.609375v309.921875h-4.609375zm0 0" stroke-width="3.98257"/></g><path d="m541.4375 301.023438h.457031v-30.992188h-.457031zm0 0"/><use x="512.556" xlink:href="#J" y="332.971"/><use x="518.848172" xlink:href="#w" y="332.971"/><use x="532.114158" xlink:href="#x" y="332.971"/><use x="545.380145" xlink:href="#y" y="332.971"/><use x="551.672317" xlink:href="#S" y="332.971"/><use x="528.7677" xlink:href="#aa" y="303.8304"/><path d="m4700.703125 1881.267187h4.609375v316.875h-4.609375zm0 0" fill="none" stroke="#000" stroke-linejoin="round" stroke-miterlimit="10" stroke-width="3.98257" transform="matrix(.1 0 0 -.1 0 484.99)"/><path d="m470.070312 296.863281h.460938v-31.6875h-.460938zm0 0"/><use x="450.952" xlink:href="#T" y="332.971"/><use x="464.048065" xlink:href="#y" y="332.971"/><use x="471.191411" xlink:href="#y" y="332.971"/><use x="458.04692" xlink:href="#ac" y="298.9737"/><path d="m4042.070312 1936.775h4.609376v309.921875h-4.609376zm0 0" fill="none" stroke="#000" stroke-linejoin="round" stroke-miterlimit="10" stroke-width="3.98257" transform="matrix(.1 0 0 -.1 0 484.99)"/><path d="m404.207031 291.3125h.460938v-30.992188h-.460938zm0 0"/><use x="372.946" xlink:href="#N" y="332.971"/><use x="384.852238" xlink:href="#U" y="332.971"/><use x="398.117859" xlink:href="#x" y="332.971"/><use x="411.383845" xlink:href="#N" y="332.971"/><use x="391.539" xlink:href="#aa" y="294.1167"/><path d="m1060.898438 1585.954687h58.789062v3.320313h-58.789062zm0 0" fill="none" stroke="#000" stroke-linejoin="round" stroke-miterlimit="10" stroke-width="5.28418" transform="matrix(.1 0 0 -.1 0 484.99)"/><path d="m106.089844 326.394531h5.878906v-.332031h-5.878906zm0 0"/><path d="m3430.195312 1978.376562h4.570313v316.875h-4.570313zm0 0" fill="none" stroke="#000" stroke-linejoin="round" stroke-miterlimit="10" stroke-width="3.98257" transform="matrix(.1 0 0 -.1 0 484.99)"/><path d="m343.015625 287.152344h.460937v-31.6875h-.460937zm0 0"/><use x="324.068" xlink:href="#x" y="332.971"/><use x="337.334011" xlink:href="#w" y="332.971"/><use x="330.993" xlink:href="#ac" y="289.2601"/><path d="m3588.320312 1585.954687h58.828126v3.320313h-58.828126zm0 0" fill="none" stroke="#000" stroke-linejoin="round" stroke-miterlimit="10" stroke-width="5.28418" transform="matrix(.1 0 0 -.1 0 484.99)"/><path d="m358.832031 326.394531h5.882813v-.332031h-5.882813zm0 0"/><path d="m2297.539062 1585.954687h58.828126v3.320313h-58.828126zm0 0" fill="none" stroke="#000" stroke-linejoin="round" stroke-miterlimit="10" stroke-width="5.28418" transform="matrix(.1 0 0 -.1 0 484.99)"/><path d="m229.753906 326.394531h5.882813v-.332031h-5.882813zm0 0"/><use x="122.549" xlink:href="#E" y="332.971"/><use x="127.821647" xlink:href="#B" y="332.971"/><use x="139.216559" xlink:href="#w" y="332.971"/><use x="152.312636" xlink:href="#y" y="332.971"/><use x="134.4056" xlink:href="#ac" y="279.5464"/><path d="m740.585938 1765.017187h4.609374v316.875h-4.609374zm0 0" fill="none" stroke="#000" stroke-linejoin="round" stroke-miterlimit="10" stroke-width="3.98257" transform="matrix(.1 0 0 -.1 0 484.99)"/><path d="m74.058594 308.488281h.460937v-31.6875h-.460937zm0 0"/><use x="64.8945" xlink:href="#Q" y="332.971"/><use x="82.242917" xlink:href="#w" y="332.971"/><use x="73.85895" xlink:href="#ac" y="274.6897"/><path d="m1346.054688 1732.634375h4.609374v300.703125h-4.609374zm0 0" fill="none" stroke="#000" stroke-linejoin="round" stroke-miterlimit="10" stroke-width="3.98257" transform="matrix(.1 0 0 -.1 0 484.99)"/><path d="m134.605469 311.726562h.460937v-30.070312h-.460937zm0 0"/><use x="42.7758" xlink:href="#ad" y="279.547"/><use x="7.7707" xlink:href="#ae" y="289.26067"/><path d="m2771.523438 2033.923437h4.609374v309.921875h-4.609374zm0 0" fill="none" stroke="#000" stroke-linejoin="round" stroke-miterlimit="10" stroke-width="3.98257" transform="matrix(.1 0 0 -.1 0 484.99)"/><path d="m277.152344 281.597656h.460937v-30.992187h-.460937zm0 0"/><use x="252.526" xlink:href="#V" y="332.971"/><use x="264.431848" xlink:href="#W" y="332.971"/><use x="276.507617" xlink:href="#X" y="332.971"/><use x="283.141196" xlink:href="#y" y="332.971"/><use x="264.4854" xlink:href="#aa" y="284.403"/><path d="m2061.367188 1978.376562h4.570312v316.875h-4.570312zm0 0" fill="none" stroke="#000" stroke-linejoin="round" stroke-miterlimit="10" stroke-width="3.98257" transform="matrix(.1 0 0 -.1 0 484.99)"/><path d="m206.132812 287.152344h.460938v-31.6875h-.460938zm0 0"/><use x="188.036" xlink:href="#N" y="332.971"/><use x="199.600832" xlink:href="#Y" y="332.971"/><use x="194.10983" xlink:href="#ac" y="289.2601"/><g clip-path="url(#p)"><path d="m3.28125 694.548437h5946.171875" style="fill:none;stroke-width:6.60523;stroke-linecap:round;stroke-linejoin:round;stroke:#000;stroke-miterlimit:10" transform="matrix(.1 0 0 -.1 0 484.99)"/></g><g clip-path="url(#q)"><path d="m3.28125 791.657812h5946.171875" style="fill:none;stroke-width:6.60523;stroke-linecap:round;stroke-linejoin:round;stroke:#000;stroke-miterlimit:10" transform="matrix(.1 0 0 -.1 0 484.99)"/></g><g clip-path="url(#r)"><path d="m3.28125 888.80625h5946.171875" style="fill:none;stroke-width:6.60523;stroke-linecap:round;stroke-linejoin:round;stroke:#000;stroke-miterlimit:10" transform="matrix(.1 0 0 -.1 0 484.99)"/></g><g clip-path="url(#s)"><path d="m3.28125 985.954687h5946.171875" style="fill:none;stroke-width:6.60523;stroke-linecap:round;stroke-linejoin:round;stroke:#000;stroke-miterlimit:10" transform="matrix(.1 0 0 -.1 0 484.99)"/></g><g clip-path="url(#t)"><path d="m3.28125 1083.064062h5946.171875" style="fill:none;stroke-width:6.60523;stroke-linecap:round;stroke-linejoin:round;stroke:#000;stroke-miterlimit:10" transform="matrix(.1 0 0 -.1 0 484.99)"/></g><path d="m715.039062 597.4h173.945313" style="fill:none;stroke-width:16.3188;stroke-linecap:round;stroke-linejoin:round;stroke:#000;stroke-miterlimit:10" transform="matrix(.1 0 0 -.1 0 484.99)"/><path d="m4409.140625 694.548437v388.515625" fill="none" stroke="#000" stroke-linejoin="round" stroke-miterlimit="10" stroke-width="12.5499" transform="matrix(.1 0 0 -.1 0 484.99)"/><g clip-path="url(#u)"><path d="m5932.929688 694.548437v388.515625" fill="none" stroke="#000" stroke-linejoin="round" stroke-miterlimit="10" stroke-width="39.6217" transform="matrix(.1 0 0 -.1 0 484.99)"/></g><path d="m5887.03125 694.548437v388.515625" fill="none" stroke="#000" stroke-linejoin="round" stroke-miterlimit="10" stroke-width="12.5499" transform="matrix(.1 0 0 -.1 0 484.99)"/><path d="m4629.140625 771.15h4.609375v309.921875h-4.609375zm0 0" fill="none" stroke="#000" stroke-linejoin="round" stroke-miterlimit="10" stroke-width="3.98257" transform="matrix(.1 0 0 -.1 0 484.99)"/><path d="m462.914062 407.875h.460938v-30.992188h-.460938zm0 0"/><use x="468.013" xlink:href="#ah" y="410.6798"/><use x="444.3267" xlink:href="#O" y="452.8298"/><use x="449.599359" xlink:href="#P" y="452.8298"/><use x="462.864955" xlink:href="#Z" y="452.8298"/><use x="450.24897" xlink:href="#aa" y="410.6798"/><path d="m1410.898438 387.360937h58.789062v3.320313h-58.789062zm0 0" fill="none" stroke="#000" stroke-linejoin="round" stroke-miterlimit="10" stroke-width="5.28418" transform="matrix(.1 0 0 -.1 0 484.99)"/><path d="m141.089844 446.253906h5.878906v-.332031h-5.878906zm0 0"/><path d="m2548.046875 387.360937h58.828125v3.320313h-58.828125zm0 0" fill="none" stroke="#000" stroke-linejoin="round" stroke-miterlimit="10" stroke-width="5.28418" transform="matrix(.1 0 0 -.1 0 484.99)"/><path d="m254.804688 446.253906h5.882812v-.332031h-5.882812zm0 0"/><path d="m3819.6875 387.360937h58.828125v3.320313h-58.828125zm0 0" fill="none" stroke="#000" stroke-linejoin="round" stroke-miterlimit="10" stroke-width="5.28418" transform="matrix(.1 0 0 -.1 0 484.99)"/><path d="m381.96875 446.253906h5.882812v-.332031h-5.882812zm0 0"/><use x="42.7758" xlink:href="#ad" y="396.1095"/><use x="7.7707" xlink:href="#ae" y="405.82317"/><use x="306.9557" xlink:href="#E" y="452.82977"/><use x="312.227969" xlink:href="#R" y="452.82977"/><use x="189.997562" xlink:href="#E" y="452.82977"/><use x="195.269818" xlink:href="#w" y="452.82977"/><path d="m3222.304688 819.74375h4.609374v309.921875h-4.609374zm0 0" fill="none" stroke="#000" stroke-linejoin="round" stroke-miterlimit="10" stroke-width="3.98257" transform="matrix(.1 0 0 -.1 0 484.99)"/><path d="m322.230469 403.015625h.457031v-30.992187h-.457031zm0 0"/><use x="309.561" xlink:href="#aa" y="405.8232"/><path d="m2049.492188 764.196875h4.609374v316.875h-4.609374zm0 0" fill="none" stroke="#000" stroke-linejoin="round" stroke-miterlimit="10" stroke-width="3.98257" transform="matrix(.1 0 0 -.1 0 484.99)"/><path d="m204.949219 408.570312h.460937v-31.6875h-.460937zm0 0"/><use x="73.859" xlink:href="#ac" y="425.2502"/><use x="192.924" xlink:href="#ac" y="410.6799"/><path d="m858.828125 618.49375h4.609375v316.875h-4.609375zm0 0" fill="none" stroke="#000" stroke-linejoin="round" stroke-miterlimit="10" stroke-width="3.98257" transform="matrix(.1 0 0 -.1 0 484.99)"/><path d="m85.882812 423.140625h.460938v-31.6875h-.460938zm0 0"/><use x="62.3438" xlink:href="#Q" y="452.8298"/><use x="79.521123" xlink:href="#P" y="452.8298"/><use x="92.787121" xlink:href="#E" y="452.8298"/></svg>