<svg height="330.41em" viewBox="0 0 595.28 330.41" width="595.28em" xmlns="http://www.w3.org/2000/svg" xmlns:xlink="http://www.w3.org/1999/xlink"><clipPath id="a"><path d="m0 58h595.28125v2h-595.28125zm0 0"/></clipPath><clipPath id="b"><path d="m0 50h595.28125v1h-595.28125zm0 0"/></clipPath><clipPath id="c"><path d="m0 41h595.28125v1h-595.28125zm0 0"/></clipPath><clipPath id="d"><path d="m0 32h595.28125v2h-595.28125zm0 0"/></clipPath><clipPath id="e"><path d="m0 23h595.28125v2h-595.28125zm0 0"/></clipPath><clipPath id="f"><path d="m594 23h1.28125v4h-1.28125zm0 0"/></clipPath><clipPath id="g"><path d="m594 24h1.28125v3h-1.28125zm0 0"/></clipPath><clipPath id="h"><path d="m594 30h1.28125v6h-1.28125zm0 0"/></clipPath><clipPath id="i"><path d="m594 39h1.28125v6h-1.28125zm0 0"/></clipPath><clipPath id="j"><path d="m594 47h1.28125v7h-1.28125zm0 0"/></clipPath><clipPath id="k"><path d="m594 47h1.28125v6h-1.28125zm0 0"/></clipPath><clipPath id="l"><path d="m594 56h1.28125v4h-1.28125zm0 0"/></clipPath><clipPath id="m"><path d="m0 163h595.28125v2h-595.28125zm0 0"/></clipPath><clipPath id="n"><path d="m0 154h595.28125v2h-595.28125zm0 0"/></clipPath><clipPath id="o"><path d="m0 145h595.28125v2h-595.28125zm0 0"/></clipPath><clipPath id="p"><path d="m0 137h595.28125v1h-595.28125zm0 0"/></clipPath><clipPath id="q"><path d="m0 128h595.28125v2h-595.28125zm0 0"/></clipPath><clipPath id="r"><path d="m594 128h1.28125v37h-1.28125zm0 0"/></clipPath><clipPath id="s"><path d="m0 268h595.28125v1h-595.28125zm0 0"/></clipPath><clipPath id="t"><path d="m0 259h595.28125v1h-595.28125zm0 0"/></clipPath><clipPath id="u"><path d="m0 250h595.28125v2h-595.28125zm0 0"/></clipPath><clipPath id="v"><path d="m0 241h595.28125v2h-595.28125zm0 0"/></clipPath><clipPath id="w"><path d="m0 233h595.28125v1h-595.28125zm0 0"/></clipPath><clipPath id="x"><path d="m591 231h4.28125v40h-4.28125zm0 0"/></clipPath><symbol id="y" overflow="visible"><path d="m7.75-4.703125c-1.46875 0-2.875.484375-4.125 1.25-1.640625.984375-3.625 2.6875-3.625 5.15625 0 2.0625 1.8125 3 3.65625 3 1.46875 0 2.859375-.484375 4.125-1.25 1.640625-.984375 3.59375-2.6875 3.59375-5.15625 0-2.0625-1.78125-3-3.625-3zm0 0"/></symbol><symbol id="z" overflow="visible"><path d="m0 0h-.484375v8.71875h.484375zm0 0v8.71875c2.515625 2.609375 5.859375 6.28125 5.859375 9.90625 0 2.328125-.53125 4.609375-1.4375 6.765625-.09375.515625.328125.875.734375.875.25 0 .453125-.140625.59375-.390625.90625-2.296875 1.46875-4.78125 1.46875-7.25 0-6.90625-7.21875-11.71875-7.21875-18.625zm0 0"/></symbol><symbol id="A" overflow="visible"><path d="m13.046875-9.0625c-.5625-2.453125-1.21875-4.859375-1.921875-7.265625 3.34375-3.796875 6.375-7.703125 6.375-12.71875 0-3.9375-2.15625-9.59375-4.59375-12.53125-.171875-.125-.390625-.125-.5625 0-3.3125 2.40625-5.234375 6.25-5.234375 10.296875 0 1.8125.046875 3.59375.25 5.375.25 2.265625.84375 4.453125 1.46875 6.65625-4.125 4.671875-8.765625 9.140625-8.765625 15.34375 0 7.015625 5.0625 12.96875 11.625 12.96875 1.078125 0 2.09375-.09375 3.09375-.28125.109375 1.125.1875 2.234375.1875 3.359375 0 .625-.046875 1.21875-.078125 1.84375-.203125 3.453125-2.328125 6.625-5.578125 6.703125-.03125 0-.078125.03125-.109375.03125-1.78125 0-3.3125-1.015625-4.21875-2.4375.390625.171875.8125.3125 1.21875.3125 1.8125 0 3.3125-1.5 3.3125-3.3125 0-1.953125-1.421875-3.640625-3.3125-3.640625-2.046875 0-3.90625 1.609375-3.90625 3.640625 0 3.765625 3.03125 6.796875 6.8125 6.796875 4.109375 0 6.9375-3.703125 7.171875-7.890625.046875-.65625.046875-1.28125.046875-1.953125 0-1.25-.078125-2.5-.1875-3.765625.90625-.265625 1.78125-.6875 2.546875-1.28125 2.59375-1.921875 3.734375-4.609375 3.734375-7.25 0-4.609375-3.484375-9.046875-8.859375-9.046875-.171875 0-.34375.046875-.515625.046875zm2.953125 16.21875c-.484375-4.328125-1.28125-8.453125-2.15625-12.53125 3.84375.3125 6.25 3.53125 6.25 6.734375 0 2.4375-1.6875 4.953125-4.09375 5.796875zm-13.53125-8.234375c0-5.578125 3.78125-9.796875 7.546875-14.015625.546875 2.046875 1.109375 4.109375 1.59375 6.203125-3.515625.796875-5.5 3.765625-5.5 6.828125 0 2.453125 1.25 4.921875 4.046875 6.421875.09375.03125.203125.0625.3125.0625.375 0 .6875-.34375.6875-.71875 0-.1875-.09375-.359375-.234375-.5-1.953125-1.109375-2.859375-2.78125-2.859375-4.3125 0-2.0625 1.59375-3.90625 4.359375-4.21875.90625 4.171875 1.703125 8.328125 2.21875 12.796875-.9375.140625-1.875.203125-2.859375.203125-4.734375 0-9.3125-4.015625-9.3125-8.75zm11.859375-35.546875c.59375 1.859375.734375 2.765625.734375 4.78125 0 4.4375-2.328125 7.953125-5.1875 11.34375-.640625-2.203125-1.15625-4.328125-1.15625-6.984375 0-3.875 2.15625-7.390625 5.609375-9.140625zm0 0"/></symbol><symbol id="B" overflow="visible"><path d="m0 0c0 1.109375.875 1.984375 1.984375 1.984375 1.125 0 1.984375-.875 1.984375-1.984375s-.859375-1.984375-1.984375-1.984375c-1.109375 0-1.984375.875-1.984375 1.984375zm0 0"/></symbol><symbol id="C" overflow="visible"><path d="m0 0v-8.71875h-.484375v8.71875zm0 0c0-7.078125 9.3125-10.671875 9.3125-17.75 0-2.15625-.53125-4.296875-1.390625-6.25-.140625-.234375-.390625-.34375-.640625-.34375-.40625 0-.828125.34375-.71875.875.859375 1.8125 1.390625 3.734375 1.390625 5.71875 0 3.90625-4.53125 7.015625-7.953125 9.03125zm0 0"/></symbol><symbol id="D" overflow="visible"><path d="m-2.203125-1.640625c0 1.21875.984375 2.203125 2.203125 2.203125s2.203125-.984375 2.203125-2.203125-.984375-2.203125-2.203125-2.203125-2.203125.984375-2.203125 2.203125zm2.203125-10.921875c-5.40625 0-11.46875 6.046875-11.46875 12.625 0 .28125.28125.5.546875.5.25 0 .53125-.171875.59375-.5625.90625-5.203125 5.125-9.234375 10.328125-9.234375s9.421875 4.03125 10.328125 9.234375c.0625.390625.34375.5625.59375.5625.265625 0 .546875-.21875.546875-.5 0-6.578125-6.03125-12.625-11.46875-12.625zm0 0"/></symbol><symbol id="E" overflow="visible"><path d="m9.4375-8.140625c-.03125-2.21875-1.5-3.46875-4.09375-3.46875-2.625 0-4.328125 1.359375-4.328125 3.453125 0 1.765625.90625 2.59375 3.578125 3.25l1.671875.40625c1.25.296875 1.75.75 1.75 1.546875 0 1.078125-1.0625 1.796875-2.625 1.796875-.984375 0-1.796875-.28125-2.25-.765625-.28125-.3125-.40625-.640625-.515625-1.4375h-1.890625c.078125 2.609375 1.546875 3.859375 4.5 3.859375 2.84375 0 4.65625-1.40625 4.65625-3.578125 0-1.6875-.953125-2.609375-3.1875-3.140625l-1.734375-.40625c-1.453125-.34375-2.078125-.828125-2.078125-1.625 0-1.046875.921875-1.703125 2.390625-1.703125 1.4375 0 2.21875.625 2.25 1.8125zm0 0"/></symbol><symbol id="F" overflow="visible"><path d="m9.53125-11.28125h-8.40625v1.578125h6.28125l-6.734375 8.09375v1.609375h9.171875v-1.578125h-7l6.6875-8.109375zm0 0"/></symbol><symbol id="G" overflow="visible"><path d="m11.046875-5.03125c0-1.734375-.125-2.765625-.453125-3.609375-.734375-1.84375-2.453125-2.96875-4.5625-2.96875-3.140625 0-5.171875 2.390625-5.171875 6.125 0 3.71875 1.9375 5.984375 5.125 5.984375 2.578125 0 4.375-1.46875 4.828125-3.921875h-1.8125c-.5 1.484375-1.5 2.265625-2.953125 2.265625-1.140625 0-2.109375-.515625-2.703125-1.46875-.4375-.640625-.59375-1.296875-.609375-2.40625zm-8.265625-1.46875c.140625-2.09375 1.421875-3.453125 3.21875-3.453125 1.84375 0 3.109375 1.421875 3.109375 3.453125zm0 0"/></symbol><symbol id="H" overflow="visible"><path d="m3.03125-15.703125h-1.78125v15.703125h1.78125v-4.390625l1.75-1.71875 3.8125 6.109375h2.21875l-4.609375-7.390625 3.921875-3.890625h-2.3125l-4.78125 4.78125zm0 0"/></symbol><symbol id="I" overflow="visible"><path d="m3.234375-11.28125h-1.796875v11.28125h1.796875zm0-4.421875h-1.8125v2.265625h1.8125zm0 0"/></symbol><symbol id="J" overflow="visible"><path d="m8.703125-11.28125v1.640625c-.90625-1.359375-1.90625-1.96875-3.3125-1.96875-2.75 0-4.640625 2.546875-4.640625 6.15625 0 1.90625.453125 3.28125 1.421875 4.421875.84375.984375 1.921875 1.53125 3.078125 1.53125 1.359375 0 2.328125-.609375 3.28125-2.03125v.578125c0 3.015625-.84375 4.140625-3.078125 4.140625-1.53125 0-2.328125-.609375-2.5-1.890625h-1.828125c.171875 2.078125 1.828125 3.390625 4.28125 3.390625 1.65625 0 3.03125-.53125 3.765625-1.4375.859375-1.046875 1.1875-2.453125 1.1875-5.109375v-9.421875zm-3.140625 1.328125c1.890625 0 2.96875 1.59375 2.96875 4.46875 0 2.734375-1.109375 4.328125-2.96875 4.328125s-2.9375-1.625-2.9375-4.40625c0-2.75 1.078125-4.390625 2.9375-4.390625zm0 0"/></symbol><symbol id="K" overflow="visible"><path d="m11.046875-5.03125c0-1.734375-.125-2.765625-.453125-3.609375-.734375-1.84375-2.453125-2.96875-4.5625-2.96875-3.140625 0-5.171875 2.390625-5.171875 6.125 0 3.71875 1.9375 5.984375 5.125 5.984375 2.578125 0 4.375-1.46875 4.828125-3.921875h-1.8125c-.5 1.484375-1.5 2.265625-2.953125 2.265625-1.140625 0-2.109375-.515625-2.703125-1.46875-.4375-.640625-.59375-1.296875-.609375-2.40625zm-8.265625-1.46875c.140625-2.09375 1.421875-3.453125 3.21875-3.453125 1.84375 0 3.109375 1.421875 3.109375 3.453125zm3.84375-9.4375-2.0625 3.1875h1.296875l3.203125-3.1875zm0 0"/></symbol><symbol id="L" overflow="visible"><path d="m1.5-11.28125v11.28125h1.8125v-6.21875c0-2.3125 1.203125-3.8125 3.0625-3.8125 1.421875 0 2.328125.859375 2.328125 2.21875v7.8125h1.78125v-8.53125c0-1.875-1.390625-3.078125-3.578125-3.078125-1.671875 0-2.75.65625-3.734375 2.21875v-1.890625zm0 0"/></symbol><symbol id="M" overflow="visible"><path d="m8.359375-11.28125-3.125 8.78125-2.890625-8.78125h-1.90625l3.796875 11.328125-.6875 1.78125c-.296875.796875-.6875 1.09375-1.4375 1.09375-.296875 0-.5625-.03125-.953125-.125v1.609375c.375.203125.734375.28125 1.21875.28125.578125 0 1.203125-.1875 1.671875-.53125.5625-.40625.890625-.890625 1.234375-1.78125l5.015625-13.65625zm0 0"/></symbol><symbol id="N" overflow="visible"><path d="m1.875-2.234375v2.234375h1.296875v.390625c0 1.484375-.28125 1.90625-1.296875 1.953125v.828125c1.421875.03125 2.265625-1 2.265625-2.828125v-2.578125zm0 0"/></symbol><symbol id="O" overflow="visible"><path d="m10.65625-15.703125h-1.78125v5.84375c-.75-1.140625-1.96875-1.75-3.46875-1.75-2.9375 0-4.84375 2.34375-4.84375 5.953125 0 3.796875 1.84375 6.15625 4.90625 6.15625 1.546875 0 2.625-.59375 3.59375-1.984375v1.484375h1.59375zm-4.953125 5.78125c1.9375 0 3.171875 1.703125 3.171875 4.40625 0 2.609375-1.25 4.328125-3.140625 4.328125-1.984375 0-3.296875-1.734375-3.296875-4.375 0-2.625 1.3125-4.359375 3.265625-4.359375zm0 0"/></symbol><symbol id="P" overflow="visible"><path d="m5.859375-11.609375c-3.1875 0-5.078125 2.265625-5.078125 6.046875 0 3.8125 1.890625 6.0625 5.09375 6.0625 3.1875 0 5.109375-2.265625 5.109375-5.96875 0-3.921875-1.859375-6.140625-5.125-6.140625zm.015625 1.65625c2.03125 0 3.234375 1.65625 3.234375 4.46875 0 2.65625-1.25 4.328125-3.234375 4.328125-2 0-3.234375-1.671875-3.234375-4.40625s1.234375-4.390625 3.234375-4.390625zm0 0"/></symbol><symbol id="Q" overflow="visible"><path d="m1.703125 0h7.078125c1.484375 0 2.59375-.40625 3.421875-1.3125.78125-.8125 1.203125-1.9375 1.203125-3.171875 0-1.890625-.859375-3.03125-2.859375-3.8125 1.453125-.65625 2.171875-1.796875 2.171875-3.421875 0-1.15625-.421875-2.140625-1.25-2.875-.828125-.765625-1.890625-1.109375-3.390625-1.109375h-6.375zm2-8.9375v-5h3.875c1.125 0 1.75.15625 2.28125.5625.5625.4375.859375 1.078125.859375 1.9375s-.296875 1.515625-.859375 1.9375c-.53125.40625-1.15625.5625-2.28125.5625zm0 7.171875v-5.40625h4.890625c1.765625 0 2.8125 1.015625 2.8125 2.71875 0 1.671875-1.046875 2.6875-2.8125 2.6875zm0 0"/></symbol><symbol id="R" overflow="visible"><path d="m3.265625-15.703125h-1.796875v15.703125h1.796875zm0 0"/></symbol><symbol id="S" overflow="visible"><path d="m11.515625-1.0625c-.1875.046875-.28125.046875-.390625.046875-.625 0-.96875-.3125-.96875-.875v-6.640625c0-2-1.453125-3.078125-4.234375-3.078125-1.65625 0-2.96875.484375-3.75 1.3125-.515625.59375-.734375 1.234375-.765625 2.359375h1.796875c.15625-1.390625.96875-2.015625 2.65625-2.015625 1.640625 0 2.515625.609375 2.515625 1.6875v.46875c-.015625.78125-.40625 1.0625-1.875 1.25-2.53125.328125-2.921875.40625-3.609375.6875-1.3125.5625-1.984375 1.546875-1.984375 3.015625 0 2.046875 1.421875 3.34375 3.703125 3.34375 1.421875 0 2.5625-.5 3.828125-1.65625.125 1.15625.6875 1.65625 1.859375 1.65625.375 0 .625-.046875 1.21875-.203125zm-3.140625-2.484375c0 .59375-.171875.96875-.703125 1.453125-.734375.671875-1.625 1.015625-2.671875 1.015625-1.40625 0-2.21875-.671875-2.21875-1.8125 0-1.171875.765625-1.78125 2.703125-2.0625 1.921875-.25 2.28125-.34375 2.890625-.625zm0 0"/></symbol><symbol id="T" overflow="visible"><path d="m1.484375-11.28125v11.28125h1.8125v-5.859375c.015625-2.703125 1.140625-3.921875 3.609375-3.84375v-1.84375c-.296875-.03125-.46875-.0625-.6875-.0625-1.15625 0-2.046875.6875-3.078125 2.375v-2.046875zm0 0"/></symbol><symbol id="U" overflow="visible"><path d="m5.859375-11.609375c-3.1875 0-5.078125 2.265625-5.078125 6.046875 0 3.8125 1.890625 6.0625 5.09375 6.0625 3.1875 0 5.109375-2.265625 5.109375-5.96875 0-3.921875-1.859375-6.140625-5.125-6.140625zm.015625 1.65625c2.03125 0 3.234375 1.65625 3.234375 4.46875 0 2.65625-1.25 4.328125-3.234375 4.328125-2 0-3.234375-1.671875-3.234375-4.40625s1.234375-4.390625 3.234375-4.390625zm-.625-5.4375h-2.234375v2.21875h2.234375zm3.484375 0h-2.234375v2.21875h2.234375zm0 0"/></symbol><symbol id="V" overflow="visible"><path d="m1.15625-15.703125v15.703125h1.625v-1.4375c.859375 1.3125 2 1.9375 3.578125 1.9375 2.96875 0 4.90625-2.4375 4.90625-6.1875 0-3.65625-1.828125-5.921875-4.828125-5.921875-1.546875 0-2.640625.578125-3.484375 1.859375v-5.953125zm4.9375 5.78125c2 0 3.296875 1.734375 3.296875 4.4375 0 2.5625-1.34375 4.296875-3.296875 4.296875-1.921875 0-3.140625-1.71875-3.140625-4.375 0-2.640625 1.21875-4.359375 3.140625-4.359375zm0 0"/></symbol><symbol id="W" overflow="visible"><path d="m5.859375-11.609375c-3.1875 0-5.078125 2.265625-5.078125 6.046875 0 3.8125 1.890625 6.0625 5.09375 6.0625 3.1875 0 5.109375-2.265625 5.109375-5.96875 0-3.921875-1.859375-6.140625-5.125-6.140625zm.015625 1.65625c2.03125 0 3.234375 1.65625 3.234375 4.46875 0 2.65625-1.25 4.328125-3.234375 4.328125-2 0-3.234375-1.671875-3.234375-4.40625s1.234375-4.390625 3.234375-4.390625zm-.703125-5.984375-2.09375 3.234375h1.296875l3.203125-3.234375zm3.734375 0-2.078125 3.234375h1.296875l3.203125-3.234375zm0 0"/></symbol><symbol id="X" overflow="visible"><path d="m3.8125-11.28125h-1.78125v11.28125h1.78125zm-.34375-4.65625-2.0625 3.1875h1.28125l3.21875-3.1875zm0 0"/></symbol><symbol id="Y" overflow="visible"><path d="m6.140625 0 4.328125-11.28125h-2.03125l-3.1875 9.15625-3.015625-9.15625h-2.015625l3.953125 11.28125zm0 0"/></symbol><symbol id="Z" overflow="visible"><path d="m5.46875-11.28125h-1.84375v-3.109375h-1.796875v3.109375h-1.53125v1.46875h1.53125v8.515625c0 1.171875.78125 1.796875 2.171875 1.796875.484375 0 .859375-.046875 1.46875-.15625v-1.5c-.265625.0625-.5.078125-.859375.078125-.78125 0-.984375-.21875-.984375-1.015625v-7.71875h1.84375zm0 0"/></symbol><symbol id="aa" overflow="visible"><path d="m4.109375-2.234375h-2.234375v2.234375h2.234375zm0 0"/></symbol><symbol id="ab" overflow="visible"><path d="m10.078125 0 4.40625-13.15625v13.15625h1.90625v-15.703125h-2.78125l-4.5625 13.671875-4.65625-13.671875h-2.78125v15.703125h1.90625v-13.15625l4.453125 13.15625zm0 0"/></symbol><symbol id="ac" overflow="visible"><path d="m11.515625-1.0625c-.1875.046875-.28125.046875-.390625.046875-.625 0-.96875-.3125-.96875-.875v-6.640625c0-2-1.453125-3.078125-4.234375-3.078125-1.65625 0-2.96875.484375-3.75 1.3125-.515625.59375-.734375 1.234375-.765625 2.359375h1.796875c.15625-1.390625.96875-2.015625 2.65625-2.015625 1.640625 0 2.515625.609375 2.515625 1.6875v.46875c-.015625.78125-.40625 1.0625-1.875 1.25-2.53125.328125-2.921875.40625-3.609375.6875-1.3125.5625-1.984375 1.546875-1.984375 3.015625 0 2.046875 1.421875 3.34375 3.703125 3.34375 1.421875 0 2.5625-.5 3.828125-1.65625.125 1.15625.6875 1.65625 1.859375 1.65625.375 0 .625-.046875 1.21875-.203125zm-3.140625-2.484375c0 .59375-.171875.96875-.703125 1.453125-.734375.671875-1.625 1.015625-2.671875 1.015625-1.40625 0-2.21875-.671875-2.21875-1.8125 0-1.171875.765625-1.78125 2.703125-2.0625 1.921875-.25 2.28125-.34375 2.890625-.625zm-1.828125-12.390625-2.09375 3.1875h1.296875l3.203125-3.1875zm0 0"/></symbol><symbol id="ad" overflow="visible"><path d="m1.5-11.28125v11.28125h1.8125v-7.078125c0-1.640625 1.1875-2.953125 2.65625-2.953125 1.328125 0 2.078125.8125 2.078125 2.265625v7.765625h1.8125v-7.078125c0-1.640625 1.1875-2.953125 2.65625-2.953125 1.3125 0 2.078125.84375 2.078125 2.265625v7.765625h1.8125v-8.46875c0-2.015625-1.15625-3.140625-3.265625-3.140625-1.515625 0-2.421875.453125-3.46875 1.71875-.671875-1.203125-1.578125-1.71875-3.046875-1.71875-1.5 0-2.515625.5625-3.453125 1.921875v-1.59375zm0 0"/></symbol><symbol id="ae" overflow="visible"><path d="m4.5625-9.375v9.375h2.6875v-13.59375h-1.78125c-.421875 1.609375-1.828125 2.4375-4.171875 2.4375v1.78125zm0 0"/></symbol><symbol id="af" overflow="visible"><path d="m4.109375-2.796875h-2.875v2.796875h2.875zm0 0"/></symbol><g clip-path="url(#a)"><path d="m3.125 2712.967187h5946.523438" fill="none" stroke="#000" stroke-linecap="round" stroke-miterlimit="10" stroke-width="6.25903" transform="matrix(.1 0 0 -.1 0 330.41)"/></g><g clip-path="url(#b)"><path d="m3.125 2800.154687h5946.523438" fill="none" stroke="#000" stroke-linecap="round" stroke-miterlimit="10" stroke-width="6.25903" transform="matrix(.1 0 0 -.1 0 330.41)"/></g><g clip-path="url(#c)"><path d="m3.125 2887.303125h5946.523438" fill="none" stroke="#000" stroke-linecap="round" stroke-miterlimit="10" stroke-width="6.25903" transform="matrix(.1 0 0 -.1 0 330.41)"/></g><g clip-path="url(#d)"><path d="m3.125 2974.490625h5946.523438" fill="none" stroke="#000" stroke-linecap="round" stroke-miterlimit="10" stroke-width="6.25903" transform="matrix(.1 0 0 -.1 0 330.41)"/></g><g clip-path="url(#e)"><path d="m3.125 3061.678125h5946.523438" fill="none" stroke="#000" stroke-linecap="round" stroke-miterlimit="10" stroke-width="6.25903" transform="matrix(.1 0 0 -.1 0 330.41)"/></g><path d="m3178.632812 3037.498437h7.890626v25.3125h-7.890626zm0 0" style="fill:none;stroke-width:3.98381;stroke-linecap:round;stroke-linejoin:round;stroke:#000;stroke-miterlimit:10" transform="matrix(.1 0 0 -.1 0 330.41)"/><path d="m317.863281 26.660156h.789063v-2.53125h-.789063zm0 0"/><path d="m3178.632812 2950.310937h7.890626v48.320313h-7.890626zm0 0" style="fill:none;stroke-width:3.98381;stroke-linecap:round;stroke-linejoin:round;stroke:#000;stroke-miterlimit:10" transform="matrix(.1 0 0 -.1 0 330.41)"/><path d="m317.863281 35.378906h.789063v-4.832031h-.789063zm0 0"/><path d="m3178.632812 2863.1625h7.890626v48.320312h-7.890626zm0 0" style="fill:none;stroke-width:3.98381;stroke-linecap:round;stroke-linejoin:round;stroke:#000;stroke-miterlimit:10" transform="matrix(.1 0 0 -.1 0 330.41)"/><path d="m317.863281 44.09375h.789063v-4.832031h-.789063zm0 0"/><path d="m3178.632812 2775.975h7.890626v48.320312h-7.890626zm0 0" style="fill:none;stroke-width:3.98381;stroke-linecap:round;stroke-linejoin:round;stroke:#000;stroke-miterlimit:10" transform="matrix(.1 0 0 -.1 0 330.41)"/><path d="m317.863281 52.8125h.789063v-4.832031h-.789063zm0 0"/><path d="m3178.632812 2711.834375h7.890626v25.273437h-7.890626zm0 0" style="fill:none;stroke-width:3.98381;stroke-linecap:round;stroke-linejoin:round;stroke:#000;stroke-miterlimit:10" transform="matrix(.1 0 0 -.1 0 330.41)"/><path d="m317.863281 59.226562h.789063v-2.527343h-.789063zm0 0"/><g clip-path="url(#f)"><path d="m5942.851562 3037.498437h7.929688v25.3125h-7.929688zm0 0" style="fill:none;stroke-width:3.98381;stroke-linecap:round;stroke-linejoin:round;stroke:#000;stroke-miterlimit:10" transform="matrix(.1 0 0 -.1 0 330.41)"/></g><g clip-path="url(#g)"><path d="m594.285156 26.660156h.792969v-2.53125h-.792969zm0 0"/></g><g clip-path="url(#h)"><path d="m5942.851562 2950.310937h7.929688v48.320313h-7.929688zm0 0" style="fill:none;stroke-width:3.98381;stroke-linecap:round;stroke-linejoin:round;stroke:#000;stroke-miterlimit:10" transform="matrix(.1 0 0 -.1 0 330.41)"/><path d="m594.285156 35.378906h.792969v-4.832031h-.792969zm0 0"/></g><g clip-path="url(#i)"><path d="m5942.851562 2863.1625h7.929688v48.320312h-7.929688zm0 0" style="fill:none;stroke-width:3.98381;stroke-linecap:round;stroke-linejoin:round;stroke:#000;stroke-miterlimit:10" transform="matrix(.1 0 0 -.1 0 330.41)"/><path d="m594.285156 44.09375h.792969v-4.832031h-.792969zm0 0"/></g><g clip-path="url(#j)"><path d="m5942.851562 2775.975h7.929688v48.320312h-7.929688zm0 0" style="fill:none;stroke-width:3.98381;stroke-linecap:round;stroke-linejoin:round;stroke:#000;stroke-miterlimit:10" transform="matrix(.1 0 0 -.1 0 330.41)"/></g><g clip-path="url(#k)"><path d="m594.285156 52.8125h.792969v-4.832031h-.792969zm0 0"/></g><g clip-path="url(#l)"><path d="m5942.851562 2711.834375h7.929688v25.273437h-7.929688zm0 0" style="fill:none;stroke-width:3.98381;stroke-linecap:round;stroke-linejoin:round;stroke:#000;stroke-miterlimit:10" transform="matrix(.1 0 0 -.1 0 330.41)"/><path d="m594.285156 59.226562h.792969v-2.527343h-.792969zm0 0"/></g><use x="430.578" xlink:href="#y" y="41.679"/><use x="419.8573" xlink:href="#E" y="90.4243"/><use x="430.572574" xlink:href="#F" y="90.4243"/><use x="440.777301" xlink:href="#G" y="90.4243"/><path d="m4307.773438 2627.85h4.140624v240.3125h-4.140624zm0 0" style="fill:none;stroke-width:3.98381;stroke-linecap:round;stroke-linejoin:round;stroke:#000;stroke-miterlimit:10" transform="matrix(.1 0 0 -.1 0 330.41)"/><path d="m430.777344 67.625h.414062v-24.03125h-.414062zm0 0"/><use x="375.625" xlink:href="#H" y="90.424"/><use x="386.510172" xlink:href="#I" y="90.424"/><use x="483.266" xlink:href="#y" y="46.0373"/><use x="477.05116" xlink:href="#J" y="90.424"/><use x="488.956644" xlink:href="#K" y="90.424"/><path d="m4940.351562 2862.889062h4.140626v283.945313h-4.140626zm0 0" style="fill:none;stroke-width:3.98381;stroke-linecap:round;stroke-linejoin:round;stroke:#000;stroke-miterlimit:10" transform="matrix(.1 0 0 -.1 0 330.41)"/><path d="m494.035156 44.121094h.414063v-28.394532h-.414063zm0 0"/><path d="m3779.570312 2636.678125h4.140626v275.078125h-4.140626zm0 0" style="fill:none;stroke-width:3.98381;stroke-linecap:round;stroke-linejoin:round;stroke:#000;stroke-miterlimit:10" transform="matrix(.1 0 0 -.1 0 330.41)"/><path d="m377.957031 66.742188h.414063v-27.507813h-.414063zm0 0"/><use x="377.758" xlink:href="#y" y="37.32"/><path d="m818.203125 2459.021875h52.539063v3.125h-52.539063zm0 0" style="fill:none;stroke-width:5.01245;stroke-linecap:round;stroke-linejoin:round;stroke:#000;stroke-miterlimit:10" transform="matrix(.1 0 0 -.1 0 330.41)"/><path d="m81.820312 84.507812h5.253907v-.3125h-5.253907zm0 0"/><path d="m1286.875 2459.021875h52.539062v3.125h-52.539062zm0 0" style="fill:none;stroke-width:5.01245;stroke-linecap:round;stroke-linejoin:round;stroke:#000;stroke-miterlimit:10" transform="matrix(.1 0 0 -.1 0 330.41)"/><path d="m128.6875 84.507812h5.253906v-.3125h-5.253906zm0 0"/><path d="m2327.03125 2459.021875h52.539062v3.125h-52.539062zm0 0" style="fill:none;stroke-width:5.01245;stroke-linecap:round;stroke-linejoin:round;stroke:#000;stroke-miterlimit:10" transform="matrix(.1 0 0 -.1 0 330.41)"/><path d="m232.703125 84.507812h5.25v-.3125h-5.25zm0 0"/><path d="m613.28125 3112.107812h1060.546875v37.851563h-1060.546875zm0 0" fill="none" stroke="#000" stroke-linejoin="round" stroke-miterlimit="10" stroke-width="3.98381" transform="matrix(.1 0 0 -.1 0 330.41)"/><path d="m61.328125 19.199219h106.054687v-3.785157h-106.054687zm0 0"/><path d="m3558.59375 2459.021875h52.5v3.125h-52.5zm0 0" fill="none" stroke="#000" stroke-linejoin="round" stroke-miterlimit="10" stroke-width="5.01245" transform="matrix(.1 0 0 -.1 0 330.41)"/><path d="m355.859375 84.507812h5.25v-.3125h-5.25zm0 0"/><path d="m4622.421875 2459.021875h52.5v3.125h-52.5zm0 0" fill="none" stroke="#000" stroke-linejoin="round" stroke-miterlimit="10" stroke-width="5.01245" transform="matrix(.1 0 0 -.1 0 330.41)"/><path d="m462.238281 84.507812h5.253907v-.3125h-5.253907zm0 0"/><path d="m5061.09375 2459.021875h52.5v3.125h-52.5zm0 0" fill="none" stroke="#000" stroke-linejoin="round" stroke-miterlimit="10" stroke-width="5.01245" transform="matrix(.1 0 0 -.1 0 330.41)"/><path d="m506.109375 84.507812h5.25v-.3125h-5.25zm0 0"/><path d="m3251.367188 2662.498437v-37.851562l1060.546874-17.773438v37.851563zm0 0" fill="none" stroke="#000" stroke-linejoin="round" stroke-miterlimit="10" stroke-width="3.98381" transform="matrix(.1 0 0 -.1 0 330.41)"/><path d="m325.136719 64.160156v3.785156l106.054687 1.777344v-3.785156zm0 0"/><use x="494.649" xlink:href="#z" y="15.726"/><path d="m5468.554688 2819.295312h4.140624v283.945313h-4.140624zm0 0" fill="none" stroke="#000" stroke-linejoin="round" stroke-miterlimit="10" stroke-width="3.98381" transform="matrix(.1 0 0 -.1 0 330.41)"/><path d="m546.855469 48.480469h.414062v-28.394531h-.414062zm0 0"/><use x="516.606" xlink:href="#L" y="90.424"/><use x="528.171248" xlink:href="#M" y="90.424"/><use x="538.375583" xlink:href="#G" y="90.424"/><use x="550.280676" xlink:href="#H" y="90.424"/><use x="560.99634" xlink:href="#N" y="90.424"/><use x="536.0857" xlink:href="#y" y="50.3959"/><path d="m613.28125 2862.889062h4.179688v266.171875h-4.179688zm0 0" fill="none" stroke="#000" stroke-linejoin="round" stroke-miterlimit="10" stroke-width="3.98381" transform="matrix(.1 0 0 -.1 0 330.41)"/><path d="m61.328125 44.121094h.414063v-26.617188h-.414063zm0 0"/><use x="103.38" xlink:href="#y" y="46.037"/><use x="97.16633" xlink:href="#O" y="90.4237"/><use x="109.071435" xlink:href="#P" y="90.4237"/><path d="m1141.484375 2862.889062h4.179687v266.171875h-4.179687zm0 0" fill="none" stroke="#000" stroke-linejoin="round" stroke-miterlimit="10" stroke-width="3.98381" transform="matrix(.1 0 0 -.1 0 330.41)"/><path d="m114.148438 44.121094h.417968v-26.617188h-.417968zm0 0"/><path d="m3251.367188 2645.50625h4.140624v266.25h-4.140624zm0 0" fill="none" stroke="#000" stroke-linejoin="round" stroke-miterlimit="10" stroke-width="3.98381" transform="matrix(.1 0 0 -.1 0 330.41)"/><path d="m325.136719 65.859375h.414062v-26.625h-.414062zm0 0"/><use x="16.0703" xlink:href="#ae" y="90.424"/><use x="26.785509" xlink:href="#af" y="90.424"/><use x="40.7754" xlink:href="#Q" y="90.424"/><use x="55.06215" xlink:href="#P" y="90.424"/><use x="66.967249" xlink:href="#R" y="90.424"/><use x="6.9738" xlink:href="#A" y="50.3959"/><use x="50.5605" xlink:href="#y" y="46.03731"/><use x="319.9145" xlink:href="#R" y="90.42401"/><use x="324.676617" xlink:href="#G" y="90.42401"/><use x="336.582101" xlink:href="#R" y="90.42401"/><use x="324.93716" xlink:href="#y" y="37.32011"/><path d="m2704.296875 2732.107812h4.179687v283.984375h-4.179687zm0 0" fill="none" stroke="#000" stroke-linejoin="round" stroke-miterlimit="10" stroke-width="3.98381" transform="matrix(.1 0 0 -.1 0 330.41)"/><path d="m270.429688 57.199219h.417968v-28.398438h-.417968zm0 0"/><use x="252.173" xlink:href="#H" y="90.424"/><use x="263.058172" xlink:href="#I" y="90.424"/><use x="267.82068" xlink:href="#H" y="90.424"/><use x="259.66284" xlink:href="#y" y="59.1135"/><use x="218.22494" xlink:href="#z" y="28.8026"/><path d="m2176.09375 2732.107812h4.179688v283.984375h-4.179688zm0 0" fill="none" stroke="#000" stroke-linejoin="round" stroke-miterlimit="10" stroke-width="3.98381" transform="matrix(.1 0 0 -.1 0 330.41)"/><path d="m217.609375 57.199219h.417969v-28.398438h-.417969zm0 0"/><use x="206.581" xlink:href="#S" y="90.424"/><use x="156.2009" xlink:href="#y" y="46.0373"/><use x="141.6525" xlink:href="#J" y="90.424"/><use x="153.557996" xlink:href="#P" y="90.424"/><use x="165.463101" xlink:href="#H" y="90.424"/><use x="176.178363" xlink:href="#N" y="90.424"/><use x="206.8416" xlink:href="#y" y="59.1135"/><path d="m1669.6875 2862.889062h4.179688v266.171875h-4.179688zm0 0" fill="none" stroke="#000" stroke-linejoin="round" stroke-miterlimit="10" stroke-width="3.98381" transform="matrix(.1 0 0 -.1 0 330.41)"/><path d="m166.96875 44.121094h.417969v-26.617188h-.417969zm0 0"/><g clip-path="url(#m)"><path d="m3.125 1666.873437h5946.523438" style="fill:none;stroke-width:6.25903;stroke-linecap:round;stroke-linejoin:round;stroke:#000;stroke-miterlimit:10" transform="matrix(.1 0 0 -.1 0 330.41)"/></g><g clip-path="url(#n)"><path d="m3.125 1754.060937h5946.523438" style="fill:none;stroke-width:6.25903;stroke-linecap:round;stroke-linejoin:round;stroke:#000;stroke-miterlimit:10" transform="matrix(.1 0 0 -.1 0 330.41)"/></g><g clip-path="url(#o)"><path d="m3.125 1841.248437h5946.523438" style="fill:none;stroke-width:6.25903;stroke-linecap:round;stroke-linejoin:round;stroke:#000;stroke-miterlimit:10" transform="matrix(.1 0 0 -.1 0 330.41)"/></g><g clip-path="url(#p)"><path d="m3.125 1928.396875h5946.523438" style="fill:none;stroke-width:6.25903;stroke-linecap:round;stroke-linejoin:round;stroke:#000;stroke-miterlimit:10" transform="matrix(.1 0 0 -.1 0 330.41)"/></g><g clip-path="url(#q)"><path d="m3.125 2015.584375h5946.523438" style="fill:none;stroke-width:6.25903;stroke-linecap:round;stroke-linejoin:round;stroke:#000;stroke-miterlimit:10" transform="matrix(.1 0 0 -.1 0 330.41)"/></g><path d="m4897.109375 1579.725h155.742187" style="fill:none;stroke-width:14.9763;stroke-linecap:round;stroke-linejoin:round;stroke:#000;stroke-miterlimit:10" transform="matrix(.1 0 0 -.1 0 330.41)"/><g clip-path="url(#r)"><path d="m5946.796875 1666.873437v348.710938" fill="none" stroke="#000" stroke-linejoin="round" stroke-miterlimit="10" stroke-width="11.8991" transform="matrix(.1 0 0 -.1 0 330.41)"/></g><path d="m5025.742188 1598.865625h4.179687v283.984375h-4.179687zm0 0" fill="none" stroke="#000" stroke-linejoin="round" stroke-miterlimit="10" stroke-width="3.98381" transform="matrix(.1 0 0 -.1 0 330.41)"/><path d="m502.574219 170.523438h.417969v-28.398438h-.417969zm0 0"/><use x="507.171" xlink:href="#B" y="168.08"/><use x="477.2585" xlink:href="#L" y="197.1894"/><use x="489.163593" xlink:href="#G" y="197.1894"/><use x="501.068686" xlink:href="#H" y="197.1894"/><use x="511.78396" xlink:href="#N" y="197.1894"/><use x="491.8065" xlink:href="#y" y="172.4386"/><path d="m4073.046875 1642.459375h4.140625v283.984375h-4.140625zm0 0" fill="none" stroke="#000" stroke-linejoin="round" stroke-miterlimit="10" stroke-width="3.98381" transform="matrix(.1 0 0 -.1 0 330.41)"/><path d="m407.304688 166.164062h.414062v-28.394531h-.414062zm0 0"/><use x="386.836" xlink:href="#T" y="197.189"/><use x="393.809058" xlink:href="#U" y="197.189"/><use x="405.714151" xlink:href="#J" y="197.189"/><use x="396.53639" xlink:href="#y" y="168.0796"/><use x="321.97039" xlink:href="#z" y="133.4097"/><path d="m3213.554688 1686.014062h4.179687v283.984375h-4.179687zm0 0" fill="none" stroke="#000" stroke-linejoin="round" stroke-miterlimit="10" stroke-width="3.98381" transform="matrix(.1 0 0 -.1 0 330.41)"/><path d="m321.355469 161.808594h.414062v-28.398438h-.414062zm0 0"/><use x="299.356" xlink:href="#L" y="197.189"/><use x="310.921248" xlink:href="#M" y="197.189"/><use x="321.295872" xlink:href="#U" y="197.189"/><use x="310.5872" xlink:href="#y" y="163.7206"/><path d="m999.84375 1391.365625h52.539062v3.125h-52.539062zm0 0" fill="none" stroke="#000" stroke-linejoin="round" stroke-miterlimit="10" stroke-width="5.01245" transform="matrix(.1 0 0 -.1 0 330.41)"/><path d="m99.984375 191.273438h5.253906v-.3125h-5.253906zm0 0"/><path d="m2677.851562 1391.365625h52.539063v3.125h-52.539063zm0 0" fill="none" stroke="#000" stroke-linejoin="round" stroke-miterlimit="10" stroke-width="5.01245" transform="matrix(.1 0 0 -.1 0 330.41)"/><path d="m267.785156 191.273438h5.253906v-.3125h-5.253906zm0 0"/><path d="m3573.90625 1391.365625h52.539062v3.125h-52.539062zm0 0" fill="none" stroke="#000" stroke-linejoin="round" stroke-miterlimit="10" stroke-width="5.01245" transform="matrix(.1 0 0 -.1 0 330.41)"/><path d="m357.390625 191.273438h5.253906v-.3125h-5.253906zm0 0"/><path d="m613.28125 1978.865625h1744.921875v37.851562h-1744.921875zm0 0" fill="none" stroke="#000" stroke-linejoin="round" stroke-miterlimit="10" stroke-width="3.98381" transform="matrix(.1 0 0 -.1 0 330.41)"/><path d="m61.328125 132.523438h174.492187v-3.785157h-174.492187zm0 0"/><path d="m4448.125 1391.365625h52.539062v3.125h-52.539062zm0 0" fill="none" stroke="#000" stroke-linejoin="round" stroke-miterlimit="10" stroke-width="5.01245" transform="matrix(.1 0 0 -.1 0 330.41)"/><path d="m444.8125 191.273438h5.253906v-.3125h-5.253906zm0 0"/><use x="6.97383" xlink:href="#A" y="155.004"/><use x="50.56053" xlink:href="#y" y="163.72119"/><path d="m2354.0625 1729.607812h4.179688v266.210938h-4.179688zm0 0" fill="none" stroke="#000" stroke-linejoin="round" stroke-miterlimit="10" stroke-width="3.98381" transform="matrix(.1 0 0 -.1 0 330.41)"/><path d="m235.40625 157.449219h.414062v-26.621094h-.414062zm0 0"/><use x="219.19" xlink:href="#H" y="197.189"/><use x="229.564232" xlink:href="#U" y="197.189"/><use x="224.63844" xlink:href="#y" y="159.362"/><path d="m1494.570312 1773.201562h4.140626v222.617188h-4.140626zm0 0" fill="none" stroke="#000" stroke-linejoin="round" stroke-miterlimit="10" stroke-width="3.98381" transform="matrix(.1 0 0 -.1 0 330.41)"/><path d="m149.457031 153.089844h.414063v-22.257813h-.414063zm0 0"/><use x="130.094" xlink:href="#V" y="197.189"/><use x="141.999105" xlink:href="#W" y="197.189"/><use x="153.904211" xlink:href="#R" y="197.189"/><use x="138.68931" xlink:href="#y" y="155.0035"/><path d="m613.28125 1686.014062h4.179688v309.804688h-4.179688zm0 0" fill="none" stroke="#000" stroke-linejoin="round" stroke-miterlimit="10" stroke-width="3.98381" transform="matrix(.1 0 0 -.1 0 330.41)"/><path d="m61.328125 161.808594h.414063v-30.980469h-.414063zm0 0"/><use x="37.3727" xlink:href="#E" y="197.189"/><use x="48.088346" xlink:href="#F" y="197.189"/><use x="58.803602" xlink:href="#X" y="197.189"/><use x="64.415725" xlink:href="#Y" y="197.189"/><g clip-path="url(#s)"><path d="m3.125 620.81875h5946.523438" style="fill:none;stroke-width:6.25903;stroke-linecap:round;stroke-linejoin:round;stroke:#000;stroke-miterlimit:10" transform="matrix(.1 0 0 -.1 0 330.41)"/></g><g clip-path="url(#t)"><path d="m3.125 707.967187h5946.523438" style="fill:none;stroke-width:6.25903;stroke-linecap:round;stroke-linejoin:round;stroke:#000;stroke-miterlimit:10" transform="matrix(.1 0 0 -.1 0 330.41)"/></g><g clip-path="url(#u)"><path d="m3.125 795.154687h5946.523438" style="fill:none;stroke-width:6.25903;stroke-linecap:round;stroke-linejoin:round;stroke:#000;stroke-miterlimit:10" transform="matrix(.1 0 0 -.1 0 330.41)"/></g><g clip-path="url(#v)"><path d="m3.125 882.342187h5946.523438" style="fill:none;stroke-width:6.25903;stroke-linecap:round;stroke-linejoin:round;stroke:#000;stroke-miterlimit:10" transform="matrix(.1 0 0 -.1 0 330.41)"/></g><g clip-path="url(#w)"><path d="m3.125 969.490625h5946.523438" style="fill:none;stroke-width:6.25903;stroke-linecap:round;stroke-linejoin:round;stroke:#000;stroke-miterlimit:10" transform="matrix(.1 0 0 -.1 0 330.41)"/></g><path d="m2984.765625 945.35h7.929687v25.3125h-7.929687zm0 0" style="fill:none;stroke-width:3.98381;stroke-linecap:round;stroke-linejoin:round;stroke:#000;stroke-miterlimit:10" transform="matrix(.1 0 0 -.1 0 330.41)"/><path d="m298.476562 235.875h.792969v-2.53125h-.792969zm0 0"/><path d="m2984.765625 858.1625h7.929687v48.320312h-7.929687zm0 0" style="fill:none;stroke-width:3.98381;stroke-linecap:round;stroke-linejoin:round;stroke:#000;stroke-miterlimit:10" transform="matrix(.1 0 0 -.1 0 330.41)"/><path d="m298.476562 244.59375h.792969v-4.832031h-.792969zm0 0"/><path d="m2984.765625 771.014062h7.929687v48.320313h-7.929687zm0 0" style="fill:none;stroke-width:3.98381;stroke-linecap:round;stroke-linejoin:round;stroke:#000;stroke-miterlimit:10" transform="matrix(.1 0 0 -.1 0 330.41)"/><path d="m298.476562 253.308594h.792969v-4.832032h-.792969zm0 0"/><path d="m2984.765625 683.826562h7.929687v48.320313h-7.929687zm0 0" style="fill:none;stroke-width:3.98381;stroke-linecap:round;stroke-linejoin:round;stroke:#000;stroke-miterlimit:10" transform="matrix(.1 0 0 -.1 0 330.41)"/><path d="m298.476562 262.027344h.792969v-4.832032h-.792969zm0 0"/><path d="m2984.765625 619.685937h7.929687v25.273438h-7.929687zm0 0" style="fill:none;stroke-width:3.98381;stroke-linecap:round;stroke-linejoin:round;stroke:#000;stroke-miterlimit:10" transform="matrix(.1 0 0 -.1 0 330.41)"/><path d="m298.476562 268.441406h.792969v-2.527344h-.792969zm0 0"/><g clip-path="url(#x)"><path d="m5933.984375 620.81875v348.671875" fill="none" stroke="#000" stroke-linejoin="round" stroke-miterlimit="10" stroke-width="37.5716" transform="matrix(.1 0 0 -.1 0 330.41)"/></g><path d="m5890.46875 620.81875v348.671875" fill="none" stroke="#000" stroke-linejoin="round" stroke-miterlimit="10" stroke-width="11.8991" transform="matrix(.1 0 0 -.1 0 330.41)"/><use x="486.176" xlink:href="#y" y="250.894"/><use x="395.3248" xlink:href="#y" y="255.25298"/><use x="390.30136" xlink:href="#Z" y="300.00498"/><use x="396.254102" xlink:href="#I" y="300.00498"/><use x="401.01661" xlink:href="#H" y="300.00498"/><path d="m4060.9375 770.701562h4.140625v214.609375h-4.140625zm0 0" fill="none" stroke="#000" stroke-linejoin="round" stroke-miterlimit="10" stroke-width="3.98381" transform="matrix(.1 0 0 -.1 0 330.41)"/><path d="m406.09375 253.339844h.414062v-21.460938h-.414062zm0 0"/><use x="441.128" xlink:href="#y" y="246.5354"/><use x="434.91355" xlink:href="#L" y="300.0049"/><use x="446.818643" xlink:href="#K" y="300.0049"/><path d="m4413.28125 535.623437h4.140625v283.984375h-4.140625zm0 0" fill="none" stroke="#000" stroke-linejoin="round" stroke-miterlimit="10" stroke-width="3.98381" transform="matrix(.1 0 0 -.1 0 330.41)"/><path d="m441.328125 276.847656h.414063v-28.398437h-.414063zm0 0"/><use x="441.941" xlink:href="#C" y="276.8463"/><use x="350.2769" xlink:href="#y" y="259.6115"/><use x="344.06323" xlink:href="#O" y="300.0049"/><use x="355.968323" xlink:href="#S" y="300.0049"/><path d="m3610.46875 727.146875h4.140625v258.164062h-4.140625zm0 0" fill="none" stroke="#000" stroke-linejoin="round" stroke-miterlimit="10" stroke-width="3.98381" transform="matrix(.1 0 0 -.1 0 330.41)"/><path d="m361.046875 257.699219h.414063v-25.820313h-.414063zm0 0"/><path d="m4687.578125 363.201562h52.539063v3.125h-52.539063zm0 0" fill="none" stroke="#000" stroke-linejoin="round" stroke-miterlimit="10" stroke-width="5.01245" transform="matrix(.1 0 0 -.1 0 330.41)"/><path d="m468.757812 294.089844h5.25v-.3125h-5.25zm0 0"/><path d="m5105.703125 363.201562h52.5v3.125h-52.5zm0 0" fill="none" stroke="#000" stroke-linejoin="round" stroke-miterlimit="10" stroke-width="5.01245" transform="matrix(.1 0 0 -.1 0 330.41)"/><path d="m510.570312 294.089844h5.25v-.3125h-5.25zm0 0"/><path d="m3159.960938 968.357812h905.117187v37.851563h-905.117187zm0 0" fill="none" stroke="#000" stroke-linejoin="round" stroke-miterlimit="10" stroke-width="3.98381" transform="matrix(.1 0 0 -.1 0 330.41)"/><path d="m315.996094 233.574219h90.511718v-3.785157h-90.511718zm0 0"/><path d="m3764.609375 363.201562h52.539063v3.125h-52.539063zm0 0" fill="none" stroke="#000" stroke-linejoin="round" stroke-miterlimit="10" stroke-width="5.01245" transform="matrix(.1 0 0 -.1 0 330.41)"/><path d="m376.460938 294.089844h5.253906v-.3125h-5.253906zm0 0"/><path d="m3278.4375 363.201562h52.5v3.125h-52.5zm0 0" fill="none" stroke="#000" stroke-linejoin="round" stroke-miterlimit="10" stroke-width="5.01245" transform="matrix(.1 0 0 -.1 0 330.41)"/><path d="m327.84375 294.089844h5.25v-.3125h-5.25zm0 0"/><path d="m507.617188 584.1h973.359374v37.851562h-973.359374zm0 0" fill="none" stroke="#000" stroke-linejoin="round" stroke-miterlimit="10" stroke-width="3.98381" transform="matrix(.1 0 0 -.1 0 330.41)"/><path d="m50.761719 272h97.335937v-3.785156h-97.335937zm0 0"/><path d="m2224.921875 363.201562h52.539063v3.125h-52.539063zm0 0" fill="none" stroke="#000" stroke-linejoin="round" stroke-miterlimit="10" stroke-width="5.01245" transform="matrix(.1 0 0 -.1 0 330.41)"/><path d="m222.492188 294.089844h5.253906v-.3125h-5.253906zm0 0"/><path d="m1894.960938 363.201562h52.539062v3.125h-52.539062zm0 0" fill="none" stroke="#000" stroke-linejoin="round" stroke-miterlimit="10" stroke-width="5.01245" transform="matrix(.1 0 0 -.1 0 330.41)"/><path d="m189.496094 294.089844h5.25v-.3125h-5.25zm0 0"/><path d="m5460.664062 770.701562h4.179688v283.984375h-4.179688zm0 0" fill="none" stroke="#000" stroke-linejoin="round" stroke-miterlimit="10" stroke-width="3.98381" transform="matrix(.1 0 0 -.1 0 330.41)"/><path d="m546.066406 253.339844h.417969v-28.398438h-.417969zm0 0"/><path d="m4863.75 506.560937h4.140625v269.453125h-4.140625zm0 0" fill="none" stroke="#000" stroke-linejoin="round" stroke-miterlimit="10" stroke-width="3.98381" transform="matrix(.1 0 0 -.1 0 330.41)"/><path d="m486.375 279.753906h.414062v-26.945312h-.414062zm0 0"/><use x="535.298" xlink:href="#y" y="255.253"/><use x="540.9898" xlink:href="#D" y="222.4409"/><use x="526.7031" xlink:href="#G" y="300.005"/><use x="538.608193" xlink:href="#H" y="300.005"/><use x="549.323467" xlink:href="#aa" y="300.005"/><use x="550.6625" xlink:href="#B" y="255.253"/><use x="484.043" xlink:href="#H" y="300.005"/><use x="494.928587" xlink:href="#I" y="300.005"/><use x="50.56" xlink:href="#y" y="246.5355"/><use x="34.4815" xlink:href="#ab" y="300.005"/><use x="52.340127" xlink:href="#G" y="300.005"/><use x="64.245226" xlink:href="#T" y="300.005"/><use x="72.069066" xlink:href="#Z" y="300.005"/><path d="m507.617188 604.998437h4.140624v214.609375h-4.140624zm0 0" fill="none" stroke="#000" stroke-linejoin="round" stroke-miterlimit="10" stroke-width="3.98381" transform="matrix(.1 0 0 -.1 0 330.41)"/><path d="m50.761719 269.910156h.414062v-21.460937h-.414062zm0 0"/><use x="95.6078" xlink:href="#y" y="242.1768"/><use x="95.346472" xlink:href="#S" y="300.0049"/><path d="m958.085938 604.998437h4.140624v258.203125h-4.140624zm0 0" fill="none" stroke="#000" stroke-linejoin="round" stroke-miterlimit="10" stroke-width="3.98381" transform="matrix(.1 0 0 -.1 0 330.41)"/><path d="m95.808594 269.910156h.414062v-25.820312h-.414062zm0 0"/><use x="6.97383" xlink:href="#A" y="259.6116"/><path d="m2031.289062 502.928125h4.179688v273.085937h-4.179688zm0 0" fill="none" stroke="#000" stroke-linejoin="round" stroke-miterlimit="10" stroke-width="3.98381" transform="matrix(.1 0 0 -.1 0 330.41)"/><path d="m203.128906 280.117188h.417969v-27.308594h-.417969zm0 0"/><path d="m2597.890625 770.701562h4.179687v283.984375h-4.179687zm0 0" fill="none" stroke="#000" stroke-linejoin="round" stroke-miterlimit="10" stroke-width="3.98381" transform="matrix(.1 0 0 -.1 0 330.41)"/><path d="m259.789062 253.339844h.417969v-28.398438h-.417969zm0 0"/><use x="232.094" xlink:href="#E" y="300.0049"/><use x="242.80925" xlink:href="#F" y="300.0049"/><use x="253.5245" xlink:href="#ac" y="300.0049"/><use x="265.429983" xlink:href="#J" y="300.0049"/><use x="249.0229" xlink:href="#y" y="255.2529"/><use x="203.7444" xlink:href="#C" y="280.1154"/><use x="305.2294" xlink:href="#y" y="255.2529"/><use x="199.0974" xlink:href="#P" y="300.0049"/><use x="211.002493" xlink:href="#T" y="300.0049"/><use x="147.4829" xlink:href="#y" y="246.5354"/><use x="121.2005" xlink:href="#ad" y="300.0049"/><use x="139.058742" xlink:href="#G" y="300.0049"/><use x="150.963848" xlink:href="#L" y="300.0049"/><use x="162.869344" xlink:href="#L" y="300.0049"/><use x="174.434605" xlink:href="#M" y="300.0049"/><path d="m1476.835938 604.998437h4.140624v214.609375h-4.140624zm0 0" fill="none" stroke="#000" stroke-linejoin="round" stroke-miterlimit="10" stroke-width="3.98381" transform="matrix(.1 0 0 -.1 0 330.41)"/><path d="m147.683594 269.910156h.414062v-21.460937h-.414062zm0 0"/><use x="202.93" xlink:href="#y" y="250.894"/><path d="m3159.960938 770.701562h4.179687v214.609375h-4.179687zm0 0" fill="none" stroke="#000" stroke-linejoin="round" stroke-miterlimit="10" stroke-width="3.98381" transform="matrix(.1 0 0 -.1 0 330.41)"/><path d="m315.996094 253.339844h.417968v-21.460938h-.417968zm0 0"/><use x="304.968" xlink:href="#S" y="300.0049"/></svg>