<svg height="839em" viewBox="0 0 595.28 839" width="595.28em" xmlns="http://www.w3.org/2000/svg" xmlns:xlink="http://www.w3.org/1999/xlink"><clipPath id="a"><path d="m0 67h595.28125v2h-595.28125zm0 0"/></clipPath><clipPath id="b"><path d="m0 58h595.28125v2h-595.28125zm0 0"/></clipPath><clipPath id="c"><path d="m0 50h595.28125v2h-595.28125zm0 0"/></clipPath><clipPath id="d"><path d="m0 42h595.28125v1h-595.28125zm0 0"/></clipPath><clipPath id="e"><path d="m0 33h595.28125v2h-595.28125zm0 0"/></clipPath><clipPath id="f"><path d="m0 169h595.28125v1h-595.28125zm0 0"/></clipPath><clipPath id="g"><path d="m0 160h595.28125v2h-595.28125zm0 0"/></clipPath><clipPath id="h"><path d="m0 152h595.28125v1h-595.28125zm0 0"/></clipPath><clipPath id="i"><path d="m0 143h595.28125v2h-595.28125zm0 0"/></clipPath><clipPath id="j"><path d="m0 135h595.28125v1h-595.28125zm0 0"/></clipPath><clipPath id="k"><path d="m0 270h595.28125v2h-595.28125zm0 0"/></clipPath><clipPath id="l"><path d="m0 262h595.28125v1h-595.28125zm0 0"/></clipPath><clipPath id="m"><path d="m0 253h595.28125v2h-595.28125zm0 0"/></clipPath><clipPath id="n"><path d="m0 245h595.28125v1h-595.28125zm0 0"/></clipPath><clipPath id="o"><path d="m0 236h595.28125v2h-595.28125zm0 0"/></clipPath><clipPath id="p"><path d="m0 372h595.28125v1h-595.28125zm0 0"/></clipPath><clipPath id="q"><path d="m0 363h595.28125v2h-595.28125zm0 0"/></clipPath><clipPath id="r"><path d="m0 355h595.28125v1h-595.28125zm0 0"/></clipPath><clipPath id="s"><path d="m0 346h595.28125v2h-595.28125zm0 0"/></clipPath><clipPath id="t"><path d="m0 338h595.28125v2h-595.28125zm0 0"/></clipPath><clipPath id="u"><path d="m0 473h595.28125v2h-595.28125zm0 0"/></clipPath><clipPath id="v"><path d="m0 465h595.28125v2h-595.28125zm0 0"/></clipPath><clipPath id="w"><path d="m0 456h595.28125v2h-595.28125zm0 0"/></clipPath><clipPath id="x"><path d="m0 448h595.28125v2h-595.28125zm0 0"/></clipPath><clipPath id="y"><path d="m0 440h595.28125v1h-595.28125zm0 0"/></clipPath><clipPath id="z"><path d="m0 575h595.28125v2h-595.28125zm0 0"/></clipPath><clipPath id="A"><path d="m0 567h595.28125v1h-595.28125zm0 0"/></clipPath><clipPath id="B"><path d="m0 558h595.28125v2h-595.28125zm0 0"/></clipPath><clipPath id="C"><path d="m0 550h595.28125v1h-595.28125zm0 0"/></clipPath><clipPath id="D"><path d="m0 541h595.28125v2h-595.28125zm0 0"/></clipPath><clipPath id="E"><path d="m0 677h595.28125v1h-595.28125zm0 0"/></clipPath><clipPath id="F"><path d="m0 668h595.28125v2h-595.28125zm0 0"/></clipPath><clipPath id="G"><path d="m0 660h595.28125v1h-595.28125zm0 0"/></clipPath><clipPath id="H"><path d="m0 651h595.28125v2h-595.28125zm0 0"/></clipPath><clipPath id="I"><path d="m0 643h595.28125v1h-595.28125zm0 0"/></clipPath><clipPath id="J"><path d="m0 778h595.28125v2h-595.28125zm0 0"/></clipPath><clipPath id="K"><path d="m0 770h595.28125v1h-595.28125zm0 0"/></clipPath><clipPath id="L"><path d="m0 761h595.28125v2h-595.28125zm0 0"/></clipPath><clipPath id="M"><path d="m0 753h595.28125v1h-595.28125zm0 0"/></clipPath><clipPath id="N"><path d="m0 744h595.28125v2h-595.28125zm0 0"/></clipPath><clipPath id="O"><path d="m591 743h4.28125v38h-4.28125zm0 0"/></clipPath><symbol id="P" overflow="visible"><path d="m5.3125-10.953125h-1.796875v-3.015625h-1.734375v3.015625h-1.484375v1.421875h1.484375v8.28125c0 1.125.75 1.734375 2.109375 1.734375.453125 0 .828125-.046875 1.421875-.15625v-1.453125c-.25.0625-.484375.078125-.84375.078125-.75 0-.953125-.203125-.953125-.984375v-7.5h1.796875zm0 0"/></symbol><symbol id="Q" overflow="visible"><path d="m3.140625-10.953125h-1.734375v10.953125h1.734375zm0-4.28125h-1.765625v2.1875h1.765625zm0 0"/></symbol><symbol id="R" overflow="visible"><path d="m9.15625-7.90625c-.015625-2.15625-1.4375-3.359375-3.96875-3.359375-2.546875 0-4.203125 1.3125-4.203125 3.34375 0 1.71875.875 2.53125 3.46875 3.15625l1.625.390625c1.21875.296875 1.703125.734375 1.703125 1.515625 0 1.046875-1.03125 1.734375-2.5625 1.734375-.9375 0-1.734375-.28125-2.171875-.734375-.265625-.3125-.390625-.625-.5-1.40625h-1.84375c.09375 2.53125 1.515625 3.75 4.375 3.75 2.765625 0 4.515625-1.359375 4.515625-3.46875 0-1.640625-.921875-2.53125-3.09375-3.0625l-1.671875-.390625c-1.421875-.34375-2.03125-.796875-2.03125-1.5625 0-1.03125.90625-1.65625 2.328125-1.65625 1.390625 0 2.15625.609375 2.1875 1.75zm0 0"/></symbol><symbol id="S" overflow="visible"><path d="m9.265625-10.953125h-8.171875v1.53125h6.09375l-6.546875 7.859375v1.5625h8.90625v-1.53125h-6.78125l6.5-7.875zm0 0"/></symbol><symbol id="T" overflow="visible"><path d="m10.71875-4.890625c0-1.671875-.125-2.671875-.4375-3.5-.703125-1.796875-2.375-2.875-4.421875-2.875-3.0625 0-5.015625 2.3125-5.015625 5.9375 0 3.609375 1.875 5.8125 4.96875 5.8125 2.515625 0 4.25-1.421875 4.6875-3.8125h-1.765625c-.46875 1.453125-1.453125 2.203125-2.859375 2.203125-1.109375 0-2.046875-.5-2.640625-1.421875-.40625-.625-.5625-1.265625-.578125-2.34375zm-8.015625-1.421875c.140625-2.03125 1.375-3.34375 3.125-3.34375 1.78125 0 3.015625 1.375 3.015625 3.34375zm3.734375-9.15625-2 3.09375h1.25l3.109375-3.09375zm0 0"/></symbol><symbol id="U" overflow="visible"><path d="m1.4375-10.953125v10.953125h1.765625v-5.6875c.015625-2.640625 1.109375-3.796875 3.5-3.734375v-1.78125c-.28125-.046875-.453125-.0625-.65625-.0625-1.140625 0-1.984375.671875-3 2.296875v-1.984375zm0 0"/></symbol><symbol id="V" overflow="visible"><path d="m11.1875-1.03125c-.1875.046875-.28125.046875-.375.046875-.609375 0-.9375-.3125-.9375-.859375v-6.4375c0-1.9375-1.421875-2.984375-4.125-2.984375-1.609375 0-2.890625.453125-3.640625 1.265625-.5.578125-.703125 1.203125-.75 2.28125h1.75c.15625-1.328125.953125-1.9375 2.578125-1.9375 1.59375 0 2.4375.578125 2.4375 1.625v.46875c-.015625.75-.390625 1.015625-1.8125 1.203125-2.46875.3125-2.84375.40625-3.515625.671875-1.265625.546875-1.921875 1.5-1.921875 2.921875 0 1.984375 1.390625 3.25 3.59375 3.25 1.390625 0 2.5-.484375 3.71875-1.609375.140625 1.125.671875 1.609375 1.8125 1.609375.375 0 .59375-.046875 1.1875-.1875zm-3.0625-2.421875c0 .59375-.15625.9375-.6875 1.421875-.703125.65625-1.5625.984375-2.59375.984375-1.359375 0-2.140625-.640625-2.140625-1.75 0-1.15625.75-1.734375 2.625-2.015625 1.859375-.25 2.21875-.328125 2.796875-.609375zm0 0"/></symbol><symbol id="W" overflow="visible"><path d="m1.8125-2.171875v2.171875h1.265625v.375c0 1.4375-.28125 1.859375-1.265625 1.90625v.796875c1.390625.03125 2.203125-.96875 2.203125-2.75v-2.5zm0 0"/></symbol><symbol id="X" overflow="visible"><path d="m11.546875-15.234375v10.703125c0 2.046875-1.484375 3.296875-3.9375 3.296875-1.125 0-2.046875-.265625-2.78125-.796875-.75-.578125-1.109375-1.359375-1.109375-2.5v-10.703125h-1.9375v10.703125c0 3.09375 2.21875 5.015625 5.828125 5.015625 3.578125 0 5.875-1.96875 5.875-5.015625v-10.703125zm0 0"/></symbol><symbol id="Y" overflow="visible"><path d="m10.71875-4.890625c0-1.671875-.125-2.671875-.4375-3.5-.703125-1.796875-2.375-2.875-4.421875-2.875-3.0625 0-5.015625 2.3125-5.015625 5.9375 0 3.609375 1.875 5.8125 4.96875 5.8125 2.515625 0 4.25-1.421875 4.6875-3.8125h-1.765625c-.46875 1.453125-1.453125 2.203125-2.859375 2.203125-1.109375 0-2.046875-.5-2.640625-1.421875-.40625-.625-.5625-1.265625-.578125-2.34375zm-8.015625-1.421875c.140625-2.03125 1.375-3.34375 3.125-3.34375 1.78125 0 3.015625 1.375 3.015625 3.34375zm0 0"/></symbol><symbol id="Z" overflow="visible"><path d="m3.171875-15.234375h-1.75v15.234375h1.75zm0 0"/></symbol><symbol id="aa" overflow="visible"><path d="m10.34375-15.234375h-1.734375v5.65625c-.734375-1.109375-1.90625-1.6875-3.359375-1.6875-2.84375 0-4.703125 2.28125-4.703125 5.765625 0 3.703125 1.796875 5.984375 4.765625 5.984375 1.5 0 2.546875-.5625 3.484375-1.921875v1.4375h1.546875zm-4.796875 5.59375c1.875 0 3.0625 1.65625 3.0625 4.28125 0 2.53125-1.203125 4.203125-3.046875 4.203125-1.921875 0-3.203125-1.6875-3.203125-4.234375s1.28125-4.25 3.1875-4.25zm0 0"/></symbol><symbol id="ab" overflow="visible"><path d="m9.90625-4.578125 1.578125 4.578125h2.171875l-5.359375-15.234375h-2.5l-5.4375 15.234375h2.0625l1.609375-4.578125zm-.546875-1.625h-4.84375l2.515625-6.953125zm-1.625-13.421875-2 3.09375h1.25l3.109375-3.09375zm0 0"/></symbol><symbol id="ac" overflow="visible"><path d="m2.953125-15.234375h-1.734375v15.234375h1.734375v-4.265625l1.6875-1.671875 3.703125 5.9375h2.15625l-4.484375-7.171875 3.8125-3.78125h-2.234375l-4.640625 4.640625zm0 0"/></symbol><symbol id="ad" overflow="visible"><path d="m1.46875-10.953125v10.953125h1.75v-6.875c0-1.59375 1.15625-2.875 2.578125-2.875 1.296875 0 2.015625.796875 2.015625 2.203125v7.546875h1.765625v-6.875c0-1.59375 1.140625-2.875 2.5625-2.875 1.28125 0 2.03125.828125 2.03125 2.203125v7.546875h1.765625v-8.21875c0-1.96875-1.140625-3.046875-3.1875-3.046875-1.453125 0-2.34375.4375-3.359375 1.671875-.65625-1.171875-1.53125-1.671875-2.953125-1.671875-1.46875 0-2.4375.546875-3.359375 1.859375v-1.546875zm0 0"/></symbol><symbol id="ae" overflow="visible"><path d="m1.46875-10.953125v12.546875c0 1.078125-.34375 1.4375-1.421875 1.4375-.125 0-.1875 0-.421875-.015625v1.484375c.203125.03125.3125.0625.578125.0625 1.96875 0 3-.78125 3-2.28125v-13.234375zm1.734375-4.28125h-1.734375v2.1875h1.734375zm0 0"/></symbol><symbol id="af" overflow="visible"><path d="m1.46875-10.953125v10.953125h1.75v-6.046875c0-2.234375 1.171875-3.703125 2.96875-3.703125 1.375 0 2.265625.84375 2.265625 2.15625v7.59375h1.734375v-8.28125c0-1.8125-1.359375-2.984375-3.484375-2.984375-1.625 0-2.671875.625-3.625 2.15625v-1.84375zm0 0"/></symbol><symbol id="ag" overflow="visible"><path d="m8.109375-10.953125-3.03125 8.53125-2.796875-8.53125h-1.859375l3.703125 11-.671875 1.734375c-.296875.765625-.671875 1.0625-1.40625 1.0625-.296875 0-.546875-.046875-.921875-.125v1.5625c.359375.1875.71875.28125 1.171875.28125.5625 0 1.171875-.1875 1.640625-.53125.53125-.390625.84375-.859375 1.1875-1.734375l4.875-13.25zm0 0"/></symbol><symbol id="ah" overflow="visible"><path d="m5.953125 0 4.203125-10.953125h-1.96875l-3.09375 8.890625-2.921875-8.890625h-1.96875l3.859375 10.953125zm0 0"/></symbol><symbol id="ai" overflow="visible"><path d="m5.390625-10.953125h-1.8125v-1.71875c0-.734375.390625-1.109375 1.203125-1.109375.15625 0 .21875 0 .609375.03125v-1.453125c-.390625-.078125-.625-.09375-.984375-.09375-1.609375 0-2.5625.90625-2.5625 2.484375v1.859375h-1.46875v1.421875h1.46875v9.53125h1.734375v-9.53125h1.8125zm0 0"/></symbol><symbol id="aj" overflow="visible"><path d="m5.6875-11.265625c-3.09375 0-4.9375 2.1875-4.9375 5.875 0 3.703125 1.84375 5.875 4.953125 5.875 3.09375 0 4.953125-2.203125 4.953125-5.796875 0-3.796875-1.796875-5.953125-4.96875-5.953125zm.015625 1.609375c1.96875 0 3.140625 1.609375 3.140625 4.328125 0 2.59375-1.21875 4.203125-3.140625 4.203125-1.9375 0-3.125-1.609375-3.125-4.265625s1.1875-4.265625 3.125-4.265625zm-.609375-5.296875h-2.171875v2.15625h2.171875zm3.390625 0h-2.171875v2.15625h2.171875zm0 0"/></symbol><symbol id="ak" overflow="visible"><path d="m4-2.171875h-2.1875v2.171875h2.1875zm0 0"/></symbol><symbol id="al" overflow="visible"><path d="m1.859375 0h5.875c3.84375 0 6.203125-2.890625 6.203125-7.625s-2.328125-7.609375-6.203125-7.609375h-5.875zm1.953125-1.71875v-11.8125h3.59375c3 0 4.59375 2.03125 4.59375 5.921875 0 3.859375-1.59375 5.890625-4.59375 5.890625zm0 0"/></symbol><symbol id="am" overflow="visible"><path d="m8.453125-10.953125v1.59375c-.890625-1.328125-1.84375-1.90625-3.234375-1.90625-2.640625 0-4.484375 2.46875-4.484375 5.96875 0 1.84375.4375 3.1875 1.375 4.296875.8125.953125 1.859375 1.484375 2.984375 1.484375 1.328125 0 2.265625-.59375 3.1875-1.96875v.5625c0 2.921875-.8125 4.015625-2.984375 4.015625-1.484375 0-2.265625-.578125-2.4375-1.84375h-1.765625c.15625 2.03125 1.765625 3.3125 4.15625 3.3125 1.609375 0 2.9375-.53125 3.65625-1.40625.84375-1.03125 1.15625-2.375 1.15625-4.953125v-9.15625zm-3.0625 1.296875c1.84375 0 2.890625 1.546875 2.890625 4.328125 0 2.65625-1.0625 4.203125-2.890625 4.203125-1.796875 0-2.84375-1.578125-2.84375-4.265625 0-2.671875 1.046875-4.265625 2.84375-4.265625zm0 0"/></symbol><symbol id="an" overflow="visible"><path d="m9.84375-7.28125c-.078125-1.0625-.3125-1.75-.734375-2.359375-.75-1.015625-2.0625-1.625-3.59375-1.625-2.96875 0-4.875 2.34375-4.875 5.96875 0 3.546875 1.890625 5.78125 4.859375 5.78125 2.609375 0 4.265625-1.578125 4.46875-4.25h-1.75c-.296875 1.765625-1.1875 2.640625-2.671875 2.640625-1.9375 0-3.078125-1.578125-3.078125-4.171875 0-2.734375 1.125-4.359375 3.03125-4.359375 1.46875 0 2.375.859375 2.59375 2.375zm0 0"/></symbol><symbol id="ao" overflow="visible"><path d="m5.6875-11.265625c-3.09375 0-4.9375 2.1875-4.9375 5.875 0 3.703125 1.84375 5.875 4.953125 5.875 3.09375 0 4.953125-2.203125 4.953125-5.796875 0-3.796875-1.796875-5.953125-4.96875-5.953125zm.015625 1.609375c1.96875 0 3.140625 1.609375 3.140625 4.328125 0 2.59375-1.21875 4.203125-3.140625 4.203125-1.9375 0-3.125-1.609375-3.125-4.265625s1.1875-4.265625 3.125-4.265625zm-.6875-5.8125-2.03125 3.140625h1.265625l3.109375-3.140625zm3.640625 0-2.03125 3.140625h1.25l3.125-3.140625zm0 0"/></symbol><symbol id="ap" overflow="visible"><path d="m9.90625-4.578125 1.578125 4.578125h2.171875l-5.359375-15.234375h-2.5l-5.4375 15.234375h2.0625l1.609375-4.578125zm-.546875-1.625h-4.84375l2.515625-6.953125zm0 0"/></symbol><symbol id="aq" overflow="visible"><path d="m1.125 4.5625h1.765625v-5.71875c.921875 1.140625 1.9375 1.640625 3.359375 1.640625 2.84375 0 4.6875-2.28125 4.6875-5.78125 0-3.671875-1.796875-5.96875-4.703125-5.96875-1.484375 0-2.6875.671875-3.5 1.96875v-1.65625h-1.609375zm4.8125-14.203125c1.921875 0 3.171875 1.703125 3.171875 4.3125 0 2.484375-1.265625 4.171875-3.171875 4.171875-1.859375 0-3.046875-1.671875-3.046875-4.234375 0-2.578125 1.1875-4.25 3.046875-4.25zm0 0"/></symbol><symbol id="ar" overflow="visible"><path d="m7.40625-13.53125h4.984375v-1.703125h-11.953125v1.703125h5.015625v13.53125h1.953125zm0 0"/></symbol><symbol id="as" overflow="visible"><path d="m5.6875-11.265625c-3.09375 0-4.9375 2.1875-4.9375 5.875 0 3.703125 1.84375 5.875 4.953125 5.875 3.09375 0 4.953125-2.203125 4.953125-5.796875 0-3.796875-1.796875-5.953125-4.96875-5.953125zm.015625 1.609375c1.96875 0 3.140625 1.609375 3.140625 4.328125 0 2.59375-1.21875 4.203125-3.140625 4.203125-1.9375 0-3.125-1.609375-3.125-4.265625s1.1875-4.265625 3.125-4.265625zm.53125-5.8125-2.015625 3.09375h1.265625l3.109375-3.09375zm0 0"/></symbol><symbol id="at" overflow="visible"><path d="m11.1875-1.03125c-.1875.046875-.28125.046875-.375.046875-.609375 0-.9375-.3125-.9375-.859375v-6.4375c0-1.9375-1.421875-2.984375-4.125-2.984375-1.609375 0-2.890625.453125-3.640625 1.265625-.5.578125-.703125 1.203125-.75 2.28125h1.75c.15625-1.328125.953125-1.9375 2.578125-1.9375 1.59375 0 2.4375.578125 2.4375 1.625v.46875c-.015625.75-.390625 1.015625-1.8125 1.203125-2.46875.3125-2.84375.40625-3.515625.671875-1.265625.546875-1.921875 1.5-1.921875 2.921875 0 1.984375 1.390625 3.25 3.59375 3.25 1.390625 0 2.5-.484375 3.71875-1.609375.140625 1.125.671875 1.609375 1.8125 1.609375.375 0 .59375-.046875 1.1875-.1875zm-3.0625-2.421875c0 .59375-.15625.9375-.6875 1.421875-.703125.65625-1.5625.984375-2.59375.984375-1.359375 0-2.140625-.640625-2.140625-1.75 0-1.15625.75-1.734375 2.625-2.015625 1.859375-.25 2.21875-.328125 2.796875-.609375zm-1.765625-12.015625-2.03125 3.09375h1.25l3.125-3.09375zm0 0"/></symbol><symbol id="au" overflow="visible"><path d="m12.453125-10.765625c0-1.046875-.0625-1.34375-.390625-2.046875-.828125-1.765625-2.609375-2.671875-5.1875-2.671875-3.34375 0-5.40625 1.703125-5.40625 4.46875 0 1.859375.984375 3.03125 2.984375 3.546875l3.78125 1.015625c1.953125.5 2.796875 1.265625 2.796875 2.453125 0 .828125-.4375 1.65625-1.078125 2.125-.609375.4375-1.5625.640625-2.796875.640625-1.671875 0-2.78125-.390625-3.515625-1.28125-.5625-.65625-.8125-1.390625-.796875-2.328125h-1.84375c.03125 1.390625.296875 2.3125.90625 3.15625 1.046875 1.4375 2.796875 2.171875 5.125 2.171875 1.8125 0 3.296875-.421875 4.28125-1.171875 1.015625-.8125 1.671875-2.171875 1.671875-3.5 0-1.875-1.171875-3.25-3.234375-3.8125l-3.828125-1.03125c-1.84375-.5-2.515625-1.09375-2.515625-2.265625 0-1.546875 1.359375-2.5625 3.40625-2.5625 2.421875 0 3.78125 1.078125 3.8125 3.09375zm0 0"/></symbol><symbol id="av" overflow="visible"><path d="m5.6875-11.265625c-3.09375 0-4.9375 2.1875-4.9375 5.875 0 3.703125 1.84375 5.875 4.953125 5.875 3.09375 0 4.953125-2.203125 4.953125-5.796875 0-3.796875-1.796875-5.953125-4.96875-5.953125zm.015625 1.609375c1.96875 0 3.140625 1.609375 3.140625 4.328125 0 2.59375-1.21875 4.203125-3.140625 4.203125-1.9375 0-3.125-1.609375-3.125-4.265625s1.1875-4.265625 3.125-4.265625zm0 0"/></symbol><symbol id="aw" overflow="visible"><path d="m3.703125-10.953125h-1.734375v10.953125h1.734375zm-.34375-4.515625-2 3.09375h1.25l3.125-3.09375zm0 0"/></symbol><symbol id="ax" overflow="visible"><path d="m10.078125 0v-10.953125h-1.734375v6.203125c0 2.234375-1.171875 3.703125-2.984375 3.703125-1.390625 0-2.265625-.828125-2.265625-2.15625v-7.75h-1.734375v8.4375c0 1.828125 1.359375 3 3.484375 3 1.609375 0 2.640625-.5625 3.671875-2.015625v1.53125zm-3.890625-15.46875-2 3.09375h1.25l3.109375-3.09375zm0 0"/></symbol><symbol id="ay" overflow="visible"><path d="m9.78125 0 4.28125-12.78125v12.78125h1.84375v-15.234375h-2.6875l-4.4375 13.265625-4.515625-13.265625h-2.703125v15.234375h1.84375v-12.78125l4.328125 12.78125zm0 0"/></symbol><symbol id="az" overflow="visible"><path d="m7.515625-4.578125c-1.421875 0-2.765625.484375-4 1.21875-1.578125.953125-3.515625 2.609375-3.515625 5.015625 0 2 1.765625 2.921875 3.5625 2.921875 1.421875 0 2.765625-.484375 3.984375-1.21875 1.59375-.953125 3.5-2.609375 3.5-5.015625 0-2-1.734375-2.921875-3.53125-2.921875zm0 0"/></symbol><symbol id="aA" overflow="visible"><path d="m10.703125-2.265625c0 .328125-.09375.703125-.34375.984375-.703125.84375-2.328125 1.890625-3.625 2.703125-1.28125.8125-2.90625 1.890625-3.953125 2.203125-.140625.03125-.3125.0625-.4375.0625-.75 0-1.421875-.578125-1.421875-1.421875 0-.328125.09375-.703125.328125-.984375.71875-.84375 2.34375-1.890625 3.625-2.703125 1.296875-.8125 2.921875-1.890625 3.96875-2.203125.140625-.03125.296875-.0625.4375-.0625.75 0 1.421875.578125 1.421875 1.421875zm-1.71875-2.3125c-2.546875 0-4.609375.546875-6.40625 1.765625-1.09375.75-1.796875 1.890625-2.203125 3.15625-.203125.609375-.375 1.28125-.375 1.921875 0 1.59375 1.15625 2.3125 2.640625 2.3125 2.546875 0 4.609375-.546875 6.40625-1.765625 1.078125-.75 1.796875-1.890625 2.203125-3.15625.203125-.609375.375-1.28125.375-1.921875 0-1.59375-1.15625-2.3125-2.640625-2.3125zm0 0"/></symbol><symbol id="aB" overflow="visible"><path d="m12.671875-8.8125c-.546875-2.359375-1.1875-4.703125-1.859375-7.046875 3.25-3.6875 6.1875-7.484375 6.1875-12.359375 0-3.828125-2.09375-9.3125-4.46875-12.15625-.171875-.140625-.375-.140625-.546875 0-3.203125 2.328125-5.078125 6.0625-5.078125 9.984375 0 1.765625.03125 3.5.234375 5.21875.25 2.203125.8125 4.34375 1.4375 6.46875-4 4.546875-8.515625 8.875-8.515625 14.90625 0 6.8125 4.921875 12.609375 11.28125 12.609375 1.046875 0 2.03125-.109375 3.015625-.28125.109375 1.09375.171875 2.171875.171875 3.25 0 .609375-.03125 1.1875-.0625 1.796875-.203125 3.359375-2.28125 6.4375-5.421875 6.515625-.03125 0-.0625.03125-.109375.03125-1.71875 0-3.21875-.984375-4.09375-2.375.375.171875.78125.3125 1.1875.3125 1.765625 0 3.21875-1.46875 3.21875-3.21875 0-1.90625-1.390625-3.53125-3.21875-3.53125-2 0-3.796875 1.5625-3.796875 3.53125 0 3.65625 2.953125 6.59375 6.609375 6.59375 4 0 6.734375-3.578125 6.96875-7.65625.046875-.640625.046875-1.25.046875-1.890625 0-1.21875-.078125-2.4375-.171875-3.65625.875-.28125 1.71875-.6875 2.46875-1.25 2.5-1.875 3.625-4.484375 3.625-7.046875 0-4.484375-3.390625-8.78125-8.609375-8.78125-.15625 0-.328125.03125-.5.03125zm2.875 15.75c-.46875-4.1875-1.25-8.1875-2.09375-12.15625 3.71875.3125 6.0625 3.421875 6.0625 6.546875 0 2.359375-1.625 4.796875-3.96875 5.609375zm-13.140625-7.984375c0-5.421875 3.65625-9.515625 7.3125-13.625.546875 2 1.09375 4 1.5625 6.03125-3.421875.78125-5.359375 3.65625-5.359375 6.640625 0 2.375 1.21875 4.78125 3.9375 6.234375.09375.03125.203125.0625.296875.0625.375 0 .6875-.328125.6875-.703125 0-.171875-.109375-.34375-.234375-.484375-1.90625-1.078125-2.78125-2.703125-2.78125-4.1875 0-2 1.5625-3.796875 4.234375-4.109375.875 4.0625 1.65625 8.09375 2.171875 12.4375-.921875.140625-1.84375.203125-2.78125.203125-4.609375 0-9.046875-3.890625-9.046875-8.5zm11.515625-34.515625c.578125 1.796875.71875 2.671875.71875 4.640625 0 4.296875-2.28125 7.71875-5.046875 11-.609375-2.125-1.125-4.203125-1.125-6.765625 0-3.765625 2.09375-7.1875 5.453125-8.875zm0 0"/></symbol><symbol id="aC" overflow="visible"><path d="m12.4375 0c.125 0 .265625-.140625.265625-.265625v-4.75c0-.140625-.140625-.265625-.265625-.265625h-12.171875c-.125 0-.265625.125-.265625.265625v4.75c0 .125.140625.265625.265625.265625zm0 0"/></symbol><symbol id="aD" overflow="visible"><path d="m-.78125 3.828125c0 1.828125 1.59375 5.046875 3.15625 6.90625.203125.234375.53125-.0625.328125-.296875-.5625-.71875-.9375-2.078125-.9375-3.25 0-1.390625.40625-2.375 1.75-2.375 1.234375 0 2.8125.703125 3.46875 1.453125.09375.140625.234375.171875.328125.171875.234375 0 .484375-.234375.484375-.46875 0-.109375-.046875-.171875-.109375-.28125l-2.9375-3.515625c-.546875-.6875-.828125-1.453125-.828125-2.28125 0-1.046875.453125-2.125 1.328125-2.875 1.25-1.078125 2.90625-2.125 2.90625-3.25 0-.265625-.09375-.578125-.328125-.84375l-5.15625-6.171875c-.09375-.125-.234375-.171875-.328125-.171875-.25 0-.484375.25-.484375.484375 0 .09375.03125.203125.109375.296875l1.3125 1.5625c.546875.671875.8125 1.453125.8125 2.265625 0 1.0625-.4375 2.140625-1.3125 2.890625-1.25 1.078125-2.921875 2.125-2.921875 3.25 0 .265625.109375.578125.34375.84375l4.640625 5.546875c-1.53125-.734375-3.25-1.25-4.40625-1.25-.875 0-1.21875.484375-1.21875 1.359375zm0 0"/></symbol><symbol id="aE" overflow="visible"><path d="m7.28125-3.859375c2.671875 0 4.671875 2.0625 4.671875 4.734375 0 1.5625-.671875 2.984375-2.359375 2.984375-2.6875 0-4.71875-2.0625-4.71875-4.734375 0-1.5625.71875-2.984375 2.40625-2.984375zm9.546875 3.859375c0-1.453125-1.171875-2.5-2.46875-3.21875-1.828125-.984375-3.859375-1.359375-5.921875-1.359375s-4.140625.375-5.96875 1.359375c-1.28125.71875-2.46875 1.765625-2.46875 3.21875s1.1875 2.5 2.46875 3.21875c1.828125.984375 3.90625 1.359375 5.96875 1.359375s4.09375-.375 5.921875-1.359375c1.296875-.71875 2.46875-1.765625 2.46875-3.21875zm0 0"/></symbol><symbol id="aF" overflow="visible"><path d="m4.4375-9.109375v9.109375h2.609375v-13.203125h-1.734375c-.421875 1.5625-1.78125 2.359375-4.046875 2.359375v1.734375zm0 0"/></symbol><symbol id="aG" overflow="visible"><path d="m3.984375-2.71875h-2.796875v2.71875h2.796875zm0 0"/></symbol><symbol id="aH" overflow="visible"><path d="m7.5625-1.609375c0 .25-.0625.5-.234375.703125-.5.59375-1.65625 1.34375-2.5625 1.90625-.90625.578125-2.0625 1.34375-2.796875 1.5625-.09375.03125-.21875.046875-.3125.046875-.53125 0-1.015625-.40625-1.015625-1 0-.25.078125-.5.25-.703125.5-.59375 1.640625-1.34375 2.5625-1.90625.90625-.578125 2.0625-1.34375 2.796875-1.5625.09375-.03125.21875-.046875.3125-.046875.53125 0 1 .40625 1 1zm-1.21875-1.625c-1.796875 0-3.25.390625-4.515625 1.25-.78125.515625-1.28125 1.34375-1.5625 2.21875-.140625.4375-.265625.921875-.265625 1.375 0 1.125.8125 1.625 1.875 1.625 1.796875 0 3.25-.390625 4.515625-1.25.765625-.515625 1.28125-1.34375 1.5625-2.21875.140625-.4375.265625-.921875.265625-1.375 0-1.125-.8125-1.625-1.875-1.625zm0 0"/></symbol><path d="m2726.25 7627.890625h159.648438" fill="none" stroke="#000" stroke-linecap="round" stroke-miterlimit="10" stroke-width="14.6416" transform="matrix(.1 0 0 -.1 0 839)"/><g clip-path="url(#a)"><path d="m3.085938 7712.578125h5946.601562" fill="none" stroke="#000" stroke-linecap="round" stroke-miterlimit="10" stroke-width="6.17335" transform="matrix(.1 0 0 -.1 0 839)"/></g><g clip-path="url(#b)"><path d="m3.085938 7797.265625h5946.601562" fill="none" stroke="#000" stroke-linecap="round" stroke-miterlimit="10" stroke-width="6.17335" transform="matrix(.1 0 0 -.1 0 839)"/></g><g clip-path="url(#c)"><path d="m3.085938 7881.953125h5946.601562" fill="none" stroke="#000" stroke-linecap="round" stroke-miterlimit="10" stroke-width="6.17335" transform="matrix(.1 0 0 -.1 0 839)"/></g><g clip-path="url(#d)"><path d="m3.085938 7966.601562h5946.601562" fill="none" stroke="#000" stroke-linecap="round" stroke-miterlimit="10" stroke-width="6.17335" transform="matrix(.1 0 0 -.1 0 839)"/></g><g clip-path="url(#e)"><path d="m3.085938 8051.289062h5946.601562" fill="none" stroke="#000" stroke-linecap="round" stroke-miterlimit="10" stroke-width="6.17335" transform="matrix(.1 0 0 -.1 0 839)"/></g><path d="m3951.71875 7773.554688h4.023438v275.742187h-4.023438zm0 0" style="fill:none;stroke-width:3.98854;stroke-linecap:round;stroke-linejoin:round;stroke:#000;stroke-miterlimit:10" transform="matrix(.1 0 0 -.1 0 839)"/><path d="m395.171875 61.644531h.402344v-27.574219h-.402344zm0 0"/><path d="m4979.296875 7815.898438h4.0625v275.742187h-4.0625zm0 0" style="fill:none;stroke-width:3.98854;stroke-linecap:round;stroke-linejoin:round;stroke:#000;stroke-miterlimit:10" transform="matrix(.1 0 0 -.1 0 839)"/><path d="m497.929688 57.410156h.402343v-27.574218h-.402343zm0 0"/><use x="477.442" xlink:href="#P" y="100.413"/><use x="483.224786" xlink:href="#Q" y="100.413"/><use x="487.817357" xlink:href="#R" y="100.413"/><use x="498.191591" xlink:href="#S" y="100.413"/><use x="487.4752" xlink:href="#az" y="59.2743"/><path d="m4465.507812 7815.898438h4.023438v275.742187h-4.023438zm0 0" style="fill:none;stroke-width:3.98854;stroke-linecap:round;stroke-linejoin:round;stroke:#000;stroke-miterlimit:10" transform="matrix(.1 0 0 -.1 0 839)"/><path d="m446.550781 57.410156h.402344v-27.574218h-.402344zm0 0"/><use x="430.654" xlink:href="#T" y="100.413"/><use x="442.219231" xlink:href="#R" y="100.413"/><use x="436.0958" xlink:href="#az" y="59.2743"/><use x="538.8548" xlink:href="#aA" y="55.04032"/><use x="375.5328" xlink:href="#U" y="100.41302"/><use x="382.336304" xlink:href="#V" y="100.41302"/><use x="393.730833" xlink:href="#P" y="100.41302"/><use x="399.173409" xlink:href="#W" y="100.41302"/><use x="384.71561" xlink:href="#az" y="63.50872"/><path d="m3437.890625 7773.554688h4.0625v275.742187h-4.0625zm0 0" style="fill:none;stroke-width:3.98854;stroke-linecap:round;stroke-linejoin:round;stroke:#000;stroke-miterlimit:10" transform="matrix(.1 0 0 -.1 0 839)"/><path d="m343.789062 61.644531h.40625v-27.574219h-.40625zm0 0"/><use x="331.296" xlink:href="#X" y="100.413"/><use x="333.33584" xlink:href="#az" y="63.5087"/><path d="m797.8125 7443.398438h50.9375v3.085937h-50.9375zm0 0" style="fill:none;stroke-width:4.94546;stroke-linecap:round;stroke-linejoin:round;stroke:#000;stroke-miterlimit:10" transform="matrix(.1 0 0 -.1 0 839)"/><path d="m79.78125 94.660156h5.09375v-.308594h-5.09375zm0 0"/><path d="m1884.921875 7443.398438h50.9375v3.085937h-50.9375zm0 0" style="fill:none;stroke-width:4.94546;stroke-linecap:round;stroke-linejoin:round;stroke:#000;stroke-miterlimit:10" transform="matrix(.1 0 0 -.1 0 839)"/><path d="m188.492188 94.660156h5.09375v-.308594h-5.09375zm0 0"/><path d="m3584.375 7443.398438h50.9375v3.085937h-50.9375zm0 0" style="fill:none;stroke-width:4.94546;stroke-linecap:round;stroke-linejoin:round;stroke:#000;stroke-miterlimit:10" transform="matrix(.1 0 0 -.1 0 839)"/><path d="m358.4375 94.660156h5.09375v-.308594h-5.09375zm0 0"/><path d="m5143.75 7443.398438h50.9375v3.085937h-50.9375zm0 0" style="fill:none;stroke-width:4.94546;stroke-linecap:round;stroke-linejoin:round;stroke:#000;stroke-miterlimit:10" transform="matrix(.1 0 0 -.1 0 839)"/><path d="m514.375 94.660156h5.09375v-.308594h-5.09375zm0 0"/><path d="m5498.710938 7864.335938h4.023437v269.648437h-4.023437zm0 0" style="fill:none;stroke-width:3.98854;stroke-linecap:round;stroke-linejoin:round;stroke:#000;stroke-miterlimit:10" transform="matrix(.1 0 0 -.1 0 839)"/><path d="m549.867188 52.566406h.40625v-26.964844h-.40625zm0 0"/><use x="525.275" xlink:href="#P" y="100.413"/><use x="530.717553" xlink:href="#Y" y="100.413"/><use x="542.282784" xlink:href="#Z" y="100.413"/><use x="546.874964" xlink:href="#aa" y="100.413"/><use x="558.269883" xlink:href="#W" y="100.413"/><use x="6.775" xlink:href="#aB" y="59.2743"/><path d="m2858.125 7652.617188h4.0625v269.648437h-4.0625zm0 0" style="fill:none;stroke-width:3.98854;stroke-linecap:round;stroke-linejoin:round;stroke:#000;stroke-miterlimit:10" transform="matrix(.1 0 0 -.1 0 839)"/><path d="m285.8125 73.738281h.40625v-26.964843h-.40625zm0 0"/><path d="m601.289062 7694.960938h4.0625v269.648437h-4.0625zm0 0" style="fill:none;stroke-width:3.98854;stroke-linecap:round;stroke-linejoin:round;stroke:#000;stroke-miterlimit:10" transform="matrix(.1 0 0 -.1 0 839)"/><path d="m60.128906 69.503906h.40625v-26.964844h-.40625zm0 0"/><use x="15.9277" xlink:href="#aF" y="100.413"/><use x="26.302282" xlink:href="#aG" y="100.413"/><use x="39.8734" xlink:href="#ab" y="100.413"/><use x="53.819871" xlink:href="#Z" y="100.413"/><use x="58.412057" xlink:href="#aa" y="100.413"/><path d="m484.6875 8143.046875h5.195312v160.976563h-5.195312zm0 0" style="fill:none;stroke-width:2.59128;stroke-linecap:round;stroke-linejoin:round;stroke:#000;stroke-miterlimit:10" transform="matrix(.1 0 0 -.1 0 839)"/><path d="m48.46875 24.695312h.515625v-16.097656h-.515625zm0 0"/><use x="40.9" xlink:href="#aH" y="26.432"/><use x="49.11602" xlink:href="#aA" y="71.9765"/><use x="269.46802" xlink:href="#V" y="100.4128"/><use x="281.373485" xlink:href="#S" y="100.4128"/><use x="274.79888" xlink:href="#aA" y="76.2108"/><path d="m2293.945312 7694.960938h4.023438v269.648437h-4.023438zm0 0" style="fill:none;stroke-width:3.98854;stroke-linecap:round;stroke-linejoin:round;stroke:#000;stroke-miterlimit:10" transform="matrix(.1 0 0 -.1 0 839)"/><path d="m229.394531 69.503906h.402344v-26.964844h-.402344zm0 0"/><use x="201.822" xlink:href="#ac" y="100.413"/><use x="211.857148" xlink:href="#Y" y="100.413"/><use x="223.421988" xlink:href="#ad" y="100.413"/><use x="240.770015" xlink:href="#W" y="100.413"/><use x="218.3782" xlink:href="#aA" y="71.9767"/><use x="105.536392" xlink:href="#aA" y="71.9767"/><path d="m1750.898438 7779.648438h4.023437v269.648437h-4.023437zm0 0" style="fill:none;stroke-width:3.98854;stroke-linecap:round;stroke-linejoin:round;stroke:#000;stroke-miterlimit:10" transform="matrix(.1 0 0 -.1 0 839)"/><path d="m175.089844 61.035156h.402344v-26.964844h-.402344zm0 0"/><use x="159.509" xlink:href="#Z" y="100.413"/><use x="164.101571" xlink:href="#Y" y="100.413"/><use x="175.666411" xlink:href="#Z" y="100.413"/><use x="94.678975" xlink:href="#ae" y="100.413"/><use x="99.271162" xlink:href="#V" y="100.413"/><use x="110.836393" xlink:href="#aa" y="100.413"/><use x="122.230921" xlink:href="#W" y="100.413"/><use x="164.07423" xlink:href="#aA" y="63.5087"/><path d="m1165.507812 7694.960938h4.0625v269.648437h-4.0625zm0 0" style="fill:none;stroke-width:3.98854;stroke-linecap:round;stroke-linejoin:round;stroke:#000;stroke-miterlimit:10" transform="matrix(.1 0 0 -.1 0 839)"/><path d="m116.550781 69.503906h.40625v-26.964844h-.40625zm0 0"/><g clip-path="url(#f)"><path d="m3.085938 6696.40625h5946.601562" style="fill:none;stroke-width:6.17335;stroke-linecap:round;stroke-linejoin:round;stroke:#000;stroke-miterlimit:10" transform="matrix(.1 0 0 -.1 0 839)"/></g><g clip-path="url(#g)"><path d="m3.085938 6781.054688h5946.601562" style="fill:none;stroke-width:6.17335;stroke-linecap:round;stroke-linejoin:round;stroke:#000;stroke-miterlimit:10" transform="matrix(.1 0 0 -.1 0 839)"/></g><g clip-path="url(#h)"><path d="m3.085938 6865.742188h5946.601562" style="fill:none;stroke-width:6.17335;stroke-linecap:round;stroke-linejoin:round;stroke:#000;stroke-miterlimit:10" transform="matrix(.1 0 0 -.1 0 839)"/></g><g clip-path="url(#i)"><path d="m3.085938 6950.429688h5946.601562" style="fill:none;stroke-width:6.17335;stroke-linecap:round;stroke-linejoin:round;stroke:#000;stroke-miterlimit:10" transform="matrix(.1 0 0 -.1 0 839)"/></g><g clip-path="url(#j)"><path d="m3.085938 7035.117188h5946.601562" style="fill:none;stroke-width:6.17335;stroke-linecap:round;stroke-linejoin:round;stroke:#000;stroke-miterlimit:10" transform="matrix(.1 0 0 -.1 0 839)"/></g><use x="402.739" xlink:href="#aA" y="148.191"/><use x="377.5089" xlink:href="#ad" y="200.3629"/><use x="394.856927" xlink:href="#Y" y="200.3629"/><use x="406.421767" xlink:href="#af" y="200.3629"/><use x="417.986998" xlink:href="#af" y="200.3629"/><use x="429.212386" xlink:href="#ag" y="200.3629"/><path d="m4029.375 6613.671875h4.0625v269.6875h-4.0625zm0 0" style="fill:none;stroke-width:3.98854;stroke-linecap:round;stroke-linejoin:round;stroke:#000;stroke-miterlimit:10" transform="matrix(.1 0 0 -.1 0 839)"/><path d="m402.9375 177.632812h.40625v-26.96875h-.40625zm0 0"/><use x="458.298" xlink:href="#aA" y="152.425"/><use x="453.13745" xlink:href="#T" y="200.3629"/><use x="464.702681" xlink:href="#R" y="200.3629"/><path d="m4584.960938 6585.46875h4.0625v255.546875h-4.0625zm0 0" style="fill:none;stroke-width:3.98854;stroke-linecap:round;stroke-linejoin:round;stroke:#000;stroke-miterlimit:10" transform="matrix(.1 0 0 -.1 0 839)"/><path d="m458.496094 180.453125h.40625v-25.554687h-.40625zm0 0"/><path d="m3580.859375 6842.070312h4.0625v275.742188h-4.0625zm0 0" style="fill:none;stroke-width:3.98854;stroke-linecap:round;stroke-linejoin:round;stroke:#000;stroke-miterlimit:10" transform="matrix(.1 0 0 -.1 0 839)"/><path d="m358.085938 154.792969h.40625v-27.574219h-.40625zm0 0"/><use x="342.36" xlink:href="#ah" y="200.363"/><use x="352.394757" xlink:href="#V" y="200.363"/><use x="347.63148" xlink:href="#az" y="156.6591"/><path d="m3071.953125 6613.671875h4.0625v275.78125h-4.0625zm0 0" style="fill:none;stroke-width:3.98854;stroke-linecap:round;stroke-linejoin:round;stroke:#000;stroke-miterlimit:10" transform="matrix(.1 0 0 -.1 0 839)"/><path d="m307.195312 177.632812h.40625v-27.574218h-.40625zm0 0"/><use x="298.154" xlink:href="#U" y="200.363"/><use x="304.957114" xlink:href="#V" y="200.363"/><use x="316.522345" xlink:href="#ac" y="200.363"/><use x="306.99658" xlink:href="#az" y="148.1911"/><path d="m1046.875 6443.90625h50.9375v3.085938h-50.9375zm0 0" style="fill:none;stroke-width:4.94546;stroke-linecap:round;stroke-linejoin:round;stroke:#000;stroke-miterlimit:10" transform="matrix(.1 0 0 -.1 0 839)"/><path d="m104.6875 194.609375h5.09375v-.308594h-5.09375zm0 0"/><path d="m1543.945312 6443.90625h50.9375v3.085938h-50.9375zm0 0" style="fill:none;stroke-width:4.94546;stroke-linecap:round;stroke-linejoin:round;stroke:#000;stroke-miterlimit:10" transform="matrix(.1 0 0 -.1 0 839)"/><path d="m154.394531 194.609375h5.09375v-.308594h-5.09375zm0 0"/><path d="m1967.148438 6443.90625h50.9375v3.085938h-50.9375zm0 0" style="fill:none;stroke-width:4.94546;stroke-linecap:round;stroke-linejoin:round;stroke:#000;stroke-miterlimit:10" transform="matrix(.1 0 0 -.1 0 839)"/><path d="m196.714844 194.609375h5.09375v-.308594h-5.09375zm0 0"/><path d="m2415.46875 6443.90625h50.9375v3.085938h-50.9375zm0 0" style="fill:none;stroke-width:4.94546;stroke-linecap:round;stroke-linejoin:round;stroke:#000;stroke-miterlimit:10" transform="matrix(.1 0 0 -.1 0 839)"/><path d="m241.546875 194.609375h5.09375v-.308594h-5.09375zm0 0"/><path d="m3320.820312 6443.90625h50.9375v3.085938h-50.9375zm0 0" style="fill:none;stroke-width:4.94546;stroke-linecap:round;stroke-linejoin:round;stroke:#000;stroke-miterlimit:10" transform="matrix(.1 0 0 -.1 0 839)"/><path d="m332.082031 194.609375h5.09375v-.308594h-5.09375zm0 0"/><use x="503.596" xlink:href="#aA" y="156.659"/><use x="548.8933" xlink:href="#aC" y="152.42502"/><path d="m5146.09375 6848.125h4.0625v269.6875h-4.0625zm0 0" style="fill:none;stroke-width:3.98854;stroke-linecap:round;stroke-linejoin:round;stroke:#000;stroke-miterlimit:10" transform="matrix(.1 0 0 -.1 0 839)"/><path d="m514.609375 154.1875h.40625v-26.96875h-.40625zm0 0"/><use x="489.931" xlink:href="#ai" y="200.363"/><use x="495.543474" xlink:href="#aj" y="200.363"/><use x="507.108705" xlink:href="#Z" y="200.363"/><use x="511.700885" xlink:href="#aa" y="200.363"/><use x="523.095805" xlink:href="#ak" y="200.363"/><path d="m2618.984375 6656.054688h4.023437v269.648437h-4.023437zm0 0" style="fill:none;stroke-width:3.98854;stroke-linecap:round;stroke-linejoin:round;stroke:#000;stroke-miterlimit:10" transform="matrix(.1 0 0 -.1 0 839)"/><path d="m261.898438 173.398438h.402343v-26.96875h-.402343zm0 0"/><path d="m942.421875 6842.070312h4.0625v275.742188h-4.0625zm0 0" style="fill:none;stroke-width:3.98854;stroke-linecap:round;stroke-linejoin:round;stroke:#000;stroke-miterlimit:10" transform="matrix(.1 0 0 -.1 0 839)"/><path d="m94.242188 154.792969h.40625v-27.574219h-.40625zm0 0"/><use x="79.4523" xlink:href="#al" y="200.363"/><use x="94.589399" xlink:href="#Q" y="200.363"/><use x="83.78824" xlink:href="#az" y="156.6591"/><use x="45.43194" xlink:href="#aD" y="152.42512"/><use x="6.77454" xlink:href="#aB" y="160.89348"/><use x="254.41154" xlink:href="#ah" y="200.36298"/><use x="264.446688" xlink:href="#Y" y="200.36298"/><use x="276.011528" xlink:href="#Z" y="200.36298"/><use x="216.40024" xlink:href="#aA" y="143.95668"/><use x="210.64438" xlink:href="#am" y="200.36298"/><use x="222.209611" xlink:href="#T" y="200.36298"/><path d="m1713.007812 6613.671875h4.0625v269.6875h-4.0625zm0 0" style="fill:none;stroke-width:3.98854;stroke-linecap:round;stroke-linejoin:round;stroke:#000;stroke-miterlimit:10" transform="matrix(.1 0 0 -.1 0 839)"/><path d="m171.300781 177.632812h.40625v-26.96875h-.40625zm0 0"/><use x="165.942" xlink:href="#R" y="200.363"/><use x="176.31621" xlink:href="#T" y="200.363"/><path d="m2165.976562 6656.054688h4.0625v269.648437h-4.0625zm0 0" style="fill:none;stroke-width:3.98854;stroke-linecap:round;stroke-linejoin:round;stroke:#000;stroke-miterlimit:10" transform="matrix(.1 0 0 -.1 0 839)"/><path d="m216.597656 173.398438h.40625v-26.96875h-.40625zm0 0"/><use x="171.103" xlink:href="#aA" y="148.191"/><path d="m1260.039062 6613.671875h4.0625v269.6875h-4.0625zm0 0" style="fill:none;stroke-width:3.98854;stroke-linecap:round;stroke-linejoin:round;stroke:#000;stroke-miterlimit:10" transform="matrix(.1 0 0 -.1 0 839)"/><path d="m126.003906 177.632812h.40625v-26.96875h-.40625zm0 0"/><use x="115.287" xlink:href="#an" y="200.363"/><use x="126.001834" xlink:href="#R" y="200.363"/><use x="136.376434" xlink:href="#ao" y="200.363"/><use x="125.8046" xlink:href="#aA" y="148.1911"/><use x="261.6986" xlink:href="#aA" y="143.95672"/><g clip-path="url(#k)"><path d="m3.085938 5680.195312h5946.601562" style="fill:none;stroke-width:6.17335;stroke-linecap:round;stroke-linejoin:round;stroke:#000;stroke-miterlimit:10" transform="matrix(.1 0 0 -.1 0 839)"/></g><g clip-path="url(#l)"><path d="m3.085938 5764.882812h5946.601562" style="fill:none;stroke-width:6.17335;stroke-linecap:round;stroke-linejoin:round;stroke:#000;stroke-miterlimit:10" transform="matrix(.1 0 0 -.1 0 839)"/></g><g clip-path="url(#m)"><path d="m3.085938 5849.570312h5946.601562" style="fill:none;stroke-width:6.17335;stroke-linecap:round;stroke-linejoin:round;stroke:#000;stroke-miterlimit:10" transform="matrix(.1 0 0 -.1 0 839)"/></g><g clip-path="url(#n)"><path d="m3.085938 5934.257812h5946.601562" style="fill:none;stroke-width:6.17335;stroke-linecap:round;stroke-linejoin:round;stroke:#000;stroke-miterlimit:10" transform="matrix(.1 0 0 -.1 0 839)"/></g><g clip-path="url(#o)"><path d="m3.085938 6018.945312h5946.601562" style="fill:none;stroke-width:6.17335;stroke-linecap:round;stroke-linejoin:round;stroke:#000;stroke-miterlimit:10" transform="matrix(.1 0 0 -.1 0 839)"/></g><use x="413.997" xlink:href="#aA" y="258.278"/><use x="503.0357" xlink:href="#aA" y="270.9803"/><use x="408.8357" xlink:href="#T" y="301.7522"/><use x="420.40054" xlink:href="#R" y="301.7522"/><path d="m4250.117188 5831.953125h4.0625v269.648437h-4.0625zm0 0" style="fill:none;stroke-width:3.98854;stroke-linecap:round;stroke-linejoin:round;stroke:#000;stroke-miterlimit:10" transform="matrix(.1 0 0 -.1 0 839)"/><path d="m425.011719 255.804688h.40625v-26.964844h-.40625zm0 0"/><use x="457.458" xlink:href="#aA" y="266.746"/><use x="457.484172" xlink:href="#Y" y="301.7523"/><path d="m4684.726562 5747.265625h4.0625v269.648437h-4.0625zm0 0" style="fill:none;stroke-width:3.98854;stroke-linecap:round;stroke-linejoin:round;stroke:#000;stroke-miterlimit:10" transform="matrix(.1 0 0 -.1 0 839)"/><path d="m468.472656 264.273438h.40625v-26.964844h-.40625zm0 0"/><path d="m3780.429688 5789.609375h4.023437v269.648437h-4.023437zm0 0" style="fill:none;stroke-width:3.98854;stroke-linecap:round;stroke-linejoin:round;stroke:#000;stroke-miterlimit:10" transform="matrix(.1 0 0 -.1 0 839)"/><path d="m378.042969 260.039062h.402343v-26.964843h-.402343zm0 0"/><use x="350.386" xlink:href="#af" y="301.752"/><use x="361.951231" xlink:href="#V" y="301.752"/><use x="373.516071" xlink:href="#am" y="301.752"/><use x="384.910991" xlink:href="#ag" y="301.752"/><use x="367.027" xlink:href="#aA" y="262.5118"/><path d="m3210.117188 5825.898438h4.0625v275.742187h-4.0625zm0 0" style="fill:none;stroke-width:3.98854;stroke-linecap:round;stroke-linejoin:round;stroke:#000;stroke-miterlimit:10" transform="matrix(.1 0 0 -.1 0 839)"/><path d="m321.011719 256.410156h.40625v-27.574218h-.40625zm0 0"/><use x="295.338" xlink:href="#U" y="301.752"/><use x="302.141504" xlink:href="#V" y="301.752"/><use x="313.706735" xlink:href="#ad" y="301.752"/><use x="331.054762" xlink:href="#W" y="301.752"/><use x="310.5591" xlink:href="#az" y="258.2778"/><path d="m1585.976562 5430h50.9375v3.085938h-50.9375zm0 0" style="fill:none;stroke-width:4.94546;stroke-linecap:round;stroke-linejoin:round;stroke:#000;stroke-miterlimit:10" transform="matrix(.1 0 0 -.1 0 839)"/><path d="m158.597656 296h5.09375v-.308594h-5.09375zm0 0"/><path d="m1984.101562 5430h50.976563v3.085938h-50.976563zm0 0" style="fill:none;stroke-width:4.94546;stroke-linecap:round;stroke-linejoin:round;stroke:#000;stroke-miterlimit:10" transform="matrix(.1 0 0 -.1 0 839)"/><path d="m198.410156 296h5.097656v-.308594h-5.097656zm0 0"/><path d="m2860.15625 5430h50.9375v3.085938h-50.9375zm0 0" style="fill:none;stroke-width:4.94546;stroke-linecap:round;stroke-linejoin:round;stroke:#000;stroke-miterlimit:10" transform="matrix(.1 0 0 -.1 0 839)"/><path d="m286.015625 296h5.09375v-.308594h-5.09375zm0 0"/><path d="m4778.125 5430h50.9375v3.085938h-50.9375zm0 0" style="fill:none;stroke-width:4.94546;stroke-linecap:round;stroke-linejoin:round;stroke:#000;stroke-miterlimit:10" transform="matrix(.1 0 0 -.1 0 839)"/><path d="m477.8125 296h5.09375v-.308594h-5.09375zm0 0"/><use x="491.667" xlink:href="#U" y="301.752"/><use x="498.470504" xlink:href="#ao" y="301.752"/><use x="510.035345" xlink:href="#R" y="301.752"/><use x="520.240438" xlink:href="#W" y="301.752"/><use x="548.6135" xlink:href="#aC" y="254.0434"/><path d="m5140.507812 5704.921875h4.023438v269.648437h-4.023438zm0 0" style="fill:none;stroke-width:3.98854;stroke-linecap:round;stroke-linejoin:round;stroke:#000;stroke-miterlimit:10" transform="matrix(.1 0 0 -.1 0 839)"/><path d="m514.050781 268.507812h.402344v-26.964843h-.402344zm0 0"/><path d="m2688.90625 5569.296875h4.0625v261.601563h-4.0625zm0 0" style="fill:none;stroke-width:3.98854;stroke-linecap:round;stroke-linejoin:round;stroke:#000;stroke-miterlimit:10" transform="matrix(.1 0 0 -.1 0 839)"/><path d="m268.890625 282.070312h.402344v-26.160156h-.402344zm0 0"/><path d="m1035.820312 5825.898438h4.023438v275.742187h-4.023438zm0 0" style="fill:none;stroke-width:3.98854;stroke-linecap:round;stroke-linejoin:round;stroke:#000;stroke-miterlimit:10" transform="matrix(.1 0 0 -.1 0 839)"/><path d="m103.582031 256.410156h.402344v-27.574218h-.402344zm0 0"/><use x="90.152" xlink:href="#P" y="301.752"/><use x="95.594576" xlink:href="#Y" y="301.752"/><use x="93.127" xlink:href="#az" y="258.2778"/><path d="m564.453125 5662.578125h4.0625v269.648437h-4.0625zm0 0" style="fill:none;stroke-width:3.98854;stroke-linecap:round;stroke-linejoin:round;stroke:#000;stroke-miterlimit:10" transform="matrix(.1 0 0 -.1 0 839)"/><path d="m56.445312 272.742188h.40625v-26.964844h-.40625zm0 0"/><use x="44.2688" xlink:href="#ap" y="301.752"/><use x="45.43208" xlink:href="#aA" y="275.2141"/><use x="6.77468" xlink:href="#aB" y="262.5118"/><use x="266.65168" xlink:href="#X" y="301.752"/><use x="223.11298" xlink:href="#aA" y="249.8094"/><use x="208.76848" xlink:href="#am" y="301.752"/><use x="220.333711" xlink:href="#Y" y="301.752"/><use x="231.898942" xlink:href="#aa" y="301.752"/><use x="243.29347" xlink:href="#W" y="301.752"/><path d="m1873.828125 5789.609375h4.0625v269.648437h-4.0625zm0 0" style="fill:none;stroke-width:3.98854;stroke-linecap:round;stroke-linejoin:round;stroke:#000;stroke-miterlimit:10" transform="matrix(.1 0 0 -.1 0 839)"/><path d="m187.382812 260.039062h.40625v-26.964843h-.40625zm0 0"/><use x="171.209" xlink:href="#R" y="301.752"/><use x="181.58321" xlink:href="#T" y="301.752"/><path d="m2233.125 5597.5h4.0625v269.6875h-4.0625zm0 0" style="fill:none;stroke-width:3.98854;stroke-linecap:round;stroke-linejoin:round;stroke:#000;stroke-miterlimit:10" transform="matrix(.1 0 0 -.1 0 839)"/><path d="m223.3125 279.25h.40625v-26.96875h-.40625zm0 0"/><use x="176.37" xlink:href="#aA" y="262.512"/><path d="m1452.03125 5825.898438h4.023438v275.742187h-4.023438zm0 0" style="fill:none;stroke-width:3.98854;stroke-linecap:round;stroke-linejoin:round;stroke:#000;stroke-miterlimit:10" transform="matrix(.1 0 0 -.1 0 839)"/><path d="m145.203125 256.410156h.402344v-27.574218h-.402344zm0 0"/><use x="129.478" xlink:href="#ai" y="301.752"/><use x="134.920576" xlink:href="#Y" y="301.752"/><use x="146.485807" xlink:href="#Z" y="301.752"/><use x="134.7487" xlink:href="#az" y="258.2778"/><use x="268.6917" xlink:href="#az" y="254.04342"/><g clip-path="url(#p)"><path d="m3.085938 4664.023438h5946.601562" style="fill:none;stroke-width:6.17335;stroke-linecap:round;stroke-linejoin:round;stroke:#000;stroke-miterlimit:10" transform="matrix(.1 0 0 -.1 0 839)"/></g><g clip-path="url(#q)"><path d="m3.085938 4748.671875h5946.601562" style="fill:none;stroke-width:6.17335;stroke-linecap:round;stroke-linejoin:round;stroke:#000;stroke-miterlimit:10" transform="matrix(.1 0 0 -.1 0 839)"/></g><g clip-path="url(#r)"><path d="m3.085938 4833.359375h5946.601562" style="fill:none;stroke-width:6.17335;stroke-linecap:round;stroke-linejoin:round;stroke:#000;stroke-miterlimit:10" transform="matrix(.1 0 0 -.1 0 839)"/></g><g clip-path="url(#s)"><path d="m3.085938 4918.046875h5946.601562" style="fill:none;stroke-width:6.17335;stroke-linecap:round;stroke-linejoin:round;stroke:#000;stroke-miterlimit:10" transform="matrix(.1 0 0 -.1 0 839)"/></g><g clip-path="url(#t)"><path d="m3.085938 5002.734375h5946.601562" style="fill:none;stroke-width:6.17335;stroke-linecap:round;stroke-linejoin:round;stroke:#000;stroke-miterlimit:10" transform="matrix(.1 0 0 -.1 0 839)"/></g><use x="422.478" xlink:href="#az" y="376.834"/><use x="508.165936" xlink:href="#aA" y="376.834"/><use x="417.03738" xlink:href="#T" y="402.2387"/><use x="428.60222" xlink:href="#R" y="402.2387"/><path d="m4329.335938 4640.3125h4.023437v275.742188h-4.023437zm0 0" style="fill:none;stroke-width:3.98854;stroke-linecap:round;stroke-linejoin:round;stroke:#000;stroke-miterlimit:10" transform="matrix(.1 0 0 -.1 0 839)"/><path d="m432.933594 374.96875h.402344v-27.574219h-.402344zm0 0"/><use x="461.791" xlink:href="#aA" y="372.599"/><use x="459.09647" xlink:href="#ai" y="402.2381"/><use x="464.539023" xlink:href="#T" y="402.2381"/><path d="m4728.046875 4688.710938h4.0625v269.6875h-4.0625zm0 0" style="fill:none;stroke-width:3.98854;stroke-linecap:round;stroke-linejoin:round;stroke:#000;stroke-miterlimit:10" transform="matrix(.1 0 0 -.1 0 839)"/><path d="m472.804688 370.128906h.40625v-26.96875h-.40625zm0 0"/><path d="m3864.726562 4682.65625h4.0625v275.742188h-4.0625zm0 0" style="fill:none;stroke-width:3.98854;stroke-linecap:round;stroke-linejoin:round;stroke:#000;stroke-miterlimit:10" transform="matrix(.1 0 0 -.1 0 839)"/><path d="m386.472656 370.734375h.40625v-27.574219h-.40625zm0 0"/><use x="359.608" xlink:href="#R" y="402.238"/><use x="369.9826" xlink:href="#S" y="402.238"/><use x="380.35681" xlink:href="#T" y="402.238"/><use x="391.922041" xlink:href="#aq" y="402.238"/><use x="376.0185" xlink:href="#az" y="372.5989"/><path d="m3285.3125 4725h4.0625v275.742188h-4.0625zm0 0" style="fill:none;stroke-width:3.98854;stroke-linecap:round;stroke-linejoin:round;stroke:#000;stroke-miterlimit:10" transform="matrix(.1 0 0 -.1 0 839)"/><path d="m328.53125 366.5h.40625v-27.574219h-.40625zm0 0"/><use x="301.158" xlink:href="#af" y="402.238"/><use x="312.723231" xlink:href="#V" y="402.238"/><use x="324.288071" xlink:href="#am" y="402.238"/><use x="335.682991" xlink:href="#ag" y="402.238"/><use x="318.0795" xlink:href="#az" y="368.365"/><path d="m1553.59375 4425.117188h50.9375v3.125h-50.9375zm0 0" style="fill:none;stroke-width:4.94546;stroke-linecap:round;stroke-linejoin:round;stroke:#000;stroke-miterlimit:10" transform="matrix(.1 0 0 -.1 0 839)"/><path d="m155.359375 396.488281h5.09375v-.308593h-5.09375zm0 0"/><path d="m2059.84375 4425.117188h50.9375v3.125h-50.9375zm0 0" style="fill:none;stroke-width:4.94546;stroke-linecap:round;stroke-linejoin:round;stroke:#000;stroke-miterlimit:10" transform="matrix(.1 0 0 -.1 0 839)"/><path d="m205.984375 396.488281h5.09375v-.308593h-5.09375zm0 0"/><path d="m2431.5625 4425.117188h50.976562v3.125h-50.976562zm0 0" style="fill:none;stroke-width:4.94546;stroke-linecap:round;stroke-linejoin:round;stroke:#000;stroke-miterlimit:10" transform="matrix(.1 0 0 -.1 0 839)"/><path d="m243.15625 396.488281h5.097656v-.308593h-5.097656zm0 0"/><path d="m4803.320312 4425.117188h50.9375v3.125h-50.9375zm0 0" style="fill:none;stroke-width:4.94546;stroke-linecap:round;stroke-linejoin:round;stroke:#000;stroke-miterlimit:10" transform="matrix(.1 0 0 -.1 0 839)"/><path d="m480.332031 396.488281h5.09375v-.308593h-5.09375zm0 0"/><use x="489.654" xlink:href="#af" y="402.238"/><use x="500.879388" xlink:href="#ag" y="402.238"/><use x="510.744248" xlink:href="#Y" y="402.238"/><use x="522.309088" xlink:href="#R" y="402.238"/><use x="532.514182" xlink:href="#ak" y="402.238"/><use x="551.1782" xlink:href="#aC" y="355.6626"/><path d="m5191.796875 4646.367188h4.0625v269.6875h-4.0625zm0 0" style="fill:none;stroke-width:3.98854;stroke-linecap:round;stroke-linejoin:round;stroke:#000;stroke-miterlimit:10" transform="matrix(.1 0 0 -.1 0 839)"/><path d="m519.179688 374.363281h.40625v-26.96875h-.40625zm0 0"/><path d="m2751.875 4767.34375h4.023438v275.742188h-4.023438zm0 0" style="fill:none;stroke-width:3.98854;stroke-linecap:round;stroke-linejoin:round;stroke:#000;stroke-miterlimit:10" transform="matrix(.1 0 0 -.1 0 839)"/><path d="m275.1875 362.265625h.402344v-27.574219h-.402344zm0 0"/><path d="m1015.78125 4731.054688h4.023438v269.6875h-4.023438zm0 0" style="fill:none;stroke-width:3.98854;stroke-linecap:round;stroke-linejoin:round;stroke:#000;stroke-miterlimit:10" transform="matrix(.1 0 0 -.1 0 839)"/><path d="m101.578125 365.894531h.402344v-26.96875h-.402344zm0 0"/><use x="87.8684" xlink:href="#P" y="402.238"/><use x="93.310587" xlink:href="#Y" y="402.238"/><use x="90.56293" xlink:href="#aA" y="368.365"/><path d="m564.453125 4646.367188h4.0625v269.6875h-4.0625zm0 0" style="fill:none;stroke-width:3.98854;stroke-linecap:round;stroke-linejoin:round;stroke:#000;stroke-miterlimit:10" transform="matrix(.1 0 0 -.1 0 839)"/><path d="m56.445312 374.363281h.40625v-26.96875h-.40625zm0 0"/><use x="44.2688" xlink:href="#ap" y="402.238"/><use x="45.43208" xlink:href="#aA" y="376.8333"/><use x="6.77468" xlink:href="#aB" y="364.131"/><use x="252.91268" xlink:href="#am" y="402.238"/><use x="264.477911" xlink:href="#Y" y="402.238"/><use x="276.042751" xlink:href="#aa" y="402.238"/><use x="221.71928" xlink:href="#aA" y="359.8966"/><use x="216.55756" xlink:href="#R" y="402.238"/><use x="226.93216" xlink:href="#T" y="402.238"/><path d="m1897.1875 4773.398438h4.0625v269.6875h-4.0625zm0 0" style="fill:none;stroke-width:3.98854;stroke-linecap:round;stroke-linejoin:round;stroke:#000;stroke-miterlimit:10" transform="matrix(.1 0 0 -.1 0 839)"/><path d="m189.71875 361.660156h.40625v-26.96875h-.40625zm0 0"/><use x="168.527" xlink:href="#ac" y="402.238"/><use x="178.561757" xlink:href="#Y" y="402.238"/><use x="190.126988" xlink:href="#R" y="402.238"/><path d="m2327.34375 4815.742188h4.0625v269.6875h-4.0625zm0 0" style="fill:none;stroke-width:3.98854;stroke-linecap:round;stroke-linejoin:round;stroke:#000;stroke-miterlimit:10" transform="matrix(.1 0 0 -.1 0 839)"/><path d="m232.734375 357.425781h.40625v-26.96875h-.40625zm0 0"/><use x="178.705" xlink:href="#aA" y="364.131"/><path d="m1467.070312 4815.742188h4.0625v269.6875h-4.0625zm0 0" style="fill:none;stroke-width:3.98854;stroke-linecap:round;stroke-linejoin:round;stroke:#000;stroke-miterlimit:10" transform="matrix(.1 0 0 -.1 0 839)"/><path d="m146.707031 357.425781h.40625v-26.96875h-.40625zm0 0"/><use x="135.719" xlink:href="#T" y="402.238"/><use x="135.692828" xlink:href="#aA" y="359.8966"/><use x="264.731828" xlink:href="#az" y="364.13098"/><g clip-path="url(#u)"><path d="m3.085938 3647.8125h5946.601562" style="fill:none;stroke-width:6.17335;stroke-linecap:round;stroke-linejoin:round;stroke:#000;stroke-miterlimit:10" transform="matrix(.1 0 0 -.1 0 839)"/></g><g clip-path="url(#v)"><path d="m3.085938 3732.5h5946.601562" style="fill:none;stroke-width:6.17335;stroke-linecap:round;stroke-linejoin:round;stroke:#000;stroke-miterlimit:10" transform="matrix(.1 0 0 -.1 0 839)"/></g><g clip-path="url(#w)"><path d="m3.085938 3817.1875h5946.601562" style="fill:none;stroke-width:6.17335;stroke-linecap:round;stroke-linejoin:round;stroke:#000;stroke-miterlimit:10" transform="matrix(.1 0 0 -.1 0 839)"/></g><g clip-path="url(#x)"><path d="m3.085938 3901.875h5946.601562" style="fill:none;stroke-width:6.17335;stroke-linecap:round;stroke-linejoin:round;stroke:#000;stroke-miterlimit:10" transform="matrix(.1 0 0 -.1 0 839)"/></g><g clip-path="url(#y)"><path d="m3.085938 3986.5625h5946.601562" style="fill:none;stroke-width:6.17335;stroke-linecap:round;stroke-linejoin:round;stroke:#000;stroke-miterlimit:10" transform="matrix(.1 0 0 -.1 0 839)"/></g><path d="m3938.671875 3536.914062h4.0625v261.601563h-4.0625zm0 0" style="fill:none;stroke-width:3.98854;stroke-linecap:round;stroke-linejoin:round;stroke:#000;stroke-miterlimit:10" transform="matrix(.1 0 0 -.1 0 839)"/><path d="m393.867188 485.308594h.40625v-26.160156h-.40625zm0 0"/><use x="483.593" xlink:href="#P" y="505.22"/><use x="489.376177" xlink:href="#V" y="505.22"/><use x="500.770705" xlink:href="#W" y="505.22"/><use x="441.4871" xlink:href="#az" y="457.2821"/><use x="431.4543" xlink:href="#P" y="505.22"/><use x="437.237086" xlink:href="#Q" y="505.22"/><use x="441.829266" xlink:href="#R" y="505.22"/><use x="452.203891" xlink:href="#S" y="505.22"/><path d="m4416.875 3536.914062h4.023438v261.601563h-4.023438zm0 0" style="fill:none;stroke-width:3.98854;stroke-linecap:round;stroke-linejoin:round;stroke:#000;stroke-miterlimit:10" transform="matrix(.1 0 0 -.1 0 839)"/><path d="m441.6875 485.308594h.402344v-26.160156h-.402344zm0 0"/><use x="489.264" xlink:href="#aA" y="461.516"/><use x="297.29713" xlink:href="#az" y="461.516"/><use x="388.228" xlink:href="#T" y="505.2195"/><use x="399.79284" xlink:href="#R" y="505.2195"/><use x="393.66862" xlink:href="#az" y="457.2816"/><path d="m3460.507812 3565.117188h4.023438v275.742187h-4.023438zm0 0" style="fill:none;stroke-width:3.98854;stroke-linecap:round;stroke-linejoin:round;stroke:#000;stroke-miterlimit:10" transform="matrix(.1 0 0 -.1 0 839)"/><path d="m346.050781 482.488281h.402344v-27.574219h-.402344zm0 0"/><use x="335.391" xlink:href="#ac" y="505.22"/><use x="345.426148" xlink:href="#Y" y="505.22"/><use x="356.990988" xlink:href="#R" y="505.22"/><use x="345.8504" xlink:href="#az" y="453.0481"/><path d="m3077.5 3793.515625h4.0625v275.742187h-4.0625zm0 0" style="fill:none;stroke-width:3.98854;stroke-linecap:round;stroke-linejoin:round;stroke:#000;stroke-miterlimit:10" transform="matrix(.1 0 0 -.1 0 839)"/><path d="m307.75 459.652344h.40625v-27.574219h-.40625zm0 0"/><use x="297.043" xlink:href="#T" y="505.22"/><path d="m1245.3125 3395.3125h50.9375v3.085938h-50.9375zm0 0" style="fill:none;stroke-width:4.94546;stroke-linecap:round;stroke-linejoin:round;stroke:#000;stroke-miterlimit:10" transform="matrix(.1 0 0 -.1 0 839)"/><path d="m124.53125 499.46875h5.09375v-.308594h-5.09375zm0 0"/><path d="m1716.40625 3395.3125h50.9375v3.085938h-50.9375zm0 0" style="fill:none;stroke-width:4.94546;stroke-linecap:round;stroke-linejoin:round;stroke:#000;stroke-miterlimit:10" transform="matrix(.1 0 0 -.1 0 839)"/><path d="m171.640625 499.46875h5.09375v-.308594h-5.09375zm0 0"/><path d="m2207.03125 3395.3125h50.9375v3.085938h-50.9375zm0 0" style="fill:none;stroke-width:4.94546;stroke-linecap:round;stroke-linejoin:round;stroke:#000;stroke-miterlimit:10" transform="matrix(.1 0 0 -.1 0 839)"/><path d="m220.703125 499.46875h5.09375v-.308594h-5.09375zm0 0"/><path d="m3194.53125 3395.3125h50.9375v3.085938h-50.9375zm0 0" style="fill:none;stroke-width:4.94546;stroke-linecap:round;stroke-linejoin:round;stroke:#000;stroke-miterlimit:10" transform="matrix(.1 0 0 -.1 0 839)"/><path d="m319.453125 499.46875h5.09375v-.308594h-5.09375zm0 0"/><path d="m4705.390625 3395.3125h50.9375v3.085938h-50.9375zm0 0" style="fill:none;stroke-width:4.94546;stroke-linecap:round;stroke-linejoin:round;stroke:#000;stroke-miterlimit:10" transform="matrix(.1 0 0 -.1 0 839)"/><path d="m470.539062 499.46875h5.09375v-.308594h-5.09375zm0 0"/><path d="m5002.773438 3799.570312h4.0625v269.648438h-4.0625zm0 0" style="fill:none;stroke-width:3.98854;stroke-linecap:round;stroke-linejoin:round;stroke:#000;stroke-miterlimit:10" transform="matrix(.1 0 0 -.1 0 839)"/><path d="m500.277344 459.042969h.40625v-26.964844h-.40625zm0 0"/><use x="541.728" xlink:href="#aC" y="457.282"/><path d="m980.9375 3607.460938h4.0625v275.742187h-4.0625zm0 0" style="fill:none;stroke-width:3.98854;stroke-linecap:round;stroke-linejoin:round;stroke:#000;stroke-miterlimit:10" transform="matrix(.1 0 0 -.1 0 839)"/><path d="m98.09375 478.253906h.40625v-27.574218h-.40625zm0 0"/><use x="97.8965" xlink:href="#az" y="448.814"/><path d="m456.328125 3607.460938h4.023437v269.6875h-4.023437zm0 0" style="fill:none;stroke-width:3.98854;stroke-linecap:round;stroke-linejoin:round;stroke:#000;stroke-miterlimit:10" transform="matrix(.1 0 0 -.1 0 839)"/><path d="m45.632812 478.253906h.402344v-26.964844h-.402344zm0 0"/><use x="40.0168" xlink:href="#ar" y="505.22"/><use x="50.901946" xlink:href="#Y" y="505.22"/><use x="45.43203" xlink:href="#aA" y="448.8141"/><use x="95.34653" xlink:href="#aj" y="505.22"/><use x="106.911761" xlink:href="#Z" y="505.22"/><use x="6.77463" xlink:href="#aB" y="465.7505"/><path d="m1937.34375 3565.117188h4.023438v269.6875h-4.023438zm0 0" style="fill:none;stroke-width:3.98854;stroke-linecap:round;stroke-linejoin:round;stroke:#000;stroke-miterlimit:10" transform="matrix(.1 0 0 -.1 0 839)"/><path d="m193.734375 482.488281h.402344v-26.96875h-.402344zm0 0"/><use x="188.543" xlink:href="#S" y="505.22"/><use x="198.577757" xlink:href="#Y" y="505.22"/><use x="193.53402" xlink:href="#aA" y="453.0481"/><path d="m1459.140625 3607.460938h4.0625v275.742187h-4.0625zm0 0" style="fill:none;stroke-width:3.98854;stroke-linecap:round;stroke-linejoin:round;stroke:#000;stroke-miterlimit:10" transform="matrix(.1 0 0 -.1 0 839)"/><path d="m145.914062 478.253906h.40625v-27.574218h-.40625zm0 0"/><use x="244.833" xlink:href="#aA" y="465.75"/><use x="142.655" xlink:href="#P" y="505.2195"/><use x="148.267889" xlink:href="#aj" y="505.2195"/><use x="236.355351" xlink:href="#P" y="505.2195"/><use x="241.797927" xlink:href="#Y" y="505.2195"/><use x="253.363158" xlink:href="#aa" y="505.2195"/><use x="145.71477" xlink:href="#az" y="448.8136"/><path d="m2558.476562 3757.226562h4.0625v269.648438h-4.0625zm0 0" style="fill:none;stroke-width:3.98854;stroke-linecap:round;stroke-linejoin:round;stroke:#000;stroke-miterlimit:10" transform="matrix(.1 0 0 -.1 0 839)"/><path d="m255.847656 463.277344h.40625v-26.964844h-.40625zm0 0"/><g clip-path="url(#z)"><path d="m3.085938 2631.640625h5946.601562" style="fill:none;stroke-width:6.17335;stroke-linecap:round;stroke-linejoin:round;stroke:#000;stroke-miterlimit:10" transform="matrix(.1 0 0 -.1 0 839)"/></g><g clip-path="url(#A)"><path d="m3.085938 2716.328125h5946.601562" style="fill:none;stroke-width:6.17335;stroke-linecap:round;stroke-linejoin:round;stroke:#000;stroke-miterlimit:10" transform="matrix(.1 0 0 -.1 0 839)"/></g><g clip-path="url(#B)"><path d="m3.085938 2800.976562h5946.601562" style="fill:none;stroke-width:6.17335;stroke-linecap:round;stroke-linejoin:round;stroke:#000;stroke-miterlimit:10" transform="matrix(.1 0 0 -.1 0 839)"/></g><g clip-path="url(#C)"><path d="m3.085938 2885.664062h5946.601562" style="fill:none;stroke-width:6.17335;stroke-linecap:round;stroke-linejoin:round;stroke:#000;stroke-miterlimit:10" transform="matrix(.1 0 0 -.1 0 839)"/></g><g clip-path="url(#D)"><path d="m3.085938 2970.351562h5946.601562" style="fill:none;stroke-width:6.17335;stroke-linecap:round;stroke-linejoin:round;stroke:#000;stroke-miterlimit:10" transform="matrix(.1 0 0 -.1 0 839)"/></g><path d="m4034.804688 2692.617188h4.023437v275.742187h-4.023437zm0 0" style="fill:none;stroke-width:3.98854;stroke-linecap:round;stroke-linejoin:round;stroke:#000;stroke-miterlimit:10" transform="matrix(.1 0 0 -.1 0 839)"/><path d="m403.480469 569.738281h.402343v-27.574219h-.402343zm0 0"/><use x="483.872" xlink:href="#Z" y="605.476"/><use x="488.46418" xlink:href="#V" y="605.476"/><use x="499.8591" xlink:href="#ak" y="605.476"/><use x="440.9861" xlink:href="#az" y="571.603"/><use x="437.33141" xlink:href="#U" y="605.476"/><use x="444.134524" xlink:href="#as" y="605.476"/><path d="m4514.414062 2692.617188h4.023438v275.742187h-4.023438zm0 0" style="fill:none;stroke-width:3.98854;stroke-linecap:round;stroke-linejoin:round;stroke:#000;stroke-miterlimit:10" transform="matrix(.1 0 0 -.1 0 839)"/><path d="m451.441406 569.738281h.402344v-27.574219h-.402344zm0 0"/><use x="488.948" xlink:href="#aA" y="575.837"/><use x="299.22" xlink:href="#az" y="567.36903"/><use x="385.9688" xlink:href="#S" y="605.47603"/><use x="396.173869" xlink:href="#Q" y="605.47603"/><use x="400.766049" xlink:href="#ac" y="605.47603"/><use x="393.02544" xlink:href="#az" y="571.60303"/><path d="m3576.367188 2777.304688h4.023437v275.742187h-4.023437zm0 0" style="fill:none;stroke-width:3.98854;stroke-linecap:round;stroke-linejoin:round;stroke:#000;stroke-miterlimit:10" transform="matrix(.1 0 0 -.1 0 839)"/><path d="m357.636719 561.269531h.402343v-27.574219h-.402343zm0 0"/><use x="338.254" xlink:href="#ad" y="605.476"/><use x="355.602027" xlink:href="#V" y="605.476"/><use x="347.18212" xlink:href="#az" y="563.1346"/><path d="m3096.757812 2734.960938h4.023438v275.742187h-4.023438zm0 0" style="fill:none;stroke-width:3.98854;stroke-linecap:round;stroke-linejoin:round;stroke:#000;stroke-miterlimit:10" transform="matrix(.1 0 0 -.1 0 839)"/><path d="m309.675781 565.503906h.402344v-27.574218h-.402344zm0 0"/><use x="285.105" xlink:href="#R" y="605.476"/><use x="295.4796" xlink:href="#S" y="605.476"/><use x="305.85381" xlink:href="#at" y="605.476"/><use x="317.419041" xlink:href="#U" y="605.476"/><path d="m1247.1875 2392.734375h50.9375v3.085937h-50.9375zm0 0" style="fill:none;stroke-width:4.94546;stroke-linecap:round;stroke-linejoin:round;stroke:#000;stroke-miterlimit:10" transform="matrix(.1 0 0 -.1 0 839)"/><path d="m124.71875 599.726562h5.09375v-.308593h-5.09375zm0 0"/><path d="m1698.398438 2392.734375h50.9375v3.085937h-50.9375zm0 0" style="fill:none;stroke-width:4.94546;stroke-linecap:round;stroke-linejoin:round;stroke:#000;stroke-miterlimit:10" transform="matrix(.1 0 0 -.1 0 839)"/><path d="m169.839844 599.726562h5.09375v-.308593h-5.09375zm0 0"/><path d="m2246.09375 2392.734375h50.9375v3.085937h-50.9375zm0 0" style="fill:none;stroke-width:4.94546;stroke-linecap:round;stroke-linejoin:round;stroke:#000;stroke-miterlimit:10" transform="matrix(.1 0 0 -.1 0 839)"/><path d="m224.609375 599.726562h5.09375v-.308593h-5.09375zm0 0"/><path d="m3287.773438 2392.734375h50.9375v3.085937h-50.9375zm0 0" style="fill:none;stroke-width:4.94546;stroke-linecap:round;stroke-linejoin:round;stroke:#000;stroke-miterlimit:10" transform="matrix(.1 0 0 -.1 0 839)"/><path d="m328.777344 599.726562h5.09375v-.308593h-5.09375zm0 0"/><path d="m3740.195312 2392.734375h50.976563v3.085937h-50.976563zm0 0" style="fill:none;stroke-width:4.94546;stroke-linecap:round;stroke-linejoin:round;stroke:#000;stroke-miterlimit:10" transform="matrix(.1 0 0 -.1 0 839)"/><path d="m374.019531 599.726562h5.09375v-.308593h-5.09375zm0 0"/><path d="m4672.382812 2392.734375h50.9375v3.085937h-50.9375zm0 0" style="fill:none;stroke-width:4.94546;stroke-linecap:round;stroke-linejoin:round;stroke:#000;stroke-miterlimit:10" transform="matrix(.1 0 0 -.1 0 839)"/><path d="m467.238281 599.726562h5.09375v-.308593h-5.09375zm0 0"/><path d="m4999.648438 2656.367188h4.023437v269.648437h-4.023437zm0 0" style="fill:none;stroke-width:3.98854;stroke-linecap:round;stroke-linejoin:round;stroke:#000;stroke-miterlimit:10" transform="matrix(.1 0 0 -.1 0 839)"/><path d="m499.964844 573.367188h.402344v-26.96875h-.402344zm0 0"/><use x="541.57" xlink:href="#aC" y="558.901"/><path d="m1085.078125 2607.929688h4.0625v275.742187h-4.0625zm0 0" style="fill:none;stroke-width:3.98854;stroke-linecap:round;stroke-linejoin:round;stroke:#000;stroke-miterlimit:10" transform="matrix(.1 0 0 -.1 0 839)"/><path d="m108.507812 578.207031h.40625v-27.574219h-.40625zm0 0"/><use x="98.0547" xlink:href="#az" y="580.071"/><path d="m564.453125 2613.984375h4.0625v269.6875h-4.0625zm0 0" style="fill:none;stroke-width:3.98854;stroke-linecap:round;stroke-linejoin:round;stroke:#000;stroke-miterlimit:10" transform="matrix(.1 0 0 -.1 0 839)"/><path d="m56.445312 577.601562h.40625v-26.96875h-.40625zm0 0"/><use x="27.516" xlink:href="#au" y="605.476"/><use x="41.462084" xlink:href="#S" y="605.476"/><use x="51.836684" xlink:href="#T" y="605.476"/><use x="63.401518" xlink:href="#aq" y="605.476"/><use x="45.432" xlink:href="#aA" y="580.0713"/><use x="96.1" xlink:href="#ah" y="605.476"/><use x="106.4746" xlink:href="#Q" y="605.476"/><use x="6.7746" xlink:href="#aB" y="567.369"/><path d="m2071.09375 2783.359375h4.0625v269.6875h-4.0625zm0 0" style="fill:none;stroke-width:3.98854;stroke-linecap:round;stroke-linejoin:round;stroke:#000;stroke-miterlimit:10" transform="matrix(.1 0 0 -.1 0 839)"/><path d="m207.109375 560.664062h.40625v-26.96875h-.40625zm0 0"/><use x="185.15" xlink:href="#am" y="605.476"/><use x="196.715231" xlink:href="#av" y="605.476"/><use x="208.280071" xlink:href="#R" y="605.476"/><use x="196.0937" xlink:href="#aA" y="563.1346"/><path d="m1564.6875 2607.929688h4.0625v275.742187h-4.0625zm0 0" style="fill:none;stroke-width:3.98854;stroke-linecap:round;stroke-linejoin:round;stroke:#000;stroke-miterlimit:10" transform="matrix(.1 0 0 -.1 0 839)"/><path d="m156.46875 578.207031h.40625v-27.574219h-.40625zm0 0"/><use x="246.599" xlink:href="#aA" y="571.603"/><use x="143.466" xlink:href="#Z" y="605.476"/><use x="148.05818" xlink:href="#at" y="605.476"/><use x="235.655422" xlink:href="#R" y="605.476"/><use x="246.030022" xlink:href="#at" y="605.476"/><use x="257.594863" xlink:href="#am" y="605.476"/><use x="146.01561" xlink:href="#az" y="580.0713"/><path d="m2576.132812 2698.671875h4.0625v269.6875h-4.0625zm0 0" style="fill:none;stroke-width:3.98854;stroke-linecap:round;stroke-linejoin:round;stroke:#000;stroke-miterlimit:10" transform="matrix(.1 0 0 -.1 0 839)"/><path d="m257.613281 569.132812h.40625v-26.96875h-.40625zm0 0"/><g clip-path="url(#E)"><path d="m3.085938 1615.429688h5946.601562" style="fill:none;stroke-width:6.17335;stroke-linecap:round;stroke-linejoin:round;stroke:#000;stroke-miterlimit:10" transform="matrix(.1 0 0 -.1 0 839)"/></g><g clip-path="url(#F)"><path d="m3.085938 1700.117188h5946.601562" style="fill:none;stroke-width:6.17335;stroke-linecap:round;stroke-linejoin:round;stroke:#000;stroke-miterlimit:10" transform="matrix(.1 0 0 -.1 0 839)"/></g><g clip-path="url(#G)"><path d="m3.085938 1784.804688h5946.601562" style="fill:none;stroke-width:6.17335;stroke-linecap:round;stroke-linejoin:round;stroke:#000;stroke-miterlimit:10" transform="matrix(.1 0 0 -.1 0 839)"/></g><g clip-path="url(#H)"><path d="m3.085938 1869.492188h5946.601562" style="fill:none;stroke-width:6.17335;stroke-linecap:round;stroke-linejoin:round;stroke:#000;stroke-miterlimit:10" transform="matrix(.1 0 0 -.1 0 839)"/></g><g clip-path="url(#I)"><path d="m3.085938 1954.179688h5946.601562" style="fill:none;stroke-width:6.17335;stroke-linecap:round;stroke-linejoin:round;stroke:#000;stroke-miterlimit:10" transform="matrix(.1 0 0 -.1 0 839)"/></g><use x="404.551" xlink:href="#az" y="656.286"/><use x="497.7373" xlink:href="#aA" y="664.75436"/><use x="398.0889" xlink:href="#P" y="707.09536"/><use x="403.531476" xlink:href="#Y" y="707.09536"/><use x="415.096707" xlink:href="#U" y="707.09536"/><path d="m4047.5 1532.734375h4.0625v275.742187h-4.0625zm0 0" style="fill:none;stroke-width:3.98854;stroke-linecap:round;stroke-linejoin:round;stroke:#000;stroke-miterlimit:10" transform="matrix(.1 0 0 -.1 0 839)"/><path d="m404.75 685.726562h.40625v-27.574218h-.40625zm0 0"/><use x="448.556" xlink:href="#aA" y="660.52"/><use x="435.9119" xlink:href="#ae" y="707.0954"/><use x="440.504471" xlink:href="#Y" y="707.0954"/><use x="452.069311" xlink:href="#R" y="707.0954"/><use x="462.443936" xlink:href="#S" y="707.0954"/><path d="m4487.539062 1504.53125h4.0625v255.546875h-4.0625zm0 0" style="fill:none;stroke-width:3.98854;stroke-linecap:round;stroke-linejoin:round;stroke:#000;stroke-miterlimit:10" transform="matrix(.1 0 0 -.1 0 839)"/><path d="m448.753906 688.546875h.40625v-25.554687h-.40625zm0 0"/><path d="m3607.421875 1575.078125h4.0625v275.742187h-4.0625zm0 0" style="fill:none;stroke-width:3.98854;stroke-linecap:round;stroke-linejoin:round;stroke:#000;stroke-miterlimit:10" transform="matrix(.1 0 0 -.1 0 839)"/><path d="m360.742188 681.492188h.40625v-27.574219h-.40625zm0 0"/><use x="358.506" xlink:href="#ac" y="707.095"/><use x="369.050522" xlink:href="#Q" y="707.095"/><use x="360.54506" xlink:href="#az" y="652.0516"/><path d="m3167.382812 1532.734375h4.0625v275.742187h-4.0625zm0 0" style="fill:none;stroke-width:3.98854;stroke-linecap:round;stroke-linejoin:round;stroke:#000;stroke-miterlimit:10" transform="matrix(.1 0 0 -.1 0 839)"/><path d="m316.738281 685.726562h.40625v-27.574218h-.40625zm0 0"/><use x="305.316" xlink:href="#R" y="707.095"/><use x="315.6906" xlink:href="#Y" y="707.095"/><use x="327.255831" xlink:href="#af" y="707.095"/><use x="316.5398" xlink:href="#az" y="656.2856"/><path d="m1157.539062 1376.5625h50.9375v3.085938h-50.9375zm0 0" style="fill:none;stroke-width:4.94546;stroke-linecap:round;stroke-linejoin:round;stroke:#000;stroke-miterlimit:10" transform="matrix(.1 0 0 -.1 0 839)"/><path d="m115.753906 701.34375h5.09375v-.308594h-5.09375zm0 0"/><path d="m1626.875 1376.5625h50.9375v3.085938h-50.9375zm0 0" style="fill:none;stroke-width:4.94546;stroke-linecap:round;stroke-linejoin:round;stroke:#000;stroke-miterlimit:10" transform="matrix(.1 0 0 -.1 0 839)"/><path d="m162.6875 701.34375h5.09375v-.308594h-5.09375zm0 0"/><path d="m2571.835938 1376.5625h50.976562v3.085938h-50.976562zm0 0" style="fill:none;stroke-width:4.94546;stroke-linecap:round;stroke-linejoin:round;stroke:#000;stroke-miterlimit:10" transform="matrix(.1 0 0 -.1 0 839)"/><path d="m257.183594 701.34375h5.09375v-.308594h-5.09375zm0 0"/><path d="m2931.796875 1376.5625h50.976563v3.085938h-50.976563zm0 0" style="fill:none;stroke-width:4.94546;stroke-linecap:round;stroke-linejoin:round;stroke:#000;stroke-miterlimit:10" transform="matrix(.1 0 0 -.1 0 839)"/><path d="m293.179688 701.34375h5.09375v-.308594h-5.09375zm0 0"/><path d="m3833.164062 1376.5625h50.976563v3.085938h-50.976563zm0 0" style="fill:none;stroke-width:4.94546;stroke-linecap:round;stroke-linejoin:round;stroke:#000;stroke-miterlimit:10" transform="matrix(.1 0 0 -.1 0 839)"/><path d="m383.316406 701.34375h5.097656v-.308594h-5.097656zm0 0"/><path d="m4264.453125 1376.5625h50.9375v3.085938h-50.9375zm0 0" style="fill:none;stroke-width:4.94546;stroke-linecap:round;stroke-linejoin:round;stroke:#000;stroke-miterlimit:10" transform="matrix(.1 0 0 -.1 0 839)"/><path d="m426.445312 701.34375h5.09375v-.308594h-5.09375zm0 0"/><path d="m4770.46875 1376.5625h50.9375v3.085938h-50.9375zm0 0" style="fill:none;stroke-width:4.94546;stroke-linecap:round;stroke-linejoin:round;stroke:#000;stroke-miterlimit:10" transform="matrix(.1 0 0 -.1 0 839)"/><path d="m477.046875 701.34375h5.09375v-.308594h-5.09375zm0 0"/><use x="486.369" xlink:href="#P" y="707.095"/><use x="491.811162" xlink:href="#T" y="707.095"/><use x="503.546705" xlink:href="#aa" y="707.095"/><use x="514.941625" xlink:href="#W" y="707.095"/><use x="545.9651" xlink:href="#aC" y="660.5196"/><path d="m5087.539062 1767.1875h4.023438v269.648438h-4.023438zm0 0" style="fill:none;stroke-width:3.98854;stroke-linecap:round;stroke-linejoin:round;stroke:#000;stroke-miterlimit:10" transform="matrix(.1 0 0 -.1 0 839)"/><path d="m508.753906 662.28125h.402344v-26.964844h-.402344zm0 0"/><path d="m2727.304688 1532.734375h4.0625v275.742187h-4.0625zm0 0" style="fill:none;stroke-width:3.98854;stroke-linecap:round;stroke-linejoin:round;stroke:#000;stroke-miterlimit:10" transform="matrix(.1 0 0 -.1 0 839)"/><path d="m272.730469 685.726562h.40625v-27.574218h-.40625zm0 0"/><path d="m1041.132812 1634.101562h4.0625v275.742188h-4.0625zm0 0" style="fill:none;stroke-width:3.98854;stroke-linecap:round;stroke-linejoin:round;stroke:#000;stroke-miterlimit:10" transform="matrix(.1 0 0 -.1 0 839)"/><path d="m104.113281 675.589844h.40625v-27.574219h-.40625zm0 0"/><use x="93.4055" xlink:href="#Y" y="707.095"/><use x="93.659797" xlink:href="#az" y="677.4563"/><path d="m564.453125 1682.5h4.0625v269.6875h-4.0625zm0 0" style="fill:none;stroke-width:3.98854;stroke-linecap:round;stroke-linejoin:round;stroke:#000;stroke-miterlimit:10" transform="matrix(.1 0 0 -.1 0 839)"/><path d="m56.445312 670.75h.40625v-26.96875h-.40625zm0 0"/><use x="38.9105" xlink:href="#ap" y="707.095"/><use x="53.197595" xlink:href="#S" y="707.095"/><use x="45.43198" xlink:href="#aA" y="673.2223"/><use x="6.77458" xlink:href="#aB" y="668.98792"/><use x="269.98358" xlink:href="#Z" y="707.09492"/><use x="274.576151" xlink:href="#Y" y="707.09492"/><use x="227.79408" xlink:href="#az" y="664.75392"/><use x="217.16558" xlink:href="#R" y="707.09492"/><use x="227.54018" xlink:href="#S" y="707.09492"/><use x="237.91439" xlink:href="#T" y="707.09492"/><path d="m1942.421875 1761.132812h4.0625v275.742188h-4.0625zm0 0" style="fill:none;stroke-width:3.98854;stroke-linecap:round;stroke-linejoin:round;stroke:#000;stroke-miterlimit:10" transform="matrix(.1 0 0 -.1 0 839)"/><path d="m194.242188 662.890625h.40625v-27.574219h-.40625zm0 0"/><use x="175.711" xlink:href="#ac" y="707.095"/><use x="185.745757" xlink:href="#Y" y="707.095"/><use x="197.140677" xlink:href="#P" y="707.095"/><path d="m2382.460938 1761.132812h4.0625v275.742188h-4.0625zm0 0" style="fill:none;stroke-width:3.98854;stroke-linecap:round;stroke-linejoin:round;stroke:#000;stroke-miterlimit:10" transform="matrix(.1 0 0 -.1 0 839)"/><path d="m238.246094 662.890625h.40625v-27.574219h-.40625zm0 0"/><use x="183.788" xlink:href="#az" y="664.754"/><path d="m1481.210938 1591.757812h4.023437v275.742188h-4.023437zm0 0" style="fill:none;stroke-width:3.98854;stroke-linecap:round;stroke-linejoin:round;stroke:#000;stroke-miterlimit:10" transform="matrix(.1 0 0 -.1 0 839)"/><path d="m148.121094 679.824219h.402344v-27.574219h-.402344zm0 0"/><use x="131.629" xlink:href="#am" y="707.095"/><use x="143.19384" xlink:href="#Y" y="707.095"/><use x="137.66572" xlink:href="#az" y="681.6903"/><use x="272.53372" xlink:href="#az" y="656.2856"/><g clip-path="url(#J)"><path d="m3.085938 599.257812h5946.601562" style="fill:none;stroke-width:6.17335;stroke-linecap:round;stroke-linejoin:round;stroke:#000;stroke-miterlimit:10" transform="matrix(.1 0 0 -.1 0 839)"/></g><g clip-path="url(#K)"><path d="m3.085938 683.945312h5946.601562" style="fill:none;stroke-width:6.17335;stroke-linecap:round;stroke-linejoin:round;stroke:#000;stroke-miterlimit:10" transform="matrix(.1 0 0 -.1 0 839)"/></g><g clip-path="url(#L)"><path d="m3.085938 768.59375h5946.601562" style="fill:none;stroke-width:6.17335;stroke-linecap:round;stroke-linejoin:round;stroke:#000;stroke-miterlimit:10" transform="matrix(.1 0 0 -.1 0 839)"/></g><g clip-path="url(#M)"><path d="m3.085938 853.28125h5946.601562" style="fill:none;stroke-width:6.17335;stroke-linecap:round;stroke-linejoin:round;stroke:#000;stroke-miterlimit:10" transform="matrix(.1 0 0 -.1 0 839)"/></g><g clip-path="url(#N)"><path d="m3.085938 937.96875h5946.601562" style="fill:none;stroke-width:6.17335;stroke-linecap:round;stroke-linejoin:round;stroke:#000;stroke-miterlimit:10" transform="matrix(.1 0 0 -.1 0 839)"/></g><g clip-path="url(#O)"><path d="m5934.21875 599.257812v338.710938" fill="none" stroke="#000" stroke-linejoin="round" stroke-miterlimit="10" stroke-width="37.057" transform="matrix(.1 0 0 -.1 0 839)"/></g><path d="m5891.289062 599.257812v338.710938" fill="none" stroke="#000" stroke-linejoin="round" stroke-miterlimit="10" stroke-width="11.737" transform="matrix(.1 0 0 -.1 0 839)"/><path d="m4875.625 623.984375h4.023438v269.648437h-4.023438zm0 0" fill="none" stroke="#000" stroke-linejoin="round" stroke-miterlimit="10" stroke-width="3.98854" transform="matrix(.1 0 0 -.1 0 839)"/><path d="m487.5625 776.601562h.402344v-26.964843h-.402344zm0 0"/><use x="429.687" xlink:href="#az" y="783.3094"/><use x="424.4163" xlink:href="#ac" y="808.7989"/><use x="434.451471" xlink:href="#Y" y="808.7989"/><path d="m4401.40625 575.546875h4.0625v275.742187h-4.0625zm0 0" fill="none" stroke="#000" stroke-linejoin="round" stroke-miterlimit="10" stroke-width="3.98854" transform="matrix(.1 0 0 -.1 0 839)"/><path d="m440.140625 781.445312h.40625v-27.574218h-.40625zm0 0"/><use x="476.547" xlink:href="#aA" y="779.075"/><use x="474.27747" xlink:href="#R" y="808.7988"/><use x="484.651704" xlink:href="#aw" y="808.7988"/><use x="280.087552" xlink:href="#ax" y="808.7988"/><use x="291.652783" xlink:href="#am" y="808.7988"/><use x="303.047703" xlink:href="#ag" y="808.7988"/><path d="m3953.984375 660.234375h4.0625v275.742187h-4.0625zm0 0" fill="none" stroke="#000" stroke-linejoin="round" stroke-miterlimit="10" stroke-width="3.98854" transform="matrix(.1 0 0 -.1 0 839)"/><path d="m395.398438 772.976562h.40625v-27.574218h-.40625zm0 0"/><use x="384.692" xlink:href="#T" y="808.7988"/><use x="384.945125" xlink:href="#az" y="774.841"/><path d="m3485.390625 702.578125h4.0625v275.742187h-4.0625zm0 0" fill="none" stroke="#000" stroke-linejoin="round" stroke-miterlimit="10" stroke-width="3.98854" transform="matrix(.1 0 0 -.1 0 839)"/><path d="m348.539062 768.742188h.40625v-27.574219h-.40625zm0 0"/><use x="332.816" xlink:href="#ai" y="808.7988"/><use x="338.258576" xlink:href="#Y" y="808.7988"/><use x="349.823416" xlink:href="#Z" y="808.7988"/><use x="338.0867" xlink:href="#az" y="770.607"/><path d="m3016.796875 660.234375h4.0625v275.742187h-4.0625zm0 0" fill="none" stroke="#000" stroke-linejoin="round" stroke-miterlimit="10" stroke-width="3.98854" transform="matrix(.1 0 0 -.1 0 839)"/><path d="m301.679688 772.976562h.40625v-27.574218h-.40625zm0 0"/><path d="m1723.710938 359.53125h50.9375v3.085938h-50.9375zm0 0" fill="none" stroke="#000" stroke-linejoin="round" stroke-miterlimit="10" stroke-width="4.94546" transform="matrix(.1 0 0 -.1 0 839)"/><path d="m172.371094 803.046875h5.09375v-.308594h-5.09375zm0 0"/><path d="m2143.75 359.53125h50.9375v3.085938h-50.9375zm0 0" fill="none" stroke="#000" stroke-linejoin="round" stroke-miterlimit="10" stroke-width="4.94546" transform="matrix(.1 0 0 -.1 0 839)"/><path d="m214.371094 803.046875h5.097656v-.308594h-5.097656zm0 0"/><path d="m3670.078125 359.53125h50.9375v3.085938h-50.9375zm0 0" fill="none" stroke="#000" stroke-linejoin="round" stroke-miterlimit="10" stroke-width="4.94546" transform="matrix(.1 0 0 -.1 0 839)"/><path d="m367.007812 803.046875h5.09375v-.308594h-5.09375zm0 0"/><path d="m4077.890625 359.53125h50.9375v3.085938h-50.9375zm0 0" fill="none" stroke="#000" stroke-linejoin="round" stroke-miterlimit="10" stroke-width="4.94546" transform="matrix(.1 0 0 -.1 0 839)"/><path d="m407.789062 803.046875h5.09375v-.308594h-5.09375zm0 0"/><path d="m4576.015625 359.53125h50.9375v3.085938h-50.9375zm0 0" fill="none" stroke="#000" stroke-linejoin="round" stroke-miterlimit="10" stroke-width="4.94546" transform="matrix(.1 0 0 -.1 0 839)"/><path d="m457.597656 803.046875h5.09375v-.308594h-5.09375zm0 0"/><path d="m5022.65625 359.53125h50.9375v3.085938h-50.9375zm0 0" fill="none" stroke="#000" stroke-linejoin="round" stroke-miterlimit="10" stroke-width="4.94546" transform="matrix(.1 0 0 -.1 0 839)"/><path d="m502.261719 803.046875h5.09375v-.308594h-5.09375zm0 0"/><use x="519.187" xlink:href="#P" y="808.7988"/><use x="524.629553" xlink:href="#T" y="808.7988"/><use x="536.365096" xlink:href="#aa" y="808.7988"/><use x="547.760016" xlink:href="#ak" y="808.7988"/><use x="527.94403" xlink:href="#aE" y="783.3093"/><use x="291.22703" xlink:href="#az" y="774.84094"/><use x="85.69103" xlink:href="#Y" y="808.79874"/><use x="97.256255" xlink:href="#am" y="808.79874"/><use x="108.650783" xlink:href="#ag" y="808.79874"/><use x="96.83013" xlink:href="#az" y="766.37254"/><path d="m564.453125 750.976562h4.0625v269.6875h-4.0625zm0 0" fill="none" stroke="#000" stroke-linejoin="round" stroke-miterlimit="10" stroke-width="3.98854" transform="matrix(.1 0 0 -.1 0 839)"/><path d="m56.445312 763.902344h.40625v-26.96875h-.40625zm0 0"/><use x="31.5977" xlink:href="#ay" y="808.7988"/><use x="48.945733" xlink:href="#Q" y="808.7988"/><use x="53.537919" xlink:href="#af" y="808.7988"/><use x="65.103144" xlink:href="#P" y="808.7988"/><use x="45.4321" xlink:href="#aA" y="766.3726"/><path d="m1072.851562 744.921875h4.023438v275.742187h-4.023438zm0 0" fill="none" stroke="#000" stroke-linejoin="round" stroke-miterlimit="10" stroke-width="3.98854" transform="matrix(.1 0 0 -.1 0 839)"/><path d="m107.285156 764.507812h.402344v-27.574218h-.402344zm0 0"/><use x="6.77461" xlink:href="#aB" y="770.607"/><path d="m2508.4375 623.984375h4.0625v269.648437h-4.0625zm0 0" fill="none" stroke="#000" stroke-linejoin="round" stroke-miterlimit="10" stroke-width="3.98854" transform="matrix(.1 0 0 -.1 0 839)"/><path d="m250.84375 776.601562h.40625v-26.964843h-.40625zm0 0"/><use x="231.522" xlink:href="#P" y="808.7988"/><use x="237.134889" xlink:href="#av" y="808.7988"/><use x="248.529418" xlink:href="#P" y="808.7988"/><use x="253.971993" xlink:href="#W" y="808.7988"/><use x="239.82942" xlink:href="#aA" y="779.075"/><path d="m1994.453125 581.640625h4.0625v269.648437h-4.0625zm0 0" fill="none" stroke="#000" stroke-linejoin="round" stroke-miterlimit="10" stroke-width="3.98854" transform="matrix(.1 0 0 -.1 0 839)"/><path d="m199.445312 780.835938h.40625v-26.964844h-.40625zm0 0"/><use x="186.162" xlink:href="#aq" y="808.7988"/><use x="197.72684" xlink:href="#Q" y="808.7988"/><use x="188.43153" xlink:href="#aA" y="783.3093"/><path d="m1541.445312 744.921875h4.023438v275.742187h-4.023438zm0 0" fill="none" stroke="#000" stroke-linejoin="round" stroke-miterlimit="10" stroke-width="3.98854" transform="matrix(.1 0 0 -.1 0 839)"/><path d="m154.144531 764.507812h.402344v-27.574218h-.402344zm0 0"/><use x="134.762" xlink:href="#ac" y="808.7988"/><use x="145.13621" xlink:href="#at" y="808.7988"/><use x="156.701441" xlink:href="#U" y="808.7988"/><use x="143.68895" xlink:href="#az" y="766.3726"/></svg>