<svg height="1008.2em" viewBox="0 0 595.28 1008.2" width="595.28em" xmlns="http://www.w3.org/2000/svg" xmlns:xlink="http://www.w3.org/1999/xlink"><clipPath id="a"><path d="m0 81h595.28125v1h-595.28125zm0 0"/></clipPath><clipPath id="b"><path d="m0 71h595.28125v1h-595.28125zm0 0"/></clipPath><clipPath id="c"><path d="m0 60h595.28125v2h-595.28125zm0 0"/></clipPath><clipPath id="d"><path d="m0 50h595.28125v2h-595.28125zm0 0"/></clipPath><clipPath id="e"><path d="m0 40h595.28125v2h-595.28125zm0 0"/></clipPath><clipPath id="f"><path d="m0 203h595.28125v2h-595.28125zm0 0"/></clipPath><clipPath id="g"><path d="m0 193h595.28125v2h-595.28125zm0 0"/></clipPath><clipPath id="h"><path d="m0 183h595.28125v2h-595.28125zm0 0"/></clipPath><clipPath id="i"><path d="m0 173h595.28125v1h-595.28125zm0 0"/></clipPath><clipPath id="j"><path d="m0 163h595.28125v1h-595.28125zm0 0"/></clipPath><clipPath id="k"><path d="m0 326h595.28125v2h-595.28125zm0 0"/></clipPath><clipPath id="l"><path d="m0 316h595.28125v1h-595.28125zm0 0"/></clipPath><clipPath id="m"><path d="m0 305h595.28125v2h-595.28125zm0 0"/></clipPath><clipPath id="n"><path d="m0 295h595.28125v2h-595.28125zm0 0"/></clipPath><clipPath id="o"><path d="m0 285h595.28125v2h-595.28125zm0 0"/></clipPath><clipPath id="p"><path d="m0 448h595.28125v2h-595.28125zm0 0"/></clipPath><clipPath id="q"><path d="m0 438h595.28125v2h-595.28125zm0 0"/></clipPath><clipPath id="r"><path d="m0 428h595.28125v2h-595.28125zm0 0"/></clipPath><clipPath id="s"><path d="m0 418h595.28125v1h-595.28125zm0 0"/></clipPath><clipPath id="t"><path d="m0 408h595.28125v1h-595.28125zm0 0"/></clipPath><clipPath id="u"><path d="m0 571h595.28125v2h-595.28125zm0 0"/></clipPath><clipPath id="v"><path d="m0 561h595.28125v1h-595.28125zm0 0"/></clipPath><clipPath id="w"><path d="m0 551h595.28125v1h-595.28125zm0 0"/></clipPath><clipPath id="x"><path d="m0 540h595.28125v2h-595.28125zm0 0"/></clipPath><clipPath id="y"><path d="m0 530h595.28125v2h-595.28125zm0 0"/></clipPath><clipPath id="z"><path d="m0 694h595.28125v1h-595.28125zm0 0"/></clipPath><clipPath id="A"><path d="m0 683h595.28125v2h-595.28125zm0 0"/></clipPath><clipPath id="B"><path d="m0 673h595.28125v2h-595.28125zm0 0"/></clipPath><clipPath id="C"><path d="m0 663h595.28125v2h-595.28125zm0 0"/></clipPath><clipPath id="D"><path d="m0 653h595.28125v1h-595.28125zm0 0"/></clipPath><clipPath id="E"><path d="m0 816h595.28125v2h-595.28125zm0 0"/></clipPath><clipPath id="F"><path d="m0 806h595.28125v2h-595.28125zm0 0"/></clipPath><clipPath id="G"><path d="m0 796h595.28125v1h-595.28125zm0 0"/></clipPath><clipPath id="H"><path d="m0 785h595.28125v2h-595.28125zm0 0"/></clipPath><clipPath id="I"><path d="m0 775h595.28125v2h-595.28125zm0 0"/></clipPath><clipPath id="J"><path d="m0 939h595.28125v1h-595.28125zm0 0"/></clipPath><clipPath id="K"><path d="m0 928h595.28125v2h-595.28125zm0 0"/></clipPath><clipPath id="L"><path d="m0 918h595.28125v2h-595.28125zm0 0"/></clipPath><clipPath id="M"><path d="m0 908h595.28125v2h-595.28125zm0 0"/></clipPath><clipPath id="N"><path d="m0 898h595.28125v1h-595.28125zm0 0"/></clipPath><clipPath id="O"><path d="m591 896h4.28125v46h-4.28125zm0 0"/></clipPath><symbol id="P" overflow="visible"><path d="m6.40625-13.21875h-2.171875v-3.625h-2.09375v3.625h-1.78125v1.71875h1.78125v9.984375c0 1.359375.90625 2.09375 2.546875 2.09375.5625 0 1.015625-.046875 1.71875-.171875v-1.765625c-.296875.078125-.578125.09375-1.015625.09375-.90625 0-1.15625-.25-1.15625-1.1875v-9.046875h2.171875zm0 0"/></symbol><symbol id="Q" overflow="visible"><path d="m12.9375-5.90625c0-2.015625-.15625-3.21875-.53125-4.203125-.859375-2.171875-2.875-3.484375-5.34375-3.484375-3.6875 0-6.046875 2.796875-6.046875 7.15625 0 4.375 2.265625 7.015625 6 7.015625 3.015625 0 5.109375-1.71875 5.640625-4.59375h-2.109375c-.578125 1.75-1.765625 2.65625-3.453125 2.65625-1.34375 0-2.484375-.609375-3.1875-1.71875-.5-.75-.671875-1.515625-.703125-2.828125zm-9.6875-1.703125c.1875-2.453125 1.671875-4.046875 3.78125-4.046875 2.140625 0 3.640625 1.671875 3.640625 4.046875zm0 0"/></symbol><symbol id="R" overflow="visible"><path d="m3.5625-18.390625h-2.09375v18.390625h2.09375v-5.140625l2.03125-2.015625 4.46875 7.15625h2.59375l-5.390625-8.65625 4.59375-4.5625h-2.703125l-5.59375 5.609375zm0 0"/></symbol><symbol id="S" overflow="visible"><path d="m2.1875-2.625v2.625h1.515625v.453125c0 1.734375-.328125 2.25-1.515625 2.296875v.953125c1.671875.046875 2.65625-1.15625 2.65625-3.296875v-3.03125zm0 0"/></symbol><symbol id="T" overflow="visible"><path d="m1.765625-13.21875v15.140625c0 1.3125-.40625 1.734375-1.71875 1.734375-.140625 0-.21875 0-.5-.03125v1.796875c.25.046875.375.078125.703125.078125 2.375 0 3.609375-.9375 3.609375-2.75v-15.96875zm2.09375-5.171875h-2.09375v2.65625h2.09375zm0 0"/></symbol><symbol id="U" overflow="visible"><path d="m6.859375-13.59375c-3.734375 0-5.953125 2.65625-5.953125 7.09375 0 4.453125 2.21875 7.078125 5.984375 7.078125 3.71875 0 5.96875-2.640625 5.96875-6.984375 0-4.59375-2.171875-7.1875-6-7.1875zm.03125 1.9375c2.359375 0 3.78125 1.953125 3.78125 5.21875 0 3.140625-1.46875 5.078125-3.78125 5.078125-2.34375 0-3.78125-1.9375-3.78125-5.140625s1.4375-5.15625 3.78125-5.15625zm.625-7-2.421875 3.734375h1.515625l3.75-3.734375zm0 0"/></symbol><symbol id="V" overflow="visible"><path d="m1.765625-13.21875v13.21875h2.125v-8.296875c0-1.921875 1.375-3.453125 3.09375-3.453125 1.5625 0 2.453125.953125 2.453125 2.640625v9.109375h2.109375v-8.296875c0-1.921875 1.390625-3.453125 3.109375-3.453125 1.53125 0 2.4375.984375 2.4375 2.640625v9.109375h2.125v-9.90625c0-2.375-1.359375-3.6875-3.828125-3.6875-1.765625 0-2.828125.53125-4.0625 2.015625-.78125-1.40625-1.84375-2.015625-3.5625-2.015625-1.765625 0-2.953125.65625-4.0625 2.25v-1.875zm0 0"/></symbol><symbol id="W" overflow="visible"><path d="m1.734375-13.21875v13.21875h2.125v-6.859375c.03125-3.171875 1.328125-4.59375 4.234375-4.515625v-2.140625c-.359375-.046875-.546875-.078125-.8125-.078125-1.359375 0-2.390625.8125-3.59375 2.78125v-2.40625zm0 0"/></symbol><symbol id="X" overflow="visible"><path d="m12.9375-5.90625c0-2.015625-.15625-3.21875-.53125-4.203125-.859375-2.171875-2.875-3.484375-5.34375-3.484375-3.6875 0-6.046875 2.796875-6.046875 7.15625 0 4.375 2.265625 7.015625 6 7.015625 3.015625 0 5.109375-1.71875 5.640625-4.59375h-2.109375c-.578125 1.75-1.765625 2.65625-3.453125 2.65625-1.34375 0-2.484375-.609375-3.1875-1.71875-.5-.75-.671875-1.515625-.703125-2.828125zm-9.6875-1.703125c.1875-2.453125 1.671875-4.046875 3.78125-4.046875 2.140625 0 3.640625 1.671875 3.640625 4.046875zm4.515625-11.046875-2.421875 3.734375h1.515625l3.75-3.734375zm0 0"/></symbol><symbol id="Y" overflow="visible"><path d="m11.875-8.78125c-.09375-1.28125-.375-2.109375-.875-2.84375-.90625-1.234375-2.5-1.96875-4.34375-1.96875-3.578125 0-5.875 2.828125-5.875 7.21875 0 4.25 2.265625 6.953125 5.84375 6.953125 3.15625 0 5.15625-1.890625 5.40625-5.125h-2.125c-.34375 2.125-1.4375 3.1875-3.21875 3.1875-2.328125 0-3.71875-1.890625-3.71875-5.015625 0-3.3125 1.375-5.28125 3.65625-5.28125 1.765625 0 2.875 1.046875 3.140625 2.875zm0 0"/></symbol><symbol id="Z" overflow="visible"><path d="m11.046875-9.53125c-.03125-2.59375-1.734375-4.0625-4.796875-4.0625-3.078125 0-5.0625 1.59375-5.0625 4.03125 0 2.078125 1.0625 3.0625 4.1875 3.8125l1.96875.484375c1.453125.34375 2.03125.875 2.03125 1.8125 0 1.265625-1.234375 2.09375-3.078125 2.09375-1.125 0-2.078125-.328125-2.609375-.890625-.328125-.375-.484375-.75-.609375-1.6875h-2.21875c.09375 3.0625 1.8125 4.515625 5.265625 4.515625 3.328125 0 5.453125-1.640625 5.453125-4.1875 0-1.96875-1.109375-3.046875-3.734375-3.671875l-2.015625-.484375c-1.71875-.40625-2.453125-.953125-2.453125-1.890625 0-1.234375 1.09375-2 2.796875-2s2.609375.734375 2.65625 2.125zm0 0"/></symbol><symbol id="aa" overflow="visible"><path d="m11.953125-5.515625 1.890625 5.515625h2.625l-6.453125-18.390625h-3.03125l-6.5625 18.390625h2.5l1.953125-5.515625zm-.65625-1.96875h-5.84375l3.015625-8.375zm0 0"/></symbol><symbol id="ab" overflow="visible"><path d="m11.171875-13.21875h-9.859375v1.84375h7.359375l-7.890625 9.484375v1.890625h10.75v-1.84375h-8.203125l7.84375-9.5zm0 0"/></symbol><symbol id="ac" overflow="visible"><path d="m12.484375-18.390625h-2.09375v6.84375c-.890625-1.34375-2.296875-2.046875-4.0625-2.046875-3.421875 0-5.671875 2.75-5.671875 6.96875 0 4.453125 2.171875 7.203125 5.75 7.203125 1.8125 0 3.078125-.671875 4.203125-2.3125v1.734375h1.875zm-5.796875 6.765625c2.265625 0 3.703125 1.984375 3.703125 5.171875 0 3.046875-1.46875 5.0625-3.6875 5.0625-2.3125 0-3.859375-2.046875-3.859375-5.109375 0-3.078125 1.546875-5.125 3.84375-5.125zm0 0"/></symbol><symbol id="ad" overflow="visible"><path d="m3.78125-13.21875h-2.09375v13.21875h2.09375zm0-5.171875h-2.109375v2.65625h2.109375zm0 0"/></symbol><symbol id="ae" overflow="visible"><path d="m13.484375-1.234375c-.21875.046875-.3125.046875-.453125.046875-.71875 0-1.125-.375-1.125-1.03125v-7.765625c0-2.34375-1.71875-3.609375-4.96875-3.609375-1.9375 0-3.484375.5625-4.390625 1.546875-.609375.671875-.859375 1.4375-.90625 2.734375h2.109375c.1875-1.609375 1.140625-2.34375 3.109375-2.34375 1.921875 0 2.953125.71875 2.953125 1.96875v.5625c-.03125.90625-.484375 1.234375-2.203125 1.453125-2.96875.390625-3.421875.484375-4.234375.8125-1.53125.65625-2.3125 1.8125-2.3125 3.53125 0 2.390625 1.65625 3.90625 4.328125 3.90625 1.671875 0 3-.578125 4.5-1.9375.140625 1.359375.796875 1.9375 2.15625 1.9375.46875 0 .734375-.046875 1.4375-.21875zm-3.671875-2.921875c0 .703125-.203125 1.125-.828125 1.703125-.859375.78125-1.890625 1.1875-3.140625 1.1875-1.625 0-2.59375-.78125-2.59375-2.109375 0-1.390625.90625-2.09375 3.1875-2.421875 2.234375-.3125 2.671875-.40625 3.375-.734375zm0 0"/></symbol><symbol id="af" overflow="visible"><path d="m13.921875-18.390625v12.921875c0 2.46875-1.796875 3.984375-4.75 3.984375-1.359375 0-2.46875-.328125-3.34375-.96875-.90625-.703125-1.34375-1.625-1.34375-3.015625v-12.921875h-2.34375v12.921875c0 3.734375 2.671875 6.046875 7.03125 6.046875 4.3125 0 7.09375-2.375 7.09375-6.046875v-12.921875zm0 0"/></symbol><symbol id="ag" overflow="visible"><path d="m5.421875-13.21875h-2.625v2.625h2.625zm-2.640625 10.59375v2.625h1.5v.453125c0 1.734375-.328125 2.25-1.5 2.296875v.953125c1.65625.046875 2.640625-1.15625 2.640625-3.296875v-3.03125zm0 0"/></symbol><symbol id="ah" overflow="visible"><path d="m3.828125-18.390625h-2.109375v18.390625h2.109375zm0 0"/></symbol><symbol id="ai" overflow="visible"><path d="m1.765625-13.21875v13.21875h2.125v-7.28125c0-2.703125 1.40625-4.46875 3.578125-4.46875 1.65625 0 2.71875 1 2.71875 2.59375v9.15625h2.09375v-9.984375c0-2.203125-1.640625-3.609375-4.1875-3.609375-1.96875 0-3.21875.75-4.390625 2.59375v-2.21875zm0 0"/></symbol><symbol id="aj" overflow="visible"><path d="m4.609375-8.375h10.015625v-2.0625h-10.015625v-5.875h10.390625v-2.078125h-12.734375v18.390625h13.1875v-2.0625h-10.84375zm4.640625-15.3125-2.4375 3.734375h1.515625l3.75-3.734375zm0 0"/></symbol><symbol id="ak" overflow="visible"><path d="m4.890625-18.390625h-2.375v18.390625h2.375zm0 0"/></symbol><symbol id="al" overflow="visible"><path d="m13.890625-18.390625.03125 12.921875c0 2.46875-1.796875 3.984375-4.71875 3.984375s-4.71875-1.515625-4.71875-3.984375v-12.921875h-2.34375v12.921875c0 3.671875 2.78125 6.046875 7.0625 6.046875s7.0625-2.390625 7.0625-6.046875l-.03125-12.921875zm-4.125-5.296875-2.421875 3.734375h1.515625l3.75-3.734375zm0 0"/></symbol><symbol id="am" overflow="visible"><path d="m4.34375-6.4375 3-3 6.46875 9.4375h2.78125l-7.5625-10.890625 7.484375-7.5h-3.03125l-9.140625 9.3125v-9.3125h-2.34375v18.390625h2.34375zm0 0"/></symbol><symbol id="an" overflow="visible"><path d="m6.859375-13.59375c-3.734375 0-5.953125 2.65625-5.953125 7.09375 0 4.453125 2.21875 7.078125 5.984375 7.078125 3.71875 0 5.96875-2.640625 5.96875-6.984375 0-4.59375-2.171875-7.1875-6-7.1875zm.03125 1.9375c2.359375 0 3.78125 1.953125 3.78125 5.21875 0 3.140625-1.46875 5.078125-3.78125 5.078125-2.34375 0-3.78125-1.9375-3.78125-5.140625s1.4375-5.15625 3.78125-5.15625zm0 0"/></symbol><symbol id="ao" overflow="visible"><path d="m10.1875-13.21875v1.921875c-1.0625-1.59375-2.21875-2.296875-3.890625-2.296875-3.1875 0-5.421875 2.984375-5.421875 7.21875 0 2.21875.53125 3.828125 1.671875 5.171875.984375 1.15625 2.25 1.78125 3.609375 1.78125 1.578125 0 2.71875-.703125 3.828125-2.375v.6875c0 3.53125-.984375 4.84375-3.609375 4.84375-1.78125 0-2.71875-.703125-2.921875-2.21875h-2.140625c.203125 2.4375 2.140625 3.984375 5.015625 3.984375 1.9375 0 3.5625-.625 4.421875-1.6875 1-1.234375 1.375-2.875 1.375-5.984375v-11.046875zm-3.6875 1.5625c2.21875 0 3.484375 1.875 3.484375 5.21875 0 3.203125-1.28125 5.078125-3.484375 5.078125-2.15625 0-3.421875-1.890625-3.421875-5.140625 0-3.234375 1.265625-5.15625 3.421875-5.15625zm0 0"/></symbol><symbol id="ap" overflow="visible"><path d="m7.1875 0 5.0625-13.21875h-2.359375l-3.734375 10.71875-3.53125-10.71875h-2.375l4.640625 13.21875zm0 0"/></symbol><symbol id="aq" overflow="visible"><path d="m4.46875-13.21875h-2.09375v13.21875h2.09375zm-.40625-5.4375-2.421875 3.734375h1.515625l3.75-3.734375zm0 0"/></symbol><symbol id="ar" overflow="visible"><path d="m9.78125-13.21875-3.65625 10.296875-3.375-10.296875h-2.25l4.46875 13.265625-.8125 2.09375c-.34375.9375-.796875 1.296875-1.6875 1.296875-.34375 0-.65625-.0625-1.109375-.15625v1.890625c.4375.21875.859375.328125 1.421875.328125.671875 0 1.40625-.234375 1.953125-.625.65625-.484375 1.046875-1.046875 1.4375-2.09375l5.875-16zm0 0"/></symbol><symbol id="as" overflow="visible"><path d="m13.890625-8.375v8.375h2.34375v-18.390625h-2.34375v7.953125h-9.453125v-7.953125h-2.34375v18.390625h2.34375v-8.375zm0 0"/></symbol><symbol id="at" overflow="visible"><path d="m6.859375-13.59375c-3.734375 0-5.953125 2.65625-5.953125 7.09375 0 4.453125 2.21875 7.078125 5.984375 7.078125 3.71875 0 5.96875-2.640625 5.96875-6.984375 0-4.59375-2.171875-7.1875-6-7.1875zm.03125 1.9375c2.359375 0 3.78125 1.953125 3.78125 5.21875 0 3.140625-1.46875 5.078125-3.78125 5.078125-2.34375 0-3.78125-1.9375-3.78125-5.140625s1.4375-5.15625 3.78125-5.15625zm-.84375-7-2.4375 3.78125h1.515625l3.75-3.78125zm4.390625 0-2.4375 3.78125h1.5l3.765625-3.78125zm0 0"/></symbol><symbol id="au" overflow="visible"><path d="m11.796875 0 5.171875-15.40625v15.40625h2.21875v-18.390625h-3.25l-5.34375 16.015625-5.453125-16.015625h-3.25v18.390625h2.21875v-15.40625l5.21875 15.40625zm0 0"/></symbol><symbol id="av" overflow="visible"><path d="m13.484375-1.234375c-.21875.046875-.3125.046875-.453125.046875-.71875 0-1.125-.375-1.125-1.03125v-7.765625c0-2.34375-1.71875-3.609375-4.96875-3.609375-1.9375 0-3.484375.5625-4.390625 1.546875-.609375.671875-.859375 1.4375-.90625 2.734375h2.109375c.1875-1.609375 1.140625-2.34375 3.109375-2.34375 1.921875 0 2.953125.71875 2.953125 1.96875v.5625c-.03125.90625-.484375 1.234375-2.203125 1.453125-2.96875.390625-3.421875.484375-4.234375.8125-1.53125.65625-2.3125 1.8125-2.3125 3.53125 0 2.390625 1.65625 3.90625 4.328125 3.90625 1.671875 0 3-.578125 4.5-1.9375.140625 1.359375.796875 1.9375 2.15625 1.9375.46875 0 .734375-.046875 1.4375-.21875zm-3.671875-2.921875c0 .703125-.203125 1.125-.828125 1.703125-.859375.78125-1.890625 1.1875-3.140625 1.1875-1.625 0-2.59375-.78125-2.59375-2.109375 0-1.390625.90625-2.09375 3.1875-2.421875 2.234375-.3125 2.671875-.40625 3.375-.734375zm-2.140625-14.5-2.453125 3.734375h1.515625l3.75-3.734375zm0 0"/></symbol><symbol id="aw" overflow="visible"><path d="m8.390625-18.390625v12.9375c0 1.46875-.140625 2.296875-.578125 2.9375-.453125.703125-1.3125 1.125-2.234375 1.125-1.765625 0-2.75-1.1875-2.75-3.328125v-1.1875h-2.40625v1.625c0 2.96875 1.96875 4.859375 5.125 4.859375 3.203125 0 5.203125-1.984375 5.203125-5.171875v-13.796875zm0 0"/></symbol><symbol id="ax" overflow="visible"><path d="m12.15625 0v-13.21875h-2.09375v7.5c0 2.6875-1.40625 4.453125-3.609375 4.453125-1.65625 0-2.71875-1-2.71875-2.59375v-9.359375h-2.09375v10.1875c0 2.203125 1.640625 3.609375 4.203125 3.609375 1.953125 0 3.1875-.671875 4.421875-2.421875v1.84375zm0 0"/></symbol><symbol id="ay" overflow="visible"><path d="m1.359375 5.5h2.125v-6.890625c1.109375 1.359375 2.34375 1.96875 4.0625 1.96875 3.421875 0 5.640625-2.75 5.640625-6.953125 0-4.4375-2.171875-7.21875-5.671875-7.21875-1.796875 0-3.234375.8125-4.21875 2.375v-2h-1.9375zm5.796875-17.125c2.328125 0 3.84375 2.046875 3.84375 5.1875 0 3-1.546875 5.046875-3.84375 5.046875-2.234375 0-3.671875-2.015625-3.671875-5.109375 0-3.109375 1.4375-5.125 3.671875-5.125zm0 0"/></symbol><symbol id="az" overflow="visible"><path d="m4.8125-2.625h-2.625v2.625h2.625zm0 0"/></symbol><symbol id="aA" overflow="visible"><path d="m9.8125-18.6875c-5.265625 0-8.859375 3.890625-8.859375 9.640625 0 5.765625 3.5625 9.625 8.875 9.625 2.25 0 4.21875-.671875 5.703125-1.9375 2-1.6875 3.1875-4.546875 3.1875-7.546875 0-5.921875-3.515625-9.78125-8.90625-9.78125zm0 2.0625c3.984375 0 6.546875 3 6.546875 7.671875 0 4.4375-2.640625 7.46875-6.53125 7.46875-3.921875 0-6.53125-3.03125-6.53125-7.5625 0-4.546875 2.609375-7.578125 6.515625-7.578125zm-.703125-6.421875h-2.625v2.59375h2.625zm4.078125 0h-2.625v2.59375h2.625zm0 0"/></symbol><symbol id="aB" overflow="visible"><path d="m7.15625-7.875h-6v1.828125h6zm0 0"/></symbol><symbol id="aC" overflow="visible"><path d="m12.15625 0v-13.21875h-2.09375v7.5c0 2.6875-1.40625 4.453125-3.609375 4.453125-1.65625 0-2.71875-1-2.71875-2.59375v-9.359375h-2.09375v10.1875c0 2.203125 1.640625 3.609375 4.203125 3.609375 1.953125 0 3.1875-.671875 4.421875-2.421875v1.84375zm-6.03125-18.65625-2.421875 3.78125h1.515625l3.765625-3.78125zm4.390625 0-2.421875 3.78125h1.515625l3.75-3.78125zm0 0"/></symbol><symbol id="aD" overflow="visible"><path d="m12.90625-2.734375c0 .40625-.125.859375-.40625 1.1875-.859375 1.015625-2.8125 2.28125-4.375 3.265625-1.546875.984375-3.515625 2.28125-4.78125 2.65625-.15625.03125-.359375.078125-.53125.078125-.890625 0-1.703125-.703125-1.703125-1.71875 0-.40625.109375-.859375.40625-1.1875.859375-1.015625 2.8125-2.28125 4.359375-3.265625 1.5625-.984375 3.515625-2.28125 4.78125-2.65625.171875-.03125.375-.078125.53125-.078125.90625 0 1.71875.703125 1.71875 1.71875zm-2.078125-2.78125c-3.0625 0-5.5625.65625-7.71875 2.125-1.3125.90625-2.171875 2.28125-2.65625 3.796875-.25.734375-.453125 1.546875-.453125 2.328125 0 1.921875 1.390625 2.78125 3.1875 2.78125 3.0625 0 5.546875-.65625 7.71875-2.125 1.3125-.90625 2.15625-2.28125 2.65625-3.796875.25-.734375.453125-1.546875.453125-2.328125 0-1.921875-1.390625-2.78125-3.1875-2.78125zm0 0"/></symbol><symbol id="aE" overflow="visible"><path d="m9.0625-5.515625c-1.703125 0-3.34375.578125-4.8125 1.46875-1.921875 1.140625-4.25 3.140625-4.25 6.046875 0 2.40625 2.125 3.515625 4.28125 3.515625 1.71875 0 3.359375-.578125 4.828125-1.46875 1.921875-1.140625 4.203125-3.140625 4.203125-6.046875 0-2.40625-2.078125-3.515625-4.25-3.515625zm0 0"/></symbol><symbol id="aF" overflow="visible"><path d="m14.984375 0c.171875 0 .328125-.15625.328125-.328125v-5.71875c0-.15625-.15625-.328125-.328125-.328125h-14.65625c-.171875 0-.328125.171875-.328125.328125v5.71875c0 .171875.15625.328125.328125.328125zm0 0"/></symbol><symbol id="aG" overflow="visible"><path d="m15.28125-10.625c-.65625-2.859375-1.4375-5.671875-2.25-8.484375 3.921875-4.453125 7.46875-9.03125 7.46875-14.90625 0-4.625-2.53125-11.234375-5.390625-14.671875-.203125-.15625-.453125-.15625-.65625 0-3.875 2.8125-6.125 7.3125-6.125 12.046875 0 2.125.046875 4.203125.296875 6.296875.28125 2.65625.96875 5.21875 1.703125 7.796875-4.8125 5.46875-10.25 10.703125-10.25 17.96875 0 8.21875 5.921875 15.203125 13.609375 15.203125 1.265625 0 2.453125-.125 3.625-.328125.125 1.296875.203125 2.609375.203125 3.921875 0 .734375-.03125 1.421875-.078125 2.15625-.25 4.046875-2.734375 7.765625-6.53125 7.84375-.046875 0-.078125.046875-.125.046875-2.078125 0-3.875-1.1875-4.9375-2.859375.453125.203125.9375.359375 1.421875.359375 2.125 0 3.890625-1.75 3.890625-3.875 0-2.28125-1.6875-4.25-3.890625-4.25-2.40625 0-4.5625 1.875-4.5625 4.25 0 4.40625 3.546875 7.96875 7.953125 7.96875 4.828125 0 8.125-4.328125 8.421875-9.234375.03125-.78125.03125-1.515625.03125-2.28125 0-1.484375-.078125-2.953125-.203125-4.421875 1.0625-.328125 2.09375-.8125 2.984375-1.515625 3.03125-2.234375 4.375-5.390625 4.375-8.484375 0-5.390625-4.09375-10.578125-10.375-10.578125-.203125 0-.40625.03125-.609375.03125zm3.46875 19c-.578125-5.0625-1.515625-9.890625-2.53125-14.671875 4.484375.375 7.3125 4.125 7.3125 7.890625 0 2.859375-1.96875 5.796875-4.78125 6.78125zm-15.84375-9.640625c0-6.53125 4.40625-11.484375 8.8125-16.421875.65625 2.40625 1.3125 4.828125 1.875 7.265625-4.125.953125-6.453125 4.421875-6.453125 8.015625 0 2.859375 1.484375 5.75 4.75 7.515625.125.03125.234375.078125.359375.078125.453125 0 .8125-.40625.8125-.859375 0-.203125-.109375-.40625-.28125-.578125-2.28125-1.296875-3.34375-3.265625-3.34375-5.0625 0-2.40625 1.875-4.5625 5.109375-4.9375 1.0625 4.90625 2 9.765625 2.609375 14.984375-1.109375.171875-2.203125.25-3.34375.25-5.5625 0-10.90625-4.703125-10.90625-10.25zm13.875-41.625c.703125 2.171875.859375 3.234375.859375 5.59375 0 5.1875-2.734375 9.3125-6.078125 13.28125-.734375-2.578125-1.359375-5.0625-1.359375-8.171875 0-4.53125 2.546875-8.65625 6.578125-10.703125zm0 0"/></symbol><symbol id="aH" overflow="visible"><path d="m8.78125-4.65625c3.234375 0 5.640625 2.484375 5.640625 5.71875 0 1.875-.828125 3.59375-2.859375 3.59375-3.234375 0-5.6875-2.484375-5.6875-5.71875 0-1.875.859375-3.59375 2.90625-3.59375zm11.515625 4.65625c0-1.75-1.421875-3.015625-2.984375-3.875-2.203125-1.1875-4.65625-1.640625-7.140625-1.640625-2.5 0-4.984375.453125-7.1875 1.640625-1.5625.859375-2.984375 2.125-2.984375 3.875s1.421875 3.015625 2.984375 3.875c2.203125 1.1875 4.6875 1.640625 7.1875 1.640625 2.484375 0 4.9375-.453125 7.140625-1.640625 1.5625-.859375 2.984375-2.125 2.984375-3.875zm0 0"/></symbol><symbol id="aI" overflow="visible"><path d="m5.34375-10.984375v10.984375h3.15625v-15.9375h-2.09375c-.5 1.890625-2.140625 2.859375-4.875 2.859375v2.09375zm0 0"/></symbol><symbol id="aJ" overflow="visible"><path d="m4.8125-3.28125h-3.375v3.28125h3.375zm0 0"/></symbol><symbol id="aK" overflow="visible"><path d="m9.125-1.9375c0 .296875-.078125.609375-.28125.84375-.609375.71875-2 1.609375-3.09375 2.3125-1.09375.6875-2.484375 1.609375-3.375 1.875-.125.03125-.265625.0625-.375.0625-.640625 0-1.21875-.5-1.21875-1.21875 0-.296875.078125-.609375.28125-.84375.609375-.71875 2-1.609375 3.09375-2.3125 1.109375-.6875 2.484375-1.609375 3.390625-1.875.109375-.03125.25-.0625.375-.0625.625 0 1.203125.5 1.203125 1.21875zm-1.46875-1.96875c-2.171875 0-3.921875.46875-5.453125 1.515625-.9375.625-1.53125 1.609375-1.890625 2.671875-.171875.53125-.3125 1.109375-.3125 1.65625 0 1.359375.984375 1.96875 2.25 1.96875 2.171875 0 3.9375-.46875 5.46875-1.515625.921875-.625 1.53125-1.609375 1.875-2.671875.171875-.53125.3125-1.109375.3125-1.65625 0-1.359375-.984375-1.96875-2.25-1.96875zm0 0"/></symbol><path d="m565.742188 9163.328125h193.164062" fill="none" stroke="#000" stroke-linecap="round" stroke-miterlimit="10" stroke-width="16.9821" transform="matrix(.1 0 0 -.1 0 1008.2)"/><g clip-path="url(#a)"><path d="m3.398438 9265.4375h5945.976562" fill="none" stroke="#000" stroke-linecap="round" stroke-miterlimit="10" stroke-width="6.77036" transform="matrix(.1 0 0 -.1 0 1008.2)"/></g><g clip-path="url(#b)"><path d="m3.398438 9367.546875h5945.976562" fill="none" stroke="#000" stroke-linecap="round" stroke-miterlimit="10" stroke-width="6.77036" transform="matrix(.1 0 0 -.1 0 1008.2)"/></g><g clip-path="url(#c)"><path d="m3.398438 9469.695312h5945.976562" fill="none" stroke="#000" stroke-linecap="round" stroke-miterlimit="10" stroke-width="6.77036" transform="matrix(.1 0 0 -.1 0 1008.2)"/></g><g clip-path="url(#d)"><path d="m3.398438 9571.804688h5945.976562" fill="none" stroke="#000" stroke-linecap="round" stroke-miterlimit="10" stroke-width="6.77036" transform="matrix(.1 0 0 -.1 0 1008.2)"/></g><g clip-path="url(#e)"><path d="m3.398438 9673.914062h5945.976562" fill="none" stroke="#000" stroke-linecap="round" stroke-miterlimit="10" stroke-width="6.77036" transform="matrix(.1 0 0 -.1 0 1008.2)"/></g><use x="357.32" xlink:href="#P" y="120.861"/><use x="363.953594" xlink:href="#Q" y="120.861"/><use x="377.899688" xlink:href="#R" y="120.861"/><use x="390.31491" xlink:href="#S" y="120.861"/><path d="m5005.78125 9396.960938h4.84375v326.015624h-4.84375zm0 0" style="fill:none;stroke-width:3.98257;stroke-linecap:round;stroke-linejoin:round;stroke:#000;stroke-miterlimit:10" transform="matrix(.1 0 0 -.1 0 1008.2)"/><path d="m500.578125 68.503906h.484375v-32.601562h-.484375zm0 0"/><use x="480.989" xlink:href="#T" y="120.861"/><use x="486.601512" xlink:href="#U" y="120.861"/><use x="500.547606" xlink:href="#S" y="120.861"/><use x="487.24994" xlink:href="#aD" y="71.4446"/><path d="m4454.609375 9448.015625h4.84375v326.015625h-4.84375zm0 0" style="fill:none;stroke-width:3.98257;stroke-linecap:round;stroke-linejoin:round;stroke:#000;stroke-miterlimit:10" transform="matrix(.1 0 0 -.1 0 1008.2)"/><path d="m445.460938 63.398438h.484374v-32.601563h-.484374zm0 0"/><use x="413.626" xlink:href="#V" y="120.861"/><use x="434.716239" xlink:href="#Q" y="120.861"/><use x="448.662334" xlink:href="#W" y="120.861"/><use x="457.676414" xlink:href="#P" y="120.861"/><use x="432.1326" xlink:href="#aD" y="66.3387"/><path d="m3708.359375 9131.296875h4.804687v316.289063h-4.804687zm0 0" style="fill:none;stroke-width:3.98257;stroke-linecap:round;stroke-linejoin:round;stroke:#000;stroke-miterlimit:10" transform="matrix(.1 0 0 -.1 0 1008.2)"/><path d="m370.835938 95.070312h.480468v-31.628906h-.480468zm0 0"/><use x="370.636" xlink:href="#aE" y="61.232"/><path d="m3220.898438 9165.320312h4.804687v333.320313h-4.804687zm0 0" style="fill:none;stroke-width:3.98257;stroke-linecap:round;stroke-linejoin:round;stroke:#000;stroke-miterlimit:10" transform="matrix(.1 0 0 -.1 0 1008.2)"/><path d="m322.085938 91.667969h.484374v-33.332031h-.484374zm0 0"/><use x="318.776" xlink:href="#T" y="120.861"/><use x="324.388487" xlink:href="#X" y="120.861"/><use x="321.8885" xlink:href="#aE" y="56.127"/><path d="m2845.273438 9440.710938h4.804687v333.320312h-4.804687zm0 0" style="fill:none;stroke-width:3.98257;stroke-linecap:round;stroke-linejoin:round;stroke:#000;stroke-miterlimit:10" transform="matrix(.1 0 0 -.1 0 1008.2)"/><path d="m284.527344 64.128906h.480468v-33.332031h-.480468zm0 0"/><path d="m1430.039062 8942.46875h61.992188v3.398438h-61.992188zm0 0" style="fill:none;stroke-width:5.42242;stroke-linecap:round;stroke-linejoin:round;stroke:#000;stroke-miterlimit:10" transform="matrix(.1 0 0 -.1 0 1008.2)"/><path d="m143.003906 113.953125h6.199219v-.339844h-6.199219zm0 0"/><path d="m2433.789062 8942.46875h61.953126v3.398438h-61.953126zm0 0" style="fill:none;stroke-width:5.42242;stroke-linecap:round;stroke-linejoin:round;stroke:#000;stroke-miterlimit:10" transform="matrix(.1 0 0 -.1 0 1008.2)"/><path d="m243.378906 113.953125h6.195313v-.339844h-6.195313zm0 0"/><path d="m3075.078125 8942.46875h61.953125v3.398438h-61.953125zm0 0" style="fill:none;stroke-width:5.42242;stroke-linecap:round;stroke-linejoin:round;stroke:#000;stroke-miterlimit:10" transform="matrix(.1 0 0 -.1 0 1008.2)"/><path d="m307.507812 113.953125h6.195313v-.339844h-6.195313zm0 0"/><path d="m3447.265625 8942.46875h61.992187v3.398438h-61.992187zm0 0" style="fill:none;stroke-width:5.42242;stroke-linecap:round;stroke-linejoin:round;stroke:#000;stroke-miterlimit:10" transform="matrix(.1 0 0 -.1 0 1008.2)"/><path d="m344.726562 113.953125h6.199219v-.339844h-6.199219zm0 0"/><use x="540.61" xlink:href="#aF" y="61.232"/><use x="8.17" xlink:href="#aG" y="71.4437"/><use x="254.646" xlink:href="#Y" y="120.8601"/><use x="267.571769" xlink:href="#Z" y="120.8601"/><use x="280.157694" xlink:href="#X" y="120.8601"/><use x="294.103788" xlink:href="#W" y="120.8601"/><path d="m725.585938 9192.703125h4.804687v326.054687h-4.804687zm0 0" style="fill:none;stroke-width:3.98257;stroke-linecap:round;stroke-linejoin:round;stroke:#000;stroke-miterlimit:10" transform="matrix(.1 0 0 -.1 0 1008.2)"/><path d="m72.558594 88.929688h.480468v-32.601563h-.480468zm0 0"/><use x="22.4309" xlink:href="#aI" y="120.861"/><use x="34.846534" xlink:href="#aJ" y="120.861"/><use x="51.3516" xlink:href="#aa" y="120.861"/><use x="68.529712" xlink:href="#ab" y="120.861"/><path d="m584.453125 9784.226562h6.25v194.101563h-6.25zm0 0" style="fill:none;stroke-width:3.12478;stroke-linecap:round;stroke-linejoin:round;stroke:#000;stroke-miterlimit:10" transform="matrix(.1 0 0 -.1 0 1008.2)"/><path d="m58.445312 29.78125h.625v-19.414062h-.625zm0 0"/><use x="49.3203" xlink:href="#aK" y="31.874"/><use x="59.22772" xlink:href="#aD" y="91.8677"/><use x="271.87372" xlink:href="#aE" y="66.3384"/><path d="m2345.117188 9389.65625h4.84375v333.320312h-4.84375zm0 0" style="fill:none;stroke-width:3.98257;stroke-linecap:round;stroke-linejoin:round;stroke:#000;stroke-miterlimit:10" transform="matrix(.1 0 0 -.1 0 1008.2)"/><path d="m234.511719 69.234375h.484375v-33.332031h-.484375zm0 0"/><use x="218.747" xlink:href="#ac" y="120.861"/><use x="232.693094" xlink:href="#ad" y="120.861"/><use x="221.8595" xlink:href="#aE" y="71.4446"/><path d="m1818.28125 9448.015625h4.84375v326.015625h-4.84375zm0 0" style="fill:none;stroke-width:3.98257;stroke-linecap:round;stroke-linejoin:round;stroke:#000;stroke-miterlimit:10" transform="matrix(.1 0 0 -.1 0 1008.2)"/><path d="m181.828125 63.398438h.484375v-32.601563h-.484375zm0 0"/><use x="160.963" xlink:href="#W" y="120.861"/><use x="169.296977" xlink:href="#ae" y="120.861"/><use x="183.073528" xlink:href="#P" y="120.861"/><use x="168.5005" xlink:href="#aD" y="66.3387"/><use x="115.1403" xlink:href="#aD" y="71.44456"/><use x="113.04655" xlink:href="#af" y="120.86096"/><path d="m1284.6875 9396.960938h4.84375v326.015624h-4.84375zm0 0" style="fill:none;stroke-width:3.98257;stroke-linecap:round;stroke-linejoin:round;stroke:#000;stroke-miterlimit:10" transform="matrix(.1 0 0 -.1 0 1008.2)"/><path d="m128.46875 68.503906h.480469v-32.601562h-.480469zm0 0"/><g clip-path="url(#f)"><path d="m3.398438 8040.046875h5945.976562" style="fill:none;stroke-width:6.77036;stroke-linecap:round;stroke-linejoin:round;stroke:#000;stroke-miterlimit:10" transform="matrix(.1 0 0 -.1 0 1008.2)"/></g><g clip-path="url(#g)"><path d="m3.398438 8142.15625h5945.976562" style="fill:none;stroke-width:6.77036;stroke-linecap:round;stroke-linejoin:round;stroke:#000;stroke-miterlimit:10" transform="matrix(.1 0 0 -.1 0 1008.2)"/></g><g clip-path="url(#h)"><path d="m3.398438 8244.265625h5945.976562" style="fill:none;stroke-width:6.77036;stroke-linecap:round;stroke-linejoin:round;stroke:#000;stroke-miterlimit:10" transform="matrix(.1 0 0 -.1 0 1008.2)"/></g><g clip-path="url(#i)"><path d="m3.398438 8346.375h5945.976562" style="fill:none;stroke-width:6.77036;stroke-linecap:round;stroke-linejoin:round;stroke:#000;stroke-miterlimit:10" transform="matrix(.1 0 0 -.1 0 1008.2)"/></g><g clip-path="url(#j)"><path d="m3.398438 8448.484375h5945.976562" style="fill:none;stroke-width:6.77036;stroke-linecap:round;stroke-linejoin:round;stroke:#000;stroke-miterlimit:10" transform="matrix(.1 0 0 -.1 0 1008.2)"/></g><path d="m4954.648438 8018.367188h4.804687v326.015624h-4.804687zm0 0" style="fill:none;stroke-width:3.98257;stroke-linecap:round;stroke-linejoin:round;stroke:#000;stroke-miterlimit:10" transform="matrix(.1 0 0 -.1 0 1008.2)"/><path d="m495.464844 206.363281h.480468v-32.601562h-.480468zm0 0"/><use x="475.364" xlink:href="#P" y="241.303"/><use x="481.997569" xlink:href="#U" y="241.303"/><use x="495.943663" xlink:href="#ag" y="241.303"/><use x="482.13431" xlink:href="#aD" y="209.303"/><path d="m4395.46875 8069.421875h4.804688v326.054687h-4.804688zm0 0" style="fill:none;stroke-width:3.98257;stroke-linecap:round;stroke-linejoin:round;stroke:#000;stroke-miterlimit:10" transform="matrix(.1 0 0 -.1 0 1008.2)"/><path d="m439.546875 201.257812h.480469v-32.601562h-.480469zm0 0"/><use x="412.898" xlink:href="#V" y="241.303"/><use x="433.988239" xlink:href="#X" y="241.303"/><use x="447.934334" xlink:href="#ah" y="241.303"/><use x="426.2171" xlink:href="#aD" y="204.1967"/><path d="m3878.203125 8113.171875h4.804687v333.320313h-4.804687zm0 0" style="fill:none;stroke-width:3.98257;stroke-linecap:round;stroke-linejoin:round;stroke:#000;stroke-miterlimit:10" transform="matrix(.1 0 0 -.1 0 1008.2)"/><path d="m387.820312 196.882812h.480469v-33.332031h-.480469zm0 0"/><use x="372.055" xlink:href="#ai" y="241.303"/><use x="386.001094" xlink:href="#ad" y="241.303"/><use x="375.1675" xlink:href="#aE" y="199.0909"/><path d="m3367.695312 8164.226562h4.84375v333.320313h-4.84375zm0 0" style="fill:none;stroke-width:3.98257;stroke-linecap:round;stroke-linejoin:round;stroke:#000;stroke-miterlimit:10" transform="matrix(.1 0 0 -.1 0 1008.2)"/><path d="m336.769531 191.777344h.484375v-33.332032h-.484375zm0 0"/><use x="306.888" xlink:href="#Y" y="241.303"/><use x="319.81416" xlink:href="#Z" y="241.303"/><use x="332.400085" xlink:href="#X" y="241.303"/><use x="346.346179" xlink:href="#W" y="241.303"/><use x="324.1173" xlink:href="#aE" y="193.985"/><path d="m1856.875 7738.054688h61.953125v3.398437h-61.953125zm0 0" style="fill:none;stroke-width:5.42242;stroke-linecap:round;stroke-linejoin:round;stroke:#000;stroke-miterlimit:10" transform="matrix(.1 0 0 -.1 0 1008.2)"/><path d="m185.6875 234.394531h6.195312v-.339843h-6.195312zm0 0"/><path d="m2928.359375 7738.054688h61.992187v3.398437h-61.992187zm0 0" style="fill:none;stroke-width:5.42242;stroke-linecap:round;stroke-linejoin:round;stroke:#000;stroke-miterlimit:10" transform="matrix(.1 0 0 -.1 0 1008.2)"/><path d="m292.835938 234.394531h6.199218v-.339843h-6.199218zm0 0"/><path d="m3602.695312 7738.054688h61.953126v3.398437h-61.953126zm0 0" style="fill:none;stroke-width:5.42242;stroke-linecap:round;stroke-linejoin:round;stroke:#000;stroke-miterlimit:10" transform="matrix(.1 0 0 -.1 0 1008.2)"/><path d="m360.269531 234.394531h6.195313v-.339843h-6.195313zm0 0"/><path d="m4613.554688 7738.054688h61.992187v3.398437h-61.992187zm0 0" style="fill:none;stroke-width:5.42242;stroke-linecap:round;stroke-linejoin:round;stroke:#000;stroke-miterlimit:10" transform="matrix(.1 0 0 -.1 0 1008.2)"/><path d="m461.355469 234.394531h6.199219v-.339843h-6.199219zm0 0"/><use x="538.052" xlink:href="#aF" y="183.773"/><use x="110.703" xlink:href="#aE" y="188.87886"/><path d="m681.132812 8222.625h4.84375v326.015625h-4.84375zm0 0" style="fill:none;stroke-width:3.98257;stroke-linecap:round;stroke-linejoin:round;stroke:#000;stroke-miterlimit:10" transform="matrix(.1 0 0 -.1 0 1008.2)"/><path d="m68.113281 185.9375h.484375v-32.601562h-.484375zm0 0"/><use x="47.0801" xlink:href="#aj" y="241.303"/><use x="63.917979" xlink:href="#Z" y="241.303"/><use x="54.78596" xlink:href="#aD" y="188.8792"/><use x="265.42596" xlink:href="#ac" y="241.303"/><use x="279.372054" xlink:href="#ad" y="241.303"/><use x="8.16996" xlink:href="#aG" y="193.985"/><path d="m2815.3125 8222.625h4.804688v326.015625h-4.804688zm0 0" style="fill:none;stroke-width:3.98257;stroke-linecap:round;stroke-linejoin:round;stroke:#000;stroke-miterlimit:10" transform="matrix(.1 0 0 -.1 0 1008.2)"/><path d="m281.527344 185.9375h.484375v-32.601562h-.484375zm0 0"/><use x="268.2" xlink:href="#aD" y="188.879"/><path d="m2131.5625 7939.890625h4.84375v326.054687h-4.84375zm0 0" style="fill:none;stroke-width:3.98257;stroke-linecap:round;stroke-linejoin:round;stroke:#000;stroke-miterlimit:10" transform="matrix(.1 0 0 -.1 0 1008.2)"/><path d="m213.15625 214.210938h.484375v-32.605469h-.484375zm0 0"/><use x="199.215" xlink:href="#P" y="241.303"/><use x="205.848203" xlink:href="#Q" y="241.303"/><use x="219.794297" xlink:href="#ai" y="241.303"/><use x="233.740782" xlink:href="#P" y="241.303"/><use x="212.9588" xlink:href="#aD" y="178.6675"/><use x="103.8488" xlink:href="#ae" y="241.303"/><use x="118.305819" xlink:href="#ab" y="241.303"/><path d="m1621.09375 7905.867188h4.804688v316.328124h-4.804688zm0 0" style="fill:none;stroke-width:3.98257;stroke-linecap:round;stroke-linejoin:round;stroke:#000;stroke-miterlimit:10" transform="matrix(.1 0 0 -.1 0 1008.2)"/><path d="m162.105469 217.613281h.484375v-31.632812h-.484375zm0 0"/><use x="158.796" xlink:href="#ak" y="241.303"/><use x="165.769438" xlink:href="#Z" y="241.303"/><use x="161.9085" xlink:href="#aE" y="183.7733"/><path d="m1233.554688 8215.28125h4.84375v333.359375h-4.84375zm0 0" style="fill:none;stroke-width:3.98257;stroke-linecap:round;stroke-linejoin:round;stroke:#000;stroke-miterlimit:10" transform="matrix(.1 0 0 -.1 0 1008.2)"/><path d="m123.355469 186.671875h.480469v-33.332031h-.480469zm0 0"/><g clip-path="url(#k)"><path d="m3.398438 6814.617188h5945.976562" style="fill:none;stroke-width:6.77036;stroke-linecap:round;stroke-linejoin:round;stroke:#000;stroke-miterlimit:10" transform="matrix(.1 0 0 -.1 0 1008.2)"/></g><g clip-path="url(#l)"><path d="m3.398438 6916.765625h5945.976562" style="fill:none;stroke-width:6.77036;stroke-linecap:round;stroke-linejoin:round;stroke:#000;stroke-miterlimit:10" transform="matrix(.1 0 0 -.1 0 1008.2)"/></g><g clip-path="url(#m)"><path d="m3.398438 7018.875h5945.976562" style="fill:none;stroke-width:6.77036;stroke-linecap:round;stroke-linejoin:round;stroke:#000;stroke-miterlimit:10" transform="matrix(.1 0 0 -.1 0 1008.2)"/></g><g clip-path="url(#n)"><path d="m3.398438 7120.984375h5945.976562" style="fill:none;stroke-width:6.77036;stroke-linecap:round;stroke-linejoin:round;stroke:#000;stroke-miterlimit:10" transform="matrix(.1 0 0 -.1 0 1008.2)"/></g><g clip-path="url(#o)"><path d="m3.398438 7223.09375h5945.976562" style="fill:none;stroke-width:6.77036;stroke-linecap:round;stroke-linejoin:round;stroke:#000;stroke-miterlimit:10" transform="matrix(.1 0 0 -.1 0 1008.2)"/></g><path d="m4954.570312 6946.140625h4.84375v326.015625h-4.84375zm0 0" style="fill:none;stroke-width:3.98257;stroke-linecap:round;stroke-linejoin:round;stroke:#000;stroke-miterlimit:10" transform="matrix(.1 0 0 -.1 0 1008.2)"/><path d="m495.457031 313.585938h.480469v-32.601563h-.480469zm0 0"/><use x="469.149" xlink:href="#ai" y="362.478"/><use x="483.095094" xlink:href="#X" y="362.478"/><use x="497.041189" xlink:href="#ah" y="362.478"/><use x="502.143936" xlink:href="#S" y="362.478"/><use x="482.1283" xlink:href="#aD" y="316.5253"/><path d="m4395.390625 6997.195312h4.804687v326.015626h-4.804687zm0 0" style="fill:none;stroke-width:3.98257;stroke-linecap:round;stroke-linejoin:round;stroke:#000;stroke-miterlimit:10" transform="matrix(.1 0 0 -.1 0 1008.2)"/><path d="m439.535156 308.480469h.484375v-32.601563h-.484375zm0 0"/><use x="415.95" xlink:href="#P" y="362.478"/><use x="422.583569" xlink:href="#Q" y="362.478"/><use x="436.529663" xlink:href="#ai" y="362.478"/><use x="426.2078" xlink:href="#aD" y="311.4194"/><path d="m3878.085938 6938.835938h4.804687v333.320312h-4.804687zm0 0" style="fill:none;stroke-width:3.98257;stroke-linecap:round;stroke-linejoin:round;stroke:#000;stroke-miterlimit:10" transform="matrix(.1 0 0 -.1 0 1008.2)"/><path d="m387.808594 314.316406h.480468v-33.332031h-.480468zm0 0"/><use x="372.042" xlink:href="#ak" y="362.478"/><use x="379.015438" xlink:href="#Z" y="362.478"/><use x="375.1545" xlink:href="#aE" y="316.5253"/><path d="m3367.539062 6887.78125h4.84375v333.320312h-4.84375zm0 0" style="fill:none;stroke-width:3.98257;stroke-linecap:round;stroke-linejoin:round;stroke:#000;stroke-miterlimit:10" transform="matrix(.1 0 0 -.1 0 1008.2)"/><path d="m336.753906 319.421875h.480469v-33.332031h-.480469zm0 0"/><use x="317.587" xlink:href="#al" y="362.478"/><use x="335.615905" xlink:href="#W" y="362.478"/><use x="324.10106" xlink:href="#aE" y="321.6311"/><path d="m888.007812 6526.296875h61.992188v3.398437h-61.992188zm0 0" style="fill:none;stroke-width:5.42242;stroke-linecap:round;stroke-linejoin:round;stroke:#000;stroke-miterlimit:10" transform="matrix(.1 0 0 -.1 0 1008.2)"/><path d="m88.800781 355.570312h6.199219v-.339843h-6.199219zm0 0"/><path d="m1916.210938 6526.296875h61.953124v3.398437h-61.953124zm0 0" style="fill:none;stroke-width:5.42242;stroke-linecap:round;stroke-linejoin:round;stroke:#000;stroke-miterlimit:10" transform="matrix(.1 0 0 -.1 0 1008.2)"/><path d="m191.621094 355.570312h6.195312v-.339843h-6.195312zm0 0"/><path d="m4006.757812 6526.296875h61.992188v3.398437h-61.992188zm0 0" style="fill:none;stroke-width:5.42242;stroke-linecap:round;stroke-linejoin:round;stroke:#000;stroke-miterlimit:10" transform="matrix(.1 0 0 -.1 0 1008.2)"/><path d="m400.675781 355.570312h6.199219v-.339843h-6.199219zm0 0"/><path d="m4567.148438 6526.296875h61.953124v3.398437h-61.953124zm0 0" style="fill:none;stroke-width:5.42242;stroke-linecap:round;stroke-linejoin:round;stroke:#000;stroke-miterlimit:10" transform="matrix(.1 0 0 -.1 0 1008.2)"/><path d="m456.714844 355.570312h6.195312v-.339843h-6.195312zm0 0"/><use x="538.049" xlink:href="#aF" y="306.313"/><use x="112.707" xlink:href="#aE" y="326.7364"/><path d="m681.132812 6792.976562h4.84375v326.015626h-4.84375zm0 0" style="fill:none;stroke-width:3.98257;stroke-linecap:round;stroke-linejoin:round;stroke:#000;stroke-miterlimit:10" transform="matrix(.1 0 0 -.1 0 1008.2)"/><path d="m68.113281 328.902344h.484375v-32.601563h-.484375zm0 0"/><use x="39.8512" xlink:href="#am" y="362.478"/><use x="55.83869" xlink:href="#Q" y="362.478"/><use x="69.784778" xlink:href="#ac" y="362.478"/><use x="54.786" xlink:href="#aD" y="331.8428"/><use x="261.665" xlink:href="#ae" y="362.478"/><use x="276.121641" xlink:href="#ab" y="362.478"/><use x="8.17" xlink:href="#aG" y="316.5253"/><path d="m2815.117188 6844.03125h4.804687v326.015625h-4.804687zm0 0" style="fill:none;stroke-width:3.98257;stroke-linecap:round;stroke-linejoin:round;stroke:#000;stroke-miterlimit:10" transform="matrix(.1 0 0 -.1 0 1008.2)"/><path d="m281.511719 323.796875h.480469v-32.601563h-.480469zm0 0"/><use x="268.181" xlink:href="#aD" y="326.737"/><path d="m2281.445312 6946.140625h4.804688v326.015625h-4.804688zm0 0" style="fill:none;stroke-width:3.98257;stroke-linecap:round;stroke-linejoin:round;stroke:#000;stroke-miterlimit:10" transform="matrix(.1 0 0 -.1 0 1008.2)"/><path d="m228.144531 313.585938h.480469v-32.601563h-.480469zm0 0"/><use x="205.066" xlink:href="#ah" y="362.478"/><use x="210.678487" xlink:href="#an" y="362.478"/><use x="224.624581" xlink:href="#ao" y="362.478"/><use x="214.81287" xlink:href="#aD" y="316.5253"/><use x="100.06987" xlink:href="#ap" y="362.478"/><use x="112.145248" xlink:href="#Q" y="362.478"/><use x="126.09133" xlink:href="#Z" y="362.478"/><path d="m1764.140625 6887.78125h4.804687v333.320312h-4.804687zm0 0" style="fill:none;stroke-width:3.98257;stroke-linecap:round;stroke-linejoin:round;stroke:#000;stroke-miterlimit:10" transform="matrix(.1 0 0 -.1 0 1008.2)"/><path d="m176.414062 319.421875h.480469v-33.332031h-.480469zm0 0"/><use x="156.481" xlink:href="#ac" y="362.478"/><use x="170.427082" xlink:href="#an" y="362.478"/><use x="163.75991" xlink:href="#aE" y="321.6311"/><path d="m1253.59375 6836.726562h4.84375v333.320313h-4.84375zm0 0" style="fill:none;stroke-width:3.98257;stroke-linecap:round;stroke-linejoin:round;stroke:#000;stroke-miterlimit:10" transform="matrix(.1 0 0 -.1 0 1008.2)"/><path d="m125.359375 324.527344h.480469v-33.332032h-.480469zm0 0"/><g clip-path="url(#p)"><path d="m3.398438 5589.226562h5945.976562" style="fill:none;stroke-width:6.77036;stroke-linecap:round;stroke-linejoin:round;stroke:#000;stroke-miterlimit:10" transform="matrix(.1 0 0 -.1 0 1008.2)"/></g><g clip-path="url(#q)"><path d="m3.398438 5691.335938h5945.976562" style="fill:none;stroke-width:6.77036;stroke-linecap:round;stroke-linejoin:round;stroke:#000;stroke-miterlimit:10" transform="matrix(.1 0 0 -.1 0 1008.2)"/></g><g clip-path="url(#r)"><path d="m3.398438 5793.445312h5945.976562" style="fill:none;stroke-width:6.77036;stroke-linecap:round;stroke-linejoin:round;stroke:#000;stroke-miterlimit:10" transform="matrix(.1 0 0 -.1 0 1008.2)"/></g><g clip-path="url(#s)"><path d="m3.398438 5895.59375h5945.976562" style="fill:none;stroke-width:6.77036;stroke-linecap:round;stroke-linejoin:round;stroke:#000;stroke-miterlimit:10" transform="matrix(.1 0 0 -.1 0 1008.2)"/></g><g clip-path="url(#t)"><path d="m3.398438 5997.703125h5945.976562" style="fill:none;stroke-width:6.77036;stroke-linecap:round;stroke-linejoin:round;stroke:#000;stroke-miterlimit:10" transform="matrix(.1 0 0 -.1 0 1008.2)"/></g><path d="m4998.203125 5618.640625h4.804687v326.015625h-4.804687zm0 0" style="fill:none;stroke-width:3.98257;stroke-linecap:round;stroke-linejoin:round;stroke:#000;stroke-miterlimit:10" transform="matrix(.1 0 0 -.1 0 1008.2)"/><path d="m499.820312 446.335938h.480469v-32.601563h-.480469zm0 0"/><use x="474.446" xlink:href="#ap" y="485.018"/><use x="486.521378" xlink:href="#Q" y="485.018"/><use x="500.467472" xlink:href="#ah" y="485.018"/><use x="505.570219" xlink:href="#S" y="485.018"/><use x="486.4897" xlink:href="#aD" y="449.277"/><path d="m4422.34375 5669.695312h4.84375v326.015626h-4.84375zm0 0" style="fill:none;stroke-width:3.98257;stroke-linecap:round;stroke-linejoin:round;stroke:#000;stroke-miterlimit:10" transform="matrix(.1 0 0 -.1 0 1008.2)"/><path d="m442.234375 441.230469h.484375v-32.601563h-.484375zm0 0"/><use x="413.717" xlink:href="#Z" y="485.018"/><use x="426.302925" xlink:href="#ab" y="485.018"/><use x="438.88885" xlink:href="#aq" y="485.018"/><use x="445.52203" xlink:href="#ap" y="485.018"/><use x="428.9068" xlink:href="#aD" y="444.1711"/><path d="m3831.25 5713.40625h4.804688v333.359375h-4.804688zm0 0" style="fill:none;stroke-width:3.98257;stroke-linecap:round;stroke-linejoin:round;stroke:#000;stroke-miterlimit:10" transform="matrix(.1 0 0 -.1 0 1008.2)"/><path d="m383.125 436.859375h.480469v-33.335937h-.480469zm0 0"/><use x="356.899" xlink:href="#Q" y="485.018"/><use x="371.015407" xlink:href="#ao" y="485.018"/><use x="384.792361" xlink:href="#ar" y="485.018"/><use x="370.4713" xlink:href="#aE" y="439.0653"/><path d="m3304.726562 5611.296875h4.84375v333.320313h-4.84375zm0 0" style="fill:none;stroke-width:3.98257;stroke-linecap:round;stroke-linejoin:round;stroke:#000;stroke-miterlimit:10" transform="matrix(.1 0 0 -.1 0 1008.2)"/><path d="m330.472656 447.070312h.484375v-33.332031h-.484375zm0 0"/><use x="308.416" xlink:href="#T" y="485.018"/><use x="314.028487" xlink:href="#X" y="485.018"/><use x="327.974581" xlink:href="#R" y="485.018"/><use x="317.82108" xlink:href="#aE" y="449.277"/><path d="m1340.585938 5300.90625h61.992187v3.398438h-61.992187zm0 0" style="fill:none;stroke-width:5.42242;stroke-linecap:round;stroke-linejoin:round;stroke:#000;stroke-miterlimit:10" transform="matrix(.1 0 0 -.1 0 1008.2)"/><path d="m134.058594 478.109375h6.199218v-.339844h-6.199218zm0 0"/><path d="m2311.523438 5300.90625h61.992187v3.398438h-61.992187zm0 0" style="fill:none;stroke-width:5.42242;stroke-linecap:round;stroke-linejoin:round;stroke:#000;stroke-miterlimit:10" transform="matrix(.1 0 0 -.1 0 1008.2)"/><path d="m231.152344 478.109375h6.199218v-.339844h-6.199218zm0 0"/><path d="m2971.484375 5300.90625h61.953125v3.398438h-61.953125zm0 0" style="fill:none;stroke-width:5.42242;stroke-linecap:round;stroke-linejoin:round;stroke:#000;stroke-miterlimit:10" transform="matrix(.1 0 0 -.1 0 1008.2)"/><path d="m297.148438 478.109375h6.195312v-.339844h-6.195312zm0 0"/><path d="m4631.757812 5300.90625h61.992188v3.398438h-61.992188zm0 0" style="fill:none;stroke-width:5.42242;stroke-linecap:round;stroke-linejoin:round;stroke:#000;stroke-miterlimit:10" transform="matrix(.1 0 0 -.1 0 1008.2)"/><path d="m463.175781 478.109375h6.199219v-.339844h-6.199219zm0 0"/><use x="540.229" xlink:href="#aF" y="428.854"/><use x="109.306" xlink:href="#aE" y="423.74814"/><path d="m681.132812 5771.804688h4.84375v326.015624h-4.84375zm0 0" style="fill:none;stroke-width:3.98257;stroke-linecap:round;stroke-linejoin:round;stroke:#000;stroke-miterlimit:10" transform="matrix(.1 0 0 -.1 0 1008.2)"/><path d="m68.113281 431.019531h.484375v-32.601562h-.484375zm0 0"/><use x="32.5375" xlink:href="#as" y="485.018"/><use x="50.735927" xlink:href="#an" y="485.018"/><use x="64.682016" xlink:href="#ao" y="485.018"/><use x="78.458573" xlink:href="#ar" y="485.018"/><use x="54.7859" xlink:href="#aD" y="433.9594"/><use x="244.2839" xlink:href="#Y" y="485.018"/><use x="257.21006" xlink:href="#Z" y="485.018"/><use x="269.795985" xlink:href="#X" y="485.018"/><use x="283.742079" xlink:href="#W" y="485.018"/><use x="8.1689" xlink:href="#aG" y="439.0653"/><path d="m2745.039062 5720.75h4.84375v326.015625h-4.84375zm0 0" style="fill:none;stroke-width:3.98257;stroke-linecap:round;stroke-linejoin:round;stroke:#000;stroke-miterlimit:10" transform="matrix(.1 0 0 -.1 0 1008.2)"/><path d="m274.503906 436.125h.484375v-32.601562h-.484375zm0 0"/><use x="261.176" xlink:href="#aD" y="439.066"/><path d="m2207.65625 5771.804688h4.804688v326.015624h-4.804688zm0 0" style="fill:none;stroke-width:3.98257;stroke-linecap:round;stroke-linejoin:round;stroke:#000;stroke-miterlimit:10" transform="matrix(.1 0 0 -.1 0 1008.2)"/><path d="m220.765625 431.019531h.480469v-32.601562h-.480469zm0 0"/><use x="204.662" xlink:href="#ac" y="485.018"/><use x="218.608094" xlink:href="#ad" y="485.018"/><use x="207.43544" xlink:href="#aD" y="433.9594"/><use x="108.99954" xlink:href="#at" y="485.018"/><path d="m1585.976562 5455.085938h4.804688v316.289062h-4.804688zm0 0" style="fill:none;stroke-width:3.98257;stroke-linecap:round;stroke-linejoin:round;stroke:#000;stroke-miterlimit:10" transform="matrix(.1 0 0 -.1 0 1008.2)"/><path d="m158.597656 462.695312h.480469v-31.632812h-.480469zm0 0"/><use x="151.372" xlink:href="#P" y="485.018"/><use x="158.005594" xlink:href="#Q" y="485.018"/><use x="171.782145" xlink:href="#P" y="485.018"/><use x="158.39661" xlink:href="#aE" y="428.8535"/><path d="m1095.039062 5489.109375h4.84375v333.320313h-4.84375zm0 0" style="fill:none;stroke-width:3.98257;stroke-linecap:round;stroke-linejoin:round;stroke:#000;stroke-miterlimit:10" transform="matrix(.1 0 0 -.1 0 1008.2)"/><path d="m109.503906 459.289062h.484375v-33.332031h-.484375zm0 0"/><g clip-path="url(#u)"><path d="m3.398438 4363.835938h5945.976562" style="fill:none;stroke-width:6.77036;stroke-linecap:round;stroke-linejoin:round;stroke:#000;stroke-miterlimit:10" transform="matrix(.1 0 0 -.1 0 1008.2)"/></g><g clip-path="url(#v)"><path d="m3.398438 4465.945312h5945.976562" style="fill:none;stroke-width:6.77036;stroke-linecap:round;stroke-linejoin:round;stroke:#000;stroke-miterlimit:10" transform="matrix(.1 0 0 -.1 0 1008.2)"/></g><g clip-path="url(#w)"><path d="m3.398438 4568.054688h5945.976562" style="fill:none;stroke-width:6.77036;stroke-linecap:round;stroke-linejoin:round;stroke:#000;stroke-miterlimit:10" transform="matrix(.1 0 0 -.1 0 1008.2)"/></g><g clip-path="url(#x)"><path d="m3.398438 4670.164062h5945.976562" style="fill:none;stroke-width:6.77036;stroke-linecap:round;stroke-linejoin:round;stroke:#000;stroke-miterlimit:10" transform="matrix(.1 0 0 -.1 0 1008.2)"/></g><g clip-path="url(#y)"><path d="m3.398438 4772.273438h5945.976562" style="fill:none;stroke-width:6.77036;stroke-linecap:round;stroke-linejoin:round;stroke:#000;stroke-miterlimit:10" transform="matrix(.1 0 0 -.1 0 1008.2)"/></g><g fill="none" stroke="#000" stroke-linejoin="round" stroke-miterlimit="10" transform="matrix(.1 0 0 -.1 0 1008.2)"><path d="m4795.898438 4261.726562h193.164062" stroke-linecap="round" stroke-width="16.9821"/><path d="m1591.640625 4261.726562h183.046875" stroke-linecap="round" stroke-width="16.9821"/><path d="m4955.703125 4291.101562h4.84375v326.015626h-4.84375zm0 0" stroke-width="3.98257"/></g><path d="m495.570312 579.089844h.484376v-32.601563h-.484376zm0 0"/><use x="471.985" xlink:href="#P" y="607.559"/><use x="478.618569" xlink:href="#Q" y="607.559"/><use x="492.564663" xlink:href="#ai" y="607.559"/><use x="482.2424" xlink:href="#aD" y="582.0297"/><path d="m4397.109375 4342.15625h4.804687v326.015625h-4.804687zm0 0" fill="none" stroke="#000" stroke-linejoin="round" stroke-miterlimit="10" stroke-width="3.98257" transform="matrix(.1 0 0 -.1 0 1008.2)"/><path d="m439.710938 573.984375h.480468v-32.601563h-.480468zm0 0"/><use x="423.606" xlink:href="#ak" y="607.559"/><use x="430.579413" xlink:href="#Z" y="607.559"/><use x="426.38022" xlink:href="#aD" y="576.9238"/><path d="m3880.3125 4385.90625h4.84375v333.320312h-4.84375zm0 0" fill="none" stroke="#000" stroke-linejoin="round" stroke-miterlimit="10" stroke-width="3.98257" transform="matrix(.1 0 0 -.1 0 1008.2)"/><path d="m388.03125 569.609375h.480469v-33.332031h-.480469zm0 0"/><use x="368.525" xlink:href="#ae" y="607.559"/><use x="382.982031" xlink:href="#ab" y="607.559"/><use x="375.3793" xlink:href="#aE" y="571.818"/><path d="m3370.3125 4436.960938h4.804688v333.320312h-4.804688zm0 0" fill="none" stroke="#000" stroke-linejoin="round" stroke-miterlimit="10" stroke-width="3.98257" transform="matrix(.1 0 0 -.1 0 1008.2)"/><path d="m337.03125 564.503906h.480469v-33.332031h-.480469zm0 0"/><use x="310.125" xlink:href="#V" y="607.559"/><use x="331.215215" xlink:href="#Q" y="607.559"/><use x="344.991778" xlink:href="#P" y="607.559"/><use x="324.3766" xlink:href="#aE" y="566.7121"/><path d="m1407.382812 4075.515625h61.953126v3.359375h-61.953126zm0 0" fill="none" stroke="#000" stroke-linejoin="round" stroke-miterlimit="10" stroke-width="5.42242" transform="matrix(.1 0 0 -.1 0 1008.2)"/><path d="m140.738281 600.652344h6.195313v-.339844h-6.195313zm0 0"/><path d="m1879.960938 4075.515625h61.992187v3.359375h-61.992187zm0 0" fill="none" stroke="#000" stroke-linejoin="round" stroke-miterlimit="10" stroke-width="5.42242" transform="matrix(.1 0 0 -.1 0 1008.2)"/><path d="m187.996094 600.652344h6.199218v-.339844h-6.199218zm0 0"/><path d="m2506.5625 4075.515625h61.953125v3.359375h-61.953125zm0 0" fill="none" stroke="#000" stroke-linejoin="round" stroke-miterlimit="10" stroke-width="5.42242" transform="matrix(.1 0 0 -.1 0 1008.2)"/><path d="m250.65625 600.652344h6.195312v-.339844h-6.195312zm0 0"/><path d="m2946.132812 4075.515625h61.953126v3.359375h-61.953126zm0 0" fill="none" stroke="#000" stroke-linejoin="round" stroke-miterlimit="10" stroke-width="5.42242" transform="matrix(.1 0 0 -.1 0 1008.2)"/><path d="m294.613281 600.652344h6.195313v-.339844h-6.195313zm0 0"/><path d="m4544.765625 4075.515625h61.953125v3.359375h-61.953125zm0 0" fill="none" stroke="#000" stroke-linejoin="round" stroke-miterlimit="10" stroke-width="5.42242" transform="matrix(.1 0 0 -.1 0 1008.2)"/><path d="m454.476562 600.652344h6.195313v-.339844h-6.195313zm0 0"/><use x="538.106" xlink:href="#aF" y="551.395"/><use x="110.649" xlink:href="#aE" y="576.9239"/><path d="m681.132812 4393.210938h4.84375v326.015624h-4.84375zm0 0" fill="none" stroke="#000" stroke-linejoin="round" stroke-miterlimit="10" stroke-width="3.98257" transform="matrix(.1 0 0 -.1 0 1008.2)"/><path d="m68.113281 568.878906h.484375v-32.601562h-.484375zm0 0"/><use x="36.2793" xlink:href="#au" y="607.559"/><use x="57.369521" xlink:href="#Q" y="607.559"/><use x="71.315609" xlink:href="#W" y="607.559"/><use x="80.329273" xlink:href="#P" y="607.559"/><use x="54.7859" xlink:href="#aD" y="571.818"/><use x="265.7399" xlink:href="#ah" y="607.559"/><use x="271.352387" xlink:href="#Q" y="607.559"/><use x="8.1689" xlink:href="#aG" y="561.6063"/><path d="m2818.4375 4393.210938h4.804688v326.015624h-4.804688zm0 0" fill="none" stroke="#000" stroke-linejoin="round" stroke-miterlimit="10" stroke-width="3.98257" transform="matrix(.1 0 0 -.1 0 1008.2)"/><path d="m281.84375 568.878906h.480469v-32.601562h-.480469zm0 0"/><use x="268.515" xlink:href="#aD" y="571.818"/><path d="m2285.351562 4495.359375h4.804688v326.015625h-4.804688zm0 0" fill="none" stroke="#000" stroke-linejoin="round" stroke-miterlimit="10" stroke-width="3.98257" transform="matrix(.1 0 0 -.1 0 1008.2)"/><path d="m228.535156 558.664062h.480469v-32.601562h-.480469zm0 0"/><use x="202.651" xlink:href="#ab" y="607.559"/><use x="215.236925" xlink:href="#Z" y="607.559"/><use x="227.82285" xlink:href="#av" y="607.559"/><use x="215.2045" xlink:href="#aD" y="561.6063"/><use x="104.0495" xlink:href="#aw" y="607.559"/><use x="116.635425" xlink:href="#Q" y="607.559"/><path d="m1743.046875 4283.796875h4.804687v333.320313h-4.804687zm0 0" fill="none" stroke="#000" stroke-linejoin="round" stroke-miterlimit="10" stroke-width="3.98257" transform="matrix(.1 0 0 -.1 0 1008.2)"/><path d="m174.304688 579.820312h.480468v-33.332031h-.480468zm0 0"/><use x="157.093" xlink:href="#W" y="607.559"/><use x="165.59729" xlink:href="#ax" y="607.559"/><use x="161.65042" xlink:href="#aE" y="582.0297"/><path d="m1233.007812 4334.851562h4.84375v333.320313h-4.84375zm0 0" fill="none" stroke="#000" stroke-linejoin="round" stroke-miterlimit="10" stroke-width="3.98257" transform="matrix(.1 0 0 -.1 0 1008.2)"/><path d="m123.300781 574.714844h.484375v-33.332032h-.484375zm0 0"/><g clip-path="url(#z)"><path d="m3.398438 3138.40625h5945.976562" style="fill:none;stroke-width:6.77036;stroke-linecap:round;stroke-linejoin:round;stroke:#000;stroke-miterlimit:10" transform="matrix(.1 0 0 -.1 0 1008.2)"/></g><g clip-path="url(#A)"><path d="m3.398438 3240.554688h5945.976562" style="fill:none;stroke-width:6.77036;stroke-linecap:round;stroke-linejoin:round;stroke:#000;stroke-miterlimit:10" transform="matrix(.1 0 0 -.1 0 1008.2)"/></g><g clip-path="url(#B)"><path d="m3.398438 3342.664062h5945.976562" style="fill:none;stroke-width:6.77036;stroke-linecap:round;stroke-linejoin:round;stroke:#000;stroke-miterlimit:10" transform="matrix(.1 0 0 -.1 0 1008.2)"/></g><g clip-path="url(#C)"><path d="m3.398438 3444.773438h5945.976562" style="fill:none;stroke-width:6.77036;stroke-linecap:round;stroke-linejoin:round;stroke:#000;stroke-miterlimit:10" transform="matrix(.1 0 0 -.1 0 1008.2)"/></g><g clip-path="url(#D)"><path d="m3.398438 3546.882812h5945.976562" style="fill:none;stroke-width:6.77036;stroke-linecap:round;stroke-linejoin:round;stroke:#000;stroke-miterlimit:10" transform="matrix(.1 0 0 -.1 0 1008.2)"/></g><path d="m4964.414062 3269.929688h4.804688v326.015624h-4.804688zm0 0" style="fill:none;stroke-width:3.98257;stroke-linecap:round;stroke-linejoin:round;stroke:#000;stroke-miterlimit:10" transform="matrix(.1 0 0 -.1 0 1008.2)"/><path d="m496.441406 681.207031h.480469v-32.601562h-.480469zm0 0"/><use x="466.39" xlink:href="#Z" y="730.099"/><use x="478.975925" xlink:href="#Q" y="730.099"/><use x="492.922019" xlink:href="#ai" y="730.099"/><use x="506.868114" xlink:href="#S" y="730.099"/><use x="483.1107" xlink:href="#aD" y="684.1463"/><path d="m4388.554688 3320.984375h4.84375v326.015625h-4.84375zm0 0" style="fill:none;stroke-width:3.98257;stroke-linecap:round;stroke-linejoin:round;stroke:#000;stroke-miterlimit:10" transform="matrix(.1 0 0 -.1 0 1008.2)"/><path d="m438.855469 676.101562h.484375v-32.601562h-.484375zm0 0"/><use x="415.015" xlink:href="#V" y="730.099"/><use x="436.105239" xlink:href="#Q" y="730.099"/><use x="425.5283" xlink:href="#aD" y="679.0404"/><path d="m3820.390625 3262.625h4.84375v333.320312h-4.84375zm0 0" style="fill:none;stroke-width:3.98257;stroke-linecap:round;stroke-linejoin:round;stroke:#000;stroke-miterlimit:10" transform="matrix(.1 0 0 -.1 0 1008.2)"/><path d="m382.039062 681.9375h.484376v-33.332031h-.484376zm0 0"/><use x="353.436" xlink:href="#ao" y="730.099"/><use x="367.212563" xlink:href="#ar" y="730.099"/><use x="379.118411" xlink:href="#Q" y="730.099"/><use x="393.064506" xlink:href="#ah" y="730.099"/><use x="369.3895" xlink:href="#aE" y="684.1463"/><path d="m3300.703125 3211.53125h4.84375v333.359375h-4.84375zm0 0" style="fill:none;stroke-width:3.98257;stroke-linecap:round;stroke-linejoin:round;stroke:#000;stroke-miterlimit:10" transform="matrix(.1 0 0 -.1 0 1008.2)"/><path d="m330.070312 687.046875h.484376v-33.335937h-.484376zm0 0"/><use x="311.075" xlink:href="#R" y="730.099"/><use x="323.150378" xlink:href="#Q" y="730.099"/><use x="317.41875" xlink:href="#aE" y="689.2521"/><path d="m937.617188 2850.085938h61.992187v3.398437h-61.992187zm0 0" style="fill:none;stroke-width:5.42242;stroke-linecap:round;stroke-linejoin:round;stroke:#000;stroke-miterlimit:10" transform="matrix(.1 0 0 -.1 0 1008.2)"/><path d="m93.761719 723.191406h6.199219v-.339844h-6.199219zm0 0"/><path d="m1360.703125 2850.085938h61.953125v3.398437h-61.953125zm0 0" style="fill:none;stroke-width:5.42242;stroke-linecap:round;stroke-linejoin:round;stroke:#000;stroke-miterlimit:10" transform="matrix(.1 0 0 -.1 0 1008.2)"/><path d="m136.070312 723.191406h6.195313v-.339844h-6.195313zm0 0"/><path d="m1918.242188 2850.085938h61.992187v3.398437h-61.992187zm0 0" style="fill:none;stroke-width:5.42242;stroke-linecap:round;stroke-linejoin:round;stroke:#000;stroke-miterlimit:10" transform="matrix(.1 0 0 -.1 0 1008.2)"/><path d="m191.824219 723.191406h6.199219v-.339844h-6.199219zm0 0"/><path d="m3421.679688 2850.085938h61.953124v3.398437h-61.953124zm0 0" style="fill:none;stroke-width:5.42242;stroke-linecap:round;stroke-linejoin:round;stroke:#000;stroke-miterlimit:10" transform="matrix(.1 0 0 -.1 0 1008.2)"/><path d="m342.164062 723.191406h6.199219v-.339844h-6.199219zm0 0"/><path d="m4037.460938 2850.085938h61.953124v3.398437h-61.953124zm0 0" style="fill:none;stroke-width:5.42242;stroke-linecap:round;stroke-linejoin:round;stroke:#000;stroke-miterlimit:10" transform="matrix(.1 0 0 -.1 0 1008.2)"/><path d="m403.746094 723.191406h6.195312v-.339844h-6.195312zm0 0"/><path d="m4551.210938 2850.085938h61.953124v3.398437h-61.953124zm0 0" style="fill:none;stroke-width:5.42242;stroke-linecap:round;stroke-linejoin:round;stroke:#000;stroke-miterlimit:10" transform="matrix(.1 0 0 -.1 0 1008.2)"/><path d="m455.121094 723.191406h6.195312v-.339844h-6.195312zm0 0"/><use x="538.54" xlink:href="#aF" y="673.935"/><use x="107.662" xlink:href="#aE" y="694.3584"/><path d="m681.132812 3269.929688h4.84375v326.015624h-4.84375zm0 0" style="fill:none;stroke-width:3.98257;stroke-linecap:round;stroke-linejoin:round;stroke:#000;stroke-miterlimit:10" transform="matrix(.1 0 0 -.1 0 1008.2)"/><path d="m68.113281 681.207031h.484375v-32.601562h-.484375zm0 0"/><use x="37.2145" xlink:href="#au" y="730.099"/><use x="58.304721" xlink:href="#Q" y="730.099"/><use x="72.421512" xlink:href="#ao" y="730.099"/><use x="54.786" xlink:href="#aD" y="684.1463"/><use x="240.651" xlink:href="#ai" y="730.099"/><use x="254.597094" xlink:href="#ae" y="730.099"/><use x="268.373657" xlink:href="#ao" y="730.099"/><use x="282.150221" xlink:href="#ar" y="730.099"/><use x="8.169" xlink:href="#aG" y="684.1463"/><path d="m2736.796875 3160.515625h4.804687v333.320313h-4.804687zm0 0" style="fill:none;stroke-width:3.98257;stroke-linecap:round;stroke-linejoin:round;stroke:#000;stroke-miterlimit:10" transform="matrix(.1 0 0 -.1 0 1008.2)"/><path d="m273.679688 692.152344h.480468v-33.335938h-.480468zm0 0"/><use x="261.027" xlink:href="#aE" y="694.358"/><path d="m2240.898438 3262.625h4.804687v333.320312h-4.804687zm0 0" style="fill:none;stroke-width:3.98257;stroke-linecap:round;stroke-linejoin:round;stroke:#000;stroke-miterlimit:10" transform="matrix(.1 0 0 -.1 0 1008.2)"/><path d="m224.089844 681.9375h.480468v-33.332031h-.480468zm0 0"/><use x="211.896" xlink:href="#P" y="730.099"/><use x="218.698735" xlink:href="#ad" y="730.099"/><use x="211.437406" xlink:href="#aE" y="684.1463"/><use x="107.355406" xlink:href="#X" y="730.099"/><path d="m1734.804688 3313.679688h4.804687v333.320312h-4.804687zm0 0" style="fill:none;stroke-width:3.98257;stroke-linecap:round;stroke-linejoin:round;stroke:#000;stroke-miterlimit:10" transform="matrix(.1 0 0 -.1 0 1008.2)"/><path d="m173.480469 676.832031h.480469v-33.332031h-.480469zm0 0"/><use x="157.034" xlink:href="#ay" y="730.099"/><use x="170.980082" xlink:href="#aq" y="730.099"/><use x="160.82658" xlink:href="#aE" y="679.0404"/><path d="m1203.164062 3160.515625h4.804688v333.320313h-4.804688zm0 0" style="fill:none;stroke-width:3.98257;stroke-linecap:round;stroke-linejoin:round;stroke:#000;stroke-miterlimit:10" transform="matrix(.1 0 0 -.1 0 1008.2)"/><path d="m120.316406 692.152344h.480469v-33.335938h-.480469zm0 0"/><g clip-path="url(#E)"><path d="m3.398438 1913.015625h5945.976562" style="fill:none;stroke-width:6.77036;stroke-linecap:round;stroke-linejoin:round;stroke:#000;stroke-miterlimit:10" transform="matrix(.1 0 0 -.1 0 1008.2)"/></g><g clip-path="url(#F)"><path d="m3.398438 2015.125h5945.976562" style="fill:none;stroke-width:6.77036;stroke-linecap:round;stroke-linejoin:round;stroke:#000;stroke-miterlimit:10" transform="matrix(.1 0 0 -.1 0 1008.2)"/></g><g clip-path="url(#G)"><path d="m3.398438 2117.234375h5945.976562" style="fill:none;stroke-width:6.77036;stroke-linecap:round;stroke-linejoin:round;stroke:#000;stroke-miterlimit:10" transform="matrix(.1 0 0 -.1 0 1008.2)"/></g><g clip-path="url(#H)"><path d="m3.398438 2219.34375h5945.976562" style="fill:none;stroke-width:6.77036;stroke-linecap:round;stroke-linejoin:round;stroke:#000;stroke-miterlimit:10" transform="matrix(.1 0 0 -.1 0 1008.2)"/></g><g clip-path="url(#I)"><path d="m3.398438 2321.492188h5945.976562" style="fill:none;stroke-width:6.77036;stroke-linecap:round;stroke-linejoin:round;stroke:#000;stroke-miterlimit:10" transform="matrix(.1 0 0 -.1 0 1008.2)"/></g><path d="m4971.09375 2095.59375h4.804688v326.015625h-4.804688zm0 0" style="fill:none;stroke-width:3.98257;stroke-linecap:round;stroke-linejoin:round;stroke:#000;stroke-miterlimit:10" transform="matrix(.1 0 0 -.1 0 1008.2)"/><path d="m497.109375 798.640625h.480469v-32.601563h-.480469zm0 0"/><use x="474.287" xlink:href="#T" y="854.005"/><use x="479.899512" xlink:href="#X" y="854.005"/><use x="493.676075" xlink:href="#P" y="854.005"/><use x="500.309644" xlink:href="#S" y="854.005"/><use x="483.77997" xlink:href="#aD" y="801.5812"/><path d="m4288.828125 1778.835938h4.84375v309.023437h-4.84375zm0 0" style="fill:none;stroke-width:3.98257;stroke-linecap:round;stroke-linejoin:round;stroke:#000;stroke-miterlimit:10" transform="matrix(.1 0 0 -.1 0 1008.2)"/><path d="m428.882812 830.316406h.484376v-30.902344h-.484376zm0 0"/><use x="419.277" xlink:href="#ab" y="854.005"/><use x="431.352378" xlink:href="#Q" y="854.005"/><use x="445.128941" xlink:href="#P" y="854.005"/><use x="428.68403" xlink:href="#aD" y="796.4753"/><path d="m3719.804688 1812.898438h4.804687v333.320312h-4.804687zm0 0" style="fill:none;stroke-width:3.98257;stroke-linecap:round;stroke-linejoin:round;stroke:#000;stroke-miterlimit:10" transform="matrix(.1 0 0 -.1 0 1008.2)"/><path d="m371.980469 826.910156h.480469v-33.332031h-.480469zm0 0"/><use x="353.956" xlink:href="#ai" y="854.005"/><use x="367.902094" xlink:href="#Q" y="854.005"/><use x="381.848189" xlink:href="#V" y="854.005"/><use x="371.7806" xlink:href="#aE" y="791.3695"/><path d="m3332.382812 2088.289062h4.84375v333.320313h-4.84375zm0 0" style="fill:none;stroke-width:3.98257;stroke-linecap:round;stroke-linejoin:round;stroke:#000;stroke-miterlimit:10" transform="matrix(.1 0 0 -.1 0 1008.2)"/><path d="m333.238281 799.371094h.480469v-33.332032h-.480469zm0 0"/><use x="317.473" xlink:href="#Q" y="854.005"/><use x="331.419094" xlink:href="#ah" y="854.005"/><use x="320.5855" xlink:href="#aE" y="801.5812"/><path d="m813.710938 1611.023438h61.992187v3.398437h-61.992187zm0 0" style="fill:none;stroke-width:5.42242;stroke-linecap:round;stroke-linejoin:round;stroke:#000;stroke-miterlimit:10" transform="matrix(.1 0 0 -.1 0 1008.2)"/><path d="m81.371094 847.097656h6.199218v-.339844h-6.199218zm0 0"/><path d="m2484.492188 1611.023438h61.992187v3.398437h-61.992187zm0 0" style="fill:none;stroke-width:5.42242;stroke-linecap:round;stroke-linejoin:round;stroke:#000;stroke-miterlimit:10" transform="matrix(.1 0 0 -.1 0 1008.2)"/><path d="m248.449219 847.097656h6.199219v-.339844h-6.199219zm0 0"/><path d="m2996.796875 1611.023438h61.953125v3.398437h-61.953125zm0 0" style="fill:none;stroke-width:5.42242;stroke-linecap:round;stroke-linejoin:round;stroke:#000;stroke-miterlimit:10" transform="matrix(.1 0 0 -.1 0 1008.2)"/><path d="m299.679688 847.097656h6.195312v-.339844h-6.195312zm0 0"/><path d="m4080.078125 1611.023438h61.992187v3.398437h-61.992187zm0 0" style="fill:none;stroke-width:5.42242;stroke-linecap:round;stroke-linejoin:round;stroke:#000;stroke-miterlimit:10" transform="matrix(.1 0 0 -.1 0 1008.2)"/><path d="m408.007812 847.097656h6.199219v-.339844h-6.199219zm0 0"/><path d="m4600.976562 1611.023438h61.953126v3.398437h-61.953126zm0 0" style="fill:none;stroke-width:5.42242;stroke-linecap:round;stroke-linejoin:round;stroke:#000;stroke-miterlimit:10" transform="matrix(.1 0 0 -.1 0 1008.2)"/><path d="m460.09375 847.097656h6.199219v-.339844h-6.199219zm0 0"/><use x="538.874" xlink:href="#aF" y="796.475"/><use x="111.287" xlink:href="#aD" y="791.36914"/><path d="m681.132812 2044.539062h4.84375v326.015626h-4.84375zm0 0" style="fill:none;stroke-width:3.98257;stroke-linecap:round;stroke-linejoin:round;stroke:#000;stroke-miterlimit:10" transform="matrix(.1 0 0 -.1 0 1008.2)"/><path d="m68.113281 803.746094h.484375v-32.601563h-.484375zm0 0"/><use x="52.0125" xlink:href="#ak" y="854.005"/><use x="58.985932" xlink:href="#Z" y="854.005"/><use x="54.78594" xlink:href="#aD" y="806.687"/><use x="265.80294" xlink:href="#W" y="854.005"/><use x="274.136527" xlink:href="#av" y="854.005"/><use x="8.16994" xlink:href="#aG" y="806.687"/><path d="m2829.296875 2037.195312h4.804687v333.359376h-4.804687zm0 0" style="fill:none;stroke-width:3.98257;stroke-linecap:round;stroke-linejoin:round;stroke:#000;stroke-miterlimit:10" transform="matrix(.1 0 0 -.1 0 1008.2)"/><path d="m282.929688 804.480469h.480468v-33.335938h-.480468zm0 0"/><use x="270.275" xlink:href="#aE" y="806.687"/><path d="m2210.507812 1778.835938h4.804688v316.328124h-4.804688zm0 0" style="fill:none;stroke-width:3.98257;stroke-linecap:round;stroke-linejoin:round;stroke:#000;stroke-miterlimit:10" transform="matrix(.1 0 0 -.1 0 1008.2)"/><path d="m221.050781 830.316406h.480469v-31.632812h-.480469zm0 0"/><use x="217.738" xlink:href="#ak" y="854.005"/><use x="224.711438" xlink:href="#ab" y="854.005"/><use x="220.8505" xlink:href="#aE" y="796.4753"/><use x="97.3715" xlink:href="#V" y="854.005"/><use x="118.461727" xlink:href="#X" y="854.005"/><use x="132.238278" xlink:href="#P" y="854.005"/><path d="m1790.351562 2095.59375h4.804688v326.015625h-4.804688zm0 0" style="fill:none;stroke-width:3.98257;stroke-linecap:round;stroke-linejoin:round;stroke:#000;stroke-miterlimit:10" transform="matrix(.1 0 0 -.1 0 1008.2)"/><path d="m179.035156 798.640625h.480469v-32.601563h-.480469zm0 0"/><use x="159.189" xlink:href="#ae" y="854.005"/><use x="173.645628" xlink:href="#ab" y="854.005"/><use x="165.70384" xlink:href="#aD" y="801.5812"/><path d="m1114.84375 1812.898438h4.84375v326.015624h-4.84375zm0 0" style="fill:none;stroke-width:3.98257;stroke-linecap:round;stroke-linejoin:round;stroke:#000;stroke-miterlimit:10" transform="matrix(.1 0 0 -.1 0 1008.2)"/><path d="m111.484375 826.910156h.480469v-32.601562h-.480469zm0 0"/><g clip-path="url(#J)"><path d="m3.398438 687.625h5945.976562" style="fill:none;stroke-width:6.77036;stroke-linecap:round;stroke-linejoin:round;stroke:#000;stroke-miterlimit:10" transform="matrix(.1 0 0 -.1 0 1008.2)"/></g><g clip-path="url(#K)"><path d="m3.398438 789.734375h5945.976562" style="fill:none;stroke-width:6.77036;stroke-linecap:round;stroke-linejoin:round;stroke:#000;stroke-miterlimit:10" transform="matrix(.1 0 0 -.1 0 1008.2)"/></g><g clip-path="url(#L)"><path d="m3.398438 891.84375h5945.976562" style="fill:none;stroke-width:6.77036;stroke-linecap:round;stroke-linejoin:round;stroke:#000;stroke-miterlimit:10" transform="matrix(.1 0 0 -.1 0 1008.2)"/></g><g clip-path="url(#M)"><path d="m3.398438 993.953125h5945.976562" style="fill:none;stroke-width:6.77036;stroke-linecap:round;stroke-linejoin:round;stroke:#000;stroke-miterlimit:10" transform="matrix(.1 0 0 -.1 0 1008.2)"/></g><g clip-path="url(#N)"><path d="m3.398438 1096.0625h5945.976562" style="fill:none;stroke-width:6.77036;stroke-linecap:round;stroke-linejoin:round;stroke:#000;stroke-miterlimit:10" transform="matrix(.1 0 0 -.1 0 1008.2)"/></g><g clip-path="url(#O)"><path d="m5932.421875 687.625v408.4375" fill="none" stroke="#000" stroke-linejoin="round" stroke-miterlimit="10" stroke-width="40.6426" transform="matrix(.1 0 0 -.1 0 1008.2)"/></g><path d="m5885.351562 687.625v408.4375" fill="none" stroke="#000" stroke-linejoin="round" stroke-miterlimit="10" stroke-width="12.8668" transform="matrix(.1 0 0 -.1 0 1008.2)"/><use x="281.229" xlink:href="#Q" y="975.2824"/><use x="295.175094" xlink:href="#ah" y="975.2824"/><path d="m4677.304688 768.054688h4.84375v326.015624h-4.84375zm0 0" fill="none" stroke="#000" stroke-linejoin="round" stroke-miterlimit="10" stroke-width="3.98257" transform="matrix(.1 0 0 -.1 0 1008.2)"/><path d="m467.730469 931.394531h.484375v-32.601562h-.484375zm0 0"/><use x="447.461" xlink:href="#ai" y="975.2824"/><use x="461.407094" xlink:href="#X" y="975.2824"/><use x="454.40202" xlink:href="#aD" y="934.3332"/><path d="m4112.1875 811.804688h4.804688v333.320312h-4.804688zm0 0" fill="none" stroke="#000" stroke-linejoin="round" stroke-miterlimit="10" stroke-width="3.98257" transform="matrix(.1 0 0 -.1 0 1008.2)"/><path d="m411.21875 927.019531h.480469v-33.332031h-.480469zm0 0"/><use x="388.311" xlink:href="#ah" y="975.2824"/><use x="393.923097" xlink:href="#an" y="975.2824"/><use x="407.69966" xlink:href="#P" y="975.2824"/><use x="415.182838" xlink:href="#P" y="975.2824"/><use x="398.5665" xlink:href="#aE" y="929.2273"/><path d="m3553.828125 811.804688h4.804687v333.320312h-4.804687zm0 0" fill="none" stroke="#000" stroke-linejoin="round" stroke-miterlimit="10" stroke-width="3.98257" transform="matrix(.1 0 0 -.1 0 1008.2)"/><path d="m355.382812 927.019531h.480469v-33.332031h-.480469zm0 0"/><use x="329.838" xlink:href="#an" y="975.2824"/><use x="343.784094" xlink:href="#Z" y="975.2824"/><use x="356.370019" xlink:href="#ab" y="975.2824"/><use x="342.7302" xlink:href="#aE" y="929.2273"/><path d="m2969.921875 709.695312h4.84375v333.320313h-4.84375zm0 0" fill="none" stroke="#000" stroke-linejoin="round" stroke-miterlimit="10" stroke-width="3.98257" transform="matrix(.1 0 0 -.1 0 1008.2)"/><path d="m296.992188 937.230469h.484374v-33.332031h-.484374zm0 0"/><path d="m1476.601562 398.25h61.992188v3.398438h-61.992188zm0 0" fill="none" stroke="#000" stroke-linejoin="round" stroke-miterlimit="10" stroke-width="5.42242" transform="matrix(.1 0 0 -.1 0 1008.2)"/><path d="m147.660156 968.375h6.195313v-.339844h-6.195313zm0 0"/><path d="m2150.859375 398.25h61.953125v3.398438h-61.953125zm0 0" fill="none" stroke="#000" stroke-linejoin="round" stroke-miterlimit="10" stroke-width="5.42242" transform="matrix(.1 0 0 -.1 0 1008.2)"/><path d="m215.085938 968.375h6.195312v-.339844h-6.195312zm0 0"/><path d="m3122.148438 398.25h61.953124v3.398438h-61.953124zm0 0" fill="none" stroke="#000" stroke-linejoin="round" stroke-miterlimit="10" stroke-width="5.42242" transform="matrix(.1 0 0 -.1 0 1008.2)"/><path d="m312.214844 968.375h6.195312v-.339844h-6.195312zm0 0"/><path d="m3755.351562 398.25h61.953126v3.398438h-61.953126zm0 0" fill="none" stroke="#000" stroke-linejoin="round" stroke-miterlimit="10" stroke-width="5.42242" transform="matrix(.1 0 0 -.1 0 1008.2)"/><path d="m375.535156 968.375h6.195313v-.339844h-6.195313zm0 0"/><path d="m4871.40625 398.25h61.992188v3.398438h-61.992188zm0 0" fill="none" stroke="#000" stroke-linejoin="round" stroke-miterlimit="10" stroke-width="5.42242" transform="matrix(.1 0 0 -.1 0 1008.2)"/><path d="m487.140625 968.375h6.199219v-.339844h-6.199219zm0 0"/><use x="505.126" xlink:href="#ay" y="975.2824"/><use x="519.072094" xlink:href="#X" y="975.2824"/><use x="532.848657" xlink:href="#P" y="975.2824"/><use x="539.482226" xlink:href="#az" y="975.2824"/><use x="515.6369" xlink:href="#aH" y="939.439"/><use x="284.340762" xlink:href="#aE" y="939.439"/><path d="m549.84375 587.46875h4.84375v326.015625h-4.84375zm0 0" fill="none" stroke="#000" stroke-linejoin="round" stroke-miterlimit="10" stroke-width="3.98257" transform="matrix(.1 0 0 -.1 0 1008.2)"/><path d="m54.984375 949.453125h.480469v-32.601563h-.480469zm0 0"/><use x="35.9391" xlink:href="#aA" y="975.2824"/><use x="55.498463" xlink:href="#Z" y="975.2824"/><use x="68.084394" xlink:href="#ab" y="975.2824"/><use x="79.309388" xlink:href="#aB" y="975.2824"/><use x="54.786" xlink:href="#aD" y="913.9097"/><use x="8.1696" xlink:href="#aG" y="929.2273"/><path d="m2437.109375 811.804688h4.84375v333.320312h-4.84375zm0 0" fill="none" stroke="#000" stroke-linejoin="round" stroke-miterlimit="10" stroke-width="3.98257" transform="matrix(.1 0 0 -.1 0 1008.2)"/><path d="m243.710938 927.019531h.480468v-33.332031h-.480468zm0 0"/><use x="231.058" xlink:href="#aE" y="929.2273"/><use x="231.517766" xlink:href="#P" y="975.2824"/><use x="238.320501" xlink:href="#ad" y="975.2824"/><path d="m1878.75 862.859375h4.804688v333.320313h-4.804688zm0 0" fill="none" stroke="#000" stroke-linejoin="round" stroke-miterlimit="10" stroke-width="3.98257" transform="matrix(.1 0 0 -.1 0 1008.2)"/><path d="m187.875 921.914062h.480469v-33.332031h-.480469zm0 0"/><use x="158.929" xlink:href="#ao" y="975.2824"/><use x="172.705551" xlink:href="#ar" y="975.2824"/><use x="185.291476" xlink:href="#aC" y="975.2824"/><use x="199.237558" xlink:href="#T" y="975.2824"/><use x="175.2216" xlink:href="#aE" y="924.1215"/><path d="m1292.734375 862.859375h4.804687v333.320313h-4.804687zm0 0" fill="none" stroke="#000" stroke-linejoin="round" stroke-miterlimit="10" stroke-width="3.98257" transform="matrix(.1 0 0 -.1 0 1008.2)"/><path d="m129.273438 921.914062h.480468v-33.332031h-.480468zm0 0"/><use x="103.982" xlink:href="#Z" y="975.2824"/><use x="116.567925" xlink:href="#ab" y="975.2824"/><use x="128.643303" xlink:href="#Q" y="975.2824"/><use x="116.6191" xlink:href="#aE" y="924.1215"/></svg>