<svg height="422.2em" viewBox="0 0 595.28 422.2" width="595.28em" xmlns="http://www.w3.org/2000/svg" xmlns:xlink="http://www.w3.org/1999/xlink"><clipPath id="a"><path d="m0 57h595.28125v1h-595.28125zm0 0"/></clipPath><clipPath id="b"><path d="m0 48h595.28125v2h-595.28125zm0 0"/></clipPath><clipPath id="c"><path d="m0 40h595.28125v1h-595.28125zm0 0"/></clipPath><clipPath id="d"><path d="m0 31h595.28125v2h-595.28125zm0 0"/></clipPath><clipPath id="e"><path d="m0 23h595.28125v1h-595.28125zm0 0"/></clipPath><clipPath id="f"><path d="m594 22h1.28125v36h-1.28125zm0 0"/></clipPath><clipPath id="g"><path d="m0 158h595.28125v2h-595.28125zm0 0"/></clipPath><clipPath id="h"><path d="m0 150h595.28125v1h-595.28125zm0 0"/></clipPath><clipPath id="i"><path d="m0 141h595.28125v2h-595.28125zm0 0"/></clipPath><clipPath id="j"><path d="m0 133h595.28125v1h-595.28125zm0 0"/></clipPath><clipPath id="k"><path d="m0 124h595.28125v2h-595.28125zm0 0"/></clipPath><clipPath id="l"><path d="m594 124h1.28125v36h-1.28125zm0 0"/></clipPath><clipPath id="m"><path d="m0 260h595.28125v1h-595.28125zm0 0"/></clipPath><clipPath id="n"><path d="m0 251h595.28125v2h-595.28125zm0 0"/></clipPath><clipPath id="o"><path d="m0 243h595.28125v2h-595.28125zm0 0"/></clipPath><clipPath id="p"><path d="m0 234h595.28125v2h-595.28125zm0 0"/></clipPath><clipPath id="q"><path d="m0 226h595.28125v2h-595.28125zm0 0"/></clipPath><clipPath id="r"><path d="m594 226h1.28125v36h-1.28125zm0 0"/></clipPath><clipPath id="s"><path d="m0 361h595.28125v2h-595.28125zm0 0"/></clipPath><clipPath id="t"><path d="m0 353h595.28125v2h-595.28125zm0 0"/></clipPath><clipPath id="u"><path d="m0 345h595.28125v1h-595.28125zm0 0"/></clipPath><clipPath id="v"><path d="m0 336h595.28125v2h-595.28125zm0 0"/></clipPath><clipPath id="w"><path d="m0 328h595.28125v1h-595.28125zm0 0"/></clipPath><clipPath id="x"><path d="m591 326h4.28125v39h-4.28125zm0 0"/></clipPath><symbol id="y" overflow="visible"><path d="m10.34375-15.234375h-1.734375v5.65625c-.734375-1.109375-1.90625-1.6875-3.359375-1.6875-2.84375 0-4.703125 2.28125-4.703125 5.765625 0 3.703125 1.796875 5.984375 4.765625 5.984375 1.5 0 2.546875-.5625 3.484375-1.921875v1.4375h1.546875zm-4.796875 5.59375c1.875 0 3.0625 1.65625 3.0625 4.28125 0 2.53125-1.203125 4.203125-3.046875 4.203125-1.921875 0-3.203125-1.6875-3.203125-4.234375s1.28125-4.25 3.1875-4.25zm0 0"/></symbol><symbol id="z" overflow="visible"><path d="m10.71875-4.890625c0-1.671875-.125-2.671875-.4375-3.5-.703125-1.796875-2.375-2.875-4.421875-2.875-3.0625 0-5.015625 2.3125-5.015625 5.9375 0 3.609375 1.875 5.8125 4.96875 5.8125 2.515625 0 4.25-1.421875 4.6875-3.8125h-1.765625c-.46875 1.453125-1.453125 2.203125-2.859375 2.203125-1.109375 0-2.046875-.5-2.640625-1.421875-.40625-.625-.5625-1.265625-.578125-2.34375zm-8.015625-1.421875c.140625-2.03125 1.375-3.34375 3.125-3.34375 1.78125 0 3.015625 1.375 3.015625 3.34375zm0 0"/></symbol><symbol id="A" overflow="visible"><path d="m5.3125-10.953125h-1.796875v-3.015625h-1.734375v3.015625h-1.484375v1.421875h1.484375v8.28125c0 1.125.75 1.734375 2.109375 1.734375.453125 0 .828125-.046875 1.421875-.15625v-1.453125c-.25.0625-.484375.078125-.84375.078125-.75 0-.953125-.203125-.953125-.984375v-7.5h1.796875zm0 0"/></symbol><symbol id="B" overflow="visible"><path d="m5.953125 0 4.203125-10.953125h-1.96875l-3.09375 8.890625-2.921875-8.890625h-1.96875l3.859375 10.953125zm0 0"/></symbol><symbol id="C" overflow="visible"><path d="m1.46875-10.953125v10.953125h1.75v-6.046875c0-2.234375 1.171875-3.703125 2.96875-3.703125 1.375 0 2.265625.84375 2.265625 2.15625v7.59375h1.734375v-8.28125c0-1.8125-1.359375-2.984375-3.484375-2.984375-1.625 0-2.671875.625-3.625 2.15625v-1.84375zm0 0"/></symbol><symbol id="D" overflow="visible"><path d="m11.1875-1.03125c-.1875.046875-.28125.046875-.375.046875-.609375 0-.9375-.3125-.9375-.859375v-6.4375c0-1.9375-1.421875-2.984375-4.125-2.984375-1.609375 0-2.890625.453125-3.640625 1.265625-.5.578125-.703125 1.203125-.75 2.28125h1.75c.15625-1.328125.953125-1.9375 2.578125-1.9375 1.59375 0 2.4375.578125 2.4375 1.625v.46875c-.015625.75-.390625 1.015625-1.8125 1.203125-2.46875.3125-2.84375.40625-3.515625.671875-1.265625.546875-1.921875 1.5-1.921875 2.921875 0 1.984375 1.390625 3.25 3.59375 3.25 1.390625 0 2.5-.484375 3.71875-1.609375.140625 1.125.671875 1.609375 1.8125 1.609375.375 0 .59375-.046875 1.1875-.1875zm-3.0625-2.421875c0 .59375-.15625.9375-.6875 1.421875-.703125.65625-1.5625.984375-2.59375.984375-1.359375 0-2.140625-.640625-2.140625-1.75 0-1.15625.75-1.734375 2.625-2.015625 1.859375-.25 2.21875-.328125 2.796875-.609375zm-1.765625-12.015625-2.03125 3.09375h1.25l3.125-3.09375zm0 0"/></symbol><symbol id="E" overflow="visible"><path d="m3.171875-15.234375h-1.75v15.234375h1.75zm0 0"/></symbol><symbol id="F" overflow="visible"><path d="m5.6875-11.265625c-3.09375 0-4.9375 2.1875-4.9375 5.875 0 3.703125 1.84375 5.875 4.953125 5.875 3.09375 0 4.953125-2.203125 4.953125-5.796875 0-3.796875-1.796875-5.953125-4.96875-5.953125zm.015625 1.609375c1.96875 0 3.140625 1.609375 3.140625 4.328125 0 2.59375-1.21875 4.203125-3.140625 4.203125-1.9375 0-3.125-1.609375-3.125-4.265625s1.1875-4.265625 3.125-4.265625zm0 0"/></symbol><symbol id="G" overflow="visible"><path d="m1.46875-10.953125v10.953125h1.75v-6.875c0-1.59375 1.15625-2.875 2.578125-2.875 1.296875 0 2.015625.796875 2.015625 2.203125v7.546875h1.765625v-6.875c0-1.59375 1.140625-2.875 2.5625-2.875 1.28125 0 2.03125.828125 2.03125 2.203125v7.546875h1.765625v-8.21875c0-1.96875-1.140625-3.046875-3.1875-3.046875-1.453125 0-2.34375.4375-3.359375 1.671875-.65625-1.171875-1.53125-1.671875-2.953125-1.671875-1.46875 0-2.4375.546875-3.359375 1.859375v-1.546875zm0 0"/></symbol><symbol id="H" overflow="visible"><path d="m1.8125-2.171875v2.171875h1.265625v.375c0 1.4375-.28125 1.859375-1.265625 1.90625v.796875c1.390625.03125 2.203125-.96875 2.203125-2.75v-2.5zm0 0"/></symbol><symbol id="I" overflow="visible"><path d="m9.15625-7.90625c-.015625-2.15625-1.4375-3.359375-3.96875-3.359375-2.546875 0-4.203125 1.3125-4.203125 3.34375 0 1.71875.875 2.53125 3.46875 3.15625l1.625.390625c1.21875.296875 1.703125.734375 1.703125 1.515625 0 1.046875-1.03125 1.734375-2.5625 1.734375-.9375 0-1.734375-.28125-2.171875-.734375-.265625-.3125-.390625-.625-.5-1.40625h-1.84375c.09375 2.53125 1.515625 3.75 4.375 3.75 2.765625 0 4.515625-1.359375 4.515625-3.46875 0-1.640625-.921875-2.53125-3.09375-3.0625l-1.671875-.390625c-1.421875-.34375-2.03125-.796875-2.03125-1.5625 0-1.03125.90625-1.65625 2.328125-1.65625 1.390625 0 2.15625.609375 2.1875 1.75zm0 0"/></symbol><symbol id="J" overflow="visible"><path d="m10.71875-4.890625c0-1.671875-.125-2.671875-.4375-3.5-.703125-1.796875-2.375-2.875-4.421875-2.875-3.0625 0-5.015625 2.3125-5.015625 5.9375 0 3.609375 1.875 5.8125 4.96875 5.8125 2.515625 0 4.25-1.421875 4.6875-3.8125h-1.765625c-.46875 1.453125-1.453125 2.203125-2.859375 2.203125-1.109375 0-2.046875-.5-2.640625-1.421875-.40625-.625-.5625-1.265625-.578125-2.34375zm-8.015625-1.421875c.140625-2.03125 1.375-3.34375 3.125-3.34375 1.78125 0 3.015625 1.375 3.015625 3.34375zm3.734375-9.15625-2 3.09375h1.25l3.109375-3.09375zm0 0"/></symbol><symbol id="K" overflow="visible"><path d="m3.828125-6.9375h7.265625v-1.71875h-7.265625v-4.875h8.28125v-1.703125h-10.234375v15.234375h1.953125zm0 0"/></symbol><symbol id="L" overflow="visible"><path d="m11.1875-1.03125c-.1875.046875-.28125.046875-.375.046875-.609375 0-.9375-.3125-.9375-.859375v-6.4375c0-1.9375-1.421875-2.984375-4.125-2.984375-1.609375 0-2.890625.453125-3.640625 1.265625-.5.578125-.703125 1.203125-.75 2.28125h1.75c.15625-1.328125.953125-1.9375 2.578125-1.9375 1.59375 0 2.4375.578125 2.4375 1.625v.46875c-.015625.75-.390625 1.015625-1.8125 1.203125-2.46875.3125-2.84375.40625-3.515625.671875-1.265625.546875-1.921875 1.5-1.921875 2.921875 0 1.984375 1.390625 3.25 3.59375 3.25 1.390625 0 2.5-.484375 3.71875-1.609375.140625 1.125.671875 1.609375 1.8125 1.609375.375 0 .59375-.046875 1.1875-.1875zm-3.0625-2.421875c0 .59375-.15625.9375-.6875 1.421875-.703125.65625-1.5625.984375-2.59375.984375-1.359375 0-2.140625-.640625-2.140625-1.75 0-1.15625.75-1.734375 2.625-2.015625 1.859375-.25 2.21875-.328125 2.796875-.609375zm0 0"/></symbol><symbol id="M" overflow="visible"><path d="m8.453125-10.953125v1.59375c-.890625-1.328125-1.84375-1.90625-3.234375-1.90625-2.640625 0-4.484375 2.46875-4.484375 5.96875 0 1.84375.4375 3.1875 1.375 4.296875.8125.953125 1.859375 1.484375 2.984375 1.484375 1.328125 0 2.265625-.59375 3.1875-1.96875v.5625c0 2.921875-.8125 4.015625-2.984375 4.015625-1.484375 0-2.265625-.578125-2.4375-1.84375h-1.765625c.15625 2.03125 1.765625 3.3125 4.15625 3.3125 1.609375 0 2.9375-.53125 3.65625-1.40625.84375-1.03125 1.15625-2.375 1.15625-4.953125v-9.15625zm-3.0625 1.296875c1.84375 0 2.890625 1.546875 2.890625 4.328125 0 2.65625-1.0625 4.203125-2.890625 4.203125-1.796875 0-2.84375-1.578125-2.84375-4.265625 0-2.671875 1.046875-4.265625 2.84375-4.265625zm0 0"/></symbol><symbol id="N" overflow="visible"><path d="m8.109375-10.953125-3.03125 8.53125-2.796875-8.53125h-1.859375l3.703125 11-.671875 1.734375c-.296875.765625-.671875 1.0625-1.40625 1.0625-.296875 0-.546875-.046875-.921875-.125v1.5625c.359375.1875.71875.28125 1.171875.28125.5625 0 1.171875-.1875 1.640625-.53125.53125-.390625.84375-.859375 1.1875-1.734375l4.875-13.25zm0 0"/></symbol><symbol id="O" overflow="visible"><path d="m4.0625-15.234375h-1.96875v15.234375h1.96875zm0 0"/></symbol><symbol id="P" overflow="visible"><path d="m1.46875-10.953125v12.546875c0 1.078125-.34375 1.4375-1.421875 1.4375-.125 0-.1875 0-.421875-.015625v1.484375c.203125.03125.3125.0625.578125.0625 1.96875 0 3-.78125 3-2.28125v-13.234375zm1.734375-4.28125h-1.734375v2.1875h1.734375zm0 0"/></symbol><symbol id="Q" overflow="visible"><path d="m9.265625-10.953125h-8.171875v1.53125h6.09375l-6.546875 7.859375v1.5625h8.90625v-1.53125h-6.78125l6.5-7.875zm0 0"/></symbol><symbol id="R" overflow="visible"><path d="m10.078125 0v-10.953125h-1.734375v6.203125c0 2.234375-1.171875 3.703125-2.984375 3.703125-1.390625 0-2.265625-.828125-2.265625-2.15625v-7.75h-1.734375v8.4375c0 1.828125 1.359375 3 3.484375 3 1.609375 0 2.640625-.5625 3.671875-2.015625v1.53125zm-3.890625-15.46875-2 3.09375h1.25l3.109375-3.09375zm0 0"/></symbol><symbol id="S" overflow="visible"><path d="m2.953125-15.234375h-1.734375v15.234375h1.734375v-4.265625l1.6875-1.671875 3.703125 5.9375h2.15625l-4.484375-7.171875 3.8125-3.78125h-2.234375l-4.640625 4.640625zm0 0"/></symbol><symbol id="T" overflow="visible"><path d="m1.859375 0h5.875c3.84375 0 6.203125-2.890625 6.203125-7.625s-2.328125-7.609375-6.203125-7.609375h-5.875zm1.953125-1.71875v-11.8125h3.59375c3 0 4.59375 2.03125 4.59375 5.921875 0 3.859375-1.59375 5.890625-4.59375 5.890625zm0 0"/></symbol><symbol id="U" overflow="visible"><path d="m3.140625-10.953125h-1.734375v10.953125h1.734375zm0-4.28125h-1.765625v2.1875h1.765625zm0 0"/></symbol><symbol id="V" overflow="visible"><path d="m9.84375-7.28125c-.078125-1.0625-.3125-1.75-.734375-2.359375-.75-1.015625-2.0625-1.625-3.59375-1.625-2.96875 0-4.875 2.34375-4.875 5.96875 0 3.546875 1.890625 5.78125 4.859375 5.78125 2.609375 0 4.265625-1.578125 4.46875-4.25h-1.75c-.296875 1.765625-1.1875 2.640625-2.671875 2.640625-1.9375 0-3.078125-1.578125-3.078125-4.171875 0-2.734375 1.125-4.359375 3.03125-4.359375 1.46875 0 2.375.859375 2.59375 2.375zm0 0"/></symbol><symbol id="W" overflow="visible"><path d="m1.125 4.5625h1.765625v-5.71875c.921875 1.140625 1.9375 1.640625 3.359375 1.640625 2.84375 0 4.6875-2.28125 4.6875-5.78125 0-3.671875-1.796875-5.96875-4.703125-5.96875-1.484375 0-2.6875.671875-3.5 1.96875v-1.65625h-1.609375zm4.8125-14.203125c1.921875 0 3.171875 1.703125 3.171875 4.3125 0 2.484375-1.265625 4.171875-3.171875 4.171875-1.859375 0-3.046875-1.671875-3.046875-4.234375 0-2.578125 1.1875-4.25 3.046875-4.25zm0 0"/></symbol><symbol id="X" overflow="visible"><path d="m1.46875-15.234375v15.234375h1.734375v-6.046875c0-2.234375 1.171875-3.703125 2.96875-3.703125.578125 0 1.125.171875 1.546875.484375.5.375.703125.90625.703125 1.671875v7.59375h1.734375v-8.28125c0-1.84375-1.3125-2.984375-3.453125-2.984375-1.546875 0-2.484375.484375-3.5 1.8125v-5.78125zm0 0"/></symbol><symbol id="Y" overflow="visible"><path d="m5.9375-6.515625h-4.96875v1.5h4.96875zm0 0"/></symbol><symbol id="Z" overflow="visible"><path d="m1.4375-10.953125v10.953125h1.765625v-5.6875c.015625-2.640625 1.109375-3.796875 3.5-3.734375v-1.78125c-.28125-.046875-.453125-.0625-.65625-.0625-1.140625 0-1.984375.671875-3 2.296875v-1.984375zm0 0"/></symbol><symbol id="aa" overflow="visible"><path d="m12.453125-10.765625c0-1.046875-.0625-1.34375-.390625-2.046875-.828125-1.765625-2.609375-2.671875-5.1875-2.671875-3.34375 0-5.40625 1.703125-5.40625 4.46875 0 1.859375.984375 3.03125 2.984375 3.546875l3.78125 1.015625c1.953125.5 2.796875 1.265625 2.796875 2.453125 0 .828125-.4375 1.65625-1.078125 2.125-.609375.4375-1.5625.640625-2.796875.640625-1.671875 0-2.78125-.390625-3.515625-1.28125-.5625-.65625-.8125-1.390625-.796875-2.328125h-1.84375c.03125 1.390625.296875 2.3125.90625 3.15625 1.046875 1.4375 2.796875 2.171875 5.125 2.171875 1.8125 0 3.296875-.421875 4.28125-1.171875 1.015625-.8125 1.671875-2.171875 1.671875-3.5 0-1.875-1.171875-3.25-3.234375-3.8125l-3.828125-1.03125c-1.84375-.5-2.515625-1.09375-2.515625-2.265625 0-1.546875 1.359375-2.5625 3.40625-2.5625 2.421875 0 3.78125 1.078125 3.8125 3.09375zm0 0"/></symbol><symbol id="ab" overflow="visible"><path d="m5.6875-11.265625c-3.09375 0-4.9375 2.1875-4.9375 5.875 0 3.703125 1.84375 5.875 4.953125 5.875 3.09375 0 4.953125-2.203125 4.953125-5.796875 0-3.796875-1.796875-5.953125-4.96875-5.953125zm.015625 1.609375c1.96875 0 3.140625 1.609375 3.140625 4.328125 0 2.59375-1.21875 4.203125-3.140625 4.203125-1.9375 0-3.125-1.609375-3.125-4.265625s1.1875-4.265625 3.125-4.265625zm-.6875-5.8125-2.03125 3.140625h1.265625l3.109375-3.140625zm3.640625 0-2.03125 3.140625h1.25l3.125-3.140625zm0 0"/></symbol><symbol id="ac" overflow="visible"><path d="m4.34375-15.234375h-1.734375v7.0625l.46875 4.65625h.8125l.453125-4.65625zm0 13.0625h-1.75v2.171875h1.75zm0 0"/></symbol><symbol id="ad" overflow="visible"><path d="m3.59375-5.328125 2.484375-2.484375 5.375 7.8125h2.296875l-6.265625-9.03125 6.203125-6.203125h-2.5l-7.59375 7.703125v-7.703125h-1.9375v15.234375h1.9375zm0 0"/></symbol><symbol id="ae" overflow="visible"><path d="m7.515625-4.578125c-1.421875 0-2.765625.484375-4 1.21875-1.578125.953125-3.515625 2.609375-3.515625 5.015625 0 2 1.765625 2.921875 3.5625 2.921875 1.421875 0 2.765625-.484375 3.984375-1.21875 1.59375-.953125 3.5-2.609375 3.5-5.015625 0-2-1.734375-2.921875-3.53125-2.921875zm0 0"/></symbol><symbol id="af" overflow="visible"><path d="m12.671875-8.8125c-.546875-2.359375-1.1875-4.703125-1.859375-7.046875 3.25-3.6875 6.1875-7.484375 6.1875-12.359375 0-3.828125-2.09375-9.3125-4.46875-12.15625-.171875-.140625-.375-.140625-.546875 0-3.203125 2.328125-5.078125 6.0625-5.078125 9.984375 0 1.765625.03125 3.5.234375 5.21875.25 2.203125.8125 4.34375 1.4375 6.46875-4 4.546875-8.515625 8.875-8.515625 14.90625 0 6.8125 4.921875 12.609375 11.28125 12.609375 1.046875 0 2.03125-.109375 3.015625-.28125.109375 1.09375.171875 2.171875.171875 3.25 0 .609375-.03125 1.1875-.0625 1.796875-.203125 3.359375-2.28125 6.4375-5.421875 6.515625-.03125 0-.0625.03125-.109375.03125-1.71875 0-3.21875-.984375-4.09375-2.375.375.171875.78125.3125 1.1875.3125 1.765625 0 3.21875-1.46875 3.21875-3.21875 0-1.90625-1.390625-3.53125-3.21875-3.53125-2 0-3.796875 1.5625-3.796875 3.53125 0 3.65625 2.953125 6.59375 6.609375 6.59375 4 0 6.734375-3.578125 6.96875-7.65625.046875-.640625.046875-1.25.046875-1.890625 0-1.21875-.078125-2.4375-.171875-3.65625.875-.28125 1.71875-.6875 2.46875-1.25 2.5-1.875 3.625-4.484375 3.625-7.046875 0-4.484375-3.390625-8.78125-8.609375-8.78125-.15625 0-.328125.03125-.5.03125zm2.875 15.75c-.46875-4.1875-1.25-8.1875-2.09375-12.15625 3.71875.3125 6.0625 3.421875 6.0625 6.546875 0 2.359375-1.625 4.796875-3.96875 5.609375zm-13.140625-7.984375c0-5.421875 3.65625-9.515625 7.3125-13.625.546875 2 1.09375 4 1.5625 6.03125-3.421875.78125-5.359375 3.65625-5.359375 6.640625 0 2.375 1.21875 4.78125 3.9375 6.234375.09375.03125.203125.0625.296875.0625.375 0 .6875-.328125.6875-.703125 0-.171875-.109375-.34375-.234375-.484375-1.90625-1.078125-2.78125-2.703125-2.78125-4.1875 0-2 1.5625-3.796875 4.234375-4.109375.875 4.0625 1.65625 8.09375 2.171875 12.4375-.921875.140625-1.84375.203125-2.78125.203125-4.609375 0-9.046875-3.890625-9.046875-8.5zm11.515625-34.515625c.578125 1.796875.71875 2.671875.71875 4.640625 0 4.296875-2.28125 7.71875-5.046875 11-.609375-2.125-1.125-4.203125-1.125-6.765625 0-3.765625 2.09375-7.1875 5.453125-8.875zm0 0"/></symbol><symbol id="ag" overflow="visible"><path d="m.84375-1.484375c.03125-1.125.78125-2.109375 1.828125-2.109375 1.015625 0 1.5 1.1875 1.5 2.34375 0 2-1.703125 3.421875-3.25 4.703125-.078125-.75-.140625-1.484375-.140625-2.234375 0-.140625.03125-.234375.03125-.375zm-1.6875-14.203125.375 20.296875c0 .40625.296875.703125.703125.703125.609375 0 .890625-.703125 1.359375-1.078125 2.125-1.734375 5.1875-2.953125 5.1875-5.71875 0-1.828125-1.359375-3.390625-3.15625-3.390625-1.078125 0-2.09375.375-2.984375 1.015625l.203125-11.828125c-.265625-.125-.53125-.234375-.84375-.234375s-.578125.109375-.84375.234375zm0 0"/></symbol><symbol id="ah" overflow="visible"><path d="m-2.140625-1.59375c0 1.1875.953125 2.140625 2.140625 2.140625s2.140625-.953125 2.140625-2.140625-.953125-2.125-2.140625-2.125-2.140625.9375-2.140625 2.125zm2.140625-10.59375c-5.25 0-11.140625 5.859375-11.140625 12.25 0 .28125.265625.484375.53125.484375.25 0 .515625-.171875.578125-.546875.890625-5.046875 4.984375-8.984375 10.03125-8.984375s9.140625 3.9375 10.03125 8.984375c.0625.375.328125.546875.578125.546875.265625 0 .53125-.203125.53125-.484375 0-6.390625-5.859375-12.25-11.140625-12.25zm0 0"/></symbol><symbol id="ai" overflow="visible"><path d="m4.4375-9.109375v9.109375h2.609375v-13.203125h-1.734375c-.421875 1.5625-1.78125 2.359375-4.046875 2.359375v1.734375zm0 0"/></symbol><symbol id="aj" overflow="visible"><path d="m3.984375-2.71875h-2.796875v2.71875h2.796875zm0 0"/></symbol><path d="m5421.601562 3563.171875h151.210938" fill="none" stroke="#000" stroke-linecap="round" stroke-miterlimit="10" stroke-width="14.6416" transform="matrix(.1 0 0 -.1 0 422.2)"/><path d="m708.59375 3563.171875h151.210938" fill="none" stroke="#000" stroke-linecap="round" stroke-miterlimit="10" stroke-width="14.6416" transform="matrix(.1 0 0 -.1 0 422.2)"/><g clip-path="url(#a)"><path d="m3.085938 3647.859375h5946.601562" fill="none" stroke="#000" stroke-linecap="round" stroke-miterlimit="10" stroke-width="6.17335" transform="matrix(.1 0 0 -.1 0 422.2)"/></g><g clip-path="url(#b)"><path d="m3.085938 3732.546875h5946.601562" fill="none" stroke="#000" stroke-linecap="round" stroke-miterlimit="10" stroke-width="6.17335" transform="matrix(.1 0 0 -.1 0 422.2)"/></g><g clip-path="url(#c)"><path d="m3.085938 3817.234375h5946.601562" fill="none" stroke="#000" stroke-linecap="round" stroke-miterlimit="10" stroke-width="6.17335" transform="matrix(.1 0 0 -.1 0 422.2)"/></g><g clip-path="url(#d)"><path d="m3.085938 3901.882812h5946.601562" fill="none" stroke="#000" stroke-linecap="round" stroke-miterlimit="10" stroke-width="6.17335" transform="matrix(.1 0 0 -.1 0 422.2)"/></g><g clip-path="url(#e)"><path d="m3.085938 3986.570312h5946.601562" fill="none" stroke="#000" stroke-linecap="round" stroke-miterlimit="10" stroke-width="6.17335" transform="matrix(.1 0 0 -.1 0 422.2)"/></g><path d="m3088.945312 3963.171875h7.773438v24.492187h-7.773438zm0 0" style="fill:none;stroke-width:3.98854;stroke-linecap:round;stroke-linejoin:round;stroke:#000;stroke-miterlimit:10" transform="matrix(.1 0 0 -.1 0 422.2)"/><path d="m308.894531 25.882812h.773438v-2.449218h-.773438zm0 0"/><path d="m3088.945312 3878.484375h7.773438v46.835937h-7.773438zm0 0" style="fill:none;stroke-width:3.98854;stroke-linecap:round;stroke-linejoin:round;stroke:#000;stroke-miterlimit:10" transform="matrix(.1 0 0 -.1 0 422.2)"/><path d="m308.894531 34.351562h.773438v-4.679687h-.773438zm0 0"/><path d="m3088.945312 3793.796875h7.773438v46.835937h-7.773438zm0 0" style="fill:none;stroke-width:3.98854;stroke-linecap:round;stroke-linejoin:round;stroke:#000;stroke-miterlimit:10" transform="matrix(.1 0 0 -.1 0 422.2)"/><path d="m308.894531 42.820312h.773438v-4.683593h-.773438zm0 0"/><path d="m3088.945312 3709.109375h7.773438v46.835937h-7.773438zm0 0" style="fill:none;stroke-width:3.98854;stroke-linecap:round;stroke-linejoin:round;stroke:#000;stroke-miterlimit:10" transform="matrix(.1 0 0 -.1 0 422.2)"/><path d="m308.894531 51.289062h.773438v-4.683593h-.773438zm0 0"/><path d="m3088.945312 3646.765625h7.773438v24.492187h-7.773438zm0 0" style="fill:none;stroke-width:3.98854;stroke-linecap:round;stroke-linejoin:round;stroke:#000;stroke-miterlimit:10" transform="matrix(.1 0 0 -.1 0 422.2)"/><path d="m308.894531 57.523438h.773438v-2.449219h-.773438zm0 0"/><g clip-path="url(#f)"><path d="m5946.875 3647.859375v338.710937" fill="none" stroke="#000" stroke-linejoin="round" stroke-miterlimit="10" stroke-width="11.737" transform="matrix(.1 0 0 -.1 0 422.2)"/></g><use x="442.705" xlink:href="#y" y="89.927"/><use x="454.26984" xlink:href="#z" y="89.927"/><use x="465.66476" xlink:href="#A" y="89.927"/><use x="407.2991" xlink:href="#ae" y="53.1805"/><use x="402.0284" xlink:href="#B" y="89.927"/><use x="412.063571" xlink:href="#z" y="89.927"/><path d="m4177.539062 3708.835938h4.023438v258.515624h-4.023438zm0 0" fill="none" stroke="#000" stroke-linejoin="round" stroke-miterlimit="10" stroke-width="3.98854" transform="matrix(.1 0 0 -.1 0 422.2)"/><path d="m417.753906 51.316406h.402344v-25.851562h-.402344zm0 0"/><use x="451.547" xlink:href="#ae" y="57.415"/><path d="m4620 3666.492188h4.0625v300.859374h-4.0625zm0 0" fill="none" stroke="#000" stroke-linejoin="round" stroke-miterlimit="10" stroke-width="3.98854" transform="matrix(.1 0 0 -.1 0 422.2)"/><path d="m462 55.550781h.40625v-30.085937h-.40625zm0 0"/><use x="495.795" xlink:href="#ae" y="61.649"/><use x="363.05" xlink:href="#ae" y="48.9467"/><use x="357.01367" xlink:href="#C" y="89.9272"/><use x="368.578901" xlink:href="#z" y="89.9272"/><path d="m3735.039062 3751.179688h4.0625v216.171874h-4.0625zm0 0" fill="none" stroke="#000" stroke-linejoin="round" stroke-miterlimit="10" stroke-width="3.98854" transform="matrix(.1 0 0 -.1 0 422.2)"/><path d="m373.503906 47.082031h.40625v-21.617187h-.40625zm0 0"/><path d="m5062.5 3624.1875h4.0625v275.742188h-4.0625zm0 0" fill="none" stroke="#000" stroke-linejoin="round" stroke-miterlimit="10" stroke-width="3.98854" transform="matrix(.1 0 0 -.1 0 422.2)"/><path d="m506.25 59.785156h.402344v-27.574218h-.402344zm0 0"/><path d="m3885.390625 3380.242188h50.9375v3.085937h-50.9375zm0 0" fill="none" stroke="#000" stroke-linejoin="round" stroke-miterlimit="10" stroke-width="4.94546" transform="matrix(.1 0 0 -.1 0 422.2)"/><path d="m388.539062 84.175781h5.09375v-.308593h-5.09375zm0 0"/><path d="m3259.414062 3951.023438h1364.648438v36.679687h-1364.648438zm0 0" fill="none" stroke="#000" stroke-linejoin="round" stroke-miterlimit="10" stroke-width="3.98854" transform="matrix(.1 0 0 -.1 0 422.2)"/><path d="m325.941406 27.097656h136.464844v-3.667968h-136.464844zm0 0"/><path d="m5154.492188 3380.242188h50.9375v3.085937h-50.9375zm0 0" fill="none" stroke="#000" stroke-linejoin="round" stroke-miterlimit="10" stroke-width="4.94546" transform="matrix(.1 0 0 -.1 0 422.2)"/><path d="m515.449219 84.175781h5.09375v-.308593h-5.09375zm0 0"/><path d="m4306.210938 3380.242188h50.9375v3.085937h-50.9375zm0 0" fill="none" stroke="#000" stroke-linejoin="round" stroke-miterlimit="10" stroke-width="4.94546" transform="matrix(.1 0 0 -.1 0 422.2)"/><path d="m430.621094 84.175781h5.09375v-.308593h-5.09375zm0 0"/><path d="m1338.59375 3920.242188v-36.679688l446.523438 17.265625v36.640625zm0 0" fill="none" stroke="#000" stroke-linejoin="round" stroke-miterlimit="10" stroke-width="3.98854" transform="matrix(.1 0 0 -.1 0 422.2)"/><path d="m133.859375 30.175781v3.667969l44.652344-1.726562v-3.664063zm0 0"/><path d="m2345.3125 3380.242188h50.9375v3.085937h-50.9375zm0 0" fill="none" stroke="#000" stroke-linejoin="round" stroke-miterlimit="10" stroke-width="4.94546" transform="matrix(.1 0 0 -.1 0 422.2)"/><path d="m234.53125 84.175781h5.09375v-.308593h-5.09375zm0 0"/><path d="m1456.171875 3380.242188h50.976563v3.085937h-50.976563zm0 0" fill="none" stroke="#000" stroke-linejoin="round" stroke-miterlimit="10" stroke-width="4.94546" transform="matrix(.1 0 0 -.1 0 422.2)"/><path d="m145.617188 84.175781h5.097656v-.308593h-5.097656zm0 0"/><use x="493.246" xlink:href="#D" y="89.927"/><use x="504.81084" xlink:href="#E" y="89.927"/><path d="m5546.484375 3581.804688h4.023437v275.742187h-4.023437zm0 0" fill="none" stroke="#000" stroke-linejoin="round" stroke-miterlimit="10" stroke-width="3.98854" transform="matrix(.1 0 0 -.1 0 422.2)"/><path d="m554.648438 64.019531h.402343v-27.574219h-.402343zm0 0"/><use x="526.591" xlink:href="#y" y="89.927"/><use x="538.156231" xlink:href="#F" y="89.927"/><use x="549.721071" xlink:href="#G" y="89.927"/><use x="567.069122" xlink:href="#H" y="89.927"/><use x="544.1933" xlink:href="#ae" y="65.8829"/><path d="m1027.460938 3380.242188h50.9375v3.085937h-50.9375zm0 0" fill="none" stroke="#000" stroke-linejoin="round" stroke-miterlimit="10" stroke-width="4.94546" transform="matrix(.1 0 0 -.1 0 422.2)"/><path d="m102.746094 84.175781h5.09375v-.308593h-5.09375zm0 0"/><path d="m833.4375 3581.804688h4.0625v275.742187h-4.0625zm0 0" fill="none" stroke="#000" stroke-linejoin="round" stroke-miterlimit="10" stroke-width="3.98854" transform="matrix(.1 0 0 -.1 0 422.2)"/><path d="m83.34375 64.019531h.40625v-27.574219h-.40625zm0 0"/><use x="123.404" xlink:href="#ae" y="57.415"/><use x="117.96338" xlink:href="#I" y="89.9271"/><use x="128.33759" xlink:href="#J" y="89.9271"/><path d="m1338.59375 3666.492188h4.0625v233.554687h-4.0625zm0 0" fill="none" stroke="#000" stroke-linejoin="round" stroke-miterlimit="10" stroke-width="3.98854" transform="matrix(.1 0 0 -.1 0 422.2)"/><path d="m133.859375 55.550781h.402344v-23.355469h-.402344zm0 0"/><use x="72.8902" xlink:href="#ae" y="65.883"/><use x="6.7746" xlink:href="#af" y="48.9467"/><use x="37.2918" xlink:href="#ag" y="40.47834"/><use x="44.94532" xlink:href="#ag" y="27.77604"/><use x="64.21802" xlink:href="#K" y="89.92724"/><use x="76.464102" xlink:href="#z" y="89.92724"/><use x="88.029327" xlink:href="#E" y="89.92724"/><use x="40.27232" xlink:href="#ai" y="89.92724"/><use x="50.646902" xlink:href="#aj" y="89.92724"/><path d="m2223.554688 3751.179688h4.023437v275.742187h-4.023437zm0 0" fill="none" stroke="#000" stroke-linejoin="round" stroke-miterlimit="10" stroke-width="3.98854" transform="matrix(.1 0 0 -.1 0 422.2)"/><path d="m222.355469 47.082031h.402343v-27.574219h-.402343zm0 0"/><use x="260.298" xlink:href="#ae" y="48.946"/><use x="248.6484" xlink:href="#A" y="89.9265"/><use x="254.090976" xlink:href="#z" y="89.9265"/><use x="265.655816" xlink:href="#C" y="89.9265"/><use x="277.221047" xlink:href="#H" y="89.9265"/><path d="m2707.539062 3751.179688h4.023438v275.742187h-4.023438zm0 0" fill="none" stroke="#000" stroke-linejoin="round" stroke-miterlimit="10" stroke-width="3.98854" transform="matrix(.1 0 0 -.1 0 422.2)"/><path d="m270.753906 47.082031h.402344v-27.574219h-.402344zm0 0"/><use x="315.486" xlink:href="#ae" y="57.415"/><use x="298.5637" xlink:href="#C" y="89.9271"/><use x="310.128931" xlink:href="#L" y="89.9271"/><use x="321.693771" xlink:href="#M" y="89.9271"/><use x="333.088691" xlink:href="#N" y="89.9271"/><path d="m3259.414062 3666.492188h4.023438v300.859374h-4.023438zm0 0" fill="none" stroke="#000" stroke-linejoin="round" stroke-miterlimit="10" stroke-width="3.98854" transform="matrix(.1 0 0 -.1 0 422.2)"/><path d="m325.941406 55.550781h.402344v-30.085937h-.402344zm0 0"/><use x="209.351" xlink:href="#O" y="89.927"/><use x="215.133811" xlink:href="#I" y="89.927"/><use x="211.90061" xlink:href="#ae" y="48.9465"/><use x="167.65261" xlink:href="#ae" y="53.18048"/><use x="156.42881" xlink:href="#M" y="89.92698"/><use x="167.99365" xlink:href="#z" y="89.92698"/><use x="179.558881" xlink:href="#I" y="89.92698"/><path d="m1781.054688 3708.835938h4.0625v208.164062h-4.0625zm0 0" fill="none" stroke="#000" stroke-linejoin="round" stroke-miterlimit="10" stroke-width="3.98854" transform="matrix(.1 0 0 -.1 0 422.2)"/><path d="m178.105469 51.316406h.40625v-20.816406h-.40625zm0 0"/><g clip-path="url(#g)"><path d="m3.085938 2631.648438h5946.601562" style="fill:none;stroke-width:6.17335;stroke-linecap:round;stroke-linejoin:round;stroke:#000;stroke-miterlimit:10" transform="matrix(.1 0 0 -.1 0 422.2)"/></g><g clip-path="url(#h)"><path d="m3.085938 2716.335938h5946.601562" style="fill:none;stroke-width:6.17335;stroke-linecap:round;stroke-linejoin:round;stroke:#000;stroke-miterlimit:10" transform="matrix(.1 0 0 -.1 0 422.2)"/></g><g clip-path="url(#i)"><path d="m3.085938 2801.023438h5946.601562" style="fill:none;stroke-width:6.17335;stroke-linecap:round;stroke-linejoin:round;stroke:#000;stroke-miterlimit:10" transform="matrix(.1 0 0 -.1 0 422.2)"/></g><g clip-path="url(#j)"><path d="m3.085938 2885.710938h5946.601562" style="fill:none;stroke-width:6.17335;stroke-linecap:round;stroke-linejoin:round;stroke:#000;stroke-miterlimit:10" transform="matrix(.1 0 0 -.1 0 422.2)"/></g><g clip-path="url(#k)"><path d="m3.085938 2970.398438h5946.601562" style="fill:none;stroke-width:6.17335;stroke-linecap:round;stroke-linejoin:round;stroke:#000;stroke-miterlimit:10" transform="matrix(.1 0 0 -.1 0 422.2)"/></g><path d="m3116.132812 2946.960938h7.773438v24.53125h-7.773438zm0 0" style="fill:none;stroke-width:3.98854;stroke-linecap:round;stroke-linejoin:round;stroke:#000;stroke-miterlimit:10" transform="matrix(.1 0 0 -.1 0 422.2)"/><path d="m311.613281 127.503906h.773438v-2.453125h-.773438zm0 0"/><path d="m3116.132812 2862.3125h7.773438v46.796875h-7.773438zm0 0" style="fill:none;stroke-width:3.98854;stroke-linecap:round;stroke-linejoin:round;stroke:#000;stroke-miterlimit:10" transform="matrix(.1 0 0 -.1 0 422.2)"/><path d="m311.613281 135.972656h.773438v-4.683594h-.773438zm0 0"/><path d="m3116.132812 2777.625h7.773438v46.796875h-7.773438zm0 0" style="fill:none;stroke-width:3.98854;stroke-linecap:round;stroke-linejoin:round;stroke:#000;stroke-miterlimit:10" transform="matrix(.1 0 0 -.1 0 422.2)"/><path d="m311.613281 144.4375h.773438v-4.679688h-.773438zm0 0"/><path d="m3116.132812 2692.9375h7.773438v46.835938h-7.773438zm0 0" style="fill:none;stroke-width:3.98854;stroke-linecap:round;stroke-linejoin:round;stroke:#000;stroke-miterlimit:10" transform="matrix(.1 0 0 -.1 0 422.2)"/><path d="m311.613281 152.90625h.773438v-4.679688h-.773438zm0 0"/><path d="m3116.132812 2630.554688h7.773438v24.53125h-7.773438zm0 0" style="fill:none;stroke-width:3.98854;stroke-linecap:round;stroke-linejoin:round;stroke:#000;stroke-miterlimit:10" transform="matrix(.1 0 0 -.1 0 422.2)"/><path d="m311.613281 159.144531h.773438v-2.453125h-.773438zm0 0"/><g clip-path="url(#l)"><path d="m5946.875 2631.648438v338.75" fill="none" stroke="#000" stroke-linejoin="round" stroke-miterlimit="10" stroke-width="11.737" transform="matrix(.1 0 0 -.1 0 422.2)"/></g><use x="415.2" xlink:href="#ae" y="142.097"/><use x="412.65039" xlink:href="#J" y="190.0806"/><use x="424.21523" xlink:href="#P" y="190.0806"/><path d="m4153.984375 2542.234375h4.0625v240.117187h-4.0625zm0 0" fill="none" stroke="#000" stroke-linejoin="round" stroke-miterlimit="10" stroke-width="3.98854" transform="matrix(.1 0 0 -.1 0 422.2)"/><path d="m415.398438 167.976562h.40625v-24.011718h-.40625zm0 0"/><use x="457.577" xlink:href="#ae" y="146.331"/><use x="446.9485" xlink:href="#I" y="190.0806"/><use x="457.323125" xlink:href="#Q" y="190.0806"/><use x="467.697359" xlink:href="#L" y="190.0806"/><path d="m4577.734375 2531.84375h4.0625v208.203125h-4.0625zm0 0" fill="none" stroke="#000" stroke-linejoin="round" stroke-miterlimit="10" stroke-width="3.98854" transform="matrix(.1 0 0 -.1 0 422.2)"/><path d="m457.773438 169.015625h.40625v-20.820313h-.40625zm0 0"/><path d="m3730.234375 2552.664062h4.0625v272.070313h-4.0625zm0 0" fill="none" stroke="#000" stroke-linejoin="round" stroke-miterlimit="10" stroke-width="3.98854" transform="matrix(.1 0 0 -.1 0 422.2)"/><path d="m373.023438 166.933594h.402343v-27.207032h-.402343zm0 0"/><use x="362.195" xlink:href="#I" y="190.081"/><use x="372.5696" xlink:href="#Q" y="190.081"/><use x="382.94381" xlink:href="#R" y="190.081"/><use x="372.8235" xlink:href="#ae" y="137.863"/><path d="m957.851562 2378.71875h50.9375v3.085938h-50.9375zm0 0" fill="none" stroke="#000" stroke-linejoin="round" stroke-miterlimit="10" stroke-width="4.94546" transform="matrix(.1 0 0 -.1 0 422.2)"/><path d="m95.785156 184.328125h5.09375v-.308594h-5.09375zm0 0"/><path d="m4353.28125 2378.71875h50.976562v3.085938h-50.976562zm0 0" fill="none" stroke="#000" stroke-linejoin="round" stroke-miterlimit="10" stroke-width="4.94546" transform="matrix(.1 0 0 -.1 0 422.2)"/><path d="m435.328125 184.328125h5.097656v-.308594h-5.097656zm0 0"/><path d="m3183.984375 2582.546875v-36.679687l1397.8125-34.453126v36.640626zm0 0" fill="none" stroke="#000" stroke-linejoin="round" stroke-miterlimit="10" stroke-width="3.98854" transform="matrix(.1 0 0 -.1 0 422.2)"/><path d="m318.398438 163.945312v3.667969l139.78125 3.445313v-3.664063zm0 0"/><path d="m5216.992188 2378.71875h50.9375v3.085938h-50.9375zm0 0" fill="none" stroke="#000" stroke-linejoin="round" stroke-miterlimit="10" stroke-width="4.94546" transform="matrix(.1 0 0 -.1 0 422.2)"/><path d="m521.699219 184.328125h5.09375v-.308594h-5.09375zm0 0"/><path d="m4842.734375 2378.71875h50.9375v3.085938h-50.9375zm0 0" fill="none" stroke="#000" stroke-linejoin="round" stroke-miterlimit="10" stroke-width="4.94546" transform="matrix(.1 0 0 -.1 0 422.2)"/><path d="m484.273438 184.328125h5.09375v-.308594h-5.09375zm0 0"/><path d="m1296.367188 2952.078125h481.367187v36.640625h-481.367187zm0 0" fill="none" stroke="#000" stroke-linejoin="round" stroke-miterlimit="10" stroke-width="3.98854" transform="matrix(.1 0 0 -.1 0 422.2)"/><path d="m129.636719 126.992188h48.136719v-3.664063h-48.136719zm0 0"/><path d="m2427.773438 2378.71875h50.9375v3.085938h-50.9375zm0 0" fill="none" stroke="#000" stroke-linejoin="round" stroke-miterlimit="10" stroke-width="4.94546" transform="matrix(.1 0 0 -.1 0 422.2)"/><path d="m242.777344 184.328125h5.09375v-.308594h-5.09375zm0 0"/><path d="m1452.65625 2378.71875h50.9375v3.085938h-50.9375zm0 0" fill="none" stroke="#000" stroke-linejoin="round" stroke-miterlimit="10" stroke-width="4.94546" transform="matrix(.1 0 0 -.1 0 422.2)"/><path d="m145.265625 184.328125h5.09375v-.308594h-5.09375zm0 0"/><use x="499.824" xlink:href="#ae" y="150.565"/><path d="m5565.703125 2735.007812h4.0625v275.742188h-4.0625zm0 0" fill="none" stroke="#000" stroke-linejoin="round" stroke-miterlimit="10" stroke-width="3.98854" transform="matrix(.1 0 0 -.1 0 422.2)"/><path d="m556.570312 148.699219h.402344v-27.574219h-.402344zm0 0"/><use x="532.17" xlink:href="#S" y="190.081"/><use x="542.204782" xlink:href="#F" y="190.081"/><use x="553.770013" xlink:href="#C" y="190.081"/><use x="565.334853" xlink:href="#H" y="190.081"/><use x="546.1157" xlink:href="#ae" y="150.5654"/><path d="m5102.773438 2735.007812h4.0625v275.742188h-4.0625zm0 0" fill="none" stroke="#000" stroke-linejoin="round" stroke-miterlimit="10" stroke-width="3.98854" transform="matrix(.1 0 0 -.1 0 422.2)"/><path d="m510.277344 148.699219h.40625v-27.574219h-.40625zm0 0"/><use x="494.383" xlink:href="#S" y="190.081"/><use x="504.757625" xlink:href="#D" y="190.081"/><use x="72.89" xlink:href="#ae" y="150.5654"/><use x="68.55445" xlink:href="#T" y="190.081"/><use x="83.691549" xlink:href="#U" y="190.081"/><path d="m833.4375 2735.007812h4.0625v275.742188h-4.0625zm0 0" fill="none" stroke="#000" stroke-linejoin="round" stroke-miterlimit="10" stroke-width="3.98854" transform="matrix(.1 0 0 -.1 0 422.2)"/><path d="m83.34375 148.699219h.40625v-27.574219h-.40625zm0 0"/><use x="119.181" xlink:href="#ae" y="150.565"/><use x="108.383" xlink:href="#V" y="190.0806"/><use x="119.098225" xlink:href="#I" y="190.0806"/><use x="129.472435" xlink:href="#J" y="190.0806"/><path d="m1296.367188 2735.007812h4.023437v233.398438h-4.023437zm0 0" fill="none" stroke="#000" stroke-linejoin="round" stroke-miterlimit="10" stroke-width="3.98854" transform="matrix(.1 0 0 -.1 0 422.2)"/><path d="m129.636719 148.699219h.402343v-23.339844h-.402343zm0 0"/><use x="6.77461" xlink:href="#af" y="150.565"/><use x="37.29181" xlink:href="#ag" y="142.09703"/><use x="44.94533" xlink:href="#ag" y="129.39473"/><use x="203.85233" xlink:href="#C" y="190.08063"/><use x="215.41717" xlink:href="#L" y="190.08063"/><use x="226.982401" xlink:href="#W" y="190.08063"/><path d="m2633.515625 2548.953125h4.0625v275.742187h-4.0625zm0 0" fill="none" stroke="#000" stroke-linejoin="round" stroke-miterlimit="10" stroke-width="3.98854" transform="matrix(.1 0 0 -.1 0 422.2)"/><path d="m263.351562 167.304688h.402344v-27.574219h-.402344zm0 0"/><use x="252.098" xlink:href="#W" y="190.081"/><use x="263.66284" xlink:href="#L" y="190.081"/><use x="275.228071" xlink:href="#E" y="190.081"/><use x="279.480016" xlink:href="#H" y="190.081"/><use x="263.1523" xlink:href="#ae" y="137.863"/><path d="m2158.710938 2548.953125h4.0625v275.742187h-4.0625zm0 0" fill="none" stroke="#000" stroke-linejoin="round" stroke-miterlimit="10" stroke-width="3.98854" transform="matrix(.1 0 0 -.1 0 422.2)"/><path d="m215.871094 167.304688h.40625v-27.574219h-.40625zm0 0"/><use x="318.2" xlink:href="#ae" y="142.097"/><use x="215.671" xlink:href="#ae" y="137.86262"/><use x="298.812" xlink:href="#X" y="190.08062"/><use x="310.377231" xlink:href="#F" y="190.08062"/><use x="321.942462" xlink:href="#I" y="190.08062"/><use x="332.316672" xlink:href="#Q" y="190.08062"/><use x="341.670569" xlink:href="#Y" y="190.08062"/><path d="m3183.984375 2566.101562h4.0625v216.289063h-4.0625zm0 0" fill="none" stroke="#000" stroke-linejoin="round" stroke-miterlimit="10" stroke-width="3.98854" transform="matrix(.1 0 0 -.1 0 422.2)"/><path d="m318.398438 165.589844h.40625v-21.628906h-.40625zm0 0"/><path d="m1773.710938 2735.007812h4.0625v233.398438h-4.0625zm0 0" fill="none" stroke="#000" stroke-linejoin="round" stroke-miterlimit="10" stroke-width="3.98854" transform="matrix(.1 0 0 -.1 0 422.2)"/><path d="m177.371094 148.699219h.40625v-23.339844h-.40625zm0 0"/><use x="154.587" xlink:href="#Z" y="190.081"/><use x="161.390114" xlink:href="#z" y="190.081"/><use x="172.955345" xlink:href="#G" y="190.081"/><use x="166.9167" xlink:href="#ae" y="150.5654"/><g clip-path="url(#m)"><path d="m3.085938 1615.476562h5946.601562" style="fill:none;stroke-width:6.17335;stroke-linecap:round;stroke-linejoin:round;stroke:#000;stroke-miterlimit:10" transform="matrix(.1 0 0 -.1 0 422.2)"/></g><g clip-path="url(#n)"><path d="m3.085938 1700.164062h5946.601562" style="fill:none;stroke-width:6.17335;stroke-linecap:round;stroke-linejoin:round;stroke:#000;stroke-miterlimit:10" transform="matrix(.1 0 0 -.1 0 422.2)"/></g><g clip-path="url(#o)"><path d="m3.085938 1784.851562h5946.601562" style="fill:none;stroke-width:6.17335;stroke-linecap:round;stroke-linejoin:round;stroke:#000;stroke-miterlimit:10" transform="matrix(.1 0 0 -.1 0 422.2)"/></g><g clip-path="url(#p)"><path d="m3.085938 1869.539062h5946.601562" style="fill:none;stroke-width:6.17335;stroke-linecap:round;stroke-linejoin:round;stroke:#000;stroke-miterlimit:10" transform="matrix(.1 0 0 -.1 0 422.2)"/></g><g clip-path="url(#q)"><path d="m3.085938 1954.1875h5946.601562" style="fill:none;stroke-width:6.17335;stroke-linecap:round;stroke-linejoin:round;stroke:#000;stroke-miterlimit:10" transform="matrix(.1 0 0 -.1 0 422.2)"/></g><path d="m3086.601562 1930.789062h7.773438v24.492188h-7.773438zm0 0" style="fill:none;stroke-width:3.98854;stroke-linecap:round;stroke-linejoin:round;stroke:#000;stroke-miterlimit:10" transform="matrix(.1 0 0 -.1 0 422.2)"/><path d="m308.660156 229.121094h.777344v-2.449219h-.777344zm0 0"/><path d="m3086.601562 1846.101562h7.773438v46.835938h-7.773438zm0 0" style="fill:none;stroke-width:3.98854;stroke-linecap:round;stroke-linejoin:round;stroke:#000;stroke-miterlimit:10" transform="matrix(.1 0 0 -.1 0 422.2)"/><path d="m308.660156 237.589844h.777344v-4.683594h-.777344zm0 0"/><path d="m3086.601562 1761.414062h7.773438v46.835938h-7.773438zm0 0" style="fill:none;stroke-width:3.98854;stroke-linecap:round;stroke-linejoin:round;stroke:#000;stroke-miterlimit:10" transform="matrix(.1 0 0 -.1 0 422.2)"/><path d="m308.660156 246.058594h.777344v-4.683594h-.777344zm0 0"/><path d="m3086.601562 1676.726562h7.773438v46.835938h-7.773438zm0 0" style="fill:none;stroke-width:3.98854;stroke-linecap:round;stroke-linejoin:round;stroke:#000;stroke-miterlimit:10" transform="matrix(.1 0 0 -.1 0 422.2)"/><path d="m308.660156 254.527344h.777344v-4.683594h-.777344zm0 0"/><path d="m3086.601562 1614.382812h7.773438v24.492188h-7.773438zm0 0" style="fill:none;stroke-width:3.98854;stroke-linecap:round;stroke-linejoin:round;stroke:#000;stroke-miterlimit:10" transform="matrix(.1 0 0 -.1 0 422.2)"/><path d="m308.660156 260.761719h.777344v-2.449219h-.777344zm0 0"/><g clip-path="url(#r)"><path d="m5946.875 1615.476562v338.710938" fill="none" stroke="#000" stroke-linejoin="round" stroke-miterlimit="10" stroke-width="11.737" transform="matrix(.1 0 0 -.1 0 422.2)"/></g><use x="404.743" xlink:href="#ae" y="252.184"/><use x="399.30238" xlink:href="#U" y="290.291"/><use x="403.89456" xlink:href="#G" y="290.291"/><path d="m4151.953125 1718.796875h4.0625v255.976563h-4.0625zm0 0" fill="none" stroke="#000" stroke-linejoin="round" stroke-miterlimit="10" stroke-width="3.98854" transform="matrix(.1 0 0 -.1 0 422.2)"/><path d="m415.195312 250.320312h.40625v-25.597656h-.40625zm0 0"/><use x="449.479" xlink:href="#ae" y="256.418"/><use x="438.2552" xlink:href="#G" y="290.291"/><use x="455.603251" xlink:href="#z" y="290.291"/><use x="467.168091" xlink:href="#E" y="290.291"/><path d="m4599.335938 1676.453125h4.023437v275.976563h-4.023437zm0 0" fill="none" stroke="#000" stroke-linejoin="round" stroke-miterlimit="10" stroke-width="3.98854" transform="matrix(.1 0 0 -.1 0 422.2)"/><path d="m459.933594 254.554688h.402344v-27.597657h-.402344zm0 0"/><path d="m3704.609375 1761.140625h4.0625v235.976563h-4.0625zm0 0" fill="none" stroke="#000" stroke-linejoin="round" stroke-miterlimit="10" stroke-width="3.98854" transform="matrix(.1 0 0 -.1 0 422.2)"/><path d="m370.460938 246.085938h.40625v-23.597657h-.40625zm0 0"/><use x="351.081" xlink:href="#G" y="290.291"/><use x="368.429027" xlink:href="#z" y="290.291"/><use x="360.00795" xlink:href="#ae" y="247.95"/><path d="m4272.03125 1376.609375h50.9375v3.085937h-50.9375zm0 0" fill="none" stroke="#000" stroke-linejoin="round" stroke-miterlimit="10" stroke-width="4.94546" transform="matrix(.1 0 0 -.1 0 422.2)"/><path d="m427.203125 284.539062h5.09375v-.308593h-5.09375zm0 0"/><path d="m3257.265625 2040.007812v-36.679687l1346.09375-67.460937v36.679687zm0 0" fill="none" stroke="#000" stroke-linejoin="round" stroke-miterlimit="10" stroke-width="3.98854" transform="matrix(.1 0 0 -.1 0 422.2)"/><path d="m325.726562 218.199219v3.667969l134.609376 6.746093v-3.667969zm0 0"/><path d="m5156.289062 1376.609375h50.9375v3.085937h-50.9375zm0 0" fill="none" stroke="#000" stroke-linejoin="round" stroke-miterlimit="10" stroke-width="4.94546" transform="matrix(.1 0 0 -.1 0 422.2)"/><path d="m515.628906 284.539062h5.09375v-.308593h-5.09375zm0 0"/><path d="m3871.015625 1376.609375h50.9375v3.085937h-50.9375zm0 0" fill="none" stroke="#000" stroke-linejoin="round" stroke-miterlimit="10" stroke-width="4.94546" transform="matrix(.1 0 0 -.1 0 422.2)"/><path d="m387.101562 284.539062h5.09375v-.308593h-5.09375zm0 0"/><path d="m3413.867188 1376.609375h50.976562v3.085937h-50.976562zm0 0" fill="none" stroke="#000" stroke-linejoin="round" stroke-miterlimit="10" stroke-width="4.94546" transform="matrix(.1 0 0 -.1 0 422.2)"/><path d="m341.386719 284.539062h5.09375v-.308593h-5.09375zm0 0"/><path d="m1220.351562 1529.695312h451.367188v36.679688h-451.367188zm0 0" fill="none" stroke="#000" stroke-linejoin="round" stroke-miterlimit="10" stroke-width="3.98854" transform="matrix(.1 0 0 -.1 0 422.2)"/><path d="m122.035156 269.230469h45.136719v-3.667969h-45.136719zm0 0"/><path d="m2352.03125 1376.609375h50.9375v3.085937h-50.9375zm0 0" fill="none" stroke="#000" stroke-linejoin="round" stroke-miterlimit="10" stroke-width="4.94546" transform="matrix(.1 0 0 -.1 0 422.2)"/><path d="m235.203125 284.539062h5.09375v-.308593h-5.09375zm0 0"/><path d="m1945.976562 1376.609375h50.9375v3.085937h-50.9375zm0 0" fill="none" stroke="#000" stroke-linejoin="round" stroke-miterlimit="10" stroke-width="4.94546" transform="matrix(.1 0 0 -.1 0 422.2)"/><path d="m194.597656 284.539062h5.09375v-.308593h-5.09375zm0 0"/><path d="m1430.585938 1376.609375h50.976562v3.085937h-50.976562zm0 0" fill="none" stroke="#000" stroke-linejoin="round" stroke-miterlimit="10" stroke-width="4.94546" transform="matrix(.1 0 0 -.1 0 422.2)"/><path d="m143.058594 284.539062h5.09375v-.308593h-5.09375zm0 0"/><use x="494.214" xlink:href="#ae" y="260.653"/><path d="m5536.132812 1634.148438h4.0625v275.742187h-4.0625zm0 0" fill="none" stroke="#000" stroke-linejoin="round" stroke-miterlimit="10" stroke-width="3.98854" transform="matrix(.1 0 0 -.1 0 422.2)"/><path d="m553.613281 258.785156h.40625v-27.574218h-.40625zm0 0"/><use x="528.534" xlink:href="#A" y="290.291"/><use x="534.146865" xlink:href="#F" y="290.291"/><use x="545.711705" xlink:href="#G" y="290.291"/><use x="563.059756" xlink:href="#H" y="290.291"/><use x="543.1598" xlink:href="#ae" y="260.6523"/><path d="m5046.679688 1634.148438h4.0625v275.742187h-4.0625zm0 0" fill="none" stroke="#000" stroke-linejoin="round" stroke-miterlimit="10" stroke-width="3.98854" transform="matrix(.1 0 0 -.1 0 422.2)"/><path d="m504.667969 258.785156h.40625v-27.574218h-.40625zm0 0"/><use x="491.664" xlink:href="#E" y="290.291"/><use x="496.256571" xlink:href="#D" y="290.291"/><use x="72.89" xlink:href="#ae" y="239.4816"/><use x="51.972" xlink:href="#aa" y="290.291"/><use x="65.918081" xlink:href="#Q" y="290.291"/><use x="75.953229" xlink:href="#z" y="290.291"/><use x="87.518063" xlink:href="#C" y="290.291"/><use x="99.083288" xlink:href="#A" y="290.291"/><path d="m730.898438 1532.78125h4.0625v275.742188h-4.0625zm0 0" fill="none" stroke="#000" stroke-linejoin="round" stroke-miterlimit="10" stroke-width="3.98854" transform="matrix(.1 0 0 -.1 0 422.2)"/><path d="m73.089844 268.921875h.402344v-27.574219h-.402344zm0 0"/><use x="121.835" xlink:href="#ae" y="239.482"/><use x="119.28539" xlink:href="#y" y="290.2914"/><use x="130.85023" xlink:href="#U" y="290.2914"/><path d="m1220.351562 1550.007812h4.023438v258.515626h-4.023438zm0 0" fill="none" stroke="#000" stroke-linejoin="round" stroke-miterlimit="10" stroke-width="3.98854" transform="matrix(.1 0 0 -.1 0 422.2)"/><path d="m122.035156 267.199219h.402344v-25.851563h-.402344zm0 0"/><use x="6.77461" xlink:href="#af" y="252.184"/><use x="37.29181" xlink:href="#ag" y="243.71564"/><use x="44.94533" xlink:href="#ag" y="231.01334"/><use x="205.86533" xlink:href="#I" y="290.29104"/><use x="216.23954" xlink:href="#J" y="290.29104"/><path d="m2699.726562 1718.796875h4.023438v275.742187h-4.023438zm0 0" fill="none" stroke="#000" stroke-linejoin="round" stroke-miterlimit="10" stroke-width="3.98854" transform="matrix(.1 0 0 -.1 0 422.2)"/><path d="m269.972656 250.320312h.402344v-27.574218h-.402344zm0 0"/><use x="247.698" xlink:href="#M" y="290.291"/><use x="259.26284" xlink:href="#z" y="290.291"/><use x="270.828071" xlink:href="#y" y="290.291"/><use x="259.5171" xlink:href="#ae" y="252.184"/><path d="m2115.039062 1504.578125h4.0625v261.601563h-4.0625zm0 0" fill="none" stroke="#000" stroke-linejoin="round" stroke-miterlimit="10" stroke-width="3.98854" transform="matrix(.1 0 0 -.1 0 422.2)"/><path d="m211.503906 271.746094h.40625v-26.164063h-.40625zm0 0"/><use x="315.273" xlink:href="#ae" y="243.716"/><use x="211.305892" xlink:href="#ae" y="243.716"/><use x="304.8148" xlink:href="#I" y="290.2914"/><use x="315.1894" xlink:href="#Q" y="290.2914"/><use x="325.224157" xlink:href="#z" y="290.2914"/><path d="m3257.265625 1803.484375h4.0625v215.976563h-4.0625zm0 0" fill="none" stroke="#000" stroke-linejoin="round" stroke-miterlimit="10" stroke-width="3.98854" transform="matrix(.1 0 0 -.1 0 422.2)"/><path d="m325.726562 241.851562h.40625v-21.597656h-.40625zm0 0"/><path d="m1667.695312 1550.007812h4.0625v258.515626h-4.0625zm0 0" fill="none" stroke="#000" stroke-linejoin="round" stroke-miterlimit="10" stroke-width="3.98854" transform="matrix(.1 0 0 -.1 0 422.2)"/><path d="m166.769531 267.199219h.402344v-25.851563h-.402344zm0 0"/><use x="155.771" xlink:href="#V" y="290.291"/><use x="166.486225" xlink:href="#I" y="290.291"/><use x="176.860435" xlink:href="#ab" y="290.291"/><use x="166.5698" xlink:href="#ae" y="239.4816"/><g clip-path="url(#s)"><path d="m3.085938 599.265625h5946.601562" style="fill:none;stroke-width:6.17335;stroke-linecap:round;stroke-linejoin:round;stroke:#000;stroke-miterlimit:10" transform="matrix(.1 0 0 -.1 0 422.2)"/></g><g clip-path="url(#t)"><path d="m3.085938 683.953125h5946.601562" style="fill:none;stroke-width:6.17335;stroke-linecap:round;stroke-linejoin:round;stroke:#000;stroke-miterlimit:10" transform="matrix(.1 0 0 -.1 0 422.2)"/></g><g clip-path="url(#u)"><path d="m3.085938 768.640625h5946.601562" style="fill:none;stroke-width:6.17335;stroke-linecap:round;stroke-linejoin:round;stroke:#000;stroke-miterlimit:10" transform="matrix(.1 0 0 -.1 0 422.2)"/></g><g clip-path="url(#v)"><path d="m3.085938 853.328125h5946.601562" style="fill:none;stroke-width:6.17335;stroke-linecap:round;stroke-linejoin:round;stroke:#000;stroke-miterlimit:10" transform="matrix(.1 0 0 -.1 0 422.2)"/></g><g clip-path="url(#w)"><path d="m3.085938 938.015625h5946.601562" style="fill:none;stroke-width:6.17335;stroke-linecap:round;stroke-linejoin:round;stroke:#000;stroke-miterlimit:10" transform="matrix(.1 0 0 -.1 0 422.2)"/></g><path d="m4770.15625 514.617188h151.25" style="fill:none;stroke-width:14.6416;stroke-linecap:round;stroke-linejoin:round;stroke:#000;stroke-miterlimit:10" transform="matrix(.1 0 0 -.1 0 422.2)"/><g clip-path="url(#x)"><path d="m5934.21875 599.265625v338.75" fill="none" stroke="#000" stroke-linejoin="round" stroke-miterlimit="10" stroke-width="37.057" transform="matrix(.1 0 0 -.1 0 422.2)"/></g><path d="m5891.289062 599.265625v338.75" fill="none" stroke="#000" stroke-linejoin="round" stroke-miterlimit="10" stroke-width="11.737" transform="matrix(.1 0 0 -.1 0 422.2)"/><path d="m4895.039062 533.25h4.023438v275.742188h-4.023438zm0 0" fill="none" stroke="#000" stroke-linejoin="round" stroke-miterlimit="10" stroke-width="3.98854" transform="matrix(.1 0 0 -.1 0 422.2)"/><path d="m489.503906 368.875h.402344v-27.574219h-.402344zm0 0"/><use x="275.969" xlink:href="#ae" y="358.0375"/><use x="459.915" xlink:href="#E" y="391.9949"/><use x="464.50718" xlink:href="#N" y="391.9949"/><use x="474.541962" xlink:href="#F" y="391.9949"/><use x="486.107193" xlink:href="#G" y="391.9949"/><use x="503.455244" xlink:href="#ac" y="391.9949"/><use x="484.5759" xlink:href="#ah" y="325.8539"/><use x="479.04699" xlink:href="#ae" y="370.7398"/><path d="m3815.195312 575.59375h4.023438v275.742188h-4.023438zm0 0" fill="none" stroke="#000" stroke-linejoin="round" stroke-miterlimit="10" stroke-width="3.98854" transform="matrix(.1 0 0 -.1 0 422.2)"/><path d="m381.519531 364.640625h.402344v-27.574219h-.402344zm0 0"/><use x="367.41" xlink:href="#Z" y="391.9949"/><use x="374.213114" xlink:href="#D" y="391.9949"/><use x="371.06547" xlink:href="#ae" y="366.5054"/><path d="m2864.21875 660.28125h4.0625v208.242188h-4.0625zm0 0" fill="none" stroke="#000" stroke-linejoin="round" stroke-miterlimit="10" stroke-width="3.98854" transform="matrix(.1 0 0 -.1 0 422.2)"/><path d="m286.421875 356.171875h.40625v-20.824219h-.40625zm0 0"/><use x="272.229" xlink:href="#ad" y="391.9949"/><use x="286.175477" xlink:href="#U" y="391.9949"/><path d="m1314.414062 359.578125h50.9375v3.085937h-50.9375zm0 0" fill="none" stroke="#000" stroke-linejoin="round" stroke-miterlimit="10" stroke-width="4.94546" transform="matrix(.1 0 0 -.1 0 422.2)"/><path d="m131.441406 386.242188h5.09375v-.308594h-5.09375zm0 0"/><path d="m3265.390625 359.578125h50.976563v3.085937h-50.976563zm0 0" fill="none" stroke="#000" stroke-linejoin="round" stroke-miterlimit="10" stroke-width="4.94546" transform="matrix(.1 0 0 -.1 0 422.2)"/><path d="m326.539062 386.242188h5.097657v-.308594h-5.097657zm0 0"/><path d="m4203.007812 359.578125h50.9375v3.085937h-50.9375zm0 0" fill="none" stroke="#000" stroke-linejoin="round" stroke-miterlimit="10" stroke-width="4.94546" transform="matrix(.1 0 0 -.1 0 422.2)"/><path d="m420.300781 386.242188h5.09375v-.308594h-5.09375zm0 0"/><path d="m1892.109375 871.6875v-36.679688l976.171875 17.226563v36.679687zm0 0" fill="none" stroke="#000" stroke-linejoin="round" stroke-miterlimit="10" stroke-width="3.98854" transform="matrix(.1 0 0 -.1 0 422.2)"/><path d="m189.210938 335.03125v3.667969l97.617187-1.722657v-3.667968zm0 0"/><use x="37.2918" xlink:href="#ag" y="345.3352"/><use x="44.94532" xlink:href="#ag" y="332.6329"/><use x="6.77462" xlink:href="#af" y="353.8032"/><path d="m1892.109375 617.9375h4.023437v233.476562h-4.023437zm0 0" fill="none" stroke="#000" stroke-linejoin="round" stroke-miterlimit="10" stroke-width="3.98854" transform="matrix(.1 0 0 -.1 0 422.2)"/><path d="m189.210938 360.40625h.402343v-23.347656h-.402343zm0 0"/><use x="172.805" xlink:href="#M" y="391.9949"/><use x="184.199919" xlink:href="#L" y="391.9949"/><use x="178.75656" xlink:href="#ae" y="362.2715"/><path d="m833.4375 702.625h4.0625v275.742188h-4.0625zm0 0" fill="none" stroke="#000" stroke-linejoin="round" stroke-miterlimit="10" stroke-width="3.98854" transform="matrix(.1 0 0 -.1 0 422.2)"/><path d="m83.34375 351.9375h.40625v-27.574219h-.40625zm0 0"/><use x="61.6668" xlink:href="#T" y="391.9949"/><use x="76.803508" xlink:href="#Z" y="391.9949"/><use x="83.607019" xlink:href="#D" y="391.9949"/><use x="72.8902" xlink:href="#ae" y="353.8031"/></svg>