<svg height="478.09em" viewBox="0 0 595.28 478.09" width="595.28em" xmlns="http://www.w3.org/2000/svg" xmlns:xlink="http://www.w3.org/1999/xlink"><clipPath id="a"><path d="m0 63h595.28125v2h-595.28125zm0 0"/></clipPath><clipPath id="b"><path d="m0 54h595.28125v2h-595.28125zm0 0"/></clipPath><clipPath id="c"><path d="m0 44h595.28125v2h-595.28125zm0 0"/></clipPath><clipPath id="d"><path d="m0 35h595.28125v2h-595.28125zm0 0"/></clipPath><clipPath id="e"><path d="m0 25h595.28125v2h-595.28125zm0 0"/></clipPath><clipPath id="f"><path d="m594 25h1.28125v40h-1.28125zm0 0"/></clipPath><clipPath id="g"><path d="m0 177h595.28125v2h-595.28125zm0 0"/></clipPath><clipPath id="h"><path d="m0 167h595.28125v2h-595.28125zm0 0"/></clipPath><clipPath id="i"><path d="m0 158h595.28125v2h-595.28125zm0 0"/></clipPath><clipPath id="j"><path d="m0 149h595.28125v1h-595.28125zm0 0"/></clipPath><clipPath id="k"><path d="m0 139h595.28125v2h-595.28125zm0 0"/></clipPath><clipPath id="l"><path d="m594 139h1.28125v40h-1.28125zm0 0"/></clipPath><clipPath id="m"><path d="m0 290h595.28125v2h-595.28125zm0 0"/></clipPath><clipPath id="n"><path d="m0 281h595.28125v2h-595.28125zm0 0"/></clipPath><clipPath id="o"><path d="m0 272h595.28125v1h-595.28125zm0 0"/></clipPath><clipPath id="p"><path d="m0 262h595.28125v2h-595.28125zm0 0"/></clipPath><clipPath id="q"><path d="m0 253h595.28125v1h-595.28125zm0 0"/></clipPath><clipPath id="r"><path d="m594 252h1.28125v40h-1.28125zm0 0"/></clipPath><clipPath id="s"><path d="m0 404h595.28125v2h-595.28125zm0 0"/></clipPath><clipPath id="t"><path d="m0 395h595.28125v1h-595.28125zm0 0"/></clipPath><clipPath id="u"><path d="m0 385h595.28125v2h-595.28125zm0 0"/></clipPath><clipPath id="v"><path d="m0 376h595.28125v1h-595.28125zm0 0"/></clipPath><clipPath id="w"><path d="m0 366h595.28125v2h-595.28125zm0 0"/></clipPath><clipPath id="x"><path d="m591 365h4.28125v42h-4.28125zm0 0"/></clipPath><symbol id="y" overflow="visible"><path d="m8.40625-5.109375c-1.59375 0-3.109375.53125-4.46875 1.359375-1.78125 1.0625-3.9375 2.921875-3.9375 5.609375 0 2.234375 1.96875 3.25 3.96875 3.25 1.59375 0 3.109375-.53125 4.46875-1.359375 1.78125-1.0625 3.90625-2.921875 3.90625-5.609375 0-2.234375-1.9375-3.25-3.9375-3.25zm0 0"/></symbol><symbol id="z" overflow="visible"><path d="m8.140625 11.96875v-6.171875l1.859375-.640625c.21875-.078125.40625-.3125.40625-.578125v-2.453125c0-.421875-.40625-.71875-.796875-.578125l-1.46875.53125v-6.203125l1.859375-.6875c.21875-.078125.40625-.296875.40625-.5625v-2.421875c0-.421875-.40625-.71875-.796875-.5625l-1.46875.484375v-5.671875c0-.34375-.296875-.65625-.640625-.65625s-.640625.3125-.640625.65625v6.125l-3.296875 1.171875v-5.71875c0-.328125-.3125-.640625-.640625-.640625-.34375 0-.65625.3125-.65625.640625v6.171875l-1.84375.640625c-.234375.078125-.421875.3125-.421875.578125v2.453125c0 .421875.421875.71875.796875.578125l1.46875-.53125v6.203125l-1.84375.6875c-.234375.078125-.421875.296875-.421875.5625v2.421875c0 .421875.421875.71875.796875.5625l1.46875-.484375v5.671875c0 .34375.3125.65625.65625.65625.328125 0 .640625-.3125.640625-.65625v-6.125l3.296875-1.171875v5.71875c0 .328125.296875.640625.640625.640625s.640625-.3125.640625-.640625zm-4.578125-14.5 3.296875-1.140625v6.203125l-3.296875 1.140625zm0 0"/></symbol><symbol id="A" overflow="visible"><path d="m14.15625-9.84375c-.609375-2.65625-1.328125-5.265625-2.078125-7.875 3.640625-4.125 6.921875-8.359375 6.921875-13.8125 0-4.28125-2.34375-10.421875-4.984375-13.59375-.203125-.15625-.421875-.15625-.609375 0-3.59375 2.609375-5.6875 6.765625-5.6875 11.171875 0 1.96875.046875 3.890625.265625 5.828125.265625 2.453125.90625 4.84375 1.59375 7.234375-4.46875 5.0625-9.5 9.90625-9.5 16.65625 0 7.609375 5.484375 14.078125 12.609375 14.078125 1.171875 0 2.265625-.109375 3.359375-.296875.125 1.203125.1875 2.421875.1875 3.625 0 .6875-.03125 1.328125-.0625 2.015625-.234375 3.75-2.546875 7.1875-6.0625 7.265625-.03125 0-.078125.03125-.109375.03125-1.9375 0-3.609375-1.09375-4.59375-2.640625.421875.1875.875.328125 1.328125.328125 1.96875 0 3.59375-1.625 3.59375-3.59375 0-2.109375-1.546875-3.9375-3.59375-3.9375-2.234375 0-4.234375 1.75-4.234375 3.9375 0 4.09375 3.296875 7.390625 7.375 7.390625 4.46875 0 7.546875-4.015625 7.8125-8.5625.03125-.71875.03125-1.390625.03125-2.125 0-1.359375-.078125-2.71875-.1875-4.078125.984375-.3125 1.921875-.765625 2.765625-1.40625 2.796875-2.078125 4.046875-5 4.046875-7.875 0-5-3.78125-9.796875-9.609375-9.796875-.203125 0-.390625.03125-.578125.03125zm3.21875 17.609375c-.53125-4.703125-1.390625-9.171875-2.34375-13.59375 4.15625.34375 6.78125 3.828125 6.78125 7.296875 0 2.65625-1.828125 5.390625-4.4375 6.296875zm-14.6875-8.9375c0-6.0625 4.09375-10.640625 8.171875-15.21875.609375 2.234375 1.21875 4.46875 1.75 6.734375-3.828125.875-5.984375 4.09375-5.984375 7.421875 0 2.65625 1.359375 5.34375 4.390625 6.96875.109375.03125.234375.078125.34375.078125.421875 0 .75-.390625.75-.796875 0-.1875-.109375-.375-.265625-.53125-2.109375-1.21875-3.09375-3.03125-3.09375-4.703125 0-2.21875 1.734375-4.234375 4.734375-4.578125.984375 4.546875 1.84375 9.046875 2.421875 13.90625-1.03125.140625-2.046875.21875-3.109375.21875-5.15625 0-10.109375-4.359375-10.109375-9.5zm12.875-38.578125c.640625 2 .796875 2.984375.796875 5.1875 0 4.8125-2.546875 8.625-5.640625 12.296875-.6875-2.375-1.25-4.6875-1.25-7.5625 0-4.203125 2.34375-8.03125 6.09375-9.921875zm0 0"/></symbol><symbol id="B" overflow="visible"><path d="m11.96875-2.53125c0 .375-.125.796875-.390625 1.09375-.78125.953125-2.609375 2.125-4.046875 3.03125s-3.25 2.109375-4.421875 2.453125c-.15625.046875-.34375.078125-.5.078125-.828125 0-1.59375-.640625-1.59375-1.59375 0-.375.125-.796875.390625-1.09375.796875-.953125 2.609375-2.125 4.046875-3.03125s3.25-2.109375 4.421875-2.453125c.15625-.046875.34375-.078125.5-.078125.828125 0 1.59375.640625 1.59375 1.59375zm-1.9375-2.578125c-2.84375 0-5.140625.609375-7.15625 1.96875-1.203125.828125-2 2.125-2.453125 3.515625-.234375.6875-.421875 1.4375-.421875 2.15625 0 1.78125 1.28125 2.578125 2.953125 2.578125 2.84375 0 5.15625-.609375 7.15625-1.96875 1.203125-.828125 2-2.125 2.453125-3.515625.234375-.6875.421875-1.4375.421875-2.15625 0-1.78125-1.28125-2.578125-2.953125-2.578125zm0 0"/></symbol><symbol id="C" overflow="visible"><path d="m-2.390625-1.78125c0 1.328125 1.0625 2.390625 2.390625 2.390625s2.390625-1.0625 2.390625-2.390625-1.0625-2.390625-2.390625-2.390625-2.390625 1.0625-2.390625 2.390625zm2.390625-11.84375c-5.875 0-12.453125 6.546875-12.453125 13.703125 0 .296875.296875.53125.609375.53125.265625 0 .5625-.1875.640625-.609375.984375-5.640625 5.5625-10.03125 11.203125-10.03125s10.21875 4.390625 11.203125 10.03125c.078125.421875.375.609375.640625.609375.3125 0 .609375-.234375.609375-.53125 0-7.15625-6.546875-13.703125-12.453125-13.703125zm0 0"/></symbol><symbol id="D" overflow="visible"><path d="m10.234375-8.828125c-.015625-2.421875-1.609375-3.765625-4.4375-3.765625-2.859375 0-4.703125 1.46875-4.703125 3.734375 0 1.921875.984375 2.828125 3.890625 3.53125l1.8125.4375c1.359375.328125 1.90625.828125 1.90625 1.6875 0 1.171875-1.15625 1.9375-2.859375 1.9375-1.046875 0-1.9375-.296875-2.4375-.8125-.296875-.359375-.4375-.703125-.546875-1.5625h-2.0625c.09375 2.828125 1.6875 4.171875 4.890625 4.171875 3.078125 0 5.046875-1.515625 5.046875-3.875 0-1.828125-1.03125-2.828125-3.46875-3.40625l-1.859375-.453125c-1.59375-.375-2.28125-.890625-2.28125-1.75 0-1.140625 1.015625-1.84375 2.609375-1.84375 1.5625 0 2.40625.671875 2.453125 1.96875zm0 0"/></symbol><symbol id="E" overflow="visible"><path d="m10.359375-12.25h-9.140625v1.703125h6.828125l-7.328125 8.796875v1.75h9.96875v-1.703125h-7.609375l7.28125-8.8125zm0 0"/></symbol><symbol id="F" overflow="visible"><path d="m12.5-1.140625c-.203125.046875-.296875.046875-.421875.046875-.671875 0-1.046875-.359375-1.046875-.96875v-7.1875c0-2.1875-1.59375-3.34375-4.609375-3.34375-1.796875 0-3.21875.515625-4.0625 1.421875-.5625.625-.796875 1.328125-.84375 2.546875h1.96875c.15625-1.5 1.046875-2.171875 2.875-2.171875 1.78125 0 2.734375.65625 2.734375 1.828125v.5c-.03125.84375-.4375 1.15625-2.03125 1.359375-2.765625.359375-3.1875.453125-3.9375.75-1.421875.609375-2.140625 1.6875-2.140625 3.28125 0 2.21875 1.546875 3.609375 4.015625 3.609375 1.546875 0 2.78125-.53125 4.15625-1.796875.140625 1.265625.75 1.796875 2.015625 1.796875.421875 0 .671875-.046875 1.328125-.203125zm-3.40625-2.71875c0 .65625-.1875 1.046875-.765625 1.59375-.796875.71875-1.765625 1.09375-2.90625 1.09375-1.515625 0-2.40625-.71875-2.40625-1.953125 0-1.296875.84375-1.953125 2.9375-2.25 2.09375-.28125 2.484375-.375 3.140625-.671875zm-1.984375-13.4375-2.265625 3.453125h1.390625l3.484375-3.453125zm0 0"/></symbol><symbol id="G" overflow="visible"><path d="m3.296875-17.046875h-1.9375v17.046875h1.9375v-4.765625l1.890625-1.875 4.140625 6.640625h2.40625l-5-8.015625 4.25-4.234375h-2.5l-5.1875 5.1875zm0 0"/></symbol><symbol id="H" overflow="visible"><path d="m6.359375-12.59375c-3.453125 0-5.515625 2.453125-5.515625 6.5625 0 4.140625 2.0625 6.5625 5.53125 6.5625s5.546875-2.453125 5.546875-6.46875c0-4.25-2.015625-6.65625-5.5625-6.65625zm.015625 1.796875c2.203125 0 3.515625 1.796875 3.515625 4.84375 0 2.890625-1.359375 4.6875-3.515625 4.6875-2.171875 0-3.5-1.796875-3.5-4.765625s1.328125-4.765625 3.5-4.765625zm-.765625-6.5-2.265625 3.5h1.40625l3.484375-3.5zm4.0625 0-2.265625 3.5h1.40625l3.484375-3.5zm0 0"/></symbol><symbol id="I" overflow="visible"><path d="m11.984375-5.46875c0-1.875-.140625-3-.484375-3.90625-.796875-2.015625-2.671875-3.21875-4.953125-3.21875-3.421875 0-5.609375 2.59375-5.609375 6.640625 0 4.03125 2.09375 6.484375 5.5625 6.484375 2.796875 0 4.75-1.578125 5.234375-4.25h-1.96875c-.53125 1.609375-1.625 2.453125-3.203125 2.453125-1.234375 0-2.28125-.5625-2.9375-1.59375-.46875-.6875-.640625-1.390625-.65625-2.609375zm-8.96875-1.59375c.15625-2.265625 1.546875-3.734375 3.5-3.734375 2 0 3.375 1.546875 3.375 3.734375zm4.1875-10.234375-2.25 3.453125h1.40625l3.484375-3.453125zm0 0"/></symbol><symbol id="J" overflow="visible"><path d="m1.640625-12.25v12.25h1.953125v-6.75c0-2.5 1.3125-4.140625 3.328125-4.140625 1.546875 0 2.515625.9375 2.515625 2.40625v8.484375h1.953125v-9.25c0-2.046875-1.53125-3.34375-3.890625-3.34375-1.8125 0-2.984375.703125-4.0625 2.40625v-2.0625zm0 0"/></symbol><symbol id="K" overflow="visible"><path d="m3.546875-17.046875h-1.953125v17.046875h1.953125zm0 0"/></symbol><symbol id="L" overflow="visible"><path d="m6.359375-12.59375c-3.453125 0-5.515625 2.453125-5.515625 6.5625 0 4.140625 2.0625 6.5625 5.53125 6.5625s5.546875-2.453125 5.546875-6.46875c0-4.25-2.015625-6.65625-5.5625-6.65625zm.015625 1.796875c2.203125 0 3.515625 1.796875 3.515625 4.84375 0 2.890625-1.359375 4.6875-3.515625 4.6875-2.171875 0-3.5-1.796875-3.5-4.765625s1.328125-4.765625 3.5-4.765625zm0 0"/></symbol><symbol id="M" overflow="visible"><path d="m1.640625-12.25v12.25h1.953125v-7.6875c0-1.78125 1.296875-3.203125 2.875-3.203125 1.453125 0 2.28125.890625 2.28125 2.453125v8.4375h1.953125v-7.6875c0-1.78125 1.28125-3.203125 2.875-3.203125 1.421875 0 2.265625.90625 2.265625 2.453125v8.4375h1.96875v-9.1875c0-2.203125-1.265625-3.40625-3.546875-3.40625-1.640625 0-2.625.484375-3.765625 1.859375-.734375-1.296875-1.71875-1.859375-3.296875-1.859375-1.640625 0-2.734375.609375-3.765625 2.078125v-1.734375zm0 0"/></symbol><symbol id="N" overflow="visible"><path d="m2.03125-2.4375v2.4375h1.40625v.421875c0 1.609375-.3125 2.078125-1.40625 2.125v.890625c1.546875.046875 2.453125-1.078125 2.453125-3.0625v-2.8125zm0 0"/></symbol><symbol id="O" overflow="visible"><path d="m1.640625-17.046875v17.046875h1.9375v-6.75c0-2.5 1.3125-4.140625 3.3125-4.140625.65625 0 1.265625.1875 1.734375.53125.5625.421875.796875 1.015625.796875 1.875v8.484375h1.9375v-9.25c0-2.0625-1.46875-3.34375-3.859375-3.34375-1.71875 0-2.78125.53125-3.921875 2.03125v-6.484375zm0 0"/></symbol><symbol id="P" overflow="visible"><path d="m11.984375-5.46875c0-1.875-.140625-3-.484375-3.90625-.796875-2.015625-2.671875-3.21875-4.953125-3.21875-3.421875 0-5.609375 2.59375-5.609375 6.640625 0 4.03125 2.09375 6.484375 5.5625 6.484375 2.796875 0 4.75-1.578125 5.234375-4.25h-1.96875c-.53125 1.609375-1.625 2.453125-3.203125 2.453125-1.234375 0-2.28125-.5625-2.9375-1.59375-.46875-.6875-.640625-1.390625-.65625-2.609375zm-8.96875-1.59375c.15625-2.265625 1.546875-3.734375 3.5-3.734375 2 0 3.375 1.546875 3.375 3.734375zm0 0"/></symbol><symbol id="Q" overflow="visible"><path d="m16.578125-9h-7.109375v1.921875h5.1875v.46875c0 3.03125-2.25 5.234375-5.359375 5.234375-1.71875 0-3.296875-.640625-4.296875-1.734375-1.125-1.21875-1.796875-3.25-1.796875-5.359375 0-4.171875 2.390625-6.9375 5.984375-6.9375 2.59375 0 4.46875 1.328125 4.9375 3.53125h2.21875c-.609375-3.453125-3.234375-5.453125-7.140625-5.453125-2.078125 0-3.75.546875-5.09375 1.640625-1.984375 1.640625-3.078125 4.28125-3.078125 7.34375 0 5.234375 3.203125 8.875 7.796875 8.875 2.328125 0 4.140625-.859375 5.828125-2.703125l.53125 2.265625h1.390625zm0 0"/></symbol><symbol id="R" overflow="visible"><path d="m9.0625-12.25-3.375 9.53125-3.140625-9.53125h-2.078125l4.140625 12.296875-.75 1.9375c-.328125.875-.75 1.1875-1.5625 1.1875-.328125 0-.609375-.046875-1.03125-.140625v1.765625c.390625.203125.796875.296875 1.3125.296875.625 0 1.296875-.203125 1.8125-.578125.609375-.453125.96875-.96875 1.34375-1.9375l5.4375-14.828125zm0 0"/></symbol><symbol id="S" overflow="visible"><path d="m5.9375-12.25h-2.015625v-3.359375h-1.9375v3.359375h-1.65625v1.59375h1.65625v9.25c0 1.265625.84375 1.9375 2.359375 1.9375.515625 0 .9375-.046875 1.59375-.15625v-1.640625c-.28125.078125-.53125.09375-.9375.09375-.84375 0-1.078125-.234375-1.078125-1.09375v-8.390625h2.015625zm0 0"/></symbol><symbol id="T" overflow="visible"><path d="m6.65625 0 4.703125-12.25h-2.203125l-3.453125 9.9375-3.265625-9.9375h-2.203125l4.296875 12.25zm0 0"/></symbol><symbol id="U" overflow="visible"><path d="m1.609375-12.25v12.25h1.96875v-6.359375c.015625-2.9375 1.234375-4.25 3.921875-4.1875v-1.984375c-.328125-.046875-.515625-.0625-.75-.0625-1.25 0-2.21875.75-3.34375 2.5625v-2.21875zm0 0"/></symbol><symbol id="V" overflow="visible"><path d="m9.15625 0 5.921875-17.046875h-2.3125l-4.71875 14.421875-5.015625-14.421875h-2.328125l6.125 17.046875zm0 0"/></symbol><symbol id="W" overflow="visible"><path d="m11.578125-17.046875h-1.953125v6.34375c-.8125-1.234375-2.125-1.890625-3.765625-1.890625-3.171875 0-5.25 2.546875-5.25 6.453125 0 4.125 2.015625 6.671875 5.328125 6.671875 1.6875 0 2.84375-.625 3.90625-2.140625v1.609375h1.734375zm-5.390625 6.265625c2.109375 0 3.4375 1.859375 3.4375 4.796875 0 2.828125-1.34375 4.703125-3.40625 4.703125-2.15625 0-3.578125-1.890625-3.578125-4.75 0-2.84375 1.421875-4.75 3.546875-4.75zm0 0"/></symbol><symbol id="X" overflow="visible"><path d="m9.4375-12.25v1.78125c-.96875-1.46875-2.046875-2.125-3.59375-2.125-2.96875 0-5.03125 2.75-5.03125 6.6875 0 2.046875.5 3.546875 1.546875 4.78125.90625 1.078125 2.078125 1.65625 3.34375 1.65625 1.46875 0 2.53125-.640625 3.546875-2.1875v.625c0 3.28125-.90625 4.484375-3.34375 4.484375-1.65625 0-2.515625-.640625-2.703125-2.046875h-1.984375c.1875 2.265625 1.984375 3.6875 4.640625 3.6875 1.8125 0 3.296875-.578125 4.09375-1.5625.9375-1.140625 1.296875-2.671875 1.296875-5.546875v-10.234375zm-3.40625 1.453125c2.0625 0 3.21875 1.734375 3.21875 4.84375 0 2.96875-1.1875 4.6875-3.21875 4.6875-2.015625 0-3.171875-1.75-3.171875-4.765625 0-2.984375 1.15625-4.765625 3.171875-4.765625zm0 0"/></symbol><symbol id="Y" overflow="visible"><path d="m12.5-1.140625c-.203125.046875-.296875.046875-.421875.046875-.671875 0-1.046875-.359375-1.046875-.96875v-7.1875c0-2.1875-1.59375-3.34375-4.609375-3.34375-1.796875 0-3.21875.515625-4.0625 1.421875-.5625.625-.796875 1.328125-.84375 2.546875h1.96875c.15625-1.5 1.046875-2.171875 2.875-2.171875 1.78125 0 2.734375.65625 2.734375 1.828125v.5c-.03125.84375-.4375 1.15625-2.03125 1.359375-2.765625.359375-3.1875.453125-3.9375.75-1.421875.609375-2.140625 1.6875-2.140625 3.28125 0 2.21875 1.546875 3.609375 4.015625 3.609375 1.546875 0 2.78125-.53125 4.15625-1.796875.140625 1.265625.75 1.796875 2.015625 1.796875.421875 0 .671875-.046875 1.328125-.203125zm-3.40625-2.71875c0 .65625-.1875 1.046875-.765625 1.59375-.796875.71875-1.765625 1.09375-2.90625 1.09375-1.515625 0-2.40625-.71875-2.40625-1.953125 0-1.296875.84375-1.953125 2.9375-2.25 2.09375-.28125 2.484375-.375 3.140625-.671875zm0 0"/></symbol><symbol id="Z" overflow="visible"><path d="m11.078125-5.125 1.75 5.125h2.4375l-5.984375-17.046875h-2.8125l-6.078125 17.046875h2.328125l1.796875-5.125zm-.609375-1.8125h-5.421875l2.8125-7.765625zm0 0"/></symbol><symbol id="aa" overflow="visible"><path d="m6.03125-12.25h-2.03125v-1.921875c0-.8125.4375-1.234375 1.359375-1.234375.15625 0 .234375 0 .671875.03125v-1.625c-.4375-.09375-.703125-.109375-1.09375-.109375-1.8125 0-2.875 1.03125-2.875 2.78125v2.078125h-1.640625v1.59375h1.640625v10.65625h1.9375v-10.65625h2.03125zm0 0"/></symbol><symbol id="ab" overflow="visible"><path d="m4.46875-2.4375h-2.4375v2.4375h2.4375zm0 0"/></symbol><symbol id="ac" overflow="visible"><path d="m9.09375-17.328125c-4.890625 0-8.203125 3.609375-8.203125 8.9375 0 5.359375 3.296875 8.921875 8.21875 8.921875 2.09375 0 3.90625-.625 5.296875-1.796875 1.84375-1.5625 2.9375-4.203125 2.9375-6.984375 0-5.5-3.25-9.078125-8.25-9.078125zm0 1.921875c3.6875 0 6.078125 2.78125 6.078125 7.109375 0 4.109375-2.453125 6.921875-6.0625 6.921875-3.640625 0-6.046875-2.8125-6.046875-7.015625s2.40625-7.015625 6.03125-7.015625zm0 0"/></symbol><symbol id="ad" overflow="visible"><path d="m4.953125-10.1875v10.1875h2.921875v-14.765625h-1.9375c-.453125 1.75-1.984375 2.640625-4.515625 2.640625v1.9375zm0 0"/></symbol><symbol id="ae" overflow="visible"><path d="m4.453125-3.046875h-3.125v3.046875h3.125zm0 0"/></symbol><g clip-path="url(#a)"><path d="m3.242188 4139.298437h5946.25" fill="none" stroke="#000" stroke-linecap="round" stroke-miterlimit="10" stroke-width="6.52105" transform="matrix(.1 0 0 -.1 0 478.09)"/></g><g clip-path="url(#b)"><path d="m3.242188 4233.946875h5946.25" fill="none" stroke="#000" stroke-linecap="round" stroke-miterlimit="10" stroke-width="6.52105" transform="matrix(.1 0 0 -.1 0 478.09)"/></g><g clip-path="url(#c)"><path d="m3.242188 4328.595312h5946.25" fill="none" stroke="#000" stroke-linecap="round" stroke-miterlimit="10" stroke-width="6.52105" transform="matrix(.1 0 0 -.1 0 478.09)"/></g><g clip-path="url(#d)"><path d="m3.242188 4423.24375h5946.25" fill="none" stroke="#000" stroke-linecap="round" stroke-miterlimit="10" stroke-width="6.52105" transform="matrix(.1 0 0 -.1 0 478.09)"/></g><g clip-path="url(#e)"><path d="m3.242188 4517.892187h5946.25" fill="none" stroke="#000" stroke-linecap="round" stroke-miterlimit="10" stroke-width="6.52105" transform="matrix(.1 0 0 -.1 0 478.09)"/></g><g clip-path="url(#f)"><path d="m5946.5625 4139.298437v378.59375" fill="none" stroke="#000" stroke-miterlimit="10" stroke-width="12.389" transform="matrix(.1 0 0 -.1 0 478.09)"/></g><path d="m3349.21875 4491.485937h8.398438v27.65625h-8.398438zm0 0" fill="none" stroke="#000" stroke-linejoin="round" stroke-miterlimit="10" stroke-width="3.98456" transform="matrix(.1 0 0 -.1 0 478.09)"/><path d="m334.921875 28.941406h.839844v-2.765625h-.839844zm0 0"/><path d="m3349.21875 4396.8375h8.398438v52.8125h-8.398438zm0 0" fill="none" stroke="#000" stroke-linejoin="round" stroke-miterlimit="10" stroke-width="3.98456" transform="matrix(.1 0 0 -.1 0 478.09)"/><path d="m334.921875 38.40625h.839844v-5.28125h-.839844zm0 0"/><path d="m3349.21875 4302.189062h8.398438v52.8125h-8.398438zm0 0" fill="none" stroke="#000" stroke-linejoin="round" stroke-miterlimit="10" stroke-width="3.98456" transform="matrix(.1 0 0 -.1 0 478.09)"/><path d="m334.921875 47.871094h.839844v-5.28125h-.839844zm0 0"/><path d="m3349.21875 4207.540625h8.398438v52.8125h-8.398438zm0 0" fill="none" stroke="#000" stroke-linejoin="round" stroke-miterlimit="10" stroke-width="3.98456" transform="matrix(.1 0 0 -.1 0 478.09)"/><path d="m334.921875 57.335938h.839844v-5.28125h-.839844zm0 0"/><path d="m3349.21875 4138.048437h8.398438v27.65625h-8.398438zm0 0" fill="none" stroke="#000" stroke-linejoin="round" stroke-miterlimit="10" stroke-width="3.98456" transform="matrix(.1 0 0 -.1 0 478.09)"/><path d="m334.921875 64.285156h.839844v-2.765625h-.839844zm0 0"/><path d="m3940.039062 4065.939062h4.453126v289.375h-4.453126zm0 0" fill="none" stroke="#000" stroke-linejoin="round" stroke-miterlimit="10" stroke-width="3.98456" transform="matrix(.1 0 0 -.1 0 478.09)"/><path d="m394.003906 71.496094h.445313v-28.9375h-.445313zm0 0"/><use x="441.091" xlink:href="#y" y="45.23"/><path d="m4412.890625 4046.8375h4.492187v261.171875h-4.492187zm0 0" fill="none" stroke="#000" stroke-linejoin="round" stroke-miterlimit="10" stroke-width="3.98456" transform="matrix(.1 0 0 -.1 0 478.09)"/><path d="m441.289062 73.40625h.449219v-26.117188h-.449219zm0 0"/><use x="488.235" xlink:href="#y" y="49.963"/><use x="476.2162" xlink:href="#D" y="97.2857"/><use x="487.950979" xlink:href="#E" y="97.2857"/><use x="499.686149" xlink:href="#F" y="97.2857"/><path d="m4999.453125 4301.876562h4.492187v308.671875h-4.492187zm0 0" fill="none" stroke="#000" stroke-linejoin="round" stroke-miterlimit="10" stroke-width="3.98456" transform="matrix(.1 0 0 -.1 0 478.09)"/><path d="m499.945312 47.902344h.449219v-30.867188h-.449219zm0 0"/><use x="393.802" xlink:href="#G" y="97.285"/><use x="405.53717" xlink:href="#H" y="97.285"/><use x="393.802" xlink:href="#y" y="40.4979"/><use x="335.4004" xlink:href="#I" y="97.285"/><use x="348.326189" xlink:href="#J" y="97.285"/><path d="m1247.96875 3872.189062h57.265625v3.242188h-57.265625zm0 0" fill="none" stroke="#000" stroke-linejoin="round" stroke-miterlimit="10" stroke-width="5.21494" transform="matrix(.1 0 0 -.1 0 478.09)"/><path d="m124.796875 90.871094h5.726563v-.324219h-5.726563zm0 0"/><path d="m1370.351562 4084.845312v-41.445312l477.382813-19.453125v41.445312zm0 0" fill="none" stroke="#000" stroke-linejoin="round" stroke-miterlimit="10" stroke-width="3.98456" transform="matrix(.1 0 0 -.1 0 478.09)"/><path d="m137.035156 69.605469v4.144531l47.738282 1.945312v-4.144531zm0 0"/><path d="m1433.007812 4478.790625c115.507813 106.875 371.054688 88.945312 472.890626-33.125-102.382813 114.257812-357.929688 132.1875-472.890626 33.125zm0 0" style="fill:none;stroke-width:5.21473;stroke-linecap:round;stroke-linejoin:round;stroke:#000;stroke-miterlimit:10" transform="matrix(.1 0 0 -.1 0 478.09)"/><path d="m143.300781 30.210938c11.550781-10.6875 37.105469-8.894532 47.289063 3.3125-10.238282-11.425782-35.792969-13.21875-47.289063-3.3125"/><path d="m1908.671875 3872.189062h57.265625v3.242188h-57.265625zm0 0" fill="none" stroke="#000" stroke-linejoin="round" stroke-miterlimit="10" stroke-width="5.21494" transform="matrix(.1 0 0 -.1 0 478.09)"/><path d="m190.867188 90.871094h5.726562v-.324219h-5.726562zm0 0"/><path d="m2590.390625 3872.189062h57.226563v3.242188h-57.226563zm0 0" fill="none" stroke="#000" stroke-linejoin="round" stroke-miterlimit="10" stroke-width="5.21494" transform="matrix(.1 0 0 -.1 0 478.09)"/><path d="m259.039062 90.871094h5.722657v-.324219h-5.722657zm0 0"/><path d="m3940.039062 4084.845312v-41.445312l477.34375-19.453125v41.445312zm0 0" fill="none" stroke="#000" stroke-linejoin="round" stroke-miterlimit="10" stroke-width="3.98456" transform="matrix(.1 0 0 -.1 0 478.09)"/><path d="m394.003906 69.605469v4.144531l47.734375 1.945312v-4.144531zm0 0"/><path d="m4002.695312 4478.790625c115.46875 106.875 371.054688 88.945312 472.890626-33.125-102.382813 114.257812-357.96875 132.1875-472.890626 33.125zm0 0" style="fill:none;stroke-width:5.21473;stroke-linecap:round;stroke-linejoin:round;stroke:#000;stroke-miterlimit:10" transform="matrix(.1 0 0 -.1 0 478.09)"/><path d="m400.269531 30.210938c11.546875-10.6875 37.105469-8.894532 47.289063 3.3125-10.238282-11.425782-35.796875-13.21875-47.289063-3.3125"/><path d="m4444.765625 3872.189062h57.265625v3.242188h-57.265625zm0 0" fill="none" stroke="#000" stroke-linejoin="round" stroke-miterlimit="10" stroke-width="5.21494" transform="matrix(.1 0 0 -.1 0 478.09)"/><path d="m444.476562 90.871094h5.726563v-.324219h-5.726563zm0 0"/><path d="m5173.203125 3872.189062h57.265625v3.242188h-57.265625zm0 0" fill="none" stroke="#000" stroke-linejoin="round" stroke-miterlimit="10" stroke-width="5.21494" transform="matrix(.1 0 0 -.1 0 478.09)"/><path d="m517.320312 90.871094h5.726563v-.324219h-5.726563zm0 0"/><path d="m5438.007812 4015.11875h4.492188v292.851562h-4.492188zm0 0" fill="none" stroke="#000" stroke-linejoin="round" stroke-miterlimit="10" stroke-width="3.98456" transform="matrix(.1 0 0 -.1 0 478.09)"/><path d="m543.800781 76.578125h.449219v-29.285156h-.449219zm0 0"/><use x="527.756" xlink:href="#K" y="97.285"/><use x="533.028666" xlink:href="#L" y="97.285"/><use x="545.954065" xlink:href="#M" y="97.285"/><use x="565.343155" xlink:href="#N" y="97.285"/><use x="543.6013" xlink:href="#y" y="45.2299"/><use x="474.5115" xlink:href="#z" y="49.96232"/><path d="m3423.476562 4093.985937h4.453126v308.632813h-4.453126zm0 0" fill="none" stroke="#000" stroke-linejoin="round" stroke-miterlimit="10" stroke-width="3.98456" transform="matrix(.1 0 0 -.1 0 478.09)"/><path d="m342.347656 68.691406h.445313v-30.863281h-.445313zm0 0"/><use x="37.4199" xlink:href="#ad" y="97.285"/><use x="48.985543" xlink:href="#ae" y="97.285"/><path d="m1370.351562 4065.939062h4.492188v289.375h-4.492188zm0 0" fill="none" stroke="#000" stroke-linejoin="round" stroke-miterlimit="10" stroke-width="3.98456" transform="matrix(.1 0 0 -.1 0 478.09)"/><path d="m137.035156 71.496094h.449219v-28.9375h-.449219zm0 0"/><use x="342.148" xlink:href="#y" y="35.766"/><use x="136.835" xlink:href="#y" y="40.49842"/><path d="m853.789062 4093.985937h4.492188v308.632813h-4.492188zm0 0" fill="none" stroke="#000" stroke-linejoin="round" stroke-miterlimit="10" stroke-width="3.98456" transform="matrix(.1 0 0 -.1 0 478.09)"/><path d="m85.378906 68.691406h.449219v-30.863281h-.449219zm0 0"/><use x="136.835" xlink:href="#O" y="97.285"/><use x="149.760398" xlink:href="#P" y="97.285"/><use x="64.232668" xlink:href="#Q" y="97.285"/><use x="82.091274" xlink:href="#R" y="97.285"/><use x="93.826438" xlink:href="#H" y="97.285"/><use x="106.751836" xlink:href="#E" y="97.285"/><use x="40.6971" xlink:href="#z" y="26.301"/><use x="51.108" xlink:href="#z" y="40.4979"/><use x="7.5713" xlink:href="#A" y="54.6944"/><use x="85.1803" xlink:href="#y" y="35.7655"/><use x="217.5443" xlink:href="#z" y="49.9624"/><use x="283.0662" xlink:href="#y" y="45.22998"/><path d="m2429.804688 4301.876562h4.453124v308.671875h-4.453124zm0 0" fill="none" stroke="#000" stroke-linejoin="round" stroke-miterlimit="10" stroke-width="3.98456" transform="matrix(.1 0 0 -.1 0 478.09)"/><path d="m242.980469 47.902344h.445312v-30.867188h-.445312zm0 0"/><use x="224.777" xlink:href="#S" y="97.285"/><use x="230.89927" xlink:href="#P" y="97.285"/><use x="243.655527" xlink:href="#S" y="97.285"/><use x="231.26841" xlink:href="#y" y="49.9623"/><use x="273.68481" xlink:href="#K" y="97.285"/><use x="278.957476" xlink:href="#P" y="97.285"/><use x="291.882875" xlink:href="#J" y="97.285"/><path d="m2832.65625 4015.11875h4.492188v292.851562h-4.492188zm0 0" fill="none" stroke="#000" stroke-linejoin="round" stroke-miterlimit="10" stroke-width="3.98456" transform="matrix(.1 0 0 -.1 0 478.09)"/><path d="m283.265625 76.578125h.449219v-29.285156h-.449219zm0 0"/><path d="m1843.242188 4046.8375h4.492187v261.171875h-4.492187zm0 0" fill="none" stroke="#000" stroke-linejoin="round" stroke-miterlimit="10" stroke-width="3.98456" transform="matrix(.1 0 0 -.1 0 478.09)"/><path d="m184.324219 73.40625h.445312v-26.117188h-.445312zm0 0"/><use x="184.123" xlink:href="#y" y="45.23"/><g clip-path="url(#g)"><path d="m3.242188 3003.55625h5946.25" style="fill:none;stroke-width:6.52105;stroke-linecap:round;stroke-linejoin:round;stroke:#000;stroke-miterlimit:10" transform="matrix(.1 0 0 -.1 0 478.09)"/></g><g clip-path="url(#h)"><path d="m3.242188 3098.204687h5946.25" style="fill:none;stroke-width:6.52105;stroke-linecap:round;stroke-linejoin:round;stroke:#000;stroke-miterlimit:10" transform="matrix(.1 0 0 -.1 0 478.09)"/></g><g clip-path="url(#i)"><path d="m3.242188 3192.853125h5946.25" style="fill:none;stroke-width:6.52105;stroke-linecap:round;stroke-linejoin:round;stroke:#000;stroke-miterlimit:10" transform="matrix(.1 0 0 -.1 0 478.09)"/></g><g clip-path="url(#j)"><path d="m3.242188 3287.501562h5946.25" style="fill:none;stroke-width:6.52105;stroke-linecap:round;stroke-linejoin:round;stroke:#000;stroke-miterlimit:10" transform="matrix(.1 0 0 -.1 0 478.09)"/></g><g clip-path="url(#k)"><path d="m3.242188 3382.15h5946.25" style="fill:none;stroke-width:6.52105;stroke-linecap:round;stroke-linejoin:round;stroke:#000;stroke-miterlimit:10" transform="matrix(.1 0 0 -.1 0 478.09)"/></g><path d="m3288.203125 3355.74375h8.398437v27.65625h-8.398437zm0 0" style="fill:none;stroke-width:3.98456;stroke-linecap:round;stroke-linejoin:round;stroke:#000;stroke-miterlimit:10" transform="matrix(.1 0 0 -.1 0 478.09)"/><path d="m328.820312 142.515625h.839844v-2.765625h-.839844zm0 0"/><path d="m3288.203125 3261.095312h8.398437v52.8125h-8.398437zm0 0" style="fill:none;stroke-width:3.98456;stroke-linecap:round;stroke-linejoin:round;stroke:#000;stroke-miterlimit:10" transform="matrix(.1 0 0 -.1 0 478.09)"/><path d="m328.820312 151.980469h.839844v-5.28125h-.839844zm0 0"/><path d="m3288.203125 3166.446875h8.398437v52.8125h-8.398437zm0 0" style="fill:none;stroke-width:3.98456;stroke-linecap:round;stroke-linejoin:round;stroke:#000;stroke-miterlimit:10" transform="matrix(.1 0 0 -.1 0 478.09)"/><path d="m328.820312 161.445312h.839844v-5.28125h-.839844zm0 0"/><path d="m3288.203125 3071.798437h8.398437v52.8125h-8.398437zm0 0" style="fill:none;stroke-width:3.98456;stroke-linecap:round;stroke-linejoin:round;stroke:#000;stroke-miterlimit:10" transform="matrix(.1 0 0 -.1 0 478.09)"/><path d="m328.820312 170.910156h.839844v-5.28125h-.839844zm0 0"/><path d="m3288.203125 3002.30625h8.398437v27.65625h-8.398437zm0 0" style="fill:none;stroke-width:3.98456;stroke-linecap:round;stroke-linejoin:round;stroke:#000;stroke-miterlimit:10" transform="matrix(.1 0 0 -.1 0 478.09)"/><path d="m328.820312 177.859375h.839844v-2.765625h-.839844zm0 0"/><g clip-path="url(#l)"><path d="m5946.5625 3003.55625v378.59375" fill="none" stroke="#000" stroke-linejoin="round" stroke-miterlimit="10" stroke-width="12.389" transform="matrix(.1 0 0 -.1 0 478.09)"/></g><path d="m4705.15625 3030.978125h4.492188v301.835937h-4.492188zm0 0" fill="none" stroke="#000" stroke-linejoin="round" stroke-miterlimit="10" stroke-width="3.98456" transform="matrix(.1 0 0 -.1 0 478.09)"/><path d="m470.515625 174.996094h.449219v-30.1875h-.449219zm0 0"/><use x="330.236" xlink:href="#I" y="210.859"/><use x="343.161789" xlink:href="#D" y="210.859"/><use x="452.596271" xlink:href="#T" y="210.859"/><use x="463.821284" xlink:href="#F" y="210.859"/><use x="458.179" xlink:href="#B" y="177.7332"/><path d="m4089.921875 3071.485937h4.492187v308.671875h-4.492187zm0 0" fill="none" stroke="#000" stroke-linejoin="round" stroke-miterlimit="10" stroke-width="3.98456" transform="matrix(.1 0 0 -.1 0 478.09)"/><path d="m408.992188 170.941406h.449218v-30.867187h-.449218zm0 0"/><use x="391.131" xlink:href="#G" y="210.859"/><use x="402.86617" xlink:href="#H" y="210.859"/><use x="397.28295" xlink:href="#y" y="173.0012"/><path d="m3480.976562 3118.829687h4.492188v308.632813h-4.492188zm0 0" fill="none" stroke="#000" stroke-linejoin="round" stroke-miterlimit="10" stroke-width="3.98456" transform="matrix(.1 0 0 -.1 0 478.09)"/><path d="m348.097656 166.207031h.449219v-30.863281h-.449219zm0 0"/><path d="m1180.078125 2736.446875h57.265625v3.242187h-57.265625zm0 0" fill="none" stroke="#000" stroke-linejoin="round" stroke-miterlimit="10" stroke-width="5.21494" transform="matrix(.1 0 0 -.1 0 478.09)"/><path d="m118.007812 204.445312h5.726563v-.324218h-5.726563zm0 0"/><path d="m1795.429688 2736.446875h57.265624v3.242187h-57.265624zm0 0" fill="none" stroke="#000" stroke-linejoin="round" stroke-miterlimit="10" stroke-width="5.21494" transform="matrix(.1 0 0 -.1 0 478.09)"/><path d="m179.542969 204.445312h5.726562v-.324218h-5.726562zm0 0"/><path d="m2377.304688 2736.446875h57.226562v3.242187h-57.226562zm0 0" fill="none" stroke="#000" stroke-linejoin="round" stroke-miterlimit="10" stroke-width="5.21494" transform="matrix(.1 0 0 -.1 0 478.09)"/><path d="m237.730469 204.445312h5.722656v-.324218h-5.722656zm0 0"/><path d="m4313.320312 2736.446875h57.265626v3.242187h-57.265626zm0 0" fill="none" stroke="#000" stroke-linejoin="round" stroke-miterlimit="10" stroke-width="5.21494" transform="matrix(.1 0 0 -.1 0 478.09)"/><path d="m431.332031 204.445312h5.726563v-.324218h-5.726563zm0 0"/><path d="m4896.953125 2736.446875h57.265625v3.242187h-57.265625zm0 0" fill="none" stroke="#000" stroke-linejoin="round" stroke-miterlimit="10" stroke-width="5.21494" transform="matrix(.1 0 0 -.1 0 478.09)"/><path d="m489.695312 204.445312h5.726563v-.324218h-5.726563zm0 0"/><path d="m5374.335938 2983.634375h4.453124v301.875h-4.453124zm0 0" fill="none" stroke="#000" stroke-linejoin="round" stroke-miterlimit="10" stroke-width="3.98456" transform="matrix(.1 0 0 -.1 0 478.09)"/><path d="m537.433594 179.726562h.445312v-30.1875h-.445312zm0 0"/><use x="508.371" xlink:href="#U" y="210.859"/><use x="516.024921" xlink:href="#L" y="210.859"/><use x="528.950319" xlink:href="#M" y="210.859"/><use x="548.33941" xlink:href="#N" y="210.859"/><use x="525.0937" xlink:href="#B" y="182.4656"/><use x="40.6977" xlink:href="#z" y="139.8754"/><use x="51.1086" xlink:href="#z" y="154.0719"/><use x="336.3876" xlink:href="#y" y="168.2688"/><path d="m853.789062 2958.24375h4.492188v308.632812h-4.492188zm0 0" fill="none" stroke="#000" stroke-linejoin="round" stroke-miterlimit="10" stroke-width="3.98456" transform="matrix(.1 0 0 -.1 0 478.09)"/><path d="m85.378906 182.265625h.449219v-30.863281h-.449219zm0 0"/><use x="77.6688" xlink:href="#V" y="210.859"/><use x="92.125843" xlink:href="#I" y="210.859"/><use x="85.18052" xlink:href="#y" y="149.3399"/><use x="7.57152" xlink:href="#A" y="168.2688"/><use x="146.07652" xlink:href="#y" y="154.0719"/><path d="m2794.335938 3166.134375h4.492187v308.671875h-4.492187zm0 0" fill="none" stroke="#000" stroke-linejoin="round" stroke-miterlimit="10" stroke-width="3.98456" transform="matrix(.1 0 0 -.1 0 478.09)"/><path d="m279.433594 161.476562h.449218v-30.867187h-.449218zm0 0"/><use x="251.877" xlink:href="#E" y="210.859"/><use x="263.61217" xlink:href="#H" y="210.859"/><use x="276.537959" xlink:href="#M" y="210.859"/><use x="267.7235" xlink:href="#y" y="163.5367"/><path d="m2071.71875 2879.376562h4.492188v292.851563h-4.492188zm0 0" fill="none" stroke="#000" stroke-linejoin="round" stroke-miterlimit="10" stroke-width="3.98456" transform="matrix(.1 0 0 -.1 0 478.09)"/><path d="m207.171875 190.152344h.449219v-29.285156h-.449219zm0 0"/><use x="196.993" xlink:href="#M" y="210.859"/><use x="216.382066" xlink:href="#P" y="210.859"/><use x="206.97152" xlink:href="#y" y="158.8043"/><path d="m1462.773438 2910.939062h4.492187v308.632813h-4.492187zm0 0" fill="none" stroke="#000" stroke-linejoin="round" stroke-miterlimit="10" stroke-width="3.98456" transform="matrix(.1 0 0 -.1 0 478.09)"/><path d="m146.277344 187h.445312v-30.867188h-.445312zm0 0"/><use x="136.693" xlink:href="#W" y="210.859"/><use x="149.618789" xlink:href="#P" y="210.859"/><use x="162.544578" xlink:href="#K" y="210.859"/><g clip-path="url(#m)"><path d="m3.242188 1867.814062h5946.25" style="fill:none;stroke-width:6.52105;stroke-linecap:round;stroke-linejoin:round;stroke:#000;stroke-miterlimit:10" transform="matrix(.1 0 0 -.1 0 478.09)"/></g><g clip-path="url(#n)"><path d="m3.242188 1962.4625h5946.25" style="fill:none;stroke-width:6.52105;stroke-linecap:round;stroke-linejoin:round;stroke:#000;stroke-miterlimit:10" transform="matrix(.1 0 0 -.1 0 478.09)"/></g><g clip-path="url(#o)"><path d="m3.242188 2057.110937h5946.25" style="fill:none;stroke-width:6.52105;stroke-linecap:round;stroke-linejoin:round;stroke:#000;stroke-miterlimit:10" transform="matrix(.1 0 0 -.1 0 478.09)"/></g><g clip-path="url(#p)"><path d="m3.242188 2151.759375h5946.25" style="fill:none;stroke-width:6.52105;stroke-linecap:round;stroke-linejoin:round;stroke:#000;stroke-miterlimit:10" transform="matrix(.1 0 0 -.1 0 478.09)"/></g><g clip-path="url(#q)"><path d="m3.242188 2246.407812h5946.25" style="fill:none;stroke-width:6.52105;stroke-linecap:round;stroke-linejoin:round;stroke:#000;stroke-miterlimit:10" transform="matrix(.1 0 0 -.1 0 478.09)"/></g><path d="m3288.203125 2220.001562h8.398437v27.65625h-8.398437zm0 0" style="fill:none;stroke-width:3.98456;stroke-linecap:round;stroke-linejoin:round;stroke:#000;stroke-miterlimit:10" transform="matrix(.1 0 0 -.1 0 478.09)"/><path d="m328.820312 256.089844h.839844v-2.765625h-.839844zm0 0"/><path d="m3288.203125 2125.353125h8.398437v52.8125h-8.398437zm0 0" style="fill:none;stroke-width:3.98456;stroke-linecap:round;stroke-linejoin:round;stroke:#000;stroke-miterlimit:10" transform="matrix(.1 0 0 -.1 0 478.09)"/><path d="m328.820312 265.554688h.839844v-5.28125h-.839844zm0 0"/><path d="m3288.203125 2030.704687h8.398437v52.8125h-8.398437zm0 0" style="fill:none;stroke-width:3.98456;stroke-linecap:round;stroke-linejoin:round;stroke:#000;stroke-miterlimit:10" transform="matrix(.1 0 0 -.1 0 478.09)"/><path d="m328.820312 275.019531h.839844v-5.28125h-.839844zm0 0"/><path d="m3288.203125 1936.05625h8.398437v52.8125h-8.398437zm0 0" style="fill:none;stroke-width:3.98456;stroke-linecap:round;stroke-linejoin:round;stroke:#000;stroke-miterlimit:10" transform="matrix(.1 0 0 -.1 0 478.09)"/><path d="m328.820312 284.484375h.839844v-5.28125h-.839844zm0 0"/><path d="m3288.203125 1866.564062h8.398437v27.65625h-8.398437zm0 0" style="fill:none;stroke-width:3.98456;stroke-linecap:round;stroke-linejoin:round;stroke:#000;stroke-miterlimit:10" transform="matrix(.1 0 0 -.1 0 478.09)"/><path d="m328.820312 291.433594h.839844v-2.765625h-.839844zm0 0"/><g clip-path="url(#r)"><path d="m5946.5625 1867.814062v378.59375" fill="none" stroke="#000" stroke-linejoin="round" stroke-miterlimit="10" stroke-width="12.389" transform="matrix(.1 0 0 -.1 0 478.09)"/></g><path d="m4705.15625 1895.196875h4.492188v301.875h-4.492188zm0 0" fill="none" stroke="#000" stroke-linejoin="round" stroke-miterlimit="10" stroke-width="3.98456" transform="matrix(.1 0 0 -.1 0 478.09)"/><path d="m470.515625 288.570312h.449219v-30.1875h-.449219zm0 0"/><use x="325.814" xlink:href="#W" y="324.433"/><use x="338.739789" xlink:href="#U" y="324.433"/><use x="346.39371" xlink:href="#F" y="324.433"/><use x="458.20863" xlink:href="#F" y="324.433"/><use x="458.179" xlink:href="#B" y="291.3072"/><path d="m4089.921875 1935.74375h4.492187v308.671875h-4.492187zm0 0" fill="none" stroke="#000" stroke-linejoin="round" stroke-miterlimit="10" stroke-width="3.98456" transform="matrix(.1 0 0 -.1 0 478.09)"/><path d="m408.992188 284.515625h.449218v-30.867187h-.449218zm0 0"/><use x="390.621" xlink:href="#X" y="324.433"/><use x="403.377258" xlink:href="#Y" y="324.433"/><use x="397.28311" xlink:href="#y" y="286.5748"/><path d="m3480.976562 1983.0875h4.492188v308.632812h-4.492188zm0 0" fill="none" stroke="#000" stroke-linejoin="round" stroke-miterlimit="10" stroke-width="3.98456" transform="matrix(.1 0 0 -.1 0 478.09)"/><path d="m348.097656 279.78125h.449219v-30.863281h-.449219zm0 0"/><path d="m1732.929688 1600.704687h57.226562v3.242188h-57.226562zm0 0" fill="none" stroke="#000" stroke-linejoin="round" stroke-miterlimit="10" stroke-width="5.21494" transform="matrix(.1 0 0 -.1 0 478.09)"/><path d="m173.292969 318.019531h5.722656v-.324219h-5.722656zm0 0"/><path d="m2452.148438 1600.704687h57.226562v3.242188h-57.226562zm0 0" fill="none" stroke="#000" stroke-linejoin="round" stroke-miterlimit="10" stroke-width="5.21494" transform="matrix(.1 0 0 -.1 0 478.09)"/><path d="m245.214844 318.019531h5.722656v-.324219h-5.722656zm0 0"/><path d="m3721.054688 1600.704687h57.265624v3.242188h-57.265624zm0 0" fill="none" stroke="#000" stroke-linejoin="round" stroke-miterlimit="10" stroke-width="5.21494" transform="matrix(.1 0 0 -.1 0 478.09)"/><path d="m372.105469 318.019531h5.726562v-.324219h-5.726562zm0 0"/><path d="m4901.210938 1600.704687h57.226562v3.242188h-57.226562zm0 0" fill="none" stroke="#000" stroke-linejoin="round" stroke-miterlimit="10" stroke-width="5.21494" transform="matrix(.1 0 0 -.1 0 478.09)"/><path d="m490.121094 318.019531h5.722656v-.324219h-5.722656zm0 0"/><path d="m5374.335938 1847.892187h4.453124v301.875h-4.453124zm0 0" fill="none" stroke="#000" stroke-linejoin="round" stroke-miterlimit="10" stroke-width="3.98456" transform="matrix(.1 0 0 -.1 0 478.09)"/><path d="m537.433594 293.300781h.445312v-30.1875h-.445312zm0 0"/><use x="514.833" xlink:href="#U" y="324.433"/><use x="522.486921" xlink:href="#L" y="324.433"/><use x="535.41271" xlink:href="#J" y="324.433"/><use x="525.0935" xlink:href="#B" y="296.0396"/><use x="40.6975" xlink:href="#z" y="253.449"/><use x="51.1084" xlink:href="#z" y="267.6459"/><use x="336.3874" xlink:href="#y" y="281.8428"/><path d="m853.789062 1822.501562h4.492188v308.671875h-4.492188zm0 0" fill="none" stroke="#000" stroke-linejoin="round" stroke-miterlimit="10" stroke-width="3.98456" transform="matrix(.1 0 0 -.1 0 478.09)"/><path d="m85.378906 295.839844h.449219v-30.867188h-.449219zm0 0"/><use x="83.5367" xlink:href="#Z" y="324.433"/><use x="85.18045" xlink:href="#y" y="262.9139"/><use x="7.57145" xlink:href="#A" y="281.8428"/><use x="146.07645" xlink:href="#y" y="267.6459"/><path d="m2794.335938 2030.392187h4.492187v308.671875h-4.492187zm0 0" fill="none" stroke="#000" stroke-linejoin="round" stroke-miterlimit="10" stroke-width="3.98456" transform="matrix(.1 0 0 -.1 0 478.09)"/><path d="m279.433594 275.050781h.449218v-30.867187h-.449218zm0 0"/><use x="257.83" xlink:href="#aa" y="324.433"/><use x="264.122972" xlink:href="#F" y="324.433"/><use x="277.048761" xlink:href="#J" y="324.433"/><use x="267.72336" xlink:href="#y" y="277.1103"/><path d="m2071.71875 1743.634375h4.492188v292.851562h-4.492188zm0 0" fill="none" stroke="#000" stroke-linejoin="round" stroke-miterlimit="10" stroke-width="3.98456" transform="matrix(.1 0 0 -.1 0 478.09)"/><path d="m207.171875 303.726562h.449219v-29.285156h-.449219zm0 0"/><use x="187.979" xlink:href="#U" y="324.433"/><use x="195.462595" xlink:href="#P" y="324.433"/><use x="208.388384" xlink:href="#D" y="324.433"/><use x="220.123163" xlink:href="#E" y="324.433"/><use x="231.858333" xlink:href="#S" y="324.433"/><use x="206.9716" xlink:href="#y" y="272.3783"/><path d="m1462.773438 1775.196875h4.492187v308.632812h-4.492187zm0 0" fill="none" stroke="#000" stroke-linejoin="round" stroke-miterlimit="10" stroke-width="3.98456" transform="matrix(.1 0 0 -.1 0 478.09)"/><path d="m146.277344 300.570312h.445312v-30.863281h-.445312zm0 0"/><use x="140.18" xlink:href="#G" y="324.433"/><use x="151.405013" xlink:href="#P" y="324.433"/><g clip-path="url(#s)"><path d="m3.242188 732.071875h5946.25" style="fill:none;stroke-width:6.52105;stroke-linecap:round;stroke-linejoin:round;stroke:#000;stroke-miterlimit:10" transform="matrix(.1 0 0 -.1 0 478.09)"/></g><g clip-path="url(#t)"><path d="m3.242188 826.720312h5946.25" style="fill:none;stroke-width:6.52105;stroke-linecap:round;stroke-linejoin:round;stroke:#000;stroke-miterlimit:10" transform="matrix(.1 0 0 -.1 0 478.09)"/></g><g clip-path="url(#u)"><path d="m3.242188 921.36875h5946.25" style="fill:none;stroke-width:6.52105;stroke-linecap:round;stroke-linejoin:round;stroke:#000;stroke-miterlimit:10" transform="matrix(.1 0 0 -.1 0 478.09)"/></g><g clip-path="url(#v)"><path d="m3.242188 1016.017187h5946.25" style="fill:none;stroke-width:6.52105;stroke-linecap:round;stroke-linejoin:round;stroke:#000;stroke-miterlimit:10" transform="matrix(.1 0 0 -.1 0 478.09)"/></g><g clip-path="url(#w)"><path d="m3.242188 1110.665625h5946.25" style="fill:none;stroke-width:6.52105;stroke-linecap:round;stroke-linejoin:round;stroke:#000;stroke-miterlimit:10" transform="matrix(.1 0 0 -.1 0 478.09)"/></g><path d="m3031.015625 1084.259375h8.4375v27.695312h-8.4375zm0 0" style="fill:none;stroke-width:3.98456;stroke-linecap:round;stroke-linejoin:round;stroke:#000;stroke-miterlimit:10" transform="matrix(.1 0 0 -.1 0 478.09)"/><path d="m303.101562 369.664062h.839844v-2.765624h-.839844zm0 0"/><path d="m3031.015625 989.610937h8.4375v52.8125h-8.4375zm0 0" style="fill:none;stroke-width:3.98456;stroke-linecap:round;stroke-linejoin:round;stroke:#000;stroke-miterlimit:10" transform="matrix(.1 0 0 -.1 0 478.09)"/><path d="m303.101562 379.128906h.839844v-5.28125h-.839844zm0 0"/><path d="m3031.015625 894.9625h8.4375v52.8125h-8.4375zm0 0" style="fill:none;stroke-width:3.98456;stroke-linecap:round;stroke-linejoin:round;stroke:#000;stroke-miterlimit:10" transform="matrix(.1 0 0 -.1 0 478.09)"/><path d="m303.101562 388.59375h.839844v-5.28125h-.839844zm0 0"/><path d="m3031.015625 800.314062h8.4375v52.8125h-8.4375zm0 0" style="fill:none;stroke-width:3.98456;stroke-linecap:round;stroke-linejoin:round;stroke:#000;stroke-miterlimit:10" transform="matrix(.1 0 0 -.1 0 478.09)"/><path d="m303.101562 398.058594h.839844v-5.28125h-.839844zm0 0"/><path d="m3031.015625 730.821875h8.4375v27.65625h-8.4375zm0 0" style="fill:none;stroke-width:3.98456;stroke-linecap:round;stroke-linejoin:round;stroke:#000;stroke-miterlimit:10" transform="matrix(.1 0 0 -.1 0 478.09)"/><path d="m303.101562 405.007812h.839844v-2.765624h-.839844zm0 0"/><g clip-path="url(#x)"><path d="m5933.203125 732.071875v378.59375" fill="none" stroke="#000" stroke-linejoin="round" stroke-miterlimit="10" stroke-width="39.1073" transform="matrix(.1 0 0 -.1 0 478.09)"/></g><g fill="none" stroke="#000" stroke-linejoin="round" stroke-miterlimit="10" transform="matrix(.1 0 0 -.1 0 478.09)"><path d="m5887.890625 732.071875v378.59375" stroke-width="12.389"/><g stroke-linecap="round" stroke-width="15.9856"><path d="m5239.804688 637.423437h178.828124"/><path d="m4635.9375 637.423437h178.789062"/><path d="m4134.6875 637.423437h169.375"/><path d="m2455.898438 637.423437h169.414062"/><path d="m1905.664062 637.423437h169.414063"/></g><path d="m4783.789062 617.501562h4.492188v301.875h-4.492188zm0 0" stroke-width="3.98456"/></g><path d="m478.378906 416.339844h.449219v-30.1875h-.449219zm0 0"/><use x="460.457" xlink:href="#T" y="450.8802"/><use x="471.681623" xlink:href="#F" y="450.8802"/><use x="466.03981" xlink:href="#B" y="419.0782"/><path d="m4274.6875 658.048437h4.492188v261.484375h-4.492188zm0 0" fill="none" stroke="#000" stroke-linejoin="round" stroke-miterlimit="10" stroke-width="3.98456" transform="matrix(.1 0 0 -.1 0 478.09)"/><path d="m427.46875 412.285156h.449219v-26.148437h-.449219zm0 0"/><use x="415.758" xlink:href="#y" y="414.3462"/><path d="m3771.875 705.392187h4.492188v233.28125h-4.492188zm0 0" fill="none" stroke="#000" stroke-linejoin="round" stroke-miterlimit="10" stroke-width="3.98456" transform="matrix(.1 0 0 -.1 0 478.09)"/><path d="m377.1875 407.554688h.449219v-23.332032h-.449219zm0 0"/><use x="365.477" xlink:href="#K" y="450.8802"/><use x="370.749666" xlink:href="#P" y="450.8802"/><use x="383.675455" xlink:href="#W" y="450.8802"/><use x="365.477" xlink:href="#y" y="409.6138"/><path d="m1157.109375 336.2125h57.226563v3.28125h-57.226563zm0 0" fill="none" stroke="#000" stroke-linejoin="round" stroke-miterlimit="10" stroke-width="5.21494" transform="matrix(.1 0 0 -.1 0 478.09)"/><path d="m115.710938 444.46875h5.722656v-.324219h-5.722656zm0 0"/><path d="m2221.132812 336.2125h57.265626v3.28125h-57.265626zm0 0" fill="none" stroke="#000" stroke-linejoin="round" stroke-miterlimit="10" stroke-width="5.21494" transform="matrix(.1 0 0 -.1 0 478.09)"/><path d="m222.113281 444.46875h5.726563v-.324219h-5.726563zm0 0"/><path d="m3430.390625 336.2125h57.265625v3.28125h-57.265625zm0 0" fill="none" stroke="#000" stroke-linejoin="round" stroke-miterlimit="10" stroke-width="5.21494" transform="matrix(.1 0 0 -.1 0 478.09)"/><path d="m343.039062 444.46875h5.726563v-.324219h-5.726563zm0 0"/><path d="m3771.875 961.564062v-41.445312l507.304688-19.453125v41.445312zm0 0" fill="none" stroke="#000" stroke-linejoin="round" stroke-miterlimit="10" stroke-width="3.98456" transform="matrix(.1 0 0 -.1 0 478.09)"/><path d="m377.1875 381.933594v4.144531l50.730469 1.945313v-4.144532zm0 0"/><path d="m3712.695312 586.446875c103.90625-111.601563 379.921876-137.578125 502.8125-47.34375-122.148437-82.460938-398.164062-56.484375-502.8125 47.34375zm0 0" style="fill:none;stroke-width:5.21473;stroke-linecap:round;stroke-linejoin:round;stroke:#000;stroke-miterlimit:10" transform="matrix(.1 0 0 -.1 0 478.09)"/><path d="m371.269531 419.445312c10.390625 11.160157 37.992188 13.757813 50.28125 4.734376-12.214843 8.246093-39.816406 5.648437-50.28125-4.734376"/><path d="m4942.96875 336.2125h57.226562v3.28125h-57.226562zm0 0" fill="none" stroke="#000" stroke-linejoin="round" stroke-miterlimit="10" stroke-width="5.21494" transform="matrix(.1 0 0 -.1 0 478.09)"/><path d="m494.292969 444.46875h5.726562v-.324219h-5.726562zm0 0"/><path d="m1679.335938 336.2125h57.265624v3.28125h-57.265624zm0 0" fill="none" stroke="#000" stroke-linejoin="round" stroke-miterlimit="10" stroke-width="5.21494" transform="matrix(.1 0 0 -.1 0 478.09)"/><path d="m167.933594 444.46875h5.722656v-.324219h-5.722656zm0 0"/><path d="m5387.65625 617.501562h4.492188v301.875h-4.492188zm0 0" fill="none" stroke="#000" stroke-linejoin="round" stroke-miterlimit="10" stroke-width="3.98456" transform="matrix(.1 0 0 -.1 0 478.09)"/><path d="m538.765625 416.339844h.449219v-30.1875h-.449219zm0 0"/><use x="509.706" xlink:href="#U" y="450.8802"/><use x="517.359921" xlink:href="#L" y="450.8802"/><use x="530.28571" xlink:href="#M" y="450.8802"/><use x="549.674801" xlink:href="#ab" y="450.8802"/><use x="532.9216" xlink:href="#C" y="364.1993"/><use x="526.42902" xlink:href="#B" y="419.0782"/><path d="m1519.140625 800.001562h4.492187v308.671875h-4.492187zm0 0" fill="none" stroke="#000" stroke-linejoin="round" stroke-miterlimit="10" stroke-width="3.98456" transform="matrix(.1 0 0 -.1 0 478.09)"/><path d="m151.914062 398.089844h.449219v-30.867188h-.449219zm0 0"/><use x="134.052" xlink:href="#S" y="450.8802"/><use x="140.515285" xlink:href="#Y" y="450.8802"/><use x="153.441074" xlink:href="#K" y="450.8802"/><path d="m968.90625 752.696875h4.492188v308.671875h-4.492188zm0 0" fill="none" stroke="#000" stroke-linejoin="round" stroke-miterlimit="10" stroke-width="3.98456" transform="matrix(.1 0 0 -.1 0 478.09)"/><path d="m96.890625 402.820312h.449219v-30.867187h-.449219zm0 0"/><use x="79.625" xlink:href="#ac" y="450.8802"/><use x="97.823449" xlink:href="#K" y="450.8802"/><use x="85.18047" xlink:href="#y" y="404.8818"/><use x="140.20237" xlink:href="#y" y="400.14938"/><use x="40.69727" xlink:href="#z" y="367.02358"/><use x="51.10817" xlink:href="#z" y="381.22048"/><use x="7.57147" xlink:href="#A" y="395.41698"/><path d="m3221.640625 752.696875h4.492187v308.671875h-4.492187zm0 0" fill="none" stroke="#000" stroke-linejoin="round" stroke-miterlimit="10" stroke-width="3.98456" transform="matrix(.1 0 0 -.1 0 478.09)"/><path d="m322.164062 402.820312h.449219v-30.867187h-.449219zm0 0"/><use x="306.939" xlink:href="#S" y="450.8802"/><use x="313.402285" xlink:href="#H" y="450.8802"/><use x="310.45423" xlink:href="#y" y="404.8818"/><path d="m2595.898438 610.74375h4.492187v308.632812h-4.492187zm0 0" fill="none" stroke="#000" stroke-linejoin="round" stroke-miterlimit="10" stroke-width="3.98456" transform="matrix(.1 0 0 -.1 0 478.09)"/><path d="m259.589844 417.015625h.449218v-30.863281h-.449218zm0 0"/><use x="234.757" xlink:href="#M" y="450.8802"/><use x="254.146066" xlink:href="#Y" y="450.8802"/><use x="266.902324" xlink:href="#S" y="450.8802"/><use x="247.8816" xlink:href="#y" y="419.0782"/><path d="m2045.703125 610.74375h4.492187v308.632812h-4.492187zm0 0" fill="none" stroke="#000" stroke-linejoin="round" stroke-miterlimit="10" stroke-width="3.98456" transform="matrix(.1 0 0 -.1 0 478.09)"/><path d="m204.570312 417.015625h.449219v-30.863281h-.449219zm0 0"/><use x="182.881" xlink:href="#M" y="450.8802"/><use x="202.270079" xlink:href="#Y" y="450.8802"/><use x="192.85952" xlink:href="#y" y="419.0782"/></svg>