<svg height="959.86em" viewBox="0 0 595.28 959.86" width="595.28em" xmlns="http://www.w3.org/2000/svg" xmlns:xlink="http://www.w3.org/1999/xlink"><clipPath id="a"><path d="m0 77h595.28125v1h-595.28125zm0 0"/></clipPath><clipPath id="b"><path d="m0 67h595.28125v2h-595.28125zm0 0"/></clipPath><clipPath id="c"><path d="m0 57h595.28125v2h-595.28125zm0 0"/></clipPath><clipPath id="d"><path d="m0 48h595.28125v1h-595.28125zm0 0"/></clipPath><clipPath id="e"><path d="m0 38h595.28125v2h-595.28125zm0 0"/></clipPath><clipPath id="f"><path d="m0 193h595.28125v2h-595.28125zm0 0"/></clipPath><clipPath id="g"><path d="m0 184h595.28125v1h-595.28125zm0 0"/></clipPath><clipPath id="h"><path d="m0 174h595.28125v2h-595.28125zm0 0"/></clipPath><clipPath id="i"><path d="m0 164h595.28125v2h-595.28125zm0 0"/></clipPath><clipPath id="j"><path d="m0 155h595.28125v1h-595.28125zm0 0"/></clipPath><clipPath id="k"><path d="m0 310h595.28125v2h-595.28125zm0 0"/></clipPath><clipPath id="l"><path d="m0 300h595.28125v2h-595.28125zm0 0"/></clipPath><clipPath id="m"><path d="m0 291h595.28125v1h-595.28125zm0 0"/></clipPath><clipPath id="n"><path d="m0 281h595.28125v1h-595.28125zm0 0"/></clipPath><clipPath id="o"><path d="m0 271h595.28125v2h-595.28125zm0 0"/></clipPath><clipPath id="p"><path d="m0 426h595.28125v2h-595.28125zm0 0"/></clipPath><clipPath id="q"><path d="m0 417h595.28125v1h-595.28125zm0 0"/></clipPath><clipPath id="r"><path d="m0 407h595.28125v2h-595.28125zm0 0"/></clipPath><clipPath id="s"><path d="m0 397h595.28125v2h-595.28125zm0 0"/></clipPath><clipPath id="t"><path d="m0 388h595.28125v1h-595.28125zm0 0"/></clipPath><clipPath id="u"><path d="m0 543h595.28125v2h-595.28125zm0 0"/></clipPath><clipPath id="v"><path d="m0 533h595.28125v2h-595.28125zm0 0"/></clipPath><clipPath id="w"><path d="m0 524h595.28125v1h-595.28125zm0 0"/></clipPath><clipPath id="x"><path d="m0 514h595.28125v2h-595.28125zm0 0"/></clipPath><clipPath id="y"><path d="m0 504h595.28125v2h-595.28125zm0 0"/></clipPath><clipPath id="z"><path d="m0 660h595.28125v1h-595.28125zm0 0"/></clipPath><clipPath id="A"><path d="m0 650h595.28125v2h-595.28125zm0 0"/></clipPath><clipPath id="B"><path d="m0 640h595.28125v2h-595.28125zm0 0"/></clipPath><clipPath id="C"><path d="m0 630h595.28125v2h-595.28125zm0 0"/></clipPath><clipPath id="D"><path d="m0 621h595.28125v1h-595.28125zm0 0"/></clipPath><clipPath id="E"><path d="m0 776h595.28125v2h-595.28125zm0 0"/></clipPath><clipPath id="F"><path d="m0 766h595.28125v2h-595.28125zm0 0"/></clipPath><clipPath id="G"><path d="m0 757h595.28125v1h-595.28125zm0 0"/></clipPath><clipPath id="H"><path d="m0 747h595.28125v2h-595.28125zm0 0"/></clipPath><clipPath id="I"><path d="m0 737h595.28125v2h-595.28125zm0 0"/></clipPath><clipPath id="J"><path d="m0 893h595.28125v1h-595.28125zm0 0"/></clipPath><clipPath id="K"><path d="m0 883h595.28125v2h-595.28125zm0 0"/></clipPath><clipPath id="L"><path d="m0 873h595.28125v2h-595.28125zm0 0"/></clipPath><clipPath id="M"><path d="m0 864h595.28125v1h-595.28125zm0 0"/></clipPath><clipPath id="N"><path d="m0 854h595.28125v2h-595.28125zm0 0"/></clipPath><clipPath id="O"><path d="m591 852h4.28125v44h-4.28125zm0 0"/></clipPath><symbol id="P" overflow="visible"><path d="m3.640625-17.484375h-2.015625v17.484375h2.015625zm0 0"/></symbol><symbol id="Q" overflow="visible"><path d="m12.828125-1.171875c-.21875.046875-.3125.046875-.421875.046875-.703125 0-1.078125-.359375-1.078125-.984375v-7.390625c0-2.234375-1.640625-3.421875-4.734375-3.421875-1.84375 0-3.3125.515625-4.171875 1.453125-.578125.65625-.8125 1.375-.859375 2.625h2.015625c.15625-1.546875 1.078125-2.234375 2.953125-2.234375 1.8125 0 2.796875.671875 2.796875 1.875v.515625c-.015625.875-.453125 1.1875-2.078125 1.390625-2.84375.359375-3.265625.46875-4.03125.765625-1.46875.625-2.21875 1.734375-2.21875 3.359375 0 2.28125 1.59375 3.71875 4.125 3.71875 1.59375 0 2.859375-.546875 4.28125-1.84375.140625 1.296875.765625 1.84375 2.0625 1.84375.421875 0 .6875-.046875 1.359375-.21875zm-3.5-2.78125c0 .671875-.1875 1.078125-.796875 1.625-.8125.75-1.796875 1.125-2.96875 1.125-1.5625 0-2.46875-.734375-2.46875-2.015625 0-1.3125.859375-1.984375 3.015625-2.296875 2.140625-.28125 2.546875-.390625 3.21875-.703125zm-2.03125-13.796875-2.328125 3.546875h1.4375l3.578125-3.546875zm0 0"/></symbol><symbol id="R" overflow="visible"><path d="m2.09375-2.5v2.5h1.4375v.4375c0 1.65625-.3125 2.125-1.4375 2.171875v.921875c1.578125.046875 2.515625-1.109375 2.515625-3.140625v-2.890625zm0 0"/></symbol><symbol id="S" overflow="visible"><path d="m6.828125 0 4.828125-12.5625h-2.25l-3.546875 10.1875-3.359375-10.1875h-2.265625l4.421875 12.5625zm0 0"/></symbol><symbol id="T" overflow="visible"><path d="m12.828125-1.171875c-.21875.046875-.3125.046875-.421875.046875-.703125 0-1.078125-.359375-1.078125-.984375v-7.390625c0-2.234375-1.640625-3.421875-4.734375-3.421875-1.84375 0-3.3125.515625-4.171875 1.453125-.578125.65625-.8125 1.375-.859375 2.625h2.015625c.15625-1.546875 1.078125-2.234375 2.953125-2.234375 1.8125 0 2.796875.671875 2.796875 1.875v.515625c-.015625.875-.453125 1.1875-2.078125 1.390625-2.84375.359375-3.265625.46875-4.03125.765625-1.46875.625-2.21875 1.734375-2.21875 3.359375 0 2.28125 1.59375 3.71875 4.125 3.71875 1.59375 0 2.859375-.546875 4.28125-1.84375.140625 1.296875.765625 1.84375 2.0625 1.84375.421875 0 .6875-.046875 1.359375-.21875zm-3.5-2.78125c0 .671875-.1875 1.078125-.796875 1.625-.8125.75-1.796875 1.125-2.96875 1.125-1.5625 0-2.46875-.734375-2.46875-2.015625 0-1.3125.859375-1.984375 3.015625-2.296875 2.140625-.28125 2.546875-.390625 3.21875-.703125zm0 0"/></symbol><symbol id="U" overflow="visible"><path d="m1.296875-17.484375v17.484375h1.796875v-1.609375c.953125 1.46875 2.234375 2.15625 3.984375 2.15625 3.3125 0 5.46875-2.703125 5.46875-6.875 0-4.078125-2.046875-6.59375-5.375-6.59375-1.734375 0-2.953125.640625-3.890625 2.0625v-6.625zm5.484375 6.421875c2.234375 0 3.671875 1.953125 3.671875 4.953125 0 2.84375-1.484375 4.796875-3.671875 4.796875-2.125 0-3.5-1.921875-3.5-4.875s1.375-4.875 3.5-4.875zm0 0"/></symbol><symbol id="V" overflow="visible"><path d="m1.671875-12.5625v12.5625h2.015625v-6.9375c0-2.5625 1.34375-4.234375 3.40625-4.234375 1.59375 0 2.59375.953125 2.59375 2.46875v8.703125h2v-9.5c0-2.078125-1.5625-3.421875-3.984375-3.421875-1.875 0-3.078125.71875-4.171875 2.46875v-2.109375zm0 0"/></symbol><symbol id="W" overflow="visible"><path d="m10.5-9.0625c-.015625-2.46875-1.65625-3.859375-4.546875-3.859375-2.9375 0-4.828125 1.5-4.828125 3.828125 0 1.96875 1.015625 2.90625 3.984375 3.625l1.875.453125c1.390625.34375 1.9375.84375 1.9375 1.734375 0 1.1875-1.171875 1.984375-2.921875 1.984375-1.078125 0-2-.3125-2.5-.84375-.3125-.359375-.453125-.71875-.578125-1.59375h-2.109375c.09375 2.890625 1.734375 4.28125 5.015625 4.28125 3.171875 0 5.1875-1.546875 5.1875-3.984375 0-1.859375-1.0625-2.890625-3.5625-3.5l-1.90625-.453125c-1.640625-.375-2.328125-.90625-2.328125-1.796875 0-1.171875 1.03125-1.890625 2.65625-1.890625 1.609375 0 2.46875.6875 2.515625 2.015625zm0 0"/></symbol><symbol id="X" overflow="visible"><path d="m4.25-12.5625h-2v12.5625h2zm-.390625-5.1875-2.296875 3.546875h1.4375l3.578125-3.546875zm0 0"/></symbol><symbol id="Y" overflow="visible"><path d="m1.65625-12.5625v12.5625h2.015625v-6.53125c.015625-3.015625 1.265625-4.359375 4.03125-4.28125v-2.046875c-.34375-.046875-.53125-.0625-.765625-.0625-1.296875 0-2.28125.765625-3.4375 2.625v-2.265625zm0 0"/></symbol><symbol id="Z" overflow="visible"><path d="m7.984375-17.484375v12.296875c0 1.390625-.140625 2.1875-.546875 2.78125-.4375.671875-1.25 1.09375-2.140625 1.09375-1.671875 0-2.609375-1.140625-2.609375-3.171875v-1.125h-2.28125v1.53125c0 2.828125 1.875 4.625 4.875 4.625 3.046875 0 4.9375-1.890625 4.9375-4.90625v-13.125zm0 0"/></symbol><symbol id="aa" overflow="visible"><path d="m12.296875-5.609375c0-1.921875-.140625-3.078125-.5-4.015625-.8125-2.0625-2.734375-3.296875-5.078125-3.296875-3.5 0-5.765625 2.65625-5.765625 6.8125 0 4.140625 2.171875 6.65625 5.71875 6.65625 2.875 0 4.859375-1.625 5.375-4.359375h-2.015625c-.5625 1.65625-1.6875 2.515625-3.296875 2.515625-1.265625 0-2.34375-.578125-3.015625-1.625-.484375-.71875-.65625-1.4375-.671875-2.6875zm-9.203125-1.640625c.171875-2.3125 1.578125-3.828125 3.59375-3.828125 2.046875 0 3.453125 1.578125 3.453125 3.828125zm4.296875-10.5-2.3125 3.546875h1.453125l3.5625-3.546875zm0 0"/></symbol><symbol id="ab" overflow="visible"><path d="m3.375-17.484375h-1.984375v17.484375h1.984375v-4.890625l1.953125-1.921875 4.234375 6.8125h2.484375l-5.140625-8.234375 4.359375-4.328125h-2.5625l-5.328125 5.3125zm0 0"/></symbol><symbol id="ac" overflow="visible"><path d="m3.59375-12.5625h-1.984375v12.5625h1.984375zm0-4.921875h-2.015625v2.515625h2.015625zm0 0"/></symbol><symbol id="ad" overflow="visible"><path d="m10.625-12.5625h-9.375v1.75h7l-7.5 9.015625v1.796875h10.203125v-1.75h-7.78125l7.453125-9.046875zm0 0"/></symbol><symbol id="ae" overflow="visible"><path d="m11.5625 0v-12.5625h-2v7.125c0 2.5625-1.328125 4.234375-3.421875 4.234375-1.578125 0-2.59375-.953125-2.59375-2.46875v-8.890625h-1.984375v9.6875c0 2.078125 1.5625 3.421875 4 3.421875 1.84375 0 3.03125-.640625 4.203125-2.296875v1.75zm0 0"/></symbol><symbol id="af" overflow="visible"><path d="m1.671875-17.484375v17.484375h2v-6.9375c0-2.5625 1.34375-4.234375 3.40625-4.234375.671875 0 1.296875.1875 1.765625.546875.578125.4375.828125 1.03125.828125 1.921875v8.703125h1.984375v-9.5c0-2.109375-1.515625-3.421875-3.953125-3.421875-1.78125 0-2.859375.546875-4.03125 2.078125v-6.640625zm0 0"/></symbol><symbol id="ag" overflow="visible"><path d="m6.09375-12.5625h-2.0625v-3.453125h-2v3.453125h-1.703125v1.625h1.703125v9.5c0 1.296875.875 1.984375 2.4375 1.984375.515625 0 .953125-.046875 1.625-.15625v-1.6875c-.296875.078125-.546875.09375-.96875.09375-.859375 0-1.09375-.234375-1.09375-1.125v-8.609375h2.0625zm0 0"/></symbol><symbol id="ah" overflow="visible"><path d="m11.375-5.25 1.796875 5.25h2.484375l-6.140625-17.484375h-2.875l-6.234375 17.484375h2.375l1.84375-5.25zm-.625-1.875h-5.5625l2.875-7.96875zm-1.875-15.390625-2.296875 3.546875h1.4375l3.5625-3.546875zm0 0"/></symbol><symbol id="ai" overflow="visible"><path d="m1.671875-12.5625v12.5625h2.015625v-7.890625c0-1.828125 1.328125-3.28125 2.953125-3.28125 1.484375 0 2.328125.90625 2.328125 2.515625v8.65625h2.015625v-7.890625c0-1.828125 1.3125-3.28125 2.953125-3.28125 1.453125 0 2.328125.9375 2.328125 2.515625v8.65625h2.015625v-9.421875c0-2.265625-1.296875-3.5-3.65625-3.5-1.671875 0-2.6875.5-3.859375 1.90625-.734375-1.34375-1.75-1.90625-3.375-1.90625-1.6875 0-2.8125.625-3.859375 2.125v-1.765625zm0 0"/></symbol><symbol id="aj" overflow="visible"><path d="m12.296875-5.609375c0-1.921875-.140625-3.078125-.5-4.015625-.8125-2.0625-2.734375-3.296875-5.078125-3.296875-3.5 0-5.765625 2.65625-5.765625 6.8125 0 4.140625 2.171875 6.65625 5.71875 6.65625 2.875 0 4.859375-1.625 5.375-4.359375h-2.015625c-.5625 1.65625-1.6875 2.515625-3.296875 2.515625-1.265625 0-2.34375-.578125-3.015625-1.625-.484375-.71875-.65625-1.4375-.671875-2.6875zm-9.203125-1.640625c.171875-2.3125 1.578125-3.828125 3.59375-3.828125 2.046875 0 3.453125 1.578125 3.453125 3.828125zm0 0"/></symbol><symbol id="ak" overflow="visible"><path d="m9.6875-12.5625v1.8125c-1-1.5-2.109375-2.171875-3.6875-2.171875-3.046875 0-5.15625 2.828125-5.15625 6.859375 0 2.109375.5 3.640625 1.578125 4.90625.9375 1.109375 2.140625 1.703125 3.4375 1.703125 1.5 0 2.578125-.671875 3.640625-2.25v.640625c0 3.359375-.9375 4.609375-3.4375 4.609375-1.703125 0-2.578125-.671875-2.78125-2.109375h-2.03125c.1875 2.328125 2.03125 3.796875 4.765625 3.796875 1.84375 0 3.390625-.609375 4.203125-1.609375.953125-1.171875 1.3125-2.734375 1.3125-5.6875v-10.5zm-3.5 1.484375c2.109375 0 3.3125 1.765625 3.3125 4.96875 0 3.046875-1.21875 4.8125-3.3125 4.8125-2.0625 0-3.265625-1.796875-3.265625-4.890625 0-3.078125 1.203125-4.890625 3.265625-4.890625zm0 0"/></symbol><symbol id="al" overflow="visible"><path d="m11.875-17.484375h-2v6.5c-.828125-1.265625-2.171875-1.9375-3.859375-1.9375-3.25 0-5.390625 2.609375-5.390625 6.609375 0 4.25 2.0625 6.859375 5.46875 6.859375 1.71875 0 2.921875-.640625 4-2.203125v1.65625h1.78125zm-5.515625 6.421875c2.15625 0 3.515625 1.90625 3.515625 4.921875 0 2.90625-1.390625 4.828125-3.5 4.828125-2.203125 0-3.671875-1.953125-3.671875-4.875s1.46875-4.875 3.65625-4.875zm0 0"/></symbol><symbol id="am" overflow="visible"><path d="m6.53125-12.921875c-3.5625 0-5.671875 2.515625-5.671875 6.734375 0 4.25 2.109375 6.734375 5.6875 6.734375 3.546875 0 5.6875-2.515625 5.6875-6.640625 0-4.359375-2.0625-6.828125-5.703125-6.828125zm.015625 1.84375c2.25 0 3.59375 1.84375 3.59375 4.96875 0 2.96875-1.390625 4.8125-3.59375 4.8125-2.234375 0-3.59375-1.84375-3.59375-4.890625s1.359375-4.890625 3.59375-4.890625zm0 0"/></symbol><symbol id="an" overflow="visible"><path d="m6.1875-12.5625h-2.09375v-1.96875c0-.84375.46875-1.28125 1.40625-1.28125.15625 0 .234375 0 .6875.03125v-1.65625c-.453125-.09375-.71875-.125-1.125-.125-1.84375 0-2.953125 1.0625-2.953125 2.859375v2.140625h-1.671875v1.625h1.671875v10.9375h1.984375v-10.9375h2.09375zm0 0"/></symbol><symbol id="ao" overflow="visible"><path d="m11.375-5.25 1.796875 5.25h2.484375l-6.140625-17.484375h-2.875l-6.234375 17.484375h2.375l1.84375-5.25zm-.625-1.875h-5.5625l2.875-7.96875zm0 0"/></symbol><symbol id="ap" overflow="visible"><path d="m1.296875 5.234375h2.015625v-6.546875c1.046875 1.28125 2.234375 1.859375 3.859375 1.859375 3.265625 0 5.375-2.609375 5.375-6.609375 0-4.234375-2.0625-6.859375-5.40625-6.859375-1.703125 0-3.0625.765625-4 2.25v-1.890625h-1.84375zm5.515625-16.296875c2.203125 0 3.640625 1.953125 3.640625 4.953125 0 2.84375-1.453125 4.796875-3.640625 4.796875-2.140625 0-3.5-1.921875-3.5-4.875s1.359375-4.875 3.5-4.875zm0 0"/></symbol><symbol id="aq" overflow="visible"><path d="m4.578125-2.5h-2.484375v2.5h2.484375zm0 0"/></symbol><symbol id="ar" overflow="visible"><path d="m11.21875 0 4.921875-14.65625v14.65625h2.109375v-17.484375h-3.09375l-5.078125 15.234375-5.1875-15.234375h-3.09375v17.484375h2.109375v-14.65625l4.96875 14.65625zm0 0"/></symbol><symbol id="as" overflow="visible"><path d="m1.671875-12.5625v14.390625c0 1.234375-.375 1.65625-1.625 1.65625-.140625 0-.21875 0-.484375-.03125v1.703125c.25.046875.359375.078125.671875.078125 2.265625 0 3.4375-.890625 3.4375-2.625v-15.171875zm2-4.921875h-2v2.515625h2zm0 0"/></symbol><symbol id="at" overflow="visible"><path d="m11.5625 0v-12.5625h-2v7.125c0 2.5625-1.328125 4.234375-3.421875 4.234375-1.578125 0-2.59375-.953125-2.59375-2.46875v-8.890625h-1.984375v9.6875c0 2.078125 1.5625 3.421875 4 3.421875 1.84375 0 3.03125-.640625 4.203125-2.296875v1.75zm-5.6875-17.15625h-2.5v2.484375h2.5zm3.890625 0h-2.5v2.484375h2.5zm0 0"/></symbol><symbol id="au" overflow="visible"><path d="m4.390625-7.96875h9.515625v-1.953125h-9.515625v-5.59375h9.875v-1.96875h-12.109375v17.484375h12.546875v-1.96875h-10.3125zm4.40625-14.546875-2.328125 3.546875h1.453125l3.5625-3.546875zm0 0"/></symbol><symbol id="av" overflow="visible"><path d="m4.125-6.109375 2.859375-2.859375 6.15625 8.96875h2.640625l-7.1875-10.359375 7.109375-7.125h-2.875l-8.703125 8.84375v-8.84375h-2.234375v17.484375h2.234375zm0 0"/></symbol><symbol id="aw" overflow="visible"><path d="m9.3125-12.5625-3.484375 9.78125-3.21875-9.78125h-2.125l4.234375 12.609375-.765625 1.984375c-.328125.890625-.765625 1.234375-1.609375 1.234375-.328125 0-.609375-.046875-1.046875-.140625v1.796875c.40625.203125.8125.3125 1.34375.3125.640625 0 1.34375-.21875 1.875-.609375.609375-.453125.984375-.984375 1.359375-1.984375l5.59375-15.203125zm0 0"/></symbol><symbol id="ax" overflow="visible"><path d="m13.234375-17.484375v12.28125c0 2.34375-1.703125 3.78125-4.484375 3.78125s-4.484375-1.4375-4.484375-3.78125v-12.28125h-2.234375v12.28125c0 3.5 2.640625 5.75 6.71875 5.75s6.71875-2.25 6.71875-5.75v-12.28125zm-5.171875-4.4375h-2.5v2.46875h2.5zm3.875 0h-2.484375v2.46875h2.484375zm0 0"/></symbol><symbol id="ay" overflow="visible"><path d="m11.5625 0v-12.5625h-2v7.125c0 2.5625-1.328125 4.234375-3.421875 4.234375-1.578125 0-2.59375-.953125-2.59375-2.46875v-8.890625h-1.984375v9.6875c0 2.078125 1.5625 3.421875 4 3.421875 1.84375 0 3.03125-.640625 4.203125-2.296875v1.75zm-4.46875-17.75-2.296875 3.546875h1.4375l3.578125-3.546875zm0 0"/></symbol><symbol id="az" overflow="visible"><path d="m13.21875-17.484375.015625 12.28125c0 2.34375-1.703125 3.78125-4.484375 3.78125s-4.484375-1.4375-4.484375-3.78125v-12.28125h-2.234375v12.28125c0 3.5 2.640625 5.75 6.71875 5.75s6.71875-2.28125 6.71875-5.75l-.015625-12.28125zm-3.9375-5.03125-2.296875 3.546875h1.4375l3.578125-3.546875zm0 0"/></symbol><symbol id="aA" overflow="visible"><path d="m6.53125-12.921875c-3.5625 0-5.671875 2.515625-5.671875 6.734375 0 4.25 2.109375 6.734375 5.6875 6.734375 3.546875 0 5.6875-2.515625 5.6875-6.640625 0-4.359375-2.0625-6.828125-5.703125-6.828125zm.015625 1.84375c2.25 0 3.59375 1.84375 3.59375 4.96875 0 2.96875-1.390625 4.8125-3.59375 4.8125-2.234375 0-3.59375-1.84375-3.59375-4.890625s1.359375-4.890625 3.59375-4.890625zm-.796875-6.671875-2.3125 3.59375h1.4375l3.5625-3.59375zm4.171875 0-2.3125 3.59375h1.4375l3.5625-3.59375zm0 0"/></symbol><symbol id="aB" overflow="visible"><path d="m12.28125-2.609375c0 .390625-.125.828125-.390625 1.125-.8125.984375-2.6875 2.1875-4.15625 3.109375-1.484375.9375-3.34375 2.1875-4.546875 2.53125-.15625.046875-.34375.078125-.5.078125-.859375 0-1.640625-.65625-1.640625-1.625 0-.390625.125-.828125.390625-1.125.8125-.984375 2.6875-2.1875 4.15625-3.109375 1.484375-.9375 3.34375-2.1875 4.546875-2.53125.15625-.046875.34375-.078125.5-.078125.859375 0 1.640625.65625 1.640625 1.625zm-1.984375-2.640625c-2.90625 0-5.28125.625-7.34375 2.03125-1.25.84375-2.0625 2.171875-2.53125 3.609375-.234375.703125-.421875 1.46875-.421875 2.21875 0 1.828125 1.328125 2.640625 3.03125 2.640625 2.921875 0 5.28125-.625 7.34375-2.03125 1.25-.84375 2.0625-2.171875 2.53125-3.609375.234375-.703125.421875-1.46875.421875-2.21875 0-1.828125-1.328125-2.640625-3.03125-2.640625zm0 0"/></symbol><symbol id="aC" overflow="visible"><path d="m8.625-5.25c-1.625 0-3.1875.546875-4.578125 1.40625-1.828125 1.078125-4.046875 2.984375-4.046875 5.75 0 2.296875 2.015625 3.34375 4.078125 3.34375 1.640625 0 3.1875-.546875 4.59375-1.40625 1.8125-1.078125 4-2.984375 4-5.75 0-2.296875-1.984375-3.34375-4.046875-3.34375zm0 0"/></symbol><symbol id="aD" overflow="visible"><path d="m14.265625 0c.15625 0 .3125-.15625.3125-.3125v-5.4375c0-.15625-.15625-.3125-.3125-.3125h-13.953125c-.15625 0-.3125.15625-.3125.3125v5.4375c0 .15625.15625.3125.3125.3125zm0 0"/></symbol><symbol id="aE" overflow="visible"><path d="m14.53125-10.109375c-.625-2.71875-1.359375-5.390625-2.140625-8.078125 3.734375-4.234375 7.109375-8.59375 7.109375-14.1875 0-4.390625-2.40625-10.6875-5.125-13.953125-.1875-.140625-.421875-.140625-.625 0-3.6875 2.6875-5.828125 6.96875-5.828125 11.46875 0 2.015625.046875 4 .28125 5.984375.265625 2.53125.921875 4.96875 1.625 7.421875-4.578125 5.203125-9.75 10.1875-9.75 17.09375 0 7.8125 5.640625 14.46875 12.9375 14.46875 1.203125 0 2.328125-.125 3.453125-.3125.125 1.234375.203125 2.484375.203125 3.71875 0 .703125-.046875 1.375-.078125 2.0625-.234375 3.84375-2.609375 7.390625-6.21875 7.46875-.03125 0-.078125.03125-.109375.03125-1.984375 0-3.703125-1.125-4.703125-2.71875.421875.203125.890625.359375 1.359375.359375 2.015625 0 3.6875-1.671875 3.6875-3.703125 0-2.171875-1.59375-4.03125-3.6875-4.03125-2.296875 0-4.359375 1.78125-4.359375 4.03125 0 4.203125 3.390625 7.578125 7.578125 7.578125 4.59375 0 7.734375-4.109375 8-8.78125.046875-.734375.046875-1.4375.046875-2.171875 0-1.40625-.078125-2.796875-.203125-4.203125 1.015625-.3125 1.984375-.765625 2.84375-1.4375 2.875-2.125 4.15625-5.125 4.15625-8.078125 0-5.125-3.890625-10.0625-9.875-10.0625-.1875 0-.375.03125-.578125.03125zm3.3125 18.078125c-.546875-4.828125-1.4375-9.40625-2.421875-13.953125 4.28125.34375 6.96875 3.921875 6.96875 7.5 0 2.71875-1.875 5.515625-4.546875 6.453125zm-15.078125-9.171875c0-6.21875 4.1875-10.921875 8.390625-15.625.625 2.296875 1.234375 4.59375 1.78125 6.921875-3.921875.890625-6.140625 4.1875-6.140625 7.609375 0 2.71875 1.40625 5.484375 4.515625 7.15625.109375.03125.234375.078125.34375.078125.421875 0 .78125-.390625.78125-.8125 0-.203125-.125-.390625-.28125-.546875-2.171875-1.25-3.1875-3.109375-3.1875-4.828125 0-2.28125 1.796875-4.34375 4.859375-4.703125 1.015625 4.671875 1.90625 9.296875 2.5 14.265625-1.0625.15625-2.109375.234375-3.1875.234375-5.296875 0-10.375-4.46875-10.375-9.75zm13.203125-39.59375c.65625 2.046875.8125 3.0625.8125 5.3125 0 4.9375-2.59375 8.859375-5.78125 12.640625-.703125-2.453125-1.28125-4.828125-1.28125-7.78125 0-4.3125 2.40625-8.234375 6.25-10.171875zm0 0"/></symbol><symbol id="aF" overflow="visible"><path d="m.96875-1.703125c.046875-1.28125.890625-2.421875 2.09375-2.421875 1.171875 0 1.71875 1.359375 1.71875 2.6875 0 2.296875-1.9375 3.921875-3.734375 5.40625-.078125-.859375-.15625-1.71875-.15625-2.5625 0-.15625.046875-.28125.046875-.4375zm-1.9375-16.28125.421875 23.265625c0 .46875.359375.8125.8125.8125.703125 0 1.015625-.8125 1.5625-1.234375 2.453125-1.984375 5.9375-3.375 5.9375-6.5625 0-2.109375-1.546875-3.890625-3.609375-3.890625-1.234375 0-2.40625.421875-3.421875 1.15625l.234375-13.546875c-.3125-.15625-.625-.28125-.96875-.28125s-.65625.125-.96875.28125zm0 0"/></symbol><symbol id="aG" overflow="visible"><path d="m8.359375-4.4375c3.0625 0 5.359375 2.375 5.359375 5.453125 0 1.78125-.78125 3.421875-2.71875 3.421875-3.078125 0-5.40625-2.375-5.40625-5.453125 0-1.78125.8125-3.421875 2.765625-3.421875zm10.953125 4.4375c0-1.671875-1.359375-2.875-2.84375-3.6875-2.09375-1.125-4.421875-1.5625-6.796875-1.5625-2.359375 0-4.734375.4375-6.828125 1.5625-1.484375.8125-2.84375 2.015625-2.84375 3.6875s1.359375 2.875 2.84375 3.6875c2.09375 1.125 4.46875 1.5625 6.828125 1.5625 2.375 0 4.703125-.4375 6.796875-1.5625 1.484375-.8125 2.84375-2.015625 2.84375-3.6875zm0 0"/></symbol><symbol id="aH" overflow="visible"><path d="m5.09375-10.453125v10.453125h2.984375v-15.15625h-1.984375c-.46875 1.796875-2.03125 2.71875-4.640625 2.71875v1.984375zm0 0"/></symbol><symbol id="aI" overflow="visible"><path d="m4.578125-3.125h-3.203125v3.125h3.203125zm0 0"/></symbol><symbol id="aJ" overflow="visible"><path d="m8.6875-1.84375c0 .28125-.09375.578125-.28125.796875-.578125.6875-1.890625 1.546875-2.9375 2.203125s-2.359375 1.53125-3.21875 1.78125c-.109375.03125-.25.0625-.359375.0625-.59375 0-1.15625-.46875-1.15625-1.15625 0-.28125.09375-.578125.28125-.796875.578125-.6875 1.890625-1.546875 2.9375-2.203125s2.359375-1.53125 3.21875-1.78125c.109375-.03125.25-.0625.359375-.0625.59375 0 1.15625.46875 1.15625 1.15625zm-1.40625-1.859375c-2.0625 0-3.734375.4375-5.1875 1.421875-.890625.609375-1.46875 1.546875-1.796875 2.5625-.15625.484375-.296875 1.03125-.296875 1.5625 0 1.28125.9375 1.859375 2.140625 1.859375 2.0625 0 3.734375-.4375 5.1875-1.421875.890625-.609375 1.46875-1.546875 1.796875-2.5625.15625-.484375.296875-1.03125.296875-1.5625 0-1.28125-.9375-1.859375-2.140625-1.859375zm0 0"/></symbol><g clip-path="url(#a)"><path d="m3.28125 8822.19375h5946.171875" fill="none" stroke="#000" stroke-linecap="round" stroke-miterlimit="10" stroke-width="6.60523" transform="matrix(.1 0 0 -.1 0 959.86)"/></g><g clip-path="url(#b)"><path d="m3.28125 8919.303125h5946.171875" fill="none" stroke="#000" stroke-linecap="round" stroke-miterlimit="10" stroke-width="6.60523" transform="matrix(.1 0 0 -.1 0 959.86)"/></g><g clip-path="url(#c)"><path d="m3.28125 9016.451562h5946.171875" fill="none" stroke="#000" stroke-linecap="round" stroke-miterlimit="10" stroke-width="6.60523" transform="matrix(.1 0 0 -.1 0 959.86)"/></g><g clip-path="url(#d)"><path d="m3.28125 9113.6h5946.171875" fill="none" stroke="#000" stroke-linecap="round" stroke-miterlimit="10" stroke-width="6.60523" transform="matrix(.1 0 0 -.1 0 959.86)"/></g><g clip-path="url(#e)"><path d="m3.28125 9210.748437h5946.171875" fill="none" stroke="#000" stroke-linecap="round" stroke-miterlimit="10" stroke-width="6.60523" transform="matrix(.1 0 0 -.1 0 959.86)"/></g><path d="m3718.085938 8898.834375h4.609374v309.921875h-4.609374zm0 0" style="fill:none;stroke-width:3.98257;stroke-linecap:round;stroke-linejoin:round;stroke:#000;stroke-miterlimit:10" transform="matrix(.1 0 0 -.1 0 959.86)"/><path d="m371.808594 69.976562h.460937v-30.992187h-.460937zm0 0"/><path d="m4865.976562 8898.834375h4.609376v309.921875h-4.609376zm0 0" style="fill:none;stroke-width:3.98257;stroke-linecap:round;stroke-linejoin:round;stroke:#000;stroke-miterlimit:10" transform="matrix(.1 0 0 -.1 0 959.86)"/><path d="m486.597656 69.976562h.460938v-30.992187h-.460938zm0 0"/><use x="465.541" xlink:href="#P" y="111.639"/><use x="470.813659" xlink:href="#Q" y="111.639"/><use x="484.079255" xlink:href="#P" y="111.639"/><use x="489.012072" xlink:href="#R" y="111.639"/><use x="473.92889" xlink:href="#aB" y="72.7847"/><path d="m4312.1875 8843.2875h4.609375v316.875h-4.609375zm0 0" style="fill:none;stroke-width:3.98257;stroke-linecap:round;stroke-linejoin:round;stroke:#000;stroke-miterlimit:10" transform="matrix(.1 0 0 -.1 0 959.86)"/><path d="m431.21875 75.53125h.460938v-31.6875h-.460938zm0 0"/><use x="413.119" xlink:href="#S" y="111.639"/><use x="424.684223" xlink:href="#T" y="111.639"/><use x="419.19322" xlink:href="#aC" y="77.6413"/><use x="345.90612" xlink:href="#U" y="111.639"/><use x="359.17174" xlink:href="#T" y="111.639"/><use x="372.437751" xlink:href="#V" y="111.639"/><use x="359.14162" xlink:href="#aB" y="72.7847"/><path d="m3117.578125 8947.389062h4.609375v309.921875h-4.609375zm0 0" style="fill:none;stroke-width:3.98257;stroke-linecap:round;stroke-linejoin:round;stroke:#000;stroke-miterlimit:10" transform="matrix(.1 0 0 -.1 0 959.86)"/><path d="m311.757812 65.121094h.460938v-30.992188h-.460938zm0 0"/><use x="292.403" xlink:href="#W" y="111.639"/><use x="304.47916" xlink:href="#X" y="111.639"/><use x="311.112348" xlink:href="#Y" y="111.639"/><use x="299.09089" xlink:href="#aB" y="67.9277"/><path d="m1039.53125 8547.975h58.828125v3.320312h-58.828125zm0 0" style="fill:none;stroke-width:5.28418;stroke-linecap:round;stroke-linejoin:round;stroke:#000;stroke-miterlimit:10" transform="matrix(.1 0 0 -.1 0 959.86)"/><path d="m103.953125 105.0625h5.882813v-.332031h-5.882813zm0 0"/><path d="m3295.625 8547.975h58.828125v3.320312h-58.828125zm0 0" style="fill:none;stroke-width:5.28418;stroke-linecap:round;stroke-linejoin:round;stroke:#000;stroke-miterlimit:10" transform="matrix(.1 0 0 -.1 0 959.86)"/><path d="m329.5625 105.0625h5.882812v-.332031h-5.882812zm0 0"/><path d="m4488.046875 8547.975h58.828125v3.320312h-58.828125zm0 0" style="fill:none;stroke-width:5.28418;stroke-linecap:round;stroke-linejoin:round;stroke:#000;stroke-miterlimit:10" transform="matrix(.1 0 0 -.1 0 959.86)"/><path d="m448.804688 105.0625h5.882812v-.332031h-5.882812zm0 0"/><use x="533.981" xlink:href="#aD" y="58.214"/><use x="7.77" xlink:href="#aE" y="67.92728"/><path d="m875 8898.834375h4.609375v309.921875h-4.609375zm0 0" style="fill:none;stroke-width:3.98257;stroke-linecap:round;stroke-linejoin:round;stroke:#000;stroke-miterlimit:10" transform="matrix(.1 0 0 -.1 0 959.86)"/><path d="m87.5 69.976562h.457031v-30.992187h-.457031zm0 0"/><use x="41.2516" xlink:href="#aH" y="111.639"/><use x="53.157476" xlink:href="#aI" y="111.639"/><use x="68.8235" xlink:href="#Z" y="111.639"/><use x="80.89966" xlink:href="#aa" y="111.639"/><use x="42.7758" xlink:href="#aF" y="58.2144"/><path d="m740.859375 9315.748437h5.976563v184.609375h-5.976563zm0 0" style="fill:none;stroke-width:2.97235;stroke-linecap:round;stroke-linejoin:round;stroke:#000;stroke-miterlimit:10" transform="matrix(.1 0 0 -.1 0 959.86)"/><path d="m74.085938 28.285156h.597656v-18.460937h-.597656zm0 0"/><use x="65.4074" xlink:href="#aJ" y="30.279"/><use x="74.83045" xlink:href="#aB" y="72.7849"/><path d="m2016.445312 8940.435937h4.609376v316.875h-4.609376zm0 0" style="fill:none;stroke-width:3.98257;stroke-linecap:round;stroke-linejoin:round;stroke:#000;stroke-miterlimit:10" transform="matrix(.1 0 0 -.1 0 959.86)"/><path d="m201.644531 65.816406h.457031v-31.6875h-.457031zm0 0"/><use x="187.286" xlink:href="#ab" y="111.639"/><use x="199.36216" xlink:href="#ac" y="111.639"/><use x="189.61842" xlink:href="#aC" y="67.9277"/><use x="244.35432" xlink:href="#aC" y="63.07106"/><path d="m1469.0625 8891.842187h4.609375v316.875h-4.609375zm0 0" style="fill:none;stroke-width:3.98257;stroke-linecap:round;stroke-linejoin:round;stroke:#000;stroke-miterlimit:10" transform="matrix(.1 0 0 -.1 0 959.86)"/><path d="m146.90625 70.675781h.460938v-31.6875h-.460938zm0 0"/><use x="119.625" xlink:href="#ad" y="111.639"/><use x="131.189832" xlink:href="#ae" y="111.639"/><use x="144.45583" xlink:href="#W" y="111.639"/><use x="156.190585" xlink:href="#R" y="111.639"/><use x="134.8832" xlink:href="#aC" y="72.7847"/><use x="244.0632" xlink:href="#T" y="111.639"/><path d="m2563.789062 8988.990625h4.609376v316.875h-4.609376zm0 0" style="fill:none;stroke-width:3.98257;stroke-linecap:round;stroke-linejoin:round;stroke:#000;stroke-miterlimit:10" transform="matrix(.1 0 0 -.1 0 959.86)"/><path d="m256.378906 60.960938h.460938v-31.6875h-.460938zm0 0"/><g clip-path="url(#f)"><path d="m3.28125 7656.56875h5946.171875" style="fill:none;stroke-width:6.60523;stroke-linecap:round;stroke-linejoin:round;stroke:#000;stroke-miterlimit:10" transform="matrix(.1 0 0 -.1 0 959.86)"/></g><g clip-path="url(#g)"><path d="m3.28125 7753.678125h5946.171875" style="fill:none;stroke-width:6.60523;stroke-linecap:round;stroke-linejoin:round;stroke:#000;stroke-miterlimit:10" transform="matrix(.1 0 0 -.1 0 959.86)"/></g><g clip-path="url(#h)"><path d="m3.28125 7850.826562h5946.171875" style="fill:none;stroke-width:6.60523;stroke-linecap:round;stroke-linejoin:round;stroke:#000;stroke-miterlimit:10" transform="matrix(.1 0 0 -.1 0 959.86)"/></g><g clip-path="url(#i)"><path d="m3.28125 7947.975h5946.171875" style="fill:none;stroke-width:6.60523;stroke-linecap:round;stroke-linejoin:round;stroke:#000;stroke-miterlimit:10" transform="matrix(.1 0 0 -.1 0 959.86)"/></g><g clip-path="url(#j)"><path d="m3.28125 8045.084375h5946.171875" style="fill:none;stroke-width:6.60523;stroke-linecap:round;stroke-linejoin:round;stroke:#000;stroke-miterlimit:10" transform="matrix(.1 0 0 -.1 0 959.86)"/></g><use x="304.288" xlink:href="#aB" y="169.92"/><path d="m4864.84375 7781.764062h4.609375v309.921875h-4.609375zm0 0" style="fill:none;stroke-width:3.98257;stroke-linecap:round;stroke-linejoin:round;stroke:#000;stroke-miterlimit:10" transform="matrix(.1 0 0 -.1 0 959.86)"/><path d="m486.484375 181.683594h.460937v-30.992188h-.460937zm0 0"/><use x="465.43" xlink:href="#P" y="228.202"/><use x="470.702659" xlink:href="#Q" y="228.202"/><use x="483.968255" xlink:href="#P" y="228.202"/><use x="488.901072" xlink:href="#R" y="228.202"/><use x="473.81867" xlink:href="#aB" y="184.4911"/><path d="m4310.585938 7823.365625h4.570312v316.875h-4.570312zm0 0" style="fill:none;stroke-width:3.98257;stroke-linecap:round;stroke-linejoin:round;stroke:#000;stroke-miterlimit:10" transform="matrix(.1 0 0 -.1 0 959.86)"/><path d="m431.058594 177.523438h.457031v-31.6875h-.457031zm0 0"/><use x="412.109" xlink:href="#af" y="228.202"/><use x="425.374986" xlink:href="#T" y="228.202"/><use x="419.03283" xlink:href="#aC" y="179.634"/><path d="m3645.9375 7529.029687h4.609375v300.703125h-4.609375zm0 0" style="fill:none;stroke-width:3.98257;stroke-linecap:round;stroke-linejoin:round;stroke:#000;stroke-miterlimit:10" transform="matrix(.1 0 0 -.1 0 959.86)"/><path d="m364.59375 206.957031h.460938v-30.070312h-.460938zm0 0"/><use x="364.104" xlink:href="#T" y="228.202"/><use x="364.395406" xlink:href="#aC" y="174.7774"/><path d="m3044.882812 7561.4125h4.570313v309.921875h-4.570313zm0 0" style="fill:none;stroke-width:3.98257;stroke-linecap:round;stroke-linejoin:round;stroke:#000;stroke-miterlimit:10" transform="matrix(.1 0 0 -.1 0 959.86)"/><path d="m304.484375 203.71875h.460937v-30.992188h-.460937zm0 0"/><use x="291.733" xlink:href="#af" y="228.202"/><use x="304.99862" xlink:href="#T" y="228.202"/><use x="318.264631" xlink:href="#P" y="228.202"/><use x="323.536899" xlink:href="#ag" y="228.202"/><path d="m1078.164062 7382.35h58.828126v3.320312h-58.828126zm0 0" style="fill:none;stroke-width:5.28418;stroke-linecap:round;stroke-linejoin:round;stroke:#000;stroke-miterlimit:10" transform="matrix(.1 0 0 -.1 0 959.86)"/><path d="m107.816406 221.625h5.882813v-.332031h-5.882813zm0 0"/><path d="m1617.851562 7382.35h58.828126v3.320312h-58.828126zm0 0" style="fill:none;stroke-width:5.28418;stroke-linecap:round;stroke-linejoin:round;stroke:#000;stroke-miterlimit:10" transform="matrix(.1 0 0 -.1 0 959.86)"/><path d="m161.78125 221.625h5.882812v-.332031h-5.882812zm0 0"/><path d="m2796.757812 7382.35h58.828126v3.320312h-58.828126zm0 0" style="fill:none;stroke-width:5.28418;stroke-linecap:round;stroke-linejoin:round;stroke:#000;stroke-miterlimit:10" transform="matrix(.1 0 0 -.1 0 959.86)"/><path d="m279.675781 221.625h5.882813v-.332031h-5.882813zm0 0"/><path d="m4490.9375 7382.35h58.828125v3.320312h-58.828125zm0 0" style="fill:none;stroke-width:5.28418;stroke-linecap:round;stroke-linejoin:round;stroke:#000;stroke-miterlimit:10" transform="matrix(.1 0 0 -.1 0 959.86)"/><path d="m449.09375 221.625h5.882812v-.332031h-5.882812zm0 0"/><use x="533.925" xlink:href="#aD" y="174.777"/><use x="42.776829" xlink:href="#aF" y="174.777"/><path d="m865.273438 7830.31875h4.609374v309.921875h-4.609374zm0 0" style="fill:none;stroke-width:3.98257;stroke-linecap:round;stroke-linejoin:round;stroke:#000;stroke-miterlimit:10" transform="matrix(.1 0 0 -.1 0 959.86)"/><path d="m86.527344 176.828125h.460937v-30.992187h-.460937zm0 0"/><use x="69.893" xlink:href="#ah" y="228.202"/><use x="85.880478" xlink:href="#P" y="228.202"/><use x="73.85902" xlink:href="#aB" y="179.634"/><use x="7.77072" xlink:href="#aE" y="184.49103"/><use x="133.96672" xlink:href="#aC" y="179.634"/><path d="m2562.070312 7830.31875h4.609376v309.921875h-4.609376zm0 0" style="fill:none;stroke-width:3.98257;stroke-linecap:round;stroke-linejoin:round;stroke:#000;stroke-miterlimit:10" transform="matrix(.1 0 0 -.1 0 959.86)"/><path d="m256.207031 176.828125h.460938v-30.992187h-.460938zm0 0"/><use x="226.901" xlink:href="#ai" y="228.202"/><use x="246.800187" xlink:href="#aj" y="228.202"/><use x="260.23612" xlink:href="#ak" y="228.202"/><use x="243.5377" xlink:href="#aB" y="179.634"/><path d="m2007.773438 7774.771875h4.609374v316.914062h-4.609374zm0 0" style="fill:none;stroke-width:3.98257;stroke-linecap:round;stroke-linejoin:round;stroke:#000;stroke-miterlimit:10" transform="matrix(.1 0 0 -.1 0 959.86)"/><path d="m200.777344 182.382812h.460937v-31.6875h-.460937zm0 0"/><use x="179.192" xlink:href="#P" y="228.202"/><use x="184.464647" xlink:href="#T" y="228.202"/><use x="197.730255" xlink:href="#al" y="228.202"/><use x="188.75216" xlink:href="#aC" y="184.4911"/><path d="m1459.921875 7823.365625h4.609375v316.875h-4.609375zm0 0" style="fill:none;stroke-width:3.98257;stroke-linecap:round;stroke-linejoin:round;stroke:#000;stroke-miterlimit:10" transform="matrix(.1 0 0 -.1 0 959.86)"/><path d="m145.992188 177.523438h.457031v-31.6875h-.457031zm0 0"/><use x="130.359" xlink:href="#ag" y="228.202"/><use x="136.992591" xlink:href="#T" y="228.202"/><g clip-path="url(#k)"><path d="m3.28125 6490.94375h5946.171875" style="fill:none;stroke-width:6.60523;stroke-linecap:round;stroke-linejoin:round;stroke:#000;stroke-miterlimit:10" transform="matrix(.1 0 0 -.1 0 959.86)"/></g><g clip-path="url(#l)"><path d="m3.28125 6588.053125h5946.171875" style="fill:none;stroke-width:6.60523;stroke-linecap:round;stroke-linejoin:round;stroke:#000;stroke-miterlimit:10" transform="matrix(.1 0 0 -.1 0 959.86)"/></g><g clip-path="url(#m)"><path d="m3.28125 6685.201562h5946.171875" style="fill:none;stroke-width:6.60523;stroke-linecap:round;stroke-linejoin:round;stroke:#000;stroke-miterlimit:10" transform="matrix(.1 0 0 -.1 0 959.86)"/></g><g clip-path="url(#n)"><path d="m3.28125 6782.35h5946.171875" style="fill:none;stroke-width:6.60523;stroke-linecap:round;stroke-linejoin:round;stroke:#000;stroke-miterlimit:10" transform="matrix(.1 0 0 -.1 0 959.86)"/></g><g clip-path="url(#o)"><path d="m3.28125 6879.459375h5946.171875" style="fill:none;stroke-width:6.60523;stroke-linecap:round;stroke-linejoin:round;stroke:#000;stroke-miterlimit:10" transform="matrix(.1 0 0 -.1 0 959.86)"/></g><path d="m4971.523438 6567.545312h4.609374v309.921875h-4.609374zm0 0" style="fill:none;stroke-width:3.98257;stroke-linecap:round;stroke-linejoin:round;stroke:#000;stroke-miterlimit:10" transform="matrix(.1 0 0 -.1 0 959.86)"/><path d="m497.152344 303.105469h.460937v-30.992188h-.460937zm0 0"/><use x="467.932" xlink:href="#al" y="346.111"/><use x="481.197986" xlink:href="#am" y="346.111"/><use x="494.293661" xlink:href="#ag" y="346.111"/><use x="501.437006" xlink:href="#ag" y="346.111"/><use x="507.729569" xlink:href="#R" y="346.111"/><use x="484.4847" xlink:href="#aB" y="305.9106"/><path d="m4418.125 6616.139062h4.609375v309.921875h-4.609375zm0 0" style="fill:none;stroke-width:3.98257;stroke-linecap:round;stroke-linejoin:round;stroke:#000;stroke-miterlimit:10" transform="matrix(.1 0 0 -.1 0 959.86)"/><path d="m441.8125 298.246094h.460938v-30.992188h-.460938zm0 0"/><use x="419.225" xlink:href="#ai" y="346.111"/><use x="439.124212" xlink:href="#T" y="346.111"/><use x="429.14453" xlink:href="#aB" y="301.054"/><path d="m3911.835938 6657.740625h4.609374v316.875h-4.609374zm0 0" style="fill:none;stroke-width:3.98257;stroke-linecap:round;stroke-linejoin:round;stroke:#000;stroke-miterlimit:10" transform="matrix(.1 0 0 -.1 0 959.86)"/><path d="m391.183594 294.085938h.460937v-31.6875h-.460937zm0 0"/><use x="375.551" xlink:href="#ag" y="346.111"/><use x="382.184188" xlink:href="#Q" y="346.111"/><use x="379.15842" xlink:href="#aC" y="296.1969"/><path d="m3295.195312 6363.404687h4.609376v300.703125h-4.609376zm0 0" style="fill:none;stroke-width:3.98257;stroke-linecap:round;stroke-linejoin:round;stroke:#000;stroke-miterlimit:10" transform="matrix(.1 0 0 -.1 0 959.86)"/><path d="m329.519531 323.519531h.460938v-30.070312h-.460938zm0 0"/><use x="323.246" xlink:href="#an" y="346.111"/><use x="329.538172" xlink:href="#aj" y="346.111"/><use x="342.804183" xlink:href="#P" y="346.111"/><use x="329.31983" xlink:href="#aC" y="291.3403"/><path d="m1548.359375 6203.2875h58.828125v3.28125h-58.828125zm0 0" style="fill:none;stroke-width:5.28418;stroke-linecap:round;stroke-linejoin:round;stroke:#000;stroke-miterlimit:10" transform="matrix(.1 0 0 -.1 0 959.86)"/><path d="m154.835938 339.53125h5.882812v-.328125h-5.882812zm0 0"/><path d="m2564.257812 6203.2875h58.789063v3.28125h-58.789063zm0 0" style="fill:none;stroke-width:5.28418;stroke-linecap:round;stroke-linejoin:round;stroke:#000;stroke-miterlimit:10" transform="matrix(.1 0 0 -.1 0 959.86)"/><path d="m256.421875 339.53125h5.882813v-.328125h-5.882813zm0 0"/><path d="m3588.710938 6203.2875h58.828124v3.28125h-58.828124zm0 0" style="fill:none;stroke-width:5.28418;stroke-linecap:round;stroke-linejoin:round;stroke:#000;stroke-miterlimit:10" transform="matrix(.1 0 0 -.1 0 959.86)"/><path d="m358.871094 339.53125h5.882812v-.328125h-5.882812zm0 0"/><path d="m4043.945312 6203.2875h58.828126v3.28125h-58.828126zm0 0" style="fill:none;stroke-width:5.28418;stroke-linecap:round;stroke-linejoin:round;stroke:#000;stroke-miterlimit:10" transform="matrix(.1 0 0 -.1 0 959.86)"/><path d="m404.394531 339.53125h5.882813v-.328125h-5.882813zm0 0"/><path d="m4572.1875 6203.2875h58.828125v3.28125h-58.828125zm0 0" style="fill:none;stroke-width:5.28418;stroke-linecap:round;stroke-linejoin:round;stroke:#000;stroke-miterlimit:10" transform="matrix(.1 0 0 -.1 0 959.86)"/><path d="m457.21875 339.53125h5.882812v-.328125h-5.882812zm0 0"/><use x="539.259" xlink:href="#aD" y="291.34"/><use x="129.376" xlink:href="#aC" y="286.48297"/><path d="m865.273438 6664.69375h4.609374v309.921875h-4.609374zm0 0" style="fill:none;stroke-width:3.98257;stroke-linecap:round;stroke-linejoin:round;stroke:#000;stroke-miterlimit:10" transform="matrix(.1 0 0 -.1 0 959.86)"/><path d="m86.527344 293.390625h.460937v-30.992187h-.460937zm0 0"/><use x="66.3215" xlink:href="#ao" y="346.111"/><use x="82.648823" xlink:href="#ad" y="346.111"/><use x="73.859" xlink:href="#aB" y="296.1969"/><use x="269.774" xlink:href="#al" y="346.111"/><use x="283.03962" xlink:href="#ac" y="346.111"/><use x="288.31228" xlink:href="#ak" y="346.111"/><use x="42.776" xlink:href="#aF" y="291.3403"/><use x="7.7709" xlink:href="#aE" y="301.05397"/><path d="m2795.3125 6395.7875h4.609375v316.875h-4.609375zm0 0" style="fill:none;stroke-width:3.98257;stroke-linecap:round;stroke-linejoin:round;stroke:#000;stroke-miterlimit:10" transform="matrix(.1 0 0 -.1 0 959.86)"/><path d="m279.53125 320.28125h.460938v-31.6875h-.460938zm0 0"/><use x="279.334" xlink:href="#aC" y="286.483"/><path d="m2295.46875 6444.342187h4.609375v316.875h-4.609375zm0 0" style="fill:none;stroke-width:3.98257;stroke-linecap:round;stroke-linejoin:round;stroke:#000;stroke-miterlimit:10" transform="matrix(.1 0 0 -.1 0 959.86)"/><path d="m229.546875 315.425781h.460937v-31.6875h-.460937zm0 0"/><use x="222.423" xlink:href="#ap" y="346.111"/><use x="235.68862" xlink:href="#aj" y="346.111"/><use x="229.34761" xlink:href="#aC" y="281.6266"/><use x="129.08461" xlink:href="#aa" y="346.111"/><path d="m1795.625 6395.7875h4.609375v316.875h-4.609375zm0 0" style="fill:none;stroke-width:3.98257;stroke-linecap:round;stroke-linejoin:round;stroke:#000;stroke-miterlimit:10" transform="matrix(.1 0 0 -.1 0 959.86)"/><path d="m179.5625 320.28125h.457031v-31.6875h-.457031zm0 0"/><use x="173.203" xlink:href="#P" y="346.111"/><use x="178.475647" xlink:href="#aj" y="346.111"/><use x="191.571334" xlink:href="#ag" y="346.111"/><use x="179.36237" xlink:href="#aC" y="286.4833"/><path d="m1295.742188 6395.7875h4.609374v316.875h-4.609374zm0 0" style="fill:none;stroke-width:3.98257;stroke-linecap:round;stroke-linejoin:round;stroke:#000;stroke-miterlimit:10" transform="matrix(.1 0 0 -.1 0 959.86)"/><path d="m129.574219 320.28125h.460937v-31.6875h-.460937zm0 0"/><g clip-path="url(#p)"><path d="m3.28125 5325.31875h5946.171875" style="fill:none;stroke-width:6.60523;stroke-linecap:round;stroke-linejoin:round;stroke:#000;stroke-miterlimit:10" transform="matrix(.1 0 0 -.1 0 959.86)"/></g><g clip-path="url(#q)"><path d="m3.28125 5422.428125h5946.171875" style="fill:none;stroke-width:6.60523;stroke-linecap:round;stroke-linejoin:round;stroke:#000;stroke-miterlimit:10" transform="matrix(.1 0 0 -.1 0 959.86)"/></g><g clip-path="url(#r)"><path d="m3.28125 5519.576562h5946.171875" style="fill:none;stroke-width:6.60523;stroke-linecap:round;stroke-linejoin:round;stroke:#000;stroke-miterlimit:10" transform="matrix(.1 0 0 -.1 0 959.86)"/></g><g clip-path="url(#s)"><path d="m3.28125 5616.725h5946.171875" style="fill:none;stroke-width:6.60523;stroke-linecap:round;stroke-linejoin:round;stroke:#000;stroke-miterlimit:10" transform="matrix(.1 0 0 -.1 0 959.86)"/></g><g clip-path="url(#t)"><path d="m3.28125 5713.834375h5946.171875" style="fill:none;stroke-width:6.60523;stroke-linecap:round;stroke-linejoin:round;stroke:#000;stroke-miterlimit:10" transform="matrix(.1 0 0 -.1 0 959.86)"/></g><path d="m713.4375 5228.170312h183.59375" style="fill:none;stroke-width:16.3188;stroke-linecap:round;stroke-linejoin:round;stroke:#000;stroke-miterlimit:10" transform="matrix(.1 0 0 -.1 0 959.86)"/><path d="m5263.554688 5401.920312h4.609374v309.921875h-4.609374zm0 0" fill="none" stroke="#000" stroke-linejoin="round" stroke-miterlimit="10" stroke-width="3.98257" transform="matrix(.1 0 0 -.1 0 959.86)"/><path d="m526.355469 419.667969h.460937v-30.992188h-.460937zm0 0"/><use x="497.137" xlink:href="#al" y="464.622"/><use x="510.402986" xlink:href="#am" y="464.622"/><use x="523.498661" xlink:href="#ag" y="464.622"/><use x="530.642006" xlink:href="#ag" y="464.622"/><use x="536.934569" xlink:href="#aq" y="464.622"/><use x="513.6901" xlink:href="#aB" y="422.4728"/><path d="m4743.320312 5353.365625h4.609376v309.921875h-4.609376zm0 0" fill="none" stroke="#000" stroke-linejoin="round" stroke-miterlimit="10" stroke-width="3.98257" transform="matrix(.1 0 0 -.1 0 959.86)"/><path d="m474.332031 424.523438h.460938v-30.992188h-.460938zm0 0"/><use x="455.064" xlink:href="#af" y="464.622"/><use x="468.329596" xlink:href="#T" y="464.622"/><use x="461.66595" xlink:href="#aB" y="427.3294"/><path d="m4314.257812 5394.967187h4.609376v316.875h-4.609376zm0 0" fill="none" stroke="#000" stroke-linejoin="round" stroke-miterlimit="10" stroke-width="3.98257" transform="matrix(.1 0 0 -.1 0 959.86)"/><path d="m431.425781 420.363281h.460938v-31.6875h-.460938zm0 0"/><use x="411.969" xlink:href="#Y" y="464.622"/><use x="419.792442" xlink:href="#am" y="464.622"/><use x="432.888116" xlink:href="#ag" y="464.622"/><use x="419.40298" xlink:href="#aC" y="422.4728"/><path d="m3788.945312 5443.521875h4.609376v316.875h-4.609376zm0 0" fill="none" stroke="#000" stroke-linejoin="round" stroke-miterlimit="10" stroke-width="3.98257" transform="matrix(.1 0 0 -.1 0 959.86)"/><path d="m378.894531 415.507812h.457031v-31.6875h-.457031zm0 0"/><use x="349.996" xlink:href="#V" y="464.622"/><use x="363.26162" xlink:href="#aj" y="464.622"/><use x="376.527631" xlink:href="#ai" y="464.622"/><use x="366.8694" xlink:href="#aC" y="417.6161"/><path d="m2287.734375 5018.170312h58.828125v3.28125h-58.828125zm0 0" fill="none" stroke="#000" stroke-linejoin="round" stroke-miterlimit="10" stroke-width="5.28418" transform="matrix(.1 0 0 -.1 0 959.86)"/><path d="m228.773438 458.042969h5.882812v-.328125h-5.882812zm0 0"/><path d="m4443.515625 5018.170312h58.828125v3.28125h-58.828125zm0 0" fill="none" stroke="#000" stroke-linejoin="round" stroke-miterlimit="10" stroke-width="5.28418" transform="matrix(.1 0 0 -.1 0 959.86)"/><path d="m444.351562 458.042969h5.882813v-.328125h-5.882813zm0 0"/><path d="m4864.257812 5018.170312h58.828126v3.28125h-58.828126zm0 0" fill="none" stroke="#000" stroke-linejoin="round" stroke-miterlimit="10" stroke-width="5.28418" transform="matrix(.1 0 0 -.1 0 959.86)"/><path d="m486.425781 458.042969h5.882813v-.328125h-5.882813zm0 0"/><use x="553.861" xlink:href="#aD" y="407.903"/><use x="142.192" xlink:href="#aC" y="432.187"/><path d="m865.273438 5256.217187h4.609374v309.921875h-4.609374zm0 0" fill="none" stroke="#000" stroke-linejoin="round" stroke-miterlimit="10" stroke-width="3.98257" transform="matrix(.1 0 0 -.1 0 959.86)"/><path d="m86.527344 434.238281h.460937v-30.992187h-.460937zm0 0"/><use x="56.2871" xlink:href="#ar" y="464.622"/><use x="76.186293" xlink:href="#aj" y="464.622"/><use x="89.452292" xlink:href="#Y" y="464.622"/><use x="98.126501" xlink:href="#ag" y="464.622"/><use x="73.859" xlink:href="#aB" y="437.0431"/><use x="287.852" xlink:href="#ai" y="464.622"/><use x="307.751187" xlink:href="#aj" y="464.622"/><use x="321.18712" xlink:href="#ak" y="464.622"/><use x="42.776" xlink:href="#aF" y="407.9025"/><use x="7.7709" xlink:href="#aE" y="417.61617"/><path d="m3168.359375 5492.115625h4.609375v316.875h-4.609375zm0 0" fill="none" stroke="#000" stroke-linejoin="round" stroke-miterlimit="10" stroke-width="3.98257" transform="matrix(.1 0 0 -.1 0 959.86)"/><path d="m316.835938 410.648438h.460937v-31.6875h-.460937zm0 0"/><use x="304.811" xlink:href="#aC" y="412.76"/><path d="m2615.820312 5394.967187h4.609376v316.875h-4.609376zm0 0" fill="none" stroke="#000" stroke-linejoin="round" stroke-miterlimit="10" stroke-width="3.98257" transform="matrix(.1 0 0 -.1 0 959.86)"/><path d="m261.578125 420.363281h.460937v-31.6875h-.460937zm0 0"/><use x="239.485" xlink:href="#ag" y="464.622"/><use x="245.777563" xlink:href="#aj" y="464.622"/><use x="259.043183" xlink:href="#al" y="464.622"/><use x="249.5561" xlink:href="#aC" y="422.4728"/><use x="120.3011" xlink:href="#W" y="464.622"/><use x="132.206948" xlink:href="#ad" y="464.622"/><use x="143.60225" xlink:href="#aj" y="464.622"/><use x="156.867858" xlink:href="#V" y="464.622"/><use x="170.133857" xlink:href="#ag" y="464.622"/><path d="m2138.085938 5346.4125h4.609374v316.875h-4.609374zm0 0" fill="none" stroke="#000" stroke-linejoin="round" stroke-miterlimit="10" stroke-width="3.98257" transform="matrix(.1 0 0 -.1 0 959.86)"/><path d="m213.808594 425.222656h.460937v-31.6875h-.460937zm0 0"/><use x="192.309" xlink:href="#ag" y="464.622"/><use x="198.601575" xlink:href="#aj" y="464.622"/><use x="211.867195" xlink:href="#W" y="464.622"/><use x="201.78361" xlink:href="#aC" y="427.3294"/><path d="m1542.148438 5297.81875h4.609374v316.875h-4.609374zm0 0" fill="none" stroke="#000" stroke-linejoin="round" stroke-miterlimit="10" stroke-width="3.98257" transform="matrix(.1 0 0 -.1 0 959.86)"/><path d="m154.214844 430.078125h.460937v-31.6875h-.460937zm0 0"/><g clip-path="url(#u)"><path d="m3.28125 4159.654687h5946.171875" style="fill:none;stroke-width:6.60523;stroke-linecap:round;stroke-linejoin:round;stroke:#000;stroke-miterlimit:10" transform="matrix(.1 0 0 -.1 0 959.86)"/></g><g clip-path="url(#v)"><path d="m3.28125 4256.803125h5946.171875" style="fill:none;stroke-width:6.60523;stroke-linecap:round;stroke-linejoin:round;stroke:#000;stroke-miterlimit:10" transform="matrix(.1 0 0 -.1 0 959.86)"/></g><g clip-path="url(#w)"><path d="m3.28125 4353.951562h5946.171875" style="fill:none;stroke-width:6.60523;stroke-linecap:round;stroke-linejoin:round;stroke:#000;stroke-miterlimit:10" transform="matrix(.1 0 0 -.1 0 959.86)"/></g><g clip-path="url(#x)"><path d="m3.28125 4451.060937h5946.171875" style="fill:none;stroke-width:6.60523;stroke-linecap:round;stroke-linejoin:round;stroke:#000;stroke-miterlimit:10" transform="matrix(.1 0 0 -.1 0 959.86)"/></g><g clip-path="url(#y)"><path d="m3.28125 4548.209375h5946.171875" style="fill:none;stroke-width:6.60523;stroke-linecap:round;stroke-linejoin:round;stroke:#000;stroke-miterlimit:10" transform="matrix(.1 0 0 -.1 0 959.86)"/></g><use x="307.797" xlink:href="#aC" y="534.18"/><path d="m4733.710938 4064.5375h4.609374v309.921875h-4.609374zm0 0" style="fill:none;stroke-width:3.98257;stroke-linecap:round;stroke-linejoin:round;stroke:#000;stroke-miterlimit:10" transform="matrix(.1 0 0 -.1 0 959.86)"/><path d="m473.371094 553.40625h.460937v-30.988281h-.460937zm0 0"/><use x="454.665" xlink:href="#as" y="579.261"/><use x="459.937659" xlink:href="#at" y="579.261"/><use x="473.203255" xlink:href="#V" y="579.261"/><use x="486.469241" xlink:href="#ab" y="579.261"/><use x="498.375089" xlink:href="#R" y="579.261"/><use x="473.1732" xlink:href="#aB" y="519.6087"/><path d="m4182.96875 4032.154687h4.609375v300.703125h-4.609375zm0 0" style="fill:none;stroke-width:3.98257;stroke-linecap:round;stroke-linejoin:round;stroke:#000;stroke-miterlimit:10" transform="matrix(.1 0 0 -.1 0 959.86)"/><path d="m418.296875 556.644531h.457031v-30.070312h-.457031zm0 0"/><use x="414.659" xlink:href="#an" y="579.261"/><use x="420.951172" xlink:href="#aj" y="579.261"/><use x="418.0965" xlink:href="#aC" y="524.4657"/><path d="m3748.984375 4326.451562h4.609375v316.875h-4.609375zm0 0" style="fill:none;stroke-width:3.98257;stroke-linecap:round;stroke-linejoin:round;stroke:#000;stroke-miterlimit:10" transform="matrix(.1 0 0 -.1 0 959.86)"/><path d="m374.898438 527.214844h.457031v-31.6875h-.457031zm0 0"/><use x="356.629" xlink:href="#ai" y="579.261"/><use x="376.528187" xlink:href="#ac" y="579.261"/><use x="362.87314" xlink:href="#aC" y="529.3223"/><path d="m3198.203125 4277.896875h4.609375v316.875h-4.609375zm0 0" style="fill:none;stroke-width:3.98257;stroke-linecap:round;stroke-linejoin:round;stroke:#000;stroke-miterlimit:10" transform="matrix(.1 0 0 -.1 0 959.86)"/><path d="m319.820312 532.070312h.460938v-31.6875h-.460938zm0 0"/><use x="307.505" xlink:href="#T" y="579.261"/><path d="m2228.164062 3871.764062h58.828126v3.320313h-58.828126zm0 0" style="fill:none;stroke-width:5.28418;stroke-linecap:round;stroke-linejoin:round;stroke:#000;stroke-miterlimit:10" transform="matrix(.1 0 0 -.1 0 959.86)"/><path d="m222.816406 572.683594h5.882813v-.332032h-5.882813zm0 0"/><path d="m4415 3871.764062h58.828125v3.320313h-58.828125zm0 0" style="fill:none;stroke-width:5.28418;stroke-linecap:round;stroke-linejoin:round;stroke:#000;stroke-miterlimit:10" transform="matrix(.1 0 0 -.1 0 959.86)"/><path d="m441.5 572.683594h5.882812v-.332032h-5.882812zm0 0"/><use x="533.603" xlink:href="#aD" y="524.466"/><use x="42.777319" xlink:href="#aF" y="524.466"/><path d="m865.273438 4236.295312h4.609374v309.921875h-4.609374zm0 0" style="fill:none;stroke-width:3.98257;stroke-linecap:round;stroke-linejoin:round;stroke:#000;stroke-miterlimit:10" transform="matrix(.1 0 0 -.1 0 959.86)"/><path d="m86.527344 536.230469h.460937v-30.992188h-.460937zm0 0"/><use x="69.893" xlink:href="#au" y="579.261"/><use x="85.880478" xlink:href="#P" y="579.261"/><use x="73.85902" xlink:href="#aB" y="539.036"/><use x="7.77072" xlink:href="#aE" y="534.17936"/><use x="134.288932" xlink:href="#aB" y="534.17936"/><path d="m2647.460938 4229.342187h4.609374v316.875h-4.609374zm0 0" style="fill:none;stroke-width:3.98257;stroke-linecap:round;stroke-linejoin:round;stroke:#000;stroke-miterlimit:10" transform="matrix(.1 0 0 -.1 0 959.86)"/><path d="m264.746094 536.925781h.460937v-31.6875h-.460937zm0 0"/><use x="237.462" xlink:href="#ad" y="579.261"/><use x="249.026832" xlink:href="#ae" y="579.261"/><use x="262.292452" xlink:href="#W" y="579.261"/><use x="274.027598" xlink:href="#R" y="579.261"/><use x="252.7198" xlink:href="#aC" y="539.036"/><path d="m2073.867188 4333.44375h4.609374v309.921875h-4.609374zm0 0" style="fill:none;stroke-width:3.98257;stroke-linecap:round;stroke-linejoin:round;stroke:#000;stroke-miterlimit:10" transform="matrix(.1 0 0 -.1 0 959.86)"/><path d="m207.386719 526.515625h.460937v-30.992187h-.460937zm0 0"/><use x="188.711" xlink:href="#Z" y="579.261"/><use x="200.78716" xlink:href="#aa" y="579.261"/><use x="194.71881" xlink:href="#aB" y="529.3223"/><path d="m1469.570312 4284.889062h4.609376v309.921875h-4.609376zm0 0" style="fill:none;stroke-width:3.98257;stroke-linecap:round;stroke-linejoin:round;stroke:#000;stroke-miterlimit:10" transform="matrix(.1 0 0 -.1 0 959.86)"/><path d="m146.957031 531.371094h.460938v-30.988282h-.460938zm0 0"/><use x="134.32" xlink:href="#T" y="579.261"/><g clip-path="url(#z)"><path d="m3.28125 2994.029687h5946.171875" style="fill:none;stroke-width:6.60523;stroke-linecap:round;stroke-linejoin:round;stroke:#000;stroke-miterlimit:10" transform="matrix(.1 0 0 -.1 0 959.86)"/></g><g clip-path="url(#A)"><path d="m3.28125 3091.178125h5946.171875" style="fill:none;stroke-width:6.60523;stroke-linecap:round;stroke-linejoin:round;stroke:#000;stroke-miterlimit:10" transform="matrix(.1 0 0 -.1 0 959.86)"/></g><g clip-path="url(#B)"><path d="m3.28125 3188.326562h5946.171875" style="fill:none;stroke-width:6.60523;stroke-linecap:round;stroke-linejoin:round;stroke:#000;stroke-miterlimit:10" transform="matrix(.1 0 0 -.1 0 959.86)"/></g><g clip-path="url(#C)"><path d="m3.28125 3285.435937h5946.171875" style="fill:none;stroke-width:6.60523;stroke-linecap:round;stroke-linejoin:round;stroke:#000;stroke-miterlimit:10" transform="matrix(.1 0 0 -.1 0 959.86)"/></g><g clip-path="url(#D)"><path d="m3.28125 3382.584375h5946.171875" style="fill:none;stroke-width:6.60523;stroke-linecap:round;stroke-linejoin:round;stroke:#000;stroke-miterlimit:10" transform="matrix(.1 0 0 -.1 0 959.86)"/></g><path d="m4707.148438 2896.920312h183.59375" style="fill:none;stroke-width:16.3188;stroke-linecap:round;stroke-linejoin:round;stroke:#000;stroke-miterlimit:10" transform="matrix(.1 0 0 -.1 0 959.86)"/><use x="307.685" xlink:href="#aC" y="660.456"/><path d="m4858.984375 2924.967187h4.609375v309.921875h-4.609375zm0 0" fill="none" stroke="#000" stroke-linejoin="round" stroke-miterlimit="10" stroke-width="3.98257" transform="matrix(.1 0 0 -.1 0 959.86)"/><path d="m485.898438 667.363281h.460937v-30.992187h-.460937zm0 0"/><use x="454.723" xlink:href="#as" y="697.36"/><use x="459.995269" xlink:href="#at" y="697.36"/><use x="473.261255" xlink:href="#V" y="697.36"/><use x="486.526851" xlink:href="#ab" y="697.36"/><use x="498.433089" xlink:href="#R" y="697.36"/><use x="473.23" xlink:href="#aB" y="670.1698"/><path d="m4298.125 2966.56875h4.609375v316.875h-4.609375zm0 0" fill="none" stroke="#000" stroke-linejoin="round" stroke-miterlimit="10" stroke-width="3.98257" transform="matrix(.1 0 0 -.1 0 959.86)"/><path d="m429.8125 663.203125h.457031v-31.6875h-.457031zm0 0"/><use x="409.077" xlink:href="#ab" y="697.36"/><use x="420.641832" xlink:href="#aj" y="697.36"/><use x="433.907818" xlink:href="#P" y="697.36"/><use x="417.78716" xlink:href="#aC" y="665.3131"/><path d="m3747.617188 2966.56875h4.609374v316.875h-4.609374zm0 0" fill="none" stroke="#000" stroke-linejoin="round" stroke-miterlimit="10" stroke-width="3.98257" transform="matrix(.1 0 0 -.1 0 959.86)"/><path d="m374.761719 663.203125h.457031v-31.6875h-.457031zm0 0"/><use x="355.812" xlink:href="#V" y="697.36"/><use x="369.078011" xlink:href="#aj" y="697.36"/><use x="362.73583" xlink:href="#aC" y="665.3131"/><path d="m3197.109375 3015.123437h4.609375v316.875h-4.609375zm0 0" fill="none" stroke="#000" stroke-linejoin="round" stroke-miterlimit="10" stroke-width="3.98257" transform="matrix(.1 0 0 -.1 0 959.86)"/><path d="m319.710938 658.347656h.457031v-31.6875h-.457031zm0 0"/><use x="307.394" xlink:href="#aa" y="697.36"/><path d="m1036.601562 2690.7875h58.828126v3.320312h-58.828126zm0 0" fill="none" stroke="#000" stroke-linejoin="round" stroke-miterlimit="10" stroke-width="5.28418" transform="matrix(.1 0 0 -.1 0 959.86)"/><path d="m103.65625 690.78125h5.882812v-.328125h-5.882812zm0 0"/><path d="m1715.429688 2690.7875h58.828124v3.320312h-58.828124zm0 0" fill="none" stroke="#000" stroke-linejoin="round" stroke-miterlimit="10" stroke-width="5.28418" transform="matrix(.1 0 0 -.1 0 959.86)"/><path d="m171.542969 690.78125h5.882812v-.328125h-5.882812zm0 0"/><path d="m2238.515625 2690.7875h58.828125v3.320312h-58.828125zm0 0" fill="none" stroke="#000" stroke-linejoin="round" stroke-miterlimit="10" stroke-width="5.28418" transform="matrix(.1 0 0 -.1 0 959.86)"/><path d="m223.851562 690.78125h5.882813v-.328125h-5.882813zm0 0"/><path d="m3352.96875 2690.7875h58.789062v3.320312h-58.789062zm0 0" fill="none" stroke="#000" stroke-linejoin="round" stroke-miterlimit="10" stroke-width="5.28418" transform="matrix(.1 0 0 -.1 0 959.86)"/><path d="m335.296875 690.78125h5.878906v-.328125h-5.878906zm0 0"/><path d="m3927.695312 2690.7875h58.828126v3.320312h-58.828126zm0 0" fill="none" stroke="#000" stroke-linejoin="round" stroke-miterlimit="10" stroke-width="5.28418" transform="matrix(.1 0 0 -.1 0 959.86)"/><path d="m392.769531 690.78125h5.882813v-.328125h-5.882813zm0 0"/><path d="m4440.117188 2690.7875h58.828124v3.320312h-58.828124zm0 0" fill="none" stroke="#000" stroke-linejoin="round" stroke-miterlimit="10" stroke-width="5.28418" transform="matrix(.1 0 0 -.1 0 959.86)"/><path d="m444.011719 690.78125h5.878906v-.328125h-5.878906zm0 0"/><use x="533.632" xlink:href="#aD" y="641.029"/><use x="42.775235" xlink:href="#aF" y="641.029"/><path d="m865.273438 3070.670312h4.609374v309.921875h-4.609374zm0 0" fill="none" stroke="#000" stroke-linejoin="round" stroke-miterlimit="10" stroke-width="3.98257" transform="matrix(.1 0 0 -.1 0 959.86)"/><path d="m86.527344 652.792969h.460937v-30.992188h-.460937zm0 0"/><use x="66.2367" xlink:href="#av" y="697.36"/><use x="81.54332" xlink:href="#aj" y="697.36"/><use x="73.85897" xlink:href="#aB" y="655.5995"/><use x="7.77067" xlink:href="#aE" y="650.74286"/><use x="134.260907" xlink:href="#aB" y="650.74286"/><path d="m2646.601562 3063.717187h4.609376v316.875h-4.609376zm0 0" fill="none" stroke="#000" stroke-linejoin="round" stroke-miterlimit="10" stroke-width="3.98257" transform="matrix(.1 0 0 -.1 0 959.86)"/><path d="m264.660156 653.488281h.460938v-31.6875h-.460938zm0 0"/><use x="236.441" xlink:href="#V" y="697.36"/><use x="249.707011" xlink:href="#aj" y="697.36"/><use x="262.972631" xlink:href="#ab" y="697.36"/><use x="274.878479" xlink:href="#R" y="697.36"/><use x="252.6344" xlink:href="#aC" y="655.5995"/><path d="m2073.28125 3167.81875h4.609375v309.921875h-4.609375zm0 0" fill="none" stroke="#000" stroke-linejoin="round" stroke-miterlimit="10" stroke-width="3.98257" transform="matrix(.1 0 0 -.1 0 959.86)"/><path d="m207.328125 643.078125h.460937v-30.988281h-.460937zm0 0"/><use x="185.508" xlink:href="#ag" y="697.36"/><use x="192.481434" xlink:href="#aw" y="697.36"/><use x="203.876346" xlink:href="#aa" y="697.36"/><use x="194.6623" xlink:href="#aB" y="645.8858"/><path d="m1469.296875 3119.225h4.609375v309.921875h-4.609375zm0 0" fill="none" stroke="#000" stroke-linejoin="round" stroke-miterlimit="10" stroke-width="3.98257" transform="matrix(.1 0 0 -.1 0 959.86)"/><path d="m146.929688 647.9375h.457031v-30.992188h-.457031zm0 0"/><use x="118.389" xlink:href="#Y" y="697.36"/><use x="126.21243" xlink:href="#aj" y="697.36"/><use x="139.478038" xlink:href="#W" y="697.36"/><use x="151.383886" xlink:href="#ad" y="697.36"/><g clip-path="url(#E)"><path d="m3.28125 1828.404687h5946.171875" style="fill:none;stroke-width:6.60523;stroke-linecap:round;stroke-linejoin:round;stroke:#000;stroke-miterlimit:10" transform="matrix(.1 0 0 -.1 0 959.86)"/></g><g clip-path="url(#F)"><path d="m3.28125 1925.553125h5946.171875" style="fill:none;stroke-width:6.60523;stroke-linecap:round;stroke-linejoin:round;stroke:#000;stroke-miterlimit:10" transform="matrix(.1 0 0 -.1 0 959.86)"/></g><g clip-path="url(#G)"><path d="m3.28125 2022.6625h5946.171875" style="fill:none;stroke-width:6.60523;stroke-linecap:round;stroke-linejoin:round;stroke:#000;stroke-miterlimit:10" transform="matrix(.1 0 0 -.1 0 959.86)"/></g><g clip-path="url(#H)"><path d="m3.28125 2119.810937h5946.171875" style="fill:none;stroke-width:6.60523;stroke-linecap:round;stroke-linejoin:round;stroke:#000;stroke-miterlimit:10" transform="matrix(.1 0 0 -.1 0 959.86)"/></g><g clip-path="url(#I)"><path d="m3.28125 2216.959375h5946.171875" style="fill:none;stroke-width:6.60523;stroke-linecap:round;stroke-linejoin:round;stroke:#000;stroke-miterlimit:10" transform="matrix(.1 0 0 -.1 0 959.86)"/></g><use x="302.806" xlink:href="#aB" y="757.592"/><path d="m4859.101562 2002.19375h4.609376v309.921875h-4.609376zm0 0" style="fill:none;stroke-width:3.98257;stroke-linecap:round;stroke-linejoin:round;stroke:#000;stroke-miterlimit:10" transform="matrix(.1 0 0 -.1 0 959.86)"/><path d="m485.910156 759.640625h.460938v-30.992187h-.460938zm0 0"/><use x="461.112" xlink:href="#ab" y="813.515"/><use x="472.676832" xlink:href="#aj" y="813.515"/><use x="485.772897" xlink:href="#ag" y="813.515"/><use x="492.065069" xlink:href="#R" y="813.515"/><use x="473.2425" xlink:href="#aB" y="762.4486"/><path d="m4302.226562 1946.646875h4.609376v316.875h-4.609376zm0 0" style="fill:none;stroke-width:3.98257;stroke-linecap:round;stroke-linejoin:round;stroke:#000;stroke-miterlimit:10" transform="matrix(.1 0 0 -.1 0 959.86)"/><path d="m430.222656 765.195312h.460938v-31.6875h-.460938zm0 0"/><use x="411.274" xlink:href="#ap" y="813.515"/><use x="424.539596" xlink:href="#aj" y="813.515"/><use x="418.19783" xlink:href="#aC" y="767.3056"/><path d="m3751.757812 1995.201562h4.609376v316.875h-4.609376zm0 0" style="fill:none;stroke-width:3.98257;stroke-linecap:round;stroke-linejoin:round;stroke:#000;stroke-miterlimit:10" transform="matrix(.1 0 0 -.1 0 959.86)"/><path d="m375.175781 760.339844h.460938v-31.6875h-.460938zm0 0"/><use x="356.229" xlink:href="#V" y="813.515"/><use x="369.49462" xlink:href="#aj" y="813.515"/><use x="363.15283" xlink:href="#aC" y="762.4486"/><path d="m3030.039062 1700.904687h4.609376v293.710938h-4.609376zm0 0" style="fill:none;stroke-width:3.98257;stroke-linecap:round;stroke-linejoin:round;stroke:#000;stroke-miterlimit:10" transform="matrix(.1 0 0 -.1 0 959.86)"/><path d="m303.003906 789.769531h.460938v-29.371093h-.460938zm0 0"/><use x="296.204" xlink:href="#at" y="813.515"/><use x="309.46962" xlink:href="#V" y="813.515"/><path d="m1037.5 1529.225h58.828125v3.320312h-58.828125zm0 0" style="fill:none;stroke-width:5.28418;stroke-linecap:round;stroke-linejoin:round;stroke:#000;stroke-miterlimit:10" transform="matrix(.1 0 0 -.1 0 959.86)"/><path d="m103.75 806.9375h5.882812v-.332031h-5.882812zm0 0"/><path d="m2201.5625 1529.225h58.828125v3.320312h-58.828125zm0 0" style="fill:none;stroke-width:5.28418;stroke-linecap:round;stroke-linejoin:round;stroke:#000;stroke-miterlimit:10" transform="matrix(.1 0 0 -.1 0 959.86)"/><path d="m220.15625 806.9375h5.882812v-.332031h-5.882812zm0 0"/><path d="m3365.390625 1529.225h58.828125v3.320312h-58.828125zm0 0" style="fill:none;stroke-width:5.28418;stroke-linecap:round;stroke-linejoin:round;stroke:#000;stroke-miterlimit:10" transform="matrix(.1 0 0 -.1 0 959.86)"/><path d="m336.539062 806.9375h5.882813v-.332031h-5.882813zm0 0"/><path d="m3940.742188 1529.225h58.828124v3.320312h-58.828124zm0 0" style="fill:none;stroke-width:5.28418;stroke-linecap:round;stroke-linejoin:round;stroke:#000;stroke-miterlimit:10" transform="matrix(.1 0 0 -.1 0 959.86)"/><path d="m394.074219 806.9375h5.882812v-.332031h-5.882812zm0 0"/><path d="m4465.195312 1529.225h58.828126v3.320312h-58.828126zm0 0" style="fill:none;stroke-width:5.28418;stroke-linecap:round;stroke-linejoin:round;stroke:#000;stroke-miterlimit:10" transform="matrix(.1 0 0 -.1 0 959.86)"/><path d="m446.515625 806.9375h5.882813v-.332031h-5.882813zm0 0"/><use x="533.638" xlink:href="#aD" y="757.592"/><use x="42.77735" xlink:href="#aF" y="757.592"/><path d="m740.585938 1733.2875h4.609374v309.882812h-4.609374zm0 0" style="fill:none;stroke-width:3.98257;stroke-linecap:round;stroke-linejoin:round;stroke:#000;stroke-miterlimit:10" transform="matrix(.1 0 0 -.1 0 959.86)"/><path d="m74.058594 786.53125h.460937v-30.988281h-.460937zm0 0"/><use x="69.2133" xlink:href="#ax" y="813.515"/><use x="86.561717" xlink:href="#P" y="813.515"/><use x="73.859" xlink:href="#aB" y="752.7349"/><use x="7.7707" xlink:href="#aE" y="767.3056"/><use x="134.2547" xlink:href="#aC" y="752.7349"/><path d="m2537.421875 1905.045312h4.609375v309.921875h-4.609375zm0 0" style="fill:none;stroke-width:3.98257;stroke-linecap:round;stroke-linejoin:round;stroke:#000;stroke-miterlimit:10" transform="matrix(.1 0 0 -.1 0 959.86)"/><path d="m253.742188 769.355469h.460937v-30.992188h-.460937zm0 0"/><use x="232.091" xlink:href="#S" y="813.515"/><use x="243.655832" xlink:href="#aa" y="813.515"/><use x="256.75153" xlink:href="#ag" y="813.515"/><use x="241.07381" xlink:href="#aB" y="772.1623"/><path d="m2004.804688 1995.201562h4.609374v316.875h-4.609374zm0 0" style="fill:none;stroke-width:3.98257;stroke-linecap:round;stroke-linejoin:round;stroke:#000;stroke-miterlimit:10" transform="matrix(.1 0 0 -.1 0 959.86)"/><path d="m200.480469 760.339844h.460937v-31.6875h-.460937zm0 0"/><use x="175.496" xlink:href="#af" y="813.515"/><use x="188.761998" xlink:href="#ay" y="813.515"/><use x="202.027606" xlink:href="#W" y="813.515"/><use x="188.4577" xlink:href="#aC" y="762.4486"/><path d="m1344.53125 1733.2875h4.609375v316.875h-4.609375zm0 0" style="fill:none;stroke-width:3.98257;stroke-linecap:round;stroke-linejoin:round;stroke:#000;stroke-miterlimit:10" transform="matrix(.1 0 0 -.1 0 959.86)"/><path d="m134.453125 786.53125h.460937v-31.6875h-.460937zm0 0"/><use x="121.548" xlink:href="#S" y="813.515"/><use x="133.112832" xlink:href="#aa" y="813.515"/><use x="146.37844" xlink:href="#V" y="813.515"/><g clip-path="url(#J)"><path d="m3.28125 662.779687h5946.171875" style="fill:none;stroke-width:6.60523;stroke-linecap:round;stroke-linejoin:round;stroke:#000;stroke-miterlimit:10" transform="matrix(.1 0 0 -.1 0 959.86)"/></g><g clip-path="url(#K)"><path d="m3.28125 759.928125h5946.171875" style="fill:none;stroke-width:6.60523;stroke-linecap:round;stroke-linejoin:round;stroke:#000;stroke-miterlimit:10" transform="matrix(.1 0 0 -.1 0 959.86)"/></g><g clip-path="url(#L)"><path d="m3.28125 857.0375h5946.171875" style="fill:none;stroke-width:6.60523;stroke-linecap:round;stroke-linejoin:round;stroke:#000;stroke-miterlimit:10" transform="matrix(.1 0 0 -.1 0 959.86)"/></g><g clip-path="url(#M)"><path d="m3.28125 954.185937h5946.171875" style="fill:none;stroke-width:6.60523;stroke-linecap:round;stroke-linejoin:round;stroke:#000;stroke-miterlimit:10" transform="matrix(.1 0 0 -.1 0 959.86)"/></g><g clip-path="url(#N)"><path d="m3.28125 1051.334375h5946.171875" style="fill:none;stroke-width:6.60523;stroke-linecap:round;stroke-linejoin:round;stroke:#000;stroke-miterlimit:10" transform="matrix(.1 0 0 -.1 0 959.86)"/></g><g clip-path="url(#O)"><path d="m5932.929688 662.779687v388.554688" fill="none" stroke="#000" stroke-linejoin="round" stroke-miterlimit="10" stroke-width="39.6217" transform="matrix(.1 0 0 -.1 0 959.86)"/></g><path d="m5887.03125 662.779687v388.554688" fill="none" stroke="#000" stroke-linejoin="round" stroke-miterlimit="10" stroke-width="12.5499" transform="matrix(.1 0 0 -.1 0 959.86)"/><path d="m4637.460938 683.873437h4.609374v316.875h-4.609374zm0 0" fill="none" stroke="#000" stroke-linejoin="round" stroke-miterlimit="10" stroke-width="3.98257" transform="matrix(.1 0 0 -.1 0 959.86)"/><path d="m463.746094 891.472656h.460937v-31.6875h-.460937zm0 0"/><use x="444.8" xlink:href="#V" y="927.6752"/><use x="458.065986" xlink:href="#aj" y="927.6752"/><use x="451.72383" xlink:href="#aC" y="893.5814"/><path d="m4041.054688 732.467187h4.609374v316.875h-4.609374zm0 0" fill="none" stroke="#000" stroke-linejoin="round" stroke-miterlimit="10" stroke-width="3.98257" transform="matrix(.1 0 0 -.1 0 959.86)"/><path d="m404.105469 886.613281h.460937v-31.6875h-.460937zm0 0"/><use x="391.791" xlink:href="#aa" y="927.6752"/><use x="392.081625" xlink:href="#aC" y="888.7248"/><path d="m3392.460938 787.975h4.609374v309.921875h-4.609374zm0 0" fill="none" stroke="#000" stroke-linejoin="round" stroke-miterlimit="10" stroke-width="3.98257" transform="matrix(.1 0 0 -.1 0 959.86)"/><path d="m339.246094 881.0625h.460937v-30.992188h-.460937zm0 0"/><use x="320.657" xlink:href="#ai" y="927.6752"/><use x="340.556187" xlink:href="#ac" y="927.6752"/><use x="326.57966" xlink:href="#aB" y="883.8678"/><path d="m1760.273438 387.623437h58.828124v3.320313h-58.828124zm0 0" fill="none" stroke="#000" stroke-linejoin="round" stroke-miterlimit="10" stroke-width="5.28418" transform="matrix(.1 0 0 -.1 0 959.86)"/><path d="m176.027344 921.097656h5.882812v-.332031h-5.882812zm0 0"/><path d="m2306.015625 387.623437h58.828125v3.320313h-58.828125zm0 0" fill="none" stroke="#000" stroke-linejoin="round" stroke-miterlimit="10" stroke-width="5.28418" transform="matrix(.1 0 0 -.1 0 959.86)"/><path d="m230.601562 921.097656h5.882813v-.332031h-5.882813zm0 0"/><path d="m2979.921875 387.623437h58.828125v3.320313h-58.828125zm0 0" fill="none" stroke="#000" stroke-linejoin="round" stroke-miterlimit="10" stroke-width="5.28418" transform="matrix(.1 0 0 -.1 0 959.86)"/><path d="m297.992188 921.097656h5.882812v-.332031h-5.882812zm0 0"/><path d="m4219.882812 387.623437h58.828126v3.320313h-58.828126zm0 0" fill="none" stroke="#000" stroke-linejoin="round" stroke-miterlimit="10" stroke-width="5.28418" transform="matrix(.1 0 0 -.1 0 959.86)"/><path d="m421.988281 921.097656h5.882813v-.332031h-5.882813zm0 0"/><path d="m4838.398438 387.623437h58.828124v3.320313h-58.828124zm0 0" fill="none" stroke="#000" stroke-linejoin="round" stroke-miterlimit="10" stroke-width="5.28418" transform="matrix(.1 0 0 -.1 0 959.86)"/><path d="m483.839844 921.097656h5.882812v-.332031h-5.882812zm0 0"/><use x="511.366" xlink:href="#aG" y="888.7248"/><use x="502.23123" xlink:href="#ab" y="927.6752"/><use x="513.796062" xlink:href="#aj" y="927.6752"/><use x="526.892127" xlink:href="#ag" y="927.6752"/><use x="533.184299" xlink:href="#aq" y="927.6752"/><use x="42.77523" xlink:href="#aF" y="874.1545"/><path d="m865.273438 836.56875h4.609374v309.921875h-4.609374zm0 0" fill="none" stroke="#000" stroke-linejoin="round" stroke-miterlimit="10" stroke-width="3.98257" transform="matrix(.1 0 0 -.1 0 959.86)"/><path d="m86.527344 876.207031h.460937v-30.992187h-.460937zm0 0"/><use x="69.2133" xlink:href="#az" y="927.6752"/><use x="86.561717" xlink:href="#as" y="927.6752"/><use x="73.859" xlink:href="#aB" y="879.0111"/><path d="m2713.164062 690.865625h4.570313v309.921875h-4.570313zm0 0" fill="none" stroke="#000" stroke-linejoin="round" stroke-miterlimit="10" stroke-width="3.98257" transform="matrix(.1 0 0 -.1 0 959.86)"/><path d="m271.3125 890.777344h.460938v-30.992188h-.460938zm0 0"/><use x="7.7707" xlink:href="#aE" y="883.8678"/><use x="199.0047" xlink:href="#aC" y="888.72483"/><use x="249.4082" xlink:href="#al" y="927.67523"/><use x="262.674211" xlink:href="#aj" y="927.67523"/><use x="275.939831" xlink:href="#P" y="927.67523"/><use x="258.64687" xlink:href="#aB" y="893.58143"/><path d="m2110.273438 732.467187h4.609374v316.875h-4.609374zm0 0" fill="none" stroke="#000" stroke-linejoin="round" stroke-miterlimit="10" stroke-width="3.98257" transform="matrix(.1 0 0 -.1 0 959.86)"/><path d="m211.027344 886.613281h.460937v-31.6875h-.460937zm0 0"/><use x="193.016" xlink:href="#ad" y="927.6752"/><use x="204.410912" xlink:href="#aj" y="927.6752"/><path d="m1513.867188 781.021875h4.609374v316.875h-4.609374zm0 0" fill="none" stroke="#000" stroke-linejoin="round" stroke-miterlimit="10" stroke-width="3.98257" transform="matrix(.1 0 0 -.1 0 959.86)"/><path d="m151.386719 881.757812h.460937v-31.6875h-.460937zm0 0"/><use x="126.486" xlink:href="#ak" y="927.6752"/><use x="139.581686" xlink:href="#aw" y="927.6752"/><use x="151.657846" xlink:href="#aA" y="927.6752"/><use x="139.3622" xlink:href="#aC" y="883.8678"/></svg>