<svg height="398.36em" viewBox="0 0 595.28 398.36" width="595.28em" xmlns="http://www.w3.org/2000/svg" xmlns:xlink="http://www.w3.org/1999/xlink"><clipPath id="a"><path d="m0 53h595.28125v2h-595.28125zm0 0"/></clipPath><clipPath id="b"><path d="m0 45h595.28125v2h-595.28125zm0 0"/></clipPath><clipPath id="c"><path d="m0 37h595.28125v2h-595.28125zm0 0"/></clipPath><clipPath id="d"><path d="m0 29h595.28125v2h-595.28125zm0 0"/></clipPath><clipPath id="e"><path d="m0 21h595.28125v2h-595.28125zm0 0"/></clipPath><clipPath id="f"><path d="m594 21h1.28125v34h-1.28125zm0 0"/></clipPath><clipPath id="g"><path d="m0 149h595.28125v1h-595.28125zm0 0"/></clipPath><clipPath id="h"><path d="m0 141h595.28125v1h-595.28125zm0 0"/></clipPath><clipPath id="i"><path d="m0 133h595.28125v1h-595.28125zm0 0"/></clipPath><clipPath id="j"><path d="m0 125h595.28125v2h-595.28125zm0 0"/></clipPath><clipPath id="k"><path d="m0 117h595.28125v2h-595.28125zm0 0"/></clipPath><clipPath id="l"><path d="m594 117h1.28125v34h-1.28125zm0 0"/></clipPath><clipPath id="m"><path d="m0 244h595.28125v2h-595.28125zm0 0"/></clipPath><clipPath id="n"><path d="m0 237h595.28125v1h-595.28125zm0 0"/></clipPath><clipPath id="o"><path d="m0 229h595.28125v1h-595.28125zm0 0"/></clipPath><clipPath id="p"><path d="m0 221h595.28125v1h-595.28125zm0 0"/></clipPath><clipPath id="q"><path d="m0 213h595.28125v1h-595.28125zm0 0"/></clipPath><clipPath id="r"><path d="m594 212h1.28125v34h-1.28125zm0 0"/></clipPath><clipPath id="s"><path d="m0 340h595.28125v2h-595.28125zm0 0"/></clipPath><clipPath id="t"><path d="m0 332h595.28125v2h-595.28125zm0 0"/></clipPath><clipPath id="u"><path d="m0 324h595.28125v2h-595.28125zm0 0"/></clipPath><clipPath id="v"><path d="m0 316h595.28125v2h-595.28125zm0 0"/></clipPath><clipPath id="w"><path d="m0 308h595.28125v2h-595.28125zm0 0"/></clipPath><clipPath id="x"><path d="m591 307h4.28125v36h-4.28125zm0 0"/></clipPath><symbol id="y" overflow="visible"><path d="m7.078125-4.296875c-1.34375 0-2.609375.4375-3.765625 1.140625-1.5.890625-3.3125 2.453125-3.3125 4.71875 0 1.875 1.65625 2.734375 3.34375 2.734375 1.34375 0 2.609375-.4375 3.765625-1.140625 1.5-.890625 3.28125-2.453125 3.28125-4.71875 0-1.875-1.625-2.734375-3.3125-2.734375zm0 0"/></symbol><symbol id="z" overflow="visible"><path d="m11.921875-8.28125c-.515625-2.234375-1.109375-4.4375-1.75-6.640625 3.0625-3.46875 5.828125-7.046875 5.828125-11.625 0-3.609375-1.96875-8.765625-4.203125-11.453125-.15625-.125-.359375-.125-.515625 0-3.03125 2.203125-4.78125 5.703125-4.78125 9.40625 0 1.65625.03125 3.28125.21875 4.90625.234375 2.078125.765625 4.078125 1.34375 6.09375-3.765625 4.265625-8 8.34375-8 14.03125 0 6.40625 4.625 11.84375 10.609375 11.84375 1 0 1.921875-.09375 2.84375-.25.09375 1.015625.15625 2.046875.15625 3.0625 0 .578125-.03125 1.109375-.0625 1.6875-.1875 3.15625-2.140625 6.0625-5.09375 6.125-.03125 0-.0625.03125-.09375.03125-1.625 0-3.03125-.921875-3.859375-2.234375.34375.15625.734375.28125 1.109375.28125 1.65625 0 3.03125-1.359375 3.03125-3.015625 0-1.796875-1.3125-3.328125-3.03125-3.328125-1.875 0-3.5625 1.46875-3.5625 3.328125 0 3.4375 2.765625 6.203125 6.203125 6.203125 3.765625 0 6.34375-3.375 6.578125-7.203125.03125-.59375.03125-1.171875.03125-1.78125 0-1.140625-.0625-2.296875-.15625-3.4375.828125-.265625 1.625-.640625 2.3125-1.1875 2.359375-1.75 3.421875-4.203125 3.421875-6.625 0-4.203125-3.1875-8.25-8.09375-8.25-.171875 0-.328125.03125-.484375.03125zm2.703125 14.8125c-.4375-3.953125-1.171875-7.703125-1.96875-11.4375 3.5.28125 5.703125 3.21875 5.703125 6.15625 0 2.21875-1.53125 4.515625-3.734375 5.28125zm-12.359375-7.515625c0-5.109375 3.4375-8.953125 6.875-12.8125.515625 1.875 1.03125 3.75 1.46875 5.671875-3.21875.734375-5.03125 3.4375-5.03125 6.25 0 2.21875 1.140625 4.484375 3.703125 5.859375.09375.03125.1875.0625.28125.0625.34375 0 .640625-.3125.640625-.671875 0-.15625-.09375-.3125-.21875-.4375-1.796875-1.03125-2.625-2.5625-2.625-3.953125 0-1.890625 1.46875-3.578125 3.984375-3.859375.828125 3.828125 1.5625 7.609375 2.046875 11.703125-.859375.125-1.71875.1875-2.609375.1875-4.34375 0-8.515625-3.671875-8.515625-8zm10.828125-32.484375c.546875 1.6875.671875 2.515625.671875 4.359375 0 4.0625-2.125 7.28125-4.75 10.359375-.5625-2-1.046875-3.9375-1.046875-6.375 0-3.53125 1.96875-6.75 5.125-8.34375zm0 0"/></symbol><symbol id="A" overflow="visible"><path d="m.796875-1.40625c.03125-1.046875.734375-1.96875 1.71875-1.96875.953125 0 1.40625 1.109375 1.40625 2.203125 0 1.875-1.59375 3.21875-3.0625 4.421875-.0625-.703125-.125-1.40625-.125-2.109375 0-.125.03125-.21875.03125-.34375zm-1.59375-13.359375.34375 19.09375c0 .390625.296875.671875.671875.671875.578125 0 .828125-.671875 1.28125-1.015625 2-1.625 4.875-2.765625 4.875-5.390625 0-1.71875-1.28125-3.1875-2.96875-3.1875-1.015625 0-1.96875.359375-2.796875.953125l.1875-11.125c-.25-.125-.515625-.21875-.796875-.21875s-.546875.09375-.796875.21875zm0 0"/></symbol><symbol id="B" overflow="visible"><path d="m-.21875-11.953125.21875 18.328125c0 .28125.25.546875.546875.546875.03125 0 .03125-.03125.0625-.03125l3.46875-.578125-.0625 5.640625c.21875.125.515625.1875.765625.1875s.546875-.0625.765625-.1875l-.21875-18.328125c0-.28125-.265625-.546875-.546875-.546875-.03125 0-.0625.03125-.09375.03125l-3.46875.578125.0625-5.640625c-.234375-.125-.484375-.1875-.734375-.1875-.265625 0-.546875.0625-.765625.1875zm4.421875 8.3125-.0625 6.796875-3.0625.484375.09375-6.796875zm0 0"/></symbol><symbol id="C" overflow="visible"><path d="m-2.015625-1.5c0 1.125.90625 2.015625 2.015625 2.015625s2.015625-.890625 2.015625-2.015625c0-1.109375-.90625-2-2.015625-2s-2.015625.890625-2.015625 2zm2.015625-9.96875c-4.9375 0-10.484375 5.515625-10.484375 11.53125 0 .25.25.453125.5.453125.234375 0 .484375-.171875.546875-.515625.828125-4.75 4.6875-8.453125 9.4375-8.453125s8.609375 3.703125 9.4375 8.453125c.0625.34375.3125.515625.546875.515625.25 0 .5-.203125.5-.453125 0-6.015625-5.515625-11.53125-10.484375-11.53125zm0 0"/></symbol><symbol id="D" overflow="visible"><path d="m1.0625-14.359375v14.359375h1.484375v-1.3125c.78125 1.1875 1.828125 1.765625 3.265625 1.765625 2.71875 0 4.484375-2.21875 4.484375-5.65625 0-3.34375-1.671875-5.40625-4.40625-5.40625-1.421875 0-2.421875.53125-3.1875 1.6875v-5.4375zm4.515625 5.28125c1.828125 0 3 1.59375 3 4.0625 0 2.34375-1.21875 3.9375-3 3.9375-1.765625 0-2.875-1.578125-2.875-4s1.109375-4 2.875-4zm0 0"/></symbol><symbol id="E" overflow="visible"><path d="m9.484375 0v-10.3125h-1.625v5.84375c0 2.109375-1.109375 3.484375-2.8125 3.484375-1.3125 0-2.140625-.78125-2.140625-2.03125v-7.296875h-1.625v7.953125c0 1.703125 1.28125 2.8125 3.28125 2.8125 1.515625 0 2.484375-.53125 3.453125-1.890625v1.4375zm0 0"/></symbol><symbol id="F" overflow="visible"><path d="m1.375-10.3125v11.8125c0 1.015625-.3125 1.359375-1.328125 1.359375-.125 0-.1875 0-.40625-.03125v1.40625c.203125.03125.296875.0625.5625.0625 1.84375 0 2.8125-.734375 2.8125-2.15625v-12.453125zm1.640625-4.046875h-1.640625v2.078125h1.640625zm0 0"/></symbol><symbol id="G" overflow="visible"><path d="m9.75-14.359375h-1.640625v5.34375c-.6875-1.046875-1.796875-1.59375-3.171875-1.59375-2.671875 0-4.421875 2.140625-4.421875 5.4375 0 3.484375 1.6875 5.625 4.484375 5.625 1.421875 0 2.40625-.53125 3.28125-1.8125v1.359375h1.46875zm-4.53125 5.28125c1.765625 0 2.890625 1.5625 2.890625 4.03125 0 2.390625-1.140625 3.96875-2.875 3.96875-1.8125 0-3.015625-1.59375-3.015625-4s1.203125-4 3-4zm0 0"/></symbol><symbol id="H" overflow="visible"><path d="m2.953125-10.3125h-1.640625v10.3125h1.640625zm0-4.046875h-1.65625v2.078125h1.65625zm0 0"/></symbol><symbol id="I" overflow="visible"><path d="m5.359375-10.609375c-2.921875 0-4.65625 2.0625-4.65625 5.53125 0 3.484375 1.734375 5.53125 4.671875 5.53125 2.90625 0 4.671875-2.0625 4.671875-5.453125 0-3.578125-1.703125-5.609375-4.6875-5.609375zm.015625 1.515625c1.84375 0 2.953125 1.515625 2.953125 4.078125 0 2.4375-1.140625 3.953125-2.953125 3.953125-1.828125 0-2.953125-1.515625-2.953125-4.015625s1.125-4.015625 2.953125-4.015625zm0 0"/></symbol><symbol id="J" overflow="visible"><path d="m8.625-7.4375c-.015625-2.03125-1.359375-3.171875-3.75-3.171875s-3.953125 1.234375-3.953125 3.140625c0 1.625.828125 2.390625 3.265625 2.984375l1.546875.375c1.140625.265625 1.59375.6875 1.59375 1.40625 0 .984375-.96875 1.640625-2.40625 1.640625-.890625 0-1.640625-.25-2.046875-.6875-.25-.296875-.375-.59375-.46875-1.328125h-1.734375c.078125 2.390625 1.421875 3.53125 4.109375 3.53125 2.59375 0 4.25-1.28125 4.25-3.265625 0-1.53125-.859375-2.390625-2.90625-2.875l-1.578125-.375c-1.34375-.3125-1.90625-.75-1.90625-1.484375 0-.953125.84375-1.546875 2.1875-1.546875 1.3125 0 2.015625.5625 2.0625 1.65625zm0 0"/></symbol><symbol id="K" overflow="visible"><path d="m10.53125-.96875c-.171875.046875-.25.046875-.359375.046875-.5625 0-.875-.296875-.875-.8125v-6.0625c0-1.828125-1.34375-2.8125-3.890625-2.8125-1.515625 0-2.703125.4375-3.421875 1.203125-.46875.53125-.671875 1.125-.703125 2.140625h1.65625c.140625-1.265625.875-1.828125 2.421875-1.828125 1.484375 0 2.296875.546875 2.296875 1.53125v.4375c-.015625.703125-.375.96875-1.703125 1.140625-2.328125.296875-2.6875.375-3.3125.625-1.203125.515625-1.8125 1.421875-1.8125 2.765625 0 1.859375 1.296875 3.046875 3.390625 3.046875 1.296875 0 2.34375-.453125 3.5-1.515625.109375 1.0625.625 1.515625 1.6875 1.515625.359375 0 .578125-.046875 1.125-.171875zm-2.875-2.28125c0 .546875-.15625.890625-.640625 1.34375-.671875.609375-1.484375.921875-2.453125.921875-1.28125 0-2.015625-.609375-2.015625-1.65625 0-1.078125.703125-1.625 2.46875-1.890625 1.75-.234375 2.09375-.3125 2.640625-.5625zm-1.671875-11.3125-1.90625 2.90625h1.171875l2.9375-2.90625zm0 0"/></symbol><symbol id="L" overflow="visible"><path d="m1.375-10.3125v10.3125h1.65625v-6.484375c0-1.484375 1.078125-2.6875 2.421875-2.6875 1.21875 0 1.90625.75 1.90625 2.0625v7.109375h1.65625v-6.484375c0-1.484375 1.078125-2.6875 2.421875-2.6875 1.203125 0 1.90625.765625 1.90625 2.0625v7.109375h1.65625v-7.734375c0-1.859375-1.0625-2.875-2.984375-2.875-1.390625 0-2.21875.40625-3.171875 1.578125-.609375-1.109375-1.4375-1.578125-2.78125-1.578125-1.375 0-2.296875.515625-3.171875 1.75v-1.453125zm0 0"/></symbol><symbol id="M" overflow="visible"><path d="m1.71875-2.046875v2.046875h1.171875v.359375c0 1.359375-.25 1.75-1.171875 1.78125v.75c1.296875.046875 2.0625-.90625 2.0625-2.578125v-2.359375zm0 0"/></symbol><symbol id="N" overflow="visible"><path d="m12.71875-14.359375h-1.734375v11.734375l-7.5-11.734375h-1.984375v14.359375h1.734375v-11.640625l7.421875 11.640625h2.0625zm0 0"/></symbol><symbol id="O" overflow="visible"><path d="m10.09375-4.609375c0-1.578125-.109375-2.515625-.40625-3.28125-.671875-1.703125-2.25-2.71875-4.171875-2.71875-2.875 0-4.734375 2.1875-4.734375 5.59375s1.78125 5.46875 4.6875 5.46875c2.359375 0 4-1.34375 4.421875-3.578125h-1.65625c-.453125 1.359375-1.390625 2.0625-2.703125 2.0625-1.046875 0-1.921875-.46875-2.484375-1.34375-.390625-.59375-.53125-1.171875-.546875-2.203125zm-7.546875-1.34375c.125-1.90625 1.296875-3.140625 2.953125-3.140625 1.671875 0 2.828125 1.296875 2.828125 3.140625zm0 0"/></symbol><symbol id="P" overflow="visible"><path d="m5-10.3125h-1.6875v-2.84375h-1.640625v2.84375h-1.390625v1.328125h1.390625v7.796875c0 1.0625.703125 1.640625 1.984375 1.640625.4375 0 .796875-.046875 1.34375-.140625v-1.375c-.234375.0625-.453125.078125-.78125.078125-.71875 0-.90625-.203125-.90625-.921875v-7.078125h1.6875zm0 0"/></symbol><symbol id="Q" overflow="visible"><path d="m10.53125-.96875c-.171875.046875-.25.046875-.359375.046875-.5625 0-.875-.296875-.875-.8125v-6.0625c0-1.828125-1.34375-2.8125-3.890625-2.8125-1.515625 0-2.703125.4375-3.421875 1.203125-.46875.53125-.671875 1.125-.703125 2.140625h1.65625c.140625-1.265625.875-1.828125 2.421875-1.828125 1.484375 0 2.296875.546875 2.296875 1.53125v.4375c-.015625.703125-.375.96875-1.703125 1.140625-2.328125.296875-2.6875.375-3.3125.625-1.203125.515625-1.8125 1.421875-1.8125 2.765625 0 1.859375 1.296875 3.046875 3.390625 3.046875 1.296875 0 2.34375-.453125 3.5-1.515625.109375 1.0625.625 1.515625 1.6875 1.515625.359375 0 .578125-.046875 1.125-.171875zm-2.875-2.28125c0 .546875-.15625.890625-.640625 1.34375-.671875.609375-1.484375.921875-2.453125.921875-1.28125 0-2.015625-.609375-2.015625-1.65625 0-1.078125.703125-1.625 2.46875-1.890625 1.75-.234375 2.09375-.3125 2.640625-.5625zm0 0"/></symbol><symbol id="R" overflow="visible"><path d="m1.359375-10.3125v10.3125h1.65625v-5.359375c.015625-2.46875 1.046875-3.578125 3.296875-3.515625v-1.671875c-.265625-.046875-.421875-.0625-.625-.0625-1.0625 0-1.875.625-2.8125 2.15625v-1.859375zm0 0"/></symbol><symbol id="S" overflow="visible"><path d="m5.078125-10.3125h-1.71875v-1.625c0-.6875.375-1.03125 1.15625-1.03125.125 0 .1875 0 .5625.015625v-1.359375c-.375-.078125-.59375-.09375-.921875-.09375-1.515625 0-2.421875.859375-2.421875 2.34375v1.75h-1.375v1.328125h1.375v8.984375h1.625v-8.984375h1.71875zm0 0"/></symbol><symbol id="T" overflow="visible"><path d="m5.359375-10.609375c-2.921875 0-4.65625 2.0625-4.65625 5.53125 0 3.484375 1.734375 5.53125 4.671875 5.53125 2.90625 0 4.671875-2.0625 4.671875-5.453125 0-3.578125-1.703125-5.609375-4.6875-5.609375zm.015625 1.515625c1.84375 0 2.953125 1.515625 2.953125 4.078125 0 2.4375-1.140625 3.953125-2.953125 3.953125-1.828125 0-2.953125-1.515625-2.953125-4.015625s1.125-4.015625 2.953125-4.015625zm-.578125-4.984375h-2.046875v2.03125h2.046875zm3.203125 0h-2.046875v2.03125h2.046875zm0 0"/></symbol><symbol id="U" overflow="visible"><path d="m3-14.359375h-1.65625v14.359375h1.65625zm0 0"/></symbol><symbol id="V" overflow="visible"><path d="m2.78125-14.359375h-1.640625v14.359375h1.640625v-4.015625l1.59375-1.578125 3.484375 5.59375h2.03125l-4.21875-6.75 3.578125-3.5625h-2.109375l-4.359375 4.359375zm0 0"/></symbol><symbol id="W" overflow="visible"><path d="m7.953125-10.3125v1.5c-.828125-1.25-1.734375-1.796875-3.03125-1.796875-2.5 0-4.234375 2.328125-4.234375 5.625 0 1.734375.421875 3 1.296875 4.046875.765625.890625 1.75 1.390625 2.8125 1.390625 1.25 0 2.140625-.546875 3-1.84375v.53125c0 2.75-.765625 3.765625-2.8125 3.765625-1.40625 0-2.125-.546875-2.28125-1.71875h-1.671875c.15625 1.90625 1.671875 3.109375 3.90625 3.109375 1.515625 0 2.78125-.5 3.453125-1.328125.78125-.953125 1.078125-2.234375 1.078125-4.65625v-8.625zm-2.875 1.21875c1.734375 0 2.71875 1.453125 2.71875 4.078125 0 2.5-1 3.953125-2.71875 3.953125-1.6875 0-2.671875-1.484375-2.671875-4.015625 0-2.515625.984375-4.015625 2.671875-4.015625zm0 0"/></symbol><symbol id="X" overflow="visible"><path d="m4.234375-10.3125h-2.046875v2.046875h2.046875zm-2.0625 8.265625v2.046875h1.171875v.359375c0 1.359375-.25 1.75-1.171875 1.78125v.75c1.296875.046875 2.0625-.90625 2.0625-2.578125v-2.359375zm0 0"/></symbol><symbol id="Y" overflow="visible"><path d="m9.328125-4.3125 1.484375 4.3125h2.046875l-5.046875-14.359375h-2.359375l-5.125 14.359375h1.953125l1.515625-4.3125zm-.515625-1.53125h-4.5625l2.359375-6.546875zm0 0"/></symbol><symbol id="Z" overflow="visible"><path d="m7.640625-10.3125-2.859375 8.03125-2.640625-8.03125h-1.75l3.484375 10.359375-.625 1.625c-.28125.734375-.625 1-1.328125 1-.265625 0-.5-.03125-.859375-.109375v1.46875c.328125.1875.671875.265625 1.109375.265625.53125 0 1.09375-.1875 1.53125-.5.515625-.375.8125-.796875 1.125-1.625l4.578125-12.484375zm0 0"/></symbol><symbol id="aa" overflow="visible"><path d="m1.375-10.3125v10.3125h1.65625v-5.6875c0-2.109375 1.109375-3.484375 2.796875-3.484375 1.296875 0 2.125.78125 2.125 2.03125v7.140625h1.640625v-7.796875c0-1.71875-1.28125-2.8125-3.28125-2.8125-1.53125 0-2.515625.59375-3.421875 2.03125v-1.734375zm0 0"/></symbol><symbol id="ab" overflow="visible"><path d="m8.71875-10.3125h-7.6875v1.4375h5.734375l-6.15625 7.40625v1.46875h8.390625v-1.4375h-6.40625l6.125-7.421875zm0 0"/></symbol><symbol id="ac" overflow="visible"><path d="m1.375-14.359375v14.359375h1.640625v-5.6875c0-2.109375 1.09375-3.484375 2.796875-3.484375.546875 0 1.0625.15625 1.453125.453125.46875.359375.671875.84375.671875 1.578125v7.140625h1.625v-7.796875c0-1.734375-1.234375-2.8125-3.25-2.8125-1.453125 0-2.328125.453125-3.296875 1.703125v-5.453125zm0 0"/></symbol><symbol id="ad" overflow="visible"><path d="m10.09375-4.609375c0-1.578125-.109375-2.515625-.40625-3.28125-.671875-1.703125-2.25-2.71875-4.171875-2.71875-2.875 0-4.734375 2.1875-4.734375 5.59375s1.78125 5.46875 4.6875 5.46875c2.359375 0 4-1.34375 4.421875-3.578125h-1.65625c-.453125 1.359375-1.390625 2.0625-2.703125 2.0625-1.046875 0-1.921875-.46875-2.484375-1.34375-.390625-.59375-.53125-1.171875-.546875-2.203125zm-7.546875-1.34375c.125-1.90625 1.296875-3.140625 2.953125-3.140625 1.671875 0 2.828125 1.296875 2.828125 3.140625zm3.515625-8.609375-1.890625 2.90625h1.1875l2.921875-2.90625zm0 0"/></symbol><symbol id="ae" overflow="visible"><path d="m1.0625 4.296875h1.65625v-5.375c.859375 1.0625 1.828125 1.53125 3.171875 1.53125 2.671875 0 4.40625-2.140625 4.40625-5.4375 0-3.46875-1.6875-5.625-4.4375-5.625-1.390625 0-2.515625.625-3.28125 1.84375v-1.546875h-1.515625zm4.53125-13.375c1.8125 0 2.984375 1.59375 2.984375 4.0625 0 2.34375-1.203125 3.9375-2.984375 3.9375-1.75 0-2.875-1.578125-2.875-4s1.125-4 2.875-4zm0 0"/></symbol><symbol id="af" overflow="visible"><path d="m5.359375-10.609375c-2.921875 0-4.65625 2.0625-4.65625 5.53125 0 3.484375 1.734375 5.53125 4.671875 5.53125 2.90625 0 4.671875-2.0625 4.671875-5.453125 0-3.578125-1.703125-5.609375-4.6875-5.609375zm.015625 1.515625c1.84375 0 2.953125 1.515625 2.953125 4.078125 0 2.4375-1.140625 3.953125-2.953125 3.953125-1.828125 0-2.953125-1.515625-2.953125-4.015625s1.125-4.015625 2.953125-4.015625zm.484375-5.46875-1.875 2.90625h1.171875l2.9375-2.90625zm0 0"/></symbol><symbol id="ag" overflow="visible"><path d="m3.765625-2.046875h-2.046875v2.046875h2.046875zm0 0"/></symbol><symbol id="ah" overflow="visible"><path d="m3.390625-5.015625 2.34375-2.34375 5.046875 7.359375h2.171875l-5.90625-8.5 5.84375-5.859375h-2.359375l-7.140625 7.265625v-7.265625h-1.828125v14.359375h1.828125zm0 0"/></symbol><symbol id="ai" overflow="visible"><path d="m9.484375 0v-10.3125h-1.625v5.84375c0 2.109375-1.109375 3.484375-2.8125 3.484375-1.3125 0-2.140625-.78125-2.140625-2.03125v-7.296875h-1.625v7.953125c0 1.703125 1.28125 2.8125 3.28125 2.8125 1.515625 0 2.484375-.53125 3.453125-1.890625v1.4375zm-4.65625-14.078125h-2.046875v2.03125h2.046875zm3.1875 0h-2.046875v2.03125h2.046875zm0 0"/></symbol><symbol id="aj" overflow="visible"><path d="m4.171875-8.578125v8.578125h2.453125v-12.421875h-1.625c-.390625 1.46875-1.671875 2.21875-3.8125 2.21875v1.625zm0 0"/></symbol><symbol id="ak" overflow="visible"><path d="m3.75-2.5625h-2.625v2.5625h2.625zm0 0"/></symbol><g clip-path="url(#a)"><path d="m3.007812 3443.639063h5946.757813" fill="none" stroke="#000" stroke-linecap="round" stroke-miterlimit="10" stroke-width="6.00947" transform="matrix(.1 0 0 -.1 0 398.36)"/></g><g clip-path="url(#b)"><path d="m3.007812 3523.326563h5946.757813" fill="none" stroke="#000" stroke-linecap="round" stroke-miterlimit="10" stroke-width="6.00947" transform="matrix(.1 0 0 -.1 0 398.36)"/></g><g clip-path="url(#c)"><path d="m3.007812 3603.014063h5946.757813" fill="none" stroke="#000" stroke-linecap="round" stroke-miterlimit="10" stroke-width="6.00947" transform="matrix(.1 0 0 -.1 0 398.36)"/></g><g clip-path="url(#d)"><path d="m3.007812 3682.740625h5946.757813" fill="none" stroke="#000" stroke-linecap="round" stroke-miterlimit="10" stroke-width="6.00947" transform="matrix(.1 0 0 -.1 0 398.36)"/></g><g clip-path="url(#e)"><path d="m3.007812 3762.428125h5946.757813" fill="none" stroke="#000" stroke-linecap="round" stroke-miterlimit="10" stroke-width="6.00947" transform="matrix(.1 0 0 -.1 0 398.36)"/></g><g clip-path="url(#f)"><path d="m5947.03125 3443.639063v318.789062" fill="none" stroke="#000" stroke-miterlimit="10" stroke-width="11.4132" transform="matrix(.1 0 0 -.1 0 398.36)"/></g><path d="m3248.28125 3740.514063h7.421875v22.929687h-7.421875zm0 0" fill="none" stroke="#000" stroke-linejoin="round" stroke-miterlimit="10" stroke-width="3.98506" transform="matrix(.1 0 0 -.1 0 398.36)"/><path d="m324.828125 24.308594h.742187v-2.292969h-.742187zm0 0"/><path d="m3248.28125 3660.826563h7.421875v43.828125h-7.421875zm0 0" fill="none" stroke="#000" stroke-linejoin="round" stroke-miterlimit="10" stroke-width="3.98506" transform="matrix(.1 0 0 -.1 0 398.36)"/><path d="m324.828125 32.277344h.742187v-4.382813h-.742187zm0 0"/><path d="m3248.28125 3581.1h7.421875v43.828125h-7.421875zm0 0" fill="none" stroke="#000" stroke-linejoin="round" stroke-miterlimit="10" stroke-width="3.98506" transform="matrix(.1 0 0 -.1 0 398.36)"/><path d="m324.828125 40.25h.742187v-4.382812h-.742187zm0 0"/><path d="m3248.28125 3501.4125h7.421875v43.828125h-7.421875zm0 0" fill="none" stroke="#000" stroke-linejoin="round" stroke-miterlimit="10" stroke-width="3.98506" transform="matrix(.1 0 0 -.1 0 398.36)"/><path d="m324.828125 48.21875h.742187v-4.382812h-.742187zm0 0"/><path d="m3248.28125 3442.623438h7.421875v22.929687h-7.421875zm0 0" fill="none" stroke="#000" stroke-linejoin="round" stroke-miterlimit="10" stroke-width="3.98506" transform="matrix(.1 0 0 -.1 0 398.36)"/><path d="m324.828125 54.097656h.742187v-2.292968h-.742187zm0 0"/><use x="416.89" xlink:href="#y" y="46.027"/><use x="408.9982" xlink:href="#D" y="81.8926"/><use x="419.882994" xlink:href="#E" y="81.8926"/><use x="430.767787" xlink:href="#F" y="81.8926"/><path d="m4267.148438 3540.982813h3.828124v219.453125h-3.828124zm0 0" fill="none" stroke="#000" stroke-linejoin="round" stroke-miterlimit="10" stroke-width="3.98506" transform="matrix(.1 0 0 -.1 0 398.36)"/><path d="m426.714844 44.261719h.382812v-21.945313h-.382812zm0 0"/><use x="372.525" xlink:href="#G" y="81.893"/><use x="383.409794" xlink:href="#H" y="81.893"/><use x="458.8047" xlink:href="#y" y="50.0125"/><use x="453.12384" xlink:href="#G" y="81.893"/><use x="464.008634" xlink:href="#I" y="81.893"/><path d="m4686.328125 3501.139063h3.789063v259.296875h-3.789063zm0 0" fill="none" stroke="#000" stroke-linejoin="round" stroke-miterlimit="10" stroke-width="3.98506" transform="matrix(.1 0 0 -.1 0 398.36)"/><path d="m468.628906 48.246094h.382813v-25.929688h-.382813zm0 0"/><path d="m3408.945312 3501.139063h3.828126v259.296875h-3.828126zm0 0" fill="none" stroke="#000" stroke-linejoin="round" stroke-miterlimit="10" stroke-width="3.98506" transform="matrix(.1 0 0 -.1 0 398.36)"/><path d="m340.894531 48.246094h.382813v-25.929688h-.382813zm0 0"/><use x="374.975" xlink:href="#y" y="42.042"/><use x="495.548" xlink:href="#J" y="81.8928"/><use x="505.412877" xlink:href="#K" y="81.8928"/><path d="m3848.007812 3580.865625h3.828126v179.570313h-3.828126zm0 0" fill="none" stroke="#000" stroke-linejoin="round" stroke-miterlimit="10" stroke-width="3.98506" transform="matrix(.1 0 0 -.1 0 398.36)"/><path d="m384.800781 40.273438h.382813v-17.957032h-.382813zm0 0"/><path d="m3408.945312 3745.31875h1281.210938v34.257813h-1281.210938zm0 0" fill="none" stroke="#000" stroke-linejoin="round" stroke-miterlimit="10" stroke-width="3.98506" transform="matrix(.1 0 0 -.1 0 398.36)"/><path d="m340.894531 23.828125h128.121094v-3.425781h-128.121094zm0 0"/><path d="m5210.195312 3218.873438h47.773438v3.007812h-47.773438zm0 0" fill="none" stroke="#000" stroke-linejoin="round" stroke-miterlimit="10" stroke-width="4.80598" transform="matrix(.1 0 0 -.1 0 398.36)"/><path d="m521.015625 76.472656h4.78125v-.300781h-4.78125zm0 0"/><path d="m4828.320312 3218.873438h47.773438v3.007812h-47.773438zm0 0" fill="none" stroke="#000" stroke-linejoin="round" stroke-miterlimit="10" stroke-width="4.80598" transform="matrix(.1 0 0 -.1 0 398.36)"/><path d="m482.832031 76.472656h4.777344v-.300781h-4.777344zm0 0"/><path d="m4417.65625 3218.873438h47.8125v3.007812h-47.8125zm0 0" fill="none" stroke="#000" stroke-linejoin="round" stroke-miterlimit="10" stroke-width="4.80598" transform="matrix(.1 0 0 -.1 0 398.36)"/><path d="m441.765625 76.472656h4.78125v-.300781h-4.78125zm0 0"/><path d="m3571.523438 3218.873438h47.8125v3.007812h-47.8125zm0 0" fill="none" stroke="#000" stroke-linejoin="round" stroke-miterlimit="10" stroke-width="4.80598" transform="matrix(.1 0 0 -.1 0 398.36)"/><path d="m357.152344 76.472656h4.78125v-.300781h-4.78125zm0 0"/><path d="m712.265625 3763.44375v-34.257812l1301.132813 111.953125v34.257812zm0 0" fill="none" stroke="#000" stroke-linejoin="round" stroke-miterlimit="10" stroke-width="3.98506" transform="matrix(.1 0 0 -.1 0 398.36)"/><path d="m71.226562 22.015625v3.425781l130.113282-11.195312v-3.425782zm0 0"/><path d="m1733.515625 3218.873438h47.773437v3.007812h-47.773437zm0 0" fill="none" stroke="#000" stroke-linejoin="round" stroke-miterlimit="10" stroke-width="4.80598" transform="matrix(.1 0 0 -.1 0 398.36)"/><path d="m173.351562 76.472656h4.777344v-.300781h-4.777344zm0 0"/><path d="m1290.78125 3218.873438h47.8125v3.007812h-47.8125zm0 0" fill="none" stroke="#000" stroke-linejoin="round" stroke-miterlimit="10" stroke-width="4.80598" transform="matrix(.1 0 0 -.1 0 398.36)"/><path d="m129.078125 76.472656h4.777344v-.300781h-4.777344zm0 0"/><path d="m5563.984375 3421.451563h3.828125v259.296875h-3.828125zm0 0" fill="none" stroke="#000" stroke-linejoin="round" stroke-miterlimit="10" stroke-width="3.98506" transform="matrix(.1 0 0 -.1 0 398.36)"/><path d="m556.398438 56.214844h.382812v-25.929688h-.382812zm0 0"/><use x="500.72" xlink:href="#y" y="53.997"/><path d="m5105.46875 3461.295313h3.828125v259.296875h-3.828125zm0 0" fill="none" stroke="#000" stroke-linejoin="round" stroke-miterlimit="10" stroke-width="3.98506" transform="matrix(.1 0 0 -.1 0 398.36)"/><path d="m510.546875 52.230469h.378906v-25.929688h-.378906zm0 0"/><use x="546.574" xlink:href="#y" y="57.982"/><use x="530.5174" xlink:href="#J" y="81.8925"/><use x="540.381886" xlink:href="#I" y="81.8925"/><use x="551.26668" xlink:href="#L" y="81.8925"/><use x="567.594452" xlink:href="#M" y="81.8925"/><use x="105.3064" xlink:href="#y" y="42.0417"/><use x="100.13531" xlink:href="#J" y="81.8925"/><use x="110.000175" xlink:href="#I" y="81.8925"/><path d="m1151.328125 3580.865625h3.828125v201.445313h-3.828125zm0 0" fill="none" stroke="#000" stroke-linejoin="round" stroke-miterlimit="10" stroke-width="3.98506" transform="matrix(.1 0 0 -.1 0 398.36)"/><path d="m115.132812 40.273438h.382813v-20.144532h-.382813zm0 0"/><use x="61.3992" xlink:href="#y" y="57.982"/><use x="6.3762" xlink:href="#z" y="46.0269"/><use x="35.0981" xlink:href="#A" y="38.05698"/><use x="45.8536" xlink:href="#N" y="81.89248"/><use x="60.140347" xlink:href="#O" y="81.89248"/><use x="71.025134" xlink:href="#L" y="81.89248"/><use x="23.2567" xlink:href="#aj" y="81.89248"/><use x="32.951605" xlink:href="#ak" y="81.89248"/><path d="m712.265625 3421.451563h3.828125v323.203125h-3.828125zm0 0" fill="none" stroke="#000" stroke-linejoin="round" stroke-miterlimit="10" stroke-width="3.98506" transform="matrix(.1 0 0 -.1 0 398.36)"/><path d="m71.226562 56.214844h.382813v-32.320313h-.382813zm0 0"/><use x="147.221" xlink:href="#y" y="42.042"/><use x="233.0433" xlink:href="#y" y="38.05723"/><use x="223.79096" xlink:href="#P" y="81.89273"/><use x="229.233552" xlink:href="#Q" y="81.89273"/><use x="240.118346" xlink:href="#R" y="81.89273"/><use x="247.262101" xlink:href="#P" y="81.89273"/><path d="m2332.421875 3339.342188h3.828125v246.015625h-3.828125zm0 0" fill="none" stroke="#000" stroke-linejoin="round" stroke-miterlimit="10" stroke-width="3.98506" transform="matrix(.1 0 0 -.1 0 398.36)"/><path d="m233.242188 64.425781h.382812v-24.601562h-.382812zm0 0"/><use x="278.776" xlink:href="#y" y="42.042"/><use x="267.0569" xlink:href="#L" y="81.8928"/><use x="283.384281" xlink:href="#K" y="81.8928"/><use x="294.269075" xlink:href="#R" y="81.8928"/><path d="m2886.015625 3580.865625h3.828125v259.296875h-3.828125zm0 0" fill="none" stroke="#000" stroke-linejoin="round" stroke-miterlimit="10" stroke-width="3.98506" transform="matrix(.1 0 0 -.1 0 398.36)"/><path d="m288.601562 40.273438h.382813v-25.925782h-.382813zm0 0"/><use x="331.068" xlink:href="#y" y="50.012"/><use x="325.98245" xlink:href="#S" y="81.8925"/><use x="331.254728" xlink:href="#T" y="81.8925"/><use x="342.139522" xlink:href="#U" y="81.8925"/><path d="m2009.53125 3660.553125h3.828125v195.390625h-3.828125zm0 0" fill="none" stroke="#000" stroke-linejoin="round" stroke-miterlimit="10" stroke-width="3.98506" transform="matrix(.1 0 0 -.1 0 398.36)"/><path d="m200.953125 32.304688h.382813v-19.539063h-.382813zm0 0"/><use x="142.05" xlink:href="#V" y="81.893"/><use x="151.914865" xlink:href="#K" y="81.893"/><use x="188.679463" xlink:href="#H" y="81.893"/><use x="193.101345" xlink:href="#W" y="81.893"/><use x="191.1285" xlink:href="#y" y="34.0723"/><path d="m1570.46875 3580.865625h3.828125v237.382813h-3.828125zm0 0" fill="none" stroke="#000" stroke-linejoin="round" stroke-miterlimit="10" stroke-width="3.98506" transform="matrix(.1 0 0 -.1 0 398.36)"/><path d="m157.046875 40.273438h.382813v-23.738282h-.382813zm0 0"/><g clip-path="url(#g)"><path d="m3.007812 2487.19375h5946.757813" style="fill:none;stroke-width:6.00947;stroke-linecap:round;stroke-linejoin:round;stroke:#000;stroke-miterlimit:10" transform="matrix(.1 0 0 -.1 0 398.36)"/></g><g clip-path="url(#h)"><path d="m3.007812 2566.920313h5946.757813" style="fill:none;stroke-width:6.00947;stroke-linecap:round;stroke-linejoin:round;stroke:#000;stroke-miterlimit:10" transform="matrix(.1 0 0 -.1 0 398.36)"/></g><g clip-path="url(#i)"><path d="m3.007812 2646.607813h5946.757813" style="fill:none;stroke-width:6.00947;stroke-linecap:round;stroke-linejoin:round;stroke:#000;stroke-miterlimit:10" transform="matrix(.1 0 0 -.1 0 398.36)"/></g><g clip-path="url(#j)"><path d="m3.007812 2726.334375h5946.757813" style="fill:none;stroke-width:6.00947;stroke-linecap:round;stroke-linejoin:round;stroke:#000;stroke-miterlimit:10" transform="matrix(.1 0 0 -.1 0 398.36)"/></g><g clip-path="url(#k)"><path d="m3.007812 2806.021875h5946.757813" style="fill:none;stroke-width:6.00947;stroke-linecap:round;stroke-linejoin:round;stroke:#000;stroke-miterlimit:10" transform="matrix(.1 0 0 -.1 0 398.36)"/></g><g clip-path="url(#l)"><path d="m5947.03125 2487.19375v318.828125" fill="none" stroke="#000" stroke-linejoin="round" stroke-miterlimit="10" stroke-width="11.4132" transform="matrix(.1 0 0 -.1 0 398.36)"/></g><path d="m3266.484375 2784.107813h7.421875v22.929687h-7.421875zm0 0" fill="none" stroke="#000" stroke-linejoin="round" stroke-miterlimit="10" stroke-width="3.98506" transform="matrix(.1 0 0 -.1 0 398.36)"/><path d="m326.648438 119.949219h.742187v-2.292969h-.742187zm0 0"/><path d="m3266.484375 2704.38125h7.421875v43.867188h-7.421875zm0 0" fill="none" stroke="#000" stroke-linejoin="round" stroke-miterlimit="10" stroke-width="3.98506" transform="matrix(.1 0 0 -.1 0 398.36)"/><path d="m326.648438 127.921875h.742187v-4.382813h-.742187zm0 0"/><path d="m3266.484375 2624.69375h7.421875v43.828125h-7.421875zm0 0" fill="none" stroke="#000" stroke-linejoin="round" stroke-miterlimit="10" stroke-width="3.98506" transform="matrix(.1 0 0 -.1 0 398.36)"/><path d="m326.648438 135.890625h.742187v-4.382813h-.742187zm0 0"/><path d="m3266.484375 2545.00625h7.421875v43.828125h-7.421875zm0 0" fill="none" stroke="#000" stroke-linejoin="round" stroke-miterlimit="10" stroke-width="3.98506" transform="matrix(.1 0 0 -.1 0 398.36)"/><path d="m326.648438 143.859375h.742187v-4.382813h-.742187zm0 0"/><path d="m3266.484375 2486.217188h7.421875v22.929687h-7.421875zm0 0" fill="none" stroke="#000" stroke-linejoin="round" stroke-miterlimit="10" stroke-width="3.98506" transform="matrix(.1 0 0 -.1 0 398.36)"/><path d="m326.648438 149.738281h.742187v-2.292969h-.742187zm0 0"/><use x="366.581" xlink:href="#B" y="133.699"/><use x="416.9419" xlink:href="#y" y="129.71384"/><use x="408.53956" xlink:href="#R" y="177.53454"/><use x="415.002846" xlink:href="#T" y="177.53454"/><use x="425.887639" xlink:href="#V" y="177.53454"/><path d="m4171.40625 2457.19375h3.828125v211.601563h-3.828125zm0 0" fill="none" stroke="#000" stroke-linejoin="round" stroke-miterlimit="10" stroke-width="3.98506" transform="matrix(.1 0 0 -.1 0 398.36)"/><path d="m417.140625 152.640625h.382813v-21.160156h-.382813zm0 0"/><use x="458.967" xlink:href="#y" y="129.714"/><use x="456.517" xlink:href="#U" y="177.5347"/><use x="460.938894" xlink:href="#Q" y="177.5347"/><path d="m4591.640625 2472.935938h3.828125v195.859375h-3.828125zm0 0" fill="none" stroke="#000" stroke-linejoin="round" stroke-miterlimit="10" stroke-width="3.98506" transform="matrix(.1 0 0 -.1 0 398.36)"/><path d="m459.164062 151.066406h.382813v-19.585937h-.382813zm0 0"/><path d="m779.101562 2262.467188h47.8125v3.007812h-47.8125zm0 0" fill="none" stroke="#000" stroke-linejoin="round" stroke-miterlimit="10" stroke-width="4.80598" transform="matrix(.1 0 0 -.1 0 398.36)"/><path d="m77.910156 172.113281h4.78125v-.300781h-4.78125zm0 0"/><use x="374.918" xlink:href="#y" y="133.699"/><use x="374.678937" xlink:href="#T" y="177.5345"/><path d="m3751.171875 2441.490625h3.828125v187.460938h-3.828125zm0 0" fill="none" stroke="#000" stroke-linejoin="round" stroke-miterlimit="10" stroke-width="3.98506" transform="matrix(.1 0 0 -.1 0 398.36)"/><path d="m375.117188 154.210938h.382812v-18.746094h-.382812zm0 0"/><path d="m3330.9375 2440.7875v-34.296875l1264.570312 47.460938v34.296875zm0 0" fill="none" stroke="#000" stroke-linejoin="round" stroke-miterlimit="10" stroke-width="3.98506" transform="matrix(.1 0 0 -.1 0 398.36)"/><path d="m333.09375 154.28125v3.429688l126.457031-4.746094v-3.429688zm0 0"/><path d="m5212.890625 2262.467188h47.8125v3.007812h-47.8125zm0 0" fill="none" stroke="#000" stroke-linejoin="round" stroke-miterlimit="10" stroke-width="4.80598" transform="matrix(.1 0 0 -.1 0 398.36)"/><path d="m521.289062 172.113281h4.78125v-.300781h-4.78125zm0 0"/><path d="m4814.335938 2262.467188h47.773437v3.007812h-47.773437zm0 0" fill="none" stroke="#000" stroke-linejoin="round" stroke-miterlimit="10" stroke-width="4.80598" transform="matrix(.1 0 0 -.1 0 398.36)"/><path d="m481.429688 172.113281h4.78125v-.300781h-4.78125zm0 0"/><path d="m3946.601562 2262.467188h47.8125v3.007812h-47.8125zm0 0" fill="none" stroke="#000" stroke-linejoin="round" stroke-miterlimit="10" stroke-width="4.80598" transform="matrix(.1 0 0 -.1 0 398.36)"/><path d="m394.660156 172.113281h4.78125v-.300781h-4.78125zm0 0"/><path d="m712.265625 2886.725v-34.257812l1314.53125-47.460938v34.257813zm0 0" fill="none" stroke="#000" stroke-linejoin="round" stroke-miterlimit="10" stroke-width="3.98506" transform="matrix(.1 0 0 -.1 0 398.36)"/><path d="m71.226562 109.6875v3.425781l131.453126 4.746094v-3.425781zm0 0"/><path d="m2573.203125 2262.467188h47.8125v3.007812h-47.8125zm0 0" fill="none" stroke="#000" stroke-linejoin="round" stroke-miterlimit="10" stroke-width="4.80598" transform="matrix(.1 0 0 -.1 0 398.36)"/><path d="m257.320312 172.113281h4.78125v-.300781h-4.78125zm0 0"/><path d="m2149.375 2262.467188h47.773438v3.007812h-47.773438zm0 0" fill="none" stroke="#000" stroke-linejoin="round" stroke-miterlimit="10" stroke-width="4.80598" transform="matrix(.1 0 0 -.1 0 398.36)"/><path d="m214.9375 172.113281h4.777344v-.300781h-4.777344zm0 0"/><path d="m1769.960938 2262.467188h47.773437v3.007812h-47.773437zm0 0" fill="none" stroke="#000" stroke-linejoin="round" stroke-miterlimit="10" stroke-width="4.80598" transform="matrix(.1 0 0 -.1 0 398.36)"/><path d="m176.996094 172.113281h4.777344v-.300781h-4.777344zm0 0"/><use x="530.79" xlink:href="#J" y="177.534"/><use x="540.654877" xlink:href="#I" y="177.534"/><use x="551.539671" xlink:href="#L" y="177.534"/><use x="567.867052" xlink:href="#X" y="177.534"/><use x="500.9908" xlink:href="#y" y="133.6985"/><use x="495.81971" xlink:href="#V" y="177.534"/><use x="505.684196" xlink:href="#K" y="177.534"/><path d="m5011.914062 2382.935938h3.828126v246.015625h-3.828126zm0 0" fill="none" stroke="#000" stroke-linejoin="round" stroke-miterlimit="10" stroke-width="3.98506" transform="matrix(.1 0 0 -.1 0 398.36)"/><path d="m501.191406 160.066406h.382813v-24.601562h-.382813zm0 0"/><use x="546.847" xlink:href="#y" y="137.683"/><path d="m5566.71875 2624.420313h3.828125v259.296875h-3.828125zm0 0" fill="none" stroke="#000" stroke-linejoin="round" stroke-miterlimit="10" stroke-width="3.98506" transform="matrix(.1 0 0 -.1 0 398.36)"/><path d="m556.671875 135.917969h.382813v-25.929688h-.382813zm0 0"/><use x="61.3992" xlink:href="#y" y="137.683"/><use x="60.05545" xlink:href="#Y" y="177.5338"/><path d="m712.265625 2624.420313h3.828125v243.046875h-3.828125zm0 0" fill="none" stroke="#000" stroke-linejoin="round" stroke-miterlimit="10" stroke-width="3.98506" transform="matrix(.1 0 0 -.1 0 398.36)"/><path d="m71.226562 135.917969h.382813v-24.304688h-.382813zm0 0"/><use x="103.424" xlink:href="#y" y="137.683"/><use x="87.4525" xlink:href="#P" y="177.5338"/><use x="93.23493" xlink:href="#Z" y="177.5338"/><use x="102.589637" xlink:href="#K" y="177.5338"/><use x="113.474418" xlink:href="#L" y="177.5338"/><path d="m1132.5 2624.420313h3.828125v227.890625h-3.828125zm0 0" fill="none" stroke="#000" stroke-linejoin="round" stroke-miterlimit="10" stroke-width="3.98506" transform="matrix(.1 0 0 -.1 0 398.36)"/><path d="m113.25 135.917969h.382812v-22.789063h-.382812zm0 0"/><path d="m3330.9375 2425.7875h3.828125v163.320313h-3.828125zm0 0" fill="none" stroke="#000" stroke-linejoin="round" stroke-miterlimit="10" stroke-width="3.98506" transform="matrix(.1 0 0 -.1 0 398.36)"/><path d="m333.09375 155.78125h.378906v-16.332031h-.378906zm0 0"/><use x="150.447" xlink:href="#y" y="141.669"/><use x="6.376284" xlink:href="#z" y="141.669"/><use x="35.098" xlink:href="#A" y="133.69908"/><use x="280.473" xlink:href="#y" y="137.68385"/><use x="234.4964" xlink:href="#y" y="141.66901"/><use x="229.32492" xlink:href="#V" y="177.53461"/><use x="239.189382" xlink:href="#K" y="177.53461"/><path d="m2443.203125 2584.576563h3.828125v259.296875h-3.828125zm0 0" fill="none" stroke="#000" stroke-linejoin="round" stroke-miterlimit="10" stroke-width="3.98506" transform="matrix(.1 0 0 -.1 0 398.36)"/><path d="m244.320312 139.902344h.382813v-25.929688h-.382813zm0 0"/><path d="m1602.734375 2584.576563h3.828125v250.820312h-3.828125zm0 0" fill="none" stroke="#000" stroke-linejoin="round" stroke-miterlimit="10" stroke-width="3.98506" transform="matrix(.1 0 0 -.1 0 398.36)"/><path d="m160.273438 139.902344h.382812v-25.082032h-.382812zm0 0"/><use x="269.349" xlink:href="#D" y="177.534"/><use x="280.233794" xlink:href="#Q" y="177.534"/><use x="291.118587" xlink:href="#aa" y="177.534"/><path d="m2902.96875 2624.420313h3.828125v259.296875h-3.828125zm0 0" fill="none" stroke="#000" stroke-linejoin="round" stroke-miterlimit="10" stroke-width="3.98506" transform="matrix(.1 0 0 -.1 0 398.36)"/><path d="m290.296875 135.917969h.382813v-25.929688h-.382813zm0 0"/><use x="332.893" xlink:href="#y" y="137.683"/><use x="320.5782" xlink:href="#U" y="177.5338"/><use x="325.000094" xlink:href="#O" y="177.5338"/><use x="335.884888" xlink:href="#J" y="177.5338"/><use x="345.74974" xlink:href="#ab" y="177.5338"/><use x="142.554741" xlink:href="#ac" y="177.5338"/><use x="153.439522" xlink:href="#Q" y="177.5338"/><use x="164.324303" xlink:href="#F" y="177.5338"/><use x="192.4712" xlink:href="#y" y="145.6533"/><path d="m2022.96875 2544.732813h3.828125v275.546875h-3.828125zm0 0" fill="none" stroke="#000" stroke-linejoin="round" stroke-miterlimit="10" stroke-width="3.98506" transform="matrix(.1 0 0 -.1 0 398.36)"/><path d="m202.296875 143.886719h.382813v-27.554688h-.382813zm0 0"/><use x="190.022" xlink:href="#U" y="177.534"/><use x="194.443882" xlink:href="#ad" y="177.534"/><g clip-path="url(#m)"><path d="m3.007812 1530.7875h5946.757813" style="fill:none;stroke-width:6.00947;stroke-linecap:round;stroke-linejoin:round;stroke:#000;stroke-miterlimit:10" transform="matrix(.1 0 0 -.1 0 398.36)"/></g><g clip-path="url(#n)"><path d="m3.007812 1610.514063h5946.757813" style="fill:none;stroke-width:6.00947;stroke-linecap:round;stroke-linejoin:round;stroke:#000;stroke-miterlimit:10" transform="matrix(.1 0 0 -.1 0 398.36)"/></g><g clip-path="url(#o)"><path d="m3.007812 1690.201563h5946.757813" style="fill:none;stroke-width:6.00947;stroke-linecap:round;stroke-linejoin:round;stroke:#000;stroke-miterlimit:10" transform="matrix(.1 0 0 -.1 0 398.36)"/></g><g clip-path="url(#p)"><path d="m3.007812 1769.889063h5946.757813" style="fill:none;stroke-width:6.00947;stroke-linecap:round;stroke-linejoin:round;stroke:#000;stroke-miterlimit:10" transform="matrix(.1 0 0 -.1 0 398.36)"/></g><g clip-path="url(#q)"><path d="m3.007812 1849.615625h5946.757813" style="fill:none;stroke-width:6.00947;stroke-linecap:round;stroke-linejoin:round;stroke:#000;stroke-miterlimit:10" transform="matrix(.1 0 0 -.1 0 398.36)"/></g><g clip-path="url(#r)"><path d="m5947.03125 1530.7875v318.828125" fill="none" stroke="#000" stroke-linejoin="round" stroke-miterlimit="10" stroke-width="11.4132" transform="matrix(.1 0 0 -.1 0 398.36)"/></g><path d="m3237.34375 1827.701563h7.460938v22.929687h-7.460938zm0 0" fill="none" stroke="#000" stroke-linejoin="round" stroke-miterlimit="10" stroke-width="3.98506" transform="matrix(.1 0 0 -.1 0 398.36)"/><path d="m323.734375 215.59375h.746094v-2.292969h-.746094zm0 0"/><path d="m3237.34375 1747.975h7.460938v43.828125h-7.460938zm0 0" fill="none" stroke="#000" stroke-linejoin="round" stroke-miterlimit="10" stroke-width="3.98506" transform="matrix(.1 0 0 -.1 0 398.36)"/><path d="m323.734375 223.5625h.746094v-4.382812h-.746094zm0 0"/><path d="m3237.34375 1668.2875h7.460938v43.828125h-7.460938zm0 0" fill="none" stroke="#000" stroke-linejoin="round" stroke-miterlimit="10" stroke-width="3.98506" transform="matrix(.1 0 0 -.1 0 398.36)"/><path d="m323.734375 231.53125h.746094v-4.382812h-.746094zm0 0"/><path d="m3237.34375 1588.560938h7.460938v43.867187h-7.460938zm0 0" fill="none" stroke="#000" stroke-linejoin="round" stroke-miterlimit="10" stroke-width="3.98506" transform="matrix(.1 0 0 -.1 0 398.36)"/><path d="m323.734375 239.503906h.746094v-4.386718h-.746094zm0 0"/><path d="m3237.34375 1529.771875h7.460938v22.96875h-7.460938zm0 0" fill="none" stroke="#000" stroke-linejoin="round" stroke-miterlimit="10" stroke-width="3.98506" transform="matrix(.1 0 0 -.1 0 398.36)"/><path d="m323.734375 245.382812h.746094v-2.292968h-.746094zm0 0"/><use x="414.75" xlink:href="#y" y="229.34"/><use x="408.89922" xlink:href="#I" y="273.3127"/><use x="419.614091" xlink:href="#P" y="273.3127"/><use x="425.566841" xlink:href="#P" y="273.3127"/><path d="m4245.78125 1707.857813h3.828125v203.320312h-3.828125zm0 0" fill="none" stroke="#000" stroke-linejoin="round" stroke-miterlimit="10" stroke-width="3.98506" transform="matrix(.1 0 0 -.1 0 398.36)"/><path d="m424.578125 227.574219h.382813v-20.332031h-.382813zm0 0"/><use x="457.128" xlink:href="#y" y="233.325"/><use x="454.678" xlink:href="#ae" y="273.3125"/><use x="465.562794" xlink:href="#H" y="273.3125"/><path d="m4669.53125 1668.014063h3.828125v243.164062h-3.828125zm0 0" fill="none" stroke="#000" stroke-linejoin="round" stroke-miterlimit="10" stroke-width="3.98506" transform="matrix(.1 0 0 -.1 0 398.36)"/><path d="m466.953125 231.558594h.382813v-24.316406h-.382813zm0 0"/><path d="m3398.203125 1668.014063h3.828125v243.164062h-3.828125zm0 0" fill="none" stroke="#000" stroke-linejoin="round" stroke-miterlimit="10" stroke-width="3.98506" transform="matrix(.1 0 0 -.1 0 398.36)"/><path d="m339.820312 231.558594h.382813v-24.316406h-.382813zm0 0"/><use x="372.373" xlink:href="#y" y="233.325"/><use x="360.0585" xlink:href="#U" y="273.3125"/><use x="364.480394" xlink:href="#O" y="273.3125"/><use x="375.365188" xlink:href="#J" y="273.3125"/><use x="385.22965" xlink:href="#ab" y="273.3125"/><path d="m3821.992188 1668.014063h3.828124v243.164062h-3.828124zm0 0" fill="none" stroke="#000" stroke-linejoin="round" stroke-miterlimit="10" stroke-width="3.98506" transform="matrix(.1 0 0 -.1 0 398.36)"/><path d="m382.199219 231.558594h.382812v-24.316406h-.382812zm0 0"/><path d="m3398.203125 1896.060938h1275.15625v34.257812h-1275.15625zm0 0" fill="none" stroke="#000" stroke-linejoin="round" stroke-miterlimit="10" stroke-width="3.98506" transform="matrix(.1 0 0 -.1 0 398.36)"/><path d="m339.820312 208.753906h127.515626v-3.425781h-127.515626zm0 0"/><path d="m5284.84375 1304.69375h47.773438v3.007813h-47.773438zm0 0" fill="none" stroke="#000" stroke-linejoin="round" stroke-miterlimit="10" stroke-width="4.80598" transform="matrix(.1 0 0 -.1 0 398.36)"/><path d="m528.484375 267.890625h4.777344v-.300781h-4.777344zm0 0"/><path d="m4767.929688 1304.69375h47.8125v3.007813h-47.8125zm0 0" fill="none" stroke="#000" stroke-linejoin="round" stroke-miterlimit="10" stroke-width="4.80598" transform="matrix(.1 0 0 -.1 0 398.36)"/><path d="m476.792969 267.890625h4.78125v-.300781h-4.78125zm0 0"/><path d="m615.976562 1484.342188v-34.257813l1275.15625-16.132812v34.296875zm0 0" fill="none" stroke="#000" stroke-linejoin="round" stroke-miterlimit="10" stroke-width="3.98506" transform="matrix(.1 0 0 -.1 0 398.36)"/><path d="m61.597656 249.925781v3.425781l127.515625 1.613282v-3.429688zm0 0"/><path d="m2571.289062 1304.69375h47.8125v3.007813h-47.8125zm0 0" fill="none" stroke="#000" stroke-linejoin="round" stroke-miterlimit="10" stroke-width="4.80598" transform="matrix(.1 0 0 -.1 0 398.36)"/><path d="m257.128906 267.890625h4.78125v-.300781h-4.78125zm0 0"/><path d="m2085.625 1304.69375h47.8125v3.007813h-47.8125zm0 0" fill="none" stroke="#000" stroke-linejoin="round" stroke-miterlimit="10" stroke-width="4.80598" transform="matrix(.1 0 0 -.1 0 398.36)"/><path d="m208.5625 267.890625h4.78125v-.300781h-4.78125zm0 0"/><path d="m1698.59375 1304.69375h47.8125v3.007813h-47.8125zm0 0" fill="none" stroke="#000" stroke-linejoin="round" stroke-miterlimit="10" stroke-width="4.80598" transform="matrix(.1 0 0 -.1 0 398.36)"/><path d="m169.859375 267.890625h4.78125v-.300781h-4.78125zm0 0"/><path d="m1332.65625 1304.69375h47.773438v3.007813h-47.773438zm0 0" fill="none" stroke="#000" stroke-linejoin="round" stroke-miterlimit="10" stroke-width="4.80598" transform="matrix(.1 0 0 -.1 0 398.36)"/><path d="m133.265625 267.890625h4.777344v-.300781h-4.777344zm0 0"/><path d="m5557.070312 1588.326563h3.828126v259.296875h-3.828126zm0 0" fill="none" stroke="#000" stroke-linejoin="round" stroke-miterlimit="10" stroke-width="3.98506" transform="matrix(.1 0 0 -.1 0 398.36)"/><path d="m555.703125 239.527344h.382813v-25.929688h-.382813zm0 0"/><use x="499.506" xlink:href="#y" y="237.31"/><use x="488.3818" xlink:href="#ac" y="273.3123"/><use x="499.266594" xlink:href="#O" y="273.3123"/><use x="510.151778" xlink:href="#aa" y="273.3123"/><path d="m5093.320312 1628.170313h3.828126v259.296875h-3.828126zm0 0" fill="none" stroke="#000" stroke-linejoin="round" stroke-miterlimit="10" stroke-width="3.98506" transform="matrix(.1 0 0 -.1 0 398.36)"/><path d="m509.332031 235.542969h.382813v-25.929688h-.382813zm0 0"/><use x="545.88" xlink:href="#y" y="241.295"/><use x="540.7093" xlink:href="#aa" y="273.3122"/><use x="551.594094" xlink:href="#H" y="273.3122"/><use x="556.015597" xlink:href="#M" y="273.3122"/><use x="61.3993" xlink:href="#y" y="225.3548"/><use x="60.05555" xlink:href="#Y" y="273.3122"/><path d="m615.976562 1469.185938h3.828126v243.203125h-3.828126zm0 0" fill="none" stroke="#000" stroke-linejoin="round" stroke-miterlimit="10" stroke-width="3.98506" transform="matrix(.1 0 0 -.1 0 398.36)"/><path d="m61.597656 251.445312h.382813v-24.324218h-.382813zm0 0"/><use x="103.777" xlink:href="#y" y="225.355"/><use x="89.9321" xlink:href="#L" y="273.3124"/><use x="106.259469" xlink:href="#O" y="273.3124"/><use x="117.14425" xlink:href="#W" y="273.3124"/><path d="m1039.765625 1463.834375h3.828125v248.554688h-3.828125zm0 0" fill="none" stroke="#000" stroke-linejoin="round" stroke-miterlimit="10" stroke-width="3.98506" transform="matrix(.1 0 0 -.1 0 398.36)"/><path d="m103.976562 251.976562h.382813v-24.855468h-.382813zm0 0"/><use x="146.155" xlink:href="#y" y="225.355"/><use x="327.545" xlink:href="#F" y="273.3124"/><use x="331.966894" xlink:href="#af" y="273.3124"/><use x="6.376" xlink:href="#z" y="237.3101"/><use x="35.0979" xlink:href="#A" y="229.33979"/><use x="143.2799" xlink:href="#S" y="273.31249"/><use x="148.552178" xlink:href="#K" y="273.31249"/><use x="230.7885" xlink:href="#y" y="233.32499"/><use x="219.4948" xlink:href="#G" y="273.31249"/><use x="230.379594" xlink:href="#I" y="273.31249"/><use x="241.094856" xlink:href="#P" y="273.31249"/><use x="247.047606" xlink:href="#P" y="273.31249"/><path d="m2406.132812 1668.014063h3.828126v259.296875h-3.828126zm0 0" fill="none" stroke="#000" stroke-linejoin="round" stroke-miterlimit="10" stroke-width="3.98506" transform="matrix(.1 0 0 -.1 0 398.36)"/><path d="m240.613281 231.558594h.382813v-25.929688h-.382813zm0 0"/><use x="277.163" xlink:href="#y" y="237.31"/><use x="266.5493" xlink:href="#aa" y="273.3123"/><use x="277.434094" xlink:href="#Q" y="273.3123"/><use x="288.318887" xlink:href="#V" y="273.3123"/><path d="m2869.882812 1628.170313h3.828126v259.296875h-3.828126zm0 0" fill="none" stroke="#000" stroke-linejoin="round" stroke-miterlimit="10" stroke-width="3.98506" transform="matrix(.1 0 0 -.1 0 398.36)"/><path d="m286.988281 235.542969h.382813v-25.929688h-.382813zm0 0"/><use x="329.995" xlink:href="#y" y="233.325"/><path d="m1463.554688 1458.482813h3.828124v253.90625h-3.828124zm0 0" fill="none" stroke="#000" stroke-linejoin="round" stroke-miterlimit="10" stroke-width="3.98506" transform="matrix(.1 0 0 -.1 0 398.36)"/><path d="m146.355469 252.511719h.382812v-25.390625h-.382812zm0 0"/><path d="m1887.304688 1453.13125h3.828124v219.414063h-3.828124zm0 0" fill="none" stroke="#000" stroke-linejoin="round" stroke-miterlimit="10" stroke-width="3.98506" transform="matrix(.1 0 0 -.1 0 398.36)"/><path d="m188.730469 253.046875h.382812v-21.941406h-.382812zm0 0"/><use x="185.063" xlink:href="#R" y="273.312"/><use x="191.525907" xlink:href="#Q" y="273.312"/><use x="188.53331" xlink:href="#y" y="229.3393"/><g clip-path="url(#s)"><path d="m3.007812 574.38125h5946.757813" style="fill:none;stroke-width:6.00947;stroke-linecap:round;stroke-linejoin:round;stroke:#000;stroke-miterlimit:10" transform="matrix(.1 0 0 -.1 0 398.36)"/></g><g clip-path="url(#t)"><path d="m3.007812 654.06875h5946.757813" style="fill:none;stroke-width:6.00947;stroke-linecap:round;stroke-linejoin:round;stroke:#000;stroke-miterlimit:10" transform="matrix(.1 0 0 -.1 0 398.36)"/></g><g clip-path="url(#u)"><path d="m3.007812 733.795313h5946.757813" style="fill:none;stroke-width:6.00947;stroke-linecap:round;stroke-linejoin:round;stroke:#000;stroke-miterlimit:10" transform="matrix(.1 0 0 -.1 0 398.36)"/></g><g clip-path="url(#v)"><path d="m3.007812 813.482813h5946.757813" style="fill:none;stroke-width:6.00947;stroke-linecap:round;stroke-linejoin:round;stroke:#000;stroke-miterlimit:10" transform="matrix(.1 0 0 -.1 0 398.36)"/></g><g clip-path="url(#w)"><path d="m3.007812 893.209375h5946.757813" style="fill:none;stroke-width:6.00947;stroke-linecap:round;stroke-linejoin:round;stroke:#000;stroke-miterlimit:10" transform="matrix(.1 0 0 -.1 0 398.36)"/></g><g clip-path="url(#x)"><path d="m5934.726562 574.38125v318.828125" fill="none" stroke="#000" stroke-linejoin="round" stroke-miterlimit="10" stroke-width="36.0329" transform="matrix(.1 0 0 -.1 0 398.36)"/></g><path d="m5893.007812 574.38125v318.828125" fill="none" stroke="#000" stroke-linejoin="round" stroke-miterlimit="10" stroke-width="11.4132" transform="matrix(.1 0 0 -.1 0 398.36)"/><path d="m3214.960938 871.25625h7.460937v22.929688h-7.460937zm0 0" fill="none" stroke="#000" stroke-linejoin="round" stroke-miterlimit="10" stroke-width="3.98506" transform="matrix(.1 0 0 -.1 0 398.36)"/><path d="m321.496094 311.234375h.742187v-2.292969h-.742187zm0 0"/><path d="m3214.960938 791.56875h7.460937v43.828125h-7.460937zm0 0" fill="none" stroke="#000" stroke-linejoin="round" stroke-miterlimit="10" stroke-width="3.98506" transform="matrix(.1 0 0 -.1 0 398.36)"/><path d="m321.496094 319.203125h.742187v-4.382813h-.742187zm0 0"/><path d="m3214.960938 711.88125h7.460937v43.828125h-7.460937zm0 0" fill="none" stroke="#000" stroke-linejoin="round" stroke-miterlimit="10" stroke-width="3.98506" transform="matrix(.1 0 0 -.1 0 398.36)"/><path d="m321.496094 327.171875h.742187v-4.382813h-.742187zm0 0"/><path d="m3214.960938 632.154688h7.460937v43.867187h-7.460937zm0 0" fill="none" stroke="#000" stroke-linejoin="round" stroke-miterlimit="10" stroke-width="3.98506" transform="matrix(.1 0 0 -.1 0 398.36)"/><path d="m321.496094 335.144531h.742187v-4.382812h-.742187zm0 0"/><path d="m3214.960938 573.365625h7.460937v22.929688h-7.460937zm0 0" fill="none" stroke="#000" stroke-linejoin="round" stroke-miterlimit="10" stroke-width="3.98506" transform="matrix(.1 0 0 -.1 0 398.36)"/><path d="m321.496094 341.023438h.742187v-2.292969h-.742187zm0 0"/><use x="411.541" xlink:href="#y" y="332.9514"/><use x="400.9273" xlink:href="#U" y="368.8963"/><use x="405.349194" xlink:href="#I" y="368.8963"/><use x="416.233988" xlink:href="#L" y="368.8963"/><path d="m4213.671875 671.764063h3.828125v203.320312h-3.828125zm0 0" fill="none" stroke="#000" stroke-linejoin="round" stroke-miterlimit="10" stroke-width="3.98506" transform="matrix(.1 0 0 -.1 0 398.36)"/><path d="m421.367188 331.183594h.382812v-20.328125h-.382812zm0 0"/><use x="453.442" xlink:href="#y" y="336.9362"/><use x="449.97169" xlink:href="#R" y="368.8964"/><use x="456.434585" xlink:href="#Q" y="368.8964"/><path d="m4632.695312 631.920313h3.828126v243.164062h-3.828126zm0 0" fill="none" stroke="#000" stroke-linejoin="round" stroke-miterlimit="10" stroke-width="3.98506" transform="matrix(.1 0 0 -.1 0 398.36)"/><path d="m463.269531 335.167969h.382813v-24.3125h-.382813zm0 0"/><path d="m872.578125 348.834375h47.773437v3.007813h-47.773437zm0 0" fill="none" stroke="#000" stroke-linejoin="round" stroke-miterlimit="10" stroke-width="4.80598" transform="matrix(.1 0 0 -.1 0 398.36)"/><path d="m87.257812 363.476562h4.777344v-.300781h-4.777344zm0 0"/><use x="369.639" xlink:href="#y" y="336.9362"/><use x="364.04252" xlink:href="#W" y="368.8964"/><use x="374.757391" xlink:href="#Q" y="368.8964"/><path d="m3794.648438 631.920313h3.828124v243.164062h-3.828124zm0 0" fill="none" stroke="#000" stroke-linejoin="round" stroke-miterlimit="10" stroke-width="3.98506" transform="matrix(.1 0 0 -.1 0 398.36)"/><path d="m379.464844 335.167969h.382812v-24.3125h-.382812zm0 0"/><path d="m4388.789062 348.834375h47.773438v3.007813h-47.773438zm0 0" fill="none" stroke="#000" stroke-linejoin="round" stroke-miterlimit="10" stroke-width="4.80598" transform="matrix(.1 0 0 -.1 0 398.36)"/><path d="m438.878906 363.476562h4.777344v-.300781h-4.777344zm0 0"/><path d="m3375.625 859.928125h1260.898438v34.257813h-1260.898438zm0 0" fill="none" stroke="#000" stroke-linejoin="round" stroke-miterlimit="10" stroke-width="3.98506" transform="matrix(.1 0 0 -.1 0 398.36)"/><path d="m337.5625 312.367188h126.089844v-3.425782h-126.089844zm0 0"/><path d="m5208.203125 348.834375h47.8125v3.007813h-47.8125zm0 0" fill="none" stroke="#000" stroke-linejoin="round" stroke-miterlimit="10" stroke-width="4.80598" transform="matrix(.1 0 0 -.1 0 398.36)"/><path d="m520.820312 363.476562h4.78125v-.300781h-4.78125zm0 0"/><path d="m3908.945312 348.834375h47.773438v3.007813h-47.773438zm0 0" fill="none" stroke="#000" stroke-linejoin="round" stroke-miterlimit="10" stroke-width="4.80598" transform="matrix(.1 0 0 -.1 0 398.36)"/><path d="m390.894531 363.476562h4.777344v-.300781h-4.777344zm0 0"/><path d="m3539.257812 348.834375h47.773438v3.007813h-47.773438zm0 0" fill="none" stroke="#000" stroke-linejoin="round" stroke-miterlimit="10" stroke-width="4.80598" transform="matrix(.1 0 0 -.1 0 398.36)"/><path d="m353.925781 363.476562h4.777344v-.300781h-4.777344zm0 0"/><path d="m712.265625 973.9125v-34.296875l1266.992187-47.421875v34.257813zm0 0" fill="none" stroke="#000" stroke-linejoin="round" stroke-miterlimit="10" stroke-width="3.98506" transform="matrix(.1 0 0 -.1 0 398.36)"/><path d="m71.226562 300.96875v3.429688l126.699219 4.742187v-3.425781zm0 0"/><path d="m2512.734375 348.834375h47.773437v3.007813h-47.773437zm0 0" fill="none" stroke="#000" stroke-linejoin="round" stroke-miterlimit="10" stroke-width="4.80598" transform="matrix(.1 0 0 -.1 0 398.36)"/><path d="m251.273438 363.476562h4.777343v-.300781h-4.777343zm0 0"/><path d="m1752.8125 348.834375h47.773438v3.007813h-47.773438zm0 0" fill="none" stroke="#000" stroke-linejoin="round" stroke-miterlimit="10" stroke-width="4.80598" transform="matrix(.1 0 0 -.1 0 398.36)"/><path d="m175.277344 363.476562h4.78125v-.300781h-4.78125zm0 0"/><path d="m1274.257812 348.834375h47.773438v3.007813h-47.773438zm0 0" fill="none" stroke="#000" stroke-linejoin="round" stroke-miterlimit="10" stroke-width="4.80598" transform="matrix(.1 0 0 -.1 0 398.36)"/><path d="m127.425781 363.476562h4.777344v-.300781h-4.777344zm0 0"/><path d="m5510.078125 552.19375h3.828125v259.296875h-3.828125zm0 0" fill="none" stroke="#000" stroke-linejoin="round" stroke-miterlimit="10" stroke-width="3.98506" transform="matrix(.1 0 0 -.1 0 398.36)"/><path d="m551.007812 343.140625h.382813v-25.929687h-.382813zm0 0"/><use x="490.683" xlink:href="#U" y="368.8963"/><use x="495.104894" xlink:href="#O" y="368.8963"/><use x="505.989688" xlink:href="#U" y="368.8963"/><path d="m5051.71875 592.0375h3.828125v259.296875h-3.828125zm0 0" fill="none" stroke="#000" stroke-linejoin="round" stroke-miterlimit="10" stroke-width="3.98506" transform="matrix(.1 0 0 -.1 0 398.36)"/><path d="m505.171875 339.15625h.378906v-25.929688h-.378906zm0 0"/><use x="541.182" xlink:href="#y" y="344.9065"/><use x="546.38591" xlink:href="#C" y="306.6362"/><use x="536.01131" xlink:href="#aa" y="368.8964"/><use x="546.896104" xlink:href="#H" y="368.8964"/><use x="551.317998" xlink:href="#ag" y="368.8964"/><use x="495.34371" xlink:href="#y" y="340.9214"/><use x="103.91571" xlink:href="#y" y="328.9663"/><use x="61.399052" xlink:href="#y" y="328.9663"/><use x="49.93561" xlink:href="#ah" y="368.8964"/><use x="62.691884" xlink:href="#ai" y="368.8964"/><use x="73.406749" xlink:href="#ab" y="368.8964"/><path d="m712.265625 711.607813h3.828125v243.007812h-3.828125zm0 0" fill="none" stroke="#000" stroke-linejoin="round" stroke-miterlimit="10" stroke-width="3.98506" transform="matrix(.1 0 0 -.1 0 398.36)"/><path d="m71.226562 327.199219h.382813v-24.300781h-.382813zm0 0"/><use x="96.023" xlink:href="#G" y="368.8963"/><use x="106.907781" xlink:href="#O" y="368.8963"/><use x="117.792563" xlink:href="#U" y="368.8963"/><path d="m1137.421875 711.607813h3.828125v227.148437h-3.828125zm0 0" fill="none" stroke="#000" stroke-linejoin="round" stroke-miterlimit="10" stroke-width="3.98506" transform="matrix(.1 0 0 -.1 0 398.36)"/><path d="m113.742188 327.199219h.382812v-22.714844h-.382812zm0 0"/><use x="145.817" xlink:href="#y" y="332.9514"/><use x="137.41505" xlink:href="#L" y="368.8963"/><use x="153.742419" xlink:href="#O" y="368.8963"/><use x="6.37605" xlink:href="#z" y="332.9514"/><use x="35.09795" xlink:href="#A" y="324.98109"/><use x="267.05695" xlink:href="#P" y="368.89629"/><use x="272.499542" xlink:href="#K" y="368.89629"/><use x="283.384336" xlink:href="#aa" y="368.89629"/><use x="229.62145" xlink:href="#y" y="340.92129"/><use x="229.382387" xlink:href="#E" y="368.89629"/><path d="m2394.453125 592.0375h3.828125v259.296875h-3.828125zm0 0" fill="none" stroke="#000" stroke-linejoin="round" stroke-miterlimit="10" stroke-width="3.98506" transform="matrix(.1 0 0 -.1 0 398.36)"/><path d="m239.445312 339.15625h.382813v-25.929688h-.382813zm0 0"/><use x="275.46" xlink:href="#y" y="344.9065"/><path d="m2852.851562 552.19375h3.828126v259.296875h-3.828126zm0 0" fill="none" stroke="#000" stroke-linejoin="round" stroke-miterlimit="10" stroke-width="3.98506" transform="matrix(.1 0 0 -.1 0 398.36)"/><path d="m285.285156 343.140625h.382813v-25.929687h-.382813zm0 0"/><use x="327.737" xlink:href="#y" y="336.9362"/><use x="317.2936" xlink:href="#aa" y="368.8964"/><use x="327.83894" xlink:href="#Z" y="368.8964"/><use x="337.703402" xlink:href="#E" y="368.8964"/><path d="m3375.625 631.920313h3.828125v243.164062h-3.828125zm0 0" fill="none" stroke="#000" stroke-linejoin="round" stroke-miterlimit="10" stroke-width="3.98506" transform="matrix(.1 0 0 -.1 0 398.36)"/><path d="m337.5625 335.167969h.382812v-24.3125h-.382812zm0 0"/><path d="m1556.445312 671.764063h3.828126v251.328125h-3.828126zm0 0" fill="none" stroke="#000" stroke-linejoin="round" stroke-miterlimit="10" stroke-width="3.98506" transform="matrix(.1 0 0 -.1 0 398.36)"/><path d="m155.644531 331.183594h.382813v-25.132813h-.382813zm0 0"/><path d="m1975.46875 631.920313h3.789062v275.546875h-3.789062zm0 0" fill="none" stroke="#000" stroke-linejoin="round" stroke-miterlimit="10" stroke-width="3.98506" transform="matrix(.1 0 0 -.1 0 398.36)"/><path d="m197.546875 335.167969h.378906v-27.554688h-.378906zm0 0"/><use x="190.712" xlink:href="#H" y="368.8963"/><use x="187.71903" xlink:href="#y" y="336.9361"/></svg>