<svg height="872.29em" viewBox="0 0 595.28 872.29" width="595.28em" xmlns="http://www.w3.org/2000/svg" xmlns:xlink="http://www.w3.org/1999/xlink"><clipPath id="a"><path d="m0 93h595.28125v1h-595.28125zm0 0"/></clipPath><clipPath id="b"><path d="m0 81h595.28125v2h-595.28125zm0 0"/></clipPath><clipPath id="c"><path d="m0 69h595.28125v2h-595.28125zm0 0"/></clipPath><clipPath id="d"><path d="m0 58h595.28125v1h-595.28125zm0 0"/></clipPath><clipPath id="e"><path d="m0 46h595.28125v2h-595.28125zm0 0"/></clipPath><clipPath id="f"><path d="m0 233h595.28125v2h-595.28125zm0 0"/></clipPath><clipPath id="g"><path d="m0 221h595.28125v2h-595.28125zm0 0"/></clipPath><clipPath id="h"><path d="m0 210h595.28125v1h-595.28125zm0 0"/></clipPath><clipPath id="i"><path d="m0 198h595.28125v2h-595.28125zm0 0"/></clipPath><clipPath id="j"><path d="m0 186h595.28125v2h-595.28125zm0 0"/></clipPath><clipPath id="k"><path d="m0 374h595.28125v1h-595.28125zm0 0"/></clipPath><clipPath id="l"><path d="m0 362h595.28125v2h-595.28125zm0 0"/></clipPath><clipPath id="m"><path d="m0 350h595.28125v2h-595.28125zm0 0"/></clipPath><clipPath id="n"><path d="m0 339h595.28125v1h-595.28125zm0 0"/></clipPath><clipPath id="o"><path d="m0 327h595.28125v2h-595.28125zm0 0"/></clipPath><clipPath id="p"><path d="m0 514h595.28125v2h-595.28125zm0 0"/></clipPath><clipPath id="q"><path d="m0 502h595.28125v2h-595.28125zm0 0"/></clipPath><clipPath id="r"><path d="m0 491h595.28125v1h-595.28125zm0 0"/></clipPath><clipPath id="s"><path d="m0 479h595.28125v2h-595.28125zm0 0"/></clipPath><clipPath id="t"><path d="m0 467h595.28125v2h-595.28125zm0 0"/></clipPath><clipPath id="u"><path d="m0 655h595.28125v1h-595.28125zm0 0"/></clipPath><clipPath id="v"><path d="m0 643h595.28125v2h-595.28125zm0 0"/></clipPath><clipPath id="w"><path d="m0 631h595.28125v2h-595.28125zm0 0"/></clipPath><clipPath id="x"><path d="m0 619h595.28125v2h-595.28125zm0 0"/></clipPath><clipPath id="y"><path d="m0 608h595.28125v2h-595.28125zm0 0"/></clipPath><clipPath id="z"><path d="m0 795h595.28125v2h-595.28125zm0 0"/></clipPath><clipPath id="A"><path d="m0 783h595.28125v2h-595.28125zm0 0"/></clipPath><clipPath id="B"><path d="m0 772h595.28125v1h-595.28125zm0 0"/></clipPath><clipPath id="C"><path d="m0 760h595.28125v2h-595.28125zm0 0"/></clipPath><clipPath id="D"><path d="m0 748h595.28125v2h-595.28125zm0 0"/></clipPath><clipPath id="E"><path d="m590 746h5.28125v53h-5.28125zm0 0"/></clipPath><symbol id="F" overflow="visible"><path d="m7.34375-15.140625h-2.484375v-4.171875h-2.40625v4.171875h-2.046875v1.953125h2.046875v11.453125c0 1.5625 1.046875 2.40625 2.921875 2.40625.640625 0 1.15625-.0625 1.96875-.203125v-2.03125c-.34375.09375-.671875.109375-1.15625.109375-1.046875 0-1.328125-.28125-1.328125-1.34375v-10.390625h2.484375zm0 0"/></symbol><symbol id="G" overflow="visible"><path d="m14.828125-6.765625c0-2.3125-.171875-3.703125-.609375-4.828125-.984375-2.484375-3.296875-3.984375-6.125-3.984375-4.21875 0-6.9375 3.203125-6.9375 8.203125s2.609375 8.046875 6.875 8.046875c3.46875 0 5.875-1.96875 6.484375-5.265625h-2.4375c-.65625 1.984375-2.015625 3.03125-3.953125 3.03125-1.53125 0-2.828125-.6875-3.640625-1.96875-.578125-.859375-.78125-1.734375-.8125-3.234375zm-11.09375-1.96875c.203125-2.796875 1.90625-4.625 4.328125-4.625 2.453125 0 4.171875 1.90625 4.171875 4.625zm0 0"/></symbol><symbol id="H" overflow="visible"><path d="m4.078125-21.078125h-2.40625v21.078125h2.40625v-5.890625l2.34375-2.3125 5.109375 8.203125h2.984375l-6.1875-9.921875 5.265625-5.21875h-3.09375l-6.421875 6.40625zm0 0"/></symbol><symbol id="I" overflow="visible"><path d="m2.515625-3v3h1.734375v.515625c0 2-.375 2.578125-1.734375 2.640625v1.09375c1.90625.0625 3.03125-1.328125 3.03125-3.78125v-3.46875zm0 0"/></symbol><symbol id="J" overflow="visible"><path d="m12.8125-15.140625h-11.3125v2.109375h8.4375l-9.046875 10.859375v2.171875h12.3125v-2.109375h-9.390625l9-10.90625zm0 0"/></symbol><symbol id="K" overflow="visible"><path d="m2.03125-15.140625v15.140625h2.421875v-8.359375c0-3.09375 1.625-5.109375 4.109375-5.109375 1.90625 0 3.109375 1.15625 3.109375 2.96875v10.5h2.40625v-11.453125c0-2.515625-1.875-4.125-4.796875-4.125-2.25 0-3.703125.859375-5.03125 2.96875v-2.53125zm0 0"/></symbol><symbol id="L" overflow="visible"><path d="m2.03125-15.140625v15.140625h2.421875v-9.515625c0-2.1875 1.59375-3.953125 3.546875-3.953125 1.796875 0 2.8125 1.09375 2.8125 3.03125v10.4375h2.421875v-9.515625c0-2.1875 1.59375-3.953125 3.5625-3.953125 1.765625 0 2.796875 1.125 2.796875 3.03125v10.4375h2.4375v-11.359375c0-2.71875-1.5625-4.21875-4.390625-4.21875-2.03125 0-3.25.609375-4.65625 2.3125-.90625-1.625-2.109375-2.3125-4.078125-2.3125-2.03125 0-3.390625.75-4.65625 2.5625v-2.125zm0 0"/></symbol><symbol id="M" overflow="visible"><path d="m14.3125-21.078125h-2.40625v7.84375c-1.015625-1.53125-2.625-2.34375-4.65625-2.34375-3.921875 0-6.5 3.140625-6.5 7.96875 0 5.125 2.484375 8.28125 6.59375 8.28125 2.078125 0 3.53125-.78125 4.828125-2.671875v2h2.140625zm-6.65625 7.75c2.609375 0 4.25 2.28125 4.25 5.921875 0 3.5-1.671875 5.8125-4.21875 5.8125-2.65625 0-4.421875-2.34375-4.421875-5.859375 0-3.53125 1.765625-5.875 4.390625-5.875zm0 0"/></symbol><symbol id="N" overflow="visible"><path d="m13.703125-6.328125 2.171875 6.328125h3l-7.40625-21.078125h-3.46875l-7.515625 21.078125h2.875l2.21875-6.328125zm-.75-2.25h-6.703125l3.46875-9.609375zm0 0"/></symbol><symbol id="O" overflow="visible"><path d="m4.34375-15.140625h-2.40625v15.140625h2.40625zm0-5.9375h-2.4375v3.046875h2.4375zm0 0"/></symbol><symbol id="P" overflow="visible"><path d="m2-15.140625v15.140625h2.421875v-7.859375c.03125-3.640625 1.53125-5.265625 4.859375-5.171875v-2.46875c-.40625-.046875-.640625-.078125-.921875-.078125-1.5625 0-2.75.921875-4.140625 3.171875v-2.734375zm0 0"/></symbol><symbol id="Q" overflow="visible"><path d="m15.46875-1.421875c-.265625.0625-.375.0625-.53125.0625-.828125 0-1.296875-.4375-1.296875-1.1875v-8.90625c0-2.6875-1.96875-4.125-5.6875-4.125-2.234375 0-4 .640625-5.03125 1.765625-.703125.78125-.984375 1.640625-1.046875 3.140625h2.4375c.203125-1.84375 1.296875-2.6875 3.546875-2.6875 2.203125 0 3.390625.8125 3.390625 2.265625v.625c-.03125 1.046875-.546875 1.421875-2.515625 1.6875-3.421875.421875-3.9375.546875-4.859375.921875-1.765625.75-2.65625 2.078125-2.65625 4.046875 0 2.75 1.90625 4.484375 4.96875 4.484375 1.90625 0 3.4375-.671875 5.140625-2.234375.171875 1.5625.921875 2.234375 2.484375 2.234375.53125 0 .84375-.0625 1.65625-.265625zm-4.21875-3.34375c0 .8125-.234375 1.296875-.953125 1.96875-.984375.890625-2.171875 1.34375-3.59375 1.34375-1.875 0-2.96875-.890625-2.96875-2.421875 0-1.59375 1.03125-2.390625 3.640625-2.78125 2.5625-.34375 3.0625-.453125 3.875-.828125zm0 0"/></symbol><symbol id="R" overflow="visible"><path d="m15.953125-21.078125v14.8125c0 2.828125-2.046875 4.5625-5.4375 4.5625-1.546875 0-2.828125-.375-3.84375-1.09375-1.03125-.8125-1.53125-1.890625-1.53125-3.46875v-14.8125h-2.6875v14.8125c0 4.265625 3.0625 6.9375 8.0625 6.9375 4.953125 0 8.125-2.71875 8.125-6.9375v-14.8125zm0 0"/></symbol><symbol id="S" overflow="visible"><path d="m1.5625 6.296875h2.421875v-7.890625c1.28125 1.5625 2.6875 2.265625 4.65625 2.265625 3.9375 0 6.484375-3.15625 6.484375-7.984375 0-5.09375-2.5-8.265625-6.515625-8.265625-2.046875 0-3.6875.921875-4.828125 2.71875v-2.28125h-2.21875zm6.640625-19.625c2.671875 0 4.40625 2.34375 4.40625 5.953125 0 3.4375-1.765625 5.78125-4.40625 5.78125-2.5625 0-4.21875-2.3125-4.21875-5.859375 0-3.5625 1.65625-5.875 4.21875-5.875zm0 0"/></symbol><symbol id="T" overflow="visible"><path d="m14.828125-6.765625c0-2.3125-.171875-3.703125-.609375-4.828125-.984375-2.484375-3.296875-3.984375-6.125-3.984375-4.21875 0-6.9375 3.203125-6.9375 8.203125s2.609375 8.046875 6.875 8.046875c3.46875 0 5.875-1.96875 6.484375-5.265625h-2.4375c-.65625 1.984375-2.015625 3.03125-3.953125 3.03125-1.53125 0-2.828125-.6875-3.640625-1.96875-.578125-.859375-.78125-1.734375-.8125-3.234375zm-11.09375-1.96875c.203125-2.796875 1.90625-4.625 4.328125-4.625 2.453125 0 4.171875 1.90625 4.171875 4.625zm5.171875-12.65625-2.78125 4.28125h1.734375l4.3125-4.28125zm0 0"/></symbol><symbol id="U" overflow="visible"><path d="m2.578125 0h8.125c5.3125 0 8.578125-3.984375 8.578125-10.546875 0-6.53125-3.234375-10.53125-8.578125-10.53125h-8.125zm2.6875-2.375v-16.328125h4.96875c4.15625 0 6.359375 2.796875 6.359375 8.1875 0 5.34375-2.203125 8.140625-6.359375 8.140625zm0 0"/></symbol><symbol id="V" overflow="visible"><path d="m2.03125-15.140625v17.34375c0 1.5-.46875 1.984375-1.96875 1.984375-.171875 0-.265625 0-.578125-.03125v2.0625c.28125.046875.421875.078125.8125.078125 2.703125 0 4.125-1.0625 4.125-3.140625v-18.296875zm2.390625-5.9375h-2.390625v3.046875h2.390625zm0 0"/></symbol><symbol id="W" overflow="visible"><path d="m13.609375-10.0625c-.109375-1.46875-.421875-2.421875-1-3.265625-1.046875-1.421875-2.875-2.25-4.984375-2.25-4.09375 0-6.734375 3.234375-6.734375 8.265625 0 4.890625 2.609375 7.984375 6.71875 7.984375 3.609375 0 5.890625-2.171875 6.171875-5.875h-2.421875c-.40625 2.421875-1.640625 3.640625-3.703125 3.640625-2.65625 0-4.25-2.171875-4.25-5.75 0-3.78125 1.5625-6.046875 4.203125-6.046875 2.015625 0 3.28125 1.1875 3.578125 3.296875zm0 0"/></symbol><symbol id="X" overflow="visible"><path d="m12.65625-10.921875c-.03125-2.984375-1.984375-4.65625-5.484375-4.65625-3.53125 0-5.8125 1.8125-5.8125 4.625 0 2.375 1.21875 3.5 4.796875 4.359375l2.25.546875c1.6875.40625 2.34375 1.015625 2.34375 2.09375 0 1.4375-1.40625 2.390625-3.515625 2.390625-1.3125 0-2.40625-.375-3.015625-1.015625-.375-.421875-.546875-.859375-.6875-1.9375h-2.546875c.109375 3.5 2.078125 5.1875 6.046875 5.1875 3.8125 0 6.234375-1.890625 6.234375-4.8125 0-2.25-1.265625-3.484375-4.28125-4.21875l-2.3125-.546875c-1.953125-.453125-2.796875-1.09375-2.796875-2.171875 0-1.40625 1.234375-2.28125 3.203125-2.28125 1.9375 0 2.984375.84375 3.046875 2.4375zm0 0"/></symbol><symbol id="Y" overflow="visible"><path d="m11.671875-15.140625v2.1875c-1.203125-1.8125-2.53125-2.625-4.4375-2.625-3.671875 0-6.21875 3.40625-6.21875 8.265625 0 2.546875.609375 4.390625 1.90625 5.921875 1.125 1.328125 2.578125 2.0625 4.125 2.0625 1.828125 0 3.125-.8125 4.40625-2.71875v.78125c0 4.046875-1.140625 5.546875-4.140625 5.546875-2.046875 0-3.125-.8125-3.359375-2.546875h-2.453125c.234375 2.796875 2.453125 4.5625 5.75 4.5625 2.234375 0 4.078125-.71875 5.0625-1.9375 1.15625-1.40625 1.59375-3.296875 1.59375-6.84375v-12.65625zm-4.21875 1.78125c2.546875 0 4 2.140625 4 5.984375 0 3.671875-1.484375 5.8125-4 5.8125-2.484375 0-3.921875-2.171875-3.921875-5.890625 0-3.703125 1.4375-5.90625 3.921875-5.90625zm0 0"/></symbol><symbol id="Z" overflow="visible"><path d="m11.21875-15.140625-4.1875 11.78125-3.875-11.78125h-2.578125l5.109375 15.203125-.921875 2.390625c-.40625 1.078125-.921875 1.484375-1.9375 1.484375-.40625 0-.75-.0625-1.265625-.171875v2.15625c.484375.265625.984375.375 1.625.375.765625 0 1.609375-.25 2.25-.71875.75-.546875 1.1875-1.1875 1.640625-2.390625l6.734375-18.328125zm0 0"/></symbol><symbol id="aa" overflow="visible"><path d="m13.53125 0 5.921875-17.65625v17.65625h2.546875v-21.078125h-3.734375l-6.125 18.359375-6.25-18.359375h-3.71875v21.078125h2.546875v-17.65625l5.984375 17.65625zm0 0"/></symbol><symbol id="ab" overflow="visible"><path d="m7.859375-15.578125c-4.28125 0-6.8125 3.03125-6.8125 8.125 0 5.109375 2.53125 8.125 6.84375 8.125 4.28125 0 6.859375-3.046875 6.859375-8.015625 0-5.265625-2.5-8.234375-6.890625-8.234375zm.03125 2.21875c2.71875 0 4.34375 2.234375 4.34375 5.984375 0 3.59375-1.6875 5.8125-4.34375 5.8125-2.6875 0-4.328125-2.21875-4.328125-5.890625s1.640625-5.90625 4.328125-5.90625zm-.953125-8.03125-2.796875 4.328125h1.734375l4.296875-4.328125zm5.03125 0-2.8125 4.328125h1.734375l4.3125-4.328125zm0 0"/></symbol><symbol id="ac" overflow="visible"><path d="m5.109375-15.140625h-2.390625v15.140625h2.390625zm-.453125-6.25-2.78125 4.28125h1.734375l4.3125-4.28125zm0 0"/></symbol><symbol id="ad" overflow="visible"><path d="m13.9375 0v-15.140625h-2.40625v8.578125c0 3.09375-1.609375 5.109375-4.125 5.109375-1.90625 0-3.125-1.15625-3.125-2.96875v-10.71875h-2.40625v11.671875c0 2.515625 1.890625 4.140625 4.828125 4.140625 2.234375 0 3.640625-.78125 5.0625-2.78125v2.109375zm0 0"/></symbol><symbol id="ae" overflow="visible"><path d="m15.46875-1.421875c-.265625.0625-.375.0625-.53125.0625-.828125 0-1.296875-.4375-1.296875-1.1875v-8.90625c0-2.6875-1.96875-4.125-5.6875-4.125-2.234375 0-4 .640625-5.03125 1.765625-.703125.78125-.984375 1.640625-1.046875 3.140625h2.4375c.203125-1.84375 1.296875-2.6875 3.546875-2.6875 2.203125 0 3.390625.8125 3.390625 2.265625v.625c-.03125 1.046875-.546875 1.421875-2.515625 1.6875-3.421875.421875-3.9375.546875-4.859375.921875-1.765625.75-2.65625 2.078125-2.65625 4.046875 0 2.75 1.90625 4.484375 4.96875 4.484375 1.90625 0 3.4375-.671875 5.140625-2.234375.171875 1.5625.921875 2.234375 2.484375 2.234375.53125 0 .84375-.0625 1.65625-.265625zm-4.21875-3.34375c0 .8125-.234375 1.296875-.953125 1.96875-.984375.890625-2.171875 1.34375-3.59375 1.34375-1.875 0-2.96875-.890625-2.96875-2.421875 0-1.59375 1.03125-2.390625 3.640625-2.78125 2.5625-.34375 3.0625-.453125 3.875-.828125zm-2.46875-16.625-2.796875 4.28125h1.734375l4.3125-4.28125zm0 0"/></symbol><symbol id="af" overflow="visible"><path d="m5.296875-9.59375h11.46875v-2.375h-11.46875v-6.734375h11.90625v-2.375h-14.59375v21.078125h15.109375v-2.375h-12.421875zm5.3125-17.546875-2.796875 4.28125h1.734375l4.296875-4.28125zm0 0"/></symbol><symbol id="ag" overflow="visible"><path d="m4.390625-21.078125h-2.421875v21.078125h2.421875zm0 0"/></symbol><symbol id="ah" overflow="visible"><path d="m15.921875-9.59375v9.59375h2.6875v-21.078125h-2.6875v9.109375h-10.828125v-9.109375h-2.6875v21.078125h2.6875v-9.59375zm0 0"/></symbol><symbol id="ai" overflow="visible"><path d="m5.515625-3h-3v3h3zm0 0"/></symbol><symbol id="aj" overflow="visible"><path d="m7.859375-15.578125c-4.28125 0-6.8125 3.03125-6.8125 8.125 0 5.109375 2.53125 8.125 6.84375 8.125 4.28125 0 6.859375-3.046875 6.859375-8.015625 0-5.265625-2.5-8.234375-6.890625-8.234375zm.03125 2.21875c2.71875 0 4.34375 2.234375 4.34375 5.984375 0 3.59375-1.6875 5.8125-4.34375 5.8125-2.6875 0-4.328125-2.21875-4.328125-5.890625s1.640625-5.90625 4.328125-5.90625zm-.84375-7.3125h-3v2.984375h3zm4.6875 0h-3v2.984375h3zm0 0"/></symbol><symbol id="ak" overflow="visible"><path d="m14.796875-3.140625c0 .46875-.140625.984375-.46875 1.359375-.984375 1.171875-3.234375 2.625-5.015625 3.75-1.765625 1.125-4.015625 2.625-5.46875 3.046875-.1875.046875-.421875.09375-.609375.09375-1.03125 0-1.96875-.796875-1.96875-1.96875 0-.46875.140625-.984375.46875-1.359375.984375-1.171875 3.234375-2.625 5.015625-3.75 1.765625-1.125 4.015625-2.625 5.46875-3.046875.1875-.046875.421875-.09375.609375-.09375 1.03125 0 1.96875.796875 1.96875 1.96875zm-2.390625-3.1875c-3.515625 0-6.359375.75-8.84375 2.4375-1.5 1.03125-2.484375 2.625-3.046875 4.359375-.28125.84375-.515625 1.78125-.515625 2.671875 0 2.203125 1.59375 3.1875 3.65625 3.1875 3.515625 0 6.359375-.75 8.84375-2.4375 1.5-1.03125 2.484375-2.625 3.046875-4.359375.28125-.84375.515625-1.78125.515625-2.671875 0-2.203125-1.59375-3.1875-3.65625-3.1875zm0 0"/></symbol><symbol id="al" overflow="visible"><path d="m10.390625-6.328125c-1.96875 0-3.828125.65625-5.515625 1.6875-2.203125 1.3125-4.875 3.609375-4.875 6.9375 0 2.765625 2.4375 4.03125 4.921875 4.03125 1.96875 0 3.828125-.65625 5.515625-1.6875 2.203125-1.3125 4.828125-3.609375 4.828125-6.9375 0-2.765625-2.390625-4.03125-4.875-4.03125zm0 0"/></symbol><symbol id="am" overflow="visible"><path d="m17.1875 0c.1875 0 .375-.1875.375-.375v-6.5625c0-.1875-.1875-.375-.375-.375h-16.8125c-.1875 0-.375.1875-.375.375v6.5625c0 .1875.1875.375.375.375zm0 0"/></symbol><symbol id="an" overflow="visible"><path d="m17.515625-12.171875c-.75-3.28125-1.640625-6.515625-2.578125-9.75 4.5-5.09375 8.5625-10.34375 8.5625-17.078125 0-5.296875-2.890625-12.890625-6.171875-16.8125-.234375-.1875-.515625-.1875-.75 0-4.453125 3.21875-7.03125 8.375-7.03125 13.8125 0 2.4375.046875 4.8125.328125 7.203125.328125 3.046875 1.125 6 1.96875 8.953125-5.515625 6.265625-11.75 12.265625-11.75 20.59375 0 9.421875 6.796875 17.421875 15.59375 17.421875 1.453125 0 2.8125-.140625 4.171875-.375.140625 1.5.234375 3 .234375 4.5 0 .84375-.046875 1.640625-.09375 2.484375-.28125 4.625-3.140625 8.890625-7.5 8.984375-.046875 0-.09375.046875-.140625.046875-2.390625 0-4.453125-1.359375-5.65625-3.28125.515625.234375 1.078125.421875 1.625.421875 2.4375 0 4.453125-2 4.453125-4.4375 0-2.625-1.921875-4.875-4.453125-4.875-2.75 0-5.234375 2.15625-5.234375 4.875 0 5.046875 4.078125 9.125 9.125 9.125 5.53125 0 9.328125-4.96875 9.65625-10.578125.046875-.890625.046875-1.734375.046875-2.625 0-1.6875-.09375-3.375-.234375-5.0625 1.21875-.375 2.375-.9375 3.40625-1.734375 3.46875-2.5625 5.015625-6.171875 5.015625-9.734375 0-6.1875-4.6875-12.125-11.890625-12.125-.234375 0-.46875.046875-.703125.046875zm3.984375 21.765625c-.65625-5.796875-1.734375-11.328125-2.90625-16.8125 5.140625.421875 8.375 4.734375 8.375 9.046875 0 3.28125-2.25 6.640625-5.46875 7.765625zm-18.171875-11.046875c0-7.484375 5.046875-13.15625 10.109375-18.828125.75 2.765625 1.5 5.53125 2.15625 8.34375-4.734375 1.078125-7.40625 5.046875-7.40625 9.171875 0 3.28125 1.6875 6.609375 5.4375 8.625.140625.046875.28125.09375.421875.09375.515625 0 .9375-.46875.9375-.984375 0-.234375-.140625-.46875-.328125-.65625-2.625-1.5-3.84375-3.75-3.84375-5.8125 0-2.765625 2.15625-5.25 5.859375-5.671875 1.21875 5.625 2.296875 11.203125 3 17.1875-1.265625.1875-2.53125.28125-3.84375.28125-6.375 0-12.5-5.375-12.5-11.75zm15.921875-47.71875c.796875 2.484375.984375 3.703125.984375 6.421875 0 5.9375-3.140625 10.671875-6.984375 15.21875-.84375-2.953125-1.546875-5.8125-1.546875-9.375 0-5.1875 2.90625-9.921875 7.546875-12.265625zm0 0"/></symbol><symbol id="ao" overflow="visible"><path d="m10.0625 14.796875v-7.625l2.296875-.796875c.28125-.09375.515625-.375.515625-.703125v-3.046875c0-.515625-.515625-.890625-.984375-.703125l-1.828125.65625v-7.6875l2.296875-.84375c.28125-.09375.515625-.375.515625-.703125v-2.984375c0-.515625-.515625-.890625-.984375-.703125l-1.828125.609375v-7.03125c0-.421875-.375-.796875-.796875-.796875s-.796875.375-.796875.796875v7.59375l-4.0625 1.4375v-7.0625c0-.421875-.375-.796875-.796875-.796875s-.796875.375-.796875.796875v7.625l-2.296875.796875c-.28125.09375-.515625.375-.515625.703125v3.046875c0 .515625.515625.890625.984375.703125l1.828125-.65625v7.6875l-2.296875.84375c-.28125.09375-.515625.375-.515625.703125v2.984375c0 .515625.515625.890625.984375.703125l1.828125-.609375v7.03125c0 .421875.375.796875.796875.796875s.796875-.375.796875-.796875v-7.59375l4.0625-1.4375v7.0625c0 .421875.375.796875.796875.796875s.796875-.375.796875-.796875zm-5.65625-17.9375 4.0625-1.40625v7.6875l-4.0625 1.40625zm0 0"/></symbol><symbol id="ap" overflow="visible"><path d="m10.0625-5.34375c3.703125 0 6.46875 2.859375 6.46875 6.5625 0 2.15625-.9375 4.125-3.28125 4.125-3.703125 0-6.5-2.859375-6.5-6.5625 0-2.15625.984375-4.125 3.3125-4.125zm13.21875 5.34375c0-2.015625-1.640625-3.46875-3.421875-4.453125-2.53125-1.359375-5.34375-1.875-8.203125-1.875s-5.703125.515625-8.234375 1.875c-1.78125.984375-3.421875 2.4375-3.421875 4.453125s1.640625 3.46875 3.421875 4.453125c2.53125 1.359375 5.375 1.875 8.234375 1.875s5.671875-.515625 8.203125-1.875c1.78125-.984375 3.421875-2.4375 3.421875-4.453125zm0 0"/></symbol><symbol id="aq" overflow="visible"><path d="m10.46875-2.21875c0 .328125-.109375.703125-.34375.953125-.6875.828125-2.28125 1.859375-3.53125 2.65625-1.265625.796875-2.859375 1.859375-3.875 2.15625-.140625.03125-.296875.0625-.4375.0625-.71875 0-1.390625-.5625-1.390625-1.390625 0-.328125.109375-.703125.328125-.953125.703125-.828125 2.296875-1.859375 3.546875-2.65625 1.265625-.796875 2.84375-1.859375 3.875-2.15625.140625-.03125.296875-.0625.4375-.0625.71875 0 1.390625.5625 1.390625 1.390625zm-1.6875-2.25c-2.484375 0-4.515625.53125-6.265625 1.71875-1.0625.734375-1.75 1.859375-2.15625 3.078125-.1875.59375-.359375 1.265625-.359375 1.890625 0 1.5625 1.125 2.25 2.578125 2.25 2.484375 0 4.5-.53125 6.265625-1.71875 1.0625-.734375 1.75-1.859375 2.15625-3.078125.1875-.59375.359375-1.265625.359375-1.890625 0-1.5625-1.125-2.25-2.578125-2.25zm0 0"/></symbol><symbol id="ar" overflow="visible"><path d="m6.125-12.59375v12.59375h3.609375v-18.25h-2.390625c-.578125 2.15625-2.453125 3.265625-5.59375 3.265625v2.390625zm0 0"/></symbol><symbol id="as" overflow="visible"><path d="m5.515625-3.765625h-3.875v3.765625h3.875zm0 0"/></symbol><g clip-path="url(#a)"><path d="m3.632812 7787.196875h5945.46875" fill="none" stroke="#000" stroke-linecap="round" stroke-miterlimit="10" stroke-width="7.2812" transform="matrix(.1 0 0 -.1 0 872.29)"/></g><g clip-path="url(#b)"><path d="m3.632812 7904.228125h5945.46875" fill="none" stroke="#000" stroke-linecap="round" stroke-miterlimit="10" stroke-width="7.2812" transform="matrix(.1 0 0 -.1 0 872.29)"/></g><g clip-path="url(#c)"><path d="m3.632812 8021.298438h5945.46875" fill="none" stroke="#000" stroke-linecap="round" stroke-miterlimit="10" stroke-width="7.2812" transform="matrix(.1 0 0 -.1 0 872.29)"/></g><g clip-path="url(#d)"><path d="m3.632812 8138.36875h5945.46875" fill="none" stroke="#000" stroke-linecap="round" stroke-miterlimit="10" stroke-width="7.2812" transform="matrix(.1 0 0 -.1 0 872.29)"/></g><g clip-path="url(#e)"><path d="m3.632812 8255.439063h5945.46875" fill="none" stroke="#000" stroke-linecap="round" stroke-miterlimit="10" stroke-width="7.2812" transform="matrix(.1 0 0 -.1 0 872.29)"/></g><path d="m4869.492188 7672.11875h5.507812v374.296875h-5.507812zm0 0" style="fill:none;stroke-width:3.98007;stroke-linecap:round;stroke-linejoin:round;stroke:#000;stroke-miterlimit:10" transform="matrix(.1 0 0 -.1 0 872.29)"/><path d="m486.949219 105.078125h.550781v-37.429687h-.550781zm0 0"/><use x="471.736" xlink:href="#F" y="134.544"/><use x="479.389528" xlink:href="#G" y="134.544"/><use x="495.547315" xlink:href="#H" y="134.544"/><use x="509.833644" xlink:href="#I" y="134.544"/><use x="486.7516" xlink:href="#ak" y="64.3073"/><path d="m4305.976562 7633.095313h5.46875v363.203125h-5.46875zm0 0" style="fill:none;stroke-width:3.98007;stroke-linecap:round;stroke-linejoin:round;stroke:#000;stroke-miterlimit:10" transform="matrix(.1 0 0 -.1 0 872.29)"/><path d="m430.597656 108.980469h.546875v-36.320313h-.546875zm0 0"/><use x="423.073" xlink:href="#J" y="134.544"/><use x="436.849954" xlink:href="#G" y="134.544"/><use x="430.39644" xlink:href="#al" y="70.1604"/><path d="m3830.039062 7987.782813h5.507813v382.734375h-5.507813zm0 0" style="fill:none;stroke-width:3.98007;stroke-linecap:round;stroke-linejoin:round;stroke:#000;stroke-miterlimit:10" transform="matrix(.1 0 0 -.1 0 872.29)"/><path d="m383.003906 73.511719h.550782v-38.269531h-.550782zm0 0"/><use x="347.876" xlink:href="#K" y="134.544"/><use x="364.033812" xlink:href="#G" y="134.544"/><use x="380.191623" xlink:href="#L" y="134.544"/><use x="368.4658" xlink:href="#al" y="76.0135"/><path d="m3118.046875 7929.267188h5.507813v382.695312h-5.507813zm0 0" style="fill:none;stroke-width:3.98007;stroke-linecap:round;stroke-linejoin:round;stroke:#000;stroke-miterlimit:10" transform="matrix(.1 0 0 -.1 0 872.29)"/><path d="m311.804688 79.363281h.550781v-38.269531h-.550781zm0 0"/><use x="280.674" xlink:href="#M" y="134.544"/><use x="296.831812" xlink:href="#G" y="134.544"/><use x="312.989623" xlink:href="#K" y="134.544"/><use x="297.2674" xlink:href="#al" y="81.8663"/><path d="m1486.015625 7456.454688h71.445313v3.671875h-71.445313zm0 0" style="fill:none;stroke-width:5.82964;stroke-linecap:round;stroke-linejoin:round;stroke:#000;stroke-miterlimit:10" transform="matrix(.1 0 0 -.1 0 872.29)"/><path d="m148.601562 126.644531h7.144532v-.363281h-7.144532zm0 0"/><path d="m2677.382812 7456.454688h71.40625v3.671875h-71.40625zm0 0" style="fill:none;stroke-width:5.82964;stroke-linecap:round;stroke-linejoin:round;stroke:#000;stroke-miterlimit:10" transform="matrix(.1 0 0 -.1 0 872.29)"/><path d="m267.738281 126.644531h7.140625v-.363281h-7.140625zm0 0"/><path d="m4101.367188 7456.454688h71.40625v3.671875h-71.40625zm0 0" style="fill:none;stroke-width:5.82964;stroke-linecap:round;stroke-linejoin:round;stroke:#000;stroke-miterlimit:10" transform="matrix(.1 0 0 -.1 0 872.29)"/><path d="m410.136719 126.644531h7.140625v-.363281h-7.140625zm0 0"/><path d="m4588.007812 7456.454688h71.40625v3.671875h-71.40625zm0 0" style="fill:none;stroke-width:5.82964;stroke-linecap:round;stroke-linejoin:round;stroke:#000;stroke-miterlimit:10" transform="matrix(.1 0 0 -.1 0 872.29)"/><path d="m458.800781 126.644531h7.140625v-.363281h-7.140625zm0 0"/><use x="540.265" xlink:href="#am" y="70.16"/><path d="m670 8381.610938h7.148438v222.539062h-7.148438zm0 0" style="fill:none;stroke-width:3.58207;stroke-linecap:round;stroke-linejoin:round;stroke:#000;stroke-miterlimit:10" transform="matrix(.1 0 0 -.1 0 872.29)"/><path d="m67 34.128906h.714844v-22.253906h-.714844zm0 0"/><use x="56.5383" xlink:href="#aq" y="36.528"/><path d="m832.109375 7937.665625h5.46875v374.296875h-5.46875zm0 0" style="fill:none;stroke-width:3.98007;stroke-linecap:round;stroke-linejoin:round;stroke:#000;stroke-miterlimit:10" transform="matrix(.1 0 0 -.1 0 872.29)"/><path d="m83.210938 78.523438h.546874v-37.429688h-.546874zm0 0"/><use x="25.6973" xlink:href="#ar" y="134.544"/><use x="39.98323" xlink:href="#as" y="134.544"/><use x="58.8325" xlink:href="#N" y="134.544"/><use x="78.562182" xlink:href="#J" y="134.544"/><use x="9.3649" xlink:href="#an" y="81.8663"/><use x="67.8954" xlink:href="#ak" y="81.8663"/><use x="172.1329" xlink:href="#al" y="64.3073"/><path d="m2311.132812 7633.095313h5.507813v363.203125h-5.507813zm0 0" style="fill:none;stroke-width:3.98007;stroke-linecap:round;stroke-linejoin:round;stroke:#000;stroke-miterlimit:10" transform="matrix(.1 0 0 -.1 0 872.29)"/><path d="m231.113281 108.980469h.550781v-36.320313h-.550781zm0 0"/><use x="215.172" xlink:href="#L" y="134.544"/><use x="239.322766" xlink:href="#O" y="134.544"/><use x="245.785645" xlink:href="#K" y="134.544"/><use x="230.9154" xlink:href="#al" y="70.1604"/><path d="m1723.320312 7672.11875h5.46875v382.695313h-5.46875zm0 0" style="fill:none;stroke-width:3.98007;stroke-linecap:round;stroke-linejoin:round;stroke:#000;stroke-miterlimit:10" transform="matrix(.1 0 0 -.1 0 872.29)"/><path d="m172.332031 105.078125h.546875v-38.269531h-.546875zm0 0"/><use x="163.107" xlink:href="#P" y="134.544"/><use x="172.631214" xlink:href="#Q" y="134.544"/><use x="188.448401" xlink:href="#F" y="134.544"/><path d="m1233.398438 7672.11875h5.46875v382.695313h-5.46875zm0 0" style="fill:none;stroke-width:3.98007;stroke-linecap:round;stroke-linejoin:round;stroke:#000;stroke-miterlimit:10" transform="matrix(.1 0 0 -.1 0 872.29)"/><path d="m123.339844 105.078125h.546875v-38.269531h-.546875zm0 0"/><use x="123.139" xlink:href="#al" y="64.307"/><use x="120.32259" xlink:href="#R" y="134.5437"/><g clip-path="url(#f)"><path d="m3.632812 6382.43125h5945.46875" style="fill:none;stroke-width:7.2812;stroke-linecap:round;stroke-linejoin:round;stroke:#000;stroke-miterlimit:10" transform="matrix(.1 0 0 -.1 0 872.29)"/></g><g clip-path="url(#g)"><path d="m3.632812 6499.501563h5945.46875" style="fill:none;stroke-width:7.2812;stroke-linecap:round;stroke-linejoin:round;stroke:#000;stroke-miterlimit:10" transform="matrix(.1 0 0 -.1 0 872.29)"/></g><g clip-path="url(#h)"><path d="m3.632812 6616.571875h5945.46875" style="fill:none;stroke-width:7.2812;stroke-linecap:round;stroke-linejoin:round;stroke:#000;stroke-miterlimit:10" transform="matrix(.1 0 0 -.1 0 872.29)"/></g><g clip-path="url(#i)"><path d="m3.632812 6733.642188h5945.46875" style="fill:none;stroke-width:7.2812;stroke-linecap:round;stroke-linejoin:round;stroke:#000;stroke-miterlimit:10" transform="matrix(.1 0 0 -.1 0 872.29)"/></g><g clip-path="url(#j)"><path d="m3.632812 6850.673438h5945.46875" style="fill:none;stroke-width:7.2812;stroke-linecap:round;stroke-linejoin:round;stroke:#000;stroke-miterlimit:10" transform="matrix(.1 0 0 -.1 0 872.29)"/></g><path d="m4777.226562 6265.4h221.914063" style="fill:none;stroke-width:18.9873;stroke-linecap:round;stroke-linejoin:round;stroke:#000;stroke-miterlimit:10" transform="matrix(.1 0 0 -.1 0 872.29)"/><use x="293.514" xlink:href="#al" y="228.192"/><path d="m4961.015625 6298.798438h5.46875v374.296875h-5.46875zm0 0" fill="none" stroke="#000" stroke-linejoin="round" stroke-miterlimit="10" stroke-width="3.98007" transform="matrix(.1 0 0 -.1 0 872.29)"/><path d="m496.101562 242.410156h.546876v-37.429687h-.546876zm0 0"/><use x="461.519" xlink:href="#S" y="278.987"/><use x="477.677178" xlink:href="#G" y="278.987"/><use x="493.834965" xlink:href="#H" y="278.987"/><use x="508.120903" xlink:href="#I" y="278.987"/><use x="480.7862" xlink:href="#ak" y="245.7511"/><path d="m4339.140625 6357.314063h5.507813v374.335937h-5.507813zm0 0" fill="none" stroke="#000" stroke-linejoin="round" stroke-miterlimit="10" stroke-width="3.98007" transform="matrix(.1 0 0 -.1 0 872.29)"/><path d="m433.914062 236.558594h.546876v-37.433594h-.546876zm0 0"/><use x="410.475" xlink:href="#K" y="278.987"/><use x="426.632787" xlink:href="#T" y="278.987"/><use x="418.60234" xlink:href="#ak" y="239.8979"/><path d="m3747.929688 6415.86875h5.46875v374.296875h-5.46875zm0 0" fill="none" stroke="#000" stroke-linejoin="round" stroke-miterlimit="10" stroke-width="3.98007" transform="matrix(.1 0 0 -.1 0 872.29)"/><path d="m374.792969 230.703125h.546875v-37.429687h-.546875zm0 0"/><use x="343.272" xlink:href="#M" y="278.987"/><use x="359.429812" xlink:href="#G" y="278.987"/><use x="375.587623" xlink:href="#K" y="278.987"/><use x="359.4779" xlink:href="#ak" y="234.0452"/><path d="m3080.507812 6465.985938h5.507813v382.695312h-5.507813zm0 0" fill="none" stroke="#000" stroke-linejoin="round" stroke-miterlimit="10" stroke-width="3.98007" transform="matrix(.1 0 0 -.1 0 872.29)"/><path d="m308.050781 225.691406h.550781v-38.269531h-.550781zm0 0"/><use x="277.771" xlink:href="#L" y="278.987"/><use x="301.921766" xlink:href="#O" y="278.987"/><use x="308.384645" xlink:href="#K" y="278.987"/><path d="m903.203125 6012.040625h71.40625v3.632813h-71.40625zm0 0" fill="none" stroke="#000" stroke-linejoin="round" stroke-miterlimit="10" stroke-width="5.82964" transform="matrix(.1 0 0 -.1 0 872.29)"/><path d="m90.320312 271.085938h7.140626v-.363282h-7.140626zm0 0"/><path d="m1639.84375 6012.040625h71.445312v3.632813h-71.445312zm0 0" fill="none" stroke="#000" stroke-linejoin="round" stroke-miterlimit="10" stroke-width="5.82964" transform="matrix(.1 0 0 -.1 0 872.29)"/><path d="m163.984375 271.085938h7.144531v-.363282h-7.144531zm0 0"/><path d="m2065.859375 6012.040625h71.445313v3.632813h-71.445313zm0 0" fill="none" stroke="#000" stroke-linejoin="round" stroke-miterlimit="10" stroke-width="5.82964" transform="matrix(.1 0 0 -.1 0 872.29)"/><path d="m206.585938 271.085938h7.144531v-.363282h-7.144531zm0 0"/><path d="m3303.359375 6012.040625h71.445313v3.632813h-71.445313zm0 0" fill="none" stroke="#000" stroke-linejoin="round" stroke-miterlimit="10" stroke-width="5.82964" transform="matrix(.1 0 0 -.1 0 872.29)"/><path d="m330.335938 271.085938h7.144531v-.363282h-7.144531zm0 0"/><path d="m4485.820312 6012.040625h71.445313v3.632813h-71.445313zm0 0" fill="none" stroke="#000" stroke-linejoin="round" stroke-miterlimit="10" stroke-width="5.82964" transform="matrix(.1 0 0 -.1 0 872.29)"/><path d="m448.582031 271.085938h7.144531v-.363282h-7.144531zm0 0"/><use x="537.282" xlink:href="#am" y="210.633"/><path d="m630.039062 6267.392188h5.46875v374.296875h-5.46875zm0 0" fill="none" stroke="#000" stroke-linejoin="round" stroke-miterlimit="10" stroke-width="3.98007" transform="matrix(.1 0 0 -.1 0 872.29)"/><path d="m63.003906 245.550781h.546875v-37.429687h-.546875zm0 0"/><use x="57.1422" xlink:href="#U" y="278.987"/><use x="78.062118" xlink:href="#O" y="278.987"/><use x="62.80314" xlink:href="#ak" y="204.78"/><use x="9.36484" xlink:href="#an" y="222.339"/><use x="123.08084" xlink:href="#al" y="210.6327"/><path d="m2468.046875 6524.540625h5.46875v382.695313h-5.46875zm0 0" fill="none" stroke="#000" stroke-linejoin="round" stroke-miterlimit="10" stroke-width="3.98007" transform="matrix(.1 0 0 -.1 0 872.29)"/><path d="m246.804688 219.835938h.546874v-38.269532h-.546874zm0 0"/><use x="220.773" xlink:href="#F" y="278.987"/><use x="228.426502" xlink:href="#G" y="278.987"/><use x="244.584313" xlink:href="#H" y="278.987"/><use x="232.264" xlink:href="#al" y="222.339"/><path d="m1951.25 6583.05625h5.507812v382.695313h-5.507812zm0 0" fill="none" stroke="#000" stroke-linejoin="round" stroke-miterlimit="10" stroke-width="3.98007" transform="matrix(.1 0 0 -.1 0 872.29)"/><path d="m195.125 213.984375h.546875v-38.269531h-.546875zm0 0"/><use x="176.92" xlink:href="#V" y="278.987"/><use x="183.382892" xlink:href="#T" y="278.987"/><use x="180.58758" xlink:href="#al" y="216.4858"/><path d="m1232.773438 6228.36875h5.507812v363.203125h-5.507812zm0 0" fill="none" stroke="#000" stroke-linejoin="round" stroke-miterlimit="10" stroke-width="3.98007" transform="matrix(.1 0 0 -.1 0 872.29)"/><path d="m123.277344 249.453125h.550781v-36.316406h-.550781zm0 0"/><use x="103.255" xlink:href="#W" y="278.987"/><use x="118.051484" xlink:href="#X" y="278.987"/><use x="132.337813" xlink:href="#T" y="278.987"/><use x="148.495625" xlink:href="#P" y="278.987"/><g clip-path="url(#k)"><path d="m3.632812 4977.704688h5945.46875" style="fill:none;stroke-width:7.2812;stroke-linecap:round;stroke-linejoin:round;stroke:#000;stroke-miterlimit:10" transform="matrix(.1 0 0 -.1 0 872.29)"/></g><g clip-path="url(#l)"><path d="m3.632812 5094.775h5945.46875" style="fill:none;stroke-width:7.2812;stroke-linecap:round;stroke-linejoin:round;stroke:#000;stroke-miterlimit:10" transform="matrix(.1 0 0 -.1 0 872.29)"/></g><g clip-path="url(#m)"><path d="m3.632812 5211.845313h5945.46875" style="fill:none;stroke-width:7.2812;stroke-linecap:round;stroke-linejoin:round;stroke:#000;stroke-miterlimit:10" transform="matrix(.1 0 0 -.1 0 872.29)"/></g><g clip-path="url(#n)"><path d="m3.632812 5328.915625h5945.46875" style="fill:none;stroke-width:7.2812;stroke-linecap:round;stroke-linejoin:round;stroke:#000;stroke-miterlimit:10" transform="matrix(.1 0 0 -.1 0 872.29)"/></g><g clip-path="url(#o)"><path d="m3.632812 5445.946875h5945.46875" style="fill:none;stroke-width:7.2812;stroke-linecap:round;stroke-linejoin:round;stroke:#000;stroke-miterlimit:10" transform="matrix(.1 0 0 -.1 0 872.29)"/></g><path d="m597.382812 4860.634375h221.914063" style="fill:none;stroke-width:18.9873;stroke-linecap:round;stroke-linejoin:round;stroke:#000;stroke-miterlimit:10" transform="matrix(.1 0 0 -.1 0 872.29)"/><path d="m5020.273438 5128.173438h5.507812v374.335937h-5.507812zm0 0" fill="none" stroke="#000" stroke-linejoin="round" stroke-miterlimit="10" stroke-width="3.98007" transform="matrix(.1 0 0 -.1 0 872.29)"/><path d="m502.027344 359.472656h.550781v-37.433594h-.550781zm0 0"/><use x="305.734" xlink:href="#al" y="362.812"/><use x="475.015" xlink:href="#Y" y="419.4604"/><use x="491.002084" xlink:href="#G" y="419.4604"/><use x="506.478621" xlink:href="#I" y="419.4604"/><use x="486.7142" xlink:href="#ak" y="362.812"/><use x="416.447" xlink:href="#ao" y="368.66513"/><path d="m4479.609375 5061.259375h5.46875v382.695313h-5.46875zm0 0" fill="none" stroke="#000" stroke-linejoin="round" stroke-miterlimit="10" stroke-width="3.98007" transform="matrix(.1 0 0 -.1 0 872.29)"/><path d="m447.960938 366.164062h.546874v-38.269531h-.546874zm0 0"/><use x="425.841" xlink:href="#X" y="419.461"/><use x="440.127329" xlink:href="#T" y="419.461"/><use x="433.42069" xlink:href="#al" y="368.6657"/><path d="m3839.882812 5119.814063h5.46875v382.695312h-5.46875zm0 0" fill="none" stroke="#000" stroke-linejoin="round" stroke-miterlimit="10" stroke-width="3.98007" transform="matrix(.1 0 0 -.1 0 872.29)"/><path d="m383.988281 360.308594h.546875v-38.269532h-.546875zm0 0"/><use x="347.074" xlink:href="#Y" y="419.461"/><use x="362.891187" xlink:href="#Z" y="419.461"/><use x="376.668141" xlink:href="#G" y="419.461"/><use x="392.655249" xlink:href="#X" y="419.461"/><use x="369.449" xlink:href="#al" y="362.8126"/><path d="m3202.734375 5119.814063h5.46875v382.695312h-5.46875zm0 0" fill="none" stroke="#000" stroke-linejoin="round" stroke-miterlimit="10" stroke-width="3.98007" transform="matrix(.1 0 0 -.1 0 872.29)"/><path d="m320.273438 360.308594h.546874v-38.269532h-.546874zm0 0"/><use x="298.411" xlink:href="#H" y="419.461"/><use x="312.187564" xlink:href="#G" y="419.461"/><path d="m3341.367188 4607.314063h71.445312v3.632812h-71.445312zm0 0" fill="none" stroke="#000" stroke-linejoin="round" stroke-miterlimit="10" stroke-width="5.82964" transform="matrix(.1 0 0 -.1 0 872.29)"/><path d="m334.136719 411.558594h7.144531v-.363282h-7.144531zm0 0"/><path d="m4129.0625 4607.314063h71.40625v3.632812h-71.40625zm0 0" fill="none" stroke="#000" stroke-linejoin="round" stroke-miterlimit="10" stroke-width="5.82964" transform="matrix(.1 0 0 -.1 0 872.29)"/><path d="m412.90625 411.558594h7.140625v-.363282h-7.140625zm0 0"/><path d="m4620.78125 4607.314063h71.445312v3.632812h-71.445312zm0 0" fill="none" stroke="#000" stroke-linejoin="round" stroke-miterlimit="10" stroke-width="5.82964" transform="matrix(.1 0 0 -.1 0 872.29)"/><path d="m462.078125 411.558594h7.144531v-.363282h-7.144531zm0 0"/><use x="540.246" xlink:href="#am" y="351.106"/><path d="m781.171875 4894.071875h5.507813v374.296875h-5.507813zm0 0" fill="none" stroke="#000" stroke-linejoin="round" stroke-miterlimit="10" stroke-width="3.98007" transform="matrix(.1 0 0 -.1 0 872.29)"/><path d="m78.117188 382.882812h.546874v-37.429687h-.546874zm0 0"/><use x="41.4957" xlink:href="#aa" y="419.461"/><use x="65.646478" xlink:href="#G" y="419.461"/><use x="81.80468" xlink:href="#P" y="419.461"/><use x="92.179676" xlink:href="#F" y="419.461"/><use x="62.8031" xlink:href="#ak" y="386.2251"/><use x="9.3648" xlink:href="#an" y="362.8126"/><use x="199.8808" xlink:href="#Q" y="419.461"/><use x="216.378064" xlink:href="#J" y="419.461"/><path d="m2712.617188 5061.259375h5.507812v382.695313h-5.507812zm0 0" fill="none" stroke="#000" stroke-linejoin="round" stroke-miterlimit="10" stroke-width="3.98007" transform="matrix(.1 0 0 -.1 0 872.29)"/><path d="m271.261719 366.164062h.550781v-38.269531h-.550781zm0 0"/><use x="256.289" xlink:href="#ab" y="419.461"/><use x="256.724547" xlink:href="#al" y="368.6657"/><path d="m2222.539062 5002.74375h5.46875v382.695313h-5.46875zm0 0" fill="none" stroke="#000" stroke-linejoin="round" stroke-miterlimit="10" stroke-width="3.98007" transform="matrix(.1 0 0 -.1 0 872.29)"/><path d="m222.253906 372.015625h.546875v-38.269531h-.546875zm0 0"/><use x="207.715" xlink:href="#al" y="374.519"/><use x="142.3834" xlink:href="#al" y="380.37213"/><use x="118.9022" xlink:href="#K" y="419.46123"/><use x="135.060012" xlink:href="#Q" y="419.46123"/><use x="150.877589" xlink:href="#Y" y="419.46123"/><use x="166.694776" xlink:href="#Z" y="419.46123"/><path d="m1569.21875 4944.228125h5.507812v382.695313h-5.507812zm0 0" fill="none" stroke="#000" stroke-linejoin="round" stroke-miterlimit="10" stroke-width="3.98007" transform="matrix(.1 0 0 -.1 0 872.29)"/><path d="m156.921875 377.867188h.550781v-38.269532h-.550781zm0 0"/><g clip-path="url(#p)"><path d="m3.632812 3572.978125h5945.46875" style="fill:none;stroke-width:7.2812;stroke-linecap:round;stroke-linejoin:round;stroke:#000;stroke-miterlimit:10" transform="matrix(.1 0 0 -.1 0 872.29)"/></g><g clip-path="url(#q)"><path d="m3.632812 3690.048438h5945.46875" style="fill:none;stroke-width:7.2812;stroke-linecap:round;stroke-linejoin:round;stroke:#000;stroke-miterlimit:10" transform="matrix(.1 0 0 -.1 0 872.29)"/></g><g clip-path="url(#r)"><path d="m3.632812 3807.11875h5945.46875" style="fill:none;stroke-width:7.2812;stroke-linecap:round;stroke-linejoin:round;stroke:#000;stroke-miterlimit:10" transform="matrix(.1 0 0 -.1 0 872.29)"/></g><g clip-path="url(#s)"><path d="m3.632812 3924.15h5945.46875" style="fill:none;stroke-width:7.2812;stroke-linecap:round;stroke-linejoin:round;stroke:#000;stroke-miterlimit:10" transform="matrix(.1 0 0 -.1 0 872.29)"/></g><g clip-path="url(#t)"><path d="m3.632812 4041.220313h5945.46875" style="fill:none;stroke-width:7.2812;stroke-linecap:round;stroke-linejoin:round;stroke:#000;stroke-miterlimit:10" transform="matrix(.1 0 0 -.1 0 872.29)"/></g><use x="311.69" xlink:href="#al" y="485.726"/><path d="m4942.929688 3723.446875h5.507812v374.296875h-5.507812zm0 0" style="fill:none;stroke-width:3.98007;stroke-linecap:round;stroke-linejoin:round;stroke:#000;stroke-miterlimit:10" transform="matrix(.1 0 0 -.1 0 872.29)"/><path d="m494.292969 499.945312h.546875v-37.429687h-.546875zm0 0"/><use x="463.113" xlink:href="#F" y="555.963"/><use x="470.766528" xlink:href="#G" y="555.963"/><use x="486.58369" xlink:href="#F" y="555.963"/><use x="495.257921" xlink:href="#F" y="555.963"/><use x="502.911449" xlink:href="#I" y="555.963"/><use x="478.9782" xlink:href="#ak" y="503.2857"/><path d="m4368.945312 3781.9625h5.46875v374.335938h-5.46875zm0 0" style="fill:none;stroke-width:3.98007;stroke-linecap:round;stroke-linejoin:round;stroke:#000;stroke-miterlimit:10" transform="matrix(.1 0 0 -.1 0 872.29)"/><path d="m436.894531 494.09375h.546875v-37.433594h-.546875zm0 0"/><use x="418.384" xlink:href="#X" y="555.963"/><use x="432.841032" xlink:href="#ac" y="555.963"/><use x="421.57853" xlink:href="#ak" y="497.4325"/><path d="m3643.789062 3418.876563h5.507813v354.804687h-5.507813zm0 0" style="fill:none;stroke-width:3.98007;stroke-linecap:round;stroke-linejoin:round;stroke:#000;stroke-miterlimit:10" transform="matrix(.1 0 0 -.1 0 872.29)"/><path d="m364.378906 530.402344h.550782v-35.480469h-.550782zm0 0"/><use x="359.369" xlink:href="#P" y="555.963"/><use x="368.893227" xlink:href="#ab" y="555.963"/><use x="364.18033" xlink:href="#ak" y="491.5794"/><path d="m3118.90625 3457.9h5.46875v382.695313h-5.46875zm0 0" style="fill:none;stroke-width:3.98007;stroke-linecap:round;stroke-linejoin:round;stroke:#000;stroke-miterlimit:10" transform="matrix(.1 0 0 -.1 0 872.29)"/><path d="m311.890625 526.5h.546875v-38.269531h-.546875zm0 0"/><use x="311.254" xlink:href="#G" y="555.963"/><path d="m1496.25 3242.275h71.445312v3.632813h-71.445312zm0 0" style="fill:none;stroke-width:5.82964;stroke-linecap:round;stroke-linejoin:round;stroke:#000;stroke-miterlimit:10" transform="matrix(.1 0 0 -.1 0 872.29)"/><path d="m149.625 548.0625h7.144531v-.363281h-7.144531zm0 0"/><path d="m2983.164062 3242.275h71.445313v3.632813h-71.445313zm0 0" style="fill:none;stroke-width:5.82964;stroke-linecap:round;stroke-linejoin:round;stroke:#000;stroke-miterlimit:10" transform="matrix(.1 0 0 -.1 0 872.29)"/><path d="m298.316406 548.0625h7.144532v-.363281h-7.144532zm0 0"/><path d="m3398.203125 3242.275h71.40625v3.632813h-71.40625zm0 0" style="fill:none;stroke-width:5.82964;stroke-linecap:round;stroke-linejoin:round;stroke:#000;stroke-miterlimit:10" transform="matrix(.1 0 0 -.1 0 872.29)"/><path d="m339.820312 548.0625h7.140626v-.363281h-7.140626zm0 0"/><path d="m3981.484375 3242.275h71.40625v3.632813h-71.40625zm0 0" style="fill:none;stroke-width:5.82964;stroke-linecap:round;stroke-linejoin:round;stroke:#000;stroke-miterlimit:10" transform="matrix(.1 0 0 -.1 0 872.29)"/><path d="m398.144531 548.0625h7.144531v-.363281h-7.144531zm0 0"/><path d="m4484.023438 3242.275h71.445312v3.632813h-71.445312zm0 0" style="fill:none;stroke-width:5.82964;stroke-linecap:round;stroke-linejoin:round;stroke:#000;stroke-miterlimit:10" transform="matrix(.1 0 0 -.1 0 872.29)"/><path d="m448.402344 548.0625h7.144531v-.363281h-7.144531zm0 0"/><use x="536.378" xlink:href="#am" y="491.579"/><path d="m781.171875 3723.446875h5.507813v374.296875h-5.507813zm0 0" style="fill:none;stroke-width:3.98007;stroke-linecap:round;stroke-linejoin:round;stroke:#000;stroke-miterlimit:10" transform="matrix(.1 0 0 -.1 0 872.29)"/><path d="m78.117188 499.945312h.546874v-37.429687h-.546874zm0 0"/><use x="51.5301" xlink:href="#aa" y="555.963"/><use x="75.681268" xlink:href="#O" y="555.963"/><use x="82.14416" xlink:href="#F" y="555.963"/><use x="62.8031" xlink:href="#ak" y="503.2857"/><use x="9.364753" xlink:href="#an" y="503.2857"/><use x="120.2031" xlink:href="#al" y="497.43257"/><path d="m2568.476562 3457.9h5.507813v382.695313h-5.507813zm0 0" style="fill:none;stroke-width:3.98007;stroke-linecap:round;stroke-linejoin:round;stroke:#000;stroke-miterlimit:10" transform="matrix(.1 0 0 -.1 0 872.29)"/><path d="m256.847656 526.5h.550782v-38.269531h-.550782zm0 0"/><use x="236.058" xlink:href="#L" y="555.963"/><use x="260.208766" xlink:href="#G" y="555.963"/><use x="276.366968" xlink:href="#Y" y="555.963"/><use x="256.6478" xlink:href="#al" y="485.7263"/><path d="m1968.398438 3773.603125h5.507812v382.695313h-5.507812zm0 0" style="fill:none;stroke-width:3.98007;stroke-linecap:round;stroke-linejoin:round;stroke:#000;stroke-miterlimit:10" transform="matrix(.1 0 0 -.1 0 872.29)"/><path d="m196.839844 494.929688h.550781v-38.269532h-.550781zm0 0"/><use x="162.563" xlink:href="#F" y="555.963"/><use x="170.55714" xlink:href="#ad" y="555.963"/><use x="186.715342" xlink:href="#K" y="555.963"/><use x="202.873154" xlink:href="#H" y="555.963"/><use x="182.3032" xlink:href="#al" y="497.4325"/><path d="m1347.421875 3773.603125h5.46875v382.695313h-5.46875zm0 0" style="fill:none;stroke-width:3.98007;stroke-linecap:round;stroke-linejoin:round;stroke:#000;stroke-miterlimit:10" transform="matrix(.1 0 0 -.1 0 872.29)"/><path d="m134.742188 494.929688h.546874v-38.269532h-.546874zm0 0"/><use x="111.859" xlink:href="#P" y="555.963"/><use x="121.382824" xlink:href="#Q" y="555.963"/><use x="137.369932" xlink:href="#V" y="555.963"/><g clip-path="url(#u)"><path d="m3.632812 2168.251563h5945.46875" style="fill:none;stroke-width:7.2812;stroke-linecap:round;stroke-linejoin:round;stroke:#000;stroke-miterlimit:10" transform="matrix(.1 0 0 -.1 0 872.29)"/></g><g clip-path="url(#v)"><path d="m3.632812 2285.321875h5945.46875" style="fill:none;stroke-width:7.2812;stroke-linecap:round;stroke-linejoin:round;stroke:#000;stroke-miterlimit:10" transform="matrix(.1 0 0 -.1 0 872.29)"/></g><g clip-path="url(#w)"><path d="m3.632812 2402.353125h5945.46875" style="fill:none;stroke-width:7.2812;stroke-linecap:round;stroke-linejoin:round;stroke:#000;stroke-miterlimit:10" transform="matrix(.1 0 0 -.1 0 872.29)"/></g><g clip-path="url(#x)"><path d="m3.632812 2519.423438h5945.46875" style="fill:none;stroke-width:7.2812;stroke-linecap:round;stroke-linejoin:round;stroke:#000;stroke-miterlimit:10" transform="matrix(.1 0 0 -.1 0 872.29)"/></g><g clip-path="url(#y)"><path d="m3.632812 2636.49375h5945.46875" style="fill:none;stroke-width:7.2812;stroke-linecap:round;stroke-linejoin:round;stroke:#000;stroke-miterlimit:10" transform="matrix(.1 0 0 -.1 0 872.29)"/></g><use x="307.223" xlink:href="#al" y="643.759"/><path d="m4924.6875 2143.134375h5.507812v374.296875h-5.507812zm0 0" style="fill:none;stroke-width:3.98007;stroke-linecap:round;stroke-linejoin:round;stroke:#000;stroke-miterlimit:10" transform="matrix(.1 0 0 -.1 0 872.29)"/><path d="m492.46875 657.976562h.550781v-37.429687h-.550781zm0 0"/><use x="469.199" xlink:href="#Y" y="696.436"/><use x="485.016162" xlink:href="#Q" y="696.436"/><use x="477.15564" xlink:href="#ak" y="661.3176"/><path d="m4341.5625 2201.65h5.507812v374.335938h-5.507812zm0 0" style="fill:none;stroke-width:3.98007;stroke-linecap:round;stroke-linejoin:round;stroke:#000;stroke-miterlimit:10" transform="matrix(.1 0 0 -.1 0 872.29)"/><path d="m434.15625 652.125h.550781v-37.433594h-.550781zm0 0"/><use x="411.568" xlink:href="#X" y="696.436"/><use x="426.025032" xlink:href="#ae" y="696.436"/><use x="418.84456" xlink:href="#ak" y="655.4645"/><path d="m3758.476562 2260.204688h5.507813v374.296875h-5.507813zm0 0" style="fill:none;stroke-width:3.98007;stroke-linecap:round;stroke-linejoin:round;stroke:#000;stroke-miterlimit:10" transform="matrix(.1 0 0 -.1 0 872.29)"/><path d="m375.847656 646.269531h.550782v-37.429687h-.550782zm0 0"/><use x="345.179" xlink:href="#Y" y="696.436"/><use x="360.996187" xlink:href="#Q" y="696.436"/><use x="377.49384" xlink:href="#J" y="696.436"/><use x="360.5341" xlink:href="#ak" y="649.6114"/><path d="m3217.617188 2310.321875h5.507812v382.695313h-5.507812zm0 0" style="fill:none;stroke-width:3.98007;stroke-linecap:round;stroke-linejoin:round;stroke:#000;stroke-miterlimit:10" transform="matrix(.1 0 0 -.1 0 872.29)"/><path d="m321.761719 641.257812h.550781v-38.269531h-.550781zm0 0"/><use x="311.635" xlink:href="#O" y="696.436"/><path d="m1686.601562 1837.548438h71.445313v3.632812h-71.445313zm0 0" style="fill:none;stroke-width:5.82964;stroke-linecap:round;stroke-linejoin:round;stroke:#000;stroke-miterlimit:10" transform="matrix(.1 0 0 -.1 0 872.29)"/><path d="m168.660156 688.535156h7.144532v-.363281h-7.144532zm0 0"/><path d="m2276.992188 1837.548438h71.445312v3.632812h-71.445312zm0 0" style="fill:none;stroke-width:5.82964;stroke-linecap:round;stroke-linejoin:round;stroke:#000;stroke-miterlimit:10" transform="matrix(.1 0 0 -.1 0 872.29)"/><path d="m227.699219 688.535156h7.144531v-.363281h-7.144531zm0 0"/><path d="m3280.664062 1837.548438h71.445313v3.632812h-71.445313zm0 0" style="fill:none;stroke-width:5.82964;stroke-linecap:round;stroke-linejoin:round;stroke:#000;stroke-miterlimit:10" transform="matrix(.1 0 0 -.1 0 872.29)"/><path d="m328.066406 688.535156h7.144532v-.363281h-7.144532zm0 0"/><path d="m3981.875 1837.548438h71.445312v3.632812h-71.445312zm0 0" style="fill:none;stroke-width:5.82964;stroke-linecap:round;stroke-linejoin:round;stroke:#000;stroke-miterlimit:10" transform="matrix(.1 0 0 -.1 0 872.29)"/><path d="m398.1875 688.535156h7.144531v-.363281h-7.144531zm0 0"/><path d="m4521.171875 1837.548438h71.445313v3.632812h-71.445313zm0 0" style="fill:none;stroke-width:5.82964;stroke-linecap:round;stroke-linejoin:round;stroke:#000;stroke-miterlimit:10" transform="matrix(.1 0 0 -.1 0 872.29)"/><path d="m452.117188 688.535156h7.144531v-.363281h-7.144531zm0 0"/><use x="535.466" xlink:href="#am" y="632.053"/><path d="m781.171875 2318.720313h5.507813v374.296875h-5.507813zm0 0" style="fill:none;stroke-width:3.98007;stroke-linecap:round;stroke-linejoin:round;stroke:#000;stroke-miterlimit:10" transform="matrix(.1 0 0 -.1 0 872.29)"/><path d="m78.117188 640.417969h.546874v-37.429688h-.546874zm0 0"/><use x="53.9969" xlink:href="#af" y="696.436"/><use x="73.215644" xlink:href="#X" y="696.436"/><use x="62.80315" xlink:href="#ak" y="643.7583"/><use x="9.364803" xlink:href="#an" y="643.7583"/><use x="126.99145" xlink:href="#al" y="649.61143"/><path d="m2684.492188 2368.876563h5.507812v382.695312h-5.507812zm0 0" style="fill:none;stroke-width:3.98007;stroke-linecap:round;stroke-linejoin:round;stroke:#000;stroke-miterlimit:10" transform="matrix(.1 0 0 -.1 0 872.29)"/><path d="m268.449219 635.402344h.550781v-38.269532h-.550781zm0 0"/><use x="240.635" xlink:href="#P" y="696.436"/><use x="250.159227" xlink:href="#Q" y="696.436"/><use x="266.317038" xlink:href="#M" y="696.436"/><use x="253.9123" xlink:href="#al" y="637.9051"/><path d="m2086.484375 2193.290625h5.46875v382.695313h-5.46875zm0 0" style="fill:none;stroke-width:3.98007;stroke-linecap:round;stroke-linejoin:round;stroke:#000;stroke-miterlimit:10" transform="matrix(.1 0 0 -.1 0 872.29)"/><path d="m208.648438 652.960938h.546874v-38.269532h-.546874zm0 0"/><use x="181.598" xlink:href="#L" y="696.436"/><use x="205.748766" xlink:href="#Q" y="696.436"/><use x="194.1093" xlink:href="#al" y="655.4645"/><path d="m1415.3125 2251.80625h5.46875v382.695313h-5.46875zm0 0" style="fill:none;stroke-width:3.98007;stroke-linecap:round;stroke-linejoin:round;stroke:#000;stroke-miterlimit:10" transform="matrix(.1 0 0 -.1 0 872.29)"/><path d="m141.53125 647.109375h.546875v-38.269531h-.546875zm0 0"/><use x="106.402" xlink:href="#L" y="696.436"/><use x="130.552778" xlink:href="#G" y="696.436"/><use x="146.710589" xlink:href="#Y" y="696.436"/><g clip-path="url(#z)"><path d="m3.632812 763.525h5945.46875" style="fill:none;stroke-width:7.2812;stroke-linecap:round;stroke-linejoin:round;stroke:#000;stroke-miterlimit:10" transform="matrix(.1 0 0 -.1 0 872.29)"/></g><g clip-path="url(#A)"><path d="m3.632812 880.595313h5945.46875" style="fill:none;stroke-width:7.2812;stroke-linecap:round;stroke-linejoin:round;stroke:#000;stroke-miterlimit:10" transform="matrix(.1 0 0 -.1 0 872.29)"/></g><g clip-path="url(#B)"><path d="m3.632812 997.626563h5945.46875" style="fill:none;stroke-width:7.2812;stroke-linecap:round;stroke-linejoin:round;stroke:#000;stroke-miterlimit:10" transform="matrix(.1 0 0 -.1 0 872.29)"/></g><g clip-path="url(#C)"><path d="m3.632812 1114.696875h5945.46875" style="fill:none;stroke-width:7.2812;stroke-linecap:round;stroke-linejoin:round;stroke:#000;stroke-miterlimit:10" transform="matrix(.1 0 0 -.1 0 872.29)"/></g><g clip-path="url(#D)"><path d="m3.632812 1231.767188h5945.46875" style="fill:none;stroke-width:7.2812;stroke-linecap:round;stroke-linejoin:round;stroke:#000;stroke-miterlimit:10" transform="matrix(.1 0 0 -.1 0 872.29)"/></g><g clip-path="url(#E)"><path d="m5930.898438 763.525v468.242188" fill="none" stroke="#000" stroke-linejoin="round" stroke-miterlimit="10" stroke-width="43.7223" transform="matrix(.1 0 0 -.1 0 872.29)"/></g><path d="m5880.234375 763.525v468.242188" fill="none" stroke="#000" stroke-linejoin="round" stroke-miterlimit="10" stroke-width="13.8483" transform="matrix(.1 0 0 -.1 0 872.29)"/><use x="429.995" xlink:href="#ao" y="790.0853"/><path d="m4615.078125 847.079688h5.46875v382.695312h-5.46875zm0 0" fill="none" stroke="#000" stroke-linejoin="round" stroke-miterlimit="10" stroke-width="3.98007" transform="matrix(.1 0 0 -.1 0 872.29)"/><path d="m461.507812 787.582031h.546876v-38.269531h-.546876zm0 0"/><use x="443.302" xlink:href="#ag" y="837.0267"/><use x="449.76488" xlink:href="#ad" y="837.0267"/><use x="446.96841" xlink:href="#al" y="790.0853"/><path d="m3953.203125 913.99375h5.507813v374.296875h-5.507813zm0 0" fill="none" stroke="#000" stroke-linejoin="round" stroke-miterlimit="10" stroke-width="3.98007" transform="matrix(.1 0 0 -.1 0 872.29)"/><path d="m395.320312 780.890625h.550782v-37.429687h-.550782zm0 0"/><use x="376.729" xlink:href="#ag" y="837.0267"/><use x="383.19188" xlink:href="#G" y="837.0267"/><use x="380.00791" xlink:href="#ak" y="784.2322"/><path d="m3283.632812 972.509375h5.46875v374.335938h-5.46875zm0 0" fill="none" stroke="#000" stroke-linejoin="round" stroke-miterlimit="10" stroke-width="3.98007" transform="matrix(.1 0 0 -.1 0 872.29)"/><path d="m328.363281 775.039062h.546875v-37.433593h-.546875zm0 0"/><use x="299.394" xlink:href="#ah" y="837.0267"/><use x="320.142818" xlink:href="#Q" y="837.0267"/><use x="336.30102" xlink:href="#ag" y="837.0267"/><use x="313.0479" xlink:href="#ak" y="778.379"/><path d="m1122.421875 431.65h71.445313v3.632813h-71.445313zm0 0" fill="none" stroke="#000" stroke-linejoin="round" stroke-miterlimit="10" stroke-width="5.82964" transform="matrix(.1 0 0 -.1 0 872.29)"/><path d="m112.242188 829.125h7.140624v-.363281h-7.140624zm0 0"/><path d="m1583.867188 431.65h71.445312v3.632813h-71.445312zm0 0" fill="none" stroke="#000" stroke-linejoin="round" stroke-miterlimit="10" stroke-width="5.82964" transform="matrix(.1 0 0 -.1 0 872.29)"/><path d="m158.386719 829.125h7.144531v-.363281h-7.144531zm0 0"/><path d="m2261.992188 431.65h71.445312v3.632813h-71.445312zm0 0" fill="none" stroke="#000" stroke-linejoin="round" stroke-miterlimit="10" stroke-width="5.82964" transform="matrix(.1 0 0 -.1 0 872.29)"/><path d="m226.199219 829.125h7.144531v-.363281h-7.144531zm0 0"/><path d="m3561.757812 431.65h71.40625v3.632813h-71.40625zm0 0" fill="none" stroke="#000" stroke-linejoin="round" stroke-miterlimit="10" stroke-width="5.82964" transform="matrix(.1 0 0 -.1 0 872.29)"/><path d="m356.175781 829.125h7.140625v-.363281h-7.140625zm0 0"/><path d="m4177.539062 431.65h71.445313v3.632813h-71.445313zm0 0" fill="none" stroke="#000" stroke-linejoin="round" stroke-miterlimit="10" stroke-width="5.82964" transform="matrix(.1 0 0 -.1 0 872.29)"/><path d="m417.753906 829.125h7.140625v-.363281h-7.140625zm0 0"/><path d="m4816.71875 431.65h71.445312v3.632813h-71.445312zm0 0" fill="none" stroke="#000" stroke-linejoin="round" stroke-miterlimit="10" stroke-width="5.82964" transform="matrix(.1 0 0 -.1 0 872.29)"/><path d="m481.671875 829.125h7.144531v-.363281h-7.144531zm0 0"/><use x="508.064" xlink:href="#ap" y="784.2322"/><use x="504.56712" xlink:href="#V" y="837.0267"/><use x="511.03" xlink:href="#Q" y="837.0267"/><use x="526.847552" xlink:href="#ai" y="837.0267"/><path d="m781.171875 738.407813h5.507813v374.296875h-5.507813zm0 0" fill="none" stroke="#000" stroke-linejoin="round" stroke-miterlimit="10" stroke-width="3.98007" transform="matrix(.1 0 0 -.1 0 872.29)"/><path d="m78.117188 798.449219h.546874v-37.429688h-.546874zm0 0"/><use x="39.3699" xlink:href="#aa" y="837.0267"/><use x="63.520678" xlink:href="#O" y="837.0267"/><use x="69.98357" xlink:href="#K" y="837.0267"/><use x="86.141772" xlink:href="#M" y="837.0267"/><use x="62.8031" xlink:href="#ak" y="801.7912"/><use x="9.3648" xlink:href="#an" y="784.2322"/><use x="190.8588" xlink:href="#al" y="790.08533"/><path d="m2664.921875 905.595313h5.46875v382.695312h-5.46875zm0 0" fill="none" stroke="#000" stroke-linejoin="round" stroke-miterlimit="10" stroke-width="3.98007" transform="matrix(.1 0 0 -.1 0 872.29)"/><path d="m266.492188 781.730469h.546874v-38.269531h-.546874zm0 0"/><use x="240.972" xlink:href="#H" y="837.0267"/><use x="254.748954" xlink:href="#T" y="837.0267"/><use x="270.225907" xlink:href="#ai" y="837.0267"/><use x="251.9536" xlink:href="#al" y="784.2322"/><path d="m2053.945312 847.079688h5.507813v382.695312h-5.507813zm0 0" fill="none" stroke="#000" stroke-linejoin="round" stroke-miterlimit="10" stroke-width="3.98007" transform="matrix(.1 0 0 -.1 0 872.29)"/><path d="m205.394531 787.582031h.550781v-38.269531h-.550781zm0 0"/><use x="178.432" xlink:href="#P" y="837.0267"/><use x="187.956214" xlink:href="#aj" y="837.0267"/><use x="204.114026" xlink:href="#H" y="837.0267"/><path d="m1443.007812 788.564063h5.507813v382.695312h-5.507813zm0 0" fill="none" stroke="#000" stroke-linejoin="round" stroke-miterlimit="10" stroke-width="3.98007" transform="matrix(.1 0 0 -.1 0 872.29)"/><path d="m144.300781 793.4375h.550781v-38.269531h-.550781zm0 0"/><use x="129.328" xlink:href="#aj" y="837.0267"/><use x="129.763547" xlink:href="#al" y="795.938"/></svg>