<svg height="473.01em" viewBox="0 0 595.28 473.01" width="595.28em" xmlns="http://www.w3.org/2000/svg" xmlns:xlink="http://www.w3.org/1999/xlink"><clipPath id="a"><path d="m0 63h595.28125v2h-595.28125zm0 0"/></clipPath><clipPath id="b"><path d="m0 54h595.28125v2h-595.28125zm0 0"/></clipPath><clipPath id="c"><path d="m0 44h595.28125v2h-595.28125zm0 0"/></clipPath><clipPath id="d"><path d="m0 35h595.28125v2h-595.28125zm0 0"/></clipPath><clipPath id="e"><path d="m0 25h595.28125v2h-595.28125zm0 0"/></clipPath><clipPath id="f"><path d="m594 25h1.28125v40h-1.28125zm0 0"/></clipPath><clipPath id="g"><path d="m0 177h595.28125v2h-595.28125zm0 0"/></clipPath><clipPath id="h"><path d="m0 167h595.28125v2h-595.28125zm0 0"/></clipPath><clipPath id="i"><path d="m0 158h595.28125v2h-595.28125zm0 0"/></clipPath><clipPath id="j"><path d="m0 149h595.28125v1h-595.28125zm0 0"/></clipPath><clipPath id="k"><path d="m0 139h595.28125v2h-595.28125zm0 0"/></clipPath><clipPath id="l"><path d="m594 139h1.28125v40h-1.28125zm0 0"/></clipPath><clipPath id="m"><path d="m0 291h595.28125v1h-595.28125zm0 0"/></clipPath><clipPath id="n"><path d="m0 281h595.28125v2h-595.28125zm0 0"/></clipPath><clipPath id="o"><path d="m0 272h595.28125v1h-595.28125zm0 0"/></clipPath><clipPath id="p"><path d="m0 262h595.28125v2h-595.28125zm0 0"/></clipPath><clipPath id="q"><path d="m0 253h595.28125v1h-595.28125zm0 0"/></clipPath><clipPath id="r"><path d="m594 252h1.28125v40h-1.28125zm0 0"/></clipPath><clipPath id="s"><path d="m0 404h595.28125v2h-595.28125zm0 0"/></clipPath><clipPath id="t"><path d="m0 395h595.28125v1h-595.28125zm0 0"/></clipPath><clipPath id="u"><path d="m0 385h595.28125v2h-595.28125zm0 0"/></clipPath><clipPath id="v"><path d="m0 376h595.28125v1h-595.28125zm0 0"/></clipPath><clipPath id="w"><path d="m0 366h595.28125v2h-595.28125zm0 0"/></clipPath><clipPath id="x"><path d="m591 365h4.28125v42h-4.28125zm0 0"/></clipPath><symbol id="y" overflow="visible"><path d="m8.40625-5.109375c-1.59375 0-3.109375.53125-4.46875 1.359375-1.78125 1.0625-3.9375 2.921875-3.9375 5.609375 0 2.234375 1.96875 3.25 3.96875 3.25 1.59375 0 3.109375-.53125 4.46875-1.359375 1.78125-1.0625 3.90625-2.921875 3.90625-5.609375 0-2.234375-1.9375-3.25-3.9375-3.25zm0 0"/></symbol><symbol id="z" overflow="visible"><path d="m.953125-1.671875c.03125-1.25.859375-2.34375 2.03125-2.34375 1.140625 0 1.671875 1.328125 1.671875 2.609375 0 2.234375-1.890625 3.828125-3.640625 5.265625-.0625-.828125-.140625-1.65625-.140625-2.5 0-.140625.03125-.265625.03125-.40625zm-1.90625-15.859375.421875 22.6875c0 .453125.34375.78125.796875.78125.6875 0 .984375-.78125 1.515625-1.203125 2.390625-1.9375 5.796875-3.296875 5.796875-6.40625 0-2.03125-1.515625-3.78125-3.53125-3.78125-1.203125 0-2.34375.421875-3.328125 1.140625l.234375-13.21875c-.3125-.15625-.609375-.265625-.953125-.265625s-.640625.109375-.953125.265625zm0 0"/></symbol><symbol id="A" overflow="visible"><path d="m14.15625-9.84375c-.609375-2.65625-1.328125-5.265625-2.078125-7.875 3.640625-4.125 6.921875-8.359375 6.921875-13.8125 0-4.28125-2.34375-10.421875-4.984375-13.59375-.203125-.15625-.421875-.15625-.609375 0-3.59375 2.609375-5.6875 6.765625-5.6875 11.171875 0 1.96875.046875 3.890625.265625 5.828125.265625 2.453125.90625 4.84375 1.59375 7.234375-4.46875 5.0625-9.5 9.90625-9.5 16.65625 0 7.609375 5.484375 14.078125 12.609375 14.078125 1.171875 0 2.265625-.109375 3.359375-.296875.125 1.203125.1875 2.421875.1875 3.625 0 .6875-.03125 1.328125-.0625 2.015625-.234375 3.75-2.546875 7.1875-6.0625 7.265625-.03125 0-.078125.03125-.109375.03125-1.9375 0-3.609375-1.09375-4.59375-2.640625.421875.1875.875.328125 1.328125.328125 1.96875 0 3.59375-1.625 3.59375-3.59375 0-2.109375-1.546875-3.9375-3.59375-3.9375-2.234375 0-4.234375 1.75-4.234375 3.9375 0 4.09375 3.296875 7.390625 7.375 7.390625 4.46875 0 7.546875-4.015625 7.8125-8.5625.03125-.71875.03125-1.390625.03125-2.125 0-1.359375-.078125-2.71875-.1875-4.078125.984375-.3125 1.921875-.765625 2.765625-1.40625 2.796875-2.078125 4.046875-5 4.046875-7.875 0-5-3.78125-9.796875-9.609375-9.796875-.203125 0-.390625.03125-.578125.03125zm3.21875 17.609375c-.53125-4.703125-1.390625-9.171875-2.34375-13.59375 4.15625.34375 6.78125 3.828125 6.78125 7.296875 0 2.65625-1.828125 5.390625-4.4375 6.296875zm-14.6875-8.9375c0-6.0625 4.09375-10.640625 8.171875-15.21875.609375 2.234375 1.21875 4.46875 1.75 6.734375-3.828125.875-5.984375 4.09375-5.984375 7.421875 0 2.65625 1.359375 5.34375 4.390625 6.96875.109375.03125.234375.078125.34375.078125.421875 0 .75-.390625.75-.796875 0-.1875-.109375-.375-.265625-.53125-2.109375-1.21875-3.09375-3.03125-3.09375-4.703125 0-2.21875 1.734375-4.234375 4.734375-4.578125.984375 4.546875 1.84375 9.046875 2.421875 13.90625-1.03125.140625-2.046875.21875-3.109375.21875-5.15625 0-10.109375-4.359375-10.109375-9.5zm12.875-38.578125c.640625 2 .796875 2.984375.796875 5.1875 0 4.8125-2.546875 8.625-5.640625 12.296875-.6875-2.375-1.25-4.6875-1.25-7.5625 0-4.203125 2.34375-8.03125 6.09375-9.921875zm0 0"/></symbol><symbol id="B" overflow="visible"><path d="m-2.390625-1.78125c0 1.328125 1.0625 2.390625 2.390625 2.390625s2.390625-1.0625 2.390625-2.390625-1.0625-2.390625-2.390625-2.390625-2.390625 1.0625-2.390625 2.390625zm2.390625-11.84375c-5.875 0-12.453125 6.546875-12.453125 13.703125 0 .296875.296875.53125.609375.53125.265625 0 .5625-.1875.640625-.609375.984375-5.640625 5.5625-10.03125 11.203125-10.03125s10.21875 4.390625 11.203125 10.03125c.078125.421875.375.609375.640625.609375.3125 0 .609375-.234375.609375-.53125 0-7.15625-6.546875-13.703125-12.453125-13.703125zm0 0"/></symbol><symbol id="C" overflow="visible"><path d="m1.640625-12.25v12.25h1.953125v-6.75c0-2.5 1.3125-4.140625 3.328125-4.140625 1.546875 0 2.515625.9375 2.515625 2.40625v8.484375h1.953125v-9.25c0-2.046875-1.53125-3.34375-3.890625-3.34375-1.8125 0-2.984375.703125-4.0625 2.40625v-2.0625zm0 0"/></symbol><symbol id="D" overflow="visible"><path d="m9.0625-12.25-3.375 9.53125-3.140625-9.53125h-2.078125l4.140625 12.296875-.75 1.9375c-.328125.875-.75 1.1875-1.5625 1.1875-.328125 0-.609375-.046875-1.03125-.140625v1.765625c.390625.203125.796875.296875 1.3125.296875.625 0 1.296875-.203125 1.8125-.578125.609375-.453125.96875-.96875 1.34375-1.9375l5.4375-14.828125zm0 0"/></symbol><symbol id="E" overflow="visible"><path d="m11.265625 0v-12.25h-1.9375v6.9375c0 2.5-1.3125 4.140625-3.34375 4.140625-1.546875 0-2.53125-.9375-2.53125-2.40625v-8.671875h-1.9375v9.4375c0 2.046875 1.515625 3.34375 3.90625 3.34375 1.796875 0 2.953125-.625 4.09375-2.234375v1.703125zm0 0"/></symbol><symbol id="F" overflow="visible"><path d="m9.4375-12.25v1.78125c-.96875-1.46875-2.046875-2.125-3.59375-2.125-2.96875 0-5.03125 2.75-5.03125 6.6875 0 2.046875.5 3.546875 1.546875 4.78125.90625 1.078125 2.078125 1.65625 3.34375 1.65625 1.46875 0 2.53125-.640625 3.546875-2.1875v.625c0 3.28125-.90625 4.484375-3.34375 4.484375-1.65625 0-2.515625-.640625-2.703125-2.046875h-1.984375c.1875 2.265625 1.984375 3.6875 4.640625 3.6875 1.8125 0 3.296875-.578125 4.09375-1.5625.9375-1.140625 1.296875-2.671875 1.296875-5.546875v-10.234375zm-3.40625 1.453125c2.0625 0 3.21875 1.734375 3.21875 4.84375 0 2.96875-1.1875 4.6875-3.21875 4.6875-2.015625 0-3.171875-1.75-3.171875-4.765625 0-2.984375 1.15625-4.765625 3.171875-4.765625zm0 0"/></symbol><symbol id="G" overflow="visible"><path d="m6.359375-12.59375c-3.453125 0-5.515625 2.453125-5.515625 6.5625 0 4.140625 2.0625 6.5625 5.53125 6.5625s5.546875-2.453125 5.546875-6.46875c0-4.25-2.015625-6.65625-5.5625-6.65625zm.015625 1.796875c2.203125 0 3.515625 1.796875 3.515625 4.84375 0 2.890625-1.359375 4.6875-3.515625 4.6875-2.171875 0-3.5-1.796875-3.5-4.765625s1.328125-4.765625 3.5-4.765625zm0 0"/></symbol><symbol id="H" overflow="visible"><path d="m11.984375-5.46875c0-1.875-.140625-3-.484375-3.90625-.796875-2.015625-2.671875-3.21875-4.953125-3.21875-3.421875 0-5.609375 2.59375-5.609375 6.640625 0 4.03125 2.09375 6.484375 5.5625 6.484375 2.796875 0 4.75-1.578125 5.234375-4.25h-1.96875c-.53125 1.609375-1.625 2.453125-3.203125 2.453125-1.234375 0-2.28125-.5625-2.9375-1.59375-.46875-.6875-.640625-1.390625-.65625-2.609375zm-8.96875-1.59375c.15625-2.265625 1.546875-3.734375 3.5-3.734375 2 0 3.375 1.546875 3.375 3.734375zm0 0"/></symbol><symbol id="I" overflow="visible"><path d="m3.546875-17.046875h-1.953125v17.046875h1.953125zm0 0"/></symbol><symbol id="J" overflow="visible"><path d="m1.640625-12.25v12.25h1.953125v-7.6875c0-1.78125 1.296875-3.203125 2.875-3.203125 1.453125 0 2.28125.890625 2.28125 2.453125v8.4375h1.953125v-7.6875c0-1.78125 1.28125-3.203125 2.875-3.203125 1.421875 0 2.265625.90625 2.265625 2.453125v8.4375h1.96875v-9.1875c0-2.203125-1.265625-3.40625-3.546875-3.40625-1.640625 0-2.625.484375-3.765625 1.859375-.734375-1.296875-1.71875-1.859375-3.296875-1.859375-1.640625 0-2.734375.609375-3.765625 2.078125v-1.734375zm0 0"/></symbol><symbol id="K" overflow="visible"><path d="m12.5-1.140625c-.203125.046875-.296875.046875-.421875.046875-.671875 0-1.046875-.359375-1.046875-.96875v-7.1875c0-2.1875-1.59375-3.34375-4.609375-3.34375-1.796875 0-3.21875.515625-4.0625 1.421875-.5625.625-.796875 1.328125-.84375 2.546875h1.96875c.15625-1.5 1.046875-2.171875 2.875-2.171875 1.78125 0 2.734375.65625 2.734375 1.828125v.5c-.03125.84375-.4375 1.15625-2.03125 1.359375-2.765625.359375-3.1875.453125-3.9375.75-1.421875.609375-2.140625 1.6875-2.140625 3.28125 0 2.21875 1.546875 3.609375 4.015625 3.609375 1.546875 0 2.78125-.53125 4.15625-1.796875.140625 1.265625.75 1.796875 2.015625 1.796875.421875 0 .671875-.046875 1.328125-.203125zm-3.40625-2.71875c0 .65625-.1875 1.046875-.765625 1.59375-.796875.71875-1.765625 1.09375-2.90625 1.09375-1.515625 0-2.40625-.71875-2.40625-1.953125 0-1.296875.84375-1.953125 2.9375-2.25 2.09375-.28125 2.484375-.375 3.140625-.671875zm-1.984375-13.4375-2.265625 3.453125h1.390625l3.484375-3.453125zm0 0"/></symbol><symbol id="L" overflow="visible"><path d="m1.609375-12.25v12.25h1.96875v-6.359375c.015625-2.9375 1.234375-4.25 3.921875-4.1875v-1.984375c-.328125-.046875-.515625-.0625-.75-.0625-1.25 0-2.21875.75-3.34375 2.5625v-2.21875zm0 0"/></symbol><symbol id="M" overflow="visible"><path d="m11.578125-17.046875h-1.953125v6.34375c-.8125-1.234375-2.125-1.890625-3.765625-1.890625-3.171875 0-5.25 2.546875-5.25 6.453125 0 4.125 2.015625 6.671875 5.328125 6.671875 1.6875 0 2.84375-.625 3.90625-2.140625v1.609375h1.734375zm-5.390625 6.265625c2.109375 0 3.4375 1.859375 3.4375 4.796875 0 2.828125-1.34375 4.703125-3.40625 4.703125-2.15625 0-3.578125-1.890625-3.578125-4.75 0-2.84375 1.421875-4.75 3.546875-4.75zm0 0"/></symbol><symbol id="N" overflow="visible"><path d="m5.9375-12.25h-2.015625v-3.359375h-1.9375v3.359375h-1.65625v1.59375h1.65625v9.25c0 1.265625.84375 1.9375 2.359375 1.9375.515625 0 .9375-.046875 1.59375-.15625v-1.640625c-.28125.078125-.53125.09375-.9375.09375-.84375 0-1.078125-.234375-1.078125-1.09375v-8.390625h2.015625zm0 0"/></symbol><symbol id="O" overflow="visible"><path d="m2.03125-2.4375v2.4375h1.40625v.421875c0 1.609375-.3125 2.078125-1.40625 2.125v.890625c1.546875.046875 2.453125-1.078125 2.453125-3.0625v-2.8125zm0 0"/></symbol><symbol id="P" overflow="visible"><path d="m11.078125-5.125 1.75 5.125h2.4375l-5.984375-17.046875h-2.8125l-6.078125 17.046875h2.328125l1.796875-5.125zm-.609375-1.8125h-5.421875l2.8125-7.765625zm0 0"/></symbol><symbol id="Q" overflow="visible"><path d="m3.5-12.25h-1.9375v12.25h1.9375zm0-4.796875h-1.953125v2.453125h1.953125zm0 0"/></symbol><symbol id="R" overflow="visible"><path d="m12.5-1.140625c-.203125.046875-.296875.046875-.421875.046875-.671875 0-1.046875-.359375-1.046875-.96875v-7.1875c0-2.1875-1.59375-3.34375-4.609375-3.34375-1.796875 0-3.21875.515625-4.0625 1.421875-.5625.625-.796875 1.328125-.84375 2.546875h1.96875c.15625-1.5 1.046875-2.171875 2.875-2.171875 1.78125 0 2.734375.65625 2.734375 1.828125v.5c-.03125.84375-.4375 1.15625-2.03125 1.359375-2.765625.359375-3.1875.453125-3.9375.75-1.421875.609375-2.140625 1.6875-2.140625 3.28125 0 2.21875 1.546875 3.609375 4.015625 3.609375 1.546875 0 2.78125-.53125 4.15625-1.796875.140625 1.265625.75 1.796875 2.015625 1.796875.421875 0 .671875-.046875 1.328125-.203125zm-3.40625-2.71875c0 .65625-.1875 1.046875-.765625 1.59375-.796875.71875-1.765625 1.09375-2.90625 1.09375-1.515625 0-2.40625-.71875-2.40625-1.953125 0-1.296875.84375-1.953125 2.9375-2.25 2.09375-.28125 2.484375-.375 3.140625-.671875zm0 0"/></symbol><symbol id="S" overflow="visible"><path d="m1.265625 5.09375h1.953125v-6.375c1.03125 1.265625 2.1875 1.8125 3.765625 1.8125 3.1875 0 5.234375-2.546875 5.234375-6.4375 0-4.125-2-6.6875-5.25-6.6875-1.65625 0-3 .75-3.90625 2.1875v-1.84375h-1.796875zm5.375-15.875c2.140625 0 3.546875 1.90625 3.546875 4.828125 0 2.78125-1.421875 4.671875-3.546875 4.671875-2.078125 0-3.421875-1.875-3.421875-4.75s1.34375-4.75 3.421875-4.75zm0 0"/></symbol><symbol id="T" overflow="visible"><path d="m6.03125-12.25h-2.03125v-1.921875c0-.8125.4375-1.234375 1.359375-1.234375.15625 0 .234375 0 .671875.03125v-1.625c-.4375-.09375-.703125-.109375-1.09375-.109375-1.8125 0-2.875 1.03125-2.875 2.78125v2.078125h-1.640625v1.59375h1.640625v10.65625h1.9375v-10.65625h2.03125zm0 0"/></symbol><symbol id="U" overflow="visible"><path d="m11.984375-5.46875c0-1.875-.140625-3-.484375-3.90625-.796875-2.015625-2.671875-3.21875-4.953125-3.21875-3.421875 0-5.609375 2.59375-5.609375 6.640625 0 4.03125 2.09375 6.484375 5.5625 6.484375 2.796875 0 4.75-1.578125 5.234375-4.25h-1.96875c-.53125 1.609375-1.625 2.453125-3.203125 2.453125-1.234375 0-2.28125-.5625-2.9375-1.59375-.46875-.6875-.640625-1.390625-.65625-2.609375zm-8.96875-1.59375c.15625-2.265625 1.546875-3.734375 3.5-3.734375 2 0 3.375 1.546875 3.375 3.734375zm4.1875-10.234375-2.25 3.453125h1.40625l3.484375-3.453125zm0 0"/></symbol><symbol id="V" overflow="visible"><path d="m10.234375-8.828125c-.015625-2.421875-1.609375-3.765625-4.4375-3.765625-2.859375 0-4.703125 1.46875-4.703125 3.734375 0 1.921875.984375 2.828125 3.890625 3.53125l1.8125.4375c1.359375.328125 1.90625.828125 1.90625 1.6875 0 1.171875-1.15625 1.9375-2.859375 1.9375-1.046875 0-1.9375-.296875-2.4375-.8125-.296875-.359375-.4375-.703125-.546875-1.5625h-2.0625c.09375 2.828125 1.6875 4.171875 4.890625 4.171875 3.078125 0 5.046875-1.515625 5.046875-3.875 0-1.828125-1.03125-2.828125-3.46875-3.40625l-1.859375-.453125c-1.59375-.375-2.28125-.890625-2.28125-1.75 0-1.140625 1.015625-1.84375 2.609375-1.84375 1.5625 0 2.40625.671875 2.453125 1.96875zm0 0"/></symbol><symbol id="W" overflow="visible"><path d="m1.265625-17.046875v17.046875h1.75v-1.5625c.9375 1.421875 2.171875 2.09375 3.875 2.09375 3.234375 0 5.328125-2.640625 5.328125-6.703125 0-3.96875-1.984375-6.421875-5.234375-6.421875-1.671875 0-2.875.625-3.78125 2v-6.453125zm5.34375 6.265625c2.171875 0 3.578125 1.90625 3.578125 4.828125 0 2.78125-1.4375 4.671875-3.578125 4.671875-2.078125 0-3.40625-1.875-3.40625-4.75s1.328125-4.75 3.40625-4.75zm0 0"/></symbol><symbol id="X" overflow="visible"><path d="m6.359375-12.59375c-3.453125 0-5.515625 2.453125-5.515625 6.5625 0 4.140625 2.0625 6.5625 5.53125 6.5625s5.546875-2.453125 5.546875-6.46875c0-4.25-2.015625-6.65625-5.5625-6.65625zm.015625 1.796875c2.203125 0 3.515625 1.796875 3.515625 4.84375 0 2.890625-1.359375 4.6875-3.515625 4.6875-2.171875 0-3.5-1.796875-3.5-4.765625s1.328125-4.765625 3.5-4.765625zm-.671875-5.921875h-2.4375v2.40625h2.4375zm3.78125 0h-2.421875v2.40625h2.421875zm0 0"/></symbol><symbol id="Y" overflow="visible"><path d="m10.359375-12.25h-9.140625v1.703125h6.828125l-7.328125 8.796875v1.75h9.96875v-1.703125h-7.609375l7.28125-8.8125zm0 0"/></symbol><symbol id="Z" overflow="visible"><path d="m4.140625-12.25h-1.9375v12.25h1.9375zm-.375-5.046875-2.25 3.453125h1.40625l3.484375-3.453125zm0 0"/></symbol><symbol id="aa" overflow="visible"><path d="m6.65625 0 4.703125-12.25h-2.203125l-3.453125 9.9375-3.265625-9.9375h-2.203125l4.296875 12.25zm0 0"/></symbol><symbol id="ab" overflow="visible"><path d="m1.640625-12.25v14.03125c0 1.203125-.375 1.609375-1.59375 1.609375-.140625 0-.203125 0-.46875-.03125v1.671875c.234375.046875.359375.0625.65625.0625 2.203125 0 3.34375-.859375 3.34375-2.546875v-14.796875zm1.9375-4.796875h-1.9375v2.453125h1.9375zm0 0"/></symbol><symbol id="ac" overflow="visible"><path d="m15.09375-17.046875h-2.046875v13.9375l-8.90625-13.9375h-2.359375v17.046875h2.046875v-13.8125l8.8125 13.8125h2.453125zm0 0"/></symbol><symbol id="ad" overflow="visible"><path d="m1.640625-17.046875v17.046875h1.9375v-6.75c0-2.5 1.3125-4.140625 3.3125-4.140625.65625 0 1.265625.1875 1.734375.53125.5625.421875.796875 1.015625.796875 1.875v8.484375h1.9375v-9.25c0-2.0625-1.46875-3.34375-3.859375-3.34375-1.71875 0-2.78125.53125-3.921875 2.03125v-6.484375zm0 0"/></symbol><symbol id="ae" overflow="visible"><path d="m4.46875-2.4375h-2.4375v2.4375h2.4375zm0 0"/></symbol><symbol id="af" overflow="visible"><path d="m4.28125-7.765625h8.125v-1.90625h-8.125v-5.453125h9.25v-1.921875h-11.421875v17.046875h2.171875zm0 0"/></symbol><symbol id="ag" overflow="visible"><path d="m3.296875-17.046875h-1.9375v17.046875h1.9375v-4.765625l1.890625-1.875 4.140625 6.640625h2.40625l-5-8.015625 4.25-4.234375h-2.5l-5.1875 5.1875zm0 0"/></symbol><symbol id="ah" overflow="visible"><path d="m4.953125-10.1875v10.1875h2.921875v-14.765625h-1.9375c-.453125 1.75-1.984375 2.640625-4.515625 2.640625v1.9375zm0 0"/></symbol><symbol id="ai" overflow="visible"><path d="m4.453125-3.046875h-3.125v3.046875h3.125zm0 0"/></symbol><g clip-path="url(#a)"><path d="m3.242188 4088.303125h5946.25" fill="none" stroke="#000" stroke-linecap="round" stroke-miterlimit="10" stroke-width="6.52105" transform="matrix(.1 0 0 -.1 0 473.01)"/></g><g clip-path="url(#b)"><path d="m3.242188 4182.951563h5946.25" fill="none" stroke="#000" stroke-linecap="round" stroke-miterlimit="10" stroke-width="6.52105" transform="matrix(.1 0 0 -.1 0 473.01)"/></g><g clip-path="url(#c)"><path d="m3.242188 4277.6h5946.25" fill="none" stroke="#000" stroke-linecap="round" stroke-miterlimit="10" stroke-width="6.52105" transform="matrix(.1 0 0 -.1 0 473.01)"/></g><g clip-path="url(#d)"><path d="m3.242188 4372.248438h5946.25" fill="none" stroke="#000" stroke-linecap="round" stroke-miterlimit="10" stroke-width="6.52105" transform="matrix(.1 0 0 -.1 0 473.01)"/></g><g clip-path="url(#e)"><path d="m3.242188 4466.896875h5946.25" fill="none" stroke="#000" stroke-linecap="round" stroke-miterlimit="10" stroke-width="6.52105" transform="matrix(.1 0 0 -.1 0 473.01)"/></g><g clip-path="url(#f)"><path d="m5946.5625 4088.303125v378.59375" fill="none" stroke="#000" stroke-miterlimit="10" stroke-width="12.389" transform="matrix(.1 0 0 -.1 0 473.01)"/></g><use x="437.492" xlink:href="#y" y="49.983"/><use x="425.0479" xlink:href="#C" y="97.3057"/><use x="437.633846" xlink:href="#D" y="97.3057"/><use x="449.369016" xlink:href="#E" y="97.3057"/><path d="m4492.03125 4250.88125h4.492188v270.351563h-4.492188zm0 0" fill="none" stroke="#000" stroke-linejoin="round" stroke-miterlimit="10" stroke-width="3.98456" transform="matrix(.1 0 0 -.1 0 473.01)"/><path d="m449.203125 47.921875h.449219v-27.035156h-.449219zm0 0"/><use x="487.301" xlink:href="#y" y="45.25"/><use x="480.55452" xlink:href="#F" y="97.3051"/><use x="493.480309" xlink:href="#G" y="97.3051"/><path d="m4990.117188 4298.225h4.492187v241.71875h-4.492187zm0 0" fill="none" stroke="#000" stroke-linejoin="round" stroke-miterlimit="10" stroke-width="3.98456" transform="matrix(.1 0 0 -.1 0 473.01)"/><path d="m499.011719 43.1875h.449219v-24.167969h-.449219zm0 0"/><path d="m3993.945312 4203.576563h4.492188v298.90625h-4.492188zm0 0" fill="none" stroke="#000" stroke-linejoin="round" stroke-miterlimit="10" stroke-width="3.98456" transform="matrix(.1 0 0 -.1 0 473.01)"/><path d="m399.394531 52.652344h.449219v-29.890625h-.449219zm0 0"/><use x="384.764" xlink:href="#H" y="97.305"/><use x="397.689789" xlink:href="#I" y="97.305"/><use x="387.68392" xlink:href="#y" y="54.7144"/><path d="m3495.859375 4156.232813h4.492187v327.539062h-4.492187zm0 0" fill="none" stroke="#000" stroke-linejoin="round" stroke-miterlimit="10" stroke-width="3.98456" transform="matrix(.1 0 0 -.1 0 473.01)"/><path d="m349.585938 57.386719h.449218v-32.753907h-.449218zm0 0"/><use x="323.986" xlink:href="#J" y="97.305"/><use x="343.375066" xlink:href="#K" y="97.305"/><use x="356.300465" xlink:href="#L" y="97.305"/><use x="337.8758" xlink:href="#y" y="59.4468"/><path d="m846.210938 4373.498438v-41.445313l1024.335937 114.101563v41.445312zm0 0" fill="none" stroke="#000" stroke-linejoin="round" stroke-miterlimit="10" stroke-width="3.98456" transform="matrix(.1 0 0 -.1 0 473.01)"/><path d="m84.621094 35.660156v4.144532l102.433594-11.410157v-4.144531zm0 0"/><path d="m1448.125 3821.154688h57.226562v3.28125h-57.226562zm0 0" fill="none" stroke="#000" stroke-linejoin="round" stroke-miterlimit="10" stroke-width="5.21494" transform="matrix(.1 0 0 -.1 0 473.01)"/><path d="m144.8125 90.894531h5.722656v-.328125h-5.722656zm0 0"/><path d="m2997.773438 4487.6v-41.445312l1996.835937 75.195312v41.445313zm0 0" fill="none" stroke="#000" stroke-linejoin="round" stroke-miterlimit="10" stroke-width="3.98456" transform="matrix(.1 0 0 -.1 0 473.01)"/><path d="m299.777344 24.25v4.144531l199.683594-7.519531v-4.144531zm0 0"/><path d="m3124.179688 3821.154688h57.265624v3.28125h-57.265624zm0 0" fill="none" stroke="#000" stroke-linejoin="round" stroke-miterlimit="10" stroke-width="5.21494" transform="matrix(.1 0 0 -.1 0 473.01)"/><path d="m312.417969 90.894531h5.726562v-.328125h-5.726562zm0 0"/><path d="m4111.445312 3821.154688h57.226563v3.28125h-57.226563zm0 0" fill="none" stroke="#000" stroke-linejoin="round" stroke-miterlimit="10" stroke-width="5.21494" transform="matrix(.1 0 0 -.1 0 473.01)"/><path d="m411.144531 90.894531h5.722657v-.328125h-5.722657zm0 0"/><path d="m4685.625 3821.154688h57.265625v3.28125h-57.265625zm0 0" fill="none" stroke="#000" stroke-linejoin="round" stroke-miterlimit="10" stroke-width="5.21494" transform="matrix(.1 0 0 -.1 0 473.01)"/><path d="m468.5625 90.894531h5.722656v-.328125h-5.722656zm0 0"/><path d="m5111.132812 3821.154688h57.265626v3.28125h-57.265626zm0 0" fill="none" stroke="#000" stroke-linejoin="round" stroke-miterlimit="10" stroke-width="5.21494" transform="matrix(.1 0 0 -.1 0 473.01)"/><path d="m511.113281 90.894531h5.726563v-.328125h-5.726563zm0 0"/><path d="m5497.03125 4250.88125h4.492188v308.671875h-4.492188zm0 0" fill="none" stroke="#000" stroke-linejoin="round" stroke-miterlimit="10" stroke-width="3.98456" transform="matrix(.1 0 0 -.1 0 473.01)"/><path d="m549.699219 47.921875h.449219v-30.867187h-.449219zm0 0"/><use x="521.549" xlink:href="#M" y="97.305"/><use x="534.474789" xlink:href="#G" y="97.305"/><use x="547.231047" xlink:href="#N" y="97.305"/><use x="554.204487" xlink:href="#N" y="97.305"/><use x="560.327147" xlink:href="#O" y="97.305"/><use x="537.99" xlink:href="#y" y="49.9823"/><use x="71.267" xlink:href="#P" y="97.305"/><use x="122.7201" xlink:href="#y" y="68.9112"/><path d="m846.210938 4061.584375h4.492187v289.6875h-4.492187zm0 0" fill="none" stroke="#000" stroke-linejoin="round" stroke-miterlimit="10" stroke-width="3.98456" transform="matrix(.1 0 0 -.1 0 473.01)"/><path d="m84.621094 66.851562h.449218v-28.96875h-.449218zm0 0"/><use x="44.4559" xlink:href="#ah" y="97.305"/><use x="56.02154" xlink:href="#ai" y="97.305"/><use x="41.67895" xlink:href="#z" y="45.2499"/><use x="7.57155" xlink:href="#A" y="54.71435"/><use x="72.91175" xlink:href="#y" y="68.91125"/><path d="m2997.773438 4203.576563h4.492187v261.484375h-4.492187zm0 0" fill="none" stroke="#000" stroke-linejoin="round" stroke-miterlimit="10" stroke-width="3.98456" transform="matrix(.1 0 0 -.1 0 473.01)"/><path d="m299.777344 52.652344h.449218v-26.148438h-.449218zm0 0"/><use x="281.916" xlink:href="#Q" y="97.305"/><use x="287.188666" xlink:href="#J" y="97.305"/><use x="288.06717" xlink:href="#y" y="54.7144"/><path d="m2452.890625 4250.88125h4.492187v308.671875h-4.492187zm0 0" fill="none" stroke="#000" stroke-linejoin="round" stroke-miterlimit="10" stroke-width="3.98456" transform="matrix(.1 0 0 -.1 0 473.01)"/><path d="m245.289062 47.921875h.449219v-30.867187h-.449219zm0 0"/><use x="220.369" xlink:href="#C" y="97.305"/><use x="233.294789" xlink:href="#R" y="97.305"/><use x="246.220578" xlink:href="#S" y="97.305"/><use x="233.5788" xlink:href="#y" y="49.9823"/><use x="119.3758" xlink:href="#T" y="97.305"/><use x="125.49846" xlink:href="#U" y="97.305"/><path d="m1866.054688 4250.88125h4.492187v213.554688h-4.492187zm0 0" fill="none" stroke="#000" stroke-linejoin="round" stroke-miterlimit="10" stroke-width="3.98456" transform="matrix(.1 0 0 -.1 0 473.01)"/><path d="m186.605469 47.921875h.449219v-21.355469h-.449219zm0 0"/><path d="m1344.296875 4061.584375h4.492187v344.960938h-4.492187zm0 0" fill="none" stroke="#000" stroke-linejoin="round" stroke-miterlimit="10" stroke-width="3.98456" transform="matrix(.1 0 0 -.1 0 473.01)"/><path d="m134.429688 66.851562h.449218v-34.496093h-.449218zm0 0"/><use x="156.923" xlink:href="#C" y="97.305"/><use x="169.508946" xlink:href="#D" y="97.305"/><use x="180.564428" xlink:href="#H" y="97.305"/><use x="193.490217" xlink:href="#V" y="97.305"/><use x="174.8941" xlink:href="#y" y="49.9823"/><g clip-path="url(#g)"><path d="m3.242188 2952.560938h5946.25" style="fill:none;stroke-width:6.52105;stroke-linecap:round;stroke-linejoin:round;stroke:#000;stroke-miterlimit:10" transform="matrix(.1 0 0 -.1 0 473.01)"/></g><g clip-path="url(#h)"><path d="m3.242188 3047.209375h5946.25" style="fill:none;stroke-width:6.52105;stroke-linecap:round;stroke-linejoin:round;stroke:#000;stroke-miterlimit:10" transform="matrix(.1 0 0 -.1 0 473.01)"/></g><g clip-path="url(#i)"><path d="m3.242188 3141.857813h5946.25" style="fill:none;stroke-width:6.52105;stroke-linecap:round;stroke-linejoin:round;stroke:#000;stroke-miterlimit:10" transform="matrix(.1 0 0 -.1 0 473.01)"/></g><g clip-path="url(#j)"><path d="m3.242188 3236.50625h5946.25" style="fill:none;stroke-width:6.52105;stroke-linecap:round;stroke-linejoin:round;stroke:#000;stroke-miterlimit:10" transform="matrix(.1 0 0 -.1 0 473.01)"/></g><g clip-path="url(#k)"><path d="m3.242188 3331.154688h5946.25" style="fill:none;stroke-width:6.52105;stroke-linecap:round;stroke-linejoin:round;stroke:#000;stroke-miterlimit:10" transform="matrix(.1 0 0 -.1 0 473.01)"/></g><g clip-path="url(#l)"><path d="m5946.5625 2952.560938v378.59375" fill="none" stroke="#000" stroke-linejoin="round" stroke-miterlimit="10" stroke-width="12.389" transform="matrix(.1 0 0 -.1 0 473.01)"/></g><use x="434.164" xlink:href="#y" y="163.557"/><use x="424.18548" xlink:href="#J" y="210.8793"/><use x="443.574571" xlink:href="#R" y="210.8793"/><path d="m4458.75 3115.139063h4.492188v289.21875h-4.492188zm0 0" fill="none" stroke="#000" stroke-linejoin="round" stroke-miterlimit="10" stroke-width="3.98456" transform="matrix(.1 0 0 -.1 0 473.01)"/><path d="m445.875 161.496094h.449219v-28.917969h-.449219zm0 0"/><use x="485.104" xlink:href="#y" y="168.289"/><use x="480.99345" xlink:href="#L" y="210.8792"/><use x="488.647371" xlink:href="#R" y="210.8792"/><path d="m4968.125 3067.834375h4.492188v336.523438h-4.492188zm0 0" fill="none" stroke="#000" stroke-linejoin="round" stroke-miterlimit="10" stroke-width="3.98456" transform="matrix(.1 0 0 -.1 0 473.01)"/><path d="m496.8125 166.226562h.449219v-33.652343h-.449219zm0 0"/><path d="m3949.375 3162.482813h4.453125v241.875h-4.453125zm0 0" fill="none" stroke="#000" stroke-linejoin="round" stroke-miterlimit="10" stroke-width="3.98456" transform="matrix(.1 0 0 -.1 0 473.01)"/><path d="m394.9375 156.761719h.445312v-24.1875h-.445312zm0 0"/><use x="370.016" xlink:href="#W" y="210.879"/><use x="382.941398" xlink:href="#H" y="210.879"/><use x="395.867187" xlink:href="#C" y="210.879"/><use x="383.2254" xlink:href="#y" y="158.8243"/><path d="m3439.960938 3115.139063h4.492187v289.21875h-4.492187zm0 0" fill="none" stroke="#000" stroke-linejoin="round" stroke-miterlimit="10" stroke-width="3.98456" transform="matrix(.1 0 0 -.1 0 473.01)"/><path d="m343.996094 161.496094h.449218v-28.917969h-.449218zm0 0"/><use x="325.795" xlink:href="#N" y="210.879"/><use x="331.91766" xlink:href="#U" y="210.879"/><use x="344.673918" xlink:href="#N" y="210.879"/><use x="332.28562" xlink:href="#y" y="163.5567"/><path d="m731.09375 2898.107813v-41.445313l1023.28125-19.453125v41.445313zm0 0" fill="none" stroke="#000" stroke-linejoin="round" stroke-miterlimit="10" stroke-width="3.98456" transform="matrix(.1 0 0 -.1 0 473.01)"/><path d="m73.109375 183.199219v4.144531l102.328125 1.945312v-4.144531zm0 0"/><path d="m2045.234375 2685.4125h57.265625v3.28125h-57.265625zm0 0" fill="none" stroke="#000" stroke-linejoin="round" stroke-miterlimit="10" stroke-width="5.21494" transform="matrix(.1 0 0 -.1 0 473.01)"/><path d="m204.523438 204.46875h5.726562v-.328125h-5.726562zm0 0"/><path d="m2930.585938 3385.607813h2042.03125v41.445312h-2042.03125zm0 0" fill="none" stroke="#000" stroke-linejoin="round" stroke-miterlimit="10" stroke-width="3.98456" transform="matrix(.1 0 0 -.1 0 473.01)"/><path d="m293.058594 134.449219h204.203125v-4.144531h-204.203125zm0 0"/><path d="m3099.648438 2685.4125h57.226562v3.28125h-57.226562zm0 0" fill="none" stroke="#000" stroke-linejoin="round" stroke-miterlimit="10" stroke-width="5.21494" transform="matrix(.1 0 0 -.1 0 473.01)"/><path d="m309.964844 204.46875h5.722656v-.328125h-5.722656zm0 0"/><path d="m3577.148438 2685.4125h57.226562v3.28125h-57.226562zm0 0" fill="none" stroke="#000" stroke-linejoin="round" stroke-miterlimit="10" stroke-width="5.21494" transform="matrix(.1 0 0 -.1 0 473.01)"/><path d="m357.714844 204.46875h5.722656v-.328125h-5.722656zm0 0"/><path d="m4658.828125 2685.4125h57.265625v3.28125h-57.265625zm0 0" fill="none" stroke="#000" stroke-linejoin="round" stroke-miterlimit="10" stroke-width="5.21494" transform="matrix(.1 0 0 -.1 0 473.01)"/><path d="m465.882812 204.46875h5.726563v-.328125h-5.726563zm0 0"/><path d="m5077.226562 2685.4125h57.265626v3.28125h-57.265626zm0 0" fill="none" stroke="#000" stroke-linejoin="round" stroke-miterlimit="10" stroke-width="5.21494" transform="matrix(.1 0 0 -.1 0 473.01)"/><path d="m507.722656 204.46875h5.726563v-.328125h-5.726563zm0 0"/><path d="m5477.539062 3020.490625h4.492188v308.671875h-4.492188zm0 0" fill="none" stroke="#000" stroke-linejoin="round" stroke-miterlimit="10" stroke-width="3.98456" transform="matrix(.1 0 0 -.1 0 473.01)"/><path d="m547.753906 170.960938h.449219v-30.867188h-.449219zm0 0"/><use x="519.602" xlink:href="#M" y="210.879"/><use x="532.527789" xlink:href="#G" y="210.879"/><use x="545.284047" xlink:href="#N" y="210.879"/><use x="552.257487" xlink:href="#N" y="210.879"/><use x="558.379757" xlink:href="#O" y="210.879"/><use x="536.0426" xlink:href="#y" y="173.0212"/><use x="111.3226" xlink:href="#T" y="210.879"/><use x="117.615572" xlink:href="#X" y="210.879"/><use x="130.540971" xlink:href="#I" y="210.879"/><use x="135.813625" xlink:href="#M" y="210.879"/><path d="m731.09375 2879.279688h4.492188v289.296875h-4.492188zm0 0" fill="none" stroke="#000" stroke-linejoin="round" stroke-miterlimit="10" stroke-width="3.98456" transform="matrix(.1 0 0 -.1 0 473.01)"/><path d="m73.109375 185.082031h.449219v-28.929687h-.449219zm0 0"/><use x="71.2676" xlink:href="#P" y="210.879"/><use x="72.91174" xlink:href="#y" y="154.0919"/><use x="123.851706" xlink:href="#y" y="154.0919"/><use x="41.67894" xlink:href="#z" y="158.82432"/><use x="7.57154" xlink:href="#A" y="168.28877"/><path d="m2930.585938 3067.834375h4.492187v336.523438h-4.492187zm0 0" fill="none" stroke="#000" stroke-linejoin="round" stroke-miterlimit="10" stroke-width="3.98456" transform="matrix(.1 0 0 -.1 0 473.01)"/><path d="m293.058594 166.226562h.449218v-33.652343h-.449218zm0 0"/><use x="275.196" xlink:href="#V" y="210.879"/><use x="286.93117" xlink:href="#X" y="210.879"/><use x="281.34717" xlink:href="#y" y="168.2888"/><path d="m2372.96875 3115.139063h4.492188v308.671875h-4.492188zm0 0" fill="none" stroke="#000" stroke-linejoin="round" stroke-miterlimit="10" stroke-width="3.98456" transform="matrix(.1 0 0 -.1 0 473.01)"/><path d="m237.296875 161.496094h.449219v-30.867188h-.449219zm0 0"/><use x="218.838" xlink:href="#C" y="210.879"/><use x="231.763789" xlink:href="#H" y="210.879"/><use x="225.58527" xlink:href="#y" y="163.5567"/><path d="m1240.507812 2869.63125h4.492188v298.945313h-4.492188zm0 0" fill="none" stroke="#000" stroke-linejoin="round" stroke-miterlimit="10" stroke-width="3.98456" transform="matrix(.1 0 0 -.1 0 473.01)"/><path d="m124.050781 186.046875h.449219v-29.894531h-.449219zm0 0"/><path d="m1749.882812 2859.982813h4.492188v261.25h-4.492188zm0 0" fill="none" stroke="#000" stroke-linejoin="round" stroke-miterlimit="10" stroke-width="3.98456" transform="matrix(.1 0 0 -.1 0 473.01)"/><path d="m174.988281 187.011719h.449219v-26.125h-.449219zm0 0"/><use x="166.003" xlink:href="#V" y="210.879"/><use x="177.73817" xlink:href="#Y" y="210.879"/><use x="189.472949" xlink:href="#Z" y="210.879"/><use x="174.79089" xlink:href="#y" y="158.8243"/><g clip-path="url(#m)"><path d="m3.242188 1816.81875h5946.25" style="fill:none;stroke-width:6.52105;stroke-linecap:round;stroke-linejoin:round;stroke:#000;stroke-miterlimit:10" transform="matrix(.1 0 0 -.1 0 473.01)"/></g><g clip-path="url(#n)"><path d="m3.242188 1911.467188h5946.25" style="fill:none;stroke-width:6.52105;stroke-linecap:round;stroke-linejoin:round;stroke:#000;stroke-miterlimit:10" transform="matrix(.1 0 0 -.1 0 473.01)"/></g><g clip-path="url(#o)"><path d="m3.242188 2006.115625h5946.25" style="fill:none;stroke-width:6.52105;stroke-linecap:round;stroke-linejoin:round;stroke:#000;stroke-miterlimit:10" transform="matrix(.1 0 0 -.1 0 473.01)"/></g><g clip-path="url(#p)"><path d="m3.242188 2100.764063h5946.25" style="fill:none;stroke-width:6.52105;stroke-linecap:round;stroke-linejoin:round;stroke:#000;stroke-miterlimit:10" transform="matrix(.1 0 0 -.1 0 473.01)"/></g><g clip-path="url(#q)"><path d="m3.242188 2195.4125h5946.25" style="fill:none;stroke-width:6.52105;stroke-linecap:round;stroke-linejoin:round;stroke:#000;stroke-miterlimit:10" transform="matrix(.1 0 0 -.1 0 473.01)"/></g><path d="m5342.5 1722.170313h169.414062" style="fill:none;stroke-width:15.9856;stroke-linecap:round;stroke-linejoin:round;stroke:#000;stroke-miterlimit:10" transform="matrix(.1 0 0 -.1 0 473.01)"/><g clip-path="url(#r)"><path d="m5946.5625 1816.81875v378.59375" fill="none" stroke="#000" stroke-linejoin="round" stroke-miterlimit="10" stroke-width="12.389" transform="matrix(.1 0 0 -.1 0 473.01)"/></g><use x="434.586" xlink:href="#y" y="291.328"/><use x="426.05397" xlink:href="#aa" y="326.2378"/><use x="437.278593" xlink:href="#K" y="326.2378"/><use x="450.204382" xlink:href="#I" y="326.2378"/><path d="m4462.96875 1837.44375h4.492188v289.960938h-4.492188zm0 0" fill="none" stroke="#000" stroke-linejoin="round" stroke-miterlimit="10" stroke-width="3.98456" transform="matrix(.1 0 0 -.1 0 473.01)"/><path d="m446.296875 289.265625h.449219v-28.996094h-.449219zm0 0"/><use x="485.563" xlink:href="#y" y="296.06"/><use x="482.13331" xlink:href="#N" y="326.2373"/><use x="488.425892" xlink:href="#G" y="326.2373"/><path d="m4972.734375 1790.139063h4.492187v308.867187h-4.492187zm0 0" fill="none" stroke="#000" stroke-linejoin="round" stroke-miterlimit="10" stroke-width="3.98456" transform="matrix(.1 0 0 -.1 0 473.01)"/><path d="m497.273438 294h.449218v-30.890625h-.449218zm0 0"/><path d="m3953.164062 1884.748438h4.492188v271.054687h-4.492188zm0 0" fill="none" stroke="#000" stroke-linejoin="round" stroke-miterlimit="10" stroke-width="3.98456" transform="matrix(.1 0 0 -.1 0 473.01)"/><path d="m395.316406 284.535156h.449219v-27.105468h-.449219zm0 0"/><use x="379.583" xlink:href="#L" y="326.237"/><use x="387.066217" xlink:href="#H" y="326.237"/><use x="383.608" xlink:href="#y" y="286.5948"/><path d="m3443.398438 1932.092188h4.492187v252.148437h-4.492187zm0 0" fill="none" stroke="#000" stroke-linejoin="round" stroke-miterlimit="10" stroke-width="3.98456" transform="matrix(.1 0 0 -.1 0 473.01)"/><path d="m344.339844 279.800781h.449218v-25.210937h-.449218zm0 0"/><use x="327.073" xlink:href="#ab" y="326.237"/><use x="332.345666" xlink:href="#H" y="326.237"/><use x="345.271455" xlink:href="#I" y="326.237"/><use x="332.62886" xlink:href="#y" y="281.8628"/><path d="m846.210938 2249.865625h1024.0625v41.445313h-1024.0625zm0 0" fill="none" stroke="#000" stroke-linejoin="round" stroke-miterlimit="10" stroke-width="3.98456" transform="matrix(.1 0 0 -.1 0 473.01)"/><path d="m84.621094 248.023438h102.40625v-4.144532h-102.40625zm0 0"/><path d="m1058.828125 1531.857813h57.265625v3.242187h-57.265625zm0 0" fill="none" stroke="#000" stroke-linejoin="round" stroke-miterlimit="10" stroke-width="5.21494" transform="matrix(.1 0 0 -.1 0 473.01)"/><path d="m105.882812 319.824219h5.726563v-.324219h-5.726563zm0 0"/><path d="m1565.234375 1531.857813h57.226563v3.242187h-57.226563zm0 0" fill="none" stroke="#000" stroke-linejoin="round" stroke-miterlimit="10" stroke-width="5.21494" transform="matrix(.1 0 0 -.1 0 473.01)"/><path d="m156.523438 319.824219h5.722656v-.324219h-5.722656zm0 0"/><path d="m2933.632812 2235.56875v-41.445312l2043.59375-114.101563v41.484375zm0 0" fill="none" stroke="#000" stroke-linejoin="round" stroke-miterlimit="10" stroke-width="3.98456" transform="matrix(.1 0 0 -.1 0 473.01)"/><path d="m293.363281 249.453125v4.144531l204.359375 11.410156v-4.148437zm0 0"/><path d="m3091.40625 1531.857813h57.226562v3.242187h-57.226562zm0 0" fill="none" stroke="#000" stroke-linejoin="round" stroke-miterlimit="10" stroke-width="5.21494" transform="matrix(.1 0 0 -.1 0 473.01)"/><path d="m309.140625 319.824219h5.722656v-.324219h-5.722656zm0 0"/><path d="m3621.992188 1531.857813h57.265624v3.242187h-57.265624zm0 0" fill="none" stroke="#000" stroke-linejoin="round" stroke-miterlimit="10" stroke-width="5.21494" transform="matrix(.1 0 0 -.1 0 473.01)"/><path d="m362.199219 319.824219h5.726562v-.324219h-5.726562zm0 0"/><path d="m4659.414062 1531.857813h57.265626v3.242187h-57.265626zm0 0" fill="none" stroke="#000" stroke-linejoin="round" stroke-miterlimit="10" stroke-width="5.21494" transform="matrix(.1 0 0 -.1 0 473.01)"/><path d="m465.941406 319.824219h5.726563v-.324219h-5.726563zm0 0"/><path d="m5082.890625 1531.857813h57.265625v3.242187h-57.265625zm0 0" fill="none" stroke="#000" stroke-linejoin="round" stroke-miterlimit="10" stroke-width="5.21494" transform="matrix(.1 0 0 -.1 0 473.01)"/><path d="m508.289062 319.824219h5.722657v-.324219h-5.722657zm0 0"/><path d="m5482.539062 1742.795313h4.453126v308.632812h-4.453126zm0 0" fill="none" stroke="#000" stroke-linejoin="round" stroke-miterlimit="10" stroke-width="3.98456" transform="matrix(.1 0 0 -.1 0 473.01)"/><path d="m548.253906 298.730469h.445313v-30.863281h-.445313zm0 0"/><use x="520.951" xlink:href="#Y" y="326.237"/><use x="532.176013" xlink:href="#G" y="326.237"/><use x="544.932271" xlink:href="#N" y="326.237"/><use x="551.905711" xlink:href="#N" y="326.237"/><use x="558.027981" xlink:href="#O" y="326.237"/><use x="536.542" xlink:href="#y" y="300.7917"/><use x="117.143" xlink:href="#S" y="326.237"/><use x="130.068398" xlink:href="#R" y="326.237"/><path d="m846.210938 1979.396875h4.492187v289.21875h-4.492187zm0 0" fill="none" stroke="#000" stroke-linejoin="round" stroke-miterlimit="10" stroke-width="3.98456" transform="matrix(.1 0 0 -.1 0 473.01)"/><path d="m84.621094 275.070312h.449218v-28.917968h-.449218zm0 0"/><use x="57.832" xlink:href="#ac" y="326.237"/><use x="74.49998" xlink:href="#R" y="326.237"/><use x="87.425378" xlink:href="#S" y="326.237"/><use x="72.9117" xlink:href="#y" y="277.1304"/><use x="123.8902" xlink:href="#y" y="272.39837"/><use x="41.679064" xlink:href="#z" y="272.39837"/><use x="7.5712" xlink:href="#A" y="281.86282"/><path d="m2933.632812 1979.396875h4.492188v233.242188h-4.492188zm0 0" fill="none" stroke="#000" stroke-linejoin="round" stroke-miterlimit="10" stroke-width="3.98456" transform="matrix(.1 0 0 -.1 0 473.01)"/><path d="m293.363281 275.070312h.449219v-23.324218h-.449219zm0 0"/><use x="278.732" xlink:href="#U" y="326.237"/><use x="291.657789" xlink:href="#ab" y="326.237"/><use x="281.65192" xlink:href="#y" y="277.1304"/><path d="m2375.585938 1932.092188h4.453124v308.632812h-4.453124zm0 0" fill="none" stroke="#000" stroke-linejoin="round" stroke-miterlimit="10" stroke-width="3.98456" transform="matrix(.1 0 0 -.1 0 473.01)"/><path d="m237.558594 279.800781h.445312v-30.863281h-.445312zm0 0"/><use x="210.34" xlink:href="#T" y="326.237"/><use x="216.46266" xlink:href="#U" y="326.237"/><use x="229.388058" xlink:href="#C" y="326.237"/><use x="241.974004" xlink:href="#D" y="326.237"/><use x="225.8455" xlink:href="#y" y="281.8628"/><path d="m1356.015625 2026.740625h4.492187v241.875h-4.492187zm0 0" fill="none" stroke="#000" stroke-linejoin="round" stroke-miterlimit="10" stroke-width="3.98456" transform="matrix(.1 0 0 -.1 0 473.01)"/><path d="m135.601562 270.335938h.449219v-24.1875h-.449219zm0 0"/><path d="m1865.78125 1979.396875h4.492188v289.21875h-4.492188zm0 0" fill="none" stroke="#000" stroke-linejoin="round" stroke-miterlimit="10" stroke-width="3.98456" transform="matrix(.1 0 0 -.1 0 473.01)"/><path d="m186.578125 275.070312h.449219v-28.917968h-.449219zm0 0"/><use x="175.775" xlink:href="#I" y="326.237"/><use x="181.047654" xlink:href="#Q" y="326.237"/><use x="174.867969" xlink:href="#y" y="277.1304"/><g clip-path="url(#s)"><path d="m3.242188 681.076563h5946.25" style="fill:none;stroke-width:6.52105;stroke-linecap:round;stroke-linejoin:round;stroke:#000;stroke-miterlimit:10" transform="matrix(.1 0 0 -.1 0 473.01)"/></g><g clip-path="url(#t)"><path d="m3.242188 775.725h5946.25" style="fill:none;stroke-width:6.52105;stroke-linecap:round;stroke-linejoin:round;stroke:#000;stroke-miterlimit:10" transform="matrix(.1 0 0 -.1 0 473.01)"/></g><g clip-path="url(#u)"><path d="m3.242188 870.373438h5946.25" style="fill:none;stroke-width:6.52105;stroke-linecap:round;stroke-linejoin:round;stroke:#000;stroke-miterlimit:10" transform="matrix(.1 0 0 -.1 0 473.01)"/></g><g clip-path="url(#v)"><path d="m3.242188 965.021875h5946.25" style="fill:none;stroke-width:6.52105;stroke-linecap:round;stroke-linejoin:round;stroke:#000;stroke-miterlimit:10" transform="matrix(.1 0 0 -.1 0 473.01)"/></g><g clip-path="url(#w)"><path d="m3.242188 1059.670313h5946.25" style="fill:none;stroke-width:6.52105;stroke-linecap:round;stroke-linejoin:round;stroke:#000;stroke-miterlimit:10" transform="matrix(.1 0 0 -.1 0 473.01)"/></g><path d="m706.210938 586.428125h169.414062" style="fill:none;stroke-width:15.9856;stroke-linecap:round;stroke-linejoin:round;stroke:#000;stroke-miterlimit:10" transform="matrix(.1 0 0 -.1 0 473.01)"/><g clip-path="url(#x)"><path d="m5933.203125 681.076563v378.59375" fill="none" stroke="#000" stroke-linejoin="round" stroke-miterlimit="10" stroke-width="39.1073" transform="matrix(.1 0 0 -.1 0 473.01)"/></g><path d="m5887.890625 681.076563v378.59375" fill="none" stroke="#000" stroke-linejoin="round" stroke-miterlimit="10" stroke-width="12.389" transform="matrix(.1 0 0 -.1 0 473.01)"/><use x="430.994" xlink:href="#y" y="400.1694"/><use x="417.8698" xlink:href="#J" y="441.2596"/><use x="437.2585" xlink:href="#R" y="441.2596"/><use x="450.014758" xlink:href="#N" y="441.2596"/><path d="m4427.03125 749.00625h4.492188v327.539063h-4.492188zm0 0" fill="none" stroke="#000" stroke-linejoin="round" stroke-miterlimit="10" stroke-width="3.98456" transform="matrix(.1 0 0 -.1 0 473.01)"/><path d="m442.703125 398.109375h.449219v-32.753906h-.449219zm0 0"/><use x="481.136" xlink:href="#y" y="404.9018"/><use x="474.38952" xlink:href="#ad" y="441.2596"/><use x="487.315309" xlink:href="#G" y="441.2596"/><path d="m4928.476562 701.701563h4.453126v356.132812h-4.453126zm0 0" fill="none" stroke="#000" stroke-linejoin="round" stroke-miterlimit="10" stroke-width="3.98456" transform="matrix(.1 0 0 -.1 0 473.01)"/><path d="m492.847656 402.839844h.445313v-35.613282h-.445313zm0 0"/><path d="m3925.625 796.35h4.492188v298.90625h-4.492188zm0 0" fill="none" stroke="#000" stroke-linejoin="round" stroke-miterlimit="10" stroke-width="3.98456" transform="matrix(.1 0 0 -.1 0 473.01)"/><path d="m392.5625 393.375h.449219v-29.890625h-.449219zm0 0"/><use x="371.47" xlink:href="#M" y="441.2596"/><use x="384.395789" xlink:href="#R" y="441.2596"/><use x="397.321578" xlink:href="#I" y="441.2596"/><use x="380.85242" xlink:href="#y" y="395.4369"/><path d="m3424.21875 843.654688h4.492188v270.351562h-4.492188zm0 0" fill="none" stroke="#000" stroke-linejoin="round" stroke-miterlimit="10" stroke-width="3.98456" transform="matrix(.1 0 0 -.1 0 473.01)"/><path d="m342.421875 388.644531h.449219v-27.035156h-.449219zm0 0"/><use x="323.964" xlink:href="#F" y="441.2596"/><use x="336.889398" xlink:href="#G" y="441.2596"/><use x="330.71127" xlink:href="#y" y="390.7049"/><path d="m846.210938 910.56875v-41.445312l1007.34375 55.703125v41.445312zm0 0" fill="none" stroke="#000" stroke-linejoin="round" stroke-miterlimit="10" stroke-width="3.98456" transform="matrix(.1 0 0 -.1 0 473.01)"/><path d="m84.621094 381.953125v4.144531l100.734375-5.570312v-4.144532zm0 0"/><path d="m995.15625 381.623438h57.226562v3.242187h-57.226562zm0 0" fill="none" stroke="#000" stroke-linejoin="round" stroke-miterlimit="10" stroke-width="5.21494" transform="matrix(.1 0 0 -.1 0 473.01)"/><path d="m99.511719 434.847656h5.726562v-.324218h-5.726562zm0 0"/><path d="m1520.351562 381.623438h57.265626v3.242187h-57.265626zm0 0" fill="none" stroke="#000" stroke-linejoin="round" stroke-miterlimit="10" stroke-width="5.21494" transform="matrix(.1 0 0 -.1 0 473.01)"/><path d="m152.035156 434.847656h5.726563v-.324218h-5.726563zm0 0"/><path d="m1999.6875 381.623438h57.226562v3.242187h-57.226562zm0 0" fill="none" stroke="#000" stroke-linejoin="round" stroke-miterlimit="10" stroke-width="5.21494" transform="matrix(.1 0 0 -.1 0 473.01)"/><path d="m199.96875 434.847656h5.722656v-.324218h-5.722656zm0 0"/><path d="m2922.8125 1155.56875v-41.445312l2010.15625-75.195313v41.445313zm0 0" fill="none" stroke="#000" stroke-linejoin="round" stroke-miterlimit="10" stroke-width="3.98456" transform="matrix(.1 0 0 -.1 0 473.01)"/><path d="m292.28125 357.453125v4.144531l201.015625 7.519532v-4.144532zm0 0"/><path d="m3118.046875 381.623438h57.265625v3.242187h-57.265625zm0 0" fill="none" stroke="#000" stroke-linejoin="round" stroke-miterlimit="10" stroke-width="5.21494" transform="matrix(.1 0 0 -.1 0 473.01)"/><path d="m311.804688 434.847656h5.722656v-.324218h-5.722656zm0 0"/><path d="m3577.773438 381.623438h57.265624v3.242187h-57.265624zm0 0" fill="none" stroke="#000" stroke-linejoin="round" stroke-miterlimit="10" stroke-width="5.21494" transform="matrix(.1 0 0 -.1 0 473.01)"/><path d="m357.777344 434.847656h5.726562v-.324218h-5.726562zm0 0"/><path d="m4073.671875 381.623438h57.265625v3.242187h-57.265625zm0 0" fill="none" stroke="#000" stroke-linejoin="round" stroke-miterlimit="10" stroke-width="5.21494" transform="matrix(.1 0 0 -.1 0 473.01)"/><path d="m407.367188 434.847656h5.726562v-.324218h-5.726562zm0 0"/><path d="m5051.015625 381.623438h57.265625v3.242187h-57.265625zm0 0" fill="none" stroke="#000" stroke-linejoin="round" stroke-miterlimit="10" stroke-width="5.21494" transform="matrix(.1 0 0 -.1 0 473.01)"/><path d="m505.101562 434.847656h5.722657v-.324218h-5.722657zm0 0"/><path d="m5429.882812 654.357813h4.492188v308.671875h-4.492188zm0 0" fill="none" stroke="#000" stroke-linejoin="round" stroke-miterlimit="10" stroke-width="3.98456" transform="matrix(.1 0 0 -.1 0 473.01)"/><path d="m542.988281 407.574219h.449219v-30.867188h-.449219zm0 0"/><use x="515.687" xlink:href="#Y" y="441.2596"/><use x="526.911623" xlink:href="#G" y="441.2596"/><use x="539.66788" xlink:href="#N" y="441.2596"/><use x="546.641321" xlink:href="#N" y="441.2596"/><use x="552.763981" xlink:href="#ae" y="441.2596"/><use x="537.4573" xlink:href="#B" y="364.2194"/><use x="531.27761" xlink:href="#y" y="409.6339"/><path d="m1347.65625 654.357813h4.492188v261.367187h-4.492188zm0 0" fill="none" stroke="#000" stroke-linejoin="round" stroke-miterlimit="10" stroke-width="3.98456" transform="matrix(.1 0 0 -.1 0 473.01)"/><path d="m134.765625 407.574219h.449219v-26.132813h-.449219zm0 0"/><use x="123.054" xlink:href="#y" y="409.6338"/><path d="m846.210938 607.053125h4.492187v281.015625h-4.492187zm0 0" fill="none" stroke="#000" stroke-linejoin="round" stroke-miterlimit="10" stroke-width="3.98456" transform="matrix(.1 0 0 -.1 0 473.01)"/><path d="m84.621094 412.304688h.449218v-28.101563h-.449218zm0 0"/><use x="65.9109" xlink:href="#af" y="441.2596"/><use x="79.346458" xlink:href="#K" y="441.2596"/><use x="72.91168" xlink:href="#y" y="414.3662"/><use x="112.48078" xlink:href="#L" y="441.2596"/><use x="120.134689" xlink:href="#R" y="441.2596"/><use x="133.060478" xlink:href="#M" y="441.2596"/><use x="41.67878" xlink:href="#z" y="385.9725"/><use x="7.57138" xlink:href="#A" y="395.43695"/><path d="m2922.773438 843.654688h4.492187v289.0625h-4.492187zm0 0" fill="none" stroke="#000" stroke-linejoin="round" stroke-miterlimit="10" stroke-width="3.98456" transform="matrix(.1 0 0 -.1 0 473.01)"/><path d="m292.277344 388.644531h.449218v-28.90625h-.449218zm0 0"/><use x="268.125" xlink:href="#C" y="441.2596"/><use x="280.710946" xlink:href="#D" y="441.2596"/><use x="292.446116" xlink:href="#E" y="441.2596"/><use x="280.5691" xlink:href="#y" y="390.7049"/><path d="m2350.46875 749.00625h4.492188v308.671875h-4.492188zm0 0" fill="none" stroke="#000" stroke-linejoin="round" stroke-miterlimit="10" stroke-width="3.98456" transform="matrix(.1 0 0 -.1 0 473.01)"/><path d="m235.046875 398.109375h.449219v-30.867187h-.449219zm0 0"/><use x="210.723" xlink:href="#C" y="441.2596"/><use x="223.648789" xlink:href="#R" y="441.2596"/><use x="236.574578" xlink:href="#ag" y="441.2596"/><use x="223.3375" xlink:href="#y" y="400.1694"/><path d="m1849.0625 701.701563h4.492188v241.640625h-4.492188zm0 0" fill="none" stroke="#000" stroke-linejoin="round" stroke-miterlimit="10" stroke-width="3.98456" transform="matrix(.1 0 0 -.1 0 473.01)"/><path d="m184.90625 402.839844h.449219v-24.164063h-.449219zm0 0"/><use x="163.813" xlink:href="#N" y="441.2596"/><use x="170.276285" xlink:href="#R" y="441.2596"/><use x="183.202074" xlink:href="#ag" y="441.2596"/><use x="173.1962" xlink:href="#y" y="404.9018"/></svg>