<svg height="1115.15em" viewBox="0 0 595.28 1115.15" width="595.28em" xmlns="http://www.w3.org/2000/svg" xmlns:xlink="http://www.w3.org/1999/xlink"><clipPath id="a"><path d="m0 77h595.28125v1h-595.28125zm0 0"/></clipPath><clipPath id="b"><path d="m0 65h595.28125v2h-595.28125zm0 0"/></clipPath><clipPath id="c"><path d="m0 54h595.28125v2h-595.28125zm0 0"/></clipPath><clipPath id="d"><path d="m0 42h595.28125v2h-595.28125zm0 0"/></clipPath><clipPath id="e"><path d="m0 31h595.28125v2h-595.28125zm0 0"/></clipPath><clipPath id="f"><path d="m0 214h595.28125v2h-595.28125zm0 0"/></clipPath><clipPath id="g"><path d="m0 203h595.28125v2h-595.28125zm0 0"/></clipPath><clipPath id="h"><path d="m0 191h595.28125v2h-595.28125zm0 0"/></clipPath><clipPath id="i"><path d="m0 180h595.28125v2h-595.28125zm0 0"/></clipPath><clipPath id="j"><path d="m0 168h595.28125v2h-595.28125zm0 0"/></clipPath><clipPath id="k"><path d="m0 352h595.28125v1h-595.28125zm0 0"/></clipPath><clipPath id="l"><path d="m0 340h595.28125v2h-595.28125zm0 0"/></clipPath><clipPath id="m"><path d="m0 329h595.28125v2h-595.28125zm0 0"/></clipPath><clipPath id="n"><path d="m0 317h595.28125v2h-595.28125zm0 0"/></clipPath><clipPath id="o"><path d="m0 306h595.28125v2h-595.28125zm0 0"/></clipPath><clipPath id="p"><path d="m0 489h595.28125v2h-595.28125zm0 0"/></clipPath><clipPath id="q"><path d="m0 478h595.28125v1h-595.28125zm0 0"/></clipPath><clipPath id="r"><path d="m0 466h595.28125v2h-595.28125zm0 0"/></clipPath><clipPath id="s"><path d="m0 455h595.28125v2h-595.28125zm0 0"/></clipPath><clipPath id="t"><path d="m0 443h595.28125v2h-595.28125zm0 0"/></clipPath><clipPath id="u"><path d="m0 627h595.28125v1h-595.28125zm0 0"/></clipPath><clipPath id="v"><path d="m0 615h595.28125v2h-595.28125zm0 0"/></clipPath><clipPath id="w"><path d="m0 604h595.28125v2h-595.28125zm0 0"/></clipPath><clipPath id="x"><path d="m0 592h595.28125v2h-595.28125zm0 0"/></clipPath><clipPath id="y"><path d="m0 581h595.28125v2h-595.28125zm0 0"/></clipPath><clipPath id="z"><path d="m0 764h595.28125v2h-595.28125zm0 0"/></clipPath><clipPath id="A"><path d="m0 753h595.28125v1h-595.28125zm0 0"/></clipPath><clipPath id="B"><path d="m0 741h595.28125v2h-595.28125zm0 0"/></clipPath><clipPath id="C"><path d="m0 730h595.28125v2h-595.28125zm0 0"/></clipPath><clipPath id="D"><path d="m0 718h595.28125v2h-595.28125zm0 0"/></clipPath><clipPath id="E"><path d="m0 902h595.28125v1h-595.28125zm0 0"/></clipPath><clipPath id="F"><path d="m0 890h595.28125v2h-595.28125zm0 0"/></clipPath><clipPath id="G"><path d="m0 879h595.28125v1h-595.28125zm0 0"/></clipPath><clipPath id="H"><path d="m0 867h595.28125v2h-595.28125zm0 0"/></clipPath><clipPath id="I"><path d="m0 856h595.28125v2h-595.28125zm0 0"/></clipPath><clipPath id="J"><path d="m0 1039h595.28125v2h-595.28125zm0 0"/></clipPath><clipPath id="K"><path d="m0 1028h595.28125v1h-595.28125zm0 0"/></clipPath><clipPath id="L"><path d="m0 1016h595.28125v2h-595.28125zm0 0"/></clipPath><clipPath id="M"><path d="m0 1005h595.28125v2h-595.28125zm0 0"/></clipPath><clipPath id="N"><path d="m0 993h595.28125v2h-595.28125zm0 0"/></clipPath><clipPath id="O"><path d="m590 992h5.28125v51h-5.28125zm0 0"/></clipPath><symbol id="P" overflow="visible"><path d="m3.984375-20.625h-2.34375v20.625h2.34375v-5.765625l2.296875-2.265625 5.015625 8.03125h2.90625l-6.046875-9.703125 5.140625-5.125h-3.03125l-6.28125 6.28125zm0 0"/></symbol><symbol id="Q" overflow="visible"><path d="m7.703125-15.25c-4.1875 0-6.6875 2.96875-6.6875 7.953125 0 5 2.5 7.953125 6.703125 7.953125 4.1875 0 6.71875-2.984375 6.71875-7.84375 0-5.15625-2.4375-8.0625-6.734375-8.0625zm.015625 2.171875c2.671875 0 4.25 2.1875 4.25 5.859375 0 3.515625-1.640625 5.6875-4.25 5.6875-2.625 0-4.234375-2.171875-4.234375-5.765625s1.609375-5.78125 4.234375-5.78125zm-.8125-7.15625h-2.9375v2.921875h2.9375zm4.578125 0h-2.9375v2.921875h2.9375zm0 0"/></symbol><symbol id="R" overflow="visible"><path d="m1.984375-14.828125v14.828125h2.375v-9.3125c0-2.140625 1.546875-3.875 3.484375-3.875 1.75 0 2.734375 1.078125 2.734375 2.96875v10.21875h2.375v-9.3125c0-2.140625 1.5625-3.875 3.484375-3.875 1.734375 0 2.75 1.109375 2.75 2.96875v10.21875h2.375v-11.125c0-2.65625-1.53125-4.125-4.296875-4.125-1.984375 0-3.171875.59375-4.5625 2.265625-.875-1.59375-2.0625-2.265625-3.984375-2.265625-1.984375 0-3.3125.734375-4.5625 2.515625v-2.09375zm0 0"/></symbol><symbol id="S" overflow="visible"><path d="m13.640625 0v-14.828125h-2.34375v8.40625c0 3.03125-1.59375 5-4.046875 5-1.875 0-3.0625-1.125-3.0625-2.90625v-10.5h-2.34375v11.4375c0 2.453125 1.828125 4.046875 4.71875 4.046875 2.1875 0 3.5625-.765625 4.953125-2.71875v2.0625zm-6.765625-20.9375-2.71875 4.25h1.703125l4.21875-4.25zm4.921875 0-2.71875 4.25h1.703125l4.21875-4.25zm0 0"/></symbol><symbol id="T" overflow="visible"><path d="m12.390625-10.703125c-.03125-2.90625-1.953125-4.546875-5.375-4.546875-3.453125 0-5.6875 1.78125-5.6875 4.53125 0 2.3125 1.1875 3.421875 4.703125 4.265625l2.203125.546875c1.640625.390625 2.296875.984375 2.296875 2.03125 0 1.40625-1.390625 2.34375-3.453125 2.34375-1.28125 0-2.359375-.359375-2.953125-.984375-.359375-.421875-.53125-.859375-.671875-1.90625h-2.484375c.109375 3.4375 2.03125 5.078125 5.90625 5.078125 3.734375 0 6.109375-1.84375 6.109375-4.703125 0-2.203125-1.234375-3.421875-4.1875-4.125l-2.265625-.546875c-1.921875-.453125-2.734375-1.078125-2.734375-2.125 0-1.375 1.21875-2.234375 3.140625-2.234375 1.890625 0 2.90625.828125 2.96875 2.375zm0 0"/></symbol><symbol id="U" overflow="visible"><path d="m15.140625-1.390625c-.25.0625-.375.0625-.515625.0625-.8125 0-1.265625-.421875-1.265625-1.15625v-8.71875c0-2.640625-1.921875-4.046875-5.578125-4.046875-2.171875 0-3.90625.625-4.921875 1.71875-.6875.765625-.96875 1.625-1.015625 3.09375h2.375c.203125-1.8125 1.265625-2.640625 3.484375-2.640625 2.140625 0 3.296875.796875 3.296875 2.21875v.609375c-.015625 1.03125-.53125 1.390625-2.453125 1.640625-3.34375.4375-3.84375.546875-4.75.90625-1.734375.734375-2.609375 2.046875-2.609375 3.96875 0 2.6875 1.875 4.390625 4.875 4.390625 1.859375 0 3.359375-.65625 5.03125-2.1875.171875 1.53125.90625 2.1875 2.4375 2.1875.5 0 .8125-.0625 1.609375-.265625zm-4.140625-3.28125c0 .796875-.21875 1.28125-.921875 1.921875-.96875.875-2.125 1.328125-3.515625 1.328125-1.84375 0-2.90625-.875-2.90625-2.375 0-1.546875 1.015625-2.34375 3.5625-2.71875 2.515625-.328125 3-.453125 3.78125-.8125zm0 0"/></symbol><symbol id="V" overflow="visible"><path d="m1.984375-14.828125v14.828125h2.375v-8.171875c0-3.03125 1.578125-5.015625 4.015625-5.015625 1.875 0 3.0625 1.140625 3.0625 2.921875v10.265625h2.34375v-11.203125c0-2.46875-1.84375-4.046875-4.703125-4.046875-2.203125 0-3.609375.84375-4.921875 2.90625v-2.484375zm0 0"/></symbol><symbol id="W" overflow="visible"><path d="m14-20.625h-2.34375v7.671875c-.984375-1.5-2.578125-2.296875-4.546875-2.296875-3.859375 0-6.375 3.078125-6.375 7.8125 0 5 2.4375 8.09375 6.453125 8.09375 2.03125 0 3.453125-.765625 4.71875-2.609375v1.953125h2.09375zm-6.5 7.578125c2.546875 0 4.15625 2.234375 4.15625 5.796875 0 3.4375-1.640625 5.6875-4.125 5.6875-2.609375 0-4.328125-2.28125-4.328125-5.734375s1.71875-5.75 4.296875-5.75zm0 0"/></symbol><symbol id="X" overflow="visible"><path d="m4.25-14.828125h-2.359375v14.828125h2.359375zm0-5.796875h-2.375v2.96875h2.375zm0 0"/></symbol><symbol id="Y" overflow="visible"><path d="m2.46875-2.9375v2.9375h1.6875v.515625c0 1.953125-.359375 2.515625-1.6875 2.5625v1.078125c1.859375.0625 2.96875-1.296875 2.96875-3.703125v-3.390625zm0 0"/></symbol><symbol id="Z" overflow="visible"><path d="m15.140625-1.390625c-.25.0625-.375.0625-.515625.0625-.8125 0-1.265625-.421875-1.265625-1.15625v-8.71875c0-2.640625-1.921875-4.046875-5.578125-4.046875-2.171875 0-3.90625.625-4.921875 1.71875-.6875.765625-.96875 1.625-1.015625 3.09375h2.375c.203125-1.8125 1.265625-2.640625 3.484375-2.640625 2.140625 0 3.296875.796875 3.296875 2.21875v.609375c-.015625 1.03125-.53125 1.390625-2.453125 1.640625-3.34375.4375-3.84375.546875-4.75.90625-1.734375.734375-2.609375 2.046875-2.609375 3.96875 0 2.6875 1.875 4.390625 4.875 4.390625 1.859375 0 3.359375-.65625 5.03125-2.1875.171875 1.53125.90625 2.1875 2.4375 2.1875.5 0 .8125-.0625 1.609375-.265625zm-4.140625-3.28125c0 .796875-.21875 1.28125-.921875 1.921875-.96875.875-2.125 1.328125-3.515625 1.328125-1.84375 0-2.90625-.875-2.90625-2.375 0-1.546875 1.015625-2.34375 3.5625-2.71875 2.515625-.328125 3-.453125 3.78125-.8125zm-2.390625-16.265625-2.75 4.1875h1.703125l4.203125-4.1875zm0 0"/></symbol><symbol id="aa" overflow="visible"><path d="m13.40625-6.203125 2.125 6.203125h2.953125l-7.25-20.625h-3.390625l-7.359375 20.625h2.796875l2.1875-6.203125zm-.734375-2.203125h-6.5625l3.390625-9.390625zm0 0"/></symbol><symbol id="ab" overflow="visible"><path d="m12.53125-14.828125h-11.0625v2.0625h8.265625l-8.859375 10.640625v2.125h12.0625v-2.0625h-9.203125l8.796875-10.671875zm0 0"/></symbol><symbol id="ac" overflow="visible"><path d="m13.328125-9.84375c-.109375-1.453125-.421875-2.375-.984375-3.203125-1.03125-1.390625-2.8125-2.203125-4.875-2.203125-4.015625 0-6.59375 3.171875-6.59375 8.09375 0 4.78125 2.546875 7.8125 6.5625 7.8125 3.546875 0 5.78125-2.125 6.0625-5.75h-2.375c-.40625 2.375-1.625 3.5625-3.625 3.5625-2.609375 0-4.15625-2.125-4.15625-5.625 0-3.703125 1.515625-5.921875 4.09375-5.921875 1.984375 0 3.234375 1.171875 3.515625 3.234375zm0 0"/></symbol><symbol id="ad" overflow="visible"><path d="m7.703125-15.25c-4.1875 0-6.6875 2.96875-6.6875 7.953125 0 5 2.5 7.953125 6.703125 7.953125 4.1875 0 6.71875-2.984375 6.71875-7.84375 0-5.15625-2.4375-8.0625-6.734375-8.0625zm.015625 2.171875c2.671875 0 4.25 2.1875 4.25 5.859375 0 3.515625-1.640625 5.6875-4.25 5.6875-2.625 0-4.234375-2.171875-4.234375-5.765625s1.609375-5.78125 4.234375-5.78125zm0 0"/></symbol><symbol id="ae" overflow="visible"><path d="m15.59375-20.625.03125 14.484375c0 2.765625-2.015625 4.46875-5.296875 4.46875s-5.296875-1.703125-5.296875-4.46875v-14.484375h-2.625v14.484375c0 4.125 3.109375 6.796875 7.921875 6.796875s7.921875-2.6875 7.921875-6.796875l-.03125-14.484375zm-4.640625-5.953125-2.71875 4.1875h1.703125l4.21875-4.1875zm0 0"/></symbol><symbol id="af" overflow="visible"><path d="m1.953125-14.828125v14.828125h2.375v-7.703125c.03125-3.5625 1.5-5.140625 4.75-5.0625v-2.40625c-.390625-.046875-.625-.078125-.90625-.078125-1.515625 0-2.6875.90625-4.046875 3.109375v-2.6875zm0 0"/></symbol><symbol id="ag" overflow="visible"><path d="m8.0625 0 5.6875-14.828125h-2.65625l-4.1875 12.03125-3.96875-12.03125h-2.65625l5.203125 14.828125zm0 0"/></symbol><symbol id="ah" overflow="visible"><path d="m5.40625-2.9375h-2.9375v2.9375h2.9375zm0 0"/></symbol><symbol id="ai" overflow="visible"><path d="m14.515625-6.625c0-2.265625-.171875-3.625-.59375-4.71875-.96875-2.4375-3.21875-3.90625-6-3.90625-4.125 0-6.796875 3.140625-6.796875 8.03125s2.546875 7.875 6.734375 7.875c3.40625 0 5.75-1.921875 6.34375-5.15625h-2.375c-.65625 1.953125-1.984375 2.96875-3.875 2.96875-1.5 0-2.78125-.671875-3.5625-1.921875-.578125-.84375-.765625-1.703125-.796875-3.171875zm-10.859375-1.921875c.1875-2.75 1.859375-4.53125 4.234375-4.53125 2.40625 0 4.078125 1.875 4.078125 4.53125zm0 0"/></symbol><symbol id="aj" overflow="visible"><path d="m1.984375-14.828125v16.984375c0 1.46875-.453125 1.953125-1.921875 1.953125-.171875 0-.265625 0-.578125-.03125v2c.296875.0625.4375.09375.796875.09375 2.65625 0 4.046875-1.046875 4.046875-3.09375v-17.90625zm2.34375-5.796875h-2.34375v2.96875h2.34375zm0 0"/></symbol><symbol id="ak" overflow="visible"><path d="m7.1875-14.828125h-2.4375v-4.078125h-2.34375v4.078125h-2.015625v1.921875h2.015625v11.203125c0 1.53125 1.015625 2.359375 2.859375 2.359375.625 0 1.125-.0625 1.921875-.203125v-1.984375c-.34375.09375-.65625.109375-1.125.109375-1.03125 0-1.3125-.28125-1.3125-1.328125v-10.15625h2.4375zm0 0"/></symbol><symbol id="al" overflow="visible"><path d="m13.640625 0v-14.828125h-2.34375v8.40625c0 3.03125-1.59375 5-4.046875 5-1.875 0-3.0625-1.125-3.0625-2.90625v-10.5h-2.34375v11.4375c0 2.453125 1.828125 4.046875 4.71875 4.046875 2.1875 0 3.5625-.765625 4.953125-2.71875v2.0625zm-5.265625-20.9375-2.71875 4.1875h1.703125l4.21875-4.1875zm0 0"/></symbol><symbol id="am" overflow="visible"><path d="m2.515625 0h7.953125c5.203125 0 8.40625-3.90625 8.40625-10.328125 0-6.390625-3.171875-10.296875-8.40625-10.296875h-7.953125zm2.640625-2.328125v-15.984375h4.859375c4.078125 0 6.234375 2.75 6.234375 8.015625 0 5.234375-2.15625 7.96875-6.234375 7.96875zm0 0"/></symbol><symbol id="an" overflow="visible"><path d="m4.296875-20.625h-2.375v20.625h2.375zm0 0"/></symbol><symbol id="ao" overflow="visible"><path d="m1.53125-20.625v20.625h2.125v-1.890625c1.125 1.71875 2.625 2.546875 4.6875 2.546875 3.90625 0 6.453125-3.203125 6.453125-8.125 0-4.8125-2.40625-7.78125-6.34375-7.78125-2.03125 0-3.46875.765625-4.578125 2.4375v-7.8125zm6.484375 7.578125c2.625 0 4.328125 2.296875 4.328125 5.828125 0 3.375-1.765625 5.65625-4.328125 5.65625-2.53125 0-4.140625-2.25-4.140625-5.734375s1.609375-5.75 4.140625-5.75zm0 0"/></symbol><symbol id="ap" overflow="visible"><path d="m10.984375-14.828125-4.109375 11.546875-3.796875-11.546875h-2.515625l5.015625 14.890625-.90625 2.34375c-.40625 1.046875-.90625 1.4375-1.90625 1.4375-.390625 0-.734375-.046875-1.234375-.171875v2.125c.484375.265625.953125.375 1.578125.375.765625 0 1.59375-.265625 2.203125-.703125.75-.546875 1.171875-1.171875 1.625-2.359375l6.59375-17.9375zm0 0"/></symbol><symbol id="aq" overflow="visible"><path d="m11.4375-14.828125v2.15625c-1.1875-1.78125-2.5-2.578125-4.359375-2.578125-3.59375 0-6.09375 3.34375-6.09375 8.09375 0 2.484375.59375 4.296875 1.875 5.796875 1.109375 1.296875 2.515625 2.015625 4.046875 2.015625 1.78125 0 3.046875-.796875 4.296875-2.671875v.765625c0 3.96875-1.09375 5.4375-4.046875 5.4375-2 0-3.046875-.796875-3.28125-2.484375h-2.40625c.234375 2.734375 2.40625 4.46875 5.640625 4.46875 2.171875 0 3.984375-.703125 4.9375-1.90625 1.140625-1.375 1.5625-3.21875 1.5625-6.703125v-12.390625zm-4.140625 1.75c2.5 0 3.90625 2.09375 3.90625 5.859375 0 3.59375-1.4375 5.6875-3.90625 5.6875-2.4375 0-3.84375-2.125-3.84375-5.765625 0-3.625 1.40625-5.78125 3.84375-5.78125zm0 0"/></symbol><symbol id="ar" overflow="visible"><path d="m10.015625-18.3125h6.765625v-2.3125h-16.1875v2.3125h6.796875v18.3125h2.625zm0 0"/></symbol><symbol id="as" overflow="visible"><path d="m1.984375-20.625v20.625h2.34375v-8.171875c0-3.03125 1.578125-5.015625 4.015625-5.015625.796875 0 1.53125.234375 2.09375.65625.6875.5.96875 1.21875.96875 2.265625v10.265625h2.34375v-11.203125c0-2.5-1.78125-4.046875-4.671875-4.046875-2.09375 0-3.359375.65625-4.75 2.453125v-7.828125zm0 0"/></symbol><symbol id="at" overflow="visible"><path d="m13.640625 0v-14.828125h-2.34375v8.40625c0 3.03125-1.59375 5-4.046875 5-1.875 0-3.0625-1.125-3.0625-2.90625v-10.5h-2.34375v11.4375c0 2.453125 1.828125 4.046875 4.71875 4.046875 2.1875 0 3.5625-.765625 4.953125-2.71875v2.0625zm0 0"/></symbol><symbol id="au" overflow="visible"><path d="m16.859375-14.578125c0-1.40625-.078125-1.8125-.53125-2.765625-1.125-2.375-3.53125-3.625-7.015625-3.625-4.53125 0-7.328125 2.328125-7.328125 6.0625 0 2.515625 1.328125 4.09375 4.046875 4.796875l5.125 1.359375c2.625.6875 3.78125 1.734375 3.78125 3.34375 0 1.109375-.59375 2.234375-1.46875 2.859375-.8125.59375-2.125.875-3.796875.875-2.265625 0-3.765625-.53125-4.75-1.71875-.765625-.90625-1.109375-1.90625-1.078125-3.171875h-2.484375c.03125 1.890625.390625 3.140625 1.21875 4.265625 1.40625 1.953125 3.78125 2.953125 6.921875 2.953125 2.46875 0 4.484375-.578125 5.8125-1.59375 1.375-1.09375 2.265625-2.9375 2.265625-4.71875 0-2.546875-1.59375-4.421875-4.390625-5.1875l-5.171875-1.375c-2.5-.6875-3.40625-1.484375-3.40625-3.0625 0-2.09375 1.84375-3.484375 4.609375-3.484375 3.28125 0 5.125 1.46875 5.15625 4.1875zm0 0"/></symbol><symbol id="av" overflow="visible"><path d="m14.515625-6.625c0-2.265625-.171875-3.625-.59375-4.71875-.96875-2.4375-3.21875-3.90625-6-3.90625-4.125 0-6.796875 3.140625-6.796875 8.03125s2.546875 7.875 6.734375 7.875c3.40625 0 5.75-1.921875 6.34375-5.15625h-2.375c-.65625 1.953125-1.984375 2.96875-3.875 2.96875-1.5 0-2.78125-.671875-3.5625-1.921875-.578125-.84375-.765625-1.703125-.796875-3.171875zm-10.859375-1.921875c.1875-2.75 1.859375-4.53125 4.234375-4.53125 2.40625 0 4.078125 1.875 4.078125 4.53125zm5.0625-12.390625-2.71875 4.1875h1.703125l4.203125-4.1875zm0 0"/></symbol><symbol id="aw" overflow="visible"><path d="m13.25 0 5.796875-17.296875v17.296875h2.484375v-20.625h-3.640625l-6 17.96875-6.125-17.96875h-3.640625v20.625h2.484375v-17.296875l5.859375 17.296875zm0 0"/></symbol><symbol id="ax" overflow="visible"><path d="m5.171875-9.390625h9.859375v-2.328125h-9.859375v-6.59375h11.21875v-2.3125h-13.84375v20.625h2.625zm0 0"/></symbol><symbol id="ay" overflow="visible"><path d="m7.296875-14.828125h-2.453125v-2.3125c0-1 .53125-1.5 1.640625-1.5.1875 0 .28125 0 .8125.015625v-1.953125c-.53125-.109375-.84375-.140625-1.328125-.140625-2.171875 0-3.484375 1.25-3.484375 3.375v2.515625h-1.96875v1.921875h1.96875v12.90625h2.359375v-12.90625h2.453125zm0 0"/></symbol><symbol id="az" overflow="visible"><path d="m10.171875-6.1875c-1.921875 0-3.75.640625-5.40625 1.65625-2.15625 1.28125-4.765625 3.515625-4.765625 6.78125 0 2.703125 2.390625 3.9375 4.8125 3.9375 1.921875 0 3.75-.640625 5.40625-1.65625 2.15625-1.28125 4.71875-3.515625 4.71875-6.78125 0-2.703125-2.328125-3.9375-4.765625-3.9375zm0 0"/></symbol><symbol id="aA" overflow="visible"><path d="m0 0h-.640625v11.453125h.640625zm0 0v11.453125c3.296875 3.4375 7.703125 8.25 7.703125 13.015625 0 3.078125-.6875 6.046875-1.890625 8.890625-.125.6875.421875 1.15625.96875 1.15625.328125 0 .59375-.1875.78125-.515625 1.1875-3.015625 1.921875-6.28125 1.921875-9.53125 0-9.078125-9.484375-15.390625-9.484375-24.46875zm0 0"/></symbol><symbol id="aB" overflow="visible"><path d="m1.140625-2.015625c.046875-1.515625 1.0625-2.84375 2.484375-2.84375 1.375 0 2.015625 1.609375 2.015625 3.15625 0 2.71875-2.296875 4.640625-4.40625 6.375-.09375-1-.1875-2.015625-.1875-3.015625 0-.1875.046875-.328125.046875-.515625zm-2.28125-19.203125.5 27.453125c0 .546875.40625.953125.96875.953125.8125 0 1.1875-.953125 1.828125-1.453125 2.890625-2.34375 7.015625-4 7.015625-7.75 0-2.46875-1.84375-4.578125-4.265625-4.578125-1.46875 0-2.84375.5-4.03125 1.375l.265625-16c-.359375-.1875-.734375-.328125-1.140625-.328125s-.78125.140625-1.140625.328125zm0 0"/></symbol><symbol id="aC" overflow="visible"><path d="m17.140625-11.921875c-.734375-3.203125-1.609375-6.359375-2.515625-9.53125 4.390625-4.984375 8.375-10.125 8.375-16.71875 0-5.1875-2.828125-12.609375-6.046875-16.453125-.21875-.1875-.5-.1875-.734375 0-4.34375 3.15625-6.875 8.203125-6.875 13.515625 0 2.390625.046875 4.71875.328125 7.0625.3125 2.96875 1.09375 5.859375 1.921875 8.75-5.40625 6.140625-11.5 12-11.5 20.171875 0 9.203125 6.640625 17.046875 15.265625 17.046875 1.40625 0 2.75-.140625 4.078125-.375.125 1.46875.21875 2.9375.21875 4.40625 0 .8125-.046875 1.59375-.09375 2.421875-.265625 4.53125-3.0625 8.703125-7.328125 8.796875-.046875 0-.09375.046875-.140625.046875-2.328125 0-4.34375-1.328125-5.546875-3.203125.515625.234375 1.0625.40625 1.609375.40625 2.390625 0 4.359375-1.96875 4.359375-4.34375 0-2.578125-1.890625-4.765625-4.359375-4.765625-2.703125 0-5.125 2.109375-5.125 4.765625 0 4.9375 3.984375 8.9375 8.9375 8.9375 5.40625 0 9.109375-4.859375 9.4375-10.359375.046875-.875.046875-1.703125.046875-2.578125 0-1.640625-.09375-3.296875-.234375-4.9375 1.1875-.375 2.34375-.921875 3.34375-1.703125 3.390625-2.515625 4.90625-6.046875 4.90625-9.53125 0-6.046875-4.578125-11.875-11.640625-11.875-.234375 0-.453125.046875-.6875.046875zm3.890625 21.3125c-.640625-5.671875-1.6875-11.09375-2.84375-16.453125 5.046875.421875 8.203125 4.640625 8.203125 8.84375 0 3.21875-2.1875 6.515625-5.359375 7.609375zm-17.78125-10.8125c0-7.328125 4.953125-12.875 9.90625-18.421875.734375 2.703125 1.46875 5.40625 2.109375 8.15625-4.640625 1.0625-7.25 4.953125-7.25 8.984375 0 3.203125 1.65625 6.46875 5.328125 8.4375.125.046875.265625.078125.40625.078125.5 0 .921875-.453125.921875-.953125 0-.234375-.140625-.453125-.328125-.640625-2.5625-1.46875-3.75-3.671875-3.75-5.6875 0-2.703125 2.09375-5.125 5.71875-5.546875 1.1875 5.5 2.25 10.953125 2.9375 16.828125-1.234375.171875-2.484375.265625-3.765625.265625-6.234375 0-12.234375-5.265625-12.234375-11.5zm15.578125-46.703125c.78125 2.4375.96875 3.625.96875 6.28125 0 5.828125-3.0625 10.453125-6.828125 14.890625-.828125-2.875-1.515625-5.671875-1.515625-9.15625 0-5.09375 2.84375-9.71875 7.375-12.015625zm0 0"/></symbol><symbol id="aD" overflow="visible"><path d="m0 0c0 1.46875 1.140625 2.609375 2.609375 2.609375s2.609375-1.140625 2.609375-2.609375-1.140625-2.609375-2.609375-2.609375-2.609375 1.140625-2.609375 2.609375zm0 0"/></symbol><symbol id="aE" overflow="visible"><path d="m0 0v-11.453125h-.640625v11.453125zm0 0c0-9.296875 12.234375-14.015625 12.234375-23.328125 0-2.84375-.6875-5.640625-1.828125-8.203125-.1875-.3125-.5-.453125-.828125-.453125-.546875 0-1.09375.453125-.96875 1.140625 1.15625 2.390625 1.84375 4.90625 1.84375 7.515625 0 5.140625-5.96875 9.21875-10.453125 11.875zm0 0"/></symbol><symbol id="aF" overflow="visible"><path d="m-1.046875 5.171875c0 2.484375 2.140625 6.828125 4.25 9.359375.28125.3125.734375-.09375.46875-.421875-.78125-.953125-1.28125-2.796875-1.28125-4.390625 0-1.875.546875-3.21875 2.375-3.21875 1.65625 0 3.796875.96875 4.671875 1.984375.140625.171875.328125.21875.46875.21875.3125 0 .640625-.3125.640625-.640625 0-.140625-.046875-.21875-.140625-.359375l-3.984375-4.765625c-.734375-.921875-1.109375-1.96875-1.109375-3.078125 0-1.421875.59375-2.890625 1.796875-3.890625 1.6875-1.46875 3.9375-2.890625 3.9375-4.40625 0-.359375-.140625-.78125-.453125-1.140625l-6.96875-8.34375c-.140625-.1875-.328125-.21875-.46875-.21875-.3125 0-.640625.3125-.640625.640625 0 .125.046875.265625.140625.40625l1.796875 2.109375c.71875.921875 1.09375 1.96875 1.09375 3.0625 0 1.421875-.59375 2.890625-1.78125 3.90625-1.703125 1.46875-3.953125 2.890625-3.953125 4.390625 0 .375.140625.78125.46875 1.15625l6.265625 7.515625c-2.0625-1.015625-4.390625-1.703125-5.953125-1.703125-1.1875 0-1.640625.640625-1.640625 1.828125zm0 0"/></symbol><symbol id="aG" overflow="visible"><path d="m9.859375 14.484375v-7.46875l2.234375-.78125c.28125-.09375.515625-.375.515625-.6875v-2.984375c0-.5-.515625-.859375-.96875-.6875l-1.78125.640625v-7.515625l2.234375-.8125c.28125-.09375.515625-.375.515625-.6875v-2.9375c0-.5-.515625-.875-.96875-.6875l-1.78125.59375v-6.875c0-.40625-.375-.78125-.78125-.78125-.421875 0-.78125.375-.78125.78125v7.421875l-3.984375 1.421875v-6.921875c0-.40625-.375-.78125-.78125-.78125-.421875 0-.78125.375-.78125.78125v7.46875l-2.25.78125c-.265625.09375-.5.375-.5.6875v2.984375c0 .5.5.859375.96875.6875l1.78125-.640625v7.515625l-2.25.8125c-.265625.09375-.5.375-.5.6875v2.9375c0 .5.5.875.96875.6875l1.78125-.59375v6.875c0 .40625.359375.78125.78125.78125.40625 0 .78125-.375.78125-.78125v-7.421875l3.984375-1.421875v6.921875c0 .40625.359375.78125.78125.78125.40625 0 .78125-.375.78125-.78125zm-5.546875-17.5625 3.984375-1.375v7.53125l-3.984375 1.375zm0 0"/></symbol><symbol id="aH" overflow="visible"><path d="m-.328125-17.1875.328125 26.359375c0 .40625.359375.765625.78125.765625.046875 0 .046875-.03125.09375-.03125l4.984375-.828125-.078125 8.109375c.3125.1875.71875.265625 1.09375.265625.359375 0 .78125-.078125 1.09375-.265625l-.3125-26.359375c0-.40625-.375-.765625-.78125-.765625-.046875 0-.09375.03125-.140625.03125l-5 .828125.09375-8.109375c-.3125-.1875-.6875-.265625-1.046875-.265625-.375 0-.78125.078125-1.109375.265625zm6.375 11.96875-.09375 9.75-4.390625.6875.140625-9.75zm0 0"/></symbol><symbol id="aI" overflow="visible"><path d="m7.609375-11.6875c2.65625 0 2.9375 2.296875 2.9375 5.359375 0 3.078125-.28125 5.359375-2.9375 5.359375-2.5625 0-2.609375-2.328125-2.609375-5.359375 0-3.015625.046875-5.359375 2.609375-5.359375zm-2.609375-.359375c0-1.015625-.046875-1.96875-.046875-2.984375 0-3.671875.359375-6.921875 3.578125-6.921875 1 0 2.0625.5 2.0625 1.421875 0 1.046875-1.796875 1.1875-1.796875 2.25 0 1.640625 1.328125 2.96875 2.984375 2.96875 1.640625 0 2.96875-1.328125 2.96875-2.96875 0-2.890625-3.0625-4.625-6.21875-4.625-5.375 0-8.53125 5.578125-8.53125 11.453125 0 5.71875 2.515625 11.453125 7.609375 11.453125 4.53125 0 7.65625-2.0625 7.65625-6.328125s-3.125-6.359375-7.65625-6.359375c-.921875 0-1.75.3125-2.609375.640625zm0 0"/></symbol><symbol id="aJ" overflow="visible"><path d="m11.546875-13.0625-5.125-2.9375c-1.015625-.59375-1.421875-1.5-1.421875-2.515625 0-1.6875 1.328125-3.4375 3.5625-3.4375 2.796875 0 5.453125 1.609375 5.453125 4.171875 0 1.875-1.140625 3.34375-2.46875 4.71875zm1.234375.734375c1.5625-1.609375 3.03125-3.25 3.03125-5.453125 0-3.296875-3.578125-5.125-7.25-5.125-5.171875 0-7.921875 2.96875-7.921875 6.046875 0 1.828125.921875 3.703125 2.9375 4.984375-1.75 1.609375-3.578125 3.21875-3.578125 5.546875 0 3.90625 3.984375 6.328125 8.203125 6.328125 5.5 0 8.484375-3.203125 8.484375-6.5 0-2.25-1.375-4.359375-3.90625-5.828125zm-7.921875 1.1875 5.6875 3.265625c1.1875.6875 1.6875 1.875 1.6875 3.015625 0 1.921875-1.515625 3.890625-4.03125 3.890625-3.34375 0-6.375-2.1875-6.375-5.359375 0-2.015625 1.46875-3.4375 3.03125-4.8125zm0 0"/></symbol><symbol id="aK" overflow="visible"><path d="m6-12.328125v12.328125h3.53125v-17.875h-2.34375c-.5625 2.125-2.40625 3.203125-5.46875 3.203125v2.34375zm0 0"/></symbol><symbol id="aL" overflow="visible"><path d="m5.390625-3.671875h-3.78125v3.671875h3.78125zm0 0"/></symbol><g clip-path="url(#a)"><path d="m3.59375 10375.210937h5945.546875" fill="none" stroke="#000" stroke-linecap="round" stroke-miterlimit="10" stroke-width="7.20648" transform="matrix(.1 0 0 -.1 0 1115.15)"/></g><g clip-path="url(#b)"><path d="m3.59375 10489.78125h5945.546875" fill="none" stroke="#000" stroke-linecap="round" stroke-miterlimit="10" stroke-width="7.20648" transform="matrix(.1 0 0 -.1 0 1115.15)"/></g><g clip-path="url(#c)"><path d="m3.59375 10604.390625h5945.546875" fill="none" stroke="#000" stroke-linecap="round" stroke-miterlimit="10" stroke-width="7.20648" transform="matrix(.1 0 0 -.1 0 1115.15)"/></g><g clip-path="url(#d)"><path d="m3.59375 10718.882812h5945.546875" fill="none" stroke="#000" stroke-linecap="round" stroke-miterlimit="10" stroke-width="7.20648" transform="matrix(.1 0 0 -.1 0 1115.15)"/></g><g clip-path="url(#e)"><path d="m3.59375 10833.492187h5945.546875" fill="none" stroke="#000" stroke-linecap="round" stroke-miterlimit="10" stroke-width="7.20648" transform="matrix(.1 0 0 -.1 0 1115.15)"/></g><g fill="none" stroke="#000" stroke-miterlimit="10" transform="matrix(.1 0 0 -.1 0 1115.15)"><path d="m4089.453125 10375.210937v458.28125" stroke-width="13.6797"/><path d="m1687.03125 10375.210937v458.28125" stroke-width="13.6797"/><path d="m4312.890625 10457.007812h5.390625v374.453125h-5.390625zm0 0" stroke-linejoin="round" stroke-width="3.98705"/></g><path d="m431.289062 69.449219h.535157v-37.445313h-.535157zm0 0"/><use x="471.033" xlink:href="#P" y="117.728"/><use x="484.639276" xlink:href="#Q" y="117.728"/><use x="404.902822" xlink:href="#R" y="117.728"/><use x="428.543076" xlink:href="#S" y="117.728"/><use x="417.067" xlink:href="#az" y="71.8999"/><use x="367.2369" xlink:href="#aA" y="37.7284"/><path d="m3665 10399.703125h5.351562v374.453125h-5.351562zm0 0" fill="none" stroke="#000" stroke-linejoin="round" stroke-miterlimit="10" stroke-width="3.98705" transform="matrix(.1 0 0 -.1 0 1115.15)"/><path d="m366.5 75.179688h.535156v-37.445313h-.535156zm0 0"/><use x="337.051" xlink:href="#T" y="117.728"/><use x="351.167042" xlink:href="#U" y="117.728"/><use x="366.813929" xlink:href="#V" y="117.728"/><use x="352.2764" xlink:href="#az" y="77.6284"/><path d="m3053.867188 10342.515625h5.390624v374.453125h-5.390624zm0 0" fill="none" stroke="#000" stroke-linejoin="round" stroke-miterlimit="10" stroke-width="3.98705" transform="matrix(.1 0 0 -.1 0 1115.15)"/><path d="m305.386719 80.898438h.539062v-37.445313h-.539062zm0 0"/><path d="m2703.398438 10051.617187h69.84375v3.59375h-69.84375zm0 0" fill="none" stroke="#000" stroke-linejoin="round" stroke-miterlimit="10" stroke-width="5.76289" transform="matrix(.1 0 0 -.1 0 1115.15)"/><path d="m270.339844 109.988281h6.984375v-.359375h-6.984375zm0 0"/><path d="m3221.796875 10051.617187h69.84375v3.59375h-69.84375zm0 0" fill="none" stroke="#000" stroke-linejoin="round" stroke-miterlimit="10" stroke-width="5.76289" transform="matrix(.1 0 0 -.1 0 1115.15)"/><path d="m322.175781 109.988281h6.988281v-.359375h-6.988281zm0 0"/><path d="m4541.171875 10051.617187h69.882813v3.59375h-69.882813zm0 0" fill="none" stroke="#000" stroke-linejoin="round" stroke-miterlimit="10" stroke-width="5.76289" transform="matrix(.1 0 0 -.1 0 1115.15)"/><path d="m454.117188 109.988281h6.988281v-.359375h-6.988281zm0 0"/><path d="m5065.429688 10051.617187h69.882812v3.59375h-69.882812zm0 0" fill="none" stroke="#000" stroke-linejoin="round" stroke-miterlimit="10" stroke-width="5.76289" transform="matrix(.1 0 0 -.1 0 1115.15)"/><path d="m506.542969 109.988281h6.984375v-.359375h-6.984375zm0 0"/><use x="478.179" xlink:href="#az" y="77.63"/><path d="m5483.867188 10342.515625h5.351562v374.453125h-5.351562zm0 0" fill="none" stroke="#000" stroke-linejoin="round" stroke-miterlimit="10" stroke-width="3.98705" transform="matrix(.1 0 0 -.1 0 1115.15)"/><path d="m548.386719 80.898438h.535156v-37.445313h-.535156zm0 0"/><use x="519.789" xlink:href="#W" y="117.728"/><use x="535.435887" xlink:href="#X" y="117.728"/><use x="541.729242" xlink:href="#P" y="117.728"/><use x="555.675752" xlink:href="#Y" y="117.728"/><use x="534.164" xlink:href="#az" y="83.3569"/><use x="493.1398" xlink:href="#aA" y="37.7284"/><path d="m4924.023438 10399.703125h5.390624v374.453125h-5.390624zm0 0" fill="none" stroke="#000" stroke-linejoin="round" stroke-miterlimit="10" stroke-width="3.98705" transform="matrix(.1 0 0 -.1 0 1115.15)"/><path d="m492.402344 75.179688h.539062v-37.445313h-.539062zm0 0"/><use x="73.3902" xlink:href="#aI" y="54.71"/><use x="72.794497" xlink:href="#aJ" y="77.6241"/><use x="282.996497" xlink:href="#W" y="117.7237"/><use x="298.643384" xlink:href="#Z" y="117.7237"/><use x="126.997497" xlink:href="#aA" y="20.5385"/><path d="m1262.617188 10571.617187h5.351562v374.453125h-5.351562zm0 0" fill="none" stroke="#000" stroke-linejoin="round" stroke-miterlimit="10" stroke-width="3.98705" transform="matrix(.1 0 0 -.1 0 1115.15)"/><path d="m126.261719 57.988281h.535156v-37.445312h-.535156zm0 0"/><use x="70.4723" xlink:href="#aK" y="117.728"/><use x="84.418778" xlink:href="#aL" y="117.728"/><use x="102.85" xlink:href="#aa" y="117.728"/><use x="122.069164" xlink:href="#ab" y="117.728"/><use x="50.4535" xlink:href="#aB" y="54.7143"/><use x="9.1656" xlink:href="#aC" y="66.1713"/><use x="112.0366" xlink:href="#az" y="60.44278"/><use x="235.0746" xlink:href="#az" y="71.89978"/><use x="220.4441" xlink:href="#ac" y="117.72788"/><use x="234.900376" xlink:href="#T" y="117.72788"/><use x="249.016808" xlink:href="#ad" y="117.72788"/><path d="m2492.96875 10457.007812h5.390625v374.453125h-5.390625zm0 0" fill="none" stroke="#000" stroke-linejoin="round" stroke-miterlimit="10" stroke-width="3.98705" transform="matrix(.1 0 0 -.1 0 1115.15)"/><path d="m249.296875 69.449219h.539063v-37.445313h-.539063zm0 0"/><use x="250.036" xlink:href="#aA" y="32"/><path d="m1910.507812 10571.617187h5.390626v374.453125h-5.390626zm0 0" fill="none" stroke="#000" stroke-linejoin="round" stroke-miterlimit="10" stroke-width="3.98705" transform="matrix(.1 0 0 -.1 0 1115.15)"/><path d="m191.050781 57.988281h.535157v-37.445312h-.535157zm0 0"/><use x="169.51" xlink:href="#ae" y="117.728"/><use x="189.749096" xlink:href="#af" y="117.728"/><use x="176.82641" xlink:href="#az" y="60.4428"/><use x="291.16441" xlink:href="#az" y="83.3569"/><g clip-path="url(#f)"><path d="m3.59375 9000.367187h5945.546875" style="fill:none;stroke-width:7.20648;stroke-linecap:round;stroke-linejoin:round;stroke:#000;stroke-miterlimit:10" transform="matrix(.1 0 0 -.1 0 1115.15)"/></g><g clip-path="url(#g)"><path d="m3.59375 9114.9375h5945.546875" style="fill:none;stroke-width:7.20648;stroke-linecap:round;stroke-linejoin:round;stroke:#000;stroke-miterlimit:10" transform="matrix(.1 0 0 -.1 0 1115.15)"/></g><g clip-path="url(#h)"><path d="m3.59375 9229.507812h5945.546875" style="fill:none;stroke-width:7.20648;stroke-linecap:round;stroke-linejoin:round;stroke:#000;stroke-miterlimit:10" transform="matrix(.1 0 0 -.1 0 1115.15)"/></g><g clip-path="url(#i)"><path d="m3.59375 9344.078125h5945.546875" style="fill:none;stroke-width:7.20648;stroke-linecap:round;stroke-linejoin:round;stroke:#000;stroke-miterlimit:10" transform="matrix(.1 0 0 -.1 0 1115.15)"/></g><g clip-path="url(#j)"><path d="m3.59375 9458.648437h5945.546875" style="fill:none;stroke-width:7.20648;stroke-linecap:round;stroke-linejoin:round;stroke:#000;stroke-miterlimit:10" transform="matrix(.1 0 0 -.1 0 1115.15)"/></g><g fill="none" stroke="#000" stroke-linejoin="round" stroke-miterlimit="10" transform="matrix(.1 0 0 -.1 0 1115.15)"><path d="m1541.09375 9000.367187v458.28125" stroke-width="13.6797"/><path d="m4415.898438 9000.367187v458.28125" stroke-width="13.6797"/><path d="m4643.671875 9196.734375h5.351563v374.492187h-5.351563zm0 0" stroke-width="3.98705"/></g><path d="m464.367188 195.476562h.535156v-37.449218h-.535156zm0 0"/><use x="470.338" xlink:href="#aD" y="197.927"/><use x="301.697189" xlink:href="#az" y="197.927"/><use x="431.2618" xlink:href="#ag" y="255.2125"/><use x="444.868076" xlink:href="#U" y="255.2125"/><use x="460.514963" xlink:href="#V" y="255.2125"/><use x="476.16185" xlink:href="#ah" y="255.2125"/><use x="450.1438" xlink:href="#az" y="197.927"/><use x="375.5344" xlink:href="#aE" y="230.6668"/><path d="m3747.96875 8844.820312h5.390625v360.15625h-5.390625zm0 0" fill="none" stroke="#000" stroke-linejoin="round" stroke-miterlimit="10" stroke-width="3.98705" transform="matrix(.1 0 0 -.1 0 1115.15)"/><path d="m374.796875 230.667969h.539063v-36.015625h-.539063zm0 0"/><use x="367.452" xlink:href="#ag" y="255.213"/><use x="381.058276" xlink:href="#ai" y="255.213"/><use x="374.5977" xlink:href="#az" y="192.1989"/><path d="m3159.21875 9196.734375h5.351562v374.492187h-5.351562zm0 0" fill="none" stroke="#000" stroke-linejoin="round" stroke-miterlimit="10" stroke-width="3.98705" transform="matrix(.1 0 0 -.1 0 1115.15)"/><path d="m315.921875 195.476562h.535156v-37.449218h-.535156zm0 0"/><use x="289.789" xlink:href="#af" y="255.213"/><use x="298.973002" xlink:href="#ai" y="255.213"/><use x="314.450357" xlink:href="#aj" y="255.213"/><use x="320.743737" xlink:href="#ak" y="255.213"/><path d="m2033.945312 8676.734375h69.84375v3.59375h-69.84375zm0 0" fill="none" stroke="#000" stroke-linejoin="round" stroke-miterlimit="10" stroke-width="5.76289" transform="matrix(.1 0 0 -.1 0 1115.15)"/><path d="m203.394531 247.476562h6.984375v-.359374h-6.984375zm0 0"/><path d="m3445.15625 8676.734375h69.84375v3.59375h-69.84375zm0 0" fill="none" stroke="#000" stroke-linejoin="round" stroke-miterlimit="10" stroke-width="5.76289" transform="matrix(.1 0 0 -.1 0 1115.15)"/><path d="m344.515625 247.476562h6.984375v-.359374h-6.984375zm0 0"/><use x="526.625" xlink:href="#aF" y="192.199"/><use x="158.406" xlink:href="#al" y="255.2131"/><use x="174.052899" xlink:href="#ak" y="255.2131"/><use x="162.66108" xlink:href="#az" y="209.3846"/><use x="102.07748" xlink:href="#aA" y="169.4846"/><path d="m1013.398438 9082.164062h5.390624v374.492188h-5.390624zm0 0" fill="none" stroke="#000" stroke-linejoin="round" stroke-miterlimit="10" stroke-width="3.98705" transform="matrix(.1 0 0 -.1 0 1115.15)"/><path d="m101.339844 206.933594h.535156v-37.449219h-.535156zm0 0"/><use x="76.5684" xlink:href="#am" y="255.213"/><use x="96.978194" xlink:href="#ai" y="255.213"/><use x="87.1161" xlink:href="#az" y="209.3845"/><path d="m1768.867188 9082.164062h5.351562v374.492188h-5.351562zm0 0" fill="none" stroke="#000" stroke-linejoin="round" stroke-miterlimit="10" stroke-width="3.98705" transform="matrix(.1 0 0 -.1 0 1115.15)"/><path d="m176.886719 206.933594h.535156v-37.449219h-.535156zm0 0"/><use x="50.4535" xlink:href="#aB" y="192.199"/><use x="9.1656" xlink:href="#aC" y="203.656"/><use x="250.3486" xlink:href="#aA" y="163.756"/><path d="m2496.132812 9139.46875h5.351563v374.492187h-5.351563zm0 0" fill="none" stroke="#000" stroke-linejoin="round" stroke-miterlimit="10" stroke-width="3.98705" transform="matrix(.1 0 0 -.1 0 1115.15)"/><path d="m249.613281 201.203125h.535157v-37.449219h-.535157zm0 0"/><use x="231.898" xlink:href="#aj" y="255.213"/><use x="238.19138" xlink:href="#U" y="255.213"/><use x="235.38784" xlink:href="#az" y="203.656"/><path d="m1450.703125 7625.523437v458.28125" fill="none" stroke="#000" stroke-linejoin="round" stroke-miterlimit="10" stroke-width="13.6797" transform="matrix(.1 0 0 -.1 0 1115.15)"/><path d="m3907.148438 7625.523437v458.28125" fill="none" stroke="#000" stroke-linejoin="round" stroke-miterlimit="10" stroke-width="13.6797" transform="matrix(.1 0 0 -.1 0 1115.15)"/><g clip-path="url(#k)"><path d="m3.59375 7625.523437h5945.546875" style="fill:none;stroke-width:7.20648;stroke-linecap:round;stroke-linejoin:round;stroke:#000;stroke-miterlimit:10" transform="matrix(.1 0 0 -.1 0 1115.15)"/></g><g clip-path="url(#l)"><path d="m3.59375 7740.09375h5945.546875" style="fill:none;stroke-width:7.20648;stroke-linecap:round;stroke-linejoin:round;stroke:#000;stroke-miterlimit:10" transform="matrix(.1 0 0 -.1 0 1115.15)"/></g><g clip-path="url(#m)"><path d="m3.59375 7854.664062h5945.546875" style="fill:none;stroke-width:7.20648;stroke-linecap:round;stroke-linejoin:round;stroke:#000;stroke-miterlimit:10" transform="matrix(.1 0 0 -.1 0 1115.15)"/></g><g clip-path="url(#n)"><path d="m3.59375 7969.234375h5945.546875" style="fill:none;stroke-width:7.20648;stroke-linecap:round;stroke-linejoin:round;stroke:#000;stroke-miterlimit:10" transform="matrix(.1 0 0 -.1 0 1115.15)"/></g><g clip-path="url(#o)"><path d="m3.59375 8083.804687h5945.546875" style="fill:none;stroke-width:7.20648;stroke-linecap:round;stroke-linejoin:round;stroke:#000;stroke-miterlimit:10" transform="matrix(.1 0 0 -.1 0 1115.15)"/></g><path d="m4131.132812 7592.789062h5.390626v374.453125h-5.390626zm0 0" style="fill:none;stroke-width:3.98705;stroke-linecap:round;stroke-linejoin:round;stroke:#000;stroke-miterlimit:10" transform="matrix(.1 0 0 -.1 0 1115.15)"/><path d="m413.113281 355.871094h.535157v-37.445313h-.535157zm0 0"/><use x="387.577" xlink:href="#an" y="392.697"/><use x="393.87038" xlink:href="#Z" y="392.697"/><use x="409.517266" xlink:href="#ao" y="392.697"/><use x="398.8911" xlink:href="#az" y="358.3259"/><use x="347.7227" xlink:href="#aA" y="318.4255"/><path d="m3469.84375 7592.789062h5.390625v374.453125h-5.390625zm0 0" style="fill:none;stroke-width:3.98705;stroke-linecap:round;stroke-linejoin:round;stroke:#000;stroke-miterlimit:10" transform="matrix(.1 0 0 -.1 0 1115.15)"/><path d="m346.984375 355.871094h.539063v-37.445313h-.539063zm0 0"/><use x="329.272" xlink:href="#aj" y="392.697"/><use x="335.56538" xlink:href="#U" y="392.697"/><use x="332.76184" xlink:href="#az" y="358.3259"/><path d="m1254.84375 7301.890625h69.882812v3.59375h-69.882812zm0 0" style="fill:none;stroke-width:5.76289;stroke-linecap:round;stroke-linejoin:round;stroke:#000;stroke-miterlimit:10" transform="matrix(.1 0 0 -.1 0 1115.15)"/><path d="m125.484375 384.960938h6.984375v-.359376h-6.984375zm0 0"/><path d="m2416.445312 7301.890625h69.882813v3.59375h-69.882813zm0 0" style="fill:none;stroke-width:5.76289;stroke-linecap:round;stroke-linejoin:round;stroke:#000;stroke-miterlimit:10" transform="matrix(.1 0 0 -.1 0 1115.15)"/><path d="m241.644531 384.960938h6.988281v-.359376h-6.988281zm0 0"/><path d="m3097.65625 7301.890625h69.84375v3.59375h-69.84375zm0 0" style="fill:none;stroke-width:5.76289;stroke-linecap:round;stroke-linejoin:round;stroke:#000;stroke-miterlimit:10" transform="matrix(.1 0 0 -.1 0 1115.15)"/><path d="m309.765625 384.960938h6.984375v-.359376h-6.984375zm0 0"/><path d="m4341.796875 7301.890625h69.84375v3.59375h-69.84375zm0 0" style="fill:none;stroke-width:5.76289;stroke-linecap:round;stroke-linejoin:round;stroke:#000;stroke-miterlimit:10" transform="matrix(.1 0 0 -.1 0 1115.15)"/><path d="m434.179688 384.960938h6.984374v-.359376h-6.984374zm0 0"/><path d="m5002.421875 7301.890625h69.84375v3.59375h-69.84375zm0 0" style="fill:none;stroke-width:5.76289;stroke-linecap:round;stroke-linejoin:round;stroke:#000;stroke-miterlimit:10" transform="matrix(.1 0 0 -.1 0 1115.15)"/><path d="m500.242188 384.960938h6.984374v-.359376h-6.984374zm0 0"/><use x="464.895" xlink:href="#az" y="329.684"/><path d="m5469.414062 7821.890625h5.390626v374.492187h-5.390626zm0 0" style="fill:none;stroke-width:3.98705;stroke-linecap:round;stroke-linejoin:round;stroke:#000;stroke-miterlimit:10" transform="matrix(.1 0 0 -.1 0 1115.15)"/><path d="m546.941406 332.960938h.535156v-37.449219h-.535156zm0 0"/><use x="512.902" xlink:href="#R" y="392.697"/><use x="536.542645" xlink:href="#Z" y="392.697"/><use x="552.189532" xlink:href="#ak" y="392.697"/><use x="559.673155" xlink:href="#Y" y="392.697"/><use x="532.7196" xlink:href="#az" y="335.4118"/><use x="465.8309" xlink:href="#aE" y="368.1513"/><path d="m4650.9375 7469.976562h5.390625v360.15625h-5.390625zm0 0" style="fill:none;stroke-width:3.98705;stroke-linecap:round;stroke-linejoin:round;stroke:#000;stroke-miterlimit:10" transform="matrix(.1 0 0 -.1 0 1115.15)"/><path d="m465.09375 368.152344h.539062v-36.015625h-.539062zm0 0"/><use x="450.18" xlink:href="#V" y="392.697"/><use x="465.31712" xlink:href="#ap" y="392.697"/><use x="478.923397" xlink:href="#ad" y="392.697"/><use x="140.40103" xlink:href="#aq" y="392.697"/><use x="156.047929" xlink:href="#ai" y="392.697"/><use x="171.694828" xlink:href="#af" y="392.697"/><path d="m2844.296875 7650.054687h5.351563v374.453125h-5.351563zm0 0" style="fill:none;stroke-width:3.98705;stroke-linecap:round;stroke-linejoin:round;stroke:#000;stroke-miterlimit:10" transform="matrix(.1 0 0 -.1 0 1115.15)"/><path d="m284.429688 350.144531h.535156v-37.445312h-.535156zm0 0"/><use x="102.078" xlink:href="#aA" y="295.512"/><path d="m1013.398438 7821.890625h5.390624v374.492187h-5.390624zm0 0" style="fill:none;stroke-width:3.98705;stroke-linecap:round;stroke-linejoin:round;stroke:#000;stroke-miterlimit:10" transform="matrix(.1 0 0 -.1 0 1115.15)"/><path d="m101.339844 332.960938h.535156v-37.449219h-.535156zm0 0"/><use x="71.6363" xlink:href="#ar" y="392.697"/><use x="86.263273" xlink:href="#ai" y="392.697"/><use x="101.910172" xlink:href="#V" y="392.697"/><use x="87.116" xlink:href="#az" y="335.4118"/><use x="153.244862" xlink:href="#az" y="335.4118"/><use x="50.4535" xlink:href="#aB" y="329.68328"/><use x="9.1656" xlink:href="#aC" y="341.14028"/><path d="m1674.6875 7821.890625h5.351562v374.492187h-5.351562zm0 0" style="fill:none;stroke-width:3.98705;stroke-linecap:round;stroke-linejoin:round;stroke:#000;stroke-miterlimit:10" transform="matrix(.1 0 0 -.1 0 1115.15)"/><path d="m167.46875 332.960938h.535156v-37.449219h-.535156zm0 0"/><use x="258.127" xlink:href="#P" y="392.697"/><use x="272.243432" xlink:href="#U" y="392.697"/><use x="287.890319" xlink:href="#af" y="392.697"/><use x="270.2051" xlink:href="#az" y="352.5974"/><use x="227.8977" xlink:href="#aA" y="306.9685"/><path d="m2271.601562 7707.359375h5.390626v374.453125h-5.390626zm0 0" style="fill:none;stroke-width:3.98705;stroke-linecap:round;stroke-linejoin:round;stroke:#000;stroke-miterlimit:10" transform="matrix(.1 0 0 -.1 0 1115.15)"/><path d="m227.160156 344.414062h.535156v-37.445312h-.535156zm0 0"/><use x="208.682" xlink:href="#ak" y="392.697"/><use x="216.505834" xlink:href="#U" y="392.697"/><use x="212.93708" xlink:href="#az" y="346.8689"/><g clip-path="url(#p)"><path d="m3.59375 6250.679687h5945.546875" style="fill:none;stroke-width:7.20648;stroke-linecap:round;stroke-linejoin:round;stroke:#000;stroke-miterlimit:10" transform="matrix(.1 0 0 -.1 0 1115.15)"/></g><g clip-path="url(#q)"><path d="m3.59375 6365.25h5945.546875" style="fill:none;stroke-width:7.20648;stroke-linecap:round;stroke-linejoin:round;stroke:#000;stroke-miterlimit:10" transform="matrix(.1 0 0 -.1 0 1115.15)"/></g><g clip-path="url(#r)"><path d="m3.59375 6479.820312h5945.546875" style="fill:none;stroke-width:7.20648;stroke-linecap:round;stroke-linejoin:round;stroke:#000;stroke-miterlimit:10" transform="matrix(.1 0 0 -.1 0 1115.15)"/></g><g clip-path="url(#s)"><path d="m3.59375 6594.390625h5945.546875" style="fill:none;stroke-width:7.20648;stroke-linecap:round;stroke-linejoin:round;stroke:#000;stroke-miterlimit:10" transform="matrix(.1 0 0 -.1 0 1115.15)"/></g><g clip-path="url(#t)"><path d="m3.59375 6708.960937h5945.546875" style="fill:none;stroke-width:7.20648;stroke-linecap:round;stroke-linejoin:round;stroke:#000;stroke-miterlimit:10" transform="matrix(.1 0 0 -.1 0 1115.15)"/></g><g fill="none" stroke="#000" stroke-linejoin="round" stroke-miterlimit="10" transform="matrix(.1 0 0 -.1 0 1115.15)"><path d="m1528.359375 6250.679687v458.28125" stroke-width="13.6797"/><path d="m4446.054688 6250.679687v458.28125" stroke-width="13.6797"/><path d="m4673.28125 6447.085937h5.390625v374.453125h-5.390625zm0 0" stroke-width="3.98705"/></g><path d="m467.328125 470.445312h.535156v-37.449218h-.535156zm0 0"/><use x="473.298" xlink:href="#aD" y="472.896"/><use x="307.594" xlink:href="#az" y="461.439"/><use x="433.202" xlink:href="#as" y="530.1812"/><use x="448.848887" xlink:href="#U" y="530.1812"/><use x="464.495774" xlink:href="#V" y="530.1812"/><use x="480.142661" xlink:href="#ah" y="530.1812"/><use x="453.104" xlink:href="#az" y="472.896"/><use x="379.8239" xlink:href="#aE" y="505.6355"/><path d="m3790.859375 6095.132812h5.390625v360.15625h-5.390625zm0 0" fill="none" stroke="#000" stroke-linejoin="round" stroke-miterlimit="10" stroke-width="3.98705" transform="matrix(.1 0 0 -.1 0 1115.15)"/><path d="m379.085938 505.636719h.539062v-36.015625h-.539062zm0 0"/><use x="371.485" xlink:href="#T" y="530.182"/><use x="385.601432" xlink:href="#at" y="530.182"/><use x="378.88734" xlink:href="#az" y="467.1683"/><path d="m3077.929688 6138.101562h5.390624v374.492188h-5.390624zm0 0" fill="none" stroke="#000" stroke-linejoin="round" stroke-miterlimit="10" stroke-width="3.98705" transform="matrix(.1 0 0 -.1 0 1115.15)"/><path d="m307.792969 501.339844h.539062v-37.445313h-.539062zm0 0"/><use x="285.055" xlink:href="#V" y="530.182"/><use x="300.19212" xlink:href="#ap" y="530.182"/><use x="313.798787" xlink:href="#Z" y="530.182"/><use x="329.445674" xlink:href="#V" y="530.182"/><path d="m1311.875 5927.046875h69.882812v3.59375h-69.882812zm0 0" fill="none" stroke="#000" stroke-linejoin="round" stroke-miterlimit="10" stroke-width="5.76289" transform="matrix(.1 0 0 -.1 0 1115.15)"/><path d="m131.1875 522.445312h6.988281v-.359374h-6.988281zm0 0"/><path d="m2723.984375 5927.046875h69.84375v3.59375h-69.84375zm0 0" fill="none" stroke="#000" stroke-linejoin="round" stroke-miterlimit="10" stroke-width="5.76289" transform="matrix(.1 0 0 -.1 0 1115.15)"/><path d="m272.394531 522.445312h6.988281v-.359374h-6.988281zm0 0"/><path d="m4137.34375 5927.046875h69.84375v3.59375h-69.84375zm0 0" fill="none" stroke="#000" stroke-linejoin="round" stroke-miterlimit="10" stroke-width="5.76289" transform="matrix(.1 0 0 -.1 0 1115.15)"/><path d="m413.734375 522.445312h6.984375v-.359374h-6.984375zm0 0"/><use x="528.059" xlink:href="#aF" y="467.168"/><use x="150.786" xlink:href="#an" y="530.1817"/><use x="157.079367" xlink:href="#ai" y="530.1817"/><use x="172.726266" xlink:href="#P" y="530.1817"/><use x="161.3337" xlink:href="#az" y="478.6251"/><use x="102.0778" xlink:href="#aA" y="444.4532"/><path d="m1013.398438 6332.515625h5.390624v374.453125h-5.390624zm0 0" fill="none" stroke="#000" stroke-linejoin="round" stroke-miterlimit="10" stroke-width="3.98705" transform="matrix(.1 0 0 -.1 0 1115.15)"/><path d="m101.339844 481.902344h.535156v-37.449219h-.535156zm0 0"/><use x="70.6156" xlink:href="#au" y="530.182"/><use x="89.494534" xlink:href="#ab" y="530.182"/><use x="102.930105" xlink:href="#ai" y="530.182"/><use x="87.116" xlink:href="#az" y="484.3539"/><path d="m1755.585938 6389.78125h5.351562v374.453125h-5.351562zm0 0" fill="none" stroke="#000" stroke-linejoin="round" stroke-miterlimit="10" stroke-width="3.98705" transform="matrix(.1 0 0 -.1 0 1115.15)"/><path d="m175.558594 476.171875h.535156v-37.445313h-.535156zm0 0"/><use x="50.4535" xlink:href="#aB" y="467.168"/><use x="9.1656" xlink:href="#aC" y="478.625"/><use x="247.5876" xlink:href="#aA" y="432.9961"/><path d="m2468.515625 6447.085937h5.351563v374.453125h-5.351563zm0 0" fill="none" stroke="#000" stroke-linejoin="round" stroke-miterlimit="10" stroke-width="3.98705" transform="matrix(.1 0 0 -.1 0 1115.15)"/><path d="m246.851562 470.445312h.535157v-37.449218h-.535157zm0 0"/><use x="213.489" xlink:href="#T" y="530.182"/><use x="227.605042" xlink:href="#ab" y="530.182"/><use x="241.721474" xlink:href="#Z" y="530.182"/><use x="257.36797" xlink:href="#af" y="530.182"/><use x="232.6265" xlink:href="#az" y="472.8968"/><path d="m1460.585938 4875.835937v458.28125" fill="none" stroke="#000" stroke-linejoin="round" stroke-miterlimit="10" stroke-width="13.6797" transform="matrix(.1 0 0 -.1 0 1115.15)"/><path d="m4003.007812 4875.835937v458.28125" fill="none" stroke="#000" stroke-linejoin="round" stroke-miterlimit="10" stroke-width="13.6797" transform="matrix(.1 0 0 -.1 0 1115.15)"/><g clip-path="url(#u)"><path d="m3.59375 4875.835937h5945.546875" style="fill:none;stroke-width:7.20648;stroke-linecap:round;stroke-linejoin:round;stroke:#000;stroke-miterlimit:10" transform="matrix(.1 0 0 -.1 0 1115.15)"/></g><g clip-path="url(#v)"><path d="m3.59375 4990.40625h5945.546875" style="fill:none;stroke-width:7.20648;stroke-linecap:round;stroke-linejoin:round;stroke:#000;stroke-miterlimit:10" transform="matrix(.1 0 0 -.1 0 1115.15)"/></g><g clip-path="url(#w)"><path d="m3.59375 5104.976562h5945.546875" style="fill:none;stroke-width:7.20648;stroke-linecap:round;stroke-linejoin:round;stroke:#000;stroke-miterlimit:10" transform="matrix(.1 0 0 -.1 0 1115.15)"/></g><g clip-path="url(#x)"><path d="m3.59375 5219.546875h5945.546875" style="fill:none;stroke-width:7.20648;stroke-linecap:round;stroke-linejoin:round;stroke:#000;stroke-miterlimit:10" transform="matrix(.1 0 0 -.1 0 1115.15)"/></g><g clip-path="url(#y)"><path d="m3.59375 5334.117187h5945.546875" style="fill:none;stroke-width:7.20648;stroke-linecap:round;stroke-linejoin:round;stroke:#000;stroke-miterlimit:10" transform="matrix(.1 0 0 -.1 0 1115.15)"/></g><path d="m4098.789062 4763.257812h5.351563v374.492188h-5.351563zm0 0" style="fill:none;stroke-width:3.98705;stroke-linecap:round;stroke-linejoin:round;stroke:#000;stroke-miterlimit:10" transform="matrix(.1 0 0 -.1 0 1115.15)"/><path d="m409.878906 638.824219h.535156v-37.449219h-.535156zm0 0"/><use x="397.514" xlink:href="#R" y="669.335"/><use x="421.154645" xlink:href="#av" y="669.335"/><use x="409.6781" xlink:href="#az" y="598.9237"/><use x="342.2957" xlink:href="#aE" y="633.0956"/><path d="m3415.585938 4820.523437h5.351562v374.492188h-5.351562zm0 0" style="fill:none;stroke-width:3.98705;stroke-linecap:round;stroke-linejoin:round;stroke:#000;stroke-miterlimit:10" transform="matrix(.1 0 0 -.1 0 1115.15)"/><path d="m341.558594 633.097656h.535156v-37.449218h-.535156zm0 0"/><use x="326.645" xlink:href="#V" y="669.335"/><use x="341.78212" xlink:href="#ap" y="669.335"/><use x="355.388787" xlink:href="#U" y="669.335"/><use x="341.3606" xlink:href="#az" y="593.1952"/><path d="m1861.835938 4535.484375h69.882812v3.59375h-69.882812zm0 0" style="fill:none;stroke-width:5.76289;stroke-linecap:round;stroke-linejoin:round;stroke:#000;stroke-miterlimit:10" transform="matrix(.1 0 0 -.1 0 1115.15)"/><path d="m186.183594 661.601562h6.988281v-.359374h-6.988281zm0 0"/><path d="m3102.382812 4535.484375h69.84375v3.59375h-69.84375zm0 0" style="fill:none;stroke-width:5.76289;stroke-linecap:round;stroke-linejoin:round;stroke:#000;stroke-miterlimit:10" transform="matrix(.1 0 0 -.1 0 1115.15)"/><path d="m310.238281 661.601562h6.984375v-.359374h-6.984375zm0 0"/><path d="m4486.875 4535.484375h69.882812v3.59375h-69.882812zm0 0" style="fill:none;stroke-width:5.76289;stroke-linecap:round;stroke-linejoin:round;stroke:#000;stroke-miterlimit:10" transform="matrix(.1 0 0 -.1 0 1115.15)"/><path d="m448.6875 661.601562h6.988281v-.359374h-6.988281zm0 0"/><path d="m5013.632812 4535.484375h69.84375v3.59375h-69.84375zm0 0" style="fill:none;stroke-width:5.76289;stroke-linecap:round;stroke-linejoin:round;stroke:#000;stroke-miterlimit:10" transform="matrix(.1 0 0 -.1 0 1115.15)"/><path d="m501.363281 661.601562h6.984375v-.359374h-6.984375zm0 0"/><use x="473.348" xlink:href="#az" y="604.652"/><path d="m5458.28125 5072.203125h5.390625v374.492187h-5.390625zm0 0" style="fill:none;stroke-width:3.98705;stroke-linecap:round;stroke-linejoin:round;stroke:#000;stroke-miterlimit:10" transform="matrix(.1 0 0 -.1 0 1115.15)"/><path d="m545.828125 607.929688h.539063v-37.449219h-.539063zm0 0"/><use x="515.616" xlink:href="#ao" y="669.335"/><use x="531.262887" xlink:href="#ai" y="669.335"/><use x="546.909774" xlink:href="#V" y="669.335"/><use x="531.6066" xlink:href="#az" y="610.3807"/><use x="474.2847" xlink:href="#aE" y="643.1202"/><path d="m4735.46875 4720.289062h5.390625v360.15625h-5.390625zm0 0" style="fill:none;stroke-width:3.98705;stroke-linecap:round;stroke-linejoin:round;stroke:#000;stroke-miterlimit:10" transform="matrix(.1 0 0 -.1 0 1115.15)"/><path d="m473.546875 643.121094h.535156v-36.015625h-.535156zm0 0"/><use x="467.563" xlink:href="#an" y="669.335"/><use x="473.685652" xlink:href="#ap" y="669.335"/><use x="487.801693" xlink:href="#X" y="669.335"/><use x="152.357703" xlink:href="#ak" y="669.335"/><use x="160.011224" xlink:href="#X" y="669.335"/><use x="166.304592" xlink:href="#ak" y="669.335"/><path d="m2778.90625 4763.257812h5.351562v374.492188h-5.351562zm0 0" style="fill:none;stroke-width:3.98705;stroke-linecap:round;stroke-linejoin:round;stroke:#000;stroke-miterlimit:10" transform="matrix(.1 0 0 -.1 0 1115.15)"/><path d="m277.890625 638.824219h.535156v-37.449219h-.535156zm0 0"/><use x="88.0531" xlink:href="#aE" y="633.096"/><path d="m873.164062 4820.523437h5.351563v374.492188h-5.351563zm0 0" style="fill:none;stroke-width:3.98705;stroke-linecap:round;stroke-linejoin:round;stroke:#000;stroke-miterlimit:10" transform="matrix(.1 0 0 -.1 0 1115.15)"/><path d="m87.316406 633.097656h.535156v-37.449218h-.535156zm0 0"/><use x="67.8945" xlink:href="#aw" y="669.335"/><use x="91.534766" xlink:href="#X" y="669.335"/><use x="97.828134" xlink:href="#V" y="669.335"/><use x="113.475033" xlink:href="#ak" y="669.335"/><use x="87.116" xlink:href="#az" y="593.1952"/><use x="155.763127" xlink:href="#az" y="593.1952"/><use x="50.4535" xlink:href="#aB" y="604.6522"/><use x="9.1656" xlink:href="#aC" y="616.1092"/><path d="m1559.609375 4820.523437h5.390625v374.492188h-5.390625zm0 0" style="fill:none;stroke-width:3.98705;stroke-linecap:round;stroke-linejoin:round;stroke:#000;stroke-miterlimit:10" transform="matrix(.1 0 0 -.1 0 1115.15)"/><path d="m155.960938 633.097656h.539062v-37.449218h-.539062zm0 0"/><use x="269.523" xlink:href="#ao" y="669.335"/><use x="285.169887" xlink:href="#Z" y="669.335"/><use x="277.68941" xlink:href="#az" y="598.9237"/><use x="220.36871" xlink:href="#aE" y="633.0956"/><path d="m2196.328125 4820.523437h5.351563v374.492188h-5.351563zm0 0" style="fill:none;stroke-width:3.98705;stroke-linecap:round;stroke-linejoin:round;stroke:#000;stroke-miterlimit:10" transform="matrix(.1 0 0 -.1 0 1115.15)"/><path d="m219.632812 633.097656h.535157v-37.449218h-.535157zm0 0"/><use x="205.228" xlink:href="#P" y="669.335"/><use x="218.834276" xlink:href="#ad" y="669.335"/><use x="234.481163" xlink:href="#T" y="669.335"/><use x="219.4323" xlink:href="#az" y="593.1952"/><g clip-path="url(#z)"><path d="m3.59375 3500.992187h5945.546875" style="fill:none;stroke-width:7.20648;stroke-linecap:round;stroke-linejoin:round;stroke:#000;stroke-miterlimit:10" transform="matrix(.1 0 0 -.1 0 1115.15)"/></g><g clip-path="url(#A)"><path d="m3.59375 3615.5625h5945.546875" style="fill:none;stroke-width:7.20648;stroke-linecap:round;stroke-linejoin:round;stroke:#000;stroke-miterlimit:10" transform="matrix(.1 0 0 -.1 0 1115.15)"/></g><g clip-path="url(#B)"><path d="m3.59375 3730.132812h5945.546875" style="fill:none;stroke-width:7.20648;stroke-linecap:round;stroke-linejoin:round;stroke:#000;stroke-miterlimit:10" transform="matrix(.1 0 0 -.1 0 1115.15)"/></g><g clip-path="url(#C)"><path d="m3.59375 3844.703125h5945.546875" style="fill:none;stroke-width:7.20648;stroke-linecap:round;stroke-linejoin:round;stroke:#000;stroke-miterlimit:10" transform="matrix(.1 0 0 -.1 0 1115.15)"/></g><g clip-path="url(#D)"><path d="m3.59375 3959.273437h5945.546875" style="fill:none;stroke-width:7.20648;stroke-linecap:round;stroke-linejoin:round;stroke:#000;stroke-miterlimit:10" transform="matrix(.1 0 0 -.1 0 1115.15)"/></g><g fill="none" stroke="#000" stroke-linejoin="round" stroke-miterlimit="10" transform="matrix(.1 0 0 -.1 0 1115.15)"><path d="m1538.4375 3500.992187v458.28125" stroke-width="13.6797"/><path d="m4422.148438 3500.992187v458.28125" stroke-width="13.6797"/><path d="m4649.804688 3697.398437h5.351562v374.453125h-5.351562zm0 0" stroke-width="3.98705"/></g><path d="m464.980469 745.410156h.535156v-37.445312h-.535156zm0 0"/><use x="470.95" xlink:href="#aD" y="747.865"/><use x="302.063" xlink:href="#az" y="753.59352"/><use x="447.437" xlink:href="#X" y="807.15872"/><use x="453.730355" xlink:href="#ak" y="807.15872"/><use x="461.213979" xlink:href="#Y" y="807.15872"/><use x="450.75731" xlink:href="#az" y="747.86492"/><use x="376.42251" xlink:href="#aE" y="780.60472"/><path d="m3756.875 3345.445312h5.351562v360.15625h-5.351562zm0 0" fill="none" stroke="#000" stroke-linejoin="round" stroke-miterlimit="10" stroke-width="3.98705" transform="matrix(.1 0 0 -.1 0 1115.15)"/><path d="m375.683594 780.605469h.539062v-36.015625h-.539062zm0 0"/><use x="368.339" xlink:href="#ag" y="807.159"/><use x="381.945667" xlink:href="#ai" y="807.159"/><use x="375.48587" xlink:href="#az" y="742.1367"/><path d="m3162.851562 3640.09375h5.390626v374.492187h-5.390626zm0 0" fill="none" stroke="#000" stroke-linejoin="round" stroke-miterlimit="10" stroke-width="3.98705" transform="matrix(.1 0 0 -.1 0 1115.15)"/><path d="m316.285156 751.140625h.539063v-37.445313h-.539063zm0 0"/><use x="293.301" xlink:href="#ak" y="807.159"/><use x="300.784991" xlink:href="#ai" y="807.159"/><use x="316.431878" xlink:href="#af" y="807.159"/><path d="m1283.59375 3157.242187h69.882812v3.632813h-69.882812zm0 0" fill="none" stroke="#000" stroke-linejoin="round" stroke-miterlimit="10" stroke-width="5.76289" transform="matrix(.1 0 0 -.1 0 1115.15)"/><path d="m128.359375 799.425781h6.988281v-.359375h-6.988281zm0 0"/><path d="m2096.992188 3157.242187h69.882812v3.632813h-69.882812zm0 0" fill="none" stroke="#000" stroke-linejoin="round" stroke-miterlimit="10" stroke-width="5.76289" transform="matrix(.1 0 0 -.1 0 1115.15)"/><path d="m209.699219 799.425781h6.984375v-.359375h-6.984375zm0 0"/><path d="m3435.703125 3157.242187h69.84375v3.632813h-69.84375zm0 0" fill="none" stroke="#000" stroke-linejoin="round" stroke-miterlimit="10" stroke-width="5.76289" transform="matrix(.1 0 0 -.1 0 1115.15)"/><path d="m343.570312 799.425781h6.984376v-.359375h-6.984376zm0 0"/><path d="m4190.195312 3157.242187h69.882813v3.632813h-69.882813zm0 0" fill="none" stroke="#000" stroke-linejoin="round" stroke-miterlimit="10" stroke-width="5.76289" transform="matrix(.1 0 0 -.1 0 1115.15)"/><path d="m419.019531 799.425781h6.988281v-.359375h-6.988281zm0 0"/><use x="526.922" xlink:href="#aF" y="742.137"/><use x="148.277" xlink:href="#R" y="807.1593"/><use x="171.917657" xlink:href="#Z" y="807.1593"/><use x="187.564556" xlink:href="#an" y="807.1593"/><use x="163.5883" xlink:href="#az" y="736.4085"/><use x="88.0531" xlink:href="#aE" y="776.3089"/><path d="m873.164062 3388.414062h5.351563v374.453125h-5.351563zm0 0" fill="none" stroke="#000" stroke-linejoin="round" stroke-miterlimit="10" stroke-width="3.98705" transform="matrix(.1 0 0 -.1 0 1115.15)"/><path d="m87.316406 776.308594h.535156v-37.445313h-.535156zm0 0"/><use x="73.7625" xlink:href="#ax" y="807.159"/><use x="90.430493" xlink:href="#ad" y="807.159"/><use x="106.077392" xlink:href="#af" y="807.159"/><use x="87.116" xlink:href="#az" y="736.4082"/><path d="m1637.851562 3388.414062h5.390626v374.453125h-5.390626zm0 0" fill="none" stroke="#000" stroke-linejoin="round" stroke-miterlimit="10" stroke-width="3.98705" transform="matrix(.1 0 0 -.1 0 1115.15)"/><path d="m163.785156 776.308594h.539063v-37.445313h-.539063zm0 0"/><use x="50.4535" xlink:href="#aB" y="742.137"/><use x="9.1656" xlink:href="#aC" y="753.594"/><use x="236.9546" xlink:href="#aE" y="780.6053"/><path d="m2362.148438 3345.445312h5.390624v360.15625h-5.390624zm0 0" fill="none" stroke="#000" stroke-linejoin="round" stroke-miterlimit="10" stroke-width="3.98705" transform="matrix(.1 0 0 -.1 0 1115.15)"/><path d="m236.214844 780.605469h.539062v-36.015625h-.539062zm0 0"/><use x="232.529" xlink:href="#aj" y="807.159"/><use x="238.82238" xlink:href="#U" y="807.159"/><use x="236.01884" xlink:href="#az" y="742.1367"/><g clip-path="url(#E)"><path d="m3.59375 2126.148437h5945.546875" style="fill:none;stroke-width:7.20648;stroke-linecap:round;stroke-linejoin:round;stroke:#000;stroke-miterlimit:10" transform="matrix(.1 0 0 -.1 0 1115.15)"/></g><g clip-path="url(#F)"><path d="m3.59375 2240.71875h5945.546875" style="fill:none;stroke-width:7.20648;stroke-linecap:round;stroke-linejoin:round;stroke:#000;stroke-miterlimit:10" transform="matrix(.1 0 0 -.1 0 1115.15)"/></g><g clip-path="url(#G)"><path d="m3.59375 2355.289062h5945.546875" style="fill:none;stroke-width:7.20648;stroke-linecap:round;stroke-linejoin:round;stroke:#000;stroke-miterlimit:10" transform="matrix(.1 0 0 -.1 0 1115.15)"/></g><g clip-path="url(#H)"><path d="m3.59375 2469.859375h5945.546875" style="fill:none;stroke-width:7.20648;stroke-linecap:round;stroke-linejoin:round;stroke:#000;stroke-miterlimit:10" transform="matrix(.1 0 0 -.1 0 1115.15)"/></g><g clip-path="url(#I)"><path d="m3.59375 2584.429687h5945.546875" style="fill:none;stroke-width:7.20648;stroke-linecap:round;stroke-linejoin:round;stroke:#000;stroke-miterlimit:10" transform="matrix(.1 0 0 -.1 0 1115.15)"/></g><path d="m4002.734375 2126.148437v458.28125" fill="none" stroke="#000" stroke-linejoin="round" stroke-miterlimit="10" stroke-width="13.6797" transform="matrix(.1 0 0 -.1 0 1115.15)"/><path d="m1461.171875 2126.148437v458.28125" fill="none" stroke="#000" stroke-linejoin="round" stroke-miterlimit="10" stroke-width="13.6797" transform="matrix(.1 0 0 -.1 0 1115.15)"/><use x="473.223" xlink:href="#az" y="873.893"/><path d="m4227.148438 2322.515625h5.390624v374.492187h-5.390624zm0 0" fill="none" stroke="#000" stroke-linejoin="round" stroke-miterlimit="10" stroke-width="3.98705" transform="matrix(.1 0 0 -.1 0 1115.15)"/><path d="m422.714844 882.898438h.539062v-37.449219h-.539062zm0 0"/><use x="393.523" xlink:href="#as" y="942.635"/><use x="409.169887" xlink:href="#ad" y="942.635"/><use x="424.307007" xlink:href="#ab" y="942.635"/><use x="408.4929" xlink:href="#az" y="885.3498"/><use x="342.2093" xlink:href="#aE" y="918.0896"/><path d="m3414.726562 1970.601562h5.351563v360.15625h-5.351563zm0 0" fill="none" stroke="#000" stroke-linejoin="round" stroke-miterlimit="10" stroke-width="3.98705" transform="matrix(.1 0 0 -.1 0 1115.15)"/><path d="m341.472656 918.089844h.535156v-36.015625h-.535156zm0 0"/><use x="331.065" xlink:href="#ab" y="942.635"/><use x="344.500571" xlink:href="#ai" y="942.635"/><use x="360.147458" xlink:href="#an" y="942.635"/><use x="341.272" xlink:href="#az" y="879.6213"/><path d="m1898.085938 1802.515625h69.882812v3.59375h-69.882812zm0 0" fill="none" stroke="#000" stroke-linejoin="round" stroke-miterlimit="10" stroke-width="5.76289" transform="matrix(.1 0 0 -.1 0 1115.15)"/><path d="m189.808594 934.898438h6.988281v-.359376h-6.988281zm0 0"/><path d="m3148.085938 1802.515625h69.84375v3.59375h-69.84375zm0 0" fill="none" stroke="#000" stroke-linejoin="round" stroke-miterlimit="10" stroke-width="5.76289" transform="matrix(.1 0 0 -.1 0 1115.15)"/><path d="m314.808594 934.898438h6.984375v-.359376h-6.984375zm0 0"/><path d="m4486.71875 1802.515625h69.84375v3.59375h-69.84375zm0 0" fill="none" stroke="#000" stroke-linejoin="round" stroke-miterlimit="10" stroke-width="5.76289" transform="matrix(.1 0 0 -.1 0 1115.15)"/><path d="m448.671875 934.898438h6.984375v-.359376h-6.984375zm0 0"/><use x="465.905" xlink:href="#ab" y="942.635"/><use x="479.85151" xlink:href="#U" y="942.635"/><path d="m5317.382812 2070.875h5.390626v374.453125h-5.390626zm0 0" fill="none" stroke="#000" stroke-linejoin="round" stroke-miterlimit="10" stroke-width="3.98705" transform="matrix(.1 0 0 -.1 0 1115.15)"/><path d="m531.738281 908.0625h.535157v-37.445312h-.535157zm0 0"/><use x="520.565" xlink:href="#ay" y="942.635"/><use x="528.218546" xlink:href="#Q" y="942.635"/><use x="543.865433" xlink:href="#an" y="942.635"/><use x="549.647458" xlink:href="#Y" y="942.635"/><use x="531.5388" xlink:href="#az" y="868.1643"/><use x="456.6095" xlink:href="#aG" y="873.89282"/><use x="474.1583" xlink:href="#aE" y="913.79322"/><path d="m4734.21875 2013.570312h5.351562v374.492188h-5.351562zm0 0" fill="none" stroke="#000" stroke-linejoin="round" stroke-miterlimit="10" stroke-width="3.98705" transform="matrix(.1 0 0 -.1 0 1115.15)"/><path d="m473.421875 913.792969h.535156v-37.449219h-.535156zm0 0"/><use x="143.959" xlink:href="#ao" y="942.635"/><use x="159.605899" xlink:href="#X" y="942.635"/><use x="165.558641" xlink:href="#ab" y="942.635"/><use x="102.0777" xlink:href="#aA" y="868.3639"/><path d="m1013.398438 2093.375h5.390624v374.492187h-5.390624zm0 0" fill="none" stroke="#000" stroke-linejoin="round" stroke-miterlimit="10" stroke-width="3.98705" transform="matrix(.1 0 0 -.1 0 1115.15)"/><path d="m101.339844 905.8125h.535156v-37.449219h-.535156zm0 0"/><use x="76.5684" xlink:href="#am" y="942.635"/><use x="96.978194" xlink:href="#ai" y="942.635"/><use x="87.1161" xlink:href="#az" y="908.2639"/><use x="154.3368" xlink:href="#az" y="902.53538"/><use x="50.4538" xlink:href="#aB" y="879.62128"/><use x="9.1659" xlink:href="#aC" y="891.07828"/><path d="m1685.625 2150.679687h5.351562v374.492188h-5.351562zm0 0" fill="none" stroke="#000" stroke-linejoin="round" stroke-miterlimit="10" stroke-width="3.98705" transform="matrix(.1 0 0 -.1 0 1115.15)"/><path d="m168.558594 900.082031h.539062v-37.449219h-.539062zm0 0"/><path d="m2907.65625 2265.25h5.390625v374.492187h-5.390625zm0 0" fill="none" stroke="#000" stroke-linejoin="round" stroke-miterlimit="10" stroke-width="3.98705" transform="matrix(.1 0 0 -.1 0 1115.15)"/><path d="m290.765625 888.625h.539063v-37.449219h-.539063zm0 0"/><use x="262.508" xlink:href="#P" y="942.635"/><use x="276.114276" xlink:href="#av" y="942.635"/><use x="291.420928" xlink:href="#ab" y="942.635"/><use x="276.5428" xlink:href="#az" y="891.0784"/><use x="233.0338" xlink:href="#aA" y="856.9069"/><path d="m2322.96875 2207.945312h5.390625v374.492188h-5.390625zm0 0" fill="none" stroke="#000" stroke-linejoin="round" stroke-miterlimit="10" stroke-width="3.98705" transform="matrix(.1 0 0 -.1 0 1115.15)"/><path d="m232.296875 894.355469h.539063v-37.449219h-.539063zm0 0"/><use x="206.93" xlink:href="#ak" y="942.635"/><use x="214.413598" xlink:href="#ad" y="942.635"/><use x="230.060485" xlink:href="#T" y="942.635"/><use x="218.073" xlink:href="#az" y="896.8069"/><g clip-path="url(#J)"><path d="m3.59375 751.304687h5945.546875" style="fill:none;stroke-width:7.20648;stroke-linecap:round;stroke-linejoin:round;stroke:#000;stroke-miterlimit:10" transform="matrix(.1 0 0 -.1 0 1115.15)"/></g><g clip-path="url(#K)"><path d="m3.59375 865.875h5945.546875" style="fill:none;stroke-width:7.20648;stroke-linecap:round;stroke-linejoin:round;stroke:#000;stroke-miterlimit:10" transform="matrix(.1 0 0 -.1 0 1115.15)"/></g><g clip-path="url(#L)"><path d="m3.59375 980.445312h5945.546875" style="fill:none;stroke-width:7.20648;stroke-linecap:round;stroke-linejoin:round;stroke:#000;stroke-miterlimit:10" transform="matrix(.1 0 0 -.1 0 1115.15)"/></g><g clip-path="url(#M)"><path d="m3.59375 1095.015625h5945.546875" style="fill:none;stroke-width:7.20648;stroke-linecap:round;stroke-linejoin:round;stroke:#000;stroke-miterlimit:10" transform="matrix(.1 0 0 -.1 0 1115.15)"/></g><g clip-path="url(#N)"><path d="m3.59375 1209.585937h5945.546875" style="fill:none;stroke-width:7.20648;stroke-linecap:round;stroke-linejoin:round;stroke:#000;stroke-miterlimit:10" transform="matrix(.1 0 0 -.1 0 1115.15)"/></g><g clip-path="url(#O)"><path d="m5931.132812 751.304687v458.28125" fill="none" stroke="#000" stroke-linejoin="round" stroke-miterlimit="10" stroke-width="43.2045" transform="matrix(.1 0 0 -.1 0 1115.15)"/></g><g fill="none" stroke="#000" stroke-linejoin="round" stroke-miterlimit="10" transform="matrix(.1 0 0 -.1 0 1115.15)"><g stroke-width="13.6797"><path d="m5881.09375 751.304687v458.28125"/><path d="m1553.164062 751.304687v458.28125"/><path d="m4402.539062 751.304687v458.28125"/></g><path d="m4629.140625 718.53125h5.390625v374.492187h-5.390625zm0 0" stroke-width="3.98705"/></g><path d="m462.914062 1043.296875h.539063v-37.449219h-.539063zm0 0"/><use x="468.886" xlink:href="#aD" y="1045.748"/><use x="441.1212" xlink:href="#X" y="1080.2339"/><use x="447.414555" xlink:href="#ak" y="1080.2339"/><use x="455.918103" xlink:href="#ak" y="1080.2339"/><use x="463.401726" xlink:href="#ah" y="1080.2339"/><use x="448.6919" xlink:href="#az" y="1045.748"/><use x="390.9771" xlink:href="#aA" y="1000.1195"/><path d="m3902.382812 775.835937h5.390626v374.453125h-5.390626zm0 0" fill="none" stroke="#000" stroke-linejoin="round" stroke-miterlimit="10" stroke-width="3.98705" transform="matrix(.1 0 0 -.1 0 1115.15)"/><path d="m390.238281 1037.566406h.539063v-37.445312h-.539063zm0 0"/><use x="368.871" xlink:href="#ag" y="1080.234"/><use x="382.477276" xlink:href="#ai" y="1080.234"/><use x="376.0167" xlink:href="#az" y="1040.0195"/><path d="m3206.09375 833.101562h5.390625v374.492188h-5.390625zm0 0" fill="none" stroke="#000" stroke-linejoin="round" stroke-miterlimit="10" stroke-width="3.98705" transform="matrix(.1 0 0 -.1 0 1115.15)"/><path d="m320.609375 1031.839844h.539063v-37.449219h-.539063zm0 0"/><use x="294.48" xlink:href="#af" y="1080.234"/><use x="303.664002" xlink:href="#ai" y="1080.234"/><use x="319.141357" xlink:href="#aj" y="1080.234"/><use x="325.434737" xlink:href="#ak" y="1080.234"/><use x="306.3886" xlink:href="#az" y="1034.291"/><path d="m3475.703125 426.5h69.84375v3.59375h-69.84375zm0 0" fill="none" stroke="#000" stroke-linejoin="round" stroke-miterlimit="10" stroke-width="5.76289" transform="matrix(.1 0 0 -.1 0 1115.15)"/><path d="m347.570312 1072.5h6.984376v-.359375h-6.984376zm0 0"/><use x="521.874" xlink:href="#aF" y="1017.1055"/><use x="79.096" xlink:href="#aH" y="1011.37698"/><use x="92.0171" xlink:href="#aE" y="1051.27738"/><path d="m912.8125 638.726562h5.351562v374.492188h-5.351562zm0 0" fill="none" stroke="#000" stroke-linejoin="round" stroke-miterlimit="10" stroke-width="3.98705" transform="matrix(.1 0 0 -.1 0 1115.15)"/><path d="m91.28125 1051.277344h.535156v-37.445313h-.535156zm0 0"/><use x="83.5941" xlink:href="#aw" y="1080.234"/><use x="107.234366" xlink:href="#X" y="1080.234"/><use x="91.08004" xlink:href="#az" y="1011.377"/><use x="50.45344" xlink:href="#aB" y="1017.10552"/><use x="9.16554" xlink:href="#aC" y="1028.56252"/><use x="241.11554" xlink:href="#az" y="1022.834"/><use x="221.04284" xlink:href="#R" y="1080.234"/><use x="244.683119" xlink:href="#av" y="1080.234"/><use x="260.500709" xlink:href="#aq" y="1080.234"/><path d="m2553.398438 947.671875h5.351562v374.492187h-5.351562zm0 0" fill="none" stroke="#000" stroke-linejoin="round" stroke-miterlimit="10" stroke-width="3.98705" transform="matrix(.1 0 0 -.1 0 1115.15)"/><path d="m255.339844 1020.382812h.535156v-37.449218h-.535156zm0 0"/><use x="256.076" xlink:href="#aA" y="982.934"/><path d="m1648.164062 600.523437h5.351563v355.390625h-5.351563zm0 0" fill="none" stroke="#000" stroke-linejoin="round" stroke-miterlimit="10" stroke-width="3.98705" transform="matrix(.1 0 0 -.1 0 1115.15)"/><path d="m164.816406 1055.097656h.535156v-35.539062h-.535156zm0 0"/><use x="141.483" xlink:href="#R" y="1080.234"/><use x="165.123657" xlink:href="#ad" y="1080.234"/><use x="180.770556" xlink:href="#T" y="1080.234"/><use x="194.886598" xlink:href="#ak" y="1080.234"/><use x="164.617" xlink:href="#az" y="1017.1055"/></svg>