<svg height="847.48em" viewBox="0 0 595.28 847.48" width="595.28em" xmlns="http://www.w3.org/2000/svg" xmlns:xlink="http://www.w3.org/1999/xlink"><clipPath id="a"><path d="m0 57h595.28125v1h-595.28125zm0 0"/></clipPath><clipPath id="b"><path d="m0 48h595.28125v2h-595.28125zm0 0"/></clipPath><clipPath id="c"><path d="m0 40h595.28125v1h-595.28125zm0 0"/></clipPath><clipPath id="d"><path d="m0 31h595.28125v2h-595.28125zm0 0"/></clipPath><clipPath id="e"><path d="m0 23h595.28125v1h-595.28125zm0 0"/></clipPath><clipPath id="f"><path d="m594 22h1.28125v36h-1.28125zm0 0"/></clipPath><clipPath id="g"><path d="m0 166h595.28125v1h-595.28125zm0 0"/></clipPath><clipPath id="h"><path d="m0 157h595.28125v2h-595.28125zm0 0"/></clipPath><clipPath id="i"><path d="m0 149h595.28125v1h-595.28125zm0 0"/></clipPath><clipPath id="j"><path d="m0 140h595.28125v2h-595.28125zm0 0"/></clipPath><clipPath id="k"><path d="m0 132h595.28125v1h-595.28125zm0 0"/></clipPath><clipPath id="l"><path d="m594 131h1.28125v37h-1.28125zm0 0"/></clipPath><clipPath id="m"><path d="m0 269h595.28125v1h-595.28125zm0 0"/></clipPath><clipPath id="n"><path d="m0 260h595.28125v2h-595.28125zm0 0"/></clipPath><clipPath id="o"><path d="m0 252h595.28125v1h-595.28125zm0 0"/></clipPath><clipPath id="p"><path d="m0 243h595.28125v2h-595.28125zm0 0"/></clipPath><clipPath id="q"><path d="m0 235h595.28125v1h-595.28125zm0 0"/></clipPath><clipPath id="r"><path d="m591 233h4.28125v39h-4.28125zm0 0"/></clipPath><clipPath id="s"><path d="m0 370h595.28125v2h-595.28125zm0 0"/></clipPath><clipPath id="t"><path d="m0 362h595.28125v1h-595.28125zm0 0"/></clipPath><clipPath id="u"><path d="m0 353h595.28125v2h-595.28125zm0 0"/></clipPath><clipPath id="v"><path d="m0 345h595.28125v1h-595.28125zm0 0"/></clipPath><clipPath id="w"><path d="m0 336h595.28125v2h-595.28125zm0 0"/></clipPath><clipPath id="x"><path d="m594 336h1.28125v36h-1.28125zm0 0"/></clipPath><clipPath id="y"><path d="m0 472h595.28125v2h-595.28125zm0 0"/></clipPath><clipPath id="z"><path d="m0 463h595.28125v2h-595.28125zm0 0"/></clipPath><clipPath id="A"><path d="m0 455h595.28125v2h-595.28125zm0 0"/></clipPath><clipPath id="B"><path d="m0 446h595.28125v2h-595.28125zm0 0"/></clipPath><clipPath id="C"><path d="m0 438h595.28125v2h-595.28125zm0 0"/></clipPath><clipPath id="D"><path d="m594 438h1.28125v36h-1.28125zm0 0"/></clipPath><clipPath id="E"><path d="m0 574h595.28125v1h-595.28125zm0 0"/></clipPath><clipPath id="F"><path d="m0 565h595.28125v2h-595.28125zm0 0"/></clipPath><clipPath id="G"><path d="m0 557h595.28125v1h-595.28125zm0 0"/></clipPath><clipPath id="H"><path d="m0 548h595.28125v2h-595.28125zm0 0"/></clipPath><clipPath id="I"><path d="m0 540h595.28125v1h-595.28125zm0 0"/></clipPath><clipPath id="J"><path d="m591 538h4.28125v39h-4.28125zm0 0"/></clipPath><clipPath id="K"><path d="m0 685h595.28125v2h-595.28125zm0 0"/></clipPath><clipPath id="L"><path d="m0 677h595.28125v1h-595.28125zm0 0"/></clipPath><clipPath id="M"><path d="m0 668h595.28125v2h-595.28125zm0 0"/></clipPath><clipPath id="N"><path d="m0 660h595.28125v1h-595.28125zm0 0"/></clipPath><clipPath id="O"><path d="m0 651h595.28125v2h-595.28125zm0 0"/></clipPath><clipPath id="P"><path d="m594 651h1.28125v36h-1.28125zm0 0"/></clipPath><clipPath id="Q"><path d="m0 787h595.28125v1h-595.28125zm0 0"/></clipPath><clipPath id="R"><path d="m0 778h595.28125v2h-595.28125zm0 0"/></clipPath><clipPath id="S"><path d="m0 770h595.28125v1h-595.28125zm0 0"/></clipPath><clipPath id="T"><path d="m0 761h595.28125v2h-595.28125zm0 0"/></clipPath><clipPath id="U"><path d="m0 753h595.28125v1h-595.28125zm0 0"/></clipPath><clipPath id="V"><path d="m591 751h4.28125v39h-4.28125zm0 0"/></clipPath><symbol id="W" overflow="visible"><path d="m1.125-15.234375v15.234375h1.578125v-1.40625c.828125 1.28125 1.9375 1.890625 3.46875 1.890625 2.875 0 4.765625-2.359375 4.765625-6 0-3.5625-1.78125-5.75-4.6875-5.75-1.5 0-2.578125.5625-3.390625 1.796875v-5.765625zm4.796875 5.59375c1.9375 0 3.1875 1.703125 3.1875 4.3125 0 2.484375-1.296875 4.171875-3.1875 4.171875-1.859375 0-3.0625-1.671875-3.0625-4.234375 0-2.578125 1.203125-4.25 3.0625-4.25zm0 0"/></symbol><symbol id="X" overflow="visible"><path d="m10.71875-4.890625c0-1.671875-.125-2.671875-.4375-3.5-.703125-1.796875-2.375-2.875-4.421875-2.875-3.0625 0-5.015625 2.3125-5.015625 5.9375 0 3.609375 1.875 5.8125 4.96875 5.8125 2.515625 0 4.25-1.421875 4.6875-3.8125h-1.765625c-.46875 1.453125-1.453125 2.203125-2.859375 2.203125-1.109375 0-2.046875-.5-2.640625-1.421875-.40625-.625-.5625-1.265625-.578125-2.34375zm-8.015625-1.421875c.140625-2.03125 1.375-3.34375 3.125-3.34375 1.78125 0 3.015625 1.375 3.015625 3.34375zm0 0"/></symbol><symbol id="Y" overflow="visible"><path d="m1.46875-10.953125v10.953125h1.75v-6.046875c0-2.234375 1.171875-3.703125 2.96875-3.703125 1.375 0 2.265625.84375 2.265625 2.15625v7.59375h1.734375v-8.28125c0-1.8125-1.359375-2.984375-3.484375-2.984375-1.625 0-2.671875.625-3.625 2.15625v-1.84375zm0 0"/></symbol><symbol id="Z" overflow="visible"><path d="m1.8125-2.171875v2.171875h1.265625v.375c0 1.4375-.28125 1.859375-1.265625 1.90625v.796875c1.390625.03125 2.203125-.96875 2.203125-2.75v-2.5zm0 0"/></symbol><symbol id="aa" overflow="visible"><path d="m2.953125-15.234375h-1.734375v15.234375h1.734375v-4.265625l1.6875-1.671875 3.703125 5.9375h2.15625l-4.484375-7.171875 3.8125-3.78125h-2.234375l-4.640625 4.640625zm0 0"/></symbol><symbol id="ab" overflow="visible"><path d="m10.71875-4.890625c0-1.671875-.125-2.671875-.4375-3.5-.703125-1.796875-2.375-2.875-4.421875-2.875-3.0625 0-5.015625 2.3125-5.015625 5.9375 0 3.609375 1.875 5.8125 4.96875 5.8125 2.515625 0 4.25-1.421875 4.6875-3.8125h-1.765625c-.46875 1.453125-1.453125 2.203125-2.859375 2.203125-1.109375 0-2.046875-.5-2.640625-1.421875-.40625-.625-.5625-1.265625-.578125-2.34375zm-8.015625-1.421875c.140625-2.03125 1.375-3.34375 3.125-3.34375 1.78125 0 3.015625 1.375 3.015625 3.34375zm3.734375-9.15625-2 3.09375h1.25l3.109375-3.09375zm0 0"/></symbol><symbol id="ac" overflow="visible"><path d="m1.125 4.5625h1.765625v-5.71875c.921875 1.140625 1.9375 1.640625 3.359375 1.640625 2.84375 0 4.6875-2.28125 4.6875-5.78125 0-3.671875-1.796875-5.96875-4.703125-5.96875-1.484375 0-2.6875.671875-3.5 1.96875v-1.65625h-1.609375zm4.8125-14.203125c1.921875 0 3.171875 1.703125 3.171875 4.3125 0 2.484375-1.265625 4.171875-3.171875 4.171875-1.859375 0-3.046875-1.671875-3.046875-4.234375 0-2.578125 1.1875-4.25 3.046875-4.25zm0 0"/></symbol><symbol id="ad" overflow="visible"><path d="m3.171875-15.234375h-1.75v15.234375h1.75zm0 0"/></symbol><symbol id="ae" overflow="visible"><path d="m12.453125-10.765625c0-1.046875-.0625-1.34375-.390625-2.046875-.828125-1.765625-2.609375-2.671875-5.1875-2.671875-3.34375 0-5.40625 1.703125-5.40625 4.46875 0 1.859375.984375 3.03125 2.984375 3.546875l3.78125 1.015625c1.953125.5 2.796875 1.265625 2.796875 2.453125 0 .828125-.4375 1.65625-1.078125 2.125-.609375.4375-1.5625.640625-2.796875.640625-1.671875 0-2.78125-.390625-3.515625-1.28125-.5625-.65625-.8125-1.390625-.796875-2.328125h-1.84375c.03125 1.390625.296875 2.3125.90625 3.15625 1.046875 1.4375 2.796875 2.171875 5.125 2.171875 1.8125 0 3.296875-.421875 4.28125-1.171875 1.015625-.8125 1.671875-2.171875 1.671875-3.5 0-1.875-1.171875-3.25-3.234375-3.8125l-3.828125-1.03125c-1.84375-.5-2.515625-1.09375-2.515625-2.265625 0-1.546875 1.359375-2.5625 3.40625-2.5625 2.421875 0 3.78125 1.078125 3.8125 3.09375zm0 0"/></symbol><symbol id="af" overflow="visible"><path d="m9.265625-10.953125h-8.171875v1.53125h6.09375l-6.546875 7.859375v1.5625h8.90625v-1.53125h-6.78125l6.5-7.875zm0 0"/></symbol><symbol id="ag" overflow="visible"><path d="m5.3125-10.953125h-1.796875v-3.015625h-1.734375v3.015625h-1.484375v1.421875h1.484375v8.28125c0 1.125.75 1.734375 2.109375 1.734375.453125 0 .828125-.046875 1.421875-.15625v-1.453125c-.25.0625-.484375.078125-.84375.078125-.75 0-.953125-.203125-.953125-.984375v-7.5h1.796875zm0 0"/></symbol><symbol id="ah" overflow="visible"><path d="m10.078125 0v-10.953125h-1.734375v6.203125c0 2.234375-1.171875 3.703125-2.984375 3.703125-1.390625 0-2.265625-.828125-2.265625-2.15625v-7.75h-1.734375v8.4375c0 1.828125 1.359375 3 3.484375 3 1.609375 0 2.640625-.5625 3.671875-2.015625v1.53125zm-4.953125-14.953125h-2.171875v2.15625h2.171875zm3.390625 0h-2.1875v2.15625h2.1875zm0 0"/></symbol><symbol id="ai" overflow="visible"><path d="m9.78125 0 4.28125-12.78125v12.78125h1.84375v-15.234375h-2.6875l-4.4375 13.265625-4.515625-13.265625h-2.703125v15.234375h1.84375v-12.78125l4.328125 12.78125zm0 0"/></symbol><symbol id="aj" overflow="visible"><path d="m1.4375-10.953125v10.953125h1.765625v-5.6875c.015625-2.640625 1.109375-3.796875 3.5-3.734375v-1.78125c-.28125-.046875-.453125-.0625-.65625-.0625-1.140625 0-1.984375.671875-3 2.296875v-1.984375zm0 0"/></symbol><symbol id="ak" overflow="visible"><path d="m3.828125-6.9375h8.296875v-1.71875h-8.296875v-4.875h8.609375v-1.703125h-10.5625v15.234375h10.9375v-1.71875h-8.984375zm0 0"/></symbol><symbol id="al" overflow="visible"><path d="m11.515625-15.234375.03125 10.703125c0 2.046875-1.484375 3.296875-3.921875 3.296875-2.421875 0-3.90625-1.25-3.90625-3.296875v-10.703125h-1.9375v10.703125c0 3.046875 2.296875 5.015625 5.84375 5.015625 3.5625 0 5.859375-1.984375 5.859375-5.015625l-.015625-10.703125zm-3.421875-4.390625-2.015625 3.09375h1.265625l3.109375-3.09375zm0 0"/></symbol><symbol id="am" overflow="visible"><path d="m5.6875-11.265625c-3.09375 0-4.9375 2.1875-4.9375 5.875 0 3.703125 1.84375 5.875 4.953125 5.875 3.09375 0 4.953125-2.203125 4.953125-5.796875 0-3.796875-1.796875-5.953125-4.96875-5.953125zm.015625 1.609375c1.96875 0 3.140625 1.609375 3.140625 4.328125 0 2.59375-1.21875 4.203125-3.140625 4.203125-1.9375 0-3.125-1.609375-3.125-4.265625s1.1875-4.265625 3.125-4.265625zm-.609375-5.296875h-2.171875v2.15625h2.171875zm3.390625 0h-2.171875v2.15625h2.171875zm0 0"/></symbol><symbol id="an" overflow="visible"><path d="m9.15625-7.90625c-.015625-2.15625-1.4375-3.359375-3.96875-3.359375-2.546875 0-4.203125 1.3125-4.203125 3.34375 0 1.71875.875 2.53125 3.46875 3.15625l1.625.390625c1.21875.296875 1.703125.734375 1.703125 1.515625 0 1.046875-1.03125 1.734375-2.5625 1.734375-.9375 0-1.734375-.28125-2.171875-.734375-.265625-.3125-.390625-.625-.5-1.40625h-1.84375c.09375 2.53125 1.515625 3.75 4.375 3.75 2.765625 0 4.515625-1.359375 4.515625-3.46875 0-1.640625-.921875-2.53125-3.09375-3.0625l-1.671875-.390625c-1.421875-.34375-2.03125-.796875-2.03125-1.5625 0-1.03125.90625-1.65625 2.328125-1.65625 1.390625 0 2.15625.609375 2.1875 1.75zm0 0"/></symbol><symbol id="ao" overflow="visible"><path d="m10.34375-15.234375h-1.734375v5.65625c-.734375-1.109375-1.90625-1.6875-3.359375-1.6875-2.84375 0-4.703125 2.28125-4.703125 5.765625 0 3.703125 1.796875 5.984375 4.765625 5.984375 1.5 0 2.546875-.5625 3.484375-1.921875v1.4375h1.546875zm-4.796875 5.59375c1.875 0 3.0625 1.65625 3.0625 4.28125 0 2.53125-1.203125 4.203125-3.046875 4.203125-1.921875 0-3.203125-1.6875-3.203125-4.234375s1.28125-4.25 3.1875-4.25zm0 0"/></symbol><symbol id="ap" overflow="visible"><path d="m11.1875-1.03125c-.1875.046875-.28125.046875-.375.046875-.609375 0-.9375-.3125-.9375-.859375v-6.4375c0-1.9375-1.421875-2.984375-4.125-2.984375-1.609375 0-2.890625.453125-3.640625 1.265625-.5.578125-.703125 1.203125-.75 2.28125h1.75c.15625-1.328125.953125-1.9375 2.578125-1.9375 1.59375 0 2.4375.578125 2.4375 1.625v.46875c-.015625.75-.390625 1.015625-1.8125 1.203125-2.46875.3125-2.84375.40625-3.515625.671875-1.265625.546875-1.921875 1.5-1.921875 2.921875 0 1.984375 1.390625 3.25 3.59375 3.25 1.390625 0 2.5-.484375 3.71875-1.609375.140625 1.125.671875 1.609375 1.8125 1.609375.375 0 .59375-.046875 1.1875-.1875zm-3.0625-2.421875c0 .59375-.15625.9375-.6875 1.421875-.703125.65625-1.5625.984375-2.59375.984375-1.359375 0-2.140625-.640625-2.140625-1.75 0-1.15625.75-1.734375 2.625-2.015625 1.859375-.25 2.21875-.328125 2.796875-.609375zm0 0"/></symbol><symbol id="aq" overflow="visible"><path d="m3.140625-10.953125h-1.734375v10.953125h1.734375zm0-4.28125h-1.765625v2.1875h1.765625zm0 0"/></symbol><symbol id="ar" overflow="visible"><path d="m4.46875-2.171875h-2.171875v2.171875h2.171875zm0-8.78125h-2.171875v2.171875h2.171875zm0 0"/></symbol><symbol id="as" overflow="visible"><path d="m9.84375-7.28125c-.078125-1.0625-.3125-1.75-.734375-2.359375-.75-1.015625-2.0625-1.625-3.59375-1.625-2.96875 0-4.875 2.34375-4.875 5.96875 0 3.546875 1.890625 5.78125 4.859375 5.78125 2.609375 0 4.265625-1.578125 4.46875-4.25h-1.75c-.296875 1.765625-1.1875 2.640625-2.671875 2.640625-1.9375 0-3.078125-1.578125-3.078125-4.171875 0-2.734375 1.125-4.359375 3.03125-4.359375 1.46875 0 2.375.859375 2.59375 2.375zm0 0"/></symbol><symbol id="at" overflow="visible"><path d="m12.140625-15.234375h-10.96875v1.703125h8.578125l-9.171875 11.8125v1.71875h11.609375v-1.71875h-9.15625l9.109375-11.765625zm0 0"/></symbol><symbol id="au" overflow="visible"><path d="m8.453125-10.953125v1.59375c-.890625-1.328125-1.84375-1.90625-3.234375-1.90625-2.640625 0-4.484375 2.46875-4.484375 5.96875 0 1.84375.4375 3.1875 1.375 4.296875.8125.953125 1.859375 1.484375 2.984375 1.484375 1.328125 0 2.265625-.59375 3.1875-1.96875v.5625c0 2.921875-.8125 4.015625-2.984375 4.015625-1.484375 0-2.265625-.578125-2.4375-1.84375h-1.765625c.15625 2.03125 1.765625 3.3125 4.15625 3.3125 1.609375 0 2.9375-.53125 3.65625-1.40625.84375-1.03125 1.15625-2.375 1.15625-4.953125v-9.15625zm-3.0625 1.296875c1.84375 0 2.890625 1.546875 2.890625 4.328125 0 2.65625-1.0625 4.203125-2.890625 4.203125-1.796875 0-2.84375-1.578125-2.84375-4.265625 0-2.671875 1.046875-4.265625 2.84375-4.265625zm0 0"/></symbol><symbol id="av" overflow="visible"><path d="m11.515625-6.9375v6.9375h1.953125v-15.234375h-1.953125v6.578125h-7.84375v-6.578125h-1.9375v15.234375h1.9375v-6.9375zm0 0"/></symbol><symbol id="aw" overflow="visible"><path d="m3.703125-10.953125h-1.734375v10.953125h1.734375zm-.34375-4.515625-2 3.09375h1.25l3.125-3.09375zm0 0"/></symbol><symbol id="ax" overflow="visible"><path d="m5.953125 0 4.203125-10.953125h-1.96875l-3.09375 8.890625-2.921875-8.890625h-1.96875l3.859375 10.953125zm0 0"/></symbol><symbol id="ay" overflow="visible"><path d="m8.109375-10.953125-3.03125 8.53125-2.796875-8.53125h-1.859375l3.703125 11-.671875 1.734375c-.296875.765625-.671875 1.0625-1.40625 1.0625-.296875 0-.546875-.046875-.921875-.125v1.5625c.359375.1875.71875.28125 1.171875.28125.5625 0 1.171875-.1875 1.640625-.53125.53125-.390625.84375-.859375 1.1875-1.734375l4.875-13.25zm0 0"/></symbol><symbol id="az" overflow="visible"><path d="m1.46875-10.953125v12.546875c0 1.078125-.34375 1.4375-1.421875 1.4375-.125 0-.1875 0-.421875-.015625v1.484375c.203125.03125.3125.0625.578125.0625 1.96875 0 3-.78125 3-2.28125v-13.234375zm1.734375-4.28125h-1.734375v2.1875h1.734375zm0 0"/></symbol><symbol id="aA" overflow="visible"><path d="m5.390625-10.953125h-1.8125v-1.71875c0-.734375.390625-1.109375 1.203125-1.109375.15625 0 .21875 0 .609375.03125v-1.453125c-.390625-.078125-.625-.09375-.984375-.09375-1.609375 0-2.5625.90625-2.5625 2.484375v1.859375h-1.46875v1.421875h1.46875v9.53125h1.734375v-9.53125h1.8125zm0 0"/></symbol><symbol id="aB" overflow="visible"><path d="m10.078125 0v-10.953125h-1.734375v6.203125c0 2.234375-1.171875 3.703125-2.984375 3.703125-1.390625 0-2.265625-.828125-2.265625-2.15625v-7.75h-1.734375v8.4375c0 1.828125 1.359375 3 3.484375 3 1.609375 0 2.640625-.5625 3.671875-2.015625v1.53125zm-3.890625-15.46875-2 3.09375h1.25l3.109375-3.09375zm0 0"/></symbol><symbol id="aC" overflow="visible"><path d="m4.5-10.953125h-2.171875v2.171875h2.171875zm-2.203125 8.78125v2.171875h1.25v.375c0 1.4375-.265625 1.859375-1.25 1.90625v.796875c1.375.03125 2.203125-.96875 2.203125-2.75v-2.5zm0 0"/></symbol><symbol id="aD" overflow="visible"><path d="m1.46875-10.953125v10.953125h1.75v-6.875c0-1.59375 1.15625-2.875 2.578125-2.875 1.296875 0 2.015625.796875 2.015625 2.203125v7.546875h1.765625v-6.875c0-1.59375 1.140625-2.875 2.5625-2.875 1.28125 0 2.03125.828125 2.03125 2.203125v7.546875h1.765625v-8.21875c0-1.96875-1.140625-3.046875-3.1875-3.046875-1.453125 0-2.34375.4375-3.359375 1.671875-.65625-1.171875-1.53125-1.671875-2.953125-1.671875-1.46875 0-2.4375.546875-3.359375 1.859375v-1.546875zm0 0"/></symbol><symbol id="aE" overflow="visible"><path d="m8.1875 0 5.296875-15.234375h-2.0625l-4.234375 12.890625-4.46875-12.890625h-2.09375l5.484375 15.234375zm0 0"/></symbol><symbol id="aF" overflow="visible"><path d="m11.1875-1.03125c-.1875.046875-.28125.046875-.375.046875-.609375 0-.9375-.3125-.9375-.859375v-6.4375c0-1.9375-1.421875-2.984375-4.125-2.984375-1.609375 0-2.890625.453125-3.640625 1.265625-.5.578125-.703125 1.203125-.75 2.28125h1.75c.15625-1.328125.953125-1.9375 2.578125-1.9375 1.59375 0 2.4375.578125 2.4375 1.625v.46875c-.015625.75-.390625 1.015625-1.8125 1.203125-2.46875.3125-2.84375.40625-3.515625.671875-1.265625.546875-1.921875 1.5-1.921875 2.921875 0 1.984375 1.390625 3.25 3.59375 3.25 1.390625 0 2.5-.484375 3.71875-1.609375.140625 1.125.671875 1.609375 1.8125 1.609375.375 0 .59375-.046875 1.1875-.1875zm-3.0625-2.421875c0 .59375-.15625.9375-.6875 1.421875-.703125.65625-1.5625.984375-2.59375.984375-1.359375 0-2.140625-.640625-2.140625-1.75 0-1.15625.75-1.734375 2.625-2.015625 1.859375-.25 2.21875-.328125 2.796875-.609375zm-1.765625-12.015625-2.03125 3.09375h1.25l3.125-3.09375zm0 0"/></symbol><symbol id="aG" overflow="visible"><path d="m5.6875-11.265625c-3.09375 0-4.9375 2.1875-4.9375 5.875 0 3.703125 1.84375 5.875 4.953125 5.875 3.09375 0 4.953125-2.203125 4.953125-5.796875 0-3.796875-1.796875-5.953125-4.96875-5.953125zm.015625 1.609375c1.96875 0 3.140625 1.609375 3.140625 4.328125 0 2.59375-1.21875 4.203125-3.140625 4.203125-1.9375 0-3.125-1.609375-3.125-4.265625s1.1875-4.265625 3.125-4.265625zm-.6875-5.8125-2.03125 3.140625h1.265625l3.109375-3.140625zm3.640625 0-2.03125 3.140625h1.25l3.125-3.140625zm0 0"/></symbol><symbol id="aH" overflow="visible"><path d="m5.6875-11.265625c-3.09375 0-4.9375 2.1875-4.9375 5.875 0 3.703125 1.84375 5.875 4.953125 5.875 3.09375 0 4.953125-2.203125 4.953125-5.796875 0-3.796875-1.796875-5.953125-4.96875-5.953125zm.015625 1.609375c1.96875 0 3.140625 1.609375 3.140625 4.328125 0 2.59375-1.21875 4.203125-3.140625 4.203125-1.9375 0-3.125-1.609375-3.125-4.265625s1.1875-4.265625 3.125-4.265625zm0 0"/></symbol><symbol id="aI" overflow="visible"><path d="m9.90625-4.578125 1.578125 4.578125h2.171875l-5.359375-15.234375h-2.5l-5.4375 15.234375h2.0625l1.609375-4.578125zm-.546875-1.625h-4.84375l2.515625-6.953125zm-1.625-13.421875-2 3.09375h1.25l3.109375-3.09375zm0 0"/></symbol><symbol id="aJ" overflow="visible"><path d="m3.609375-15.234375h-1.9375v15.234375h9.46875v-1.71875h-7.53125zm0 0"/></symbol><symbol id="aK" overflow="visible"><path d="m4-2.171875h-2.1875v2.171875h2.1875zm0 0"/></symbol><symbol id="aL" overflow="visible"><path d=""/></symbol><symbol id="aM" overflow="visible"><path d="m5.9375-6.515625h-4.96875v1.5h4.96875zm0 0"/></symbol><symbol id="aN" overflow="visible"><path d="m7.515625-4.578125c-1.421875 0-2.765625.484375-4 1.21875-1.578125.953125-3.515625 2.609375-3.515625 5.015625 0 2 1.765625 2.921875 3.5625 2.921875 1.421875 0 2.765625-.484375 3.984375-1.21875 1.59375-.953125 3.5-2.609375 3.5-5.015625 0-2-1.734375-2.921875-3.53125-2.921875zm0 0"/></symbol><symbol id="aO" overflow="visible"><path d="m12.671875-8.8125c-.546875-2.359375-1.1875-4.703125-1.859375-7.046875 3.25-3.6875 6.1875-7.484375 6.1875-12.359375 0-3.828125-2.09375-9.3125-4.46875-12.15625-.171875-.140625-.375-.140625-.546875 0-3.203125 2.328125-5.078125 6.0625-5.078125 9.984375 0 1.765625.03125 3.5.234375 5.21875.25 2.203125.8125 4.34375 1.4375 6.46875-4 4.546875-8.515625 8.875-8.515625 14.90625 0 6.8125 4.921875 12.609375 11.28125 12.609375 1.046875 0 2.03125-.109375 3.015625-.28125.109375 1.09375.171875 2.171875.171875 3.25 0 .609375-.03125 1.1875-.0625 1.796875-.203125 3.359375-2.28125 6.4375-5.421875 6.515625-.03125 0-.0625.03125-.109375.03125-1.71875 0-3.21875-.984375-4.09375-2.375.375.171875.78125.3125 1.1875.3125 1.765625 0 3.21875-1.46875 3.21875-3.21875 0-1.90625-1.390625-3.53125-3.21875-3.53125-2 0-3.796875 1.5625-3.796875 3.53125 0 3.65625 2.953125 6.59375 6.609375 6.59375 4 0 6.734375-3.578125 6.96875-7.65625.046875-.640625.046875-1.25.046875-1.890625 0-1.21875-.078125-2.4375-.171875-3.65625.875-.28125 1.71875-.6875 2.46875-1.25 2.5-1.875 3.625-4.484375 3.625-7.046875 0-4.484375-3.390625-8.78125-8.609375-8.78125-.15625 0-.328125.03125-.5.03125zm2.875 15.75c-.46875-4.1875-1.25-8.1875-2.09375-12.15625 3.71875.3125 6.0625 3.421875 6.0625 6.546875 0 2.359375-1.625 4.796875-3.96875 5.609375zm-13.140625-7.984375c0-5.421875 3.65625-9.515625 7.3125-13.625.546875 2 1.09375 4 1.5625 6.03125-3.421875.78125-5.359375 3.65625-5.359375 6.640625 0 2.375 1.21875 4.78125 3.9375 6.234375.09375.03125.203125.0625.296875.0625.375 0 .6875-.328125.6875-.703125 0-.171875-.109375-.34375-.234375-.484375-1.90625-1.078125-2.78125-2.703125-2.78125-4.1875 0-2 1.5625-3.796875 4.234375-4.109375.875 4.0625 1.65625 8.09375 2.171875 12.4375-.921875.140625-1.84375.203125-2.78125.203125-4.609375 0-9.046875-3.890625-9.046875-8.5zm11.515625-34.515625c.578125 1.796875.71875 2.671875.71875 4.640625 0 4.296875-2.28125 7.71875-5.046875 11-.609375-2.125-1.125-4.203125-1.125-6.765625 0-3.765625 2.09375-7.1875 5.453125-8.875zm0 0"/></symbol><symbol id="aP" overflow="visible"><path d="m.84375-1.484375c.03125-1.125.78125-2.109375 1.828125-2.109375 1.015625 0 1.5 1.1875 1.5 2.34375 0 2-1.703125 3.421875-3.25 4.703125-.078125-.75-.140625-1.484375-.140625-2.234375 0-.140625.03125-.234375.03125-.375zm-1.6875-14.203125.375 20.296875c0 .40625.296875.703125.703125.703125.609375 0 .890625-.703125 1.359375-1.078125 2.125-1.734375 5.1875-2.953125 5.1875-5.71875 0-1.828125-1.359375-3.390625-3.15625-3.390625-1.078125 0-2.09375.375-2.984375 1.015625l.203125-11.828125c-.265625-.125-.53125-.234375-.84375-.234375s-.578125.109375-.84375.234375zm0 0"/></symbol><symbol id="aQ" overflow="visible"><path d="m0 0c0 1.078125.84375 1.9375 1.9375 1.9375 1.078125 0 1.921875-.859375 1.921875-1.9375s-.84375-1.9375-1.921875-1.9375c-1.09375 0-1.9375.859375-1.9375 1.9375zm0 0"/></symbol><symbol id="aR" overflow="visible"><path d="m10.703125-2.265625c0 .328125-.09375.703125-.34375.984375-.703125.84375-2.328125 1.890625-3.625 2.703125-1.28125.8125-2.90625 1.890625-3.953125 2.203125-.140625.03125-.3125.0625-.4375.0625-.75 0-1.421875-.578125-1.421875-1.421875 0-.328125.09375-.703125.328125-.984375.71875-.84375 2.34375-1.890625 3.625-2.703125 1.296875-.8125 2.921875-1.890625 3.96875-2.203125.140625-.03125.296875-.0625.4375-.0625.75 0 1.421875.578125 1.421875 1.421875zm-1.71875-2.3125c-2.546875 0-4.609375.546875-6.40625 1.765625-1.09375.75-1.796875 1.890625-2.203125 3.15625-.203125.609375-.375 1.28125-.375 1.921875 0 1.59375 1.15625 2.3125 2.640625 2.3125 2.546875 0 4.609375-.546875 6.40625-1.765625 1.078125-.75 1.796875-1.890625 2.203125-3.15625.203125-.609375.375-1.28125.375-1.921875 0-1.59375-1.15625-2.3125-2.640625-2.3125zm0 0"/></symbol><symbol id="aS" overflow="visible"><path d="m4.4375-9.109375v9.109375h2.609375v-13.203125h-1.734375c-.421875 1.5625-1.78125 2.359375-4.046875 2.359375v1.734375zm0 0"/></symbol><symbol id="aT" overflow="visible"><path d="m3.984375-2.71875h-2.796875v2.71875h2.796875zm0 0"/></symbol><path d="m1407.070312 7816.167187h151.210938" fill="none" stroke="#000" stroke-linecap="round" stroke-miterlimit="10" stroke-width="14.6416" transform="matrix(.1 0 0 -.1 0 847.48)"/><g clip-path="url(#a)"><path d="m3.085938 7900.854687h5946.601562" fill="none" stroke="#000" stroke-linecap="round" stroke-miterlimit="10" stroke-width="6.17335" transform="matrix(.1 0 0 -.1 0 847.48)"/></g><g clip-path="url(#b)"><path d="m3.085938 7985.542187h5946.601562" fill="none" stroke="#000" stroke-linecap="round" stroke-miterlimit="10" stroke-width="6.17335" transform="matrix(.1 0 0 -.1 0 847.48)"/></g><g clip-path="url(#c)"><path d="m3.085938 8070.229687h5946.601562" fill="none" stroke="#000" stroke-linecap="round" stroke-miterlimit="10" stroke-width="6.17335" transform="matrix(.1 0 0 -.1 0 847.48)"/></g><g clip-path="url(#d)"><path d="m3.085938 8154.917187h5946.601562" fill="none" stroke="#000" stroke-linecap="round" stroke-miterlimit="10" stroke-width="6.17335" transform="matrix(.1 0 0 -.1 0 847.48)"/></g><g clip-path="url(#e)"><path d="m3.085938 8239.565625h5946.601562" fill="none" stroke="#000" stroke-linecap="round" stroke-miterlimit="10" stroke-width="6.17335" transform="matrix(.1 0 0 -.1 0 847.48)"/></g><g clip-path="url(#f)"><path d="m5946.875 7900.854687v338.710938" fill="none" stroke="#000" stroke-miterlimit="10" stroke-width="11.737" transform="matrix(.1 0 0 -.1 0 847.48)"/></g><path d="m5229.375 7961.83125h4.0625v275.742187h-4.0625zm0 0" fill="none" stroke="#000" stroke-linejoin="round" stroke-miterlimit="10" stroke-width="3.98854" transform="matrix(.1 0 0 -.1 0 847.48)"/><path d="m522.9375 51.296875h.40625v-27.574219h-.40625zm0 0"/><use x="497.773" xlink:href="#W" y="113.325"/><use x="509.338231" xlink:href="#X" y="113.325"/><use x="520.903462" xlink:href="#Y" y="113.325"/><use x="532.468302" xlink:href="#Z" y="113.325"/><use x="497.773" xlink:href="#W" y="89.6141"/><use x="509.338231" xlink:href="#X" y="89.6141"/><use x="520.903462" xlink:href="#Y" y="89.6141"/><use x="532.468302" xlink:href="#Z" y="89.6141"/><use x="512.4835" xlink:href="#aN" y="53.1606"/><path d="m4433.203125 8004.175h4.023437v275.742187h-4.023437zm0 0" fill="none" stroke="#000" stroke-linejoin="round" stroke-miterlimit="10" stroke-width="3.98854" transform="matrix(.1 0 0 -.1 0 847.48)"/><path d="m443.316406 47.0625h.40625v-27.574219h-.40625zm0 0"/><use x="427.593" xlink:href="#aa" y="113.325"/><use x="437.627782" xlink:href="#ab" y="113.325"/><use x="426.828547" xlink:href="#ac" y="89.6141"/><use x="438.393387" xlink:href="#ab" y="89.6141"/><use x="432.864487" xlink:href="#aN" y="48.9266"/><path d="m3713.164062 7961.83125h4.023438v208.203125h-4.023438zm0 0" fill="none" stroke="#000" stroke-linejoin="round" stroke-miterlimit="10" stroke-width="3.98854" transform="matrix(.1 0 0 -.1 0 847.48)"/><path d="m371.316406 51.296875h.402344v-20.820313h-.402344zm0 0"/><use x="356.017" xlink:href="#ad" y="113.325"/><use x="360.609571" xlink:href="#X" y="113.325"/><use x="372.174411" xlink:href="#ad" y="113.325"/><use x="354.82637" xlink:href="#Y" y="89.6141"/><use x="366.391601" xlink:href="#X" y="89.6141"/><use x="360.8627" xlink:href="#aN" y="53.1606"/><path d="m2993.125 7919.526562h4.0625v233.476563h-4.0625zm0 0" fill="none" stroke="#000" stroke-linejoin="round" stroke-miterlimit="10" stroke-width="3.98854" transform="matrix(.1 0 0 -.1 0 847.48)"/><path d="m299.3125 55.527344h.40625v-23.347656h-.40625zm0 0"/><path d="m4713.203125 7636.167187h50.9375v3.085938h-50.9375zm0 0" fill="none" stroke="#000" stroke-linejoin="round" stroke-miterlimit="10" stroke-width="4.94546" transform="matrix(.1 0 0 -.1 0 847.48)"/><path d="m471.320312 83.863281h5.09375v-.308593h-5.09375zm0 0"/><path d="m1531.953125 8105.776562v-36.640625l745.234375 84.648438v36.679687zm0 0" fill="none" stroke="#000" stroke-linejoin="round" stroke-miterlimit="10" stroke-width="3.98854" transform="matrix(.1 0 0 -.1 0 847.48)"/><path d="m153.195312 36.902344v3.664062l74.523438-8.464844v-3.667968zm0 0"/><path d="m1805.703125 7636.167187h50.9375v3.085938h-50.9375zm0 0" fill="none" stroke="#000" stroke-linejoin="round" stroke-miterlimit="10" stroke-width="4.94546" transform="matrix(.1 0 0 -.1 0 847.48)"/><path d="m180.570312 83.863281h5.09375v-.308593h-5.09375zm0 0"/><path d="m2993.125 8173.2375v-36.679688l724.101562 17.265625v36.640625zm0 0" fill="none" stroke="#000" stroke-linejoin="round" stroke-miterlimit="10" stroke-width="3.98854" transform="matrix(.1 0 0 -.1 0 847.48)"/><path d="m299.3125 30.15625v3.667969l72.410156-1.726563v-3.664062zm0 0"/><path d="m3278.4375 7636.167187h50.9375v3.085938h-50.9375zm0 0" fill="none" stroke="#000" stroke-linejoin="round" stroke-miterlimit="10" stroke-width="4.94546" transform="matrix(.1 0 0 -.1 0 847.48)"/><path d="m327.84375 83.863281h5.09375v-.308593h-5.09375zm0 0"/><path d="m3358.789062 7399.057812h50.9375v3.085938h-50.9375zm0 0" fill="none" stroke="#000" stroke-linejoin="round" stroke-miterlimit="10" stroke-width="4.94546" transform="matrix(.1 0 0 -.1 0 847.48)"/><path d="m335.878906 107.574219h5.09375v-.308594h-5.09375zm0 0"/><path d="m3998.4375 7636.167187h50.9375v3.085938h-50.9375zm0 0" fill="none" stroke="#000" stroke-linejoin="round" stroke-miterlimit="10" stroke-width="4.94546" transform="matrix(.1 0 0 -.1 0 847.48)"/><path d="m399.84375 83.863281h5.09375v-.308593h-5.09375zm0 0"/><path d="m3996.328125 7399.057812h50.9375v3.085938h-50.9375zm0 0" fill="none" stroke="#000" stroke-linejoin="round" stroke-miterlimit="10" stroke-width="4.94546" transform="matrix(.1 0 0 -.1 0 847.48)"/><path d="m399.632812 107.574219h5.09375v-.308594h-5.09375zm0 0"/><path d="m4709.375 7399.057812h50.9375v3.085938h-50.9375zm0 0" fill="none" stroke="#000" stroke-linejoin="round" stroke-miterlimit="10" stroke-width="4.94546" transform="matrix(.1 0 0 -.1 0 847.48)"/><path d="m470.9375 107.574219h5.09375v-.308594h-5.09375zm0 0"/><use x="267.942" xlink:href="#ae" y="113.325"/><use x="281.888087" xlink:href="#af" y="113.325"/><use x="291.923235" xlink:href="#X" y="113.325"/><use x="303.488075" xlink:href="#Y" y="113.325"/><use x="315.053306" xlink:href="#ag" y="113.325"/><use x="6.774" xlink:href="#aO" y="48.9266"/><use x="282.824" xlink:href="#ah" y="89.6141"/><use x="294.38884" xlink:href="#Y" y="89.6141"/><path d="m756.914062 7961.83125h4.023438v275.742187h-4.023438zm0 0" fill="none" stroke="#000" stroke-linejoin="round" stroke-miterlimit="10" stroke-width="3.98854" transform="matrix(.1 0 0 -.1 0 847.48)"/><path d="m75.691406 51.296875h.402344v-27.574219h-.402344zm0 0"/><use x="49.6766" xlink:href="#ai" y="113.325"/><use x="67.024633" xlink:href="#X" y="113.325"/><use x="78.589467" xlink:href="#aj" y="113.325"/><use x="86.073056" xlink:href="#ag" y="113.325"/><use x="25.7309" xlink:href="#aS" y="89.6141"/><use x="36.105092" xlink:href="#aT" y="89.6141"/><use x="63.793" xlink:href="#ak" y="89.6141"/><use x="37.2918" xlink:href="#aP" y="40.4582"/><use x="65.2367" xlink:href="#aN" y="53.1605"/><use x="288.8597" xlink:href="#aN" y="57.39488"/><path d="m2273.125 7961.83125h4.0625v207.851562h-4.0625zm0 0" fill="none" stroke="#000" stroke-linejoin="round" stroke-miterlimit="10" stroke-width="3.98854" transform="matrix(.1 0 0 -.1 0 847.48)"/><path d="m227.3125 51.296875h.40625v-20.785156h-.40625zm0 0"/><use x="211.417" xlink:href="#al" y="113.325"/><use x="226.38378" xlink:href="#aj" y="113.325"/><use x="200.6178" xlink:href="#aa" y="89.6141"/><use x="210.652557" xlink:href="#am" y="89.6141"/><use x="222.217397" xlink:href="#an" y="89.6141"/><use x="232.591998" xlink:href="#ao" y="89.6141"/><use x="216.8588" xlink:href="#aN" y="53.1606"/><use x="130.9205" xlink:href="#ac" y="89.6141"/><use x="142.485731" xlink:href="#ah" y="89.6141"/><use x="154.050571" xlink:href="#Y" y="89.6141"/><use x="142.7396" xlink:href="#aN" y="65.8629"/><use x="137.12866" xlink:href="#ap" y="113.325"/><use x="149.034125" xlink:href="#af" y="113.325"/><path d="m1531.953125 7834.839062h4.023437v251.09375h-4.023437zm0 0" fill="none" stroke="#000" stroke-linejoin="round" stroke-miterlimit="10" stroke-width="3.98854" transform="matrix(.1 0 0 -.1 0 847.48)"/><path d="m153.195312 63.996094h.402344v-25.105469h-.402344zm0 0"/><g clip-path="url(#g)"><path d="m3.085938 6810.58125h5946.601562" style="fill:none;stroke-width:6.17335;stroke-linecap:round;stroke-linejoin:round;stroke:#000;stroke-miterlimit:10" transform="matrix(.1 0 0 -.1 0 847.48)"/></g><g clip-path="url(#h)"><path d="m3.085938 6895.26875h5946.601562" style="fill:none;stroke-width:6.17335;stroke-linecap:round;stroke-linejoin:round;stroke:#000;stroke-miterlimit:10" transform="matrix(.1 0 0 -.1 0 847.48)"/></g><g clip-path="url(#i)"><path d="m3.085938 6979.95625h5946.601562" style="fill:none;stroke-width:6.17335;stroke-linecap:round;stroke-linejoin:round;stroke:#000;stroke-miterlimit:10" transform="matrix(.1 0 0 -.1 0 847.48)"/></g><g clip-path="url(#j)"><path d="m3.085938 7064.64375h5946.601562" style="fill:none;stroke-width:6.17335;stroke-linecap:round;stroke-linejoin:round;stroke:#000;stroke-miterlimit:10" transform="matrix(.1 0 0 -.1 0 847.48)"/></g><g clip-path="url(#k)"><path d="m3.085938 7149.33125h5946.601562" style="fill:none;stroke-width:6.17335;stroke-linecap:round;stroke-linejoin:round;stroke:#000;stroke-miterlimit:10" transform="matrix(.1 0 0 -.1 0 847.48)"/></g><g clip-path="url(#l)"><path d="m5946.875 6810.58125v338.75" fill="none" stroke="#000" stroke-linejoin="round" stroke-miterlimit="10" stroke-width="11.737" transform="matrix(.1 0 0 -.1 0 847.48)"/></g><path d="m5234.960938 6913.940625h4.0625v275.742187h-4.0625zm0 0" fill="none" stroke="#000" stroke-linejoin="round" stroke-miterlimit="10" stroke-width="3.98854" transform="matrix(.1 0 0 -.1 0 847.48)"/><path d="m523.496094 156.085938h.40625v-27.574219h-.40625zm0 0"/><use x="269.345" xlink:href="#ae" y="218.175"/><use x="283.291087" xlink:href="#af" y="218.175"/><use x="293.326235" xlink:href="#X" y="218.175"/><use x="304.891075" xlink:href="#Y" y="218.175"/><use x="316.456306" xlink:href="#ag" y="218.175"/><use x="501.224082" xlink:href="#W" y="218.175"/><use x="512.788923" xlink:href="#X" y="218.175"/><use x="524.354154" xlink:href="#Y" y="218.175"/><use x="501.224" xlink:href="#W" y="194.4641"/><use x="512.78884" xlink:href="#X" y="194.4641"/><use x="524.354071" xlink:href="#Y" y="194.4641"/><use x="513.0431" xlink:href="#aN" y="157.9524"/><path d="m4441.367188 6956.284375h4.023437v275.742187h-4.023437zm0 0" fill="none" stroke="#000" stroke-linejoin="round" stroke-miterlimit="10" stroke-width="3.98854" transform="matrix(.1 0 0 -.1 0 847.48)"/><path d="m444.136719 151.851562h.402343v-27.574218h-.402343zm0 0"/><use x="428.41" xlink:href="#aa" y="218.175"/><use x="438.444782" xlink:href="#ab" y="218.175"/><use x="427.644375" xlink:href="#ac" y="194.4641"/><use x="439.209606" xlink:href="#ab" y="194.4641"/><use x="433.680705" xlink:href="#aN" y="153.718"/><path d="m3622.34375 6728.003125h4.0625v233.320312h-4.0625zm0 0" fill="none" stroke="#000" stroke-linejoin="round" stroke-miterlimit="10" stroke-width="3.98854" transform="matrix(.1 0 0 -.1 0 847.48)"/><path d="m362.234375 174.679688h.40625v-23.332032h-.40625zm0 0"/><use x="357.191" xlink:href="#ad" y="218.175"/><use x="361.78318" xlink:href="#X" y="218.175"/><use x="373.348411" xlink:href="#ad" y="218.175"/><use x="356.00037" xlink:href="#Y" y="194.4641"/><use x="367.56521" xlink:href="#X" y="194.4641"/><use x="362.03748" xlink:href="#aN" y="149.484"/><path d="m2904.648438 6745.034375h4.023437v258.59375h-4.023437zm0 0" fill="none" stroke="#000" stroke-linejoin="round" stroke-miterlimit="10" stroke-width="3.98854" transform="matrix(.1 0 0 -.1 0 847.48)"/><path d="m290.464844 172.976562h.402344v-25.859374h-.402344zm0 0"/><path d="m4730.703125 6350.542187h50.9375v3.125h-50.9375zm0 0" fill="none" stroke="#000" stroke-linejoin="round" stroke-miterlimit="10" stroke-width="4.94546" transform="matrix(.1 0 0 -.1 0 847.48)"/><path d="m473.070312 212.425781h5.09375v-.3125h-5.09375zm0 0"/><path d="m1550.546875 7167.651562v-36.679687l742.929687 84.6875v36.679687zm0 0" fill="none" stroke="#000" stroke-linejoin="round" stroke-miterlimit="10" stroke-width="3.98854" transform="matrix(.1 0 0 -.1 0 847.48)"/><path d="m155.054688 130.714844v3.667968l74.292968-8.46875v-3.667968zm0 0"/><path d="m1823.164062 6587.690625h50.9375v3.085937h-50.9375zm0 0" fill="none" stroke="#000" stroke-linejoin="round" stroke-miterlimit="10" stroke-width="4.94546" transform="matrix(.1 0 0 -.1 0 847.48)"/><path d="m182.316406 188.714844h5.09375v-.3125h-5.09375zm0 0"/><path d="m2904.648438 6761.479687v-36.679687l721.757812-17.226563v36.640625zm0 0" fill="none" stroke="#000" stroke-linejoin="round" stroke-miterlimit="10" stroke-width="3.98854" transform="matrix(.1 0 0 -.1 0 847.48)"/><path d="m290.464844 171.332031v3.667969l72.175781 1.722656v-3.664062zm0 0"/><path d="m3291.328125 6587.690625h50.9375v3.085937h-50.9375zm0 0" fill="none" stroke="#000" stroke-linejoin="round" stroke-miterlimit="10" stroke-width="4.94546" transform="matrix(.1 0 0 -.1 0 847.48)"/><path d="m329.132812 188.714844h5.09375v-.3125h-5.09375zm0 0"/><path d="m3371.679688 6350.542187h50.9375v3.125h-50.9375zm0 0" fill="none" stroke="#000" stroke-linejoin="round" stroke-miterlimit="10" stroke-width="4.94546" transform="matrix(.1 0 0 -.1 0 847.48)"/><path d="m337.167969 212.425781h5.09375v-.3125h-5.09375zm0 0"/><path d="m4008.398438 6587.690625h50.9375v3.085937h-50.9375zm0 0" fill="none" stroke="#000" stroke-linejoin="round" stroke-miterlimit="10" stroke-width="4.94546" transform="matrix(.1 0 0 -.1 0 847.48)"/><path d="m400.839844 188.714844h5.09375v-.3125h-5.09375zm0 0"/><path d="m4006.289062 6350.542187h50.9375v3.125h-50.9375zm0 0" fill="none" stroke="#000" stroke-linejoin="round" stroke-miterlimit="10" stroke-width="4.94546" transform="matrix(.1 0 0 -.1 0 847.48)"/><path d="m400.628906 212.425781h5.09375v-.3125h-5.09375zm0 0"/><path d="m4734.53125 6587.690625h50.9375v3.085937h-50.9375zm0 0" fill="none" stroke="#000" stroke-linejoin="round" stroke-miterlimit="10" stroke-width="4.94546" transform="matrix(.1 0 0 -.1 0 847.48)"/><path d="m473.453125 188.714844h5.09375v-.3125h-5.09375zm0 0"/><path d="m756.914062 6956.284375h4.023438v275.742187h-4.023438zm0 0" fill="none" stroke="#000" stroke-linejoin="round" stroke-miterlimit="10" stroke-width="3.98854" transform="matrix(.1 0 0 -.1 0 847.48)"/><path d="m75.691406 151.851562h.402344v-27.574218h-.402344zm0 0"/><use x="284.227" xlink:href="#ah" y="194.464"/><use x="295.792231" xlink:href="#Y" y="194.464"/><use x="63.793356" xlink:href="#ak" y="194.464"/><use x="65.236" xlink:href="#aN" y="153.7179"/><use x="37.2911" xlink:href="#aP" y="149.48392"/><use x="6.7739" xlink:href="#aO" y="157.95228"/><use x="49.6759" xlink:href="#ai" y="218.17498"/><use x="67.023933" xlink:href="#X" y="218.17498"/><use x="78.588767" xlink:href="#aj" y="218.17498"/><use x="86.072356" xlink:href="#ag" y="218.17498"/><use x="290.2629" xlink:href="#aN" y="145.24998"/><path d="m2289.453125 7040.932812h4.023437v190.625h-4.023437zm0 0" fill="none" stroke="#000" stroke-linejoin="round" stroke-miterlimit="10" stroke-width="3.98854" transform="matrix(.1 0 0 -.1 0 847.48)"/><path d="m228.945312 143.386719h.402344v-19.0625h-.402344zm0 0"/><use x="213.049" xlink:href="#al" y="218.175"/><use x="228.01578" xlink:href="#aj" y="218.175"/><use x="202.2486" xlink:href="#aa" y="194.4641"/><use x="212.283357" xlink:href="#am" y="194.4641"/><use x="223.848588" xlink:href="#an" y="194.4641"/><use x="234.222798" xlink:href="#ao" y="194.4641"/><use x="218.49" xlink:href="#aN" y="145.25"/><use x="144.5994" xlink:href="#aN" y="157.9523"/><use x="132.781" xlink:href="#ac" y="194.464"/><use x="144.346231" xlink:href="#ah" y="194.464"/><use x="155.911071" xlink:href="#Y" y="194.464"/><use x="138.98803" xlink:href="#ap" y="218.1749"/><use x="150.893886" xlink:href="#af" y="218.1749"/><path d="m1550.546875 6913.940625h4.023437v233.867187h-4.023437zm0 0" fill="none" stroke="#000" stroke-linejoin="round" stroke-miterlimit="10" stroke-width="3.98854" transform="matrix(.1 0 0 -.1 0 847.48)"/><path d="m155.054688 156.085938h.402343v-23.382813h-.402343zm0 0"/><g clip-path="url(#m)"><path d="m3.085938 5780.151562h5946.601562" style="fill:none;stroke-width:6.17335;stroke-linecap:round;stroke-linejoin:round;stroke:#000;stroke-miterlimit:10" transform="matrix(.1 0 0 -.1 0 847.48)"/></g><g clip-path="url(#n)"><path d="m3.085938 5864.839062h5946.601562" style="fill:none;stroke-width:6.17335;stroke-linecap:round;stroke-linejoin:round;stroke:#000;stroke-miterlimit:10" transform="matrix(.1 0 0 -.1 0 847.48)"/></g><g clip-path="url(#o)"><path d="m3.085938 5949.526562h5946.601562" style="fill:none;stroke-width:6.17335;stroke-linecap:round;stroke-linejoin:round;stroke:#000;stroke-miterlimit:10" transform="matrix(.1 0 0 -.1 0 847.48)"/></g><g clip-path="url(#p)"><path d="m3.085938 6034.175h5946.601562" style="fill:none;stroke-width:6.17335;stroke-linecap:round;stroke-linejoin:round;stroke:#000;stroke-miterlimit:10" transform="matrix(.1 0 0 -.1 0 847.48)"/></g><g clip-path="url(#q)"><path d="m3.085938 6118.8625h5946.601562" style="fill:none;stroke-width:6.17335;stroke-linecap:round;stroke-linejoin:round;stroke:#000;stroke-miterlimit:10" transform="matrix(.1 0 0 -.1 0 847.48)"/></g><use x="582.822" xlink:href="#aQ" y="248.295"/><use x="582.822" xlink:href="#aQ" y="256.76297"/><g clip-path="url(#r)"><path d="m5934.21875 5780.151562v338.710938" fill="none" stroke="#000" stroke-linejoin="round" stroke-miterlimit="10" stroke-width="37.057" transform="matrix(.1 0 0 -.1 0 847.48)"/></g><path d="m5891.289062 5780.151562v338.710938" fill="none" stroke="#000" stroke-linejoin="round" stroke-miterlimit="10" stroke-width="11.737" transform="matrix(.1 0 0 -.1 0 847.48)"/><path d="m5089.492188 5847.182812h4.023437v269.6875h-4.023437zm0 0" fill="none" stroke="#000" stroke-linejoin="round" stroke-miterlimit="10" stroke-width="3.98854" transform="matrix(.1 0 0 -.1 0 847.48)"/><path d="m508.949219 262.761719h.402343v-26.96875h-.402343zm0 0"/><use x="277.93" xlink:href="#aj" y="317.221"/><use x="284.733114" xlink:href="#ab" y="317.221"/><use x="497.932992" xlink:href="#ag" y="317.221"/><use x="503.716169" xlink:href="#aq" y="317.221"/><use x="508.308349" xlink:href="#ar" y="317.221"/><use x="495.664" xlink:href="#ag" y="293.5101"/><use x="501.447177" xlink:href="#aq" y="293.5101"/><use x="506.039357" xlink:href="#Z" y="293.5101"/><use x="497.93353" xlink:href="#aR" y="265.232"/><path d="m4313.867188 5883.471875h4.0625v275.742187h-4.0625zm0 0" fill="none" stroke="#000" stroke-linejoin="round" stroke-miterlimit="10" stroke-width="3.98854" transform="matrix(.1 0 0 -.1 0 847.48)"/><path d="m431.386719 259.132812h.40625v-27.574218h-.40625zm0 0"/><use x="417.958" xlink:href="#ag" y="317.221"/><use x="423.400553" xlink:href="#X" y="317.221"/><use x="417.277141" xlink:href="#aj" y="293.5101"/><use x="424.080645" xlink:href="#X" y="293.5101"/><use x="420.933001" xlink:href="#aN" y="260.998"/><path d="m3617.148438 5841.128125h4.023437v208.203125h-4.023437zm0 0" fill="none" stroke="#000" stroke-linejoin="round" stroke-miterlimit="10" stroke-width="3.98854" transform="matrix(.1 0 0 -.1 0 847.48)"/><path d="m361.714844 263.367188h.402344v-20.820313h-.402344zm0 0"/><use x="338.505" xlink:href="#an" y="317.221"/><use x="348.87921" xlink:href="#af" y="317.221"/><use x="358.914358" xlink:href="#X" y="317.221"/><use x="370.479198" xlink:href="#ad" y="317.221"/><use x="340.46086" xlink:href="#as" y="293.5101"/><use x="351.175694" xlink:href="#an" y="293.5101"/><use x="361.550294" xlink:href="#ab" y="293.5101"/><use x="351.25886" xlink:href="#aN" y="265.232"/><path d="m2920.390625 5798.784375h4.0625v233.515625h-4.0625zm0 0" fill="none" stroke="#000" stroke-linejoin="round" stroke-miterlimit="10" stroke-width="3.98854" transform="matrix(.1 0 0 -.1 0 847.48)"/><path d="m292.039062 267.601562h.40625v-23.351562h-.40625zm0 0"/><path d="m1065.507812 5360.1125h50.9375v3.085937h-50.9375zm0 0" fill="none" stroke="#000" stroke-linejoin="round" stroke-miterlimit="10" stroke-width="4.94546" transform="matrix(.1 0 0 -.1 0 847.48)"/><path d="m106.550781 311.46875h5.09375v-.308594h-5.09375zm0 0"/><path d="m4639.023438 5360.1125h50.9375v3.085937h-50.9375zm0 0" fill="none" stroke="#000" stroke-linejoin="round" stroke-miterlimit="10" stroke-width="4.94546" transform="matrix(.1 0 0 -.1 0 847.48)"/><path d="m463.902344 311.46875h5.09375v-.308594h-5.09375zm0 0"/><path d="m1526.914062 6137.221875v-36.679688l700.78125-17.226562v36.640625zm0 0" fill="none" stroke="#000" stroke-linejoin="round" stroke-miterlimit="10" stroke-width="3.98854" transform="matrix(.1 0 0 -.1 0 847.48)"/><path d="m152.691406 233.757812v3.667969l70.078125 1.722657v-3.664063zm0 0"/><path d="m1783.554688 5597.221875h50.9375v3.085937h-50.9375zm0 0" fill="none" stroke="#000" stroke-linejoin="round" stroke-miterlimit="10" stroke-width="4.94546" transform="matrix(.1 0 0 -.1 0 847.48)"/><path d="m178.355469 287.757812h5.09375v-.308593h-5.09375zm0 0"/><path d="m1828.632812 5360.1125h50.9375v3.085937h-50.9375zm0 0" fill="none" stroke="#000" stroke-linejoin="round" stroke-miterlimit="10" stroke-width="4.94546" transform="matrix(.1 0 0 -.1 0 847.48)"/><path d="m182.863281 311.46875h5.09375v-.308594h-5.09375zm0 0"/><path d="m2920.390625 6052.534375v-36.679688l700.78125 17.226563v36.679687zm0 0" fill="none" stroke="#000" stroke-linejoin="round" stroke-miterlimit="10" stroke-width="3.98854" transform="matrix(.1 0 0 -.1 0 847.48)"/><path d="m292.039062 242.226562v3.667969l70.078126-1.722656v-3.667969zm0 0"/><path d="m3152.8125 5597.221875h50.9375v3.085937h-50.9375zm0 0" fill="none" stroke="#000" stroke-linejoin="round" stroke-miterlimit="10" stroke-width="4.94546" transform="matrix(.1 0 0 -.1 0 847.48)"/><path d="m315.277344 287.757812h5.097656v-.308593h-5.097656zm0 0"/><path d="m3148.554688 5360.1125h50.9375v3.085937h-50.9375zm0 0" fill="none" stroke="#000" stroke-linejoin="round" stroke-miterlimit="10" stroke-width="4.94546" transform="matrix(.1 0 0 -.1 0 847.48)"/><path d="m314.855469 311.46875h5.09375v-.308594h-5.09375zm0 0"/><path d="m3926.484375 5597.221875h50.9375v3.085937h-50.9375zm0 0" fill="none" stroke="#000" stroke-linejoin="round" stroke-miterlimit="10" stroke-width="4.94546" transform="matrix(.1 0 0 -.1 0 847.48)"/><path d="m392.648438 287.757812h5.09375v-.308593h-5.09375zm0 0"/><path d="m3939.6875 5360.1125h50.9375v3.085937h-50.9375zm0 0" fill="none" stroke="#000" stroke-linejoin="round" stroke-miterlimit="10" stroke-width="4.94546" transform="matrix(.1 0 0 -.1 0 847.48)"/><path d="m393.96875 311.46875h5.09375v-.308594h-5.09375zm0 0"/><path d="m4631.09375 5597.221875h50.9375v3.085937h-50.9375zm0 0" fill="none" stroke="#000" stroke-linejoin="round" stroke-miterlimit="10" stroke-width="4.94546" transform="matrix(.1 0 0 -.1 0 847.48)"/><path d="m463.109375 287.757812h5.09375v-.308593h-5.09375zm0 0"/><path d="m756.914062 5925.815625h4.023438v275.742187h-4.023438zm0 0" fill="none" stroke="#000" stroke-linejoin="round" stroke-miterlimit="10" stroke-width="3.98854" transform="matrix(.1 0 0 -.1 0 847.48)"/><path d="m75.691406 254.898438h.402344v-27.574219h-.402344zm0 0"/><use x="279.036" xlink:href="#ao" y="293.51"/><use x="290.60084" xlink:href="#aq" y="293.51"/><use x="47.210219" xlink:href="#at" y="293.51"/><use x="59.626221" xlink:href="#X" y="293.51"/><use x="71.191446" xlink:href="#Y" y="293.51"/><use x="82.75628" xlink:href="#au" y="293.51"/><use x="65.237" xlink:href="#aN" y="256.7635"/><use x="37.2921" xlink:href="#aP" y="252.52952"/><use x="6.7749" xlink:href="#aO" y="260.99788"/><use x="60.3069" xlink:href="#av" y="317.22088"/><use x="75.443999" xlink:href="#aw" y="317.22088"/><use x="281.5859" xlink:href="#aN" y="269.46618"/><path d="m2223.671875 5841.128125h4.023437v258.632812h-4.023437zm0 0" fill="none" stroke="#000" stroke-linejoin="round" stroke-miterlimit="10" stroke-width="3.98854" transform="matrix(.1 0 0 -.1 0 847.48)"/><path d="m222.367188 263.367188h.402343v-25.863282h-.402343zm0 0"/><use x="212.253" xlink:href="#aq" y="317.221"/><use x="216.84518" xlink:href="#ag" y="317.221"/><use x="195.4155" xlink:href="#ax" y="293.5101"/><use x="205.960413" xlink:href="#ah" y="293.5101"/><use x="217.525253" xlink:href="#Y" y="293.5101"/><use x="229.090484" xlink:href="#aa" y="293.5101"/><use x="211.9116" xlink:href="#aN" y="265.232"/><use x="142.2378" xlink:href="#aN" y="260.99802"/><use x="129.1433" xlink:href="#Y" y="293.51012"/><use x="140.368688" xlink:href="#ay" y="293.51012"/><use x="150.233523" xlink:href="#X" y="293.51012"/><use x="161.798363" xlink:href="#ad" y="293.51012"/><use x="136.96713" xlink:href="#ax" y="317.22102"/><use x="147.001887" xlink:href="#X" y="317.22102"/><path d="m1526.914062 5883.471875h4.0625v233.320312h-4.0625zm0 0" fill="none" stroke="#000" stroke-linejoin="round" stroke-miterlimit="10" stroke-width="3.98854" transform="matrix(.1 0 0 -.1 0 847.48)"/><path d="m152.691406 259.132812h.402344v-23.332031h-.402344zm0 0"/><g clip-path="url(#s)"><path d="m3.085938 4763.940625h5946.601562" style="fill:none;stroke-width:6.17335;stroke-linecap:round;stroke-linejoin:round;stroke:#000;stroke-miterlimit:10" transform="matrix(.1 0 0 -.1 0 847.48)"/></g><g clip-path="url(#t)"><path d="m3.085938 4848.628125h5946.601562" style="fill:none;stroke-width:6.17335;stroke-linecap:round;stroke-linejoin:round;stroke:#000;stroke-miterlimit:10" transform="matrix(.1 0 0 -.1 0 847.48)"/></g><g clip-path="url(#u)"><path d="m3.085938 4933.315625h5946.601562" style="fill:none;stroke-width:6.17335;stroke-linecap:round;stroke-linejoin:round;stroke:#000;stroke-miterlimit:10" transform="matrix(.1 0 0 -.1 0 847.48)"/></g><g clip-path="url(#v)"><path d="m3.085938 5018.003125h5946.601562" style="fill:none;stroke-width:6.17335;stroke-linecap:round;stroke-linejoin:round;stroke:#000;stroke-miterlimit:10" transform="matrix(.1 0 0 -.1 0 847.48)"/></g><g clip-path="url(#w)"><path d="m3.085938 5102.690625h5946.601562" style="fill:none;stroke-width:6.17335;stroke-linecap:round;stroke-linejoin:round;stroke:#000;stroke-miterlimit:10" transform="matrix(.1 0 0 -.1 0 847.48)"/></g><g clip-path="url(#x)"><path d="m5946.875 4763.940625v338.75" fill="none" stroke="#000" stroke-linejoin="round" stroke-miterlimit="10" stroke-width="11.737" transform="matrix(.1 0 0 -.1 0 847.48)"/></g><use x="482.503" xlink:href="#az" y="400.724"/><use x="487.095571" xlink:href="#X" y="400.724"/><use x="485.053" xlink:href="#aN" y="349.9142"/><path d="m3748.085938 4681.245312h4.0625v275.742188h-4.0625zm0 0" fill="none" stroke="#000" stroke-linejoin="round" stroke-miterlimit="10" stroke-width="3.98854" transform="matrix(.1 0 0 -.1 0 847.48)"/><path d="m374.808594 379.355469h.40625v-27.574219h-.40625zm0 0"/><use x="370.954" xlink:href="#aj" y="400.724"/><use x="377.757504" xlink:href="#X" y="400.724"/><use x="374.60986" xlink:href="#aN" y="349.9142"/><path d="m2855.351562 4951.9875h4.023438v233.320312h-4.023438zm0 0" fill="none" stroke="#000" stroke-linejoin="round" stroke-miterlimit="10" stroke-width="3.98854" transform="matrix(.1 0 0 -.1 0 847.48)"/><path d="m285.535156 352.28125h.402344v-23.332031h-.402344zm0 0"/><use x="274.827" xlink:href="#X" y="400.724"/><use x="275.080516" xlink:href="#aN" y="354.1486"/><path d="m1260.351562 4525.073437h50.9375v3.085938h-50.9375zm0 0" fill="none" stroke="#000" stroke-linejoin="round" stroke-miterlimit="10" stroke-width="4.94546" transform="matrix(.1 0 0 -.1 0 847.48)"/><path d="m126.035156 394.972656h5.09375v-.308594h-5.09375zm0 0"/><path d="m1861.328125 5188.471875v-36.679688l998.046875 17.226563v36.679687zm0 0" fill="none" stroke="#000" stroke-linejoin="round" stroke-miterlimit="10" stroke-width="3.98854" transform="matrix(.1 0 0 -.1 0 847.48)"/><path d="m186.132812 328.632812v3.667969l99.804688-1.722656v-3.667969zm0 0"/><path d="m3261.25 4525.073437h50.9375v3.085938h-50.9375zm0 0" fill="none" stroke="#000" stroke-linejoin="round" stroke-miterlimit="10" stroke-width="4.94546" transform="matrix(.1 0 0 -.1 0 847.48)"/><path d="m326.125 394.972656h5.09375v-.308594h-5.09375zm0 0"/><path d="m4333.632812 4525.073437h50.976563v3.085938h-50.976563zm0 0" fill="none" stroke="#000" stroke-linejoin="round" stroke-miterlimit="10" stroke-width="4.94546" transform="matrix(.1 0 0 -.1 0 847.48)"/><path d="m433.363281 394.972656h5.097657v-.308594h-5.097657zm0 0"/><path d="m4852.539062 4681.245312h4.023438v275.742188h-4.023438zm0 0" fill="none" stroke="#000" stroke-linejoin="round" stroke-miterlimit="10" stroke-width="3.98854" transform="matrix(.1 0 0 -.1 0 847.48)"/><path d="m485.253906 379.355469h.402344v-27.574219h-.402344zm0 0"/><use x="37.2918" xlink:href="#aP" y="354.148"/><use x="6.7746" xlink:href="#aO" y="362.61597"/><path d="m1861.328125 4909.64375h4.0625v258.554687h-4.0625zm0 0" fill="none" stroke="#000" stroke-linejoin="round" stroke-miterlimit="10" stroke-width="3.98854" transform="matrix(.1 0 0 -.1 0 847.48)"/><path d="m186.132812 356.515625h.40625v-25.855469h-.40625zm0 0"/><use x="164.457" xlink:href="#Y" y="400.724"/><use x="176.022231" xlink:href="#X" y="400.724"/><use x="187.587071" xlink:href="#aa" y="400.724"/><use x="175.6808" xlink:href="#aN" y="358.3826"/><path d="m756.914062 4909.64375h4.023438v275.742187h-4.023438zm0 0" fill="none" stroke="#000" stroke-linejoin="round" stroke-miterlimit="10" stroke-width="3.98854" transform="matrix(.1 0 0 -.1 0 847.48)"/><path d="m75.691406 356.515625h.402344v-27.574219h-.402344zm0 0"/><use x="48.8262" xlink:href="#ai" y="400.724"/><use x="66.174233" xlink:href="#X" y="400.724"/><use x="77.739458" xlink:href="#ad" y="400.724"/><use x="82.331644" xlink:href="#ay" y="400.724"/><use x="65.2367" xlink:href="#aN" y="358.3826"/><g clip-path="url(#y)"><path d="m3.085938 3747.76875h5946.601562" style="fill:none;stroke-width:6.17335;stroke-linecap:round;stroke-linejoin:round;stroke:#000;stroke-miterlimit:10" transform="matrix(.1 0 0 -.1 0 847.48)"/></g><g clip-path="url(#z)"><path d="m3.085938 3832.45625h5946.601562" style="fill:none;stroke-width:6.17335;stroke-linecap:round;stroke-linejoin:round;stroke:#000;stroke-miterlimit:10" transform="matrix(.1 0 0 -.1 0 847.48)"/></g><g clip-path="url(#A)"><path d="m3.085938 3917.14375h5946.601562" style="fill:none;stroke-width:6.17335;stroke-linecap:round;stroke-linejoin:round;stroke:#000;stroke-miterlimit:10" transform="matrix(.1 0 0 -.1 0 847.48)"/></g><g clip-path="url(#B)"><path d="m3.085938 4001.792187h5946.601562" style="fill:none;stroke-width:6.17335;stroke-linecap:round;stroke-linejoin:round;stroke:#000;stroke-miterlimit:10" transform="matrix(.1 0 0 -.1 0 847.48)"/></g><g clip-path="url(#C)"><path d="m3.085938 4086.479687h5946.601562" style="fill:none;stroke-width:6.17335;stroke-linecap:round;stroke-linejoin:round;stroke:#000;stroke-miterlimit:10" transform="matrix(.1 0 0 -.1 0 847.48)"/></g><path d="m5237.304688 3663.08125h159.648437" style="fill:none;stroke-width:14.6416;stroke-linecap:round;stroke-linejoin:round;stroke:#000;stroke-miterlimit:10" transform="matrix(.1 0 0 -.1 0 847.48)"/><g clip-path="url(#D)"><path d="m5946.875 3747.76875v338.710937" fill="none" stroke="#000" stroke-linejoin="round" stroke-miterlimit="10" stroke-width="11.737" transform="matrix(.1 0 0 -.1 0 847.48)"/></g><use x="296.566" xlink:href="#aN" y="460.001"/><path d="m4757.421875 3724.096875h4.0625v275.742187h-4.0625zm0 0" fill="none" stroke="#000" stroke-linejoin="round" stroke-miterlimit="10" stroke-width="3.98854" transform="matrix(.1 0 0 -.1 0 847.48)"/><path d="m475.742188 475.074219h.402343v-27.574219h-.402343zm0 0"/><use x="462.313" xlink:href="#aA" y="502.342"/><use x="467.755553" xlink:href="#X" y="502.342"/><use x="465.288" xlink:href="#aN" y="476.9373"/><path d="m4206.289062 3766.401562h4.0625v233.554688h-4.0625zm0 0" fill="none" stroke="#000" stroke-linejoin="round" stroke-miterlimit="10" stroke-width="3.98854" transform="matrix(.1 0 0 -.1 0 847.48)"/><path d="m420.628906 470.839844h.40625v-23.355469h-.40625zm0 0"/><use x="401.844" xlink:href="#aa" y="502.342"/><use x="412.218234" xlink:href="#aB" y="502.342"/><use x="423.783465" xlink:href="#ag" y="502.342"/><use x="410.17681" xlink:href="#aN" y="472.7033"/><path d="m3655.195312 3808.745312h4.0625v208.203125h-4.0625zm0 0" fill="none" stroke="#000" stroke-linejoin="round" stroke-miterlimit="10" stroke-width="3.98854" transform="matrix(.1 0 0 -.1 0 847.48)"/><path d="m365.519531 466.605469h.40625v-20.820313h-.40625zm0 0"/><use x="343.842" xlink:href="#Y" y="502.342"/><use x="355.40684" xlink:href="#X" y="502.342"/><use x="366.972071" xlink:href="#aa" y="502.342"/><use x="355.0658" xlink:href="#aN" y="468.469"/><path d="m3070.195312 3893.432812h4.023438v275.742188h-4.023438zm0 0" fill="none" stroke="#000" stroke-linejoin="round" stroke-miterlimit="10" stroke-width="3.98854" transform="matrix(.1 0 0 -.1 0 847.48)"/><path d="m307.019531 458.136719h.402344v-27.574219h-.402344zm0 0"/><use x="290.104" xlink:href="#aj" y="502.342"/><use x="296.907114" xlink:href="#X" y="502.342"/><use x="308.302033" xlink:href="#ag" y="502.342"/><path d="m981.640625 3508.901562h50.976563v3.085938h-50.976563zm0 0" fill="none" stroke="#000" stroke-linejoin="round" stroke-miterlimit="10" stroke-width="4.94546" transform="matrix(.1 0 0 -.1 0 847.48)"/><path d="m98.164062 496.589844h5.09375v-.308594h-5.09375zm0 0"/><path d="m1361.796875 4189.526562v-36.679687l555.15625-17.226563v36.640625zm0 0" fill="none" stroke="#000" stroke-linejoin="round" stroke-miterlimit="10" stroke-width="3.98854" transform="matrix(.1 0 0 -.1 0 847.48)"/><path d="m136.179688 428.527344v3.667968l55.515624 1.722657v-3.664063zm0 0"/><path d="m2078.867188 3508.901562h50.9375v3.085938h-50.9375zm0 0" fill="none" stroke="#000" stroke-linejoin="round" stroke-miterlimit="10" stroke-width="4.94546" transform="matrix(.1 0 0 -.1 0 847.48)"/><path d="m207.886719 496.589844h5.09375v-.308594h-5.09375zm0 0"/><path d="m2704.726562 3508.901562h50.9375v3.085938h-50.9375zm0 0" fill="none" stroke="#000" stroke-linejoin="round" stroke-miterlimit="10" stroke-width="4.94546" transform="matrix(.1 0 0 -.1 0 847.48)"/><path d="m270.472656 496.589844h5.09375v-.308594h-5.09375zm0 0"/><path d="m3264.140625 3508.901562h50.976563v3.085938h-50.976563zm0 0" fill="none" stroke="#000" stroke-linejoin="round" stroke-miterlimit="10" stroke-width="4.94546" transform="matrix(.1 0 0 -.1 0 847.48)"/><path d="m326.414062 496.589844h5.097657v-.308594h-5.097657zm0 0"/><path d="m3655.195312 4037.378125v-36.679688l555.15625-17.226562v36.679687zm0 0" fill="none" stroke="#000" stroke-linejoin="round" stroke-miterlimit="10" stroke-width="3.98854" transform="matrix(.1 0 0 -.1 0 847.48)"/><path d="m365.519531 443.742188v3.667968l55.515625 1.722656v-3.667968zm0 0"/><path d="m4433.90625 3508.901562h50.976562v3.085938h-50.976562zm0 0" fill="none" stroke="#000" stroke-linejoin="round" stroke-miterlimit="10" stroke-width="4.94546" transform="matrix(.1 0 0 -.1 0 847.48)"/><path d="m443.390625 496.589844h5.09375v-.308594h-5.09375zm0 0"/><path d="m4974.84375 3508.901562h50.9375v3.085938h-50.9375zm0 0" fill="none" stroke="#000" stroke-linejoin="round" stroke-miterlimit="10" stroke-width="4.94546" transform="matrix(.1 0 0 -.1 0 847.48)"/><path d="m497.484375 496.589844h5.09375v-.308594h-5.09375zm0 0"/><path d="m5369.21875 3687.807812h4.023438v269.648438h-4.023438zm0 0" fill="none" stroke="#000" stroke-linejoin="round" stroke-miterlimit="10" stroke-width="3.98854" transform="matrix(.1 0 0 -.1 0 847.48)"/><path d="m536.921875 478.699219h.402344v-26.964844h-.402344zm0 0"/><use x="520.745" xlink:href="#az" y="502.342"/><use x="525.33718" xlink:href="#X" y="502.342"/><use x="536.902411" xlink:href="#aC" y="502.342"/><use x="525.90555" xlink:href="#aR" y="481.1713"/><path d="m654.375 3665.073437h4.023438v275.742188h-4.023438zm0 0" fill="none" stroke="#000" stroke-linejoin="round" stroke-miterlimit="10" stroke-width="3.98854" transform="matrix(.1 0 0 -.1 0 847.48)"/><path d="m65.4375 480.972656h.402344v-27.574218h-.402344zm0 0"/><use x="54.0129" xlink:href="#ai" y="502.342"/><use x="71.360933" xlink:href="#aq" y="502.342"/><use x="75.953509" xlink:href="#Y" y="502.342"/><use x="65.2367" xlink:href="#aN" y="451.5326"/><use x="37.2918" xlink:href="#aP" y="455.76658"/><use x="6.7746" xlink:href="#aO" y="464.23494"/><use x="125.7256" xlink:href="#aN" y="455.76658"/><path d="m2464.023438 3851.089062h4.0625v275.742188h-4.0625zm0 0" fill="none" stroke="#000" stroke-linejoin="round" stroke-miterlimit="10" stroke-width="3.98854" transform="matrix(.1 0 0 -.1 0 847.48)"/><path d="m246.402344 462.371094h.402344v-27.574219h-.402344zm0 0"/><use x="227.02" xlink:href="#aD" y="502.342"/><use x="244.368027" xlink:href="#X" y="502.342"/><use x="235.94734" xlink:href="#aN" y="464.235"/><path d="m1912.890625 3893.432812h4.0625v258.632813h-4.0625zm0 0" fill="none" stroke="#000" stroke-linejoin="round" stroke-miterlimit="10" stroke-width="3.98854" transform="matrix(.1 0 0 -.1 0 847.48)"/><path d="m191.289062 458.136719h.40625v-25.863281h-.40625zm0 0"/><use x="178.882" xlink:href="#aq" y="502.342"/><use x="183.47418" xlink:href="#an" y="502.342"/><use x="180.8363" xlink:href="#aN" y="460.001"/><use x="113.9058" xlink:href="#ao" y="502.342"/><use x="125.471031" xlink:href="#X" y="502.342"/><use x="137.036262" xlink:href="#Y" y="502.342"/><path d="m1361.796875 3935.776562h4.0625v233.28125h-4.0625zm0 0" fill="none" stroke="#000" stroke-linejoin="round" stroke-miterlimit="10" stroke-width="3.98854" transform="matrix(.1 0 0 -.1 0 847.48)"/><path d="m136.179688 453.902344h.402343v-23.328125h-.402343zm0 0"/><g clip-path="url(#E)"><path d="m3.085938 2731.557812h5946.601562" style="fill:none;stroke-width:6.17335;stroke-linecap:round;stroke-linejoin:round;stroke:#000;stroke-miterlimit:10" transform="matrix(.1 0 0 -.1 0 847.48)"/></g><g clip-path="url(#F)"><path d="m3.085938 2816.245312h5946.601562" style="fill:none;stroke-width:6.17335;stroke-linecap:round;stroke-linejoin:round;stroke:#000;stroke-miterlimit:10" transform="matrix(.1 0 0 -.1 0 847.48)"/></g><g clip-path="url(#G)"><path d="m3.085938 2900.932812h5946.601562" style="fill:none;stroke-width:6.17335;stroke-linecap:round;stroke-linejoin:round;stroke:#000;stroke-miterlimit:10" transform="matrix(.1 0 0 -.1 0 847.48)"/></g><g clip-path="url(#H)"><path d="m3.085938 2985.620312h5946.601562" style="fill:none;stroke-width:6.17335;stroke-linecap:round;stroke-linejoin:round;stroke:#000;stroke-miterlimit:10" transform="matrix(.1 0 0 -.1 0 847.48)"/></g><g clip-path="url(#I)"><path d="m3.085938 3070.307812h5946.601562" style="fill:none;stroke-width:6.17335;stroke-linecap:round;stroke-linejoin:round;stroke:#000;stroke-miterlimit:10" transform="matrix(.1 0 0 -.1 0 847.48)"/></g><path d="m4141.679688 3046.909375h7.734374v24.492187h-7.734374zm0 0" style="fill:none;stroke-width:3.98854;stroke-linecap:round;stroke-linejoin:round;stroke:#000;stroke-miterlimit:10" transform="matrix(.1 0 0 -.1 0 847.48)"/><path d="m414.167969 542.789062h.773437v-2.449218h-.773437zm0 0"/><path d="m4141.679688 2962.221875h7.734374v46.796875h-7.734374zm0 0" style="fill:none;stroke-width:3.98854;stroke-linecap:round;stroke-linejoin:round;stroke:#000;stroke-miterlimit:10" transform="matrix(.1 0 0 -.1 0 847.48)"/><path d="m414.167969 551.261719h.773437v-4.683594h-.773437zm0 0"/><path d="m4141.679688 2877.534375h7.734374v46.796875h-7.734374zm0 0" style="fill:none;stroke-width:3.98854;stroke-linecap:round;stroke-linejoin:round;stroke:#000;stroke-miterlimit:10" transform="matrix(.1 0 0 -.1 0 847.48)"/><path d="m414.167969 559.726562h.773437v-4.679687h-.773437zm0 0"/><path d="m4141.679688 2792.846875h7.734374v46.796875h-7.734374zm0 0" style="fill:none;stroke-width:3.98854;stroke-linecap:round;stroke-linejoin:round;stroke:#000;stroke-miterlimit:10" transform="matrix(.1 0 0 -.1 0 847.48)"/><path d="m414.167969 568.195312h.773437v-4.679687h-.773437zm0 0"/><path d="m4141.679688 2730.464062h7.734374v24.53125h-7.734374zm0 0" style="fill:none;stroke-width:3.98854;stroke-linecap:round;stroke-linejoin:round;stroke:#000;stroke-miterlimit:10" transform="matrix(.1 0 0 -.1 0 847.48)"/><path d="m414.167969 574.433594h.773437v-2.453125h-.773437zm0 0"/><use x="582.822" xlink:href="#aQ" y="553.152"/><use x="582.822" xlink:href="#aQ" y="561.62036"/><g clip-path="url(#J)"><path d="m5934.21875 2731.557812v338.75" fill="none" stroke="#000" stroke-linejoin="round" stroke-miterlimit="10" stroke-width="37.057" transform="matrix(.1 0 0 -.1 0 847.48)"/></g><path d="m5891.289062 2731.557812v338.75" fill="none" stroke="#000" stroke-linejoin="round" stroke-miterlimit="10" stroke-width="11.737" transform="matrix(.1 0 0 -.1 0 847.48)"/><use x="61.9672" xlink:href="#aQ" y="553.152"/><use x="61.9672" xlink:href="#aQ" y="561.62036"/><path d="m595.273438 2731.557812v338.75" fill="none" stroke="#000" stroke-linejoin="round" stroke-miterlimit="10" stroke-width="11.737" transform="matrix(.1 0 0 -.1 0 847.48)"/><path d="m552.34375 2731.557812v338.75" fill="none" stroke="#000" stroke-linejoin="round" stroke-miterlimit="10" stroke-width="37.057" transform="matrix(.1 0 0 -.1 0 847.48)"/><use x="527.183" xlink:href="#aR" y="553.152"/><use x="471.6494" xlink:href="#aN" y="557.38638"/><use x="455.1533" xlink:href="#ax" y="604.80158"/><use x="465.697846" xlink:href="#ah" y="604.80158"/><use x="477.262687" xlink:href="#Y" y="604.80158"/><use x="488.827918" xlink:href="#aa" y="604.80158"/><use x="457.53455" xlink:href="#ag" y="628.51248"/><use x="463.317336" xlink:href="#ah" y="628.51248"/><use x="474.882177" xlink:href="#Y" y="628.51248"/><use x="486.447408" xlink:href="#aa" y="628.51248"/><path d="m4718.476562 2620.659375h4.0625v261.640625h-4.0625zm0 0" fill="none" stroke="#000" stroke-linejoin="round" stroke-miterlimit="10" stroke-width="3.98854" transform="matrix(.1 0 0 -.1 0 847.48)"/><path d="m471.847656 585.414062h.40625v-26.164062h-.40625zm0 0"/><path d="m1057.1875 2484.292187h50.9375v3.085938h-50.9375zm0 0" fill="none" stroke="#000" stroke-linejoin="round" stroke-miterlimit="10" stroke-width="4.94546" transform="matrix(.1 0 0 -.1 0 847.48)"/><path d="m105.714844 599.050781h5.09375v-.308593h-5.09375zm0 0"/><use x="363.293" xlink:href="#aN" y="570.089"/><use x="346.9668" xlink:href="#au" y="604.8019"/><use x="358.361719" xlink:href="#ay" y="604.8019"/><use x="368.73632" xlink:href="#aB" y="604.8019"/><use x="380.30116" xlink:href="#az" y="604.8019"/><use x="384.893731" xlink:href="#ag" y="604.8019"/><use x="347.052347" xlink:href="#Y" y="628.5128"/><use x="358.277735" xlink:href="#ay" y="628.5128"/><use x="368.652335" xlink:href="#aB" y="628.5128"/><use x="380.217566" xlink:href="#az" y="628.5128"/><use x="384.809746" xlink:href="#ag" y="628.5128"/><path d="m3737.460938 2792.573437h4.0625v275.742188h-4.0625zm0 0" fill="none" stroke="#000" stroke-linejoin="round" stroke-miterlimit="10" stroke-width="3.98854" transform="matrix(.1 0 0 -.1 0 847.48)"/><path d="m373.746094 568.222656h.40625v-27.574218h-.40625zm0 0"/><use x="420.845" xlink:href="#aN" y="561.62"/><use x="413.10789" xlink:href="#an" y="604.8012"/><use x="423.482124" xlink:href="#af" y="604.8012"/><use x="433.856749" xlink:href="#aw" y="604.8012"/><use x="418.29539" xlink:href="#ab" y="628.5121"/><use x="429.86023" xlink:href="#ad" y="628.5121"/><path d="m4313.007812 2877.260937h4.023438v275.742188h-4.023438zm0 0" fill="none" stroke="#000" stroke-linejoin="round" stroke-miterlimit="10" stroke-width="3.98854" transform="matrix(.1 0 0 -.1 0 847.48)"/><path d="m431.296875 559.753906h.40625v-27.574218h-.40625zm0 0"/><path d="m2444.882812 2484.292187h50.9375v3.085938h-50.9375zm0 0" fill="none" stroke="#000" stroke-linejoin="round" stroke-miterlimit="10" stroke-width="4.94546" transform="matrix(.1 0 0 -.1 0 847.48)"/><path d="m244.484375 599.050781h5.097656v-.308593h-5.097656zm0 0"/><path d="m4448.476562 2484.292187h50.976563v3.085938h-50.976563zm0 0" fill="none" stroke="#000" stroke-linejoin="round" stroke-miterlimit="10" stroke-width="4.94546" transform="matrix(.1 0 0 -.1 0 847.48)"/><path d="m444.847656 599.050781h5.09375v-.308593h-5.09375zm0 0"/><path d="m2907.617188 2247.182812h50.9375v3.085938h-50.9375zm0 0" fill="none" stroke="#000" stroke-linejoin="round" stroke-miterlimit="10" stroke-width="4.94546" transform="matrix(.1 0 0 -.1 0 847.48)"/><path d="m290.761719 622.761719h5.09375v-.308594h-5.09375zm0 0"/><path d="m2467.382812 2247.182812h50.976563v3.085938h-50.976563zm0 0" fill="none" stroke="#000" stroke-linejoin="round" stroke-miterlimit="10" stroke-width="4.94546" transform="matrix(.1 0 0 -.1 0 847.48)"/><path d="m246.738281 622.761719h5.097657v-.308594h-5.097657zm0 0"/><path d="m4434.453125 2247.182812h50.9375v3.085938h-50.9375zm0 0" fill="none" stroke="#000" stroke-linejoin="round" stroke-miterlimit="10" stroke-width="4.94546" transform="matrix(.1 0 0 -.1 0 847.48)"/><path d="m443.445312 622.761719h5.09375v-.308594h-5.09375zm0 0"/><path d="m2305.234375 3173.315625v-36.679688l466.757813-17.226562v36.679687zm0 0" fill="none" stroke="#000" stroke-linejoin="round" stroke-miterlimit="10" stroke-width="3.98854" transform="matrix(.1 0 0 -.1 0 847.48)"/><path d="m230.523438 530.148438v3.667968l46.675781 1.722656v-3.667968zm0 0"/><path d="m1996.5625 2247.182812h50.976562v3.085938h-50.976562zm0 0" fill="none" stroke="#000" stroke-linejoin="round" stroke-miterlimit="10" stroke-width="4.94546" transform="matrix(.1 0 0 -.1 0 847.48)"/><path d="m199.65625 622.761719h5.097656v-.308594h-5.097656zm0 0"/><path d="m2028.046875 2484.292187h50.9375v3.085938h-50.9375zm0 0" fill="none" stroke="#000" stroke-linejoin="round" stroke-miterlimit="10" stroke-width="4.94546" transform="matrix(.1 0 0 -.1 0 847.48)"/><path d="m202.804688 599.050781h5.09375v-.308593h-5.09375zm0 0"/><path d="m1493.007812 2484.292187h50.976563v3.085938h-50.976563zm0 0" fill="none" stroke="#000" stroke-linejoin="round" stroke-miterlimit="10" stroke-width="4.94546" transform="matrix(.1 0 0 -.1 0 847.48)"/><path d="m149.300781 599.050781h5.09375v-.308593h-5.09375zm0 0"/><path d="m1379.726562 3088.628125v-36.640625l466.796876 17.226562v36.640625zm0 0" fill="none" stroke="#000" stroke-linejoin="round" stroke-miterlimit="10" stroke-width="3.98854" transform="matrix(.1 0 0 -.1 0 847.48)"/><path d="m137.972656 538.617188v3.664062l46.679688-1.722656v-3.664063zm0 0"/><path d="m1012.539062 2247.182812h50.9375v3.085938h-50.9375zm0 0" fill="none" stroke="#000" stroke-linejoin="round" stroke-miterlimit="10" stroke-width="4.94546" transform="matrix(.1 0 0 -.1 0 847.48)"/><path d="m101.253906 622.761719h5.09375v-.308594h-5.09375zm0 0"/><use x="512.753" xlink:href="#W" y="628.512"/><use x="524.31784" xlink:href="#X" y="628.512"/><use x="535.883071" xlink:href="#Y" y="628.512"/><use x="547.448302" xlink:href="#Z" y="628.512"/><path d="m5273.828125 2648.8625h4.023437v269.6875h-4.023437zm0 0" fill="none" stroke="#000" stroke-linejoin="round" stroke-miterlimit="10" stroke-width="3.98854" transform="matrix(.1 0 0 -.1 0 847.48)"/><path d="m527.382812 582.59375h.402344v-26.96875h-.402344zm0 0"/><use x="512.753" xlink:href="#W" y="604.801"/><use x="524.31784" xlink:href="#X" y="604.801"/><use x="535.883071" xlink:href="#Y" y="604.801"/><use x="547.448302" xlink:href="#Z" y="604.801"/><path d="m5022.421875 2247.182812h50.9375v3.085938h-50.9375zm0 0" fill="none" stroke="#000" stroke-linejoin="round" stroke-miterlimit="10" stroke-width="4.94546" transform="matrix(.1 0 0 -.1 0 847.48)"/><path d="m502.238281 622.761719h5.097657v-.308594h-5.097657zm0 0"/><path d="m5034.296875 2484.292187h50.976563v3.085938h-50.976563zm0 0" fill="none" stroke="#000" stroke-linejoin="round" stroke-miterlimit="10" stroke-width="4.94546" transform="matrix(.1 0 0 -.1 0 847.48)"/><path d="m503.429688 599.050781h5.09375v-.308593h-5.09375zm0 0"/><use x="76.8441" xlink:href="#aN" y="570.089"/><use x="73.18941" xlink:href="#aE" y="604.8019"/><use x="86.965569" xlink:href="#aq" y="604.8019"/><use x="75.40035" xlink:href="#ak" y="628.5128"/><path d="m872.96875 2792.573437h4.0625v275.742188h-4.0625zm0 0" fill="none" stroke="#000" stroke-linejoin="round" stroke-miterlimit="10" stroke-width="3.98854" transform="matrix(.1 0 0 -.1 0 847.48)"/><path d="m87.296875 568.222656h.40625v-27.574218h-.40625zm0 0"/><use x="127.521" xlink:href="#aN" y="565.854"/><use x="124.97139" xlink:href="#ad" y="604.8013"/><use x="129.56357" xlink:href="#aF" y="604.8013"/><use x="118.25264" xlink:href="#aj" y="628.5122"/><use x="125.055754" xlink:href="#aG" y="628.5122"/><use x="136.620985" xlink:href="#ag" y="628.5122"/><use x="142.063561" xlink:href="#Z" y="628.5122"/><path d="m1379.765625 2834.917187h4.023437v233.554688h-4.023437zm0 0" fill="none" stroke="#000" stroke-linejoin="round" stroke-miterlimit="10" stroke-width="3.98854" transform="matrix(.1 0 0 -.1 0 847.48)"/><path d="m137.976562 563.988281h.402344v-23.355469h-.402344zm0 0"/><path d="m3230.703125 2834.917187h4.0625v275.742188h-4.0625zm0 0" fill="none" stroke="#000" stroke-linejoin="round" stroke-miterlimit="10" stroke-width="3.98854" transform="matrix(.1 0 0 -.1 0 847.48)"/><path d="m323.070312 563.988281h.40625v-27.574219h-.40625zm0 0"/><use x="6.77461" xlink:href="#aO" y="565.854"/><use x="37.29181" xlink:href="#aP" y="557.38603"/><path d="m2305.234375 2919.604687h4.023437v233.242188h-4.023437zm0 0" fill="none" stroke="#000" stroke-linejoin="round" stroke-miterlimit="10" stroke-width="3.98854" transform="matrix(.1 0 0 -.1 0 847.48)"/><path d="m230.523438 555.519531h.402343v-23.324219h-.402343zm0 0"/><use x="266.343" xlink:href="#aN" y="561.62"/><use x="257.49964" xlink:href="#au" y="604.8012"/><use x="269.06448" xlink:href="#aH" y="604.8012"/><use x="280.4594" xlink:href="#ag" y="604.8012"/><use x="260.9012" xlink:href="#an" y="628.5121"/><use x="271.2758" xlink:href="#aF" y="628.5121"/><path d="m2767.96875 2877.260937h4.023438v258.632813h-4.023438zm0 0" fill="none" stroke="#000" stroke-linejoin="round" stroke-miterlimit="10" stroke-width="3.98854" transform="matrix(.1 0 0 -.1 0 847.48)"/><path d="m276.796875 559.753906h.402344v-25.863281h-.402344zm0 0"/><use x="312.617" xlink:href="#aN" y="565.854"/><use x="312.362703" xlink:href="#aG" y="604.8013"/><use x="303.774423" xlink:href="#au" y="628.5122"/><use x="315.339654" xlink:href="#aH" y="628.5122"/><use x="326.734182" xlink:href="#ag" y="628.5122"/><use x="214.627523" xlink:href="#an" y="604.8013"/><use x="225.001733" xlink:href="#aF" y="604.8013"/><use x="173.794323" xlink:href="#aN" y="561.6201"/><use x="162.570523" xlink:href="#au" y="604.8013"/><use x="174.135754" xlink:href="#aH" y="604.8013"/><use x="185.700985" xlink:href="#an" y="604.8013"/><use x="167.758413" xlink:href="#W" y="628.5122"/><use x="179.323253" xlink:href="#aF" y="628.5122"/><path d="m1842.5 2877.260937h4.023438v208.125h-4.023438zm0 0" fill="none" stroke="#000" stroke-linejoin="round" stroke-miterlimit="10" stroke-width="3.98854" transform="matrix(.1 0 0 -.1 0 847.48)"/><path d="m184.246094 559.753906h.40625v-20.8125h-.40625zm0 0"/><use x="220.068" xlink:href="#aN" y="557.386"/><use x="213.52152" xlink:href="#ag" y="628.5122"/><use x="219.134018" xlink:href="#aH" y="628.5122"/><use x="230.699249" xlink:href="#aj" y="628.5122"/><g clip-path="url(#K)"><path d="m3.085938 1615.659375h5946.601562" style="fill:none;stroke-width:6.17335;stroke-linecap:round;stroke-linejoin:round;stroke:#000;stroke-miterlimit:10" transform="matrix(.1 0 0 -.1 0 847.48)"/></g><g clip-path="url(#L)"><path d="m3.085938 1700.346875h5946.601562" style="fill:none;stroke-width:6.17335;stroke-linecap:round;stroke-linejoin:round;stroke:#000;stroke-miterlimit:10" transform="matrix(.1 0 0 -.1 0 847.48)"/></g><g clip-path="url(#M)"><path d="m3.085938 1785.034375h5946.601562" style="fill:none;stroke-width:6.17335;stroke-linecap:round;stroke-linejoin:round;stroke:#000;stroke-miterlimit:10" transform="matrix(.1 0 0 -.1 0 847.48)"/></g><g clip-path="url(#N)"><path d="m3.085938 1869.721875h5946.601562" style="fill:none;stroke-width:6.17335;stroke-linecap:round;stroke-linejoin:round;stroke:#000;stroke-miterlimit:10" transform="matrix(.1 0 0 -.1 0 847.48)"/></g><g clip-path="url(#O)"><path d="m3.085938 1954.409375h5946.601562" style="fill:none;stroke-width:6.17335;stroke-linecap:round;stroke-linejoin:round;stroke:#000;stroke-miterlimit:10" transform="matrix(.1 0 0 -.1 0 847.48)"/></g><g clip-path="url(#P)"><path d="m5946.875 1615.659375v338.75" fill="none" stroke="#000" stroke-linejoin="round" stroke-miterlimit="10" stroke-width="11.737" transform="matrix(.1 0 0 -.1 0 847.48)"/></g><use x="295.12" xlink:href="#ag" y="715.553"/><use x="300.562576" xlink:href="#X" y="715.553"/><path d="m4805.117188 1719.01875h4.0625v275.742187h-4.0625zm0 0" fill="none" stroke="#000" stroke-linejoin="round" stroke-miterlimit="10" stroke-width="3.98854" transform="matrix(.1 0 0 -.1 0 847.48)"/><path d="m480.511719 675.578125h.40625v-27.574219h-.40625zm0 0"/><use x="464.703" xlink:href="#ad" y="715.553"/><use x="469.29518" xlink:href="#X" y="715.553"/><use x="480.6901" xlink:href="#ag" y="715.553"/><use x="470.05886" xlink:href="#aN" y="677.446"/><path d="m4250.429688 1761.323437h4.0625v258.632813h-4.0625zm0 0" fill="none" stroke="#000" stroke-linejoin="round" stroke-miterlimit="10" stroke-width="3.98854" transform="matrix(.1 0 0 -.1 0 847.48)"/><path d="m425.042969 671.347656h.402343v-25.863281h-.402343zm0 0"/><use x="403.364" xlink:href="#aD" y="715.553"/><use x="420.712051" xlink:href="#X" y="715.553"/><use x="432.277282" xlink:href="#ad" y="715.553"/><use x="414.5878" xlink:href="#aN" y="673.2116"/><path d="m3695.703125 1803.667187h4.0625v233.28125h-4.0625zm0 0" fill="none" stroke="#000" stroke-linejoin="round" stroke-miterlimit="10" stroke-width="3.98854" transform="matrix(.1 0 0 -.1 0 847.48)"/><path d="m369.570312 667.113281h.40625v-23.328125h-.40625zm0 0"/><use x="345.682" xlink:href="#ad" y="715.553"/><use x="350.27418" xlink:href="#ab" y="715.553"/><use x="361.83902" xlink:href="#au" y="715.553"/><use x="373.23394" xlink:href="#ay" y="715.553"/><use x="359.1168" xlink:href="#aN" y="668.9776"/><path d="m3085.507812 1761.323437h4.023438v275.78125h-4.023438zm0 0" fill="none" stroke="#000" stroke-linejoin="round" stroke-miterlimit="10" stroke-width="3.98854" transform="matrix(.1 0 0 -.1 0 847.48)"/><path d="m308.550781 671.347656h.402344v-27.574218h-.402344zm0 0"/><path d="m945.390625 1376.792187h50.976563v3.085938h-50.976563zm0 0" fill="none" stroke="#000" stroke-linejoin="round" stroke-miterlimit="10" stroke-width="4.94546" transform="matrix(.1 0 0 -.1 0 847.48)"/><path d="m94.539062 709.800781h5.097657v-.308593h-5.097657zm0 0"/><path d="m1365.859375 2057.417187v-36.679687l558.75-17.226563v36.640625zm0 0" fill="none" stroke="#000" stroke-linejoin="round" stroke-miterlimit="10" stroke-width="3.98854" transform="matrix(.1 0 0 -.1 0 847.48)"/><path d="m136.585938 641.738281v3.667969l55.875 1.722656v-3.664062zm0 0"/><path d="m2100.234375 1376.792187h50.9375v3.085938h-50.9375zm0 0" fill="none" stroke="#000" stroke-linejoin="round" stroke-miterlimit="10" stroke-width="4.94546" transform="matrix(.1 0 0 -.1 0 847.48)"/><path d="m210.023438 709.800781h5.09375v-.308593h-5.09375zm0 0"/><path d="m3695.703125 2057.417187v-36.679687l558.75-17.226563v36.640625zm0 0" fill="none" stroke="#000" stroke-linejoin="round" stroke-miterlimit="10" stroke-width="3.98854" transform="matrix(.1 0 0 -.1 0 847.48)"/><path d="m369.570312 641.738281v3.667969l55.875 1.722656v-3.664062zm0 0"/><path d="m4482.382812 1376.792187h50.9375v3.085938h-50.9375zm0 0" fill="none" stroke="#000" stroke-linejoin="round" stroke-miterlimit="10" stroke-width="4.94546" transform="matrix(.1 0 0 -.1 0 847.48)"/><path d="m448.238281 709.800781h5.09375v-.308593h-5.09375zm0 0"/><path d="m4977.265625 1376.792187h50.9375v3.085938h-50.9375zm0 0" fill="none" stroke="#000" stroke-linejoin="round" stroke-miterlimit="10" stroke-width="4.94546" transform="matrix(.1 0 0 -.1 0 847.48)"/><path d="m497.726562 709.800781h5.09375v-.308593h-5.09375zm0 0"/><path d="m5415.351562 1676.675h4.0625v275.742187h-4.0625zm0 0" fill="none" stroke="#000" stroke-linejoin="round" stroke-miterlimit="10" stroke-width="3.98854" transform="matrix(.1 0 0 -.1 0 847.48)"/><path d="m541.535156 679.8125h.40625v-27.574219h-.40625zm0 0"/><use x="514.075" xlink:href="#ag" y="715.553"/><use x="519.857786" xlink:href="#ah" y="715.553"/><use x="531.423017" xlink:href="#Y" y="715.553"/><use x="542.987858" xlink:href="#aa" y="715.553"/><use x="553.362482" xlink:href="#Z" y="715.553"/><use x="531.0816" xlink:href="#aN" y="681.68"/><use x="37.2916" xlink:href="#aP" y="668.9777"/><use x="298.0946" xlink:href="#aN" y="673.21168"/><path d="m654.375 1532.964062h4.023438v275.742188h-4.023438zm0 0" fill="none" stroke="#000" stroke-linejoin="round" stroke-miterlimit="10" stroke-width="3.98854" transform="matrix(.1 0 0 -.1 0 847.48)"/><path d="m65.4375 694.183594h.402344v-27.574219h-.402344zm0 0"/><use x="61.4973" xlink:href="#aI" y="715.553"/><use x="75.443771" xlink:href="#ad" y="715.553"/><use x="65.23675" xlink:href="#aN" y="664.7436"/><use x="6.77465" xlink:href="#aO" y="677.4459"/><use x="237.072771" xlink:href="#aN" y="677.4459"/><use x="226.44465" xlink:href="#ad" y="715.5529"/><use x="231.037221" xlink:href="#X" y="715.5529"/><use x="242.602061" xlink:href="#aa" y="715.5529"/><use x="252.976661" xlink:href="#Z" y="715.5529"/><path d="m1920.546875 1761.323437h4.0625v258.632813h-4.0625zm0 0" fill="none" stroke="#000" stroke-linejoin="round" stroke-miterlimit="10" stroke-width="3.98854" transform="matrix(.1 0 0 -.1 0 847.48)"/><path d="m192.054688 671.347656h.40625v-25.863281h-.40625zm0 0"/><use x="175.565" xlink:href="#aJ" y="715.553"/><use x="187.130231" xlink:href="#ab" y="715.553"/><use x="181.60133" xlink:href="#aN" y="673.2116"/><path d="m2475.273438 1719.01875h4.0625v275.742187h-4.0625zm0 0" fill="none" stroke="#000" stroke-linejoin="round" stroke-miterlimit="10" stroke-width="3.98854" transform="matrix(.1 0 0 -.1 0 847.48)"/><path d="m247.527344 675.578125h.40625v-27.574219h-.40625zm0 0"/><path d="m1365.859375 1803.667187h4.023437v233.28125h-4.023437zm0 0" fill="none" stroke="#000" stroke-linejoin="round" stroke-miterlimit="10" stroke-width="3.98854" transform="matrix(.1 0 0 -.1 0 847.48)"/><path d="m136.585938 667.113281h.402343v-23.328125h-.402343zm0 0"/><use x="114.142" xlink:href="#ao" y="715.553"/><use x="125.707231" xlink:href="#aH" y="715.553"/><use x="137.101759" xlink:href="#ag" y="715.553"/><use x="143.394726" xlink:href="#ag" y="715.553"/><use x="126.1315" xlink:href="#aN" y="668.9776"/><g clip-path="url(#Q)"><path d="m3.085938 599.4875h5946.601562" style="fill:none;stroke-width:6.17335;stroke-linecap:round;stroke-linejoin:round;stroke:#000;stroke-miterlimit:10" transform="matrix(.1 0 0 -.1 0 847.48)"/></g><g clip-path="url(#R)"><path d="m3.085938 684.175h5946.601562" style="fill:none;stroke-width:6.17335;stroke-linecap:round;stroke-linejoin:round;stroke:#000;stroke-miterlimit:10" transform="matrix(.1 0 0 -.1 0 847.48)"/></g><g clip-path="url(#S)"><path d="m3.085938 768.823437h5946.601562" style="fill:none;stroke-width:6.17335;stroke-linecap:round;stroke-linejoin:round;stroke:#000;stroke-miterlimit:10" transform="matrix(.1 0 0 -.1 0 847.48)"/></g><g clip-path="url(#T)"><path d="m3.085938 853.510937h5946.601562" style="fill:none;stroke-width:6.17335;stroke-linecap:round;stroke-linejoin:round;stroke:#000;stroke-miterlimit:10" transform="matrix(.1 0 0 -.1 0 847.48)"/></g><g clip-path="url(#U)"><path d="m3.085938 938.198437h5946.601562" style="fill:none;stroke-width:6.17335;stroke-linecap:round;stroke-linejoin:round;stroke:#000;stroke-miterlimit:10" transform="matrix(.1 0 0 -.1 0 847.48)"/></g><g clip-path="url(#V)"><path d="m5934.21875 599.4875v338.710937" fill="none" stroke="#000" stroke-linejoin="round" stroke-miterlimit="10" stroke-width="37.057" transform="matrix(.1 0 0 -.1 0 847.48)"/></g><path d="m5891.289062 599.4875v338.710937" fill="none" stroke="#000" stroke-linejoin="round" stroke-miterlimit="10" stroke-width="11.737" transform="matrix(.1 0 0 -.1 0 847.48)"/><use x="472.614" xlink:href="#ag" y="817.2562"/><use x="478.396786" xlink:href="#ah" y="817.2562"/><use x="489.962017" xlink:href="#Y" y="817.2562"/><use x="501.526858" xlink:href="#aa" y="817.2562"/><use x="511.901482" xlink:href="#aK" y="817.2562"/><use x="489.3406" xlink:href="#aR" y="783.2988"/><path d="m4116.71875 702.807812h4.023438v275.742188h-4.023438zm0 0" fill="none" stroke="#000" stroke-linejoin="round" stroke-miterlimit="10" stroke-width="3.98854" transform="matrix(.1 0 0 -.1 0 847.48)"/><path d="m411.667969 777.199219h.40625v-27.574219h-.40625zm0 0"/><use x="398.24" xlink:href="#ag" y="817.2562"/><use x="403.682576" xlink:href="#X" y="817.2562"/><use x="401.215" xlink:href="#aN" y="779.0644"/><path d="m3321.09375 745.151562h4.023438v258.59375h-4.023438zm0 0" fill="none" stroke="#000" stroke-linejoin="round" stroke-miterlimit="10" stroke-width="3.98854" transform="matrix(.1 0 0 -.1 0 847.48)"/><path d="m332.105469 772.964844h.40625v-25.859375h-.40625zm0 0"/><use x="316.297" xlink:href="#ad" y="817.2562"/><use x="320.889571" xlink:href="#X" y="817.2562"/><use x="332.28449" xlink:href="#ag" y="817.2562"/><use x="321.65325" xlink:href="#aN" y="774.8304"/><path d="m2525.46875 1041.20625v-36.640625l799.648438-17.226563v36.640625zm0 0" fill="none" stroke="#000" stroke-linejoin="round" stroke-miterlimit="10" stroke-width="3.98854" transform="matrix(.1 0 0 -.1 0 847.48)"/><path d="m252.546875 743.359375v3.664063l79.964844 1.722656v-3.664063zm0 0"/><path d="m2874.492188 359.760937h50.9375v3.085938h-50.9375zm0 0" fill="none" stroke="#000" stroke-linejoin="round" stroke-miterlimit="10" stroke-width="4.94546" transform="matrix(.1 0 0 -.1 0 847.48)"/><path d="m287.449219 811.503906h5.09375v-.308594h-5.09375zm0 0"/><path d="m3656.054688 359.760937h50.9375v3.085938h-50.9375zm0 0" fill="none" stroke="#000" stroke-linejoin="round" stroke-miterlimit="10" stroke-width="4.94546" transform="matrix(.1 0 0 -.1 0 847.48)"/><path d="m365.605469 811.503906h5.09375v-.308594h-5.09375zm0 0"/><path d="m4413.828125 359.760937h50.976563v3.085938h-50.976563zm0 0" fill="none" stroke="#000" stroke-linejoin="round" stroke-miterlimit="10" stroke-width="4.94546" transform="matrix(.1 0 0 -.1 0 847.48)"/><path d="m441.382812 811.503906h5.09375v-.308594h-5.09375zm0 0"/><path d="m5003.554688 666.51875h4.023437v269.6875h-4.023437zm0 0" fill="none" stroke="#000" stroke-linejoin="round" stroke-miterlimit="10" stroke-width="3.98854" transform="matrix(.1 0 0 -.1 0 847.48)"/><path d="m500.355469 780.828125h.402343v-26.96875h-.402343zm0 0"/><use x="65.2367" xlink:href="#aN" y="774.8304"/><use x="37.2918" xlink:href="#aP" y="770.59602"/><use x="6.7746" xlink:href="#aO" y="779.06438"/><path d="m2525.46875 787.495312h4.023438v233.320313h-4.023438zm0 0" fill="none" stroke="#000" stroke-linejoin="round" stroke-miterlimit="10" stroke-width="3.98854" transform="matrix(.1 0 0 -.1 0 847.48)"/><path d="m252.546875 768.730469h.402344v-23.332031h-.402344zm0 0"/><use x="151.546" xlink:href="#az" y="817.2562"/><use x="156.13818" xlink:href="#aF" y="817.2562"/><use x="231.547905" xlink:href="#an" y="817.2562"/><use x="241.922505" xlink:href="#af" y="817.2562"/><use x="252.127574" xlink:href="#ah" y="817.2562"/><use x="242.0917" xlink:href="#aN" y="770.596"/><path d="m1542.96875 516.792187h4.023438v275.742188h-4.023438zm0 0" fill="none" stroke="#000" stroke-linejoin="round" stroke-miterlimit="10" stroke-width="3.98854" transform="matrix(.1 0 0 -.1 0 847.48)"/><path d="m154.296875 795.800781h.402344v-27.574219h-.402344zm0 0"/><use x="49.3359" xlink:href="#ae" y="817.2562"/><use x="63.282371" xlink:href="#aL" y="817.2562"/><use x="69.065182" xlink:href="#aB" y="817.2562"/><use x="80.630407" xlink:href="#az" y="817.2562"/><use x="85.222593" xlink:href="#aM" y="817.2562"/><use x="154.0959" xlink:href="#aN" y="766.3621"/><path d="m756.914062 745.151562h4.023438v275.742188h-4.023438zm0 0" fill="none" stroke="#000" stroke-linejoin="round" stroke-miterlimit="10" stroke-width="3.98854" transform="matrix(.1 0 0 -.1 0 847.48)"/><path d="m75.691406 772.964844h.402344v-27.574219h-.402344zm0 0"/></svg>