<svg height="820.79em" viewBox="0 0 595.28 820.79" width="595.28em" xmlns="http://www.w3.org/2000/svg" xmlns:xlink="http://www.w3.org/1999/xlink"><clipPath id="a"><path d="m0 73h595.28125v2h-595.28125zm0 0"/></clipPath><clipPath id="b"><path d="m0 62h595.28125v2h-595.28125zm0 0"/></clipPath><clipPath id="c"><path d="m0 52h595.28125v1h-595.28125zm0 0"/></clipPath><clipPath id="d"><path d="m0 41h595.28125v1h-595.28125zm0 0"/></clipPath><clipPath id="e"><path d="m0 30h595.28125v1h-595.28125zm0 0"/></clipPath><clipPath id="f"><path d="m593 29h2.28125v46h-2.28125zm0 0"/></clipPath><clipPath id="g"><path d="m0 213h595.28125v2h-595.28125zm0 0"/></clipPath><clipPath id="h"><path d="m0 202h595.28125v2h-595.28125zm0 0"/></clipPath><clipPath id="i"><path d="m0 191h595.28125v2h-595.28125zm0 0"/></clipPath><clipPath id="j"><path d="m0 180h595.28125v2h-595.28125zm0 0"/></clipPath><clipPath id="k"><path d="m0 169h595.28125v2h-595.28125zm0 0"/></clipPath><clipPath id="l"><path d="m593 169h2.28125v46h-2.28125zm0 0"/></clipPath><clipPath id="m"><path d="m0 344h595.28125v2h-595.28125zm0 0"/></clipPath><clipPath id="n"><path d="m0 333h595.28125v2h-595.28125zm0 0"/></clipPath><clipPath id="o"><path d="m0 323h595.28125v1h-595.28125zm0 0"/></clipPath><clipPath id="p"><path d="m0 312h595.28125v1h-595.28125zm0 0"/></clipPath><clipPath id="q"><path d="m0 301h595.28125v1h-595.28125zm0 0"/></clipPath><clipPath id="r"><path d="m591 299h4.28125v49h-4.28125zm0 0"/></clipPath><clipPath id="s"><path d="m0 477h595.28125v2h-595.28125zm0 0"/></clipPath><clipPath id="t"><path d="m0 466h595.28125v2h-595.28125zm0 0"/></clipPath><clipPath id="u"><path d="m0 455h595.28125v2h-595.28125zm0 0"/></clipPath><clipPath id="v"><path d="m0 444h595.28125v2h-595.28125zm0 0"/></clipPath><clipPath id="w"><path d="m0 433h595.28125v2h-595.28125zm0 0"/></clipPath><clipPath id="x"><path d="m593 433h2.28125v46h-2.28125zm0 0"/></clipPath><clipPath id="y"><path d="m0 608h595.28125v2h-595.28125zm0 0"/></clipPath><clipPath id="z"><path d="m0 597h595.28125v2h-595.28125zm0 0"/></clipPath><clipPath id="A"><path d="m0 587h595.28125v1h-595.28125zm0 0"/></clipPath><clipPath id="B"><path d="m0 576h595.28125v1h-595.28125zm0 0"/></clipPath><clipPath id="C"><path d="m0 565h595.28125v1h-595.28125zm0 0"/></clipPath><clipPath id="D"><path d="m593 564h2.28125v46h-2.28125zm0 0"/></clipPath><clipPath id="E"><path d="m0 740h595.28125v2h-595.28125zm0 0"/></clipPath><clipPath id="F"><path d="m0 729h595.28125v2h-595.28125zm0 0"/></clipPath><clipPath id="G"><path d="m0 718h595.28125v2h-595.28125zm0 0"/></clipPath><clipPath id="H"><path d="m0 707h595.28125v2h-595.28125zm0 0"/></clipPath><clipPath id="I"><path d="m0 696h595.28125v2h-595.28125zm0 0"/></clipPath><clipPath id="J"><path d="m591 694h4.28125v49h-4.28125zm0 0"/></clipPath><symbol id="K" overflow="visible"><path d="m10.9375-14.1875v2.0625c-1.140625-1.703125-2.390625-2.46875-4.171875-2.46875-3.4375 0-5.8125 3.203125-5.8125 7.75 0 2.375.5625 4.109375 1.78125 5.546875 1.046875 1.25 2.40625 1.921875 3.875 1.921875 1.703125 0 2.921875-.765625 4.109375-2.546875v.734375c0 3.78125-1.0625 5.1875-3.875 5.1875-1.921875 0-2.921875-.75-3.140625-2.375h-2.296875c.21875 2.625 2.296875 4.28125 5.390625 4.28125 2.078125 0 3.8125-.6875 4.734375-1.8125 1.078125-1.328125 1.484375-3.09375 1.484375-6.421875v-11.859375zm-3.953125 1.6875c2.375 0 3.734375 2 3.734375 5.59375 0 3.4375-1.375 5.4375-3.734375 5.4375-2.328125 0-3.6875-2.015625-3.6875-5.515625 0-3.46875 1.359375-5.515625 3.6875-5.515625zm0 0"/></symbol><symbol id="L" overflow="visible"><path d="m7.359375-14.59375c-4 0-6.390625 2.84375-6.390625 7.609375 0 4.796875 2.390625 7.609375 6.421875 7.609375 4 0 6.40625-2.84375 6.40625-7.5 0-4.921875-2.328125-7.71875-6.4375-7.71875zm.03125 2.09375c2.546875 0 4.0625 2.078125 4.0625 5.59375 0 3.359375-1.578125 5.4375-4.0625 5.4375-2.515625 0-4.0625-2.078125-4.0625-5.515625s1.546875-5.515625 4.0625-5.515625zm0 0"/></symbol><symbol id="M" overflow="visible"><path d="m1.890625-14.1875v14.1875h2.28125v-8.90625c0-2.046875 1.484375-3.703125 3.328125-3.703125 1.671875 0 2.625 1.03125 2.625 2.84375v9.765625h2.265625v-8.90625c0-2.046875 1.5-3.703125 3.328125-3.703125 1.65625 0 2.625 1.046875 2.625 2.84375v9.765625h2.28125v-10.640625c0-2.53125-1.46875-3.953125-4.109375-3.953125-1.90625 0-3.03125.578125-4.359375 2.171875-.84375-1.515625-1.984375-2.171875-3.828125-2.171875-1.890625 0-3.15625.703125-4.34375 2.421875v-2.015625zm0 0"/></symbol><symbol id="N" overflow="visible"><path d="m5.625-19.734375h-2.25v9.15625l.609375 6.03125h1.046875l.59375-6.03125zm0 16.921875h-2.265625v2.8125h2.265625zm0 0"/></symbol><symbol id="O" overflow="visible"><path d="m4.109375-19.734375h-2.265625v19.734375h2.265625zm0 0"/></symbol><symbol id="P" overflow="visible"><path d="m13.890625-6.328125c0-2.171875-.171875-3.46875-.578125-4.53125-.921875-2.3125-3.078125-3.734375-5.734375-3.734375-3.953125 0-6.5 3.015625-6.5 7.6875 0 4.6875 2.4375 7.53125 6.4375 7.53125 3.25 0 5.5-1.84375 6.0625-4.921875h-2.265625c-.625 1.859375-1.890625 2.828125-3.703125 2.828125-1.4375 0-2.65625-.640625-3.421875-1.828125-.53125-.8125-.71875-1.625-.75-3.03125zm-10.40625-1.84375c.203125-2.625 1.796875-4.328125 4.0625-4.328125 2.296875 0 3.90625 1.78125 3.90625 4.328125zm4.84375-11.859375-2.59375 4.015625h1.625l4.03125-4.015625zm0 0"/></symbol><symbol id="Q" overflow="visible"><path d="m11.859375-10.234375c-.03125-2.78125-1.875-4.359375-5.140625-4.359375-3.3125 0-5.453125 1.71875-5.453125 4.34375 0 2.21875 1.140625 3.265625 4.5 4.078125l2.109375.515625c1.5625.375 2.1875.953125 2.1875 1.953125 0 1.34375-1.328125 2.234375-3.296875 2.234375-1.21875 0-2.25-.34375-2.8125-.9375-.359375-.40625-.515625-.8125-.65625-1.8125h-2.375c.109375 3.265625 1.953125 4.84375 5.65625 4.84375 3.5625 0 5.84375-1.765625 5.84375-4.5 0-2.109375-1.1875-3.265625-4-3.953125l-2.171875-.5c-1.84375-.4375-2.625-1.03125-2.625-2.03125 0-1.328125 1.171875-2.140625 3-2.140625 1.8125 0 2.796875.78125 2.84375 2.265625zm0 0"/></symbol><symbol id="R" overflow="visible"><path d="m14.484375-1.328125c-.25.0625-.359375.0625-.5.0625-.78125 0-1.203125-.40625-1.203125-1.109375v-8.34375c0-2.515625-1.84375-3.875-5.34375-3.875-2.078125 0-3.734375.609375-4.703125 1.65625-.65625.734375-.921875 1.546875-.96875 2.953125h2.265625c.1875-1.734375 1.21875-2.515625 3.328125-2.515625 2.0625 0 3.171875.75 3.171875 2.109375v.59375c-.03125.96875-.515625 1.328125-2.359375 1.5625-3.1875.40625-3.671875.515625-4.546875.875-1.65625.703125-2.484375 1.953125-2.484375 3.78125 0 2.578125 1.78125 4.203125 4.65625 4.203125 1.78125 0 3.21875-.625 4.8125-2.09375.15625 1.46875.859375 2.09375 2.328125 2.09375.484375 0 .78125-.0625 1.546875-.25zm-3.953125-3.140625c0 .765625-.21875 1.21875-.890625 1.84375-.921875.84375-2.03125 1.265625-3.359375 1.265625-1.765625 0-2.796875-.828125-2.796875-2.265625 0-1.484375.984375-2.25 3.421875-2.59375 2.40625-.328125 2.859375-.4375 3.625-.796875zm-2.296875-15.5625-2.625 4.015625h1.609375l4.046875-4.015625zm0 0"/></symbol><symbol id="S" overflow="visible"><path d="m6.875-14.1875h-2.328125v-3.890625h-2.25v3.890625h-1.921875v1.84375h1.921875v10.71875c0 1.46875.984375 2.25 2.734375 2.25.59375 0 1.078125-.0625 1.84375-.1875v-1.90625c-.328125.09375-.625.109375-1.078125.109375-.984375 0-1.25-.265625-1.25-1.265625v-9.71875h2.328125zm0 0"/></symbol><symbol id="T" overflow="visible"><path d="m13.890625-6.328125c0-2.171875-.171875-3.46875-.578125-4.53125-.921875-2.3125-3.078125-3.734375-5.734375-3.734375-3.953125 0-6.5 3.015625-6.5 7.6875 0 4.6875 2.4375 7.53125 6.4375 7.53125 3.25 0 5.5-1.84375 6.0625-4.921875h-2.265625c-.625 1.859375-1.890625 2.828125-3.703125 2.828125-1.4375 0-2.65625-.640625-3.421875-1.828125-.53125-.8125-.71875-1.625-.75-3.03125zm-10.40625-1.84375c.203125-2.625 1.796875-4.328125 4.0625-4.328125 2.296875 0 3.90625 1.78125 3.90625 4.328125zm0 0"/></symbol><symbol id="U" overflow="visible"><path d="m13.390625-19.734375h-2.234375v7.34375c-.953125-1.4375-2.46875-2.203125-4.359375-2.203125-3.6875 0-6.09375 2.953125-6.09375 7.46875 0 4.796875 2.328125 7.75 6.171875 7.75 1.953125 0 3.296875-.734375 4.515625-2.5v1.875h2zm-6.21875 7.265625c2.4375 0 3.984375 2.125 3.984375 5.546875 0 3.265625-1.578125 5.4375-3.953125 5.4375-2.5 0-4.140625-2.203125-4.140625-5.5s1.640625-5.484375 4.109375-5.484375zm0 0"/></symbol><symbol id="V" overflow="visible"><path d="m1.890625-14.1875v14.1875h2.28125v-7.828125c0-2.890625 1.515625-4.78125 3.84375-4.78125 1.78125 0 2.921875 1.078125 2.921875 2.78125v9.828125h2.234375v-10.71875c0-2.359375-1.75-3.875-4.484375-3.875-2.109375 0-3.46875.8125-4.703125 2.796875v-2.390625zm0 0"/></symbol><symbol id="W" overflow="visible"><path d="m12.828125-5.921875 2.03125 5.921875h2.8125l-6.921875-19.734375h-3.25l-7.046875 19.734375h2.6875l2.078125-5.921875zm-.703125-2.109375h-6.28125l3.25-8.984375zm0 0"/></symbol><symbol id="X" overflow="visible"><path d="m9.015625-19.734375v13.890625c0 1.5625-.171875 2.46875-.625 3.140625-.484375.75-1.40625 1.21875-2.40625 1.21875-1.890625 0-2.953125-1.28125-2.953125-3.578125v-1.265625h-2.578125v1.734375c0 3.1875 2.125 5.21875 5.5 5.21875 3.4375 0 5.578125-2.140625 5.578125-5.546875v-14.8125zm0 0"/></symbol><symbol id="Y" overflow="visible"><path d="m1.890625-14.1875v16.25c0 1.40625-.421875 1.859375-1.84375 1.859375-.15625 0-.234375 0-.53125-.03125v1.921875c.265625.0625.40625.09375.75.09375 2.546875 0 3.875-1.015625 3.875-2.953125v-17.140625zm2.25-5.546875h-2.25v2.84375h2.25zm0 0"/></symbol><symbol id="Z" overflow="visible"><path d="m7.71875 0 5.4375-14.1875h-2.546875l-4 11.515625-3.796875-11.515625h-2.546875l4.984375 14.1875zm0 0"/></symbol><symbol id="aa" overflow="visible"><path d="m4.0625-14.1875h-2.25v14.1875h2.25zm0-5.546875h-2.28125v2.84375h2.28125zm0 0"/></symbol><symbol id="ab" overflow="visible"><path d="m11.984375-14.1875h-10.578125v1.984375h7.90625l-8.46875 10.171875v2.03125h11.53125v-1.96875h-8.796875l8.40625-10.203125zm0 0"/></symbol><symbol id="ac" overflow="visible"><path d="m13.046875 0v-14.1875h-2.25v8.046875c0 2.890625-1.515625 4.78125-3.875 4.78125-1.78125 0-2.921875-1.078125-2.921875-2.78125v-10.046875h-2.234375v10.9375c0 2.359375 1.75 3.875 4.515625 3.875 2.078125 0 3.40625-.734375 4.734375-2.59375v1.96875zm0 0"/></symbol><symbol id="ad" overflow="visible"><path d="m2.359375-2.8125v2.8125h1.625v.484375c0 1.875-.359375 2.40625-1.625 2.46875v1.03125c1.78125.046875 2.84375-1.25 2.84375-3.546875v-3.25zm0 0"/></symbol><symbol id="ae" overflow="visible"><path d="m14.484375-1.328125c-.25.0625-.359375.0625-.5.0625-.78125 0-1.203125-.40625-1.203125-1.109375v-8.34375c0-2.515625-1.84375-3.875-5.34375-3.875-2.078125 0-3.734375.609375-4.703125 1.65625-.65625.734375-.921875 1.546875-.96875 2.953125h2.265625c.1875-1.734375 1.21875-2.515625 3.328125-2.515625 2.0625 0 3.171875.75 3.171875 2.109375v.59375c-.03125.96875-.515625 1.328125-2.359375 1.5625-3.1875.40625-3.671875.515625-4.546875.875-1.65625.703125-2.484375 1.953125-2.484375 3.78125 0 2.578125 1.78125 4.203125 4.65625 4.203125 1.78125 0 3.21875-.625 4.8125-2.09375.15625 1.46875.859375 2.09375 2.328125 2.09375.484375 0 .78125-.0625 1.546875-.25zm-3.953125-3.140625c0 .765625-.21875 1.21875-.890625 1.84375-.921875.84375-2.03125 1.265625-3.359375 1.265625-1.765625 0-2.796875-.828125-2.796875-2.265625 0-1.484375.984375-2.25 3.421875-2.59375 2.40625-.328125 2.859375-.4375 3.625-.796875zm0 0"/></symbol><symbol id="af" overflow="visible"><path d="m1.875-14.1875v14.1875h2.265625v-7.359375c.03125-3.40625 1.4375-4.921875 4.546875-4.84375v-2.296875c-.375-.0625-.59375-.09375-.859375-.09375-1.46875 0-2.578125.875-3.875 2.984375v-2.578125zm0 0"/></symbol><symbol id="ag" overflow="visible"><path d="m4.796875-14.1875h-2.25v14.1875h2.25zm-.4375-5.84375-2.59375 4.015625h1.609375l4.046875-4.015625zm0 0"/></symbol><symbol id="ah" overflow="visible"><path d="m4.953125-8.984375h10.75v-2.21875h-10.75v-6.3125h11.15625v-2.21875h-13.671875v19.734375h14.15625v-2.21875h-11.640625zm0 0"/></symbol><symbol id="ai" overflow="visible"><path d="m12.671875 0 5.546875-16.53125v16.53125h2.375v-19.734375h-3.484375l-5.75 17.1875-5.84375-17.1875h-3.484375v19.734375h2.375v-16.53125l5.609375 16.53125zm0 0"/></symbol><symbol id="aj" overflow="visible"><path d="m3.8125-19.734375h-2.25v19.734375h2.25v-5.515625l2.203125-2.171875 4.78125 7.6875h2.78125l-5.78125-9.28125 4.921875-4.90625h-2.890625l-6.015625 6.015625zm0 0"/></symbol><symbol id="ak" overflow="visible"><path d="m5.171875-2.8125h-2.8125v2.8125h2.8125zm0 0"/></symbol><symbol id="al" overflow="visible"><path d="m12.828125-5.921875 2.03125 5.921875h2.8125l-6.921875-19.734375h-3.25l-7.046875 19.734375h2.6875l2.078125-5.921875zm-.703125-2.109375h-6.28125l3.25-8.984375zm-2.109375-17.375-2.59375 4h1.609375l4.046875-4zm0 0"/></symbol><symbol id="am" overflow="visible"><path d="m7.359375-14.59375c-4 0-6.390625 2.84375-6.390625 7.609375 0 4.796875 2.390625 7.609375 6.421875 7.609375 4 0 6.40625-2.84375 6.40625-7.5 0-4.921875-2.328125-7.71875-6.4375-7.71875zm.03125 2.09375c2.546875 0 4.0625 2.078125 4.0625 5.59375 0 3.359375-1.578125 5.4375-4.0625 5.4375-2.515625 0-4.0625-2.078125-4.0625-5.515625s1.546875-5.515625 4.0625-5.515625zm.671875-7.53125-2.59375 4.015625h1.625l4.03125-4.015625zm0 0"/></symbol><symbol id="an" overflow="visible"><path d="m2.140625 0h8.90625c1.859375 0 3.234375-.515625 4.296875-1.65625.96875-1.015625 1.515625-2.4375 1.515625-3.96875 0-2.390625-1.078125-3.8125-3.59375-4.796875 1.8125-.84375 2.734375-2.265625 2.734375-4.296875 0-1.46875-.546875-2.703125-1.578125-3.625-1.046875-.953125-2.375-1.390625-4.28125-1.390625h-8zm2.515625-11.234375v-6.28125h4.875c1.40625 0 2.1875.203125 2.859375.703125.703125.546875 1.09375 1.359375 1.09375 2.4375 0 1.09375-.390625 1.90625-1.09375 2.4375-.671875.515625-1.453125.703125-2.859375.703125zm0 9.015625v-6.796875h6.140625c2.21875 0 3.546875 1.28125 3.546875 3.40625s-1.328125 3.390625-3.546875 3.390625zm0 0"/></symbol><symbol id="ao" overflow="visible"><path d="m4.6875-19.734375h-2.515625v19.734375h12.25v-2.21875h-9.734375zm0 0"/></symbol><symbol id="ap" overflow="visible"><path d="m10.5-14.1875-3.921875 11.046875-3.625-11.046875h-2.40625l4.78125 14.234375-.859375 2.25c-.375 1-.875 1.390625-1.8125 1.390625-.390625 0-.703125-.0625-1.1875-.171875v2.03125c.453125.25.90625.359375 1.515625.359375.71875 0 1.515625-.25 2.109375-.6875.703125-.515625 1.109375-1.109375 1.53125-2.234375l6.3125-17.171875zm0 0"/></symbol><symbol id="aq" overflow="visible"><path d="m5.796875-2.8125h-2.8125v2.8125h2.8125zm0-11.375h-2.8125v2.828125h2.8125zm0 0"/></symbol><symbol id="ar" overflow="visible"><path d="m17.484375-19.734375h-2.390625v16.140625l-10.296875-16.140625h-2.734375v19.734375h2.375v-16l10.203125 16h2.84375zm0 0"/></symbol><symbol id="as" overflow="visible"><path d="m13.046875 0v-14.1875h-2.25v8.046875c0 2.890625-1.515625 4.78125-3.875 4.78125-1.78125 0-2.921875-1.078125-2.921875-2.78125v-10.046875h-2.234375v10.9375c0 2.359375 1.75 3.875 4.515625 3.875 2.078125 0 3.40625-.734375 4.734375-2.59375v1.96875zm-6.421875-19.34375h-2.8125v2.78125h2.8125zm4.390625 0h-2.8125v2.78125h2.8125zm0 0"/></symbol><symbol id="at" overflow="visible"><path d="m7.359375-14.59375c-4 0-6.390625 2.84375-6.390625 7.609375 0 4.796875 2.390625 7.609375 6.421875 7.609375 4 0 6.40625-2.84375 6.40625-7.5 0-4.921875-2.328125-7.71875-6.4375-7.71875zm.03125 2.09375c2.546875 0 4.0625 2.078125 4.0625 5.59375 0 3.359375-1.578125 5.4375-4.0625 5.4375-2.515625 0-4.0625-2.078125-4.0625-5.515625s1.546875-5.515625 4.0625-5.515625zm-.78125-6.84375h-2.828125v2.78125h2.828125zm4.375 0h-2.8125v2.78125h2.8125zm0 0"/></symbol><symbol id="au" overflow="visible"><path d="m9.578125-17.515625h6.46875v-2.21875h-15.484375v2.21875h6.5v17.515625h2.515625zm0 0"/></symbol><symbol id="av" overflow="visible"><path d="m13.84375-2.9375c0 .4375-.125.921875-.4375 1.265625-.921875 1.109375-3.015625 2.453125-4.6875 3.515625-1.65625 1.046875-3.765625 2.453125-5.125 2.84375-.171875.046875-.390625.09375-.5625.09375-.96875 0-1.84375-.75-1.84375-1.84375 0-.4375.125-.921875.4375-1.265625.921875-1.109375 3.015625-2.453125 4.6875-3.515625 1.671875-1.046875 3.765625-2.453125 5.125-2.84375.171875-.046875.390625-.09375.578125-.09375.953125 0 1.828125.75 1.828125 1.84375zm-2.234375-2.984375c-3.28125 0-5.953125.703125-8.28125 2.28125-1.40625.96875-2.3125 2.453125-2.84375 4.078125-.265625.796875-.484375 1.671875-.484375 2.5 0 2.0625 1.484375 2.984375 3.421875 2.984375 3.28125 0 5.953125-.703125 8.28125-2.28125 1.40625-.96875 2.328125-2.453125 2.84375-4.078125.265625-.796875.484375-1.671875.484375-2.5 0-2.0625-1.484375-2.984375-3.421875-2.984375zm0 0"/></symbol><symbol id="aw" overflow="visible"><path d="m16.390625-11.390625c-.703125-3.078125-1.53125-6.09375-2.40625-9.125 4.203125-4.765625 8.015625-9.6875 8.015625-16 0-4.953125-2.71875-12.046875-5.78125-15.734375-.21875-.171875-.484375-.171875-.703125 0-4.171875 3.03125-6.578125 7.859375-6.578125 12.9375 0 2.28125.046875 4.515625.3125 6.75.296875 2.84375 1.046875 5.609375 1.84375 8.375-5.171875 5.875-11 11.484375-11 19.28125 0 8.8125 6.34375 16.296875 14.59375 16.296875 1.359375 0 2.625-.125 3.890625-.34375.140625 1.40625.21875 2.796875.21875 4.203125 0 .796875-.03125 1.53125-.078125 2.328125-.265625 4.328125-2.9375 8.328125-7.015625 8.40625-.046875 0-.09375.046875-.125.046875-2.25 0-4.171875-1.265625-5.3125-3.0625.484375.21875 1.015625.390625 1.53125.390625 2.28125 0 4.171875-1.890625 4.171875-4.15625 0-2.453125-1.796875-4.5625-4.171875-4.5625-2.578125 0-4.90625 2.015625-4.90625 4.5625 0 4.734375 3.8125 8.546875 8.546875 8.546875 5.171875 0 8.71875-4.65625 9.03125-9.90625.046875-.84375.046875-1.625.046875-2.453125 0-1.578125-.09375-3.15625-.21875-4.734375 1.140625-.359375 2.234375-.875 3.1875-1.625 3.25-2.40625 4.703125-5.78125 4.703125-9.125 0-5.78125-4.390625-11.34375-11.140625-11.34375-.21875 0-.4375.046875-.65625.046875zm3.71875 20.375c-.609375-5.4375-1.609375-10.609375-2.703125-15.734375 4.8125.390625 7.84375 4.421875 7.84375 8.453125 0 3.078125-2.109375 6.234375-5.140625 7.28125zm-17-10.34375c0-7.015625 4.734375-12.3125 9.46875-17.625.703125 2.59375 1.40625 5.171875 2.015625 7.8125-4.421875 1-6.921875 4.734375-6.921875 8.59375 0 3.0625 1.578125 6.171875 5.078125 8.0625.140625.03125.265625.078125.390625.078125.484375 0 .890625-.4375.890625-.921875 0-.21875-.140625-.4375-.3125-.609375-2.453125-1.40625-3.59375-3.5-3.59375-5.4375 0-2.578125 2.015625-4.90625 5.484375-5.296875 1.140625 5.25 2.140625 10.46875 2.796875 16.078125-1.1875.171875-2.359375.265625-3.59375.265625-5.953125 0-11.703125-5.03125-11.703125-11zm14.90625-44.65625c.75 2.3125.921875 3.453125.921875 6 0 5.5625-2.9375 10-6.53125 14.25-.796875-2.765625-1.453125-5.4375-1.453125-8.765625 0-4.875 2.71875-9.296875 7.0625-11.484375zm0 0"/></symbol><symbol id="ax" overflow="visible"><path d="m9.421875 13.84375v-7.140625l2.15625-.75c.25-.078125.46875-.34375.46875-.65625v-2.84375c0-.484375-.46875-.828125-.921875-.65625l-1.703125.609375v-7.1875l2.15625-.78125c.25-.09375.46875-.359375.46875-.65625v-2.8125c0-.484375-.46875-.828125-.921875-.65625l-1.703125.578125v-6.578125c0-.390625-.34375-.75-.75-.75-.390625 0-.734375.359375-.734375.75v7.09375l-3.8125 1.359375v-6.609375c0-.40625-.359375-.75-.75-.75s-.75.34375-.75.75v7.140625l-2.140625.75c-.265625.078125-.484375.34375-.484375.65625v2.84375c0 .484375.484375.828125.921875.65625l1.703125-.609375v7.1875l-2.140625.78125c-.265625.09375-.484375.359375-.484375.65625v2.8125c0 .484375.484375.828125.921875.65625l1.703125-.578125v6.578125c0 .390625.359375.75.75.75s.75-.359375.75-.75v-7.09375l3.8125-1.359375v6.609375c0 .40625.34375.75.734375.75.40625 0 .75-.34375.75-.75zm-5.296875-16.78125 3.8125-1.3125v7.1875l-3.8125 1.3125zm0 0"/></symbol><symbol id="ay" overflow="visible"><path d="m9.734375-5.921875c-1.84375 0-3.59375.625-5.171875 1.578125-2.0625 1.234375-4.5625 3.375-4.5625 6.484375 0 2.59375 2.28125 3.78125 4.609375 3.78125 1.828125 0 3.59375-.625 5.171875-1.578125 2.046875-1.234375 4.5-3.375 4.5-6.484375 0-2.59375-2.234375-3.78125-4.546875-3.78125zm0 0"/></symbol><symbol id="az" overflow="visible"><path d="m0 0c0 1.40625 1.09375 2.5 2.5 2.5s2.5-1.09375 2.5-2.5-1.09375-2.5-2.5-2.5-2.5 1.09375-2.5 2.5zm0 0"/></symbol><symbol id="aA" overflow="visible"><path d="m16.078125 0c.1875 0 .359375-.171875.359375-.34375v-6.140625c0-.171875-.171875-.359375-.359375-.359375h-15.734375c-.171875 0-.34375.1875-.34375.359375v6.140625c0 .171875.171875.34375.34375.34375zm0 0"/></symbol><symbol id="aB" overflow="visible"><path d="m-2.765625-2.0625c0 1.53125 1.234375 2.765625 2.765625 2.765625s2.765625-1.234375 2.765625-2.765625-1.234375-2.765625-2.765625-2.765625-2.765625 1.234375-2.765625 2.765625zm2.765625-13.71875c-6.796875 0-14.421875 7.578125-14.421875 15.875 0 .34375.359375.609375.703125.609375.3125 0 .65625-.21875.75-.703125 1.140625-6.53125 6.4375-11.609375 12.96875-11.609375s11.828125 5.078125 12.96875 11.609375c.09375.484375.4375.703125.75.703125.34375 0 .703125-.265625.703125-.609375 0-8.296875-7.578125-15.875-14.421875-15.875zm0 0"/></symbol><symbol id="aC" overflow="visible"><path d="m5.734375-11.796875v11.796875h3.375v-17.09375h-2.234375c-.53125 2.03125-2.296875 3.0625-5.234375 3.0625v2.234375zm0 0"/></symbol><symbol id="aD" overflow="visible"><path d="m5.15625-3.515625h-3.609375v3.515625h3.609375zm0 0"/></symbol><symbol id="aE" overflow="visible"><path d="m9.109375-13.984375c-.25.171875-.34375.53125-.34375.875v6.453125h-7.578125l12.40625-14.59375c.25-.3125-.140625-.84375-.671875-.65625-.953125.296875-1.921875.5625-2.921875.5625-1.015625 0-1.984375-.265625-2.9375-.5625-.359375-.140625-.65625.21875-.65625.65625 0 5.46875-2.859375 10.375-6.40625 14.59375-.046875.03125-.09375.171875-.09375.25 0 .359375.359375.921875 1.28125.921875h7.578125v.703125c0 1.96875-1.140625 3.859375-2.984375 3.859375-.296875 0-.4375.21875-.4375.4375s.140625.484375.4375.484375c1.796875 0 3.59375-.5625 5.390625-.5625s3.59375.5625 5.390625.5625c.3125 0 .4375-.265625.4375-.484375s-.125-.4375-.4375-.4375c-1.84375 0-2.96875-1.890625-2.96875-3.859375v-.703125h2.96875c.40625 0 .578125-.25.578125-.5625s-.171875-.609375-.578125-.609375h-2.96875v-11.21875c0-.625-.703125-.703125-.890625-.3125-.296875.75-.609375 1.484375-1.09375 2.140625-.65625.875-1.578125 1.5-2.5 2.0625zm0 0"/></symbol><path d="m5082.734375 7355.4h207.539063" fill="none" stroke="#000" stroke-linecap="round" stroke-miterlimit="10" stroke-width="17.9945" transform="matrix(.1 0 0 -.1 0 820.79)"/><path d="m4270.273438 7355.4h207.578124" fill="none" stroke="#000" stroke-linecap="round" stroke-miterlimit="10" stroke-width="17.9945" transform="matrix(.1 0 0 -.1 0 820.79)"/><g clip-path="url(#a)"><path d="m3.515625 7465.009375h5945.742187" fill="none" stroke="#000" stroke-linecap="round" stroke-miterlimit="10" stroke-width="7.03562" transform="matrix(.1 0 0 -.1 0 820.79)"/></g><g clip-path="url(#b)"><path d="m3.515625 7574.579688h5945.742187" fill="none" stroke="#000" stroke-linecap="round" stroke-miterlimit="10" stroke-width="7.03562" transform="matrix(.1 0 0 -.1 0 820.79)"/></g><g clip-path="url(#c)"><path d="m3.515625 7684.15h5945.742187" fill="none" stroke="#000" stroke-linecap="round" stroke-miterlimit="10" stroke-width="7.03562" transform="matrix(.1 0 0 -.1 0 820.79)"/></g><g clip-path="url(#d)"><path d="m3.515625 7793.759375h5945.742187" fill="none" stroke="#000" stroke-linecap="round" stroke-miterlimit="10" stroke-width="7.03562" transform="matrix(.1 0 0 -.1 0 820.79)"/></g><g clip-path="url(#e)"><path d="m3.515625 7903.329688h5945.742187" fill="none" stroke="#000" stroke-linecap="round" stroke-miterlimit="10" stroke-width="7.03562" transform="matrix(.1 0 0 -.1 0 820.79)"/></g><g clip-path="url(#f)"><path d="m5946.09375 7465.009375v438.320313" fill="none" stroke="#000" stroke-miterlimit="10" stroke-width="13.3589" transform="matrix(.1 0 0 -.1 0 820.79)"/></g><path d="m4215.351562 7465.009375v438.320313" fill="none" stroke="#000" stroke-miterlimit="10" stroke-width="13.3589" transform="matrix(.1 0 0 -.1 0 820.79)"/><use x="488.63" xlink:href="#K" y="116.703"/><use x="503.596834" xlink:href="#L" y="116.703"/><use x="518.563271" xlink:href="#M" y="116.703"/><use x="541.183592" xlink:href="#N" y="116.703"/><use x="511.1308" xlink:href="#av" y="90.7296"/><path d="m4442.109375 7386.80625h5.117187v350.15625h-5.117187zm0 0" fill="none" stroke="#000" stroke-linejoin="round" stroke-miterlimit="10" stroke-width="3.98904" transform="matrix(.1 0 0 -.1 0 820.79)"/><path d="m444.210938 82.109375h.511718v-35.015625h-.511718zm0 0"/><use x="426.947" xlink:href="#O" y="147.388"/><use x="432.899721" xlink:href="#P" y="147.388"/><use x="423.12005" xlink:href="#Q" y="116.7028"/><use x="436.726718" xlink:href="#R" y="116.7028"/><use x="429.88841" xlink:href="#av" y="85.2497"/><path d="m1586.40625 7114.892188h66.71875v3.554687h-66.71875zm0 0" fill="none" stroke="#000" stroke-linejoin="round" stroke-miterlimit="10" stroke-width="5.62192" transform="matrix(.1 0 0 -.1 0 820.79)"/><path d="m158.640625 109.300781h6.667969v-.351562h-6.667969zm0 0"/><path d="m3055.390625 7114.892188h66.71875v3.554687h-66.71875zm0 0" fill="none" stroke="#000" stroke-linejoin="round" stroke-miterlimit="10" stroke-width="5.62192" transform="matrix(.1 0 0 -.1 0 820.79)"/><path d="m305.539062 109.300781h6.671876v-.351562h-6.671876zm0 0"/><path d="m3077.5 6808.05625h66.71875v3.515625h-66.71875zm0 0" fill="none" stroke="#000" stroke-linejoin="round" stroke-miterlimit="10" stroke-width="5.62192" transform="matrix(.1 0 0 -.1 0 820.79)"/><path d="m307.75 139.984375h6.671875v-.351563h-6.671875zm0 0"/><path d="m3949.53125 7114.892188h66.71875v3.554687h-66.71875zm0 0" fill="none" stroke="#000" stroke-linejoin="round" stroke-miterlimit="10" stroke-width="5.62192" transform="matrix(.1 0 0 -.1 0 820.79)"/><path d="m394.953125 109.300781h6.671875v-.351562h-6.671875zm0 0"/><path d="m3949.960938 6808.05625h66.71875v3.515625h-66.71875zm0 0" fill="none" stroke="#000" stroke-linejoin="round" stroke-miterlimit="10" stroke-width="5.62192" transform="matrix(.1 0 0 -.1 0 820.79)"/><path d="m394.996094 139.984375h6.671875v-.351563h-6.671875zm0 0"/><path d="m4668.242188 7114.892188h66.71875v3.554687h-66.71875zm0 0" fill="none" stroke="#000" stroke-linejoin="round" stroke-miterlimit="10" stroke-width="5.62192" transform="matrix(.1 0 0 -.1 0 820.79)"/><path d="m466.824219 109.300781h6.671875v-.351562h-6.671875zm0 0"/><path d="m4706.523438 6808.05625h66.71875v3.515625h-66.71875zm0 0" fill="none" stroke="#000" stroke-linejoin="round" stroke-miterlimit="10" stroke-width="5.62192" transform="matrix(.1 0 0 -.1 0 820.79)"/><path d="m470.652344 139.984375h6.671875v-.351563h-6.671875zm0 0"/><use x="500.111" xlink:href="#S" y="147.388"/><use x="507.253958" xlink:href="#T" y="147.388"/><use x="522.220793" xlink:href="#U" y="147.388"/><path d="m3582.1875 7433.759375h5.117188v358.007813h-5.117188zm0 0" fill="none" stroke="#000" stroke-linejoin="round" stroke-miterlimit="10" stroke-width="3.98904" transform="matrix(.1 0 0 -.1 0 820.79)"/><path d="m358.21875 77.414062h.511719v-35.800781h-.511719zm0 0"/><path d="m5254.53125 7332.001563h5.15625v350.15625h-5.15625zm0 0" fill="none" stroke="#000" stroke-linejoin="round" stroke-miterlimit="10" stroke-width="3.98904" transform="matrix(.1 0 0 -.1 0 820.79)"/><path d="m525.453125 87.589844h.515625v-35.015625h-.515625zm0 0"/><use x="8.76719" xlink:href="#aw" y="63.333"/><use x="333.83319" xlink:href="#O" y="147.3889"/><use x="339.785936" xlink:href="#T" y="147.3889"/><use x="354.752348" xlink:href="#V" y="147.3889"/><path d="m1365.273438 7543.329688h5.15625v358.007812h-5.15625zm0 0" fill="none" stroke="#000" stroke-linejoin="round" stroke-miterlimit="10" stroke-width="3.98904" transform="matrix(.1 0 0 -.1 0 820.79)"/><path d="m136.527344 66.457031h.515625v-35.800781h-.515625zm0 0"/><use x="121.073" xlink:href="#W" y="147.388"/><use x="84.7714" xlink:href="#aC" y="116.7028"/><use x="98.208123" xlink:href="#aD" y="116.7028"/><use x="115.8003" xlink:href="#X" y="116.7028"/><use x="129.406956" xlink:href="#P" y="116.7028"/><use x="83.8355" xlink:href="#aE" y="52.3731"/><use x="83.8355" xlink:href="#aE" y="74.4661"/><use x="47.1234" xlink:href="#ax" y="30.4552"/><use x="59.1781" xlink:href="#ax" y="46.8935"/><use x="122.9316" xlink:href="#ay" y="68.8115"/><path d="m2843.203125 7488.525h5.15625v358.046875h-5.15625zm0 0" fill="none" stroke="#000" stroke-linejoin="round" stroke-miterlimit="10" stroke-width="3.98904" transform="matrix(.1 0 0 -.1 0 820.79)"/><path d="m284.320312 71.9375h.515626v-35.804688h-.515626zm0 0"/><use x="267.42" xlink:href="#Y" y="147.388"/><use x="273.372746" xlink:href="#T" y="147.388"/><use x="268.099297" xlink:href="#Z" y="116.7028"/><use x="281.70594" xlink:href="#aa" y="116.7028"/><use x="270.723907" xlink:href="#ay" y="74.2907"/><path d="m2104.257812 7543.329688h5.117188v358.007812h-5.117188zm0 0" fill="none" stroke="#000" stroke-linejoin="round" stroke-miterlimit="10" stroke-width="3.98904" transform="matrix(.1 0 0 -.1 0 820.79)"/><path d="m210.425781 66.457031h.511719v-35.800781h-.511719zm0 0"/><use x="192.928" xlink:href="#S" y="147.388"/><use x="200.070972" xlink:href="#T" y="147.388"/><use x="179.5768" xlink:href="#ab" y="116.7028"/><use x="192.672907" xlink:href="#ac" y="116.7028"/><use x="207.63932" xlink:href="#Q" y="116.7028"/><use x="220.904947" xlink:href="#ad" y="116.7028"/><use x="196.8284" xlink:href="#ay" y="68.8114"/><use x="344.6214" xlink:href="#ay" y="79.7704"/><use x="330.0909" xlink:href="#K" y="116.7028"/><use x="344.88739" xlink:href="#ae" y="116.7028"/><use x="359.854194" xlink:href="#Q" y="116.7028"/><g clip-path="url(#g)"><path d="m3.515625 6070.24375h5945.742187" style="fill:none;stroke-width:7.03562;stroke-linecap:round;stroke-linejoin:round;stroke:#000;stroke-miterlimit:10" transform="matrix(.1 0 0 -.1 0 820.79)"/></g><g clip-path="url(#h)"><path d="m3.515625 6179.853125h5945.742187" style="fill:none;stroke-width:7.03562;stroke-linecap:round;stroke-linejoin:round;stroke:#000;stroke-miterlimit:10" transform="matrix(.1 0 0 -.1 0 820.79)"/></g><g clip-path="url(#i)"><path d="m3.515625 6289.423438h5945.742187" style="fill:none;stroke-width:7.03562;stroke-linecap:round;stroke-linejoin:round;stroke:#000;stroke-miterlimit:10" transform="matrix(.1 0 0 -.1 0 820.79)"/></g><g clip-path="url(#j)"><path d="m3.515625 6399.032813h5945.742187" style="fill:none;stroke-width:7.03562;stroke-linecap:round;stroke-linejoin:round;stroke:#000;stroke-miterlimit:10" transform="matrix(.1 0 0 -.1 0 820.79)"/></g><g clip-path="url(#k)"><path d="m3.515625 6508.603125h5945.742187" style="fill:none;stroke-width:7.03562;stroke-linecap:round;stroke-linejoin:round;stroke:#000;stroke-miterlimit:10" transform="matrix(.1 0 0 -.1 0 820.79)"/></g><g clip-path="url(#l)"><path d="m5946.09375 6070.24375v438.359375" fill="none" stroke="#000" stroke-linejoin="round" stroke-miterlimit="10" stroke-width="13.3589" transform="matrix(.1 0 0 -.1 0 820.79)"/></g><path d="m4119.21875 6070.24375v438.359375" fill="none" stroke="#000" stroke-linejoin="round" stroke-miterlimit="10" stroke-width="13.3589" transform="matrix(.1 0 0 -.1 0 820.79)"/><use x="491.021" xlink:href="#af" y="242.611"/><use x="499.864779" xlink:href="#L" y="242.611"/><use x="514.831216" xlink:href="#M" y="242.611"/><path d="m3453.398438 6258.173438h5.15625v358.046875h-5.15625zm0 0" fill="none" stroke="#000" stroke-linejoin="round" stroke-miterlimit="10" stroke-width="3.98904" transform="matrix(.1 0 0 -.1 0 820.79)"/><path d="m345.339844 194.972656h.515625v-35.804687h-.515625zm0 0"/><use x="506.719" xlink:href="#av" y="197.326"/><path d="m4214.453125 5926.142188h5.15625v331.875h-5.15625zm0 0" fill="none" stroke="#000" stroke-linejoin="round" stroke-miterlimit="10" stroke-width="3.98904" transform="matrix(.1 0 0 -.1 0 820.79)"/><path d="m421.445312 228.175781h.511719v-33.1875h-.511719zm0 0"/><use x="418.302" xlink:href="#P" y="273.296"/><use x="433.268834" xlink:href="#O" y="273.296"/><use x="414.73052" xlink:href="#Z" y="242.6112"/><use x="427.826641" xlink:href="#R" y="242.6112"/><use x="421.24458" xlink:href="#av" y="191.846"/><use x="315.85258" xlink:href="#ax" y="197.32569"/><path d="m1416.445312 5855.829688h66.679688v3.515625h-66.679688zm0 0" fill="none" stroke="#000" stroke-linejoin="round" stroke-miterlimit="10" stroke-width="5.62192" transform="matrix(.1 0 0 -.1 0 820.79)"/><path d="m141.644531 235.207031h6.667969v-.351562h-6.667969zm0 0"/><path d="m1495.9375 5548.99375h66.71875v3.515625h-66.71875zm0 0" fill="none" stroke="#000" stroke-linejoin="round" stroke-miterlimit="10" stroke-width="5.62192" transform="matrix(.1 0 0 -.1 0 820.79)"/><path d="m149.59375 265.890625h6.671875v-.351563h-6.671875zm0 0"/><path d="m2180.3125 5855.829688h66.679688v3.515625h-66.679688zm0 0" fill="none" stroke="#000" stroke-linejoin="round" stroke-miterlimit="10" stroke-width="5.62192" transform="matrix(.1 0 0 -.1 0 820.79)"/><path d="m218.027344 235.207031h6.671875v-.351562h-6.671875zm0 0"/><path d="m2164.140625 5548.99375h66.71875v3.515625h-66.71875zm0 0" fill="none" stroke="#000" stroke-linejoin="round" stroke-miterlimit="10" stroke-width="5.62192" transform="matrix(.1 0 0 -.1 0 820.79)"/><path d="m216.414062 265.890625h6.671876v-.351563h-6.671876zm0 0"/><path d="m2981.992188 5855.829688h66.71875v3.515625h-66.71875zm0 0" fill="none" stroke="#000" stroke-linejoin="round" stroke-miterlimit="10" stroke-width="5.62192" transform="matrix(.1 0 0 -.1 0 820.79)"/><path d="m298.199219 235.207031h6.671875v-.351562h-6.671875zm0 0"/><path d="m2930.117188 5548.99375h66.71875v3.515625h-66.71875zm0 0" fill="none" stroke="#000" stroke-linejoin="round" stroke-miterlimit="10" stroke-width="5.62192" transform="matrix(.1 0 0 -.1 0 820.79)"/><path d="m293.011719 265.890625h6.671875v-.351563h-6.671875zm0 0"/><path d="m4635.742188 5855.829688h66.679687v3.515625h-66.679687zm0 0" fill="none" stroke="#000" stroke-linejoin="round" stroke-miterlimit="10" stroke-width="5.62192" transform="matrix(.1 0 0 -.1 0 820.79)"/><path d="m463.570312 235.207031h6.671876v-.351562h-6.671876zm0 0"/><path d="m4642.539062 5548.99375h66.679688v3.515625h-66.679688zm0 0" fill="none" stroke="#000" stroke-linejoin="round" stroke-miterlimit="10" stroke-width="5.62192" transform="matrix(.1 0 0 -.1 0 820.79)"/><path d="m464.253906 265.890625h6.667969v-.351563h-6.667969zm0 0"/><use x="495.953" xlink:href="#S" y="273.296"/><use x="503.095958" xlink:href="#T" y="273.296"/><use x="517.892864" xlink:href="#S" y="273.296"/><use x="525.035822" xlink:href="#ad" y="273.296"/><use x="490.82878" xlink:href="#ax" y="197.3257"/><path d="m5210.390625 6266.064063h5.15625v350.15625h-5.15625zm0 0" fill="none" stroke="#000" stroke-linejoin="round" stroke-miterlimit="10" stroke-width="3.98904" transform="matrix(.1 0 0 -.1 0 820.79)"/><path d="m521.039062 194.183594h.515626v-35.015625h-.515626zm0 0"/><path d="m1122.265625 6148.603125h5.15625v358.007813h-5.15625zm0 0" fill="none" stroke="#000" stroke-linejoin="round" stroke-miterlimit="10" stroke-width="3.98904" transform="matrix(.1 0 0 -.1 0 820.79)"/><path d="m112.226562 205.929688h.511719v-35.800782h-.511719zm0 0"/><use x="316.534" xlink:href="#M" y="273.296"/><use x="339.15432" xlink:href="#ag" y="273.296"/><use x="346.63832" xlink:href="#S" y="273.296"/><use x="353.781303" xlink:href="#ad" y="273.296"/><use x="90.138" xlink:href="#ah" y="242.6112"/><use x="107.825902" xlink:href="#Q" y="242.6112"/><use x="98.63019" xlink:href="#ay" y="208.2846"/><use x="47.12359" xlink:href="#ax" y="169.9283"/><use x="59.17829" xlink:href="#ax" y="186.3666"/><use x="8.76739" xlink:href="#aw" y="202.8049"/><use x="79.42369" xlink:href="#ai" y="273.2959"/><use x="102.044022" xlink:href="#T" y="273.2959"/><use x="117.181541" xlink:href="#K" y="273.2959"/><use x="254.03969" xlink:href="#ay" y="202.8049"/><use x="324.95259" xlink:href="#Z" y="242.6111"/><use x="337.878763" xlink:href="#T" y="242.6111"/><use x="331.744" xlink:href="#ay" y="197.3256"/><use x="238.1495" xlink:href="#ax" y="202.8049"/><path d="m2676.367188 6203.407813h5.117187v358.007812h-5.117187zm0 0" fill="none" stroke="#000" stroke-linejoin="round" stroke-miterlimit="10" stroke-width="3.98904" transform="matrix(.1 0 0 -.1 0 820.79)"/><path d="m267.636719 200.449219h.511719v-35.800781h-.511719zm0 0"/><use x="246.228" xlink:href="#U" y="273.296"/><use x="261.194412" xlink:href="#R" y="273.296"/><use x="244.27175" xlink:href="#aj" y="242.6112"/><use x="257.197533" xlink:href="#T" y="242.6112"/><use x="272.164336" xlink:href="#O" y="242.6112"/><path d="m1899.296875 6148.603125h5.15625v358.007813h-5.15625zm0 0" fill="none" stroke="#000" stroke-linejoin="round" stroke-miterlimit="10" stroke-width="3.98904" transform="matrix(.1 0 0 -.1 0 820.79)"/><path d="m189.929688 205.929688h.515624v-35.800782h-.515624zm0 0"/><use x="173.711" xlink:href="#Z" y="273.296"/><use x="187.317656" xlink:href="#aa" y="273.296"/><use x="168.52311" xlink:href="#U" y="242.6112"/><use x="183.489944" xlink:href="#T" y="242.6112"/><use x="176.33561" xlink:href="#ay" y="208.2846"/><g clip-path="url(#m)"><path d="m3.515625 4755.204688h5945.742187" style="fill:none;stroke-width:7.03562;stroke-linecap:round;stroke-linejoin:round;stroke:#000;stroke-miterlimit:10" transform="matrix(.1 0 0 -.1 0 820.79)"/></g><g clip-path="url(#n)"><path d="m3.515625 4864.775h5945.742187" style="fill:none;stroke-width:7.03562;stroke-linecap:round;stroke-linejoin:round;stroke:#000;stroke-miterlimit:10" transform="matrix(.1 0 0 -.1 0 820.79)"/></g><g clip-path="url(#o)"><path d="m3.515625 4974.384375h5945.742187" style="fill:none;stroke-width:7.03562;stroke-linecap:round;stroke-linejoin:round;stroke:#000;stroke-miterlimit:10" transform="matrix(.1 0 0 -.1 0 820.79)"/></g><g clip-path="url(#p)"><path d="m3.515625 5083.954688h5945.742187" style="fill:none;stroke-width:7.03562;stroke-linecap:round;stroke-linejoin:round;stroke:#000;stroke-miterlimit:10" transform="matrix(.1 0 0 -.1 0 820.79)"/></g><g clip-path="url(#q)"><path d="m3.515625 5193.564063h5945.742187" style="fill:none;stroke-width:7.03562;stroke-linecap:round;stroke-linejoin:round;stroke:#000;stroke-miterlimit:10" transform="matrix(.1 0 0 -.1 0 820.79)"/></g><use x="580.498" xlink:href="#az" y="317.874"/><use x="580.498" xlink:href="#az" y="328.8326"/><g clip-path="url(#r)"><path d="m5931.640625 4755.204688v438.359375" fill="none" stroke="#000" stroke-linejoin="round" stroke-miterlimit="10" stroke-width="42.1808" transform="matrix(.1 0 0 -.1 0 820.79)"/></g><path d="m5882.8125 4755.204688v438.359375" fill="none" stroke="#000" stroke-linejoin="round" stroke-miterlimit="10" stroke-width="13.3589" transform="matrix(.1 0 0 -.1 0 820.79)"/><path d="m4032.421875 4755.204688v438.359375" fill="none" stroke="#000" stroke-linejoin="round" stroke-miterlimit="10" stroke-width="13.3589" transform="matrix(.1 0 0 -.1 0 820.79)"/><use x="321.749" xlink:href="#Z" y="386.199"/><use x="334.844704" xlink:href="#ae" y="386.199"/><path d="m4126.835938 4611.064063h5.15625v331.914062h-5.15625zm0 0" fill="none" stroke="#000" stroke-linejoin="round" stroke-miterlimit="10" stroke-width="3.98904" transform="matrix(.1 0 0 -.1 0 820.79)"/><path d="m412.683594 359.683594h.515625v-33.1875h-.515625zm0 0"/><use x="401.381" xlink:href="#ae" y="416.884"/><use x="416.347437" xlink:href="#U" y="416.884"/><use x="431.144342" xlink:href="#ak" y="416.884"/><use x="398.06381" xlink:href="#U" y="386.1992"/><use x="413.030247" xlink:href="#ae" y="386.1992"/><use x="427.827152" xlink:href="#S" y="386.1992"/><use x="434.460345" xlink:href="#N" y="386.1992"/><use x="412.48571" xlink:href="#av" y="323.3531"/><path d="m3288.242188 4647.5875h5.15625v358.007813h-5.15625zm0 0" fill="none" stroke="#000" stroke-linejoin="round" stroke-miterlimit="10" stroke-width="3.98904" transform="matrix(.1 0 0 -.1 0 820.79)"/><path d="m328.824219 356.03125h.515625v-35.800781h-.515625zm0 0"/><use x="318.178" xlink:href="#Z" y="416.884"/><use x="331.103783" xlink:href="#T" y="416.884"/><use x="345.900664" xlink:href="#S" y="416.884"/><path d="m1402.070312 4419.970313h66.71875v3.515625h-66.71875zm0 0" fill="none" stroke="#000" stroke-linejoin="round" stroke-miterlimit="10" stroke-width="5.62192" transform="matrix(.1 0 0 -.1 0 820.79)"/><path d="m140.207031 378.796875h6.671875v-.351563h-6.671875zm0 0"/><path d="m1421.640625 4113.095313h66.71875v3.515625h-66.71875zm0 0" fill="none" stroke="#000" stroke-linejoin="round" stroke-miterlimit="10" stroke-width="5.62192" transform="matrix(.1 0 0 -.1 0 820.79)"/><path d="m142.164062 409.480469h6.671876v-.351563h-6.671876zm0 0"/><path d="m2979.726562 4419.970313h66.679688v3.515625h-66.679688zm0 0" fill="none" stroke="#000" stroke-linejoin="round" stroke-miterlimit="10" stroke-width="5.62192" transform="matrix(.1 0 0 -.1 0 820.79)"/><path d="m297.972656 378.796875h6.667969v-.351563h-6.667969zm0 0"/><path d="m2943.984375 4113.095313h66.71875v3.515625h-66.71875zm0 0" fill="none" stroke="#000" stroke-linejoin="round" stroke-miterlimit="10" stroke-width="5.62192" transform="matrix(.1 0 0 -.1 0 820.79)"/><path d="m294.398438 409.480469h6.671874v-.351563h-6.671874zm0 0"/><path d="m3706.015625 4419.970313h66.71875v3.515625h-66.71875zm0 0" fill="none" stroke="#000" stroke-linejoin="round" stroke-miterlimit="10" stroke-width="5.62192" transform="matrix(.1 0 0 -.1 0 820.79)"/><path d="m370.601562 378.796875h6.671876v-.351563h-6.671876zm0 0"/><use x="495.791" xlink:href="#aA" y="323.353"/><use x="93.795" xlink:href="#al" y="386.1991"/><use x="111.823528" xlink:href="#O" y="386.1991"/><use x="328.626" xlink:href="#ay" y="317.8737"/><use x="47.124" xlink:href="#ax" y="301.435"/><use x="59.1787" xlink:href="#ax" y="317.8737"/><use x="8.7678" xlink:href="#aw" y="334.312"/><use x="98.6307" xlink:href="#ay" y="323.353"/><path d="m988.28125 4611.064063h5.15625v339.726562h-5.15625zm0 0" fill="none" stroke="#000" stroke-linejoin="round" stroke-miterlimit="10" stroke-width="3.98904" transform="matrix(.1 0 0 -.1 0 820.79)"/><path d="m98.828125 359.683594h.515625v-33.972656h-.515625zm0 0"/><path d="m2530.742188 4647.5875h5.117187v358.007813h-5.117187zm0 0" fill="none" stroke="#000" stroke-linejoin="round" stroke-miterlimit="10" stroke-width="3.98904" transform="matrix(.1 0 0 -.1 0 820.79)"/><path d="m253.074219 356.03125h.511719v-35.800781h-.511719zm0 0"/><use x="242.766" xlink:href="#Q" y="416.884"/><use x="256.202721" xlink:href="#ab" y="416.884"/><use x="269.809365" xlink:href="#ag" y="416.884"/><use x="239.19452" xlink:href="#Q" y="386.1992"/><use x="252.631241" xlink:href="#ab" y="386.1992"/><use x="265.896869" xlink:href="#ae" y="386.1992"/><use x="252.87342" xlink:href="#ay" y="317.8738"/><path d="m1773.203125 4702.392188h5.15625v358.007812h-5.15625zm0 0" fill="none" stroke="#000" stroke-linejoin="round" stroke-miterlimit="10" stroke-width="3.98904" transform="matrix(.1 0 0 -.1 0 820.79)"/><path d="m177.320312 350.550781h.515626v-35.800781h-.515626zm0 0"/><use x="168.714" xlink:href="#S" y="416.884"/><use x="175.856972" xlink:href="#L" y="416.884"/><use x="190.823806" xlink:href="#af" y="416.884"/><use x="169.309313" xlink:href="#U" y="386.1992"/><use x="184.275738" xlink:href="#am" y="386.1992"/><use x="177.121813" xlink:href="#ay" y="312.3941"/><use x="89.287013" xlink:href="#an" y="416.8841"/><use x="107.315541" xlink:href="#R" y="416.8841"/><g clip-path="url(#s)"><path d="m3.515625 3430.0875h5945.742187" style="fill:none;stroke-width:7.03562;stroke-linecap:round;stroke-linejoin:round;stroke:#000;stroke-miterlimit:10" transform="matrix(.1 0 0 -.1 0 820.79)"/></g><g clip-path="url(#t)"><path d="m3.515625 3539.696875h5945.742187" style="fill:none;stroke-width:7.03562;stroke-linecap:round;stroke-linejoin:round;stroke:#000;stroke-miterlimit:10" transform="matrix(.1 0 0 -.1 0 820.79)"/></g><g clip-path="url(#u)"><path d="m3.515625 3649.267188h5945.742187" style="fill:none;stroke-width:7.03562;stroke-linecap:round;stroke-linejoin:round;stroke:#000;stroke-miterlimit:10" transform="matrix(.1 0 0 -.1 0 820.79)"/></g><g clip-path="url(#v)"><path d="m3.515625 3758.876563h5945.742187" style="fill:none;stroke-width:7.03562;stroke-linecap:round;stroke-linejoin:round;stroke:#000;stroke-miterlimit:10" transform="matrix(.1 0 0 -.1 0 820.79)"/></g><g clip-path="url(#w)"><path d="m3.515625 3868.446875h5945.742187" style="fill:none;stroke-width:7.03562;stroke-linecap:round;stroke-linejoin:round;stroke:#000;stroke-miterlimit:10" transform="matrix(.1 0 0 -.1 0 820.79)"/></g><path d="m3732.578125 3430.0875v438.359375" fill="none" stroke="#000" stroke-linejoin="round" stroke-miterlimit="10" stroke-width="13.3589" transform="matrix(.1 0 0 -.1 0 820.79)"/><g clip-path="url(#x)"><path d="m5946.09375 3430.0875v438.359375" fill="none" stroke="#000" stroke-linejoin="round" stroke-miterlimit="10" stroke-width="13.3589" transform="matrix(.1 0 0 -.1 0 820.79)"/></g><use x="381.388" xlink:href="#ay" y="477.781"/><path d="m4628.242188 3453.642188h5.15625v358.007812h-5.15625zm0 0" fill="none" stroke="#000" stroke-linejoin="round" stroke-miterlimit="10" stroke-width="3.98904" transform="matrix(.1 0 0 -.1 0 820.79)"/><path d="m462.824219 475.425781h.515625v-35.800781h-.515625zm0 0"/><use x="441.419" xlink:href="#U" y="516.137"/><use x="456.385834" xlink:href="#T" y="516.137"/><use x="449.23072" xlink:href="#ay" y="477.7807"/><path d="m3949.84375 3453.642188h5.117188v358.007812h-5.117188zm0 0" fill="none" stroke="#000" stroke-linejoin="round" stroke-miterlimit="10" stroke-width="3.98904" transform="matrix(.1 0 0 -.1 0 820.79)"/><path d="m394.984375 475.425781h.511719v-35.800781h-.511719zm0 0"/><use x="366.773" xlink:href="#M" y="516.137"/><use x="389.39332" xlink:href="#aa" y="516.137"/><use x="395.346066" xlink:href="#V" y="516.137"/><path d="m1984.335938 3120.595313h66.71875v3.515625h-66.71875zm0 0" fill="none" stroke="#000" stroke-linejoin="round" stroke-miterlimit="10" stroke-width="5.62192" transform="matrix(.1 0 0 -.1 0 820.79)"/><path d="m198.433594 508.730469h6.667968v-.351563h-6.667968zm0 0"/><path d="m4225.3125 3120.595313h66.71875v3.515625h-66.71875zm0 0" fill="none" stroke="#000" stroke-linejoin="round" stroke-miterlimit="10" stroke-width="5.62192" transform="matrix(.1 0 0 -.1 0 820.79)"/><path d="m422.53125 508.730469h6.671875v-.351563h-6.671875zm0 0"/><path d="m4796.289062 3120.595313h66.71875v3.515625h-66.71875zm0 0" fill="none" stroke="#000" stroke-linejoin="round" stroke-miterlimit="10" stroke-width="5.62192" transform="matrix(.1 0 0 -.1 0 820.79)"/><path d="m479.628906 508.730469h6.667969v-.351563h-6.667969zm0 0"/><use x="517.074" xlink:href="#av" y="483.26"/><path d="m5313.945312 3406.728125h5.15625v350.15625h-5.15625zm0 0" fill="none" stroke="#000" stroke-linejoin="round" stroke-miterlimit="10" stroke-width="3.98904" transform="matrix(.1 0 0 -.1 0 820.79)"/><path d="m531.394531 480.121094h.515625v-35.015625h-.515625zm0 0"/><use x="494.573" xlink:href="#V" y="516.137"/><use x="509.539834" xlink:href="#T" y="516.137"/><use x="524.506271" xlink:href="#M" y="516.137"/><use x="547.126592" xlink:href="#N" y="516.137"/><path d="m1122.265625 3508.446875h5.15625v358.007813h-5.15625zm0 0" fill="none" stroke="#000" stroke-linejoin="round" stroke-miterlimit="10" stroke-width="3.98904" transform="matrix(.1 0 0 -.1 0 820.79)"/><path d="m112.226562 469.945312h.511719v-35.800781h-.511719zm0 0"/><use x="76.5316" xlink:href="#ao" y="516.137"/><use x="91.498019" xlink:href="#P" y="516.137"/><use x="106.635537" xlink:href="#K" y="516.137"/><use x="121.432431" xlink:href="#ap" y="516.137"/><use x="98.63" xlink:href="#ay" y="472.3015"/><use x="166.473327" xlink:href="#ay" y="472.3015"/><use x="47.1234" xlink:href="#ax" y="433.9452"/><use x="59.1781" xlink:href="#ax" y="450.3835"/><use x="8.7672" xlink:href="#aw" y="466.8218"/><path d="m3157.539062 3508.446875h5.15625v358.007813h-5.15625zm0 0" fill="none" stroke="#000" stroke-linejoin="round" stroke-miterlimit="10" stroke-width="3.98904" transform="matrix(.1 0 0 -.1 0 820.79)"/><path d="m315.753906 469.945312h.515625v-35.800781h-.515625zm0 0"/><use x="298.09" xlink:href="#am" y="516.137"/><use x="313.056412" xlink:href="#ad" y="516.137"/><use x="302.16031" xlink:href="#ay" y="472.3015"/><path d="m2479.140625 3563.2125h5.15625v358.046875h-5.15625zm0 0" fill="none" stroke="#000" stroke-linejoin="round" stroke-miterlimit="10" stroke-width="3.98904" transform="matrix(.1 0 0 -.1 0 820.79)"/><path d="m247.910156 464.46875h.515625v-35.804688h-.515625zm0 0"/><use x="215.961" xlink:href="#O" y="516.137"/><use x="221.913746" xlink:href="#T" y="516.137"/><use x="236.880549" xlink:href="#M" y="516.137"/><use x="259.500869" xlink:href="#ad" y="516.137"/><use x="234.3172" xlink:href="#ay" y="466.8218"/><path d="m1800.703125 3508.446875h5.117187v358.007813h-5.117187zm0 0" fill="none" stroke="#000" stroke-linejoin="round" stroke-miterlimit="10" stroke-width="3.98904" transform="matrix(.1 0 0 -.1 0 820.79)"/><path d="m180.070312 469.945312h.511719v-35.800781h-.511719zm0 0"/><use x="159.682" xlink:href="#Z" y="516.137"/><use x="172.608186" xlink:href="#T" y="516.137"/><g clip-path="url(#y)"><path d="m3.515625 2115.009375h5945.742187" style="fill:none;stroke-width:7.03562;stroke-linecap:round;stroke-linejoin:round;stroke:#000;stroke-miterlimit:10" transform="matrix(.1 0 0 -.1 0 820.79)"/></g><g clip-path="url(#z)"><path d="m3.515625 2224.61875h5945.742187" style="fill:none;stroke-width:7.03562;stroke-linecap:round;stroke-linejoin:round;stroke:#000;stroke-miterlimit:10" transform="matrix(.1 0 0 -.1 0 820.79)"/></g><g clip-path="url(#A)"><path d="m3.515625 2334.189063h5945.742187" style="fill:none;stroke-width:7.03562;stroke-linecap:round;stroke-linejoin:round;stroke:#000;stroke-miterlimit:10" transform="matrix(.1 0 0 -.1 0 820.79)"/></g><g clip-path="url(#B)"><path d="m3.515625 2443.798438h5945.742187" style="fill:none;stroke-width:7.03562;stroke-linecap:round;stroke-linejoin:round;stroke:#000;stroke-miterlimit:10" transform="matrix(.1 0 0 -.1 0 820.79)"/></g><g clip-path="url(#C)"><path d="m3.515625 2553.36875h5945.742187" style="fill:none;stroke-width:7.03562;stroke-linecap:round;stroke-linejoin:round;stroke:#000;stroke-miterlimit:10" transform="matrix(.1 0 0 -.1 0 820.79)"/></g><path d="m4444.140625 2115.009375v438.359375" fill="none" stroke="#000" stroke-linejoin="round" stroke-miterlimit="10" stroke-width="13.3589" transform="matrix(.1 0 0 -.1 0 820.79)"/><g clip-path="url(#D)"><path d="m5946.09375 2115.009375v438.359375" fill="none" stroke="#000" stroke-linejoin="round" stroke-miterlimit="10" stroke-width="13.3589" transform="matrix(.1 0 0 -.1 0 820.79)"/></g><path d="m3292.8125 1970.907813h5.117188v339.726562h-5.117188zm0 0" fill="none" stroke="#000" stroke-linejoin="round" stroke-miterlimit="10" stroke-width="3.98904" transform="matrix(.1 0 0 -.1 0 820.79)"/><path d="m329.28125 623.699219h.511719v-33.972657h-.511719zm0 0"/><use x="451.659" xlink:href="#ax" y="598.329"/><path d="m4818.710938 2256.025h5.15625v350.15625h-5.15625zm0 0" fill="none" stroke="#000" stroke-linejoin="round" stroke-miterlimit="10" stroke-width="3.98904" transform="matrix(.1 0 0 -.1 0 820.79)"/><path d="m481.871094 595.1875h.515625v-35.015625h-.515625zm0 0"/><use x="467.584" xlink:href="#P" y="647.644"/><use x="467.550016" xlink:href="#av" y="598.3292"/><path d="m3990.234375 2302.978125h5.15625v358.007813h-5.15625zm0 0" fill="none" stroke="#000" stroke-linejoin="round" stroke-miterlimit="10" stroke-width="3.98904" transform="matrix(.1 0 0 -.1 0 820.79)"/><path d="m399.023438 590.492188h.515624v-35.800782h-.515624zm0 0"/><use x="382.804" xlink:href="#aa" y="647.644"/><use x="388.757137" xlink:href="#Q" y="647.644"/><use x="385.42861" xlink:href="#ay" y="592.8495"/><path d="m1303.242188 1805.517188h66.71875v3.515625h-66.71875zm0 0" fill="none" stroke="#000" stroke-linejoin="round" stroke-miterlimit="10" stroke-width="5.62192" transform="matrix(.1 0 0 -.1 0 820.79)"/><path d="m130.324219 640.238281h6.671875v-.351562h-6.671875zm0 0"/><path d="m2441.640625 1805.517188h66.71875v3.515625h-66.71875zm0 0" fill="none" stroke="#000" stroke-linejoin="round" stroke-miterlimit="10" stroke-width="5.62192" transform="matrix(.1 0 0 -.1 0 820.79)"/><path d="m244.164062 640.238281h6.671876v-.351562h-6.671876zm0 0"/><path d="m4960.664062 1805.517188h66.679688v3.515625h-66.679688zm0 0" fill="none" stroke="#000" stroke-linejoin="round" stroke-miterlimit="10" stroke-width="5.62192" transform="matrix(.1 0 0 -.1 0 820.79)"/><path d="m496.0625 640.238281h6.671875v-.351562h-6.671875zm0 0"/><path d="m5438.007812 2201.220313h5.15625v350.15625h-5.15625zm0 0" fill="none" stroke="#000" stroke-linejoin="round" stroke-miterlimit="10" stroke-width="3.98904" transform="matrix(.1 0 0 -.1 0 820.79)"/><path d="m543.800781 600.667969h.515625v-35.015625h-.515625zm0 0"/><use x="516.248" xlink:href="#O" y="647.644"/><use x="522.200721" xlink:href="#T" y="647.644"/><use x="537.167556" xlink:href="#aj" y="647.644"/><use x="550.263284" xlink:href="#aq" y="647.644"/><use x="529.4796" xlink:href="#av" y="603.8085"/><use x="8.7676" xlink:href="#aw" y="598.3292"/><use x="309.9586" xlink:href="#V" y="647.644"/><use x="324.925403" xlink:href="#T" y="647.644"/><use x="339.891816" xlink:href="#M" y="647.644"/><path d="m1122.265625 2193.36875h5.15625v358.007813h-5.15625zm0 0" fill="none" stroke="#000" stroke-linejoin="round" stroke-miterlimit="10" stroke-width="3.98904" transform="matrix(.1 0 0 -.1 0 820.79)"/><path d="m112.226562 601.453125h.511719v-35.800781h-.511719zm0 0"/><use x="88.607" xlink:href="#ar" y="647.644"/><use x="107.995686" xlink:href="#R" y="647.644"/><use x="98.63" xlink:href="#ay" y="603.8085"/><use x="47.1234" xlink:href="#ax" y="565.4522"/><use x="59.1781" xlink:href="#ax" y="581.8909"/><use x="329.0801" xlink:href="#ay" y="587.3702"/><path d="m2817.734375 2302.978125h5.117187v358.007813h-5.117187zm0 0" fill="none" stroke="#000" stroke-linejoin="round" stroke-miterlimit="10" stroke-width="3.98904" transform="matrix(.1 0 0 -.1 0 820.79)"/><path d="m281.773438 590.492188h.511718v-35.800782h-.511718zm0 0"/><use x="258.239" xlink:href="#aj" y="647.644"/><use x="271.504627" xlink:href="#as" y="647.644"/><use x="286.47104" xlink:href="#O" y="647.644"/><use x="268.1765" xlink:href="#ay" y="592.8495"/><use x="195.771" xlink:href="#ax" y="598.32919"/><use x="155.1452" xlink:href="#ay" y="603.80849"/><use x="200.8722" xlink:href="#V" y="647.64399"/><use x="215.839003" xlink:href="#P" y="647.64399"/><use x="230.805416" xlink:href="#O" y="647.64399"/><use x="211.6613" xlink:href="#ay" y="598.32919"/><use x="144.3574" xlink:href="#O" y="647.64399"/><use x="150.310134" xlink:href="#ae" y="647.64399"/><use x="165.276558" xlink:href="#U" y="647.64399"/><path d="m1687.421875 2193.36875h5.117187v358.007813h-5.117187zm0 0" fill="none" stroke="#000" stroke-linejoin="round" stroke-miterlimit="10" stroke-width="3.98904" transform="matrix(.1 0 0 -.1 0 820.79)"/><path d="m168.742188 601.453125h.511718v-35.800781h-.511718zm0 0"/><path d="m2252.578125 2248.173438h5.15625v358.007812h-5.15625zm0 0" fill="none" stroke="#000" stroke-linejoin="round" stroke-miterlimit="10" stroke-width="3.98904" transform="matrix(.1 0 0 -.1 0 820.79)"/><path d="m225.257812 595.972656h.515626v-35.800781h-.515626zm0 0"/><g clip-path="url(#E)"><path d="m3.515625 799.970313h5945.742187" style="fill:none;stroke-width:7.03562;stroke-linecap:round;stroke-linejoin:round;stroke:#000;stroke-miterlimit:10" transform="matrix(.1 0 0 -.1 0 820.79)"/></g><g clip-path="url(#F)"><path d="m3.515625 909.540625h5945.742187" style="fill:none;stroke-width:7.03562;stroke-linecap:round;stroke-linejoin:round;stroke:#000;stroke-miterlimit:10" transform="matrix(.1 0 0 -.1 0 820.79)"/></g><g clip-path="url(#G)"><path d="m3.515625 1019.15h5945.742187" style="fill:none;stroke-width:7.03562;stroke-linecap:round;stroke-linejoin:round;stroke:#000;stroke-miterlimit:10" transform="matrix(.1 0 0 -.1 0 820.79)"/></g><g clip-path="url(#H)"><path d="m3.515625 1128.720313h5945.742187" style="fill:none;stroke-width:7.03562;stroke-linecap:round;stroke-linejoin:round;stroke:#000;stroke-miterlimit:10" transform="matrix(.1 0 0 -.1 0 820.79)"/></g><g clip-path="url(#I)"><path d="m3.515625 1238.290625h5945.742187" style="fill:none;stroke-width:7.03562;stroke-linecap:round;stroke-linejoin:round;stroke:#000;stroke-miterlimit:10" transform="matrix(.1 0 0 -.1 0 820.79)"/></g><path d="m4987.539062 690.360938h207.539063" style="fill:none;stroke-width:17.9945;stroke-linecap:round;stroke-linejoin:round;stroke:#000;stroke-miterlimit:10" transform="matrix(.1 0 0 -.1 0 820.79)"/><path d="m4143.203125 690.360938h207.539063" style="fill:none;stroke-width:17.9945;stroke-linecap:round;stroke-linejoin:round;stroke:#000;stroke-miterlimit:10" transform="matrix(.1 0 0 -.1 0 820.79)"/><g clip-path="url(#J)"><path d="m5931.640625 799.970313v438.320312" fill="none" stroke="#000" stroke-linejoin="round" stroke-miterlimit="10" stroke-width="42.1808" transform="matrix(.1 0 0 -.1 0 820.79)"/></g><g fill="none" stroke="#000" stroke-linejoin="round" stroke-miterlimit="10" transform="matrix(.1 0 0 -.1 0 820.79)"><path d="m5882.8125 799.970313v438.320312" stroke-width="13.3589"/><path d="m4087.1875 799.970313v438.320312" stroke-width="13.3589"/><path d="m3425.3125 768.720313h5.117188v358.007812h-5.117188zm0 0" stroke-width="3.98904"/></g><path d="m342.53125 743.917969h.511719v-35.800781h-.511719zm0 0"/><path d="m4315 721.767188h5.15625v350.15625h-5.15625zm0 0" fill="none" stroke="#000" stroke-linejoin="round" stroke-miterlimit="10" stroke-width="3.98904" transform="matrix(.1 0 0 -.1 0 820.79)"/><path d="m431.5 748.613281h.515625v-35.015625h-.515625zm0 0"/><use x="417.214" xlink:href="#P" y="786.6978"/><use x="417.178844" xlink:href="#av" y="751.7533"/><path d="m2887.578125 414.970313h66.71875v3.515625h-66.71875zm0 0" fill="none" stroke="#000" stroke-linejoin="round" stroke-miterlimit="10" stroke-width="5.62192" transform="matrix(.1 0 0 -.1 0 820.79)"/><path d="m288.757812 779.292969h6.671876v-.351563h-6.671876zm0 0"/><path d="m4586.054688 414.970313h66.71875v3.515625h-66.71875zm0 0" fill="none" stroke="#000" stroke-linejoin="round" stroke-miterlimit="10" stroke-width="5.62192" transform="matrix(.1 0 0 -.1 0 820.79)"/><path d="m458.605469 779.292969h6.667969v-.351563h-6.667969zm0 0"/><use x="501.613" xlink:href="#av" y="757.2326"/><path d="m5159.335938 666.9625h5.15625v350.195313h-5.15625zm0 0" fill="none" stroke="#000" stroke-linejoin="round" stroke-miterlimit="10" stroke-width="3.98904" transform="matrix(.1 0 0 -.1 0 820.79)"/><path d="m515.933594 754.09375h.515625v-35.015625h-.515625zm0 0"/><use x="491.698" xlink:href="#O" y="786.6978"/><use x="497.650721" xlink:href="#T" y="786.6978"/><use x="512.447627" xlink:href="#S" y="786.6978"/><use x="519.08082" xlink:href="#N" y="786.6978"/><use x="509.1312" xlink:href="#aB" y="693.715"/><use x="317.3812" xlink:href="#af" y="786.6978"/><use x="326.224955" xlink:href="#at" y="786.6978"/><use x="341.191758" xlink:href="#aj" y="786.6978"/><use x="98.6302" xlink:href="#ay" y="746.2736"/><use x="47.1236" xlink:href="#ax" y="696.9588"/><use x="59.1783" xlink:href="#ax" y="713.3971"/><use x="8.7674" xlink:href="#aw" y="729.8354"/><use x="91.3283" xlink:href="#au" y="786.6979"/><use x="105.274791" xlink:href="#T" y="786.6979"/><use x="328.9353" xlink:href="#ay" y="746.2737"/><path d="m2657.617188 823.525h5.15625v358.007813h-5.15625zm0 0" fill="none" stroke="#000" stroke-linejoin="round" stroke-miterlimit="10" stroke-width="3.98904" transform="matrix(.1 0 0 -.1 0 820.79)"/><path d="m265.761719 738.441406h.515625v-35.804687h-.515625zm0 0"/><use x="251.838" xlink:href="#at" y="786.6978"/><use x="252.166516" xlink:href="#ay" y="740.7943"/><path d="m1122.265625 768.720313h5.15625v358.007812h-5.15625zm0 0" fill="none" stroke="#000" stroke-linejoin="round" stroke-miterlimit="10" stroke-width="3.98904" transform="matrix(.1 0 0 -.1 0 820.79)"/><path d="m112.226562 743.917969h.511719v-35.800781h-.511719zm0 0"/><path d="m1889.921875 768.720313h5.15625v358.007812h-5.15625zm0 0" fill="none" stroke="#000" stroke-linejoin="round" stroke-miterlimit="10" stroke-width="3.98904" transform="matrix(.1 0 0 -.1 0 820.79)"/><path d="m188.992188 743.917969h.515624v-35.800781h-.515624zm0 0"/><use x="154.405" xlink:href="#Z" y="786.6978"/><use x="167.501107" xlink:href="#ae" y="786.6978"/><use x="182.29761" xlink:href="#K" y="786.6978"/><use x="197.094503" xlink:href="#ap" y="786.6978"/><use x="175.398" xlink:href="#ay" y="746.2736"/></svg>