<svg height="541.37em" viewBox="0 0 595.28 541.37" width="595.28em" xmlns="http://www.w3.org/2000/svg" xmlns:xlink="http://www.w3.org/1999/xlink"><clipPath id="a"><path d="m0 73h595.28125v2h-595.28125zm0 0"/></clipPath><clipPath id="b"><path d="m0 62h595.28125v2h-595.28125zm0 0"/></clipPath><clipPath id="c"><path d="m0 52h595.28125v1h-595.28125zm0 0"/></clipPath><clipPath id="d"><path d="m0 41h595.28125v1h-595.28125zm0 0"/></clipPath><clipPath id="e"><path d="m0 30h595.28125v1h-595.28125zm0 0"/></clipPath><clipPath id="f"><path d="m593 29h2.28125v46h-2.28125zm0 0"/></clipPath><clipPath id="g"><path d="m0 205h595.28125v2h-595.28125zm0 0"/></clipPath><clipPath id="h"><path d="m0 194h595.28125v2h-595.28125zm0 0"/></clipPath><clipPath id="i"><path d="m0 183h595.28125v2h-595.28125zm0 0"/></clipPath><clipPath id="j"><path d="m0 172h595.28125v2h-595.28125zm0 0"/></clipPath><clipPath id="k"><path d="m0 161h595.28125v2h-595.28125zm0 0"/></clipPath><clipPath id="l"><path d="m593 161h2.28125v46h-2.28125zm0 0"/></clipPath><clipPath id="m"><path d="m0 336h595.28125v2h-595.28125zm0 0"/></clipPath><clipPath id="n"><path d="m0 325h595.28125v2h-595.28125zm0 0"/></clipPath><clipPath id="o"><path d="m0 315h595.28125v1h-595.28125zm0 0"/></clipPath><clipPath id="p"><path d="m0 304h595.28125v1h-595.28125zm0 0"/></clipPath><clipPath id="q"><path d="m0 293h595.28125v1h-595.28125zm0 0"/></clipPath><clipPath id="r"><path d="m593 292h2.28125v46h-2.28125zm0 0"/></clipPath><clipPath id="s"><path d="m0 468h595.28125v2h-595.28125zm0 0"/></clipPath><clipPath id="t"><path d="m0 457h595.28125v2h-595.28125zm0 0"/></clipPath><clipPath id="u"><path d="m0 446h595.28125v2h-595.28125zm0 0"/></clipPath><clipPath id="v"><path d="m0 435h595.28125v2h-595.28125zm0 0"/></clipPath><clipPath id="w"><path d="m0 424h595.28125v2h-595.28125zm0 0"/></clipPath><clipPath id="x"><path d="m591 422h4.28125v49h-4.28125zm0 0"/></clipPath><symbol id="y" overflow="visible"><path d="m1.875-14.1875v14.1875h2.265625v-7.359375c.03125-3.40625 1.4375-4.921875 4.546875-4.84375v-2.296875c-.375-.0625-.59375-.09375-.859375-.09375-1.46875 0-2.578125.875-3.875 2.984375v-2.578125zm0 0"/></symbol><symbol id="z" overflow="visible"><path d="m14.484375-1.328125c-.25.0625-.359375.0625-.5.0625-.78125 0-1.203125-.40625-1.203125-1.109375v-8.34375c0-2.515625-1.84375-3.875-5.34375-3.875-2.078125 0-3.734375.609375-4.703125 1.65625-.65625.734375-.921875 1.546875-.96875 2.953125h2.265625c.1875-1.734375 1.21875-2.515625 3.328125-2.515625 2.0625 0 3.171875.75 3.171875 2.109375v.59375c-.03125.96875-.515625 1.328125-2.359375 1.5625-3.1875.40625-3.671875.515625-4.546875.875-1.65625.703125-2.484375 1.953125-2.484375 3.78125 0 2.578125 1.78125 4.203125 4.65625 4.203125 1.78125 0 3.21875-.625 4.8125-2.09375.15625 1.46875.859375 2.09375 2.328125 2.09375.484375 0 .78125-.0625 1.546875-.25zm-3.953125-3.140625c0 .765625-.21875 1.21875-.890625 1.84375-.921875.84375-2.03125 1.265625-3.359375 1.265625-1.765625 0-2.796875-.828125-2.796875-2.265625 0-1.484375.984375-2.25 3.421875-2.59375 2.40625-.328125 2.859375-.4375 3.625-.796875zm0 0"/></symbol><symbol id="A" overflow="visible"><path d="m13.390625-19.734375h-2.234375v7.34375c-.953125-1.4375-2.46875-2.203125-4.359375-2.203125-3.6875 0-6.09375 2.953125-6.09375 7.46875 0 4.796875 2.328125 7.75 6.171875 7.75 1.953125 0 3.296875-.734375 4.515625-2.5v1.875h2zm-6.21875 7.265625c2.4375 0 3.984375 2.125 3.984375 5.546875 0 3.265625-1.578125 5.4375-3.953125 5.4375-2.5 0-4.140625-2.203125-4.140625-5.5s1.640625-5.484375 4.109375-5.484375zm0 0"/></symbol><symbol id="B" overflow="visible"><path d="m7.359375-14.59375c-4 0-6.390625 2.84375-6.390625 7.609375 0 4.796875 2.390625 7.609375 6.421875 7.609375 4 0 6.40625-2.84375 6.40625-7.5 0-4.921875-2.328125-7.71875-6.4375-7.71875zm.03125 2.09375c2.546875 0 4.0625 2.078125 4.0625 5.59375 0 3.359375-1.578125 5.4375-4.0625 5.4375-2.515625 0-4.0625-2.078125-4.0625-5.515625s1.546875-5.515625 4.0625-5.515625zm0 0"/></symbol><symbol id="C" overflow="visible"><path d="m6.875-14.1875h-2.328125v-3.890625h-2.25v3.890625h-1.921875v1.84375h1.921875v10.71875c0 1.46875.984375 2.25 2.734375 2.25.59375 0 1.078125-.0625 1.84375-.1875v-1.90625c-.328125.09375-.625.109375-1.078125.109375-.984375 0-1.25-.265625-1.25-1.265625v-9.71875h2.328125zm0 0"/></symbol><symbol id="D" overflow="visible"><path d="m2.359375-2.8125v2.8125h1.625v.484375c0 1.875-.359375 2.40625-1.625 2.46875v1.03125c1.78125.046875 2.84375-1.25 2.84375-3.546875v-3.25zm0 0"/></symbol><symbol id="E" overflow="visible"><path d="m7.71875 0 5.4375-14.1875h-2.546875l-4 11.515625-3.796875-11.515625h-2.546875l4.984375 14.1875zm0 0"/></symbol><symbol id="F" overflow="visible"><path d="m4.0625-14.1875h-2.25v14.1875h2.25zm0-5.546875h-2.28125v2.84375h2.28125zm0 0"/></symbol><symbol id="G" overflow="visible"><path d="m14.90625-19.734375.03125 13.859375c0 2.65625-1.921875 4.28125-5.0625 4.28125s-5.0625-1.625-5.0625-4.28125v-13.859375h-2.515625v13.859375c0 3.953125 2.984375 6.5 7.578125 6.5 4.609375 0 7.578125-2.578125 7.578125-6.5l-.03125-13.859375zm-4.4375-5.671875-2.59375 4h1.625l4.03125-4zm0 0"/></symbol><symbol id="H" overflow="visible"><path d="m1.890625-14.1875v16.25c0 1.40625-.421875 1.859375-1.84375 1.859375-.15625 0-.234375 0-.53125-.03125v1.921875c.265625.0625.40625.09375.75.09375 2.546875 0 3.875-1.015625 3.875-2.953125v-17.140625zm2.25-5.546875h-2.25v2.84375h2.25zm0 0"/></symbol><symbol id="I" overflow="visible"><path d="m13.890625-6.328125c0-2.171875-.171875-3.46875-.578125-4.53125-.921875-2.3125-3.078125-3.734375-5.734375-3.734375-3.953125 0-6.5 3.015625-6.5 7.6875 0 4.6875 2.4375 7.53125 6.4375 7.53125 3.25 0 5.5-1.84375 6.0625-4.921875h-2.265625c-.625 1.859375-1.890625 2.828125-3.703125 2.828125-1.4375 0-2.65625-.640625-3.421875-1.828125-.53125-.8125-.71875-1.625-.75-3.03125zm-10.40625-1.84375c.203125-2.625 1.796875-4.328125 4.0625-4.328125 2.296875 0 3.90625 1.78125 3.90625 4.328125zm0 0"/></symbol><symbol id="J" overflow="visible"><path d="m1.890625-14.1875v14.1875h2.28125v-7.828125c0-2.890625 1.515625-4.78125 3.84375-4.78125 1.78125 0 2.921875 1.078125 2.921875 2.78125v9.828125h2.234375v-10.71875c0-2.359375-1.75-3.875-4.484375-3.875-2.109375 0-3.46875.8125-4.703125 2.796875v-2.390625zm0 0"/></symbol><symbol id="K" overflow="visible"><path d="m7.359375-14.59375c-4 0-6.390625 2.84375-6.390625 7.609375 0 4.796875 2.390625 7.609375 6.421875 7.609375 4 0 6.40625-2.84375 6.40625-7.5 0-4.921875-2.328125-7.71875-6.4375-7.71875zm.03125 2.09375c2.546875 0 4.0625 2.078125 4.0625 5.59375 0 3.359375-1.578125 5.4375-4.0625 5.4375-2.515625 0-4.0625-2.078125-4.0625-5.515625s1.546875-5.515625 4.0625-5.515625zm-.890625-7.53125-2.625 4.0625h1.625l4.03125-4.0625zm4.703125 0-2.625 4.0625h1.625l4.03125-4.0625zm0 0"/></symbol><symbol id="L" overflow="visible"><path d="m11.859375-10.234375c-.03125-2.78125-1.875-4.359375-5.140625-4.359375-3.3125 0-5.453125 1.71875-5.453125 4.34375 0 2.21875 1.140625 3.265625 4.5 4.078125l2.109375.515625c1.5625.375 2.1875.953125 2.1875 1.953125 0 1.34375-1.328125 2.234375-3.296875 2.234375-1.21875 0-2.25-.34375-2.8125-.9375-.359375-.40625-.515625-.8125-.65625-1.8125h-2.375c.109375 3.265625 1.953125 4.84375 5.65625 4.84375 3.5625 0 5.84375-1.765625 5.84375-4.5 0-2.109375-1.1875-3.265625-4-3.953125l-2.171875-.5c-1.84375-.4375-2.625-1.03125-2.625-2.03125 0-1.328125 1.171875-2.140625 3-2.140625 1.8125 0 2.796875.78125 2.84375 2.265625zm0 0"/></symbol><symbol id="M" overflow="visible"><path d="m11.984375-14.1875h-10.578125v1.984375h7.90625l-8.46875 10.171875v2.03125h11.53125v-1.96875h-8.796875l8.40625-10.203125zm0 0"/></symbol><symbol id="N" overflow="visible"><path d="m1.890625-14.1875v14.1875h2.28125v-8.90625c0-2.046875 1.484375-3.703125 3.328125-3.703125 1.671875 0 2.625 1.03125 2.625 2.84375v9.765625h2.265625v-8.90625c0-2.046875 1.5-3.703125 3.328125-3.703125 1.65625 0 2.625 1.046875 2.625 2.84375v9.765625h2.28125v-10.640625c0-2.53125-1.46875-3.953125-4.109375-3.953125-1.90625 0-3.03125.578125-4.359375 2.171875-.84375-1.515625-1.984375-2.171875-3.828125-2.171875-1.890625 0-3.15625.703125-4.34375 2.421875v-2.015625zm0 0"/></symbol><symbol id="O" overflow="visible"><path d="m6.984375-14.1875h-2.359375v-2.21875c0-.9375.515625-1.421875 1.578125-1.421875.1875 0 .265625 0 .78125.015625v-1.859375c-.515625-.109375-.8125-.140625-1.28125-.140625-2.078125 0-3.328125 1.1875-3.328125 3.21875v2.40625h-1.890625v1.84375h1.890625v12.34375h2.25v-12.34375h2.359375zm0 0"/></symbol><symbol id="P" overflow="visible"><path d="m13.890625-6.328125c0-2.171875-.171875-3.46875-.578125-4.53125-.921875-2.3125-3.078125-3.734375-5.734375-3.734375-3.953125 0-6.5 3.015625-6.5 7.6875 0 4.6875 2.4375 7.53125 6.4375 7.53125 3.25 0 5.5-1.84375 6.0625-4.921875h-2.265625c-.625 1.859375-1.890625 2.828125-3.703125 2.828125-1.4375 0-2.65625-.640625-3.421875-1.828125-.53125-.8125-.71875-1.625-.75-3.03125zm-10.40625-1.84375c.203125-2.625 1.796875-4.328125 4.0625-4.328125 2.296875 0 3.90625 1.78125 3.90625 4.328125zm4.84375-11.859375-2.59375 4.015625h1.625l4.03125-4.015625zm0 0"/></symbol><symbol id="Q" overflow="visible"><path d="m14.484375-1.328125c-.25.0625-.359375.0625-.5.0625-.78125 0-1.203125-.40625-1.203125-1.109375v-8.34375c0-2.515625-1.84375-3.875-5.34375-3.875-2.078125 0-3.734375.609375-4.703125 1.65625-.65625.734375-.921875 1.546875-.96875 2.953125h2.265625c.1875-1.734375 1.21875-2.515625 3.328125-2.515625 2.0625 0 3.171875.75 3.171875 2.109375v.59375c-.03125.96875-.515625 1.328125-2.359375 1.5625-3.1875.40625-3.671875.515625-4.546875.875-1.65625.703125-2.484375 1.953125-2.484375 3.78125 0 2.578125 1.78125 4.203125 4.65625 4.203125 1.78125 0 3.21875-.625 4.8125-2.09375.15625 1.46875.859375 2.09375 2.328125 2.09375.484375 0 .78125-.0625 1.546875-.25zm-3.953125-3.140625c0 .765625-.21875 1.21875-.890625 1.84375-.921875.84375-2.03125 1.265625-3.359375 1.265625-1.765625 0-2.796875-.828125-2.796875-2.265625 0-1.484375.984375-2.25 3.421875-2.59375 2.40625-.328125 2.859375-.4375 3.625-.796875zm-2.296875-15.5625-2.625 4.015625h1.609375l4.046875-4.015625zm0 0"/></symbol><symbol id="R" overflow="visible"><path d="m4.109375-19.734375h-2.265625v19.734375h2.265625zm0 0"/></symbol><symbol id="S" overflow="visible"><path d="m10.5-14.1875-3.921875 11.046875-3.625-11.046875h-2.40625l4.78125 14.234375-.859375 2.25c-.375 1-.875 1.390625-1.8125 1.390625-.390625 0-.703125-.0625-1.1875-.171875v2.03125c.453125.25.90625.359375 1.515625.359375.71875 0 1.515625-.25 2.109375-.6875.703125-.515625 1.109375-1.109375 1.53125-2.234375l6.3125-17.171875zm0 0"/></symbol><symbol id="T" overflow="visible"><path d="m1.890625-19.734375v19.734375h2.25v-7.828125c0-2.890625 1.515625-4.78125 3.84375-4.78125.75 0 1.453125.21875 2 .625.65625.484375.921875 1.15625.921875 2.15625v9.828125h2.25v-10.71875c0-2.375-1.703125-3.875-4.46875-3.875-2 0-3.21875.625-4.546875 2.359375v-7.5zm0 0"/></symbol><symbol id="U" overflow="visible"><path d="m9.015625-19.734375v13.890625c0 1.5625-.171875 2.46875-.625 3.140625-.484375.75-1.40625 1.21875-2.40625 1.21875-1.890625 0-2.953125-1.28125-2.953125-3.578125v-1.265625h-2.578125v1.734375c0 3.1875 2.125 5.21875 5.5 5.21875 3.4375 0 5.578125-2.140625 5.578125-5.546875v-14.8125zm0 0"/></symbol><symbol id="V" overflow="visible"><path d="m7.359375-14.59375c-4 0-6.390625 2.84375-6.390625 7.609375 0 4.796875 2.390625 7.609375 6.421875 7.609375 4 0 6.40625-2.84375 6.40625-7.5 0-4.921875-2.328125-7.71875-6.4375-7.71875zm.03125 2.09375c2.546875 0 4.0625 2.078125 4.0625 5.59375 0 3.359375-1.578125 5.4375-4.0625 5.4375-2.515625 0-4.0625-2.078125-4.0625-5.515625s1.546875-5.515625 4.0625-5.515625zm-.78125-6.84375h-2.828125v2.78125h2.828125zm4.375 0h-2.8125v2.78125h2.8125zm0 0"/></symbol><symbol id="W" overflow="visible"><path d="m13.046875 0v-14.1875h-2.25v8.046875c0 2.890625-1.515625 4.78125-3.875 4.78125-1.78125 0-2.921875-1.078125-2.921875-2.78125v-10.046875h-2.234375v10.9375c0 2.359375 1.75 3.875 4.515625 3.875 2.078125 0 3.40625-.734375 4.734375-2.59375v1.96875zm0 0"/></symbol><symbol id="X" overflow="visible"><path d="m13.046875 0v-14.1875h-2.25v8.046875c0 2.890625-1.515625 4.78125-3.875 4.78125-1.78125 0-2.921875-1.078125-2.921875-2.78125v-10.046875h-2.234375v10.9375c0 2.359375 1.75 3.875 4.515625 3.875 2.078125 0 3.40625-.734375 4.734375-2.59375v1.96875zm-6.421875-19.34375h-2.8125v2.78125h2.8125zm4.390625 0h-2.8125v2.78125h2.8125zm0 0"/></symbol><symbol id="Y" overflow="visible"><path d="m3.8125-19.734375h-2.25v19.734375h2.25v-5.515625l2.203125-2.171875 4.78125 7.6875h2.78125l-5.78125-9.28125 4.921875-4.90625h-2.890625l-6.015625 6.015625zm0 0"/></symbol><symbol id="Z" overflow="visible"><path d="m5.171875-2.8125h-2.8125v2.8125h2.8125zm0 0"/></symbol><symbol id="aa" overflow="visible"><path d="m13.046875 0v-14.1875h-2.25v8.046875c0 2.890625-1.515625 4.78125-3.875 4.78125-1.78125 0-2.921875-1.078125-2.921875-2.78125v-10.046875h-2.234375v10.9375c0 2.359375 1.75 3.875 4.515625 3.875 2.078125 0 3.40625-.734375 4.734375-2.59375v1.96875zm-5.03125-20.03125-2.609375 4.015625h1.625l4.03125-4.015625zm0 0"/></symbol><symbol id="ab" overflow="visible"><path d="m9.734375-5.921875c-1.84375 0-3.59375.625-5.171875 1.578125-2.0625 1.234375-4.5625 3.375-4.5625 6.484375 0 2.59375 2.28125 3.78125 4.609375 3.78125 1.828125 0 3.59375-.625 5.171875-1.578125 2.046875-1.234375 4.5-3.375 4.5-6.484375 0-2.59375-2.234375-3.78125-4.546875-3.78125zm0 0"/></symbol><symbol id="ac" overflow="visible"><path d="m1.09375-1.921875c.046875-1.453125 1.015625-2.71875 2.375-2.71875 1.3125 0 1.921875 1.53125 1.921875 3.015625 0 2.59375-2.1875 4.4375-4.203125 6.09375-.09375-.96875-.171875-1.921875-.171875-2.890625 0-.171875.03125-.3125.03125-.484375zm-2.1875-18.375.484375 26.25c0 .53125.390625.921875.921875.921875.78125 0 1.140625-.921875 1.75-1.390625 2.765625-2.234375 6.703125-3.8125 6.703125-7.40625 0-2.375-1.75-4.390625-4.078125-4.390625-1.40625 0-2.71875.484375-3.859375 1.3125l.265625-15.296875c-.34375-.171875-.703125-.296875-1.09375-.296875s-.75.125-1.09375.296875zm0 0"/></symbol><symbol id="ad" overflow="visible"><path d="m16.390625-11.390625c-.703125-3.078125-1.53125-6.09375-2.40625-9.125 4.203125-4.765625 8.015625-9.6875 8.015625-16 0-4.953125-2.71875-12.046875-5.78125-15.734375-.21875-.171875-.484375-.171875-.703125 0-4.171875 3.03125-6.578125 7.859375-6.578125 12.9375 0 2.28125.046875 4.515625.3125 6.75.296875 2.84375 1.046875 5.609375 1.84375 8.375-5.171875 5.875-11 11.484375-11 19.28125 0 8.8125 6.34375 16.296875 14.59375 16.296875 1.359375 0 2.625-.125 3.890625-.34375.140625 1.40625.21875 2.796875.21875 4.203125 0 .796875-.03125 1.53125-.078125 2.328125-.265625 4.328125-2.9375 8.328125-7.015625 8.40625-.046875 0-.09375.046875-.125.046875-2.25 0-4.171875-1.265625-5.3125-3.0625.484375.21875 1.015625.390625 1.53125.390625 2.28125 0 4.171875-1.890625 4.171875-4.15625 0-2.453125-1.796875-4.5625-4.171875-4.5625-2.578125 0-4.90625 2.015625-4.90625 4.5625 0 4.734375 3.8125 8.546875 8.546875 8.546875 5.171875 0 8.71875-4.65625 9.03125-9.90625.046875-.84375.046875-1.625.046875-2.453125 0-1.578125-.09375-3.15625-.21875-4.734375 1.140625-.359375 2.234375-.875 3.1875-1.625 3.25-2.40625 4.703125-5.78125 4.703125-9.125 0-5.78125-4.390625-11.34375-11.140625-11.34375-.21875 0-.4375.046875-.65625.046875zm3.71875 20.375c-.609375-5.4375-1.609375-10.609375-2.703125-15.734375 4.8125.390625 7.84375 4.421875 7.84375 8.453125 0 3.078125-2.109375 6.234375-5.140625 7.28125zm-17-10.34375c0-7.015625 4.734375-12.3125 9.46875-17.625.703125 2.59375 1.40625 5.171875 2.015625 7.8125-4.421875 1-6.921875 4.734375-6.921875 8.59375 0 3.0625 1.578125 6.171875 5.078125 8.0625.140625.03125.265625.078125.390625.078125.484375 0 .890625-.4375.890625-.921875 0-.21875-.140625-.4375-.3125-.609375-2.453125-1.40625-3.59375-3.5-3.59375-5.4375 0-2.578125 2.015625-4.90625 5.484375-5.296875 1.140625 5.25 2.140625 10.46875 2.796875 16.078125-1.1875.171875-2.359375.265625-3.59375.265625-5.953125 0-11.703125-5.03125-11.703125-11zm14.90625-44.65625c.75 2.3125.921875 3.453125.921875 6 0 5.5625-2.9375 10-6.53125 14.25-.796875-2.765625-1.453125-5.4375-1.453125-8.765625 0-4.875 2.71875-9.296875 7.0625-11.484375zm0 0"/></symbol><symbol id="ae" overflow="visible"><path d="m13.84375-2.9375c0 .4375-.125.921875-.4375 1.265625-.921875 1.109375-3.015625 2.453125-4.6875 3.515625-1.65625 1.046875-3.765625 2.453125-5.125 2.84375-.171875.046875-.390625.09375-.5625.09375-.96875 0-1.84375-.75-1.84375-1.84375 0-.4375.125-.921875.4375-1.265625.921875-1.109375 3.015625-2.453125 4.6875-3.515625 1.671875-1.046875 3.765625-2.453125 5.125-2.84375.171875-.046875.390625-.09375.578125-.09375.953125 0 1.828125.75 1.828125 1.84375zm-2.234375-2.984375c-3.28125 0-5.953125.703125-8.28125 2.28125-1.40625.96875-2.3125 2.453125-2.84375 4.078125-.265625.796875-.484375 1.671875-.484375 2.5 0 2.0625 1.484375 2.984375 3.421875 2.984375 3.28125 0 5.953125-.703125 8.28125-2.28125 1.40625-.96875 2.328125-2.453125 2.84375-4.078125.265625-.796875.484375-1.671875.484375-2.5 0-2.0625-1.484375-2.984375-3.421875-2.984375zm0 0"/></symbol><symbol id="af" overflow="visible"><path d="m5.734375-11.796875v11.796875h3.375v-17.09375h-2.234375c-.53125 2.03125-2.296875 3.0625-5.234375 3.0625v2.234375zm0 0"/></symbol><symbol id="ag" overflow="visible"><path d="m5.15625-3.515625h-3.609375v3.515625h3.609375zm0 0"/></symbol><symbol id="ah" overflow="visible"><path d="m3.859375-5.515625c4.15625-3.03125 11.265625-3.125 11.265625-10.046875 0-3.859375-3.90625-6.34375-8.0625-6.34375-3.46875 0-6.578125 2.234375-6.578125 5.515625 0 1.671875 1.3125 3.015625 2.984375 3.015625 1.65625 0 3.015625-1.34375 3.015625-3.015625 0-1.1875-1.53125-1.796875-1.53125-2.984375 0-1 1-1.625 2.109375-1.625 2.3125 0 3.28125 2.765625 3.28125 5.4375 0 7.890625-10.34375 7.453125-10.34375 15.125 0 .3125.265625.4375.484375.4375s.390625-.125.4375-.4375c.125-1.484375 1.40625-2.40625 2.71875-2.40625.78125 0 1.578125.296875 2.1875 1 1.09375 1.234375 2.59375 1.84375 4.125 1.84375 2.0625 0 5.78125-1.578125 5.78125-4.34375 0-.265625-.265625-.4375-.484375-.4375-.171875 0-.390625.09375-.4375.359375-.21875.875-.96875 1.21875-1.84375 1.21875-.921875 0-2.0625-.390625-3.0625-1.09375-1.484375-1-3.03125-1.4375-4.421875-1.4375-.578125 0-1.109375.078125-1.625.21875zm0 0"/></symbol><symbol id="ai" overflow="visible"><path d="m9.109375-13.984375c-.25.171875-.34375.53125-.34375.875v6.453125h-7.578125l12.40625-14.59375c.25-.3125-.140625-.84375-.671875-.65625-.953125.296875-1.921875.5625-2.921875.5625-1.015625 0-1.984375-.265625-2.9375-.5625-.359375-.140625-.65625.21875-.65625.65625 0 5.46875-2.859375 10.375-6.40625 14.59375-.046875.03125-.09375.171875-.09375.25 0 .359375.359375.921875 1.28125.921875h7.578125v.703125c0 1.96875-1.140625 3.859375-2.984375 3.859375-.296875 0-.4375.21875-.4375.4375s.140625.484375.4375.484375c1.796875 0 3.59375-.5625 5.390625-.5625s3.59375.5625 5.390625.5625c.3125 0 .4375-.265625.4375-.484375s-.125-.4375-.4375-.4375c-1.84375 0-2.96875-1.890625-2.96875-3.859375v-.703125h2.96875c.40625 0 .578125-.25.578125-.5625s-.171875-.609375-.578125-.609375h-2.96875v-11.21875c0-.625-.703125-.703125-.890625-.3125-.296875.75-.609375 1.484375-1.09375 2.140625-.65625.875-1.578125 1.5-2.5 2.0625zm0 0"/></symbol><g clip-path="url(#a)"><path d="m3.515625 4671.004687h5945.742187" fill="none" stroke="#000" stroke-linecap="round" stroke-miterlimit="10" stroke-width="7.03562" transform="matrix(.1 0 0 -.1 0 541.37)"/></g><g clip-path="url(#b)"><path d="m3.515625 4780.575h5945.742187" fill="none" stroke="#000" stroke-linecap="round" stroke-miterlimit="10" stroke-width="7.03562" transform="matrix(.1 0 0 -.1 0 541.37)"/></g><g clip-path="url(#c)"><path d="m3.515625 4890.145312h5945.742187" fill="none" stroke="#000" stroke-linecap="round" stroke-miterlimit="10" stroke-width="7.03562" transform="matrix(.1 0 0 -.1 0 541.37)"/></g><g clip-path="url(#d)"><path d="m3.515625 4999.754687h5945.742187" fill="none" stroke="#000" stroke-linecap="round" stroke-miterlimit="10" stroke-width="7.03562" transform="matrix(.1 0 0 -.1 0 541.37)"/></g><g clip-path="url(#e)"><path d="m3.515625 5109.325h5945.742187" fill="none" stroke="#000" stroke-linecap="round" stroke-miterlimit="10" stroke-width="7.03562" transform="matrix(.1 0 0 -.1 0 541.37)"/></g><g clip-path="url(#f)"><path d="m5946.09375 4671.004687v438.320313" fill="none" stroke="#000" stroke-miterlimit="10" stroke-width="13.3589" transform="matrix(.1 0 0 -.1 0 541.37)"/></g><path d="m3777.695312 4671.004687v438.320313" fill="none" stroke="#000" stroke-miterlimit="10" stroke-width="13.3589" transform="matrix(.1 0 0 -.1 0 541.37)"/><path d="m4727.1875 4858.934375h5.15625v335.234375h-5.15625zm0 0" fill="none" stroke="#000" stroke-linejoin="round" stroke-miterlimit="10" stroke-width="3.98904" transform="matrix(.1 0 0 -.1 0 541.37)"/><path d="m472.71875 55.476562h.515625v-33.523437h-.515625zm0 0"/><use x="454.373" xlink:href="#y" y="116.55"/><use x="463.216779" xlink:href="#z" y="116.55"/><use x="459.12378" xlink:href="#ab" y="57.8332"/><use x="506.50778" xlink:href="#A" y="116.55"/><use x="521.474217" xlink:href="#B" y="116.55"/><use x="536.271122" xlink:href="#C" y="116.55"/><use x="544.434394" xlink:href="#C" y="116.55"/><use x="551.577352" xlink:href="#D" y="116.55"/><path d="m3996.875 4858.934375h5.15625v358.007812h-5.15625zm0 0" fill="none" stroke="#000" stroke-linejoin="round" stroke-miterlimit="10" stroke-width="3.98904" transform="matrix(.1 0 0 -.1 0 541.37)"/><path d="m399.6875 55.476562h.515625v-35.800781h-.515625zm0 0"/><use x="378.96" xlink:href="#E" y="116.55"/><use x="392.566253" xlink:href="#F" y="116.55"/><use x="398.519389" xlink:href="#y" y="116.55"/><use x="386.09203" xlink:href="#ab" y="57.8332"/><path d="m1223.203125 4952.645312h2000.351563v48.632813h-2000.351563zm0 0" fill="none" stroke="#000" stroke-linejoin="round" stroke-miterlimit="10" stroke-width="3.98904" transform="matrix(.1 0 0 -.1 0 541.37)"/><path d="m122.320312 46.105469h200.035157v-4.863281h-200.035157zm0 0"/><path d="m2135.390625 4322.254687h66.71875v3.515625h-66.71875zm0 0" fill="none" stroke="#000" stroke-linejoin="round" stroke-miterlimit="10" stroke-width="5.62192" transform="matrix(.1 0 0 -.1 0 541.37)"/><path d="m213.539062 109.144531h6.671876v-.351562h-6.671876zm0 0"/><path d="m2806.015625 4322.254687h66.679687v3.515625h-66.679687zm0 0" fill="none" stroke="#000" stroke-linejoin="round" stroke-miterlimit="10" stroke-width="5.62192" transform="matrix(.1 0 0 -.1 0 541.37)"/><path d="m280.597656 109.144531h6.671875v-.351562h-6.671875zm0 0"/><path d="m4276.171875 4322.254687h66.71875v3.515625h-66.71875zm0 0" fill="none" stroke="#000" stroke-linejoin="round" stroke-miterlimit="10" stroke-width="5.62192" transform="matrix(.1 0 0 -.1 0 541.37)"/><path d="m427.617188 109.144531h6.671874v-.351562h-6.671874zm0 0"/><path d="m4890.117188 4322.254687h66.71875v3.515625h-66.71875zm0 0" fill="none" stroke="#000" stroke-linejoin="round" stroke-miterlimit="10" stroke-width="5.62192" transform="matrix(.1 0 0 -.1 0 541.37)"/><path d="m489.011719 109.144531h6.667969v-.351562h-6.667969zm0 0"/><path d="m4727.1875 5220.457812v-48.632812h670.234375v48.632812zm0 0" fill="none" stroke="#000" stroke-linejoin="round" stroke-miterlimit="10" stroke-width="3.98904" transform="matrix(.1 0 0 -.1 0 541.37)"/><path d="m472.71875 19.324219v4.863281h67.023438v-4.863281zm0 0"/><path d="m5392.265625 4858.934375h5.117187v335.234375h-5.117187zm0 0" fill="none" stroke="#000" stroke-linejoin="round" stroke-miterlimit="10" stroke-width="3.98904" transform="matrix(.1 0 0 -.1 0 541.37)"/><path d="m539.226562 55.476562h.511719v-33.523437h-.511719zm0 0"/><use x="525.63" xlink:href="#ab" y="57.833"/><use x="48.26" xlink:href="#ac" y="52.3537"/><path d="m1223.203125 4639.754687h5.15625v335.234375h-5.15625zm0 0" fill="none" stroke="#000" stroke-linejoin="round" stroke-miterlimit="10" stroke-width="3.98904" transform="matrix(.1 0 0 -.1 0 541.37)"/><path d="m122.320312 77.394531h.515626v-33.523437h-.515626zm0 0"/><use x="72.0965" xlink:href="#af" y="116.55"/><use x="85.533223" xlink:href="#ag" y="116.55"/><use x="103.1254" xlink:href="#G" y="116.55"/><use x="122.684789" xlink:href="#H" y="116.55"/><use x="70.3957" xlink:href="#ah" y="52.3539"/><use x="69.629684" xlink:href="#ai" y="74.4461"/><use x="8.767184" xlink:href="#ad" y="63.3129"/><use x="108.725384" xlink:href="#ab" y="79.7512"/><use x="230.356384" xlink:href="#C" y="116.55"/><use x="237.499367" xlink:href="#I" y="116.55"/><use x="252.465779" xlink:href="#J" y="116.55"/><path d="m3218.4375 4639.754687h5.117188v335.234375h-5.117188zm0 0" fill="none" stroke="#000" stroke-linejoin="round" stroke-miterlimit="10" stroke-width="3.98904" transform="matrix(.1 0 0 -.1 0 541.37)"/><path d="m321.84375 77.394531h.511719v-33.523437h-.511719zm0 0"/><use x="300.435" xlink:href="#A" y="116.55"/><use x="315.401412" xlink:href="#K" y="116.55"/><use x="308.24633" xlink:href="#ab" y="79.7512"/><path d="m2553.359375 4639.754687h5.15625v335.234375h-5.15625zm0 0" fill="none" stroke="#000" stroke-linejoin="round" stroke-miterlimit="10" stroke-width="3.98904" transform="matrix(.1 0 0 -.1 0 541.37)"/><path d="m255.335938 77.394531h.515624v-33.523437h-.515624zm0 0"/><use x="241.739" xlink:href="#ab" y="79.751"/><path d="m1888.28125 4639.754687h5.15625v335.234375h-5.15625zm0 0" fill="none" stroke="#000" stroke-linejoin="round" stroke-miterlimit="10" stroke-width="3.98904" transform="matrix(.1 0 0 -.1 0 541.37)"/><path d="m188.828125 77.394531h.515625v-33.523437h-.515625zm0 0"/><use x="161.383" xlink:href="#I" y="116.55"/><use x="176.349425" xlink:href="#L" y="116.55"/><use x="189.786158" xlink:href="#M" y="116.55"/><use x="175.2326" xlink:href="#ab" y="79.7512"/><g clip-path="url(#g)"><path d="m3.515625 3355.926562h5945.742187" style="fill:none;stroke-width:7.03562;stroke-linecap:round;stroke-linejoin:round;stroke:#000;stroke-miterlimit:10" transform="matrix(.1 0 0 -.1 0 541.37)"/></g><g clip-path="url(#h)"><path d="m3.515625 3465.496875h5945.742187" style="fill:none;stroke-width:7.03562;stroke-linecap:round;stroke-linejoin:round;stroke:#000;stroke-miterlimit:10" transform="matrix(.1 0 0 -.1 0 541.37)"/></g><g clip-path="url(#i)"><path d="m3.515625 3575.10625h5945.742187" style="fill:none;stroke-width:7.03562;stroke-linecap:round;stroke-linejoin:round;stroke:#000;stroke-miterlimit:10" transform="matrix(.1 0 0 -.1 0 541.37)"/></g><g clip-path="url(#j)"><path d="m3.515625 3684.676562h5945.742187" style="fill:none;stroke-width:7.03562;stroke-linecap:round;stroke-linejoin:round;stroke:#000;stroke-miterlimit:10" transform="matrix(.1 0 0 -.1 0 541.37)"/></g><g clip-path="url(#k)"><path d="m3.515625 3794.285937h5945.742187" style="fill:none;stroke-width:7.03562;stroke-linecap:round;stroke-linejoin:round;stroke:#000;stroke-miterlimit:10" transform="matrix(.1 0 0 -.1 0 541.37)"/></g><path d="m3451.367188 3355.926562v438.359375" fill="none" stroke="#000" stroke-linejoin="round" stroke-miterlimit="10" stroke-width="13.3589" transform="matrix(.1 0 0 -.1 0 541.37)"/><path d="m4992.695312 3355.926562v438.359375" fill="none" stroke="#000" stroke-linejoin="round" stroke-miterlimit="10" stroke-width="13.3589" transform="matrix(.1 0 0 -.1 0 541.37)"/><g clip-path="url(#l)"><path d="m5946.09375 3355.926562v438.359375" fill="none" stroke="#000" stroke-linejoin="round" stroke-miterlimit="10" stroke-width="13.3589" transform="matrix(.1 0 0 -.1 0 541.37)"/></g><path d="m5271.484375 3442.1375h5.15625v350.15625h-5.15625zm0 0" fill="none" stroke="#000" stroke-linejoin="round" stroke-miterlimit="10" stroke-width="3.98904" transform="matrix(.1 0 0 -.1 0 541.37)"/><path d="m527.148438 197.15625h.515624v-35.015625h-.515624zm0 0"/><use x="494.069" xlink:href="#A" y="244.134"/><use x="509.035437" xlink:href="#B" y="244.134"/><use x="523.832342" xlink:href="#C" y="244.134"/><use x="531.995614" xlink:href="#C" y="244.134"/><use x="539.138572" xlink:href="#D" y="244.134"/><use x="512.8284" xlink:href="#ae" y="200.2985"/><path d="m4385 3489.051562h5.15625v358.007813h-5.15625zm0 0" fill="none" stroke="#000" stroke-linejoin="round" stroke-miterlimit="10" stroke-width="3.98904" transform="matrix(.1 0 0 -.1 0 541.37)"/><path d="m438.496094 192.464844h.515625v-35.800782h-.515625zm0 0"/><use x="413.265" xlink:href="#N" y="244.134"/><use x="435.88493" xlink:href="#z" y="244.134"/><use x="424.9033" xlink:href="#ab" y="194.8188"/><path d="m980.195312 3856.785937h1932.1875v48.59375h-1932.1875zm0 0" fill="none" stroke="#000" stroke-linejoin="round" stroke-miterlimit="10" stroke-width="3.98904" transform="matrix(.1 0 0 -.1 0 541.37)"/><path d="m98.019531 155.691406h193.21875v-4.859375h-193.21875zm0 0"/><path d="m3669.960938 3543.85625h5.15625v358.007812h-5.15625zm0 0" fill="none" stroke="#000" stroke-linejoin="round" stroke-miterlimit="10" stroke-width="3.98904" transform="matrix(.1 0 0 -.1 0 541.37)"/><path d="m366.996094 186.984375h.515625v-35.800781h-.515625zm0 0"/><path d="m2497.421875 3046.395312h66.71875v3.515625h-66.71875zm0 0" fill="none" stroke="#000" stroke-linejoin="round" stroke-miterlimit="10" stroke-width="5.62192" transform="matrix(.1 0 0 -.1 0 541.37)"/><path d="m249.742188 236.730469h6.671874v-.351563h-6.671874zm0 0"/><path d="m3891.875 3046.395312h66.71875v3.515625h-66.71875zm0 0" fill="none" stroke="#000" stroke-linejoin="round" stroke-miterlimit="10" stroke-width="5.62192" transform="matrix(.1 0 0 -.1 0 541.37)"/><path d="m389.1875 236.730469h6.671875v-.351563h-6.671875zm0 0"/><path d="m4691.25 3046.395312h66.71875v3.515625h-66.71875zm0 0" fill="none" stroke="#000" stroke-linejoin="round" stroke-miterlimit="10" stroke-width="5.62192" transform="matrix(.1 0 0 -.1 0 541.37)"/><path d="m469.125 236.730469h6.671875v-.351563h-6.671875zm0 0"/><path d="m1123.554688 3046.395312h66.71875v3.515625h-66.71875zm0 0" fill="none" stroke="#000" stroke-linejoin="round" stroke-miterlimit="10" stroke-width="5.62192" transform="matrix(.1 0 0 -.1 0 541.37)"/><path d="m112.355469 236.730469h6.671875v-.351563h-6.671875zm0 0"/><use x="48.2598" xlink:href="#ac" y="183.86"/><use x="149.5718" xlink:href="#ab" y="189.33969"/><path d="m980.195312 3489.051562h5.15625v390.039063h-5.15625zm0 0" fill="none" stroke="#000" stroke-linejoin="round" stroke-miterlimit="10" stroke-width="3.98904" transform="matrix(.1 0 0 -.1 0 541.37)"/><path d="m98.019531 192.464844h.515625v-39.003906h-.515625zm0 0"/><use x="80.525" xlink:href="#O" y="244.134"/><use x="87.667977" xlink:href="#P" y="244.134"/><use x="84.42422" xlink:href="#ab" y="194.8188"/><use x="353.40122" xlink:href="#ab" y="189.3395"/><use x="8.76722" xlink:href="#ad" y="194.8188"/><use x="349.33122" xlink:href="#C" y="244.134"/><use x="356.814829" xlink:href="#Q" y="244.134"/><path d="m2907.226562 3489.051562h5.15625v390.039063h-5.15625zm0 0" fill="none" stroke="#000" stroke-linejoin="round" stroke-miterlimit="10" stroke-width="3.98904" transform="matrix(.1 0 0 -.1 0 541.37)"/><path d="m290.722656 192.464844h.515625v-39.003906h-.515625zm0 0"/><use x="266.338" xlink:href="#J" y="244.134"/><use x="281.304803" xlink:href="#z" y="244.134"/><use x="296.271216" xlink:href="#R" y="244.134"/><use x="277.1271" xlink:href="#ab" y="194.8188"/><use x="128.7491" xlink:href="#J" y="244.134"/><use x="143.20615" xlink:href="#S" y="244.134"/><use x="156.132336" xlink:href="#I" y="244.134"/><use x="171.098761" xlink:href="#L" y="244.134"/><path d="m2283.125 3598.660937h5.15625v280.429688h-5.15625zm0 0" fill="none" stroke="#000" stroke-linejoin="round" stroke-miterlimit="10" stroke-width="3.98904" transform="matrix(.1 0 0 -.1 0 541.37)"/><path d="m228.3125 181.507812h.515625v-28.046874h-.515625zm0 0"/><use x="203.931" xlink:href="#T" y="244.134"/><use x="218.897803" xlink:href="#z" y="244.134"/><use x="233.864216" xlink:href="#H" y="244.134"/><use x="214.7189" xlink:href="#ab" y="183.8598"/><path d="m1631.679688 3543.85625h5.15625v335.234375h-5.15625zm0 0" fill="none" stroke="#000" stroke-linejoin="round" stroke-miterlimit="10" stroke-width="3.98904" transform="matrix(.1 0 0 -.1 0 541.37)"/><path d="m163.167969 186.984375h.515625v-33.523437h-.515625zm0 0"/><g clip-path="url(#m)"><path d="m3.515625 2040.848437h5945.742187" style="fill:none;stroke-width:7.03562;stroke-linecap:round;stroke-linejoin:round;stroke:#000;stroke-miterlimit:10" transform="matrix(.1 0 0 -.1 0 541.37)"/></g><g clip-path="url(#n)"><path d="m3.515625 2150.457812h5945.742187" style="fill:none;stroke-width:7.03562;stroke-linecap:round;stroke-linejoin:round;stroke:#000;stroke-miterlimit:10" transform="matrix(.1 0 0 -.1 0 541.37)"/></g><g clip-path="url(#o)"><path d="m3.515625 2260.028125h5945.742187" style="fill:none;stroke-width:7.03562;stroke-linecap:round;stroke-linejoin:round;stroke:#000;stroke-miterlimit:10" transform="matrix(.1 0 0 -.1 0 541.37)"/></g><g clip-path="url(#p)"><path d="m3.515625 2369.6375h5945.742187" style="fill:none;stroke-width:7.03562;stroke-linecap:round;stroke-linejoin:round;stroke:#000;stroke-miterlimit:10" transform="matrix(.1 0 0 -.1 0 541.37)"/></g><g clip-path="url(#q)"><path d="m3.515625 2479.207812h5945.742187" style="fill:none;stroke-width:7.03562;stroke-linecap:round;stroke-linejoin:round;stroke:#000;stroke-miterlimit:10" transform="matrix(.1 0 0 -.1 0 541.37)"/></g><path d="m3681.875 2040.848437v438.359375" fill="none" stroke="#000" stroke-linejoin="round" stroke-miterlimit="10" stroke-width="13.3589" transform="matrix(.1 0 0 -.1 0 541.37)"/><g clip-path="url(#r)"><path d="m5946.09375 2040.848437v438.359375" fill="none" stroke="#000" stroke-linejoin="round" stroke-miterlimit="10" stroke-width="13.3589" transform="matrix(.1 0 0 -.1 0 541.37)"/></g><path d="m4647.34375 2009.598437h5.15625v335.234375h-5.15625zm0 0" fill="none" stroke="#000" stroke-linejoin="round" stroke-miterlimit="10" stroke-width="3.98904" transform="matrix(.1 0 0 -.1 0 541.37)"/><path d="m464.734375 340.410156h.515625v-33.523437h-.515625zm0 0"/><use x="443.329" xlink:href="#A" y="375.641"/><use x="458.295834" xlink:href="#z" y="375.641"/><use x="451.14072" xlink:href="#ab" y="342.7644"/><path d="m3902.617188 2228.778125h5.15625v358.046875h-5.15625zm0 0" fill="none" stroke="#000" stroke-linejoin="round" stroke-miterlimit="10" stroke-width="3.98904" transform="matrix(.1 0 0 -.1 0 541.37)"/><path d="m390.261719 318.492188h.515625v-35.800782h-.515625zm0 0"/><use x="373.361" xlink:href="#Q" y="375.641"/><use x="388.327803" xlink:href="#R" y="375.641"/><use x="376.6653" xlink:href="#ab" y="320.8465"/><path d="m980.195312 2526.317187v-48.632812l2111.914063-22.773438v48.59375zm0 0" fill="none" stroke="#000" stroke-linejoin="round" stroke-miterlimit="10" stroke-width="3.98904" transform="matrix(.1 0 0 -.1 0 541.37)"/><path d="m98.019531 288.738281v4.863281l211.191407 2.277344v-4.859375zm0 0"/><path d="m1195.742188 1731.35625h66.71875v3.515625h-66.71875zm0 0" fill="none" stroke="#000" stroke-linejoin="round" stroke-miterlimit="10" stroke-width="5.62192" transform="matrix(.1 0 0 -.1 0 541.37)"/><path d="m119.574219 368.234375h6.667969v-.351563h-6.667969zm0 0"/><path d="m2587.070312 1731.35625h66.679688v3.515625h-66.679688zm0 0" fill="none" stroke="#000" stroke-linejoin="round" stroke-miterlimit="10" stroke-width="5.62192" transform="matrix(.1 0 0 -.1 0 541.37)"/><path d="m258.703125 368.234375h6.671875v-.351563h-6.671875zm0 0"/><path d="m4154.6875 1731.35625h66.71875v3.515625h-66.71875zm0 0" fill="none" stroke="#000" stroke-linejoin="round" stroke-miterlimit="10" stroke-width="5.62192" transform="matrix(.1 0 0 -.1 0 541.37)"/><path d="m415.46875 368.234375h6.671875v-.351563h-6.671875zm0 0"/><path d="m4904.570312 1731.35625h66.679688v3.515625h-66.679688zm0 0" fill="none" stroke="#000" stroke-linejoin="round" stroke-miterlimit="10" stroke-width="5.62192" transform="matrix(.1 0 0 -.1 0 541.37)"/><path d="m490.457031 368.234375h6.667969v-.351563h-6.667969zm0 0"/><path d="m4647.34375 2322.528125h707.421875v48.632812h-707.421875zm0 0" fill="none" stroke="#000" stroke-linejoin="round" stroke-miterlimit="10" stroke-width="3.98904" transform="matrix(.1 0 0 -.1 0 541.37)"/><path d="m464.734375 309.117188h70.742187v-4.863282h-70.742187zm0 0"/><path d="m5349.609375 2009.598437h5.15625v335.234375h-5.15625zm0 0" fill="none" stroke="#000" stroke-linejoin="round" stroke-miterlimit="10" stroke-width="3.98904" transform="matrix(.1 0 0 -.1 0 541.37)"/><path d="m534.960938 340.410156h.515624v-33.523437h-.515624zm0 0"/><use x="514.32" xlink:href="#J" y="375.641"/><use x="529.286834" xlink:href="#F" y="375.641"/><use x="535.239556" xlink:href="#D" y="375.641"/><use x="521.36648" xlink:href="#ab" y="342.7644"/><use x="8.76748" xlink:href="#ad" y="326.3261"/><path d="m980.195312 2228.778125h5.15625v271.171875h-5.15625zm0 0" fill="none" stroke="#000" stroke-linejoin="round" stroke-miterlimit="10" stroke-width="3.98904" transform="matrix(.1 0 0 -.1 0 541.37)"/><path d="m98.019531 318.492188h.515625v-27.117188h-.515625zm0 0"/><use x="73.6363" xlink:href="#U" y="375.641"/><use x="87.242559" xlink:href="#V" y="375.641"/><use x="102.039446" xlink:href="#C" y="375.641"/><use x="84.4242" xlink:href="#ab" y="320.8465"/><use x="48.2597" xlink:href="#ac" y="315.3672"/><use x="217.7437" xlink:href="#U" y="375.641"/><use x="231.349953" xlink:href="#P" y="375.641"/><path d="m3086.953125 2173.973437h5.15625v303.28125h-5.15625zm0 0" fill="none" stroke="#000" stroke-linejoin="round" stroke-miterlimit="10" stroke-width="3.98904" transform="matrix(.1 0 0 -.1 0 541.37)"/><path d="m308.695312 323.972656h.515626v-30.328125h-.515626zm0 0"/><use x="277.764" xlink:href="#M" y="375.641"/><use x="290.859704" xlink:href="#W" y="375.641"/><use x="305.826507" xlink:href="#L" y="375.641"/><use x="319.263229" xlink:href="#C" y="375.641"/><use x="295.0999" xlink:href="#ab" y="326.3262"/><path d="m2384.726562 2173.973437h5.117188v310.859375h-5.117188zm0 0" fill="none" stroke="#000" stroke-linejoin="round" stroke-miterlimit="10" stroke-width="3.98904" transform="matrix(.1 0 0 -.1 0 541.37)"/><path d="m238.472656 323.972656h.511719v-31.085937h-.511719zm0 0"/><use x="224.876" xlink:href="#ab" y="326.326"/><use x="154.6502" xlink:href="#ab" y="320.84631"/><path d="m1682.460938 2228.778125h5.15625v263.632812h-5.15625zm0 0" fill="none" stroke="#000" stroke-linejoin="round" stroke-miterlimit="10" stroke-width="3.98904" transform="matrix(.1 0 0 -.1 0 541.37)"/><path d="m168.246094 318.492188h.515625v-26.359376h-.515625zm0 0"/><use x="136.294" xlink:href="#C" y="375.641"/><use x="143.777597" xlink:href="#X" y="375.641"/><use x="158.744431" xlink:href="#J" y="375.641"/><use x="173.710856" xlink:href="#Y" y="375.641"/><g clip-path="url(#s)"><path d="m3.515625 725.770312h5945.742187" style="fill:none;stroke-width:7.03562;stroke-linecap:round;stroke-linejoin:round;stroke:#000;stroke-miterlimit:10" transform="matrix(.1 0 0 -.1 0 541.37)"/></g><g clip-path="url(#t)"><path d="m3.515625 835.379687h5945.742187" style="fill:none;stroke-width:7.03562;stroke-linecap:round;stroke-linejoin:round;stroke:#000;stroke-miterlimit:10" transform="matrix(.1 0 0 -.1 0 541.37)"/></g><g clip-path="url(#u)"><path d="m3.515625 944.95h5945.742187" style="fill:none;stroke-width:7.03562;stroke-linecap:round;stroke-linejoin:round;stroke:#000;stroke-miterlimit:10" transform="matrix(.1 0 0 -.1 0 541.37)"/></g><g clip-path="url(#v)"><path d="m3.515625 1054.559375h5945.742187" style="fill:none;stroke-width:7.03562;stroke-linecap:round;stroke-linejoin:round;stroke:#000;stroke-miterlimit:10" transform="matrix(.1 0 0 -.1 0 541.37)"/></g><g clip-path="url(#w)"><path d="m3.515625 1164.129687h5945.742187" style="fill:none;stroke-width:7.03562;stroke-linecap:round;stroke-linejoin:round;stroke:#000;stroke-miterlimit:10" transform="matrix(.1 0 0 -.1 0 541.37)"/></g><path d="m3430.46875 725.770312v438.359375" fill="none" stroke="#000" stroke-linejoin="round" stroke-miterlimit="10" stroke-width="13.3589" transform="matrix(.1 0 0 -.1 0 541.37)"/><path d="m4948.046875 725.770312v438.359375" fill="none" stroke="#000" stroke-linejoin="round" stroke-miterlimit="10" stroke-width="13.3589" transform="matrix(.1 0 0 -.1 0 541.37)"/><g clip-path="url(#x)"><path d="m5931.640625 725.770312v438.359375" fill="none" stroke="#000" stroke-linejoin="round" stroke-miterlimit="10" stroke-width="42.1808" transform="matrix(.1 0 0 -.1 0 541.37)"/></g><path d="m5882.8125 725.770312v438.359375" fill="none" stroke="#000" stroke-linejoin="round" stroke-miterlimit="10" stroke-width="13.3589" transform="matrix(.1 0 0 -.1 0 541.37)"/><path d="m5225.117188 702.410937h5.15625v350.15625h-5.15625zm0 0" fill="none" stroke="#000" stroke-linejoin="round" stroke-miterlimit="10" stroke-width="3.98904" transform="matrix(.1 0 0 -.1 0 541.37)"/><path d="m522.511719 471.128906h.515625v-35.015625h-.515625zm0 0"/><use x="501.507" xlink:href="#J" y="507.2575"/><use x="516.473437" xlink:href="#F" y="507.2575"/><use x="522.426158" xlink:href="#Z" y="507.2575"/><use x="508.19059" xlink:href="#ae" y="474.2712"/><path d="m4350.039062 749.325h5.15625v358.007812h-5.15625zm0 0" fill="none" stroke="#000" stroke-linejoin="round" stroke-miterlimit="10" stroke-width="3.98904" transform="matrix(.1 0 0 -.1 0 541.37)"/><path d="m435.003906 466.4375h.515625v-35.800781h-.515625zm0 0"/><use x="413.596" xlink:href="#A" y="507.2575"/><use x="428.562437" xlink:href="#z" y="507.2575"/><use x="421.40733" xlink:href="#ab" y="468.7919"/><path d="m980.195312 1078.85625v-48.632813l1923.359376 86.835938v48.59375zm0 0" fill="none" stroke="#000" stroke-linejoin="round" stroke-miterlimit="10" stroke-width="3.98904" transform="matrix(.1 0 0 -.1 0 541.37)"/><path d="m98.019531 433.484375v4.863281l192.335938-8.683594v-4.859374zm0 0"/><path d="m3648.59375 804.129687h5.15625v358.007813h-5.15625zm0 0" fill="none" stroke="#000" stroke-linejoin="round" stroke-miterlimit="10" stroke-width="3.98904" transform="matrix(.1 0 0 -.1 0 541.37)"/><path d="m364.859375 460.957031h.515625v-35.800781h-.515625zm0 0"/><path d="m2546.875 415.184375h66.679688v3.515625h-66.679688zm0 0" fill="none" stroke="#000" stroke-linejoin="round" stroke-miterlimit="10" stroke-width="5.62192" transform="matrix(.1 0 0 -.1 0 541.37)"/><path d="m254.6875 499.851562h6.667969v-.351562h-6.667969zm0 0"/><path d="m3958.125 415.184375h66.679688v3.515625h-66.679688zm0 0" fill="none" stroke="#000" stroke-linejoin="round" stroke-miterlimit="10" stroke-width="5.62192" transform="matrix(.1 0 0 -.1 0 541.37)"/><path d="m395.808594 499.851562h6.671875v-.351562h-6.671875zm0 0"/><path d="m4691.835938 415.184375h66.71875v3.515625h-66.71875zm0 0" fill="none" stroke="#000" stroke-linejoin="round" stroke-miterlimit="10" stroke-width="5.62192" transform="matrix(.1 0 0 -.1 0 541.37)"/><path d="m469.183594 499.851562h6.667968v-.351562h-6.667968zm0 0"/><path d="m1770.976562 415.184375h66.71875v3.515625h-66.71875zm0 0" fill="none" stroke="#000" stroke-linejoin="round" stroke-miterlimit="10" stroke-width="5.62192" transform="matrix(.1 0 0 -.1 0 541.37)"/><path d="m177.097656 499.851562h6.667969v-.351562h-6.667969zm0 0"/><use x="148.365" xlink:href="#ab" y="468.7919"/><path d="m980.195312 694.520312h5.15625v358.242188h-5.15625zm0 0" fill="none" stroke="#000" stroke-linejoin="round" stroke-miterlimit="10" stroke-width="3.98904" transform="matrix(.1 0 0 -.1 0 541.37)"/><path d="m98.019531 471.917969h.515625v-35.824219h-.515625zm0 0"/><use x="81.1199" xlink:href="#aa" y="507.2575"/><use x="96.086734" xlink:href="#H" y="507.2575"/><use x="84.4242" xlink:href="#ab" y="474.2712"/><use x="351.2632" xlink:href="#ab" y="463.3126"/><use x="48.2592" xlink:href="#ac" y="446.8739"/><use x="8.7666" xlink:href="#ad" y="457.8329"/><path d="m1619.609375 749.325h5.15625v332.226562h-5.15625zm0 0" fill="none" stroke="#000" stroke-linejoin="round" stroke-miterlimit="10" stroke-width="3.98904" transform="matrix(.1 0 0 -.1 0 541.37)"/><path d="m161.960938 466.4375h.515624v-33.222656h-.515624zm0 0"/><use x="332.141" xlink:href="#N" y="507.2575"/><use x="354.76132" xlink:href="#B" y="507.2575"/><use x="369.727733" xlink:href="#J" y="507.2575"/><path d="m2898.398438 858.934375h5.15625v280.234375h-5.15625zm0 0" fill="none" stroke="#000" stroke-linejoin="round" stroke-miterlimit="10" stroke-width="3.98904" transform="matrix(.1 0 0 -.1 0 541.37)"/><path d="m289.839844 455.476562h.515625v-28.019531h-.515625zm0 0"/><use x="268.434" xlink:href="#C" y="507.2575"/><use x="275.918" xlink:href="#K" y="507.2575"/><use x="290.884412" xlink:href="#C" y="507.2575"/><use x="276.24533" xlink:href="#ab" y="457.8329"/><path d="m2259.023438 804.129687h5.15625v306.210938h-5.15625zm0 0" fill="none" stroke="#000" stroke-linejoin="round" stroke-miterlimit="10" stroke-width="3.98904" transform="matrix(.1 0 0 -.1 0 541.37)"/><path d="m225.902344 460.957031h.511718v-30.621093h-.511718zm0 0"/><use x="191.312" xlink:href="#L" y="507.2575"/><use x="204.748721" xlink:href="#M" y="507.2575"/><use x="217.674894" xlink:href="#V" y="507.2575"/><use x="232.641307" xlink:href="#J" y="507.2575"/><use x="141.488413" xlink:href="#Y" y="507.2575"/><use x="154.584131" xlink:href="#V" y="507.2575"/><use x="212.3061" xlink:href="#ab" y="463.3126"/></svg>