<svg height="534.02em" viewBox="0 0 595.28 534.02" width="595.28em" xmlns="http://www.w3.org/2000/svg" xmlns:xlink="http://www.w3.org/1999/xlink"><clipPath id="a"><path d="m0 83h595.28125v2h-595.28125zm0 0"/></clipPath><clipPath id="b"><path d="m0 72h595.28125v2h-595.28125zm0 0"/></clipPath><clipPath id="c"><path d="m0 62h595.28125v2h-595.28125zm0 0"/></clipPath><clipPath id="d"><path d="m0 51h595.28125v2h-595.28125zm0 0"/></clipPath><clipPath id="e"><path d="m0 41h595.28125v2h-595.28125zm0 0"/></clipPath><clipPath id="f"><path d="m0 208h595.28125v2h-595.28125zm0 0"/></clipPath><clipPath id="g"><path d="m0 198h595.28125v2h-595.28125zm0 0"/></clipPath><clipPath id="h"><path d="m0 187h595.28125v2h-595.28125zm0 0"/></clipPath><clipPath id="i"><path d="m0 177h595.28125v2h-595.28125zm0 0"/></clipPath><clipPath id="j"><path d="m0 167h595.28125v1h-595.28125zm0 0"/></clipPath><clipPath id="k"><path d="m0 334h595.28125v2h-595.28125zm0 0"/></clipPath><clipPath id="l"><path d="m0 323h595.28125v2h-595.28125zm0 0"/></clipPath><clipPath id="m"><path d="m0 313h595.28125v2h-595.28125zm0 0"/></clipPath><clipPath id="n"><path d="m0 302h595.28125v2h-595.28125zm0 0"/></clipPath><clipPath id="o"><path d="m0 292h595.28125v2h-595.28125zm0 0"/></clipPath><clipPath id="p"><path d="m0 459h595.28125v2h-595.28125zm0 0"/></clipPath><clipPath id="q"><path d="m0 449h595.28125v2h-595.28125zm0 0"/></clipPath><clipPath id="r"><path d="m0 438h595.28125v2h-595.28125zm0 0"/></clipPath><clipPath id="s"><path d="m0 428h595.28125v2h-595.28125zm0 0"/></clipPath><clipPath id="t"><path d="m0 418h595.28125v1h-595.28125zm0 0"/></clipPath><clipPath id="u"><path d="m591 416h4.28125v47h-4.28125zm0 0"/></clipPath><symbol id="v" overflow="visible"><path d="m7.359375 0 5.1875-13.53125h-2.421875l-3.828125 10.96875-3.609375-10.96875h-2.421875l4.75 13.53125zm0 0"/></symbol><symbol id="w" overflow="visible"><path d="m13.25-6.046875c0-2.0625-.15625-3.296875-.546875-4.3125-.875-2.21875-2.9375-3.5625-5.46875-3.5625-3.765625 0-6.203125 2.875-6.203125 7.328125 0 4.46875 2.328125 7.1875 6.15625 7.1875 3.09375 0 5.234375-1.75 5.78125-4.703125h-2.171875c-.59375 1.78125-1.8125 2.71875-3.546875 2.71875-1.359375 0-2.53125-.625-3.25-1.765625-.515625-.765625-.6875-1.546875-.71875-2.890625zm-9.921875-1.75c.1875-2.515625 1.703125-4.140625 3.875-4.140625 2.203125 0 3.71875 1.703125 3.71875 4.140625zm0 0"/></symbol><symbol id="x" overflow="visible"><path d="m1.8125-13.53125v13.53125h2.171875v-8.5c0-1.953125 1.40625-3.53125 3.171875-3.53125 1.59375 0 2.5.984375 2.5 2.703125v9.328125h2.171875v-8.5c0-1.953125 1.421875-3.53125 3.171875-3.53125 1.578125 0 2.515625 1 2.515625 2.703125v9.328125h2.171875v-10.15625c0-2.421875-1.40625-3.765625-3.9375-3.765625-1.796875 0-2.890625.546875-4.15625 2.0625-.796875-1.4375-1.875-2.0625-3.640625-2.0625-1.8125 0-3.015625.671875-4.15625 2.296875v-1.90625zm0 0"/></symbol><symbol id="y" overflow="visible"><path d="m2.25-2.6875v2.6875h1.546875v.46875c0 1.78125-.328125 2.296875-1.546875 2.34375v.984375c1.703125.046875 2.703125-1.1875 2.703125-3.390625v-3.09375zm0 0"/></symbol><symbol id="z" overflow="visible"><path d="m11.3125-9.765625c-.03125-2.65625-1.78125-4.15625-4.90625-4.15625-3.15625 0-5.1875 1.625-5.1875 4.140625 0 2.109375 1.078125 3.125 4.28125 3.890625l2.015625.5c1.5.359375 2.09375.890625 2.09375 1.859375 0 1.28125-1.265625 2.140625-3.15625 2.140625-1.15625 0-2.140625-.34375-2.6875-.90625-.328125-.390625-.484375-.78125-.609375-1.734375h-2.28125c.109375 3.125 1.859375 4.625 5.40625 4.625 3.40625 0 5.578125-1.671875 5.578125-4.28125 0-2.015625-1.140625-3.125-3.828125-3.78125l-2.0625-.484375c-1.765625-.421875-2.5-.984375-2.5-1.9375 0-1.265625 1.109375-2.046875 2.859375-2.046875 1.734375 0 2.65625.75 2.71875 2.171875zm0 0"/></symbol><symbol id="A" overflow="visible"><path d="m11.4375-13.53125h-10.09375v1.875h7.546875l-8.09375 9.71875v1.9375h11v-1.890625h-8.390625l8.03125-9.734375zm0 0"/></symbol><symbol id="B" overflow="visible"><path d="m4.578125-13.53125h-2.15625v13.53125h2.15625zm-.421875-5.578125-2.484375 3.8125h1.5625l3.84375-3.8125zm0 0"/></symbol><symbol id="C" overflow="visible"><path d="m1.78125-13.53125v13.53125h2.171875v-7.03125c.03125-3.25 1.375-4.6875 4.34375-4.625v-2.1875c-.375-.046875-.578125-.078125-.828125-.078125-1.40625 0-2.453125.828125-3.703125 2.84375v-2.453125zm0 0"/></symbol><symbol id="D" overflow="visible"><path d="m13.8125-1.265625c-.234375.046875-.328125.046875-.453125.046875-.75 0-1.171875-.375-1.171875-1.046875v-7.96875c0-2.390625-1.75-3.6875-5.078125-3.6875-2 0-3.578125.5625-4.5 1.578125-.625.6875-.875 1.46875-.9375 2.8125h2.171875c.1875-1.65625 1.171875-2.40625 3.1875-2.40625 1.953125 0 3.015625.734375 3.015625 2.015625v.578125c-.03125.921875-.484375 1.265625-2.25 1.484375-3.046875.390625-3.515625.5-4.328125.828125-1.578125.671875-2.390625 1.859375-2.390625 3.625 0 2.453125 1.71875 4 4.453125 4 1.703125 0 3.0625-.59375 4.59375-1.984375.15625 1.390625.828125 1.984375 2.21875 1.984375.46875 0 .75-.046875 1.46875-.234375zm-3.765625-3c0 .734375-.203125 1.171875-.859375 1.765625-.875.796875-1.9375 1.203125-3.203125 1.203125-1.671875 0-2.65625-.796875-2.65625-2.171875 0-1.40625.9375-2.140625 3.265625-2.46875 2.296875-.3125 2.734375-.421875 3.453125-.75zm0 0"/></symbol><symbol id="E" overflow="visible"><path d="m1.8125-13.53125v13.53125h2.171875v-7.46875c0-2.765625 1.4375-4.5625 3.65625-4.5625 1.703125 0 2.796875 1.03125 2.796875 2.65625v9.375h2.140625v-10.234375c0-2.234375-1.671875-3.6875-4.28125-3.6875-2.015625 0-3.3125.78125-4.5 2.65625v-2.265625zm0 0"/></symbol><symbol id="F" overflow="visible"><path d="m10.4375-13.53125v1.953125c-1.09375-1.625-2.28125-2.34375-3.984375-2.34375-3.28125 0-5.546875 3.046875-5.546875 7.390625 0 2.265625.546875 3.921875 1.703125 5.296875 1 1.1875 2.296875 1.828125 3.6875 1.828125 1.625 0 2.796875-.71875 3.9375-2.421875v.6875c0 3.625-1.015625 4.96875-3.703125 4.96875-1.828125 0-2.78125-.734375-3-2.28125h-2.1875c.203125 2.515625 2.1875 4.078125 5.140625 4.078125 1.984375 0 3.640625-.640625 4.515625-1.71875 1.03125-1.265625 1.421875-2.953125 1.421875-6.125v-11.3125zm-3.78125 1.59375c2.28125 0 3.578125 1.921875 3.578125 5.34375 0 3.28125-1.328125 5.203125-3.578125 5.203125-2.21875 0-3.5-1.9375-3.5-5.265625 0-3.3125 1.28125-5.28125 3.5-5.28125zm0 0"/></symbol><symbol id="G" overflow="visible"><path d="m10.015625-13.53125-3.734375 10.53125-3.46875-10.53125h-2.296875l4.578125 13.578125-.828125 2.15625c-.359375.953125-.828125 1.3125-1.734375 1.3125-.359375 0-.671875-.046875-1.140625-.15625v1.9375c.4375.234375.875.328125 1.453125.328125.6875 0 1.4375-.234375 2.015625-.640625.671875-.484375 1.0625-1.0625 1.46875-2.140625l6.015625-16.375zm0 0"/></symbol><symbol id="H" overflow="visible"><path d="m14.25-18.828125v13.21875c0 2.53125-1.828125 4.078125-4.84375 4.078125-1.40625 0-2.53125-.328125-3.4375-.96875-.9375-.734375-1.375-1.6875-1.375-3.109375v-13.21875h-2.390625v13.21875c0 3.828125 2.734375 6.203125 7.203125 6.203125 4.40625 0 7.25-2.421875 7.25-6.203125v-13.21875zm0 0"/></symbol><symbol id="I" overflow="visible"><path d="m12.453125 0v-13.53125h-2.140625v7.671875c0 2.765625-1.453125 4.5625-3.703125 4.5625-1.703125 0-2.78125-1.03125-2.78125-2.65625v-9.578125h-2.15625v10.4375c0 2.234375 1.6875 3.6875 4.3125 3.6875 2 0 3.265625-.703125 4.53125-2.484375v1.890625zm-6.171875-19.109375-2.484375 3.875h1.546875l3.84375-3.875zm4.484375 0-2.46875 3.875h1.546875l3.84375-3.875zm0 0"/></symbol><symbol id="J" overflow="visible"><path d="m5.546875-13.53125h-2.6875v2.6875h2.6875zm-2.703125 10.84375v2.6875h1.546875v.46875c0 1.78125-.328125 2.296875-1.546875 2.34375v.984375c1.703125.046875 2.703125-1.1875 2.703125-3.390625v-3.09375zm0 0"/></symbol><symbol id="K" overflow="visible"><path d="m6.5625-13.53125h-2.21875v-3.71875h-2.140625v3.71875h-1.84375v1.75h1.84375v10.234375c0 1.390625.921875 2.140625 2.59375 2.140625.578125 0 1.046875-.046875 1.765625-.1875v-1.796875c-.3125.078125-.59375.09375-1.03125.09375-.9375 0-1.1875-.25-1.1875-1.203125v-9.28125h2.21875zm0 0"/></symbol><symbol id="L" overflow="visible"><path d="m12.453125 0v-13.53125h-2.140625v7.671875c0 2.765625-1.453125 4.5625-3.703125 4.5625-1.703125 0-2.78125-1.03125-2.78125-2.65625v-9.578125h-2.15625v10.4375c0 2.234375 1.6875 3.6875 4.3125 3.6875 2 0 3.265625-.703125 4.53125-2.484375v1.890625zm-4.8125-19.109375-2.46875 3.8125h1.546875l3.84375-3.8125zm0 0"/></symbol><symbol id="M" overflow="visible"><path d="m3.921875-18.828125h-2.171875v18.828125h2.171875zm0 0"/></symbol><symbol id="N" overflow="visible"><path d="m15.390625-13.296875c0-1.296875-.078125-1.65625-.484375-2.53125-1.03125-2.171875-3.234375-3.3125-6.40625-3.3125-4.140625 0-6.6875 2.125-6.6875 5.53125 0 2.296875 1.203125 3.75 3.6875 4.390625l4.671875 1.234375c2.40625.625 3.46875 1.578125 3.46875 3.046875 0 1.015625-.546875 2.046875-1.34375 2.609375-.75.546875-1.9375.796875-3.46875.796875-2.0625 0-3.4375-.484375-4.328125-1.5625-.703125-.828125-1.015625-1.734375-.984375-2.890625h-2.28125c.03125 1.71875.359375 2.859375 1.109375 3.890625 1.296875 1.78125 3.46875 2.6875 6.328125 2.6875 2.25 0 4.09375-.515625 5.296875-1.453125 1.265625-1 2.078125-2.671875 2.078125-4.3125 0-2.3125-1.453125-4.015625-4.015625-4.71875l-4.71875-1.265625c-2.28125-.625-3.109375-1.34375-3.109375-2.796875 0-1.90625 1.6875-3.171875 4.21875-3.171875 3 0 4.671875 1.34375 4.703125 3.828125zm0 0"/></symbol><symbol id="O" overflow="visible"><path d="m13.25-6.046875c0-2.0625-.15625-3.296875-.546875-4.3125-.875-2.21875-2.9375-3.5625-5.46875-3.5625-3.765625 0-6.203125 2.875-6.203125 7.328125 0 4.46875 2.328125 7.1875 6.15625 7.1875 3.09375 0 5.234375-1.75 5.78125-4.703125h-2.171875c-.59375 1.78125-1.8125 2.71875-3.546875 2.71875-1.359375 0-2.53125-.625-3.25-1.765625-.515625-.765625-.6875-1.546875-.71875-2.890625zm-9.921875-1.75c.1875-2.515625 1.703125-4.140625 3.875-4.140625 2.203125 0 3.71875 1.703125 3.71875 4.140625zm4.625-11.3125-2.484375 3.8125h1.5625l3.84375-3.8125zm0 0"/></symbol><symbol id="P" overflow="visible"><path d="m7.03125-13.921875c-3.828125 0-6.09375 2.71875-6.09375 7.265625 0 4.5625 2.265625 7.25 6.109375 7.25 3.828125 0 6.125-2.71875 6.125-7.15625 0-4.703125-2.21875-7.359375-6.140625-7.359375zm.015625 1.984375c2.4375 0 3.875 2 3.875 5.34375 0 3.203125-1.5 5.203125-3.875 5.203125-2.390625 0-3.875-2-3.875-5.265625 0-3.28125 1.484375-5.28125 3.875-5.28125zm0 0"/></symbol><symbol id="Q" overflow="visible"><path d="m3.640625-18.828125h-2.140625v18.828125h2.140625v-5.265625l2.09375-2.0625 4.578125 7.328125h2.65625l-5.53125-8.859375 4.703125-4.671875h-2.765625l-5.734375 5.734375zm0 0"/></symbol><symbol id="R" overflow="visible"><path d="m12.78125-18.828125h-2.140625v7c-.90625-1.375-2.34375-2.09375-4.15625-2.09375-3.515625 0-5.8125 2.8125-5.8125 7.125 0 4.578125 2.21875 7.390625 5.890625 7.390625 1.859375 0 3.15625-.703125 4.3125-2.375v1.78125h1.90625zm-5.9375 6.921875c2.328125 0 3.796875 2.046875 3.796875 5.296875 0 3.125-1.5 5.1875-3.765625 5.1875-2.375 0-3.953125-2.09375-3.953125-5.234375 0-3.15625 1.578125-5.25 3.921875-5.25zm0 0"/></symbol><symbol id="S" overflow="visible"><path d="m16.6875-18.828125h-2.28125v15.390625l-9.828125-15.390625h-2.609375v18.828125h2.265625v-15.265625l9.734375 15.265625h2.71875zm0 0"/></symbol><symbol id="T" overflow="visible"><path d="m7.03125-13.921875c-3.828125 0-6.09375 2.71875-6.09375 7.265625 0 4.5625 2.265625 7.25 6.109375 7.25 3.828125 0 6.125-2.71875 6.125-7.15625 0-4.703125-2.21875-7.359375-6.140625-7.359375zm.015625 1.984375c2.4375 0 3.875 2 3.875 5.34375 0 3.203125-1.5 5.203125-3.875 5.203125-2.390625 0-3.875-2-3.875-5.265625 0-3.28125 1.484375-5.28125 3.875-5.28125zm-.75-6.53125h-2.6875v2.65625h2.6875zm4.1875 0h-2.6875v2.65625h2.6875zm0 0"/></symbol><symbol id="U" overflow="visible"><path d="m4.9375-2.6875h-2.6875v2.6875h2.6875zm0 0"/></symbol><symbol id="V" overflow="visible"><path d="m12.09375 0 5.28125-15.78125v15.78125h2.28125v-18.828125h-3.328125l-5.484375 16.40625-5.578125-16.40625h-3.328125v18.828125h2.265625v-15.78125l5.359375 15.78125zm0 0"/></symbol><symbol id="W" overflow="visible"><path d="m3.875-13.53125h-2.140625v13.53125h2.140625zm0-5.296875h-2.171875v2.71875h2.171875zm0 0"/></symbol><symbol id="X" overflow="visible"><path d="m1.8125-18.828125v18.828125h2.140625v-7.46875c0-2.765625 1.4375-4.5625 3.671875-4.5625.71875 0 1.390625.203125 1.90625.59375.625.453125.875 1.109375.875 2.0625v9.375h2.140625v-10.234375c0-2.265625-1.625-3.6875-4.25-3.6875-1.921875 0-3.078125.59375-4.34375 2.25v-7.15625zm0 0"/></symbol><symbol id="Y" overflow="visible"><path d="m12.453125 0v-13.53125h-2.140625v7.671875c0 2.765625-1.453125 4.5625-3.703125 4.5625-1.703125 0-2.78125-1.03125-2.78125-2.65625v-9.578125h-2.15625v10.4375c0 2.234375 1.6875 3.6875 4.3125 3.6875 2 0 3.265625-.703125 4.53125-2.484375v1.890625zm-6.125-18.46875h-2.6875v2.65625h2.6875zm4.1875 0h-2.6875v2.65625h2.6875zm0 0"/></symbol><symbol id="Z" overflow="visible"><path d="m6.65625-13.53125h-2.234375v-2.125c0-.90625.484375-1.359375 1.5-1.359375.171875 0 .25 0 .734375.015625v-1.78125c-.484375-.09375-.765625-.125-1.203125-.125-1.984375 0-3.1875 1.140625-3.1875 3.078125v2.296875h-1.796875v1.75h1.796875v11.78125h2.15625v-11.78125h2.234375zm0 0"/></symbol><symbol id="aa" overflow="visible"><path d="m13.21875-2.796875c0 .40625-.125.875-.421875 1.203125-.875 1.046875-2.875 2.34375-4.46875 3.34375-1.59375 1.015625-3.59375 2.34375-4.890625 2.734375-.171875.03125-.390625.078125-.546875.078125-.921875 0-1.765625-.71875-1.765625-1.765625 0-.40625.125-.875.421875-1.203125.875-1.046875 2.890625-2.34375 4.484375-3.34375 1.578125-1.015625 3.59375-2.34375 4.890625-2.734375.171875-.03125.375-.078125.546875-.078125.921875 0 1.75.71875 1.75 1.765625zm-2.125-2.859375c-3.140625 0-5.703125.671875-7.90625 2.1875-1.34375.921875-2.21875 2.34375-2.734375 3.890625-.25.75-.453125 1.59375-.453125 2.375 0 1.96875 1.421875 2.859375 3.265625 2.859375 3.140625 0 5.6875-.671875 7.90625-2.1875 1.34375-.921875 2.21875-2.34375 2.71875-3.890625.25-.75.46875-1.59375.46875-2.375 0-1.96875-1.421875-2.859375-3.265625-2.859375zm0 0"/></symbol><symbol id="ab" overflow="visible"><path d="m9 13.21875v-6.8125l2.046875-.71875c.25-.078125.453125-.328125.453125-.625v-2.71875c0-.453125-.453125-.796875-.875-.625l-1.625.578125v-6.859375l2.046875-.75c.25-.078125.453125-.34375.453125-.625v-2.6875c0-.453125-.453125-.796875-.875-.625l-1.625.546875v-6.28125c0-.375-.34375-.703125-.71875-.703125s-.703125.328125-.703125.703125v6.78125l-3.640625 1.296875v-6.3125c0-.375-.34375-.71875-.71875-.71875s-.703125.34375-.703125.71875v6.8125l-2.0625.71875c-.25.078125-.453125.328125-.453125.625v2.71875c0 .453125.453125.796875.875.625l1.640625-.578125v6.859375l-2.0625.75c-.25.078125-.453125.34375-.453125.625v2.6875c0 .453125.453125.796875.875.625l1.640625-.546875v6.28125c0 .375.328125.703125.703125.703125s.71875-.328125.71875-.703125v-6.78125l3.640625-1.296875v6.3125c0 .375.328125.71875.703125.71875s.71875-.34375.71875-.71875zm-5.0625-16.015625 3.640625-1.265625v6.859375l-3.640625 1.265625zm0 0"/></symbol><symbol id="ac" overflow="visible"><path d="m9.296875-5.65625c-1.765625 0-3.4375.59375-4.9375 1.515625-1.96875 1.171875-4.359375 3.21875-4.359375 6.1875 0 2.46875 2.171875 3.609375 4.390625 3.609375 1.765625 0 3.4375-.59375 4.9375-1.515625 1.96875-1.171875 4.3125-3.21875 4.3125-6.1875 0-2.46875-2.140625-3.609375-4.34375-3.609375zm0 0"/></symbol><symbol id="ad" overflow="visible"><path d="m15.359375 0c.171875 0 .328125-.171875.328125-.328125v-5.859375c0-.171875-.15625-.34375-.328125-.34375h-15.03125c-.15625 0-.328125.171875-.328125.34375v5.859375c0 .15625.171875.328125.328125.328125zm0 0"/></symbol><symbol id="ae" overflow="visible"><path d="m15.65625-10.875c-.671875-2.9375-1.46875-5.828125-2.3125-8.703125 4.015625-4.5625 7.65625-9.25 7.65625-15.28125 0-4.71875-2.59375-11.5-5.515625-15.015625-.21875-.171875-.46875-.171875-.671875 0-3.96875 2.890625-6.28125 7.484375-6.28125 12.34375 0 2.171875.046875 4.3125.296875 6.4375.296875 2.71875 1 5.359375 1.765625 8-4.9375 5.609375-10.515625 10.953125-10.515625 18.40625 0 8.40625 6.078125 15.5625 13.9375 15.5625 1.296875 0 2.515625-.125 3.71875-.328125.140625 1.34375.21875 2.671875.21875 4.015625 0 .75-.046875 1.46875-.078125 2.21875-.265625 4.140625-2.8125 7.953125-6.703125 8.03125-.046875 0-.078125.046875-.125.046875-2.140625 0-3.96875-1.21875-5.0625-2.9375.453125.21875.96875.375 1.46875.375 2.171875 0 3.96875-1.796875 3.96875-3.96875 0-2.34375-1.71875-4.359375-3.96875-4.359375-2.46875 0-4.6875 1.9375-4.6875 4.359375 0 4.515625 3.640625 8.15625 8.15625 8.15625 4.9375 0 8.328125-4.4375 8.625-9.453125.03125-.796875.03125-1.546875.03125-2.34375 0-1.5-.078125-3.015625-.203125-4.515625 1.09375-.34375 2.125-.84375 3.046875-1.546875 3.109375-2.3125 4.484375-5.53125 4.484375-8.703125 0-5.53125-4.1875-10.84375-10.625-10.84375-.21875 0-.421875.046875-.625.046875zm3.546875 19.453125c-.578125-5.1875-1.546875-10.125-2.59375-15.015625 4.609375.375 7.5 4.21875 7.5 8.0625 0 2.9375-2.015625 5.953125-4.90625 6.953125zm-16.234375-9.875c0-6.6875 4.515625-11.765625 9.046875-16.828125.65625 2.46875 1.328125 4.9375 1.921875 7.453125-4.234375.96875-6.609375 4.515625-6.609375 8.203125 0 2.921875 1.5 5.90625 4.84375 7.703125.125.03125.25.078125.375.078125.46875 0 .84375-.421875.84375-.875 0-.21875-.125-.421875-.296875-.59375-2.34375-1.328125-3.421875-3.34375-3.421875-5.1875 0-2.46875 1.921875-4.6875 5.21875-5.0625 1.09375 5.03125 2.0625 10 2.6875 15.359375-1.140625.171875-2.265625.25-3.4375.25-5.6875 0-11.171875-4.8125-11.171875-10.5zm14.234375-42.640625c.703125 2.21875.875 3.3125.875 5.734375 0 5.3125-2.8125 9.546875-6.234375 13.59375-.75-2.625-1.390625-5.1875-1.390625-8.359375 0-4.65625 2.609375-8.875 6.75-10.96875zm0 0"/></symbol><symbol id="af" overflow="visible"><path d="m9-4.765625c3.296875 0 5.765625 2.546875 5.765625 5.859375 0 1.921875-.828125 3.671875-2.921875 3.671875-3.3125 0-5.8125-2.546875-5.8125-5.859375 0-1.921875.875-3.671875 2.96875-3.671875zm11.796875 4.765625c0-1.796875-1.46875-3.09375-3.0625-3.96875-2.25-1.21875-4.765625-1.6875-7.3125-1.6875-2.5625 0-5.109375.46875-7.375 1.6875-1.578125.875-3.046875 2.171875-3.046875 3.96875s1.46875 3.09375 3.046875 3.96875c2.265625 1.21875 4.8125 1.6875 7.375 1.6875 2.546875 0 5.0625-.46875 7.3125-1.6875 1.59375-.875 3.0625-2.171875 3.0625-3.96875zm0 0"/></symbol><symbol id="ag" overflow="visible"><path d="m5.484375-11.25v11.25h3.21875v-16.3125h-2.140625c-.515625 1.921875-2.1875 2.921875-5 2.921875v2.140625zm0 0"/></symbol><symbol id="ah" overflow="visible"><path d="m4.921875-3.359375h-3.453125v3.359375h3.453125zm0 0"/></symbol><symbol id="ai" overflow="visible"><path d="m9.359375-1.984375c0 .296875-.09375.625-.296875.859375-.625.734375-2.046875 1.65625-3.171875 2.375-1.125.703125-2.546875 1.65625-3.46875 1.921875-.109375.03125-.265625.046875-.375.046875-.65625 0-1.25-.5-1.25-1.234375 0-.296875.09375-.625.296875-.859375.625-.734375 2.046875-1.65625 3.171875-2.375 1.125-.703125 2.546875-1.65625 3.453125-1.921875.125-.03125.265625-.046875.390625-.046875.65625 0 1.25.5 1.25 1.234375zm-1.515625-2.015625c-2.21875 0-4.03125.484375-5.59375 1.546875-.953125.640625-1.5625 1.65625-1.921875 2.75-.1875.53125-.328125 1.125-.328125 1.6875 0 1.390625 1 2.015625 2.3125 2.015625 2.21875 0 4.015625-.484375 5.59375-1.546875.9375-.640625 1.5625-1.65625 1.921875-2.75.171875-.53125.328125-1.125.328125-1.6875 0-1.390625-1.015625-2.015625-2.3125-2.015625zm0 0"/></symbol><g clip-path="url(#a)"><path d="m3.4375 4503.559375h5945.898438" fill="none" stroke="#000" stroke-linecap="round" stroke-miterlimit="10" stroke-width="6.86227" transform="matrix(.1 0 0 -.1 0 534.02)"/></g><g clip-path="url(#b)"><path d="m3.4375 4608.16875h5945.898438" fill="none" stroke="#000" stroke-linecap="round" stroke-miterlimit="10" stroke-width="6.86227" transform="matrix(.1 0 0 -.1 0 534.02)"/></g><g clip-path="url(#c)"><path d="m3.4375 4712.778125h5945.898438" fill="none" stroke="#000" stroke-linecap="round" stroke-miterlimit="10" stroke-width="6.86227" transform="matrix(.1 0 0 -.1 0 534.02)"/></g><g clip-path="url(#d)"><path d="m3.4375 4817.3875h5945.898438" fill="none" stroke="#000" stroke-linecap="round" stroke-miterlimit="10" stroke-width="6.86227" transform="matrix(.1 0 0 -.1 0 534.02)"/></g><g clip-path="url(#e)"><path d="m3.4375 4921.996875h5945.898438" fill="none" stroke="#000" stroke-linecap="round" stroke-miterlimit="10" stroke-width="6.86227" transform="matrix(.1 0 0 -.1 0 534.02)"/></g><path d="m5007.265625 4533.6375h4.921875v334.0625h-4.921875zm0 0" style="fill:none;stroke-width:3.98555;stroke-linecap:round;stroke-linejoin:round;stroke:#000;stroke-miterlimit:10" transform="matrix(.1 0 0 -.1 0 534.02)"/><path d="m500.726562 80.65625h.492188v-33.40625h-.492188zm0 0"/><use x="466.519" xlink:href="#v" y="121.467"/><use x="478.935027" xlink:href="#w" y="121.467"/><use x="493.220983" xlink:href="#x" y="121.467"/><use x="514.821817" xlink:href="#y" y="121.467"/><use x="487.0651" xlink:href="#aa" y="83.6631"/><use x="411.2862" xlink:href="#ab" y="88.89357"/><path d="m4394.21875 4473.832812h4.921875v341.5625h-4.921875zm0 0" style="fill:none;stroke-width:3.98555;stroke-linecap:round;stroke-linejoin:round;stroke:#000;stroke-miterlimit:10" transform="matrix(.1 0 0 -.1 0 534.02)"/><path d="m439.421875 86.636719h.492187v-34.15625h-.492187zm0 0"/><use x="416.786" xlink:href="#z" y="121.467"/><use x="429.712575" xlink:href="#A" y="121.467"/><use x="442.638759" xlink:href="#B" y="121.467"/><use x="426.45397" xlink:href="#ac" y="88.8936"/><path d="m3866.796875 4533.6375h4.921875v334.0625h-4.921875zm0 0" style="fill:none;stroke-width:3.98555;stroke-linecap:round;stroke-linejoin:round;stroke:#000;stroke-miterlimit:10" transform="matrix(.1 0 0 -.1 0 534.02)"/><path d="m386.679688 80.65625h.492187v-33.40625h-.492187zm0 0"/><use x="368.8" xlink:href="#C" y="121.467"/><use x="377.303922" xlink:href="#D" y="121.467"/><use x="373.01914" xlink:href="#aa" y="83.6631"/><path d="m3304.765625 4578.442187h4.960937v341.5625h-4.960937zm0 0" style="fill:none;stroke-width:3.98555;stroke-linecap:round;stroke-linejoin:round;stroke:#000;stroke-miterlimit:10" transform="matrix(.1 0 0 -.1 0 534.02)"/><path d="m330.476562 76.175781h.492188v-34.15625h-.492188zm0 0"/><use x="296.616" xlink:href="#E" y="121.467"/><use x="310.901956" xlink:href="#D" y="121.467"/><use x="325.019162" xlink:href="#F" y="121.467"/><use x="339.135978" xlink:href="#G" y="121.467"/><use x="317.509" xlink:href="#ac" y="78.4326"/><path d="m1051.484375 4196.254687h63.554687v3.4375h-63.554687zm0 0" style="fill:none;stroke-width:5.49191;stroke-linecap:round;stroke-linejoin:round;stroke:#000;stroke-miterlimit:10" transform="matrix(.1 0 0 -.1 0 534.02)"/><path d="m105.148438 114.394531h6.355468v-.34375h-6.355468zm0 0"/><path d="m3572.539062 4196.254687h63.554688v3.4375h-63.554688zm0 0" style="fill:none;stroke-width:5.49191;stroke-linecap:round;stroke-linejoin:round;stroke:#000;stroke-miterlimit:10" transform="matrix(.1 0 0 -.1 0 534.02)"/><path d="m357.253906 114.394531h6.355469v-.34375h-6.355469zm0 0"/><path d="m4549.726562 4196.254687h63.554688v3.4375h-63.554688zm0 0" style="fill:none;stroke-width:5.49191;stroke-linecap:round;stroke-linejoin:round;stroke:#000;stroke-miterlimit:10" transform="matrix(.1 0 0 -.1 0 534.02)"/><path d="m454.972656 114.394531h6.355469v-.34375h-6.355469zm0 0"/><use x="540.501" xlink:href="#ad" y="62.742"/><use x="8.369" xlink:href="#ae" y="73.2025"/><path d="m963.007812 4533.6375h4.921876v334.0625h-4.921876zm0 0" style="fill:none;stroke-width:3.98555;stroke-linecap:round;stroke-linejoin:round;stroke:#000;stroke-miterlimit:10" transform="matrix(.1 0 0 -.1 0 534.02)"/><path d="m96.300781 80.65625h.492188v-33.40625h-.492188zm0 0"/><use x="50.7828" xlink:href="#ag" y="121.467"/><use x="63.538667" xlink:href="#ah" y="121.467"/><use x="80.4621" xlink:href="#H" y="121.467"/><use x="44.9812" xlink:href="#ab" y="41.8197"/><path d="m818.398438 5034.926562h6.40625v198.867188h-6.40625zm0 0" style="fill:none;stroke-width:3.201;stroke-linecap:round;stroke-linejoin:round;stroke:#000;stroke-miterlimit:10" transform="matrix(.1 0 0 -.1 0 534.02)"/><path d="m81.839844 30.527344h.640625v-19.886719h-.640625zm0 0"/><use x="72.491" xlink:href="#ai" y="32.671"/><use x="82.6402" xlink:href="#aa" y="83.6632"/><use x="204.0132" xlink:href="#ac" y="88.89367"/><path d="m2724.101562 4630.746875h4.921876v341.5625h-4.921876zm0 0" style="fill:none;stroke-width:3.98555;stroke-linecap:round;stroke-linejoin:round;stroke:#000;stroke-miterlimit:10" transform="matrix(.1 0 0 -.1 0 534.02)"/><path d="m272.410156 70.945312h.492188v-34.15625h-.492188zm0 0"/><use x="252.666" xlink:href="#I" y="121.467"/><use x="266.952347" xlink:href="#A" y="121.467"/><use x="259.44256" xlink:href="#ac" y="73.2022"/><path d="m2169.804688 4473.832812h4.921874v341.5625h-4.921874zm0 0" style="fill:none;stroke-width:3.98555;stroke-linecap:round;stroke-linejoin:round;stroke:#000;stroke-miterlimit:10" transform="matrix(.1 0 0 -.1 0 534.02)"/><path d="m216.980469 86.636719h.492187v-34.15625h-.492187zm0 0"/><use x="185.756" xlink:href="#E" y="121.467"/><use x="200.042347" xlink:href="#w" y="121.467"/><use x="214.328303" xlink:href="#x" y="121.467"/><path d="m1497.34375 4585.942187h4.960938v334.0625h-4.960938zm0 0" style="fill:none;stroke-width:3.98555;stroke-linecap:round;stroke-linejoin:round;stroke:#000;stroke-miterlimit:10" transform="matrix(.1 0 0 -.1 0 534.02)"/><path d="m149.734375 75.425781h.492187v-33.40625h-.492187zm0 0"/><use x="117.485" xlink:href="#C" y="121.467"/><use x="125.988922" xlink:href="#D" y="121.467"/><use x="140.274879" xlink:href="#x" y="121.467"/><use x="161.8757" xlink:href="#y" y="121.467"/><use x="136.076" xlink:href="#aa" y="78.4326"/><g clip-path="url(#f)"><path d="m3.4375 3248.285937h5945.898438" style="fill:none;stroke-width:6.86227;stroke-linecap:round;stroke-linejoin:round;stroke:#000;stroke-miterlimit:10" transform="matrix(.1 0 0 -.1 0 534.02)"/></g><g clip-path="url(#g)"><path d="m3.4375 3352.895312h5945.898438" style="fill:none;stroke-width:6.86227;stroke-linecap:round;stroke-linejoin:round;stroke:#000;stroke-miterlimit:10" transform="matrix(.1 0 0 -.1 0 534.02)"/></g><g clip-path="url(#h)"><path d="m3.4375 3457.504687h5945.898438" style="fill:none;stroke-width:6.86227;stroke-linecap:round;stroke-linejoin:round;stroke:#000;stroke-miterlimit:10" transform="matrix(.1 0 0 -.1 0 534.02)"/></g><g clip-path="url(#i)"><path d="m3.4375 3562.114062h5945.898438" style="fill:none;stroke-width:6.86227;stroke-linecap:round;stroke-linejoin:round;stroke:#000;stroke-miterlimit:10" transform="matrix(.1 0 0 -.1 0 534.02)"/></g><g clip-path="url(#j)"><path d="m3.4375 3666.723437h5945.898438" style="fill:none;stroke-width:6.86227;stroke-linecap:round;stroke-linejoin:round;stroke:#000;stroke-miterlimit:10" transform="matrix(.1 0 0 -.1 0 534.02)"/></g><path d="m788.710938 3143.676562h197.96875" style="fill:none;stroke-width:17.323;stroke-linecap:round;stroke-linejoin:round;stroke:#000;stroke-miterlimit:10" transform="matrix(.1 0 0 -.1 0 534.02)"/><use x="335.029" xlink:href="#aa" y="198.732"/><path d="m5065.703125 3382.934375h4.921875v334.0625h-4.921875zm0 0" fill="none" stroke="#000" stroke-linejoin="round" stroke-miterlimit="10" stroke-width="3.98555" transform="matrix(.1 0 0 -.1 0 534.02)"/><path d="m506.570312 195.726562h.492188v-33.40625h-.492188zm0 0"/><use x="485.12" xlink:href="#C" y="253.268"/><use x="493.623507" xlink:href="#D" y="253.268"/><use x="507.909854" xlink:href="#J" y="253.268"/><use x="492.90984" xlink:href="#aa" y="198.7317"/><path d="m4538.554688 3323.16875h4.921874v341.5625h-4.921874zm0 0" fill="none" stroke="#000" stroke-linejoin="round" stroke-miterlimit="10" stroke-width="3.98555" transform="matrix(.1 0 0 -.1 0 534.02)"/><path d="m453.855469 201.703125h.492187v-34.15625h-.492187zm0 0"/><use x="427.053" xlink:href="#F" y="253.268"/><use x="441.169815" xlink:href="#D" y="253.268"/><use x="455.456162" xlink:href="#z" y="253.268"/><use x="440.8885" xlink:href="#ac" y="203.9621"/><path d="m3985.078125 3375.473437h4.960937v341.5625h-4.960937zm0 0" fill="none" stroke="#000" stroke-linejoin="round" stroke-miterlimit="10" stroke-width="3.98555" transform="matrix(.1 0 0 -.1 0 534.02)"/><path d="m398.507812 196.476562h.496094v-34.15625h-.496094zm0 0"/><use x="374.429" xlink:href="#x" y="253.268"/><use x="396.02981" xlink:href="#D" y="253.268"/><use x="385.5427" xlink:href="#ac" y="198.7317"/><path d="m3486.875 3382.934375h4.960938v334.0625h-4.960938zm0 0" fill="none" stroke="#000" stroke-linejoin="round" stroke-miterlimit="10" stroke-width="3.98555" transform="matrix(.1 0 0 -.1 0 534.02)"/><path d="m348.6875 195.726562h.496094v-33.40625h-.496094zm0 0"/><use x="328.599" xlink:href="#K" y="253.268"/><use x="335.742369" xlink:href="#L" y="253.268"/><use x="350.028716" xlink:href="#M" y="253.268"/><path d="m1158.164062 2878.246875h63.554688v3.4375h-63.554688zm0 0" fill="none" stroke="#000" stroke-linejoin="round" stroke-miterlimit="10" stroke-width="5.49191" transform="matrix(.1 0 0 -.1 0 534.02)"/><path d="m115.816406 246.195312h6.355469v-.34375h-6.355469zm0 0"/><path d="m4155.078125 2878.246875h63.515625v3.4375h-63.515625zm0 0" fill="none" stroke="#000" stroke-linejoin="round" stroke-miterlimit="10" stroke-width="5.49191" transform="matrix(.1 0 0 -.1 0 534.02)"/><path d="m415.507812 246.195312h6.351563v-.34375h-6.351563zm0 0"/><path d="m4735.742188 2878.246875h63.554687v3.4375h-63.554687zm0 0" fill="none" stroke="#000" stroke-linejoin="round" stroke-miterlimit="10" stroke-width="5.49191" transform="matrix(.1 0 0 -.1 0 534.02)"/><path d="m473.574219 246.195312h6.351562v-.34375h-6.351562zm0 0"/><use x="543.423" xlink:href="#ad" y="188.271"/><use x="44.981" xlink:href="#ab" y="167.3491"/><path d="m952.539062 3121.410937h4.921876v334.101563h-4.921876zm0 0" fill="none" stroke="#000" stroke-linejoin="round" stroke-miterlimit="10" stroke-width="3.98555" transform="matrix(.1 0 0 -.1 0 534.02)"/><path d="m95.253906 221.878906h.492188v-33.410156h-.492188zm0 0"/><use x="66.9156" xlink:href="#N" y="253.268"/><use x="84.09297" xlink:href="#A" y="253.268"/><use x="96.338691" xlink:href="#w" y="253.268"/><use x="81.5941" xlink:href="#aa" y="224.8836"/><use x="8.3687" xlink:href="#ae" y="198.7316"/><use x="149.2757" xlink:href="#ac" y="209.1925"/><path d="m2955.585938 3278.325h4.960937v334.0625h-4.960937zm0 0" fill="none" stroke="#000" stroke-linejoin="round" stroke-miterlimit="10" stroke-width="3.98555" transform="matrix(.1 0 0 -.1 0 534.02)"/><path d="m295.558594 206.1875h.492187v-33.40625h-.492187zm0 0"/><use x="268.496" xlink:href="#E" y="253.268"/><use x="282.782347" xlink:href="#O" y="253.268"/><use x="296.72885" xlink:href="#A" y="253.268"/><use x="281.8995" xlink:href="#aa" y="209.1926"/><path d="m2328.125 3218.559375h4.921875v341.5625h-4.921875zm0 0" fill="none" stroke="#000" stroke-linejoin="round" stroke-miterlimit="10" stroke-width="3.98555" transform="matrix(.1 0 0 -.1 0 534.02)"/><path d="m232.8125 212.164062h.492188v-34.15625h-.492188zm0 0"/><use x="201.586" xlink:href="#E" y="253.268"/><use x="215.872347" xlink:href="#w" y="253.268"/><use x="230.158694" xlink:href="#x" y="253.268"/><use x="219.8434" xlink:href="#ac" y="214.4231"/><path d="m1622.421875 3270.864062h4.960937v341.5625h-4.960937zm0 0" fill="none" stroke="#000" stroke-linejoin="round" stroke-miterlimit="10" stroke-width="3.98555" transform="matrix(.1 0 0 -.1 0 534.02)"/><path d="m162.242188 206.933594h.496093v-34.15625h-.496093zm0 0"/><use x="127.363" xlink:href="#x" y="253.268"/><use x="148.963822" xlink:href="#w" y="253.268"/><use x="163.249778" xlink:href="#x" y="253.268"/><g clip-path="url(#k)"><path d="m3.4375 1992.973437h5945.898438" style="fill:none;stroke-width:6.86227;stroke-linecap:round;stroke-linejoin:round;stroke:#000;stroke-miterlimit:10" transform="matrix(.1 0 0 -.1 0 534.02)"/></g><g clip-path="url(#l)"><path d="m3.4375 2097.582812h5945.898438" style="fill:none;stroke-width:6.86227;stroke-linecap:round;stroke-linejoin:round;stroke:#000;stroke-miterlimit:10" transform="matrix(.1 0 0 -.1 0 534.02)"/></g><g clip-path="url(#m)"><path d="m3.4375 2202.192187h5945.898438" style="fill:none;stroke-width:6.86227;stroke-linecap:round;stroke-linejoin:round;stroke:#000;stroke-miterlimit:10" transform="matrix(.1 0 0 -.1 0 534.02)"/></g><g clip-path="url(#n)"><path d="m3.4375 2306.801562h5945.898438" style="fill:none;stroke-width:6.86227;stroke-linecap:round;stroke-linejoin:round;stroke:#000;stroke-miterlimit:10" transform="matrix(.1 0 0 -.1 0 534.02)"/></g><g clip-path="url(#o)"><path d="m3.4375 2411.410937h5945.898438" style="fill:none;stroke-width:6.86227;stroke-linecap:round;stroke-linejoin:round;stroke:#000;stroke-miterlimit:10" transform="matrix(.1 0 0 -.1 0 534.02)"/></g><use x="321.802" xlink:href="#ac" y="329.491"/><path d="m4964.53125 1970.746875h4.960938v334.0625h-4.960938zm0 0" style="fill:none;stroke-width:3.98555;stroke-linecap:round;stroke-linejoin:round;stroke:#000;stroke-miterlimit:10" transform="matrix(.1 0 0 -.1 0 534.02)"/><path d="m496.453125 336.945312h.496094v-33.40625h-.496094zm0 0"/><use x="475.089" xlink:href="#C" y="371.334"/><use x="483.592507" xlink:href="#D" y="371.334"/><use x="497.709323" xlink:href="#y" y="371.334"/><use x="482.79447" xlink:href="#aa" y="339.9516"/><path d="m4408.828125 2023.051562h4.921875v334.0625h-4.921875zm0 0" style="fill:none;stroke-width:3.98555;stroke-linecap:round;stroke-linejoin:round;stroke:#000;stroke-miterlimit:10" transform="matrix(.1 0 0 -.1 0 534.02)"/><path d="m440.882812 331.714844h.492188v-33.40625h-.492188zm0 0"/><use x="413.649" xlink:href="#F" y="371.334"/><use x="427.935347" xlink:href="#P" y="371.334"/><use x="442.221694" xlink:href="#Q" y="371.334"/><use x="427.2228" xlink:href="#aa" y="334.7215"/><path d="m3862.1875 2127.660937h4.921875v334.0625h-4.921875zm0 0" style="fill:none;stroke-width:3.98555;stroke-linecap:round;stroke-linejoin:round;stroke:#000;stroke-miterlimit:10" transform="matrix(.1 0 0 -.1 0 534.02)"/><path d="m386.21875 321.253906h.492188v-33.40625h-.492188zm0 0"/><use x="362.557" xlink:href="#R" y="371.334"/><use x="376.843347" xlink:href="#P" y="371.334"/><use x="391.129694" xlink:href="#M" y="371.334"/><use x="372.5586" xlink:href="#aa" y="324.2606"/><path d="m3347.695312 2067.85625h4.921876v341.5625h-4.921876zm0 0" style="fill:none;stroke-width:3.98555;stroke-linecap:round;stroke-linejoin:round;stroke:#000;stroke-miterlimit:10" transform="matrix(.1 0 0 -.1 0 534.02)"/><path d="m334.769531 327.234375h.492188v-34.15625h-.492188zm0 0"/><use x="312.218" xlink:href="#P" y="371.334"/><use x="326.504347" xlink:href="#M" y="371.334"/><use x="332.116459" xlink:href="#G" y="371.334"/><path d="m1653.359375 1697.582812h63.554687v3.4375h-63.554687zm0 0" style="fill:none;stroke-width:5.49191;stroke-linecap:round;stroke-linejoin:round;stroke:#000;stroke-miterlimit:10" transform="matrix(.1 0 0 -.1 0 534.02)"/><path d="m165.335938 364.261719h6.351562v-.34375h-6.351562zm0 0"/><path d="m2228.789062 1697.582812h63.515626v3.4375h-63.515626zm0 0" style="fill:none;stroke-width:5.49191;stroke-linecap:round;stroke-linejoin:round;stroke:#000;stroke-miterlimit:10" transform="matrix(.1 0 0 -.1 0 534.02)"/><path d="m222.878906 364.261719h6.351563v-.34375h-6.351563zm0 0"/><path d="m4021.015625 1697.582812h63.554687v3.4375h-63.554687zm0 0" style="fill:none;stroke-width:5.49191;stroke-linecap:round;stroke-linejoin:round;stroke:#000;stroke-miterlimit:10" transform="matrix(.1 0 0 -.1 0 534.02)"/><path d="m402.101562 364.261719h6.355469v-.34375h-6.355469zm0 0"/><path d="m4619.414062 1697.582812h63.554688v3.4375h-63.554688zm0 0" style="fill:none;stroke-width:5.49191;stroke-linecap:round;stroke-linejoin:round;stroke:#000;stroke-miterlimit:10" transform="matrix(.1 0 0 -.1 0 534.02)"/><path d="m461.941406 364.261719h6.351563v-.34375h-6.351563zm0 0"/><use x="538.366" xlink:href="#ad" y="313.8"/><use x="44.982" xlink:href="#ab" y="292.8785"/><path d="m952.539062 2127.660937h4.921876v334.0625h-4.921876zm0 0" style="fill:none;stroke-width:3.98555;stroke-linecap:round;stroke-linejoin:round;stroke:#000;stroke-miterlimit:10" transform="matrix(.1 0 0 -.1 0 534.02)"/><path d="m95.253906 321.253906h.492188v-33.40625h-.492188zm0 0"/><use x="61.4727" xlink:href="#S" y="371.334"/><use x="80.181718" xlink:href="#w" y="371.334"/><use x="94.468071" xlink:href="#x" y="371.334"/><use x="81.5942" xlink:href="#aa" y="324.2606"/><use x="8.368775" xlink:href="#ae" y="324.2606"/><use x="137.1661" xlink:href="#aa" y="319.03013"/><path d="m2710.898438 2015.551562h4.921874v341.5625h-4.921874zm0 0" style="fill:none;stroke-width:3.98555;stroke-linecap:round;stroke-linejoin:round;stroke:#000;stroke-miterlimit:10" transform="matrix(.1 0 0 -.1 0 534.02)"/><path d="m271.089844 332.464844h.492187v-34.15625h-.492187zm0 0"/><use x="234.424" xlink:href="#z" y="371.334"/><use x="247.350575" xlink:href="#A" y="371.334"/><use x="259.595898" xlink:href="#w" y="371.334"/><use x="273.882245" xlink:href="#x" y="371.334"/><use x="258.1228" xlink:href="#ac" y="334.7215"/><path d="m1929.375 1855.5125h4.921875v316.601562h-4.921875zm0 0" style="fill:none;stroke-width:3.98555;stroke-linecap:round;stroke-linejoin:round;stroke:#000;stroke-miterlimit:10" transform="matrix(.1 0 0 -.1 0 534.02)"/><path d="m192.933594 348.472656h.496094v-31.664062h-.496094zm0 0"/><use x="182.14" xlink:href="#C" y="371.334"/><use x="190.474" xlink:href="#w" y="371.334"/><use x="204.760347" xlink:href="#Q" y="371.334"/><use x="192.7369" xlink:href="#aa" y="313.7996"/><path d="m1508.242188 2179.965625h4.960937v334.0625h-4.960937zm0 0" style="fill:none;stroke-width:3.98555;stroke-linecap:round;stroke-linejoin:round;stroke:#000;stroke-miterlimit:10" transform="matrix(.1 0 0 -.1 0 534.02)"/><path d="m150.824219 316.023438h.492187v-33.40625h-.492187zm0 0"/><use x="133.796" xlink:href="#K" y="371.334"/><use x="140.598742" xlink:href="#T" y="371.334"/><g clip-path="url(#p)"><path d="m3.4375 737.7h5945.898438" style="fill:none;stroke-width:6.86227;stroke-linecap:round;stroke-linejoin:round;stroke:#000;stroke-miterlimit:10" transform="matrix(.1 0 0 -.1 0 534.02)"/></g><g clip-path="url(#q)"><path d="m3.4375 842.309375h5945.898438" style="fill:none;stroke-width:6.86227;stroke-linecap:round;stroke-linejoin:round;stroke:#000;stroke-miterlimit:10" transform="matrix(.1 0 0 -.1 0 534.02)"/></g><g clip-path="url(#r)"><path d="m3.4375 946.91875h5945.898438" style="fill:none;stroke-width:6.86227;stroke-linecap:round;stroke-linejoin:round;stroke:#000;stroke-miterlimit:10" transform="matrix(.1 0 0 -.1 0 534.02)"/></g><g clip-path="url(#s)"><path d="m3.4375 1051.528125h5945.898438" style="fill:none;stroke-width:6.86227;stroke-linecap:round;stroke-linejoin:round;stroke:#000;stroke-miterlimit:10" transform="matrix(.1 0 0 -.1 0 534.02)"/></g><g clip-path="url(#t)"><path d="m3.4375 1156.1375h5945.898438" style="fill:none;stroke-width:6.86227;stroke-linecap:round;stroke-linejoin:round;stroke:#000;stroke-miterlimit:10" transform="matrix(.1 0 0 -.1 0 534.02)"/></g><path d="m5072.734375 633.090625h294.726563" style="fill:none;stroke-width:17.323;stroke-linecap:round;stroke-linejoin:round;stroke:#000;stroke-miterlimit:10" transform="matrix(.1 0 0 -.1 0 534.02)"/><path d="m4500.820312 633.090625h187.578126" style="fill:none;stroke-width:17.323;stroke-linecap:round;stroke-linejoin:round;stroke:#000;stroke-miterlimit:10" transform="matrix(.1 0 0 -.1 0 534.02)"/><g clip-path="url(#u)"><path d="m5932.1875 737.7v418.4375" fill="none" stroke="#000" stroke-linejoin="round" stroke-miterlimit="10" stroke-width="41.1631" transform="matrix(.1 0 0 -.1 0 534.02)"/></g><path d="m5884.492188 737.7v418.4375" fill="none" stroke="#000" stroke-linejoin="round" stroke-miterlimit="10" stroke-width="13.0341" transform="matrix(.1 0 0 -.1 0 534.02)"/><path d="m4656.015625 655.66875h4.921875v341.5625h-4.921875zm0 0" fill="none" stroke="#000" stroke-linejoin="round" stroke-miterlimit="10" stroke-width="3.98555" transform="matrix(.1 0 0 -.1 0 534.02)"/><path d="m465.597656 468.453125h.496094v-34.15625h-.496094zm0 0"/><use x="445.176" xlink:href="#w" y="500.7341"/><use x="459.461956" xlink:href="#E" y="500.7341"/><use x="452.63225" xlink:href="#ac" y="470.7118"/><path d="m4066.25 707.973437h4.921875v341.5625h-4.921875zm0 0" fill="none" stroke="#000" stroke-linejoin="round" stroke-miterlimit="10" stroke-width="3.98555" transform="matrix(.1 0 0 -.1 0 534.02)"/><path d="m406.625 463.222656h.492188v-34.15625h-.492188zm0 0"/><use x="379.736" xlink:href="#E" y="500.7341"/><use x="394.022347" xlink:href="#D" y="500.7341"/><use x="408.308694" xlink:href="#Q" y="500.7341"/><use x="393.6563" xlink:href="#ac" y="465.4814"/><path d="m3426.132812 767.739062h4.921876v334.0625h-4.921876zm0 0" fill="none" stroke="#000" stroke-linejoin="round" stroke-miterlimit="10" stroke-width="3.98555" transform="matrix(.1 0 0 -.1 0 534.02)"/><path d="m342.613281 457.246094h.492188v-33.40625h-.492188zm0 0"/><use x="318.951" xlink:href="#M" y="500.7341"/><use x="324.733425" xlink:href="#D" y="500.7341"/><use x="339.019772" xlink:href="#R" y="500.7341"/><use x="328.9526" xlink:href="#aa" y="460.2513"/><path d="m1795.546875 403.598437h63.554687v3.4375h-63.554687zm0 0" fill="none" stroke="#000" stroke-linejoin="round" stroke-miterlimit="10" stroke-width="5.49191" transform="matrix(.1 0 0 -.1 0 534.02)"/><path d="m179.554688 493.660156h6.355468v-.34375h-6.355468zm0 0"/><path d="m2392.148438 403.598437h63.554687v3.4375h-63.554687zm0 0" fill="none" stroke="#000" stroke-linejoin="round" stroke-miterlimit="10" stroke-width="5.49191" transform="matrix(.1 0 0 -.1 0 534.02)"/><path d="m239.214844 493.660156h6.355468v-.34375h-6.355468zm0 0"/><path d="m2991.523438 403.598437h63.554687v3.4375h-63.554687zm0 0" fill="none" stroke="#000" stroke-linejoin="round" stroke-miterlimit="10" stroke-width="5.49191" transform="matrix(.1 0 0 -.1 0 534.02)"/><path d="m299.152344 493.660156h6.355468v-.34375h-6.355468zm0 0"/><path d="m3633.4375 403.598437h63.554688v3.4375h-63.554688zm0 0" fill="none" stroke="#000" stroke-linejoin="round" stroke-miterlimit="10" stroke-width="5.49191" transform="matrix(.1 0 0 -.1 0 534.02)"/><path d="m363.34375 493.660156h6.355469v-.34375h-6.355469zm0 0"/><path d="m4803.710938 403.598437h63.554687v3.4375h-63.554687zm0 0" fill="none" stroke="#000" stroke-linejoin="round" stroke-miterlimit="10" stroke-width="5.49191" transform="matrix(.1 0 0 -.1 0 534.02)"/><path d="m480.371094 493.660156h6.355468v-.34375h-6.355468zm0 0"/><use x="511.608" xlink:href="#af" y="475.9423"/><use x="493.3517" xlink:href="#F" y="500.7341"/><use x="507.638047" xlink:href="#w" y="500.7341"/><use x="521.924394" xlink:href="#x" y="500.7341"/><use x="543.524838" xlink:href="#U" y="500.7341"/><use x="44.9807" xlink:href="#ab" y="418.4079"/><path d="m952.539062 715.434375h4.921876v334.0625h-4.921876zm0 0" fill="none" stroke="#000" stroke-linejoin="round" stroke-miterlimit="10" stroke-width="3.98555" transform="matrix(.1 0 0 -.1 0 534.02)"/><path d="m95.253906 462.476562h.492188v-33.40625h-.492188zm0 0"/><use x="68.6164" xlink:href="#V" y="500.7341"/><use x="90.216825" xlink:href="#W" y="500.7341"/><use x="95.999646" xlink:href="#Q" y="500.7341"/><use x="81.5941" xlink:href="#aa" y="465.4814"/><path d="m2779.101562 715.434375h4.921876v334.0625h-4.921876zm0 0" fill="none" stroke="#000" stroke-linejoin="round" stroke-miterlimit="10" stroke-width="3.98555" transform="matrix(.1 0 0 -.1 0 534.02)"/><path d="m277.910156 462.476562h.492188v-33.40625h-.492188zm0 0"/><use x="8.36875" xlink:href="#ae" y="449.7903"/><use x="207.889204" xlink:href="#ac" y="449.7903"/><use x="257.13975" xlink:href="#X" y="500.7341"/><use x="271.426097" xlink:href="#D" y="500.7341"/><use x="264.24991" xlink:href="#aa" y="465.4814"/><path d="m2208.554688 864.8875h4.960937v341.5625h-4.960937zm0 0" fill="none" stroke="#000" stroke-linejoin="round" stroke-miterlimit="10" stroke-width="3.98555" transform="matrix(.1 0 0 -.1 0 534.02)"/><path d="m220.855469 447.535156h.492187v-34.15625h-.492187zm0 0"/><use x="201.793" xlink:href="#M" y="500.7341"/><use x="207.575815" xlink:href="#Y" y="500.7341"/><use x="221.861772" xlink:href="#M" y="500.7341"/><path d="m1592.65625 760.278125h4.921875v341.5625h-4.921875zm0 0" fill="none" stroke="#000" stroke-linejoin="round" stroke-miterlimit="10" stroke-width="3.98555" transform="matrix(.1 0 0 -.1 0 534.02)"/><path d="m159.265625 457.992188h.492187v-34.15625h-.492187zm0 0"/><use x="142.582" xlink:href="#Z" y="500.7341"/><use x="149.384742" xlink:href="#w" y="500.7341"/><use x="146.29763" xlink:href="#ac" y="460.2513"/></svg>