<svg height="757.95em" viewBox="0 0 595.28 757.95" width="595.28em" xmlns="http://www.w3.org/2000/svg" xmlns:xlink="http://www.w3.org/1999/xlink"><clipPath id="a"><path d="m0 67h595.28125v1h-595.28125zm0 0"/></clipPath><clipPath id="b"><path d="m0 57h595.28125v1h-595.28125zm0 0"/></clipPath><clipPath id="c"><path d="m0 47h595.28125v1h-595.28125zm0 0"/></clipPath><clipPath id="d"><path d="m0 37h595.28125v1h-595.28125zm0 0"/></clipPath><clipPath id="e"><path d="m0 27h595.28125v1h-595.28125zm0 0"/></clipPath><clipPath id="f"><path d="m594 27h1.28125v42h-1.28125zm0 0"/></clipPath><clipPath id="g"><path d="m0 198h595.28125v2h-595.28125zm0 0"/></clipPath><clipPath id="h"><path d="m0 188h595.28125v2h-595.28125zm0 0"/></clipPath><clipPath id="i"><path d="m0 178h595.28125v2h-595.28125zm0 0"/></clipPath><clipPath id="j"><path d="m0 168h595.28125v2h-595.28125zm0 0"/></clipPath><clipPath id="k"><path d="m0 158h595.28125v2h-595.28125zm0 0"/></clipPath><clipPath id="l"><path d="m591 157h4.28125v44h-4.28125zm0 0"/></clipPath><clipPath id="m"><path d="m0 327h595.28125v2h-595.28125zm0 0"/></clipPath><clipPath id="n"><path d="m0 317h595.28125v2h-595.28125zm0 0"/></clipPath><clipPath id="o"><path d="m0 308h595.28125v1h-595.28125zm0 0"/></clipPath><clipPath id="p"><path d="m0 298h595.28125v1h-595.28125zm0 0"/></clipPath><clipPath id="q"><path d="m0 288h595.28125v1h-595.28125zm0 0"/></clipPath><clipPath id="r"><path d="m594 287h1.28125v42h-1.28125zm0 0"/></clipPath><clipPath id="s"><path d="m0 447h595.28125v2h-595.28125zm0 0"/></clipPath><clipPath id="t"><path d="m0 437h595.28125v2h-595.28125zm0 0"/></clipPath><clipPath id="u"><path d="m0 427h595.28125v2h-595.28125zm0 0"/></clipPath><clipPath id="v"><path d="m0 417h595.28125v2h-595.28125zm0 0"/></clipPath><clipPath id="w"><path d="m0 407h595.28125v2h-595.28125zm0 0"/></clipPath><clipPath id="x"><path d="m594 407h1.28125v42h-1.28125zm0 0"/></clipPath><clipPath id="y"><path d="m0 567h595.28125v1h-595.28125zm0 0"/></clipPath><clipPath id="z"><path d="m0 557h595.28125v1h-595.28125zm0 0"/></clipPath><clipPath id="A"><path d="m0 547h595.28125v1h-595.28125zm0 0"/></clipPath><clipPath id="B"><path d="m0 537h595.28125v1h-595.28125zm0 0"/></clipPath><clipPath id="C"><path d="m0 527h595.28125v1h-595.28125zm0 0"/></clipPath><clipPath id="D"><path d="m594 526h1.28125v43h-1.28125zm0 0"/></clipPath><clipPath id="E"><path d="m0 686h595.28125v2h-595.28125zm0 0"/></clipPath><clipPath id="F"><path d="m0 676h595.28125v2h-595.28125zm0 0"/></clipPath><clipPath id="G"><path d="m0 666h595.28125v2h-595.28125zm0 0"/></clipPath><clipPath id="H"><path d="m0 656h595.28125v2h-595.28125zm0 0"/></clipPath><clipPath id="I"><path d="m0 646h595.28125v2h-595.28125zm0 0"/></clipPath><clipPath id="J"><path d="m591 645h4.28125v44h-4.28125zm0 0"/></clipPath><symbol id="K" overflow="visible"><path d="m7.015625 0 4.9375-12.890625h-2.3125l-3.640625 10.453125-3.4375-10.453125h-2.3125l4.515625 12.890625zm0 0"/></symbol><symbol id="L" overflow="visible"><path d="m13.15625-1.203125c-.21875.046875-.3125.046875-.4375.046875-.71875 0-1.109375-.375-1.109375-1.015625v-7.5625c0-2.296875-1.671875-3.515625-4.84375-3.515625-1.890625 0-3.390625.53125-4.28125 1.5-.59375.65625-.84375 1.390625-.890625 2.671875h2.078125c.171875-1.578125 1.09375-2.28125 3.015625-2.28125 1.875 0 2.875.6875 2.875 1.921875v.53125c-.015625.890625-.46875 1.203125-2.140625 1.4375-2.890625.359375-3.34375.453125-4.125.78125-1.5.640625-2.265625 1.765625-2.265625 3.4375 0 2.34375 1.625 3.8125 4.234375 3.8125 1.625 0 2.921875-.5625 4.375-1.890625.140625 1.328125.78125 1.890625 2.109375 1.890625.453125 0 .71875-.046875 1.40625-.21875zm-3.59375-2.859375c0 .6875-.1875 1.109375-.8125 1.671875-.828125.765625-1.84375 1.15625-3.046875 1.15625-1.59375 0-2.53125-.75-2.53125-2.0625 0-1.34375.890625-2.046875 3.09375-2.359375 2.1875-.296875 2.609375-.390625 3.296875-.71875zm-2.09375-14.140625-2.375 3.640625h1.46875l3.671875-3.640625zm0 0"/></symbol><symbol id="M" overflow="visible"><path d="m1.703125-12.890625v12.890625h2.0625v-6.6875c.015625-3.09375 1.296875-4.484375 4.125-4.40625v-2.09375c-.34375-.046875-.53125-.0625-.78125-.0625-1.328125 0-2.34375.78125-3.515625 2.703125v-2.34375zm0 0"/></symbol><symbol id="N" overflow="visible"><path d="m1.71875-12.890625v12.890625h2.0625v-7.109375c0-2.625 1.390625-4.34375 3.5-4.34375 1.625 0 2.65625.96875 2.65625 2.53125v8.921875h2.046875v-9.734375c0-2.140625-1.609375-3.515625-4.09375-3.515625-1.921875 0-3.140625.734375-4.28125 2.53125v-2.171875zm0 0"/></symbol><symbol id="O" overflow="visible"><path d="m12.609375-5.75c0-1.96875-.140625-3.15625-.515625-4.109375-.828125-2.125-2.796875-3.390625-5.203125-3.390625-3.59375 0-5.90625 2.71875-5.90625 6.984375 0 4.25 2.21875 6.828125 5.859375 6.828125 2.9375 0 4.984375-1.671875 5.5-4.46875h-2.0625c-.5625 1.6875-1.71875 2.578125-3.375 2.578125-1.296875 0-2.40625-.59375-3.09375-1.671875-.5-.734375-.671875-1.46875-.6875-2.75zm-9.4375-1.671875c.171875-2.390625 1.625-3.9375 3.6875-3.9375 2.09375 0 3.546875 1.625 3.546875 3.9375zm0 0"/></symbol><symbol id="P" overflow="visible"><path d="m3.46875-17.921875h-2.046875v17.921875h2.046875v-5.015625l1.984375-1.96875 4.359375 6.984375h2.53125l-5.265625-8.4375 4.484375-4.453125h-2.640625l-5.453125 5.46875zm0 0"/></symbol><symbol id="Q" overflow="visible"><path d="m12.609375-5.75c0-1.96875-.140625-3.15625-.515625-4.109375-.828125-2.125-2.796875-3.390625-5.203125-3.390625-3.59375 0-5.90625 2.71875-5.90625 6.984375 0 4.25 2.21875 6.828125 5.859375 6.828125 2.9375 0 4.984375-1.671875 5.5-4.46875h-2.0625c-.5625 1.6875-1.71875 2.578125-3.375 2.578125-1.296875 0-2.40625-.59375-3.09375-1.671875-.5-.734375-.671875-1.46875-.6875-2.75zm-9.4375-1.671875c.171875-2.390625 1.625-3.9375 3.6875-3.9375 2.09375 0 3.546875 1.625 3.546875 3.9375zm4.40625-10.78125-2.359375 3.640625h1.46875l3.671875-3.640625zm0 0"/></symbol><symbol id="R" overflow="visible"><path d="m6.25-12.890625h-2.125v-3.53125h-2.03125v3.53125h-1.75v1.671875h1.75v9.75c0 1.328125.875 2.03125 2.484375 2.03125.53125 0 .984375-.046875 1.671875-.171875v-1.71875c-.296875.078125-.5625.09375-.984375.09375-.890625 0-1.140625-.234375-1.140625-1.15625v-8.828125h2.125zm0 0"/></symbol><symbol id="S" overflow="visible"><path d="m9.9375-12.890625v1.875c-1.03125-1.546875-2.171875-2.234375-3.78125-2.234375-3.125 0-5.296875 2.890625-5.296875 7.03125 0 2.15625.515625 3.734375 1.625 5.03125.953125 1.140625 2.1875 1.75 3.515625 1.75 1.546875 0 2.65625-.6875 3.734375-2.3125v.671875c0 3.4375-.953125 4.71875-3.515625 4.71875-1.75 0-2.65625-.6875-2.84375-2.171875h-2.09375c.1875 2.390625 2.09375 3.890625 4.890625 3.890625 1.890625 0 3.46875-.609375 4.3125-1.640625.96875-1.203125 1.34375-2.8125 1.34375-5.828125v-10.78125zm-3.59375 1.53125c2.171875 0 3.390625 1.8125 3.390625 5.09375 0 3.125-1.25 4.9375-3.390625 4.9375-2.109375 0-3.34375-1.84375-3.34375-5.015625 0-3.15625 1.234375-5.015625 3.34375-5.015625zm0 0"/></symbol><symbol id="T" overflow="visible"><path d="m9.546875-12.890625-3.578125 10.03125-3.28125-10.03125h-2.203125l4.359375 12.9375-.78125 2.046875c-.34375.90625-.796875 1.25-1.65625 1.25-.34375 0-.640625-.046875-1.078125-.140625v1.84375c.421875.21875.84375.3125 1.375.3125.671875 0 1.375-.21875 1.921875-.609375.640625-.46875 1-1.015625 1.40625-2.046875l5.71875-15.59375zm0 0"/></symbol><symbol id="U" overflow="visible"><path d="m13.15625-1.203125c-.21875.046875-.3125.046875-.4375.046875-.71875 0-1.109375-.375-1.109375-1.015625v-7.5625c0-2.296875-1.671875-3.515625-4.84375-3.515625-1.890625 0-3.390625.53125-4.28125 1.5-.59375.65625-.84375 1.390625-.890625 2.671875h2.078125c.171875-1.578125 1.09375-2.28125 3.015625-2.28125 1.875 0 2.875.6875 2.875 1.921875v.53125c-.015625.890625-.46875 1.203125-2.140625 1.4375-2.890625.359375-3.34375.453125-4.125.78125-1.5.640625-2.265625 1.765625-2.265625 3.4375 0 2.34375 1.625 3.8125 4.234375 3.8125 1.625 0 2.921875-.5625 4.375-1.890625.140625 1.328125.78125 1.890625 2.109375 1.890625.453125 0 .71875-.046875 1.40625-.21875zm-3.59375-2.859375c0 .6875-.1875 1.109375-.8125 1.671875-.828125.765625-1.84375 1.15625-3.046875 1.15625-1.59375 0-2.53125-.75-2.53125-2.0625 0-1.34375.890625-2.046875 3.09375-2.359375 2.1875-.296875 2.609375-.390625 3.296875-.71875zm0 0"/></symbol><symbol id="V" overflow="visible"><path d="m2.140625-2.5625v2.5625h1.46875v.4375c0 1.703125-.3125 2.1875-1.46875 2.25v.921875c1.625.0625 2.578125-1.125 2.578125-3.21875v-2.953125zm0 0"/></symbol><symbol id="W" overflow="visible"><path d="m1.71875-12.890625v14.765625c0 1.265625-.390625 1.6875-1.671875 1.6875-.140625 0-.21875 0-.484375-.015625v1.734375c.234375.0625.359375.078125.6875.078125 2.3125 0 3.515625-.90625 3.515625-2.671875v-15.578125zm2.046875-5.03125h-2.046875v2.578125h2.046875zm0 0"/></symbol><symbol id="X" overflow="visible"><path d="m1.71875-12.890625v12.890625h2.0625v-8.09375c0-1.859375 1.359375-3.359375 3.03125-3.359375 1.53125 0 2.390625.921875 2.390625 2.578125v8.875h2.0625v-8.09375c0-1.859375 1.34375-3.359375 3.015625-3.359375 1.515625 0 2.390625.953125 2.390625 2.578125v8.875h2.0625v-9.671875c0-2.3125-1.328125-3.578125-3.734375-3.578125-1.71875 0-2.75.515625-3.953125 1.96875-.765625-1.390625-1.796875-1.96875-3.46875-1.96875-1.71875 0-2.875.640625-3.96875 2.1875v-1.828125zm0 0"/></symbol><symbol id="Y" overflow="visible"><path d="m3.6875-12.890625h-2.046875v12.890625h2.046875zm0-5.03125h-2.0625v2.578125h2.0625zm0 0"/></symbol><symbol id="Z" overflow="visible"><path d="m4.234375-6.265625 2.921875-2.9375 6.328125 9.203125h2.703125l-7.390625-10.625 7.3125-7.296875h-2.953125l-8.921875 9.0625v-9.0625h-2.296875v17.921875h2.296875zm0 0"/></symbol><symbol id="aa" overflow="visible"><path d="m11.65625-5.390625 1.84375 5.390625h2.5625l-6.296875-17.921875h-2.953125l-6.390625 17.921875h2.4375l1.890625-5.390625zm-.640625-1.90625h-5.703125l2.953125-8.171875zm0 0"/></symbol><symbol id="ab" overflow="visible"><path d="m12.171875-17.921875h-2.046875v6.65625c-.859375-1.296875-2.234375-1.984375-3.953125-1.984375-3.34375 0-5.53125 2.671875-5.53125 6.78125 0 4.359375 2.109375 7.03125 5.609375 7.03125 1.765625 0 3-.65625 4.109375-2.265625v1.703125h1.8125zm-5.65625 6.578125c2.21875 0 3.609375 1.953125 3.609375 5.046875 0 2.984375-1.421875 4.9375-3.578125 4.9375-2.265625 0-3.765625-1.984375-3.765625-4.984375s1.5-5 3.734375-5zm0 0"/></symbol><symbol id="ac" overflow="visible"><path d="m6.6875-13.25c-3.640625 0-5.796875 2.578125-5.796875 6.90625 0 4.359375 2.15625 6.90625 5.828125 6.90625 3.640625 0 5.828125-2.578125 5.828125-6.8125 0-4.46875-2.125-7-5.859375-7zm.03125 1.890625c2.3125 0 3.6875 1.890625 3.6875 5.09375 0 3.046875-1.421875 4.9375-3.6875 4.9375-2.296875 0-3.6875-1.890625-3.6875-5.015625s1.390625-5.015625 3.6875-5.015625zm-.71875-6.21875h-2.5625v2.53125h2.5625zm3.984375 0h-2.5625v2.53125h2.5625zm0 0"/></symbol><symbol id="ad" overflow="visible"><path d="m3.734375-17.921875h-2.0625v17.921875h2.0625zm0 0"/></symbol><symbol id="ae" overflow="visible"><path d="m8.109375-4.890625v-1.15625c.03125-1.109375.375-1.65625 1.953125-3.046875 1.84375-1.671875 2.453125-2.765625 2.453125-4.40625 0-2.875-2.03125-4.71875-5.234375-4.71875-3.5625 0-5.390625 1.9375-5.390625 5.75h2.09375c0-2.65625.953125-3.84375 3.171875-3.84375 1.890625 0 3.15625 1.140625 3.15625 2.8125 0 1.125-.546875 2.09375-1.859375 3.25-2.078125 1.84375-2.546875 2.546875-2.546875 4v1.359375zm0 2.328125h-2.203125v2.5625h2.203125zm0 0"/></symbol><symbol id="af" overflow="visible"><path d="m13.546875-8.171875v8.171875h2.296875v-17.921875h-2.296875v7.734375h-9.21875v-7.734375h-2.28125v17.921875h2.28125v-8.171875zm0 0"/></symbol><symbol id="ag" overflow="visible"><path d="m6.6875-13.25c-3.640625 0-5.796875 2.578125-5.796875 6.90625 0 4.359375 2.15625 6.90625 5.828125 6.90625 3.640625 0 5.828125-2.578125 5.828125-6.8125 0-4.46875-2.125-7-5.859375-7zm.03125 1.890625c2.3125 0 3.6875 1.890625 3.6875 5.09375 0 3.046875-1.421875 4.9375-3.6875 4.9375-2.296875 0-3.6875-1.890625-3.6875-5.015625s1.390625-5.015625 3.6875-5.015625zm0 0"/></symbol><symbol id="ah" overflow="visible"><path d="m6.34375-12.890625h-2.140625v-2.015625c0-.859375.46875-1.296875 1.421875-1.296875.171875 0 .25 0 .71875.015625v-1.6875c-.46875-.109375-.734375-.125-1.15625-.125-1.890625 0-3.015625 1.078125-3.015625 2.921875v2.1875h-1.734375v1.671875h1.734375v11.21875h2.03125v-11.21875h2.140625zm0 0"/></symbol><symbol id="ai" overflow="visible"><path d="m10.765625-9.296875c-.015625-2.53125-1.6875-3.953125-4.671875-3.953125-3 0-4.9375 1.546875-4.9375 3.921875 0 2.03125 1.03125 2.984375 4.078125 3.71875l1.921875.46875c1.421875.34375 2 .859375 2 1.765625 0 1.234375-1.21875 2.046875-3 2.046875-1.109375 0-2.046875-.3125-2.5625-.859375-.328125-.375-.46875-.734375-.59375-1.65625h-2.15625c.09375 2.984375 1.765625 4.40625 5.125 4.40625 3.25 0 5.3125-1.59375 5.3125-4.078125 0-1.921875-1.078125-2.984375-3.625-3.59375l-1.96875-.46875c-1.671875-.390625-2.390625-.9375-2.390625-1.84375 0-1.203125 1.0625-1.9375 2.734375-1.9375 1.640625 0 2.53125.703125 2.578125 2.0625zm0 0"/></symbol><symbol id="aj" overflow="visible"><path d="m10.890625-12.890625h-9.609375v1.796875h7.171875l-7.6875 9.25v1.84375h10.46875v-1.796875h-7.984375l7.640625-9.265625zm0 0"/></symbol><symbol id="ak" overflow="visible"><path d="m4.359375-12.890625h-2.046875v12.890625h2.046875zm-.40625-5.3125-2.359375 3.640625h1.484375l3.65625-3.640625zm0 0"/></symbol><symbol id="al" overflow="visible"><path d="m11.859375 0v-12.890625h-2.046875v7.3125c0 2.625-1.375 4.34375-3.515625 4.34375-1.625 0-2.65625-.984375-2.65625-2.53125v-9.125h-2.046875v9.9375c0 2.140625 1.609375 3.515625 4.109375 3.515625 1.890625 0 3.09375-.65625 4.3125-2.359375v1.796875zm-4.578125-18.203125-2.359375 3.640625h1.46875l3.671875-3.640625zm0 0"/></symbol><symbol id="am" overflow="visible"><path d="m1.328125-17.921875v17.921875h1.84375v-1.640625c.984375 1.5 2.28125 2.203125 4.078125 2.203125 3.40625 0 5.609375-2.78125 5.609375-7.0625 0-4.171875-2.09375-6.75-5.5-6.75-1.78125 0-3.03125.65625-3.984375 2.109375v-6.78125zm5.625 6.578125c2.296875 0 3.765625 2 3.765625 5.078125 0 2.921875-1.515625 4.90625-3.765625 4.90625-2.1875 0-3.578125-1.953125-3.578125-4.984375s1.390625-5 3.578125-5zm0 0"/></symbol><symbol id="an" overflow="visible"><path d="m1.59375-17.921875v2.546875h1.1875c.015625 1.4375-.328125 2.09375-1.1875 2.21875v.9375c1.484375-.109375 2.296875-1.265625 2.296875-3.21875v-2.484375zm0 0"/></symbol><symbol id="ao" overflow="visible"><path d="m9.5625-18.21875c-5.140625 0-8.625 3.78125-8.625 9.390625 0 5.625 3.46875 9.390625 8.65625 9.390625 2.1875 0 4.109375-.65625 5.5625-1.890625 1.9375-1.640625 3.09375-4.421875 3.09375-7.359375 0-5.78125-3.421875-9.53125-8.6875-9.53125zm0 2.015625c3.890625 0 6.40625 2.921875 6.40625 7.46875 0 4.328125-2.59375 7.28125-6.375 7.28125-3.84375 0-6.375-2.953125-6.375-7.375s2.53125-7.375 6.34375-7.375zm.75-6.890625-2.390625 3.640625h1.46875l3.671875-3.640625zm0 0"/></symbol><symbol id="ap" overflow="visible"><path d="m11.859375 0v-12.890625h-2.046875v7.3125c0 2.625-1.375 4.34375-3.515625 4.34375-1.625 0-2.65625-.984375-2.65625-2.53125v-9.125h-2.046875v9.9375c0 2.140625 1.609375 3.515625 4.109375 3.515625 1.890625 0 3.09375-.65625 4.3125-2.359375v1.796875zm0 0"/></symbol><symbol id="aq" overflow="visible"><path d="m8.1875-17.921875v12.609375c0 1.421875-.140625 2.234375-.5625 2.859375-.4375.6875-1.28125 1.09375-2.1875 1.09375-1.71875 0-2.6875-1.15625-2.6875-3.234375v-1.15625h-2.328125v1.5625c0 2.90625 1.921875 4.75 4.984375 4.75 3.125 0 5.078125-1.9375 5.078125-5.03125v-13.453125zm0 0"/></symbol><symbol id="ar" overflow="visible"><path d="m11.515625 0 5.03125-15.03125v15.03125h2.171875v-17.921875h-3.171875l-5.21875 15.609375-5.3125-15.609375h-3.171875v17.921875h2.171875v-15.03125l5.078125 15.03125zm0 0"/></symbol><symbol id="as" overflow="visible"><path d="m5.109375-17.921875h-2.03125v8.3125l.53125 5.484375h.96875l.53125-5.484375zm0 15.359375h-2.0625v2.5625h2.0625zm0 0"/></symbol><symbol id="at" overflow="visible"><path d="m8.703125-15.90625h5.875v-2.015625h-14.0625v2.015625h5.90625v15.90625h2.28125zm0 0"/></symbol><symbol id="au" overflow="visible"><path d="m8.84375-5.375c-1.671875 0-3.265625.546875-4.703125 1.4375-1.875 1.109375-4.140625 3.0625-4.140625 5.890625 0 2.34375 2.078125 3.421875 4.1875 3.421875 1.671875 0 3.265625-.546875 4.703125-1.4375 1.875-1.109375 4.09375-3.0625 4.09375-5.890625 0-2.34375-2.03125-3.421875-4.140625-3.421875zm0 0"/></symbol><symbol id="av" overflow="visible"><path d="m12.59375-2.671875c0 .40625-.125.84375-.40625 1.15625-.828125 1-2.75 2.234375-4.265625 3.1875-1.5.953125-3.421875 2.234375-4.65625 2.59375-.15625.03125-.359375.078125-.515625.078125-.875 0-1.671875-.671875-1.671875-1.671875 0-.40625.125-.84375.390625-1.15625.84375-1 2.75-2.234375 4.265625-3.1875s3.4375-2.234375 4.671875-2.59375c.15625-.03125.359375-.078125.515625-.078125.875 0 1.671875.671875 1.671875 1.671875zm-2.03125-2.703125c-2.984375 0-5.421875.640625-7.53125 2.0625-1.28125.875-2.109375 2.234375-2.59375 3.71875-.234375.703125-.4375 1.5-.4375 2.265625 0 1.875 1.359375 2.703125 3.109375 2.703125 2.984375 0 5.421875-.640625 7.53125-2.0625 1.265625-.875 2.109375-2.234375 2.59375-3.71875.234375-.703125.4375-1.5.4375-2.265625 0-1.875-1.359375-2.703125-3.109375-2.703125zm0 0"/></symbol><symbol id="aw" overflow="visible"><path d="m1-1.75c.03125-1.3125.90625-2.46875 2.140625-2.46875 1.203125 0 1.765625 1.390625 1.765625 2.75 0 2.34375-2 4.015625-3.828125 5.53125-.078125-.875-.15625-1.75-.15625-2.625 0-.15625.03125-.28125.03125-.4375zm-2-16.703125.4375 23.875c0 .46875.359375.828125.84375.828125.71875 0 1.03125-.828125 1.59375-1.265625 2.515625-2.03125 6.09375-3.46875 6.09375-6.734375 0-2.15625-1.59375-3.984375-3.703125-3.984375-1.28125 0-2.46875.4375-3.515625 1.1875l.25-13.90625c-.328125-.15625-.640625-.28125-1-.28125s-.671875.125-1 .28125zm0 0"/></symbol><symbol id="ax" overflow="visible"><path d="m14.90625-10.359375c-.640625-2.796875-1.40625-5.53125-2.203125-8.28125 3.828125-4.34375 7.296875-8.8125 7.296875-14.546875 0-4.5-2.46875-10.953125-5.25-14.3125-.203125-.15625-.453125-.15625-.640625 0-3.796875 2.75-5.984375 7.140625-5.984375 11.765625 0 2.0625.046875 4.09375.28125 6.125.28125 2.59375.953125 5.109375 1.671875 7.609375-4.703125 5.34375-10 10.4375-10 17.53125 0 8.015625 5.78125 14.828125 13.265625 14.828125 1.234375 0 2.390625-.125 3.546875-.3125.125 1.265625.203125 2.546875.203125 3.8125 0 .71875-.046875 1.40625-.078125 2.125-.234375 3.9375-2.671875 7.5625-6.375 7.640625-.046875 0-.078125.046875-.125.046875-2.03125 0-3.78125-1.15625-4.8125-2.796875.4375.203125.90625.359375 1.390625.359375 2.078125 0 3.78125-1.703125 3.78125-3.78125 0-2.234375-1.625-4.140625-3.78125-4.140625-2.359375 0-4.46875 1.828125-4.46875 4.140625 0 4.296875 3.46875 7.765625 7.78125 7.765625 4.6875 0 7.921875-4.21875 8.203125-9 .03125-.765625.03125-1.46875.03125-2.234375 0-1.4375-.078125-2.875-.1875-4.296875 1.03125-.328125 2.03125-.796875 2.90625-1.484375 2.953125-2.1875 4.265625-5.25 4.265625-8.28125 0-5.265625-3.984375-10.328125-10.125-10.328125-.203125 0-.40625.046875-.59375.046875zm3.375 18.53125c-.546875-4.9375-1.46875-9.640625-2.46875-14.3125 4.390625.359375 7.140625 4.03125 7.140625 7.6875 0 2.796875-1.921875 5.671875-4.671875 6.625zm-15.453125-9.40625c0-6.375 4.296875-11.203125 8.609375-16.015625.640625 2.34375 1.265625 4.703125 1.828125 7.09375-4.015625.90625-6.296875 4.296875-6.296875 7.8125 0 2.78125 1.4375 5.609375 4.625 7.328125.125.03125.234375.078125.359375.078125.4375 0 .796875-.40625.796875-.84375 0-.1875-.125-.390625-.28125-.546875-2.234375-1.28125-3.265625-3.1875-3.265625-4.953125 0-2.34375 1.828125-4.453125 4.984375-4.8125 1.03125 4.78125 1.953125 9.515625 2.546875 14.625-1.078125.15625-2.15625.234375-3.265625.234375-5.421875 0-10.640625-4.578125-10.640625-10zm13.546875-40.609375c.671875 2.125.84375 3.15625.84375 5.46875 0 5.0625-2.671875 9.078125-5.9375 12.953125-.71875-2.515625-1.3125-4.953125-1.3125-7.96875 0-4.421875 2.46875-8.453125 6.40625-10.453125zm0 0"/></symbol><symbol id="ay" overflow="visible"><path d="m0 0c0 1.28125 1 2.265625 2.265625 2.265625 1.28125 0 2.28125-.984375 2.28125-2.265625s-1-2.265625-2.28125-2.265625c-1.265625 0-2.265625.984375-2.265625 2.265625zm0 0"/></symbol><symbol id="az" overflow="visible"><path d="m-.921875 4.5c0 2.15625 1.875 5.9375 3.71875 8.125.234375.28125.625-.078125.390625-.359375-.671875-.828125-1.109375-2.421875-1.109375-3.8125 0-1.640625.46875-2.796875 2.0625-2.796875 1.4375 0 3.3125.84375 4.0625 1.71875.125.15625.28125.203125.40625.203125.28125 0 .5625-.28125.5625-.5625 0-.125-.046875-.203125-.125-.328125l-3.46875-4.140625c-.640625-.796875-.953125-1.703125-.953125-2.671875 0-1.234375.515625-2.5 1.546875-3.375 1.484375-1.28125 3.4375-2.515625 3.4375-3.828125 0-.328125-.125-.6875-.40625-1l-6.0625-7.25c-.109375-.15625-.265625-.203125-.390625-.203125-.28125 0-.5625.28125-.5625.5625 0 .125.046875.234375.125.359375l1.546875 1.828125c.640625.796875.96875 1.71875.96875 2.671875 0 1.234375-.53125 2.515625-1.5625 3.390625-1.46875 1.265625-3.421875 2.5-3.421875 3.828125 0 .3125.109375.671875.390625.984375l5.46875 6.546875c-1.796875-.890625-3.828125-1.484375-5.1875-1.484375-1.03125 0-1.4375.5625-1.4375 1.59375zm0 0"/></symbol><symbol id="aA" overflow="visible"><path d="m8.28125-12.703125c-.234375.15625-.3125.46875-.3125.796875v5.84375h-6.890625l11.28125-13.265625c.234375-.28125-.125-.75-.609375-.59375-.875.28125-1.75.515625-2.671875.515625-.90625 0-1.78125-.234375-2.65625-.515625-.328125-.125-.609375.203125-.609375.59375 0 4.984375-2.578125 9.453125-5.8125 13.265625-.046875.046875-.078125.171875-.078125.25 0 .3125.3125.828125 1.15625.828125h6.890625v.640625c0 1.796875-1.03125 3.5-2.703125 3.5-.28125 0-.40625.203125-.40625.40625s.125.4375.40625.4375c1.625 0 3.265625-.515625 4.890625-.515625 1.640625 0 3.265625.515625 4.90625.515625.28125 0 .390625-.234375.390625-.4375s-.109375-.40625-.390625-.40625c-1.671875 0-2.703125-1.703125-2.703125-3.5v-.640625h2.703125c.359375 0 .515625-.234375.515625-.515625s-.15625-.5625-.515625-.5625h-2.703125v-10.1875c0-.5625-.640625-.640625-.796875-.28125-.28125.671875-.5625 1.34375-1 1.953125-.59375.796875-1.4375 1.34375-2.28125 1.875zm0 0"/></symbol><symbol id="aB" overflow="visible"><path d="m5.21875-10.71875v10.71875h3.0625v-15.546875h-2.03125c-.484375 1.84375-2.078125 2.78125-4.765625 2.78125v2.046875zm0 0"/></symbol><symbol id="aC" overflow="visible"><path d="m4.6875-3.203125h-3.28125v3.203125h3.28125zm0 0"/></symbol><path d="m1054.570312 6804.890625h178.476563" fill="none" stroke="#000" stroke-linecap="round" stroke-miterlimit="10" stroke-width="16.6476" transform="matrix(.1 0 0 -.1 0 757.95)"/><g clip-path="url(#a)"><path d="m3.359375 6904.539062h5946.054687" fill="none" stroke="#000" stroke-linecap="round" stroke-miterlimit="10" stroke-width="6.68493" transform="matrix(.1 0 0 -.1 0 757.95)"/></g><g clip-path="url(#b)"><path d="m3.359375 7004.148437h5946.054687" fill="none" stroke="#000" stroke-linecap="round" stroke-miterlimit="10" stroke-width="6.68493" transform="matrix(.1 0 0 -.1 0 757.95)"/></g><g clip-path="url(#c)"><path d="m3.359375 7103.796875h5946.054687" fill="none" stroke="#000" stroke-linecap="round" stroke-miterlimit="10" stroke-width="6.68493" transform="matrix(.1 0 0 -.1 0 757.95)"/></g><g clip-path="url(#d)"><path d="m3.359375 7203.40625h5946.054687" fill="none" stroke="#000" stroke-linecap="round" stroke-miterlimit="10" stroke-width="6.68493" transform="matrix(.1 0 0 -.1 0 757.95)"/></g><g clip-path="url(#e)"><path d="m3.359375 7303.054687h5946.054687" fill="none" stroke="#000" stroke-linecap="round" stroke-miterlimit="10" stroke-width="6.68493" transform="matrix(.1 0 0 -.1 0 757.95)"/></g><path d="m1757.460938 6904.539062v398.515625" fill="none" stroke="#000" stroke-miterlimit="10" stroke-width="12.7123" transform="matrix(.1 0 0 -.1 0 757.95)"/><g clip-path="url(#f)"><path d="m5946.40625 6904.539062v398.515625" fill="none" stroke="#000" stroke-miterlimit="10" stroke-width="12.7123" transform="matrix(.1 0 0 -.1 0 757.95)"/></g><path d="m4488.359375 6904.539062v398.515625" fill="none" stroke="#000" stroke-miterlimit="10" stroke-width="12.7123" transform="matrix(.1 0 0 -.1 0 757.95)"/><path d="m4573.398438 6773.71875h4.726562v301.328125h-4.726562zm0 0" fill="none" stroke="#000" stroke-linejoin="round" stroke-miterlimit="10" stroke-width="3.98506" transform="matrix(.1 0 0 -.1 0 757.95)"/><path d="m457.339844 80.582031h.472656v-30.136719h-.472656zm0 0"/><use x="447.136" xlink:href="#K" y="110.728"/><use x="459.041481" xlink:href="#L" y="110.728"/><use x="472.647378" xlink:href="#M" y="110.728"/><use x="451.21881" xlink:href="#K" y="138.6233"/><use x="463.1239" xlink:href="#L" y="138.6233"/><use x="529.47701" xlink:href="#au" y="47.5717"/><use x="457.139404" xlink:href="#av" y="47.5717"/><path d="m3930.898438 7075.554687h4.726562v325.117188h-4.726562zm0 0" fill="none" stroke="#000" stroke-linejoin="round" stroke-miterlimit="10" stroke-width="3.98506" transform="matrix(.1 0 0 -.1 0 757.95)"/><path d="m393.089844 50.394531h.472656v-32.511719h-.472656zm0 0"/><use x="367.526" xlink:href="#N" y="138.623"/><use x="381.131873" xlink:href="#O" y="138.623"/><use x="394.738136" xlink:href="#P" y="138.623"/><use x="364.37991" xlink:href="#P" y="110.7277"/><use x="376.114689" xlink:href="#Q" y="110.7277"/><use x="389.720952" xlink:href="#N" y="110.7277"/><use x="403.326825" xlink:href="#R" y="110.7277"/><use x="380.75061" xlink:href="#au" y="52.5527"/><path d="m3272.773438 7025.75h4.726562v325.117187h-4.726562zm0 0" fill="none" stroke="#000" stroke-linejoin="round" stroke-miterlimit="10" stroke-width="3.98506" transform="matrix(.1 0 0 -.1 0 757.95)"/><path d="m327.277344 55.375h.472656v-32.511719h-.472656zm0 0"/><path d="m2177.109375 6539.65625h60.390625v3.359375h-60.390625zm0 0" fill="none" stroke="#000" stroke-linejoin="round" stroke-miterlimit="10" stroke-width="5.34994" transform="matrix(.1 0 0 -.1 0 757.95)"/><path d="m217.710938 103.984375h6.039062v-.335937h-6.039062zm0 0"/><path d="m2228.125 6260.710937h60.390625v3.359375h-60.390625zm0 0" fill="none" stroke="#000" stroke-linejoin="round" stroke-miterlimit="10" stroke-width="5.34994" transform="matrix(.1 0 0 -.1 0 757.95)"/><path d="m222.8125 131.878906h6.039062v-.335937h-6.039062zm0 0"/><path d="m2824.570312 6260.710937h60.429688v3.359375h-60.429688zm0 0" fill="none" stroke="#000" stroke-linejoin="round" stroke-miterlimit="10" stroke-width="5.34994" transform="matrix(.1 0 0 -.1 0 757.95)"/><path d="m282.457031 131.878906h6.039063v-.335937h-6.039063zm0 0"/><path d="m3463.984375 6539.65625h60.390625v3.359375h-60.390625zm0 0" fill="none" stroke="#000" stroke-linejoin="round" stroke-miterlimit="10" stroke-width="5.34994" transform="matrix(.1 0 0 -.1 0 757.95)"/><path d="m346.398438 103.984375h6.039062v-.335937h-6.039062zm0 0"/><path d="m3513.28125 6260.710937h60.429688v3.359375h-60.429688zm0 0" fill="none" stroke="#000" stroke-linejoin="round" stroke-miterlimit="10" stroke-width="5.34994" transform="matrix(.1 0 0 -.1 0 757.95)"/><path d="m351.328125 131.878906h6.042969v-.335937h-6.042969zm0 0"/><path d="m4937.695312 6539.65625h60.390626v3.359375h-60.390626zm0 0" fill="none" stroke="#000" stroke-linejoin="round" stroke-miterlimit="10" stroke-width="5.34994" transform="matrix(.1 0 0 -.1 0 757.95)"/><path d="m493.769531 103.984375h6.039063v-.335937h-6.039063zm0 0"/><path d="m4919.84375 6260.710937h60.390625v3.359375h-60.390625zm0 0" fill="none" stroke="#000" stroke-linejoin="round" stroke-miterlimit="10" stroke-width="5.34994" transform="matrix(.1 0 0 -.1 0 757.95)"/><path d="m491.984375 131.878906h6.039063v-.335937h-6.039063zm0 0"/><path d="m5296.757812 6773.71875h4.726563v308.476562h-4.726563zm0 0" fill="none" stroke="#000" stroke-linejoin="round" stroke-miterlimit="10" stroke-width="3.98506" transform="matrix(.1 0 0 -.1 0 757.95)"/><path d="m529.675781 80.582031h.472657v-30.851562h-.472657zm0 0"/><use x="513.276" xlink:href="#S" y="138.623"/><use x="526.712756" xlink:href="#T" y="138.623"/><use x="538.447535" xlink:href="#U" y="138.623"/><use x="551.884291" xlink:href="#V" y="138.623"/><use x="512.765844" xlink:href="#W" y="110.7277"/><use x="518.208441" xlink:href="#U" y="110.7277"/><use x="531.814728" xlink:href="#X" y="110.7277"/><use x="552.394456" xlink:href="#V" y="110.7277"/><use x="301.713844" xlink:href="#N" y="138.623"/><use x="315.320107" xlink:href="#O" y="138.623"/><use x="328.92598" xlink:href="#P" y="138.623"/><use x="72.302844" xlink:href="#aA" y="47.5714"/><use x="72.302844" xlink:href="#aA" y="67.655"/><use x="308.431844" xlink:href="#X" y="110.7277"/><use x="329.011938" xlink:href="#Y" y="110.7277"/><path d="m1202.148438 6776.6875h4.726562v325.117187h-4.726562zm0 0" fill="none" stroke="#000" stroke-linejoin="round" stroke-miterlimit="10" stroke-width="3.98506" transform="matrix(.1 0 0 -.1 0 757.95)"/><path d="m120.214844 80.28125h.472656v-32.511719h-.472656zm0 0"/><use x="103.496" xlink:href="#Z" y="138.623"/><use x="119.823757" xlink:href="#Y" y="138.623"/><use x="75.1651" xlink:href="#aB" y="110.7277"/><use x="87.411205" xlink:href="#aC" y="110.7277"/><use x="106.2174" xlink:href="#aa" y="110.7277"/><use x="43.8725" xlink:href="#aw" y="47.5714"/><use x="52.87641" xlink:href="#aw" y="32.6273"/><use x="7.96981" xlink:href="#ax" y="57.5339"/><use x="107.87641" xlink:href="#au" y="82.4405"/><use x="314.93941" xlink:href="#au" y="57.5339"/><path d="m2614.6875 6975.945312h4.726562v325.117188h-4.726562zm0 0" fill="none" stroke="#000" stroke-linejoin="round" stroke-miterlimit="10" stroke-width="3.98506" transform="matrix(.1 0 0 -.1 0 757.95)"/><path d="m261.46875 60.355469h.46875v-32.507813h-.46875zm0 0"/><use x="242.027" xlink:href="#ab" y="138.623"/><use x="255.632873" xlink:href="#O" y="138.623"/><use x="238.79536" xlink:href="#R" y="110.7277"/><use x="245.25788" xlink:href="#ac" y="110.7277"/><use x="258.864143" xlink:href="#ab" y="110.7277"/><use x="249.12856" xlink:href="#au" y="62.5152"/><use x="183.318482" xlink:href="#au" y="62.5152"/><use x="176.98206" xlink:href="#W" y="110.7277"/><use x="182.424644" xlink:href="#ac" y="110.7277"/><use x="195.861376" xlink:href="#R" y="110.7277"/><path d="m1956.5625 6975.945312h4.726562v325.117188h-4.726562zm0 0" fill="none" stroke="#000" stroke-linejoin="round" stroke-miterlimit="10" stroke-width="3.98506" transform="matrix(.1 0 0 -.1 0 757.95)"/><path d="m195.65625 60.355469h.472656v-32.507813h-.472656zm0 0"/><use x="170.009" xlink:href="#X" y="138.623"/><use x="190.588716" xlink:href="#Y" y="138.623"/><use x="196.0313" xlink:href="#N" y="138.623"/><g clip-path="url(#g)"><path d="m3.359375 5589.851562h5946.054687" style="fill:none;stroke-width:6.68493;stroke-linecap:round;stroke-linejoin:round;stroke:#000;stroke-miterlimit:10" transform="matrix(.1 0 0 -.1 0 757.95)"/></g><g clip-path="url(#h)"><path d="m3.359375 5689.460937h5946.054687" style="fill:none;stroke-width:6.68493;stroke-linecap:round;stroke-linejoin:round;stroke:#000;stroke-miterlimit:10" transform="matrix(.1 0 0 -.1 0 757.95)"/></g><g clip-path="url(#i)"><path d="m3.359375 5789.109375h5946.054687" style="fill:none;stroke-width:6.68493;stroke-linecap:round;stroke-linejoin:round;stroke:#000;stroke-miterlimit:10" transform="matrix(.1 0 0 -.1 0 757.95)"/></g><g clip-path="url(#j)"><path d="m3.359375 5888.71875h5946.054687" style="fill:none;stroke-width:6.68493;stroke-linecap:round;stroke-linejoin:round;stroke:#000;stroke-miterlimit:10" transform="matrix(.1 0 0 -.1 0 757.95)"/></g><g clip-path="url(#k)"><path d="m3.359375 5988.367187h5946.054687" style="fill:none;stroke-width:6.68493;stroke-linecap:round;stroke-linejoin:round;stroke:#000;stroke-miterlimit:10" transform="matrix(.1 0 0 -.1 0 757.95)"/></g><path d="m1521.953125 5589.851562v398.515625" fill="none" stroke="#000" stroke-linejoin="round" stroke-miterlimit="10" stroke-width="12.7123" transform="matrix(.1 0 0 -.1 0 757.95)"/><use x="581.427" xlink:href="#ay" y="174.058"/><use x="581.427" xlink:href="#ay" y="184.0205"/><g clip-path="url(#l)"><path d="m5932.695312 5589.851562v398.515625" fill="none" stroke="#000" stroke-linejoin="round" stroke-miterlimit="10" stroke-width="40.1395" transform="matrix(.1 0 0 -.1 0 757.95)"/></g><path d="m5886.210938 5589.851562v398.515625" fill="none" stroke="#000" stroke-linejoin="round" stroke-miterlimit="10" stroke-width="12.7123" transform="matrix(.1 0 0 -.1 0 757.95)"/><path d="m4342.34375 5589.851562v398.515625" fill="none" stroke="#000" stroke-linejoin="round" stroke-miterlimit="10" stroke-width="12.7123" transform="matrix(.1 0 0 -.1 0 757.95)"/><use x="430.408" xlink:href="#ad" y="235.239"/><use x="435.850597" xlink:href="#U" y="235.239"/><use x="449.456494" xlink:href="#P" y="235.239"/><use x="461.7026" xlink:href="#V" y="235.239"/><use x="417.2264" xlink:href="#K" y="263.1343"/><use x="429.13149" xlink:href="#U" y="263.1343"/><use x="442.568246" xlink:href="#S" y="263.1343"/><use x="456.005002" xlink:href="#T" y="263.1343"/><use x="468.080796" xlink:href="#ae" y="263.1343"/><path d="m4428.203125 5458.992187h4.726563v301.367188h-4.726563zm0 0" fill="none" stroke="#000" stroke-linejoin="round" stroke-miterlimit="10" stroke-width="3.98506" transform="matrix(.1 0 0 -.1 0 757.95)"/><path d="m442.820312 212.050781h.472657v-30.136719h-.472657zm0 0"/><use x="296.51" xlink:href="#au" y="179.039"/><use x="442.622225" xlink:href="#av" y="179.039"/><path d="m3764.960938 5760.867187h4.726562v325.117188h-4.726562zm0 0" fill="none" stroke="#000" stroke-linejoin="round" stroke-miterlimit="10" stroke-width="3.98506" transform="matrix(.1 0 0 -.1 0 757.95)"/><path d="m376.496094 181.863281h.472656v-32.511719h-.472656zm0 0"/><use x="357.993" xlink:href="#P" y="263.134"/><use x="369.727779" xlink:href="#O" y="263.134"/><use x="361.14027" xlink:href="#W" y="235.2387"/><use x="366.582867" xlink:href="#U" y="235.2387"/><use x="364.1598" xlink:href="#au" y="184.0207"/><path d="m2967.109375 5458.992187h4.6875v308.515625h-4.6875zm0 0" fill="none" stroke="#000" stroke-linejoin="round" stroke-miterlimit="10" stroke-width="3.98506" transform="matrix(.1 0 0 -.1 0 757.95)"/><path d="m296.710938 212.050781h.46875v-30.851562h-.46875zm0 0"/><use x="296.211" xlink:href="#Q" y="263.134"/><use x="282.6895" xlink:href="#S" y="235.2387"/><use x="296.126232" xlink:href="#U" y="235.2387"/><use x="309.732104" xlink:href="#ab" y="235.2387"/><path d="m1215.429688 5294.539062h60.390624v3.359375h-60.390624zm0 0" fill="none" stroke="#000" stroke-linejoin="round" stroke-miterlimit="10" stroke-width="5.34994" transform="matrix(.1 0 0 -.1 0 757.95)"/><path d="m121.542969 228.496094h6.039062v-.335938h-6.039062zm0 0"/><path d="m1929.375 5015.59375h60.390625v3.359375h-60.390625zm0 0" fill="none" stroke="#000" stroke-linejoin="round" stroke-miterlimit="10" stroke-width="5.34994" transform="matrix(.1 0 0 -.1 0 757.95)"/><path d="m192.933594 256.390625h6.042968v-.335937h-6.042968zm0 0"/><path d="m2609.921875 5294.539062h60.390625v3.359375h-60.390625zm0 0" fill="none" stroke="#000" stroke-linejoin="round" stroke-miterlimit="10" stroke-width="5.34994" transform="matrix(.1 0 0 -.1 0 757.95)"/><path d="m260.992188 228.496094h6.039062v-.335938h-6.039062zm0 0"/><path d="m3392.1875 5294.539062h60.429688v3.359375h-60.429688zm0 0" fill="none" stroke="#000" stroke-linejoin="round" stroke-miterlimit="10" stroke-width="5.34994" transform="matrix(.1 0 0 -.1 0 757.95)"/><path d="m339.21875 228.496094h6.042969v-.335938h-6.042969zm0 0"/><path d="m3308.867188 5015.59375h60.390624v3.359375h-60.390624zm0 0" fill="none" stroke="#000" stroke-linejoin="round" stroke-miterlimit="10" stroke-width="5.34994" transform="matrix(.1 0 0 -.1 0 757.95)"/><path d="m330.886719 256.390625h6.039062v-.335937h-6.039062zm0 0"/><path d="m4022.773438 5294.539062h60.429687v3.359375h-60.429687zm0 0" fill="none" stroke="#000" stroke-linejoin="round" stroke-miterlimit="10" stroke-width="5.34994" transform="matrix(.1 0 0 -.1 0 757.95)"/><path d="m402.277344 228.496094h6.039062v-.335938h-6.039062zm0 0"/><use x="517.171" xlink:href="#az" y="179.039"/><use x="7.97" xlink:href="#ax" y="189.0015"/><path d="m859.53125 5542.039062h4.6875v325.117188h-4.6875zm0 0" fill="none" stroke="#000" stroke-linejoin="round" stroke-miterlimit="10" stroke-width="3.98506" transform="matrix(.1 0 0 -.1 0 757.95)"/><path d="m85.953125 203.746094h.46875v-32.511719h-.46875zm0 0"/><use x="81.373" xlink:href="#Z" y="263.134"/><use x="97.700757" xlink:href="#Y" y="263.134"/><use x="76.6105" xlink:href="#af" y="235.2387"/><use x="94.299191" xlink:href="#ag" y="235.2387"/><use x="85.75347" xlink:href="#au" y="169.077"/><use x="43.87257" xlink:href="#aw" y="179.0395"/><use x="52.87648" xlink:href="#aw" y="164.0954"/><use x="228.70948" xlink:href="#au" y="179.0395"/><use x="160.90748" xlink:href="#au" y="174.05825"/><use x="225.09378" xlink:href="#ah" y="235.23875"/><use x="231.727002" xlink:href="#ag" y="235.23875"/><use x="212.25318" xlink:href="#P" y="263.13405"/><use x="223.987959" xlink:href="#O" y="263.13405"/><use x="237.594222" xlink:href="#X" y="263.13405"/><path d="m2289.101562 5458.992187h4.6875v308.515625h-4.6875zm0 0" fill="none" stroke="#000" stroke-linejoin="round" stroke-miterlimit="10" stroke-width="3.98506" transform="matrix(.1 0 0 -.1 0 757.95)"/><path d="m228.910156 212.050781h.46875v-30.851562h-.46875zm0 0"/><path d="m1611.09375 5492.234375h4.6875v325.078125h-4.6875zm0 0" fill="none" stroke="#000" stroke-linejoin="round" stroke-miterlimit="10" stroke-width="3.98506" transform="matrix(.1 0 0 -.1 0 757.95)"/><path d="m161.109375 208.726562h.46875v-32.507812h-.46875zm0 0"/><use x="155.167" xlink:href="#ad" y="263.134"/><use x="160.609584" xlink:href="#O" y="263.134"/><use x="174.215457" xlink:href="#ad" y="263.134"/><use x="141.2201" xlink:href="#S" y="235.2387"/><use x="154.656832" xlink:href="#T" y="235.2387"/><use x="166.391999" xlink:href="#U" y="235.2387"/><use x="179.997872" xlink:href="#N" y="235.2387"/><g clip-path="url(#m)"><path d="m3.359375 4296.765625h5946.054687" style="fill:none;stroke-width:6.68493;stroke-linecap:round;stroke-linejoin:round;stroke:#000;stroke-miterlimit:10" transform="matrix(.1 0 0 -.1 0 757.95)"/></g><g clip-path="url(#n)"><path d="m3.359375 4396.375h5946.054687" style="fill:none;stroke-width:6.68493;stroke-linecap:round;stroke-linejoin:round;stroke:#000;stroke-miterlimit:10" transform="matrix(.1 0 0 -.1 0 757.95)"/></g><g clip-path="url(#o)"><path d="m3.359375 4496.023437h5946.054687" style="fill:none;stroke-width:6.68493;stroke-linecap:round;stroke-linejoin:round;stroke:#000;stroke-miterlimit:10" transform="matrix(.1 0 0 -.1 0 757.95)"/></g><g clip-path="url(#p)"><path d="m3.359375 4595.632812h5946.054687" style="fill:none;stroke-width:6.68493;stroke-linecap:round;stroke-linejoin:round;stroke:#000;stroke-miterlimit:10" transform="matrix(.1 0 0 -.1 0 757.95)"/></g><g clip-path="url(#q)"><path d="m3.359375 4695.28125h5946.054687" style="fill:none;stroke-width:6.68493;stroke-linecap:round;stroke-linejoin:round;stroke:#000;stroke-miterlimit:10" transform="matrix(.1 0 0 -.1 0 757.95)"/></g><path d="m4408.632812 4296.765625v398.515625" fill="none" stroke="#000" stroke-linejoin="round" stroke-miterlimit="10" stroke-width="12.7123" transform="matrix(.1 0 0 -.1 0 757.95)"/><path d="m1544.375 4296.765625v398.515625" fill="none" stroke="#000" stroke-linejoin="round" stroke-miterlimit="10" stroke-width="12.7123" transform="matrix(.1 0 0 -.1 0 757.95)"/><g clip-path="url(#r)"><path d="m5946.40625 4296.765625v398.515625" fill="none" stroke="#000" stroke-linejoin="round" stroke-miterlimit="10" stroke-width="12.7123" transform="matrix(.1 0 0 -.1 0 757.95)"/></g><use x="302.852" xlink:href="#au" y="303.367"/><path d="m4615.664062 4474.929687h4.726563v317.96875h-4.726563zm0 0" fill="none" stroke="#000" stroke-linejoin="round" stroke-miterlimit="10" stroke-width="3.98506" transform="matrix(.1 0 0 -.1 0 757.95)"/><path d="m461.566406 310.457031h.46875v-31.796875h-.46875zm0 0"/><use x="433.801" xlink:href="#ai" y="366"/><use x="446.047107" xlink:href="#aj" y="366"/><use x="458.293213" xlink:href="#ak" y="366"/><use x="464.756097" xlink:href="#K" y="366"/><use x="448.5666" xlink:href="#av" y="313.3293"/><path d="m3723.828125 4165.90625h4.6875v308.515625h-4.6875zm0 0" fill="none" stroke="#000" stroke-linejoin="round" stroke-miterlimit="10" stroke-width="3.98506" transform="matrix(.1 0 0 -.1 0 757.95)"/><path d="m372.382812 341.359375h.46875v-30.851563h-.46875zm0 0"/><use x="371.884" xlink:href="#O" y="366"/><use x="372.182828" xlink:href="#au" y="308.348"/><path d="m3030.507812 4199.148437h4.726563v325.078125h-4.726563zm0 0" fill="none" stroke="#000" stroke-linejoin="round" stroke-miterlimit="10" stroke-width="3.98506" transform="matrix(.1 0 0 -.1 0 757.95)"/><path d="m303.050781 338.035156h.472657v-32.507812h-.472657zm0 0"/><use x="277.466" xlink:href="#S" y="366"/><use x="290.902732" xlink:href="#T" y="366"/><use x="303.148838" xlink:href="#al" y="366"/><use x="316.754711" xlink:href="#W" y="366"/><use x="322.197307" xlink:href="#R" y="366"/><use x="329.000842" xlink:href="#ai" y="366"/><path d="m1970.117188 3986.921875h60.390624v3.359375h-60.390624zm0 0" fill="none" stroke="#000" stroke-linejoin="round" stroke-miterlimit="10" stroke-width="5.34994" transform="matrix(.1 0 0 -.1 0 757.95)"/><path d="m197.011719 359.257812h6.039062v-.335937h-6.039062zm0 0"/><path d="m4918.164062 3986.921875h60.390626v3.359375h-60.390626zm0 0" fill="none" stroke="#000" stroke-linejoin="round" stroke-miterlimit="10" stroke-width="5.34994" transform="matrix(.1 0 0 -.1 0 757.95)"/><path d="m491.816406 359.257812h6.039063v-.335937h-6.039063zm0 0"/><path d="m5346.640625 4368.171875h4.6875v325.078125h-4.6875zm0 0" fill="none" stroke="#000" stroke-linejoin="round" stroke-miterlimit="10" stroke-width="3.98506" transform="matrix(.1 0 0 -.1 0 757.95)"/><path d="m534.664062 321.132812h.46875v-32.507812h-.46875zm0 0"/><use x="512.671" xlink:href="#am" y="366"/><use x="526.276897" xlink:href="#O" y="366"/><use x="539.54334" xlink:href="#an" y="366"/><use x="522.32373" xlink:href="#au" y="323.2922"/><use x="43.87173" xlink:href="#aw" y="308.3481"/><use x="52.87564" xlink:href="#aw" y="293.4044"/><path d="m859.53125 4165.90625h4.6875v308.515625h-4.6875zm0 0" fill="none" stroke="#000" stroke-linejoin="round" stroke-miterlimit="10" stroke-width="3.98506" transform="matrix(.1 0 0 -.1 0 757.95)"/><path d="m85.953125 341.359375h.46875v-30.851563h-.46875zm0 0"/><use x="79.5875" xlink:href="#ao" y="366"/><use x="98.126198" xlink:href="#V" y="366"/><use x="85.75352" xlink:href="#au" y="308.348"/><use x="7.96992" xlink:href="#ax" y="318.3105"/><use x="163.49692" xlink:href="#au" y="298.3855"/><use x="232.827001" xlink:href="#au" y="298.3855"/><use x="217.13602" xlink:href="#aj" y="366"/><use x="229.04111" xlink:href="#ap" y="366"/><use x="242.646982" xlink:href="#ai" y="366"/><use x="254.722776" xlink:href="#V" y="366"/><path d="m2330.273438 4248.953125h4.6875v325.078125h-4.6875zm0 0" fill="none" stroke="#000" stroke-linejoin="round" stroke-miterlimit="10" stroke-width="3.98506" transform="matrix(.1 0 0 -.1 0 757.95)"/><path d="m233.027344 333.054688h.46875v-32.507813h-.46875zm0 0"/><path d="m1636.953125 4248.953125h4.726563v325.078125h-4.726563zm0 0" fill="none" stroke="#000" stroke-linejoin="round" stroke-miterlimit="10" stroke-width="3.98506" transform="matrix(.1 0 0 -.1 0 757.95)"/><path d="m163.695312 333.054688h.472657v-32.507813h-.472657zm0 0"/><use x="157.076" xlink:href="#aq" y="366"/><use x="169.321716" xlink:href="#Q" y="366"/><g clip-path="url(#s)"><path d="m3.359375 3101.257812h5946.054687" style="fill:none;stroke-width:6.68493;stroke-linecap:round;stroke-linejoin:round;stroke:#000;stroke-miterlimit:10" transform="matrix(.1 0 0 -.1 0 757.95)"/></g><g clip-path="url(#t)"><path d="m3.359375 3200.867187h5946.054687" style="fill:none;stroke-width:6.68493;stroke-linecap:round;stroke-linejoin:round;stroke:#000;stroke-miterlimit:10" transform="matrix(.1 0 0 -.1 0 757.95)"/></g><g clip-path="url(#u)"><path d="m3.359375 3300.515625h5946.054687" style="fill:none;stroke-width:6.68493;stroke-linecap:round;stroke-linejoin:round;stroke:#000;stroke-miterlimit:10" transform="matrix(.1 0 0 -.1 0 757.95)"/></g><g clip-path="url(#v)"><path d="m3.359375 3400.125h5946.054687" style="fill:none;stroke-width:6.68493;stroke-linecap:round;stroke-linejoin:round;stroke:#000;stroke-miterlimit:10" transform="matrix(.1 0 0 -.1 0 757.95)"/></g><g clip-path="url(#w)"><path d="m3.359375 3499.734375h5946.054687" style="fill:none;stroke-width:6.68493;stroke-linecap:round;stroke-linejoin:round;stroke:#000;stroke-miterlimit:10" transform="matrix(.1 0 0 -.1 0 757.95)"/></g><path d="m4448.945312 3101.257812v398.476563" fill="none" stroke="#000" stroke-linejoin="round" stroke-miterlimit="10" stroke-width="12.7123" transform="matrix(.1 0 0 -.1 0 757.95)"/><path d="m1577.773438 3101.257812v398.476563" fill="none" stroke="#000" stroke-linejoin="round" stroke-miterlimit="10" stroke-width="12.7123" transform="matrix(.1 0 0 -.1 0 757.95)"/><g clip-path="url(#x)"><path d="m5946.40625 3101.257812v398.476563" fill="none" stroke="#000" stroke-linejoin="round" stroke-miterlimit="10" stroke-width="12.7123" transform="matrix(.1 0 0 -.1 0 757.95)"/></g><path d="m4655.859375 3179.773437h4.6875v317.96875h-4.6875zm0 0" fill="none" stroke="#000" stroke-linejoin="round" stroke-miterlimit="10" stroke-width="3.98506" transform="matrix(.1 0 0 -.1 0 757.95)"/><path d="m465.585938 439.972656h.46875v-31.796875h-.46875zm0 0"/><use x="440.201" xlink:href="#P" y="482.695"/><use x="451.936168" xlink:href="#O" y="482.695"/><use x="465.372924" xlink:href="#R" y="482.695"/><use x="471.835419" xlink:href="#V" y="482.695"/><use x="452.5858" xlink:href="#av" y="442.8446"/><path d="m3855.625 3222.46875h4.726562v325.117187h-4.726562zm0 0" fill="none" stroke="#000" stroke-linejoin="round" stroke-miterlimit="10" stroke-width="3.98506" transform="matrix(.1 0 0 -.1 0 757.95)"/><path d="m385.5625 435.703125h.472656v-32.511719h-.472656zm0 0"/><use x="366.123" xlink:href="#N" y="482.695"/><use x="379.728873" xlink:href="#O" y="482.695"/><use x="373.22456" xlink:href="#au" y="437.8634"/><path d="m3165.234375 3222.46875h4.726563v325.117187h-4.726563zm0 0" fill="none" stroke="#000" stroke-linejoin="round" stroke-miterlimit="10" stroke-width="3.98506" transform="matrix(.1 0 0 -.1 0 757.95)"/><path d="m316.523438 435.703125h.472656v-32.511719h-.472656zm0 0"/><use x="294.703" xlink:href="#K" y="482.695"/><use x="306.438168" xlink:href="#Q" y="482.695"/><use x="319.874899" xlink:href="#R" y="482.695"/><use x="304.18542" xlink:href="#au" y="437.8634"/><path d="m2745.546875 2820.007812h60.390625v3.320313h-60.390625zm0 0" fill="none" stroke="#000" stroke-linejoin="round" stroke-miterlimit="10" stroke-width="5.34994" transform="matrix(.1 0 0 -.1 0 757.95)"/><path d="m274.554688 475.949219h6.039062v-.332031h-6.039062zm0 0"/><path d="m3433.789062 2820.007812h60.429688v3.320313h-60.429688zm0 0" fill="none" stroke="#000" stroke-linejoin="round" stroke-miterlimit="10" stroke-width="5.34994" transform="matrix(.1 0 0 -.1 0 757.95)"/><path d="m343.378906 475.949219h6.042969v-.332031h-6.042969zm0 0"/><path d="m4137.460938 2820.007812h60.429687v3.320313h-60.429687zm0 0" fill="none" stroke="#000" stroke-linejoin="round" stroke-miterlimit="10" stroke-width="5.34994" transform="matrix(.1 0 0 -.1 0 757.95)"/><path d="m413.746094 475.949219h6.042968v-.332031h-6.042968zm0 0"/><use x="528.51" xlink:href="#az" y="427.9"/><use x="43.870913" xlink:href="#aw" y="427.9"/><use x="52.876" xlink:href="#aw" y="412.9563"/><path d="m980.9375 3172.664062h4.726562v325.078125h-4.726562zm0 0" fill="none" stroke="#000" stroke-linejoin="round" stroke-miterlimit="10" stroke-width="3.98506" transform="matrix(.1 0 0 -.1 0 757.95)"/><path d="m98.09375 440.6875h.46875v-32.511719h-.46875zm0 0"/><use x="65.641" xlink:href="#ar" y="482.695"/><use x="86.22071" xlink:href="#ag" y="482.695"/><use x="99.826588" xlink:href="#ai" y="482.695"/><use x="112.072695" xlink:href="#R" y="482.695"/><use x="85.7535" xlink:href="#au" y="442.8446"/><use x="7.9699" xlink:href="#ax" y="437.86335"/><use x="235.1459" xlink:href="#au" y="432.8821"/><use x="222.8572" xlink:href="#ai" y="482.695"/><use x="235.103307" xlink:href="#aj" y="482.695"/><use x="246.838085" xlink:href="#ac" y="482.695"/><path d="m2474.84375 3272.273437h4.726562v325.117188h-4.726562zm0 0" fill="none" stroke="#000" stroke-linejoin="round" stroke-miterlimit="10" stroke-width="3.98506" transform="matrix(.1 0 0 -.1 0 757.95)"/><path d="m247.484375 430.722656h.472656v-32.511718h-.472656zm0 0"/><path d="m1664.570312 2970.398437h4.726563v308.515625h-4.726563zm0 0" fill="none" stroke="#000" stroke-linejoin="round" stroke-miterlimit="10" stroke-width="3.98506" transform="matrix(.1 0 0 -.1 0 757.95)"/><path d="m166.457031 460.910156h.472657v-30.851562h-.472657zm0 0"/><use x="143.765" xlink:href="#ai" y="482.695"/><use x="156.011107" xlink:href="#aj" y="482.695"/><use x="167.746274" xlink:href="#O" y="482.695"/><use x="181.352147" xlink:href="#N" y="482.695"/><use x="194.958019" xlink:href="#R" y="482.695"/><use x="166.2587" xlink:href="#au" y="427.9005"/><g clip-path="url(#y)"><path d="m3.359375 1905.710937h5946.054687" style="fill:none;stroke-width:6.68493;stroke-linecap:round;stroke-linejoin:round;stroke:#000;stroke-miterlimit:10" transform="matrix(.1 0 0 -.1 0 757.95)"/></g><g clip-path="url(#z)"><path d="m3.359375 2005.359375h5946.054687" style="fill:none;stroke-width:6.68493;stroke-linecap:round;stroke-linejoin:round;stroke:#000;stroke-miterlimit:10" transform="matrix(.1 0 0 -.1 0 757.95)"/></g><g clip-path="url(#A)"><path d="m3.359375 2104.96875h5946.054687" style="fill:none;stroke-width:6.68493;stroke-linecap:round;stroke-linejoin:round;stroke:#000;stroke-miterlimit:10" transform="matrix(.1 0 0 -.1 0 757.95)"/></g><g clip-path="url(#B)"><path d="m3.359375 2204.617187h5946.054687" style="fill:none;stroke-width:6.68493;stroke-linecap:round;stroke-linejoin:round;stroke:#000;stroke-miterlimit:10" transform="matrix(.1 0 0 -.1 0 757.95)"/></g><g clip-path="url(#C)"><path d="m3.359375 2304.226562h5946.054687" style="fill:none;stroke-width:6.68493;stroke-linecap:round;stroke-linejoin:round;stroke:#000;stroke-miterlimit:10" transform="matrix(.1 0 0 -.1 0 757.95)"/></g><path d="m4433.203125 1905.710937v398.515625" fill="none" stroke="#000" stroke-linejoin="round" stroke-miterlimit="10" stroke-width="12.7123" transform="matrix(.1 0 0 -.1 0 757.95)"/><path d="m1570.273438 1905.710937v398.515625" fill="none" stroke="#000" stroke-linejoin="round" stroke-miterlimit="10" stroke-width="12.7123" transform="matrix(.1 0 0 -.1 0 757.95)"/><g clip-path="url(#D)"><path d="m5946.40625 1905.710937v398.515625" fill="none" stroke="#000" stroke-linejoin="round" stroke-miterlimit="10" stroke-width="12.7123" transform="matrix(.1 0 0 -.1 0 757.95)"/></g><use x="303.758" xlink:href="#au" y="557.414"/><path d="m4639.804688 1984.265625h4.726562v317.96875h-4.726562zm0 0" fill="none" stroke="#000" stroke-linejoin="round" stroke-miterlimit="10" stroke-width="3.98506" transform="matrix(.1 0 0 -.1 0 757.95)"/><path d="m463.980469 559.523438h.472656v-31.796876h-.472656zm0 0"/><use x="443.191" xlink:href="#Q" y="602.246"/><use x="456.796897" xlink:href="#M" y="602.246"/><use x="465.641066" xlink:href="#R" y="602.246"/><use x="450.9828" xlink:href="#av" y="562.3952"/><path d="m3843.867188 1977.117187h4.6875v325.117188h-4.6875zm0 0" fill="none" stroke="#000" stroke-linejoin="round" stroke-miterlimit="10" stroke-width="3.98506" transform="matrix(.1 0 0 -.1 0 757.95)"/><path d="m384.382812 560.238281h.472657v-32.511719h-.472657zm0 0"/><use x="365.624" xlink:href="#Q" y="602.246"/><use x="379.230263" xlink:href="#ai" y="602.246"/><use x="372.04509" xlink:href="#au" y="562.3952"/><path d="m3160.976562 2026.960937h4.6875v325.117188h-4.6875zm0 0" fill="none" stroke="#000" stroke-linejoin="round" stroke-miterlimit="10" stroke-width="3.98506" transform="matrix(.1 0 0 -.1 0 757.95)"/><path d="m316.097656 555.257812h.46875v-32.511718h-.46875zm0 0"/><use x="287.046" xlink:href="#ai" y="602.246"/><use x="299.292107" xlink:href="#O" y="602.246"/><use x="312.897979" xlink:href="#X" y="602.246"/><path d="m2014.375 1624.460937h60.429688v3.359375h-60.429688zm0 0" fill="none" stroke="#000" stroke-linejoin="round" stroke-miterlimit="10" stroke-width="5.34994" transform="matrix(.1 0 0 -.1 0 757.95)"/><path d="m201.4375 595.503906h6.042969v-.335937h-6.042969zm0 0"/><path d="m2699.53125 1624.460937h60.390625v3.359375h-60.390625zm0 0" fill="none" stroke="#000" stroke-linejoin="round" stroke-miterlimit="10" stroke-width="5.34994" transform="matrix(.1 0 0 -.1 0 757.95)"/><path d="m269.953125 595.503906h6.039063v-.335937h-6.039063zm0 0"/><path d="m4866.367188 1624.460937h60.429687v3.359375h-60.429687zm0 0" fill="none" stroke="#000" stroke-linejoin="round" stroke-miterlimit="10" stroke-width="5.34994" transform="matrix(.1 0 0 -.1 0 757.95)"/><path d="m486.636719 595.503906h6.042969v-.335937h-6.042969zm0 0"/><path d="m5359.21875 1877.507812h4.6875v325.117188h-4.6875zm0 0" fill="none" stroke="#000" stroke-linejoin="round" stroke-miterlimit="10" stroke-width="3.98506" transform="matrix(.1 0 0 -.1 0 757.95)"/><path d="m535.921875 570.199219h.46875v-32.511719h-.46875zm0 0"/><use x="506.871" xlink:href="#ai" y="602.246"/><use x="519.117107" xlink:href="#O" y="602.246"/><use x="532.723394" xlink:href="#X" y="602.246"/><use x="523.5823" xlink:href="#au" y="572.3581"/><use x="43.8723" xlink:href="#aw" y="547.4515"/><use x="52.87621" xlink:href="#aw" y="532.5074"/><path d="m980.9375 1977.117187h4.726562v325.117188h-4.726562zm0 0" fill="none" stroke="#000" stroke-linejoin="round" stroke-miterlimit="10" stroke-width="3.98506" transform="matrix(.1 0 0 -.1 0 757.95)"/><path d="m98.09375 560.238281h.46875v-32.511719h-.46875zm0 0"/><use x="63.7699" xlink:href="#af" y="602.246"/><use x="81.458591" xlink:href="#ag" y="602.246"/><use x="95.06447" xlink:href="#S" y="602.246"/><use x="108.501201" xlink:href="#T" y="602.246"/><use x="85.7535" xlink:href="#au" y="562.3952"/><use x="7.9699" xlink:href="#ax" y="557.41395"/><use x="164.6909" xlink:href="#au" y="572.35805"/><use x="235.4694" xlink:href="#au" y="562.39516"/><use x="225.0514" xlink:href="#M" y="602.24596"/><use x="233.045544" xlink:href="#O" y="602.24596"/><use x="246.651416" xlink:href="#ai" y="602.24596"/><path d="m2478.085938 1977.117187h4.726562v325.117188h-4.726562zm0 0" fill="none" stroke="#000" stroke-linejoin="round" stroke-miterlimit="10" stroke-width="3.98506" transform="matrix(.1 0 0 -.1 0 757.95)"/><path d="m247.808594 560.238281h.472656v-32.511719h-.472656zm0 0"/><path d="m1770.3125 1877.507812h4.726562v325.117188h-4.726562zm0 0" fill="none" stroke="#000" stroke-linejoin="round" stroke-miterlimit="10" stroke-width="3.98506" transform="matrix(.1 0 0 -.1 0 757.95)"/><path d="m177.03125 570.199219h.472656v-32.511719h-.472656zm0 0"/><use x="158.525" xlink:href="#P" y="602.246"/><use x="170.260168" xlink:href="#O" y="602.246"/><g clip-path="url(#E)"><path d="m3.359375 710.203125h5946.054687" style="fill:none;stroke-width:6.68493;stroke-linecap:round;stroke-linejoin:round;stroke:#000;stroke-miterlimit:10" transform="matrix(.1 0 0 -.1 0 757.95)"/></g><g clip-path="url(#F)"><path d="m3.359375 809.851562h5946.054687" style="fill:none;stroke-width:6.68493;stroke-linecap:round;stroke-linejoin:round;stroke:#000;stroke-miterlimit:10" transform="matrix(.1 0 0 -.1 0 757.95)"/></g><g clip-path="url(#G)"><path d="m3.359375 909.460937h5946.054687" style="fill:none;stroke-width:6.68493;stroke-linecap:round;stroke-linejoin:round;stroke:#000;stroke-miterlimit:10" transform="matrix(.1 0 0 -.1 0 757.95)"/></g><g clip-path="url(#H)"><path d="m3.359375 1009.109375h5946.054687" style="fill:none;stroke-width:6.68493;stroke-linecap:round;stroke-linejoin:round;stroke:#000;stroke-miterlimit:10" transform="matrix(.1 0 0 -.1 0 757.95)"/></g><g clip-path="url(#I)"><path d="m3.359375 1108.71875h5946.054687" style="fill:none;stroke-width:6.68493;stroke-linecap:round;stroke-linejoin:round;stroke:#000;stroke-miterlimit:10" transform="matrix(.1 0 0 -.1 0 757.95)"/></g><path d="m4838.085938 710.203125v398.515625" fill="none" stroke="#000" stroke-linejoin="round" stroke-miterlimit="10" stroke-width="12.7123" transform="matrix(.1 0 0 -.1 0 757.95)"/><path d="m1656.757812 710.203125v398.515625" fill="none" stroke="#000" stroke-linejoin="round" stroke-miterlimit="10" stroke-width="12.7123" transform="matrix(.1 0 0 -.1 0 757.95)"/><g clip-path="url(#J)"><path d="m5932.695312 710.203125v398.515625" fill="none" stroke="#000" stroke-linejoin="round" stroke-miterlimit="10" stroke-width="40.1395" transform="matrix(.1 0 0 -.1 0 757.95)"/></g><g fill="none" stroke="#000" stroke-linejoin="round" stroke-miterlimit="10" transform="matrix(.1 0 0 -.1 0 757.95)"><path d="m5886.210938 710.203125v398.515625" stroke-width="12.7123"/><g stroke-linecap="round" stroke-width="16.6476"><path d="m4951.25 610.59375h188.398438"/><path d="m4020.390625 610.59375h178.476563"/><path d="m3251.054688 610.59375h178.476562"/></g><path d="m5107.109375 589.5h4.6875v317.96875h-4.6875zm0 0" stroke-width="3.98506"/></g><path d="m510.710938 699h.46875v-31.796875h-.46875zm0 0"/><use x="515.93" xlink:href="#ay" y="701.8727"/><use x="484.5605" xlink:href="#ab" y="730.1598"/><use x="498.166397" xlink:href="#O" y="730.1598"/><use x="511.603153" xlink:href="#R" y="730.1598"/><use x="517.726195" xlink:href="#as" y="730.1598"/><use x="497.7101" xlink:href="#av" y="701.8727"/><path d="m4167.96875 632.195312h4.726562v325.078125h-4.726562zm0 0" fill="none" stroke="#000" stroke-linejoin="round" stroke-miterlimit="10" stroke-width="3.98506" transform="matrix(.1 0 0 -.1 0 757.95)"/><path d="m416.796875 694.734375h.472656v-32.511719h-.472656zm0 0"/><use x="398.038" xlink:href="#ai" y="730.1598"/><use x="410.284107" xlink:href="#O" y="730.1598"/><use x="404.4587" xlink:href="#au" y="696.8914"/><path d="m3398.632812 632.195312h4.726563v325.078125h-4.726563zm0 0" fill="none" stroke="#000" stroke-linejoin="round" stroke-miterlimit="10" stroke-width="3.98506" transform="matrix(.1 0 0 -.1 0 757.95)"/><path d="m339.863281 694.734375h.472657v-32.511719h-.472657zm0 0"/><use x="314.981" xlink:href="#ai" y="730.1598"/><use x="327.227107" xlink:href="#aj" y="730.1598"/><use x="339.473213" xlink:href="#Q" y="730.1598"/><use x="327.5251" xlink:href="#au" y="696.8914"/><path d="m2896.953125 345.359375h60.390625v3.320312h-60.390625zm0 0" fill="none" stroke="#000" stroke-linejoin="round" stroke-miterlimit="10" stroke-width="5.34994" transform="matrix(.1 0 0 -.1 0 757.95)"/><path d="m289.695312 723.414062h6.039063v-.332031h-6.039063zm0 0"/><path d="m3725.390625 345.359375h60.390625v3.320312h-60.390625zm0 0" fill="none" stroke="#000" stroke-linejoin="round" stroke-miterlimit="10" stroke-width="5.34994" transform="matrix(.1 0 0 -.1 0 757.95)"/><path d="m372.539062 723.414062h6.039063v-.332031h-6.039063zm0 0"/><path d="m4512.03125 345.359375h60.429688v3.320312h-60.429688zm0 0" fill="none" stroke="#000" stroke-linejoin="round" stroke-miterlimit="10" stroke-width="5.34994" transform="matrix(.1 0 0 -.1 0 757.95)"/><path d="m451.203125 723.414062h6.042969v-.332031h-6.042969zm0 0"/><use x="43.8727" xlink:href="#aw" y="667.0035"/><use x="52.87661" xlink:href="#aw" y="652.0594"/><path d="m980.9375 781.609375h4.726562v325.117187h-4.726562zm0 0" fill="none" stroke="#000" stroke-linejoin="round" stroke-miterlimit="10" stroke-width="3.98506" transform="matrix(.1 0 0 -.1 0 757.95)"/><path d="m98.09375 679.789062h.46875v-32.511718h-.46875zm0 0"/><use x="79.0766" xlink:href="#at" y="730.1598"/><use x="91.832863" xlink:href="#O" y="730.1598"/><use x="85.75355" xlink:href="#au" y="681.9477"/><use x="7.96995" xlink:href="#ax" y="676.96606"/><path d="m2629.296875 682h4.726563v325.078125h-4.726563zm0 0" fill="none" stroke="#000" stroke-linejoin="round" stroke-miterlimit="10" stroke-width="3.98506" transform="matrix(.1 0 0 -.1 0 757.95)"/><path d="m262.929688 689.75h.472656v-32.507812h-.472656zm0 0"/><use x="243.745" xlink:href="#R" y="730.1598"/><use x="250.207908" xlink:href="#O" y="730.1598"/><use x="263.64464" xlink:href="#R" y="730.1598"/><use x="250.59148" xlink:href="#au" y="691.9102"/><use x="173.65788" xlink:href="#au" y="686.92895"/><use x="151.16418" xlink:href="#ai" y="730.15985"/><use x="163.410287" xlink:href="#aj" y="730.15985"/><use x="175.145454" xlink:href="#O" y="730.15985"/><use x="188.751327" xlink:href="#N" y="730.15985"/><use x="202.357199" xlink:href="#R" y="730.15985"/><path d="m1859.960938 731.804687h4.726562v325.117188h-4.726562zm0 0" fill="none" stroke="#000" stroke-linejoin="round" stroke-miterlimit="10" stroke-width="3.98506" transform="matrix(.1 0 0 -.1 0 757.95)"/><path d="m185.996094 684.769531h.472656v-32.511719h-.472656zm0 0"/></svg>