<svg height="756.89em" viewBox="0 0 595.28 756.89" width="595.28em" xmlns="http://www.w3.org/2000/svg" xmlns:xlink="http://www.w3.org/1999/xlink"><clipPath id="a"><path d="m0 79h595.28125v1h-595.28125zm0 0"/></clipPath><clipPath id="b"><path d="m0 69h595.28125v2h-595.28125zm0 0"/></clipPath><clipPath id="c"><path d="m0 59h595.28125v2h-595.28125zm0 0"/></clipPath><clipPath id="d"><path d="m0 49h595.28125v2h-595.28125zm0 0"/></clipPath><clipPath id="e"><path d="m0 39h595.28125v2h-595.28125zm0 0"/></clipPath><clipPath id="f"><path d="m0 205h595.28125v2h-595.28125zm0 0"/></clipPath><clipPath id="g"><path d="m0 195h595.28125v2h-595.28125zm0 0"/></clipPath><clipPath id="h"><path d="m0 185h595.28125v2h-595.28125zm0 0"/></clipPath><clipPath id="i"><path d="m0 176h595.28125v1h-595.28125zm0 0"/></clipPath><clipPath id="j"><path d="m0 166h595.28125v1h-595.28125zm0 0"/></clipPath><clipPath id="k"><path d="m591 164h4.28125v45h-4.28125zm0 0"/></clipPath><clipPath id="l"><path d="m0 330h595.28125v2h-595.28125zm0 0"/></clipPath><clipPath id="m"><path d="m0 320h595.28125v2h-595.28125zm0 0"/></clipPath><clipPath id="n"><path d="m0 310h595.28125v2h-595.28125zm0 0"/></clipPath><clipPath id="o"><path d="m0 300h595.28125v2h-595.28125zm0 0"/></clipPath><clipPath id="p"><path d="m0 290h595.28125v2h-595.28125zm0 0"/></clipPath><clipPath id="q"><path d="m0 449h595.28125v2h-595.28125zm0 0"/></clipPath><clipPath id="r"><path d="m0 439h595.28125v2h-595.28125zm0 0"/></clipPath><clipPath id="s"><path d="m0 430h595.28125v1h-595.28125zm0 0"/></clipPath><clipPath id="t"><path d="m0 420h595.28125v1h-595.28125zm0 0"/></clipPath><clipPath id="u"><path d="m0 410h595.28125v1h-595.28125zm0 0"/></clipPath><clipPath id="v"><path d="m0 569h595.28125v2h-595.28125zm0 0"/></clipPath><clipPath id="w"><path d="m0 559h595.28125v2h-595.28125zm0 0"/></clipPath><clipPath id="x"><path d="m0 549h595.28125v2h-595.28125zm0 0"/></clipPath><clipPath id="y"><path d="m0 539h595.28125v2h-595.28125zm0 0"/></clipPath><clipPath id="z"><path d="m0 529h595.28125v2h-595.28125zm0 0"/></clipPath><clipPath id="A"><path d="m0 689h595.28125v1h-595.28125zm0 0"/></clipPath><clipPath id="B"><path d="m0 679h595.28125v1h-595.28125zm0 0"/></clipPath><clipPath id="C"><path d="m0 669h595.28125v1h-595.28125zm0 0"/></clipPath><clipPath id="D"><path d="m0 659h595.28125v1h-595.28125zm0 0"/></clipPath><clipPath id="E"><path d="m0 649h595.28125v1h-595.28125zm0 0"/></clipPath><clipPath id="F"><path d="m591 647h4.28125v45h-4.28125zm0 0"/></clipPath><symbol id="G" overflow="visible"><path d="m3.6875-12.890625h-2.046875v12.890625h2.046875zm0-5.03125h-2.0625v2.578125h2.0625zm0 0"/></symbol><symbol id="H" overflow="visible"><path d="m1.71875-12.890625v12.890625h2.0625v-7.109375c0-2.625 1.390625-4.34375 3.5-4.34375 1.625 0 2.65625.96875 2.65625 2.53125v8.921875h2.046875v-9.734375c0-2.140625-1.609375-3.515625-4.09375-3.515625-1.921875 0-3.140625.734375-4.28125 2.53125v-2.171875zm0 0"/></symbol><symbol id="I" overflow="visible"><path d="m10.765625-9.296875c-.015625-2.53125-1.6875-3.953125-4.671875-3.953125-3 0-4.9375 1.546875-4.9375 3.921875 0 2.03125 1.03125 2.984375 4.078125 3.71875l1.921875.46875c1.421875.34375 2 .859375 2 1.765625 0 1.234375-1.21875 2.046875-3 2.046875-1.109375 0-2.046875-.3125-2.5625-.859375-.328125-.375-.46875-.734375-.59375-1.65625h-2.15625c.09375 2.984375 1.765625 4.40625 5.125 4.40625 3.25 0 5.3125-1.59375 5.3125-4.078125 0-1.921875-1.078125-2.984375-3.625-3.59375l-1.96875-.46875c-1.671875-.390625-2.390625-.9375-2.390625-1.84375 0-1.203125 1.0625-1.9375 2.734375-1.9375 1.640625 0 2.53125.703125 2.578125 2.0625zm0 0"/></symbol><symbol id="J" overflow="visible"><path d="m11.859375 0v-12.890625h-2.046875v7.3125c0 2.625-1.375 4.34375-3.515625 4.34375-1.625 0-2.65625-.984375-2.65625-2.53125v-9.125h-2.046875v9.9375c0 2.140625 1.609375 3.515625 4.109375 3.515625 1.890625 0 3.09375-.65625 4.3125-2.359375v1.796875zm0 0"/></symbol><symbol id="K" overflow="visible"><path d="m3.46875-17.921875h-2.046875v17.921875h2.046875v-5.015625l1.984375-1.96875 4.359375 6.984375h2.53125l-5.265625-8.4375 4.484375-4.453125h-2.640625l-5.453125 5.46875zm0 0"/></symbol><symbol id="L" overflow="visible"><path d="m12.609375-5.75c0-1.96875-.140625-3.15625-.515625-4.109375-.828125-2.125-2.796875-3.390625-5.203125-3.390625-3.59375 0-5.90625 2.71875-5.90625 6.984375 0 4.25 2.21875 6.828125 5.859375 6.828125 2.9375 0 4.984375-1.671875 5.5-4.46875h-2.0625c-.5625 1.6875-1.71875 2.578125-3.375 2.578125-1.296875 0-2.40625-.59375-3.09375-1.671875-.5-.734375-.671875-1.46875-.6875-2.75zm-9.4375-1.671875c.171875-2.390625 1.625-3.9375 3.6875-3.9375 2.09375 0 3.546875 1.625 3.546875 3.9375zm4.40625-10.78125-2.359375 3.640625h1.46875l3.671875-3.640625zm0 0"/></symbol><symbol id="M" overflow="visible"><path d="m1.703125-12.890625v12.890625h2.0625v-6.6875c.015625-3.09375 1.296875-4.484375 4.125-4.40625v-2.09375c-.34375-.046875-.53125-.0625-.78125-.0625-1.328125 0-2.34375.78125-3.515625 2.703125v-2.34375zm0 0"/></symbol><symbol id="N" overflow="visible"><path d="m6.25-12.890625h-2.125v-3.53125h-2.03125v3.53125h-1.75v1.671875h1.75v9.75c0 1.328125.875 2.03125 2.484375 2.03125.53125 0 .984375-.046875 1.671875-.171875v-1.71875c-.296875.078125-.5625.09375-.984375.09375-.890625 0-1.140625-.234375-1.140625-1.15625v-8.828125h2.125zm0 0"/></symbol><symbol id="O" overflow="visible"><path d="m2.140625-2.5625v2.5625h1.46875v.4375c0 1.703125-.3125 2.1875-1.46875 2.25v.921875c1.625.0625 2.578125-1.125 2.578125-3.21875v-2.953125zm0 0"/></symbol><symbol id="P" overflow="visible"><path d="m3.734375-17.921875h-2.0625v17.921875h2.0625zm0 0"/></symbol><symbol id="Q" overflow="visible"><path d="m13.15625-1.203125c-.21875.046875-.3125.046875-.4375.046875-.71875 0-1.109375-.375-1.109375-1.015625v-7.5625c0-2.296875-1.671875-3.515625-4.84375-3.515625-1.890625 0-3.390625.53125-4.28125 1.5-.59375.65625-.84375 1.390625-.890625 2.671875h2.078125c.171875-1.578125 1.09375-2.28125 3.015625-2.28125 1.875 0 2.875.6875 2.875 1.921875v.53125c-.015625.890625-.46875 1.203125-2.140625 1.4375-2.890625.359375-3.34375.453125-4.125.78125-1.5.640625-2.265625 1.765625-2.265625 3.4375 0 2.34375 1.625 3.8125 4.234375 3.8125 1.625 0 2.921875-.5625 4.375-1.890625.140625 1.328125.78125 1.890625 2.109375 1.890625.453125 0 .71875-.046875 1.40625-.21875zm-3.59375-2.859375c0 .6875-.1875 1.109375-.8125 1.671875-.828125.765625-1.84375 1.15625-3.046875 1.15625-1.59375 0-2.53125-.75-2.53125-2.0625 0-1.34375.890625-2.046875 3.09375-2.359375 2.1875-.296875 2.609375-.390625 3.296875-.71875zm-2.09375-14.140625-2.375 3.640625h1.46875l3.671875-3.640625zm0 0"/></symbol><symbol id="R" overflow="visible"><path d="m12.609375-5.75c0-1.96875-.140625-3.15625-.515625-4.109375-.828125-2.125-2.796875-3.390625-5.203125-3.390625-3.59375 0-5.90625 2.71875-5.90625 6.984375 0 4.25 2.21875 6.828125 5.859375 6.828125 2.9375 0 4.984375-1.671875 5.5-4.46875h-2.0625c-.5625 1.6875-1.71875 2.578125-3.375 2.578125-1.296875 0-2.40625-.59375-3.09375-1.671875-.5-.734375-.671875-1.46875-.6875-2.75zm-9.4375-1.671875c.171875-2.390625 1.625-3.9375 3.6875-3.9375 2.09375 0 3.546875 1.625 3.546875 3.9375zm0 0"/></symbol><symbol id="S" overflow="visible"><path d="m10.890625-12.890625h-9.609375v1.796875h7.171875l-7.6875 9.25v1.84375h10.46875v-1.796875h-7.984375l7.640625-9.265625zm0 0"/></symbol><symbol id="T" overflow="visible"><path d="m1.328125-17.921875v17.921875h1.84375v-1.640625c.984375 1.5 2.28125 2.203125 4.078125 2.203125 3.40625 0 5.609375-2.78125 5.609375-7.0625 0-4.171875-2.09375-6.75-5.5-6.75-1.78125 0-3.03125.65625-3.984375 2.109375v-6.78125zm5.625 6.578125c2.296875 0 3.765625 2 3.765625 5.078125 0 2.921875-1.515625 4.90625-3.765625 4.90625-2.1875 0-3.578125-1.953125-3.578125-4.984375s1.390625-5 3.578125-5zm0 0"/></symbol><symbol id="U" overflow="visible"><path d="m11.859375 0v-12.890625h-2.046875v7.3125c0 2.625-1.375 4.34375-3.515625 4.34375-1.625 0-2.65625-.984375-2.65625-2.53125v-9.125h-2.046875v9.9375c0 2.140625 1.609375 3.515625 4.109375 3.515625 1.890625 0 3.09375-.65625 4.3125-2.359375v1.796875zm-5.890625-18.203125-2.359375 3.6875h1.484375l3.65625-3.6875zm4.28125 0-2.359375 3.6875h1.484375l3.65625-3.6875zm0 0"/></symbol><symbol id="V" overflow="visible"><path d="m11.515625 0 5.03125-15.03125v15.03125h2.171875v-17.921875h-3.171875l-5.21875 15.609375-5.3125-15.609375h-3.171875v17.921875h2.171875v-15.03125l5.078125 15.03125zm0 0"/></symbol><symbol id="W" overflow="visible"><path d="m8.1875-17.921875v12.609375c0 1.421875-.140625 2.234375-.5625 2.859375-.4375.6875-1.28125 1.09375-2.1875 1.09375-1.71875 0-2.6875-1.15625-2.6875-3.234375v-1.15625h-2.328125v1.5625c0 2.90625 1.921875 4.75 4.984375 4.75 3.125 0 5.078125-1.9375 5.078125-5.03125v-13.453125zm0 0"/></symbol><symbol id="X" overflow="visible"><path d="m1.71875-17.921875v17.921875h2.046875v-7.109375c0-2.625 1.375-4.34375 3.484375-4.34375.6875 0 1.328125.1875 1.828125.5625.59375.4375.828125 1.046875.828125 1.96875v8.921875h2.046875v-9.734375c0-2.171875-1.546875-3.515625-4.0625-3.515625-1.8125 0-2.921875.5625-4.125 2.140625v-6.8125zm0 0"/></symbol><symbol id="Y" overflow="visible"><path d="m13.15625-1.203125c-.21875.046875-.3125.046875-.4375.046875-.71875 0-1.109375-.375-1.109375-1.015625v-7.5625c0-2.296875-1.671875-3.515625-4.84375-3.515625-1.890625 0-3.390625.53125-4.28125 1.5-.59375.65625-.84375 1.390625-.890625 2.671875h2.078125c.171875-1.578125 1.09375-2.28125 3.015625-2.28125 1.875 0 2.875.6875 2.875 1.921875v.53125c-.015625.890625-.46875 1.203125-2.140625 1.4375-2.890625.359375-3.34375.453125-4.125.78125-1.5.640625-2.265625 1.765625-2.265625 3.4375 0 2.34375 1.625 3.8125 4.234375 3.8125 1.625 0 2.921875-.5625 4.375-1.890625.140625 1.328125.78125 1.890625 2.109375 1.890625.453125 0 .71875-.046875 1.40625-.21875zm-3.59375-2.859375c0 .6875-.1875 1.109375-.8125 1.671875-.828125.765625-1.84375 1.15625-3.046875 1.15625-1.59375 0-2.53125-.75-2.53125-2.0625 0-1.34375.890625-2.046875 3.09375-2.359375 2.1875-.296875 2.609375-.390625 3.296875-.71875zm0 0"/></symbol><symbol id="Z" overflow="visible"><path d="m1.71875-12.890625v12.890625h2.0625v-8.09375c0-1.859375 1.359375-3.359375 3.03125-3.359375 1.53125 0 2.390625.921875 2.390625 2.578125v8.875h2.0625v-8.09375c0-1.859375 1.34375-3.359375 3.015625-3.359375 1.515625 0 2.390625.953125 2.390625 2.578125v8.875h2.0625v-9.671875c0-2.3125-1.328125-3.578125-3.734375-3.578125-1.71875 0-2.75.515625-3.953125 1.96875-.765625-1.390625-1.796875-1.96875-3.46875-1.96875-1.71875 0-2.875.640625-3.96875 2.1875v-1.828125zm0 0"/></symbol><symbol id="aa" overflow="visible"><path d="m9.9375-12.890625v1.875c-1.03125-1.546875-2.171875-2.234375-3.78125-2.234375-3.125 0-5.296875 2.890625-5.296875 7.03125 0 2.15625.515625 3.734375 1.625 5.03125.953125 1.140625 2.1875 1.75 3.515625 1.75 1.546875 0 2.65625-.6875 3.734375-2.3125v.671875c0 3.4375-.953125 4.71875-3.515625 4.71875-1.75 0-2.65625-.6875-2.84375-2.171875h-2.09375c.1875 2.390625 2.09375 3.890625 4.890625 3.890625 1.890625 0 3.46875-.609375 4.3125-1.640625.96875-1.203125 1.34375-2.8125 1.34375-5.828125v-10.78125zm-3.59375 1.53125c2.171875 0 3.390625 1.8125 3.390625 5.09375 0 3.125-1.25 4.9375-3.390625 4.9375-2.109375 0-3.34375-1.84375-3.34375-5.015625 0-3.15625 1.234375-5.015625 3.34375-5.015625zm0 0"/></symbol><symbol id="ab" overflow="visible"><path d="m12.171875-17.921875h-2.046875v6.65625c-.859375-1.296875-2.234375-1.984375-3.953125-1.984375-3.34375 0-5.53125 2.671875-5.53125 6.78125 0 4.359375 2.109375 7.03125 5.609375 7.03125 1.765625 0 3-.65625 4.109375-2.265625v1.703125h1.8125zm-5.65625 6.578125c2.21875 0 3.609375 1.953125 3.609375 5.046875 0 2.984375-1.421875 4.9375-3.578125 4.9375-2.265625 0-3.765625-1.984375-3.765625-4.984375s1.5-5 3.734375-5zm0 0"/></symbol><symbol id="ac" overflow="visible"><path d="m6.6875-13.25c-3.640625 0-5.796875 2.578125-5.796875 6.90625 0 4.359375 2.15625 6.90625 5.828125 6.90625 3.640625 0 5.828125-2.578125 5.828125-6.8125 0-4.46875-2.125-7-5.859375-7zm.03125 1.890625c2.3125 0 3.6875 1.890625 3.6875 5.09375 0 3.046875-1.421875 4.9375-3.6875 4.9375-2.296875 0-3.6875-1.890625-3.6875-5.015625s1.390625-5.015625 3.6875-5.015625zm0 0"/></symbol><symbol id="ad" overflow="visible"><path d="m4.703125-2.5625h-2.5625v2.5625h2.5625zm0 0"/></symbol><symbol id="ae" overflow="visible"><path d="m13.546875-8.171875v8.171875h2.296875v-17.921875h-2.296875v7.734375h-9.21875v-7.734375h-2.28125v17.921875h2.28125v-8.171875zm0 0"/></symbol><symbol id="af" overflow="visible"><path d="m6.34375-12.890625h-2.140625v-2.015625c0-.859375.46875-1.296875 1.421875-1.296875.171875 0 .25 0 .71875.015625v-1.6875c-.46875-.109375-.734375-.125-1.15625-.125-1.890625 0-3.015625 1.078125-3.015625 2.921875v2.1875h-1.734375v1.671875h1.734375v11.21875h2.03125v-11.21875h2.140625zm0 0"/></symbol><symbol id="ag" overflow="visible"><path d="m6.6875-13.25c-3.640625 0-5.796875 2.578125-5.796875 6.90625 0 4.359375 2.15625 6.90625 5.828125 6.90625 3.640625 0 5.828125-2.578125 5.828125-6.8125 0-4.46875-2.125-7-5.859375-7zm.03125 1.890625c2.3125 0 3.6875 1.890625 3.6875 5.09375 0 3.046875-1.421875 4.9375-3.6875 4.9375-2.296875 0-3.6875-1.890625-3.6875-5.015625s1.390625-5.015625 3.6875-5.015625zm-.8125-6.84375-2.390625 3.6875h1.484375l3.65625-3.6875zm4.28125 0-2.390625 3.6875h1.46875l3.671875-3.6875zm0 0"/></symbol><symbol id="ah" overflow="visible"><path d="m1.328125 5.359375h2.0625v-6.71875c1.078125 1.328125 2.296875 1.921875 3.96875 1.921875 3.34375 0 5.5-2.671875 5.5-6.78125 0-4.328125-2.109375-7.03125-5.53125-7.03125-1.75 0-3.140625.78125-4.109375 2.3125v-1.953125h-1.890625zm5.65625-16.703125c2.265625 0 3.734375 2 3.734375 5.078125 0 2.921875-1.5 4.90625-3.734375 4.90625-2.1875 0-3.59375-1.953125-3.59375-4.984375s1.40625-5 3.59375-5zm0 0"/></symbol><symbol id="ai" overflow="visible"><path d="m1.71875-12.890625v14.765625c0 1.265625-.390625 1.6875-1.671875 1.6875-.140625 0-.21875 0-.484375-.015625v1.734375c.234375.0625.359375.078125.6875.078125 2.3125 0 3.515625-.90625 3.515625-2.671875v-15.578125zm2.046875-5.03125h-2.046875v2.578125h2.046875zm0 0"/></symbol><symbol id="aj" overflow="visible"><path d="m11.65625-5.390625 1.84375 5.390625h2.5625l-6.296875-17.921875h-2.953125l-6.390625 17.921875h2.4375l1.890625-5.390625zm-.640625-1.90625h-5.703125l2.953125-8.171875zm0 0"/></symbol><symbol id="ak" overflow="visible"><path d="m9.546875-12.890625-3.578125 10.03125-3.28125-10.03125h-2.203125l4.359375 12.9375-.78125 2.046875c-.34375.90625-.796875 1.25-1.65625 1.25-.34375 0-.640625-.046875-1.078125-.140625v1.84375c.421875.21875.84375.3125 1.375.3125.671875 0 1.375-.21875 1.921875-.609375.640625-.46875 1-1.015625 1.40625-2.046875l5.71875-15.59375zm0 0"/></symbol><symbol id="al" overflow="visible"><path d="m6.984375-7.671875h-5.859375v1.765625h5.859375zm0 0"/></symbol><symbol id="am" overflow="visible"><path d="m4.5-8.171875h9.765625v-2.015625h-9.765625v-5.71875h10.140625v-2.015625h-12.421875v17.921875h12.859375v-2.015625h-10.578125zm4.53125-14.921875-2.390625 3.640625h1.46875l3.671875-3.640625zm0 0"/></symbol><symbol id="an" overflow="visible"><path d="m6.203125-12.890625h-2.140625v-2.015625c0-.859375.46875-1.296875 1.421875-1.296875.171875 0 .25 0 .71875.015625v-1.6875c-.46875-.109375-.75-.125-1.15625-.125-1.90625 0-3.03125 1.078125-3.03125 2.921875v2.1875h-1.71875v1.671875h1.71875v11.21875h2.046875v-11.21875h2.140625zm4.515625 0h-2.03125v12.890625h2.03125zm0-5.03125h-2.03125v2.578125h2.03125zm0 0"/></symbol><symbol id="ao" overflow="visible"><path d="m7.015625 0 4.9375-12.890625h-2.3125l-3.640625 10.453125-3.4375-10.453125h-2.3125l4.515625 12.890625zm0 0"/></symbol><symbol id="ap" overflow="visible"><path d="m6.6875-13.25c-3.640625 0-5.796875 2.578125-5.796875 6.90625 0 4.359375 2.15625 6.90625 5.828125 6.90625 3.640625 0 5.828125-2.578125 5.828125-6.8125 0-4.46875-2.125-7-5.859375-7zm.03125 1.890625c2.3125 0 3.6875 1.890625 3.6875 5.09375 0 3.046875-1.421875 4.9375-3.6875 4.9375-2.296875 0-3.6875-1.890625-3.6875-5.015625s1.390625-5.015625 3.6875-5.015625zm-.71875-6.21875h-2.5625v2.53125h2.5625zm3.984375 0h-2.5625v2.53125h2.5625zm0 0"/></symbol><symbol id="aq" overflow="visible"><path d="m12.59375-2.671875c0 .40625-.125.84375-.40625 1.15625-.828125 1-2.75 2.234375-4.265625 3.1875-1.5.953125-3.421875 2.234375-4.65625 2.59375-.15625.03125-.359375.078125-.515625.078125-.875 0-1.671875-.671875-1.671875-1.671875 0-.40625.125-.84375.390625-1.15625.84375-1 2.75-2.234375 4.265625-3.1875s3.4375-2.234375 4.671875-2.59375c.15625-.03125.359375-.078125.515625-.078125.875 0 1.671875.671875 1.671875 1.671875zm-2.03125-2.703125c-2.984375 0-5.421875.640625-7.53125 2.0625-1.28125.875-2.109375 2.234375-2.59375 3.71875-.234375.703125-.4375 1.5-.4375 2.265625 0 1.875 1.359375 2.703125 3.109375 2.703125 2.984375 0 5.421875-.640625 7.53125-2.0625 1.265625-.875 2.109375-2.234375 2.59375-3.71875.234375-.703125.4375-1.5.4375-2.265625 0-1.875-1.359375-2.703125-3.109375-2.703125zm0 0"/></symbol><symbol id="ar" overflow="visible"><path d="m8.84375-5.375c-1.671875 0-3.265625.546875-4.703125 1.4375-1.875 1.109375-4.140625 3.0625-4.140625 5.890625 0 2.34375 2.078125 3.421875 4.1875 3.421875 1.671875 0 3.265625-.546875 4.703125-1.4375 1.875-1.109375 4.09375-3.0625 4.09375-5.890625 0-2.34375-2.03125-3.421875-4.140625-3.421875zm0 0"/></symbol><symbol id="as" overflow="visible"><path d="m14.625 0c.15625 0 .3125-.15625.3125-.3125v-5.578125c0-.171875-.15625-.328125-.3125-.328125h-14.3125c-.15625 0-.3125.15625-.3125.328125v5.578125c0 .15625.15625.3125.3125.3125zm0 0"/></symbol><symbol id="at" overflow="visible"><path d="m14.90625-10.359375c-.640625-2.796875-1.40625-5.53125-2.203125-8.28125 3.828125-4.34375 7.296875-8.8125 7.296875-14.546875 0-4.5-2.46875-10.953125-5.25-14.3125-.203125-.15625-.453125-.15625-.640625 0-3.796875 2.75-5.984375 7.140625-5.984375 11.765625 0 2.0625.046875 4.09375.28125 6.125.28125 2.59375.953125 5.109375 1.671875 7.609375-4.703125 5.34375-10 10.4375-10 17.53125 0 8.015625 5.78125 14.828125 13.265625 14.828125 1.234375 0 2.390625-.125 3.546875-.3125.125 1.265625.203125 2.546875.203125 3.8125 0 .71875-.046875 1.40625-.078125 2.125-.234375 3.9375-2.671875 7.5625-6.375 7.640625-.046875 0-.078125.046875-.125.046875-2.03125 0-3.78125-1.15625-4.8125-2.796875.4375.203125.90625.359375 1.390625.359375 2.078125 0 3.78125-1.703125 3.78125-3.78125 0-2.234375-1.625-4.140625-3.78125-4.140625-2.359375 0-4.46875 1.828125-4.46875 4.140625 0 4.296875 3.46875 7.765625 7.78125 7.765625 4.6875 0 7.921875-4.21875 8.203125-9 .03125-.765625.03125-1.46875.03125-2.234375 0-1.4375-.078125-2.875-.1875-4.296875 1.03125-.328125 2.03125-.796875 2.90625-1.484375 2.953125-2.1875 4.265625-5.25 4.265625-8.28125 0-5.265625-3.984375-10.328125-10.125-10.328125-.203125 0-.40625.046875-.59375.046875zm3.375 18.53125c-.546875-4.9375-1.46875-9.640625-2.46875-14.3125 4.390625.359375 7.140625 4.03125 7.140625 7.6875 0 2.796875-1.921875 5.671875-4.671875 6.625zm-15.453125-9.40625c0-6.375 4.296875-11.203125 8.609375-16.015625.640625 2.34375 1.265625 4.703125 1.828125 7.09375-4.015625.90625-6.296875 4.296875-6.296875 7.8125 0 2.78125 1.4375 5.609375 4.625 7.328125.125.03125.234375.078125.359375.078125.4375 0 .796875-.40625.796875-.84375 0-.1875-.125-.390625-.28125-.546875-2.234375-1.28125-3.265625-3.1875-3.265625-4.953125 0-2.34375 1.828125-4.453125 4.984375-4.8125 1.03125 4.78125 1.953125 9.515625 2.546875 14.625-1.078125.15625-2.15625.234375-3.265625.234375-5.421875 0-10.640625-4.578125-10.640625-10zm13.546875-40.609375c.671875 2.125.84375 3.15625.84375 5.46875 0 5.0625-2.671875 9.078125-5.9375 12.953125-.71875-2.515625-1.3125-4.953125-1.3125-7.96875 0-4.421875 2.46875-8.453125 6.40625-10.453125zm0 0"/></symbol><symbol id="au" overflow="visible"><path d="m1-1.75c.03125-1.3125.90625-2.46875 2.140625-2.46875 1.203125 0 1.765625 1.390625 1.765625 2.75 0 2.34375-2 4.015625-3.828125 5.53125-.078125-.875-.15625-1.75-.15625-2.625 0-.15625.03125-.28125.03125-.4375zm-2-16.703125.4375 23.875c0 .46875.359375.828125.84375.828125.71875 0 1.03125-.828125 1.59375-1.265625 2.515625-2.03125 6.09375-3.46875 6.09375-6.734375 0-2.15625-1.59375-3.984375-3.703125-3.984375-1.28125 0-2.46875.4375-3.515625 1.1875l.25-13.90625c-.328125-.15625-.640625-.28125-1-.28125s-.671875.125-1 .28125zm0 0"/></symbol><symbol id="av" overflow="visible"><path d="m0 0c0 1.28125 1 2.265625 2.265625 2.265625 1.28125 0 2.28125-.984375 2.28125-2.265625s-1-2.265625-2.28125-2.265625c-1.265625 0-2.265625.984375-2.265625 2.265625zm0 0"/></symbol><symbol id="aw" overflow="visible"><path d="m8.5625-4.546875c3.15625 0 5.5 2.4375 5.5 5.578125 0 1.84375-.796875 3.515625-2.78125 3.515625-3.15625 0-5.546875-2.4375-5.546875-5.578125 0-1.84375.84375-3.515625 2.828125-3.515625zm11.234375 4.546875c0-1.71875-1.390625-2.953125-2.90625-3.78125-2.140625-1.15625-4.53125-1.59375-6.96875-1.59375s-4.859375.4375-7.015625 1.59375c-1.515625.828125-2.90625 2.0625-2.90625 3.78125s1.390625 2.953125 2.90625 3.78125c2.15625 1.15625 4.578125 1.59375 7.015625 1.59375s4.828125-.4375 6.96875-1.59375c1.515625-.828125 2.90625-2.0625 2.90625-3.78125zm0 0"/></symbol><symbol id="ax" overflow="visible"><path d="m5.21875-10.71875v10.71875h3.0625v-15.546875h-2.03125c-.484375 1.84375-2.078125 2.78125-4.765625 2.78125v2.046875zm0 0"/></symbol><symbol id="ay" overflow="visible"><path d="m4.6875-3.203125h-3.28125v3.203125h3.28125zm0 0"/></symbol><symbol id="az" overflow="visible"><path d="m8.90625-1.890625c0 .28125-.09375.59375-.28125.8125-.59375.71875-1.953125 1.578125-3.015625 2.265625-1.078125.671875-2.421875 1.578125-3.296875 1.828125-.109375.03125-.25.0625-.375.0625-.609375 0-1.171875-.484375-1.171875-1.1875 0-.28125.078125-.59375.28125-.8125.59375-.71875 1.9375-1.578125 3.015625-2.265625 1.0625-.671875 2.421875-1.578125 3.296875-1.828125.109375-.03125.25-.0625.359375-.0625.625 0 1.1875.484375 1.1875 1.1875zm-1.4375-1.90625c-2.109375 0-3.828125.4375-5.328125 1.453125-.90625.625-1.5 1.578125-1.828125 2.625-.171875.5-.3125 1.078125-.3125 1.609375 0 1.328125.953125 1.90625 2.203125 1.90625 2.109375 0 3.828125-.4375 5.3125-1.453125.90625-.625 1.5-1.578125 1.84375-2.625.15625-.5.296875-1.078125.296875-1.609375 0-1.328125-.953125-1.90625-2.1875-1.90625zm0 0"/></symbol><path d="m4730.039062 6672.689062h188.398438" fill="none" stroke="#000" stroke-linecap="round" stroke-miterlimit="10" stroke-width="16.6476" transform="matrix(.1 0 0 -.1 0 756.89)"/><g clip-path="url(#a)"><path d="m3.359375 6772.3375h5946.054687" fill="none" stroke="#000" stroke-linecap="round" stroke-miterlimit="10" stroke-width="6.68493" transform="matrix(.1 0 0 -.1 0 756.89)"/></g><g clip-path="url(#b)"><path d="m3.359375 6871.946875h5946.054687" fill="none" stroke="#000" stroke-linecap="round" stroke-miterlimit="10" stroke-width="6.68493" transform="matrix(.1 0 0 -.1 0 756.89)"/></g><g clip-path="url(#c)"><path d="m3.359375 6971.55625h5946.054687" fill="none" stroke="#000" stroke-linecap="round" stroke-miterlimit="10" stroke-width="6.68493" transform="matrix(.1 0 0 -.1 0 756.89)"/></g><g clip-path="url(#d)"><path d="m3.359375 7071.204687h5946.054687" fill="none" stroke="#000" stroke-linecap="round" stroke-miterlimit="10" stroke-width="6.68493" transform="matrix(.1 0 0 -.1 0 756.89)"/></g><g clip-path="url(#e)"><path d="m3.359375 7170.814062h5946.054687" fill="none" stroke="#000" stroke-linecap="round" stroke-miterlimit="10" stroke-width="6.68493" transform="matrix(.1 0 0 -.1 0 756.89)"/></g><use x="413.694" xlink:href="#G" y="118.178"/><use x="419.136597" xlink:href="#H" y="118.178"/><use x="403.4893" xlink:href="#I" y="146.0733"/><use x="415.735407" xlink:href="#J" y="146.0733"/><use x="429.341304" xlink:href="#H" y="146.0733"/><path d="m4293.828125 6751.24375h4.6875v317.96875h-4.6875zm0 0" style="fill:none;stroke-width:3.98506;stroke-linecap:round;stroke-linejoin:round;stroke:#000;stroke-miterlimit:10" transform="matrix(.1 0 0 -.1 0 756.89)"/><path d="m429.382812 81.765625h.46875v-31.796875h-.46875zm0 0"/><use x="475.589" xlink:href="#aq" y="89.621"/><use x="458.6984" xlink:href="#K" y="118.178"/><use x="470.433179" xlink:href="#L" y="118.178"/><use x="484.039466" xlink:href="#M" y="118.178"/><use x="492.883244" xlink:href="#N" y="118.178"/><use x="499.346128" xlink:href="#O" y="118.178"/><use x="461.92926" xlink:href="#K" y="146.0733"/><use x="473.664039" xlink:href="#L" y="146.0733"/><use x="487.270326" xlink:href="#M" y="146.0733"/><use x="496.114104" xlink:href="#N" y="146.0733"/><path d="m4885.898438 6701.439062h4.6875v317.96875h-4.6875zm0 0" style="fill:none;stroke-width:3.98506;stroke-linecap:round;stroke-linejoin:round;stroke:#000;stroke-miterlimit:10" transform="matrix(.1 0 0 -.1 0 756.89)"/><path d="m488.589844 86.746094h.46875v-31.792969h-.46875zm0 0"/><use x="416.384" xlink:href="#aq" y="84.64"/><path d="m3747.304688 6793.9h4.726562v325.117187h-4.726562zm0 0" style="fill:none;stroke-width:3.98506;stroke-linecap:round;stroke-linejoin:round;stroke:#000;stroke-miterlimit:10" transform="matrix(.1 0 0 -.1 0 756.89)"/><path d="m374.730469 77.5h.46875v-32.511719h-.46875zm0 0"/><use x="359.371" xlink:href="#P" y="146.073"/><use x="364.813597" xlink:href="#Q" y="146.073"/><use x="355.28819" xlink:href="#H" y="118.1777"/><use x="368.894063" xlink:href="#R" y="118.1777"/><use x="362.39053" xlink:href="#ar" y="79.6582"/><path d="m3207.382812 6843.704687h4.726563v325.117188h-4.726563zm0 0" style="fill:none;stroke-width:3.98506;stroke-linecap:round;stroke-linejoin:round;stroke:#000;stroke-miterlimit:10" transform="matrix(.1 0 0 -.1 0 756.89)"/><path d="m320.738281 72.519531h.472657v-32.511719h-.472657zm0 0"/><use x="302.147" xlink:href="#S" y="146.073"/><use x="314.052481" xlink:href="#J" y="146.073"/><use x="308.39856" xlink:href="#ar" y="74.6765"/><path d="m4494.179688 6175.61875h60.429687v3.320312h-60.429687zm0 0" style="fill:none;stroke-width:5.34994;stroke-linecap:round;stroke-linejoin:round;stroke:#000;stroke-miterlimit:10" transform="matrix(.1 0 0 -.1 0 756.89)"/><path d="m449.417969 139.328125h6.039062v-.332031h-6.039062zm0 0"/><path d="m1070.273438 6454.564062h60.390624v3.359375h-60.390624zm0 0" style="fill:none;stroke-width:5.34994;stroke-linecap:round;stroke-linejoin:round;stroke:#000;stroke-miterlimit:10" transform="matrix(.1 0 0 -.1 0 756.89)"/><path d="m107.023438 111.433594h6.042968v-.332032h-6.042968zm0 0"/><path d="m1794.6875 6175.61875h60.429688v3.320312h-60.429688zm0 0" style="fill:none;stroke-width:5.34994;stroke-linecap:round;stroke-linejoin:round;stroke:#000;stroke-miterlimit:10" transform="matrix(.1 0 0 -.1 0 756.89)"/><path d="m179.46875 139.328125h6.042969v-.332031h-6.042969zm0 0"/><path d="m2301.914062 6454.564062h60.390626v3.359375h-60.390626zm0 0" style="fill:none;stroke-width:5.34994;stroke-linecap:round;stroke-linejoin:round;stroke:#000;stroke-miterlimit:10" transform="matrix(.1 0 0 -.1 0 756.89)"/><path d="m230.191406 111.433594h6.039063v-.332032h-6.039063zm0 0"/><path d="m2226.640625 6175.61875h60.429687v3.320312h-60.429687zm0 0" style="fill:none;stroke-width:5.34994;stroke-linecap:round;stroke-linejoin:round;stroke:#000;stroke-miterlimit:10" transform="matrix(.1 0 0 -.1 0 756.89)"/><path d="m222.664062 139.328125h6.042969v-.332031h-6.042969zm0 0"/><path d="m2852.695312 6175.61875h60.390626v3.320312h-60.390626zm0 0" style="fill:none;stroke-width:5.34994;stroke-linecap:round;stroke-linejoin:round;stroke:#000;stroke-miterlimit:10" transform="matrix(.1 0 0 -.1 0 756.89)"/><path d="m285.269531 139.328125h6.039063v-.332031h-6.039063zm0 0"/><path d="m3388.789062 6454.564062h60.390626v3.359375h-60.390626zm0 0" style="fill:none;stroke-width:5.34994;stroke-linecap:round;stroke-linejoin:round;stroke:#000;stroke-miterlimit:10" transform="matrix(.1 0 0 -.1 0 756.89)"/><path d="m338.878906 111.433594h6.039063v-.332032h-6.039063zm0 0"/><path d="m3404.960938 6175.61875h60.390624v3.320312h-60.390624zm0 0" style="fill:none;stroke-width:5.34994;stroke-linecap:round;stroke-linejoin:round;stroke:#000;stroke-miterlimit:10" transform="matrix(.1 0 0 -.1 0 756.89)"/><path d="m340.496094 139.328125h6.039062v-.332031h-6.039062zm0 0"/><path d="m3950.78125 6454.564062h60.390625v3.359375h-60.390625zm0 0" style="fill:none;stroke-width:5.34994;stroke-linecap:round;stroke-linejoin:round;stroke:#000;stroke-miterlimit:10" transform="matrix(.1 0 0 -.1 0 756.89)"/><path d="m395.078125 111.433594h6.039063v-.332032h-6.039063zm0 0"/><path d="m3879.335938 6175.61875h60.390624v3.320312h-60.390624zm0 0" style="fill:none;stroke-width:5.34994;stroke-linecap:round;stroke-linejoin:round;stroke:#000;stroke-miterlimit:10" transform="matrix(.1 0 0 -.1 0 756.89)"/><path d="m387.933594 139.328125h6.039062v-.332031h-6.039062zm0 0"/><path d="m4426.992188 6454.564062h60.390624v3.359375h-60.390624zm0 0" style="fill:none;stroke-width:5.34994;stroke-linecap:round;stroke-linejoin:round;stroke:#000;stroke-miterlimit:10" transform="matrix(.1 0 0 -.1 0 756.89)"/><path d="m442.699219 111.433594h6.039062v-.332032h-6.039062zm0 0"/><use x="534.795" xlink:href="#as" y="59.733"/><use x="301.298" xlink:href="#T" y="118.1779"/><use x="314.903873" xlink:href="#U" y="118.1779"/><use x="7.971" xlink:href="#at" y="69.6955"/><path d="m897.5 6850.853125h4.6875v317.96875h-4.6875zm0 0" style="fill:none;stroke-width:3.98506;stroke-linecap:round;stroke-linejoin:round;stroke:#000;stroke-miterlimit:10" transform="matrix(.1 0 0 -.1 0 756.89)"/><path d="m89.75 71.804688h.46875v-31.796876h-.46875zm0 0"/><use x="70.5734" xlink:href="#V" y="146.073"/><use x="91.15311" xlink:href="#G" y="146.073"/><use x="42.2414" xlink:href="#ax" y="118.1777"/><use x="54.487505" xlink:href="#ay" y="118.1777"/><use x="70.6582" xlink:href="#W" y="118.1777"/><use x="82.904307" xlink:href="#L" y="118.1777"/><use x="43.8727" xlink:href="#au" y="59.7328"/><path d="m759.882812 7278.470312h6.09375v189.375h-6.09375zm0 0" style="fill:none;stroke-width:3.04857;stroke-linecap:round;stroke-linejoin:round;stroke:#000;stroke-miterlimit:10" transform="matrix(.1 0 0 -.1 0 756.89)"/><path d="m75.988281 29.042969h.609375v-18.9375h-.609375zm0 0"/><use x="67.0844" xlink:href="#az" y="31.086"/><use x="76.74924" xlink:href="#aq" y="74.6762"/><use x="254.40624" xlink:href="#ar" y="69.69495"/><path d="m2074.257812 6950.501562h4.6875v317.96875h-4.6875zm0 0" style="fill:none;stroke-width:3.98506;stroke-linecap:round;stroke-linejoin:round;stroke:#000;stroke-miterlimit:10" transform="matrix(.1 0 0 -.1 0 756.89)"/><path d="m207.425781 61.839844h.46875v-31.796875h-.46875zm0 0"/><use x="198.539" xlink:href="#G" y="146.073"/><use x="241.182" xlink:href="#X" y="118.1777"/><use x="254.787873" xlink:href="#Y" y="118.1777"/><use x="268.393745" xlink:href="#P" y="118.1777"/><use x="273.836342" xlink:href="#N" y="118.1777"/><use x="177.279484" xlink:href="#Z" y="118.1777"/><use x="197.8592" xlink:href="#R" y="118.1777"/><use x="211.635776" xlink:href="#aa" y="118.1777"/><use x="194.4261" xlink:href="#aq" y="64.714"/><use x="247.3898" xlink:href="#aa" y="146.073"/><use x="260.826141" xlink:href="#Y" y="146.073"/><path d="m1482.96875 6893.548437h4.6875v325.078125h-4.6875zm0 0" style="fill:none;stroke-width:3.98506;stroke-linecap:round;stroke-linejoin:round;stroke:#000;stroke-miterlimit:10" transform="matrix(.1 0 0 -.1 0 756.89)"/><path d="m148.296875 67.535156h.46875v-32.507812h-.46875zm0 0"/><path d="m2667.460938 6893.548437h4.726562v325.078125h-4.726562zm0 0" style="fill:none;stroke-width:3.98506;stroke-linecap:round;stroke-linejoin:round;stroke:#000;stroke-miterlimit:10" transform="matrix(.1 0 0 -.1 0 756.89)"/><path d="m266.746094 67.535156h.472656v-32.507812h-.472656zm0 0"/><use x="118.479" xlink:href="#Z" y="146.073"/><use x="139.059107" xlink:href="#R" y="146.073"/><use x="152.835292" xlink:href="#aa" y="146.073"/><use x="123.58213" xlink:href="#S" y="118.1777"/><use x="135.487611" xlink:href="#J" y="118.1777"/><use x="149.093483" xlink:href="#I" y="118.1777"/><use x="135.95553" xlink:href="#ar" y="69.6953"/><g clip-path="url(#f)"><path d="m3.359375 5506.595312h5946.054687" style="fill:none;stroke-width:6.68493;stroke-linecap:round;stroke-linejoin:round;stroke:#000;stroke-miterlimit:10" transform="matrix(.1 0 0 -.1 0 756.89)"/></g><g clip-path="url(#g)"><path d="m3.359375 5606.204687h5946.054687" style="fill:none;stroke-width:6.68493;stroke-linecap:round;stroke-linejoin:round;stroke:#000;stroke-miterlimit:10" transform="matrix(.1 0 0 -.1 0 756.89)"/></g><g clip-path="url(#h)"><path d="m3.359375 5705.853125h5946.054687" style="fill:none;stroke-width:6.68493;stroke-linecap:round;stroke-linejoin:round;stroke:#000;stroke-miterlimit:10" transform="matrix(.1 0 0 -.1 0 756.89)"/></g><g clip-path="url(#i)"><path d="m3.359375 5805.4625h5946.054687" style="fill:none;stroke-width:6.68493;stroke-linecap:round;stroke-linejoin:round;stroke:#000;stroke-miterlimit:10" transform="matrix(.1 0 0 -.1 0 756.89)"/></g><g clip-path="url(#j)"><path d="m3.359375 5905.071875h5946.054687" style="fill:none;stroke-width:6.68493;stroke-linecap:round;stroke-linejoin:round;stroke:#000;stroke-miterlimit:10" transform="matrix(.1 0 0 -.1 0 756.89)"/></g><use x="581.427" xlink:href="#av" y="181.325"/><use x="581.427" xlink:href="#av" y="191.2875"/><g clip-path="url(#k)"><path d="m5932.695312 5506.595312v398.476563" fill="none" stroke="#000" stroke-linejoin="round" stroke-miterlimit="10" stroke-width="40.1395" transform="matrix(.1 0 0 -.1 0 756.89)"/></g><path d="m5886.210938 5506.595312v398.476563" fill="none" stroke="#000" stroke-linejoin="round" stroke-miterlimit="10" stroke-width="12.7123" transform="matrix(.1 0 0 -.1 0 756.89)"/><path d="m4002.03125 5634.954687h4.726562v317.96875h-4.726562zm0 0" fill="none" stroke="#000" stroke-linejoin="round" stroke-miterlimit="10" stroke-width="3.98506" transform="matrix(.1 0 0 -.1 0 756.89)"/><path d="m400.203125 193.394531h.472656v-31.796875h-.472656zm0 0"/><use x="515.837" xlink:href="#as" y="186.306"/><path d="m4645.195312 5585.110937h4.726563v317.96875h-4.726563zm0 0" fill="none" stroke="#000" stroke-linejoin="round" stroke-miterlimit="10" stroke-width="3.98506" transform="matrix(.1 0 0 -.1 0 756.89)"/><path d="m464.519531 198.378906h.472657v-31.796875h-.472657zm0 0"/><use x="434.545" xlink:href="#ab" y="270.377"/><use x="448.150897" xlink:href="#ac" y="270.377"/><use x="461.587653" xlink:href="#N" y="270.377"/><use x="468.901319" xlink:href="#N" y="270.377"/><use x="475.363814" xlink:href="#ad" y="270.377"/><use x="434.545" xlink:href="#ab" y="242.4817"/><use x="448.150897" xlink:href="#ac" y="242.4817"/><use x="461.587653" xlink:href="#N" y="242.4817"/><use x="468.901319" xlink:href="#N" y="242.4817"/><use x="475.363814" xlink:href="#O" y="242.4817"/><use x="451.5223" xlink:href="#aq" y="201.2501"/><path d="m1094.335938 5211.517187h60.429687v3.359375h-60.429687zm0 0" fill="none" stroke="#000" stroke-linejoin="round" stroke-miterlimit="10" stroke-width="5.34994" transform="matrix(.1 0 0 -.1 0 756.89)"/><path d="m109.433594 235.738281h6.039062v-.335937h-6.039062zm0 0"/><use x="387.238" xlink:href="#Y" y="270.377"/><use x="376.9478" xlink:href="#Z" y="242.4817"/><use x="397.527504" xlink:href="#Y" y="242.4817"/><use x="387.206" xlink:href="#aq" y="196.2688"/><path d="m3358.90625 5684.759375h4.6875v317.96875h-4.6875zm0 0" fill="none" stroke="#000" stroke-linejoin="round" stroke-miterlimit="10" stroke-width="3.98506" transform="matrix(.1 0 0 -.1 0 756.89)"/><path d="m335.890625 188.414062h.46875v-31.796874h-.46875zm0 0"/><use x="309.316" xlink:href="#Z" y="270.377"/><use x="329.895704" xlink:href="#ac" y="270.377"/><use x="343.332436" xlink:href="#N" y="270.377"/><use x="319.5207" xlink:href="#N" y="242.4817"/><use x="326.324235" xlink:href="#Q" y="242.4817"/><use x="322.89101" xlink:href="#aq" y="191.2876"/><path d="m1112.65625 4932.571875h60.390625v3.359375h-60.390625zm0 0" fill="none" stroke="#000" stroke-linejoin="round" stroke-miterlimit="10" stroke-width="5.34994" transform="matrix(.1 0 0 -.1 0 756.89)"/><path d="m111.265625 263.632812h6.039063v-.335937h-6.039063zm0 0"/><path d="m1754.21875 5211.517187h60.390625v3.359375h-60.390625zm0 0" fill="none" stroke="#000" stroke-linejoin="round" stroke-miterlimit="10" stroke-width="5.34994" transform="matrix(.1 0 0 -.1 0 756.89)"/><path d="m175.421875 235.738281h6.039063v-.335937h-6.039063zm0 0"/><path d="m1771.210938 4932.571875h60.390624v3.359375h-60.390624zm0 0" fill="none" stroke="#000" stroke-linejoin="round" stroke-miterlimit="10" stroke-width="5.34994" transform="matrix(.1 0 0 -.1 0 756.89)"/><path d="m177.121094 263.632812h6.039062v-.335937h-6.039062zm0 0"/><path d="m2985.46875 5211.517187h60.390625v3.359375h-60.390625zm0 0" fill="none" stroke="#000" stroke-linejoin="round" stroke-miterlimit="10" stroke-width="5.34994" transform="matrix(.1 0 0 -.1 0 756.89)"/><path d="m298.546875 235.738281h6.039063v-.335937h-6.039063zm0 0"/><path d="m2965.898438 4932.571875h60.390624v3.359375h-60.390624zm0 0" fill="none" stroke="#000" stroke-linejoin="round" stroke-miterlimit="10" stroke-width="5.34994" transform="matrix(.1 0 0 -.1 0 756.89)"/><path d="m296.589844 263.632812h6.039062v-.335937h-6.039062zm0 0"/><path d="m3554.179688 5211.517187h60.429687v3.359375h-60.429687zm0 0" fill="none" stroke="#000" stroke-linejoin="round" stroke-miterlimit="10" stroke-width="5.34994" transform="matrix(.1 0 0 -.1 0 756.89)"/><path d="m355.417969 235.738281h6.042969v-.335937h-6.042969zm0 0"/><path d="m4198.203125 5211.517187h60.390625v3.359375h-60.390625zm0 0" fill="none" stroke="#000" stroke-linejoin="round" stroke-miterlimit="10" stroke-width="5.34994" transform="matrix(.1 0 0 -.1 0 756.89)"/><path d="m419.820312 235.738281h6.039063v-.335937h-6.039063zm0 0"/><path d="m4146.757812 4932.571875h60.390626v3.359375h-60.390626zm0 0" fill="none" stroke="#000" stroke-linejoin="round" stroke-miterlimit="10" stroke-width="5.34994" transform="matrix(.1 0 0 -.1 0 756.89)"/><path d="m414.675781 263.632812h6.039063v-.335937h-6.039063zm0 0"/><use x="7.96992" xlink:href="#at" y="196.269"/><path d="m887.539062 5585.110937h4.6875v317.96875h-4.6875zm0 0" fill="none" stroke="#000" stroke-linejoin="round" stroke-miterlimit="10" stroke-width="3.98506" transform="matrix(.1 0 0 -.1 0 756.89)"/><path d="m88.753906 198.378906h.46875v-31.796875h-.46875zm0 0"/><use x="62.7734" xlink:href="#V" y="270.377"/><use x="83.3535" xlink:href="#G" y="270.377"/><use x="88.796085" xlink:href="#H" y="270.377"/><use x="62.944103" xlink:href="#ae" y="242.4817"/><use x="80.46209" xlink:href="#Y" y="242.4817"/><use x="94.06836" xlink:href="#M" y="242.4817"/><use x="75.753103" xlink:href="#aq" y="201.2501"/><use x="43.872603" xlink:href="#au" y="186.3064"/><use x="199.985603" xlink:href="#aq" y="191.28765"/><path d="m2645.507812 5375.735937h4.6875v308.515625h-4.6875zm0 0" fill="none" stroke="#000" stroke-linejoin="round" stroke-miterlimit="10" stroke-width="3.98506" transform="matrix(.1 0 0 -.1 0 756.89)"/><path d="m264.550781 219.316406h.46875v-30.851562h-.46875zm0 0"/><use x="251.806" xlink:href="#I" y="270.377"/><use x="264.052107" xlink:href="#S" y="270.377"/><use x="276.298213" xlink:href="#Q" y="270.377"/><use x="258.09819" xlink:href="#af" y="242.4817"/><use x="264.561098" xlink:href="#R" y="242.4817"/><use x="278.166971" xlink:href="#P" y="242.4817"/><use x="264.34975" xlink:href="#ar" y="186.3063"/><path d="m2129.84375 5684.759375h4.6875v317.96875h-4.6875zm0 0" fill="none" stroke="#000" stroke-linejoin="round" stroke-miterlimit="10" stroke-width="3.98506" transform="matrix(.1 0 0 -.1 0 756.89)"/><path d="m212.984375 188.414062h.46875v-31.796874h-.46875zm0 0"/><use x="193.298" xlink:href="#M" y="270.377"/><use x="201.292156" xlink:href="#ag" y="270.377"/><use x="214.898028" xlink:href="#P" y="270.377"/><use x="186.41011" xlink:href="#H" y="242.4817"/><use x="200.015983" xlink:href="#Y" y="242.4817"/><use x="213.621855" xlink:href="#ah" y="242.4817"/><path d="m1524.101562 5627.80625h4.6875v325.117187h-4.6875zm0 0" fill="none" stroke="#000" stroke-linejoin="round" stroke-miterlimit="10" stroke-width="3.98506" transform="matrix(.1 0 0 -.1 0 756.89)"/><path d="m152.40625 194.109375h.472656v-32.511719h-.472656zm0 0"/><use x="140.069" xlink:href="#ar" y="196.269"/><use x="126.1643" xlink:href="#ab" y="270.3772"/><use x="139.770173" xlink:href="#R" y="270.3772"/><use x="153.376045" xlink:href="#H" y="270.3772"/><use x="122.67719" xlink:href="#Z" y="242.4819"/><use x="143.256906" xlink:href="#Y" y="242.4819"/><use x="156.863169" xlink:href="#ab" y="242.4819"/><g clip-path="url(#l)"><path d="m3.359375 4261.7125h5946.054687" style="fill:none;stroke-width:6.68493;stroke-linecap:round;stroke-linejoin:round;stroke:#000;stroke-miterlimit:10" transform="matrix(.1 0 0 -.1 0 756.89)"/></g><g clip-path="url(#m)"><path d="m3.359375 4361.321875h5946.054687" style="fill:none;stroke-width:6.68493;stroke-linecap:round;stroke-linejoin:round;stroke:#000;stroke-miterlimit:10" transform="matrix(.1 0 0 -.1 0 756.89)"/></g><g clip-path="url(#n)"><path d="m3.359375 4460.970312h5946.054687" style="fill:none;stroke-width:6.68493;stroke-linecap:round;stroke-linejoin:round;stroke:#000;stroke-miterlimit:10" transform="matrix(.1 0 0 -.1 0 756.89)"/></g><g clip-path="url(#o)"><path d="m3.359375 4560.579687h5946.054687" style="fill:none;stroke-width:6.68493;stroke-linecap:round;stroke-linejoin:round;stroke:#000;stroke-miterlimit:10" transform="matrix(.1 0 0 -.1 0 756.89)"/></g><g clip-path="url(#p)"><path d="m3.359375 4660.228125h5946.054687" style="fill:none;stroke-width:6.68493;stroke-linecap:round;stroke-linejoin:round;stroke:#000;stroke-miterlimit:10" transform="matrix(.1 0 0 -.1 0 756.89)"/></g><path d="m2751.914062 4130.853125h4.726563v308.515625h-4.726563zm0 0" style="fill:none;stroke-width:3.98506;stroke-linecap:round;stroke-linejoin:round;stroke:#000;stroke-miterlimit:10" transform="matrix(.1 0 0 -.1 0 756.89)"/><path d="m275.191406 343.804688h.472656v-30.851563h-.472656zm0 0"/><path d="m4728.515625 4439.876562h4.726563v317.96875h-4.726563zm0 0" style="fill:none;stroke-width:3.98506;stroke-linecap:round;stroke-linejoin:round;stroke:#000;stroke-miterlimit:10" transform="matrix(.1 0 0 -.1 0 756.89)"/><path d="m472.851562 312.902344h.472657v-31.796875h-.472657zm0 0"/><use x="443.557" xlink:href="#H" y="365.588"/><use x="457.162897" xlink:href="#Y" y="365.588"/><use x="470.769185" xlink:href="#K" y="365.588"/><use x="483.015291" xlink:href="#O" y="365.588"/><use x="459.8531" xlink:href="#aq" y="315.7747"/><path d="m4111.171875 4382.923437h4.726563v325.117188h-4.726563zm0 0" style="fill:none;stroke-width:3.98506;stroke-linecap:round;stroke-linejoin:round;stroke:#000;stroke-miterlimit:10" transform="matrix(.1 0 0 -.1 0 756.89)"/><path d="m411.117188 318.597656h.472656v-32.511718h-.472656zm0 0"/><use x="395.759" xlink:href="#ai" y="365.588"/><use x="401.201597" xlink:href="#Q" y="365.588"/><use x="398.77853" xlink:href="#ar" y="320.756"/><path d="m3500.46875 4432.728125h4.6875v325.117187h-4.6875zm0 0" style="fill:none;stroke-width:3.98506;stroke-linecap:round;stroke-linejoin:round;stroke:#000;stroke-miterlimit:10" transform="matrix(.1 0 0 -.1 0 756.89)"/><path d="m350.042969 313.617188h.472656v-32.511719h-.472656zm0 0"/><use x="326.437" xlink:href="#aj" y="365.588"/><use x="342.424131" xlink:href="#N" y="365.588"/><use x="349.737821" xlink:href="#ak" y="365.588"/><use x="337.7058" xlink:href="#ar" y="315.7747"/><path d="m1889.414062 3980.4625h60.429688v3.359375h-60.429688zm0 0" style="fill:none;stroke-width:5.34994;stroke-linecap:round;stroke-linejoin:round;stroke:#000;stroke-miterlimit:10" transform="matrix(.1 0 0 -.1 0 756.89)"/><path d="m188.941406 358.84375h6.042969v-.332031h-6.042969zm0 0"/><path d="m3758.515625 3980.4625h60.390625v3.359375h-60.390625zm0 0" style="fill:none;stroke-width:5.34994;stroke-linecap:round;stroke-linejoin:round;stroke:#000;stroke-miterlimit:10" transform="matrix(.1 0 0 -.1 0 756.89)"/><path d="m375.851562 358.84375h6.039063v-.332031h-6.039063zm0 0"/><path d="m4261.640625 3980.4625h60.390625v3.359375h-60.390625zm0 0" style="fill:none;stroke-width:5.34994;stroke-linecap:round;stroke-linejoin:round;stroke:#000;stroke-miterlimit:10" transform="matrix(.1 0 0 -.1 0 756.89)"/><path d="m426.164062 358.84375h6.039063v-.332031h-6.039063zm0 0"/><use x="526.927" xlink:href="#as" y="310.794"/><path d="m897.5 4439.876562h4.6875v317.96875h-4.6875zm0 0" style="fill:none;stroke-width:3.98506;stroke-linecap:round;stroke-linejoin:round;stroke:#000;stroke-miterlimit:10" transform="matrix(.1 0 0 -.1 0 756.89)"/><path d="m89.75 312.902344h.46875v-31.796875h-.46875zm0 0"/><use x="252.499" xlink:href="#I" y="365.588"/><use x="264.745107" xlink:href="#S" y="365.588"/><use x="276.479885" xlink:href="#R" y="365.588"/><use x="290.086149" xlink:href="#H" y="365.588"/><use x="303.692021" xlink:href="#N" y="365.588"/><use x="76.749" xlink:href="#aq" y="315.7747"/><use x="43.8724" xlink:href="#au" y="310.79345"/><use x="7.9697" xlink:href="#at" y="320.75595"/><use x="49.8228" xlink:href="#V" y="365.58795"/><use x="70.4029" xlink:href="#R" y="365.58795"/><use x="84.008779" xlink:href="#H" y="365.58795"/><use x="97.275205" xlink:href="#ak" y="365.58795"/><use x="109.180295" xlink:href="#al" y="365.58795"/><use x="274.9938" xlink:href="#ar" y="310.79345"/><path d="m2081.171875 4164.095312h4.726563v317.96875h-4.726563zm0 0" style="fill:none;stroke-width:3.98506;stroke-linecap:round;stroke-linejoin:round;stroke:#000;stroke-miterlimit:10" transform="matrix(.1 0 0 -.1 0 756.89)"/><path d="m208.117188 340.480469h.472656v-31.796875h-.472656zm0 0"/><use x="212.033" xlink:href="#G" y="365.588"/><use x="207.91933" xlink:href="#aq" y="305.8122"/><path d="m1584.257812 4432.728125h4.6875v325.117187h-4.6875zm0 0" style="fill:none;stroke-width:3.98506;stroke-linecap:round;stroke-linejoin:round;stroke:#000;stroke-miterlimit:10" transform="matrix(.1 0 0 -.1 0 756.89)"/><path d="m158.425781 313.617188h.46875v-32.511719h-.46875zm0 0"/><use x="133.285" xlink:href="#H" y="365.588"/><use x="146.551419" xlink:href="#ak" y="365.588"/><use x="158.286198" xlink:href="#R" y="365.588"/><use x="146.0842" xlink:href="#ar" y="315.7747"/><g clip-path="url(#q)"><path d="m3.359375 3066.204687h5946.054687" style="fill:none;stroke-width:6.68493;stroke-linecap:round;stroke-linejoin:round;stroke:#000;stroke-miterlimit:10" transform="matrix(.1 0 0 -.1 0 756.89)"/></g><g clip-path="url(#r)"><path d="m3.359375 3165.814062h5946.054687" style="fill:none;stroke-width:6.68493;stroke-linecap:round;stroke-linejoin:round;stroke:#000;stroke-miterlimit:10" transform="matrix(.1 0 0 -.1 0 756.89)"/></g><g clip-path="url(#s)"><path d="m3.359375 3265.4625h5946.054687" style="fill:none;stroke-width:6.68493;stroke-linecap:round;stroke-linejoin:round;stroke:#000;stroke-miterlimit:10" transform="matrix(.1 0 0 -.1 0 756.89)"/></g><g clip-path="url(#t)"><path d="m3.359375 3365.071875h5946.054687" style="fill:none;stroke-width:6.68493;stroke-linecap:round;stroke-linejoin:round;stroke:#000;stroke-miterlimit:10" transform="matrix(.1 0 0 -.1 0 756.89)"/></g><g clip-path="url(#u)"><path d="m3.359375 3464.68125h5946.054687" style="fill:none;stroke-width:6.68493;stroke-linecap:round;stroke-linejoin:round;stroke:#000;stroke-miterlimit:10" transform="matrix(.1 0 0 -.1 0 756.89)"/></g><use x="396.563" xlink:href="#ar" y="435.326"/><path d="m4713.242188 3194.564062h4.6875v317.96875h-4.6875zm0 0" style="fill:none;stroke-width:3.98506;stroke-linecap:round;stroke-linejoin:round;stroke:#000;stroke-miterlimit:10" transform="matrix(.1 0 0 -.1 0 756.89)"/><path d="m471.324219 437.433594h.46875v-31.796875h-.46875zm0 0"/><use x="445.43" xlink:href="#H" y="488.318"/><use x="459.035897" xlink:href="#Y" y="488.318"/><use x="472.641794" xlink:href="#K" y="488.318"/><use x="458.3245" xlink:href="#aq" y="440.3082"/><path d="m2733.90625 2968.548437h4.726562v325.117188h-4.726562zm0 0" style="fill:none;stroke-width:3.98506;stroke-linecap:round;stroke-linejoin:round;stroke:#000;stroke-miterlimit:10" transform="matrix(.1 0 0 -.1 0 756.89)"/><path d="m273.390625 460.035156h.472656v-32.511718h-.472656zm0 0"/><path d="m4089.023438 3237.220312h4.726562v325.117188h-4.726562zm0 0" style="fill:none;stroke-width:3.98506;stroke-linecap:round;stroke-linejoin:round;stroke:#000;stroke-miterlimit:10" transform="matrix(.1 0 0 -.1 0 756.89)"/><path d="m408.902344 433.167969h.472656v-32.511719h-.472656zm0 0"/><use x="389.462" xlink:href="#aa" y="488.318"/><use x="403.067873" xlink:href="#Q" y="488.318"/><path d="m3351.523438 2935.345312h4.726562v308.515625h-4.726562zm0 0" style="fill:none;stroke-width:3.98506;stroke-linecap:round;stroke-linejoin:round;stroke:#000;stroke-miterlimit:10" transform="matrix(.1 0 0 -.1 0 756.89)"/><path d="m335.152344 463.355469h.472656v-30.851563h-.472656zm0 0"/><use x="328.531" xlink:href="#I" y="488.318"/><use x="340.777107" xlink:href="#Q" y="488.318"/><use x="334.95327" xlink:href="#ar" y="430.3453"/><path d="m2343.75 2753.157812h60.429688v3.359375h-60.429688zm0 0" style="fill:none;stroke-width:5.34994;stroke-linecap:round;stroke-linejoin:round;stroke:#000;stroke-miterlimit:10" transform="matrix(.1 0 0 -.1 0 756.89)"/><path d="m234.375 481.574219h6.042969v-.335938h-6.042969zm0 0"/><path d="m3110 2753.157812h60.429688v3.359375h-60.429688zm0 0" style="fill:none;stroke-width:5.34994;stroke-linecap:round;stroke-linejoin:round;stroke:#000;stroke-miterlimit:10" transform="matrix(.1 0 0 -.1 0 756.89)"/><path d="m311 481.574219h6.039062v-.335938h-6.039062zm0 0"/><path d="m3689.023438 2753.157812h60.390624v3.359375h-60.390624zm0 0" style="fill:none;stroke-width:5.34994;stroke-linecap:round;stroke-linejoin:round;stroke:#000;stroke-miterlimit:10" transform="matrix(.1 0 0 -.1 0 756.89)"/><path d="m368.902344 481.574219h6.039062v-.335938h-6.039062zm0 0"/><path d="m4280.3125 2753.157812h60.390625v3.359375h-60.390625zm0 0" style="fill:none;stroke-width:5.34994;stroke-linecap:round;stroke-linejoin:round;stroke:#000;stroke-miterlimit:10" transform="matrix(.1 0 0 -.1 0 756.89)"/><path d="m428.03125 481.574219h6.039062v-.335938h-6.039062zm0 0"/><use x="526.163" xlink:href="#as" y="430.345"/><use x="7.97" xlink:href="#at" y="440.30789"/><path d="m759.53125 2968.548437h4.726562v317.96875h-4.726562zm0 0" style="fill:none;stroke-width:3.98506;stroke-linecap:round;stroke-linejoin:round;stroke:#000;stroke-miterlimit:10" transform="matrix(.1 0 0 -.1 0 756.89)"/><path d="m75.953125 460.035156h.472656v-31.796875h-.472656zm0 0"/><use x="259.882" xlink:href="#aa" y="488.318"/><use x="273.318341" xlink:href="#Y" y="488.318"/><use x="287.265229" xlink:href="#S" y="488.318"/><use x="75.753" xlink:href="#aq" y="425.3641"/><use x="43.8725" xlink:href="#au" y="430.34535"/><use x="68.3006" xlink:href="#am" y="488.31805"/><use x="84.628357" xlink:href="#I" y="488.31805"/><use x="273.1916" xlink:href="#ar" y="425.36415"/><path d="m2055.546875 3018.392187h4.6875v317.96875h-4.6875zm0 0" style="fill:none;stroke-width:3.98506;stroke-linecap:round;stroke-linejoin:round;stroke:#000;stroke-miterlimit:10" transform="matrix(.1 0 0 -.1 0 756.89)"/><path d="m205.554688 455.054688h.46875v-31.796876h-.46875zm0 0"/><use x="209.466" xlink:href="#G" y="488.318"/><use x="205.35272" xlink:href="#aq" y="420.3828"/><path d="m1437.929688 2968.548437h4.6875v325.117188h-4.6875zm0 0" style="fill:none;stroke-width:3.98506;stroke-linecap:round;stroke-linejoin:round;stroke:#000;stroke-miterlimit:10" transform="matrix(.1 0 0 -.1 0 756.89)"/><path d="m143.789062 460.035156h.472657v-32.511718h-.472657zm0 0"/><use x="143.293" xlink:href="#ag" y="488.318"/><use x="143.591828" xlink:href="#ar" y="425.3641"/><g clip-path="url(#v)"><path d="m3.359375 1870.696875h5946.054687" style="fill:none;stroke-width:6.68493;stroke-linecap:round;stroke-linejoin:round;stroke:#000;stroke-miterlimit:10" transform="matrix(.1 0 0 -.1 0 756.89)"/></g><g clip-path="url(#w)"><path d="m3.359375 1970.30625h5946.054687" style="fill:none;stroke-width:6.68493;stroke-linecap:round;stroke-linejoin:round;stroke:#000;stroke-miterlimit:10" transform="matrix(.1 0 0 -.1 0 756.89)"/></g><g clip-path="url(#x)"><path d="m3.359375 2069.915625h5946.054687" style="fill:none;stroke-width:6.68493;stroke-linecap:round;stroke-linejoin:round;stroke:#000;stroke-miterlimit:10" transform="matrix(.1 0 0 -.1 0 756.89)"/></g><g clip-path="url(#y)"><path d="m3.359375 2169.564062h5946.054687" style="fill:none;stroke-width:6.68493;stroke-linecap:round;stroke-linejoin:round;stroke:#000;stroke-miterlimit:10" transform="matrix(.1 0 0 -.1 0 756.89)"/></g><g clip-path="url(#z)"><path d="m3.359375 2269.173437h5946.054687" style="fill:none;stroke-width:6.68493;stroke-linecap:round;stroke-linejoin:round;stroke:#000;stroke-miterlimit:10" transform="matrix(.1 0 0 -.1 0 756.89)"/></g><use x="307.662" xlink:href="#ar" y="564.841"/><path d="m4872.421875 1949.2125h4.726563v317.96875h-4.726563zm0 0" style="fill:none;stroke-width:3.98506;stroke-linecap:round;stroke-linejoin:round;stroke:#000;stroke-miterlimit:10" transform="matrix(.1 0 0 -.1 0 756.89)"/><path d="m487.242188 561.96875h.472656v-31.796875h-.472656zm0 0"/><use x="467.898" xlink:href="#N" y="604.691"/><use x="474.360884" xlink:href="#R" y="604.691"/><use x="487.456625" xlink:href="#O" y="604.691"/><use x="474.24409" xlink:href="#aq" y="564.8406"/><path d="m4298.554688 2048.860937h4.726562v317.96875h-4.726562zm0 0" style="fill:none;stroke-width:3.98506;stroke-linecap:round;stroke-linejoin:round;stroke:#000;stroke-miterlimit:10" transform="matrix(.1 0 0 -.1 0 756.89)"/><path d="m429.855469 552.003906h.472656v-31.796875h-.472656zm0 0"/><use x="407.704" xlink:href="#S" y="604.691"/><use x="419.438779" xlink:href="#R" y="604.691"/><use x="432.875535" xlink:href="#N" y="604.691"/><use x="416.85634" xlink:href="#aq" y="554.8781"/><path d="m3745.976562 1991.907812h4.726563v325.078125h-4.726563zm0 0" style="fill:none;stroke-width:3.98506;stroke-linecap:round;stroke-linejoin:round;stroke:#000;stroke-miterlimit:10" transform="matrix(.1 0 0 -.1 0 756.89)"/><path d="m374.597656 557.699219h.472656v-32.507813h-.472656zm0 0"/><use x="362.642" xlink:href="#an" y="604.691"/><use x="362.259187" xlink:href="#ar" y="559.8594"/><path d="m3200.039062 1942.064062h4.6875v325.117188h-4.6875zm0 0" style="fill:none;stroke-width:3.98506;stroke-linecap:round;stroke-linejoin:round;stroke:#000;stroke-miterlimit:10" transform="matrix(.1 0 0 -.1 0 756.89)"/><path d="m320.003906 562.683594h.46875v-32.511719h-.46875zm0 0"/><use x="290.186" xlink:href="#Z" y="604.691"/><use x="310.765704" xlink:href="#R" y="604.691"/><use x="324.541889" xlink:href="#aa" y="604.691"/><path d="m1703.164062 1589.407812h60.429688v3.359375h-60.429688zm0 0" style="fill:none;stroke-width:5.34994;stroke-linecap:round;stroke-linejoin:round;stroke:#000;stroke-miterlimit:10" transform="matrix(.1 0 0 -.1 0 756.89)"/><path d="m170.316406 597.949219h6.039063v-.335938h-6.039063zm0 0"/><path d="m2225.546875 1589.407812h60.390625v3.359375h-60.390625zm0 0" style="fill:none;stroke-width:5.34994;stroke-linecap:round;stroke-linejoin:round;stroke:#000;stroke-miterlimit:10" transform="matrix(.1 0 0 -.1 0 756.89)"/><path d="m222.554688 597.949219h6.039062v-.335938h-6.039062zm0 0"/><path d="m3473.75 1589.407812h60.390625v3.359375h-60.390625zm0 0" style="fill:none;stroke-width:5.34994;stroke-linecap:round;stroke-linejoin:round;stroke:#000;stroke-miterlimit:10" transform="matrix(.1 0 0 -.1 0 756.89)"/><path d="m347.375 597.949219h6.039062v-.335938h-6.039062zm0 0"/><path d="m3882.773438 1589.407812h60.390624v3.359375h-60.390624zm0 0" style="fill:none;stroke-width:5.34994;stroke-linecap:round;stroke-linejoin:round;stroke:#000;stroke-miterlimit:10" transform="matrix(.1 0 0 -.1 0 756.89)"/><path d="m388.277344 597.949219h6.039062v-.335938h-6.039062zm0 0"/><path d="m4507.695312 1589.407812h60.390626v3.359375h-60.390626zm0 0" style="fill:none;stroke-width:5.34994;stroke-linecap:round;stroke-linejoin:round;stroke:#000;stroke-miterlimit:10" transform="matrix(.1 0 0 -.1 0 756.89)"/><path d="m450.769531 597.949219h6.039063v-.335938h-6.039063zm0 0"/><use x="534.123" xlink:href="#as" y="549.897"/><use x="43.872949" xlink:href="#au" y="549.897"/><path d="m887.539062 2048.860937h4.6875v317.96875h-4.6875zm0 0" style="fill:none;stroke-width:3.98506;stroke-linecap:round;stroke-linejoin:round;stroke:#000;stroke-miterlimit:10" transform="matrix(.1 0 0 -.1 0 756.89)"/><path d="m88.753906 552.003906h.46875v-31.796875h-.46875zm0 0"/><use x="74.4238" xlink:href="#aj" y="604.691"/><use x="75.7531" xlink:href="#aq" y="554.8781"/><use x="7.9699" xlink:href="#at" y="559.85935"/><use x="136.3929" xlink:href="#ar" y="544.91525"/><path d="m2631.5625 2041.7125h4.726562v325.117187h-4.726562zm0 0" style="fill:none;stroke-width:3.98506;stroke-linecap:round;stroke-linejoin:round;stroke:#000;stroke-miterlimit:10" transform="matrix(.1 0 0 -.1 0 756.89)"/><path d="m263.15625 552.71875h.472656v-32.511719h-.472656zm0 0"/><use x="240.4" xlink:href="#aa" y="604.691"/><use x="254.006263" xlink:href="#ac" y="604.691"/><use x="267.442604" xlink:href="#N" y="604.691"/><use x="250.818" xlink:href="#ar" y="554.8781"/><path d="m1911.914062 1739.8375h4.6875v301.367187h-4.6875zm0 0" style="fill:none;stroke-width:3.98506;stroke-linecap:round;stroke-linejoin:round;stroke:#000;stroke-miterlimit:10" transform="matrix(.1 0 0 -.1 0 756.89)"/><path d="m191.191406 582.90625h.46875v-30.136719h-.46875zm0 0"/><use x="184.899" xlink:href="#I" y="604.691"/><use x="197.144716" xlink:href="#Q" y="604.691"/><use x="190.99002" xlink:href="#aq" y="549.8965"/><path d="m1365.9375 1773.040625h4.6875v325.117187h-4.6875zm0 0" style="fill:none;stroke-width:3.98506;stroke-linecap:round;stroke-linejoin:round;stroke:#000;stroke-miterlimit:10" transform="matrix(.1 0 0 -.1 0 756.89)"/><path d="m136.59375 579.585938h.46875v-32.511719h-.46875zm0 0"/><use x="124.019" xlink:href="#ao" y="604.691"/><use x="135.924481" xlink:href="#Q" y="604.691"/><use x="149.530353" xlink:href="#P" y="604.691"/><use x="154.973328" xlink:href="#N" y="604.691"/><g clip-path="url(#A)"><path d="m3.359375 675.15h5946.054687" style="fill:none;stroke-width:6.68493;stroke-linecap:round;stroke-linejoin:round;stroke:#000;stroke-miterlimit:10" transform="matrix(.1 0 0 -.1 0 756.89)"/></g><g clip-path="url(#B)"><path d="m3.359375 774.798437h5946.054687" style="fill:none;stroke-width:6.68493;stroke-linecap:round;stroke-linejoin:round;stroke:#000;stroke-miterlimit:10" transform="matrix(.1 0 0 -.1 0 756.89)"/></g><g clip-path="url(#C)"><path d="m3.359375 874.407812h5946.054687" style="fill:none;stroke-width:6.68493;stroke-linecap:round;stroke-linejoin:round;stroke:#000;stroke-miterlimit:10" transform="matrix(.1 0 0 -.1 0 756.89)"/></g><g clip-path="url(#D)"><path d="m3.359375 974.05625h5946.054687" style="fill:none;stroke-width:6.68493;stroke-linecap:round;stroke-linejoin:round;stroke:#000;stroke-miterlimit:10" transform="matrix(.1 0 0 -.1 0 756.89)"/></g><g clip-path="url(#E)"><path d="m3.359375 1073.665625h5946.054687" style="fill:none;stroke-width:6.68493;stroke-linecap:round;stroke-linejoin:round;stroke:#000;stroke-miterlimit:10" transform="matrix(.1 0 0 -.1 0 756.89)"/></g><g clip-path="url(#F)"><path d="m5932.695312 675.15v398.515625" fill="none" stroke="#000" stroke-linejoin="round" stroke-miterlimit="10" stroke-width="40.1395" transform="matrix(.1 0 0 -.1 0 756.89)"/></g><path d="m5886.210938 675.15v398.515625" fill="none" stroke="#000" stroke-linejoin="round" stroke-miterlimit="10" stroke-width="12.7123" transform="matrix(.1 0 0 -.1 0 756.89)"/><path d="m4637.695312 696.751562h4.6875v325.117188h-4.6875zm0 0" fill="none" stroke="#000" stroke-linejoin="round" stroke-miterlimit="10" stroke-width="3.98506" transform="matrix(.1 0 0 -.1 0 756.89)"/><path d="m463.769531 687.214844h.46875v-32.511719h-.46875zm0 0"/><use x="439.31" xlink:href="#P" y="724.3427"/><use x="444.581893" xlink:href="#ak" y="724.3427"/><use x="456.317061" xlink:href="#R" y="724.3427"/><use x="469.753817" xlink:href="#N" y="724.3427"/><use x="451.4284" xlink:href="#ar" y="689.3739"/><path d="m3988.90625 753.704687h4.726562v317.96875h-4.726562zm0 0" fill="none" stroke="#000" stroke-linejoin="round" stroke-miterlimit="10" stroke-width="3.98506" transform="matrix(.1 0 0 -.1 0 756.89)"/><path d="m398.890625 681.519531h.472656v-31.796875h-.472656zm0 0"/><use x="379.121" xlink:href="#X" y="724.3427"/><use x="392.726873" xlink:href="#R" y="724.3427"/><use x="385.89248" xlink:href="#aq" y="684.3923"/><path d="m3385.429688 796.360937h4.726562v325.117188h-4.726562zm0 0" fill="none" stroke="#000" stroke-linejoin="round" stroke-miterlimit="10" stroke-width="3.98506" transform="matrix(.1 0 0 -.1 0 756.89)"/><path d="m338.542969 677.253906h.46875v-32.511718h-.46875zm0 0"/><use x="312.979" xlink:href="#H" y="724.3427"/><use x="326.584873" xlink:href="#R" y="724.3427"/><use x="340.191136" xlink:href="#K" y="724.3427"/><use x="326.2036" xlink:href="#ar" y="679.4111"/><path d="m1748.085938 392.923437h60.390624v3.320313h-60.390624zm0 0" fill="none" stroke="#000" stroke-linejoin="round" stroke-miterlimit="10" stroke-width="5.34994" transform="matrix(.1 0 0 -.1 0 756.89)"/><path d="m174.808594 717.597656h6.039062v-.332031h-6.039062zm0 0"/><path d="m2346.992188 392.923437h60.390624v3.320313h-60.390624zm0 0" fill="none" stroke="#000" stroke-linejoin="round" stroke-miterlimit="10" stroke-width="5.34994" transform="matrix(.1 0 0 -.1 0 756.89)"/><path d="m234.699219 717.597656h6.039062v-.332031h-6.039062zm0 0"/><path d="m2995.039062 392.923437h60.390626v3.320313h-60.390626zm0 0" fill="none" stroke="#000" stroke-linejoin="round" stroke-miterlimit="10" stroke-width="5.34994" transform="matrix(.1 0 0 -.1 0 756.89)"/><path d="m299.503906 717.597656h6.039063v-.332031h-6.039063zm0 0"/><path d="m4198.007812 392.923437h60.429688v3.320313h-60.429688zm0 0" fill="none" stroke="#000" stroke-linejoin="round" stroke-miterlimit="10" stroke-width="5.34994" transform="matrix(.1 0 0 -.1 0 756.89)"/><path d="m419.800781 717.597656h6.042969v-.332031h-6.042969zm0 0"/><path d="m4891.796875 392.923437h60.390625v3.320313h-60.390625zm0 0" fill="none" stroke="#000" stroke-linejoin="round" stroke-miterlimit="10" stroke-width="5.34994" transform="matrix(.1 0 0 -.1 0 756.89)"/><path d="m489.179688 717.597656h6.039062v-.332031h-6.039062zm0 0"/><use x="511.118" xlink:href="#aw" y="684.3923"/><use x="507.84339" xlink:href="#N" y="724.3427"/><use x="514.305885" xlink:href="#R" y="724.3427"/><use x="527.402015" xlink:href="#ad" y="724.3427"/><use x="43.87239" xlink:href="#au" y="669.4486"/><path d="m887.539062 853.314062h4.6875v317.96875h-4.6875zm0 0" fill="none" stroke="#000" stroke-linejoin="round" stroke-miterlimit="10" stroke-width="3.98506" transform="matrix(.1 0 0 -.1 0 756.89)"/><path d="m88.753906 671.558594h.46875v-31.796875h-.46875zm0 0"/><use x="74.4238" xlink:href="#aj" y="724.3427"/><use x="75.7531" xlink:href="#aq" y="674.4298"/><path d="m2788.554688 846.204687h4.6875v325.078125h-4.6875zm0 0" fill="none" stroke="#000" stroke-linejoin="round" stroke-miterlimit="10" stroke-width="3.98506" transform="matrix(.1 0 0 -.1 0 756.89)"/><path d="m278.851562 672.269531h.472657v-32.507812h-.472657zm0 0"/><use x="7.96992" xlink:href="#at" y="679.4111"/><use x="201.02792" xlink:href="#aq" y="669.4486"/><use x="253.96932" xlink:href="#I" y="724.3427"/><use x="266.215427" xlink:href="#ap" y="724.3427"/><use x="279.82169" xlink:href="#K" y="724.3427"/><use x="266.51422" xlink:href="#ar" y="674.4298"/><path d="m2012.265625 544.329687h4.726563v301.367188h-4.726563zm0 0" fill="none" stroke="#000" stroke-linejoin="round" stroke-miterlimit="10" stroke-width="3.98506" transform="matrix(.1 0 0 -.1 0 756.89)"/><path d="m201.226562 702.457031h.472657v-30.136719h-.472657zm0 0"/><use x="194.257" xlink:href="#H" y="724.3427"/><use x="207.862873" xlink:href="#ap" y="724.3427"/><path d="m1536.289062 846.204687h4.726563v325.078125h-4.726563zm0 0" fill="none" stroke="#000" stroke-linejoin="round" stroke-miterlimit="10" stroke-width="3.98506" transform="matrix(.1 0 0 -.1 0 756.89)"/><path d="m153.628906 672.269531h.472656v-32.507812h-.472656zm0 0"/><use x="134.188" xlink:href="#T" y="724.3427"/><use x="147.793873" xlink:href="#U" y="724.3427"/><use x="141.28917" xlink:href="#ar" y="674.4298"/></svg>