<svg height="497.17em" viewBox="0 0 595.28 497.17" width="595.28em" xmlns="http://www.w3.org/2000/svg" xmlns:xlink="http://www.w3.org/1999/xlink"><clipPath id="a"><path d="m0 67h595.28125v1h-595.28125zm0 0"/></clipPath><clipPath id="b"><path d="m0 57h595.28125v1h-595.28125zm0 0"/></clipPath><clipPath id="c"><path d="m0 47h595.28125v1h-595.28125zm0 0"/></clipPath><clipPath id="d"><path d="m0 37h595.28125v1h-595.28125zm0 0"/></clipPath><clipPath id="e"><path d="m0 27h595.28125v1h-595.28125zm0 0"/></clipPath><clipPath id="f"><path d="m594 27h1.28125v42h-1.28125zm0 0"/></clipPath><clipPath id="g"><path d="m0 186h595.28125v2h-595.28125zm0 0"/></clipPath><clipPath id="h"><path d="m0 176h595.28125v2h-595.28125zm0 0"/></clipPath><clipPath id="i"><path d="m0 166h595.28125v2h-595.28125zm0 0"/></clipPath><clipPath id="j"><path d="m0 156h595.28125v2h-595.28125zm0 0"/></clipPath><clipPath id="k"><path d="m0 146h595.28125v2h-595.28125zm0 0"/></clipPath><clipPath id="l"><path d="m594 146h1.28125v42h-1.28125zm0 0"/></clipPath><clipPath id="m"><path d="m0 306h595.28125v1h-595.28125zm0 0"/></clipPath><clipPath id="n"><path d="m0 296h595.28125v1h-595.28125zm0 0"/></clipPath><clipPath id="o"><path d="m0 286h595.28125v2h-595.28125zm0 0"/></clipPath><clipPath id="p"><path d="m0 276h595.28125v2h-595.28125zm0 0"/></clipPath><clipPath id="q"><path d="m0 266h595.28125v2h-595.28125zm0 0"/></clipPath><clipPath id="r"><path d="m594 266h1.28125v42h-1.28125zm0 0"/></clipPath><clipPath id="s"><path d="m0 425h595.28125v2h-595.28125zm0 0"/></clipPath><clipPath id="t"><path d="m0 415h595.28125v2h-595.28125zm0 0"/></clipPath><clipPath id="u"><path d="m0 405h595.28125v2h-595.28125zm0 0"/></clipPath><clipPath id="v"><path d="m0 395h595.28125v2h-595.28125zm0 0"/></clipPath><clipPath id="w"><path d="m0 385h595.28125v2h-595.28125zm0 0"/></clipPath><clipPath id="x"><path d="m591 384h4.28125v45h-4.28125zm0 0"/></clipPath><symbol id="y" overflow="visible"><path d="m8.84375-5.375c-1.671875 0-3.265625.546875-4.703125 1.4375-1.875 1.109375-4.140625 3.0625-4.140625 5.890625 0 2.34375 2.078125 3.421875 4.1875 3.421875 1.671875 0 3.265625-.546875 4.703125-1.4375 1.875-1.109375 4.09375-3.0625 4.09375-5.890625 0-2.34375-2.03125-3.421875-4.140625-3.421875zm0 0"/></symbol><symbol id="z" overflow="visible"><path d="m0 0h-.5625v9.96875h.5625zm0 0v9.96875c2.875 2.984375 6.6875 7.171875 6.6875 11.3125 0 2.671875-.59375 5.25-1.625 7.71875-.125.609375.359375 1 .828125 1 .28125 0 .53125-.15625.6875-.4375 1.03125-2.625 1.671875-5.453125 1.671875-8.28125 0-7.890625-8.25-13.390625-8.25-21.28125zm0 0"/></symbol><symbol id="A" overflow="visible"><path d="m14.90625-10.359375c-.640625-2.796875-1.40625-5.53125-2.203125-8.28125 3.828125-4.34375 7.296875-8.8125 7.296875-14.546875 0-4.5-2.46875-10.953125-5.25-14.3125-.203125-.15625-.453125-.15625-.640625 0-3.796875 2.75-5.984375 7.140625-5.984375 11.765625 0 2.0625.046875 4.09375.28125 6.125.28125 2.59375.953125 5.109375 1.671875 7.609375-4.703125 5.34375-10 10.4375-10 17.53125 0 8.015625 5.78125 14.828125 13.265625 14.828125 1.234375 0 2.390625-.125 3.546875-.3125.125 1.265625.203125 2.546875.203125 3.8125 0 .71875-.046875 1.40625-.078125 2.125-.234375 3.9375-2.671875 7.5625-6.375 7.640625-.046875 0-.078125.046875-.125.046875-2.03125 0-3.78125-1.15625-4.8125-2.796875.4375.203125.90625.359375 1.390625.359375 2.078125 0 3.78125-1.703125 3.78125-3.78125 0-2.234375-1.625-4.140625-3.78125-4.140625-2.359375 0-4.46875 1.828125-4.46875 4.140625 0 4.296875 3.46875 7.765625 7.78125 7.765625 4.6875 0 7.921875-4.21875 8.203125-9 .03125-.765625.03125-1.46875.03125-2.234375 0-1.4375-.078125-2.875-.1875-4.296875 1.03125-.328125 2.03125-.796875 2.90625-1.484375 2.953125-2.1875 4.265625-5.25 4.265625-8.28125 0-5.265625-3.984375-10.328125-10.125-10.328125-.203125 0-.40625.046875-.59375.046875zm3.375 18.53125c-.546875-4.9375-1.46875-9.640625-2.46875-14.3125 4.390625.359375 7.140625 4.03125 7.140625 7.6875 0 2.796875-1.921875 5.671875-4.671875 6.625zm-15.453125-9.40625c0-6.375 4.296875-11.203125 8.609375-16.015625.640625 2.34375 1.265625 4.703125 1.828125 7.09375-4.015625.90625-6.296875 4.296875-6.296875 7.8125 0 2.78125 1.4375 5.609375 4.625 7.328125.125.03125.234375.078125.359375.078125.4375 0 .796875-.40625.796875-.84375 0-.1875-.125-.390625-.28125-.546875-2.234375-1.28125-3.265625-3.1875-3.265625-4.953125 0-2.34375 1.828125-4.453125 4.984375-4.8125 1.03125 4.78125 1.953125 9.515625 2.546875 14.625-1.078125.15625-2.15625.234375-3.265625.234375-5.421875 0-10.640625-4.578125-10.640625-10zm13.546875-40.609375c.671875 2.125.84375 3.15625.84375 5.46875 0 5.0625-2.671875 9.078125-5.9375 12.953125-.71875-2.515625-1.3125-4.953125-1.3125-7.96875 0-4.421875 2.46875-8.453125 6.40625-10.453125zm0 0"/></symbol><symbol id="B" overflow="visible"><path d="m0 0v-9.96875h-.5625v9.96875zm0 0c0-8.09375 10.640625-12.1875 10.640625-20.28125 0-2.46875-.59375-4.90625-1.59375-7.125-.15625-.28125-.4375-.40625-.71875-.40625-.484375 0-.953125.40625-.84375 1 1 2.0625 1.59375 4.265625 1.59375 6.53125 0 4.46875-5.171875 8.015625-9.078125 10.3125zm0 0"/></symbol><symbol id="C" overflow="visible"><path d="m13.15625-1.203125c-.21875.046875-.3125.046875-.4375.046875-.71875 0-1.109375-.375-1.109375-1.015625v-7.5625c0-2.296875-1.671875-3.515625-4.84375-3.515625-1.890625 0-3.390625.53125-4.28125 1.5-.59375.65625-.84375 1.390625-.890625 2.671875h2.078125c.171875-1.578125 1.09375-2.28125 3.015625-2.28125 1.875 0 2.875.6875 2.875 1.921875v.53125c-.015625.890625-.46875 1.203125-2.140625 1.4375-2.890625.359375-3.34375.453125-4.125.78125-1.5.640625-2.265625 1.765625-2.265625 3.4375 0 2.34375 1.625 3.8125 4.234375 3.8125 1.625 0 2.921875-.5625 4.375-1.890625.140625 1.328125.78125 1.890625 2.109375 1.890625.453125 0 .71875-.046875 1.40625-.21875zm-3.59375-2.859375c0 .6875-.1875 1.109375-.8125 1.671875-.828125.765625-1.84375 1.15625-3.046875 1.15625-1.59375 0-2.53125-.75-2.53125-2.0625 0-1.34375.890625-2.046875 3.09375-2.359375 2.1875-.296875 2.609375-.390625 3.296875-.71875zm0 0"/></symbol><symbol id="D" overflow="visible"><path d="m7.015625 0 4.9375-12.890625h-2.3125l-3.640625 10.453125-3.4375-10.453125h-2.3125l4.515625 12.890625zm0 0"/></symbol><symbol id="E" overflow="visible"><path d="m3.6875-12.890625h-2.046875v12.890625h2.046875zm0-5.03125h-2.0625v2.578125h2.0625zm0 0"/></symbol><symbol id="F" overflow="visible"><path d="m1.71875-12.890625v14.765625c0 1.265625-.390625 1.6875-1.671875 1.6875-.140625 0-.21875 0-.484375-.015625v1.734375c.234375.0625.359375.078125.6875.078125 2.3125 0 3.515625-.90625 3.515625-2.671875v-15.578125zm2.046875-5.03125h-2.046875v2.578125h2.046875zm0 0"/></symbol><symbol id="G" overflow="visible"><path d="m3.734375-17.921875h-2.0625v17.921875h2.0625zm0 0"/></symbol><symbol id="H" overflow="visible"><path d="m13.15625-1.203125c-.21875.046875-.3125.046875-.4375.046875-.71875 0-1.109375-.375-1.109375-1.015625v-7.5625c0-2.296875-1.671875-3.515625-4.84375-3.515625-1.890625 0-3.390625.53125-4.28125 1.5-.59375.65625-.84375 1.390625-.890625 2.671875h2.078125c.171875-1.578125 1.09375-2.28125 3.015625-2.28125 1.875 0 2.875.6875 2.875 1.921875v.53125c-.015625.890625-.46875 1.203125-2.140625 1.4375-2.890625.359375-3.34375.453125-4.125.78125-1.5.640625-2.265625 1.765625-2.265625 3.4375 0 2.34375 1.625 3.8125 4.234375 3.8125 1.625 0 2.921875-.5625 4.375-1.890625.140625 1.328125.78125 1.890625 2.109375 1.890625.453125 0 .71875-.046875 1.40625-.21875zm-3.59375-2.859375c0 .6875-.1875 1.109375-.8125 1.671875-.828125.765625-1.84375 1.15625-3.046875 1.15625-1.59375 0-2.53125-.75-2.53125-2.0625 0-1.34375.890625-2.046875 3.09375-2.359375 2.1875-.296875 2.609375-.390625 3.296875-.71875zm-2.09375-14.140625-2.375 3.640625h1.46875l3.671875-3.640625zm0 0"/></symbol><symbol id="I" overflow="visible"><path d="m9.9375-12.890625v1.875c-1.03125-1.546875-2.171875-2.234375-3.78125-2.234375-3.125 0-5.296875 2.890625-5.296875 7.03125 0 2.15625.515625 3.734375 1.625 5.03125.953125 1.140625 2.1875 1.75 3.515625 1.75 1.546875 0 2.65625-.6875 3.734375-2.3125v.671875c0 3.4375-.953125 4.71875-3.515625 4.71875-1.75 0-2.65625-.6875-2.84375-2.171875h-2.09375c.1875 2.390625 2.09375 3.890625 4.890625 3.890625 1.890625 0 3.46875-.609375 4.3125-1.640625.96875-1.203125 1.34375-2.8125 1.34375-5.828125v-10.78125zm-3.59375 1.53125c2.171875 0 3.390625 1.8125 3.390625 5.09375 0 3.125-1.25 4.9375-3.390625 4.9375-2.109375 0-3.34375-1.84375-3.34375-5.015625 0-3.15625 1.234375-5.015625 3.34375-5.015625zm0 0"/></symbol><symbol id="J" overflow="visible"><path d="m2.140625-2.5625v2.5625h1.46875v.4375c0 1.703125-.3125 2.1875-1.46875 2.25v.921875c1.625.0625 2.578125-1.125 2.578125-3.21875v-2.953125zm0 0"/></symbol><symbol id="K" overflow="visible"><path d="m1.703125-12.890625v12.890625h2.0625v-6.6875c.015625-3.09375 1.296875-4.484375 4.125-4.40625v-2.09375c-.34375-.046875-.53125-.0625-.78125-.0625-1.328125 0-2.34375.78125-3.515625 2.703125v-2.34375zm0 0"/></symbol><symbol id="L" overflow="visible"><path d="m11.859375 0v-12.890625h-2.046875v7.3125c0 2.625-1.375 4.34375-3.515625 4.34375-1.625 0-2.65625-.984375-2.65625-2.53125v-9.125h-2.046875v9.9375c0 2.140625 1.609375 3.515625 4.109375 3.515625 1.890625 0 3.09375-.65625 4.3125-2.359375v1.796875zm0 0"/></symbol><symbol id="M" overflow="visible"><path d="m1.71875-12.890625v12.890625h2.0625v-7.109375c0-2.625 1.390625-4.34375 3.5-4.34375 1.625 0 2.65625.96875 2.65625 2.53125v8.921875h2.046875v-9.734375c0-2.140625-1.609375-3.515625-4.09375-3.515625-1.921875 0-3.140625.734375-4.28125 2.53125v-2.171875zm0 0"/></symbol><symbol id="N" overflow="visible"><path d="m3.46875-17.921875h-2.046875v17.921875h2.046875v-5.015625l1.984375-1.96875 4.359375 6.984375h2.53125l-5.265625-8.4375 4.484375-4.453125h-2.640625l-5.453125 5.46875zm0 0"/></symbol><symbol id="O" overflow="visible"><path d="m13.578125-17.921875v12.578125c0 2.421875-1.75 3.890625-4.625 3.890625-1.328125 0-2.40625-.3125-3.265625-.9375-.890625-.6875-1.3125-1.59375-1.3125-2.953125v-12.578125h-2.28125v12.578125c0 3.640625 2.609375 5.90625 6.859375 5.90625 4.203125 0 6.90625-2.3125 6.90625-5.90625v-12.578125zm0 0"/></symbol><symbol id="P" overflow="visible"><path d="m12.171875-17.921875h-2.046875v6.65625c-.859375-1.296875-2.234375-1.984375-3.953125-1.984375-3.34375 0-5.53125 2.671875-5.53125 6.78125 0 4.359375 2.109375 7.03125 5.609375 7.03125 1.765625 0 3-.65625 4.109375-2.265625v1.703125h1.8125zm-5.65625 6.578125c2.21875 0 3.609375 1.953125 3.609375 5.046875 0 2.984375-1.421875 4.9375-3.578125 4.9375-2.265625 0-3.765625-1.984375-3.765625-4.984375s1.5-5 3.734375-5zm0 0"/></symbol><symbol id="Q" overflow="visible"><path d="m12.609375-5.75c0-1.96875-.140625-3.15625-.515625-4.109375-.828125-2.125-2.796875-3.390625-5.203125-3.390625-3.59375 0-5.90625 2.71875-5.90625 6.984375 0 4.25 2.21875 6.828125 5.859375 6.828125 2.9375 0 4.984375-1.671875 5.5-4.46875h-2.0625c-.5625 1.6875-1.71875 2.578125-3.375 2.578125-1.296875 0-2.40625-.59375-3.09375-1.671875-.5-.734375-.671875-1.46875-.6875-2.75zm-9.4375-1.671875c.171875-2.390625 1.625-3.9375 3.6875-3.9375 2.09375 0 3.546875 1.625 3.546875 3.9375zm4.40625-10.78125-2.359375 3.640625h1.46875l3.671875-3.640625zm0 0"/></symbol><symbol id="R" overflow="visible"><path d="m6.25-12.890625h-2.125v-3.53125h-2.03125v3.53125h-1.75v1.671875h1.75v9.75c0 1.328125.875 2.03125 2.484375 2.03125.53125 0 .984375-.046875 1.671875-.171875v-1.71875c-.296875.078125-.5625.09375-.984375.09375-.890625 0-1.140625-.234375-1.140625-1.15625v-8.828125h2.125zm0 0"/></symbol><symbol id="S" overflow="visible"><path d="m12.609375-5.75c0-1.96875-.140625-3.15625-.515625-4.109375-.828125-2.125-2.796875-3.390625-5.203125-3.390625-3.59375 0-5.90625 2.71875-5.90625 6.984375 0 4.25 2.21875 6.828125 5.859375 6.828125 2.9375 0 4.984375-1.671875 5.5-4.46875h-2.0625c-.5625 1.6875-1.71875 2.578125-3.375 2.578125-1.296875 0-2.40625-.59375-3.09375-1.671875-.5-.734375-.671875-1.46875-.6875-2.75zm-9.4375-1.671875c.171875-2.390625 1.625-3.9375 3.6875-3.9375 2.09375 0 3.546875 1.625 3.546875 3.9375zm0 0"/></symbol><symbol id="T" overflow="visible"><path d="m9.546875-12.890625-3.578125 10.03125-3.28125-10.03125h-2.203125l4.359375 12.9375-.78125 2.046875c-.34375.90625-.796875 1.25-1.65625 1.25-.34375 0-.640625-.046875-1.078125-.140625v1.84375c.421875.21875.84375.3125 1.375.3125.671875 0 1.375-.21875 1.921875-.609375.640625-.46875 1-1.015625 1.40625-2.046875l5.71875-15.59375zm0 0"/></symbol><symbol id="U" overflow="visible"><path d="m11.859375 0v-12.890625h-2.046875v7.3125c0 2.625-1.375 4.34375-3.515625 4.34375-1.625 0-2.65625-.984375-2.65625-2.53125v-9.125h-2.046875v9.9375c0 2.140625 1.609375 3.515625 4.109375 3.515625 1.890625 0 3.09375-.65625 4.3125-2.359375v1.796875zm-4.578125-18.203125-2.359375 3.640625h1.46875l3.671875-3.640625zm0 0"/></symbol><symbol id="V" overflow="visible"><path d="m11.859375 0v-12.890625h-2.046875v7.3125c0 2.625-1.375 4.34375-3.515625 4.34375-1.625 0-2.65625-.984375-2.65625-2.53125v-9.125h-2.046875v9.9375c0 2.140625 1.609375 3.515625 4.109375 3.515625 1.890625 0 3.09375-.65625 4.3125-2.359375v1.796875zm-5.828125-17.578125h-2.5625v2.53125h2.5625zm3.984375 0h-2.5625v2.53125h2.5625zm0 0"/></symbol><symbol id="W" overflow="visible"><path d="m14.28125-17.921875h-12.90625v2.015625h10.078125l-10.765625 13.890625v2.015625h13.65625v-2.015625h-10.78125l10.71875-13.84375zm0 0"/></symbol><symbol id="X" overflow="visible"><path d="m10.890625-12.890625h-9.609375v1.796875h7.171875l-7.6875 9.25v1.84375h10.46875v-1.796875h-7.984375l7.640625-9.265625zm0 0"/></symbol><symbol id="Y" overflow="visible"><path d="m10.765625-9.296875c-.015625-2.53125-1.6875-3.953125-4.671875-3.953125-3 0-4.9375 1.546875-4.9375 3.921875 0 2.03125 1.03125 2.984375 4.078125 3.71875l1.921875.46875c1.421875.34375 2 .859375 2 1.765625 0 1.234375-1.21875 2.046875-3 2.046875-1.109375 0-2.046875-.3125-2.5625-.859375-.328125-.375-.46875-.734375-.59375-1.65625h-2.15625c.09375 2.984375 1.765625 4.40625 5.125 4.40625 3.25 0 5.3125-1.59375 5.3125-4.078125 0-1.921875-1.078125-2.984375-3.625-3.59375l-1.96875-.46875c-1.671875-.390625-2.390625-.9375-2.390625-1.84375 0-1.203125 1.0625-1.9375 2.734375-1.9375 1.640625 0 2.53125.703125 2.578125 2.0625zm0 0"/></symbol><symbol id="Z" overflow="visible"><path d="m6.6875-13.25c-3.640625 0-5.796875 2.578125-5.796875 6.90625 0 4.359375 2.15625 6.90625 5.828125 6.90625 3.640625 0 5.828125-2.578125 5.828125-6.8125 0-4.46875-2.125-7-5.859375-7zm.03125 1.890625c2.3125 0 3.6875 1.890625 3.6875 5.09375 0 3.046875-1.421875 4.9375-3.6875 4.9375-2.296875 0-3.6875-1.890625-3.6875-5.015625s1.390625-5.015625 3.6875-5.015625zm0 0"/></symbol><symbol id="aa" overflow="visible"><path d="m4.359375-12.890625h-2.046875v12.890625h2.046875zm-.40625-5.3125-2.359375 3.640625h1.484375l3.65625-3.640625zm0 0"/></symbol><symbol id="ab" overflow="visible"><path d="m6.34375-12.890625h-2.140625v-2.015625c0-.859375.46875-1.296875 1.421875-1.296875.171875 0 .25 0 .71875.015625v-1.6875c-.46875-.109375-.734375-.125-1.15625-.125-1.890625 0-3.015625 1.078125-3.015625 2.921875v2.1875h-1.734375v1.671875h1.734375v11.21875h2.03125v-11.21875h2.140625zm0 0"/></symbol><symbol id="ac" overflow="visible"><path d="m6.6875-13.25c-3.640625 0-5.796875 2.578125-5.796875 6.90625 0 4.359375 2.15625 6.90625 5.828125 6.90625 3.640625 0 5.828125-2.578125 5.828125-6.8125 0-4.46875-2.125-7-5.859375-7zm.03125 1.890625c2.3125 0 3.6875 1.890625 3.6875 5.09375 0 3.046875-1.421875 4.9375-3.6875 4.9375-2.296875 0-3.6875-1.890625-3.6875-5.015625s1.390625-5.015625 3.6875-5.015625zm-.71875-6.21875h-2.5625v2.53125h2.5625zm3.984375 0h-2.5625v2.53125h2.5625zm0 0"/></symbol><symbol id="ad" overflow="visible"><path d="m16.28125-12.375c-.71875-3.9375-2.96875-5.84375-6.90625-5.84375-2.421875 0-4.359375.75-5.6875 2.234375-1.625 1.765625-2.5 4.328125-2.5 7.234375 0 2.953125.90625 5.484375 2.578125 7.21875 1.40625 1.4375 3.171875 2.09375 5.5 2.09375 4.390625 0 6.84375-2.359375 7.390625-7.109375h-2.375c-.1875 1.234375-.4375 2.078125-.796875 2.78125-.75 1.484375-2.265625 2.3125-4.1875 2.3125-3.5625 0-5.828125-2.84375-5.828125-7.328125 0-4.59375 2.140625-7.421875 5.625-7.421875 1.453125 0 2.8125.40625 3.546875 1.125.671875.609375 1.03125 1.359375 1.296875 2.703125zm0 0"/></symbol><symbol id="ae" overflow="visible"><path d="m1.71875-17.921875v17.921875h2.046875v-7.109375c0-2.625 1.375-4.34375 3.484375-4.34375.6875 0 1.328125.1875 1.828125.5625.59375.4375.828125 1.046875.828125 1.96875v8.921875h2.046875v-9.734375c0-2.171875-1.546875-3.515625-4.0625-3.515625-1.8125 0-2.921875.5625-4.125 2.140625v-6.8125zm0 0"/></symbol><symbol id="af" overflow="visible"><path d="m9.5625-18.21875c-5.140625 0-8.625 3.78125-8.625 9.390625 0 5.625 3.46875 9.390625 8.65625 9.390625 2.1875 0 4.109375-.65625 5.5625-1.890625 1.9375-1.640625 3.09375-4.421875 3.09375-7.359375 0-5.78125-3.421875-9.53125-8.6875-9.53125zm0 2.015625c3.890625 0 6.40625 2.921875 6.40625 7.46875 0 4.328125-2.59375 7.28125-6.375 7.28125-3.84375 0-6.375-2.953125-6.375-7.375s2.53125-7.375 6.34375-7.375zm-.609375-6.890625-2.359375 3.6875h1.46875l3.671875-3.6875zm4.28125 0-2.359375 3.6875h1.46875l3.671875-3.6875zm0 0"/></symbol><symbol id="ag" overflow="visible"><path d="m4.703125-2.5625h-2.5625v2.5625h2.5625zm0 0"/></symbol><symbol id="ah" overflow="visible"><path d="m11.515625 0 5.03125-15.03125v15.03125h2.171875v-17.921875h-3.171875l-5.21875 15.609375-5.3125-15.609375h-3.171875v17.921875h2.171875v-15.03125l5.078125 15.03125zm0 0"/></symbol><symbol id="ai" overflow="visible"><path d="m11.578125-8.5625c-.09375-1.25-.359375-2.0625-.859375-2.78125-.875-1.203125-2.4375-1.90625-4.21875-1.90625-3.5 0-5.734375 2.75-5.734375 7.03125 0 4.15625 2.203125 6.78125 5.703125 6.78125 3.078125 0 5.015625-1.84375 5.265625-4.984375h-2.0625c-.34375 2.0625-1.40625 3.09375-3.15625 3.09375-2.265625 0-3.609375-1.84375-3.609375-4.890625 0-3.21875 1.328125-5.140625 3.5625-5.140625 1.71875 0 2.796875 1 3.046875 2.796875zm0 0"/></symbol><symbol id="aj" overflow="visible"><path d="m1.71875-12.890625v12.890625h2.0625v-8.09375c0-1.859375 1.359375-3.359375 3.03125-3.359375 1.53125 0 2.390625.921875 2.390625 2.578125v8.875h2.0625v-8.09375c0-1.859375 1.34375-3.359375 3.015625-3.359375 1.515625 0 2.390625.953125 2.390625 2.578125v8.875h2.0625v-9.671875c0-2.3125-1.328125-3.578125-3.734375-3.578125-1.71875 0-2.75.515625-3.953125 1.96875-.765625-1.390625-1.796875-1.96875-3.46875-1.96875-1.71875 0-2.875.640625-3.96875 2.1875v-1.828125zm0 0"/></symbol><symbol id="ak" overflow="visible"><path d="m5.21875-10.71875v10.71875h3.0625v-15.546875h-2.03125c-.484375 1.84375-2.078125 2.78125-4.765625 2.78125v2.046875zm0 0"/></symbol><symbol id="al" overflow="visible"><path d="m4.6875-3.203125h-3.28125v3.203125h3.28125zm0 0"/></symbol><symbol id="am" overflow="visible"><path d="m6.609375-10.15625c2.3125 0 2.5625 1.984375 2.5625 4.65625s-.25 4.65625-2.5625 4.65625c-2.21875 0-2.265625-2.03125-2.265625-4.65625s.046875-4.65625 2.265625-4.65625zm-2.265625-.328125c0-.875-.046875-1.703125-.046875-2.578125 0-3.1875.328125-6.015625 3.109375-6.015625.875 0 1.796875.4375 1.796875 1.234375 0 .90625-1.546875 1.03125-1.546875 1.953125 0 1.421875 1.15625 2.578125 2.578125 2.578125 1.4375 0 2.59375-1.15625 2.59375-2.578125 0-2.515625-2.671875-4.03125-5.421875-4.03125-4.65625 0-7.40625 4.859375-7.40625 9.953125 0 4.984375 2.1875 9.96875 6.609375 9.96875 3.953125 0 6.65625-1.796875 6.65625-5.5s-2.703125-5.53125-6.65625-5.53125c-.796875 0-1.515625.265625-2.265625.546875zm0 0"/></symbol><symbol id="an" overflow="visible"><path d="m10.046875-11.359375-4.46875-2.546875c-.875-.515625-1.234375-1.3125-1.234375-2.1875 0-1.484375 1.15625-2.984375 3.109375-2.984375 2.421875 0 4.734375 1.390625 4.734375 3.625 0 1.625-.984375 2.90625-2.140625 4.09375zm1.0625.640625c1.359375-1.390625 2.640625-2.828125 2.640625-4.734375 0-2.875-3.109375-4.46875-6.296875-4.46875-4.5 0-6.890625 2.59375-6.890625 5.265625 0 1.59375.796875 3.21875 2.546875 4.34375-1.515625 1.390625-3.109375 2.78125-3.109375 4.8125 0 3.390625 3.46875 5.5 7.125 5.5 4.78125 0 7.375-2.796875 7.375-5.65625 0-1.953125-1.1875-3.78125-3.390625-5.0625zm-6.890625 1.03125 4.953125 2.828125c1.03125.609375 1.46875 1.640625 1.46875 2.640625 0 1.671875-1.3125 3.375-3.515625 3.375-2.90625 0-5.53125-1.90625-5.53125-4.65625 0-1.75 1.28125-2.984375 2.625-4.1875zm0 0"/></symbol><g clip-path="url(#a)"><path d="m3.359375 4296.54375h5946.054687" fill="none" stroke="#000" stroke-linecap="round" stroke-miterlimit="10" stroke-width="6.68493" transform="matrix(.1 0 0 -.1 0 497.17)"/></g><g clip-path="url(#b)"><path d="m3.359375 4396.153125h5946.054687" fill="none" stroke="#000" stroke-linecap="round" stroke-miterlimit="10" stroke-width="6.68493" transform="matrix(.1 0 0 -.1 0 497.17)"/></g><g clip-path="url(#c)"><path d="m3.359375 4495.801562h5946.054687" fill="none" stroke="#000" stroke-linecap="round" stroke-miterlimit="10" stroke-width="6.68493" transform="matrix(.1 0 0 -.1 0 497.17)"/></g><g clip-path="url(#d)"><path d="m3.359375 4595.410937h5946.054687" fill="none" stroke="#000" stroke-linecap="round" stroke-miterlimit="10" stroke-width="6.68493" transform="matrix(.1 0 0 -.1 0 497.17)"/></g><g clip-path="url(#e)"><path d="m3.359375 4695.059375h5946.054687" fill="none" stroke="#000" stroke-linecap="round" stroke-miterlimit="10" stroke-width="6.68493" transform="matrix(.1 0 0 -.1 0 497.17)"/></g><g clip-path="url(#f)"><path d="m5946.40625 4296.54375v398.515625" fill="none" stroke="#000" stroke-miterlimit="10" stroke-width="12.7123" transform="matrix(.1 0 0 -.1 0 497.17)"/></g><path d="m3502.421875 4296.54375v398.515625" fill="none" stroke="#000" stroke-miterlimit="10" stroke-width="12.7123" transform="matrix(.1 0 0 -.1 0 497.17)"/><path d="m4156.328125 4467.559375h4.6875v314.84375h-4.6875zm0 0" fill="none" stroke="#000" stroke-linejoin="round" stroke-miterlimit="10" stroke-width="3.98506" transform="matrix(.1 0 0 -.1 0 497.17)"/><path d="m415.632812 50.414062h.46875v-31.484374h-.46875zm0 0"/><use x="449.35" xlink:href="#y" y="47.591"/><use x="449.051953" xlink:href="#C" y="102.3855"/><path d="m4616.914062 4517.364062h4.6875v275.234375h-4.6875zm0 0" fill="none" stroke="#000" stroke-linejoin="round" stroke-miterlimit="10" stroke-width="3.98506" transform="matrix(.1 0 0 -.1 0 497.17)"/><path d="m461.6875 45.433594h.472656v-27.519532h-.472656zm0 0"/><use x="495.408" xlink:href="#y" y="52.573"/><use x="493.06777" xlink:href="#D" y="102.3863"/><use x="505.313877" xlink:href="#E" y="102.3863"/><use x="400.272838" xlink:href="#F" y="102.3863"/><use x="405.715434" xlink:href="#C" y="102.3863"/><use x="403.29237" xlink:href="#y" y="52.573"/><use x="508.41737" xlink:href="#z" y="17.9031"/><path d="m3695.742188 4467.559375h4.726562v304.648437h-4.726562zm0 0" fill="none" stroke="#000" stroke-linejoin="round" stroke-miterlimit="10" stroke-width="3.98506" transform="matrix(.1 0 0 -.1 0 497.17)"/><path d="m369.574219 50.414062h.472656v-30.464843h-.472656zm0 0"/><path d="m1043.242188 4015.29375h60.390624v3.320312h-60.390624zm0 0" fill="none" stroke="#000" stroke-linejoin="round" stroke-miterlimit="10" stroke-width="5.34994" transform="matrix(.1 0 0 -.1 0 497.17)"/><path d="m104.324219 95.640625h6.039062v-.332031h-6.039062zm0 0"/><path d="m2799.648438 4015.29375h60.429687v3.320312h-60.429687zm0 0" fill="none" stroke="#000" stroke-linejoin="round" stroke-miterlimit="10" stroke-width="5.34994" transform="matrix(.1 0 0 -.1 0 497.17)"/><path d="m279.964844 95.640625h6.042968v-.332031h-6.042968zm0 0"/><path d="m963.632812 4796.035937v-43.867187l1151.796876 20.585937v43.828125zm0 0" fill="none" stroke="#000" stroke-linejoin="round" stroke-miterlimit="10" stroke-width="3.98506" transform="matrix(.1 0 0 -.1 0 497.17)"/><path d="m96.363281 17.566406v4.386719l115.179688-2.058594v-4.382812zm0 0"/><path d="m3871.484375 4015.29375h60.429687v3.320312h-60.429687zm0 0" fill="none" stroke="#000" stroke-linejoin="round" stroke-miterlimit="10" stroke-width="5.34994" transform="matrix(.1 0 0 -.1 0 497.17)"/><path d="m387.148438 95.640625h6.042968v-.332031h-6.042968zm0 0"/><path d="m5165.625 4015.29375h60.429688v3.320312h-60.429688zm0 0" fill="none" stroke="#000" stroke-linejoin="round" stroke-miterlimit="10" stroke-width="5.34994" transform="matrix(.1 0 0 -.1 0 497.17)"/><path d="m516.5625 95.640625h6.042969v-.332031h-6.042969zm0 0"/><path d="m3695.742188 4796.035937v-43.867187l925.859374 20.585937v43.828125zm0 0" fill="none" stroke="#000" stroke-linejoin="round" stroke-miterlimit="10" stroke-width="3.98506" transform="matrix(.1 0 0 -.1 0 497.17)"/><path d="m369.574219 17.566406v4.386719l92.585937-2.058594v-4.382812zm0 0"/><path d="m5077.460938 4467.559375h4.726562v325.117187h-4.726562zm0 0" fill="none" stroke="#000" stroke-linejoin="round" stroke-miterlimit="10" stroke-width="3.98506" transform="matrix(.1 0 0 -.1 0 497.17)"/><path d="m507.746094 50.414062h.472656v-32.511718h-.472656zm0 0"/><path d="m5538.046875 4318.10625h4.6875v325.117187h-4.6875zm0 0" fill="none" stroke="#000" stroke-linejoin="round" stroke-miterlimit="10" stroke-width="3.98506" transform="matrix(.1 0 0 -.1 0 497.17)"/><path d="m553.804688 65.359375h.46875v-32.511719h-.46875zm0 0"/><use x="528.411" xlink:href="#G" y="102.386"/><use x="533.853597" xlink:href="#H" y="102.386"/><use x="547.459494" xlink:href="#I" y="102.386"/><use x="560.725937" xlink:href="#J" y="102.386"/><use x="541.4661" xlink:href="#y" y="67.5165"/><path d="m963.632812 4467.559375h4.726563v304.609375h-4.726563zm0 0" fill="none" stroke="#000" stroke-linejoin="round" stroke-miterlimit="10" stroke-width="3.98506" transform="matrix(.1 0 0 -.1 0 497.17)"/><path d="m96.363281 50.414062h.472657v-30.460937h-.472657zm0 0"/><path d="m1449.609375 4467.559375h4.6875v313.28125h-4.6875zm0 0" fill="none" stroke="#000" stroke-linejoin="round" stroke-miterlimit="10" stroke-width="3.98506" transform="matrix(.1 0 0 -.1 0 497.17)"/><path d="m144.960938 50.414062h.46875v-31.328124h-.46875zm0 0"/><use x="115.314" xlink:href="#K" y="102.386"/><use x="123.477297" xlink:href="#L" y="102.386"/><use x="137.083169" xlink:href="#M" y="102.386"/><use x="150.689432" xlink:href="#N" y="102.386"/><use x="132.621" xlink:href="#y" y="52.5727"/><use x="53.3554" xlink:href="#ak" y="102.386"/><use x="65.601505" xlink:href="#al" y="102.386"/><use x="81.6859" xlink:href="#O" y="102.386"/><use x="50.3238" xlink:href="#am" y="47.5915"/><use x="49.813644" xlink:href="#an" y="67.5157"/><use x="7.970244" xlink:href="#A" y="57.55398"/><use x="84.025344" xlink:href="#y" y="52.57273"/><path d="m2548.4375 4198.8875h4.6875v325.117187h-4.6875zm0 0" fill="none" stroke="#000" stroke-linejoin="round" stroke-miterlimit="10" stroke-width="3.98506" transform="matrix(.1 0 0 -.1 0 497.17)"/><path d="m254.84375 77.28125h.46875v-32.511719h-.46875zm0 0"/><use x="347.412" xlink:href="#H" y="102.386"/><use x="361.018263" xlink:href="#G" y="102.386"/><use x="366.46086" xlink:href="#P" y="102.386"/><use x="357.23544" xlink:href="#y" y="52.5727"/><path d="m3008.984375 4165.684375h4.726563v308.515625h-4.726563zm0 0" fill="none" stroke="#000" stroke-linejoin="round" stroke-miterlimit="10" stroke-width="3.98506" transform="matrix(.1 0 0 -.1 0 497.17)"/><path d="m300.898438 80.601562h.472656v-30.851562h-.472656zm0 0"/><use x="291.218" xlink:href="#D" y="102.386"/><use x="302.953168" xlink:href="#Q" y="102.386"/><use x="316.389509" xlink:href="#R" y="102.386"/><use x="300.70042" xlink:href="#y" y="47.5915"/><use x="255.51172" xlink:href="#B" y="77.2802"/><use x="247.54063" xlink:href="#M" y="102.3861"/><use x="261.146893" xlink:href="#S" y="102.3861"/><use x="254.64297" xlink:href="#y" y="42.6103"/><use x="198.73357" xlink:href="#y" y="47.59155"/><path d="m2110.742188 4517.364062h4.6875v275.234375h-4.6875zm0 0" fill="none" stroke="#000" stroke-linejoin="round" stroke-miterlimit="10" stroke-width="3.98506" transform="matrix(.1 0 0 -.1 0 497.17)"/><path d="m211.074219 45.433594h.46875v-27.523438h-.46875zm0 0"/><use x="178.876" xlink:href="#M" y="102.386"/><use x="192.481873" xlink:href="#C" y="102.386"/><use x="205.918604" xlink:href="#I" y="102.386"/><use x="219.355336" xlink:href="#T" y="102.386"/><g clip-path="url(#g)"><path d="m3.359375 3101.035937h5946.054687" style="fill:none;stroke-width:6.68493;stroke-linecap:round;stroke-linejoin:round;stroke:#000;stroke-miterlimit:10" transform="matrix(.1 0 0 -.1 0 497.17)"/></g><g clip-path="url(#h)"><path d="m3.359375 3200.645312h5946.054687" style="fill:none;stroke-width:6.68493;stroke-linecap:round;stroke-linejoin:round;stroke:#000;stroke-miterlimit:10" transform="matrix(.1 0 0 -.1 0 497.17)"/></g><g clip-path="url(#i)"><path d="m3.359375 3300.254687h5946.054687" style="fill:none;stroke-width:6.68493;stroke-linecap:round;stroke-linejoin:round;stroke:#000;stroke-miterlimit:10" transform="matrix(.1 0 0 -.1 0 497.17)"/></g><g clip-path="url(#j)"><path d="m3.359375 3399.903125h5946.054687" style="fill:none;stroke-width:6.68493;stroke-linecap:round;stroke-linejoin:round;stroke:#000;stroke-miterlimit:10" transform="matrix(.1 0 0 -.1 0 497.17)"/></g><g clip-path="url(#k)"><path d="m3.359375 3499.5125h5946.054687" style="fill:none;stroke-width:6.68493;stroke-linecap:round;stroke-linejoin:round;stroke:#000;stroke-miterlimit:10" transform="matrix(.1 0 0 -.1 0 497.17)"/></g><g clip-path="url(#l)"><path d="m5946.40625 3101.035937v398.476563" fill="none" stroke="#000" stroke-linejoin="round" stroke-miterlimit="10" stroke-width="12.7123" transform="matrix(.1 0 0 -.1 0 497.17)"/></g><path d="m3190.9375 3101.035937v398.476563" fill="none" stroke="#000" stroke-linejoin="round" stroke-miterlimit="10" stroke-width="12.7123" transform="matrix(.1 0 0 -.1 0 497.17)"/><path d="m3960.546875 3272.051562h4.726563v315.390625h-4.726563zm0 0" fill="none" stroke="#000" stroke-linejoin="round" stroke-miterlimit="10" stroke-width="3.98506" transform="matrix(.1 0 0 -.1 0 497.17)"/><path d="m396.054688 169.964844h.472656v-31.539063h-.472656zm0 0"/><use x="478.57" xlink:href="#P" y="221.938"/><use x="492.175897" xlink:href="#C" y="221.938"/><use x="435.0333" xlink:href="#y" y="167.1435"/><use x="432.0126" xlink:href="#U" y="221.938"/><use x="445.618888" xlink:href="#F" y="221.938"/><path d="m4473.710938 3321.85625h4.726562v275.234375h-4.726562zm0 0" fill="none" stroke="#000" stroke-linejoin="round" stroke-miterlimit="10" stroke-width="3.98506" transform="matrix(.1 0 0 -.1 0 497.17)"/><path d="m447.371094 164.984375h.472656v-27.523437h-.472656zm0 0"/><use x="485.672" xlink:href="#y" y="172.124"/><path d="m3386.171875 3272.051562h4.6875v304.609375h-4.6875zm0 0" fill="none" stroke="#000" stroke-linejoin="round" stroke-miterlimit="10" stroke-width="3.98506" transform="matrix(.1 0 0 -.1 0 497.17)"/><path d="m338.617188 169.964844h.46875v-30.460938h-.46875zm0 0"/><use x="364.37" xlink:href="#D" y="221.938"/><use x="376.616107" xlink:href="#V" y="221.938"/><use x="390.221979" xlink:href="#M" y="221.938"/><use x="403.828242" xlink:href="#N" y="221.938"/><use x="383.7165" xlink:href="#y" y="172.1247"/><path d="m969.609375 2819.746875h60.390625v3.359375h-60.390625zm0 0" fill="none" stroke="#000" stroke-linejoin="round" stroke-miterlimit="10" stroke-width="5.34994" transform="matrix(.1 0 0 -.1 0 497.17)"/><path d="m96.960938 215.195312h6.039062v-.335937h-6.039062zm0 0"/><path d="m2456.25 2819.746875h60.429688v3.359375h-60.429688zm0 0" fill="none" stroke="#000" stroke-linejoin="round" stroke-miterlimit="10" stroke-width="5.34994" transform="matrix(.1 0 0 -.1 0 497.17)"/><path d="m245.625 215.195312h6.042969v-.335937h-6.042969zm0 0"/><path d="m701.210938 3600.489062v-43.828125l1043.007812 20.585938v43.828125zm0 0" fill="none" stroke="#000" stroke-linejoin="round" stroke-miterlimit="10" stroke-width="3.98506" transform="matrix(.1 0 0 -.1 0 497.17)"/><path d="m70.121094 137.121094v4.382812l104.300781-2.058594v-4.382812zm0 0"/><path d="m3533.789062 2819.746875h60.429688v3.359375h-60.429688zm0 0" fill="none" stroke="#000" stroke-linejoin="round" stroke-miterlimit="10" stroke-width="5.34994" transform="matrix(.1 0 0 -.1 0 497.17)"/><path d="m353.378906 215.195312h6.042969v-.335937h-6.042969zm0 0"/><path d="m5132.03125 2819.746875h60.390625v3.359375h-60.390625zm0 0" fill="none" stroke="#000" stroke-linejoin="round" stroke-miterlimit="10" stroke-width="5.34994" transform="matrix(.1 0 0 -.1 0 497.17)"/><path d="m513.199219 215.195312h6.042969v-.335937h-6.042969zm0 0"/><path d="m3386.171875 3600.489062v-43.828125l1092.265625 20.585938v43.828125zm0 0" fill="none" stroke="#000" stroke-linejoin="round" stroke-miterlimit="10" stroke-width="3.98506" transform="matrix(.1 0 0 -.1 0 497.17)"/><path d="m338.617188 137.121094v4.382812l109.226562-2.058594v-4.382812zm0 0"/><path d="m4980.117188 3272.051562h4.726562v325.117188h-4.726562zm0 0" fill="none" stroke="#000" stroke-linejoin="round" stroke-miterlimit="10" stroke-width="3.98506" transform="matrix(.1 0 0 -.1 0 497.17)"/><path d="m498.011719 169.964844h.46875v-32.507813h-.46875zm0 0"/><path d="m5486.523438 3122.598437h4.6875v325.117188h-4.6875zm0 0" fill="none" stroke="#000" stroke-linejoin="round" stroke-miterlimit="10" stroke-width="3.98506" transform="matrix(.1 0 0 -.1 0 497.17)"/><path d="m548.648438 184.910156h.472656v-32.511718h-.472656zm0 0"/><use x="526.658" xlink:href="#G" y="221.938"/><use x="532.100597" xlink:href="#H" y="221.938"/><use x="545.706494" xlink:href="#R" y="221.938"/><use x="552.169377" xlink:href="#J" y="221.938"/><use x="536.31073" xlink:href="#y" y="187.0689"/><use x="498.68183" xlink:href="#z" y="137.4548"/><use x="57.78283" xlink:href="#y" y="172.1247"/><use x="36.56443" xlink:href="#W" y="221.938"/><use x="51.191789" xlink:href="#S" y="221.938"/><use x="64.797668" xlink:href="#M" y="221.938"/><use x="78.403546" xlink:href="#I" y="221.938"/><path d="m701.210938 3272.051562h4.726562v304.609375h-4.726562zm0 0" fill="none" stroke="#000" stroke-linejoin="round" stroke-miterlimit="10" stroke-width="3.98506" transform="matrix(.1 0 0 -.1 0 497.17)"/><path d="m70.121094 169.964844h.472656v-30.460938h-.472656zm0 0"/><use x="110.971" xlink:href="#y" y="172.124"/><use x="107.95147" xlink:href="#F" y="221.9373"/><use x="113.394054" xlink:href="#S" y="221.9373"/><path d="m1233.125 3272.051562h4.6875v315.078125h-4.6875zm0 0" fill="none" stroke="#000" stroke-linejoin="round" stroke-miterlimit="10" stroke-width="3.98506" transform="matrix(.1 0 0 -.1 0 497.17)"/><path d="m123.3125 169.964844h.46875v-31.507813h-.46875zm0 0"/><use x="7.96992" xlink:href="#A" y="177.106"/><use x="197.13492" xlink:href="#X" y="221.938"/><use x="209.381027" xlink:href="#Y" y="221.938"/><use x="221.627133" xlink:href="#Z" y="221.938"/><use x="235.233006" xlink:href="#G" y="221.938"/><use x="317.134988" xlink:href="#Y" y="221.938"/><use x="329.381094" xlink:href="#X" y="221.938"/><use x="341.627201" xlink:href="#aa" y="221.938"/><use x="326.27792" xlink:href="#y" y="172.1247"/><path d="m2645.976562 2970.176562h4.6875v308.515625h-4.6875zm0 0" fill="none" stroke="#000" stroke-linejoin="round" stroke-miterlimit="10" stroke-width="3.98506" transform="matrix(.1 0 0 -.1 0 497.17)"/><path d="m264.597656 200.152344h.46875v-30.851563h-.46875zm0 0"/><use x="256.616" xlink:href="#R" y="221.938"/><use x="263.419535" xlink:href="#H" y="221.938"/><use x="277.025407" xlink:href="#K" y="221.938"/><use x="264.39803" xlink:href="#y" y="167.1435"/><use x="213.27073" xlink:href="#B" y="196.8322"/><path d="m2126.015625 3003.379687h4.6875v325.117188h-4.6875zm0 0" fill="none" stroke="#000" stroke-linejoin="round" stroke-miterlimit="10" stroke-width="3.98506" transform="matrix(.1 0 0 -.1 0 497.17)"/><path d="m212.601562 196.832031h.46875v-32.511719h-.46875zm0 0"/><use x="212.4" xlink:href="#y" y="162.162"/><path d="m1739.492188 3321.85625h4.726562v275.195312h-4.726562zm0 0" fill="none" stroke="#000" stroke-linejoin="round" stroke-miterlimit="10" stroke-width="3.98506" transform="matrix(.1 0 0 -.1 0 497.17)"/><path d="m173.949219 164.984375h.46875v-27.519531h-.46875zm0 0"/><use x="161.61" xlink:href="#y" y="167.143"/><use x="161.310781" xlink:href="#C" y="221.9375"/><g clip-path="url(#m)"><path d="m3.359375 1905.489062h5946.054687" style="fill:none;stroke-width:6.68493;stroke-linecap:round;stroke-linejoin:round;stroke:#000;stroke-miterlimit:10" transform="matrix(.1 0 0 -.1 0 497.17)"/></g><g clip-path="url(#n)"><path d="m3.359375 2005.1375h5946.054687" style="fill:none;stroke-width:6.68493;stroke-linecap:round;stroke-linejoin:round;stroke:#000;stroke-miterlimit:10" transform="matrix(.1 0 0 -.1 0 497.17)"/></g><g clip-path="url(#o)"><path d="m3.359375 2104.746875h5946.054687" style="fill:none;stroke-width:6.68493;stroke-linecap:round;stroke-linejoin:round;stroke:#000;stroke-miterlimit:10" transform="matrix(.1 0 0 -.1 0 497.17)"/></g><g clip-path="url(#p)"><path d="m3.359375 2204.395312h5946.054687" style="fill:none;stroke-width:6.68493;stroke-linecap:round;stroke-linejoin:round;stroke:#000;stroke-miterlimit:10" transform="matrix(.1 0 0 -.1 0 497.17)"/></g><g clip-path="url(#q)"><path d="m3.359375 2304.004687h5946.054687" style="fill:none;stroke-width:6.68493;stroke-linecap:round;stroke-linejoin:round;stroke:#000;stroke-miterlimit:10" transform="matrix(.1 0 0 -.1 0 497.17)"/></g><g clip-path="url(#r)"><path d="m5946.40625 1905.489062v398.515625" fill="none" stroke="#000" stroke-linejoin="round" stroke-miterlimit="10" stroke-width="12.7123" transform="matrix(.1 0 0 -.1 0 497.17)"/></g><path d="m3260.273438 1905.489062v398.515625" fill="none" stroke="#000" stroke-linejoin="round" stroke-miterlimit="10" stroke-width="12.7123" transform="matrix(.1 0 0 -.1 0 497.17)"/><path d="m3964.453125 1976.895312h4.726563v314.84375h-4.726563zm0 0" fill="none" stroke="#000" stroke-linejoin="round" stroke-miterlimit="10" stroke-width="3.98506" transform="matrix(.1 0 0 -.1 0 497.17)"/><path d="m396.445312 299.480469h.46875v-31.484375h-.46875zm0 0"/><use x="485.57" xlink:href="#C" y="341.489"/><use x="434.9864" xlink:href="#y" y="296.6574"/><use x="428.56452" xlink:href="#Y" y="341.489"/><use x="440.810627" xlink:href="#S" y="341.489"/><path d="m4473.28125 2026.7h4.6875v275.234375h-4.6875zm0 0" fill="none" stroke="#000" stroke-linejoin="round" stroke-miterlimit="10" stroke-width="3.98506" transform="matrix(.1 0 0 -.1 0 497.17)"/><path d="m447.328125 294.5h.46875v-27.523438h-.46875zm0 0"/><use x="485.868" xlink:href="#y" y="291.676"/><path d="m3455.625 1976.895312h4.726562v304.648438h-4.726562zm0 0" fill="none" stroke="#000" stroke-linejoin="round" stroke-miterlimit="10" stroke-width="3.98506" transform="matrix(.1 0 0 -.1 0 497.17)"/><path d="m345.5625 299.480469h.472656v-30.464844h-.472656zm0 0"/><use x="370.88" xlink:href="#P" y="341.489"/><use x="384.486263" xlink:href="#S" y="341.489"/><use x="398.092136" xlink:href="#Y" y="341.489"/><use x="384.1046" xlink:href="#y" y="301.6386"/><path d="m909.21875 1624.239062h60.429688v3.359375h-60.429688zm0 0" fill="none" stroke="#000" stroke-linejoin="round" stroke-miterlimit="10" stroke-width="5.34994" transform="matrix(.1 0 0 -.1 0 497.17)"/><path d="m90.921875 334.746094h6.042969v-.335938h-6.042969zm0 0"/><path d="m1966.054688 1624.239062h60.390624v3.359375h-60.390624zm0 0" fill="none" stroke="#000" stroke-linejoin="round" stroke-miterlimit="10" stroke-width="5.34994" transform="matrix(.1 0 0 -.1 0 497.17)"/><path d="m196.605469 334.746094h6.039062v-.335938h-6.039062zm0 0"/><path d="m2477.8125 1624.239062h60.429688v3.359375h-60.429688zm0 0" fill="none" stroke="#000" stroke-linejoin="round" stroke-miterlimit="10" stroke-width="5.34994" transform="matrix(.1 0 0 -.1 0 497.17)"/><path d="m247.78125 334.746094h6.042969v-.335938h-6.042969zm0 0"/><path d="m701.210938 2361.153125h1087.070312v43.828125h-1087.070312zm0 0" fill="none" stroke="#000" stroke-linejoin="round" stroke-miterlimit="10" stroke-width="3.98506" transform="matrix(.1 0 0 -.1 0 497.17)"/><path d="m70.121094 261.054688h108.707031v-4.382813h-108.707031zm0 0"/><path d="m3590.898438 1624.239062h60.390624v3.359375h-60.390624zm0 0" fill="none" stroke="#000" stroke-linejoin="round" stroke-miterlimit="10" stroke-width="5.34994" transform="matrix(.1 0 0 -.1 0 497.17)"/><path d="m359.085938 334.746094h6.042968v-.335938h-6.042968zm0 0"/><path d="m4164.335938 1624.239062h60.390624v3.359375h-60.390624zm0 0" fill="none" stroke="#000" stroke-linejoin="round" stroke-miterlimit="10" stroke-width="5.34994" transform="matrix(.1 0 0 -.1 0 497.17)"/><path d="m416.433594 334.746094h6.039062v-.335938h-6.039062zm0 0"/><path d="m3455.625 2305.371875v-43.867188l1022.34375 20.585938v43.828125zm0 0" fill="none" stroke="#000" stroke-linejoin="round" stroke-miterlimit="10" stroke-width="3.98506" transform="matrix(.1 0 0 -.1 0 497.17)"/><path d="m345.5625 266.632812v4.386719l102.234375-2.058593v-4.382813zm0 0"/><path d="m4982.070312 2076.54375h4.726563v325.117187h-4.726563zm0 0" fill="none" stroke="#000" stroke-linejoin="round" stroke-miterlimit="10" stroke-width="3.98506" transform="matrix(.1 0 0 -.1 0 497.17)"/><path d="m498.207031 289.515625h.472657v-32.507813h-.472657zm0 0"/><path d="m5490.898438 2076.54375h4.6875v325.117187h-4.6875zm0 0" fill="none" stroke="#000" stroke-linejoin="round" stroke-miterlimit="10" stroke-width="3.98506" transform="matrix(.1 0 0 -.1 0 497.17)"/><path d="m549.089844 289.515625h.46875v-32.507813h-.46875zm0 0"/><use x="520.294" xlink:href="#ab" y="341.489"/><use x="526.927197" xlink:href="#ac" y="341.489"/><use x="540.533094" xlink:href="#G" y="341.489"/><use x="545.976082" xlink:href="#P" y="341.489"/><use x="559.412447" xlink:href="#J" y="341.489"/><use x="536.7506" xlink:href="#y" y="291.6761"/><use x="498.8776" xlink:href="#z" y="257.0058"/><use x="57.7836" xlink:href="#y" y="291.6761"/><use x="42.6035" xlink:href="#ad" y="341.489"/><use x="60.121878" xlink:href="#Y" y="341.489"/><use x="72.367985" xlink:href="#Z" y="341.489"/><path d="m701.210938 2076.54375h4.726562v304.53125h-4.726562zm0 0" fill="none" stroke="#000" stroke-linejoin="round" stroke-miterlimit="10" stroke-width="3.98506" transform="matrix(.1 0 0 -.1 0 497.17)"/><path d="m70.121094 289.515625h.472656v-30.453125h-.472656zm0 0"/><use x="115.137" xlink:href="#y" y="291.676"/><use x="101.9128" xlink:href="#P" y="341.4889"/><use x="115.518673" xlink:href="#H" y="341.4889"/><use x="129.124545" xlink:href="#Y" y="341.4889"/><path d="m1274.765625 2076.54375h4.726563v304.53125h-4.726563zm0 0" fill="none" stroke="#000" stroke-linejoin="round" stroke-miterlimit="10" stroke-width="3.98506" transform="matrix(.1 0 0 -.1 0 497.17)"/><path d="m127.476562 289.515625h.472657v-30.453125h-.472657zm0 0"/><use x="7.96992" xlink:href="#A" y="296.657"/><use x="213.37092" xlink:href="#R" y="341.4886"/><use x="219.833828" xlink:href="#S" y="341.4886"/><use x="326.122635" xlink:href="#ae" y="341.4886"/><use x="339.728507" xlink:href="#E" y="341.4886"/><use x="345.171104" xlink:href="#K" y="341.4886"/><use x="333.22392" xlink:href="#y" y="301.6382"/><path d="m2801.210938 2026.7h4.726562v325.117187h-4.726562zm0 0" fill="none" stroke="#000" stroke-linejoin="round" stroke-miterlimit="10" stroke-width="3.98506" transform="matrix(.1 0 0 -.1 0 497.17)"/><path d="m280.121094 294.5h.472656v-32.511719h-.472656zm0 0"/><use x="268.164" xlink:href="#E" y="341.489"/><use x="273.606597" xlink:href="#R" y="341.489"/><use x="267.782359" xlink:href="#y" y="296.6574"/><use x="229.909359" xlink:href="#z" y="261.9875"/><path d="m2292.382812 2026.7h4.726563v325.117187h-4.726563zm0 0" fill="none" stroke="#000" stroke-linejoin="round" stroke-miterlimit="10" stroke-width="3.98506" transform="matrix(.1 0 0 -.1 0 497.17)"/><path d="m229.238281 294.5h.472657v-32.511719h-.472657zm0 0"/><use x="216.901" xlink:href="#y" y="296.657"/><path d="m1783.59375 2076.54375h4.726562v304.53125h-4.726562zm0 0" fill="none" stroke="#000" stroke-linejoin="round" stroke-miterlimit="10" stroke-width="3.98506" transform="matrix(.1 0 0 -.1 0 497.17)"/><path d="m178.359375 289.515625h.472656v-30.453125h-.472656zm0 0"/><use x="166.02" xlink:href="#y" y="291.676"/><use x="159.17352" xlink:href="#R" y="341.4889"/><use x="165.636416" xlink:href="#S" y="341.4889"/><use x="179.073148" xlink:href="#R" y="341.4889"/><g clip-path="url(#s)"><path d="m3.359375 709.98125h5946.054687" style="fill:none;stroke-width:6.68493;stroke-linecap:round;stroke-linejoin:round;stroke:#000;stroke-miterlimit:10" transform="matrix(.1 0 0 -.1 0 497.17)"/></g><g clip-path="url(#t)"><path d="m3.359375 809.590625h5946.054687" style="fill:none;stroke-width:6.68493;stroke-linecap:round;stroke-linejoin:round;stroke:#000;stroke-miterlimit:10" transform="matrix(.1 0 0 -.1 0 497.17)"/></g><g clip-path="url(#u)"><path d="m3.359375 909.239062h5946.054687" style="fill:none;stroke-width:6.68493;stroke-linecap:round;stroke-linejoin:round;stroke:#000;stroke-miterlimit:10" transform="matrix(.1 0 0 -.1 0 497.17)"/></g><g clip-path="url(#v)"><path d="m3.359375 1008.848437h5946.054687" style="fill:none;stroke-width:6.68493;stroke-linecap:round;stroke-linejoin:round;stroke:#000;stroke-miterlimit:10" transform="matrix(.1 0 0 -.1 0 497.17)"/></g><g clip-path="url(#w)"><path d="m3.359375 1108.496875h5946.054687" style="fill:none;stroke-width:6.68493;stroke-linecap:round;stroke-linejoin:round;stroke:#000;stroke-miterlimit:10" transform="matrix(.1 0 0 -.1 0 497.17)"/></g><g clip-path="url(#x)"><path d="m5932.695312 709.98125v398.515625" fill="none" stroke="#000" stroke-linejoin="round" stroke-miterlimit="10" stroke-width="40.1395" transform="matrix(.1 0 0 -.1 0 497.17)"/></g><g fill="none" stroke="#000" stroke-linejoin="round" stroke-miterlimit="10" transform="matrix(.1 0 0 -.1 0 497.17)"><path d="m5886.210938 709.98125v398.515625" stroke-width="12.7123"/><path d="m3224.726562 709.98125v398.515625" stroke-width="12.7123"/><path d="m3922.929688 781.3875h4.726562v235.78125h-4.726562zm0 0" stroke-width="3.98506"/></g><path d="m392.292969 419.03125h.472656v-23.574219h-.472656zm0 0"/><use x="481.037" xlink:href="#R" y="464.6067"/><use x="487.670197" xlink:href="#E" y="464.6067"/><use x="430.2616" xlink:href="#y" y="426.1715"/><use x="427.24168" xlink:href="#G" y="464.6067"/><use x="432.684277" xlink:href="#S" y="464.6067"/><path d="m4426.015625 731.582812h4.726563v275.390625h-4.726563zm0 0" fill="none" stroke="#000" stroke-linejoin="round" stroke-miterlimit="10" stroke-width="3.98506" transform="matrix(.1 0 0 -.1 0 497.17)"/><path d="m442.601562 424.011719h.46875v-27.539063h-.46875zm0 0"/><use x="480.57" xlink:href="#y" y="431.1532"/><path d="m3419.84375 781.3875h4.726562v245.9375h-4.726562zm0 0" fill="none" stroke="#000" stroke-linejoin="round" stroke-miterlimit="10" stroke-width="3.98506" transform="matrix(.1 0 0 -.1 0 497.17)"/><path d="m341.984375 419.03125h.472656v-24.59375h-.472656zm0 0"/><use x="381.015" xlink:href="#E" y="464.6067"/><use x="386.457597" xlink:href="#G" y="464.6067"/><use x="379.95289" xlink:href="#y" y="421.1903"/><path d="m890.546875 393.067187h60.390625v3.359375h-60.390625zm0 0" fill="none" stroke="#000" stroke-linejoin="round" stroke-miterlimit="10" stroke-width="5.34994" transform="matrix(.1 0 0 -.1 0 497.17)"/><path d="m89.050781 457.863281h6.042969v-.335937h-6.042969zm0 0"/><path d="m1880.46875 393.067187h60.429688v3.359375h-60.429688zm0 0" fill="none" stroke="#000" stroke-linejoin="round" stroke-miterlimit="10" stroke-width="5.34994" transform="matrix(.1 0 0 -.1 0 497.17)"/><path d="m188.046875 457.863281h6.042969v-.335937h-6.042969zm0 0"/><path d="m2457.539062 393.067187h60.390626v3.359375h-60.390626zm0 0" fill="none" stroke="#000" stroke-linejoin="round" stroke-miterlimit="10" stroke-width="5.34994" transform="matrix(.1 0 0 -.1 0 497.17)"/><path d="m245.753906 457.863281h6.039063v-.335937h-6.039063zm0 0"/><path d="m701.210938 1165.645312h1069.453124v43.828125h-1069.453124zm0 0" fill="none" stroke="#000" stroke-linejoin="round" stroke-miterlimit="10" stroke-width="3.98506" transform="matrix(.1 0 0 -.1 0 497.17)"/><path d="m70.121094 380.605469h106.945312v-4.382813h-106.945312zm0 0"/><path d="m3675.546875 393.067187h60.390625v3.359375h-60.390625zm0 0" fill="none" stroke="#000" stroke-linejoin="round" stroke-miterlimit="10" stroke-width="5.34994" transform="matrix(.1 0 0 -.1 0 497.17)"/><path d="m367.554688 457.863281h6.039062v-.335937h-6.039062zm0 0"/><path d="m4065.507812 393.067187h60.429688v3.359375h-60.429688zm0 0" fill="none" stroke="#000" stroke-linejoin="round" stroke-miterlimit="10" stroke-width="5.34994" transform="matrix(.1 0 0 -.1 0 497.17)"/><path d="m406.550781 457.863281h6.039063v-.335937h-6.039063zm0 0"/><path d="m4606.445312 393.067187h60.429688v3.359375h-60.429688zm0 0" fill="none" stroke="#000" stroke-linejoin="round" stroke-miterlimit="10" stroke-width="5.34994" transform="matrix(.1 0 0 -.1 0 497.17)"/><path d="m460.644531 457.863281h6.039063v-.335937h-6.039063zm0 0"/><path d="m3419.84375 1051.348437v-43.828125l1010.859375-20.585937v43.828125zm0 0" fill="none" stroke="#000" stroke-linejoin="round" stroke-miterlimit="10" stroke-width="3.98506" transform="matrix(.1 0 0 -.1 0 497.17)"/><path d="m341.984375 392.035156v4.382813l101.085937 2.058593v-4.382812zm0 0"/><path d="m4929.101562 681.739062h4.726563v325.117188h-4.726563zm0 0" fill="none" stroke="#000" stroke-linejoin="round" stroke-miterlimit="10" stroke-width="3.98506" transform="matrix(.1 0 0 -.1 0 497.17)"/><path d="m492.910156 428.996094h.46875v-32.511719h-.46875zm0 0"/><path d="m5432.1875 681.739062h4.6875v325.117188h-4.6875zm0 0" fill="none" stroke="#000" stroke-linejoin="round" stroke-miterlimit="10" stroke-width="3.98506" transform="matrix(.1 0 0 -.1 0 497.17)"/><path d="m543.21875 428.996094h.46875v-32.511719h-.46875zm0 0"/><use x="521.141" xlink:href="#af" y="464.6067"/><use x="540.360148" xlink:href="#R" y="464.6067"/><use x="546.822643" xlink:href="#ag" y="464.6067"/><use x="530.8785" xlink:href="#y" y="431.1532"/><use x="493.5797" xlink:href="#z" y="396.4829"/><path d="m1262.851562 880.996875h4.726563v304.570312h-4.726563zm0 0" fill="none" stroke="#000" stroke-linejoin="round" stroke-miterlimit="10" stroke-width="3.98506" transform="matrix(.1 0 0 -.1 0 497.17)"/><path d="m126.285156 409.070312h.472656v-30.453124h-.472656zm0 0"/><use x="100.043" xlink:href="#P" y="464.6067"/><use x="113.648873" xlink:href="#S" y="464.6067"/><use x="127.254745" xlink:href="#M" y="464.6067"/><use x="113.9469" xlink:href="#y" y="411.2278"/><path d="m701.210938 880.996875h4.726562v304.570312h-4.726562zm0 0" fill="none" stroke="#000" stroke-linejoin="round" stroke-miterlimit="10" stroke-width="3.98506" transform="matrix(.1 0 0 -.1 0 497.17)"/><path d="m70.121094 409.070312h.472656v-30.453124h-.472656zm0 0"/><use x="44.4742" xlink:href="#ah" y="464.6067"/><use x="65.05391" xlink:href="#E" y="464.6067"/><use x="70.496494" xlink:href="#M" y="464.6067"/><use x="57.7832" xlink:href="#y" y="411.2278"/><use x="7.9699" xlink:href="#A" y="416.20905"/><use x="201.8499" xlink:href="#ai" y="464.60675"/><use x="214.43585" xlink:href="#Y" y="464.60675"/><use x="226.681956" xlink:href="#Q" y="464.60675"/><use x="312.168319" xlink:href="#aj" y="464.60675"/><use x="332.748023" xlink:href="#S" y="464.60675"/><use x="346.524598" xlink:href="#I" y="464.60675"/><use x="329.6449" xlink:href="#y" y="421.19035"/><path d="m2772.109375 831.192187h4.726563v325.117188h-4.726563zm0 0" fill="none" stroke="#000" stroke-linejoin="round" stroke-miterlimit="10" stroke-width="3.98506" transform="matrix(.1 0 0 -.1 0 497.17)"/><path d="m277.210938 414.050781h.472656v-32.511719h-.472656zm0 0"/><use x="257.26" xlink:href="#K" y="464.6067"/><use x="265.254144" xlink:href="#S" y="464.6067"/><use x="278.690876" xlink:href="#R" y="464.6067"/><use x="264.8725" xlink:href="#y" y="416.209"/><use x="227.5733" xlink:href="#z" y="381.5391"/><path d="m2269.023438 831.192187h4.726562v325.117188h-4.726562zm0 0" fill="none" stroke="#000" stroke-linejoin="round" stroke-miterlimit="10" stroke-width="3.98506" transform="matrix(.1 0 0 -.1 0 497.17)"/><path d="m226.902344 414.050781h.472656v-32.511719h-.472656zm0 0"/><use x="214.564" xlink:href="#y" y="416.2091"/><path d="m1765.9375 880.996875h4.726562v304.570312h-4.726562zm0 0" fill="none" stroke="#000" stroke-linejoin="round" stroke-miterlimit="10" stroke-width="3.98506" transform="matrix(.1 0 0 -.1 0 497.17)"/><path d="m176.59375 409.070312h.472656v-30.453124h-.472656zm0 0"/><use x="164.256" xlink:href="#y" y="411.2278"/><use x="161.23647" xlink:href="#P" y="464.6067"/><use x="174.842343" xlink:href="#E" y="464.6067"/></svg>