<svg height="420.91em" viewBox="0 0 595.28 420.91" width="595.28em" xmlns="http://www.w3.org/2000/svg" xmlns:xlink="http://www.w3.org/1999/xlink"><clipPath id="a"><path d="m0 57h595.28125v1h-595.28125zm0 0"/></clipPath><clipPath id="b"><path d="m0 48h595.28125v2h-595.28125zm0 0"/></clipPath><clipPath id="c"><path d="m0 40h595.28125v1h-595.28125zm0 0"/></clipPath><clipPath id="d"><path d="m0 31h595.28125v2h-595.28125zm0 0"/></clipPath><clipPath id="e"><path d="m0 23h595.28125v1h-595.28125zm0 0"/></clipPath><clipPath id="f"><path d="m594 22h1.28125v37h-1.28125zm0 0"/></clipPath><clipPath id="g"><path d="m0 158h595.28125v2h-595.28125zm0 0"/></clipPath><clipPath id="h"><path d="m0 150h595.28125v1h-595.28125zm0 0"/></clipPath><clipPath id="i"><path d="m0 141h595.28125v2h-595.28125zm0 0"/></clipPath><clipPath id="j"><path d="m0 133h595.28125v1h-595.28125zm0 0"/></clipPath><clipPath id="k"><path d="m0 124h595.28125v2h-595.28125zm0 0"/></clipPath><clipPath id="l"><path d="m594 124h1.28125v36h-1.28125zm0 0"/></clipPath><clipPath id="m"><path d="m0 260h595.28125v1h-595.28125zm0 0"/></clipPath><clipPath id="n"><path d="m0 251h595.28125v2h-595.28125zm0 0"/></clipPath><clipPath id="o"><path d="m0 243h595.28125v2h-595.28125zm0 0"/></clipPath><clipPath id="p"><path d="m0 234h595.28125v2h-595.28125zm0 0"/></clipPath><clipPath id="q"><path d="m0 226h595.28125v2h-595.28125zm0 0"/></clipPath><clipPath id="r"><path d="m594 226h1.28125v36h-1.28125zm0 0"/></clipPath><clipPath id="s"><path d="m0 361h595.28125v2h-595.28125zm0 0"/></clipPath><clipPath id="t"><path d="m0 353h595.28125v2h-595.28125zm0 0"/></clipPath><clipPath id="u"><path d="m0 345h595.28125v1h-595.28125zm0 0"/></clipPath><clipPath id="v"><path d="m0 336h595.28125v2h-595.28125zm0 0"/></clipPath><clipPath id="w"><path d="m0 328h595.28125v1h-595.28125zm0 0"/></clipPath><clipPath id="x"><path d="m591 326h4.28125v39h-4.28125zm0 0"/></clipPath><symbol id="y" overflow="visible"><path d="m4.0625-15.234375h-1.96875v15.234375h1.96875zm0 0"/></symbol><symbol id="z" overflow="visible"><path d="m9.15625-7.90625c-.015625-2.15625-1.4375-3.359375-3.96875-3.359375-2.546875 0-4.203125 1.3125-4.203125 3.34375 0 1.71875.875 2.53125 3.46875 3.15625l1.625.390625c1.21875.296875 1.703125.734375 1.703125 1.515625 0 1.046875-1.03125 1.734375-2.5625 1.734375-.9375 0-1.734375-.28125-2.171875-.734375-.265625-.3125-.390625-.625-.5-1.40625h-1.84375c.09375 2.53125 1.515625 3.75 4.375 3.75 2.765625 0 4.515625-1.359375 4.515625-3.46875 0-1.640625-.921875-2.53125-3.09375-3.0625l-1.671875-.390625c-1.421875-.34375-2.03125-.796875-2.03125-1.5625 0-1.03125.90625-1.65625 2.328125-1.65625 1.390625 0 2.15625.609375 2.1875 1.75zm0 0"/></symbol><symbol id="A" overflow="visible"><path d="m5.3125-10.953125h-1.796875v-3.015625h-1.734375v3.015625h-1.484375v1.421875h1.484375v8.28125c0 1.125.75 1.734375 2.109375 1.734375.453125 0 .828125-.046875 1.421875-.15625v-1.453125c-.25.0625-.484375.078125-.84375.078125-.75 0-.953125-.203125-.953125-.984375v-7.5h1.796875zm0 0"/></symbol><symbol id="B" overflow="visible"><path d="m8.109375-10.953125-3.03125 8.53125-2.796875-8.53125h-1.859375l3.703125 11-.671875 1.734375c-.296875.765625-.671875 1.0625-1.40625 1.0625-.296875 0-.546875-.046875-.921875-.125v1.5625c.359375.1875.71875.28125 1.171875.28125.5625 0 1.171875-.1875 1.640625-.53125.53125-.390625.84375-.859375 1.1875-1.734375l4.875-13.25zm0 0"/></symbol><symbol id="C" overflow="visible"><path d="m11.1875-1.03125c-.1875.046875-.28125.046875-.375.046875-.609375 0-.9375-.3125-.9375-.859375v-6.4375c0-1.9375-1.421875-2.984375-4.125-2.984375-1.609375 0-2.890625.453125-3.640625 1.265625-.5.578125-.703125 1.203125-.75 2.28125h1.75c.15625-1.328125.953125-1.9375 2.578125-1.9375 1.59375 0 2.4375.578125 2.4375 1.625v.46875c-.015625.75-.390625 1.015625-1.8125 1.203125-2.46875.3125-2.84375.40625-3.515625.671875-1.265625.546875-1.921875 1.5-1.921875 2.921875 0 1.984375 1.390625 3.25 3.59375 3.25 1.390625 0 2.5-.484375 3.71875-1.609375.140625 1.125.671875 1.609375 1.8125 1.609375.375 0 .59375-.046875 1.1875-.1875zm-3.0625-2.421875c0 .59375-.15625.9375-.6875 1.421875-.703125.65625-1.5625.984375-2.59375.984375-1.359375 0-2.140625-.640625-2.140625-1.75 0-1.15625.75-1.734375 2.625-2.015625 1.859375-.25 2.21875-.328125 2.796875-.609375zm0 0"/></symbol><symbol id="D" overflow="visible"><path d="m9.90625-4.578125 1.578125 4.578125h2.171875l-5.359375-15.234375h-2.5l-5.4375 15.234375h2.0625l1.609375-4.578125zm-.546875-1.625h-4.84375l2.515625-6.953125zm0 0"/></symbol><symbol id="E" overflow="visible"><path d="m10.71875-4.890625c0-1.671875-.125-2.671875-.4375-3.5-.703125-1.796875-2.375-2.875-4.421875-2.875-3.0625 0-5.015625 2.3125-5.015625 5.9375 0 3.609375 1.875 5.8125 4.96875 5.8125 2.515625 0 4.25-1.421875 4.6875-3.8125h-1.765625c-.46875 1.453125-1.453125 2.203125-2.859375 2.203125-1.109375 0-2.046875-.5-2.640625-1.421875-.40625-.625-.5625-1.265625-.578125-2.34375zm-8.015625-1.421875c.140625-2.03125 1.375-3.34375 3.125-3.34375 1.78125 0 3.015625 1.375 3.015625 3.34375zm0 0"/></symbol><symbol id="F" overflow="visible"><path d="m1.46875-10.953125v10.953125h1.75v-6.046875c0-2.234375 1.171875-3.703125 2.96875-3.703125 1.375 0 2.265625.84375 2.265625 2.15625v7.59375h1.734375v-8.28125c0-1.8125-1.359375-2.984375-3.484375-2.984375-1.625 0-2.671875.625-3.625 2.15625v-1.84375zm0 0"/></symbol><symbol id="G" overflow="visible"><path d="m2.953125-15.234375h-1.734375v15.234375h1.734375v-4.265625l1.6875-1.671875 3.703125 5.9375h2.15625l-4.484375-7.171875 3.8125-3.78125h-2.234375l-4.640625 4.640625zm0 0"/></symbol><symbol id="H" overflow="visible"><path d="m1.8125-2.171875v2.171875h1.265625v.375c0 1.4375-.28125 1.859375-1.265625 1.90625v.796875c1.390625.03125 2.203125-.96875 2.203125-2.75v-2.5zm0 0"/></symbol><symbol id="I" overflow="visible"><path d="m1.46875-15.234375v15.234375h1.734375v-6.046875c0-2.234375 1.171875-3.703125 2.96875-3.703125.578125 0 1.125.171875 1.546875.484375.5.375.703125.90625.703125 1.671875v7.59375h1.734375v-8.28125c0-1.84375-1.3125-2.984375-3.453125-2.984375-1.546875 0-2.484375.484375-3.5 1.8125v-5.78125zm0 0"/></symbol><symbol id="J" overflow="visible"><path d="m11.1875-1.03125c-.1875.046875-.28125.046875-.375.046875-.609375 0-.9375-.3125-.9375-.859375v-6.4375c0-1.9375-1.421875-2.984375-4.125-2.984375-1.609375 0-2.890625.453125-3.640625 1.265625-.5.578125-.703125 1.203125-.75 2.28125h1.75c.15625-1.328125.953125-1.9375 2.578125-1.9375 1.59375 0 2.4375.578125 2.4375 1.625v.46875c-.015625.75-.390625 1.015625-1.8125 1.203125-2.46875.3125-2.84375.40625-3.515625.671875-1.265625.546875-1.921875 1.5-1.921875 2.921875 0 1.984375 1.390625 3.25 3.59375 3.25 1.390625 0 2.5-.484375 3.71875-1.609375.140625 1.125.671875 1.609375 1.8125 1.609375.375 0 .59375-.046875 1.1875-.1875zm-3.0625-2.421875c0 .59375-.15625.9375-.6875 1.421875-.703125.65625-1.5625.984375-2.59375.984375-1.359375 0-2.140625-.640625-2.140625-1.75 0-1.15625.75-1.734375 2.625-2.015625 1.859375-.25 2.21875-.328125 2.796875-.609375zm-1.765625-12.015625-2.03125 3.09375h1.25l3.125-3.09375zm0 0"/></symbol><symbol id="K" overflow="visible"><path d="m13.5-15.234375h-1.828125v12.453125l-7.96875-12.453125h-2.109375v15.234375h1.828125v-12.359375l7.890625 12.359375h2.1875zm0 0"/></symbol><symbol id="L" overflow="visible"><path d="m8.453125-10.953125v1.59375c-.890625-1.328125-1.84375-1.90625-3.234375-1.90625-2.640625 0-4.484375 2.46875-4.484375 5.96875 0 1.84375.4375 3.1875 1.375 4.296875.8125.953125 1.859375 1.484375 2.984375 1.484375 1.328125 0 2.265625-.59375 3.1875-1.96875v.5625c0 2.921875-.8125 4.015625-2.984375 4.015625-1.484375 0-2.265625-.578125-2.4375-1.84375h-1.765625c.15625 2.03125 1.765625 3.3125 4.15625 3.3125 1.609375 0 2.9375-.53125 3.65625-1.40625.84375-1.03125 1.15625-2.375 1.15625-4.953125v-9.15625zm-3.0625 1.296875c1.84375 0 2.890625 1.546875 2.890625 4.328125 0 2.65625-1.0625 4.203125-2.890625 4.203125-1.796875 0-2.84375-1.578125-2.84375-4.265625 0-2.671875 1.046875-4.265625 2.84375-4.265625zm0 0"/></symbol><symbol id="M" overflow="visible"><path d="m1.46875-10.953125v12.546875c0 1.078125-.34375 1.4375-1.421875 1.4375-.125 0-.1875 0-.421875-.015625v1.484375c.203125.03125.3125.0625.578125.0625 1.96875 0 3-.78125 3-2.28125v-13.234375zm1.734375-4.28125h-1.734375v2.1875h1.734375zm0 0"/></symbol><symbol id="N" overflow="visible"><path d="m10.078125 0v-10.953125h-1.734375v6.203125c0 2.234375-1.171875 3.703125-2.984375 3.703125-1.390625 0-2.265625-.828125-2.265625-2.15625v-7.75h-1.734375v8.4375c0 1.828125 1.359375 3 3.484375 3 1.609375 0 2.640625-.5625 3.671875-2.015625v1.53125zm0 0"/></symbol><symbol id="O" overflow="visible"><path d="m9.265625-10.953125h-8.171875v1.53125h6.09375l-6.546875 7.859375v1.5625h8.90625v-1.53125h-6.78125l6.5-7.875zm0 0"/></symbol><symbol id="P" overflow="visible"><path d="m10.34375-15.234375h-1.734375v5.65625c-.734375-1.109375-1.90625-1.6875-3.359375-1.6875-2.84375 0-4.703125 2.28125-4.703125 5.765625 0 3.703125 1.796875 5.984375 4.765625 5.984375 1.5 0 2.546875-.5625 3.484375-1.921875v1.4375h1.546875zm-4.796875 5.59375c1.875 0 3.0625 1.65625 3.0625 4.28125 0 2.53125-1.203125 4.203125-3.046875 4.203125-1.921875 0-3.203125-1.6875-3.203125-4.234375s1.28125-4.25 3.1875-4.25zm0 0"/></symbol><symbol id="Q" overflow="visible"><path d="m3.171875-15.234375h-1.75v15.234375h1.75zm0 0"/></symbol><symbol id="R" overflow="visible"><path d="m1.4375-10.953125v10.953125h1.765625v-5.6875c.015625-2.640625 1.109375-3.796875 3.5-3.734375v-1.78125c-.28125-.046875-.453125-.0625-.65625-.0625-1.140625 0-1.984375.671875-3 2.296875v-1.984375zm0 0"/></symbol><symbol id="S" overflow="visible"><path d="m1.46875-10.953125v10.953125h1.75v-6.875c0-1.59375 1.15625-2.875 2.578125-2.875 1.296875 0 2.015625.796875 2.015625 2.203125v7.546875h1.765625v-6.875c0-1.59375 1.140625-2.875 2.5625-2.875 1.28125 0 2.03125.828125 2.03125 2.203125v7.546875h1.765625v-8.21875c0-1.96875-1.140625-3.046875-3.1875-3.046875-1.453125 0-2.34375.4375-3.359375 1.671875-.65625-1.171875-1.53125-1.671875-2.953125-1.671875-1.46875 0-2.4375.546875-3.359375 1.859375v-1.546875zm0 0"/></symbol><symbol id="T" overflow="visible"><path d="m5.6875-11.265625c-3.09375 0-4.9375 2.1875-4.9375 5.875 0 3.703125 1.84375 5.875 4.953125 5.875 3.09375 0 4.953125-2.203125 4.953125-5.796875 0-3.796875-1.796875-5.953125-4.96875-5.953125zm.015625 1.609375c1.96875 0 3.140625 1.609375 3.140625 4.328125 0 2.59375-1.21875 4.203125-3.140625 4.203125-1.9375 0-3.125-1.609375-3.125-4.265625s1.1875-4.265625 3.125-4.265625zm-.6875-5.8125-2.03125 3.140625h1.265625l3.109375-3.140625zm3.640625 0-2.03125 3.140625h1.25l3.125-3.140625zm0 0"/></symbol><symbol id="U" overflow="visible"><path d="m10.71875-4.890625c0-1.671875-.125-2.671875-.4375-3.5-.703125-1.796875-2.375-2.875-4.421875-2.875-3.0625 0-5.015625 2.3125-5.015625 5.9375 0 3.609375 1.875 5.8125 4.96875 5.8125 2.515625 0 4.25-1.421875 4.6875-3.8125h-1.765625c-.46875 1.453125-1.453125 2.203125-2.859375 2.203125-1.109375 0-2.046875-.5-2.640625-1.421875-.40625-.625-.5625-1.265625-.578125-2.34375zm-8.015625-1.421875c.140625-2.03125 1.375-3.34375 3.125-3.34375 1.78125 0 3.015625 1.375 3.015625 3.34375zm3.734375-9.15625-2 3.09375h1.25l3.109375-3.09375zm0 0"/></symbol><symbol id="V" overflow="visible"><path d="m9.78125 0 4.28125-12.78125v12.78125h1.84375v-15.234375h-2.6875l-4.4375 13.265625-4.515625-13.265625h-2.703125v15.234375h1.84375v-12.78125l4.328125 12.78125zm0 0"/></symbol><symbol id="W" overflow="visible"><path d="m5.390625-10.953125h-1.8125v-1.71875c0-.734375.390625-1.109375 1.203125-1.109375.15625 0 .21875 0 .609375.03125v-1.453125c-.390625-.078125-.625-.09375-.984375-.09375-1.609375 0-2.5625.90625-2.5625 2.484375v1.859375h-1.46875v1.421875h1.46875v9.53125h1.734375v-9.53125h1.8125zm0 0"/></symbol><symbol id="X" overflow="visible"><path d="m5.6875-11.265625c-3.09375 0-4.9375 2.1875-4.9375 5.875 0 3.703125 1.84375 5.875 4.953125 5.875 3.09375 0 4.953125-2.203125 4.953125-5.796875 0-3.796875-1.796875-5.953125-4.96875-5.953125zm.015625 1.609375c1.96875 0 3.140625 1.609375 3.140625 4.328125 0 2.59375-1.21875 4.203125-3.140625 4.203125-1.9375 0-3.125-1.609375-3.125-4.265625s1.1875-4.265625 3.125-4.265625zm-.609375-5.296875h-2.171875v2.15625h2.171875zm3.390625 0h-2.171875v2.15625h2.171875zm0 0"/></symbol><symbol id="Y" overflow="visible"><path d="m8.125-15.484375c-4.359375 0-7.328125 3.21875-7.328125 7.984375 0 4.78125 2.953125 7.984375 7.359375 7.984375 1.859375 0 3.484375-.5625 4.71875-1.609375 1.65625-1.40625 2.640625-3.765625 2.640625-6.25 0-4.921875-2.90625-8.109375-7.390625-8.109375zm0 1.703125c3.3125 0 5.4375 2.484375 5.4375 6.359375 0 3.671875-2.1875 6.1875-5.40625 6.1875-3.265625 0-5.421875-2.515625-5.421875-6.265625 0-3.765625 2.15625-6.28125 5.390625-6.28125zm0 0"/></symbol><symbol id="Z" overflow="visible"><path d="m5.6875-11.265625c-3.09375 0-4.9375 2.1875-4.9375 5.875 0 3.703125 1.84375 5.875 4.953125 5.875 3.09375 0 4.953125-2.203125 4.953125-5.796875 0-3.796875-1.796875-5.953125-4.96875-5.953125zm.015625 1.609375c1.96875 0 3.140625 1.609375 3.140625 4.328125 0 2.59375-1.21875 4.203125-3.140625 4.203125-1.9375 0-3.125-1.609375-3.125-4.265625s1.1875-4.265625 3.125-4.265625zm.53125-5.8125-2.015625 3.09375h1.265625l3.109375-3.09375zm0 0"/></symbol><symbol id="aa" overflow="visible"><path d="m4-2.171875h-2.1875v2.171875h2.1875zm0 0"/></symbol><symbol id="ab" overflow="visible"><path d="m5.953125 0 4.203125-10.953125h-1.96875l-3.09375 8.890625-2.921875-8.890625h-1.96875l3.859375 10.953125zm0 0"/></symbol><symbol id="ac" overflow="visible"><path d="m3.140625-10.953125h-1.734375v10.953125h1.734375zm0-4.28125h-1.765625v2.1875h1.765625zm0 0"/></symbol><symbol id="ad" overflow="visible"><path d="m14.828125-8.046875h-6.359375v1.71875h4.640625v.40625c0 2.71875-2.015625 4.6875-4.78125 4.6875-1.546875 0-2.953125-.5625-3.859375-1.546875-1-1.09375-1.609375-2.90625-1.609375-4.78125 0-3.75 2.140625-6.21875 5.359375-6.21875 2.3125 0 3.984375 1.203125 4.40625 3.15625h1.984375c-.546875-3.09375-2.875-4.859375-6.375-4.859375-1.859375 0-3.359375.46875-4.5625 1.453125-1.765625 1.46875-2.75 3.828125-2.75 6.5625 0 4.6875 2.859375 7.953125 6.984375 7.953125 2.0625 0 3.703125-.78125 5.203125-2.421875l.484375 2.015625h1.234375zm0 0"/></symbol><symbol id="ae" overflow="visible"><path d="m5.6875-11.265625c-3.09375 0-4.9375 2.1875-4.9375 5.875 0 3.703125 1.84375 5.875 4.953125 5.875 3.09375 0 4.953125-2.203125 4.953125-5.796875 0-3.796875-1.796875-5.953125-4.96875-5.953125zm.015625 1.609375c1.96875 0 3.140625 1.609375 3.140625 4.328125 0 2.59375-1.21875 4.203125-3.140625 4.203125-1.9375 0-3.125-1.609375-3.125-4.265625s1.1875-4.265625 3.125-4.265625zm0 0"/></symbol><symbol id="af" overflow="visible"><path d="m7.515625-4.578125c-1.421875 0-2.765625.484375-4 1.21875-1.578125.953125-3.515625 2.609375-3.515625 5.015625 0 2 1.765625 2.921875 3.5625 2.921875 1.421875 0 2.765625-.484375 3.984375-1.21875 1.59375-.953125 3.5-2.609375 3.5-5.015625 0-2-1.734375-2.921875-3.53125-2.921875zm0 0"/></symbol><symbol id="ag" overflow="visible"><path d="m12.671875-8.8125c-.546875-2.359375-1.1875-4.703125-1.859375-7.046875 3.25-3.6875 6.1875-7.484375 6.1875-12.359375 0-3.828125-2.09375-9.3125-4.46875-12.15625-.171875-.140625-.375-.140625-.546875 0-3.203125 2.328125-5.078125 6.0625-5.078125 9.984375 0 1.765625.03125 3.5.234375 5.21875.25 2.203125.8125 4.34375 1.4375 6.46875-4 4.546875-8.515625 8.875-8.515625 14.90625 0 6.8125 4.921875 12.609375 11.28125 12.609375 1.046875 0 2.03125-.109375 3.015625-.28125.109375 1.09375.171875 2.171875.171875 3.25 0 .609375-.03125 1.1875-.0625 1.796875-.203125 3.359375-2.28125 6.4375-5.421875 6.515625-.03125 0-.0625.03125-.109375.03125-1.71875 0-3.21875-.984375-4.09375-2.375.375.171875.78125.3125 1.1875.3125 1.765625 0 3.21875-1.46875 3.21875-3.21875 0-1.90625-1.390625-3.53125-3.21875-3.53125-2 0-3.796875 1.5625-3.796875 3.53125 0 3.65625 2.953125 6.59375 6.609375 6.59375 4 0 6.734375-3.578125 6.96875-7.65625.046875-.640625.046875-1.25.046875-1.890625 0-1.21875-.078125-2.4375-.171875-3.65625.875-.28125 1.71875-.6875 2.46875-1.25 2.5-1.875 3.625-4.484375 3.625-7.046875 0-4.484375-3.390625-8.78125-8.609375-8.78125-.15625 0-.328125.03125-.5.03125zm2.875 15.75c-.46875-4.1875-1.25-8.1875-2.09375-12.15625 3.71875.3125 6.0625 3.421875 6.0625 6.546875 0 2.359375-1.625 4.796875-3.96875 5.609375zm-13.140625-7.984375c0-5.421875 3.65625-9.515625 7.3125-13.625.546875 2 1.09375 4 1.5625 6.03125-3.421875.78125-5.359375 3.65625-5.359375 6.640625 0 2.375 1.21875 4.78125 3.9375 6.234375.09375.03125.203125.0625.296875.0625.375 0 .6875-.328125.6875-.703125 0-.171875-.109375-.34375-.234375-.484375-1.90625-1.078125-2.78125-2.703125-2.78125-4.1875 0-2 1.5625-3.796875 4.234375-4.109375.875 4.0625 1.65625 8.09375 2.171875 12.4375-.921875.140625-1.84375.203125-2.78125.203125-4.609375 0-9.046875-3.890625-9.046875-8.5zm11.515625-34.515625c.578125 1.796875.71875 2.671875.71875 4.640625 0 4.296875-2.28125 7.71875-5.046875 11-.609375-2.125-1.125-4.203125-1.125-6.765625 0-3.765625 2.09375-7.1875 5.453125-8.875zm0 0"/></symbol><symbol id="ah" overflow="visible"><path d="m.84375-1.484375c.03125-1.125.78125-2.109375 1.828125-2.109375 1.015625 0 1.5 1.1875 1.5 2.34375 0 2-1.703125 3.421875-3.25 4.703125-.078125-.75-.140625-1.484375-.140625-2.234375 0-.140625.03125-.234375.03125-.375zm-1.6875-14.203125.375 20.296875c0 .40625.296875.703125.703125.703125.609375 0 .890625-.703125 1.359375-1.078125 2.125-1.734375 5.1875-2.953125 5.1875-5.71875 0-1.828125-1.359375-3.390625-3.15625-3.390625-1.078125 0-2.09375.375-2.984375 1.015625l.203125-11.828125c-.265625-.125-.53125-.234375-.84375-.234375s-.578125.109375-.84375.234375zm0 0"/></symbol><symbol id="ai" overflow="visible"><path d="m-2.140625-1.59375c0 1.1875.953125 2.140625 2.140625 2.140625s2.140625-.953125 2.140625-2.140625-.953125-2.125-2.140625-2.125-2.140625.9375-2.140625 2.125zm2.140625-10.59375c-5.25 0-11.140625 5.859375-11.140625 12.25 0 .28125.265625.484375.53125.484375.25 0 .515625-.171875.578125-.546875.890625-5.046875 4.984375-8.984375 10.03125-8.984375s9.140625 3.9375 10.03125 8.984375c.0625.375.328125.546875.578125.546875.265625 0 .53125-.203125.53125-.484375 0-6.390625-5.859375-12.25-11.140625-12.25zm0 0"/></symbol><symbol id="aj" overflow="visible"><path d="m4.4375-9.109375v9.109375h2.609375v-13.203125h-1.734375c-.421875 1.5625-1.78125 2.359375-4.046875 2.359375v1.734375zm0 0"/></symbol><symbol id="ak" overflow="visible"><path d="m3.984375-2.71875h-2.796875v2.71875h2.796875zm0 0"/></symbol><path d="m5420.46875 3550.154687h151.210938" fill="none" stroke="#000" stroke-linecap="round" stroke-miterlimit="10" stroke-width="14.6416" transform="matrix(.1 0 0 -.1 0 420.91)"/><path d="m708.59375 3550.154687h151.210938" fill="none" stroke="#000" stroke-linecap="round" stroke-miterlimit="10" stroke-width="14.6416" transform="matrix(.1 0 0 -.1 0 420.91)"/><g clip-path="url(#a)"><path d="m3.085938 3634.842187h5946.601562" fill="none" stroke="#000" stroke-linecap="round" stroke-miterlimit="10" stroke-width="6.17335" transform="matrix(.1 0 0 -.1 0 420.91)"/></g><g clip-path="url(#b)"><path d="m3.085938 3719.529687h5946.601562" fill="none" stroke="#000" stroke-linecap="round" stroke-miterlimit="10" stroke-width="6.17335" transform="matrix(.1 0 0 -.1 0 420.91)"/></g><g clip-path="url(#c)"><path d="m3.085938 3804.217187h5946.601562" fill="none" stroke="#000" stroke-linecap="round" stroke-miterlimit="10" stroke-width="6.17335" transform="matrix(.1 0 0 -.1 0 420.91)"/></g><g clip-path="url(#d)"><path d="m3.085938 3888.904687h5946.601562" fill="none" stroke="#000" stroke-linecap="round" stroke-miterlimit="10" stroke-width="6.17335" transform="matrix(.1 0 0 -.1 0 420.91)"/></g><g clip-path="url(#e)"><path d="m3.085938 3973.592187h5946.601562" fill="none" stroke="#000" stroke-linecap="round" stroke-miterlimit="10" stroke-width="6.17335" transform="matrix(.1 0 0 -.1 0 420.91)"/></g><path d="m3094.453125 3950.154687h7.773437v24.53125h-7.773437zm0 0" style="fill:none;stroke-width:3.98854;stroke-linecap:round;stroke-linejoin:round;stroke:#000;stroke-miterlimit:10" transform="matrix(.1 0 0 -.1 0 420.91)"/><path d="m309.445312 25.894531h.773438v-2.453125h-.773438zm0 0"/><path d="m3094.453125 3865.467187h7.773437v46.835938h-7.773437zm0 0" style="fill:none;stroke-width:3.98854;stroke-linecap:round;stroke-linejoin:round;stroke:#000;stroke-miterlimit:10" transform="matrix(.1 0 0 -.1 0 420.91)"/><path d="m309.445312 34.363281h.773438v-4.683593h-.773438zm0 0"/><path d="m3094.453125 3780.81875h7.773437v46.796875h-7.773437zm0 0" style="fill:none;stroke-width:3.98854;stroke-linecap:round;stroke-linejoin:round;stroke:#000;stroke-miterlimit:10" transform="matrix(.1 0 0 -.1 0 420.91)"/><path d="m309.445312 42.828125h.773438v-4.679687h-.773438zm0 0"/><path d="m3094.453125 3696.13125h7.773437v46.796875h-7.773437zm0 0" style="fill:none;stroke-width:3.98854;stroke-linecap:round;stroke-linejoin:round;stroke:#000;stroke-miterlimit:10" transform="matrix(.1 0 0 -.1 0 420.91)"/><path d="m309.445312 51.296875h.773438v-4.679687h-.773438zm0 0"/><path d="m3094.453125 3633.748437h7.773437v24.53125h-7.773437zm0 0" style="fill:none;stroke-width:3.98854;stroke-linecap:round;stroke-linejoin:round;stroke:#000;stroke-miterlimit:10" transform="matrix(.1 0 0 -.1 0 420.91)"/><path d="m309.445312 57.535156h.773438v-2.453125h-.773438zm0 0"/><g clip-path="url(#f)"><path d="m5946.875 3634.842187v338.75" fill="none" stroke="#000" stroke-linejoin="round" stroke-miterlimit="10" stroke-width="11.737" transform="matrix(.1 0 0 -.1 0 420.91)"/></g><use x="448.664" xlink:href="#y" y="89.937"/><use x="454.447177" xlink:href="#z" y="89.937"/><use x="406.8624" xlink:href="#af" y="53.1905"/><use x="398.53037" xlink:href="#A" y="89.937"/><use x="404.653025" xlink:href="#B" y="89.937"/><use x="414.687807" xlink:href="#C" y="89.937"/><path d="m4173.164062 3695.857812h4.023438v258.515625h-4.023438zm0 0" fill="none" stroke="#000" stroke-linejoin="round" stroke-miterlimit="10" stroke-width="3.98854" transform="matrix(.1 0 0 -.1 0 420.91)"/><path d="m417.316406 51.324219h.402344v-25.851563h-.402344zm0 0"/><use x="451.214" xlink:href="#af" y="57.425"/><path d="m4616.679688 3653.514062h4.0625v300.859375h-4.0625zm0 0" fill="none" stroke="#000" stroke-linejoin="round" stroke-miterlimit="10" stroke-width="3.98854" transform="matrix(.1 0 0 -.1 0 420.91)"/><path d="m461.667969 55.558594h.402343v-30.085938h-.402343zm0 0"/><use x="495.564" xlink:href="#af" y="61.659"/><use x="362.511" xlink:href="#af" y="48.9567"/><use x="361.06608" xlink:href="#D" y="89.9372"/><path d="m3729.648438 3738.201562h4.0625v216.171875h-4.0625zm0 0" fill="none" stroke="#000" stroke-linejoin="round" stroke-miterlimit="10" stroke-width="3.98854" transform="matrix(.1 0 0 -.1 0 420.91)"/><path d="m372.964844 47.089844h.40625v-21.617188h-.40625zm0 0"/><path d="m5060.195312 3611.170312h4.023438v275.742188h-4.023438zm0 0" fill="none" stroke="#000" stroke-linejoin="round" stroke-miterlimit="10" stroke-width="3.98854" transform="matrix(.1 0 0 -.1 0 420.91)"/><path d="m506.019531 59.792969h.402344v-27.574219h-.402344zm0 0"/><path d="m3842.265625 3367.264062h50.9375v3.085938h-50.9375zm0 0" fill="none" stroke="#000" stroke-linejoin="round" stroke-miterlimit="10" stroke-width="4.94546" transform="matrix(.1 0 0 -.1 0 420.91)"/><path d="m384.222656 84.183594h5.09375v-.308594h-5.09375zm0 0"/><path d="m3264.960938 3938.00625h1355.742187v36.679687h-1355.742187zm0 0" fill="none" stroke="#000" stroke-linejoin="round" stroke-miterlimit="10" stroke-width="3.98854" transform="matrix(.1 0 0 -.1 0 420.91)"/><path d="m326.496094 27.109375h135.574218v-3.667969h-135.574218zm0 0"/><path d="m5201.25 3367.264062h50.9375v3.085938h-50.9375zm0 0" fill="none" stroke="#000" stroke-linejoin="round" stroke-miterlimit="10" stroke-width="4.94546" transform="matrix(.1 0 0 -.1 0 420.91)"/><path d="m520.125 84.183594h5.09375v-.308594h-5.09375zm0 0"/><path d="m4732.65625 3367.264062h50.9375v3.085938h-50.9375zm0 0" fill="none" stroke="#000" stroke-linejoin="round" stroke-miterlimit="10" stroke-width="4.94546" transform="matrix(.1 0 0 -.1 0 420.91)"/><path d="m473.265625 84.183594h5.09375v-.308594h-5.09375zm0 0"/><path d="m1339.726562 3907.225.039063-36.640625 447.539063 17.226562v36.640625zm0 0" fill="none" stroke="#000" stroke-linejoin="round" stroke-miterlimit="10" stroke-width="3.98854" transform="matrix(.1 0 0 -.1 0 420.91)"/><path d="m133.972656 30.1875.003906 3.664062 44.753907-1.722656v-3.664062zm0 0"/><path d="m2357.1875 3367.264062h50.9375v3.085938h-50.9375zm0 0" fill="none" stroke="#000" stroke-linejoin="round" stroke-miterlimit="10" stroke-width="4.94546" transform="matrix(.1 0 0 -.1 0 420.91)"/><path d="m235.71875 84.183594h5.09375v-.308594h-5.09375zm0 0"/><path d="m1489.765625 3367.264062h50.9375v3.085938h-50.9375zm0 0" fill="none" stroke="#000" stroke-linejoin="round" stroke-miterlimit="10" stroke-width="4.94546" transform="matrix(.1 0 0 -.1 0 420.91)"/><path d="m148.976562 84.183594h5.09375v-.308594h-5.09375zm0 0"/><use x="486.806" xlink:href="#A" y="89.937"/><use x="492.248553" xlink:href="#E" y="89.937"/><use x="503.813784" xlink:href="#F" y="89.937"/><path d="m5545.3125 3568.826562h4.0625v275.742188h-4.0625zm0 0" fill="none" stroke="#000" stroke-linejoin="round" stroke-miterlimit="10" stroke-width="3.98854" transform="matrix(.1 0 0 -.1 0 420.91)"/><path d="m554.53125 64.027344h.40625v-27.574219h-.40625zm0 0"/><use x="529.962" xlink:href="#F" y="89.937"/><use x="541.527231" xlink:href="#E" y="89.937"/><use x="553.092071" xlink:href="#G" y="89.937"/><use x="563.466696" xlink:href="#H" y="89.937"/><use x="544.0768" xlink:href="#af" y="65.8929"/><path d="m833.4375 3568.826562h4.0625v275.742188h-4.0625zm0 0" fill="none" stroke="#000" stroke-linejoin="round" stroke-miterlimit="10" stroke-width="3.98854" transform="matrix(.1 0 0 -.1 0 420.91)"/><path d="m83.34375 64.027344h.40625v-27.574219h-.40625zm0 0"/><use x="123.52" xlink:href="#af" y="57.425"/><use x="117.48406" xlink:href="#I" y="89.9371"/><use x="129.0489" xlink:href="#J" y="89.9371"/><path d="m1339.726562 3653.514062h4.0625v233.554688h-4.0625zm0 0" fill="none" stroke="#000" stroke-linejoin="round" stroke-miterlimit="10" stroke-width="3.98854" transform="matrix(.1 0 0 -.1 0 420.91)"/><path d="m133.972656 55.558594h.40625v-23.355469h-.40625zm0 0"/><use x="72.8902" xlink:href="#af" y="65.893"/><use x="6.7746" xlink:href="#ag" y="48.9567"/><use x="37.2918" xlink:href="#ah" y="40.48834"/><use x="44.94532" xlink:href="#ah" y="27.78604"/><use x="54.26798" xlink:href="#K" y="89.93724"/><use x="69.234766" xlink:href="#C" y="89.93724"/><use x="80.799601" xlink:href="#L" y="89.93724"/><use x="92.194514" xlink:href="#B" y="89.93724"/><use x="30.32308" xlink:href="#aj" y="89.93724"/><use x="40.697662" xlink:href="#ak" y="89.93724"/><path d="m2226.757812 3738.201562h4.0625v275.742188h-4.0625zm0 0" fill="none" stroke="#000" stroke-linejoin="round" stroke-miterlimit="10" stroke-width="3.98854" transform="matrix(.1 0 0 -.1 0 420.91)"/><path d="m222.675781 47.089844h.40625v-27.574219h-.40625zm0 0"/><use x="260.736" xlink:href="#af" y="48.956"/><use x="247.2157" xlink:href="#M" y="89.9365"/><use x="251.80788" xlink:href="#N" y="89.9365"/><use x="263.373111" xlink:href="#F" y="89.9365"/><use x="274.937951" xlink:href="#G" y="89.9365"/><path d="m2711.875 3738.201562h4.0625v275.742188h-4.0625zm0 0" fill="none" stroke="#000" stroke-linejoin="round" stroke-miterlimit="10" stroke-width="3.98854" transform="matrix(.1 0 0 -.1 0 420.91)"/><path d="m271.1875 47.089844h.40625v-27.574219h-.40625zm0 0"/><use x="316.043" xlink:href="#af" y="57.425"/><use x="310.43206" xlink:href="#C" y="89.9371"/><use x="322.337525" xlink:href="#O" y="89.9371"/><path d="m3264.960938 3653.514062h4.0625v300.859375h-4.0625zm0 0" fill="none" stroke="#000" stroke-linejoin="round" stroke-miterlimit="10" stroke-width="3.98854" transform="matrix(.1 0 0 -.1 0 420.91)"/><path d="m326.496094 55.558594h.40625v-30.085938h-.40625zm0 0"/><use x="206.186" xlink:href="#C" y="89.937"/><use x="217.751231" xlink:href="#P" y="89.937"/><use x="212.22311" xlink:href="#af" y="48.9565"/><use x="167.87151" xlink:href="#af" y="53.19048"/><use x="162.43049" xlink:href="#Q" y="89.93698"/><use x="167.023061" xlink:href="#J" y="89.93698"/><use x="178.587901" xlink:href="#A" y="89.93698"/><path d="m1783.242188 3695.857812h4.0625v208.125h-4.0625zm0 0" fill="none" stroke="#000" stroke-linejoin="round" stroke-miterlimit="10" stroke-width="3.98854" transform="matrix(.1 0 0 -.1 0 420.91)"/><path d="m178.324219 51.324219h.40625v-20.8125h-.40625zm0 0"/><g clip-path="url(#g)"><path d="m3.085938 2618.670312h5946.601562" style="fill:none;stroke-width:6.17335;stroke-linecap:round;stroke-linejoin:round;stroke:#000;stroke-miterlimit:10" transform="matrix(.1 0 0 -.1 0 420.91)"/></g><g clip-path="url(#h)"><path d="m3.085938 2703.357812h5946.601562" style="fill:none;stroke-width:6.17335;stroke-linecap:round;stroke-linejoin:round;stroke:#000;stroke-miterlimit:10" transform="matrix(.1 0 0 -.1 0 420.91)"/></g><g clip-path="url(#i)"><path d="m3.085938 2788.045312h5946.601562" style="fill:none;stroke-width:6.17335;stroke-linecap:round;stroke-linejoin:round;stroke:#000;stroke-miterlimit:10" transform="matrix(.1 0 0 -.1 0 420.91)"/></g><g clip-path="url(#j)"><path d="m3.085938 2872.69375h5946.601562" style="fill:none;stroke-width:6.17335;stroke-linecap:round;stroke-linejoin:round;stroke:#000;stroke-miterlimit:10" transform="matrix(.1 0 0 -.1 0 420.91)"/></g><g clip-path="url(#k)"><path d="m3.085938 2957.38125h5946.601562" style="fill:none;stroke-width:6.17335;stroke-linecap:round;stroke-linejoin:round;stroke:#000;stroke-miterlimit:10" transform="matrix(.1 0 0 -.1 0 420.91)"/></g><path d="m3167.34375 2933.982812h7.773438v24.492188h-7.773438zm0 0" style="fill:none;stroke-width:3.98854;stroke-linecap:round;stroke-linejoin:round;stroke:#000;stroke-miterlimit:10" transform="matrix(.1 0 0 -.1 0 420.91)"/><path d="m316.734375 127.511719h.773437v-2.449219h-.773437zm0 0"/><path d="m3167.34375 2849.295312h7.773438v46.835938h-7.773438zm0 0" style="fill:none;stroke-width:3.98854;stroke-linecap:round;stroke-linejoin:round;stroke:#000;stroke-miterlimit:10" transform="matrix(.1 0 0 -.1 0 420.91)"/><path d="m316.734375 135.980469h.773437v-4.679688h-.773437zm0 0"/><path d="m3167.34375 2764.607812h7.773438v46.835938h-7.773438zm0 0" style="fill:none;stroke-width:3.98854;stroke-linecap:round;stroke-linejoin:round;stroke:#000;stroke-miterlimit:10" transform="matrix(.1 0 0 -.1 0 420.91)"/><path d="m316.734375 144.449219h.773437v-4.683594h-.773437zm0 0"/><path d="m3167.34375 2679.920312h7.773438v46.835938h-7.773438zm0 0" style="fill:none;stroke-width:3.98854;stroke-linecap:round;stroke-linejoin:round;stroke:#000;stroke-miterlimit:10" transform="matrix(.1 0 0 -.1 0 420.91)"/><path d="m316.734375 152.917969h.773437v-4.683594h-.773437zm0 0"/><path d="m3167.34375 2617.576562h7.773438v24.492188h-7.773438zm0 0" style="fill:none;stroke-width:3.98854;stroke-linecap:round;stroke-linejoin:round;stroke:#000;stroke-miterlimit:10" transform="matrix(.1 0 0 -.1 0 420.91)"/><path d="m316.734375 159.152344h.773437v-2.449219h-.773437zm0 0"/><g clip-path="url(#l)"><path d="m5946.875 2618.670312v338.710938" fill="none" stroke="#000" stroke-linejoin="round" stroke-miterlimit="10" stroke-width="11.737" transform="matrix(.1 0 0 -.1 0 420.91)"/></g><use x="412.941" xlink:href="#af" y="142.107"/><use x="400.6121" xlink:href="#R" y="189.4722"/><use x="407.415214" xlink:href="#E" y="189.4722"/><use x="418.980445" xlink:href="#S" y="189.4722"/><path d="m4131.40625 2529.920312h4.023438v239.453125h-4.023438zm0 0" fill="none" stroke="#000" stroke-linejoin="round" stroke-miterlimit="10" stroke-width="3.98854" transform="matrix(.1 0 0 -.1 0 420.91)"/><path d="m413.140625 167.917969h.402344v-23.945313h-.402344zm0 0"/><use x="455.849" xlink:href="#af" y="146.341"/><use x="452.70369" xlink:href="#A" y="189.4723"/><use x="458.486476" xlink:href="#T" y="189.4723"/><path d="m4560.46875 2518.826562h4.0625v208.203125h-4.0625zm0 0" fill="none" stroke="#000" stroke-linejoin="round" stroke-miterlimit="10" stroke-width="3.98854" transform="matrix(.1 0 0 -.1 0 420.91)"/><path d="m456.046875 169.027344h.40625v-20.820313h-.40625zm0 0"/><path d="m3702.304688 2541.014062h4.0625v270.703125h-4.0625zm0 0" fill="none" stroke="#000" stroke-linejoin="round" stroke-miterlimit="10" stroke-width="3.98854" transform="matrix(.1 0 0 -.1 0 420.91)"/><path d="m370.230469 166.808594h.40625v-27.070313h-.40625zm0 0"/><use x="367.059" xlink:href="#A" y="189.472"/><use x="372.501576" xlink:href="#E" y="189.472"/><use x="370.034" xlink:href="#af" y="137.8724"/><path d="m1136.875 2371.873437h50.9375v3.125h-50.9375zm0 0" fill="none" stroke="#000" stroke-linejoin="round" stroke-miterlimit="10" stroke-width="4.94546" transform="matrix(.1 0 0 -.1 0 420.91)"/><path d="m113.6875 183.722656h5.09375v-.3125h-5.09375zm0 0"/><path d="m4419.6875 2371.873437h50.976562v3.125h-50.976562zm0 0" fill="none" stroke="#000" stroke-linejoin="round" stroke-miterlimit="10" stroke-width="4.94546" transform="matrix(.1 0 0 -.1 0 420.91)"/><path d="m441.96875 183.722656h5.09375v-.3125h-5.09375zm0 0"/><path d="m3235.195312 2569.56875v-36.679688l1329.335938-34.492187v36.679687zm0 0" fill="none" stroke="#000" stroke-linejoin="round" stroke-miterlimit="10" stroke-width="3.98854" transform="matrix(.1 0 0 -.1 0 420.91)"/><path d="m323.519531 163.953125v3.667969l132.933594 3.449218v-3.667968zm0 0"/><path d="m5192.734375 2371.873437h50.9375v3.125h-50.9375zm0 0" fill="none" stroke="#000" stroke-linejoin="round" stroke-miterlimit="10" stroke-width="4.94546" transform="matrix(.1 0 0 -.1 0 420.91)"/><path d="m519.273438 183.722656h5.09375v-.3125h-5.09375zm0 0"/><path d="m4805.195312 2371.873437h50.9375v3.125h-50.9375zm0 0" fill="none" stroke="#000" stroke-linejoin="round" stroke-miterlimit="10" stroke-width="4.94546" transform="matrix(.1 0 0 -.1 0 420.91)"/><path d="m480.519531 183.722656h5.09375v-.3125h-5.09375zm0 0"/><path d="m3897.929688 2371.873437h50.9375v3.125h-50.9375zm0 0" fill="none" stroke="#000" stroke-linejoin="round" stroke-miterlimit="10" stroke-width="4.94546" transform="matrix(.1 0 0 -.1 0 420.91)"/><path d="m389.792969 183.722656h5.09375v-.3125h-5.09375zm0 0"/><path d="m1446.875 2939.060937h433.125v36.679688h-433.125zm0 0" fill="none" stroke="#000" stroke-linejoin="round" stroke-miterlimit="10" stroke-width="3.98854" transform="matrix(.1 0 0 -.1 0 420.91)"/><path d="m144.6875 127.003906h43.3125v-3.667968h-43.3125zm0 0"/><path d="m2478.085938 2371.873437h50.976562v3.125h-50.976562zm0 0" fill="none" stroke="#000" stroke-linejoin="round" stroke-miterlimit="10" stroke-width="4.94546" transform="matrix(.1 0 0 -.1 0 420.91)"/><path d="m247.808594 183.722656h5.09375v-.3125h-5.09375zm0 0"/><use x="498.628" xlink:href="#af" y="150.575"/><path d="m5559.726562 2721.990625h4.023438v275.742187h-4.023438zm0 0" fill="none" stroke="#000" stroke-linejoin="round" stroke-miterlimit="10" stroke-width="3.98854" transform="matrix(.1 0 0 -.1 0 420.91)"/><path d="m555.972656 148.710938h.402344v-27.574219h-.402344zm0 0"/><use x="531.402" xlink:href="#F" y="189.472"/><use x="542.96684" xlink:href="#E" y="189.472"/><use x="554.532071" xlink:href="#G" y="189.472"/><use x="564.906696" xlink:href="#H" y="189.472"/><use x="545.5176" xlink:href="#af" y="150.5747"/><path d="m5090.820312 2721.990625h4.0625v275.742187h-4.0625zm0 0" fill="none" stroke="#000" stroke-linejoin="round" stroke-miterlimit="10" stroke-width="3.98854" transform="matrix(.1 0 0 -.1 0 420.91)"/><path d="m509.082031 148.710938h.40625v-27.574219h-.40625zm0 0"/><use x="496.078" xlink:href="#M" y="189.472"/><use x="500.670571" xlink:href="#U" y="189.472"/><use x="72.89" xlink:href="#af" y="150.5747"/><use x="47.3795" xlink:href="#V" y="189.472"/><use x="64.727533" xlink:href="#E" y="189.472"/><use x="76.292758" xlink:href="#F" y="189.472"/><use x="87.857983" xlink:href="#F" y="189.472"/><use x="99.083364" xlink:href="#B" y="189.472"/><path d="m833.4375 2721.990625h4.0625v275.742187h-4.0625zm0 0" fill="none" stroke="#000" stroke-linejoin="round" stroke-miterlimit="10" stroke-width="3.98854" transform="matrix(.1 0 0 -.1 0 420.91)"/><path d="m83.34375 148.710938h.40625v-27.574219h-.40625zm0 0"/><use x="134.232" xlink:href="#af" y="150.575"/><use x="123.0082" xlink:href="#F" y="189.4723"/><use x="134.57304" xlink:href="#E" y="189.4723"/><use x="146.138271" xlink:href="#G" y="189.4723"/><path d="m1446.875 2721.990625h4.023438v233.398437h-4.023438zm0 0" fill="none" stroke="#000" stroke-linejoin="round" stroke-miterlimit="10" stroke-width="3.98854" transform="matrix(.1 0 0 -.1 0 420.91)"/><path d="m144.6875 148.710938h.402344v-23.339844h-.402344zm0 0"/><use x="6.77461" xlink:href="#ag" y="150.575"/><use x="37.29181" xlink:href="#ah" y="142.10703"/><use x="44.94533" xlink:href="#ah" y="129.40473"/><use x="210.24733" xlink:href="#W" y="189.47233"/><use x="215.860219" xlink:href="#X" y="189.47233"/><use x="227.42545" xlink:href="#Q" y="189.47233"/><use x="232.01763" xlink:href="#P" y="189.47233"/><path d="m2685.546875 2535.975h4.0625v275.742187h-4.0625zm0 0" fill="none" stroke="#000" stroke-linejoin="round" stroke-miterlimit="10" stroke-width="3.98854" transform="matrix(.1 0 0 -.1 0 420.91)"/><path d="m268.554688 167.3125h.40625v-27.574219h-.40625zm0 0"/><use x="257.132" xlink:href="#F" y="189.472"/><use x="268.69684" xlink:href="#E" y="189.472"/><use x="280.262071" xlink:href="#G" y="189.472"/><use x="268.3558" xlink:href="#af" y="137.8724"/><path d="m2215.859375 2535.975h4.023437v275.742187h-4.023437zm0 0" fill="none" stroke="#000" stroke-linejoin="round" stroke-miterlimit="10" stroke-width="3.98854" transform="matrix(.1 0 0 -.1 0 420.91)"/><path d="m221.585938 167.3125h.402343v-27.574219h-.402343zm0 0"/><use x="323.319" xlink:href="#af" y="142.107"/><use x="221.386" xlink:href="#af" y="137.87262"/><use x="304.1868" xlink:href="#z" y="189.47222"/><use x="314.56101" xlink:href="#O" y="189.47222"/><use x="324.596158" xlink:href="#E" y="189.47222"/><use x="336.160998" xlink:href="#F" y="189.47222"/><use x="347.726229" xlink:href="#A" y="189.47222"/><path d="m3235.195312 2553.084375h4.023438v216.289062h-4.023438zm0 0" fill="none" stroke="#000" stroke-linejoin="round" stroke-miterlimit="10" stroke-width="3.98854" transform="matrix(.1 0 0 -.1 0 420.91)"/><path d="m323.519531 165.601562h.402344v-21.628906h-.402344zm0 0"/><path d="m1875.9375 2721.990625h4.0625v233.398437h-4.0625zm0 0" fill="none" stroke="#000" stroke-linejoin="round" stroke-miterlimit="10" stroke-width="3.98854" transform="matrix(.1 0 0 -.1 0 420.91)"/><path d="m187.59375 148.710938h.402344v-23.339844h-.402344zm0 0"/><use x="171.699" xlink:href="#U" y="189.472"/><use x="183.26384" xlink:href="#z" y="189.472"/><use x="177.13962" xlink:href="#af" y="150.5747"/><g clip-path="url(#m)"><path d="m3.085938 1602.459375h5946.601562" style="fill:none;stroke-width:6.17335;stroke-linecap:round;stroke-linejoin:round;stroke:#000;stroke-miterlimit:10" transform="matrix(.1 0 0 -.1 0 420.91)"/></g><g clip-path="url(#n)"><path d="m3.085938 1687.146875h5946.601562" style="fill:none;stroke-width:6.17335;stroke-linecap:round;stroke-linejoin:round;stroke:#000;stroke-miterlimit:10" transform="matrix(.1 0 0 -.1 0 420.91)"/></g><g clip-path="url(#o)"><path d="m3.085938 1771.834375h5946.601562" style="fill:none;stroke-width:6.17335;stroke-linecap:round;stroke-linejoin:round;stroke:#000;stroke-miterlimit:10" transform="matrix(.1 0 0 -.1 0 420.91)"/></g><g clip-path="url(#p)"><path d="m3.085938 1856.521875h5946.601562" style="fill:none;stroke-width:6.17335;stroke-linecap:round;stroke-linejoin:round;stroke:#000;stroke-miterlimit:10" transform="matrix(.1 0 0 -.1 0 420.91)"/></g><g clip-path="url(#q)"><path d="m3.085938 1941.209375h5946.601562" style="fill:none;stroke-width:6.17335;stroke-linecap:round;stroke-linejoin:round;stroke:#000;stroke-miterlimit:10" transform="matrix(.1 0 0 -.1 0 420.91)"/></g><path d="m3128.242188 1917.771875h7.773437v24.53125h-7.773437zm0 0" style="fill:none;stroke-width:3.98854;stroke-linecap:round;stroke-linejoin:round;stroke:#000;stroke-miterlimit:10" transform="matrix(.1 0 0 -.1 0 420.91)"/><path d="m312.824219 229.132812h.777343v-2.453124h-.777343zm0 0"/><path d="m3128.242188 1833.123437h7.773437v46.796875h-7.773437zm0 0" style="fill:none;stroke-width:3.98854;stroke-linecap:round;stroke-linejoin:round;stroke:#000;stroke-miterlimit:10" transform="matrix(.1 0 0 -.1 0 420.91)"/><path d="m312.824219 237.597656h.777343v-4.679687h-.777343zm0 0"/><path d="m3128.242188 1748.435937h7.773437v46.796875h-7.773437zm0 0" style="fill:none;stroke-width:3.98854;stroke-linecap:round;stroke-linejoin:round;stroke:#000;stroke-miterlimit:10" transform="matrix(.1 0 0 -.1 0 420.91)"/><path d="m312.824219 246.066406h.777343v-4.679687h-.777343zm0 0"/><path d="m3128.242188 1663.748437h7.773437v46.796875h-7.773437zm0 0" style="fill:none;stroke-width:3.98854;stroke-linecap:round;stroke-linejoin:round;stroke:#000;stroke-miterlimit:10" transform="matrix(.1 0 0 -.1 0 420.91)"/><path d="m312.824219 254.535156h.777343v-4.679687h-.777343zm0 0"/><path d="m3128.242188 1601.365625h7.773437v24.53125h-7.773437zm0 0" style="fill:none;stroke-width:3.98854;stroke-linecap:round;stroke-linejoin:round;stroke:#000;stroke-miterlimit:10" transform="matrix(.1 0 0 -.1 0 420.91)"/><path d="m312.824219 260.773438h.777343v-2.453126h-.777343zm0 0"/><g clip-path="url(#r)"><path d="m5946.875 1602.459375v338.75" fill="none" stroke="#000" stroke-linejoin="round" stroke-miterlimit="10" stroke-width="11.737" transform="matrix(.1 0 0 -.1 0 420.91)"/></g><use x="408.513" xlink:href="#af" y="252.194"/><use x="405.963" xlink:href="#U" y="291.6635"/><use x="417.528231" xlink:href="#Q" y="291.6635"/><path d="m4189.648438 1705.81875h4.0625v255.15625h-4.0625zm0 0" fill="none" stroke="#000" stroke-linejoin="round" stroke-miterlimit="10" stroke-width="3.98854" transform="matrix(.1 0 0 -.1 0 420.91)"/><path d="m418.964844 250.328125h.40625v-25.515625h-.40625zm0 0"/><use x="450.796" xlink:href="#af" y="256.428"/><use x="447.821" xlink:href="#A" y="291.6635"/><use x="453.263553" xlink:href="#E" y="291.6635"/><path d="m4612.5 1663.475h4.0625v275.9375h-4.0625zm0 0" fill="none" stroke="#000" stroke-linejoin="round" stroke-miterlimit="10" stroke-width="3.98854" transform="matrix(.1 0 0 -.1 0 420.91)"/><path d="m461.25 254.5625h.40625v-27.59375h-.40625zm0 0"/><path d="m3757.382812 1748.1625h4.0625v234.84375h-4.0625zm0 0" fill="none" stroke="#000" stroke-linejoin="round" stroke-miterlimit="10" stroke-width="3.98854" transform="matrix(.1 0 0 -.1 0 420.91)"/><path d="m375.738281 246.09375h.40625v-23.484375h-.40625zm0 0"/><use x="349.214" xlink:href="#L" y="291.664"/><use x="360.608528" xlink:href="#B" y="291.664"/><use x="370.473363" xlink:href="#E" y="291.664"/><use x="382.038594" xlink:href="#z" y="291.664"/><use x="365.2847" xlink:href="#af" y="247.9605"/><path d="m987.109375 1349.998437h50.9375v3.085938h-50.9375zm0 0" fill="none" stroke="#000" stroke-linejoin="round" stroke-miterlimit="10" stroke-width="4.94546" transform="matrix(.1 0 0 -.1 0 420.91)"/><path d="m98.710938 285.910156h5.09375v-.308594h-5.09375zm0 0"/><path d="m4324.21875 1349.998437h50.9375v3.085938h-50.9375zm0 0" fill="none" stroke="#000" stroke-linejoin="round" stroke-miterlimit="10" stroke-width="4.94546" transform="matrix(.1 0 0 -.1 0 420.91)"/><path d="m432.421875 285.910156h5.09375v-.308594h-5.09375zm0 0"/><path d="m3297.890625 2026.990625v-36.679688l1318.671875-67.421875v36.640625zm0 0" fill="none" stroke="#000" stroke-linejoin="round" stroke-miterlimit="10" stroke-width="3.98854" transform="matrix(.1 0 0 -.1 0 420.91)"/><path d="m329.789062 218.210938v3.667968l131.867188 6.742188v-3.664063zm0 0"/><path d="m5224.804688 1349.998437h50.9375v3.085938h-50.9375zm0 0" fill="none" stroke="#000" stroke-linejoin="round" stroke-miterlimit="10" stroke-width="4.94546" transform="matrix(.1 0 0 -.1 0 420.91)"/><path d="m522.480469 285.910156h5.09375v-.308594h-5.09375zm0 0"/><path d="m4693.515625 1349.998437h50.9375v3.085938h-50.9375zm0 0" fill="none" stroke="#000" stroke-linejoin="round" stroke-miterlimit="10" stroke-width="4.94546" transform="matrix(.1 0 0 -.1 0 420.91)"/><path d="m469.351562 285.910156h5.09375v-.308594h-5.09375zm0 0"/><path d="m3398.90625 1349.998437h50.976562v3.085938h-50.976562zm0 0" fill="none" stroke="#000" stroke-linejoin="round" stroke-miterlimit="10" stroke-width="4.94546" transform="matrix(.1 0 0 -.1 0 420.91)"/><path d="m339.890625 285.910156h5.09375v-.308594h-5.09375zm0 0"/><path d="m1192.773438 1516.678125h426.875v36.679687h-426.875zm0 0" fill="none" stroke="#000" stroke-linejoin="round" stroke-miterlimit="10" stroke-width="3.98854" transform="matrix(.1 0 0 -.1 0 420.91)"/><path d="m119.277344 269.242188h42.6875v-3.667969h-42.6875zm0 0"/><path d="m2430.039062 1349.998437h50.9375v3.085938h-50.9375zm0 0" fill="none" stroke="#000" stroke-linejoin="round" stroke-miterlimit="10" stroke-width="4.94546" transform="matrix(.1 0 0 -.1 0 420.91)"/><path d="m243.003906 285.910156h5.09375v-.308594h-5.09375zm0 0"/><path d="m1855.742188 1349.998437h50.9375v3.085938h-50.9375zm0 0" fill="none" stroke="#000" stroke-linejoin="round" stroke-miterlimit="10" stroke-width="4.94546" transform="matrix(.1 0 0 -.1 0 420.91)"/><path d="m185.574219 285.910156h5.09375v-.308594h-5.09375zm0 0"/><path d="m1414.570312 1349.998437h50.9375v3.085938h-50.9375zm0 0" fill="none" stroke="#000" stroke-linejoin="round" stroke-miterlimit="10" stroke-width="4.94546" transform="matrix(.1 0 0 -.1 0 420.91)"/><path d="m141.457031 285.910156h5.09375v-.308594h-5.09375zm0 0"/><use x="493.08" xlink:href="#af" y="260.663"/><path d="m5563.710938 1621.13125h4.0625v275.742187h-4.0625zm0 0" fill="none" stroke="#000" stroke-linejoin="round" stroke-miterlimit="10" stroke-width="3.98854" transform="matrix(.1 0 0 -.1 0 420.91)"/><path d="m556.371094 258.796875h.40625v-27.574219h-.40625zm0 0"/><use x="531.802" xlink:href="#F" y="291.664"/><use x="543.367231" xlink:href="#E" y="291.664"/><use x="554.932071" xlink:href="#G" y="291.664"/><use x="565.306696" xlink:href="#H" y="291.664"/><use x="545.9168" xlink:href="#af" y="260.6628"/><path d="m5035.351562 1621.13125h4.023438v275.742187h-4.023438zm0 0" fill="none" stroke="#000" stroke-linejoin="round" stroke-miterlimit="10" stroke-width="3.98854" transform="matrix(.1 0 0 -.1 0 420.91)"/><path d="m503.535156 258.796875h.402344v-27.574219h-.402344zm0 0"/><use x="478.965" xlink:href="#A" y="291.664"/><use x="484.747786" xlink:href="#T" y="291.664"/><use x="496.313017" xlink:href="#F" y="291.664"/><use x="507.877858" xlink:href="#G" y="291.664"/><use x="72.89" xlink:href="#af" y="239.4921"/><use x="67.95914" xlink:href="#Y" y="291.664"/><use x="84.286863" xlink:href="#Q" y="291.664"/><path d="m730.898438 1519.764062h4.0625v275.742188h-4.0625zm0 0" fill="none" stroke="#000" stroke-linejoin="round" stroke-miterlimit="10" stroke-width="3.98854" transform="matrix(.1 0 0 -.1 0 420.91)"/><path d="m73.089844 268.933594h.402344v-27.574219h-.402344zm0 0"/><use x="119.077" xlink:href="#af" y="239.492"/><use x="113.63638" xlink:href="#A" y="291.6639"/><use x="119.419191" xlink:href="#C" y="291.6639"/><use x="130.984422" xlink:href="#Q" y="291.6639"/><path d="m1192.773438 1537.029687h4.023437v258.515625h-4.023437zm0 0" fill="none" stroke="#000" stroke-linejoin="round" stroke-miterlimit="10" stroke-width="3.98854" transform="matrix(.1 0 0 -.1 0 420.91)"/><path d="m119.277344 267.207031h.402344v-25.851562h-.402344zm0 0"/><use x="6.77461" xlink:href="#ag" y="252.194"/><use x="37.29181" xlink:href="#ah" y="243.72564"/><use x="44.94533" xlink:href="#ah" y="231.02334"/><use x="194.89533" xlink:href="#O" y="291.66354"/><use x="205.26993" xlink:href="#Z" y="291.66354"/><use x="216.834771" xlink:href="#F" y="291.66354"/><use x="228.400002" xlink:href="#G" y="291.66354"/><path d="m2768.945312 1705.81875h4.0625v275.742187h-4.0625zm0 0" fill="none" stroke="#000" stroke-linejoin="round" stroke-miterlimit="10" stroke-width="3.98854" transform="matrix(.1 0 0 -.1 0 420.91)"/><path d="m276.894531 250.328125h.402344v-27.574219h-.402344zm0 0"/><use x="252.325" xlink:href="#F" y="291.664"/><use x="263.88984" xlink:href="#C" y="291.664"/><use x="275.455071" xlink:href="#G" y="291.664"/><use x="285.829672" xlink:href="#H" y="291.664"/><use x="266.4398" xlink:href="#af" y="252.1945"/><path d="m2115.039062 1491.560937h4.0625v261.640625h-4.0625zm0 0" fill="none" stroke="#000" stroke-linejoin="round" stroke-miterlimit="10" stroke-width="3.98854" transform="matrix(.1 0 0 -.1 0 420.91)"/><path d="m211.503906 271.753906h.40625v-26.160156h-.40625zm0 0"/><use x="319.336" xlink:href="#af" y="243.726"/><use x="211.306176" xlink:href="#af" y="243.726"/><use x="314.06452" xlink:href="#G" y="291.6639"/><use x="324.099277" xlink:href="#E" y="291.6639"/><path d="m3297.890625 1790.50625h4.0625v215.976562h-4.0625zm0 0" fill="none" stroke="#000" stroke-linejoin="round" stroke-miterlimit="10" stroke-width="3.98854" transform="matrix(.1 0 0 -.1 0 420.91)"/><path d="m329.789062 241.859375h.40625v-21.59375h-.40625zm0 0"/><path d="m1615.585938 1537.029687h4.0625v258.515625h-4.0625zm0 0" fill="none" stroke="#000" stroke-linejoin="round" stroke-miterlimit="10" stroke-width="3.98854" transform="matrix(.1 0 0 -.1 0 420.91)"/><path d="m161.558594 267.207031h.40625v-25.851562h-.40625zm0 0"/><use x="152.433" xlink:href="#S" y="291.664"/><use x="169.781039" xlink:href="#C" y="291.664"/><use x="161.36073" xlink:href="#af" y="239.4921"/><g clip-path="url(#s)"><path d="m3.085938 586.2875h5946.601562" style="fill:none;stroke-width:6.17335;stroke-linecap:round;stroke-linejoin:round;stroke:#000;stroke-miterlimit:10" transform="matrix(.1 0 0 -.1 0 420.91)"/></g><g clip-path="url(#t)"><path d="m3.085938 670.975h5946.601562" style="fill:none;stroke-width:6.17335;stroke-linecap:round;stroke-linejoin:round;stroke:#000;stroke-miterlimit:10" transform="matrix(.1 0 0 -.1 0 420.91)"/></g><g clip-path="url(#u)"><path d="m3.085938 755.6625h5946.601562" style="fill:none;stroke-width:6.17335;stroke-linecap:round;stroke-linejoin:round;stroke:#000;stroke-miterlimit:10" transform="matrix(.1 0 0 -.1 0 420.91)"/></g><g clip-path="url(#v)"><path d="m3.085938 840.35h5946.601562" style="fill:none;stroke-width:6.17335;stroke-linecap:round;stroke-linejoin:round;stroke:#000;stroke-miterlimit:10" transform="matrix(.1 0 0 -.1 0 420.91)"/></g><g clip-path="url(#w)"><path d="m3.085938 924.998437h5946.601562" style="fill:none;stroke-width:6.17335;stroke-linecap:round;stroke-linejoin:round;stroke:#000;stroke-miterlimit:10" transform="matrix(.1 0 0 -.1 0 420.91)"/></g><path d="m4770.15625 501.6h151.25" style="fill:none;stroke-width:14.6416;stroke-linecap:round;stroke-linejoin:round;stroke:#000;stroke-miterlimit:10" transform="matrix(.1 0 0 -.1 0 420.91)"/><g clip-path="url(#x)"><path d="m5934.21875 586.2875v338.710937" fill="none" stroke="#000" stroke-linejoin="round" stroke-miterlimit="10" stroke-width="37.057" transform="matrix(.1 0 0 -.1 0 420.91)"/></g><path d="m5891.289062 586.2875v338.710937" fill="none" stroke="#000" stroke-linejoin="round" stroke-miterlimit="10" stroke-width="11.737" transform="matrix(.1 0 0 -.1 0 420.91)"/><path d="m4895.039062 520.271875h4.023438v275.742187h-4.023438zm0 0" fill="none" stroke="#000" stroke-linejoin="round" stroke-miterlimit="10" stroke-width="3.98854" transform="matrix(.1 0 0 -.1 0 420.91)"/><path d="m489.503906 368.882812h.402344v-27.574218h-.402344zm0 0"/><use x="275.969" xlink:href="#af" y="358.0475"/><use x="464.933" xlink:href="#F" y="394.7936"/><use x="476.498231" xlink:href="#E" y="394.7936"/><use x="488.063071" xlink:href="#G" y="394.7936"/><use x="498.437696" xlink:href="#aa" y="394.7936"/><use x="484.5768" xlink:href="#ai" y="325.8639"/><use x="479.04789" xlink:href="#af" y="370.7498"/><path d="m3815.195312 562.615625h4.023438v275.742187h-4.023438zm0 0" fill="none" stroke="#000" stroke-linejoin="round" stroke-miterlimit="10" stroke-width="3.98854" transform="matrix(.1 0 0 -.1 0 420.91)"/><path d="m381.519531 364.648438h.402344v-27.574219h-.402344zm0 0"/><use x="357.545" xlink:href="#Q" y="394.7936"/><use x="362.137571" xlink:href="#T" y="394.7936"/><use x="373.702411" xlink:href="#F" y="394.7936"/><use x="385.267642" xlink:href="#G" y="394.7936"/><use x="371.0653" xlink:href="#af" y="366.5155"/><path d="m2864.21875 647.264062h4.0625v208.242188h-4.0625zm0 0" fill="none" stroke="#000" stroke-linejoin="round" stroke-miterlimit="10" stroke-width="3.98854" transform="matrix(.1 0 0 -.1 0 420.91)"/><path d="m286.421875 356.183594h.40625v-20.824219h-.40625zm0 0"/><use x="270.528" xlink:href="#z" y="394.7936"/><use x="280.9026" xlink:href="#E" y="394.7936"/><path d="m1378.203125 318.670312h50.9375v3.085938h-50.9375zm0 0" fill="none" stroke="#000" stroke-linejoin="round" stroke-miterlimit="10" stroke-width="4.94546" transform="matrix(.1 0 0 -.1 0 420.91)"/><path d="m137.820312 389.042969h5.09375v-.308594h-5.09375zm0 0"/><path d="m2286.015625 318.670312h50.9375v3.085938h-50.9375zm0 0" fill="none" stroke="#000" stroke-linejoin="round" stroke-miterlimit="10" stroke-width="4.94546" transform="matrix(.1 0 0 -.1 0 420.91)"/><path d="m228.601562 389.042969h5.09375v-.308594h-5.09375zm0 0"/><path d="m3224.609375 318.670312h50.9375v3.085938h-50.9375zm0 0" fill="none" stroke="#000" stroke-linejoin="round" stroke-miterlimit="10" stroke-width="4.94546" transform="matrix(.1 0 0 -.1 0 420.91)"/><path d="m322.460938 389.042969h5.09375v-.308594h-5.09375zm0 0"/><path d="m4277.382812 318.670312h50.976563v3.085938h-50.976563zm0 0" fill="none" stroke="#000" stroke-linejoin="round" stroke-miterlimit="10" stroke-width="4.94546" transform="matrix(.1 0 0 -.1 0 420.91)"/><path d="m427.738281 389.042969h5.097657v-.308594h-5.097657zm0 0"/><path d="m1892.109375 858.670312v-36.679687l976.171875 17.265625v36.640625zm0 0" fill="none" stroke="#000" stroke-linejoin="round" stroke-miterlimit="10" stroke-width="3.98854" transform="matrix(.1 0 0 -.1 0 420.91)"/><path d="m189.210938 335.042969v3.667969l97.617187-1.726563v-3.664063zm0 0"/><use x="37.2918" xlink:href="#ah" y="345.3452"/><use x="44.94532" xlink:href="#ah" y="332.6429"/><use x="6.77462" xlink:href="#ag" y="353.8132"/><path d="m1892.109375 604.959375h4.023437v233.4375h-4.023437zm0 0" fill="none" stroke="#000" stroke-linejoin="round" stroke-miterlimit="10" stroke-width="3.98854" transform="matrix(.1 0 0 -.1 0 420.91)"/><path d="m189.210938 360.417969h.402343v-23.347657h-.402343zm0 0"/><use x="176.802" xlink:href="#ab" y="394.7936"/><use x="187.1766" xlink:href="#ac" y="394.7936"/><use x="178.75669" xlink:href="#af" y="362.2815"/><path d="m833.4375 689.607812h4.0625v275.742188h-4.0625zm0 0" fill="none" stroke="#000" stroke-linejoin="round" stroke-miterlimit="10" stroke-width="3.98854" transform="matrix(.1 0 0 -.1 0 420.91)"/><path d="m83.34375 351.949219h.40625v-27.574219h-.40625zm0 0"/><use x="52.9078" xlink:href="#ad" y="394.7936"/><use x="69.235523" xlink:href="#ae" y="394.7936"/><use x="80.800748" xlink:href="#F" y="394.7936"/><use x="92.365583" xlink:href="#P" y="394.7936"/><use x="72.8902" xlink:href="#af" y="353.8131"/></svg>