<svg height="531.57em" viewBox="0 0 595.28 531.57" width="595.28em" xmlns="http://www.w3.org/2000/svg" xmlns:xlink="http://www.w3.org/1999/xlink"><clipPath id="a"><path d="m0 70h595.28125v2h-595.28125zm0 0"/></clipPath><clipPath id="b"><path d="m0 60h595.28125v1h-595.28125zm0 0"/></clipPath><clipPath id="c"><path d="m0 49h595.28125v2h-595.28125zm0 0"/></clipPath><clipPath id="d"><path d="m0 39h595.28125v1h-595.28125zm0 0"/></clipPath><clipPath id="e"><path d="m0 28h595.28125v2h-595.28125zm0 0"/></clipPath><clipPath id="f"><path d="m593 28h2.28125v44h-2.28125zm0 0"/></clipPath><clipPath id="g"><path d="m0 196h595.28125v1h-595.28125zm0 0"/></clipPath><clipPath id="h"><path d="m0 185h595.28125v2h-595.28125zm0 0"/></clipPath><clipPath id="i"><path d="m0 175h595.28125v1h-595.28125zm0 0"/></clipPath><clipPath id="j"><path d="m0 164h595.28125v2h-595.28125zm0 0"/></clipPath><clipPath id="k"><path d="m0 154h595.28125v1h-595.28125zm0 0"/></clipPath><clipPath id="l"><path d="m593 153h2.28125v45h-2.28125zm0 0"/></clipPath><clipPath id="m"><path d="m0 321h595.28125v2h-595.28125zm0 0"/></clipPath><clipPath id="n"><path d="m0 311h595.28125v1h-595.28125zm0 0"/></clipPath><clipPath id="o"><path d="m0 300h595.28125v2h-595.28125zm0 0"/></clipPath><clipPath id="p"><path d="m0 290h595.28125v1h-595.28125zm0 0"/></clipPath><clipPath id="q"><path d="m0 279h595.28125v2h-595.28125zm0 0"/></clipPath><clipPath id="r"><path d="m593 279h2.28125v44h-2.28125zm0 0"/></clipPath><clipPath id="s"><path d="m0 447h595.28125v1h-595.28125zm0 0"/></clipPath><clipPath id="t"><path d="m0 436h595.28125v2h-595.28125zm0 0"/></clipPath><clipPath id="u"><path d="m0 426h595.28125v1h-595.28125zm0 0"/></clipPath><clipPath id="v"><path d="m0 415h595.28125v2h-595.28125zm0 0"/></clipPath><clipPath id="w"><path d="m0 405h595.28125v1h-595.28125zm0 0"/></clipPath><clipPath id="x"><path d="m591 403h4.28125v47h-4.28125zm0 0"/></clipPath><symbol id="y" overflow="visible"><path d="m9.296875-5.65625c-1.765625 0-3.4375.59375-4.9375 1.515625-1.96875 1.171875-4.359375 3.21875-4.359375 6.1875 0 2.46875 2.171875 3.609375 4.390625 3.609375 1.765625 0 3.4375-.59375 4.9375-1.515625 1.96875-1.171875 4.3125-3.21875 4.3125-6.1875 0-2.46875-2.140625-3.609375-4.34375-3.609375zm0 0"/></symbol><symbol id="z" overflow="visible"><path d="m15.65625-10.875c-.671875-2.9375-1.46875-5.828125-2.3125-8.703125 4.015625-4.5625 7.65625-9.25 7.65625-15.28125 0-4.71875-2.59375-11.5-5.515625-15.015625-.21875-.171875-.46875-.171875-.671875 0-3.96875 2.890625-6.28125 7.484375-6.28125 12.34375 0 2.171875.046875 4.3125.296875 6.4375.296875 2.71875 1 5.359375 1.765625 8-4.9375 5.609375-10.515625 10.953125-10.515625 18.40625 0 8.40625 6.078125 15.5625 13.9375 15.5625 1.296875 0 2.515625-.125 3.71875-.328125.140625 1.34375.21875 2.671875.21875 4.015625 0 .75-.046875 1.46875-.078125 2.21875-.265625 4.140625-2.8125 7.953125-6.703125 8.03125-.046875 0-.078125.046875-.125.046875-2.140625 0-3.96875-1.21875-5.0625-2.9375.453125.21875.96875.375 1.46875.375 2.171875 0 3.96875-1.796875 3.96875-3.96875 0-2.34375-1.71875-4.359375-3.96875-4.359375-2.46875 0-4.6875 1.9375-4.6875 4.359375 0 4.515625 3.640625 8.15625 8.15625 8.15625 4.9375 0 8.328125-4.4375 8.625-9.453125.03125-.796875.03125-1.546875.03125-2.34375 0-1.5-.078125-3.015625-.203125-4.515625 1.09375-.34375 2.125-.84375 3.046875-1.546875 3.109375-2.3125 4.484375-5.53125 4.484375-8.703125 0-5.53125-4.1875-10.84375-10.625-10.84375-.21875 0-.421875.046875-.625.046875zm3.546875 19.453125c-.578125-5.1875-1.546875-10.125-2.59375-15.015625 4.609375.375 7.5 4.21875 7.5 8.0625 0 2.9375-2.015625 5.953125-4.90625 6.953125zm-16.234375-9.875c0-6.6875 4.515625-11.765625 9.046875-16.828125.65625 2.46875 1.328125 4.9375 1.921875 7.453125-4.234375.96875-6.609375 4.515625-6.609375 8.203125 0 2.921875 1.5 5.90625 4.84375 7.703125.125.03125.25.078125.375.078125.46875 0 .84375-.421875.84375-.875 0-.21875-.125-.421875-.296875-.59375-2.34375-1.328125-3.421875-3.34375-3.421875-5.1875 0-2.46875 1.921875-4.6875 5.21875-5.0625 1.09375 5.03125 2.0625 10 2.6875 15.359375-1.140625.171875-2.265625.25-3.4375.25-5.6875 0-11.171875-4.8125-11.171875-10.5zm14.234375-42.640625c.703125 2.21875.875 3.3125.875 5.734375 0 5.3125-2.8125 9.546875-6.234375 13.59375-.75-2.625-1.390625-5.1875-1.390625-8.359375 0-4.65625 2.609375-8.875 6.75-10.96875zm0 0"/></symbol><symbol id="A" overflow="visible"><path d="m-2.640625-1.96875c0 1.46875 1.171875 2.640625 2.640625 2.640625s2.640625-1.171875 2.640625-2.640625-1.171875-2.640625-2.640625-2.640625-2.640625 1.171875-2.640625 2.640625zm2.640625-13.09375c-6.484375 0-13.765625 7.234375-13.765625 15.140625 0 .34375.328125.59375.671875.59375.296875 0 .625-.21875.703125-.671875 1.09375-6.234375 6.15625-11.09375 12.390625-11.09375s11.296875 4.859375 12.390625 11.09375c.078125.453125.40625.671875.703125.671875.34375 0 .671875-.25.671875-.59375 0-7.90625-7.234375-15.140625-13.765625-15.140625zm0 0"/></symbol><symbol id="B" overflow="visible"><path d="m3.921875-18.828125h-2.171875v18.828125h2.171875zm0 0"/></symbol><symbol id="C" overflow="visible"><path d="m13.8125-1.265625c-.234375.046875-.328125.046875-.453125.046875-.75 0-1.171875-.375-1.171875-1.046875v-7.96875c0-2.390625-1.75-3.6875-5.078125-3.6875-2 0-3.578125.5625-4.5 1.578125-.625.6875-.875 1.46875-.9375 2.8125h2.171875c.1875-1.65625 1.171875-2.40625 3.1875-2.40625 1.953125 0 3.015625.734375 3.015625 2.015625v.578125c-.03125.921875-.484375 1.265625-2.25 1.484375-3.046875.390625-3.515625.5-4.328125.828125-1.578125.671875-2.390625 1.859375-2.390625 3.625 0 2.453125 1.71875 4 4.453125 4 1.703125 0 3.0625-.59375 4.59375-1.984375.15625 1.390625.828125 1.984375 2.21875 1.984375.46875 0 .75-.046875 1.46875-.234375zm-3.765625-3c0 .734375-.203125 1.171875-.859375 1.765625-.875.796875-1.9375 1.203125-3.203125 1.203125-1.671875 0-2.65625-.796875-2.65625-2.171875 0-1.40625.9375-2.140625 3.265625-2.46875 2.296875-.3125 2.734375-.421875 3.453125-.75zm-2.1875-14.84375-2.515625 3.8125h1.546875l3.859375-3.8125zm0 0"/></symbol><symbol id="D" overflow="visible"><path d="m10.4375-13.53125v1.953125c-1.09375-1.625-2.28125-2.34375-3.984375-2.34375-3.28125 0-5.546875 3.046875-5.546875 7.390625 0 2.265625.546875 3.921875 1.703125 5.296875 1 1.1875 2.296875 1.828125 3.6875 1.828125 1.625 0 2.796875-.71875 3.9375-2.421875v.6875c0 3.625-1.015625 4.96875-3.703125 4.96875-1.828125 0-2.78125-.734375-3-2.28125h-2.1875c.203125 2.515625 2.1875 4.078125 5.140625 4.078125 1.984375 0 3.640625-.640625 4.515625-1.71875 1.03125-1.265625 1.421875-2.953125 1.421875-6.125v-11.3125zm-3.78125 1.59375c2.28125 0 3.578125 1.921875 3.578125 5.34375 0 3.28125-1.328125 5.203125-3.578125 5.203125-2.21875 0-3.5-1.9375-3.5-5.265625 0-3.3125 1.28125-5.28125 3.5-5.28125zm0 0"/></symbol><symbol id="E" overflow="visible"><path d="m7.359375 0 5.1875-13.53125h-2.421875l-3.828125 10.96875-3.609375-10.96875h-2.421875l4.75 13.53125zm0 0"/></symbol><symbol id="F" overflow="visible"><path d="m3.875-13.53125h-2.140625v13.53125h2.140625zm0-5.296875h-2.171875v2.71875h2.171875zm0 0"/></symbol><symbol id="G" overflow="visible"><path d="m13.25-6.046875c0-2.0625-.15625-3.296875-.546875-4.3125-.875-2.21875-2.9375-3.5625-5.46875-3.5625-3.765625 0-6.203125 2.875-6.203125 7.328125 0 4.46875 2.328125 7.1875 6.15625 7.1875 3.09375 0 5.234375-1.75 5.78125-4.703125h-2.171875c-.59375 1.78125-1.8125 2.71875-3.546875 2.71875-1.359375 0-2.53125-.625-3.25-1.765625-.515625-.765625-.6875-1.546875-.71875-2.890625zm-9.921875-1.75c.1875-2.515625 1.703125-4.140625 3.875-4.140625 2.203125 0 3.71875 1.703125 3.71875 4.140625zm0 0"/></symbol><symbol id="H" overflow="visible"><path d="m11.3125-9.765625c-.03125-2.65625-1.78125-4.15625-4.90625-4.15625-3.15625 0-5.1875 1.625-5.1875 4.140625 0 2.109375 1.078125 3.125 4.28125 3.890625l2.015625.5c1.5.359375 2.09375.890625 2.09375 1.859375 0 1.28125-1.265625 2.140625-3.15625 2.140625-1.15625 0-2.140625-.34375-2.6875-.90625-.328125-.390625-.484375-.78125-.609375-1.734375h-2.28125c.109375 3.125 1.859375 4.625 5.40625 4.625 3.40625 0 5.578125-1.671875 5.578125-4.28125 0-2.015625-1.140625-3.125-3.828125-3.78125l-2.0625-.484375c-1.765625-.421875-2.5-.984375-2.5-1.9375 0-1.265625 1.109375-2.046875 2.859375-2.046875 1.734375 0 2.65625.75 2.71875 2.171875zm0 0"/></symbol><symbol id="I" overflow="visible"><path d="m1.390625-18.828125v18.828125h1.9375v-1.734375c1.03125 1.578125 2.40625 2.328125 4.296875 2.328125 3.5625 0 5.890625-2.921875 5.890625-7.40625 0-4.390625-2.203125-7.109375-5.796875-7.109375-1.859375 0-3.171875.703125-4.1875 2.21875v-7.125zm5.921875 6.921875c2.40625 0 3.953125 2.09375 3.953125 5.3125 0 3.078125-1.609375 5.171875-3.953125 5.171875-2.296875 0-3.78125-2.0625-3.78125-5.234375 0-3.1875 1.484375-5.25 3.78125-5.25zm0 0"/></symbol><symbol id="J" overflow="visible"><path d="m13.8125-1.265625c-.234375.046875-.328125.046875-.453125.046875-.75 0-1.171875-.375-1.171875-1.046875v-7.96875c0-2.390625-1.75-3.6875-5.078125-3.6875-2 0-3.578125.5625-4.5 1.578125-.625.6875-.875 1.46875-.9375 2.8125h2.171875c.1875-1.65625 1.171875-2.40625 3.1875-2.40625 1.953125 0 3.015625.734375 3.015625 2.015625v.578125c-.03125.921875-.484375 1.265625-2.25 1.484375-3.046875.390625-3.515625.5-4.328125.828125-1.578125.671875-2.390625 1.859375-2.390625 3.625 0 2.453125 1.71875 4 4.453125 4 1.703125 0 3.0625-.59375 4.59375-1.984375.15625 1.390625.828125 1.984375 2.21875 1.984375.46875 0 .75-.046875 1.46875-.234375zm-3.765625-3c0 .734375-.203125 1.171875-.859375 1.765625-.875.796875-1.9375 1.203125-3.203125 1.203125-1.671875 0-2.65625-.796875-2.65625-2.171875 0-1.40625.9375-2.140625 3.265625-2.46875 2.296875-.3125 2.734375-.421875 3.453125-.75zm0 0"/></symbol><symbol id="K" overflow="visible"><path d="m1.8125-13.53125v13.53125h2.171875v-7.46875c0-2.765625 1.4375-4.5625 3.65625-4.5625 1.703125 0 2.796875 1.03125 2.796875 2.65625v9.375h2.140625v-10.234375c0-2.234375-1.671875-3.6875-4.28125-3.6875-2.015625 0-3.3125.78125-4.5 2.65625v-2.265625zm0 0"/></symbol><symbol id="L" overflow="visible"><path d="m2.25-2.6875v2.6875h1.546875v.46875c0 1.78125-.328125 2.296875-1.546875 2.34375v.984375c1.703125.046875 2.703125-1.1875 2.703125-3.390625v-3.09375zm0 0"/></symbol><symbol id="M" overflow="visible"><path d="m9.140625-16.703125h6.171875v-2.125h-14.765625v2.125h6.1875v16.703125h2.40625zm0 0"/></symbol><symbol id="N" overflow="visible"><path d="m11.4375-13.53125h-10.09375v1.875h7.546875l-8.09375 9.71875v1.9375h11v-1.890625h-8.390625l8.03125-9.734375zm0 0"/></symbol><symbol id="O" overflow="visible"><path d="m13.25-6.046875c0-2.0625-.15625-3.296875-.546875-4.3125-.875-2.21875-2.9375-3.5625-5.46875-3.5625-3.765625 0-6.203125 2.875-6.203125 7.328125 0 4.46875 2.328125 7.1875 6.15625 7.1875 3.09375 0 5.234375-1.75 5.78125-4.703125h-2.171875c-.59375 1.78125-1.8125 2.71875-3.546875 2.71875-1.359375 0-2.53125-.625-3.25-1.765625-.515625-.765625-.6875-1.546875-.71875-2.890625zm-9.921875-1.75c.1875-2.515625 1.703125-4.140625 3.875-4.140625 2.203125 0 3.71875 1.703125 3.71875 4.140625zm4.625-11.3125-2.484375 3.8125h1.5625l3.84375-3.8125zm0 0"/></symbol><symbol id="P" overflow="visible"><path d="m1.8125-13.53125v15.5c0 1.34375-.421875 1.78125-1.765625 1.78125-.15625 0-.234375 0-.515625-.03125v1.828125c.265625.0625.390625.078125.734375.078125 2.421875 0 3.6875-.953125 3.6875-2.8125v-16.34375zm2.140625-5.296875h-2.140625v2.71875h2.140625zm0 0"/></symbol><symbol id="Q" overflow="visible"><path d="m1.78125-13.53125v13.53125h2.171875v-7.03125c.03125-3.25 1.375-4.6875 4.34375-4.625v-2.1875c-.375-.046875-.578125-.078125-.828125-.078125-1.40625 0-2.453125.828125-3.703125 2.84375v-2.453125zm0 0"/></symbol><symbol id="R" overflow="visible"><path d="m6.5625-13.53125h-2.21875v-3.71875h-2.140625v3.71875h-1.84375v1.75h1.84375v10.234375c0 1.390625.921875 2.140625 2.59375 2.140625.578125 0 1.046875-.046875 1.765625-.1875v-1.796875c-.3125.078125-.59375.09375-1.03125.09375-.9375 0-1.1875-.25-1.1875-1.203125v-9.28125h2.21875zm0 0"/></symbol><symbol id="S" overflow="visible"><path d="m1.8125-18.828125v18.828125h2.140625v-7.46875c0-2.765625 1.4375-4.5625 3.671875-4.5625.71875 0 1.390625.203125 1.90625.59375.625.453125.875 1.109375.875 2.0625v9.375h2.140625v-10.234375c0-2.265625-1.625-3.6875-4.25-3.6875-1.921875 0-3.078125.59375-4.34375 2.25v-7.15625zm0 0"/></symbol><symbol id="T" overflow="visible"><path d="m12.09375 0 5.28125-15.78125v15.78125h2.28125v-18.828125h-3.328125l-5.484375 16.40625-5.578125-16.40625h-3.328125v18.828125h2.265625v-15.78125l5.359375 15.78125zm0 0"/></symbol><symbol id="U" overflow="visible"><path d="m3.640625-18.828125h-2.140625v18.828125h2.140625v-5.265625l2.09375-2.0625 4.578125 7.328125h2.65625l-5.53125-8.859375 4.703125-4.671875h-2.765625l-5.734375 5.734375zm0 0"/></symbol><symbol id="V" overflow="visible"><path d="m6.65625-13.53125h-2.234375v-2.125c0-.90625.484375-1.359375 1.5-1.359375.171875 0 .25 0 .734375.015625v-1.78125c-.484375-.09375-.765625-.125-1.203125-.125-1.984375 0-3.1875 1.140625-3.1875 3.078125v2.296875h-1.796875v1.75h1.796875v11.78125h2.15625v-11.78125h2.234375zm0 0"/></symbol><symbol id="W" overflow="visible"><path d="m7.03125-13.921875c-3.828125 0-6.09375 2.71875-6.09375 7.265625 0 4.5625 2.265625 7.25 6.109375 7.25 3.828125 0 6.125-2.71875 6.125-7.15625 0-4.703125-2.21875-7.359375-6.140625-7.359375zm.015625 1.984375c2.4375 0 3.875 2 3.875 5.34375 0 3.203125-1.5 5.203125-3.875 5.203125-2.390625 0-3.875-2-3.875-5.265625 0-3.28125 1.484375-5.28125 3.875-5.28125zm-.75-6.53125h-2.6875v2.65625h2.6875zm4.1875 0h-2.6875v2.65625h2.6875zm0 0"/></symbol><symbol id="X" overflow="visible"><path d="m12.78125-18.828125h-2.140625v7c-.90625-1.375-2.34375-2.09375-4.15625-2.09375-3.515625 0-5.8125 2.8125-5.8125 7.125 0 4.578125 2.21875 7.390625 5.890625 7.390625 1.859375 0 3.15625-.703125 4.3125-2.375v1.78125h1.90625zm-5.9375 6.921875c2.328125 0 3.796875 2.046875 3.796875 5.296875 0 3.125-1.5 5.1875-3.765625 5.1875-2.375 0-3.953125-2.09375-3.953125-5.234375 0-3.15625 1.578125-5.25 3.921875-5.25zm0 0"/></symbol><symbol id="Y" overflow="visible"><path d="m12.453125 0v-13.53125h-2.140625v7.671875c0 2.765625-1.453125 4.5625-3.703125 4.5625-1.703125 0-2.78125-1.03125-2.78125-2.65625v-9.578125h-2.15625v10.4375c0 2.234375 1.6875 3.6875 4.3125 3.6875 2 0 3.265625-.703125 4.53125-2.484375v1.890625zm0 0"/></symbol><symbol id="Z" overflow="visible"><path d="m4.4375-6.59375 3.078125-3.0625 6.640625 9.65625h2.84375l-7.75-11.15625 7.671875-7.671875h-3.109375l-9.375 9.53125v-9.53125h-2.390625v18.828125h2.390625zm0 0"/></symbol><symbol id="aa" overflow="visible"><path d="m10.046875-19.140625c-5.390625 0-9.0625 3.984375-9.0625 9.875 0 5.90625 3.640625 9.859375 9.09375 9.859375 2.296875 0 4.3125-.703125 5.828125-1.984375 2.046875-1.734375 3.265625-4.65625 3.265625-7.734375 0-6.0625-3.59375-10.015625-9.125-10.015625zm0 2.125c4.078125 0 6.71875 3.0625 6.71875 7.84375 0 4.546875-2.71875 7.640625-6.6875 7.640625-4.03125 0-6.6875-3.09375-6.6875-7.734375 0-4.65625 2.65625-7.75 6.65625-7.75zm-.71875-6.59375h-2.6875v2.65625h2.6875zm4.1875 0h-2.6875v2.65625h2.6875zm0 0"/></symbol><symbol id="ab" overflow="visible"><path d="m12.453125 0v-13.53125h-2.140625v7.671875c0 2.765625-1.453125 4.5625-3.703125 4.5625-1.703125 0-2.78125-1.03125-2.78125-2.65625v-9.578125h-2.15625v10.4375c0 2.234375 1.6875 3.6875 4.3125 3.6875 2 0 3.265625-.703125 4.53125-2.484375v1.890625zm-6.125-18.46875h-2.6875v2.65625h2.6875zm4.1875 0h-2.6875v2.65625h2.6875zm0 0"/></symbol><symbol id="ac" overflow="visible"><path d="m10.015625-13.53125-3.734375 10.53125-3.46875-10.53125h-2.296875l4.578125 13.578125-.828125 2.15625c-.359375.953125-.828125 1.3125-1.734375 1.3125-.359375 0-.671875-.046875-1.140625-.15625v1.9375c.4375.234375.875.328125 1.453125.328125.6875 0 1.4375-.234375 2.015625-.640625.671875-.484375 1.0625-1.0625 1.46875-2.140625l6.015625-16.375zm0 0"/></symbol><symbol id="ad" overflow="visible"><path d="m4.9375-2.6875h-2.6875v2.6875h2.6875zm0 0"/></symbol><symbol id="ae" overflow="visible"><path d="m15.390625-13.296875c0-1.296875-.078125-1.65625-.484375-2.53125-1.03125-2.171875-3.234375-3.3125-6.40625-3.3125-4.140625 0-6.6875 2.125-6.6875 5.53125 0 2.296875 1.203125 3.75 3.6875 4.390625l4.671875 1.234375c2.40625.625 3.46875 1.578125 3.46875 3.046875 0 1.015625-.546875 2.046875-1.34375 2.609375-.75.546875-1.9375.796875-3.46875.796875-2.0625 0-3.4375-.484375-4.328125-1.5625-.703125-.828125-1.015625-1.734375-.984375-2.890625h-2.28125c.03125 1.71875.359375 2.859375 1.109375 3.890625 1.296875 1.78125 3.46875 2.6875 6.328125 2.6875 2.25 0 4.09375-.515625 5.296875-1.453125 1.265625-1 2.078125-2.671875 2.078125-4.3125 0-2.3125-1.453125-4.015625-4.015625-4.71875l-4.71875-1.265625c-2.28125-.625-3.109375-1.34375-3.109375-2.796875 0-1.90625 1.6875-3.171875 4.21875-3.171875 3 0 4.671875 1.34375 4.703125 3.828125zm0 0"/></symbol><symbol id="af" overflow="visible"><path d="m12.453125 0v-13.53125h-2.140625v7.671875c0 2.765625-1.453125 4.5625-3.703125 4.5625-1.703125 0-2.78125-1.03125-2.78125-2.65625v-9.578125h-2.15625v10.4375c0 2.234375 1.6875 3.6875 4.3125 3.6875 2 0 3.265625-.703125 4.53125-2.484375v1.890625zm-6.171875-19.109375-2.484375 3.875h1.546875l3.84375-3.875zm4.484375 0-2.46875 3.875h1.546875l3.84375-3.875zm0 0"/></symbol><symbol id="ag" overflow="visible"><path d="m7.03125-13.921875c-3.828125 0-6.09375 2.71875-6.09375 7.265625 0 4.5625 2.265625 7.25 6.109375 7.25 3.828125 0 6.125-2.71875 6.125-7.15625 0-4.703125-2.21875-7.359375-6.140625-7.359375zm.015625 1.984375c2.4375 0 3.875 2 3.875 5.34375 0 3.203125-1.5 5.203125-3.875 5.203125-2.390625 0-3.875-2-3.875-5.265625 0-3.28125 1.484375-5.28125 3.875-5.28125zm-.84375-7.171875-2.515625 3.875h1.5625l3.84375-3.875zm4.484375 0-2.5 3.875h1.546875l3.84375-3.875zm0 0"/></symbol><symbol id="ah" overflow="visible"><path d="m5.484375-11.25v11.25h3.21875v-16.3125h-2.140625c-.515625 1.921875-2.1875 2.921875-5 2.921875v2.140625zm0 0"/></symbol><symbol id="ai" overflow="visible"><path d="m4.921875-3.359375h-3.453125v3.359375h3.453125zm0 0"/></symbol><path d="m2562.890625 4502.145313h187.578125" fill="none" stroke="#000" stroke-linecap="round" stroke-miterlimit="10" stroke-width="17.323" transform="matrix(.1 0 0 -.1 0 531.57)"/><g clip-path="url(#a)"><path d="m3.4375 4606.754688h5945.898438" fill="none" stroke="#000" stroke-linecap="round" stroke-miterlimit="10" stroke-width="6.86227" transform="matrix(.1 0 0 -.1 0 531.57)"/></g><g clip-path="url(#b)"><path d="m3.4375 4711.364063h5945.898438" fill="none" stroke="#000" stroke-linecap="round" stroke-miterlimit="10" stroke-width="6.86227" transform="matrix(.1 0 0 -.1 0 531.57)"/></g><g clip-path="url(#c)"><path d="m3.4375 4815.973438h5945.898438" fill="none" stroke="#000" stroke-linecap="round" stroke-miterlimit="10" stroke-width="6.86227" transform="matrix(.1 0 0 -.1 0 531.57)"/></g><g clip-path="url(#d)"><path d="m3.4375 4920.582813h5945.898438" fill="none" stroke="#000" stroke-linecap="round" stroke-miterlimit="10" stroke-width="6.86227" transform="matrix(.1 0 0 -.1 0 531.57)"/></g><g clip-path="url(#e)"><path d="m3.4375 5025.192188h5945.898438" fill="none" stroke="#000" stroke-linecap="round" stroke-miterlimit="10" stroke-width="6.86227" transform="matrix(.1 0 0 -.1 0 531.57)"/></g><g clip-path="url(#f)"><path d="m5946.25 4606.754688v418.4375" fill="none" stroke="#000" stroke-miterlimit="10" stroke-width="13.0341" transform="matrix(.1 0 0 -.1 0 531.57)"/></g><use x="393.564" xlink:href="#y" y="65.664"/><use x="449.271" xlink:href="#B" y="108.1995"/><use x="455.053449" xlink:href="#C" y="108.1995"/><use x="469.339796" xlink:href="#D" y="108.1995"/><use x="459.6198" xlink:href="#y" y="70.894"/><use x="391.0397" xlink:href="#E" y="108.1995"/><use x="403.966275" xlink:href="#F" y="108.1995"/><use x="315.225589" xlink:href="#B" y="108.1995"/><use x="321.008014" xlink:href="#G" y="108.1995"/><use x="335.294361" xlink:href="#H" y="108.1995"/><use x="324.8932" xlink:href="#y" y="76.1245"/><path d="m974.804688 4304.45h63.554687v3.4375h-63.554687zm0 0" fill="none" stroke="#000" stroke-linejoin="round" stroke-miterlimit="10" stroke-width="5.49191" transform="matrix(.1 0 0 -.1 0 531.57)"/><path d="m97.480469 101.125h6.355469v-.34375h-6.355469zm0 0"/><path d="m2973.046875 4304.45h63.554687v3.4375h-63.554687zm0 0" fill="none" stroke="#000" stroke-linejoin="round" stroke-miterlimit="10" stroke-width="5.49191" transform="matrix(.1 0 0 -.1 0 531.57)"/><path d="m297.304688 101.125h6.355468v-.34375h-6.355468zm0 0"/><path d="m4263.320312 4304.45h63.554688v3.4375h-63.554688zm0 0" fill="none" stroke="#000" stroke-linejoin="round" stroke-miterlimit="10" stroke-width="5.49191" transform="matrix(.1 0 0 -.1 0 531.57)"/><path d="m426.332031 101.125h6.355469v-.34375h-6.355469zm0 0"/><path d="m4923.867188 4304.45h63.554687v3.4375h-63.554687zm0 0" fill="none" stroke="#000" stroke-linejoin="round" stroke-miterlimit="10" stroke-width="5.49191" transform="matrix(.1 0 0 -.1 0 531.57)"/><path d="m492.386719 101.125h6.355469v-.34375h-6.355469zm0 0"/><use x="525.675" xlink:href="#y" y="76.124"/><use x="507.5039" xlink:href="#I" y="108.199"/><use x="521.789856" xlink:href="#J" y="108.199"/><use x="536.076203" xlink:href="#K" y="108.199"/><use x="550.36255" xlink:href="#L" y="108.199"/><use x="60.6729" xlink:href="#y" y="76.124"/><use x="21.0702" xlink:href="#ah" y="108.199"/><use x="33.826067" xlink:href="#ai" y="108.199"/><use x="50.7495" xlink:href="#M" y="108.199"/><use x="64.185458" xlink:href="#G" y="108.199"/><use x="78.471811" xlink:href="#B" y="108.199"/><use x="8.369" xlink:href="#z" y="60.433"/><use x="245.599" xlink:href="#H" y="108.199"/><use x="258.525184" xlink:href="#N" y="108.199"/><use x="271.451759" xlink:href="#O" y="108.199"/><use x="258.8381" xlink:href="#y" y="81.3545"/><use x="192.4697" xlink:href="#G" y="108.199"/><use x="192.783372" xlink:href="#y" y="76.124"/><use x="117.059972" xlink:href="#P" y="108.199"/><use x="122.842799" xlink:href="#G" y="108.199"/><use x="137.129147" xlink:href="#H" y="108.199"/><use x="126.727942" xlink:href="#y" y="76.124"/><g clip-path="url(#g)"><path d="m3.4375 3351.48125h5945.898438" style="fill:none;stroke-width:6.86227;stroke-linecap:round;stroke-linejoin:round;stroke:#000;stroke-miterlimit:10" transform="matrix(.1 0 0 -.1 0 531.57)"/></g><g clip-path="url(#h)"><path d="m3.4375 3456.051563h5945.898438" style="fill:none;stroke-width:6.86227;stroke-linecap:round;stroke-linejoin:round;stroke:#000;stroke-miterlimit:10" transform="matrix(.1 0 0 -.1 0 531.57)"/></g><g clip-path="url(#i)"><path d="m3.4375 3560.660938h5945.898438" style="fill:none;stroke-width:6.86227;stroke-linecap:round;stroke-linejoin:round;stroke:#000;stroke-miterlimit:10" transform="matrix(.1 0 0 -.1 0 531.57)"/></g><g clip-path="url(#j)"><path d="m3.4375 3665.309375h5945.898438" style="fill:none;stroke-width:6.86227;stroke-linecap:round;stroke-linejoin:round;stroke:#000;stroke-miterlimit:10" transform="matrix(.1 0 0 -.1 0 531.57)"/></g><g clip-path="url(#k)"><path d="m3.4375 3769.91875h5945.898438" style="fill:none;stroke-width:6.86227;stroke-linecap:round;stroke-linejoin:round;stroke:#000;stroke-miterlimit:10" transform="matrix(.1 0 0 -.1 0 531.57)"/></g><g clip-path="url(#l)"><path d="m5946.25 3351.48125v418.4375" fill="none" stroke="#000" stroke-linejoin="round" stroke-miterlimit="10" stroke-width="13.0341" transform="matrix(.1 0 0 -.1 0 531.57)"/></g><use x="296.93" xlink:href="#y" y="191.193"/><use x="474.123" xlink:href="#y" y="180.7321"/><use x="415.0582" xlink:href="#Q" y="233.036"/><use x="423.561707" xlink:href="#C" y="233.036"/><use x="415.0582" xlink:href="#y" y="185.9626"/><use x="352.1086" xlink:href="#R" y="233.036"/><use x="359.252359" xlink:href="#C" y="233.036"/><use x="355.99376" xlink:href="#y" y="185.9626"/><use x="289.47266" xlink:href="#S" y="233.036"/><use x="303.759007" xlink:href="#J" y="233.036"/><path d="m935.585938 3056.051563h63.554687v3.4375h-63.554687zm0 0" fill="none" stroke="#000" stroke-linejoin="round" stroke-miterlimit="10" stroke-width="5.49191" transform="matrix(.1 0 0 -.1 0 531.57)"/><path d="m93.558594 225.964844h6.355468v-.34375h-6.355468zm0 0"/><path d="m2119.414062 3056.051563h63.554688v3.4375h-63.554688zm0 0" fill="none" stroke="#000" stroke-linejoin="round" stroke-miterlimit="10" stroke-width="5.49191" transform="matrix(.1 0 0 -.1 0 531.57)"/><path d="m211.941406 225.964844h6.355469v-.34375h-6.355469zm0 0"/><path d="m3318.984375 3056.051563h63.554687v3.4375h-63.554687zm0 0" fill="none" stroke="#000" stroke-linejoin="round" stroke-miterlimit="10" stroke-width="5.49191" transform="matrix(.1 0 0 -.1 0 531.57)"/><path d="m331.898438 225.964844h6.355468v-.34375h-6.355468zm0 0"/><path d="m3911.210938 3056.051563h63.554687v3.4375h-63.554687zm0 0" fill="none" stroke="#000" stroke-linejoin="round" stroke-miterlimit="10" stroke-width="5.49191" transform="matrix(.1 0 0 -.1 0 531.57)"/><path d="m391.121094 225.964844h6.355468v-.34375h-6.355468zm0 0"/><path d="m4224.101562 3331.715625c143.90625-100.234375 473.242188-62.304687 590.625 67.96875-118.320312-122.109375-447.65625-160-590.625-67.96875zm0 0" style="fill:none;stroke-width:5.48799;stroke-linecap:round;stroke-linejoin:round;stroke:#000;stroke-miterlimit:10" transform="matrix(.1 0 0 -.1 0 531.57)"/><path d="m422.410156 198.398438c14.390625 10.023437 47.324219 6.230468 59.0625-6.796876-11.832031 12.210938-44.765625 16-59.0625 6.796876"/><path d="m4732.539062 3056.051563h63.554688v3.4375h-63.554688zm0 0" fill="none" stroke="#000" stroke-linejoin="round" stroke-miterlimit="10" stroke-width="5.49191" transform="matrix(.1 0 0 -.1 0 531.57)"/><path d="m473.253906 225.964844h6.355469v-.34375h-6.355469zm0 0"/><use x="515.015" xlink:href="#I" y="233.036"/><use x="529.301347" xlink:href="#J" y="233.036"/><use x="543.587694" xlink:href="#K" y="233.036"/><use x="557.874041" xlink:href="#L" y="233.036"/><use x="533.1865" xlink:href="#y" y="180.7321"/><use x="8.3685" xlink:href="#z" y="185.96257"/><use x="46.6673" xlink:href="#T" y="233.03597"/><use x="68.267725" xlink:href="#F" y="233.03597"/><use x="74.050546" xlink:href="#K" y="233.03597"/><use x="60.6724" xlink:href="#y" y="201.65357"/><use x="223.9454" xlink:href="#K" y="233.03597"/><use x="238.231747" xlink:href="#G" y="233.03597"/><use x="252.518094" xlink:href="#U" y="233.03597"/><use x="164.966373" xlink:href="#V" y="233.03597"/><use x="171.939429" xlink:href="#W" y="233.03597"/><use x="186.225776" xlink:href="#B" y="233.03597"/><use x="192.008603" xlink:href="#X" y="233.03597"/><use x="178.8009" xlink:href="#y" y="191.19297"/><use x="237.8657" xlink:href="#y" y="185.9625"/><use x="105.1367" xlink:href="#X" y="233.0359"/><use x="119.423047" xlink:href="#G" y="233.0359"/><use x="133.709394" xlink:href="#K" y="233.0359"/><use x="119.7367" xlink:href="#y" y="196.423"/><g clip-path="url(#m)"><path d="m3.4375 2096.16875h5945.898438" style="fill:none;stroke-width:6.86227;stroke-linecap:round;stroke-linejoin:round;stroke:#000;stroke-miterlimit:10" transform="matrix(.1 0 0 -.1 0 531.57)"/></g><g clip-path="url(#n)"><path d="m3.4375 2200.778125h5945.898438" style="fill:none;stroke-width:6.86227;stroke-linecap:round;stroke-linejoin:round;stroke:#000;stroke-miterlimit:10" transform="matrix(.1 0 0 -.1 0 531.57)"/></g><g clip-path="url(#o)"><path d="m3.4375 2305.3875h5945.898438" style="fill:none;stroke-width:6.86227;stroke-linecap:round;stroke-linejoin:round;stroke:#000;stroke-miterlimit:10" transform="matrix(.1 0 0 -.1 0 531.57)"/></g><g clip-path="url(#p)"><path d="m3.4375 2409.996875h5945.898438" style="fill:none;stroke-width:6.86227;stroke-linecap:round;stroke-linejoin:round;stroke:#000;stroke-miterlimit:10" transform="matrix(.1 0 0 -.1 0 531.57)"/></g><g clip-path="url(#q)"><path d="m3.4375 2514.60625h5945.898438" style="fill:none;stroke-width:6.86227;stroke-linecap:round;stroke-linejoin:round;stroke:#000;stroke-miterlimit:10" transform="matrix(.1 0 0 -.1 0 531.57)"/></g><g clip-path="url(#r)"><path d="m5946.25 2096.16875v418.4375" fill="none" stroke="#000" stroke-linejoin="round" stroke-miterlimit="10" stroke-width="13.0341" transform="matrix(.1 0 0 -.1 0 531.57)"/></g><use x="298.409" xlink:href="#y" y="316.722"/><use x="474.402" xlink:href="#y" y="321.95208"/><use x="415.7379" xlink:href="#R" y="358.56498"/><use x="422.881684" xlink:href="#Y" y="358.56498"/><use x="437.168031" xlink:href="#H" y="358.56498"/><use x="415.7379" xlink:href="#y" y="316.72198"/><use x="335.1598" xlink:href="#Z" y="358.56498"/><use x="352.337176" xlink:href="#Q" y="358.56498"/><use x="361.011411" xlink:href="#F" y="358.56498"/><use x="366.794226" xlink:href="#H" y="358.56498"/><use x="379.72041" xlink:href="#N" y="358.56498"/><use x="357.0731" xlink:href="#y" y="311.49158"/><use x="298.095" xlink:href="#J" y="358.56498"/><path d="m905.9375 1800.778125h63.554688v3.4375h-63.554688zm0 0" fill="none" stroke="#000" stroke-linejoin="round" stroke-miterlimit="10" stroke-width="5.49191" transform="matrix(.1 0 0 -.1 0 531.57)"/><path d="m90.59375 351.492188h6.355469v-.34375h-6.355469zm0 0"/><path d="m1522.773438 1800.778125h63.554687v3.4375h-63.554687zm0 0" fill="none" stroke="#000" stroke-linejoin="round" stroke-miterlimit="10" stroke-width="5.49191" transform="matrix(.1 0 0 -.1 0 531.57)"/><path d="m152.277344 351.492188h6.355468v-.34375h-6.355468zm0 0"/><path d="m2106.015625 1800.778125h63.554687v3.4375h-63.554687zm0 0" fill="none" stroke="#000" stroke-linejoin="round" stroke-miterlimit="10" stroke-width="5.49191" transform="matrix(.1 0 0 -.1 0 531.57)"/><path d="m210.601562 351.492188h6.355469v-.34375h-6.355469zm0 0"/><path d="m4010.15625 1800.778125h63.554688v3.4375h-63.554688zm0 0" fill="none" stroke="#000" stroke-linejoin="round" stroke-miterlimit="10" stroke-width="5.49191" transform="matrix(.1 0 0 -.1 0 531.57)"/><path d="m401.015625 351.492188h6.351563v-.34375h-6.351563zm0 0"/><path d="m4221.640625 2039.801563c119.882813-126.523438 446.25-155.625 586.640625-52.304688-139.648438-95.15625-466.015625-66.054687-586.640625 52.304688zm0 0" style="fill:none;stroke-width:5.48799;stroke-linecap:round;stroke-linejoin:round;stroke:#000;stroke-miterlimit:10" transform="matrix(.1 0 0 -.1 0 531.57)"/><path d="m422.164062 327.589844c11.988282 12.652344 44.625 15.5625 58.664063 5.230468-13.964844 9.515626-46.601563 6.605469-58.664063-5.230468"/><path d="m4793.164062 1800.778125h63.554688v3.4375h-63.554688zm0 0" fill="none" stroke="#000" stroke-linejoin="round" stroke-miterlimit="10" stroke-width="5.49191" transform="matrix(.1 0 0 -.1 0 531.57)"/><path d="m479.316406 351.492188h6.355469v-.34375h-6.355469zm0 0"/><use x="514.895" xlink:href="#I" y="358.565"/><use x="529.181347" xlink:href="#J" y="358.565"/><use x="543.467694" xlink:href="#K" y="358.565"/><use x="557.754041" xlink:href="#L" y="358.565"/><use x="533.0665" xlink:href="#y" y="327.1826"/><use x="8.3685" xlink:href="#z" y="311.4916"/><use x="53.1298" xlink:href="#aa" y="358.565"/><use x="73.198974" xlink:href="#Q" y="358.565"/><use x="60.67238" xlink:href="#y" y="306.2611"/><use x="222.14738" xlink:href="#N" y="358.565"/><use x="234.732938" xlink:href="#ab" y="358.565"/><use x="249.019285" xlink:href="#K" y="358.565"/><use x="263.305242" xlink:href="#U" y="358.565"/><use x="164.250041" xlink:href="#X" y="358.565"/><use x="178.536388" xlink:href="#G" y="358.565"/><use x="192.48289" xlink:href="#N" y="358.565"/><use x="177.99968" xlink:href="#y" y="311.4916"/><use x="242.35988" xlink:href="#y" y="306.26113"/><use x="105.67188" xlink:href="#E" y="358.56503"/><use x="118.08792" xlink:href="#G" y="358.56503"/><use x="132.373876" xlink:href="#K" y="358.56503"/><use x="119.33558" xlink:href="#y" y="306.26113"/><g clip-path="url(#s)"><path d="m3.4375 840.895313h5945.898438" style="fill:none;stroke-width:6.86227;stroke-linecap:round;stroke-linejoin:round;stroke:#000;stroke-miterlimit:10" transform="matrix(.1 0 0 -.1 0 531.57)"/></g><g clip-path="url(#t)"><path d="m3.4375 945.504688h5945.898438" style="fill:none;stroke-width:6.86227;stroke-linecap:round;stroke-linejoin:round;stroke:#000;stroke-miterlimit:10" transform="matrix(.1 0 0 -.1 0 531.57)"/></g><g clip-path="url(#u)"><path d="m3.4375 1050.114063h5945.898438" style="fill:none;stroke-width:6.86227;stroke-linecap:round;stroke-linejoin:round;stroke:#000;stroke-miterlimit:10" transform="matrix(.1 0 0 -.1 0 531.57)"/></g><g clip-path="url(#v)"><path d="m3.4375 1154.684375h5945.898438" style="fill:none;stroke-width:6.86227;stroke-linecap:round;stroke-linejoin:round;stroke:#000;stroke-miterlimit:10" transform="matrix(.1 0 0 -.1 0 531.57)"/></g><g clip-path="url(#w)"><path d="m3.4375 1259.29375h5945.898438" style="fill:none;stroke-width:6.86227;stroke-linecap:round;stroke-linejoin:round;stroke:#000;stroke-miterlimit:10" transform="matrix(.1 0 0 -.1 0 531.57)"/></g><path d="m4277.148438 736.285938h187.578124" style="fill:none;stroke-width:17.323;stroke-linecap:round;stroke-linejoin:round;stroke:#000;stroke-miterlimit:10" transform="matrix(.1 0 0 -.1 0 531.57)"/><path d="m1171.25 736.285938h187.578125" style="fill:none;stroke-width:17.323;stroke-linecap:round;stroke-linejoin:round;stroke:#000;stroke-miterlimit:10" transform="matrix(.1 0 0 -.1 0 531.57)"/><g clip-path="url(#x)"><path d="m5932.1875 840.895313v418.398437" fill="none" stroke="#000" stroke-linejoin="round" stroke-miterlimit="10" stroke-width="41.1631" transform="matrix(.1 0 0 -.1 0 531.57)"/></g><path d="m5884.492188 840.895313v418.398437" fill="none" stroke="#000" stroke-linejoin="round" stroke-miterlimit="10" stroke-width="13.0341" transform="matrix(.1 0 0 -.1 0 531.57)"/><use x="482.027" xlink:href="#y" y="452.7122"/><use x="430.2618" xlink:href="#Q" y="498.227"/><use x="438.765307" xlink:href="#C" y="498.227"/><use x="453.051654" xlink:href="#B" y="498.227"/><use x="458.663791" xlink:href="#ac" y="498.227"/><use x="430.2618" xlink:href="#y" y="457.9426"/><use x="373.847" xlink:href="#Z" y="498.227"/><use x="391.024376" xlink:href="#F" y="498.227"/><use x="378.49778" xlink:href="#y" y="452.7122"/><use x="329.34778" xlink:href="#y" y="437.0212"/><path d="m1013.515625 404.176563h63.554687v3.4375h-63.554687zm0 0" fill="none" stroke="#000" stroke-linejoin="round" stroke-miterlimit="10" stroke-width="5.49191" transform="matrix(.1 0 0 -.1 0 531.57)"/><path d="m101.351562 491.152344h6.355469v-.339844h-6.355469zm0 0"/><path d="m2072.148438 404.176563h63.515624v3.4375h-63.515624zm0 0" fill="none" stroke="#000" stroke-linejoin="round" stroke-miterlimit="10" stroke-width="5.49191" transform="matrix(.1 0 0 -.1 0 531.57)"/><path d="m207.214844 491.152344h6.351562v-.339844h-6.351562zm0 0"/><path d="m2569.53125 404.176563h63.554688v3.4375h-63.554688zm0 0" fill="none" stroke="#000" stroke-linejoin="round" stroke-miterlimit="10" stroke-width="5.49191" transform="matrix(.1 0 0 -.1 0 531.57)"/><path d="m256.953125 491.152344h6.355469v-.339844h-6.355469zm0 0"/><path d="m2847.34375 784.489063c126.796875-98.242188 405.9375-78.515625 517.65625 36.640625-112.304688-106.953125-391.40625-126.679688-517.65625-36.640625zm0 0" style="fill:none;stroke-width:5.48799;stroke-linecap:round;stroke-linejoin:round;stroke:#000;stroke-miterlimit:10" transform="matrix(.1 0 0 -.1 0 531.57)"/><path d="m284.734375 453.121094c12.679687 9.824218 40.59375 7.851562 51.765625-3.664063-11.230469 10.695313-39.140625 12.667969-51.765625 3.664063"/><path d="m4103.554688 404.176563h63.554687v3.4375h-63.554687zm0 0" fill="none" stroke="#000" stroke-linejoin="round" stroke-miterlimit="10" stroke-width="5.49191" transform="matrix(.1 0 0 -.1 0 531.57)"/><path d="m410.355469 491.152344h6.355469v-.339844h-6.355469zm0 0"/><path d="m4375.507812 627.614063c129.960938-94.570313 409.21875-66.367188 517.617188 52.304687-109.21875-110.46875-388.515625-138.710937-517.617188-52.304687zm0 0" style="fill:none;stroke-width:5.48799;stroke-linecap:round;stroke-linejoin:round;stroke:#000;stroke-miterlimit:10" transform="matrix(.1 0 0 -.1 0 531.57)"/><path d="m437.550781 468.808594c12.996094 9.457031 40.921875 6.636718 51.761719-5.230469-10.921875 11.046875-38.851562 13.871094-51.761719 5.230469"/><path d="m4904.296875 404.176563h63.515625v3.4375h-63.515625zm0 0" fill="none" stroke="#000" stroke-linejoin="round" stroke-miterlimit="10" stroke-width="5.49191" transform="matrix(.1 0 0 -.1 0 531.57)"/><path d="m490.429688 491.152344h6.351562v-.339844h-6.351562zm0 0"/><use x="515.62" xlink:href="#I" y="498.227"/><use x="529.906347" xlink:href="#J" y="498.227"/><use x="544.192303" xlink:href="#K" y="498.227"/><use x="558.47865" xlink:href="#ad" y="498.227"/><use x="540.6223" xlink:href="#A" y="402.534"/><use x="533.79222" xlink:href="#y" y="452.7121"/><use x="119.67422" xlink:href="#y" y="457.94257"/><use x="38.84412" xlink:href="#ae" y="498.22697"/><use x="56.02149" xlink:href="#N" y="498.22697"/><use x="68.948071" xlink:href="#af" y="498.22697"/><use x="83.234424" xlink:href="#N" y="498.22697"/><use x="60.67262" xlink:href="#y" y="452.71217"/><use x="277.58362" xlink:href="#R" y="498.22697"/><use x="284.386362" xlink:href="#G" y="498.22697"/><use x="298.503178" xlink:href="#R" y="498.22697"/><use x="306.156312" xlink:href="#R" y="498.22697"/><use x="8.36862" xlink:href="#z" y="437.02107"/><use x="277.58362" xlink:href="#y" y="442.25115"/><use x="222.61332" xlink:href="#B" y="498.22695"/><use x="228.396135" xlink:href="#G" y="498.22695"/><use x="225.8184" xlink:href="#y" y="442.25115"/><use x="112.8974" xlink:href="#R" y="498.22695"/><use x="120.040769" xlink:href="#ag" y="498.22695"/><use x="134.327116" xlink:href="#B" y="498.22695"/><use x="171.4388" xlink:href="#y" y="452.71215"/><use x="158.3693" xlink:href="#H" y="498.22695"/><use x="171.295496" xlink:href="#N" y="498.22695"/><use x="183.881067" xlink:href="#ab" y="498.22695"/></svg>