<svg height="776.01em" viewBox="0 0 595.28 776.01" width="595.28em" xmlns="http://www.w3.org/2000/svg" xmlns:xlink="http://www.w3.org/1999/xlink"><clipPath id="a"><path d="m0 70h595.28125v2h-595.28125zm0 0"/></clipPath><clipPath id="b"><path d="m0 60h595.28125v1h-595.28125zm0 0"/></clipPath><clipPath id="c"><path d="m0 49h595.28125v2h-595.28125zm0 0"/></clipPath><clipPath id="d"><path d="m0 39h595.28125v1h-595.28125zm0 0"/></clipPath><clipPath id="e"><path d="m0 28h595.28125v2h-595.28125zm0 0"/></clipPath><clipPath id="f"><path d="m593 28h2.28125v44h-2.28125zm0 0"/></clipPath><clipPath id="g"><path d="m0 196h595.28125v1h-595.28125zm0 0"/></clipPath><clipPath id="h"><path d="m0 185h595.28125v2h-595.28125zm0 0"/></clipPath><clipPath id="i"><path d="m0 175h595.28125v1h-595.28125zm0 0"/></clipPath><clipPath id="j"><path d="m0 164h595.28125v2h-595.28125zm0 0"/></clipPath><clipPath id="k"><path d="m0 154h595.28125v1h-595.28125zm0 0"/></clipPath><clipPath id="l"><path d="m593 153h2.28125v45h-2.28125zm0 0"/></clipPath><clipPath id="m"><path d="m0 321h595.28125v2h-595.28125zm0 0"/></clipPath><clipPath id="n"><path d="m0 311h595.28125v1h-595.28125zm0 0"/></clipPath><clipPath id="o"><path d="m0 300h595.28125v2h-595.28125zm0 0"/></clipPath><clipPath id="p"><path d="m0 290h595.28125v1h-595.28125zm0 0"/></clipPath><clipPath id="q"><path d="m0 279h595.28125v2h-595.28125zm0 0"/></clipPath><clipPath id="r"><path d="m591 278h4.28125v47h-4.28125zm0 0"/></clipPath><clipPath id="s"><path d="m0 454h595.28125v2h-595.28125zm0 0"/></clipPath><clipPath id="t"><path d="m0 444h595.28125v1h-595.28125zm0 0"/></clipPath><clipPath id="u"><path d="m0 433h595.28125v2h-595.28125zm0 0"/></clipPath><clipPath id="v"><path d="m0 423h595.28125v1h-595.28125zm0 0"/></clipPath><clipPath id="w"><path d="m0 412h595.28125v2h-595.28125zm0 0"/></clipPath><clipPath id="x"><path d="m593 412h2.28125v44h-2.28125zm0 0"/></clipPath><clipPath id="y"><path d="m0 580h595.28125v1h-595.28125zm0 0"/></clipPath><clipPath id="z"><path d="m0 569h595.28125v2h-595.28125zm0 0"/></clipPath><clipPath id="A"><path d="m0 559h595.28125v1h-595.28125zm0 0"/></clipPath><clipPath id="B"><path d="m0 548h595.28125v2h-595.28125zm0 0"/></clipPath><clipPath id="C"><path d="m0 538h595.28125v1h-595.28125zm0 0"/></clipPath><clipPath id="D"><path d="m593 537h2.28125v45h-2.28125zm0 0"/></clipPath><clipPath id="E"><path d="m0 705h595.28125v2h-595.28125zm0 0"/></clipPath><clipPath id="F"><path d="m0 695h595.28125v1h-595.28125zm0 0"/></clipPath><clipPath id="G"><path d="m0 684h595.28125v2h-595.28125zm0 0"/></clipPath><clipPath id="H"><path d="m0 674h595.28125v1h-595.28125zm0 0"/></clipPath><clipPath id="I"><path d="m0 663h595.28125v2h-595.28125zm0 0"/></clipPath><clipPath id="J"><path d="m591 662h4.28125v47h-4.28125zm0 0"/></clipPath><symbol id="K" overflow="visible"><path d="m3.921875-18.828125h-2.171875v18.828125h2.171875zm0 0"/></symbol><symbol id="L" overflow="visible"><path d="m7.03125-13.921875c-3.828125 0-6.09375 2.71875-6.09375 7.265625 0 4.5625 2.265625 7.25 6.109375 7.25 3.828125 0 6.125-2.71875 6.125-7.15625 0-4.703125-2.21875-7.359375-6.140625-7.359375zm.015625 1.984375c2.4375 0 3.875 2 3.875 5.34375 0 3.203125-1.5 5.203125-3.875 5.203125-2.390625 0-3.875-2-3.875-5.265625 0-3.28125 1.484375-5.28125 3.875-5.28125zm.65625-7.171875-2.484375 3.8125h1.546875l3.84375-3.8125zm0 0"/></symbol><symbol id="M" overflow="visible"><path d="m10.015625-13.53125-3.734375 10.53125-3.46875-10.53125h-2.296875l4.578125 13.578125-.828125 2.15625c-.359375.953125-.828125 1.3125-1.734375 1.3125-.359375 0-.671875-.046875-1.140625-.15625v1.9375c.4375.234375.875.328125 1.453125.328125.6875 0 1.4375-.234375 2.015625-.640625.671875-.484375 1.0625-1.0625 1.46875-2.140625l6.015625-16.375zm0 0"/></symbol><symbol id="N" overflow="visible"><path d="m13.8125-1.265625c-.234375.046875-.328125.046875-.453125.046875-.75 0-1.171875-.375-1.171875-1.046875v-7.96875c0-2.390625-1.75-3.6875-5.078125-3.6875-2 0-3.578125.5625-4.5 1.578125-.625.6875-.875 1.46875-.9375 2.8125h2.171875c.1875-1.65625 1.171875-2.40625 3.1875-2.40625 1.953125 0 3.015625.734375 3.015625 2.015625v.578125c-.03125.921875-.484375 1.265625-2.25 1.484375-3.046875.390625-3.515625.5-4.328125.828125-1.578125.671875-2.390625 1.859375-2.390625 3.625 0 2.453125 1.71875 4 4.453125 4 1.703125 0 3.0625-.59375 4.59375-1.984375.15625 1.390625.828125 1.984375 2.21875 1.984375.46875 0 .75-.046875 1.46875-.234375zm-3.765625-3c0 .734375-.203125 1.171875-.859375 1.765625-.875.796875-1.9375 1.203125-3.203125 1.203125-1.671875 0-2.65625-.796875-2.65625-2.171875 0-1.40625.9375-2.140625 3.265625-2.46875 2.296875-.3125 2.734375-.421875 3.453125-.75zm0 0"/></symbol><symbol id="O" overflow="visible"><path d="m2.25-2.6875v2.6875h1.546875v.46875c0 1.78125-.328125 2.296875-1.546875 2.34375v.984375c1.703125.046875 2.703125-1.1875 2.703125-3.390625v-3.09375zm0 0"/></symbol><symbol id="P" overflow="visible"><path d="m10.4375-13.53125v1.953125c-1.09375-1.625-2.28125-2.34375-3.984375-2.34375-3.28125 0-5.546875 3.046875-5.546875 7.390625 0 2.265625.546875 3.921875 1.703125 5.296875 1 1.1875 2.296875 1.828125 3.6875 1.828125 1.625 0 2.796875-.71875 3.9375-2.421875v.6875c0 3.625-1.015625 4.96875-3.703125 4.96875-1.828125 0-2.78125-.734375-3-2.28125h-2.1875c.203125 2.515625 2.1875 4.078125 5.140625 4.078125 1.984375 0 3.640625-.640625 4.515625-1.71875 1.03125-1.265625 1.421875-2.953125 1.421875-6.125v-11.3125zm-3.78125 1.59375c2.28125 0 3.578125 1.921875 3.578125 5.34375 0 3.28125-1.328125 5.203125-3.578125 5.203125-2.21875 0-3.5-1.9375-3.5-5.265625 0-3.3125 1.28125-5.28125 3.5-5.28125zm0 0"/></symbol><symbol id="Q" overflow="visible"><path d="m1.78125-13.53125v13.53125h2.171875v-7.03125c.03125-3.25 1.375-4.6875 4.34375-4.625v-2.1875c-.375-.046875-.578125-.078125-.828125-.078125-1.40625 0-2.453125.828125-3.703125 2.84375v-2.453125zm0 0"/></symbol><symbol id="R" overflow="visible"><path d="m13.8125-1.265625c-.234375.046875-.328125.046875-.453125.046875-.75 0-1.171875-.375-1.171875-1.046875v-7.96875c0-2.390625-1.75-3.6875-5.078125-3.6875-2 0-3.578125.5625-4.5 1.578125-.625.6875-.875 1.46875-.9375 2.8125h2.171875c.1875-1.65625 1.171875-2.40625 3.1875-2.40625 1.953125 0 3.015625.734375 3.015625 2.015625v.578125c-.03125.921875-.484375 1.265625-2.25 1.484375-3.046875.390625-3.515625.5-4.328125.828125-1.578125.671875-2.390625 1.859375-2.390625 3.625 0 2.453125 1.71875 4 4.453125 4 1.703125 0 3.0625-.59375 4.59375-1.984375.15625 1.390625.828125 1.984375 2.21875 1.984375.46875 0 .75-.046875 1.46875-.234375zm-3.765625-3c0 .734375-.203125 1.171875-.859375 1.765625-.875.796875-1.9375 1.203125-3.203125 1.203125-1.671875 0-2.65625-.796875-2.65625-2.171875 0-1.40625.9375-2.140625 3.265625-2.46875 2.296875-.3125 2.734375-.421875 3.453125-.75zm-2.1875-14.84375-2.515625 3.8125h1.546875l3.859375-3.8125zm0 0"/></symbol><symbol id="S" overflow="visible"><path d="m13.25-6.046875c0-2.0625-.15625-3.296875-.546875-4.3125-.875-2.21875-2.9375-3.5625-5.46875-3.5625-3.765625 0-6.203125 2.875-6.203125 7.328125 0 4.46875 2.328125 7.1875 6.15625 7.1875 3.09375 0 5.234375-1.75 5.78125-4.703125h-2.171875c-.59375 1.78125-1.8125 2.71875-3.546875 2.71875-1.359375 0-2.53125-.625-3.25-1.765625-.515625-.765625-.6875-1.546875-.71875-2.890625zm-9.921875-1.75c.1875-2.515625 1.703125-4.140625 3.875-4.140625 2.203125 0 3.71875 1.703125 3.71875 4.140625zm4.625-11.3125-2.484375 3.8125h1.5625l3.84375-3.8125zm0 0"/></symbol><symbol id="T" overflow="visible"><path d="m11.3125-9.765625c-.03125-2.65625-1.78125-4.15625-4.90625-4.15625-3.15625 0-5.1875 1.625-5.1875 4.140625 0 2.109375 1.078125 3.125 4.28125 3.890625l2.015625.5c1.5.359375 2.09375.890625 2.09375 1.859375 0 1.28125-1.265625 2.140625-3.15625 2.140625-1.15625 0-2.140625-.34375-2.6875-.90625-.328125-.390625-.484375-.78125-.609375-1.734375h-2.28125c.109375 3.125 1.859375 4.625 5.40625 4.625 3.40625 0 5.578125-1.671875 5.578125-4.28125 0-2.015625-1.140625-3.125-3.828125-3.78125l-2.0625-.484375c-1.765625-.421875-2.5-.984375-2.5-1.9375 0-1.265625 1.109375-2.046875 2.859375-2.046875 1.734375 0 2.65625.75 2.71875 2.171875zm0 0"/></symbol><symbol id="U" overflow="visible"><path d="m4.4375-6.59375 3.078125-3.0625 6.640625 9.65625h2.84375l-7.75-11.15625 7.671875-7.671875h-3.109375l-9.375 9.53125v-9.53125h-2.390625v18.828125h2.390625zm0 0"/></symbol><symbol id="V" overflow="visible"><path d="m3.875-13.53125h-2.140625v13.53125h2.140625zm0-5.296875h-2.171875v2.71875h2.171875zm0 0"/></symbol><symbol id="W" overflow="visible"><path d="m12.09375 0 5.28125-15.78125v15.78125h2.28125v-18.828125h-3.328125l-5.484375 16.40625-5.578125-16.40625h-3.328125v18.828125h2.265625v-15.78125l5.359375 15.78125zm0 0"/></symbol><symbol id="X" overflow="visible"><path d="m12.453125 0v-13.53125h-2.140625v7.671875c0 2.765625-1.453125 4.5625-3.703125 4.5625-1.703125 0-2.78125-1.03125-2.78125-2.65625v-9.578125h-2.15625v10.4375c0 2.234375 1.6875 3.6875 4.3125 3.6875 2 0 3.265625-.703125 4.53125-2.484375v1.890625zm0 0"/></symbol><symbol id="Y" overflow="visible"><path d="m4.71875-8.578125h10.265625v-2.109375h-10.265625v-6.015625h10.65625v-2.125h-13.046875v18.828125h13.5v-2.125h-11.109375zm0 0"/></symbol><symbol id="Z" overflow="visible"><path d="m12.78125-18.828125h-2.140625v7c-.90625-1.375-2.34375-2.09375-4.15625-2.09375-3.515625 0-5.8125 2.8125-5.8125 7.125 0 4.578125 2.21875 7.390625 5.890625 7.390625 1.859375 0 3.15625-.703125 4.3125-2.375v1.78125h1.90625zm-5.9375 6.921875c2.328125 0 3.796875 2.046875 3.796875 5.296875 0 3.125-1.5 5.1875-3.765625 5.1875-2.375 0-3.953125-2.09375-3.953125-5.234375 0-3.15625 1.578125-5.25 3.921875-5.25zm0 0"/></symbol><symbol id="aa" overflow="visible"><path d="m1.8125-13.53125v13.53125h2.171875v-7.46875c0-2.765625 1.4375-4.5625 3.65625-4.5625 1.703125 0 2.796875 1.03125 2.796875 2.65625v9.375h2.140625v-10.234375c0-2.234375-1.671875-3.6875-4.28125-3.6875-2.015625 0-3.3125.78125-4.5 2.65625v-2.265625zm0 0"/></symbol><symbol id="ab" overflow="visible"><path d="m13.25-6.046875c0-2.0625-.15625-3.296875-.546875-4.3125-.875-2.21875-2.9375-3.5625-5.46875-3.5625-3.765625 0-6.203125 2.875-6.203125 7.328125 0 4.46875 2.328125 7.1875 6.15625 7.1875 3.09375 0 5.234375-1.75 5.78125-4.703125h-2.171875c-.59375 1.78125-1.8125 2.71875-3.546875 2.71875-1.359375 0-2.53125-.625-3.25-1.765625-.515625-.765625-.6875-1.546875-.71875-2.890625zm-9.921875-1.75c.1875-2.515625 1.703125-4.140625 3.875-4.140625 2.203125 0 3.71875 1.703125 3.71875 4.140625zm0 0"/></symbol><symbol id="ac" overflow="visible"><path d="m3.640625-18.828125h-2.140625v18.828125h2.140625v-5.265625l2.09375-2.0625 4.578125 7.328125h2.65625l-5.53125-8.859375 4.703125-4.671875h-2.765625l-5.734375 5.734375zm0 0"/></symbol><symbol id="ad" overflow="visible"><path d="m1.8125-13.53125v15.5c0 1.34375-.421875 1.78125-1.765625 1.78125-.15625 0-.234375 0-.515625-.03125v1.828125c.265625.0625.390625.078125.734375.078125 2.421875 0 3.6875-.953125 3.6875-2.8125v-16.34375zm2.140625-5.296875h-2.140625v2.71875h2.140625zm0 0"/></symbol><symbol id="ae" overflow="visible"><path d="m6.5625-13.53125h-2.21875v-3.71875h-2.140625v3.71875h-1.84375v1.75h1.84375v10.234375c0 1.390625.921875 2.140625 2.59375 2.140625.578125 0 1.046875-.046875 1.765625-.1875v-1.796875c-.3125.078125-.59375.09375-1.03125.09375-.9375 0-1.1875-.25-1.1875-1.203125v-9.28125h2.21875zm0 0"/></symbol><symbol id="af" overflow="visible"><path d="m12.453125 0v-13.53125h-2.140625v7.671875c0 2.765625-1.453125 4.5625-3.703125 4.5625-1.703125 0-2.78125-1.03125-2.78125-2.65625v-9.578125h-2.15625v10.4375c0 2.234375 1.6875 3.6875 4.3125 3.6875 2 0 3.265625-.703125 4.53125-2.484375v1.890625zm-6.125-18.46875h-2.6875v2.65625h2.6875zm4.1875 0h-2.6875v2.65625h2.6875zm0 0"/></symbol><symbol id="ag" overflow="visible"><path d="m1.8125-13.53125v13.53125h2.171875v-8.5c0-1.953125 1.40625-3.53125 3.171875-3.53125 1.59375 0 2.5.984375 2.5 2.703125v9.328125h2.171875v-8.5c0-1.953125 1.421875-3.53125 3.171875-3.53125 1.578125 0 2.515625 1 2.515625 2.703125v9.328125h2.171875v-10.15625c0-2.421875-1.40625-3.765625-3.9375-3.765625-1.796875 0-2.890625.546875-4.15625 2.0625-.796875-1.4375-1.875-2.0625-3.640625-2.0625-1.8125 0-3.015625.671875-4.15625 2.296875v-1.90625zm0 0"/></symbol><symbol id="ah" overflow="visible"><path d="m11.4375-13.53125h-10.09375v1.875h7.546875l-8.09375 9.71875v1.9375h11v-1.890625h-8.390625l8.03125-9.734375zm0 0"/></symbol><symbol id="ai" overflow="visible"><path d="m12.171875-8.984375c-.109375-1.328125-.390625-2.171875-.90625-2.921875-.9375-1.265625-2.5625-2.015625-4.453125-2.015625-3.65625 0-6.015625 2.890625-6.015625 7.390625 0 4.359375 2.328125 7.125 6 7.125 3.21875 0 5.265625-1.9375 5.515625-5.25h-2.15625c-.375 2.171875-1.484375 3.265625-3.3125 3.265625-2.375 0-3.796875-1.9375-3.796875-5.140625 0-3.390625 1.390625-5.40625 3.75-5.40625 1.796875 0 2.9375 1.0625 3.203125 2.953125zm0 0"/></symbol><symbol id="aj" overflow="visible"><path d="m5.375-18.828125h-2.140625v8.734375l.5625 5.75h1l.578125-5.75zm0 16.140625h-2.171875v2.6875h2.171875zm0 0"/></symbol><symbol id="ak" overflow="visible"><path d="m4.9375-2.6875h-2.6875v2.6875h2.6875zm0 0"/></symbol><symbol id="al" overflow="visible"><path d="m10.125 0 6.53125-18.828125h-2.546875l-5.21875 15.9375-5.53125-15.9375h-2.578125l6.765625 18.828125zm0 0"/></symbol><symbol id="am" overflow="visible"><path d="m9.140625-16.703125h6.171875v-2.125h-14.765625v2.125h6.1875v16.703125h2.40625zm0 0"/></symbol><symbol id="an" overflow="visible"><path d="m7.359375 0 5.1875-13.53125h-2.421875l-3.828125 10.96875-3.609375-10.96875h-2.421875l4.75 13.53125zm0 0"/></symbol><symbol id="ao" overflow="visible"><path d="m5.546875-13.53125h-2.6875v2.6875h2.6875zm-2.703125 10.84375v2.6875h1.546875v.46875c0 1.78125-.328125 2.296875-1.546875 2.34375v.984375c1.703125.046875 2.703125-1.1875 2.703125-3.390625v-3.09375zm0 0"/></symbol><symbol id="ap" overflow="visible"><path d="m4.578125-13.53125h-2.15625v13.53125h2.15625zm-.421875-5.578125-2.484375 3.8125h1.5625l3.84375-3.8125zm0 0"/></symbol><symbol id="aq" overflow="visible"><path d="m8.59375-18.828125v13.25c0 1.5-.140625 2.34375-.59375 3-.453125.71875-1.34375 1.15625-2.296875 1.15625-1.796875 0-2.8125-1.21875-2.8125-3.40625v-1.21875h-2.453125v1.65625c0 3.046875 2.015625 4.984375 5.25 4.984375 3.28125 0 5.3125-2.046875 5.3125-5.296875v-14.125zm0 0"/></symbol><symbol id="ar" overflow="visible"><path d="m7.03125-13.921875c-3.828125 0-6.09375 2.71875-6.09375 7.265625 0 4.5625 2.265625 7.25 6.109375 7.25 3.828125 0 6.125-2.71875 6.125-7.15625 0-4.703125-2.21875-7.359375-6.140625-7.359375zm.015625 1.984375c2.4375 0 3.875 2 3.875 5.34375 0 3.203125-1.5 5.203125-3.875 5.203125-2.390625 0-3.875-2-3.875-5.265625 0-3.28125 1.484375-5.28125 3.875-5.28125zm-.75-6.53125h-2.6875v2.65625h2.6875zm4.1875 0h-2.6875v2.65625h2.6875zm0 0"/></symbol><symbol id="as" overflow="visible"><path d="m4.796875-8.109375h6.203125c2.140625 0 3.109375 1.03125 3.109375 3.359375l-.03125 1.671875c0 1.171875.203125 2.296875.546875 3.078125h2.90625v-.59375c-.890625-.625-1.078125-1.296875-1.125-3.796875-.03125-3.09375-.515625-4.03125-2.5625-4.90625 2.125-1.0625 2.96875-2.328125 2.96875-4.5 0-3.25-2.015625-5.03125-5.734375-5.03125h-8.671875v18.828125h2.390625zm0-2.125v-6.46875h5.8125c1.34375 0 2.125.203125 2.71875.71875.640625.546875.984375 1.390625.984375 2.5 0 2.25-1.140625 3.25-3.703125 3.25zm0 0"/></symbol><symbol id="at" overflow="visible"><path d="m9.296875-5.65625c-1.765625 0-3.4375.59375-4.9375 1.515625-1.96875 1.171875-4.359375 3.21875-4.359375 6.1875 0 2.46875 2.171875 3.609375 4.390625 3.609375 1.765625 0 3.4375-.59375 4.9375-1.515625 1.96875-1.171875 4.3125-3.21875 4.3125-6.1875 0-2.46875-2.140625-3.609375-4.34375-3.609375zm0 0"/></symbol><symbol id="au" overflow="visible"><path d="m1.046875-1.84375c.046875-1.375.96875-2.59375 2.265625-2.59375 1.25 0 1.828125 1.46875 1.828125 2.890625 0 2.46875-2.09375 4.21875-4.015625 5.8125-.078125-.921875-.15625-1.84375-.15625-2.765625 0-.15625.03125-.28125.03125-.453125zm-2.09375-17.53125.46875 25.0625c0 .5.375.875.875.875.75 0 1.078125-.875 1.671875-1.328125 2.640625-2.140625 6.40625-3.640625 6.40625-7.078125 0-2.25-1.6875-4.1875-3.890625-4.1875-1.34375 0-2.59375.46875-3.6875 1.265625l.25-14.609375c-.328125-.171875-.671875-.296875-1.046875-.296875s-.71875.125-1.046875.296875zm0 0"/></symbol><symbol id="av" overflow="visible"><path d="m15.65625-10.875c-.671875-2.9375-1.46875-5.828125-2.3125-8.703125 4.015625-4.5625 7.65625-9.25 7.65625-15.28125 0-4.71875-2.59375-11.5-5.515625-15.015625-.21875-.171875-.46875-.171875-.671875 0-3.96875 2.890625-6.28125 7.484375-6.28125 12.34375 0 2.171875.046875 4.3125.296875 6.4375.296875 2.71875 1 5.359375 1.765625 8-4.9375 5.609375-10.515625 10.953125-10.515625 18.40625 0 8.40625 6.078125 15.5625 13.9375 15.5625 1.296875 0 2.515625-.125 3.71875-.328125.140625 1.34375.21875 2.671875.21875 4.015625 0 .75-.046875 1.46875-.078125 2.21875-.265625 4.140625-2.8125 7.953125-6.703125 8.03125-.046875 0-.078125.046875-.125.046875-2.140625 0-3.96875-1.21875-5.0625-2.9375.453125.21875.96875.375 1.46875.375 2.171875 0 3.96875-1.796875 3.96875-3.96875 0-2.34375-1.71875-4.359375-3.96875-4.359375-2.46875 0-4.6875 1.9375-4.6875 4.359375 0 4.515625 3.640625 8.15625 8.15625 8.15625 4.9375 0 8.328125-4.4375 8.625-9.453125.03125-.796875.03125-1.546875.03125-2.34375 0-1.5-.078125-3.015625-.203125-4.515625 1.09375-.34375 2.125-.84375 3.046875-1.546875 3.109375-2.3125 4.484375-5.53125 4.484375-8.703125 0-5.53125-4.1875-10.84375-10.625-10.84375-.21875 0-.421875.046875-.625.046875zm3.546875 19.453125c-.578125-5.1875-1.546875-10.125-2.59375-15.015625 4.609375.375 7.5 4.21875 7.5 8.0625 0 2.9375-2.015625 5.953125-4.90625 6.953125zm-16.234375-9.875c0-6.6875 4.515625-11.765625 9.046875-16.828125.65625 2.46875 1.328125 4.9375 1.921875 7.453125-4.234375.96875-6.609375 4.515625-6.609375 8.203125 0 2.921875 1.5 5.90625 4.84375 7.703125.125.03125.25.078125.375.078125.46875 0 .84375-.421875.84375-.875 0-.21875-.125-.421875-.296875-.59375-2.34375-1.328125-3.421875-3.34375-3.421875-5.1875 0-2.46875 1.921875-4.6875 5.21875-5.0625 1.09375 5.03125 2.0625 10 2.6875 15.359375-1.140625.171875-2.265625.25-3.4375.25-5.6875 0-11.171875-4.8125-11.171875-10.5zm14.234375-42.640625c.703125 2.21875.875 3.3125.875 5.734375 0 5.3125-2.8125 9.546875-6.234375 13.59375-.75-2.625-1.390625-5.1875-1.390625-8.359375 0-4.65625 2.609375-8.875 6.75-10.96875zm0 0"/></symbol><symbol id="aw" overflow="visible"><path d="m0 0c0 1.34375 1.046875 2.390625 2.390625 2.390625 1.328125 0 2.375-1.046875 2.375-2.390625s-1.046875-2.390625-2.375-2.390625c-1.34375 0-2.390625 1.046875-2.390625 2.390625zm0 0"/></symbol><symbol id="ax" overflow="visible"><path d="m13.21875-2.796875c0 .40625-.125.875-.421875 1.203125-.875 1.046875-2.875 2.34375-4.46875 3.34375-1.59375 1.015625-3.59375 2.34375-4.890625 2.734375-.171875.03125-.390625.078125-.546875.078125-.921875 0-1.765625-.71875-1.765625-1.765625 0-.40625.125-.875.421875-1.203125.875-1.046875 2.890625-2.34375 4.484375-3.34375 1.578125-1.015625 3.59375-2.34375 4.890625-2.734375.171875-.03125.375-.078125.546875-.078125.921875 0 1.75.71875 1.75 1.765625zm-2.125-2.859375c-3.140625 0-5.703125.671875-7.90625 2.1875-1.34375.921875-2.21875 2.34375-2.734375 3.890625-.25.75-.453125 1.59375-.453125 2.375 0 1.96875 1.421875 2.859375 3.265625 2.859375 3.140625 0 5.6875-.671875 7.90625-2.1875 1.34375-.921875 2.21875-2.34375 2.71875-3.890625.25-.75.46875-1.59375.46875-2.375 0-1.96875-1.421875-2.859375-3.265625-2.859375zm0 0"/></symbol><symbol id="ay" overflow="visible"><path d="m-2.640625-1.96875c0 1.46875 1.171875 2.640625 2.640625 2.640625s2.640625-1.171875 2.640625-2.640625-1.171875-2.640625-2.640625-2.640625-2.640625 1.171875-2.640625 2.640625zm2.640625-13.09375c-6.484375 0-13.765625 7.234375-13.765625 15.140625 0 .34375.328125.59375.671875.59375.296875 0 .625-.21875.703125-.671875 1.09375-6.234375 6.15625-11.09375 12.390625-11.09375s11.296875 4.859375 12.390625 11.09375c.078125.453125.40625.671875.703125.671875.34375 0 .671875-.25.671875-.59375 0-7.90625-7.234375-15.140625-13.765625-15.140625zm0 0"/></symbol><symbol id="az" overflow="visible"><path d="m5.484375-11.25v11.25h3.21875v-16.3125h-2.140625c-.515625 1.921875-2.1875 2.921875-5 2.921875v2.140625zm0 0"/></symbol><symbol id="aA" overflow="visible"><path d="m4.921875-3.359375h-3.453125v3.359375h3.453125zm0 0"/></symbol><symbol id="aB" overflow="visible"><path d="m8.703125-13.34375c-.25.15625-.328125.5-.328125.828125v6.15625h-7.25l11.84375-13.9375c.25-.296875-.125-.796875-.625-.625-.921875.296875-1.84375.546875-2.796875.546875-.96875 0-1.890625-.25-2.8125-.546875-.328125-.125-.625.203125-.625.625 0 5.234375-2.71875 9.921875-6.109375 13.9375-.046875.046875-.078125.171875-.078125.25 0 .328125.328125.875 1.203125.875h7.25v.671875c0 1.890625-1.09375 3.6875-2.859375 3.6875-.28125 0-.40625.203125-.40625.421875 0 .203125.125.453125.40625.453125 1.71875 0 3.4375-.546875 5.15625-.546875s3.421875.546875 5.140625.546875c.296875 0 .421875-.25.421875-.453125 0-.21875-.125-.421875-.421875-.421875-1.75 0-2.84375-1.796875-2.84375-3.6875v-.671875h2.84375c.375 0 .546875-.25.546875-.546875 0-.28125-.171875-.578125-.546875-.578125h-2.84375v-10.71875c0-.578125-.671875-.65625-.828125-.28125-.296875.703125-.59375 1.421875-1.046875 2.046875-.640625.828125-1.515625 1.421875-2.390625 1.96875zm0 0"/></symbol><symbol id="aC" overflow="visible"><path d="m6.953125-10.671875c2.421875 0 2.671875 2.09375 2.671875 4.890625 0 2.8125-.25 4.90625-2.671875 4.90625-2.34375 0-2.390625-2.140625-2.390625-4.90625 0-2.75.046875-4.890625 2.390625-4.890625zm-2.390625-.328125c0-.921875-.046875-1.796875-.046875-2.71875 0-3.359375.34375-6.328125 3.265625-6.328125.921875 0 1.890625.46875 1.890625 1.296875 0 .96875-1.640625 1.09375-1.640625 2.046875 0 1.515625 1.21875 2.734375 2.71875 2.734375 1.515625 0 2.71875-1.21875 2.71875-2.734375 0-2.625-2.796875-4.21875-5.6875-4.21875-4.890625 0-7.78125 5.109375-7.78125 10.46875 0 5.21875 2.296875 10.453125 6.953125 10.453125 4.140625 0 6.984375-1.890625 6.984375-5.78125s-2.84375-5.8125-6.984375-5.8125c-.84375 0-1.59375.296875-2.390625.59375zm0 0"/></symbol><g clip-path="url(#a)"><path d="m3.4375 7050.764063h5945.898438" fill="none" stroke="#000" stroke-linecap="round" stroke-miterlimit="10" stroke-width="6.86227" transform="matrix(.1 0 0 -.1 0 776.01)"/></g><g clip-path="url(#b)"><path d="m3.4375 7155.373438h5945.898438" fill="none" stroke="#000" stroke-linecap="round" stroke-miterlimit="10" stroke-width="6.86227" transform="matrix(.1 0 0 -.1 0 776.01)"/></g><g clip-path="url(#c)"><path d="m3.4375 7259.982813h5945.898438" fill="none" stroke="#000" stroke-linecap="round" stroke-miterlimit="10" stroke-width="6.86227" transform="matrix(.1 0 0 -.1 0 776.01)"/></g><g clip-path="url(#d)"><path d="m3.4375 7364.592188h5945.898438" fill="none" stroke="#000" stroke-linecap="round" stroke-miterlimit="10" stroke-width="6.86227" transform="matrix(.1 0 0 -.1 0 776.01)"/></g><g clip-path="url(#e)"><path d="m3.4375 7469.201563h5945.898438" fill="none" stroke="#000" stroke-linecap="round" stroke-miterlimit="10" stroke-width="6.86227" transform="matrix(.1 0 0 -.1 0 776.01)"/></g><g clip-path="url(#f)"><path d="m5946.25 7050.764063v418.4375" fill="none" stroke="#000" stroke-miterlimit="10" stroke-width="13.0341" transform="matrix(.1 0 0 -.1 0 776.01)"/></g><path d="m5221.367188 7177.951563h4.921874v341.5625h-4.921874zm0 0" fill="none" stroke="#000" stroke-linejoin="round" stroke-miterlimit="10" stroke-width="3.98555" transform="matrix(.1 0 0 -.1 0 776.01)"/><path d="m522.136719 58.214844h.492187v-34.15625h-.492187zm0 0"/><use x="505.964" xlink:href="#K" y="124.914"/><use x="511.74684" xlink:href="#L" y="124.914"/><use x="496.35502" xlink:href="#K" y="95.6242"/><use x="501.967156" xlink:href="#M" y="95.6242"/><use x="514.382793" xlink:href="#N" y="95.6242"/><use x="528.499999" xlink:href="#O" y="95.6242"/><use x="509.16952" xlink:href="#at" y="60.4738"/><path d="m4394.296875 7177.951563h4.921875v341.5625h-4.921875zm0 0" fill="none" stroke="#000" stroke-linejoin="round" stroke-miterlimit="10" stroke-width="3.98555" transform="matrix(.1 0 0 -.1 0 776.01)"/><path d="m439.429688 58.214844h.492187v-34.15625h-.492187zm0 0"/><use x="408.545" xlink:href="#P" y="124.914"/><use x="422.661815" xlink:href="#M" y="124.914"/><use x="435.077842" xlink:href="#N" y="124.914"/><use x="449.364189" xlink:href="#Q" y="124.914"/><use x="421.8962" xlink:href="#Q" y="95.6242"/><use x="430.399707" xlink:href="#R" y="95.6242"/><use x="426.46143" xlink:href="#at" y="60.4738"/><path d="m3643.945312 7230.25625h4.921876v319.882813h-4.921876zm0 0" fill="none" stroke="#000" stroke-linejoin="round" stroke-miterlimit="10" stroke-width="3.98555" transform="matrix(.1 0 0 -.1 0 776.01)"/><path d="m364.394531 52.984375h.492188v-31.988281h-.492188zm0 0"/><use x="344.649" xlink:href="#S" y="124.914"/><use x="358.935347" xlink:href="#T" y="124.914"/><use x="346.77595" xlink:href="#U" y="95.6242"/><use x="363.953326" xlink:href="#V" y="95.6242"/><use x="351.42556" xlink:href="#at" y="55.2433"/><path d="m1614.0625 6874.592188h63.554688v3.4375h-63.554688zm0 0" fill="none" stroke="#000" stroke-linejoin="round" stroke-miterlimit="10" stroke-width="5.49191" transform="matrix(.1 0 0 -.1 0 776.01)"/><path d="m161.40625 88.550781h6.355469v-.34375h-6.355469zm0 0"/><path d="m1678.710938 6581.701563h63.554687v3.4375h-63.554687zm0 0" fill="none" stroke="#000" stroke-linejoin="round" stroke-miterlimit="10" stroke-width="5.49191" transform="matrix(.1 0 0 -.1 0 776.01)"/><path d="m167.871094 117.839844h6.355468v-.34375h-6.355468zm0 0"/><path d="m2439.6875 6581.701563h63.554688v3.4375h-63.554688zm0 0" fill="none" stroke="#000" stroke-linejoin="round" stroke-miterlimit="10" stroke-width="5.49191" transform="matrix(.1 0 0 -.1 0 776.01)"/><path d="m243.96875 117.839844h6.355469v-.34375h-6.355469zm0 0"/><path d="m3926.367188 6874.592188h63.554687v3.4375h-63.554687zm0 0" fill="none" stroke="#000" stroke-linejoin="round" stroke-miterlimit="10" stroke-width="5.49191" transform="matrix(.1 0 0 -.1 0 776.01)"/><path d="m392.636719 88.550781h6.355469v-.34375h-6.355469zm0 0"/><path d="m4673.4375 6874.592188h63.554688v3.4375h-63.554688zm0 0" fill="none" stroke="#000" stroke-linejoin="round" stroke-miterlimit="10" stroke-width="5.49191" transform="matrix(.1 0 0 -.1 0 776.01)"/><path d="m467.34375 88.550781h6.355469v-.34375h-6.355469zm0 0"/><path d="m4788.242188 6581.701563h63.554687v3.4375h-63.554687zm0 0" fill="none" stroke="#000" stroke-linejoin="round" stroke-miterlimit="10" stroke-width="5.49191" transform="matrix(.1 0 0 -.1 0 776.01)"/><path d="m478.824219 117.839844h6.351562v-.34375h-6.351562zm0 0"/><path d="m1392.851562 7529.00625h2256.015626v46.25h-2256.015626zm0 0" fill="none" stroke="#000" stroke-linejoin="round" stroke-miterlimit="10" stroke-width="3.98555" transform="matrix(.1 0 0 -.1 0 776.01)"/><path d="m139.285156 23.109375h225.601563v-4.625h-225.601563zm0 0"/><use x="126.318" xlink:href="#at" y="55.243"/><path d="m1392.851562 7230.25625h4.921876v319.882813h-4.921876zm0 0" fill="none" stroke="#000" stroke-linejoin="round" stroke-miterlimit="10" stroke-width="3.98555" transform="matrix(.1 0 0 -.1 0 776.01)"/><path d="m139.285156 52.984375h.492188v-31.988281h-.492188zm0 0"/><use x="115.204" xlink:href="#W" y="124.914"/><use x="136.804822" xlink:href="#X" y="124.914"/><use x="85.5247" xlink:href="#az" y="95.6242"/><use x="98.280958" xlink:href="#aA" y="95.6242"/><use x="124.5591" xlink:href="#Y" y="95.6242"/><use x="66.4642" xlink:href="#aB" y="50.0129"/><use x="66.4642" xlink:href="#aB" y="71.1008"/><use x="89.0689" xlink:href="#aC" y="50.0129"/><use x="89.0689" xlink:href="#aB" y="71.1008"/><use x="46.0658" xlink:href="#au" y="50.0129"/><use x="8.3685" xlink:href="#av" y="60.4738"/><path d="m2893.554688 7230.25625h4.960937v319.882813h-4.960937zm0 0" fill="none" stroke="#000" stroke-linejoin="round" stroke-miterlimit="10" stroke-width="3.98555" transform="matrix(.1 0 0 -.1 0 776.01)"/><path d="m289.355469 52.984375h.496093v-31.988281h-.496093zm0 0"/><use x="268.933" xlink:href="#Z" y="124.914"/><use x="283.219347" xlink:href="#L" y="124.914"/><use x="255.4971" xlink:href="#aa" y="95.6242"/><use x="269.783447" xlink:href="#N" y="95.6242"/><use x="283.900262" xlink:href="#P" y="95.6242"/><use x="298.017078" xlink:href="#M" y="95.6242"/><use x="276.3905" xlink:href="#at" y="55.2433"/><path d="m2143.203125 7230.25625h4.960937v319.882813h-4.960937zm0 0" fill="none" stroke="#000" stroke-linejoin="round" stroke-miterlimit="10" stroke-width="3.98555" transform="matrix(.1 0 0 -.1 0 776.01)"/><path d="m214.320312 52.984375h.492188v-31.988281h-.492188zm0 0"/><use x="191.006" xlink:href="#K" y="124.914"/><use x="196.788827" xlink:href="#N" y="124.914"/><use x="211.075175" xlink:href="#aa" y="124.914"/><use x="187.43373" xlink:href="#P" y="95.6242"/><use x="201.720077" xlink:href="#ab" y="95.6242"/><use x="216.006424" xlink:href="#ac" y="95.6242"/><use x="201.35403" xlink:href="#at" y="55.2433"/><g clip-path="url(#g)"><path d="m3.4375 5795.451563h5945.898438" style="fill:none;stroke-width:6.86227;stroke-linecap:round;stroke-linejoin:round;stroke:#000;stroke-miterlimit:10" transform="matrix(.1 0 0 -.1 0 776.01)"/></g><g clip-path="url(#h)"><path d="m3.4375 5900.060938h5945.898438" style="fill:none;stroke-width:6.86227;stroke-linecap:round;stroke-linejoin:round;stroke:#000;stroke-miterlimit:10" transform="matrix(.1 0 0 -.1 0 776.01)"/></g><g clip-path="url(#i)"><path d="m3.4375 6004.670313h5945.898438" style="fill:none;stroke-width:6.86227;stroke-linecap:round;stroke-linejoin:round;stroke:#000;stroke-miterlimit:10" transform="matrix(.1 0 0 -.1 0 776.01)"/></g><g clip-path="url(#j)"><path d="m3.4375 6109.279688h5945.898438" style="fill:none;stroke-width:6.86227;stroke-linecap:round;stroke-linejoin:round;stroke:#000;stroke-miterlimit:10" transform="matrix(.1 0 0 -.1 0 776.01)"/></g><g clip-path="url(#k)"><path d="m3.4375 6213.889063h5945.898438" style="fill:none;stroke-width:6.86227;stroke-linecap:round;stroke-linejoin:round;stroke:#000;stroke-miterlimit:10" transform="matrix(.1 0 0 -.1 0 776.01)"/></g><g clip-path="url(#l)"><path d="m5946.25 5795.451563v418.4375" fill="none" stroke="#000" stroke-linejoin="round" stroke-miterlimit="10" stroke-width="13.0341" transform="matrix(.1 0 0 -.1 0 776.01)"/></g><path d="m5135.976562 5818.029688h4.960938v341.5625h-4.960938zm0 0" fill="none" stroke="#000" stroke-linejoin="round" stroke-miterlimit="10" stroke-width="3.98555" transform="matrix(.1 0 0 -.1 0 776.01)"/><path d="m513.597656 194.207031h.496094v-34.15625h-.496094zm0 0"/><use x="497.427" xlink:href="#ad" y="255.737"/><use x="503.20984" xlink:href="#N" y="255.737"/><use x="482.5454" xlink:href="#P" y="226.4468"/><use x="496.831747" xlink:href="#ab" y="226.4468"/><use x="511.118094" xlink:href="#Z" y="226.4468"/><use x="525.23491" xlink:href="#O" y="226.4468"/><use x="500.6321" xlink:href="#at" y="196.4628"/><path d="m4227.265625 5818.029688h4.921875v341.5625h-4.921875zm0 0" fill="none" stroke="#000" stroke-linejoin="round" stroke-miterlimit="10" stroke-width="3.98555" transform="matrix(.1 0 0 -.1 0 776.01)"/><path d="m422.726562 194.207031h.492188v-34.15625h-.492188zm0 0"/><use x="402.218" xlink:href="#ad" y="255.737"/><use x="408.000815" xlink:href="#R" y="255.737"/><use x="422.287162" xlink:href="#Q" y="255.737"/><use x="406.04456" xlink:href="#ae" y="226.4468"/><use x="412.847328" xlink:href="#S" y="226.4468"/><use x="409.76058" xlink:href="#at" y="196.4628"/><path d="m3404.335938 5870.334375h4.921874v319.882813h-4.921874zm0 0" fill="none" stroke="#000" stroke-linejoin="round" stroke-miterlimit="10" stroke-width="3.98555" transform="matrix(.1 0 0 -.1 0 776.01)"/><path d="m340.433594 188.976562h.492187v-31.988281h-.492187zm0 0"/><use x="323.581" xlink:href="#R" y="255.737"/><use x="337.867347" xlink:href="#ae" y="255.737"/><use x="310.656" xlink:href="#K" y="226.4468"/><use x="316.438425" xlink:href="#X" y="226.4468"/><use x="330.724772" xlink:href="#aa" y="226.4468"/><use x="345.011119" xlink:href="#ac" y="226.4468"/><use x="327.4662" xlink:href="#at" y="191.2327"/><path d="m1207.929688 5566.389063h63.554687v3.398437h-63.554687zm0 0" fill="none" stroke="#000" stroke-linejoin="round" stroke-miterlimit="10" stroke-width="5.49191" transform="matrix(.1 0 0 -.1 0 776.01)"/><path d="m120.792969 219.375h6.355469v-.34375h-6.355469zm0 0"/><path d="m1239.414062 5273.459375h63.554688v3.4375h-63.554688zm0 0" fill="none" stroke="#000" stroke-linejoin="round" stroke-miterlimit="10" stroke-width="5.49191" transform="matrix(.1 0 0 -.1 0 776.01)"/><path d="m123.941406 248.664062h6.351563v-.34375h-6.351563zm0 0"/><path d="m2158.867188 5566.389063h63.515624v3.398437h-63.515624zm0 0" fill="none" stroke="#000" stroke-linejoin="round" stroke-miterlimit="10" stroke-width="5.49191" transform="matrix(.1 0 0 -.1 0 776.01)"/><path d="m215.886719 219.375h6.351562v-.34375h-6.351562zm0 0"/><path d="m2005.351562 5273.459375h63.554688v3.4375h-63.554688zm0 0" fill="none" stroke="#000" stroke-linejoin="round" stroke-miterlimit="10" stroke-width="5.49191" transform="matrix(.1 0 0 -.1 0 776.01)"/><path d="m200.535156 248.664062h6.355469v-.34375h-6.355469zm0 0"/><path d="m2835.078125 5566.389063h63.554687v3.398437h-63.554687zm0 0" fill="none" stroke="#000" stroke-linejoin="round" stroke-miterlimit="10" stroke-width="5.49191" transform="matrix(.1 0 0 -.1 0 776.01)"/><path d="m283.507812 219.375h6.355469v-.34375h-6.355469zm0 0"/><path d="m3704.375 5273.459375h63.554688v3.4375h-63.554688zm0 0" fill="none" stroke="#000" stroke-linejoin="round" stroke-miterlimit="10" stroke-width="5.49191" transform="matrix(.1 0 0 -.1 0 776.01)"/><path d="m370.4375 248.664062h6.355469v-.34375h-6.355469zm0 0"/><path d="m4516.601562 5566.389063h63.554688v3.398437h-63.554688zm0 0" fill="none" stroke="#000" stroke-linejoin="round" stroke-miterlimit="10" stroke-width="5.49191" transform="matrix(.1 0 0 -.1 0 776.01)"/><path d="m451.660156 219.375h6.355469v-.34375h-6.355469zm0 0"/><path d="m4610.15625 5273.459375h63.554688v3.4375h-63.554688zm0 0" fill="none" stroke="#000" stroke-linejoin="round" stroke-miterlimit="10" stroke-width="5.49191" transform="matrix(.1 0 0 -.1 0 776.01)"/><path d="m461.015625 248.664062h6.355469v-.34375h-6.355469zm0 0"/><path d="m935.546875 6169.123438h2473.710937v46.210937h-2473.710937zm0 0" fill="none" stroke="#000" stroke-linejoin="round" stroke-miterlimit="10" stroke-width="3.98555" transform="matrix(.1 0 0 -.1 0 776.01)"/><path d="m93.554688 159.097656h247.371093v-4.621094h-247.371093zm0 0"/><use x="46.066" xlink:href="#au" y="175.542"/><use x="8.3687" xlink:href="#av" y="186.0029"/><use x="80.5867" xlink:href="#at" y="191.23337"/><path d="m1758.476562 5870.334375h4.921876v319.882813h-4.921876zm0 0" fill="none" stroke="#000" stroke-linejoin="round" stroke-miterlimit="10" stroke-width="3.98555" transform="matrix(.1 0 0 -.1 0 776.01)"/><path d="m175.847656 188.976562h.492188v-31.988281h-.492188zm0 0"/><path d="m2581.40625 5870.334375h4.921875v319.882813h-4.921875zm0 0" fill="none" stroke="#000" stroke-linejoin="round" stroke-miterlimit="10" stroke-width="3.98555" transform="matrix(.1 0 0 -.1 0 776.01)"/><path d="m258.140625 188.976562h.492187v-31.988281h-.492187zm0 0"/><use x="227.682" xlink:href="#ae" y="255.737"/><use x="234.825369" xlink:href="#af" y="255.737"/><use x="249.111716" xlink:href="#aa" y="255.737"/><use x="263.398063" xlink:href="#ac" y="255.737"/><use x="241.2882" xlink:href="#ae" y="226.4468"/><use x="248.431959" xlink:href="#N" y="226.4468"/><use x="245.17336" xlink:href="#at" y="191.2327"/><use x="69.47436" xlink:href="#ag" y="226.4468"/><use x="91.074785" xlink:href="#N" y="226.4468"/><use x="159.67556" xlink:href="#K" y="255.737"/><use x="165.458387" xlink:href="#ab" y="255.737"/><use x="142.58256" xlink:href="#P" y="226.4468"/><use x="156.699375" xlink:href="#N" y="226.4468"/><use x="170.985722" xlink:href="#T" y="226.4468"/><use x="183.911919" xlink:href="#ah" y="226.4468"/><use x="162.88056" xlink:href="#at" y="191.2327"/><path d="m935.546875 5870.334375h4.921875v319.882813h-4.921875zm0 0" fill="none" stroke="#000" stroke-linejoin="round" stroke-miterlimit="10" stroke-width="3.98555" transform="matrix(.1 0 0 -.1 0 776.01)"/><path d="m93.554688 188.976562h.492187v-31.988281h-.492187zm0 0"/><use x="80.2738" xlink:href="#S" y="255.737"/><g clip-path="url(#m)"><path d="m3.4375 4540.178125h5945.898438" style="fill:none;stroke-width:6.86227;stroke-linecap:round;stroke-linejoin:round;stroke:#000;stroke-miterlimit:10" transform="matrix(.1 0 0 -.1 0 776.01)"/></g><g clip-path="url(#n)"><path d="m3.4375 4644.7875h5945.898438" style="fill:none;stroke-width:6.86227;stroke-linecap:round;stroke-linejoin:round;stroke:#000;stroke-miterlimit:10" transform="matrix(.1 0 0 -.1 0 776.01)"/></g><g clip-path="url(#o)"><path d="m3.4375 4749.396875h5945.898438" style="fill:none;stroke-width:6.86227;stroke-linecap:round;stroke-linejoin:round;stroke:#000;stroke-miterlimit:10" transform="matrix(.1 0 0 -.1 0 776.01)"/></g><g clip-path="url(#p)"><path d="m3.4375 4854.00625h5945.898438" style="fill:none;stroke-width:6.86227;stroke-linecap:round;stroke-linejoin:round;stroke:#000;stroke-miterlimit:10" transform="matrix(.1 0 0 -.1 0 776.01)"/></g><g clip-path="url(#q)"><path d="m3.4375 4958.615625h5945.898438" style="fill:none;stroke-width:6.86227;stroke-linecap:round;stroke-linejoin:round;stroke:#000;stroke-miterlimit:10" transform="matrix(.1 0 0 -.1 0 776.01)"/></g><path d="m1965.859375 4435.56875h187.578125" style="fill:none;stroke-width:17.323;stroke-linecap:round;stroke-linejoin:round;stroke:#000;stroke-miterlimit:10" transform="matrix(.1 0 0 -.1 0 776.01)"/><use x="580.962" xlink:href="#aw" y="295.84"/><use x="580.962" xlink:href="#aw" y="306.3009"/><g clip-path="url(#r)"><path d="m5932.1875 4540.178125v418.4375" fill="none" stroke="#000" stroke-linejoin="round" stroke-miterlimit="10" stroke-width="41.1631" transform="matrix(.1 0 0 -.1 0 776.01)"/></g><path d="m5884.492188 4540.178125v418.4375" fill="none" stroke="#000" stroke-linejoin="round" stroke-miterlimit="10" stroke-width="13.0341" transform="matrix(.1 0 0 -.1 0 776.01)"/><use x="444.614" xlink:href="#at" y="311.532"/><use x="431.3749" xlink:href="#ai" y="357.2457"/><use x="444.470616" xlink:href="#T" y="357.2457"/><use x="457.226877" xlink:href="#S" y="357.2457"/><use x="439.96435" xlink:href="#R" y="386.5355"/><use x="454.250697" xlink:href="#Q" y="386.5355"/><path d="m4575.820312 4667.365625h4.921876v341.5625h-4.921876zm0 0" fill="none" stroke="#000" stroke-linejoin="round" stroke-miterlimit="10" stroke-width="3.98555" transform="matrix(.1 0 0 -.1 0 776.01)"/><path d="m457.582031 309.273438h.492188v-34.15625h-.492188zm0 0"/><use x="509.591" xlink:href="#ax" y="316.762"/><use x="498.8238" xlink:href="#Q" y="357.2452"/><use x="507.157775" xlink:href="#ab" y="357.2452"/><use x="521.27459" xlink:href="#ae" y="357.2452"/><use x="527.567591" xlink:href="#aj" y="357.2452"/><use x="503.24528" xlink:href="#ad" y="386.535"/><use x="509.02812" xlink:href="#N" y="386.535"/><use x="523.144935" xlink:href="#ak" y="386.535"/><path d="m5232.5 4622.521875h4.960938v334.101563h-4.960938zm0 0" fill="none" stroke="#000" stroke-linejoin="round" stroke-miterlimit="10" stroke-width="3.98555" transform="matrix(.1 0 0 -.1 0 776.01)"/><path d="m523.25 313.757812h.496094v-33.40625h-.496094zm0 0"/><path d="m3983.085938 4719.670313h4.921874v258.476562h-4.921874zm0 0" fill="none" stroke="#000" stroke-linejoin="round" stroke-miterlimit="10" stroke-width="3.98555" transform="matrix(.1 0 0 -.1 0 776.01)"/><path d="m398.308594 304.042969h.492187v-25.847657h-.492187zm0 0"/><use x="367.083" xlink:href="#ag" y="386.535"/><use x="388.683419" xlink:href="#ab" y="386.535"/><use x="402.969766" xlink:href="#Z" y="386.535"/><use x="382.135" xlink:href="#Z" y="357.2452"/><use x="396.421347" xlink:href="#V" y="357.2452"/><use x="385.34008" xlink:href="#at" y="306.3011"/><path d="m3332.695312 4667.365625h4.921876v289.414063h-4.921876zm0 0" fill="none" stroke="#000" stroke-linejoin="round" stroke-miterlimit="10" stroke-width="3.98555" transform="matrix(.1 0 0 -.1 0 776.01)"/><path d="m333.269531 309.273438h.492188v-28.941407h-.492188zm0 0"/><use x="303.915" xlink:href="#P" y="386.535"/><use x="318.031815" xlink:href="#M" y="386.535"/><use x="330.277138" xlink:href="#ab" y="386.535"/><use x="344.563485" xlink:href="#K" y="386.535"/><use x="315.8205" xlink:href="#Q" y="357.2452"/><use x="324.1545" xlink:href="#ab" y="357.2452"/><use x="320.30058" xlink:href="#at" y="311.5315"/><path d="m935.546875 4855.451563v-46.25l1809.296875 43.359375v46.210937zm0 0" fill="none" stroke="#000" stroke-linejoin="round" stroke-miterlimit="10" stroke-width="3.98555" transform="matrix(.1 0 0 -.1 0 776.01)"/><path d="m93.554688 290.464844v4.625l180.929687-4.335938v-4.621094zm0 0"/><path d="m3332.695312 4981.701563v-46.210938l655.3125 21.679688v46.210937zm0 0" fill="none" stroke="#000" stroke-linejoin="round" stroke-miterlimit="10" stroke-width="3.98555" transform="matrix(.1 0 0 -.1 0 776.01)"/><path d="m333.269531 277.839844v4.621094l65.53125-2.167969v-4.621094zm0 0"/><path d="m1143.867188 4258.38125h63.554687v3.4375h-63.554687zm0 0" fill="none" stroke="#000" stroke-linejoin="round" stroke-miterlimit="10" stroke-width="5.49191" transform="matrix(.1 0 0 -.1 0 776.01)"/><path d="m114.386719 350.171875h6.355469v-.34375h-6.355469zm0 0"/><path d="m1197.460938 3965.490625h63.554687v3.4375h-63.554687zm0 0" fill="none" stroke="#000" stroke-linejoin="round" stroke-miterlimit="10" stroke-width="5.49191" transform="matrix(.1 0 0 -.1 0 776.01)"/><path d="m119.742188 379.460938h6.355468v-.34375h-6.355468zm0 0"/><path d="m1698.359375 3965.490625h63.554687v3.4375h-63.554687zm0 0" fill="none" stroke="#000" stroke-linejoin="round" stroke-miterlimit="10" stroke-width="5.49191" transform="matrix(.1 0 0 -.1 0 776.01)"/><path d="m169.835938 379.460938h6.355468v-.34375h-6.355468zm0 0"/><path d="m2306.289062 4258.38125h63.554688v3.4375h-63.554688zm0 0" fill="none" stroke="#000" stroke-linejoin="round" stroke-miterlimit="10" stroke-width="5.49191" transform="matrix(.1 0 0 -.1 0 776.01)"/><path d="m230.628906 350.171875h6.355469v-.34375h-6.355469zm0 0"/><path d="m2989.0625 4258.38125h63.554688v3.4375h-63.554688zm0 0" fill="none" stroke="#000" stroke-linejoin="round" stroke-miterlimit="10" stroke-width="5.49191" transform="matrix(.1 0 0 -.1 0 776.01)"/><path d="m298.90625 350.171875h6.355469v-.34375h-6.355469zm0 0"/><path d="m2893.828125 3965.490625h63.554687v3.4375h-63.554687zm0 0" fill="none" stroke="#000" stroke-linejoin="round" stroke-miterlimit="10" stroke-width="5.49191" transform="matrix(.1 0 0 -.1 0 776.01)"/><path d="m289.382812 379.460938h6.355469v-.34375h-6.355469zm0 0"/><path d="m3555.351562 3965.490625h63.554688v3.4375h-63.554688zm0 0" fill="none" stroke="#000" stroke-linejoin="round" stroke-miterlimit="10" stroke-width="5.49191" transform="matrix(.1 0 0 -.1 0 776.01)"/><path d="m355.535156 379.460938h6.355469v-.34375h-6.355469zm0 0"/><path d="m4136.132812 4258.38125h63.515626v3.4375h-63.515626zm0 0" fill="none" stroke="#000" stroke-linejoin="round" stroke-miterlimit="10" stroke-width="5.49191" transform="matrix(.1 0 0 -.1 0 776.01)"/><path d="m413.609375 350.171875h6.355469v-.34375h-6.355469zm0 0"/><path d="m4819.921875 4258.38125h63.554687v3.4375h-63.554687zm0 0" fill="none" stroke="#000" stroke-linejoin="round" stroke-miterlimit="10" stroke-width="5.49191" transform="matrix(.1 0 0 -.1 0 776.01)"/><path d="m481.988281 350.171875h6.355469v-.34375h-6.355469zm0 0"/><path d="m4799.0625 3965.490625h63.554688v3.4375h-63.554688zm0 0" fill="none" stroke="#000" stroke-linejoin="round" stroke-miterlimit="10" stroke-width="5.49191" transform="matrix(.1 0 0 -.1 0 776.01)"/><path d="m479.90625 379.460938h6.355469v-.34375h-6.355469zm0 0"/><path d="m935.546875 4510.451563h4.921875v320h-4.921875zm0 0" fill="none" stroke="#000" stroke-linejoin="round" stroke-miterlimit="10" stroke-width="3.98555" transform="matrix(.1 0 0 -.1 0 776.01)"/><path d="m93.554688 324.964844h.492187v-31.996094h-.492187zm0 0"/><use x="65.1371" xlink:href="#al" y="386.535"/><use x="80.954703" xlink:href="#S" y="386.535"/><use x="95.41176" xlink:href="#P" y="386.535"/><use x="69.21874" xlink:href="#am" y="357.2452"/><use x="82.654698" xlink:href="#S" y="357.2452"/><use x="96.941051" xlink:href="#Q" y="357.2452"/><use x="80.58674" xlink:href="#at" y="327.2225"/><use x="46.06604" xlink:href="#au" y="301.0705"/><use x="8.36874" xlink:href="#av" y="311.5314"/><path d="m2739.921875 4615.060938h4.960937v258.515625h-4.960937zm0 0" fill="none" stroke="#000" stroke-linejoin="round" stroke-miterlimit="10" stroke-width="3.98555" transform="matrix(.1 0 0 -.1 0 776.01)"/><path d="m273.992188 314.503906h.496093v-25.851562h-.496093zm0 0"/><use x="254.504" xlink:href="#ac" y="386.535"/><use x="266.920027" xlink:href="#ab" y="386.535"/><use x="247.36142" xlink:href="#an" y="357.2452"/><use x="259.777447" xlink:href="#ab" y="357.2452"/><use x="274.063794" xlink:href="#Z" y="357.2452"/><use x="261.02552" xlink:href="#at" y="316.762"/><path d="m2121.054688 4458.146875h4.921874v400.625h-4.921874zm0 0" fill="none" stroke="#000" stroke-linejoin="round" stroke-miterlimit="10" stroke-width="3.98555" transform="matrix(.1 0 0 -.1 0 776.01)"/><path d="m212.105469 330.195312h.492187v-40.0625h-.492187zm0 0"/><use x="188.788" xlink:href="#K" y="386.535"/><use x="194.570827" xlink:href="#ab" y="386.535"/><use x="208.857175" xlink:href="#aa" y="386.535"/><use x="191.67941" xlink:href="#aa" y="357.2452"/><use x="205.965757" xlink:href="#ab" y="357.2452"/><use x="199.13683" xlink:href="#at" y="332.453"/><path d="m1528.28125 4510.451563h4.960938v334.179687h-4.960938zm0 0" fill="none" stroke="#000" stroke-linejoin="round" stroke-miterlimit="10" stroke-width="3.98555" transform="matrix(.1 0 0 -.1 0 776.01)"/><path d="m152.828125 324.964844h.496094v-33.414063h-.496094zm0 0"/><use x="139.862" xlink:href="#at" y="327.223"/><use x="136.14716" xlink:href="#ae" y="386.5355"/><use x="142.949902" xlink:href="#ab" y="386.5355"/><use x="129.51396" xlink:href="#ad" y="357.2457"/><use x="135.296787" xlink:href="#ab" y="357.2457"/><use x="149.583135" xlink:href="#aa" y="357.2457"/><g clip-path="url(#s)"><path d="m3.4375 3210.803125h5945.898438" style="fill:none;stroke-width:6.86227;stroke-linecap:round;stroke-linejoin:round;stroke:#000;stroke-miterlimit:10" transform="matrix(.1 0 0 -.1 0 776.01)"/></g><g clip-path="url(#t)"><path d="m3.4375 3315.373438h5945.898438" style="fill:none;stroke-width:6.86227;stroke-linecap:round;stroke-linejoin:round;stroke:#000;stroke-miterlimit:10" transform="matrix(.1 0 0 -.1 0 776.01)"/></g><g clip-path="url(#u)"><path d="m3.4375 3419.982813h5945.898438" style="fill:none;stroke-width:6.86227;stroke-linecap:round;stroke-linejoin:round;stroke:#000;stroke-miterlimit:10" transform="matrix(.1 0 0 -.1 0 776.01)"/></g><g clip-path="url(#v)"><path d="m3.4375 3524.592188h5945.898438" style="fill:none;stroke-width:6.86227;stroke-linecap:round;stroke-linejoin:round;stroke:#000;stroke-miterlimit:10" transform="matrix(.1 0 0 -.1 0 776.01)"/></g><g clip-path="url(#w)"><path d="m3.4375 3629.201563h5945.898438" style="fill:none;stroke-width:6.86227;stroke-linecap:round;stroke-linejoin:round;stroke:#000;stroke-miterlimit:10" transform="matrix(.1 0 0 -.1 0 776.01)"/></g><path d="m3319.570312 3210.803125v418.398438" fill="none" stroke="#000" stroke-linejoin="round" stroke-miterlimit="10" stroke-width="13.0341" transform="matrix(.1 0 0 -.1 0 776.01)"/><g clip-path="url(#x)"><path d="m5946.25 3210.803125v418.398438" fill="none" stroke="#000" stroke-linejoin="round" stroke-miterlimit="10" stroke-width="13.0341" transform="matrix(.1 0 0 -.1 0 776.01)"/></g><use x="340.343" xlink:href="#at" y="444.471"/><path d="m4345.625 3337.951563h4.960938v341.601562h-4.960938zm0 0" fill="none" stroke="#000" stroke-linejoin="round" stroke-miterlimit="10" stroke-width="3.98555" transform="matrix(.1 0 0 -.1 0 776.01)"/><path d="m434.5625 442.214844h.492188v-34.15625h-.492188zm0 0"/><use x="417.031" xlink:href="#Q" y="493.226"/><use x="425.534507" xlink:href="#N" y="493.226"/><use x="421.59623" xlink:href="#at" y="444.4705"/><path d="m3533.125 3337.951563h4.921875v341.601562h-4.921875zm0 0" fill="none" stroke="#000" stroke-linejoin="round" stroke-miterlimit="10" stroke-width="3.98555" transform="matrix(.1 0 0 -.1 0 776.01)"/><path d="m353.308594 442.214844h.496094v-34.15625h-.496094zm0 0"/><use x="337.139" xlink:href="#ad" y="493.226"/><use x="342.921815" xlink:href="#L" y="493.226"/><path d="m2010.46875 2898.576563h63.515625v3.4375h-63.515625zm0 0" fill="none" stroke="#000" stroke-linejoin="round" stroke-miterlimit="10" stroke-width="5.49191" transform="matrix(.1 0 0 -.1 0 776.01)"/><path d="m201.046875 486.152344h6.351563v-.34375h-6.351563zm0 0"/><path d="m3839.414062 2898.576563h63.554688v3.4375h-63.554688zm0 0" fill="none" stroke="#000" stroke-linejoin="round" stroke-miterlimit="10" stroke-width="5.49191" transform="matrix(.1 0 0 -.1 0 776.01)"/><path d="m383.941406 486.152344h6.355469v-.34375h-6.355469zm0 0"/><path d="m5165.078125 3397.75625h4.960937v334.0625h-4.960937zm0 0" fill="none" stroke="#000" stroke-linejoin="round" stroke-miterlimit="10" stroke-width="3.98555" transform="matrix(.1 0 0 -.1 0 776.01)"/><path d="m516.507812 436.234375h.496094v-33.40625h-.496094zm0 0"/><use x="486.47" xlink:href="#V" y="493.226"/><use x="492.25284" xlink:href="#aa" y="493.226"/><use x="506.538796" xlink:href="#ae" y="493.226"/><use x="513.68258" xlink:href="#T" y="493.226"/><use x="526.438451" xlink:href="#ao" y="493.226"/><use x="502.8493" xlink:href="#ax" y="439.2401"/><use x="46.0663" xlink:href="#au" y="434.00963"/><use x="8.369" xlink:href="#av" y="444.47053"/><use x="243.145" xlink:href="#ax" y="434.00963"/><path d="m1748.085938 3390.25625h4.921874v341.5625h-4.921874zm0 0" fill="none" stroke="#000" stroke-linejoin="round" stroke-miterlimit="10" stroke-width="3.98555" transform="matrix(.1 0 0 -.1 0 776.01)"/><path d="m174.808594 436.984375h.492187v-34.15625h-.492187zm0 0"/><use x="155.063" xlink:href="#T" y="493.226"/><use x="167.989196" xlink:href="#ab" y="493.226"/><use x="161.83956" xlink:href="#at" y="439.2401"/><use x="226.16886" xlink:href="#P" y="493.226"/><use x="240.455207" xlink:href="#ap" y="493.226"/><use x="247.598967" xlink:href="#ae" y="493.226"/><use x="254.742726" xlink:href="#T" y="493.226"/><use x="267.327894" xlink:href="#O" y="493.226"/><path d="m2433.4375 3073.303125h4.921875v316.640625h-4.921875zm0 0" fill="none" stroke="#000" stroke-linejoin="round" stroke-miterlimit="10" stroke-width="3.98555" transform="matrix(.1 0 0 -.1 0 776.01)"/><path d="m243.34375 468.679688h.492188v-31.664063h-.492188zm0 0"/><path d="m935.546875 3390.25625h4.921875v341.5625h-4.921875zm0 0" fill="none" stroke="#000" stroke-linejoin="round" stroke-miterlimit="10" stroke-width="3.98555" transform="matrix(.1 0 0 -.1 0 776.01)"/><path d="m93.554688 436.984375h.492187v-34.15625h-.492187zm0 0"/><use x="64.4562" xlink:href="#aq" y="493.226"/><use x="77.38239" xlink:href="#ar" y="493.226"/><use x="91.668743" xlink:href="#ad" y="493.226"/><use x="97.451564" xlink:href="#ad" y="493.226"/><use x="103.234392" xlink:href="#O" y="493.226"/><use x="80.5867" xlink:href="#at" y="439.2401"/><g clip-path="url(#y)"><path d="m3.4375 1955.490625h5945.898438" style="fill:none;stroke-width:6.86227;stroke-linecap:round;stroke-linejoin:round;stroke:#000;stroke-miterlimit:10" transform="matrix(.1 0 0 -.1 0 776.01)"/></g><g clip-path="url(#z)"><path d="m3.4375 2060.1h5945.898438" style="fill:none;stroke-width:6.86227;stroke-linecap:round;stroke-linejoin:round;stroke:#000;stroke-miterlimit:10" transform="matrix(.1 0 0 -.1 0 776.01)"/></g><g clip-path="url(#A)"><path d="m3.4375 2164.709375h5945.898438" style="fill:none;stroke-width:6.86227;stroke-linecap:round;stroke-linejoin:round;stroke:#000;stroke-miterlimit:10" transform="matrix(.1 0 0 -.1 0 776.01)"/></g><g clip-path="url(#B)"><path d="m3.4375 2269.31875h5945.898438" style="fill:none;stroke-width:6.86227;stroke-linecap:round;stroke-linejoin:round;stroke:#000;stroke-miterlimit:10" transform="matrix(.1 0 0 -.1 0 776.01)"/></g><g clip-path="url(#C)"><path d="m3.4375 2373.928125h5945.898438" style="fill:none;stroke-width:6.86227;stroke-linecap:round;stroke-linejoin:round;stroke:#000;stroke-miterlimit:10" transform="matrix(.1 0 0 -.1 0 776.01)"/></g><g clip-path="url(#D)"><path d="m5946.25 1955.490625v418.4375" fill="none" stroke="#000" stroke-linejoin="round" stroke-miterlimit="10" stroke-width="13.0341" transform="matrix(.1 0 0 -.1 0 776.01)"/></g><use x="477.346" xlink:href="#an" y="617.073"/><use x="490.272184" xlink:href="#af" y="617.073"/><use x="504.558531" xlink:href="#aa" y="617.073"/><use x="518.844878" xlink:href="#ac" y="617.073"/><use x="531.600749" xlink:href="#O" y="617.073"/><use x="501.2151" xlink:href="#at" y="564.7691"/><path d="m4231.484375 2082.678125h4.921875v341.5625h-4.921875zm0 0" fill="none" stroke="#000" stroke-linejoin="round" stroke-miterlimit="10" stroke-width="3.98555" transform="matrix(.1 0 0 -.1 0 776.01)"/><path d="m423.148438 567.742188h.492187v-34.15625h-.492187zm0 0"/><use x="393.964" xlink:href="#aa" y="617.073"/><use x="407.740971" xlink:href="#M" y="617.073"/><use x="419.986294" xlink:href="#ab" y="617.073"/><use x="434.272641" xlink:href="#K" y="617.073"/><use x="410.1804" xlink:href="#at" y="569.9996"/><path d="m3281.015625 1874.670313h4.921875v215.15625h-4.921875zm0 0" fill="none" stroke="#000" stroke-linejoin="round" stroke-miterlimit="10" stroke-width="3.98555" transform="matrix(.1 0 0 -.1 0 776.01)"/><path d="m328.101562 588.542969h.492188v-21.515625h-.492188zm0 0"/><use x="317.554" xlink:href="#ad" y="617.073"/><use x="323.336815" xlink:href="#ab" y="617.073"/><use x="337.623162" xlink:href="#aa" y="617.073"/><use x="327.9017" xlink:href="#at" y="564.7691"/><path d="m1250.351562 1660.1h63.554688v3.4375h-63.554688zm0 0" fill="none" stroke="#000" stroke-linejoin="round" stroke-miterlimit="10" stroke-width="5.49191" transform="matrix(.1 0 0 -.1 0 776.01)"/><path d="m125.03125 610h6.355469v-.34375h-6.355469zm0 0"/><path d="m2955.234375 1660.1h63.515625v3.4375h-63.515625zm0 0" fill="none" stroke="#000" stroke-linejoin="round" stroke-miterlimit="10" stroke-width="5.49191" transform="matrix(.1 0 0 -.1 0 776.01)"/><path d="m295.523438 610h6.351562v-.34375h-6.351562zm0 0"/><path d="m4555.234375 1660.1h63.554687v3.4375h-63.554687zm0 0" fill="none" stroke="#000" stroke-linejoin="round" stroke-miterlimit="10" stroke-width="5.49191" transform="matrix(.1 0 0 -.1 0 776.01)"/><path d="m455.523438 610h6.355468v-.34375h-6.355468zm0 0"/><path d="m807.851562 1956.935938v-46.25l2478.085938-61.25v46.25zm0 0" fill="none" stroke="#000" stroke-linejoin="round" stroke-miterlimit="10" stroke-width="3.98555" transform="matrix(.1 0 0 -.1 0 776.01)"/><path d="m80.785156 580.316406v4.625l247.808594 6.125v-4.625zm0 0"/><path d="m5141.835938 2134.982813h4.921874v341.5625h-4.921874zm0 0" fill="none" stroke="#000" stroke-linejoin="round" stroke-miterlimit="10" stroke-width="3.98555" transform="matrix(.1 0 0 -.1 0 776.01)"/><path d="m514.183594 562.511719h.492187v-34.15625h-.492187zm0 0"/><use x="46.066" xlink:href="#au" y="559.539"/><use x="8.3687" xlink:href="#av" y="569.9999"/><use x="224.7397" xlink:href="#ah" y="617.0733"/><use x="236.985023" xlink:href="#ab" y="617.0733"/><use x="251.27137" xlink:href="#aa" y="617.0733"/><use x="265.557717" xlink:href="#P" y="617.0733"/><use x="163.0245" xlink:href="#at" y="554.3085"/><path d="m2456.640625 1895.021875h4.921875v247.109375h-4.921875zm0 0" fill="none" stroke="#000" stroke-linejoin="round" stroke-miterlimit="10" stroke-width="3.98555" transform="matrix(.1 0 0 -.1 0 776.01)"/><path d="m245.664062 586.507812h.492188v-24.710937h-.492188zm0 0"/><use x="245.463" xlink:href="#at" y="559.539"/><path d="m1632.265625 1915.373438h4.921875v279.0625h-4.921875zm0 0" fill="none" stroke="#000" stroke-linejoin="round" stroke-miterlimit="10" stroke-width="3.98555" transform="matrix(.1 0 0 -.1 0 776.01)"/><path d="m163.226562 584.472656h.492188v-27.90625h-.492188zm0 0"/><use x="152.677" xlink:href="#K" y="617.073"/><use x="158.459827" xlink:href="#N" y="617.073"/><use x="172.746175" xlink:href="#Z" y="617.073"/><use x="80.5868" xlink:href="#at" y="554.3082"/><path d="m807.851562 1935.685938h4.960938v258.75h-4.960938zm0 0" fill="none" stroke="#000" stroke-linejoin="round" stroke-miterlimit="10" stroke-width="3.98555" transform="matrix(.1 0 0 -.1 0 776.01)"/><path d="m80.785156 582.441406h.496094v-25.875h-.496094zm0 0"/><use x="71.0895" xlink:href="#as" y="617.073"/><use x="89.457502" xlink:href="#L" y="617.073"/><g clip-path="url(#E)"><path d="m3.4375 700.217188h5945.898438" style="fill:none;stroke-width:6.86227;stroke-linecap:round;stroke-linejoin:round;stroke:#000;stroke-miterlimit:10" transform="matrix(.1 0 0 -.1 0 776.01)"/></g><g clip-path="url(#F)"><path d="m3.4375 804.826563h5945.898438" style="fill:none;stroke-width:6.86227;stroke-linecap:round;stroke-linejoin:round;stroke:#000;stroke-miterlimit:10" transform="matrix(.1 0 0 -.1 0 776.01)"/></g><g clip-path="url(#G)"><path d="m3.4375 909.435938h5945.898438" style="fill:none;stroke-width:6.86227;stroke-linecap:round;stroke-linejoin:round;stroke:#000;stroke-miterlimit:10" transform="matrix(.1 0 0 -.1 0 776.01)"/></g><g clip-path="url(#H)"><path d="m3.4375 1014.045313h5945.898438" style="fill:none;stroke-width:6.86227;stroke-linecap:round;stroke-linejoin:round;stroke:#000;stroke-miterlimit:10" transform="matrix(.1 0 0 -.1 0 776.01)"/></g><g clip-path="url(#I)"><path d="m3.4375 1118.615625h5945.898438" style="fill:none;stroke-width:6.86227;stroke-linecap:round;stroke-linejoin:round;stroke:#000;stroke-miterlimit:10" transform="matrix(.1 0 0 -.1 0 776.01)"/></g><g clip-path="url(#J)"><path d="m5932.1875 700.217188v418.398437" fill="none" stroke="#000" stroke-linejoin="round" stroke-miterlimit="10" stroke-width="41.1631" transform="matrix(.1 0 0 -.1 0 776.01)"/></g><path d="m5884.492188 700.217188v418.398437" fill="none" stroke="#000" stroke-linejoin="round" stroke-miterlimit="10" stroke-width="13.0341" transform="matrix(.1 0 0 -.1 0 776.01)"/><use x="475.498" xlink:href="#ad" y="742.7069"/><use x="481.28084" xlink:href="#af" y="742.7069"/><use x="495.566796" xlink:href="#aa" y="742.7069"/><use x="509.853143" xlink:href="#ac" y="742.7069"/><use x="522.098466" xlink:href="#aj" y="742.7069"/><use x="502.3707" xlink:href="#ay" y="661.0421"/><use x="495.54062" xlink:href="#at" y="700.7593"/><path d="m4187.1875 827.365625h4.921875v341.601563h-4.921875zm0 0" fill="none" stroke="#000" stroke-linejoin="round" stroke-miterlimit="10" stroke-width="3.98555" transform="matrix(.1 0 0 -.1 0 776.01)"/><path d="m418.71875 693.273438h.492188v-34.15625h-.492188zm0 0"/><use x="396.338" xlink:href="#ac" y="742.7069"/><use x="408.753637" xlink:href="#ab" y="742.7069"/><use x="423.039984" xlink:href="#K" y="742.7069"/><use x="405.7505" xlink:href="#at" y="695.5288"/><path d="m3247.773438 619.357813h4.960937v215.195312h-4.960937zm0 0" fill="none" stroke="#000" stroke-linejoin="round" stroke-miterlimit="10" stroke-width="3.98555" transform="matrix(.1 0 0 -.1 0 776.01)"/><path d="m324.777344 714.074219h.496094v-21.519531h-.496094zm0 0"/><use x="317.123" xlink:href="#aa" y="742.7069"/><use x="331.408956" xlink:href="#ab" y="742.7069"/><use x="324.57925" xlink:href="#at" y="690.2987"/><path d="m1192.5 403.771875h63.554688v3.4375h-63.554688zm0 0" fill="none" stroke="#000" stroke-linejoin="round" stroke-miterlimit="10" stroke-width="5.49191" transform="matrix(.1 0 0 -.1 0 776.01)"/><path d="m119.25 735.632812h6.355469v-.34375h-6.355469zm0 0"/><path d="m2839.921875 403.771875h63.554687v3.4375h-63.554687zm0 0" fill="none" stroke="#000" stroke-linejoin="round" stroke-miterlimit="10" stroke-width="5.49191" transform="matrix(.1 0 0 -.1 0 776.01)"/><path d="m283.992188 735.632812h6.355468v-.34375h-6.355468zm0 0"/><path d="m3678.398438 403.771875h63.554687v3.4375h-63.554687zm0 0" fill="none" stroke="#000" stroke-linejoin="round" stroke-miterlimit="10" stroke-width="5.49191" transform="matrix(.1 0 0 -.1 0 776.01)"/><path d="m367.839844 735.632812h6.355468v-.34375h-6.355468zm0 0"/><path d="m4489.84375 403.771875h63.515625v3.4375h-63.515625zm0 0" fill="none" stroke="#000" stroke-linejoin="round" stroke-miterlimit="10" stroke-width="5.49191" transform="matrix(.1 0 0 -.1 0 776.01)"/><path d="m448.980469 735.632812h6.355469v-.34375h-6.355469zm0 0"/><path d="m807.851562 701.6625v-46.25l2444.84375-61.25v46.210938zm0 0" fill="none" stroke="#000" stroke-linejoin="round" stroke-miterlimit="10" stroke-width="3.98555" transform="matrix(.1 0 0 -.1 0 776.01)"/><path d="m80.785156 705.84375v4.625l244.484375 6.125v-4.621094zm0 0"/><path d="m5085.078125 775.1h4.921875v341.5625h-4.921875zm0 0" fill="none" stroke="#000" stroke-linejoin="round" stroke-miterlimit="10" stroke-width="3.98555" transform="matrix(.1 0 0 -.1 0 776.01)"/><path d="m508.507812 698.503906h.492188v-34.15625h-.492188zm0 0"/><use x="46.066" xlink:href="#au" y="685.0682"/><use x="8.3687" xlink:href="#av" y="695.5287"/><use x="80.5867" xlink:href="#at" y="679.8377"/><use x="147.4027" xlink:href="#P" y="742.7068"/><use x="161.519515" xlink:href="#N" y="742.7068"/><use x="175.805862" xlink:href="#aa" y="742.7068"/><path d="m2434.453125 639.709375h4.960937v247.148438h-4.960937zm0 0" fill="none" stroke="#000" stroke-linejoin="round" stroke-miterlimit="10" stroke-width="3.98555" transform="matrix(.1 0 0 -.1 0 776.01)"/><path d="m243.445312 712.039062h.496094v-24.714843h-.496094zm0 0"/><use x="242.935" xlink:href="#S" y="742.7069"/><use x="243.248672" xlink:href="#at" y="685.0682"/><path d="m1621.171875 660.060938h4.921875v279.101562h-4.921875zm0 0" fill="none" stroke="#000" stroke-linejoin="round" stroke-miterlimit="10" stroke-width="3.98555" transform="matrix(.1 0 0 -.1 0 776.01)"/><path d="m162.117188 710.003906h.492187v-27.910156h-.492187zm0 0"/><use x="77.3824" xlink:href="#an" y="742.7069"/><use x="90.308981" xlink:href="#ap" y="742.7069"/><use x="161.9179" xlink:href="#at" y="679.8378"/><path d="m807.851562 680.4125h4.960938v258.75h-4.960938zm0 0" fill="none" stroke="#000" stroke-linejoin="round" stroke-miterlimit="10" stroke-width="3.98555" transform="matrix(.1 0 0 -.1 0 776.01)"/><path d="m80.785156 707.96875h.496094v-25.875h-.496094zm0 0"/></svg>