<svg height="410.28em" viewBox="0 0 595.28 410.28" width="595.28em" xmlns="http://www.w3.org/2000/svg" xmlns:xlink="http://www.w3.org/1999/xlink"><clipPath id="a"><path d="m0 55h595.28125v2h-595.28125zm0 0"/></clipPath><clipPath id="b"><path d="m0 47h595.28125v1h-595.28125zm0 0"/></clipPath><clipPath id="c"><path d="m0 38h595.28125v2h-595.28125zm0 0"/></clipPath><clipPath id="d"><path d="m0 30h595.28125v2h-595.28125zm0 0"/></clipPath><clipPath id="e"><path d="m0 22h595.28125v2h-595.28125zm0 0"/></clipPath><clipPath id="f"><path d="m594 22h1.28125v35h-1.28125zm0 0"/></clipPath><clipPath id="g"><path d="m0 154h595.28125v1h-595.28125zm0 0"/></clipPath><clipPath id="h"><path d="m0 145h595.28125v2h-595.28125zm0 0"/></clipPath><clipPath id="i"><path d="m0 137h595.28125v2h-595.28125zm0 0"/></clipPath><clipPath id="j"><path d="m0 129h595.28125v1h-595.28125zm0 0"/></clipPath><clipPath id="k"><path d="m0 121h595.28125v1h-595.28125zm0 0"/></clipPath><clipPath id="l"><path d="m594 120h1.28125v35h-1.28125zm0 0"/></clipPath><clipPath id="m"><path d="m0 252h595.28125v2h-595.28125zm0 0"/></clipPath><clipPath id="n"><path d="m0 244h595.28125v2h-595.28125zm0 0"/></clipPath><clipPath id="o"><path d="m0 236h595.28125v1h-595.28125zm0 0"/></clipPath><clipPath id="p"><path d="m0 228h595.28125v1h-595.28125zm0 0"/></clipPath><clipPath id="q"><path d="m0 219h595.28125v2h-595.28125zm0 0"/></clipPath><clipPath id="r"><path d="m594 219h1.28125v35h-1.28125zm0 0"/></clipPath><clipPath id="s"><path d="m0 351h595.28125v1h-595.28125zm0 0"/></clipPath><clipPath id="t"><path d="m0 343h595.28125v1h-595.28125zm0 0"/></clipPath><clipPath id="u"><path d="m0 334h595.28125v2h-595.28125zm0 0"/></clipPath><clipPath id="v"><path d="m0 326h595.28125v2h-595.28125zm0 0"/></clipPath><clipPath id="w"><path d="m0 318h595.28125v2h-595.28125zm0 0"/></clipPath><clipPath id="x"><path d="m591 316h4.28125v38h-4.28125zm0 0"/></clipPath><symbol id="y" overflow="visible"><path d="m7.296875-4.4375c-1.375 0-2.6875.453125-3.875 1.1875-1.546875.921875-3.421875 2.53125-3.421875 4.859375 0 1.9375 1.703125 2.828125 3.453125 2.828125 1.375 0 2.6875-.453125 3.875-1.1875 1.546875-.921875 3.390625-2.53125 3.390625-4.859375 0-1.9375-1.671875-2.828125-3.421875-2.828125zm0 0"/></symbol><symbol id="z" overflow="visible"><path d="m0 0h-.453125v8.21875h.453125zm0 0v8.21875c2.359375 2.46875 5.515625 5.921875 5.515625 9.34375 0 2.203125-.484375 4.328125-1.34375 6.375-.09375.484375.296875.8125.6875.8125.234375 0 .4375-.125.5625-.359375.859375-2.171875 1.390625-4.5 1.390625-6.828125 0-6.515625-6.8125-11.046875-6.8125-17.5625zm0 0"/></symbol><symbol id="A" overflow="visible"><path d="m0 0c0 1.046875.828125 1.875 1.875 1.875s1.875-.828125 1.875-1.875-.828125-1.875-1.875-1.875-1.875.828125-1.875 1.875zm0 0"/></symbol><symbol id="B" overflow="visible"><path d="m12.296875-8.546875c-.53125-2.296875-1.15625-4.5625-1.8125-6.84375 3.15625-3.578125 6.015625-7.265625 6.015625-12 0-3.703125-2.03125-9.03125-4.34375-11.796875-.15625-.125-.359375-.125-.515625 0-3.125 2.265625-4.9375 5.890625-4.9375 9.703125 0 1.703125.03125 3.375.234375 5.0625.234375 2.125.78125 4.203125 1.375 6.28125-3.875 4.40625-8.25 8.609375-8.25 14.453125 0 6.609375 4.765625 12.234375 10.953125 12.234375 1.015625 0 1.96875-.09375 2.921875-.265625.09375 1.0625.171875 2.109375.171875 3.15625 0 .59375-.03125 1.15625-.078125 1.75-.1875 3.25-2.203125 6.234375-5.25 6.3125-.03125 0-.0625.03125-.109375.03125-1.671875 0-3.109375-.953125-3.96875-2.3125.359375.171875.75.296875 1.15625.296875 1.703125 0 3.109375-1.40625 3.109375-3.109375 0-1.84375-1.34375-3.421875-3.109375-3.421875-1.953125 0-3.6875 1.515625-3.6875 3.421875 0 3.546875 2.859375 6.40625 6.40625 6.40625 3.875 0 6.546875-3.484375 6.78125-7.4375.03125-.625.03125-1.21875.03125-1.828125 0-1.1875-.078125-2.375-.171875-3.5625.859375-.265625 1.671875-.65625 2.40625-1.21875 2.421875-1.796875 3.515625-4.328125 3.515625-6.828125 0-4.34375-3.296875-8.515625-8.359375-8.515625-.15625 0-.328125.03125-.484375.03125zm2.796875 15.28125c-.46875-4.078125-1.21875-7.953125-2.046875-11.796875 3.625.296875 5.890625 3.3125 5.890625 6.34375 0 2.296875-1.578125 4.671875-3.84375 5.453125zm-12.765625-7.75c0-5.265625 3.5625-9.234375 7.109375-13.21875.53125 1.9375 1.046875 3.875 1.515625 5.84375-3.328125.765625-5.203125 3.5625-5.203125 6.453125 0 2.296875 1.1875 4.640625 3.8125 6.046875.109375.03125.203125.0625.296875.0625.359375 0 .65625-.328125.65625-.6875 0-.15625-.09375-.328125-.21875-.453125-1.84375-1.0625-2.703125-2.640625-2.703125-4.078125 0-1.9375 1.515625-3.6875 4.109375-3.984375.859375 3.953125 1.609375 7.859375 2.109375 12.0625-.890625.140625-1.78125.203125-2.703125.203125-4.46875 0-8.78125-3.78125-8.78125-8.25zm11.1875-33.5c.5625 1.734375.6875 2.59375.6875 4.5 0 4.171875-2.203125 7.5-4.90625 10.6875-.578125-2.078125-1.078125-4.078125-1.078125-6.578125 0-3.640625 2.03125-6.96875 5.296875-8.609375zm0 0"/></symbol><symbol id="C" overflow="visible"><path d="m.828125-1.453125c.03125-1.078125.75-2.03125 1.765625-2.03125.984375 0 1.453125 1.15625 1.453125 2.265625 0 1.9375-1.640625 3.328125-3.15625 4.578125-.0625-.734375-.140625-1.453125-.140625-2.171875 0-.140625.03125-.234375.03125-.359375zm-1.65625-13.765625.375 19.6875c0 .390625.28125.6875.6875.6875.59375 0 .84375-.6875 1.3125-1.046875 2.0625-1.671875 5.03125-2.859375 5.03125-5.5625 0-1.765625-1.3125-3.28125-3.0625-3.28125-1.046875 0-2.03125.359375-2.890625.984375l.203125-11.46875c-.265625-.140625-.53125-.234375-.828125-.234375s-.5625.09375-.828125.234375zm0 0"/></symbol><symbol id="D" overflow="visible"><path d="m0 0v-8.21875h-.453125v8.21875zm0 0c0-6.671875 8.78125-10.0625 8.78125-16.734375 0-2.03125-.5-4.046875-1.3125-5.890625-.140625-.21875-.375-.328125-.59375-.328125-.40625 0-.796875.328125-.6875.828125.8125 1.703125 1.3125 3.515625 1.3125 5.390625 0 3.6875-4.28125 6.609375-7.5 8.515625zm0 0"/></symbol><symbol id="E" overflow="visible"><path d="m-2.078125-1.546875c0 1.15625.921875 2.078125 2.078125 2.078125s2.078125-.921875 2.078125-2.078125-.921875-2.0625-2.078125-2.0625-2.078125.90625-2.078125 2.0625zm2.078125-10.28125c-5.09375 0-10.8125 5.6875-10.8125 11.890625 0 .265625.265625.46875.515625.46875.234375 0 .5-.171875.5625-.53125.859375-4.890625 4.84375-8.71875 9.734375-8.71875s8.875 3.828125 9.734375 8.71875c.0625.359375.328125.53125.5625.53125.25 0 .515625-.203125.515625-.46875 0-6.203125-5.6875-11.890625-10.8125-11.890625zm0 0"/></symbol><symbol id="F" overflow="visible"><path d="m7.1875-13.125h4.84375v-1.671875h-11.609375v1.671875h4.875v13.125h1.890625zm0 0"/></symbol><symbol id="G" overflow="visible"><path d="m10.40625-4.75c0-1.625-.109375-2.59375-.421875-3.390625-.6875-1.75-2.3125-2.796875-4.296875-2.796875-2.96875 0-4.875 2.25-4.875 5.765625 0 3.5 1.828125 5.640625 4.828125 5.640625 2.4375 0 4.125-1.375 4.546875-3.703125h-1.703125c-.46875 1.40625-1.421875 2.140625-2.78125 2.140625-1.078125 0-1.984375-.484375-2.5625-1.375-.40625-.609375-.546875-1.21875-.5625-2.28125zm-7.78125-1.375c.140625-1.96875 1.328125-3.25 3.03125-3.25 1.734375 0 2.921875 1.34375 2.921875 3.25zm0 0"/></symbol><symbol id="H" overflow="visible"><path d="m1.40625-10.640625v10.640625h1.703125v-5.515625c.015625-2.5625 1.078125-3.703125 3.40625-3.640625v-1.71875c-.28125-.046875-.453125-.0625-.65625-.0625-1.09375 0-1.921875.640625-2.890625 2.234375v-1.9375zm0 0"/></symbol><symbol id="I" overflow="visible"><path d="m1.421875-10.640625v10.640625h1.703125v-6.671875c0-1.546875 1.109375-2.78125 2.5-2.78125 1.25 0 1.96875.765625 1.96875 2.125v7.328125h1.703125v-6.671875c0-1.546875 1.109375-2.78125 2.5-2.78125 1.234375 0 1.96875.78125 1.96875 2.125v7.328125h1.703125v-7.984375c0-1.90625-1.09375-2.953125-3.09375-2.953125-1.421875 0-2.265625.421875-3.265625 1.625-.625-1.140625-1.484375-1.625-2.859375-1.625-1.421875 0-2.375.53125-3.265625 1.796875v-1.5zm0 0"/></symbol><symbol id="J" overflow="visible"><path d="m5.15625-10.640625h-1.75v-2.921875h-1.6875v2.921875h-1.4375v1.390625h1.4375v8.03125c0 1.09375.734375 1.6875 2.0625 1.6875.4375 0 .8125-.046875 1.375-.140625v-1.421875c-.25.0625-.46875.078125-.8125.078125-.734375 0-.9375-.203125-.9375-.953125v-7.28125h1.75zm0 0"/></symbol><symbol id="K" overflow="visible"><path d="m5.515625-10.9375c-3 0-4.78125 2.125-4.78125 5.703125 0 3.59375 1.78125 5.703125 4.8125 5.703125 3 0 4.796875-2.140625 4.796875-5.625 0-3.6875-1.734375-5.78125-4.828125-5.78125zm.03125 1.5625c1.90625 0 3.03125 1.5625 3.03125 4.203125 0 2.515625-1.171875 4.078125-3.03125 4.078125-1.890625 0-3.046875-1.5625-3.046875-4.140625s1.15625-4.140625 3.046875-4.140625zm-.671875-5.640625-1.96875 3.046875h1.21875l3.015625-3.046875zm3.53125 0-1.96875 3.046875h1.21875l3.015625-3.046875zm0 0"/></symbol><symbol id="L" overflow="visible"><path d="m8.890625-7.671875c-.015625-2.09375-1.40625-3.265625-3.859375-3.265625-2.46875 0-4.078125 1.28125-4.078125 3.25 0 1.65625.859375 2.453125 3.375 3.0625l1.578125.390625c1.171875.28125 1.640625.703125 1.640625 1.453125 0 1.015625-.984375 1.6875-2.46875 1.6875-.921875 0-1.6875-.265625-2.109375-.71875-.265625-.296875-.390625-.609375-.5-1.359375h-1.78125c.078125 2.46875 1.46875 3.640625 4.25 3.640625 2.671875 0 4.375-1.328125 4.375-3.375 0-1.578125-.890625-2.453125-3-2.953125l-1.625-.390625c-1.375-.328125-1.96875-.765625-1.96875-1.53125 0-.984375.875-1.59375 2.25-1.59375 1.359375 0 2.09375.59375 2.140625 1.703125zm0 0"/></symbol><symbol id="M" overflow="visible"><path d="m1.421875-10.640625v12.1875c0 1.046875-.328125 1.390625-1.375 1.390625-.125 0-.1875 0-.40625-.015625v1.4375c.203125.046875.296875.0625.5625.0625 1.90625 0 2.90625-.75 2.90625-2.203125v-12.859375zm1.6875-4.15625h-1.6875v2.125h1.6875zm0 0"/></symbol><symbol id="N" overflow="visible"><path d="m1.765625-2.109375v2.109375h1.21875v.359375c0 1.40625-.265625 1.8125-1.21875 1.859375v.765625c1.34375.046875 2.125-.9375 2.125-2.65625v-2.4375zm0 0"/></symbol><symbol id="O" overflow="visible"><path d="m1.421875-10.640625v10.640625h1.703125v-5.859375c0-2.171875 1.140625-3.59375 2.890625-3.59375 1.328125 0 2.1875.8125 2.1875 2.078125v7.375h1.6875v-8.03125c0-1.765625-1.328125-2.90625-3.375-2.90625-1.578125 0-2.59375.609375-3.53125 2.09375v-1.796875zm0 0"/></symbol><symbol id="P" overflow="visible"><path d="m2.859375-14.796875h-1.6875v14.796875h1.6875v-4.140625l1.640625-1.625 3.59375 5.765625h2.09375l-4.34375-6.96875 3.703125-3.671875h-2.171875l-4.515625 4.515625zm0 0"/></symbol><symbol id="Q" overflow="visible"><path d="m9.5 0 4.15625-12.40625v12.40625h1.796875v-14.796875h-2.625l-4.296875 12.890625-4.390625-12.890625h-2.625v14.796875h1.796875v-12.40625l4.203125 12.40625zm0 0"/></symbol><symbol id="R" overflow="visible"><path d="m7.875-10.640625-2.9375 8.28125-2.71875-8.28125h-1.8125l3.59375 10.6875-.65625 1.671875c-.28125.75-.640625 1.046875-1.359375 1.046875-.28125 0-.515625-.046875-.890625-.125v1.515625c.34375.1875.6875.265625 1.140625.265625.546875 0 1.140625-.1875 1.578125-.5.53125-.390625.828125-.84375 1.15625-1.6875l4.734375-12.875zm0 0"/></symbol><symbol id="S" overflow="visible"><path d="m10.40625-4.75c0-1.625-.109375-2.59375-.421875-3.390625-.6875-1.75-2.3125-2.796875-4.296875-2.796875-2.96875 0-4.875 2.25-4.875 5.765625 0 3.5 1.828125 5.640625 4.828125 5.640625 2.4375 0 4.125-1.375 4.546875-3.703125h-1.703125c-.46875 1.40625-1.421875 2.140625-2.78125 2.140625-1.078125 0-1.984375-.484375-2.5625-1.375-.40625-.609375-.546875-1.21875-.5625-2.28125zm-7.78125-1.375c.140625-1.96875 1.328125-3.25 3.03125-3.25 1.734375 0 2.921875 1.34375 2.921875 3.25zm3.625-8.890625-1.953125 3h1.21875l3.03125-3zm0 0"/></symbol><symbol id="T" overflow="visible"><path d="m5.234375-10.640625h-1.765625v-1.65625c0-.71875.390625-1.078125 1.171875-1.078125.15625 0 .203125 0 .59375.015625v-1.390625c-.390625-.09375-.609375-.109375-.953125-.109375-1.5625 0-2.5.890625-2.5 2.421875v1.796875h-1.421875v1.390625h1.421875v9.25h1.6875v-9.25h1.765625zm0 0"/></symbol><symbol id="U" overflow="visible"><path d="m5.515625-10.9375c-3 0-4.78125 2.125-4.78125 5.703125 0 3.59375 1.78125 5.703125 4.8125 5.703125 3 0 4.796875-2.140625 4.796875-5.625 0-3.6875-1.734375-5.78125-4.828125-5.78125zm.03125 1.5625c1.90625 0 3.03125 1.5625 3.03125 4.203125 0 2.515625-1.171875 4.078125-3.03125 4.078125-1.890625 0-3.046875-1.5625-3.046875-4.140625s1.15625-4.140625 3.046875-4.140625zm-.59375-5.140625h-2.109375v2.09375h2.109375zm3.28125 0h-2.109375v2.09375h2.109375zm0 0"/></symbol><symbol id="V" overflow="visible"><path d="m3.078125-14.796875h-1.703125v14.796875h1.703125zm0 0"/></symbol><symbol id="W" overflow="visible"><path d="m10.046875-14.796875h-1.6875v5.5c-.703125-1.078125-1.84375-1.640625-3.265625-1.640625-2.765625 0-4.5625 2.203125-4.5625 5.59375 0 3.59375 1.734375 5.8125 4.625 5.8125 1.453125 0 2.46875-.546875 3.390625-1.875v1.40625h1.5zm-4.671875 5.4375c1.828125 0 2.984375 1.609375 2.984375 4.15625 0 2.46875-1.171875 4.09375-2.953125 4.09375-1.875 0-3.109375-1.65625-3.109375-4.125 0-2.484375 1.234375-4.125 3.078125-4.125zm0 0"/></symbol><symbol id="X" overflow="visible"><path d="m9.5625-7.0625c-.078125-1.03125-.3125-1.703125-.71875-2.296875-.71875-.984375-2-1.578125-3.484375-1.578125-2.890625 0-4.734375 2.265625-4.734375 5.796875 0 3.4375 1.828125 5.609375 4.71875 5.609375 2.53125 0 4.140625-1.53125 4.34375-4.125h-1.703125c-.296875 1.703125-1.171875 2.5625-2.609375 2.5625-1.859375 0-2.984375-1.53125-2.984375-4.046875 0-2.65625 1.09375-4.234375 2.953125-4.234375 1.421875 0 2.3125.828125 2.515625 2.3125zm0 0"/></symbol><symbol id="Y" overflow="visible"><path d="m3.046875-10.640625h-1.6875v10.640625h1.6875zm0-4.15625h-1.703125v2.125h1.703125zm0 0"/></symbol><symbol id="Z" overflow="visible"><path d="m1.09375-14.796875v14.796875h1.53125v-1.359375c.8125 1.234375 1.875 1.828125 3.359375 1.828125 2.796875 0 4.625-2.296875 4.625-5.828125 0-3.453125-1.71875-5.578125-4.546875-5.578125-1.453125 0-2.484375.546875-3.28125 1.75v-5.609375zm4.65625 5.4375c1.875 0 3.09375 1.640625 3.09375 4.1875 0 2.40625-1.25 4.0625-3.09375 4.0625-1.8125 0-2.96875-1.625-2.96875-4.125s1.15625-4.125 2.96875-4.125zm0 0"/></symbol><symbol id="aa" overflow="visible"><path d="m10.859375-1c-.1875.046875-.265625.046875-.359375.046875-.59375 0-.921875-.3125-.921875-.828125v-6.25c0-1.890625-1.375-2.90625-4-2.90625-1.5625 0-2.796875.4375-3.53125 1.234375-.484375.546875-.6875 1.15625-.734375 2.21875h1.71875c.140625-1.296875.90625-1.890625 2.484375-1.890625 1.546875 0 2.375.5625 2.375 1.578125v.453125c-.015625.734375-.375.984375-1.765625 1.171875-2.390625.3125-2.75.390625-3.40625.65625-1.234375.515625-1.859375 1.453125-1.859375 2.84375 0 1.921875 1.328125 3.140625 3.484375 3.140625 1.34375 0 2.421875-.46875 3.609375-1.5625.125 1.09375.65625 1.5625 1.75 1.5625.359375 0 .59375-.046875 1.15625-.1875zm-2.96875-2.34375c0 .5625-.15625.90625-.671875 1.375-.6875.625-1.515625.953125-2.515625.953125-1.3125 0-2.078125-.625-2.078125-1.703125 0-1.125.71875-1.6875 2.546875-1.953125 1.8125-.234375 2.15625-.328125 2.71875-.578125zm0 0"/></symbol><symbol id="ab" overflow="visible"><path d="m8.203125-10.640625v1.546875c-.859375-1.28125-1.796875-1.84375-3.125-1.84375-2.578125 0-4.375 2.390625-4.375 5.796875 0 1.796875.4375 3.09375 1.34375 4.171875.796875.921875 1.8125 1.4375 2.90625 1.4375 1.28125 0 2.1875-.5625 3.078125-1.90625v.546875c0 2.84375-.78125 3.890625-2.890625 3.890625-1.453125 0-2.203125-.5625-2.359375-1.78125h-1.71875c.15625 1.96875 1.71875 3.203125 4.03125 3.203125 1.5625 0 2.859375-.5 3.546875-1.359375.8125-1 1.125-2.3125 1.125-4.8125v-8.890625zm-2.96875 1.265625c1.78125 0 2.796875 1.5 2.796875 4.203125 0 2.578125-1.03125 4.078125-2.796875 4.078125-1.75 0-2.765625-1.53125-2.765625-4.140625 0-2.59375 1.015625-4.140625 2.765625-4.140625zm0 0"/></symbol><symbol id="ac" overflow="visible"><path d="m5.515625-10.9375c-3 0-4.78125 2.125-4.78125 5.703125 0 3.59375 1.78125 5.703125 4.8125 5.703125 3 0 4.796875-2.140625 4.796875-5.625 0-3.6875-1.734375-5.78125-4.828125-5.78125zm.03125 1.5625c1.90625 0 3.03125 1.5625 3.03125 4.203125 0 2.515625-1.171875 4.078125-3.03125 4.078125-1.890625 0-3.046875-1.5625-3.046875-4.140625s1.15625-4.140625 3.046875-4.140625zm0 0"/></symbol><symbol id="ad" overflow="visible"><path d="m5.78125 0 4.078125-10.640625h-1.90625l-3 8.625-2.84375-8.625h-1.90625l3.734375 10.640625zm0 0"/></symbol><symbol id="ae" overflow="visible"><path d="m12.09375-10.453125c0-1.015625-.0625-1.296875-.375-1.984375-.8125-1.703125-2.546875-2.609375-5.046875-2.609375-3.234375 0-5.25 1.671875-5.25 4.34375 0 1.8125.953125 2.953125 2.90625 3.453125l3.671875.984375c1.890625.484375 2.71875 1.234375 2.71875 2.390625 0 .796875-.421875 1.609375-1.0625 2.046875-.578125.421875-1.515625.625-2.71875.625-1.625 0-2.703125-.375-3.40625-1.234375-.546875-.640625-.796875-1.359375-.765625-2.265625h-1.796875c.03125 1.359375.296875 2.25.875 3.0625 1.015625 1.390625 2.71875 2.109375 4.96875 2.109375 1.765625 0 3.21875-.40625 4.171875-1.140625.984375-.796875 1.625-2.109375 1.625-3.390625 0-1.828125-1.140625-3.15625-3.15625-3.71875l-3.703125-.984375c-1.796875-.484375-2.4375-1.0625-2.4375-2.1875 0-1.515625 1.3125-2.5 3.296875-2.5 2.359375 0 3.6875 1.046875 3.703125 3zm0 0"/></symbol><symbol id="af" overflow="visible"><path d="m8.984375-10.640625h-7.921875v1.484375h5.921875l-6.359375 7.640625v1.515625h8.65625v-1.484375h-6.609375l6.3125-7.65625zm0 0"/></symbol><symbol id="ag" overflow="visible"><path d="m10.859375-1c-.1875.046875-.265625.046875-.359375.046875-.59375 0-.921875-.3125-.921875-.828125v-6.25c0-1.890625-1.375-2.90625-4-2.90625-1.5625 0-2.796875.4375-3.53125 1.234375-.484375.546875-.6875 1.15625-.734375 2.21875h1.71875c.140625-1.296875.90625-1.890625 2.484375-1.890625 1.546875 0 2.375.5625 2.375 1.578125v.453125c-.015625.734375-.375.984375-1.765625 1.171875-2.390625.3125-2.75.390625-3.40625.65625-1.234375.515625-1.859375 1.453125-1.859375 2.84375 0 1.921875 1.328125 3.140625 3.484375 3.140625 1.34375 0 2.421875-.46875 3.609375-1.5625.125 1.09375.65625 1.5625 1.75 1.5625.359375 0 .59375-.046875 1.15625-.1875zm-2.96875-2.34375c0 .5625-.15625.90625-.671875 1.375-.6875.625-1.515625.953125-2.515625.953125-1.3125 0-2.078125-.625-2.078125-1.703125 0-1.125.71875-1.6875 2.546875-1.953125 1.8125-.234375 2.15625-.328125 2.71875-.578125zm-1.71875-11.671875-1.96875 3h1.21875l3.015625-3zm0 0"/></symbol><symbol id="ah" overflow="visible"><path d="m1.421875-14.796875v14.796875h1.6875v-5.859375c0-2.171875 1.125-3.59375 2.875-3.59375.578125 0 1.09375.15625 1.5.46875.5.359375.6875.859375.6875 1.609375v7.375h1.6875v-8.03125c0-1.796875-1.28125-2.90625-3.34375-2.90625-1.5 0-2.421875.46875-3.40625 1.765625v-5.625zm0 0"/></symbol><symbol id="ai" overflow="visible"><path d="m9.78125 0v-10.640625h-1.6875v6.03125c0 2.171875-1.125 3.59375-2.890625 3.59375-1.34375 0-2.203125-.8125-2.203125-2.09375v-7.53125h-1.6875v8.203125c0 1.765625 1.328125 2.90625 3.390625 2.90625 1.5625 0 2.5625-.546875 3.5625-1.953125v1.484375zm-4.84375-15.015625-1.953125 3.046875h1.21875l3.015625-3.046875zm3.53125 0-1.953125 3.046875h1.21875l3.015625-3.046875zm0 0"/></symbol><symbol id="aj" overflow="visible"><path d="m4.21875-14.796875h-1.6875v6.859375l.453125 4.53125h.796875l.4375-4.53125zm0 12.6875h-1.703125v2.109375h1.703125zm0 0"/></symbol><symbol id="ak" overflow="visible"><path d="m3.71875-6.734375h8.046875v-1.671875h-8.046875v-4.71875h8.359375v-1.671875h-10.25v14.796875h10.609375v-1.671875h-8.71875zm3.734375-12.328125-1.96875 3h1.21875l3.015625-3zm0 0"/></symbol><symbol id="al" overflow="visible"><path d="m4.296875-8.84375v8.84375h2.53125v-12.8125h-1.671875c-.40625 1.515625-1.71875 2.296875-3.921875 2.296875v1.671875zm0 0"/></symbol><symbol id="am" overflow="visible"><path d="m3.875-2.640625h-2.71875v2.640625h2.71875zm0 0"/></symbol><g clip-path="url(#a)"><path d="m3.046875 3545.729687h5946.679687" fill="none" stroke="#000" stroke-linecap="round" stroke-miterlimit="10" stroke-width="6.09041" transform="matrix(.1 0 0 -.1 0 410.28)"/></g><g clip-path="url(#b)"><path d="m3.046875 3627.917187h5946.679687" fill="none" stroke="#000" stroke-linecap="round" stroke-miterlimit="10" stroke-width="6.09041" transform="matrix(.1 0 0 -.1 0 410.28)"/></g><g clip-path="url(#c)"><path d="m3.046875 3710.14375h5946.679687" fill="none" stroke="#000" stroke-linecap="round" stroke-miterlimit="10" stroke-width="6.09041" transform="matrix(.1 0 0 -.1 0 410.28)"/></g><g clip-path="url(#d)"><path d="m3.046875 3792.33125h5946.679687" fill="none" stroke="#000" stroke-linecap="round" stroke-miterlimit="10" stroke-width="6.09041" transform="matrix(.1 0 0 -.1 0 410.28)"/></g><g clip-path="url(#e)"><path d="m3.046875 3874.51875h5946.679687" fill="none" stroke="#000" stroke-linecap="round" stroke-miterlimit="10" stroke-width="6.09041" transform="matrix(.1 0 0 -.1 0 410.28)"/></g><path d="m3085.625 3851.823437h7.617188v23.75h-7.617188zm0 0" style="fill:none;stroke-width:3.9863;stroke-linecap:round;stroke-linejoin:round;stroke:#000;stroke-miterlimit:10" transform="matrix(.1 0 0 -.1 0 410.28)"/><path d="m308.5625 25.097656h.757812v-2.375h-.757812zm0 0"/><path d="m3085.625 3769.635937h7.617188v45.351563h-7.617188zm0 0" style="fill:none;stroke-width:3.9863;stroke-linecap:round;stroke-linejoin:round;stroke:#000;stroke-miterlimit:10" transform="matrix(.1 0 0 -.1 0 410.28)"/><path d="m308.5625 33.316406h.757812v-4.535156h-.757812zm0 0"/><path d="m3085.625 3687.448437h7.617188v45.351563h-7.617188zm0 0" style="fill:none;stroke-width:3.9863;stroke-linecap:round;stroke-linejoin:round;stroke:#000;stroke-miterlimit:10" transform="matrix(.1 0 0 -.1 0 410.28)"/><path d="m308.5625 41.535156h.757812v-4.53125h-.757812zm0 0"/><path d="m3085.625 3605.260937h7.617188v45.3125h-7.617188zm0 0" style="fill:none;stroke-width:3.9863;stroke-linecap:round;stroke-linejoin:round;stroke:#000;stroke-miterlimit:10" transform="matrix(.1 0 0 -.1 0 410.28)"/><path d="m308.5625 49.753906h.757812v-4.53125h-.757812zm0 0"/><path d="m3085.625 3544.675h7.617188v23.75h-7.617188zm0 0" style="fill:none;stroke-width:3.9863;stroke-linecap:round;stroke-linejoin:round;stroke:#000;stroke-miterlimit:10" transform="matrix(.1 0 0 -.1 0 410.28)"/><path d="m308.5625 55.8125h.757812v-2.375h-.757812zm0 0"/><g clip-path="url(#f)"><path d="m5946.953125 3545.729687v328.789063" fill="none" stroke="#000" stroke-linejoin="round" stroke-miterlimit="10" stroke-width="11.5726" transform="matrix(.1 0 0 -.1 0 410.28)"/></g><path d="m4606.484375 3646.08125h3.90625v226.445312h-3.90625zm0 0" fill="none" stroke="#000" stroke-linejoin="round" stroke-miterlimit="10" stroke-width="3.9863" transform="matrix(.1 0 0 -.1 0 410.28)"/><path d="m460.648438 45.671875h.390624v-22.644531h-.390624zm0 0"/><use x="405.359" xlink:href="#y" y="51.596"/><use x="399.84103" xlink:href="#F" y="85.2273"/><use x="410.385943" xlink:href="#G" y="85.2273"/><path d="m4155 3604.9875h3.945312v267.539062h-3.945312zm0 0" fill="none" stroke="#000" stroke-linejoin="round" stroke-miterlimit="10" stroke-width="3.9863" transform="matrix(.1 0 0 -.1 0 410.28)"/><path d="m415.5 49.78125h.394531v-26.753906h-.394531zm0 0"/><use x="450.506" xlink:href="#y" y="47.487"/><use x="438.5251" xlink:href="#H" y="85.2276"/><use x="445.157907" xlink:href="#G" y="85.2276"/><use x="456.382507" xlink:href="#I" y="85.2276"/><use x="495.6532" xlink:href="#y" y="43.3772"/><use x="492.60047" xlink:href="#J" y="85.2276"/><use x="498.213356" xlink:href="#K" y="85.2276"/><use x="360.21147" xlink:href="#y" y="47.487"/><use x="346.44427" xlink:href="#I" y="85.2276"/><use x="363.282163" xlink:href="#G" y="85.2276"/><use x="374.507153" xlink:href="#L" y="85.2276"/><path d="m3703.515625 3646.08125h3.945313v226.445312h-3.945313zm0 0" fill="none" stroke="#000" stroke-linejoin="round" stroke-miterlimit="10" stroke-width="3.9863" transform="matrix(.1 0 0 -.1 0 410.28)"/><path d="m370.351562 45.671875h.394532v-22.644531h-.394532zm0 0"/><path d="m3365.820312 3306.39375h49.375v3.046875h-49.375zm0 0" fill="none" stroke="#000" stroke-linejoin="round" stroke-miterlimit="10" stroke-width="4.87397" transform="matrix(.1 0 0 -.1 0 410.28)"/><path d="m336.582031 79.640625h4.9375v-.304687h-4.9375zm0 0"/><path d="m5201.054688 3306.39375h49.375v3.046875h-49.375zm0 0" fill="none" stroke="#000" stroke-linejoin="round" stroke-miterlimit="10" stroke-width="4.87397" transform="matrix(.1 0 0 -.1 0 410.28)"/><path d="m520.105469 79.640625h4.9375v-.304687h-4.9375zm0 0"/><path d="m4804.414062 3306.39375h49.375v3.046875h-49.375zm0 0" fill="none" stroke="#000" stroke-linejoin="round" stroke-miterlimit="10" stroke-width="4.87397" transform="matrix(.1 0 0 -.1 0 410.28)"/><path d="m480.441406 79.640625h4.9375v-.304687h-4.9375zm0 0"/><path d="m4275.976562 3306.39375h49.375v3.046875h-49.375zm0 0" fill="none" stroke="#000" stroke-linejoin="round" stroke-miterlimit="10" stroke-width="4.87397" transform="matrix(.1 0 0 -.1 0 410.28)"/><path d="m427.597656 79.640625h4.9375v-.304687h-4.9375zm0 0"/><path d="m3252.03125 3856.784375h1358.359375v35.46875h-1358.359375zm0 0" fill="none" stroke="#000" stroke-linejoin="round" stroke-miterlimit="10" stroke-width="3.9863" transform="matrix(.1 0 0 -.1 0 410.28)"/><path d="m325.203125 24.601562h135.835937v-3.546874h-135.835937zm0 0"/><path d="m2389.101562 3306.39375h49.375v3.046875h-49.375zm0 0" fill="none" stroke="#000" stroke-linejoin="round" stroke-miterlimit="10" stroke-width="4.87397" transform="matrix(.1 0 0 -.1 0 410.28)"/><path d="m238.910156 79.640625h4.9375v-.304687h-4.9375zm0 0"/><path d="m1029.804688 3306.39375h49.375v3.046875h-49.375zm0 0" fill="none" stroke="#000" stroke-linejoin="round" stroke-miterlimit="10" stroke-width="4.87397" transform="matrix(.1 0 0 -.1 0 410.28)"/><path d="m102.980469 79.640625h4.9375v-.304687h-4.9375zm0 0"/><path d="m734.570312 3873.464062h1052.109376v35.46875h-1052.109376zm0 0" fill="none" stroke="#000" stroke-linejoin="round" stroke-miterlimit="10" stroke-width="3.9863" transform="matrix(.1 0 0 -.1 0 410.28)"/><path d="m73.457031 22.933594h105.210938v-3.546875h-105.210938zm0 0"/><use x="506.386" xlink:href="#z" y="14.809"/><use x="540.8005" xlink:href="#y" y="43.3774"/><use x="535.70714" xlink:href="#M" y="85.2278"/><use x="540.129027" xlink:href="#G" y="85.2278"/><use x="551.013785" xlink:href="#N" y="85.2278"/><use x="555.28764" xlink:href="#A" y="43.3774"/><path d="m5509.414062 3687.175h3.945313v267.539062h-3.945313zm0 0" fill="none" stroke="#000" stroke-linejoin="round" stroke-miterlimit="10" stroke-width="3.9863" transform="matrix(.1 0 0 -.1 0 410.28)"/><path d="m550.941406 41.5625h.394532v-26.753906h-.394532zm0 0"/><path d="m5057.929688 3687.175h3.945312v267.539062h-3.945312zm0 0" fill="none" stroke="#000" stroke-linejoin="round" stroke-miterlimit="10" stroke-width="3.9863" transform="matrix(.1 0 0 -.1 0 410.28)"/><path d="m505.792969 41.5625h.394531v-26.753906h-.394531zm0 0"/><path d="m734.609375 3687.175h3.90625v202.03125h-3.90625zm0 0" fill="none" stroke="#000" stroke-linejoin="round" stroke-miterlimit="10" stroke-width="3.9863" transform="matrix(.1 0 0 -.1 0 410.28)"/><path d="m73.457031 41.5625h.394531v-20.203125h-.394531zm0 0"/><use x="122.986" xlink:href="#y" y="47.487"/><use x="112.0243" xlink:href="#O" y="85.2276"/><use x="123.249303" xlink:href="#G" y="85.2276"/><use x="134.473915" xlink:href="#P" y="85.2276"/><path d="m1331.25 3646.08125h3.945312v243.125h-3.945312zm0 0" fill="none" stroke="#000" stroke-linejoin="round" stroke-miterlimit="10" stroke-width="3.9863" transform="matrix(.1 0 0 -.1 0 410.28)"/><path d="m133.125 45.671875h.394531v-24.3125h-.394531zm0 0"/><use x="63.318" xlink:href="#y" y="43.377"/><use x="6.5754" xlink:href="#B" y="47.48677"/><use x="36.1949" xlink:href="#C" y="39.26724"/><use x="38.49607" xlink:href="#Q" y="85.22744"/><use x="55.333957" xlink:href="#G" y="85.22744"/><use x="66.558953" xlink:href="#O" y="85.22744"/><use x="77.78395" xlink:href="#O" y="85.22744"/><use x="88.668322" xlink:href="#R" y="85.22744"/><use x="15.13987" xlink:href="#al" y="85.22744"/><use x="25.174614" xlink:href="#am" y="85.22744"/><use x="224.01287" xlink:href="#z" y="18.91844"/><path d="m3252.070312 3646.08125h3.945313v226.445312h-3.945313zm0 0" fill="none" stroke="#000" stroke-linejoin="round" stroke-miterlimit="10" stroke-width="3.9863" transform="matrix(.1 0 0 -.1 0 410.28)"/><path d="m325.203125 45.671875h.394531v-22.644531h-.394531zm0 0"/><use x="309.206" xlink:href="#O" y="85.228"/><use x="320.430991" xlink:href="#G" y="85.228"/><use x="315.06538" xlink:href="#y" y="47.4874"/><path d="m2690.546875 3522.8h3.945313v267.539062h-3.945313zm0 0" fill="none" stroke="#000" stroke-linejoin="round" stroke-miterlimit="10" stroke-width="3.9863" transform="matrix(.1 0 0 -.1 0 410.28)"/><path d="m269.054688 58h.394531v-26.75h-.394531zm0 0"/><use x="247.955" xlink:href="#O" y="85.228"/><use x="259.1796" xlink:href="#G" y="85.228"/><use x="270.404591" xlink:href="#P" y="85.228"/><use x="258.9159" xlink:href="#y" y="59.8159"/><path d="m2234.21875 3646.08125h3.90625v267.539062h-3.90625zm0 0" fill="none" stroke="#000" stroke-linejoin="round" stroke-miterlimit="10" stroke-width="3.9863" transform="matrix(.1 0 0 -.1 0 410.28)"/><path d="m223.421875 45.671875h.390625v-26.753906h-.390625zm0 0"/><use x="213.279" xlink:href="#y" y="47.487"/><use x="168.1329" xlink:href="#y" y="43.37723"/><use x="162.78368" xlink:href="#S" y="85.22763"/><use x="174.008683" xlink:href="#L" y="85.22763"/><path d="m1782.734375 3687.175h3.945313v202.03125h-3.945313zm0 0" fill="none" stroke="#000" stroke-linejoin="round" stroke-miterlimit="10" stroke-width="3.9863" transform="matrix(.1 0 0 -.1 0 410.28)"/><path d="m178.273438 41.5625h.394531v-20.203125h-.394531zm0 0"/><use x="202.489" xlink:href="#T" y="85.228"/><use x="207.931573" xlink:href="#U" y="85.228"/><use x="219.156564" xlink:href="#V" y="85.228"/><use x="223.578427" xlink:href="#W" y="85.228"/><g clip-path="url(#g)"><path d="m3.046875 2559.440625h5946.679687" style="fill:none;stroke-width:6.09041;stroke-linecap:round;stroke-linejoin:round;stroke:#000;stroke-miterlimit:10" transform="matrix(.1 0 0 -.1 0 410.28)"/></g><g clip-path="url(#h)"><path d="m3.046875 2641.628125h5946.679687" style="fill:none;stroke-width:6.09041;stroke-linecap:round;stroke-linejoin:round;stroke:#000;stroke-miterlimit:10" transform="matrix(.1 0 0 -.1 0 410.28)"/></g><g clip-path="url(#i)"><path d="m3.046875 2723.815625h5946.679687" style="fill:none;stroke-width:6.09041;stroke-linecap:round;stroke-linejoin:round;stroke:#000;stroke-miterlimit:10" transform="matrix(.1 0 0 -.1 0 410.28)"/></g><g clip-path="url(#j)"><path d="m3.046875 2806.003125h5946.679687" style="fill:none;stroke-width:6.09041;stroke-linecap:round;stroke-linejoin:round;stroke:#000;stroke-miterlimit:10" transform="matrix(.1 0 0 -.1 0 410.28)"/></g><g clip-path="url(#k)"><path d="m3.046875 2888.190625h5946.679687" style="fill:none;stroke-width:6.09041;stroke-linecap:round;stroke-linejoin:round;stroke:#000;stroke-miterlimit:10" transform="matrix(.1 0 0 -.1 0 410.28)"/></g><path d="m2988.710938 2865.534375h7.578124v23.710937h-7.578124zm0 0" style="fill:none;stroke-width:3.9863;stroke-linecap:round;stroke-linejoin:round;stroke:#000;stroke-miterlimit:10" transform="matrix(.1 0 0 -.1 0 410.28)"/><path d="m298.871094 123.726562h.757812v-2.371093h-.757812zm0 0"/><path d="m2988.710938 2783.346875h7.578124v45.3125h-7.578124zm0 0" style="fill:none;stroke-width:3.9863;stroke-linecap:round;stroke-linejoin:round;stroke:#000;stroke-miterlimit:10" transform="matrix(.1 0 0 -.1 0 410.28)"/><path d="m298.871094 131.945312h.757812v-4.53125h-.757812zm0 0"/><path d="m2988.710938 2701.159375h7.578124v45.3125h-7.578124zm0 0" style="fill:none;stroke-width:3.9863;stroke-linecap:round;stroke-linejoin:round;stroke:#000;stroke-miterlimit:10" transform="matrix(.1 0 0 -.1 0 410.28)"/><path d="m298.871094 140.164062h.757812v-4.53125h-.757812zm0 0"/><path d="m2988.710938 2618.971875h7.578124v45.3125h-7.578124zm0 0" style="fill:none;stroke-width:3.9863;stroke-linecap:round;stroke-linejoin:round;stroke:#000;stroke-miterlimit:10" transform="matrix(.1 0 0 -.1 0 410.28)"/><path d="m298.871094 148.382812h.757812v-4.53125h-.757812zm0 0"/><path d="m2988.710938 2558.385937h7.578124v23.710938h-7.578124zm0 0" style="fill:none;stroke-width:3.9863;stroke-linecap:round;stroke-linejoin:round;stroke:#000;stroke-miterlimit:10" transform="matrix(.1 0 0 -.1 0 410.28)"/><path d="m298.871094 154.441406h.757812v-2.371094h-.757812zm0 0"/><g clip-path="url(#l)"><path d="m5946.953125 2559.440625v328.75" fill="none" stroke="#000" stroke-linejoin="round" stroke-miterlimit="10" stroke-width="11.5726" transform="matrix(.1 0 0 -.1 0 410.28)"/></g><use x="448.488" xlink:href="#y" y="146.117"/><use x="402.7095" xlink:href="#y" y="150.22638"/><use x="393.5345" xlink:href="#H" y="183.10338"/><use x="400.167307" xlink:href="#G" y="183.10338"/><use x="411.392298" xlink:href="#O" y="183.10338"/><path d="m4128.515625 2618.698437h3.90625v261.5625h-3.90625zm0 0" fill="none" stroke="#000" stroke-linejoin="round" stroke-miterlimit="10" stroke-width="3.9863" transform="matrix(.1 0 0 -.1 0 410.28)"/><path d="m412.851562 148.410156h.390626v-26.152344h-.390626zm0 0"/><use x="442.629" xlink:href="#W" y="183.103"/><use x="453.853991" xlink:href="#G" y="183.103"/><path d="m4586.289062 2659.792187h3.945313v209.84375h-3.945313zm0 0" fill="none" stroke="#000" stroke-linejoin="round" stroke-miterlimit="10" stroke-width="3.9863" transform="matrix(.1 0 0 -.1 0 410.28)"/><path d="m458.628906 144.300781h.390625v-20.984375h-.390625zm0 0"/><use x="494.266" xlink:href="#y" y="142.007"/><path d="m635.15625 2511.667187v-35.46875l940.078125 82.1875v35.46875zm0 0" fill="none" stroke="#000" stroke-linejoin="round" stroke-miterlimit="10" stroke-width="3.9863" transform="matrix(.1 0 0 -.1 0 410.28)"/><path d="m63.515625 159.113281v3.546875l94.007813-8.21875v-3.546875zm0 0"/><path d="m5044.0625 2700.885937h3.945312v267.539063h-3.945312zm0 0" fill="none" stroke="#000" stroke-linejoin="round" stroke-miterlimit="10" stroke-width="3.9863" transform="matrix(.1 0 0 -.1 0 410.28)"/><path d="m504.40625 140.191406h.394531v-26.753906h-.394531zm0 0"/><use x="353.502" xlink:href="#y" y="146.117"/><use x="337.354" xlink:href="#X" y="183.1033"/><use x="347.729009" xlink:href="#L" y="183.1033"/><use x="357.933704" xlink:href="#G" y="183.1033"/><use x="369.158695" xlink:href="#O" y="183.1033"/><path d="m3636.445312 2659.792187h3.90625v231.835938h-3.90625zm0 0" fill="none" stroke="#000" stroke-linejoin="round" stroke-miterlimit="10" stroke-width="3.9863" transform="matrix(.1 0 0 -.1 0 410.28)"/><path d="m363.644531 144.300781h.390625v-23.183593h-.390625zm0 0"/><path d="m4301.523438 2327.64375h49.375v3.046875h-49.375zm0 0" fill="none" stroke="#000" stroke-linejoin="round" stroke-miterlimit="10" stroke-width="4.87397" transform="matrix(.1 0 0 -.1 0 410.28)"/><path d="m430.152344 177.519531h4.9375v-.304687h-4.9375zm0 0"/><path d="m5187.34375 2327.64375h49.375v3.046875h-49.375zm0 0" fill="none" stroke="#000" stroke-linejoin="round" stroke-miterlimit="10" stroke-width="4.87397" transform="matrix(.1 0 0 -.1 0 410.28)"/><path d="m518.734375 177.519531h4.9375v-.304687h-4.9375zm0 0"/><path d="m4759.765625 2327.64375h49.375v3.046875h-49.375zm0 0" fill="none" stroke="#000" stroke-linejoin="round" stroke-miterlimit="10" stroke-width="4.87397" transform="matrix(.1 0 0 -.1 0 410.28)"/><path d="m475.976562 177.519531h4.9375v-.304687h-4.9375zm0 0"/><path d="m3283.085938 2327.64375h49.375v3.046875h-49.375zm0 0" fill="none" stroke="#000" stroke-linejoin="round" stroke-miterlimit="10" stroke-width="4.87397" transform="matrix(.1 0 0 -.1 0 410.28)"/><path d="m328.308594 177.519531h4.9375v-.304687h-4.9375zm0 0"/><path d="m3155.390625 2922.604687v-35.46875l1434.804687-33.359375v35.46875zm0 0" fill="none" stroke="#000" stroke-linejoin="round" stroke-miterlimit="10" stroke-width="3.9863" transform="matrix(.1 0 0 -.1 0 410.28)"/><path d="m315.539062 118.019531v3.546875l143.480469 3.335938v-3.546875zm0 0"/><path d="m2285.078125 2327.64375h49.375v3.046875h-49.375zm0 0" fill="none" stroke="#000" stroke-linejoin="round" stroke-miterlimit="10" stroke-width="4.87397" transform="matrix(.1 0 0 -.1 0 410.28)"/><path d="m228.507812 177.519531h4.9375v-.304687h-4.9375zm0 0"/><path d="m1812.695312 2327.64375h49.375v3.046875h-49.375zm0 0" fill="none" stroke="#000" stroke-linejoin="round" stroke-miterlimit="10" stroke-width="4.87397" transform="matrix(.1 0 0 -.1 0 410.28)"/><path d="m181.269531 177.519531h4.9375v-.304687h-4.9375zm0 0"/><use x="491.809" xlink:href="#V" y="183.103"/><use x="496.230887" xlink:href="#K" y="183.103"/><path d="m5501.835938 2700.885937h3.945312v267.539063h-3.945312zm0 0" fill="none" stroke="#000" stroke-linejoin="round" stroke-miterlimit="10" stroke-width="3.9863" transform="matrix(.1 0 0 -.1 0 410.28)"/><path d="m550.183594 140.191406h.394531v-26.753906h-.394531zm0 0"/><use x="554.532" xlink:href="#A" y="142.007"/><use x="534.9515" xlink:href="#M" y="183.1031"/><use x="539.373387" xlink:href="#G" y="183.1031"/><use x="550.257753" xlink:href="#N" y="183.1031"/><use x="540.04486" xlink:href="#y" y="142.007"/><use x="504.99916" xlink:href="#z" y="113.4386"/><path d="m898.359375 2327.64375h49.375v3.046875h-49.375zm0 0" fill="none" stroke="#000" stroke-linejoin="round" stroke-miterlimit="10" stroke-width="4.87397" transform="matrix(.1 0 0 -.1 0 410.28)"/><path d="m89.835938 177.519531h4.9375v-.304687h-4.9375zm0 0"/><use x="63.318" xlink:href="#y" y="142.007"/><use x="52.4426" xlink:href="#Q" y="183.1031"/><use x="69.280096" xlink:href="#Y" y="183.1031"/><use x="73.702362" xlink:href="#O" y="183.1031"/><path d="m635.195312 2496.276562h3.90625v168.28125h-3.90625zm0 0" fill="none" stroke="#000" stroke-linejoin="round" stroke-miterlimit="10" stroke-width="3.9863" transform="matrix(.1 0 0 -.1 0 410.28)"/><path d="m63.519531 160.652344h.390625v-16.828125h-.390625zm0 0"/><use x="111.151" xlink:href="#y" y="133.788"/><use x="99.6795" xlink:href="#W" y="183.1032"/><use x="110.904503" xlink:href="#G" y="183.1032"/><use x="122.129506" xlink:href="#O" y="183.1032"/><path d="m1113.515625 2537.917187h3.945313v208.828125h-3.945313zm0 0" fill="none" stroke="#000" stroke-linejoin="round" stroke-miterlimit="10" stroke-width="3.9863" transform="matrix(.1 0 0 -.1 0 410.28)"/><path d="m111.351562 156.488281h.394532v-20.882812h-.394532zm0 0"/><use x="6.57539" xlink:href="#B" y="146.117"/><use x="36.19489" xlink:href="#C" y="137.89786"/><path d="m3155.390625 2700.885937h3.945313v201.914063h-3.945313zm0 0" fill="none" stroke="#000" stroke-linejoin="round" stroke-miterlimit="10" stroke-width="3.9863" transform="matrix(.1 0 0 -.1 0 410.28)"/><path d="m315.539062 140.191406h.394532v-20.191406h-.394532zm0 0"/><use x="297.33" xlink:href="#Z" y="183.103"/><use x="308.554991" xlink:href="#U" y="183.103"/><use x="319.779981" xlink:href="#V" y="183.103"/><use x="305.39953" xlink:href="#y" y="142.0069"/><path d="m2586.523438 2700.885937h3.945312v267.539063h-3.945312zm0 0" fill="none" stroke="#000" stroke-linejoin="round" stroke-miterlimit="10" stroke-width="3.9863" transform="matrix(.1 0 0 -.1 0 410.28)"/><path d="m258.652344 140.191406h.394531v-26.753906h-.394531zm0 0"/><use x="237.553" xlink:href="#O" y="183.103"/><use x="248.777991" xlink:href="#aa" y="183.103"/><use x="260.002981" xlink:href="#P" y="183.103"/><use x="248.5143" xlink:href="#y" y="142.0069"/><use x="203.5002" xlink:href="#D" y="162.3561"/><use x="191.7467" xlink:href="#ab" y="183.103"/><use x="202.971703" xlink:href="#ac" y="183.103"/><use x="214.196694" xlink:href="#P" y="183.103"/><use x="156.9295" xlink:href="#y" y="129.678"/><use x="148.85997" xlink:href="#W" y="183.103"/><use x="160.084582" xlink:href="#ac" y="183.103"/><use x="171.309585" xlink:href="#V" y="183.103"/><path d="m1571.289062 2577.760937h3.945313v210.078125h-3.945313zm0 0" fill="none" stroke="#000" stroke-linejoin="round" stroke-miterlimit="10" stroke-width="3.9863" transform="matrix(.1 0 0 -.1 0 410.28)"/><path d="m157.128906 152.503906h.394532v-21.007812h-.394532zm0 0"/><use x="202.708" xlink:href="#y" y="133.788"/><path d="m2029.0625 2479.245312h3.945312v267.5h-3.945312zm0 0" fill="none" stroke="#000" stroke-linejoin="round" stroke-miterlimit="10" stroke-width="3.9863" transform="matrix(.1 0 0 -.1 0 410.28)"/><path d="m202.90625 162.355469h.394531v-26.75h-.394531zm0 0"/><g clip-path="url(#m)"><path d="m3.046875 1573.151562h5946.679687" style="fill:none;stroke-width:6.09041;stroke-linecap:round;stroke-linejoin:round;stroke:#000;stroke-miterlimit:10" transform="matrix(.1 0 0 -.1 0 410.28)"/></g><g clip-path="url(#n)"><path d="m3.046875 1655.339062h5946.679687" style="fill:none;stroke-width:6.09041;stroke-linecap:round;stroke-linejoin:round;stroke:#000;stroke-miterlimit:10" transform="matrix(.1 0 0 -.1 0 410.28)"/></g><g clip-path="url(#o)"><path d="m3.046875 1737.526562h5946.679687" style="fill:none;stroke-width:6.09041;stroke-linecap:round;stroke-linejoin:round;stroke:#000;stroke-miterlimit:10" transform="matrix(.1 0 0 -.1 0 410.28)"/></g><g clip-path="url(#p)"><path d="m3.046875 1819.714062h5946.679687" style="fill:none;stroke-width:6.09041;stroke-linecap:round;stroke-linejoin:round;stroke:#000;stroke-miterlimit:10" transform="matrix(.1 0 0 -.1 0 410.28)"/></g><g clip-path="url(#q)"><path d="m3.046875 1901.901562h5946.679687" style="fill:none;stroke-width:6.09041;stroke-linecap:round;stroke-linejoin:round;stroke:#000;stroke-miterlimit:10" transform="matrix(.1 0 0 -.1 0 410.28)"/></g><path d="m2804.140625 1879.245312h7.578125v23.710938h-7.578125zm0 0" style="fill:none;stroke-width:3.9863;stroke-linecap:round;stroke-linejoin:round;stroke:#000;stroke-miterlimit:10" transform="matrix(.1 0 0 -.1 0 410.28)"/><path d="m280.414062 222.355469h.757813v-2.371094h-.757813zm0 0"/><path d="m2804.140625 1797.057812h7.578125v45.3125h-7.578125zm0 0" style="fill:none;stroke-width:3.9863;stroke-linecap:round;stroke-linejoin:round;stroke:#000;stroke-miterlimit:10" transform="matrix(.1 0 0 -.1 0 410.28)"/><path d="m280.414062 230.574219h.757813v-4.53125h-.757813zm0 0"/><path d="m2804.140625 1714.83125h7.578125v45.351562h-7.578125zm0 0" style="fill:none;stroke-width:3.9863;stroke-linecap:round;stroke-linejoin:round;stroke:#000;stroke-miterlimit:10" transform="matrix(.1 0 0 -.1 0 410.28)"/><path d="m280.414062 238.796875h.757813v-4.535156h-.757813zm0 0"/><path d="m2804.140625 1632.64375h7.578125v45.351562h-7.578125zm0 0" style="fill:none;stroke-width:3.9863;stroke-linecap:round;stroke-linejoin:round;stroke:#000;stroke-miterlimit:10" transform="matrix(.1 0 0 -.1 0 410.28)"/><path d="m280.414062 247.015625h.757813v-4.535156h-.757813zm0 0"/><path d="m2804.140625 1572.096875h7.578125v23.710937h-7.578125zm0 0" style="fill:none;stroke-width:3.9863;stroke-linecap:round;stroke-linejoin:round;stroke:#000;stroke-miterlimit:10" transform="matrix(.1 0 0 -.1 0 410.28)"/><path d="m280.414062 253.070312h.757813v-2.371093h-.757813zm0 0"/><g clip-path="url(#r)"><path d="m5946.953125 1573.151562v328.75" fill="none" stroke="#000" stroke-linejoin="round" stroke-miterlimit="10" stroke-width="11.5726" transform="matrix(.1 0 0 -.1 0 410.28)"/></g><use x="418.877" xlink:href="#y" y="244.747"/><use x="413.52778" xlink:href="#L" y="281.7333"/><use x="423.732866" xlink:href="#G" y="281.7333"/><path d="m4290.15625 1673.503125h3.945312v226.40625h-3.945312zm0 0" fill="none" stroke="#000" stroke-linejoin="round" stroke-miterlimit="10" stroke-width="3.9863" transform="matrix(.1 0 0 -.1 0 410.28)"/><path d="m429.015625 242.929688h.394531v-22.640626h-.394531zm0 0"/><use x="461.215" xlink:href="#y" y="240.637"/><use x="461.215" xlink:href="#V" y="281.7331"/><use x="465.636887" xlink:href="#K" y="281.7331"/><path d="m4713.554688 1714.596875h3.945312v201.835937h-3.945312zm0 0" fill="none" stroke="#000" stroke-linejoin="round" stroke-miterlimit="10" stroke-width="3.9863" transform="matrix(.1 0 0 -.1 0 410.28)"/><path d="m471.355469 238.820312h.394531v-20.183593h-.394531zm0 0"/><path d="m3437.65625 1673.503125h3.945312v226.40625h-3.945312zm0 0" fill="none" stroke="#000" stroke-linejoin="round" stroke-miterlimit="10" stroke-width="3.9863" transform="matrix(.1 0 0 -.1 0 410.28)"/><path d="m343.765625 242.929688h.394531v-22.640626h-.394531zm0 0"/><path d="m734.570312 1900.846875h863.28125v35.46875h-863.28125zm0 0" fill="none" stroke="#000" stroke-linejoin="round" stroke-miterlimit="10" stroke-width="3.9863" transform="matrix(.1 0 0 -.1 0 410.28)"/><path d="m73.457031 220.195312h86.328125v-3.546874h-86.328125zm0 0"/><use x="333.625" xlink:href="#y" y="244.747"/><use x="316.5414" xlink:href="#ab" y="281.7333"/><use x="327.766391" xlink:href="#ac" y="281.7333"/><use x="338.991381" xlink:href="#O" y="281.7333"/><use x="350.216372" xlink:href="#W" y="281.7333"/><use x="376.5398" xlink:href="#y" y="248.8563"/><use x="374.59253" xlink:href="#ad" y="281.7333"/><use x="384.797616" xlink:href="#Y" y="281.7333"/><path d="m3866.796875 1632.409375h3.945313v267.5h-3.945313zm0 0" fill="none" stroke="#000" stroke-linejoin="round" stroke-miterlimit="10" stroke-width="3.9863" transform="matrix(.1 0 0 -.1 0 410.28)"/><path d="m386.679688 247.039062h.394531v-26.75h-.394531zm0 0"/><path d="m3989.0625 1341.315625h49.375v3.046875h-49.375zm0 0" fill="none" stroke="#000" stroke-linejoin="round" stroke-miterlimit="10" stroke-width="4.87397" transform="matrix(.1 0 0 -.1 0 410.28)"/><path d="m398.902344 276.148438h4.9375v-.304688h-4.9375zm0 0"/><path d="m5076.796875 1341.315625h49.375v3.046875h-49.375zm0 0" fill="none" stroke="#000" stroke-linejoin="round" stroke-miterlimit="10" stroke-width="4.87397" transform="matrix(.1 0 0 -.1 0 410.28)"/><path d="m507.679688 276.148438h4.9375v-.304688h-4.9375zm0 0"/><path d="m4661.328125 1611.042187c85.390625-98.320312 316.25-127.460937 423.398437-53.4375-106.25-66.757812-337.070312-37.617187-423.398437 53.4375zm0 0" style="fill:none;stroke-width:4.87315;stroke-linecap:round;stroke-linejoin:round;stroke:#000;stroke-miterlimit:10" transform="matrix(.1 0 0 -.1 0 410.28)"/><path d="m466.132812 249.175781c8.539063 9.832031 31.625 12.746094 42.339844 5.34375-10.625 6.675781-33.707031 3.761719-42.339844-5.34375"/><path d="m4713.554688 1936.315625v-35.46875l427.304687-16.679688v35.46875zm0 0" fill="none" stroke="#000" stroke-linejoin="round" stroke-miterlimit="10" stroke-width="3.9863" transform="matrix(.1 0 0 -.1 0 410.28)"/><path d="m471.355469 216.648438v3.546874l42.730469 1.667969v-3.546875zm0 0"/><path d="m4456.171875 1341.315625h49.375v3.046875h-49.375zm0 0" fill="none" stroke="#000" stroke-linejoin="round" stroke-miterlimit="10" stroke-width="4.87397" transform="matrix(.1 0 0 -.1 0 410.28)"/><path d="m445.617188 276.148438h4.9375v-.304688h-4.9375zm0 0"/><path d="m3655.46875 1341.315625h49.375v3.046875h-49.375zm0 0" fill="none" stroke="#000" stroke-linejoin="round" stroke-miterlimit="10" stroke-width="4.87397" transform="matrix(.1 0 0 -.1 0 410.28)"/><path d="m365.546875 276.148438h4.9375v-.304688h-4.9375zm0 0"/><path d="m2969.375 1884.167187h1324.726562v35.46875h-1324.726562zm0 0" fill="none" stroke="#000" stroke-linejoin="round" stroke-miterlimit="10" stroke-width="3.9863" transform="matrix(.1 0 0 -.1 0 410.28)"/><path d="m296.9375 221.863281h132.472656v-3.546875h-132.472656zm0 0"/><path d="m2125.9375 1341.315625h49.375v3.046875h-49.375zm0 0" fill="none" stroke="#000" stroke-linejoin="round" stroke-miterlimit="10" stroke-width="4.87397" transform="matrix(.1 0 0 -.1 0 410.28)"/><path d="m212.59375 276.148438h4.9375v-.304688h-4.9375zm0 0"/><path d="m903.085938 1341.315625h49.375v3.046875h-49.375zm0 0" fill="none" stroke="#000" stroke-linejoin="round" stroke-miterlimit="10" stroke-width="4.87397" transform="matrix(.1 0 0 -.1 0 410.28)"/><path d="m90.308594 276.148438h4.9375v-.304688h-4.9375zm0 0"/><path d="m5560.3125 1632.409375h3.945312v267.5h-3.945312zm0 0" fill="none" stroke="#000" stroke-linejoin="round" stroke-miterlimit="10" stroke-width="3.9863" transform="matrix(.1 0 0 -.1 0 410.28)"/><path d="m556.03125 247.039062h.390625v-26.75h-.390625zm0 0"/><use x="503.553" xlink:href="#y" y="244.747"/><path d="m5136.914062 1673.503125h3.945313v226.5625h-3.945313zm0 0" fill="none" stroke="#000" stroke-linejoin="round" stroke-miterlimit="10" stroke-width="3.9863" transform="matrix(.1 0 0 -.1 0 410.28)"/><path d="m513.691406 242.929688h.394532v-22.65625h-.394532zm0 0"/><use x="545.891" xlink:href="#y" y="248.857"/><use x="543.43358" xlink:href="#M" y="281.734"/><use x="547.855467" xlink:href="#G" y="281.734"/><use x="106.91358" xlink:href="#y" y="244.7477"/><use x="63.31828" xlink:href="#y" y="240.63793"/><use x="51.16708" xlink:href="#ae" y="281.73403"/><use x="64.773327" xlink:href="#af" y="281.73403"/><use x="74.97801" xlink:href="#S" y="281.73403"/><path d="m734.609375 1714.596875h3.90625v201.992187h-3.90625zm0 0" fill="none" stroke="#000" stroke-linejoin="round" stroke-miterlimit="10" stroke-width="3.9863" transform="matrix(.1 0 0 -.1 0 410.28)"/><path d="m73.457031 238.820312h.394531v-20.199218h-.394531zm0 0"/><use x="99.3535" xlink:href="#V" y="281.734"/><use x="103.775375" xlink:href="#G" y="281.734"/><use x="115.000378" xlink:href="#L" y="281.734"/><path d="m1170.546875 1673.503125h3.945313v243.085937h-3.945313zm0 0" fill="none" stroke="#000" stroke-linejoin="round" stroke-miterlimit="10" stroke-width="3.9863" transform="matrix(.1 0 0 -.1 0 410.28)"/><path d="m117.054688 242.929688h.390624v-24.308594h-.390624zm0 0"/><use x="149.251" xlink:href="#y" y="240.637"/><use x="149.004516" xlink:href="#G" y="281.7331"/><use x="6.575516" xlink:href="#B" y="244.7468"/><use x="36.195016" xlink:href="#C" y="236.52766"/><use x="286.799016" xlink:href="#y" y="244.7468"/><use x="233.927516" xlink:href="#y" y="257.0753"/><use x="225.857206" xlink:href="#V" y="281.7331"/><use x="230.279069" xlink:href="#ag" y="281.7331"/><use x="241.503669" xlink:href="#ab" y="281.7331"/><path d="m2440.664062 1550.221875h3.945313v267.5h-3.945313zm0 0" fill="none" stroke="#000" stroke-linejoin="round" stroke-miterlimit="10" stroke-width="3.9863" transform="matrix(.1 0 0 -.1 0 410.28)"/><path d="m244.066406 255.261719h.394532v-26.753907h-.394532zm0 0"/><use x="280.94" xlink:href="#ah" y="281.734"/><use x="292.164991" xlink:href="#ai" y="281.734"/><path d="m2969.375 1673.503125h3.945312v226.40625h-3.945312zm0 0" fill="none" stroke="#000" stroke-linejoin="round" stroke-miterlimit="10" stroke-width="3.9863" transform="matrix(.1 0 0 -.1 0 410.28)"/><path d="m296.9375 242.929688h.394531v-22.640626h-.394531zm0 0"/><path d="m1593.90625 1714.596875h3.945312v201.992187h-3.945312zm0 0" fill="none" stroke="#000" stroke-linejoin="round" stroke-miterlimit="10" stroke-width="3.9863" transform="matrix(.1 0 0 -.1 0 410.28)"/><path d="m159.390625 238.820312h.394531v-20.199218h-.394531zm0 0"/><use x="202.321" xlink:href="#z" y="216.179"/><path d="m2017.304688 1673.503125h3.90625v267.5h-3.90625zm0 0" fill="none" stroke="#000" stroke-linejoin="round" stroke-miterlimit="10" stroke-width="3.9863" transform="matrix(.1 0 0 -.1 0 410.28)"/><path d="m201.730469 242.929688h.390625v-26.75h-.390625zm0 0"/><use x="189.642" xlink:href="#ad" y="281.734"/><use x="199.847074" xlink:href="#Y" y="281.734"/><use x="191.58927" xlink:href="#y" y="244.7477"/><g clip-path="url(#s)"><path d="m3.046875 586.823437h5946.679687" style="fill:none;stroke-width:6.09041;stroke-linecap:round;stroke-linejoin:round;stroke:#000;stroke-miterlimit:10" transform="matrix(.1 0 0 -.1 0 410.28)"/></g><g clip-path="url(#t)"><path d="m3.046875 669.010937h5946.679687" style="fill:none;stroke-width:6.09041;stroke-linecap:round;stroke-linejoin:round;stroke:#000;stroke-miterlimit:10" transform="matrix(.1 0 0 -.1 0 410.28)"/></g><g clip-path="url(#u)"><path d="m3.046875 751.2375h5946.679687" style="fill:none;stroke-width:6.09041;stroke-linecap:round;stroke-linejoin:round;stroke:#000;stroke-miterlimit:10" transform="matrix(.1 0 0 -.1 0 410.28)"/></g><g clip-path="url(#v)"><path d="m3.046875 833.425h5946.679687" style="fill:none;stroke-width:6.09041;stroke-linecap:round;stroke-linejoin:round;stroke:#000;stroke-miterlimit:10" transform="matrix(.1 0 0 -.1 0 410.28)"/></g><g clip-path="url(#w)"><path d="m3.046875 915.6125h5946.679687" style="fill:none;stroke-width:6.09041;stroke-linecap:round;stroke-linejoin:round;stroke:#000;stroke-miterlimit:10" transform="matrix(.1 0 0 -.1 0 410.28)"/></g><g clip-path="url(#x)"><path d="m5934.492188 586.823437v328.789063" fill="none" stroke="#000" stroke-linejoin="round" stroke-miterlimit="10" stroke-width="36.5507" transform="matrix(.1 0 0 -.1 0 410.28)"/></g><path d="m5892.148438 586.823437v328.789063" fill="none" stroke="#000" stroke-linejoin="round" stroke-miterlimit="10" stroke-width="11.5726" transform="matrix(.1 0 0 -.1 0 410.28)"/><use x="470.527" xlink:href="#M" y="380.4456"/><use x="474.948887" xlink:href="#G" y="380.4456"/><use x="485.494192" xlink:href="#aj" y="380.4456"/><use x="263.79" xlink:href="#y" y="351.5964"/><use x="480.817" xlink:href="#E" y="316.2448"/><use x="475.45059" xlink:href="#y" y="355.7061"/><path d="m3741.640625 563.89375h3.945313v267.539062h-3.945313zm0 0" fill="none" stroke="#000" stroke-linejoin="round" stroke-miterlimit="10" stroke-width="3.9863" transform="matrix(.1 0 0 -.1 0 410.28)"/><path d="m374.164062 353.890625h.394532v-26.753906h-.394532zm0 0"/><use x="360.974" xlink:href="#J" y="380.4456"/><use x="366.586886" xlink:href="#K" y="380.4456"/><use x="364.02673" xlink:href="#y" y="355.7061"/><path d="m2739.296875 604.9875h3.945313v226.484375h-3.945313zm0 0" fill="none" stroke="#000" stroke-linejoin="round" stroke-miterlimit="10" stroke-width="3.9863" transform="matrix(.1 0 0 -.1 0 410.28)"/><path d="m273.929688 349.78125h.394531v-22.648438h-.394531zm0 0"/><use x="260.823" xlink:href="#J" y="380.4456"/><use x="266.265573" xlink:href="#G" y="380.4456"/><path d="m734.570312 867.839062v-35.46875l2008.671876-16.679687v35.46875zm0 0" fill="none" stroke="#000" stroke-linejoin="round" stroke-miterlimit="10" stroke-width="3.9863" transform="matrix(.1 0 0 -.1 0 410.28)"/><path d="m73.457031 323.496094v3.546875l200.867188 1.667969v-3.546876zm0 0"/><path d="m2163.164062 354.20625h49.375v3.046875h-49.375zm0 0" fill="none" stroke="#000" stroke-linejoin="round" stroke-miterlimit="10" stroke-width="4.87397" transform="matrix(.1 0 0 -.1 0 410.28)"/><path d="m216.3125 374.859375h4.9375v-.304687h-4.9375zm0 0"/><path d="m3167.617188 354.20625h49.375v3.046875h-49.375zm0 0" fill="none" stroke="#000" stroke-linejoin="round" stroke-miterlimit="10" stroke-width="4.87397" transform="matrix(.1 0 0 -.1 0 410.28)"/><path d="m316.761719 374.859375h4.9375v-.304687h-4.9375zm0 0"/><path d="m4216.992188 354.20625h49.375v3.046875h-49.375zm0 0" fill="none" stroke="#000" stroke-linejoin="round" stroke-miterlimit="10" stroke-width="4.87397" transform="matrix(.1 0 0 -.1 0 410.28)"/><path d="m421.699219 374.859375h4.9375v-.304687h-4.9375zm0 0"/><path d="m4855.898438 563.89375h3.945312v267.539062h-3.945312zm0 0" fill="none" stroke="#000" stroke-linejoin="round" stroke-miterlimit="10" stroke-width="3.9863" transform="matrix(.1 0 0 -.1 0 410.28)"/><path d="m485.589844 353.890625h.394531v-26.753906h-.394531zm0 0"/><use x="36.1949" xlink:href="#C" y="335.1581"/><use x="6.5754" xlink:href="#B" y="343.37724"/><path d="m1736.953125 646.08125h3.945313v193.671875h-3.945313zm0 0" fill="none" stroke="#000" stroke-linejoin="round" stroke-miterlimit="10" stroke-width="3.9863" transform="matrix(.1 0 0 -.1 0 410.28)"/><path d="m173.695312 345.671875h.394532v-19.367187h-.394532zm0 0"/><use x="161.098" xlink:href="#S" y="380.4456"/><use x="172.323003" xlink:href="#V" y="380.4456"/><use x="163.55464" xlink:href="#y" y="347.4866"/><path d="m734.609375 646.08125h3.90625v201.992187h-3.90625zm0 0" fill="none" stroke="#000" stroke-linejoin="round" stroke-miterlimit="10" stroke-width="3.9863" transform="matrix(.1 0 0 -.1 0 410.28)"/><path d="m73.457031 345.671875h.394531v-20.199219h-.394531zm0 0"/><use x="56.7789" xlink:href="#ak" y="380.4456"/><use x="70.384756" xlink:href="#L" y="380.4456"/><use x="63.31796" xlink:href="#y" y="347.4866"/></svg>