<svg height="433.03em" viewBox="0 0 595.28 433.03" width="595.28em" xmlns="http://www.w3.org/2000/svg" xmlns:xlink="http://www.w3.org/1999/xlink"><clipPath id="a"><path d="m0 58h595.28125v2h-595.28125zm0 0"/></clipPath><clipPath id="b"><path d="m0 50h595.28125v1h-595.28125zm0 0"/></clipPath><clipPath id="c"><path d="m0 41h595.28125v2h-595.28125zm0 0"/></clipPath><clipPath id="d"><path d="m0 32h595.28125v2h-595.28125zm0 0"/></clipPath><clipPath id="e"><path d="m0 23h595.28125v2h-595.28125zm0 0"/></clipPath><clipPath id="f"><path d="m594 23h1.28125v37h-1.28125zm0 0"/></clipPath><clipPath id="g"><path d="m0 163h595.28125v2h-595.28125zm0 0"/></clipPath><clipPath id="h"><path d="m0 154h595.28125v2h-595.28125zm0 0"/></clipPath><clipPath id="i"><path d="m0 145h595.28125v2h-595.28125zm0 0"/></clipPath><clipPath id="j"><path d="m0 137h595.28125v1h-595.28125zm0 0"/></clipPath><clipPath id="k"><path d="m0 128h595.28125v2h-595.28125zm0 0"/></clipPath><clipPath id="l"><path d="m594 128h1.28125v37h-1.28125zm0 0"/></clipPath><clipPath id="m"><path d="m0 268h595.28125v1h-595.28125zm0 0"/></clipPath><clipPath id="n"><path d="m0 259h595.28125v1h-595.28125zm0 0"/></clipPath><clipPath id="o"><path d="m0 250h595.28125v2h-595.28125zm0 0"/></clipPath><clipPath id="p"><path d="m0 241h595.28125v2h-595.28125zm0 0"/></clipPath><clipPath id="q"><path d="m0 233h595.28125v1h-595.28125zm0 0"/></clipPath><clipPath id="r"><path d="m594 232h1.28125v37h-1.28125zm0 0"/></clipPath><clipPath id="s"><path d="m0 372h595.28125v2h-595.28125zm0 0"/></clipPath><clipPath id="t"><path d="m0 363h595.28125v2h-595.28125zm0 0"/></clipPath><clipPath id="u"><path d="m0 355h595.28125v1h-595.28125zm0 0"/></clipPath><clipPath id="v"><path d="m0 346h595.28125v2h-595.28125zm0 0"/></clipPath><clipPath id="w"><path d="m0 337h595.28125v2h-595.28125zm0 0"/></clipPath><clipPath id="x"><path d="m591 336h4.28125v39h-4.28125zm0 0"/></clipPath><symbol id="y" overflow="visible"><path d="m7.75-4.703125c-1.46875 0-2.875.484375-4.125 1.25-1.640625.984375-3.625 2.6875-3.625 5.15625 0 2.0625 1.8125 3 3.65625 3 1.46875 0 2.859375-.484375 4.125-1.25 1.640625-.984375 3.59375-2.6875 3.59375-5.15625 0-2.0625-1.78125-3-3.625-3zm0 0"/></symbol><symbol id="z" overflow="visible"><path d="m.875-1.53125c.03125-1.15625.796875-2.171875 1.875-2.171875 1.046875 0 1.546875 1.234375 1.546875 2.40625 0 2.0625-1.75 3.53125-3.359375 4.859375-.0625-.765625-.140625-1.546875-.140625-2.3125 0-.140625.046875-.234375.046875-.375zm-1.75-14.609375.390625 20.890625c0 .40625.3125.71875.734375.71875.625 0 .90625-.71875 1.390625-1.109375 2.203125-1.78125 5.328125-3.03125 5.328125-5.890625 0-1.890625-1.390625-3.484375-3.234375-3.484375-1.125 0-2.171875.375-3.078125 1.046875l.21875-12.171875c-.28125-.140625-.5625-.25-.875-.25s-.59375.109375-.875.25zm0 0"/></symbol><symbol id="A" overflow="visible"><path d="m13.046875-9.0625c-.5625-2.453125-1.21875-4.859375-1.921875-7.265625 3.34375-3.796875 6.375-7.703125 6.375-12.71875 0-3.9375-2.15625-9.59375-4.59375-12.53125-.171875-.125-.390625-.125-.5625 0-3.3125 2.40625-5.234375 6.25-5.234375 10.296875 0 1.8125.046875 3.59375.25 5.375.25 2.265625.84375 4.453125 1.46875 6.65625-4.125 4.671875-8.765625 9.140625-8.765625 15.34375 0 7.015625 5.0625 12.96875 11.625 12.96875 1.078125 0 2.09375-.09375 3.09375-.28125.109375 1.125.1875 2.234375.1875 3.359375 0 .625-.046875 1.21875-.078125 1.84375-.203125 3.453125-2.328125 6.625-5.578125 6.703125-.03125 0-.078125.03125-.109375.03125-1.78125 0-3.3125-1.015625-4.21875-2.4375.390625.171875.8125.3125 1.21875.3125 1.8125 0 3.3125-1.5 3.3125-3.3125 0-1.953125-1.421875-3.640625-3.3125-3.640625-2.046875 0-3.90625 1.609375-3.90625 3.640625 0 3.765625 3.03125 6.796875 6.8125 6.796875 4.109375 0 6.9375-3.703125 7.171875-7.890625.046875-.65625.046875-1.28125.046875-1.953125 0-1.25-.078125-2.5-.1875-3.765625.90625-.265625 1.78125-.6875 2.546875-1.28125 2.59375-1.921875 3.734375-4.609375 3.734375-7.25 0-4.609375-3.484375-9.046875-8.859375-9.046875-.171875 0-.34375.046875-.515625.046875zm2.953125 16.21875c-.484375-4.328125-1.28125-8.453125-2.15625-12.53125 3.84375.3125 6.25 3.53125 6.25 6.734375 0 2.4375-1.6875 4.953125-4.09375 5.796875zm-13.53125-8.234375c0-5.578125 3.78125-9.796875 7.546875-14.015625.546875 2.046875 1.109375 4.109375 1.59375 6.203125-3.515625.796875-5.5 3.765625-5.5 6.828125 0 2.453125 1.25 4.921875 4.046875 6.421875.09375.03125.203125.0625.3125.0625.375 0 .6875-.34375.6875-.71875 0-.1875-.09375-.359375-.234375-.5-1.953125-1.109375-2.859375-2.78125-2.859375-4.3125 0-2.0625 1.59375-3.90625 4.359375-4.21875.90625 4.171875 1.703125 8.328125 2.21875 12.796875-.9375.140625-1.875.203125-2.859375.203125-4.734375 0-9.3125-4.015625-9.3125-8.75zm11.859375-35.546875c.59375 1.859375.734375 2.765625.734375 4.78125 0 4.4375-2.328125 7.953125-5.1875 11.34375-.640625-2.203125-1.15625-4.328125-1.15625-6.984375 0-3.875 2.15625-7.390625 5.609375-9.140625zm0 0"/></symbol><symbol id="B" overflow="visible"><path d="m-2.203125-1.640625c0 1.21875.984375 2.203125 2.203125 2.203125s2.203125-.984375 2.203125-2.203125-.984375-2.203125-2.203125-2.203125-2.203125.984375-2.203125 2.203125zm2.203125-10.921875c-5.40625 0-11.46875 6.046875-11.46875 12.625 0 .28125.28125.5.546875.5.25 0 .53125-.171875.59375-.5625.90625-5.203125 5.125-9.234375 10.328125-9.234375s9.421875 4.03125 10.328125 9.234375c.0625.390625.34375.5625.59375.5625.265625 0 .546875-.21875.546875-.5 0-6.578125-6.03125-12.625-11.46875-12.625zm0 0"/></symbol><symbol id="C" overflow="visible"><path d="m11.859375-15.703125.03125 11.03125c0 2.109375-1.53125 3.40625-4.03125 3.40625s-4.03125-1.296875-4.03125-3.40625v-11.03125h-2v11.03125c0 3.140625 2.375 5.171875 6.03125 5.171875s6.03125-2.046875 6.03125-5.171875l-.03125-11.03125zm-3.53125-4.515625-2.0625 3.1875h1.296875l3.203125-3.1875zm0 0"/></symbol><symbol id="D" overflow="visible"><path d="m1.484375-11.28125v11.28125h1.8125v-5.859375c.015625-2.703125 1.140625-3.921875 3.609375-3.84375v-1.84375c-.296875-.03125-.46875-.0625-.6875-.0625-1.15625 0-2.046875.6875-3.078125 2.375v-2.046875zm0 0"/></symbol><symbol id="E" overflow="visible"><path d="m4.171875-15.703125h-2.015625v15.703125h2.015625zm0 0"/></symbol><symbol id="F" overflow="visible"><path d="m9.4375-8.140625c-.03125-2.21875-1.5-3.46875-4.09375-3.46875-2.625 0-4.328125 1.359375-4.328125 3.453125 0 1.765625.90625 2.59375 3.578125 3.25l1.671875.40625c1.25.296875 1.75.75 1.75 1.546875 0 1.078125-1.0625 1.796875-2.625 1.796875-.984375 0-1.796875-.28125-2.25-.765625-.28125-.3125-.40625-.640625-.515625-1.4375h-1.890625c.078125 2.609375 1.546875 3.859375 4.5 3.859375 2.84375 0 4.65625-1.40625 4.65625-3.578125 0-1.6875-.953125-2.609375-3.1875-3.140625l-1.734375-.40625c-1.453125-.34375-2.078125-.828125-2.078125-1.625 0-1.046875.921875-1.703125 2.390625-1.703125 1.4375 0 2.21875.625 2.25 1.8125zm0 0"/></symbol><symbol id="G" overflow="visible"><path d="m1.5-11.28125v11.28125h1.8125v-6.21875c0-2.3125 1.203125-3.8125 3.0625-3.8125 1.421875 0 2.328125.859375 2.328125 2.21875v7.8125h1.78125v-8.53125c0-1.875-1.390625-3.078125-3.578125-3.078125-1.671875 0-2.75.65625-3.734375 2.21875v-1.890625zm0 0"/></symbol><symbol id="H" overflow="visible"><path d="m11.515625-1.0625c-.1875.046875-.28125.046875-.390625.046875-.625 0-.96875-.3125-.96875-.875v-6.640625c0-2-1.453125-3.078125-4.234375-3.078125-1.65625 0-2.96875.484375-3.75 1.3125-.515625.59375-.734375 1.234375-.765625 2.359375h1.796875c.15625-1.390625.96875-2.015625 2.65625-2.015625 1.640625 0 2.515625.609375 2.515625 1.6875v.46875c-.015625.78125-.40625 1.0625-1.875 1.25-2.53125.328125-2.921875.40625-3.609375.6875-1.3125.5625-1.984375 1.546875-1.984375 3.015625 0 2.046875 1.421875 3.34375 3.703125 3.34375 1.421875 0 2.5625-.5 3.828125-1.65625.125 1.15625.6875 1.65625 1.859375 1.65625.375 0 .625-.046875 1.21875-.203125zm-3.140625-2.484375c0 .59375-.171875.96875-.703125 1.453125-.734375.671875-1.625 1.015625-2.671875 1.015625-1.40625 0-2.21875-.671875-2.21875-1.8125 0-1.171875.765625-1.78125 2.703125-2.0625 1.921875-.25 2.28125-.34375 2.890625-.625zm0 0"/></symbol><symbol id="I" overflow="visible"><path d="m8.703125-11.28125v1.640625c-.90625-1.359375-1.90625-1.96875-3.3125-1.96875-2.75 0-4.640625 2.546875-4.640625 6.15625 0 1.90625.453125 3.28125 1.421875 4.421875.84375.984375 1.921875 1.53125 3.078125 1.53125 1.359375 0 2.328125-.609375 3.28125-2.03125v.578125c0 3.015625-.84375 4.140625-3.078125 4.140625-1.53125 0-2.328125-.609375-2.5-1.890625h-1.828125c.171875 2.078125 1.828125 3.390625 4.28125 3.390625 1.65625 0 3.03125-.53125 3.765625-1.4375.859375-1.046875 1.1875-2.453125 1.1875-5.109375v-9.421875zm-3.140625 1.328125c1.890625 0 2.96875 1.59375 2.96875 4.46875 0 2.734375-1.109375 4.328125-2.96875 4.328125s-2.9375-1.625-2.9375-4.40625c0-2.75 1.078125-4.390625 2.9375-4.390625zm0 0"/></symbol><symbol id="J" overflow="visible"><path d="m8.359375-11.28125-3.125 8.78125-2.890625-8.78125h-1.90625l3.796875 11.328125-.6875 1.78125c-.296875.796875-.6875 1.09375-1.4375 1.09375-.296875 0-.5625-.03125-.953125-.125v1.609375c.375.203125.734375.28125 1.21875.28125.578125 0 1.203125-.1875 1.671875-.53125.5625-.40625.890625-.890625 1.234375-1.78125l5.015625-13.65625zm0 0"/></symbol><symbol id="K" overflow="visible"><path d="m3.03125-15.703125h-1.78125v15.703125h1.78125v-4.390625l1.75-1.71875 3.8125 6.109375h2.21875l-4.609375-7.390625 3.921875-3.890625h-2.3125l-4.78125 4.78125zm0 0"/></symbol><symbol id="L" overflow="visible"><path d="m10.375 0v-11.28125h-1.78125v6.390625c0 2.3125-1.203125 3.8125-3.078125 3.8125-1.421875 0-2.328125-.859375-2.328125-2.21875v-7.984375h-1.78125v8.703125c0 1.875 1.390625 3.078125 3.59375 3.078125 1.65625 0 2.703125-.59375 3.765625-2.078125v1.578125zm-5.09375-15.390625h-2.25v2.21875h2.25zm3.484375 0h-2.234375v2.21875h2.234375zm0 0"/></symbol><symbol id="M" overflow="visible"><path d="m1.875-2.234375v2.234375h1.296875v.390625c0 1.484375-.28125 1.90625-1.296875 1.953125v.828125c1.421875.03125 2.265625-1 2.265625-2.828125v-2.578125zm0 0"/></symbol><symbol id="N" overflow="visible"><path d="m5.46875-11.28125h-1.84375v-3.109375h-1.796875v3.109375h-1.53125v1.46875h1.53125v8.515625c0 1.171875.78125 1.796875 2.171875 1.796875.484375 0 .859375-.046875 1.46875-.15625v-1.5c-.265625.0625-.5.078125-.859375.078125-.78125 0-.984375-.21875-.984375-1.015625v-7.71875h1.84375zm0 0"/></symbol><symbol id="O" overflow="visible"><path d="m11.046875-5.03125c0-1.734375-.125-2.765625-.453125-3.609375-.734375-1.84375-2.453125-2.96875-4.5625-2.96875-3.140625 0-5.171875 2.390625-5.171875 6.125 0 3.71875 1.9375 5.984375 5.125 5.984375 2.578125 0 4.375-1.46875 4.828125-3.921875h-1.8125c-.5 1.484375-1.5 2.265625-2.953125 2.265625-1.140625 0-2.109375-.515625-2.703125-1.46875-.4375-.640625-.59375-1.296875-.609375-2.40625zm-8.265625-1.46875c.140625-2.09375 1.421875-3.453125 3.21875-3.453125 1.84375 0 3.109375 1.421875 3.109375 3.453125zm0 0"/></symbol><symbol id="P" overflow="visible"><path d="m3.703125-5.484375 2.5625-2.5625 5.53125 8.046875h2.375l-6.46875-9.296875 6.40625-6.40625h-2.59375l-7.8125 7.953125v-7.953125h-2v15.703125h2zm0 0"/></symbol><symbol id="Q" overflow="visible"><path d="m11.046875-5.03125c0-1.734375-.125-2.765625-.453125-3.609375-.734375-1.84375-2.453125-2.96875-4.5625-2.96875-3.140625 0-5.171875 2.390625-5.171875 6.125 0 3.71875 1.9375 5.984375 5.125 5.984375 2.578125 0 4.375-1.46875 4.828125-3.921875h-1.8125c-.5 1.484375-1.5 2.265625-2.953125 2.265625-1.140625 0-2.109375-.515625-2.703125-1.46875-.4375-.640625-.59375-1.296875-.609375-2.40625zm-8.265625-1.46875c.140625-2.09375 1.421875-3.453125 3.21875-3.453125 1.84375 0 3.109375 1.421875 3.109375 3.453125zm3.84375-9.4375-2.0625 3.1875h1.296875l3.203125-3.1875zm0 0"/></symbol><symbol id="R" overflow="visible"><path d="m1.5-11.28125v11.28125h1.8125v-7.078125c0-1.640625 1.1875-2.953125 2.65625-2.953125 1.328125 0 2.078125.8125 2.078125 2.265625v7.765625h1.8125v-7.078125c0-1.640625 1.1875-2.953125 2.65625-2.953125 1.3125 0 2.078125.84375 2.078125 2.265625v7.765625h1.8125v-8.46875c0-2.015625-1.15625-3.140625-3.265625-3.140625-1.515625 0-2.421875.453125-3.46875 1.71875-.671875-1.203125-1.578125-1.71875-3.046875-1.71875-1.5 0-2.515625.5625-3.453125 1.921875v-1.59375zm0 0"/></symbol><symbol id="S" overflow="visible"><path d="m3.265625-15.703125h-1.796875v15.703125h1.796875zm0 0"/></symbol><symbol id="T" overflow="visible"><path d="m9.53125-11.28125h-8.40625v1.578125h6.28125l-6.734375 8.09375v1.609375h9.171875v-1.578125h-7l6.6875-8.109375zm0 0"/></symbol><symbol id="U" overflow="visible"><path d="m1.15625-15.703125v15.703125h1.625v-1.4375c.859375 1.3125 2 1.9375 3.578125 1.9375 2.96875 0 4.90625-2.4375 4.90625-6.1875 0-3.65625-1.828125-5.921875-4.828125-5.921875-1.546875 0-2.640625.578125-3.484375 1.859375v-5.953125zm4.9375 5.78125c2 0 3.296875 1.734375 3.296875 4.4375 0 2.5625-1.34375 4.296875-3.296875 4.296875-1.921875 0-3.140625-1.71875-3.140625-4.375 0-2.640625 1.21875-4.359375 3.140625-4.359375zm0 0"/></symbol><symbol id="V" overflow="visible"><path d="m10.375 0v-11.28125h-1.78125v6.390625c0 2.3125-1.203125 3.8125-3.078125 3.8125-1.421875 0-2.328125-.859375-2.328125-2.21875v-7.984375h-1.78125v8.703125c0 1.875 1.390625 3.078125 3.59375 3.078125 1.65625 0 2.703125-.59375 3.765625-2.078125v1.578125zm-5.140625-15.9375-2.0625 3.234375h1.28125l3.21875-3.234375zm3.75 0-2.078125 3.234375h1.296875l3.203125-3.234375zm0 0"/></symbol><symbol id="W" overflow="visible"><path d="m6.140625 0 4.328125-11.28125h-2.03125l-3.1875 9.15625-3.015625-9.15625h-2.015625l3.953125 11.28125zm0 0"/></symbol><symbol id="X" overflow="visible"><path d="m1.5-15.703125v15.703125h1.796875v-6.21875c0-2.3125 1.203125-3.8125 3.0625-3.8125.59375 0 1.15625.171875 1.578125.5.53125.375.734375.921875.734375 1.71875v7.8125h1.796875v-8.53125c0-1.890625-1.359375-3.078125-3.5625-3.078125-1.59375 0-2.5625.5-3.609375 1.875v-5.96875zm0 0"/></symbol><symbol id="Y" overflow="visible"><path d="m1.5-11.28125v12.921875c0 1.109375-.34375 1.484375-1.453125 1.484375-.140625 0-.203125 0-.4375-.03125v1.53125c.21875.046875.328125.0625.609375.0625 2.015625 0 3.078125-.796875 3.078125-2.34375v-13.625zm1.796875-4.421875h-1.796875v2.265625h1.796875zm0 0"/></symbol><symbol id="Z" overflow="visible"><path d="m13.90625-15.703125h-1.890625v12.84375l-8.203125-12.84375h-2.171875v15.703125h1.890625v-12.71875l8.125 12.71875h2.25zm0 0"/></symbol><symbol id="aa" overflow="visible"><path d="m3.234375-11.28125h-1.796875v11.28125h1.796875zm0-4.421875h-1.8125v2.265625h1.8125zm0 0"/></symbol><symbol id="ab" overflow="visible"><path d="m10.65625-15.703125h-1.78125v5.84375c-.75-1.140625-1.96875-1.75-3.46875-1.75-2.9375 0-4.84375 2.34375-4.84375 5.953125 0 3.796875 1.84375 6.15625 4.90625 6.15625 1.546875 0 2.625-.59375 3.59375-1.984375v1.484375h1.59375zm-4.953125 5.78125c1.9375 0 3.171875 1.703125 3.171875 4.40625 0 2.609375-1.25 4.328125-3.140625 4.328125-1.984375 0-3.296875-1.734375-3.296875-4.375 0-2.625 1.3125-4.359375 3.265625-4.359375zm0 0"/></symbol><symbol id="ac" overflow="visible"><path d="m10.375 0v-11.28125h-1.78125v6.390625c0 2.3125-1.203125 3.8125-3.078125 3.8125-1.421875 0-2.328125-.859375-2.328125-2.21875v-7.984375h-1.78125v8.703125c0 1.875 1.390625 3.078125 3.59375 3.078125 1.65625 0 2.703125-.59375 3.765625-2.078125v1.578125zm0 0"/></symbol><symbol id="ad" overflow="visible"><path d="m4.609375-2.234375h-2.234375v2.234375h2.234375zm0-9.046875h-2.234375v2.234375h2.234375zm0 0"/></symbol><symbol id="ae" overflow="visible"><path d="m3.8125-11.28125h-1.78125v11.28125h1.78125zm-.34375-4.65625-2.0625 3.1875h1.28125l3.21875-3.1875zm0 0"/></symbol><symbol id="af" overflow="visible"><path d="m5.859375-11.609375c-3.1875 0-5.078125 2.265625-5.078125 6.046875 0 3.8125 1.890625 6.0625 5.09375 6.0625 3.1875 0 5.109375-2.265625 5.109375-5.96875 0-3.921875-1.859375-6.140625-5.125-6.140625zm.015625 1.65625c2.03125 0 3.234375 1.65625 3.234375 4.46875 0 2.65625-1.25 4.328125-3.234375 4.328125-2 0-3.234375-1.671875-3.234375-4.40625s1.234375-4.390625 3.234375-4.390625zm0 0"/></symbol><symbol id="ag" overflow="visible"><path d="m5.859375-11.609375c-3.1875 0-5.078125 2.265625-5.078125 6.046875 0 3.8125 1.890625 6.0625 5.09375 6.0625 3.1875 0 5.109375-2.265625 5.109375-5.96875 0-3.921875-1.859375-6.140625-5.125-6.140625zm.015625 1.65625c2.03125 0 3.234375 1.65625 3.234375 4.46875 0 2.65625-1.25 4.328125-3.234375 4.328125-2 0-3.234375-1.671875-3.234375-4.40625s1.234375-4.390625 3.234375-4.390625zm-.625-5.4375h-2.234375v2.21875h2.234375zm3.484375 0h-2.234375v2.21875h2.234375zm0 0"/></symbol><symbol id="ah" overflow="visible"><path d="m10.140625-7.5c-.078125-1.09375-.328125-1.796875-.75-2.421875-.78125-1.0625-2.140625-1.6875-3.703125-1.6875-3.0625 0-5.015625 2.421875-5.015625 6.15625 0 3.640625 1.9375 5.953125 4.984375 5.953125 2.703125 0 4.40625-1.625 4.609375-4.375h-1.796875c-.3125 1.8125-1.234375 2.71875-2.765625 2.71875-1.984375 0-3.15625-1.625-3.15625-4.296875 0-2.8125 1.15625-4.5 3.109375-4.5 1.515625 0 2.46875.890625 2.671875 2.453125zm0 0"/></symbol><symbol id="ai" overflow="visible"><path d="m4.484375-15.703125h-1.796875v7.28125l.484375 4.796875h.828125l.484375-4.796875zm0 13.46875h-1.8125v2.234375h1.8125zm0 0"/></symbol><symbol id="aj" overflow="visible"><path d="m1.703125 0h7.078125c1.484375 0 2.59375-.40625 3.421875-1.3125.78125-.8125 1.203125-1.9375 1.203125-3.171875 0-1.890625-.859375-3.03125-2.859375-3.8125 1.453125-.65625 2.171875-1.796875 2.171875-3.421875 0-1.15625-.421875-2.140625-1.25-2.875-.828125-.765625-1.890625-1.109375-3.390625-1.109375h-6.375zm2-8.9375v-5h3.875c1.125 0 1.75.15625 2.28125.5625.5625.4375.859375 1.078125.859375 1.9375s-.296875 1.515625-.859375 1.9375c-.53125.40625-1.15625.5625-2.28125.5625zm0 7.171875v-5.40625h4.890625c1.765625 0 2.8125 1.015625 2.8125 2.71875 0 1.671875-1.046875 2.6875-2.8125 2.6875zm0 0"/></symbol><symbol id="ak" overflow="visible"><path d="m4.5625-9.375v9.375h2.6875v-13.59375h-1.78125c-.421875 1.609375-1.828125 2.4375-4.171875 2.4375v1.78125zm0 0"/></symbol><symbol id="al" overflow="visible"><path d="m4.109375-2.796875h-2.875v2.796875h2.875zm0 0"/></symbol><g clip-path="url(#a)"><path d="m3.125 3738.971875h5946.523438" fill="none" stroke="#000" stroke-linecap="round" stroke-miterlimit="10" stroke-width="6.25903" transform="matrix(.1 0 0 -.1 0 433.03)"/></g><g clip-path="url(#b)"><path d="m3.125 3826.159375h5946.523438" fill="none" stroke="#000" stroke-linecap="round" stroke-miterlimit="10" stroke-width="6.25903" transform="matrix(.1 0 0 -.1 0 433.03)"/></g><g clip-path="url(#c)"><path d="m3.125 3913.307812h5946.523438" fill="none" stroke="#000" stroke-linecap="round" stroke-miterlimit="10" stroke-width="6.25903" transform="matrix(.1 0 0 -.1 0 433.03)"/></g><g clip-path="url(#d)"><path d="m3.125 4000.495312h5946.523438" fill="none" stroke="#000" stroke-linecap="round" stroke-miterlimit="10" stroke-width="6.25903" transform="matrix(.1 0 0 -.1 0 433.03)"/></g><g clip-path="url(#e)"><path d="m3.125 4087.64375h5946.523438" fill="none" stroke="#000" stroke-linecap="round" stroke-miterlimit="10" stroke-width="6.25903" transform="matrix(.1 0 0 -.1 0 433.03)"/></g><g clip-path="url(#f)"><path d="m5946.796875 3738.971875v348.671875" fill="none" stroke="#000" stroke-miterlimit="10" stroke-width="11.8991" transform="matrix(.1 0 0 -.1 0 433.03)"/></g><use x="446.935" xlink:href="#y" y="46.057"/><use x="441.31586" xlink:href="#C" y="89.6437"/><use x="456.793251" xlink:href="#D" y="89.6437"/><path d="m4577.03125 3888.854687h4.140625v250.507813h-4.140625zm0 0" fill="none" stroke="#000" stroke-linejoin="round" stroke-miterlimit="10" stroke-width="3.98381" transform="matrix(.1 0 0 -.1 0 433.03)"/><path d="m457.703125 44.144531h.414063v-25.050781h-.414063zm0 0"/><use x="494.02" xlink:href="#y" y="41.699"/><use x="491.37781" xlink:href="#E" y="89.6443"/><use x="497.330967" xlink:href="#F" y="89.6443"/><path d="m5047.890625 3932.448437h4.140625v222.460938h-4.140625zm0 0" fill="none" stroke="#000" stroke-linejoin="round" stroke-miterlimit="10" stroke-width="3.98381" transform="matrix(.1 0 0 -.1 0 433.03)"/><path d="m504.789062 39.785156h.414063v-22.246094h-.414063zm0 0"/><path d="m4093.984375 3845.260937h4.179687v278.164063h-4.179687zm0 0" fill="none" stroke="#000" stroke-linejoin="round" stroke-miterlimit="10" stroke-width="3.98381" transform="matrix(.1 0 0 -.1 0 433.03)"/><path d="m409.398438 48.503906h.417968v-27.8125h-.417968zm0 0"/><use x="381.277" xlink:href="#G" y="89.644"/><use x="393.182093" xlink:href="#H" y="89.644"/><use x="404.917265" xlink:href="#I" y="89.644"/><use x="416.652437" xlink:href="#J" y="89.644"/><use x="398.6313" xlink:href="#y" y="50.4159"/><path d="m3468.945312 3801.70625h4.140626v301.054687h-4.140626zm0 0" fill="none" stroke="#000" stroke-linejoin="round" stroke-miterlimit="10" stroke-width="3.98381" transform="matrix(.1 0 0 -.1 0 433.03)"/><path d="m346.894531 52.859375h.414063v-30.105469h-.414063zm0 0"/><use x="316.306" xlink:href="#K" y="89.644"/><use x="326.850546" xlink:href="#L" y="89.644"/><use x="338.755639" xlink:href="#G" y="89.644"/><use x="350.661122" xlink:href="#K" y="89.644"/><use x="361.376372" xlink:href="#M" y="89.644"/><use x="336.1255" xlink:href="#y" y="54.7745"/><path d="m779.257812 4001.628125v-37.851563l1061.796876 104.960938v37.851562zm0 0" fill="none" stroke="#000" stroke-linejoin="round" stroke-miterlimit="10" stroke-width="3.98381" transform="matrix(.1 0 0 -.1 0 433.03)"/><path d="m77.925781 32.867188v3.785156l106.179688-10.496094v-3.785156zm0 0"/><path d="m905.3125 3493.034375h52.539062v3.125h-52.539062zm0 0" fill="none" stroke="#000" stroke-linejoin="round" stroke-miterlimit="10" stroke-width="5.01245" transform="matrix(.1 0 0 -.1 0 433.03)"/><path d="m90.53125 83.726562h5.253906v-.3125h-5.253906zm0 0"/><path d="m1435.859375 3493.034375h52.5v3.125h-52.5zm0 0" fill="none" stroke="#000" stroke-linejoin="round" stroke-miterlimit="10" stroke-width="5.01245" transform="matrix(.1 0 0 -.1 0 433.03)"/><path d="m143.585938 83.726562h5.25v-.3125h-5.25zm0 0"/><path d="m2955.273438 4106.589062v-37.851562l2096.757812 69.375v37.851562zm0 0" fill="none" stroke="#000" stroke-linejoin="round" stroke-miterlimit="10" stroke-width="3.98381" transform="matrix(.1 0 0 -.1 0 433.03)"/><path d="m295.527344 22.371094v3.785156l209.675781-6.9375v-3.785156zm0 0"/><path d="m3067.03125 3493.034375h52.539062v3.125h-52.539062zm0 0" fill="none" stroke="#000" stroke-linejoin="round" stroke-miterlimit="10" stroke-width="5.01245" transform="matrix(.1 0 0 -.1 0 433.03)"/><path d="m306.703125 83.726562h5.253906v-.3125h-5.253906zm0 0"/><path d="m5159.492188 3493.034375h52.539062v3.125h-52.539062zm0 0" fill="none" stroke="#000" stroke-linejoin="round" stroke-miterlimit="10" stroke-width="5.01245" transform="matrix(.1 0 0 -.1 0 433.03)"/><path d="m515.949219 83.726562h5.253906v-.3125h-5.253906zm0 0"/><path d="m5518.710938 3888.854687h4.179687v283.984375h-4.179687zm0 0" fill="none" stroke="#000" stroke-linejoin="round" stroke-miterlimit="10" stroke-width="3.98381" transform="matrix(.1 0 0 -.1 0 433.03)"/><path d="m551.871094 44.144531h.417968v-28.398437h-.417968zm0 0"/><use x="529.107" xlink:href="#N" y="89.644"/><use x="534.719531" xlink:href="#O" y="89.644"/><use x="546.624624" xlink:href="#G" y="89.644"/><use x="558.529717" xlink:href="#M" y="89.644"/><use x="541.1039" xlink:href="#y" y="46.0573"/><use x="60.0059" xlink:href="#P" y="89.644"/><use x="73.781712" xlink:href="#O" y="89.644"/><use x="114.2395" xlink:href="#y" y="63.492"/><path d="m779.257812 3714.51875h4.140626v266.601562h-4.140626zm0 0" fill="none" stroke="#000" stroke-linejoin="round" stroke-miterlimit="10" stroke-width="3.98381" transform="matrix(.1 0 0 -.1 0 433.03)"/><path d="m77.925781 61.578125h.414063v-26.660156h-.414063zm0 0"/><use x="35.3016" xlink:href="#ak" y="89.644"/><use x="46.016809" xlink:href="#al" y="89.644"/><use x="38.38832" xlink:href="#z" y="41.6987"/><use x="6.97382" xlink:href="#A" y="50.41589"/><use x="67.15542" xlink:href="#y" y="63.49209"/><path d="m2955.273438 3845.260937h4.179687v240.546875h-4.179687zm0 0" fill="none" stroke="#000" stroke-linejoin="round" stroke-miterlimit="10" stroke-width="3.98381" transform="matrix(.1 0 0 -.1 0 433.03)"/><path d="m295.527344 48.503906h.417968v-24.054687h-.417968zm0 0"/><use x="278.547" xlink:href="#G" y="89.644"/><use x="290.452093" xlink:href="#Q" y="89.644"/><use x="284.76067" xlink:href="#y" y="50.4159"/><path d="m2439.804688 3888.854687h4.179687v283.984375h-4.179687zm0 0" fill="none" stroke="#000" stroke-linejoin="round" stroke-miterlimit="10" stroke-width="3.98381" transform="matrix(.1 0 0 -.1 0 433.03)"/><path d="m243.980469 44.144531h.417969v-28.398437h-.417969zm0 0"/><use x="217.985" xlink:href="#R" y="89.644"/><use x="235.84323" xlink:href="#O" y="89.644"/><use x="247.918245" xlink:href="#I" y="89.644"/><use x="233.2131" xlink:href="#y" y="46.0573"/><use x="100.6281" xlink:href="#I" y="89.644"/><use x="112.363674" xlink:href="#J" y="89.644"/><use x="122.567998" xlink:href="#O" y="89.644"/><use x="134.473103" xlink:href="#S" y="89.644"/><path d="m1836.875 3888.854687h4.179688v196.40625h-4.179688zm0 0" fill="none" stroke="#000" stroke-linejoin="round" stroke-miterlimit="10" stroke-width="3.98381" transform="matrix(.1 0 0 -.1 0 433.03)"/><path d="m183.6875 44.144531h.417969v-19.640625h-.417969zm0 0"/><path d="m1250.117188 3714.51875h4.140624v312.96875h-4.140624zm0 0" fill="none" stroke="#000" stroke-linejoin="round" stroke-miterlimit="10" stroke-width="3.98381" transform="matrix(.1 0 0 -.1 0 433.03)"/><path d="m125.007812 61.578125h.417969v-31.296875h-.417969zm0 0"/><use x="153.184" xlink:href="#R" y="89.644"/><use x="171.042242" xlink:href="#O" y="89.644"/><use x="182.607503" xlink:href="#T" y="89.644"/><use x="193.323156" xlink:href="#T" y="89.644"/><use x="172.9192" xlink:href="#y" y="46.0573"/><g clip-path="url(#g)"><path d="m3.125 2692.878125h5946.523438" style="fill:none;stroke-width:6.25903;stroke-linecap:round;stroke-linejoin:round;stroke:#000;stroke-miterlimit:10" transform="matrix(.1 0 0 -.1 0 433.03)"/></g><g clip-path="url(#h)"><path d="m3.125 2780.065625h5946.523438" style="fill:none;stroke-width:6.25903;stroke-linecap:round;stroke-linejoin:round;stroke:#000;stroke-miterlimit:10" transform="matrix(.1 0 0 -.1 0 433.03)"/></g><g clip-path="url(#i)"><path d="m3.125 2867.214062h5946.523438" style="fill:none;stroke-width:6.25903;stroke-linecap:round;stroke-linejoin:round;stroke:#000;stroke-miterlimit:10" transform="matrix(.1 0 0 -.1 0 433.03)"/></g><g clip-path="url(#j)"><path d="m3.125 2954.401562h5946.523438" style="fill:none;stroke-width:6.25903;stroke-linecap:round;stroke-linejoin:round;stroke:#000;stroke-miterlimit:10" transform="matrix(.1 0 0 -.1 0 433.03)"/></g><g clip-path="url(#k)"><path d="m3.125 3041.589062h5946.523438" style="fill:none;stroke-width:6.25903;stroke-linecap:round;stroke-linejoin:round;stroke:#000;stroke-miterlimit:10" transform="matrix(.1 0 0 -.1 0 433.03)"/></g><g clip-path="url(#l)"><path d="m5946.796875 2692.878125v348.710937" fill="none" stroke="#000" stroke-linejoin="round" stroke-miterlimit="10" stroke-width="11.8991" transform="matrix(.1 0 0 -.1 0 433.03)"/></g><use x="432.652" xlink:href="#y" y="150.665"/><use x="426.43716" xlink:href="#U" y="194.2513"/><use x="438.342644" xlink:href="#V" y="194.2513"/><path d="m4434.21875 2842.8h4.140625v266.171875h-4.140625zm0 0" fill="none" stroke="#000" stroke-linejoin="round" stroke-miterlimit="10" stroke-width="3.98381" transform="matrix(.1 0 0 -.1 0 433.03)"/><path d="m443.421875 148.75h.414063v-26.617188h-.414063zm0 0"/><use x="481.72" xlink:href="#y" y="155.024"/><use x="464.1954" xlink:href="#G" y="194.2517"/><use x="476.100884" xlink:href="#L" y="194.2517"/><use x="488.005977" xlink:href="#G" y="194.2517"/><use x="499.91146" xlink:href="#K" y="194.2517"/><path d="m4924.882812 2799.20625h4.179688v309.765625h-4.179688zm0 0" fill="none" stroke="#000" stroke-linejoin="round" stroke-miterlimit="10" stroke-width="3.98381" transform="matrix(.1 0 0 -.1 0 433.03)"/><path d="m492.488281 153.109375h.417969v-30.976563h-.417969zm0 0"/><path d="m3943.515625 2886.39375h4.140625v222.578125h-4.140625zm0 0" fill="none" stroke="#000" stroke-linejoin="round" stroke-miterlimit="10" stroke-width="3.98381" transform="matrix(.1 0 0 -.1 0 433.03)"/><path d="m394.351562 144.390625h.414063v-22.257813h-.414063zm0 0"/><use x="366.058" xlink:href="#G" y="194.251"/><use x="377.963093" xlink:href="#L" y="194.251"/><use x="389.868577" xlink:href="#G" y="194.251"/><use x="401.77367" xlink:href="#K" y="194.251"/><use x="383.5822" xlink:href="#y" y="146.3061"/><path d="m3353.320312 2842.8h4.140626v266.171875h-4.140626zm0 0" fill="none" stroke="#000" stroke-linejoin="round" stroke-miterlimit="10" stroke-width="3.98381" transform="matrix(.1 0 0 -.1 0 433.03)"/><path d="m335.332031 148.75h.414063v-26.617188h-.414063zm0 0"/><use x="308.4" xlink:href="#W" y="194.251"/><use x="318.774624" xlink:href="#O" y="194.251"/><use x="330.679717" xlink:href="#F" y="194.251"/><use x="341.395358" xlink:href="#T" y="194.251"/><use x="324.5637" xlink:href="#y" y="150.6647"/><path d="m673.554688 2642.448437v-37.851562l1101.171874-17.8125v37.851562zm0 0" fill="none" stroke="#000" stroke-linejoin="round" stroke-miterlimit="10" stroke-width="3.98381" transform="matrix(.1 0 0 -.1 0 433.03)"/><path d="m67.355469 168.785156v3.785156l110.117187 1.78125v-3.785156zm0 0"/><path d="m2053.554688 2446.940625h52.5v3.125h-52.5zm0 0" fill="none" stroke="#000" stroke-linejoin="round" stroke-miterlimit="10" stroke-width="5.01245" transform="matrix(.1 0 0 -.1 0 433.03)"/><path d="m205.355469 188.335938h5.25v-.3125h-5.25zm0 0"/><path d="m2875.703125 3092.057812h2053.320313v37.8125h-2053.320313zm0 0" fill="none" stroke="#000" stroke-linejoin="round" stroke-miterlimit="10" stroke-width="3.98381" transform="matrix(.1 0 0 -.1 0 433.03)"/><path d="m287.570312 123.824219h205.332032v-3.78125h-205.332032zm0 0"/><path d="m2969.882812 2446.940625h52.5v3.125h-52.5zm0 0" fill="none" stroke="#000" stroke-linejoin="round" stroke-miterlimit="10" stroke-width="5.01245" transform="matrix(.1 0 0 -.1 0 433.03)"/><path d="m296.984375 188.335938h5.253906v-.3125h-5.253906zm0 0"/><path d="m3564.570312 2446.940625h52.539063v3.125h-52.539063zm0 0" fill="none" stroke="#000" stroke-linejoin="round" stroke-miterlimit="10" stroke-width="5.01245" transform="matrix(.1 0 0 -.1 0 433.03)"/><path d="m356.457031 188.335938h5.25v-.3125h-5.25zm0 0"/><path d="m4545.976562 2446.940625h52.5v3.125h-52.5zm0 0" fill="none" stroke="#000" stroke-linejoin="round" stroke-miterlimit="10" stroke-width="5.01245" transform="matrix(.1 0 0 -.1 0 433.03)"/><path d="m454.59375 188.335938h5.253906v-.3125h-5.253906zm0 0"/><path d="m5149.765625 2446.940625h52.5v3.125h-52.5zm0 0" fill="none" stroke="#000" stroke-linejoin="round" stroke-miterlimit="10" stroke-width="5.01245" transform="matrix(.1 0 0 -.1 0 433.03)"/><path d="m514.976562 188.335938h5.25v-.3125h-5.25zm0 0"/><path d="m5504.882812 2755.6125h4.140626v283.984375h-4.140626zm0 0" fill="none" stroke="#000" stroke-linejoin="round" stroke-miterlimit="10" stroke-width="3.98381" transform="matrix(.1 0 0 -.1 0 433.03)"/><path d="m550.488281 157.46875h.414063v-28.398438h-.414063zm0 0"/><use x="524.575" xlink:href="#U" y="194.251"/><use x="536.480484" xlink:href="#O" y="194.251"/><use x="548.385577" xlink:href="#G" y="194.251"/><use x="560.29067" xlink:href="#M" y="194.251"/><use x="539.718" xlink:href="#y" y="159.3819"/><use x="100.486" xlink:href="#X" y="194.251"/><use x="112.391105" xlink:href="#H" y="194.251"/><use x="124.126288" xlink:href="#I" y="194.251"/><use x="135.86147" xlink:href="#J" y="194.251"/><use x="146.577123" xlink:href="#Y" y="194.251"/><path d="m673.554688 2625.417187h4.140624v266.25h-4.140624zm0 0" fill="none" stroke="#000" stroke-linejoin="round" stroke-miterlimit="10" stroke-width="3.98381" transform="matrix(.1 0 0 -.1 0 433.03)"/><path d="m67.355469 170.488281h.414062v-26.625h-.414062zm0 0"/><use x="59.1566" xlink:href="#Z" y="194.251"/><use x="74.633973" xlink:href="#O" y="194.251"/><use x="67.15543" xlink:href="#y" y="141.9475"/><use x="120.22232" xlink:href="#y" y="141.9475"/><use x="38.38823" xlink:href="#z" y="146.30609"/><use x="6.97373" xlink:href="#A" y="155.02328"/><path d="m2875.703125 2799.20625h4.140625v309.765625h-4.140625zm0 0" fill="none" stroke="#000" stroke-linejoin="round" stroke-miterlimit="10" stroke-width="3.98381" transform="matrix(.1 0 0 -.1 0 433.03)"/><path d="m287.570312 153.109375h.414063v-30.976563h-.414063zm0 0"/><use x="274.159" xlink:href="#O" y="194.251"/><use x="286.064093" xlink:href="#S" y="194.251"/><use x="276.80119" xlink:href="#y" y="155.0233"/><path d="m2352.578125 2842.8h4.179687v283.945312h-4.179687zm0 0" fill="none" stroke="#000" stroke-linejoin="round" stroke-miterlimit="10" stroke-width="3.98381" transform="matrix(.1 0 0 -.1 0 433.03)"/><path d="m235.257812 148.75h.414063v-28.394531h-.414063zm0 0"/><use x="216.15" xlink:href="#K" y="194.251"/><use x="226.524624" xlink:href="#O" y="194.251"/><use x="238.259796" xlink:href="#N" y="194.251"/><use x="224.48984" xlink:href="#y" y="150.6647"/><path d="m1204.21875 2616.901562h4.140625v274.765625h-4.140625zm0 0" fill="none" stroke="#000" stroke-linejoin="round" stroke-miterlimit="10" stroke-width="3.98381" transform="matrix(.1 0 0 -.1 0 433.03)"/><path d="m120.421875 171.339844h.414063v-27.476563h-.414063zm0 0"/><path d="m1770.585938 2607.760937h4.179687v240.3125h-4.179687zm0 0" fill="none" stroke="#000" stroke-linejoin="round" stroke-miterlimit="10" stroke-width="3.98381" transform="matrix(.1 0 0 -.1 0 433.03)"/><path d="m177.058594 172.253906h.417968v-24.03125h-.417968zm0 0"/><use x="165.288" xlink:href="#R" y="194.251"/><use x="183.146633" xlink:href="#aa" y="194.251"/><use x="187.90875" xlink:href="#G" y="194.251"/><use x="176.8595" xlink:href="#y" y="146.3061"/><g clip-path="url(#m)"><path d="m3.125 1646.823437h5946.523438" style="fill:none;stroke-width:6.25903;stroke-linecap:round;stroke-linejoin:round;stroke:#000;stroke-miterlimit:10" transform="matrix(.1 0 0 -.1 0 433.03)"/></g><g clip-path="url(#n)"><path d="m3.125 1733.971875h5946.523438" style="fill:none;stroke-width:6.25903;stroke-linecap:round;stroke-linejoin:round;stroke:#000;stroke-miterlimit:10" transform="matrix(.1 0 0 -.1 0 433.03)"/></g><g clip-path="url(#o)"><path d="m3.125 1821.159375h5946.523438" style="fill:none;stroke-width:6.25903;stroke-linecap:round;stroke-linejoin:round;stroke:#000;stroke-miterlimit:10" transform="matrix(.1 0 0 -.1 0 433.03)"/></g><g clip-path="url(#p)"><path d="m3.125 1908.346875h5946.523438" style="fill:none;stroke-width:6.25903;stroke-linecap:round;stroke-linejoin:round;stroke:#000;stroke-miterlimit:10" transform="matrix(.1 0 0 -.1 0 433.03)"/></g><g clip-path="url(#q)"><path d="m3.125 1995.495312h5946.523438" style="fill:none;stroke-width:6.25903;stroke-linecap:round;stroke-linejoin:round;stroke:#000;stroke-miterlimit:10" transform="matrix(.1 0 0 -.1 0 433.03)"/></g><path d="m5354.648438 1559.635937h155.742187" style="fill:none;stroke-width:14.9763;stroke-linecap:round;stroke-linejoin:round;stroke:#000;stroke-miterlimit:10" transform="matrix(.1 0 0 -.1 0 433.03)"/><g clip-path="url(#r)"><path d="m5946.796875 1646.823437v348.671875" fill="none" stroke="#000" stroke-linejoin="round" stroke-miterlimit="10" stroke-width="11.8991" transform="matrix(.1 0 0 -.1 0 433.03)"/></g><use x="435.561" xlink:href="#y" y="268.349"/><use x="429.34733" xlink:href="#G" y="298.8595"/><use x="441.252423" xlink:href="#O" y="298.8595"/><path d="m4463.28125 1665.964062h4.179688v265.15625h-4.179688zm0 0" fill="none" stroke="#000" stroke-linejoin="round" stroke-miterlimit="10" stroke-width="3.98381" transform="matrix(.1 0 0 -.1 0 433.03)"/><path d="m446.328125 266.433594h.417969v-26.515625h-.417969zm0 0"/><use x="485.686" xlink:href="#y" y="272.707"/><use x="474.2844" xlink:href="#W" y="298.859"/><use x="484.659048" xlink:href="#O" y="298.859"/><use x="496.564141" xlink:href="#ab" y="298.859"/><path d="m4964.53125 1622.370312h4.179688v284.179688h-4.179688zm0 0" fill="none" stroke="#000" stroke-linejoin="round" stroke-miterlimit="10" stroke-width="3.98381" transform="matrix(.1 0 0 -.1 0 433.03)"/><path d="m496.453125 270.792969h.417969v-28.417969h-.417969zm0 0"/><path d="m3951.328125 1709.557812h4.179687v246.679688h-4.179687zm0 0" fill="none" stroke="#000" stroke-linejoin="round" stroke-miterlimit="10" stroke-width="3.98381" transform="matrix(.1 0 0 -.1 0 433.03)"/><path d="m395.132812 262.074219h.417969v-24.667969h-.417969zm0 0"/><use x="364.715" xlink:href="#F" y="298.859"/><use x="375.43025" xlink:href="#T" y="298.859"/><use x="385.634953" xlink:href="#O" y="298.859"/><use x="397.540046" xlink:href="#G" y="298.859"/><use x="409.445139" xlink:href="#N" y="298.859"/><use x="384.3654" xlink:href="#y" y="263.9899"/><path d="m3333.945312 1753.1125h4.179688v233.398437h-4.179688zm0 0" fill="none" stroke="#000" stroke-linejoin="round" stroke-miterlimit="10" stroke-width="3.98381" transform="matrix(.1 0 0 -.1 0 433.03)"/><path d="m333.394531 257.71875h.414063v-23.339844h-.414063zm0 0"/><use x="305.867" xlink:href="#T" y="298.859"/><use x="316.241624" xlink:href="#ac" y="298.859"/><use x="328.146717" xlink:href="#G" y="298.859"/><use x="340.052201" xlink:href="#K" y="298.859"/><use x="322.626" xlink:href="#y" y="259.6313"/><path d="m779.257812 2045.964062h1006.640626v37.851563h-1006.640626zm0 0" fill="none" stroke="#000" stroke-linejoin="round" stroke-miterlimit="10" stroke-width="3.98381" transform="matrix(.1 0 0 -.1 0 433.03)"/><path d="m77.925781 228.433594h100.664063v-3.785156h-100.664063zm0 0"/><path d="m1451.132812 1400.885937h52.5v3.125h-52.5zm0 0" fill="none" stroke="#000" stroke-linejoin="round" stroke-miterlimit="10" stroke-width="5.01245" transform="matrix(.1 0 0 -.1 0 433.03)"/><path d="m145.113281 292.941406h5.25v-.3125h-5.25zm0 0"/><path d="m1971.09375 1400.885937h52.5v3.125h-52.5zm0 0" fill="none" stroke="#000" stroke-linejoin="round" stroke-miterlimit="10" stroke-width="5.01245" transform="matrix(.1 0 0 -.1 0 433.03)"/><path d="m197.109375 292.941406h5.25v-.3125h-5.25zm0 0"/><path d="m2832.695312 2032.214062v-37.851562l2136.015626-104.960938v37.851563zm0 0" fill="none" stroke="#000" stroke-linejoin="round" stroke-miterlimit="10" stroke-width="3.98381" transform="matrix(.1 0 0 -.1 0 433.03)"/><path d="m283.269531 229.808594v3.785156l213.601563 10.496094v-3.785156zm0 0"/><path d="m2938.671875 1400.885937h52.539063v3.125h-52.539063zm0 0" fill="none" stroke="#000" stroke-linejoin="round" stroke-miterlimit="10" stroke-width="5.01245" transform="matrix(.1 0 0 -.1 0 433.03)"/><path d="m293.867188 292.941406h5.25v-.3125h-5.25zm0 0"/><path d="m4610.9375 1400.885937h52.539062v3.125h-52.539062zm0 0" fill="none" stroke="#000" stroke-linejoin="round" stroke-miterlimit="10" stroke-width="5.01245" transform="matrix(.1 0 0 -.1 0 433.03)"/><path d="m461.09375 292.941406h5.253906v-.3125h-5.253906zm0 0"/><path d="m5128.164062 1400.885937h52.539063v3.125h-52.539063zm0 0" fill="none" stroke="#000" stroke-linejoin="round" stroke-miterlimit="10" stroke-width="5.01245" transform="matrix(.1 0 0 -.1 0 433.03)"/><path d="m512.816406 292.941406h5.253906v-.3125h-5.253906zm0 0"/><path d="m5483.28125 1578.776562h4.179688v283.984375h-4.179688zm0 0" fill="none" stroke="#000" stroke-linejoin="round" stroke-miterlimit="10" stroke-width="3.98381" transform="matrix(.1 0 0 -.1 0 433.03)"/><path d="m548.328125 275.152344h.417969v-28.398438h-.417969zm0 0"/><use x="522.418" xlink:href="#U" y="298.859"/><use x="534.323093" xlink:href="#O" y="298.859"/><use x="546.228577" xlink:href="#G" y="298.859"/><use x="558.13367" xlink:href="#ad" y="298.859"/><use x="537.561" xlink:href="#y" y="277.0656"/><use x="105.71" xlink:href="#R" y="298.859"/><use x="123.568242" xlink:href="#aa" y="298.859"/><use x="128.33036" xlink:href="#G" y="298.859"/><path d="m779.257812 1796.70625h4.140626v266.171875h-4.140626zm0 0" fill="none" stroke="#000" stroke-linejoin="round" stroke-miterlimit="10" stroke-width="3.98381" transform="matrix(.1 0 0 -.1 0 433.03)"/><path d="m77.925781 253.359375h.414063v-26.617187h-.414063zm0 0"/><use x="57.9656" xlink:href="#P" y="298.859"/><use x="72.25274" xlink:href="#aa" y="298.859"/><use x="77.014858" xlink:href="#K" y="298.859"/><use x="67.15544" xlink:href="#y" y="255.2727"/><use x="117.28084" xlink:href="#y" y="250.91372"/><use x="38.388003" xlink:href="#z" y="250.91372"/><use x="6.97384" xlink:href="#A" y="259.6313"/><path d="m2832.695312 1796.70625h4.140626v214.375h-4.140626zm0 0" fill="none" stroke="#000" stroke-linejoin="round" stroke-miterlimit="10" stroke-width="3.98381" transform="matrix(.1 0 0 -.1 0 433.03)"/><path d="m283.269531 253.359375h.414063v-21.4375h-.414063zm0 0"/><use x="269.263" xlink:href="#U" y="298.859"/><use x="281.168093" xlink:href="#ae" y="298.859"/><use x="272.5005" xlink:href="#y" y="255.2727"/><path d="m2283.007812 1753.1125h4.140626v283.984375h-4.140626zm0 0" fill="none" stroke="#000" stroke-linejoin="round" stroke-miterlimit="10" stroke-width="3.98381" transform="matrix(.1 0 0 -.1 0 433.03)"/><path d="m228.300781 257.71875h.414063v-28.398438h-.414063zm0 0"/><use x="208.512" xlink:href="#K" y="298.859"/><use x="218.886232" xlink:href="#af" y="298.859"/><use x="230.791716" xlink:href="#D" y="298.859"/><use x="217.53153" xlink:href="#y" y="259.6313"/><path d="m1280.507812 1840.3h4.140626v222.617187h-4.140626zm0 0" fill="none" stroke="#000" stroke-linejoin="round" stroke-miterlimit="10" stroke-width="3.98381" transform="matrix(.1 0 0 -.1 0 433.03)"/><path d="m128.050781 249h.414063v-22.257812h-.414063zm0 0"/><path d="m1781.757812 1796.70625h4.140626v266.171875h-4.140626zm0 0" fill="none" stroke="#000" stroke-linejoin="round" stroke-miterlimit="10" stroke-width="3.98381" transform="matrix(.1 0 0 -.1 0 433.03)"/><path d="m178.175781 253.359375h.414063v-26.617187h-.414063zm0 0"/><use x="155.239" xlink:href="#ab" y="298.859"/><use x="167.144496" xlink:href="#O" y="298.859"/><use x="179.049601" xlink:href="#G" y="298.859"/><use x="167.4058" xlink:href="#y" y="255.2727"/><g clip-path="url(#s)"><path d="m3.125 600.729687h5946.523438" style="fill:none;stroke-width:6.25903;stroke-linecap:round;stroke-linejoin:round;stroke:#000;stroke-miterlimit:10" transform="matrix(.1 0 0 -.1 0 433.03)"/></g><g clip-path="url(#t)"><path d="m3.125 687.917187h5946.523438" style="fill:none;stroke-width:6.25903;stroke-linecap:round;stroke-linejoin:round;stroke:#000;stroke-miterlimit:10" transform="matrix(.1 0 0 -.1 0 433.03)"/></g><g clip-path="url(#u)"><path d="m3.125 775.065625h5946.523438" style="fill:none;stroke-width:6.25903;stroke-linecap:round;stroke-linejoin:round;stroke:#000;stroke-miterlimit:10" transform="matrix(.1 0 0 -.1 0 433.03)"/></g><g clip-path="url(#v)"><path d="m3.125 862.253125h5946.523438" style="fill:none;stroke-width:6.25903;stroke-linecap:round;stroke-linejoin:round;stroke:#000;stroke-miterlimit:10" transform="matrix(.1 0 0 -.1 0 433.03)"/></g><g clip-path="url(#w)"><path d="m3.125 949.440625h5946.523438" style="fill:none;stroke-width:6.25903;stroke-linecap:round;stroke-linejoin:round;stroke:#000;stroke-miterlimit:10" transform="matrix(.1 0 0 -.1 0 433.03)"/></g><path d="m650.585938 513.58125h155.78125" style="fill:none;stroke-width:14.9763;stroke-linecap:round;stroke-linejoin:round;stroke:#000;stroke-miterlimit:10" transform="matrix(.1 0 0 -.1 0 433.03)"/><g clip-path="url(#x)"><path d="m5933.984375 600.729687v348.710938" fill="none" stroke="#000" stroke-linejoin="round" stroke-miterlimit="10" stroke-width="37.5716" transform="matrix(.1 0 0 -.1 0 433.03)"/></g><path d="m5890.46875 600.729687v348.710938" fill="none" stroke="#000" stroke-linejoin="round" stroke-miterlimit="10" stroke-width="11.8991" transform="matrix(.1 0 0 -.1 0 433.03)"/><use x="431.199" xlink:href="#y" y="368.598"/><use x="419.1166" xlink:href="#N" y="406.6613"/><use x="424.899835" xlink:href="#ag" y="406.6613"/><use x="436.804928" xlink:href="#R" y="406.6613"/><path d="m4419.6875 663.464062h4.140625v301.210938h-4.140625zm0 0" fill="none" stroke="#000" stroke-linejoin="round" stroke-miterlimit="10" stroke-width="3.98381" transform="matrix(.1 0 0 -.1 0 433.03)"/><path d="m441.96875 366.683594h.414062v-30.121094h-.414062zm0 0"/><use x="481.377" xlink:href="#y" y="372.9566"/><use x="473.377" xlink:href="#S" y="406.6613"/><use x="478.139117" xlink:href="#ag" y="406.6613"/><use x="490.044601" xlink:href="#ah" y="406.6613"/><path d="m4921.445312 619.870312h4.179688v327.695313h-4.179688zm0 0" fill="none" stroke="#000" stroke-linejoin="round" stroke-miterlimit="10" stroke-width="3.98381" transform="matrix(.1 0 0 -.1 0 433.03)"/><path d="m492.144531 371.042969h.417969v-32.769531h-.417969zm0 0"/><path d="m3906.875 707.057812h4.140625v275.039063h-4.140625zm0 0" fill="none" stroke="#000" stroke-linejoin="round" stroke-miterlimit="10" stroke-width="3.98381" transform="matrix(.1 0 0 -.1 0 433.03)"/><path d="m390.6875 362.324219h.414062v-27.503907h-.414062zm0 0"/><use x="366.051" xlink:href="#N" y="406.6612"/><use x="371.663116" xlink:href="#O" y="406.6612"/><use x="383.568599" xlink:href="#F" y="406.6612"/><use x="394.453771" xlink:href="#F" y="406.6612"/><use x="379.9186" xlink:href="#y" y="364.2389"/><path d="m3393.203125 750.651562h4.179687v248.945313h-4.179687zm0 0" fill="none" stroke="#000" stroke-linejoin="round" stroke-miterlimit="10" stroke-width="3.98381" transform="matrix(.1 0 0 -.1 0 433.03)"/><path d="m339.320312 357.964844h.417969v-24.894532h-.417969zm0 0"/><use x="316.387" xlink:href="#U" y="406.6612"/><use x="328.292093" xlink:href="#L" y="406.6612"/><use x="340.197186" xlink:href="#G" y="406.6612"/><use x="328.5534" xlink:href="#y" y="359.8803"/><path d="m779.257812 811.784375v-37.851563l1042.5 51.601563v37.851562zm0 0" fill="none" stroke="#000" stroke-linejoin="round" stroke-miterlimit="10" stroke-width="3.98381" transform="matrix(.1 0 0 -.1 0 433.03)"/><path d="m77.925781 351.851562v3.785157l104.25-5.160157v-3.785156zm0 0"/><path d="m902.929688 322.839062h52.5v3.164063h-52.5zm0 0" fill="none" stroke="#000" stroke-linejoin="round" stroke-miterlimit="10" stroke-width="5.01245" transform="matrix(.1 0 0 -.1 0 433.03)"/><path d="m90.289062 400.746094h5.253907v-.3125h-5.253907zm0 0"/><path d="m1999.101562 322.839062h52.539063v3.164063h-52.539063zm0 0" fill="none" stroke="#000" stroke-linejoin="round" stroke-miterlimit="10" stroke-width="5.01245" transform="matrix(.1 0 0 -.1 0 433.03)"/><path d="m199.910156 400.746094h5.253906v-.3125h-5.253906zm0 0"/><path d="m2891.445312 1037.721875v-37.851563l2034.140626-69.375v37.851563zm0 0" fill="none" stroke="#000" stroke-linejoin="round" stroke-miterlimit="10" stroke-width="3.98381" transform="matrix(.1 0 0 -.1 0 433.03)"/><path d="m289.144531 329.257812v3.785157l203.414063 6.9375v-3.785157zm0 0"/><path d="m3564.492188 322.839062h52.539062v3.164063h-52.539062zm0 0" fill="none" stroke="#000" stroke-linejoin="round" stroke-miterlimit="10" stroke-width="5.01245" transform="matrix(.1 0 0 -.1 0 433.03)"/><path d="m356.449219 400.746094h5.253906v-.3125h-5.253906zm0 0"/><path d="m4613.945312 322.839062h52.5v3.164063h-52.5zm0 0" fill="none" stroke="#000" stroke-linejoin="round" stroke-miterlimit="10" stroke-width="5.01245" transform="matrix(.1 0 0 -.1 0 433.03)"/><path d="m461.394531 400.746094h5.25v-.3125h-5.25zm0 0"/><path d="m5059.609375 322.839062h52.5v3.164063h-52.5zm0 0" fill="none" stroke="#000" stroke-linejoin="round" stroke-miterlimit="10" stroke-width="5.01245" transform="matrix(.1 0 0 -.1 0 433.03)"/><path d="m505.960938 400.746094h5.25v-.3125h-5.25zm0 0"/><path d="m5423.242188 576.276562h4.140624v283.984375h-4.140624zm0 0" fill="none" stroke="#000" stroke-linejoin="round" stroke-miterlimit="10" stroke-width="3.98381" transform="matrix(.1 0 0 -.1 0 433.03)"/><path d="m542.324219 375.402344h.414062v-28.398438h-.414062zm0 0"/><use x="516.412" xlink:href="#U" y="406.6612"/><use x="528.317093" xlink:href="#O" y="406.6612"/><use x="540.222577" xlink:href="#G" y="406.6612"/><use x="552.12767" xlink:href="#ai" y="406.6612"/><use x="537.2464" xlink:href="#B" y="335.4729"/><use x="531.55499" xlink:href="#y" y="377.3151"/><path d="m1281.835938 576.276562h4.179687v239.570313h-4.179687zm0 0" fill="none" stroke="#000" stroke-linejoin="round" stroke-miterlimit="10" stroke-width="3.98381" transform="matrix(.1 0 0 -.1 0 433.03)"/><path d="m128.183594 375.402344h.417968v-23.957032h-.417968zm0 0"/><use x="117.415" xlink:href="#y" y="377.3152"/><path d="m779.257812 532.721875h4.140626v258.359375h-4.140626zm0 0" fill="none" stroke="#000" stroke-linejoin="round" stroke-miterlimit="10" stroke-width="3.98381" transform="matrix(.1 0 0 -.1 0 433.03)"/><path d="m77.925781 379.757812h.414063v-25.835937h-.414063zm0 0"/><use x="59.7512" xlink:href="#aj" y="406.6612"/><use x="74.03795" xlink:href="#V" y="406.6612"/><use x="67.1555" xlink:href="#y" y="381.6737"/><use x="99.8918" xlink:href="#G" y="406.6612"/><use x="111.796905" xlink:href="#L" y="406.6612"/><use x="123.702011" xlink:href="#G" y="406.6612"/><use x="135.607506" xlink:href="#K" y="406.6612"/><use x="38.3883" xlink:href="#z" y="355.5217"/><use x="6.9738" xlink:href="#A" y="364.23889"/><path d="m2891.445312 750.651562h4.179688v266.015625h-4.179688zm0 0" fill="none" stroke="#000" stroke-linejoin="round" stroke-miterlimit="10" stroke-width="3.98381" transform="matrix(.1 0 0 -.1 0 433.03)"/><path d="m289.144531 357.964844h.414063v-26.601563h-.414063zm0 0"/><use x="272.162" xlink:href="#G" y="406.6612"/><use x="284.067484" xlink:href="#O" y="406.6612"/><use x="278.37567" xlink:href="#y" y="359.8803"/><path d="m2319.375 663.464062h4.179688v283.984375h-4.179688zm0 0" fill="none" stroke="#000" stroke-linejoin="round" stroke-miterlimit="10" stroke-width="3.98381" transform="matrix(.1 0 0 -.1 0 433.03)"/><path d="m231.9375 366.683594h.417969v-28.398438h-.417969zm0 0"/><use x="211.979" xlink:href="#D" y="406.6612"/><use x="219.121981" xlink:href="#aa" y="406.6612"/><use x="223.884098" xlink:href="#G" y="406.6612"/><use x="235.789581" xlink:href="#N" y="406.6612"/><use x="221.16963" xlink:href="#y" y="368.5979"/><path d="m1817.617188 619.870312h4.140624v222.421875h-4.140624zm0 0" fill="none" stroke="#000" stroke-linejoin="round" stroke-miterlimit="10" stroke-width="3.98381" transform="matrix(.1 0 0 -.1 0 433.03)"/><path d="m181.761719 371.042969h.414062v-22.238281h-.414062zm0 0"/><use x="160.27" xlink:href="#F" y="406.6612"/><use x="170.985262" xlink:href="#T" y="406.6612"/><use x="181.189975" xlink:href="#O" y="406.6612"/><use x="170.9915" xlink:href="#y" y="372.9565"/></svg>