<svg height="689.17em" viewBox="0 0 595.28 689.17" width="595.28em" xmlns="http://www.w3.org/2000/svg" xmlns:xlink="http://www.w3.org/1999/xlink"><clipPath id="a"><path d="m0 75h595.28125v2h-595.28125zm0 0"/></clipPath><clipPath id="b"><path d="m0 64h595.28125v2h-595.28125zm0 0"/></clipPath><clipPath id="c"><path d="m0 53h595.28125v1h-595.28125zm0 0"/></clipPath><clipPath id="d"><path d="m0 41h595.28125v2h-595.28125zm0 0"/></clipPath><clipPath id="e"><path d="m0 30h595.28125v2h-595.28125zm0 0"/></clipPath><clipPath id="f"><path d="m593 30h2.28125v47h-2.28125zm0 0"/></clipPath><clipPath id="g"><path d="m0 210h595.28125v1h-595.28125zm0 0"/></clipPath><clipPath id="h"><path d="m0 198h595.28125v2h-595.28125zm0 0"/></clipPath><clipPath id="i"><path d="m0 187h595.28125v2h-595.28125zm0 0"/></clipPath><clipPath id="j"><path d="m0 176h595.28125v2h-595.28125zm0 0"/></clipPath><clipPath id="k"><path d="m0 165h595.28125v1h-595.28125zm0 0"/></clipPath><clipPath id="l"><path d="m593 164h2.28125v48h-2.28125zm0 0"/></clipPath><clipPath id="m"><path d="m0 344h595.28125v2h-595.28125zm0 0"/></clipPath><clipPath id="n"><path d="m0 333h595.28125v2h-595.28125zm0 0"/></clipPath><clipPath id="o"><path d="m0 322h595.28125v1h-595.28125zm0 0"/></clipPath><clipPath id="p"><path d="m0 310h595.28125v2h-595.28125zm0 0"/></clipPath><clipPath id="q"><path d="m0 299h595.28125v2h-595.28125zm0 0"/></clipPath><clipPath id="r"><path d="m593 299h2.28125v47h-2.28125zm0 0"/></clipPath><clipPath id="s"><path d="m0 479h595.28125v1h-595.28125zm0 0"/></clipPath><clipPath id="t"><path d="m0 467h595.28125v2h-595.28125zm0 0"/></clipPath><clipPath id="u"><path d="m0 456h595.28125v2h-595.28125zm0 0"/></clipPath><clipPath id="v"><path d="m0 445h595.28125v2h-595.28125zm0 0"/></clipPath><clipPath id="w"><path d="m0 434h595.28125v1h-595.28125zm0 0"/></clipPath><clipPath id="x"><path d="m593 433h2.28125v48h-2.28125zm0 0"/></clipPath><clipPath id="y"><path d="m0 613h595.28125v2h-595.28125zm0 0"/></clipPath><clipPath id="z"><path d="m0 602h595.28125v2h-595.28125zm0 0"/></clipPath><clipPath id="A"><path d="m0 591h595.28125v1h-595.28125zm0 0"/></clipPath><clipPath id="B"><path d="m0 579h595.28125v2h-595.28125zm0 0"/></clipPath><clipPath id="C"><path d="m0 568h595.28125v2h-595.28125zm0 0"/></clipPath><clipPath id="D"><path d="m591 566h4.28125v51h-4.28125zm0 0"/></clipPath><symbol id="E" overflow="visible"><path d="m9.953125-6.046875c-1.890625 0-3.671875.625-5.296875 1.609375-2.09375 1.25-4.65625 3.453125-4.65625 6.640625 0 2.640625 2.328125 3.84375 4.703125 3.84375 1.890625 0 3.6875-.625 5.296875-1.609375 2.109375-1.25 4.609375-3.453125 4.609375-6.640625 0-2.640625-2.28125-3.84375-4.65625-3.84375zm0 0"/></symbol><symbol id="F" overflow="visible"><path d="m16.765625-11.65625c-.71875-3.140625-1.5625-6.234375-2.46875-9.328125 4.3125-4.875 8.203125-9.90625 8.203125-16.359375 0-5.0625-2.78125-12.328125-5.90625-16.09375-.234375-.171875-.5-.171875-.71875 0-4.265625 3.09375-6.734375 8.03125-6.734375 13.234375 0 2.328125.046875 4.609375.3125 6.890625.3125 2.921875 1.078125 5.75 1.890625 8.5625-5.296875 6.015625-11.25 11.75-11.25 19.734375 0 9 6.5 16.671875 14.921875 16.671875 1.390625 0 2.6875-.140625 3.984375-.359375.140625 1.4375.234375 2.875.234375 4.296875 0 .8125-.046875 1.578125-.09375 2.375-.265625 4.453125-3 8.53125-7.171875 8.609375-.046875 0-.09375.046875-.140625.046875-2.28125 0-4.25-1.296875-5.421875-3.140625.5.234375 1.03125.40625 1.578125.40625 2.328125 0 4.25-1.921875 4.25-4.25 0-2.515625-1.828125-4.671875-4.25-4.671875-2.65625 0-5.03125 2.0625-5.03125 4.671875 0 4.828125 3.90625 8.734375 8.75 8.734375 5.28125 0 8.921875-4.75 9.234375-10.125.046875-.859375.046875-1.65625.046875-2.515625 0-1.609375-.09375-3.234375-.234375-4.84375 1.171875-.359375 2.296875-.890625 3.28125-1.65625 3.3125-2.46875 4.796875-5.921875 4.796875-9.328125 0-5.90625-4.484375-11.609375-11.390625-11.609375-.21875 0-.453125.046875-.671875.046875zm3.8125 20.84375c-.625-5.5625-1.65625-10.84375-2.78125-16.09375 4.9375.40625 8.03125 4.53125 8.03125 8.65625 0 3.140625-2.15625 6.359375-5.25 7.4375zm-17.390625-10.578125c0-7.171875 4.84375-12.59375 9.671875-18.015625.71875 2.640625 1.4375 5.28125 2.0625 7.96875-4.515625 1.03125-7.078125 4.84375-7.078125 8.796875 0 3.140625 1.609375 6.3125 5.203125 8.25.125.03125.265625.078125.40625.078125.484375 0 .890625-.4375.890625-.9375 0-.21875-.140625-.453125-.3125-.625-2.515625-1.4375-3.671875-3.59375-3.671875-5.5625 0-2.640625 2.0625-5.015625 5.59375-5.421875 1.171875 5.375 2.203125 10.71875 2.875 16.453125-1.203125.171875-2.421875.265625-3.671875.265625-6.09375 0-11.96875-5.15625-11.96875-11.25zm15.234375-45.671875c.765625 2.375.9375 3.53125.9375 6.140625 0 5.6875-3 10.21875-6.671875 14.5625-.8125-2.828125-1.484375-5.5625-1.484375-8.96875 0-4.96875 2.78125-9.5 7.21875-11.734375zm0 0"/></symbol><symbol id="G" overflow="visible"><path d="m1.125-1.96875c.046875-1.484375 1.03125-2.78125 2.421875-2.78125 1.34375 0 1.96875 1.5625 1.96875 3.09375 0 2.640625-2.25 4.53125-4.3125 6.234375-.078125-.984375-.171875-1.984375-.171875-2.96875 0-.171875.046875-.3125.046875-.484375zm-2.25-18.78125.5 26.84375c0 .546875.40625.9375.9375.9375.8125 0 1.171875-.9375 1.796875-1.421875 2.828125-2.296875 6.859375-3.90625 6.859375-7.578125 0-2.421875-1.796875-4.484375-4.171875-4.484375-1.4375 0-2.78125.484375-3.9375 1.34375l.265625-15.640625c-.359375-.1875-.71875-.3125-1.125-.3125s-.765625.125-1.125.3125zm0 0"/></symbol><symbol id="H" overflow="visible"><path d="m-2.828125-2.109375c0 1.578125 1.265625 2.828125 2.828125 2.828125s2.828125-1.25 2.828125-2.828125c0-1.5625-1.265625-2.828125-2.828125-2.828125s-2.828125 1.265625-2.828125 2.828125zm2.828125-14.03125c-6.953125 0-14.75 7.75-14.75 16.234375 0 .359375.359375.625.71875.625.3125 0 .671875-.21875.765625-.71875 1.15625-6.671875 6.59375-11.875 13.265625-11.875s12.109375 5.203125 13.265625 11.875c.09375.5.453125.71875.765625.71875.359375 0 .71875-.265625.71875-.625 0-8.484375-7.75-16.234375-14.75-16.234375zm0 0"/></symbol><symbol id="I" overflow="visible"><path d="m12.265625-14.5h-10.828125v2.015625h8.078125l-8.65625 10.40625v2.078125h11.78125v-2.015625h-8.984375l8.609375-10.4375zm0 0"/></symbol><symbol id="J" overflow="visible"><path d="m4.890625-14.5h-2.296875v14.5h2.296875zm-.4375-5.984375-2.65625 4.109375h1.65625l4.125-4.109375zm0 0"/></symbol><symbol id="K" overflow="visible"><path d="m7.890625 0 5.5625-14.5h-2.609375l-4.09375 11.765625-3.875-11.765625h-2.59375l5.09375 14.5zm0 0"/></symbol><symbol id="L" overflow="visible"><path d="m7.53125-14.921875c-4.09375 0-6.53125 2.90625-6.53125 7.78125 0 4.90625 2.4375 7.78125 6.546875 7.78125s6.5625-2.90625 6.5625-7.671875c0-5.03125-2.375-7.890625-6.578125-7.890625zm.015625 2.140625c2.609375 0 4.15625 2.125 4.15625 5.71875 0 3.4375-1.609375 5.5625-4.15625 5.5625-2.5625 0-4.140625-2.125-4.140625-5.640625s1.578125-5.640625 4.140625-5.640625zm-.796875-7h-2.875v2.84375h2.875zm4.484375 0h-2.875v2.84375h2.875zm0 0"/></symbol><symbol id="M" overflow="visible"><path d="m15.28125-20.171875v14.171875c0 2.703125-1.96875 4.375-5.1875 4.375-3.203125 0-5.171875-1.671875-5.171875-4.375v-14.171875h-2.5625v14.171875c0 4.03125 3.03125 6.640625 7.734375 6.640625s7.75-2.609375 7.75-6.640625v-14.171875zm-5.984375-5.125h-2.875v2.859375h2.875zm4.484375 0h-2.875v2.859375h2.875zm0 0"/></symbol><symbol id="N" overflow="visible"><path d="m13.703125-20.171875h-2.296875v7.5c-.96875-1.46875-2.53125-2.25-4.453125-2.25-3.765625 0-6.234375 3.015625-6.234375 7.640625 0 4.90625 2.375 7.921875 6.3125 7.921875 1.984375 0 3.375-.75 4.625-2.546875v1.90625h2.046875zm-6.375 7.421875c2.5 0 4.078125 2.171875 4.078125 5.671875 0 3.34375-1.609375 5.5625-4.046875 5.5625-2.546875 0-4.234375-2.25-4.234375-5.625s1.6875-5.609375 4.203125-5.609375zm0 0"/></symbol><symbol id="O" overflow="visible"><path d="m7.03125-14.5h-2.375v-3.984375h-2.296875v3.984375h-1.96875v1.875h1.96875v10.96875c0 1.484375.984375 2.296875 2.78125 2.296875.609375 0 1.109375-.0625 1.890625-.203125v-1.9375c-.328125.09375-.640625.109375-1.109375.109375-1 0-1.265625-.265625-1.265625-1.296875v-9.9375h2.375zm0 0"/></symbol><symbol id="P" overflow="visible"><path d="m7.53125-14.921875c-4.09375 0-6.53125 2.90625-6.53125 7.78125 0 4.90625 2.4375 7.78125 6.546875 7.78125s6.5625-2.90625 6.5625-7.671875c0-5.03125-2.375-7.890625-6.578125-7.890625zm.015625 2.140625c2.609375 0 4.15625 2.125 4.15625 5.71875 0 3.4375-1.609375 5.5625-4.15625 5.5625-2.5625 0-4.140625-2.125-4.140625-5.640625s1.578125-5.640625 4.140625-5.640625zm-.90625-7.703125-2.6875 4.15625h1.671875l4.109375-4.15625zm4.8125 0-2.6875 4.15625h1.671875l4.125-4.15625zm0 0"/></symbol><symbol id="Q" overflow="visible"><path d="m1.9375-14.5v14.5h2.328125v-8c0-2.953125 1.546875-4.890625 3.921875-4.890625 1.828125 0 2.984375 1.109375 2.984375 2.84375v10.046875h2.296875v-10.953125c0-2.40625-1.796875-3.96875-4.59375-3.96875-2.15625 0-3.53125.84375-4.8125 2.859375v-2.4375zm0 0"/></symbol><symbol id="R" overflow="visible"><path d="m3.90625-20.171875h-2.296875v20.171875h2.296875v-5.640625l2.234375-2.21875 4.90625 7.859375h2.84375l-5.921875-9.484375 5.03125-5.015625h-2.953125l-6.140625 6.140625zm0 0"/></symbol><symbol id="S" overflow="visible"><path d="m2.40625-2.875v2.875h1.65625v.5c0 1.90625-.359375 2.453125-1.65625 2.515625v1.046875c1.828125.0625 2.90625-1.265625 2.90625-3.625v-3.3125zm0 0"/></symbol><symbol id="T" overflow="visible"><path d="m10.765625-20.5c-5.78125 0-9.71875 4.25-9.71875 10.5625 0 6.34375 3.90625 10.578125 9.75 10.578125 2.453125 0 4.609375-.75 6.25-2.140625 2.1875-1.84375 3.484375-4.96875 3.484375-8.265625 0-6.5-3.84375-10.734375-9.765625-10.734375zm0 2.265625c4.375 0 7.1875 3.296875 7.1875 8.40625 0 4.875-2.90625 8.203125-7.15625 8.203125-4.328125 0-7.171875-3.328125-7.171875-8.3125s2.84375-8.296875 7.140625-8.296875zm.828125-7.75-2.6875 4.09375h1.671875l4.109375-4.09375zm0 0"/></symbol><symbol id="U" overflow="visible"><path d="m1.9375-14.5v14.5h2.328125v-9.109375c0-2.09375 1.515625-3.78125 3.40625-3.78125 1.703125 0 2.671875 1.046875 2.671875 2.90625v9.984375h2.328125v-9.109375c0-2.09375 1.53125-3.78125 3.40625-3.78125 1.6875 0 2.6875 1.078125 2.6875 2.90625v9.984375h2.3125v-10.875c0-2.59375-1.484375-4.046875-4.203125-4.046875-1.9375 0-3.09375.59375-4.453125 2.21875-.859375-1.546875-2.015625-2.21875-3.90625-2.21875-1.9375 0-3.234375.71875-4.453125 2.46875v-2.046875zm0 0"/></symbol><symbol id="V" overflow="visible"><path d="m4.15625-14.5h-2.296875v14.5h2.296875zm0-5.671875h-2.328125v2.90625h2.328125zm0 0"/></symbol><symbol id="W" overflow="visible"><path d="m13.34375 0v-14.5h-2.296875v8.21875c0 2.953125-1.5625 4.890625-3.96875 4.890625-1.828125 0-2.984375-1.09375-2.984375-2.84375v-10.265625h-2.296875v11.171875c0 2.421875 1.796875 3.96875 4.625 3.96875 2.125 0 3.484375-.75 4.84375-2.65625v2.015625zm0 0"/></symbol><symbol id="X" overflow="visible"><path d="m12.125-10.453125c-.03125-2.859375-1.921875-4.46875-5.265625-4.46875-3.375 0-5.5625 1.75-5.5625 4.4375 0 2.265625 1.171875 3.34375 4.59375 4.171875l2.15625.53125c1.609375.390625 2.25.96875 2.25 1.984375 0 1.390625-1.359375 2.296875-3.375 2.296875-1.25 0-2.296875-.359375-2.875-.96875-.359375-.40625-.53125-.828125-.671875-1.84375h-2.4375c.109375 3.34375 2 4.953125 5.78125 4.953125 3.65625 0 5.984375-1.796875 5.984375-4.59375 0-2.15625-1.21875-3.359375-4.09375-4.046875l-2.21875-.515625c-1.875-.453125-2.6875-1.0625-2.6875-2.078125 0-1.359375 1.1875-2.1875 3.078125-2.1875 1.859375 0 2.84375.796875 2.90625 2.328125zm0 0"/></symbol><symbol id="Y" overflow="visible"><path d="m9.21875-20.171875v14.1875c0 1.609375-.171875 2.53125-.640625 3.21875-.5.765625-1.4375 1.25-2.46875 1.25-1.9375 0-3.015625-1.3125-3.015625-3.65625v-1.296875h-2.625v1.765625c0 3.265625 2.15625 5.34375 5.625 5.34375 3.515625 0 5.6875-2.1875 5.6875-5.671875v-15.140625zm0 0"/></symbol><symbol id="Z" overflow="visible"><path d="m14.203125-6.46875c0-2.21875-.171875-3.546875-.59375-4.625-.9375-2.375-3.15625-3.828125-5.859375-3.828125-4.046875 0-6.640625 3.078125-6.640625 7.859375 0 4.796875 2.484375 7.703125 6.578125 7.703125 3.328125 0 5.625-1.890625 6.203125-5.046875h-2.328125c-.625 1.921875-1.9375 2.90625-3.78125 2.90625-1.46875 0-2.71875-.65625-3.484375-1.875-.5625-.828125-.75-1.65625-.78125-3.09375zm-10.640625-1.890625c.203125-2.6875 1.828125-4.421875 4.15625-4.421875 2.359375 0 3.984375 1.828125 3.984375 4.421875zm4.953125-12.125-2.65625 4.109375h1.671875l4.125-4.109375zm0 0"/></symbol><symbol id="aa" overflow="visible"><path d="m13.34375 0v-14.5h-2.296875v8.21875c0 2.953125-1.5625 4.890625-3.96875 4.890625-1.828125 0-2.984375-1.09375-2.984375-2.84375v-10.265625h-2.296875v11.171875c0 2.421875 1.796875 3.96875 4.625 3.96875 2.125 0 3.484375-.75 4.84375-2.65625v2.015625zm-6.5625-19.78125h-2.875v2.84375h2.875zm4.484375 0h-2.875v2.84375h2.875zm0 0"/></symbol><symbol id="ab" overflow="visible"><path d="m1.9375-20.171875v20.171875h2.296875v-8c0-2.953125 1.546875-4.890625 3.921875-4.890625.78125 0 1.5.21875 2.046875.625.671875.5.953125 1.203125.953125 2.21875v10.046875h2.296875v-10.953125c0-2.4375-1.75-3.96875-4.578125-3.96875-2.046875 0-3.28125.640625-4.640625 2.421875v-7.671875zm0 0"/></symbol><symbol id="ac" overflow="visible"><path d="m11.171875-14.5v2.109375c-1.15625-1.75-2.421875-2.53125-4.25-2.53125-3.515625 0-5.953125 3.265625-5.953125 7.921875 0 2.4375.578125 4.203125 1.828125 5.671875 1.078125 1.265625 2.453125 1.96875 3.953125 1.96875 1.75 0 2.984375-.78125 4.203125-2.609375v.75c0 3.875-1.078125 5.3125-3.953125 5.3125-1.96875 0-2.984375-.765625-3.203125-2.4375h-2.359375c.21875 2.6875 2.359375 4.375 5.515625 4.375 2.125 0 3.890625-.6875 4.828125-1.859375 1.109375-1.34375 1.53125-3.140625 1.53125-6.546875v-12.125zm-4.03125 1.71875c2.4375 0 3.8125 2.046875 3.8125 5.71875 0 3.515625-1.40625 5.5625-3.8125 5.5625-2.375 0-3.765625-2.0625-3.765625-5.640625 0-3.546875 1.390625-5.640625 3.765625-5.640625zm0 0"/></symbol><symbol id="ad" overflow="visible"><path d="m10.734375-14.5-4.015625 11.296875-3.703125-11.296875h-2.46875l4.90625 14.5625-.890625 2.296875c-.390625 1.015625-.875 1.40625-1.84375 1.40625-.390625 0-.71875-.0625-1.21875-.171875v2.078125c.46875.25.9375.359375 1.546875.359375.75 0 1.546875-.25 2.15625-.6875.71875-.53125 1.140625-1.140625 1.578125-2.296875l6.453125-17.546875zm0 0"/></symbol><symbol id="ae" overflow="visible"><path d="m7.53125-14.921875c-4.09375 0-6.53125 2.90625-6.53125 7.78125 0 4.90625 2.4375 7.78125 6.546875 7.78125s6.5625-2.90625 6.5625-7.671875c0-5.03125-2.375-7.890625-6.578125-7.890625zm.015625 2.140625c2.609375 0 4.15625 2.125 4.15625 5.71875 0 3.4375-1.609375 5.5625-4.15625 5.5625-2.5625 0-4.140625-2.125-4.140625-5.640625s1.578125-5.640625 4.140625-5.640625zm0 0"/></symbol><symbol id="af" overflow="visible"><path d="m14.796875-1.359375c-.234375.0625-.359375.0625-.484375.0625-.8125 0-1.25-.421875-1.25-1.140625v-8.515625c0-2.578125-1.890625-3.96875-5.453125-3.96875-2.125 0-3.8125.609375-4.8125 1.6875-.671875.75-.9375 1.578125-1 3.03125h2.328125c.1875-1.78125 1.25-2.578125 3.40625-2.578125 2.09375 0 3.234375.765625 3.234375 2.15625v.609375c-.03125 1-.53125 1.359375-2.40625 1.609375-3.265625.40625-3.765625.515625-4.65625.875-1.6875.71875-2.546875 2-2.546875 3.875 0 2.625 1.828125 4.296875 4.765625 4.296875 1.828125 0 3.296875-.640625 4.921875-2.140625.171875 1.5.890625 2.140625 2.390625 2.140625.484375 0 .796875-.0625 1.5625-.25zm-4.03125-3.203125c0 .765625-.21875 1.234375-.921875 1.875-.9375.859375-2.0625 1.296875-3.421875 1.296875-1.796875 0-2.859375-.84375-2.859375-2.3125 0-1.53125 1-2.296875 3.5-2.65625 2.453125-.34375 2.921875-.453125 3.703125-.8125zm0 0"/></symbol><symbol id="ag" overflow="visible"><path d="m1.5-20.171875v20.171875h2.0625v-1.859375c1.109375 1.6875 2.578125 2.5 4.59375 2.5 3.828125 0 6.3125-3.125 6.3125-7.953125 0-4.703125-2.34375-7.609375-6.1875-7.609375-2 0-3.40625.75-4.484375 2.390625v-7.640625zm6.328125 7.421875c2.578125 0 4.234375 2.234375 4.234375 5.6875 0 3.296875-1.71875 5.546875-4.234375 5.546875-2.453125 0-4.03125-2.21875-4.03125-5.625s1.578125-5.609375 4.03125-5.609375zm0 0"/></symbol><symbol id="ah" overflow="visible"><path d="m14.203125-6.46875c0-2.21875-.171875-3.546875-.59375-4.625-.9375-2.375-3.15625-3.828125-5.859375-3.828125-4.046875 0-6.640625 3.078125-6.640625 7.859375 0 4.796875 2.484375 7.703125 6.578125 7.703125 3.328125 0 5.625-1.890625 6.203125-5.046875h-2.328125c-.625 1.921875-1.9375 2.90625-3.78125 2.90625-1.46875 0-2.71875-.65625-3.484375-1.875-.5625-.828125-.75-1.65625-.78125-3.09375zm-10.640625-1.890625c.203125-2.6875 1.828125-4.421875 4.15625-4.421875 2.359375 0 3.984375 1.828125 3.984375 4.421875zm0 0"/></symbol><symbol id="ai" overflow="visible"><path d="m4.765625-7.0625 3.28125-3.28125 7.125 10.34375h3.03125l-8.296875-11.953125 8.21875-8.21875h-3.328125l-10.03125 10.203125v-10.203125h-2.578125v20.171875h2.578125zm0 0"/></symbol><symbol id="aj" overflow="visible"><path d="m4.203125-20.171875h-2.328125v20.171875h2.328125zm0 0"/></symbol><symbol id="ak" overflow="visible"><path d="m1.90625-14.5v14.5h2.328125v-7.53125c.03125-3.484375 1.46875-5.03125 4.640625-4.953125v-2.34375c-.375-.0625-.59375-.09375-.875-.09375-1.5 0-2.625.890625-3.953125 3.046875v-2.625zm0 0"/></symbol><symbol id="al" overflow="visible"><path d="m14.796875-1.359375c-.234375.0625-.359375.0625-.484375.0625-.8125 0-1.25-.421875-1.25-1.140625v-8.515625c0-2.578125-1.890625-3.96875-5.453125-3.96875-2.125 0-3.8125.609375-4.8125 1.6875-.671875.75-.9375 1.578125-1 3.03125h2.328125c.1875-1.78125 1.25-2.578125 3.40625-2.578125 2.09375 0 3.234375.765625 3.234375 2.15625v.609375c-.03125 1-.53125 1.359375-2.40625 1.609375-3.265625.40625-3.765625.515625-4.65625.875-1.6875.71875-2.546875 2-2.546875 3.875 0 2.625 1.828125 4.296875 4.765625 4.296875 1.828125 0 3.296875-.640625 4.921875-2.140625.171875 1.5.890625 2.140625 2.390625 2.140625.484375 0 .796875-.0625 1.5625-.25zm-4.03125-3.203125c0 .765625-.21875 1.234375-.921875 1.875-.9375.859375-2.0625 1.296875-3.421875 1.296875-1.796875 0-2.859375-.84375-2.859375-2.3125 0-1.53125 1-2.296875 3.5-2.65625 2.453125-.34375 2.921875-.453125 3.703125-.8125zm-2.359375-15.921875-2.671875 4.109375h1.65625l4.125-4.109375zm0 0"/></symbol><symbol id="am" overflow="visible"><path d="m5.953125-14.5h-2.875v2.875h2.875zm-2.90625 11.625v2.875h1.65625v.5c0 1.90625-.359375 2.453125-1.65625 2.515625v1.046875c1.828125.0625 2.90625-1.265625 2.90625-3.625v-3.3125zm0 0"/></symbol><symbol id="an" overflow="visible"><path d="m5.0625-9.1875h10.984375v-2.265625h-10.984375v-6.453125h11.40625v-2.265625h-13.984375v20.171875h14.484375v-2.265625h-11.90625zm5.09375-16.796875-2.6875 4.09375h1.65625l4.125-4.09375zm0 0"/></symbol><symbol id="ao" overflow="visible"><path d="m5.75-20.171875h-2.296875v9.359375l.609375 6.15625h1.078125l.609375-6.15625zm0 17.296875h-2.3125v2.875h2.3125zm0 0"/></symbol><symbol id="ap" overflow="visible"><path d="m5.375-20.171875h-2.609375v20.171875h2.609375zm0 0"/></symbol><symbol id="aq" overflow="visible"><path d="m5.875-12.0625v12.0625h3.4375v-17.484375h-2.28125c-.546875 2.078125-2.34375 3.140625-5.359375 3.140625v2.28125zm0 0"/></symbol><symbol id="ar" overflow="visible"><path d="m5.28125-3.59375h-3.703125v3.59375h3.703125zm0 0"/></symbol><g clip-path="url(#a)"><path d="m3.554688 6132.090625h5945.625" fill="none" stroke="#000" stroke-linecap="round" stroke-miterlimit="10" stroke-width="7.11706" transform="matrix(.1 0 0 -.1 0 689.17)"/></g><g clip-path="url(#b)"><path d="m3.554688 6244.160938h5945.625" fill="none" stroke="#000" stroke-linecap="round" stroke-miterlimit="10" stroke-width="7.11706" transform="matrix(.1 0 0 -.1 0 689.17)"/></g><g clip-path="url(#c)"><path d="m3.554688 6356.270313h5945.625" fill="none" stroke="#000" stroke-linecap="round" stroke-miterlimit="10" stroke-width="7.11706" transform="matrix(.1 0 0 -.1 0 689.17)"/></g><g clip-path="url(#d)"><path d="m3.554688 6468.340625h5945.625" fill="none" stroke="#000" stroke-linecap="round" stroke-miterlimit="10" stroke-width="7.11706" transform="matrix(.1 0 0 -.1 0 689.17)"/></g><g clip-path="url(#e)"><path d="m3.554688 6580.410938h5945.625" fill="none" stroke="#000" stroke-linecap="round" stroke-miterlimit="10" stroke-width="7.11706" transform="matrix(.1 0 0 -.1 0 689.17)"/></g><g clip-path="url(#f)"><path d="m5946.015625 6132.090625v448.320313" fill="none" stroke="#000" stroke-miterlimit="10" stroke-width="13.5168" transform="matrix(.1 0 0 -.1 0 689.17)"/></g><use x="403.196" xlink:href="#E" y="53.544"/><path d="m4762.265625 6324.278125h5.273437v366.210938h-5.273437zm0 0" fill="none" stroke="#000" stroke-linejoin="round" stroke-miterlimit="10" stroke-width="3.99004" transform="matrix(.1 0 0 -.1 0 689.17)"/><path d="m476.226562 56.742188h.527344v-36.621094h-.527344zm0 0"/><use x="458.92" xlink:href="#I" y="115.188"/><use x="472.696564" xlink:href="#J" y="115.188"/><use x="462.31688" xlink:href="#E" y="59.1482"/><path d="m4171.054688 6380.29375h5.273437v310.039063h-5.273437zm0 0" fill="none" stroke="#000" stroke-linejoin="round" stroke-miterlimit="10" stroke-width="3.99004" transform="matrix(.1 0 0 -.1 0 689.17)"/><path d="m417.105469 51.140625h.527343v-31.003906h-.527343zm0 0"/><use x="396.142" xlink:href="#K" y="115.188"/><use x="409.578329" xlink:href="#L" y="115.188"/><path d="m5409.0625 6268.223438h5.273438v366.25h-5.273438zm0 0" fill="none" stroke="#000" stroke-linejoin="round" stroke-miterlimit="10" stroke-width="3.99004" transform="matrix(.1 0 0 -.1 0 689.17)"/><path d="m540.90625 62.347656h.527344v-36.625h-.527344zm0 0"/><path d="m3579.84375 6324.278125h5.273438v343.085938h-5.273438zm0 0" fill="none" stroke="#000" stroke-linejoin="round" stroke-miterlimit="10" stroke-width="3.99004" transform="matrix(.1 0 0 -.1 0 689.17)"/><path d="m357.984375 56.742188h.527344v-34.308594h-.527344zm0 0"/><use x="333.705" xlink:href="#M" y="115.188"/><use x="353.773732" xlink:href="#N" y="115.188"/><use x="344.0757" xlink:href="#E" y="59.1482"/><path d="m1921.679688 5815.528125h68.28125v3.554688h-68.28125zm0 0" fill="none" stroke="#000" stroke-linejoin="round" stroke-miterlimit="10" stroke-width="5.69365" transform="matrix(.1 0 0 -.1 0 689.17)"/><path d="m192.167969 107.617188h6.828125v-.355469h-6.828125zm0 0"/><path d="m2397.460938 6581.973438v-49.804688l596.445312 23.320313v49.84375zm0 0" fill="none" stroke="#000" stroke-linejoin="round" stroke-miterlimit="10" stroke-width="3.99004" transform="matrix(.1 0 0 -.1 0 689.17)"/><path d="m239.746094 30.972656v4.980469l59.644531-2.332031v-4.984375zm0 0"/><path d="m3579.84375 6694.04375v-49.804687l596.484375 23.359375v49.804687zm0 0" fill="none" stroke="#000" stroke-linejoin="round" stroke-miterlimit="10" stroke-width="3.99004" transform="matrix(.1 0 0 -.1 0 689.17)"/><path d="m357.984375 19.765625v4.980469l59.648437-2.335938v-4.980468zm0 0"/><path d="m3791.992188 5815.528125h68.28125v3.554688h-68.28125zm0 0" fill="none" stroke="#000" stroke-linejoin="round" stroke-miterlimit="10" stroke-width="5.69365" transform="matrix(.1 0 0 -.1 0 689.17)"/><path d="m379.199219 107.617188h6.828125v-.355469h-6.828125zm0 0"/><path d="m4384.882812 5815.528125h68.28125v3.554688h-68.28125zm0 0" fill="none" stroke="#000" stroke-linejoin="round" stroke-miterlimit="10" stroke-width="5.69365" transform="matrix(.1 0 0 -.1 0 689.17)"/><path d="m438.488281 107.617188h6.828125v-.355469h-6.828125zm0 0"/><path d="m4889.960938 5815.528125h68.28125v3.554688h-68.28125zm0 0" fill="none" stroke="#000" stroke-linejoin="round" stroke-miterlimit="10" stroke-width="5.69365" transform="matrix(.1 0 0 -.1 0 689.17)"/><path d="m488.996094 107.617188h6.828125v-.355469h-6.828125zm0 0"/><use x="526.998" xlink:href="#E" y="64.752"/><use x="504.4679" xlink:href="#O" y="115.1879"/><use x="512.121779" xlink:href="#P" y="115.1879"/><use x="527.428432" xlink:href="#Q" y="115.1879"/><use x="542.735084" xlink:href="#R" y="115.1879"/><use x="556.512039" xlink:href="#S" y="115.1879"/><use x="8.9669" xlink:href="#F" y="64.752"/><path d="m1103.828125 6268.223438h5.273437v366.25h-5.273437zm0 0" fill="none" stroke="#000" stroke-linejoin="round" stroke-miterlimit="10" stroke-width="3.99004" transform="matrix(.1 0 0 -.1 0 689.17)"/><path d="m110.382812 62.347656h.527344v-36.625h-.527344zm0 0"/><use x="57.7164" xlink:href="#aq" y="115.188"/><use x="71.493352" xlink:href="#ar" y="115.188"/><use x="89.5035" xlink:href="#T" y="115.188"/><use x="110.423017" xlink:href="#S" y="115.188"/><use x="49.3566" xlink:href="#G" y="53.5443"/><use x="59.4863" xlink:href="#G" y="36.7322"/><path d="m2988.632812 6268.223438h5.273438v310.039062h-5.273438zm0 0" fill="none" stroke="#000" stroke-linejoin="round" stroke-miterlimit="10" stroke-width="3.99004" transform="matrix(.1 0 0 -.1 0 689.17)"/><path d="m298.863281 62.347656h.527344v-31.003906h-.527344zm0 0"/><use x="96.4727" xlink:href="#E" y="64.752"/><use x="225.8357" xlink:href="#E" y="70.35591"/><use x="277.6466" xlink:href="#U" y="115.18791"/><use x="300.777456" xlink:href="#V" y="115.18791"/><use x="284.95637" xlink:href="#E" y="64.75201"/><path d="m2397.421875 6212.16875h5.273437v343.085938h-5.273437zm0 0" fill="none" stroke="#000" stroke-linejoin="round" stroke-miterlimit="10" stroke-width="3.99004" transform="matrix(.1 0 0 -.1 0 689.17)"/><path d="m239.742188 67.953125h.527343v-34.308594h-.527343zm0 0"/><use x="208.151" xlink:href="#I" y="115.188"/><use x="221.586939" xlink:href="#W" y="115.188"/><use x="236.893592" xlink:href="#X" y="115.188"/><use x="250.500234" xlink:href="#S" y="115.188"/><use x="153.930478" xlink:href="#Y" y="115.188"/><use x="167.70703" xlink:href="#Z" y="115.188"/><use x="161.1537" xlink:href="#E" y="64.7521"/><path d="m1750.625 6268.223438h5.273438v366.25h-5.273438zm0 0" fill="none" stroke="#000" stroke-linejoin="round" stroke-miterlimit="10" stroke-width="3.99004" transform="matrix(.1 0 0 -.1 0 689.17)"/><path d="m175.0625 62.347656h.527344v-36.625h-.527344zm0 0"/><g clip-path="url(#g)"><path d="m3.554688 4787.129688h5945.625" style="fill:none;stroke-width:7.11706;stroke-linecap:round;stroke-linejoin:round;stroke:#000;stroke-miterlimit:10" transform="matrix(.1 0 0 -.1 0 689.17)"/></g><g clip-path="url(#h)"><path d="m3.554688 4899.239063h5945.625" style="fill:none;stroke-width:7.11706;stroke-linecap:round;stroke-linejoin:round;stroke:#000;stroke-miterlimit:10" transform="matrix(.1 0 0 -.1 0 689.17)"/></g><g clip-path="url(#i)"><path d="m3.554688 5011.309375h5945.625" style="fill:none;stroke-width:7.11706;stroke-linecap:round;stroke-linejoin:round;stroke:#000;stroke-miterlimit:10" transform="matrix(.1 0 0 -.1 0 689.17)"/></g><g clip-path="url(#j)"><path d="m3.554688 5123.379688h5945.625" style="fill:none;stroke-width:7.11706;stroke-linecap:round;stroke-linejoin:round;stroke:#000;stroke-miterlimit:10" transform="matrix(.1 0 0 -.1 0 689.17)"/></g><g clip-path="url(#k)"><path d="m3.554688 5235.45h5945.625" style="fill:none;stroke-width:7.11706;stroke-linecap:round;stroke-linejoin:round;stroke:#000;stroke-miterlimit:10" transform="matrix(.1 0 0 -.1 0 689.17)"/></g><g clip-path="url(#l)"><path d="m5946.015625 4787.129688v448.320312" fill="none" stroke="#000" stroke-linejoin="round" stroke-miterlimit="10" stroke-width="13.5168" transform="matrix(.1 0 0 -.1 0 689.17)"/></g><use x="484.28" xlink:href="#O" y="249.684"/><use x="491.933879" xlink:href="#aa" y="249.684"/><use x="507.240532" xlink:href="#Q" y="249.684"/><use x="522.547184" xlink:href="#R" y="249.684"/><use x="536.324139" xlink:href="#S" y="249.684"/><use x="506.8113" xlink:href="#E" y="199.2481"/><path d="m4358.515625 4979.317188h5.273437v366.210937h-5.273437zm0 0" fill="none" stroke="#000" stroke-linejoin="round" stroke-miterlimit="10" stroke-width="3.99004" transform="matrix(.1 0 0 -.1 0 689.17)"/><path d="m435.851562 191.238281h.527344v-36.621093h-.527344zm0 0"/><use x="418.545" xlink:href="#ab" y="249.684"/><use x="433.851653" xlink:href="#V" y="249.684"/><use x="421.94188" xlink:href="#E" y="193.6442"/><path d="m3452.460938 4677.207813h5.273437v310.039062h-5.273437zm0 0" fill="none" stroke="#000" stroke-linejoin="round" stroke-miterlimit="10" stroke-width="3.99004" transform="matrix(.1 0 0 -.1 0 689.17)"/><path d="m345.246094 221.449219h.527344v-31.003907h-.527344zm0 0"/><use x="322.856" xlink:href="#ac" y="249.684"/><use x="337.993494" xlink:href="#ad" y="249.684"/><use x="351.259119" xlink:href="#ae" y="249.684"/><use x="366.565772" xlink:href="#Q" y="249.684"/><use x="345.0478" xlink:href="#E" y="188.0399"/><path d="m1374.960938 4470.567188h68.28125v3.554687h-68.28125zm0 0" fill="none" stroke="#000" stroke-linejoin="round" stroke-miterlimit="10" stroke-width="5.69365" transform="matrix(.1 0 0 -.1 0 689.17)"/><path d="m137.496094 242.113281h6.828125v-.355469h-6.828125zm0 0"/><path d="m2681.796875 4723.301563v-49.804688l775.9375-23.320312v49.804687zm0 0" fill="none" stroke="#000" stroke-linejoin="round" stroke-miterlimit="10" stroke-width="3.99004" transform="matrix(.1 0 0 -.1 0 689.17)"/><path d="m268.179688 216.839844v4.980468l77.59375 2.332032v-4.980469zm0 0"/><path d="m3028.515625 4470.567188h68.242187v3.554687h-68.242187zm0 0" fill="none" stroke="#000" stroke-linejoin="round" stroke-miterlimit="10" stroke-width="5.69365" transform="matrix(.1 0 0 -.1 0 689.17)"/><path d="m302.847656 242.113281h6.828125v-.355469h-6.828125zm0 0"/><path d="m4587.148438 4470.567188h68.242187v3.554687h-68.242187zm0 0" fill="none" stroke="#000" stroke-linejoin="round" stroke-miterlimit="10" stroke-width="5.69365" transform="matrix(.1 0 0 -.1 0 689.17)"/><path d="m458.714844 242.113281h6.824218v-.355469h-6.824218zm0 0"/><path d="m5207.1875 4923.2625h5.273438v366.25h-5.273438zm0 0" fill="none" stroke="#000" stroke-linejoin="round" stroke-miterlimit="10" stroke-width="3.99004" transform="matrix(.1 0 0 -.1 0 689.17)"/><path d="m520.71875 196.84375h.527344v-36.625h-.527344zm0 0"/><use x="49.3566" xlink:href="#G" y="188.04"/><use x="59.4863" xlink:href="#G" y="171.2283"/><use x="8.9664" xlink:href="#F" y="199.2482"/><path d="m2681.796875 4700.254688h5.273437v343.046875h-5.273437zm0 0" fill="none" stroke="#000" stroke-linejoin="round" stroke-miterlimit="10" stroke-width="3.99004" transform="matrix(.1 0 0 -.1 0 689.17)"/><path d="m268.179688 219.144531h.527343v-34.304687h-.527343zm0 0"/><use x="181.342" xlink:href="#E" y="199.248"/><use x="260.9283" xlink:href="#K" y="249.6839"/><use x="274.364629" xlink:href="#af" y="249.6839"/><use x="267.98182" xlink:href="#E" y="182.4359"/><path d="m1952.5 4923.2625h5.273438v366.25h-5.273438zm0 0" fill="none" stroke="#000" stroke-linejoin="round" stroke-miterlimit="10" stroke-width="3.99004" transform="matrix(.1 0 0 -.1 0 689.17)"/><path d="m195.25 196.84375h.527344v-36.625h-.527344zm0 0"/><use x="165.699" xlink:href="#ag" y="249.684"/><use x="181.005653" xlink:href="#ah" y="249.684"/><use x="196.312306" xlink:href="#Q" y="249.684"/><use x="96.4728" xlink:href="#E" y="199.2481"/><path d="m1103.828125 4923.2625h5.273437v366.25h-5.273437zm0 0" fill="none" stroke="#000" stroke-linejoin="round" stroke-miterlimit="10" stroke-width="3.99004" transform="matrix(.1 0 0 -.1 0 689.17)"/><path d="m110.382812 196.84375h.527344v-36.625h-.527344zm0 0"/><use x="91.4594" xlink:href="#ai" y="249.684"/><use x="109.998446" xlink:href="#V" y="249.684"/><g clip-path="url(#m)"><path d="m3.554688 3442.207813h5945.625" style="fill:none;stroke-width:7.11706;stroke-linecap:round;stroke-linejoin:round;stroke:#000;stroke-miterlimit:10" transform="matrix(.1 0 0 -.1 0 689.17)"/></g><g clip-path="url(#n)"><path d="m3.554688 3554.278125h5945.625" style="fill:none;stroke-width:7.11706;stroke-linecap:round;stroke-linejoin:round;stroke:#000;stroke-miterlimit:10" transform="matrix(.1 0 0 -.1 0 689.17)"/></g><g clip-path="url(#o)"><path d="m3.554688 3666.348438h5945.625" style="fill:none;stroke-width:7.11706;stroke-linecap:round;stroke-linejoin:round;stroke:#000;stroke-miterlimit:10" transform="matrix(.1 0 0 -.1 0 689.17)"/></g><g clip-path="url(#p)"><path d="m3.554688 3778.41875h5945.625" style="fill:none;stroke-width:7.11706;stroke-linecap:round;stroke-linejoin:round;stroke:#000;stroke-miterlimit:10" transform="matrix(.1 0 0 -.1 0 689.17)"/></g><g clip-path="url(#q)"><path d="m3.554688 3890.489063h5945.625" style="fill:none;stroke-width:7.11706;stroke-linecap:round;stroke-linejoin:round;stroke:#000;stroke-miterlimit:10" transform="matrix(.1 0 0 -.1 0 689.17)"/></g><g clip-path="url(#r)"><path d="m5946.015625 3442.207813v448.28125" fill="none" stroke="#000" stroke-linejoin="round" stroke-miterlimit="10" stroke-width="13.5168" transform="matrix(.1 0 0 -.1 0 689.17)"/></g><use x="517.105" xlink:href="#E" y="333.743"/><use x="306.874" xlink:href="#E" y="322.5348"/><path d="m4564.414062 3634.35625h5.273438v366.25h-5.273438zm0 0" fill="none" stroke="#000" stroke-linejoin="round" stroke-miterlimit="10" stroke-width="3.99004" transform="matrix(.1 0 0 -.1 0 689.17)"/><path d="m456.441406 325.734375h.527344v-36.621094h-.527344zm0 0"/><use x="435.393" xlink:href="#aj" y="384.632"/><use x="441.516027" xlink:href="#ah" y="384.632"/><use x="456.653521" xlink:href="#O" y="384.632"/><use x="442.53245" xlink:href="#E" y="328.1394"/><path d="m3749.882812 3332.090625h5.273438v310.195313h-5.273438zm0 0" fill="none" stroke="#000" stroke-linejoin="round" stroke-miterlimit="10" stroke-width="3.99004" transform="matrix(.1 0 0 -.1 0 689.17)"/><path d="m374.988281 355.960938h.523438v-31.019532h-.523438zm0 0"/><use x="360.846" xlink:href="#X" y="384.632"/><use x="374.622955" xlink:href="#I" y="384.632"/><use x="388.059284" xlink:href="#aa" y="384.632"/><use x="374.7878" xlink:href="#E" y="322.5351"/><path d="m3070.742188 3332.090625h5.273437v310.195313h-5.273437zm0 0" fill="none" stroke="#000" stroke-linejoin="round" stroke-miterlimit="10" stroke-width="3.99004" transform="matrix(.1 0 0 -.1 0 689.17)"/><path d="m307.074219 355.960938h.523437v-31.019532h-.523437zm0 0"/><use x="288.17" xlink:href="#O" y="384.632"/><use x="295.823903" xlink:href="#aa" y="384.632"/><use x="311.130556" xlink:href="#Q" y="384.632"/><use x="326.437581" xlink:href="#R" y="384.632"/><path d="m1712.460938 3328.535938h684.414062v49.804687h-684.414062zm0 0" fill="none" stroke="#000" stroke-linejoin="round" stroke-miterlimit="10" stroke-width="3.99004" transform="matrix(.1 0 0 -.1 0 689.17)"/><path d="m171.246094 356.316406h68.441406v-4.980468h-68.441406zm0 0"/><path d="m2100.976562 3121.075h68.28125v3.554688h-68.28125zm0 0" fill="none" stroke="#000" stroke-linejoin="round" stroke-miterlimit="10" stroke-width="5.69365" transform="matrix(.1 0 0 -.1 0 689.17)"/><path d="m210.097656 377.0625h6.828125v-.355469h-6.828125zm0 0"/><path d="m2699.335938 3121.075h68.28125v3.554688h-68.28125zm0 0" fill="none" stroke="#000" stroke-linejoin="round" stroke-miterlimit="10" stroke-width="5.69365" transform="matrix(.1 0 0 -.1 0 689.17)"/><path d="m269.933594 377.0625h6.824218v-.355469h-6.824218zm0 0"/><path d="m3070.742188 3305.215625h684.414062v49.804688h-684.414062zm0 0" fill="none" stroke="#000" stroke-linejoin="round" stroke-miterlimit="10" stroke-width="3.99004" transform="matrix(.1 0 0 -.1 0 689.17)"/><path d="m307.074219 358.648438h68.441406v-4.980469h-68.441406zm0 0"/><path d="m4159.648438 3121.075h68.28125v3.554688h-68.28125zm0 0" fill="none" stroke="#000" stroke-linejoin="round" stroke-miterlimit="10" stroke-width="5.69365" transform="matrix(.1 0 0 -.1 0 689.17)"/><path d="m415.964844 377.0625h6.828125v-.355469h-6.828125zm0 0"/><path d="m4819.804688 3121.075h68.28125v3.554688h-68.28125zm0 0" fill="none" stroke="#000" stroke-linejoin="round" stroke-miterlimit="10" stroke-width="5.69365" transform="matrix(.1 0 0 -.1 0 689.17)"/><path d="m481.980469 377.0625h6.828125v-.355469h-6.828125zm0 0"/><use x="506.48" xlink:href="#O" y="384.632"/><use x="513.792863" xlink:href="#Z" y="384.632"/><use x="529.099888" xlink:href="#aj" y="384.632"/><use x="534.71276" xlink:href="#S" y="384.632"/><path d="m5310.15625 3578.301563h5.234375v366.25h-5.234375zm0 0" fill="none" stroke="#000" stroke-linejoin="round" stroke-miterlimit="10" stroke-width="3.99004" transform="matrix(.1 0 0 -.1 0 689.17)"/><path d="m531.015625 331.339844h.523437v-36.625h-.523437zm0 0"/><path d="m966.71875 3332.090625h5.273438v366.25h-5.273438zm0 0" fill="none" stroke="#000" stroke-linejoin="round" stroke-miterlimit="10" stroke-width="3.99004" transform="matrix(.1 0 0 -.1 0 689.17)"/><path d="m96.671875 355.960938h.527344v-36.625h-.527344zm0 0"/><use x="96.4727" xlink:href="#E" y="316.931"/><use x="49.3567" xlink:href="#G" y="322.53491"/><use x="59.4864" xlink:href="#G" y="305.72321"/><use x="8.9665" xlink:href="#F" y="333.74311"/><use x="91.4595" xlink:href="#ai" y="384.63181"/><use x="109.998546" xlink:href="#V" y="384.63181"/><path d="m2391.601562 3355.45h5.273438v342.890625h-5.273438zm0 0" fill="none" stroke="#000" stroke-linejoin="round" stroke-miterlimit="10" stroke-width="3.99004" transform="matrix(.1 0 0 -.1 0 689.17)"/><path d="m239.160156 353.628906h.527344v-34.292968h-.527344zm0 0"/><use x="234.032" xlink:href="#Z" y="384.632"/><use x="249.338653" xlink:href="#ak" y="384.632"/><use x="238.96012" xlink:href="#E" y="316.9312"/><path d="m1712.460938 3355.45h5.273437v342.890625h-5.273437zm0 0" fill="none" stroke="#000" stroke-linejoin="round" stroke-miterlimit="10" stroke-width="3.99004" transform="matrix(.1 0 0 -.1 0 689.17)"/><path d="m171.246094 353.628906h.527344v-34.292968h-.527344zm0 0"/><use x="163.737" xlink:href="#U" y="384.632"/><use x="186.868234" xlink:href="#V" y="384.632"/><use x="171.04598" xlink:href="#E" y="316.9312"/><g clip-path="url(#s)"><path d="m3.554688 2097.246875h5945.625" style="fill:none;stroke-width:7.11706;stroke-linecap:round;stroke-linejoin:round;stroke:#000;stroke-miterlimit:10" transform="matrix(.1 0 0 -.1 0 689.17)"/></g><g clip-path="url(#t)"><path d="m3.554688 2209.317188h5945.625" style="fill:none;stroke-width:7.11706;stroke-linecap:round;stroke-linejoin:round;stroke:#000;stroke-miterlimit:10" transform="matrix(.1 0 0 -.1 0 689.17)"/></g><g clip-path="url(#u)"><path d="m3.554688 2321.3875h5945.625" style="fill:none;stroke-width:7.11706;stroke-linecap:round;stroke-linejoin:round;stroke:#000;stroke-miterlimit:10" transform="matrix(.1 0 0 -.1 0 689.17)"/></g><g clip-path="url(#v)"><path d="m3.554688 2433.457813h5945.625" style="fill:none;stroke-width:7.11706;stroke-linecap:round;stroke-linejoin:round;stroke:#000;stroke-miterlimit:10" transform="matrix(.1 0 0 -.1 0 689.17)"/></g><g clip-path="url(#w)"><path d="m3.554688 2545.567188h5945.625" style="fill:none;stroke-width:7.11706;stroke-linecap:round;stroke-linejoin:round;stroke:#000;stroke-miterlimit:10" transform="matrix(.1 0 0 -.1 0 689.17)"/></g><g clip-path="url(#x)"><path d="m5946.015625 2097.246875v448.320313" fill="none" stroke="#000" stroke-linejoin="round" stroke-miterlimit="10" stroke-width="13.5168" transform="matrix(.1 0 0 -.1 0 689.17)"/></g><use x="517.275" xlink:href="#E" y="468.239"/><use x="306.405" xlink:href="#E" y="462.6347"/><path d="m4567.8125 2289.395313h5.273438v366.25h-5.273438zm0 0" fill="none" stroke="#000" stroke-linejoin="round" stroke-miterlimit="10" stroke-width="3.99004" transform="matrix(.1 0 0 -.1 0 689.17)"/><path d="m456.78125 460.230469h.523438v-36.625h-.523438zm0 0"/><use x="428.248" xlink:href="#K" y="518.675"/><use x="441.513626" xlink:href="#ah" y="518.675"/><use x="456.820279" xlink:href="#N" y="518.675"/><use x="442.8699" xlink:href="#E" y="462.6352"/><path d="m3880.78125 2345.410938h5.273438v310.078125h-5.273438zm0 0" fill="none" stroke="#000" stroke-linejoin="round" stroke-miterlimit="10" stroke-width="3.99004" transform="matrix(.1 0 0 -.1 0 689.17)"/><path d="m388.078125 454.628906h.527344v-31.007812h-.527344zm0 0"/><use x="352.658" xlink:href="#X" y="518.675"/><use x="366.434564" xlink:href="#I" y="518.675"/><use x="379.700583" xlink:href="#ah" y="518.675"/><use x="395.007236" xlink:href="#Q" y="518.675"/><use x="374.1682" xlink:href="#E" y="457.0313"/><path d="m3203.164062 2289.395313h5.273438v343.046875h-5.273438zm0 0" fill="none" stroke="#000" stroke-linejoin="round" stroke-miterlimit="10" stroke-width="3.99004" transform="matrix(.1 0 0 -.1 0 689.17)"/><path d="m320.3125 460.230469h.527344v-34.304688h-.527344zm0 0"/><use x="296.119" xlink:href="#aj" y="518.675"/><use x="302.241661" xlink:href="#al" y="518.675"/><use x="317.548686" xlink:href="#aj" y="518.675"/><use x="323.671347" xlink:href="#O" y="518.675"/><path d="m1847.851562 2547.090625v-49.804687l682.929688 23.359375v49.804687zm0 0" fill="none" stroke="#000" stroke-linejoin="round" stroke-miterlimit="10" stroke-width="3.99004" transform="matrix(.1 0 0 -.1 0 689.17)"/><path d="m184.785156 434.460938v4.980468l68.292969-2.335937v-4.980469zm0 0"/><path d="m2752.773438 1780.645313h68.28125v3.554687h-68.28125zm0 0" fill="none" stroke="#000" stroke-linejoin="round" stroke-miterlimit="10" stroke-width="5.69365" transform="matrix(.1 0 0 -.1 0 689.17)"/><path d="m275.277344 511.105469h6.828125v-.355469h-6.828125zm0 0"/><path d="m3203.164062 2659.2v-49.804687l682.890626 23.320312v49.804688zm0 0" fill="none" stroke="#000" stroke-linejoin="round" stroke-miterlimit="10" stroke-width="3.99004" transform="matrix(.1 0 0 -.1 0 689.17)"/><path d="m320.316406 423.25v4.980469l68.289063-2.332031v-4.980469zm0 0"/><path d="m4158.671875 1780.645313h68.28125v3.554687h-68.28125zm0 0" fill="none" stroke="#000" stroke-linejoin="round" stroke-miterlimit="10" stroke-width="5.69365" transform="matrix(.1 0 0 -.1 0 689.17)"/><path d="m415.867188 511.105469h6.828124v-.355469h-6.828124zm0 0"/><path d="m4858.476562 1780.645313h68.242188v3.554687h-68.242188zm0 0" fill="none" stroke="#000" stroke-linejoin="round" stroke-miterlimit="10" stroke-width="5.69365" transform="matrix(.1 0 0 -.1 0 689.17)"/><path d="m485.847656 511.105469h6.824219v-.355469h-6.824219zm0 0"/><use x="506.394" xlink:href="#O" y="518.675"/><use x="513.707253" xlink:href="#Z" y="518.675"/><use x="529.013906" xlink:href="#aj" y="518.675"/><use x="535.136543" xlink:href="#am" y="518.675"/><path d="m5311.835938 2233.340625h5.273437v366.25h-5.273437zm0 0" fill="none" stroke="#000" stroke-linejoin="round" stroke-miterlimit="10" stroke-width="3.99004" transform="matrix(.1 0 0 -.1 0 689.17)"/><path d="m531.183594 465.835938h.527344v-36.625h-.527344zm0 0"/><path d="m1103.828125 2233.340625h5.273437v366.25h-5.273437zm0 0" fill="none" stroke="#000" stroke-linejoin="round" stroke-miterlimit="10" stroke-width="3.99004" transform="matrix(.1 0 0 -.1 0 689.17)"/><path d="m110.382812 465.835938h.527344v-36.625h-.527344zm0 0"/><use x="96.4727" xlink:href="#E" y="468.239"/><use x="49.3567" xlink:href="#G" y="457.0308"/><use x="59.4864" xlink:href="#G" y="440.2191"/><use x="8.9665" xlink:href="#F" y="468.239"/><use x="87.6329" xlink:href="#an" y="518.6745"/><use x="106.171946" xlink:href="#X" y="518.6745"/><path d="m2525.507812 2233.340625h5.273438v310.039063h-5.273438zm0 0" fill="none" stroke="#000" stroke-linejoin="round" stroke-miterlimit="10" stroke-width="3.99004" transform="matrix(.1 0 0 -.1 0 689.17)"/><path d="m252.550781 465.835938h.527344v-31.003907h-.527344zm0 0"/><use x="230.652" xlink:href="#ab" y="518.675"/><use x="245.958653" xlink:href="#af" y="518.675"/><use x="238.64106" xlink:href="#E" y="468.2395"/><path d="m1847.851562 2177.325h5.273438v343.046875h-5.273438zm0 0" fill="none" stroke="#000" stroke-linejoin="round" stroke-miterlimit="10" stroke-width="3.99004" transform="matrix(.1 0 0 -.1 0 689.17)"/><path d="m184.785156 471.4375h.527344v-34.304688h-.527344zm0 0"/><use x="148.517" xlink:href="#Q" y="518.675"/><use x="163.823653" xlink:href="#af" y="518.675"/><use x="178.961147" xlink:href="#ac" y="518.675"/><use x="194.09864" xlink:href="#ad" y="518.675"/><use x="170.8779" xlink:href="#E" y="473.8434"/><g clip-path="url(#y)"><path d="m3.554688 752.285938h5945.625" style="fill:none;stroke-width:7.11706;stroke-linecap:round;stroke-linejoin:round;stroke:#000;stroke-miterlimit:10" transform="matrix(.1 0 0 -.1 0 689.17)"/></g><g clip-path="url(#z)"><path d="m3.554688 864.35625h5945.625" style="fill:none;stroke-width:7.11706;stroke-linecap:round;stroke-linejoin:round;stroke:#000;stroke-miterlimit:10" transform="matrix(.1 0 0 -.1 0 689.17)"/></g><g clip-path="url(#A)"><path d="m3.554688 976.426563h5945.625" style="fill:none;stroke-width:7.11706;stroke-linecap:round;stroke-linejoin:round;stroke:#000;stroke-miterlimit:10" transform="matrix(.1 0 0 -.1 0 689.17)"/></g><g clip-path="url(#B)"><path d="m3.554688 1088.496875h5945.625" style="fill:none;stroke-width:7.11706;stroke-linecap:round;stroke-linejoin:round;stroke:#000;stroke-miterlimit:10" transform="matrix(.1 0 0 -.1 0 689.17)"/></g><g clip-path="url(#C)"><path d="m3.554688 1200.60625h5945.625" style="fill:none;stroke-width:7.11706;stroke-linecap:round;stroke-linejoin:round;stroke:#000;stroke-miterlimit:10" transform="matrix(.1 0 0 -.1 0 689.17)"/></g><g clip-path="url(#D)"><path d="m5931.40625 752.285938v448.320312" fill="none" stroke="#000" stroke-linejoin="round" stroke-miterlimit="10" stroke-width="42.7024" transform="matrix(.1 0 0 -.1 0 689.17)"/></g><path d="m5881.953125 752.285938v448.320312" fill="none" stroke="#000" stroke-linejoin="round" stroke-miterlimit="10" stroke-width="13.5168" transform="matrix(.1 0 0 -.1 0 689.17)"/><use x="475.911" xlink:href="#R" y="654.6688"/><use x="489.517642" xlink:href="#aa" y="654.6688"/><use x="504.824295" xlink:href="#Q" y="654.6688"/><use x="520.130948" xlink:href="#R" y="654.6688"/><use x="533.227434" xlink:href="#ao" y="654.6688"/><use x="508.3962" xlink:href="#H" y="565.7965"/><use x="501.07745" xlink:href="#E" y="619.5465"/><path d="m4309.492188 776.309375h5.234374v366.25h-5.234374zm0 0" fill="none" stroke="#000" stroke-linejoin="round" stroke-miterlimit="10" stroke-width="3.99004" transform="matrix(.1 0 0 -.1 0 689.17)"/><path d="m430.945312 611.539062h.527344v-36.625h-.527344zm0 0"/><use x="409.048" xlink:href="#Q" y="654.6688"/><use x="424.354653" xlink:href="#Z" y="654.6688"/><use x="417.03706" xlink:href="#E" y="613.9426"/><path d="m3546.171875 832.364063h5.273437v343.046875h-5.273437zm0 0" fill="none" stroke="#000" stroke-linejoin="round" stroke-miterlimit="10" stroke-width="3.99004" transform="matrix(.1 0 0 -.1 0 689.17)"/><path d="m354.617188 605.933594h.527343v-34.300782h-.527343zm0 0"/><use x="333.4" xlink:href="#U" y="654.6688"/><use x="356.531246" xlink:href="#V" y="654.6688"/><use x="340.71016" xlink:href="#E" y="608.3387"/><path d="m1373.789062 420.723438h68.28125v3.554687h-68.28125zm0 0" fill="none" stroke="#000" stroke-linejoin="round" stroke-miterlimit="10" stroke-width="5.69365" transform="matrix(.1 0 0 -.1 0 689.17)"/><path d="m137.378906 647.097656h6.828125v-.351562h-6.828125zm0 0"/><path d="m2187.8125 420.723438h68.28125v3.554687h-68.28125zm0 0" fill="none" stroke="#000" stroke-linejoin="round" stroke-miterlimit="10" stroke-width="5.69365" transform="matrix(.1 0 0 -.1 0 689.17)"/><path d="m218.78125 647.097656h6.828125v-.351562h-6.828125zm0 0"/><path d="m2782.929688 1225.489063v-49.804688l768.515624-23.359375v49.84375zm0 0" fill="none" stroke="#000" stroke-linejoin="round" stroke-miterlimit="10" stroke-width="3.99004" transform="matrix(.1 0 0 -.1 0 689.17)"/><path d="m278.292969 566.621094v4.980468l76.851562 2.335938v-4.984375zm0 0"/><path d="m3824.375 420.723438h68.28125v3.554687h-68.28125zm0 0" fill="none" stroke="#000" stroke-linejoin="round" stroke-miterlimit="10" stroke-width="5.69365" transform="matrix(.1 0 0 -.1 0 689.17)"/><path d="m382.4375 647.097656h6.828125v-.351562h-6.828125zm0 0"/><path d="m4543.710938 420.723438h68.28125v3.554687h-68.28125zm0 0" fill="none" stroke="#000" stroke-linejoin="round" stroke-miterlimit="10" stroke-width="5.69365" transform="matrix(.1 0 0 -.1 0 689.17)"/><path d="m454.371094 647.097656h6.828125v-.351562h-6.828125zm0 0"/><path d="m5149.882812 720.254688h5.273438v366.25h-5.273438zm0 0" fill="none" stroke="#000" stroke-linejoin="round" stroke-miterlimit="10" stroke-width="3.99004" transform="matrix(.1 0 0 -.1 0 689.17)"/><path d="m514.988281 617.144531h.523438v-36.625h-.523438zm0 0"/><use x="49.3566" xlink:href="#G" y="591.5266"/><use x="59.4863" xlink:href="#G" y="574.7145"/><use x="8.9664" xlink:href="#F" y="602.7344"/><use x="96.4726" xlink:href="#E" y="591.5266"/><path d="m966.71875 604.825h5.273438v347.539063h-5.273438zm0 0" fill="none" stroke="#000" stroke-linejoin="round" stroke-miterlimit="10" stroke-width="3.99004" transform="matrix(.1 0 0 -.1 0 689.17)"/><path d="m96.671875 628.6875h.527344v-34.753906h-.527344zm0 0"/><path d="m2782.890625 888.379688h5.273437v310.078125h-5.273437zm0 0" fill="none" stroke="#000" stroke-linejoin="round" stroke-miterlimit="10" stroke-width="3.99004" transform="matrix(.1 0 0 -.1 0 689.17)"/><path d="m278.289062 600.332031h.527344v-31.007812h-.527344zm0 0"/><use x="238.448" xlink:href="#U" y="654.6688"/><use x="261.578856" xlink:href="#af" y="654.6688"/><use x="277.396817" xlink:href="#I" y="654.6688"/><use x="291.173772" xlink:href="#I" y="654.6688"/><use x="264.3812" xlink:href="#E" y="602.7344"/><path d="m1942.5 944.434375h5.273438v366.25h-5.273438zm0 0" fill="none" stroke="#000" stroke-linejoin="round" stroke-miterlimit="10" stroke-width="3.99004" transform="matrix(.1 0 0 -.1 0 689.17)"/><path d="m194.25 594.726562h.527344v-36.625h-.527344zm0 0"/><use x="169.376" xlink:href="#ac" y="654.6688"/><use x="184.513494" xlink:href="#af" y="654.6688"/><use x="199.820519" xlink:href="#aj" y="654.6688"/><use x="180.342" xlink:href="#E" y="597.1305"/><use x="95.3709" xlink:href="#ap" y="654.6688"/><use x="103.024803" xlink:href="#ak" y="654.6688"/></svg>