<svg height="872.1em" viewBox="0 0 595.28 872.1" width="595.28em" xmlns="http://www.w3.org/2000/svg" xmlns:xlink="http://www.w3.org/1999/xlink"><clipPath id="a"><path d="m0 60h595.28125v2h-595.28125zm0 0"/></clipPath><clipPath id="b"><path d="m0 51h595.28125v2h-595.28125zm0 0"/></clipPath><clipPath id="c"><path d="m0 42h595.28125v2h-595.28125zm0 0"/></clipPath><clipPath id="d"><path d="m0 33h595.28125v2h-595.28125zm0 0"/></clipPath><clipPath id="e"><path d="m0 24h595.28125v2h-595.28125zm0 0"/></clipPath><clipPath id="f"><path d="m594 24h1.28125v38h-1.28125zm0 0"/></clipPath><clipPath id="g"><path d="m0 168h595.28125v1h-595.28125zm0 0"/></clipPath><clipPath id="h"><path d="m0 159h595.28125v1h-595.28125zm0 0"/></clipPath><clipPath id="i"><path d="m0 150h595.28125v1h-595.28125zm0 0"/></clipPath><clipPath id="j"><path d="m0 141h595.28125v1h-595.28125zm0 0"/></clipPath><clipPath id="k"><path d="m0 132h595.28125v1h-595.28125zm0 0"/></clipPath><clipPath id="l"><path d="m594 131h1.28125v38h-1.28125zm0 0"/></clipPath><clipPath id="m"><path d="m0 275h595.28125v2h-595.28125zm0 0"/></clipPath><clipPath id="n"><path d="m0 266h595.28125v2h-595.28125zm0 0"/></clipPath><clipPath id="o"><path d="m0 257h595.28125v2h-595.28125zm0 0"/></clipPath><clipPath id="p"><path d="m0 248h595.28125v2h-595.28125zm0 0"/></clipPath><clipPath id="q"><path d="m0 239h595.28125v2h-595.28125zm0 0"/></clipPath><clipPath id="r"><path d="m594 239h1.28125v38h-1.28125zm0 0"/></clipPath><clipPath id="s"><path d="m0 383h595.28125v1h-595.28125zm0 0"/></clipPath><clipPath id="t"><path d="m0 374h595.28125v1h-595.28125zm0 0"/></clipPath><clipPath id="u"><path d="m0 365h595.28125v1h-595.28125zm0 0"/></clipPath><clipPath id="v"><path d="m0 356h595.28125v1h-595.28125zm0 0"/></clipPath><clipPath id="w"><path d="m0 347h595.28125v2h-595.28125zm0 0"/></clipPath><clipPath id="x"><path d="m594 347h1.28125v38h-1.28125zm0 0"/></clipPath><clipPath id="y"><path d="m0 490h595.28125v2h-595.28125zm0 0"/></clipPath><clipPath id="z"><path d="m0 481h595.28125v2h-595.28125zm0 0"/></clipPath><clipPath id="A"><path d="m0 472h595.28125v2h-595.28125zm0 0"/></clipPath><clipPath id="B"><path d="m0 463h595.28125v2h-595.28125zm0 0"/></clipPath><clipPath id="C"><path d="m0 454h595.28125v2h-595.28125zm0 0"/></clipPath><clipPath id="D"><path d="m594 454h1.28125v38h-1.28125zm0 0"/></clipPath><clipPath id="E"><path d="m0 598h595.28125v2h-595.28125zm0 0"/></clipPath><clipPath id="F"><path d="m0 589h595.28125v2h-595.28125zm0 0"/></clipPath><clipPath id="G"><path d="m0 580h595.28125v2h-595.28125zm0 0"/></clipPath><clipPath id="H"><path d="m0 571h595.28125v2h-595.28125zm0 0"/></clipPath><clipPath id="I"><path d="m0 562h595.28125v2h-595.28125zm0 0"/></clipPath><clipPath id="J"><path d="m594 562h1.28125v38h-1.28125zm0 0"/></clipPath><clipPath id="K"><path d="m0 706h595.28125v1h-595.28125zm0 0"/></clipPath><clipPath id="L"><path d="m0 697h595.28125v1h-595.28125zm0 0"/></clipPath><clipPath id="M"><path d="m0 688h595.28125v1h-595.28125zm0 0"/></clipPath><clipPath id="N"><path d="m0 679h595.28125v1h-595.28125zm0 0"/></clipPath><clipPath id="O"><path d="m0 670h595.28125v1h-595.28125zm0 0"/></clipPath><clipPath id="P"><path d="m594 669h1.28125v38h-1.28125zm0 0"/></clipPath><clipPath id="Q"><path d="m0 813h595.28125v2h-595.28125zm0 0"/></clipPath><clipPath id="R"><path d="m0 804h595.28125v2h-595.28125zm0 0"/></clipPath><clipPath id="S"><path d="m0 795h595.28125v2h-595.28125zm0 0"/></clipPath><clipPath id="T"><path d="m0 786h595.28125v2h-595.28125zm0 0"/></clipPath><clipPath id="U"><path d="m0 777h595.28125v2h-595.28125zm0 0"/></clipPath><clipPath id="V"><path d="m591 776h4.28125v40h-4.28125zm0 0"/></clipPath><symbol id="W" overflow="visible"><path d="m7.953125-4.84375c-1.5 0-2.9375.5-4.21875 1.296875-1.6875 1-3.734375 2.765625-3.734375 5.296875 0 2.125 1.859375 3.09375 3.765625 3.09375 1.5 0 2.9375-.5 4.234375-1.296875 1.6875-1 3.6875-2.765625 3.6875-5.296875 0-2.125-1.828125-3.09375-3.734375-3.09375zm0 0"/></symbol><symbol id="X" overflow="visible"><path d="m0 0h-.5v8.96875h.5zm0 0v8.96875c2.578125 2.6875 6.03125 6.453125 6.03125 10.1875 0 2.390625-.546875 4.71875-1.484375 6.953125-.09375.53125.328125.890625.765625.890625.25 0 .453125-.140625.609375-.390625.921875-2.375 1.5-4.921875 1.5-7.453125 0-7.109375-7.421875-12.0625-7.421875-19.15625zm0 0"/></symbol><symbol id="Y" overflow="visible"><path d="m13.40625-9.328125c-.5625-2.5-1.25-4.984375-1.96875-7.453125 3.4375-3.90625 6.5625-7.921875 6.5625-13.09375 0-4.046875-2.21875-9.859375-4.734375-12.875-.171875-.140625-.390625-.140625-.578125 0-3.40625 2.484375-5.375 6.421875-5.375 10.578125 0 1.875.03125 3.703125.25 5.53125.25 2.328125.859375 4.59375 1.515625 6.84375-4.234375 4.8125-9 9.390625-9 15.78125 0 7.203125 5.1875 13.34375 11.9375 13.34375 1.109375 0 2.15625-.109375 3.1875-.296875.109375 1.15625.1875 2.296875.1875 3.453125 0 .640625-.046875 1.25-.078125 1.890625-.21875 3.546875-2.40625 6.8125-5.734375 6.890625-.046875 0-.078125.03125-.109375.03125-1.828125 0-3.40625-1.03125-4.34375-2.5.390625.171875.828125.3125 1.265625.3125 1.859375 0 3.40625-1.53125 3.40625-3.40625 0-2-1.484375-3.71875-3.40625-3.71875-2.125 0-4.03125 1.640625-4.03125 3.71875 0 3.875 3.125 7 7 7 4.234375 0 7.140625-3.8125 7.390625-8.109375.03125-.6875.03125-1.328125.03125-2 0-1.296875-.078125-2.59375-.171875-3.875.921875-.296875 1.828125-.71875 2.609375-1.328125 2.65625-1.96875 3.84375-4.734375 3.84375-7.46875 0-4.734375-3.59375-9.28125-9.109375-9.28125-.1875 0-.359375.03125-.546875.03125zm3.046875 16.671875c-.5-4.4375-1.328125-8.671875-2.21875-12.859375 3.953125.3125 6.421875 3.609375 6.421875 6.921875 0 2.5-1.71875 5.078125-4.203125 5.9375zm-13.90625-8.453125c0-5.734375 3.875-10.078125 7.75-14.421875.5625 2.125 1.140625 4.234375 1.640625 6.390625-3.625.828125-5.65625 3.875-5.65625 7.03125 0 2.5 1.28125 5.046875 4.15625 6.59375.109375.03125.21875.0625.3125.0625.40625 0 .71875-.34375.71875-.75 0-.171875-.09375-.359375-.25-.5-2-1.140625-2.9375-2.859375-2.9375-4.4375 0-2.125 1.65625-4.015625 4.484375-4.34375.9375 4.296875 1.75 8.5625 2.296875 13.15625-.96875.140625-1.9375.21875-2.9375.21875-4.875 0-9.578125-4.125-9.578125-9zm12.1875-36.546875c.609375 1.90625.75 2.84375.75 4.921875 0 4.546875-2.390625 8.171875-5.34375 11.65625-.640625-2.265625-1.171875-4.453125-1.171875-7.171875 0-3.984375 2.21875-7.609375 5.765625-9.40625zm0 0"/></symbol><symbol id="Z" overflow="visible"><path d="m7.703125 11.328125v-5.84375l1.765625-.609375c.21875-.0625.390625-.28125.390625-.53125v-2.328125c0-.40625-.390625-.6875-.75-.546875l-1.40625.5v-5.875l1.765625-.640625c.21875-.078125.390625-.296875.390625-.546875v-2.296875c0-.390625-.390625-.671875-.75-.53125l-1.40625.46875v-5.390625c0-.3125-.28125-.609375-.609375-.609375-.3125 0-.609375.296875-.609375.609375v5.8125l-3.109375 1.109375v-5.40625c0-.328125-.296875-.609375-.609375-.609375-.328125 0-.609375.28125-.609375.609375v5.84375l-1.765625.609375c-.21875.0625-.390625.28125-.390625.53125v2.328125c0 .40625.390625.6875.75.546875l1.40625-.5v5.875l-1.765625.640625c-.21875.078125-.390625.296875-.390625.546875v2.296875c0 .390625.390625.671875.75.53125l1.40625-.46875v5.390625c0 .3125.28125.609375.609375.609375.3125 0 .609375-.296875.609375-.609375v-5.8125l3.109375-1.109375v5.40625c0 .328125.296875.609375.609375.609375.328125 0 .609375-.28125.609375-.609375zm-4.328125-13.734375 3.109375-1.078125v5.890625l-3.109375 1.078125zm0 0"/></symbol><symbol id="aa" overflow="visible"><path d="m0 0c0 1.140625.890625 2.046875 2.046875 2.046875 1.140625 0 2.046875-.90625 2.046875-2.046875s-.90625-2.046875-2.046875-2.046875c-1.15625 0-2.046875.90625-2.046875 2.046875zm0 0"/></symbol><symbol id="ab" overflow="visible"><path d="m11.328125-2.40625c0 .359375-.109375.75-.359375 1.046875-.75.890625-2.46875 2-3.828125 2.859375-1.375.859375-3.09375 2.015625-4.203125 2.34375-.140625.03125-.3125.0625-.46875.0625-.78125 0-1.5-.609375-1.5-1.5 0-.359375.109375-.75.359375-1.046875.75-.890625 2.46875-2 3.828125-2.859375 1.375-.859375 3.09375-2.015625 4.203125-2.34375.140625-.03125.328125-.0625.46875-.0625.78125 0 1.5.609375 1.5 1.5zm-1.828125-2.4375c-2.6875 0-4.875.578125-6.78125 1.875-1.140625.78125-1.890625 2-2.328125 3.328125-.21875.640625-.390625 1.359375-.390625 2.046875 0 1.6875 1.21875 2.4375 2.796875 2.4375 2.6875 0 4.875-.578125 6.78125-1.875 1.140625-.78125 1.890625-2 2.328125-3.328125.21875-.640625.390625-1.359375.390625-2.046875 0-1.6875-1.21875-2.4375-2.796875-2.4375zm0 0"/></symbol><symbol id="ac" overflow="visible"><path d="m-.828125 4.046875c0 1.9375 1.6875 5.34375 3.34375 7.328125.203125.25.5625-.078125.359375-.328125-.609375-.75-1.015625-2.1875-1.015625-3.4375 0-1.484375.4375-2.515625 1.875-2.515625 1.28125 0 2.96875.75 3.65625 1.546875.109375.140625.25.171875.359375.171875.25 0 .5-.25.5-.5 0-.109375-.03125-.1875-.109375-.28125l-3.125-3.734375c-.5625-.71875-.859375-1.546875-.859375-2.40625 0-1.109375.46875-2.25 1.40625-3.046875 1.328125-1.140625 3.078125-2.265625 3.078125-3.4375 0-.296875-.109375-.609375-.359375-.90625l-5.453125-6.515625c-.109375-.15625-.25-.1875-.359375-.1875-.25 0-.5.25-.5.5 0 .109375.046875.21875.109375.328125l1.40625 1.65625c.5625.703125.859375 1.53125.859375 2.390625 0 1.109375-.46875 2.265625-1.40625 3.046875-1.328125 1.15625-3.078125 2.265625-3.078125 3.453125 0 .28125.109375.609375.359375.890625l4.90625 5.875c-1.609375-.78125-3.4375-1.3125-4.65625-1.3125-.9375 0-1.296875.5-1.296875 1.421875zm0 0"/></symbol><symbol id="ad" overflow="visible"><path d="m7.703125-4.09375c2.84375 0 4.953125 2.1875 4.953125 5.03125 0 1.640625-.71875 3.15625-2.515625 3.15625-2.828125 0-4.984375-2.1875-4.984375-5.03125 0-1.640625.765625-3.15625 2.546875-3.15625zm10.125 4.09375c0-1.546875-1.265625-2.65625-2.625-3.40625-1.9375-1.046875-4.09375-1.4375-6.28125-1.4375s-4.375.390625-6.296875 1.4375c-1.375.75-2.625 1.859375-2.625 3.40625s1.25 2.65625 2.625 3.40625c1.921875 1.046875 4.109375 1.4375 6.296875 1.4375s4.34375-.390625 6.28125-1.4375c1.359375-.75 2.625-1.859375 2.625-3.40625zm0 0"/></symbol><symbol id="ae" overflow="visible"><path d="m1.53125-11.609375v11.609375h1.859375v-6.015625c.015625-2.796875 1.171875-4.03125 3.71875-3.96875v-1.890625c-.3125-.03125-.484375-.0625-.703125-.0625-1.203125 0-2.109375.71875-3.171875 2.4375v-2.109375zm0 0"/></symbol><symbol id="af" overflow="visible"><path d="m11.84375-1.078125c-.203125.03125-.28125.03125-.390625.03125-.65625 0-1-.328125-1-.90625v-6.8125c0-2.0625-1.515625-3.171875-4.359375-3.171875-1.703125 0-3.0625.484375-3.859375 1.359375-.53125.59375-.75 1.25-.796875 2.40625h1.859375c.15625-1.421875 1-2.0625 2.71875-2.0625 1.6875 0 2.59375.625 2.59375 1.734375v.484375c-.015625.796875-.421875 1.078125-1.921875 1.28125-2.609375.328125-3.015625.421875-3.71875.71875-1.359375.5625-2.03125 1.59375-2.03125 3.09375 0 2.109375 1.453125 3.4375 3.796875 3.4375 1.46875 0 2.640625-.515625 3.9375-1.71875.140625 1.203125.71875 1.71875 1.90625 1.71875.40625 0 .640625-.046875 1.265625-.203125zm-3.234375-2.578125c0 .625-.171875 1-.734375 1.515625-.75.671875-1.65625 1.03125-2.734375 1.03125-1.4375 0-2.28125-.6875-2.28125-1.859375 0-1.21875.796875-1.828125 2.78125-2.125 1.96875-.265625 2.359375-.359375 2.96875-.640625zm0 0"/></symbol><symbol id="ag" overflow="visible"><path d="m1.921875-2.296875v2.296875h1.328125v.40625c0 1.515625-.28125 1.96875-1.328125 2v.84375c1.46875.046875 2.328125-1.015625 2.328125-2.890625v-2.65625zm0 0"/></symbol><symbol id="ah" overflow="visible"><path d="m11.84375-1.078125c-.203125.03125-.28125.03125-.390625.03125-.65625 0-1-.328125-1-.90625v-6.8125c0-2.0625-1.515625-3.171875-4.359375-3.171875-1.703125 0-3.0625.484375-3.859375 1.359375-.53125.59375-.75 1.25-.796875 2.40625h1.859375c.15625-1.421875 1-2.0625 2.71875-2.0625 1.6875 0 2.59375.625 2.59375 1.734375v.484375c-.015625.796875-.421875 1.078125-1.921875 1.28125-2.609375.328125-3.015625.421875-3.71875.71875-1.359375.5625-2.03125 1.59375-2.03125 3.09375 0 2.109375 1.453125 3.4375 3.796875 3.4375 1.46875 0 2.640625-.515625 3.9375-1.71875.140625 1.203125.71875 1.71875 1.90625 1.71875.40625 0 .640625-.046875 1.265625-.203125zm-3.234375-2.578125c0 .625-.171875 1-.734375 1.515625-.75.671875-1.65625 1.03125-2.734375 1.03125-1.4375 0-2.28125-.6875-2.28125-1.859375 0-1.21875.796875-1.828125 2.78125-2.125 1.96875-.265625 2.359375-.359375 2.96875-.640625zm-1.875-12.734375-2.15625 3.28125h1.328125l3.296875-3.28125zm0 0"/></symbol><symbol id="ai" overflow="visible"><path d="m9.703125-8.375c-.03125-2.28125-1.53125-3.5625-4.21875-3.5625s-4.4375 1.40625-4.4375 3.546875c0 1.8125.921875 2.671875 3.671875 3.34375l1.71875.421875c1.296875.3125 1.796875.765625 1.796875 1.59375 0 1.109375-1.078125 1.828125-2.703125 1.828125-1 0-1.828125-.28125-2.296875-.765625-.296875-.328125-.421875-.671875-.53125-1.484375h-1.953125c.09375 2.671875 1.59375 3.96875 4.625 3.96875 2.921875 0 4.78125-1.453125 4.78125-3.6875 0-1.71875-.96875-2.671875-3.265625-3.234375l-1.78125-.40625c-1.5-.359375-2.140625-.84375-2.140625-1.671875 0-1.078125.953125-1.75 2.453125-1.75 1.484375 0 2.28125.640625 2.328125 1.859375zm0 0"/></symbol><symbol id="aj" overflow="visible"><path d="m5.71875-11.609375h-1.9375v-1.8125c0-.765625.421875-1.171875 1.28125-1.171875.15625 0 .234375 0 .65625.03125v-1.53125c-.421875-.09375-.671875-.109375-1.046875-.109375-1.703125 0-2.71875.96875-2.71875 2.625v1.96875h-1.546875v1.515625h1.546875v10.09375h1.828125v-10.09375h1.9375zm0 0"/></symbol><symbol id="ak" overflow="visible"><path d="m6.015625-11.9375c-3.265625 0-5.21875 2.328125-5.21875 6.21875 0 3.921875 1.953125 6.234375 5.25 6.234375 3.28125 0 5.25-2.328125 5.25-6.140625 0-4.03125-1.90625-6.3125-5.28125-6.3125zm.03125 1.703125c2.078125 0 3.3125 1.703125 3.3125 4.59375 0 2.734375-1.28125 4.4375-3.3125 4.4375-2.0625 0-3.328125-1.703125-3.328125-4.515625s1.265625-4.515625 3.328125-4.515625zm0 0"/></symbol><symbol id="al" overflow="visible"><path d="m10.671875 0v-11.609375h-1.84375v6.578125c0 2.375-1.234375 3.921875-3.15625 3.921875-1.46875 0-2.390625-.890625-2.390625-2.28125v-8.21875h-1.84375v8.953125c0 1.921875 1.4375 3.171875 3.703125 3.171875 1.703125 0 2.78125-.609375 3.875-2.125v1.609375zm-4.125-16.390625-2.125 3.28125h1.328125l3.3125-3.28125zm0 0"/></symbol><symbol id="am" overflow="visible"><path d="m8.9375-11.609375v1.6875c-.921875-1.390625-1.9375-2.015625-3.40625-2.015625-2.8125 0-4.75 2.609375-4.75 6.328125 0 1.953125.453125 3.375 1.453125 4.546875.859375 1.015625 1.96875 1.578125 3.171875 1.578125 1.390625 0 2.390625-.625 3.359375-2.09375v.609375c0 3.09375-.859375 4.25-3.15625 4.25-1.578125 0-2.40625-.625-2.578125-1.953125h-1.875c.171875 2.140625 1.875 3.5 4.40625 3.5 1.703125 0 3.109375-.5625 3.875-1.484375.875-1.078125 1.21875-2.53125 1.21875-5.25v-9.703125zm-3.21875 1.375c1.9375 0 3.046875 1.640625 3.046875 4.59375 0 2.8125-1.125 4.4375-3.046875 4.4375-1.90625 0-3.015625-1.65625-3.015625-4.515625 0-2.828125 1.109375-4.515625 3.015625-4.515625zm0 0"/></symbol><symbol id="an" overflow="visible"><path d="m8.59375-11.609375-3.21875 9.046875-2.96875-9.046875h-1.96875l3.921875 11.65625-.703125 1.828125c-.3125.828125-.71875 1.140625-1.484375 1.140625-.3125 0-.578125-.046875-.96875-.140625v1.65625c.375.203125.75.296875 1.234375.296875.59375 0 1.234375-.203125 1.71875-.5625.578125-.40625.90625-.90625 1.265625-1.828125l5.15625-14.046875zm0 0"/></symbol><symbol id="ao" overflow="visible"><path d="m9.8125-11.609375h-8.65625v1.625h6.453125l-6.921875 8.328125v1.65625h9.4375v-1.609375h-7.203125l6.890625-8.359375zm0 0"/></symbol><symbol id="ap" overflow="visible"><path d="m10.359375 0 4.546875-13.53125v13.53125h1.9375v-16.140625h-2.84375l-4.703125 14.0625-4.78125-14.0625h-2.859375v16.140625h1.953125v-13.53125l4.578125 13.53125zm0 0"/></symbol><symbol id="aq" overflow="visible"><path d="m3.328125-11.609375h-1.84375v11.609375h1.84375zm0-4.53125h-1.859375v2.328125h1.859375zm0 0"/></symbol><symbol id="ar" overflow="visible"><path d="m1.546875-11.609375v11.609375h1.859375v-6.40625c0-2.359375 1.25-3.90625 3.140625-3.90625 1.46875 0 2.390625.875 2.390625 2.28125v8.03125h1.84375v-8.765625c0-1.921875-1.4375-3.171875-3.671875-3.171875-1.734375 0-2.84375.671875-3.859375 2.28125v-1.953125zm0 0"/></symbol><symbol id="as" overflow="visible"><path d="m5.625-11.609375h-1.90625v-3.1875h-1.84375v3.1875h-1.5625v1.515625h1.5625v8.765625c0 1.1875.796875 1.84375 2.25 1.84375.484375 0 .875-.046875 1.5-.15625v-1.5625c-.265625.078125-.515625.09375-.890625.09375-.796875 0-1.015625-.21875-1.015625-1.03125v-7.953125h1.90625zm0 0"/></symbol><symbol id="at" overflow="visible"><path d="m6.3125 0 4.453125-11.609375h-2.09375l-3.265625 9.421875-3.109375-9.421875h-2.078125l4.078125 11.609375zm0 0"/></symbol><symbol id="au" overflow="visible"><path d="m3.921875-11.609375h-1.84375v11.609375h1.84375zm-.359375-4.78125-2.125 3.28125h1.328125l3.296875-3.28125zm0 0"/></symbol><symbol id="av" overflow="visible"><path d="m1.546875-16.140625v16.140625h1.84375v-6.40625c0-2.359375 1.234375-3.90625 3.140625-3.90625.625 0 1.203125.171875 1.640625.5.53125.40625.75.953125.75 1.78125v8.03125h1.84375v-8.765625c0-1.953125-1.40625-3.171875-3.65625-3.171875-1.640625 0-2.640625.515625-3.71875 1.9375v-6.140625zm0 0"/></symbol><symbol id="aw" overflow="visible"><path d="m10.671875 0v-11.609375h-1.84375v6.578125c0 2.375-1.234375 3.921875-3.15625 3.921875-1.46875 0-2.390625-.890625-2.390625-2.28125v-8.21875h-1.84375v8.953125c0 1.921875 1.4375 3.171875 3.703125 3.171875 1.703125 0 2.78125-.609375 3.875-2.125v1.609375zm-5.296875-16.390625-2.125 3.328125h1.328125l3.296875-3.328125zm3.859375 0-2.125 3.328125h1.328125l3.296875-3.328125zm0 0"/></symbol><symbol id="ax" overflow="visible"><path d="m10.953125-16.140625h-1.828125v6c-.78125-1.171875-2.015625-1.796875-3.5625-1.796875-3.015625 0-4.984375 2.421875-4.984375 6.109375 0 3.921875 1.90625 6.34375 5.046875 6.34375 1.59375 0 2.703125-.609375 3.703125-2.046875v1.53125h1.625zm-5.078125 5.9375c1.984375 0 3.25 1.75 3.25 4.53125 0 2.6875-1.28125 4.453125-3.234375 4.453125-2.03125 0-3.390625-1.796875-3.390625-4.5 0-2.6875 1.359375-4.484375 3.375-4.484375zm0 0"/></symbol><symbol id="ay" overflow="visible"><path d="m3.125-16.140625h-1.84375v16.140625h1.84375v-4.515625l1.796875-1.765625 3.90625 6.28125h2.28125l-4.734375-7.59375 4.03125-4.015625h-2.375l-4.90625 4.921875zm0 0"/></symbol><symbol id="az" overflow="visible"><path d="m11.359375-5.1875c0-1.765625-.140625-2.828125-.46875-3.6875-.75-1.90625-2.515625-3.0625-4.6875-3.0625-3.234375 0-5.3125 2.46875-5.3125 6.296875s1.984375 6.15625 5.265625 6.15625c2.65625 0 4.5-1.515625 4.953125-4.03125h-1.859375c-.5 1.515625-1.546875 2.3125-3.03125 2.3125-1.171875 0-2.171875-.53125-2.78125-1.5-.453125-.65625-.609375-1.328125-.625-2.484375zm-8.5-1.5c.15625-2.140625 1.453125-3.546875 3.3125-3.546875 1.890625 0 3.1875 1.46875 3.1875 3.546875zm0 0"/></symbol><symbol id="aA" overflow="visible"><path d="m1.546875-11.609375v11.609375h1.859375v-7.28125c0-1.6875 1.21875-3.03125 2.734375-3.03125 1.359375 0 2.140625.84375 2.140625 2.3125v8h1.859375v-7.28125c0-1.6875 1.21875-3.03125 2.71875-3.03125 1.359375 0 2.15625.859375 2.15625 2.3125v8h1.859375v-8.703125c0-2.078125-1.203125-3.234375-3.375-3.234375-1.546875 0-2.46875.46875-3.5625 1.78125-.6875-1.25-1.609375-1.78125-3.125-1.78125-1.546875 0-2.578125.578125-3.5625 1.96875v-1.640625zm0 0"/></symbol><symbol id="aB" overflow="visible"><path d="m3.359375-16.140625h-1.859375v16.140625h1.859375zm0 0"/></symbol><symbol id="aC" overflow="visible"><path d="m1.546875-11.609375v13.296875c0 1.140625-.34375 1.515625-1.5 1.515625-.140625 0-.203125 0-.453125-.015625v1.578125c.234375.03125.34375.0625.625.0625 2.078125 0 3.171875-.828125 3.171875-2.421875v-14.015625zm1.84375-4.53125h-1.84375v2.328125h1.84375zm0 0"/></symbol><symbol id="aD" overflow="visible"><path d="m4.296875-16.140625h-2.078125v16.140625h2.078125zm0 0"/></symbol><symbol id="aE" overflow="visible"><path d="m6.015625-11.9375c-3.265625 0-5.21875 2.328125-5.21875 6.21875 0 3.921875 1.953125 6.234375 5.25 6.234375 3.28125 0 5.25-2.328125 5.25-6.140625 0-4.03125-1.90625-6.3125-5.28125-6.3125zm.03125 1.703125c2.078125 0 3.3125 1.703125 3.3125 4.59375 0 2.734375-1.28125 4.4375-3.3125 4.4375-2.0625 0-3.328125-1.703125-3.328125-4.515625s1.265625-4.515625 3.328125-4.515625zm-.734375-6.15625-2.140625 3.328125h1.328125l3.296875-3.328125zm3.859375 0-2.15625 3.328125h1.328125l3.296875-3.328125zm0 0"/></symbol><symbol id="aF" overflow="visible"><path d="m10.671875 0v-11.609375h-1.84375v6.578125c0 2.375-1.234375 3.921875-3.15625 3.921875-1.46875 0-2.390625-.890625-2.390625-2.28125v-8.21875h-1.84375v8.953125c0 1.921875 1.4375 3.171875 3.703125 3.171875 1.703125 0 2.78125-.609375 3.875-2.125v1.609375zm0 0"/></symbol><symbol id="aG" overflow="visible"><path d="m8.671875 0 5.609375-16.140625h-2.1875l-4.484375 13.65625-4.734375-13.65625h-2.203125l5.796875 16.140625zm0 0"/></symbol><symbol id="aH" overflow="visible"><path d="m6.015625-11.9375c-3.265625 0-5.21875 2.328125-5.21875 6.21875 0 3.921875 1.953125 6.234375 5.25 6.234375 3.28125 0 5.25-2.328125 5.25-6.140625 0-4.03125-1.90625-6.3125-5.28125-6.3125zm.03125 1.703125c2.078125 0 3.3125 1.703125 3.3125 4.59375 0 2.734375-1.28125 4.4375-3.3125 4.4375-2.0625 0-3.328125-1.703125-3.328125-4.515625s1.265625-4.515625 3.328125-4.515625zm.546875-6.15625-2.125 3.28125h1.328125l3.296875-3.28125zm0 0"/></symbol><symbol id="aI" overflow="visible"><path d="m11.359375-5.1875c0-1.765625-.140625-2.828125-.46875-3.6875-.75-1.90625-2.515625-3.0625-4.6875-3.0625-3.234375 0-5.3125 2.46875-5.3125 6.296875s1.984375 6.15625 5.265625 6.15625c2.65625 0 4.5-1.515625 4.953125-4.03125h-1.859375c-.5 1.515625-1.546875 2.3125-3.03125 2.3125-1.171875 0-2.171875-.53125-2.78125-1.5-.453125-.65625-.609375-1.328125-.625-2.484375zm-8.5-1.5c.15625-2.140625 1.453125-3.546875 3.3125-3.546875 1.890625 0 3.1875 1.46875 3.1875 3.546875zm3.953125-9.703125-2.125 3.28125h1.328125l3.3125-3.28125zm0 0"/></symbol><symbol id="aJ" overflow="visible"><path d="m4.234375-2.296875h-2.3125v2.296875h2.3125zm0 0"/></symbol><symbol id="aK" overflow="visible"><path d="m10.421875-7.703125c-.078125-1.125-.328125-1.859375-.765625-2.5-.796875-1.09375-2.1875-1.734375-3.8125-1.734375-3.140625 0-5.15625 2.484375-5.15625 6.328125 0 3.75 1.984375 6.125 5.140625 6.125 2.765625 0 4.515625-1.671875 4.734375-4.5h-1.859375c-.3125 1.859375-1.265625 2.78125-2.828125 2.78125-2.046875 0-3.265625-1.65625-3.265625-4.40625 0-2.890625 1.203125-4.625 3.21875-4.625 1.546875 0 2.515625.90625 2.734375 2.53125zm0 0"/></symbol><symbol id="aL" overflow="visible"><path d="m10.671875 0v-11.609375h-1.84375v6.578125c0 2.375-1.234375 3.921875-3.15625 3.921875-1.46875 0-2.390625-.890625-2.390625-2.28125v-8.21875h-1.84375v8.953125c0 1.921875 1.4375 3.171875 3.703125 3.171875 1.703125 0 2.78125-.609375 3.875-2.125v1.609375zm-5.25-15.828125h-2.296875v2.28125h2.296875zm3.59375 0h-2.3125v2.28125h2.3125zm0 0"/></symbol><symbol id="aM" overflow="visible"><path d="m1.203125 4.828125h1.859375v-6.046875c.96875 1.203125 2.046875 1.734375 3.5625 1.734375 3 0 4.953125-2.421875 4.953125-6.125 0-3.890625-1.90625-6.328125-4.984375-6.328125-1.5625 0-2.828125.71875-3.6875 2.078125v-1.75h-1.703125zm5.078125-15.03125c2.046875 0 3.375 1.796875 3.375 4.5625 0 2.625-1.359375 4.421875-3.375 4.421875-1.96875 0-3.21875-1.765625-3.21875-4.5 0-2.71875 1.25-4.484375 3.21875-4.484375zm0 0"/></symbol><symbol id="aN" overflow="visible"><path d="m1.203125-16.140625v16.140625h1.65625v-1.484375c.875 1.34375 2.0625 2 3.671875 2 3.0625 0 5.046875-2.515625 5.046875-6.359375 0-3.765625-1.875-6.09375-4.953125-6.09375-1.59375 0-2.734375.59375-3.59375 1.90625v-6.109375zm5.0625 5.9375c2.0625 0 3.390625 1.796875 3.390625 4.5625 0 2.625-1.375 4.421875-3.390625 4.421875-1.96875 0-3.234375-1.765625-3.234375-4.5 0-2.71875 1.265625-4.484375 3.234375-4.484375zm0 0"/></symbol><symbol id="aO" overflow="visible"><path d="m1.75 0h7.28125c1.53125 0 2.65625-.421875 3.515625-1.34375.796875-.84375 1.25-2 1.25-3.265625 0-1.9375-.890625-3.125-2.953125-3.921875 1.484375-.671875 2.234375-1.859375 2.234375-3.515625 0-1.1875-.4375-2.21875-1.28125-2.96875-.859375-.765625-1.9375-1.125-3.5-1.125h-6.546875zm2.0625-9.1875v-5.140625h3.984375c1.140625 0 1.796875.15625 2.34375.578125.578125.4375.890625 1.109375.890625 2 0 .875-.3125 1.546875-.890625 1.984375-.546875.421875-1.203125.578125-2.34375.578125zm0 7.375v-5.5625h5.015625c1.828125 0 2.90625 1.046875 2.90625 2.796875 0 1.71875-1.078125 2.765625-2.90625 2.765625zm0 0"/></symbol><symbol id="aP" overflow="visible"><path d="m12.203125-16.140625.015625 11.34375c0 2.15625-1.5625 3.484375-4.140625 3.484375-2.5625 0-4.140625-1.328125-4.140625-3.484375v-11.34375h-2.0625v11.34375c0 3.21875 2.4375 5.3125 6.203125 5.3125s6.203125-2.109375 6.203125-5.3125l-.015625-11.34375zm-3.640625-4.65625-2.125 3.28125h1.328125l3.3125-3.28125zm0 0"/></symbol><symbol id="aQ" overflow="visible"><path d=""/></symbol><symbol id="aR" overflow="visible"><path d="m6.28125-6.90625h-5.265625v1.59375h5.265625zm0 0"/></symbol><symbol id="aS" overflow="visible"><path d="m7.453125-11.4375c-.203125.140625-.28125.421875-.28125.71875v5.265625h-6.203125l10.140625-11.9375c.21875-.25-.09375-.6875-.53125-.53125-.78125.25-1.578125.453125-2.40625.453125s-1.609375-.203125-2.40625-.453125c-.28125-.109375-.53125.171875-.53125.53125 0 4.484375-2.328125 8.5-5.234375 11.9375-.03125.03125-.078125.140625-.078125.21875 0 .28125.296875.75 1.046875.75h6.203125v.578125c0 1.609375-.9375 3.15625-2.4375 3.15625-.25 0-.359375.171875-.359375.359375 0 .171875.109375.390625.359375.390625 1.46875 0 2.9375-.46875 4.40625-.46875s2.9375.46875 4.421875.46875c.25 0 .34375-.21875.34375-.390625 0-.1875-.09375-.359375-.34375-.359375-1.515625 0-2.453125-1.546875-2.453125-3.15625v-.578125h2.453125c.3125 0 .453125-.21875.453125-.46875s-.140625-.5-.453125-.5h-2.453125v-9.171875c0-.5-.5625-.578125-.703125-.25-.265625.609375-.515625 1.21875-.90625 1.75-.53125.71875-1.28125 1.21875-2.046875 1.6875zm0 0"/></symbol><symbol id="aT" overflow="visible"><path d="m4.6875-9.640625v9.640625h2.765625v-13.984375h-1.828125c-.4375 1.65625-1.875 2.515625-4.28125 2.515625v1.828125zm0 0"/></symbol><symbol id="aU" overflow="visible"><path d="m4.21875-2.875h-2.953125v2.875h2.953125zm0 0"/></symbol><path d="m3335.898438 8113.070312v358.671876" fill="none" stroke="#000" stroke-miterlimit="10" stroke-width="12.0598" transform="matrix(.1 0 0 -.1 0 872.1)"/><g clip-path="url(#a)"><path d="m3.164062 8113.070312h5946.445313" fill="none" stroke="#000" stroke-linecap="round" stroke-miterlimit="10" stroke-width="6.34819" transform="matrix(.1 0 0 -.1 0 872.1)"/></g><g clip-path="url(#b)"><path d="m3.164062 8202.757812h5946.445313" fill="none" stroke="#000" stroke-linecap="round" stroke-miterlimit="10" stroke-width="6.34819" transform="matrix(.1 0 0 -.1 0 872.1)"/></g><g clip-path="url(#c)"><path d="m3.164062 8292.40625h5946.445313" fill="none" stroke="#000" stroke-linecap="round" stroke-miterlimit="10" stroke-width="6.34819" transform="matrix(.1 0 0 -.1 0 872.1)"/></g><g clip-path="url(#d)"><path d="m3.164062 8382.054688h5946.445313" fill="none" stroke="#000" stroke-linecap="round" stroke-miterlimit="10" stroke-width="6.34819" transform="matrix(.1 0 0 -.1 0 872.1)"/></g><g clip-path="url(#e)"><path d="m3.164062 8471.742188h5946.445313" fill="none" stroke="#000" stroke-linecap="round" stroke-miterlimit="10" stroke-width="6.34819" transform="matrix(.1 0 0 -.1 0 872.1)"/></g><g clip-path="url(#f)"><path d="m5946.71875 8113.070312v358.671876" fill="none" stroke="#000" stroke-miterlimit="10" stroke-width="12.0598" transform="matrix(.1 0 0 -.1 0 872.1)"/></g><use x="426.133" xlink:href="#W" y="51.826"/><use x="499.8342" xlink:href="#ae" y="94.9127"/><use x="507.147092" xlink:href="#af" y="94.9127"/><use x="519.222851" xlink:href="#ag" y="94.9127"/><use x="426.132993" xlink:href="#ae" y="94.9127"/><use x="433.445885" xlink:href="#ah" y="94.9127"/><use x="445.691566" xlink:href="#ai" y="94.9127"/><path d="m4372.148438 8222.367188h4.296874v228.75h-4.296874zm0 0" fill="none" stroke="#000" stroke-linejoin="round" stroke-miterlimit="10" stroke-width="3.98107" transform="matrix(.1 0 0 -.1 0 872.1)"/><path d="m437.214844 49.863281h.425781v-22.875h-.425781zm0 0"/><use x="466.434" xlink:href="#W" y="56.309"/><path d="m4775.15625 8177.5625h4.296875v244.921875h-4.296875zm0 0" fill="none" stroke="#000" stroke-linejoin="round" stroke-miterlimit="10" stroke-width="3.98107" transform="matrix(.1 0 0 -.1 0 872.1)"/><path d="m477.515625 54.34375h.429687v-24.492188h-.429687zm0 0"/><use x="506.737" xlink:href="#W" y="60.792"/><use x="385.832628" xlink:href="#W" y="60.792"/><use x="378.93" xlink:href="#aj" y="94.9123"/><use x="384.882723" xlink:href="#ak" y="94.9123"/><use x="397.128428" xlink:href="#ae" y="94.9123"/><path d="m3969.140625 8132.71875h4.257813v292.1875h-4.257813zm0 0" fill="none" stroke="#000" stroke-linejoin="round" stroke-miterlimit="10" stroke-width="3.98107" transform="matrix(.1 0 0 -.1 0 872.1)"/><path d="m396.914062 58.828125h.425782v-29.21875h-.425782zm0 0"/><use x="397.541" xlink:href="#X" y="29.609"/><path d="m4125.820312 7832.679688h54.101563v3.203124h-54.101563zm0 0" fill="none" stroke="#000" stroke-linejoin="round" stroke-miterlimit="10" stroke-width="5.07497" transform="matrix(.1 0 0 -.1 0 872.1)"/><path d="m412.582031 88.832031h5.410157v-.316406h-5.410157zm0 0"/><path d="m4372.148438 8472.914062v-39.0625l1258.203124-89.648437v39.0625zm0 0" fill="none" stroke="#000" stroke-linejoin="round" stroke-miterlimit="10" stroke-width="3.98107" transform="matrix(.1 0 0 -.1 0 872.1)"/><path d="m437.214844 24.808594v3.90625l125.820312 8.964844v-3.90625zm0 0"/><path d="m4755.859375 7832.679688h54.101563v3.203124h-54.101563zm0 0" fill="none" stroke="#000" stroke-linejoin="round" stroke-miterlimit="10" stroke-width="5.07497" transform="matrix(.1 0 0 -.1 0 872.1)"/><path d="m475.585938 88.832031h5.410156v-.316406h-5.410156zm0 0"/><path d="m4316.835938 8096.15625c88.632812-93.710938 300.976562-110.234375 403.007812-31.40625-101.445312-71.25-313.789062-54.726562-403.007812 31.40625zm0 0" style="fill:none;stroke-width:5.0781;stroke-linecap:round;stroke-linejoin:round;stroke:#000;stroke-miterlimit:10" transform="matrix(.1 0 0 -.1 0 872.1)"/><path d="m431.683594 62.484375c8.863281 9.371094 30.097656 11.023437 40.300781 3.140625-10.144531 7.125-31.378906 5.472656-40.300781-3.140625"/><path d="m3666.796875 7832.679688h54.101563v3.203124h-54.101563zm0 0" fill="none" stroke="#000" stroke-linejoin="round" stroke-miterlimit="10" stroke-width="5.07497" transform="matrix(.1 0 0 -.1 0 872.1)"/><path d="m366.679688 88.832031h5.410156v-.316406h-5.410156zm0 0"/><path d="m2612.226562 8419.945312v-39.0625l407.265626-18.359374v39.0625zm0 0" fill="none" stroke="#000" stroke-linejoin="round" stroke-miterlimit="10" stroke-width="3.98107" transform="matrix(.1 0 0 -.1 0 872.1)"/><path d="m261.222656 30.105469v3.90625l40.726563 1.835937v-3.90625zm0 0"/><path d="m2555.625 8064.75c85.664062-96.757812 298.164062-120.390625 403.007812-44.804688-103.984374-68.007812-316.484374-44.375-403.007812 44.804688zm0 0" style="fill:none;stroke-width:5.0781;stroke-linecap:round;stroke-linejoin:round;stroke:#000;stroke-miterlimit:10" transform="matrix(.1 0 0 -.1 0 872.1)"/><path d="m255.5625 65.625c8.566406 9.675781 29.816406 12.039062 40.300781 4.480469-10.398437 6.800781-31.648437 4.4375-40.300781-4.480469"/><path d="m1874.726562 7832.679688h54.101563v3.203124h-54.101563zm0 0" fill="none" stroke="#000" stroke-linejoin="round" stroke-miterlimit="10" stroke-width="5.07497" transform="matrix(.1 0 0 -.1 0 872.1)"/><path d="m187.472656 88.832031h5.410156v-.316406h-5.410156zm0 0"/><use x="551.526" xlink:href="#W" y="65.275"/><use x="539.6924" xlink:href="#al" y="94.9125"/><use x="551.93769" xlink:href="#am" y="94.9125"/><use x="564.013449" xlink:href="#an" y="94.9125"/><path d="m5626.09375 8087.875h4.257812v274.140625h-4.257812zm0 0" fill="none" stroke="#000" stroke-linejoin="round" stroke-miterlimit="10" stroke-width="3.98107" transform="matrix(.1 0 0 -.1 0 872.1)"/><path d="m562.609375 63.3125h.425781v-27.414062h-.425781zm0 0"/><path d="m5178.203125 8132.71875h4.257813v261.132812h-4.257813zm0 0" fill="none" stroke="#000" stroke-linejoin="round" stroke-miterlimit="10" stroke-width="3.98107" transform="matrix(.1 0 0 -.1 0 872.1)"/><path d="m517.820312 58.828125h.425782v-26.113281h-.425782zm0 0"/><path d="m1115.546875 8177.5625h4.257813v292.1875h-4.257813zm0 0" fill="none" stroke="#000" stroke-linejoin="round" stroke-miterlimit="10" stroke-width="3.98107" transform="matrix(.1 0 0 -.1 0 872.1)"/><path d="m111.554688 54.34375h.425781v-29.21875h-.425781zm0 0"/><use x="156.402" xlink:href="#W" y="47.343"/><use x="141.5071" xlink:href="#ai" y="94.9129"/><use x="152.562571" xlink:href="#ao" y="94.9129"/><use x="163.447729" xlink:href="#af" y="94.9129"/><use x="175.693044" xlink:href="#ae" y="94.9129"/><path d="m1674.84375 8267.210938h4.257812v292.1875h-4.257812zm0 0" fill="none" stroke="#000" stroke-linejoin="round" stroke-miterlimit="10" stroke-width="3.98107" transform="matrix(.1 0 0 -.1 0 872.1)"/><path d="m167.484375 45.378906h.425781v-29.21875h-.425781zm0 0"/><use x="100.472" xlink:href="#W" y="56.309"/><use x="7.1732" xlink:href="#Y" y="51.8258"/><use x="38.5556" xlink:href="#Z" y="24.9266"/><use x="48.41849" xlink:href="#Z" y="38.3762"/><use x="68.59309" xlink:href="#aS" y="42.8594"/><use x="68.59309" xlink:href="#aS" y="60.9356"/><use x="85.49189" xlink:href="#ap" y="94.9126"/><use x="103.860253" xlink:href="#aq" y="94.9126"/><use x="108.792676" xlink:href="#ar" y="94.9126"/><use x="121.037991" xlink:href="#as" y="94.9126"/><use x="60.19779" xlink:href="#aT" y="94.9126"/><use x="71.082971" xlink:href="#aU" y="94.9126"/><path d="m3509.492188 8087.875h4.257812v292.1875h-4.257812zm0 0" fill="none" stroke="#000" stroke-linejoin="round" stroke-miterlimit="10" stroke-width="3.98107" transform="matrix(.1 0 0 -.1 0 872.1)"/><path d="m350.945312 63.3125h.429688v-29.21875h-.429688zm0 0"/><use x="355.669" xlink:href="#aa" y="65.275"/><use x="331.6034" xlink:href="#at" y="94.9125"/><use x="342.658859" xlink:href="#au" y="94.9125"/><use x="348.781895" xlink:href="#ao" y="94.9125"/><use x="339.86512" xlink:href="#W" y="65.275"/><path d="m3015.234375 8132.71875h4.257813v247.539062h-4.257813zm0 0" fill="none" stroke="#000" stroke-linejoin="round" stroke-miterlimit="10" stroke-width="3.98107" transform="matrix(.1 0 0 -.1 0 872.1)"/><path d="m301.523438 58.828125h.425781v-24.753906h-.425781zm0 0"/><use x="290.441" xlink:href="#W" y="60.792"/><path d="m2612.226562 8177.5625h4.257813v220.703125h-4.257813zm0 0" fill="none" stroke="#000" stroke-linejoin="round" stroke-miterlimit="10" stroke-width="3.98107" transform="matrix(.1 0 0 -.1 0 872.1)"/><path d="m261.222656 54.34375h.425782v-22.066406h-.425782zm0 0"/><use x="208.506" xlink:href="#W" y="47.343"/><use x="197.3529" xlink:href="#at" y="94.9129"/><use x="208.067734" xlink:href="#af" y="94.9129"/><use x="220.313049" xlink:href="#ai" y="94.9129"/><use x="250.140377" xlink:href="#av" y="94.9129"/><use x="262.386082" xlink:href="#aw" y="94.9129"/><use x="274.631396" xlink:href="#ai" y="94.9129"/><use x="250.1404" xlink:href="#W" y="56.3094"/><path d="m2195.898438 8267.210938h4.257812v292.1875h-4.257812zm0 0" fill="none" stroke="#000" stroke-linejoin="round" stroke-miterlimit="10" stroke-width="3.98107" transform="matrix(.1 0 0 -.1 0 872.1)"/><path d="m219.589844 45.378906h.425781v-29.21875h-.425781zm0 0"/><g clip-path="url(#g)"><path d="m3.164062 7037.09375h5946.445313" style="fill:none;stroke-width:6.34819;stroke-linecap:round;stroke-linejoin:round;stroke:#000;stroke-miterlimit:10" transform="matrix(.1 0 0 -.1 0 872.1)"/></g><g clip-path="url(#h)"><path d="m3.164062 7126.78125h5946.445313" style="fill:none;stroke-width:6.34819;stroke-linecap:round;stroke-linejoin:round;stroke:#000;stroke-miterlimit:10" transform="matrix(.1 0 0 -.1 0 872.1)"/></g><g clip-path="url(#i)"><path d="m3.164062 7216.429688h5946.445313" style="fill:none;stroke-width:6.34819;stroke-linecap:round;stroke-linejoin:round;stroke:#000;stroke-miterlimit:10" transform="matrix(.1 0 0 -.1 0 872.1)"/></g><g clip-path="url(#j)"><path d="m3.164062 7306.117188h5946.445313" style="fill:none;stroke-width:6.34819;stroke-linecap:round;stroke-linejoin:round;stroke:#000;stroke-miterlimit:10" transform="matrix(.1 0 0 -.1 0 872.1)"/></g><g clip-path="url(#k)"><path d="m3.164062 7395.765625h5946.445313" style="fill:none;stroke-width:6.34819;stroke-linecap:round;stroke-linejoin:round;stroke:#000;stroke-miterlimit:10" transform="matrix(.1 0 0 -.1 0 872.1)"/></g><path d="m4316.25 7037.09375v358.671875" fill="none" stroke="#000" stroke-linejoin="round" stroke-miterlimit="10" stroke-width="12.0598" transform="matrix(.1 0 0 -.1 0 872.1)"/><g clip-path="url(#l)"><path d="m5946.71875 7037.09375v358.671875" fill="none" stroke="#000" stroke-linejoin="round" stroke-miterlimit="10" stroke-width="12.0598" transform="matrix(.1 0 0 -.1 0 872.1)"/></g><path d="m4506.71875 7197.679688h4.257812v285.78125h-4.257812zm0 0" fill="none" stroke="#000" stroke-linejoin="round" stroke-miterlimit="10" stroke-width="3.98107" transform="matrix(.1 0 0 -.1 0 872.1)"/><path d="m450.671875 152.335938h.425781v-28.578126h-.425781zm0 0"/><use x="455.393" xlink:href="#aa" y="154.939"/><use x="426.2676" xlink:href="#ae" y="200.132"/><use x="433.580492" xlink:href="#ah" y="200.132"/><use x="445.825783" xlink:href="#ax" y="200.132"/><use x="457.901542" xlink:href="#ag" y="200.132"/><use x="438.9953" xlink:href="#ab" y="154.939"/><use x="376.1812" xlink:href="#X" y="128.239"/><path d="m3755.546875 7146.390625h4.296875v292.226563h-4.296875zm0 0" fill="none" stroke="#000" stroke-linejoin="round" stroke-miterlimit="10" stroke-width="3.98107" transform="matrix(.1 0 0 -.1 0 872.1)"/><path d="m375.554688 157.460938h.425781v-29.222657h-.425781zm0 0"/><use x="349.748" xlink:href="#ay" y="200.132"/><use x="360.29213" xlink:href="#az" y="200.132"/><use x="372.537445" xlink:href="#aA" y="200.132"/><use x="364.4734" xlink:href="#W" y="159.4222"/><path d="m1293.085938 6780.492188h54.101562v3.164062h-54.101562zm0 0" fill="none" stroke="#000" stroke-linejoin="round" stroke-miterlimit="10" stroke-width="5.07497" transform="matrix(.1 0 0 -.1 0 872.1)"/><path d="m129.308594 194.050781h5.410156v-.316406h-5.410156zm0 0"/><path d="m1881.40625 6780.492188h54.101562v3.164062h-54.101562zm0 0" fill="none" stroke="#000" stroke-linejoin="round" stroke-miterlimit="10" stroke-width="5.07497" transform="matrix(.1 0 0 -.1 0 872.1)"/><path d="m188.140625 194.050781h5.410156v-.316406h-5.410156zm0 0"/><path d="m3241.523438 6780.492188h54.101562v3.164062h-54.101562zm0 0" fill="none" stroke="#000" stroke-linejoin="round" stroke-miterlimit="10" stroke-width="5.07497" transform="matrix(.1 0 0 -.1 0 872.1)"/><path d="m324.152344 194.050781h5.410156v-.316406h-5.410156zm0 0"/><path d="m1543.007812 6927.914062h669.765626v39.0625h-669.765626zm0 0" fill="none" stroke="#000" stroke-linejoin="round" stroke-miterlimit="10" stroke-width="3.98107" transform="matrix(.1 0 0 -.1 0 872.1)"/><path d="m154.300781 179.308594h66.976563v-3.90625h-66.976563zm0 0"/><use x="523.857" xlink:href="#ac" y="150.456"/><use x="7.173" xlink:href="#Y" y="159.42241"/><path d="m808.984375 6919.554688h4.257813v277.265624h-4.257813zm0 0" fill="none" stroke="#000" stroke-linejoin="round" stroke-miterlimit="10" stroke-width="3.98107" transform="matrix(.1 0 0 -.1 0 872.1)"/><path d="m80.894531 180.144531h.429688v-27.726562h-.429688zm0 0"/><use x="60.4449" xlink:href="#ai" y="200.132"/><use x="71.500365" xlink:href="#ao" y="200.132"/><use x="82.044891" xlink:href="#ak" y="200.132"/><use x="94.2902" xlink:href="#aA" y="200.132"/><use x="80.6972" xlink:href="#W" y="150.4558"/><use x="38.5554" xlink:href="#Z" y="132.523"/><use x="48.41829" xlink:href="#Z" y="145.9726"/><path d="m2208.476562 6949.4375h4.257813v247.382812h-4.257813zm0 0" fill="none" stroke="#000" stroke-linejoin="round" stroke-miterlimit="10" stroke-width="3.98107" transform="matrix(.1 0 0 -.1 0 872.1)"/><path d="m220.847656 177.15625h.425782v-24.738281h-.425782zm0 0"/><path d="m2981.445312 7191.234375h4.257813v292.226563h-4.257813zm0 0" fill="none" stroke="#000" stroke-linejoin="round" stroke-miterlimit="10" stroke-width="3.98107" transform="matrix(.1 0 0 -.1 0 872.1)"/><path d="m298.144531 152.976562h.425781v-29.222656h-.425781zm0 0"/><use x="302.864" xlink:href="#aa" y="154.939"/><use x="281.8585" xlink:href="#aB" y="200.132"/><use x="286.790923" xlink:href="#az" y="200.132"/><use x="299.036238" xlink:href="#aB" y="200.132"/><use x="287.06006" xlink:href="#W" y="154.939"/><use x="213.15106" xlink:href="#ao" y="200.132"/><use x="223.865894" xlink:href="#aq" y="200.132"/><use x="228.797927" xlink:href="#ay" y="200.132"/><use x="220.64754" xlink:href="#W" y="150.4558"/><use x="154.100354" xlink:href="#W" y="150.4558"/><use x="151.36554" xlink:href="#aC" y="200.132"/><use x="156.297963" xlink:href="#af" y="200.132"/><path d="m1543.007812 6949.4375h4.257813v247.382812h-4.257813zm0 0" fill="none" stroke="#000" stroke-linejoin="round" stroke-miterlimit="10" stroke-width="3.98107" transform="matrix(.1 0 0 -.1 0 872.1)"/><path d="m154.300781 177.15625h.425781v-24.738281h-.425781zm0 0"/><g clip-path="url(#m)"><path d="m3.164062 5961.15625h5946.445313" style="fill:none;stroke-width:6.34819;stroke-linecap:round;stroke-linejoin:round;stroke:#000;stroke-miterlimit:10" transform="matrix(.1 0 0 -.1 0 872.1)"/></g><g clip-path="url(#n)"><path d="m3.164062 6050.804688h5946.445313" style="fill:none;stroke-width:6.34819;stroke-linecap:round;stroke-linejoin:round;stroke:#000;stroke-miterlimit:10" transform="matrix(.1 0 0 -.1 0 872.1)"/></g><g clip-path="url(#o)"><path d="m3.164062 6140.492188h5946.445313" style="fill:none;stroke-width:6.34819;stroke-linecap:round;stroke-linejoin:round;stroke:#000;stroke-miterlimit:10" transform="matrix(.1 0 0 -.1 0 872.1)"/></g><g clip-path="url(#p)"><path d="m3.164062 6230.140625h5946.445313" style="fill:none;stroke-width:6.34819;stroke-linecap:round;stroke-linejoin:round;stroke:#000;stroke-miterlimit:10" transform="matrix(.1 0 0 -.1 0 872.1)"/></g><g clip-path="url(#q)"><path d="m3.164062 6319.789062h5946.445313" style="fill:none;stroke-width:6.34819;stroke-linecap:round;stroke-linejoin:round;stroke:#000;stroke-miterlimit:10" transform="matrix(.1 0 0 -.1 0 872.1)"/></g><path d="m3184.648438 5961.15625v358.632812" fill="none" stroke="#000" stroke-linejoin="round" stroke-miterlimit="10" stroke-width="12.0598" transform="matrix(.1 0 0 -.1 0 872.1)"/><g clip-path="url(#r)"><path d="m5946.71875 5961.15625v358.632812" fill="none" stroke="#000" stroke-linejoin="round" stroke-miterlimit="10" stroke-width="12.0598" transform="matrix(.1 0 0 -.1 0 872.1)"/></g><use x="461.494" xlink:href="#W" y="271.502"/><use x="418.0491" xlink:href="#W" y="267.0188"/><use x="415.31433" xlink:href="#aD" y="307.3672"/><use x="421.43739" xlink:href="#ai" y="307.3672"/><path d="m4291.328125 6070.453125h4.257813v228.789063h-4.257813zm0 0" fill="none" stroke="#000" stroke-linejoin="round" stroke-miterlimit="10" stroke-width="3.98107" transform="matrix(.1 0 0 -.1 0 872.1)"/><path d="m429.132812 265.054688h.425782v-22.878907h-.425782zm0 0"/><use x="452.211" xlink:href="#as" y="307.367"/><use x="457.993045" xlink:href="#az" y="307.367"/><use x="470.238726" xlink:href="#ar" y="307.367"/><path d="m4725.78125 6025.609375h4.257812v250h-4.257812zm0 0" fill="none" stroke="#000" stroke-linejoin="round" stroke-miterlimit="10" stroke-width="3.98107" transform="matrix(.1 0 0 -.1 0 872.1)"/><path d="m472.574219 269.539062h.429687v-25h-.429687zm0 0"/><use x="504.939" xlink:href="#W" y="275.985"/><path d="m1063.789062 5708.148438h54.101563v3.164062h-54.101563zm0 0" fill="none" stroke="#000" stroke-linejoin="round" stroke-miterlimit="10" stroke-width="5.07497" transform="matrix(.1 0 0 -.1 0 872.1)"/><path d="m106.378906 301.285156h5.410156v-.316406h-5.410156zm0 0"/><path d="m5160.195312 5980.804688h4.296876v271.210937h-4.296876zm0 0" fill="none" stroke="#000" stroke-linejoin="round" stroke-miterlimit="10" stroke-width="3.98107" transform="matrix(.1 0 0 -.1 0 872.1)"/><path d="m516.019531 274.019531h.429688v-27.121093h-.429688zm0 0"/><use x="374.604" xlink:href="#W" y="275.985"/><use x="371.86923" xlink:href="#aB" y="307.367"/><use x="376.801653" xlink:href="#aE" y="307.367"/><path d="m3856.875 5980.804688h4.257812v292.1875h-4.257812zm0 0" fill="none" stroke="#000" stroke-linejoin="round" stroke-miterlimit="10" stroke-width="3.98107" transform="matrix(.1 0 0 -.1 0 872.1)"/><path d="m385.6875 274.019531h.425781v-29.21875h-.425781zm0 0"/><use x="386.313" xlink:href="#X" y="244.802"/><path d="m4291.328125 6321v-39.0625l1307.617187-71.328125v39.0625zm0 0" fill="none" stroke="#000" stroke-linejoin="round" stroke-miterlimit="10" stroke-width="3.98107" transform="matrix(.1 0 0 -.1 0 872.1)"/><path d="m429.132812 240v3.90625l130.761719 7.132812v-3.90625zm0 0"/><path d="m5236.875 5708.148438h54.101562v3.164062h-54.101562zm0 0" fill="none" stroke="#000" stroke-linejoin="round" stroke-miterlimit="10" stroke-width="5.07497" transform="matrix(.1 0 0 -.1 0 872.1)"/><path d="m523.6875 301.285156h5.410156v-.316406h-5.410156zm0 0"/><path d="m4396.445312 5708.148438h54.101563v3.164062h-54.101563zm0 0" fill="none" stroke="#000" stroke-linejoin="round" stroke-miterlimit="10" stroke-width="5.07497" transform="matrix(.1 0 0 -.1 0 872.1)"/><path d="m439.644531 301.285156h5.410157v-.316406h-5.410157zm0 0"/><path d="m3516.5625 5708.148438h54.101562v3.164062h-54.101562zm0 0" fill="none" stroke="#000" stroke-linejoin="round" stroke-miterlimit="10" stroke-width="5.07497" transform="matrix(.1 0 0 -.1 0 872.1)"/><path d="m351.65625 301.285156h5.410156v-.316406h-5.410156zm0 0"/><path d="m2398.125 6268.03125v-39.0625l438.710938-18.359375v39.0625zm0 0" fill="none" stroke="#000" stroke-linejoin="round" stroke-miterlimit="10" stroke-width="3.98107" transform="matrix(.1 0 0 -.1 0 872.1)"/><path d="m239.8125 245.296875v3.90625l43.871094 1.835937v-3.90625zm0 0"/><path d="m2341.835938 5912.835938c91.289062-100.820313 324.492187-124.921876 434.453124-44.84375-109.179687-72.5-342.382812-48.4375-434.453124 44.84375zm0 0" style="fill:none;stroke-width:5.0781;stroke-linecap:round;stroke-linejoin:round;stroke:#000;stroke-miterlimit:10" transform="matrix(.1 0 0 -.1 0 872.1)"/><path d="m234.183594 280.816406c9.128906 10.082032 32.449218 12.492188 43.445312 4.484375-10.917968 7.25-34.238281 4.84375-43.445312-4.484375"/><use x="504.67" xlink:href="#aF" y="307.367"/><path d="m5594.648438 5935.960938h4.296874v292.421874h-4.296874zm0 0" fill="none" stroke="#000" stroke-linejoin="round" stroke-miterlimit="10" stroke-width="3.98107" transform="matrix(.1 0 0 -.1 0 872.1)"/><path d="m559.464844 278.503906h.425781v-29.242187h-.425781zm0 0"/><use x="535.869" xlink:href="#as" y="307.367"/><use x="541.99206" xlink:href="#ah" y="307.367"/><use x="554.237741" xlink:href="#ar" y="307.367"/><use x="566.483031" xlink:href="#ag" y="307.367"/><use x="548.3835" xlink:href="#W" y="280.4682"/><path d="m1581.054688 5708.148438h54.101562v3.164062h-54.101562zm0 0" fill="none" stroke="#000" stroke-linejoin="round" stroke-miterlimit="10" stroke-width="5.07497" transform="matrix(.1 0 0 -.1 0 872.1)"/><path d="m158.105469 301.285156h5.410156v-.316406h-5.410156zm0 0"/><use x="80.6973" xlink:href="#W" y="271.502"/><use x="73.71097" xlink:href="#aG" y="307.3672"/><use x="87.146905" xlink:href="#ah" y="307.3672"/><path d="m917.8125 6025.609375h4.257812v292.1875h-4.257812zm0 0" fill="none" stroke="#000" stroke-linejoin="round" stroke-miterlimit="10" stroke-width="3.98107" transform="matrix(.1 0 0 -.1 0 872.1)"/><path d="m91.78125 269.539062h.425781v-29.21875h-.425781zm0 0"/><use x="130.35" xlink:href="#W" y="262.536"/><use x="118.7719" xlink:href="#am" y="307.3676"/><use x="130.847683" xlink:href="#an" y="307.3676"/><use x="141.392216" xlink:href="#aH" y="307.3676"/><path d="m1414.335938 6115.296875h4.257812v292.1875h-4.257812zm0 0" fill="none" stroke="#000" stroke-linejoin="round" stroke-miterlimit="10" stroke-width="3.98107" transform="matrix(.1 0 0 -.1 0 872.1)"/><path d="m141.433594 260.570312h.425781v-29.21875h-.425781zm0 0"/><use x="183.56" xlink:href="#W" y="262.536"/><use x="7.173" xlink:href="#Y" y="267.0192"/><use x="38.5554" xlink:href="#Z" y="240.12"/><use x="48.41829" xlink:href="#Z" y="253.5696"/><use x="324.87229" xlink:href="#W" y="280.4688"/><use x="272.17429" xlink:href="#W" y="275.9856"/><path d="m2832.578125 5980.804688h4.257813v247.539062h-4.257813zm0 0" fill="none" stroke="#000" stroke-linejoin="round" stroke-miterlimit="10" stroke-width="3.98107" transform="matrix(.1 0 0 -.1 0 872.1)"/><path d="m283.257812 274.019531h.425782v-24.75h-.425782zm0 0"/><use x="167.984" xlink:href="#ax" y="307.367"/><use x="180.229705" xlink:href="#ak" y="307.367"/><use x="192.47502" xlink:href="#aA" y="307.367"/><use x="324.603476" xlink:href="#aI" y="307.367"/><use x="340.677" xlink:href="#aa" y="280.4682"/><path d="m3359.53125 5935.960938h4.296875v292.1875h-4.296875zm0 0" fill="none" stroke="#000" stroke-linejoin="round" stroke-miterlimit="10" stroke-width="3.98107" transform="matrix(.1 0 0 -.1 0 872.1)"/><path d="m335.953125 278.503906h.429687v-29.21875h-.429687zm0 0"/><path d="m1946.40625 6115.296875h4.296875v292.1875h-4.296875zm0 0" fill="none" stroke="#000" stroke-linejoin="round" stroke-miterlimit="10" stroke-width="3.98107" transform="matrix(.1 0 0 -.1 0 872.1)"/><path d="m194.640625 260.570312h.429687v-29.21875h-.429687zm0 0"/><path d="m2398.125 6025.609375h4.257812v220.703125h-4.257812zm0 0" fill="none" stroke="#000" stroke-linejoin="round" stroke-miterlimit="10" stroke-width="3.98107" transform="matrix(.1 0 0 -.1 0 872.1)"/><path d="m239.8125 269.539062h.425781v-22.070312h-.425781zm0 0"/><use x="228.73" xlink:href="#af" y="307.367"/><use x="241.31594" xlink:href="#ao" y="307.367"/><use x="228.73" xlink:href="#W" y="271.5018"/><g clip-path="url(#s)"><path d="m3.164062 4885.179688h5946.445313" style="fill:none;stroke-width:6.34819;stroke-linecap:round;stroke-linejoin:round;stroke:#000;stroke-miterlimit:10" transform="matrix(.1 0 0 -.1 0 872.1)"/></g><g clip-path="url(#t)"><path d="m3.164062 4974.867188h5946.445313" style="fill:none;stroke-width:6.34819;stroke-linecap:round;stroke-linejoin:round;stroke:#000;stroke-miterlimit:10" transform="matrix(.1 0 0 -.1 0 872.1)"/></g><g clip-path="url(#u)"><path d="m3.164062 5064.515625h5946.445313" style="fill:none;stroke-width:6.34819;stroke-linecap:round;stroke-linejoin:round;stroke:#000;stroke-miterlimit:10" transform="matrix(.1 0 0 -.1 0 872.1)"/></g><g clip-path="url(#v)"><path d="m3.164062 5154.164062h5946.445313" style="fill:none;stroke-width:6.34819;stroke-linecap:round;stroke-linejoin:round;stroke:#000;stroke-miterlimit:10" transform="matrix(.1 0 0 -.1 0 872.1)"/></g><g clip-path="url(#w)"><path d="m3.164062 5243.851562h5946.445313" style="fill:none;stroke-width:6.34819;stroke-linecap:round;stroke-linejoin:round;stroke:#000;stroke-miterlimit:10" transform="matrix(.1 0 0 -.1 0 872.1)"/></g><path d="m4323.828125 4885.179688v358.671874" fill="none" stroke="#000" stroke-linejoin="round" stroke-miterlimit="10" stroke-width="12.0598" transform="matrix(.1 0 0 -.1 0 872.1)"/><g clip-path="url(#x)"><path d="m5946.71875 4885.179688v358.671874" fill="none" stroke="#000" stroke-linejoin="round" stroke-miterlimit="10" stroke-width="12.0598" transform="matrix(.1 0 0 -.1 0 872.1)"/></g><path d="m4514.179688 4866.390625h4.257812v285.78125h-4.257812zm0 0" fill="none" stroke="#000" stroke-linejoin="round" stroke-miterlimit="10" stroke-width="3.98107" transform="matrix(.1 0 0 -.1 0 872.1)"/><path d="m451.414062 385.460938h.429688v-28.578126h-.429688zm0 0"/><use x="456.138" xlink:href="#aa" y="388.065"/><use x="431.1794" xlink:href="#ao" y="414.9642"/><use x="442.234883" xlink:href="#ah" y="414.9642"/><use x="454.480173" xlink:href="#aJ" y="414.9642"/><use x="439.74034" xlink:href="#ab" y="388.065"/><use x="377.24304" xlink:href="#X" y="356.8818"/><path d="m3766.171875 4859.984375h4.257813v292.1875h-4.257813zm0 0" fill="none" stroke="#000" stroke-linejoin="round" stroke-miterlimit="10" stroke-width="3.98107" transform="matrix(.1 0 0 -.1 0 872.1)"/><path d="m376.617188 386.101562h.425781v-29.21875h-.425781zm0 0"/><use x="353.786" xlink:href="#av" y="414.964"/><use x="366.031315" xlink:href="#ak" y="414.964"/><use x="377.936786" xlink:href="#ao" y="414.964"/><use x="365.5348" xlink:href="#W" y="388.0648"/><path d="m1899.179688 4632.171875h54.101562v3.203125h-54.101562zm0 0" fill="none" stroke="#000" stroke-linejoin="round" stroke-miterlimit="10" stroke-width="5.07497" transform="matrix(.1 0 0 -.1 0 872.1)"/><path d="m189.917969 408.882812h5.410156v-.316406h-5.410156zm0 0"/><path d="m2588.125 4632.171875h54.101562v3.203125h-54.101562zm0 0" fill="none" stroke="#000" stroke-linejoin="round" stroke-miterlimit="10" stroke-width="5.07497" transform="matrix(.1 0 0 -.1 0 872.1)"/><path d="m258.8125 408.882812h5.410156v-.316406h-5.410156zm0 0"/><path d="m1648.398438 5192.054688v-39.0625l689.140624 52.96875v39.0625zm0 0" fill="none" stroke="#000" stroke-linejoin="round" stroke-miterlimit="10" stroke-width="3.98107" transform="matrix(.1 0 0 -.1 0 872.1)"/><path d="m164.839844 352.894531v3.90625l68.914062-5.296875v-3.90625zm0 0"/><path d="m4073.828125 4632.171875h54.101563v3.203125h-54.101563zm0 0" fill="none" stroke="#000" stroke-linejoin="round" stroke-miterlimit="10" stroke-width="5.07497" transform="matrix(.1 0 0 -.1 0 872.1)"/><path d="m407.382812 408.882812h5.410157v-.316406h-5.410157zm0 0"/><use x="524.2" xlink:href="#ac" y="365.649"/><use x="7.173" xlink:href="#Y" y="374.61541"/><path d="m917.8125 4859.984375h4.257812v292.1875h-4.257812zm0 0" fill="none" stroke="#000" stroke-linejoin="round" stroke-miterlimit="10" stroke-width="3.98107" transform="matrix(.1 0 0 -.1 0 872.1)"/><path d="m91.78125 386.101562h.425781v-29.21875h-.425781zm0 0"/><use x="62.7406" xlink:href="#av" y="414.964"/><use x="74.985909" xlink:href="#ak" y="414.964"/><use x="87.231217" xlink:href="#am" y="414.964"/><use x="99.306994" xlink:href="#an" y="414.964"/><use x="80.6972" xlink:href="#W" y="388.0648"/><use x="38.5554" xlink:href="#Z" y="347.716"/><use x="48.41829" xlink:href="#Z" y="361.1656"/><path d="m2333.242188 4949.632812h4.296874v273.554688h-4.296874zm0 0" fill="none" stroke="#000" stroke-linejoin="round" stroke-miterlimit="10" stroke-width="3.98107" transform="matrix(.1 0 0 -.1 0 872.1)"/><path d="m233.324219 377.136719h.425781v-27.355469h-.425781zm0 0"/><path d="m2995.703125 4904.828125h4.257813v292.1875h-4.257813zm0 0" fill="none" stroke="#000" stroke-linejoin="round" stroke-miterlimit="10" stroke-width="3.98107" transform="matrix(.1 0 0 -.1 0 872.1)"/><path d="m299.570312 381.617188h.425782v-29.21875h-.425782zm0 0"/><use x="304.291" xlink:href="#aa" y="379.098"/><use x="277.1633" xlink:href="#ai" y="414.9636"/><use x="288.218759" xlink:href="#az" y="414.9636"/><use x="300.464073" xlink:href="#ay" y="414.9636"/><use x="288.4867" xlink:href="#W" y="383.5812"/><use x="210.3242" xlink:href="#av" y="414.9636"/><use x="222.569515" xlink:href="#az" y="414.9636"/><use x="234.81522" xlink:href="#ai" y="414.9636"/><use x="222.2433" xlink:href="#W" y="379.098"/><use x="153.7581" xlink:href="#W" y="388.06441"/><use x="144.30458" xlink:href="#aA" y="414.96361"/><use x="162.673334" xlink:href="#az" y="414.96361"/><path d="m1648.398438 4859.984375h4.257812v310.859375h-4.257812zm0 0" fill="none" stroke="#000" stroke-linejoin="round" stroke-miterlimit="10" stroke-width="3.98107" transform="matrix(.1 0 0 -.1 0 872.1)"/><path d="m164.839844 386.101562h.425781v-31.085937h-.425781zm0 0"/><g clip-path="url(#y)"><path d="m3.164062 3809.203125h5946.445313" style="fill:none;stroke-width:6.34819;stroke-linecap:round;stroke-linejoin:round;stroke:#000;stroke-miterlimit:10" transform="matrix(.1 0 0 -.1 0 872.1)"/></g><g clip-path="url(#z)"><path d="m3.164062 3898.890625h5946.445313" style="fill:none;stroke-width:6.34819;stroke-linecap:round;stroke-linejoin:round;stroke:#000;stroke-miterlimit:10" transform="matrix(.1 0 0 -.1 0 872.1)"/></g><g clip-path="url(#A)"><path d="m3.164062 3988.539062h5946.445313" style="fill:none;stroke-width:6.34819;stroke-linecap:round;stroke-linejoin:round;stroke:#000;stroke-miterlimit:10" transform="matrix(.1 0 0 -.1 0 872.1)"/></g><g clip-path="url(#B)"><path d="m3.164062 4078.226562h5946.445313" style="fill:none;stroke-width:6.34819;stroke-linecap:round;stroke-linejoin:round;stroke:#000;stroke-miterlimit:10" transform="matrix(.1 0 0 -.1 0 872.1)"/></g><g clip-path="url(#C)"><path d="m3.164062 4167.875h5946.445313" style="fill:none;stroke-width:6.34819;stroke-linecap:round;stroke-linejoin:round;stroke:#000;stroke-miterlimit:10" transform="matrix(.1 0 0 -.1 0 872.1)"/></g><g clip-path="url(#D)"><path d="m5946.71875 3809.203125v358.671875" fill="none" stroke="#000" stroke-linejoin="round" stroke-miterlimit="10" stroke-width="12.0598" transform="matrix(.1 0 0 -.1 0 872.1)"/></g><path d="m3666.5625 3809.203125v358.671875" fill="none" stroke="#000" stroke-linejoin="round" stroke-miterlimit="10" stroke-width="12.0598" transform="matrix(.1 0 0 -.1 0 872.1)"/><path d="m4959.882812 3963.34375h4.257813v292.1875h-4.257813zm0 0" fill="none" stroke="#000" stroke-linejoin="round" stroke-miterlimit="10" stroke-width="3.98107" transform="matrix(.1 0 0 -.1 0 872.1)"/><path d="m495.988281 475.765625h.425781v-29.21875h-.425781zm0 0"/><use x="433.372" xlink:href="#W" y="477.729"/><path d="m4444.53125 3963.34375h4.296875v292.1875h-4.296875zm0 0" fill="none" stroke="#000" stroke-linejoin="round" stroke-miterlimit="10" stroke-width="3.98107" transform="matrix(.1 0 0 -.1 0 872.1)"/><path d="m444.453125 475.765625h.425781v-29.21875h-.425781zm0 0"/><use x="445.08" xlink:href="#X" y="446.545"/><use x="484.905" xlink:href="#W" y="477.7282"/><use x="467.1187" xlink:href="#ay" y="523.7591"/><use x="477.662854" xlink:href="#az" y="523.7591"/><use x="489.908535" xlink:href="#aA" y="523.7591"/><use x="508.276911" xlink:href="#ag" y="523.7591"/><use x="500.7093" xlink:href="#aa" y="477.7282"/><use x="374.0853" xlink:href="#W" y="473.245"/><path d="m3742.851562 3691.664062h4.257813v277.265626h-4.257813zm0 0" fill="none" stroke="#000" stroke-linejoin="round" stroke-miterlimit="10" stroke-width="3.98107" transform="matrix(.1 0 0 -.1 0 872.1)"/><path d="m374.285156 502.933594h.425782v-27.726563h-.425782zm0 0"/><use x="389.889" xlink:href="#aa" y="468.762"/><use x="374.0855" xlink:href="#aB" y="523.7593"/><use x="379.017923" xlink:href="#az" y="523.7593"/><use x="391.263238" xlink:href="#aB" y="523.7593"/><path d="m1745.039062 3544.242188h54.101563v3.164062h-54.101563zm0 0" fill="none" stroke="#000" stroke-linejoin="round" stroke-miterlimit="10" stroke-width="5.07497" transform="matrix(.1 0 0 -.1 0 872.1)"/><path d="m174.503906 517.675781h5.410156v-.316406h-5.410156zm0 0"/><path d="m2646.601562 3828.734375v-39.0625l519.609376-18.320313v39.0625zm0 0" fill="none" stroke="#000" stroke-linejoin="round" stroke-miterlimit="10" stroke-width="3.98107" transform="matrix(.1 0 0 -.1 0 872.1)"/><path d="m264.660156 489.226562v3.90625l51.960938 1.832032v-3.90625zm0 0"/><path d="m3803.085938 4095.140625c137.617187 97.65625 495.820312 63.59375 612.578124-58.28125-117.5 114.296875-475.664062 148.359375-612.578124 58.28125zm0 0" style="fill:none;stroke-width:5.0781;stroke-linecap:round;stroke-linejoin:round;stroke:#000;stroke-miterlimit:10" transform="matrix(.1 0 0 -.1 0 872.1)"/><path d="m380.308594 462.585938c13.761718-9.765626 49.582031-6.359376 61.257812 5.828124-11.75-11.429687-47.566406-14.835937-61.257812-5.828124"/><path d="m4289.53125 3544.242188h54.101562v3.164062h-54.101562zm0 0" fill="none" stroke="#000" stroke-linejoin="round" stroke-miterlimit="10" stroke-width="5.07497" transform="matrix(.1 0 0 -.1 0 872.1)"/><path d="m428.949219 517.675781h5.410156v-.316406h-5.410156zm0 0"/><use x="554.245" xlink:href="#X" y="464.478"/><path d="m5536.171875 3784.007812h4.296875v292.226563h-4.296875zm0 0" fill="none" stroke="#000" stroke-linejoin="round" stroke-miterlimit="10" stroke-width="3.98107" transform="matrix(.1 0 0 -.1 0 872.1)"/><path d="m553.617188 493.699219h.429687v-29.222657h-.429687zm0 0"/><use x="528.746" xlink:href="#av" y="523.759"/><use x="540.99129" xlink:href="#aq" y="523.759"/><use x="545.923713" xlink:href="#ai" y="523.759"/><use x="556.979197" xlink:href="#ao" y="523.759"/><use x="542.5362" xlink:href="#W" y="495.661"/><use x="38.5552" xlink:href="#Z" y="455.3122"/><use x="48.41809" xlink:href="#Z" y="468.7618"/><path d="m1409.960938 3766.390625h4.257812v292.1875h-4.257812zm0 0" fill="none" stroke="#000" stroke-linejoin="round" stroke-miterlimit="10" stroke-width="3.98107" transform="matrix(.1 0 0 -.1 0 872.1)"/><path d="m140.992188 495.460938h.429687v-29.21875h-.429687zm0 0"/><use x="123.263" xlink:href="#aK" y="523.759"/><use x="134.488002" xlink:href="#ai" y="523.759"/><use x="145.543864" xlink:href="#aL" y="523.759"/><use x="157.789178" xlink:href="#am" y="523.759"/><path d="m808.984375 3766.390625h4.257813v292.1875h-4.257813zm0 0" fill="none" stroke="#000" stroke-linejoin="round" stroke-miterlimit="10" stroke-width="3.98107" transform="matrix(.1 0 0 -.1 0 872.1)"/><path d="m80.894531 495.460938h.429688v-29.21875h-.429688zm0 0"/><use x="64.1867" xlink:href="#ap" y="523.759"/><use x="82.555057" xlink:href="#aI" y="523.759"/><use x="94.800757" xlink:href="#ae" y="523.759"/><use x="102.794118" xlink:href="#as" y="523.759"/><use x="80.6972" xlink:href="#W" y="464.2785"/><use x="140.794317" xlink:href="#W" y="464.2785"/><use x="7.173" xlink:href="#Y" y="482.2113"/><path d="m3161.953125 3792.992188h4.257813v220.742187h-4.257813zm0 0" fill="none" stroke="#000" stroke-linejoin="round" stroke-miterlimit="10" stroke-width="3.98107" transform="matrix(.1 0 0 -.1 0 872.1)"/><path d="m316.195312 492.800781h.425782v-22.074219h-.425782zm0 0"/><path d="m2646.601562 3811.078125h4.296876v247.5h-4.296876zm0 0" fill="none" stroke="#000" stroke-linejoin="round" stroke-miterlimit="10" stroke-width="3.98107" transform="matrix(.1 0 0 -.1 0 872.1)"/><path d="m264.660156 490.992188h.425782v-24.75h-.425782zm0 0"/><use x="258.836" xlink:href="#az" y="523.759"/><use x="271.081315" xlink:href="#aB" y="523.759"/><use x="275.673112" xlink:href="#ag" y="523.759"/><use x="264.46139" xlink:href="#W" y="464.2785"/><use x="315.99499" xlink:href="#W" y="468.7617"/><use x="309.60358" xlink:href="#aI" y="523.759"/><use x="321.848895" xlink:href="#ar" y="523.759"/><path d="m2081.484375 3766.390625h4.296875v292.1875h-4.296875zm0 0" fill="none" stroke="#000" stroke-linejoin="round" stroke-miterlimit="10" stroke-width="3.98107" transform="matrix(.1 0 0 -.1 0 872.1)"/><path d="m208.148438 495.460938h.429687v-29.21875h-.429687zm0 0"/><use x="184.381" xlink:href="#am" y="523.759"/><use x="196.626315" xlink:href="#az" y="523.759"/><use x="208.87202" xlink:href="#ax" y="523.759"/><use x="221.117335" xlink:href="#ai" y="523.759"/><use x="232.172793" xlink:href="#ao" y="523.759"/><use x="207.9509" xlink:href="#W" y="464.2785"/><g clip-path="url(#E)"><path d="m3.164062 2733.265625h5946.445313" style="fill:none;stroke-width:6.34819;stroke-linecap:round;stroke-linejoin:round;stroke:#000;stroke-miterlimit:10" transform="matrix(.1 0 0 -.1 0 872.1)"/></g><g clip-path="url(#F)"><path d="m3.164062 2822.914062h5946.445313" style="fill:none;stroke-width:6.34819;stroke-linecap:round;stroke-linejoin:round;stroke:#000;stroke-miterlimit:10" transform="matrix(.1 0 0 -.1 0 872.1)"/></g><g clip-path="url(#G)"><path d="m3.164062 2912.5625h5946.445313" style="fill:none;stroke-width:6.34819;stroke-linecap:round;stroke-linejoin:round;stroke:#000;stroke-miterlimit:10" transform="matrix(.1 0 0 -.1 0 872.1)"/></g><g clip-path="url(#H)"><path d="m3.164062 3002.25h5946.445313" style="fill:none;stroke-width:6.34819;stroke-linecap:round;stroke-linejoin:round;stroke:#000;stroke-miterlimit:10" transform="matrix(.1 0 0 -.1 0 872.1)"/></g><g clip-path="url(#I)"><path d="m3.164062 3091.898438h5946.445313" style="fill:none;stroke-width:6.34819;stroke-linecap:round;stroke-linejoin:round;stroke:#000;stroke-miterlimit:10" transform="matrix(.1 0 0 -.1 0 872.1)"/></g><path d="m3898.398438 2733.265625v358.632813" fill="none" stroke="#000" stroke-linejoin="round" stroke-miterlimit="10" stroke-width="12.0598" transform="matrix(.1 0 0 -.1 0 872.1)"/><g clip-path="url(#J)"><path d="m5946.71875 2733.265625v358.632813" fill="none" stroke="#000" stroke-linejoin="round" stroke-miterlimit="10" stroke-width="12.0598" transform="matrix(.1 0 0 -.1 0 872.1)"/></g><use x="463.957" xlink:href="#W" y="589.808"/><use x="454.50387" xlink:href="#aA" y="630.1568"/><use x="472.872246" xlink:href="#af" y="630.1568"/><path d="m4750.390625 2842.5625h4.257813v292.1875h-4.257813zm0 0" fill="none" stroke="#000" stroke-linejoin="round" stroke-miterlimit="10" stroke-width="3.98107" transform="matrix(.1 0 0 -.1 0 872.1)"/><path d="m475.039062 587.84375h.425782v-29.21875h-.425782zm0 0"/><path d="m4079.335938 2842.5625h4.257812v292.1875h-4.257812zm0 0" fill="none" stroke="#000" stroke-linejoin="round" stroke-miterlimit="10" stroke-width="3.98107" transform="matrix(.1 0 0 -.1 0 872.1)"/><path d="m407.933594 587.84375h.425781v-29.21875h-.425781zm0 0"/><use x="412.656" xlink:href="#aa" y="585.325"/><use x="393.522" xlink:href="#as" y="630.157"/><use x="399.645036" xlink:href="#ah" y="630.157"/><use x="396.85208" xlink:href="#W" y="589.8082"/><path d="m1114.140625 2480.257812h54.101563v3.164063h-54.101563zm0 0" fill="none" stroke="#000" stroke-linejoin="round" stroke-miterlimit="10" stroke-width="5.07497" transform="matrix(.1 0 0 -.1 0 872.1)"/><path d="m111.414062 624.074219h5.410157v-.316407h-5.410157zm0 0"/><path d="m2775.15625 2804.476562c117.03125-119.21875 450.820312-137.304687 579.453125-31.367187-128.203125-98.320313-462.03125-80.273437-579.453125 31.367187zm0 0" style="fill:none;stroke-width:5.0781;stroke-linecap:round;stroke-linejoin:round;stroke:#000;stroke-miterlimit:10" transform="matrix(.1 0 0 -.1 0 872.1)"/><path d="m277.515625 591.652344c11.703125 11.921875 45.082031 13.730468 57.945313 3.136718-12.820313 9.832032-46.203126 8.027344-57.945313-3.136718"/><path d="m2829.53125 3201.117188v-39.0625l583.710938-18.359376v39.0625zm0 0" fill="none" stroke="#000" stroke-linejoin="round" stroke-miterlimit="10" stroke-width="3.98107" transform="matrix(.1 0 0 -.1 0 872.1)"/><path d="m282.953125 551.988281v3.90625l58.371094 1.835938v-3.90625zm0 0"/><path d="m4304.921875 2480.257812h54.101563v3.164063h-54.101563zm0 0" fill="none" stroke="#000" stroke-linejoin="round" stroke-miterlimit="10" stroke-width="5.07497" transform="matrix(.1 0 0 -.1 0 872.1)"/><path d="m430.492188 624.074219h5.410156v-.316407h-5.410156zm0 0"/><path d="m4908.710938 2480.257812h54.101562v3.164063h-54.101562zm0 0" fill="none" stroke="#000" stroke-linejoin="round" stroke-miterlimit="10" stroke-width="5.07497" transform="matrix(.1 0 0 -.1 0 872.1)"/><path d="m490.871094 624.074219h5.410156v-.316407h-5.410156zm0 0"/><use x="475.665" xlink:href="#X" y="558.625"/><path d="m5335.78125 2804.125h4.257812v285.78125h-4.257812zm0 0" fill="none" stroke="#000" stroke-linejoin="round" stroke-miterlimit="10" stroke-width="3.98107" transform="matrix(.1 0 0 -.1 0 872.1)"/><path d="m533.578125 591.6875h.425781v-28.578125h-.425781zm0 0"/><use x="502.031" xlink:href="#ai" y="630.157"/><use x="513.086874" xlink:href="#ao" y="630.157"/><use x="523.631028" xlink:href="#ak" y="630.157"/><use x="535.876709" xlink:href="#ax" y="630.157"/><use x="547.952468" xlink:href="#ag" y="630.157"/><use x="521.9025" xlink:href="#ab" y="594.2914"/><use x="7.1735" xlink:href="#Y" y="589.8082"/><path d="m808.984375 2615.6875h4.257813v277.265625h-4.257813zm0 0" fill="none" stroke="#000" stroke-linejoin="round" stroke-miterlimit="10" stroke-width="3.98107" transform="matrix(.1 0 0 -.1 0 872.1)"/><path d="m80.894531 610.53125h.429688v-27.726562h-.429688zm0 0"/><use x="71.8395" xlink:href="#aM" y="630.157"/><use x="84.084809" xlink:href="#af" y="630.157"/><use x="96.330117" xlink:href="#aC" y="630.157"/><use x="80.69731" xlink:href="#W" y="580.8418"/><use x="38.55551" xlink:href="#Z" y="562.909"/><use x="48.4184" xlink:href="#Z" y="576.3586"/><path d="m3408.984375 2887.40625h4.257813v273.984375h-4.257813zm0 0" fill="none" stroke="#000" stroke-linejoin="round" stroke-miterlimit="10" stroke-width="3.98107" transform="matrix(.1 0 0 -.1 0 872.1)"/><path d="m340.898438 583.363281h.425781v-27.398437h-.425781zm0 0"/><use x="329.816" xlink:href="#W" y="585.325"/><path d="m2829.53125 2932.210938h4.257812v247.265624h-4.257812zm0 0" fill="none" stroke="#000" stroke-linejoin="round" stroke-miterlimit="10" stroke-width="3.98107" transform="matrix(.1 0 0 -.1 0 872.1)"/><path d="m282.953125 578.878906h.425781v-24.722656h-.425781zm0 0"/><use x="271.871" xlink:href="#aI" y="630.157"/><use x="284.116315" xlink:href="#ai" y="630.157"/><use x="271.871" xlink:href="#W" y="580.8418"/><use x="144.421873" xlink:href="#W" y="580.8418"/><path d="m2083.4375 2615.6875h4.296875v277.265625h-4.296875zm0 0" fill="none" stroke="#000" stroke-linejoin="round" stroke-miterlimit="10" stroke-width="3.98107" transform="matrix(.1 0 0 -.1 0 872.1)"/><path d="m208.34375 610.53125h.429688v-27.726562h-.429688zm0 0"/><use x="207.878" xlink:href="#aE" y="630.157"/><use x="208.146359" xlink:href="#W" y="580.8418"/><use x="126.975259" xlink:href="#ao" y="630.157"/><use x="138.031121" xlink:href="#ai" y="630.157"/><use x="149.086592" xlink:href="#ak" y="630.157"/><use x="161.331906" xlink:href="#ax" y="630.157"/><path d="m1446.210938 2615.6875h4.257812v277.265625h-4.257812zm0 0" fill="none" stroke="#000" stroke-linejoin="round" stroke-miterlimit="10" stroke-width="3.98107" transform="matrix(.1 0 0 -.1 0 872.1)"/><path d="m144.621094 610.53125h.425781v-27.726562h-.425781zm0 0"/><g clip-path="url(#K)"><path d="m3.164062 1657.289062h5946.445313" style="fill:none;stroke-width:6.34819;stroke-linecap:round;stroke-linejoin:round;stroke:#000;stroke-miterlimit:10" transform="matrix(.1 0 0 -.1 0 872.1)"/></g><g clip-path="url(#L)"><path d="m3.164062 1746.9375h5946.445313" style="fill:none;stroke-width:6.34819;stroke-linecap:round;stroke-linejoin:round;stroke:#000;stroke-miterlimit:10" transform="matrix(.1 0 0 -.1 0 872.1)"/></g><g clip-path="url(#M)"><path d="m3.164062 1836.625h5946.445313" style="fill:none;stroke-width:6.34819;stroke-linecap:round;stroke-linejoin:round;stroke:#000;stroke-miterlimit:10" transform="matrix(.1 0 0 -.1 0 872.1)"/></g><g clip-path="url(#N)"><path d="m3.164062 1926.273438h5946.445313" style="fill:none;stroke-width:6.34819;stroke-linecap:round;stroke-linejoin:round;stroke:#000;stroke-miterlimit:10" transform="matrix(.1 0 0 -.1 0 872.1)"/></g><g clip-path="url(#O)"><path d="m3.164062 2015.960938h5946.445313" style="fill:none;stroke-width:6.34819;stroke-linecap:round;stroke-linejoin:round;stroke:#000;stroke-miterlimit:10" transform="matrix(.1 0 0 -.1 0 872.1)"/></g><path d="m3210 1657.289062v358.671876" fill="none" stroke="#000" stroke-linejoin="round" stroke-miterlimit="10" stroke-width="12.0598" transform="matrix(.1 0 0 -.1 0 872.1)"/><g clip-path="url(#P)"><path d="m5946.71875 1657.289062v358.671876" fill="none" stroke="#000" stroke-linejoin="round" stroke-miterlimit="10" stroke-width="12.0598" transform="matrix(.1 0 0 -.1 0 872.1)"/></g><use x="415.27" xlink:href="#W" y="697.405"/><use x="399.6095" xlink:href="#aA" y="737.7538"/><use x="417.977876" xlink:href="#az" y="737.7538"/><use x="430.393869" xlink:href="#am" y="737.7538"/><path d="m4263.515625 1766.585938h4.257813v228.828124h-4.257813zm0 0" fill="none" stroke="#000" stroke-linejoin="round" stroke-miterlimit="10" stroke-width="3.98107" transform="matrix(.1 0 0 -.1 0 872.1)"/><path d="m426.351562 695.441406h.425782v-22.882812h-.425782zm0 0"/><use x="468.223" xlink:href="#W" y="701.888"/><use x="456.9843" xlink:href="#ai" y="737.7536"/><use x="468.039783" xlink:href="#ao" y="737.7536"/><use x="478.924954" xlink:href="#af" y="737.7536"/><path d="m4793.046875 1721.742188h4.296875v246.523437h-4.296875zm0 0" fill="none" stroke="#000" stroke-linejoin="round" stroke-miterlimit="10" stroke-width="3.98107" transform="matrix(.1 0 0 -.1 0 872.1)"/><path d="m479.304688 699.925781h.425781v-24.652343h-.425781zm0 0"/><use x="511.908" xlink:href="#W" y="706.371"/><use x="505.51698" xlink:href="#aN" y="737.7534"/><use x="517.76227" xlink:href="#af" y="737.7534"/><use x="370.81998" xlink:href="#W" y="706.371"/><use x="368.08404" xlink:href="#aC" y="737.7534"/><use x="373.016463" xlink:href="#af" y="737.7534"/><path d="m3819.023438 1676.9375h4.257812v292.1875h-4.257812zm0 0" fill="none" stroke="#000" stroke-linejoin="round" stroke-miterlimit="10" stroke-width="3.98107" transform="matrix(.1 0 0 -.1 0 872.1)"/><path d="m381.902344 704.40625h.425781v-29.21875h-.425781zm0 0"/><use x="382.528" xlink:href="#X" y="675.188"/><path d="m4956.40625 1404.28125h54.101562v3.164062h-54.101562zm0 0" fill="none" stroke="#000" stroke-linejoin="round" stroke-miterlimit="10" stroke-width="5.07497" transform="matrix(.1 0 0 -.1 0 872.1)"/><path d="m495.640625 731.671875h5.410156v-.316406h-5.410156zm0 0"/><path d="m4263.515625 2017.132812v-39.0625l1387.96875-71.328124v39.0625zm0 0" fill="none" stroke="#000" stroke-linejoin="round" stroke-miterlimit="10" stroke-width="3.98107" transform="matrix(.1 0 0 -.1 0 872.1)"/><path d="m426.351562 670.386719v3.90625l138.796876 7.132812v-3.90625zm0 0"/><path d="m5344.765625 1404.28125h54.101563v3.164062h-54.101563zm0 0" fill="none" stroke="#000" stroke-linejoin="round" stroke-miterlimit="10" stroke-width="5.07497" transform="matrix(.1 0 0 -.1 0 872.1)"/><path d="m534.476562 731.671875h5.410157v-.316406h-5.410157zm0 0"/><path d="m4471.054688 1404.28125h54.101562v3.164062h-54.101562zm0 0" fill="none" stroke="#000" stroke-linejoin="round" stroke-miterlimit="10" stroke-width="5.07497" transform="matrix(.1 0 0 -.1 0 872.1)"/><path d="m447.105469 731.671875h5.410156v-.316406h-5.410156zm0 0"/><path d="m3556.09375 1404.28125h54.101562v3.164062h-54.101562zm0 0" fill="none" stroke="#000" stroke-linejoin="round" stroke-miterlimit="10" stroke-width="5.07497" transform="matrix(.1 0 0 -.1 0 872.1)"/><path d="m355.609375 731.671875h5.410156v-.316406h-5.410156zm0 0"/><path d="m2283.046875 1964.164062v-39.0625l585.664063-18.359374v39.0625zm0 0" fill="none" stroke="#000" stroke-linejoin="round" stroke-miterlimit="10" stroke-width="3.98107" transform="matrix(.1 0 0 -.1 0 872.1)"/><path d="m228.304688 675.683594v3.90625l58.566406 1.835937v-3.90625zm0 0"/><path d="m1917.695312 1404.28125h54.101563v3.164062h-54.101563zm0 0" fill="none" stroke="#000" stroke-linejoin="round" stroke-miterlimit="10" stroke-width="5.07497" transform="matrix(.1 0 0 -.1 0 872.1)"/><path d="m191.765625 731.671875h5.410156v-.316406h-5.410156zm0 0"/><path d="m5647.1875 1632.09375h4.296875v292.421875h-4.296875zm0 0" fill="none" stroke="#000" stroke-linejoin="round" stroke-miterlimit="10" stroke-width="3.98107" transform="matrix(.1 0 0 -.1 0 872.1)"/><path d="m564.71875 708.890625h.425781v-29.242187h-.425781zm0 0"/><use x="544.354" xlink:href="#ax" y="737.754"/><use x="556.59929" xlink:href="#au" y="737.754"/><use x="562.72235" xlink:href="#as" y="737.754"/><use x="568.504785" xlink:href="#ag" y="737.754"/><use x="553.63681" xlink:href="#W" y="710.8548"/><path d="m5229.921875 1676.9375h4.257813v268.945312h-4.257813zm0 0" fill="none" stroke="#000" stroke-linejoin="round" stroke-miterlimit="10" stroke-width="3.98107" transform="matrix(.1 0 0 -.1 0 872.1)"/><path d="m522.992188 704.40625h.425781v-26.894531h-.425781zm0 0"/><use x="80.6973" xlink:href="#W" y="701.888"/><use x="65.0368" xlink:href="#aO" y="737.7536"/><use x="79.834062" xlink:href="#au" y="737.7536"/><use x="85.95711" xlink:href="#ao" y="737.7536"/><use x="97.012575" xlink:href="#ao" y="737.7536"/><path d="m917.8125 1721.742188h4.257812v292.226562h-4.257812zm0 0" fill="none" stroke="#000" stroke-linejoin="round" stroke-miterlimit="10" stroke-width="3.98107" transform="matrix(.1 0 0 -.1 0 872.1)"/><path d="m91.78125 699.925781h.425781v-29.21875h-.425781zm0 0"/><use x="128.379" xlink:href="#W" y="692.921"/><use x="122.41259" xlink:href="#af" y="737.753"/><use x="134.99892" xlink:href="#ao" y="737.753"/><path d="m1394.609375 1811.429688h4.257813v292.1875h-4.257813zm0 0" fill="none" stroke="#000" stroke-linejoin="round" stroke-miterlimit="10" stroke-width="3.98107" transform="matrix(.1 0 0 -.1 0 872.1)"/><path d="m139.460938 690.957031h.425781v-29.21875h-.425781zm0 0"/><use x="169.88" xlink:href="#W" y="692.921"/><use x="7.173" xlink:href="#Y" y="697.4042"/><use x="38.5554" xlink:href="#Z" y="670.505"/><use x="48.41829" xlink:href="#Z" y="683.9546"/><use x="275.36329" xlink:href="#W" y="706.3706"/><use x="258.85239" xlink:href="#aA" y="737.753"/><use x="277.221132" xlink:href="#az" y="737.753"/><use x="289.466446" xlink:href="#ae" y="737.753"/><use x="297.459807" xlink:href="#as" y="737.753"/><path d="m2864.453125 1676.9375h4.257813v247.5h-4.257813zm0 0" fill="none" stroke="#000" stroke-linejoin="round" stroke-miterlimit="10" stroke-width="3.98107" transform="matrix(.1 0 0 -.1 0 872.1)"/><path d="m286.445312 704.40625h.425782v-24.746094h-.425782zm0 0"/><use x="164.169" xlink:href="#aP" y="737.754"/><use x="179.986582" xlink:href="#ae" y="737.754"/><use x="327.382" xlink:href="#W" y="710.8548"/><use x="317.92887" xlink:href="#ay" y="737.754"/><use x="328.984329" xlink:href="#af" y="737.754"/><use x="341.229643" xlink:href="#ae" y="737.754"/><use x="343.18547" xlink:href="#aa" y="710.8548"/><path d="m3384.648438 1632.09375h4.257812v292.1875h-4.257812zm0 0" fill="none" stroke="#000" stroke-linejoin="round" stroke-miterlimit="10" stroke-width="3.98107" transform="matrix(.1 0 0 -.1 0 872.1)"/><path d="m338.464844 708.890625h.425781v-29.21875h-.425781zm0 0"/><path d="m1809.648438 1811.429688h4.257812v292.1875h-4.257812zm0 0" fill="none" stroke="#000" stroke-linejoin="round" stroke-miterlimit="10" stroke-width="3.98107" transform="matrix(.1 0 0 -.1 0 872.1)"/><path d="m180.964844 690.957031h.425781v-29.21875h-.425781zm0 0"/><path d="m2283.046875 1721.742188h4.257813v220.78125h-4.257813zm0 0" fill="none" stroke="#000" stroke-linejoin="round" stroke-miterlimit="10" stroke-width="3.98107" transform="matrix(.1 0 0 -.1 0 872.1)"/><path d="m228.304688 699.925781h.425781v-22.074219h-.425781zm0 0"/><use x="201.646" xlink:href="#aN" y="737.754"/><use x="213.891315" xlink:href="#af" y="737.754"/><use x="226.136629" xlink:href="#ar" y="737.754"/><use x="238.382335" xlink:href="#ag" y="737.754"/><use x="217.2226" xlink:href="#W" y="701.8884"/><g clip-path="url(#Q)"><path d="m3.164062 581.3125h5946.445313" style="fill:none;stroke-width:6.34819;stroke-linecap:round;stroke-linejoin:round;stroke:#000;stroke-miterlimit:10" transform="matrix(.1 0 0 -.1 0 872.1)"/></g><g clip-path="url(#R)"><path d="m3.164062 671h5946.445313" style="fill:none;stroke-width:6.34819;stroke-linecap:round;stroke-linejoin:round;stroke:#000;stroke-miterlimit:10" transform="matrix(.1 0 0 -.1 0 872.1)"/></g><g clip-path="url(#S)"><path d="m3.164062 760.648438h5946.445313" style="fill:none;stroke-width:6.34819;stroke-linecap:round;stroke-linejoin:round;stroke:#000;stroke-miterlimit:10" transform="matrix(.1 0 0 -.1 0 872.1)"/></g><g clip-path="url(#T)"><path d="m3.164062 850.296875h5946.445313" style="fill:none;stroke-width:6.34819;stroke-linecap:round;stroke-linejoin:round;stroke:#000;stroke-miterlimit:10" transform="matrix(.1 0 0 -.1 0 872.1)"/></g><g clip-path="url(#U)"><path d="m3.164062 939.984375h5946.445313" style="fill:none;stroke-width:6.34819;stroke-linecap:round;stroke-linejoin:round;stroke:#000;stroke-miterlimit:10" transform="matrix(.1 0 0 -.1 0 872.1)"/></g><path d="m4713.632812 581.3125v358.671875" fill="none" stroke="#000" stroke-linejoin="round" stroke-miterlimit="10" stroke-width="12.0598" transform="matrix(.1 0 0 -.1 0 872.1)"/><g clip-path="url(#V)"><path d="m5933.710938 581.3125v358.671875" fill="none" stroke="#000" stroke-linejoin="round" stroke-miterlimit="10" stroke-width="38.0892" transform="matrix(.1 0 0 -.1 0 872.1)"/></g><path d="m5889.609375 581.3125v358.671875" fill="none" stroke="#000" stroke-linejoin="round" stroke-miterlimit="10" stroke-width="12.0598" transform="matrix(.1 0 0 -.1 0 872.1)"/><path d="m3224.53125 600.960938h4.257812v292.1875h-4.257812zm0 0" fill="none" stroke="#000" stroke-linejoin="round" stroke-miterlimit="10" stroke-width="3.98107" transform="matrix(.1 0 0 -.1 0 872.1)"/><path d="m322.453125 812.003906h.425781v-29.21875h-.425781zm0 0"/><use x="477.632" xlink:href="#ao" y="845.4395"/><use x="488.176546" xlink:href="#ak" y="845.4395"/><use x="500.421837" xlink:href="#aB" y="845.4395"/><use x="505.013634" xlink:href="#aJ" y="845.4395"/><use x="485.46989" xlink:href="#ad" y="818.4508"/><use x="408.90119" xlink:href="#X" y="787.2676"/><path d="m4082.734375 556.117188h4.296875v292.1875h-4.296875zm0 0" fill="none" stroke="#000" stroke-linejoin="round" stroke-miterlimit="10" stroke-width="3.98107" transform="matrix(.1 0 0 -.1 0 872.1)"/><path d="m408.273438 816.488281h.429687v-29.21875h-.429687zm0 0"/><use x="390.801" xlink:href="#ax" y="845.4395"/><use x="403.046705" xlink:href="#ak" y="845.4395"/><use x="397.19319" xlink:href="#W" y="818.4508"/><path d="m2003.710938 327.40625h54.101562v3.203125h-54.101562zm0 0" fill="none" stroke="#000" stroke-linejoin="round" stroke-miterlimit="10" stroke-width="5.07497" transform="matrix(.1 0 0 -.1 0 872.1)"/><path d="m200.371094 839.359375h5.410156v-.320313h-5.410156zm0 0"/><path d="m3556.015625 327.40625h54.101563v3.203125h-54.101563zm0 0" fill="none" stroke="#000" stroke-linejoin="round" stroke-miterlimit="10" stroke-width="5.07497" transform="matrix(.1 0 0 -.1 0 872.1)"/><path d="m355.601562 839.359375h5.410157v-.320313h-5.410157zm0 0"/><path d="m1730.78125 888.1875v-39.0625l762.34375 52.96875v39.0625zm0 0" fill="none" stroke="#000" stroke-linejoin="round" stroke-miterlimit="10" stroke-width="3.98107" transform="matrix(.1 0 0 -.1 0 872.1)"/><path d="m173.078125 783.28125v3.90625l76.234375-5.296875v-3.90625zm0 0"/><path d="m4437.578125 327.40625h54.101563v3.203125h-54.101563zm0 0" fill="none" stroke="#000" stroke-linejoin="round" stroke-miterlimit="10" stroke-width="5.07497" transform="matrix(.1 0 0 -.1 0 872.1)"/><path d="m443.757812 839.359375h5.410157v-.320313h-5.410157zm0 0"/><use x="7.17305" xlink:href="#Y" y="805.0012"/><use x="327.17505" xlink:href="#aa" y="809.4844"/><path d="m917.8125 556.117188h4.257812v292.1875h-4.257812zm0 0" fill="none" stroke="#000" stroke-linejoin="round" stroke-miterlimit="10" stroke-width="3.98107" transform="matrix(.1 0 0 -.1 0 872.1)"/><path d="m91.78125 816.488281h.425781v-29.21875h-.425781zm0 0"/><use x="62.0609" xlink:href="#ai" y="845.4395"/><use x="73.116365" xlink:href="#aQ" y="845.4395"/><use x="79.239413" xlink:href="#av" y="845.4395"/><use x="91.484721" xlink:href="#ah" y="845.4395"/><use x="103.730036" xlink:href="#aR" y="845.4395"/><use x="80.6972" xlink:href="#W" y="818.4508"/><use x="38.5554" xlink:href="#Z" y="778.102"/><use x="48.41829" xlink:href="#Z" y="791.5516"/><use x="308.63629" xlink:href="#ah" y="845.4395"/><use x="320.881605" xlink:href="#aB" y="845.4395"/><use x="311.37106" xlink:href="#W" y="813.9676"/><path d="m2488.867188 645.804688h4.257812v273.554687h-4.257812zm0 0" fill="none" stroke="#000" stroke-linejoin="round" stroke-miterlimit="10" stroke-width="3.98107" transform="matrix(.1 0 0 -.1 0 872.1)"/><path d="m248.886719 807.519531h.425781v-27.355469h-.425781zm0 0"/><use x="229.713" xlink:href="#at" y="845.4395"/><use x="240.427442" xlink:href="#af" y="845.4395"/><use x="252.673147" xlink:href="#aB" y="845.4395"/><use x="237.8048" xlink:href="#W" y="809.4844"/><path d="m1730.78125 556.117188h4.257812v310.820312h-4.257812zm0 0" fill="none" stroke="#000" stroke-linejoin="round" stroke-miterlimit="10" stroke-width="3.98107" transform="matrix(.1 0 0 -.1 0 872.1)"/><path d="m173.078125 816.488281h.425781v-31.082031h-.425781zm0 0"/><use x="159.262" xlink:href="#aB" y="845.4395"/><use x="164.194423" xlink:href="#ah" y="845.4395"/><use x="161.99677" xlink:href="#W" y="818.4508"/></svg>