<svg height="596.69em" viewBox="0 0 595.28 596.69" width="595.28em" xmlns="http://www.w3.org/2000/svg" xmlns:xlink="http://www.w3.org/1999/xlink"><clipPath id="a"><path d="m0 65h595.28125v2h-595.28125zm0 0"/></clipPath><clipPath id="b"><path d="m0 55h595.28125v2h-595.28125zm0 0"/></clipPath><clipPath id="c"><path d="m0 46h595.28125v1h-595.28125zm0 0"/></clipPath><clipPath id="d"><path d="m0 36h595.28125v2h-595.28125zm0 0"/></clipPath><clipPath id="e"><path d="m0 26h595.28125v2h-595.28125zm0 0"/></clipPath><clipPath id="f"><path d="m594 26h1.28125v41h-1.28125zm0 0"/></clipPath><clipPath id="g"><path d="m0 182h595.28125v1h-595.28125zm0 0"/></clipPath><clipPath id="h"><path d="m0 172h595.28125v2h-595.28125zm0 0"/></clipPath><clipPath id="i"><path d="m0 162h595.28125v2h-595.28125zm0 0"/></clipPath><clipPath id="j"><path d="m0 152h595.28125v2h-595.28125zm0 0"/></clipPath><clipPath id="k"><path d="m0 143h595.28125v1h-595.28125zm0 0"/></clipPath><clipPath id="l"><path d="m594 142h1.28125v42h-1.28125zm0 0"/></clipPath><clipPath id="m"><path d="m0 298h595.28125v2h-595.28125zm0 0"/></clipPath><clipPath id="n"><path d="m0 288h595.28125v2h-595.28125zm0 0"/></clipPath><clipPath id="o"><path d="m0 279h595.28125v1h-595.28125zm0 0"/></clipPath><clipPath id="p"><path d="m0 269h595.28125v2h-595.28125zm0 0"/></clipPath><clipPath id="q"><path d="m0 259h595.28125v2h-595.28125zm0 0"/></clipPath><clipPath id="r"><path d="m594 259h1.28125v5h-1.28125zm0 0"/></clipPath><clipPath id="s"><path d="m594 259h1.28125v4h-1.28125zm0 0"/></clipPath><clipPath id="t"><path d="m594 266h1.28125v7h-1.28125zm0 0"/></clipPath><clipPath id="u"><path d="m594 267h1.28125v6h-1.28125zm0 0"/></clipPath><clipPath id="v"><path d="m594 276h1.28125v7h-1.28125zm0 0"/></clipPath><clipPath id="w"><path d="m594 286h1.28125v7h-1.28125zm0 0"/></clipPath><clipPath id="x"><path d="m594 286h1.28125v6h-1.28125zm0 0"/></clipPath><clipPath id="y"><path d="m594 296h1.28125v4h-1.28125zm0 0"/></clipPath><clipPath id="z"><path d="m0 415h595.28125v1h-595.28125zm0 0"/></clipPath><clipPath id="A"><path d="m0 405h595.28125v2h-595.28125zm0 0"/></clipPath><clipPath id="B"><path d="m0 395h595.28125v2h-595.28125zm0 0"/></clipPath><clipPath id="C"><path d="m0 386h595.28125v1h-595.28125zm0 0"/></clipPath><clipPath id="D"><path d="m0 376h595.28125v2h-595.28125zm0 0"/></clipPath><clipPath id="E"><path d="m594 376h1.28125v41h-1.28125zm0 0"/></clipPath><clipPath id="F"><path d="m0 531h595.28125v2h-595.28125zm0 0"/></clipPath><clipPath id="G"><path d="m0 522h595.28125v1h-595.28125zm0 0"/></clipPath><clipPath id="H"><path d="m0 512h595.28125v2h-595.28125zm0 0"/></clipPath><clipPath id="I"><path d="m0 502h595.28125v2h-595.28125zm0 0"/></clipPath><clipPath id="J"><path d="m0 492h595.28125v2h-595.28125zm0 0"/></clipPath><clipPath id="K"><path d="m591 491h4.28125v44h-4.28125zm0 0"/></clipPath><symbol id="L" overflow="visible"><path d="m1.296875-17.484375v17.484375h1.796875v-1.609375c.953125 1.46875 2.234375 2.15625 3.984375 2.15625 3.3125 0 5.46875-2.703125 5.46875-6.875 0-4.078125-2.046875-6.59375-5.375-6.59375-1.734375 0-2.953125.640625-3.890625 2.0625v-6.625zm5.484375 6.421875c2.234375 0 3.671875 1.953125 3.671875 4.953125 0 2.84375-1.484375 4.796875-3.671875 4.796875-2.125 0-3.5-1.921875-3.5-4.875s1.375-4.875 3.5-4.875zm0 0"/></symbol><symbol id="M" overflow="visible"><path d="m4.25-12.5625h-2v12.5625h2zm-.390625-5.1875-2.296875 3.546875h1.4375l3.578125-3.546875zm0 0"/></symbol><symbol id="N" overflow="visible"><path d="m1.671875-12.5625v12.5625h2.015625v-6.9375c0-2.5625 1.34375-4.234375 3.40625-4.234375 1.59375 0 2.59375.953125 2.59375 2.46875v8.703125h2v-9.5c0-2.078125-1.5625-3.421875-3.984375-3.421875-1.875 0-3.078125.71875-4.171875 2.46875v-2.109375zm0 0"/></symbol><symbol id="O" overflow="visible"><path d="m12.296875-5.609375c0-1.921875-.140625-3.078125-.5-4.015625-.8125-2.0625-2.734375-3.296875-5.078125-3.296875-3.5 0-5.765625 2.65625-5.765625 6.8125 0 4.140625 2.171875 6.65625 5.71875 6.65625 2.875 0 4.859375-1.625 5.375-4.359375h-2.015625c-.5625 1.65625-1.6875 2.515625-3.296875 2.515625-1.265625 0-2.34375-.578125-3.015625-1.625-.484375-.71875-.65625-1.4375-.671875-2.6875zm-9.203125-1.640625c.171875-2.3125 1.578125-3.828125 3.59375-3.828125 2.046875 0 3.453125 1.578125 3.453125 3.828125zm0 0"/></symbol><symbol id="P" overflow="visible"><path d="m11.875-17.484375h-2v6.5c-.828125-1.265625-2.171875-1.9375-3.859375-1.9375-3.25 0-5.390625 2.609375-5.390625 6.609375 0 4.25 2.0625 6.859375 5.46875 6.859375 1.71875 0 2.921875-.640625 4-2.203125v1.65625h1.78125zm-5.515625 6.421875c2.15625 0 3.515625 1.90625 3.515625 4.921875 0 2.90625-1.390625 4.828125-3.5 4.828125-2.203125 0-3.671875-1.953125-3.671875-4.875s1.46875-4.875 3.65625-4.875zm0 0"/></symbol><symbol id="Q" overflow="visible"><path d="m10.625-12.5625h-9.375v1.75h7l-7.5 9.015625v1.796875h10.203125v-1.75h-7.78125l7.453125-9.046875zm0 0"/></symbol><symbol id="R" overflow="visible"><path d="m6.53125-12.921875c-3.5625 0-5.671875 2.515625-5.671875 6.734375 0 4.25 2.109375 6.734375 5.6875 6.734375 3.546875 0 5.6875-2.515625 5.6875-6.640625 0-4.359375-2.0625-6.828125-5.703125-6.828125zm.015625 1.84375c2.25 0 3.59375 1.84375 3.59375 4.96875 0 2.96875-1.390625 4.8125-3.59375 4.8125-2.234375 0-3.59375-1.84375-3.59375-4.890625s1.359375-4.890625 3.59375-4.890625zm0 0"/></symbol><symbol id="S" overflow="visible"><path d="m1.671875-12.5625v12.5625h2.015625v-7.890625c0-1.828125 1.328125-3.28125 2.953125-3.28125 1.484375 0 2.328125.90625 2.328125 2.515625v8.65625h2.015625v-7.890625c0-1.828125 1.3125-3.28125 2.953125-3.28125 1.453125 0 2.328125.9375 2.328125 2.515625v8.65625h2.015625v-9.421875c0-2.265625-1.296875-3.5-3.65625-3.5-1.671875 0-2.6875.5-3.859375 1.90625-.734375-1.34375-1.75-1.90625-3.375-1.90625-1.6875 0-2.8125.625-3.859375 2.125v-1.765625zm0 0"/></symbol><symbol id="T" overflow="visible"><path d="m2.09375-2.5v2.5h1.4375v.4375c0 1.65625-.3125 2.125-1.4375 2.171875v.921875c1.578125.046875 2.515625-1.109375 2.515625-3.140625v-2.890625zm0 0"/></symbol><symbol id="U" overflow="visible"><path d="m4.390625-7.96875h9.515625v-1.953125h-9.515625v-5.59375h9.875v-1.96875h-12.109375v17.484375h12.546875v-1.96875h-10.3125zm4.40625-14.546875-2.328125 3.546875h1.453125l3.5625-3.546875zm0 0"/></symbol><symbol id="V" overflow="visible"><path d="m6.09375-12.5625h-2.0625v-3.453125h-2v3.453125h-1.703125v1.625h1.703125v9.5c0 1.296875.875 1.984375 2.4375 1.984375.515625 0 .953125-.046875 1.625-.15625v-1.6875c-.296875.078125-.546875.09375-.96875.09375-.859375 0-1.09375-.234375-1.09375-1.125v-8.609375h2.0625zm0 0"/></symbol><symbol id="W" overflow="visible"><path d="m4.65625-17.484375h-2.25v17.484375h2.25zm0 0"/></symbol><symbol id="X" overflow="visible"><path d="m10.5-9.0625c-.015625-2.46875-1.65625-3.859375-4.546875-3.859375-2.9375 0-4.828125 1.5-4.828125 3.828125 0 1.96875 1.015625 2.90625 3.984375 3.625l1.875.453125c1.390625.34375 1.9375.84375 1.9375 1.734375 0 1.1875-1.171875 1.984375-2.921875 1.984375-1.078125 0-2-.3125-2.5-.84375-.3125-.359375-.453125-.71875-.578125-1.59375h-2.109375c.09375 2.890625 1.734375 4.28125 5.015625 4.28125 3.171875 0 5.1875-1.546875 5.1875-3.984375 0-1.859375-1.0625-2.890625-3.5625-3.5l-1.90625-.453125c-1.640625-.375-2.328125-.90625-2.328125-1.796875 0-1.171875 1.03125-1.890625 2.65625-1.890625 1.609375 0 2.46875.6875 2.515625 2.015625zm0 0"/></symbol><symbol id="Y" overflow="visible"><path d="m1.65625-12.5625v12.5625h2.015625v-6.53125c.015625-3.015625 1.265625-4.359375 4.03125-4.28125v-2.046875c-.34375-.046875-.53125-.0625-.765625-.0625-1.296875 0-2.28125.765625-3.4375 2.625v-2.265625zm0 0"/></symbol><symbol id="Z" overflow="visible"><path d="m12.828125-1.171875c-.21875.046875-.3125.046875-.421875.046875-.703125 0-1.078125-.359375-1.078125-.984375v-7.390625c0-2.234375-1.640625-3.421875-4.734375-3.421875-1.84375 0-3.3125.515625-4.171875 1.453125-.578125.65625-.8125 1.375-.859375 2.625h2.015625c.15625-1.546875 1.078125-2.234375 2.953125-2.234375 1.8125 0 2.796875.671875 2.796875 1.875v.515625c-.015625.875-.453125 1.1875-2.078125 1.390625-2.84375.359375-3.265625.46875-4.03125.765625-1.46875.625-2.21875 1.734375-2.21875 3.359375 0 2.28125 1.59375 3.71875 4.125 3.71875 1.59375 0 2.859375-.546875 4.28125-1.84375.140625 1.296875.765625 1.84375 2.0625 1.84375.421875 0 .6875-.046875 1.359375-.21875zm-3.5-2.78125c0 .671875-.1875 1.078125-.796875 1.625-.8125.75-1.796875 1.125-2.96875 1.125-1.5625 0-2.46875-.734375-2.46875-2.015625 0-1.3125.859375-1.984375 3.015625-2.296875 2.140625-.28125 2.546875-.390625 3.21875-.703125zm-2.03125-13.796875-2.328125 3.546875h1.4375l3.578125-3.546875zm0 0"/></symbol><symbol id="aa" overflow="visible"><path d="m4.984375-17.484375h-1.984375v8.109375l.53125 5.34375h.9375l.515625-5.34375zm0 14.984375h-2.015625v2.5h2.015625zm0 0"/></symbol><symbol id="ab" overflow="visible"><path d="m14.296875-12.359375c0-1.1875-.078125-1.53125-.453125-2.34375-.96875-2.015625-3-3.0625-5.953125-3.0625-3.84375 0-6.21875 1.953125-6.21875 5.125 0 2.140625 1.140625 3.484375 3.4375 4.078125l4.34375 1.15625c2.234375.578125 3.203125 1.453125 3.203125 2.828125 0 .9375-.5 1.890625-1.234375 2.421875-.703125.5-1.796875.734375-3.21875.734375-1.921875 0-3.1875-.453125-4.03125-1.453125-.640625-.765625-.9375-1.609375-.90625-2.6875h-2.109375c.015625 1.609375.328125 2.65625 1.03125 3.625 1.1875 1.65625 3.203125 2.484375 5.875 2.484375 2.078125 0 3.78125-.46875 4.90625-1.34375 1.1875-.9375 1.921875-2.484375 1.921875-4 0-2.15625-1.34375-3.734375-3.71875-4.390625l-4.390625-1.171875c-2.109375-.578125-2.875-1.25-2.875-2.59375 0-1.765625 1.5625-2.953125 3.90625-2.953125 2.78125 0 4.34375 1.25 4.375 3.546875zm0 0"/></symbol><symbol id="ac" overflow="visible"><path d="m1.671875-17.484375v17.484375h2v-6.9375c0-2.5625 1.34375-4.234375 3.40625-4.234375.671875 0 1.296875.1875 1.765625.546875.578125.4375.828125 1.03125.828125 1.921875v8.703125h1.984375v-9.5c0-2.109375-1.515625-3.421875-3.953125-3.421875-1.78125 0-2.859375.546875-4.03125 2.078125v-6.640625zm0 0"/></symbol><symbol id="ad" overflow="visible"><path d="m12.828125-1.171875c-.21875.046875-.3125.046875-.421875.046875-.703125 0-1.078125-.359375-1.078125-.984375v-7.390625c0-2.234375-1.640625-3.421875-4.734375-3.421875-1.84375 0-3.3125.515625-4.171875 1.453125-.578125.65625-.8125 1.375-.859375 2.625h2.015625c.15625-1.546875 1.078125-2.234375 2.953125-2.234375 1.8125 0 2.796875.671875 2.796875 1.875v.515625c-.015625.875-.453125 1.1875-2.078125 1.390625-2.84375.359375-3.265625.46875-4.03125.765625-1.46875.625-2.21875 1.734375-2.21875 3.359375 0 2.28125 1.59375 3.71875 4.125 3.71875 1.59375 0 2.859375-.546875 4.28125-1.84375.140625 1.296875.765625 1.84375 2.0625 1.84375.421875 0 .6875-.046875 1.359375-.21875zm-3.5-2.78125c0 .671875-.1875 1.078125-.796875 1.625-.8125.75-1.796875 1.125-2.96875 1.125-1.5625 0-2.46875-.734375-2.46875-2.015625 0-1.3125.859375-1.984375 3.015625-2.296875 2.140625-.28125 2.546875-.390625 3.21875-.703125zm0 0"/></symbol><symbol id="ae" overflow="visible"><path d="m9.6875-12.5625v1.8125c-1-1.5-2.109375-2.171875-3.6875-2.171875-3.046875 0-5.15625 2.828125-5.15625 6.859375 0 2.109375.5 3.640625 1.578125 4.90625.9375 1.109375 2.140625 1.703125 3.4375 1.703125 1.5 0 2.578125-.671875 3.640625-2.25v.640625c0 3.359375-.9375 4.609375-3.4375 4.609375-1.703125 0-2.578125-.671875-2.78125-2.109375h-2.03125c.1875 2.328125 2.03125 3.796875 4.765625 3.796875 1.84375 0 3.390625-.609375 4.203125-1.609375.953125-1.171875 1.3125-2.734375 1.3125-5.6875v-10.5zm-3.5 1.484375c2.109375 0 3.3125 1.765625 3.3125 4.96875 0 3.046875-1.21875 4.8125-3.3125 4.8125-2.0625 0-3.265625-1.796875-3.265625-4.890625 0-3.078125 1.203125-4.890625 3.265625-4.890625zm0 0"/></symbol><symbol id="af" overflow="visible"><path d="m9.3125-12.5625-3.484375 9.78125-3.21875-9.78125h-2.125l4.234375 12.609375-.765625 1.984375c-.328125.890625-.765625 1.234375-1.609375 1.234375-.328125 0-.609375-.046875-1.046875-.140625v1.796875c.40625.203125.8125.3125 1.34375.3125.640625 0 1.34375-.21875 1.875-.609375.609375-.453125.984375-.984375 1.359375-1.984375l5.59375-15.203125zm0 0"/></symbol><symbol id="ag" overflow="visible"><path d="m1.671875-12.5625v14.390625c0 1.234375-.375 1.65625-1.625 1.65625-.140625 0-.21875 0-.484375-.03125v1.703125c.25.046875.359375.078125.671875.078125 2.265625 0 3.4375-.890625 3.4375-2.625v-15.171875zm2-4.921875h-2v2.515625h2zm0 0"/></symbol><symbol id="ah" overflow="visible"><path d="m3.59375-12.5625h-1.984375v12.5625h1.984375zm0-4.921875h-2.015625v2.515625h2.015625zm0 0"/></symbol><symbol id="ai" overflow="visible"><path d="m4.15625-17.484375h-2.234375v17.484375h10.859375v-1.96875h-8.625zm0 0"/></symbol><symbol id="aj" overflow="visible"><path d="m3.640625-17.484375h-2.015625v17.484375h2.015625zm0 0"/></symbol><symbol id="ak" overflow="visible"><path d="m3.375-17.484375h-1.984375v17.484375h1.984375v-4.890625l1.953125-1.921875 4.234375 6.8125h2.484375l-5.140625-8.234375 4.359375-4.328125h-2.5625l-5.328125 5.3125zm0 0"/></symbol><symbol id="al" overflow="visible"><path d="m5.125-2.5h-2.484375v2.5h2.484375zm0-10.0625h-2.484375v2.484375h2.484375zm0 0"/></symbol><symbol id="am" overflow="visible"><path d="m4.578125-2.5h-2.484375v2.5h2.484375zm0 0"/></symbol><symbol id="an" overflow="visible"><path d="m9.40625 0 6.0625-17.484375h-2.375l-4.84375 14.796875-5.125-14.796875h-2.40625l6.28125 17.484375zm0 0"/></symbol><symbol id="ao" overflow="visible"><path d="m8.625-5.25c-1.625 0-3.1875.546875-4.578125 1.40625-1.828125 1.078125-4.046875 2.984375-4.046875 5.75 0 2.296875 2.015625 3.34375 4.078125 3.34375 1.640625 0 3.1875-.546875 4.59375-1.40625 1.8125-1.078125 4-2.984375 4-5.75 0-2.296875-1.984375-3.34375-4.046875-3.34375zm0 0"/></symbol><symbol id="ap" overflow="visible"><path d="m8.359375 12.28125v-6.328125l1.90625-.671875c.21875-.078125.421875-.3125.421875-.578125v-2.53125c0-.421875-.421875-.734375-.8125-.578125l-1.515625.546875v-6.375l1.90625-.703125c.21875-.078125.421875-.3125.421875-.578125v-2.484375c0-.4375-.421875-.75-.8125-.59375l-1.515625.515625v-5.828125c0-.359375-.3125-.671875-.671875-.671875-.34375 0-.65625.3125-.65625.671875v6.296875l-3.375 1.203125v-5.875c0-.34375-.3125-.65625-.671875-.65625-.34375 0-.65625.3125-.65625.65625v6.328125l-1.90625.671875c-.234375.078125-.421875.3125-.421875.578125v2.53125c0 .421875.421875.734375.8125.578125l1.515625-.546875v6.375l-1.90625.703125c-.234375.078125-.421875.3125-.421875.578125v2.484375c0 .4375.421875.75.8125.59375l1.515625-.515625v5.828125c0 .359375.3125.671875.65625.671875.359375 0 .671875-.3125.671875-.671875v-6.296875l3.375-1.203125v5.875c0 .34375.3125.65625.65625.65625.359375 0 .671875-.3125.671875-.65625zm-4.703125-14.890625 3.375-1.15625v6.375l-3.375 1.15625zm0 0"/></symbol><symbol id="aq" overflow="visible"><path d="m14.53125-10.109375c-.625-2.71875-1.359375-5.390625-2.140625-8.078125 3.734375-4.234375 7.109375-8.59375 7.109375-14.1875 0-4.390625-2.40625-10.6875-5.125-13.953125-.1875-.140625-.421875-.140625-.625 0-3.6875 2.6875-5.828125 6.96875-5.828125 11.46875 0 2.015625.046875 4 .28125 5.984375.265625 2.53125.921875 4.96875 1.625 7.421875-4.578125 5.203125-9.75 10.1875-9.75 17.09375 0 7.8125 5.640625 14.46875 12.9375 14.46875 1.203125 0 2.328125-.125 3.453125-.3125.125 1.234375.203125 2.484375.203125 3.71875 0 .703125-.046875 1.375-.078125 2.0625-.234375 3.84375-2.609375 7.390625-6.21875 7.46875-.03125 0-.078125.03125-.109375.03125-1.984375 0-3.703125-1.125-4.703125-2.71875.421875.203125.890625.359375 1.359375.359375 2.015625 0 3.6875-1.671875 3.6875-3.703125 0-2.171875-1.59375-4.03125-3.6875-4.03125-2.296875 0-4.359375 1.78125-4.359375 4.03125 0 4.203125 3.390625 7.578125 7.578125 7.578125 4.59375 0 7.734375-4.109375 8-8.78125.046875-.734375.046875-1.4375.046875-2.171875 0-1.40625-.078125-2.796875-.203125-4.203125 1.015625-.3125 1.984375-.765625 2.84375-1.4375 2.875-2.125 4.15625-5.125 4.15625-8.078125 0-5.125-3.890625-10.0625-9.875-10.0625-.1875 0-.375.03125-.578125.03125zm3.3125 18.078125c-.546875-4.828125-1.4375-9.40625-2.421875-13.953125 4.28125.34375 6.96875 3.921875 6.96875 7.5 0 2.71875-1.875 5.515625-4.546875 6.453125zm-15.078125-9.171875c0-6.21875 4.1875-10.921875 8.390625-15.625.625 2.296875 1.234375 4.59375 1.78125 6.921875-3.921875.890625-6.140625 4.1875-6.140625 7.609375 0 2.71875 1.40625 5.484375 4.515625 7.15625.109375.03125.234375.078125.34375.078125.421875 0 .78125-.390625.78125-.8125 0-.203125-.125-.390625-.28125-.546875-2.171875-1.25-3.1875-3.109375-3.1875-4.828125 0-2.28125 1.796875-4.34375 4.859375-4.703125 1.015625 4.671875 1.90625 9.296875 2.5 14.265625-1.0625.15625-2.109375.234375-3.1875.234375-5.296875 0-10.375-4.46875-10.375-9.75zm13.203125-39.59375c.65625 2.046875.8125 3.0625.8125 5.3125 0 4.9375-2.59375 8.859375-5.78125 12.640625-.703125-2.453125-1.28125-4.828125-1.28125-7.78125 0-4.3125 2.40625-8.234375 6.25-10.171875zm0 0"/></symbol><symbol id="ar" overflow="visible"><path d="m-2.453125-1.828125c0 1.359375 1.09375 2.453125 2.453125 2.453125s2.453125-1.09375 2.453125-2.453125-1.09375-2.453125-2.453125-2.453125-2.453125 1.09375-2.453125 2.453125zm2.453125-12.15625c-6.015625 0-12.78125 6.71875-12.78125 14.0625 0 .3125.3125.546875.625.546875.265625 0 .578125-.203125.65625-.625 1.015625-5.796875 5.703125-10.296875 11.5-10.296875s10.484375 4.5 11.5 10.296875c.078125.421875.390625.625.65625.625.3125 0 .625-.234375.625-.546875 0-7.34375-6.71875-14.0625-12.78125-14.0625zm0 0"/></symbol><symbol id="as" overflow="visible"><path d="m5.09375-10.453125v10.453125h2.984375v-15.15625h-1.984375c-.46875 1.796875-2.03125 2.71875-4.640625 2.71875v1.984375zm0 0"/></symbol><symbol id="at" overflow="visible"><path d="m4.578125-3.125h-3.203125v3.125h3.203125zm0 0"/></symbol><path d="m743.828125 5211.275h173.945313" fill="none" stroke="#000" stroke-linecap="round" stroke-miterlimit="10" stroke-width="16.3188" transform="matrix(.1 0 0 -.1 0 596.69)"/><g clip-path="url(#a)"><path d="m3.28125 5308.423438h5946.171875" fill="none" stroke="#000" stroke-linecap="round" stroke-miterlimit="10" stroke-width="6.60523" transform="matrix(.1 0 0 -.1 0 596.69)"/></g><g clip-path="url(#b)"><path d="m3.28125 5405.532813h5946.171875" fill="none" stroke="#000" stroke-linecap="round" stroke-miterlimit="10" stroke-width="6.60523" transform="matrix(.1 0 0 -.1 0 596.69)"/></g><g clip-path="url(#c)"><path d="m3.28125 5502.68125h5946.171875" fill="none" stroke="#000" stroke-linecap="round" stroke-miterlimit="10" stroke-width="6.60523" transform="matrix(.1 0 0 -.1 0 596.69)"/></g><g clip-path="url(#d)"><path d="m3.28125 5599.829688h5946.171875" fill="none" stroke="#000" stroke-linecap="round" stroke-miterlimit="10" stroke-width="6.60523" transform="matrix(.1 0 0 -.1 0 596.69)"/></g><g clip-path="url(#e)"><path d="m3.28125 5696.978125h5946.171875" fill="none" stroke="#000" stroke-linecap="round" stroke-miterlimit="10" stroke-width="6.60523" transform="matrix(.1 0 0 -.1 0 596.69)"/></g><g clip-path="url(#f)"><path d="m5946.484375 5308.423438v388.554687" fill="none" stroke="#000" stroke-miterlimit="10" stroke-width="12.5499" transform="matrix(.1 0 0 -.1 0 596.69)"/></g><path d="m4662.695312 5378.071875h4.609376v316.875h-4.609376zm0 0" fill="none" stroke="#000" stroke-linejoin="round" stroke-miterlimit="10" stroke-width="3.98257" transform="matrix(.1 0 0 -.1 0 596.69)"/><path d="m466.269531 58.882812h.460938v-31.6875h-.460938zm0 0"/><use x="450.638" xlink:href="#L" y="113.036"/><use x="463.903986" xlink:href="#M" y="113.036"/><use x="454.24581" xlink:href="#ao" y="60.9915"/><path d="m4037.578125 5426.665625h4.570313v268.164063h-4.570313zm0 0" fill="none" stroke="#000" stroke-linejoin="round" stroke-miterlimit="10" stroke-width="3.98257" transform="matrix(.1 0 0 -.1 0 596.69)"/><path d="m403.757812 54.023438h.457032v-26.816407h-.457032zm0 0"/><use x="378.175" xlink:href="#N" y="113.036"/><use x="391.441011" xlink:href="#O" y="113.036"/><use x="404.706631" xlink:href="#P" y="113.036"/><use x="391.7324" xlink:href="#ao" y="56.1348"/><use x="503.6474" xlink:href="#Q" y="113.036"/><use x="515.212232" xlink:href="#R" y="113.036"/><use x="528.478218" xlink:href="#S" y="113.036"/><use x="548.37743" xlink:href="#T" y="113.036"/><path d="m3412.421875 5378.071875h4.609375v297.03125h-4.609375zm0 0" fill="none" stroke="#000" stroke-linejoin="round" stroke-miterlimit="10" stroke-width="3.98257" transform="matrix(.1 0 0 -.1 0 596.69)"/><path d="m341.242188 58.882812h.460937v-29.699218h-.460937zm0 0"/><use x="315.661" xlink:href="#L" y="113.036"/><use x="328.927011" xlink:href="#O" y="113.036"/><use x="342.192631" xlink:href="#N" y="113.036"/><use x="329.2184" xlink:href="#ao" y="60.9915"/><path d="m887.617188 5578.501563h1904.296874v42.65625h-1904.296874zm0 0" fill="none" stroke="#000" stroke-linejoin="round" stroke-miterlimit="10" stroke-width="3.98257" transform="matrix(.1 0 0 -.1 0 596.69)"/><path d="m88.761719 38.839844h190.429687v-4.265625h-190.429687zm0 0"/><path d="m1761.210938 4902.329688h58.828124v3.28125h-58.828124zm0 0" fill="none" stroke="#000" stroke-linejoin="round" stroke-miterlimit="10" stroke-width="5.28418" transform="matrix(.1 0 0 -.1 0 596.69)"/><path d="m176.121094 106.457031h5.882812v-.328125h-5.882812zm0 0"/><path d="m2304.726562 4902.329688h58.828126v3.28125h-58.828126zm0 0" fill="none" stroke="#000" stroke-linejoin="round" stroke-miterlimit="10" stroke-width="5.28418" transform="matrix(.1 0 0 -.1 0 596.69)"/><path d="m230.472656 106.457031h5.882813v-.328125h-5.882813zm0 0"/><path d="m3412.421875 5698.267188v-42.65625l629.765625 20.039062v42.65625zm0 0" fill="none" stroke="#000" stroke-linejoin="round" stroke-miterlimit="10" stroke-width="3.98257" transform="matrix(.1 0 0 -.1 0 596.69)"/><path d="m341.242188 26.863281v4.265625l62.976562-2.003906v-4.265625zm0 0"/><path d="m3638.75 4902.329688h58.828125v3.28125h-58.828125zm0 0" fill="none" stroke="#000" stroke-linejoin="round" stroke-miterlimit="10" stroke-width="5.28418" transform="matrix(.1 0 0 -.1 0 596.69)"/><path d="m363.875 106.457031h5.882812v-.328125h-5.882812zm0 0"/><path d="m4841.523438 4902.329688h58.828124v3.28125h-58.828124zm0 0" fill="none" stroke="#000" stroke-linejoin="round" stroke-miterlimit="10" stroke-width="5.28418" transform="matrix(.1 0 0 -.1 0 596.69)"/><path d="m484.148438 106.457031h5.882812v-.328125h-5.882812zm0 0"/><path d="m5350.117188 5378.071875h4.609374v316.875h-4.609374zm0 0" fill="none" stroke="#000" stroke-linejoin="round" stroke-miterlimit="10" stroke-width="3.98257" transform="matrix(.1 0 0 -.1 0 596.69)"/><path d="m535.011719 58.882812h.460937v-31.6875h-.460937zm0 0"/><path d="m2787.304688 5329.517188h4.609374v268.320312h-4.609374zm0 0" fill="none" stroke="#000" stroke-linejoin="round" stroke-miterlimit="10" stroke-width="3.98257" transform="matrix(.1 0 0 -.1 0 596.69)"/><path d="m278.730469 63.738281h.460937v-26.832031h-.460937zm0 0"/><use x="522.987" xlink:href="#ao" y="60.991"/><use x="41.769" xlink:href="#ap" y="26.9933"/><use x="246.515" xlink:href="#N" y="113.0355"/><use x="259.781011" xlink:href="#O" y="113.0355"/><use x="273.046631" xlink:href="#S" y="113.0355"/><use x="292.946209" xlink:href="#T" y="113.0355"/><path d="m887.617188 5183.814063h4.609374v414.023437h-4.609374zm0 0" fill="none" stroke="#000" stroke-linejoin="round" stroke-miterlimit="10" stroke-width="3.98257" transform="matrix(.1 0 0 -.1 0 596.69)"/><path d="m88.761719 78.308594h.460937v-41.402344h-.460937zm0 0"/><use x="40.8805" xlink:href="#as" y="113.036"/><use x="52.786376" xlink:href="#at" y="113.036"/><use x="68.4524" xlink:href="#U" y="113.036"/><use x="84.440269" xlink:href="#N" y="113.036"/><use x="7.7708" xlink:href="#aq" y="56.1348"/><use x="76.7372" xlink:href="#ao" y="80.4188"/><use x="266.7052" xlink:href="#ao" y="65.8481"/><use x="190.1072" xlink:href="#ap" y="70.70513"/><path d="m2162.148438 5280.9625h4.609374v316.875h-4.609374zm0 0" fill="none" stroke="#000" stroke-linejoin="round" stroke-miterlimit="10" stroke-width="3.98257" transform="matrix(.1 0 0 -.1 0 596.69)"/><path d="m216.214844 68.59375h.460937v-31.6875h-.460937zm0 0"/><use x="200.754" xlink:href="#V" y="113.036"/><use x="207.046563" xlink:href="#O" y="113.036"/><use x="204.1915" xlink:href="#ao" y="70.7051"/><use x="138.6669" xlink:href="#W" y="113.036"/><use x="145.300101" xlink:href="#X" y="113.036"/><use x="141.67901" xlink:href="#ao" y="65.8481"/><path d="m1537.03125 5329.517188h4.609375v268.320312h-4.609375zm0 0" fill="none" stroke="#000" stroke-linejoin="round" stroke-miterlimit="10" stroke-width="3.98257" transform="matrix(.1 0 0 -.1 0 596.69)"/><path d="m153.703125 63.738281h.460937v-26.832031h-.460937zm0 0"/><g clip-path="url(#g)"><path d="m3.28125 4142.798438h5946.171875" style="fill:none;stroke-width:6.60523;stroke-linecap:round;stroke-linejoin:round;stroke:#000;stroke-miterlimit:10" transform="matrix(.1 0 0 -.1 0 596.69)"/></g><g clip-path="url(#h)"><path d="m3.28125 4239.946875h5946.171875" style="fill:none;stroke-width:6.60523;stroke-linecap:round;stroke-linejoin:round;stroke:#000;stroke-miterlimit:10" transform="matrix(.1 0 0 -.1 0 596.69)"/></g><g clip-path="url(#i)"><path d="m3.28125 4337.05625h5946.171875" style="fill:none;stroke-width:6.60523;stroke-linecap:round;stroke-linejoin:round;stroke:#000;stroke-miterlimit:10" transform="matrix(.1 0 0 -.1 0 596.69)"/></g><g clip-path="url(#j)"><path d="m3.28125 4434.204688h5946.171875" style="fill:none;stroke-width:6.60523;stroke-linecap:round;stroke-linejoin:round;stroke:#000;stroke-miterlimit:10" transform="matrix(.1 0 0 -.1 0 596.69)"/></g><g clip-path="url(#k)"><path d="m3.28125 4531.353125h5946.171875" style="fill:none;stroke-width:6.60523;stroke-linecap:round;stroke-linejoin:round;stroke:#000;stroke-miterlimit:10" transform="matrix(.1 0 0 -.1 0 596.69)"/></g><path d="m5210.820312 4045.65h173.945313" style="fill:none;stroke-width:16.3188;stroke-linecap:round;stroke-linejoin:round;stroke:#000;stroke-miterlimit:10" transform="matrix(.1 0 0 -.1 0 596.69)"/><path d="m4518.867188 4045.65h173.90625" style="fill:none;stroke-width:16.3188;stroke-linecap:round;stroke-linejoin:round;stroke:#000;stroke-miterlimit:10" transform="matrix(.1 0 0 -.1 0 596.69)"/><g clip-path="url(#l)"><path d="m5946.484375 4142.798438v388.515625" fill="none" stroke="#000" stroke-linejoin="round" stroke-miterlimit="10" stroke-width="12.5499" transform="matrix(.1 0 0 -.1 0 596.69)"/></g><path d="m4662.65625 4066.74375h4.609375v316.875h-4.609375zm0 0" fill="none" stroke="#000" stroke-linejoin="round" stroke-miterlimit="10" stroke-width="3.98257" transform="matrix(.1 0 0 -.1 0 596.69)"/><path d="m466.265625 190.015625h.460937v-31.6875h-.460937zm0 0"/><use x="443.404" xlink:href="#Y" y="220.002"/><use x="451.227442" xlink:href="#R" y="220.002"/><use x="464.493038" xlink:href="#P" y="220.002"/><use x="454.2403" xlink:href="#ao" y="192.1239"/><path d="m4033.476562 4115.3375h4.609376v296.992188h-4.609376zm0 0" fill="none" stroke="#000" stroke-linejoin="round" stroke-miterlimit="10" stroke-width="3.98257" transform="matrix(.1 0 0 -.1 0 596.69)"/><path d="m403.347656 185.15625h.460938v-29.699219h-.460938zm0 0"/><use x="387.801" xlink:href="#V" y="220.002"/><use x="394.264658" xlink:href="#R" y="220.002"/><use x="391.32327" xlink:href="#ao" y="187.2672"/><path d="m3404.296875 4163.892188h4.609375v268.164062h-4.609375zm0 0" fill="none" stroke="#000" stroke-linejoin="round" stroke-miterlimit="10" stroke-width="3.98257" transform="matrix(.1 0 0 -.1 0 596.69)"/><path d="m340.429688 180.300781h.460937v-26.816406h-.460937zm0 0"/><use x="318.165" xlink:href="#V" y="220.002"/><use x="324.798188" xlink:href="#Z" y="220.002"/><use x="338.064199" xlink:href="#N" y="220.002"/><use x="328.406" xlink:href="#ao" y="182.4106"/><path d="m887.617188 4572.642188v-42.617188l1892.109374-97.148437v42.65625zm0 0" fill="none" stroke="#000" stroke-linejoin="round" stroke-miterlimit="10" stroke-width="3.98257" transform="matrix(.1 0 0 -.1 0 596.69)"/><path d="m88.761719 139.425781v4.261719l189.210937 9.714844v-4.265625zm0 0"/><path d="m1076.835938 3832.642188h58.828124v3.320312h-58.828124zm0 0" fill="none" stroke="#000" stroke-linejoin="round" stroke-miterlimit="10" stroke-width="5.28418" transform="matrix(.1 0 0 -.1 0 596.69)"/><path d="m107.683594 213.425781h5.882812v-.332031h-5.882812zm0 0"/><path d="m3404.296875 4455.532813v-42.65625l633.789063-20v42.617187zm0 0" fill="none" stroke="#000" stroke-linejoin="round" stroke-miterlimit="10" stroke-width="3.98257" transform="matrix(.1 0 0 -.1 0 596.69)"/><path d="m340.429688 151.136719v4.265625l63.378906 2v-4.261719zm0 0"/><path d="m3666.25 3832.642188h58.828125v3.320312h-58.828125zm0 0" fill="none" stroke="#000" stroke-linejoin="round" stroke-miterlimit="10" stroke-width="5.28418" transform="matrix(.1 0 0 -.1 0 596.69)"/><path d="m366.625 213.425781h5.882812v-.332031h-5.882812zm0 0"/><path d="m4225.273438 3832.642188h58.828124v3.320312h-58.828124zm0 0" fill="none" stroke="#000" stroke-linejoin="round" stroke-miterlimit="10" stroke-width="5.28418" transform="matrix(.1 0 0 -.1 0 596.69)"/><path d="m422.527344 213.425781h5.882812v-.332031h-5.882812zm0 0"/><path d="m4875.625 3832.642188h58.828125v3.320312h-58.828125zm0 0" fill="none" stroke="#000" stroke-linejoin="round" stroke-miterlimit="10" stroke-width="5.28418" transform="matrix(.1 0 0 -.1 0 596.69)"/><path d="m487.5625 213.425781h5.882812v-.332031h-5.882812zm0 0"/><use x="523.438" xlink:href="#ao" y="196.981"/><path d="m5354.609375 4018.189063h4.609375v316.875h-4.609375zm0 0" fill="none" stroke="#000" stroke-linejoin="round" stroke-miterlimit="10" stroke-width="3.98257" transform="matrix(.1 0 0 -.1 0 596.69)"/><path d="m535.460938 194.871094h.460937v-31.6875h-.460937zm0 0"/><use x="503.247" xlink:href="#N" y="220.002"/><use x="516.512596" xlink:href="#R" y="220.002"/><use x="529.778582" xlink:href="#S" y="220.002"/><use x="549.677793" xlink:href="#aa" y="220.002"/><use x="7.771" xlink:href="#aq" y="172.6969"/><path d="m887.617188 4309.595313h4.609374v239.53125h-4.609374zm0 0" fill="none" stroke="#000" stroke-linejoin="round" stroke-miterlimit="10" stroke-width="3.98257" transform="matrix(.1 0 0 -.1 0 596.69)"/><path d="m88.761719 165.730469h.460937v-23.953125h-.460937zm0 0"/><use x="68.4523" xlink:href="#ab" y="220.002"/><use x="84.440169" xlink:href="#O" y="220.002"/><use x="76.73707" xlink:href="#ao" y="167.8399"/><use x="41.76827" xlink:href="#ap" y="143.5559"/><path d="m2775.15625 4163.892188h4.570312v288.554687h-4.570312zm0 0" fill="none" stroke="#000" stroke-linejoin="round" stroke-miterlimit="10" stroke-width="3.98257" transform="matrix(.1 0 0 -.1 0 596.69)"/><path d="m277.515625 180.300781h.457031v-28.855469h-.457031zm0 0"/><use x="243.513" xlink:href="#ac" y="220.002"/><use x="256.779011" xlink:href="#ad" y="220.002"/><use x="269.874709" xlink:href="#ae" y="220.002"/><use x="282.970407" xlink:href="#af" y="220.002"/><use x="294.876255" xlink:href="#ag" y="220.002"/><use x="265.4892" xlink:href="#ao" y="182.4106"/><path d="m2145.976562 4212.446875h4.570313v272.226563h-4.570313zm0 0" fill="none" stroke="#000" stroke-linejoin="round" stroke-miterlimit="10" stroke-width="3.98257" transform="matrix(.1 0 0 -.1 0 596.69)"/><path d="m214.597656 175.445312h.457032v-27.21875h-.457032zm0 0"/><use x="195.648" xlink:href="#N" y="220.002"/><use x="208.91362" xlink:href="#O" y="220.002"/><use x="202.57183" xlink:href="#ao" y="177.5536"/><use x="139.65503" xlink:href="#ao" y="172.69696"/><use x="123.54603" xlink:href="#ae" y="220.00206"/><use x="136.811638" xlink:href="#M" y="220.00206"/><use x="143.445229" xlink:href="#V" y="220.00206"/><use x="150.07843" xlink:href="#X" y="220.00206"/><use x="161.813575" xlink:href="#T" y="220.00206"/><path d="m1516.796875 4261.001563h4.609375v255.898437h-4.609375zm0 0" fill="none" stroke="#000" stroke-linejoin="round" stroke-miterlimit="10" stroke-width="3.98257" transform="matrix(.1 0 0 -.1 0 596.69)"/><path d="m151.679688 170.589844h.460937v-25.589844h-.460937zm0 0"/><g clip-path="url(#m)"><path d="m3.28125 2977.173438h5946.171875" style="fill:none;stroke-width:6.60523;stroke-linecap:round;stroke-linejoin:round;stroke:#000;stroke-miterlimit:10" transform="matrix(.1 0 0 -.1 0 596.69)"/></g><g clip-path="url(#n)"><path d="m3.28125 3074.282813h5946.171875" style="fill:none;stroke-width:6.60523;stroke-linecap:round;stroke-linejoin:round;stroke:#000;stroke-miterlimit:10" transform="matrix(.1 0 0 -.1 0 596.69)"/></g><g clip-path="url(#o)"><path d="m3.28125 3171.43125h5946.171875" style="fill:none;stroke-width:6.60523;stroke-linecap:round;stroke-linejoin:round;stroke:#000;stroke-miterlimit:10" transform="matrix(.1 0 0 -.1 0 596.69)"/></g><g clip-path="url(#p)"><path d="m3.28125 3268.579688h5946.171875" style="fill:none;stroke-width:6.60523;stroke-linecap:round;stroke-linejoin:round;stroke:#000;stroke-miterlimit:10" transform="matrix(.1 0 0 -.1 0 596.69)"/></g><g clip-path="url(#q)"><path d="m3.28125 3365.689063h5946.171875" style="fill:none;stroke-width:6.60523;stroke-linecap:round;stroke-linejoin:round;stroke:#000;stroke-miterlimit:10" transform="matrix(.1 0 0 -.1 0 596.69)"/></g><g clip-path="url(#r)"><path d="m5942.1875 3338.540625h8.554688v28.476563h-8.554688zm0 0" style="fill:none;stroke-width:3.98257;stroke-linecap:round;stroke-linejoin:round;stroke:#000;stroke-miterlimit:10" transform="matrix(.1 0 0 -.1 0 596.69)"/></g><g clip-path="url(#s)"><path d="m594.21875 262.835938h.855469v-2.847657h-.855469zm0 0"/></g><g clip-path="url(#t)"><path d="m5942.1875 3241.43125h8.554688v54.296875h-8.554688zm0 0" style="fill:none;stroke-width:3.98257;stroke-linecap:round;stroke-linejoin:round;stroke:#000;stroke-miterlimit:10" transform="matrix(.1 0 0 -.1 0 596.69)"/></g><g clip-path="url(#u)"><path d="m594.21875 272.546875h.855469v-5.429687h-.855469zm0 0"/></g><g clip-path="url(#v)"><path d="m5942.1875 3144.282813h8.554688v54.296875h-8.554688zm0 0" style="fill:none;stroke-width:3.98257;stroke-linecap:round;stroke-linejoin:round;stroke:#000;stroke-miterlimit:10" transform="matrix(.1 0 0 -.1 0 596.69)"/><path d="m594.21875 282.261719h.855469v-5.429688h-.855469zm0 0"/></g><g clip-path="url(#w)"><path d="m5942.1875 3047.134375h8.554688v54.296875h-8.554688zm0 0" style="fill:none;stroke-width:3.98257;stroke-linecap:round;stroke-linejoin:round;stroke:#000;stroke-miterlimit:10" transform="matrix(.1 0 0 -.1 0 596.69)"/></g><g clip-path="url(#x)"><path d="m594.21875 291.976562h.855469v-5.429687h-.855469zm0 0"/></g><g clip-path="url(#y)"><path d="m5942.1875 2975.845313h8.554688v28.476562h-8.554688zm0 0" style="fill:none;stroke-width:3.98257;stroke-linecap:round;stroke-linejoin:round;stroke:#000;stroke-miterlimit:10" transform="matrix(.1 0 0 -.1 0 596.69)"/><path d="m594.21875 299.105469h.855469v-2.847657h-.855469zm0 0"/></g><path d="m4671.640625 3143.970313h4.609375v316.875h-4.609375zm0 0" style="fill:none;stroke-width:3.98257;stroke-linecap:round;stroke-linejoin:round;stroke:#000;stroke-miterlimit:10" transform="matrix(.1 0 0 -.1 0 596.69)"/><path d="m467.164062 282.292969h.460938v-31.6875h-.460938zm0 0"/><use x="451.534" xlink:href="#V" y="333.314"/><use x="458.167579" xlink:href="#ad" y="333.314"/><use x="455.14181" xlink:href="#ao" y="284.4031"/><path d="m3924.21875 2882.134375h4.609375v268.203125h-4.609375zm0 0" style="fill:none;stroke-width:3.98257;stroke-linecap:round;stroke-linejoin:round;stroke:#000;stroke-miterlimit:10" transform="matrix(.1 0 0 -.1 0 596.69)"/><path d="m392.421875 308.476562h.460937v-26.820312h-.460937zm0 0"/><use x="378.665" xlink:href="#P" y="333.314"/><use x="391.931011" xlink:href="#O" y="333.314"/><use x="405.196631" xlink:href="#N" y="333.314"/><use x="392.2224" xlink:href="#ao" y="279.5464"/><path d="m3293.554688 2901.9h4.609374v296.992188h-4.609374zm0 0" style="fill:none;stroke-width:3.98257;stroke-linecap:round;stroke-linejoin:round;stroke:#000;stroke-miterlimit:10" transform="matrix(.1 0 0 -.1 0 596.69)"/><path d="m329.355469 306.5h.457031v-29.699219h-.457031zm0 0"/><use x="316.278" xlink:href="#S" y="333.314"/><use x="336.177187" xlink:href="#ah" y="333.314"/><use x="341.449847" xlink:href="#N" y="333.314"/><use x="329.1553" xlink:href="#ao" y="274.6898"/><path d="m887.617188 3407.05625v-42.65625l1896.640624 57.109375v42.65625zm0 0" fill="none" stroke="#000" stroke-linejoin="round" stroke-miterlimit="10" stroke-width="3.98257" transform="matrix(.1 0 0 -.1 0 596.69)"/><path d="m88.761719 255.984375v4.265625l189.664062-5.710938v-4.265624zm0 0"/><path d="m1067.382812 2699.55625h58.828126v3.28125h-58.828126zm0 0" fill="none" stroke="#000" stroke-linejoin="round" stroke-miterlimit="10" stroke-width="5.28418" transform="matrix(.1 0 0 -.1 0 596.69)"/><path d="m106.738281 326.734375h5.882813v-.328125h-5.882813zm0 0"/><path d="m2341.914062 2699.55625h58.828126v3.28125h-58.828126zm0 0" fill="none" stroke="#000" stroke-linejoin="round" stroke-miterlimit="10" stroke-width="5.28418" transform="matrix(.1 0 0 -.1 0 596.69)"/><path d="m234.191406 326.734375h5.882813v-.328125h-5.882813zm0 0"/><path d="m3293.554688 2921.353125v-42.65625l635.273437-20v42.65625zm0 0" fill="none" stroke="#000" stroke-linejoin="round" stroke-miterlimit="10" stroke-width="3.98257" transform="matrix(.1 0 0 -.1 0 596.69)"/><path d="m329.355469 304.554688v4.265624l63.527343 2v-4.265624zm0 0"/><path d="m3637.5 2699.55625h58.828125v3.28125h-58.828125zm0 0" fill="none" stroke="#000" stroke-linejoin="round" stroke-miterlimit="10" stroke-width="5.28418" transform="matrix(.1 0 0 -.1 0 596.69)"/><path d="m363.75 326.734375h5.882812v-.328125h-5.882812zm0 0"/><path d="m4866.679688 2699.55625h58.828124v3.28125h-58.828124zm0 0" fill="none" stroke="#000" stroke-linejoin="round" stroke-miterlimit="10" stroke-width="5.28418" transform="matrix(.1 0 0 -.1 0 596.69)"/><path d="m486.664062 326.734375h5.882813v-.328125h-5.882813zm0 0"/><use x="524.655" xlink:href="#ao" y="279.547"/><path d="m5248.554688 2849.634375h4.609374v300.703125h-4.609374zm0 0" fill="none" stroke="#000" stroke-linejoin="round" stroke-miterlimit="10" stroke-width="3.98257" transform="matrix(.1 0 0 -.1 0 596.69)"/><path d="m524.855469 311.726562h.457031v-30.070312h-.457031zm0 0"/><use x="507.782" xlink:href="#ae" y="333.314"/><use x="521.047596" xlink:href="#R" y="333.314"/><use x="534.313582" xlink:href="#S" y="333.314"/><use x="7.771" xlink:href="#aq" y="289.2601"/><path d="m887.617188 3095.376563h4.609374v288.476562h-4.609374zm0 0" fill="none" stroke="#000" stroke-linejoin="round" stroke-miterlimit="10" stroke-width="3.98257" transform="matrix(.1 0 0 -.1 0 596.69)"/><path d="m88.761719 287.152344h.460937v-28.847656h-.460937zm0 0"/><use x="67.2617" xlink:href="#ai" y="333.314"/><use x="80.357386" xlink:href="#O" y="333.314"/><use x="93.623385" xlink:href="#aj" y="333.314"/><use x="76.73709" xlink:href="#ao" y="289.2601"/><use x="41.76829" xlink:href="#ap" y="260.1195"/><path d="m2779.648438 3192.525h4.609374v248.164063h-4.609374zm0 0" fill="none" stroke="#000" stroke-linejoin="round" stroke-miterlimit="10" stroke-width="3.98257" transform="matrix(.1 0 0 -.1 0 596.69)"/><path d="m277.964844 277.4375h.460937v-24.816406h-.460937zm0 0"/><use x="249.236" xlink:href="#V" y="333.314"/><use x="255.528172" xlink:href="#O" y="333.314"/><use x="268.794183" xlink:href="#S" y="333.314"/><use x="288.69337" xlink:href="#T" y="333.314"/><use x="265.9403" xlink:href="#ao" y="279.5464"/><path d="m2148.984375 3192.525h4.609375v229.21875h-4.609375zm0 0" fill="none" stroke="#000" stroke-linejoin="round" stroke-miterlimit="10" stroke-width="3.98257" transform="matrix(.1 0 0 -.1 0 596.69)"/><path d="m214.898438 277.4375h.457031v-22.921875h-.457031zm0 0"/><use x="193.397" xlink:href="#V" y="333.314"/><use x="199.689575" xlink:href="#O" y="333.314"/><use x="212.955195" xlink:href="#X" y="333.314"/><use x="202.87161" xlink:href="#ao" y="279.5464"/><use x="139.80441" xlink:href="#ao" y="284.40304"/><use x="120.46461" xlink:href="#ak" y="333.31394"/><use x="132.029442" xlink:href="#O" y="333.31394"/><use x="145.29544" xlink:href="#S" y="333.31394"/><use x="165.19464" xlink:href="#T" y="333.31394"/><path d="m1518.28125 3143.970313h4.609375v258.828125h-4.609375zm0 0" fill="none" stroke="#000" stroke-linejoin="round" stroke-miterlimit="10" stroke-width="3.98257" transform="matrix(.1 0 0 -.1 0 596.69)"/><path d="m151.828125 282.292969h.460937v-25.882813h-.460937zm0 0"/><g clip-path="url(#z)"><path d="m3.28125 1811.548438h5946.171875" style="fill:none;stroke-width:6.60523;stroke-linecap:round;stroke-linejoin:round;stroke:#000;stroke-miterlimit:10" transform="matrix(.1 0 0 -.1 0 596.69)"/></g><g clip-path="url(#A)"><path d="m3.28125 1908.657813h5946.171875" style="fill:none;stroke-width:6.60523;stroke-linecap:round;stroke-linejoin:round;stroke:#000;stroke-miterlimit:10" transform="matrix(.1 0 0 -.1 0 596.69)"/></g><g clip-path="url(#B)"><path d="m3.28125 2005.80625h5946.171875" style="fill:none;stroke-width:6.60523;stroke-linecap:round;stroke-linejoin:round;stroke:#000;stroke-miterlimit:10" transform="matrix(.1 0 0 -.1 0 596.69)"/></g><g clip-path="url(#C)"><path d="m3.28125 2102.954688h5946.171875" style="fill:none;stroke-width:6.60523;stroke-linecap:round;stroke-linejoin:round;stroke:#000;stroke-miterlimit:10" transform="matrix(.1 0 0 -.1 0 596.69)"/></g><g clip-path="url(#D)"><path d="m3.28125 2200.064063h5946.171875" style="fill:none;stroke-width:6.60523;stroke-linecap:round;stroke-linejoin:round;stroke:#000;stroke-miterlimit:10" transform="matrix(.1 0 0 -.1 0 596.69)"/></g><g clip-path="url(#E)"><path d="m5946.484375 1811.548438v388.515625" fill="none" stroke="#000" stroke-linejoin="round" stroke-miterlimit="10" stroke-width="12.5499" transform="matrix(.1 0 0 -.1 0 596.69)"/></g><path d="m4681.796875 1881.196875h4.609375v316.875h-4.609375zm0 0" fill="none" stroke="#000" stroke-linejoin="round" stroke-miterlimit="10" stroke-width="3.98257" transform="matrix(.1 0 0 -.1 0 596.69)"/><path d="m468.179688 408.570312h.460937v-31.6875h-.460937zm0 0"/><path d="m2106.835938 1978.345313h4.570312v296.953125h-4.570312zm0 0" fill="none" stroke="#000" stroke-linejoin="round" stroke-miterlimit="10" stroke-width="3.98257" transform="matrix(.1 0 0 -.1 0 596.69)"/><path d="m210.683594 398.855469h.457031v-29.691407h-.457031zm0 0"/><use x="436.814" xlink:href="#Q" y="449.534"/><use x="448.378832" xlink:href="#R" y="449.534"/><use x="461.644818" xlink:href="#S" y="449.534"/><use x="481.54403" xlink:href="#al" y="449.534"/><use x="456.1538" xlink:href="#ao" y="410.6797"/><path d="m3326.054688 1929.751563h4.609374v316.914062h-4.609374zm0 0" fill="none" stroke="#000" stroke-linejoin="round" stroke-miterlimit="10" stroke-width="3.98257" transform="matrix(.1 0 0 -.1 0 596.69)"/><path d="m332.601562 403.714844h.460938v-31.6875h-.460938zm0 0"/><use x="316.971" xlink:href="#L" y="449.534"/><use x="330.23662" xlink:href="#M" y="449.534"/><use x="320.57842" xlink:href="#ao" y="405.8231"/><path d="m887.617188 2318.540625v-42.65625l1223.789062-20v42.617188zm0 0" fill="none" stroke="#000" stroke-linejoin="round" stroke-miterlimit="10" stroke-width="3.98257" transform="matrix(.1 0 0 -.1 0 596.69)"/><path d="m88.761719 364.835938v4.265624l122.378906 2v-4.261718zm0 0"/><path d="m3839.023438 1537.329688h58.828124v3.320312h-58.828124zm0 0" fill="none" stroke="#000" stroke-linejoin="round" stroke-miterlimit="10" stroke-width="5.28418" transform="matrix(.1 0 0 -.1 0 596.69)"/><path d="m383.902344 442.957031h5.882812v-.332031h-5.882812zm0 0"/><path d="m1397.382812 1537.329688h58.828126v3.320312h-58.828126zm0 0" fill="none" stroke="#000" stroke-linejoin="round" stroke-miterlimit="10" stroke-width="5.28418" transform="matrix(.1 0 0 -.1 0 596.69)"/><path d="m139.738281 442.957031h5.882813v-.332031h-5.882813zm0 0"/><use x="7.7707" xlink:href="#aq" y="405.823"/><use x="41.7684" xlink:href="#ap" y="376.6824"/><use x="191.7334" xlink:href="#Z" y="449.534"/><use x="204.999411" xlink:href="#P" y="449.534"/><use x="72.534444" xlink:href="#Y" y="449.534"/><use x="80.357874" xlink:href="#O" y="449.534"/><use x="198.6584" xlink:href="#ao" y="400.966"/><path d="m887.617188 2026.9h4.609374v268.242188h-4.609374zm0 0" fill="none" stroke="#000" stroke-linejoin="round" stroke-miterlimit="10" stroke-width="3.98257" transform="matrix(.1 0 0 -.1 0 596.69)"/><path d="m88.761719 394h.460937v-26.824219h-.460937zm0 0"/><use x="76.7371" xlink:href="#ao" y="396.11"/><g clip-path="url(#F)"><path d="m3.28125 645.923438h5946.171875" style="fill:none;stroke-width:6.60523;stroke-linecap:round;stroke-linejoin:round;stroke:#000;stroke-miterlimit:10" transform="matrix(.1 0 0 -.1 0 596.69)"/></g><g clip-path="url(#G)"><path d="m3.28125 743.032813h5946.171875" style="fill:none;stroke-width:6.60523;stroke-linecap:round;stroke-linejoin:round;stroke:#000;stroke-miterlimit:10" transform="matrix(.1 0 0 -.1 0 596.69)"/></g><g clip-path="url(#H)"><path d="m3.28125 840.18125h5946.171875" style="fill:none;stroke-width:6.60523;stroke-linecap:round;stroke-linejoin:round;stroke:#000;stroke-miterlimit:10" transform="matrix(.1 0 0 -.1 0 596.69)"/></g><g clip-path="url(#I)"><path d="m3.28125 937.329688h5946.171875" style="fill:none;stroke-width:6.60523;stroke-linecap:round;stroke-linejoin:round;stroke:#000;stroke-miterlimit:10" transform="matrix(.1 0 0 -.1 0 596.69)"/></g><g clip-path="url(#J)"><path d="m3.28125 1034.439063h5946.171875" style="fill:none;stroke-width:6.60523;stroke-linecap:round;stroke-linejoin:round;stroke:#000;stroke-miterlimit:10" transform="matrix(.1 0 0 -.1 0 596.69)"/></g><g clip-path="url(#K)"><path d="m5932.929688 645.923438v388.515625" fill="none" stroke="#000" stroke-linejoin="round" stroke-miterlimit="10" stroke-width="39.6217" transform="matrix(.1 0 0 -.1 0 596.69)"/></g><path d="m5887.03125 645.923438v388.515625" fill="none" stroke="#000" stroke-linejoin="round" stroke-miterlimit="10" stroke-width="12.5499" transform="matrix(.1 0 0 -.1 0 596.69)"/><use x="518.337" xlink:href="#ao" y="532.0994"/><path d="m4629.101562 715.571875h4.609376v316.875h-4.609376zm0 0" fill="none" stroke="#000" stroke-linejoin="round" stroke-miterlimit="10" stroke-width="3.98257" transform="matrix(.1 0 0 -.1 0 596.69)"/><path d="m462.910156 525.132812h.460938v-31.6875h-.460938zm0 0"/><use x="444.814" xlink:href="#ak" y="566.1943"/><use x="456.378832" xlink:href="#R" y="566.1943"/><use x="450.88783" xlink:href="#ao" y="527.2427"/><path d="m4015.46875 764.126563h4.609375v268.476562h-4.609375zm0 0" fill="none" stroke="#000" stroke-linejoin="round" stroke-miterlimit="10" stroke-width="3.98257" transform="matrix(.1 0 0 -.1 0 596.69)"/><path d="m401.546875 520.277344h.460937v-26.847656h-.460937zm0 0"/><use x="367.293" xlink:href="#S" y="566.1943"/><use x="387.192187" xlink:href="#ad" y="566.1943"/><use x="400.458198" xlink:href="#X" y="566.1943"/><use x="412.364046" xlink:href="#Q" y="566.1943"/><use x="389.5246" xlink:href="#ao" y="522.3861"/><path d="m3401.835938 812.720313h4.609374v239.609375h-4.609374zm0 0" fill="none" stroke="#000" stroke-linejoin="round" stroke-miterlimit="10" stroke-width="3.98257" transform="matrix(.1 0 0 -.1 0 596.69)"/><path d="m340.183594 515.417969h.460937v-23.960938h-.460937zm0 0"/><use x="324.552" xlink:href="#V" y="566.1943"/><use x="331.185188" xlink:href="#Z" y="566.1943"/><use x="328.15942" xlink:href="#ao" y="517.5291"/><path d="m887.617188 1055.767188v-42.65625l1905.195312 77.148437v42.617188zm0 0" fill="none" stroke="#000" stroke-linejoin="round" stroke-miterlimit="10" stroke-width="3.98257" transform="matrix(.1 0 0 -.1 0 596.69)"/><path d="m88.761719 491.113281v4.265625l190.519531-7.714844v-4.261718zm0 0"/><path d="m1028.4375 370.728125h58.828125v3.320313h-58.828125zm0 0" fill="none" stroke="#000" stroke-linejoin="round" stroke-miterlimit="10" stroke-width="5.28418" transform="matrix(.1 0 0 -.1 0 596.69)"/><path d="m102.84375 559.617188h5.882812v-.332032h-5.882812zm0 0"/><path d="m3401.835938 1075.767188v-42.617188l618.242187-20.039062v42.65625zm0 0" fill="none" stroke="#000" stroke-linejoin="round" stroke-miterlimit="10" stroke-width="3.98257" transform="matrix(.1 0 0 -.1 0 596.69)"/><path d="m340.183594 489.113281v4.261719l61.824218 2.003906v-4.265625zm0 0"/><path d="m3529.296875 370.728125h58.828125v3.320313h-58.828125zm0 0" fill="none" stroke="#000" stroke-linejoin="round" stroke-miterlimit="10" stroke-width="5.28418" transform="matrix(.1 0 0 -.1 0 596.69)"/><path d="m352.929688 559.617188h5.882812v-.332032h-5.882812zm0 0"/><path d="m4316.835938 370.728125h58.828124v3.320313h-58.828124zm0 0" fill="none" stroke="#000" stroke-linejoin="round" stroke-miterlimit="10" stroke-width="5.28418" transform="matrix(.1 0 0 -.1 0 596.69)"/><path d="m431.683594 559.617188h5.882812v-.332032h-5.882812zm0 0"/><path d="m4809.53125 370.728125h58.828125v3.320313h-58.828125zm0 0" fill="none" stroke="#000" stroke-linejoin="round" stroke-miterlimit="10" stroke-width="5.28418" transform="matrix(.1 0 0 -.1 0 596.69)"/><path d="m480.953125 559.617188h5.882813v-.332032h-5.882813zm0 0"/><use x="524.679" xlink:href="#ar" y="490.351"/><path d="m5303.59375 667.017188h4.609375v316.875h-4.609375zm0 0" fill="none" stroke="#000" stroke-linejoin="round" stroke-miterlimit="10" stroke-width="3.98257" transform="matrix(.1 0 0 -.1 0 596.69)"/><path d="m530.359375 529.988281h.460937v-31.6875h-.460937zm0 0"/><use x="498.146" xlink:href="#P" y="566.1943"/><use x="511.411986" xlink:href="#R" y="566.1943"/><use x="524.677582" xlink:href="#S" y="566.1943"/><use x="544.576793" xlink:href="#am" y="566.1943"/><use x="41.768" xlink:href="#ap" y="493.2451"/><path d="m887.617188 764.126563h4.609374v268.476562h-4.609374zm0 0" fill="none" stroke="#000" stroke-linejoin="round" stroke-miterlimit="10" stroke-width="3.98257" transform="matrix(.1 0 0 -.1 0 596.69)"/><path d="m88.761719 520.277344h.460937v-26.847656h-.460937zm0 0"/><use x="69.048" xlink:href="#an" y="566.1943"/><use x="83.844464" xlink:href="#O" y="566.1943"/><use x="76.73706" xlink:href="#ao" y="522.3861"/><use x="7.770855" xlink:href="#aq" y="522.3861"/><use x="203.003885" xlink:href="#ao" y="522.3861"/><path d="m2788.203125 861.275h4.609375v248.125h-4.609375zm0 0" fill="none" stroke="#000" stroke-linejoin="round" stroke-miterlimit="10" stroke-width="3.98257" transform="matrix(.1 0 0 -.1 0 596.69)"/><path d="m278.820312 510.5625h.460938v-24.8125h-.460938zm0 0"/><use x="255.959" xlink:href="#Y" y="566.1943"/><use x="263.782418" xlink:href="#Z" y="566.1943"/><use x="277.048038" xlink:href="#P" y="566.1943"/><use x="266.7957" xlink:href="#ao" y="512.6724"/><path d="m2150.273438 764.126563h4.609374v319.492187h-4.609374zm0 0" fill="none" stroke="#000" stroke-linejoin="round" stroke-miterlimit="10" stroke-width="3.98257" transform="matrix(.1 0 0 -.1 0 596.69)"/><path d="m215.027344 520.277344h.460937v-31.949219h-.460937zm0 0"/><use x="185.11" xlink:href="#S" y="566.1943"/><use x="205.009187" xlink:href="#O" y="566.1943"/><use x="218.274807" xlink:href="#Y" y="566.1943"/><use x="226.949005" xlink:href="#V" y="566.1943"/><use x="135.6725" xlink:href="#ao" y="536.9564"/><use x="114.462" xlink:href="#Q" y="566.1943"/><use x="125.856912" xlink:href="#O" y="566.1943"/><use x="139.12291" xlink:href="#X" y="566.1943"/><use x="151.198679" xlink:href="#X" y="566.1943"/><use x="162.933825" xlink:href="#T" y="566.1943"/><path d="m1476.992188 618.423438h4.609374v438.007812h-4.609374zm0 0" fill="none" stroke="#000" stroke-linejoin="round" stroke-miterlimit="10" stroke-width="3.98257" transform="matrix(.1 0 0 -.1 0 596.69)"/><path d="m147.699219 534.847656h.457031v-43.800781h-.457031zm0 0"/></svg>