<svg height="790.66em" viewBox="0 0 595.28 790.66" width="595.28em" xmlns="http://www.w3.org/2000/svg" xmlns:xlink="http://www.w3.org/1999/xlink"><clipPath id="a"><path d="m0 63h595.28125v2h-595.28125zm0 0"/></clipPath><clipPath id="b"><path d="m0 55h595.28125v2h-595.28125zm0 0"/></clipPath><clipPath id="c"><path d="m0 47h595.28125v2h-595.28125zm0 0"/></clipPath><clipPath id="d"><path d="m0 39h595.28125v2h-595.28125zm0 0"/></clipPath><clipPath id="e"><path d="m0 31h595.28125v2h-595.28125zm0 0"/></clipPath><clipPath id="f"><path d="m0 159h595.28125v1h-595.28125zm0 0"/></clipPath><clipPath id="g"><path d="m0 151h595.28125v1h-595.28125zm0 0"/></clipPath><clipPath id="h"><path d="m0 143h595.28125v1h-595.28125zm0 0"/></clipPath><clipPath id="i"><path d="m0 135h595.28125v1h-595.28125zm0 0"/></clipPath><clipPath id="j"><path d="m0 127h595.28125v1h-595.28125zm0 0"/></clipPath><clipPath id="k"><path d="m0 254h595.28125v2h-595.28125zm0 0"/></clipPath><clipPath id="l"><path d="m0 246h595.28125v2h-595.28125zm0 0"/></clipPath><clipPath id="m"><path d="m0 238h595.28125v2h-595.28125zm0 0"/></clipPath><clipPath id="n"><path d="m0 230h595.28125v2h-595.28125zm0 0"/></clipPath><clipPath id="o"><path d="m0 222h595.28125v2h-595.28125zm0 0"/></clipPath><clipPath id="p"><path d="m0 350h595.28125v1h-595.28125zm0 0"/></clipPath><clipPath id="q"><path d="m0 342h595.28125v1h-595.28125zm0 0"/></clipPath><clipPath id="r"><path d="m0 334h595.28125v2h-595.28125zm0 0"/></clipPath><clipPath id="s"><path d="m0 326h595.28125v2h-595.28125zm0 0"/></clipPath><clipPath id="t"><path d="m0 318h595.28125v2h-595.28125zm0 0"/></clipPath><clipPath id="u"><path d="m0 445h595.28125v2h-595.28125zm0 0"/></clipPath><clipPath id="v"><path d="m0 438h595.28125v1h-595.28125zm0 0"/></clipPath><clipPath id="w"><path d="m0 430h595.28125v1h-595.28125zm0 0"/></clipPath><clipPath id="x"><path d="m0 422h595.28125v1h-595.28125zm0 0"/></clipPath><clipPath id="y"><path d="m0 414h595.28125v1h-595.28125zm0 0"/></clipPath><clipPath id="z"><path d="m0 541h595.28125v2h-595.28125zm0 0"/></clipPath><clipPath id="A"><path d="m0 533h595.28125v2h-595.28125zm0 0"/></clipPath><clipPath id="B"><path d="m0 525h595.28125v2h-595.28125zm0 0"/></clipPath><clipPath id="C"><path d="m0 517h595.28125v2h-595.28125zm0 0"/></clipPath><clipPath id="D"><path d="m0 509h595.28125v2h-595.28125zm0 0"/></clipPath><clipPath id="E"><path d="m0 637h595.28125v1h-595.28125zm0 0"/></clipPath><clipPath id="F"><path d="m0 629h595.28125v1h-595.28125zm0 0"/></clipPath><clipPath id="G"><path d="m0 621h595.28125v1h-595.28125zm0 0"/></clipPath><clipPath id="H"><path d="m0 613h595.28125v1h-595.28125zm0 0"/></clipPath><clipPath id="I"><path d="m0 605h595.28125v1h-595.28125zm0 0"/></clipPath><clipPath id="J"><path d="m0 732h595.28125v2h-595.28125zm0 0"/></clipPath><clipPath id="K"><path d="m0 724h595.28125v2h-595.28125zm0 0"/></clipPath><clipPath id="L"><path d="m0 716h595.28125v2h-595.28125zm0 0"/></clipPath><clipPath id="M"><path d="m0 709h595.28125v1h-595.28125zm0 0"/></clipPath><clipPath id="N"><path d="m0 701h595.28125v1h-595.28125zm0 0"/></clipPath><clipPath id="O"><path d="m591 699h4.28125v37h-4.28125zm0 0"/></clipPath><symbol id="P" overflow="visible"><path d="m7.078125-4.296875c-1.34375 0-2.609375.4375-3.765625 1.140625-1.5.890625-3.3125 2.453125-3.3125 4.71875 0 1.875 1.65625 2.734375 3.34375 2.734375 1.34375 0 2.609375-.4375 3.765625-1.140625 1.5-.890625 3.28125-2.453125 3.28125-4.71875 0-1.875-1.625-2.734375-3.3125-2.734375zm0 0"/></symbol><symbol id="Q" overflow="visible"><path d="m10.078125-2.140625c0 .328125-.09375.671875-.328125.921875-.671875.796875-2.203125 1.796875-3.40625 2.5625-1.21875.765625-2.734375 1.78125-3.734375 2.0625-.125.03125-.28125.0625-.40625.0625-.703125 0-1.34375-.53125-1.34375-1.328125 0-.328125.09375-.671875.3125-.921875.671875-.796875 2.203125-1.796875 3.421875-2.5625 1.203125-.765625 2.734375-1.78125 3.71875-2.0625.140625-.03125.296875-.0625.421875-.0625.703125 0 1.34375.53125 1.34375 1.328125zm-1.625-2.15625c-2.390625 0-4.34375.5-6.03125 1.65625-1.015625.703125-1.6875 1.78125-2.078125 2.953125-.1875.578125-.34375 1.21875-.34375 1.828125 0 1.5 1.078125 2.15625 2.484375 2.15625 2.390625 0 4.34375-.5 6.03125-1.65625 1.015625-.703125 1.6875-1.78125 2.0625-2.953125.203125-.578125.359375-1.21875.359375-1.828125 0-1.5-1.09375-2.15625-2.484375-2.15625zm0 0"/></symbol><symbol id="R" overflow="visible"><path d="m6.859375 10.078125v-5.203125l1.5625-.546875c.1875-.0625.34375-.25.34375-.46875v-2.078125c0-.34375-.34375-.609375-.671875-.46875l-1.234375.4375v-5.21875l1.5625-.578125c.1875-.0625.34375-.25.34375-.484375v-2.03125c0-.359375-.34375-.609375-.671875-.484375l-1.234375.421875v-4.78125c0-.296875-.265625-.546875-.546875-.546875s-.546875.25-.546875.546875v5.15625l-2.765625.984375v-4.8125c0-.28125-.265625-.53125-.546875-.53125s-.546875.25-.546875.53125v5.203125l-1.5625.546875c-.1875.0625-.34375.25-.34375.46875v2.078125c0 .34375.34375.609375.671875.46875l1.234375-.4375v5.21875l-1.5625.578125c-.1875.0625-.34375.25-.34375.484375v2.03125c0 .359375.34375.609375.671875.484375l1.234375-.421875v4.78125c0 .296875.265625.546875.546875.546875s.546875-.25.546875-.546875v-5.15625l2.765625-.984375v4.8125c0 .28125.265625.53125.546875.53125s.546875-.25.546875-.53125zm-3.859375-12.21875 2.765625-.953125v5.234375l-2.765625.953125zm0 0"/></symbol><symbol id="S" overflow="visible"><path d="m11.703125 0c.125 0 .25-.125.25-.25v-4.46875c0-.125-.125-.25-.25-.25h-11.453125c-.125 0-.25.125-.25.25v4.46875c0 .125.125.25.25.25zm0 0"/></symbol><symbol id="T" overflow="visible"><path d="m11.921875-8.28125c-.515625-2.234375-1.109375-4.4375-1.75-6.640625 3.0625-3.46875 5.828125-7.046875 5.828125-11.625 0-3.609375-1.96875-8.765625-4.203125-11.453125-.15625-.125-.359375-.125-.515625 0-3.03125 2.203125-4.78125 5.703125-4.78125 9.40625 0 1.65625.03125 3.28125.21875 4.90625.234375 2.078125.765625 4.078125 1.34375 6.09375-3.765625 4.265625-8 8.34375-8 14.03125 0 6.40625 4.625 11.84375 10.609375 11.84375 1 0 1.921875-.09375 2.84375-.25.09375 1.015625.15625 2.046875.15625 3.0625 0 .578125-.03125 1.109375-.0625 1.6875-.1875 3.15625-2.140625 6.0625-5.09375 6.125-.03125 0-.0625.03125-.09375.03125-1.625 0-3.03125-.921875-3.859375-2.234375.34375.15625.734375.28125 1.109375.28125 1.65625 0 3.03125-1.359375 3.03125-3.015625 0-1.796875-1.3125-3.328125-3.03125-3.328125-1.875 0-3.5625 1.46875-3.5625 3.328125 0 3.4375 2.765625 6.203125 6.203125 6.203125 3.765625 0 6.34375-3.375 6.578125-7.203125.03125-.59375.03125-1.171875.03125-1.78125 0-1.140625-.0625-2.296875-.15625-3.4375.828125-.265625 1.625-.640625 2.3125-1.1875 2.359375-1.75 3.421875-4.203125 3.421875-6.625 0-4.203125-3.1875-8.25-8.09375-8.25-.171875 0-.328125.03125-.484375.03125zm2.703125 14.8125c-.4375-3.953125-1.171875-7.703125-1.96875-11.4375 3.5.28125 5.703125 3.21875 5.703125 6.15625 0 2.21875-1.53125 4.515625-3.734375 5.28125zm-12.359375-7.515625c0-5.109375 3.4375-8.953125 6.875-12.8125.515625 1.875 1.03125 3.75 1.46875 5.671875-3.21875.734375-5.03125 3.4375-5.03125 6.25 0 2.21875 1.140625 4.484375 3.703125 5.859375.09375.03125.1875.0625.28125.0625.34375 0 .640625-.3125.640625-.671875 0-.15625-.09375-.3125-.21875-.4375-1.796875-1.03125-2.625-2.5625-2.625-3.953125 0-1.890625 1.46875-3.578125 3.984375-3.859375.828125 3.828125 1.5625 7.609375 2.046875 11.703125-.859375.125-1.71875.1875-2.609375.1875-4.34375 0-8.515625-3.671875-8.515625-8zm10.828125-32.484375c.546875 1.6875.671875 2.515625.671875 4.359375 0 4.0625-2.125 7.28125-4.75 10.359375-.5625-2-1.046875-3.9375-1.046875-6.375 0-3.53125 1.96875-6.75 5.125-8.34375zm0 0"/></symbol><symbol id="U" overflow="visible"><path d="m6.859375-3.640625c2.515625 0 4.390625 1.953125 4.390625 4.46875 0 1.46875-.640625 2.8125-2.234375 2.8125-2.515625 0-4.421875-1.953125-4.421875-4.46875 0-1.46875.671875-2.8125 2.265625-2.8125zm8.984375 3.640625c0-1.375-1.125-2.359375-2.328125-3.03125-1.71875-.921875-3.640625-1.265625-5.578125-1.265625s-3.890625.34375-5.609375 1.265625c-1.21875.671875-2.328125 1.65625-2.328125 3.03125s1.109375 2.359375 2.328125 3.03125c1.71875.921875 3.671875 1.265625 5.609375 1.265625s3.859375-.34375 5.578125-1.265625c1.203125-.671875 2.328125-1.65625 2.328125-3.03125zm0 0"/></symbol><symbol id="V" overflow="visible"><path d="m1.0625-14.359375v14.359375h1.484375v-1.3125c.78125 1.1875 1.828125 1.765625 3.265625 1.765625 2.71875 0 4.484375-2.21875 4.484375-5.65625 0-3.34375-1.671875-5.40625-4.40625-5.40625-1.421875 0-2.421875.53125-3.1875 1.6875v-5.4375zm4.515625 5.28125c1.828125 0 3 1.59375 3 4.0625 0 2.34375-1.21875 3.9375-3 3.9375-1.765625 0-2.875-1.578125-2.875-4s1.109375-4 2.875-4zm0 0"/></symbol><symbol id="W" overflow="visible"><path d="m5.359375-10.609375c-2.921875 0-4.65625 2.0625-4.65625 5.53125 0 3.484375 1.734375 5.53125 4.671875 5.53125 2.90625 0 4.671875-2.0625 4.671875-5.453125 0-3.578125-1.703125-5.609375-4.6875-5.609375zm.015625 1.515625c1.84375 0 2.953125 1.515625 2.953125 4.078125 0 2.4375-1.140625 3.953125-2.953125 3.953125-1.828125 0-2.953125-1.515625-2.953125-4.015625s1.125-4.015625 2.953125-4.015625zm0 0"/></symbol><symbol id="X" overflow="visible"><path d="m1.359375-10.3125v10.3125h1.65625v-5.359375c.015625-2.46875 1.046875-3.578125 3.296875-3.515625v-1.671875c-.265625-.046875-.421875-.0625-.625-.0625-1.0625 0-1.875.625-2.8125 2.15625v-1.859375zm0 0"/></symbol><symbol id="Y" overflow="visible"><path d="m1.375-14.359375v14.359375h1.640625v-5.6875c0-2.109375 1.09375-3.484375 2.796875-3.484375.546875 0 1.0625.15625 1.453125.453125.46875.359375.671875.84375.671875 1.578125v7.140625h1.625v-7.796875c0-1.734375-1.234375-2.8125-3.25-2.8125-1.453125 0-2.328125.453125-3.296875 1.703125v-5.453125zm0 0"/></symbol><symbol id="Z" overflow="visible"><path d="m10.53125-.96875c-.171875.046875-.25.046875-.359375.046875-.5625 0-.875-.296875-.875-.8125v-6.0625c0-1.828125-1.34375-2.8125-3.890625-2.8125-1.515625 0-2.703125.4375-3.421875 1.203125-.46875.53125-.671875 1.125-.703125 2.140625h1.65625c.140625-1.265625.875-1.828125 2.421875-1.828125 1.484375 0 2.296875.546875 2.296875 1.53125v.4375c-.015625.703125-.375.96875-1.703125 1.140625-2.328125.296875-2.6875.375-3.3125.625-1.203125.515625-1.8125 1.421875-1.8125 2.765625 0 1.859375 1.296875 3.046875 3.390625 3.046875 1.296875 0 2.34375-.453125 3.5-1.515625.109375 1.0625.625 1.515625 1.6875 1.515625.359375 0 .578125-.046875 1.125-.171875zm-2.875-2.28125c0 .546875-.15625.890625-.640625 1.34375-.671875.609375-1.484375.921875-2.453125.921875-1.28125 0-2.015625-.609375-2.015625-1.65625 0-1.078125.703125-1.625 2.46875-1.890625 1.75-.234375 2.09375-.3125 2.640625-.5625zm-1.671875-11.3125-1.90625 2.90625h1.171875l2.9375-2.90625zm0 0"/></symbol><symbol id="aa" overflow="visible"><path d="m7.953125-10.3125v1.5c-.828125-1.25-1.734375-1.796875-3.03125-1.796875-2.5 0-4.234375 2.328125-4.234375 5.625 0 1.734375.421875 3 1.296875 4.046875.765625.890625 1.75 1.390625 2.8125 1.390625 1.25 0 2.140625-.546875 3-1.84375v.53125c0 2.75-.765625 3.765625-2.8125 3.765625-1.40625 0-2.125-.546875-2.28125-1.71875h-1.671875c.15625 1.90625 1.671875 3.109375 3.90625 3.109375 1.515625 0 2.78125-.5 3.453125-1.328125.78125-.953125 1.078125-2.234375 1.078125-4.65625v-8.625zm-2.875 1.21875c1.734375 0 2.71875 1.453125 2.71875 4.078125 0 2.5-1 3.953125-2.71875 3.953125-1.6875 0-2.671875-1.484375-2.671875-4.015625 0-2.515625.984375-4.015625 2.671875-4.015625zm0 0"/></symbol><symbol id="ab" overflow="visible"><path d="m10.53125-.96875c-.171875.046875-.25.046875-.359375.046875-.5625 0-.875-.296875-.875-.8125v-6.0625c0-1.828125-1.34375-2.8125-3.890625-2.8125-1.515625 0-2.703125.4375-3.421875 1.203125-.46875.53125-.671875 1.125-.703125 2.140625h1.65625c.140625-1.265625.875-1.828125 2.421875-1.828125 1.484375 0 2.296875.546875 2.296875 1.53125v.4375c-.015625.703125-.375.96875-1.703125 1.140625-2.328125.296875-2.6875.375-3.3125.625-1.203125.515625-1.8125 1.421875-1.8125 2.765625 0 1.859375 1.296875 3.046875 3.390625 3.046875 1.296875 0 2.34375-.453125 3.5-1.515625.109375 1.0625.625 1.515625 1.6875 1.515625.359375 0 .578125-.046875 1.125-.171875zm-2.875-2.28125c0 .546875-.15625.890625-.640625 1.34375-.671875.609375-1.484375.921875-2.453125.921875-1.28125 0-2.015625-.609375-2.015625-1.65625 0-1.078125.703125-1.625 2.46875-1.890625 1.75-.234375 2.09375-.3125 2.640625-.5625zm0 0"/></symbol><symbol id="ac" overflow="visible"><path d="m5-10.3125h-1.6875v-2.84375h-1.640625v2.84375h-1.390625v1.328125h1.390625v7.796875c0 1.0625.703125 1.640625 1.984375 1.640625.4375 0 .796875-.046875 1.34375-.140625v-1.375c-.234375.0625-.453125.078125-.78125.078125-.71875 0-.90625-.203125-.90625-.921875v-7.078125h1.6875zm0 0"/></symbol><symbol id="ad" overflow="visible"><path d="m9.328125-4.3125 1.484375 4.3125h2.046875l-5.046875-14.359375h-2.359375l-5.125 14.359375h1.953125l1.515625-4.3125zm-.515625-1.53125h-4.5625l2.359375-6.546875zm0 0"/></symbol><symbol id="ae" overflow="visible"><path d="m2.78125-14.359375h-1.640625v14.359375h1.640625v-4.015625l1.59375-1.578125 3.484375 5.59375h2.03125l-4.21875-6.75 3.578125-3.5625h-2.109375l-4.359375 4.359375zm0 0"/></symbol><symbol id="af" overflow="visible"><path d="m2.953125-10.3125h-1.640625v10.3125h1.640625zm0-4.046875h-1.65625v2.078125h1.65625zm0 0"/></symbol><symbol id="ag" overflow="visible"><path d="m1.375-10.3125v10.3125h1.65625v-5.6875c0-2.109375 1.109375-3.484375 2.796875-3.484375 1.296875 0 2.125.78125 2.125 2.03125v7.140625h1.640625v-7.796875c0-1.71875-1.28125-2.8125-3.28125-2.8125-1.53125 0-2.515625.59375-3.421875 2.03125v-1.734375zm0 0"/></symbol><symbol id="ah" overflow="visible"><path d="m1.375-10.3125v10.3125h1.65625v-6.484375c0-1.484375 1.078125-2.6875 2.421875-2.6875 1.21875 0 1.90625.75 1.90625 2.0625v7.109375h1.65625v-6.484375c0-1.484375 1.078125-2.6875 2.421875-2.6875 1.203125 0 1.90625.765625 1.90625 2.0625v7.109375h1.65625v-7.734375c0-1.859375-1.0625-2.875-2.984375-2.875-1.390625 0-2.21875.40625-3.171875 1.578125-.609375-1.109375-1.4375-1.578125-2.78125-1.578125-1.375 0-2.296875.515625-3.171875 1.75v-1.453125zm0 0"/></symbol><symbol id="ai" overflow="visible"><path d="m10.09375-4.609375c0-1.578125-.109375-2.515625-.40625-3.28125-.671875-1.703125-2.25-2.71875-4.171875-2.71875-2.875 0-4.734375 2.1875-4.734375 5.59375s1.78125 5.46875 4.6875 5.46875c2.359375 0 4-1.34375 4.421875-3.578125h-1.65625c-.453125 1.359375-1.390625 2.0625-2.703125 2.0625-1.046875 0-1.921875-.46875-2.484375-1.34375-.390625-.59375-.53125-1.171875-.546875-2.203125zm-7.546875-1.34375c.125-1.90625 1.296875-3.140625 2.953125-3.140625 1.671875 0 2.828125 1.296875 2.828125 3.140625zm0 0"/></symbol><symbol id="aj" overflow="visible"><path d="m3-14.359375h-1.65625v14.359375h1.65625zm0 0"/></symbol><symbol id="ak" overflow="visible"><path d="m7.640625-10.3125-2.859375 8.03125-2.640625-8.03125h-1.75l3.484375 10.359375-.625 1.625c-.28125.734375-.625 1-1.328125 1-.265625 0-.5-.03125-.859375-.109375v1.46875c.328125.1875.671875.265625 1.109375.265625.53125 0 1.09375-.1875 1.53125-.5.515625-.375.8125-.796875 1.125-1.625l4.578125-12.484375zm0 0"/></symbol><symbol id="al" overflow="visible"><path d="m7.65625-14.59375c-4.109375 0-6.90625 3.03125-6.90625 7.53125s2.78125 7.515625 6.921875 7.515625c1.765625 0 3.296875-.53125 4.453125-1.515625 1.5625-1.3125 2.484375-3.546875 2.484375-5.890625 0-4.625-2.734375-7.640625-6.953125-7.640625zm0 1.625c3.109375 0 5.125 2.34375 5.125 5.984375 0 3.453125-2.078125 5.828125-5.109375 5.828125-3.0625 0-5.09375-2.375-5.09375-5.90625 0-3.546875 2.03125-5.90625 5.078125-5.90625zm.59375-5.515625-1.90625 2.90625h1.171875l2.9375-2.90625zm0 0"/></symbol><symbol id="am" overflow="visible"><path d="m1.71875-2.046875v2.046875h1.171875v.359375c0 1.359375-.25 1.75-1.171875 1.78125v.75c1.296875.046875 2.0625-.90625 2.0625-2.578125v-2.359375zm0 0"/></symbol><symbol id="an" overflow="visible"><path d="m5.609375 0 3.953125-10.3125h-1.84375l-2.921875 8.359375-2.75-8.359375h-1.84375l3.609375 10.3125zm0 0"/></symbol><symbol id="ao" overflow="visible"><path d="m8.625-7.4375c-.015625-2.03125-1.359375-3.171875-3.75-3.171875s-3.953125 1.234375-3.953125 3.140625c0 1.625.828125 2.390625 3.265625 2.984375l1.546875.375c1.140625.265625 1.59375.6875 1.59375 1.40625 0 .984375-.96875 1.640625-2.40625 1.640625-.890625 0-1.640625-.25-2.046875-.6875-.25-.296875-.375-.59375-.46875-1.328125h-1.734375c.078125 2.390625 1.421875 3.53125 4.109375 3.53125 2.59375 0 4.25-1.28125 4.25-3.265625 0-1.53125-.859375-2.390625-2.90625-2.875l-1.578125-.375c-1.34375-.3125-1.90625-.75-1.90625-1.484375 0-.953125.84375-1.546875 2.1875-1.546875 1.3125 0 2.015625.5625 2.0625 1.65625zm0 0"/></symbol><symbol id="ap" overflow="visible"><path d="m4.09375-14.359375h-1.640625v6.65625l.4375 4.390625h.765625l.4375-4.390625zm0 12.3125h-1.65625v2.046875h1.65625zm0 0"/></symbol><symbol id="aq" overflow="visible"><path d="m3.8125-14.359375h-1.84375v14.359375h1.84375zm0 0"/></symbol><symbol id="ar" overflow="visible"><path d="m10.09375-4.609375c0-1.578125-.109375-2.515625-.40625-3.28125-.671875-1.703125-2.25-2.71875-4.171875-2.71875-2.875 0-4.734375 2.1875-4.734375 5.59375s1.78125 5.46875 4.6875 5.46875c2.359375 0 4-1.34375 4.421875-3.578125h-1.65625c-.453125 1.359375-1.390625 2.0625-2.703125 2.0625-1.046875 0-1.921875-.46875-2.484375-1.34375-.390625-.59375-.53125-1.171875-.546875-2.203125zm-7.546875-1.34375c.125-1.90625 1.296875-3.140625 2.953125-3.140625 1.671875 0 2.828125 1.296875 2.828125 3.140625zm3.515625-8.609375-1.890625 2.90625h1.1875l2.921875-2.90625zm0 0"/></symbol><symbol id="as" overflow="visible"><path d="m3.609375-6.53125h7.8125v-1.625h-7.8125v-4.578125h8.109375v-1.625h-9.953125v14.359375h10.296875v-1.609375h-8.453125zm0 0"/></symbol><symbol id="at" overflow="visible"><path d="m5.359375-10.609375c-2.921875 0-4.65625 2.0625-4.65625 5.53125 0 3.484375 1.734375 5.53125 4.671875 5.53125 2.90625 0 4.671875-2.0625 4.671875-5.453125 0-3.578125-1.703125-5.609375-4.6875-5.609375zm.015625 1.515625c1.84375 0 2.953125 1.515625 2.953125 4.078125 0 2.4375-1.140625 3.953125-2.953125 3.953125-1.828125 0-2.953125-1.515625-2.953125-4.015625s1.125-4.015625 2.953125-4.015625zm-.578125-4.984375h-2.046875v2.03125h2.046875zm3.203125 0h-2.046875v2.03125h2.046875zm0 0"/></symbol><symbol id="au" overflow="visible"><path d="m5.359375-10.609375c-2.921875 0-4.65625 2.0625-4.65625 5.53125 0 3.484375 1.734375 5.53125 4.671875 5.53125 2.90625 0 4.671875-2.0625 4.671875-5.453125 0-3.578125-1.703125-5.609375-4.6875-5.609375zm.015625 1.515625c1.84375 0 2.953125 1.515625 2.953125 4.078125 0 2.4375-1.140625 3.953125-2.953125 3.953125-1.828125 0-2.953125-1.515625-2.953125-4.015625s1.125-4.015625 2.953125-4.015625zm-.65625-5.46875-1.90625 2.953125h1.1875l2.9375-2.953125zm3.4375 0-1.921875 2.953125h1.1875l2.9375-2.953125zm0 0"/></symbol><symbol id="av" overflow="visible"><path d="m9.484375 0v-10.3125h-1.625v5.84375c0 2.109375-1.109375 3.484375-2.8125 3.484375-1.3125 0-2.140625-.78125-2.140625-2.03125v-7.296875h-1.625v7.953125c0 1.703125 1.28125 2.8125 3.28125 2.8125 1.515625 0 2.484375-.53125 3.453125-1.890625v1.4375zm-4.703125-14.5625-1.890625 2.953125h1.1875l2.9375-2.953125zm3.421875 0-1.890625 2.953125h1.1875l2.9375-2.953125zm0 0"/></symbol><symbol id="aw" overflow="visible"><path d="m3.609375-6.53125h7.8125v-1.625h-7.8125v-4.578125h8.109375v-1.625h-9.953125v14.359375h10.296875v-1.609375h-8.453125zm3.609375-11.953125-1.90625 2.90625h1.1875l2.9375-2.90625zm0 0"/></symbol><symbol id="ax" overflow="visible"><path d="m12.71875-14.359375h-1.734375v11.734375l-7.5-11.734375h-1.984375v14.359375h1.734375v-11.640625l7.421875 11.640625h2.0625zm0 0"/></symbol><symbol id="ay" overflow="visible"><path d="m3.765625-2.046875h-2.046875v2.046875h2.046875zm0 0"/></symbol><symbol id="az" overflow="visible"><path d="m6.96875-12.734375h4.703125v-1.625h-11.265625v1.625h4.734375v12.734375h1.828125zm0 0"/></symbol><symbol id="aA" overflow="visible"><path d="m9.484375 0v-10.3125h-1.625v5.84375c0 2.109375-1.109375 3.484375-2.8125 3.484375-1.3125 0-2.140625-.78125-2.140625-2.03125v-7.296875h-1.625v7.953125c0 1.703125 1.28125 2.8125 3.28125 2.8125 1.515625 0 2.484375-.53125 3.453125-1.890625v1.4375zm0 0"/></symbol><symbol id="aB" overflow="visible"><path d="m9.75-14.359375h-1.640625v5.34375c-.6875-1.046875-1.796875-1.59375-3.171875-1.59375-2.671875 0-4.421875 2.140625-4.421875 5.4375 0 3.484375 1.6875 5.625 4.484375 5.625 1.421875 0 2.40625-.53125 3.28125-1.8125v1.359375h1.46875zm-4.53125 5.28125c1.765625 0 2.890625 1.5625 2.890625 4.03125 0 2.390625-1.140625 3.96875-2.875 3.96875-1.8125 0-3.015625-1.59375-3.015625-4s1.203125-4 3-4zm0 0"/></symbol><symbol id="aC" overflow="visible"><path d="m8.71875-10.3125h-7.6875v1.4375h5.734375l-6.15625 7.40625v1.46875h8.390625v-1.4375h-6.40625l6.125-7.421875zm0 0"/></symbol><symbol id="aD" overflow="visible"><path d="m3.40625-14.359375h-1.828125v14.359375h8.921875v-1.609375h-7.09375zm0 0"/></symbol><symbol id="aE" overflow="visible"><path d="m1.375-10.3125v11.8125c0 1.015625-.3125 1.359375-1.328125 1.359375-.125 0-.1875 0-.40625-.03125v1.40625c.203125.03125.296875.0625.5625.0625 1.84375 0 2.8125-.734375 2.8125-2.15625v-12.453125zm1.640625-4.046875h-1.640625v2.078125h1.640625zm0 0"/></symbol><symbol id="aF" overflow="visible"><path d="m4.21875-2.046875h-2.046875v2.046875h2.046875zm0-8.265625h-2.046875v2.046875h2.046875zm0 0"/></symbol><symbol id="aG" overflow="visible"><path d="m11.734375-10.140625c0-.984375-.0625-1.265625-.375-1.921875-.78125-1.65625-2.453125-2.53125-4.875-2.53125-3.15625 0-5.109375 1.625-5.109375 4.21875 0 1.75.921875 2.859375 2.8125 3.34375l3.5625.953125c1.84375.46875 2.640625 1.203125 2.640625 2.3125 0 .765625-.40625 1.5625-1.015625 2-.578125.40625-1.484375.609375-2.640625.609375-1.578125 0-2.625-.375-3.3125-1.203125-.53125-.640625-.765625-1.328125-.75-2.203125h-1.734375c.03125 1.3125.28125 2.1875.859375 2.96875.984375 1.359375 2.625 2.046875 4.8125 2.046875 1.71875 0 3.109375-.390625 4.046875-1.109375.953125-.765625 1.5625-2.046875 1.5625-3.28125 0-1.765625-1.09375-3.078125-3.046875-3.609375l-3.59375-.953125c-1.734375-.484375-2.375-1.03125-2.375-2.125 0-1.46875 1.28125-2.421875 3.21875-2.421875 2.28125 0 3.5625 1.015625 3.578125 2.90625zm0 0"/></symbol><symbol id="aH" overflow="visible"><path d="m9.21875 0 4.03125-12.03125v12.03125h1.734375v-14.359375h-2.546875l-4.171875 12.515625-4.25-12.515625h-2.546875v14.359375h1.734375v-12.03125l4.078125 12.03125zm0 0"/></symbol><symbol id="aI" overflow="visible"><path d="m3.484375-10.3125h-1.640625v10.3125h1.640625zm-.3125-4.25-1.890625 2.90625h1.171875l2.9375-2.90625zm0 0"/></symbol><symbol id="aJ" overflow="visible"><path d="m9.265625-6.84375c-.078125-1.015625-.28125-1.65625-.6875-2.234375-.703125-.96875-1.9375-1.53125-3.375-1.53125-2.796875 0-4.59375 2.203125-4.59375 5.625 0 3.328125 1.765625 5.4375 4.5625 5.4375 2.46875 0 4.015625-1.484375 4.21875-4h-1.65625c-.265625 1.65625-1.125 2.484375-2.515625 2.484375-1.8125 0-2.890625-1.484375-2.890625-3.921875 0-2.578125 1.0625-4.109375 2.84375-4.109375 1.390625 0 2.25.8125 2.453125 2.25zm0 0"/></symbol><symbol id="aK" overflow="visible"><path d="m5.359375-10.609375c-2.921875 0-4.65625 2.0625-4.65625 5.53125 0 3.484375 1.734375 5.53125 4.671875 5.53125 2.90625 0 4.671875-2.0625 4.671875-5.453125 0-3.578125-1.703125-5.609375-4.6875-5.609375zm.015625 1.515625c1.84375 0 2.953125 1.515625 2.953125 4.078125 0 2.4375-1.140625 3.953125-2.953125 3.953125-1.828125 0-2.953125-1.515625-2.953125-4.015625s1.125-4.015625 2.953125-4.015625zm.484375-5.46875-1.875 2.90625h1.171875l2.9375-2.90625zm0 0"/></symbol><symbol id="aL" overflow="visible"><path d="m3.796875-14.359375h-1.828125v14.359375h1.828125zm-.515625-4.125-1.890625 2.90625h1.1875l2.9375-2.90625zm0 0"/></symbol><symbol id="aM" overflow="visible"><path d="m7.109375-1.484375c0 .21875-.078125.453125-.234375.625-.46875.5625-1.546875 1.265625-2.390625 1.8125-.828125.53125-1.90625 1.234375-2.609375 1.4375-.09375.015625-.1875.046875-.28125.046875-.484375 0-.9375-.40625-.9375-.953125 0-.21875.0625-.453125.21875-.625.484375-.5625 1.5625-1.265625 2.390625-1.8125.84375-.53125 1.890625-1.234375 2.59375-1.4375.09375-.015625.203125-.046875.296875-.046875.5 0 .953125.40625.953125.953125zm-1.171875-1.5625c-1.671875 0-3.046875.3125-4.25 1.125-.71875.5-1.171875 1.3125-1.4375 2.140625-.140625.40625-.25.84375-.25 1.265625 0 1.109375.796875 1.5625 1.796875 1.5625 1.671875 0 3.046875-.3125 4.25-1.125.71875-.5 1.1875-1.3125 1.46875-2.140625.125-.40625.234375-.84375.234375-1.265625 0-1.109375-.8125-1.5625-1.8125-1.5625zm0 0"/></symbol><symbol id="aN" overflow="visible"><path d="m4.171875-8.578125v8.578125h2.453125v-12.421875h-1.625c-.390625 1.46875-1.671875 2.21875-3.8125 2.21875v1.625zm0 0"/></symbol><symbol id="aO" overflow="visible"><path d="m3.75-2.5625h-2.625v2.5625h2.625zm0 0"/></symbol><path d="m441.914062 7189.646875h150.078126" fill="none" stroke="#000" stroke-linecap="round" stroke-miterlimit="10" stroke-width="13.9796" transform="matrix(.1 0 0 -.1 0 790.66)"/><g clip-path="url(#a)"><path d="m3.007812 7269.334375h5946.757813" fill="none" stroke="#000" stroke-linecap="round" stroke-miterlimit="10" stroke-width="6.00947" transform="matrix(.1 0 0 -.1 0 790.66)"/></g><g clip-path="url(#b)"><path d="m3.007812 7349.021875h5946.757813" fill="none" stroke="#000" stroke-linecap="round" stroke-miterlimit="10" stroke-width="6.00947" transform="matrix(.1 0 0 -.1 0 790.66)"/></g><g clip-path="url(#c)"><path d="m3.007812 7428.748437h5946.757813" fill="none" stroke="#000" stroke-linecap="round" stroke-miterlimit="10" stroke-width="6.00947" transform="matrix(.1 0 0 -.1 0 790.66)"/></g><g clip-path="url(#d)"><path d="m3.007812 7508.435937h5946.757813" fill="none" stroke="#000" stroke-linecap="round" stroke-miterlimit="10" stroke-width="6.00947" transform="matrix(.1 0 0 -.1 0 790.66)"/></g><g clip-path="url(#e)"><path d="m3.007812 7588.123437h5946.757813" fill="none" stroke="#000" stroke-linecap="round" stroke-miterlimit="10" stroke-width="6.00947" transform="matrix(.1 0 0 -.1 0 790.66)"/></g><use x="442.564" xlink:href="#P" y="55.757"/><use x="433.56634" xlink:href="#V" y="98.459"/><use x="444.451134" xlink:href="#W" y="98.459"/><use x="455.335927" xlink:href="#X" y="98.459"/><path d="m4523.90625 7366.717187h3.828125v259.257813h-3.828125zm0 0" style="fill:none;stroke-width:3.98506;stroke-linecap:round;stroke-linejoin:round;stroke:#000;stroke-miterlimit:10" transform="matrix(.1 0 0 -.1 0 790.66)"/><path d="m452.390625 53.988281h.382813v-25.925781h-.382813zm0 0"/><use x="399.045" xlink:href="#Y" y="98.459"/><use x="409.929794" xlink:href="#Z" y="98.459"/><use x="482.9552" xlink:href="#P" y="59.7418"/><use x="474.72278" xlink:href="#aa" y="98.459"/><use x="485.437651" xlink:href="#ab" y="98.459"/><use x="496.152914" xlink:href="#ac" y="98.459"/><path d="m4927.8125 7326.834375h3.828125v259.296875h-3.828125zm0 0" style="fill:none;stroke-width:3.98506;stroke-linecap:round;stroke-linejoin:round;stroke:#000;stroke-miterlimit:10" transform="matrix(.1 0 0 -.1 0 790.66)"/><path d="m492.78125 57.976562h.382812v-25.929687h-.382812zm0 0"/><use x="368.928" xlink:href="#P" y="47.787"/><use x="334.1479" xlink:href="#Q" y="43.80184"/><use x="333.06821" xlink:href="#ad" y="98.45924"/><path d="m3343.476562 7191.639062h3.828126v253.554688h-3.828126zm0 0" style="fill:none;stroke-width:3.98506;stroke-linecap:round;stroke-linejoin:round;stroke:#000;stroke-miterlimit:10" transform="matrix(.1 0 0 -.1 0 790.66)"/><path d="m334.347656 71.496094h.382813v-25.355469h-.382813zm0 0"/><path d="m4145.507812 7406.560937h3.828126v259.296875h-3.828126zm0 0" style="fill:none;stroke-width:3.98506;stroke-linecap:round;stroke-linejoin:round;stroke:#000;stroke-miterlimit:10" transform="matrix(.1 0 0 -.1 0 790.66)"/><path d="m414.550781 50.003906h.382813v-25.929687h-.382813zm0 0"/><use x="361.971" xlink:href="#ae" y="98.459"/><use x="372.005384" xlink:href="#af" y="98.459"/><use x="376.427278" xlink:href="#ae" y="98.459"/><path d="m3691.289062 7165.0375h3.789063v246.015625h-3.789063zm0 0" style="fill:none;stroke-width:3.98506;stroke-linecap:round;stroke-linejoin:round;stroke:#000;stroke-miterlimit:10" transform="matrix(.1 0 0 -.1 0 790.66)"/><path d="m369.128906 74.15625h.378906v-24.601562h-.378906zm0 0"/><use x="404.725" xlink:href="#P" y="51.772"/><use x="524.696" xlink:href="#Q" y="55.75716"/><path d="m5055.78125 6976.209375h47.8125v3.007812h-47.8125zm0 0" style="fill:none;stroke-width:4.80598;stroke-linecap:round;stroke-linejoin:round;stroke:#000;stroke-miterlimit:10" transform="matrix(.1 0 0 -.1 0 790.66)"/><path d="m505.578125 93.039062h4.78125v-.300781h-4.78125zm0 0"/><path d="m4659.570312 6976.209375h47.773438v3.007812h-47.773438zm0 0" style="fill:none;stroke-width:4.80598;stroke-linecap:round;stroke-linejoin:round;stroke:#000;stroke-miterlimit:10" transform="matrix(.1 0 0 -.1 0 790.66)"/><path d="m465.957031 93.039062h4.777344v-.300781h-4.777344zm0 0"/><path d="m4248.007812 6976.209375h47.8125v3.007812h-47.8125zm0 0" style="fill:none;stroke-width:4.80598;stroke-linecap:round;stroke-linejoin:round;stroke:#000;stroke-miterlimit:10" transform="matrix(.1 0 0 -.1 0 790.66)"/><path d="m424.800781 93.039062h4.777344v-.300781h-4.777344zm0 0"/><path d="m3516.757812 6976.209375h47.8125v3.007812h-47.8125zm0 0" style="fill:none;stroke-width:4.80598;stroke-linecap:round;stroke-linejoin:round;stroke:#000;stroke-miterlimit:10" transform="matrix(.1 0 0 -.1 0 790.66)"/><path d="m351.675781 93.039062h4.78125v-.300781h-4.78125zm0 0"/><path d="m2418.164062 6976.209375h47.773438v3.007812h-47.773438zm0 0" style="fill:none;stroke-width:4.80598;stroke-linecap:round;stroke-linejoin:round;stroke:#000;stroke-miterlimit:10" transform="matrix(.1 0 0 -.1 0 790.66)"/><path d="m241.816406 93.039062h4.777344v-.300781h-4.777344zm0 0"/><path d="m1533.828125 6976.209375h47.8125v3.007812h-47.8125zm0 0" style="fill:none;stroke-width:4.80598;stroke-linecap:round;stroke-linejoin:round;stroke:#000;stroke-miterlimit:10" transform="matrix(.1 0 0 -.1 0 790.66)"/><path d="m153.382812 93.039062h4.78125v-.300781h-4.78125zm0 0"/><use x="471.398" xlink:href="#R" y="59.742"/><use x="559.4757" xlink:href="#S" y="47.7869"/><path d="m5350.507812 7372.420312h3.828126v253.554688h-3.828126zm0 0" style="fill:none;stroke-width:3.98506;stroke-linecap:round;stroke-linejoin:round;stroke:#000;stroke-miterlimit:10" transform="matrix(.1 0 0 -.1 0 790.66)"/><path d="m535.050781 53.417969h.382813v-25.355469h-.382813zm0 0"/><use x="514.346" xlink:href="#ag" y="98.459"/><use x="525.230794" xlink:href="#ab" y="98.459"/><use x="536.115587" xlink:href="#ae" y="98.459"/><path d="m565.78125 7213.00625h3.828125v253.59375h-3.828125zm0 0" style="fill:none;stroke-width:3.98506;stroke-linecap:round;stroke-linejoin:round;stroke:#000;stroke-miterlimit:10" transform="matrix(.1 0 0 -.1 0 790.66)"/><path d="m56.578125 69.359375h.382813v-25.359375h-.382813zm0 0"/><use x="89.7633" xlink:href="#Q" y="55.757"/><use x="74.566" xlink:href="#ah" y="98.459"/><use x="90.893375" xlink:href="#ai" y="98.459"/><use x="101.778553" xlink:href="#aj" y="98.459"/><use x="106.030513" xlink:href="#ak" y="98.459"/><path d="m1001.171875 7372.420312h3.828125v253.554688h-3.828125zm0 0" style="fill:none;stroke-width:3.98506;stroke-linecap:round;stroke-linejoin:round;stroke:#000;stroke-miterlimit:10" transform="matrix(.1 0 0 -.1 0 790.66)"/><path d="m100.117188 53.417969h.382812v-25.355469h-.382812zm0 0"/><use x="133.554" xlink:href="#Q" y="55.757"/><use x="46.2263" xlink:href="#Q" y="71.6972"/><path d="m456.171875 7674.334375h4.882813v151.757812h-4.882813zm0 0" style="fill:none;stroke-width:2.43885;stroke-linecap:round;stroke-linejoin:round;stroke:#000;stroke-miterlimit:10" transform="matrix(.1 0 0 -.1 0 790.66)"/><path d="m45.617188 23.226562h.488281v-15.175781h-.488281zm0 0"/><use x="38.4797" xlink:href="#aM" y="24.837"/><use x="6.3762" xlink:href="#T" y="55.7573"/><use x="41.5746" xlink:href="#al" y="98.4593"/><use x="56.371112" xlink:href="#am" y="98.4593"/><use x="18.9777" xlink:href="#aN" y="98.4593"/><use x="28.672605" xlink:href="#aO" y="98.4593"/><use x="216.9797" xlink:href="#P" y="47.787"/><use x="298.348045" xlink:href="#S" y="47.787"/><path d="m2637.695312 7191.639062h3.828126v253.554688h-3.828126zm0 0" style="fill:none;stroke-width:3.98506;stroke-linecap:round;stroke-linejoin:round;stroke:#000;stroke-miterlimit:10" transform="matrix(.1 0 0 -.1 0 790.66)"/><path d="m263.769531 71.496094h.382813v-25.355469h-.382813zm0 0"/><use x="250.583" xlink:href="#ag" y="98.459"/><use x="261.467794" xlink:href="#ab" y="98.459"/><use x="272.352587" xlink:href="#ae" y="98.459"/><use x="282.047518" xlink:href="#am" y="98.459"/><use x="263.5685" xlink:href="#Q" y="43.8016"/><path d="m2171.796875 7165.0375h3.828125v246.015625h-3.828125zm0 0" style="fill:none;stroke-width:3.98506;stroke-linecap:round;stroke-linejoin:round;stroke:#000;stroke-miterlimit:10" transform="matrix(.1 0 0 -.1 0 790.66)"/><path d="m217.179688 74.15625h.378906v-24.601562h-.378906zm0 0"/><use x="206.536" xlink:href="#an" y="98.459"/><use x="216.060226" xlink:href="#ab" y="98.459"/><use x="226.94502" xlink:href="#ag" y="98.459"/><use x="128.647207" xlink:href="#ao" y="98.459"/><use x="138.511681" xlink:href="#W" y="98.459"/><path d="m1439.0625 7372.420312h3.828125v253.554688h-3.828125zm0 0" style="fill:none;stroke-width:3.98506;stroke-linecap:round;stroke-linejoin:round;stroke:#000;stroke-miterlimit:10" transform="matrix(.1 0 0 -.1 0 790.66)"/><path d="m143.90625 53.417969h.382812v-25.355469h-.382812zm0 0"/><use x="172.763" xlink:href="#P" y="51.772"/><use x="162.1501" xlink:href="#ae" y="98.4591"/><use x="172.014574" xlink:href="#ab" y="98.4591"/><use x="182.899355" xlink:href="#ag" y="98.4591"/><path d="m1825.898438 7406.560937h3.828124v259.296875h-3.828124zm0 0" style="fill:none;stroke-width:3.98506;stroke-linecap:round;stroke-linejoin:round;stroke:#000;stroke-miterlimit:10" transform="matrix(.1 0 0 -.1 0 790.66)"/><path d="m182.589844 50.003906h.382812v-25.929687h-.382812zm0 0"/><g clip-path="url(#f)"><path d="m3.007812 6312.928125h5946.757813" style="fill:none;stroke-width:6.00947;stroke-linecap:round;stroke-linejoin:round;stroke:#000;stroke-miterlimit:10" transform="matrix(.1 0 0 -.1 0 790.66)"/></g><g clip-path="url(#g)"><path d="m3.007812 6392.615625h5946.757813" style="fill:none;stroke-width:6.00947;stroke-linecap:round;stroke-linejoin:round;stroke:#000;stroke-miterlimit:10" transform="matrix(.1 0 0 -.1 0 790.66)"/></g><g clip-path="url(#h)"><path d="m3.007812 6472.303125h5946.757813" style="fill:none;stroke-width:6.00947;stroke-linecap:round;stroke-linejoin:round;stroke:#000;stroke-miterlimit:10" transform="matrix(.1 0 0 -.1 0 790.66)"/></g><g clip-path="url(#i)"><path d="m3.007812 6552.029687h5946.757813" style="fill:none;stroke-width:6.00947;stroke-linecap:round;stroke-linejoin:round;stroke:#000;stroke-miterlimit:10" transform="matrix(.1 0 0 -.1 0 790.66)"/></g><g clip-path="url(#j)"><path d="m3.007812 6631.717187h5946.757813" style="fill:none;stroke-width:6.00947;stroke-linecap:round;stroke-linejoin:round;stroke:#000;stroke-miterlimit:10" transform="matrix(.1 0 0 -.1 0 790.66)"/></g><path d="m4476.875 6233.201562h150.039062" style="fill:none;stroke-width:13.9796;stroke-linecap:round;stroke-linejoin:round;stroke:#000;stroke-miterlimit:10" transform="matrix(.1 0 0 -.1 0 790.66)"/><path d="m1767.382812 6233.201562h142.148438" style="fill:none;stroke-width:13.9796;stroke-linecap:round;stroke-linejoin:round;stroke:#000;stroke-miterlimit:10" transform="matrix(.1 0 0 -.1 0 790.66)"/><use x="377.454" xlink:href="#Q" y="163.354"/><path d="m4600.742188 6256.6h3.828124v253.59375h-3.828124zm0 0" fill="none" stroke="#000" stroke-linejoin="round" stroke-miterlimit="10" stroke-width="3.98506" transform="matrix(.1 0 0 -.1 0 790.66)"/><path d="m460.074219 165h.382812v-25.355469h-.382812zm0 0"/><use x="433.418" xlink:href="#ag" y="187.264"/><use x="444.302794" xlink:href="#ai" y="187.264"/><use x="455.187587" xlink:href="#ah" y="187.264"/><use x="471.514968" xlink:href="#ap" y="187.264"/><use x="449.7207" xlink:href="#Q" y="167.3386"/><path d="m2560.664062 6370.428125h3.828126v259.296875h-3.828126zm0 0" fill="none" stroke="#000" stroke-linejoin="round" stroke-miterlimit="10" stroke-width="3.98506" transform="matrix(.1 0 0 -.1 0 790.66)"/><path d="m256.066406 153.617188h.382813v-25.929688h-.382813zm0 0"/><path d="m3878.085938 6296.44375h3.789062v253.59375h-3.789062zm0 0" fill="none" stroke="#000" stroke-linejoin="round" stroke-miterlimit="10" stroke-width="3.98506" transform="matrix(.1 0 0 -.1 0 790.66)"/><path d="m387.804688 161.015625h.382812v-25.359375h-.382812zm0 0"/><use x="374.842" xlink:href="#ac" y="187.264"/><use x="380.114278" xlink:href="#ai" y="187.264"/><path d="m823.90625 6088.1625h47.8125v3.007812h-47.8125zm0 0" fill="none" stroke="#000" stroke-linejoin="round" stroke-miterlimit="10" stroke-width="4.80598" transform="matrix(.1 0 0 -.1 0 790.66)"/><path d="m82.390625 181.84375h4.78125v-.300781h-4.78125zm0 0"/><path d="m3216.71875 6330.584375h3.828125v259.296875h-3.828125zm0 0" fill="none" stroke="#000" stroke-linejoin="round" stroke-miterlimit="10" stroke-width="3.98506" transform="matrix(.1 0 0 -.1 0 790.66)"/><path d="m321.671875 157.601562h.382813v-25.929687h-.382813zm0 0"/><use x="309.396" xlink:href="#aq" y="187.264"/><use x="314.838983" xlink:href="#ao" y="187.264"/><use x="311.846" xlink:href="#P" y="159.3687"/><path d="m1456.953125 6088.1625h47.773437v3.007812h-47.773437zm0 0" fill="none" stroke="#000" stroke-linejoin="round" stroke-miterlimit="10" stroke-width="4.80598" transform="matrix(.1 0 0 -.1 0 790.66)"/><path d="m145.691406 181.84375h4.78125v-.300781h-4.78125zm0 0"/><path d="m3473.828125 6088.1625h47.8125v3.007812h-47.8125zm0 0" fill="none" stroke="#000" stroke-linejoin="round" stroke-miterlimit="10" stroke-width="4.80598" transform="matrix(.1 0 0 -.1 0 790.66)"/><path d="m347.382812 181.84375h4.78125v-.300781h-4.78125zm0 0"/><path d="m4098.164062 6088.1625h47.8125v3.007812h-47.8125zm0 0" fill="none" stroke="#000" stroke-linejoin="round" stroke-miterlimit="10" stroke-width="4.80598" transform="matrix(.1 0 0 -.1 0 790.66)"/><path d="m409.816406 181.84375h4.78125v-.300781h-4.78125zm0 0"/><use x="521.988" xlink:href="#S" y="143.428"/><use x="6.376" xlink:href="#T" y="151.39831"/><path d="m531.132812 6336.2875h3.828126v253.59375h-3.828126zm0 0" fill="none" stroke="#000" stroke-linejoin="round" stroke-miterlimit="10" stroke-width="3.98506" transform="matrix(.1 0 0 -.1 0 790.66)"/><path d="m53.113281 157.03125h.382813v-25.359375h-.382813zm0 0"/><use x="240.559" xlink:href="#ar" y="187.264"/><use x="251.443794" xlink:href="#ag" y="187.264"/><use x="42.76" xlink:href="#Q" y="159.3687"/><use x="36.23734" xlink:href="#as" y="187.264"/><use x="49.332675" xlink:href="#ag" y="187.264"/><use x="246.24134" xlink:href="#P" y="155.3835"/><path d="m1884.6875 6250.896875h3.828125v259.257812h-3.828125zm0 0" fill="none" stroke="#000" stroke-linejoin="round" stroke-miterlimit="10" stroke-width="3.98506" transform="matrix(.1 0 0 -.1 0 790.66)"/><path d="m188.46875 165.570312h.378906v-25.925781h-.378906zm0 0"/><use x="165.052" xlink:href="#ah" y="187.264"/><use x="181.379369" xlink:href="#ai" y="187.264"/><use x="192.094618" xlink:href="#ac" y="187.264"/><use x="197.196976" xlink:href="#am" y="187.264"/><use x="178.6418" xlink:href="#P" y="167.3386"/><path d="m1248.554688 6330.584375h3.828124v259.296875h-3.828124zm0 0" fill="none" stroke="#000" stroke-linejoin="round" stroke-miterlimit="10" stroke-width="3.98506" transform="matrix(.1 0 0 -.1 0 790.66)"/><path d="m124.851562 157.601562h.382813v-25.929687h-.382813zm0 0"/><use x="109.346" xlink:href="#aa" y="187.264"/><use x="120.230781" xlink:href="#ai" y="187.264"/><use x="115.02686" xlink:href="#P" y="159.3687"/><g clip-path="url(#k)"><path d="m3.007812 5356.482812h5946.757813" style="fill:none;stroke-width:6.00947;stroke-linecap:round;stroke-linejoin:round;stroke:#000;stroke-miterlimit:10" transform="matrix(.1 0 0 -.1 0 790.66)"/></g><g clip-path="url(#l)"><path d="m3.007812 5436.209375h5946.757813" style="fill:none;stroke-width:6.00947;stroke-linecap:round;stroke-linejoin:round;stroke:#000;stroke-miterlimit:10" transform="matrix(.1 0 0 -.1 0 790.66)"/></g><g clip-path="url(#m)"><path d="m3.007812 5515.896875h5946.757813" style="fill:none;stroke-width:6.00947;stroke-linecap:round;stroke-linejoin:round;stroke:#000;stroke-miterlimit:10" transform="matrix(.1 0 0 -.1 0 790.66)"/></g><g clip-path="url(#n)"><path d="m3.007812 5595.623437h5946.757813" style="fill:none;stroke-width:6.00947;stroke-linecap:round;stroke-linejoin:round;stroke:#000;stroke-miterlimit:10" transform="matrix(.1 0 0 -.1 0 790.66)"/></g><g clip-path="url(#o)"><path d="m3.007812 5675.310937h5946.757813" style="fill:none;stroke-width:6.00947;stroke-linecap:round;stroke-linejoin:round;stroke:#000;stroke-miterlimit:10" transform="matrix(.1 0 0 -.1 0 790.66)"/></g><path d="m4163.789062 5453.865625h3.828126v259.296875h-3.828126zm0 0" style="fill:none;stroke-width:3.98506;stroke-linecap:round;stroke-linejoin:round;stroke:#000;stroke-miterlimit:10" transform="matrix(.1 0 0 -.1 0 790.66)"/><path d="m416.378906 245.273438h.382813v-25.929688h-.382813zm0 0"/><use x="442.736" xlink:href="#P" y="251.025"/><use x="440.28678" xlink:href="#aj" y="282.9055"/><use x="444.708284" xlink:href="#at" y="282.9055"/><path d="m4525.625 5414.021875h3.828125v259.296875h-3.828125zm0 0" style="fill:none;stroke-width:3.98506;stroke-linecap:round;stroke-linejoin:round;stroke:#000;stroke-miterlimit:10" transform="matrix(.1 0 0 -.1 0 790.66)"/><path d="m452.5625 249.257812h.382812v-25.929687h-.382812zm0 0"/><use x="478.92" xlink:href="#P" y="255.01"/><use x="476.47" xlink:href="#aj" y="282.9053"/><use x="480.891894" xlink:href="#au" y="282.9053"/><path d="m4887.460938 5374.178125h3.828124v259.296875h-3.828124zm0 0" style="fill:none;stroke-width:3.98506;stroke-linecap:round;stroke-linejoin:round;stroke:#000;stroke-miterlimit:10" transform="matrix(.1 0 0 -.1 0 790.66)"/><path d="m488.746094 253.242188h.382812v-25.929688h-.382812zm0 0"/><use x="396.024" xlink:href="#aa" y="282.905"/><use x="406.738871" xlink:href="#ak" y="282.905"/><use x="416.603748" xlink:href="#av" y="282.905"/><use x="406.5525" xlink:href="#P" y="247.0394"/><path d="m3725.859375 5453.865625h3.828125v259.296875h-3.828125zm0 0" style="fill:none;stroke-width:3.98506;stroke-linecap:round;stroke-linejoin:round;stroke:#000;stroke-miterlimit:10" transform="matrix(.1 0 0 -.1 0 790.66)"/><path d="m372.585938 245.273438h.382812v-25.929688h-.382812zm0 0"/><use x="352.657" xlink:href="#ao" y="282.905"/><use x="362.521853" xlink:href="#W" y="282.905"/><use x="373.406646" xlink:href="#ae" y="282.905"/><use x="362.7601" xlink:href="#P" y="247.0394"/><path d="m3315.46875 5379.88125h3.828125v253.59375h-3.828125zm0 0" style="fill:none;stroke-width:3.98506;stroke-linecap:round;stroke-linejoin:round;stroke:#000;stroke-miterlimit:10" transform="matrix(.1 0 0 -.1 0 790.66)"/><path d="m331.546875 252.671875h.378906v-25.355469h-.378906zm0 0"/><use x="315.18" xlink:href="#aw" y="282.905"/><use x="328.275716" xlink:href="#ao" y="282.905"/><use x="321.1925" xlink:href="#Q" y="255.0097"/><path d="m1482.421875 5131.75625h47.8125v3.007812h-47.8125zm0 0" style="fill:none;stroke-width:4.80598;stroke-linecap:round;stroke-linejoin:round;stroke:#000;stroke-miterlimit:10" transform="matrix(.1 0 0 -.1 0 790.66)"/><path d="m148.242188 277.484375h4.777343v-.300781h-4.777343zm0 0"/><path d="m1885.507812 5131.75625h47.773438v3.007812h-47.773438zm0 0" style="fill:none;stroke-width:4.80598;stroke-linecap:round;stroke-linejoin:round;stroke:#000;stroke-miterlimit:10" transform="matrix(.1 0 0 -.1 0 790.66)"/><path d="m188.550781 277.484375h4.777344v-.300781h-4.777344zm0 0"/><path d="m2219.0625 5131.75625h47.773438v3.007812h-47.773438zm0 0" style="fill:none;stroke-width:4.80598;stroke-linecap:round;stroke-linejoin:round;stroke:#000;stroke-miterlimit:10" transform="matrix(.1 0 0 -.1 0 790.66)"/><path d="m221.902344 277.484375h4.78125v-.300781h-4.78125zm0 0"/><path d="m4314.960938 5131.75625h47.8125v3.007812h-47.8125zm0 0" style="fill:none;stroke-width:4.80598;stroke-linecap:round;stroke-linejoin:round;stroke:#000;stroke-miterlimit:10" transform="matrix(.1 0 0 -.1 0 790.66)"/><path d="m431.496094 277.484375h4.78125v-.300781h-4.78125zm0 0"/><path d="m4636.40625 5131.75625h47.8125v3.007812h-47.8125zm0 0" style="fill:none;stroke-width:4.80598;stroke-linecap:round;stroke-linejoin:round;stroke:#000;stroke-miterlimit:10" transform="matrix(.1 0 0 -.1 0 790.66)"/><path d="m463.640625 277.484375h4.78125v-.300781h-4.78125zm0 0"/><path d="m4985.976562 5131.75625h47.773438v3.007812h-47.773438zm0 0" style="fill:none;stroke-width:4.80598;stroke-linecap:round;stroke-linejoin:round;stroke:#000;stroke-miterlimit:10" transform="matrix(.1 0 0 -.1 0 790.66)"/><path d="m498.597656 277.484375h4.777344v-.300781h-4.777344zm0 0"/><use x="554.68" xlink:href="#S" y="239.07"/><path d="m5254.570312 5340.0375h3.828126v253.59375h-3.828126zm0 0" style="fill:none;stroke-width:3.98506;stroke-linecap:round;stroke-linejoin:round;stroke:#000;stroke-miterlimit:10" transform="matrix(.1 0 0 -.1 0 790.66)"/><path d="m525.457031 256.65625h.382813v-25.355469h-.382813zm0 0"/><use x="510.197" xlink:href="#af" y="282.905"/><use x="514.618894" xlink:href="#ah" y="282.905"/><use x="515.10403" xlink:href="#Q" y="258.9948"/><use x="93.87303" xlink:href="#P" y="247.0393"/><use x="42.759503" xlink:href="#Q" y="247.0393"/><use x="25.43633" xlink:href="#ax" y="282.9049"/><use x="39.552761" xlink:href="#ab" y="282.9049"/><use x="50.437545" xlink:href="#aa" y="282.9049"/><use x="61.152802" xlink:href="#ak" y="282.9049"/><path d="m531.132812 5459.607812h3.828126v253.554688h-3.828126zm0 0" style="fill:none;stroke-width:3.98506;stroke-linecap:round;stroke-linejoin:round;stroke:#000;stroke-miterlimit:10" transform="matrix(.1 0 0 -.1 0 790.66)"/><path d="m53.113281 244.703125h.382813v-25.359375h-.382813zm0 0"/><use x="83.7699" xlink:href="#ao" y="282.905"/><use x="93.634368" xlink:href="#W" y="282.905"/><use x="104.519149" xlink:href="#ae" y="282.905"/><path d="m1036.992188 5453.865625h3.828124v259.296875h-3.828124zm0 0" style="fill:none;stroke-width:3.98506;stroke-linecap:round;stroke-linejoin:round;stroke:#000;stroke-miterlimit:10" transform="matrix(.1 0 0 -.1 0 790.66)"/><path d="m103.699219 245.273438h.382812v-25.929688h-.382812zm0 0"/><use x="130.057" xlink:href="#P" y="243.055"/><use x="127.60778" xlink:href="#ai" y="282.9054"/><use x="138.492561" xlink:href="#aj" y="282.9054"/><use x="6.37578" xlink:href="#T" y="247.0398"/><use x="280.59578" xlink:href="#S" y="239.06988"/><path d="m2513.75 5379.88125h3.828125v253.59375h-3.828125zm0 0" style="fill:none;stroke-width:3.98506;stroke-linecap:round;stroke-linejoin:round;stroke:#000;stroke-miterlimit:10" transform="matrix(.1 0 0 -.1 0 790.66)"/><path d="m251.375 252.671875h.382812v-25.355469h-.382812zm0 0"/><use x="230.671" xlink:href="#aa" y="282.905"/><use x="241.555794" xlink:href="#af" y="282.905"/><use x="245.977688" xlink:href="#ah" y="282.905"/><use x="241.021" xlink:href="#Q" y="255.0097"/><path d="m2122.5 5414.021875h3.828125v259.296875h-3.828125zm0 0" style="fill:none;stroke-width:3.98506;stroke-linecap:round;stroke-linejoin:round;stroke:#000;stroke-miterlimit:10" transform="matrix(.1 0 0 -.1 0 790.66)"/><path d="m212.25 249.257812h.382812v-25.929687h-.382812zm0 0"/><use x="197.339" xlink:href="#ao" y="282.905"/><use x="207.03393" xlink:href="#ar" y="282.905"/><use x="202.42572" xlink:href="#P" y="251.0245"/><use x="166.24132" xlink:href="#P" y="247.03934"/><path d="m1398.828125 5493.709375h3.828125v259.296875h-3.828125zm0 0" style="fill:none;stroke-width:3.98506;stroke-linecap:round;stroke-linejoin:round;stroke:#000;stroke-miterlimit:10" transform="matrix(.1 0 0 -.1 0 790.66)"/><path d="m139.882812 241.289062h.382813v-25.929687h-.382813zm0 0"/><use x="158.349" xlink:href="#aj" y="282.905"/><use x="162.770882" xlink:href="#ai" y="282.905"/><use x="173.655663" xlink:href="#ag" y="282.905"/><path d="m1760.664062 5453.865625h3.828126v259.296875h-3.828126zm0 0" style="fill:none;stroke-width:3.98506;stroke-linecap:round;stroke-linejoin:round;stroke:#000;stroke-miterlimit:10" transform="matrix(.1 0 0 -.1 0 790.66)"/><path d="m176.066406 245.273438h.382813v-25.929688h-.382813zm0 0"/><g clip-path="url(#p)"><path d="m3.007812 4400.076562h5946.757813" style="fill:none;stroke-width:6.00947;stroke-linecap:round;stroke-linejoin:round;stroke:#000;stroke-miterlimit:10" transform="matrix(.1 0 0 -.1 0 790.66)"/></g><g clip-path="url(#q)"><path d="m3.007812 4479.803125h5946.757813" style="fill:none;stroke-width:6.00947;stroke-linecap:round;stroke-linejoin:round;stroke:#000;stroke-miterlimit:10" transform="matrix(.1 0 0 -.1 0 790.66)"/></g><g clip-path="url(#r)"><path d="m3.007812 4559.490625h5946.757813" style="fill:none;stroke-width:6.00947;stroke-linecap:round;stroke-linejoin:round;stroke:#000;stroke-miterlimit:10" transform="matrix(.1 0 0 -.1 0 790.66)"/></g><g clip-path="url(#s)"><path d="m3.007812 4639.178125h5946.757813" style="fill:none;stroke-width:6.00947;stroke-linecap:round;stroke-linejoin:round;stroke:#000;stroke-miterlimit:10" transform="matrix(.1 0 0 -.1 0 790.66)"/></g><g clip-path="url(#t)"><path d="m3.007812 4718.904687h5946.757813" style="fill:none;stroke-width:6.00947;stroke-linecap:round;stroke-linejoin:round;stroke:#000;stroke-miterlimit:10" transform="matrix(.1 0 0 -.1 0 790.66)"/></g><path d="m4476.875 4320.389062h150.039062" style="fill:none;stroke-width:13.9796;stroke-linecap:round;stroke-linejoin:round;stroke:#000;stroke-miterlimit:10" transform="matrix(.1 0 0 -.1 0 790.66)"/><path d="m2423.4375 4320.389062h142.148438" style="fill:none;stroke-width:13.9796;stroke-linecap:round;stroke-linejoin:round;stroke:#000;stroke-miterlimit:10" transform="matrix(.1 0 0 -.1 0 790.66)"/><use x="377.454" xlink:href="#Q" y="354.636"/><path d="m4600.742188 4343.7875h3.828124v253.554687h-3.828124zm0 0" fill="none" stroke="#000" stroke-linejoin="round" stroke-miterlimit="10" stroke-width="3.98506" transform="matrix(.1 0 0 -.1 0 790.66)"/><path d="m460.074219 356.28125h.382812v-25.355469h-.382812zm0 0"/><use x="433.418" xlink:href="#ag" y="378.547"/><use x="444.302794" xlink:href="#ai" y="378.547"/><use x="455.187587" xlink:href="#ah" y="378.547"/><use x="471.514968" xlink:href="#ay" y="378.547"/><use x="449.7207" xlink:href="#Q" y="358.6216"/><path d="m2540.742188 4338.045312h3.828124v259.296875h-3.828124zm0 0" fill="none" stroke="#000" stroke-linejoin="round" stroke-miterlimit="10" stroke-width="3.98506" transform="matrix(.1 0 0 -.1 0 790.66)"/><path d="m254.074219 356.855469h.382812v-25.929688h-.382812zm0 0"/><path d="m3878.085938 4383.63125h3.789062v253.554687h-3.789062zm0 0" fill="none" stroke="#000" stroke-linejoin="round" stroke-miterlimit="10" stroke-width="3.98506" transform="matrix(.1 0 0 -.1 0 790.66)"/><path d="m387.804688 352.296875h.382812v-25.355469h-.382812zm0 0"/><use x="375.267" xlink:href="#aj" y="378.547"/><use x="379.688894" xlink:href="#ai" y="378.547"/><path d="m819.21875 4175.35h47.8125v3.007812h-47.8125zm0 0" fill="none" stroke="#000" stroke-linejoin="round" stroke-miterlimit="10" stroke-width="4.80598" transform="matrix(.1 0 0 -.1 0 790.66)"/><path d="m81.921875 373.125h4.78125v-.300781h-4.78125zm0 0"/><path d="m3216.71875 4417.771875h3.828125v259.257812h-3.828125zm0 0" fill="none" stroke="#000" stroke-linejoin="round" stroke-miterlimit="10" stroke-width="3.98506" transform="matrix(.1 0 0 -.1 0 790.66)"/><path d="m321.671875 348.886719h.382813v-25.929688h-.382813zm0 0"/><use x="309.396" xlink:href="#ai" y="378.547"/><use x="320.280794" xlink:href="#aj" y="378.547"/><use x="311.846" xlink:href="#P" y="350.6517"/><path d="m1480.078125 4175.35h47.8125v3.007812h-47.8125zm0 0" fill="none" stroke="#000" stroke-linejoin="round" stroke-miterlimit="10" stroke-width="4.80598" transform="matrix(.1 0 0 -.1 0 790.66)"/><path d="m148.007812 373.125h4.78125v-.300781h-4.78125zm0 0"/><path d="m2151.679688 4175.35h47.8125v3.007812h-47.8125zm0 0" fill="none" stroke="#000" stroke-linejoin="round" stroke-miterlimit="10" stroke-width="4.80598" transform="matrix(.1 0 0 -.1 0 790.66)"/><path d="m215.167969 373.125h4.78125v-.300781h-4.78125zm0 0"/><path d="m3475.976562 4175.35h47.773438v3.007812h-47.773438zm0 0" fill="none" stroke="#000" stroke-linejoin="round" stroke-miterlimit="10" stroke-width="4.80598" transform="matrix(.1 0 0 -.1 0 790.66)"/><path d="m347.597656 373.125h4.777344v-.300781h-4.777344zm0 0"/><path d="m4096.054688 4175.35h47.8125v3.007812h-47.8125zm0 0" fill="none" stroke="#000" stroke-linejoin="round" stroke-miterlimit="10" stroke-width="4.80598" transform="matrix(.1 0 0 -.1 0 790.66)"/><path d="m409.605469 373.125h4.78125v-.300781h-4.78125zm0 0"/><use x="521.988" xlink:href="#S" y="334.711"/><use x="6.376" xlink:href="#T" y="342.68092"/><path d="m531.132812 4423.475h3.828126v253.554687h-3.828126zm0 0" fill="none" stroke="#000" stroke-linejoin="round" stroke-miterlimit="10" stroke-width="3.98506" transform="matrix(.1 0 0 -.1 0 790.66)"/><path d="m53.113281 348.3125h.382813v-25.355469h-.382813zm0 0"/><use x="233.634" xlink:href="#ag" y="378.547"/><use x="244.518794" xlink:href="#ab" y="378.547"/><use x="255.403587" xlink:href="#ae" y="378.547"/><use x="42.759" xlink:href="#Q" y="350.6517"/><use x="37.68205" xlink:href="#az" y="378.547"/><use x="47.886756" xlink:href="#aA" y="378.547"/><use x="244.24705" xlink:href="#P" y="358.6216"/><path d="m1904.609375 4417.771875h3.789063v259.257812h-3.789063zm0 0" fill="none" stroke="#000" stroke-linejoin="round" stroke-miterlimit="10" stroke-width="3.98506" transform="matrix(.1 0 0 -.1 0 790.66)"/><path d="m190.460938 348.886719h.378906v-25.929688h-.378906zm0 0"/><use x="170.191" xlink:href="#ae" y="378.547"/><use x="179.71524" xlink:href="#W" y="378.547"/><use x="190.600021" xlink:href="#aB" y="378.547"/><use x="180.6344" xlink:href="#P" y="350.6517"/><path d="m1248.554688 4457.615625h3.828124v259.296875h-3.828124zm0 0" fill="none" stroke="#000" stroke-linejoin="round" stroke-miterlimit="10" stroke-width="3.98506" transform="matrix(.1 0 0 -.1 0 790.66)"/><path d="m124.851562 344.898438h.382813v-25.929688h-.382813zm0 0"/><use x="109.856" xlink:href="#ao" y="378.547"/><use x="119.720865" xlink:href="#ab" y="378.547"/><use x="115.02709" xlink:href="#P" y="346.6665"/><g clip-path="url(#u)"><path d="m3.007812 3443.670312h5946.757813" style="fill:none;stroke-width:6.00947;stroke-linecap:round;stroke-linejoin:round;stroke:#000;stroke-miterlimit:10" transform="matrix(.1 0 0 -.1 0 790.66)"/></g><g clip-path="url(#v)"><path d="m3.007812 3523.396875h5946.757813" style="fill:none;stroke-width:6.00947;stroke-linecap:round;stroke-linejoin:round;stroke:#000;stroke-miterlimit:10" transform="matrix(.1 0 0 -.1 0 790.66)"/></g><g clip-path="url(#w)"><path d="m3.007812 3603.084375h5946.757813" style="fill:none;stroke-width:6.00947;stroke-linecap:round;stroke-linejoin:round;stroke:#000;stroke-miterlimit:10" transform="matrix(.1 0 0 -.1 0 790.66)"/></g><g clip-path="url(#x)"><path d="m3.007812 3682.771875h5946.757813" style="fill:none;stroke-width:6.00947;stroke-linecap:round;stroke-linejoin:round;stroke:#000;stroke-miterlimit:10" transform="matrix(.1 0 0 -.1 0 790.66)"/></g><g clip-path="url(#y)"><path d="m3.007812 3762.498437h5946.757813" style="fill:none;stroke-width:6.00947;stroke-linecap:round;stroke-linejoin:round;stroke:#000;stroke-miterlimit:10" transform="matrix(.1 0 0 -.1 0 790.66)"/></g><g fill="none" stroke="#000" stroke-linejoin="round" stroke-miterlimit="10" transform="matrix(.1 0 0 -.1 0 790.66)"><path d="m816.796875 3363.982812h142.148437" stroke-linecap="round" stroke-width="13.9796"/><path d="m407.265625 3363.982812h150.039063" stroke-linecap="round" stroke-width="13.9796"/><path d="m3965.625 3339.4125h3.828125v245.976562h-3.828125zm0 0" stroke-width="3.98506"/></g><path d="m396.5625 456.71875h.382812v-24.597656h-.382812zm0 0"/><use x="433.266" xlink:href="#P" y="426.367"/><use x="425.2035" xlink:href="#ab" y="477.1272"/><use x="436.428528" xlink:href="#aC" y="477.1272"/><use x="446.293405" xlink:href="#ac" y="477.1272"/><path d="m4334.648438 3365.975h3.828124v259.296875h-3.828124zm0 0" fill="none" stroke="#000" stroke-linejoin="round" stroke-miterlimit="10" stroke-width="3.98506" transform="matrix(.1 0 0 -.1 0 790.66)"/><path d="m433.464844 454.0625h.382812v-25.925781h-.382812zm0 0"/><use x="483.775" xlink:href="#P" y="434.337"/><use x="464.4875" xlink:href="#ah" y="477.1272"/><use x="480.814881" xlink:href="#W" y="477.1272"/><use x="491.699675" xlink:href="#ag" y="477.1272"/><use x="502.584468" xlink:href="#aB" y="477.1272"/><path d="m4936.015625 3580.896875h3.828125v259.296875h-3.828125zm0 0" fill="none" stroke="#000" stroke-linejoin="round" stroke-miterlimit="10" stroke-width="3.98506" transform="matrix(.1 0 0 -.1 0 790.66)"/><path d="m493.601562 432.570312h.382813v-25.929687h-.382813zm0 0"/><use x="390.681" xlink:href="#X" y="477.128"/><use x="397.144286" xlink:href="#au" y="477.128"/><use x="408.029079" xlink:href="#aj" y="477.128"/><use x="396.36225" xlink:href="#P" y="430.353"/><path d="m3642.695312 3580.896875h3.828126v259.296875h-3.828126zm0 0" fill="none" stroke="#000" stroke-linejoin="round" stroke-miterlimit="10" stroke-width="3.98506" transform="matrix(.1 0 0 -.1 0 790.66)"/><path d="m364.269531 432.570312h.382813v-25.929687h-.382813zm0 0"/><use x="341.363" xlink:href="#ae" y="477.128"/><use x="350.717305" xlink:href="#ai" y="477.128"/><use x="361.602099" xlink:href="#ah" y="477.128"/><use x="354.4427" xlink:href="#P" y="434.3378"/><path d="m3204.84375 3546.75625h3.828125v253.59375h-3.828125zm0 0" fill="none" stroke="#000" stroke-linejoin="round" stroke-miterlimit="10" stroke-width="3.98506" transform="matrix(.1 0 0 -.1 0 790.66)"/><path d="m320.484375 435.984375h.382813v-25.359375h-.382813zm0 0"/><use x="302.588" xlink:href="#aD" y="477.128"/><use x="313.302871" xlink:href="#ai" y="477.128"/><use x="324.187664" xlink:href="#aj" y="477.128"/><use x="310.13136" xlink:href="#Q" y="438.3229"/><path d="m642.03125 3189.529687h47.8125v3.007813h-47.8125zm0 0" fill="none" stroke="#000" stroke-linejoin="round" stroke-miterlimit="10" stroke-width="4.80598" transform="matrix(.1 0 0 -.1 0 790.66)"/><path d="m64.203125 471.707031h4.78125v-.300781h-4.78125zm0 0"/><path d="m1932.8125 3189.529687h47.8125v3.007813h-47.8125zm0 0" fill="none" stroke="#000" stroke-linejoin="round" stroke-miterlimit="10" stroke-width="4.80598" transform="matrix(.1 0 0 -.1 0 790.66)"/><path d="m193.28125 471.707031h4.78125v-.300781h-4.78125zm0 0"/><path d="m2322.265625 3189.529687h47.8125v3.007813h-47.8125zm0 0" fill="none" stroke="#000" stroke-linejoin="round" stroke-miterlimit="10" stroke-width="4.80598" transform="matrix(.1 0 0 -.1 0 790.66)"/><path d="m232.226562 471.707031h4.78125v-.300781h-4.78125zm0 0"/><path d="m3325.976562 3189.529687h47.773438v3.007813h-47.773438zm0 0" fill="none" stroke="#000" stroke-linejoin="round" stroke-miterlimit="10" stroke-width="4.80598" transform="matrix(.1 0 0 -.1 0 790.66)"/><path d="m332.597656 471.707031h4.777344v-.300781h-4.777344zm0 0"/><path d="m3819.140625 3189.529687h47.8125v3.007813h-47.8125zm0 0" fill="none" stroke="#000" stroke-linejoin="round" stroke-miterlimit="10" stroke-width="4.80598" transform="matrix(.1 0 0 -.1 0 790.66)"/><path d="m381.914062 471.707031h4.78125v-.300781h-4.78125zm0 0"/><path d="m5174.570312 3189.529687h47.773438v3.007813h-47.773438zm0 0" fill="none" stroke="#000" stroke-linejoin="round" stroke-miterlimit="10" stroke-width="4.80598" transform="matrix(.1 0 0 -.1 0 790.66)"/><path d="m517.457031 471.707031h4.777344v-.300781h-4.777344zm0 0"/><use x="565.074" xlink:href="#S" y="430.353"/><path d="m5462.460938 3546.75625h3.828124v253.59375h-3.828124zm0 0" fill="none" stroke="#000" stroke-linejoin="round" stroke-miterlimit="10" stroke-width="3.98506" transform="matrix(.1 0 0 -.1 0 790.66)"/><path d="m546.246094 435.984375h.382812v-25.359375h-.382812zm0 0"/><use x="526.223" xlink:href="#aE" y="477.128"/><use x="530.644894" xlink:href="#Z" y="477.128"/><use x="541.529688" xlink:href="#ae" y="477.128"/><use x="551.05394" xlink:href="#aF" y="477.128"/><use x="535.89253" xlink:href="#Q" y="438.3229"/><use x="83.58353" xlink:href="#P" y="454.2631"/><use x="42.76004" xlink:href="#Q" y="454.2631"/><use x="36.23743" xlink:href="#aG" y="477.1279"/><use x="49.332765" xlink:href="#W" y="477.1279"/><path d="m531.132812 3387.342187h3.828126v253.59375h-3.828126zm0 0" fill="none" stroke="#000" stroke-linejoin="round" stroke-miterlimit="10" stroke-width="3.98506" transform="matrix(.1 0 0 -.1 0 790.66)"/><path d="m53.113281 451.925781h.382813v-25.359375h-.382813zm0 0"/><use x="72.9703" xlink:href="#ae" y="477.128"/><use x="82.835159" xlink:href="#ab" y="477.128"/><use x="93.719946" xlink:href="#ag" y="477.128"/><path d="m934.101562 3381.639062h3.828126v259.296875h-3.828126zm0 0" fill="none" stroke="#000" stroke-linejoin="round" stroke-miterlimit="10" stroke-width="3.98506" transform="matrix(.1 0 0 -.1 0 790.66)"/><path d="m93.410156 452.496094h.382813v-25.929688h-.382813zm0 0"/><use x="125.419" xlink:href="#P" y="450.278"/><use x="117.3565" xlink:href="#ab" y="477.128"/><use x="128.581517" xlink:href="#aC" y="477.128"/><use x="138.446381" xlink:href="#ac" y="477.128"/><use x="6.3765" xlink:href="#T" y="438.3229"/><use x="279.9295" xlink:href="#S" y="430.35298"/><path d="m2611.015625 3546.75625h3.828125v253.59375h-3.828125zm0 0" fill="none" stroke="#000" stroke-linejoin="round" stroke-miterlimit="10" stroke-width="3.98506" transform="matrix(.1 0 0 -.1 0 790.66)"/><path d="m261.101562 435.984375h.382813v-25.359375h-.382813zm0 0"/><use x="240.993" xlink:href="#aE" y="477.128"/><use x="245.414894" xlink:href="#Z" y="477.128"/><use x="256.299688" xlink:href="#ae" y="477.128"/><use x="265.994618" xlink:href="#am" y="477.128"/><use x="250.74769" xlink:href="#Q" y="438.3229"/><path d="m2197.65625 3501.209375h3.828125v259.296875h-3.828125zm0 0" fill="none" stroke="#000" stroke-linejoin="round" stroke-miterlimit="10" stroke-width="3.98506" transform="matrix(.1 0 0 -.1 0 790.66)"/><path d="m219.765625 440.539062h.382813v-25.925781h-.382813zm0 0"/><use x="202.049" xlink:href="#aB" y="477.128"/><use x="212.933794" xlink:href="#W" y="477.128"/><use x="223.818587" xlink:href="#aj" y="477.128"/><use x="209.9408" xlink:href="#P" y="442.3081"/><use x="167.7654" xlink:href="#P" y="446.29326"/><path d="m1352.460938 3421.482812h3.828124v259.296875h-3.828124zm0 0" fill="none" stroke="#000" stroke-linejoin="round" stroke-miterlimit="10" stroke-width="3.98506" transform="matrix(.1 0 0 -.1 0 790.66)"/><path d="m135.246094 448.511719h.382812v-25.929688h-.382812zm0 0"/><use x="156.641" xlink:href="#aa" y="477.128"/><use x="167.525781" xlink:href="#W" y="477.128"/><use x="178.410563" xlink:href="#ag" y="477.128"/><path d="m1775.898438 3461.326562h3.828124v259.296875h-3.828124zm0 0" fill="none" stroke="#000" stroke-linejoin="round" stroke-miterlimit="10" stroke-width="3.98506" transform="matrix(.1 0 0 -.1 0 790.66)"/><path d="m177.589844 444.527344h.382812v-25.929688h-.382812zm0 0"/><g clip-path="url(#z)"><path d="m3.007812 2487.264062h5946.757813" style="fill:none;stroke-width:6.00947;stroke-linecap:round;stroke-linejoin:round;stroke:#000;stroke-miterlimit:10" transform="matrix(.1 0 0 -.1 0 790.66)"/></g><g clip-path="url(#A)"><path d="m3.007812 2566.951562h5946.757813" style="fill:none;stroke-width:6.00947;stroke-linecap:round;stroke-linejoin:round;stroke:#000;stroke-miterlimit:10" transform="matrix(.1 0 0 -.1 0 790.66)"/></g><g clip-path="url(#B)"><path d="m3.007812 2646.678125h5946.757813" style="fill:none;stroke-width:6.00947;stroke-linecap:round;stroke-linejoin:round;stroke:#000;stroke-miterlimit:10" transform="matrix(.1 0 0 -.1 0 790.66)"/></g><g clip-path="url(#C)"><path d="m3.007812 2726.365625h5946.757813" style="fill:none;stroke-width:6.00947;stroke-linecap:round;stroke-linejoin:round;stroke:#000;stroke-miterlimit:10" transform="matrix(.1 0 0 -.1 0 790.66)"/></g><g clip-path="url(#D)"><path d="m3.007812 2806.053125h5946.757813" style="fill:none;stroke-width:6.00947;stroke-linecap:round;stroke-linejoin:round;stroke:#000;stroke-miterlimit:10" transform="matrix(.1 0 0 -.1 0 790.66)"/></g><use x="377.454" xlink:href="#Q" y="537.949"/><path d="m4600.742188 2510.623437h3.828124v253.59375h-3.828124zm0 0" style="fill:none;stroke-width:3.98506;stroke-linecap:round;stroke-linejoin:round;stroke:#000;stroke-miterlimit:10" transform="matrix(.1 0 0 -.1 0 790.66)"/><path d="m460.074219 539.597656h.382812v-25.359375h-.382812zm0 0"/><use x="441.752" xlink:href="#aa" y="569.83"/><use x="452.466871" xlink:href="#ab" y="569.83"/><use x="463.182134" xlink:href="#am" y="569.83"/><use x="449.72036" xlink:href="#Q" y="541.9343"/><path d="m2560.664062 2624.490625h3.828126v259.296875h-3.828126zm0 0" style="fill:none;stroke-width:3.98506;stroke-linecap:round;stroke-linejoin:round;stroke:#000;stroke-miterlimit:10" transform="matrix(.1 0 0 -.1 0 790.66)"/><path d="m256.066406 528.210938h.382813v-25.929688h-.382813zm0 0"/><path d="m3878.085938 2550.50625h3.789062v253.554687h-3.789062zm0 0" style="fill:none;stroke-width:3.98506;stroke-linecap:round;stroke-linejoin:round;stroke:#000;stroke-miterlimit:10" transform="matrix(.1 0 0 -.1 0 790.66)"/><path d="m387.804688 535.609375h.382812v-25.355469h-.382812zm0 0"/><use x="369.824" xlink:href="#aB" y="569.83"/><use x="380.708794" xlink:href="#W" y="569.83"/><use x="391.593978" xlink:href="#aj" y="569.83"/><path d="m810.3125 2262.498437h47.8125v3.007813h-47.8125zm0 0" style="fill:none;stroke-width:4.80598;stroke-linecap:round;stroke-linejoin:round;stroke:#000;stroke-miterlimit:10" transform="matrix(.1 0 0 -.1 0 790.66)"/><path d="m81.03125 564.410156h4.78125v-.300781h-4.78125zm0 0"/><path d="m3216.71875 2584.646875h3.828125v259.257812h-3.828125zm0 0" style="fill:none;stroke-width:3.98506;stroke-linecap:round;stroke-linejoin:round;stroke:#000;stroke-miterlimit:10" transform="matrix(.1 0 0 -.1 0 790.66)"/><path d="m321.671875 532.195312h.382813v-25.925781h-.382813zm0 0"/><use x="301.233" xlink:href="#ag" y="569.83"/><use x="312.117794" xlink:href="#ai" y="569.83"/><use x="323.002587" xlink:href="#ae" y="569.83"/><use x="311.8467" xlink:href="#P" y="533.9644"/><path d="m1454.140625 2262.498437h47.8125v3.007813h-47.8125zm0 0" style="fill:none;stroke-width:4.80598;stroke-linecap:round;stroke-linejoin:round;stroke:#000;stroke-miterlimit:10" transform="matrix(.1 0 0 -.1 0 790.66)"/><path d="m145.414062 564.410156h4.777344v-.300781h-4.777344zm0 0"/><path d="m2793.90625 2262.498437h47.8125v3.007813h-47.8125zm0 0" style="fill:none;stroke-width:4.80598;stroke-linecap:round;stroke-linejoin:round;stroke:#000;stroke-miterlimit:10" transform="matrix(.1 0 0 -.1 0 790.66)"/><path d="m279.390625 564.410156h4.78125v-.300781h-4.78125zm0 0"/><path d="m4164.921875 2262.498437h47.8125v3.007813h-47.8125zm0 0" style="fill:none;stroke-width:4.80598;stroke-linecap:round;stroke-linejoin:round;stroke:#000;stroke-miterlimit:10" transform="matrix(.1 0 0 -.1 0 790.66)"/><path d="m416.492188 564.410156h4.78125v-.300781h-4.78125zm0 0"/><use x="521.988" xlink:href="#S" y="525.994"/><use x="6.376" xlink:href="#T" y="533.96392"/><path d="m531.132812 2590.35h3.828126v253.554687h-3.828126zm0 0" style="fill:none;stroke-width:3.98506;stroke-linecap:round;stroke-linejoin:round;stroke:#000;stroke-miterlimit:10" transform="matrix(.1 0 0 -.1 0 790.66)"/><path d="m53.113281 531.625h.382813v-25.355469h-.382813zm0 0"/><use x="240.559" xlink:href="#ai" y="569.83"/><use x="251.443794" xlink:href="#ag" y="569.83"/><use x="42.76" xlink:href="#Q" y="533.9644"/><use x="39.63891" xlink:href="#as" y="569.83"/><use x="52.394795" xlink:href="#aj" y="569.83"/><use x="246.24091" xlink:href="#P" y="529.9792"/><path d="m1904.609375 2584.646875h3.789063v259.257812h-3.789063zm0 0" style="fill:none;stroke-width:3.98506;stroke-linecap:round;stroke-linejoin:round;stroke:#000;stroke-miterlimit:10" transform="matrix(.1 0 0 -.1 0 790.66)"/><path d="m190.460938 532.195312h.378906v-25.925781h-.378906zm0 0"/><use x="165.173" xlink:href="#ao" y="569.83"/><use x="175.037474" xlink:href="#aC" y="569.83"/><use x="184.392181" xlink:href="#ai" y="569.83"/><use x="195.10704" xlink:href="#ac" y="569.83"/><use x="201.06018" xlink:href="#ac" y="569.83"/><use x="180.6343" xlink:href="#P" y="533.9644"/><path d="m1248.554688 2584.646875h3.828124v259.257812h-3.828124zm0 0" style="fill:none;stroke-width:3.98506;stroke-linecap:round;stroke-linejoin:round;stroke:#000;stroke-miterlimit:10" transform="matrix(.1 0 0 -.1 0 790.66)"/><path d="m124.851562 532.195312h.382813v-25.925781h-.382813zm0 0"/><use x="110.027" xlink:href="#an" y="569.83"/><use x="119.55124" xlink:href="#ai" y="569.83"/><use x="115.027" xlink:href="#P" y="533.9644"/><g clip-path="url(#E)"><path d="m3.007812 1530.857812h5946.757813" style="fill:none;stroke-width:6.00947;stroke-linecap:round;stroke-linejoin:round;stroke:#000;stroke-miterlimit:10" transform="matrix(.1 0 0 -.1 0 790.66)"/></g><g clip-path="url(#F)"><path d="m3.007812 1610.545312h5946.757813" style="fill:none;stroke-width:6.00947;stroke-linecap:round;stroke-linejoin:round;stroke:#000;stroke-miterlimit:10" transform="matrix(.1 0 0 -.1 0 790.66)"/></g><g clip-path="url(#G)"><path d="m3.007812 1690.232812h5946.757813" style="fill:none;stroke-width:6.00947;stroke-linecap:round;stroke-linejoin:round;stroke:#000;stroke-miterlimit:10" transform="matrix(.1 0 0 -.1 0 790.66)"/></g><g clip-path="url(#H)"><path d="m3.007812 1769.959375h5946.757813" style="fill:none;stroke-width:6.00947;stroke-linecap:round;stroke-linejoin:round;stroke:#000;stroke-miterlimit:10" transform="matrix(.1 0 0 -.1 0 790.66)"/></g><g clip-path="url(#I)"><path d="m3.007812 1849.646875h5946.757813" style="fill:none;stroke-width:6.00947;stroke-linecap:round;stroke-linejoin:round;stroke:#000;stroke-miterlimit:10" transform="matrix(.1 0 0 -.1 0 790.66)"/></g><path d="m407.265625 1451.13125h150.039063" style="fill:none;stroke-width:13.9796;stroke-linecap:round;stroke-linejoin:round;stroke:#000;stroke-miterlimit:10" transform="matrix(.1 0 0 -.1 0 790.66)"/><use x="386.899" xlink:href="#Y" y="668.41"/><use x="397.783794" xlink:href="#ab" y="668.41"/><use x="408.668587" xlink:href="#aa" y="668.41"/><use x="419.383458" xlink:href="#ak" y="668.41"/><path d="m4030.664062 1453.123437h3.828126v259.296875h-3.828126zm0 0" fill="none" stroke="#000" stroke-linejoin="round" stroke-miterlimit="10" stroke-width="3.98506" transform="matrix(.1 0 0 -.1 0 790.66)"/><path d="m403.066406 645.347656h.382813v-25.929687h-.382813zm0 0"/><use x="444.96" xlink:href="#P" y="617.65"/><use x="441.99984" xlink:href="#ac" y="668.4098"/><use x="447.442823" xlink:href="#ab" y="668.4098"/><path d="m4451.601562 1453.123437h3.828126v259.296875h-3.828126zm0 0" fill="none" stroke="#000" stroke-linejoin="round" stroke-miterlimit="10" stroke-width="3.98506" transform="matrix(.1 0 0 -.1 0 790.66)"/><path d="m445.160156 645.347656h.382813v-25.929687h-.382813zm0 0"/><use x="480.392" xlink:href="#P" y="621.635"/><use x="477.942" xlink:href="#aq" y="668.41"/><use x="483.384592" xlink:href="#ao" y="668.41"/><path d="m4805.898438 1426.560937h3.828124v246.015625h-3.828124zm0 0" fill="none" stroke="#000" stroke-linejoin="round" stroke-miterlimit="10" stroke-width="3.98506" transform="matrix(.1 0 0 -.1 0 790.66)"/><path d="m480.589844 648.003906h.382812v-24.601562h-.382812zm0 0"/><use x="402.87" xlink:href="#P" y="617.65"/><path d="m3711.132812 1668.084375h3.828126v259.296875h-3.828126zm0 0" fill="none" stroke="#000" stroke-linejoin="round" stroke-miterlimit="10" stroke-width="3.98506" transform="matrix(.1 0 0 -.1 0 790.66)"/><path d="m371.113281 623.851562h.382813v-25.925781h-.382813zm0 0"/><use x="358.839" xlink:href="#ai" y="668.41"/><use x="369.723794" xlink:href="#aj" y="668.41"/><use x="361.289" xlink:href="#P" y="625.6202"/><path d="m3310.742188 1633.94375h3.828124v253.554687h-3.828124zm0 0" fill="none" stroke="#000" stroke-linejoin="round" stroke-miterlimit="10" stroke-width="3.98506" transform="matrix(.1 0 0 -.1 0 790.66)"/><path d="m331.074219 627.265625h.382812v-25.355469h-.382812zm0 0"/><use x="306.289" xlink:href="#aH" y="668.41"/><use x="322.616772" xlink:href="#ai" y="668.41"/><use x="333.501565" xlink:href="#X" y="668.41"/><use x="340.644931" xlink:href="#ac" y="668.41"/><use x="320.7206" xlink:href="#Q" y="629.6053"/><path d="m666.25 1276.717187h47.773438v2.96875h-47.773438zm0 0" fill="none" stroke="#000" stroke-linejoin="round" stroke-miterlimit="10" stroke-width="4.80598" transform="matrix(.1 0 0 -.1 0 790.66)"/><path d="m66.625 662.988281h4.777344v-.296875h-4.777344zm0 0"/><path d="m1053.164062 1276.717187h47.773438v2.96875h-47.773438zm0 0" fill="none" stroke="#000" stroke-linejoin="round" stroke-miterlimit="10" stroke-width="4.80598" transform="matrix(.1 0 0 -.1 0 790.66)"/><path d="m105.316406 662.988281h4.777344v-.296875h-4.777344zm0 0"/><path d="m1411.484375 1276.717187h47.773437v2.96875h-47.773437zm0 0" fill="none" stroke="#000" stroke-linejoin="round" stroke-miterlimit="10" stroke-width="4.80598" transform="matrix(.1 0 0 -.1 0 790.66)"/><path d="m141.148438 662.988281h4.777343v-.296875h-4.777343zm0 0"/><path d="m2153.671875 1276.717187h47.773437v2.96875h-47.773437zm0 0" fill="none" stroke="#000" stroke-linejoin="round" stroke-miterlimit="10" stroke-width="4.80598" transform="matrix(.1 0 0 -.1 0 790.66)"/><path d="m215.367188 662.988281h4.777343v-.296875h-4.777343zm0 0"/><path d="m3781.328125 1276.717187h47.773437v2.96875h-47.773437zm0 0" fill="none" stroke="#000" stroke-linejoin="round" stroke-miterlimit="10" stroke-width="4.80598" transform="matrix(.1 0 0 -.1 0 790.66)"/><path d="m378.132812 662.988281h4.777344v-.296875h-4.777344zm0 0"/><path d="m4332.34375 1276.717187h47.8125v2.96875h-47.8125zm0 0" fill="none" stroke="#000" stroke-linejoin="round" stroke-miterlimit="10" stroke-width="4.80598" transform="matrix(.1 0 0 -.1 0 790.66)"/><path d="m433.234375 662.988281h4.777344v-.296875h-4.777344zm0 0"/><path d="m4972.34375 1276.717187h47.8125v2.96875h-47.8125zm0 0" fill="none" stroke="#000" stroke-linejoin="round" stroke-miterlimit="10" stroke-width="4.80598" transform="matrix(.1 0 0 -.1 0 790.66)"/><path d="m497.234375 662.988281h4.78125v-.296875h-4.78125zm0 0"/><use x="555.516" xlink:href="#S" y="621.635"/><path d="m5169.765625 1453.123437h3.828125v253.59375h-3.828125zm0 0" fill="none" stroke="#000" stroke-linejoin="round" stroke-miterlimit="10" stroke-width="3.98506" transform="matrix(.1 0 0 -.1 0 790.66)"/><path d="m516.976562 645.347656h.382813v-25.359375h-.382813zm0 0"/><use x="506.002" xlink:href="#ac" y="668.41"/><use x="511.274278" xlink:href="#ai" y="668.41"/><use x="522.159072" xlink:href="#ag" y="668.41"/><use x="533.043865" xlink:href="#am" y="668.41"/><use x="516.777" xlink:href="#Q" y="617.6502"/><use x="77.811" xlink:href="#aa" y="668.41"/><use x="88.695787" xlink:href="#aI" y="668.41"/><use x="94.138764" xlink:href="#ac" y="668.41"/><use x="42.7602" xlink:href="#Q" y="645.5455"/><use x="36.23754" xlink:href="#aG" y="668.41"/><use x="49.332875" xlink:href="#ai" y="668.41"/><path d="m531.132812 1474.529687h3.828126v253.59375h-3.828126zm0 0" fill="none" stroke="#000" stroke-linejoin="round" stroke-miterlimit="10" stroke-width="3.98506" transform="matrix(.1 0 0 -.1 0 790.66)"/><path d="m53.113281 643.207031h.382813v-25.359375h-.382813zm0 0"/><use x="83.4918" xlink:href="#P" y="637.575"/><path d="m933.164062 1548.514062h3.828126v259.296875h-3.828126zm0 0" fill="none" stroke="#000" stroke-linejoin="round" stroke-miterlimit="10" stroke-width="3.98506" transform="matrix(.1 0 0 -.1 0 790.66)"/><path d="m93.316406 635.808594h.382813v-25.929688h-.382813zm0 0"/><use x="120.916" xlink:href="#P" y="629.605"/><use x="115.82967" xlink:href="#ao" y="668.4097"/><use x="125.524613" xlink:href="#ar" y="668.4097"/><path d="m1307.421875 1628.201562h3.828125v259.296875h-3.828125zm0 0" fill="none" stroke="#000" stroke-linejoin="round" stroke-miterlimit="10" stroke-width="3.98506" transform="matrix(.1 0 0 -.1 0 790.66)"/><path d="m130.742188 627.839844h.382812v-25.929688h-.382812zm0 0"/><use x="280.961" xlink:href="#S" y="621.635"/><use x="6.376" xlink:href="#T" y="629.60531"/><use x="181.524" xlink:href="#R" y="633.59047"/><path d="m2029.0625 1588.357812h3.828125v259.296875h-3.828125zm0 0" fill="none" stroke="#000" stroke-linejoin="round" stroke-miterlimit="10" stroke-width="3.98506" transform="matrix(.1 0 0 -.1 0 790.66)"/><path d="m202.90625 631.824219h.382812v-25.929688h-.382812zm0 0"/><use x="185.189" xlink:href="#ag" y="668.41"/><use x="196.073781" xlink:href="#af" y="668.41"/><use x="200.495663" xlink:href="#ag" y="668.41"/><use x="242.2218" xlink:href="#Q" y="629.6053"/><use x="193.0812" xlink:href="#P" y="633.59046"/><use x="224.1328" xlink:href="#aJ" y="668.40996"/><use x="234.167184" xlink:href="#ao" y="668.40996"/><use x="244.031646" xlink:href="#ai" y="668.40996"/><use x="254.91644" xlink:href="#ag" y="668.40996"/><use x="265.801233" xlink:href="#am" y="668.40996"/><path d="m2525.742188 1633.94375h3.828124v253.554687h-3.828124zm0 0" fill="none" stroke="#000" stroke-linejoin="round" stroke-miterlimit="10" stroke-width="3.98506" transform="matrix(.1 0 0 -.1 0 790.66)"/><path d="m252.574219 627.265625h.382812v-25.355469h-.382812zm0 0"/><path d="m1661.71875 1628.201562h3.828125v259.296875h-3.828125zm0 0" fill="none" stroke="#000" stroke-linejoin="round" stroke-miterlimit="10" stroke-width="3.98506" transform="matrix(.1 0 0 -.1 0 790.66)"/><path d="m166.171875 627.839844h.382813v-25.929688h-.382813zm0 0"/><use x="150.666" xlink:href="#aa" y="668.41"/><use x="161.550781" xlink:href="#ai" y="668.41"/><use x="156.34686" xlink:href="#P" y="629.6053"/><g clip-path="url(#J)"><path d="m3.007812 574.451562h5946.757813" style="fill:none;stroke-width:6.00947;stroke-linecap:round;stroke-linejoin:round;stroke:#000;stroke-miterlimit:10" transform="matrix(.1 0 0 -.1 0 790.66)"/></g><g clip-path="url(#K)"><path d="m3.007812 654.139062h5946.757813" style="fill:none;stroke-width:6.00947;stroke-linecap:round;stroke-linejoin:round;stroke:#000;stroke-miterlimit:10" transform="matrix(.1 0 0 -.1 0 790.66)"/></g><g clip-path="url(#L)"><path d="m3.007812 733.826562h5946.757813" style="fill:none;stroke-width:6.00947;stroke-linecap:round;stroke-linejoin:round;stroke:#000;stroke-miterlimit:10" transform="matrix(.1 0 0 -.1 0 790.66)"/></g><g clip-path="url(#M)"><path d="m3.007812 813.553125h5946.757813" style="fill:none;stroke-width:6.00947;stroke-linecap:round;stroke-linejoin:round;stroke:#000;stroke-miterlimit:10" transform="matrix(.1 0 0 -.1 0 790.66)"/></g><g clip-path="url(#N)"><path d="m3.007812 893.240625h5946.757813" style="fill:none;stroke-width:6.00947;stroke-linecap:round;stroke-linejoin:round;stroke:#000;stroke-miterlimit:10" transform="matrix(.1 0 0 -.1 0 790.66)"/></g><path d="m4929.0625 494.725h223.789062" style="fill:none;stroke-width:13.9796;stroke-linecap:round;stroke-linejoin:round;stroke:#000;stroke-miterlimit:10" transform="matrix(.1 0 0 -.1 0 790.66)"/><g clip-path="url(#O)"><path d="m5934.726562 574.451562v318.789063" fill="none" stroke="#000" stroke-linejoin="round" stroke-miterlimit="10" stroke-width="36.0329" transform="matrix(.1 0 0 -.1 0 790.66)"/></g><path d="m5893.007812 574.451562v318.789063" fill="none" stroke="#000" stroke-linejoin="round" stroke-miterlimit="10" stroke-width="11.4132" transform="matrix(.1 0 0 -.1 0 790.66)"/><use x="496.17" xlink:href="#U" y="741.187"/><use x="269.16" xlink:href="#P" y="729.2315"/><path d="m4258.515625 557.967187h3.828125v253.59375h-3.828125zm0 0" fill="none" stroke="#000" stroke-linejoin="round" stroke-miterlimit="10" stroke-width="3.98506" transform="matrix(.1 0 0 -.1 0 790.66)"/><path d="m425.851562 734.863281h.382813v-25.355469h-.382813zm0 0"/><use x="401.918" xlink:href="#ah" y="761.1916"/><use x="418.245772" xlink:href="#aK" y="761.1916"/><use x="429.130565" xlink:href="#aB" y="761.1916"/><use x="415.4993" xlink:href="#Q" y="737.2018"/><path d="m3521.5625 592.107812h3.828125v259.296875h-3.828125zm0 0" fill="none" stroke="#000" stroke-linejoin="round" stroke-miterlimit="10" stroke-width="3.98506" transform="matrix(.1 0 0 -.1 0 790.66)"/><path d="m352.15625 731.449219h.382812v-25.929688h-.382812zm0 0"/><use x="328.994" xlink:href="#aj" y="761.1916"/><use x="333.415894" xlink:href="#W" y="761.1916"/><use x="344.300688" xlink:href="#ag" y="761.1916"/><use x="355.185481" xlink:href="#aB" y="761.1916"/><use x="342.3299" xlink:href="#P" y="733.2166"/><path d="m2789.84375 631.951562h3.828125v259.296875h-3.828125zm0 0" fill="none" stroke="#000" stroke-linejoin="round" stroke-miterlimit="10" stroke-width="3.98506" transform="matrix(.1 0 0 -.1 0 790.66)"/><path d="m278.984375 727.464844h.382813v-25.929688h-.382813zm0 0"/><use x="263.479" xlink:href="#V" y="761.1916"/><use x="274.363794" xlink:href="#W" y="761.1916"/><path d="m1630.703125 348.904687h47.8125v2.96875h-47.8125zm0 0" fill="none" stroke="#000" stroke-linejoin="round" stroke-miterlimit="10" stroke-width="4.80598" transform="matrix(.1 0 0 -.1 0 790.66)"/><path d="m163.070312 755.773438h4.777344v-.300782h-4.777344zm0 0"/><path d="m3047.304688 348.904687h47.8125v2.96875h-47.8125zm0 0" fill="none" stroke="#000" stroke-linejoin="round" stroke-miterlimit="10" stroke-width="4.80598" transform="matrix(.1 0 0 -.1 0 790.66)"/><path d="m304.730469 755.773438h4.78125v-.300782h-4.78125zm0 0"/><path d="m4640.117188 348.904687h47.773437v2.96875h-47.773437zm0 0" fill="none" stroke="#000" stroke-linejoin="round" stroke-miterlimit="10" stroke-width="4.80598" transform="matrix(.1 0 0 -.1 0 790.66)"/><path d="m464.007812 755.773438h4.78125v-.300782h-4.78125zm0 0"/><use x="492.785" xlink:href="#X" y="761.1916"/><use x="499.248286" xlink:href="#ab" y="761.1916"/><use x="509.963157" xlink:href="#ay" y="761.1916"/><use x="6.376" xlink:href="#T" y="725.2467"/><path d="m429.609375 496.717187h3.789063v253.59375h-3.789063zm0 0" fill="none" stroke="#000" stroke-linejoin="round" stroke-miterlimit="10" stroke-width="3.98506" transform="matrix(.1 0 0 -.1 0 790.66)"/><path d="m42.957031 740.988281h.382813v-25.359375h-.382813zm0 0"/><use x="42.7598" xlink:href="#Q" y="713.2912"/><use x="35.21683" xlink:href="#aL" y="761.1916"/><use x="40.659419" xlink:href="#aa" y="761.1916"/><use x="51.374676" xlink:href="#ak" y="761.1916"/><path d="m2058.164062 671.795312h3.828126v259.296875h-3.828126zm0 0" fill="none" stroke="#000" stroke-linejoin="round" stroke-miterlimit="10" stroke-width="3.98506" transform="matrix(.1 0 0 -.1 0 790.66)"/><path d="m205.816406 723.480469h.382813v-25.929688h-.382813zm0 0"/><use x="185.377" xlink:href="#ag" y="761.1916"/><use x="196.261781" xlink:href="#ab" y="761.1916"/><use x="207.146575" xlink:href="#ae" y="761.1916"/><use x="195.9907" xlink:href="#P" y="725.2467"/><path d="m1326.484375 711.639062h3.828125v259.296875h-3.828125zm0 0" fill="none" stroke="#000" stroke-linejoin="round" stroke-miterlimit="10" stroke-width="3.98506" transform="matrix(.1 0 0 -.1 0 790.66)"/><path d="m132.648438 719.496094h.382812v-25.929688h-.382812zm0 0"/><use x="110.507" xlink:href="#ao" y="761.1916"/><use x="120.371865" xlink:href="#aC" y="761.1916"/><use x="130.236339" xlink:href="#aK" y="761.1916"/><use x="141.12112" xlink:href="#aj" y="761.1916"/><use x="122.8218" xlink:href="#P" y="721.2615"/></svg>