<svg height="275.35em" viewBox="0 0 595.28 275.35" width="595.28em" xmlns="http://www.w3.org/2000/svg" xmlns:xlink="http://www.w3.org/1999/xlink"><clipPath id="a"><path d="m591 17h4.28125v32h-4.28125zm0 0"/></clipPath><clipPath id="b"><path d="m0 46h595.28125v2h-595.28125zm0 0"/></clipPath><clipPath id="c"><path d="m0 39h595.28125v2h-595.28125zm0 0"/></clipPath><clipPath id="d"><path d="m0 33h595.28125v1h-595.28125zm0 0"/></clipPath><clipPath id="e"><path d="m0 26h595.28125v1h-595.28125zm0 0"/></clipPath><clipPath id="f"><path d="m0 19h595.28125v1h-595.28125zm0 0"/></clipPath><clipPath id="g"><path d="m0 138h595.28125v2h-595.28125zm0 0"/></clipPath><clipPath id="h"><path d="m0 132h595.28125v1h-595.28125zm0 0"/></clipPath><clipPath id="i"><path d="m0 125h595.28125v1h-595.28125zm0 0"/></clipPath><clipPath id="j"><path d="m0 118h595.28125v1h-595.28125zm0 0"/></clipPath><clipPath id="k"><path d="m0 111h595.28125v1h-595.28125zm0 0"/></clipPath><clipPath id="l"><path d="m594 110h1.28125v30h-1.28125zm0 0"/></clipPath><clipPath id="m"><path d="m0 222h595.28125v2h-595.28125zm0 0"/></clipPath><clipPath id="n"><path d="m0 215h595.28125v2h-595.28125zm0 0"/></clipPath><clipPath id="o"><path d="m0 208h595.28125v2h-595.28125zm0 0"/></clipPath><clipPath id="p"><path d="m0 201h595.28125v2h-595.28125zm0 0"/></clipPath><clipPath id="q"><path d="m0 194h595.28125v2h-595.28125zm0 0"/></clipPath><clipPath id="r"><path d="m591 193h4.28125v32h-4.28125zm0 0"/></clipPath><symbol id="s" overflow="visible"><path d="m0 0c0 .890625.703125 1.59375 1.59375 1.59375s1.578125-.703125 1.578125-1.59375-.6875-1.59375-1.578125-1.59375-1.59375.703125-1.59375 1.59375zm0 0"/></symbol><symbol id="t" overflow="visible"><path d="m6.1875-3.765625c-1.171875 0-2.28125.390625-3.28125 1-1.3125.78125-2.90625 2.15625-2.90625 4.125 0 1.65625 1.453125 2.40625 2.921875 2.40625 1.171875 0 2.296875-.390625 3.296875-1 1.3125-.78125 2.875-2.15625 2.875-4.125 0-1.65625-1.421875-2.40625-2.90625-2.40625zm0 0"/></symbol><symbol id="u" overflow="visible"><path d="m8.8125-1.875c0 .28125-.078125.59375-.28125.8125-.578125.703125-1.921875 1.5625-2.984375 2.234375s-2.390625 1.5625-3.265625 1.8125c-.109375.03125-.25.0625-.359375.0625-.609375 0-1.171875-.484375-1.171875-1.171875 0-.28125.09375-.59375.28125-.8125.59375-.703125 1.921875-1.5625 2.984375-2.234375s2.40625-1.5625 3.265625-1.8125c.109375-.03125.25-.0625.359375-.0625.609375 0 1.171875.484375 1.171875 1.171875zm-1.421875-1.890625c-2.09375 0-3.796875.453125-5.265625 1.453125-.890625.609375-1.484375 1.5625-1.8125 2.59375-.171875.5-.3125 1.0625-.3125 1.59375 0 1.296875.953125 1.890625 2.171875 1.890625 2.09375 0 3.796875-.453125 5.28125-1.453125.890625-.609375 1.46875-1.5625 1.8125-2.59375.15625-.5.296875-1.0625.296875-1.59375 0-1.296875-.9375-1.890625-2.171875-1.890625zm0 0"/></symbol><symbol id="v" overflow="visible"><path d="m6 8.8125v-4.546875l1.359375-.46875c.171875-.0625.3125-.234375.3125-.421875v-1.8125c0-.3125-.3125-.53125-.59375-.421875l-1.078125.390625v-4.578125l1.359375-.5c.171875-.046875.3125-.21875.3125-.40625v-1.796875c0-.296875-.3125-.53125-.59375-.40625l-1.078125.359375v-4.1875c0-.25-.234375-.46875-.484375-.46875s-.46875.21875-.46875.46875v4.515625l-2.421875.859375v-4.203125c0-.25-.21875-.46875-.484375-.46875-.25 0-.46875.21875-.46875.46875v4.546875l-1.359375.46875c-.171875.0625-.3125.234375-.3125.421875v1.8125c0 .3125.3125.53125.578125.421875l1.09375-.390625v4.578125l-1.359375.5c-.171875.046875-.3125.21875-.3125.40625v1.796875c0 .296875.3125.53125.578125.40625l1.09375-.359375v4.1875c0 .25.21875.46875.46875.46875.265625 0 .484375-.21875.484375-.46875v-4.515625l2.421875-.859375v4.203125c0 .25.21875.46875.46875.46875s.484375-.21875.484375-.46875zm-3.375-10.6875 2.421875-.828125v4.578125l-2.421875.828125zm0 0"/></symbol><symbol id="w" overflow="visible"><path d="m10.4375-7.25c-.453125-1.953125-.984375-3.875-1.546875-5.796875 2.6875-3.046875 5.109375-6.171875 5.109375-10.1875 0-3.15625-1.734375-7.671875-3.6875-10.015625-.125-.109375-.296875-.109375-.4375 0-2.65625 1.921875-4.1875 5-4.1875 8.234375 0 1.453125.03125 2.875.203125 4.296875.1875 1.8125.65625 3.5625 1.171875 5.328125-3.296875 3.734375-7 7.296875-7 12.265625 0 5.609375 4.03125 10.375 9.28125 10.375.859375 0 1.671875-.078125 2.484375-.21875.078125.890625.140625 1.78125.140625 2.671875 0 .5-.03125.984375-.0625 1.484375-.171875 2.765625-1.859375 5.296875-4.453125 5.359375-.03125 0-.0625.015625-.09375.015625-1.421875 0-2.640625-.796875-3.375-1.953125.3125.140625.640625.25.984375.25 1.453125 0 2.640625-1.1875 2.640625-2.640625 0-1.5625-1.140625-2.90625-2.640625-2.90625-1.65625 0-3.125 1.28125-3.125 2.90625 0 3.015625 2.421875 5.4375 5.4375 5.4375 3.296875 0 5.546875-2.953125 5.75-6.3125.015625-.515625.015625-1.03125.015625-1.546875 0-1.015625-.046875-2.015625-.140625-3.015625.734375-.234375 1.421875-.5625 2.046875-1.03125 2.0625-1.53125 2.984375-3.6875 2.984375-5.8125 0-3.671875-2.796875-7.21875-7.09375-7.21875-.140625 0-.265625.03125-.40625.03125zm2.359375 12.96875c-.390625-3.453125-1.03125-6.75-1.71875-10.015625 3.0625.25 4.984375 2.8125 4.984375 5.390625 0 1.953125-1.34375 3.953125-3.265625 4.625zm-10.8125-6.578125c0-4.46875 3.015625-7.84375 6.015625-11.21875.453125 1.640625.890625 3.296875 1.28125 4.96875-2.8125.640625-4.40625 3.015625-4.40625 5.46875 0 1.953125 1.015625 3.921875 3.234375 5.125.09375.03125.171875.0625.265625.0625.296875 0 .546875-.28125.546875-.59375 0-.140625-.078125-.28125-.1875-.390625-1.5625-.890625-2.296875-2.234375-2.296875-3.453125 0-1.640625 1.28125-3.125 3.484375-3.375.734375 3.34375 1.375 6.671875 1.796875 10.234375-.75.109375-1.515625.171875-2.296875.171875-3.78125 0-7.4375-3.21875-7.4375-7zm9.484375-28.421875c.46875 1.46875.578125 2.203125.578125 3.8125 0 3.546875-1.859375 6.359375-4.15625 9.0625-.5-1.75-.921875-3.453125-.921875-5.578125 0-3.09375 1.734375-5.90625 4.5-7.296875zm0 0"/></symbol><symbol id="x" overflow="visible"><path d="m4.6875-9.28125c-2.546875 0-4.0625 1.8125-4.0625 4.84375 0 3.046875 1.515625 4.828125 4.078125 4.828125 2.546875 0 4.078125-1.796875 4.078125-4.765625 0-3.125-1.484375-4.90625-4.09375-4.90625zm.015625 1.328125c1.609375 0 2.578125 1.328125 2.578125 3.5625 0 2.140625-1 3.453125-2.578125 3.453125-1.609375 0-2.578125-1.3125-2.578125-3.5s.96875-3.515625 2.578125-3.515625zm-.578125-4.78125-1.65625 2.578125h1.03125l2.5625-2.578125zm3 0-1.671875 2.578125h1.03125l2.578125-2.578125zm0 0"/></symbol><symbol id="y" overflow="visible"><path d="m8.296875 0v-9.015625h-1.421875v5.109375c0 1.84375-.96875 3.046875-2.46875 3.046875-1.140625 0-1.859375-.6875-1.859375-1.78125v-6.375h-1.421875v6.953125c0 1.5 1.109375 2.453125 2.875 2.453125 1.328125 0 2.171875-.453125 3.015625-1.640625v1.25zm-3.203125-12.734375-1.65625 2.546875h1.046875l2.5625-2.546875zm0 0"/></symbol><symbol id="z" overflow="visible"><path d="m4.375-9.015625h-1.484375v-2.484375h-1.421875v2.484375h-1.234375v1.15625h1.234375v6.828125c0 .921875.609375 1.421875 1.734375 1.421875.375 0 .6875-.03125 1.171875-.109375v-1.21875c-.203125.0625-.390625.078125-.6875.078125-.625 0-.796875-.171875-.796875-.8125v-6.1875h1.484375zm0 0"/></symbol><symbol id="A" overflow="visible"><path d="m1.203125-9.015625v10.328125c0 .890625-.265625 1.1875-1.171875 1.1875-.09375 0-.15625 0-.34375-.015625v1.21875c.171875.03125.265625.046875.484375.046875 1.625 0 2.46875-.640625 2.46875-1.875v-10.890625zm1.4375-3.53125h-1.4375v1.796875h1.4375zm0 0"/></symbol><symbol id="B" overflow="visible"><path d="m9.21875-.84375c-.15625.03125-.234375.03125-.3125.03125-.5 0-.78125-.25-.78125-.703125v-5.296875c0-1.609375-1.171875-2.46875-3.390625-2.46875-1.328125 0-2.375.375-3 1.046875-.40625.46875-.578125.984375-.609375 1.875h1.4375c.125-1.09375.78125-1.59375 2.125-1.59375 1.296875 0 2.015625.484375 2.015625 1.34375v.375c-.015625.625-.328125.84375-1.5 1-2.03125.265625-2.34375.328125-2.890625.546875-1.0625.453125-1.59375 1.25-1.59375 2.421875 0 1.625 1.140625 2.65625 2.96875 2.65625 1.140625 0 2.046875-.390625 3.0625-1.328125.109375.9375.546875 1.328125 1.484375 1.328125.3125 0 .5-.03125.984375-.15625zm-2.515625-2c0 .484375-.140625.78125-.578125 1.171875-.578125.53125-1.28125.8125-2.125.8125-1.125 0-1.78125-.53125-1.78125-1.453125 0-.9375.625-1.421875 2.171875-1.640625 1.53125-.21875 1.828125-.28125 2.3125-.5zm-1.46875-9.890625-1.671875 2.546875h1.03125l2.5625-2.546875zm0 0"/></symbol><symbol id="C" overflow="visible"><path d="m1.203125-9.015625v9.015625h1.453125v-4.96875c0-1.84375.953125-3.0625 2.4375-3.0625 1.140625 0 1.859375.703125 1.859375 1.78125v6.25h1.4375v-6.8125c0-1.5-1.125-2.46875-2.859375-2.46875-1.34375 0-2.203125.515625-3 1.78125v-1.515625zm0 0"/></symbol><symbol id="D" overflow="visible"><path d="m1.1875-9.015625v9.015625h1.453125v-4.6875c.015625-2.171875.90625-3.125 2.890625-3.078125v-1.46875c-.25-.03125-.390625-.046875-.5625-.046875-.921875 0-1.625.546875-2.453125 1.890625v-1.625zm0 0"/></symbol><symbol id="E" overflow="visible"><path d="m1.5-1.796875v1.796875h1.03125v.3125c0 1.1875-.21875 1.53125-1.03125 1.5625v.65625c1.140625.03125 1.8125-.796875 1.8125-2.25v-2.078125zm0 0"/></symbol><symbol id="F" overflow="visible"><path d="m3.34375-12.546875h-1.625v12.546875h1.625zm0 0"/></symbol><symbol id="G" overflow="visible"><path d="m7.546875-6.515625c-.015625-1.765625-1.1875-2.765625-3.28125-2.765625s-3.453125 1.078125-3.453125 2.75c0 1.421875.71875 2.09375 2.859375 2.609375l1.34375.328125c1 .234375 1.390625.59375 1.390625 1.234375 0 .859375-.84375 1.421875-2.09375 1.421875-.78125 0-1.4375-.21875-1.796875-.59375-.21875-.265625-.328125-.515625-.421875-1.15625h-1.515625c.078125 2.078125 1.25 3.078125 3.609375 3.078125 2.265625 0 3.71875-1.109375 3.71875-2.859375 0-1.34375-.765625-2.078125-2.546875-2.5l-1.375-.328125c-1.171875-.28125-1.671875-.65625-1.671875-1.296875 0-.84375.734375-1.359375 1.90625-1.359375 1.15625 0 1.765625.5 1.8125 1.4375zm0 0"/></symbol><symbol id="H" overflow="visible"><path d="m1.203125-9.015625v9.015625h1.453125v-5.671875c0-1.296875.9375-2.359375 2.109375-2.359375 1.078125 0 1.671875.65625 1.671875 1.8125v6.21875h1.453125v-5.671875c0-1.296875.9375-2.359375 2.109375-2.359375 1.046875 0 1.671875.671875 1.671875 1.8125v6.21875h1.453125v-6.765625c0-1.625-.9375-2.515625-2.625-2.515625-1.203125 0-1.921875.359375-2.765625 1.375-.53125-.96875-1.265625-1.375-2.4375-1.375-1.203125 0-2.015625.453125-2.765625 1.53125v-1.265625zm0 0"/></symbol><symbol id="I" overflow="visible"><path d="m2.578125-9.015625h-1.421875v9.015625h1.421875zm0-3.53125h-1.4375v1.796875h1.4375zm0 0"/></symbol><symbol id="J" overflow="visible"><path d="m8.828125-4.03125c0-1.375-.09375-2.203125-.359375-2.875-.578125-1.484375-1.953125-2.375-3.640625-2.375-2.515625 0-4.140625 1.90625-4.140625 4.890625s1.546875 4.78125 4.09375 4.78125c2.078125 0 3.5-1.171875 3.859375-3.125h-1.4375c-.40625 1.1875-1.21875 1.796875-2.359375 1.796875-.921875 0-1.6875-.40625-2.171875-1.15625-.34375-.53125-.46875-1.046875-.484375-1.9375zm-6.609375-1.171875c.125-1.671875 1.140625-2.75 2.578125-2.75 1.46875 0 2.484375 1.140625 2.484375 2.75zm0 0"/></symbol><symbol id="K" overflow="visible"><path d="m8.515625-12.546875h-1.421875v4.65625c-.609375-.90625-1.5625-1.390625-2.765625-1.390625-2.34375 0-3.875 1.875-3.875 4.75 0 3.046875 1.46875 4.921875 3.921875 4.921875 1.234375 0 2.09375-.453125 2.875-1.578125v1.1875h1.265625zm-3.953125 4.609375c1.546875 0 2.53125 1.359375 2.53125 3.53125 0 2.078125-1 3.453125-2.515625 3.453125-1.578125 0-2.625-1.390625-2.625-3.484375 0-2.109375 1.046875-3.5 2.609375-3.5zm0 0"/></symbol><symbol id="L" overflow="visible"><path d="m6.953125-9.015625v1.296875c-.71875-1.078125-1.515625-1.5625-2.640625-1.5625-2.1875 0-3.703125 2.03125-3.703125 4.921875 0 1.515625.359375 2.625 1.125 3.53125.671875.796875 1.53125 1.21875 2.46875 1.21875 1.078125 0 1.859375-.484375 2.609375-1.609375v.46875c0 2.40625-.671875 3.296875-2.453125 3.296875-1.21875 0-1.859375-.484375-2-1.515625h-1.46875c.140625 1.671875 1.46875 2.71875 3.4375 2.71875 1.3125 0 2.421875-.421875 3-1.15625.703125-.84375.953125-1.953125.953125-4.078125v-7.53125zm-2.515625 1.0625c1.515625 0 2.375 1.265625 2.375 3.5625 0 2.1875-.875 3.453125-2.375 3.453125-1.46875 0-2.34375-1.28125-2.34375-3.5 0-2.203125.875-3.515625 2.34375-3.515625zm0 0"/></symbol><symbol id="M" overflow="visible"><path d="m4.90625 0 3.46875-9.015625h-1.625l-2.546875 7.3125-2.40625-7.3125h-1.625l3.171875 9.015625zm0 0"/></symbol><symbol id="N" overflow="visible"><path d="m.9375-12.546875v12.546875h1.28125v-1.15625c.6875 1.046875 1.609375 1.546875 2.859375 1.546875 2.375 0 3.921875-1.9375 3.921875-4.9375 0-2.921875-1.453125-4.734375-3.859375-4.734375-1.234375 0-2.109375.46875-2.78125 1.484375v-4.75zm3.9375 4.609375c1.59375 0 2.625 1.390625 2.625 3.546875 0 2.046875-1.0625 3.4375-2.625 3.4375-1.53125 0-2.515625-1.375-2.515625-3.484375 0-2.125.984375-3.5 2.515625-3.5zm0 0"/></symbol><symbol id="O" overflow="visible"><path d="m4.6875-9.28125c-2.546875 0-4.0625 1.8125-4.0625 4.84375 0 3.046875 1.515625 4.828125 4.078125 4.828125 2.546875 0 4.078125-1.796875 4.078125-4.765625 0-3.125-1.484375-4.90625-4.09375-4.90625zm.015625 1.328125c1.609375 0 2.578125 1.328125 2.578125 3.5625 0 2.140625-1 3.453125-2.578125 3.453125-1.609375 0-2.578125-1.3125-2.578125-3.5s.96875-3.515625 2.578125-3.515625zm0 0"/></symbol><symbol id="P" overflow="visible"><path d="m2.625-12.546875h-1.453125v12.546875h1.453125zm0 0"/></symbol><symbol id="Q" overflow="visible"><path d="m8.828125-4.03125c0-1.375-.09375-2.203125-.359375-2.875-.578125-1.484375-1.953125-2.375-3.640625-2.375-2.515625 0-4.140625 1.90625-4.140625 4.890625s1.546875 4.78125 4.09375 4.78125c2.078125 0 3.5-1.171875 3.859375-3.125h-1.4375c-.40625 1.1875-1.21875 1.796875-2.359375 1.796875-.921875 0-1.6875-.40625-2.171875-1.15625-.34375-.53125-.46875-1.046875-.484375-1.9375zm-6.609375-1.171875c.125-1.671875 1.140625-2.75 2.578125-2.75 1.46875 0 2.484375 1.140625 2.484375 2.75zm3.078125-7.53125-1.640625 2.546875h1.03125l2.5625-2.546875zm0 0"/></symbol><symbol id="R" overflow="visible"><path d="m6.6875-9.015625-2.5 7.015625-2.3125-7.015625h-1.53125l3.046875 9.046875-.546875 1.4375c-.25.625-.546875.875-1.15625.875-.234375 0-.453125-.03125-.75-.109375v1.296875c.28125.15625.578125.21875.953125.21875.46875 0 .96875-.15625 1.34375-.421875.453125-.328125.703125-.703125.984375-1.4375l4.015625-10.90625zm0 0"/></symbol><symbol id="S" overflow="visible"><path d="m6.703125-12.765625c-3.609375 0-6.046875 2.65625-6.046875 6.578125 0 3.953125 2.421875 6.578125 6.0625 6.578125 1.53125 0 2.875-.453125 3.890625-1.328125 1.359375-1.140625 2.171875-3.09375 2.171875-5.140625 0-4.046875-2.390625-6.6875-6.078125-6.6875zm0 1.421875c2.71875 0 4.46875 2.046875 4.46875 5.234375 0 3.03125-1.8125 5.09375-4.453125 5.09375-2.6875 0-4.46875-2.0625-4.46875-5.171875 0-3.09375 1.78125-5.15625 4.453125-5.15625zm.515625-4.828125-1.671875 2.546875h1.03125l2.5625-2.546875zm0 0"/></symbol><symbol id="T" overflow="visible"><path d="m6.09375-11.140625h4.109375v-1.40625h-9.84375v1.40625h4.140625v11.140625h1.59375zm0 0"/></symbol><symbol id="U" overflow="visible"><path d="m4.6875-9.28125c-2.546875 0-4.0625 1.8125-4.0625 4.84375 0 3.046875 1.515625 4.828125 4.078125 4.828125 2.546875 0 4.078125-1.796875 4.078125-4.765625 0-3.125-1.484375-4.90625-4.09375-4.90625zm.015625 1.328125c1.609375 0 2.578125 1.328125 2.578125 3.5625 0 2.140625-1 3.453125-2.578125 3.453125-1.609375 0-2.578125-1.3125-2.578125-3.5s.96875-3.515625 2.578125-3.515625zm-.5-4.359375h-1.796875v1.78125h1.796875zm2.78125 0h-1.78125v1.78125h1.78125zm0 0"/></symbol><symbol id="V" overflow="visible"><path d="m7.625-9.015625h-6.734375v1.25h5.03125l-5.390625 6.46875v1.296875h7.34375v-1.25h-5.609375l5.359375-6.5zm0 0"/></symbol><symbol id="W" overflow="visible"><path d="m9.21875-.84375c-.15625.03125-.234375.03125-.3125.03125-.5 0-.78125-.25-.78125-.703125v-5.296875c0-1.609375-1.171875-2.46875-3.390625-2.46875-1.328125 0-2.375.375-3 1.046875-.40625.46875-.578125.984375-.609375 1.875h1.4375c.125-1.09375.78125-1.59375 2.125-1.59375 1.296875 0 2.015625.484375 2.015625 1.34375v.375c-.015625.625-.328125.84375-1.5 1-2.03125.265625-2.34375.328125-2.890625.546875-1.0625.453125-1.59375 1.25-1.59375 2.421875 0 1.625 1.140625 2.65625 2.96875 2.65625 1.140625 0 2.046875-.390625 3.0625-1.328125.109375.9375.546875 1.328125 1.484375 1.328125.3125 0 .5-.03125.984375-.15625zm-2.515625-2c0 .484375-.140625.78125-.578125 1.171875-.578125.53125-1.28125.8125-2.125.8125-1.125 0-1.78125-.53125-1.78125-1.453125 0-.9375.625-1.421875 2.171875-1.640625 1.53125-.21875 1.828125-.28125 2.3125-.5zm0 0"/></symbol><symbol id="X" overflow="visible"><path d="m2.421875-12.546875h-1.421875v12.546875h1.421875v-3.515625l1.40625-1.375 3.046875 4.890625h1.765625l-3.6875-5.90625 3.140625-3.109375h-1.84375l-3.828125 3.8125zm0 0"/></symbol><symbol id="Y" overflow="visible"><path d="m2.96875-4.390625 2.046875-2.046875 4.421875 6.4375h1.890625l-5.15625-7.4375 5.109375-5.109375h-2.0625l-6.25 6.34375v-6.34375h-1.609375v12.546875h1.609375zm0 0"/></symbol><symbol id="Z" overflow="visible"><path d="m4.6875-9.28125c-2.546875 0-4.0625 1.8125-4.0625 4.84375 0 3.046875 1.515625 4.828125 4.078125 4.828125 2.546875 0 4.078125-1.796875 4.078125-4.765625 0-3.125-1.484375-4.90625-4.09375-4.90625zm.015625 1.328125c1.609375 0 2.578125 1.328125 2.578125 3.5625 0 2.140625-1 3.453125-2.578125 3.453125-1.609375 0-2.578125-1.3125-2.578125-3.5s.96875-3.515625 2.578125-3.515625zm.421875-4.78125-1.640625 2.546875h1.03125l2.5625-2.546875zm0 0"/></symbol><symbol id="aa" overflow="visible"><path d="m1.203125-12.546875v12.546875h1.4375v-4.96875c0-1.84375.953125-3.0625 2.4375-3.0625.484375 0 .9375.140625 1.28125.40625.40625.3125.578125.734375.578125 1.375v6.25h1.4375v-6.8125c0-1.515625-1.09375-2.46875-2.84375-2.46875-1.28125 0-2.046875.390625-2.890625 1.5v-4.765625zm0 0"/></symbol><symbol id="ab" overflow="visible"><path d="m3.046875-9.015625h-1.421875v9.015625h1.421875zm-.28125-3.71875-1.640625 2.546875h1.03125l2.5625-2.546875zm0 0"/></symbol><symbol id="ac" overflow="visible"><path d="m3.28125-1.796875h-1.78125v1.796875h1.78125zm0 0"/></symbol><symbol id="ad" overflow="visible"><path d="m9.484375-5.71875v5.71875h1.609375v-12.546875h-1.609375v5.421875h-6.453125v-5.421875h-1.609375v12.546875h1.609375v-5.71875zm0 0"/></symbol><symbol id="ae" overflow="visible"><path d="m8.296875 0v-9.015625h-1.421875v5.109375c0 1.84375-.96875 3.046875-2.46875 3.046875-1.140625 0-1.859375-.6875-1.859375-1.78125v-6.375h-1.421875v6.953125c0 1.5 1.109375 2.453125 2.875 2.453125 1.328125 0 2.171875-.453125 3.015625-1.640625v1.25zm-4.109375-12.734375-1.65625 2.578125h1.03125l2.5625-2.578125zm3 0-1.65625 2.578125h1.03125l2.5625-2.578125zm0 0"/></symbol><symbol id="af" overflow="visible"><path d="m5.796875-8.890625c-.15625.109375-.21875.328125-.21875.546875v4.109375h-4.828125l7.890625-9.296875c.171875-.1875-.078125-.53125-.40625-.421875-.625.203125-1.234375.375-1.875.375s-1.25-.171875-1.875-.375c-.21875-.078125-.40625.140625-.40625.421875 0 3.484375-1.8125 6.609375-4.078125 9.296875-.03125.015625-.0625.109375-.0625.15625 0 .234375.234375.59375.8125.59375h4.828125v.4375c0 1.265625-.71875 2.46875-1.890625 2.46875-.203125 0-.28125.125-.28125.265625s.078125.3125.28125.3125c1.140625 0 2.28125-.359375 3.421875-.359375s2.296875.359375 3.4375.359375c.1875 0 .28125-.171875.28125-.3125s-.09375-.265625-.28125-.265625c-1.171875 0-1.90625-1.203125-1.90625-2.46875v-.4375h1.90625c.25 0 .359375-.171875.359375-.359375 0-.203125-.109375-.390625-.359375-.390625h-1.90625v-7.140625c0-.390625-.4375-.453125-.546875-.203125-.203125.484375-.390625.953125-.703125 1.375-.421875.546875-1 .9375-1.59375 1.3125zm0 0"/></symbol><symbol id="ag" overflow="visible"><path d="m3.65625-7.5v7.5h2.140625v-10.875h-1.421875c-.34375 1.28125-1.453125 1.9375-3.328125 1.9375v1.4375zm0 0"/></symbol><symbol id="ah" overflow="visible"><path d="m3.28125-2.234375h-2.296875v2.234375h2.296875zm0 0"/></symbol><g fill="none" stroke="#000" stroke-miterlimit="10" stroke-width="10.7606" transform="matrix(.1 0 0 -.1 0 275.35)"><path d="m5408.085938 2281.15625v278.984375"/><path d="m1044.84375 2281.15625v278.984375"/><path d="m3749.84375 2281.15625v278.984375"/></g><use x="584.217" xlink:href="#s" y="29.798"/><use x="584.217" xlink:href="#s" y="36.77183"/><g clip-path="url(#a)"><path d="m5935.742188 2281.15625v278.984375" fill="none" stroke="#000" stroke-miterlimit="10" stroke-width="33.9836" transform="matrix(.1 0 0 -.1 0 275.35)"/></g><path d="m5896.40625 2281.15625v278.984375" fill="none" stroke="#000" stroke-miterlimit="10" stroke-width="10.7606" transform="matrix(.1 0 0 -.1 0 275.35)"/><path d="m2516.71875 2281.15625v278.984375" fill="none" stroke="#000" stroke-miterlimit="10" stroke-width="10.7606" transform="matrix(.1 0 0 -.1 0 275.35)"/><g clip-path="url(#b)"><path d="m2.8125 2281.15625h5947.109375" fill="none" stroke="#000" stroke-linecap="round" stroke-miterlimit="10" stroke-width="5.66277" transform="matrix(.1 0 0 -.1 0 275.35)"/></g><g clip-path="url(#c)"><path d="m2.8125 2350.921875h5947.109375" fill="none" stroke="#000" stroke-linecap="round" stroke-miterlimit="10" stroke-width="5.66277" transform="matrix(.1 0 0 -.1 0 275.35)"/></g><g clip-path="url(#d)"><path d="m2.8125 2420.648438h5947.109375" fill="none" stroke="#000" stroke-linecap="round" stroke-miterlimit="10" stroke-width="5.66277" transform="matrix(.1 0 0 -.1 0 275.35)"/></g><g clip-path="url(#e)"><path d="m2.8125 2490.375h5947.109375" fill="none" stroke="#000" stroke-linecap="round" stroke-miterlimit="10" stroke-width="5.66277" transform="matrix(.1 0 0 -.1 0 275.35)"/></g><g clip-path="url(#f)"><path d="m2.8125 2560.140625h5947.109375" fill="none" stroke="#000" stroke-linecap="round" stroke-miterlimit="10" stroke-width="5.66277" transform="matrix(.1 0 0 -.1 0 275.35)"/></g><use x="448.021" xlink:href="#x" y="93.662"/><path d="m4484.296875 2190.179688h3.359375v214.765624h-3.359375zm0 0" style="fill:none;stroke-width:3.98207;stroke-linecap:round;stroke-linejoin:round;stroke:#000;stroke-miterlimit:10" transform="matrix(.1 0 0 -.1 0 275.35)"/><path d="m448.429688 56.332031h.335937v-21.476562h-.335937zm0 0"/><use x="445.641" xlink:href="#y" y="74.135"/><use x="455.165254" xlink:href="#z" y="74.135"/><use x="480.066" xlink:href="#t" y="36.7717"/><use x="480.066" xlink:href="#A" y="74.135"/><use x="483.807408" xlink:href="#B" y="74.135"/><use x="493.331661" xlink:href="#C" y="74.135"/><use x="480.066" xlink:href="#D" y="93.6616"/><use x="485.678502" xlink:href="#B" y="93.6616"/><use x="448.2312" xlink:href="#t" y="33.285"/><path d="m4886.367188 2401.507812h3.359374v170.351563h-3.359374zm0 0" style="fill:none;stroke-width:3.98207;stroke-linecap:round;stroke-linejoin:round;stroke:#000;stroke-miterlimit:10" transform="matrix(.1 0 0 -.1 0 275.35)"/><path d="m488.636719 35.199219h.335937v-17.035157h-.335937zm0 0"/><use x="509.469" xlink:href="#t" y="40.259"/><path d="m5180.390625 2366.625h3.359375v191.679688h-3.359375zm0 0" style="fill:none;stroke-width:3.98207;stroke-linecap:round;stroke-linejoin:round;stroke:#000;stroke-miterlimit:10" transform="matrix(.1 0 0 -.1 0 275.35)"/><path d="m518.039062 38.6875h.335938v-19.167969h-.335938zm0 0"/><use x="547.792" xlink:href="#u" y="36.772"/><use x="541.26583" xlink:href="#A" y="74.1353"/><use x="545.007628" xlink:href="#B" y="74.1353"/><use x="554.531491" xlink:href="#D" y="74.1353"/><use x="559.12407" xlink:href="#E" y="74.1353"/><use x="379.85383" xlink:href="#t" y="40.2591"/><use x="377.68938" xlink:href="#F" y="74.1353"/><use x="382.451897" xlink:href="#G" y="74.1353"/><use x="370.63118" xlink:href="#H" y="93.6619"/><use x="384.917554" xlink:href="#I" y="93.6619"/><use x="388.659352" xlink:href="#C" y="93.6619"/><path d="m3884.21875 2366.625h3.398438v226.367188h-3.398438zm0 0" style="fill:none;stroke-width:3.98207;stroke-linecap:round;stroke-linejoin:round;stroke:#000;stroke-miterlimit:10" transform="matrix(.1 0 0 -.1 0 275.35)"/><path d="m388.421875 38.6875h.339844v-22.636719h-.339844zm0 0"/><use x="416.184" xlink:href="#t" y="36.772"/><use x="408.91642" xlink:href="#z" y="74.1353"/><use x="413.508625" xlink:href="#J" y="74.1353"/><use x="423.032879" xlink:href="#C" y="74.1353"/><use x="409.341811" xlink:href="#K" y="93.6619"/><use x="418.866065" xlink:href="#I" y="93.6619"/><use x="422.607472" xlink:href="#L" y="93.6619"/><path d="m4247.539062 2401.507812h3.359376v226.367188h-3.359376zm0 0" style="fill:none;stroke-width:3.98207;stroke-linecap:round;stroke-linejoin:round;stroke:#000;stroke-miterlimit:10" transform="matrix(.1 0 0 -.1 0 275.35)"/><path d="m424.753906 35.199219h.335938v-22.636719h-.335938zm0 0"/><path d="m5568.242188 2406.507812h3.359374v221.367188h-3.359374zm0 0" style="fill:none;stroke-width:3.98207;stroke-linecap:round;stroke-linejoin:round;stroke:#000;stroke-miterlimit:10" transform="matrix(.1 0 0 -.1 0 275.35)"/><path d="m556.824219 34.699219h.335937v-22.136719h-.335937zm0 0"/><path d="m4841.5625 2313.34375c60.625-75.429688 213.515625-99.023438 294.023438-45.351562-79.492188-46.953126-232.382813-23.359376-294.023438 45.351562zm0 0" style="fill:none;stroke-width:4.53158;stroke-linecap:round;stroke-linejoin:round;stroke:#000;stroke-miterlimit:10" transform="matrix(.1 0 0 -.1 0 275.35)"/><path d="m484.15625 44.015625c6.0625 7.542969 21.351562 9.902344 29.402344 4.535156-7.949219 4.695313-23.238282 2.335938-29.402344-4.535156"/><path d="m4667.304688 1864.476562h41.484374v2.8125h-41.484374zm0 0" style="fill:none;stroke-width:4.533;stroke-linecap:round;stroke-linejoin:round;stroke:#000;stroke-miterlimit:10" transform="matrix(.1 0 0 -.1 0 275.35)"/><path d="m466.730469 88.902344h4.148437v-.28125h-4.148437zm0 0"/><path d="m4679.21875 2059.75h41.484375v2.8125h-41.484375zm0 0" style="fill:none;stroke-width:4.533;stroke-linecap:round;stroke-linejoin:round;stroke:#000;stroke-miterlimit:10" transform="matrix(.1 0 0 -.1 0 275.35)"/><path d="m467.921875 69.375h4.148437v-.28125h-4.148437zm0 0"/><path d="m4016.875 1864.476562h41.484375v2.8125h-41.484375zm0 0" style="fill:none;stroke-width:4.533;stroke-linecap:round;stroke-linejoin:round;stroke:#000;stroke-miterlimit:10" transform="matrix(.1 0 0 -.1 0 275.35)"/><path d="m401.6875 88.902344h4.148438v-.28125h-4.148438zm0 0"/><path d="m3979.453125 2059.75h41.484375v2.8125h-41.484375zm0 0" style="fill:none;stroke-width:4.533;stroke-linecap:round;stroke-linejoin:round;stroke:#000;stroke-miterlimit:10" transform="matrix(.1 0 0 -.1 0 275.35)"/><path d="m397.945312 69.375h4.148438v-.28125h-4.148438zm0 0"/><path d="m4886.367188 2588.773438v-29.492188l297.421874-13.90625v29.492188zm0 0" fill="none" stroke="#000" stroke-linejoin="round" stroke-miterlimit="10" stroke-width="3.98207" transform="matrix(.1 0 0 -.1 0 275.35)"/><path d="m488.636719 16.472656v2.949219l29.742187 1.390625v-2.949219zm0 0"/><path d="m2858.554688 1864.476562h41.484374v2.8125h-41.484374zm0 0" fill="none" stroke="#000" stroke-linejoin="round" stroke-miterlimit="10" stroke-width="4.533" transform="matrix(.1 0 0 -.1 0 275.35)"/><path d="m285.855469 88.902344h4.148437v-.28125h-4.148437zm0 0"/><path d="m2825.78125 2059.75h41.523438v2.8125h-41.523438zm0 0" fill="none" stroke="#000" stroke-linejoin="round" stroke-miterlimit="10" stroke-width="4.533" transform="matrix(.1 0 0 -.1 0 275.35)"/><path d="m282.578125 69.375h4.148437v-.28125h-4.148437zm0 0"/><path d="m2079.6875 1864.476562h41.484375v2.8125h-41.484375zm0 0" fill="none" stroke="#000" stroke-linejoin="round" stroke-miterlimit="10" stroke-width="4.533" transform="matrix(.1 0 0 -.1 0 275.35)"/><path d="m207.96875 88.902344h4.148438v-.28125h-4.148438zm0 0"/><path d="m1268.515625 1864.476562h41.523437v2.8125h-41.523437zm0 0" fill="none" stroke="#000" stroke-linejoin="round" stroke-miterlimit="10" stroke-width="4.533" transform="matrix(.1 0 0 -.1 0 275.35)"/><path d="m126.851562 88.902344h4.152344v-.28125h-4.152344zm0 0"/><path d="m1288.085938 2059.75h41.484374v2.8125h-41.484374zm0 0" fill="none" stroke="#000" stroke-linejoin="round" stroke-miterlimit="10" stroke-width="4.533" transform="matrix(.1 0 0 -.1 0 275.35)"/><path d="m128.808594 69.375h4.148437v-.28125h-4.148437zm0 0"/><path d="m942.382812 1864.476562h41.523438v2.8125h-41.523438zm0 0" fill="none" stroke="#000" stroke-linejoin="round" stroke-miterlimit="10" stroke-width="4.533" transform="matrix(.1 0 0 -.1 0 275.35)"/><path d="m94.238281 88.902344h4.152344v-.28125h-4.152344zm0 0"/><use x="560.546" xlink:href="#s" y="36.772"/><use x="538.9702" xlink:href="#M" y="93.6618"/><use x="547.304203" xlink:href="#B" y="93.6618"/><use x="556.828066" xlink:href="#D" y="93.6618"/><use x="561.420645" xlink:href="#E" y="93.6618"/><use x="109.3552" xlink:href="#t" y="40.2591"/><use x="102.5134" xlink:href="#N" y="74.1353"/><use x="112.037251" xlink:href="#O" y="74.1353"/><use x="121.561492" xlink:href="#P" y="74.1353"/><use x="104.97903" xlink:href="#M" y="93.6619"/><use x="113.313033" xlink:href="#Q" y="93.6619"/><path d="m1179.257812 2366.625h3.359376v226.367188h-3.359376zm0 0" fill="none" stroke="#000" stroke-linejoin="round" stroke-miterlimit="10" stroke-width="3.98207" transform="matrix(.1 0 0 -.1 0 275.35)"/><path d="m117.925781 38.6875h.335938v-22.636719h-.335938zm0 0"/><use x="146.196" xlink:href="#t" y="36.772"/><use x="136.46241" xlink:href="#K" y="74.1353"/><use x="145.986651" xlink:href="#O" y="74.1353"/><use x="155.510893" xlink:href="#L" y="74.1353"/><use x="135.01671" xlink:href="#C" y="93.6619"/><use x="144.201497" xlink:href="#R" y="93.6619"/><use x="152.364796" xlink:href="#Q" y="93.6619"/><use x="161.719115" xlink:href="#z" y="93.6619"/><path d="m1547.65625 2401.507812h3.359375v226.367188h-3.359375zm0 0" fill="none" stroke="#000" stroke-linejoin="round" stroke-miterlimit="10" stroke-width="3.98207" transform="matrix(.1 0 0 -.1 0 275.35)"/><path d="m154.765625 35.199219h.335937v-22.636719h-.335937zm0 0"/><use x="185.672" xlink:href="#t" y="33.285"/><use x="29.988" xlink:href="#v" y="19.337"/><use x="70.5118" xlink:href="#t" y="50.7194"/><use x="5.5794" xlink:href="#w" y="40.2589"/><use x="45.679" xlink:href="#af" y="33.28507"/><use x="45.679" xlink:href="#af" y="47.34407"/><use x="66.2212" xlink:href="#S" y="74.13507"/><use x="79.147401" xlink:href="#E" y="74.13507"/><use x="42.7493" xlink:href="#ag" y="74.13507"/><use x="51.253203" xlink:href="#ah" y="74.13507"/><use x="62.479" xlink:href="#T" y="93.66167"/><use x="72.343869" xlink:href="#U" y="93.66167"/><use x="81.86811" xlink:href="#D" y="93.66167"/><path d="m790.820312 2262.015625h3.359376v226.367187h-3.359376zm0 0" fill="none" stroke="#000" stroke-linejoin="round" stroke-miterlimit="10" stroke-width="3.98207" transform="matrix(.1 0 0 -.1 0 275.35)"/><path d="m79.082031 49.148438h.335938v-22.636719h-.335938zm0 0"/><path d="m3052.265625 2190.179688h3.398437v214.765624h-3.398437zm0 0" fill="none" stroke="#000" stroke-linejoin="round" stroke-miterlimit="10" stroke-width="3.98207" transform="matrix(.1 0 0 -.1 0 275.35)"/><path d="m305.226562 56.332031h.335938v-21.476562h-.335938zm0 0"/><use x="241.701" xlink:href="#G" y="93.662"/><use x="250.374847" xlink:href="#V" y="93.662"/><use x="258.538538" xlink:href="#J" y="93.662"/><use x="268.062791" xlink:href="#H" y="93.662"/><path d="m2574.414062 2213.421875h3.359376v221.40625h-3.359376zm0 0" fill="none" stroke="#000" stroke-linejoin="round" stroke-miterlimit="10" stroke-width="3.98207" transform="matrix(.1 0 0 -.1 0 275.35)"/><path d="m257.441406 54.007812h.335938v-22.140624h-.335938zm0 0"/><use x="180.956" xlink:href="#W" y="74.135"/><use x="190.820867" xlink:href="#V" y="74.135"/><use x="250.120175" xlink:href="#J" y="74.135"/><use x="259.644429" xlink:href="#H" y="74.135"/><use x="293.508" xlink:href="#H" y="93.6616"/><use x="307.794374" xlink:href="#J" y="93.6616"/><use x="317.318628" xlink:href="#P" y="93.6616"/><use x="320.890113" xlink:href="#E" y="93.6616"/><use x="305.0271" xlink:href="#t" y="33.285"/><use x="295.37905" xlink:href="#N" y="74.135"/><use x="304.902913" xlink:href="#J" y="74.135"/><use x="314.427166" xlink:href="#D" y="74.135"/><use x="319.019745" xlink:href="#E" y="74.135"/><use x="214.640172" xlink:href="#W" y="74.135"/><use x="224.505051" xlink:href="#V" y="74.135"/><path d="m3499.257812 2401.507812h3.359376v226.367188h-3.359376zm0 0" fill="none" stroke="#000" stroke-linejoin="round" stroke-miterlimit="10" stroke-width="3.98207" transform="matrix(.1 0 0 -.1 0 275.35)"/><path d="m349.925781 35.199219h.335938v-22.636719h-.335938zm0 0"/><use x="336.811" xlink:href="#Q" y="93.662"/><use x="346.335254" xlink:href="#G" y="93.662"/><use x="177.638959" xlink:href="#z" y="93.662"/><use x="182.401086" xlink:href="#W" y="93.662"/><use x="191.925328" xlink:href="#D" y="93.662"/><use x="198.048391" xlink:href="#z" y="93.662"/><path d="m1858.710938 2190.179688h3.359374v214.765624h-3.359374zm0 0" fill="none" stroke="#000" stroke-linejoin="round" stroke-miterlimit="10" stroke-width="3.98207" transform="matrix(.1 0 0 -.1 0 275.35)"/><path d="m185.871094 56.332031h.335937v-21.476562h-.335937zm0 0"/><use x="339.702" xlink:href="#X" y="74.135"/><use x="348.376238" xlink:href="#I" y="74.135"/><use x="341.3563" xlink:href="#t" y="36.7717"/><use x="219.3563" xlink:href="#t" y="26.3108"/><use x="257.2411" xlink:href="#u" y="29.79791"/><use x="217.2766" xlink:href="#A" y="93.66161"/><use x="221.018008" xlink:href="#W" y="93.66161"/><path d="m2195.546875 2248.304688h3.359375v226.367187h-3.359375zm0 0" fill="none" stroke="#000" stroke-linejoin="round" stroke-miterlimit="10" stroke-width="3.98207" transform="matrix(.1 0 0 -.1 0 275.35)"/><path d="m219.554688 50.519531h.335937v-22.636719h-.335937zm0 0"/><g clip-path="url(#g)"><path d="m2.8125 1360.882812h5947.109375" style="fill:none;stroke-width:5.66277;stroke-linecap:round;stroke-linejoin:round;stroke:#000;stroke-miterlimit:10" transform="matrix(.1 0 0 -.1 0 275.35)"/></g><g clip-path="url(#h)"><path d="m2.8125 1430.648438h5947.109375" style="fill:none;stroke-width:5.66277;stroke-linecap:round;stroke-linejoin:round;stroke:#000;stroke-miterlimit:10" transform="matrix(.1 0 0 -.1 0 275.35)"/></g><g clip-path="url(#i)"><path d="m2.8125 1500.375h5947.109375" style="fill:none;stroke-width:5.66277;stroke-linecap:round;stroke-linejoin:round;stroke:#000;stroke-miterlimit:10" transform="matrix(.1 0 0 -.1 0 275.35)"/></g><g clip-path="url(#j)"><path d="m2.8125 1570.101562h5947.109375" style="fill:none;stroke-width:5.66277;stroke-linecap:round;stroke-linejoin:round;stroke:#000;stroke-miterlimit:10" transform="matrix(.1 0 0 -.1 0 275.35)"/></g><g clip-path="url(#k)"><path d="m2.8125 1639.867188h5947.109375" style="fill:none;stroke-width:5.66277;stroke-linecap:round;stroke-linejoin:round;stroke:#000;stroke-miterlimit:10" transform="matrix(.1 0 0 -.1 0 275.35)"/></g><path d="m5168.710938 1360.882812v278.984376" fill="none" stroke="#000" stroke-linejoin="round" stroke-miterlimit="10" stroke-width="10.7606" transform="matrix(.1 0 0 -.1 0 275.35)"/><path d="m891.5625 1360.882812v278.984376" fill="none" stroke="#000" stroke-linejoin="round" stroke-miterlimit="10" stroke-width="10.7606" transform="matrix(.1 0 0 -.1 0 275.35)"/><g clip-path="url(#l)"><path d="m5947.382812 1360.882812v278.984376" fill="none" stroke="#000" stroke-linejoin="round" stroke-miterlimit="10" stroke-width="10.7606" transform="matrix(.1 0 0 -.1 0 275.35)"/></g><path d="m2390.117188 1360.882812v278.984376" fill="none" stroke="#000" stroke-linejoin="round" stroke-miterlimit="10" stroke-width="10.7606" transform="matrix(.1 0 0 -.1 0 275.35)"/><path d="m3791.210938 1360.882812v278.984376" fill="none" stroke="#000" stroke-linejoin="round" stroke-miterlimit="10" stroke-width="10.7606" transform="matrix(.1 0 0 -.1 0 275.35)"/><use x="446.792" xlink:href="#N" y="164.599"/><use x="456.316254" xlink:href="#I" y="164.599"/><use x="416.3873" xlink:href="#t" y="128.7986"/><use x="410.56621" xlink:href="#V" y="164.599"/><use x="418.900213" xlink:href="#I" y="164.599"/><use x="422.641621" xlink:href="#X" y="164.599"/><path d="m4249.570312 1481.234375h3.398438v226.367187h-3.398438zm0 0" fill="none" stroke="#000" stroke-linejoin="round" stroke-miterlimit="10" stroke-width="3.98207" transform="matrix(.1 0 0 -.1 0 275.35)"/><path d="m424.957031 127.226562h.335938v-22.636718h-.335938zm0 0"/><use x="448.872" xlink:href="#t" y="125.312"/><path d="m4490.703125 1269.90625h3.398437v214.765625h-3.398437zm0 0" fill="none" stroke="#000" stroke-linejoin="round" stroke-miterlimit="10" stroke-width="3.98207" transform="matrix(.1 0 0 -.1 0 275.35)"/><path d="m449.070312 148.359375h.339844v-21.476563h-.339844zm0 0"/><path d="m3207.539062 1411.46875h3.359376v226.40625h-3.359376zm0 0" fill="none" stroke="#000" stroke-linejoin="round" stroke-miterlimit="10" stroke-width="3.98207" transform="matrix(.1 0 0 -.1 0 275.35)"/><path d="m320.753906 134.203125h.335938v-22.636719h-.335938zm0 0"/><use x="484.436" xlink:href="#t" y="121.825"/><use x="471.2165" xlink:href="#V" y="164.5992"/><use x="479.379799" xlink:href="#O" y="164.5992"/><use x="488.904053" xlink:href="#C" y="164.5992"/><use x="498.088852" xlink:href="#R" y="164.5992"/><path d="m4846.367188 1293.148438h3.359374v226.40625h-3.359374zm0 0" fill="none" stroke="#000" stroke-linejoin="round" stroke-miterlimit="10" stroke-width="3.98207" transform="matrix(.1 0 0 -.1 0 275.35)"/><path d="m484.636719 146.035156h.335937v-22.636718h-.335937zm0 0"/><use x="344.561" xlink:href="#t" y="139.26"/><use x="340.01491" xlink:href="#Q" y="164.5995"/><use x="349.539164" xlink:href="#G" y="164.5995"/><path d="m3531.289062 1376.625h3.398438v226.367188h-3.398438zm0 0" fill="none" stroke="#000" stroke-linejoin="round" stroke-miterlimit="10" stroke-width="3.98207" transform="matrix(.1 0 0 -.1 0 275.35)"/><path d="m353.128906 137.6875h.339844v-22.636719h-.339844zm0 0"/><use x="384.009" xlink:href="#t" y="132.286"/><use x="380.909" xlink:href="#x" y="164.5997"/><use x="390.433254" xlink:href="#D" y="164.5997"/><path d="m3925.78125 1446.351562h3.398438v226.40625h-3.398438zm0 0" fill="none" stroke="#000" stroke-linejoin="round" stroke-miterlimit="10" stroke-width="3.98207" transform="matrix(.1 0 0 -.1 0 275.35)"/><path d="m392.578125 130.714844h.339844v-22.636719h-.339844zm0 0"/><path d="m4635.625 1155.101562h41.484375v2.851563h-41.484375zm0 0" fill="none" stroke="#000" stroke-linejoin="round" stroke-miterlimit="10" stroke-width="4.533" transform="matrix(.1 0 0 -.1 0 275.35)"/><path d="m463.5625 159.839844h4.148438v-.285156h-4.148438zm0 0"/><path d="m5401.054688 1155.101562h41.523437v2.851563h-41.523437zm0 0" fill="none" stroke="#000" stroke-linejoin="round" stroke-miterlimit="10" stroke-width="4.533" transform="matrix(.1 0 0 -.1 0 275.35)"/><path d="m540.105469 159.839844h4.152343v-.285156h-4.152343zm0 0"/><path d="m5102.695312 1155.101562h41.484376v2.851563h-41.484376zm0 0" fill="none" stroke="#000" stroke-linejoin="round" stroke-miterlimit="10" stroke-width="4.533" transform="matrix(.1 0 0 -.1 0 275.35)"/><path d="m510.265625 159.839844h4.152344v-.285156h-4.152344zm0 0"/><path d="m4013.164062 1155.101562h41.484376v2.851563h-41.484376zm0 0" fill="none" stroke="#000" stroke-linejoin="round" stroke-miterlimit="10" stroke-width="4.533" transform="matrix(.1 0 0 -.1 0 275.35)"/><path d="m401.316406 159.839844h4.148438v-.285156h-4.148438zm0 0"/><path d="m2981.132812 1155.101562h41.484376v2.851563h-41.484376zm0 0" fill="none" stroke="#000" stroke-linejoin="round" stroke-miterlimit="10" stroke-width="4.533" transform="matrix(.1 0 0 -.1 0 275.35)"/><path d="m298.113281 159.839844h4.148438v-.285156h-4.148438zm0 0"/><path d="m2580.585938 1155.101562h41.523437v2.851563h-41.523437zm0 0" fill="none" stroke="#000" stroke-linejoin="round" stroke-miterlimit="10" stroke-width="4.533" transform="matrix(.1 0 0 -.1 0 275.35)"/><path d="m258.058594 159.839844h4.152344v-.285156h-4.152344zm0 0"/><path d="m1904.53125 1155.101562h41.523438v2.851563h-41.523438zm0 0" fill="none" stroke="#000" stroke-linejoin="round" stroke-miterlimit="10" stroke-width="4.533" transform="matrix(.1 0 0 -.1 0 275.35)"/><path d="m190.453125 159.839844h4.148437v-.285156h-4.148437zm0 0"/><path d="m1089.6875 1155.101562h41.523438v2.851563h-41.523438zm0 0" fill="none" stroke="#000" stroke-linejoin="round" stroke-miterlimit="10" stroke-width="4.533" transform="matrix(.1 0 0 -.1 0 275.35)"/><path d="m108.96875 159.839844h4.152344v-.285156h-4.152344zm0 0"/><use x="522.237" xlink:href="#u" y="125.312"/><use x="517.92138" xlink:href="#G" y="164.5995"/><use x="526.595618" xlink:href="#B" y="164.5995"/><path d="m5224.375 1269.90625h3.359375v209.765625h-3.359375zm0 0" fill="none" stroke="#000" stroke-linejoin="round" stroke-miterlimit="10" stroke-width="3.98207" transform="matrix(.1 0 0 -.1 0 275.35)"/><path d="m522.433594 148.359375h.339844v-20.976563h-.339844zm0 0"/><use x="557.662" xlink:href="#u" y="128.799"/><use x="548.2452" xlink:href="#L" y="164.5994"/><use x="557.769454" xlink:href="#B" y="164.5994"/><use x="567.293707" xlink:href="#z" y="164.5994"/><use x="571.885912" xlink:href="#E" y="164.5994"/><path d="m5666.914062 1486.234375h3.398438v221.367187h-3.398438zm0 0" fill="none" stroke="#000" stroke-linejoin="round" stroke-miterlimit="10" stroke-width="3.98207" transform="matrix(.1 0 0 -.1 0 275.35)"/><path d="m566.691406 126.726562h.339844v-22.136718h-.339844zm0 0"/><use x="94.0438" xlink:href="#t" y="128.799"/><use x="91.87896" xlink:href="#F" y="164.5994"/><use x="96.641471" xlink:href="#G" y="164.5994"/><path d="m1026.132812 1481.234375h3.398438v226.367187h-3.398438zm0 0" fill="none" stroke="#000" stroke-linejoin="round" stroke-miterlimit="10" stroke-width="3.98207" transform="matrix(.1 0 0 -.1 0 275.35)"/><path d="m102.613281 127.226562h.339844v-22.636718h-.339844zm0 0"/><use x="126.422" xlink:href="#t" y="128.799"/><use x="116.77356" xlink:href="#z" y="164.5994"/><use x="121.366156" xlink:href="#J" y="164.5994"/><use x="130.890397" xlink:href="#C" y="164.5994"/><use x="140.414248" xlink:href="#z" y="164.5994"/><path d="m1349.921875 1481.234375h3.359375v226.367187h-3.359375zm0 0" fill="none" stroke="#000" stroke-linejoin="round" stroke-miterlimit="10" stroke-width="3.98207" transform="matrix(.1 0 0 -.1 0 275.35)"/><path d="m134.992188 127.226562h.335937v-22.636718h-.335937zm0 0"/><use x="5.57891" xlink:href="#w" y="132.286"/><use x="312.18291" xlink:href="#t" y="135.77311"/><use x="29.98791" xlink:href="#v" y="111.36451"/><use x="55.09381" xlink:href="#t" y="128.79931"/><use x="47.65709" xlink:href="#Y" y="164.59971"/><use x="59.222354" xlink:href="#I" y="164.59971"/><use x="62.963768" xlink:href="#X" y="164.59971"/><path d="m636.640625 1481.234375h3.359375v226.367187h-3.359375zm0 0" fill="none" stroke="#000" stroke-linejoin="round" stroke-miterlimit="10" stroke-width="3.98207" transform="matrix(.1 0 0 -.1 0 275.35)"/><path d="m63.664062 127.226562h.335938v-22.636718h-.335938zm0 0"/><use x="243.691" xlink:href="#Z" y="164.599"/><path d="m2524.6875 1446.351562h3.398438v226.40625h-3.398438zm0 0" fill="none" stroke="#000" stroke-linejoin="round" stroke-miterlimit="10" stroke-width="3.98207" transform="matrix(.1 0 0 -.1 0 275.35)"/><path d="m252.46875 130.714844h.335938v-22.636719h-.335938zm0 0"/><use x="276.278" xlink:href="#t" y="128.799"/><use x="267.05495" xlink:href="#aa" y="164.5994"/><use x="276.579204" xlink:href="#W" y="164.5994"/><use x="286.103457" xlink:href="#A" y="164.5994"/><use x="289.844865" xlink:href="#z" y="164.5994"/><path d="m2848.476562 1481.234375h3.359376v226.367187h-3.359376zm0 0" fill="none" stroke="#000" stroke-linejoin="round" stroke-miterlimit="10" stroke-width="3.98207" transform="matrix(.1 0 0 -.1 0 275.35)"/><path d="m284.847656 127.226562h.335938v-22.636718h-.335938zm0 0"/><use x="305.766" xlink:href="#A" y="164.599"/><use x="309.507408" xlink:href="#B" y="164.599"/><use x="319.031661" xlink:href="#X" y="164.599"/><use x="167.089" xlink:href="#t" y="125.3115"/><use x="243.8999" xlink:href="#t" y="132.28533"/><use x="204.9495" xlink:href="#t" y="128.79861"/><use x="198.10731" xlink:href="#N" y="164.59901"/><use x="207.631564" xlink:href="#x" y="164.59901"/><use x="217.155817" xlink:href="#P" y="164.59901"/><path d="m2135.195312 1481.234375h3.359376v226.367187h-3.359376zm0 0" fill="none" stroke="#000" stroke-linejoin="round" stroke-miterlimit="10" stroke-width="3.98207" transform="matrix(.1 0 0 -.1 0 275.35)"/><path d="m213.519531 127.226562h.335938v-22.636718h-.335938zm0 0"/><path d="m1672.890625 1269.90625h3.359375v214.765625h-3.359375zm0 0" fill="none" stroke="#000" stroke-linejoin="round" stroke-miterlimit="10" stroke-width="3.98207" transform="matrix(.1 0 0 -.1 0 275.35)"/><path d="m167.289062 148.359375h.335938v-21.476563h-.335938zm0 0"/><use x="156.335" xlink:href="#G" y="164.599"/><use x="165.009238" xlink:href="#V" y="164.599"/><use x="173.683086" xlink:href="#ab" y="164.599"/><use x="178.275681" xlink:href="#M" y="164.599"/><g clip-path="url(#m)"><path d="m2.8125 524.046875h5947.109375" style="fill:none;stroke-width:5.66277;stroke-linecap:round;stroke-linejoin:round;stroke:#000;stroke-miterlimit:10" transform="matrix(.1 0 0 -.1 0 275.35)"/></g><g clip-path="url(#n)"><path d="m2.8125 593.773438h5947.109375" style="fill:none;stroke-width:5.66277;stroke-linecap:round;stroke-linejoin:round;stroke:#000;stroke-miterlimit:10" transform="matrix(.1 0 0 -.1 0 275.35)"/></g><g clip-path="url(#o)"><path d="m2.8125 663.539062h5947.109375" style="fill:none;stroke-width:5.66277;stroke-linecap:round;stroke-linejoin:round;stroke:#000;stroke-miterlimit:10" transform="matrix(.1 0 0 -.1 0 275.35)"/></g><g clip-path="url(#p)"><path d="m2.8125 733.265625h5947.109375" style="fill:none;stroke-width:5.66277;stroke-linecap:round;stroke-linejoin:round;stroke:#000;stroke-miterlimit:10" transform="matrix(.1 0 0 -.1 0 275.35)"/></g><g clip-path="url(#q)"><path d="m2.8125 802.992188h5947.109375" style="fill:none;stroke-width:5.66277;stroke-linecap:round;stroke-linejoin:round;stroke:#000;stroke-miterlimit:10" transform="matrix(.1 0 0 -.1 0 275.35)"/></g><path d="m3005.15625 524.046875v278.945313" fill="none" stroke="#000" stroke-linejoin="round" stroke-miterlimit="10" stroke-width="10.7606" transform="matrix(.1 0 0 -.1 0 275.35)"/><path d="m4832.578125 524.046875v278.945313" fill="none" stroke="#000" stroke-linejoin="round" stroke-miterlimit="10" stroke-width="10.7606" transform="matrix(.1 0 0 -.1 0 275.35)"/><g clip-path="url(#r)"><path d="m5935.742188 524.046875v278.945313" fill="none" stroke="#000" stroke-linejoin="round" stroke-miterlimit="10" stroke-width="33.9836" transform="matrix(.1 0 0 -.1 0 275.35)"/></g><path d="m5896.40625 524.046875v278.945313" fill="none" stroke="#000" stroke-linejoin="round" stroke-miterlimit="10" stroke-width="10.7606" transform="matrix(.1 0 0 -.1 0 275.35)"/><use x="390.465" xlink:href="#P" y="247.4238"/><use x="394.206408" xlink:href="#B" y="247.4238"/><use x="403.730661" xlink:href="#z" y="247.4238"/><path d="m5053.359375 614.476562h3.359375v221.40625h-3.359375zm0 0" fill="none" stroke="#000" stroke-linejoin="round" stroke-miterlimit="10" stroke-width="3.98207" transform="matrix(.1 0 0 -.1 0 275.35)"/><path d="m505.335938 213.902344h.335937v-22.140625h-.335937zm0 0"/><use x="509.059" xlink:href="#s" y="212.4852"/><use x="487.8227" xlink:href="#A" y="247.4239"/><use x="491.564108" xlink:href="#B" y="247.4239"/><use x="501.088361" xlink:href="#X" y="247.4239"/><use x="509.592287" xlink:href="#ac" y="247.4239"/><use x="496.30512" xlink:href="#u" y="215.9719"/><path d="m4037.265625 649.359375h3.398437v221.367187h-3.398437zm0 0" fill="none" stroke="#000" stroke-linejoin="round" stroke-miterlimit="10" stroke-width="3.98207" transform="matrix(.1 0 0 -.1 0 275.35)"/><path d="m403.726562 210.414062h.335938v-22.136718h-.335938zm0 0"/><use x="394.695" xlink:href="#u" y="212.4852"/><path d="m1021.210938 326.859375h41.484374v2.8125h-41.484374zm0 0" fill="none" stroke="#000" stroke-linejoin="round" stroke-miterlimit="10" stroke-width="4.533" transform="matrix(.1 0 0 -.1 0 275.35)"/><path d="m102.121094 242.664062h4.148437v-.28125h-4.148437zm0 0"/><path d="m1821.367188 326.859375h41.484374v2.8125h-41.484374zm0 0" fill="none" stroke="#000" stroke-linejoin="round" stroke-miterlimit="10" stroke-width="4.533" transform="matrix(.1 0 0 -.1 0 275.35)"/><path d="m182.136719 242.664062h4.148437v-.28125h-4.148437zm0 0"/><path d="m3577.773438 326.859375h41.484374v2.8125h-41.484374zm0 0" fill="none" stroke="#000" stroke-linejoin="round" stroke-miterlimit="10" stroke-width="4.533" transform="matrix(.1 0 0 -.1 0 275.35)"/><path d="m357.777344 242.664062h4.148437v-.28125h-4.148437zm0 0"/><path d="m4460.859375 326.859375h41.484375v2.8125h-41.484375zm0 0" fill="none" stroke="#000" stroke-linejoin="round" stroke-miterlimit="10" stroke-width="4.533" transform="matrix(.1 0 0 -.1 0 275.35)"/><path d="m446.085938 242.664062h4.148437v-.28125h-4.148437zm0 0"/><use x="29.9875" xlink:href="#v" y="195.0504"/><path d="m552.929688 491.15625h3.359374v221.40625h-3.359374zm0 0" fill="none" stroke="#000" stroke-linejoin="round" stroke-miterlimit="10" stroke-width="3.98207" transform="matrix(.1 0 0 -.1 0 275.35)"/><path d="m55.292969 226.234375h.335937v-22.140625h-.335937zm0 0"/><use x="48.9074" xlink:href="#ad" y="247.4238"/><use x="61.323058" xlink:href="#ae" y="247.4238"/><use x="55.09334" xlink:href="#u" y="202.0242"/><use x="5.57884" xlink:href="#w" y="215.9719"/><path d="m2286.875 644.359375h3.359375v226.367187h-3.359375zm0 0" fill="none" stroke="#000" stroke-linejoin="round" stroke-miterlimit="10" stroke-width="3.98207" transform="matrix(.1 0 0 -.1 0 275.35)"/><path d="m228.6875 210.914062h.335938v-22.636718h-.335938zm0 0"/><path d="m3079.84375 433.03125h3.359375v209.765625h-3.359375zm0 0" fill="none" stroke="#000" stroke-linejoin="round" stroke-miterlimit="10" stroke-width="3.98207" transform="matrix(.1 0 0 -.1 0 275.35)"/><path d="m307.984375 232.046875h.335937v-20.976563h-.335937zm0 0"/><use x="295.9" xlink:href="#H" y="247.4238"/><use x="310.186765" xlink:href="#J" y="247.4238"/><use x="319.711018" xlink:href="#L" y="247.4238"/><use x="307.7836" xlink:href="#u" y="208.998"/><use x="212.8484" xlink:href="#L" y="247.4238"/><use x="222.372654" xlink:href="#Q" y="247.4238"/><use x="231.726595" xlink:href="#z" y="247.4238"/><use x="142.0046" xlink:href="#t" y="205.5109"/><use x="137.54327" xlink:href="#G" y="247.4238"/><use x="146.047195" xlink:href="#Q" y="247.4238"/><path d="m1422.03125 456.3125h3.398438v226.367188h-3.398438zm0 0" fill="none" stroke="#000" stroke-linejoin="round" stroke-miterlimit="10" stroke-width="3.98207" transform="matrix(.1 0 0 -.1 0 275.35)"/><path d="m142.203125 229.71875h.339844v-22.636719h-.339844zm0 0"/><use x="220.116" xlink:href="#t" y="212.4852"/></svg>