<svg height="582.35em" viewBox="0 0 595.28 582.35" width="595.28em" xmlns="http://www.w3.org/2000/svg" xmlns:xlink="http://www.w3.org/1999/xlink"><clipPath id="a"><path d="m0 61h595.28125v2h-595.28125zm0 0"/></clipPath><clipPath id="b"><path d="m0 53h595.28125v2h-595.28125zm0 0"/></clipPath><clipPath id="c"><path d="m0 45h595.28125v2h-595.28125zm0 0"/></clipPath><clipPath id="d"><path d="m0 38h595.28125v1h-595.28125zm0 0"/></clipPath><clipPath id="e"><path d="m0 30h595.28125v2h-595.28125zm0 0"/></clipPath><clipPath id="f"><path d="m0 154h595.28125v1h-595.28125zm0 0"/></clipPath><clipPath id="g"><path d="m0 146h595.28125v1h-595.28125zm0 0"/></clipPath><clipPath id="h"><path d="m0 138h595.28125v2h-595.28125zm0 0"/></clipPath><clipPath id="i"><path d="m0 130h595.28125v2h-595.28125zm0 0"/></clipPath><clipPath id="j"><path d="m0 123h595.28125v1h-595.28125zm0 0"/></clipPath><clipPath id="k"><path d="m0 246h595.28125v2h-595.28125zm0 0"/></clipPath><clipPath id="l"><path d="m0 239h595.28125v1h-595.28125zm0 0"/></clipPath><clipPath id="m"><path d="m0 231h595.28125v1h-595.28125zm0 0"/></clipPath><clipPath id="n"><path d="m0 223h595.28125v2h-595.28125zm0 0"/></clipPath><clipPath id="o"><path d="m0 215h595.28125v2h-595.28125zm0 0"/></clipPath><clipPath id="p"><path d="m0 339h595.28125v1h-595.28125zm0 0"/></clipPath><clipPath id="q"><path d="m0 331h595.28125v2h-595.28125zm0 0"/></clipPath><clipPath id="r"><path d="m0 323h595.28125v2h-595.28125zm0 0"/></clipPath><clipPath id="s"><path d="m0 316h595.28125v1h-595.28125zm0 0"/></clipPath><clipPath id="t"><path d="m0 308h595.28125v2h-595.28125zm0 0"/></clipPath><clipPath id="u"><path d="m0 432h595.28125v1h-595.28125zm0 0"/></clipPath><clipPath id="v"><path d="m0 424h595.28125v1h-595.28125zm0 0"/></clipPath><clipPath id="w"><path d="m0 416h595.28125v2h-595.28125zm0 0"/></clipPath><clipPath id="x"><path d="m0 408h595.28125v2h-595.28125zm0 0"/></clipPath><clipPath id="y"><path d="m0 401h595.28125v1h-595.28125zm0 0"/></clipPath><clipPath id="z"><path d="m0 524h595.28125v2h-595.28125zm0 0"/></clipPath><clipPath id="A"><path d="m0 516h595.28125v2h-595.28125zm0 0"/></clipPath><clipPath id="B"><path d="m0 509h595.28125v1h-595.28125zm0 0"/></clipPath><clipPath id="C"><path d="m0 501h595.28125v2h-595.28125zm0 0"/></clipPath><clipPath id="D"><path d="m0 493h595.28125v2h-595.28125zm0 0"/></clipPath><clipPath id="E"><path d="m591 492h4.28125v35h-4.28125zm0 0"/></clipPath><symbol id="F" overflow="visible"><path d="m3.703125-13.890625h-1.796875v13.890625h1.796875zm0 0"/></symbol><symbol id="G" overflow="visible"><path d="m8.34375-7.203125c-.015625-1.96875-1.3125-3.078125-3.609375-3.078125-2.328125 0-3.84375 1.203125-3.84375 3.0625 0 1.5625.8125 2.296875 3.171875 2.875l1.484375.359375c1.109375.265625 1.546875.671875 1.546875 1.375 0 .953125-.9375 1.578125-2.328125 1.578125-.859375 0-1.578125-.25-1.984375-.671875-.25-.28125-.359375-.5625-.453125-1.265625h-1.6875c.078125 2.296875 1.375 3.40625 3.984375 3.40625 2.53125 0 4.125-1.234375 4.125-3.15625 0-1.5-.84375-2.3125-2.828125-2.796875l-1.515625-.359375c-1.296875-.296875-1.859375-.71875-1.859375-1.421875 0-.9375.828125-1.515625 2.125-1.515625 1.28125 0 1.96875.5625 2 1.609375zm0 0"/></symbol><symbol id="H" overflow="visible"><path d="m2.890625-13.890625h-1.59375v13.890625h1.59375zm0 0"/></symbol><symbol id="I" overflow="visible"><path d="m2.859375-9.984375h-1.578125v9.984375h1.578125zm0-3.90625h-1.59375v2h1.59375zm0 0"/></symbol><symbol id="J" overflow="visible"><path d="m4.84375-9.984375h-1.640625v-2.75h-1.578125v2.75h-1.359375v1.296875h1.359375v7.546875c0 1.03125.6875 1.578125 1.921875 1.578125.421875 0 .765625-.03125 1.296875-.125v-1.34375c-.234375.0625-.4375.078125-.765625.078125-.6875 0-.875-.1875-.875-.890625v-6.84375h1.640625zm0 0"/></symbol><symbol id="K" overflow="visible"><path d="m9.78125-4.453125c0-1.53125-.109375-2.453125-.40625-3.1875-.640625-1.640625-2.171875-2.640625-4.03125-2.640625-2.796875 0-4.578125 2.125-4.578125 5.421875s1.71875 5.296875 4.53125 5.296875c2.296875 0 3.875-1.296875 4.265625-3.46875h-1.59375c-.4375 1.3125-1.328125 2-2.609375 2-1.015625 0-1.875-.453125-2.40625-1.296875-.375-.5625-.515625-1.140625-.53125-2.125zm-7.328125-1.296875c.140625-1.859375 1.265625-3.0625 2.859375-3.0625 1.625 0 2.75 1.265625 2.75 3.0625zm0 0"/></symbol><symbol id="L" overflow="visible"><path d="m1.328125-9.984375v9.984375h1.609375v-5.515625c0-2.03125 1.0625-3.375 2.703125-3.375 1.265625 0 2.0625.765625 2.0625 1.96875v6.921875h1.578125v-7.546875c0-1.65625-1.234375-2.734375-3.15625-2.734375-1.5 0-2.453125.578125-3.328125 1.96875v-1.671875zm0 0"/></symbol><symbol id="M" overflow="visible"><path d="m1.65625-1.984375v1.984375h1.140625v.34375c0 1.3125-.25 1.703125-1.140625 1.734375v.71875c1.265625.046875 2-.875 2-2.484375v-2.296875zm0 0"/></symbol><symbol id="N" overflow="visible"><path d="m1.03125-13.890625v13.890625h1.421875v-1.28125c.765625 1.171875 1.78125 1.71875 3.171875 1.71875 2.625 0 4.34375-2.15625 4.34375-5.46875 0-3.234375-1.625-5.25-4.265625-5.25-1.375 0-2.34375.515625-3.09375 1.640625v-5.25zm4.359375 5.109375c1.78125 0 2.921875 1.53125 2.921875 3.921875 0 2.265625-1.1875 3.8125-2.921875 3.8125-1.6875 0-2.78125-1.53125-2.78125-3.875s1.09375-3.859375 2.78125-3.859375zm0 0"/></symbol><symbol id="O" overflow="visible"><path d="m9.78125-4.453125c0-1.53125-.109375-2.453125-.40625-3.1875-.640625-1.640625-2.171875-2.640625-4.03125-2.640625-2.796875 0-4.578125 2.125-4.578125 5.421875s1.71875 5.296875 4.53125 5.296875c2.296875 0 3.875-1.296875 4.265625-3.46875h-1.59375c-.4375 1.3125-1.328125 2-2.609375 2-1.015625 0-1.875-.453125-2.40625-1.296875-.375-.5625-.515625-1.140625-.53125-2.125zm-7.328125-1.296875c.140625-1.859375 1.265625-3.0625 2.859375-3.0625 1.625 0 2.75 1.265625 2.75 3.0625zm3.421875-8.359375-1.828125 2.828125h1.140625l2.84375-2.828125zm0 0"/></symbol><symbol id="P" overflow="visible"><path d="m1.328125-9.984375v9.984375h1.609375v-6.265625c0-1.453125 1.046875-2.625 2.34375-2.625 1.1875 0 1.84375.734375 1.84375 2.015625v6.875h1.609375v-6.265625c0-1.453125 1.046875-2.625 2.34375-2.625 1.15625 0 1.84375.75 1.84375 2.015625v6.875h1.609375v-7.484375c0-1.796875-1.03125-2.796875-2.90625-2.796875-1.328125 0-2.125.40625-3.0625 1.53125-.59375-1.0625-1.390625-1.53125-2.6875-1.53125-1.34375 0-2.234375.5-3.078125 1.703125v-1.40625zm0 0"/></symbol><symbol id="Q" overflow="visible"><path d="m7.390625-9.984375-2.765625 7.765625-2.546875-7.765625h-1.703125l3.375 10.015625-.609375 1.59375c-.265625.703125-.609375.96875-1.265625.96875-.28125 0-.5-.046875-.84375-.109375v1.421875c.328125.171875.640625.25 1.0625.25.515625 0 1.078125-.171875 1.484375-.484375.5-.359375.78125-.78125 1.09375-1.578125l4.4375-12.078125zm0 0"/></symbol><symbol id="R" overflow="visible"><path d="m10.203125-.9375c-.171875.046875-.25.046875-.34375.046875-.5625 0-.859375-.296875-.859375-.78125v-5.875c0-1.78125-1.296875-2.734375-3.75-2.734375-1.46875 0-2.640625.421875-3.328125 1.171875-.453125.515625-.640625 1.078125-.6875 2.078125h1.609375c.125-1.21875.859375-1.78125 2.34375-1.78125 1.453125 0 2.234375.546875 2.234375 1.5v.40625c-.03125.6875-.375.9375-1.671875 1.109375-2.25.28125-2.578125.359375-3.203125.609375-1.15625.5-1.75 1.375-1.75 2.671875 0 1.8125 1.265625 2.953125 3.28125 2.953125 1.265625 0 2.265625-.4375 3.390625-1.46875.125 1.03125.609375 1.46875 1.640625 1.46875.34375 0 .5625-.03125 1.09375-.171875zm-2.78125-2.203125c0 .53125-.15625.859375-.640625 1.296875-.640625.578125-1.421875.890625-2.359375.890625-1.234375 0-1.96875-.59375-1.96875-1.59375 0-1.0625.6875-1.59375 2.40625-1.84375 1.703125-.21875 2.015625-.296875 2.5625-.546875zm-1.625-10.96875-1.84375 2.828125h1.140625l2.84375-2.828125zm0 0"/></symbol><symbol id="S" overflow="visible"><path d="m10.5-6.328125v6.328125h1.78125v-13.890625h-1.78125v6h-7.140625v-6h-1.78125v13.890625h1.78125v-6.328125zm0 0"/></symbol><symbol id="T" overflow="visible"><path d="m2.6875-13.890625h-1.578125v13.890625h1.578125v-3.890625l1.546875-1.515625 3.375 5.40625h1.953125l-4.078125-6.53125 3.46875-3.453125h-2.03125l-4.234375 4.234375zm0 0"/></symbol><symbol id="U" overflow="visible"><path d="m9.4375-13.890625h-1.578125v5.15625c-.671875-1-1.734375-1.546875-3.078125-1.546875-2.59375 0-4.28125 2.078125-4.28125 5.265625 0 3.375 1.640625 5.453125 4.34375 5.453125 1.375 0 2.328125-.515625 3.1875-1.75v1.3125h1.40625zm-4.390625 5.109375c1.71875 0 2.8125 1.5 2.8125 3.90625 0 2.296875-1.109375 3.828125-2.78125 3.828125-1.765625 0-2.921875-1.546875-2.921875-3.875s1.15625-3.859375 2.890625-3.859375zm0 0"/></symbol><symbol id="V" overflow="visible"><path d="m5.1875-10.28125c-2.828125 0-4.5 2.015625-4.5 5.359375 0 3.375 1.671875 5.359375 4.515625 5.359375 2.828125 0 4.515625-2 4.515625-5.28125 0-3.46875-1.640625-5.4375-4.53125-5.4375zm.015625 1.46875c1.796875 0 2.859375 1.46875 2.859375 3.953125 0 2.359375-1.109375 3.828125-2.859375 3.828125-1.765625 0-2.859375-1.46875-2.859375-3.890625s1.09375-3.890625 2.859375-3.890625zm0 0"/></symbol><symbol id="W" overflow="visible"><path d="m10.203125-.9375c-.171875.046875-.25.046875-.34375.046875-.5625 0-.859375-.296875-.859375-.78125v-5.875c0-1.78125-1.296875-2.734375-3.75-2.734375-1.46875 0-2.640625.421875-3.328125 1.171875-.453125.515625-.640625 1.078125-.6875 2.078125h1.609375c.125-1.21875.859375-1.78125 2.34375-1.78125 1.453125 0 2.234375.546875 2.234375 1.5v.40625c-.03125.6875-.375.9375-1.671875 1.109375-2.25.28125-2.578125.359375-3.203125.609375-1.15625.5-1.75 1.375-1.75 2.671875 0 1.8125 1.265625 2.953125 3.28125 2.953125 1.265625 0 2.265625-.4375 3.390625-1.46875.125 1.03125.609375 1.46875 1.640625 1.46875.34375 0 .5625-.03125 1.09375-.171875zm-2.78125-2.203125c0 .53125-.15625.859375-.640625 1.296875-.640625.578125-1.421875.890625-2.359375.890625-1.234375 0-1.96875-.59375-1.96875-1.59375 0-1.0625.6875-1.59375 2.40625-1.84375 1.703125-.21875 2.015625-.296875 2.5625-.546875zm0 0"/></symbol><symbol id="X" overflow="visible"><path d="m5.4375 0 3.828125-9.984375h-1.796875l-2.8125 8.09375-2.671875-8.09375h-1.796875l3.515625 9.984375zm0 0"/></symbol><symbol id="Y" overflow="visible"><path d="m9.1875 0v-9.984375h-1.578125v5.65625c0 2.046875-1.078125 3.375-2.734375 3.375-1.25 0-2.046875-.765625-2.046875-1.96875v-7.0625h-1.59375v7.703125c0 1.65625 1.25 2.71875 3.1875 2.71875 1.46875 0 2.40625-.515625 3.34375-1.828125v1.390625zm0 0"/></symbol><symbol id="Z" overflow="visible"><path d="m3.484375-6.328125h6.640625v-1.5625h-6.640625v-4.4375h7.546875v-1.5625h-9.3125v13.890625h1.765625zm0 0"/></symbol><symbol id="aa" overflow="visible"><path d="m11.359375-9.8125c0-.953125-.0625-1.21875-.359375-1.875-.765625-1.59375-2.390625-2.4375-4.734375-2.4375-3.046875 0-4.9375 1.5625-4.9375 4.078125 0 1.703125.90625 2.765625 2.734375 3.234375l3.453125.921875c1.765625.453125 2.546875 1.15625 2.546875 2.25 0 .75-.390625 1.5-.984375 1.921875-.5625.40625-1.4375.59375-2.5625.59375-1.515625 0-2.53125-.359375-3.203125-1.15625-.515625-.609375-.734375-1.28125-.71875-2.140625h-1.671875c.015625 1.28125.265625 2.109375.8125 2.875.953125 1.3125 2.5625 1.984375 4.671875 1.984375 1.65625 0 3.015625-.375 3.90625-1.0625.9375-.75 1.53125-1.984375 1.53125-3.1875 0-1.71875-1.078125-2.96875-2.953125-3.484375l-3.5-.9375c-1.671875-.453125-2.28125-.984375-2.28125-2.0625 0-1.40625 1.234375-2.34375 3.109375-2.34375 2.203125 0 3.453125 1 3.46875 2.828125zm0 0"/></symbol><symbol id="ab" overflow="visible"><path d="m8.4375-9.984375h-7.453125v1.390625h5.578125l-5.96875 7.15625v1.4375h8.125v-1.390625h-6.203125l5.921875-7.1875zm0 0"/></symbol><symbol id="ac" overflow="visible"><path d="m3.28125-4.859375 2.265625-2.265625 4.90625 7.125h2.09375l-5.71875-8.234375 5.65625-5.65625h-2.28125l-6.921875 7.03125v-7.03125h-1.78125v13.890625h1.78125zm0 0"/></symbol><symbol id="ad" overflow="visible"><path d="m1.3125-9.984375v9.984375h1.609375v-5.1875c.015625-2.40625 1-3.46875 3.203125-3.40625v-1.625c-.265625-.03125-.421875-.0625-.609375-.0625-1.03125 0-1.8125.609375-2.734375 2.109375v-1.8125zm0 0"/></symbol><symbol id="ae" overflow="visible"><path d="m5.1875-10.28125c-2.828125 0-4.5 2.015625-4.5 5.359375 0 3.375 1.671875 5.359375 4.515625 5.359375 2.828125 0 4.515625-2 4.515625-5.28125 0-3.46875-1.640625-5.4375-4.53125-5.4375zm.015625 1.46875c1.796875 0 2.859375 1.46875 2.859375 3.953125 0 2.359375-1.109375 3.828125-2.859375 3.828125-1.765625 0-2.859375-1.46875-2.859375-3.890625s1.09375-3.890625 2.859375-3.890625zm-.625-5.296875-1.859375 2.859375h1.15625l2.828125-2.859375zm3.3125 0-1.84375 2.859375h1.140625l2.84375-2.859375zm0 0"/></symbol><symbol id="af" overflow="visible"><path d="m1.328125-9.984375v11.4375c0 .984375-.296875 1.3125-1.296875 1.3125-.109375 0-.171875 0-.375-.015625v1.34375c.1875.046875.28125.0625.53125.0625 1.796875 0 2.734375-.703125 2.734375-2.078125v-12.0625zm1.59375-3.90625h-1.59375v2h1.59375zm0 0"/></symbol><symbol id="ag" overflow="visible"><path d="m7.703125-9.984375v1.4375c-.796875-1.1875-1.671875-1.734375-2.9375-1.734375-2.421875 0-4.09375 2.25-4.09375 5.453125 0 1.6875.390625 2.90625 1.25 3.90625.75.890625 1.703125 1.359375 2.734375 1.359375 1.203125 0 2.046875-.53125 2.890625-1.796875v.515625c0 2.671875-.734375 3.671875-2.71875 3.671875-1.359375 0-2.0625-.546875-2.21875-1.6875h-1.625c.15625 1.859375 1.625 3.015625 3.796875 3.015625 1.46875 0 2.6875-.484375 3.34375-1.28125.765625-.9375 1.046875-2.171875 1.046875-4.515625v-8.34375zm-2.78125 1.171875c1.671875 0 2.625 1.421875 2.625 3.953125 0 2.421875-.96875 3.828125-2.625 3.828125-1.640625 0-2.59375-1.421875-2.59375-3.890625 0-2.4375.953125-3.890625 2.59375-3.890625zm0 0"/></symbol><symbol id="ah" overflow="visible"><path d="m4.09375-9.984375h-1.984375v1.984375h1.984375zm-2 8v1.984375h1.140625v.34375c0 1.3125-.234375 1.703125-1.140625 1.734375v.71875c1.265625.046875 2-.875 2-2.484375v-2.296875zm0 0"/></symbol><symbol id="ai" overflow="visible"><path d="m8.921875 0 3.90625-11.640625v11.640625h1.671875v-13.890625h-2.453125l-4.046875 12.09375-4.109375-12.09375h-2.453125v13.890625h1.671875v-11.640625l3.9375 11.640625zm0 0"/></symbol><symbol id="aj" overflow="visible"><path d="m1.03125 4.15625h1.59375v-5.203125c.84375 1.03125 1.78125 1.484375 3.078125 1.484375 2.59375 0 4.265625-2.078125 4.265625-5.265625 0-3.34375-1.640625-5.453125-4.28125-5.453125-1.359375 0-2.453125.609375-3.1875 1.796875v-1.5h-1.46875zm4.375-12.9375c1.765625 0 2.90625 1.53125 2.90625 3.921875 0 2.265625-1.15625 3.8125-2.90625 3.8125-1.6875 0-2.78125-1.53125-2.78125-3.875s1.09375-3.859375 2.78125-3.859375zm0 0"/></symbol><symbol id="ak" overflow="visible"><path d="m6.75-12.328125h4.546875v-1.5625h-10.890625v1.5625h4.5625v12.328125h1.78125zm0 0"/></symbol><symbol id="al" overflow="visible"><path d="m5.1875-10.28125c-2.828125 0-4.5 2.015625-4.5 5.359375 0 3.375 1.671875 5.359375 4.515625 5.359375 2.828125 0 4.515625-2 4.515625-5.28125 0-3.46875-1.640625-5.4375-4.53125-5.4375zm.015625 1.46875c1.796875 0 2.859375 1.46875 2.859375 3.953125 0 2.359375-1.109375 3.828125-2.859375 3.828125-1.765625 0-2.859375-1.46875-2.859375-3.890625s1.09375-3.890625 2.859375-3.890625zm.484375-5.296875-1.84375 2.828125h1.15625l2.828125-2.828125zm0 0"/></symbol><symbol id="am" overflow="visible"><path d="m3.640625-1.984375h-1.984375v1.984375h1.984375zm0 0"/></symbol><symbol id="an" overflow="visible"><path d="m1.5 0h6.28125c1.3125 0 2.28125-.359375 3.03125-1.15625.6875-.734375 1.0625-1.71875 1.0625-2.8125 0-1.671875-.765625-2.6875-2.53125-3.375 1.28125-.59375 1.921875-1.59375 1.921875-3.03125 0-1.03125-.375-1.90625-1.109375-2.546875-.734375-.671875-1.671875-.96875-3-.96875h-5.65625zm1.78125-7.90625v-4.421875h3.421875c1 0 1.546875.125 2.03125.484375.484375.390625.765625.953125.765625 1.71875s-.28125 1.34375-.765625 1.71875c-.484375.359375-1.03125.5-2.03125.5zm0 6.34375v-4.78125h4.328125c1.5625 0 2.5.890625 2.5 2.390625s-.9375 2.390625-2.5 2.390625zm0 0"/></symbol><symbol id="ao" overflow="visible"><path d="m9.1875 0v-9.984375h-1.578125v5.65625c0 2.046875-1.078125 3.375-2.734375 3.375-1.25 0-2.046875-.765625-2.046875-1.96875v-7.0625h-1.59375v7.703125c0 1.65625 1.25 2.71875 3.1875 2.71875 1.46875 0 2.40625-.515625 3.34375-1.828125v1.390625zm-4.5625-14.109375-1.828125 2.859375h1.15625l2.828125-2.859375zm3.328125 0-1.828125 2.859375h1.140625l2.84375-2.859375zm0 0"/></symbol><symbol id="ap" overflow="visible"><path d="m6.859375-4.171875c-1.296875 0-2.53125.4375-3.640625 1.109375-1.453125.875-3.21875 2.390625-3.21875 4.578125 0 1.828125 1.609375 2.65625 3.25 2.65625 1.296875 0 2.53125-.4375 3.640625-1.109375 1.453125-.875 3.1875-2.390625 3.1875-4.578125 0-1.828125-1.578125-2.65625-3.21875-2.65625zm0 0"/></symbol><symbol id="aq" overflow="visible"><path d="m9.765625-2.0625c0 .296875-.09375.640625-.3125.890625-.65625.765625-2.125 1.734375-3.3125 2.46875-1.171875.734375-2.65625 1.734375-3.609375 2.015625-.125.03125-.28125.046875-.40625.046875-.671875 0-1.296875-.515625-1.296875-1.296875 0-.296875.09375-.640625.3125-.890625.65625-.765625 2.140625-1.734375 3.3125-2.46875s2.65625-1.734375 3.609375-2.015625c.125-.03125.28125-.046875.40625-.046875.671875 0 1.296875.515625 1.296875 1.296875zm-1.578125-2.109375c-2.3125 0-4.203125.5-5.84375 1.609375-.984375.671875-1.640625 1.734375-2 2.875-.1875.546875-.34375 1.171875-.34375 1.75 0 1.453125 1.046875 2.109375 2.40625 2.109375 2.3125 0 4.203125-.5 5.84375-1.609375.984375-.671875 1.640625-1.734375 2-2.875.1875-.546875.34375-1.171875.34375-1.75 0-1.453125-1.046875-2.109375-2.40625-2.109375zm0 0"/></symbol><symbol id="ar" overflow="visible"><path d="m6.640625 9.765625v-5.046875l1.515625-.515625c.1875-.0625.34375-.25.34375-.46875v-2c0-.34375-.34375-.59375-.65625-.46875l-1.203125.4375v-5.0625l1.515625-.5625c.1875-.0625.34375-.25.34375-.46875v-1.96875c0-.34375-.34375-.59375-.65625-.46875l-1.203125.40625v-4.640625c0-.28125-.25-.515625-.53125-.515625-.265625 0-.515625.234375-.515625.515625v5.015625l-2.6875.953125v-4.671875c0-.28125-.25-.515625-.53125-.515625s-.515625.234375-.515625.515625v5.046875l-1.515625.515625c-.1875.0625-.34375.25-.34375.46875v2c0 .34375.34375.59375.65625.46875l1.203125-.4375v5.0625l-1.515625.5625c-.1875.0625-.34375.25-.34375.46875v1.96875c0 .34375.34375.59375.65625.46875l1.203125-.40625v4.640625c0 .28125.234375.515625.515625.515625s.53125-.234375.53125-.515625v-5.015625l2.6875-.953125v4.671875c0 .28125.25.515625.515625.515625.28125 0 .53125-.234375.53125-.515625zm-3.734375-11.828125 2.6875-.9375v5.0625l-2.6875.9375zm0 0"/></symbol><symbol id="as" overflow="visible"><path d="m11.34375 0c.109375 0 .234375-.125.234375-.25v-4.328125c0-.125-.125-.234375-.234375-.234375h-11.09375c-.125 0-.25.109375-.25.234375v4.328125c0 .125.125.25.25.25zm0 0"/></symbol><symbol id="at" overflow="visible"><path d="m.765625-1.359375c.03125-1.015625.71875-1.921875 1.671875-1.921875.921875 0 1.359375 1.09375 1.359375 2.140625 0 1.8125-1.546875 3.125-2.96875 4.296875-.0625-.6875-.125-1.359375-.125-2.046875 0-.125.03125-.21875.03125-.34375zm-1.53125-12.9375.328125 18.5c0 .375.28125.640625.65625.640625.546875 0 .796875-.640625 1.234375-.984375 1.9375-1.578125 4.71875-2.6875 4.71875-5.21875 0-1.671875-1.234375-3.09375-2.859375-3.09375-1 0-1.921875.34375-2.71875.9375l.171875-10.78125c-.234375-.125-.484375-.21875-.765625-.21875s-.53125.09375-.765625.21875zm0 0"/></symbol><symbol id="au" overflow="visible"><path d="m11.546875-8.03125c-.484375-2.15625-1.078125-4.296875-1.6875-6.421875 2.953125-3.375 5.640625-6.828125 5.640625-11.28125 0-3.484375-1.90625-8.5-4.078125-11.09375-.140625-.109375-.328125-.109375-.484375 0-2.9375 2.140625-4.640625 5.53125-4.640625 9.125 0 1.59375.03125 3.171875.21875 4.75.21875 2.015625.75 3.953125 1.296875 5.90625-3.640625 4.140625-7.75 8.09375-7.75 13.59375 0 6.203125 4.484375 11.484375 10.28125 11.484375.96875 0 1.859375-.09375 2.75-.25.09375.984375.15625 1.984375.15625 2.96875 0 .5625-.03125 1.078125-.0625 1.640625-.1875 3.0625-2.0625 5.859375-4.9375 5.921875-.03125 0-.0625.03125-.09375.03125-1.578125 0-2.9375-.890625-3.734375-2.15625.328125.15625.703125.28125 1.078125.28125 1.609375 0 2.9375-1.328125 2.9375-2.9375 0-1.734375-1.265625-3.21875-2.9375-3.21875-1.828125 0-3.46875 1.421875-3.46875 3.21875 0 3.328125 2.6875 6.015625 6.03125 6.015625 3.640625 0 6.140625-3.265625 6.359375-6.96875.03125-.59375.03125-1.15625.03125-1.734375 0-1.109375-.0625-2.21875-.15625-3.34375.8125-.234375 1.578125-.609375 2.265625-1.140625 2.28125-1.6875 3.296875-4.078125 3.296875-6.421875 0-4.078125-3.078125-8-7.84375-8-.15625 0-.3125.03125-.46875.03125zm2.625 14.359375c-.421875-3.828125-1.140625-7.46875-1.90625-11.078125 3.390625.265625 5.53125 3.109375 5.53125 5.953125 0 2.15625-1.484375 4.390625-3.625 5.125zm-11.984375-7.28125c0-4.953125 3.34375-8.6875 6.671875-12.421875.5 1.828125 1 3.640625 1.421875 5.5-3.109375.703125-4.875 3.328125-4.875 6.046875 0 2.171875 1.109375 4.359375 3.578125 5.6875.09375.03125.1875.0625.28125.0625.34375 0 .625-.3125.625-.640625 0-.15625-.09375-.3125-.21875-.4375-1.734375-.984375-2.53125-2.46875-2.53125-3.828125 0-1.828125 1.421875-3.46875 3.859375-3.734375.796875 3.703125 1.515625 7.375 1.96875 11.328125-.828125.125-1.65625.1875-2.53125.1875-4.203125 0-8.25-3.546875-8.25-7.75zm10.515625-31.484375c.515625 1.640625.640625 2.4375.640625 4.234375 0 3.921875-2.0625 7.046875-4.609375 10.046875-.546875-1.953125-1.015625-3.84375-1.015625-6.1875 0-3.421875 1.921875-6.546875 4.984375-8.09375zm0 0"/></symbol><symbol id="av" overflow="visible"><path d="m-.703125 3.484375c0 1.671875 1.4375 4.609375 2.859375 6.3125.1875.21875.5-.0625.3125-.28125-.515625-.65625-.859375-1.890625-.859375-2.96875 0-1.265625.375-2.15625 1.609375-2.15625 1.109375 0 2.5625.640625 3.140625 1.328125.09375.125.21875.15625.3125.15625.21875 0 .4375-.21875.4375-.4375 0-.09375-.03125-.15625-.09375-.25l-2.6875-3.203125c-.5-.625-.75-1.328125-.75-2.078125 0-.953125.40625-1.9375 1.203125-2.625 1.15625-.984375 2.65625-1.953125 2.65625-2.96875 0-.25-.078125-.515625-.296875-.765625l-4.703125-5.625c-.09375-.125-.21875-.15625-.3125-.15625-.203125 0-.421875.21875-.421875.4375 0 .09375.03125.1875.09375.28125l1.203125 1.421875c.484375.609375.734375 1.328125.734375 2.0625 0 .953125-.390625 1.953125-1.203125 2.625-1.140625.984375-2.65625 1.953125-2.65625 2.96875 0 .25.09375.515625.3125.765625l4.234375 5.0625c-1.390625-.671875-2.96875-1.140625-4.015625-1.140625-.8125 0-1.109375.4375-1.109375 1.234375zm0 0"/></symbol><symbol id="aw" overflow="visible"><path d="m6.640625-3.515625c2.4375 0 4.265625 1.875 4.265625 4.3125 0 1.421875-.625 2.71875-2.171875 2.71875-2.4375 0-4.28125-1.875-4.28125-4.3125 0-1.421875.640625-2.71875 2.1875-2.71875zm8.71875 3.515625c0-1.328125-1.09375-2.28125-2.265625-2.9375-1.671875-.890625-3.515625-1.234375-5.40625-1.234375-1.875 0-3.765625.34375-5.4375 1.234375-1.171875.65625-2.25 1.609375-2.25 2.9375s1.078125 2.28125 2.25 2.9375c1.671875.890625 3.5625 1.234375 5.4375 1.234375 1.890625 0 3.734375-.34375 5.40625-1.234375 1.171875-.65625 2.265625-1.609375 2.265625-2.9375zm0 0"/></symbol><symbol id="ax" overflow="visible"><path d="m4.046875-8.3125v8.3125h2.375v-12.046875h-1.578125c-.375 1.4375-1.609375 2.15625-3.6875 2.15625v1.578125zm0 0"/></symbol><symbol id="ay" overflow="visible"><path d="m3.640625-2.484375h-2.546875v2.484375h2.546875zm0 0"/></symbol><symbol id="az" overflow="visible"><path d="m6.875-1.4375c0 .21875-.0625.4375-.21875.609375-.453125.546875-1.5 1.21875-2.3125 1.75-.8125.515625-1.859375 1.203125-2.53125 1.390625-.09375.03125-.171875.046875-.265625.046875-.46875 0-.90625-.390625-.90625-.921875 0-.21875.0625-.4375.21875-.609375.453125-.546875 1.5-1.21875 2.3125-1.75.796875-.515625 1.828125-1.203125 2.5-1.390625.09375-.03125.203125-.046875.296875-.046875.46875 0 .90625.390625.90625.921875zm-1.125-1.515625c-1.625 0-2.953125.3125-4.109375 1.09375-.703125.484375-1.140625 1.265625-1.40625 2.078125-.125.390625-.234375.8125-.234375 1.21875 0 1.078125.765625 1.515625 1.75 1.515625 1.609375 0 2.953125-.3125 4.109375-1.09375.6875-.484375 1.15625-1.265625 1.421875-2.078125.125-.390625.234375-.8125.234375-1.21875 0-1.078125-.78125-1.515625-1.765625-1.515625zm0 0"/></symbol><g clip-path="url(#a)"><path d="m2.96875 5206.195312h5946.835938" fill="none" stroke="#000" stroke-linecap="round" stroke-miterlimit="10" stroke-width="5.92204" transform="matrix(.1 0 0 -.1 0 582.35)"/></g><g clip-path="url(#b)"><path d="m2.96875 5283.421875h5946.835938" fill="none" stroke="#000" stroke-linecap="round" stroke-miterlimit="10" stroke-width="5.92204" transform="matrix(.1 0 0 -.1 0 582.35)"/></g><g clip-path="url(#c)"><path d="m2.96875 5360.609375h5946.835938" fill="none" stroke="#000" stroke-linecap="round" stroke-miterlimit="10" stroke-width="5.92204" transform="matrix(.1 0 0 -.1 0 582.35)"/></g><g clip-path="url(#d)"><path d="m2.96875 5437.835937h5946.835938" fill="none" stroke="#000" stroke-linecap="round" stroke-miterlimit="10" stroke-width="5.92204" transform="matrix(.1 0 0 -.1 0 582.35)"/></g><g clip-path="url(#e)"><path d="m2.96875 5515.023437h5946.835938" fill="none" stroke="#000" stroke-linecap="round" stroke-miterlimit="10" stroke-width="5.92204" transform="matrix(.1 0 0 -.1 0 582.35)"/></g><use x="459.987" xlink:href="#F" y="88.754"/><use x="465.259661" xlink:href="#G" y="88.754"/><use x="421.8807" xlink:href="#ap" y="54.0095"/><use x="422.669763" xlink:href="#H" y="88.754"/><use x="426.92172" xlink:href="#I" y="88.754"/><path d="m4313.945312 5300.609375h3.710938v251.054687h-3.710938zm0 0" style="fill:none;stroke-width:3.98406;stroke-linecap:round;stroke-linejoin:round;stroke:#000;stroke-miterlimit:10" transform="matrix(.1 0 0 -.1 0 582.35)"/><path d="m431.394531 52.289062h.371094v-25.105468h-.371094zm0 0"/><use x="462.088" xlink:href="#aq" y="57.87"/><path d="m4721.132812 5267.523437h3.710938v245.546875h-3.710938zm0 0" style="fill:none;stroke-width:3.98406;stroke-linecap:round;stroke-linejoin:round;stroke:#000;stroke-miterlimit:10" transform="matrix(.1 0 0 -.1 0 582.35)"/><path d="m472.113281 55.597656h.371094v-24.550781h-.371094zm0 0"/><use x="450.893" xlink:href="#ar" y="57.87"/><use x="495.7192" xlink:href="#J" y="88.754"/><use x="500.821158" xlink:href="#K" y="88.754"/><use x="511.365699" xlink:href="#L" y="88.754"/><use x="521.910239" xlink:href="#M" y="88.754"/><path d="m3911.835938 5339.203125h3.710937v251.054687h-3.710937zm0 0" style="fill:none;stroke-width:3.98406;stroke-linecap:round;stroke-linejoin:round;stroke:#000;stroke-miterlimit:10" transform="matrix(.1 0 0 -.1 0 582.35)"/><path d="m391.183594 48.429688h.371094v-25.105469h-.371094zm0 0"/><use x="376.169" xlink:href="#N" y="88.754"/><use x="386.713516" xlink:href="#O" y="88.754"/><use x="381.6733" xlink:href="#ap" y="50.1489"/><path d="m3399.6875 5300.609375h3.710938v251.054687h-3.710938zm0 0" style="fill:none;stroke-width:3.98406;stroke-linecap:round;stroke-linejoin:round;stroke:#000;stroke-miterlimit:10" transform="matrix(.1 0 0 -.1 0 582.35)"/><path d="m339.96875 52.289062h.371094v-25.105468h-.371094zm0 0"/><use x="307.179" xlink:href="#P" y="88.754"/><use x="322.996177" xlink:href="#K" y="88.754"/><use x="333.540694" xlink:href="#L" y="88.754"/><use x="344.08521" xlink:href="#L" y="88.754"/><use x="354.290274" xlink:href="#Q" y="88.754"/><use x="330.4563" xlink:href="#ap" y="54.0095"/><path d="m2816.09375 5261.976562h3.710938v251.054688h-3.710938zm0 0" style="fill:none;stroke-width:3.98406;stroke-linecap:round;stroke-linejoin:round;stroke:#000;stroke-miterlimit:10" transform="matrix(.1 0 0 -.1 0 582.35)"/><path d="m281.609375 56.152344h.371094v-25.105469h-.371094zm0 0"/><path d="m854.335938 4988.539062h46.25v2.929688h-46.25zm0 0" style="fill:none;stroke-width:4.733;stroke-linecap:round;stroke-linejoin:round;stroke:#000;stroke-miterlimit:10" transform="matrix(.1 0 0 -.1 0 582.35)"/><path d="m85.433594 83.496094h4.625v-.292969h-4.625zm0 0"/><path d="m1607.34375 4988.539062h46.210938v2.929688h-46.210938zm0 0" style="fill:none;stroke-width:4.733;stroke-linecap:round;stroke-linejoin:round;stroke:#000;stroke-miterlimit:10" transform="matrix(.1 0 0 -.1 0 582.35)"/><path d="m160.734375 83.496094h4.621094v-.292969h-4.621094zm0 0"/><path d="m2483.828125 4988.539062h46.25v2.929688h-46.25zm0 0" style="fill:none;stroke-width:4.733;stroke-linecap:round;stroke-linejoin:round;stroke:#000;stroke-miterlimit:10" transform="matrix(.1 0 0 -.1 0 582.35)"/><path d="m248.382812 83.496094h4.625v-.292969h-4.625zm0 0"/><path d="m3676.796875 4988.539062h46.25v2.929688h-46.25zm0 0" style="fill:none;stroke-width:4.733;stroke-linecap:round;stroke-linejoin:round;stroke:#000;stroke-miterlimit:10" transform="matrix(.1 0 0 -.1 0 582.35)"/><path d="m367.679688 83.496094h4.625v-.292969h-4.625zm0 0"/><path d="m4076.523438 4988.539062h46.25v2.929688h-46.25zm0 0" style="fill:none;stroke-width:4.733;stroke-linecap:round;stroke-linejoin:round;stroke:#000;stroke-miterlimit:10" transform="matrix(.1 0 0 -.1 0 582.35)"/><path d="m407.652344 83.496094h4.621094v-.292969h-4.621094zm0 0"/><path d="m4829.414062 4988.539062h46.210938v2.929688h-46.210938zm0 0" style="fill:none;stroke-width:4.733;stroke-linecap:round;stroke-linejoin:round;stroke:#000;stroke-miterlimit:10" transform="matrix(.1 0 0 -.1 0 582.35)"/><path d="m482.941406 83.496094h4.621094v-.292969h-4.621094zm0 0"/><use x="506.155" xlink:href="#aq" y="54.009"/><use x="550.2214" xlink:href="#as" y="46.28791"/><path d="m5161.796875 5306.117187h3.710937v245.546875h-3.710937zm0 0" style="fill:none;stroke-width:3.98406;stroke-linecap:round;stroke-linejoin:round;stroke:#000;stroke-miterlimit:10" transform="matrix(.1 0 0 -.1 0 582.35)"/><path d="m516.179688 51.738281h.371093v-24.554687h-.371093zm0 0"/><use x="98.5539" xlink:href="#H" y="88.754"/><use x="102.805845" xlink:href="#R" y="88.754"/><use x="113.350361" xlink:href="#J" y="88.754"/><use x="103.54765" xlink:href="#ap" y="54.0095"/><path d="m695.039062 5306.117187h3.710938v245.546875h-3.710938zm0 0" style="fill:none;stroke-width:3.98406;stroke-linecap:round;stroke-linejoin:round;stroke:#000;stroke-miterlimit:10" transform="matrix(.1 0 0 -.1 0 582.35)"/><path d="m69.503906 51.738281h.371094v-24.554687h-.371094zm0 0"/><use x="30.6094" xlink:href="#ax" y="88.754"/><use x="40.133994" xlink:href="#ay" y="88.754"/><use x="52.6176" xlink:href="#S" y="88.754"/><use x="66.39415" xlink:href="#R" y="88.754"/><use x="272.0956" xlink:href="#ap" y="57.87"/><use x="34.0006" xlink:href="#at" y="46.2884"/><use x="6.1764" xlink:href="#au" y="54.00949"/><path d="m588.90625 5598.617187h4.726562v146.992188h-4.726562zm0 0" style="fill:none;stroke-width:2.36264;stroke-linecap:round;stroke-linejoin:round;stroke:#000;stroke-miterlimit:10" transform="matrix(.1 0 0 -.1 0 582.35)"/><path d="m58.890625 22.488281h.472656v-14.699219h-.472656zm0 0"/><use x="51.9758" xlink:href="#az" y="24.05"/><use x="59.48049" xlink:href="#aq" y="54.0094"/><use x="182.03249" xlink:href="#aq" y="65.591"/><use x="259.44849" xlink:href="#T" y="88.7539"/><use x="268.63246" xlink:href="#K" y="88.7539"/><use x="279.177367" xlink:href="#U" y="88.7539"/><use x="289.551962" xlink:href="#M" y="88.7539"/><path d="m2361.210938 5190.296875h3.75v245.546875h-3.75zm0 0" style="fill:none;stroke-width:3.98406;stroke-linecap:round;stroke-linejoin:round;stroke:#000;stroke-miterlimit:10" transform="matrix(.1 0 0 -.1 0 582.35)"/><path d="m236.121094 63.320312h.371094v-24.554687h-.371094zm0 0"/><use x="220.851" xlink:href="#L" y="88.754"/><use x="231.395907" xlink:href="#O" y="88.754"/><use x="226.09905" xlink:href="#aq" y="65.5911"/><path d="m1920.546875 5190.296875h3.710937v245.546875h-3.710937zm0 0" style="fill:none;stroke-width:3.98406;stroke-linecap:round;stroke-linejoin:round;stroke:#000;stroke-miterlimit:10" transform="matrix(.1 0 0 -.1 0 582.35)"/><path d="m192.054688 63.320312h.371093v-24.554687h-.371093zm0 0"/><use x="172.023" xlink:href="#U" y="88.754"/><use x="182.567516" xlink:href="#V" y="88.754"/><use x="193.112033" xlink:href="#T" y="88.754"/><path d="m1130.585938 5300.609375h3.710937v251.054687h-3.710937zm0 0" style="fill:none;stroke-width:3.98406;stroke-linecap:round;stroke-linejoin:round;stroke:#000;stroke-miterlimit:10" transform="matrix(.1 0 0 -.1 0 582.35)"/><path d="m113.058594 52.289062h.371094v-25.105468h-.371094zm0 0"/><path d="m1532.695312 5300.609375h3.710938v251.054687h-3.710938zm0 0" style="fill:none;stroke-width:3.98406;stroke-linecap:round;stroke-linejoin:round;stroke:#000;stroke-miterlimit:10" transform="matrix(.1 0 0 -.1 0 582.35)"/><path d="m153.265625 52.289062h.371094v-25.105468h-.371094zm0 0"/><use x="143.524" xlink:href="#W" y="88.754"/><use x="143.754859" xlink:href="#ap" y="54.0095"/><g clip-path="url(#f)"><path d="m2.96875 4279.671875h5946.835938" style="fill:none;stroke-width:5.92204;stroke-linecap:round;stroke-linejoin:round;stroke:#000;stroke-miterlimit:10" transform="matrix(.1 0 0 -.1 0 582.35)"/></g><g clip-path="url(#g)"><path d="m2.96875 4356.898437h5946.835938" style="fill:none;stroke-width:5.92204;stroke-linecap:round;stroke-linejoin:round;stroke:#000;stroke-miterlimit:10" transform="matrix(.1 0 0 -.1 0 582.35)"/></g><g clip-path="url(#h)"><path d="m2.96875 4434.085937h5946.835938" style="fill:none;stroke-width:5.92204;stroke-linecap:round;stroke-linejoin:round;stroke:#000;stroke-miterlimit:10" transform="matrix(.1 0 0 -.1 0 582.35)"/></g><g clip-path="url(#i)"><path d="m2.96875 4511.3125h5946.835938" style="fill:none;stroke-width:5.92204;stroke-linecap:round;stroke-linejoin:round;stroke:#000;stroke-miterlimit:10" transform="matrix(.1 0 0 -.1 0 582.35)"/></g><g clip-path="url(#j)"><path d="m2.96875 4588.539062h5946.835938" style="fill:none;stroke-width:5.92204;stroke-linecap:round;stroke-linejoin:round;stroke:#000;stroke-miterlimit:10" transform="matrix(.1 0 0 -.1 0 582.35)"/></g><use x="410.463" xlink:href="#L" y="181.406"/><use x="421.007541" xlink:href="#K" y="181.406"/><path d="m4254.804688 4374.085937h3.710937v251.054688h-3.710937zm0 0" style="fill:none;stroke-width:3.98406;stroke-linecap:round;stroke-linejoin:round;stroke:#000;stroke-miterlimit:10" transform="matrix(.1 0 0 -.1 0 582.35)"/><path d="m425.480469 144.945312h.371093v-25.109374h-.371093zm0 0"/><use x="457.539" xlink:href="#aq" y="150.522"/><use x="452.97142" xlink:href="#X" y="181.4064"/><use x="462.155412" xlink:href="#O" y="181.4064"/><path d="m4675.625 4341h3.710938v245.507812h-3.710938zm0 0" style="fill:none;stroke-width:3.98406;stroke-linecap:round;stroke-linejoin:round;stroke:#000;stroke-miterlimit:10" transform="matrix(.1 0 0 -.1 0 582.35)"/><path d="m467.5625 148.25h.371094v-24.550781h-.371094zm0 0"/><use x="446.344" xlink:href="#ar" y="150.522"/><use x="415.967" xlink:href="#ap" y="146.66145"/><path d="m3839.0625 4412.679687h3.710938v251.054688h-3.710938zm0 0" style="fill:none;stroke-width:3.98406;stroke-linecap:round;stroke-linejoin:round;stroke:#000;stroke-miterlimit:10" transform="matrix(.1 0 0 -.1 0 582.35)"/><path d="m383.90625 141.082031h.371094v-25.105469h-.371094zm0 0"/><use x="364.129" xlink:href="#L" y="181.406"/><use x="374.673516" xlink:href="#W" y="181.406"/><use x="385.218033" xlink:href="#T" y="181.406"/><use x="374.3946" xlink:href="#ap" y="142.8005"/><path d="m3423.359375 4374.085937h3.710937v251.054688h-3.710937zm0 0" style="fill:none;stroke-width:3.98406;stroke-linecap:round;stroke-linejoin:round;stroke:#000;stroke-miterlimit:10" transform="matrix(.1 0 0 -.1 0 582.35)"/><path d="m342.335938 144.945312h.371093v-25.109374h-.371093zm0 0"/><use x="325.192" xlink:href="#J" y="181.406"/><use x="330.464661" xlink:href="#Y" y="181.406"/><use x="341.009568" xlink:href="#G" y="181.406"/><use x="332.82208" xlink:href="#ap" y="146.6611"/><path d="m1287.070312 4062.015625h46.25v2.929687h-46.25zm0 0" style="fill:none;stroke-width:4.733;stroke-linecap:round;stroke-linejoin:round;stroke:#000;stroke-miterlimit:10" transform="matrix(.1 0 0 -.1 0 582.35)"/><path d="m128.707031 176.152344h4.625v-.296875h-4.625zm0 0"/><path d="m1719.960938 4062.015625h46.210937v2.929687h-46.210937zm0 0" style="fill:none;stroke-width:4.733;stroke-linecap:round;stroke-linejoin:round;stroke:#000;stroke-miterlimit:10" transform="matrix(.1 0 0 -.1 0 582.35)"/><path d="m171.996094 176.152344h4.621094v-.296875h-4.621094zm0 0"/><path d="m3167.03125 4062.015625h46.25v2.929687h-46.25zm0 0" style="fill:none;stroke-width:4.733;stroke-linecap:round;stroke-linejoin:round;stroke:#000;stroke-miterlimit:10" transform="matrix(.1 0 0 -.1 0 582.35)"/><path d="m316.703125 176.152344h4.625v-.296875h-4.625zm0 0"/><path d="m3550.195312 4062.015625h46.25v2.929687h-46.25zm0 0" style="fill:none;stroke-width:4.733;stroke-linecap:round;stroke-linejoin:round;stroke:#000;stroke-miterlimit:10" transform="matrix(.1 0 0 -.1 0 582.35)"/><path d="m355.019531 176.152344h4.621094v-.296875h-4.621094zm0 0"/><path d="m4399.53125 4062.015625h46.210938v2.929687h-46.210938zm0 0" style="fill:none;stroke-width:4.733;stroke-linecap:round;stroke-linejoin:round;stroke:#000;stroke-miterlimit:10" transform="matrix(.1 0 0 -.1 0 582.35)"/><path d="m439.949219 176.152344h4.625v-.296875h-4.625zm0 0"/><path d="m4790.234375 4062.015625h46.210937v2.929687h-46.210937zm0 0" style="fill:none;stroke-width:4.733;stroke-linecap:round;stroke-linejoin:round;stroke:#000;stroke-miterlimit:10" transform="matrix(.1 0 0 -.1 0 582.35)"/><path d="m479.023438 176.152344h4.621093v-.296875h-4.621093zm0 0"/><use x="503.122" xlink:href="#aq" y="146.661"/><use x="548.7048" xlink:href="#as" y="138.93991"/><path d="m5131.445312 4379.59375h3.710938v245.546875h-3.710938zm0 0" style="fill:none;stroke-width:3.98406;stroke-linecap:round;stroke-linejoin:round;stroke:#000;stroke-miterlimit:10" transform="matrix(.1 0 0 -.1 0 582.35)"/><path d="m513.144531 144.390625h.371094v-24.554687h-.371094zm0 0"/><use x="489.965" xlink:href="#N" y="181.406"/><use x="500.509541" xlink:href="#K" y="181.406"/><use x="511.054472" xlink:href="#L" y="181.406"/><use x="521.599013" xlink:href="#M" y="181.406"/><path d="m1143.164062 4418.226562h3.710938v245.507813h-3.710938zm0 0" style="fill:none;stroke-width:3.98406;stroke-linecap:round;stroke-linejoin:round;stroke:#000;stroke-miterlimit:10" transform="matrix(.1 0 0 -.1 0 582.35)"/><path d="m114.3125 140.53125h.371094v-24.554688h-.371094zm0 0"/><use x="101.765" xlink:href="#Z" y="181.406"/><use x="113.160689" xlink:href="#I" y="181.406"/><use x="104.29156" xlink:href="#aq" y="142.8005"/><path d="m589.101562 4178.734375h3.710938v232.65625h-3.710938zm0 0" style="fill:none;stroke-width:3.98406;stroke-linecap:round;stroke-linejoin:round;stroke:#000;stroke-miterlimit:10" transform="matrix(.1 0 0 -.1 0 582.35)"/><path d="m58.90625 164.476562h.371094v-23.265624h-.371094zm0 0"/><use x="39.9395" xlink:href="#aa" y="181.406"/><use x="52.695346" xlink:href="#ab" y="181.406"/><use x="61.70979" xlink:href="#K" y="181.406"/><use x="72.254312" xlink:href="#L" y="181.406"/><use x="82.798835" xlink:href="#J" y="181.406"/><use x="58.7086" xlink:href="#aq" y="138.94"/><use x="34.00116" xlink:href="#at" y="138.94"/><use x="6.177" xlink:href="#au" y="146.66109"/><path d="m2961.367188 4335.453125h3.710937v251.054687h-3.710937zm0 0" style="fill:none;stroke-width:3.98406;stroke-linecap:round;stroke-linejoin:round;stroke:#000;stroke-miterlimit:10" transform="matrix(.1 0 0 -.1 0 582.35)"/><path d="m296.132812 148.804688h.371094v-25.105469h-.371094zm0 0"/><use x="270.489" xlink:href="#ac" y="181.406"/><use x="283.244846" xlink:href="#ad" y="181.406"/><use x="289.537821" xlink:href="#I" y="181.406"/><use x="293.789778" xlink:href="#G" y="181.406"/><use x="303.314371" xlink:href="#ab" y="181.406"/><use x="286.6222" xlink:href="#ap" y="150.5216"/><path d="m2491.328125 4263.773437h3.710937v245.546875h-3.710937zm0 0" style="fill:none;stroke-width:3.98406;stroke-linecap:round;stroke-linejoin:round;stroke:#000;stroke-miterlimit:10" transform="matrix(.1 0 0 -.1 0 582.35)"/><path d="m249.132812 155.972656h.371094v-24.554687h-.371094zm0 0"/><use x="239.134" xlink:href="#W" y="181.406"/><use x="239.109391" xlink:href="#aq" y="158.2427"/><path d="m2054.804688 4341h3.710937v245.507812h-3.710937zm0 0" style="fill:none;stroke-width:3.98406;stroke-linecap:round;stroke-linejoin:round;stroke:#000;stroke-miterlimit:10" transform="matrix(.1 0 0 -.1 0 582.35)"/><path d="m205.480469 148.25h.371093v-24.550781h-.371093zm0 0"/><use x="195.457" xlink:href="#aq" y="150.522"/><use x="149.8742" xlink:href="#aq" y="146.66145"/><use x="144.62654" xlink:href="#W" y="181.40635"/><use x="155.171056" xlink:href="#U" y="181.40635"/><path d="m1598.984375 4379.59375h3.710937v245.546875h-3.710937zm0 0" style="fill:none;stroke-width:3.98406;stroke-linecap:round;stroke-linejoin:round;stroke:#000;stroke-miterlimit:10" transform="matrix(.1 0 0 -.1 0 582.35)"/><path d="m159.898438 144.390625h.371093v-24.554687h-.371093zm0 0"/><use x="182.895" xlink:href="#L" y="181.406"/><use x="193.439516" xlink:href="#W" y="181.406"/><use x="203.984424" xlink:href="#T" y="181.406"/><use x="213.338314" xlink:href="#M" y="181.406"/><g clip-path="url(#k)"><path d="m2.96875 3353.148437h5946.835938" style="fill:none;stroke-width:5.92204;stroke-linecap:round;stroke-linejoin:round;stroke:#000;stroke-miterlimit:10" transform="matrix(.1 0 0 -.1 0 582.35)"/></g><g clip-path="url(#l)"><path d="m2.96875 3430.375h5946.835938" style="fill:none;stroke-width:5.92204;stroke-linecap:round;stroke-linejoin:round;stroke:#000;stroke-miterlimit:10" transform="matrix(.1 0 0 -.1 0 582.35)"/></g><g clip-path="url(#m)"><path d="m2.96875 3507.5625h5946.835938" style="fill:none;stroke-width:5.92204;stroke-linecap:round;stroke-linejoin:round;stroke:#000;stroke-miterlimit:10" transform="matrix(.1 0 0 -.1 0 582.35)"/></g><g clip-path="url(#n)"><path d="m2.96875 3584.789062h5946.835938" style="fill:none;stroke-width:5.92204;stroke-linecap:round;stroke-linejoin:round;stroke:#000;stroke-miterlimit:10" transform="matrix(.1 0 0 -.1 0 582.35)"/></g><g clip-path="url(#o)"><path d="m2.96875 3661.976562h5946.835938" style="fill:none;stroke-width:5.92204;stroke-linecap:round;stroke-linejoin:round;stroke:#000;stroke-miterlimit:10" transform="matrix(.1 0 0 -.1 0 582.35)"/></g><path d="m5041.601562 3414.476562h3.710938v245.507813h-3.710938zm0 0" style="fill:none;stroke-width:3.98406;stroke-linecap:round;stroke-linejoin:round;stroke:#000;stroke-miterlimit:10" transform="matrix(.1 0 0 -.1 0 582.35)"/><path d="m504.160156 240.902344h.371094v-24.550782h-.371094zm0 0"/><use x="447.209" xlink:href="#ap" y="239.314"/><use x="446.977359" xlink:href="#ae" y="274.0585"/><path d="m4567.226562 3447.523437h3.710938v251.09375h-3.710938zm0 0" style="fill:none;stroke-width:3.98406;stroke-linecap:round;stroke-linejoin:round;stroke:#000;stroke-miterlimit:10" transform="matrix(.1 0 0 -.1 0 582.35)"/><path d="m456.722656 237.597656h.371094v-25.109375h-.371094zm0 0"/><use x="494.137" xlink:href="#aq" y="243.175"/><use x="489.48427" xlink:href="#ad" y="274.059"/><use x="495.776829" xlink:href="#I" y="274.059"/><use x="499.858865" xlink:href="#ab" y="274.059"/><use x="304.181579" xlink:href="#O" y="274.059"/><use x="314.726095" xlink:href="#af" y="274.059"/><path d="m4097.890625 3486.15625h3.75v251.054687h-3.75zm0 0" style="fill:none;stroke-width:3.98406;stroke-linecap:round;stroke-linejoin:round;stroke:#000;stroke-miterlimit:10" transform="matrix(.1 0 0 -.1 0 582.35)"/><path d="m409.789062 233.734375h.371094v-25.105469h-.371094zm0 0"/><use x="386.867" xlink:href="#P" y="274.059"/><use x="402.684568" xlink:href="#K" y="274.059"/><use x="413.229109" xlink:href="#ag" y="274.059"/><use x="400.2795" xlink:href="#ap" y="235.4539"/><path d="m3536.679688 3252.210937h3.710937v238.203125h-3.710937zm0 0" style="fill:none;stroke-width:3.98406;stroke-linecap:round;stroke-linejoin:round;stroke:#000;stroke-miterlimit:10" transform="matrix(.1 0 0 -.1 0 582.35)"/><path d="m353.667969 257.128906h.371093v-23.816406h-.371093zm0 0"/><use x="348.984" xlink:href="#af" y="274.059"/><use x="353.235957" xlink:href="#K" y="274.059"/><use x="363.780473" xlink:href="#H" y="274.059"/><use x="353.46759" xlink:href="#ap" y="231.5934"/><path d="m3067.382812 3277.914062h3.710938v251.09375h-3.710938zm0 0" style="fill:none;stroke-width:3.98406;stroke-linecap:round;stroke-linejoin:round;stroke:#000;stroke-miterlimit:10" transform="matrix(.1 0 0 -.1 0 582.35)"/><path d="m306.738281 254.558594h.371094v-25.109375h-.371094zm0 0"/><path d="m1364.375 3135.453125h46.25v2.96875h-46.25zm0 0" style="fill:none;stroke-width:4.733;stroke-linecap:round;stroke-linejoin:round;stroke:#000;stroke-miterlimit:10" transform="matrix(.1 0 0 -.1 0 582.35)"/><path d="m136.4375 268.804688h4.621094v-.296876h-4.621094zm0 0"/><path d="m1800.546875 3135.453125h46.210937v2.96875h-46.210937zm0 0" style="fill:none;stroke-width:4.733;stroke-linecap:round;stroke-linejoin:round;stroke:#000;stroke-miterlimit:10" transform="matrix(.1 0 0 -.1 0 582.35)"/><path d="m180.054688 268.804688h4.621093v-.296876h-4.621093zm0 0"/><path d="m3316.71875 3135.453125h46.210938v2.96875h-46.210938zm0 0" style="fill:none;stroke-width:4.733;stroke-linecap:round;stroke-linejoin:round;stroke:#000;stroke-miterlimit:10" transform="matrix(.1 0 0 -.1 0 582.35)"/><path d="m331.671875 268.804688h4.621094v-.296876h-4.621094zm0 0"/><path d="m4330.664062 3135.453125h46.210938v2.96875h-46.210938zm0 0" style="fill:none;stroke-width:4.733;stroke-linecap:round;stroke-linejoin:round;stroke:#000;stroke-miterlimit:10" transform="matrix(.1 0 0 -.1 0 582.35)"/><path d="m433.066406 268.804688h4.621094v-.296876h-4.621094zm0 0"/><path d="m4711.914062 3135.453125h46.25v2.96875h-46.25zm0 0" style="fill:none;stroke-width:4.733;stroke-linecap:round;stroke-linejoin:round;stroke:#000;stroke-miterlimit:10" transform="matrix(.1 0 0 -.1 0 582.35)"/><path d="m471.191406 268.804688h4.621094v-.296876h-4.621094zm0 0"/><path d="m5206.914062 3135.453125h46.210938v2.96875h-46.210938zm0 0" style="fill:none;stroke-width:4.733;stroke-linecap:round;stroke-linejoin:round;stroke:#000;stroke-miterlimit:10" transform="matrix(.1 0 0 -.1 0 582.35)"/><path d="m520.691406 268.804688h4.621094v-.296876h-4.621094zm0 0"/><path d="m5537.65625 3337.25h3.710938v245.546875h-3.710938zm0 0" style="fill:none;stroke-width:3.98406;stroke-linecap:round;stroke-linejoin:round;stroke:#000;stroke-miterlimit:10" transform="matrix(.1 0 0 -.1 0 582.35)"/><path d="m553.765625 248.625h.371094v-24.554688h-.371094zm0 0"/><use x="536.622" xlink:href="#J" y="274.059"/><use x="541.724349" xlink:href="#O" y="274.059"/><use x="552.268889" xlink:href="#H" y="274.059"/><use x="556.180221" xlink:href="#M" y="274.059"/><use x="543.74192" xlink:href="#aq" y="250.8961"/><path d="m1104.414062 3316.546875h3.75v251.054687h-3.75zm0 0" style="fill:none;stroke-width:3.98406;stroke-linecap:round;stroke-linejoin:round;stroke:#000;stroke-miterlimit:10" transform="matrix(.1 0 0 -.1 0 582.35)"/><path d="m110.441406 250.695312h.371094v-25.105468h-.371094zm0 0"/><use x="306.539" xlink:href="#ap" y="227.732"/><use x="110.243" xlink:href="#ap" y="223.87145"/><path d="m589.101562 3316.546875h3.710938v245.507812h-3.710938zm0 0" style="fill:none;stroke-width:3.98406;stroke-linecap:round;stroke-linejoin:round;stroke:#000;stroke-miterlimit:10" transform="matrix(.1 0 0 -.1 0 582.35)"/><path d="m58.90625 250.695312h.371094v-24.550781h-.371094zm0 0"/><use x="41.8953" xlink:href="#S" y="274.059"/><use x="55.67185" xlink:href="#V" y="274.059"/><use x="66.216373" xlink:href="#ag" y="274.059"/><use x="76.591365" xlink:href="#Q" y="274.059"/><use x="58.7086" xlink:href="#aq" y="223.8723"/><use x="104.7391" xlink:href="#K" y="274.059"/><use x="115.283616" xlink:href="#L" y="274.059"/><use x="34.0012" xlink:href="#at" y="231.5934"/><use x="6.177" xlink:href="#au" y="239.31449"/><path d="m2124.335938 3453.070312h3.710937v245.546875h-3.710937zm0 0" style="fill:none;stroke-width:3.98406;stroke-linecap:round;stroke-linejoin:round;stroke:#000;stroke-miterlimit:10" transform="matrix(.1 0 0 -.1 0 582.35)"/><path d="m212.429688 237.042969h.371093v-24.550781h-.371093zm0 0"/><use x="191.972" xlink:href="#P" y="274.059"/><use x="207.789177" xlink:href="#K" y="274.059"/><use x="218.164164" xlink:href="#J" y="274.059"/><use x="202.4075" xlink:href="#aq" y="239.3145"/><use x="255.0044" xlink:href="#aq" y="227.7329"/><use x="250.35167" xlink:href="#K" y="274.0591"/><use x="260.726265" xlink:href="#ab" y="274.0591"/><path d="m2552.03125 3277.914062h3.710938v245.546875h-3.710938zm0 0" style="fill:none;stroke-width:3.98406;stroke-linecap:round;stroke-linejoin:round;stroke:#000;stroke-miterlimit:10" transform="matrix(.1 0 0 -.1 0 582.35)"/><path d="m255.203125 254.558594h.371094v-24.554688h-.371094zm0 0"/><path d="m1573.710938 3316.546875h3.710937v251.054687h-3.710937zm0 0" style="fill:none;stroke-width:3.98406;stroke-linecap:round;stroke-linejoin:round;stroke:#000;stroke-miterlimit:10" transform="matrix(.1 0 0 -.1 0 582.35)"/><path d="m157.371094 250.695312h.371094v-25.105468h-.371094zm0 0"/><use x="151.668" xlink:href="#ag" y="274.059"/><use x="162.212516" xlink:href="#K" y="274.059"/><use x="157.17152" xlink:href="#ap" y="223.8723"/><g clip-path="url(#p)"><path d="m2.96875 2426.625h5946.835938" style="fill:none;stroke-width:5.92204;stroke-linecap:round;stroke-linejoin:round;stroke:#000;stroke-miterlimit:10" transform="matrix(.1 0 0 -.1 0 582.35)"/></g><g clip-path="url(#q)"><path d="m2.96875 2503.851562h5946.835938" style="fill:none;stroke-width:5.92204;stroke-linecap:round;stroke-linejoin:round;stroke:#000;stroke-miterlimit:10" transform="matrix(.1 0 0 -.1 0 582.35)"/></g><g clip-path="url(#r)"><path d="m2.96875 2581.039062h5946.835938" style="fill:none;stroke-width:5.92204;stroke-linecap:round;stroke-linejoin:round;stroke:#000;stroke-miterlimit:10" transform="matrix(.1 0 0 -.1 0 582.35)"/></g><g clip-path="url(#s)"><path d="m2.96875 2658.265625h5946.835938" style="fill:none;stroke-width:5.92204;stroke-linecap:round;stroke-linejoin:round;stroke:#000;stroke-miterlimit:10" transform="matrix(.1 0 0 -.1 0 582.35)"/></g><g clip-path="url(#t)"><path d="m2.96875 2735.453125h5946.835938" style="fill:none;stroke-width:5.92204;stroke-linecap:round;stroke-linejoin:round;stroke:#000;stroke-miterlimit:10" transform="matrix(.1 0 0 -.1 0 582.35)"/></g><use x="427.213" xlink:href="#ap" y="328.106"/><use x="413.8009" xlink:href="#P" y="366.7115"/><use x="429.618077" xlink:href="#K" y="366.7115"/><use x="440.162618" xlink:href="#L" y="366.7115"/><path d="m4367.265625 2559.632812h3.710937v251.054688h-3.710937zm0 0" style="fill:none;stroke-width:3.98406;stroke-linecap:round;stroke-linejoin:round;stroke:#000;stroke-miterlimit:10" transform="matrix(.1 0 0 -.1 0 582.35)"/><path d="m436.726562 326.386719h.371094v-25.105469h-.371094zm0 0"/><use x="468.139" xlink:href="#aq" y="324.246"/><use x="463.06087" xlink:href="#J" y="366.7116"/><use x="468.162828" xlink:href="#K" y="366.7116"/><use x="478.537837" xlink:href="#J" y="366.7116"/><path d="m4683.398438 2325.6875h3.710937v232.65625h-3.710937zm0 0" style="fill:none;stroke-width:3.98406;stroke-linecap:round;stroke-linejoin:round;stroke:#000;stroke-miterlimit:10" transform="matrix(.1 0 0 -.1 0 582.35)"/><path d="m468.339844 349.78125h.371094v-23.265625h-.371094zm0 0"/><use x="298.717" xlink:href="#ap" y="331.966"/><path d="m3874.648438 2521h3.710937v251.09375h-3.710937zm0 0" style="fill:none;stroke-width:3.98406;stroke-linecap:round;stroke-linejoin:round;stroke:#000;stroke-miterlimit:10" transform="matrix(.1 0 0 -.1 0 582.35)"/><path d="m387.464844 330.25h.371094v-25.105469h-.371094zm0 0"/><use x="364.539" xlink:href="#P" y="366.711"/><use x="380.356568" xlink:href="#K" y="366.711"/><use x="390.901085" xlink:href="#ag" y="366.711"/><use x="377.9515" xlink:href="#ap" y="331.9661"/><path d="m3466.210938 2482.40625h3.710937v251.054687h-3.710937zm0 0" style="fill:none;stroke-width:3.98406;stroke-linecap:round;stroke-linejoin:round;stroke:#000;stroke-miterlimit:10" transform="matrix(.1 0 0 -.1 0 582.35)"/><path d="m346.621094 334.109375h.371094v-25.105469h-.371094zm0 0"/><use x="332.116" xlink:href="#J" y="366.711"/><use x="337.389052" xlink:href="#ae" y="366.711"/><use x="347.933568" xlink:href="#H" y="366.711"/><use x="337.10936" xlink:href="#ap" y="335.8266"/><path d="m3082.304688 2521h3.710937v251.09375h-3.710937zm0 0" style="fill:none;stroke-width:3.98406;stroke-linecap:round;stroke-linejoin:round;stroke:#000;stroke-miterlimit:10" transform="matrix(.1 0 0 -.1 0 582.35)"/><path d="m308.230469 330.25h.371093v-25.105469h-.371093zm0 0"/><use x="288.451" xlink:href="#H" y="366.711"/><use x="292.703347" xlink:href="#K" y="366.711"/><use x="303.247864" xlink:href="#P" y="366.711"/><path d="m1185.664062 2208.96875h46.25v2.929687h-46.25zm0 0" style="fill:none;stroke-width:4.733;stroke-linecap:round;stroke-linejoin:round;stroke:#000;stroke-miterlimit:10" transform="matrix(.1 0 0 -.1 0 582.35)"/><path d="m118.566406 361.457031h4.625v-.296875h-4.625zm0 0"/><path d="m1959.414062 2208.96875h46.210938v2.929687h-46.210938zm0 0" style="fill:none;stroke-width:4.733;stroke-linecap:round;stroke-linejoin:round;stroke:#000;stroke-miterlimit:10" transform="matrix(.1 0 0 -.1 0 582.35)"/><path d="m195.941406 361.457031h4.621094v-.296875h-4.621094zm0 0"/><path d="m2406.289062 2208.96875h46.210938v2.929687h-46.210938zm0 0" style="fill:none;stroke-width:4.733;stroke-linecap:round;stroke-linejoin:round;stroke:#000;stroke-miterlimit:10" transform="matrix(.1 0 0 -.1 0 582.35)"/><path d="m240.628906 361.457031h4.621094v-.296875h-4.621094zm0 0"/><path d="m2781.679688 2208.96875h46.25v2.929687h-46.25zm0 0" style="fill:none;stroke-width:4.733;stroke-linecap:round;stroke-linejoin:round;stroke:#000;stroke-miterlimit:10" transform="matrix(.1 0 0 -.1 0 582.35)"/><path d="m278.167969 361.457031h4.625v-.296875h-4.625zm0 0"/><path d="m3232.773438 2208.96875h46.25v2.929687h-46.25zm0 0" style="fill:none;stroke-width:4.733;stroke-linecap:round;stroke-linejoin:round;stroke:#000;stroke-miterlimit:10" transform="matrix(.1 0 0 -.1 0 582.35)"/><path d="m323.277344 361.457031h4.625v-.296875h-4.625zm0 0"/><path d="m4053.125 2208.96875h46.25v2.929687h-46.25zm0 0" style="fill:none;stroke-width:4.733;stroke-linecap:round;stroke-linejoin:round;stroke:#000;stroke-miterlimit:10" transform="matrix(.1 0 0 -.1 0 582.35)"/><path d="m405.3125 361.457031h4.621094v-.296875h-4.621094zm0 0"/><path d="m4545.742188 2208.96875h46.210937v2.929687h-46.210937zm0 0" style="fill:none;stroke-width:4.733;stroke-linecap:round;stroke-linejoin:round;stroke:#000;stroke-miterlimit:10" transform="matrix(.1 0 0 -.1 0 582.35)"/><path d="m454.574219 361.457031h4.621093v-.296875h-4.621093zm0 0"/><path d="m4910.429688 2208.96875h46.25v2.929687h-46.25zm0 0" style="fill:none;stroke-width:4.733;stroke-linecap:round;stroke-linejoin:round;stroke:#000;stroke-miterlimit:10" transform="matrix(.1 0 0 -.1 0 582.35)"/><path d="m491.042969 361.457031h4.625v-.296875h-4.625zm0 0"/><use x="552.238" xlink:href="#as" y="324.246"/><path d="m5202.109375 2565.140625h3.710937v245.546875h-3.710937zm0 0" style="fill:none;stroke-width:3.98406;stroke-linecap:round;stroke-linejoin:round;stroke:#000;stroke-miterlimit:10" transform="matrix(.1 0 0 -.1 0 582.35)"/><path d="m520.210938 325.835938h.371093v-24.554688h-.371093zm0 0"/><use x="502.9" xlink:href="#J" y="366.711"/><use x="508.001958" xlink:href="#O" y="366.711"/><use x="518.546889" xlink:href="#H" y="366.711"/><use x="522.798846" xlink:href="#ah" y="366.711"/><use x="510.18867" xlink:href="#aq" y="328.1055"/><use x="137.83267" xlink:href="#ap" y="331.96605"/><path d="m1038.671875 2521h3.710937v251.09375h-3.710937zm0 0" style="fill:none;stroke-width:3.98406;stroke-linecap:round;stroke-linejoin:round;stroke:#000;stroke-miterlimit:10" transform="matrix(.1 0 0 -.1 0 582.35)"/><path d="m103.867188 330.25h.371093v-25.105469h-.371093zm0 0"/><use x="84.0883" xlink:href="#ai" y="366.711"/><use x="99.905862" xlink:href="#I" y="366.711"/><use x="104.157807" xlink:href="#L" y="366.711"/><use x="94.3543" xlink:href="#ap" y="331.9661"/><use x="58.7086" xlink:href="#av" y="324.2454"/><use x="34.00116" xlink:href="#at" y="324.2454"/><use x="6.177" xlink:href="#au" y="331.9661"/><path d="m1857.382812 2482.40625h3.710938v251.054687h-3.710938zm0 0" style="fill:none;stroke-width:3.98406;stroke-linecap:round;stroke-linejoin:round;stroke:#000;stroke-miterlimit:10" transform="matrix(.1 0 0 -.1 0 582.35)"/><path d="m185.738281 334.109375h.371094v-25.105469h-.371094zm0 0"/><path d="m2246.40625 2526.546875h3.710938v245.546875h-3.710938zm0 0" style="fill:none;stroke-width:3.98406;stroke-linecap:round;stroke-linejoin:round;stroke:#000;stroke-miterlimit:10" transform="matrix(.1 0 0 -.1 0 582.35)"/><path d="m224.640625 329.695312h.371094v-24.554687h-.371094zm0 0"/><use x="205.373" xlink:href="#G" y="366.711"/><use x="214.897594" xlink:href="#ab" y="366.711"/><use x="223.91164" xlink:href="#K" y="366.711"/><use x="214.61792" xlink:href="#aq" y="331.9661"/><use x="256.66752" xlink:href="#aq" y="335.82665"/><use x="171.40192" xlink:href="#X" y="366.71105"/><use x="180.585901" xlink:href="#K" y="366.71105"/><use x="176.22497" xlink:href="#ap" y="335.82665"/><use x="251.41947" xlink:href="#U" y="366.71105"/><use x="261.964377" xlink:href="#K" y="366.71105"/><path d="m2666.914062 2487.953125h3.710938v245.507812h-3.710938zm0 0" style="fill:none;stroke-width:3.98406;stroke-linecap:round;stroke-linejoin:round;stroke:#000;stroke-miterlimit:10" transform="matrix(.1 0 0 -.1 0 582.35)"/><path d="m266.691406 333.554688h.371094v-24.550782h-.371094zm0 0"/><path d="m1473.4375 2521h3.710938v251.09375h-3.710938zm0 0" style="fill:none;stroke-width:3.98406;stroke-linecap:round;stroke-linejoin:round;stroke:#000;stroke-miterlimit:10" transform="matrix(.1 0 0 -.1 0 582.35)"/><path d="m147.34375 330.25h.371094v-25.105469h-.371094zm0 0"/><use x="127.056" xlink:href="#U" y="366.711"/><use x="137.600907" xlink:href="#K" y="366.711"/><use x="148.145424" xlink:href="#L" y="366.711"/><g clip-path="url(#u)"><path d="m2.96875 1500.101562h5946.835938" style="fill:none;stroke-width:5.92204;stroke-linecap:round;stroke-linejoin:round;stroke:#000;stroke-miterlimit:10" transform="matrix(.1 0 0 -.1 0 582.35)"/></g><g clip-path="url(#v)"><path d="m2.96875 1577.328125h5946.835938" style="fill:none;stroke-width:5.92204;stroke-linecap:round;stroke-linejoin:round;stroke:#000;stroke-miterlimit:10" transform="matrix(.1 0 0 -.1 0 582.35)"/></g><g clip-path="url(#w)"><path d="m2.96875 1654.515625h5946.835938" style="fill:none;stroke-width:5.92204;stroke-linecap:round;stroke-linejoin:round;stroke:#000;stroke-miterlimit:10" transform="matrix(.1 0 0 -.1 0 582.35)"/></g><g clip-path="url(#x)"><path d="m2.96875 1731.742187h5946.835938" style="fill:none;stroke-width:5.92204;stroke-linecap:round;stroke-linejoin:round;stroke:#000;stroke-miterlimit:10" transform="matrix(.1 0 0 -.1 0 582.35)"/></g><g clip-path="url(#y)"><path d="m2.96875 1808.929687h5946.835938" style="fill:none;stroke-width:5.92204;stroke-linecap:round;stroke-linejoin:round;stroke:#000;stroke-miterlimit:10" transform="matrix(.1 0 0 -.1 0 582.35)"/></g><use x="418.513" xlink:href="#ap" y="428.48"/><use x="504.4278" xlink:href="#aq" y="436.20109"/><use x="418.2821" xlink:href="#O" y="459.36399"/><path d="m4280.234375 1555.882812h3.710937v251.054688h-3.710937zm0 0" style="fill:none;stroke-width:3.98406;stroke-linecap:round;stroke-linejoin:round;stroke:#000;stroke-miterlimit:10" transform="matrix(.1 0 0 -.1 0 582.35)"/><path d="m428.023438 426.761719h.371093v-25.105469h-.371093zm0 0"/><use x="459.498" xlink:href="#aq" y="432.34"/><use x="457.39644" xlink:href="#H" y="459.3634"/><use x="461.648397" xlink:href="#K" y="459.3634"/><path d="m4695.195312 1522.796875h3.710938v245.546875h-3.710938zm0 0" style="fill:none;stroke-width:3.98406;stroke-linecap:round;stroke-linejoin:round;stroke:#000;stroke-miterlimit:10" transform="matrix(.1 0 0 -.1 0 582.35)"/><path d="m469.519531 430.070312h.371094v-24.554687h-.371094zm0 0"/><path d="m3870.390625 1594.476562h3.75v251.09375h-3.75zm0 0" style="fill:none;stroke-width:3.98406;stroke-linecap:round;stroke-linejoin:round;stroke:#000;stroke-miterlimit:10" transform="matrix(.1 0 0 -.1 0 582.35)"/><path d="m387.039062 422.902344h.371094v-25.105469h-.371094zm0 0"/><use x="375.681" xlink:href="#I" y="459.364"/><use x="379.932957" xlink:href="#G" y="459.364"/><use x="377.52788" xlink:href="#ap" y="424.6195"/><path d="m3460.546875 1555.882812h3.710937v251.054688h-3.710937zm0 0" style="fill:none;stroke-width:3.98406;stroke-linecap:round;stroke-linejoin:round;stroke:#000;stroke-miterlimit:10" transform="matrix(.1 0 0 -.1 0 582.35)"/><path d="m346.054688 426.761719h.371093v-25.105469h-.371093zm0 0"/><use x="325.767" xlink:href="#aj" y="459.364"/><use x="336.311516" xlink:href="#V" y="459.364"/><use x="346.856033" xlink:href="#L" y="459.364"/><use x="336.5432" xlink:href="#ap" y="428.48"/><path d="m1872.148438 1282.40625h46.210937v2.96875h-46.210937zm0 0" style="fill:none;stroke-width:4.733;stroke-linecap:round;stroke-linejoin:round;stroke:#000;stroke-miterlimit:10" transform="matrix(.1 0 0 -.1 0 582.35)"/><path d="m187.214844 454.109375h4.621094v-.296875h-4.621094zm0 0"/><path d="m3161.445312 1282.40625h46.25v2.96875h-46.25zm0 0" style="fill:none;stroke-width:4.733;stroke-linecap:round;stroke-linejoin:round;stroke:#000;stroke-miterlimit:10" transform="matrix(.1 0 0 -.1 0 582.35)"/><path d="m316.144531 454.109375h4.621094v-.296875h-4.621094zm0 0"/><path d="m4408.007812 1282.40625h46.210938v2.96875h-46.210938zm0 0" style="fill:none;stroke-width:4.733;stroke-linecap:round;stroke-linejoin:round;stroke:#000;stroke-miterlimit:10" transform="matrix(.1 0 0 -.1 0 582.35)"/><path d="m440.800781 454.109375h4.621094v-.296875h-4.621094zm0 0"/><path d="m4794.648438 1282.40625h46.210937v2.96875h-46.210937zm0 0" style="fill:none;stroke-width:4.733;stroke-linecap:round;stroke-linejoin:round;stroke:#000;stroke-miterlimit:10" transform="matrix(.1 0 0 -.1 0 582.35)"/><path d="m479.464844 454.109375h4.621094v-.296875h-4.621094zm0 0"/><use x="491.357" xlink:href="#J" y="459.364"/><use x="496.458958" xlink:href="#K" y="459.364"/><use x="507.003499" xlink:href="#P" y="459.364"/><use x="522.821067" xlink:href="#M" y="459.364"/><use x="549.3582" xlink:href="#as" y="416.8984"/><path d="m5144.492188 1484.203125h3.710937v245.546875h-3.710937zm0 0" style="fill:none;stroke-width:3.98406;stroke-linecap:round;stroke-linejoin:round;stroke:#000;stroke-miterlimit:10" transform="matrix(.1 0 0 -.1 0 582.35)"/><path d="m514.449219 433.929688h.371093v-24.554688h-.371093zm0 0"/><path d="m3050.703125 1555.882812h3.710937v251.054688h-3.710937zm0 0" style="fill:none;stroke-width:3.98406;stroke-linecap:round;stroke-linejoin:round;stroke:#000;stroke-miterlimit:10" transform="matrix(.1 0 0 -.1 0 582.35)"/><path d="m305.070312 426.761719h.371094v-25.105469h-.371094zm0 0"/><path d="m1279.414062 1633.109375h3.710938v251.054687h-3.710938zm0 0" style="fill:none;stroke-width:3.98406;stroke-linecap:round;stroke-linejoin:round;stroke:#000;stroke-miterlimit:10" transform="matrix(.1 0 0 -.1 0 582.35)"/><path d="m127.941406 419.039062h.371094v-25.105468h-.371094zm0 0"/><use x="102.552" xlink:href="#P" y="459.364"/><use x="118.369568" xlink:href="#K" y="459.364"/><use x="128.914085" xlink:href="#ag" y="459.364"/><use x="139.119148" xlink:href="#M" y="459.364"/><use x="118.4305" xlink:href="#ap" y="420.7589"/><path d="m589.101562 1399.125h3.710938v232.65625h-3.710938zm0 0" style="fill:none;stroke-width:3.98406;stroke-linecap:round;stroke-linejoin:round;stroke:#000;stroke-miterlimit:10" transform="matrix(.1 0 0 -.1 0 582.35)"/><path d="m58.90625 442.4375h.371094v-23.265625h-.371094zm0 0"/><use x="37.8137" xlink:href="#ak" y="459.364"/><use x="47.508214" xlink:href="#W" y="459.364"/><use x="58.053128" xlink:href="#ad" y="459.364"/><use x="64.855855" xlink:href="#J" y="459.364"/><use x="70.128895" xlink:href="#G" y="459.364"/><use x="79.653495" xlink:href="#U" y="459.364"/><use x="58.7086" xlink:href="#aq" y="416.8984"/><use x="34.00116" xlink:href="#at" y="416.8984"/><use x="6.177" xlink:href="#au" y="424.61949"/><use x="290.055" xlink:href="#L" y="459.36399"/><use x="300.599516" xlink:href="#W" y="459.36399"/><use x="248.6987" xlink:href="#aq" y="436.20109"/><use x="248.723309" xlink:href="#K" y="459.36399"/><path d="m2157.226562 1561.429687h3.710938v245.507813h-3.710938zm0 0" style="fill:none;stroke-width:3.98406;stroke-linecap:round;stroke-linejoin:round;stroke:#000;stroke-miterlimit:10" transform="matrix(.1 0 0 -.1 0 582.35)"/><path d="m215.722656 426.207031h.371094v-24.550781h-.371094zm0 0"/><use x="196.284" xlink:href="#H" y="459.364"/><use x="200.535945" xlink:href="#K" y="459.364"/><use x="211.080852" xlink:href="#T" y="459.364"/><use x="220.434742" xlink:href="#M" y="459.364"/><path d="m2587.226562 1484.203125h3.710938v245.546875h-3.710938zm0 0" style="fill:none;stroke-width:3.98406;stroke-linecap:round;stroke-linejoin:round;stroke:#000;stroke-miterlimit:10" transform="matrix(.1 0 0 -.1 0 582.35)"/><path d="m258.722656 433.929688h.371094v-24.554688h-.371094zm0 0"/><use x="205.7" xlink:href="#aq" y="428.48"/><path d="m1742.265625 1594.476562h3.710937v251.09375h-3.710937zm0 0" style="fill:none;stroke-width:3.98406;stroke-linecap:round;stroke-linejoin:round;stroke:#000;stroke-miterlimit:10" transform="matrix(.1 0 0 -.1 0 582.35)"/><path d="m174.226562 422.902344h.371094v-25.105469h-.371094zm0 0"/><use x="156.744" xlink:href="#T" y="459.364"/><use x="165.928372" xlink:href="#O" y="459.364"/><use x="176.472888" xlink:href="#ad" y="459.364"/><use x="164.71431" xlink:href="#ap" y="424.6195"/><use x="295.55831" xlink:href="#ap" y="428.48005"/><g clip-path="url(#z)"><path d="m2.96875 573.578125h5946.835938" style="fill:none;stroke-width:5.92204;stroke-linecap:round;stroke-linejoin:round;stroke:#000;stroke-miterlimit:10" transform="matrix(.1 0 0 -.1 0 582.35)"/></g><g clip-path="url(#A)"><path d="m2.96875 650.765625h5946.835938" style="fill:none;stroke-width:5.92204;stroke-linecap:round;stroke-linejoin:round;stroke:#000;stroke-miterlimit:10" transform="matrix(.1 0 0 -.1 0 582.35)"/></g><g clip-path="url(#B)"><path d="m2.96875 727.992187h5946.835938" style="fill:none;stroke-width:5.92204;stroke-linecap:round;stroke-linejoin:round;stroke:#000;stroke-miterlimit:10" transform="matrix(.1 0 0 -.1 0 582.35)"/></g><g clip-path="url(#C)"><path d="m2.96875 805.21875h5946.835938" style="fill:none;stroke-width:5.92204;stroke-linecap:round;stroke-linejoin:round;stroke:#000;stroke-miterlimit:10" transform="matrix(.1 0 0 -.1 0 582.35)"/></g><g clip-path="url(#D)"><path d="m2.96875 882.40625h5946.835938" style="fill:none;stroke-width:5.92204;stroke-linecap:round;stroke-linejoin:round;stroke:#000;stroke-miterlimit:10" transform="matrix(.1 0 0 -.1 0 582.35)"/></g><g clip-path="url(#E)"><path d="m5935 573.578125v308.828125" fill="none" stroke="#000" stroke-linejoin="round" stroke-miterlimit="10" stroke-width="35.5245" transform="matrix(.1 0 0 -.1 0 582.35)"/></g><path d="m5893.867188 573.578125v308.828125" fill="none" stroke="#000" stroke-linejoin="round" stroke-miterlimit="10" stroke-width="11.2496" transform="matrix(.1 0 0 -.1 0 582.35)"/><path d="m4935.859375 712.09375h3.710937v245.546875h-3.710937zm0 0" fill="none" stroke="#000" stroke-linejoin="round" stroke-miterlimit="10" stroke-width="3.98406" transform="matrix(.1 0 0 -.1 0 582.35)"/><path d="m493.585938 511.140625h.371093v-24.554687h-.371093zm0 0"/><use x="439.527" xlink:href="#ap" y="509.5508"/><use x="426.1145" xlink:href="#P" y="553.2578"/><use x="441.932068" xlink:href="#K" y="553.2578"/><use x="452.476609" xlink:href="#ag" y="553.2578"/><path d="m4397.265625 472.601562h3.710937v238.203125h-3.710937zm0 0" fill="none" stroke="#000" stroke-linejoin="round" stroke-miterlimit="10" stroke-width="3.98406" transform="matrix(.1 0 0 -.1 0 582.35)"/><path d="m439.726562 535.089844h.371094v-23.820313h-.371094zm0 0"/><use x="483.561" xlink:href="#aq" y="513.4113"/><use x="478.31295" xlink:href="#K" y="553.2578"/><use x="488.857882" xlink:href="#L" y="553.2578"/><use x="281.829773" xlink:href="#T" y="553.2578"/><use x="291.354366" xlink:href="#R" y="553.2578"/><use x="301.899273" xlink:href="#ad" y="553.2578"/><path d="m3830.664062 498.34375h3.710938v251.09375h-3.710938zm0 0" fill="none" stroke="#000" stroke-linejoin="round" stroke-miterlimit="10" stroke-width="3.98406" transform="matrix(.1 0 0 -.1 0 582.35)"/><path d="m383.066406 532.515625h.371094v-25.105469h-.371094zm0 0"/><use x="362.057" xlink:href="#P" y="553.2578"/><use x="377.874177" xlink:href="#K" y="553.2578"/><use x="388.418694" xlink:href="#L" y="553.2578"/><use x="398.96321" xlink:href="#J" y="553.2578"/><use x="404.236262" xlink:href="#G" y="553.2578"/><use x="382.8675" xlink:href="#ap" y="505.6902"/><path d="m3349.101562 472.601562h3.710938v238.203125h-3.710938zm0 0" fill="none" stroke="#000" stroke-linejoin="round" stroke-miterlimit="10" stroke-width="3.98406" transform="matrix(.1 0 0 -.1 0 582.35)"/><path d="m334.910156 535.089844h.371094v-23.820313h-.371094zm0 0"/><use x="329.804" xlink:href="#J" y="553.2578"/><use x="334.905958" xlink:href="#al" y="553.2578"/><use x="345.450474" xlink:href="#H" y="553.2578"/><use x="334.7122" xlink:href="#ap" y="509.5508"/><path d="m2994.804688 667.953125h3.710937v251.054687h-3.710937zm0 0" fill="none" stroke="#000" stroke-linejoin="round" stroke-miterlimit="10" stroke-width="3.98406" transform="matrix(.1 0 0 -.1 0 582.35)"/><path d="m299.480469 515.554688h.371093v-25.105469h-.371093zm0 0"/><path d="m891.914062 343.460937h46.25v2.96875h-46.25zm0 0" fill="none" stroke="#000" stroke-linejoin="round" stroke-miterlimit="10" stroke-width="4.733" transform="matrix(.1 0 0 -.1 0 582.35)"/><path d="m89.191406 548.003906h4.621094v-.296875h-4.621094zm0 0"/><path d="m2211.25 343.460937h46.210938v2.96875h-46.210938zm0 0" fill="none" stroke="#000" stroke-linejoin="round" stroke-miterlimit="10" stroke-width="4.733" transform="matrix(.1 0 0 -.1 0 582.35)"/><path d="m221.125 548.003906h4.621094v-.296875h-4.621094zm0 0"/><path d="m3166.875 343.460937h46.210938v2.96875h-46.210938zm0 0" fill="none" stroke="#000" stroke-linejoin="round" stroke-miterlimit="10" stroke-width="4.733" transform="matrix(.1 0 0 -.1 0 582.35)"/><path d="m316.6875 548.003906h4.621094v-.296875h-4.621094zm0 0"/><path d="m5066.445312 343.460937h46.25v2.96875h-46.25zm0 0" fill="none" stroke="#000" stroke-linejoin="round" stroke-miterlimit="10" stroke-width="4.733" transform="matrix(.1 0 0 -.1 0 582.35)"/><path d="m506.644531 548.003906h4.625v-.296875h-4.625zm0 0"/><use x="518.51" xlink:href="#ag" y="553.2578"/><use x="529.054541" xlink:href="#K" y="553.2578"/><use x="539.599082" xlink:href="#P" y="553.2578"/><use x="555.41665" xlink:href="#am" y="553.2578"/><use x="531.9221" xlink:href="#aw" y="517.2719"/><use x="289.969861" xlink:href="#ap" y="517.2719"/><use x="102.0771" xlink:href="#J" y="553.2578"/><use x="107.349749" xlink:href="#ae" y="553.2578"/><use x="117.894265" xlink:href="#H" y="553.2578"/><use x="107.07007" xlink:href="#ap" y="505.6902"/><path d="m589.101562 536.976562h3.710938v245.507813h-3.710938zm0 0" fill="none" stroke="#000" stroke-linejoin="round" stroke-miterlimit="10" stroke-width="3.98406" transform="matrix(.1 0 0 -.1 0 582.35)"/><path d="m58.90625 528.65625h.371094v-24.554688h-.371094zm0 0"/><use x="47.0828" xlink:href="#an" y="553.2578"/><use x="59.839037" xlink:href="#ao" y="553.2578"/><use x="70.38356" xlink:href="#L" y="553.2578"/><use x="58.7086" xlink:href="#aq" y="501.8297"/><path d="m1072.695312 498.34375h3.710938v251.09375h-3.710938zm0 0" fill="none" stroke="#000" stroke-linejoin="round" stroke-miterlimit="10" stroke-width="3.98406" transform="matrix(.1 0 0 -.1 0 582.35)"/><path d="m107.269531 532.515625h.371094v-25.105469h-.371094zm0 0"/><use x="34.0012" xlink:href="#at" y="509.5508"/><use x="6.177" xlink:href="#au" y="517.27189"/><path d="m2516.328125 634.90625h3.710937v245.507812h-3.710937zm0 0" fill="none" stroke="#000" stroke-linejoin="round" stroke-miterlimit="10" stroke-width="3.98406" transform="matrix(.1 0 0 -.1 0 582.35)"/><path d="m251.632812 518.859375h.371094v-24.550781h-.371094zm0 0"/><use x="231.089" xlink:href="#U" y="553.2578"/><use x="241.633516" xlink:href="#K" y="553.2578"/><use x="252.178033" xlink:href="#L" y="553.2578"/><use x="241.6089" xlink:href="#aq" y="521.132"/><path d="m2052.03125 712.09375h3.710938v245.546875h-3.710938zm0 0" fill="none" stroke="#000" stroke-linejoin="round" stroke-miterlimit="10" stroke-width="3.98406" transform="matrix(.1 0 0 -.1 0 582.35)"/><path d="m205.199219 511.140625h.371093v-24.554687h-.371093zm0 0"/><use x="185.168" xlink:href="#P" y="553.2578"/><use x="200.985568" xlink:href="#I" y="553.2578"/><use x="205.237525" xlink:href="#L" y="553.2578"/><use x="195.1785" xlink:href="#aq" y="513.4113"/><path d="m1513.4375 472.601562h3.710938v238.203125h-3.710938zm0 0" fill="none" stroke="#000" stroke-linejoin="round" stroke-miterlimit="10" stroke-width="3.98406" transform="matrix(.1 0 0 -.1 0 582.35)"/><path d="m151.34375 535.089844h.371094v-23.820313h-.371094zm0 0"/><use x="146.149" xlink:href="#O" y="553.2578"/><use x="156.693907" xlink:href="#G" y="553.2578"/><use x="151.14314" xlink:href="#ap" y="509.5508"/></svg>