<svg height="598.16em" viewBox="0 0 595.28 598.16" width="595.28em" xmlns="http://www.w3.org/2000/svg" xmlns:xlink="http://www.w3.org/1999/xlink"><clipPath id="a"><path d="m0 63h595.28125v2h-595.28125zm0 0"/></clipPath><clipPath id="b"><path d="m0 55h595.28125v2h-595.28125zm0 0"/></clipPath><clipPath id="c"><path d="m0 47h595.28125v2h-595.28125zm0 0"/></clipPath><clipPath id="d"><path d="m0 39h595.28125v2h-595.28125zm0 0"/></clipPath><clipPath id="e"><path d="m0 31h595.28125v2h-595.28125zm0 0"/></clipPath><clipPath id="f"><path d="m0 159h595.28125v1h-595.28125zm0 0"/></clipPath><clipPath id="g"><path d="m0 151h595.28125v1h-595.28125zm0 0"/></clipPath><clipPath id="h"><path d="m0 143h595.28125v1h-595.28125zm0 0"/></clipPath><clipPath id="i"><path d="m0 135h595.28125v1h-595.28125zm0 0"/></clipPath><clipPath id="j"><path d="m0 127h595.28125v1h-595.28125zm0 0"/></clipPath><clipPath id="k"><path d="m0 254h595.28125v2h-595.28125zm0 0"/></clipPath><clipPath id="l"><path d="m0 246h595.28125v2h-595.28125zm0 0"/></clipPath><clipPath id="m"><path d="m0 238h595.28125v2h-595.28125zm0 0"/></clipPath><clipPath id="n"><path d="m0 230h595.28125v2h-595.28125zm0 0"/></clipPath><clipPath id="o"><path d="m0 222h595.28125v2h-595.28125zm0 0"/></clipPath><clipPath id="p"><path d="m0 350h595.28125v1h-595.28125zm0 0"/></clipPath><clipPath id="q"><path d="m0 342h595.28125v1h-595.28125zm0 0"/></clipPath><clipPath id="r"><path d="m0 334h595.28125v2h-595.28125zm0 0"/></clipPath><clipPath id="s"><path d="m0 326h595.28125v2h-595.28125zm0 0"/></clipPath><clipPath id="t"><path d="m0 318h595.28125v2h-595.28125zm0 0"/></clipPath><clipPath id="u"><path d="m0 445h595.28125v2h-595.28125zm0 0"/></clipPath><clipPath id="v"><path d="m0 438h595.28125v1h-595.28125zm0 0"/></clipPath><clipPath id="w"><path d="m0 430h595.28125v1h-595.28125zm0 0"/></clipPath><clipPath id="x"><path d="m0 422h595.28125v1h-595.28125zm0 0"/></clipPath><clipPath id="y"><path d="m0 414h595.28125v1h-595.28125zm0 0"/></clipPath><clipPath id="z"><path d="m0 541h595.28125v2h-595.28125zm0 0"/></clipPath><clipPath id="A"><path d="m0 533h595.28125v2h-595.28125zm0 0"/></clipPath><clipPath id="B"><path d="m0 525h595.28125v2h-595.28125zm0 0"/></clipPath><clipPath id="C"><path d="m0 517h595.28125v2h-595.28125zm0 0"/></clipPath><clipPath id="D"><path d="m0 509h595.28125v2h-595.28125zm0 0"/></clipPath><clipPath id="E"><path d="m591 508h4.28125v36h-4.28125zm0 0"/></clipPath><symbol id="F" overflow="visible"><path d="m1.375-10.3125v10.3125h1.65625v-5.6875c0-2.109375 1.109375-3.484375 2.796875-3.484375 1.296875 0 2.125.78125 2.125 2.03125v7.140625h1.640625v-7.796875c0-1.71875-1.28125-2.8125-3.28125-2.8125-1.53125 0-2.515625.59375-3.421875 2.03125v-1.734375zm0 0"/></symbol><symbol id="G" overflow="visible"><path d="m7.640625-10.3125-2.859375 8.03125-2.640625-8.03125h-1.75l3.484375 10.359375-.625 1.625c-.28125.734375-.625 1-1.328125 1-.265625 0-.5-.03125-.859375-.109375v1.46875c.328125.1875.671875.265625 1.109375.265625.53125 0 1.09375-.1875 1.53125-.5.515625-.375.8125-.796875 1.125-1.625l4.578125-12.484375zm0 0"/></symbol><symbol id="H" overflow="visible"><path d="m10.09375-4.609375c0-1.578125-.109375-2.515625-.40625-3.28125-.671875-1.703125-2.25-2.71875-4.171875-2.71875-2.875 0-4.734375 2.1875-4.734375 5.59375s1.78125 5.46875 4.6875 5.46875c2.359375 0 4-1.34375 4.421875-3.578125h-1.65625c-.453125 1.359375-1.390625 2.0625-2.703125 2.0625-1.046875 0-1.921875-.46875-2.484375-1.34375-.390625-.59375-.53125-1.171875-.546875-2.203125zm-7.546875-1.34375c.125-1.90625 1.296875-3.140625 2.953125-3.140625 1.671875 0 2.828125 1.296875 2.828125 3.140625zm0 0"/></symbol><symbol id="I" overflow="visible"><path d="m1.375-10.3125v10.3125h1.65625v-6.484375c0-1.484375 1.078125-2.6875 2.421875-2.6875 1.21875 0 1.90625.75 1.90625 2.0625v7.109375h1.65625v-6.484375c0-1.484375 1.078125-2.6875 2.421875-2.6875 1.203125 0 1.90625.765625 1.90625 2.0625v7.109375h1.65625v-7.734375c0-1.859375-1.0625-2.875-2.984375-2.875-1.390625 0-2.21875.40625-3.171875 1.578125-.609375-1.109375-1.4375-1.578125-2.78125-1.578125-1.375 0-2.296875.515625-3.171875 1.75v-1.453125zm0 0"/></symbol><symbol id="J" overflow="visible"><path d="m5.609375 0 3.953125-10.3125h-1.84375l-2.921875 8.359375-2.75-8.359375h-1.84375l3.609375 10.3125zm0 0"/></symbol><symbol id="K" overflow="visible"><path d="m10.09375-4.609375c0-1.578125-.109375-2.515625-.40625-3.28125-.671875-1.703125-2.25-2.71875-4.171875-2.71875-2.875 0-4.734375 2.1875-4.734375 5.59375s1.78125 5.46875 4.6875 5.46875c2.359375 0 4-1.34375 4.421875-3.578125h-1.65625c-.453125 1.359375-1.390625 2.0625-2.703125 2.0625-1.046875 0-1.921875-.46875-2.484375-1.34375-.390625-.59375-.53125-1.171875-.546875-2.203125zm-7.546875-1.34375c.125-1.90625 1.296875-3.140625 2.953125-3.140625 1.671875 0 2.828125 1.296875 2.828125 3.140625zm3.515625-8.609375-1.890625 2.90625h1.1875l2.921875-2.90625zm0 0"/></symbol><symbol id="L" overflow="visible"><path d="m1.359375-10.3125v10.3125h1.65625v-5.359375c.015625-2.46875 1.046875-3.578125 3.296875-3.515625v-1.671875c-.265625-.046875-.421875-.0625-.625-.0625-1.0625 0-1.875.625-2.8125 2.15625v-1.859375zm0 0"/></symbol><symbol id="M" overflow="visible"><path d="m1.71875-2.046875v2.046875h1.171875v.359375c0 1.359375-.25 1.75-1.171875 1.78125v.75c1.296875.046875 2.0625-.90625 2.0625-2.578125v-2.359375zm0 0"/></symbol><symbol id="N" overflow="visible"><path d="m5-10.3125h-1.6875v-2.84375h-1.640625v2.84375h-1.390625v1.328125h1.390625v7.796875c0 1.0625.703125 1.640625 1.984375 1.640625.4375 0 .796875-.046875 1.34375-.140625v-1.375c-.234375.0625-.453125.078125-.78125.078125-.71875 0-.90625-.203125-.90625-.921875v-7.078125h1.6875zm0 0"/></symbol><symbol id="O" overflow="visible"><path d="m5.359375-10.609375c-2.921875 0-4.65625 2.0625-4.65625 5.53125 0 3.484375 1.734375 5.53125 4.671875 5.53125 2.90625 0 4.671875-2.0625 4.671875-5.453125 0-3.578125-1.703125-5.609375-4.6875-5.609375zm.015625 1.515625c1.84375 0 2.953125 1.515625 2.953125 4.078125 0 2.4375-1.140625 3.953125-2.953125 3.953125-1.828125 0-2.953125-1.515625-2.953125-4.015625s1.125-4.015625 2.953125-4.015625zm-.578125-4.984375h-2.046875v2.03125h2.046875zm3.203125 0h-2.046875v2.03125h2.046875zm0 0"/></symbol><symbol id="P" overflow="visible"><path d="m7.953125-10.3125v1.5c-.828125-1.25-1.734375-1.796875-3.03125-1.796875-2.5 0-4.234375 2.328125-4.234375 5.625 0 1.734375.421875 3 1.296875 4.046875.765625.890625 1.75 1.390625 2.8125 1.390625 1.25 0 2.140625-.546875 3-1.84375v.53125c0 2.75-.765625 3.765625-2.8125 3.765625-1.40625 0-2.125-.546875-2.28125-1.71875h-1.671875c.15625 1.90625 1.671875 3.109375 3.90625 3.109375 1.515625 0 2.78125-.5 3.453125-1.328125.78125-.953125 1.078125-2.234375 1.078125-4.65625v-8.625zm-2.875 1.21875c1.734375 0 2.71875 1.453125 2.71875 4.078125 0 2.5-1 3.953125-2.71875 3.953125-1.6875 0-2.671875-1.484375-2.671875-4.015625 0-2.515625.984375-4.015625 2.671875-4.015625zm0 0"/></symbol><symbol id="Q" overflow="visible"><path d="m10.53125-.96875c-.171875.046875-.25.046875-.359375.046875-.5625 0-.875-.296875-.875-.8125v-6.0625c0-1.828125-1.34375-2.8125-3.890625-2.8125-1.515625 0-2.703125.4375-3.421875 1.203125-.46875.53125-.671875 1.125-.703125 2.140625h1.65625c.140625-1.265625.875-1.828125 2.421875-1.828125 1.484375 0 2.296875.546875 2.296875 1.53125v.4375c-.015625.703125-.375.96875-1.703125 1.140625-2.328125.296875-2.6875.375-3.3125.625-1.203125.515625-1.8125 1.421875-1.8125 2.765625 0 1.859375 1.296875 3.046875 3.390625 3.046875 1.296875 0 2.34375-.453125 3.5-1.515625.109375 1.0625.625 1.515625 1.6875 1.515625.359375 0 .578125-.046875 1.125-.171875zm-2.875-2.28125c0 .546875-.15625.890625-.640625 1.34375-.671875.609375-1.484375.921875-2.453125.921875-1.28125 0-2.015625-.609375-2.015625-1.65625 0-1.078125.703125-1.625 2.46875-1.890625 1.75-.234375 2.09375-.3125 2.640625-.5625zm0 0"/></symbol><symbol id="R" overflow="visible"><path d="m8.625-7.4375c-.015625-2.03125-1.359375-3.171875-3.75-3.171875s-3.953125 1.234375-3.953125 3.140625c0 1.625.828125 2.390625 3.265625 2.984375l1.546875.375c1.140625.265625 1.59375.6875 1.59375 1.40625 0 .984375-.96875 1.640625-2.40625 1.640625-.890625 0-1.640625-.25-2.046875-.6875-.25-.296875-.375-.59375-.46875-1.328125h-1.734375c.078125 2.390625 1.421875 3.53125 4.109375 3.53125 2.59375 0 4.25-1.28125 4.25-3.265625 0-1.53125-.859375-2.390625-2.90625-2.875l-1.578125-.375c-1.34375-.3125-1.90625-.75-1.90625-1.484375 0-.953125.84375-1.546875 2.1875-1.546875 1.3125 0 2.015625.5625 2.0625 1.65625zm0 0"/></symbol><symbol id="S" overflow="visible"><path d="m10.84375-6.53125v6.53125h1.828125v-14.359375h-1.828125v6.203125h-7.375v-6.203125h-1.828125v14.359375h1.828125v-6.53125zm0 0"/></symbol><symbol id="T" overflow="visible"><path d="m3-14.359375h-1.65625v14.359375h1.65625zm0 0"/></symbol><symbol id="U" overflow="visible"><path d="m8.71875-10.3125h-7.6875v1.4375h5.734375l-6.15625 7.40625v1.46875h8.390625v-1.4375h-6.40625l6.125-7.421875zm0 0"/></symbol><symbol id="V" overflow="visible"><path d="m1.0625 4.296875h1.65625v-5.375c.859375 1.0625 1.828125 1.53125 3.171875 1.53125 2.671875 0 4.40625-2.140625 4.40625-5.4375 0-3.46875-1.6875-5.625-4.4375-5.625-1.390625 0-2.515625.625-3.28125 1.84375v-1.546875h-1.515625zm4.53125-13.375c1.8125 0 2.984375 1.59375 2.984375 4.0625 0 2.34375-1.203125 3.9375-2.984375 3.9375-1.75 0-2.875-1.578125-2.875-4s1.125-4 2.875-4zm0 0"/></symbol><symbol id="W" overflow="visible"><path d="m9.75-14.359375h-1.640625v5.34375c-.6875-1.046875-1.796875-1.59375-3.171875-1.59375-2.671875 0-4.421875 2.140625-4.421875 5.4375 0 3.484375 1.6875 5.625 4.484375 5.625 1.421875 0 2.40625-.53125 3.28125-1.8125v1.359375h1.46875zm-4.53125 5.28125c1.765625 0 2.890625 1.5625 2.890625 4.03125 0 2.390625-1.140625 3.96875-2.875 3.96875-1.8125 0-3.015625-1.59375-3.015625-4s1.203125-4 3-4zm0 0"/></symbol><symbol id="X" overflow="visible"><path d="m1.0625-14.359375v14.359375h1.484375v-1.3125c.78125 1.1875 1.828125 1.765625 3.265625 1.765625 2.71875 0 4.484375-2.21875 4.484375-5.65625 0-3.34375-1.671875-5.40625-4.40625-5.40625-1.421875 0-2.421875.53125-3.1875 1.6875v-5.4375zm4.515625 5.28125c1.828125 0 3 1.59375 3 4.0625 0 2.34375-1.21875 3.9375-3 3.9375-1.765625 0-2.875-1.578125-2.875-4s1.109375-4 2.875-4zm0 0"/></symbol><symbol id="Y" overflow="visible"><path d="m3.609375-6.53125h6.84375v-1.625h-6.84375v-4.578125h7.796875v-1.625h-9.640625v14.359375h1.84375zm0 0"/></symbol><symbol id="Z" overflow="visible"><path d="m9.484375 0v-10.3125h-1.625v5.84375c0 2.109375-1.109375 3.484375-2.8125 3.484375-1.3125 0-2.140625-.78125-2.140625-2.03125v-7.296875h-1.625v7.953125c0 1.703125 1.28125 2.8125 3.28125 2.8125 1.515625 0 2.484375-.53125 3.453125-1.890625v1.4375zm-4.65625-14.078125h-2.046875v2.03125h2.046875zm3.1875 0h-2.046875v2.03125h2.046875zm0 0"/></symbol><symbol id="aa" overflow="visible"><path d="m1.375-14.359375v14.359375h1.640625v-5.6875c0-2.109375 1.09375-3.484375 2.796875-3.484375.546875 0 1.0625.15625 1.453125.453125.46875.359375.671875.84375.671875 1.578125v7.140625h1.625v-7.796875c0-1.734375-1.234375-2.8125-3.25-2.8125-1.453125 0-2.328125.453125-3.296875 1.703125v-5.453125zm0 0"/></symbol><symbol id="ab" overflow="visible"><path d="m1.375-10.3125v11.8125c0 1.015625-.3125 1.359375-1.328125 1.359375-.125 0-.1875 0-.40625-.03125v1.40625c.203125.03125.296875.0625.5625.0625 1.84375 0 2.8125-.734375 2.8125-2.15625v-12.453125zm1.640625-4.046875h-1.640625v2.078125h1.640625zm0 0"/></symbol><symbol id="ac" overflow="visible"><path d="m10.53125-.96875c-.171875.046875-.25.046875-.359375.046875-.5625 0-.875-.296875-.875-.8125v-6.0625c0-1.828125-1.34375-2.8125-3.890625-2.8125-1.515625 0-2.703125.4375-3.421875 1.203125-.46875.53125-.671875 1.125-.703125 2.140625h1.65625c.140625-1.265625.875-1.828125 2.421875-1.828125 1.484375 0 2.296875.546875 2.296875 1.53125v.4375c-.015625.703125-.375.96875-1.703125 1.140625-2.328125.296875-2.6875.375-3.3125.625-1.203125.515625-1.8125 1.421875-1.8125 2.765625 0 1.859375 1.296875 3.046875 3.390625 3.046875 1.296875 0 2.34375-.453125 3.5-1.515625.109375 1.0625.625 1.515625 1.6875 1.515625.359375 0 .578125-.046875 1.125-.171875zm-2.875-2.28125c0 .546875-.15625.890625-.640625 1.34375-.671875.609375-1.484375.921875-2.453125.921875-1.28125 0-2.015625-.609375-2.015625-1.65625 0-1.078125.703125-1.625 2.46875-1.890625 1.75-.234375 2.09375-.3125 2.640625-.5625zm-1.671875-11.3125-1.90625 2.90625h1.171875l2.9375-2.90625zm0 0"/></symbol><symbol id="ad" overflow="visible"><path d="m5.359375-10.609375c-2.921875 0-4.65625 2.0625-4.65625 5.53125 0 3.484375 1.734375 5.53125 4.671875 5.53125 2.90625 0 4.671875-2.0625 4.671875-5.453125 0-3.578125-1.703125-5.609375-4.6875-5.609375zm.015625 1.515625c1.84375 0 2.953125 1.515625 2.953125 4.078125 0 2.4375-1.140625 3.953125-2.953125 3.953125-1.828125 0-2.953125-1.515625-2.953125-4.015625s1.125-4.015625 2.953125-4.015625zm.484375-5.46875-1.875 2.90625h1.171875l2.9375-2.90625zm0 0"/></symbol><symbol id="ae" overflow="visible"><path d="m2.78125-14.359375h-1.640625v14.359375h1.640625v-4.015625l1.59375-1.578125 3.484375 5.59375h2.03125l-4.21875-6.75 3.578125-3.5625h-2.109375l-4.359375 4.359375zm0 0"/></symbol><symbol id="af" overflow="visible"><path d="m3.765625-2.046875h-2.046875v2.046875h2.046875zm0 0"/></symbol><symbol id="ag" overflow="visible"><path d="m9.328125-4.3125 1.484375 4.3125h2.046875l-5.046875-14.359375h-2.359375l-5.125 14.359375h1.953125l1.515625-4.3125zm-.515625-1.53125h-4.5625l2.359375-6.546875zm0 0"/></symbol><symbol id="ah" overflow="visible"><path d="m5.359375-10.609375c-2.921875 0-4.65625 2.0625-4.65625 5.53125 0 3.484375 1.734375 5.53125 4.671875 5.53125 2.90625 0 4.671875-2.0625 4.671875-5.453125 0-3.578125-1.703125-5.609375-4.6875-5.609375zm.015625 1.515625c1.84375 0 2.953125 1.515625 2.953125 4.078125 0 2.4375-1.140625 3.953125-2.953125 3.953125-1.828125 0-2.953125-1.515625-2.953125-4.015625s1.125-4.015625 2.953125-4.015625zm0 0"/></symbol><symbol id="ai" overflow="visible"><path d="m2.953125-10.3125h-1.640625v10.3125h1.640625zm0-4.046875h-1.65625v2.078125h1.65625zm0 0"/></symbol><symbol id="aj" overflow="visible"><path d="m9.21875 0 4.03125-12.03125v12.03125h1.734375v-14.359375h-2.546875l-4.171875 12.515625-4.25-12.515625h-2.546875v14.359375h1.734375v-12.03125l4.078125 12.03125zm0 0"/></symbol><symbol id="ak" overflow="visible"><path d="m7.078125-4.296875c-1.34375 0-2.609375.4375-3.765625 1.140625-1.5.890625-3.3125 2.453125-3.3125 4.71875 0 1.875 1.65625 2.734375 3.34375 2.734375 1.34375 0 2.609375-.4375 3.765625-1.140625 1.5-.890625 3.28125-2.453125 3.28125-4.71875 0-1.875-1.625-2.734375-3.3125-2.734375zm0 0"/></symbol><symbol id="al" overflow="visible"><path d="m10.078125-2.140625c0 .328125-.09375.671875-.328125.921875-.671875.796875-2.203125 1.796875-3.40625 2.5625-1.21875.765625-2.734375 1.78125-3.734375 2.0625-.125.03125-.28125.0625-.40625.0625-.703125 0-1.34375-.53125-1.34375-1.328125 0-.328125.09375-.671875.3125-.921875.671875-.796875 2.203125-1.796875 3.421875-2.5625 1.203125-.765625 2.734375-1.78125 3.71875-2.0625.140625-.03125.296875-.0625.421875-.0625.703125 0 1.34375.53125 1.34375 1.328125zm-1.625-2.15625c-2.390625 0-4.34375.5-6.03125 1.65625-1.015625.703125-1.6875 1.78125-2.078125 2.953125-.1875.578125-.34375 1.21875-.34375 1.828125 0 1.5 1.078125 2.15625 2.484375 2.15625 2.390625 0 4.34375-.5 6.03125-1.65625 1.015625-.703125 1.6875-1.78125 2.0625-2.953125.203125-.578125.359375-1.21875.359375-1.828125 0-1.5-1.09375-2.15625-2.484375-2.15625zm0 0"/></symbol><symbol id="am" overflow="visible"><path d="m6.859375 10.078125v-5.203125l1.5625-.546875c.1875-.0625.34375-.25.34375-.46875v-2.078125c0-.34375-.34375-.609375-.671875-.46875l-1.234375.4375v-5.21875l1.5625-.578125c.1875-.0625.34375-.25.34375-.484375v-2.03125c0-.359375-.34375-.609375-.671875-.484375l-1.234375.421875v-4.78125c0-.296875-.265625-.546875-.546875-.546875s-.546875.25-.546875.546875v5.15625l-2.765625.984375v-4.8125c0-.28125-.265625-.53125-.546875-.53125s-.546875.25-.546875.53125v5.203125l-1.5625.546875c-.1875.0625-.34375.25-.34375.46875v2.078125c0 .34375.34375.609375.671875.46875l1.234375-.4375v5.21875l-1.5625.578125c-.1875.0625-.34375.25-.34375.484375v2.03125c0 .359375.34375.609375.671875.484375l1.234375-.421875v4.78125c0 .296875.265625.546875.546875.546875s.546875-.25.546875-.546875v-5.15625l2.765625-.984375v4.8125c0 .28125.265625.53125.546875.53125s.546875-.25.546875-.53125zm-3.859375-12.21875 2.765625-.953125v5.234375l-2.765625.953125zm0 0"/></symbol><symbol id="an" overflow="visible"><path d="m11.703125 0c.125 0 .25-.125.25-.25v-4.46875c0-.125-.125-.25-.25-.25h-11.453125c-.125 0-.25.125-.25.25v4.46875c0 .125.125.25.25.25zm0 0"/></symbol><symbol id="ao" overflow="visible"><path d="m.796875-1.40625c.03125-1.046875.734375-1.96875 1.71875-1.96875.953125 0 1.40625 1.109375 1.40625 2.203125 0 1.875-1.59375 3.21875-3.0625 4.421875-.0625-.703125-.125-1.40625-.125-2.109375 0-.125.03125-.21875.03125-.34375zm-1.59375-13.359375.34375 19.09375c0 .390625.296875.671875.671875.671875.578125 0 .828125-.671875 1.28125-1.015625 2-1.625 4.875-2.765625 4.875-5.390625 0-1.71875-1.28125-3.1875-2.96875-3.1875-1.015625 0-1.96875.359375-2.796875.953125l.1875-11.125c-.25-.125-.515625-.21875-.796875-.21875s-.546875.09375-.796875.21875zm0 0"/></symbol><symbol id="ap" overflow="visible"><path d="m11.921875-8.28125c-.515625-2.234375-1.109375-4.4375-1.75-6.640625 3.0625-3.46875 5.828125-7.046875 5.828125-11.625 0-3.609375-1.96875-8.765625-4.203125-11.453125-.15625-.125-.359375-.125-.515625 0-3.03125 2.203125-4.78125 5.703125-4.78125 9.40625 0 1.65625.03125 3.28125.21875 4.90625.234375 2.078125.765625 4.078125 1.34375 6.09375-3.765625 4.265625-8 8.34375-8 14.03125 0 6.40625 4.625 11.84375 10.609375 11.84375 1 0 1.921875-.09375 2.84375-.25.09375 1.015625.15625 2.046875.15625 3.0625 0 .578125-.03125 1.109375-.0625 1.6875-.1875 3.15625-2.140625 6.0625-5.09375 6.125-.03125 0-.0625.03125-.09375.03125-1.625 0-3.03125-.921875-3.859375-2.234375.34375.15625.734375.28125 1.109375.28125 1.65625 0 3.03125-1.359375 3.03125-3.015625 0-1.796875-1.3125-3.328125-3.03125-3.328125-1.875 0-3.5625 1.46875-3.5625 3.328125 0 3.4375 2.765625 6.203125 6.203125 6.203125 3.765625 0 6.34375-3.375 6.578125-7.203125.03125-.59375.03125-1.171875.03125-1.78125 0-1.140625-.0625-2.296875-.15625-3.4375.828125-.265625 1.625-.640625 2.3125-1.1875 2.359375-1.75 3.421875-4.203125 3.421875-6.625 0-4.203125-3.1875-8.25-8.09375-8.25-.171875 0-.328125.03125-.484375.03125zm2.703125 14.8125c-.4375-3.953125-1.171875-7.703125-1.96875-11.4375 3.5.28125 5.703125 3.21875 5.703125 6.15625 0 2.21875-1.53125 4.515625-3.734375 5.28125zm-12.359375-7.515625c0-5.109375 3.4375-8.953125 6.875-12.8125.515625 1.875 1.03125 3.75 1.46875 5.671875-3.21875.734375-5.03125 3.4375-5.03125 6.25 0 2.21875 1.140625 4.484375 3.703125 5.859375.09375.03125.1875.0625.28125.0625.34375 0 .640625-.3125.640625-.671875 0-.15625-.09375-.3125-.21875-.4375-1.796875-1.03125-2.625-2.5625-2.625-3.953125 0-1.890625 1.46875-3.578125 3.984375-3.859375.828125 3.828125 1.5625 7.609375 2.046875 11.703125-.859375.125-1.71875.1875-2.609375.1875-4.34375 0-8.515625-3.671875-8.515625-8zm10.828125-32.484375c.546875 1.6875.671875 2.515625.671875 4.359375 0 4.0625-2.125 7.28125-4.75 10.359375-.5625-2-1.046875-3.9375-1.046875-6.375 0-3.53125 1.96875-6.75 5.125-8.34375zm0 0"/></symbol><symbol id="aq" overflow="visible"><path d="m-.21875-11.953125.21875 18.328125c0 .28125.25.546875.546875.546875.03125 0 .03125-.03125.0625-.03125l3.46875-.578125-.0625 5.640625c.21875.125.515625.1875.765625.1875s.546875-.0625.765625-.1875l-.21875-18.328125c0-.28125-.265625-.546875-.546875-.546875-.03125 0-.0625.03125-.09375.03125l-3.46875.578125.0625-5.640625c-.234375-.125-.484375-.1875-.734375-.1875-.265625 0-.546875.0625-.765625.1875zm4.421875 8.3125-.0625 6.796875-3.0625.484375.09375-6.796875zm0 0"/></symbol><symbol id="ar" overflow="visible"><path d="m6.859375-3.640625c2.515625 0 4.390625 1.953125 4.390625 4.46875 0 1.46875-.640625 2.8125-2.234375 2.8125-2.515625 0-4.421875-1.953125-4.421875-4.46875 0-1.46875.671875-2.8125 2.265625-2.8125zm8.984375 3.640625c0-1.375-1.125-2.359375-2.328125-3.03125-1.71875-.921875-3.640625-1.265625-5.578125-1.265625s-3.890625.34375-5.609375 1.265625c-1.21875.671875-2.328125 1.65625-2.328125 3.03125s1.109375 2.359375 2.328125 3.03125c1.71875.921875 3.671875 1.265625 5.609375 1.265625s3.859375-.34375 5.578125-1.265625c1.203125-.671875 2.328125-1.65625 2.328125-3.03125zm0 0"/></symbol><symbol id="as" overflow="visible"><path d="m4.171875-8.578125v8.578125h2.453125v-12.421875h-1.625c-.390625 1.46875-1.671875 2.21875-3.8125 2.21875v1.625zm0 0"/></symbol><symbol id="at" overflow="visible"><path d="m3.75-2.5625h-2.625v2.5625h2.625zm0 0"/></symbol><symbol id="au" overflow="visible"><path d="m7.109375-1.484375c0 .21875-.078125.453125-.234375.625-.46875.5625-1.546875 1.265625-2.390625 1.8125-.828125.53125-1.90625 1.234375-2.609375 1.4375-.09375.015625-.1875.046875-.28125.046875-.484375 0-.9375-.40625-.9375-.953125 0-.21875.0625-.453125.21875-.625.484375-.5625 1.5625-1.265625 2.390625-1.8125.84375-.53125 1.890625-1.234375 2.59375-1.4375.09375-.015625.203125-.046875.296875-.046875.5 0 .953125.40625.953125.953125zm-1.171875-1.5625c-1.671875 0-3.046875.3125-4.25 1.125-.71875.5-1.171875 1.3125-1.4375 2.140625-.140625.40625-.25.84375-.25 1.265625 0 1.109375.796875 1.5625 1.796875 1.5625 1.671875 0 3.046875-.3125 4.25-1.125.71875-.5 1.1875-1.3125 1.46875-2.140625.125-.40625.234375-.84375.234375-1.265625 0-1.109375-.8125-1.5625-1.8125-1.5625zm0 0"/></symbol><g clip-path="url(#a)"><path d="m3.007812 5344.334375h5946.757813" fill="none" stroke="#000" stroke-linecap="round" stroke-miterlimit="10" stroke-width="6.00947" transform="matrix(.1 0 0 -.1 0 598.16)"/></g><g clip-path="url(#b)"><path d="m3.007812 5424.021875h5946.757813" fill="none" stroke="#000" stroke-linecap="round" stroke-miterlimit="10" stroke-width="6.00947" transform="matrix(.1 0 0 -.1 0 598.16)"/></g><g clip-path="url(#c)"><path d="m3.007812 5503.748437h5946.757813" fill="none" stroke="#000" stroke-linecap="round" stroke-miterlimit="10" stroke-width="6.00947" transform="matrix(.1 0 0 -.1 0 598.16)"/></g><g clip-path="url(#d)"><path d="m3.007812 5583.435937h5946.757813" fill="none" stroke="#000" stroke-linecap="round" stroke-miterlimit="10" stroke-width="6.00947" transform="matrix(.1 0 0 -.1 0 598.16)"/></g><g clip-path="url(#e)"><path d="m3.007812 5663.123437h5946.757813" fill="none" stroke="#000" stroke-linecap="round" stroke-miterlimit="10" stroke-width="6.00947" transform="matrix(.1 0 0 -.1 0 598.16)"/></g><use x="444.512" xlink:href="#F" y="92.904"/><use x="455.056948" xlink:href="#G" y="92.904"/><use x="464.411669" xlink:href="#H" y="92.904"/><use x="475.296463" xlink:href="#I" y="92.904"/><use x="416.3511" xlink:href="#ak" y="55.7571"/><use x="411.3511" xlink:href="#J" y="92.904"/><use x="420.875352" xlink:href="#K" y="92.904"/><path d="m4261.757812 5441.717187h3.828126v259.257813h-3.828126zm0 0" style="fill:none;stroke-width:3.98506;stroke-linecap:round;stroke-linejoin:round;stroke:#000;stroke-miterlimit:10" transform="matrix(.1 0 0 -.1 0 598.16)"/><path d="m426.175781 53.988281h.382813v-25.925781h-.382813zm0 0"/><use x="462.6" xlink:href="#al" y="59.742"/><path d="m4729.53125 5407.576562h3.828125v253.554688h-3.828125zm0 0" style="fill:none;stroke-width:3.98506;stroke-linecap:round;stroke-linejoin:round;stroke:#000;stroke-miterlimit:10" transform="matrix(.1 0 0 -.1 0 598.16)"/><path d="m472.953125 57.402344h.382813v-25.355469h-.382813zm0 0"/><use x="451.043" xlink:href="#am" y="59.742"/><use x="504.3758" xlink:href="#L" y="92.9041"/><use x="510.669163" xlink:href="#H" y="92.9041"/><use x="521.214111" xlink:href="#M" y="92.9041"/><path d="m3877.1875 5481.560937h3.828125v259.296875h-3.828125zm0 0" style="fill:none;stroke-width:3.98506;stroke-linecap:round;stroke-linejoin:round;stroke:#000;stroke-miterlimit:10" transform="matrix(.1 0 0 -.1 0 598.16)"/><path d="m387.71875 50.003906h.378906v-25.929687h-.378906zm0 0"/><use x="371.7" xlink:href="#N" y="92.904"/><use x="376.972278" xlink:href="#O" y="92.904"/><use x="387.857072" xlink:href="#L" y="92.904"/><use x="377.89141" xlink:href="#ak" y="51.772"/><path d="m3397.539062 5240.0375h3.828126v246.015625h-3.828126zm0 0" style="fill:none;stroke-width:3.98506;stroke-linecap:round;stroke-linejoin:round;stroke:#000;stroke-miterlimit:10" transform="matrix(.1 0 0 -.1 0 598.16)"/><path d="m339.753906 74.15625h.382813v-24.601562h-.382813zm0 0"/><use x="333.873" xlink:href="#K" y="92.904"/><use x="344.757794" xlink:href="#F" y="92.904"/><use x="339.55425" xlink:href="#ak" y="47.7868"/><path d="m3012.929688 5240.0375h3.828124v246.015625h-3.828124zm0 0" style="fill:none;stroke-width:3.98506;stroke-linecap:round;stroke-linejoin:round;stroke:#000;stroke-miterlimit:10" transform="matrix(.1 0 0 -.1 0 598.16)"/><path d="m301.292969 74.15625h.382812v-24.601562h-.382812zm0 0"/><path d="m949.804688 5106.75625h47.773437v3.007812h-47.773437zm0 0" style="fill:none;stroke-width:4.80598;stroke-linecap:round;stroke-linejoin:round;stroke:#000;stroke-miterlimit:10" transform="matrix(.1 0 0 -.1 0 598.16)"/><path d="m94.980469 87.484375h4.777343v-.300781h-4.777343zm0 0"/><path d="m2306.953125 5106.75625h47.8125v3.007812h-47.8125zm0 0" style="fill:none;stroke-width:4.80598;stroke-linecap:round;stroke-linejoin:round;stroke:#000;stroke-miterlimit:10" transform="matrix(.1 0 0 -.1 0 598.16)"/><path d="m230.695312 87.484375h4.777344v-.300781h-4.777344zm0 0"/><path d="m4005.3125 5106.75625h47.773438v3.007812h-47.773438zm0 0" style="fill:none;stroke-width:4.80598;stroke-linecap:round;stroke-linejoin:round;stroke:#000;stroke-miterlimit:10" transform="matrix(.1 0 0 -.1 0 598.16)"/><path d="m400.53125 87.484375h4.777344v-.300781h-4.777344zm0 0"/><path d="m4357.460938 5106.75625h47.773437v3.007812h-47.773437zm0 0" style="fill:none;stroke-width:4.80598;stroke-linecap:round;stroke-linejoin:round;stroke:#000;stroke-miterlimit:10" transform="matrix(.1 0 0 -.1 0 598.16)"/><path d="m435.746094 87.484375h4.777344v-.300781h-4.777344zm0 0"/><path d="m4956.09375 5106.75625h47.8125v3.007812h-47.8125zm0 0" style="fill:none;stroke-width:4.80598;stroke-linecap:round;stroke-linejoin:round;stroke:#000;stroke-miterlimit:10" transform="matrix(.1 0 0 -.1 0 598.16)"/><path d="m495.609375 87.484375h4.777344v-.300781h-4.777344zm0 0"/><use x="510.048" xlink:href="#al" y="55.757"/><use x="552.1519" xlink:href="#an" y="47.78669"/><path d="m5204.023438 5447.420312h3.828124v253.554688h-3.828124zm0 0" style="fill:none;stroke-width:3.98506;stroke-linecap:round;stroke-linejoin:round;stroke:#000;stroke-miterlimit:10" transform="matrix(.1 0 0 -.1 0 598.16)"/><path d="m520.402344 53.417969h.382812v-25.355469h-.382812zm0 0"/><use x="103.745" xlink:href="#P" y="92.904"/><use x="114.460249" xlink:href="#Q" y="92.904"/><use x="125.34503" xlink:href="#R" y="92.904"/><use x="135.209504" xlink:href="#R" y="92.904"/><use x="144.904447" xlink:href="#M" y="92.904"/><use x="121.5782" xlink:href="#al" y="55.7571"/><path d="m789.570312 5447.420312h3.828126v253.554688h-3.828126zm0 0" style="fill:none;stroke-width:3.98506;stroke-linecap:round;stroke-linejoin:round;stroke:#000;stroke-miterlimit:10" transform="matrix(.1 0 0 -.1 0 598.16)"/><path d="m78.957031 53.417969h.382813v-25.355469h-.382813zm0 0"/><use x="34.5504" xlink:href="#as" y="92.904"/><use x="44.245305" xlink:href="#at" y="92.904"/><use x="57.1473" xlink:href="#S" y="92.904"/><use x="71.264125" xlink:href="#Q" y="92.904"/><use x="82.148912" xlink:href="#T" y="92.904"/><use x="86.570794" xlink:href="#T" y="92.904"/><use x="301.0953" xlink:href="#ak" y="47.7868"/><use x="35.098632" xlink:href="#ao" y="47.7868"/><use x="42.3023" xlink:href="#ao" y="35.8317"/><use x="6.3769" xlink:href="#ap" y="55.7571"/><path d="m679.921875 5749.334375h4.882813v151.757812h-4.882813zm0 0" style="fill:none;stroke-width:2.43885;stroke-linecap:round;stroke-linejoin:round;stroke:#000;stroke-miterlimit:10" transform="matrix(.1 0 0 -.1 0 598.16)"/><path d="m67.992188 23.226562h.488281v-15.175781h-.488281zm0 0"/><use x="60.8559" xlink:href="#au" y="24.837"/><use x="68.60278" xlink:href="#al" y="55.7573"/><use x="210.62078" xlink:href="#ak" y="47.78699"/><use x="295.75358" xlink:href="#Q" y="92.90419"/><use x="306.978608" xlink:href="#U" y="92.90419"/><path d="m2658.554688 5441.717187h3.828124v259.257813h-3.828124zm0 0" style="fill:none;stroke-width:3.98506;stroke-linecap:round;stroke-linejoin:round;stroke:#000;stroke-miterlimit:10" transform="matrix(.1 0 0 -.1 0 598.16)"/><path d="m265.851562 53.988281h.382813v-25.925781h-.382813zm0 0"/><use x="239.461" xlink:href="#V" y="92.904"/><use x="250.345794" xlink:href="#H" y="92.904"/><use x="261.230587" xlink:href="#I" y="92.904"/><use x="277.557968" xlink:href="#M" y="92.904"/><use x="256.0278" xlink:href="#ak" y="55.7571"/><path d="m2108.203125 5240.0375h3.828125v246.015625h-3.828125zm0 0" style="fill:none;stroke-width:3.98506;stroke-linecap:round;stroke-linejoin:round;stroke:#000;stroke-miterlimit:10" transform="matrix(.1 0 0 -.1 0 598.16)"/><path d="m210.820312 74.15625h.382813v-24.601562h-.382813zm0 0"/><use x="204.939" xlink:href="#F" y="92.904"/><use x="215.823794" xlink:href="#K" y="92.904"/><path d="m1319.335938 5447.420312h3.789062v253.554688h-3.789062zm0 0" style="fill:none;stroke-width:3.98506;stroke-linecap:round;stroke-linejoin:round;stroke:#000;stroke-miterlimit:10" transform="matrix(.1 0 0 -.1 0 598.16)"/><path d="m131.933594 53.417969h.378906v-25.355469h-.378906zm0 0"/><path d="m1687.148438 5266.639062h3.828124v253.554688h-3.828124zm0 0" style="fill:none;stroke-width:3.98506;stroke-linecap:round;stroke-linejoin:round;stroke:#000;stroke-miterlimit:10" transform="matrix(.1 0 0 -.1 0 598.16)"/><path d="m168.714844 71.496094h.382812v-25.355469h-.382812zm0 0"/><use x="163.099" xlink:href="#K" y="92.904"/><use x="173.983781" xlink:href="#F" y="92.904"/><use x="168.51697" xlink:href="#al" y="43.8017"/><g clip-path="url(#f)"><path d="m3.007812 4387.928125h5946.757813" style="fill:none;stroke-width:6.00947;stroke-linecap:round;stroke-linejoin:round;stroke:#000;stroke-miterlimit:10" transform="matrix(.1 0 0 -.1 0 598.16)"/></g><g clip-path="url(#g)"><path d="m3.007812 4467.615625h5946.757813" style="fill:none;stroke-width:6.00947;stroke-linecap:round;stroke-linejoin:round;stroke:#000;stroke-miterlimit:10" transform="matrix(.1 0 0 -.1 0 598.16)"/></g><g clip-path="url(#h)"><path d="m3.007812 4547.303125h5946.757813" style="fill:none;stroke-width:6.00947;stroke-linecap:round;stroke-linejoin:round;stroke:#000;stroke-miterlimit:10" transform="matrix(.1 0 0 -.1 0 598.16)"/></g><g clip-path="url(#i)"><path d="m3.007812 4627.029687h5946.757813" style="fill:none;stroke-width:6.00947;stroke-linecap:round;stroke-linejoin:round;stroke:#000;stroke-miterlimit:10" transform="matrix(.1 0 0 -.1 0 598.16)"/></g><g clip-path="url(#j)"><path d="m3.007812 4706.717187h5946.757813" style="fill:none;stroke-width:6.00947;stroke-linecap:round;stroke-linejoin:round;stroke:#000;stroke-miterlimit:10" transform="matrix(.1 0 0 -.1 0 598.16)"/></g><path d="m1492.617188 4308.201562h142.148437" style="fill:none;stroke-width:13.9796;stroke-linecap:round;stroke-linejoin:round;stroke:#000;stroke-miterlimit:10" transform="matrix(.1 0 0 -.1 0 598.16)"/><use x="403.02" xlink:href="#R" y="189.967"/><use x="412.884486" xlink:href="#U" y="189.967"/><use x="422.749363" xlink:href="#K" y="189.967"/><path d="m4130.585938 4310.19375h3.828124v253.59375h-3.828124zm0 0" fill="none" stroke="#000" stroke-linejoin="round" stroke-miterlimit="10" stroke-width="3.98506" transform="matrix(.1 0 0 -.1 0 598.16)"/><path d="m413.058594 167.140625h.382812v-25.359375h-.382812zm0 0"/><use x="460.231" xlink:href="#ak" y="143.428"/><use x="446.3861" xlink:href="#W" y="189.9671"/><use x="457.270894" xlink:href="#H" y="189.9671"/><use x="468.155687" xlink:href="#I" y="189.9671"/><path d="m4604.296875 4283.63125h3.828125v246.015625h-3.828125zm0 0" fill="none" stroke="#000" stroke-linejoin="round" stroke-miterlimit="10" stroke-width="3.98506" transform="matrix(.1 0 0 -.1 0 598.16)"/><path d="m460.429688 169.796875h.382812v-24.601563h-.382812zm0 0"/><use x="451.894" xlink:href="#aq" y="143.428"/><use x="412.8588" xlink:href="#al" y="139.44284"/><path d="m3798.359375 4485.271875h3.828125v259.296875h-3.828125zm0 0" fill="none" stroke="#000" stroke-linejoin="round" stroke-miterlimit="10" stroke-width="3.98506" transform="matrix(.1 0 0 -.1 0 598.16)"/><path d="m379.835938 149.632812h.382812v-25.929687h-.382812zm0 0"/><use x="364.328" xlink:href="#X" y="189.967"/><use x="375.212794" xlink:href="#H" y="189.967"/><use x="370.00925" xlink:href="#ak" y="151.3982"/><path d="m3381.640625 4525.154687h3.828125v259.257813h-3.828125zm0 0" fill="none" stroke="#000" stroke-linejoin="round" stroke-miterlimit="10" stroke-width="3.98506" transform="matrix(.1 0 0 -.1 0 598.16)"/><path d="m338.164062 145.648438h.382813v-25.929688h-.382813zm0 0"/><use x="322.656" xlink:href="#K" y="189.967"/><use x="333.540794" xlink:href="#F" y="189.967"/><use x="328.33764" xlink:href="#ak" y="147.4131"/><path d="m943.359375 4136.13125h47.773437v3.007812h-47.773437zm0 0" fill="none" stroke="#000" stroke-linejoin="round" stroke-miterlimit="10" stroke-width="4.80598" transform="matrix(.1 0 0 -.1 0 598.16)"/><path d="m94.335938 184.546875h4.777343v-.300781h-4.777343zm0 0"/><path d="m1312.070312 4136.13125h47.773438v3.007812h-47.773438zm0 0" fill="none" stroke="#000" stroke-linejoin="round" stroke-miterlimit="10" stroke-width="4.80598" transform="matrix(.1 0 0 -.1 0 598.16)"/><path d="m131.207031 184.546875h4.777344v-.300781h-4.777344zm0 0"/><path d="m2207.460938 4136.13125h47.773437v3.007812h-47.773437zm0 0" fill="none" stroke="#000" stroke-linejoin="round" stroke-miterlimit="10" stroke-width="4.80598" transform="matrix(.1 0 0 -.1 0 598.16)"/><path d="m220.746094 184.546875h4.777344v-.300781h-4.777344zm0 0"/><path d="m3921.679688 4136.13125h47.8125v3.007812h-47.8125zm0 0" fill="none" stroke="#000" stroke-linejoin="round" stroke-miterlimit="10" stroke-width="4.80598" transform="matrix(.1 0 0 -.1 0 598.16)"/><path d="m392.167969 184.546875h4.78125v-.300781h-4.78125zm0 0"/><path d="m4376.210938 4136.13125h47.773437v3.007812h-47.773437zm0 0" fill="none" stroke="#000" stroke-linejoin="round" stroke-miterlimit="10" stroke-width="4.80598" transform="matrix(.1 0 0 -.1 0 598.16)"/><path d="m437.621094 184.546875h4.777344v-.300781h-4.777344zm0 0"/><path d="m4884.6875 4136.13125h47.8125v3.007812h-47.8125zm0 0" fill="none" stroke="#000" stroke-linejoin="round" stroke-miterlimit="10" stroke-width="4.80598" transform="matrix(.1 0 0 -.1 0 598.16)"/><path d="m488.46875 184.546875h4.78125v-.300781h-4.78125zm0 0"/><use x="502.909" xlink:href="#al" y="139.443"/><use x="548.5824" xlink:href="#an" y="143.42816"/><path d="m5031.09375 4310.19375h3.828125v253.59375h-3.828125zm0 0" fill="none" stroke="#000" stroke-linejoin="round" stroke-miterlimit="10" stroke-width="3.98506" transform="matrix(.1 0 0 -.1 0 598.16)"/><path d="m503.109375 167.140625h.382813v-25.359375h-.382813zm0 0"/><use x="497.236" xlink:href="#L" y="189.967"/><use x="503.528973" xlink:href="#H" y="189.967"/><use x="514.074313" xlink:href="#M" y="189.967"/><path d="m1213.125 4405.584375h3.828125v259.296875h-3.828125zm0 0" fill="none" stroke="#000" stroke-linejoin="round" stroke-miterlimit="10" stroke-width="3.98506" transform="matrix(.1 0 0 -.1 0 598.16)"/><path d="m121.3125 157.601562h.382812v-25.929687h-.382812zm0 0"/><use x="109.037" xlink:href="#T" y="189.967"/><use x="113.458882" xlink:href="#H" y="189.967"/><use x="111.487" xlink:href="#ak" y="159.3682"/><path d="m781.601562 4491.014062h3.828126v253.554688h-3.828126zm0 0" fill="none" stroke="#000" stroke-linejoin="round" stroke-miterlimit="10" stroke-width="3.98506" transform="matrix(.1 0 0 -.1 0 598.16)"/><path d="m78.160156 149.058594h.382813v-25.355469h-.382813zm0 0"/><use x="62.1336" xlink:href="#Y" y="189.967"/><use x="73.528937" xlink:href="#Z" y="189.967"/><use x="67.80587" xlink:href="#al" y="151.3982"/><use x="35.09807" xlink:href="#ao" y="143.42789"/><use x="42.30159" xlink:href="#ao" y="131.47279"/><use x="6.37619" xlink:href="#ap" y="151.39819"/><path d="m2869.84375 4283.63125h3.828125v246.015625h-3.828125zm0 0" fill="none" stroke="#000" stroke-linejoin="round" stroke-miterlimit="10" stroke-width="3.98506" transform="matrix(.1 0 0 -.1 0 598.16)"/><path d="m286.984375 169.796875h.382813v-24.601563h-.382813zm0 0"/><use x="281.445" xlink:href="#Q" y="189.967"/><use x="292.670028" xlink:href="#U" y="189.967"/><use x="286.7868" xlink:href="#ak" y="143.4279"/><path d="m2508.59375 4491.014062h3.828125v253.554688h-3.828125zm0 0" fill="none" stroke="#000" stroke-linejoin="round" stroke-miterlimit="10" stroke-width="3.98506" transform="matrix(.1 0 0 -.1 0 598.16)"/><path d="m250.855469 149.058594h.382812v-25.355469h-.382812zm0 0"/><use x="230.155" xlink:href="#R" y="189.967"/><use x="240.019462" xlink:href="#Q" y="189.967"/><use x="250.904255" xlink:href="#W" y="189.967"/><use x="240.5042" xlink:href="#al" y="151.3982"/><path d="m2051.835938 4491.014062h3.828124v253.554688h-3.828124zm0 0" fill="none" stroke="#000" stroke-linejoin="round" stroke-miterlimit="10" stroke-width="3.98506" transform="matrix(.1 0 0 -.1 0 598.16)"/><path d="m205.183594 149.058594h.382812v-25.355469h-.382812zm0 0"/><use x="194.83" xlink:href="#al" y="151.399"/><use x="151.1659" xlink:href="#ak" y="167.3388"/><use x="142.84832" xlink:href="#W" y="189.9677"/><use x="153.733101" xlink:href="#H" y="189.9677"/><use x="164.44796" xlink:href="#N" y="189.9677"/><path d="m1609.921875 4325.896875h3.828125v259.257812h-3.828125zm0 0" fill="none" stroke="#000" stroke-linejoin="round" stroke-miterlimit="10" stroke-width="3.98506" transform="matrix(.1 0 0 -.1 0 598.16)"/><path d="m160.992188 165.570312h.382812v-25.925781h-.382812zm0 0"/><use x="184.481" xlink:href="#aa" y="189.967"/><use x="195.365781" xlink:href="#Q" y="189.967"/><use x="206.250575" xlink:href="#ab" y="189.967"/><use x="210.672469" xlink:href="#N" y="189.967"/><g clip-path="url(#k)"><path d="m3.007812 3431.482812h5946.757813" style="fill:none;stroke-width:6.00947;stroke-linecap:round;stroke-linejoin:round;stroke:#000;stroke-miterlimit:10" transform="matrix(.1 0 0 -.1 0 598.16)"/></g><g clip-path="url(#l)"><path d="m3.007812 3511.209375h5946.757813" style="fill:none;stroke-width:6.00947;stroke-linecap:round;stroke-linejoin:round;stroke:#000;stroke-miterlimit:10" transform="matrix(.1 0 0 -.1 0 598.16)"/></g><g clip-path="url(#m)"><path d="m3.007812 3590.896875h5946.757813" style="fill:none;stroke-width:6.00947;stroke-linecap:round;stroke-linejoin:round;stroke:#000;stroke-miterlimit:10" transform="matrix(.1 0 0 -.1 0 598.16)"/></g><g clip-path="url(#n)"><path d="m3.007812 3670.623437h5946.757813" style="fill:none;stroke-width:6.00947;stroke-linecap:round;stroke-linejoin:round;stroke:#000;stroke-miterlimit:10" transform="matrix(.1 0 0 -.1 0 598.16)"/></g><g clip-path="url(#o)"><path d="m3.007812 3750.310937h5946.757813" style="fill:none;stroke-width:6.00947;stroke-linecap:round;stroke-linejoin:round;stroke:#000;stroke-miterlimit:10" transform="matrix(.1 0 0 -.1 0 598.16)"/></g><path d="m5062.421875 3351.795312h150.039063" style="fill:none;stroke-width:13.9796;stroke-linecap:round;stroke-linejoin:round;stroke:#000;stroke-miterlimit:10" transform="matrix(.1 0 0 -.1 0 598.16)"/><path d="m3621.679688 3351.795312h142.148437" style="fill:none;stroke-width:13.9796;stroke-linecap:round;stroke-linejoin:round;stroke:#000;stroke-miterlimit:10" transform="matrix(.1 0 0 -.1 0 598.16)"/><use x="408.543" xlink:href="#ak" y="255.01"/><use x="395.1227" xlink:href="#R" y="285.8256"/><use x="404.987553" xlink:href="#U" y="285.8256"/><use x="414.852039" xlink:href="#ac" y="285.8256"/><use x="425.736832" xlink:href="#L" y="285.8256"/><path d="m4183.671875 3449.178125h3.828125v259.296875h-3.828125zm0 0" fill="none" stroke="#000" stroke-linejoin="round" stroke-miterlimit="10" stroke-width="3.98506" transform="matrix(.1 0 0 -.1 0 598.16)"/><path d="m418.367188 253.242188h.382812v-25.929688h-.382812zm0 0"/><use x="458.363" xlink:href="#al" y="258.995"/><use x="445.122" xlink:href="#I" y="285.8255"/><use x="461.449772" xlink:href="#Q" y="285.8255"/><use x="472.6748" xlink:href="#U" y="285.8255"/><path d="m4687.1875 3415.0375h3.789062v253.59375h-3.789062zm0 0" fill="none" stroke="#000" stroke-linejoin="round" stroke-miterlimit="10" stroke-width="3.98506" transform="matrix(.1 0 0 -.1 0 598.16)"/><path d="m468.71875 256.65625h.378906v-25.355469h-.378906zm0 0"/><path d="m2883.554688 3489.021875h3.828124v259.296875h-3.828124zm0 0" fill="none" stroke="#000" stroke-linejoin="round" stroke-miterlimit="10" stroke-width="3.98506" transform="matrix(.1 0 0 -.1 0 598.16)"/><path d="m288.355469 249.257812h.382812v-25.929687h-.382812zm0 0"/><path d="m3738.945312 3369.451562h3.828126v259.296875h-3.828126zm0 0" fill="none" stroke="#000" stroke-linejoin="round" stroke-miterlimit="10" stroke-width="3.98506" transform="matrix(.1 0 0 -.1 0 598.16)"/><path d="m373.894531 261.214844h.382813v-25.929688h-.382813zm0 0"/><use x="356.178" xlink:href="#X" y="285.826"/><use x="367.062794" xlink:href="#ad" y="285.826"/><use x="377.947587" xlink:href="#T" y="285.826"/><use x="364.07058" xlink:href="#ak" y="262.9803"/><path d="m3322.304688 3528.865625h3.828124v259.296875h-3.828124zm0 0" fill="none" stroke="#000" stroke-linejoin="round" stroke-miterlimit="10" stroke-width="3.98506" transform="matrix(.1 0 0 -.1 0 598.16)"/><path d="m332.230469 245.273438h.382812v-25.929688h-.382812zm0 0"/><use x="311.791" xlink:href="#ab" y="285.826"/><use x="316.212894" xlink:href="#Q" y="285.826"/><use x="327.097688" xlink:href="#I" y="285.826"/><use x="322.4043" xlink:href="#ak" y="247.0401"/><path d="m887.1875 3177.5375h47.773438v3.007812h-47.773438zm0 0" fill="none" stroke="#000" stroke-linejoin="round" stroke-miterlimit="10" stroke-width="4.80598" transform="matrix(.1 0 0 -.1 0 598.16)"/><path d="m88.71875 280.40625h4.777344v-.300781h-4.777344zm0 0"/><path d="m1335.898438 3177.5375h47.8125v3.007812h-47.8125zm0 0" fill="none" stroke="#000" stroke-linejoin="round" stroke-miterlimit="10" stroke-width="4.80598" transform="matrix(.1 0 0 -.1 0 598.16)"/><path d="m133.589844 280.40625h4.78125v-.300781h-4.78125zm0 0"/><path d="m3030.234375 3177.5375h47.8125v3.007812h-47.8125zm0 0" fill="none" stroke="#000" stroke-linejoin="round" stroke-miterlimit="10" stroke-width="4.80598" transform="matrix(.1 0 0 -.1 0 598.16)"/><path d="m303.023438 280.40625h4.78125v-.300781h-4.78125zm0 0"/><path d="m3474.101562 3177.5375h47.8125v3.007812h-47.8125zm0 0" fill="none" stroke="#000" stroke-linejoin="round" stroke-miterlimit="10" stroke-width="4.80598" transform="matrix(.1 0 0 -.1 0 598.16)"/><path d="m347.410156 280.40625h4.78125v-.300781h-4.78125zm0 0"/><path d="m4363.554688 3177.5375h47.8125v3.007812h-47.8125zm0 0" fill="none" stroke="#000" stroke-linejoin="round" stroke-miterlimit="10" stroke-width="4.80598" transform="matrix(.1 0 0 -.1 0 598.16)"/><path d="m436.355469 280.40625h4.777343v-.300781h-4.777343zm0 0"/><path d="m4865.234375 3177.5375h47.8125v3.007812h-47.8125zm0 0" fill="none" stroke="#000" stroke-linejoin="round" stroke-miterlimit="10" stroke-width="4.80598" transform="matrix(.1 0 0 -.1 0 598.16)"/><path d="m486.523438 280.40625h4.78125v-.300781h-4.78125zm0 0"/><use x="508.277" xlink:href="#al" y="262.98"/><use x="551.2661" xlink:href="#an" y="239.0698"/><path d="m5186.328125 3375.19375h3.789063v253.554687h-3.789063zm0 0" fill="none" stroke="#000" stroke-linejoin="round" stroke-miterlimit="10" stroke-width="3.98506" transform="matrix(.1 0 0 -.1 0 598.16)"/><path d="m518.632812 260.640625h.378907v-25.355469h-.378907zm0 0"/><use x="495.291" xlink:href="#F" y="285.826"/><use x="506.175794" xlink:href="#Q" y="285.826"/><use x="517.060587" xlink:href="#ae" y="285.826"/><use x="526.755542" xlink:href="#af" y="285.826"/><use x="268.423387" xlink:href="#R" y="285.826"/><use x="278.287849" xlink:href="#U" y="285.826"/><use x="288.152702" xlink:href="#ac" y="285.826"/><path d="m1206.210938 3568.709375h3.828124v259.296875h-3.828124zm0 0" fill="none" stroke="#000" stroke-linejoin="round" stroke-miterlimit="10" stroke-width="3.98506" transform="matrix(.1 0 0 -.1 0 598.16)"/><path d="m120.621094 241.289062h.382812v-25.929687h-.382812zm0 0"/><use x="102.392" xlink:href="#I" y="285.826"/><use x="118.719369" xlink:href="#H" y="285.826"/><use x="110.79473" xlink:href="#ak" y="243.0553"/><path d="m781.601562 3534.607812h3.828126v253.554688h-3.828126zm0 0" fill="none" stroke="#000" stroke-linejoin="round" stroke-miterlimit="10" stroke-width="3.98506" transform="matrix(.1 0 0 -.1 0 598.16)"/><path d="m78.160156 244.703125h.382813v-25.359375h-.382813zm0 0"/><use x="66.725" xlink:href="#ag" y="285.826"/><use x="67.80586" xlink:href="#al" y="247.0401"/><use x="35.09806" xlink:href="#ao" y="239.07018"/><use x="42.30158" xlink:href="#ao" y="227.11508"/><use x="6.37618" xlink:href="#ap" y="247.04008"/><use x="194.54259" xlink:href="#al" y="247.04008"/><use x="278.52818" xlink:href="#ak" y="251.02524"/><path d="m2458.90625 3454.88125h3.828125v253.59375h-3.828125zm0 0" fill="none" stroke="#000" stroke-linejoin="round" stroke-miterlimit="10" stroke-width="3.98506" transform="matrix(.1 0 0 -.1 0 598.16)"/><path d="m245.890625 252.671875h.382813v-25.355469h-.382813zm0 0"/><use x="230.122" xlink:href="#K" y="285.826"/><use x="241.006794" xlink:href="#F" y="285.826"/><use x="235.53919" xlink:href="#al" y="255.0104"/><path d="m2048.945312 3534.607812h3.828126v253.554688h-3.828126zm0 0" fill="none" stroke="#000" stroke-linejoin="round" stroke-miterlimit="10" stroke-width="3.98506" transform="matrix(.1 0 0 -.1 0 598.16)"/><path d="m204.894531 244.703125h.382813v-25.359375h-.382813zm0 0"/><use x="189.466" xlink:href="#Q" y="285.826"/><use x="200.691017" xlink:href="#U" y="285.826"/><use x="101.6297" xlink:href="#ao" y="243.0553"/><path d="m1641.5625 3489.021875h3.828125v259.296875h-3.828125zm0 0" fill="none" stroke="#000" stroke-linejoin="round" stroke-miterlimit="10" stroke-width="3.98506" transform="matrix(.1 0 0 -.1 0 598.16)"/><path d="m164.15625 249.257812h.382812v-25.929687h-.382812zm0 0"/><use x="142.357" xlink:href="#T" y="285.826"/><use x="146.60896" xlink:href="#G" y="285.826"/><use x="155.963667" xlink:href="#H" y="285.826"/><use x="166.848448" xlink:href="#ae" y="285.826"/><use x="154.3312" xlink:href="#ak" y="251.0252"/><g clip-path="url(#p)"><path d="m3.007812 2475.076562h5946.757813" style="fill:none;stroke-width:6.00947;stroke-linecap:round;stroke-linejoin:round;stroke:#000;stroke-miterlimit:10" transform="matrix(.1 0 0 -.1 0 598.16)"/></g><g clip-path="url(#q)"><path d="m3.007812 2554.803125h5946.757813" style="fill:none;stroke-width:6.00947;stroke-linecap:round;stroke-linejoin:round;stroke:#000;stroke-miterlimit:10" transform="matrix(.1 0 0 -.1 0 598.16)"/></g><g clip-path="url(#r)"><path d="m3.007812 2634.490625h5946.757813" style="fill:none;stroke-width:6.00947;stroke-linecap:round;stroke-linejoin:round;stroke:#000;stroke-miterlimit:10" transform="matrix(.1 0 0 -.1 0 598.16)"/></g><g clip-path="url(#s)"><path d="m3.007812 2714.178125h5946.757813" style="fill:none;stroke-width:6.00947;stroke-linecap:round;stroke-linejoin:round;stroke:#000;stroke-miterlimit:10" transform="matrix(.1 0 0 -.1 0 598.16)"/></g><g clip-path="url(#t)"><path d="m3.007812 2793.904687h5946.757813" style="fill:none;stroke-width:6.00947;stroke-linecap:round;stroke-linejoin:round;stroke:#000;stroke-miterlimit:10" transform="matrix(.1 0 0 -.1 0 598.16)"/></g><use x="415.5" xlink:href="#ak" y="334.711"/><use x="503.2406" xlink:href="#al" y="342.68092"/><use x="415.2617" xlink:href="#Q" y="378.54652"/><path d="m4156.992188 2370.81875h3.828124v246.015625h-3.828124zm0 0" style="fill:none;stroke-width:3.98506;stroke-linecap:round;stroke-linejoin:round;stroke:#000;stroke-miterlimit:10" transform="matrix(.1 0 0 -.1 0 598.16)"/><path d="m415.699219 361.078125h.382812v-24.597656h-.382812zm0 0"/><use x="456.983" xlink:href="#al" y="338.696"/><use x="447.39902" xlink:href="#U" y="378.5464"/><use x="456.753349" xlink:href="#ah" y="378.5464"/><use x="467.638143" xlink:href="#ae" y="378.5464"/><path d="m4673.359375 2618.00625h3.828125v253.59375h-3.828125zm0 0" style="fill:none;stroke-width:3.98506;stroke-linecap:round;stroke-linejoin:round;stroke:#000;stroke-miterlimit:10" transform="matrix(.1 0 0 -.1 0 598.16)"/><path d="m467.335938 336.359375h.382812v-25.359375h-.382812zm0 0"/><path d="m3741.757812 2370.81875h3.828126v246.015625h-3.828126zm0 0" style="fill:none;stroke-width:3.98506;stroke-linecap:round;stroke-linejoin:round;stroke:#000;stroke-miterlimit:10" transform="matrix(.1 0 0 -.1 0 598.16)"/><path d="m374.175781 361.078125h.382813v-24.597656h-.382813zm0 0"/><use x="368.296" xlink:href="#N" y="378.547"/><use x="373.738983" xlink:href="#ac" y="378.547"/><use x="384.623776" xlink:href="#N" y="378.547"/><use x="373.97803" xlink:href="#ak" y="334.7115"/><path d="m3326.5625 2397.38125h3.828125v259.296875h-3.828125zm0 0" style="fill:none;stroke-width:3.98506;stroke-linecap:round;stroke-linejoin:round;stroke:#000;stroke-miterlimit:10" transform="matrix(.1 0 0 -.1 0 598.16)"/><path d="m332.65625 358.421875h.382812v-25.929687h-.382812zm0 0"/><use x="325.244" xlink:href="#J" y="378.547"/><use x="334.768226" xlink:href="#ah" y="378.547"/><use x="345.65302" xlink:href="#T" y="378.547"/><use x="332.45611" xlink:href="#ak" y="330.7263"/><path d="m1834.648438 2250.35h47.8125v3.007812h-47.8125zm0 0" style="fill:none;stroke-width:4.80598;stroke-linecap:round;stroke-linejoin:round;stroke:#000;stroke-miterlimit:10" transform="matrix(.1 0 0 -.1 0 598.16)"/><path d="m183.464844 373.125h4.78125v-.300781h-4.78125zm0 0"/><path d="m2196.875 2250.35h47.8125v3.007812h-47.8125zm0 0" style="fill:none;stroke-width:4.80598;stroke-linecap:round;stroke-linejoin:round;stroke:#000;stroke-miterlimit:10" transform="matrix(.1 0 0 -.1 0 598.16)"/><path d="m219.6875 373.125h4.78125v-.300781h-4.78125zm0 0"/><path d="m3134.882812 2250.35h47.8125v3.007812h-47.8125zm0 0" style="fill:none;stroke-width:4.80598;stroke-linecap:round;stroke-linejoin:round;stroke:#000;stroke-miterlimit:10" transform="matrix(.1 0 0 -.1 0 598.16)"/><path d="m313.488281 373.125h4.777344v-.300781h-4.777344zm0 0"/><path d="m3567.96875 2250.35h47.773438v3.007812h-47.773438zm0 0" style="fill:none;stroke-width:4.80598;stroke-linecap:round;stroke-linejoin:round;stroke:#000;stroke-miterlimit:10" transform="matrix(.1 0 0 -.1 0 598.16)"/><path d="m356.796875 373.125h4.777344v-.300781h-4.777344zm0 0"/><path d="m4343.828125 2250.35h47.773437v3.007812h-47.773437zm0 0" style="fill:none;stroke-width:4.80598;stroke-linecap:round;stroke-linejoin:round;stroke:#000;stroke-miterlimit:10" transform="matrix(.1 0 0 -.1 0 598.16)"/><path d="m434.382812 373.125h4.777344v-.300781h-4.777344zm0 0"/><path d="m4814.882812 2250.35h47.8125v3.007812h-47.8125zm0 0" style="fill:none;stroke-width:4.80598;stroke-linecap:round;stroke-linejoin:round;stroke:#000;stroke-miterlimit:10" transform="matrix(.1 0 0 -.1 0 598.16)"/><path d="m481.488281 373.125h4.78125v-.300781h-4.78125zm0 0"/><use x="490.255" xlink:href="#F" y="378.547"/><use x="501.139794" xlink:href="#Q" y="378.547"/><use x="512.024587" xlink:href="#ae" y="378.547"/><use x="521.719542" xlink:href="#M" y="378.547"/><use x="548.7487" xlink:href="#an" y="334.7115"/><path d="m5135.9375 2578.1625h3.828125v253.59375h-3.828125zm0 0" style="fill:none;stroke-width:3.98506;stroke-linecap:round;stroke-linejoin:round;stroke:#000;stroke-miterlimit:10" transform="matrix(.1 0 0 -.1 0 598.16)"/><path d="m513.59375 340.34375h.382812v-25.359375h-.382812zm0 0"/><path d="m2911.328125 2397.38125h3.828125v259.296875h-3.828125zm0 0" style="fill:none;stroke-width:3.98506;stroke-linecap:round;stroke-linejoin:round;stroke:#000;stroke-miterlimit:10" transform="matrix(.1 0 0 -.1 0 598.16)"/><path d="m291.132812 358.421875h.382813v-25.929687h-.382813zm0 0"/><path d="m1233.867188 2612.303125h3.828124v259.296875h-3.828124zm0 0" style="fill:none;stroke-width:3.98506;stroke-linecap:round;stroke-linejoin:round;stroke:#000;stroke-miterlimit:10" transform="matrix(.1 0 0 -.1 0 598.16)"/><path d="m123.386719 336.929688h.382812v-25.929688h-.382812zm0 0"/><use x="108.901" xlink:href="#ab" y="378.547"/><use x="113.322882" xlink:href="#ad" y="378.547"/><use x="124.207663" xlink:href="#T" y="378.547"/><use x="113.56194" xlink:href="#ak" y="338.6966"/><path d="m781.601562 2578.1625h3.828126v253.59375h-3.828126zm0 0" style="fill:none;stroke-width:3.98506;stroke-linecap:round;stroke-linejoin:round;stroke:#000;stroke-miterlimit:10" transform="matrix(.1 0 0 -.1 0 598.16)"/><path d="m78.160156 340.34375h.382813v-25.359375h-.382813zm0 0"/><use x="50.3973" xlink:href="#S" y="378.547"/><use x="64.684047" xlink:href="#ah" y="378.547"/><use x="75.568834" xlink:href="#P" y="378.547"/><use x="86.283699" xlink:href="#G" y="378.547"/><use x="67.8059" xlink:href="#al" y="342.6814"/><use x="35.0981" xlink:href="#ao" y="334.71148"/><use x="42.30162" xlink:href="#ao" y="322.75638"/><use x="6.37622" xlink:href="#ap" y="342.68138"/><use x="285.76222" xlink:href="#I" y="378.54698"/><use x="302.089601" xlink:href="#ai" y="378.54698"/><use x="244.24742" xlink:href="#al" y="342.68138"/><use x="228.45562" xlink:href="#aa" y="378.54698"/><use x="239.340414" xlink:href="#H" y="378.54698"/><use x="250.225207" xlink:href="#R" y="378.54698"/><use x="260.089669" xlink:href="#W" y="378.54698"/><path d="m1986.992188 2397.38125h3.828124v253.59375h-3.828124zm0 0" style="fill:none;stroke-width:3.98506;stroke-linecap:round;stroke-linejoin:round;stroke:#000;stroke-miterlimit:10" transform="matrix(.1 0 0 -.1 0 598.16)"/><path d="m198.699219 358.421875h.382812v-25.355469h-.382812zm0 0"/><use x="192.232" xlink:href="#K" y="378.547"/><use x="203.116781" xlink:href="#L" y="378.547"/><use x="210.260147" xlink:href="#N" y="378.547"/><path d="m2546.015625 2578.1625h3.828125v253.59375h-3.828125zm0 0" style="fill:none;stroke-width:3.98506;stroke-linecap:round;stroke-linejoin:round;stroke:#000;stroke-miterlimit:10" transform="matrix(.1 0 0 -.1 0 598.16)"/><path d="m254.601562 340.34375h.382813v-25.359375h-.382813zm0 0"/><use x="198.5" xlink:href="#al" y="330.726"/><path d="m1554.257812 2370.81875h3.828126v246.015625h-3.828126zm0 0" style="fill:none;stroke-width:3.98506;stroke-linecap:round;stroke-linejoin:round;stroke:#000;stroke-miterlimit:10" transform="matrix(.1 0 0 -.1 0 598.16)"/><path d="m155.425781 361.078125h.382813v-24.597656h-.382813zm0 0"/><use x="141.383" xlink:href="#I" y="378.547"/><use x="157.710369" xlink:href="#H" y="378.547"/><use x="168.59515" xlink:href="#P" y="378.547"/><use x="155.2275" xlink:href="#ak" y="334.7115"/><use x="290.9335" xlink:href="#ak" y="330.72634"/><g clip-path="url(#u)"><path d="m3.007812 1518.670312h5946.757813" style="fill:none;stroke-width:6.00947;stroke-linecap:round;stroke-linejoin:round;stroke:#000;stroke-miterlimit:10" transform="matrix(.1 0 0 -.1 0 598.16)"/></g><g clip-path="url(#v)"><path d="m3.007812 1598.396875h5946.757813" style="fill:none;stroke-width:6.00947;stroke-linecap:round;stroke-linejoin:round;stroke:#000;stroke-miterlimit:10" transform="matrix(.1 0 0 -.1 0 598.16)"/></g><g clip-path="url(#w)"><path d="m3.007812 1678.084375h5946.757813" style="fill:none;stroke-width:6.00947;stroke-linecap:round;stroke-linejoin:round;stroke:#000;stroke-miterlimit:10" transform="matrix(.1 0 0 -.1 0 598.16)"/></g><g clip-path="url(#x)"><path d="m3.007812 1757.771875h5946.757813" style="fill:none;stroke-width:6.00947;stroke-linecap:round;stroke-linejoin:round;stroke:#000;stroke-miterlimit:10" transform="matrix(.1 0 0 -.1 0 598.16)"/></g><g clip-path="url(#y)"><path d="m3.007812 1837.498437h5946.757813" style="fill:none;stroke-width:6.00947;stroke-linecap:round;stroke-linejoin:round;stroke:#000;stroke-miterlimit:10" transform="matrix(.1 0 0 -.1 0 598.16)"/></g><path d="m2560.78125 1438.982812h142.109375" style="fill:none;stroke-width:13.9796;stroke-linecap:round;stroke-linejoin:round;stroke:#000;stroke-miterlimit:10" transform="matrix(.1 0 0 -.1 0 598.16)"/><use x="390.28" xlink:href="#X" y="476.892"/><use x="401.164794" xlink:href="#H" y="476.892"/><use x="494.977" xlink:href="#al" y="446.2932"/><path d="m4060.507812 1621.75625h3.828126v253.59375h-3.828126zm0 0" fill="none" stroke="#000" stroke-linejoin="round" stroke-miterlimit="10" stroke-width="3.98506" transform="matrix(.1 0 0 -.1 0 598.16)"/><path d="m406.050781 435.984375h.382813v-25.359375h-.382813zm0 0"/><use x="445.337" xlink:href="#al" y="442.308"/><use x="435.49716" xlink:href="#R" y="476.892"/><use x="445.362037" xlink:href="#U" y="476.892"/><use x="455.226523" xlink:href="#K" y="476.892"/><path d="m4556.914062 1581.9125h3.828126v253.59375h-3.828126zm0 0" fill="none" stroke="#000" stroke-linejoin="round" stroke-miterlimit="10" stroke-width="3.98506" transform="matrix(.1 0 0 -.1 0 598.16)"/><path d="m455.691406 439.96875h.382813v-25.355469h-.382813zm0 0"/><use x="297.323" xlink:href="#W" y="476.892"/><use x="308.207794" xlink:href="#ah" y="476.892"/><use x="319.092587" xlink:href="#T" y="476.892"/><use x="395.6972" xlink:href="#al" y="438.3229"/><use x="341.2909" xlink:href="#ao" y="434.33774"/><path d="m3602.8125 1655.896875h3.828125v259.296875h-3.828125zm0 0" fill="none" stroke="#000" stroke-linejoin="round" stroke-miterlimit="10" stroke-width="3.98506" transform="matrix(.1 0 0 -.1 0 598.16)"/><path d="m360.28125 432.570312h.382812v-25.929687h-.382812zm0 0"/><use x="342.139" xlink:href="#P" y="476.892"/><use x="353.023794" xlink:href="#ah" y="476.892"/><use x="363.738664" xlink:href="#N" y="476.892"/><use x="350.45658" xlink:href="#ak" y="434.3377"/><path d="m3150.390625 1616.053125h3.828125v259.296875h-3.828125zm0 0" fill="none" stroke="#000" stroke-linejoin="round" stroke-miterlimit="10" stroke-width="3.98506" transform="matrix(.1 0 0 -.1 0 598.16)"/><path d="m315.039062 436.554688h.382813v-25.925782h-.382813zm0 0"/><path d="m1915.15625 1266.873437h47.8125v3.007813h-47.8125zm0 0" fill="none" stroke="#000" stroke-linejoin="round" stroke-miterlimit="10" stroke-width="4.80598" transform="matrix(.1 0 0 -.1 0 598.16)"/><path d="m191.515625 471.472656h4.777344v-.300781h-4.777344zm0 0"/><path d="m3304.375 1266.873437h47.773438v3.007813h-47.773438zm0 0" fill="none" stroke="#000" stroke-linejoin="round" stroke-miterlimit="10" stroke-width="4.80598" transform="matrix(.1 0 0 -.1 0 598.16)"/><path d="m330.4375 471.472656h4.777344v-.300781h-4.777344zm0 0"/><path d="m4213.828125 1266.873437h47.8125v3.007813h-47.8125zm0 0" fill="none" stroke="#000" stroke-linejoin="round" stroke-miterlimit="10" stroke-width="4.80598" transform="matrix(.1 0 0 -.1 0 598.16)"/><path d="m421.382812 471.472656h4.78125v-.300781h-4.78125zm0 0"/><path d="m4732.773438 1266.873437h47.8125v3.007813h-47.8125zm0 0" fill="none" stroke="#000" stroke-linejoin="round" stroke-miterlimit="10" stroke-width="4.80598" transform="matrix(.1 0 0 -.1 0 598.16)"/><path d="m473.277344 471.472656h4.777344v-.300781h-4.777344zm0 0"/><use x="485.222" xlink:href="#T" y="476.892"/><use x="489.643894" xlink:href="#H" y="476.892"/><use x="500.528688" xlink:href="#ae" y="476.892"/><use x="510.223643" xlink:href="#M" y="476.892"/><use x="544.6161" xlink:href="#an" y="430.3529"/><path d="m5053.28125 1542.06875h3.828125v253.554687h-3.828125zm0 0" fill="none" stroke="#000" stroke-linejoin="round" stroke-miterlimit="10" stroke-width="3.98506" transform="matrix(.1 0 0 -.1 0 598.16)"/><path d="m505.328125 443.953125h.382813v-25.355469h-.382813zm0 0"/><path d="m1278.007812 1581.9125h3.789063v253.59375h-3.789063zm0 0" fill="none" stroke="#000" stroke-linejoin="round" stroke-miterlimit="10" stroke-width="3.98506" transform="matrix(.1 0 0 -.1 0 598.16)"/><path d="m127.800781 439.96875h.378907v-25.355469h-.378907zm0 0"/><use x="305.215" xlink:href="#ak" y="438.322"/><use x="117.445" xlink:href="#al" y="442.30716"/><path d="m781.601562 1621.75625h3.828126v253.59375h-3.828126zm0 0" fill="none" stroke="#000" stroke-linejoin="round" stroke-miterlimit="10" stroke-width="3.98506" transform="matrix(.1 0 0 -.1 0 598.16)"/><path d="m78.160156 435.984375h.382813v-25.359375h-.382813zm0 0"/><use x="53.3742" xlink:href="#aj" y="476.892"/><use x="69.701966" xlink:href="#H" y="476.892"/><use x="80.586753" xlink:href="#L" y="476.892"/><use x="87.730125" xlink:href="#N" y="476.892"/><use x="67.8058" xlink:href="#al" y="438.3229"/><use x="112.0277" xlink:href="#K" y="476.892"/><use x="122.912481" xlink:href="#F" y="476.892"/><use x="35.098" xlink:href="#ao" y="430.3529"/><use x="42.30152" xlink:href="#ao" y="418.3974"/><use x="6.37612" xlink:href="#ap" y="438.3228"/><path d="m2245.585938 1536.326562h3.828124v259.296875h-3.828124zm0 0" fill="none" stroke="#000" stroke-linejoin="round" stroke-miterlimit="10" stroke-width="3.98506" transform="matrix(.1 0 0 -.1 0 598.16)"/><path d="m224.558594 444.527344h.382812v-25.929688h-.382812zm0 0"/><use x="204.373" xlink:href="#ae" y="476.892"/><use x="213.727695" xlink:href="#H" y="476.892"/><use x="224.612489" xlink:href="#W" y="476.892"/><use x="214.7312" xlink:href="#ak" y="446.2932"/><use x="257.98" xlink:href="#ak" y="454.26312"/><use x="250.68352" xlink:href="#ah" y="476.89202"/><use x="261.568314" xlink:href="#T" y="476.89202"/><use x="265.820286" xlink:href="#G" y="476.89202"/><path d="m1774.375 1621.75625h3.828125v253.59375h-3.828125zm0 0" fill="none" stroke="#000" stroke-linejoin="round" stroke-miterlimit="10" stroke-width="3.98506" transform="matrix(.1 0 0 -.1 0 598.16)"/><path d="m177.4375 435.984375h.382812v-25.359375h-.382812zm0 0"/><path d="m2678.046875 1456.639062h3.828125v259.296875h-3.828125zm0 0" fill="none" stroke="#000" stroke-linejoin="round" stroke-miterlimit="10" stroke-width="3.98506" transform="matrix(.1 0 0 -.1 0 598.16)"/><path d="m267.804688 452.496094h.382812v-25.929688h-.382812zm0 0"/><use x="161.667" xlink:href="#F" y="476.892"/><use x="172.551781" xlink:href="#K" y="476.892"/><use x="167.08458" xlink:href="#al" y="438.3229"/><g clip-path="url(#z)"><path d="m3.007812 562.264062h5946.757813" style="fill:none;stroke-width:6.00947;stroke-linecap:round;stroke-linejoin:round;stroke:#000;stroke-miterlimit:10" transform="matrix(.1 0 0 -.1 0 598.16)"/></g><g clip-path="url(#A)"><path d="m3.007812 641.951562h5946.757813" style="fill:none;stroke-width:6.00947;stroke-linecap:round;stroke-linejoin:round;stroke:#000;stroke-miterlimit:10" transform="matrix(.1 0 0 -.1 0 598.16)"/></g><g clip-path="url(#B)"><path d="m3.007812 721.678125h5946.757813" style="fill:none;stroke-width:6.00947;stroke-linecap:round;stroke-linejoin:round;stroke:#000;stroke-miterlimit:10" transform="matrix(.1 0 0 -.1 0 598.16)"/></g><g clip-path="url(#C)"><path d="m3.007812 801.365625h5946.757813" style="fill:none;stroke-width:6.00947;stroke-linecap:round;stroke-linejoin:round;stroke:#000;stroke-miterlimit:10" transform="matrix(.1 0 0 -.1 0 598.16)"/></g><g clip-path="url(#D)"><path d="m3.007812 881.053125h5946.757813" style="fill:none;stroke-width:6.00947;stroke-linecap:round;stroke-linejoin:round;stroke:#000;stroke-miterlimit:10" transform="matrix(.1 0 0 -.1 0 598.16)"/></g><path d="m5230.898438 482.576562h223.75" style="fill:none;stroke-width:13.9796;stroke-linecap:round;stroke-linejoin:round;stroke:#000;stroke-miterlimit:10" transform="matrix(.1 0 0 -.1 0 598.16)"/><path d="m3675.195312 482.576562h142.148438" style="fill:none;stroke-width:13.9796;stroke-linecap:round;stroke-linejoin:round;stroke:#000;stroke-miterlimit:10" transform="matrix(.1 0 0 -.1 0 598.16)"/><g clip-path="url(#E)"><path d="m5934.726562 562.264062v318.789063" fill="none" stroke="#000" stroke-linejoin="round" stroke-miterlimit="10" stroke-width="36.0329" transform="matrix(.1 0 0 -.1 0 598.16)"/></g><path d="m5893.007812 562.264062v318.789063" fill="none" stroke="#000" stroke-linejoin="round" stroke-miterlimit="10" stroke-width="11.4132" transform="matrix(.1 0 0 -.1 0 598.16)"/><path d="m4834.765625 545.779687h3.828125v253.59375h-3.828125zm0 0" fill="none" stroke="#000" stroke-linejoin="round" stroke-miterlimit="10" stroke-width="3.98506" transform="matrix(.1 0 0 -.1 0 598.16)"/><path d="m483.476562 543.582031h.382813v-25.359375h-.382813zm0 0"/><use x="467.705" xlink:href="#W" y="572.5327"/><use x="478.589794" xlink:href="#H" y="572.5327"/><use x="473.12219" xlink:href="#al" y="545.919"/><path d="m4302.421875 585.6625h3.828125v253.554687h-3.828125zm0 0" fill="none" stroke="#000" stroke-linejoin="round" stroke-miterlimit="10" stroke-width="3.98506" transform="matrix(.1 0 0 -.1 0 598.16)"/><path d="m430.242188 539.597656h.382812v-25.359375h-.382812zm0 0"/><use x="409.54" xlink:href="#I" y="572.5327"/><use x="425.867772" xlink:href="#ai" y="572.5327"/><use x="430.289276" xlink:href="#F" y="572.5327"/><use x="419.89" xlink:href="#al" y="541.9339"/><path d="m3792.5 500.232812h3.828125v259.296875h-3.828125zm0 0" fill="none" stroke="#000" stroke-linejoin="round" stroke-miterlimit="10" stroke-width="3.98506" transform="matrix(.1 0 0 -.1 0 598.16)"/><path d="m379.25 548.136719h.382812v-25.929688h-.382812zm0 0"/><use x="358.811" xlink:href="#F" y="572.5327"/><use x="369.695794" xlink:href="#Q" y="572.5327"/><use x="380.580587" xlink:href="#ae" y="572.5327"/><use x="369.4247" xlink:href="#ak" y="549.9042"/><path d="m3327.695312 619.764062h3.828126v259.296875h-3.828126zm0 0" fill="none" stroke="#000" stroke-linejoin="round" stroke-miterlimit="10" stroke-width="3.98506" transform="matrix(.1 0 0 -.1 0 598.16)"/><path d="m332.769531 536.183594h.382813v-25.929688h-.382813zm0 0"/><use x="314.625" xlink:href="#aa" y="572.5327"/><use x="325.509794" xlink:href="#Q" y="572.5327"/><use x="336.224664" xlink:href="#N" y="572.5327"/><use x="322.94258" xlink:href="#ak" y="537.9491"/><path d="m1477.890625 310.467187h47.773437v3.007813h-47.773437zm0 0" fill="none" stroke="#000" stroke-linejoin="round" stroke-miterlimit="10" stroke-width="4.80598" transform="matrix(.1 0 0 -.1 0 598.16)"/><path d="m147.785156 567.113281h4.78125v-.300781h-4.78125zm0 0"/><path d="m2032.1875 310.467187h47.8125v3.007813h-47.8125zm0 0" fill="none" stroke="#000" stroke-linejoin="round" stroke-miterlimit="10" stroke-width="4.80598" transform="matrix(.1 0 0 -.1 0 598.16)"/><path d="m203.21875 567.113281h4.78125v-.300781h-4.78125zm0 0"/><path d="m3019.882812 310.467187h47.773438v3.007813h-47.773438zm0 0" fill="none" stroke="#000" stroke-linejoin="round" stroke-miterlimit="10" stroke-width="4.80598" transform="matrix(.1 0 0 -.1 0 598.16)"/><path d="m301.988281 567.113281h4.777344v-.300781h-4.777344zm0 0"/><path d="m3478.476562 310.467187h47.8125v3.007813h-47.8125zm0 0" fill="none" stroke="#000" stroke-linejoin="round" stroke-miterlimit="10" stroke-width="4.80598" transform="matrix(.1 0 0 -.1 0 598.16)"/><path d="m347.847656 567.113281h4.78125v-.300781h-4.78125zm0 0"/><path d="m4520.507812 310.467187h47.773438v3.007813h-47.773438zm0 0" fill="none" stroke="#000" stroke-linejoin="round" stroke-miterlimit="10" stroke-width="4.80598" transform="matrix(.1 0 0 -.1 0 598.16)"/><path d="m452.050781 567.113281h4.777344v-.300781h-4.777344zm0 0"/><path d="m5002.578125 310.467187h47.8125v3.007813h-47.8125zm0 0" fill="none" stroke="#000" stroke-linejoin="round" stroke-miterlimit="10" stroke-width="4.80598" transform="matrix(.1 0 0 -.1 0 598.16)"/><path d="m500.257812 567.113281h4.78125v-.300781h-4.78125zm0 0"/><use x="515.825" xlink:href="#F" y="572.5327"/><use x="526.709794" xlink:href="#H" y="572.5327"/><use x="537.594587" xlink:href="#ae" y="572.5327"/><use x="547.289542" xlink:href="#af" y="572.5327"/><use x="526.3527" xlink:href="#ar" y="549.9042"/><use x="122.6687" xlink:href="#N" y="572.5327"/><use x="128.111683" xlink:href="#ai" y="572.5327"/><path d="m781.601562 665.35h3.828126v253.554687h-3.828126zm0 0" fill="none" stroke="#000" stroke-linejoin="round" stroke-miterlimit="10" stroke-width="3.98506" transform="matrix(.1 0 0 -.1 0 598.16)"/><path d="m78.160156 531.625h.382813v-25.355469h-.382813zm0 0"/><use x="60.1777" xlink:href="#aj" y="572.5327"/><use x="76.505075" xlink:href="#ai" y="572.5327"/><use x="80.926957" xlink:href="#N" y="572.5327"/><use x="67.80582" xlink:href="#al" y="533.9639"/><use x="122.13392" xlink:href="#al" y="522.0088"/><use x="35.09802" xlink:href="#ao" y="525.99396"/><use x="42.30154" xlink:href="#ao" y="514.03846"/><use x="6.37614" xlink:href="#ap" y="533.96386"/><path d="m2842.96875 579.920312h3.828125v259.296875h-3.828125zm0 0" fill="none" stroke="#000" stroke-linejoin="round" stroke-miterlimit="10" stroke-width="3.98506" transform="matrix(.1 0 0 -.1 0 598.16)"/><path d="m284.296875 540.167969h.378906v-25.929688h-.378906zm0 0"/><use x="265.216" xlink:href="#N" y="572.5327"/><use x="270.658592" xlink:href="#Q" y="572.5327"/><use x="281.543386" xlink:href="#L" y="572.5327"/><use x="288.687141" xlink:href="#N" y="572.5327"/><use x="274.46834" xlink:href="#ak" y="541.9339"/><path d="m2378.125 659.646875h3.828125v259.257812h-3.828125zm0 0" fill="none" stroke="#000" stroke-linejoin="round" stroke-miterlimit="10" stroke-width="3.98506" transform="matrix(.1 0 0 -.1 0 598.16)"/><path d="m237.8125 532.195312h.382812v-25.925781h-.382812zm0 0"/><use x="217.374" xlink:href="#F" y="572.5327"/><use x="228.258794" xlink:href="#Q" y="572.5327"/><use x="239.143587" xlink:href="#ae" y="572.5327"/><use x="227.9877" xlink:href="#ak" y="533.9639"/><path d="m1223.320312 484.56875h3.828126v253.554687h-3.828126zm0 0" fill="none" stroke="#000" stroke-linejoin="round" stroke-miterlimit="10" stroke-width="3.98506" transform="matrix(.1 0 0 -.1 0 598.16)"/><path d="m122.332031 549.703125h.382813v-25.355469h-.382813zm0 0"/><path d="m1755.625 458.00625h3.828125v240.273437h-3.828125zm0 0" fill="none" stroke="#000" stroke-linejoin="round" stroke-miterlimit="10" stroke-width="3.98506" transform="matrix(.1 0 0 -.1 0 598.16)"/><path d="m175.5625 552.363281h.382812v-24.03125h-.382812zm0 0"/><use x="167.822" xlink:href="#N" y="572.5327"/><use x="173.094278" xlink:href="#ah" y="572.5327"/><use x="183.97906" xlink:href="#ae" y="572.5327"/><use x="175.36497" xlink:href="#al" y="525.994"/></svg>