<svg height="656.68em" viewBox="0 0 595.28 656.68" width="595.28em" xmlns="http://www.w3.org/2000/svg" xmlns:xlink="http://www.w3.org/1999/xlink"><clipPath id="a"><path d="m0 69h595.28125v2h-595.28125zm0 0"/></clipPath><clipPath id="b"><path d="m0 60h595.28125v2h-595.28125zm0 0"/></clipPath><clipPath id="c"><path d="m0 51h595.28125v2h-595.28125zm0 0"/></clipPath><clipPath id="d"><path d="m0 43h595.28125v1h-595.28125zm0 0"/></clipPath><clipPath id="e"><path d="m0 34h595.28125v2h-595.28125zm0 0"/></clipPath><clipPath id="f"><path d="m0 174h595.28125v1h-595.28125zm0 0"/></clipPath><clipPath id="g"><path d="m0 165h595.28125v1h-595.28125zm0 0"/></clipPath><clipPath id="h"><path d="m0 156h595.28125v2h-595.28125zm0 0"/></clipPath><clipPath id="i"><path d="m0 147h595.28125v2h-595.28125zm0 0"/></clipPath><clipPath id="j"><path d="m0 139h595.28125v1h-595.28125zm0 0"/></clipPath><clipPath id="k"><path d="m0 278h595.28125v2h-595.28125zm0 0"/></clipPath><clipPath id="l"><path d="m0 269h595.28125v2h-595.28125zm0 0"/></clipPath><clipPath id="m"><path d="m0 261h595.28125v1h-595.28125zm0 0"/></clipPath><clipPath id="n"><path d="m0 252h595.28125v2h-595.28125zm0 0"/></clipPath><clipPath id="o"><path d="m0 243h595.28125v2h-595.28125zm0 0"/></clipPath><clipPath id="p"><path d="m0 383h595.28125v1h-595.28125zm0 0"/></clipPath><clipPath id="q"><path d="m0 374h595.28125v2h-595.28125zm0 0"/></clipPath><clipPath id="r"><path d="m0 365h595.28125v2h-595.28125zm0 0"/></clipPath><clipPath id="s"><path d="m0 357h595.28125v1h-595.28125zm0 0"/></clipPath><clipPath id="t"><path d="m0 348h595.28125v1h-595.28125zm0 0"/></clipPath><clipPath id="u"><path d="m0 487h595.28125v2h-595.28125zm0 0"/></clipPath><clipPath id="v"><path d="m0 479h595.28125v1h-595.28125zm0 0"/></clipPath><clipPath id="w"><path d="m0 470h595.28125v2h-595.28125zm0 0"/></clipPath><clipPath id="x"><path d="m0 461h595.28125v2h-595.28125zm0 0"/></clipPath><clipPath id="y"><path d="m0 452h595.28125v2h-595.28125zm0 0"/></clipPath><clipPath id="z"><path d="m0 592h595.28125v2h-595.28125zm0 0"/></clipPath><clipPath id="A"><path d="m0 583h595.28125v2h-595.28125zm0 0"/></clipPath><clipPath id="B"><path d="m0 575h595.28125v1h-595.28125zm0 0"/></clipPath><clipPath id="C"><path d="m0 566h595.28125v1h-595.28125zm0 0"/></clipPath><clipPath id="D"><path d="m0 557h595.28125v2h-595.28125zm0 0"/></clipPath><clipPath id="E"><path d="m591 556h4.28125v39h-4.28125zm0 0"/></clipPath><symbol id="F" overflow="visible"><path d="m11.046875-5.03125c0-1.734375-.125-2.765625-.453125-3.609375-.734375-1.84375-2.453125-2.96875-4.5625-2.96875-3.140625 0-5.171875 2.390625-5.171875 6.125 0 3.71875 1.9375 5.984375 5.125 5.984375 2.578125 0 4.375-1.46875 4.828125-3.921875h-1.8125c-.5 1.484375-1.5 2.265625-2.953125 2.265625-1.140625 0-2.109375-.515625-2.703125-1.46875-.4375-.640625-.59375-1.296875-.609375-2.40625zm-8.265625-1.46875c.140625-2.09375 1.421875-3.453125 3.21875-3.453125 1.84375 0 3.109375 1.421875 3.109375 3.453125zm0 0"/></symbol><symbol id="G" overflow="visible"><path d="m1.5-11.28125v11.28125h1.8125v-6.21875c0-2.3125 1.203125-3.8125 3.0625-3.8125 1.421875 0 2.328125.859375 2.328125 2.21875v7.8125h1.78125v-8.53125c0-1.875-1.390625-3.078125-3.578125-3.078125-1.671875 0-2.75.65625-3.734375 2.21875v-1.890625zm0 0"/></symbol><symbol id="H" overflow="visible"><path d="m3.03125-15.703125h-1.78125v15.703125h1.78125v-4.390625l1.75-1.71875 3.8125 6.109375h2.21875l-4.609375-7.390625 3.921875-3.890625h-2.3125l-4.78125 4.78125zm0 0"/></symbol><symbol id="I" overflow="visible"><path d="m10.375 0v-11.28125h-1.78125v6.390625c0 2.3125-1.203125 3.8125-3.078125 3.8125-1.421875 0-2.328125-.859375-2.328125-2.21875v-7.984375h-1.78125v8.703125c0 1.875 1.390625 3.078125 3.59375 3.078125 1.65625 0 2.703125-.59375 3.765625-2.078125v1.578125zm-5.09375-15.390625h-2.25v2.21875h2.25zm3.484375 0h-2.234375v2.21875h2.234375zm0 0"/></symbol><symbol id="J" overflow="visible"><path d="m1.5-11.28125v11.28125h1.8125v-7.078125c0-1.640625 1.1875-2.953125 2.65625-2.953125 1.328125 0 2.078125.8125 2.078125 2.265625v7.765625h1.8125v-7.078125c0-1.640625 1.1875-2.953125 2.65625-2.953125 1.3125 0 2.078125.84375 2.078125 2.265625v7.765625h1.8125v-8.46875c0-2.015625-1.15625-3.140625-3.265625-3.140625-1.515625 0-2.421875.453125-3.46875 1.71875-.671875-1.203125-1.578125-1.71875-3.046875-1.71875-1.5 0-2.515625.5625-3.453125 1.921875v-1.59375zm0 0"/></symbol><symbol id="K" overflow="visible"><path d="m8.703125-11.28125v1.640625c-.90625-1.359375-1.90625-1.96875-3.3125-1.96875-2.75 0-4.640625 2.546875-4.640625 6.15625 0 1.90625.453125 3.28125 1.421875 4.421875.84375.984375 1.921875 1.53125 3.078125 1.53125 1.359375 0 2.328125-.609375 3.28125-2.03125v.578125c0 3.015625-.84375 4.140625-3.078125 4.140625-1.53125 0-2.328125-.609375-2.5-1.890625h-1.828125c.171875 2.078125 1.828125 3.390625 4.28125 3.390625 1.65625 0 3.03125-.53125 3.765625-1.4375.859375-1.046875 1.1875-2.453125 1.1875-5.109375v-9.421875zm-3.140625 1.328125c1.890625 0 2.96875 1.59375 2.96875 4.46875 0 2.734375-1.109375 4.328125-2.96875 4.328125s-2.9375-1.625-2.9375-4.40625c0-2.75 1.078125-4.390625 2.9375-4.390625zm0 0"/></symbol><symbol id="L" overflow="visible"><path d="m10.65625-15.703125h-1.78125v5.84375c-.75-1.140625-1.96875-1.75-3.46875-1.75-2.9375 0-4.84375 2.34375-4.84375 5.953125 0 3.796875 1.84375 6.15625 4.90625 6.15625 1.546875 0 2.625-.59375 3.59375-1.984375v1.484375h1.59375zm-4.953125 5.78125c1.9375 0 3.171875 1.703125 3.171875 4.40625 0 2.609375-1.25 4.328125-3.140625 4.328125-1.984375 0-3.296875-1.734375-3.296875-4.375 0-2.625 1.3125-4.359375 3.265625-4.359375zm0 0"/></symbol><symbol id="M" overflow="visible"><path d="m1.875-2.234375v2.234375h1.296875v.390625c0 1.484375-.28125 1.90625-1.296875 1.953125v.828125c1.421875.03125 2.265625-1 2.265625-2.828125v-2.578125zm0 0"/></symbol><symbol id="N" overflow="visible"><path d="m13.90625-15.703125h-1.890625v12.84375l-8.203125-12.84375h-2.171875v15.703125h1.890625v-12.71875l8.125 12.71875h2.25zm0 0"/></symbol><symbol id="O" overflow="visible"><path d="m1.484375-11.28125v11.28125h1.8125v-5.859375c.015625-2.703125 1.140625-3.921875 3.609375-3.84375v-1.84375c-.296875-.03125-.46875-.0625-.6875-.0625-1.15625 0-2.046875.6875-3.078125 2.375v-2.046875zm0 0"/></symbol><symbol id="P" overflow="visible"><path d="m11.515625-1.0625c-.1875.046875-.28125.046875-.390625.046875-.625 0-.96875-.3125-.96875-.875v-6.640625c0-2-1.453125-3.078125-4.234375-3.078125-1.65625 0-2.96875.484375-3.75 1.3125-.515625.59375-.734375 1.234375-.765625 2.359375h1.796875c.15625-1.390625.96875-2.015625 2.65625-2.015625 1.640625 0 2.515625.609375 2.515625 1.6875v.46875c-.015625.78125-.40625 1.0625-1.875 1.25-2.53125.328125-2.921875.40625-3.609375.6875-1.3125.5625-1.984375 1.546875-1.984375 3.015625 0 2.046875 1.421875 3.34375 3.703125 3.34375 1.421875 0 2.5625-.5 3.828125-1.65625.125 1.15625.6875 1.65625 1.859375 1.65625.375 0 .625-.046875 1.21875-.203125zm-3.140625-2.484375c0 .59375-.171875.96875-.703125 1.453125-.734375.671875-1.625 1.015625-2.671875 1.015625-1.40625 0-2.21875-.671875-2.21875-1.8125 0-1.171875.765625-1.78125 2.703125-2.0625 1.921875-.25 2.28125-.34375 2.890625-.625zm0 0"/></symbol><symbol id="Q" overflow="visible"><path d="m11.890625-15.703125v11.03125c0 2.109375-1.53125 3.40625-4.046875 3.40625-1.171875 0-2.109375-.28125-2.875-.828125-.765625-.59375-1.140625-1.390625-1.140625-2.578125v-11.03125h-2v11.03125c0 3.1875 2.28125 5.171875 6.015625 5.171875 3.671875 0 6.046875-2.03125 6.046875-5.171875v-11.03125zm0 0"/></symbol><symbol id="R" overflow="visible"><path d="m10.140625-7.5c-.078125-1.09375-.328125-1.796875-.75-2.421875-.78125-1.0625-2.140625-1.6875-3.703125-1.6875-3.0625 0-5.015625 2.421875-5.015625 6.15625 0 3.640625 1.9375 5.953125 4.984375 5.953125 2.703125 0 4.40625-1.625 4.609375-4.375h-1.796875c-.3125 1.8125-1.234375 2.71875-2.765625 2.71875-1.984375 0-3.15625-1.625-3.15625-4.296875 0-2.8125 1.15625-4.5 3.109375-4.5 1.515625 0 2.46875.890625 2.671875 2.453125zm0 0"/></symbol><symbol id="S" overflow="visible"><path d="m9.4375-8.140625c-.03125-2.21875-1.5-3.46875-4.09375-3.46875-2.625 0-4.328125 1.359375-4.328125 3.453125 0 1.765625.90625 2.59375 3.578125 3.25l1.671875.40625c1.25.296875 1.75.75 1.75 1.546875 0 1.078125-1.0625 1.796875-2.625 1.796875-.984375 0-1.796875-.28125-2.25-.765625-.28125-.3125-.40625-.640625-.515625-1.4375h-1.890625c.078125 2.609375 1.546875 3.859375 4.5 3.859375 2.84375 0 4.65625-1.40625 4.65625-3.578125 0-1.6875-.953125-2.609375-3.1875-3.140625l-1.734375-.40625c-1.453125-.34375-2.078125-.828125-2.078125-1.625 0-1.046875.921875-1.703125 2.390625-1.703125 1.4375 0 2.21875.625 2.25 1.8125zm0 0"/></symbol><symbol id="T" overflow="visible"><path d="m5.859375-11.609375c-3.1875 0-5.078125 2.265625-5.078125 6.046875 0 3.8125 1.890625 6.0625 5.09375 6.0625 3.1875 0 5.109375-2.265625 5.109375-5.96875 0-3.921875-1.859375-6.140625-5.125-6.140625zm.015625 1.65625c2.03125 0 3.234375 1.65625 3.234375 4.46875 0 2.65625-1.25 4.328125-3.234375 4.328125-2 0-3.234375-1.671875-3.234375-4.40625s1.234375-4.390625 3.234375-4.390625zm-.703125-5.984375-2.09375 3.234375h1.296875l3.203125-3.234375zm3.734375 0-2.078125 3.234375h1.296875l3.203125-3.234375zm0 0"/></symbol><symbol id="U" overflow="visible"><path d="m11.046875-5.03125c0-1.734375-.125-2.765625-.453125-3.609375-.734375-1.84375-2.453125-2.96875-4.5625-2.96875-3.140625 0-5.171875 2.390625-5.171875 6.125 0 3.71875 1.9375 5.984375 5.125 5.984375 2.578125 0 4.375-1.46875 4.828125-3.921875h-1.8125c-.5 1.484375-1.5 2.265625-2.953125 2.265625-1.140625 0-2.109375-.515625-2.703125-1.46875-.4375-.640625-.59375-1.296875-.609375-2.40625zm-8.265625-1.46875c.140625-2.09375 1.421875-3.453125 3.21875-3.453125 1.84375 0 3.109375 1.421875 3.109375 3.453125zm3.84375-9.4375-2.0625 3.1875h1.296875l3.203125-3.1875zm0 0"/></symbol><symbol id="V" overflow="visible"><path d="m3.234375-11.28125h-1.796875v11.28125h1.796875zm0-4.421875h-1.8125v2.265625h1.8125zm0 0"/></symbol><symbol id="W" overflow="visible"><path d="m5.46875-11.28125h-1.84375v-3.109375h-1.796875v3.109375h-1.53125v1.46875h1.53125v8.515625c0 1.171875.78125 1.796875 2.171875 1.796875.484375 0 .859375-.046875 1.46875-.15625v-1.5c-.265625.0625-.5.078125-.859375.078125-.78125 0-.984375-.21875-.984375-1.015625v-7.71875h1.84375zm0 0"/></symbol><symbol id="X" overflow="visible"><path d="m11.859375-7.140625v7.140625h2v-15.703125h-2v6.796875h-8.0625v-6.796875h-2.015625v15.703125h2.015625v-7.140625zm0 0"/></symbol><symbol id="Y" overflow="visible"><path d="m6.140625 0 4.328125-11.28125h-2.03125l-3.1875 9.15625-3.015625-9.15625h-2.015625l3.953125 11.28125zm0 0"/></symbol><symbol id="Z" overflow="visible"><path d="m1.5-11.28125v12.921875c0 1.109375-.34375 1.484375-1.453125 1.484375-.140625 0-.203125 0-.4375-.03125v1.53125c.21875.046875.328125.0625.609375.0625 2.015625 0 3.078125-.796875 3.078125-2.34375v-13.625zm1.796875-4.421875h-1.796875v2.265625h1.796875zm0 0"/></symbol><symbol id="aa" overflow="visible"><path d="m4.484375-15.703125h-1.796875v7.28125l.484375 4.796875h.828125l.484375-4.796875zm0 13.46875h-1.8125v2.234375h1.8125zm0 0"/></symbol><symbol id="ab" overflow="visible"><path d="m1.5-15.703125v15.703125h1.796875v-6.21875c0-2.3125 1.203125-3.8125 3.0625-3.8125.59375 0 1.15625.171875 1.578125.5.53125.375.734375.921875.734375 1.71875v7.8125h1.796875v-8.53125c0-1.890625-1.359375-3.078125-3.5625-3.078125-1.59375 0-2.5625.5-3.609375 1.875v-5.96875zm0 0"/></symbol><symbol id="ac" overflow="visible"><path d="m10.375 0v-11.28125h-1.78125v6.390625c0 2.3125-1.203125 3.8125-3.078125 3.8125-1.421875 0-2.328125-.859375-2.328125-2.21875v-7.984375h-1.78125v8.703125c0 1.875 1.390625 3.078125 3.59375 3.078125 1.65625 0 2.703125-.59375 3.765625-2.078125v1.578125zm-5.140625-15.9375-2.0625 3.234375h1.28125l3.21875-3.234375zm3.75 0-2.078125 3.234375h1.296875l3.203125-3.234375zm0 0"/></symbol><symbol id="ad" overflow="visible"><path d="m10.203125-4.71875 1.625 4.71875h2.234375l-5.515625-15.703125h-2.578125l-5.609375 15.703125h2.140625l1.65625-4.71875zm-.5625-1.671875h-4.984375l2.578125-7.15625zm0 0"/></symbol><symbol id="ae" overflow="visible"><path d="m8.359375-11.28125-3.125 8.78125-2.890625-8.78125h-1.90625l3.796875 11.328125-.6875 1.78125c-.296875.796875-.6875 1.09375-1.4375 1.09375-.296875 0-.5625-.03125-.953125-.125v1.609375c.375.203125.734375.28125 1.21875.28125.578125 0 1.203125-.1875 1.671875-.53125.5625-.40625.890625-.890625 1.234375-1.78125l5.015625-13.65625zm0 0"/></symbol><symbol id="af" overflow="visible"><path d="m1.15625 4.6875h1.8125v-5.875c.953125 1.171875 2 1.6875 3.46875 1.6875 2.921875 0 4.828125-2.359375 4.828125-5.953125 0-3.78125-1.859375-6.15625-4.84375-6.15625-1.53125 0-2.765625.6875-3.59375 2.03125v-1.703125h-1.671875zm4.953125-14.609375c1.984375 0 3.28125 1.734375 3.28125 4.4375 0 2.5625-1.3125 4.296875-3.28125 4.296875-1.90625 0-3.140625-1.71875-3.140625-4.375 0-2.640625 1.234375-4.359375 3.140625-4.359375zm0 0"/></symbol><symbol id="ag" overflow="visible"><path d="m11.515625-1.0625c-.1875.046875-.28125.046875-.390625.046875-.625 0-.96875-.3125-.96875-.875v-6.640625c0-2-1.453125-3.078125-4.234375-3.078125-1.65625 0-2.96875.484375-3.75 1.3125-.515625.59375-.734375 1.234375-.765625 2.359375h1.796875c.15625-1.390625.96875-2.015625 2.65625-2.015625 1.640625 0 2.515625.609375 2.515625 1.6875v.46875c-.015625.78125-.40625 1.0625-1.875 1.25-2.53125.328125-2.921875.40625-3.609375.6875-1.3125.5625-1.984375 1.546875-1.984375 3.015625 0 2.046875 1.421875 3.34375 3.703125 3.34375 1.421875 0 2.5625-.5 3.828125-1.65625.125 1.15625.6875 1.65625 1.859375 1.65625.375 0 .625-.046875 1.21875-.203125zm-3.140625-2.484375c0 .59375-.171875.96875-.703125 1.453125-.734375.671875-1.625 1.015625-2.671875 1.015625-1.40625 0-2.21875-.671875-2.21875-1.8125 0-1.171875.765625-1.78125 2.703125-2.0625 1.921875-.25 2.28125-.34375 2.890625-.625zm-1.828125-12.390625-2.09375 3.1875h1.296875l3.203125-3.1875zm0 0"/></symbol><symbol id="ah" overflow="visible"><path d="m5.859375-11.609375c-3.1875 0-5.078125 2.265625-5.078125 6.046875 0 3.8125 1.890625 6.0625 5.09375 6.0625 3.1875 0 5.109375-2.265625 5.109375-5.96875 0-3.921875-1.859375-6.140625-5.125-6.140625zm.015625 1.65625c2.03125 0 3.234375 1.65625 3.234375 4.46875 0 2.65625-1.25 4.328125-3.234375 4.328125-2 0-3.234375-1.671875-3.234375-4.40625s1.234375-4.390625 3.234375-4.390625zm0 0"/></symbol><symbol id="ai" overflow="visible"><path d="m10.078125 0 4.40625-13.15625v13.15625h1.90625v-15.703125h-2.78125l-4.5625 13.671875-4.65625-13.671875h-2.78125v15.703125h1.90625v-13.15625l4.453125 13.15625zm0 0"/></symbol><symbol id="aj" overflow="visible"><path d="m10.375 0v-11.28125h-1.78125v6.390625c0 2.3125-1.203125 3.8125-3.078125 3.8125-1.421875 0-2.328125-.859375-2.328125-2.21875v-7.984375h-1.78125v8.703125c0 1.875 1.390625 3.078125 3.59375 3.078125 1.65625 0 2.703125-.59375 3.765625-2.078125v1.578125zm-4-15.9375-2.0625 3.1875h1.28125l3.21875-3.1875zm0 0"/></symbol><symbol id="ak" overflow="visible"><path d="m5.5625-11.28125h-1.875v-1.765625c0-.75.40625-1.140625 1.25-1.140625.140625 0 .203125 0 .625.015625v-1.484375c-.421875-.078125-.65625-.109375-1.015625-.109375-1.65625 0-2.65625.953125-2.65625 2.5625v1.921875h-1.5v1.46875h1.5v9.8125h1.796875v-9.8125h1.875zm0 0"/></symbol><symbol id="al" overflow="visible"><path d="m3.265625-15.703125h-1.796875v15.703125h1.796875zm0 0"/></symbol><symbol id="am" overflow="visible"><path d="m4.171875-15.703125h-2.015625v15.703125h2.015625zm0 0"/></symbol><symbol id="an" overflow="visible"><path d="m9.53125-11.28125h-8.40625v1.578125h6.28125l-6.734375 8.09375v1.609375h9.171875v-1.578125h-7l6.6875-8.109375zm0 0"/></symbol><symbol id="ao" overflow="visible"><path d="m4.609375-2.234375h-2.234375v2.234375h2.234375zm0-9.046875h-2.234375v2.234375h2.234375zm0 0"/></symbol><symbol id="ap" overflow="visible"><path d="m1.015625-2.234375v2.234375h1.03125c.015625 1.25-.28125 1.828125-1.03125 1.9375v.8125c1.28125-.078125 2-1.09375 2-2.8125v-2.171875zm3.4375 0v2.234375h1.03125c.03125 1.25-.28125 1.828125-1.03125 1.9375v.8125c1.296875-.078125 2-1.09375 2-2.8125v-2.171875zm0 0"/></symbol><symbol id="aq" overflow="visible"><path d="m7.109375-4.28125v-1.015625c.015625-.96875.3125-1.4375 1.703125-2.671875 1.609375-1.46875 2.140625-2.40625 2.140625-3.859375 0-2.515625-1.78125-4.125-4.578125-4.125-3.125 0-4.71875 1.703125-4.71875 5.03125h1.828125c0-2.3125.84375-3.359375 2.78125-3.359375 1.65625 0 2.75 1 2.75 2.453125 0 1-.46875 1.84375-1.609375 2.84375-1.828125 1.625-2.234375 2.25-2.234375 3.515625v1.1875zm0 2.046875h-1.9375v2.234375h1.9375zm0 0"/></symbol><symbol id="ar" overflow="visible"><path d="m1.0625-15.265625v2.234375h1.03125c.015625 1.25-.28125 1.828125-1.03125 1.9375v.828125c1.28125-.09375 2-1.109375 2-2.828125v-2.171875zm3.4375 0v2.234375h1.03125c.03125 1.25-.28125 1.828125-1.03125 1.9375v.828125c1.296875-.09375 2-1.109375 2-2.828125v-2.171875zm0 0"/></symbol><symbol id="as" overflow="visible"><path d="m3.703125-5.484375 2.5625-2.5625 5.53125 8.046875h2.375l-6.46875-9.296875 6.40625-6.40625h-2.59375l-7.8125 7.953125v-7.953125h-2v15.703125h2zm0 0"/></symbol><symbol id="at" overflow="visible"><path d="m7.75-4.703125c-1.46875 0-2.875.484375-4.125 1.25-1.640625.984375-3.625 2.6875-3.625 5.15625 0 2.0625 1.8125 3 3.65625 3 1.46875 0 2.859375-.484375 4.125-1.25 1.640625-.984375 3.59375-2.6875 3.59375-5.15625 0-2.0625-1.78125-3-3.625-3zm0 0"/></symbol><symbol id="au" overflow="visible"><path d="m11.015625-2.34375c0 .359375-.09375.734375-.34375 1.015625-.734375.875-2.40625 1.953125-3.734375 2.796875-1.328125.828125-3 1.953125-4.078125 2.265625-.140625.03125-.3125.0625-.453125.0625-.765625 0-1.46875-.59375-1.46875-1.453125 0-.359375.109375-.734375.359375-1.015625.71875-.875 2.40625-1.953125 3.71875-2.796875 1.328125-.828125 3-1.953125 4.09375-2.265625.125-.03125.3125-.0625.453125-.0625.765625 0 1.453125.59375 1.453125 1.453125zm-1.78125-2.359375c-2.609375 0-4.734375.546875-6.578125 1.8125-1.125.765625-1.859375 1.953125-2.265625 3.234375-.21875.625-.390625 1.328125-.390625 2 0 1.625 1.1875 2.359375 2.71875 2.359375 2.609375 0 4.75-.546875 6.59375-1.8125 1.109375-.765625 1.84375-1.953125 2.265625-3.234375.203125-.625.390625-1.328125.390625-2 0-1.625-1.1875-2.359375-2.734375-2.359375zm0 0"/></symbol><symbol id="av" overflow="visible"><path d="m-.796875 3.9375c0 1.890625 1.640625 5.203125 3.234375 7.125.21875.234375.5625-.078125.359375-.328125-.59375-.71875-.984375-2.125-.984375-3.34375 0-1.421875.421875-2.4375 1.8125-2.4375 1.25 0 2.890625.734375 3.5625 1.5.09375.140625.234375.171875.34375.171875.25 0 .484375-.25.484375-.484375 0-.109375-.03125-.171875-.09375-.28125l-3.046875-3.625c-.546875-.703125-.828125-1.5-.828125-2.34375 0-1.078125.453125-2.1875 1.359375-2.953125 1.296875-1.125 3-2.203125 3-3.359375 0-.28125-.109375-.59375-.34375-.859375l-5.3125-6.359375c-.09375-.140625-.234375-.171875-.34375-.171875-.25 0-.484375.25-.484375.484375 0 .109375.03125.21875.09375.3125l1.375 1.609375c.546875.703125.828125 1.5.828125 2.34375 0 1.078125-.453125 2.1875-1.359375 2.953125-1.296875 1.125-3 2.203125-3 3.359375 0 .28125.109375.59375.34375.859375l4.78125 5.734375c-1.5625-.78125-3.34375-1.296875-4.53125-1.296875-.90625 0-1.25.484375-1.25 1.390625zm0 0"/></symbol><symbol id="aw" overflow="visible"><path d="m.875-1.53125c.03125-1.15625.796875-2.171875 1.875-2.171875 1.046875 0 1.546875 1.234375 1.546875 2.40625 0 2.0625-1.75 3.53125-3.359375 4.859375-.0625-.765625-.140625-1.546875-.140625-2.3125 0-.140625.046875-.234375.046875-.375zm-1.75-14.609375.390625 20.890625c0 .40625.3125.71875.734375.71875.625 0 .90625-.71875 1.390625-1.109375 2.203125-1.78125 5.328125-3.03125 5.328125-5.890625 0-1.890625-1.390625-3.484375-3.234375-3.484375-1.125 0-2.171875.375-3.078125 1.046875l.21875-12.171875c-.28125-.140625-.5625-.25-.875-.25s-.59375.109375-.875.25zm0 0"/></symbol><symbol id="ax" overflow="visible"><path d="m13.046875-9.0625c-.5625-2.453125-1.21875-4.859375-1.921875-7.265625 3.34375-3.796875 6.375-7.703125 6.375-12.71875 0-3.9375-2.15625-9.59375-4.59375-12.53125-.171875-.125-.390625-.125-.5625 0-3.3125 2.40625-5.234375 6.25-5.234375 10.296875 0 1.8125.046875 3.59375.25 5.375.25 2.265625.84375 4.453125 1.46875 6.65625-4.125 4.671875-8.765625 9.140625-8.765625 15.34375 0 7.015625 5.0625 12.96875 11.625 12.96875 1.078125 0 2.09375-.09375 3.09375-.28125.109375 1.125.1875 2.234375.1875 3.359375 0 .625-.046875 1.21875-.078125 1.84375-.203125 3.453125-2.328125 6.625-5.578125 6.703125-.03125 0-.078125.03125-.109375.03125-1.78125 0-3.3125-1.015625-4.21875-2.4375.390625.171875.8125.3125 1.21875.3125 1.8125 0 3.3125-1.5 3.3125-3.3125 0-1.953125-1.421875-3.640625-3.3125-3.640625-2.046875 0-3.90625 1.609375-3.90625 3.640625 0 3.765625 3.03125 6.796875 6.8125 6.796875 4.109375 0 6.9375-3.703125 7.171875-7.890625.046875-.65625.046875-1.28125.046875-1.953125 0-1.25-.078125-2.5-.1875-3.765625.90625-.265625 1.78125-.6875 2.546875-1.28125 2.59375-1.921875 3.734375-4.609375 3.734375-7.25 0-4.609375-3.484375-9.046875-8.859375-9.046875-.171875 0-.34375.046875-.515625.046875zm2.953125 16.21875c-.484375-4.328125-1.28125-8.453125-2.15625-12.53125 3.84375.3125 6.25 3.53125 6.25 6.734375 0 2.4375-1.6875 4.953125-4.09375 5.796875zm-13.53125-8.234375c0-5.578125 3.78125-9.796875 7.546875-14.015625.546875 2.046875 1.109375 4.109375 1.59375 6.203125-3.515625.796875-5.5 3.765625-5.5 6.828125 0 2.453125 1.25 4.921875 4.046875 6.421875.09375.03125.203125.0625.3125.0625.375 0 .6875-.34375.6875-.71875 0-.1875-.09375-.359375-.234375-.5-1.953125-1.109375-2.859375-2.78125-2.859375-4.3125 0-2.0625 1.59375-3.90625 4.359375-4.21875.90625 4.171875 1.703125 8.328125 2.21875 12.796875-.9375.140625-1.875.203125-2.859375.203125-4.734375 0-9.3125-4.015625-9.3125-8.75zm11.859375-35.546875c.59375 1.859375.734375 2.765625.734375 4.78125 0 4.4375-2.328125 7.953125-5.1875 11.34375-.640625-2.203125-1.15625-4.328125-1.15625-6.984375 0-3.875 2.15625-7.390625 5.609375-9.140625zm0 0"/></symbol><symbol id="ay" overflow="visible"><path d="m12.796875 0c.140625 0 .28125-.140625.28125-.28125v-4.875c0-.140625-.140625-.28125-.28125-.28125h-12.515625c-.140625 0-.28125.140625-.28125.28125v4.875c0 .140625.140625.28125.28125.28125zm0 0"/></symbol><symbol id="az" overflow="visible"><path d="m7.5-3.96875c2.75 0 4.8125 2.125 4.8125 4.875 0 1.609375-.703125 3.0625-2.4375 3.0625-2.765625 0-4.859375-2.125-4.859375-4.875 0-1.609375.734375-3.0625 2.484375-3.0625zm9.828125 3.96875c0-1.5-1.21875-2.578125-2.546875-3.3125-1.875-1.015625-3.96875-1.390625-6.09375-1.390625s-4.265625.375-6.140625 1.390625c-1.328125.734375-2.546875 1.8125-2.546875 3.3125s1.21875 2.578125 2.546875 3.3125c1.875 1.015625 4.015625 1.390625 6.140625 1.390625s4.21875-.375 6.09375-1.390625c1.328125-.734375 2.546875-1.8125 2.546875-3.3125zm0 0"/></symbol><symbol id="aA" overflow="visible"><path d="m4.5625-9.375v9.375h2.6875v-13.59375h-1.78125c-.421875 1.609375-1.828125 2.4375-4.171875 2.4375v1.78125zm0 0"/></symbol><symbol id="aB" overflow="visible"><path d="m4.109375-2.796875h-2.875v2.796875h2.875zm0 0"/></symbol><symbol id="aC" overflow="visible"><path d="m7.796875-1.65625c0 .25-.078125.515625-.25.71875-.515625.609375-1.703125 1.375-2.640625 1.96875s-2.125 1.390625-2.890625 1.609375c-.09375.015625-.21875.046875-.3125.046875-.546875 0-1.03125-.421875-1.03125-1.03125 0-.25.0625-.515625.234375-.71875.53125-.609375 1.703125-1.375 2.640625-1.96875s2.125-1.390625 2.890625-1.609375c.09375-.015625.21875-.046875.3125-.046875.546875 0 1.046875.421875 1.046875 1.03125zm-1.265625-1.671875c-1.84375 0-3.34375.390625-4.65625 1.28125-.796875.546875-1.3125 1.375-1.609375 2.296875-.140625.4375-.265625.9375-.265625 1.40625 0 1.15625.84375 1.671875 1.921875 1.671875 1.84375 0 3.359375-.390625 4.65625-1.28125.796875-.546875 1.3125-1.375 1.609375-2.296875.140625-.4375.265625-.9375.265625-1.40625 0-1.15625-.828125-1.671875-1.921875-1.671875zm0 0"/></symbol><path d="m2629.453125 5782.503125h164.453125" fill="none" stroke="#000" stroke-linecap="round" stroke-miterlimit="10" stroke-width="14.9763" transform="matrix(.1 0 0 -.1 0 656.68)"/><g clip-path="url(#a)"><path d="m3.125 5869.690625h5946.523438" fill="none" stroke="#000" stroke-linecap="round" stroke-miterlimit="10" stroke-width="6.25903" transform="matrix(.1 0 0 -.1 0 656.68)"/></g><g clip-path="url(#b)"><path d="m3.125 5956.878125h5946.523438" fill="none" stroke="#000" stroke-linecap="round" stroke-miterlimit="10" stroke-width="6.25903" transform="matrix(.1 0 0 -.1 0 656.68)"/></g><g clip-path="url(#c)"><path d="m3.125 6044.026563h5946.523438" fill="none" stroke="#000" stroke-linecap="round" stroke-miterlimit="10" stroke-width="6.25903" transform="matrix(.1 0 0 -.1 0 656.68)"/></g><g clip-path="url(#d)"><path d="m3.125 6131.214063h5946.523438" fill="none" stroke="#000" stroke-linecap="round" stroke-miterlimit="10" stroke-width="6.25903" transform="matrix(.1 0 0 -.1 0 656.68)"/></g><g clip-path="url(#e)"><path d="m3.125 6218.401563h5946.523438" fill="none" stroke="#000" stroke-linecap="round" stroke-miterlimit="10" stroke-width="6.25903" transform="matrix(.1 0 0 -.1 0 656.68)"/></g><use x="458.939" xlink:href="#F" y="100.221"/><use x="470.844093" xlink:href="#G" y="100.221"/><use x="416.7644" xlink:href="#at" y="65.3519"/><use x="399.9203" xlink:href="#H" y="100.221"/><use x="410.46448" xlink:href="#I" y="100.221"/><use x="422.369963" xlink:href="#G" y="100.221"/><use x="434.275056" xlink:href="#H" y="100.221"/><path d="m4275.351562 5932.425h4.140626v283.984375h-4.140626zm0 0" style="fill:none;stroke-width:3.98381;stroke-linecap:round;stroke-linejoin:round;stroke:#000;stroke-miterlimit:10" transform="matrix(.1 0 0 -.1 0 656.68)"/><path d="m427.53125 63.4375h.417969v-28.398438h-.417969zm0 0"/><use x="465.153" xlink:href="#at" y="65.352"/><path d="m4759.21875 5932.425h4.140625v283.984375h-4.140625zm0 0" style="fill:none;stroke-width:3.98381;stroke-linecap:round;stroke-linejoin:round;stroke:#000;stroke-miterlimit:10" transform="matrix(.1 0 0 -.1 0 656.68)"/><path d="m475.921875 63.4375h.414063v-28.398438h-.414063zm0 0"/><use x="517.42" xlink:href="#au" y="60.993"/><path d="m3791.445312 5888.83125h4.179688v283.984375h-4.179688zm0 0" style="fill:none;stroke-width:3.98381;stroke-linecap:round;stroke-linejoin:round;stroke:#000;stroke-miterlimit:10" transform="matrix(.1 0 0 -.1 0 656.68)"/><path d="m379.144531 67.796875h.417969v-28.398437h-.417969zm0 0"/><use x="362.163" xlink:href="#G" y="100.221"/><use x="374.068093" xlink:href="#F" y="100.221"/><use x="368.37667" xlink:href="#at" y="69.7105"/><path d="m3324.570312 5888.83125h4.140626v283.984375h-4.140626zm0 0" style="fill:none;stroke-width:3.98381;stroke-linecap:round;stroke-linejoin:round;stroke:#000;stroke-miterlimit:10" transform="matrix(.1 0 0 -.1 0 656.68)"/><path d="m332.457031 67.796875h.414063v-28.398437h-.414063zm0 0"/><use x="306.545" xlink:href="#G" y="100.221"/><use x="318.450484" xlink:href="#F" y="100.221"/><use x="330.355577" xlink:href="#J" y="100.221"/><use x="321.688" xlink:href="#at" y="69.7105"/><path d="m1457.421875 5623.753125h52.5v3.125h-52.5zm0 0" style="fill:none;stroke-width:5.01245;stroke-linecap:round;stroke-linejoin:round;stroke:#000;stroke-miterlimit:10" transform="matrix(.1 0 0 -.1 0 656.68)"/><path d="m145.742188 94.304688h5.25v-.3125h-5.25zm0 0"/><path d="m2401.367188 5623.753125h52.539062v3.125h-52.539062zm0 0" style="fill:none;stroke-width:5.01245;stroke-linecap:round;stroke-linejoin:round;stroke:#000;stroke-miterlimit:10" transform="matrix(.1 0 0 -.1 0 656.68)"/><path d="m240.136719 94.304688h5.253906v-.3125h-5.253906zm0 0"/><path d="m3903.203125 5623.753125h52.5v3.125h-52.5zm0 0" style="fill:none;stroke-width:5.01245;stroke-linecap:round;stroke-linejoin:round;stroke:#000;stroke-miterlimit:10" transform="matrix(.1 0 0 -.1 0 656.68)"/><path d="m390.320312 94.304688h5.25v-.3125h-5.25zm0 0"/><path d="m4870.976562 5623.753125h52.539063v3.125h-52.539063zm0 0" style="fill:none;stroke-width:5.01245;stroke-linecap:round;stroke-linejoin:round;stroke:#000;stroke-miterlimit:10" transform="matrix(.1 0 0 -.1 0 656.68)"/><path d="m487.097656 94.304688h5.253906v-.3125h-5.253906zm0 0"/><use x="496.698" xlink:href="#K" y="100.221"/><use x="508.603093" xlink:href="#F" y="100.221"/><use x="520.508577" xlink:href="#L" y="100.221"/><use x="532.41367" xlink:href="#L" y="100.221"/><use x="544.148841" xlink:href="#M" y="100.221"/><use x="559.7031" xlink:href="#av" y="52.2761"/><path d="m5287.65625 5982.26875h4.140625v277.695313h-4.140625zm0 0" style="fill:none;stroke-width:3.98381;stroke-linecap:round;stroke-linejoin:round;stroke:#000;stroke-miterlimit:10" transform="matrix(.1 0 0 -.1 0 656.68)"/><path d="m528.765625 58.453125h.414063v-27.769531h-.414063zm0 0"/><use x="38.3883" xlink:href="#aw" y="52.276"/><use x="46.26721" xlink:href="#aw" y="39.1998"/><path d="m863.789062 5982.26875h4.179688v277.695313h-4.179688zm0 0" style="fill:none;stroke-width:3.98381;stroke-linecap:round;stroke-linejoin:round;stroke:#000;stroke-miterlimit:10" transform="matrix(.1 0 0 -.1 0 656.68)"/><path d="m86.378906 58.453125h.417969v-27.769531h-.417969zm0 0"/><use x="33.6891" xlink:href="#aA" y="100.221"/><use x="44.404309" xlink:href="#aB" y="100.221"/><use x="58.3938" xlink:href="#N" y="100.221"/><use x="73.871564" xlink:href="#F" y="100.221"/><use x="85.776663" xlink:href="#J" y="100.221"/><use x="6.9739" xlink:href="#ax" y="60.9933"/><path d="m743.671875 6312.776563h5.351563v165.703125h-5.351563zm0 0" style="fill:none;stroke-width:2.6675;stroke-linecap:round;stroke-linejoin:round;stroke:#000;stroke-miterlimit:10" transform="matrix(.1 0 0 -.1 0 656.68)"/><path d="m74.367188 25.402344h.53125v-16.570313h-.53125zm0 0"/><use x="66.5766" xlink:href="#aC" y="27.189"/><use x="75.03441" xlink:href="#au" y="60.9929"/><path d="m2765.3125 5807.89375h4.179688v277.734375h-4.179688zm0 0" style="fill:none;stroke-width:3.98381;stroke-linecap:round;stroke-linejoin:round;stroke:#000;stroke-miterlimit:10" transform="matrix(.1 0 0 -.1 0 656.68)"/><path d="m276.53125 75.890625h.417969v-27.773437h-.417969zm0 0"/><use x="249.738" xlink:href="#O" y="100.221"/><use x="256.880981" xlink:href="#P" y="100.221"/><use x="268.786074" xlink:href="#J" y="100.221"/><use x="286.644304" xlink:href="#M" y="100.221"/><use x="265.1876" xlink:href="#au" y="78.428"/><path d="m2334.179688 5982.26875h4.140624v277.695313h-4.140624zm0 0" style="fill:none;stroke-width:3.98381;stroke-linecap:round;stroke-linejoin:round;stroke:#000;stroke-miterlimit:10" transform="matrix(.1 0 0 -.1 0 656.68)"/><path d="m233.417969 58.453125h.414062v-27.769531h-.414062zm0 0"/><use x="220.313" xlink:href="#Q" y="100.221"/><use x="222.0712" xlink:href="#au" y="60.9933"/><path d="m1859.296875 6019.6125h4.179687v283.945313h-4.179687zm0 0" style="fill:none;stroke-width:3.98381;stroke-linecap:round;stroke-linejoin:round;stroke:#000;stroke-miterlimit:10" transform="matrix(.1 0 0 -.1 0 656.68)"/><path d="m185.929688 54.722656h.414062v-28.398437h-.414062zm0 0"/><use x="175.161" xlink:href="#at" y="56.635"/><use x="123.7958" xlink:href="#at" y="52.27641"/><use x="117.58213" xlink:href="#G" y="100.22131"/><use x="129.487626" xlink:href="#F" y="100.22131"/><path d="m1239.960938 5755.432813h4.140624v269.453125h-4.140624zm0 0" style="fill:none;stroke-width:3.98381;stroke-linecap:round;stroke-linejoin:round;stroke:#000;stroke-miterlimit:10" transform="matrix(.1 0 0 -.1 0 656.68)"/><path d="m123.996094 81.136719h.414062v-26.945313h-.414062zm0 0"/><use x="155.341" xlink:href="#H" y="100.221"/><use x="165.885559" xlink:href="#I" y="100.221"/><use x="177.791054" xlink:href="#G" y="100.221"/><use x="189.69616" xlink:href="#H" y="100.221"/><use x="200.411422" xlink:href="#M" y="100.221"/><g clip-path="url(#f)"><path d="m3.125 4823.635938h5946.523438" style="fill:none;stroke-width:6.25903;stroke-linecap:round;stroke-linejoin:round;stroke:#000;stroke-miterlimit:10" transform="matrix(.1 0 0 -.1 0 656.68)"/></g><g clip-path="url(#g)"><path d="m3.125 4910.784375h5946.523438" style="fill:none;stroke-width:6.25903;stroke-linecap:round;stroke-linejoin:round;stroke:#000;stroke-miterlimit:10" transform="matrix(.1 0 0 -.1 0 656.68)"/></g><g clip-path="url(#h)"><path d="m3.125 4997.971875h5946.523438" style="fill:none;stroke-width:6.25903;stroke-linecap:round;stroke-linejoin:round;stroke:#000;stroke-miterlimit:10" transform="matrix(.1 0 0 -.1 0 656.68)"/></g><g clip-path="url(#i)"><path d="m3.125 5085.159375h5946.523438" style="fill:none;stroke-width:6.25903;stroke-linecap:round;stroke-linejoin:round;stroke:#000;stroke-miterlimit:10" transform="matrix(.1 0 0 -.1 0 656.68)"/></g><g clip-path="url(#j)"><path d="m3.125 5172.307813h5946.523438" style="fill:none;stroke-width:6.25903;stroke-linecap:round;stroke-linejoin:round;stroke:#000;stroke-miterlimit:10" transform="matrix(.1 0 0 -.1 0 656.68)"/></g><use x="411.052" xlink:href="#R" y="204.829"/><use x="422.107509" xlink:href="#S" y="204.829"/><use x="432.822784" xlink:href="#T" y="204.829"/><path d="m4332.539062 4979.76875h4.179688v277.734375h-4.179688zm0 0" style="fill:none;stroke-width:3.98381;stroke-linecap:round;stroke-linejoin:round;stroke:#000;stroke-miterlimit:10" transform="matrix(.1 0 0 -.1 0 656.68)"/><path d="m433.253906 158.703125h.417969v-27.773437h-.417969zm0 0"/><use x="411.884" xlink:href="#aw" y="161.242"/><use x="464.0047" xlink:href="#au" y="169.95919"/><use x="458.67501" xlink:href="#S" y="204.82829"/><use x="469.390284" xlink:href="#U" y="204.82829"/><path d="m4753.515625 4892.58125h4.179687v277.734375h-4.179687zm0 0" style="fill:none;stroke-width:3.98381;stroke-linecap:round;stroke-linejoin:round;stroke:#000;stroke-miterlimit:10" transform="matrix(.1 0 0 -.1 0 656.68)"/><path d="m475.351562 167.421875h.414063v-27.773437h-.414063zm0 0"/><use x="421.909" xlink:href="#au" y="161.242"/><path d="m3930.117188 4929.925h4.179687v283.984375h-4.179687zm0 0" style="fill:none;stroke-width:3.98381;stroke-linecap:round;stroke-linejoin:round;stroke:#000;stroke-miterlimit:10" transform="matrix(.1 0 0 -.1 0 656.68)"/><path d="m393.011719 163.6875h.417969v-28.398438h-.417969zm0 0"/><use x="379.602" xlink:href="#L" y="204.829"/><use x="391.507093" xlink:href="#V" y="204.829"/><use x="382.24419" xlink:href="#at" y="165.6013"/><path d="m3428.984375 4709.378125h4.179687v269.453125h-4.179687zm0 0" style="fill:none;stroke-width:3.98381;stroke-linecap:round;stroke-linejoin:round;stroke:#000;stroke-miterlimit:10" transform="matrix(.1 0 0 -.1 0 656.68)"/><path d="m342.898438 185.742188h.417968v-26.945313h-.417968zm0 0"/><use x="331.128" xlink:href="#G" y="204.829"/><use x="343.033484" xlink:href="#F" y="204.829"/><use x="354.938577" xlink:href="#H" y="204.829"/><use x="342.7003" xlink:href="#at" y="156.8837"/><path d="m1344.570312 4577.698438h52.539063v3.125h-52.539063zm0 0" style="fill:none;stroke-width:5.01245;stroke-linecap:round;stroke-linejoin:round;stroke:#000;stroke-miterlimit:10" transform="matrix(.1 0 0 -.1 0 656.68)"/><path d="m134.457031 198.914062h5.25v-.3125h-5.25zm0 0"/><path d="m2733.945312 4577.698438h52.5v3.125h-52.5zm0 0" style="fill:none;stroke-width:5.01245;stroke-linecap:round;stroke-linejoin:round;stroke:#000;stroke-miterlimit:10" transform="matrix(.1 0 0 -.1 0 656.68)"/><path d="m273.394531 198.914062h5.25v-.3125h-5.25zm0 0"/><path d="m3215.273438 4577.698438h52.539062v3.125h-52.539062zm0 0" style="fill:none;stroke-width:5.01245;stroke-linecap:round;stroke-linejoin:round;stroke:#000;stroke-miterlimit:10" transform="matrix(.1 0 0 -.1 0 656.68)"/><path d="m321.527344 198.914062h5.25v-.3125h-5.25zm0 0"/><path d="m4010.351562 4577.698438h52.5v3.125h-52.5zm0 0" style="fill:none;stroke-width:5.01245;stroke-linecap:round;stroke-linejoin:round;stroke:#000;stroke-miterlimit:10" transform="matrix(.1 0 0 -.1 0 656.68)"/><path d="m401.035156 198.914062h5.25v-.3125h-5.25zm0 0"/><path d="m4490.742188 4577.698438h52.539062v3.125h-52.539062zm0 0" style="fill:none;stroke-width:5.01245;stroke-linecap:round;stroke-linejoin:round;stroke:#000;stroke-miterlimit:10" transform="matrix(.1 0 0 -.1 0 656.68)"/><path d="m449.074219 198.914062h5.253906v-.3125h-5.253906zm0 0"/><path d="m4859.0625 4577.698438h52.5v3.125h-52.5zm0 0" style="fill:none;stroke-width:5.01245;stroke-linecap:round;stroke-linejoin:round;stroke:#000;stroke-miterlimit:10" transform="matrix(.1 0 0 -.1 0 656.68)"/><path d="m485.902344 198.914062h5.253906v-.3125h-5.253906zm0 0"/><use x="507.39" xlink:href="#au" y="174.318"/><use x="550.7752" xlink:href="#ay" y="156.8832"/><path d="m5187.34375 4849.026563h4.179688v277.695312h-4.179688zm0 0" style="fill:none;stroke-width:3.98381;stroke-linecap:round;stroke-linejoin:round;stroke:#000;stroke-miterlimit:10" transform="matrix(.1 0 0 -.1 0 656.68)"/><path d="m518.734375 171.777344h.417969v-27.769532h-.417969zm0 0"/><use x="495.767" xlink:href="#K" y="204.829"/><use x="507.672484" xlink:href="#F" y="204.829"/><use x="519.407655" xlink:href="#W" y="204.829"/><use x="525.019795" xlink:href="#M" y="204.829"/><path d="m1214.960938 4929.925h4.140624v283.984375h-4.140624zm0 0" style="fill:none;stroke-width:3.98381;stroke-linecap:round;stroke-linejoin:round;stroke:#000;stroke-miterlimit:10" transform="matrix(.1 0 0 -.1 0 656.68)"/><path d="m121.496094 163.6875h.414062v-28.398438h-.414062zm0 0"/><use x="102.727" xlink:href="#X" y="204.829"/><use x="118.204379" xlink:href="#P" y="204.829"/><use x="110.727" xlink:href="#at" y="165.6013"/><use x="74.1629" xlink:href="#av" y="156.88372"/><path d="m2945.9375 4738.440625h4.179688v283.984375h-4.179688zm0 0" style="fill:none;stroke-width:3.98381;stroke-linecap:round;stroke-linejoin:round;stroke:#000;stroke-miterlimit:10" transform="matrix(.1 0 0 -.1 0 656.68)"/><path d="m294.59375 182.835938h.417969v-28.398438h-.417969zm0 0"/><use x="38.3883" xlink:href="#aw" y="156.884"/><use x="46.26721" xlink:href="#aw" y="143.8082"/><use x="6.97381" xlink:href="#ax" y="165.6016"/><use x="282.99481" xlink:href="#Y" y="204.8293"/><use x="293.369042" xlink:href="#F" y="204.8293"/><use x="305.274526" xlink:href="#L" y="204.8293"/><use x="294.39601" xlink:href="#at" y="152.5254"/><path d="m2516.484375 4738.440625h4.179687v283.984375h-4.179687zm0 0" style="fill:none;stroke-width:3.98381;stroke-linecap:round;stroke-linejoin:round;stroke:#000;stroke-miterlimit:10" transform="matrix(.1 0 0 -.1 0 656.68)"/><path d="m251.648438 182.835938h.417968v-28.398438h-.417968zm0 0"/><use x="245.236" xlink:href="#G" y="204.829"/><use x="257.141093" xlink:href="#F" y="204.829"/><use x="251.44967" xlink:href="#at" y="152.5251"/><path d="m2082.65625 4709.378125h4.140625v263.203125h-4.140625zm0 0" style="fill:none;stroke-width:3.98381;stroke-linecap:round;stroke-linejoin:round;stroke:#000;stroke-miterlimit:10" transform="matrix(.1 0 0 -.1 0 656.68)"/><path d="m208.265625 185.742188h.414063v-26.320313h-.414063zm0 0"/><use x="158.911" xlink:href="#au" y="156.884"/><use x="208.064509" xlink:href="#au" y="156.884"/><use x="144.0567" xlink:href="#G" y="204.8293"/><use x="155.961805" xlink:href="#F" y="204.8293"/><use x="167.867301" xlink:href="#J" y="204.8293"/><path d="m1591.09375 4709.378125h4.179688v263.203125h-4.179688zm0 0" style="fill:none;stroke-width:3.98381;stroke-linecap:round;stroke-linejoin:round;stroke:#000;stroke-miterlimit:10" transform="matrix(.1 0 0 -.1 0 656.68)"/><path d="m159.109375 185.742188h.417969v-26.320313h-.417969zm0 0"/><use x="199.673" xlink:href="#P" y="204.829"/><use x="211.578093" xlink:href="#L" y="204.829"/><use x="223.653499" xlink:href="#Z" y="204.829"/><g clip-path="url(#k)"><path d="m3.125 3777.542188h5946.523438" style="fill:none;stroke-width:6.25903;stroke-linecap:round;stroke-linejoin:round;stroke:#000;stroke-miterlimit:10" transform="matrix(.1 0 0 -.1 0 656.68)"/></g><g clip-path="url(#l)"><path d="m3.125 3864.690625h5946.523438" style="fill:none;stroke-width:6.25903;stroke-linecap:round;stroke-linejoin:round;stroke:#000;stroke-miterlimit:10" transform="matrix(.1 0 0 -.1 0 656.68)"/></g><g clip-path="url(#m)"><path d="m3.125 3951.878125h5946.523438" style="fill:none;stroke-width:6.25903;stroke-linecap:round;stroke-linejoin:round;stroke:#000;stroke-miterlimit:10" transform="matrix(.1 0 0 -.1 0 656.68)"/></g><g clip-path="url(#n)"><path d="m3.125 4039.065625h5946.523438" style="fill:none;stroke-width:6.25903;stroke-linecap:round;stroke-linejoin:round;stroke:#000;stroke-miterlimit:10" transform="matrix(.1 0 0 -.1 0 656.68)"/></g><g clip-path="url(#o)"><path d="m3.125 4126.214063h5946.523438" style="fill:none;stroke-width:6.25903;stroke-linecap:round;stroke-linejoin:round;stroke:#000;stroke-miterlimit:10" transform="matrix(.1 0 0 -.1 0 656.68)"/></g><path d="m4551.5625 3690.354688h164.414062" style="fill:none;stroke-width:14.9763;stroke-linecap:round;stroke-linejoin:round;stroke:#000;stroke-miterlimit:10" transform="matrix(.1 0 0 -.1 0 656.68)"/><path d="m3867.734375 3690.354688h164.414063" style="fill:none;stroke-width:14.9763;stroke-linecap:round;stroke-linejoin:round;stroke:#000;stroke-miterlimit:10" transform="matrix(.1 0 0 -.1 0 656.68)"/><use x="389.014" xlink:href="#au" y="287.643"/><path d="m4687.421875 3672.151563h4.140625v277.734375h-4.140625zm0 0" fill="none" stroke="#000" stroke-linejoin="round" stroke-miterlimit="10" stroke-width="3.98381" transform="matrix(.1 0 0 -.1 0 656.68)"/><path d="m468.742188 289.464844h.414062v-27.773438h-.414062zm0 0"/><use x="441.947" xlink:href="#L" y="316.989"/><use x="453.852093" xlink:href="#U" y="316.989"/><use x="465.757186" xlink:href="#O" y="316.989"/><use x="473.581026" xlink:href="#W" y="316.989"/><use x="478.853323" xlink:href="#aa" y="316.989"/><use x="457.3966" xlink:href="#au" y="292.0015"/><path d="m2776.367188 3753.089063h4.179687v283.984375h-4.179687zm0 0" fill="none" stroke="#000" stroke-linejoin="round" stroke-miterlimit="10" stroke-width="3.98381" transform="matrix(.1 0 0 -.1 0 656.68)"/><path d="m277.636719 281.371094h.417969v-28.398438h-.417969zm0 0"/><path d="m4003.59375 3715.745313h4.179688v277.734375h-4.179688zm0 0" fill="none" stroke="#000" stroke-linejoin="round" stroke-miterlimit="10" stroke-width="3.98381" transform="matrix(.1 0 0 -.1 0 656.68)"/><path d="m400.359375 285.105469h.417969v-27.773438h-.417969zm0 0"/><use x="383.089" xlink:href="#K" y="316.989"/><use x="394.994484" xlink:href="#F" y="316.989"/><path d="m3398.007812 3796.682813h4.140626v283.984375h-4.140626zm0 0" fill="none" stroke="#000" stroke-linejoin="round" stroke-miterlimit="10" stroke-width="3.98381" transform="matrix(.1 0 0 -.1 0 656.68)"/><path d="m339.800781 277.011719h.414063v-28.398438h-.414063zm0 0"/><use x="323.413" xlink:href="#S" y="316.989"/><use x="334.12864" xlink:href="#U" y="316.989"/><use x="329.03136" xlink:href="#at" y="278.9257"/><path d="m3013.125 3456.057813h52.539062v3.125h-52.539062zm0 0" fill="none" stroke="#000" stroke-linejoin="round" stroke-miterlimit="10" stroke-width="5.01245" transform="matrix(.1 0 0 -.1 0 656.68)"/><path d="m301.3125 311.074219h5.253906v-.3125h-5.253906zm0 0"/><path d="m3619.335938 3456.057813h52.539062v3.125h-52.539062zm0 0" fill="none" stroke="#000" stroke-linejoin="round" stroke-miterlimit="10" stroke-width="5.01245" transform="matrix(.1 0 0 -.1 0 656.68)"/><path d="m361.933594 311.074219h5.253906v-.3125h-5.253906zm0 0"/><path d="m4217.96875 3456.057813h52.5v3.125h-52.5zm0 0" fill="none" stroke="#000" stroke-linejoin="round" stroke-miterlimit="10" stroke-width="5.01245" transform="matrix(.1 0 0 -.1 0 656.68)"/><path d="m421.796875 311.074219h5.25v-.3125h-5.25zm0 0"/><use x="525.779" xlink:href="#ay" y="261.491"/><use x="6.974" xlink:href="#ax" y="270.20858"/><path d="m855.078125 3890.120313h4.140625v277.734375h-4.140625zm0 0" fill="none" stroke="#000" stroke-linejoin="round" stroke-miterlimit="10" stroke-width="3.98381" transform="matrix(.1 0 0 -.1 0 656.68)"/><path d="m85.507812 267.667969h.414063v-27.769531h-.414063zm0 0"/><use x="260.655" xlink:href="#ab" y="316.989"/><use x="272.560093" xlink:href="#ac" y="316.989"/><use x="74.162" xlink:href="#au" y="270.2085"/><use x="38.3878" xlink:href="#aw" y="261.49092"/><use x="46.26671" xlink:href="#aw" y="248.41512"/><use x="72.99911" xlink:href="#ad" y="316.98892"/><use x="266.86911" xlink:href="#at" y="283.28422"/><path d="m2154.765625 3796.682813h4.140625v283.984375h-4.140625zm0 0" fill="none" stroke="#000" stroke-linejoin="round" stroke-miterlimit="10" stroke-width="3.98381" transform="matrix(.1 0 0 -.1 0 656.68)"/><path d="m215.476562 277.011719h.414063v-28.398438h-.414063zm0 0"/><use x="187.352" xlink:href="#G" y="316.989"/><use x="199.257496" xlink:href="#P" y="316.989"/><use x="210.992668" xlink:href="#K" y="316.989"/><use x="222.727839" xlink:href="#ae" y="316.989"/><use x="204.7067" xlink:href="#at" y="278.9257"/><path d="m1533.125 3840.276563h4.179688v283.984375h-4.179688zm0 0" fill="none" stroke="#000" stroke-linejoin="round" stroke-miterlimit="10" stroke-width="3.98381" transform="matrix(.1 0 0 -.1 0 656.68)"/><path d="m153.3125 272.652344h.417969v-28.398438h-.417969zm0 0"/><use x="139.477" xlink:href="#W" y="316.989"/><use x="145.089116" xlink:href="#F" y="316.989"/><use x="142.54458" xlink:href="#at" y="274.5671"/><g clip-path="url(#p)"><path d="m3.125 2731.448438h5946.523438" style="fill:none;stroke-width:6.25903;stroke-linecap:round;stroke-linejoin:round;stroke:#000;stroke-miterlimit:10" transform="matrix(.1 0 0 -.1 0 656.68)"/></g><g clip-path="url(#q)"><path d="m3.125 2818.635938h5946.523438" style="fill:none;stroke-width:6.25903;stroke-linecap:round;stroke-linejoin:round;stroke:#000;stroke-miterlimit:10" transform="matrix(.1 0 0 -.1 0 656.68)"/></g><g clip-path="url(#r)"><path d="m3.125 2905.823438h5946.523438" style="fill:none;stroke-width:6.25903;stroke-linecap:round;stroke-linejoin:round;stroke:#000;stroke-miterlimit:10" transform="matrix(.1 0 0 -.1 0 656.68)"/></g><g clip-path="url(#s)"><path d="m3.125 2992.971875h5946.523438" style="fill:none;stroke-width:6.25903;stroke-linecap:round;stroke-linejoin:round;stroke:#000;stroke-miterlimit:10" transform="matrix(.1 0 0 -.1 0 656.68)"/></g><g clip-path="url(#t)"><path d="m3.125 3080.159375h5946.523438" style="fill:none;stroke-width:6.25903;stroke-linecap:round;stroke-linejoin:round;stroke:#000;stroke-miterlimit:10" transform="matrix(.1 0 0 -.1 0 656.68)"/></g><path d="m4023.867188 2617.229688h4.140624v269.414062h-4.140624zm0 0" style="fill:none;stroke-width:3.98381;stroke-linecap:round;stroke-linejoin:round;stroke:#000;stroke-miterlimit:10" transform="matrix(.1 0 0 -.1 0 656.68)"/><path d="m402.386719 394.957031h.414062v-26.941406h-.414062zm0 0"/><use x="482.63" xlink:href="#af" y="415.446"/><use x="494.535093" xlink:href="#F" y="415.446"/><use x="506.440186" xlink:href="#H" y="415.446"/><use x="517.15546" xlink:href="#M" y="415.446"/><use x="451.0847" xlink:href="#at" y="370.4577"/><use x="444.87064" xlink:href="#G" y="415.446"/><use x="456.776124" xlink:href="#U" y="415.446"/><path d="m4618.515625 2881.370313h4.179687v283.984375h-4.179687zm0 0" style="fill:none;stroke-width:3.98381;stroke-linecap:round;stroke-linejoin:round;stroke:#000;stroke-miterlimit:10" transform="matrix(.1 0 0 -.1 0 656.68)"/><path d="m461.851562 368.542969h.417969v-28.394531h-.417969zm0 0"/><use x="496.888" xlink:href="#au" y="374.816"/><use x="308.895" xlink:href="#at" y="366.09881"/><use x="384.8313" xlink:href="#K" y="415.44571"/><use x="396.736784" xlink:href="#ag" y="415.44571"/><use x="408.641877" xlink:href="#G" y="415.44571"/><use x="420.207125" xlink:href="#ae" y="415.44571"/><use x="402.1848" xlink:href="#at" y="366.09881"/><path d="m3534.84375 2646.292188h4.179688v283.984375h-4.179688zm0 0" style="fill:none;stroke-width:3.98381;stroke-linecap:round;stroke-linejoin:round;stroke:#000;stroke-miterlimit:10" transform="matrix(.1 0 0 -.1 0 656.68)"/><path d="m353.484375 392.050781h.417969v-28.398437h-.417969zm0 0"/><use x="347.073" xlink:href="#af" y="415.446"/><use x="358.978484" xlink:href="#ah" y="415.446"/><use x="353.28667" xlink:href="#at" y="361.7405"/><path d="m3090.9375 2617.229688h4.179688v269.414062h-4.179688zm0 0" style="fill:none;stroke-width:3.98381;stroke-linecap:round;stroke-linejoin:round;stroke:#000;stroke-miterlimit:10" transform="matrix(.1 0 0 -.1 0 656.68)"/><path d="m309.09375 394.957031h.417969v-26.941406h-.417969zm0 0"/><use x="308.635" xlink:href="#P" y="415.446"/><path d="m1508.632812 2471.4875h52.539063v3.125h-52.539063zm0 0" style="fill:none;stroke-width:5.01245;stroke-linecap:round;stroke-linejoin:round;stroke:#000;stroke-miterlimit:10" transform="matrix(.1 0 0 -.1 0 656.68)"/><path d="m150.863281 409.53125h5.253907v-.3125h-5.253907zm0 0"/><path d="m1922.539062 2471.4875h52.539063v3.125h-52.539063zm0 0" style="fill:none;stroke-width:5.01245;stroke-linecap:round;stroke-linejoin:round;stroke:#000;stroke-miterlimit:10" transform="matrix(.1 0 0 -.1 0 656.68)"/><path d="m192.253906 409.53125h5.253906v-.3125h-5.253906zm0 0"/><path d="m2365.742188 2471.4875h52.5v3.125h-52.5zm0 0" style="fill:none;stroke-width:5.01245;stroke-linecap:round;stroke-linejoin:round;stroke:#000;stroke-miterlimit:10" transform="matrix(.1 0 0 -.1 0 656.68)"/><path d="m236.574219 409.53125h5.25v-.3125h-5.25zm0 0"/><path d="m3752.304688 2471.4875h52.539062v3.125h-52.539062zm0 0" style="fill:none;stroke-width:5.01245;stroke-linecap:round;stroke-linejoin:round;stroke:#000;stroke-miterlimit:10" transform="matrix(.1 0 0 -.1 0 656.68)"/><path d="m375.230469 409.53125h5.253906v-.3125h-5.253906zm0 0"/><path d="m4730.273438 2471.4875h52.539062v3.125h-52.539062zm0 0" style="fill:none;stroke-width:5.01245;stroke-linecap:round;stroke-linejoin:round;stroke:#000;stroke-miterlimit:10" transform="matrix(.1 0 0 -.1 0 656.68)"/><path d="m473.027344 409.53125h5.253906v-.3125h-5.253906zm0 0"/><path d="m5082.34375 2844.026563h4.140625v277.734375h-4.140625zm0 0" style="fill:none;stroke-width:3.98381;stroke-linecap:round;stroke-linejoin:round;stroke:#000;stroke-miterlimit:10" transform="matrix(.1 0 0 -.1 0 656.68)"/><path d="m508.234375 372.277344h.414063v-27.773438h-.414063zm0 0"/><use x="545.524" xlink:href="#ay" y="366.099"/><path d="m1335.664062 2750.628125h4.179688v283.945313h-4.179688zm0 0" style="fill:none;stroke-width:3.98381;stroke-linecap:round;stroke-linejoin:round;stroke:#000;stroke-miterlimit:10" transform="matrix(.1 0 0 -.1 0 656.68)"/><path d="m133.566406 381.617188h.414063v-28.394532h-.414063zm0 0"/><use x="122.798" xlink:href="#at" y="383.534"/><path d="m855.078125 2756.878125h4.140625v277.695313h-4.140625zm0 0" style="fill:none;stroke-width:3.98381;stroke-linecap:round;stroke-linejoin:round;stroke:#000;stroke-miterlimit:10" transform="matrix(.1 0 0 -.1 0 656.68)"/><path d="m85.507812 380.992188h.414063v-27.769532h-.414063zm0 0"/><use x="65.8559" xlink:href="#ai" y="415.446"/><use x="83.714136" xlink:href="#V" y="415.446"/><use x="88.476254" xlink:href="#W" y="415.446"/><use x="74.16254" xlink:href="#au" y="383.5339"/><use x="111.65234" xlink:href="#R" y="415.446"/><use x="122.707447" xlink:href="#S" y="415.446"/><use x="133.422709" xlink:href="#aj" y="415.446"/><use x="38.38824" xlink:href="#aw" y="366.0991"/><use x="46.26715" xlink:href="#aw" y="353.0233"/><use x="6.97375" xlink:href="#ax" y="374.8163"/><path d="m2229.257812 2844.026563h4.140626v277.734375h-4.140626zm0 0" style="fill:none;stroke-width:3.98381;stroke-linecap:round;stroke-linejoin:round;stroke:#000;stroke-miterlimit:10" transform="matrix(.1 0 0 -.1 0 656.68)"/><path d="m222.925781 372.277344h.414063v-27.773438h-.414063zm0 0"/><use x="205.655" xlink:href="#G" y="415.446"/><use x="217.560093" xlink:href="#ag" y="415.446"/><use x="211.58" xlink:href="#au" y="374.8163"/><path d="m1779.570312 2794.182813h4.179688v283.984375h-4.179688zm0 0" style="fill:none;stroke-width:3.98381;stroke-linecap:round;stroke-linejoin:round;stroke:#000;stroke-miterlimit:10" transform="matrix(.1 0 0 -.1 0 656.68)"/><path d="m177.957031 377.261719h.414063v-28.398438h-.414063zm0 0"/><use x="260.216" xlink:href="#au" y="370.458"/><use x="161.6555" xlink:href="#ak" y="415.4463"/><use x="167.43871" xlink:href="#ah" y="415.4463"/><use x="179.343816" xlink:href="#al" y="415.4463"/><use x="248.933507" xlink:href="#G" y="415.4463"/><use x="260.8386" xlink:href="#P" y="415.4463"/><use x="272.744084" xlink:href="#H" y="415.4463"/><use x="167.18948" xlink:href="#at" y="379.1752"/><path d="m2715.625 2887.620313h4.179688v277.734375h-4.179688zm0 0" style="fill:none;stroke-width:3.98381;stroke-linecap:round;stroke-linejoin:round;stroke:#000;stroke-miterlimit:10" transform="matrix(.1 0 0 -.1 0 656.68)"/><path d="m271.5625 367.917969h.417969v-27.769531h-.417969zm0 0"/><g clip-path="url(#u)"><path d="m3.125 1685.39375h5946.523438" style="fill:none;stroke-width:6.25903;stroke-linecap:round;stroke-linejoin:round;stroke:#000;stroke-miterlimit:10" transform="matrix(.1 0 0 -.1 0 656.68)"/></g><g clip-path="url(#v)"><path d="m3.125 1772.542188h5946.523438" style="fill:none;stroke-width:6.25903;stroke-linecap:round;stroke-linejoin:round;stroke:#000;stroke-miterlimit:10" transform="matrix(.1 0 0 -.1 0 656.68)"/></g><g clip-path="url(#w)"><path d="m3.125 1859.729688h5946.523438" style="fill:none;stroke-width:6.25903;stroke-linecap:round;stroke-linejoin:round;stroke:#000;stroke-miterlimit:10" transform="matrix(.1 0 0 -.1 0 656.68)"/></g><g clip-path="url(#x)"><path d="m3.125 1946.917188h5946.523438" style="fill:none;stroke-width:6.25903;stroke-linecap:round;stroke-linejoin:round;stroke:#000;stroke-miterlimit:10" transform="matrix(.1 0 0 -.1 0 656.68)"/></g><g clip-path="url(#y)"><path d="m3.125 2034.065625h5946.523438" style="fill:none;stroke-width:6.25903;stroke-linecap:round;stroke-linejoin:round;stroke:#000;stroke-miterlimit:10" transform="matrix(.1 0 0 -.1 0 656.68)"/></g><path d="m4275.234375 1748.128125h4.179687v283.945313h-4.179687zm0 0" style="fill:none;stroke-width:3.98381;stroke-linecap:round;stroke-linejoin:round;stroke:#000;stroke-miterlimit:10" transform="matrix(.1 0 0 -.1 0 656.68)"/><path d="m427.523438 481.867188h.417968v-28.394532h-.417968zm0 0"/><use x="487.398" xlink:href="#G" y="519.198"/><use x="499.303093" xlink:href="#F" y="519.198"/><use x="511.208186" xlink:href="#H" y="519.198"/><use x="521.92346" xlink:href="#M" y="519.198"/><use x="458.9996" xlink:href="#at" y="488.1418"/><use x="455.9328" xlink:href="#W" y="519.198"/><use x="461.54494" xlink:href="#F" y="519.198"/><path d="m4697.695312 1704.534375h4.140626v283.984375h-4.140626zm0 0" style="fill:none;stroke-width:3.98381;stroke-linecap:round;stroke-linejoin:round;stroke:#000;stroke-miterlimit:10" transform="matrix(.1 0 0 -.1 0 656.68)"/><path d="m469.769531 486.226562h.414063v-28.398437h-.414063zm0 0"/><use x="501.658" xlink:href="#au" y="492.5"/><use x="330.085" xlink:href="#at" y="488.14102"/><use x="414.1123" xlink:href="#am" y="519.19722"/><use x="420.065066" xlink:href="#S" y="519.19722"/><use x="416.75449" xlink:href="#at" y="483.78242"/><path d="m3852.773438 1791.682813h4.179687v283.984375h-4.179687zm0 0" style="fill:none;stroke-width:3.98381;stroke-linecap:round;stroke-linejoin:round;stroke:#000;stroke-miterlimit:10" transform="matrix(.1 0 0 -.1 0 656.68)"/><path d="m385.277344 477.511719h.417968v-28.398438h-.417968zm0 0"/><use x="374.249" xlink:href="#T" y="519.198"/><use x="374.509938" xlink:href="#at" y="479.4246"/><path d="m3408.554688 1704.534375h4.140624v283.984375h-4.140624zm0 0" style="fill:none;stroke-width:3.98381;stroke-linecap:round;stroke-linejoin:round;stroke:#000;stroke-miterlimit:10" transform="matrix(.1 0 0 -.1 0 656.68)"/><path d="m340.855469 486.226562h.414062v-28.398437h-.414062zm0 0"/><use x="324.297" xlink:href="#P" y="519.198"/><use x="336.54311" xlink:href="#an" y="519.198"/><path d="m1112.773438 1433.9875h52.539062v3.125h-52.539062zm0 0" style="fill:none;stroke-width:5.01245;stroke-linecap:round;stroke-linejoin:round;stroke:#000;stroke-miterlimit:10" transform="matrix(.1 0 0 -.1 0 656.68)"/><path d="m111.277344 513.28125h5.25v-.3125h-5.25zm0 0"/><path d="m2548.28125 1433.9875h52.539062v3.125h-52.539062zm0 0" style="fill:none;stroke-width:5.01245;stroke-linecap:round;stroke-linejoin:round;stroke:#000;stroke-miterlimit:10" transform="matrix(.1 0 0 -.1 0 656.68)"/><path d="m254.828125 513.28125h5.25v-.3125h-5.25zm0 0"/><path d="m4407.304688 1433.9875h52.5v3.125h-52.5zm0 0" style="fill:none;stroke-width:5.01245;stroke-linecap:round;stroke-linejoin:round;stroke:#000;stroke-miterlimit:10" transform="matrix(.1 0 0 -.1 0 656.68)"/><path d="m440.730469 513.28125h5.25v-.3125h-5.25zm0 0"/><path d="m4777.96875 1433.9875h52.539062v3.125h-52.539062zm0 0" style="fill:none;stroke-width:5.01245;stroke-linecap:round;stroke-linejoin:round;stroke:#000;stroke-miterlimit:10" transform="matrix(.1 0 0 -.1 0 656.68)"/><path d="m477.796875 513.28125h5.253906v-.3125h-5.253906zm0 0"/><path d="m5130.039062 1667.190625h4.140626v277.734375h-4.140626zm0 0" style="fill:none;stroke-width:3.98381;stroke-linecap:round;stroke-linejoin:round;stroke:#000;stroke-miterlimit:10" transform="matrix(.1 0 0 -.1 0 656.68)"/><path d="m513.003906 489.960938h.414063v-27.773438h-.414063zm0 0"/><use x="547.909" xlink:href="#ay" y="470.707"/><path d="m1354.53125 1571.135938h4.179688v269.453125h-4.179688zm0 0" style="fill:none;stroke-width:3.98381;stroke-linecap:round;stroke-linejoin:round;stroke:#000;stroke-miterlimit:10" transform="matrix(.1 0 0 -.1 0 656.68)"/><path d="m135.453125 499.566406h.417969v-26.945312h-.417969zm0 0"/><use x="135.255" xlink:href="#at" y="470.707"/><path d="m743.632812 1571.135938h4.140626v263.203125h-4.140626zm0 0" style="fill:none;stroke-width:3.98381;stroke-linecap:round;stroke-linejoin:round;stroke:#000;stroke-miterlimit:10" transform="matrix(.1 0 0 -.1 0 656.68)"/><path d="m74.363281 499.566406h.414063v-26.320312h-.414063zm0 0"/><use x="53.3551" xlink:href="#ai" y="519.198"/><use x="71.213336" xlink:href="#ah" y="519.198"/><use x="83.118826" xlink:href="#G" y="519.198"/><use x="95.023925" xlink:href="#L" y="519.198"/><use x="74.1625" xlink:href="#au" y="470.7074"/><use x="120.8777" xlink:href="#Y" y="519.198"/><use x="131.252337" xlink:href="#ag" y="519.198"/><use x="143.157442" xlink:href="#G" y="519.198"/><use x="155.062548" xlink:href="#ao" y="519.198"/><use x="38.3882" xlink:href="#aw" y="470.7074"/><use x="46.26711" xlink:href="#aw" y="457.6312"/><use x="6.97371" xlink:href="#ax" y="479.4246"/><path d="m2447.070312 1797.932813h4.140626v277.734375h-4.140626zm0 0" style="fill:none;stroke-width:3.98381;stroke-linecap:round;stroke-linejoin:round;stroke:#000;stroke-miterlimit:10" transform="matrix(.1 0 0 -.1 0 656.68)"/><path d="m244.707031 476.886719h.414063v-27.773438h-.414063zm0 0"/><use x="228.2" xlink:href="#Y" y="519.198"/><use x="238.574624" xlink:href="#P" y="519.198"/><use x="233.35977" xlink:href="#au" y="479.4246"/><path d="m1996.835938 1835.276563h4.179687v283.984375h-4.179687zm0 0" style="fill:none;stroke-width:3.98381;stroke-linecap:round;stroke-linejoin:round;stroke:#000;stroke-miterlimit:10" transform="matrix(.1 0 0 -.1 0 656.68)"/><path d="m199.683594 473.152344h.417968v-28.398438h-.417968zm0 0"/><use x="281.409" xlink:href="#au" y="492.5"/><use x="174.964" xlink:href="#ap" y="519.1973"/><use x="182.106981" xlink:href="#X" y="519.1973"/><use x="197.58475" xlink:href="#ah" y="519.1973"/><use x="209.489843" xlink:href="#al" y="519.1973"/><use x="264.428167" xlink:href="#K" y="519.1973"/><use x="276.163729" xlink:href="#ae" y="519.1973"/><use x="286.537961" xlink:href="#ah" y="519.1973"/><use x="298.443445" xlink:href="#G" y="519.1973"/><use x="188.9163" xlink:href="#at" y="475.0653"/><path d="m2927.539062 1667.190625h4.140626v277.734375h-4.140626zm0 0" style="fill:none;stroke-width:3.98381;stroke-linecap:round;stroke-linejoin:round;stroke:#000;stroke-miterlimit:10" transform="matrix(.1 0 0 -.1 0 656.68)"/><path d="m292.753906 489.960938h.414063v-27.773438h-.414063zm0 0"/><g clip-path="url(#z)"><path d="m3.125 639.3h5946.523438" style="fill:none;stroke-width:6.25903;stroke-linecap:round;stroke-linejoin:round;stroke:#000;stroke-miterlimit:10" transform="matrix(.1 0 0 -.1 0 656.68)"/></g><g clip-path="url(#A)"><path d="m3.125 726.4875h5946.523438" style="fill:none;stroke-width:6.25903;stroke-linecap:round;stroke-linejoin:round;stroke:#000;stroke-miterlimit:10" transform="matrix(.1 0 0 -.1 0 656.68)"/></g><g clip-path="url(#B)"><path d="m3.125 813.675h5946.523438" style="fill:none;stroke-width:6.25903;stroke-linecap:round;stroke-linejoin:round;stroke:#000;stroke-miterlimit:10" transform="matrix(.1 0 0 -.1 0 656.68)"/></g><g clip-path="url(#C)"><path d="m3.125 900.823438h5946.523438" style="fill:none;stroke-width:6.25903;stroke-linecap:round;stroke-linejoin:round;stroke:#000;stroke-miterlimit:10" transform="matrix(.1 0 0 -.1 0 656.68)"/></g><g clip-path="url(#D)"><path d="m3.125 988.010938h5946.523438" style="fill:none;stroke-width:6.25903;stroke-linecap:round;stroke-linejoin:round;stroke:#000;stroke-miterlimit:10" transform="matrix(.1 0 0 -.1 0 656.68)"/></g><path d="m4966.25 552.151563h245.078125" style="fill:none;stroke-width:14.9763;stroke-linecap:round;stroke-linejoin:round;stroke:#000;stroke-miterlimit:10" transform="matrix(.1 0 0 -.1 0 656.68)"/><g clip-path="url(#E)"><path d="m5933.984375 639.3v348.710938" fill="none" stroke="#000" stroke-linejoin="round" stroke-miterlimit="10" stroke-width="37.5716" transform="matrix(.1 0 0 -.1 0 656.68)"/></g><path d="m5890.46875 639.3v348.710938" fill="none" stroke="#000" stroke-linejoin="round" stroke-miterlimit="10" stroke-width="11.8991" transform="matrix(.1 0 0 -.1 0 656.68)"/><use x="500.211" xlink:href="#az" y="601.4663"/><use x="287.187" xlink:href="#at" y="592.74911"/><path d="m4351.40625 621.096875h4.179688v277.734375h-4.179688zm0 0" fill="none" stroke="#000" stroke-linejoin="round" stroke-miterlimit="10" stroke-width="3.98381" transform="matrix(.1 0 0 -.1 0 656.68)"/><path d="m435.140625 594.570312h.414063v-27.773437h-.414063zm0 0"/><use x="423.823" xlink:href="#T" y="626.0702"/><use x="423.794875" xlink:href="#au" y="597.1077"/><path d="m3673.476562 702.034375h4.179688v283.984375h-4.179688zm0 0" fill="none" stroke="#000" stroke-linejoin="round" stroke-miterlimit="10" stroke-width="3.98381" transform="matrix(.1 0 0 -.1 0 656.68)"/><path d="m367.347656 586.476562h.417969v-28.398437h-.417969zm0 0"/><use x="350.367" xlink:href="#G" y="626.0702"/><use x="362.272093" xlink:href="#U" y="626.0702"/><use x="356.58067" xlink:href="#at" y="588.3905"/><path d="m2979.570312 658.440625h4.140626v283.984375h-4.140626zm0 0" fill="none" stroke="#000" stroke-linejoin="round" stroke-miterlimit="10" stroke-width="3.98381" transform="matrix(.1 0 0 -.1 0 656.68)"/><path d="m297.957031 590.835938h.414063v-28.398438h-.414063zm0 0"/><use x="284.12" xlink:href="#W" y="626.0702"/><use x="289.732116" xlink:href="#F" y="626.0702"/><path d="m1872.929688 365.276563h52.539062v3.125h-52.539062zm0 0" fill="none" stroke="#000" stroke-linejoin="round" stroke-miterlimit="10" stroke-width="5.01245" transform="matrix(.1 0 0 -.1 0 656.68)"/><path d="m187.292969 620.152344h5.253906v-.3125h-5.253906zm0 0"/><path d="m2615.9375 365.276563h52.5v3.125h-52.5zm0 0" fill="none" stroke="#000" stroke-linejoin="round" stroke-miterlimit="10" stroke-width="5.01245" transform="matrix(.1 0 0 -.1 0 656.68)"/><path d="m261.59375 620.152344h5.25v-.3125h-5.25zm0 0"/><path d="m3233.75 365.276563h52.539062v3.125h-52.539062zm0 0" fill="none" stroke="#000" stroke-linejoin="round" stroke-miterlimit="10" stroke-width="5.01245" transform="matrix(.1 0 0 -.1 0 656.68)"/><path d="m323.375 620.152344h5.25v-.3125h-5.25zm0 0"/><path d="m4578.125 365.276563h52.539062v3.125h-52.539062zm0 0" fill="none" stroke="#000" stroke-linejoin="round" stroke-miterlimit="10" stroke-width="5.01245" transform="matrix(.1 0 0 -.1 0 656.68)"/><path d="m457.8125 620.152344h5.253906v-.3125h-5.253906zm0 0"/><use x="485.154" xlink:href="#H" y="626.0702"/><use x="495.528648" xlink:href="#F" y="626.0702"/><use x="507.26382" xlink:href="#W" y="626.0702"/><use x="513.047054" xlink:href="#aq" y="626.0702"/><use x="525.463085" xlink:href="#ar" y="626.0702"/><use x="6.974" xlink:href="#ax" y="584.0319"/><path d="m855.078125 751.878125h4.140625v277.734375h-4.140625zm0 0" fill="none" stroke="#000" stroke-linejoin="round" stroke-miterlimit="10" stroke-width="3.98381" transform="matrix(.1 0 0 -.1 0 656.68)"/><path d="m85.507812 581.492188h.414063v-27.773438h-.414063zm0 0"/><use x="74.1625" xlink:href="#au" y="584.032"/><use x="38.3883" xlink:href="#aw" y="575.31442"/><use x="46.26721" xlink:href="#aw" y="562.23862"/><use x="70.61801" xlink:href="#as" y="626.07022"/><use x="84.90476" xlink:href="#V" y="626.07022"/><path d="m2285.625 614.846875h4.140625v283.984375h-4.140625zm0 0" fill="none" stroke="#000" stroke-linejoin="round" stroke-miterlimit="10" stroke-width="3.98381" transform="matrix(.1 0 0 -.1 0 656.68)"/><path d="m228.5625 595.195312h.414062v-28.398437h-.414062zm0 0"/><use x="202.65" xlink:href="#J" y="626.0702"/><use x="220.50823" xlink:href="#F" y="626.0702"/><use x="232.413714" xlink:href="#G" y="626.0702"/><use x="217.793" xlink:href="#at" y="597.1077"/><path d="m1613.476562 702.034375h4.179688v283.984375h-4.179688zm0 0" fill="none" stroke="#000" stroke-linejoin="round" stroke-miterlimit="10" stroke-width="3.98381" transform="matrix(.1 0 0 -.1 0 656.68)"/><path d="m161.347656 586.476562h.414063v-28.398437h-.414063zm0 0"/><use x="135.351" xlink:href="#J" y="626.0702"/><use x="153.209242" xlink:href="#F" y="626.0702"/><use x="165.28427" xlink:href="#K" y="626.0702"/><use x="150.5791" xlink:href="#at" y="588.3905"/></svg>