<svg height="708.54em" viewBox="0 0 595.28 708.54" width="595.28em" xmlns="http://www.w3.org/2000/svg" xmlns:xlink="http://www.w3.org/1999/xlink"><clipPath id="a"><path d="m0 75h595.28125v2h-595.28125zm0 0"/></clipPath><clipPath id="b"><path d="m0 65h595.28125v2h-595.28125zm0 0"/></clipPath><clipPath id="c"><path d="m0 56h595.28125v2h-595.28125zm0 0"/></clipPath><clipPath id="d"><path d="m0 47h595.28125v1h-595.28125zm0 0"/></clipPath><clipPath id="e"><path d="m0 37h595.28125v2h-595.28125zm0 0"/></clipPath><clipPath id="f"><path d="m0 188h595.28125v2h-595.28125zm0 0"/></clipPath><clipPath id="g"><path d="m0 179h595.28125v2h-595.28125zm0 0"/></clipPath><clipPath id="h"><path d="m0 170h595.28125v1h-595.28125zm0 0"/></clipPath><clipPath id="i"><path d="m0 160h595.28125v2h-595.28125zm0 0"/></clipPath><clipPath id="j"><path d="m0 151h595.28125v1h-595.28125zm0 0"/></clipPath><clipPath id="k"><path d="m0 302h595.28125v2h-595.28125zm0 0"/></clipPath><clipPath id="l"><path d="m0 293h595.28125v1h-595.28125zm0 0"/></clipPath><clipPath id="m"><path d="m0 283h595.28125v2h-595.28125zm0 0"/></clipPath><clipPath id="n"><path d="m0 274h595.28125v1h-595.28125zm0 0"/></clipPath><clipPath id="o"><path d="m0 264h595.28125v2h-595.28125zm0 0"/></clipPath><clipPath id="p"><path d="m0 416h595.28125v1h-595.28125zm0 0"/></clipPath><clipPath id="q"><path d="m0 406h595.28125v2h-595.28125zm0 0"/></clipPath><clipPath id="r"><path d="m0 397h595.28125v1h-595.28125zm0 0"/></clipPath><clipPath id="s"><path d="m0 387h595.28125v2h-595.28125zm0 0"/></clipPath><clipPath id="t"><path d="m0 378h595.28125v1h-595.28125zm0 0"/></clipPath><clipPath id="u"><path d="m0 529h595.28125v2h-595.28125zm0 0"/></clipPath><clipPath id="v"><path d="m0 520h595.28125v1h-595.28125zm0 0"/></clipPath><clipPath id="w"><path d="m0 510h595.28125v2h-595.28125zm0 0"/></clipPath><clipPath id="x"><path d="m0 501h595.28125v1h-595.28125zm0 0"/></clipPath><clipPath id="y"><path d="m0 491h595.28125v2h-595.28125zm0 0"/></clipPath><clipPath id="z"><path d="m0 643h595.28125v1h-595.28125zm0 0"/></clipPath><clipPath id="A"><path d="m0 633h595.28125v2h-595.28125zm0 0"/></clipPath><clipPath id="B"><path d="m0 624h595.28125v1h-595.28125zm0 0"/></clipPath><clipPath id="C"><path d="m0 614h595.28125v2h-595.28125zm0 0"/></clipPath><clipPath id="D"><path d="m0 605h595.28125v2h-595.28125zm0 0"/></clipPath><clipPath id="E"><path d="m591 603h4.28125v43h-4.28125zm0 0"/></clipPath><symbol id="F" overflow="visible"><path d="m9.4375-12.25v1.78125c-.96875-1.46875-2.046875-2.125-3.59375-2.125-2.96875 0-5.03125 2.75-5.03125 6.6875 0 2.046875.5 3.546875 1.546875 4.78125.90625 1.078125 2.078125 1.65625 3.34375 1.65625 1.46875 0 2.53125-.640625 3.546875-2.1875v.625c0 3.28125-.90625 4.484375-3.34375 4.484375-1.65625 0-2.515625-.640625-2.703125-2.046875h-1.984375c.1875 2.265625 1.984375 3.6875 4.640625 3.6875 1.8125 0 3.296875-.578125 4.09375-1.5625.9375-1.140625 1.296875-2.671875 1.296875-5.546875v-10.234375zm-3.40625 1.453125c2.0625 0 3.21875 1.734375 3.21875 4.84375 0 2.96875-1.1875 4.6875-3.21875 4.6875-2.015625 0-3.171875-1.75-3.171875-4.765625 0-2.984375 1.15625-4.765625 3.171875-4.765625zm0 0"/></symbol><symbol id="G" overflow="visible"><path d="m11.984375-5.46875c0-1.875-.140625-3-.484375-3.90625-.796875-2.015625-2.671875-3.21875-4.953125-3.21875-3.421875 0-5.609375 2.59375-5.609375 6.640625 0 4.03125 2.09375 6.484375 5.5625 6.484375 2.796875 0 4.75-1.578125 5.234375-4.25h-1.96875c-.53125 1.609375-1.625 2.453125-3.203125 2.453125-1.234375 0-2.28125-.5625-2.9375-1.59375-.46875-.6875-.640625-1.390625-.65625-2.609375zm-8.96875-1.59375c.15625-2.265625 1.546875-3.734375 3.5-3.734375 2 0 3.375 1.546875 3.375 3.734375zm0 0"/></symbol><symbol id="H" overflow="visible"><path d="m1.640625-12.25v12.25h1.953125v-7.6875c0-1.78125 1.296875-3.203125 2.875-3.203125 1.453125 0 2.28125.890625 2.28125 2.453125v8.4375h1.953125v-7.6875c0-1.78125 1.28125-3.203125 2.875-3.203125 1.421875 0 2.265625.90625 2.265625 2.453125v8.4375h1.96875v-9.1875c0-2.203125-1.265625-3.40625-3.546875-3.40625-1.640625 0-2.625.484375-3.765625 1.859375-.734375-1.296875-1.71875-1.859375-3.296875-1.859375-1.640625 0-2.734375.609375-3.765625 2.078125v-1.734375zm0 0"/></symbol><symbol id="I" overflow="visible"><path d="m2.03125-2.4375v2.4375h1.40625v.421875c0 1.609375-.3125 2.078125-1.40625 2.125v.890625c1.546875.046875 2.453125-1.078125 2.453125-3.0625v-2.8125zm0 0"/></symbol><symbol id="J" overflow="visible"><path d="m10.234375-8.828125c-.015625-2.421875-1.609375-3.765625-4.4375-3.765625-2.859375 0-4.703125 1.46875-4.703125 3.734375 0 1.921875.984375 2.828125 3.890625 3.53125l1.8125.4375c1.359375.328125 1.90625.828125 1.90625 1.6875 0 1.171875-1.15625 1.9375-2.859375 1.9375-1.046875 0-1.9375-.296875-2.4375-.8125-.296875-.359375-.4375-.703125-.546875-1.5625h-2.0625c.09375 2.828125 1.6875 4.171875 4.890625 4.171875 3.078125 0 5.046875-1.515625 5.046875-3.875 0-1.828125-1.03125-2.828125-3.46875-3.40625l-1.859375-.453125c-1.59375-.375-2.28125-.890625-2.28125-1.75 0-1.140625 1.015625-1.84375 2.609375-1.84375 1.5625 0 2.40625.671875 2.453125 1.96875zm0 0"/></symbol><symbol id="K" overflow="visible"><path d="m11.984375-5.46875c0-1.875-.140625-3-.484375-3.90625-.796875-2.015625-2.671875-3.21875-4.953125-3.21875-3.421875 0-5.609375 2.59375-5.609375 6.640625 0 4.03125 2.09375 6.484375 5.5625 6.484375 2.796875 0 4.75-1.578125 5.234375-4.25h-1.96875c-.53125 1.609375-1.625 2.453125-3.203125 2.453125-1.234375 0-2.28125-.5625-2.9375-1.59375-.46875-.6875-.640625-1.390625-.65625-2.609375zm-8.96875-1.59375c.15625-2.265625 1.546875-3.734375 3.5-3.734375 2 0 3.375 1.546875 3.375 3.734375zm4.1875-10.234375-2.25 3.453125h1.40625l3.484375-3.453125zm0 0"/></symbol><symbol id="L" overflow="visible"><path d="m6.65625 0 4.703125-12.25h-2.203125l-3.453125 9.9375-3.265625-9.9375h-2.203125l4.296875 12.25zm0 0"/></symbol><symbol id="M" overflow="visible"><path d="m6.359375-12.59375c-3.453125 0-5.515625 2.453125-5.515625 6.5625 0 4.140625 2.0625 6.5625 5.53125 6.5625s5.546875-2.453125 5.546875-6.46875c0-4.25-2.015625-6.65625-5.5625-6.65625zm.015625 1.796875c2.203125 0 3.515625 1.796875 3.515625 4.84375 0 2.890625-1.359375 4.6875-3.515625 4.6875-2.171875 0-3.5-1.796875-3.5-4.765625s1.328125-4.765625 3.5-4.765625zm-.671875-5.921875h-2.4375v2.40625h2.4375zm3.78125 0h-2.421875v2.40625h2.421875zm0 0"/></symbol><symbol id="N" overflow="visible"><path d="m11.265625 0v-12.25h-1.9375v6.9375c0 2.5-1.3125 4.140625-3.34375 4.140625-1.546875 0-2.53125-.9375-2.53125-2.40625v-8.671875h-1.9375v9.4375c0 2.046875 1.515625 3.34375 3.90625 3.34375 1.796875 0 2.953125-.625 4.09375-2.234375v1.703125zm-5.53125-16.71875h-2.4375v2.40625h2.4375zm3.78125 0h-2.4375v2.40625h2.4375zm0 0"/></symbol><symbol id="O" overflow="visible"><path d="m11.578125-17.046875h-1.953125v6.34375c-.8125-1.234375-2.125-1.890625-3.765625-1.890625-3.171875 0-5.25 2.546875-5.25 6.453125 0 4.125 2.015625 6.671875 5.328125 6.671875 1.6875 0 2.84375-.625 3.90625-2.140625v1.609375h1.734375zm-5.390625 6.265625c2.109375 0 3.4375 1.859375 3.4375 4.796875 0 2.828125-1.34375 4.703125-3.40625 4.703125-2.15625 0-3.578125-1.890625-3.578125-4.75 0-2.84375 1.421875-4.75 3.546875-4.75zm0 0"/></symbol><symbol id="P" overflow="visible"><path d="m12.875-17.046875.03125 11.96875c0 2.296875-1.65625 3.703125-4.375 3.703125-2.703125 0-4.375-1.40625-4.375-3.703125v-11.96875h-2.171875v11.96875c0 3.421875 2.578125 5.609375 6.546875 5.609375s6.546875-2.21875 6.546875-5.609375l-.03125-11.96875zm-3.828125-4.90625-2.25 3.46875h1.40625l3.484375-3.46875zm0 0"/></symbol><symbol id="Q" overflow="visible"><path d="m1.609375-12.25v12.25h1.96875v-6.359375c.015625-2.9375 1.234375-4.25 3.921875-4.1875v-1.984375c-.328125-.046875-.515625-.0625-.75-.0625-1.25 0-2.21875.75-3.34375 2.5625v-2.21875zm0 0"/></symbol><symbol id="R" overflow="visible"><path d="m5.9375-12.25h-2.015625v-3.359375h-1.9375v3.359375h-1.65625v1.59375h1.65625v9.25c0 1.265625.84375 1.9375 2.359375 1.9375.515625 0 .9375-.046875 1.59375-.15625v-1.640625c-.28125.078125-.53125.09375-.9375.09375-.84375 0-1.078125-.234375-1.078125-1.09375v-8.390625h2.015625zm0 0"/></symbol><symbol id="S" overflow="visible"><path d="m1.640625-12.25v12.25h1.953125v-6.75c0-2.5 1.3125-4.140625 3.328125-4.140625 1.546875 0 2.515625.9375 2.515625 2.40625v8.484375h1.953125v-9.25c0-2.046875-1.53125-3.34375-3.890625-3.34375-1.8125 0-2.984375.703125-4.0625 2.40625v-2.0625zm0 0"/></symbol><symbol id="T" overflow="visible"><path d="m4.53125-17.046875h-2.1875v17.046875h2.1875zm0 0"/></symbol><symbol id="U" overflow="visible"><path d="m10.359375-12.25h-9.140625v1.703125h6.828125l-7.328125 8.796875v1.75h9.96875v-1.703125h-7.609375l7.28125-8.8125zm0 0"/></symbol><symbol id="V" overflow="visible"><path d="m12.5-1.140625c-.203125.046875-.296875.046875-.421875.046875-.671875 0-1.046875-.359375-1.046875-.96875v-7.1875c0-2.1875-1.59375-3.34375-4.609375-3.34375-1.796875 0-3.21875.515625-4.0625 1.421875-.5625.625-.796875 1.328125-.84375 2.546875h1.96875c.15625-1.5 1.046875-2.171875 2.875-2.171875 1.78125 0 2.734375.65625 2.734375 1.828125v.5c-.03125.84375-.4375 1.15625-2.03125 1.359375-2.765625.359375-3.1875.453125-3.9375.75-1.421875.609375-2.140625 1.6875-2.140625 3.28125 0 2.21875 1.546875 3.609375 4.015625 3.609375 1.546875 0 2.78125-.53125 4.15625-1.796875.140625 1.265625.75 1.796875 2.015625 1.796875.421875 0 .671875-.046875 1.328125-.203125zm-3.40625-2.71875c0 .65625-.1875 1.046875-.765625 1.59375-.796875.71875-1.765625 1.09375-2.90625 1.09375-1.515625 0-2.40625-.71875-2.40625-1.953125 0-1.296875.84375-1.953125 2.9375-2.25 2.09375-.28125 2.484375-.375 3.140625-.671875zm-1.984375-13.4375-2.265625 3.453125h1.390625l3.484375-3.453125zm0 0"/></symbol><symbol id="W" overflow="visible"><path d="m4.859375-17.046875h-1.9375v7.90625l.515625 5.21875h.90625l.515625-5.21875zm0 14.609375h-1.953125v2.4375h1.953125zm0 0"/></symbol><symbol id="X" overflow="visible"><path d="m1.640625-17.046875v17.046875h1.9375v-6.75c0-2.5 1.3125-4.140625 3.3125-4.140625.65625 0 1.265625.1875 1.734375.53125.5625.421875.796875 1.015625.796875 1.875v8.484375h1.9375v-9.25c0-2.0625-1.46875-3.34375-3.859375-3.34375-1.71875 0-2.78125.53125-3.921875 2.03125v-6.484375zm0 0"/></symbol><symbol id="Y" overflow="visible"><path d="m6.359375-12.59375c-3.453125 0-5.515625 2.453125-5.515625 6.5625 0 4.140625 2.0625 6.5625 5.53125 6.5625s5.546875-2.453125 5.546875-6.46875c0-4.25-2.015625-6.65625-5.5625-6.65625zm.015625 1.796875c2.203125 0 3.515625 1.796875 3.515625 4.84375 0 2.890625-1.359375 4.6875-3.515625 4.6875-2.171875 0-3.5-1.796875-3.5-4.765625s1.328125-4.765625 3.5-4.765625zm0 0"/></symbol><symbol id="Z" overflow="visible"><path d="m3.296875-17.046875h-1.9375v17.046875h1.9375v-4.765625l1.890625-1.875 4.140625 6.640625h2.40625l-5-8.015625 4.25-4.234375h-2.5l-5.1875 5.1875zm0 0"/></symbol><symbol id="aa" overflow="visible"><path d="m3.546875-17.046875h-1.953125v17.046875h1.953125zm0 0"/></symbol><symbol id="ab" overflow="visible"><path d="m4.28125-7.765625h9.28125v-1.90625h-9.28125v-5.453125h9.625v-1.921875h-11.796875v17.046875h12.21875v-1.921875h-10.046875zm4.296875-14.1875-2.265625 3.46875h1.40625l3.484375-3.46875zm0 0"/></symbol><symbol id="ac" overflow="visible"><path d="m1.640625-12.25v14.03125c0 1.203125-.375 1.609375-1.59375 1.609375-.140625 0-.203125 0-.46875-.03125v1.671875c.234375.046875.359375.0625.65625.0625 2.203125 0 3.34375-.859375 3.34375-2.546875v-14.796875zm1.9375-4.796875h-1.9375v2.453125h1.9375zm0 0"/></symbol><symbol id="ad" overflow="visible"><path d="m3.5-12.25h-1.9375v12.25h1.9375zm0-4.796875h-1.953125v2.453125h1.953125zm0 0"/></symbol><symbol id="ae" overflow="visible"><path d="m1.265625 5.09375h1.953125v-6.375c1.03125 1.265625 2.1875 1.8125 3.765625 1.8125 3.1875 0 5.234375-2.546875 5.234375-6.4375 0-4.125-2-6.6875-5.25-6.6875-1.65625 0-3 .75-3.90625 2.1875v-1.84375h-1.796875zm5.375-15.875c2.140625 0 3.546875 1.90625 3.546875 4.828125 0 2.78125-1.421875 4.671875-3.546875 4.671875-2.078125 0-3.421875-1.875-3.421875-4.75s1.34375-4.75 3.421875-4.75zm0 0"/></symbol><symbol id="af" overflow="visible"><path d="m12.5-1.140625c-.203125.046875-.296875.046875-.421875.046875-.671875 0-1.046875-.359375-1.046875-.96875v-7.1875c0-2.1875-1.59375-3.34375-4.609375-3.34375-1.796875 0-3.21875.515625-4.0625 1.421875-.5625.625-.796875 1.328125-.84375 2.546875h1.96875c.15625-1.5 1.046875-2.171875 2.875-2.171875 1.78125 0 2.734375.65625 2.734375 1.828125v.5c-.03125.84375-.4375 1.15625-2.03125 1.359375-2.765625.359375-3.1875.453125-3.9375.75-1.421875.609375-2.140625 1.6875-2.140625 3.28125 0 2.21875 1.546875 3.609375 4.015625 3.609375 1.546875 0 2.78125-.53125 4.15625-1.796875.140625 1.265625.75 1.796875 2.015625 1.796875.421875 0 .671875-.046875 1.328125-.203125zm-3.40625-2.71875c0 .65625-.1875 1.046875-.765625 1.59375-.796875.71875-1.765625 1.09375-2.90625 1.09375-1.515625 0-2.40625-.71875-2.40625-1.953125 0-1.296875.84375-1.953125 2.9375-2.25 2.09375-.28125 2.484375-.375 3.140625-.671875zm0 0"/></symbol><symbol id="ag" overflow="visible"><path d="m9.0625-12.25-3.375 9.53125-3.140625-9.53125h-2.078125l4.140625 12.296875-.75 1.9375c-.328125.875-.75 1.1875-1.5625 1.1875-.328125 0-.609375-.046875-1.03125-.140625v1.765625c.390625.203125.796875.296875 1.3125.296875.625 0 1.296875-.203125 1.8125-.578125.609375-.453125.96875-.96875 1.34375-1.9375l5.4375-14.828125zm0 0"/></symbol><symbol id="ah" overflow="visible"><path d="m4.015625-5.953125 2.78125-2.796875 6.015625 8.75h2.5625l-7-10.09375 6.9375-6.953125h-2.8125l-8.484375 8.625v-8.625h-2.171875v17.046875h2.171875zm0 0"/></symbol><symbol id="ai" overflow="visible"><path d="m6.359375-12.59375c-3.453125 0-5.515625 2.453125-5.515625 6.5625 0 4.140625 2.0625 6.5625 5.53125 6.5625s5.546875-2.453125 5.546875-6.46875c0-4.25-2.015625-6.65625-5.5625-6.65625zm.015625 1.796875c2.203125 0 3.515625 1.796875 3.515625 4.84375 0 2.890625-1.359375 4.6875-3.515625 4.6875-2.171875 0-3.5-1.796875-3.5-4.765625s1.328125-4.765625 3.5-4.765625zm.59375-6.5-2.25 3.453125h1.40625l3.484375-3.453125zm0 0"/></symbol><symbol id="aj" overflow="visible"><path d="m6.359375-12.59375c-3.453125 0-5.515625 2.453125-5.515625 6.5625 0 4.140625 2.0625 6.5625 5.53125 6.5625s5.546875-2.453125 5.546875-6.46875c0-4.25-2.015625-6.65625-5.5625-6.65625zm.015625 1.796875c2.203125 0 3.515625 1.796875 3.515625 4.84375 0 2.890625-1.359375 4.6875-3.515625 4.6875-2.171875 0-3.5-1.796875-3.5-4.765625s1.328125-4.765625 3.5-4.765625zm-.765625-6.5-2.265625 3.5h1.40625l3.484375-3.5zm4.0625 0-2.265625 3.5h1.40625l3.484375-3.5zm0 0"/></symbol><symbol id="ak" overflow="visible"><path d="m4.140625-12.25h-1.9375v12.25h1.9375zm-.375-5.046875-2.25 3.453125h1.40625l3.484375-3.453125zm0 0"/></symbol><symbol id="al" overflow="visible"><path d="m6.03125-12.25h-2.03125v-1.921875c0-.8125.4375-1.234375 1.359375-1.234375.15625 0 .234375 0 .671875.03125v-1.625c-.4375-.09375-.703125-.109375-1.09375-.109375-1.8125 0-2.875 1.03125-2.875 2.78125v2.078125h-1.640625v1.59375h1.640625v10.65625h1.9375v-10.65625h2.03125zm0 0"/></symbol><symbol id="am" overflow="visible"><path d="m1.265625-17.046875v17.046875h1.75v-1.5625c.9375 1.421875 2.171875 2.09375 3.875 2.09375 3.234375 0 5.328125-2.640625 5.328125-6.703125 0-3.96875-1.984375-6.421875-5.234375-6.421875-1.671875 0-2.875.625-3.78125 2v-6.453125zm5.34375 6.265625c2.171875 0 3.578125 1.90625 3.578125 4.828125 0 2.78125-1.4375 4.671875-3.578125 4.671875-2.078125 0-3.40625-1.875-3.40625-4.75s1.328125-4.75 3.40625-4.75zm0 0"/></symbol><symbol id="an" overflow="visible"><path d="m11.96875-2.53125c0 .375-.125.796875-.390625 1.09375-.78125.953125-2.609375 2.125-4.046875 3.03125s-3.25 2.109375-4.421875 2.453125c-.15625.046875-.34375.078125-.5.078125-.828125 0-1.59375-.640625-1.59375-1.59375 0-.375.125-.796875.390625-1.09375.796875-.953125 2.609375-2.125 4.046875-3.03125s3.25-2.109375 4.421875-2.453125c.15625-.046875.34375-.078125.5-.078125.828125 0 1.59375.640625 1.59375 1.59375zm-1.9375-2.578125c-2.84375 0-5.140625.609375-7.15625 1.96875-1.203125.828125-2 2.125-2.453125 3.515625-.234375.6875-.421875 1.4375-.421875 2.15625 0 1.78125 1.28125 2.578125 2.953125 2.578125 2.84375 0 5.15625-.609375 7.15625-1.96875 1.203125-.828125 2-2.125 2.453125-3.515625.234375-.6875.421875-1.4375.421875-2.15625 0-1.78125-1.28125-2.578125-2.953125-2.578125zm0 0"/></symbol><symbol id="ao" overflow="visible"><path d="m8.40625-5.109375c-1.59375 0-3.109375.53125-4.46875 1.359375-1.78125 1.0625-3.9375 2.921875-3.9375 5.609375 0 2.234375 1.96875 3.25 3.96875 3.25 1.59375 0 3.109375-.53125 4.46875-1.359375 1.78125-1.0625 3.90625-2.921875 3.90625-5.609375 0-2.234375-1.9375-3.25-3.9375-3.25zm0 0"/></symbol><symbol id="ap" overflow="visible"><path d="m13.890625 0c.15625 0 .3125-.15625.3125-.296875v-5.3125c0-.140625-.15625-.296875-.3125-.296875h-13.59375c-.140625 0-.296875.15625-.296875.296875v5.3125c0 .140625.15625.296875.296875.296875zm0 0"/></symbol><symbol id="aq" overflow="visible"><path d="m14.15625-9.84375c-.609375-2.65625-1.328125-5.265625-2.078125-7.875 3.640625-4.125 6.921875-8.359375 6.921875-13.8125 0-4.28125-2.34375-10.421875-4.984375-13.59375-.203125-.15625-.421875-.15625-.609375 0-3.59375 2.609375-5.6875 6.765625-5.6875 11.171875 0 1.96875.046875 3.890625.265625 5.828125.265625 2.453125.90625 4.84375 1.59375 7.234375-4.46875 5.0625-9.5 9.90625-9.5 16.65625 0 7.609375 5.484375 14.078125 12.609375 14.078125 1.171875 0 2.265625-.109375 3.359375-.296875.125 1.203125.1875 2.421875.1875 3.625 0 .6875-.03125 1.328125-.0625 2.015625-.234375 3.75-2.546875 7.1875-6.0625 7.265625-.03125 0-.078125.03125-.109375.03125-1.9375 0-3.609375-1.09375-4.59375-2.640625.421875.1875.875.328125 1.328125.328125 1.96875 0 3.59375-1.625 3.59375-3.59375 0-2.109375-1.546875-3.9375-3.59375-3.9375-2.234375 0-4.234375 1.75-4.234375 3.9375 0 4.09375 3.296875 7.390625 7.375 7.390625 4.46875 0 7.546875-4.015625 7.8125-8.5625.03125-.71875.03125-1.390625.03125-2.125 0-1.359375-.078125-2.71875-.1875-4.078125.984375-.3125 1.921875-.765625 2.765625-1.40625 2.796875-2.078125 4.046875-5 4.046875-7.875 0-5-3.78125-9.796875-9.609375-9.796875-.203125 0-.390625.03125-.578125.03125zm3.21875 17.609375c-.53125-4.703125-1.390625-9.171875-2.34375-13.59375 4.15625.34375 6.78125 3.828125 6.78125 7.296875 0 2.65625-1.828125 5.390625-4.4375 6.296875zm-14.6875-8.9375c0-6.0625 4.09375-10.640625 8.171875-15.21875.609375 2.234375 1.21875 4.46875 1.75 6.734375-3.828125.875-5.984375 4.09375-5.984375 7.421875 0 2.65625 1.359375 5.34375 4.390625 6.96875.109375.03125.234375.078125.34375.078125.421875 0 .75-.390625.75-.796875 0-.1875-.109375-.375-.265625-.53125-2.109375-1.21875-3.09375-3.03125-3.09375-4.703125 0-2.21875 1.734375-4.234375 4.734375-4.578125.984375 4.546875 1.84375 9.046875 2.421875 13.90625-1.03125.140625-2.046875.21875-3.109375.21875-5.15625 0-10.109375-4.359375-10.109375-9.5zm12.875-38.578125c.640625 2 .796875 2.984375.796875 5.1875 0 4.8125-2.546875 8.625-5.640625 12.296875-.6875-2.375-1.25-4.6875-1.25-7.5625 0-4.203125 2.34375-8.03125 6.09375-9.921875zm0 0"/></symbol><symbol id="ar" overflow="visible"><path d="m.953125-1.671875c.03125-1.25.859375-2.34375 2.03125-2.34375 1.140625 0 1.671875 1.328125 1.671875 2.609375 0 2.234375-1.890625 3.828125-3.640625 5.265625-.0625-.828125-.140625-1.65625-.140625-2.5 0-.140625.03125-.265625.03125-.40625zm-1.90625-15.859375.421875 22.6875c0 .453125.34375.78125.796875.78125.6875 0 .984375-.78125 1.515625-1.203125 2.390625-1.9375 5.796875-3.296875 5.796875-6.40625 0-2.03125-1.515625-3.78125-3.53125-3.78125-1.203125 0-2.34375.421875-3.328125 1.140625l.234375-13.21875c-.3125-.15625-.609375-.265625-.953125-.265625s-.640625.109375-.953125.265625zm0 0"/></symbol><symbol id="as" overflow="visible"><path d="m8.140625-4.3125c2.984375 0 5.21875 2.3125 5.21875 5.296875 0 1.734375-.75 3.328125-2.640625 3.328125-3 0-5.265625-2.3125-5.265625-5.296875 0-1.734375.796875-3.328125 2.6875-3.328125zm10.671875 4.3125c0-1.625-1.328125-2.796875-2.765625-3.59375-2.03125-1.09375-4.3125-1.515625-6.625-1.515625-2.296875 0-4.609375.421875-6.65625 1.515625-1.4375.796875-2.765625 1.96875-2.765625 3.59375s1.328125 2.796875 2.765625 3.59375c2.046875 1.09375 4.359375 1.515625 6.65625 1.515625 2.3125 0 4.59375-.421875 6.625-1.515625 1.4375-.796875 2.765625-1.96875 2.765625-3.59375zm0 0"/></symbol><symbol id="at" overflow="visible"><path d="m4.953125-10.1875v10.1875h2.921875v-14.765625h-1.9375c-.453125 1.75-1.984375 2.640625-4.515625 2.640625v1.9375zm0 0"/></symbol><symbol id="au" overflow="visible"><path d="m4.453125-3.046875h-3.125v3.046875h3.125zm0 0"/></symbol><symbol id="av" overflow="visible"><path d="m8.453125-1.796875c0 .265625-.078125.5625-.265625.78125-.5625.671875-1.84375 1.5-2.859375 2.140625s-2.296875 1.5-3.140625 1.734375c-.09375.03125-.234375.0625-.34375.0625-.578125 0-1.125-.453125-1.125-1.125 0-.265625.078125-.5625.265625-.78125.5625-.671875 1.859375-1.5 2.875-2.140625s2.296875-1.5 3.125-1.734375c.109375-.03125.25-.0625.34375-.0625.59375 0 1.125.453125 1.125 1.125zm-1.359375-1.8125c-2.015625 0-3.640625.421875-5.0625 1.390625-.859375.59375-1.421875 1.5-1.734375 2.484375-.15625.484375-.296875 1.015625-.296875 1.53125 0 1.25.90625 1.8125 2.09375 1.8125 2 0 3.640625-.421875 5.046875-1.390625.859375-.59375 1.421875-1.5 1.75-2.484375.15625-.484375.296875-1.015625.296875-1.53125 0-1.25-.921875-1.8125-2.09375-1.8125zm0 0"/></symbol><g clip-path="url(#a)"><path d="m3.242188 6328.05625h5946.25" fill="none" stroke="#000" stroke-linecap="round" stroke-miterlimit="10" stroke-width="6.52105" transform="matrix(.1 0 0 -.1 0 708.54)"/></g><g clip-path="url(#b)"><path d="m3.242188 6422.704687h5946.25" fill="none" stroke="#000" stroke-linecap="round" stroke-miterlimit="10" stroke-width="6.52105" transform="matrix(.1 0 0 -.1 0 708.54)"/></g><g clip-path="url(#c)"><path d="m3.242188 6517.353125h5946.25" fill="none" stroke="#000" stroke-linecap="round" stroke-miterlimit="10" stroke-width="6.52105" transform="matrix(.1 0 0 -.1 0 708.54)"/></g><g clip-path="url(#d)"><path d="m3.242188 6612.001562h5946.25" fill="none" stroke="#000" stroke-linecap="round" stroke-miterlimit="10" stroke-width="6.52105" transform="matrix(.1 0 0 -.1 0 708.54)"/></g><g clip-path="url(#e)"><path d="m3.242188 6706.65h5946.25" fill="none" stroke="#000" stroke-linecap="round" stroke-miterlimit="10" stroke-width="6.52105" transform="matrix(.1 0 0 -.1 0 708.54)"/></g><path d="m3566.914062 6203.876562h4.492188v286.09375h-4.492188zm0 0" style="fill:none;stroke-width:3.98456;stroke-linecap:round;stroke-linejoin:round;stroke:#000;stroke-miterlimit:10" transform="matrix(.1 0 0 -.1 0 708.54)"/><path d="m356.691406 88.152344h.449219v-28.605469h-.449219zm0 0"/><path d="m4876.132812 6450.0875h4.492188v301.875h-4.492188zm0 0" style="fill:none;stroke-width:3.98456;stroke-linecap:round;stroke-linejoin:round;stroke:#000;stroke-miterlimit:10" transform="matrix(.1 0 0 -.1 0 708.54)"/><path d="m487.613281 63.53125h.449219v-30.1875h-.449219zm0 0"/><use x="455.919" xlink:href="#F" y="108.859"/><use x="468.844398" xlink:href="#G" y="108.859"/><use x="481.770187" xlink:href="#H" y="108.859"/><use x="501.159278" xlink:href="#I" y="108.859"/><use x="475.2784" xlink:href="#an" y="66.2688"/><path d="m4282.226562 6497.43125h4.492188v301.875h-4.492188zm0 0" style="fill:none;stroke-width:3.98456;stroke-linecap:round;stroke-linejoin:round;stroke:#000;stroke-miterlimit:10" transform="matrix(.1 0 0 -.1 0 708.54)"/><path d="m428.222656 58.796875h.449219v-30.1875h-.449219zm0 0"/><use x="410.132" xlink:href="#J" y="108.859"/><use x="421.697639" xlink:href="#K" y="108.859"/><use x="415.88473" xlink:href="#an" y="61.5363"/><use x="345.04093" xlink:href="#L" y="108.859"/><use x="356.265943" xlink:href="#M" y="108.859"/><use x="369.191341" xlink:href="#J" y="108.859"/><use x="356.49213" xlink:href="#an" y="56.8043"/><path d="m3025.664062 6235.439062h4.453126v308.632813h-4.453126zm0 0" style="fill:none;stroke-width:3.98456;stroke-linecap:round;stroke-linejoin:round;stroke:#000;stroke-miterlimit:10" transform="matrix(.1 0 0 -.1 0 708.54)"/><path d="m302.566406 84.996094h.445313v-30.863282h-.445313zm0 0"/><use x="295.619" xlink:href="#N" y="108.859"/><use x="308.544789" xlink:href="#O" y="108.859"/><use x="302.36548" xlink:href="#ao" y="52.0719"/><path d="m1638.125 6060.946875h57.265625v3.242187h-57.265625zm0 0" style="fill:none;stroke-width:5.21494;stroke-linecap:round;stroke-linejoin:round;stroke:#000;stroke-miterlimit:10" transform="matrix(.1 0 0 -.1 0 708.54)"/><path d="m163.8125 102.445312h5.726562v-.324218h-5.726562zm0 0"/><path d="m3303.945312 6060.946875h57.226563v3.242187h-57.226563zm0 0" style="fill:none;stroke-width:5.21494;stroke-linecap:round;stroke-linejoin:round;stroke:#000;stroke-miterlimit:10" transform="matrix(.1 0 0 -.1 0 708.54)"/><path d="m330.394531 102.445312h5.722657v-.324218h-5.722657zm0 0"/><path d="m3926.640625 6060.946875h57.265625v3.242187h-57.265625zm0 0" style="fill:none;stroke-width:5.21494;stroke-linecap:round;stroke-linejoin:round;stroke:#000;stroke-miterlimit:10" transform="matrix(.1 0 0 -.1 0 708.54)"/><path d="m392.664062 102.445312h5.726563v-.324218h-5.726563zm0 0"/><path d="m4424.0625 6060.946875h57.265625v3.242187h-57.265625zm0 0" style="fill:none;stroke-width:5.21494;stroke-linecap:round;stroke-linejoin:round;stroke:#000;stroke-miterlimit:10" transform="matrix(.1 0 0 -.1 0 708.54)"/><path d="m442.40625 102.445312h5.726562v-.324218h-5.726562zm0 0"/><use x="534.671" xlink:href="#ap" y="56.804"/><use x="7.572" xlink:href="#aq" y="66.26845"/><path d="m938.046875 6450.0875h4.492187v301.875h-4.492187zm0 0" style="fill:none;stroke-width:3.98456;stroke-linecap:round;stroke-linejoin:round;stroke:#000;stroke-miterlimit:10" transform="matrix(.1 0 0 -.1 0 708.54)"/><path d="m93.804688 63.53125h.445312v-30.1875h-.445312zm0 0"/><use x="48.8152" xlink:href="#at" y="108.859"/><use x="60.38084" xlink:href="#au" y="108.859"/><use x="75.6281" xlink:href="#P" y="108.859"/><use x="92.465221" xlink:href="#Q" y="108.859"/><use x="41.6789" xlink:href="#ar" y="56.8043"/><use x="50.23281" xlink:href="#ar" y="42.6074"/><path d="m807.421875 6808.99375h5.78125v179.921875h-5.78125zm0 0" style="fill:none;stroke-width:2.89614;stroke-linecap:round;stroke-linejoin:round;stroke:#000;stroke-miterlimit:10" transform="matrix(.1 0 0 -.1 0 708.54)"/><path d="m80.742188 27.640625h.578124v-17.992187h-.578124zm0 0"/><use x="72.2832" xlink:href="#av" y="29.581"/><use x="81.46562" xlink:href="#an" y="66.2685"/><path d="m2043.28125 6395.985937h4.492188v308.671875h-4.492188zm0 0" style="fill:none;stroke-width:3.98456;stroke-linecap:round;stroke-linejoin:round;stroke:#000;stroke-miterlimit:10" transform="matrix(.1 0 0 -.1 0 708.54)"/><path d="m204.328125 68.941406h.449219v-30.867187h-.449219zm0 0"/><use x="179.579" xlink:href="#R" y="108.859"/><use x="185.70166" xlink:href="#G" y="108.859"/><use x="198.627449" xlink:href="#S" y="108.859"/><use x="211.553238" xlink:href="#I" y="108.859"/><use x="192.6192" xlink:href="#ao" y="71.0008"/><use x="246.745" xlink:href="#ao" y="66.26877"/><path d="m1502.03125 6348.68125h4.492188v308.671875h-4.492188zm0 0" style="fill:none;stroke-width:3.98456;stroke-linecap:round;stroke-linejoin:round;stroke:#000;stroke-miterlimit:10" transform="matrix(.1 0 0 -.1 0 708.54)"/><path d="m150.203125 73.671875h.449219v-30.867187h-.449219zm0 0"/><use x="135.573" xlink:href="#T" y="108.859"/><use x="142.036285" xlink:href="#J" y="108.859"/><use x="138.49292" xlink:href="#ao" y="75.7332"/><use x="239.99692" xlink:href="#K" y="108.859"/><use x="252.922709" xlink:href="#S" y="108.859"/><path d="m2584.53125 6443.329687h4.492188v308.632813h-4.492188zm0 0" style="fill:none;stroke-width:3.98456;stroke-linecap:round;stroke-linejoin:round;stroke:#000;stroke-miterlimit:10" transform="matrix(.1 0 0 -.1 0 708.54)"/><path d="m258.453125 64.207031h.449219v-30.863281h-.449219zm0 0"/><g clip-path="url(#f)"><path d="m3.242188 5192.314062h5946.25" style="fill:none;stroke-width:6.52105;stroke-linecap:round;stroke-linejoin:round;stroke:#000;stroke-miterlimit:10" transform="matrix(.1 0 0 -.1 0 708.54)"/></g><g clip-path="url(#g)"><path d="m3.242188 5286.9625h5946.25" style="fill:none;stroke-width:6.52105;stroke-linecap:round;stroke-linejoin:round;stroke:#000;stroke-miterlimit:10" transform="matrix(.1 0 0 -.1 0 708.54)"/></g><g clip-path="url(#h)"><path d="m3.242188 5381.610937h5946.25" style="fill:none;stroke-width:6.52105;stroke-linecap:round;stroke-linejoin:round;stroke:#000;stroke-miterlimit:10" transform="matrix(.1 0 0 -.1 0 708.54)"/></g><g clip-path="url(#i)"><path d="m3.242188 5476.259375h5946.25" style="fill:none;stroke-width:6.52105;stroke-linecap:round;stroke-linejoin:round;stroke:#000;stroke-miterlimit:10" transform="matrix(.1 0 0 -.1 0 708.54)"/></g><g clip-path="url(#j)"><path d="m3.242188 5570.907812h5946.25" style="fill:none;stroke-width:6.52105;stroke-linecap:round;stroke-linejoin:round;stroke:#000;stroke-miterlimit:10" transform="matrix(.1 0 0 -.1 0 708.54)"/></g><path d="m4985.742188 5314.345312h4.492187v301.875h-4.492187zm0 0" style="fill:none;stroke-width:3.98456;stroke-linecap:round;stroke-linejoin:round;stroke:#000;stroke-miterlimit:10" transform="matrix(.1 0 0 -.1 0 708.54)"/><path d="m498.574219 177.105469h.449219v-30.1875h-.449219zm0 0"/><use x="470.706" xlink:href="#U" y="223.698"/><use x="482.44117" xlink:href="#V" y="223.698"/><use x="495.366959" xlink:href="#O" y="223.698"/><use x="508.292357" xlink:href="#W" y="223.698"/><use x="486.2384" xlink:href="#an" y="179.8429"/><path d="m4427.851562 5361.689062h4.492188v301.875h-4.492188zm0 0" style="fill:none;stroke-width:3.98456;stroke-linecap:round;stroke-linejoin:round;stroke:#000;stroke-miterlimit:10" transform="matrix(.1 0 0 -.1 0 708.54)"/><path d="m442.785156 172.371094h.449219v-30.1875h-.449219zm0 0"/><use x="418.316" xlink:href="#X" y="223.698"/><use x="431.241789" xlink:href="#Y" y="223.698"/><use x="443.827735" xlink:href="#U" y="223.698"/><use x="430.4469" xlink:href="#an" y="175.1109"/><path d="m3815 5068.134375h4.492188v292.890625h-4.492188zm0 0" style="fill:none;stroke-width:3.98456;stroke-linecap:round;stroke-linejoin:round;stroke:#000;stroke-miterlimit:10" transform="matrix(.1 0 0 -.1 0 708.54)"/><path d="m381.5 201.726562h.449219v-29.285156h-.449219zm0 0"/><use x="372.002" xlink:href="#R" y="223.698"/><use x="378.294972" xlink:href="#Y" y="223.698"/><use x="391.220761" xlink:href="#Z" y="223.698"/><use x="381.30005" xlink:href="#ao" y="170.3785"/><path d="m3429.960938 5307.5875h4.492187v308.671875h-4.492187zm0 0" style="fill:none;stroke-width:3.98456;stroke-linecap:round;stroke-linejoin:round;stroke:#000;stroke-miterlimit:10" transform="matrix(.1 0 0 -.1 0 708.54)"/><path d="m342.996094 177.78125h.449218v-30.863281h-.449218zm0 0"/><use x="328.367" xlink:href="#V" y="223.698"/><use x="341.292789" xlink:href="#aa" y="223.698"/><use x="331.28692" xlink:href="#ao" y="179.8429"/><path d="m1103.125 4912.548437h57.226562v3.242188h-57.226562zm0 0" style="fill:none;stroke-width:5.21494;stroke-linecap:round;stroke-linejoin:round;stroke:#000;stroke-miterlimit:10" transform="matrix(.1 0 0 -.1 0 708.54)"/><path d="m110.3125 217.285156h5.722656v-.324218h-5.722656zm0 0"/><path d="m1585.195312 4912.548437h57.226563v3.242188h-57.226563zm0 0" style="fill:none;stroke-width:5.21494;stroke-linecap:round;stroke-linejoin:round;stroke:#000;stroke-miterlimit:10" transform="matrix(.1 0 0 -.1 0 708.54)"/><path d="m158.519531 217.285156h5.722657v-.324218h-5.722657zm0 0"/><path d="m2139.023438 4912.548437h57.265624v3.242188h-57.265624zm0 0" style="fill:none;stroke-width:5.21494;stroke-linecap:round;stroke-linejoin:round;stroke:#000;stroke-miterlimit:10" transform="matrix(.1 0 0 -.1 0 708.54)"/><path d="m213.902344 217.285156h5.726562v-.324218h-5.726562zm0 0"/><path d="m3101.601562 4912.548437h57.265626v3.242188h-57.265626zm0 0" style="fill:none;stroke-width:5.21494;stroke-linecap:round;stroke-linejoin:round;stroke:#000;stroke-miterlimit:10" transform="matrix(.1 0 0 -.1 0 708.54)"/><path d="m310.160156 217.285156h5.726563v-.324218h-5.726563zm0 0"/><path d="m3564.21875 4912.548437h57.226562v3.242188h-57.226562zm0 0" style="fill:none;stroke-width:5.21494;stroke-linecap:round;stroke-linejoin:round;stroke:#000;stroke-miterlimit:10" transform="matrix(.1 0 0 -.1 0 708.54)"/><path d="m356.421875 217.285156h5.722656v-.324218h-5.722656zm0 0"/><path d="m4602.695312 4912.548437h57.265626v3.242188h-57.265626zm0 0" style="fill:none;stroke-width:5.21494;stroke-linecap:round;stroke-linejoin:round;stroke:#000;stroke-miterlimit:10" transform="matrix(.1 0 0 -.1 0 708.54)"/><path d="m460.269531 217.285156h5.726563v-.324218h-5.726563zm0 0"/><use x="540.152" xlink:href="#ap" y="170.378"/><use x="134.430528" xlink:href="#ao" y="170.378"/><path d="m807.1875 5099.696875h4.492188v301.835937h-4.492188zm0 0" style="fill:none;stroke-width:3.98456;stroke-linecap:round;stroke-linejoin:round;stroke:#000;stroke-miterlimit:10" transform="matrix(.1 0 0 -.1 0 708.54)"/><path d="m80.71875 198.570312h.449219v-30.183593h-.449219zm0 0"/><use x="76.552" xlink:href="#ab" y="223.698"/><use x="92.199669" xlink:href="#ac" y="223.698"/><use x="80.51919" xlink:href="#an" y="165.6464"/><use x="280.50319" xlink:href="#Z" y="223.698"/><use x="292.408672" xlink:href="#ad" y="223.698"/><use x="41.67819" xlink:href="#ar" y="170.3785"/><use x="50.2321" xlink:href="#ar" y="156.182"/><use x="7.5708" xlink:href="#aq" y="179.8429"/><path d="m2831.132812 5068.134375h4.492188v292.890625h-4.492188zm0 0" style="fill:none;stroke-width:3.98456;stroke-linecap:round;stroke-linejoin:round;stroke:#000;stroke-miterlimit:10" transform="matrix(.1 0 0 -.1 0 708.54)"/><path d="m283.113281 201.726562h.449219v-29.285156h-.449219zm0 0"/><use x="282.913" xlink:href="#ao" y="170.378"/><path d="m2339.179688 5099.696875h4.492187v308.632812h-4.492187zm0 0" style="fill:none;stroke-width:3.98456;stroke-linecap:round;stroke-linejoin:round;stroke:#000;stroke-miterlimit:10" transform="matrix(.1 0 0 -.1 0 708.54)"/><path d="m233.917969 198.570312h.449219v-30.863281h-.449219zm0 0"/><use x="224.337" xlink:href="#ae" y="223.698"/><use x="237.262789" xlink:href="#af" y="223.698"/><use x="250.188578" xlink:href="#aa" y="223.698"/><use x="233.7202" xlink:href="#ao" y="165.6464"/><use x="128.8762" xlink:href="#ac" y="223.698"/><use x="134.148854" xlink:href="#G" y="223.698"/><use x="147.074643" xlink:href="#aa" y="223.698"/><path d="m1838.242188 5068.134375h4.492187v292.890625h-4.492187zm0 0" style="fill:none;stroke-width:3.98456;stroke-linecap:round;stroke-linejoin:round;stroke:#000;stroke-miterlimit:10" transform="matrix(.1 0 0 -.1 0 708.54)"/><path d="m183.824219 201.726562h.449219v-29.285156h-.449219zm0 0"/><use x="170.416" xlink:href="#S" y="223.698"/><use x="183.341789" xlink:href="#af" y="223.698"/><use x="196.267578" xlink:href="#ae" y="223.698"/><use x="183.6258" xlink:href="#ao" y="170.3785"/><path d="m1346.328125 5068.134375h4.492187v292.890625h-4.492187zm0 0" style="fill:none;stroke-width:3.98456;stroke-linecap:round;stroke-linejoin:round;stroke:#000;stroke-miterlimit:10" transform="matrix(.1 0 0 -.1 0 708.54)"/><path d="m134.632812 201.726562h.449219v-29.285156h-.449219zm0 0"/><g clip-path="url(#k)"><path d="m3.242188 4056.571875h5946.25" style="fill:none;stroke-width:6.52105;stroke-linecap:round;stroke-linejoin:round;stroke:#000;stroke-miterlimit:10" transform="matrix(.1 0 0 -.1 0 708.54)"/></g><g clip-path="url(#l)"><path d="m3.242188 4151.220312h5946.25" style="fill:none;stroke-width:6.52105;stroke-linecap:round;stroke-linejoin:round;stroke:#000;stroke-miterlimit:10" transform="matrix(.1 0 0 -.1 0 708.54)"/></g><g clip-path="url(#m)"><path d="m3.242188 4245.86875h5946.25" style="fill:none;stroke-width:6.52105;stroke-linecap:round;stroke-linejoin:round;stroke:#000;stroke-miterlimit:10" transform="matrix(.1 0 0 -.1 0 708.54)"/></g><g clip-path="url(#n)"><path d="m3.242188 4340.517187h5946.25" style="fill:none;stroke-width:6.52105;stroke-linecap:round;stroke-linejoin:round;stroke:#000;stroke-miterlimit:10" transform="matrix(.1 0 0 -.1 0 708.54)"/></g><g clip-path="url(#o)"><path d="m3.242188 4435.165625h5946.25" style="fill:none;stroke-width:6.52105;stroke-linecap:round;stroke-linejoin:round;stroke:#000;stroke-miterlimit:10" transform="matrix(.1 0 0 -.1 0 708.54)"/></g><use x="486.746" xlink:href="#J" y="336.007"/><use x="498.480779" xlink:href="#af" y="336.007"/><use x="511.406568" xlink:href="#O" y="336.007"/><use x="524.162826" xlink:href="#I" y="336.007"/><use x="502.194" xlink:href="#an" y="302.8812"/><path d="m4587.382812 4131.298437h4.492188v301.875h-4.492188zm0 0" style="fill:none;stroke-width:3.98456;stroke-linecap:round;stroke-linejoin:round;stroke:#000;stroke-miterlimit:10" transform="matrix(.1 0 0 -.1 0 708.54)"/><path d="m458.738281 295.410156h.449219v-30.1875h-.449219zm0 0"/><use x="434.186" xlink:href="#F" y="336.007"/><use x="446.942258" xlink:href="#af" y="336.007"/><use x="459.867656" xlink:href="#J" y="336.007"/><use x="446.4016" xlink:href="#an" y="298.1492"/><use x="383.7809" xlink:href="#ar" y="288.68475"/><path d="m4063.75 4219.189062h4.492188v308.632813h-4.492188zm0 0" style="fill:none;stroke-width:3.98456;stroke-linecap:round;stroke-linejoin:round;stroke:#000;stroke-miterlimit:10" transform="matrix(.1 0 0 -.1 0 708.54)"/><path d="m406.375 286.625h.449219v-30.867188h-.449219zm0 0"/><use x="382.646" xlink:href="#X" y="336.007"/><use x="395.571789" xlink:href="#af" y="336.007"/><use x="408.497578" xlink:href="#aa" y="336.007"/><use x="413.770244" xlink:href="#aa" y="336.007"/><use x="394.6651" xlink:href="#ao" y="288.6847"/><path d="m3503.28125 4171.845312h4.492188v308.632813h-4.492188zm0 0" style="fill:none;stroke-width:3.98456;stroke-linecap:round;stroke-linejoin:round;stroke:#000;stroke-miterlimit:10" transform="matrix(.1 0 0 -.1 0 708.54)"/><path d="m350.328125 291.355469h.449219v-30.863281h-.449219zm0 0"/><use x="322.092" xlink:href="#H" y="336.007"/><use x="341.481066" xlink:href="#G" y="336.007"/><use x="354.577168" xlink:href="#F" y="336.007"/><use x="338.6182" xlink:href="#ao" y="293.4168"/><path d="m1056.679688 3789.4625h57.265624v3.242187h-57.265624zm0 0" style="fill:none;stroke-width:5.21494;stroke-linecap:round;stroke-linejoin:round;stroke:#000;stroke-miterlimit:10" transform="matrix(.1 0 0 -.1 0 708.54)"/><path d="m105.667969 329.59375h5.722656v-.324219h-5.722656zm0 0"/><path d="m1653.710938 3789.4625h57.265624v3.242187h-57.265624zm0 0" style="fill:none;stroke-width:5.21494;stroke-linecap:round;stroke-linejoin:round;stroke:#000;stroke-miterlimit:10" transform="matrix(.1 0 0 -.1 0 708.54)"/><path d="m165.371094 329.59375h5.722656v-.324219h-5.722656zm0 0"/><path d="m2579.0625 3789.4625h57.265625v3.242187h-57.265625zm0 0" style="fill:none;stroke-width:5.21494;stroke-linecap:round;stroke-linejoin:round;stroke:#000;stroke-miterlimit:10" transform="matrix(.1 0 0 -.1 0 708.54)"/><path d="m257.90625 329.59375h5.726562v-.324219h-5.726562zm0 0"/><path d="m3722.109375 3789.4625h57.265625v3.242187h-57.265625zm0 0" style="fill:none;stroke-width:5.21494;stroke-linecap:round;stroke-linejoin:round;stroke:#000;stroke-miterlimit:10" transform="matrix(.1 0 0 -.1 0 708.54)"/><path d="m372.210938 329.59375h5.726562v-.324219h-5.726562zm0 0"/><path d="m4237.539062 3789.4625h57.226563v3.242187h-57.226563zm0 0" style="fill:none;stroke-width:5.21494;stroke-linecap:round;stroke-linejoin:round;stroke:#000;stroke-miterlimit:10" transform="matrix(.1 0 0 -.1 0 708.54)"/><path d="m423.753906 329.59375h5.722656v-.324219h-5.722656zm0 0"/><path d="m4763.125 3789.4625h57.226562v3.242187h-57.226562zm0 0" style="fill:none;stroke-width:5.21494;stroke-linecap:round;stroke-linejoin:round;stroke:#000;stroke-miterlimit:10" transform="matrix(.1 0 0 -.1 0 708.54)"/><path d="m476.3125 329.59375h5.722656v-.324219h-5.722656zm0 0"/><path d="m5145.3125 4083.99375h4.492188v301.875h-4.492188zm0 0" style="fill:none;stroke-width:3.98456;stroke-linecap:round;stroke-linejoin:round;stroke:#000;stroke-miterlimit:10" transform="matrix(.1 0 0 -.1 0 708.54)"/><path d="m514.53125 300.144531h.449219v-30.1875h-.449219zm0 0"/><use x="548.129" xlink:href="#ap" y="283.952"/><use x="116.102" xlink:href="#S" y="336.0067"/><use x="128.687946" xlink:href="#ag" y="336.0067"/><use x="139.912959" xlink:href="#M" y="336.0067"/><use x="152.838748" xlink:href="#Q" y="336.0067"/><use x="132.2032" xlink:href="#ao" y="283.952"/><path d="m928.554688 4178.603125h4.492187v301.875h-4.492187zm0 0" style="fill:none;stroke-width:3.98456;stroke-linecap:round;stroke-linejoin:round;stroke:#000;stroke-miterlimit:10" transform="matrix(.1 0 0 -.1 0 708.54)"/><path d="m92.855469 290.679688h.449219v-30.1875h-.449219zm0 0"/><use x="73.066" xlink:href="#ah" y="336.007"/><use x="88.0332" xlink:href="#M" y="336.007"/><use x="80.51913" xlink:href="#an" y="293.4168"/><path d="m2934.882812 4131.298437h4.492188v301.875h-4.492188zm0 0" style="fill:none;stroke-width:3.98456;stroke-linecap:round;stroke-linejoin:round;stroke:#000;stroke-miterlimit:10" transform="matrix(.1 0 0 -.1 0 708.54)"/><path d="m293.488281 295.410156h.449219v-30.1875h-.449219zm0 0"/><use x="41.6789" xlink:href="#ar" y="283.952"/><use x="50.23281" xlink:href="#ar" y="269.7551"/><use x="7.57151" xlink:href="#aq" y="293.4164"/><use x="268.34051" xlink:href="#H" y="336.0066"/><use x="287.729576" xlink:href="#af" y="336.0066"/><use x="300.485834" xlink:href="#R" y="336.0066"/><use x="281.15141" xlink:href="#an" y="298.1488"/><path d="m2408.4375 4178.603125h4.492188v301.875h-4.492188zm0 0" style="fill:none;stroke-width:3.98456;stroke-linecap:round;stroke-linejoin:round;stroke:#000;stroke-miterlimit:10" transform="matrix(.1 0 0 -.1 0 708.54)"/><path d="m240.84375 290.679688h.449219v-30.1875h-.449219zm0 0"/><use x="216.801" xlink:href="#J" y="336.007"/><use x="228.535779" xlink:href="#U" y="336.007"/><use x="240.270949" xlink:href="#ai" y="336.007"/><use x="228.5065" xlink:href="#an" y="293.4168"/><path d="m1942.617188 4219.189062h4.492187v308.632813h-4.492187zm0 0" style="fill:none;stroke-width:3.98456;stroke-linecap:round;stroke-linejoin:round;stroke:#000;stroke-miterlimit:10" transform="matrix(.1 0 0 -.1 0 708.54)"/><path d="m194.261719 286.625h.449219v-30.867188h-.449219zm0 0"/><use x="175.805" xlink:href="#F" y="336.007"/><use x="188.730789" xlink:href="#aj" y="336.007"/><path d="m1324.023438 3932.392187h4.492187v292.851563h-4.492187zm0 0" style="fill:none;stroke-width:3.98456;stroke-linecap:round;stroke-linejoin:round;stroke:#000;stroke-miterlimit:10" transform="matrix(.1 0 0 -.1 0 708.54)"/><path d="m132.402344 315.300781h.449218v-29.285156h-.449218zm0 0"/><use x="182.552" xlink:href="#ao" y="288.685"/><g clip-path="url(#p)"><path d="m3.242188 2920.829687h5946.25" style="fill:none;stroke-width:6.52105;stroke-linecap:round;stroke-linejoin:round;stroke:#000;stroke-miterlimit:10" transform="matrix(.1 0 0 -.1 0 708.54)"/></g><g clip-path="url(#q)"><path d="m3.242188 3015.478125h5946.25" style="fill:none;stroke-width:6.52105;stroke-linecap:round;stroke-linejoin:round;stroke:#000;stroke-miterlimit:10" transform="matrix(.1 0 0 -.1 0 708.54)"/></g><g clip-path="url(#r)"><path d="m3.242188 3110.126562h5946.25" style="fill:none;stroke-width:6.52105;stroke-linecap:round;stroke-linejoin:round;stroke:#000;stroke-miterlimit:10" transform="matrix(.1 0 0 -.1 0 708.54)"/></g><g clip-path="url(#s)"><path d="m3.242188 3204.775h5946.25" style="fill:none;stroke-width:6.52105;stroke-linecap:round;stroke-linejoin:round;stroke:#000;stroke-miterlimit:10" transform="matrix(.1 0 0 -.1 0 708.54)"/></g><g clip-path="url(#t)"><path d="m3.242188 3299.423437h5946.25" style="fill:none;stroke-width:6.52105;stroke-linecap:round;stroke-linejoin:round;stroke:#000;stroke-miterlimit:10" transform="matrix(.1 0 0 -.1 0 708.54)"/></g><path d="m4810.429688 2826.18125h178.789062" style="fill:none;stroke-width:15.9856;stroke-linecap:round;stroke-linejoin:round;stroke:#000;stroke-miterlimit:10" transform="matrix(.1 0 0 -.1 0 708.54)"/><path d="m2572.617188 2826.18125h169.375" style="fill:none;stroke-width:15.9856;stroke-linecap:round;stroke-linejoin:round;stroke:#000;stroke-miterlimit:10" transform="matrix(.1 0 0 -.1 0 708.54)"/><use x="322.486" xlink:href="#ao" y="421.188"/><path d="m4958.28125 2853.603125h4.492188v301.875h-4.492188zm0 0" fill="none" stroke="#000" stroke-linejoin="round" stroke-miterlimit="10" stroke-width="3.98456" transform="matrix(.1 0 0 -.1 0 708.54)"/><path d="m495.828125 423.179688h.449219v-30.183594h-.449219zm0 0"/><use x="464.131" xlink:href="#F" y="449.581"/><use x="477.056789" xlink:href="#G" y="449.581"/><use x="489.982578" xlink:href="#H" y="449.581"/><use x="509.371669" xlink:href="#W" y="449.581"/><use x="483.4908" xlink:href="#an" y="425.9197"/><path d="m4405.390625 2900.907812h4.492187v301.875h-4.492187zm0 0" fill="none" stroke="#000" stroke-linejoin="round" stroke-miterlimit="10" stroke-width="3.98456" transform="matrix(.1 0 0 -.1 0 708.54)"/><path d="m440.539062 418.449219h.449219v-30.1875h-.449219zm0 0"/><use x="422.45" xlink:href="#J" y="449.581"/><use x="434.015639" xlink:href="#K" y="449.581"/><use x="428.20312" xlink:href="#an" y="421.1876"/><path d="m3852.539062 2948.2125h4.492188v301.875h-4.492188zm0 0" fill="none" stroke="#000" stroke-linejoin="round" stroke-miterlimit="10" stroke-width="3.98456" transform="matrix(.1 0 0 -.1 0 708.54)"/><path d="m385.253906 413.71875h.449219v-30.1875h-.449219zm0 0"/><use x="369.715" xlink:href="#ak" y="449.581"/><use x="376.178285" xlink:href="#S" y="449.581"/><use x="372.91695" xlink:href="#an" y="416.4552"/><path d="m3341.992188 2894.15h4.453124v308.632812h-4.453124zm0 0" fill="none" stroke="#000" stroke-linejoin="round" stroke-miterlimit="10" stroke-width="3.98456" transform="matrix(.1 0 0 -.1 0 708.54)"/><path d="m334.195312 419.128906h.449219v-30.867187h-.449219zm0 0"/><use x="303.579" xlink:href="#S" y="449.581"/><use x="316.504789" xlink:href="#af" y="449.581"/><use x="329.261047" xlink:href="#F" y="449.581"/><use x="342.017304" xlink:href="#ag" y="449.581"/><path d="m1562.1875 2653.720312h57.226562v3.242188h-57.226562zm0 0" fill="none" stroke="#000" stroke-linejoin="round" stroke-miterlimit="10" stroke-width="5.21494" transform="matrix(.1 0 0 -.1 0 708.54)"/><path d="m156.21875 443.167969h5.722656v-.324219h-5.722656zm0 0"/><path d="m4029.140625 2653.720312h57.265625v3.242188h-57.265625zm0 0" fill="none" stroke="#000" stroke-linejoin="round" stroke-miterlimit="10" stroke-width="5.21494" transform="matrix(.1 0 0 -.1 0 708.54)"/><path d="m402.914062 443.167969h5.726563v-.324219h-5.726563zm0 0"/><path d="m4526.71875 2653.720312h57.265625v3.242188h-57.265625zm0 0" fill="none" stroke="#000" stroke-linejoin="round" stroke-miterlimit="10" stroke-width="5.21494" transform="matrix(.1 0 0 -.1 0 708.54)"/><path d="m452.671875 443.167969h5.726563v-.324219h-5.726563zm0 0"/><use x="538.778" xlink:href="#ap" y="397.527"/><use x="41.678432" xlink:href="#ar" y="397.527"/><use x="50.233" xlink:href="#ar" y="383.3301"/><path d="m928.554688 2948.2125h4.492187v301.875h-4.492187zm0 0" fill="none" stroke="#000" stroke-linejoin="round" stroke-miterlimit="10" stroke-width="3.98456" transform="matrix(.1 0 0 -.1 0 708.54)"/><path d="m92.855469 413.71875h.449219v-30.1875h-.449219zm0 0"/><use x="73.3207" xlink:href="#ab" y="449.581"/><use x="88.968369" xlink:href="#J" y="449.581"/><use x="80.51914" xlink:href="#an" y="416.4552"/><use x="7.57144" xlink:href="#aq" y="406.99075"/><use x="135.80644" xlink:href="#ao" y="411.72278"/><path d="m2712.617188 2846.80625h4.492187v308.671875h-4.492187zm0 0" fill="none" stroke="#000" stroke-linejoin="round" stroke-miterlimit="10" stroke-width="3.98456" transform="matrix(.1 0 0 -.1 0 708.54)"/><path d="m271.261719 423.859375h.449219v-30.867187h-.449219zm0 0"/><use x="243.025" xlink:href="#H" y="449.581"/><use x="262.414066" xlink:href="#G" y="449.581"/><use x="275.509777" xlink:href="#F" y="449.581"/><use x="259.5508" xlink:href="#ao" y="425.9197"/><path d="m2028.007812 3036.103125h4.453126v308.671875h-4.453126zm0 0" fill="none" stroke="#000" stroke-linejoin="round" stroke-miterlimit="10" stroke-width="3.98456" transform="matrix(.1 0 0 -.1 0 708.54)"/><path d="m202.800781 404.929688h.445313v-30.867188h-.445313zm0 0"/><use x="166.653" xlink:href="#Z" y="449.581"/><use x="178.558092" xlink:href="#ad" y="449.581"/><use x="183.830746" xlink:href="#S" y="449.581"/><use x="196.756535" xlink:href="#R" y="449.581"/><use x="203.21982" xlink:href="#J" y="449.581"/><use x="214.95499" xlink:href="#O" y="449.581"/><use x="191.0882" xlink:href="#ao" y="406.9908"/><path d="m1475.15625 2988.798437h4.492188v308.632813h-4.492188zm0 0" fill="none" stroke="#000" stroke-linejoin="round" stroke-miterlimit="10" stroke-width="3.98456" transform="matrix(.1 0 0 -.1 0 708.54)"/><path d="m147.515625 409.660156h.449219v-30.863281h-.449219zm0 0"/><use x="132.461" xlink:href="#R" y="449.581"/><use x="138.58366" xlink:href="#G" y="449.581"/><g clip-path="url(#u)"><path d="m3.242188 1785.0875h5946.25" style="fill:none;stroke-width:6.52105;stroke-linecap:round;stroke-linejoin:round;stroke:#000;stroke-miterlimit:10" transform="matrix(.1 0 0 -.1 0 708.54)"/></g><g clip-path="url(#v)"><path d="m3.242188 1879.735937h5946.25" style="fill:none;stroke-width:6.52105;stroke-linecap:round;stroke-linejoin:round;stroke:#000;stroke-miterlimit:10" transform="matrix(.1 0 0 -.1 0 708.54)"/></g><g clip-path="url(#w)"><path d="m3.242188 1974.384375h5946.25" style="fill:none;stroke-width:6.52105;stroke-linecap:round;stroke-linejoin:round;stroke:#000;stroke-miterlimit:10" transform="matrix(.1 0 0 -.1 0 708.54)"/></g><g clip-path="url(#x)"><path d="m3.242188 2069.032812h5946.25" style="fill:none;stroke-width:6.52105;stroke-linecap:round;stroke-linejoin:round;stroke:#000;stroke-miterlimit:10" transform="matrix(.1 0 0 -.1 0 708.54)"/></g><g clip-path="url(#y)"><path d="m3.242188 2163.68125h5946.25" style="fill:none;stroke-width:6.52105;stroke-linecap:round;stroke-linejoin:round;stroke:#000;stroke-miterlimit:10" transform="matrix(.1 0 0 -.1 0 708.54)"/></g><path d="m780.703125 1690.478125h178.828125" style="fill:none;stroke-width:15.9856;stroke-linecap:round;stroke-linejoin:round;stroke:#000;stroke-miterlimit:10" transform="matrix(.1 0 0 -.1 0 708.54)"/><path d="m5143.046875 1907.157812h4.453125v301.835938h-4.453125zm0 0" fill="none" stroke="#000" stroke-linejoin="round" stroke-miterlimit="10" stroke-width="3.98456" transform="matrix(.1 0 0 -.1 0 708.54)"/><path d="m514.304688 517.824219h.445312v-30.183594h-.445312zm0 0"/><use x="489.325" xlink:href="#O" y="566.365"/><use x="502.250398" xlink:href="#G" y="566.365"/><use x="515.007046" xlink:href="#R" y="566.365"/><use x="521.129316" xlink:href="#I" y="566.365"/><use x="501.9668" xlink:href="#an" y="520.5654"/><path d="m4682.539062 1954.4625h4.492188v301.875h-4.492188zm0 0" fill="none" stroke="#000" stroke-linejoin="round" stroke-miterlimit="10" stroke-width="3.98456" transform="matrix(.1 0 0 -.1 0 708.54)"/><path d="m468.253906 513.09375h.449219v-30.1875h-.449219zm0 0"/><use x="453.31" xlink:href="#aa" y="566.365"/><use x="458.582666" xlink:href="#G" y="566.365"/><use x="455.91664" xlink:href="#an" y="515.833"/><path d="m4140.46875 1660.907812h4.492188v292.890625h-4.492188zm0 0" fill="none" stroke="#000" stroke-linejoin="round" stroke-miterlimit="10" stroke-width="3.98456" transform="matrix(.1 0 0 -.1 0 708.54)"/><path d="m414.046875 542.449219h.449219v-29.289063h-.449219zm0 0"/><use x="410.333" xlink:href="#al" y="566.365"/><use x="416.796285" xlink:href="#N" y="566.365"/><use x="413.84823" xlink:href="#ao" y="511.1005"/><path d="m3786.953125 1900.360937h4.492187v308.671875h-4.492187zm0 0" fill="none" stroke="#000" stroke-linejoin="round" stroke-miterlimit="10" stroke-width="3.98456" transform="matrix(.1 0 0 -.1 0 708.54)"/><path d="m378.695312 518.503906h.449219v-30.867187h-.449219zm0 0"/><use x="351.139" xlink:href="#U" y="566.365"/><use x="362.873779" xlink:href="#V" y="566.365"/><use x="375.799568" xlink:href="#H" y="566.365"/><use x="366.9843" xlink:href="#ao" y="520.5654"/><path d="m1059.882812 1485.86875h57.265626v3.242187h-57.265626zm0 0" fill="none" stroke="#000" stroke-linejoin="round" stroke-miterlimit="10" stroke-width="5.21494" transform="matrix(.1 0 0 -.1 0 708.54)"/><path d="m105.988281 559.953125h5.726563v-.324219h-5.726563zm0 0"/><path d="m1581.914062 1485.86875h57.265626v3.242187h-57.265626zm0 0" fill="none" stroke="#000" stroke-linejoin="round" stroke-miterlimit="10" stroke-width="5.21494" transform="matrix(.1 0 0 -.1 0 708.54)"/><path d="m158.191406 559.953125h5.722656v-.324219h-5.722656zm0 0"/><path d="m3407.03125 1485.86875h57.265625v3.242187h-57.265625zm0 0" fill="none" stroke="#000" stroke-linejoin="round" stroke-miterlimit="10" stroke-width="5.21494" transform="matrix(.1 0 0 -.1 0 708.54)"/><path d="m340.703125 559.953125h5.726563v-.324219h-5.726563zm0 0"/><path d="m4386.523438 1485.86875h57.265624v3.242187h-57.265624zm0 0" fill="none" stroke="#000" stroke-linejoin="round" stroke-miterlimit="10" stroke-width="5.21494" transform="matrix(.1 0 0 -.1 0 708.54)"/><path d="m438.652344 559.953125h5.726562v-.324219h-5.726562zm0 0"/><path d="m4775.546875 1485.86875h57.226563v3.242187h-57.226563zm0 0" fill="none" stroke="#000" stroke-linejoin="round" stroke-miterlimit="10" stroke-width="5.21494" transform="matrix(.1 0 0 -.1 0 708.54)"/><path d="m477.554688 559.953125h5.722656v-.324219h-5.722656zm0 0"/><use x="548.015" xlink:href="#ap" y="511.101"/><use x="128.935" xlink:href="#ao" y="530.0303"/><path d="m928.554688 1717.860937h4.492187v301.875h-4.492187zm0 0" fill="none" stroke="#000" stroke-linejoin="round" stroke-miterlimit="10" stroke-width="3.98456" transform="matrix(.1 0 0 -.1 0 708.54)"/><path d="m92.855469 536.753906h.449219v-30.1875h-.449219zm0 0"/><use x="73.066" xlink:href="#ah" y="566.365"/><use x="88.0332" xlink:href="#G" y="566.365"/><use x="80.51913" xlink:href="#an" y="539.4943"/><use x="298.74813" xlink:href="#X" y="566.365"/><use x="311.673919" xlink:href="#Y" y="566.365"/><use x="324.259865" xlink:href="#U" y="566.365"/><use x="41.67913" xlink:href="#ar" y="511.1005"/><use x="50.23304" xlink:href="#ar" y="496.904"/><use x="7.57174" xlink:href="#aq" y="520.5653"/><path d="m3110.78125 1692.43125h4.492188v301.875h-4.492188zm0 0" fill="none" stroke="#000" stroke-linejoin="round" stroke-miterlimit="10" stroke-width="3.98456" transform="matrix(.1 0 0 -.1 0 708.54)"/><path d="m311.078125 539.296875h.449219v-30.1875h-.449219zm0 0"/><use x="310.88" xlink:href="#an" y="506.369"/><path d="m2583.242188 1907.157812h4.492187v301.835938h-4.492187zm0 0" fill="none" stroke="#000" stroke-linejoin="round" stroke-miterlimit="10" stroke-width="3.98456" transform="matrix(.1 0 0 -.1 0 708.54)"/><path d="m258.324219 517.824219h.449219v-30.183594h-.449219zm0 0"/><use x="221.357" xlink:href="#X" y="566.365"/><use x="234.282398" xlink:href="#af" y="566.365"/><use x="247.208187" xlink:href="#ac" y="566.365"/><use x="252.480854" xlink:href="#R" y="566.365"/><use x="258.944139" xlink:href="#J" y="566.365"/><use x="270.679309" xlink:href="#O" y="566.365"/><use x="245.9883" xlink:href="#an" y="520.5654"/><use x="116.7453" xlink:href="#F" y="566.365"/><use x="129.501558" xlink:href="#ag" y="566.365"/><use x="140.55704" xlink:href="#G" y="566.365"/><path d="m1929.492188 1853.05625h4.492187v308.632812h-4.492187zm0 0" fill="none" stroke="#000" stroke-linejoin="round" stroke-miterlimit="10" stroke-width="3.98456" transform="matrix(.1 0 0 -.1 0 708.54)"/><path d="m192.949219 523.234375h.449219v-30.863281h-.449219zm0 0"/><use x="168.625" xlink:href="#J" y="566.365"/><use x="180.36017" xlink:href="#G" y="566.365"/><use x="193.285568" xlink:href="#S" y="566.365"/><use x="181.2395" xlink:href="#ao" y="525.2974"/><path d="m1406.445312 1805.7125h4.492188v308.671875h-4.492188zm0 0" fill="none" stroke="#000" stroke-linejoin="round" stroke-miterlimit="10" stroke-width="3.98456" transform="matrix(.1 0 0 -.1 0 708.54)"/><path d="m140.644531 527.96875h.449219v-30.867188h-.449219zm0 0"/><g clip-path="url(#z)"><path d="m3.242188 649.345312h5946.25" style="fill:none;stroke-width:6.52105;stroke-linecap:round;stroke-linejoin:round;stroke:#000;stroke-miterlimit:10" transform="matrix(.1 0 0 -.1 0 708.54)"/></g><g clip-path="url(#A)"><path d="m3.242188 743.99375h5946.25" style="fill:none;stroke-width:6.52105;stroke-linecap:round;stroke-linejoin:round;stroke:#000;stroke-miterlimit:10" transform="matrix(.1 0 0 -.1 0 708.54)"/></g><g clip-path="url(#B)"><path d="m3.242188 838.642187h5946.25" style="fill:none;stroke-width:6.52105;stroke-linecap:round;stroke-linejoin:round;stroke:#000;stroke-miterlimit:10" transform="matrix(.1 0 0 -.1 0 708.54)"/></g><g clip-path="url(#C)"><path d="m3.242188 933.290625h5946.25" style="fill:none;stroke-width:6.52105;stroke-linecap:round;stroke-linejoin:round;stroke:#000;stroke-miterlimit:10" transform="matrix(.1 0 0 -.1 0 708.54)"/></g><g clip-path="url(#D)"><path d="m3.242188 1027.939062h5946.25" style="fill:none;stroke-width:6.52105;stroke-linecap:round;stroke-linejoin:round;stroke:#000;stroke-miterlimit:10" transform="matrix(.1 0 0 -.1 0 708.54)"/></g><path d="m5170.3125 554.735937h266.328125" style="fill:none;stroke-width:15.9856;stroke-linecap:round;stroke-linejoin:round;stroke:#000;stroke-miterlimit:10" transform="matrix(.1 0 0 -.1 0 708.54)"/><g clip-path="url(#E)"><path d="m5933.203125 649.345312v378.59375" fill="none" stroke="#000" stroke-linejoin="round" stroke-miterlimit="10" stroke-width="39.1073" transform="matrix(.1 0 0 -.1 0 708.54)"/></g><path d="m5887.890625 649.345312v378.59375" fill="none" stroke="#000" stroke-linejoin="round" stroke-miterlimit="10" stroke-width="12.389" transform="matrix(.1 0 0 -.1 0 708.54)"/><use x="303.011" xlink:href="#an" y="643.6037"/><path d="m4762.8125 629.423437h4.453125v301.875h-4.453125zm0 0" fill="none" stroke="#000" stroke-linejoin="round" stroke-miterlimit="10" stroke-width="3.98456" transform="matrix(.1 0 0 -.1 0 708.54)"/><path d="m476.277344 645.597656h.449218v-30.1875h-.449218zm0 0"/><use x="457.509" xlink:href="#O" y="676.8244"/><use x="470.434789" xlink:href="#G" y="676.8244"/><use x="463.9422" xlink:href="#an" y="648.3361"/><path d="m4236.835938 669.970312h4.492187v308.671875h-4.492187zm0 0" fill="none" stroke="#000" stroke-linejoin="round" stroke-miterlimit="10" stroke-width="3.98456" transform="matrix(.1 0 0 -.1 0 708.54)"/><path d="m423.683594 641.542969h.449218v-30.867188h-.449218zm0 0"/><use x="399.955" xlink:href="#J" y="676.8244"/><use x="411.689779" xlink:href="#U" y="676.8244"/><use x="423.424949" xlink:href="#K" y="676.8244"/><use x="411.9738" xlink:href="#ao" y="643.6037"/><path d="m3717.1875 717.314062h4.453125v308.632813h-4.453125zm0 0" fill="none" stroke="#000" stroke-linejoin="round" stroke-miterlimit="10" stroke-width="3.98456" transform="matrix(.1 0 0 -.1 0 708.54)"/><path d="m371.714844 636.808594h.449218v-30.863282h-.449218zm0 0"/><use x="353.26" xlink:href="#am" y="676.8244"/><use x="366.185789" xlink:href="#G" y="676.8244"/><use x="360.00648" xlink:href="#ao" y="638.8717"/><path d="m3153.476562 676.767187h4.492188v301.835938h-4.492188zm0 0" fill="none" stroke="#000" stroke-linejoin="round" stroke-miterlimit="10" stroke-width="3.98456" transform="matrix(.1 0 0 -.1 0 708.54)"/><path d="m315.347656 640.863281h.449219v-30.183593h-.449219zm0 0"/><use x="300.404" xlink:href="#aa" y="676.8244"/><use x="305.676666" xlink:href="#aj" y="676.8244"/><path d="m2226.40625 381.298437h57.226562v3.242188h-57.226562zm0 0" fill="none" stroke="#000" stroke-linejoin="round" stroke-miterlimit="10" stroke-width="5.21494" transform="matrix(.1 0 0 -.1 0 708.54)"/><path d="m222.640625 670.414062h5.722656v-.328124h-5.722656zm0 0"/><path d="m2841.71875 381.298437h57.265625v3.242188h-57.265625zm0 0" fill="none" stroke="#000" stroke-linejoin="round" stroke-miterlimit="10" stroke-width="5.21494" transform="matrix(.1 0 0 -.1 0 708.54)"/><path d="m284.171875 670.414062h5.726563v-.328124h-5.726563zm0 0"/><path d="m3866.71875 381.298437h57.226562v3.242188h-57.226562zm0 0" fill="none" stroke="#000" stroke-linejoin="round" stroke-miterlimit="10" stroke-width="5.21494" transform="matrix(.1 0 0 -.1 0 708.54)"/><path d="m386.671875 670.414062h5.722656v-.328124h-5.722656zm0 0"/><path d="m4440.664062 381.298437h57.265626v3.242188h-57.265626zm0 0" fill="none" stroke="#000" stroke-linejoin="round" stroke-miterlimit="10" stroke-width="5.21494" transform="matrix(.1 0 0 -.1 0 708.54)"/><path d="m444.066406 670.414062h5.726563v-.328124h-5.726563zm0 0"/><path d="m4928.945312 381.298437h57.226563v3.242188h-57.226563zm0 0" fill="none" stroke="#000" stroke-linejoin="round" stroke-miterlimit="10" stroke-width="5.21494" transform="matrix(.1 0 0 -.1 0 708.54)"/><path d="m492.894531 670.414062h5.722657v-.328124h-5.722657zm0 0"/><use x="508.153" xlink:href="#H" y="676.8244"/><use x="527.542091" xlink:href="#G" y="676.8244"/><use x="540.298348" xlink:href="#R" y="676.8244"/><use x="546.081163" xlink:href="#W" y="676.8244"/><use x="520.937" xlink:href="#as" y="653.0681"/><use x="146.234" xlink:href="#ao" y="629.4072"/><path d="m928.554688 771.415625h4.492187v301.835937h-4.492187zm0 0" fill="none" stroke="#000" stroke-linejoin="round" stroke-miterlimit="10" stroke-width="3.98456" transform="matrix(.1 0 0 -.1 0 708.54)"/><path d="m92.855469 631.402344h.449219v-30.1875h-.449219zm0 0"/><use x="59.459" xlink:href="#ab" y="676.8244"/><use x="75.106669" xlink:href="#Q" y="676.8244"/><use x="83.440266" xlink:href="#R" y="676.8244"/><use x="89.903552" xlink:href="#J" y="676.8244"/><use x="101.638325" xlink:href="#O" y="676.8244"/><use x="80.5192" xlink:href="#an" y="634.1392"/><use x="41.679" xlink:href="#ar" y="624.67475"/><use x="50.23291" xlink:href="#ar" y="610.47785"/><use x="7.57161" xlink:href="#aq" y="634.13915"/><path d="m1579.453125 811.9625h4.492187v308.632812h-4.492187zm0 0" fill="none" stroke="#000" stroke-linejoin="round" stroke-miterlimit="10" stroke-width="3.98456" transform="matrix(.1 0 0 -.1 0 708.54)"/><path d="m157.945312 627.347656h.449219v-30.867187h-.449219zm0 0"/><path d="m2607.1875 771.415625h4.492188v301.835937h-4.492188zm0 0" fill="none" stroke="#000" stroke-linejoin="round" stroke-miterlimit="10" stroke-width="3.98456" transform="matrix(.1 0 0 -.1 0 708.54)"/><path d="m260.71875 631.402344h.449219v-30.1875h-.449219zm0 0"/><use x="236.081" xlink:href="#O" y="676.8244"/><use x="249.006789" xlink:href="#G" y="676.8244"/><use x="261.932187" xlink:href="#Z" y="676.8244"/><use x="248.381" xlink:href="#an" y="634.1392"/><path d="m2081.25 717.314062h4.492188v308.632813h-4.492188zm0 0" fill="none" stroke="#000" stroke-linejoin="round" stroke-miterlimit="10" stroke-width="3.98456" transform="matrix(.1 0 0 -.1 0 708.54)"/><path d="m208.125 636.808594h.449219v-30.863282h-.449219zm0 0"/><use x="190.262" xlink:href="#G" y="676.8244"/><use x="203.187789" xlink:href="#J" y="676.8244"/><use x="196.41317" xlink:href="#ao" y="638.8717"/><use x="129.70807" xlink:href="#H" y="676.8244"/><use x="149.097149" xlink:href="#G" y="676.8244"/><use x="162.19325" xlink:href="#F" y="676.8244"/><use x="135.34987" xlink:href="#ar" y="629.4072"/></svg>