<svg height="1176.07em" viewBox="0 0 595.28 1176.07" width="595.28em" xmlns="http://www.w3.org/2000/svg" xmlns:xlink="http://www.w3.org/1999/xlink"><clipPath id="a"><path d="m0 83h595.28125v1h-595.28125zm0 0"/></clipPath><clipPath id="b"><path d="m0 72h595.28125v2h-595.28125zm0 0"/></clipPath><clipPath id="c"><path d="m0 62h595.28125v2h-595.28125zm0 0"/></clipPath><clipPath id="d"><path d="m0 51h595.28125v2h-595.28125zm0 0"/></clipPath><clipPath id="e"><path d="m0 41h595.28125v2h-595.28125zm0 0"/></clipPath><clipPath id="f"><path d="m0 218h595.28125v2h-595.28125zm0 0"/></clipPath><clipPath id="g"><path d="m0 208h595.28125v1h-595.28125zm0 0"/></clipPath><clipPath id="h"><path d="m0 197h595.28125v2h-595.28125zm0 0"/></clipPath><clipPath id="i"><path d="m0 187h595.28125v1h-595.28125zm0 0"/></clipPath><clipPath id="j"><path d="m0 176h595.28125v2h-595.28125zm0 0"/></clipPath><clipPath id="k"><path d="m0 346h595.28125v2h-595.28125zm0 0"/></clipPath><clipPath id="l"><path d="m0 336h595.28125v1h-595.28125zm0 0"/></clipPath><clipPath id="m"><path d="m0 325h595.28125v2h-595.28125zm0 0"/></clipPath><clipPath id="n"><path d="m0 315h595.28125v1h-595.28125zm0 0"/></clipPath><clipPath id="o"><path d="m0 304h595.28125v2h-595.28125zm0 0"/></clipPath><clipPath id="p"><path d="m591 302h4.28125v47h-4.28125zm0 0"/></clipPath><clipPath id="q"><path d="m0 479h595.28125v2h-595.28125zm0 0"/></clipPath><clipPath id="r"><path d="m0 469h595.28125v1h-595.28125zm0 0"/></clipPath><clipPath id="s"><path d="m0 458h595.28125v2h-595.28125zm0 0"/></clipPath><clipPath id="t"><path d="m0 448h595.28125v1h-595.28125zm0 0"/></clipPath><clipPath id="u"><path d="m0 437h595.28125v2h-595.28125zm0 0"/></clipPath><clipPath id="v"><path d="m0 605h595.28125v1h-595.28125zm0 0"/></clipPath><clipPath id="w"><path d="m0 594h595.28125v2h-595.28125zm0 0"/></clipPath><clipPath id="x"><path d="m0 584h595.28125v1h-595.28125zm0 0"/></clipPath><clipPath id="y"><path d="m0 573h595.28125v2h-595.28125zm0 0"/></clipPath><clipPath id="z"><path d="m0 563h595.28125v1h-595.28125zm0 0"/></clipPath><clipPath id="A"><path d="m0 730h595.28125v2h-595.28125zm0 0"/></clipPath><clipPath id="B"><path d="m0 720h595.28125v1h-595.28125zm0 0"/></clipPath><clipPath id="C"><path d="m0 709h595.28125v2h-595.28125zm0 0"/></clipPath><clipPath id="D"><path d="m0 699h595.28125v1h-595.28125zm0 0"/></clipPath><clipPath id="E"><path d="m0 688h595.28125v2h-595.28125zm0 0"/></clipPath><clipPath id="F"><path d="m0 856h595.28125v1h-595.28125zm0 0"/></clipPath><clipPath id="G"><path d="m0 845h595.28125v2h-595.28125zm0 0"/></clipPath><clipPath id="H"><path d="m0 835h595.28125v1h-595.28125zm0 0"/></clipPath><clipPath id="I"><path d="m0 824h595.28125v2h-595.28125zm0 0"/></clipPath><clipPath id="J"><path d="m0 814h595.28125v2h-595.28125zm0 0"/></clipPath><clipPath id="K"><path d="m0 981h595.28125v2h-595.28125zm0 0"/></clipPath><clipPath id="L"><path d="m0 971h595.28125v1h-595.28125zm0 0"/></clipPath><clipPath id="M"><path d="m0 960h595.28125v2h-595.28125zm0 0"/></clipPath><clipPath id="N"><path d="m0 950h595.28125v2h-595.28125zm0 0"/></clipPath><clipPath id="O"><path d="m0 939h595.28125v2h-595.28125zm0 0"/></clipPath><clipPath id="P"><path d="m0 1107h595.28125v1h-595.28125zm0 0"/></clipPath><clipPath id="Q"><path d="m0 1096h595.28125v2h-595.28125zm0 0"/></clipPath><clipPath id="R"><path d="m0 1086h595.28125v2h-595.28125zm0 0"/></clipPath><clipPath id="S"><path d="m0 1075h595.28125v2h-595.28125zm0 0"/></clipPath><clipPath id="T"><path d="m0 1065h595.28125v2h-595.28125zm0 0"/></clipPath><clipPath id="U"><path d="m591 1063h4.28125v47h-4.28125zm0 0"/></clipPath><symbol id="V" overflow="visible"><path d="m6.5625-13.53125h-2.21875v-3.71875h-2.140625v3.71875h-1.84375v1.75h1.84375v10.234375c0 1.390625.921875 2.140625 2.59375 2.140625.578125 0 1.046875-.046875 1.765625-.1875v-1.796875c-.3125.078125-.59375.09375-1.03125.09375-.9375 0-1.1875-.25-1.1875-1.203125v-9.28125h2.21875zm0 0"/></symbol><symbol id="W" overflow="visible"><path d="m12.453125 0v-13.53125h-2.140625v7.671875c0 2.765625-1.453125 4.5625-3.703125 4.5625-1.703125 0-2.78125-1.03125-2.78125-2.65625v-9.578125h-2.15625v10.4375c0 2.234375 1.6875 3.6875 4.3125 3.6875 2 0 3.265625-.703125 4.53125-2.484375v1.890625zm-6.125-18.46875h-2.6875v2.65625h2.6875zm4.1875 0h-2.6875v2.65625h2.6875zm0 0"/></symbol><symbol id="X" overflow="visible"><path d="m1.8125-13.53125v13.53125h2.171875v-7.46875c0-2.765625 1.4375-4.5625 3.65625-4.5625 1.703125 0 2.796875 1.03125 2.796875 2.65625v9.375h2.140625v-10.234375c0-2.234375-1.671875-3.6875-4.28125-3.6875-2.015625 0-3.3125.78125-4.5 2.65625v-2.265625zm0 0"/></symbol><symbol id="Y" overflow="visible"><path d="m3.640625-18.828125h-2.140625v18.828125h2.140625v-5.265625l2.09375-2.0625 4.578125 7.328125h2.65625l-5.53125-8.859375 4.703125-4.671875h-2.765625l-5.734375 5.734375zm0 0"/></symbol><symbol id="Z" overflow="visible"><path d="m2.25-2.6875v2.6875h1.546875v.46875c0 1.78125-.328125 2.296875-1.546875 2.34375v.984375c1.703125.046875 2.703125-1.1875 2.703125-3.390625v-3.09375zm0 0"/></symbol><symbol id="aa" overflow="visible"><path d="m1.390625-18.828125v18.828125h1.9375v-1.734375c1.03125 1.578125 2.40625 2.328125 4.296875 2.328125 3.5625 0 5.890625-2.921875 5.890625-7.40625 0-4.390625-2.203125-7.109375-5.796875-7.109375-1.859375 0-3.171875.703125-4.1875 2.21875v-7.125zm5.921875 6.921875c2.40625 0 3.953125 2.09375 3.953125 5.3125 0 3.078125-1.609375 5.171875-3.953125 5.171875-2.296875 0-3.78125-2.0625-3.78125-5.234375 0-3.1875 1.484375-5.25 3.78125-5.25zm0 0"/></symbol><symbol id="ab" overflow="visible"><path d="m12.453125 0v-13.53125h-2.140625v7.671875c0 2.765625-1.453125 4.5625-3.703125 4.5625-1.703125 0-2.78125-1.03125-2.78125-2.65625v-9.578125h-2.15625v10.4375c0 2.234375 1.6875 3.6875 4.3125 3.6875 2 0 3.265625-.703125 4.53125-2.484375v1.890625zm-6.171875-19.109375-2.484375 3.875h1.546875l3.84375-3.875zm4.484375 0-2.46875 3.875h1.546875l3.84375-3.875zm0 0"/></symbol><symbol id="ac" overflow="visible"><path d="m1.78125-13.53125v13.53125h2.171875v-7.03125c.03125-3.25 1.375-4.6875 4.34375-4.625v-2.1875c-.375-.046875-.578125-.078125-.828125-.078125-1.40625 0-2.453125.828125-3.703125 2.84375v-2.453125zm0 0"/></symbol><symbol id="ad" overflow="visible"><path d="m13.25-6.046875c0-2.0625-.15625-3.296875-.546875-4.3125-.875-2.21875-2.9375-3.5625-5.46875-3.5625-3.765625 0-6.203125 2.875-6.203125 7.328125 0 4.46875 2.328125 7.1875 6.15625 7.1875 3.09375 0 5.234375-1.75 5.78125-4.703125h-2.171875c-.59375 1.78125-1.8125 2.71875-3.546875 2.71875-1.359375 0-2.53125-.625-3.25-1.765625-.515625-.765625-.6875-1.546875-.71875-2.890625zm-9.921875-1.75c.1875-2.515625 1.703125-4.140625 3.875-4.140625 2.203125 0 3.71875 1.703125 3.71875 4.140625zm0 0"/></symbol><symbol id="ae" overflow="visible"><path d="m7.03125-13.921875c-3.828125 0-6.09375 2.71875-6.09375 7.265625 0 4.5625 2.265625 7.25 6.109375 7.25 3.828125 0 6.125-2.71875 6.125-7.15625 0-4.703125-2.21875-7.359375-6.140625-7.359375zm.015625 1.984375c2.4375 0 3.875 2 3.875 5.34375 0 3.203125-1.5 5.203125-3.875 5.203125-2.390625 0-3.875-2-3.875-5.265625 0-3.28125 1.484375-5.28125 3.875-5.28125zm-.75-6.53125h-2.6875v2.65625h2.6875zm4.1875 0h-2.6875v2.65625h2.6875zm0 0"/></symbol><symbol id="af" overflow="visible"><path d="m12.78125-18.828125h-2.140625v7c-.90625-1.375-2.34375-2.09375-4.15625-2.09375-3.515625 0-5.8125 2.8125-5.8125 7.125 0 4.578125 2.21875 7.390625 5.890625 7.390625 1.859375 0 3.15625-.703125 4.3125-2.375v1.78125h1.90625zm-5.9375 6.921875c2.328125 0 3.796875 2.046875 3.796875 5.296875 0 3.125-1.5 5.1875-3.765625 5.1875-2.375 0-3.953125-2.09375-3.953125-5.234375 0-3.15625 1.578125-5.25 3.921875-5.25zm0 0"/></symbol><symbol id="ag" overflow="visible"><path d="m13.25-6.046875c0-2.0625-.15625-3.296875-.546875-4.3125-.875-2.21875-2.9375-3.5625-5.46875-3.5625-3.765625 0-6.203125 2.875-6.203125 7.328125 0 4.46875 2.328125 7.1875 6.15625 7.1875 3.09375 0 5.234375-1.75 5.78125-4.703125h-2.171875c-.59375 1.78125-1.8125 2.71875-3.546875 2.71875-1.359375 0-2.53125-.625-3.25-1.765625-.515625-.765625-.6875-1.546875-.71875-2.890625zm-9.921875-1.75c.1875-2.515625 1.703125-4.140625 3.875-4.140625 2.203125 0 3.71875 1.703125 3.71875 4.140625zm4.625-11.3125-2.484375 3.8125h1.5625l3.84375-3.8125zm0 0"/></symbol><symbol id="ah" overflow="visible"><path d="m13.8125-1.265625c-.234375.046875-.328125.046875-.453125.046875-.75 0-1.171875-.375-1.171875-1.046875v-7.96875c0-2.390625-1.75-3.6875-5.078125-3.6875-2 0-3.578125.5625-4.5 1.578125-.625.6875-.875 1.46875-.9375 2.8125h2.171875c.1875-1.65625 1.171875-2.40625 3.1875-2.40625 1.953125 0 3.015625.734375 3.015625 2.015625v.578125c-.03125.921875-.484375 1.265625-2.25 1.484375-3.046875.390625-3.515625.5-4.328125.828125-1.578125.671875-2.390625 1.859375-2.390625 3.625 0 2.453125 1.71875 4 4.453125 4 1.703125 0 3.0625-.59375 4.59375-1.984375.15625 1.390625.828125 1.984375 2.21875 1.984375.46875 0 .75-.046875 1.46875-.234375zm-3.765625-3c0 .734375-.203125 1.171875-.859375 1.765625-.875.796875-1.9375 1.203125-3.203125 1.203125-1.671875 0-2.65625-.796875-2.65625-2.171875 0-1.40625.9375-2.140625 3.265625-2.46875 2.296875-.3125 2.734375-.421875 3.453125-.75zm0 0"/></symbol><symbol id="ai" overflow="visible"><path d="m10.4375-13.53125v1.953125c-1.09375-1.625-2.28125-2.34375-3.984375-2.34375-3.28125 0-5.546875 3.046875-5.546875 7.390625 0 2.265625.546875 3.921875 1.703125 5.296875 1 1.1875 2.296875 1.828125 3.6875 1.828125 1.625 0 2.796875-.71875 3.9375-2.421875v.6875c0 3.625-1.015625 4.96875-3.703125 4.96875-1.828125 0-2.78125-.734375-3-2.28125h-2.1875c.203125 2.515625 2.1875 4.078125 5.140625 4.078125 1.984375 0 3.640625-.640625 4.515625-1.71875 1.03125-1.265625 1.421875-2.953125 1.421875-6.125v-11.3125zm-3.78125 1.59375c2.28125 0 3.578125 1.921875 3.578125 5.34375 0 3.28125-1.328125 5.203125-3.578125 5.203125-2.21875 0-3.5-1.9375-3.5-5.265625 0-3.3125 1.28125-5.28125 3.5-5.28125zm0 0"/></symbol><symbol id="aj" overflow="visible"><path d="m10.015625-13.53125-3.734375 10.53125-3.46875-10.53125h-2.296875l4.578125 13.578125-.828125 2.15625c-.359375.953125-.828125 1.3125-1.734375 1.3125-.359375 0-.671875-.046875-1.140625-.15625v1.9375c.4375.234375.875.328125 1.453125.328125.6875 0 1.4375-.234375 2.015625-.640625.671875-.484375 1.0625-1.0625 1.46875-2.140625l6.015625-16.375zm0 0"/></symbol><symbol id="ak" overflow="visible"><path d="m11.3125-9.765625c-.03125-2.65625-1.78125-4.15625-4.90625-4.15625-3.15625 0-5.1875 1.625-5.1875 4.140625 0 2.109375 1.078125 3.125 4.28125 3.890625l2.015625.5c1.5.359375 2.09375.890625 2.09375 1.859375 0 1.28125-1.265625 2.140625-3.15625 2.140625-1.15625 0-2.140625-.34375-2.6875-.90625-.328125-.390625-.484375-.78125-.609375-1.734375h-2.28125c.109375 3.125 1.859375 4.625 5.40625 4.625 3.40625 0 5.578125-1.671875 5.578125-4.28125 0-2.015625-1.140625-3.125-3.828125-3.78125l-2.0625-.484375c-1.765625-.421875-2.5-.984375-2.5-1.9375 0-1.265625 1.109375-2.046875 2.859375-2.046875 1.734375 0 2.65625.75 2.71875 2.171875zm0 0"/></symbol><symbol id="al" overflow="visible"><path d="m7.03125-13.921875c-3.828125 0-6.09375 2.71875-6.09375 7.265625 0 4.5625 2.265625 7.25 6.109375 7.25 3.828125 0 6.125-2.71875 6.125-7.15625 0-4.703125-2.21875-7.359375-6.140625-7.359375zm.015625 1.984375c2.4375 0 3.875 2 3.875 5.34375 0 3.203125-1.5 5.203125-3.875 5.203125-2.390625 0-3.875-2-3.875-5.265625 0-3.28125 1.484375-5.28125 3.875-5.28125zm-.84375-7.171875-2.515625 3.875h1.5625l3.84375-3.875zm4.484375 0-2.5 3.875h1.546875l3.84375-3.875zm0 0"/></symbol><symbol id="am" overflow="visible"><path d="m1.8125-13.53125v13.53125h2.171875v-8.5c0-1.953125 1.40625-3.53125 3.171875-3.53125 1.59375 0 2.5.984375 2.5 2.703125v9.328125h2.171875v-8.5c0-1.953125 1.421875-3.53125 3.171875-3.53125 1.578125 0 2.515625 1 2.515625 2.703125v9.328125h2.171875v-10.15625c0-2.421875-1.40625-3.765625-3.9375-3.765625-1.796875 0-2.890625.546875-4.15625 2.0625-.796875-1.4375-1.875-2.0625-3.640625-2.0625-1.8125 0-3.015625.671875-4.15625 2.296875v-1.90625zm0 0"/></symbol><symbol id="an" overflow="visible"><path d="m4.71875-8.578125h10.265625v-2.109375h-10.265625v-6.015625h10.65625v-2.125h-13.046875v18.828125h13.5v-2.125h-11.109375zm0 0"/></symbol><symbol id="ao" overflow="visible"><path d="m10.046875-19.140625c-5.390625 0-9.0625 3.984375-9.0625 9.875 0 5.90625 3.640625 9.859375 9.09375 9.859375 2.296875 0 4.3125-.703125 5.828125-1.984375 2.046875-1.734375 3.265625-4.65625 3.265625-7.734375 0-6.0625-3.59375-10.015625-9.125-10.015625zm0 2.125c4.078125 0 6.71875 3.0625 6.71875 7.84375 0 4.546875-2.71875 7.640625-6.6875 7.640625-4.03125 0-6.6875-3.09375-6.6875-7.734375 0-4.65625 2.65625-7.75 6.65625-7.75zm.78125-7.234375-2.515625 3.8125h1.546875l3.859375-3.8125zm0 0"/></symbol><symbol id="ap" overflow="visible"><path d="m3.921875-18.828125h-2.171875v18.828125h2.171875zm0 0"/></symbol><symbol id="aq" overflow="visible"><path d="m3.875-13.53125h-2.140625v13.53125h2.140625zm0-5.296875h-2.171875v2.71875h2.171875zm0 0"/></symbol><symbol id="ar" overflow="visible"><path d="m1.8125-13.53125v15.5c0 1.34375-.421875 1.78125-1.765625 1.78125-.15625 0-.234375 0-.515625-.03125v1.828125c.265625.0625.390625.078125.734375.078125 2.421875 0 3.6875-.953125 3.6875-2.8125v-16.34375zm2.140625-5.296875h-2.140625v2.71875h2.140625zm0 0"/></symbol><symbol id="as" overflow="visible"><path d="m6.65625-13.53125h-2.234375v-2.125c0-.90625.484375-1.359375 1.5-1.359375.171875 0 .25 0 .734375.015625v-1.78125c-.484375-.09375-.765625-.125-1.203125-.125-1.984375 0-3.1875 1.140625-3.1875 3.078125v2.296875h-1.796875v1.75h1.796875v11.78125h2.15625v-11.78125h2.234375zm0 0"/></symbol><symbol id="at" overflow="visible"><path d="m4.4375-6.59375 3.078125-3.0625 6.640625 9.65625h2.84375l-7.75-11.15625 7.671875-7.671875h-3.109375l-9.375 9.53125v-9.53125h-2.390625v18.828125h2.390625zm0 0"/></symbol><symbol id="au" overflow="visible"><path d="m11.4375-13.53125h-10.09375v1.875h7.546875l-8.09375 9.71875v1.9375h11v-1.890625h-8.390625l8.03125-9.734375zm0 0"/></symbol><symbol id="av" overflow="visible"><path d="m12.09375 0 5.28125-15.78125v15.78125h2.28125v-18.828125h-3.328125l-5.484375 16.40625-5.578125-16.40625h-3.328125v18.828125h2.265625v-15.78125l5.359375 15.78125zm0 0"/></symbol><symbol id="aw" overflow="visible"><path d="m7.03125-13.921875c-3.828125 0-6.09375 2.71875-6.09375 7.265625 0 4.5625 2.265625 7.25 6.109375 7.25 3.828125 0 6.125-2.71875 6.125-7.15625 0-4.703125-2.21875-7.359375-6.140625-7.359375zm.015625 1.984375c2.4375 0 3.875 2 3.875 5.34375 0 3.203125-1.5 5.203125-3.875 5.203125-2.390625 0-3.875-2-3.875-5.265625 0-3.28125 1.484375-5.28125 3.875-5.28125zm.65625-7.171875-2.484375 3.8125h1.546875l3.84375-3.8125zm0 0"/></symbol><symbol id="ax" overflow="visible"><path d="m12.453125 0v-13.53125h-2.140625v7.671875c0 2.765625-1.453125 4.5625-3.703125 4.5625-1.703125 0-2.78125-1.03125-2.78125-2.65625v-9.578125h-2.15625v10.4375c0 2.234375 1.6875 3.6875 4.3125 3.6875 2 0 3.265625-.703125 4.53125-2.484375v1.890625zm0 0"/></symbol><symbol id="ay" overflow="visible"><path d="m13.8125-1.265625c-.234375.046875-.328125.046875-.453125.046875-.75 0-1.171875-.375-1.171875-1.046875v-7.96875c0-2.390625-1.75-3.6875-5.078125-3.6875-2 0-3.578125.5625-4.5 1.578125-.625.6875-.875 1.46875-.9375 2.8125h2.171875c.1875-1.65625 1.171875-2.40625 3.1875-2.40625 1.953125 0 3.015625.734375 3.015625 2.015625v.578125c-.03125.921875-.484375 1.265625-2.25 1.484375-3.046875.390625-3.515625.5-4.328125.828125-1.578125.671875-2.390625 1.859375-2.390625 3.625 0 2.453125 1.71875 4 4.453125 4 1.703125 0 3.0625-.59375 4.59375-1.984375.15625 1.390625.828125 1.984375 2.21875 1.984375.46875 0 .75-.046875 1.46875-.234375zm-3.765625-3c0 .734375-.203125 1.171875-.859375 1.765625-.875.796875-1.9375 1.203125-3.203125 1.203125-1.671875 0-2.65625-.796875-2.65625-2.171875 0-1.40625.9375-2.140625 3.265625-2.46875 2.296875-.3125 2.734375-.421875 3.453125-.75zm-2.1875-14.84375-2.515625 3.8125h1.546875l3.859375-3.8125zm0 0"/></symbol><symbol id="az" overflow="visible"><path d="m4.9375-2.6875h-2.6875v2.6875h2.6875zm0 0"/></symbol><symbol id="aA" overflow="visible"><path d="m5.375-18.828125h-2.140625v8.734375l.5625 5.75h1l.578125-5.75zm0 16.140625h-2.171875v2.6875h2.171875zm0 0"/></symbol><symbol id="aB" overflow="visible"><path d="m7.359375 0 5.1875-13.53125h-2.421875l-3.828125 10.96875-3.609375-10.96875h-2.421875l4.75 13.53125zm0 0"/></symbol><symbol id="aC" overflow="visible"><path d="m12.171875-8.984375c-.109375-1.328125-.390625-2.171875-.90625-2.921875-.9375-1.265625-2.5625-2.015625-4.453125-2.015625-3.65625 0-6.015625 2.890625-6.015625 7.390625 0 4.359375 2.328125 7.125 6 7.125 3.21875 0 5.265625-1.9375 5.515625-5.25h-2.15625c-.375 2.171875-1.484375 3.265625-3.3125 3.265625-2.375 0-3.796875-1.9375-3.796875-5.140625 0-3.390625 1.390625-5.40625 3.75-5.40625 1.796875 0 2.9375 1.0625 3.203125 2.953125zm0 0"/></symbol><symbol id="aD" overflow="visible"><path d="m12.25-5.65625 1.921875 5.65625h2.6875l-6.609375-18.828125h-3.09375l-6.71875 18.828125h2.5625l1.984375-5.65625zm-.671875-2.015625h-6l3.09375-8.578125zm0 0"/></symbol><symbol id="aE" overflow="visible"><path d="m7.328125-8.0625h-6.140625v1.859375h6.140625zm0 0"/></symbol><symbol id="aF" overflow="visible"><path d="m7.03125-13.921875c-3.828125 0-6.09375 2.71875-6.09375 7.265625 0 4.5625 2.265625 7.25 6.109375 7.25 3.828125 0 6.125-2.71875 6.125-7.15625 0-4.703125-2.21875-7.359375-6.140625-7.359375zm.015625 1.984375c2.4375 0 3.875 2 3.875 5.34375 0 3.203125-1.5 5.203125-3.875 5.203125-2.390625 0-3.875-2-3.875-5.265625 0-3.28125 1.484375-5.28125 3.875-5.28125zm0 0"/></symbol><symbol id="aG" overflow="visible"><path d="m4.578125-13.53125h-2.15625v13.53125h2.15625zm-.421875-5.578125-2.484375 3.8125h1.5625l3.84375-3.8125zm0 0"/></symbol><symbol id="aH" overflow="visible"><path d="m15.390625-13.296875c0-1.296875-.078125-1.65625-.484375-2.53125-1.03125-2.171875-3.234375-3.3125-6.40625-3.3125-4.140625 0-6.6875 2.125-6.6875 5.53125 0 2.296875 1.203125 3.75 3.6875 4.390625l4.671875 1.234375c2.40625.625 3.46875 1.578125 3.46875 3.046875 0 1.015625-.546875 2.046875-1.34375 2.609375-.75.546875-1.9375.796875-3.46875.796875-2.0625 0-3.4375-.484375-4.328125-1.5625-.703125-.828125-1.015625-1.734375-.984375-2.890625h-2.28125c.03125 1.71875.359375 2.859375 1.109375 3.890625 1.296875 1.78125 3.46875 2.6875 6.328125 2.6875 2.25 0 4.09375-.515625 5.296875-1.453125 1.265625-1 2.078125-2.671875 2.078125-4.3125 0-2.3125-1.453125-4.015625-4.015625-4.71875l-4.71875-1.265625c-2.28125-.625-3.109375-1.34375-3.109375-2.796875 0-1.90625 1.6875-3.171875 4.21875-3.171875 3 0 4.671875 1.34375 4.703125 3.828125zm0 0"/></symbol><symbol id="aI" overflow="visible"><path d="m14.234375-8.578125v8.578125h2.40625v-18.828125h-2.40625v8.140625h-9.6875v-8.140625h-2.40625v18.828125h2.40625v-8.578125zm0 0"/></symbol><symbol id="aJ" overflow="visible"><path d="m2.046875 0h8.484375c1.78125 0 3.109375-.484375 4.109375-1.578125.9375-.984375 1.453125-2.328125 1.453125-3.796875 0-2.265625-1.03125-3.640625-3.4375-4.5625 1.734375-.8125 2.609375-2.171875 2.609375-4.109375 0-1.390625-.515625-2.59375-1.5-3.46875-1-.90625-2.265625-1.3125-4.078125-1.3125h-7.640625zm2.390625-10.71875v-5.984375h4.65625c1.34375 0 2.09375.171875 2.734375.65625.671875.53125 1.03125 1.296875 1.03125 2.328125s-.359375 1.8125-1.03125 2.328125c-.640625.484375-1.390625.671875-2.734375.671875zm0 8.59375v-6.46875h5.875c2.109375 0 3.375 1.203125 3.375 3.25 0 2.015625-1.265625 3.21875-3.375 3.21875zm0 0"/></symbol><symbol id="aK" overflow="visible"><path d="m4.71875-8.578125h9v-2.109375h-9v-6.015625h10.234375v-2.125h-12.625v18.828125h2.390625zm0 0"/></symbol><symbol id="aL" overflow="visible"><path d="m13.21875-2.796875c0 .40625-.125.875-.421875 1.203125-.875 1.046875-2.875 2.34375-4.46875 3.34375-1.59375 1.015625-3.59375 2.34375-4.890625 2.734375-.171875.03125-.390625.078125-.546875.078125-.921875 0-1.765625-.71875-1.765625-1.765625 0-.40625.125-.875.421875-1.203125.875-1.046875 2.890625-2.34375 4.484375-3.34375 1.578125-1.015625 3.59375-2.34375 4.890625-2.734375.171875-.03125.375-.078125.546875-.078125.921875 0 1.75.71875 1.75 1.765625zm-2.125-2.859375c-3.140625 0-5.703125.671875-7.90625 2.1875-1.34375.921875-2.21875 2.34375-2.734375 3.890625-.25.75-.453125 1.59375-.453125 2.375 0 1.96875 1.421875 2.859375 3.265625 2.859375 3.140625 0 5.6875-.671875 7.90625-2.1875 1.34375-.921875 2.21875-2.34375 2.71875-3.890625.25-.75.46875-1.59375.46875-2.375 0-1.96875-1.421875-2.859375-3.265625-2.859375zm0 0"/></symbol><symbol id="aM" overflow="visible"><path d="m9.296875-5.65625c-1.765625 0-3.4375.59375-4.9375 1.515625-1.96875 1.171875-4.359375 3.21875-4.359375 6.1875 0 2.46875 2.171875 3.609375 4.390625 3.609375 1.765625 0 3.4375-.59375 4.9375-1.515625 1.96875-1.171875 4.3125-3.21875 4.3125-6.1875 0-2.46875-2.140625-3.609375-4.34375-3.609375zm0 0"/></symbol><symbol id="aN" overflow="visible"><path d="m15.359375 0c.171875 0 .328125-.171875.328125-.328125v-5.859375c0-.171875-.15625-.34375-.328125-.34375h-15.03125c-.15625 0-.328125.171875-.328125.34375v5.859375c0 .15625.171875.328125.328125.328125zm0 0"/></symbol><symbol id="aO" overflow="visible"><path d="m15.65625-10.875c-.671875-2.9375-1.46875-5.828125-2.3125-8.703125 4.015625-4.5625 7.65625-9.25 7.65625-15.28125 0-4.71875-2.59375-11.5-5.515625-15.015625-.21875-.171875-.46875-.171875-.671875 0-3.96875 2.890625-6.28125 7.484375-6.28125 12.34375 0 2.171875.046875 4.3125.296875 6.4375.296875 2.71875 1 5.359375 1.765625 8-4.9375 5.609375-10.515625 10.953125-10.515625 18.40625 0 8.40625 6.078125 15.5625 13.9375 15.5625 1.296875 0 2.515625-.125 3.71875-.328125.140625 1.34375.21875 2.671875.21875 4.015625 0 .75-.046875 1.46875-.078125 2.21875-.265625 4.140625-2.8125 7.953125-6.703125 8.03125-.046875 0-.078125.046875-.125.046875-2.140625 0-3.96875-1.21875-5.0625-2.9375.453125.21875.96875.375 1.46875.375 2.171875 0 3.96875-1.796875 3.96875-3.96875 0-2.34375-1.71875-4.359375-3.96875-4.359375-2.46875 0-4.6875 1.9375-4.6875 4.359375 0 4.515625 3.640625 8.15625 8.15625 8.15625 4.9375 0 8.328125-4.4375 8.625-9.453125.03125-.796875.03125-1.546875.03125-2.34375 0-1.5-.078125-3.015625-.203125-4.515625 1.09375-.34375 2.125-.84375 3.046875-1.546875 3.109375-2.3125 4.484375-5.53125 4.484375-8.703125 0-5.53125-4.1875-10.84375-10.625-10.84375-.21875 0-.421875.046875-.625.046875zm3.546875 19.453125c-.578125-5.1875-1.546875-10.125-2.59375-15.015625 4.609375.375 7.5 4.21875 7.5 8.0625 0 2.9375-2.015625 5.953125-4.90625 6.953125zm-16.234375-9.875c0-6.6875 4.515625-11.765625 9.046875-16.828125.65625 2.46875 1.328125 4.9375 1.921875 7.453125-4.234375.96875-6.609375 4.515625-6.609375 8.203125 0 2.921875 1.5 5.90625 4.84375 7.703125.125.03125.25.078125.375.078125.46875 0 .84375-.421875.84375-.875 0-.21875-.125-.421875-.296875-.59375-2.34375-1.328125-3.421875-3.34375-3.421875-5.1875 0-2.46875 1.921875-4.6875 5.21875-5.0625 1.09375 5.03125 2.0625 10 2.6875 15.359375-1.140625.171875-2.265625.25-3.4375.25-5.6875 0-11.171875-4.8125-11.171875-10.5zm14.234375-42.640625c.703125 2.21875.875 3.3125.875 5.734375 0 5.3125-2.8125 9.546875-6.234375 13.59375-.75-2.625-1.390625-5.1875-1.390625-8.359375 0-4.65625 2.609375-8.875 6.75-10.96875zm0 0"/></symbol><symbol id="aP" overflow="visible"><path d="m0 0c0 1.34375 1.046875 2.390625 2.390625 2.390625 1.328125 0 2.375-1.046875 2.375-2.390625s-1.046875-2.390625-2.375-2.390625c-1.34375 0-2.390625 1.046875-2.390625 2.390625zm0 0"/></symbol><symbol id="aQ" overflow="visible"><path d="m9-4.765625c3.296875 0 5.765625 2.546875 5.765625 5.859375 0 1.921875-.828125 3.671875-2.921875 3.671875-3.3125 0-5.8125-2.546875-5.8125-5.859375 0-1.921875.875-3.671875 2.96875-3.671875zm11.796875 4.765625c0-1.796875-1.46875-3.09375-3.0625-3.96875-2.25-1.21875-4.765625-1.6875-7.3125-1.6875-2.5625 0-5.109375.46875-7.375 1.6875-1.578125.875-3.046875 2.171875-3.046875 3.96875s1.46875 3.09375 3.046875 3.96875c2.265625 1.21875 4.8125 1.6875 7.375 1.6875 2.546875 0 5.0625-.46875 7.3125-1.6875 1.59375-.875 3.0625-2.171875 3.0625-3.96875zm0 0"/></symbol><symbol id="aR" overflow="visible"><path d="m5.484375-11.25v11.25h3.21875v-16.3125h-2.140625c-.515625 1.921875-2.1875 2.921875-5 2.921875v2.140625zm0 0"/></symbol><symbol id="aS" overflow="visible"><path d="m4.921875-3.359375h-3.453125v3.359375h3.453125zm0 0"/></symbol><symbol id="aT" overflow="visible"><path d="m9.359375-1.984375c0 .296875-.09375.625-.296875.859375-.625.734375-2.046875 1.65625-3.171875 2.375-1.125.703125-2.546875 1.65625-3.46875 1.921875-.109375.03125-.265625.046875-.375.046875-.65625 0-1.25-.5-1.25-1.234375 0-.296875.09375-.625.296875-.859375.625-.734375 2.046875-1.65625 3.171875-2.375 1.125-.703125 2.546875-1.65625 3.453125-1.921875.125-.03125.265625-.046875.390625-.046875.65625 0 1.25.5 1.25 1.234375zm-1.515625-2.015625c-2.21875 0-4.03125.484375-5.59375 1.546875-.953125.640625-1.5625 1.65625-1.921875 2.75-.1875.53125-.328125 1.125-.328125 1.6875 0 1.390625 1 2.015625 2.3125 2.015625 2.21875 0 4.015625-.484375 5.59375-1.546875.9375-.640625 1.5625-1.65625 1.921875-2.75.171875-.53125.328125-1.125.328125-1.6875 0-1.390625-1.015625-2.015625-2.3125-2.015625zm0 0"/></symbol><g fill="none" stroke="#000" stroke-linecap="round" stroke-miterlimit="10" stroke-width="17.323" transform="matrix(.1 0 0 -.1 0 1176.07)"><path d="m2828.28125 10819.996875h187.578125"/><path d="m1188.007812 10819.996875h187.578126"/><path d="m579.492188 10819.996875h197.96875"/></g><g clip-path="url(#a)"><path d="m3.4375 10924.60625h5945.898438" fill="none" stroke="#000" stroke-linecap="round" stroke-miterlimit="10" stroke-width="6.86227" transform="matrix(.1 0 0 -.1 0 1176.07)"/></g><g clip-path="url(#b)"><path d="m3.4375 11029.215625h5945.898438" fill="none" stroke="#000" stroke-linecap="round" stroke-miterlimit="10" stroke-width="6.86227" transform="matrix(.1 0 0 -.1 0 1176.07)"/></g><g clip-path="url(#c)"><path d="m3.4375 11133.785937h5945.898438" fill="none" stroke="#000" stroke-linecap="round" stroke-miterlimit="10" stroke-width="6.86227" transform="matrix(.1 0 0 -.1 0 1176.07)"/></g><g clip-path="url(#d)"><path d="m3.4375 11238.395312h5945.898438" fill="none" stroke="#000" stroke-linecap="round" stroke-miterlimit="10" stroke-width="6.86227" transform="matrix(.1 0 0 -.1 0 1176.07)"/></g><g clip-path="url(#e)"><path d="m3.4375 11343.004687h5945.898438" fill="none" stroke="#000" stroke-linecap="round" stroke-miterlimit="10" stroke-width="6.86227" transform="matrix(.1 0 0 -.1 0 1176.07)"/></g><use x="451.952" xlink:href="#V" y="158.49"/><use x="459.095393" xlink:href="#W" y="158.49"/><use x="473.38174" xlink:href="#X" y="158.49"/><use x="487.668087" xlink:href="#Y" y="158.49"/><use x="500.423959" xlink:href="#Z" y="158.49"/><use x="406.1305" xlink:href="#aa" y="129.1998"/><use x="420.416847" xlink:href="#ab" y="129.1998"/><use x="405.619953" xlink:href="#ac" y="158.49"/><use x="413.953928" xlink:href="#ad" y="158.49"/><use x="428.070743" xlink:href="#V" y="158.49"/><path d="m4265.546875 10999.410937h4.921875v341.5625h-4.921875zm0 0" style="fill:none;stroke-width:3.98555;stroke-linecap:round;stroke-linejoin:round;stroke:#000;stroke-miterlimit:10" transform="matrix(.1 0 0 -.1 0 1176.07)"/><path d="m426.554688 76.128906h.492187v-34.15625h-.492187zm0 0"/><use x="472.582" xlink:href="#aL" y="73.15"/><use x="454.8429" xlink:href="#X" y="129.1969"/><use x="469.128856" xlink:href="#ae" y="129.1969"/><use x="483.415203" xlink:href="#af" y="129.1969"/><use x="497.532019" xlink:href="#Z" y="129.1969"/><path d="m4862.421875 11059.215625h4.921875v334.0625h-4.921875zm0 0" style="fill:none;stroke-width:3.98555;stroke-linecap:round;stroke-linejoin:round;stroke:#000;stroke-miterlimit:10" transform="matrix(.1 0 0 -.1 0 1176.07)"/><path d="m486.242188 70.148438h.492187v-33.40625h-.492187zm0 0"/><use x="413.587" xlink:href="#aM" y="78.38"/><path d="m3678.085938 10947.10625h4.921874v341.5625h-4.921874zm0 0" style="fill:none;stroke-width:3.98555;stroke-linecap:round;stroke-linejoin:round;stroke:#000;stroke-miterlimit:10" transform="matrix(.1 0 0 -.1 0 1176.07)"/><path d="m367.808594 81.359375h.492187v-34.15625h-.492187zm0 0"/><use x="354.527" xlink:href="#ag" y="158.49"/><use x="333.9477" xlink:href="#X" y="129.1998"/><use x="348.234047" xlink:href="#ah" y="129.1998"/><use x="362.350862" xlink:href="#ai" y="129.1998"/><use x="376.467678" xlink:href="#aj" y="129.1998"/><use x="354.8399" xlink:href="#aM" y="83.6139"/><path d="m2983.4375 10842.496875h4.960938v341.5625h-4.960938zm0 0" style="fill:none;stroke-width:3.98555;stroke-linecap:round;stroke-linejoin:round;stroke:#000;stroke-miterlimit:10" transform="matrix(.1 0 0 -.1 0 1176.07)"/><path d="m298.34375 91.820312h.496094v-34.15625h-.496094zm0 0"/><use x="267.207" xlink:href="#ac" y="129.2"/><use x="275.710532" xlink:href="#ah" y="129.2"/><use x="289.996488" xlink:href="#ak" y="129.2"/><use x="302.923063" xlink:href="#af" y="129.2"/><path d="m4404.0625 10246.48125h63.554688v3.4375h-63.554688zm0 0" style="fill:none;stroke-width:5.49191;stroke-linecap:round;stroke-linejoin:round;stroke:#000;stroke-miterlimit:10" transform="matrix(.1 0 0 -.1 0 1176.07)"/><path d="m440.40625 151.421875h6.351562v-.34375h-6.351562zm0 0"/><path d="m952.1875 10246.48125h63.554688v3.4375h-63.554688zm0 0" style="fill:none;stroke-width:5.49191;stroke-linecap:round;stroke-linejoin:round;stroke:#000;stroke-miterlimit:10" transform="matrix(.1 0 0 -.1 0 1176.07)"/><path d="m95.21875 151.421875h6.355469v-.34375h-6.355469zm0 0"/><path d="m1513.125 10539.410937h63.554688v3.4375h-63.554688zm0 0" style="fill:none;stroke-width:5.49191;stroke-linecap:round;stroke-linejoin:round;stroke:#000;stroke-miterlimit:10" transform="matrix(.1 0 0 -.1 0 1176.07)"/><path d="m151.3125 122.128906h6.355469v-.34375h-6.355469zm0 0"/><path d="m1566.289062 10246.48125h63.554688v3.4375h-63.554688zm0 0" style="fill:none;stroke-width:5.49191;stroke-linecap:round;stroke-linejoin:round;stroke:#000;stroke-miterlimit:10" transform="matrix(.1 0 0 -.1 0 1176.07)"/><path d="m156.628906 151.421875h6.355469v-.34375h-6.355469zm0 0"/><path d="m2548.398438 10539.410937h63.554687v3.4375h-63.554687zm0 0" style="fill:none;stroke-width:5.49191;stroke-linecap:round;stroke-linejoin:round;stroke:#000;stroke-miterlimit:10" transform="matrix(.1 0 0 -.1 0 1176.07)"/><path d="m254.839844 122.128906h6.355468v-.34375h-6.355468zm0 0"/><path d="m3840.390625 10246.48125h63.554687v3.4375h-63.554687zm0 0" style="fill:none;stroke-width:5.49191;stroke-linecap:round;stroke-linejoin:round;stroke:#000;stroke-miterlimit:10" transform="matrix(.1 0 0 -.1 0 1176.07)"/><path d="m384.039062 151.421875h6.355469v-.34375h-6.355469zm0 0"/><path d="m4415.9375 10539.410937h63.554688v3.4375h-63.554688zm0 0" style="fill:none;stroke-width:5.49191;stroke-linecap:round;stroke-linejoin:round;stroke:#000;stroke-miterlimit:10" transform="matrix(.1 0 0 -.1 0 1176.07)"/><path d="m441.59375 122.128906h6.355469v-.34375h-6.355469zm0 0"/><use x="533.26" xlink:href="#aN" y="62.69"/><use x="285.066" xlink:href="#al" y="158.4877"/><use x="110.237" xlink:href="#ad" y="129.1975"/><use x="124.523347" xlink:href="#am" y="129.1975"/><use x="121.3495" xlink:href="#aM" y="94.0721"/><use x="285.378636" xlink:href="#aM" y="94.0721"/><use x="109.5561" xlink:href="#aa" y="158.4877"/><use x="123.842056" xlink:href="#ad" y="158.4877"/><use x="138.128403" xlink:href="#ac" y="158.4877"/><path d="m743.320312 10849.996875h4.921876v334.0625h-4.921876zm0 0" style="fill:none;stroke-width:3.98555;stroke-linecap:round;stroke-linejoin:round;stroke:#000;stroke-miterlimit:10" transform="matrix(.1 0 0 -.1 0 1176.07)"/><path d="m74.332031 91.070312h.492188v-33.40625h-.492188zm0 0"/><use x="48.4594" xlink:href="#an" y="158.49"/><use x="65.637161" xlink:href="#am" y="158.49"/><use x="18.7801" xlink:href="#aR" y="129.1998"/><use x="31.535967" xlink:href="#aS" y="129.1998"/><use x="54.4977" xlink:href="#ao" y="129.1998"/><use x="74.057108" xlink:href="#Z" y="129.1998"/><use x="8.3688" xlink:href="#aO" y="73.1529"/><path d="m598.710938 11455.895312h6.40625v198.867188h-6.40625zm0 0" style="fill:none;stroke-width:3.201;stroke-linecap:round;stroke-linejoin:round;stroke:#000;stroke-miterlimit:10" transform="matrix(.1 0 0 -.1 0 1176.07)"/><path d="m59.871094 30.480469h.640625v-19.886719h-.640625zm0 0"/><use x="50.5234" xlink:href="#aT" y="32.62"/><use x="60.6726" xlink:href="#aL" y="94.0727"/><path d="m2456.09375 10947.10625h4.921875v341.5625h-4.921875zm0 0" style="fill:none;stroke-width:3.98555;stroke-linecap:round;stroke-linejoin:round;stroke:#000;stroke-miterlimit:10" transform="matrix(.1 0 0 -.1 0 1176.07)"/><path d="m245.609375 81.359375h.492187v-34.15625h-.492187zm0 0"/><use x="222.124" xlink:href="#ap" y="158.49"/><use x="227.906425" xlink:href="#ad" y="158.49"/><use x="242.02324" xlink:href="#V" y="158.49"/><use x="249.676374" xlink:href="#V" y="158.49"/><use x="230.11697" xlink:href="#ak" y="129.1998"/><use x="243.043154" xlink:href="#aq" y="129.1998"/><use x="232.64197" xlink:href="#aM" y="83.6139"/><path d="m1902.578125 10894.801562h4.921875v341.5625h-4.921875zm0 0" style="fill:none;stroke-width:3.98555;stroke-linecap:round;stroke-linejoin:round;stroke:#000;stroke-miterlimit:10" transform="matrix(.1 0 0 -.1 0 1176.07)"/><path d="m190.257812 86.589844h.492188v-34.15625h-.492188zm0 0"/><use x="172.81" xlink:href="#ac" y="158.49"/><use x="181.14439" xlink:href="#ag" y="158.49"/><use x="162.86" xlink:href="#aa" y="129.1998"/><use x="177.145956" xlink:href="#ad" y="129.1998"/><use x="191.432303" xlink:href="#ac" y="129.1998"/><use x="198.235051" xlink:href="#Z" y="129.1998"/><use x="177.2905" xlink:href="#aM" y="88.8439"/><path d="m1343.164062 10842.496875h4.921876v341.5625h-4.921876zm0 0" style="fill:none;stroke-width:3.98555;stroke-linecap:round;stroke-linejoin:round;stroke:#000;stroke-miterlimit:10" transform="matrix(.1 0 0 -.1 0 1176.07)"/><path d="m134.316406 91.820312h.492188v-34.15625h-.492188zm0 0"/><g clip-path="url(#f)"><path d="m3.4375 9571.051562h5945.898438" style="fill:none;stroke-width:6.86227;stroke-linecap:round;stroke-linejoin:round;stroke:#000;stroke-miterlimit:10" transform="matrix(.1 0 0 -.1 0 1176.07)"/></g><g clip-path="url(#g)"><path d="m3.4375 9675.660937h5945.898438" style="fill:none;stroke-width:6.86227;stroke-linecap:round;stroke-linejoin:round;stroke:#000;stroke-miterlimit:10" transform="matrix(.1 0 0 -.1 0 1176.07)"/></g><g clip-path="url(#h)"><path d="m3.4375 9780.270312h5945.898438" style="fill:none;stroke-width:6.86227;stroke-linecap:round;stroke-linejoin:round;stroke:#000;stroke-miterlimit:10" transform="matrix(.1 0 0 -.1 0 1176.07)"/></g><g clip-path="url(#i)"><path d="m3.4375 9884.879687h5945.898438" style="fill:none;stroke-width:6.86227;stroke-linecap:round;stroke-linejoin:round;stroke:#000;stroke-miterlimit:10" transform="matrix(.1 0 0 -.1 0 1176.07)"/></g><g clip-path="url(#j)"><path d="m3.4375 9989.489062h5945.898438" style="fill:none;stroke-width:6.86227;stroke-linecap:round;stroke-linejoin:round;stroke:#000;stroke-miterlimit:10" transform="matrix(.1 0 0 -.1 0 1176.07)"/></g><path d="m3053.203125 9466.442187h187.539063" style="fill:none;stroke-width:17.323;stroke-linecap:round;stroke-linejoin:round;stroke:#000;stroke-miterlimit:10" transform="matrix(.1 0 0 -.1 0 1176.07)"/><use x="413.67" xlink:href="#ac" y="254.218"/><use x="422.003975" xlink:href="#ad" y="254.218"/><use x="410.69383" xlink:href="#X" y="283.5082"/><use x="424.980177" xlink:href="#ad" y="283.5082"/><path d="m4311.171875 9645.934375h4.960937v341.5625h-4.960937zm0 0" fill="none" stroke="#000" stroke-linejoin="round" stroke-miterlimit="10" stroke-width="3.98555" transform="matrix(.1 0 0 -.1 0 1176.07)"/><path d="m431.117188 211.476562h.496093v-34.15625h-.496093zm0 0"/><use x="475.956" xlink:href="#aL" y="208.504"/><use x="462.383" xlink:href="#ar" y="254.2177"/><use x="468.16584" xlink:href="#ae" y="254.2177"/><use x="482.282655" xlink:href="#V" y="254.2177"/><use x="489.935815" xlink:href="#V" y="254.2177"/><use x="496.738583" xlink:href="#Z" y="254.2177"/><use x="456.00527" xlink:href="#Y" y="283.5079"/><use x="468.761141" xlink:href="#W" y="283.5079"/><use x="483.047488" xlink:href="#X" y="283.5079"/><use x="497.333445" xlink:href="#Y" y="283.5079"/><path d="m4896.171875 9705.739062h4.921875v334.0625h-4.921875zm0 0" fill="none" stroke="#000" stroke-linejoin="round" stroke-miterlimit="10" stroke-width="3.98555" transform="matrix(.1 0 0 -.1 0 1176.07)"/><path d="m489.613281 205.496094h.496094v-33.40625h-.496094zm0 0"/><use x="307.554" xlink:href="#ad" y="254.218"/><use x="418.151" xlink:href="#aM" y="213.7348"/><path d="m3772.851562 9593.629687h4.921876v341.5625h-4.921876zm0 0" fill="none" stroke="#000" stroke-linejoin="round" stroke-miterlimit="10" stroke-width="3.98555" transform="matrix(.1 0 0 -.1 0 1176.07)"/><path d="m377.285156 216.707031h.492188v-34.15625h-.492188zm0 0"/><use x="357.456" xlink:href="#am" y="283.508"/><use x="379.056419" xlink:href="#aq" y="283.508"/><use x="350.48178" xlink:href="#as" y="254.2178"/><use x="357.454836" xlink:href="#ae" y="254.2178"/><use x="371.741183" xlink:href="#ap" y="254.2178"/><use x="377.523998" xlink:href="#af" y="254.2178"/><use x="364.31698" xlink:href="#aM" y="218.9651"/><path d="m3208.359375 9489.020312h4.921875v341.5625h-4.921875zm0 0" fill="none" stroke="#000" stroke-linejoin="round" stroke-miterlimit="10" stroke-width="3.98555" transform="matrix(.1 0 0 -.1 0 1176.07)"/><path d="m320.835938 227.167969h.492187v-34.15625h-.492187zm0 0"/><use x="297.35" xlink:href="#ap" y="283.508"/><use x="303.132815" xlink:href="#ad" y="283.508"/><use x="317.249631" xlink:href="#V" y="283.508"/><use x="324.902765" xlink:href="#V" y="283.508"/><path d="m868.59375 9289.254687h63.515625v3.4375h-63.515625zm0 0" fill="none" stroke="#000" stroke-linejoin="round" stroke-miterlimit="10" stroke-width="5.49191" transform="matrix(.1 0 0 -.1 0 1176.07)"/><path d="m86.859375 247.144531h6.351563v-.34375h-6.351563zm0 0"/><path d="m901.71875 8996.364062h63.554688v3.4375h-63.554688zm0 0" fill="none" stroke="#000" stroke-linejoin="round" stroke-miterlimit="10" stroke-width="5.49191" transform="matrix(.1 0 0 -.1 0 1176.07)"/><path d="m90.171875 276.433594h6.355469v-.339844h-6.355469zm0 0"/><path d="m1605.703125 8996.364062h63.554687v3.4375h-63.554687zm0 0" fill="none" stroke="#000" stroke-linejoin="round" stroke-miterlimit="10" stroke-width="5.49191" transform="matrix(.1 0 0 -.1 0 1176.07)"/><path d="m160.570312 276.433594h6.355469v-.339844h-6.355469zm0 0"/><path d="m2268.867188 9289.254687h63.554687v3.4375h-63.554687zm0 0" fill="none" stroke="#000" stroke-linejoin="round" stroke-miterlimit="10" stroke-width="5.49191" transform="matrix(.1 0 0 -.1 0 1176.07)"/><path d="m226.886719 247.144531h6.355469v-.34375h-6.355469zm0 0"/><path d="m2136.210938 8996.364062h63.554687v3.4375h-63.554687zm0 0" fill="none" stroke="#000" stroke-linejoin="round" stroke-miterlimit="10" stroke-width="5.49191" transform="matrix(.1 0 0 -.1 0 1176.07)"/><path d="m213.621094 276.433594h6.355468v-.339844h-6.355468zm0 0"/><path d="m3995.625 9289.254687h63.554688v3.4375h-63.554688zm0 0" fill="none" stroke="#000" stroke-linejoin="round" stroke-miterlimit="10" stroke-width="5.49191" transform="matrix(.1 0 0 -.1 0 1176.07)"/><path d="m399.5625 247.144531h6.355469v-.34375h-6.355469zm0 0"/><path d="m3945.898438 8996.364062h63.554687v3.4375h-63.554687zm0 0" fill="none" stroke="#000" stroke-linejoin="round" stroke-miterlimit="10" stroke-width="5.49191" transform="matrix(.1 0 0 -.1 0 1176.07)"/><path d="m394.589844 276.433594h6.355468v-.339844h-6.355468zm0 0"/><path d="m4444.570312 8996.364062h63.554688v3.4375h-63.554688zm0 0" fill="none" stroke="#000" stroke-linejoin="round" stroke-miterlimit="10" stroke-width="5.49191" transform="matrix(.1 0 0 -.1 0 1176.07)"/><path d="m444.457031 276.433594h6.355469v-.339844h-6.355469zm0 0"/><use x="534.946" xlink:href="#aN" y="198.044"/><use x="98.829" xlink:href="#ap" y="254.2182"/><use x="104.441124" xlink:href="#aj" y="254.2182"/><use x="116.68646" xlink:href="#ag" y="254.2182"/><use x="130.972807" xlink:href="#ac" y="254.2182"/><use x="140.326731" xlink:href="#V" y="254.2182"/><use x="116.3204" xlink:href="#aM" y="213.735"/><use x="307.8674" xlink:href="#aM" y="229.426"/><path d="m697.8125 9705.739062h4.921875v334.0625h-4.921875zm0 0" fill="none" stroke="#000" stroke-linejoin="round" stroke-miterlimit="10" stroke-width="3.98555" transform="matrix(.1 0 0 -.1 0 1176.07)"/><path d="m69.78125 205.496094h.492188v-33.40625h-.492188zm0 0"/><use x="41.6129" xlink:href="#at" y="283.508"/><use x="58.110582" xlink:href="#ae" y="283.508"/><use x="72.057089" xlink:href="#au" y="283.508"/><use x="45.3547" xlink:href="#av" y="254.2178"/><use x="66.955125" xlink:href="#ad" y="254.2178"/><use x="56.1219" xlink:href="#aL" y="208.5041"/><use x="101.7207" xlink:href="#aa" y="283.508"/><use x="116.006656" xlink:href="#ad" y="283.508"/><use x="130.293003" xlink:href="#X" y="283.508"/><use x="8.3687" xlink:href="#aO" y="208.5041"/><path d="m2617.460938 9541.325h4.960937v341.5625h-4.960937zm0 0" fill="none" stroke="#000" stroke-linejoin="round" stroke-miterlimit="10" stroke-width="3.98555" transform="matrix(.1 0 0 -.1 0 1176.07)"/><path d="m261.746094 221.9375h.496094v-34.15625h-.496094zm0 0"/><use x="230.61" xlink:href="#ac" y="283.508"/><use x="239.113532" xlink:href="#aw" y="283.508"/><use x="253.399879" xlink:href="#X" y="283.508"/><use x="267.686226" xlink:href="#Y" y="283.508"/><use x="238.43383" xlink:href="#V" y="254.2178"/><use x="245.577199" xlink:href="#ax" y="254.2178"/><use x="259.863546" xlink:href="#ak" y="254.2178"/><use x="248.78153" xlink:href="#aM" y="224.1951"/><path d="m1990.898438 9593.629687h4.921874v341.5625h-4.921874zm0 0" fill="none" stroke="#000" stroke-linejoin="round" stroke-miterlimit="10" stroke-width="3.98555" transform="matrix(.1 0 0 -.1 0 1176.07)"/><path d="m199.089844 216.707031h.492187v-34.15625h-.492187zm0 0"/><use x="182.918" xlink:href="#ar" y="283.508"/><use x="188.700827" xlink:href="#ay" y="283.508"/><use x="164.209" xlink:href="#at" y="254.2178"/><use x="181.386767" xlink:href="#ac" y="254.2178"/><use x="190.061002" xlink:href="#aq" y="254.2178"/><use x="195.843439" xlink:href="#ak" y="254.2178"/><use x="208.770013" xlink:href="#au" y="254.2178"/><use x="186.1223" xlink:href="#aM" y="218.9651"/><path d="m1292.890625 9645.934375h4.921875v341.5625h-4.921875zm0 0" fill="none" stroke="#000" stroke-linejoin="round" stroke-miterlimit="10" stroke-width="3.98555" transform="matrix(.1 0 0 -.1 0 1176.07)"/><path d="m129.289062 211.476562h.492188v-34.15625h-.492188zm0 0"/><g clip-path="url(#k)"><path d="m3.4375 8292.028125h5945.898438" style="fill:none;stroke-width:6.86227;stroke-linecap:round;stroke-linejoin:round;stroke:#000;stroke-miterlimit:10" transform="matrix(.1 0 0 -.1 0 1176.07)"/></g><g clip-path="url(#l)"><path d="m3.4375 8396.6375h5945.898438" style="fill:none;stroke-width:6.86227;stroke-linecap:round;stroke-linejoin:round;stroke:#000;stroke-miterlimit:10" transform="matrix(.1 0 0 -.1 0 1176.07)"/></g><g clip-path="url(#m)"><path d="m3.4375 8501.246875h5945.898438" style="fill:none;stroke-width:6.86227;stroke-linecap:round;stroke-linejoin:round;stroke:#000;stroke-miterlimit:10" transform="matrix(.1 0 0 -.1 0 1176.07)"/></g><g clip-path="url(#n)"><path d="m3.4375 8605.85625h5945.898438" style="fill:none;stroke-width:6.86227;stroke-linecap:round;stroke-linejoin:round;stroke:#000;stroke-miterlimit:10" transform="matrix(.1 0 0 -.1 0 1176.07)"/></g><g clip-path="url(#o)"><path d="m3.4375 8710.465625h5945.898438" style="fill:none;stroke-width:6.86227;stroke-linecap:round;stroke-linejoin:round;stroke:#000;stroke-miterlimit:10" transform="matrix(.1 0 0 -.1 0 1176.07)"/></g><use x="580.962" xlink:href="#aP" y="320.715"/><use x="580.962" xlink:href="#aP" y="331.1759"/><g clip-path="url(#p)"><path d="m5932.1875 8292.028125v418.4375" fill="none" stroke="#000" stroke-linejoin="round" stroke-miterlimit="10" stroke-width="41.1631" transform="matrix(.1 0 0 -.1 0 1176.07)"/></g><g fill="none" stroke="#000" stroke-linejoin="round" stroke-miterlimit="10" transform="matrix(.1 0 0 -.1 0 1176.07)"><path d="m5884.492188 8292.028125v418.4375" stroke-width="13.0341"/><path d="m4403.789062 8187.41875h197.929688" stroke-linecap="round" stroke-width="17.323"/><path d="m3101.09375 8187.41875h187.578125" stroke-linecap="round" stroke-width="17.323"/><path d="m3884.960938 8269.801562h4.921874v334.0625h-4.921874zm0 0" stroke-width="3.98555"/></g><path d="m388.496094 349.089844h.492187v-33.40625h-.492187zm0 0"/><use x="511.361" xlink:href="#aN" y="325.945"/><path d="m4567.578125 8217.496875h4.921875v334.0625h-4.921875zm0 0" fill="none" stroke="#000" stroke-linejoin="round" stroke-miterlimit="10" stroke-width="3.98555" transform="matrix(.1 0 0 -.1 0 1176.07)"/><path d="m456.757812 354.320312h.492188v-33.40625h-.492188zm0 0"/><use x="429.78" xlink:href="#aa" y="416.602"/><use x="444.066347" xlink:href="#al" y="416.602"/><use x="458.352694" xlink:href="#ap" y="416.602"/><use x="463.624987" xlink:href="#az" y="416.602"/><use x="429.526094" xlink:href="#aa" y="387.3118"/><use x="443.81205" xlink:href="#al" y="387.3118"/><use x="458.098397" xlink:href="#ap" y="387.3118"/><use x="463.881237" xlink:href="#aA" y="387.3118"/><use x="443.098794" xlink:href="#aL" y="357.3282"/><path d="m1005.9375 7665.426562h63.515625v3.4375h-63.515625zm0 0" fill="none" stroke="#000" stroke-linejoin="round" stroke-miterlimit="10" stroke-width="5.49191" transform="matrix(.1 0 0 -.1 0 1176.07)"/><path d="m100.59375 409.527344h6.351562v-.34375h-6.351562zm0 0"/><use x="368.661" xlink:href="#aB" y="416.602"/><use x="381.077027" xlink:href="#ag" y="416.602"/><use x="361.26334" xlink:href="#ak" y="387.3118"/><use x="374.019211" xlink:href="#ag" y="387.3118"/><use x="388.475871" xlink:href="#ai" y="387.3118"/><use x="374.83604" xlink:href="#aL" y="352.0977"/><path d="m3256.25 8209.996875h4.921875v341.5625h-4.921875zm0 0" fill="none" stroke="#000" stroke-linejoin="round" stroke-miterlimit="10" stroke-width="3.98555" transform="matrix(.1 0 0 -.1 0 1176.07)"/><path d="m325.625 355.070312h.492188v-34.15625h-.492188zm0 0"/><use x="298.993" xlink:href="#Y" y="416.602"/><use x="311.409027" xlink:href="#ad" y="416.602"/><use x="325.694983" xlink:href="#af" y="416.602"/><use x="299.332844" xlink:href="#aC" y="387.3118"/><use x="312.42895" xlink:href="#ak" y="387.3118"/><use x="325.355134" xlink:href="#al" y="387.3118"/><use x="312.657844" xlink:href="#aM" y="357.3282"/><path d="m1721.09375 7958.317187h63.554688v3.4375h-63.554688zm0 0" fill="none" stroke="#000" stroke-linejoin="round" stroke-miterlimit="10" stroke-width="5.49191" transform="matrix(.1 0 0 -.1 0 1176.07)"/><path d="m172.109375 380.238281h6.355469v-.34375h-6.355469zm0 0"/><path d="m1581.210938 7665.426562h63.554687v3.4375h-63.554687zm0 0" fill="none" stroke="#000" stroke-linejoin="round" stroke-miterlimit="10" stroke-width="5.49191" transform="matrix(.1 0 0 -.1 0 1176.07)"/><path d="m158.121094 409.527344h6.355468v-.34375h-6.355468zm0 0"/><path d="m2814.6875 7958.317187h63.554688v3.4375h-63.554688zm0 0" fill="none" stroke="#000" stroke-linejoin="round" stroke-miterlimit="10" stroke-width="5.49191" transform="matrix(.1 0 0 -.1 0 1176.07)"/><path d="m281.46875 380.238281h6.355469v-.34375h-6.355469zm0 0"/><path d="m2812.96875 7665.426562h63.554688v3.4375h-63.554688zm0 0" fill="none" stroke="#000" stroke-linejoin="round" stroke-miterlimit="10" stroke-width="5.49191" transform="matrix(.1 0 0 -.1 0 1176.07)"/><path d="m281.296875 409.527344h6.355469v-.34375h-6.355469zm0 0"/><path d="m3472.734375 7958.317187h63.554687v3.4375h-63.554687zm0 0" fill="none" stroke="#000" stroke-linejoin="round" stroke-miterlimit="10" stroke-width="5.49191" transform="matrix(.1 0 0 -.1 0 1176.07)"/><path d="m347.273438 380.238281h6.355468v-.34375h-6.355468zm0 0"/><path d="m3511.445312 7665.426562h63.554688v3.4375h-63.554688zm0 0" fill="none" stroke="#000" stroke-linejoin="round" stroke-miterlimit="10" stroke-width="5.49191" transform="matrix(.1 0 0 -.1 0 1176.07)"/><path d="m351.144531 409.527344h6.351563v-.34375h-6.351563zm0 0"/><path d="m4129.648438 7958.317187h63.554687v3.4375h-63.554687zm0 0" fill="none" stroke="#000" stroke-linejoin="round" stroke-miterlimit="10" stroke-width="5.49191" transform="matrix(.1 0 0 -.1 0 1176.07)"/><path d="m412.964844 380.238281h6.355468v-.34375h-6.355468zm0 0"/><path d="m4093.945312 7665.426562h63.554688v3.4375h-63.554688zm0 0" fill="none" stroke="#000" stroke-linejoin="round" stroke-miterlimit="10" stroke-width="5.49191" transform="matrix(.1 0 0 -.1 0 1176.07)"/><path d="m409.394531 409.527344h6.355469v-.34375h-6.355469zm0 0"/><use x="8.36875" xlink:href="#aO" y="336.406"/><path d="m697.8125 8479.020312h4.921875v334.0625h-4.921875zm0 0" fill="none" stroke="#000" stroke-linejoin="round" stroke-miterlimit="10" stroke-width="3.98555" transform="matrix(.1 0 0 -.1 0 1176.07)"/><path d="m69.78125 328.171875h.492188v-33.40625h-.492188zm0 0"/><use x="44.5902" xlink:href="#aD" y="416.602"/><use x="61.427727" xlink:href="#V" y="416.602"/><use x="69.080861" xlink:href="#aj" y="416.602"/><use x="27.9218" xlink:href="#av" y="387.3118"/><use x="49.522225" xlink:href="#ad" y="387.3118"/><use x="63.808578" xlink:href="#X" y="387.3118"/><use x="77.585554" xlink:href="#aj" y="387.3118"/><use x="90.001197" xlink:href="#aE" y="387.3118"/><use x="56.1218" xlink:href="#aL" y="331.1763"/><use x="190.9148" xlink:href="#aM" y="341.6368"/><path d="m2660.625 8314.60625h4.921875v341.5625h-4.921875zm0 0" fill="none" stroke="#000" stroke-linejoin="round" stroke-miterlimit="10" stroke-width="3.98555" transform="matrix(.1 0 0 -.1 0 1176.07)"/><path d="m266.0625 344.609375h.492188v-34.15625h-.492188zm0 0"/><use x="249.889" xlink:href="#ar" y="416.602"/><use x="255.671815" xlink:href="#aw" y="416.602"/><use x="249.889" xlink:href="#af" y="387.3118"/><use x="264.175347" xlink:href="#aq" y="387.3118"/><use x="253.09408" xlink:href="#aM" y="346.8673"/><path d="m2038.828125 8366.910937h4.921875v341.5625h-4.921875zm0 0" fill="none" stroke="#000" stroke-linejoin="round" stroke-miterlimit="10" stroke-width="3.98555" transform="matrix(.1 0 0 -.1 0 1176.07)"/><path d="m203.882812 339.378906h.492188v-34.15625h-.492188zm0 0"/><use x="176.995" xlink:href="#X" y="416.602"/><use x="191.281347" xlink:href="#ah" y="416.602"/><use x="205.567694" xlink:href="#Y" y="416.602"/><use x="194.8536" xlink:href="#aq" y="387.3118"/><path d="m1417.03125 8419.215625h4.960938v341.5625h-4.960938zm0 0" fill="none" stroke="#000" stroke-linejoin="round" stroke-miterlimit="10" stroke-width="3.98555" transform="matrix(.1 0 0 -.1 0 1176.07)"/><path d="m141.703125 334.148438h.496094v-34.15625h-.496094zm0 0"/><use x="128.737" xlink:href="#aM" y="336.406"/><use x="125.53153" xlink:href="#ar" y="416.6013"/><use x="131.314357" xlink:href="#ay" y="416.6013"/><use x="115.41203" xlink:href="#X" y="387.3111"/><use x="129.188611" xlink:href="#aj" y="387.3111"/><use x="141.434337" xlink:href="#ad" y="387.3111"/><g clip-path="url(#q)"><path d="m3.4375 6961.090625h5945.898438" style="fill:none;stroke-width:6.86227;stroke-linecap:round;stroke-linejoin:round;stroke:#000;stroke-miterlimit:10" transform="matrix(.1 0 0 -.1 0 1176.07)"/></g><g clip-path="url(#r)"><path d="m3.4375 7065.7h5945.898438" style="fill:none;stroke-width:6.86227;stroke-linecap:round;stroke-linejoin:round;stroke:#000;stroke-miterlimit:10" transform="matrix(.1 0 0 -.1 0 1176.07)"/></g><g clip-path="url(#s)"><path d="m3.4375 7170.309375h5945.898438" style="fill:none;stroke-width:6.86227;stroke-linecap:round;stroke-linejoin:round;stroke:#000;stroke-miterlimit:10" transform="matrix(.1 0 0 -.1 0 1176.07)"/></g><g clip-path="url(#t)"><path d="m3.4375 7274.91875h5945.898438" style="fill:none;stroke-width:6.86227;stroke-linecap:round;stroke-linejoin:round;stroke:#000;stroke-miterlimit:10" transform="matrix(.1 0 0 -.1 0 1176.07)"/></g><g clip-path="url(#u)"><path d="m3.4375 7379.528125h5945.898438" style="fill:none;stroke-width:6.86227;stroke-linecap:round;stroke-linejoin:round;stroke:#000;stroke-miterlimit:10" transform="matrix(.1 0 0 -.1 0 1176.07)"/></g><path d="m4838.710938 7095.778125h4.921874v334.0625h-4.921874zm0 0" style="fill:none;stroke-width:3.98555;stroke-linecap:round;stroke-linejoin:round;stroke:#000;stroke-miterlimit:10" transform="matrix(.1 0 0 -.1 0 1176.07)"/><path d="m483.871094 466.492188h.492187v-33.40625h-.492187zm0 0"/><use x="456.129" xlink:href="#V" y="516.573"/><use x="462.931378" xlink:href="#aF" y="516.573"/><use x="477.048193" xlink:href="#V" y="516.573"/><use x="484.701354" xlink:href="#V" y="516.573"/><use x="491.504122" xlink:href="#Z" y="516.573"/><use x="470.2122" xlink:href="#aL" y="469.4996"/><path d="m4267.617188 7140.582812h4.921874v341.5625h-4.921874zm0 0" style="fill:none;stroke-width:3.98555;stroke-linecap:round;stroke-linejoin:round;stroke:#000;stroke-miterlimit:10" transform="matrix(.1 0 0 -.1 0 1176.07)"/><path d="m426.761719 462.011719h.492187v-34.15625h-.492187zm0 0"/><use x="403.53" xlink:href="#ai" y="516.573"/><use x="417.646815" xlink:href="#aj" y="516.573"/><use x="430.572999" xlink:href="#aG" y="516.573"/><use x="413.7929" xlink:href="#aM" y="464.2691"/><path d="m3703.398438 7140.582812h4.960937v341.5625h-4.960937zm0 0" style="fill:none;stroke-width:3.98555;stroke-linecap:round;stroke-linejoin:round;stroke:#000;stroke-miterlimit:10" transform="matrix(.1 0 0 -.1 0 1176.07)"/><path d="m370.339844 462.011719h.496094v-34.15625h-.496094zm0 0"/><use x="343.795" xlink:href="#ai" y="516.573"/><use x="357.911815" xlink:href="#aj" y="516.573"/><use x="370.327452" xlink:href="#aw" y="516.573"/><use x="357.3739" xlink:href="#aM" y="464.2691"/><path d="m3080.234375 7088.278125h4.921875v341.5625h-4.921875zm0 0" style="fill:none;stroke-width:3.98555;stroke-linecap:round;stroke-linejoin:round;stroke:#000;stroke-miterlimit:10" transform="matrix(.1 0 0 -.1 0 1176.07)"/><path d="m308.023438 467.242188h.492187v-34.15625h-.492187zm0 0"/><use x="276.714" xlink:href="#am" y="516.573"/><use x="298.314419" xlink:href="#ad" y="516.573"/><use x="312.771079" xlink:href="#ai" y="516.573"/><use x="295.0558" xlink:href="#aM" y="469.4996"/><path d="m1562.65625 6665.7h63.554688v3.4375h-63.554688zm0 0" style="fill:none;stroke-width:5.49191;stroke-linecap:round;stroke-linejoin:round;stroke:#000;stroke-miterlimit:10" transform="matrix(.1 0 0 -.1 0 1176.07)"/><path d="m156.265625 509.5h6.355469v-.34375h-6.355469zm0 0"/><path d="m2072.03125 6665.7h63.554688v3.4375h-63.554688zm0 0" style="fill:none;stroke-width:5.49191;stroke-linecap:round;stroke-linejoin:round;stroke:#000;stroke-miterlimit:10" transform="matrix(.1 0 0 -.1 0 1176.07)"/><path d="m207.203125 509.5h6.355469v-.34375h-6.355469zm0 0"/><path d="m3322.460938 6665.7h63.554687v3.4375h-63.554687zm0 0" style="fill:none;stroke-width:5.49191;stroke-linecap:round;stroke-linejoin:round;stroke:#000;stroke-miterlimit:10" transform="matrix(.1 0 0 -.1 0 1176.07)"/><path d="m332.246094 509.5h6.355468v-.34375h-6.355468zm0 0"/><path d="m3908.945312 6665.7h63.554688v3.4375h-63.554688zm0 0" style="fill:none;stroke-width:5.49191;stroke-linecap:round;stroke-linejoin:round;stroke:#000;stroke-miterlimit:10" transform="matrix(.1 0 0 -.1 0 1176.07)"/><path d="m390.894531 509.5h6.351563v-.34375h-6.351563zm0 0"/><path d="m4437.421875 6665.7h63.554687v3.4375h-63.554687zm0 0" style="fill:none;stroke-width:5.49191;stroke-linecap:round;stroke-linejoin:round;stroke:#000;stroke-miterlimit:10" transform="matrix(.1 0 0 -.1 0 1176.07)"/><path d="m443.742188 509.5h6.355468v-.34375h-6.355468zm0 0"/><use x="532.075" xlink:href="#aN" y="459.039"/><use x="8.369" xlink:href="#aO" y="469.4999"/><path d="m608.710938 6858.473437h4.921874v334.0625h-4.921874zm0 0" style="fill:none;stroke-width:3.98555;stroke-linecap:round;stroke-linejoin:round;stroke:#000;stroke-miterlimit:10" transform="matrix(.1 0 0 -.1 0 1176.07)"/><path d="m60.871094 490.222656h.492187v-33.40625h-.492187zm0 0"/><use x="45.6539" xlink:href="#aH" y="516.573"/><use x="62.831661" xlink:href="#aF" y="516.573"/><use x="77.118014" xlink:href="#Y" y="516.573"/><use x="60.6727" xlink:href="#aL" y="453.8085"/><use x="235.3727" xlink:href="#aM" y="459.03858"/><path d="m1791.523438 6858.473437h4.960937v341.5625h-4.960937zm0 0" style="fill:none;stroke-width:3.98555;stroke-linecap:round;stroke-linejoin:round;stroke:#000;stroke-miterlimit:10" transform="matrix(.1 0 0 -.1 0 1176.07)"/><path d="m179.152344 490.222656h.492187v-34.15625h-.492187zm0 0"/><use x="175.239" xlink:href="#V" y="516.573"/><use x="182.041352" xlink:href="#ad" y="516.573"/><use x="178.95463" xlink:href="#aM" y="453.8085"/><path d="m1227.34375 6858.473437h4.921875v341.5625h-4.921875zm0 0" style="fill:none;stroke-width:3.98555;stroke-linecap:round;stroke-linejoin:round;stroke:#000;stroke-miterlimit:10" transform="matrix(.1 0 0 -.1 0 1176.07)"/><path d="m122.734375 490.222656h.492187v-34.15625h-.492187zm0 0"/><use x="224.43" xlink:href="#ai" y="516.573"/><use x="238.716347" xlink:href="#ad" y="516.573"/><use x="252.833162" xlink:href="#V" y="516.573"/><use x="115.079156" xlink:href="#aa" y="516.573"/><use x="129.365503" xlink:href="#ad" y="516.573"/><path d="m2355.703125 6823.590625h4.960937v324.140625h-4.960937zm0 0" style="fill:none;stroke-width:3.98555;stroke-linecap:round;stroke-linejoin:round;stroke:#000;stroke-miterlimit:10" transform="matrix(.1 0 0 -.1 0 1176.07)"/><path d="m235.570312 493.710938h.496094v-32.414063h-.496094zm0 0"/><use x="122.536" xlink:href="#aM" y="453.809"/><g clip-path="url(#v)"><path d="m3.4375 5705.817187h5945.898438" style="fill:none;stroke-width:6.86227;stroke-linecap:round;stroke-linejoin:round;stroke:#000;stroke-miterlimit:10" transform="matrix(.1 0 0 -.1 0 1176.07)"/></g><g clip-path="url(#w)"><path d="m3.4375 5810.426562h5945.898438" style="fill:none;stroke-width:6.86227;stroke-linecap:round;stroke-linejoin:round;stroke:#000;stroke-miterlimit:10" transform="matrix(.1 0 0 -.1 0 1176.07)"/></g><g clip-path="url(#x)"><path d="m3.4375 5915.035937h5945.898438" style="fill:none;stroke-width:6.86227;stroke-linecap:round;stroke-linejoin:round;stroke:#000;stroke-miterlimit:10" transform="matrix(.1 0 0 -.1 0 1176.07)"/></g><g clip-path="url(#y)"><path d="m3.4375 6019.645312h5945.898438" style="fill:none;stroke-width:6.86227;stroke-linecap:round;stroke-linejoin:round;stroke:#000;stroke-miterlimit:10" transform="matrix(.1 0 0 -.1 0 1176.07)"/></g><g clip-path="url(#z)"><path d="m3.4375 6124.215625h5945.898438" style="fill:none;stroke-width:6.86227;stroke-linecap:round;stroke-linejoin:round;stroke:#000;stroke-miterlimit:10" transform="matrix(.1 0 0 -.1 0 1176.07)"/></g><use x="286.68" xlink:href="#aM" y="595.029"/><path d="m4836.835938 5840.465625h4.960937v334.0625h-4.960937zm0 0" style="fill:none;stroke-width:3.98555;stroke-linecap:round;stroke-linejoin:round;stroke:#000;stroke-miterlimit:10" transform="matrix(.1 0 0 -.1 0 1176.07)"/><path d="m483.683594 592.023438h.492187v-33.40625h-.492187zm0 0"/><use x="455.941" xlink:href="#V" y="643.501"/><use x="462.743768" xlink:href="#aF" y="643.501"/><use x="476.860583" xlink:href="#V" y="643.501"/><use x="484.513744" xlink:href="#V" y="643.501"/><use x="491.316512" xlink:href="#Z" y="643.501"/><use x="470.0246" xlink:href="#aL" y="595.0291"/><path d="m4144.726562 5885.309375h4.921876v341.5625h-4.921876zm0 0" style="fill:none;stroke-width:3.98555;stroke-linecap:round;stroke-linejoin:round;stroke:#000;stroke-miterlimit:10" transform="matrix(.1 0 0 -.1 0 1176.07)"/><path d="m414.472656 587.539062h.492188v-34.15625h-.492188zm0 0"/><use x="377.466" xlink:href="#am" y="643.501"/><use x="399.066419" xlink:href="#ah" y="643.501"/><use x="413.352766" xlink:href="#ak" y="643.501"/><use x="426.27895" xlink:href="#au" y="643.501"/><use x="401.5058" xlink:href="#aM" y="589.7987"/><path d="m3561.523438 5885.309375h4.921874v341.5625h-4.921874zm0 0" style="fill:none;stroke-width:3.98555;stroke-linecap:round;stroke-linejoin:round;stroke:#000;stroke-miterlimit:10" transform="matrix(.1 0 0 -.1 0 1176.07)"/><path d="m356.148438 587.539062h.496093v-34.15625h-.496093zm0 0"/><use x="339.298" xlink:href="#V" y="643.501"/><use x="346.441369" xlink:href="#ay" y="643.501"/><use x="343.18316" xlink:href="#aM" y="589.7987"/><path d="m2996.484375 5832.965625h4.921875v341.5625h-4.921875zm0 0" style="fill:none;stroke-width:3.98555;stroke-linecap:round;stroke-linejoin:round;stroke:#000;stroke-miterlimit:10" transform="matrix(.1 0 0 -.1 0 1176.07)"/><path d="m299.648438 592.773438h.492187v-34.15625h-.492187zm0 0"/><use x="280.075" xlink:href="#as" y="643.501"/><use x="286.877742" xlink:href="#ad" y="643.501"/><use x="301.164089" xlink:href="#ap" y="643.501"/><path d="m952.617188 5396.442187h63.554687v3.398438h-63.554687zm0 0" style="fill:none;stroke-width:5.49191;stroke-linecap:round;stroke-linejoin:round;stroke:#000;stroke-miterlimit:10" transform="matrix(.1 0 0 -.1 0 1176.07)"/><path d="m95.261719 636.429688h6.355469v-.34375h-6.355469zm0 0"/><path d="m1468.359375 5396.442187h63.554687v3.398438h-63.554687zm0 0" style="fill:none;stroke-width:5.49191;stroke-linecap:round;stroke-linejoin:round;stroke:#000;stroke-miterlimit:10" transform="matrix(.1 0 0 -.1 0 1176.07)"/><path d="m146.835938 636.429688h6.351562v-.34375h-6.351562zm0 0"/><path d="m3199.453125 5396.442187h63.554687v3.398438h-63.554687zm0 0" style="fill:none;stroke-width:5.49191;stroke-linecap:round;stroke-linejoin:round;stroke:#000;stroke-miterlimit:10" transform="matrix(.1 0 0 -.1 0 1176.07)"/><path d="m319.945312 636.429688h6.355469v-.34375h-6.355469zm0 0"/><path d="m3659.179688 5396.442187h63.554687v3.398438h-63.554687zm0 0" style="fill:none;stroke-width:5.49191;stroke-linecap:round;stroke-linejoin:round;stroke:#000;stroke-miterlimit:10" transform="matrix(.1 0 0 -.1 0 1176.07)"/><path d="m365.917969 636.429688h6.355469v-.34375h-6.355469zm0 0"/><path d="m4443.945312 5396.442187h63.554688v3.398438h-63.554688zm0 0" style="fill:none;stroke-width:5.49191;stroke-linecap:round;stroke-linejoin:round;stroke:#000;stroke-miterlimit:10" transform="matrix(.1 0 0 -.1 0 1176.07)"/><path d="m444.394531 636.429688h6.355469v-.34375h-6.355469zm0 0"/><use x="531.98" xlink:href="#aN" y="584.568"/><path d="m563.203125 5603.160937h4.921875v334.101563h-4.921875zm0 0" style="fill:none;stroke-width:3.98555;stroke-linecap:round;stroke-linejoin:round;stroke:#000;stroke-miterlimit:10" transform="matrix(.1 0 0 -.1 0 1176.07)"/><path d="m56.320312 615.753906h.492188v-33.410156h-.492188zm0 0"/><use x="43.909" xlink:href="#aI" y="643.501"/><use x="62.618408" xlink:href="#aF" y="643.501"/><use x="76.904371" xlink:href="#ap" y="643.501"/><use x="56.1219" xlink:href="#aL" y="579.3381"/><use x="8.3688" xlink:href="#aO" y="595.0291"/><use x="118.0778" xlink:href="#aM" y="579.3381"/><path d="m2312.851562 5568.317187h4.921876v324.140625h-4.921876zm0 0" style="fill:none;stroke-width:3.98555;stroke-linecap:round;stroke-linejoin:round;stroke:#000;stroke-miterlimit:10" transform="matrix(.1 0 0 -.1 0 1176.07)"/><path d="m231.28125 619.238281h.496094v-32.414062h-.496094zm0 0"/><use x="228.559" xlink:href="#aq" y="643.501"/><use x="234.341815" xlink:href="#ak" y="643.501"/><use x="231.08322" xlink:href="#aM" y="584.5682"/><path d="m1747.8125 5603.160937h4.921875v341.601563h-4.921875zm0 0" style="fill:none;stroke-width:3.98555;stroke-linecap:round;stroke-linejoin:round;stroke:#000;stroke-miterlimit:10" transform="matrix(.1 0 0 -.1 0 1176.07)"/><path d="m174.78125 615.753906h.492188v-34.160156h-.492188zm0 0"/><use x="164.404" xlink:href="#Y" y="643.501"/><use x="177.159883" xlink:href="#ah" y="643.501"/><use x="191.276699" xlink:href="#V" y="643.501"/><use x="174.5813" xlink:href="#aM" y="579.3381"/><path d="m1182.773438 5603.160937h4.921874v341.601563h-4.921874zm0 0" style="fill:none;stroke-width:3.98555;stroke-linecap:round;stroke-linejoin:round;stroke:#000;stroke-miterlimit:10" transform="matrix(.1 0 0 -.1 0 1176.07)"/><path d="m118.277344 615.753906h.492187v-34.160156h-.492187zm0 0"/><use x="114.193" xlink:href="#V" y="643.501"/><use x="121.336759" xlink:href="#ah" y="643.501"/><g clip-path="url(#A)"><path d="m3.4375 4450.504687h5945.898438" style="fill:none;stroke-width:6.86227;stroke-linecap:round;stroke-linejoin:round;stroke:#000;stroke-miterlimit:10" transform="matrix(.1 0 0 -.1 0 1176.07)"/></g><g clip-path="url(#B)"><path d="m3.4375 4555.114062h5945.898438" style="fill:none;stroke-width:6.86227;stroke-linecap:round;stroke-linejoin:round;stroke:#000;stroke-miterlimit:10" transform="matrix(.1 0 0 -.1 0 1176.07)"/></g><g clip-path="url(#C)"><path d="m3.4375 4659.723437h5945.898438" style="fill:none;stroke-width:6.86227;stroke-linecap:round;stroke-linejoin:round;stroke:#000;stroke-miterlimit:10" transform="matrix(.1 0 0 -.1 0 1176.07)"/></g><g clip-path="url(#D)"><path d="m3.4375 4764.332812h5945.898438" style="fill:none;stroke-width:6.86227;stroke-linecap:round;stroke-linejoin:round;stroke:#000;stroke-miterlimit:10" transform="matrix(.1 0 0 -.1 0 1176.07)"/></g><g clip-path="url(#E)"><path d="m3.4375 4868.942187h5945.898438" style="fill:none;stroke-width:6.86227;stroke-linecap:round;stroke-linejoin:round;stroke:#000;stroke-miterlimit:10" transform="matrix(.1 0 0 -.1 0 1176.07)"/></g><use x="382.814" xlink:href="#aL" y="725.789"/><path d="m4668.476562 4480.582812h4.921876v334.0625h-4.921876zm0 0" style="fill:none;stroke-width:3.98555;stroke-linecap:round;stroke-linejoin:round;stroke:#000;stroke-miterlimit:10" transform="matrix(.1 0 0 -.1 0 1176.07)"/><path d="m466.847656 728.011719h.492188v-33.40625h-.492188zm0 0"/><use x="445.482" xlink:href="#ac" y="767.632"/><use x="453.985507" xlink:href="#ah" y="767.632"/><use x="468.102323" xlink:href="#Z" y="767.632"/><use x="453.18747" xlink:href="#aL" y="731.0191"/><path d="m2702.382812 4577.692187h4.921876v341.5625h-4.921876zm0 0" style="fill:none;stroke-width:3.98555;stroke-linecap:round;stroke-linejoin:round;stroke:#000;stroke-miterlimit:10" transform="matrix(.1 0 0 -.1 0 1176.07)"/><path d="m270.238281 718.300781h.492188v-34.15625h-.492188zm0 0"/><path d="m3964.726562 4532.8875h4.960938v334.0625h-4.960938zm0 0" style="fill:none;stroke-width:3.98555;stroke-linecap:round;stroke-linejoin:round;stroke:#000;stroke-miterlimit:10" transform="matrix(.1 0 0 -.1 0 1176.07)"/><path d="m396.472656 722.78125h.492188v-33.40625h-.492188zm0 0"/><use x="382.846" xlink:href="#aw" y="767.632"/><path d="m3317.03125 4473.082812h4.921875v341.5625h-4.921875zm0 0" style="fill:none;stroke-width:3.98555;stroke-linecap:round;stroke-linejoin:round;stroke:#000;stroke-miterlimit:10" transform="matrix(.1 0 0 -.1 0 1176.07)"/><path d="m331.703125 728.761719h.492187v-34.15625h-.492187zm0 0"/><use x="311.703" xlink:href="#ah" y="767.632"/><use x="326.499895" xlink:href="#au" y="767.632"/><use x="318.73464" xlink:href="#aM" y="731.0191"/><path d="m1598.398438 4155.114062h63.554687v3.4375h-63.554687zm0 0" style="fill:none;stroke-width:5.49191;stroke-linecap:round;stroke-linejoin:round;stroke:#000;stroke-miterlimit:10" transform="matrix(.1 0 0 -.1 0 1176.07)"/><path d="m159.839844 760.558594h6.351562v-.34375h-6.351562zm0 0"/><path d="m4181.289062 4155.114062h63.554688v3.4375h-63.554688zm0 0" style="fill:none;stroke-width:5.49191;stroke-linecap:round;stroke-linejoin:round;stroke:#000;stroke-miterlimit:10" transform="matrix(.1 0 0 -.1 0 1176.07)"/><path d="m418.128906 760.558594h6.355469v-.34375h-6.355469zm0 0"/><use x="523.563" xlink:href="#aN" y="710.097"/><use x="8.369" xlink:href="#aO" y="720.5579"/><path d="m697.8125 4480.582812h4.921875v334.0625h-4.921875zm0 0" style="fill:none;stroke-width:3.98555;stroke-linecap:round;stroke-linejoin:round;stroke:#000;stroke-miterlimit:10" transform="matrix(.1 0 0 -.1 0 1176.07)"/><path d="m69.78125 728.011719h.492188v-33.40625h-.492188zm0 0"/><use x="250.238" xlink:href="#ah" y="767.632"/><use x="265.034895" xlink:href="#au" y="767.632"/><use x="56.122" xlink:href="#aL" y="731.0191"/><use x="41.7837" xlink:href="#av" y="767.632"/><use x="63.384125" xlink:href="#aG" y="767.632"/><use x="70.527885" xlink:href="#ai" y="767.632"/><use x="257.2707" xlink:href="#aM" y="720.5586"/><path d="m2061.5625 4629.996875h4.960938v341.5625h-4.960938zm0 0" style="fill:none;stroke-width:3.98555;stroke-linecap:round;stroke-linejoin:round;stroke:#000;stroke-miterlimit:10" transform="matrix(.1 0 0 -.1 0 1176.07)"/><path d="m206.15625 713.070312h.492188v-34.15625h-.492188zm0 0"/><use x="182.673" xlink:href="#ar" y="767.632"/><use x="188.455827" xlink:href="#ae" y="767.632"/><use x="202.572643" xlink:href="#V" y="767.632"/><use x="210.225777" xlink:href="#V" y="767.632"/><use x="193.1902" xlink:href="#aM" y="715.3281"/><path d="m1394.648438 4525.3875h4.921874v341.5625h-4.921874zm0 0" style="fill:none;stroke-width:3.98555;stroke-linecap:round;stroke-linejoin:round;stroke:#000;stroke-miterlimit:10" transform="matrix(.1 0 0 -.1 0 1176.07)"/><path d="m139.464844 723.53125h.492187v-34.15625h-.492187zm0 0"/><use x="123.292" xlink:href="#ad" y="767.632"/><use x="137.578347" xlink:href="#ap" y="767.632"/><use x="126.49708" xlink:href="#aM" y="725.789"/><g clip-path="url(#F)"><path d="m3.4375 3195.23125h5945.898438" style="fill:none;stroke-width:6.86227;stroke-linecap:round;stroke-linejoin:round;stroke:#000;stroke-miterlimit:10" transform="matrix(.1 0 0 -.1 0 1176.07)"/></g><g clip-path="url(#G)"><path d="m3.4375 3299.801562h5945.898438" style="fill:none;stroke-width:6.86227;stroke-linecap:round;stroke-linejoin:round;stroke:#000;stroke-miterlimit:10" transform="matrix(.1 0 0 -.1 0 1176.07)"/></g><g clip-path="url(#H)"><path d="m3.4375 3404.410937h5945.898438" style="fill:none;stroke-width:6.86227;stroke-linecap:round;stroke-linejoin:round;stroke:#000;stroke-miterlimit:10" transform="matrix(.1 0 0 -.1 0 1176.07)"/></g><g clip-path="url(#I)"><path d="m3.4375 3509.059375h5945.898438" style="fill:none;stroke-width:6.86227;stroke-linecap:round;stroke-linejoin:round;stroke:#000;stroke-miterlimit:10" transform="matrix(.1 0 0 -.1 0 1176.07)"/></g><g clip-path="url(#J)"><path d="m3.4375 3613.66875h5945.898438" style="fill:none;stroke-width:6.86227;stroke-linecap:round;stroke-linejoin:round;stroke:#000;stroke-miterlimit:10" transform="matrix(.1 0 0 -.1 0 1176.07)"/></g><use x="293.282" xlink:href="#aM" y="851.318"/><path d="m4806.054688 3172.965625h4.960937v334.0625h-4.960937zm0 0" style="fill:none;stroke-width:3.98555;stroke-linecap:round;stroke-linejoin:round;stroke:#000;stroke-miterlimit:10" transform="matrix(.1 0 0 -.1 0 1176.07)"/><path d="m480.605469 858.773438h.492187v-33.40625h-.492187zm0 0"/><use x="452.863" xlink:href="#V" y="893.161"/><use x="459.665768" xlink:href="#aF" y="893.161"/><use x="473.782583" xlink:href="#V" y="893.161"/><use x="481.435744" xlink:href="#V" y="893.161"/><use x="488.238512" xlink:href="#Z" y="893.161"/><use x="466.9474" xlink:href="#aL" y="861.7786"/><path d="m4220.234375 3217.809375h4.960937v341.5625h-4.960937zm0 0" style="fill:none;stroke-width:3.98555;stroke-linecap:round;stroke-linejoin:round;stroke:#000;stroke-miterlimit:10" transform="matrix(.1 0 0 -.1 0 1176.07)"/><path d="m422.023438 854.289062h.496093v-34.15625h-.496093zm0 0"/><use x="405.173" xlink:href="#V" y="893.161"/><use x="412.316784" xlink:href="#ah" y="893.161"/><use x="409.05816" xlink:href="#aM" y="856.5481"/><path d="m3641.367188 3217.809375h4.960937v341.5625h-4.960937zm0 0" style="fill:none;stroke-width:3.98555;stroke-linecap:round;stroke-linejoin:round;stroke:#000;stroke-miterlimit:10" transform="matrix(.1 0 0 -.1 0 1176.07)"/><path d="m364.136719 854.289062h.492187v-34.15625h-.492187zm0 0"/><use x="337.421" xlink:href="#af" y="893.161"/><use x="351.707347" xlink:href="#aF" y="893.161"/><use x="365.653459" xlink:href="#au" y="893.161"/><use x="351.1706" xlink:href="#aM" y="856.5481"/><path d="m3062.460938 3270.075h4.960937v341.5625h-4.960937zm0 0" style="fill:none;stroke-width:3.98555;stroke-linecap:round;stroke-linejoin:round;stroke:#000;stroke-miterlimit:10" transform="matrix(.1 0 0 -.1 0 1176.07)"/><path d="m306.246094 849.0625h.496094v-34.15625h-.496094zm0 0"/><use x="290.077" xlink:href="#ay" y="893.161"/><use x="304.363347" xlink:href="#ap" y="893.161"/><path d="m1457.929688 2899.801562h63.554687v3.4375h-63.554687zm0 0" style="fill:none;stroke-width:5.49191;stroke-linecap:round;stroke-linejoin:round;stroke:#000;stroke-miterlimit:10" transform="matrix(.1 0 0 -.1 0 1176.07)"/><path d="m145.792969 886.089844h6.355469v-.34375h-6.355469zm0 0"/><path d="m2696.914062 2899.801562h63.554688v3.4375h-63.554688zm0 0" style="fill:none;stroke-width:5.49191;stroke-linecap:round;stroke-linejoin:round;stroke:#000;stroke-miterlimit:10" transform="matrix(.1 0 0 -.1 0 1176.07)"/><path d="m269.691406 886.089844h6.351563v-.34375h-6.351563zm0 0"/><path d="m3206.054688 2899.801562h63.554687v3.4375h-63.554687zm0 0" style="fill:none;stroke-width:5.49191;stroke-linecap:round;stroke-linejoin:round;stroke:#000;stroke-miterlimit:10" transform="matrix(.1 0 0 -.1 0 1176.07)"/><path d="m320.605469 886.089844h6.355469v-.34375h-6.355469zm0 0"/><path d="m3886.992188 2899.801562h63.515624v3.4375h-63.515624zm0 0" style="fill:none;stroke-width:5.49191;stroke-linecap:round;stroke-linejoin:round;stroke:#000;stroke-miterlimit:10" transform="matrix(.1 0 0 -.1 0 1176.07)"/><path d="m388.699219 886.089844h6.351562v-.34375h-6.351562zm0 0"/><path d="m4365.546875 2899.801562h63.554687v3.4375h-63.554687zm0 0" style="fill:none;stroke-width:5.49191;stroke-linecap:round;stroke-linejoin:round;stroke:#000;stroke-miterlimit:10" transform="matrix(.1 0 0 -.1 0 1176.07)"/><path d="m436.554688 886.089844h6.355468v-.34375h-6.355468zm0 0"/><use x="530.442" xlink:href="#aN" y="835.627"/><path d="m697.8125 3172.965625h4.921875v334.0625h-4.921875zm0 0" style="fill:none;stroke-width:3.98555;stroke-linecap:round;stroke-linejoin:round;stroke:#000;stroke-miterlimit:10" transform="matrix(.1 0 0 -.1 0 1176.07)"/><path d="m69.78125 858.773438h.492188v-33.40625h-.492188zm0 0"/><use x="33.2801" xlink:href="#aI" y="893.161"/><use x="51.989118" xlink:href="#aF" y="893.161"/><use x="66.275471" xlink:href="#ai" y="893.161"/><use x="80.392292" xlink:href="#aj" y="893.161"/><use x="56.1219" xlink:href="#aL" y="861.7786"/><use x="8.3688" xlink:href="#aO" y="846.0876"/><use x="119.6178" xlink:href="#aM" y="856.5481"/><path d="m2483.59375 3322.41875h4.960938v341.5625h-4.960938zm0 0" style="fill:none;stroke-width:3.98555;stroke-linecap:round;stroke-linejoin:round;stroke:#000;stroke-miterlimit:10" transform="matrix(.1 0 0 -.1 0 1176.07)"/><path d="m248.359375 843.828125h.496094v-34.15625h-.496094zm0 0"/><use x="228.788" xlink:href="#as" y="893.161"/><use x="235.590742" xlink:href="#ad" y="893.161"/><use x="249.877089" xlink:href="#ap" y="893.161"/><use x="235.39425" xlink:href="#aM" y="846.0876"/><path d="m1904.726562 3270.075h4.921876v341.5625h-4.921876zm0 0" style="fill:none;stroke-width:3.98555;stroke-linecap:round;stroke-linejoin:round;stroke:#000;stroke-miterlimit:10" transform="matrix(.1 0 0 -.1 0 1176.07)"/><path d="m190.472656 849.0625h.492188v-34.15625h-.492188zm0 0"/><use x="160.014" xlink:href="#V" y="893.161"/><use x="167.157369" xlink:href="#W" y="893.161"/><use x="181.443716" xlink:href="#X" y="893.161"/><use x="195.730063" xlink:href="#Y" y="893.161"/><use x="177.5054" xlink:href="#aM" y="851.318"/><path d="m1325.859375 3217.809375h4.921875v341.5625h-4.921875zm0 0" style="fill:none;stroke-width:3.98555;stroke-linecap:round;stroke-linejoin:round;stroke:#000;stroke-miterlimit:10" transform="matrix(.1 0 0 -.1 0 1176.07)"/><path d="m132.585938 854.289062h.492187v-34.15625h-.492187zm0 0"/><use x="114.967" xlink:href="#ag" y="893.161"/><use x="129.252956" xlink:href="#ac" y="893.161"/><g clip-path="url(#K)"><path d="m3.4375 1939.91875h5945.898438" style="fill:none;stroke-width:6.86227;stroke-linecap:round;stroke-linejoin:round;stroke:#000;stroke-miterlimit:10" transform="matrix(.1 0 0 -.1 0 1176.07)"/></g><g clip-path="url(#L)"><path d="m3.4375 2044.528125h5945.898438" style="fill:none;stroke-width:6.86227;stroke-linecap:round;stroke-linejoin:round;stroke:#000;stroke-miterlimit:10" transform="matrix(.1 0 0 -.1 0 1176.07)"/></g><g clip-path="url(#M)"><path d="m3.4375 2149.1375h5945.898438" style="fill:none;stroke-width:6.86227;stroke-linecap:round;stroke-linejoin:round;stroke:#000;stroke-miterlimit:10" transform="matrix(.1 0 0 -.1 0 1176.07)"/></g><g clip-path="url(#N)"><path d="m3.4375 2253.746875h5945.898438" style="fill:none;stroke-width:6.86227;stroke-linecap:round;stroke-linejoin:round;stroke:#000;stroke-miterlimit:10" transform="matrix(.1 0 0 -.1 0 1176.07)"/></g><g clip-path="url(#O)"><path d="m3.4375 2358.35625h5945.898438" style="fill:none;stroke-width:6.86227;stroke-linecap:round;stroke-linejoin:round;stroke:#000;stroke-miterlimit:10" transform="matrix(.1 0 0 -.1 0 1176.07)"/></g><use x="295.211" xlink:href="#aM" y="961.156"/><path d="m4813.59375 2074.60625h4.960938v334.0625h-4.960938zm0 0" style="fill:none;stroke-width:3.98555;stroke-linecap:round;stroke-linejoin:round;stroke:#000;stroke-miterlimit:10" transform="matrix(.1 0 0 -.1 0 1176.07)"/><path d="m481.359375 968.609375h.492187v-33.40625h-.492187zm0 0"/><use x="453.617" xlink:href="#V" y="1018.69"/><use x="460.419768" xlink:href="#aF" y="1018.69"/><use x="474.536583" xlink:href="#V" y="1018.69"/><use x="482.189744" xlink:href="#V" y="1018.69"/><use x="488.992122" xlink:href="#Z" y="1018.69"/><use x="467.7002" xlink:href="#aL" y="971.6166"/><path d="m4231.171875 2119.410937h4.921875v341.5625h-4.921875zm0 0" style="fill:none;stroke-width:3.98555;stroke-linecap:round;stroke-linejoin:round;stroke:#000;stroke-miterlimit:10" transform="matrix(.1 0 0 -.1 0 1176.07)"/><path d="m423.117188 964.128906h.492187v-34.15625h-.492187zm0 0"/><use x="402.694" xlink:href="#af" y="1018.69"/><use x="416.980347" xlink:href="#ah" y="1018.69"/><use x="410.15142" xlink:href="#aM" y="966.3861"/><path d="m3655.664062 2119.410937h4.960938v341.5625h-4.960938zm0 0" style="fill:none;stroke-width:3.98555;stroke-linecap:round;stroke-linejoin:round;stroke:#000;stroke-miterlimit:10" transform="matrix(.1 0 0 -.1 0 1176.07)"/><path d="m365.566406 964.128906h.496094v-34.15625h-.496094zm0 0"/><use x="352.289" xlink:href="#ah" y="1018.69"/><use x="352.6015" xlink:href="#aM" y="966.3861"/><path d="m2954.101562 1802.457812h4.960938v324.101563h-4.960938zm0 0" style="fill:none;stroke-width:3.98555;stroke-linecap:round;stroke-linejoin:round;stroke:#000;stroke-miterlimit:10" transform="matrix(.1 0 0 -.1 0 1176.07)"/><path d="m295.410156 995.824219h.496094v-32.410157h-.496094zm0 0"/><use x="290.646" xlink:href="#ac" y="1018.69"/><use x="299.149532" xlink:href="#ah" y="1018.69"/><path d="m854.257812 1644.528125h63.554688v3.4375h-63.554688zm0 0" style="fill:none;stroke-width:5.49191;stroke-linecap:round;stroke-linejoin:round;stroke:#000;stroke-miterlimit:10" transform="matrix(.1 0 0 -.1 0 1176.07)"/><path d="m85.425781 1011.617188h6.355469v-.34375h-6.355469zm0 0"/><path d="m2156.445312 1644.528125h63.554688v3.4375h-63.554688zm0 0" style="fill:none;stroke-width:5.49191;stroke-linecap:round;stroke-linejoin:round;stroke:#000;stroke-miterlimit:10" transform="matrix(.1 0 0 -.1 0 1176.07)"/><path d="m215.644531 1011.617188h6.351563v-.34375h-6.351563zm0 0"/><path d="m2694.101562 1644.528125h63.554688v3.4375h-63.554688zm0 0" style="fill:none;stroke-width:5.49191;stroke-linecap:round;stroke-linejoin:round;stroke:#000;stroke-miterlimit:10" transform="matrix(.1 0 0 -.1 0 1176.07)"/><path d="m269.410156 1011.617188h6.355469v-.34375h-6.355469zm0 0"/><path d="m3814.570312 1644.528125h63.554688v3.4375h-63.554688zm0 0" style="fill:none;stroke-width:5.49191;stroke-linecap:round;stroke-linejoin:round;stroke:#000;stroke-miterlimit:10" transform="matrix(.1 0 0 -.1 0 1176.07)"/><path d="m381.457031 1011.617188h6.355469v-.34375h-6.355469zm0 0"/><path d="m4392.65625 1644.528125h63.515625v3.4375h-63.515625zm0 0" style="fill:none;stroke-width:5.49191;stroke-linecap:round;stroke-linejoin:round;stroke:#000;stroke-miterlimit:10" transform="matrix(.1 0 0 -.1 0 1176.07)"/><path d="m439.261719 1011.617188h6.355469v-.34375h-6.355469zm0 0"/><use x="530.818" xlink:href="#aN" y="961.156"/><path d="m697.8125 2074.60625h4.921875v334.0625h-4.921875zm0 0" style="fill:none;stroke-width:3.98555;stroke-linecap:round;stroke-linejoin:round;stroke:#000;stroke-miterlimit:10" transform="matrix(.1 0 0 -.1 0 1176.07)"/><path d="m69.78125 968.609375h.492188v-33.40625h-.492188zm0 0"/><use x="47.566" xlink:href="#aJ" y="1018.69"/><use x="64.743761" xlink:href="#ab" y="1018.69"/><use x="56.12186" xlink:href="#aL" y="971.6166"/><use x="8.368841" xlink:href="#aO" y="971.6166"/><use x="119.24026" xlink:href="#aM" y="966.38613"/><path d="m2378.59375 1837.301562h4.960938v341.5625h-4.960938zm0 0" style="fill:none;stroke-width:3.98555;stroke-linecap:round;stroke-linejoin:round;stroke:#000;stroke-miterlimit:10" transform="matrix(.1 0 0 -.1 0 1176.07)"/><path d="m237.859375 992.339844h.496094v-34.15625h-.496094zm0 0"/><use x="234.457" xlink:href="#ap" y="1018.69"/><use x="240.239425" xlink:href="#ay" y="1018.69"/><use x="237.66208" xlink:href="#aM" y="955.9252"/><path d="m1803.125 1802.457812h4.960938v324.101563h-4.960938zm0 0" style="fill:none;stroke-width:3.98555;stroke-linecap:round;stroke-linejoin:round;stroke:#000;stroke-miterlimit:10" transform="matrix(.1 0 0 -.1 0 1176.07)"/><path d="m180.3125 995.824219h.492188v-32.410157h-.492188zm0 0"/><use x="170.701" xlink:href="#aB" y="1018.69"/><use x="183.116647" xlink:href="#ay" y="1018.69"/><use x="197.402994" xlink:href="#ap" y="1018.69"/><use x="180.1135" xlink:href="#aM" y="961.1556"/><path d="m1322.070312 2119.410937h4.921876v341.5625h-4.921876zm0 0" style="fill:none;stroke-width:3.98555;stroke-linecap:round;stroke-linejoin:round;stroke:#000;stroke-miterlimit:10" transform="matrix(.1 0 0 -.1 0 1176.07)"/><path d="m132.207031 964.128906h.492188v-34.15625h-.492188zm0 0"/><use x="98.1773" xlink:href="#X" y="1018.69"/><use x="112.463647" xlink:href="#W" y="1018.69"/><use x="126.749994" xlink:href="#X" y="1018.69"/><use x="141.036341" xlink:href="#Y" y="1018.69"/><g clip-path="url(#P)"><path d="m3.4375 684.645312h5945.898438" style="fill:none;stroke-width:6.86227;stroke-linecap:round;stroke-linejoin:round;stroke:#000;stroke-miterlimit:10" transform="matrix(.1 0 0 -.1 0 1176.07)"/></g><g clip-path="url(#Q)"><path d="m3.4375 789.254687h5945.898438" style="fill:none;stroke-width:6.86227;stroke-linecap:round;stroke-linejoin:round;stroke:#000;stroke-miterlimit:10" transform="matrix(.1 0 0 -.1 0 1176.07)"/></g><g clip-path="url(#R)"><path d="m3.4375 893.864062h5945.898438" style="fill:none;stroke-width:6.86227;stroke-linecap:round;stroke-linejoin:round;stroke:#000;stroke-miterlimit:10" transform="matrix(.1 0 0 -.1 0 1176.07)"/></g><g clip-path="url(#S)"><path d="m3.4375 998.434375h5945.898438" style="fill:none;stroke-width:6.86227;stroke-linecap:round;stroke-linejoin:round;stroke:#000;stroke-miterlimit:10" transform="matrix(.1 0 0 -.1 0 1176.07)"/></g><g clip-path="url(#T)"><path d="m3.4375 1103.04375h5945.898438" style="fill:none;stroke-width:6.86227;stroke-linecap:round;stroke-linejoin:round;stroke:#000;stroke-miterlimit:10" transform="matrix(.1 0 0 -.1 0 1176.07)"/></g><path d="m4924.6875 580.035937h294.726562" style="fill:none;stroke-width:17.323;stroke-linecap:round;stroke-linejoin:round;stroke:#000;stroke-miterlimit:10" transform="matrix(.1 0 0 -.1 0 1176.07)"/><path d="m533.984375 580.035937h198.007813" style="fill:none;stroke-width:17.323;stroke-linecap:round;stroke-linejoin:round;stroke:#000;stroke-miterlimit:10" transform="matrix(.1 0 0 -.1 0 1176.07)"/><g clip-path="url(#U)"><path d="m5932.1875 684.645312v418.398438" fill="none" stroke="#000" stroke-linejoin="round" stroke-miterlimit="10" stroke-width="41.1631" transform="matrix(.1 0 0 -.1 0 1176.07)"/></g><path d="m5884.492188 684.645312v418.398438" fill="none" stroke="#000" stroke-linejoin="round" stroke-miterlimit="10" stroke-width="13.0341" transform="matrix(.1 0 0 -.1 0 1176.07)"/><use x="496.803" xlink:href="#aQ" y="1118.0677"/><use x="276.462" xlink:href="#aM" y="1102.3763"/><path d="m4323.007812 662.379687h4.921876v334.0625h-4.921876zm0 0" fill="none" stroke="#000" stroke-linejoin="round" stroke-miterlimit="10" stroke-width="3.98555" transform="matrix(.1 0 0 -.1 0 1176.07)"/><path d="m432.300781 1109.832031h.492188v-33.40625h-.492188zm0 0"/><use x="415.187" xlink:href="#as" y="1147.7677"/><use x="422.16008" xlink:href="#ay" y="1147.7677"/><use x="418.64013" xlink:href="#aL" y="1112.8372"/><path d="m3605.195312 707.223437h4.921876v341.5625h-4.921876zm0 0" fill="none" stroke="#000" stroke-linejoin="round" stroke-miterlimit="10" stroke-width="3.98555" transform="matrix(.1 0 0 -.1 0 1176.07)"/><path d="m360.519531 1105.351562h.492188v-34.15625h-.492188zm0 0"/><use x="326.574" xlink:href="#ac" y="1147.7677"/><use x="334.908" xlink:href="#ad" y="1147.7677"/><use x="349.194347" xlink:href="#ak" y="1147.7677"/><use x="362.120922" xlink:href="#au" y="1147.7677"/><use x="375.047106" xlink:href="#V" y="1147.7677"/><use x="347.5521" xlink:href="#aM" y="1107.6068"/><path d="m2894.296875 759.489062h4.921875v341.601563h-4.921875zm0 0" fill="none" stroke="#000" stroke-linejoin="round" stroke-miterlimit="10" stroke-width="3.98555" transform="matrix(.1 0 0 -.1 0 1176.07)"/><path d="m289.429688 1100.121094h.492187v-34.15625h-.492187zm0 0"/><use x="269.941" xlink:href="#Y" y="1147.7677"/><use x="282.356637" xlink:href="#ad" y="1147.7677"/><path d="m1031.523438 353.746875h63.554687v3.4375h-63.554687zm0 0" fill="none" stroke="#000" stroke-linejoin="round" stroke-miterlimit="10" stroke-width="5.49191" transform="matrix(.1 0 0 -.1 0 1176.07)"/><path d="m103.152344 1140.695312h6.355468v-.34375h-6.355468zm0 0"/><path d="m1679.101562 353.746875h63.554688v3.4375h-63.554688zm0 0" fill="none" stroke="#000" stroke-linejoin="round" stroke-miterlimit="10" stroke-width="5.49191" transform="matrix(.1 0 0 -.1 0 1176.07)"/><path d="m167.910156 1140.695312h6.355469v-.34375h-6.355469zm0 0"/><path d="m3084.296875 353.746875h63.554687v3.4375h-63.554687zm0 0" fill="none" stroke="#000" stroke-linejoin="round" stroke-miterlimit="10" stroke-width="5.49191" transform="matrix(.1 0 0 -.1 0 1176.07)"/><path d="m308.429688 1140.695312h6.355468v-.34375h-6.355468zm0 0"/><path d="m3955.117188 353.746875h63.515624v3.4375h-63.515624zm0 0" fill="none" stroke="#000" stroke-linejoin="round" stroke-miterlimit="10" stroke-width="5.49191" transform="matrix(.1 0 0 -.1 0 1176.07)"/><path d="m395.511719 1140.695312h6.351562v-.34375h-6.351562zm0 0"/><path d="m4612.070312 353.746875h63.554688v3.4375h-63.554688zm0 0" fill="none" stroke="#000" stroke-linejoin="round" stroke-miterlimit="10" stroke-width="5.49191" transform="matrix(.1 0 0 -.1 0 1176.07)"/><path d="m461.207031 1140.695312h6.355469v-.34375h-6.355469zm0 0"/><use x="492.324" xlink:href="#ac" y="1147.7677"/><use x="500.827507" xlink:href="#ah" y="1147.7677"/><use x="514.944323" xlink:href="#az" y="1147.7677"/><use x="8.369" xlink:href="#aO" y="1097.1462"/><path d="m697.8125 610.075h4.921875v334.0625h-4.921875zm0 0" fill="none" stroke="#000" stroke-linejoin="round" stroke-miterlimit="10" stroke-width="3.98555" transform="matrix(.1 0 0 -.1 0 1176.07)"/><path d="m69.78125 1115.0625h.492188v-33.40625h-.492188zm0 0"/><use x="56.1219" xlink:href="#aL" y="1118.0677"/><use x="45.6957" xlink:href="#aK" y="1147.7677"/><use x="60.832443" xlink:href="#ad" y="1147.7677"/><use x="75.118796" xlink:href="#ap" y="1147.7677"/><path d="m2183.398438 707.223437h4.921874v341.5625h-4.921874zm0 0" fill="none" stroke="#000" stroke-linejoin="round" stroke-miterlimit="10" stroke-width="3.98555" transform="matrix(.1 0 0 -.1 0 1176.07)"/><path d="m218.339844 1105.351562h.492187v-34.15625h-.492187zm0 0"/><use x="191.709" xlink:href="#aB" y="1147.7677"/><use x="204.12504" xlink:href="#ag" y="1147.7677"/><use x="218.410996" xlink:href="#X" y="1147.7677"/><use x="205.3738" xlink:href="#aM" y="1107.6068"/><path d="m1472.539062 654.91875h4.921876v341.5625h-4.921876zm0 0" fill="none" stroke="#000" stroke-linejoin="round" stroke-miterlimit="10" stroke-width="3.98555" transform="matrix(.1 0 0 -.1 0 1176.07)"/><path d="m147.253906 1110.582031h.492188v-34.15625h-.492188zm0 0"/><use x="131.761" xlink:href="#aB" y="1147.7677"/><use x="144.687196" xlink:href="#aq" y="1147.7677"/><use x="134.28483" xlink:href="#aM" y="1112.8372"/></svg>