<svg height="731.11em" viewBox="0 0 595.28 731.11" width="595.28em" xmlns="http://www.w3.org/2000/svg" xmlns:xlink="http://www.w3.org/1999/xlink"><clipPath id="a"><path d="m0 67h595.28125v1h-595.28125zm0 0"/></clipPath><clipPath id="b"><path d="m0 57h595.28125v1h-595.28125zm0 0"/></clipPath><clipPath id="c"><path d="m0 47h595.28125v1h-595.28125zm0 0"/></clipPath><clipPath id="d"><path d="m0 37h595.28125v2h-595.28125zm0 0"/></clipPath><clipPath id="e"><path d="m0 27h595.28125v2h-595.28125zm0 0"/></clipPath><clipPath id="f"><path d="m594 27h1.28125v42h-1.28125zm0 0"/></clipPath><clipPath id="g"><path d="m0 186h595.28125v2h-595.28125zm0 0"/></clipPath><clipPath id="h"><path d="m0 176h595.28125v2h-595.28125zm0 0"/></clipPath><clipPath id="i"><path d="m0 166h595.28125v2h-595.28125zm0 0"/></clipPath><clipPath id="j"><path d="m0 156h595.28125v2h-595.28125zm0 0"/></clipPath><clipPath id="k"><path d="m0 146h595.28125v2h-595.28125zm0 0"/></clipPath><clipPath id="l"><path d="m594 146h1.28125v42h-1.28125zm0 0"/></clipPath><clipPath id="m"><path d="m0 306h595.28125v1h-595.28125zm0 0"/></clipPath><clipPath id="n"><path d="m0 296h595.28125v2h-595.28125zm0 0"/></clipPath><clipPath id="o"><path d="m0 286h595.28125v2h-595.28125zm0 0"/></clipPath><clipPath id="p"><path d="m0 276h595.28125v2h-595.28125zm0 0"/></clipPath><clipPath id="q"><path d="m0 266h595.28125v2h-595.28125zm0 0"/></clipPath><clipPath id="r"><path d="m594 266h1.28125v42h-1.28125zm0 0"/></clipPath><clipPath id="s"><path d="m0 425h595.28125v2h-595.28125zm0 0"/></clipPath><clipPath id="t"><path d="m0 415h595.28125v2h-595.28125zm0 0"/></clipPath><clipPath id="u"><path d="m0 405h595.28125v2h-595.28125zm0 0"/></clipPath><clipPath id="v"><path d="m0 395h595.28125v2h-595.28125zm0 0"/></clipPath><clipPath id="w"><path d="m0 386h595.28125v1h-595.28125zm0 0"/></clipPath><clipPath id="x"><path d="m594 385h1.28125v42h-1.28125zm0 0"/></clipPath><clipPath id="y"><path d="m0 545h595.28125v2h-595.28125zm0 0"/></clipPath><clipPath id="z"><path d="m0 535h595.28125v2h-595.28125zm0 0"/></clipPath><clipPath id="A"><path d="m0 525h595.28125v2h-595.28125zm0 0"/></clipPath><clipPath id="B"><path d="m0 515h595.28125v2h-595.28125zm0 0"/></clipPath><clipPath id="C"><path d="m0 505h595.28125v2h-595.28125zm0 0"/></clipPath><clipPath id="D"><path d="m594 505h1.28125v42h-1.28125zm0 0"/></clipPath><clipPath id="E"><path d="m0 664h595.28125v2h-595.28125zm0 0"/></clipPath><clipPath id="F"><path d="m0 655h595.28125v1h-595.28125zm0 0"/></clipPath><clipPath id="G"><path d="m0 645h595.28125v1h-595.28125zm0 0"/></clipPath><clipPath id="H"><path d="m0 635h595.28125v1h-595.28125zm0 0"/></clipPath><clipPath id="I"><path d="m0 625h595.28125v1h-595.28125zm0 0"/></clipPath><clipPath id="J"><path d="m591 623h4.28125v45h-4.28125zm0 0"/></clipPath><symbol id="K" overflow="visible"><path d="m8.84375-5.375c-1.671875 0-3.265625.546875-4.703125 1.4375-1.875 1.109375-4.140625 3.0625-4.140625 5.890625 0 2.34375 2.078125 3.421875 4.1875 3.421875 1.671875 0 3.265625-.546875 4.703125-1.4375 1.875-1.109375 4.09375-3.0625 4.09375-5.890625 0-2.34375-2.03125-3.421875-4.140625-3.421875zm0 0"/></symbol><symbol id="L" overflow="visible"><path d="m1-1.75c.03125-1.3125.90625-2.46875 2.140625-2.46875 1.203125 0 1.765625 1.390625 1.765625 2.75 0 2.34375-2 4.015625-3.828125 5.53125-.078125-.875-.15625-1.75-.15625-2.625 0-.15625.03125-.28125.03125-.4375zm-2-16.703125.4375 23.875c0 .46875.359375.828125.84375.828125.71875 0 1.03125-.828125 1.59375-1.265625 2.515625-2.03125 6.09375-3.46875 6.09375-6.734375 0-2.15625-1.59375-3.984375-3.703125-3.984375-1.28125 0-2.46875.4375-3.515625 1.1875l.25-13.90625c-.328125-.15625-.640625-.28125-1-.28125s-.671875.125-1 .28125zm0 0"/></symbol><symbol id="M" overflow="visible"><path d="m14.90625-10.359375c-.640625-2.796875-1.40625-5.53125-2.203125-8.28125 3.828125-4.34375 7.296875-8.8125 7.296875-14.546875 0-4.5-2.46875-10.953125-5.25-14.3125-.203125-.15625-.453125-.15625-.640625 0-3.796875 2.75-5.984375 7.140625-5.984375 11.765625 0 2.0625.046875 4.09375.28125 6.125.28125 2.59375.953125 5.109375 1.671875 7.609375-4.703125 5.34375-10 10.4375-10 17.53125 0 8.015625 5.78125 14.828125 13.265625 14.828125 1.234375 0 2.390625-.125 3.546875-.3125.125 1.265625.203125 2.546875.203125 3.8125 0 .71875-.046875 1.40625-.078125 2.125-.234375 3.9375-2.671875 7.5625-6.375 7.640625-.046875 0-.078125.046875-.125.046875-2.03125 0-3.78125-1.15625-4.8125-2.796875.4375.203125.90625.359375 1.390625.359375 2.078125 0 3.78125-1.703125 3.78125-3.78125 0-2.234375-1.625-4.140625-3.78125-4.140625-2.359375 0-4.46875 1.828125-4.46875 4.140625 0 4.296875 3.46875 7.765625 7.78125 7.765625 4.6875 0 7.921875-4.21875 8.203125-9 .03125-.765625.03125-1.46875.03125-2.234375 0-1.4375-.078125-2.875-.1875-4.296875 1.03125-.328125 2.03125-.796875 2.90625-1.484375 2.953125-2.1875 4.265625-5.25 4.265625-8.28125 0-5.265625-3.984375-10.328125-10.125-10.328125-.203125 0-.40625.046875-.59375.046875zm3.375 18.53125c-.546875-4.9375-1.46875-9.640625-2.46875-14.3125 4.390625.359375 7.140625 4.03125 7.140625 7.6875 0 2.796875-1.921875 5.671875-4.671875 6.625zm-15.453125-9.40625c0-6.375 4.296875-11.203125 8.609375-16.015625.640625 2.34375 1.265625 4.703125 1.828125 7.09375-4.015625.90625-6.296875 4.296875-6.296875 7.8125 0 2.78125 1.4375 5.609375 4.625 7.328125.125.03125.234375.078125.359375.078125.4375 0 .796875-.40625.796875-.84375 0-.1875-.125-.390625-.28125-.546875-2.234375-1.28125-3.265625-3.1875-3.265625-4.953125 0-2.34375 1.828125-4.453125 4.984375-4.8125 1.03125 4.78125 1.953125 9.515625 2.546875 14.625-1.078125.15625-2.15625.234375-3.265625.234375-5.421875 0-10.640625-4.578125-10.640625-10zm13.546875-40.609375c.671875 2.125.84375 3.15625.84375 5.46875 0 5.0625-2.671875 9.078125-5.9375 12.953125-.71875-2.515625-1.3125-4.953125-1.3125-7.96875 0-4.421875 2.46875-8.453125 6.40625-10.453125zm0 0"/></symbol><symbol id="N" overflow="visible"><path d="m8.5625 12.59375v-6.5l1.953125-.671875c.25-.078125.4375-.328125.4375-.59375v-2.59375c0-.4375-.4375-.765625-.828125-.59375l-1.5625.546875v-6.53125l1.953125-.71875c.25-.078125.4375-.3125.4375-.59375v-2.546875c0-.4375-.4375-.765625-.828125-.609375l-1.5625.53125v-5.984375c0-.359375-.3125-.671875-.671875-.671875s-.671875.3125-.671875.671875v6.453125l-3.46875 1.234375v-6.015625c0-.359375-.328125-.671875-.6875-.671875s-.671875.3125-.671875.671875v6.5l-1.953125.671875c-.234375.078125-.4375.328125-.4375.59375v2.59375c0 .4375.4375.765625.84375.59375l1.546875-.546875v6.53125l-1.953125.71875c-.234375.078125-.4375.3125-.4375.59375v2.546875c0 .4375.4375.765625.84375.609375l1.546875-.53125v5.984375c0 .359375.3125.671875.671875.671875s.6875-.3125.6875-.671875v-6.453125l3.46875-1.234375v6.015625c0 .359375.3125.671875.671875.671875s.671875-.3125.671875-.671875zm-4.8125-15.265625 3.46875-1.1875v6.53125l-3.46875 1.1875zm0 0"/></symbol><symbol id="O" overflow="visible"><path d="m-2.515625-1.875c0 1.390625 1.125 2.515625 2.515625 2.515625s2.515625-1.125 2.515625-2.515625-1.125-2.515625-2.515625-2.515625-2.515625 1.125-2.515625 2.515625zm2.515625-12.46875c-6.171875 0-13.109375 6.890625-13.109375 14.421875 0 .328125.3125.5625.640625.5625.28125 0 .59375-.203125.671875-.640625 1.03125-5.9375 5.859375-10.5625 11.796875-10.5625s10.765625 4.625 11.796875 10.5625c.078125.4375.390625.640625.671875.640625.328125 0 .640625-.234375.640625-.5625 0-7.53125-6.890625-14.421875-13.109375-14.421875zm0 0"/></symbol><symbol id="P" overflow="visible"><path d="m6.25-12.890625h-2.125v-3.53125h-2.03125v3.53125h-1.75v1.671875h1.75v9.75c0 1.328125.875 2.03125 2.484375 2.03125.53125 0 .984375-.046875 1.671875-.171875v-1.71875c-.296875.078125-.5625.09375-.984375.09375-.890625 0-1.140625-.234375-1.140625-1.15625v-8.828125h2.125zm0 0"/></symbol><symbol id="Q" overflow="visible"><path d="m6.6875-13.25c-3.640625 0-5.796875 2.578125-5.796875 6.90625 0 4.359375 2.15625 6.90625 5.828125 6.90625 3.640625 0 5.828125-2.578125 5.828125-6.8125 0-4.46875-2.125-7-5.859375-7zm.03125 1.890625c2.3125 0 3.6875 1.890625 3.6875 5.09375 0 3.046875-1.421875 4.9375-3.6875 4.9375-2.296875 0-3.6875-1.890625-3.6875-5.015625s1.390625-5.015625 3.6875-5.015625zm.609375-6.84375-2.359375 3.640625h1.46875l3.671875-3.640625zm0 0"/></symbol><symbol id="R" overflow="visible"><path d="m7.015625 0 4.9375-12.890625h-2.3125l-3.640625 10.453125-3.4375-10.453125h-2.3125l4.515625 12.890625zm0 0"/></symbol><symbol id="S" overflow="visible"><path d="m13.15625-1.203125c-.21875.046875-.3125.046875-.4375.046875-.71875 0-1.109375-.375-1.109375-1.015625v-7.5625c0-2.296875-1.671875-3.515625-4.84375-3.515625-1.890625 0-3.390625.53125-4.28125 1.5-.59375.65625-.84375 1.390625-.890625 2.671875h2.078125c.171875-1.578125 1.09375-2.28125 3.015625-2.28125 1.875 0 2.875.6875 2.875 1.921875v.53125c-.015625.890625-.46875 1.203125-2.140625 1.4375-2.890625.359375-3.34375.453125-4.125.78125-1.5.640625-2.265625 1.765625-2.265625 3.4375 0 2.34375 1.625 3.8125 4.234375 3.8125 1.625 0 2.921875-.5625 4.375-1.890625.140625 1.328125.78125 1.890625 2.109375 1.890625.453125 0 .71875-.046875 1.40625-.21875zm-3.59375-2.859375c0 .6875-.1875 1.109375-.8125 1.671875-.828125.765625-1.84375 1.15625-3.046875 1.15625-1.59375 0-2.53125-.75-2.53125-2.0625 0-1.34375.890625-2.046875 3.09375-2.359375 2.1875-.296875 2.609375-.390625 3.296875-.71875zm-2.09375-14.140625-2.375 3.640625h1.46875l3.671875-3.640625zm0 0"/></symbol><symbol id="T" overflow="visible"><path d="m3.734375-17.921875h-2.0625v17.921875h2.0625zm0 0"/></symbol><symbol id="U" overflow="visible"><path d="m1.71875-12.890625v12.890625h2.0625v-8.09375c0-1.859375 1.359375-3.359375 3.03125-3.359375 1.53125 0 2.390625.921875 2.390625 2.578125v8.875h2.0625v-8.09375c0-1.859375 1.34375-3.359375 3.015625-3.359375 1.515625 0 2.390625.953125 2.390625 2.578125v8.875h2.0625v-9.671875c0-2.3125-1.328125-3.578125-3.734375-3.578125-1.71875 0-2.75.515625-3.953125 1.96875-.765625-1.390625-1.796875-1.96875-3.46875-1.96875-1.71875 0-2.875.640625-3.96875 2.1875v-1.828125zm0 0"/></symbol><symbol id="V" overflow="visible"><path d="m12.609375-5.75c0-1.96875-.140625-3.15625-.515625-4.109375-.828125-2.125-2.796875-3.390625-5.203125-3.390625-3.59375 0-5.90625 2.71875-5.90625 6.984375 0 4.25 2.21875 6.828125 5.859375 6.828125 2.9375 0 4.984375-1.671875 5.5-4.46875h-2.0625c-.5625 1.6875-1.71875 2.578125-3.375 2.578125-1.296875 0-2.40625-.59375-3.09375-1.671875-.5-.734375-.671875-1.46875-.6875-2.75zm-9.4375-1.671875c.171875-2.390625 1.625-3.9375 3.6875-3.9375 2.09375 0 3.546875 1.625 3.546875 3.9375zm0 0"/></symbol><symbol id="W" overflow="visible"><path d="m9.9375-12.890625v1.875c-1.03125-1.546875-2.171875-2.234375-3.78125-2.234375-3.125 0-5.296875 2.890625-5.296875 7.03125 0 2.15625.515625 3.734375 1.625 5.03125.953125 1.140625 2.1875 1.75 3.515625 1.75 1.546875 0 2.65625-.6875 3.734375-2.3125v.671875c0 3.4375-.953125 4.71875-3.515625 4.71875-1.75 0-2.65625-.6875-2.84375-2.171875h-2.09375c.1875 2.390625 2.09375 3.890625 4.890625 3.890625 1.890625 0 3.46875-.609375 4.3125-1.640625.96875-1.203125 1.34375-2.8125 1.34375-5.828125v-10.78125zm-3.59375 1.53125c2.171875 0 3.390625 1.8125 3.390625 5.09375 0 3.125-1.25 4.9375-3.390625 4.9375-2.109375 0-3.34375-1.84375-3.34375-5.015625 0-3.15625 1.234375-5.015625 3.34375-5.015625zm0 0"/></symbol><symbol id="X" overflow="visible"><path d="m1.71875-12.890625v14.765625c0 1.265625-.390625 1.6875-1.671875 1.6875-.140625 0-.21875 0-.484375-.015625v1.734375c.234375.0625.359375.078125.6875.078125 2.3125 0 3.515625-.90625 3.515625-2.671875v-15.578125zm2.046875-5.03125h-2.046875v2.578125h2.046875zm0 0"/></symbol><symbol id="Y" overflow="visible"><path d="m13.15625-1.203125c-.21875.046875-.3125.046875-.4375.046875-.71875 0-1.109375-.375-1.109375-1.015625v-7.5625c0-2.296875-1.671875-3.515625-4.84375-3.515625-1.890625 0-3.390625.53125-4.28125 1.5-.59375.65625-.84375 1.390625-.890625 2.671875h2.078125c.171875-1.578125 1.09375-2.28125 3.015625-2.28125 1.875 0 2.875.6875 2.875 1.921875v.53125c-.015625.890625-.46875 1.203125-2.140625 1.4375-2.890625.359375-3.34375.453125-4.125.78125-1.5.640625-2.265625 1.765625-2.265625 3.4375 0 2.34375 1.625 3.8125 4.234375 3.8125 1.625 0 2.921875-.5625 4.375-1.890625.140625 1.328125.78125 1.890625 2.109375 1.890625.453125 0 .71875-.046875 1.40625-.21875zm-3.59375-2.859375c0 .6875-.1875 1.109375-.8125 1.671875-.828125.765625-1.84375 1.15625-3.046875 1.15625-1.59375 0-2.53125-.75-2.53125-2.0625 0-1.34375.890625-2.046875 3.09375-2.359375 2.1875-.296875 2.609375-.390625 3.296875-.71875zm0 0"/></symbol><symbol id="Z" overflow="visible"><path d="m2.140625-2.5625v2.5625h1.46875v.4375c0 1.703125-.3125 2.1875-1.46875 2.25v.921875c1.625.0625 2.578125-1.125 2.578125-3.21875v-2.953125zm0 0"/></symbol><symbol id="aa" overflow="visible"><path d="m8.1875-17.921875v12.609375c0 1.421875-.140625 2.234375-.5625 2.859375-.4375.6875-1.28125 1.09375-2.1875 1.09375-1.71875 0-2.6875-1.15625-2.6875-3.234375v-1.15625h-2.328125v1.5625c0 2.90625 1.921875 4.75 4.984375 4.75 3.125 0 5.078125-1.9375 5.078125-5.03125v-13.453125zm0 0"/></symbol><symbol id="ab" overflow="visible"><path d="m12.609375-5.75c0-1.96875-.140625-3.15625-.515625-4.109375-.828125-2.125-2.796875-3.390625-5.203125-3.390625-3.59375 0-5.90625 2.71875-5.90625 6.984375 0 4.25 2.21875 6.828125 5.859375 6.828125 2.9375 0 4.984375-1.671875 5.5-4.46875h-2.0625c-.5625 1.6875-1.71875 2.578125-3.375 2.578125-1.296875 0-2.40625-.59375-3.09375-1.671875-.5-.734375-.671875-1.46875-.6875-2.75zm-9.4375-1.671875c.171875-2.390625 1.625-3.9375 3.6875-3.9375 2.09375 0 3.546875 1.625 3.546875 3.9375zm4.40625-10.78125-2.359375 3.640625h1.46875l3.671875-3.640625zm0 0"/></symbol><symbol id="ac" overflow="visible"><path d="m3.6875-12.890625h-2.046875v12.890625h2.046875zm0-5.03125h-2.0625v2.578125h2.0625zm0 0"/></symbol><symbol id="ad" overflow="visible"><path d="m10.890625-12.890625h-9.609375v1.796875h7.171875l-7.6875 9.25v1.84375h10.46875v-1.796875h-7.984375l7.640625-9.265625zm0 0"/></symbol><symbol id="ae" overflow="visible"><path d="m11.859375 0v-12.890625h-2.046875v7.3125c0 2.625-1.375 4.34375-3.515625 4.34375-1.625 0-2.65625-.984375-2.65625-2.53125v-9.125h-2.046875v9.9375c0 2.140625 1.609375 3.515625 4.109375 3.515625 1.890625 0 3.09375-.65625 4.3125-2.359375v1.796875zm0 0"/></symbol><symbol id="af" overflow="visible"><path d="m10.765625-9.296875c-.015625-2.53125-1.6875-3.953125-4.671875-3.953125-3 0-4.9375 1.546875-4.9375 3.921875 0 2.03125 1.03125 2.984375 4.078125 3.71875l1.921875.46875c1.421875.34375 2 .859375 2 1.765625 0 1.234375-1.21875 2.046875-3 2.046875-1.109375 0-2.046875-.3125-2.5625-.859375-.328125-.375-.46875-.734375-.59375-1.65625h-2.15625c.09375 2.984375 1.765625 4.40625 5.125 4.40625 3.25 0 5.3125-1.59375 5.3125-4.078125 0-1.921875-1.078125-2.984375-3.625-3.59375l-1.96875-.46875c-1.671875-.390625-2.390625-.9375-2.390625-1.84375 0-1.203125 1.0625-1.9375 2.734375-1.9375 1.640625 0 2.53125.703125 2.578125 2.0625zm0 0"/></symbol><symbol id="ag" overflow="visible"><path d="m12.171875-17.921875h-2.046875v6.65625c-.859375-1.296875-2.234375-1.984375-3.953125-1.984375-3.34375 0-5.53125 2.671875-5.53125 6.78125 0 4.359375 2.109375 7.03125 5.609375 7.03125 1.765625 0 3-.65625 4.109375-2.265625v1.703125h1.8125zm-5.65625 6.578125c2.21875 0 3.609375 1.953125 3.609375 5.046875 0 2.984375-1.421875 4.9375-3.578125 4.9375-2.265625 0-3.765625-1.984375-3.765625-4.984375s1.5-5 3.734375-5zm0 0"/></symbol><symbol id="ah" overflow="visible"><path d="m13.578125-17.921875v12.578125c0 2.421875-1.75 3.890625-4.59375 3.890625-2.859375 0-4.609375-1.46875-4.609375-3.890625v-12.578125h-2.28125v12.578125c0 3.59375 2.703125 5.90625 6.890625 5.90625 4.171875 0 6.875-2.3125 6.875-5.90625v-12.578125zm-5.3125-4.5625h-2.5625v2.53125h2.5625zm3.984375 0h-2.5625v2.53125h2.5625zm0 0"/></symbol><symbol id="ai" overflow="visible"><path d="m6.6875-13.25c-3.640625 0-5.796875 2.578125-5.796875 6.90625 0 4.359375 2.15625 6.90625 5.828125 6.90625 3.640625 0 5.828125-2.578125 5.828125-6.8125 0-4.46875-2.125-7-5.859375-7zm.03125 1.890625c2.3125 0 3.6875 1.890625 3.6875 5.09375 0 3.046875-1.421875 4.9375-3.6875 4.9375-2.296875 0-3.6875-1.890625-3.6875-5.015625s1.390625-5.015625 3.6875-5.015625zm-.71875-6.21875h-2.5625v2.53125h2.5625zm3.984375 0h-2.5625v2.53125h2.5625zm0 0"/></symbol><symbol id="aj" overflow="visible"><path d="m4.5-8.171875h8.5625v-2.015625h-8.5625v-5.71875h9.734375v-2.015625h-12.015625v17.921875h2.28125zm0 0"/></symbol><symbol id="ak" overflow="visible"><path d="m1.71875-12.890625v12.890625h2.0625v-7.109375c0-2.625 1.390625-4.34375 3.5-4.34375 1.625 0 2.65625.96875 2.65625 2.53125v8.921875h2.046875v-9.734375c0-2.140625-1.609375-3.515625-4.09375-3.515625-1.921875 0-3.140625.734375-4.28125 2.53125v-2.171875zm0 0"/></symbol><symbol id="al" overflow="visible"><path d="m4.765625-17.921875h-2.3125v17.921875h2.3125zm0 0"/></symbol><symbol id="am" overflow="visible"><path d="m11.515625 0 5.03125-15.03125v15.03125h2.171875v-17.921875h-3.171875l-5.21875 15.609375-5.3125-15.609375h-3.171875v17.921875h2.171875v-15.03125l5.078125 15.03125zm0 0"/></symbol><symbol id="an" overflow="visible"><path d="m4.359375-12.890625h-2.046875v12.890625h2.046875zm-.40625-5.3125-2.359375 3.640625h1.484375l3.65625-3.640625zm0 0"/></symbol><symbol id="ao" overflow="visible"><path d="m6.34375-12.890625h-2.140625v-2.015625c0-.859375.46875-1.296875 1.421875-1.296875.171875 0 .25 0 .71875.015625v-1.6875c-.46875-.109375-.734375-.125-1.15625-.125-1.890625 0-3.015625 1.078125-3.015625 2.921875v2.1875h-1.734375v1.671875h1.734375v11.21875h2.03125v-11.21875h2.140625zm0 0"/></symbol><symbol id="ap" overflow="visible"><path d="m6.6875-13.25c-3.640625 0-5.796875 2.578125-5.796875 6.90625 0 4.359375 2.15625 6.90625 5.828125 6.90625 3.640625 0 5.828125-2.578125 5.828125-6.8125 0-4.46875-2.125-7-5.859375-7zm.03125 1.890625c2.3125 0 3.6875 1.890625 3.6875 5.09375 0 3.046875-1.421875 4.9375-3.6875 4.9375-2.296875 0-3.6875-1.890625-3.6875-5.015625s1.390625-5.015625 3.6875-5.015625zm-.8125-6.84375-2.390625 3.6875h1.484375l3.65625-3.6875zm4.28125 0-2.390625 3.6875h1.46875l3.671875-3.6875zm0 0"/></symbol><symbol id="aq" overflow="visible"><path d="m11.859375 0v-12.890625h-2.046875v7.3125c0 2.625-1.375 4.34375-3.515625 4.34375-1.625 0-2.65625-.984375-2.65625-2.53125v-9.125h-2.046875v9.9375c0 2.140625 1.609375 3.515625 4.109375 3.515625 1.890625 0 3.09375-.65625 4.3125-2.359375v1.796875zm-5.828125-17.578125h-2.5625v2.53125h2.5625zm3.984375 0h-2.5625v2.53125h2.5625zm0 0"/></symbol><symbol id="ar" overflow="visible"><path d="m5.265625-2.5625h-2.5625v2.5625h2.5625zm0-10.328125h-2.5625v2.5625h2.5625zm0 0"/></symbol><symbol id="as" overflow="visible"><path d="m1.9375 0h8.09375c1.703125 0 2.953125-.46875 3.90625-1.5.890625-.9375 1.390625-2.21875 1.390625-3.609375 0-2.171875-.984375-3.46875-3.28125-4.359375 1.65625-.765625 2.484375-2.0625 2.484375-3.90625 0-1.328125-.484375-2.46875-1.421875-3.296875-.953125-.859375-2.171875-1.25-3.890625-1.25h-7.28125zm2.296875-10.203125v-5.703125h4.421875c1.28125 0 2 .171875 2.609375.640625.640625.484375.984375 1.21875.984375 2.203125s-.34375 1.71875-.984375 2.21875c-.609375.46875-1.328125.640625-2.609375.640625zm0 8.1875v-6.171875h5.578125c2.015625 0 3.21875 1.15625 3.21875 3.09375 0 1.921875-1.203125 3.078125-3.21875 3.078125zm0 0"/></symbol><symbol id="at" overflow="visible"><path d="m11.859375 0v-12.890625h-2.046875v7.3125c0 2.625-1.375 4.34375-3.515625 4.34375-1.625 0-2.65625-.984375-2.65625-2.53125v-9.125h-2.046875v9.9375c0 2.140625 1.609375 3.515625 4.109375 3.515625 1.890625 0 3.09375-.65625 4.3125-2.359375v1.796875zm-5.890625-18.203125-2.359375 3.6875h1.484375l3.65625-3.6875zm4.28125 0-2.359375 3.6875h1.484375l3.65625-3.6875zm0 0"/></symbol><symbol id="au" overflow="visible"><path d="m3.46875-17.921875h-2.046875v17.921875h2.046875v-5.015625l1.984375-1.96875 4.359375 6.984375h2.53125l-5.265625-8.4375 4.484375-4.453125h-2.640625l-5.453125 5.46875zm0 0"/></symbol><symbol id="av" overflow="visible"><path d="m1.703125-12.890625v12.890625h2.0625v-6.6875c.015625-3.09375 1.296875-4.484375 4.125-4.40625v-2.09375c-.34375-.046875-.53125-.0625-.78125-.0625-1.328125 0-2.34375.78125-3.515625 2.703125v-2.34375zm0 0"/></symbol><symbol id="aw" overflow="visible"><path d="m1.71875-17.921875v17.921875h2.046875v-7.109375c0-2.625 1.375-4.34375 3.484375-4.34375.6875 0 1.328125.1875 1.828125.5625.59375.4375.828125 1.046875.828125 1.96875v8.921875h2.046875v-9.734375c0-2.171875-1.546875-3.515625-4.0625-3.515625-1.8125 0-2.921875.5625-4.125 2.140625v-6.8125zm0 0"/></symbol><symbol id="ax" overflow="visible"><path d="m6.6875-13.25c-3.640625 0-5.796875 2.578125-5.796875 6.90625 0 4.359375 2.15625 6.90625 5.828125 6.90625 3.640625 0 5.828125-2.578125 5.828125-6.8125 0-4.46875-2.125-7-5.859375-7zm.03125 1.890625c2.3125 0 3.6875 1.890625 3.6875 5.09375 0 3.046875-1.421875 4.9375-3.6875 4.9375-2.296875 0-3.6875-1.890625-3.6875-5.015625s1.390625-5.015625 3.6875-5.015625zm0 0"/></symbol><symbol id="ay" overflow="visible"><path d="m4.703125-2.5625h-2.5625v2.5625h2.5625zm0 0"/></symbol><symbol id="az" overflow="visible"><path d="m9.640625 0 6.21875-17.921875h-2.4375l-4.96875 15.171875-5.25-15.171875h-2.46875l6.453125 17.921875zm0 0"/></symbol><symbol id="aA" overflow="visible"><path d="m5.21875-10.71875v10.71875h3.0625v-15.546875h-2.03125c-.484375 1.84375-2.078125 2.78125-4.765625 2.78125v2.046875zm0 0"/></symbol><symbol id="aB" overflow="visible"><path d="m4.6875-3.203125h-3.28125v3.203125h3.28125zm0 0"/></symbol><g clip-path="url(#a)"><path d="m3.359375 6635.553125h5946.054687" fill="none" stroke="#000" stroke-linecap="round" stroke-miterlimit="10" stroke-width="6.68493" transform="matrix(.1 0 0 -.1 0 731.11)"/></g><g clip-path="url(#b)"><path d="m3.359375 6735.1625h5946.054687" fill="none" stroke="#000" stroke-linecap="round" stroke-miterlimit="10" stroke-width="6.68493" transform="matrix(.1 0 0 -.1 0 731.11)"/></g><g clip-path="url(#c)"><path d="m3.359375 6834.771875h5946.054687" fill="none" stroke="#000" stroke-linecap="round" stroke-miterlimit="10" stroke-width="6.68493" transform="matrix(.1 0 0 -.1 0 731.11)"/></g><g clip-path="url(#d)"><path d="m3.359375 6934.420313h5946.054687" fill="none" stroke="#000" stroke-linecap="round" stroke-miterlimit="10" stroke-width="6.68493" transform="matrix(.1 0 0 -.1 0 731.11)"/></g><g clip-path="url(#e)"><path d="m3.359375 7034.029688h5946.054687" fill="none" stroke="#000" stroke-linecap="round" stroke-miterlimit="10" stroke-width="6.68493" transform="matrix(.1 0 0 -.1 0 731.11)"/></g><g clip-path="url(#f)"><path d="m5946.40625 6635.514063v398.515625" fill="none" stroke="#000" stroke-miterlimit="10" stroke-width="12.7123" transform="matrix(.1 0 0 -.1 0 731.11)"/></g><use x="390.784" xlink:href="#K" y="62.575"/><path d="m4659.296875 6657.115625h4.726563v325.117188h-4.726563zm0 0" fill="none" stroke="#000" stroke-linejoin="round" stroke-miterlimit="10" stroke-width="3.98506" transform="matrix(.1 0 0 -.1 0 731.11)"/><path d="m465.929688 65.398438h.472656v-32.511719h-.472656zm0 0"/><use x="450.061" xlink:href="#P" y="102.426"/><use x="456.523884" xlink:href="#Q" y="102.426"/><use x="453.59069" xlink:href="#K" y="67.5565"/><path d="m4031.210938 6706.920313h4.726562v304.6875h-4.726562zm0 0" fill="none" stroke="#000" stroke-linejoin="round" stroke-miterlimit="10" stroke-width="3.98506" transform="matrix(.1 0 0 -.1 0 731.11)"/><path d="m403.121094 60.417969h.472656v-30.46875h-.472656zm0 0"/><use x="381.811" xlink:href="#R" y="102.426"/><use x="393.71609" xlink:href="#S" y="102.426"/><use x="407.322353" xlink:href="#T" y="102.426"/><path d="m5349.609375 6657.115625h4.726563v325.117188h-4.726563zm0 0" fill="none" stroke="#000" stroke-linejoin="round" stroke-miterlimit="10" stroke-width="3.98506" transform="matrix(.1 0 0 -.1 0 731.11)"/><path d="m534.960938 65.398438h.472656v-32.511719h-.472656zm0 0"/><path d="m3403.164062 6756.764063h4.726563v275.15625h-4.726563zm0 0" fill="none" stroke="#000" stroke-linejoin="round" stroke-miterlimit="10" stroke-width="3.98506" transform="matrix(.1 0 0 -.1 0 731.11)"/><path d="m340.316406 55.433594h.472656v-27.515625h-.472656zm0 0"/><use x="310.501" xlink:href="#U" y="102.426"/><use x="331.080704" xlink:href="#V" y="102.426"/><use x="344.856889" xlink:href="#W" y="102.426"/><use x="327.9772" xlink:href="#K" y="57.594"/><path d="m890.898438 6935.7875v-43.867187l632.773437 20.585937v43.828125zm0 0" fill="none" stroke="#000" stroke-linejoin="round" stroke-miterlimit="10" stroke-width="3.98506" transform="matrix(.1 0 0 -.1 0 731.11)"/><path d="m89.089844 37.53125v4.386719l63.277344-2.058594v-4.382813zm0 0"/><path d="m1070.039062 6354.264063h60.390626v3.359375h-60.390626zm0 0" fill="none" stroke="#000" stroke-linejoin="round" stroke-miterlimit="10" stroke-width="5.34994" transform="matrix(.1 0 0 -.1 0 731.11)"/><path d="m107.003906 95.683594h6.039063v-.335938h-6.039063zm0 0"/><path d="m2147.03125 6991.56875h632.773438v43.828125h-632.773438zm0 0" fill="none" stroke="#000" stroke-linejoin="round" stroke-miterlimit="10" stroke-width="3.98506" transform="matrix(.1 0 0 -.1 0 731.11)"/><path d="m214.703125 31.953125h63.277344v-4.382813h-63.277344zm0 0"/><path d="m2335.117188 6354.264063h60.390624v3.359375h-60.390624zm0 0" fill="none" stroke="#000" stroke-linejoin="round" stroke-miterlimit="10" stroke-width="5.34994" transform="matrix(.1 0 0 -.1 0 731.11)"/><path d="m233.511719 95.683594h6.039062v-.335938h-6.039062zm0 0"/><path d="m3403.164062 7055.94375v-43.828125l632.773438-20.546875v43.828125zm0 0" fill="none" stroke="#000" stroke-linejoin="round" stroke-miterlimit="10" stroke-width="3.98506" transform="matrix(.1 0 0 -.1 0 731.11)"/><path d="m340.316406 25.515625v4.382813l63.277344 2.054687v-4.382813zm0 0"/><path d="m3671.171875 6354.264063h60.390625v3.359375h-60.390625zm0 0" fill="none" stroke="#000" stroke-linejoin="round" stroke-miterlimit="10" stroke-width="5.34994" transform="matrix(.1 0 0 -.1 0 731.11)"/><path d="m367.117188 95.683594h6.039062v-.335938h-6.039062zm0 0"/><path d="m4283.945312 6354.264063h60.390626v3.359375h-60.390626zm0 0" fill="none" stroke="#000" stroke-linejoin="round" stroke-miterlimit="10" stroke-width="5.34994" transform="matrix(.1 0 0 -.1 0 731.11)"/><path d="m428.394531 95.683594h6.039063v-.335938h-6.039063zm0 0"/><path d="m4901.875 6354.264063h60.429688v3.359375h-60.429688zm0 0" fill="none" stroke="#000" stroke-linejoin="round" stroke-miterlimit="10" stroke-width="5.34994" transform="matrix(.1 0 0 -.1 0 731.11)"/><path d="m490.1875 95.683594h6.042969v-.335938h-6.042969zm0 0"/><use x="522.622" xlink:href="#K" y="67.556"/><use x="516.28567" xlink:href="#X" y="102.4255"/><use x="521.728267" xlink:href="#Y" y="102.4255"/><use x="535.165023" xlink:href="#Z" y="102.4255"/><use x="43.87267" xlink:href="#L" y="47.631"/><path d="m890.898438 6607.310938h4.6875v304.6875h-4.6875zm0 0" fill="none" stroke="#000" stroke-linejoin="round" stroke-miterlimit="10" stroke-width="3.98506" transform="matrix(.1 0 0 -.1 0 731.11)"/><path d="m89.089844 70.378906h.46875v-30.46875h-.46875zm0 0"/><use x="41.9977" xlink:href="#aA" y="102.426"/><use x="54.243805" xlink:href="#aB" y="102.426"/><use x="70.3282" xlink:href="#aa" y="102.426"/><use x="82.574307" xlink:href="#ab" y="102.426"/><use x="255.347832" xlink:href="#T" y="102.426"/><use x="260.790428" xlink:href="#S" y="102.426"/><use x="274.396301" xlink:href="#W" y="102.426"/><use x="7.97" xlink:href="#M" y="57.594"/><use x="76.7493" xlink:href="#K" y="72.5381"/><path d="m2147.03125 6706.920313h4.726562v304.53125h-4.726562zm0 0" fill="none" stroke="#000" stroke-linejoin="round" stroke-miterlimit="10" stroke-width="3.98506" transform="matrix(.1 0 0 -.1 0 731.11)"/><path d="m214.703125 60.417969h.472656v-30.453125h-.472656zm0 0"/><use x="200.024" xlink:href="#R" y="102.426"/><use x="212.270107" xlink:href="#ac" y="102.426"/><use x="202.36345" xlink:href="#K" y="62.5752"/><path d="m1518.945312 6657.115625h4.726563v275.15625h-4.726563zm0 0" fill="none" stroke="#000" stroke-linejoin="round" stroke-miterlimit="10" stroke-width="3.98506" transform="matrix(.1 0 0 -.1 0 731.11)"/><path d="m151.894531 65.398438h.472657v-27.515626h-.472657zm0 0"/><use x="123.866" xlink:href="#ad" y="102.426"/><use x="135.77109" xlink:href="#ae" y="102.426"/><use x="149.377353" xlink:href="#af" y="102.426"/><use x="161.453147" xlink:href="#Z" y="102.426"/><use x="139.557" xlink:href="#K" y="67.5565"/><use x="265.171" xlink:href="#K" y="62.57525"/><path d="m2775.078125 6706.920313h4.726563v304.53125h-4.726563zm0 0" fill="none" stroke="#000" stroke-linejoin="round" stroke-miterlimit="10" stroke-width="3.98506" transform="matrix(.1 0 0 -.1 0 731.11)"/><path d="m277.507812 60.417969h.472657v-30.453125h-.472657zm0 0"/><g clip-path="url(#g)"><path d="m3.359375 5440.00625h5946.054687" style="fill:none;stroke-width:6.68493;stroke-linecap:round;stroke-linejoin:round;stroke:#000;stroke-miterlimit:10" transform="matrix(.1 0 0 -.1 0 731.11)"/></g><g clip-path="url(#h)"><path d="m3.359375 5539.654688h5946.054687" style="fill:none;stroke-width:6.68493;stroke-linecap:round;stroke-linejoin:round;stroke:#000;stroke-miterlimit:10" transform="matrix(.1 0 0 -.1 0 731.11)"/></g><g clip-path="url(#i)"><path d="m3.359375 5639.264063h5946.054687" style="fill:none;stroke-width:6.68493;stroke-linecap:round;stroke-linejoin:round;stroke:#000;stroke-miterlimit:10" transform="matrix(.1 0 0 -.1 0 731.11)"/></g><g clip-path="url(#j)"><path d="m3.359375 5738.873438h5946.054687" style="fill:none;stroke-width:6.68493;stroke-linecap:round;stroke-linejoin:round;stroke:#000;stroke-miterlimit:10" transform="matrix(.1 0 0 -.1 0 731.11)"/></g><g clip-path="url(#k)"><path d="m3.359375 5838.521875h5946.054687" style="fill:none;stroke-width:6.68493;stroke-linecap:round;stroke-linejoin:round;stroke:#000;stroke-miterlimit:10" transform="matrix(.1 0 0 -.1 0 731.11)"/></g><g clip-path="url(#l)"><path d="m5946.40625 5440.00625v398.515625" fill="none" stroke="#000" stroke-linejoin="round" stroke-miterlimit="10" stroke-width="12.7123" transform="matrix(.1 0 0 -.1 0 731.11)"/></g><path d="m4662.421875 5561.217188h4.726563v325.117187h-4.726563zm0 0" fill="none" stroke="#000" stroke-linejoin="round" stroke-miterlimit="10" stroke-width="3.98506" transform="matrix(.1 0 0 -.1 0 731.11)"/><path d="m466.242188 174.988281h.472656v-32.511719h-.472656zm0 0"/><use x="446.803" xlink:href="#ag" y="221.978"/><use x="460.408897" xlink:href="#Q" y="221.978"/><use x="453.90534" xlink:href="#K" y="177.146"/><path d="m4035.78125 5611.060938h4.6875v304.6875h-4.6875zm0 0" fill="none" stroke="#000" stroke-linejoin="round" stroke-miterlimit="10" stroke-width="3.98506" transform="matrix(.1 0 0 -.1 0 731.11)"/><path d="m403.578125 170.007812h.46875v-30.46875h-.46875zm0 0"/><use x="390.938" xlink:href="#Y" y="221.978"/><use x="391.236828" xlink:href="#K" y="172.1647"/><path d="m3409.101562 5660.865625h4.6875v275.15625h-4.6875zm0 0" fill="none" stroke="#000" stroke-linejoin="round" stroke-miterlimit="10" stroke-width="3.98506" transform="matrix(.1 0 0 -.1 0 731.11)"/><path d="m340.910156 165.023438h.46875v-27.515626h-.46875zm0 0"/><use x="311.093" xlink:href="#U" y="221.978"/><use x="331.672704" xlink:href="#V" y="221.978"/><use x="345.44928" xlink:href="#W" y="221.978"/><use x="328.5696" xlink:href="#K" y="167.1835"/><path d="m890.898438 5839.889063v-43.867188l631.367187 20.585938v43.828125zm0 0" fill="none" stroke="#000" stroke-linejoin="round" stroke-miterlimit="10" stroke-width="3.98506" transform="matrix(.1 0 0 -.1 0 731.11)"/><path d="m89.089844 147.121094v4.386718l63.136718-2.058593v-4.382813zm0 0"/><path d="m1099.53125 5158.75625h60.390625v3.359375h-60.390625zm0 0" fill="none" stroke="#000" stroke-linejoin="round" stroke-miterlimit="10" stroke-width="5.34994" transform="matrix(.1 0 0 -.1 0 731.11)"/><path d="m109.953125 215.234375h6.039063v-.335937h-6.039063zm0 0"/><path d="m1772.148438 5158.75625h60.390624v3.359375h-60.390624zm0 0" fill="none" stroke="#000" stroke-linejoin="round" stroke-miterlimit="10" stroke-width="5.34994" transform="matrix(.1 0 0 -.1 0 731.11)"/><path d="m177.210938 215.234375h6.042968v-.335937h-6.042968zm0 0"/><path d="m2144.257812 5895.670313h631.367188v43.828125h-631.367188zm0 0" fill="none" stroke="#000" stroke-linejoin="round" stroke-miterlimit="10" stroke-width="3.98506" transform="matrix(.1 0 0 -.1 0 731.11)"/><path d="m214.425781 141.542969h63.136719v-4.382813h-63.136719zm0 0"/><path d="m2314.179688 5158.75625h60.390624v3.359375h-60.390624zm0 0" fill="none" stroke="#000" stroke-linejoin="round" stroke-miterlimit="10" stroke-width="5.34994" transform="matrix(.1 0 0 -.1 0 731.11)"/><path d="m231.417969 215.234375h6.039062v-.335937h-6.039062zm0 0"/><path d="m3409.101562 5960.084375v-43.867187l631.367188-20.546875v43.828125zm0 0" fill="none" stroke="#000" stroke-linejoin="round" stroke-miterlimit="10" stroke-width="3.98506" transform="matrix(.1 0 0 -.1 0 731.11)"/><path d="m340.910156 135.101562v4.386719l63.136719 2.054688v-4.382813zm0 0"/><path d="m3719.765625 5158.75625h60.429687v3.359375h-60.429687zm0 0" fill="none" stroke="#000" stroke-linejoin="round" stroke-miterlimit="10" stroke-width="5.34994" transform="matrix(.1 0 0 -.1 0 731.11)"/><path d="m371.976562 215.234375h6.039063v-.335937h-6.039063zm0 0"/><path d="m4226.523438 5158.75625h60.429687v3.359375h-60.429687zm0 0" fill="none" stroke="#000" stroke-linejoin="round" stroke-miterlimit="10" stroke-width="5.34994" transform="matrix(.1 0 0 -.1 0 731.11)"/><path d="m422.652344 215.234375h6.042968v-.335937h-6.042968zm0 0"/><path d="m4922.109375 5158.75625h60.390625v3.359375h-60.390625zm0 0" fill="none" stroke="#000" stroke-linejoin="round" stroke-miterlimit="10" stroke-width="5.34994" transform="matrix(.1 0 0 -.1 0 731.11)"/><path d="m492.210938 215.234375h6.039062v-.335937h-6.039062zm0 0"/><use x="522.78" xlink:href="#K" y="182.127"/><path d="m5351.171875 5511.4125h4.726563v325.117188h-4.726563zm0 0" fill="none" stroke="#000" stroke-linejoin="round" stroke-miterlimit="10" stroke-width="3.98506" transform="matrix(.1 0 0 -.1 0 731.11)"/><path d="m535.117188 179.96875h.472656v-32.511719h-.472656zm0 0"/><use x="516.443" xlink:href="#X" y="221.978"/><use x="521.885597" xlink:href="#Y" y="221.978"/><use x="535.322353" xlink:href="#Z" y="221.978"/><use x="7.97" xlink:href="#M" y="177.146"/><path d="m890.898438 5511.4125h4.6875v304.6875h-4.6875zm0 0" fill="none" stroke="#000" stroke-linejoin="round" stroke-miterlimit="10" stroke-width="3.98506" transform="matrix(.1 0 0 -.1 0 731.11)"/><path d="m89.089844 179.96875h.46875v-30.46875h-.46875zm0 0"/><use x="67.6074" xlink:href="#ah" y="221.978"/><use x="85.296091" xlink:href="#ag" y="221.978"/><use x="76.7492" xlink:href="#K" y="182.1276"/><use x="43.8726" xlink:href="#L" y="167.1835"/><path d="m2144.257812 5611.060938h4.6875v304.53125h-4.6875zm0 0" fill="none" stroke="#000" stroke-linejoin="round" stroke-miterlimit="10" stroke-width="3.98506" transform="matrix(.1 0 0 -.1 0 731.11)"/><path d="m214.425781 170.007812h.46875v-30.457031h-.46875zm0 0"/><use x="195.663" xlink:href="#af" y="221.978"/><use x="207.909107" xlink:href="#ab" y="221.978"/><use x="202.08409" xlink:href="#K" y="172.1647"/><use x="264.751948" xlink:href="#K" y="172.1647"/><path d="m1517.578125 5561.217188h4.6875v275.15625h-4.6875zm0 0" fill="none" stroke="#000" stroke-linejoin="round" stroke-miterlimit="10" stroke-width="3.98506" transform="matrix(.1 0 0 -.1 0 731.11)"/><path d="m151.757812 174.988281h.46875v-27.515625h-.46875zm0 0"/><use x="127.043" xlink:href="#R" y="221.978"/><use x="138.948481" xlink:href="#ai" y="221.978"/><use x="152.554353" xlink:href="#af" y="221.978"/><use x="139.4176" xlink:href="#K" y="177.146"/><use x="247.3606" xlink:href="#W" y="221.978"/><use x="260.966473" xlink:href="#V" y="221.978"/><use x="274.572345" xlink:href="#U" y="221.978"/><path d="m2770.9375 5611.060938h4.6875v304.53125h-4.6875zm0 0" fill="none" stroke="#000" stroke-linejoin="round" stroke-miterlimit="10" stroke-width="3.98506" transform="matrix(.1 0 0 -.1 0 731.11)"/><path d="m277.09375 170.007812h.46875v-30.457031h-.46875zm0 0"/><g clip-path="url(#m)"><path d="m3.359375 4244.498438h5946.054687" style="fill:none;stroke-width:6.68493;stroke-linecap:round;stroke-linejoin:round;stroke:#000;stroke-miterlimit:10" transform="matrix(.1 0 0 -.1 0 731.11)"/></g><g clip-path="url(#n)"><path d="m3.359375 4344.146875h5946.054687" style="fill:none;stroke-width:6.68493;stroke-linecap:round;stroke-linejoin:round;stroke:#000;stroke-miterlimit:10" transform="matrix(.1 0 0 -.1 0 731.11)"/></g><g clip-path="url(#o)"><path d="m3.359375 4443.75625h5946.054687" style="fill:none;stroke-width:6.68493;stroke-linecap:round;stroke-linejoin:round;stroke:#000;stroke-miterlimit:10" transform="matrix(.1 0 0 -.1 0 731.11)"/></g><g clip-path="url(#p)"><path d="m3.359375 4543.365625h5946.054687" style="fill:none;stroke-width:6.68493;stroke-linecap:round;stroke-linejoin:round;stroke:#000;stroke-miterlimit:10" transform="matrix(.1 0 0 -.1 0 731.11)"/></g><g clip-path="url(#q)"><path d="m3.359375 4643.014063h5946.054687" style="fill:none;stroke-width:6.68493;stroke-linecap:round;stroke-linejoin:round;stroke:#000;stroke-miterlimit:10" transform="matrix(.1 0 0 -.1 0 731.11)"/></g><g clip-path="url(#r)"><path d="m5946.40625 4244.498438v398.515625" fill="none" stroke="#000" stroke-linejoin="round" stroke-miterlimit="10" stroke-width="12.7123" transform="matrix(.1 0 0 -.1 0 731.11)"/></g><path d="m4668.671875 4365.709375h4.726563v325.117188h-4.726563zm0 0" fill="none" stroke="#000" stroke-linejoin="round" stroke-miterlimit="10" stroke-width="3.98506" transform="matrix(.1 0 0 -.1 0 731.11)"/><path d="m466.867188 294.539062h.472656v-32.511718h-.472656zm0 0"/><use x="450.914" xlink:href="#aj" y="341.529"/><use x="465.710506" xlink:href="#ac" y="341.529"/><use x="454.52845" xlink:href="#K" y="296.6974"/><use x="377.53505" xlink:href="#N" y="301.67865"/><path d="m4043.203125 4315.904688h4.726563v304.6875h-4.726563zm0 0" fill="none" stroke="#000" stroke-linejoin="round" stroke-miterlimit="10" stroke-width="3.98506" transform="matrix(.1 0 0 -.1 0 731.11)"/><path d="m404.320312 299.519531h.472657v-30.46875h-.472657zm0 0"/><use x="381.648" xlink:href="#P" y="341.529"/><use x="388.110908" xlink:href="#V" y="341.529"/><use x="401.716781" xlink:href="#ak" y="341.529"/><use x="391.9816" xlink:href="#K" y="301.6786"/><path d="m3417.734375 4365.709375h4.6875v275.15625h-4.6875zm0 0" fill="none" stroke="#000" stroke-linejoin="round" stroke-miterlimit="10" stroke-width="3.98506" transform="matrix(.1 0 0 -.1 0 731.11)"/><path d="m341.773438 294.539062h.46875v-27.515624h-.46875zm0 0"/><use x="326.413" xlink:href="#al" y="341.529"/><use x="333.216535" xlink:href="#af" y="341.529"/><use x="329.43292" xlink:href="#K" y="296.6974"/><path d="m890.898438 4685.475v-43.828125l630.195312-20.546875v43.828125zm0 0" fill="none" stroke="#000" stroke-linejoin="round" stroke-miterlimit="10" stroke-width="3.98506" transform="matrix(.1 0 0 -.1 0 731.11)"/><path d="m89.089844 262.5625v4.382812l63.019531 2.054688v-4.382812zm0 0"/><path d="m1184.804688 3963.248438h60.429687v3.320312h-60.429687zm0 0" fill="none" stroke="#000" stroke-linejoin="round" stroke-miterlimit="10" stroke-width="5.34994" transform="matrix(.1 0 0 -.1 0 731.11)"/><path d="m118.480469 334.785156h6.042969v-.332031h-6.042969zm0 0"/><path d="m1724.960938 3963.248438h60.390624v3.320312h-60.390624zm0 0" fill="none" stroke="#000" stroke-linejoin="round" stroke-miterlimit="10" stroke-width="5.34994" transform="matrix(.1 0 0 -.1 0 731.11)"/><path d="m172.496094 334.785156h6.039062v-.332031h-6.039062zm0 0"/><path d="m2166.757812 4764.5375v-43.828125l630.195313-20.546875v43.828125zm0 0" fill="none" stroke="#000" stroke-linejoin="round" stroke-miterlimit="10" stroke-width="3.98506" transform="matrix(.1 0 0 -.1 0 731.11)"/><path d="m216.675781 254.65625v4.382812l63.019531 2.054688v-4.382812zm0 0"/><path d="m2384.140625 3963.248438h60.429687v3.320312h-60.429687zm0 0" fill="none" stroke="#000" stroke-linejoin="round" stroke-miterlimit="10" stroke-width="5.34994" transform="matrix(.1 0 0 -.1 0 731.11)"/><path d="m238.414062 334.785156h6.042969v-.332031h-6.042969zm0 0"/><path d="m3417.695312 4664.928125v-43.828125l630.195313-20.585937v43.828125zm0 0" fill="none" stroke="#000" stroke-linejoin="round" stroke-miterlimit="10" stroke-width="3.98506" transform="matrix(.1 0 0 -.1 0 731.11)"/><path d="m341.769531 264.617188v4.382812l63.019531 2.058594v-4.382813zm0 0"/><path d="m3605.351562 3963.248438h60.390626v3.320312h-60.390626zm0 0" fill="none" stroke="#000" stroke-linejoin="round" stroke-miterlimit="10" stroke-width="5.34994" transform="matrix(.1 0 0 -.1 0 731.11)"/><path d="m360.535156 334.785156h6.039063v-.332031h-6.039063zm0 0"/><path d="m4923.867188 3963.248438h60.390624v3.320312h-60.390624zm0 0" fill="none" stroke="#000" stroke-linejoin="round" stroke-miterlimit="10" stroke-width="5.34994" transform="matrix(.1 0 0 -.1 0 731.11)"/><path d="m492.382812 334.785156h6.042969v-.332031h-6.042969zm0 0"/><use x="523.27" xlink:href="#K" y="296.697"/><path d="m5356.09375 4365.709375h4.726562v325.117188h-4.726562zm0 0" fill="none" stroke="#000" stroke-linejoin="round" stroke-miterlimit="10" stroke-width="3.98506" transform="matrix(.1 0 0 -.1 0 731.11)"/><path d="m535.609375 294.539062h.46875v-32.511718h-.46875zm0 0"/><use x="519.654" xlink:href="#Y" y="341.529"/><use x="533.090756" xlink:href="#Z" y="341.529"/><use x="43.872" xlink:href="#L" y="286.7345"/><path d="m890.898438 4415.514063h4.6875v245.9375h-4.6875zm0 0" fill="none" stroke="#000" stroke-linejoin="round" stroke-miterlimit="10" stroke-width="3.98506" transform="matrix(.1 0 0 -.1 0 731.11)"/><path d="m89.089844 289.558594h.46875v-24.59375h-.46875zm0 0"/><use x="59.2727" xlink:href="#am" y="341.529"/><use x="79.8528" xlink:href="#V" y="341.529"/><use x="93.628992" xlink:href="#W" y="341.529"/><use x="76.7493" xlink:href="#K" y="291.7161"/><use x="7.97" xlink:href="#M" y="296.69735"/><use x="204.337" xlink:href="#K" y="286.73446"/><path d="m2792.226562 4415.514063h4.726563v304.6875h-4.726563zm0 0" fill="none" stroke="#000" stroke-linejoin="round" stroke-miterlimit="10" stroke-width="3.98506" transform="matrix(.1 0 0 -.1 0 731.11)"/><path d="m279.222656 289.558594h.472656v-30.46875h-.472656zm0 0"/><use x="256.382" xlink:href="#P" y="341.529"/><use x="262.844908" xlink:href="#V" y="341.529"/><use x="276.281249" xlink:href="#P" y="341.529"/><use x="283.59494" xlink:href="#P" y="341.529"/><use x="266.8847" xlink:href="#K" y="291.7161"/><path d="m2166.757812 4465.357813h4.6875v275.15625h-4.6875zm0 0" fill="none" stroke="#000" stroke-linejoin="round" stroke-miterlimit="10" stroke-width="3.98506" transform="matrix(.1 0 0 -.1 0 731.11)"/><path d="m216.675781 284.574219h.46875v-27.515625h-.46875zm0 0"/><use x="195.194" xlink:href="#af" y="341.529"/><use x="207.440107" xlink:href="#ad" y="341.529"/><use x="219.686213" xlink:href="#an" y="341.529"/><use x="139.2975" xlink:href="#K" y="296.6974"/><use x="135.76781" xlink:href="#ao" y="341.529"/><use x="142.230317" xlink:href="#V" y="341.529"/><path d="m1516.367188 4365.709375h4.726562v275.429688h-4.726562zm0 0" fill="none" stroke="#000" stroke-linejoin="round" stroke-miterlimit="10" stroke-width="3.98506" transform="matrix(.1 0 0 -.1 0 731.11)"/><path d="m151.636719 294.539062h.472656v-27.542968h-.472656zm0 0"/><g clip-path="url(#s)"><path d="m3.359375 3048.990625h5946.054687" style="fill:none;stroke-width:6.68493;stroke-linecap:round;stroke-linejoin:round;stroke:#000;stroke-miterlimit:10" transform="matrix(.1 0 0 -.1 0 731.11)"/></g><g clip-path="url(#t)"><path d="m3.359375 3148.6h5946.054687" style="fill:none;stroke-width:6.68493;stroke-linecap:round;stroke-linejoin:round;stroke:#000;stroke-miterlimit:10" transform="matrix(.1 0 0 -.1 0 731.11)"/></g><g clip-path="url(#u)"><path d="m3.359375 3248.248438h5946.054687" style="fill:none;stroke-width:6.68493;stroke-linecap:round;stroke-linejoin:round;stroke:#000;stroke-miterlimit:10" transform="matrix(.1 0 0 -.1 0 731.11)"/></g><g clip-path="url(#v)"><path d="m3.359375 3347.857813h5946.054687" style="fill:none;stroke-width:6.68493;stroke-linecap:round;stroke-linejoin:round;stroke:#000;stroke-miterlimit:10" transform="matrix(.1 0 0 -.1 0 731.11)"/></g><g clip-path="url(#w)"><path d="m3.359375 3447.50625h5946.054687" style="fill:none;stroke-width:6.68493;stroke-linecap:round;stroke-linejoin:round;stroke:#000;stroke-miterlimit:10" transform="matrix(.1 0 0 -.1 0 731.11)"/></g><g clip-path="url(#x)"><path d="m5946.40625 3048.990625v398.515625" fill="none" stroke="#000" stroke-linejoin="round" stroke-miterlimit="10" stroke-width="12.7123" transform="matrix(.1 0 0 -.1 0 731.11)"/></g><path d="m4663.828125 3220.00625h4.726563v325.117188h-4.726563zm0 0" fill="none" stroke="#000" stroke-linejoin="round" stroke-miterlimit="10" stroke-width="3.98506" transform="matrix(.1 0 0 -.1 0 731.11)"/><path d="m466.382812 409.109375h.472657v-32.511719h-.472657zm0 0"/><use x="450.343" xlink:href="#ag" y="461.081"/><use x="463.948897" xlink:href="#an" y="461.081"/><use x="454.043" xlink:href="#K" y="411.2677"/><path d="m3916.328125 2951.490625h4.6875v275.15625h-4.6875zm0 0" fill="none" stroke="#000" stroke-linejoin="round" stroke-miterlimit="10" stroke-width="3.98506" transform="matrix(.1 0 0 -.1 0 731.11)"/><path d="m391.632812 435.960938h.46875v-27.515626h-.46875zm0 0"/><use x="384.33" xlink:href="#W" y="461.081"/><use x="397.935873" xlink:href="#ap" y="461.081"/><use x="391.43156" xlink:href="#K" y="406.2865"/><path d="m3288.671875 2971.764063h4.726563v304.6875h-4.726563zm0 0" fill="none" stroke="#000" stroke-linejoin="round" stroke-miterlimit="10" stroke-width="3.98506" transform="matrix(.1 0 0 -.1 0 731.11)"/><path d="m328.867188 433.933594h.472656v-30.46875h-.472656zm0 0"/><use x="318.165" xlink:href="#ao" y="461.081"/><use x="324.968535" xlink:href="#aq" y="461.081"/><use x="338.574407" xlink:href="#W" y="461.081"/><use x="328.6677" xlink:href="#K" y="401.3052"/><path d="m890.898438 3469.420313v-43.867188l632.34375 20.585938v43.828125zm0 0" fill="none" stroke="#000" stroke-linejoin="round" stroke-miterlimit="10" stroke-width="3.98506" transform="matrix(.1 0 0 -.1 0 731.11)"/><path d="m89.089844 384.167969v4.386719l63.234375-2.058594v-4.382813zm0 0"/><path d="m1071.523438 2767.740625h60.390624v3.320313h-60.390624zm0 0" fill="none" stroke="#000" stroke-linejoin="round" stroke-miterlimit="10" stroke-width="5.34994" transform="matrix(.1 0 0 -.1 0 731.11)"/><path d="m107.152344 454.335938h6.039062v-.332032h-6.039062zm0 0"/><path d="m1764.648438 2767.740625h60.390624v3.320313h-60.390624zm0 0" fill="none" stroke="#000" stroke-linejoin="round" stroke-miterlimit="10" stroke-width="5.34994" transform="matrix(.1 0 0 -.1 0 731.11)"/><path d="m176.464844 454.335938h6.039062v-.332032h-6.039062zm0 0"/><path d="m2146.171875 3569.029688v-43.828125l632.34375-20.585938v43.867188zm0 0" fill="none" stroke="#000" stroke-linejoin="round" stroke-miterlimit="10" stroke-width="3.98506" transform="matrix(.1 0 0 -.1 0 731.11)"/><path d="m214.617188 374.207031v4.382813l63.234374 2.058594v-4.386719zm0 0"/><path d="m3288.671875 2991.842188v-43.828125l632.34375-20.585938v43.828125zm0 0" fill="none" stroke="#000" stroke-linejoin="round" stroke-miterlimit="10" stroke-width="3.98506" transform="matrix(.1 0 0 -.1 0 731.11)"/><path d="m328.867188 431.925781v4.382813l63.234374 2.058594v-4.382813zm0 0"/><path d="m3652.34375 2767.740625h60.429688v3.320313h-60.429688zm0 0" fill="none" stroke="#000" stroke-linejoin="round" stroke-miterlimit="10" stroke-width="5.34994" transform="matrix(.1 0 0 -.1 0 731.11)"/><path d="m365.234375 454.335938h6.039063v-.332032h-6.039063zm0 0"/><path d="m4906.601562 2767.740625h60.390626v3.320313h-60.390626zm0 0" fill="none" stroke="#000" stroke-linejoin="round" stroke-miterlimit="10" stroke-width="5.34994" transform="matrix(.1 0 0 -.1 0 731.11)"/><path d="m490.660156 454.335938h6.039063v-.332032h-6.039063zm0 0"/><use x="523.027" xlink:href="#K" y="416.249"/><path d="m5353.671875 3170.201563h4.6875v325.117187h-4.6875zm0 0" fill="none" stroke="#000" stroke-linejoin="round" stroke-miterlimit="10" stroke-width="3.98506" transform="matrix(.1 0 0 -.1 0 731.11)"/><path d="m535.367188 414.089844h.46875v-32.511719h-.46875zm0 0"/><use x="516.606" xlink:href="#X" y="461.081"/><use x="522.048597" xlink:href="#Y" y="461.081"/><use x="535.654494" xlink:href="#ar" y="461.081"/><use x="7.97" xlink:href="#M" y="416.249"/><path d="m890.898438 3170.201563h4.6875v275.429687h-4.6875zm0 0" fill="none" stroke="#000" stroke-linejoin="round" stroke-miterlimit="10" stroke-width="3.98506" transform="matrix(.1 0 0 -.1 0 731.11)"/><path d="m89.089844 414.089844h.46875v-27.542969h-.46875zm0 0"/><use x="68.2871" xlink:href="#as" y="461.081"/><use x="84.614857" xlink:href="#at" y="461.081"/><use x="76.74921" xlink:href="#K" y="416.249"/><use x="43.87261" xlink:href="#L" y="406.2865"/><path d="m2146.171875 3269.810938h4.6875v275.15625h-4.6875zm0 0" fill="none" stroke="#000" stroke-linejoin="round" stroke-miterlimit="10" stroke-width="3.98506" transform="matrix(.1 0 0 -.1 0 731.11)"/><path d="m214.617188 404.128906h.46875v-27.515625h-.46875zm0 0"/><use x="189.053" xlink:href="#ak" y="461.081"/><use x="202.658873" xlink:href="#V" y="461.081"/><use x="216.264745" xlink:href="#au" y="461.081"/><use x="202.2772" xlink:href="#K" y="406.2865"/><use x="265.0409" xlink:href="#K" y="411.26775"/><path d="m1518.515625 3220.00625h4.726563v245.898438h-4.726563zm0 0" fill="none" stroke="#000" stroke-linejoin="round" stroke-miterlimit="10" stroke-width="3.98506" transform="matrix(.1 0 0 -.1 0 731.11)"/><path d="m151.851562 409.109375h.472657v-24.589844h-.472657zm0 0"/><use x="122.122" xlink:href="#ak" y="461.081"/><use x="135.728263" xlink:href="#ai" y="461.081"/><use x="149.334136" xlink:href="#U" y="461.081"/><use x="139.5138" xlink:href="#K" y="411.2677"/><use x="254.6228" xlink:href="#ao" y="461.081"/><use x="261.256022" xlink:href="#S" y="461.081"/><use x="274.861894" xlink:href="#ak" y="461.081"/><path d="m2773.789062 3220.00625h4.726563v304.6875h-4.726563zm0 0" fill="none" stroke="#000" stroke-linejoin="round" stroke-miterlimit="10" stroke-width="3.98506" transform="matrix(.1 0 0 -.1 0 731.11)"/><path d="m277.378906 409.109375h.472656v-30.46875h-.472656zm0 0"/><g clip-path="url(#y)"><path d="m3.359375 1853.44375h5946.054687" style="fill:none;stroke-width:6.68493;stroke-linecap:round;stroke-linejoin:round;stroke:#000;stroke-miterlimit:10" transform="matrix(.1 0 0 -.1 0 731.11)"/></g><g clip-path="url(#z)"><path d="m3.359375 1953.092188h5946.054687" style="fill:none;stroke-width:6.68493;stroke-linecap:round;stroke-linejoin:round;stroke:#000;stroke-miterlimit:10" transform="matrix(.1 0 0 -.1 0 731.11)"/></g><g clip-path="url(#A)"><path d="m3.359375 2052.701563h5946.054687" style="fill:none;stroke-width:6.68493;stroke-linecap:round;stroke-linejoin:round;stroke:#000;stroke-miterlimit:10" transform="matrix(.1 0 0 -.1 0 731.11)"/></g><g clip-path="url(#B)"><path d="m3.359375 2152.35h5946.054687" style="fill:none;stroke-width:6.68493;stroke-linecap:round;stroke-linejoin:round;stroke:#000;stroke-miterlimit:10" transform="matrix(.1 0 0 -.1 0 731.11)"/></g><g clip-path="url(#C)"><path d="m3.359375 2251.959375h5946.054687" style="fill:none;stroke-width:6.68493;stroke-linecap:round;stroke-linejoin:round;stroke:#000;stroke-miterlimit:10" transform="matrix(.1 0 0 -.1 0 731.11)"/></g><g clip-path="url(#D)"><path d="m5946.40625 1853.44375v398.515625" fill="none" stroke="#000" stroke-linejoin="round" stroke-miterlimit="10" stroke-width="12.7123" transform="matrix(.1 0 0 -.1 0 731.11)"/></g><path d="m4664.492188 2024.498438h4.6875v325.117187h-4.6875zm0 0" fill="none" stroke="#000" stroke-linejoin="round" stroke-miterlimit="10" stroke-width="3.98506" transform="matrix(.1 0 0 -.1 0 731.11)"/><path d="m466.449219 528.660156h.46875v-32.511718h-.46875zm0 0"/><use x="446.497" xlink:href="#P" y="580.633"/><use x="452.959495" xlink:href="#ab" y="580.633"/><use x="466.565392" xlink:href="#av" y="580.633"/><use x="454.10833" xlink:href="#K" y="530.8197"/><path d="m4035.546875 1974.69375h4.726563v275.273438h-4.726563zm0 0" fill="none" stroke="#000" stroke-linejoin="round" stroke-miterlimit="10" stroke-width="3.98506" transform="matrix(.1 0 0 -.1 0 731.11)"/><path d="m403.554688 533.640625h.472656v-27.527344h-.472656zm0 0"/><use x="377.991" xlink:href="#ad" y="580.633"/><use x="390.237107" xlink:href="#S" y="580.633"/><use x="403.842979" xlink:href="#ag" y="580.633"/><use x="391.2152" xlink:href="#K" y="535.801"/><path d="m3406.601562 1974.69375h4.726563v275.273438h-4.726563zm0 0" fill="none" stroke="#000" stroke-linejoin="round" stroke-miterlimit="10" stroke-width="3.98506" transform="matrix(.1 0 0 -.1 0 731.11)"/><path d="m340.660156 533.640625h.472656v-27.527344h-.472656zm0 0"/><use x="315.268" xlink:href="#aw" y="580.633"/><use x="328.874263" xlink:href="#ax" y="580.633"/><use x="342.140291" xlink:href="#ad" y="580.633"/><use x="328.3223" xlink:href="#K" y="535.801"/><path d="m890.898438 2153.717188v-43.867188l633.632812 20.585938v43.828125zm0 0" fill="none" stroke="#000" stroke-linejoin="round" stroke-miterlimit="10" stroke-width="3.98506" transform="matrix(.1 0 0 -.1 0 731.11)"/><path d="m89.089844 515.738281v4.386719l63.363281-2.058594v-4.382812zm0 0"/><path d="m1070.46875 1572.19375h60.390625v3.359375h-60.390625zm0 0" fill="none" stroke="#000" stroke-linejoin="round" stroke-miterlimit="10" stroke-width="5.34994" transform="matrix(.1 0 0 -.1 0 731.11)"/><path d="m107.046875 573.890625h6.039063v-.335937h-6.039063zm0 0"/><path d="m2148.75 2253.326563v-43.828125h633.632812v43.828125zm0 0" fill="none" stroke="#000" stroke-linejoin="round" stroke-miterlimit="10" stroke-width="3.98506" transform="matrix(.1 0 0 -.1 0 731.11)"/><path d="m214.875 505.777344v4.382812h63.363281v-4.382812zm0 0"/><path d="m2306.640625 1572.19375h60.390625v3.359375h-60.390625zm0 0" fill="none" stroke="#000" stroke-linejoin="round" stroke-miterlimit="10" stroke-width="5.34994" transform="matrix(.1 0 0 -.1 0 731.11)"/><path d="m230.664062 573.890625h6.039063v-.335937h-6.039063zm0 0"/><path d="m3406.601562 2230.045313h633.671876v43.828125h-633.671876zm0 0" fill="none" stroke="#000" stroke-linejoin="round" stroke-miterlimit="10" stroke-width="3.98506" transform="matrix(.1 0 0 -.1 0 731.11)"/><path d="m340.660156 508.105469h63.367188v-4.382813h-63.367188zm0 0"/><path d="m3631.679688 1572.19375h60.429687v3.359375h-60.429687zm0 0" fill="none" stroke="#000" stroke-linejoin="round" stroke-miterlimit="10" stroke-width="5.34994" transform="matrix(.1 0 0 -.1 0 731.11)"/><path d="m363.167969 573.890625h6.042969v-.335937h-6.042969zm0 0"/><path d="m4855.664062 1572.19375h60.390626v3.359375h-60.390626zm0 0" fill="none" stroke="#000" stroke-linejoin="round" stroke-miterlimit="10" stroke-width="5.34994" transform="matrix(.1 0 0 -.1 0 731.11)"/><path d="m485.566406 573.890625h6.039063v-.335937h-6.039063zm0 0"/><use x="523.237" xlink:href="#K" y="530.819"/><path d="m5355.78125 2024.498438h4.6875v325.117187h-4.6875zm0 0" fill="none" stroke="#000" stroke-linejoin="round" stroke-miterlimit="10" stroke-width="3.98506" transform="matrix(.1 0 0 -.1 0 731.11)"/><path d="m535.578125 528.660156h.46875v-32.511718h-.46875zm0 0"/><use x="502.444" xlink:href="#ak" y="580.633"/><use x="516.050288" xlink:href="#V" y="580.633"/><use x="529.656185" xlink:href="#U" y="580.633"/><use x="550.235913" xlink:href="#Z" y="580.633"/><use x="7.97" xlink:href="#M" y="535.801"/><path d="m890.898438 1825.240625h4.6875v304.6875h-4.6875zm0 0" fill="none" stroke="#000" stroke-linejoin="round" stroke-miterlimit="10" stroke-width="3.98506" transform="matrix(.1 0 0 -.1 0 731.11)"/><path d="m89.089844 548.585938h.46875v-30.46875h-.46875zm0 0"/><use x="70.3281" xlink:href="#aa" y="580.633"/><use x="82.574207" xlink:href="#ab" y="580.633"/><use x="76.74919" xlink:href="#K" y="550.7451"/><use x="43.87259" xlink:href="#L" y="525.8385"/><path d="m2148.75 1924.889063h4.726562v304.53125h-4.726562zm0 0" fill="none" stroke="#000" stroke-linejoin="round" stroke-miterlimit="10" stroke-width="3.98506" transform="matrix(.1 0 0 -.1 0 731.11)"/><path d="m214.875 538.621094h.472656v-30.453125h-.472656zm0 0"/><use x="195.434" xlink:href="#V" y="580.633"/><use x="209.040263" xlink:href="#ak" y="580.633"/><use x="202.53556" xlink:href="#K" y="540.7826"/><use x="265.428574" xlink:href="#K" y="540.7826"/><path d="m1519.804688 1875.045313h4.726562v275.15625h-4.726562zm0 0" fill="none" stroke="#000" stroke-linejoin="round" stroke-miterlimit="10" stroke-width="3.98506" transform="matrix(.1 0 0 -.1 0 731.11)"/><path d="m151.980469 543.605469h.472656v-27.515625h-.472656zm0 0"/><use x="123.952" xlink:href="#ad" y="580.633"/><use x="135.85709" xlink:href="#ae" y="580.633"/><use x="149.463353" xlink:href="#af" y="580.633"/><use x="161.538756" xlink:href="#Z" y="580.633"/><use x="139.6418" xlink:href="#K" y="545.7639"/><use x="244.7208" xlink:href="#W" y="580.633"/><use x="258.326673" xlink:href="#V" y="580.633"/><use x="271.932545" xlink:href="#ag" y="580.633"/><use x="285.538418" xlink:href="#ag" y="580.633"/><path d="m2777.695312 1924.889063h4.6875v304.53125h-4.6875zm0 0" fill="none" stroke="#000" stroke-linejoin="round" stroke-miterlimit="10" stroke-width="3.98506" transform="matrix(.1 0 0 -.1 0 731.11)"/><path d="m277.769531 538.621094h.46875v-30.453125h-.46875zm0 0"/><g clip-path="url(#E)"><path d="m3.359375 657.935938h5946.054687" style="fill:none;stroke-width:6.68493;stroke-linecap:round;stroke-linejoin:round;stroke:#000;stroke-miterlimit:10" transform="matrix(.1 0 0 -.1 0 731.11)"/></g><g clip-path="url(#F)"><path d="m3.359375 757.584375h5946.054687" style="fill:none;stroke-width:6.68493;stroke-linecap:round;stroke-linejoin:round;stroke:#000;stroke-miterlimit:10" transform="matrix(.1 0 0 -.1 0 731.11)"/></g><g clip-path="url(#G)"><path d="m3.359375 857.19375h5946.054687" style="fill:none;stroke-width:6.68493;stroke-linecap:round;stroke-linejoin:round;stroke:#000;stroke-miterlimit:10" transform="matrix(.1 0 0 -.1 0 731.11)"/></g><g clip-path="url(#H)"><path d="m3.359375 956.842188h5946.054687" style="fill:none;stroke-width:6.68493;stroke-linecap:round;stroke-linejoin:round;stroke:#000;stroke-miterlimit:10" transform="matrix(.1 0 0 -.1 0 731.11)"/></g><g clip-path="url(#I)"><path d="m3.359375 1056.451563h5946.054687" style="fill:none;stroke-width:6.68493;stroke-linecap:round;stroke-linejoin:round;stroke:#000;stroke-miterlimit:10" transform="matrix(.1 0 0 -.1 0 731.11)"/></g><g clip-path="url(#J)"><path d="m5932.695312 657.935938v398.515625" fill="none" stroke="#000" stroke-linejoin="round" stroke-miterlimit="10" stroke-width="40.1395" transform="matrix(.1 0 0 -.1 0 731.11)"/></g><path d="m5886.210938 657.935938v398.515625" fill="none" stroke="#000" stroke-linejoin="round" stroke-miterlimit="10" stroke-width="12.7123" transform="matrix(.1 0 0 -.1 0 731.11)"/><use x="517.949" xlink:href="#K" y="670.2963"/><path d="m4623.867188 679.5375h4.726562v325.117188h-4.726562zm0 0" fill="none" stroke="#000" stroke-linejoin="round" stroke-miterlimit="10" stroke-width="3.98506" transform="matrix(.1 0 0 -.1 0 731.11)"/><path d="m462.386719 663.15625h.472656v-32.511719h-.472656zm0 0"/><use x="447.029" xlink:href="#ab" y="700.2838"/><use x="460.635288" xlink:href="#T" y="700.2838"/><use x="450.04892" xlink:href="#K" y="665.315"/><path d="m4005.859375 729.342188h4.726563v304.6875h-4.726563zm0 0" fill="none" stroke="#000" stroke-linejoin="round" stroke-miterlimit="10" stroke-width="3.98506" transform="matrix(.1 0 0 -.1 0 731.11)"/><path d="m400.585938 658.175781h.472656v-30.46875h-.472656zm0 0"/><use x="378.424" xlink:href="#T" y="700.2838"/><use x="383.866597" xlink:href="#V" y="700.2838"/><use x="397.472469" xlink:href="#ag" y="700.2838"/><use x="388.24744" xlink:href="#K" y="660.3338"/><path d="m3387.851562 779.146875h4.726563v275.15625h-4.726563zm0 0" fill="none" stroke="#000" stroke-linejoin="round" stroke-miterlimit="10" stroke-width="3.98506" transform="matrix(.1 0 0 -.1 0 731.11)"/><path d="m338.785156 653.195312h.472656v-27.515624h-.472656zm0 0"/><use x="320.28" xlink:href="#R" y="700.2838"/><use x="332.014779" xlink:href="#V" y="700.2838"/><use x="326.44563" xlink:href="#K" y="655.3526"/><path d="m890.898438 1098.9125v-43.828125l622.695312-20.546875v43.828125zm0 0" fill="none" stroke="#000" stroke-linejoin="round" stroke-miterlimit="10" stroke-width="3.98506" transform="matrix(.1 0 0 -.1 0 731.11)"/><path d="m89.089844 621.21875v4.382812l62.269531 2.054688v-4.382812zm0 0"/><path d="m1101.5625 375.709375h60.390625v3.320313h-60.390625zm0 0" fill="none" stroke="#000" stroke-linejoin="round" stroke-miterlimit="10" stroke-width="5.34994" transform="matrix(.1 0 0 -.1 0 731.11)"/><path d="m110.15625 693.539062h6.039062v-.332031h-6.039062zm0 0"/><path d="m2151.835938 1178.014063v-43.867188l622.695312-20.546875v43.828125zm0 0" fill="none" stroke="#000" stroke-linejoin="round" stroke-miterlimit="10" stroke-width="3.98506" transform="matrix(.1 0 0 -.1 0 731.11)"/><path d="m215.183594 613.308594v4.386718l62.269531 2.054688v-4.382812zm0 0"/><path d="m2317.421875 375.709375h60.429687v3.320313h-60.429687zm0 0" fill="none" stroke="#000" stroke-linejoin="round" stroke-miterlimit="10" stroke-width="5.34994" transform="matrix(.1 0 0 -.1 0 731.11)"/><path d="m231.742188 693.539062h6.042968v-.332031h-6.042968zm0 0"/><path d="m3387.851562 1078.365625v-43.828125l622.734376-20.585937v43.867187zm0 0" fill="none" stroke="#000" stroke-linejoin="round" stroke-miterlimit="10" stroke-width="3.98506" transform="matrix(.1 0 0 -.1 0 731.11)"/><path d="m338.785156 623.273438v4.382812l62.273438 2.058594v-4.386719zm0 0"/><path d="m3590.039062 375.709375h60.390626v3.320313h-60.390626zm0 0" fill="none" stroke="#000" stroke-linejoin="round" stroke-miterlimit="10" stroke-width="5.34994" transform="matrix(.1 0 0 -.1 0 731.11)"/><path d="m359.003906 693.539062h6.039063v-.332031h-6.039063zm0 0"/><path d="m4785.976562 375.709375h60.390626v3.320313h-60.390626zm0 0" fill="none" stroke="#000" stroke-linejoin="round" stroke-miterlimit="10" stroke-width="5.34994" transform="matrix(.1 0 0 -.1 0 731.11)"/><path d="m478.597656 693.539062h6.039063v-.332031h-6.039063zm0 0"/><use x="524.454" xlink:href="#O" y="622.499"/><path d="m5302.890625 629.732813h4.726563v325.117187h-4.726563zm0 0" fill="none" stroke="#000" stroke-linejoin="round" stroke-miterlimit="10" stroke-width="3.98506" transform="matrix(.1 0 0 -.1 0 731.11)"/><path d="m530.289062 668.136719h.46875v-32.511719h-.46875zm0 0"/><use x="497.156" xlink:href="#ak" y="700.2838"/><use x="510.761897" xlink:href="#V" y="700.2838"/><use x="524.367794" xlink:href="#U" y="700.2838"/><use x="544.947522" xlink:href="#ay" y="700.2838"/><path d="m890.898438 828.990625h4.6875v245.898438h-4.6875zm0 0" fill="none" stroke="#000" stroke-linejoin="round" stroke-miterlimit="10" stroke-width="3.98506" transform="matrix(.1 0 0 -.1 0 731.11)"/><path d="m89.089844 648.210938h.46875v-24.589844h-.46875zm0 0"/><use x="68.8828" xlink:href="#az" y="700.2838"/><use x="84.019931" xlink:href="#V" y="700.2838"/><use x="76.74921" xlink:href="#K" y="650.3709"/><use x="43.87261" xlink:href="#L" y="645.38965"/><use x="7.96991" xlink:href="#M" y="655.35254"/><use x="193.01991" xlink:href="#aw" y="700.28374"/><use x="206.625783" xlink:href="#Y" y="700.28374"/><use x="220.231655" xlink:href="#T" y="700.28374"/><path d="m2769.84375 828.990625h4.726562v304.6875h-4.726562zm0 0" fill="none" stroke="#000" stroke-linejoin="round" stroke-miterlimit="10" stroke-width="3.98506" transform="matrix(.1 0 0 -.1 0 731.11)"/><path d="m276.984375 648.210938h.472656v-30.46875h-.472656zm0 0"/><use x="243.852" xlink:href="#ak" y="700.2838"/><use x="257.457873" xlink:href="#ax" y="700.2838"/><use x="271.064136" xlink:href="#U" y="700.2838"/><use x="291.64384" xlink:href="#Z" y="700.2838"/><use x="264.645" xlink:href="#K" y="650.3709"/><path d="m2151.835938 878.795313h4.6875v275.15625h-4.6875zm0 0" fill="none" stroke="#000" stroke-linejoin="round" stroke-miterlimit="10" stroke-width="3.98506" transform="matrix(.1 0 0 -.1 0 731.11)"/><path d="m215.183594 643.230469h.46875v-27.515625h-.46875zm0 0"/><use x="202.843" xlink:href="#K" y="645.3897"/><use x="138.5512" xlink:href="#K" y="655.35259"/><use x="128.72776" xlink:href="#T" y="700.28379"/><use x="134.170344" xlink:href="#V" y="700.28379"/><use x="147.776608" xlink:href="#ag" y="700.28379"/><path d="m1508.90625 779.146875h4.6875v275.46875h-4.6875zm0 0" fill="none" stroke="#000" stroke-linejoin="round" stroke-miterlimit="10" stroke-width="3.98506" transform="matrix(.1 0 0 -.1 0 731.11)"/><path d="m150.890625 653.195312h.46875v-27.546874h-.46875zm0 0"/></svg>